<?xml version="1.0" standalone="no"?>
<!DOCTYPE svg PUBLIC "-//W3C//DTD SVG 1.1//EN" "http://www.w3.org/Graphics/SVG/1.1/DTD/svg11.dtd" >
<svg xmlns="http://www.w3.org/2000/svg" xmlns:xlink="http://www.w3.org/1999/xlink" version="1.1" viewBox="0 -204 1024 1024">
  <g transform="matrix(1 0 0 -1 0 820)">
   <path fill="currentColor"
d="M914 100l2 -17q-26 -6 -33 -14.5t-15 -26.5q-79 0 -223.5 2.5t-189.5 9.5t-69 13.5t-44.5 21.5t-29.5 27l-21 25q-12 11 -34 14.5t-103 -78.5l1 -14q1 -12 -5.5 -14.5t-15.5 6.5l-42 40q91 60 125.5 77t51.5 17q5 -1 11 -2.5t10.5 -5t18.5 -18.5t25.5 -26.5t37 -22.5
t126 -17.5t208.5 -4.5q15 0 35 1l134 6l39 1v0zM283 165l-11 21q46 15 120 46l75 31q10 4 82.5 38t82.5 40l28 16l-317 1q-28 0 -74 -6l-19 43q53 -8 93 -8h153q-2 3 -3.5 7t-7.5 22t-17 39.5t-48 59.5l11 13q90 -56 100 -80.5t10 -35t-3 -15.5l-6 -10h164l33 24l38 -50
q10 -14 5.5 -21.5t-20.5 -6.5l-26 1q-43 -18 -116 -50.5t-138.5 -56.5t-188.5 -62zM270 563v263h-60q-43 0 -96 -4l-19 44q49 -12 115 -12h60v33q0 24 -1.5 47.5t-2.5 32.5l54 -12q25 -6 33.5 -10.5t10 -15.5t-25.5 -18l-20 -5v-52h377v33q0 32 -1 51.5t-2 28.5l54 -12
q25 -6 33.5 -10.5t9 -11.5t-6.5 -13t-18 -9l-21 -5v-52h70l49 51l60 -54q5 -5 7 -7.5t0 -10.5t-16 -8l-170 1l1 -263h128l49 51l60 -53q5 -5 7.5 -8t0.5 -9q-3 -9 -13 -9l-293 -1q55 -69 113 -105.5t97.5 -53t103.5 -30.5l-1 -21q-28 -1 -43 -7.5t-19 -14.5l-9 -16
q-57 29 -102.5 61t-95 89t-77.5 98h-282q-37 -55 -80 -102.5t-114.5 -86t-138.5 -64.5l-6 18q62 31 90.5 50.5t68.5 52t68.5 67t47.5 65.5h-164q-47 0 -96 -4l-19 44q48 -12 115 -11h130zM318 826v-69h377v69h-377zM318 730v-71h377v71h-377zM318 633v-70h377v70h-377z" />
  </g>

</svg>
