<?xml version="1.0" standalone="no"?>
<!DOCTYPE svg PUBLIC "-//W3C//DTD SVG 1.1//EN" "http://www.w3.org/Graphics/SVG/1.1/DTD/svg11.dtd" >
<svg xmlns="http://www.w3.org/2000/svg" xmlns:xlink="http://www.w3.org/1999/xlink" version="1.1" viewBox="0 -205 1024 1024">
  <g transform="matrix(1 0 0 -1 0 819)">
   <path fill="currentColor"
d="M66 981l39 -44h218l35 41l48 -49q7 -6 5 -10q-1 -5 -11 -7l-18 -9v-100l4 -36q12 -39 -44 -44v48h-229v-116h214l35 39l44 -47q7 -6 5 -10q-1 -5 -11 -7l-18 -7v-110l4 -36q13 -40 -44 -44v42h-229v-114h210l35 41l44 -49q7 -6 5 -10q-1 -5 -11 -7l-18 -9v-108l4 -35
q8 -57 -44 -56v48h-225v-73q2 -37 -51 -46q5 39 7 185v683q-3 24 -19 44zM758 998l89 -36q14 -5 6 -11q-21 -7 -30 -21v-194h36l34 46l66 -56q8 -5 7 -8q-2 -2 -13 -2h-130v-276h74l30 42l68 -52q8 -5 7 -8q-2 -2 -13 -2h-166v-254l3 -95q2 -37 -54 -46q5 39 7 187v208h-186
q-12 -131 -38 -205q-52 -143 -165 -202l-6 13q101 76 139 227q17 68 25 167h-66q-27 1 -45 -13l-34 33h147q9 117 6 276h-64q-27 1 -45 -13l-34 33h143v203q-12 24 -26 35l6 16l102 -37q4 -8 -10 -13q-9 -3 -26 -17v-187h177v204q2 16 -30 46zM779 716h-177q2 -159 -7 -276
h184v276zM113 194h225v149h-225v-149zM113 493h229v144h-229v-144zM113 789h229v130h-229v-130z" />
  </g>

</svg>
