<?xml version="1.0" standalone="no"?>
<!DOCTYPE svg PUBLIC "-//W3C//DTD SVG 1.1//EN" "http://www.w3.org/Graphics/SVG/1.1/DTD/svg11.dtd" >
<svg xmlns="http://www.w3.org/2000/svg" xmlns:xlink="http://www.w3.org/1999/xlink" version="1.1" viewBox="0 -205 1024 1024">
  <g transform="matrix(1 0 0 -1 0 819)">
   <path fill="currentColor"
d="M834 355q-6 -8 -15 -80t-37 -124q-30 -52 -63 -74q-35 -23 -71 -30q-13 -3 -45 -9q-29 -5 -45 -8q-6 30 -42 48q-38 16 -107 36l2 18q74 -18 135 -28q56 -12 111 4q56 16 81 65q26 50 35 113t7 83h-469l-41 -38l-44 58q17 5 38 22l69 146h-227q-27 1 -45 -13l-34 33h840
l37 42l70 -50q11 -7 8 -10q-2 -3 -19 -2h-580l-81 -168h462l33 40l65 -53q5 -9 -6 -11zM834 989l69 -72q6 -7 4 -11q-1 -4 -10 -5q-22 17 -77 0q-127 -20 -258 -31q-130 -11 -479 -7v17q417 19 520 34q64 9 142 22q-39 -7 7 1q76 13 75 50zM352 846l60 -49q17 -15 3 -21
q-18 9 -41 -11q-130 -106 -279 -164l-8 11q218 135 260 197q6 15 -5 29zM584 811l4 16q212 -59 266 -119q49 -57 6 -77q-18 -4 -39 29t-68 65t-169 86z" />
  </g>

</svg>
