<?xml version="1.0" standalone="no"?>
<!DOCTYPE svg PUBLIC "-//W3C//DTD SVG 1.1//EN" "http://www.w3.org/Graphics/SVG/1.1/DTD/svg11.dtd" >
<svg xmlns="http://www.w3.org/2000/svg" xmlns:xlink="http://www.w3.org/1999/xlink" version="1.1" viewBox="0 -205 1024 1024">
  <g transform="matrix(1 0 0 -1 0 819)">
   <path fill="currentColor"
d="M384 1003l64 -42q15 -9 5 -19q-12 1 -21 1q-7 0 -39 -40q-27 -34 -66 -78h422l35 41l52 -49q7 -6 5 -10q-1 -5 -11 -7l-18 -9v-196l4 -36q7 -40 -50 -44v44h-539v-166h554l35 41l52 -49q7 -6 5 -10q-1 -5 -11 -7l-18 -9v-221l4 -36q7 -40 -50 -44v56h-571v-43
q2 -37 -53 -46q5 39 7 203v597q-3 24 -19 44l16 12l49 -55v-1h73q21 33 54 87q-20 -33 4 6q26 44 26 53q0 10 -8 25zM227 134h571v239h-571v-239zM227 579h539v226h-539v-226z" />
  </g>

</svg>
