<?xml version="1.0" standalone="no"?>
<!DOCTYPE svg PUBLIC "-//W3C//DTD SVG 1.1//EN" "http://www.w3.org/Graphics/SVG/1.1/DTD/svg11.dtd" >
<svg xmlns="http://www.w3.org/2000/svg" xmlns:xlink="http://www.w3.org/1999/xlink" version="1.1" viewBox="0 -205 1024 1024">
  <g transform="matrix(1 0 0 -1 0 819)">
   <path fill="currentColor"
d="M112 593l37 -34h300l39 39l46 -47q7 -6 5 -10q-1 -5 -11 -7l-18 -9v-92l3 -47q0 -32 -45 -33v30h-307v-7q3 -36 -49 -44q5 37 7 88v124q2 16 -19 37zM712 954q4 -3 3 -5q0 -2 -4 -4q-17 -2 -35 -17v-766q0 -58 14 -66q15 -9 36 -11t74 -2t69 1q17 1 27 5q12 4 16 20
q5 15 7 35q2 17 3 121h14q5 -98 6 -124q2 -30 28 -41q-15 -34 -28 -41q-12 -8 -28 -12q-16 -5 -83 -6t-107 2q-39 1 -53 6q-13 4 -27 25q-13 21 -12 70v793q-1 17 -28 40l8 10zM161 403h307v136h-307v-136zM280 990l80 -34q14 -5 6 -11q-16 -4 -27 -18v-99h126l34 48l72 -58
q8 -5 7 -8q-2 -2 -13 -2h-226v-132h112l36 46l72 -56q8 -5 7 -8q-2 -2 -13 -2h-399q-27 1 -45 -13l-34 33h222v132h-167q-27 1 -45 -13l-34 33h246v109q2 17 -25 42zM402 357l64 -36q17 -9 7 -17q-18 2 -33 -9q-18 -43 -69 -126l219 42l2 -19l-292 -68q-130 -32 -159 -42
q-28 -11 -51 -42l-46 66l295 56l27 53q40 95 38 107q-2 13 -10 28zM166 327l6 14q53 -34 69 -53q17 -19 23 -44q9 -59 -22 -67q-13 1 -18 34q-4 34 -18 62q-14 29 -40 54z" />
  </g>

</svg>
