<?xml version="1.0" standalone="no"?>
<!DOCTYPE svg PUBLIC "-//W3C//DTD SVG 1.1//EN" "http://www.w3.org/Graphics/SVG/1.1/DTD/svg11.dtd" >
<svg xmlns="http://www.w3.org/2000/svg" xmlns:xlink="http://www.w3.org/1999/xlink" version="1.1" viewBox="0 -205 1024 1024">
  <g transform="matrix(1 0 0 -1 0 819)">
   <path fill="currentColor"
d="M136 562l28 -29h283l31 27l38 -31q7 -6 5 -10q-1 -5 -11 -7l-18 -9v-86l2 -54q3 -6 -6 -12t-30 -7v24h-291q-2 -7 -8 -13q-10 -9 -33 -14q5 21 8 81v105q-3 18 -10 27zM644 550l-35 31h200l28 34l60 -51q3 -5 1 -8q-2 -2 -10 -2q-21 -4 -35 -22q-94 -162 -126 -224
q-33 -63 -51 -103q-21 -41 -21 -67q-2 -30 13 -43q12 -14 56 -15q42 0 161 3q33 4 36 47q3 40 3 122h16q3 -94 9 -120q4 -27 22 -35q-5 -28 -17 -37q-13 -9 -30 -14q-17 -4 -57 -9h-130q-45 3 -57 6q-15 3 -27 11q-15 9 -22 18t-13 32t-4 46q2 20 17 58q16 38 41 83
q24 45 147 270h-146q-21 1 -29 -11zM185 87l1 16q54 -15 105 -20q48 -9 75 0q26 12 41 38q15 29 25 95h-230l-23 -30l-42 42q17 4 30 16l38 53h-95q-27 0 -45 -13l-34 33h482l32 40l68 -50q7 -5 6 -8q-1 -2 -12 -2h-360l-46 -61h225l29 30l47 -49q5 -9 -6 -11l-24 -14
q-15 -61 -28 -88q-15 -27 -30 -39q-16 -12 -41 -20q-25 -9 -75 -15q0 27 -33 35q-35 9 -80 22zM71 900l32 -29h100l25 30l34 -34q7 -5 6 -10q-1 -4 -10 -8l-12 -10v-96l2 -69q-2 -18 -8 -24q-7 -6 -28 -7v34h-99q-1 -12 -7 -21q-9 -9 -34 -14q4 36 7 80v128q-3 17 -17 41z
M361 906l29 -29h91l25 30l40 -38q7 -6 5 -10q-1 -5 -11 -7l-14 -5v-106l2 -61q-1 -18 -9 -24q-9 -6 -27 -7v38h-90q0 -20 -8 -29q-9 -9 -34 -14q4 36 7 96v116q-3 17 -15 42zM28 606h262v334h-192q-27 5 -45 -13l-34 29h462l30 42l53 -46q11 -8 8 -11q-3 -2 -19 -1h-225
v-334h173l30 43l47 -47q5 -5 2 -9q-3 -3 -13 -3h-460q-27 5 -45 -13zM648 996l84 -29q5 -2 5 -7q0 -4 -6 -6q-28 -7 -33 -16q-6 -42 -18 -113q-5 -32 -7 -47h222l30 45l64 -52q8 -6 7 -9q0 -3 -9 -3h-322q-28 -118 -87 -215l-11 4q77 208 89 405q0 9 -15 34zM458 519h-290
v-62h290v62zM168 445v-63h290v63h-290zM212 857h-99v-81h99v81zM492 863h-91v-85h91v85zM113 764v-73h99v73h-99zM401 767v-66h91v66h-91z" />
  </g>

</svg>
