<?xml version="1.0" standalone="no"?>
<!DOCTYPE svg PUBLIC "-//W3C//DTD SVG 1.1//EN" "http://www.w3.org/Graphics/SVG/1.1/DTD/svg11.dtd" >
<svg xmlns="http://www.w3.org/2000/svg" xmlns:xlink="http://www.w3.org/1999/xlink" version="1.1" viewBox="0 0 2048 2048">
  <g transform="matrix(1 0 0 -1 0 2048)">
   <path fill="currentColor"
d="M553 1068q138 -174 250 -372q178 -315 178 -431q0 -68 -53 -74q-38 -4 -57 42q-7 16 -31 106q-80 304 -297 661q-119 -588 -473 -907l-24 26q251 293 360 689q37 136 60 349q20 181 20 266q0 45 -1 72l134 -27q59 -12 61 -35q0 -18 -46 -40l-44 -21q-15 -152 -37 -304z
M839 1961q90 -53 153 -101q109 -83 117 -150q4 -35 -31 -83l634 -1l106 113l135 -117q22 -20 15 -34t-27 -14l-1615 -2q-109 0 -191 -8l-39 88q105 -25 238 -25l691 -1q-16 14 -22 39q-30 132 -188 263zM1383 1505l118 -24q87 -18 89 -44q4 -31 -51 -44l-45 -9
q-3 -77 -5 -170q-1 -73 -3 -135l20 -76q89 -344 195 -545q118 -222 294 -312l-9 -32q-24 2 -31 2q-82 0 -125 -48q-146 161 -235 388q-45 115 -84 265q-5 20 -23 105q-7 30 -15 68q-44 -317 -157 -497q-131 -210 -401 -351l-16 30q198 146 303 309q199 311 190 894l-1 65
q-1 127 -8 161z" />
  </g>

</svg>
