<?xml version="1.0" standalone="no"?>
<!DOCTYPE svg PUBLIC "-//W3C//DTD SVG 1.1//EN" "http://www.w3.org/Graphics/SVG/1.1/DTD/svg11.dtd" >
<svg xmlns="http://www.w3.org/2000/svg" xmlns:xlink="http://www.w3.org/1999/xlink" version="1.1" viewBox="0 0 2048 2048">
  <g transform="matrix(1 0 0 -1 0 2048)">
   <path fill="currentColor"
d="M1276 838v-176h282l68 76l84 -54q40 -26 40 -48q0 -28 -78 -62v-132q19 -12 29 -18q34 -21 30 -40q-4 -18 -25 -18h-419v-189h381l98 101l121 -107q20 -18 15 -33q-5 -18 -26 -18h-1499q-117 0 -191 -8l-39 88q99 -23 230 -23h397v192h-277q-26 -13 -45 -15
q-53 -8 -60 27q-3 13 2 111l1 234l122 -69h249v181h-193q-119 0 -192 -8l-38 88q99 -23 230 -23h904l87 101l120 -107q21 -18 16 -33q-6 -18 -26 -18h-398zM1178 838h-316v-164q66 -39 57 -60q-5 -14 -26 -14h-400v-177h267l68 76l84 -54q40 -26 40 -49q0 -27 -79 -61v-158
h316v310l120 -67h264v184h-293q-18 -12 -43 -15q-59 -8 -59 30v219zM890 1950q128 -70 155 -93q38 -34 32 -79q-3 -23 -27 -50l642 1l98 101l121 -107q20 -18 15 -33q-6 -19 -26 -19l-1537 2q-118 0 -193 -8l-41 88q85 -24 234 -24h637q-20 72 -62 118q-37 40 -71 70z
M494 1592l118 -66h828l68 76l84 -54q40 -26 40 -49q0 -21 -29 -38q-6 -4 -13 -7q-13 -7 -40 -21v-101l42 -36q14 -12 15 -27q1 -19 -17 -19h-1002v-29q0 -26 -43 -30q-66 -7 -61 51l4 41q7 99 7 112zM588 1308h864v162h-864v-162zM275 1058q-6 -97 -16 -137q-20 -84 -88 -95
q-25 -4 -45 16q-18 18 -13 40t67 78q41 36 56 224h42q-1 -40 -3 -70h1513l54 63l93 -69q34 -26 35 -43q1 -22 -40 -30l-45 -8q-56 -74 -125 -133l-25 24q4 10 20 43q7 14 33 97h-1513z" />
  </g>

</svg>
