<?xml version="1.0" standalone="no"?>
<!DOCTYPE svg PUBLIC "-//W3C//DTD SVG 1.1//EN" "http://www.w3.org/Graphics/SVG/1.1/DTD/svg11.dtd" >
<svg xmlns="http://www.w3.org/2000/svg" xmlns:xlink="http://www.w3.org/1999/xlink" version="1.1" viewBox="0 0 2048 2048">
  <g transform="matrix(1 0 0 -1 0 2048)">
   <path fill="currentColor"
d="M1195 1947q104 -78 130 -102q71 -65 75 -124q4 -44 -40 -73h354l98 111l142 -110q13 -10 16 -23q7 -34 -30 -34h-1091l-1 -376q-1 -405 -56 -683q-59 -296 -225 -478l-24 23q110 172 158 431q50 272 50 746q0 333 -8 467l114 -74h459q-1 1 -4 5q-9 12 -12 26
q-22 87 -61 151q-22 34 -70 91zM468 1954l147 -58q26 -10 35 -25q20 -33 -38 -41l-59 -9q-89 -255 -165 -403l92 -33q25 -9 25 -32q0 -17 -20 -25l-50 -19v-1038q0 -78 8 -147q1 -17 1 -31q0 -42 -64 -42q-42 0 -42 46v1238l-32 -52q-114 -182 -230 -305l-26 26
q182 256 274 484q115 286 144 466z" />
  </g>

</svg>
