<?xml version="1.0" standalone="no"?>
<!DOCTYPE svg PUBLIC "-//W3C//DTD SVG 1.1//EN" "http://www.w3.org/Graphics/SVG/1.1/DTD/svg11.dtd" >
<svg xmlns="http://www.w3.org/2000/svg" xmlns:xlink="http://www.w3.org/1999/xlink" version="1.1" viewBox="0 0 2048 2048">
  <g transform="matrix(1 0 0 -1 0 2048)">
   <path fill="currentColor"
d="M441 1407l99 -38q21 -8 23 -27q3 -21 -31 -32l-41 -14v-990q0 -72 6 -131q6 -67 2 -88q-3 -14 -18 -24q-23 -16 -53 -12q-41 5 -41 33v1238q-113 -173 -310 -341l-25 30q192 213 326 470q125 239 183 462l130 -54q33 -14 44 -26q15 -19 -4 -35q-11 -8 -38 -10l-53 -4
q-87 -222 -199 -407zM1182 1934l109 -24q82 -18 86 -43q3 -27 -50 -44l-44 -14l1 -246l458 2l102 102l119 -104q16 -14 17 -26q2 -30 -30 -30h-666v-363h322l69 80l107 -72q24 -16 22 -41q-1 -25 -26 -35l-69 -25q-162 -381 -396 -595q304 -224 656 -292v-34
q-109 -7 -134 -75q-211 79 -321 144q-137 81 -265 192q-136 -115 -330 -213q-86 -44 -326 -124l-17 37q394 154 614 365q-127 137 -210 300q-72 142 -128 331q-20 -2 -31 -2q-38 -2 -68 -6l-39 80q94 -15 223 -15h251v668q0 86 -6 122zM898 1088q128 -377 352 -575
q227 219 362 575h-714z" />
  </g>

</svg>
