<?xml version="1.0" standalone="no"?>
<!DOCTYPE svg PUBLIC "-//W3C//DTD SVG 1.1//EN" "http://www.w3.org/Graphics/SVG/1.1/DTD/svg11.dtd" >
<svg xmlns="http://www.w3.org/2000/svg" xmlns:xlink="http://www.w3.org/1999/xlink" version="1.1" viewBox="0 -205 1024 1024">
  <g transform="matrix(1 0 0 -1 0 819)">
   <path fill="currentColor"
d="M868 430l-6 -97q-7 -118 -24 -169q-17 -50 -52 -78t-86 -34q2 37 -50 51q-21 6 -88 23l4 16q27 -5 68 -12q46 -8 62 -10q17 -2 39 2q22 3 44 32q23 30 35 157l6 126h-213q-10 -62 -25 -116q-31 -106 -120 -183q-89 -80 -175 -108l-10 12q82 48 164 130q83 83 105 194
q8 36 12 71h-145q-28 1 -40 -14l-32 34h220q8 62 9 122q-4 20 -23 34l8 11l87 -32q6 -2 7 -5q0 -3 -5 -6q-14 -5 -26 -14q-1 -58 -9 -110h195l34 41l50 -36q9 -6 9 -11q0 -4 -9 -8zM575 1000l85 -30q6 -2 7 -5q0 -3 -5 -6q-14 -7 -26 -16q-7 -54 -24 -114h252l41 50l74 -58
q11 -7 8 -10q-2 -3 -19 -2h-268q40 -68 71 -107q59 -73 121 -102q41 -20 120 -30v-17q-41 1 -54 -5q-15 -6 -26 -28q-66 28 -105 58t-76 78q-36 47 -77 153h-68q-3 -8 -8 -25l-6 -18q-33 -94 -120 -174q-87 -79 -203 -121l-10 12q221 119 286 288q7 19 13 38h-163
q-27 1 -45 -13l-34 33h248q17 61 22 128q-4 20 -19 32zM262 993l86 -43q11 -9 1 -13q-18 -1 -37 -13q-37 -96 -76 -175v-587l2 -95q2 -37 -55 -46q5 39 7 187v456q-76 -130 -165 -206l-12 7q121 157 187 305t67 173q2 26 -13 42z" />
  </g>

</svg>
