<?xml version="1.0" standalone="no"?>
<!DOCTYPE svg PUBLIC "-//W3C//DTD SVG 1.1//EN" "http://www.w3.org/Graphics/SVG/1.1/DTD/svg11.dtd" >
<svg xmlns="http://www.w3.org/2000/svg" xmlns:xlink="http://www.w3.org/1999/xlink" version="1.1" viewBox="0 0 2048 2048">
  <g transform="matrix(1 0 0 -1 0 2048)">
   <path fill="currentColor"
d="M1232 1123q-19 9 -19 26l-2 435q-289 -231 -638 -336l-17 36q232 94 385 197q91 61 169 128q72 62 152 173h-367q-60 0 -149 -11l-39 86q119 -17 188 -17h806l98 102l121 -107q21 -18 16 -34q-6 -19 -26 -19h-518q-39 -63 -85 -115v-10q212 -68 356 -135
q134 -63 212 -128q67 -56 40 -106q-18 -33 -54 -26q-27 5 -96 73q-100 101 -289 200q-46 23 -117 52q-28 12 -52 24v-244q0 -80 6 -140q5 -43 4 -68q-1 -20 -30 -36h398l68 75l83 -53q40 -26 40 -49q0 -27 -77 -61v-785q0 -144 -159 -172q-2 67 -43 94q-33 21 -159 43l7 46
q136 -22 190 -27q68 -5 68 58v247h-412v-117q0 -81 13 -209q3 -26 4 -44q2 -57 -61 -57q-48 0 -48 41v386h-377q-8 -137 -41 -235q-36 -109 -138 -242l-31 20q78 136 101 305q20 149 20 414v231q0 78 -10 166l117 -75h392zM1703 595v209h-412v-209h412zM1199 595v209h-367
q-4 -149 -7 -209h374zM1291 861h412v206h-412v-206zM1199 861v206h-367v-206h367zM482 1955l147 -58q26 -10 35 -24q19 -33 -38 -42l-59 -8q-89 -255 -165 -403l92 -33q25 -9 25 -32q0 -17 -20 -25l-50 -19v-1035q0 -77 8 -147q1 -16 1 -30q0 -43 -64 -43q-42 0 -42 46v1234
q-21 -34 -32 -51q-112 -180 -230 -306l-26 27q182 258 274 484q115 286 144 465z" />
  </g>

</svg>
