<?xml version="1.0" standalone="no"?>
<!DOCTYPE svg PUBLIC "-//W3C//DTD SVG 1.1//EN" "http://www.w3.org/Graphics/SVG/1.1/DTD/svg11.dtd" >
<svg xmlns="http://www.w3.org/2000/svg" xmlns:xlink="http://www.w3.org/1999/xlink" version="1.1" viewBox="0 -205 1024 1024">
  <g transform="matrix(1 0 0 -1 0 819)">
   <path fill="currentColor"
d="M818 518v-366q2 -60 -11 -87t-65 -35q-6 28 -38 42q-32 12 -56 19l2 16q76 -19 100 -17t24 50v129h-307v-125l4 -73q2 -36 -55 -46q5 39 7 128v377l-7 23l12 8l17 -9h313l22 21l36 -23q9 -6 9 -11q0 -4 -9 -8zM591 997l80 -25q7 -4 7 -8t-6 -8q-15 -2 -27 -14
q-8 -52 -23 -100h218l41 50l74 -58q11 -7 8 -10q-2 -3 -19 -2h-277q49 -84 82 -120l3 -3q13 -15 29 -31q43 44 55 54q30 26 13 52l10 8l60 -40q15 -11 5 -19q-16 1 -35 -7q-43 -31 -92 -63q10 -7 19 -15q79 -67 175 -74v-17q-65 4 -78 -29q-116 56 -192 157q-43 59 -75 147
h-30q-10 -28 -22 -55q-37 -80 -120 -155q-82 -75 -191 -108l-6 14q202 104 274 266q8 18 15 38h-187q-27 1 -45 -13l-34 33h273q16 53 25 118q-4 20 -15 26zM250 994l80 -43q11 -9 1 -13q-13 -1 -33 -13q-40 -108 -84 -194v-568l2 -95q2 -37 -53 -46q5 39 7 187v443
q-63 -102 -132 -162l-12 7q103 140 164 280q62 140 63 165q2 26 -13 42zM774 401h-307v-116h307v116zM467 417h307v115h-307v-115zM348 772q80 -30 99 -58q18 -41 -14 -56q-17 -4 -25 20q-7 25 -17 40q-9 15 -52 44z" />
  </g>

</svg>
