<?xml version="1.0" standalone="no"?>
<!DOCTYPE svg PUBLIC "-//W3C//DTD SVG 1.1//EN" "http://www.w3.org/Graphics/SVG/1.1/DTD/svg11.dtd" >
<svg xmlns="http://www.w3.org/2000/svg" xmlns:xlink="http://www.w3.org/1999/xlink" version="1.1" viewBox="0 0 2048 2048">
  <g transform="matrix(1 0 0 -1 0 2048)">
   <path fill="currentColor"
d="M1657 1190q72 115 131 295l100 -42q54 -23 49 -45q-4 -18 -39 -21q-33 -3 -44 -5q-74 -170 -149 -274q24 -40 50 -71q68 -81 95 -83q28 -3 87 153l34 -11q-8 -28 -12 -43q-25 -87 -27 -119q-1 -28 19 -75q5 -11 4 -22q-3 -46 -67 -27q-138 40 -248 216
q-128 -146 -294 -235l-18 31q147 124 268 286q-102 222 -130 508l-328 1l-2 -183h164l51 62l72 -51q19 -12 23 -26q7 -23 -50 -50q-2 -52 -8 -139q-4 -60 -8 -114q-7 -129 -47 -170q-25 -26 -89 -43q-7 41 -26 58q-18 16 -87 35l3 33q46 -3 87 -7q50 -4 60 39q5 24 12 151
q5 111 9 169h-169q0 -176 -51 -311q-43 -113 -165 -217l-21 28q81 120 107 211q44 155 44 499q0 72 -7 132l106 -55h315q-5 69 -7 136q-3 71 -12 126l119 -25q44 -9 48 -25q5 -21 -64 -46q3 -97 9 -166h211l74 81l94 -83q19 -16 16 -31q-2 -19 -24 -19h-366q22 -233 98 -416
zM174 1673q106 -24 229 -24h100v134q0 104 -8 144l142 -26q53 -10 45 -42q-4 -19 -34 -31l-49 -19v-160h129l80 85l107 -86q25 -20 15 -42q-5 -10 -18 -10h-313v-187h199l80 84l111 -81q28 -20 20 -36q-8 -17 -25 -17h-385l1 -48l72 -30q271 -112 239 -208q-7 -20 -27 -30
q-14 -8 -26 -4q-17 5 -79 83q-38 46 -180 140l1 -246q0 -52 8 -167q4 -58 -53 -64q-52 -5 -52 33l-1 429q-136 -214 -390 -356l-24 33q236 188 365 435h-144q-117 0 -193 -11l-34 77q111 -16 227 -16h194v187h-100q-99 0 -192 -8zM943 833l131 -30q55 -13 55 -34
q0 -29 -21 -33l-38 -8l-34 -7l-8 -31q168 -223 364 -333q228 -128 601 -187v-38q-87 -2 -124 -74q-295 70 -511 212q-187 123 -352 359q-110 -246 -386 -403q-191 -109 -527 -175l-13 41q381 108 581 269q159 127 223 268q33 72 59 204zM1648 1885q13 -5 67 -25
q86 -33 86 -81q0 -49 -41 -42q-18 3 -41 40q-26 43 -87 83z" />
  </g>

</svg>
