<?xml version="1.0" standalone="no"?>
<!DOCTYPE svg PUBLIC "-//W3C//DTD SVG 1.1//EN" "http://www.w3.org/Graphics/SVG/1.1/DTD/svg11.dtd" >
<svg xmlns="http://www.w3.org/2000/svg" xmlns:xlink="http://www.w3.org/1999/xlink" version="1.1" viewBox="0 0 2048 2048">
  <g transform="matrix(1 0 0 -1 0 2048)">
   <path fill="currentColor"
d="M376 1402l83 -31q31 -12 23 -38q-4 -14 -17 -19l-51 -21v-1004v-64q3 -72 7 -102q8 -73 -64 -69q-28 1 -35 17q-7 13 -7 95v1114q-116 -216 -224 -334l-30 34q300 456 384 969l145 -53q50 -18 42 -46q-5 -19 -42 -23l-62 -8q-71 -252 -152 -417zM1757 1382l72 -38
q56 -29 44 -51q-10 -17 -75 -23q-41 -61 -102 -121h72l79 80l63 -47q63 -47 63 -68q0 -23 -25 -23h-316v-134h80l86 92l112 -92q23 -18 22 -33q-1 -21 -26 -21h-274v-24q0 -10 3 -39q7 -64 -3 -82t-53 -20t-43 36v129h-56q-68 0 -146 -10l-36 81q111 -17 182 -17h56v134
h-112q-68 0 -146 -11l-38 86q115 -17 184 -17h49q-20 20 -25 54q-12 76 -83 162l19 17l-32 -1l2 -3l-11 -2l-26 -3q-7 -1 -24 -4l-38 86q117 -18 183 -18h146q-16 9 -44 67q-15 29 -72 77l15 27q172 -59 168 -130q-1 -18 -26 -41h117l79 82l93 -79q29 -23 30 -38
q1 -20 -19 -20h-168zM1737 1382h-331q150 -121 137 -195q-5 -23 -31 -38h126q55 86 99 233zM1301 507q150 58 290 122l-664 1q-63 0 -149 -11l-39 82q112 -17 188 -17h701l83 61l66 -59q46 -41 34 -64q-11 -21 -119 -25q-164 -63 -329 -121q4 -9 3 -12q-2 -11 -24 -22
l-25 -14h428l99 97l115 -97q26 -22 23 -43q-3 -14 -33 -14h-638v-161q0 -142 -154 -171q-12 71 -48 93q-32 21 -159 44l8 46q137 -23 190 -27q67 -6 67 56v120h-485q-69 0 -149 -11l-39 86q125 -18 188 -18h485l1 20q1 7 -5 59q-1 10 -2 32l84 -29zM1049 1440l60 72l70 -50
q37 -26 41 -44q5 -20 -25 -37q-6 -4 -12 -7q-9 -4 -26 -14v-107q51 -36 51 -55q0 -16 -33 -16h-414v-122h315l60 72l70 -49q36 -26 41 -44q5 -20 -25 -37q-6 -4 -13 -7q-9 -4 -26 -14v-125q58 -43 55 -63q-2 -13 -46 -13h-431v-29q0 -33 -61 -33q-33 0 -33 19v767l118 -64
h44q37 83 59 172l90 -31q61 -21 59 -42q-2 -27 -92 -38q-28 -34 -58 -61h162zM1091 1002h-330v-163h330v163zM761 1237h303v145h-303v-145zM1623 1802h122l95 98l120 -103q21 -18 16 -34q-6 -18 -26 -18h-335l-9 -65q-5 -37 -18 -45q-19 -12 -51 -7q-41 7 -35 33l3 16l14 68
l-26 -2q-82 -2 -133 -9l-37 86q101 -15 170 -17l35 -1q4 36 7 54q10 69 9 109l99 -19q81 -16 76 -46q-4 -26 -89 -42zM1011 1802h38l84 87l120 -92q21 -16 15 -34q-5 -18 -25 -18h-225l13 -74q8 -50 -53 -57q-39 -4 -42 26l-10 105h-91q-69 0 -148 -11l-40 86
q126 -18 188 -18h84l-19 160l98 -13q74 -10 83 -27q11 -20 -22 -38q-7 -3 -13 -6q-15 -6 -43 -19z" />
  </g>

</svg>
