<?xml version="1.0" standalone="no"?>
<!DOCTYPE svg PUBLIC "-//W3C//DTD SVG 1.1//EN" "http://www.w3.org/Graphics/SVG/1.1/DTD/svg11.dtd" >
<svg xmlns="http://www.w3.org/2000/svg" xmlns:xlink="http://www.w3.org/1999/xlink" version="1.1" viewBox="0 0 2048 2048">
  <g transform="matrix(1 0 0 -1 0 2048)">
   <path fill="currentColor"
d="M398 1460q-77 -23 -186 -47l-15 -38q-8 -20 -22 -18t-23 24l-46 105q55 51 140 198q75 131 124 257l140 -70q18 -9 16 -24q-3 -23 -36 -25l-51 -3q-146 -203 -273 -326q94 4 270 30q67 123 105 233l132 -63q31 -15 27 -34q-3 -14 -27 -18l-62 -12q-86 -148 -194 -277
q-114 -136 -207 -219q201 14 378 47q-26 73 -78 152l26 23q166 -155 166 -259q0 -57 -51 -57q-34 0 -40 33q-7 48 -11 65q-54 -18 -296 -86l-57 -16l-11 -35q-7 -22 -21 -22q-15 0 -29 28l-59 115q43 30 121 129q86 107 150 210zM1632 1451q-111 -31 -208 -53l-15 -38
q-6 -14 -23 -13q-16 2 -23 17l-45 100q61 50 135 187q83 155 129 275l140 -70q19 -10 17 -24q-3 -22 -38 -25l-51 -3q-136 -194 -266 -326q118 7 288 34q59 96 109 223l137 -68q23 -12 19 -30q-4 -16 -29 -20l-61 -10q-198 -299 -419 -481q254 7 407 39q-22 65 -81 154
l27 23q182 -157 182 -277q0 -25 -17.5 -43.5t-41.5 -18.5q-42 0 -46 42q-5 53 -10 78q-53 -17 -329 -83l-57 -14l-13 -34q-7 -22 -21 -22t-23 19l-59 121q44 31 125 130q97 117 154 201zM1317 573v-264q0 -64 37 -81q34 -15 179 -15q217 0 246 22q19 15 27 54q2 10 3 21
q9 53 31 159l41 -4q-4 -53 -4 -145q0 -41 23 -64q5 -5 45 -32q10 -6 12 -22q5 -44 -100 -60q-102 -16 -328 -16q-201 0 -251 30q-56 33 -56 111l-1 306h-417q-3 -150 -55 -231q-120 -184 -602 -277l-12 39q288 73 417 161q118 80 143 194q8 38 12 114h-410q-67 0 -149 -10
l-39 86q121 -18 188 -18l1430 -2l98 101l121 -106q20 -18 15 -34q-5 -19 -26 -18zM426 809l-40 86q125 -18 188 -18l884 -2l98 102l121 -107q20 -18 15 -34q-6 -18 -26 -18l-1092 2q-62 0 -148 -11zM974 1958l139 -47q30 -11 30 -30q0 -23 -36 -27l-50 -6q-59 -79 -113 -130
h235l69 77l83 -55q40 -26 40 -48q0 -28 -78 -62v-417q0 -47 8 -104q3 -25 3 -44q0 -41 -57 -49q-47 -6 -48 25v39h-363v-39q0 -27 -44 -30q-65 -6 -60 50l4 42q6 97 6 104l2 588l114 -77h35q45 92 81 240zM836 1137h363v236h-363v-236zM836 1432h363v233h-363v-233z" />
  </g>

</svg>
