<?xml version="1.0" standalone="no"?>
<!DOCTYPE svg PUBLIC "-//W3C//DTD SVG 1.1//EN" "http://www.w3.org/Graphics/SVG/1.1/DTD/svg11.dtd" >
<svg xmlns="http://www.w3.org/2000/svg" xmlns:xlink="http://www.w3.org/1999/xlink" version="1.1" viewBox="0 -205 1024 1024">
  <g transform="matrix(1 0 0 -1 0 819)">
   <path fill="currentColor"
d="M515 647h209v183q2 15 -25 42l8 11l78 -34q14 -5 6 -11q-18 -6 -27 -18v-173h120l33 38l64 -49q7 -5 6 -8q-1 -2 -12 -2h-211v-193h102l32 33l42 -41q7 -6 5 -10q-1 -5 -11 -7l-18 -9v-228l5 -74q-1 -18 -10 -25q-12 -6 -36 -8v81h-252v-57q0 -21 -10 -30q-12 -9 -37 -14
q4 37 7 89v285q2 16 -19 37l16 14l33 -36h111v193h-130q-27 0 -45 -13zM623 163h252v250h-252v-250zM135 590l33 -36h267l31 33l42 -41q7 -6 5 -10q-1 -5 -11 -7l-18 -9v-70l5 -51q-2 -20 -10 -26q-11 -8 -35 -8v31h-266v-3q0 -22 -10 -31q-12 -9 -37 -14q3 27 7 89v102
q2 16 -20 37zM271 385l78 -35q14 -5 6 -11q-18 -6 -27 -18v-39h89l32 38l64 -48q7 -5 6 -8q-1 -2 -12 -2h-179v-107l192 21l4 -18q-119 -15 -244 -35q-36 -5 -49 -7q-72 -9 -93 -18q-22 -8 -46 -26l-36 54l232 25v111h-117q-27 0 -46 -13l-34 33h197v49q2 15 -25 42z
M178 416h266v118h-266v-118zM153 995q0 -4 1 -10q1 -31 1 -44h748l27 40l66 -47q3 -7 0 -10q-2 -2 -10 -1q-10 -4 -18 -6q-9 -2 -19 -11q-4 0 -65 -83q-6 -9 -9 -13l-16 8l51 103h-755q0 -4 -1 -12v-9q-3 -37 -21 -61q-19 -25 -42 -28q-24 -3 -31 13q-9 16 15 31
q24 16 39 39q16 26 21 101h18zM183 872l68 -39q3 -8 -4 -11q-18 -3 -25 -6q-7 -4 -27 -25t-71 -67q33 -16 51 -33q18 -18 28 -37q9 -21 9 -43q-1 -23 -18 -26q-17 -5 -23 19q-2 8 -6 23q-5 15 -7 22q-7 20 -21 35q-18 17 -45 38q48 56 71 84q21 28 21 37q-1 9 -7 21z
M324 872l69 -39q3 -8 -4 -11q-20 -3 -26 -6q-7 -4 -27 -25q-21 -21 -70 -67q32 -16 50 -33q18 -18 28 -37q9 -21 9 -43q-1 -23 -18 -26q-17 -5 -23 19q-2 8 -6 23q-5 15 -7 22q-7 20 -21 35q-8 8 -29 27l-11 11l66 84q21 28 21 37q-1 9 -7 21zM456 868l68 -39q3 -8 -4 -11
q-18 -3 -25 -6q-7 -4 -22 -22t-65 -64q32 -16 50 -32q18 -18 28 -37q8 -19 8 -40q-1 -23 -18 -26q-17 -5 -23 19q-3 10 -8 28q-3 9 -4 14q-7 20 -21 35q-21 21 -41 37q45 56 62 81q16 25 16 34q-1 9 -7 21z" />
  </g>

</svg>
