<?xml version="1.0" standalone="no"?>
<!DOCTYPE svg PUBLIC "-//W3C//DTD SVG 1.1//EN" "http://www.w3.org/Graphics/SVG/1.1/DTD/svg11.dtd" >
<svg xmlns="http://www.w3.org/2000/svg" xmlns:xlink="http://www.w3.org/1999/xlink" version="1.1" viewBox="0 0 2048 2048">
  <g transform="matrix(1 0 0 -1 0 2048)">
   <path fill="currentColor"
d="M1373 903q92 -247 221 -406q159 -196 404 -274l-4 -40q-51 -6 -74 -15q-29 -13 -54 -51q-220 138 -364 359q-138 212 -212 527q-34 -203 -100 -349q-101 -228 -354 -420q-99 -75 -243 -145l-21 36q156 85 314 246q174 177 247 385q61 172 82 396q8 77 15 301l3 78
q4 91 -8 160l109 -24q83 -18 86 -43q3 -27 -51 -44l-40 -13q-10 -308 -20 -430q19 -91 51 -195q298 243 397 438l86 -51q84 -49 77 -75q-6 -25 -63 -18l-47 6q-51 -59 -208 -186q-42 -33 -229 -153zM353 119l-27 26q123 142 189 318q50 130 73 303q15 122 26 390l9 177v359
l-2 55q-3 85 -5 132l112 -74h937l103 105l128 -105q23 -19 19 -39q-4 -18 -32 -18h-1163v-443q0 -545 -101 -803q-87 -223 -266 -383zM484 957l27 -20l-15 -36q-108 -248 -169 -377q-17 -36 -83 -166q-15 -29 -29 -61q16 -40 13 -72q-2 -17 -13 -23q-35 -17 -97 69
q-14 19 -26 38q-8 11 -24 32q194 211 416 616zM114 1824q188 -113 240 -164q82 -78 82 -142q0 -26 -15 -49q-17 -24 -47 -17q-32 8 -65 91q-42 106 -217 247zM791 1366q113 -91 171 -149q149 -147 138 -250q-6 -62 -58 -62q-46 0 -63 77q-25 111 -85 201q-25 38 -129 160z
" />
  </g>

</svg>
