<?xml version="1.0" standalone="no"?>
<!DOCTYPE svg PUBLIC "-//W3C//DTD SVG 1.1//EN" "http://www.w3.org/Graphics/SVG/1.1/DTD/svg11.dtd" >
<svg xmlns="http://www.w3.org/2000/svg" xmlns:xlink="http://www.w3.org/1999/xlink" version="1.1" viewBox="0 0 2048 2048">
  <g transform="matrix(1 0 0 -1 0 2048)">
   <path fill="currentColor"
d="M970 1382h-668q-119 0 -194 -8l-40 88q92 -24 234 -24l668 -1v287q-28 -2 -91 -7q-178 -14 -497 -23l-1 45q723 29 1145 188l71 -68q41 -39 40 -53q-5 -34 -43 -24l-42 12l-30 7q-277 -53 -452 -68v-296h660l107 114l121 -110q30 -27 22 -46q-5 -13 -28 -13h-882v-1149
h632v892q0 118 -8 159l109 -24q83 -18 86 -43q3 -30 -49 -44l-42 -11v-826l3 -79q3 -69 6 -103q7 -58 -61 -58q-44 0 -44 39v42h-1370q-43 -11 -59 -11q-38 0 -36 47l2 38l1 50l2 55q1 14 1 773q0 117 -8 160l109 -24q83 -18 86 -44q3 -29 -49 -44l-42 -11v-933h632z
M1382 917l54 -60q117 -129 181 -239q44 -75 32 -126q-8 -36 -37 -46q-43 -14 -61 52q-47 170 -186 374q-54 -154 -86 -216q-55 -110 -141 -238l-34 21q211 383 236 838l110 -21q73 -13 63 -42q-6 -14 -35 -26l-45 -19q-25 -152 -51 -252zM665 928q15 -24 46 -61
q165 -197 193 -336q7 -35 -6 -60q-17 -35 -51 -28q-23 6 -36 45q-3 9 -18 62q-43 161 -144 329q-73 -255 -227 -461l-30 22q136 247 189 524q37 190 44 313l104 -19q67 -12 67 -40q0 -22 -30 -30l-53 -14q-26 -149 -48 -246z" />
  </g>

</svg>
