<?xml version="1.0" standalone="no"?>
<!DOCTYPE svg PUBLIC "-//W3C//DTD SVG 1.1//EN" "http://www.w3.org/Graphics/SVG/1.1/DTD/svg11.dtd" >
<svg xmlns="http://www.w3.org/2000/svg" xmlns:xlink="http://www.w3.org/1999/xlink" version="1.1" viewBox="0 -205 1024 1024">
  <g transform="matrix(1 0 0 -1 0 819)">
   <path fill="currentColor"
d="M524 497q-12 -9 -39 -12v36h-330v-389q89 33 234 99l9 -16l-116 -64q-78 -43 -102 -59q-24 -15 -48 -50l-53 53q18 10 30 27v770q-3 20 -26 53l14 10l47 -40h324l35 41l52 -49q7 -6 5 -11q-1 -5 -11 -7l-18 -9v-245l4 -106q1 -23 -11 -32zM485 895h-330v-169h330v169z
M155 708v-167h330v167h-330zM841 971l8 11l89 -38q10 -5 11 -8q2 -3 -4 -6q-18 -6 -32 -16v-750q3 -68 -15 -88q-19 -21 -87 -37q-3 29 -26 41q-24 12 -87 31l4 17l42 -11q66 -14 94 -6q27 9 29 51v763q-2 22 -26 46zM654 869l87 -36q14 -5 6 -11q-21 -9 -30 -21v-421l3 -71
q0 -21 -13 -31t-39 -15q4 39 7 176v372q2 16 -30 46zM524 472l72 -55q7 -6 7 -9q0 -4 -7 -5q-30 7 -58 -11q-9 -7 -60 -38q-49 -30 -72 -45q103 -88 141 -159q22 -46 1 -69q-20 -21 -43 30q-70 158 -267 294l6 14q72 -40 145 -97q63 50 89 73q34 27 40 47q4 15 -2 24z" />
  </g>

</svg>
