<?xml version="1.0" standalone="no"?>
<!DOCTYPE svg PUBLIC "-//W3C//DTD SVG 1.1//EN" "http://www.w3.org/Graphics/SVG/1.1/DTD/svg11.dtd" >
<svg xmlns="http://www.w3.org/2000/svg" xmlns:xlink="http://www.w3.org/1999/xlink" version="1.1" viewBox="0 0 2048 2048">
  <g transform="matrix(1 0 0 -1 0 2048)">
   <path fill="currentColor"
d="M543 1491h-199q-118 0 -192 -8l-38 88q97 -23 230 -23h261v187q-109 -15 -431 -39l-3 40q324 40 522 95q168 46 284 123l98 -110q15 -17 13 -28t-15 -14q-14 -3 -31 2l-49 13q-190 -49 -291 -66v-203h235l99 102l120 -107q19 -17 16 -33q-4 -19 -26 -19h-443v-80
q358 -137 367 -256q4 -49 -40 -59q-38 -9 -70 33q-7 9 -33 56q-45 79 -224 176v-232q1 -108 10 -189q3 -28 3 -54q0 -39 -49 -42q-62 -4 -62 42v498q-167 -275 -466 -426l-19 29q163 111 259 227q82 100 164 277zM1683 865q-11 69 -47 92q-33 21 -159 44l8 46
q135 -23 189 -27q69 -6 69 57v706q0 115 -8 160l105 -24q82 -19 85 -44q3 -24 -49 -44l-38 -14v-782q0 -142 -155 -170zM1299 1828l109 -25q82 -18 85 -43q4 -27 -49 -44l-42 -13v-332q0 -106 13 -219q3 -29 3 -54q0 -39 -49 -42q-62 -4 -62 42v570q0 113 -8 160zM196 757
q90 -14 226 -14h1233l68 76l84 -54q39 -25 40 -53q2 -26 -78 -61q-48 -405 -172 -514q-68 -60 -203 -82q-4 66 -60 94q-55 26 -216 78l11 43q58 -15 168 -47q79 -22 139 -25q95 -5 136 76q56 110 91 412h-704q-44 -172 -100 -257q-113 -171 -387 -279q-111 -44 -344 -95
l-10 33q323 101 468 199q146 98 207 214q31 61 60 185h-431q-153 0 -177 -6q-9 -2 -15 -3z" />
  </g>

</svg>
