<?xml version="1.0" standalone="no"?>
<!DOCTYPE svg PUBLIC "-//W3C//DTD SVG 1.1//EN" "http://www.w3.org/Graphics/SVG/1.1/DTD/svg11.dtd" >
<svg xmlns="http://www.w3.org/2000/svg" xmlns:xlink="http://www.w3.org/1999/xlink" version="1.1" viewBox="0 0 2048 2048">
  <g transform="matrix(1 0 0 -1 0 2048)">
   <path fill="currentColor"
d="M682 1699q-22 14 -31 42q-36 114 -128 184l21 27q114 -66 142 -91q70 -62 67 -114q-2 -30 -32 -48h329l96 100l126 -92q22 -17 25 -38q4 -27 -25 -27h-658q-118 -107 -315 -232q83 5 396 20q60 2 310 23q-60 62 -110 102l22 29q89 -52 146 -93q148 -103 155 -176
q2 -29 -17 -49q-15 -15 -31 -14q-29 2 -64 66q-18 32 -58 85q-220 -40 -747 -86l-6 -18q-10 -26 -25 -26q-16 0 -32 34l-55 115q131 52 282 220h-186q-69 0 -149 -10l-39 85q27 -3 41 -5q85 -13 147 -13h403zM1749 1927l135 -27q45 -9 62 -25q20 -18 3 -38q-9 -10 -32 -17
l-63 -18v-1535q0 -81 -7 -102q-26 -73 -170 -110q-5 54 -34 74q-48 34 -256 62v48q248 -39 314 -33q56 6 56 73v1487q-2 121 -8 161zM1398 1551q0 99 -11 160l135 -25q87 -16 67 -56q-8 -16 -31 -23l-64 -19v-763q0 -70 11 -180q3 -37 3 -70q0 -50 -60 -54q-50 -3 -50 51
v979zM1001 609l68 76l84 -55q40 -26 40 -48q0 -28 -78 -62v-281l54 -41q9 -6 10 -16q4 -32 -19 -32h-806v-37q0 -48 -71 -40q-43 4 -39 52q6 64 8 118l4 79l-1 351l118 -64h628zM354 203h665v348h-665v-348zM257 1250l111 -24q82 -18 85 -44q4 -29 -49 -43l-42 -11
q1 -190 -55 -267q-65 -89 -234 -156l-17 34q93 55 151 128q57 71 57 216q0 126 -7 167zM573 1244l110 -24q83 -18 86 -43q3 -30 -50 -44l-41 -11v-185q0 -25 5 -68q5 -51 2 -90q-3 -41 -57 -49q-48 -6 -48 25v329q0 115 -7 160zM895 1240l111 -24q82 -18 86 -44
q3 -29 -50 -44l-41 -11v-211q0 -71 69 -71q66 0 148 18q32 7 51 2q45 -12 49 -54q6 -58 -191 -58q-224 0 -224 106v231q0 118 -8 160z" />
  </g>

</svg>
