<?xml version="1.0" standalone="no"?>
<!DOCTYPE svg PUBLIC "-//W3C//DTD SVG 1.1//EN" "http://www.w3.org/Graphics/SVG/1.1/DTD/svg11.dtd" >
<svg xmlns="http://www.w3.org/2000/svg" xmlns:xlink="http://www.w3.org/1999/xlink" version="1.1" viewBox="0 -205 1024 1024">
  <g transform="matrix(1 0 0 -1 0 819)">
   <path fill="currentColor"
d="M185 993l34 -34h292l33 37l52 -45q8 -6 6 -10q-2 -5 -12 -7l-18 -9v-141l3 -71q-1 -18 -12 -25q-12 -8 -33 -8v36h-298v-3q0 -21 -11 -30q-12 -9 -38 -14q4 37 7 100v173q2 16 -19 37zM339 500l91 -35q4 -2 5 -5q0 -2 -4 -5q-21 -9 -30 -21v-59h174l32 41l69 -51
q7 -5 6 -8q-1 -2 -12 -2h-269v-23q93 -39 138 -67q47 -31 66 -61q18 -30 15 -52q-5 -20 -20 -20q-16 0 -33 33q-16 33 -61 73q-45 36 -105 71v-179l3 -58q0 -21 -13 -30q-15 -9 -40 -14q4 37 7 147v135q-108 -126 -322 -235l-8 13q201 124 312 267h-191q-27 0 -46 -13
l-34 33h289v69q2 15 -28 44zM899 920q-1 20 -27 46l8 11l85 -38q10 -5 11 -8q2 -3 -4 -6q-18 -6 -31 -16v-813q-2 -34 -17 -52q-18 -18 -75 -30q-10 29 -34 38q-12 5 -60 18q-18 5 -28 8l4 18l42 -8q68 -16 96 -10q28 7 30 51v791zM530 828h-298v-92h298v92zM232 848h298v91
h-298v-91zM703 852l87 -36q14 -5 6 -11q-21 -9 -30 -21v-435l2 -57q0 -21 -12 -30q-13 -9 -39 -14q4 36 7 149v397q2 16 -30 46zM146 675q0 -5 1 -16q2 -18 2 -26h453l31 38l60 -55q2 -5 0 -7q-2 -1 -8 0q-15 -4 -23 -6t-23 -11t-54 -51l-13 8l38 64h-460q0 -5 -1 -14v-12
q-3 -36 -17 -60q-16 -26 -37 -32q-22 -8 -33 10q-12 17 17 36q28 19 37 49q9 31 11 85h19zM419 580q81 -15 131 -37q49 -22 67 -43q18 -22 17 -42q-1 -21 -16 -24q-15 -4 -33 24q-19 27 -55 54q-37 24 -115 53zM256 593l56 -34q7 -5 6 -8q0 -3 -8 -5q-18 0 -34 -16
q-83 -69 -188 -112l-8 14q85 51 130 89q43 37 43 46q0 2 -2 7q-1 8 -2 13z" />
  </g>

</svg>
