<?xml version="1.0" standalone="no"?>
<!DOCTYPE svg PUBLIC "-//W3C//DTD SVG 1.1//EN" "http://www.w3.org/Graphics/SVG/1.1/DTD/svg11.dtd" >
<svg xmlns="http://www.w3.org/2000/svg" xmlns:xlink="http://www.w3.org/1999/xlink" version="1.1" viewBox="0 0 2048 2048">
  <g transform="matrix(1 0 0 -1 0 2048)">
   <path fill="currentColor"
d="M953 675q-39 -230 -210 -380q-168 -146 -509 -233l-11 43q557 183 622 570h-414q-67 0 -187 -13l-35 85q85 -16 224 -16h419q1 22 5 61q4 53 4 121l111 -22q76 -15 80 -38q4 -25 -49 -42l-35 -11q-3 -34 -6 -69l695 -1l57 81l86 -57q45 -31 47 -50q3 -29 -43 -50
q-18 -8 -43 -21q-28 -273 -60 -375q-33 -102 -93 -142q-71 -46 -181 -68q-7 66 -64 97q-35 18 -213 72l13 41q230 -57 290 -61q113 -7 150 103q43 126 58 375h-708zM266 1325q-60 -52 -141 -105l-22 27q200 177 289 417l117 -55q38 -17 34 -37q-3 -18 -44 -21l-43 -4
q-20 -28 -36 -49h175v252q0 118 -8 160l109 -24q74 -15 78 -33q7 -32 -52 -50l-30 -10v-78h139l80 81l114 -86q21 -16 16 -33q-6 -19 -26 -19h-323v-160h164l68 77l83 -55q41 -26 41 -48q0 -30 -92 -66q-108 -178 -225 -278q-198 -170 -618 -284l-12 38q292 110 419 188
q-27 5 -41 31q-65 119 -181 201q-17 12 -32 23zM300 1357q9 -5 35 -16q94 -41 184 -112q63 -50 58 -99q-1 -10 -7 -28q183 128 292 339h-486q-43 -53 -76 -84zM1545 1247q166 -127 423 -197l-5 -36q-60 -5 -78 -16q-23 -13 -37 -56q-209 95 -376 239q-185 -150 -432 -248
l-13 38q221 121 383 272q-93 104 -163 248q-22 47 -87 218q-28 -3 -58 -7l-34 78q88 -16 226 -16h397l69 80l84 -56q40 -26 40 -49q0 -28 -75 -62q-59 -141 -141 -279q-22 -36 -123 -151zM1472 1308q145 173 231 402h-489q101 -249 258 -402z" />
  </g>

</svg>
