<?xml version="1.0" standalone="no"?>
<!DOCTYPE svg PUBLIC "-//W3C//DTD SVG 1.1//EN" "http://www.w3.org/Graphics/SVG/1.1/DTD/svg11.dtd" >
<svg xmlns="http://www.w3.org/2000/svg" xmlns:xlink="http://www.w3.org/1999/xlink" version="1.1" viewBox="0 -200 1000 1000">
  <g transform="matrix(1 0 0 -1 0 800)">
   <path fill="currentColor"
d="M698 463q-10 -22 -24 -25.5t-29 -3.5v525l61 -33h121l52 45l41 -67l-59 -34l-69 -51q22 -9 47.5 -19t47.5 -25t37 -38t15 -58q0 -40 -14.5 -65.5t-33.5 -40.5t-37.5 -22.5t-26.5 -11.5q-4 7 -7.5 17t-10 19.5t-19.5 17.5t-37 11v7q6 -1 17.5 -2t16.5 -1q49 0 70 20.5
t26 58.5v8q0 21 -12 39t-29 33t-36 27.5t-32 22.5l58 86h-119l-15 -17v-423zM417 653q74 -42 104.5 -81.5t32.5 -73.5v-9q0 -22 -15.5 -32t-24.5 -10t-15.5 11t-11.5 25t-8.5 27t-7.5 17q-112 -13 -208 -31t-172 -43l-30 63l54 8q12 3 30.5 19.5t38 40.5t37 53t28.5 57h-103
l-71 -13l-23 35h235v110h-107l-62 -13l-22 35h191v153l77 -28l-24 -63v-62h94l50 44l67 -66h-211v-110h158l52 42l73 -64h-318l35 -21q-17 -5 -63.5 -44t-122.5 -103q5 0 16 1t42.5 4t90.5 7t161 10q-8 13 -20.5 41t-35.5 54zM489 442l-20 -39l-14 -68h324l38 40l65 -41
l-33 -28q-15 -72 -29 -133t-43 -99q-10 -13 -22.5 -23.5t-29.5 -19t-41 -14t-57 -8.5v5q0 24 -34 37.5t-92 24.5v14q91 -18 145 -18q31 0 54 11.5t39.5 39.5t27 74t17.5 114h-337q-16 -52 -42 -101.5t-67.5 -91.5t-102 -74t-145.5 -49v7q71 33 121.5 68t85 73t55 79.5
t32.5 88.5h-160l-77 -14l-25 38h266q7 18 10.5 45t3.5 53q0 11 -0.5 20.5t-1.5 17.5z" />
  </g>

</svg>
