<?xml version="1.0" standalone="no"?>
<!DOCTYPE svg PUBLIC "-//W3C//DTD SVG 1.1//EN" "http://www.w3.org/Graphics/SVG/1.1/DTD/svg11.dtd" >
<svg xmlns="http://www.w3.org/2000/svg" xmlns:xlink="http://www.w3.org/1999/xlink" version="1.1" viewBox="0 -205 1024 1024">
  <g transform="matrix(1 0 0 -1 0 819)">
   <path fill="currentColor"
d="M503 752v-229q4 -66 -7 -87t-49 -27q-7 24 -57 33q-13 2 -21 4l4 14q58 -9 77 -7t17 56v56h-106v-12l2 -57q3 -36 -49 -44q4 34 7 113h-124q-4 -26 -10 -46q-22 -74 -135 -152l-10 12q92 80 111 154t17 166v70q0 5 -18 19q-46 -43 -106 -81l-10 10q134 127 179 200
q24 39 23 49q0 10 -9 25l6 7l67 -24q13 -9 4 -13q-16 -2 -33 -26q-12 -18 -26 -36h132l37 31l46 -42q4 -10 -10 -9q-23 0 -56 -43q-16 -19 -51 -54h106l30 27l34 -25q9 -6 9 -11q0 -4 -9 -8zM414 397l80 -29q14 -6 6 -12q-17 -5 -34 -11q-1 -18 -6 -34h355l35 36l40 -45
q7 -6 5 -10q-1 -5 -11 -7l-16 -10l-6 -50q-12 -81 -31 -114t-49 -50t-94 -23q-1 28 -27 40q-25 12 -83 32l4 16q82 -24 124 -28q63 -7 89 40q15 20 27 103l4 50h-370q-12 -49 -33 -90q-31 -60 -107 -108q-73 -46 -237 -68l-4 18q224 43 303 160q24 35 37 88h-267
q-22 1 -39 -13l-33 33h344q4 19 7 41q-4 24 -21 31zM728 760l79 -30q14 -5 6 -11q-21 -8 -28 -17v-50h82l32 32l56 -38q8 -5 7 -8q-2 -2 -13 -2h-164v-96h114l32 32l56 -38q8 -5 7 -8q-2 -2 -13 -2h-196v-47l2 -57q3 -36 -49 -44q5 37 7 148h-147q-23 1 -41 -13l-34 29h222
v96h-115q-22 -31 -60 -78l-14 14q100 149 55 139l8 12l63 -17q7 -5 7 -9q-1 -3 -10 -5q-8 1 -13 -4q-5 -4 -26 -36h105v60q2 17 -26 36zM930 901q-4 -87 -41 -120q-16 -14 -70 -26q9 30 -84 54l4 16q71 -22 115 -13q23 5 27 40q1 5 2 14q3 21 5 46h-170q-14 -82 -55 -129
q-43 -51 -119 -87l-10 12q71 54 102 100q29 42 37 104h-70q-25 -3 -36 -15l-31 35h344l30 39l40 -38q9 -6 9 -11q0 -4 -9 -8zM191 782h130l69 101h-155q-27 -36 -58 -69q-6 -6 -12 -13zM206 669q-1 -51 -7 -90h122v90h-115zM467 669h-106v-90h106v90zM206 766v-31
q2 -28 0 -52h115v83h-115zM361 683h106v83h-106v-83z" />
  </g>

</svg>
