<?xml version="1.0" standalone="no"?>
<!DOCTYPE svg PUBLIC "-//W3C//DTD SVG 1.1//EN" "http://www.w3.org/Graphics/SVG/1.1/DTD/svg11.dtd" >
<svg xmlns="http://www.w3.org/2000/svg" xmlns:xlink="http://www.w3.org/1999/xlink" version="1.1" viewBox="0 0 2048 2048">
  <g transform="matrix(1 0 0 -1 0 2048)">
   <path fill="currentColor"
d="M959 556q-52 -183 -209 -298q-185 -136 -526 -206l-12 34q329 93 478 224q114 101 157 246h-351q-72 0 -187 -13l-35 85q87 -16 224 -16h362q12 67 14 157l111 -22q75 -15 79 -38q5 -24 -49 -42l-35 -11l-5 -29l-2 -15h620l58 80l85 -57q46 -31 48 -50q2 -29 -44 -50
q-12 -5 -42 -21q-45 -224 -86 -297q-79 -140 -258 -161q-7 66 -65 96q-35 19 -212 72l4 42q45 -9 151 -34q126 -26 148 -27q98 -6 153 101q37 71 65 250h-639zM500 1923l120 -59h841l61 71l72 -49q37 -25 42 -44q5 -20 -26 -37q-6 -4 -12 -7q-10 -4 -28 -14v-232
q0 -48 7 -104q3 -26 3 -43q0 -41 -57 -49q-48 -7 -48 25v25h-881v-25q0 -27 -44 -30q-67 -5 -61 51q11 108 11 146v375zM1071 1604v-141h404v141h-404zM1071 1806v-146h404v146h-404zM594 1660h381v146h-381v-146zM594 1463h381v141h-381v-141zM1118 1319l118 -59h472l61 72
l73 -50q36 -25 41 -43q5 -21 -25 -38q-7 -4 -13 -7q-10 -4 -28 -14v-210q0 -48 7 -105q3 -25 3 -43q0 -41 -57 -49q-48 -7 -48 24v35h-512v-12q0 -32 -44 -32q-48 0 -48 37v494zM1509 1023v-134h213v134h-213zM1509 1202v-123h213v123h-213zM1210 1079h203v123h-203v-123z
M1413 889v134h-203v-134h203zM226 1319l121 -59h473l61 72l72 -50q37 -25 41 -43q5 -21 -25 -38q-6 -4 -13 -7q-9 -4 -27 -14v-196q0 -48 6 -104q4 -27 4 -44q0 -41 -57 -49q-45 -6 -48 25l-1 17h-512v-12q0 -27 -44 -30q-67 -6 -61 50l4 42q6 96 6 104v336zM620 1015v-130
h213v130h-213zM620 1202v-131h213v131h-213zM321 1071h203v131h-203v-131zM321 885h203v130h-203v-130z" />
  </g>

</svg>
