<?xml version="1.0" standalone="no"?>
<!DOCTYPE svg PUBLIC "-//W3C//DTD SVG 1.1//EN" "http://www.w3.org/Graphics/SVG/1.1/DTD/svg11.dtd" >
<svg xmlns="http://www.w3.org/2000/svg" xmlns:xlink="http://www.w3.org/1999/xlink" version="1.1" viewBox="0 0 2048 2048">
  <g transform="matrix(1 0 0 -1 0 2048)">
   <path fill="currentColor"
d="M1182 1759q63 113 88 216l103 -38l36 -12q17 -8 15 -27q-2 -23 -44 -30q-7 -1 -15 -2q-11 -1 -34 -5q-18 -23 -89 -102h398l68 77l84 -55q40 -26 40 -48q0 -29 -79 -61v-172l45 -30q17 -11 15 -30q-1 -22 -19 -22h-821v-167h721l68 76l84 -54q39 -25 39 -49
q0 -29 -79 -61l1 -168l43 -30q18 -13 11 -38q-4 -13 -14 -13h-874v-56q0 -45 -69 -39q-42 3 -39 52l4 55q8 134 8 142l1 577q-4 132 -17 202l128 -88h193zM973 971h739v222h-739v-222zM973 1476h685v226h-685v-226zM1067 537h655l99 102l120 -107q21 -18 16 -33
q-6 -19 -26 -19h-864v-179q0 -85 7 -140q4 -43 3 -68q-2 -39 -55 -42t-53 32l3 397h-686q-66 0 -149 -11l-39 86q123 -18 188 -18h686l1 87q1 114 -10 159l110 -24q82 -18 85 -43q3 -26 -50 -44l-41 -13v-122zM371 1929q114 -44 190 -85q92 -48 102 -113q4 -22 -7 -42
q-12 -20 -30 -22q-34 -4 -71 53q-52 80 -204 171zM637 1275l27 -25q-124 -196 -308 -390l10 -48q6 -32 -4 -40q-12 -10 -61 34l-100 89q161 113 242 183q40 34 194 197zM196 1591q122 -47 196 -90q88 -51 96 -108q4 -22 -7 -42q-12 -20 -30 -23q-34 -4 -71 54
q-52 79 -204 171z" />
  </g>

</svg>
