<?xml version="1.0" standalone="no"?>
<!DOCTYPE svg PUBLIC "-//W3C//DTD SVG 1.1//EN" "http://www.w3.org/Graphics/SVG/1.1/DTD/svg11.dtd" >
<svg xmlns="http://www.w3.org/2000/svg" xmlns:xlink="http://www.w3.org/1999/xlink" version="1.1" viewBox="0 -205 1024 1024">
  <g transform="matrix(1 0 0 -1 0 819)">
   <path fill="currentColor"
d="M68 491h781l41 50l75 -58q11 -8 8 -11q-3 -2 -19 -1h-431v-92q214 -27 317 -101q32 -27 33 -60q0 -27 -19 -32q-21 -5 -48 37q-80 99 -283 138v-249l2 -56q0 -21 -14 -31q-15 -9 -41 -15q4 39 7 148v313h-329q-27 0 -46 -13zM454 1012l88 -34q14 -5 6 -11q-17 -6 -29 -18
v-114h240l35 51l84 -56q10 -8 7 -11q-4 -4 -20 -4h-346v-180h286l42 51l74 -59q11 -8 8 -11q-3 -2 -19 -1h-751q-27 0 -45 -13l-34 33h393v324q2 15 -27 42z" />
  </g>

</svg>
