<?xml version="1.0" standalone="no"?>
<!DOCTYPE svg PUBLIC "-//W3C//DTD SVG 1.1//EN" "http://www.w3.org/Graphics/SVG/1.1/DTD/svg11.dtd" >
<svg xmlns="http://www.w3.org/2000/svg" xmlns:xlink="http://www.w3.org/1999/xlink" version="1.1" viewBox="0 0 2048 2048">
  <g transform="matrix(1 0 0 -1 0 2048)">
   <path fill="currentColor"
d="M1002 926l63 -13q82 -18 86 -44q3 -30 -50 -44l-41 -11l1 -491q0 -72 10 -181q4 -36 4 -70q0 -50 -63 -53q-49 -3 -49 50l1 708q0 89 -6 149h-500v-27q0 -62 -73 -54q-42 5 -39 50q0 18 3 45q13 133 12 209l-3 266q-2 84 -14 138l126 -87h471v325q0 114 -8 160l109 -24
q82 -18 85 -44q4 -29 -49 -43l-41 -12v-117h500l89 91l109 -88q17 -13 20 -27q7 -30 -32 -30h-686v-191h597l68 76l83 -55q40 -26 40 -48q0 -28 -78 -62l-1 -221l4 -103q3 -110 3 -127q0 -55 -60 -55q-43 0 -43 23v32h-648zM1650 1225v183h-1192v-183h1192zM1650 1171h-1192
v-190h1192v190zM591 799l110 -66q43 -26 41 -47q-4 -27 -47 -24l-49 4q-17 -13 -44 -35q-165 -134 -480 -230l-12 41q151 55 290 156q125 91 191 201zM622 499l125 -88q20 -14 20 -29q0 -30 -46 -24l-54 7q-17 -13 -45 -36q-83 -69 -227 -141q-88 -44 -269 -102l-13 41
q316 109 509 372zM1682 799l110 -66q43 -26 41 -47q-4 -27 -47 -24l-50 4l-22 -14q-213 -133 -527 -205l-13 40q165 51 306 137q133 80 202 175zM1713 499l125 -88q20 -14 20 -29q0 -30 -46 -24l-54 7l-22 -14q-210 -137 -527 -216l-16 41q322 93 520 323z" />
  </g>

</svg>
