<?xml version="1.0" standalone="no"?>
<!DOCTYPE svg PUBLIC "-//W3C//DTD SVG 1.1//EN" "http://www.w3.org/Graphics/SVG/1.1/DTD/svg11.dtd" >
<svg xmlns="http://www.w3.org/2000/svg" xmlns:xlink="http://www.w3.org/1999/xlink" version="1.1" viewBox="0 -205 1024 1024">
  <g transform="matrix(1 0 0 -1 0 819)">
   <path fill="currentColor"
d="M441 585l84 -20q7 -5 6 -8q0 -4 -8 -5q-27 -5 -34 -20q-11 -14 -34 -42q-4 -5 -6 -8h450l32 40l68 -50q8 -5 7 -8q-2 -2 -13 -2h-337q56 -49 84 -69q52 -35 121 -58q50 -17 139 -22l2 -16q-69 -2 -79 -36q-120 39 -199 103q-38 31 -95 98h-197q-53 -58 -112 -104h348
l18 17l38 -22q9 -6 9 -11q0 -4 -9 -8l-8 -7q4 -108 -38 -142q-24 -19 -94 -33q2 20 -13 27t-81 26l2 14q68 -16 104 -16q68 -7 71 57q5 38 5 78h-372v-164q0 -80 15 -88q16 -9 37 -11t196 -2h145q40 0 46 1q17 1 27 5q12 4 16 32q1 5 2 13q3 14 5 31q2 18 3 106h14
q2 -24 3 -64q0 -106 31 -101q-19 -40 -52 -52q-3 -1 -4 -2q-16 -6 -206 -7t-230 2q-39 2 -53 8q-13 6 -27 26q-13 20 -12 83v159q-108 -67 -235 -98l-2 12q151 62 236 125q-6 20 -21 39l12 12l34 -31q58 50 97 90h-279q-27 1 -45 -13l-34 33h376q7 8 13 15q45 56 40 62l-6 9
q-5 7 -8 11zM372 973l24 -32h213l25 29l48 -37q7 -6 5 -10q-1 -5 -11 -7l-18 -9v-218l3 -86q-2 -31 -43 -45l4 91l2 40v238h-223v-252l5 -77q3 -39 -46 -46q0 4 1 13q4 26 6 57v316q-1 21 -11 23zM284 993l50 -39q7 -5 7 -9q0 -3 -7 -5q-30 3 -72 -15q-16 -7 -24 -9
q-18 -6 -53 -14v-100h64l24 32l58 -38q8 -6 7 -8q-2 -3 -13 -2h-140v-107v-11h62l22 30l54 -36q8 -6 7 -8q-2 -3 -13 -2h-131l4 -78q2 -37 -54 -46q5 39 7 198v188q-7 21 -21 35l16 12l41 -42q38 11 63 26q30 19 33 25q5 6 -3 17zM679 809h151v110h-69q-18 2 -38 -14l-35 34
h126l37 37l45 -45q7 -6 6 -10t-10 -6l-20 -8v-226l5 -107q1 -29 -47 -33v120h-70q-35 1 -53 -13l-26 29h149v116h-72q-27 1 -45 -13zM450 797l22 -24h65l19 15l30 -19q7 -4 7 -7q0 -4 -7 -6l-12 -9v-74l3 -23q-2 -30 -33 -33v30h-69v-1q7 -40 -35 -44q1 5 2 14q3 24 5 52
v100q2 12 -7 19zM475 659h69v102h-69v-102zM409 858h128l24 28l42 -34q8 -3 7 -4q-2 -2 -13 -2h-121q-27 2 -39 -15z" />
  </g>

</svg>
