<?xml version="1.0" standalone="no"?>
<!DOCTYPE svg PUBLIC "-//W3C//DTD SVG 1.1//EN" "http://www.w3.org/Graphics/SVG/1.1/DTD/svg11.dtd" >
<svg xmlns="http://www.w3.org/2000/svg" xmlns:xlink="http://www.w3.org/1999/xlink" version="1.1" viewBox="0 -205 1024 1024">
  <g transform="matrix(1 0 0 -1 0 819)">
   <path fill="currentColor"
d="M339 698l42 -37h394l35 39l50 -47q7 -4 5 -7q-1 -4 -11 -6l-18 -9v-81l5 -54q1 -17 -49 -28v35h-401v-3q3 -36 -51 -44q5 38 7 84v107q-3 24 -20 40zM156 969l38 -40h681l41 50l74 -56q11 -8 8 -11q-2 -4 -19 -3h-777v-252q4 -188 -10 -305q-13 -117 -57 -202
q-43 -86 -93 -126l-8 10q96 127 116 318q10 99 8 299v272q-4 18 -19 33zM896 392q2 -5 -1 -7q-2 -2 -9 0q-24 0 -39 -3q-15 -2 -72 -25q-49 -19 -132 -48q8 -4 9 -7q1 -4 -4 -6q-18 -5 -29 -16v-20h248l34 46l78 -56q8 -5 7 -8q-2 -2 -13 -2h-354v-147q5 -63 -85 -71
q-6 32 -73 54q-12 4 -19 6l3 16l32 -7q53 -11 77 -9q25 1 23 48v110h-297q-27 1 -45 -13l-34 33h376v29q-1 26 -26 48l8 11l57 -27l170 80h-439q-19 2 -38 -13l-33 29h531l30 34zM391 519h401v126h-401v-126zM231 756h614l34 46l78 -56q8 -5 7 -8q-2 -2 -13 -2h-641
q-27 1 -45 -13zM490 873l6 12q73 -18 103 -54q13 -16 10 -37t-22 -23q-19 -1 -22 21q-3 23 -19 40t-56 41z" />
  </g>

</svg>
