<?xml version="1.0" standalone="no"?>
<!DOCTYPE svg PUBLIC "-//W3C//DTD SVG 1.1//EN" "http://www.w3.org/Graphics/SVG/1.1/DTD/svg11.dtd" >
<svg xmlns="http://www.w3.org/2000/svg" xmlns:xlink="http://www.w3.org/1999/xlink" version="1.1" viewBox="0 0 2048 2048">
  <g transform="matrix(1 0 0 -1 0 2048)">
   <path fill="currentColor"
d="M1496 1581q-53 48 -111 94q-37 30 -74 61l23 30q40 -25 60 -37q376 -225 376 -345q0 -24 -18 -41.5t-39 -15.5q-36 2 -72 68q-44 78 -108 145q-217 -42 -584 -87q-73 -8 -336 -33q-96 -9 -209 -21l-6 -26q-8 -34 -30 -35q-20 -1 -38 42l-46 110q106 32 252 152
q231 191 318 331l117 -64q48 -26 46 -46q-3 -30 -58 -27l-50 3q-227 -186 -481 -337q87 4 391 18q338 16 677 61zM1050 998v-350h669l108 113l131 -113q19 -17 19 -35q0 -22 -23 -22h-904v-247l10 -181q4 -39 4 -70q0 -50 -60 -54q-49 -2 -49 51v501h-725q-69 0 -149 -11
l-39 86q119 -18 188 -18h725v350h-505q-68 0 -148 -11l-40 86q27 -4 41 -6q86 -12 147 -12h505v180q0 115 -8 161l109 -24q82 -19 85 -44q3 -30 -49 -44l-42 -11v-218h452l108 113l131 -113q27 -24 22 -40q-6 -17 -26 -17h-687z" />
  </g>

</svg>
