<?xml version="1.0" standalone="no"?>
<!DOCTYPE svg PUBLIC "-//W3C//DTD SVG 1.1//EN" "http://www.w3.org/Graphics/SVG/1.1/DTD/svg11.dtd" >
<svg xmlns="http://www.w3.org/2000/svg" xmlns:xlink="http://www.w3.org/1999/xlink" version="1.1" viewBox="0 -205 1024 1024">
  <g transform="matrix(1 0 0 -1 0 819)">
   <path fill="currentColor"
d="M210 659l39 -46h530l35 41l50 -49q7 -6 5 -10q-1 -5 -11 -7l-18 -9v-232l4 -40q7 -41 -48 -44v42h-244v-106h343l32 39l68 -49q8 -5 7 -8q-2 -2 -13 -2h-437v-75l2 -37q3 -35 -53 -44q5 37 7 127v29h-386q-27 1 -45 -13l-34 33h465v106h-253q-2 -18 -14 -26
q-13 -10 -37 -15q5 39 7 91v254q-5 24 -16 38zM508 455h-253v-130h253v130zM796 455h-244v-130h244v130zM376 832l8 13q118 -65 129 -139q7 -39 -14 -49t-29 26q-4 21 -12 40l-136 -14q-114 -10 -136 -15q-21 -4 -42 -24l-34 66q20 2 46 14q71 80 141 210q2 14 -8 28l10 7
l63 -42q11 -7 -1 -15q-15 2 -27 -3q-57 -100 -154 -203q119 6 268 12q-2 5 -5 10q-20 35 -67 78zM792 842l8 13q118 -65 129 -139q7 -39 -14 -49t-29 26q-4 21 -12 40l-140 -14q-114 -10 -136 -15q-21 -4 -42 -24l-34 66q20 2 46 14q62 77 117 202q5 14 -6 28l10 9l63 -44
q11 -7 -1 -15q-15 2 -25 -3q-47 -94 -134 -195q120 6 272 12q-2 5 -5 10q-20 35 -67 78zM508 593h-253v-122h253v122zM552 471h244v122h-244v-122z" />
  </g>

</svg>
