<?xml version="1.0" standalone="no"?>
<!DOCTYPE svg PUBLIC "-//W3C//DTD SVG 1.1//EN" "http://www.w3.org/Graphics/SVG/1.1/DTD/svg11.dtd" >
<svg xmlns="http://www.w3.org/2000/svg" xmlns:xlink="http://www.w3.org/1999/xlink" version="1.1" viewBox="0 0 2048 2048">
  <g transform="matrix(1 0 0 -1 0 2048)">
   <path fill="currentColor"
d="M909 876l-71 -7l-127 -12l-153 -14l-69 -7l-7 -40q-6 -32 -29 -30q-19 2 -35 42l-48 125q66 16 209 105q199 125 330 250l103 -71q37 -26 27 -46t-44 -15l-51 8q-117 -75 -429 -236q261 4 508 10q185 110 297 237l114 -79q31 -22 30 -46q-1 -29 -56 -23l-54 7
q-284 -203 -819 -404q525 36 646 43q210 13 374 32q-64 76 -134 131l24 31q305 -174 315 -332q4 -67 -47 -71q-32 -2 -51 35q-4 6 -30 72q-15 35 -48 87q-261 -44 -509 -74v-233q0 -114 12 -219q3 -28 3 -54q0 -39 -49 -42q-64 -4 -64 42v498q-231 -24 -484 -56l-11 -34
q-18 -53 -47 -33q-14 9 -25 43l-45 145q97 22 221 76q78 34 323 159zM529 1840h-41h-21q-62 1 -93 -8l-34 83q90 -20 230 -20h909l68 76l84 -56q40 -27 40 -47q0 -23 -28 -36l-30 -11l-26 -10q-204 -233 -438 -365q190 -78 367 -115q186 -40 447 -54v-45q-100 -8 -118 -81
q-423 60 -793 243q-153 -76 -390 -135q-219 -54 -341 -69q-144 -20 -206 -29l-9 46q579 95 859 235q-265 159 -436 398zM588 1840q212 -231 465 -352q237 136 415 352h-880z" />
  </g>

</svg>
