<?xml version="1.0" standalone="no"?>
<!DOCTYPE svg PUBLIC "-//W3C//DTD SVG 1.1//EN" "http://www.w3.org/Graphics/SVG/1.1/DTD/svg11.dtd" >
<svg xmlns="http://www.w3.org/2000/svg" xmlns:xlink="http://www.w3.org/1999/xlink" version="1.1" viewBox="0 -205 1024 1024">
  <g transform="matrix(1 0 0 -1 0 819)">
   <path fill="currentColor"
d="M908 622v-460q2 -60 -11 -87t-69 -39q2 41 -98 63q-13 4 -20 6l2 16q104 -19 128 -17t24 48v484h-635v-460l4 -95q2 -36 -55 -46q5 39 7 187v427q-1 5 -7 18q-52 -17 -120 -28l-4 16q114 36 173 67t107 83q44 48 68 112h-236q-28 1 -40 -14l-34 34h751l34 41l50 -40
q9 -6 9 -11q0 -4 -9 -8l-20 -11l-5 -63q-14 -72 -38 -99t-60 -40q-34 -13 -84 -17q4 39 -116 70l3 16q27 -6 78 -17q14 -3 21 -5q130 -32 150 100l7 64h-413q-27 -78 -75 -131q-51 -57 -127 -92q-21 -10 -45 -19l17 -19h628l30 41l50 -43q9 -6 9 -11q0 -4 -9 -8zM355 422
l39 -31h271l31 33l48 -37q7 -6 5 -10q-1 -5 -11 -7l-16 -9v-109l5 -61q-1 -22 -45 -28v48h-279v-22q5 -43 -47 -48q5 35 7 99v139q-3 24 -20 32zM403 227h279v148h-279v-148zM586 590l8 14q97 -31 139 -62q42 -30 58 -59q30 -57 -10 -72q-16 -1 -30 33q-13 35 -44 67
q-30 32 -121 79zM422 614l68 -34q12 -6 3 -13q-16 -3 -31 -9q-78 -90 -200 -161l-8 12q140 121 164 168q2 11 -4 30z" />
  </g>

</svg>
