<?xml version="1.0" standalone="no"?>
<!DOCTYPE svg PUBLIC "-//W3C//DTD SVG 1.1//EN" "http://www.w3.org/Graphics/SVG/1.1/DTD/svg11.dtd" >
<svg xmlns="http://www.w3.org/2000/svg" xmlns:xlink="http://www.w3.org/1999/xlink" version="1.1" viewBox="0 0 2048 2048">
  <g transform="matrix(1 0 0 -1 0 2048)">
   <path fill="currentColor"
d="M884 601h-609q-64 0 -149 -10l-39 86q121 -18 188 -18h138v403q-3 85 -16 134l118 -88h442q2 52 2 63q0 114 -8 160l109 -24q82 -18 85 -44t-50 -44l-41 -13q0 -60 -2 -98h453l68 76l84 -54q40 -26 40 -49q0 -27 -78 -61v-361h118l99 101l120 -107q21 -18 16 -33
q-6 -19 -26 -19h-955q-93 -191 -274 -311q-204 -135 -583 -212l-9 40q257 72 442 175q223 125 317 308zM908 659q35 91 45 349q1 26 2 42h-447v-391h400zM1013 659h507v391h-470q-9 -291 -37 -391zM1164 499q611 -224 624 -349q3 -25 -17 -45q-19 -19 -37 -17q-24 3 -93 72
q-82 83 -205 154q-27 15 -290 147zM673 1758q645 -97 706 -217q11 -21 -3 -45q-16 -28 -44 -26q-18 2 -46 20q-158 97 -277 140q-163 59 -345 95zM529 1361v-17q0 -45 -69 -40q-42 4 -39 53l4 55q9 140 9 142v376l111 -76h965l68 76l84 -54q40 -27 40 -49q0 -29 -79 -61
l-1 -260q0 -46 7 -104q3 -27 3 -44q0 -41 -55 -49q-47 -6 -47 25v27h-1001zM529 1797v-377h1001v377h-1001z" />
  </g>

</svg>
