<?xml version="1.0" standalone="no"?>
<!DOCTYPE svg PUBLIC "-//W3C//DTD SVG 1.1//EN" "http://www.w3.org/Graphics/SVG/1.1/DTD/svg11.dtd" >
<svg xmlns="http://www.w3.org/2000/svg" xmlns:xlink="http://www.w3.org/1999/xlink" version="1.1" viewBox="0 -205 1024 1024">
  <g transform="matrix(1 0 0 -1 0 819)">
   <path fill="currentColor"
d="M405 940l15 14l40 -42h425l33 41l68 -48q8 -6 6 -10q-2 -3 -12 -3h-233v-229h96l37 39l47 -47q7 -6 5 -10q-1 -5 -11 -7l-19 -10v-217l6 -55q-1 -18 -14 -25q-11 -8 -32 -11v57h-115v-261h151l28 41l65 -45q12 -9 12 -13t-12 -3h-509l-40 -43l-48 42q26 22 30 43v760
q-4 24 -19 42zM55 922l41 -49h165l35 42l52 -50q7 -6 5 -10q-1 -5 -11 -7l-18 -9v-387l4 -101q1 -23 -11 -32t-39 -12v81h-174v-78q0 -21 -14 -31q-13 -10 -39 -15q4 39 7 136v467q-6 25 -18 43zM548 698l39 -38v3h120v229h-239v-776h239v261h-111v-35q0 -21 -13 -30
q-12 -9 -34 -14q4 36 7 101v248q-3 24 -20 40zM278 853h-174v-445h174v445zM862 643h-266v-246h266v246z" />
  </g>

</svg>
