<?xml version="1.0" standalone="no"?>
<!DOCTYPE svg PUBLIC "-//W3C//DTD SVG 1.1//EN" "http://www.w3.org/Graphics/SVG/1.1/DTD/svg11.dtd" >
<svg xmlns="http://www.w3.org/2000/svg" xmlns:xlink="http://www.w3.org/1999/xlink" version="1.1" viewBox="0 0 2048 2048">
  <g transform="matrix(1 0 0 -1 0 2048)">
   <path fill="currentColor"
d="M1111 1418q9 23 14 35q54 130 80 269l-320 -2q-71 0 -149 -10l-39 85q126 -17 188 -17l788 1l99 102l120 -107q21 -18 16 -34q-6 -18 -26 -18h-548q-36 -67 -94 -184q-31 -61 -70 -120h500l68 76l84 -55q40 -26 40 -48q0 -27 -78 -62v-850q0 -120 -142 -143q0 59 -31 82
q-24 18 -78 31l8 42q83 -16 103 -15q44 2 44 60v829h-203v-567q0 -108 11 -210q3 -28 3 -53q0 -39 -49 -42q-63 -4 -63 42v830h-184v-571q0 -108 11 -209q3 -29 3 -54q0 -37 -45 -42q-66 -8 -66 42v833l-189 1v-962q0 -59 -69 -53q-41 3 -36 60q3 39 6 138l4 106v694
q-1 71 -11 157l114 -87h186zM513 1637l71 80l84 -54q40 -26 40 -49q0 -27 -42 -45q-31 -14 -45 -20v-851l56 -45q8 -6 10 -13q8 -30 -16 -30h-398v-96q0 -45 -68 -40q-42 3 -39 53l3 54q9 134 9 142v869q-3 87 -14 134l118 -89h231zM273 664h256v920h-256v-920zM1747 211
l98 102l121 -107q20 -18 15 -33q-5 -19 -25 -19h-1174q-69 0 -149 -11l-39 86q124 -18 188 -18h965z" />
  </g>

</svg>
