<?xml version="1.0" standalone="no"?>
<!DOCTYPE svg PUBLIC "-//W3C//DTD SVG 1.1//EN" "http://www.w3.org/Graphics/SVG/1.1/DTD/svg11.dtd" >
<svg xmlns="http://www.w3.org/2000/svg" xmlns:xlink="http://www.w3.org/1999/xlink" version="1.1" viewBox="0 0 2048 2048">
  <g transform="matrix(1 0 0 -1 0 2048)">
   <path fill="currentColor"
d="M537 1938l123 -64h734l51 76l89 -61q27 -18 28 -41q1 -17 -54 -54v-189l38 -28q7 -5 8 -12q4 -32 -14 -32h-906v-26q0 -28 -48 -30q-67 -3 -61 51q12 111 12 181v229zM634 1587h778v229h-778v-229zM235 1446l120 -65h396l54 79l95 -61q27 -17 24 -44q-2 -19 -57 -54v-170
q3 -2 5 -3q56 -36 40 -64q-4 -7 -12 -7h-569v-40q0 -46 -69 -39q-42 3 -39 52l4 55q8 134 8 142v219zM331 1113h440v211h-440v-211zM1133 1446l120 -65h412l56 72l90 -58q22 -14 27 -30q6 -23 -57 -64v-164l46 -34q19 -14 5 -39q-4 -7 -11 -7h-592v-32q0 -45 -69 -40
q-42 3 -39 53l4 55q8 129 8 142v211zM1229 1113h456v211h-456v-211zM758 808l-95 -202h818l68 76l84 -54q49 -32 46 -51q-2 -20 -32 -35q-5 -3 -10 -5q-15 -6 -43 -20q-8 -29 -12 -43q-47 -181 -119 -271q-105 -131 -307 -166q0 51 -45 82t-192 80l12 41q191 -59 250 -63
q61 -4 130 25q92 40 142 169q22 59 46 177h-855q-21 -5 -38 -8q-57 -9 -64 20q-4 13 15 41q17 28 30 58l63 149h-343q-67 0 -149 -11l-39 86q121 -18 188 -18h1409l98 102l121 -107q20 -18 16 -34q-6 -18 -26 -18h-1167z" />
  </g>

</svg>
