<?xml version="1.0" standalone="no"?>
<!DOCTYPE svg PUBLIC "-//W3C//DTD SVG 1.1//EN" "http://www.w3.org/Graphics/SVG/1.1/DTD/svg11.dtd" >
<svg xmlns="http://www.w3.org/2000/svg" xmlns:xlink="http://www.w3.org/1999/xlink" version="1.1" viewBox="0 -200 999 1000">
  <g transform="matrix(1 0 0 -1 0 800)">
   <path fill="currentColor"
d="M600 386l114 68l1 -13q-17 -15 -43 -37.5t-54 -47t-54 -47.5t-42 -38l-44 50l72 43v472l-74 -33l-3 5q46 34 80.5 61.5t60 50.5t42.5 43t28 38l41 -60l-35 -17q-14 -9 -34.5 -25.5t-55.5 -42.5v-470zM927 464q-2 -28 -22.5 -52t-48.5 -33q1 1 1 12q0 14 -5 23.5t-13.5 17
t-19.5 14t-24 14.5v9q14 -4 30 -7.5t29 -3.5q12 0 19.5 4t7.5 13q0 2 -0.5 3.5t-0.5 3.5v379h-98l-8 -15v-664q-10 -12 -22.5 -22t-26.5 -12v774l51 -38h98l32 38l54 -57l-33 -32v-369zM106 843l96 -10l39 59l60 -56l-36 -38v-248h-170v-62q0 -9 -5.5 -15t-14 -10
t-17.5 -6.5t-16 -3.5v435zM257 114l153 86v253h-83l-53 -11l-16 33h142l35 50l64 -50l-34 -45v-238q28 -36 47 -57t41 -32.5t54 -14.5t86 -3q36 1 59.5 3t47 6.5t51.5 12t72 19.5v-6q-24 -20 -41.5 -41t-33.5 -41q-16 -2 -25.5 -3.5t-20 -3t-26 -2t-43.5 -0.5q-56 0 -96 3.5
t-72 18.5t-61 46.5t-62 88.5l-23 -2l-117 -118zM95 807v-235h118v246h-107zM382 651q-10 32 -20.5 56t-37.5 49v11q60 -26 92 -55t32 -63q0 -20 -10 -31t-22 -11q-11 0 -21.5 8t-12.5 33v3zM391 889q-11 32 -25.5 55t-37.5 45v11q60 -26 92.5 -55t32.5 -64q0 -19 -10 -30
t-22 -11q-11 0 -20.5 11t-9.5 34v4z" />
  </g>

</svg>
