<?xml version="1.0" standalone="no"?>
<!DOCTYPE svg PUBLIC "-//W3C//DTD SVG 1.1//EN" "http://www.w3.org/Graphics/SVG/1.1/DTD/svg11.dtd" >
<svg xmlns="http://www.w3.org/2000/svg" xmlns:xlink="http://www.w3.org/1999/xlink" version="1.1" viewBox="0 -204 1024 1024">
  <g transform="matrix(1 0 0 -1 0 820)">
   <path fill="currentColor"
d="M903 939l72 -55q9 -6 9 -12q0 -14 -16 -14h-544v-218q0 -96 -6 -179q-3 -74 -15 -151q-9 -62 -23 -114q-14 -48 -35 -92q-19 -37 -51 -76l-14 11q20 33 34 73q15 35 24 75q12 45 20 103q8 68 12 139q6 93 6 211q0 178 -4 284l57 -38h427zM578 812q98 -20 98 -36
q0 -15 -55 -18q-14 -45 -29 -76h232l44 49q36 -27 68 -52q8 -5 8 -11q0 -14 -15 -14h-201v-192h136l44 49q36 -27 68 -52q8 -5 8 -11q0 -14 -15 -14h-241v-324h135q1 11 1 19v148q0 50 -6 75q48 -8 80 -17q11 -4 11 -11q0 -6 -9 -9q-12 -7 -28 -11v-171q0 -23 1 -30
q1 -17 1 -29q0 -34 -31 -34q-26 0 -26 18q0 11 3 24h-325q-8 -10 -24 -10q-26 0 -26 18q0 13 4 33q3 22 3 38v112q0 50 -6 75q48 -8 80 -17q11 -4 11 -11q0 -6 -9 -9q-12 -7 -28 -11v-135q0 -23 1 -30q1 -15 1 -25h138v324h-127q-71 -2 -97 -7l-20 47q44 -12 117 -12h127
v192h-103q-21 -44 -48 -78q-28 -36 -57 -60l-12 21q27 34 42 58q15 23 32 65q15 32 28 75q8 32 16 77zM64 889l61 -43h125l34 42q37 -23 55 -43q7 -7 7 -13q0 -9 -39 -32v-486q9 -6 16 -12q5 -3 5 -7q0 -14 -9 -14h-203v-44q0 -12 -16 -12q-9 0 -24 6q-12 9 -12 24
q0 18 3 47q4 22 4 97v419q0 41 -7 71zM116 309h140l4 4v505h-144v-509z" />
  </g>

</svg>
