<?xml version="1.0" standalone="no"?>
<!DOCTYPE svg PUBLIC "-//W3C//DTD SVG 1.1//EN" "http://www.w3.org/Graphics/SVG/1.1/DTD/svg11.dtd" >
<svg xmlns="http://www.w3.org/2000/svg" xmlns:xlink="http://www.w3.org/1999/xlink" version="1.1" viewBox="0 -205 1024 1024">
  <g transform="matrix(1 0 0 -1 0 819)">
   <path fill="currentColor"
d="M988 112v-16q-6 0 -17 1q-52 6 -75 -21q-73 36 -138 94q-25 23 -47 50q-2 -2 -4 -5q-65 -64 -161 -112q-96 -49 -178 -65l-2 14q60 22 152 74q92 50 150 109q3 4 9 10q6 7 9 10q-19 30 -36 65q-43 89 -74 241q-18 -1 -28 -10l-33 30h325l28 29l48 -39q7 -6 7 -10
q0 -3 -6 -4q-16 -2 -22 -12q-5 -6 -15 -42q-8 -28 -58 -126q-37 -70 -81 -124q21 -27 42 -43q80 -60 136 -78q4 -1 12 -4q14 -4 57 -16zM551 968l40 -39h234l33 39l50 -47q7 -4 5 -7q-1 -4 -11 -6l-18 -9v-157l5 -46q3 -26 -45 -36v55h-245v-31q2 -34 -47 -44q0 2 1 5
q4 33 6 67v209q-3 20 -20 36zM113 968l40 -39h216l33 39l50 -47q7 -4 5 -7q-1 -4 -11 -6l-18 -9v-153l5 -42q3 -26 -45 -36v47h-227v-31q4 -37 -47 -44q0 2 1 5q4 33 6 67v209q-3 20 -20 36zM484 424q-25 0 -33 -33q-5 -20 -29 -76q-49 -116 -175 -200q-65 -45 -185 -79
l-4 12q114 52 169 95q55 41 89 82q34 42 56 87q23 45 42 121h-190v-1q-12 -27 -27 -52q34 -16 58 -30q38 -22 49 -57q8 -41 -20 -48q-18 -1 -20 21q-1 23 -24 51q-18 22 -53 47l-27 -39q-38 -50 -112 -104l-6 12q54 56 82 96q28 41 53 93q23 50 51 140h-102q-27 1 -45 -13
l-34 33h358l32 40l68 -50q8 -5 7 -8q-2 -2 -13 -2h-225q-21 -62 -41 -109h182l23 28l49 -45q5 -5 5 -8q-1 -3 -8 -4zM599 731h245v182h-245v-182zM161 731h227v182h-227v-182zM687 341q8 -17 25 -44l3 -6q31 40 58 89q47 85 71 181h-240q35 -128 83 -220z" />
  </g>

</svg>
