<?xml version="1.0" standalone="no"?>
<!DOCTYPE svg PUBLIC "-//W3C//DTD SVG 1.1//EN" "http://www.w3.org/Graphics/SVG/1.1/DTD/svg11.dtd" >
<svg xmlns="http://www.w3.org/2000/svg" xmlns:xlink="http://www.w3.org/1999/xlink" version="1.1" viewBox="0 -205 1024 1024">
  <g transform="matrix(1 0 0 -1 0 819)">
   <path fill="currentColor"
d="M242 1002l78 -34q14 -5 6 -11q-16 -4 -27 -18v-84h110l27 29l48 -37q7 -6 5 -10q-1 -5 -11 -7l-18 -9v-155l5 -92q4 -28 -47 -36v31h-281v-7q3 -36 -51 -44q8 37 9 98v221q-3 24 -20 40l12 11l36 -33h136v94q2 17 -25 42zM567 964l37 -33h251l35 39l50 -47q7 -6 5 -10
q-1 -5 -11 -7l-18 -9v-137l5 -72q3 -27 -49 -36v47h-253v-19q3 -36 -51 -44q5 37 7 86v191q-3 24 -20 40zM944 371l-14 -8q-19 -202 -52 -245q-50 -76 -152 -84q4 24 -40 48q-38 13 -77 30l6 16q39 -14 101 -28q117 -21 145 107q15 70 23 176h-227l-39 -32l-44 48
q17 7 34 26l42 118h-76q-27 1 -45 -13l-36 33h402l27 38l66 -46q11 -7 8 -10q-2 -3 -19 -2h-277l-54 -140h230l27 34l59 -47q5 -9 -6 -13zM619 719h253v192h-253v-192zM464 315l-12 -12q-6 -130 -32 -181q-33 -67 -136 -86q-6 31 -38 42q-42 18 -83 32l4 16q43 -12 101 -26
q81 -13 109 38q25 42 31 179h-195l-39 -32l-44 48q17 5 34 22l32 98h-96q-27 1 -41 -13l-34 33h402l27 30l50 -38q11 -7 8 -10q-2 -3 -19 -2h-251l-40 -116h198l27 34l55 -39q5 -9 -6 -13zM259 711h-122v-122h122v122zM418 711h-119v-122h119v122zM259 835h-122v-108h122
v108zM299 727h119v108h-119v-108z" />
  </g>

</svg>
