<?xml version="1.0" standalone="no"?>
<!DOCTYPE svg PUBLIC "-//W3C//DTD SVG 1.1//EN" "http://www.w3.org/Graphics/SVG/1.1/DTD/svg11.dtd" >
<svg xmlns="http://www.w3.org/2000/svg" xmlns:xlink="http://www.w3.org/1999/xlink" version="1.1" viewBox="0 -205 1024 1024">
  <g transform="matrix(1 0 0 -1 0 819)">
   <path fill="currentColor"
d="M398 994l80 -34q14 -5 6 -11q-16 -4 -27 -18v-142h53l23 32l58 -40q11 -7 8 -10q-2 -3 -19 -2h-123v-199h54l25 33l49 -40q7 -4 7 -6q0 -3 -7 -4q-13 -3 -19 -9q-3 -3 -9 -31q-22 -90 -53 -172q-13 -35 -34 -70q2 -3 7 -8q3 -4 13 -15q90 -91 192 -121q102 -32 153 -37
q53 -5 78 -5q11 0 52 -1q25 -1 40 -1v-19q-59 -1 -73 -8q-13 -8 -21 -21q-82 -2 -218 38q-135 40 -234 150q-1 2 -4 4q-2 3 -7 10q-28 -40 -69 -79q-90 -87 -211 -129l-6 14q110 57 188 135q42 42 74 92q-69 105 -92 280q-13 -2 -26 -14l-36 34h145v199h-60q-27 1 -45 -13
l-34 33h139v152q2 17 -25 42zM50 878l36 -36h117l33 37l46 -45q7 -6 5 -10q-1 -5 -11 -7l-18 -9v-392l3 -131q0 -32 -45 -33v94h-119v-99q3 -36 -49 -44q5 37 7 148v476q2 16 -19 37zM97 366h119v456h-119v-456zM761 852v-537q2 -64 -10 -87t-68 -34q-2 26 -34 35
q-10 4 -32 11q-21 7 -32 10l4 16q82 -21 107 -19t25 54v565h-106q-27 2 -43 -12l-32 32h169l22 25l32 -27q9 -6 9 -11q0 -4 -9 -8zM955 852v-537q2 -61 -10 -87q-12 -25 -68 -38q-2 29 -32 39q-6 2 -17 7q-13 5 -45 18l2 16q82 -21 106 -19t24 50v565h-52q-28 2 -45 -12
l-34 32h123l22 23l44 -27q14 -10 0 -17zM355 550q33 -154 90 -244q14 27 25 55q41 105 46 189h-161zM613 365l-44 32l130 130l10 -14q-7 -9 -18 -24q-69 -88 -78 -124zM807 391l-42 34l128 126l10 -14q-18 -24 -42 -57q-44 -57 -54 -89zM778 740l5 12q72 -32 89 -80
q15 -50 -18 -58q-15 2 -19 24q-4 24 -14 46q-9 23 -43 56zM582 734l5 12q76 -31 91 -72q19 -48 -16 -58q-15 2 -19 24q-4 24 -16 43q-10 20 -45 51z" />
  </g>

</svg>
