<?xml version="1.0" standalone="no"?>
<!DOCTYPE svg PUBLIC "-//W3C//DTD SVG 1.1//EN" "http://www.w3.org/Graphics/SVG/1.1/DTD/svg11.dtd" >
<svg xmlns="http://www.w3.org/2000/svg" xmlns:xlink="http://www.w3.org/1999/xlink" version="1.1" viewBox="0 -205 1024 1024">
  <g transform="matrix(1 0 0 -1 0 819)">
   <path fill="currentColor"
d="M56 877l34 -36h111l39 39l44 -47q7 -6 5 -10q-1 -5 -11 -7l-18 -9v-348l3 -143q0 -33 -43 -33v82h-117v-69q4 -37 -47 -44q5 37 7 148v424q2 16 -19 37zM697 902h204l32 40l60 -50q8 -5 7 -8q-2 -2 -13 -2h-134v-338h42l32 40l68 -50q8 -5 7 -8q-2 -2 -13 -2h-136v-405
h48l32 38l68 -48q8 -5 7 -8q-2 -2 -13 -2h-269q-27 1 -45 -13l-34 33h166v405h-31q-27 1 -45 -13l-34 33h110v338h-37q-27 1 -45 -13zM103 385h117v436h-117v-436zM259 898h198l32 40l68 -50q8 -5 7 -8q-2 -2 -13 -2h-124v-314h24l24 32l48 -42q8 -5 7 -8q-2 -2 -13 -2h-90
v-310l131 55l6 -16l-90 -46q-121 -57 -144 -74q-18 -10 -46 -41l-50 42l153 63v327h-31q-27 1 -45 -13l-34 33h110v314h-49q-27 1 -45 -13zM616 994l90 -27q8 -2 10 -5q1 -3 -4 -7q-16 -4 -34 -20v-160q2 -150 -7 -319t-66 -271q-57 -101 -175 -159l-10 10q109 68 167 197
q57 132 51 512v200q-3 19 -29 37zM525 788l79 -35q14 -5 6 -11q-20 -8 -29 -20v-224l2 -56q4 -36 -44 -43q5 36 6 144v188q2 17 -29 45z" />
  </g>

</svg>
