<?xml version="1.0" standalone="no"?>
<!DOCTYPE svg PUBLIC "-//W3C//DTD SVG 1.1//EN" "http://www.w3.org/Graphics/SVG/1.1/DTD/svg11.dtd" >
<svg xmlns="http://www.w3.org/2000/svg" xmlns:xlink="http://www.w3.org/1999/xlink" version="1.1" viewBox="0 -200 1000 1000">
  <g transform="matrix(1 0 0 -1 0 800)">
   <path fill="currentColor"
d="M608 930v-84h160l49 47l78 -70h-292q-2 -25 -4 -49.5t-7 -47.5h135l52 47l77 -68h-268q-7 -27 -14 -51t-16 -45h250l54 46l71 -67h-246q13 -23 38 -46t63 -45q73 -46 163 -46v-11q-22 -1 -40.5 -15t-30.5 -38q-145 56 -224 201h-107q-86 -141 -303 -234l-9 12
q181 106 252 222h-116l-59 -10l-16 31h203q10 23 17.5 47t13.5 49h-99l-54 -9l-19 30h177q8 41 12 97h-134l-69 -11l-21 34h224q1 14 1 26.5v25.5q0 28 -1.5 53.5t-3.5 50.5l78 -28zM355 -2v394l55 -26q48 42 78 69t36 41l60 -68q-25 0 -69.5 -15.5t-104.5 -47.5v-106h60
l47 42l54 -62h-161v-129h362v129h-81l-50 -10l-24 30h155v112h-107l-52 -8l-20 31h175l29 40l54 -44l-26 -30v-313l-53 -29v71h-362v-42zM52 886v-435q7 1 16 3.5t17.5 6.5t14 10t5.5 15v62h184v248l32 38l-56 56l-39 -49h-110zM116 816h121v-246h-132v235z" />
  </g>

</svg>
