<?xml version="1.0" standalone="no"?>
<!DOCTYPE svg PUBLIC "-//W3C//DTD SVG 1.1//EN" "http://www.w3.org/Graphics/SVG/1.1/DTD/svg11.dtd" >
<svg xmlns="http://www.w3.org/2000/svg" xmlns:xlink="http://www.w3.org/1999/xlink" version="1.1" viewBox="0 0 2048 2048">
  <g transform="matrix(1 0 0 -1 0 2048)">
   <path fill="currentColor"
d="M1604 1127l74 83l84 -54q40 -26 40 -49q0 -30 -81 -61v-197q0 -91 -41 -124q-34 -27 -96 -44q-3 45 -22 62q-27 26 -159 53v50q24 -6 81 -14l54 -8q54 -7 75 14q13 14 13 57v177h-259v-456q3 -27 -30 -34h322l72 81l84 -54q40 -26 40 -49q0 -27 -77 -61v-283l64 -46
q7 -5 10 -16q3 -13 -5 -25q-5 -7 -11 -7h-871v-59q-3 -31 -54 -24q-52 7 -52 56l10 269v172q-2 82 -18 133l118 -87h310q-6 9 -6 26v464h-259v-361q0 -26 -44 -30q-66 -5 -61 51l4 42q7 98 7 104l-3 315l122 -66h234v204h-388q-8 -80 -15 -111q-21 -95 -94 -110
q-35 -7 -57 19q-32 41 3 69l49 37q59 46 75 237h42l-1 -87l243 -1q-9 25 -20 67q-12 47 -45 107q-15 28 -83 103l19 26h-41q-100 0 -175 -8l-40 88q97 -24 215 -24h325q-29 89 -126 178l19 29q96 -41 119 -54q55 -31 68 -72q13 -38 -31 -80l340 -1l84 101l131 -99
q15 -12 18 -24q4 -15 -10 -27q-8 -7 -22 -7h-294l116 -54q23 -11 30 -21q10 -15 -6 -30q-9 -8 -32 -8h-53q-75 -115 -137 -190h281l72 76l100 -72q23 -17 30 -35q14 -32 -30 -41q-46 -10 -65 -16q-69 -66 -118 -119l-36 27q27 61 50 127h-416v-204h237zM965 181h714v339
h-714v-339zM1181 1384h261q81 186 115 303h-534q191 -138 191 -242q0 -37 -33 -61zM482 1629l83 91l84 -54q40 -26 40 -49q0 -27 -82 -63v-885l54 -38q8 -6 10 -18q7 -32 -18 -32h-395v-96q0 -46 -68 -39q-42 3 -39 52l3 55q9 134 9 142v887q-3 88 -14 138l114 -91h219z
M258 635h258v939h-258v-939z" />
  </g>

</svg>
