<?xml version="1.0" standalone="no"?>
<!DOCTYPE svg PUBLIC "-//W3C//DTD SVG 1.1//EN" "http://www.w3.org/Graphics/SVG/1.1/DTD/svg11.dtd" >
<svg xmlns="http://www.w3.org/2000/svg" xmlns:xlink="http://www.w3.org/1999/xlink" version="1.1" viewBox="0 0 2048 2048">
  <g transform="matrix(1 0 0 -1 0 2048)">
   <path fill="currentColor"
d="M727 1553l-39 86q121 -18 187 -18h620q-2 20 -6 147q-2 52 -13 179l159 -40q35 -9 36 -29t-33 -35l-53 -25q1 -102 6 -197h175l74 91l104 -81q24 -19 29 -36q3 -13 -9 -25q-6 -7 -20 -7h-353q1 -466 71 -792q52 -245 118 -371q42 -81 61 -84q21 -2 34 26q4 9 24 70
l56 167l35 -15l-36 -233q-9 -58 -9 -105q0 -33 23 -100q14 -44 -23 -49q-73 -8 -183 156q-152 228 -222 709q-30 204 -45 621h-620q-67 0 -148 -10zM812 1362l-39 86q117 -18 187 -18h215l78 83l104 -80q22 -17 25 -34q6 -27 -25 -27h-397q-67 0 -148 -10zM736 1175l-40 86
q27 -4 41 -6q86 -12 147 -12h349l85 88l102 -84q16 -13 20 -30q5 -31 -25 -31h-531q-67 0 -148 -11zM1716 1907q75 -25 122 -48q62 -30 65 -77q2 -44 -33 -53q-30 -9 -56 34q-42 65 -117 110zM960 439l103 -68q20 -13 14 -28t-32 -18l-46 -4q-90 -97 -139 -136
q-95 -76 -199 -131l-17 34q207 164 295 351h-86v-13l-4 -9q-13 -26 -45 -30q-66 -8 -60 51l4 42l3 55l8 114l-2 456l118 -70h385l65 70l83 -48q40 -24 40 -49q0 -27 -76 -60v-371q0 -47 7 -104q3 -27 3 -44q0 -41 -57 -49q-48 -7 -48 25l1 34h-318zM853 847h425v130h-425
v-130zM853 672h425v119h-425v-119zM853 618v-123h425v123h-425zM1164 415q284 -167 272 -286q-5 -59 -51 -59q-38 0 -59 68q-24 81 -77 146q-26 32 -107 105zM449 1601l74 86l79 -54q38 -26 38 -48q0 -27 -76 -62v-841l42 -42q12 -12 9 -28q-4 -17 -18 -17h-360v-46
q0 -58 -66 -53q-42 4 -40 49q1 18 4 45q11 114 11 207l2 731q-11 118 -12 152l105 -79h208zM237 648h233v898h-233v-898z" />
  </g>

</svg>
