<?xml version="1.0" standalone="no"?>
<!DOCTYPE svg PUBLIC "-//W3C//DTD SVG 1.1//EN" "http://www.w3.org/Graphics/SVG/1.1/DTD/svg11.dtd" >
<svg xmlns="http://www.w3.org/2000/svg" xmlns:xlink="http://www.w3.org/1999/xlink" version="1.1" viewBox="0 -205 1024 1024">
  <g transform="matrix(1 0 0 -1 0 819)">
   <path fill="currentColor"
d="M682 997l85 -36q14 -5 6 -11q-21 -7 -30 -21v-92h143l27 36l60 -44q11 -7 8 -10q-2 -3 -19 -2h-219v-85h108l23 29l50 -37q7 -6 5 -10q-1 -5 -11 -7l-16 -9v-138l3 -118q-1 -34 -47 -45l4 79v29h-119v-3l2 -81q3 -38 -49 -46q5 32 6 130h-117v-55l4 -43q2 -37 -49 -46
q5 39 7 138v220q-3 19 -17 26l16 13l24 -26h133v85h-152q-27 1 -45 -13l-34 33h231v102q2 16 -30 46zM56 889l34 -42h103l29 35l46 -43q7 -6 5 -10q-1 -5 -11 -7l-18 -9v-357l5 -162q1 -33 -45 -36v93h-107v-99q3 -38 -47 -46q5 39 7 190v439q-3 29 -18 42zM97 371h107v456
h-107v-456zM346 985l83 -36q14 -5 6 -11q-21 -7 -30 -21v-272h33l23 32l50 -40q11 -7 8 -10q-2 -3 -19 -2h-95v-454l2 -95q3 -38 -47 -46q5 39 7 187v408h-34q-27 1 -45 -13l-34 33h113v282q2 16 -30 46zM803 351q-1 23 -18 38l8 11l70 -32q10 -2 11 -5q2 -4 -4 -9
q-18 -5 -27 -16v-31h63l27 36l60 -44q11 -7 8 -10q-2 -3 -19 -2h-139v-189q4 -64 -69 -76q-7 23 -30 35q-22 10 -80 27l4 14l28 -6q56 -12 84 -10t23 50v155h-264q-27 1 -45 -13l-34 33h343v44zM743 621h121v91h-121v-91zM703 712h-118v-91h118v91zM743 521h120l1 39v45
h-121v-84zM585 521h117q1 13 1 28v56h-118v-84zM570 251l6 12q80 -36 98 -70q16 -43 -19 -54q-15 -1 -18 21q-3 23 -24 49t-43 42zM793 975l6 11q67 -23 82 -57q19 -49 -12 -54q-17 0 -20 21q-3 23 -14 39q-10 17 -42 40z" />
  </g>

</svg>
