<?xml version="1.0" standalone="no"?>
<!DOCTYPE svg PUBLIC "-//W3C//DTD SVG 1.1//EN" "http://www.w3.org/Graphics/SVG/1.1/DTD/svg11.dtd" >
<svg xmlns="http://www.w3.org/2000/svg" xmlns:xlink="http://www.w3.org/1999/xlink" version="1.1" viewBox="0 -204 1024 1024">
  <g transform="matrix(1 0 0 -1 0 820)">
   <path fill="currentColor"
d="M442 944l63 -30h311l35 33q51 -36 51 -50q0 -10 -30 -25v-159q0 -23 1 -30q1 -8 1 -16q0 -21 -34 -27q-16 0 -16 10v28h-209l21 -16q17 -12 27 -24q11 -11 15 -20q4 -8 4 -16q0 -15 -3 -24h185l44 49q36 -27 68 -52q8 -5 8 -11q0 -14 -15 -14h-516q-71 -2 -97 -7l-20 47
q44 -12 117 -12h189q-1 1 -1 2q-4 17 -13 33q-8 16 -18 30q-9 15 -26 32l4 3h-96v-20q0 -10 -12 -16q-15 -6 -25 -6q-13 0 -13 14q0 4 1 14q1 23 1 42v170q0 49 -2 68zM492 706h332v76h-332v-76zM492 810h332v76h-332v-76zM434 508l63 -30h323l35 33q51 -36 51 -50
q0 -10 -30 -25v-79q15 -11 27 -21q5 -3 5 -7q0 -14 -10 -14h-214v-214q0 -18 -11 -31q-10 -16 -27 -25q-19 -11 -42 -17q-1 28 -10 39q-6 9 -20 13q-31 12 -70 19v20q56 -20 100 -20q19 0 25 7q7 5 7 19v190h-152q-1 -9 -12 -14q-15 -6 -25 -6q-13 0 -13 14q0 4 1 14
q1 23 1 42v75q0 49 -2 68zM484 343h344v107h-344v-107zM465 252q41 -12 73 -28q6 -5 6 -9q0 -8 -11 -12q-19 -5 -35 -5q-14 -20 -32 -38q-17 -18 -39 -37q-19 -17 -41 -31q-18 -13 -50 -28l-16 12q32 19 53 41q25 24 47 51q21 28 36 55q7 14 9 29zM770 248q42 -23 73 -46
q32 -22 50 -38q18 -15 27 -25q6 -10 10 -19q4 -8 4 -17q-1 -35 -26 -35q-6 0 -12 4q-6 5 -26 38q-20 34 -45 60q-25 28 -69 62zM60 877l61 -43h123l35 33q51 -36 51 -50q0 -10 -30 -25v-479l23 -18q5 -3 5 -7q0 -14 -10 -14h-206v-46q0 -12 -16 -12q-9 0 -24 6q-12 9 -12 24
q0 18 3 47q4 22 4 97v416q0 41 -7 71zM112 302h140v504h-140v-504z" />
  </g>

</svg>
