<?xml version="1.0" standalone="no"?>
<!DOCTYPE svg PUBLIC "-//W3C//DTD SVG 1.1//EN" "http://www.w3.org/Graphics/SVG/1.1/DTD/svg11.dtd" >
<svg xmlns="http://www.w3.org/2000/svg" xmlns:xlink="http://www.w3.org/1999/xlink" version="1.1" viewBox="0 0 2048 2048">
  <g transform="matrix(1 0 0 -1 0 2048)">
   <path fill="currentColor"
d="M926 1634h465q-22 64 -54 119q-26 45 -99 118l23 25q223 -118 218 -211q-2 -34 -32 -51h223l99 101l120 -107q21 -17 16 -33q-5 -18 -26 -18h-481v-158h214l80 84l114 -84q21 -16 16 -35q-6 -19 -26 -19h-398v-160h229l80 81l114 -86q22 -16 16 -34q-6 -19 -26 -19h-413
v-157h322l99 102l120 -107q21 -18 16 -34q-6 -18 -26 -18h-997v-46q0 -35 -46 -38q-67 -4 -60 49q2 17 3 42q3 51 4 61q4 39 4 49v446q-57 -68 -172 -177l-27 26q216 273 300 589l140 -52q37 -13 27 -38q-5 -13 -38 -22l-50 -14q-53 -112 -91 -174zM1302 1419v158h-370v-158
h370zM1302 1205v160h-370v-160h370zM932 990h370v157h-370v-157zM802 839l112 -79h179l68 76l84 -54q40 -26 40 -48q0 -28 -77 -62v-199h209v351l120 -64h168l68 76l84 -54q40 -26 40 -48q0 -28 -78 -62l-2 -433q0 -142 -154 -171q-12 71 -47 93q-33 21 -160 44l8 45
q159 -23 194 -26q68 -6 68 57v425h-215v-284q0 -40 -60 -40q-34 0 -34 22v15h-209q-28 -10 -46 -12q-49 -5 -49 20v279h-210v-606q0 -30 -51 -33q-50 -3 -48 44q0 5 2 34q1 18 4 112l2 76v379q-2 69 -10 127zM492 1667l69 76l83 -54q41 -27 41 -49q0 -27 -42 -46
q-28 -12 -37 -17v-878l38 -34q12 -10 15 -18q4 -9 -1.5 -20.5t-13.5 -11.5h-378v-102q0 -34 -62 -24q-45 8 -42 54v29q1 8 4 63q4 62 4 196v746q0 112 -16 177l122 -87h216zM266 671h245v942h-245v-942z" />
  </g>

</svg>
