<?xml version="1.0" standalone="no"?>
<!DOCTYPE svg PUBLIC "-//W3C//DTD SVG 1.1//EN" "http://www.w3.org/Graphics/SVG/1.1/DTD/svg11.dtd" >
<svg xmlns="http://www.w3.org/2000/svg" xmlns:xlink="http://www.w3.org/1999/xlink" version="1.1" viewBox="0 -200 1000 1000">
  <g transform="matrix(1 0 0 -1 0 800)">
   <path fill="currentColor"
d="M518 622h-159v-26q-8 -13 -23.5 -17t-26.5 -9v393l56 -41h150l20 37l57 -45l-23 -39v-273q-17 -17 -51 -27v47zM287 404q-16 -19 -32 -35.5t-32 -28.5q-3 0 -4.5 1t-5.5 1q24 34 46.5 70t42 70t34 64.5t22.5 54.5l39 -55l-27 -16l-15 -29h188l28 36l47 -46l-26 -38
q-1 -150 -1 -239t-8 -124q-4 -15 -13 -30t-20.5 -27t-25 -20.5t-25.5 -10.5q-2 20 -7.5 33t-14 21.5t-20 14.5t-26.5 12v9q19 -5 34 -7t29 -2q25 0 37.5 20t12.5 57v320h-201l-47 -62l47 -27l-17 -50v-162h104l37 39l54 -62h-188l-20 -28l-56 33l30 27v216zM518 644v116
h-159v-116h159zM371 901l-12 -14v-105h159v119h-147zM472 417l-19 -25l-12 -39q37 -21 47.5 -38.5t13.5 -31.5v-5q0 -13 -8.5 -21t-10.5 -8q-8 0 -12 9t-8 23t-10 30t-17 31q-18 -40 -36.5 -69.5t-57.5 -52.5l-4 2q39 54 57 111t23 111zM796 614l-15 -61q2 -91 17 -170.5
t40.5 -143t59 -108.5t72.5 -67v-11q-41 -2 -78 -30q-21 27 -42 68t-38 95t-29 120.5t-16 145.5q-12 -125 -31 -203.5t-44 -127t-55.5 -75t-64.5 -46.5v9q42 41 70 99t45 135.5t25 175.5t10 220v5zM598 542q25 43 44.5 103t33 124.5t21 126t9.5 107.5l77 -42l-27 -46
q-6 -23 -13 -53t-21 -78h130l29 32q9 -11 22 -20l26 -18t22 -17.5t9 -16.5q0 -7 -5 -12h-3q-7 0 -16.5 -0.5t-15.5 -3.5q-14 -4 -26 -16.5t-24 -29.5t-23.5 -36t-23.5 -35l-10 3q7 8 15.5 28t15.5 42t12 41t5 25q0 8 -9 10h-134q-7 -25 -18 -54.5t-25 -59.5t-31.5 -57.5
t-36.5 -47.5zM97 840h89l39 49l52 -56l-32 -38v-248h-159v-62q0 -17 -17.5 -25t-32.5 -10v435zM86 804v-235h111v246h-100z" />
  </g>

</svg>
