<?xml version="1.0" standalone="no"?>
<!DOCTYPE svg PUBLIC "-//W3C//DTD SVG 1.1//EN" "http://www.w3.org/Graphics/SVG/1.1/DTD/svg11.dtd" >
<svg xmlns="http://www.w3.org/2000/svg" xmlns:xlink="http://www.w3.org/1999/xlink" version="1.1" viewBox="0 0 2048 2048">
  <g transform="matrix(1 0 0 -1 0 2048)">
   <path fill="currentColor"
d="M1075 567q-79 -57 -208 -118l-8 -49q-5 -36 -30 -23q-14 8 -30 42l-41 92q-14 -122 -50 -217q-41 -112 -150 -243l-31 28q89 143 119 301q27 139 27 362v229q0 13 -4 64q0 5 -5 97l110 -72h286l59 72l39 -27q68 -46 72 -66q5 -20 -24 -37q-6 -4 -13 -7q-9 -5 -26 -14
v-737q0 -142 -152 -171q-10 70 -45 93q-32 21 -157 43l8 46q131 -22 186 -26q67 -6 67 57zM1075 631l1 375h-310v-105q274 -37 274 -131q0 -63 -43 -57q-20 3 -80 61q-30 29 -151 79v-111q0 -80 -5 -174v-3l-2 -29q141 24 316 95zM667 1248q-12 -146 -81 -165
q-64 -18 -59 61q1 20 34 67q40 56 58 244l41 1q9 -115 9 -152h49v585l108 -64h237l59 71l71 -49q36 -25 41 -44q4 -19 -25 -37q-6 -4 -12 -7q-9 -4 -27 -14v-441h30l55 66l98 -74q27 -20 22 -46q-4 -19 -26 -22l-47 -8q-34 -31 -52 -46q-42 -38 -63 -68l-37 26l50 116h-533z
M1080 1767h-271v-463h84v348l97 -57l90 1v171zM987 1304h93v235h-93v-235zM1504 1434q-42 -189 -123 -372l-42 12q45 150 67 291q21 140 30 249q14 180 14 184q0 51 -1 120l124 -21q79 -14 74 -47q-3 -21 -31 -28l-64 -17q-4 -42 -13 -139q-6 -60 -25 -180h287l61 73l95 -74
q21 -16 29 -30q14 -24 -15 -38q-13 -6 -62 -17q-23 -43 -69 -125q-37 -69 -76 -143l-39 24q37 85 86 277zM377 1637l76 84l79 -54q40 -27 40 -48q0 -28 -68 -57v-860q51 -32 56 -50q4 -11 -2 -21.5t-16 -10.5h-299v-88q-4 -28 -53 -21q-45 7 -45 53q0 27 2 92q6 72 6 198
v730q-2 87 -16 140l122 -87h118zM243 678h170v906h-170v-906zM1629 1017q68 -643 367 -854l-2 -32q-44 -1 -68 -8q-25 -7 -53 -42q-106 134 -182 345q-45 126 -62 222q-19 103 -26 142q-47 -303 -153 -478q-71 -118 -229 -262l-27 31q17 21 68 77q46 51 108 162
q162 287 162 829q0 90 -6 154l104 -21q87 -18 91 -47q3 -29 -50 -43l-41 -12z" />
  </g>

</svg>
