<?xml version="1.0" standalone="no"?>
<!DOCTYPE svg PUBLIC "-//W3C//DTD SVG 1.1//EN" "http://www.w3.org/Graphics/SVG/1.1/DTD/svg11.dtd" >
<svg xmlns="http://www.w3.org/2000/svg" xmlns:xlink="http://www.w3.org/1999/xlink" version="1.1" viewBox="0 -200 1000 1000">
  <g transform="matrix(1 0 0 -1 0 800)">
   <path fill="currentColor"
d="M561 963l72 -70h-130v-144h30l32 41l54 -46l-32 -37v-158h-84v-162h33l44 46l61 -69h-242v-40q-9 -14 -23 -21.5t-28 -9.5l-1 664l59 -40h111zM713 438q1 -8 1.5 -15t3.5 -12.5t9.5 -8.5t20.5 -3h88q17 2 21 29.5t4 70.5v66h9q2 -50 6.5 -80t10.5 -47t13 -23.5t13.5 -9.5
t12 -6t8.5 -11q0 -2 0.5 -2.5t0.5 -1.5q0 -9 -11 -15t-27.5 -10.5t-37 -6.5t-39.5 -2h-96q-62 11 -62 66v539l51 -37h100l30 41l61 -45l-33 -38v-216h-158v-222zM713 685h105v208h-105v-208zM399 574h140v150h-140v-150zM886 35q-4 52 -26.5 101.5t-67.5 91.5v6
q69 -42 109.5 -81.5t40.5 -66.5q0 -6 -3 -18.5t-8.5 -25t-12.5 -21.5t-16 -9q-7 0 -16 23zM675 60q0 42 -10.5 78t-36.5 75v7q106 -78 106 -149q0 -35 -16.5 -55.5t-30.5 -20.5q-5 0 -8.5 9t-3.5 31v25zM272 63q25 28 40 47.5t23.5 37t13 37t9.5 47.5h7v-26q0 -38 -5 -74
t-14.5 -64.5t-24.5 -46t-34 -17.5q-12 0 -23.5 4.5t-11.5 20.5q0 7 5 12.5t15 21.5zM484 66q0 39 -6.5 75.5t-29.5 82.5h6q21 -22 37.5 -40t28.5 -36t18 -37t6 -43q0 -9 -4.5 -21t-11.5 -22.5t-14.5 -17.5t-14.5 -7t-11 8.5t-4 29.5v28zM399 387h56v162h-56v-162zM399 885
v-136h56v145h-48zM117 842h96l39 49l56 -56l-32 -38v-248h-170v-62q0 -9 -5.5 -15t-14 -10t-17.5 -6.5t-16 -3.5v435zM106 806v-235h118v246h-107z" />
  </g>

</svg>
