<?xml version="1.0" standalone="no"?>
<!DOCTYPE svg PUBLIC "-//W3C//DTD SVG 1.1//EN" "http://www.w3.org/Graphics/SVG/1.1/DTD/svg11.dtd" >
<svg xmlns="http://www.w3.org/2000/svg" xmlns:xlink="http://www.w3.org/1999/xlink" version="1.1" viewBox="0 -200 1000 1000">
  <g transform="matrix(1 0 0 -1 0 800)">
   <path fill="currentColor"
d="M484 993l63 -53l-37 -38l-31 -57h72l51 43l68 -65h-201l-57 -101h109l38 41l51 -58l-35 -32v-399l43 40l57 -61h-360l-58 -13l-18 34h82v486l60 -37h12l37 98h-65l-54 -12l-26 35h153zM100 840h92l39 49l56 -56l-32 -38v-248h-166v-62q0 -9 -5 -15t-12.5 -10t-16 -6.5
t-15.5 -3.5v435zM840 822l-19 -55v-436q0 -38 -18.5 -57.5t-43.5 -21.5q-2 0 -5.5 9.5t-13 21.5t-27.5 24t-48 17l2 8q11 -4 27 -7t30 -3q20 0 33.5 6t13.5 20v511zM89 804v-235h114v246h-103zM923 391q-71 -165 -151 -259.5t-177 -132.5l-9 4q49 36 96.5 86.5t87.5 111.5
t69.5 129t42.5 139l64 -49zM371 388h154v91h-154v-91zM371 366v-92h154v92h-154zM430 169l1 -4l-36 -13q-32 -25 -74.5 -51t-85 -47t-80 -35t-59.5 -16v8q33 18 74.5 41.5t82 52t75.5 61t55 67.5zM371 502h154v88h-154v-88zM758 608l-32 -45q-28 -91 -58.5 -151t-55.5 -79
l-12 -2q22 46 38 92.5t26 90t15 82t5 70.5zM371 681v-68h154v87h-148zM626 97q-4 -22 -11.5 -35t-15.5 -13q-7 0 -14.5 18.5t-20.5 44.5t-33 54t-53 47l-2 8q44 -15 73 -30t46 -29.5t24 -29t7 -29.5v-6zM842 648q21 -13 43 -26.5t40 -27.5t29.5 -30t11.5 -34q0 -2 -2.5 -11
t-7 -19.5t-10.5 -19t-13 -8.5q-8 0 -13.5 18.5t-14.5 44.5t-25 53.5t-43 45.5z" />
  </g>

</svg>
