<?xml version="1.0" standalone="no"?>
<!DOCTYPE svg PUBLIC "-//W3C//DTD SVG 1.1//EN" "http://www.w3.org/Graphics/SVG/1.1/DTD/svg11.dtd" >
<svg xmlns="http://www.w3.org/2000/svg" xmlns:xlink="http://www.w3.org/1999/xlink" version="1.1" viewBox="0 0 2048 2048">
  <g transform="matrix(1 0 0 -1 0 2048)">
   <path fill="currentColor"
d="M1048 847q-2 -13 -5 -36q-7 -45 -21 -102h406l98 101l121 -106q20 -18 16 -34q-6 -18 -26 -18h-630q-35 -94 -66 -135q-88 -116 -265 -187q-73 -29 -245 -75l-12 39q268 88 379 196q73 71 106 162h-281q-108 0 -192 -8l-38 88q95 -23 230 -23h299q19 75 24 138h-251
q2 -32 -14 -40q-15 -6 -38 -6q-60 0 -56 59l4 57l4 80l4 76v100q0 85 -13 176l118 -90h643l68 76l83 -54q40 -26 40 -49q0 -26 -77 -61v-83q0 -23 4 -84q1 -34 3 -80q2 -40 4 -59q5 -53 -63 -58q-43 -4 -43 25v15h-318zM1366 1202h-671v-116h671v116zM1366 1026h-671v-119
h671v119zM1106 616q454 -171 454 -304q0 -52 -42 -54q-35 -1 -94 72q-102 127 -333 252zM767 1518h63l69 76l91 -82q19 -17 16 -29q-5 -19 -26 -19h-208l9 -104q3 -28 -47 -40q-42 -10 -44 14l-12 130h-77q-68 0 -148 -11l-40 82q125 -17 188 -17h72l-17 172l83 -12
q56 -7 71 -12q24 -8 22 -29q-3 -24 -74 -47zM1346 1518h103l81 80l114 -86q23 -17 15 -33q-7 -15 -26 -15h-292l-10 -104q-4 -39 -54 -34q-42 3 -40 26l9 109l-21 5q-6 2 -38 -2q-2 -1 -26 -2q-13 -1 -51 -6l-39 82q118 -17 165 -17h16l13 168l94 -23q82 -19 82 -43
q0 -22 -32 -31l-58 -15zM1757 1817l68 76l83 -54q40 -26 40 -49q0 -27 -77 -61v-1350q0 -136 5 -207q4 -52 4 -81q0 -56 -68 -56q-40 0 -40 24v91h-1490v-91q0 -35 -63 -23q-43 9 -43 55q0 22 1 81q2 28 5 207v1339q0 123 -14 186l118 -87h1471zM282 206h1490v1552h-1490
v-1552z" />
  </g>

</svg>
