<?xml version="1.0" standalone="no"?>
<!DOCTYPE svg PUBLIC "-//W3C//DTD SVG 1.1//EN" "http://www.w3.org/Graphics/SVG/1.1/DTD/svg11.dtd" >
<svg xmlns="http://www.w3.org/2000/svg" xmlns:xlink="http://www.w3.org/1999/xlink" version="1.1" viewBox="0 -200 1000 1000">
  <g transform="matrix(1 0 0 -1 0 800)">
   <path fill="currentColor"
d="M184 663v296l73 -29l-21 -60v-207h53l46 46l59 -67h-158v-318l158 53l3 -11q-142 -64 -218 -108t-93 -67l-43 66q35 10 70.5 23t70.5 24v338h-78l-49 -10l-18 31h145zM832 969l-21 -66v-354h32l49 50l69 -73h-149v-479q-5 -10 -18.5 -21.5t-33.5 -20.5v521h-172
q-1 -141 -24 -235.5t-56.5 -154.5t-72.5 -91t-72 -46l-8 8q43 43 76.5 94t56 113.5t34.5 139.5t12 172h-71l-64 -13l-25 36h160v317q-29 -8 -45 -12.5t-30 -8t-31 -7t-46 -9.5l-6 15q101 42 166 76t105 78l48 -71l-39 -14q-8 -3 -13.5 -4.5t-12.5 -4t-16.5 -6.5t-25.5 -12
v-337h172v448z" />
  </g>

</svg>
