<?xml version="1.0" standalone="no"?>
<!DOCTYPE svg PUBLIC "-//W3C//DTD SVG 1.1//EN" "http://www.w3.org/Graphics/SVG/1.1/DTD/svg11.dtd" >
<svg xmlns="http://www.w3.org/2000/svg" xmlns:xlink="http://www.w3.org/1999/xlink" version="1.1" viewBox="0 -205 1024 1024">
  <g transform="matrix(1 0 0 -1 0 819)">
   <path fill="currentColor"
d="M594 994l91 -36q14 -5 6 -11q-21 -7 -30 -21v-165h181l31 46l74 -54q11 -7 8 -10q-2 -3 -19 -2h-275v-202h163l31 46l74 -54q11 -7 8 -10q-2 -3 -19 -2h-222q26 -58 60 -126q60 -116 142 -171q30 -21 51 -28q8 -3 28 -11q17 -7 27 -11v-16q-50 8 -65 3l-18 -6
q-7 -3 -11 -3q-108 57 -182 210q-36 75 -54 159h-13v-359l3 -95q2 -36 -56 -46q5 39 7 187v313h-18q-22 -92 -68 -169q-49 -81 -133 -149t-168 -109l-8 16q62 43 142 113q80 72 127 154q43 77 59 144h-95q-27 1 -45 -13l-34 33h241v202h-186q-27 1 -45 -13l-34 33h265v175
q2 16 -30 46zM15 677h165v257q2 17 -27 42l8 11l88 -34q14 -5 6 -11q-17 -4 -29 -18v-247h65l31 46l74 -54q11 -7 8 -10q-2 -3 -19 -2h-159v-351l175 70l8 -18q-196 -91 -249 -120q-51 -28 -61 -38t-22 -27l-50 53l153 61v370h-86q-27 1 -45 -13z" />
  </g>

</svg>
