<?xml version="1.0" standalone="no"?>
<!DOCTYPE svg PUBLIC "-//W3C//DTD SVG 1.1//EN" "http://www.w3.org/Graphics/SVG/1.1/DTD/svg11.dtd" >
<svg xmlns="http://www.w3.org/2000/svg" xmlns:xlink="http://www.w3.org/1999/xlink" version="1.1" viewBox="0 0 2048 2048">
  <g transform="matrix(1 0 0 -1 0 2048)">
   <path fill="currentColor"
d="M1425 852l14 -4q25 -5 25 -28q0 -22 -25 -31l-66 -25v-100h352l98 100l121 -106q20 -18 15 -33q-5 -18 -25 -18h-561v-398q0 -142 -155 -171q-11 70 -47 93q-32 21 -159 43l8 46q141 -22 190 -27q66 -5 66 58v356h-307q-117 0 -192 -8l-38 88q98 -23 230 -23h307v89
q-1 80 -8 133l99 -22q59 60 139 160h-374q-118 0 -192 -8l-38 88q99 -23 230 -23h395l73 74l101 -87q27 -22 25 -45q-2 -21 -29 -24l-82 -9q-93 -72 -190 -138zM1293 1355v239h-268q-118 0 -192 -8l-38 88q96 -22 230 -22h268v134q0 115 -8 160l105 -24q83 -19 86 -43
q3 -29 -50 -44l-40 -11v-172h331l98 101l121 -107q20 -18 15 -33q-6 -19 -25 -19h-540v-239h424l58 66l89 -70q35 -28 37 -44q1 -22 -37 -29l-50 -10q-52 -68 -124 -140l-27 17q38 83 54 154h-917q-22 -207 -125 -207q-25 0 -42 21q-12 16 -9 36q4 24 36 48q98 70 101 237
h34l5 -79h400zM427 1364h99l98 102l121 -107q21 -18 16 -33q-6 -19 -26 -19h-308v-685q155 64 287 132l17 -38q-234 -173 -548 -298l-8 -42q-6 -35 -18 -37q-20 -4 -35 26l-70 140q148 37 279 82v720h-83q-75 0 -149 -8l-39 84q116 -19 188 -19h83v392q0 118 -7 160l109 -24
q82 -18 85 -44q3 -29 -49 -43l-42 -11v-430z" />
  </g>

</svg>
