<?xml version="1.0" standalone="no"?>
<!DOCTYPE svg PUBLIC "-//W3C//DTD SVG 1.1//EN" "http://www.w3.org/Graphics/SVG/1.1/DTD/svg11.dtd" >
<svg xmlns="http://www.w3.org/2000/svg" xmlns:xlink="http://www.w3.org/1999/xlink" version="1.1" viewBox="0 0 2048 2048">
  <g transform="matrix(1 0 0 -1 0 2048)">
   <path fill="currentColor"
d="M341 1877l109 -24q83 -19 86 -44q3 -29 -50 -43l-44 -12v-442h55l98 101l121 -105q17 -15 19 -23q4 -12 -11 -26q-6 -5 -13 -5h-269v-672q44 15 66 22q114 37 195 66l21 -38q-207 -123 -471 -235l-9 -53q-5 -26 -19 -31q-21 -7 -48 49l-57 122q32 6 229 64v706h-75
q-56 0 -141 -11l-39 86q123 -17 173 -17h82v406q0 117 -8 159zM1380 1824v-309h350v192q0 116 -9 160l130 -27q61 -14 65 -40q4 -30 -50 -44l-40 -11v-126q0 -61 6 -121q4 -34 4 -45q0 -38 -64 -43q-42 -2 -42 31v19h-810q-45 -7 -54 -7q-40 0 -40 45v224q0 99 -9 149
l109 -24q83 -19 86 -44q3 -30 -50 -44l-42 -11l1 -235l365 2v272q0 108 -9 160l109 -24q90 -20 93 -44q3 -28 -57 -43zM1731 1242l98 102l121 -107q20 -18 15 -33q-6 -19 -26 -19l-1035 1l2 -345q3 -543 -312 -783l-31 27q128 139 186 315t58 441v337q0 29 -7 136l112 -72
h819zM1310 1104l121 -20q88 -16 83 -50t-95 -57q-7 -89 -16 -169q48 -155 84 -233q168 170 260 387l108 -61q66 -37 53 -65q-10 -21 -64 -18q-21 1 -46 5q-96 -132 -285 -298q99 -157 204 -237q112 -85 275 -127l-5 -35q-58 -2 -86 -24q-20 -15 -39 -47q-168 96 -282 231
q-121 142 -200 399q-55 -190 -123 -287q-140 -203 -468 -347l-22 42q289 152 416 356q133 214 133 589q0 13 -6 66zM981 955q137 -126 189 -212q32 -53 34 -100q4 -67 -45 -76q-39 -8 -56 52q-44 156 -152 309z" />
  </g>

</svg>
