<?xml version="1.0" standalone="no"?>
<!DOCTYPE svg PUBLIC "-//W3C//DTD SVG 1.1//EN" "http://www.w3.org/Graphics/SVG/1.1/DTD/svg11.dtd" >
<svg xmlns="http://www.w3.org/2000/svg" xmlns:xlink="http://www.w3.org/1999/xlink" version="1.1" viewBox="0 -205 1024 1024">
  <g transform="matrix(1 0 0 -1 0 819)">
   <path fill="currentColor"
d="M333 1004l69 -30q7 -5 6 -8q0 -4 -8 -5q-11 -1 -23 -11q-11 -17 -29 -40h342l27 32l47 -41q7 -5 7 -9q1 -4 -6 -5q-11 -1 -20 -6q-7 -5 -39 -37q-30 -31 -92 -72q-21 -13 -44 -27q63 -28 119 -43q133 -35 222 -39q26 -1 68 -1v-19h-13q-56 3 -64 -27q-126 17 -224 49
q-71 23 -146 60q-5 -2 -15 -7q-13 -7 -45 -21q-80 -34 -197 -60q-116 -25 -224 -35v18q88 17 187 39q99 23 172 51q41 16 81 35q-9 6 -19 11q-94 52 -156 113q-7 -8 -15 -17q-53 -61 -157 -114l-10 12q139 107 190 195q14 24 12 29q0 6 -10 22zM694 407l64 -28q17 -8 6 -16
q-16 -2 -28 -10q-18 -26 -69 -80h198l32 40l68 -50q8 -5 7 -8q-2 -2 -13 -2h-377q74 -63 119 -90q74 -41 136 -54q61 -14 140 -14v-18q-64 1 -81 -30q-61 12 -105 27q-43 15 -99 46q-52 29 -141 133h-14v-136l2 -57q3 -36 -51 -44q5 37 7 146v91h-27q-26 -43 -65 -75
q-36 -31 -131 -78q-85 -43 -228 -62v14q189 52 311 140q41 30 63 61h-290q-27 1 -45 -13l-34 33h446v132q2 16 -24 40l9 12l81 -30q14 -5 6 -11q-21 -7 -30 -21v-122h101q35 53 46 74q22 37 1 50zM559 666q4 -4 3 -6q0 -2 -5 -3q-17 -7 -28 -17q0 -54 -20 -96q48 -9 94 -19
q43 27 77 52q38 27 38 32q1 5 -7 16l9 9l58 -32q17 -11 7 -17q-19 -1 -33 -3q-59 -35 -119 -64q44 -10 85 -24q200 -65 172 -125q-19 -20 -59 20t-120 74q-75 33 -211 65q-28 -51 -90 -84q-120 -66 -302 -90l-4 13q158 38 261 93q104 56 114 126q12 71 7 78q-4 8 -15 18l8 8
zM495 782q17 -9 33 -17q5 3 14 8q10 6 14 8q72 42 135 109h-358l-1 -1q0 -1 -1 -2q67 -52 164 -105zM314 623q-3 -57 -5 -72q-1 -15 -15 -40q-13 -25 -38 -38q-24 -12 -37 4q-12 17 12 30q24 14 41 33q18 21 26 83h16zM267 373q103 -17 106 -67q0 -19 -15 -24q-16 -3 -23 13
q-11 39 -74 66z" />
  </g>

</svg>
