<?xml version="1.0" standalone="no"?>
<!DOCTYPE svg PUBLIC "-//W3C//DTD SVG 1.1//EN" "http://www.w3.org/Graphics/SVG/1.1/DTD/svg11.dtd" >
<svg xmlns="http://www.w3.org/2000/svg" xmlns:xlink="http://www.w3.org/1999/xlink" version="1.1" viewBox="0 0 2048 2048">
  <g transform="matrix(1 0 0 -1 0 2048)">
   <path fill="currentColor"
d="M375 1612h317l67 76l69 -53q43 -32 43 -51q0 -23 -43 -38l-32 -12q-47 -326 -93 -523q-86 -368 -306 -657q-93 -123 -273 -290l-28 29q172 182 294 381q98 160 171 382q-7 -2 -11 -3q-26 -5 -53 22q-7 7 -39 61q-51 87 -229 209q-51 -120 -145 -259l-32 24
q211 374 253 1013l124 -20q60 -10 63 -34q4 -25 -52 -44l-33 -10q-16 -128 -32 -203zM365 1557q-49 -213 -118 -371q75 -32 162 -75q116 -58 152 -117q15 -24 24 -59q65 216 115 622h-335zM1432 997h-442q-57 -17 -81 -1q-13 8 -13 60v333q-7 118 -10 135l109 -24
q83 -18 86 -44q3 -29 -50 -43l-41 -12v-345h165v491q-7 119 -10 134l109 -24q83 -18 86 -43q3 -30 -50 -44l-41 -11v-503h183v322q-7 119 -10 135l109 -24q83 -18 86 -44q3 -29 -50 -44l-41 -11v-260q0 -48 7 -104q3 -26 3 -44q0 -41 -57 -49q-47 -7 -47 25v39zM1162 243
v549q-7 118 -10 134l109 -24q83 -18 86 -43q3 -30 -50 -44l-41 -11v-561h202v377q-7 117 -10 135l109 -25q83 -18 86 -43q3 -30 -50 -44l-41 -11v-325q0 -48 7 -104q3 -27 3 -44q0 -41 -56 -49q-48 -7 -48 24v51l-492 2q-27 -12 -52 -11q-43 3 -43 30v414q-7 117 -10 135
l109 -25q80 -17 86 -43q6 -30 -41 -42l-50 -13l1 -389h196zM1669 1809l68 77l83 -55q41 -26 41 -48q0 -27 -79 -61l7 -1057q1 -163 29 -283q26 -110 59 -105q16 3 28 52l65 259l36 -11l-32 -221q-8 -52 -8 -131q0 -26 12 -61q6 -18 6 -31q0 -19 -19 -30q-17 -9 -36 -6
q-80 11 -143 105q-59 89 -72 221q-17 181 -17 239l-15 1089h-623q-64 0 -158 -9l-41 89q100 -23 219 -23z" />
  </g>

</svg>
