<?xml version="1.0" standalone="no"?>
<!DOCTYPE svg PUBLIC "-//W3C//DTD SVG 1.1//EN" "http://www.w3.org/Graphics/SVG/1.1/DTD/svg11.dtd" >
<svg xmlns="http://www.w3.org/2000/svg" xmlns:xlink="http://www.w3.org/1999/xlink" version="1.1" viewBox="0 -205 1024 1024">
  <g transform="matrix(1 0 0 -1 0 819)">
   <path fill="currentColor"
d="M56 519l-4 16q116 60 195 124q78 62 132 134q18 22 31 43h-271q-28 0 -46 -13l-34 33h364q18 32 29 58q19 48 16 60q-5 10 -17 22l6 9l80 -23q5 -5 5 -8t-5 -5q-10 2 -25 -13q-16 -54 -41 -100h379l41 51l75 -57q11 -8 8 -12q-3 -3 -19 -2h-339q48 -59 79 -88
q42 -42 89 -74q46 -33 85 -46q38 -12 61 -14q10 -1 47 -4q15 0 23 -1v-17q-38 -1 -56 -6q-18 -6 -34 -28q-64 18 -124 58q-61 41 -109 90q-51 51 -89 130h-128q-17 -28 -37 -55q-65 -83 -140 -143q-77 -62 -227 -119zM365 479l32 -33h195l31 31l42 -35q7 -6 5 -10
q-1 -5 -11 -7l-18 -9v-59l3 -43q-3 -23 -41 -25v30h-200v-29q0 -49 5 -63q5 -12 24 -15q22 -3 100 -3q56 0 86 5q11 3 30 16q7 3 38 -18q8 -4 0 -12q-32 -21 -101 -23h-98q-44 0 -80 6q-41 13 -42 65v185q-3 17 -13 36zM742 283v238h-495v-289l4 -99q-24 -14 -51 -14l3 94
v312q-8 24 -17 34l12 10l36 -30h497l25 27l54 -31q7 -6 5 -10q-1 -5 -11 -7l-18 -9v-226l3 -106q-1 -18 -16 -27q-15 -10 -37 -16zM47 59h795l41 50l75 -58q11 -7 8 -10t-19 -2h-821q-27 2 -45 -13zM403 430v-95h200v95h-200zM332 663h261l28 36l61 -42q7 -5 6 -8
q-1 -2 -12 -2h-272q-20 1 -46 -14z" />
  </g>

</svg>
