<?xml version="1.0" standalone="no"?>
<!DOCTYPE svg PUBLIC "-//W3C//DTD SVG 1.1//EN" "http://www.w3.org/Graphics/SVG/1.1/DTD/svg11.dtd" >
<svg xmlns="http://www.w3.org/2000/svg" xmlns:xlink="http://www.w3.org/1999/xlink" version="1.1" viewBox="0 -200 1000 1000">
  <g transform="matrix(1 0 0 -1 0 800)">
   <path fill="currentColor"
d="M211 734l-26 -28l-21 -46h71l35 26l42 -46l-47 -29q-8 -11 -21 -31.5t-29 -49.5h41l34 37l42 -45l-26 -25v-272q-2 -2 -8 -4t-13 -4t-12.5 -4t-7.5 -5v34h-118v-26q-2 -3 -7.5 -5.5t-12.5 -4.5t-13.5 -4t-10.5 -4v325q-14 -31 -28 -54t-28 -29l-3 12q15 29 29 67.5t27 81
t24.5 87.5t20.5 87zM158 628q-13 -32 -23 -51t-11 -25l30 -22h46l32 101h-75zM148 397h39v112h-33l-7 -17zM147 265h40v108h-40v-108zM226 397h39v112h-39v-112zM226 265h39v109h-39v-109zM589 293q-7 -22 -18 -31t-15 -9q-7 0 -11.5 20.5t-10 49t-14.5 58.5t-25 50l5 8
q49 -43 70 -79t21 -56q0 -1 -2 -11zM204 187q21 -48 37 -81t16 -55q0 -24 -9.5 -34.5t-11.5 -10.5q-8 0 -12 18t-6.5 45t-5 59t-8.5 59zM177 21q-6 -9 -14 -13t-12 -4q-11 0 -11 24q0 14 3 35t3 36q0 21 -2 40.5t-5 40.5l1 2q19 -37 32.5 -70.5t13.5 -57.5q0 -23 -9 -33z
M97 177q0 -12 0.5 -24t0.5 -23q0 -60 -5.5 -93t-29.5 -38q-4 7 -11.5 13t-7.5 13t7 20t16.5 31.5t18 43.5t11.5 57zM336 151q29 69 51 151.5t32 167.5h-44l-33 -15l-11 38h109v131q-22 -5 -46 -14.5t-53 -14.5l-3 15q31 17 58.5 32t52 32t46.5 37t42 46l31 -69l-28 -6
l-55 -38v-151h30l39 42l56 -66h-125v-429q-7 -11 -22 -16.5t-22 -12.5v328q-4 -20 -13.5 -46t-22.5 -53t-28 -52.5t-30 -44.5zM377 854h-113v-76q-3 -5 -9.5 -10t-14 -9t-14.5 -6.5t-11 -2.5v104h-80l-55 -11l-19 35h153v123l66 -28l-16 -58v-37h113v118l62 -30l-13 -55v-33
h52l40 44l65 -68h-157v-69q-4 -10 -19 -16t-30 -11v96zM557 11q46 85 71 163.5t38 157.5t17.5 162.5t9.5 178.5h-50l-39 -10l-16 32h105q2 29 2.5 68.5t0.5 100.5v136l64 -30l-13 -71q-1 -29 -1.5 -50.5t-0.5 -43t-0.5 -47t-1.5 -62.5l70 -1l39 44l54 -66h-145
q5 -125 23 -229t44.5 -183t57.5 -131.5t63 -75.5l-78 -36q-20 42 -40.5 105.5t-37.5 146.5t-29 184.5t-16 218.5h-7q-3 -115 -14.5 -218.5t-28.5 -184.5q-19 -91 -54.5 -162t-80.5 -109zM258 189q30 -43 52 -72t26 -51q1 -5 1.5 -8.5t0.5 -6.5q0 -17 -6 -25t-8 -8h-2
q-8 0 -15 17.5t-14.5 43t-16 55.5t-18.5 55z" />
  </g>

</svg>
