<?xml version="1.0" standalone="no"?>
<!DOCTYPE svg PUBLIC "-//W3C//DTD SVG 1.1//EN" "http://www.w3.org/Graphics/SVG/1.1/DTD/svg11.dtd" >
<svg xmlns="http://www.w3.org/2000/svg" xmlns:xlink="http://www.w3.org/1999/xlink" version="1.1" viewBox="0 -205 1024 1024">
  <g transform="matrix(1 0 0 -1 0 819)">
   <path fill="currentColor"
d="M873 979l63 -58q5 -6 3 -10q-2 -3 -11 -4q-23 10 -61 -4q-31 -7 -87 -18q-17 -3 -26 -5q0 -200 4 -298h118l31 46l74 -54q11 -7 8 -10q-2 -3 -19 -2h-211q0 -5 1 -14q0 -10 1 -14q15 -210 66 -292q29 -47 60 -79q31 -30 41 -10q11 23 33 141l17 -4q-18 -117 -20 -144
q-2 -29 13 -47q16 -20 6 -30q-11 -9 -39 1q-88 36 -153 147q-58 104 -71 320q-1 4 -1 12q-1 9 -1 13h-196v-392q64 41 166 117l12 -16q-106 -90 -141 -120q-34 -28 -45 -43q-6 -8 -16 -28q-3 -5 -4 -7l-50 46q19 11 32 28v705q-3 20 -24 45l13 12l42 -38q68 8 132 21
q73 15 142 32q71 17 81 27q11 11 8 24zM419 713q-21 -5 -23 -17q-9 -72 -32 -179q-22 -104 -63 -190l9 -6q8 -4 25 -16q49 -35 70 -74q20 -39 0 -58t-41 18t-47 65q-14 15 -37 32q-38 -68 -91 -125q-66 -70 -158 -118l-6 16q63 45 122 109q56 61 98 143q-1 1 -4 2l-3 3
q-52 34 -141 76q44 177 76 322h-88q-20 2 -32 -12l-32 32h157q3 17 7 33q36 165 34 173q-1 9 -12 23l8 11l78 -35q5 -4 4 -7q-2 -4 -8 -6q-14 -6 -19 -11q-5 -4 -20 -63l-30 -118h120l27 35l55 -40q11 -10 -3 -18zM711 582q-3 95 -3 290q-8 -1 -24 -4q-19 -2 -28 -4
q-72 -11 -140 -14v-268h195zM215 716l-45 -176l-41 -134l45 -18q40 -17 59 -25q15 -6 29 -14q35 78 56 173q25 112 31 194h-134zM643 185l10 13q101 -47 113 -95q12 -54 -26 -56q-16 4 -20 30q-4 25 -23 54q-15 24 -54 54z" />
  </g>

</svg>
