<?xml version="1.0" standalone="no"?>
<!DOCTYPE svg PUBLIC "-//W3C//DTD SVG 1.1//EN" "http://www.w3.org/Graphics/SVG/1.1/DTD/svg11.dtd" >
<svg xmlns="http://www.w3.org/2000/svg" xmlns:xlink="http://www.w3.org/1999/xlink" version="1.1" viewBox="0 -205 1024 1024">
  <g transform="matrix(1 0 0 -1 0 819)">
   <path fill="currentColor"
d="M426 710q-21 -5 -23 -17q-9 -72 -32 -179q-23 -106 -65 -195l-1 -2q0 -1 -1 -2l12 -9q5 -4 20 -17q44 -40 60 -81q16 -40 -4 -57q-20 -16 -37 21q-16 39 -51 80q-10 12 -21 23q-34 -61 -81 -113q-61 -68 -150 -114l-6 16q59 43 113 105q50 57 91 136q-2 1 -5 3
q-6 5 -18 13q-43 29 -131 66q44 180 76 326h-72q-20 2 -32 -12l-32 32h141q3 17 7 33q36 165 34 173q-1 9 -12 23l8 11l76 -31q5 -4 4 -7q-2 -4 -8 -6q-14 -6 -19 -11t-20 -67l-30 -118h130l27 35l55 -40q11 -10 -3 -18zM950 857v-684q1 -60 -12 -86q-14 -26 -68 -38
q-8 37 -102 60q-7 2 -10 3l4 18q92 -17 117 -15t25 48v708h-397v-686l4 -89q2 -37 -57 -46q5 39 7 187v645q-4 28 -20 41l15 11l40 -43h402l24 33l48 -35q9 -6 9 -11q0 -4 -9 -8zM212 713l-43 -176l-41 -138q54 -18 109 -44q15 -7 29 -16q37 81 59 180q25 112 31 194h-144z
M661 545l75 -21q8 -4 9 -8t-6 -9q-13 -2 -24 -10q-4 -25 -12 -51q54 -34 87 -65q47 -44 59 -91q10 -51 -24 -55q-19 0 -28 39q-8 40 -34 77q-23 33 -67 72q-15 -46 -39 -89q-40 -75 -126 -134l-8 13q124 128 146 292q0 16 -14 28zM671 823l68 -24q10 -3 11 -7q2 -5 -5 -11
q-10 -4 -20 -10q-6 -25 -13 -51q53 -32 87 -61q44 -37 55 -78q9 -50 -23 -56q-17 0 -25 35q-7 35 -33 70q-22 30 -69 68q-14 -40 -34 -75q-37 -67 -113 -126l-8 14q108 117 128 272q0 16 -14 28z" />
  </g>

</svg>
