<?xml version="1.0" standalone="no"?>
<!DOCTYPE svg PUBLIC "-//W3C//DTD SVG 1.1//EN" "http://www.w3.org/Graphics/SVG/1.1/DTD/svg11.dtd" >
<svg xmlns="http://www.w3.org/2000/svg" xmlns:xlink="http://www.w3.org/1999/xlink" version="1.1" viewBox="0 0 2048 2048">
  <g transform="matrix(1 0 0 -1 0 2048)">
   <path fill="currentColor"
d="M650 1343h-244q-29 -181 -89 -274q-55 -85 -174 -169l-22 28q83 80 123 160q47 91 68 255q-98 -2 -158 -10l-38 88q90 -21 237 -21h297v174h-321q-35 -15 -62 -15q-39 0 -39 32v171q-4 144 -7 159l108 -24q83 -18 86 -43q4 -30 -49 -44l-42 -11v-172h326v164
q0 120 -8 160l109 -24q82 -18 85 -43q4 -30 -49 -44l-42 -11v-624q0 -49 7 -105q3 -26 3 -43q0 -42 -56 -49q-51 -7 -51 42zM1465 1604v-81q49 -22 139 -72q347 -173 331 -294q-4 -33 -33 -42q-35 -12 -78 47q-122 165 -359 309v-174q0 -105 11 -209q3 -29 3 -54
q0 -40 -53 -42q-62 -3 -62 42l2 468q-173 -248 -434 -407l-24 30q284 236 393 479h-120q-117 0 -192 -8l-38 88q97 -23 230 -23h184v135q0 118 -7 160l113 -24q82 -17 85 -43q4 -30 -49 -44l-42 -11v-173h226l99 97l120 -102q22 -19 16 -38q-5 -14 -26 -14h-435zM1335 782
q11 65 15 146l120 -20q64 -11 68 -35q4 -26 -40 -37l-46 -11l-10 -43h282l104 118l151 -118q23 -18 17 -37q-5 -21 -34 -21h-535q-81 -219 -278 -349q288 -58 431 -100q138 -41 170 -72q37 -36 20 -76q-12 -26 -38 -28q-25 -3 -109 35q-186 85 -565 174q-162 -90 -343 -139
q-195 -53 -477 -84l-4 42q447 74 702 208q-246 55 -268 60q-136 28 -218 47q115 147 198 282h-341l-155 -6q-22 0 -37 -3l-42 89q97 -22 234 -22h372q60 117 94 244l121 -46q60 -22 57 -47q-3 -22 -48 -28l-54 -7q-32 -64 -67 -116h553zM1320 724h-573q-85 -121 -197 -253
q50 -8 256 -40q66 -10 227 -37q219 146 287 330z" />
  </g>

</svg>
