<?xml version="1.0" standalone="no"?>
<!DOCTYPE svg PUBLIC "-//W3C//DTD SVG 1.1//EN" "http://www.w3.org/Graphics/SVG/1.1/DTD/svg11.dtd" >
<svg xmlns="http://www.w3.org/2000/svg" xmlns:xlink="http://www.w3.org/1999/xlink" version="1.1" viewBox="0 -205 1024 1024">
  <g transform="matrix(1 0 0 -1 0 819)">
   <path fill="currentColor"
d="M22 379h314l15 21q48 68 47 75q0 9 -7 17l6 9l70 -29q9 -10 -2 -15q-18 -2 -23 -8q-1 -2 -9 -10q-16 -19 -28 -33l-23 -27h496l37 44l72 -52q11 -7 8 -10q-2 -3 -19 -2h-257q-50 -92 -133 -161q42 -12 80 -26q188 -69 160 -119q-13 -27 -52 6t-128 74q-46 20 -99 36
q-78 -52 -178 -83q-124 -38 -294 -42v18q138 12 258 50q90 28 161 72q-24 6 -50 11q-113 22 -221 38q57 71 98 126h-220q-27 1 -45 -13zM981 508v-17q-51 6 -62 -22q-58 12 -117 39q-33 16 -63 37q-27 -18 -58 -33q-57 -28 -159 -48l-4 16q86 28 131 52q15 9 47 29q8 4 12 7
q-7 6 -13 12q-46 41 -87 117q-10 -3 -18 -11l-32 30h273l21 28l51 -37q10 -7 -1 -16q-11 2 -28 -9q-46 -66 -91 -104l-4 -4q-3 -2 -5 -4q12 -7 25 -13q92 -45 182 -49zM365 359q-11 -13 -23 -27q-31 -37 -81 -83q90 -4 201 -23q38 -7 72 -15l4 3q80 63 127 145h-300z
M256 996l82 -34q14 -5 6 -11q-16 -4 -27 -18v-52h103l27 40l60 -46q11 -7 8 -10q-2 -3 -19 -2h-179v-90h73l25 38l60 -44q11 -7 8 -10q-2 -3 -19 -2h-275q-27 2 -45 -15l-34 33h163v90h-118q-27 1 -45 -13l-34 31h197v62q2 17 -25 42zM619 972l34 -32h135l28 32l52 -38
q12 -7 -12 -16l-11 -7v-85q1 -44 45 -38q5 0 12 1q11 0 12 1q21 0 36 15h5q2 -2 6 -5q42 -34 26 -36l-25 -7l-47 -1q-14 0 -39 1q-27 0 -39 1q-33 12 -34 72v92h-139v-44q4 -113 -136 -164l-8 16q102 54 102 144v51q-10 27 -18 37zM122 724q2 -15 4 -40v-6h322l23 32l54 -37
q8 -15 -14 -15q-20 -2 -31 -17q-10 -15 -48 -59l-15 8l32 70h-323l-1 -7q-2 -34 -34 -58q-35 -23 -45 1q-6 14 14 26t32 32t14 70h16zM718 608q5 -4 16 -12q4 -3 6 -4q2 2 5 3q51 39 87 103h-199q47 -60 85 -90zM86 537h290l23 36l60 -42q11 -7 8 -10q-2 -3 -19 -2h-283
q-27 1 -45 -13z" />
  </g>

</svg>
