<?xml version="1.0" standalone="no"?>
<!DOCTYPE svg PUBLIC "-//W3C//DTD SVG 1.1//EN" "http://www.w3.org/Graphics/SVG/1.1/DTD/svg11.dtd" >
<svg xmlns="http://www.w3.org/2000/svg" xmlns:xlink="http://www.w3.org/1999/xlink" version="1.1" viewBox="0 -205 1024 1024">
  <g transform="matrix(1 0 0 -1 0 819)">
   <path fill="currentColor"
d="M499 383l33 -35h172v96h-128q3 -23 -47 -32q5 25 7 76v78q2 16 -19 37l14 14l36 -38h137v97q-75 -7 -191 -11v17l99 9q148 20 187 29l12 3q29 7 36 10q9 4 7 20l10 5l53 -44q11 -14 -4 -17q-23 9 -61 -1q-52 -9 -106 -16v-101h120l23 31l48 -39q7 -4 5 -7q-1 -4 -11 -6
l-18 -9v-82l3 -27q-4 -23 -41 -27v31h-129v-96h153l26 33l42 -31q9 -6 10 -11q0 -4 -8 -8l-20 -13v-166q3 -59 -12 -82q-14 -25 -58 -32q2 25 -33 35q-34 9 -81 22l4 14q100 -20 122 -15q22 4 22 56v182h-167v-96l79 7q-12 24 -42 57l9 11q107 -79 85 -136q-11 -15 -23 -11
q-11 4 -13 25q-2 17 -8 35q-85 -12 -135 -18q-87 -10 -105 -34l-26 47l137 13v100h-166v-166l4 -83q3 -38 -49 -46q5 39 7 128v170q-4 24 -16 37zM427 982l36 -44h437l29 33l48 -41q7 -6 5 -10q-1 -5 -11 -7l-18 -9v-80l4 -40q2 -24 -46 -30v30h-440v-100q2 -264 -34 -415
q-36 -149 -144 -240l-10 12q86 96 117 234q31 141 29 403v258q-4 18 -19 33zM193 992l74 -31q5 -4 4 -7q-2 -4 -8 -6q-14 -6 -19 -11t-20 -61l-33 -137h111l23 31l49 -36q11 -10 -3 -18q-15 -5 -17 -17q-2 -10 -5 -32q-30 -199 -67 -307q-6 -18 -13 -35q11 -9 21 -19
q41 -37 55 -79t-6 -56q-20 -15 -32 25q-12 39 -42 73l-14 16q-24 -48 -59 -95q-61 -82 -149 -140l-8 14q67 57 121 134q41 57 66 116q-12 12 -26 24q-39 34 -113 80q36 163 66 301h-52q-20 2 -32 -12l-32 32h121q2 8 5 24q4 16 5 24q35 165 33 173q-1 9 -10 19zM471 804h440
v114h-440v-114zM207 373q5 -3 15 -11q10 -7 15 -11l3 8q30 83 46 179q17 97 27 181h-127l-32 -133l-43 -156q53 -28 96 -57zM746 460h129v103h-129v-103zM704 563h-128v-103h128v103z" />
  </g>

</svg>
