<?xml version="1.0" standalone="no"?>
<!DOCTYPE svg PUBLIC "-//W3C//DTD SVG 1.1//EN" "http://www.w3.org/Graphics/SVG/1.1/DTD/svg11.dtd" >
<svg xmlns="http://www.w3.org/2000/svg" xmlns:xlink="http://www.w3.org/1999/xlink" version="1.1" viewBox="0 -205 1024 1024">
  <g transform="matrix(1 0 0 -1 0 819)">
   <path fill="currentColor"
d="M374 444l70 -31q7 -8 -4 -13q-18 -2 -25 -8t-33 -39l-7 -9h508l33 40l64 -48q11 -7 8 -10q-2 -3 -19 -2h-270q-49 -85 -127 -154q50 -14 97 -25q178 -54 156 -106q-11 -24 -49 5t-127 62q-52 20 -113 37q-80 -58 -184 -82q-124 -29 -294 -30v18q138 10 258 37
q95 22 168 69q-7 2 -20 4q-11 3 -17 4q-113 26 -221 41q4 5 11 15q42 56 77 105h-208q-27 1 -45 -13l-34 33h302l7 10q41 56 39 64q0 9 -7 17zM861 638v-157q9 -91 -66 -104q-7 30 -93 50q-9 2 -13 3l4 16q90 -15 111 -13q18 2 17 38v33h-307v-37l4 -48q2 -37 -51 -46
q5 39 7 88v192q-4 24 -12 31l13 9l29 -25h305l24 29l48 -27q9 -6 9 -11q0 -4 -9 -8zM375 943q12 -12 -2 -17q-13 -2 -26 -14q-38 -59 -86 -125q58 -54 74 -83t17 -62t-7 -58q-16 -49 -80 -65q-2 20 -20 31t-78 29l1 18q69 -16 92 -21t39 11q17 16 15 49q-1 33 -14 59t-65 86
q50 92 74 146h-163v-434l4 -73q2 -36 -55 -46q5 39 7 134v426q-5 23 -19 34l12 13l36 -34h176l21 27zM623 988q9 -10 -3 -14q-16 -1 -25 -14q-12 -25 -26 -47h282l25 38l58 -42q11 -7 8 -10q-2 -3 -19 -2h-364q-21 -31 -47 -60h272l21 30l58 -38q11 -5 8 -7q-2 -2 -19 -1
h-161v-75h147l21 30l56 -34q11 -7 8 -10q-2 -3 -19 -2h-385q-27 1 -45 -13l-34 29h211v75h-76q-27 1 -45 -13l-25 21q-53 -59 -125 -103l-10 12q92 76 141 155l2 2l1 2h-44q-27 1 -45 -13l-34 29h133q36 60 33 67q-3 9 -9 18l6 8zM465 192q28 -5 55 -11l1 1q80 65 126 142
h-288q-14 -18 -29 -35q-27 -31 -66 -71q90 -6 201 -26zM514 592h307v60h-307v-60zM821 578h-307v-60h307v60z" />
  </g>

</svg>
