<?xml version="1.0" standalone="no"?>
<!DOCTYPE svg PUBLIC "-//W3C//DTD SVG 1.1//EN" "http://www.w3.org/Graphics/SVG/1.1/DTD/svg11.dtd" >
<svg xmlns="http://www.w3.org/2000/svg" xmlns:xlink="http://www.w3.org/1999/xlink" version="1.1" viewBox="0 0 2048 2048">
  <g transform="matrix(1 0 0 -1 0 2048)">
   <path fill="currentColor"
d="M660 1617q8 83 9 203l145 -33q25 -6 33 -21q19 -30 -39 -49l-34 -11q-5 -48 -10 -81l104 8l1 -41l-113 -20q-44 -252 -165 -420q79 -43 126 -76q91 -65 80 -128q-8 -49 -52 -46q-23 2 -41 19q-11 10 -61 63q-46 49 -113 95q-140 -148 -425 -264l-15 37q246 132 372 271
q-38 20 -287 131q54 98 120 251q-70 -11 -136 -19l-11 -39q-7 -23 -21 -25q-17 -3 -32 41l-43 124q92 -1 271 9q53 157 92 351l126 -48q48 -18 36 -43q-8 -17 -36 -21l-43 -8q-21 -60 -31 -91q-28 -84 -49 -137l120 9q74 5 122 9zM653 1555q-32 -6 -55 -9q-124 -17 -208 -30
q-50 -99 -141 -236l73 -24q149 -50 192 -68q108 158 139 367zM1142 1609l39 -15q39 -14 30 -34q-9 -22 -64 -19q-16 -17 -32 -40h671l57 65l72 -50q48 -32 42 -57q-3 -12 -66 -46q-12 -346 -40 -476q-39 -180 -262 -209q-7 68 -68 95q-46 20 -126 40l8 40q98 -23 144 -34
q95 -24 150 -2q50 20 70 144q30 181 29 432h-727q-44 -46 -98 -93l57 -38h198q-5 101 -8 121l112 -24q49 -11 53 -33t-41 -36l-24 -8v-20h222l54 61l67 -45q41 -29 41 -44q0 -20 -61 -49v-51l22 -18q32 -25 29 -39q-3 -15 -18 -15h-356v-117q59 5 133 8q47 2 101 8l-44 29
l-48 33l18 25q149 -48 200 -88q39 -31 36 -69q-3 -35 -32 -45q-31 -11 -61 33q-19 28 -37 46l-27 -5q-253 -51 -563 -86l-8 -24q-10 -26 -23 -26q-23 2 -46 47l-48 93q197 3 357 14v124h-198v-8q-2 -33 -58 -38q-29 -2 -29 26v236q-49 -38 -106 -73l-22 30q161 141 257 324
h-46v-11q0 -39 -74 -39q-22 0 -22 24v328l96 -55h744l52 62l68 -46q37 -24 41 -43q7 -27 -64 -56v-156q0 -42 -55 -42q-38 0 -38 18v16h-630zM1318 1257v-91h236v91h-236zM1226 1257h-198v-91h198v91zM1580 1663h192v136h-192v-136zM1294 1799v-136h193v136h-193zM1196 1663
v136h-172v-136h172zM401 751q301 -147 317 -242q5 -32 -9 -57t-37 -25q-31 0 -73 70q-62 106 -218 224zM1108 486q256 108 411 253l101 -107q19 -21 7 -38q-11 -18 -39 -9l-55 16q-146 -89 -388 -148q126 -90 243 -133q264 -97 590 -129v-37q-89 -14 -127 -75
q-383 77 -595 207q-131 82 -244 214q-83 -172 -273 -270q-203 -105 -598 -164l-7 42q278 53 499 156q179 82 250 207q77 133 74 354l155 -26q29 -5 31 -27q1 -22 -29 -33l-51 -20q-6 -29 -15 -90q-6 -38 -13 -67q30 -40 73 -76z" />
  </g>

</svg>
