<?xml version="1.0" standalone="no"?>
<!DOCTYPE svg PUBLIC "-//W3C//DTD SVG 1.1//EN" "http://www.w3.org/Graphics/SVG/1.1/DTD/svg11.dtd" >
<svg xmlns="http://www.w3.org/2000/svg" xmlns:xlink="http://www.w3.org/1999/xlink" version="1.1" viewBox="0 0 2048 2048">
  <g transform="matrix(1 0 0 -1 0 2048)">
   <path fill="currentColor"
d="M1361 483q14 8 67 35q164 83 283 218l92 -69l25 -18q31 -23 27 -43t-27 -18l-62 8q-166 -81 -375 -151q119 -136 247 -197q152 -74 366 -81v-36q-45 -8 -63 -31q-14 -17 -23 -58q-222 54 -375 160q-161 110 -270 311q-70 -162 -159 -241q-171 -152 -511 -210l-7 42
q312 71 460 232q125 136 144 366q4 45 5 115h-326q-61 0 -149 -11l-39 86q112 -19 188 -19h854l95 90l109 -86q28 -22 24 -43q-3 -17 -21 -17h-681l48 -9q87 -16 86 -46q-2 -23 -42 -34l-50 -14q-3 -78 -9 -135q41 -58 69 -96zM1759 1766l68 77l83 -55q42 -27 42 -46
q0 -28 -72 -64l-36 -664q-3 -47 -57 -41q-41 4 -38 36l4 44h-35l-42 -5q-34 -3 -51 -6l-39 86q110 -18 136 -18h37l17 293h-38q-18 0 -103 -11l-39 86q111 -18 142 -18h38l14 251h-49q-34 0 -106 -9l-32 80q52 -16 119 -16h37zM994 1779l-156 -68l15 -255h25l59 70l92 -70
q22 -16 25 -32q4 -24 -25 -24h-176l18 -300h21l60 71l88 -71q21 -16 21 -29q0 -22 -24 -22h-159l3 -37q1 -18 -14 -29q-19 -14 -43 -9q-30 6 -32 38l-41 656q-3 46 -21 142l89 -60q94 79 140 148l91 -60q20 -13 26 -27q12 -23 -11 -33q-11 -6 -36 -2q-12 2 -35 3zM1347 1430
q81 -91 81 -150q0 -56 -44 -46q-19 5 -29 36q-19 54 -40 88q-61 -108 -119 -176l-24 16q71 129 103 225q-47 69 -103 125l20 26q49 -33 102 -88q29 114 31 154l99 -37q41 -15 34 -34q-4 -15 -70 -25q-19 -55 -41 -114zM1184 1728h31q41 108 58 225l106 -29q54 -14 54 -37
q0 -28 -42 -33q-9 -1 -18 -1q-7 0 -22 -2l-21 -36q-31 -57 -53 -87h170l61 73l72 -50q37 -25 42 -43q5 -20 -25 -38q-7 -3 -13 -6l-27 -15v-434q0 -48 7 -104q3 -25 3 -44q0 -49 -57 -49q-28 0 -32 4q-8 7 -8 43v15h-307v-23q0 -22 -33 -30q-31 -7 -54 18q-9 10 -7 33l4 42
q7 97 7 104v556zM1163 1137h309v538h-309v-538zM553 1379q1 33 2 88q2 69 3 114l114 -19q40 -7 50 -20q9 -12 2 -27t-25 -22l-44 -17l-4 -46l-4 -40l86 10l6 -38l-48 -16l-46 -15q-26 -268 -51 -394q-27 -134 -74 -269q100 -96 125 -144q24 -46 16 -80q-10 -40 -46 -40
q-35 0 -72 77q-15 30 -57 89q-127 -290 -373 -497l-24 28q233 259 328 538q-69 72 -262 186q62 226 97 439l-68 -10q-3 -11 -5 -16q-13 -52 -29 -55q-19 -4 -50 65l-44 97q94 1 210 8q56 306 62 597l148 -37q34 -8 38 -34q4 -29 -38 -41l-50 -15q-15 -99 -32 -219
q-18 -133 -37 -243q97 7 196 18zM550 1312q-104 -16 -213 -36q-15 -57 -22 -86q-40 -159 -99 -342q150 -73 229 -127q84 271 105 591zM788 713q58 -34 155 -112q90 -71 93 -145q3 -59 -48 -65q-34 -4 -54 50q-30 81 -69 132q-35 45 -98 108z" />
  </g>

</svg>
