<?xml version="1.0" standalone="no"?>
<!DOCTYPE svg PUBLIC "-//W3C//DTD SVG 1.1//EN" "http://www.w3.org/Graphics/SVG/1.1/DTD/svg11.dtd" >
<svg xmlns="http://www.w3.org/2000/svg" xmlns:xlink="http://www.w3.org/1999/xlink" version="1.1" viewBox="0 -205 1024 1024">
  <g transform="matrix(1 0 0 -1 0 819)">
   <path fill="currentColor"
d="M146 953l62 -27q9 -7 -4 -15q-10 -4 -15 -9t-26 -124l-14 -70h78l19 25l45 -30q11 -10 -3 -18q-15 -5 -17 -17q-9 -72 -21 -167q-12 -94 -38 -177l-5 -16q18 -16 34 -36q65 -83 37 -122q-16 -16 -26 16q-10 35 -33 71q-11 18 -26 35q-22 -53 -55 -101q-48 -70 -118 -126
l-8 12q56 59 96 123q35 55 60 121q-3 2 -5 4q-33 32 -107 78q34 165 58 305h-34q-20 2 -32 -12l-32 32h101q2 8 4 22q3 15 4 22q27 165 25 173q-1 9 -10 19zM174 337l5 -4q24 77 36 170q14 99 21 185h-91l-26 -133l-35 -160q53 -30 90 -58zM321 458l23 -22h146l19 25l38 -27
q7 -6 5 -10q-1 -5 -11 -7l-10 -9v-80l4 -30q5 -21 -36 -26v22h-147v-3q-13 -19 -39 -26q5 33 7 71v90q-1 14 -10 22zM1009 458v-15q-41 6 -57 -15q-66 84 -91 178q-6 23 -12 48q-12 -76 -42 -125q-43 -73 -138 -117l-9 14q134 84 153 237q11 77 9 87q-2 11 -13 24l8 7
l55 -17q9 -2 11 -6t-3 -10q-17 -4 -22 -16q0 -3 -1 -9q0 -7 -1 -10q19 -64 28 -86q26 -65 52 -107q34 -55 73 -62zM401 983l70 -34q14 -5 6 -11q-16 -4 -27 -18v-86h67l22 32l54 -38q8 -5 7 -8q-2 -2 -13 -2h-137v-106h49l24 34l52 -40q8 -5 7 -8q-2 -2 -13 -2h-197
q-25 1 -43 -13l-34 29h123v106h-68q-25 1 -43 -13l-34 29h145v96q2 17 -25 42zM761 339q7 -8 -1 -13q-13 -4 -25 -15v-154q-3 -41 8 -52q9 -12 48 -11q38 -1 62 1q42 -2 46 38q5 46 4 99h13l4 -51q3 -49 27 -62q-22 -50 -67 -51q-23 -3 -43 -3q-20 -2 -92 0q-52 14 -46 90
v165q1 20 -16 36l8 10zM352 308h147v114h-147v-114zM1005 832q4 -11 -14 -13q-14 4 -46 -42q-17 -22 -29 -38l-14 6q16 30 37 78h-140q-31 -89 -76 -139l-10 7q43 87 61 164q19 78 17 86q-1 8 -11 22l5 8l54 -14q9 -2 11 -5q2 -4 -3 -11q-13 -3 -21 -15q-9 -45 -21 -83h130
l20 24zM728 857l16 -6q-35 -104 -53 -143q-18 -37 -26 -60q-7 -21 4 -86q12 -65 -16 -68t-21 51q8 54 -4 74t-58 31l2 16q50 -12 65 3q17 16 33 53q1 2 3 8q14 30 55 127zM479 264l46 -18q17 -7 7 -17q-16 -3 -22 -10q-24 -43 -49 -78l96 24l4 -15q-36 -10 -91 -27
q-152 -41 -155 -74l-40 40l160 45q23 44 32 64q13 27 12 34q2 11 -7 24zM328 657q1 -19 1 -34h206l17 26l38 -27q8 -5 6 -10q-3 -4 -16 -7q-13 -2 -26 -25q-12 -19 -21 -33l-13 2l18 58h-209v-12q-2 -33 -23 -52q-25 -19 -39 -1q-7 11 11 24q18 14 25 33t11 59zM897 321
l8 11q82 -48 98 -108q15 -55 -20 -62q-15 2 -18 30t-17 61q-13 33 -51 68zM654 315q3 -127 -17 -162q-32 -45 -58 -15q-8 15 14 29q22 15 31 51q9 37 13 97h17zM736 418l10 9q86 -58 95 -106q10 -53 -22 -57q-16 0 -16 28q4 51 -67 126zM309 520h174l18 24l46 -30q8 -5 7 -8
q-2 -2 -13 -2h-155q-25 1 -43 -13zM585 920l8 10q61 -28 84 -68q22 -49 -16 -57q-12 1 -14 20q-1 20 -15 41q-12 21 -47 54zM328 238l9 10q65 -48 62 -90q0 -21 -17 -24q-16 -3 -18 16q2 42 -36 88z" />
  </g>

</svg>
