<?xml version="1.0" standalone="no"?>
<!DOCTYPE svg PUBLIC "-//W3C//DTD SVG 1.1//EN" "http://www.w3.org/Graphics/SVG/1.1/DTD/svg11.dtd" >
<svg xmlns="http://www.w3.org/2000/svg" xmlns:xlink="http://www.w3.org/1999/xlink" version="1.1" viewBox="0 0 2048 2048">
  <g transform="matrix(1 0 0 -1 0 2048)">
   <path fill="currentColor"
d="M1053 1435q157 91 240 148q76 52 225 180h-998q-70 0 -149 -11l-39 86q122 -18 188 -18h1017l77 73l91 -78q39 -34 43 -56q6 -35 -86 -35q-6 0 -25 1q-139 -92 -335 -204q-39 -23 -144 -79q-23 -12 -41 -22q37 -12 37 -36q0 -26 -37 -37l-58 -19v-178h678l110 112
l133 -118q20 -18 15 -33q-5 -19 -25 -19h-911v-862q0 -88 -80 -132q-52 -29 -107 -37q-10 69 -49 94q-31 20 -163 48l8 42q169 -26 227 -30q68 -5 68 56v821h-714q-69 0 -149 -11l-39 86q126 -17 188 -17h714v144q0 77 -8 163zM1320 799l17 28q164 -94 308 -217
q231 -198 241 -307q3 -30 -13 -53q-16 -22 -43 -21q-47 3 -86 89q-55 123 -193 270q-107 115 -231 211zM120 197l-24 31q317 280 436 649l146 -65q41 -19 34 -39q-6 -21 -38 -23l-65 -4q-101 -174 -134 -216q-144 -188 -355 -333z" />
  </g>

</svg>
