<?xml version="1.0" standalone="no"?>
<!DOCTYPE svg PUBLIC "-//W3C//DTD SVG 1.1//EN" "http://www.w3.org/Graphics/SVG/1.1/DTD/svg11.dtd" >
<svg xmlns="http://www.w3.org/2000/svg" xmlns:xlink="http://www.w3.org/1999/xlink" version="1.1" viewBox="0 0 2048 2048">
  <g transform="matrix(1 0 0 -1 0 2048)">
   <path fill="currentColor"
d="M687 954h606l68 76l83 -55q40 -25 40 -48q0 -27 -77 -62l-49 -556q-6 -64 25 -80q33 -16 199 -16q170 0 195 39q20 32 44 210l6 46l31 -5l-5 -164q-2 -58 16 -80q4 -5 38 -34q16 -13 17 -28q5 -84 -390 -76q-172 3 -213 20q-67 26 -60 114l53 645h-640l-153 -662
q253 14 609 67l11 -42q-262 -66 -692 -129q-6 -72 -30 -76q-22 -4 -53 76l-35 88l99 3l214 971h-329q-64 0 -149 -11l-39 86q121 -18 188 -18h1303l108 114l131 -112q27 -23 22 -41t-26 -18h-1110zM910 1965q103 -65 141 -100q71 -64 71 -124q0 -42 -25 -69h660l61 69
l91 -74q35 -29 33 -46q-2 -19 -38 -26l-49 -10q-63 -85 -227 -227l-23 20q98 122 152 238h-1413q-12 -106 -43 -166q-46 -90 -113 -96q-31 -3 -49 18q-16 19 -10 44q7 29 51 61q61 44 92 110q27 59 32 175h34q4 -46 6 -90l693 1q-14 20 -27 72q-20 82 -124 194zM701 743
q181 -61 289 -119q127 -68 132 -135q2 -21 -10 -38q-13 -17 -31 -17q-29 0 -61 37q-109 130 -331 240z" />
  </g>

</svg>
