<?xml version="1.0" standalone="no"?>
<!DOCTYPE svg PUBLIC "-//W3C//DTD SVG 1.1//EN" "http://www.w3.org/Graphics/SVG/1.1/DTD/svg11.dtd" >
<svg xmlns="http://www.w3.org/2000/svg" xmlns:xlink="http://www.w3.org/1999/xlink" version="1.1" viewBox="0 0 2048 2048">
  <g transform="matrix(1 0 0 -1 0 2048)">
   <path fill="currentColor"
d="M1097 1008q371 -136 863 -142v-37q-76 -12 -104 -78q-537 67 -843 207q-371 -195 -930 -254l-4 38q512 87 845 260q-168 97 -336 240q-147 -115 -369 -206l-15 31q250 142 383 290q90 99 162 229l133 -61q29 -13 25 -34q-5 -22 -38 -25l-63 -5q-41 -53 -78 -90h598l60 70
l83 -58q41 -29 38 -51q-2 -20 -28 -29l-46 -15q-169 -174 -336 -280zM1002 1047q176 106 324 267h-655q-25 -23 -53 -47q25 -16 63 -42q155 -106 321 -178zM965 822l109 -24q82 -18 85 -43q3 -30 -49 -44l-42 -11v-497h554v316q0 118 -7 159l109 -23q82 -18 85 -44
q4 -30 -49 -44l-42 -11v-277q0 -58 3 -85q6 -65 5 -81q-2 -48 -66 -40q-38 5 -38 35v39h-1192q-25 -9 -46 -8q-38 2 -38 46v322q0 118 -8 160l109 -24q83 -18 86 -44q3 -29 -50 -43l-41 -12v-341h530v459q0 118 -7 160zM901 1980q101 -63 142 -100q70 -64 70 -124
q0 -43 -25 -69h669l60 69l91 -74q35 -29 33 -45q-2 -21 -38 -27l-49 -10q-63 -85 -227 -227l-23 20q96 120 153 239h-1433q-12 -106 -42 -166q-46 -91 -114 -97q-32 -3 -49 19q-15 18 -10 43q7 29 52 61q59 43 91 110q28 60 32 175h34q4 -46 6 -90l704 1q-13 21 -26 72
q-21 82 -125 194z" />
  </g>

</svg>
