<?xml version="1.0" standalone="no"?>
<!DOCTYPE svg PUBLIC "-//W3C//DTD SVG 1.1//EN" "http://www.w3.org/Graphics/SVG/1.1/DTD/svg11.dtd" >
<svg xmlns="http://www.w3.org/2000/svg" xmlns:xlink="http://www.w3.org/1999/xlink" version="1.1" viewBox="0 0 2048 2048">
  <g transform="matrix(1 0 0 -1 0 2048)">
   <path fill="currentColor"
d="M1131 1395h525l73 85l92 -76q36 -29 33 -49q-3 -26 -33 -32l-70 -15q-76 -94 -163 -175l-25 21q53 93 93 184h-558q-48 -73 -78 -108t-91 -89l-26 31q109 139 188 408l130 -41q25 -7 32 -20q19 -35 -46 -46l-45 -7q-17 -39 -31 -71zM1011 454q-50 -104 -120 -165
q-223 -194 -760 -260l-7 37q637 131 776 388h-582q-56 0 -149 -9l-38 86q27 -4 41 -6q86 -13 146 -13h602q20 61 33 190l117 -31q51 -13 62 -19.5t11 -25.5q0 -17 -9 -21.5t-60 -12.5l-34 -8q-5 -37 -14 -72h675l99 101l119 -106q22 -19 17 -34q-6 -19 -26 -19h-899z
M1151 396q219 -42 381 -95q314 -102 352 -178q17 -35 -4 -61q-17 -22 -45 -15q-26 6 -56 26q-174 119 -372 194q-31 12 -177 62q-44 15 -95 33zM904 1976q166 -94 171 -178q2 -38 -28 -60h725l58 65l89 -69q35 -28 37 -45q2 -21 -37 -28l-50 -10q-63 -74 -128 -140l-29 17
l37 89l26 65h-1497q-14 -112 -38 -162q-34 -69 -98 -72q-28 -1 -43 19q-13 17 -8 38q4 17 53 61q94 85 95 251h39v-79h709q-12 23 -19 58q-16 77 -83 158zM205 1355l-40 86q123 -18 188 -18h327l80 81l114 -86q21 -16 16 -34q-6 -18 -26 -18h-312v-189h98l80 80l114 -86
q21 -16 15 -33q-5 -19 -25 -19h-282v-202q201 39 325 68l8 -38q-189 -70 -655 -175q-5 -64 -28 -70q-24 -8 -54 54l-49 104q210 18 355 40v219h-55q-102 0 -172 -9l-38 88q88 -21 202 -21h63v189h-101q-68 0 -148 -11zM1096 1163l117 -53q33 -15 32 -34q-1 -24 -44 -24h-36
q-83 -116 -138 -169q-67 -63 -151 -118l-21 24q149 149 241 374zM1313 1291l109 -24q83 -18 86 -43q3 -30 -50 -44l-42 -11v-349q0 -142 -159 -171q-2 67 -43 94q-32 20 -159 43l7 46q141 -23 191 -27q68 -5 68 57v270q0 117 -8 159zM1522 1125q139 -74 189 -112
q116 -87 120 -161q4 -70 -53 -66q-35 3 -58 60q-54 131 -220 252z" />
  </g>

</svg>
