<?xml version="1.0" standalone="no"?>
<!DOCTYPE svg PUBLIC "-//W3C//DTD SVG 1.1//EN" "http://www.w3.org/Graphics/SVG/1.1/DTD/svg11.dtd" >
<svg xmlns="http://www.w3.org/2000/svg" xmlns:xlink="http://www.w3.org/1999/xlink" version="1.1" viewBox="0 -205 1024 1024">
  <g transform="matrix(1 0 0 -1 0 819)">
   <path fill="currentColor"
d="M142 513l20 -16h267l29 33l48 -37q7 -6 5 -10q-1 -5 -11 -7l-18 -9v-190l4 -58q6 -37 -44 -41v22h-269v-5q-1 -25 -47 -36q5 33 7 100v228q2 8 -6 16zM978 68v-20q-44 1 -55 -3q-13 -4 -19 -21q-76 30 -133 73q-25 19 -48 43q-17 -18 -37 -35q-80 -67 -203 -92l-4 18
q95 26 175 97q4 4 12 11q11 9 31 29q-16 19 -30 41q-39 59 -69 142q-34 -58 -82 -108l-12 12q56 78 89 163t31 98q-2 14 -10 18l7 13l65 -20q5 -6 4 -10q-1 -3 -8 -5q-10 -1 -20 -15q-11 -37 -26 -71h241l28 38l62 -44q8 -5 7 -8q-2 -2 -13 -2h-108q-13 -77 -49 -157
q-21 -45 -53 -84q9 -7 17 -15q58 -47 137 -72q28 -9 73 -14zM688 740q8 -4 -6 -15q-12 -4 -22 -15v-35q0 -64 10 -72q10 -7 44 -8q35 0 66 -1h45q13 2 34 3q43 1 45 29q4 16 4 60v47h15q2 -12 3 -33q1 -59 32 -73q-19 -44 -53 -55q-16 -6 -42 -8q-21 -1 -78 0h-86
q-46 1 -63 17q-16 16 -18 52v92h-218q-13 -36 -33 -69q-39 -65 -112 -100q-73 -34 -213 -48v18q227 35 289 144q16 27 26 55h-147q-22 0 -44 -12l-32 28h228q11 33 12 68q2 18 -12 28l6 12q64 -19 70 -24q6 -4 6 -8q-2 -5 -9 -7q-11 -5 -19 -13q-4 -29 -11 -56h201l24 34z
M977 875q9 -11 -5 -17q-2 0 -5 -1q-24 7 -91 -86l-15 8l38 82h-753q-1 -5 -2 -15q-2 -7 -2 -11q-18 -73 -64 -77q-18 0 -25 17t19 34q27 18 38 39q12 22 22 85h15v-3q2 -25 1 -49h746l29 37zM629 410q-2 -5 -7 -16l-8 -16q31 -73 71 -129q12 -18 35 -47l3 -3q27 35 43 69
q31 69 43 142h-180zM173 397h269v84h-269v-84zM442 293h-269v-78h269v78zM442 383h-269v-76h269v76zM212 180l58 -28q5 -4 4 -7q0 -4 -7 -6q-12 1 -25 -9q-98 -83 -197 -118l-6 13q70 40 115 77q46 36 52 47q6 9 -2 24zM335 158l4 16q117 -33 142 -72q27 -43 -8 -53
q-15 -1 -26 22q-10 23 -35 43q-25 19 -77 44zM435 998l6 13q93 -24 110 -66q16 -45 -19 -51q-15 2 -21 24q-6 23 -21 40q-14 17 -55 40z" />
  </g>

</svg>
