<?xml version="1.0" standalone="no"?>
<!DOCTYPE svg PUBLIC "-//W3C//DTD SVG 1.1//EN" "http://www.w3.org/Graphics/SVG/1.1/DTD/svg11.dtd" >
<svg xmlns="http://www.w3.org/2000/svg" xmlns:xlink="http://www.w3.org/1999/xlink" version="1.1" viewBox="0 0 2048 2048">
  <g transform="matrix(1 0 0 -1 0 2048)">
   <path fill="currentColor"
d="M913 497q22 63 27 182l154 -40q33 -9 34 -30q2 -24 -42 -35l-44 -10q-9 -39 -18 -67h653l99 101l120 -107q21 -18 16 -33q-6 -19 -26 -19h-884q-142 -280 -812 -376l-8 40q554 110 702 336h-521q-68 0 -148 -10l-40 85q124 -17 188 -17h550zM934 1976q166 -94 171 -178
q2 -38 -28 -60h725l58 65l89 -69q35 -27 37 -45q2 -21 -38 -28l-49 -10q-54 -73 -109 -140l-24 17q28 78 49 152l-1507 2q-29 -234 -136 -234q-29 0 -43 19q-13 17 -8 38q4 17 53 61q94 85 95 251h39v-79l709 -1q-12 24 -19 59q-16 77 -83 158zM1139 403q265 -57 445 -129
q245 -99 220 -197q-8 -29 -32 -33q-30 -4 -135 72q-129 93 -273 158q-73 32 -236 94zM809 1025h-320q-67 0 -148 -11l-40 86q120 -17 188 -17l303 -1l61 73l72 -50q37 -25 42 -43q5 -20 -25 -38q-6 -3 -13 -6l-27 -15v-232l35 -26q15 -12 19 -23q11 -31 -23 -31l-447 -2
q-70 0 -149 -11l-39 86q120 -17 188 -18h323v126h-270q-70 0 -149 -10l-39 86q121 -18 188 -18l270 -1v96zM1581 1025h-342q-67 0 -149 -11l-39 86q120 -17 188 -17l326 -1l61 73l72 -50q37 -25 41 -43q5 -21 -25 -38l-12 -6q-10 -5 -27 -15v-232l34 -26q15 -12 19 -23
q11 -31 -23 -31l-469 -2q-70 0 -149 -11l-39 86q120 -17 188 -18h345v126h-293q-69 0 -148 -10l-40 86q123 -18 188 -18l293 -1v96zM809 1483h-320q-69 0 -148 -10l-40 86q124 -18 188 -18l303 -1l61 73l72 -50q37 -25 42 -43q5 -20 -25 -38q-6 -3 -13 -6l-27 -15v-194
l35 -26q15 -12 19 -23q11 -31 -23 -31l-447 -2q-72 0 -149 -11l-39 86q122 -17 188 -18h323v89h-270q-67 0 -149 -11l-39 86q119 -18 188 -18l270 -1v96zM1581 1483h-342q-69 0 -149 -10l-39 86q124 -18 188 -18l326 -1l61 73l72 -50q37 -25 41 -43q5 -20 -25 -38l-12 -6
q-10 -5 -27 -15v-194l34 -26q15 -12 19 -23q11 -31 -23 -31l-469 -2q-72 0 -149 -11l-39 86q122 -17 188 -18h345v89h-293q-67 0 -148 -11l-40 86q120 -18 188 -18l293 -1v96z" />
  </g>

</svg>
