<?xml version="1.0" standalone="no"?>
<!DOCTYPE svg PUBLIC "-//W3C//DTD SVG 1.1//EN" "http://www.w3.org/Graphics/SVG/1.1/DTD/svg11.dtd" >
<svg xmlns="http://www.w3.org/2000/svg" xmlns:xlink="http://www.w3.org/1999/xlink" version="1.1" viewBox="0 -205 1024 1024">
  <g transform="matrix(1 0 0 -1 0 819)">
   <path fill="currentColor"
d="M705 802q-15 -3 -30 -14q-52 -34 -117 -58q84 -17 178 -25q103 -9 146 -9q43 1 89 -2v-19h-13q-47 6 -63 -22q-53 4 -154 16l-27 3l29 -22q7 -6 5 -10q-1 -5 -11 -7l-18 -9v-32l4 -30q4 -16 -40 -18v12h-377q-3 -4 -8 -7q-11 -7 -31 -6q5 21 7 65v44q3 10 -2 19
q-90 -11 -199 -20l5 12q177 24 321 53q30 6 58 14q-59 25 -122 71q-64 -54 -141 -83l-8 12q136 87 166 135q5 9 -3 13l8 7l43 -19q9 -3 10 -7t-7 -9q-7 3 -26 -10q-10 -10 -20 -19h287l25 26l41 -31q7 -6 5 -10q-1 -3 -10 -4zM875 352q-11 -1 -26 -14q-42 -37 -86 -65
q29 -12 58 -21q87 -27 178 -28v-19q-35 2 -44 -2q-14 -3 -26 -17l-21 6q-18 5 -26 8l13 -11q7 -6 5 -10q-1 -5 -11 -7l-14 -9v-64l4 -36q6 -29 -40 -34v34h-215q-1 -16 -12 -22t-31 -11q5 29 7 73v80q0 11 -3 15q-51 -14 -112 -26l-4 14q119 31 195 67q21 11 41 21
q-46 30 -78 71q-43 -42 -109 -81l-8 12q104 87 121 125q3 9 -8 19l6 7l47 -15q9 -3 10 -7q1 -3 -6 -7q-10 -1 -21 -18l-4 -4q-2 -3 -4 -5h163l25 26l41 -31q7 -6 5 -10q-1 -3 -10 -4zM415 350q-10 -1 -24 -14q-26 -24 -53 -44q71 -22 99 -42q48 -37 16 -50q-12 -2 -47 26
q-33 26 -95 46q-38 -25 -79 -43q-33 -15 -71 -27l9 -11h196l21 24l36 -26q12 -12 -2 -19l-10 -7v-66l4 -40q8 -24 -38 -28v34h-203q-1 -20 -11 -30q-10 -11 -30 -15q5 39 7 91v80q-1 4 -1 7q-51 -15 -110 -26l-4 14q104 29 183 65q33 15 64 35q-51 15 -118 32
q-37 -31 -84 -58l-8 12q103 86 126 127q4 9 -5 21l6 7l49 -11q9 -3 10 -7q1 -3 -6 -7q-10 -1 -21 -14q-2 -2 -5 -6q-2 -3 -9 -11h153l17 20l43 -25q7 -6 5 -10q-1 -3 -10 -4zM310 638v-67v-1h373v68h-373zM918 904q9 -10 -5 -15q-24 6 -88 -75l-15 8l34 70h-682
q-1 -12 -3 -21q-6 -39 -30 -58q-28 -19 -41 3q-5 13 11 26q17 14 29 35q14 22 21 77h15q2 -22 0 -42h679l19 27zM624 77h215v100h-215v-100zM174 77h203v100h-203v-100zM689 676q-75 11 -152 28q-17 3 -34 8q-34 -9 -70 -16q-64 -12 -142 -23l14 -21h365zM958 450q4 -4 2 -7
q-1 -3 -7 -4q-1 0 -2 -1q-20 -4 -31 -13q-7 -7 -33 -37l-11 9l16 41h-326v-3q-7 -39 -28 -56q-27 -18 -41 2q-6 12 10 22q17 11 28 35q12 25 16 62h15q4 -23 2 -46h323l21 23zM488 448q4 -4 3 -8q-1 -3 -8 -5q-5 -2 -11 -3q-8 5 -47 -50l-15 8l22 48h-305l-1 -3
q-10 -40 -32 -58q-27 -18 -38 3q-4 13 12 25q18 13 29 35q12 23 16 62h15q4 -25 1 -48h302l19 23zM639 805h-271q74 -42 137 -61q76 25 134 61zM845 211q-12 3 -24 7q-42 14 -86 38q-11 -6 -35 -17q-7 -3 -11 -5q-37 -17 -85 -31l10 -12h212zM193 353q-12 -13 -25 -25
q74 -10 131 -25q32 22 60 50h-166zM813 355h-167q31 -32 71 -56q3 -1 7 -4q5 -3 7 -5q42 28 82 65zM434 999l6 13q83 -12 103 -48q16 -37 -13 -44q-11 0 -22 21q-10 19 -19 26q-14 13 -55 32zM660 521l4 11q58 -3 82 -32q18 -30 -9 -36q-13 0 -19 14t-23 24q-16 10 -35 19z
M202 525l2 11q55 -2 80 -24q28 -32 -6 -42q-8 0 -15 12q-9 14 -20 22q-16 12 -41 21z" />
  </g>

</svg>
