<?xml version="1.0" standalone="no"?>
<!DOCTYPE svg PUBLIC "-//W3C//DTD SVG 1.1//EN" "http://www.w3.org/Graphics/SVG/1.1/DTD/svg11.dtd" >
<svg xmlns="http://www.w3.org/2000/svg" xmlns:xlink="http://www.w3.org/1999/xlink" version="1.1" viewBox="0 -205 1024 1024">
  <g transform="matrix(1 0 0 -1 0 819)">
   <path fill="currentColor"
d="M496 850v-213h19l19 26l58 -34q11 -7 8 -10q-2 -3 -19 -2h-85v-228h43l31 38l58 -46q11 -7 8 -10q-2 -3 -19 -2h-121v-211q4 -63 -12 -89q-15 -28 -62 -39q-4 25 -35 38q-31 12 -61 21l2 16q78 -15 103 -13q25 1 23 54v223h-133v-114l2 -96q2 -35 -51 -44q5 38 7 187v67
h-128v-193l4 -95q2 -37 -53 -46q5 39 7 187v147h-15q-27 1 -45 -13l-34 33h94v228h-7q-27 1 -45 -13l-34 33h86v240q-4 28 -20 41l15 11l38 -45h296l30 41l48 -43q9 -6 9 -11q0 -4 -9 -8zM535 713h293v222q-1 23 -26 46l8 11l88 -38q9 -4 11 -7q2 -4 -4 -7q-18 -5 -31 -16
v-211h41l31 38l58 -46q11 -7 8 -10q-2 -3 -19 -2h-119v-583q-1 -32 -18 -50q-16 -18 -75 -32q-10 31 -34 40q-24 8 -88 26l4 18l42 -8q71 -17 96 -9q27 7 27 45v553h-214q-27 1 -45 -13zM454 617h-133v-228h133v228zM321 637h133v227h-133v-227zM279 617h-128v-228h128v228z
M279 864h-128v-227h128v227zM602 553l10 10q112 -81 121 -147q7 -60 -31 -61q-16 2 -20 37q-4 36 -18 69q-14 34 -62 92z" />
  </g>

</svg>
