<?xml version="1.0" standalone="no"?>
<!DOCTYPE svg PUBLIC "-//W3C//DTD SVG 1.1//EN" "http://www.w3.org/Graphics/SVG/1.1/DTD/svg11.dtd" >
<svg xmlns="http://www.w3.org/2000/svg" xmlns:xlink="http://www.w3.org/1999/xlink" version="1.1" viewBox="0 0 2048 2048">
  <g transform="matrix(1 0 0 -1 0 2048)">
   <path fill="currentColor"
d="M1691 1343l61 71l72 -49q37 -25 41 -44q5 -20 -25 -37q-6 -4 -12 -7q-9 -4 -27 -14v-326l28 -20q26 -19 22 -38q-3 -14 -17 -14h-335v-647q0 -142 -156 -170q-11 69 -48 92q-32 21 -161 44l11 46q138 -23 189 -27q68 -6 68 57v605h-234v-18q0 -46 -69 -40q-42 4 -38 53
l3 54q9 135 9 142v366l110 -79h508zM1709 1286h-541v-366h541v366zM1298 1927q20 -15 29 -22q150 -116 160 -202q4 -44 -33 -87h273l98 101l121 -107q20 -18 15 -34q-6 -18 -26 -18h-774q-114 0 -192 -9l-38 88q91 -21 230 -21h249q-13 16 -18 43q-17 102 -122 242z
M1627 732q303 -294 303 -439q0 -75 -53 -75q-29 0 -44 30q-4 10 -19 59q-60 204 -217 397zM1147 744l129 -49q37 -15 37 -35q0 -27 -45 -31l-37 -3q-80 -166 -129 -241q-67 -99 -162 -190l-27 22q101 147 147 255q43 102 87 272zM506 1577h169l98 101l121 -106
q20 -19 16 -34q-6 -19 -26 -19h-618q-55 0 -149 -9l-39 84q118 -17 188 -17h204q-25 25 -31 68q-15 94 -139 229l22 31q207 -138 227 -230q13 -62 -43 -98zM257 1315l121 -72h226l68 77l83 -54q40 -26 40 -49q0 -29 -79 -61l-1 -761q125 80 235 204l26 -26
q-111 -171 -246 -292v-26q0 -54 -22 -57q-22 -4 -53 53l-51 90l18 11v834h-268v-288q0 -283 -45 -469q-47 -191 -188 -371l-31 27q95 163 133 359q34 180 34 473v398z" />
  </g>

</svg>
