<?xml version="1.0" standalone="no"?>
<!DOCTYPE svg PUBLIC "-//W3C//DTD SVG 1.1//EN" "http://www.w3.org/Graphics/SVG/1.1/DTD/svg11.dtd" >
<svg xmlns="http://www.w3.org/2000/svg" xmlns:xlink="http://www.w3.org/1999/xlink" version="1.1" viewBox="0 -200 1000 1000">
  <g transform="matrix(1 0 0 -1 0 800)">
   <path fill="currentColor"
d="M540 531q60 115 96 205t41 147l52 -65l-26 -43q-11 -27 -27 -59t-36.5 -65.5t-44.5 -65t-50 -56.5zM800 573q-2 -7 -8.5 -12t-14.5 -9t-16 -7t-14 -5v459l68 -43l-15 -62v-321zM937 573q-1 -1 -7 -1q-9 0 -13.5 5t-7.5 12.5t-4 16t-2 15.5q-8 60 -29 115t-45 100l2 -1
q69 -72 97 -121.5t28 -85.5q0 -33 -19 -55zM770 306q-13 -53 -40.5 -104t-61.5 -92.5t-71.5 -69.5t-71.5 -35h-5q37 25 71.5 65.5t62.5 88.5t47.5 99t26.5 96h-103l-48 -11l-22 32h177q6 36 10 69t4 83l64 -49l-24 -103h116l32 48l49 -69h-203zM925 14q-4 0 -11 16.5t-18 46
t-28 69.5t-41 87l-12 16q45 -39 71.5 -66t41 -47t19.5 -35t7 -29v-6q0 -30 -27 -52h-2zM188 925v-116h53v129h-47zM197 960h42l30 39l49 -47l-32 -38v-126h-99l-1 -102q0 -10 5.5 -21t16.5 -11h52q14 0 20.5 13t9.5 33.5t3.5 44.5t2.5 45l8 -8q-1 -11 -1 -20v-17
q0 -34 3 -51.5t7 -26t8 -12.5t6 -11q-1 -21 -21.5 -26.5t-45.5 -8.5h-70q-20 0 -34 14.5t-14 49.5v322zM377 920v-111h53v130h-46zM382 960h46l31 39l44 -42l-27 -34v-135h-99v-107q0 -10 5 -18.5t19 -8.5h70q10 0 14.5 12t6 30.5t1.5 41.5t1 46l11 1q-1 -8 -1 -14v-12
q0 -42 8.5 -62t18 -29t18 -12t8.5 -10q-1 -11 -10.5 -18t-22.5 -10.5t-27 -4.5t-24 -1h-95q-14 3 -22.5 7t-13.5 9.5t-7.5 13.5t-5.5 19v334zM245 433v150l68 -35l-19 -62v-53h69v162l68 -37l-21 -61v-64h34l40 42l51 -64h-125v-123h62l40 39l61 -61h-287l47 -51l-44 -13
q-19 -29 -47 -58.5t-62.5 -56t-74 -48.5t-79.5 -35l-6 7q39 23 78 53.5t72 64.5t57.5 69t35.5 68h-85l-61 -10l-21 33h149v122h-49l-52 -11l-20 33h121zM294 411v-123h69v123h-69zM531 34q-8 -3 -12 -3q-8 0 -12.5 4.5t-7.5 11t-5 13.5t-5 12q-16 51 -44 98.5t-60 82.5l4 -1
q87 -56 121 -99t34 -77q0 -23 -13 -42z" />
  </g>

</svg>
