<?xml version="1.0" standalone="no"?>
<!DOCTYPE svg PUBLIC "-//W3C//DTD SVG 1.1//EN" "http://www.w3.org/Graphics/SVG/1.1/DTD/svg11.dtd" >
<svg xmlns="http://www.w3.org/2000/svg" xmlns:xlink="http://www.w3.org/1999/xlink" version="1.1" viewBox="0 0 2048 2048">
  <g transform="matrix(1 0 0 -1 0 2048)">
   <path fill="currentColor"
d="M400 419v200h-30q-67 0 -151 -11l-39 86q27 -4 41 -6q81 -12 149 -12h30v185h-30q-93 0 -174 -10l-39 86q27 -4 40 -6q87 -12 148 -12h230l80 71l87 -77q20 -17 15 -33q-5 -19 -25 -19h-236v-185h64l72 64l95 -69q21 -15 16 -34q-5 -18 -26 -18h-221v-190q27 3 235 34
l9 -40q-224 -67 -476 -114l-6 -34q-6 -34 -29 -32q-17 1 -36 43l-48 110q182 16 255 23zM427 1145h408l69 75l79 -48q53 -33 50 -57q-2 -24 -84 -60q-4 -84 -9 -281q-12 -384 -66 -528q-41 -106 -126 -153q-37 -20 -117 -35q-3 59 -61 86q-13 6 -170 52l10 38
q189 -43 250 -43q127 0 159 273q18 154 34 620h-533q-109 -57 -251 -113l-15 36q471 236 669 548l95 -47q56 -27 45 -52q-6 -15 -28 -17l-54 -3q-185 -186 -354 -291zM1749 576h20l98 101l113 -107q21 -20 16 -33q-8 -19 -19 -19h-816q-68 0 -148 -11l-40 86q71 -10 139 -15
l19 -2h52v932q-87 -3 -144 -10l-39 86q104 -14 183 -17v189q0 117 -8 160l110 -24q82 -19 85 -44q3 -30 -49 -44l-43 -11v-226h375v193q0 118 -7 160l109 -24q82 -19 85 -44q4 -30 -49 -44l-42 -11v-230h12l98 102l106 -107q20 -19 15 -35q-5 -19 -25 -19h-206v-932z
M1653 576v293h-375v-293h375zM1278 1508v-261h375v261h-375zM1278 923h375v268h-375v-268zM1582 459q136 -84 210 -156q115 -112 115 -189q0 -23 -15 -40q-18 -21 -46 -17q-31 5 -51 55q-61 155 -240 315zM1257 482l118 -51q32 -14 37 -31q8 -26 -37 -33l-50 -7
q-88 -118 -165 -182q-66 -55 -200 -130l-20 32q243 184 317 402zM586 1826v-240q0 -61 7 -119q3 -19 3 -29q0 -49 -55 -49q-48 0 -48 37v363q0 103 -10 160l109 -24q46 -10 59 -15q22 -8 23 -29q2 -29 -49 -44zM726 1779q140 -89 191 -139q72 -71 72 -133q0 -26 -16 -43
t-37 -14q-29 5 -49 63q-26 74 -96 151q-9 10 -61 58q-14 13 -26 26zM294 1781l115 -51q63 -27 39 -56q-9 -12 -35 -13l-51 -4q-96 -156 -251 -301l-29 27q159 205 212 398z" />
  </g>

</svg>
