<?xml version="1.0" standalone="no"?>
<!DOCTYPE svg PUBLIC "-//W3C//DTD SVG 1.1//EN" "http://www.w3.org/Graphics/SVG/1.1/DTD/svg11.dtd" >
<svg xmlns="http://www.w3.org/2000/svg" xmlns:xlink="http://www.w3.org/1999/xlink" version="1.1" viewBox="0 -205 1024 1024">
  <g transform="matrix(1 0 0 -1 0 819)">
   <path fill="currentColor"
d="M155 1004l77 -26q7 -1 9 -4t-3 -7q-15 -3 -27 -20v-179h110l25 32l59 -40q11 -8 8 -11q-3 -2 -19 -1h-69v-574q2 -57 19 -70q16 -14 59 -17q41 -3 125 -5q315 1 363 7q53 9 57 49q6 38 12 110h15q3 -62 3 -92q1 -30 32 -45q-19 -30 -36 -40t-47 -16q-31 -6 -387 -7
q-104 0 -167 4q-96 18 -90 120v576h-72v-34q3 -281 -31 -436q-36 -155 -134 -259l-10 12q81 114 109 262q26 153 23 423v32h-78q-27 0 -45 -13l-34 33h157v197q-4 16 -21 28zM425 908l7 9l81 -37q16 -6 7 -12q-18 -3 -30 -18v-127h154v220q1 16 -31 46l9 12l86 -36
q14 -5 6 -11q-16 -6 -26 -21v-210h162v127q2 15 -30 47l9 12l86 -37q14 -5 6 -11q-17 -7 -29 -21v-82l6 -47q-5 -21 -17 -31q-15 -13 -31 -17v40h-162v-144h166l31 40l69 -50q8 -5 6 -7q-2 -3 -12 -3h-315l74 -31q14 -5 6 -11q-16 -6 -26 -21v-96h100l32 37l68 -47
q8 -5 6 -8q-1 -2 -12 -2h-194v-152h158l32 40l69 -50q8 -5 6 -7q-2 -3 -12 -3h-480q-27 2 -45 -13l-35 33h263v152h-129q-27 0 -45 -13l-34 33h208v106q1 16 -31 46l5 7h-156q-32 1 -50 -13l-35 33h268v144h-143l-35 -44l-48 42q26 24 30 44v125q-4 19 -23 38z" />
  </g>

</svg>
