<?xml version="1.0" standalone="no"?>
<!DOCTYPE svg PUBLIC "-//W3C//DTD SVG 1.1//EN" "http://www.w3.org/Graphics/SVG/1.1/DTD/svg11.dtd" >
<svg xmlns="http://www.w3.org/2000/svg" xmlns:xlink="http://www.w3.org/1999/xlink" version="1.1" viewBox="0 0 2048 2048">
  <g transform="matrix(1 0 0 -1 0 2048)">
   <path fill="currentColor"
d="M1364 418l81 80l114 -86q21 -16 15 -33q-6 -19 -26 -19h-632q-62 0 -146 -11l-38 86q115 -17 184 -17h448zM945 1086h-306q-60 0 -145 -11l-39 86q121 -18 184 -18h1001l97 102l118 -107q20 -18 15 -34q-5 -18 -25 -18h-500v-166h271l67 76l82 -54q39 -27 39 -49
q0 -26 -41 -45q-18 -9 -37 -20v-459q0 -9 4 -64q2 -16 4 -61q1 -35 3 -55q4 -36 4 -70q0 -51 -60 -54q-47 -2 -47 39v54h-959v-43q0 -15 -22 -33q-14 -11 -47 -9q-42 3 -40 49q1 17 4 46q12 112 12 209v487q0 17 -4 71q-1 21 -3 61l108 -76h258q4 36 4 143v23zM1027 864
q-37 -273 -338 -371l-14 20v-298h959v343q-68 -4 -87 -4q-185 0 -222 14q-72 26 -72 123v173h-226zM935 864h-260v-334q88 46 157 111q79 76 103 223zM1035 1086q0 -95 -1 -144l-1 -22h220v166h-218zM1634 864h-289v-112q0 -74 21 -91q20 -17 73 -16q20 1 74 0h121v219z
M755 1466q223 -117 250 -212q8 -28 -3 -52t-35 -29q-28 -6 -47 21q-4 6 -25 62q-26 68 -159 180zM1506 1351q-84 -110 -215 -205l-23 29q122 151 191 311l96 -61q58 -38 48 -63q-5 -13 -19 -13l-45 2h-33zM1702 1830l68 76l84 -54q40 -27 40 -49q0 -27 -78 -61v-146l50 -35
q13 -9 13 -23q0 -23 -35 -23h-1439q4 -132 4 -172q0 -477 -54 -765q-55 -299 -240 -532l-31 27q138 228 186 532q44 282 44 731v373l-3 68q-2 82 -5 125l111 -72h1285zM405 1772v-199h1316l2 199h-1318z" />
  </g>

</svg>
