<?xml version="1.0" standalone="no"?>
<!DOCTYPE svg PUBLIC "-//W3C//DTD SVG 1.1//EN" "http://www.w3.org/Graphics/SVG/1.1/DTD/svg11.dtd" >
<svg xmlns="http://www.w3.org/2000/svg" xmlns:xlink="http://www.w3.org/1999/xlink" version="1.1" viewBox="0 -205 1024 1024">
  <g transform="matrix(1 0 0 -1 0 819)">
   <path fill="currentColor"
d="M141 1003l39 -46h652l31 35l48 -43q7 -6 5 -10q-1 -5 -11 -7l-18 -9v-72l4 -40q7 -41 -46 -44v38h-660v-158q6 -250 -24 -386q-30 -134 -128 -243l-12 12q82 120 103 243q23 128 19 368v316q-4 18 -19 33zM319 449l37 -44h388l31 31l52 -39q7 -4 5 -7q-1 -4 -11 -6
l-18 -9v-74l4 -40q8 -38 -46 -40v30h-397q-2 -21 -13 -26q-12 -6 -36 -11q5 39 7 91v90q-4 24 -18 42zM185 825h660v112h-660v-112zM364 267h397v122h-397v-122zM529 788l80 -34q14 -5 6 -11q-16 -4 -27 -18v-129h210v84q2 17 -24 42l9 12l81 -32q14 -5 6 -11
q-21 -7 -30 -21v-67l4 -25q1 -34 -46 -46v48h-448l-31 -32l-44 40q16 14 20 34v69q3 22 -13 37l7 11l69 -24q14 -7 5 -16q-18 -4 -26 -14v-89h209v139q2 17 -25 42zM695 231l58 -30q17 -10 7 -16q-16 -1 -29 -11q-41 -50 -73 -84h240l29 34l54 -42q11 -7 8 -10q-2 -3 -19 -2
h-723q-27 1 -45 -13l-34 33h462l29 44q37 63 34 72q-2 9 -8 14zM208 505h646l29 34l54 -42q11 -7 8 -10q-2 -3 -19 -2h-639q-27 1 -45 -13zM363 209l8 13q100 -43 101 -92q1 -26 -19 -30q-19 -4 -24 17q-3 20 -19 43q-15 24 -47 49z" />
  </g>

</svg>
