<?xml version="1.0" standalone="no"?>
<!DOCTYPE svg PUBLIC "-//W3C//DTD SVG 1.1//EN" "http://www.w3.org/Graphics/SVG/1.1/DTD/svg11.dtd" >
<svg xmlns="http://www.w3.org/2000/svg" xmlns:xlink="http://www.w3.org/1999/xlink" version="1.1" viewBox="0 0 2048 2048">
  <g transform="matrix(1 0 0 -1 0 2048)">
   <path fill="currentColor"
d="M1089 756q-148 -24 -374 -67l-168 -27q-135 -24 -184 -32l-12 -45q-8 -30 -24 -28t-33 35l-50 103q172 115 308 267q98 109 167 220q10 17 50 87q10 17 30 52l133 -68q22 -11 22 -29q0 -25 -33 -28l-63 -7q-232 -295 -495 -468q63 6 95 9q112 10 266 30q255 29 425 52
q45 46 156 184q25 31 135 198l137 -69q34 -17 25 -37q-9 -21 -35 -22l-70 -3q-236 -297 -459 -468q-182 -140 -558 -351q230 16 572 50l318 31l184 20l26 3q-74 84 -170 163l26 28q248 -162 346 -277q65 -77 62 -127q-2 -29 -19 -48q-19 -20 -40 -18q-37 3 -75 88
q-29 66 -100 155q-39 -8 -521 -85l-221 -29l-210 -27q-194 -20 -251 -27l-10 -41q-8 -31 -25 -32q-15 -2 -29 30l-51 117q413 191 797 538zM1621 1872l109 -24q82 -18 85 -44q3 -29 -49 -43l-42 -11l2 -155q2 -123 11 -209q3 -29 3 -54q0 -39 -49 -42q-62 -4 -62 42v38
h-1213q-26 -13 -40 -14q-55 -6 -55 38v303q0 120 -8 160l110 -24q82 -18 85 -44q3 -30 -49 -44l-43 -11v-308h555v358q0 118 -7 160l108 -24q83 -18 86 -44q4 -28 -49 -43l-40 -11v-396h560v286q0 115 -8 160z" />
  </g>

</svg>
