<?xml version="1.0" standalone="no"?>
<!DOCTYPE svg PUBLIC "-//W3C//DTD SVG 1.1//EN" "http://www.w3.org/Graphics/SVG/1.1/DTD/svg11.dtd" >
<svg xmlns="http://www.w3.org/2000/svg" xmlns:xlink="http://www.w3.org/1999/xlink" version="1.1" viewBox="0 0 2048 2048">
  <g transform="matrix(1 0 0 -1 0 2048)">
   <path fill="currentColor"
d="M1153 1402h-76q-67 0 -123 -9l-39 82q101 -17 143 -17h96l2 63q5 226 5 260q0 82 -7 159l109 -24q82 -19 85 -44q4 -30 -49 -44l-43 -11q-1 -138 -5 -233q-2 -91 -3 -126h474l98 102l121 -107q20 -18 16 -33q-6 -19 -26 -19l-685 1q-7 -157 -27 -321q117 -350 248 -536
q101 153 148 335q36 137 55 356l103 -23q79 -18 79 -46q0 -17 -28 -27q-1 -1 -28 -9q-15 -5 -29 -9q-13 -61 -20 -91q-43 -212 -102 -352q-45 -109 -114 -208q85 -93 175 -160q66 -49 174 -95q55 -23 83 -36l-11 -34q-60 2 -90 -12q-26 -13 -50 -48q-218 153 -345 311
q-110 -116 -184 -175q-68 -54 -225 -148l-22 37q242 173 377 356q-75 120 -115 212q-38 90 -96 274q-38 -169 -56 -224q-105 -334 -354 -560l-25 26q204 252 294 560q69 235 92 647zM257 502h167v1250q0 118 -8 160l109 -24q83 -19 86 -44q3 -30 -50 -44l-42 -11v-1287h172
v955q0 120 -7 159l109 -24q82 -18 85 -43q4 -29 -49 -44l-41 -11v-826q0 -103 9 -246q4 -55 -44 -59q-62 -5 -62 42v42h-434q-22 -14 -41 -14q-25 0 -41 8q-13 6 -13 42v970q0 118 -8 159l109 -24q83 -18 86 -43q3 -30 -50 -44l-42 -11v-988zM1487 1864l17 26
q245 -130 239 -233q-2 -46 -45 -53t-62 50q-24 69 -59 116q-27 36 -90 94z" />
  </g>

</svg>
