<?xml version="1.0" standalone="no"?>
<!DOCTYPE svg PUBLIC "-//W3C//DTD SVG 1.1//EN" "http://www.w3.org/Graphics/SVG/1.1/DTD/svg11.dtd" >
<svg xmlns="http://www.w3.org/2000/svg" xmlns:xlink="http://www.w3.org/1999/xlink" version="1.1" viewBox="0 -205 1024 1024">
  <g transform="matrix(1 0 0 -1 0 819)">
   <path fill="currentColor"
d="M63 340h405q22 66 29 156h-271q-27 1 -45 -13l-34 33h640l32 40l68 -50q8 -5 7 -8q-2 -2 -13 -2h-342q-5 -88 -25 -156h373l32 40l68 -50q8 -5 7 -8q-2 -2 -13 -2h-403q33 -57 79 -101q87 -82 185 -113q38 -12 72 -14q12 -1 42 -3q30 -3 48 -4v-18q-67 4 -80 -32
q-160 23 -276 136q-59 59 -100 149h-41q-21 -61 -56 -105q-79 -96 -192 -138q-112 -43 -207 -58l-4 16q83 19 192 72q111 50 178 135q25 33 43 78h-319q-27 1 -45 -13zM247 982l86 -34q14 -5 6 -11q-19 -4 -29 -18v-261h118v166q2 16 -24 38l9 12l79 -32q14 -5 6 -13
q-21 -6 -30 -19v-99l4 -77q1 -35 -44 -46v50h-262l-33 -48l-50 46q26 24 30 44v153q-2 16 -23 37l9 11l81 -30q12 -7 3 -14q-18 -6 -30 -16v-163h113v271q2 17 -27 42zM703 982l86 -34q14 -5 6 -11q-19 -4 -29 -18v-261h118v166q2 16 -24 38l9 12l79 -32q14 -5 6 -13
q-21 -6 -30 -19v-99l4 -77q1 -35 -44 -46v50h-262l-31 -44l-52 42q26 24 30 44v153q-2 16 -23 37l9 11l81 -30q12 -7 3 -14q-18 -6 -30 -16v-163h113v271q2 17 -27 42z" />
  </g>

</svg>
