<?xml version="1.0" standalone="no"?>
<!DOCTYPE svg PUBLIC "-//W3C//DTD SVG 1.1//EN" "http://www.w3.org/Graphics/SVG/1.1/DTD/svg11.dtd" >
<svg xmlns="http://www.w3.org/2000/svg" xmlns:xlink="http://www.w3.org/1999/xlink" version="1.1" viewBox="0 0 2048 2048">
  <g transform="matrix(1 0 0 -1 0 2048)">
   <path fill="currentColor"
d="M1066 1232h627v82q0 118 -7 160l109 -24q83 -19 85 -44q4 -30 -49 -44l-42 -11v-62q0 -56 5 -100q3 -24 2 -41q-3 -37 -50 -40q-53 -4 -53 33v34h-646q-56 -111 -222 -194q-121 -61 -379 -113l-12 38q397 110 500 269h-577q-13 -15 -35 -19q-61 -10 -60 43v115
q0 116 -7 160l109 -24q82 -19 85 -44q3 -30 -50 -44l-42 -11v-119h603q42 153 19 276l109 -24q82 -18 85 -44q4 -25 -50 -43l-39 -14q-9 -102 -18 -151zM1546 1540h-1052q-17 -16 -39 -16q-49 0 -49 37v151q-4 144 -7 160l109 -24q82 -18 85 -44q4 -29 -49 -43l-42 -11v-153
h482v184q0 118 -7 160l109 -24q82 -19 85 -44q4 -29 -49 -44l-38 -10l-1 -222h463v108q0 118 -8 160l109 -25q83 -18 86 -43q3 -30 -50 -44l-42 -11l-1 -113q0 -28 4 -57q4 -26 4 -41q0 -45 -55 -48q-47 -2 -47 24v33zM691 885l96 -61q54 -35 52 -51q-4 -24 -64 -21l-53 3
q-150 -141 -272 -212q-150 -89 -332 -148l-22 40q383 157 595 450zM1173 852l100 1l50 71l73 -47q48 -31 46 -49q-2 -25 -53 -47q252 -170 573 -224l-5 -39q-78 -6 -110 -61q-180 65 -340 166q-41 26 -211 179h-123v50zM567 489l-39 82q27 -4 41 -6q86 -11 147 -11h668
l57 67l84 -52q49 -31 38 -55q-10 -24 -69 -45q-7 -29 -19 -117q-26 -191 -85 -254q-49 -52 -169 -76q-8 49 -39.5 70.5t-146.5 57.5l7 36q66 -13 133 -29q47 -11 72 -11q80 0 108 101q2 10 41 252h-485q-59 -144 -97 -195q-131 -176 -474 -277l-16 36q197 80 307 177
q121 105 171 261l-86 -2q-80 -2 -149 -10z" />
  </g>

</svg>
