<?xml version="1.0" standalone="no"?>
<!DOCTYPE svg PUBLIC "-//W3C//DTD SVG 1.1//EN" "http://www.w3.org/Graphics/SVG/1.1/DTD/svg11.dtd" >
<svg xmlns="http://www.w3.org/2000/svg" xmlns:xlink="http://www.w3.org/1999/xlink" version="1.1" viewBox="0 -205 1024 1024">
  <g transform="matrix(1 0 0 -1 0 819)">
   <path fill="currentColor"
d="M292 805l39 -50h158l33 41l50 -49q7 -4 5 -7q-1 -4 -11 -6l-18 -9v-180l4 -20q6 -40 -46 -44v48h-169v-19q3 -47 -49 -54q5 47 7 95v200q-4 24 -18 42zM650 801l39 -46h156l33 41l50 -49q7 -4 5 -7q-1 -4 -11 -6l-18 -9v-176l4 -40q6 -40 -46 -44v64h-167v-3
q2 -46 -49 -54q1 7 2 20q3 27 5 59v200q-4 20 -18 38zM152 941l39 -41h686l32 40l68 -48q8 -6 7 -9q-2 -3 -13 -3h-767v-185q6 -246 -26 -394q-31 -147 -138 -249l-8 10q52 75 92 192q41 119 36 435v200q-10 24 -25 39zM553 456l86 -34q14 -5 6 -11q-19 -4 -29 -18v-270h226
v203q2 16 -24 38l9 12l79 -32q14 -5 6 -13q-21 -6 -30 -19v-154l4 -75q1 -32 -44 -46v66h-478l-25 -34l-58 32q26 24 30 44v190q-2 16 -23 37l9 11l81 -30q12 -7 3 -14q-18 -6 -30 -16v-200h221v280q2 17 -27 42zM337 545h169v194h-169v-194zM695 545h167v194h-167v-194z
" />
  </g>

</svg>
