<?xml version="1.0" standalone="no"?>
<!DOCTYPE svg PUBLIC "-//W3C//DTD SVG 1.1//EN" "http://www.w3.org/Graphics/SVG/1.1/DTD/svg11.dtd" >
<svg xmlns="http://www.w3.org/2000/svg" xmlns:xlink="http://www.w3.org/1999/xlink" version="1.1" viewBox="0 0 2048 2048">
  <g transform="matrix(1 0 0 -1 0 2048)">
   <path fill="currentColor"
d="M1618 1237q-216 -55 -507 -91q-8 -62 -30 -69t-38 40l-42 120q189 121 268 410l127 -53q46 -19 43 -40q-3 -24 -49 -31l-47 -6q-89 -154 -243 -280q234 9 490 37q-55 71 -115 129l22 28q185 -120 234 -200q37 -63 25 -116q-12 -49 -56 -38q-23 6 -38 49q-25 78 -44 111z
M252 518h137v1204q0 118 -7 159l109 -24q82 -18 85 -43q4 -30 -49 -44l-42 -11l-2 -1241h143v913q0 118 -7 160l109 -24q83 -18 85 -44q4 -29 -49 -43l-42 -11v-831q1 -80 7 -140q5 -43 4 -68q-2 -39 -55 -42q-54 -3 -53 32l1 42h-375q-19 -13 -40 -14q-53 -3 -53 50v928
q0 118 -8 160l109 -24q83 -19 86 -44q3 -30 -50 -44l-42 -11zM1882 1338q-129 98 -207 205q-73 102 -129 294h-185v59h133l63 68l85 -61q29 -21 26 -40q-3 -20 -58 -44q60 -165 180 -267q80 -68 215 -115v-32q-78 -2 -123 -67zM1114 1883l130 -52q55 -22 48 -46
q-6 -21 -65 -28l-35 -4q-91 -147 -149 -209q-85 -90 -207 -171l-25 29q138 127 208 247q58 98 95 234zM1727 958l83 95l121 -95q15 -11 19 -26q10 -31 -20 -31h-772l-33 -178h420l57 72l60 -41q41 -28 46 -54q4 -19 -27 -36q-36 -20 -38 -21v-372q0 -57 114 -57q62 0 94 13
q26 11 32 60q3 25 7 60q12 90 20 156h37v-210q0 -36 27 -60q28 -25 23 -46q-8 -31 -69 -45q-87 -20 -182 -20q-194 0 -194 119v426h-440l-27 -130q274 -13 345 -83q26 -26 25 -58q-1 -31 -32 -34q-19 -1 -61 27q-104 70 -285 107l-51 -244q232 25 428 60l8 -39
q-191 -58 -449 -116q-20 -70 -46 -72q-23 -2 -41 53l-35 102l43 4l130 657h-93q-69 0 -149 -10l-39 86q113 -19 188 -19h756z" />
  </g>

</svg>
