<?xml version="1.0" standalone="no"?>
<!DOCTYPE svg PUBLIC "-//W3C//DTD SVG 1.1//EN" "http://www.w3.org/Graphics/SVG/1.1/DTD/svg11.dtd" >
<svg xmlns="http://www.w3.org/2000/svg" xmlns:xlink="http://www.w3.org/1999/xlink" version="1.1" viewBox="0 0 2048 2048">
  <g transform="matrix(1 0 0 -1 0 2048)">
   <path fill="currentColor"
d="M1022 1356l59 -13q82 -18 85 -44q4 -29 -49 -44l-42 -11v-935q0 -71 41 -87q46 -20 185 -20h300q161 0 192 22q27 19 45 120q22 131 32 197l42 -4l-11 -209q-4 -62 37 -96q31 -26 27 -49q-13 -72 -364 -72h-293q-216 8 -254 26q-75 36 -75 126v944q0 105 -5 149h-568
q-16 -9 -36 -9q-55 0 -55 46v179q0 187 -8 235l109 -24q82 -18 85 -44q3 -28 -50 -44l-41 -12v-271h569v344q0 118 -7 160l109 -24q82 -19 85 -44q4 -29 -49 -44l-42 -11v-381h562v232q0 117 -8 159l110 -24q82 -18 85 -43q3 -28 -50 -44l-42 -12v-219q0 -47 7 -104
q3 -26 3 -43q0 -42 -56 -49q-48 -6 -48 34l-1 57h-615zM1481 647q378 -132 333 -249q-8 -21 -30 -28q-29 -9 -58 19q-5 4 -44 49q-86 100 -230 164q-100 -137 -254 -254l-29 36q119 122 179 223q49 82 95 223l122 -54q47 -20 44 -43q-4 -29 -49 -31l-46 -1zM1500 1079
q98 -32 186 -79q177 -92 147 -170q-8 -22 -30 -28q-29 -9 -58 18q-5 5 -44 50q-86 100 -231 165q-112 -148 -253 -249l-28 30q205 197 273 446l122 -54q48 -21 44 -43q-7 -34 -53 -34h-44q-16 -29 -31 -52zM523 643q377 -134 333 -249q-8 -21 -30 -28q-29 -9 -58 19
q-5 4 -44 49q-88 102 -229 163q-104 -154 -308 -297l-25 34q243 218 323 492l122 -54q48 -21 43 -43q-7 -34 -53 -34h-44q-17 -30 -30 -52zM538 1084q102 -34 190 -80q177 -93 147 -170q-8 -22 -30 -29q-29 -9 -58 19q-5 5 -44 50q-89 102 -239 167q-127 -148 -321 -264
l-21 39q256 198 342 450l122 -54q48 -21 43 -44q-7 -33 -52 -33h-44q-20 -29 -35 -51z" />
  </g>

</svg>
