<?xml version="1.0" standalone="no"?>
<!DOCTYPE svg PUBLIC "-//W3C//DTD SVG 1.1//EN" "http://www.w3.org/Graphics/SVG/1.1/DTD/svg11.dtd" >
<svg xmlns="http://www.w3.org/2000/svg" xmlns:xlink="http://www.w3.org/1999/xlink" version="1.1" viewBox="0 0 2048 2048">
  <g transform="matrix(1 0 0 -1 0 2048)">
   <path fill="currentColor"
d="M1678 1538h-1280q-20 -14 -41 -15q-54 -3 -54 51v168q0 121 -7 160l109 -24q82 -18 85 -43q3 -30 -49 -44l-43 -11v-187h578v218q0 119 -8 159l109 -24q83 -18 86 -43q3 -30 -50 -44l-41 -11v-255h606v149q0 118 -7 160l109 -24q83 -18 85 -43q4 -30 -49 -44l-42 -11
l2 -67q1 -25 5 -81q4 -79 4 -106q0 -49 -56 -53q-51 -2 -51 51v14zM482 1501l25 26q180 -81 198 -151q10 -36 -18 -68h274l80 79l114 -85q21 -16 16 -34q-6 -18 -26 -18l-848 3q-64 0 -148 -11l-40 88q27 -4 41 -7q37 -5 98 -10l44 -5h334q-15 16 -29 56q-23 64 -115 137z
M736 582q37 -15 38 -34q2 -24 -47 -39l-30 -10l-2 -35l56 4q223 17 341 30l3 -38q-113 -26 -400 -64v-181q0 -81 -53 -123q-33 -27 -102 -47q3 70 -39 93q-5 2 -161 49l5 40q140 -23 190 -27q68 -5 68 57v127q-63 -6 -237 -27q-57 -7 -127 -13q-22 -65 -45 -66
q-21 -2 -42 49l-43 105q110 5 165 6q74 3 329 19v22q0 95 -7 137l87 -20q75 43 174 115h-506q-97 -4 -98 -5q-33 -3 -51 -4l-39 85q61 -10 138 -16l52 -4h530l76 59l70 -68q37 -36 30 -53q-6 -15 -94 -25q-36 -16 -138 -60q-56 -23 -91 -38zM254 1207l118 -63h534l59 71
l73 -50q36 -24 41 -43q5 -20 -25 -38q-7 -3 -13 -6l-27 -15v-125l29 -17q34 -21 30 -38t-35 -17h-690q-11 -28 -59 -28q-35 0 -35 22v347zM350 924h569v165h-569v-165zM1241 1441l115 -77h346l62 77l84 -55q40 -26 40 -49q0 -33 -83 -59q-146 -235 -220 -341
q158 -86 222 -141q133 -114 104 -287q-18 -107 -99 -155q-47 -29 -136 -49q-13 63 -54 85q-13 7 -70 24q-28 9 -57 19l3 38q41 -8 62 -12q93 -19 135 -22q112 -7 122 130q10 136 -126 246q-67 55 -168 111q132 262 183 383h-359v-1223q0 -34 -51 -31q-59 3 -55 60l4 56l3 80
l4 76v989q0 34 -11 127z" />
  </g>

</svg>
