<?xml version="1.0" standalone="no"?>
<!DOCTYPE svg PUBLIC "-//W3C//DTD SVG 1.1//EN" "http://www.w3.org/Graphics/SVG/1.1/DTD/svg11.dtd" >
<svg xmlns="http://www.w3.org/2000/svg" xmlns:xlink="http://www.w3.org/1999/xlink" version="1.1" viewBox="0 -205 1024 1024">
  <g transform="matrix(1 0 0 -1 0 819)">
   <path fill="currentColor"
d="M974 337q6 -4 6 -7t-6 -5q-12 -6 -18 -11q-9 -5 -34 -47q-27 -42 -88 -102q-60 -59 -153 -96q-94 -36 -264 -53v16q159 33 241 66q80 33 144 91q63 57 110 141h-198q-128 -112 -224 -147l-6 12q109 72 182 141q68 64 69 75q-1 2 -3 7t-3 8q-27 -15 -58 -28
q-74 -32 -196 -51v16q106 30 171 63q69 33 120 75q50 41 87 110h-206q-84 -96 -148 -130l-8 12q78 77 125 140q47 64 44 73t-11 24l8 6l70 -36q6 -4 7 -7q0 -2 -4 -4q-15 -1 -27 -7q-6 -8 -17 -22q-14 -20 -22 -29h189l21 28l44 -39q6 -4 6 -7t-6 -5q-15 -2 -23 -8
q-7 -6 -25 -38q-18 -33 -70 -82q-25 -25 -57 -45l56 -29q10 -9 1 -13q-11 0 -29 -9q-18 -19 -35 -34h176l19 27zM420 706l50 -51q7 -6 7 -9q0 -4 -7 -5q-21 5 -33 3q-4 -1 -22 -5q-34 -9 -60 -15q-10 -3 -21 -5v-149h51l32 40l68 -50q7 -5 6 -8q-1 -2 -12 -2h-145v-61
q53 -17 91 -41q43 -31 52 -58q8 -27 -1 -41q-9 -15 -23 -13q-15 1 -22 28q-9 25 -38 58q-23 22 -59 43v-246l2 -57q0 -21 -12 -30q-13 -9 -39 -14q4 37 7 147v221q-71 -161 -241 -292l-10 14q156 151 235 342h-121q-27 0 -46 -13l-34 33h217v142q-69 -10 -183 -19l-2 18
q124 19 202 39q60 15 82 23q19 6 19 29zM508 1009l84 -34q14 -5 6 -11q-20 -6 -29 -18v-166h297v123q2 15 -24 38l9 12l82 -32q14 -6 6 -13q-21 -6 -30 -20v-71l4 -77q0 -21 -13 -31q-16 -10 -34 -15v66h-622l-29 -34l-56 32q26 24 30 44v106q-2 16 -23 37l9 11l83 -30
q12 -8 3 -14q-18 -6 -30 -16v-116h296v176q2 15 -27 42zM649 259q55 -9 79 -32q21 -24 21 -46q-1 -22 -18 -28q-17 -3 -23 17q-7 22 -18 37q-12 15 -47 42zM604 558q60 -12 84 -30q23 -20 23 -41q0 -22 -17 -27q-18 -6 -24 15q-7 19 -19 34q-14 14 -53 39z" />
  </g>

</svg>
