<?xml version="1.0" standalone="no"?>
<!DOCTYPE svg PUBLIC "-//W3C//DTD SVG 1.1//EN" "http://www.w3.org/Graphics/SVG/1.1/DTD/svg11.dtd" >
<svg xmlns="http://www.w3.org/2000/svg" xmlns:xlink="http://www.w3.org/1999/xlink" version="1.1" viewBox="0 -200 1000 1000">
  <g transform="matrix(1 0 0 -1 0 800)">
   <path fill="currentColor"
d="M758 784v143l80 -34l-22 -64v-94q-14 -16 -27.5 -21t-30.5 -6v51h-512l-22 -44l-71 29l25 28v158l80 -33l-22 -69v-44h233v214l79 -34l-22 -62v-118h232zM266 425q-10 -4 -16.5 -7t-12.5 -4.5t-12.5 -2.5t-15.5 -1v264l66 -43h46q20 14 50.5 40t60.5 68l92 -36l-59 -17
q-30 -17 -59.5 -30.5t-49.5 -24.5h354l53 45l65 -45l-38 -38v-153q-9 -10 -18.5 -17.5t-35.5 -7.5h-9v17h-461v-7zM697 250q-25 -30 -60 -58t-77 -52q38 -14 83.5 -22.5t94.5 -13.5t100 -7t101 -3l2 -5q-32 -8 -70.5 -24t-70.5 -34q-36 5 -70.5 9.5t-70 13t-71.5 23
t-75 38.5q-48 -23 -98 -43.5t-103.5 -36.5t-111.5 -25t-121 -9h-22l-8 2q57 14 115 30t112 33.5t101.5 36.5t85.5 40q-34 17 -56.5 43.5t-46.5 60.5q-24 -15 -54 -32t-63 -32t-68.5 -27.5t-69.5 -18.5l-6 2q45 20 93.5 48t93 59.5t80.5 63.5t57 61l90 -45l-46 -12l-32 -21
h204l37 35l83 -39l-62 -36v-3zM512 520q-35 -15 -85.5 -31.5t-125.5 -31.5l-8 2q63 25 106.5 43.5t67.5 35.5q-27 11 -61 23.5t-82 26.5l5 2q55 -8 96.5 -17t74.5 -17l81 54h-315v-155h461v155h-143l69 -32l-55 -13l-47 -23q30 -12 52 -19t35.5 -13t20 -12.5t6.5 -17.5
q0 -8 -10 -15t-18 -7q-7 0 -15.5 3.5t-19.5 11.5zM384 259q31 -33 58 -57t61 -38q40 26 72.5 48.5t55.5 56.5h-219zM403 381l-59 -20q-38 -21 -69 -37.5t-62 -30t-64.5 -23.5t-76.5 -17l-9 4q85 38 148 75.5t111 89.5zM897 291q-5 -13 -18 -14q-1 -1 -5 -1q-13 0 -33 12.5
l-52 32.5t-80 44.5t-117 48.5l1 1q160 -22 236 -47.5t76 -55.5q0 -10 -8 -21z" />
  </g>

</svg>
