<?xml version="1.0" standalone="no"?>
<!DOCTYPE svg PUBLIC "-//W3C//DTD SVG 1.1//EN" "http://www.w3.org/Graphics/SVG/1.1/DTD/svg11.dtd" >
<svg xmlns="http://www.w3.org/2000/svg" xmlns:xlink="http://www.w3.org/1999/xlink" version="1.1" viewBox="0 -205 1024 1024">
  <g transform="matrix(1 0 0 -1 0 819)">
   <path fill="currentColor"
d="M621 977l88 -34q14 -5 6 -11q-19 -4 -29 -18v-92h124l33 42l64 -50q11 -7 8 -10q-2 -3 -19 -2h-210v-154h200l33 42l64 -50q11 -7 8 -10q-2 -3 -19 -2h-287q48 -57 83 -84q117 -95 235 -103l-1 -20q-73 9 -91 -23q-36 18 -81 44q-11 8 -23 15q-1 -5 -10 -8l-12 -7v-108
l4 -64q7 -41 -48 -44v44h-454v-98q-4 -82 72 -84q42 -5 334 -3q84 -1 124 5q50 10 56 46q7 36 8 135l16 1l8 -99q0 -40 28 -54q-26 -52 -76 -63q-28 -8 -152 -9q-313 -2 -384 4q-82 7 -78 117v289q-88 -75 -218 -131l-6 16q126 72 208 155q73 73 104 131h-220q-27 1 -45 -13
l-34 33h306v154h-129q-27 1 -45 -13l-34 33h208v102q2 17 -27 42l8 11l88 -34q14 -5 6 -11q-19 -4 -29 -18v-92h256v102q2 17 -27 42zM384 628q-33 -69 -116 -148l5 -4h451l29 26l-15 15q-45 45 -81 111h-273zM640 802h-256v-154h256v154zM500 456h-213v-166h213v166z
M542 290h199v166h-199v-166z" />
  </g>

</svg>
