<?xml version="1.0" standalone="no"?>
<!DOCTYPE svg PUBLIC "-//W3C//DTD SVG 1.1//EN" "http://www.w3.org/Graphics/SVG/1.1/DTD/svg11.dtd" >
<svg xmlns="http://www.w3.org/2000/svg" xmlns:xlink="http://www.w3.org/1999/xlink" version="1.1" viewBox="0 -205 1024 1024">
  <g transform="matrix(1 0 0 -1 0 819)">
   <path fill="currentColor"
d="M823 625v25h-605q-3 -6 -8 -10q-13 -12 -37 -16q4 38 7 92v174q-6 27 -18 41l15 12l39 -49h283v71q2 15 -25 38l8 11l80 -30q14 -5 6 -11q-18 -6 -27 -18v-61h265l35 44l48 -50q8 -6 6 -10q-2 -5 -12 -7l-18 -9v-152l4 -42q1 -21 -8 -30q-11 -10 -38 -13zM814 315v-105
q1 -60 -11 -88q-13 -27 -67 -39q-3 27 -34 38q-33 12 -91 24l2 16q113 -16 137 -15q24 3 24 48v135h-230v-242l3 -25q0 -21 -13 -31q-13 -9 -39 -15q4 39 7 119v194h-223v-127l4 -84q0 -21 -12 -31q-13 -9 -39 -15q4 31 7 129v133q-4 9 -12 21l15 13l25 -21h235v95
q2 16 -30 46l9 12l87 -36q14 -5 6 -11q-21 -9 -30 -21v-85h218l20 27l44 -33q9 -6 9 -11t-9 -8zM553 631q50 -60 86 -94q54 22 92 49q30 21 32 27q0 6 -7 15l12 8l48 -40q16 -11 4 -20q-18 4 -28 1q-44 -20 -134 -58q46 -38 83 -60q33 18 78 46q4 3 6 4q33 20 33 26
q0 2 -2 8q-1 7 -2 11l12 4l53 -45q9 -8 -4 -14q-19 9 -44 -3q-2 -1 -7 -3q-48 -25 -99 -48q39 -19 102 -37q4 -1 5 -1q28 -9 52 -13q23 -4 81 -9v-17q-48 -1 -65 -7t-26 -22q-83 24 -161 66q-116 66 -214 214zM541 768v-100h282v100h-282zM222 668h277v100h-277v-100z
M413 606q1 11 -9 25l6 9l70 -26q7 -3 7 -7q0 -5 -8 -6q-15 1 -28 -11l-12 -19q-115 -190 -375 -256l-6 14q167 60 260 149h-110l-28 -40l-50 38q25 24 27 41v65q-4 18 -15 29l6 8l71 -28q14 -7 6 -11q-17 -4 -30 -17v-67h140q44 46 78 110zM823 876h-282v-92h282v92z
M222 876v-92h277v92h-277z" />
  </g>

</svg>
