<?xml version="1.0" standalone="no"?>
<!DOCTYPE svg PUBLIC "-//W3C//DTD SVG 1.1//EN" "http://www.w3.org/Graphics/SVG/1.1/DTD/svg11.dtd" >
<svg xmlns="http://www.w3.org/2000/svg" xmlns:xlink="http://www.w3.org/1999/xlink" version="1.1" viewBox="0 0 2048 2048">
  <g transform="matrix(1 0 0 -1 0 2048)">
   <path fill="currentColor"
d="M666 531q-105 -46 -347 -138l-79 -31l-9 -40q-8 -30 -27 -30q-18 0 -34 30l-68 131q64 50 175 209q139 199 249 414q-72 -24 -163 -45q-56 -13 -131 -31l-11 -46q-5 -22 -22 -22q-18 0 -31 24l-60 121q78 76 176 315q48 118 111 335q31 104 45 186l138 -50q46 -17 29 -44
q-8 -13 -34 -16l-51 -8q-145 -469 -338 -704q190 13 363 41q14 32 99 295l129 -47q32 -12 39 -30q5 -12 -5.5 -25t-25.5 -14l-67 -6q-83 -202 -116.5 -270.5t-103.5 -179.5q-131 -208 -316 -390q228 38 477 107q-38 129 -89 232l29 22q64 -85 111 -171q74 -136 77 -194
q5 -80 -43 -99q-34 -13 -53 24q-3 7 -23 145zM1696 1819l60 71l71 -50q38 -26 43 -43q5 -20 -26 -38l-12 -6q-10 -5 -27 -15l1 -354l42 -38q15 -14 11 -27q-5 -17 -32 -17l-782 1q-3 -490 -106 -797q-82 -244 -231 -400l-29 33q120 158 184 389q84 305 84 760v380
q0 99 -10 232l124 -81h635zM1045 1356h663v405h-663v-405zM1127 902l-39 86q116 -18 192 -18h361l110 93l105 -93l22 -20q12 -14 5 -25t-27 -11h-350v-654h197l96 105l131 -102q16 -13 18 -30q3 -27 -19 -27h-752q-68 0 -149 -11l-39 86q111 -21 192 -21h231v654h-136
q-59 0 -149 -12z" />
  </g>

</svg>
