<?xml version="1.0" standalone="no"?>
<!DOCTYPE svg PUBLIC "-//W3C//DTD SVG 1.1//EN" "http://www.w3.org/Graphics/SVG/1.1/DTD/svg11.dtd" >
<svg xmlns="http://www.w3.org/2000/svg" xmlns:xlink="http://www.w3.org/1999/xlink" version="1.1" viewBox="0 0 2048 2048">
  <g transform="matrix(1 0 0 -1 0 2048)">
   <path fill="currentColor"
d="M1595 1174v-771q0 -103 13 -219q3 -28 3 -54q0 -39 -49 -42q-63 -4 -63 42v49h-689v-49q0 -44 -60 -41q-49 3 -49 42q0 26 3 54q12 105 12 209v780h-79q-117 0 -191 -8l-39 88q96 -22 230 -22h79v149q0 115 -8 160l109 -24q83 -18 86 -44q3 -27 -50 -44l-43 -12v-184h689
v135q0 117 -8 160l109 -24q83 -18 86 -44t-50 -43l-41 -14v-171h129l99 101l120 -107q21 -18 16 -33q-6 -19 -26 -19h-338zM1499 1175h-689v-430h689v430zM810 236h689v452h-689v-452zM930 1947q209 -87 216 -185q2 -42 -36 -63h604l108 113l131 -113q26 -23 22 -40
q-5 -18 -26 -18h-1612v-737q0 -265 -68 -498q-56 -190 -200 -354l-29 23q121 183 161 391q42 220 42 536l1 593q0 79 -12 187l125 -83h707q-11 20 -29 66q-33 80 -130 158z" />
  </g>

</svg>
