<?xml version="1.0" standalone="no"?>
<!DOCTYPE svg PUBLIC "-//W3C//DTD SVG 1.1//EN" "http://www.w3.org/Graphics/SVG/1.1/DTD/svg11.dtd" >
<svg xmlns="http://www.w3.org/2000/svg" xmlns:xlink="http://www.w3.org/1999/xlink" version="1.1" viewBox="0 0 2048 2048">
  <g transform="matrix(1 0 0 -1 0 2048)">
   <path fill="currentColor"
d="M583 677h-15l-28 -2q-91 -4 -113 -6l-38 88q96 -22 231 -22h293v247h-284q-70 -11 -85 -8q-25 5 -25 51v246q0 114 -8 159l109 -24q82 -18 85 -43q4 -26 -50 -44l-40 -13v-267h298v341q0 114 -8 159l109 -24q82 -18 85 -43q4 -26 -50 -44l-40 -13v-1038q0 -107 12 -219
q3 -28 3 -53q0 -39 -49 -42q-62 -4 -62 42v572h-224q-21 -222 -57 -319q-59 -159 -211 -280l-30 29q112 135 150 266q34 122 42 304zM1440 282v653h-179q-69 0 -148 -10l-39 86q123 -18 187 -18h179v356q0 114 -8 160l109 -24q83 -18 86 -44t-50 -44l-41 -13v-391h152
l98 101l121 -107q20 -18 16 -33q-6 -19 -26 -19h-361v-653h121l99 102l120 -107q21 -18 16 -34q-6 -18 -26 -18h-559q-69 0 -149 -11l-39 86q125 -18 188 -18h133zM946 1950q175 -107 197 -158q27 -66 -29 -108h558l109 113l130 -113q27 -23 22 -40q-4 -18 -26 -18h-1554
v-737q0 -252 -61 -475q-50 -183 -177 -340l-41 24q108 172 146 376q38 213 38 515v452q0 197 -11 326l126 -83h695q-10 21 -27 69q-30 80 -121 166z" />
  </g>

</svg>
