<?xml version="1.0" standalone="no"?>
<!DOCTYPE svg PUBLIC "-//W3C//DTD SVG 1.1//EN" "http://www.w3.org/Graphics/SVG/1.1/DTD/svg11.dtd" >
<svg xmlns="http://www.w3.org/2000/svg" xmlns:xlink="http://www.w3.org/1999/xlink" version="1.1" viewBox="0 -205 1024 1024">
  <g transform="matrix(1 0 0 -1 0 819)">
   <path fill="currentColor"
d="M146 887l36 -40h701l31 42l66 -50q11 -7 8 -10q-2 -3 -19 -2h-779v-174q6 -246 -24 -385q-29 -135 -132 -242l-12 12q80 118 105 240q26 125 21 369v194q-4 18 -19 33zM639 458q6 -9 -6 -11q-25 -5 -43 -20l-36 -30q-29 -25 -48 -41l13 -4q9 -4 11 -7q2 -4 -4 -7
q-18 -5 -31 -16v-34l173 37l6 -22q-107 -26 -179 -44v-158q5 -61 -69 -75q-7 31 -36 40q-28 7 -74 24l4 18l41 -11q53 -11 73 -8q21 3 19 43v116q-35 -9 -59 -15q-82 -22 -97 -32q-15 -9 -27 -23l-40 53l223 48v56q-3 21 -24 36l8 11l46 -17l77 86h-222q-19 2 -35 -12
l-33 32h293l27 32zM782 744q11 -4 3 -13q-16 -6 -27 -15v-558q0 -58 9 -66q10 -9 20 -11t22 -2h55q43 0 53 7q11 7 13 21q3 13 4 33q1 8 1 54q1 34 1 55h18q2 -42 6 -92q1 -12 1 -16q3 -26 25 -37q-19 -34 -31 -43q-10 -9 -27 -14q-16 -5 -66 -5h-18q-81 -2 -93 8
q-36 17 -35 98v575q-1 17 -22 40l8 10zM607 806l51 -53q9 -8 8 -13q0 -5 -10 -7q-24 10 -68 -4q-80 -16 -151 -25q-70 -9 -186 -15v17q210 32 279 50q54 14 60 19q12 7 8 26zM609 702l64 -34q7 -2 7 -6t-6 -9q-16 -1 -23 -5q-26 -46 -94 -142l-18 10l29 56q45 93 42 101
q-3 9 -9 22zM446 982l6 13q114 -28 134 -72q17 -49 -19 -56q-17 0 -26 26q-9 27 -26 43q-16 16 -69 46zM406 677l9 9q77 -50 80 -117q2 -35 -22 -41t-24 32q2 64 -43 117zM271 648l9 9q78 -49 86 -116q3 -31 -19 -37t-24 24q-1 31 -15 61q-12 30 -37 59z" />
  </g>

</svg>
