<?xml version="1.0" standalone="no"?>
<!DOCTYPE svg PUBLIC "-//W3C//DTD SVG 1.1//EN" "http://www.w3.org/Graphics/SVG/1.1/DTD/svg11.dtd" >
<svg xmlns="http://www.w3.org/2000/svg" xmlns:xlink="http://www.w3.org/1999/xlink" version="1.1" viewBox="0 -205 1024 1024">
  <g transform="matrix(1 0 0 -1 0 819)">
   <path fill="currentColor"
d="M303 453l35 -34h476l37 37l46 -43q7 -6 5 -10q-1 -5 -11 -7l-18 -9v-195l3 -123q0 -32 -45 -33v56h-479v-29q2 -31 -49 -40q5 38 7 142v237q2 14 -19 35zM352 108h479v293h-479v-293zM139 899l35 -39h721l27 40l64 -48q11 -6 8 -9q-2 -3 -19 -3h-792v-175
q6 -262 -23 -399q-29 -135 -133 -244l-10 10q80 123 104 244q24 123 20 383v194q-4 18 -19 33zM551 828l80 -34q14 -5 6 -11q-16 -4 -27 -18v-47h223l27 38l64 -44q11 -6 8 -9q-2 -3 -19 -3h-303v-78h179l27 32l64 -36q11 -6 8 -9q-2 -3 -19 -3h-259v-86h269l27 30l64 -36
q11 -6 8 -9q-2 -3 -19 -3h-657q-27 1 -45 -13l-34 31h345v86h-188q-27 1 -45 -13l-34 29h267v78h-236q-27 1 -45 -13l-34 31h315v57q2 17 -25 42zM465 365l32 -34h163l27 33l46 -37q7 -6 5 -10q-1 -5 -11 -7l-18 -9v-62l3 -54q0 -31 -39 -31v36h-165v-5q2 -34 -43 -42
q5 35 7 75v98q2 12 -19 33zM508 205h165v110h-165v-110zM451 990l6 13q112 -27 132 -72q18 -50 -17 -56q-17 0 -26 26q-9 27 -26 44q-16 17 -69 45z" />
  </g>

</svg>
