<?xml version="1.0" standalone="no"?>
<!DOCTYPE svg PUBLIC "-//W3C//DTD SVG 1.1//EN" "http://www.w3.org/Graphics/SVG/1.1/DTD/svg11.dtd" >
<svg xmlns="http://www.w3.org/2000/svg" xmlns:xlink="http://www.w3.org/1999/xlink" version="1.1" viewBox="0 -205 1024 1024">
  <g transform="matrix(1 0 0 -1 0 819)">
   <path fill="currentColor"
d="M634 561q6 -5 4 -9q-3 -4 -12 -4q-18 0 -29 -12q-22 -28 -49 -53q44 -34 69 -64q29 -37 45 -67q44 20 109 52q14 7 21 10q53 24 56 35q3 9 -2 20l13 6l60 -56q3 -6 0 -9q-4 -2 -13 -1l-21 2q-78 -30 -149 -56q23 -44 51 -82q34 -48 70 -75q37 -27 61 -38q24 -9 80 -18
v-19q-38 0 -53 -2t-31 -20q-40 24 -85 59q-36 30 -71 87q-31 47 -45 100q-11 -4 -35 -11q-5 -1 -8 -2q15 -36 18 -110q2 -74 -31 -133q-34 -59 -126 -77q-6 24 -27 37q-21 14 -85 41l6 18q50 -20 90 -29t67 5q27 15 43 46q16 29 19 70q2 41 -3 71q-1 2 -2 6q-1 2 -1 3
q-39 -44 -91 -77q-63 -39 -129 -69q-69 -32 -180 -56l-4 18q56 17 146 58q81 41 136 78q53 36 108 101q-9 21 -29 54q-46 -43 -99 -75q-57 -35 -117 -56t-121 -35l-4 16q43 13 100 40q57 26 111 62q51 35 102 86q-16 19 -37 40q-33 -29 -72 -53q-88 -55 -185 -78l-9 13
q85 33 166 88q56 39 101 88q30 34 32 45q2 7 -9 20l6 8zM326 672l13 -14q63 69 90 106q39 51 37 57q-3 6 -9 15l8 8l69 -37q4 -10 -11 -12q-12 -1 -27 -15q-6 -9 -18 -24q-3 -4 -5 -6h219l27 32l56 -51q2 -6 -1 -8q-2 -2 -9 -1q-21 -2 -30 -8q-11 -6 -38 -32l-3 -3
q-19 -18 -49 -44h142l33 34l46 -42q7 -6 5 -10q-1 -5 -11 -7l-18 -9v-63l3 -35q-1 -18 -12 -25q-12 -8 -33 -8v145h-427v-129q0 -21 -11 -30q-12 -9 -38 -14q3 20 6 60q1 7 1 10v95q-42 -30 -90 -54l-10 14q54 39 93 77q-4 6 -12 14zM145 911l35 -40h711l28 41l64 -49
q11 -6 8 -9t-19 -3h-783v-175q6 -264 -23 -413q-30 -148 -118 -250l-10 10q64 116 88 250q24 126 21 397v194q-4 18 -20 34zM456 730q-63 -73 -90 -95h242q42 45 81 95h-233zM466 1011q60 -15 92 -33q30 -18 40 -38q9 -21 5 -39q-6 -19 -22 -19q-17 0 -26 28q-9 25 -25 43
q-18 17 -70 45z" />
  </g>

</svg>
