<?xml version="1.0" standalone="no"?>
<!DOCTYPE svg PUBLIC "-//W3C//DTD SVG 1.1//EN" "http://www.w3.org/Graphics/SVG/1.1/DTD/svg11.dtd" >
<svg xmlns="http://www.w3.org/2000/svg" xmlns:xlink="http://www.w3.org/1999/xlink" version="1.1" viewBox="0 -200 1000 1000">
  <g transform="matrix(1 0 0 -1 0 800)">
   <path fill="currentColor"
d="M372 352q-30 -27 -61 -55.5t-67 -47.5l-7 10q34 34 64.5 71t56 73.5t46 71.5t35.5 65h-69l-62 -14l-22 36h187v91h-90l-55 -13l-18 36h163v133l75 -30l-19 -57v-46h158v133l72 -27l-16 -51v-55h45l50 42l68 -65h-163v-91h83l49 48l77 -70h-460l34 -27l-29 -17l-41 -41
h321l30 47l69 -46l-26 -41v-359q-1 -18 -19 -32.5t-56 -18.5q0 26 -26.5 39t-68.5 23v16q29 -8 49 -13t35 -5q29 0 29 15q0 1 -0.5 2t-0.5 2v115h-157v-163q-10 -9 -23.5 -16t-30.5 -7v186h-154v-171q-7 -10 -23 -15.5t-32 -9.5v349zM635 223h157v91h-157v-91zM427 314v-91
h154v91h-154zM529 562h158v91h-158v-91zM635 338h157v91h-149l-8 -8v-83zM435 429l-8 -8v-83h154v91h-146zM264 746l-9 -296q-8 -93 -18.5 -162.5t-30.5 -123t-52.5 -95t-84.5 -78.5l-5 12q44 44 69.5 101t39 123t18 138.5t6.5 147.5l7 326h-1l-57 -12l-19 34h411v44l-13 87
l92 -32l-21 -65v-34h220l53 48l78 -70h-700l41 -30z" />
  </g>

</svg>
