<?xml version="1.0" standalone="no"?>
<!DOCTYPE svg PUBLIC "-//W3C//DTD SVG 1.1//EN" "http://www.w3.org/Graphics/SVG/1.1/DTD/svg11.dtd" >
<svg xmlns="http://www.w3.org/2000/svg" xmlns:xlink="http://www.w3.org/1999/xlink" version="1.1" viewBox="0 0 2048 2048">
  <g transform="matrix(1 0 0 -1 0 2048)">
   <path fill="currentColor"
d="M1550 791q37 -153 138 -321q119 -195 306 -292l-3 -37q-59 3 -88 -14q-24 -14 -48 -48q-42 36 -117 133q-155 198 -214 428q-80 -401 -407 -593l-22 32q200 175 278 371q58 144 77 335q19 192 13 295q-2 26 -8 80l148 -27q41 -7 46 -27q6 -23 -31 -38l-49 -19
q-8 -175 -19 -258zM774 1112q-82 -137 -127 -191q-65 -77 -131 -133l98 -52l305 -2l68 76l83 -54q40 -26 40 -49q0 -31 -80 -60l1 -395l54 -33q22 -13 22 -34q0 -19 -18 -19h-475v-65q0 -29 -43 -29q-61 0 -61 52l10 161v365q0 20 -8 134q-59 -48 -151 -107l-22 35
q285 240 386 583l145 -51q37 -13 34 -34q-4 -28 -43 -31l-50 -4l-14 -25q32 -16 109 -54q80 -40 179 -118q73 -57 83 -125q7 -49 -30 -62q-31 -10 -63 22q-7 7 -43 63q-65 102 -229 215zM614 222h325v454h-325v-454zM1387 1294l387 -1l68 79l103 -83q24 -20 22 -38
q-2 -22 -34 -30l-64 -16q-49 -71 -108 -165q-32 -49 -63 -92l-39 18q65 142 115 271h-401q-45 -194 -160 -367l-33 18q117 259 129 664l160 -29q33 -7 33 -33q0 -19 -25 -28l-61 -20q-20 -107 -29 -148zM654 1585l117 -54q37 -17 36 -38q-2 -25 -48 -28l-48 -4
q-40 -68 -151 -196q-71 -83 -165 -154l-30 33q177 187 289 441zM870 1551q115 -75 150 -100q83 -60 109 -113q27 -53 -2 -97q-12 -18 -35 -20q-31 -2 -48 39q-36 84 -67 129q-34 49 -128 129zM1007 1961q139 -90 159 -152q16 -51 -36 -91h566l96 114l134 -103q31 -23 26 -45
q-4 -23 -34 -23h-1590v-536q0 -435 -80 -727q-53 -194 -164 -336l-27 27q174 325 174 1055v350q0 107 -11 296l116 -72h752q-12 24 -24 76q-15 63 -84 137z" />
  </g>

</svg>
