<?xml version="1.0" standalone="no"?>
<!DOCTYPE svg PUBLIC "-//W3C//DTD SVG 1.1//EN" "http://www.w3.org/Graphics/SVG/1.1/DTD/svg11.dtd" >
<svg xmlns="http://www.w3.org/2000/svg" xmlns:xlink="http://www.w3.org/1999/xlink" version="1.1" viewBox="0 -205 1024 1024">
  <g transform="matrix(1 0 0 -1 0 819)">
   <path fill="currentColor"
d="M692 789l64 -24q13 -5 5 -13q-10 -3 -25 -13q-16 -54 -33 -99h203l24 30l56 -38q8 -5 7 -8q-2 -2 -13 -2h-132v-158h46l24 36l56 -42q8 -5 7 -8q-2 -2 -13 -2h-120v-158h50l24 36l56 -42q8 -5 7 -8q-2 -2 -13 -2h-124v-153h64l22 30l58 -38q8 -5 7 -8q-2 -2 -13 -2h-284
l2 -33q4 -37 -45 -44q5 37 7 134v397q-37 -70 -80 -112l-11 9q65 111 94 202q4 14 12 38q17 54 19 64q2 11 -14 22zM431 413q4 -4 3 -7q0 -3 -5 -4q-13 -3 -20 -13q-2 -5 -7 -16q-4 -10 -7 -16h139l24 27l40 -25q9 -6 9 -11q0 -4 -9 -8l-16 -13v-190q2 -30 -11 -58t-63 -38
q2 23 -67 39q-20 5 -31 8l4 16q80 -15 106 -13t26 52v198h-158q-24 -55 -50 -111l119 4q-11 23 -34 51l9 10q76 -54 78 -111q0 -28 -19 -30q-18 -3 -19 23q-1 18 -7 36q-21 -2 -53 -5q-23 -2 -30 -3q-50 1 -71 -27l-33 45q27 5 41 27q6 15 19 50q8 23 13 35q1 1 1 3q1 2 1 3
h-98v-196l4 -61q3 -38 -47 -46q5 39 7 118v200q-6 16 -14 23l15 11l31 -33h108q4 11 10 27l4 12q4 13 -1 22q-3 5 -4 8l5 7zM126 892l30 -38h717l36 38l68 -48q8 -5 7 -8q-2 -2 -13 -2h-807v-178q5 -262 -24 -396q-28 -131 -114 -233l-10 10q68 109 92 230q24 123 20 383
v196q-4 18 -19 33zM242 596q-1 20 -17 31l7 11l57 -20q8 -2 9 -6q1 -5 -6 -10q-4 0 -16 -10v-133h247v130q2 16 -16 28l7 10l61 -18q14 -5 6 -11q-15 -6 -24 -13v-63l4 -73q2 -33 -38 -42v36h-238l-27 -28l-38 38q18 12 22 32v111zM812 448h-110v-158h110v158zM812 622h-110
v-158h110v158zM812 274h-110v-153h110v153zM435 653l48 -26q9 -9 -1 -13q-10 -1 -23 -7q-2 -2 -5 -6q-8 -10 -20 -24q29 -22 39 -45q13 -28 -4 -36q-17 -7 -28 18q-9 20 -30 39q-52 -51 -105 -77l-6 12q47 37 89 83q-30 21 -66 40l7 13q38 -8 78 -31q23 26 24 34q1 10 -5 19
zM184 692h350l24 32l56 -38q8 -5 7 -8q-2 -2 -13 -2h-345q-27 1 -45 -13zM454 981l4 15q94 -25 112 -67q17 -45 -16 -54q-14 -1 -23 25q-9 27 -25 44q-15 17 -52 37zM771 811q86 -45 86 -112q-2 -28 -23 -31q-20 -1 -20 24q1 58 -52 109zM330 805l4 13q73 -18 89 -57
q20 -41 -14 -47q-15 -1 -20 22t-19 38t-40 31z" />
  </g>

</svg>
