<?xml version="1.0" standalone="no"?>
<!DOCTYPE svg PUBLIC "-//W3C//DTD SVG 1.1//EN" "http://www.w3.org/Graphics/SVG/1.1/DTD/svg11.dtd" >
<svg xmlns="http://www.w3.org/2000/svg" xmlns:xlink="http://www.w3.org/1999/xlink" version="1.1" viewBox="0 0 2048 2048">
  <g transform="matrix(1 0 0 -1 0 2048)">
   <path fill="currentColor"
d="M1692 726v1056q0 118 -8 160l109 -24q83 -18 86 -44q3 -29 -50 -43l-41 -12v-1093h2l80 81l114 -86q21 -16 16 -34q-6 -18 -26 -18h-186v-539q0 -59 -70 -53q-44 4 -42 49q1 18 4 46q12 107 12 209v288h-270q-27 -10 -51 -11q-47 -3 -47 33v905q0 120 -7 160l109 -24
q82 -18 85 -44q4 -29 -49 -43l-42 -12v-907h272zM1072 1798h-190q-73 0 -153 -11l-39 86q124 -18 194 -18h169l61 72l73 -50q36 -25 41 -43q5 -20 -25 -38q-6 -3 -13 -6l-27 -15v-476q0 -126 -141 -158q-10 64 -37 85q-19 14 -105 37l8 41q26 -3 76 -9q24 -4 49 -6
q59 -5 59 51v458zM736 1714q242 -21 242 -103q0 -40 -36 -42q-20 -2 -52 29q-48 46 -161 83zM153 1714q242 -22 242 -103q0 -40 -37 -42q-19 -2 -51 29q-48 46 -161 83zM409 1516l18 -26q-11 -11 -208 -163l-2 -23q-2 -23 -15 -34q-10 -8 -21 -2q-11 7 -23 27l-54 92
q183 54 305 129zM758 958l99 -69q27 -19 25 -39q-2 -27 -34 -22l-57 8q-134 -106 -277 -167q-122 -52 -300 -101l-18 41q191 66 288 122q148 86 274 227zM1002 1535l19 -25q-9 -8 -209 -164l-2 -23q-2 -23 -15 -34q-10 -8 -21 -2q-11 7 -23 27l-54 92q185 55 305 129z
M494 1796h-220q-73 0 -153 -11l-39 86q124 -18 194 -18h200l61 72l72 -49q37 -26 41 -44q5 -20 -25 -37q-6 -4 -13 -7q-9 -4 -26 -14v-481q0 -126 -142 -157q-9 64 -37 84q-19 14 -105 37l8 42q95 -13 125 -16q59 -5 59 52v461zM934 780l78 -78q30 -30 25 -47
q-5 -15 -30 -13l-51 4q-242 -150 -422 -217q-123 -46 -291 -92l-14 44q442 141 705 399zM762 1117q177 -66 315 -143q197 -110 171 -202q-8 -25 -37 -27q-35 -3 -88 59q-141 161 -401 288q-147 -147 -283 -223q-102 -58 -316 -123l-13 44q128 39 273 133q201 132 293 306
l125 -51q36 -14 29 -38q-3 -15 -26 -18zM1113 601l90 -86q33 -30 25 -48q-9 -19 -42 -12l-47 11q-215 -149 -466 -246q-153 -59 -475 -131l-9 44q630 161 924 468z" />
  </g>

</svg>
