<?xml version="1.0" standalone="no"?>
<!DOCTYPE svg PUBLIC "-//W3C//DTD SVG 1.1//EN" "http://www.w3.org/Graphics/SVG/1.1/DTD/svg11.dtd" >
<svg xmlns="http://www.w3.org/2000/svg" xmlns:xlink="http://www.w3.org/1999/xlink" version="1.1" viewBox="0 0 2048 2048">
  <g transform="matrix(1 0 0 -1 0 2048)">
   <path fill="currentColor"
d="M1191 995q112 -105 166 -170q76 -90 76 -178q0 -68 -56 -68q-41 0 -52 62q-32 176 -163 328zM1205 1660q120 -113 166 -170q82 -101 77 -178q-2 -24 -20 -42q-20 -20 -42 -16q-34 7 -45 46q-4 13 -15 72q-21 105 -149 261zM1739 1084q-2 -43 -5 -110q-15 -291 -40 -502
h56l93 90l107 -86q26 -21 26 -36q0 -24 -26 -24h-265q-29 -181 -95 -253q-67 -73 -205 -95q2 73 -58 99q-24 10 -171 53l9 40q190 -47 266 -51q77 -4 112 66q21 43 42 141h-715q-27 -12 -50 -12q-42 0 -42 23q0 3 3 22l11 69q39 235 77 531l5 35q-61 -2 -128 -11l-40 86
q100 -14 174 -18l3 22q37 343 71 707l118 -70h581l73 86l85 -57q47 -31 47 -49q0 -30 -88 -74q-9 -189 -23 -462l-5 -103h32l80 81l114 -86q21 -16 15 -33q-5 -19 -26 -19h-218zM1648 1141q5 89 21 474l4 129h-631q-26 -240 -53 -466l-16 -137h675zM1645 1084h-679l-12 -110
q-27 -224 -66 -502h707q25 191 46 557zM224 1565l43 -4q1 -206 -20 -315q-15 -73 -48 -121q-35 -52 -79 -58q-21 -3 -38 11q-18 15 -18 36q0 31 19 53l37 43q55 64 80 167q13 50 24 188zM478 1578q252 -161 252 -306q0 -40 -23 -59q-19 -16 -43 -12q-34 6 -46 53
q-30 121 -64 174q-26 41 -76 92v-1166q0 -106 12 -209q3 -29 3 -54q0 -40 -49 -42q-62 -3 -62 42v1688q0 112 -6 159l105 -24q82 -19 85 -44q3 -29 -49 -44l-39 -11v-237z" />
  </g>

</svg>
