<?xml version="1.0" standalone="no"?>
<!DOCTYPE svg PUBLIC "-//W3C//DTD SVG 1.1//EN" "http://www.w3.org/Graphics/SVG/1.1/DTD/svg11.dtd" >
<svg xmlns="http://www.w3.org/2000/svg" xmlns:xlink="http://www.w3.org/1999/xlink" version="1.1" viewBox="0 -200 1000 1000">
  <g transform="matrix(1 0 0 -1 0 800)">
   <path fill="currentColor"
d="M754 726q-6 -85 -16 -163t-24.5 -155.5t-32.5 -157.5t-40 -168h-330l35 -43l55 18h565l-67 69l-41 -44h-200q13 35 31 81t38.5 109t41.5 146t40 192l33 49zM449 694q14 -61 28.5 -123t26.5 -126.5t20.5 -132t9.5 -138.5q0 -15 3.5 -30.5t9 -28t12.5 -20.5t14 -8
q15 0 27 25t12 60q0 25 -4.5 55.5t-11 62t-15.5 62.5t-18 58q-8 25 -20 60.5t-27 75t-32.5 80.5t-36.5 77zM821 802h-166v42l21 65l-94 38l17 -102v-43h-248l27 -38l55 15h505l-69 74zM135 750v-31q0 -57 -5.5 -96t-13.5 -60q-8 -20 -27 -34t-37 -14q-16 0 -26 13
q-6 7 -6 15q0 13 11 29t29 35q23 24 39.5 59.5t23.5 83.5h12zM235 27q-8 -9 -19.5 -15.5t-36.5 -11.5l1 1000l75 -32l-20 -66v-126q67 -23 103 -53.5t36 -64.5v-4q-5 -44 -30 -44q-11 0 -21.5 10.5t-15.5 33.5q-6 27 -24 56t-48 52v-735z" />
  </g>

</svg>
