<?xml version="1.0" standalone="no"?>
<!DOCTYPE svg PUBLIC "-//W3C//DTD SVG 1.1//EN" "http://www.w3.org/Graphics/SVG/1.1/DTD/svg11.dtd" >
<svg xmlns="http://www.w3.org/2000/svg" xmlns:xlink="http://www.w3.org/1999/xlink" version="1.1" viewBox="0 0 2048 2048">
  <g transform="matrix(1 0 0 -1 0 2048)">
   <path fill="currentColor"
d="M1238 940v274h-297q-102 0 -170 -11l-39 86q153 -21 201 -21h305v346h-211q-67 0 -148 -11l-39 86q121 -17 187 -17h211v103q0 115 -8 160l119 -26q72 -15 75 -41q4 -30 -49 -44l-43 -11v-141h266l61 71l73 -50q42 -29 44 -45q2 -21 -68 -56l1 -323h7l80 81l114 -86
q21 -16 16 -34q-6 -18 -26 -18l-568 2v-274l282 -1l72 67l87 -61q45 -33 42 -55q-4 -25 -97 -52q-24 -32 -131 -188q-80 -116 -209 -228q223 -154 609 -226l-9 -43q-63 2 -87 -12q-19 -10 -49 -49q-199 70 -317 132q-105 55 -220 140q-158 -112 -348 -191q-170 -70 -290 -96
l-11 34q328 117 580 311q-114 103 -201 238q-42 65 -129 220q-38 -3 -76 -8l-39 86q124 -18 187 -18h260zM1304 479q90 83 163 173q60 74 154 231h-662q78 -124 156 -220q70 -88 189 -184zM1332 1268h283v346h-283v-346zM451 1594q278 -155 267 -285q-3 -25 -25 -43
q-18 -14 -39 -11q-34 4 -49 61q-32 128 -154 230v-1196q0 -106 12 -209q3 -29 3 -54q0 -40 -48 -42q-62 -3 -62 42v1687q0 113 -7 159l102 -24q85 -20 88 -43q4 -29 -49 -44l-39 -11v-217zM228 1542l43 -4q0 -215 -19 -310q-36 -172 -128 -184q-21 -3 -38 11q-18 15 -18 36
q0 30 19 53l37 42q55 64 80 167q13 51 24 189z" />
  </g>

</svg>
