<?xml version="1.0" standalone="no"?>
<!DOCTYPE svg PUBLIC "-//W3C//DTD SVG 1.1//EN" "http://www.w3.org/Graphics/SVG/1.1/DTD/svg11.dtd" >
<svg xmlns="http://www.w3.org/2000/svg" xmlns:xlink="http://www.w3.org/1999/xlink" version="1.1" viewBox="0 0 2048 2048">
  <g transform="matrix(1 0 0 -1 0 2048)">
   <path fill="currentColor"
d="M449 1592q247 -163 247 -296q0 -79 -52 -79q-47 0 -62 83q-23 131 -133 237v-1175q0 -105 12 -209q3 -28 3 -54q0 -39 -49 -42q-62 -3 -62 42v1687q0 117 -6 160l109 -24q83 -18 85 -44q4 -30 -49 -43l-43 -11v-232zM213 1596l40 -4q1 -193 -13 -296q-25 -182 -122 -197
q-25 -4 -42 11q-18 16 -15 42t46 84q66 89 87 194q11 55 19 166zM1512 1033q37 50 63 85q65 88 104 144h-333q-118 0 -192 -8l-38 88q101 -24 230 -24h343l80 74l107 -104q23 -22 19 -38q-5 -20 -42 -23l-64 -4q-19 -18 -115 -109q-31 -29 -102 -94q17 -4 25 -6
q49 -12 51 -35q4 -30 -49 -44l-43 -11v-143h204l98 101l121 -106q20 -18 16 -34q-6 -19 -26 -19h-413l-2 -481q-1 -142 -155 -171q-11 70 -47 93q-32 21 -159 43l8 46q141 -23 189 -26q68 -6 68 56v440h-222q-117 0 -192 -8l-38 89q95 -23 230 -23h222v105q0 116 -8 160z
M1149 1586q-68 -203 -205 -427l33 -8q60 -14 65 -40q4 -24 -47 -43l-29 -11v-702q0 -102 12 -209q3 -28 4 -45q2 -50 -54 -50q-61 0 -61 54l1 956q-152 -171 -254 -254l-23 25q343 374 456 754h-112q-119 0 -191 -8l-39 88q100 -23 230 -23h129q23 86 55 311l161 -58
q34 -13 31 -32q-4 -21 -42 -25l-54 -7q-17 -66 -45 -176l-3 -13h559l98 102l121 -107q20 -18 15 -34q-6 -18 -25 -18h-786z" />
  </g>

</svg>
