<?xml version="1.0" standalone="no"?>
<!DOCTYPE svg PUBLIC "-//W3C//DTD SVG 1.1//EN" "http://www.w3.org/Graphics/SVG/1.1/DTD/svg11.dtd" >
<svg xmlns="http://www.w3.org/2000/svg" xmlns:xlink="http://www.w3.org/1999/xlink" version="1.1" viewBox="0 0 2048 2048">
  <g transform="matrix(1 0 0 -1 0 2048)">
   <path fill="currentColor"
d="M1344 1318l111 -28q65 -17 69 -36q4 -28 -50 -44l-38 -11v-229q0 -38 20 -48q21 -12 60 -12l170 -1q58 0 76 19q17 17 25 62l23 139l38 -7l-8 -111q-3 -49 35 -78q36 -28 36 -43q0 -50 -81 -63q-60 -10 -197 -8q-71 1 -106 0q-106 -3 -140 15q-51 28 -51 105v222
q0 81 -7 126q-143 -322 -556 -500l-17 38q391 205 500 540l-266 1q-24 -18 -47 -21q-46 -7 -54 17q-1 3 12 68l64 331l-28 -4l-33 -4l-41 87q100 -22 234 -22h512l98 101l121 -107q20 -18 15 -33q-6 -19 -26 -19l-382 1q-16 -150 -57 -339l313 -1l99 102l121 -107
q20 -18 15 -33q-6 -19 -26 -19l-539 1zM1330 1760h-268l-65 -339h279q46 174 54 339zM570 1776l68 76l84 -54q40 -26 40 -49q0 -29 -79 -61l-1 -537l62 -50q6 -4 8 -6q11 -18 -6 -34q-4 -4 -10 -4h-451v-87q-1 -31 -30 -40q-55 -18 -69 23q-6 19 0 105l4 75l4 76l-1 521
q-2 63 -11 123l117 -77h271zM285 1115h305v607h-305v-607zM334 618l41 -6q-13 -187 -59 -279q-33 -65 -86 -98q-53 -32 -94 -24q-28 6 -34 34q-8 42 68 87q86 51 124 137q17 38 40 149zM1650 606q34 -22 50 -33q232 -151 245 -279q7 -74 -48 -79q-48 -3 -69 70
q-44 153 -205 290zM881 754q119 -38 208 -93q107 -66 120 -130q6 -32 -11 -56q-14 -19 -40 -19q-37 0 -76 66q-62 107 -217 195zM1504 519l33 -4l-5 -163q-2 -58 16 -80q4 -5 37 -34q16 -14 17 -29q5 -75 -311 -75l-70 1q-77 1 -316 0q-223 -1 -268 18q-59 26 -59 115v262
q-4 144 -7 160l109 -25q83 -18 85 -43q4 -30 -49 -44l-42 -11v-245q0 -54 9 -67q16 -23 81 -25q23 -1 258 -4h128q224 0 269 13q33 10 47 46q10 28 18 96q3 28 20 138z" />
  </g>

</svg>
