<?xml version="1.0" standalone="no"?>
<!DOCTYPE svg PUBLIC "-//W3C//DTD SVG 1.1//EN" "http://www.w3.org/Graphics/SVG/1.1/DTD/svg11.dtd" >
<svg xmlns="http://www.w3.org/2000/svg" xmlns:xlink="http://www.w3.org/1999/xlink" version="1.1" viewBox="0 -205 1024 1024">
  <g transform="matrix(1 0 0 -1 0 819)">
   <path fill="currentColor"
d="M444 968l39 -42h354l35 41l52 -49q7 -6 5 -10q-1 -5 -11 -7l-18 -9v-290l4 -80q7 -40 -50 -44v46h-361v-5q2 -37 -53 -46q5 39 7 113v328q-4 24 -18 42zM844 418l61 -52q9 -9 9 -14t-9 -6q-27 6 -44 0q-1 -1 -4 -2l-45 -15t-126 -37q-82 -22 -198 -39v-55q-6 -85 75 -85
q41 -5 97 -4q168 -1 208 5q51 7 56 38q8 48 12 123h15l2 -74q1 -51 29 -65q-19 -53 -73 -59q-28 -8 -237 -6q-76 -2 -140 8q-94 13 -90 117v208q-2 24 -23 38l7 12l94 -34q4 -3 3 -5q0 -2 -4 -4q-16 -4 -31 -17v-118q93 20 184 48q104 33 130 45q26 13 31 20q6 8 3 26z
M174 996l91 -36q14 -5 6 -11q-21 -7 -30 -21v-762l2 -95q2 -36 -55 -46q5 39 7 187v726q2 16 -30 46zM854 660h-361v-116h361v116zM854 784h-361v-106h361v106zM493 802h361v104h-361v-104zM126 736q18 -156 -29 -199q-25 -25 -46 -9q-21 17 4 42t38 58q14 33 18 108h15z
M260 776l4 14q83 -34 110 -89q25 -59 -15 -68q-17 -1 -25 31t-28 61q-19 30 -46 51z" />
  </g>

</svg>
