<?xml version="1.0" standalone="no"?>
<!DOCTYPE svg PUBLIC "-//W3C//DTD SVG 1.1//EN" "http://www.w3.org/Graphics/SVG/1.1/DTD/svg11.dtd" >
<svg xmlns="http://www.w3.org/2000/svg" xmlns:xlink="http://www.w3.org/1999/xlink" version="1.1" viewBox="0 -205 1024 1024">
  <g transform="matrix(1 0 0 -1 0 819)">
   <path fill="currentColor"
d="M429 994l87 -36q9 -5 9 -7q0 -1 -15 -11q-15 -11 -18 -14v-183h30l32 40l68 -50q6 -5 6 -7q0 -3 -12 -3h-124v-113q8 -7 22 -19q85 -69 80 -112q-1 -32 -24 -34h-4q-20 2 -20 31q-2 48 -54 103l2 -493q3 -37 -51 -46q0 7 2 27q5 84 5 162v343q-44 -159 -176 -308l-12 12
q129 173 180 447h-62q-22 0 -39 -13l-34 33h143v195q0 15 -30 44zM158 1000l87 -36q9 -5 9 -7q0 -1 -15 -11q-15 -11 -18 -14v-154q102 -52 105 -119q-2 -29 -25 -32h-1q-16 0 -21 32q-8 46 -58 95l2 -684q3 -37 -51 -46q0 7 2 27q5 84 5 162v731q0 15 -30 44zM835 534
q5 -5 5 -8t-5 -5h-5q-17 0 -28 -10q-68 -206 -158 -357l261 10q-24 68 -89 140l10 14q119 -95 137 -196q0 -37 -22 -37q-26 1 -27 33v3q0 12 -3 26q-153 -13 -176 -16q-94 -2 -114 -38l-44 57q32 7 49 35q6 11 11 18q22 11 127 333q-9 21 -18 27l6 12zM848 948q11 -3 11 -8
q0 -2 -8 -7q-18 -12 -18 -22v-2q11 -112 55 -189q55 -110 123 -141v-12q-30 2 -44 3q-14 0 -28 -17q-115 136 -142 404l4 6zM782 865q1 -2 1 -4q0 -1 -6 -3q-23 -8 -31 -22q-42 -174 -136 -320l-14 4q113 269 109 344q0 6 -10 22q-4 7 -6 11l8 6zM111 739q4 -48 4 -84
q-5 -124 -62 -130q-22 3 -25 21q0 11 15 24q47 30 53 169h15z" />
  </g>

</svg>
