<?xml version="1.0" standalone="no"?>
<!DOCTYPE svg PUBLIC "-//W3C//DTD SVG 1.1//EN" "http://www.w3.org/Graphics/SVG/1.1/DTD/svg11.dtd" >
<svg xmlns="http://www.w3.org/2000/svg" xmlns:xlink="http://www.w3.org/1999/xlink" version="1.1" viewBox="0 -200 1002 1000">
  <g transform="matrix(1 0 0 -1 0 800)">
   <path fill="currentColor"
d="M393 773l-25 38h228v191l73 -34l-20 -59v-98h122l42 38l66 -62h-230v-274l12 -29q27 51 47.5 111t31.5 123l70 -48l-30 -23q-11 -15 -19.5 -35t-16.5 -44q24 -17 45 -31t37 -28t25 -29t9 -33q0 -23 -8 -35t-18 -12q-11 0 -21.5 13t-15.5 39q-3 15 -7 27t-11 23.5t-17 24
t-26 30.5q-14 -30 -32.5 -56t-30.5 -37q22 -47 53.5 -95.5t70 -90.5t82 -73.5t89.5 -43.5h-2q-22 0 -51 -11.5t-59 -28.5q-63 60 -115.5 147.5t-91.5 193.5v-427q-10 -24 -53 -30v387q-27 -48 -54.5 -90.5t-60.5 -79.5t-75 -67.5t-99 -55.5v10q43 30 88.5 80t85.5 110
t70.5 125t44.5 126v237h-149zM516 666l-39 -89q15 -8 29.5 -20.5t26 -27.5t19 -31t7.5 -31q0 -12 -6 -24q-12 -14 -21 -14q-8 0 -14 9t-11 32q-3 13 -7.5 28t-9 28.5t-9.5 24t-9 14.5q-8 -23 -19 -46.5t-23 -45.5t-25 -40.5t-25 -31.5l-8 12q23 57 50.5 136t49.5 179l64 -49
zM158 751v-31q0 -57 -5.5 -96t-13.5 -60q-8 -20 -27 -34t-37 -14q-16 0 -26 13q-6 7 -6 15q0 13 11 29t29 35q23 24 39.5 59.5t23.5 83.5h12zM258 28q-8 -9 -19 -15.5t-36 -11.5v1000l75 -32l-20 -66v-126q67 -23 103 -53.5t36 -64.5v-4q-5 -44 -30 -44q-11 0 -21.5 10.5
t-15.5 33.5q-6 27 -24 56t-48 52v-735z" />
  </g>

</svg>
