<?xml version="1.0" standalone="no"?>
<!DOCTYPE svg PUBLIC "-//W3C//DTD SVG 1.1//EN" "http://www.w3.org/Graphics/SVG/1.1/DTD/svg11.dtd" >
<svg xmlns="http://www.w3.org/2000/svg" xmlns:xlink="http://www.w3.org/1999/xlink" version="1.1" viewBox="0 0 2048 2048">
  <g transform="matrix(1 0 0 -1 0 2048)">
   <path fill="currentColor"
d="M569 1060l88 -61q46 -31 43 -49q-3 -27 -54 -23l-45 4q-23 -25 -82 -78q-116 -107 -204 -159q-79 -47 -156 -79l-17 33q17 11 26 17q257 170 383 395h-145v-24q0 -60 -70 -53q-45 4 -43 49q1 18 4 46q12 105 12 209v521q-4 70 -10 128l114 -81h614l68 76l83 -54
q41 -27 41 -49q0 -27 -78 -62v-467q0 -107 13 -219q3 -29 3 -54q0 -39 -49 -42q-63 -4 -63 42v34h-476zM1045 1797h-639v-190h639v190zM406 1116h639v188h-639v-188zM406 1360h639v189h-639v-189zM1711 706q-11 69 -47 92q-33 21 -160 44l8 46q145 -23 191 -27q68 -6 68 57
v889q0 109 -7 160l109 -24q82 -18 86 -44q3 -27 -50 -43l-42 -14v-966q0 -142 -156 -170zM1366 1837l109 -24q82 -18 86 -43q3 -26 -51 -44l-40 -13v-360q0 -106 12 -219q3 -29 3 -54q0 -38 -49 -42q-62 -4 -62 42v597q0 118 -8 160zM866 1034q29 -14 110 -48
q182 -100 207 -123q56 -53 56 -99q0 -23 -16.5 -39t-37.5 -12q-29 4 -60 50q-80 117 -278 241zM1636 617q310 -193 321 -325q3 -36 -17 -64q-13 -18 -33 -20q-52 -6 -75 74q-34 114 -109 199q-35 40 -114 107zM1518 499l33 -3l-5 -164q-2 -58 16 -80q4 -5 37 -34
q16 -14 17 -28q3 -49 -109 -64q-96 -14 -352 -12q-142 1 -229 1q-225 0 -268 18q-59 26 -59 115l1 277q0 116 -8 160l109 -24q83 -18 86 -44q3 -29 -50 -43l-42 -11v-261q0 -64 21 -77q31 -19 204 -17q70 1 244 -2q202 -2 259 10q46 11 60 60q18 59 35 223zM962 687
q31 -14 47 -21q133 -58 194 -103q93 -67 93 -146q0 -21 -13 -39q-16 -23 -42 -23q-43 0 -75 72q-49 111 -225 226zM341 605l40 -7q-14 -172 -45 -259q-26 -73 -79 -122q-46 -44 -95 -49q-65 -7 -68 48q-1 27 16 43q13 12 52 35q90 52 134 147q26 55 45 164z" />
  </g>

</svg>
