<?xml version="1.0" standalone="no"?>
<!DOCTYPE svg PUBLIC "-//W3C//DTD SVG 1.1//EN" "http://www.w3.org/Graphics/SVG/1.1/DTD/svg11.dtd" >
<svg xmlns="http://www.w3.org/2000/svg" xmlns:xlink="http://www.w3.org/1999/xlink" version="1.1" viewBox="0 0 2048 2048">
  <g transform="matrix(1 0 0 -1 0 2048)">
   <path fill="currentColor"
d="M1316 989q-115 1 -205 -11l-39 86q117 -17 249 -17l56 675h-12q-54 2 -148 -11l-40 86q126 -18 188 -18h294l68 76l84 -53q40 -26 40 -49q0 -28 -78 -62l-31 -645h26l80 80l114 -86q21 -15 16 -33q-6 -19 -26 -19l-212 1l-35 -745h15l80 80l114 -85q21 -16 15 -34
q-5 -19 -25 -19h-634q-69 0 -149 -11l-39 86q27 -4 41 -6q33 -4 98 -9l19 -3h15zM1408 989l-63 -746h264l36 746h-237zM1413 1047l235 -1l33 674l-211 1zM327 767l105 -25q82 -18 86 -43q3 -25 -51 -44l-37 -13v-330q0 -56 41 -68q43 -11 186 -11q97 0 126 19q27 18 38 87
l26 164l42 -8l-11 -160q-3 -41 23 -66q2 -2 34 -25q14 -9 15 -22q9 -81 -266 -81q-217 0 -270 16q-47 13 -64 46q-15 27 -15 87v317q0 114 -8 160zM220 664h37v-81q0 -301 -119 -322q-25 -4 -44 6q-26 14 -26 44t38 58q105 80 114 295zM519 858q244 -152 225 -262
q-9 -55 -53 -50q-36 4 -51 64q-28 110 -144 222zM869 691q227 -151 210 -259q-7 -45 -45 -47q-43 -2 -63 77q-24 99 -125 207zM166 1716l-39 85q122 -18 188 -18h581l80 81l114 -86q21 -16 15 -33q-5 -19 -25 -19h-419q-41 -103 -133 -219h391l68 77l84 -55q40 -26 40 -48
q0 -29 -79 -61v-443q0 -70 -36 -99q-32 -25 -106 -38q0 59 -27 81q-21 18 -70 31l8 42q33 -2 49 -6q31 -8 43 -9q44 -4 44 60v415h-155v-197q0 -80 6 -140q5 -43 4 -68q-2 -39 -55 -42t-53 32l2 415h-143v-250q0 -79 7 -140q4 -43 3 -68q-2 -38 -51 -42q-52 -4 -52 32v468
h-149v-542q0 -21 -18 -31q-22 -13 -51 -9q-38 6 -35 53l4 55q8 134 8 142l-1 450l120 -65h142q35 72 77 219h-232q-56 0 -149 -10z" />
  </g>

</svg>
