<?xml version="1.0" standalone="no"?>
<!DOCTYPE svg PUBLIC "-//W3C//DTD SVG 1.1//EN" "http://www.w3.org/Graphics/SVG/1.1/DTD/svg11.dtd" >
<svg xmlns="http://www.w3.org/2000/svg" xmlns:xlink="http://www.w3.org/1999/xlink" version="1.1" viewBox="0 0 2048 2048">
  <g transform="matrix(1 0 0 -1 0 2048)">
   <path fill="currentColor"
d="M1575 1053q249 -251 265 -321q6 -29 -14 -52q-12 -13 -32 -16q-40 -5 -72 47q-65 104 -201 267q-134 -162 -377 -302l-19 38q215 160 336 338q-15 20 -23 30q-29 37 -92 105q-76 84 -105 117l30 24q151 -127 233 -205q44 84 67 150q34 99 56 277h-327q-87 -205 -210 -356
l-34 30q186 319 243 706l100 -35q47 -16 62 -23q22 -12 19 -33q-2 -17 -36 -21l-56 -9q-46 -153 -68 -202l357 1l98 101l121 -107q20 -18 15 -33q-5 -19 -26 -19h-152q-38 -305 -158 -497zM668 1426h210l80 81l114 -86q21 -16 16 -33q-6 -19 -26 -19h-290v-585
q0 -122 -143 -143q1 61 -38 85q-28 18 -96 32l7 42q89 -20 130 -20q44 0 44 61v528l-132 -1q-14 -236 -60 -360q-73 -195 -267 -348l-24 31q154 176 208 359q26 89 45 318l-114 1q-65 0 -148 -11l-39 86q123 -18 187 -18h243v224h-136q-69 0 -148 -10l-39 86
q123 -18 187 -18h136v55q0 118 -8 159l101 -24q70 -16 74 -43t-51 -43l-23 -6v-98h115l80 80l114 -86q21 -15 15 -33q-5 -19 -25 -19h-299v-224zM238 1251l131 -41q28 -8 28 -28t-21 -25l-57 -16q-88 -180 -181 -300l-33 16q92 196 133 394zM832 1231q250 -174 239 -290
q-3 -24 -18.5 -42t-32.5 -17q-34 2 -51 69q-21 80 -67 148q-13 19 -91 106zM535 582l109 -24q82 -18 85 -44q4 -29 -49 -43l-41 -12v-162q0 -61 39 -77q79 -34 476 -29q117 2 178 19q42 12 57 43q10 22 18 68l34 185l39 -7v-178q0 -39 21 -59q6 -5 41 -24q14 -7 19 -21
q25 -61 -158 -90q-139 -22 -376 -22q-305 0 -398 35q-86 32 -86 127v156q0 111 -8 159zM915 663q290 -130 282 -243q-5 -60 -53 -54q-28 4 -58 64q-54 108 -195 203zM1609 572q143 -90 210 -153q100 -93 94 -175q-4 -53 -48 -53q-36 0 -61 62q-60 153 -220 288zM287 515
l42 -4q-15 -336 -151 -357q-26 -4 -44.5 10.5t-18.5 38.5q0 28 45 61q64 48 90 105q24 54 37 146z" />
  </g>

</svg>
