<?xml version="1.0" standalone="no"?>
<!DOCTYPE svg PUBLIC "-//W3C//DTD SVG 1.1//EN" "http://www.w3.org/Graphics/SVG/1.1/DTD/svg11.dtd" >
<svg xmlns="http://www.w3.org/2000/svg" xmlns:xlink="http://www.w3.org/1999/xlink" version="1.1" viewBox="0 0 2048 2048">
  <g transform="matrix(1 0 0 -1 0 2048)">
   <path fill="currentColor"
d="M504 1431q70 -50 126 -98q84 -73 79 -132q-5 -51 -44 -47q-28 3 -55 61q-33 70 -106 150v-282q0 -106 11 -210q3 -28 3 -53q0 -39 -49 -42q-60 -4 -60 49l-1 538q-112 -215 -285 -354l-29 30q196 240 285 502h-47q-106 -5 -149 -11l-39 86q119 -18 188 -18h76v149
q0 117 -8 160l109 -25q83 -18 85 -43q4 -30 -49 -44l-41 -11v-186h70l80 84l114 -88q21 -16 16 -33q-6 -20 -35 -20h-245v-112zM1563 1580v150q0 114 -8 159l109 -24q82 -18 85 -43q4 -30 -49 -44l-41 -11v-187h97l80 83l114 -86q21 -16 15 -34q-5 -19 -26 -19h-280v-159
q283 -184 295 -326q5 -67 -46 -70q-31 -2 -51 37q-4 6 -30 69q-54 127 -168 232v-232q0 -105 12 -210q3 -28 3 -53q0 -39 -49 -42q-63 -4 -63 42l1 532q-98 -146 -214 -261q-70 -70 -214 -173l-23 32q281 244 433 581l-50 1q-67 0 -149 -11l-39 87q122 -20 188 -20h68z
M1637 651q303 -186 317 -338q2 -26 -11 -48q-13 -21 -35 -22q-31 -1 -52 38q-3 6 -30 69q-62 148 -214 271zM546 694l108 -24q83 -18 86 -44q4 -28 -49 -43l-42 -11v-234q0 -76 45 -94q34 -14 126 -14h387q172 0 211 49q22 27 45 192l8 54l42 -3l-4 -61q-6 -89 -6 -103
q0 -50 59 -80q28 -14 23 -37q-20 -96 -384 -96h-355q-151 0 -218 26q-75 30 -75 139v224q0 115 -7 160zM357 641l36 -5q-16 -151 -52 -244q-33 -87 -82 -131q-47 -43 -88 -43q-51 0 -51 48q0 33 62 74q87 56 130 146q25 50 45 155zM942 764q174 -104 229 -184q34 -50 30 -96
q-6 -53 -49 -53q-39 0 -67 79q-41 112 -167 224zM1009 1162q-17 -3 -26 0q-24 5 -39 57q-27 92 -105 199q-51 -73 -97 -119l-28 26q85 116 130 276t44 310l92 -18q65 -12 73 -30q9 -17 -11 -32q-13 -10 -33 -14l-29 -5q-13 -64 -30 -132h191l61 73l72 -49q37 -26 41 -44
q5 -20 -25 -37q-6 -4 -13 -7q-11 -5 -34 -17q-75 -328 -163 -472q-123 -202 -364 -341l-24 36q211 152 317 340zM859 1453l31 -31q77 -74 105 -108q33 -42 44 -91q72 182 108 403h-214q-34 -98 -74 -173z" />
  </g>

</svg>
