<?xml version="1.0" standalone="no"?>
<!DOCTYPE svg PUBLIC "-//W3C//DTD SVG 1.1//EN" "http://www.w3.org/Graphics/SVG/1.1/DTD/svg11.dtd" >
<svg xmlns="http://www.w3.org/2000/svg" xmlns:xlink="http://www.w3.org/1999/xlink" version="1.1" viewBox="0 -205 1024 1024">
  <g transform="matrix(1 0 0 -1 0 819)">
   <path fill="currentColor"
d="M750 953l68 -42q9 -13 -1 -17q-19 1 -36 -4q-46 -45 -91 -82h177l32 40l68 -50q8 -5 7 -8q-2 -2 -13 -2h-350l48 -42q20 -15 66 -37q47 -21 90 -33q44 -12 79 -17q36 -4 88 -4v-14q-55 -4 -74 -34q-144 30 -249 101q-36 27 -82 80h-28v-71l3 -57q2 -34 -52 -44
q5 37 7 100v72h-37q-52 -58 -117 -94q-32 -18 -67 -33l45 -25q15 -9 5 -15q-20 1 -31 -7q-13 -19 -27 -37h158l27 25l40 -36q7 -5 7 -9q0 -3 -7 -5q-24 -4 -42 -42q-18 -37 -68 -93q-107 -116 -316 -159l-4 14q269 77 365 285h-176q-17 -21 -35 -40q34 -15 50 -37
q34 -57 -4 -75q-18 -5 -18 16t-10 44q-9 19 -30 40q-58 -61 -122 -99l-8 12q72 61 130 140q58 80 56 87q-1 4 -4 8q-33 -13 -70 -24q-86 -25 -163 -30l-3 14q74 15 135 34q62 19 135 58q65 36 111 83h-246q-27 1 -45 -13l-34 33h420v122q2 16 -30 46l9 12l87 -36
q14 -5 6 -11q-21 -7 -30 -21v-112h111q23 26 51 60q33 41 36 51q3 12 -5 27zM701 653l79 -28q14 -7 6 -13q-23 -7 -26 -21v-28h94l26 34l64 -44q8 -5 7 -8q-2 -2 -13 -2h-178v-121h118l27 37l68 -44q10 -7 8 -10q-1 -4 -14 -3h-207v-46l2 -49q6 -38 -51 -44q5 38 7 96v43
h-144l-22 -27l-40 38q17 8 24 22l18 50q-1 17 -9 24l7 6l56 -27q5 -4 5 -7t-5 -5q-15 -1 -22 -12l-13 -42h145v121h-115q-27 1 -45 -13l-28 33h188v38q2 16 -26 40zM374 248q4 -3 3 -5q0 -2 -4 -4q-17 -2 -35 -17v-74q1 -55 17 -65q17 -11 45 -12q28 -3 100 -4q128 1 172 7
q50 4 54 40q0 3 1 9q6 55 9 98l15 -4l2 -61q3 -49 29 -58q-17 -36 -31 -43q-13 -7 -42 -14t-193 -8q-92 1 -127 4q-91 1 -93 87v107q-3 23 -30 46l8 10zM810 259l6 14q108 -56 135 -118q28 -64 -9 -74q-20 -3 -28 29q-7 31 -31 71q-24 41 -73 78zM183 250q7 -134 -57 -180
q-31 -22 -47 -1t13 40t48 47q19 30 26 94h17zM427 343l4 12q101 -32 136 -90q31 -60 -7 -75q-19 -4 -26 25q-7 30 -35 67t-72 61zM239 930l4 11q101 -18 133 -67q25 -43 -11 -51q-15 -2 -21 16q-5 19 -31 44q-25 26 -74 47z" />
  </g>

</svg>
