<?xml version="1.0" standalone="no"?>
<!DOCTYPE svg PUBLIC "-//W3C//DTD SVG 1.1//EN" "http://www.w3.org/Graphics/SVG/1.1/DTD/svg11.dtd" >
<svg xmlns="http://www.w3.org/2000/svg" xmlns:xlink="http://www.w3.org/1999/xlink" version="1.1" viewBox="0 -205 1024 1024">
  <g transform="matrix(1 0 0 -1 0 819)">
   <path fill="currentColor"
d="M748 739q2 -4 1 -6t-6 -2q-16 1 -31 -17q-19 -46 -39 -85v-6h214l30 38l66 -46q8 -6 7 -9q-2 -3 -13 -3h-156v-138h62l28 36l64 -44q7 -5 5 -8q-1 -2 -11 -2h-148v-142h64l32 38l58 -44q8 -6 7 -9q-2 -3 -13 -3h-148v-153h86l30 36l66 -44q8 -6 7 -9q-2 -3 -13 -3h-324
l2 -38q2 -35 -49 -44q5 37 7 112v420q-33 -45 -77 -84l-10 10q71 98 113 203q21 51 17 56q-1 1 -2 4q-6 9 -11 16l11 5zM590 446q5 -6 4 -9t-8 -4q-13 -2 -24 -11q-18 -62 -53 -140q-34 -78 -105 -150q-70 -74 -136 -101l-6 16q50 30 111 100q63 68 93 138q20 47 33 78
l-95 -11q-46 -4 -59 -7t-31 -19l-26 56q20 0 38 6q47 54 115 156l-47 -4q-42 -4 -55 -11t-23 -15l-32 52q20 2 40 8q60 83 110 178q15 19 2 34l10 8l57 -35q5 -4 5 -7q0 -4 -5 -6q-15 4 -29 -8q-79 -115 -127 -177l107 4q6 9 18 28q16 24 24 37q9 15 -4 26l10 8l61 -41
q5 -4 5 -7q0 -4 -5 -6q-19 2 -31 -4q-117 -160 -177 -231l151 8q2 6 3 11q13 40 8 52q-4 12 -17 25l8 8zM136 993l87 -36q14 -5 6 -11q-21 -7 -30 -21v-129l1 3q80 -36 106 -90q14 -30 8 -48q-8 -22 -25 -18q-14 4 -21 31q-8 33 -28 61q-17 26 -41 46v-618l2 -95
q2 -36 -51 -46q5 39 7 187v726q2 16 -30 46zM783 287h-110v-153h110v153zM783 447h-110v-142h110v142zM303 841h584l32 40l68 -50q8 -5 7 -8q-2 -2 -13 -2h-599q-27 1 -45 -13zM783 603h-110v-138h110v138zM100 753q18 -154 -29 -198q-25 -27 -45 -10t5 42t37 58t17 108h15z
M536 987l4 13q78 -22 112 -66q37 -56 -7 -71q-17 -1 -23 24q-6 26 -25 49q-19 24 -61 51zM747 800l6 10q85 -53 87 -122q0 -30 -22 -34t-22 28q1 68 -49 118z" />
  </g>

</svg>
