<?xml version="1.0" standalone="no"?>
<!DOCTYPE svg PUBLIC "-//W3C//DTD SVG 1.1//EN" "http://www.w3.org/Graphics/SVG/1.1/DTD/svg11.dtd" >
<svg xmlns="http://www.w3.org/2000/svg" xmlns:xlink="http://www.w3.org/1999/xlink" version="1.1" viewBox="0 0 2048 2048">
  <g transform="matrix(1 0 0 -1 0 2048)">
   <path fill="currentColor"
d="M1080 1594q-53 -62 -108 -110q-67 -59 -231 -153l-17 30q149 110 214 183q67 74 121 170h-103q-64 0 -148 -11l-40 86q117 -19 188 -19h130q27 59 67 191l119 -30q55 -14 55 -36q0 -23 -51 -36l-39 -10q-19 -45 -39 -79h532l80 86l114 -90q21 -16 16 -33q-6 -19 -26 -19
h-749q-41 -65 -69 -101q107 -14 160 -14h383l80 83l114 -86q20 -16 15 -34q-5 -19 -25 -19h-353v-142h286l85 82l117 -85q21 -16 16 -34q-6 -19 -26 -19h-834q-63 0 -149 -11l-39 86q116 -19 188 -19h255v142h-113q-67 0 -148 -11zM1063 995q-44 -52 -102 -105
q-70 -63 -239 -161l-17 30q144 104 213 182q70 78 121 171h-102q-69 0 -149 -11l-39 86q123 -19 188 -19l132 1q17 38 55 161l100 -24l54 -11q24 -8 26 -27q3 -27 -57 -40l-42 -10l-28 -50h534l80 86l114 -89q21 -17 16 -34q-6 -19 -26 -19h-749q-34 -55 -64 -94
q102 -13 155 -13h383l80 83l114 -87q20 -15 15 -34t-25 -19h-353v-156h286l85 82l117 -86q21 -15 15 -33q-5 -20 -25 -20h-834q-63 0 -149 -10l-39 86q116 -19 188 -19h255v156h-113q-68 0 -148 -11zM695 528v-208q0 -61 16 -74q23 -19 155 -22q59 -1 242 0h112
q101 -1 136 13q40 16 55 83q4 15 23 176l8 58l32 -8l-6 -234q3 -26 14 -39q4 -4 37 -32q18 -16 21 -33q11 -65 -268 -72q-342 -8 -523 2q-86 5 -117 33q-34 30 -34 95v254q0 75 -5 138l129 -36q61 -16 64 -38q3 -23 -39 -38zM1608 581q173 -104 239 -168q115 -109 115 -199
q0 -55 -40 -65q-41 -10 -69 35q-6 8 -33 82q-51 135 -237 282zM345 582h43q-3 -159 -12 -214q-22 -131 -101 -201q-61 -54 -125 -58q-61 -3 -61 53q0 30 22 46q11 8 74 44q142 82 160 330zM973 686q42 -26 122 -73q172 -99 149 -205q-4 -21 -23 -32.5t-35 -3.5t-54 84
q-46 91 -179 200zM313 1830v-1122q0 -40 -4 -47q-9 -13 -36 -13q-65 0 -60 56q1 15 3 57q1 32 3 67q4 51 4 71v937q-4 73 -10 136l115 -86h250l64 70l80 -62q56 -43 46 -63q-8 -17 -40 -28l-62 -23q-66 -135 -170 -312q100 -73 147 -120q95 -95 81 -208q-20 -163 -200 -211
q-7 55 -39 78q-27 20 -115 51l10 33q99 -33 146 -33q52 0 83 37q41 49 31 121q-11 72 -87 142q-42 39 -122 103q96 218 143 369h-261z" />
  </g>

</svg>
