<?xml version="1.0" standalone="no"?>
<!DOCTYPE svg PUBLIC "-//W3C//DTD SVG 1.1//EN" "http://www.w3.org/Graphics/SVG/1.1/DTD/svg11.dtd" >
<svg xmlns="http://www.w3.org/2000/svg" xmlns:xlink="http://www.w3.org/1999/xlink" version="1.1" viewBox="0 0 2048 2048">
  <g transform="matrix(1 0 0 -1 0 2048)">
   <path fill="currentColor"
d="M1360 1266v-152h204l80 88l114 -93q17 -13 14 -29q-4 -20 -25 -20h-387v-154h204l80 85l114 -90q19 -15 13 -32q-5 -19 -24 -19h-387v-150h387l69 80l93 -65q38 -26 38 -43q0 -26 -85 -57q-45 -264 -81 -359q-69 -185 -278 -208q-4 45 -12 58q-16 29 -164 86l9 39
q34 -10 88 -23q89 -22 128 -22q69 0 101 39q68 85 110 417l-862 -1q-32 -12 -58 -12q-40 0 -40 25v735l118 -65h719l80 81l114 -86q21 -16 15 -34q-5 -19 -25 -19h-464zM899 1060v-154h365v154h-365zM899 1114h365v152h-365v-152zM1264 700v150h-365v-150h365zM1729 1490
h-858v-17q0 -37 -48 -37q-58 0 -55 65q7 121 7 132v112q0 74 -10 156l118 -69h830l68 76l80 -54q40 -28 40 -48q0 -28 -78 -61v-112q0 -58 8 -138q5 -55 -64 -58q-38 -2 -38 25v28zM1507 1775v-229h222v229h-222zM1411 1775h-226v-229h226v229zM1091 1775h-220v-229h220v229
zM1445 593q202 -137 188 -230q-7 -47 -50 -49q-38 -2 -49 51q-23 112 -109 204zM784 519l38 -1q6 -404 -124 -417q-29 -4 -49 16q-17 18 -13 40q4 27 53 75q58 59 76 140q9 41 19 147zM1198 540q201 -137 188 -230q-7 -47 -49 -49q-39 -2 -50 51q-20 99 -110 204zM994 505
q113 -163 118 -236q3 -50 -26 -74q-24 -20 -46 -12q-29 10 -29 42q0 13 1 26q1 11 1 54q0 78 -47 182zM212 1588l43 -4q4 -474 -147 -494q-21 -3 -38 11q-18 14 -18 36q0 30 19 53l37 42q55 64 80 167q13 50 24 189zM458 1593q252 -161 252 -305q0 -70 -57 -75
q-41 -3 -54 56q-27 118 -68 181q-21 32 -73 85v-1170q0 -104 12 -209q3 -28 3 -54q0 -39 -48 -41q-62 -4 -62 41v1672q0 113 -7 160l105 -24q83 -19 86 -44q3 -28 -50 -43l-39 -11v-219z" />
  </g>

</svg>
