<?xml version="1.0" standalone="no"?>
<!DOCTYPE svg PUBLIC "-//W3C//DTD SVG 1.1//EN" "http://www.w3.org/Graphics/SVG/1.1/DTD/svg11.dtd" >
<svg xmlns="http://www.w3.org/2000/svg" xmlns:xlink="http://www.w3.org/1999/xlink" version="1.1" viewBox="0 0 2048 2048">
  <g transform="matrix(1 0 0 -1 0 2048)">
   <path fill="currentColor"
d="M1056 653l34 144h-134q-87 0 -159 -11l-30 76q86 -16 222 -16h113l33 139h-208q-172 -3 -194 -7l-38 83q94 -24 232 -24l685 2l78 98l127 -98q25 -19 12 -43q-6 -11 -19 -11l-578 1l-35 -140h348l67 80l72 -50q42 -28 43 -48q1 -21 -60 -52v-123h57l94 98l130 -100
q12 -10 16 -22q3 -10 -5 -20t-19 -10h-1128q-25 0 -194 -8l-38 88q93 -26 232 -26h244zM1149 653h424v143l-388 1zM1231 1554h-452q-9 -84 -26 -121q-42 -88 -104 -69q-34 10 -34 44q0 29 57 68q59 40 68 213h34l5 -79h452v153h-289q-103 0 -192 -9l-39 88q94 -22 231 -22
h734l98 102l121 -107q20 -18 15 -34q-5 -18 -25 -18h-557v-153h478l59 66l82 -57q44 -30 46 -49q2 -22 -31 -31q-32 -7 -67 -17q-48 -64 -93 -119l-36 24q21 59 40 127h-478v-114q0 -106 11 -209q3 -28 3 -54q0 -39 -49 -42q-62 -4 -62 42v377zM209 1588l40 -4
q1 -192 -13 -295q-25 -183 -122 -198q-25 -3 -42 12q-18 15 -15 41t46 84q66 90 87 195q11 54 19 165zM1658 453l66 70l76 -49q41 -26 41 -45q0 -12 -20 -25q-45 -27 -54 -34v-173l59 -41q14 -10 11 -27q-3 -20 -20 -20h-917v-26q0 -27 -44 -31q-65 -5 -61 51q10 121 10 125
l-2 159q0 15 -5 95q-1 12 -2 38l132 -67h730zM900 163h775v238h-775v-238zM853 1499q116 -7 187 -23q102 -23 102 -80q0 -38 -39 -38q-20 0 -87 46q-49 33 -170 61zM1645 1418q-33 -12 -109 -45q-8 -3 -71 -22q-17 -6 -52 -17l-16 34q131 70 224 165l86 -65q17 -13 23 -26
q5 -13 -4 -23q-12 -12 -32 -10q-8 1 -49 9zM1418 1318q208 -21 272 -42q98 -32 79 -100q-6 -20 -24 -27q-24 -9 -75 28q-89 66 -256 103zM440 1519q88 -59 142 -120q80 -92 80 -156q0 -77 -52 -79q-48 -3 -62 83q-21 121 -108 211v-1103q0 -100 13 -210q3 -27 3 -53
q0 -40 -49 -42q-62 -3 -62 42v1687q0 113 -6 159l109 -24q82 -18 85 -43q4 -27 -49 -44l-44 -14v-294zM1146 1332l8 -35q-128 -56 -281 -107l-10 -35q-3 -12 -11 -19q-16 -14 -30 -2q-9 7 -18 30l-45 103q38 6 191 29q34 5 196 36z" />
  </g>

</svg>
