<?xml version="1.0" standalone="no"?>
<!DOCTYPE svg PUBLIC "-//W3C//DTD SVG 1.1//EN" "http://www.w3.org/Graphics/SVG/1.1/DTD/svg11.dtd" >
<svg xmlns="http://www.w3.org/2000/svg" xmlns:xlink="http://www.w3.org/1999/xlink" version="1.1" viewBox="0 -200 1000 1000">
  <g transform="matrix(1 0 0 -1 0 800)">
   <path fill="currentColor"
d="M779 401l33 39l61 -41l-29 -32v-217q-7 -8 -24 -14t-27 -6q-2 0 -3 0.5t-3 0.5v34h-148v-69q0 -14 13.5 -20t35.5 -6h180q10 1 15.5 9t8.5 24t4 40.5t3 59.5h9q-1 -1 -1 -11q0 -7 1 -13t1 -12v-3q0 -45 9 -62.5t19.5 -23.5t19.5 -8t9 -16q0 -5 -8.5 -9t-21 -7.5
t-26.5 -5.5t-24 -2h-228q-39 0 -56 12.5t-17 40.5v82h-145v-26q-7 -10 -26.5 -15.5t-31.5 -7.5v313l64 -28h333zM229 27q-8 -9 -18 -15.5t-33 -11.5v1000l70 -32l-19 -66v-126q63 -23 97 -53t34 -65v-4q-5 -44 -28 -44q-24 0 -35 44q-6 27 -22.5 56t-45.5 52v-735zM800 969
l-25 -17q-12 -17 -21 -30.5t-20 -27.5h85l43 38l68 -59h-181q26 -16 41 -27t22.5 -20t9 -17.5t1.5 -18.5q0 -13 -10.5 -19t-18.5 -8h-2q-6 0 -10.5 11t-10.5 27.5t-16 36.5t-27 37q-20 -25 -51 -60t-75 -57l53 -15l-16 -48v-31h90l51 44l76 -65h-155l78 -34
q-14 -6 -28.5 -20t-29 -32t-28 -38t-23.5 -38h88l54 44l74 -65h-460l-64 -8l-24 29h304q18 39 30.5 76.5t23.5 85.5h-250l-58 -8l-18 29h215v32l-11 71l16 -5q25 20 48 52.5t42 67.5t32 68t17 54zM537 971l-26 -20q-8 -12 -16.5 -24.5t-16.5 -31.5h70l48 40l61 -62h-171
q26 -21 39 -32t18.5 -19t6.5 -16.5t3 -23.5q-3 -14 -15.5 -20t-17.5 -6q-13 0 -15 9t-3 24.5t-6 37.5t-25 49h-7q-29 -49 -63.5 -91t-85.5 -64l-5 2q31 34 56 71t44.5 74t32.5 72t19 64zM639 290h148v89h-148v-89zM440 369v-79h145v89h-133zM639 185h148v84h-148v-84z
M440 185h145v84h-145v-84zM134 750v-33q0 -57 -5 -95t-13 -59t-25 -34.5t-34 -13.5t-26 13q-5 8 -5 15q0 14 10 29t28 35q22 24 37.5 59.5t21.5 83.5h11zM514 486q-10 2 -13.5 14.5t-7.5 32.5t-12 46t-26 55l6 2q48 -30 74.5 -63t26.5 -59q0 -5 -5 -10t-11.5 -9.5t-14 -7
t-12.5 -2.5q-4 0 -5 1z" />
  </g>

</svg>
