<?xml version="1.0" standalone="no"?>
<!DOCTYPE svg PUBLIC "-//W3C//DTD SVG 1.1//EN" "http://www.w3.org/Graphics/SVG/1.1/DTD/svg11.dtd" >
<svg xmlns="http://www.w3.org/2000/svg" xmlns:xlink="http://www.w3.org/1999/xlink" version="1.1" viewBox="0 0 2048 2048">
  <g transform="matrix(1 0 0 -1 0 2048)">
   <path fill="currentColor"
d="M425 1971q177 -99 177 -171q0 -32 -35 -58h206l80 89l103 -77q23 -18 27 -29q6 -14 -9 -29q-5 -5 -15 -5h-216l62 -24q57 -22 63 -38q10 -24 -38 -32l-36 -5q-85 -133 -131 -186h144l88 90l120 -90q11 -8 14 -22q7 -35 -22 -35h-685q-106 0 -194 -8l-38 89
q90 -24 232 -24h65q-35 166 -118 285q-20 1 -45 1q-28 0 -88 -9l-42 82q97 -23 158 -23h269q-3 9 -4 14q-43 118 -119 188zM444 1406h163q85 168 112 285h-397q33 -41 81 -95q59 -65 63 -122q2 -31 -22 -68zM756 1219l56 71l72 -50q42 -28 43 -47q1 -21 -65 -55v-255
q0 -47 6 -104q3 -26 3 -44q0 -41 -57 -49q-48 -6 -48 25v30h-446v-38q0 -27 -44 -30q-66 -6 -61 50l4 42l2 33q1 19 2 42q2 28 2 29v412l113 -62h418zM320 1009h446v156h-446v-156zM320 797h446v158h-446v-158zM339 545l40 -6q-12 -155 -41 -230q-26 -66 -76 -108
q-43 -39 -90 -44q-28 -2 -48 12t-20 37q0 25 15 37q13 11 50 31q86 45 128 128q26 51 42 143zM1488 506l33 -3l-5 -164q-2 -58 16 -80q4 -5 37 -34q16 -13 17 -28q4 -49 -109 -64q-96 -14 -352 -12q-134 1 -211 1q-225 0 -268 19q-59 25 -59 114v232q-4 143 -7 159l109 -24
q82 -18 85 -43q4 -30 -49 -44l-42 -11v-215q0 -54 9 -66q14 -20 55 -24q74 -5 387 -5q214 0 259 9q46 10 61 60q18 61 34 223zM939 648q24 -11 37 -17q108 -49 155 -86q75 -57 75 -122q0 -19 -12 -36q-15 -21 -39 -21q-35 0 -59 60q-38 94 -178 190zM1652 536
q261 -164 272 -282q3 -37 -17 -65q-13 -18 -33 -20q-44 -5 -63 66q-26 98 -91 176q-29 35 -94 95zM1217 1725q-72 -1 -146 -11l-39 86q123 -17 188 -17h246q-17 11 -22 32q-14 62 -76 127l18 22q137 -65 140 -125q2 -34 -28 -56h194l81 80l114 -86q20 -16 15 -33
q-6 -19 -26 -19h-216l82 -34q33 -14 31 -34q-2 -18 -34 -21q-22 -2 -35 -5q-56 -78 -101 -126h135l80 81l114 -86q21 -16 15 -34q-5 -18 -25 -18h-756q-68 0 -149 -11l-39 86q124 -18 188 -18h127q-12 15 -18 50q-13 71 -74 155zM1333 1505h216q58 92 90 220h-404
q41 -32 63 -52q68 -63 63 -117q-2 -30 -28 -51zM1400 948h-195v-16q0 -29 -45 -31q-62 -3 -56 44l4 33l1 31l3 49v242l-8 91l110 -61h469l61 71l73 -49q36 -25 41 -44q5 -20 -25 -37q-6 -4 -13 -7q-9 -4 -26 -14v-204q3 -68 3 -72q4 -35 4 -41q0 -39 -53 -44q-45 -4 -48 27
l-2 32h-201v-139h226l88 90l120 -90q12 -8 14 -21q7 -35 -22 -35h-426q-1 -67 7 -137q8 -64 -62 -64q-42 0 -42 32v169h-221q-116 0 -194 -9l-38 90q91 -25 232 -25h221v139zM1698 1108h-493v-104h493v104zM1698 1162v111h-493v-111h493z" />
  </g>

</svg>
