<?xml version="1.0" standalone="no"?>
<!DOCTYPE svg PUBLIC "-//W3C//DTD SVG 1.1//EN" "http://www.w3.org/Graphics/SVG/1.1/DTD/svg11.dtd" >
<svg xmlns="http://www.w3.org/2000/svg" xmlns:xlink="http://www.w3.org/1999/xlink" version="1.1" viewBox="0 0 2048 2048">
  <g transform="matrix(1 0 0 -1 0 2048)">
   <path fill="currentColor"
d="M1394 665q173 240 256 453l113 -60q52 -27 48 -56q-4 -27 -56 -27h-48q-148 -257 -273 -400q56 -104 134 -183q115 -117 196 -132q40 -8 54 49l69 279l31 -13l-38 -293q-2 -19 0 -40q4 -45 31 -79q18 -23 19 -37q4 -44 -50 -41q-102 5 -233 97q-176 125 -281 317
q-239 -246 -540 -373l-21 42q307 164 522 412q-115 251 -132 645h-279v-417l21 -16q31 -24 30 -42q-1 -15 -23 -15h-562q-74 0 -149 -12l-39 82q114 -17 188 -17h441v437h-484q-117 0 -192 -8l-38 88q96 -22 230 -22h484v356h-449q-68 0 -149 -11l-39 86q126 -18 188 -18
h429l68 76l83 -54q41 -27 41 -49q0 -28 -79 -61v-325h279q-4 76 -6 122q-8 216 -11 276l-4 91q-2 43 -2 73q0 57 -5 84l90 -20q87 -19 92 -42q7 -28 -45 -48l-28 -10q-1 -72 -1 -99q0 -168 14 -427h406l108 114l131 -114q27 -24 22 -40q-6 -18 -26 -18h-641
q19 -321 105 -560zM1473 1796q289 -104 307 -218q4 -26 -10 -47.5t-36 -23.5q-36 -2 -72 61q-45 77 -109 129q-25 22 -101 65z" />
  </g>

</svg>
