<?xml version="1.0" standalone="no"?>
<!DOCTYPE svg PUBLIC "-//W3C//DTD SVG 1.1//EN" "http://www.w3.org/Graphics/SVG/1.1/DTD/svg11.dtd" >
<svg xmlns="http://www.w3.org/2000/svg" xmlns:xlink="http://www.w3.org/1999/xlink" version="1.1" viewBox="0 -205 1024 1024">
  <g transform="matrix(1 0 0 -1 0 819)">
   <path fill="currentColor"
d="M51 548l39 -50h90v428q2 17 -25 42l8 11l80 -34q14 -5 6 -11q-16 -4 -27 -18v-163h82l32 40l68 -48q8 -6 7 -9q-2 -3 -13 -3h-176v-235h72l35 41l48 -49q7 -6 5 -10q-1 -5 -11 -7l-18 -9v-314l4 -23q7 -41 -46 -44v78h-215v-69q3 -47 -49 -54q5 46 7 99v357q-4 24 -18 42
zM536 552l83 -29q9 -5 10 -8t-6 -5q-18 -4 -24 -12q-5 -6 7 -69q3 -16 7 -31l233 45l30 43l60 -37q11 -5 9 -9q-3 -4 -19 -5l-307 -58q10 -32 25 -59q26 -48 57 -84l10 -11q24 17 46 35q80 66 89 78q10 12 -2 28l9 8l59 -46q7 -5 6 -8q0 -4 -8 -5q-15 -1 -34 -10
q-67 -61 -137 -108q14 -12 27 -23q69 -52 134 -70q29 -8 35 15q7 27 14 113h17q-3 -61 -4 -79q-1 -23 0 -34q1 -28 14 -35q13 -8 1 -18q-34 -30 -143 15q-67 29 -124 79q-6 5 -12 11q-164 -97 -343 -118l-4 14q111 31 218 81q56 23 102 52q-32 36 -55 80q-24 44 -39 91
l-123 -23q-25 -9 -35 -24l-43 30l196 38q-4 16 -7 32q-4 21 -9 53q-4 24 -7 38q-2 14 -19 29zM96 181h215v297h-215v-297zM522 976l87 -23q9 -5 10 -8t-6 -5q-18 -4 -24 -12q-4 -6 9 -49q11 -31 27 -63l219 29l30 43l60 -37q11 -5 9 -9q-3 -4 -19 -5l-289 -39l3 -5
q26 -43 54 -75l10 -11q63 41 74 53q12 12 2 26l9 8l55 -40q7 -5 6 -8q0 -4 -8 -5q-17 1 -34 -10q-38 -27 -76 -50q14 -11 27 -20q50 -35 125 -48q27 -4 32 21q5 26 15 106l16 -2q-8 -102 -4 -120t19 -23t6 -17q-28 -27 -146 3q-65 17 -118 62q-7 6 -15 13
q-147 -82 -298 -106l-4 14q53 17 146 55q72 30 130 63q-27 32 -49 70q-6 10 -17 30q-3 7 -5 10l-120 -16q-34 -7 -45 -22l-43 30l199 26q-14 32 -23 62q-8 28 -16 59q-2 7 -3 9q-2 11 -23 26zM653 972l5 12q110 -20 134 -61q26 -42 -11 -53q-16 1 -24 20q-8 20 -26 36
q-16 16 -78 46zM639 556l3 14q105 -17 128 -50q28 -37 -8 -48q-17 -1 -26 17q-9 19 -27 31q-17 12 -70 36z" />
  </g>

</svg>
