<?xml version="1.0" standalone="no"?>
<!DOCTYPE svg PUBLIC "-//W3C//DTD SVG 1.1//EN" "http://www.w3.org/Graphics/SVG/1.1/DTD/svg11.dtd" >
<svg xmlns="http://www.w3.org/2000/svg" xmlns:xlink="http://www.w3.org/1999/xlink" version="1.1" viewBox="0 -205 1024 1024">
  <g transform="matrix(1 0 0 -1 0 819)">
   <path fill="currentColor"
d="M360 988l74 -34q14 -5 6 -11q-16 -4 -27 -18v-47h98l32 36l56 -42q8 -5 7 -8q-2 -2 -13 -2h-180v-79h90l25 27l44 -31q7 -6 5 -10q-1 -5 -11 -7l-14 -9v-64l4 -40q6 -33 -42 -38v34h-101v-87h132l30 36l56 -42q8 -5 7 -8q-2 -2 -13 -2h-519q-27 1 -45 -13l-34 29h222v87
h-102q-1 -19 -12 -28q-10 -10 -33 -15q5 41 7 89v88q-1 10 -12 22l15 12l28 -30h109v79h-111q-27 1 -45 -13l-34 29h190v57q2 17 -25 42l8 11l74 -34q14 -5 6 -11q-16 -4 -27 -18v-47h92v57q2 17 -25 42zM587 627l138 36q-1 45 -3 95v194q-5 18 -23 32l9 12l78 -29
q9 -5 10 -8q1 -4 -6 -7q-12 -3 -29 -12v-179q2 -46 3 -88l129 35l30 49l66 -37q11 -5 9 -8q-3 -4 -19 -6l-215 -56q8 -150 15 -227q6 -60 15 -104q35 62 57 120q35 89 34 101q0 12 -11 25l6 9l71 -22q9 -5 2 -13q-13 0 -26 -8q-46 -148 -120 -264q0 -1 1 -3q29 -91 86 -151
q9 -10 16 -6q7 3 12 19q10 30 35 142l17 -3q-16 -99 -26 -142q-10 -45 4 -61t4 -26q-11 -9 -33 0q-85 35 -144 186l-1 3q-71 -93 -159 -147l-8 14q81 66 143 162q2 3 5 8q4 5 5 7q-11 45 -19 107q-10 75 -19 264l-51 -13q-34 -9 -45 -26zM323 512l7 11q66 -19 75 -24t5 -8
q-2 -1 -6 -4q-14 -6 -22 -15q3 -55 7 -102l148 24l12 37l58 -29q11 -5 9 -8q-3 -4 -19 -6l-206 -34q3 -25 7 -48q10 -55 32 -99q27 27 44 48q32 38 36 48q5 11 -7 27l8 7l60 -35q5 -5 5 -9t-6 -5q-14 3 -34 -15q-28 -40 -87 -96q22 -35 40 -49q21 -18 42 -33t27 -3t11 30
t21 99l14 -2q-4 -33 -10 -79q-3 -23 -4 -32q-4 -34 8 -49q10 -13 5 -20t-24 -6q-67 6 -126 73q-19 21 -35 44q-73 -61 -200 -113l-8 12q111 60 172 113q9 8 17 16q-22 41 -36 115q-4 25 -9 55l-79 -13q-34 -7 -45 -22l-35 26l157 25q-5 50 -8 110q2 22 -21 38zM194 527
l61 -23q7 -5 7 -9q-1 -3 -10 -5q-6 -3 -14 -8q-7 -4 -57 -87v-269l2 -57q3 -36 -49 -44q5 37 7 146v166q-47 -56 -118 -109l-10 10q98 108 140 178q43 71 44 79t-11 22zM249 767h-102v-106h102v106zM413 661h101v106h-101v-106zM377 767h-92v-106h92v106zM377 645h-92v-87
h92v87zM377 862h-92v-79h92v79zM788 901l6 11q68 -26 90 -46q22 -19 29 -42q14 -46 -18 -53q-14 -1 -20 24t-20 46q-14 23 -67 60zM428 514l4 10q61 -17 84 -53q16 -37 -16 -44q-15 0 -17 18q-2 20 -14 33q-12 15 -41 36z" />
  </g>

</svg>
