<?xml version="1.0" standalone="no"?>
<!DOCTYPE svg PUBLIC "-//W3C//DTD SVG 1.1//EN" "http://www.w3.org/Graphics/SVG/1.1/DTD/svg11.dtd" >
<svg xmlns="http://www.w3.org/2000/svg" xmlns:xlink="http://www.w3.org/1999/xlink" version="1.1" viewBox="0 0 2048 2048">
  <g transform="matrix(1 0 0 -1 0 2048)">
   <path fill="currentColor"
d="M1485 510q-86 196 -128 530q-23 175 -38 424h-1045q-132 0 -192 -8l-38 88q99 -25 230 -25h311v167h-196q-112 0 -195 -8l-37 88q93 -22 232 -22h196v47q-4 138 -9 160l110 -24q82 -18 85 -43q4 -28 -49 -43l-42 -12l2 -85h199l99 97l126 -97q13 -10 16 -24
q8 -34 -30 -34h-410v-167h634q-10 174 -9 271q1 100 -6 172l133 -30q88 -20 65 -56q-7 -12 -33 -20l-55 -18q-2 -79 -2 -122q0 -60 6 -197h300l102 103l120 -100q18 -14 19 -28q2 -30 -35 -30h-503v-29q0 -165 45 -475q24 -166 83 -345q127 219 214 551l142 -47
q53 -18 44 -49q-5 -20 -50 -26l-45 -5q-9 -24 -13 -36q-87 -233 -244 -496q52 -90 116 -154q100 -99 134 -93q27 5 43 57l83 265l32 -16l-45 -278q-3 -21 -2 -47q4 -59 37 -103q11 -15 15 -27q15 -44 -45 -38q-84 8 -212 102q-112 83 -218 245q-139 -180 -416 -340l-22 35
q249 175 391 395zM1563 1868q118 -53 165 -84q77 -52 81 -109q3 -40 -21 -54q-38 -21 -66 36q-52 104 -175 184zM319 1244v20q0 137 -8 180l106 -24q43 -10 53 -14q17 -10 11 -29q-5 -19 -30 -28l-42 -16v-89h82l61 67l63 -44q39 -28 39 -49t-28 -38q-6 -4 -12 -7
q-9 -5 -25 -15v-101l49 -41q17 -14 17 -32q0 -19 -17 -19h-229v-139l111 16q-19 35 -53 75l24 27q178 -134 171 -233q-4 -51 -44 -51q-35 0 -47 54q-11 48 -28 84q-153 -48 -179 -55q-96 -24 -158 -43l-6 -34q-7 -35 -22 -37q-22 -5 -40 37l-53 118q9 1 234 31v150h-97v-21
q0 -28 -42 -28q-46 0 -46 36v209q0 14 -9 167l109 -84h85zM409 1187v-166h94v166h-94zM319 1021v166h-97v-166h97zM928 574l70 78l83 -54q40 -26 40 -49q0 -26 -67 -57l-17 -7v-200l66 -46q16 -12 13 -29q-2 -16 -17 -16h-703v-50q0 -27 -44 -30q-65 -5 -61 51q2 19 4 42
q6 53 6 78v238q0 35 -10 129l118 -78h519zM396 251h546v269h-546v-269zM1158 803q-30 -12 -148 -48q-139 -45 -186 -56l-15 -51q-6 -21 -18 -20q-20 1 -36 38l-53 120q35 4 53 6q108 13 163 24v161h-104v-25q0 -29 -42 -29q-46 0 -46 35v214q0 31 -4 92q-3 37 -5 75l107 -83
h94v19q0 134 -8 173l106 -24q84 -19 69 -51q-6 -14 -36 -24l-40 -13v-80h92l57 70l69 -48q38 -27 38 -48t-27 -38q-32 -20 -39 -25v-104l40 -30q23 -17 23 -37q0 -19 -17 -19h-236v-148q93 15 128 20q-26 49 -49 79l22 24q168 -139 161 -246q-2 -24 -17 -39.5t-34 -13.5
q-33 3 -38 56q-6 49 -24 94zM1009 1033h101v166h-101v-166zM918 1033v166h-104v-166h104z" />
  </g>

</svg>
