<?xml version="1.0" standalone="no"?>
<!DOCTYPE svg PUBLIC "-//W3C//DTD SVG 1.1//EN" "http://www.w3.org/Graphics/SVG/1.1/DTD/svg11.dtd" >
<svg xmlns="http://www.w3.org/2000/svg" xmlns:xlink="http://www.w3.org/1999/xlink" version="1.1" viewBox="0 0 2048 2048">
  <g transform="matrix(1 0 0 -1 0 2048)">
   <path fill="currentColor"
d="M409 999l-1 -22q-19 -340 -83 -514q-72 -199 -251 -357l-26 29q136 149 200 367q56 196 67 598l3 66v386q0 233 -9 316l106 -82q860 51 1152 173l110 -79q50 -37 31 -62q-13 -18 -36 -12l-23 6l-63 13q-482 -71 -1171 -83v-106h1247l69 76l83 -54q40 -26 40 -49
q0 -27 -78 -61v-90l52 -40q20 -16 15 -34q-6 -19 -26 -19h-730l75 -16q69 -15 74 -43q4 -26 -47 -40l-44 -13v-56h355l91 99l110 -87q33 -27 23 -53q-5 -15 -23 -15h-556v-129h522l96 110l125 -97q32 -25 35 -37q7 -34 -32 -34h-780q-200 -142 -386 -235q67 6 358 24
q218 14 419 43q-69 63 -128 108l23 28q159 -89 214 -132q96 -75 91 -134q-1 -25 -17.5 -40t-36.5 -10q-30 9 -72 76q-19 31 -42 58q-316 -66 -832 -112l-7 -26q-9 -30 -27 -30q-19 0 -34 30l-51 111q53 9 83.5 24t100.5 66q101 73 182 151h-366q-67 0 -149 -11zM410 1027
q104 -16 173 -16l469 1v129h-293q-67 0 -148 -10l-39 86q118 -18 187 -18l293 -2v42q0 93 -5 126h-632v-177q0 -106 -5 -161zM415 1422h1262v160h-1262v-160zM538 590l119 -72h927l68 76l84 -54q39 -25 39 -49q0 -27 -77 -61v-240h38l97 97l120 -89q25 -18 22 -41t-22 -23
h-1458q-116 0 -191 -8l-39 88q57 -13 230 -22l43 -2v400zM633 190h248v270h-248v-270zM977 190h260v270h-260v-270zM1333 190h268v270h-268v-270z" />
  </g>

</svg>
