<?xml version="1.0" standalone="no"?>
<!DOCTYPE svg PUBLIC "-//W3C//DTD SVG 1.1//EN" "http://www.w3.org/Graphics/SVG/1.1/DTD/svg11.dtd" >
<svg xmlns="http://www.w3.org/2000/svg" xmlns:xlink="http://www.w3.org/1999/xlink" version="1.1" viewBox="0 0 2048 2048">
  <g transform="matrix(1 0 0 -1 0 2048)">
   <path fill="currentColor"
d="M1347 1643q-31 9 -42 55q-19 76 -45 119q-26 41 -79 101l23 26q228 -149 212 -248q-6 -42 -49 -53h340l98 102l121 -107q21 -18 16 -34q-6 -18 -26 -18h-527v-721h371l98 101l121 -107q21 -18 16 -33q-6 -19 -26 -19h-580v-448q0 -105 11 -209q3 -28 3 -54q0 -39 -48 -42
q-63 -4 -63 42v711h-330q-117 0 -192 -8l-38 88q95 -22 230 -22h330v721h-250q-108 0 -192 -8l-38 88q96 -23 230 -23h305zM870 1478q88 -95 164 -206q113 -164 113 -257q0 -75 -47 -75q-44 0 -59 80q-42 209 -196 435zM471 1479h83l99 101l120 -107q21 -18 16 -33
q-6 -19 -26 -19h-292v-447q141 42 297 106l11 -36q-99 -65 -308 -150v-662q0 -141 -154 -170q-12 70 -48 92q-33 22 -159 44l8 46q135 -22 190 -27q68 -6 68 57v585q-32 -11 -106 -38q-47 -17 -78 -27l-11 -42q-7 -30 -25 -32q-11 -1 -28 32l-70 130q136 21 317 65l1 474
h-68q-117 0 -192 -8l-38 88q96 -22 230 -22h68v292q0 116 -8 160l109 -24q82 -18 85 -43q4 -30 -49 -44l-42 -11v-330zM1739 1498l146 -63q29 -12 29 -30q0 -27 -40 -31l-63 -5q-99 -242 -307 -434l-27 27q155 190 262 536z" />
  </g>

</svg>
