<?xml version="1.0" standalone="no"?>
<!DOCTYPE svg PUBLIC "-//W3C//DTD SVG 1.1//EN" "http://www.w3.org/Graphics/SVG/1.1/DTD/svg11.dtd" >
<svg xmlns="http://www.w3.org/2000/svg" xmlns:xlink="http://www.w3.org/1999/xlink" version="1.1" viewBox="0 -205 1024 1024">
  <g transform="matrix(1 0 0 -1 0 819)">
   <path fill="currentColor"
d="M409 737h187q9 36 13 74q15 133 7 146q-7 13 -18 26l8 10l89 -26q10 -5 9 -9q0 -4 -11 -6q-21 -4 -25 -14q-4 -111 -26 -201h175l30 40l70 -50q8 -5 7 -8q-2 -2 -13 -2h-274q-16 -61 -42 -112h286l32 40l68 -50q8 -5 7 -8q-2 -2 -13 -2h-234q23 -39 37 -58q47 -60 97 -89
q46 -25 121 -34l2 -16q-39 0 -51 -6q-14 -4 -25 -22q-109 57 -164 144q-21 35 -43 81h-130q-2 -3 -7 -11q-4 -7 -7 -11q-88 -141 -263 -227l-6 16q144 90 218 208q8 12 15 25h-87q-27 1 -45 -13l-34 33h176q29 54 45 112h-102q-27 1 -45 -13zM198 934q-1 23 -28 46l8 11
l88 -38q9 -4 11 -7q2 -4 -4 -7q-18 -5 -31 -16v-181h57l31 40l62 -46q11 -8 9 -11q-2 -4 -18 -3h-141v-203l133 64l9 -12l-110 -64q-17 -10 -32 -18v-372q4 -65 -82 -88q0 30 -34 43q-33 13 -73 25l2 16l47 -8q59 -12 76 -3q20 9 20 48v314q-76 -43 -86 -54q-14 -14 -26 -38
l-60 44l172 82v224h-92q-27 1 -45 -13l-34 33h171v192zM664 472q5 -12 -4 -15q-10 0 -29 -15q2 -33 -3 -70h149l26 29l50 -30q9 -6 9 -11q0 -4 -9 -8l-16 -11v-53q2 -105 -6 -139q-8 -36 -37 -63q-28 -27 -99 -39q-2 28 -28 38q-33 13 -92 30l4 16q100 -20 122 -20h6
q56 -5 73 36q15 26 13 119v86h-167q-42 -215 -293 -320l-6 15q221 126 254 305h-93q-28 1 -40 -14l-36 34h171q2 17 2 33q2 53 0 62q0 9 -21 24l8 11zM812 930l60 -38q17 -10 7 -15q-16 -1 -33 -7q-68 -79 -112 -120l-18 4q94 126 95 147q-1 9 -7 22zM412 910l8 12
q74 -34 103 -77q31 -53 -6 -68q-19 -3 -24 24t-23 52q-18 26 -58 57z" />
  </g>

</svg>
