<?xml version="1.0" standalone="no"?>
<!DOCTYPE svg PUBLIC "-//W3C//DTD SVG 1.1//EN" "http://www.w3.org/Graphics/SVG/1.1/DTD/svg11.dtd" >
<svg xmlns="http://www.w3.org/2000/svg" xmlns:xlink="http://www.w3.org/1999/xlink" version="1.1" viewBox="0 0 2048 2048">
  <g transform="matrix(1 0 0 -1 0 2048)">
   <path fill="currentColor"
d="M480 902v-671q0 -142 -154 -170q-12 70 -47 93q-33 20 -160 43l7 46q141 -23 190 -27q69 -5 69 57v585q-75 -33 -144 -63l-2 -46q-2 -31 -19 -33q-19 -1 -40 31l-82 119q124 31 287 89v467h-69q-126 0 -190 -9l-40 92q99 -22 230 -22h69v288q0 118 -8 159l109 -24
q83 -18 86 -43q3 -30 -50 -44l-42 -11v-325h57l80 81l114 -90q21 -16 16 -33q-6 -19 -26 -19h-241v-435q151 51 266 104l14 -43q-109 -65 -280 -146zM1073 1893l126 -40q30 -10 29 -30q-1 -22 -83 -33q-84 -142 -141 -207q-86 -97 -228 -202l-26 27q126 119 189 217
q81 127 134 268zM1318 1864l117 -1l54 70l71 -36q54 -26 31 -57q-4 -5 -17 -13q-13 -7 -35 -24q81 -124 180 -191q115 -79 261 -122v-35q-15 2 -39 2q-46 0 -72 -49q-242 116 -387 408l-164 -1v49zM953 1503q69 -13 203 -13h378l62 61l81 -64q17 -13 21 -27q6 -23 -64 -50
q-23 -210 -52 -280q-26 -63 -89 -94q-32 -16 -105 -30q0 53 -33 76q-43 29 -136 60l7 33q143 -41 193 -45q54 -3 79 50q15 32 46 255h-312q-32 -189 -119 -278q-83 -85 -283 -159l-17 32q166 82 232 165q61 77 91 240q-74 0 -146 -6zM1355 877v-173h257l99 102l120 -107
q21 -18 16 -34q-6 -18 -26 -18h-466v-156h367l99 102l120 -107q20 -18 16 -33q-6 -19 -26 -19h-576v-194q0 -89 -65 -134q-16 -11 -90 -36q-11 70 -47 93q-34 21 -159 43l8 46q135 -22 190 -27q68 -6 68 57v152h-374q-118 0 -191 -8l-39 88q97 -23 230 -23h374v156h-275
q-109 0 -191 -8l-39 88q96 -23 230 -23h275v163l-57 -3l-51 -3q-190 -12 -358 -15l-5 43q692 45 854 169l108 -85q29 -23 23 -42q-5 -14 -19 -15q-7 -1 -21 2l-45 9q-127 -31 -334 -50z" />
  </g>

</svg>
