<?xml version="1.0" standalone="no"?>
<!DOCTYPE svg PUBLIC "-//W3C//DTD SVG 1.1//EN" "http://www.w3.org/Graphics/SVG/1.1/DTD/svg11.dtd" >
<svg xmlns="http://www.w3.org/2000/svg" xmlns:xlink="http://www.w3.org/1999/xlink" version="1.1" viewBox="0 0 2048 2048">
  <g transform="matrix(1 0 0 -1 0 2048)">
   <path fill="currentColor"
d="M1309 1094v680q0 118 -7 159l109 -24q82 -18 85 -43q4 -28 -49 -44l-38 -11v-717h351v271h-104q-67 0 -149 -10l-40 86q126 -19 189 -19h104v255h-120q-68 0 -148 -10l-41 86q121 -18 189 -18h102l68 76l88 -54q40 -25 40 -48q0 -28 -78 -62l-1 -468q0 -70 4 -121
q4 -43 4 -54q0 -60 -57 -64q-50 -4 -50 27v70h-810l1 -59q0 -44 -56 -41q-45 3 -47 37q-1 15 1 34q8 95 7 189l-1 460q-4 69 -11 128l114 -76q87 45 182 144l80 -68q52 -45 34 -69q-10 -13 -30 -7l-27 7l-32 9q-87 -36 -215 -68v-235h92l81 80l113 -80q21 -14 16 -37
q-4 -20 -26 -20h-276v-271h359zM1087 770h-103q-121 0 -193 -8l-38 88q98 -23 231 -23h740l98 102l121 -107q20 -18 15 -34q-6 -18 -26 -18h-736l-82 -190h552l63 80l85 -57q47 -31 47 -52q0 -25 -86 -57q-37 -190 -56 -243q-57 -164 -256 -187q-6 50 -18 66q-17 22 -73 45
q-23 9 -67 24q-28 9 -59 19l11 41q40 -12 102 -29q106 -28 152 -28q81 0 113 80q33 83 52 241h-586q-42 -9 -66 -9q-25 0 -32 14q-3 6 2 17zM485 898v-660q0 -142 -155 -171q-11 70 -47 93q-32 21 -159 44l8 46q134 -22 189 -27q68 -6 68 57v572q-45 -24 -163 -81l-6 -42
q-4 -33 -21 -36q-12 -2 -32 27l-85 122q98 24 307 101v476h-103q-69 0 -149 -10l-39 85q125 -17 188 -17h103v308q0 118 -7 160l109 -24q82 -19 85 -44q4 -30 -49 -44l-42 -11v-345h51l99 101l120 -107q21 -18 16 -33q-6 -19 -26 -19h-260v-438q23 10 121 50q2 1 157 77
l15 -34q-90 -73 -293 -176z" />
  </g>

</svg>
