<?xml version="1.0" standalone="no"?>
<!DOCTYPE svg PUBLIC "-//W3C//DTD SVG 1.1//EN" "http://www.w3.org/Graphics/SVG/1.1/DTD/svg11.dtd" >
<svg xmlns="http://www.w3.org/2000/svg" xmlns:xlink="http://www.w3.org/1999/xlink" version="1.1" viewBox="0 -205 1024 1024">
  <g transform="matrix(1 0 0 -1 0 819)">
   <path fill="currentColor"
d="M447 892q2 -16 4 -43v-3h469l27 32l52 -41q6 -13 -10 -13q-13 -2 -30 -16q-16 -13 -59 -72l-15 6l40 84h-474q0 -13 -1 -23q-6 -73 -49 -89q-22 -8 -28 8q-4 9 1 18q-3 -2 -16 -1h-121v-226l127 63l11 -14l-104 -59q-5 -3 -13 -8l-21 -12v-353q6 -62 -80 -86q0 28 -34 41
q-33 13 -73 25l2 16l47 -8q59 -12 76 -3q20 9 20 47v295q-73 -46 -84 -55q-13 -13 -24 -37l-60 44l168 83v247h-96q-27 1 -45 -13l-34 33h175v188q-1 23 -28 46l8 11l86 -38q9 -4 11 -7q2 -4 -4 -7q-18 -5 -31 -16v-177h37l31 40l62 -46q9 -7 9 -11q3 5 10 10q42 35 47 140
h14zM992 80v-16q-3 0 -10 -1q-56 -1 -67 -33q-79 26 -164 73q-31 17 -60 38q-39 -27 -87 -51q-101 -50 -259 -72l-2 14q142 36 229 81q46 24 86 51q-33 27 -65 58q-73 75 -114 139l20 1q53 -61 108 -113q39 -36 80 -64q78 75 121 167q8 16 -7 32l7 9l65 -30q9 -2 11 -6
q2 -3 -3 -7q-13 -7 -21 -8q-10 -2 -28 -34q-50 -86 -110 -145q138 -82 270 -83zM792 671l69 -42q7 -5 6 -8q0 -4 -8 -5q-17 1 -35 -5q-40 -49 -91 -90q3 -1 13 -5q2 -1 3 -1q118 -52 143 -84q25 -31 5 -48q-19 -16 -57 23q-36 39 -133 85q-5 3 -10 5q-136 -76 -306 -114
l-8 12q146 53 237 101q3 2 9 5q11 5 27 15q-82 36 -198 75l6 12q134 -29 227 -64q69 53 101 106q-2 10 -8 20zM555 798l71 -34q9 -5 8 -8q0 -3 -10 -5q-17 -3 -35 -11q-96 -104 -190 -154l-10 10q74 62 117 109t46 57t-7 28zM723 770l4 13q175 -65 191 -119q13 -30 -7 -42
t-34 18t-49 60q-34 30 -105 70zM581 994q120 -42 124 -101q2 -29 -20 -31t-26 23q-4 26 -23 45q-19 20 -63 52z" />
  </g>

</svg>
