<?xml version="1.0" standalone="no"?>
<!DOCTYPE svg PUBLIC "-//W3C//DTD SVG 1.1//EN" "http://www.w3.org/Graphics/SVG/1.1/DTD/svg11.dtd" >
<svg xmlns="http://www.w3.org/2000/svg" xmlns:xlink="http://www.w3.org/1999/xlink" version="1.1" viewBox="0 -205 1024 1024">
  <g transform="matrix(1 0 0 -1 0 819)">
   <path fill="currentColor"
d="M647 680l38 -40h93l39 37l44 -46q7 -6 5 -10q-1 -5 -11 -7l-18 -9v-271l6 -61q-1 -18 -13 -24t-33 -7v48h-107v-19q0 -21 -10 -30q-12 -9 -37 -14q4 37 7 76v327q-3 19 -15 34q-26 -46 -59 -89l-12 6q54 107 80 177q24 70 39 133q14 64 11 71q-3 6 -14 18l6 8l85 -30
q4 -6 2 -9t-10 -4q-18 -5 -30 -20q-18 -67 -45 -142h218l32 41l44 -40q9 -6 9 -11t-9 -8l-20 -13v-473q1 -102 -14 -140q-16 -39 -42 -64q-28 -24 -95 -41q1 30 -32 40q-39 14 -98 26l6 18q99 -15 138 -17q45 -2 70 33q24 28 27 123v506h-241q0 -1 -1 -3q0 -3 -1 -4
q-15 -40 -36 -79zM349 935l41 -46h110l30 44l46 -43q9 -6 9 -11t-9 -8l-20 -13v-746q0 -23 -12 -44t-71 -30q-3 30 -27 38q-7 2 -22 6q-26 8 -43 13l2 14q78 -13 99 -13q19 0 28 6q6 6 6 71v222h-123q-4 -74 -15 -125q-24 -125 -129 -243l-10 8q69 108 95 197q24 90 23 410
v240q-10 25 -25 40zM190 956q-8 21 -26 30l6 13l84 -26q10 -5 11 -8q2 -3 -4 -6q-18 -6 -31 -16v-198h25l29 38l61 -44q8 -8 5 -11q-2 -3 -16 -3h-104v-204l97 59l13 -16l-83 -59l-9 -6t-18 -13v-351q-2 -33 -20 -49q-20 -16 -68 -31q2 27 -31 43q-33 15 -75 31l4 14l55 -11
q48 -12 72 -12q21 1 23 43v295q-26 -18 -57 -38q-11 -7 -14 -9q-15 -13 -25 -38l-54 34l150 90v228h-73q-27 0 -45 -13l-34 33h152v211zM516 640h-118q2 -130 -4 -225h122v225zM398 660h118v209h-118v-209zM690 471h107v148h-107v-148zM797 451h-107v-141h107v141z" />
  </g>

</svg>
