<?xml version="1.0" standalone="no"?>
<!DOCTYPE svg PUBLIC "-//W3C//DTD SVG 1.1//EN" "http://www.w3.org/Graphics/SVG/1.1/DTD/svg11.dtd" >
<svg xmlns="http://www.w3.org/2000/svg" xmlns:xlink="http://www.w3.org/1999/xlink" version="1.1" viewBox="0 -205 1024 1024">
  <g transform="matrix(1 0 0 -1 0 819)">
   <path fill="currentColor"
d="M164 984l6 9l86 -38q9 -5 10 -8q2 -3 -4 -6q-20 -7 -29 -16v-189h50l33 39l56 -45q11 -8 9 -12q-3 -3 -18 -2h-130v-216l125 65l5 -14l-104 -69q-6 -4 -17 -10l-9 -6v-348q-1 -39 -20 -57q-15 -16 -66 -32q-3 35 -32 47q-28 13 -65 25l2 16l44 -8q49 -10 70 -4t23 49v285
q-84 -53 -94 -62q-16 -19 -28 -43l-37 62l159 81v239h-85q-24 0 -43 -13l-31 33h159v200q-2 23 -25 48zM413 704h234v58q1 15 -28 42l8 11l85 -34q14 -5 6 -11q-17 -6 -29 -18v-48h133l32 40l69 -50q7 -5 6 -8q-1 -2 -12 -2h-228v-101h219l32 40l68 -50q7 -5 6 -8
q-1 -2 -12 -2h-563q-27 0 -45 -13l-35 33h288v101h-155q-27 0 -45 -13zM678 385v-234q3 -62 -7 -91q-11 -27 -73 -42q-3 30 -40 46l-62 15l2 15q90 -20 114 -18t24 50v273h-140q-27 0 -43 -12l-32 32h199l31 29l44 -35q9 -6 9 -11t-9 -8zM799 340v-142q0 -56 11 -72t43 -19
q36 -3 73 2q34 5 41 43l10 119h11l2 -69q0 -52 25 -66q-13 -25 -30 -44q-17 -15 -34 -18q-59 -9 -133 0q-61 2 -59 122v153q-3 26 -28 41l8 10l98 -34q6 -6 -1 -9q-20 -3 -37 -17zM750 747q4 34 7 106v87q2 16 -30 46l9 12l85 -36q14 -5 6 -11q-21 -9 -30 -21v-57h83l34 43
l62 -49q9 -6 6 -10q-3 -3 -17 -4h-168v-21l2 -41q0 -21 -12 -30t-37 -14zM303 55l-6 10q63 41 103 76q46 43 64 69q24 35 42 86h-98q-21 0 -33 -11l-32 29h146l29 27l53 -31q5 -4 4 -7t-7 -5q-15 -7 -19 -13q-1 -2 -6 -13t-9 -19q-12 -26 -37 -62q-22 -29 -73 -69
q-47 -36 -121 -67zM518 996l85 -36q18 -5 10 -11q-25 -9 -34 -21v-100l2 -41q0 -21 -12 -30t-37 -14q4 35 7 110h-95q-27 0 -45 -13l-35 33h175v65q2 16 -30 46zM567 540l4 11q65 -8 101 -23q35 -15 50 -35t8 -38t-21 -17q-15 0 -19 20q-6 18 -30 41q-26 21 -93 41z" />
  </g>

</svg>
