<?xml version="1.0" standalone="no"?>
<!DOCTYPE svg PUBLIC "-//W3C//DTD SVG 1.1//EN" "http://www.w3.org/Graphics/SVG/1.1/DTD/svg11.dtd" >
<svg xmlns="http://www.w3.org/2000/svg" xmlns:xlink="http://www.w3.org/1999/xlink" version="1.1" viewBox="0 0 2048 2048">
  <g transform="matrix(1 0 0 -1 0 2048)">
   <path fill="currentColor"
d="M1105 728l1 -481q196 37 375 98l18 -45q-185 -90 -385 -159q-8 -65 -24 -70q-22 -8 -42 40l-48 114l12 2v431q-181 -117 -382 -202l-18 38q401 202 592 492h-194q-117 0 -192 -9l-38 89q104 -25 219 -25l352 1q-15 15 -24 52q-20 86 -115 176l24 21q71 -41 109 -71
q73 -55 83 -109q8 -43 -23 -69h295l98 101l121 -107q20 -18 15 -33q-5 -19 -25 -19l-579 2q-108 -146 -225 -258zM1516 595q188 135 280 254l118 -81q36 -25 20 -45q-13 -18 -53 -13l-49 6q-139 -96 -286 -162q166 -206 457 -294l-3 -31q-115 1 -142 -60q-252 126 -387 354
q-72 121 -136 322l43 12q78 -178 138 -262zM1548 1633l1 -249q0 -41 33 -54q29 -10 94 -10q81 0 146 19q29 8 44 8q20 -1 39 -25q19 -25 18 -42q-2 -32 -65 -38q-85 -9 -221 -9q-110 0 -153 36q-31 26 -31 94l1 270h-307l95 -37q31 -12 33 -30q2 -23 -33 -30l-58 -10
q-14 -25 -21 -37q-78 -134 -173 -204q-65 -48 -189 -100l-20 36q151 88 227 193q65 89 105 219h-188q-21 -207 -124 -207q-26 0 -42 21q-13 16 -10 36q4 25 36 48q55 39 78 97q22 58 23 165h34q5 -56 5 -104h411q-18 23 -29 60q-24 80 -122 159l23 27q92 -47 145 -86
q68 -49 68 -98q0 -36 -25 -62h407l59 66l88 -70q36 -28 37 -44q2 -21 -37 -29l-49 -10q-67 -84 -157 -170l-27 17q60 96 86 184h-255zM447 964q24 11 146 66l80 40l34 16l16 -37q-19 -14 -29 -20q-93 -66 -247 -155v-640q0 -141 -154 -170q-12 70 -48 93q-32 21 -159 43
l8 46q140 -23 190 -27q68 -5 68 57v544q-118 -62 -132 -70l-2 -49q-2 -34 -19 -36q-17 -1 -42 31l-89 116q143 50 269 103l14 6v481h-64q-128 0 -192 -9l-38 92q100 -21 230 -21h64v325q0 118 -7 159l109 -24q82 -18 85 -43q4 -30 -49 -44l-42 -11v-362h80l80 80l114 -90
q21 -16 15 -33q-5 -19 -25 -19h-264v-438z" />
  </g>

</svg>
