<?xml version="1.0" standalone="no"?>
<!DOCTYPE svg PUBLIC "-//W3C//DTD SVG 1.1//EN" "http://www.w3.org/Graphics/SVG/1.1/DTD/svg11.dtd" >
<svg xmlns="http://www.w3.org/2000/svg" xmlns:xlink="http://www.w3.org/1999/xlink" version="1.1" viewBox="0 0 2048 2048">
  <g transform="matrix(1 0 0 -1 0 2048)">
   <path fill="currentColor"
d="M1564 526q72 116 115 217l102 -54q58 -31 50 -55q-7 -17 -58 -21l-33 -3q-80 -123 -125 -177q38 -59 91 -117q34 -37 74 -62q37 -24 49 -20q15 5 59 117q31 78 49 116l31 -15q-9 -30 -13 -45q-45 -146 -45 -180q0 -51 41 -100q11 -14 15 -24q15 -41 -35 -40
q-79 2 -203 96q-102 77 -183 194q-154 -168 -418 -254l-14 34q118 56 208 125q81 63 177 177q-91 165 -141 384l-339 -1q-6 -83 -13 -132q33 -19 108 -58q157 -82 164 -183q5 -67 -49 -61q-33 3 -58 54q-56 116 -171 200q-28 -187 -103 -314q-68 -117 -246 -252l-21 30
q160 153 222 328q50 144 67 388h-33q-71 0 -152 -11l-40 86q124 -17 192 -18l459 -2q-49 265 -62 671l-4 70l-6 175q-6 106 -11 135l145 -23q37 -6 39 -24q2 -20 -23 -31l-51 -22q4 -644 72 -949l306 -2l93 92l111 -94q22 -18 16 -33q-6 -19 -26 -19l-484 -2q7 -26 11 -39
q31 -118 94 -252zM1633 1065q146 -57 143 -119q-2 -39 -37 -42q-29 -3 -47 39q-18 43 -81 100zM1824 1176q-73 -42 -287 -119l-11 -34q-6 -20 -21 -20q-12 0 -20 17l-58 116q122 85 253 297q-62 -22 -167 -50l-9 -33q-6 -21 -21 -21q-13 0 -21 18l-50 111q51 51 117 173
q73 133 111 277l133 -51q35 -13 30 -37q-3 -16 -53 -26l-37 -8q-98 -177 -232 -314q169 9 224 16q27 48 76 176l115 -52q35 -17 33 -38q-2 -22 -52 -28l-32 -4q-12 -19 -50 -85q-99 -168 -279 -306q84 9 184 30q72 15 111 23q-23 43 -68 97l21 23q181 -130 171 -225
q-6 -48 -45 -48q-36 0 -45 50q-8 41 -21 75zM1149 1134q-174 -82 -298 -127l-9 -25q-7 -22 -21 -25t-38 46l-40 82q143 121 260 321q-55 -21 -158 -50l-11 -28q-13 -30 -27 -30q-13 0 -23 25l-45 114q135 135 234 464l114 -50q52 -23 47 -44q-4 -17 -53 -27l-38 -7
q-95 -183 -236 -327q170 9 222 16q47 105 73 176l118 -52q36 -16 34 -38q-3 -20 -53 -27l-37 -6q-91 -155 -146 -223q-57 -72 -183 -183q39 4 190 35q78 14 109 22q-20 37 -66 97l19 23q181 -130 170 -225q-5 -49 -45 -49q-35 0 -45 51q-7 38 -18 71zM349 848
q-84 -29 -150 -52l-9 -45q-6 -28 -20 -33q-16 -4 -22 8l-16 28l-69 127q113 16 286 55v477h-70q-75 0 -149 -10l-39 86q27 -4 41 -6q85 -13 147 -13h70v307q0 123 -7 160l109 -24q82 -18 85 -44q3 -29 -49 -43l-43 -11v-345h54l80 81l114 -86q21 -16 16 -33q-6 -19 -26 -19
h-238v-453q69 18 234 70l11 -37q-107 -57 -245 -111v-650q0 -142 -155 -171q-12 70 -48 93q-32 21 -159 44l8 45q141 -22 191 -26q68 -6 68 57v574z" />
  </g>

</svg>
