<?xml version="1.0" standalone="no"?>
<!DOCTYPE svg PUBLIC "-//W3C//DTD SVG 1.1//EN" "http://www.w3.org/Graphics/SVG/1.1/DTD/svg11.dtd" >
<svg xmlns="http://www.w3.org/2000/svg" xmlns:xlink="http://www.w3.org/1999/xlink" version="1.1" viewBox="0 -205 1024 1024">
  <g transform="matrix(1 0 0 -1 0 819)">
   <path fill="currentColor"
d="M582 795l52 -36q19 -14 4 -20q-18 4 -38 2q-64 -26 -131 -40v-90h100l28 37l63 -45q8 -6 7 -8q-2 -3 -13 -2h-185v-107h402v111h-92q-27 1 -45 -13l-34 31h171v106h-97q-18 2 -38 -14l-35 34h154l37 37l44 -45q7 -6 6 -10t-10 -6l-21 -8v-165l7 -99q0 -31 -47 -31v52
h-402v-16q-1 -19 -11 -27q-10 -9 -36 -14q5 37 7 116v181q-3 18 -13 32q-29 -24 -61 -45l-8 10l27 27q-4 -1 -13 0h-107v-219l109 55l9 -14l-116 -66l-2 -1v-371q6 -62 -78 -86q0 28 -34 41t-74 25l2 16l47 -8q60 -12 77 -3q20 9 20 50v312q-101 -60 -105 -66
q-14 -13 -22 -33l-58 37l185 92v239h-105q-27 1 -45 -13l-34 33h184v193q-1 23 -28 46l8 11l84 -38q9 -4 11 -7q2 -4 -4 -7q-18 -5 -31 -16v-182h23l31 40l62 -46q8 -6 9 -9q51 51 81 91q38 51 61 97t21 56q-1 10 -11 25l8 6l81 -33q3 -12 -7 -12q-18 2 -33 -21
q-15 -26 -31 -53h201l31 31l60 -50q4 -11 -14 -7q-22 -6 -36 -18q-13 -12 -45 -46q-31 -34 -57 -54l-18 4q48 60 88 120h-223q-28 -40 -56 -72q-23 -26 -50 -49l30 -31q65 23 87 36q25 16 25 19v10q0 3 -2 5zM1000 66v-17q-39 1 -52 -4q-15 -6 -22 -24q-106 24 -180 60
q-37 18 -72 43q-50 -30 -124 -60q-87 -35 -219 -49l-4 14q131 28 201 60q54 24 114 61q-14 9 -26 23q-52 53 -85 140q-20 -22 -5 -6q-15 -16 -36 -42q-58 -65 -121 -97l-10 10q62 51 105 106q44 55 64 88q20 34 18 40q-1 6 -11 18l7 8l78 -23q6 -4 7 -6q0 -3 -5 -5
q-20 -1 -34 -14q-8 -12 -24 -35q-5 -7 -8 -10h236l31 31l55 -44q5 -4 5 -7q-1 -3 -8 -5q-17 -1 -23 -7q-5 -5 -23 -32q-18 -26 -54 -70q-28 -34 -67 -62q3 -2 8 -4q5 -3 7 -4q118 -68 259 -73q12 -1 18 -2zM619 216q24 -25 53 -46q39 29 66 61q35 42 67 94h-262
q34 -64 76 -109z" />
  </g>

</svg>
