<?xml version="1.0" standalone="no"?>
<!DOCTYPE svg PUBLIC "-//W3C//DTD SVG 1.1//EN" "http://www.w3.org/Graphics/SVG/1.1/DTD/svg11.dtd" >
<svg xmlns="http://www.w3.org/2000/svg" xmlns:xlink="http://www.w3.org/1999/xlink" version="1.1" viewBox="0 0 2048 2048">
  <g transform="matrix(1 0 0 -1 0 2048)">
   <path fill="currentColor"
d="M1153 1118q239 -163 249 -279q3 -36 -17 -64q-13 -18 -33 -20q-48 -7 -76 77l-10 -9l-47 -28v-494l5 -49l4 -66q4 -67 -72 -67q-34 0 -34 16v64h-329v-53q0 -45 -69 -40q-42 4 -39 53l4 55q8 130 8 142l-1 503q-45 -61 -126 -148l-30 28q138 177 236 378q-71 -1 -134 -7
l-38 88q67 -16 190 -22h9q40 91 70 211h-76q-43 0 -116 -8l-39 88q91 -19 158 -20h87q25 113 40 214h-69q-123 0 -192 -8l-39 88q92 -22 231 -22h78q8 55 19 191l3 44l104 -22q66 -14 71 -36q6 -28 -42 -38l-38 -7q-11 -77 -19 -132h73l88 88l126 -93q18 -15 16 -34
q-1 -19 -34 -19h-278q-3 -20 -9 -54q-14 -82 -34 -161h83l89 87l121 -91q19 -14 18 -28q-2 -27 -26 -27h-301q-30 -110 -77 -211h263l84 91l117 -87q23 -17 23 -38q0 -24 -27 -24h-196zM1074 1118h-213q-53 -102 -123 -202l70 -41h297l62 68l90 -59q-49 117 -183 234z
M793 559h329v260h-329v-260zM793 255h329v250h-329v-250zM1644 711q135 258 175 477l147 -62q23 -10 15 -34q-6 -19 -26 -23l-55 -11q-112 -293 -229 -464q29 -100 67 -178q67 -141 97 -132q15 5 30 75l17 73l20 83l14 61l34 -12q-4 -52 -20 -176q-6 -44 -6 -77
q0 -107 19 -159q10 -28 8 -40q-6 -25 -37 -25q-55 0 -136 88q-106 116 -174 327q-97 -124 -224 -238l-27 33q116 132 224 300q-42 165 -54 305q-10 111 -20 346l-84 -18l-43 -22l-56 72l181 38l-1 22q-3 179 -3 280q1 264 -8 307l109 -24q83 -18 86 -44q3 -30 -50 -43
l-41 -12q-3 -175 -3 -226q0 -83 3 -241l169 35l64 106l133 -64q29 -15 26 -38q-2 -18 -24 -23l-365 -84q16 -408 48 -558zM1744 1837q71 -44 124 -86q78 -63 83 -122q2 -25 -8 -45q-15 -32 -48 -27q-34 6 -53 76q-21 73 -124 178zM295 1498v298q0 114 -8 160l104 -24
q83 -20 87 -44q3 -24 -50 -44l-37 -14v-332h33l80 79l114 -85q21 -16 16 -35q-6 -20 -26 -20h-217v-422q111 46 228 102l16 -36q-112 -76 -244 -147v-684q0 -142 -155 -170q-9 68 -40 92q-27 21 -134 44l8 46q112 -22 157 -27q68 -7 68 57v594l-45 -21q-50 -24 -85 -42v-46
q0 -32 -18 -34q-17 -1 -41 29l-85 110q98 28 274 93v462h-55q-65 0 -149 -12l-39 93q122 -20 188 -20h55z" />
  </g>

</svg>
