<?xml version="1.0" standalone="no"?>
<!DOCTYPE svg PUBLIC "-//W3C//DTD SVG 1.1//EN" "http://www.w3.org/Graphics/SVG/1.1/DTD/svg11.dtd" >
<svg xmlns="http://www.w3.org/2000/svg" xmlns:xlink="http://www.w3.org/1999/xlink" version="1.1" viewBox="0 0 2048 2048">
  <g transform="matrix(1 0 0 -1 0 2048)">
   <path fill="currentColor"
d="M837 1748l-4 42q523 50 802 155l79 -68q46 -38 35 -64q-8 -19 -35 -15q-15 2 -41 11l-34 11q-284 -54 -802 -72zM829 1366l-39 86q122 -18 188 -18h600l80 81l114 -86q21 -16 15 -34q-5 -19 -25 -19h-448v-148h410l80 80l114 -86q20 -15 16 -32q-5 -19 -26 -19h-1048
q-75 0 -149 -10l-39 86q120 -19 188 -19h360v148h-242q-70 0 -149 -10zM833 992l-39 86q123 -18 188 -18h626l68 77l84 -55q40 -26 40 -48q0 -38 -80 -60v-102h38l80 81l93 -86q23 -19 19 -34q-4 -18 -23 -18h-207v-98l44 -32q29 -20 27 -38q-3 -19 -19 -19h-786
q-64 0 -149 -10l-39 90q27 -4 41 -6q35 -4 97 -9l57 -8h635v130h-786q-69 0 -149 -11l-39 86q123 -18 188 -18h786v131h-642q-68 0 -153 -11zM749 502l34 -3q-2 -128 -31 -210q-45 -129 -136 -136q-28 -3 -46 15q-16 15 -11 38q5 25 64 56q69 37 99 126q15 44 27 114z
M947 563l109 -24q83 -18 85 -44q4 -30 -49 -43l-42 -11v-170q0 -54 37 -65q19 -6 118 -12h189q93 0 126 15q40 19 49 84l19 133l38 -4v-125q0 -45 27 -61q45 -28 45 -49q0 -84 -285 -84h-163q-97 0 -178 12q-118 16 -118 115v173q0 118 -7 160zM1212 574q205 -83 213 -171
q5 -60 -42 -68q-30 -5 -47 22q-4 6 -25 58q-28 67 -114 128zM1710 510q120 -66 165 -102q96 -76 101 -146q3 -54 -42 -68q-32 -9 -52 25q-3 4 -20 52q-38 104 -169 207zM787 1721q192 -113 178 -197q-4 -24 -27 -38q-19 -12 -37 -8q-23 6 -27 27l-11 53q-12 53 -99 137z
M1203 1733q136 -119 146 -190q5 -34 -15 -58q-19 -22 -45 -18q-33 5 -36 51q-7 90 -72 194zM1675 1759l88 -45q66 -34 57 -57q-5 -13 -53 -19l-42 -8q-93 -92 -192 -156l-20 24q109 134 162 261zM421 1007q49 14 244 77l14 -39q-123 -67 -258 -124v-702q0 -142 -153 -171
q-11 71 -48 92q-40 24 -143 43l8 46q123 -21 173 -25q67 -6 67 54v623l-21 -8q-90 -36 -127 -50l-14 -46q-6 -21 -20 -26q-16 -5 -35 34l-60 122q87 19 246 63l31 9v462h-57q-90 0 -169 -8l-38 88q97 -23 207 -23h57v294q0 119 -8 160l109 -24q83 -18 86 -44q3 -29 -49 -43
l-42 -11v-332h69l91 94l114 -98q20 -18 15 -34q-5 -19 -25 -19h-264v-434z" />
  </g>

</svg>
