<?xml version="1.0" standalone="no"?>
<!DOCTYPE svg PUBLIC "-//W3C//DTD SVG 1.1//EN" "http://www.w3.org/Graphics/SVG/1.1/DTD/svg11.dtd" >
<svg xmlns="http://www.w3.org/2000/svg" xmlns:xlink="http://www.w3.org/1999/xlink" version="1.1" viewBox="0 0 2048 2048">
  <g transform="matrix(1 0 0 -1 0 2048)">
   <path fill="currentColor"
d="M889 751q-56 -27 -109 -42q-90 -26 -109 -33l-8 -42q-6 -30 -23 -35q-23 -6 -42 42l-47 116q49 42 134 189q73 126 131 279q-26 -8 -41 -11q-84 -21 -101 -26l-11 -41q-9 -31 -24 -28q-16 3 -29 37l-42 114q81 98 140 242q52 126 109 332l115 -52q27 -12 25 -29
q-2 -16 -36 -25l-35 -9q-120 -284 -248 -451q104 1 197 8l9 27q15 50 42 146l99 -54q46 -25 45 -48q-2 -18 -47 -25l-36 -6q-112 -338 -315 -561l68 9q117 14 178 22q-25 76 -60 133l26 22q124 -141 144 -227q12 -52 -12 -82q-22 -28 -52 -16t-30 38v38q-5 32 -5 49z
M403 1009l41 17q65 28 145 65l14 -31q-113 -77 -200 -126v-722q0 -142 -150 -170q-11 69 -43 91q-28 20 -144 43l8 46q127 -21 174 -25q68 -5 68 57v634q-28 -16 -73 -39q-33 -17 -61 -32v-46q0 -31 -18 -33q-17 -2 -41 29l-85 109q165 48 278 97v434h-65q-67 0 -148 -13
l-40 94q123 -21 188 -21h65v317q0 117 -8 160l95 -24q51 -13 63 -17q22 -8 25 -27q3 -24 -50 -43l-38 -14v-352h29l80 80l100 -86q21 -17 16 -35q-6 -19 -26 -19h-199v-398zM1178 1581q-9 14 -12 52q-8 127 -96 269l24 24q65 -74 107 -136q54 -81 54 -153q0 -33 -25 -56h35
l79 79l99 -86q19 -17 17 -32q-4 -19 -28 -19h-289q-51 0 -138 -11l-36 86q113 -17 174 -17h35zM1078 1237l-37 86q112 -20 175 -20h27l63 72l95 -79q17 -14 16 -28q-1 -21 -27 -21h-174q-64 0 -138 -10zM1061 967l-37 86q108 -17 175 -17h56l66 72l94 -79q16 -14 16 -29
q0 -22 -23 -22h-209q-63 0 -138 -11zM1056 839l93 -60h115l56 71l67 -49q34 -25 39 -44q5 -20 -23 -37q-6 -4 -12 -7q-9 -4 -25 -14v-382l34 -26q13 -11 12 -27q-2 -19 -20 -19h-249v-10q0 -25 -38 -30q-30 -4 -50 15q-7 8 -6 24l3 38l2 33l2 47v477zM1143 301h135v419h-135
v-419zM856 573q112 -119 144 -204q22 -58 2 -89q-18 -27 -44 -22q-30 7 -42 65q-22 115 -87 227zM717 539q150 -192 139 -292q-3 -26 -23 -42q-16 -13 -34 -8q-35 10 -38 95q-2 80 -71 227zM1882 766q-143 -45 -178 -56q-77 -23 -109 -34l-8 -42q-6 -30 -22 -29t-35 39
l-55 113q132 114 265 468q-86 -20 -169 -37l-8 -35q-8 -35 -28 -33q-14 2 -28 36l-45 110q150 175 239 573l128 -47q27 -10 25 -29q-2 -16 -36 -25l-35 -9q-131 -309 -248 -451q112 2 224 8q27 84 48 166l94 -46q55 -28 52 -49q-2 -20 -46 -25l-35 -4q-117 -347 -316 -563
q164 20 311 50q-8 35 -61 145l31 22q143 -180 143 -280q0 -29 -21 -47.5t-43 -10.5q-26 10 -29 60q-1 8 -1 17q-1 15 -4 45zM568 515q121 -177 121 -317q0 -69 -49 -76q-33 -5 -45 31q-7 18 -8 105q-2 128 -49 243zM1660 558q150 -193 138 -292q-3 -26 -22 -42
q-16 -12 -35 -7q-35 10 -37 94q-3 80 -71 227zM1510 525q106 -153 117 -247q5 -46 -20 -69q-21 -18 -42 -10q-29 10 -32 69q-5 115 -53 238zM1822 591q145 -166 158 -300q6 -68 -39 -81q-32 -9 -49 25q-8 17 -20 104q-17 126 -78 234z" />
  </g>

</svg>
