<?xml version="1.0" standalone="no"?>
<!DOCTYPE svg PUBLIC "-//W3C//DTD SVG 1.1//EN" "http://www.w3.org/Graphics/SVG/1.1/DTD/svg11.dtd" >
<svg xmlns="http://www.w3.org/2000/svg" xmlns:xlink="http://www.w3.org/1999/xlink" version="1.1" viewBox="0 0 2048 2048">
  <g transform="matrix(1 0 0 -1 0 2048)">
   <path fill="currentColor"
d="M1746 186q-19 -2 -104 -15q-225 -33 -561 -55q-198 -12 -283 -19l-13 -31q-12 -30 -31 -29q-17 2 -33 48l-38 105l55 1q345 3 505 11v161h-327v-21q0 -26 -43 -30q-65 -6 -60 50q11 113 11 146v219l118 -62h301v62q0 53 -7 93l103 -21q94 -20 92 -52q-1 -25 -50 -38
l-42 -11v-33h334l57 69l73 -49q41 -29 42 -48q1 -22 -66 -56v-142l37 -25q30 -18 27 -34q-3 -17 -32 -17h-472v-157q41 3 190 11q82 4 177 15q-32 34 -71 64l23 34q62 -30 128 -75q95 -66 114 -114q11 -28 -4 -56q-12 -24 -34 -27q-32 -5 -64 53q-21 36 -52 75zM916 417h327
v191h-327v-191zM1339 608v-191h348v191h-348zM813 1088l-2 -330q0 -27 -44 -31q-66 -5 -61 51l4 42q7 96 7 104v155l-33 -4l-39 93q37 -7 72 -13v53l107 -63h419v106h-312v-21q0 -29 -45 -32q-61 -5 -56 43l3 34l1 31l3 49v326l117 -64h702l59 71l72 -50q42 -28 43 -48
q1 -21 -67 -55v-173q3 -67 4 -72q4 -34 4 -41q0 -41 -58 -44q-48 -3 -48 25v21h-326v-106h471l61 72l72 -49q42 -29 43 -48q1 -22 -64 -56v-197q0 -121 -143 -143q1 61 -38 85q-27 18 -96 32v7q-20 9 -28 28q-17 39 -28 54q-98 -16 -250 -36l-121 -18q-127 -16 -199 -28
q-8 -24 -12 -37q-9 -41 -29 -35q-17 5 -41 52l-56 109q167 4 362 17v132zM1697 875q64 -12 91 -10q38 4 38 49v172h-487v-128l210 19q-32 27 -67 50l21 33q102 -44 144 -75q60 -43 54 -93q-1 -6 -4 -17zM931 1301h312v107h-312v-107zM1339 1408v-107h326v107h-326zM931 1458
h312l2 107h-315zM1339 1565v-107h326v107h-326zM458 1022q55 26 173 89l16 -28q-39 -28 -114 -83q-41 -31 -75 -54v-734q0 -142 -151 -170q-10 69 -44 92q-31 22 -149 44l8 46q127 -23 180 -27q68 -5 68 57v637q-33 -22 -80 -49q-43 -25 -78 -47v-45q0 -32 -19 -34
q-16 -1 -40 29l-85 110q18 7 106 40q25 10 196 84v416h-118q-65 0 -149 -12l-39 93q122 -20 188 -20h118v328q0 115 -8 160l96 -24q50 -13 62 -17q22 -8 25 -26q3 -24 -50 -44l-37 -14v-363h99l80 79l101 -85q21 -17 16 -35q-6 -20 -26 -20h-270v-373zM1542 1953l91 -20
q97 -20 80 -53q-6 -12 -32 -21l-49 -17l-10 -43h136l76 76l106 -82q9 -7 11 -22q3 -29 -26 -29h-310l-7 -62q-3 -32 -53 -32q-40 0 -39 24l4 70l-47 -1q-39 -1 -81 -6l-9 -1l-39 89q19 -8 39 -12q72 -14 90 -14l54 1l8 73q1 1 7 82zM678 1817q94 -26 205 -25l76 1l-5 55
q-5 62 -13 105l101 -11q55 -6 70 -15q24 -15 11 -35q-8 -12 -32 -22l-48 -20l4 -58h66l80 72l101 -78q11 -9 14 -20q6 -30 -24 -30h-232l8 -54q7 -40 -64 -40q-28 0 -29 27l-4 67h-80q-102 0 -167 -7z" />
  </g>

</svg>
