<?xml version="1.0" standalone="no"?>
<!DOCTYPE svg PUBLIC "-//W3C//DTD SVG 1.1//EN" "http://www.w3.org/Graphics/SVG/1.1/DTD/svg11.dtd" >
<svg xmlns="http://www.w3.org/2000/svg" xmlns:xlink="http://www.w3.org/1999/xlink" version="1.1" viewBox="0 0 2048 2048">
  <g transform="matrix(1 0 0 -1 0 2048)">
   <path fill="currentColor"
d="M1689 1122l70 82l103 -78q25 -19 25 -38q0 -32 -68 -48q-82 -210 -138 -313q-66 -123 -164 -250q197 -216 463 -283l-2 -35q-61 3 -91 -22q-20 -16 -37 -52q-251 159 -388 327q-96 -105 -199 -177q-135 -96 -356 -167l-12 37q186 83 317 186q94 75 194 195
q-104 152 -167 311q-35 88 -87 266q-29 -1 -73 -7l-39 86q116 -18 188 -19h170v386h-183q-117 0 -192 -8l-38 88q96 -22 230 -22h183v195q0 122 -9 159l109 -24q83 -18 86 -43q3 -29 -50 -44l-41 -11v-232h239l79 101l121 -107q20 -18 16 -33q-6 -19 -26 -19h-429v-387h196z
M1712 1066l-484 1l-28 -1q99 -318 256 -518q159 208 256 518zM160 1592l-39 85q129 -16 188 -16h209v113q0 120 -8 160l109 -24q83 -18 86 -44q3 -29 -50 -43l-42 -11l1 -151h195l83 91l118 -97q20 -17 15 -34q-6 -18 -26 -18h-385v-291h228l98 101l121 -107q20 -18 15 -33
q-6 -18 -26 -18h-255l110 -42q38 -15 40 -37q2 -23 -36 -30q-6 -2 -13 -2q-14 -2 -40 -7q-93 -152 -171 -257h124l98 101l111 -98q29 -26 24 -43q-6 -21 -40 -21l-388 1v-276h251l99 101l120 -107q20 -17 16 -32q-5 -19 -26 -19h-460v-135q0 -105 11 -209q3 -28 3 -54
q0 -39 -49 -42q-62 -4 -62 42l1 398h-255q-69 0 -148 -10l-39 86q115 -19 187 -19h255v276h-183q-146 -3 -192 -8l-42 92q97 -24 190 -24h109q-14 18 -36 104q-33 132 -132 256l16 15q-65 1 -139 -7l-38 88q92 -24 230 -24h217v291h-209q-62 0 -149 -11zM438 880h191
q83 153 144 375h-495q188 -176 200 -296q6 -55 -40 -79z" />
  </g>

</svg>
