<?xml version="1.0" standalone="no"?>
<!DOCTYPE svg PUBLIC "-//W3C//DTD SVG 1.1//EN" "http://www.w3.org/Graphics/SVG/1.1/DTD/svg11.dtd" >
<svg xmlns="http://www.w3.org/2000/svg" xmlns:xlink="http://www.w3.org/1999/xlink" version="1.1" viewBox="0 -205 1024 1024">
  <g transform="matrix(1 0 0 -1 0 819)">
   <path fill="currentColor"
d="M681 988l88 -34q14 -5 6 -11q-19 -4 -29 -18v-140h148l33 42l64 -50q11 -7 8 -10q-2 -3 -19 -2h-234v-173h98l27 31l53 -38q12 -9 -1 -16q-15 -3 -28 -12q-34 -152 -108 -268q-15 -22 -31 -45q2 -2 5 -6q2 -3 9 -11q79 -93 166 -118q33 -8 72 -12v-22q-64 9 -83 -26
q-106 45 -176 124q-8 8 -22 26q-3 3 -4 5q-47 -54 -101 -87q-91 -59 -197 -80l-2 18q87 31 165 84q56 36 109 102q-35 54 -61 117q-42 100 -65 214h-18q-20 2 -32 -12l-24 32h203v343q2 17 -27 42zM124 837l48 -46h256l35 41l52 -49q7 -6 5 -10q-1 -5 -11 -7l-18 -9v-228
l4 -28q7 -40 -50 -44v60h-263q-4 -175 -30 -266q-33 -117 -133 -221l-8 10q83 129 105 253q23 126 21 338v146q-1 27 -24 47zM183 537h262v234h-262v-124q2 -59 0 -110zM678 370q26 -49 50 -87q6 9 13 18q74 112 110 271h-252q32 -114 79 -202zM194 978l6 13q88 -23 126 -70
q42 -66 -8 -80q-16 1 -24 28q-7 28 -28 52q-19 26 -72 57z" />
  </g>

</svg>
