<?xml version="1.0" standalone="no"?>
<!DOCTYPE svg PUBLIC "-//W3C//DTD SVG 1.1//EN" "http://www.w3.org/Graphics/SVG/1.1/DTD/svg11.dtd" >
<svg xmlns="http://www.w3.org/2000/svg" xmlns:xlink="http://www.w3.org/1999/xlink" version="1.1" viewBox="0 -205 1024 1024">
  <g transform="matrix(1 0 0 -1 0 819)">
   <path fill="currentColor"
d="M994 78v-17q-67 12 -88 -19q-65 48 -128 121q-28 33 -54 75q-34 -49 -81 -88q-100 -86 -225 -117l-6 14q93 41 175 106q62 50 112 130q-17 34 -32 73q-42 102 -70 270q-38 -82 -86 -138l-12 11q76 144 113 290t34 158t-17 29l6 9l84 -27q8 -7 -3 -12q-14 -3 -25 -15
q-22 -109 -51 -197h251l29 43l63 -49q11 -7 8 -10q-3 -4 -19 -4h-116q-19 -220 -65 -348q-16 -45 -39 -85q38 -64 77 -105q44 -44 79 -64t86 -34zM238 988l86 -34q14 -5 6 -11q-17 -4 -29 -18v-319h114l32 42l70 -52q8 -5 7 -8q-2 -2 -13 -2h-136v-402q59 63 149 163l15 -14
q-79 -102 -113 -142t-46 -61q-11 -22 -19 -52l-56 44q19 15 26 32v432h-109v-135q-2 -180 -47 -261q-45 -80 -147 -150l-8 14q72 66 114 143q42 78 44 256v133h-64q-27 1 -45 -13l-34 33h222v329q2 17 -27 42zM814 714h-181q-9 -25 -18 -49q24 -104 52 -191q24 -78 59 -145
l3 6q58 113 85 379zM432 899l64 -34q21 -13 7 -19q-19 -3 -29 -13q-56 -115 -110 -192l-16 10q85 186 85 215q-1 11 -9 24zM62 877l10 12q75 -55 105 -129q31 -93 -15 -100q-18 1 -23 47t-23 86q-18 41 -54 84z" />
  </g>

</svg>
