<?xml version="1.0" standalone="no"?>
<!DOCTYPE svg PUBLIC "-//W3C//DTD SVG 1.1//EN" "http://www.w3.org/Graphics/SVG/1.1/DTD/svg11.dtd" >
<svg xmlns="http://www.w3.org/2000/svg" xmlns:xlink="http://www.w3.org/1999/xlink" version="1.1" viewBox="0 0 2048 2048">
  <g transform="matrix(1 0 0 -1 0 2048)">
   <path fill="currentColor"
d="M572 1931l120 -25q70 -14 70 -41q0 -18 -46 -34l-42 -14v-386h256v277q0 110 -8 148l121 -25q70 -14 70 -41q0 -21 -44 -34l-45 -14l1 -201q0 -16 6 -77l5 -83q0 -50 -59 -53q-47 -3 -47 31v14h-608q-25 -9 -46 -9q-43 0 -43 36v289q0 108 -8 148l121 -24q70 -14 70 -42
q0 -20 -46 -34l-44 -14v-292h253v350q0 104 -7 150zM299 1083v-156q-8 -376 -42 -517q-43 -175 -191 -351l-27 25q95 148 125 273q39 167 39 435q0 302 -8 418l112 -70h547l95 95l126 -99q20 -17 15 -34q-6 -19 -26 -19h-765zM350 797q191 -130 191 -219q0 -63 -47 -63
q-28 0 -37 36q-28 119 -128 224zM693 587q137 96 227 260l111 -72q34 -21 27 -42q-4 -14 -21 -15q-8 0 -28 2l-45 5q-108 -90 -242 -161q254 -160 284 -288q18 -75 -33 -86q-33 -7 -58 30q-5 8 -33 76q-47 115 -200 248q-51 -177 -136 -278q-88 -104 -256 -199l-21 33
q183 123 268 294q89 178 89 475q0 81 -10 142l140 -21q46 -6 42 -32q-3 -23 -37 -33l-39 -10q-5 -205 -29 -328zM1778 1361q-49 -319 -96 -454q-63 -182 -172 -347q203 -299 500 -381v-35h-26q-86 0 -131 -70q-269 195 -395 415q-135 -160 -231 -237q-143 -113 -327 -197
l-20 33q326 188 536 482q-55 106 -94 218q-22 62 -80 282l43 13q63 -229 174 -443q169 291 216 721l-348 -1q-74 -201 -176 -346l-35 22q182 324 220 887l137 -38q51 -15 53 -38q2 -25 -48 -34l-47 -9q-8 -40 -19 -108q-24 -142 -65 -277l407 -1l98 102l121 -107
q20 -18 16 -33q-6 -19 -26 -19h-185z" />
  </g>

</svg>
