<?xml version="1.0" standalone="no"?>
<!DOCTYPE svg PUBLIC "-//W3C//DTD SVG 1.1//EN" "http://www.w3.org/Graphics/SVG/1.1/DTD/svg11.dtd" >
<svg xmlns="http://www.w3.org/2000/svg" xmlns:xlink="http://www.w3.org/1999/xlink" version="1.1" viewBox="0 -205 1024 1024">
  <g transform="matrix(1 0 0 -1 0 819)">
   <path fill="currentColor"
d="M673 986l82 -34q14 -5 6 -11q-19 -4 -29 -18v-136h144l33 42l64 -50q11 -7 8 -10q-2 -3 -19 -2h-230v-181h98l27 31l47 -38q12 -9 -1 -16q-15 -3 -28 -12q-35 -150 -103 -262q-15 -24 -30 -45q8 -10 17 -21q84 -100 163 -119q33 -8 68 -9v-22q-60 9 -79 -24
q-98 45 -167 122l-30 36q-44 -53 -94 -88q-83 -62 -185 -84l-2 18q83 31 153 84q52 37 104 105q-33 52 -58 113q-42 99 -66 211h-7q-20 2 -32 -12l-24 32h189v347q2 17 -27 42zM503 387q-4 -104 -4 -148t-12 -91q-12 -50 -39 -70q-26 -21 -68 -33q-6 31 -43 45
q-36 14 -71 26l4 16q45 -15 101 -24q50 -12 66 30q18 40 20 93q2 54 6 174h-355l-27 -32l-41 37q18 7 25 32l22 214q0 20 -10 22l16 11l24 -24h328v243h-349q-18 2 -34 -12l-33 28h404l27 31l45 -35q7 -6 6 -10t-10 -6l-16 -8v-154l6 -79q1 -32 -46 -33v19h-319l-23 -228
h354l21 26l49 -37q5 -9 -6 -11zM111 353l26 -28h179l17 21l46 -23q7 -6 5 -10q-1 -5 -11 -7l-10 -9v-68l4 -39q6 -29 -42 -34v30h-181q-1 -31 -12 -38q-10 -11 -33 -15q5 51 7 96v92q-1 18 -10 20zM837 566h-242q31 -112 74 -198q25 -49 49 -88l11 17q72 110 108 269z
M144 200h181v111h-181v-111zM124 492h160v82h-61q-27 1 -45 -13l-34 27h234l28 32l54 -36q8 -5 7 -8q-2 -2 -13 -2h-132v-82h96l28 34l56 -38q8 -5 7 -8q-2 -2 -13 -2h-293q-27 1 -45 -13zM64 744h164v82h-67q-27 1 -45 -13l-34 27h238l26 32l52 -36q8 -5 7 -8q-2 -2 -13 -2
h-126v-82h80l24 34l52 -38q8 -5 7 -8q-2 -2 -13 -2h-279q-27 1 -45 -13z" />
  </g>

</svg>
