<?xml version="1.0" standalone="no"?>
<!DOCTYPE svg PUBLIC "-//W3C//DTD SVG 1.1//EN" "http://www.w3.org/Graphics/SVG/1.1/DTD/svg11.dtd" >
<svg xmlns="http://www.w3.org/2000/svg" xmlns:xlink="http://www.w3.org/1999/xlink" version="1.1" viewBox="0 -205 1024 1024">
  <g transform="matrix(1 0 0 -1 0 819)">
   <path fill="currentColor"
d="M278 991l87 -36q14 -5 6 -11q-21 -9 -30 -21v-66h127l29 39l62 -45q11 -8 8 -12q-3 -3 -19 -2h-207v-78h111l34 38l41 -45q9 -8 8 -12q0 -4 -8 -6l-18 -12v-63l3 -48q-2 -18 -11 -25q-9 -8 -30 -8v34h-130v-39q58 -16 95 -36q45 -25 54 -52t-7 -37t-30 15q-14 24 -38 48
q-21 19 -74 43v-92l3 -49q0 -21 -13 -30q-13 -10 -39 -15q4 38 7 141v75q-93 -134 -265 -191l-4 12q161 80 240 207h-106v-7q1 -21 -11 -30t-34 -14q4 36 7 101v88q2 12 -19 33l12 16l41 -40h139v78h-147q-27 0 -46 -13l-34 33h227v76q2 16 -30 46zM679 994l75 -31
q12 -7 4 -14q-14 -9 -20 -23v-70h97l39 46l60 -53q5 -5 4 -9t-8 -4h-192v-110h86l35 38l50 -54q8 -9 0 -13q-23 -4 -27 -10q-61 -107 -133 -173q85 -61 233 -72v-15q-43 -1 -50 -6q-15 -3 -25 -29q-116 31 -188 96q-93 -74 -243 -117l-4 16q135 48 222 125q-64 68 -108 194
q-14 -2 -27 -13l-29 33h166v201q0 19 -23 53zM30 65h238v148q2 15 -25 42l8 11l76 -30q14 -5 6 -11q-18 -6 -27 -18v-142h187v262h-321q-27 0 -46 -13l-34 33h711l25 41l69 -47q11 -8 8 -12q-3 -3 -20 -2h-350v-118h190l31 38l60 -44q11 -8 8 -11q-3 -4 -19 -3h-270v-124
h336l30 41l66 -48q10 -8 7 -11t-20 -2h-845q-27 2 -47 -13zM602 706q56 -114 118 -170q69 69 122 170h-240zM164 743v-115h135v115h-135zM471 743h-130v-115h130v115z" />
  </g>

</svg>
