<?xml version="1.0" standalone="no"?>
<!DOCTYPE svg PUBLIC "-//W3C//DTD SVG 1.1//EN" "http://www.w3.org/Graphics/SVG/1.1/DTD/svg11.dtd" >
<svg xmlns="http://www.w3.org/2000/svg" xmlns:xlink="http://www.w3.org/1999/xlink" version="1.1" viewBox="0 -204 1024 1024">
  <g transform="matrix(1 0 0 -1 0 820)">
   <path fill="currentColor"
d="M116 858q44 -12 117 -12h35v30q0 53 -6 80q46 -9 75 -18q11 -4 11 -11q0 -5 -7 -9q-11 -6 -25 -10v-62h80l38 41q31 -24 59 -45q7 -5 7 -10q0 -14 -13 -14h-171v-92h116l41 45q34 -25 64 -49q7 -4 7 -10q0 -14 -14 -14h-345q-71 -2 -97 -7l-20 47q44 -12 117 -12h83v92
h-35q-71 -2 -97 -7zM63 602q38 -10 97 -12v23q0 45 -5 68q39 -8 63 -16q9 -3 9 -9q0 -4 -6 -7q-9 -6 -21 -9v-50h16l29 28l46 -35q5 -3 5 -7q0 -14 -10 -14h-86v-91q5 2 10 3q39 11 91 30l3 -18q-40 -23 -70 -37q-33 -15 -64 -26q-27 -12 -58 -20q-9 -31 -15 -31
q-7 0 -41 70q45 5 80 13q11 2 24 5v101q-55 -2 -76 -6zM308 598q34 -9 84 -11v26q0 45 -5 68q39 -8 63 -16q9 -3 9 -9q0 -4 -6 -7q-9 -6 -21 -9v-54h17l31 32l50 -38q6 -4 6 -8q0 -14 -11 -14h-93v-112h32l34 34q27 -21 52 -40q6 -3 6 -8q0 -14 -12 -14h-143q-71 -2 -97 -7
l-20 47q41 -11 108 -12v111q-45 -2 -64 -6zM60 374q44 -12 117 -12h287l40 43q32 -23 61 -47q7 -5 7 -10q0 -14 -14 -14h-154v-205q0 -8 4 -15q3 -6 12 -10q7 -4 23 -7q27 -4 74 -4h262q52 0 77 2q18 4 32 6q15 5 20 13q8 6 12 21q10 37 20 125l21 -9q-10 -39 -12 -98
q0 -29 8 -35q31 -10 31 -30q0 -8 -5 -13q-4 -5 -21 -12q-19 -8 -53 -12q-37 -3 -130 -3h-262q-64 0 -94 7q-26 2 -42 12q-14 9 -20 22q-5 14 -5 25v220h-102q-1 -40 -5 -70q-4 -42 -15 -69q-8 -34 -24 -60q-17 -29 -36 -49q-24 -24 -55 -42q-28 -19 -66 -32l-13 21
q49 22 73 44q23 20 42 47q18 27 28 59q10 27 15 66q4 32 4 85h-25q-71 -2 -97 -7zM664 948q42 -8 69 -16q10 -3 10 -10q0 -5 -7 -8q-9 -6 -22 -10v-102h126l38 41q31 -24 59 -45q7 -5 7 -10q0 -14 -13 -14h-217v-136h98l32 39q30 -21 52 -41q6 -7 6 -12q-2 -9 -12 -16
q-10 -9 -22 -14q-16 -74 -49 -142q-17 -35 -40 -66q25 -34 44 -63q43 -61 60 -99q9 -21 9 -38q0 -35 -23 -35q-7 0 -18 18q-7 29 -45 100q-21 41 -49 85l-13 -17q-47 -61 -101 -104q-58 -50 -149 -97l-18 15q77 43 128 89q55 47 95 103q17 22 32 49q-12 18 -25 36
q-60 89 -135 179q-15 -2 -21 -4l-18 43q40 -8 115 -8h23v237q0 49 -6 73zM600 609q54 -62 112 -134l39 -50q12 23 23 49q36 71 41 136h-168q-27 0 -47 -1z" />
  </g>

</svg>
