<?xml version="1.0" standalone="no"?>
<!DOCTYPE svg PUBLIC "-//W3C//DTD SVG 1.1//EN" "http://www.w3.org/Graphics/SVG/1.1/DTD/svg11.dtd" >
<svg xmlns="http://www.w3.org/2000/svg" xmlns:xlink="http://www.w3.org/1999/xlink" version="1.1" viewBox="0 -205 1024 1024">
  <g transform="matrix(1 0 0 -1 0 819)">
   <path fill="currentColor"
d="M119 676l33 -36h284l37 37l42 -41q7 -6 5 -10q-1 -5 -11 -7l-18 -9v-282l2 -35q0 -31 -40 -31v32h-293v-9q4 -37 -45 -44q5 37 7 100v286q-3 22 -17 38zM609 922l45 -44q95 17 141 32q78 25 93 34q18 10 11 27l9 4l57 -52q12 -10 13 -16q0 -5 -11 -6q-27 11 -81 -3
q-94 -24 -226 -41v-169q1 -30 1 -58h226l33 38l62 -44q11 -8 8 -11q-2 -4 -19 -3h-112v-429l2 -87q2 -37 -47 -46q5 39 7 132v430h-160q-1 -181 -27 -308q-32 -152 -140 -264l-8 9q86 125 112 261q26 138 25 390v167q-4 21 -26 41zM453 408h-293v-98h293v98zM160 528h293v96
h-293v-96zM453 514h-293v-92h293v92zM217 937q4 -4 3 -6t-6 -2q-16 -1 -29 -13q-7 -20 -23 -55q-3 -9 -5 -13h93l26 36l56 -42q8 -6 7 -9q-2 -3 -13 -3h-159q32 -21 48 -45q38 -68 1 -88q-19 -4 -22 20q-1 24 -12 53q-8 27 -35 57q-7 -16 -23 -44q-3 -5 -5 -8
q-34 -57 -84 -105l-8 12q66 101 106 206q20 52 17 61q-1 9 -12 24l11 5zM461 927q4 -4 3 -6t-6 -2q-16 -1 -29 -13q-12 -31 -25 -58h94l30 38l58 -44q8 -6 7 -9q-2 -3 -13 -3h-159q33 -20 51 -47q46 -71 7 -87q-20 -5 -23 17q-3 23 -15 54q-10 29 -44 63h-2q-13 -30 -30 -56
q-34 -58 -84 -102l-10 8q26 39 57 96q32 57 49 102q18 46 15 55q-1 9 -12 24l11 5zM205 264l59 -44q6 -6 5 -10t-9 -5q-10 3 -27 -5q-99 -98 -198 -149l-6 10q117 96 149 136q40 42 18 59zM353 240l6 12q96 -48 127 -95q36 -53 0 -69q-15 -3 -25 23q-9 25 -40 62
q-30 38 -68 67z" />
  </g>

</svg>
