<?xml version="1.0" standalone="no"?>
<!DOCTYPE svg PUBLIC "-//W3C//DTD SVG 1.1//EN" "http://www.w3.org/Graphics/SVG/1.1/DTD/svg11.dtd" >
<svg xmlns="http://www.w3.org/2000/svg" xmlns:xlink="http://www.w3.org/1999/xlink" version="1.1" viewBox="0 -205 1024 1024">
  <g transform="matrix(1 0 0 -1 0 819)">
   <path fill="currentColor"
d="M456 681l78 -20q14 -5 6 -11q-16 -4 -27 -18l-8 -41h342l32 40l68 -48q8 -5 7 -8q-2 -2 -13 -2h-440l-17 -89h222l35 42l51 -48q7 -6 6 -10q-1 -5 -10 -7l-20 -9v-380h115l32 42l68 -50q8 -5 7 -8q-2 -2 -13 -2h-873q-27 1 -45 -13l-34 31h190v391q3 19 -19 47l12 16
l46 -42h186l16 89h-322q-27 1 -45 -13l-34 31h405l9 51q2 16 -19 28zM168 978l39 -44h542l35 41l52 -49q7 -5 5 -9q-1 -4 -11 -6l-18 -9v-168l4 -40q4 -30 -50 -36v32h-553q-2 -19 -14 -28q-13 -10 -39 -15q5 33 7 93v190q-5 24 -14 36zM213 816h553v102h-553v-102zM766 802
h-553v-96h553v96zM722 368h-461v-96h461v96zM722 258h-461v-91h461v91zM261 382h461v86h-461v-86zM722 153h-461v-81h461v81z" />
  </g>

</svg>
