<?xml version="1.0" standalone="no"?>
<!DOCTYPE svg PUBLIC "-//W3C//DTD SVG 1.1//EN" "http://www.w3.org/Graphics/SVG/1.1/DTD/svg11.dtd" >
<svg xmlns="http://www.w3.org/2000/svg" xmlns:xlink="http://www.w3.org/1999/xlink" version="1.1" viewBox="0 -205 1024 1024">
  <g transform="matrix(1 0 0 -1 0 819)">
   <path fill="currentColor"
d="M950 872v-709q2 -61 -10 -88t-69 -39q-3 33 -34 44q-33 10 -90 25l2 16q110 -23 134 -21q25 2 25 50v736h-314v-710l4 -96q0 -21 -15 -31q-14 -9 -38 -15q4 39 7 159v713q-6 23 -21 36l16 15l43 -51h301l33 40l46 -41q9 -6 9 -11q0 -6 -9 -9zM457 876v-709q2 -62 -10 -88
q-12 -27 -69 -39q-3 33 -34 44q-33 10 -90 25l2 16q110 -23 135 -21q24 2 24 49v737h-291v-714l5 -96q0 -21 -16 -31q-14 -9 -38 -15q4 39 7 159v713q-6 23 -21 36l16 15l40 -47h282l32 40l46 -41q9 -6 9 -11t-9 -9zM653 747l39 -41h81l37 39l42 -47q7 -4 5 -8q-1 -3 -11 -5
l-18 -9v-258l5 -97q-2 -18 -11 -24t-30 -12v56h-95v-45q0 -21 -9 -30t-34 -14q4 36 7 139v305q-3 24 -20 40zM179 747l38 -40h73l37 39l42 -47q7 -4 5 -8q-1 -3 -11 -5l-18 -9v-258l8 -97q-2 -18 -11 -24q-6 -5 -33 -12v56h-86v-46q0 -21 -9 -30t-34 -14q4 36 7 139v305
q-3 24 -20 40zM697 516v-159h95v159h-95zM792 690h-95v-158h95v158zM223 517v-159h86v159h-86zM309 691h-86v-158h86v158z" />
  </g>

</svg>
