<?xml version="1.0" standalone="no"?>
<!DOCTYPE svg PUBLIC "-//W3C//DTD SVG 1.1//EN" "http://www.w3.org/Graphics/SVG/1.1/DTD/svg11.dtd" >
<svg xmlns="http://www.w3.org/2000/svg" xmlns:xlink="http://www.w3.org/1999/xlink" version="1.1" viewBox="0 -205 1024 1024">
  <g transform="matrix(1 0 0 -1 0 819)">
   <path fill="currentColor"
d="M203 482l38 -40h497l35 39l52 -47q7 -5 5 -9q-1 -4 -11 -6l-18 -9v-285l4 -34q7 -40 -50 -44v70h-509v-31q4 -47 -53 -54q5 39 7 97v311q2 12 -12 30zM246 286h509v138h-509v-138zM755 270h-509v-135h509v135zM167 868l39 -38h186l27 31l46 -37q7 -6 5 -10q-1 -5 -11 -7
l-14 -9v-142l4 -26q6 -40 -48 -44v60h-187v-17q4 -48 -51 -54q5 39 7 85v164q-4 14 -18 32zM551 866l39 -38h180l33 35l48 -41q7 -6 6 -11q0 -4 -8 -6l-18 -9v-142l4 -14q6 -40 -48 -44v50h-189v-15q5 -34 -51 -44q0 2 1 5q4 34 6 70v164q-4 12 -18 28zM214 664h187v148
h-187v-148zM598 664h189v146h-189v-146zM36 553h844l32 46l76 -56q8 -5 7 -8q-2 -2 -13 -2h-867q-27 1 -45 -13zM76 945h738l32 44l74 -54q8 -5 7 -8q-2 -2 -13 -2h-759q-27 1 -45 -13z" />
  </g>

</svg>
