<?xml version="1.0" standalone="no"?>
<!DOCTYPE svg PUBLIC "-//W3C//DTD SVG 1.1//EN" "http://www.w3.org/Graphics/SVG/1.1/DTD/svg11.dtd" >
<svg xmlns="http://www.w3.org/2000/svg" xmlns:xlink="http://www.w3.org/1999/xlink" version="1.1" viewBox="0 -205 1024 1024">
  <g transform="matrix(1 0 0 -1 0 819)">
   <path fill="currentColor"
d="M46 917l37 -50h122l33 41l48 -49q7 -6 5 -10q-1 -5 -11 -7l-18 -9v-562l4 -54q6 -38 -44 -43v71h-133v-58q3 -46 -47 -52q5 37 7 76v652q-4 24 -18 42zM994 77l-2 -16q-3 1 -8 2q-45 18 -67 -7q-94 133 -120 299q-7 44 -13 99q-22 -173 -72 -251q-67 -103 -171 -161
l-6 16q81 58 144 164q64 108 74 384q-3 17 -16 27l6 11l86 -23q5 -4 4 -7q-2 -3 -10 -7q-19 -6 -27 -27q-1 -8 -1 -16q15 -110 32 -188q19 -88 40 -138q23 -49 39 -80q33 -60 88 -81zM600 511l56 -41q5 -5 4 -9q0 -3 -7 -5q-17 3 -28 -4t-55 -44q-38 -31 -85 -66
q42 -17 78 -43q50 -34 65 -71q14 -44 -15 -56q-16 -4 -29 31q-12 35 -39 61q-22 23 -66 56q-16 -88 -83 -158q-68 -70 -163 -112l-6 16q77 42 148 124q71 83 78 231v151q-7 23 -18 28l8 10l74 -27q8 -4 9 -7q1 -4 -5 -8q-21 -4 -28 -15q2 -108 -7 -185q38 39 66 67
q39 39 39 50q1 11 -1 20zM222 555h-133v-290h133v290zM89 573h133v274h-133v-274zM588 901l54 -41q5 -5 4 -9q0 -3 -7 -5q-16 1 -27 -5q-10 -6 -50 -40q-36 -30 -81 -65q0 -2 -1 -4q38 -9 76 -26q51 -24 70 -56q19 -39 -8 -52q-13 -4 -27 21q-13 26 -40 50q-24 21 -75 43
q-16 -61 -51 -99q-70 -74 -138 -92l-6 14q59 29 117 99q58 71 52 232v65q-1 20 -21 39l6 10l88 -33q9 -8 -8 -14q-7 -3 -19 -10q-5 -3 -7 -4v-54q2 -55 -4 -100q13 14 36 39q15 16 22 23q34 35 34 46q1 11 -1 20zM983 717q4 -11 -14 -11q-3 -1 -7 -2q-16 10 -88 -104l-14 8
q24 52 47 106h-188q-37 -111 -87 -172l-12 9q56 125 84 249q29 126 28 141q0 15 -14 29l8 10l68 -24q18 -7 7 -15q-23 -2 -29 -23q-20 -104 -46 -184h173l28 36zM377 491q10 -108 -14 -147q-34 -48 -62 -22q-10 15 13 32t34 47q12 30 14 90h15zM373 867q13 -108 -14 -145
q-14 -22 -36 -29q-20 -6 -27 10q-7 18 19 33t33 43q8 28 10 88h15z" />
  </g>

</svg>
