<?xml version="1.0" standalone="no"?>
<!DOCTYPE svg PUBLIC "-//W3C//DTD SVG 1.1//EN" "http://www.w3.org/Graphics/SVG/1.1/DTD/svg11.dtd" >
<svg xmlns="http://www.w3.org/2000/svg" xmlns:xlink="http://www.w3.org/1999/xlink" version="1.1" viewBox="0 -205 1024 1024">
  <g transform="matrix(1 0 0 -1 0 819)">
   <path fill="currentColor"
d="M197 998l41 -38h524l29 29l42 -33q7 -4 5 -8q-1 -3 -11 -5l-12 -9v-121l3 -59q2 -15 -12 -24q-16 -10 -33 -12v41h-527v-5q0 -21 -12 -30t-37 -14q4 36 7 90v149q2 12 -19 33zM272 440v2q-40 -24 -93 -43q-78 -28 -155 -42l-2 14q73 23 136 50q61 27 105 59q40 28 65 55
h-220q-27 0 -45 -13l-34 33h291v91h-93q-27 1 -45 -14l-34 34h172v36q2 16 -19 34l8 11l74 -26q15 -5 7 -11q-19 -6 -28 -18v-26h286v38q2 16 -20 34l8 11l75 -26q14 -5 6 -11q-18 -6 -27 -18v-28h110l20 28l56 -38q7 -5 6 -8q-1 -2 -12 -2h-180v-91h200l21 28l56 -38
q7 -5 6 -8q-1 -2 -12 -2h-256q25 -26 58 -47q36 -24 69 -38q34 -14 64 -23q31 -9 58 -10q26 -2 62 -2v-14q-34 -6 -48 -11q-15 -6 -18 -24q-58 13 -105 37q-42 22 -84 52q-42 28 -84 80h-290q-46 -49 -95 -81q-1 0 -3 -2q-2 -1 -3 -2q94 -19 130 -54q30 -36 0 -51
q-13 -2 -26 17q-14 20 -40 39q-29 21 -78 39zM773 944h-527v-82h527v82zM477 522l87 -32q14 -5 6 -11q-21 -9 -30 -21v-261h288l41 40l75 -47q11 -7 9 -10t-17 -3h-396v-67l3 -57q0 -21 -13 -30t-39 -14q4 37 7 147v21h-346q-31 0 -46 -11l-34 31h426v271q2 15 -30 42z
M246 848v-73h527v73h-527zM362 646v-91h286v91h-286zM348 277q-67 -27 -79 -35q-14 -9 -31 -33l-52 52l261 70l4 -13zM580 315l4 15q154 -18 204 -59q21 -18 18 -38t-14 -20q-12 -2 -30 19q-18 22 -58 42q-44 23 -124 41zM723 472l51 -50q6 -4 7 -8q0 -4 -5 -6
q-29 -1 -47 -4q-26 -4 -70 -23l-77 -33l-8 13l88 48q50 30 54 39q8 9 0 18z" />
  </g>

</svg>
