<?xml version="1.0" standalone="no"?>
<!DOCTYPE svg PUBLIC "-//W3C//DTD SVG 1.1//EN" "http://www.w3.org/Graphics/SVG/1.1/DTD/svg11.dtd" >
<svg xmlns="http://www.w3.org/2000/svg" xmlns:xlink="http://www.w3.org/1999/xlink" version="1.1" viewBox="0 -204 1024 1024">
  <g transform="matrix(1 0 0 -1 0 820)">
   <path fill="currentColor"
d="M404 922q44 -12 117 -12h263l44 49q36 -27 68 -52q8 -5 8 -11q0 -14 -15 -14h-233v-56h233l30 31q35 -25 63 -54q3 -3 3 -6q0 -7 -19 -11q-16 -4 -31 -7q-11 -15 -26 -31q-16 -18 -32 -32l-17 13q12 19 19 36q8 17 12 33h-235v-120q0 -21 1 -26q2 -6 2 -37q0 -20 -39 -23
q-15 0 -15 17q0 18 1 27q2 5 2 42v120h-211l-3 -28q-5 -24 -14 -40q-6 -14 -16 -23q-9 -9 -17 -12t-15 -3q-24 0 -24 17q0 6 11 17q26 24 37 42q12 16 19 38q6 20 8 54l13 -2q2 -18 2 -32h210v56h-87q-71 -2 -97 -7zM439 768q38 -3 63 -9q28 -6 41 -14q15 -8 19 -17
q4 -6 4 -14q0 -22 -18 -22q-3 0 -10 3q-27 19 -56 33q-28 13 -50 17zM580 677v-18q-28 -15 -59 -26q-31 -13 -66 -23q-14 -33 -21 -33q-3 0 -7 7q-21 36 -39 79q51 0 102 4q50 4 90 10zM809 732q-25 -14 -58 -22q-29 -9 -61 -10l-10 24q26 1 52 11q24 11 44 27q14 10 28 28
q52 -42 52 -54q0 -9 -10 -9q-16 0 -37 5zM691 680q55 -3 91 -10q40 -7 59 -16q21 -10 27 -20q6 -7 6 -16q0 -22 -18 -22q-4 0 -15 4q-40 21 -83 37q-41 15 -74 20zM348 338q44 -12 117 -12h379l41 45q34 -25 64 -49q7 -4 7 -10q0 -14 -14 -14h-282v-216h212l41 45
q34 -25 64 -49q7 -4 7 -10q0 -14 -14 -14h-569q-71 -2 -97 -7l-20 47q44 -12 117 -12h211v216h-147q-71 -2 -97 -7zM455 272q87 -12 87 -26q0 -15 -44 -18q-8 -14 -14 -23q19 -6 36 -13q28 -13 42 -22t19 -15q6 -8 9 -14q2 -5 2 -11q0 -22 -20 -22q-3 0 -8 4q-4 3 -11 10
q-11 12 -20 20q-12 9 -30 19q-13 10 -35 22q-3 -4 -5 -6q-16 -17 -41 -36q-22 -20 -59 -37l-15 21q30 21 50 43q21 24 35 47q16 28 22 57zM771 276q87 -12 87 -26q0 -15 -44 -18q-7 -14 -13 -25q17 -5 34 -12q25 -11 38 -18q13 -9 17 -14q5 -6 8 -12q2 -4 2 -9
q0 -22 -20 -22q-3 0 -7 3t-10 9q-10 10 -18 17l-27 17q-12 8 -31 18q-1 -2 -2 -3q-13 -17 -34 -36q-18 -20 -48 -37l-15 21q23 21 38 43q17 24 28 47q12 28 17 57zM72 901l61 -43h101l34 42q37 -23 55 -43q7 -7 7 -13q0 -9 -38 -32v-446q0 -74 3 -98q1 -28 1 -46
q0 -16 -11 -24q-14 -6 -24 -6q-17 0 -17 13v49h-120v-50q0 -12 -16 -12q-9 0 -24 6q-12 9 -12 24q0 18 3 47q4 22 4 97v464q0 41 -7 71zM124 282h120v264h-120v-264zM124 574h120v256h-120v-256zM342 589l53 -23h64l28 25q47 -33 47 -46q0 -9 -28 -23v-94q7 -5 13 -10
q5 -3 5 -6q0 -14 -8 -14h-132v-27q0 -9 -10 -14q-13 -5 -21 -5q-11 0 -11 12q0 3 1 12q1 19 1 35v121q0 41 -2 57zM384 426h72l6 5v103l-1 4h-77v-112zM546 585l53 -23h68l32 29q47 -33 47 -46q0 -9 -28 -23v-94q7 -5 13 -10q5 -3 5 -6q0 -14 -8 -14h-140v-19q0 -9 -10 -14
q-13 -5 -21 -5q-11 0 -11 12q0 3 1 12q1 19 1 35v109q0 41 -2 57zM588 426h80l6 5v103h-86v-108zM762 585l53 -23h64l32 29q47 -33 47 -46q0 -9 -28 -23v-91q9 -6 17 -13q5 -3 5 -6q0 -14 -8 -14h-140v-15q0 -9 -10 -14q-13 -5 -21 -5q-11 0 -11 12q0 3 1 12q1 19 1 35v105
q0 41 -2 57zM804 426h80l2 2v106h-82v-108z" />
  </g>

</svg>
