<?xml version="1.0" standalone="no"?>
<!DOCTYPE svg PUBLIC "-//W3C//DTD SVG 1.1//EN" "http://www.w3.org/Graphics/SVG/1.1/DTD/svg11.dtd" >
<svg xmlns="http://www.w3.org/2000/svg" xmlns:xlink="http://www.w3.org/1999/xlink" version="1.1" viewBox="0 0 2048 2048">
  <g transform="matrix(1 0 0 -1 0 2048)">
   <path fill="currentColor"
d="M504 1293v-16q0 -46 -69 -40q-42 4 -38 53l3 54q9 134 9 142v427l111 -77h1051l69 77l83 -55q39 -26 40 -49q2 -28 -79 -61v-309q0 -47 7 -104q3 -27 3 -44q0 -42 -49 -52q-25 -5 -46 7q-15 8 -15 21v26h-1080zM504 1353h1080v189h-1080v-189zM504 1600h1080v179h-1080
v-179zM978 1176l113 -24q82 -17 85 -44q4 -29 -49 -43l-43 -12v-305h296l99 102l121 -107q20 -18 15 -33q-6 -19 -26 -19h-505v-296q0 -112 12 -222q3 -27 3 -54q0 -38 -48 -42q-66 -5 -66 42v572h-288q-117 0 -192 -8l-38 88q95 -23 230 -23h288v268q0 120 -7 160z
M599 1132q252 -135 273 -256q5 -27 -9 -48t-37 -23q-31 -2 -49 38q-75 175 -199 256zM1189 600q157 -79 253 -153q131 -101 131 -169q0 -72 -57 -64q-31 3 -63 59q-86 149 -285 294zM1357 1144l123 -60q38 -18 32 -41q-5 -23 -50 -23h-48q-74 -121 -220 -214l-21 28
q119 131 184 310zM768 620l102 -65q42 -27 36 -52q-6 -21 -43 -18l-51 5q-173 -188 -374 -303l-22 39q120 87 190 163q73 80 162 231zM1695 1152l109 -24q83 -18 86 -44q3 -28 -50 -43l-38 -11v-688l3 -69l4 -83q6 -72 1 -88q-11 -33 -55 -33q-52 0 -52 31v892q0 118 -8 160
zM282 1173l113 -24q82 -18 85 -44q4 -29 -49 -44l-41 -11v-269q0 -287 -43 -429q-44 -148 -200 -294l-30 26q88 122 117 204q56 157 56 470v255q0 112 -8 160z" />
  </g>

</svg>
