<?xml version="1.0" standalone="no"?>
<!DOCTYPE svg PUBLIC "-//W3C//DTD SVG 1.1//EN" "http://www.w3.org/Graphics/SVG/1.1/DTD/svg11.dtd" >
<svg xmlns="http://www.w3.org/2000/svg" xmlns:xlink="http://www.w3.org/1999/xlink" version="1.1" viewBox="0 -205 1024 1024">
  <g transform="matrix(1 0 0 -1 0 819)">
   <path fill="currentColor"
d="M29 95h380v354h-246q-27 0 -46 -13l-34 33h422v122h-237v-17q0 -21 -13 -31q-15 -10 -40 -15q4 39 7 172v100q-6 24 -18 34l15 12l34 -34h252v74h-346q-27 0 -46 -13l-34 33h426v42q2 16 -30 46l9 12l89 -36q14 -5 6 -11q-20 -9 -29 -21v-32h292l41 51l75 -58
q11 -8 8 -11q-3 -4 -19 -2h-397v-74h212l45 35l42 -43q9 -12 -6 -17l-14 -9v-68l3 -125q-1 -18 -15 -29q-15 -12 -36 -16l3 51h-234v-122h292l41 50l75 -58q11 -8 8 -11q-3 -2 -19 -1h-314v-354h251l42 51l74 -59q11 -7 8 -10t-19 -2h-881q-27 2 -45 -13zM453 449v-354h136
v354h-136zM268 792v-84h237v84h-237zM785 792h-235v-84h235v84zM268 692v-81h237v81h-237zM550 692v-81h235v81h-235zM779 378l70 -42q19 -9 7 -17q-16 0 -33 -7q-48 -100 -110 -187l-14 9l27 68q57 126 57 141q-1 13 -13 25zM210 358l10 9q41 -30 66 -61q24 -32 38 -68
q12 -35 8 -62q-6 -26 -22 -26q-18 0 -21 40q-4 39 -24 83q-21 43 -55 85z" />
  </g>

</svg>
