<?xml version="1.0" standalone="no"?>
<!DOCTYPE svg PUBLIC "-//W3C//DTD SVG 1.1//EN" "http://www.w3.org/Graphics/SVG/1.1/DTD/svg11.dtd" >
<svg xmlns="http://www.w3.org/2000/svg" xmlns:xlink="http://www.w3.org/1999/xlink" version="1.1" viewBox="0 -205 1024 1024">
  <g transform="matrix(1 0 0 -1 0 819)">
   <path fill="currentColor"
d="M388 882v-728q10 -114 -72 -124q1 38 -78 59l-18 6l4 18q78 -19 98 -17t20 50v311h-147q-6 -129 -29 -227q-31 -131 -114 -214l-12 12q64 97 88 216q24 121 24 353v296q-6 24 -27 51l9 10l50 -38h142l30 41l52 -43q9 -6 9 -11q0 -4 -9 -8zM688 639q-1 23 -26 46l8 11
l88 -38q9 -4 11 -7q2 -4 -4 -7q-18 -5 -31 -16v-498q-1 -38 -18 -58q-16 -20 -80 -36q-7 35 -29 43q-22 7 -86 27l4 16l42 -8q75 -17 96 -7q25 8 25 51v481zM998 761q11 -11 -3 -17q-25 7 -45 -25q-4 -6 -30 -43q-28 -39 -47 -67l-17 6l60 132h-344q-6 -15 -13 -30
q-43 -100 -125 -190l-12 10q69 110 106 210t47 146q11 47 9 54q-1 8 -13 22l7 10l77 -27q7 -5 7 -8q-1 -4 -10 -6q-12 -3 -18 -8t-19 -59q-9 -40 -35 -104h335l29 41zM198 679v-122q0 -43 -2 -82h146v204h-144zM198 697h144v199h-144v-199zM793 509l12 10q87 -88 117 -145
t41 -97q21 -87 -20 -93q-19 0 -27 49q-6 50 -27 109t-96 167zM551 526l72 -26q7 -2 7 -6q0 -3 -7 -7q-20 -1 -32 -24q-48 -163 -157 -281l-10 10q80 131 105 209q27 79 27 92q0 14 -12 24z" />
  </g>

</svg>
