<?xml version="1.0" standalone="no"?>
<!DOCTYPE svg PUBLIC "-//W3C//DTD SVG 1.1//EN" "http://www.w3.org/Graphics/SVG/1.1/DTD/svg11.dtd" >
<svg xmlns="http://www.w3.org/2000/svg" xmlns:xlink="http://www.w3.org/1999/xlink" version="1.1" viewBox="0 -200 1000 1000">
  <g transform="matrix(1 0 0 -1 0 800)">
   <path fill="currentColor"
d="M883 293q-1 -55 -3 -91t-5.5 -58t-9 -32.5t-14 -15t-20 -5.5t-26.5 -4h-243q-46 16 -46 93q0 26 5.5 58t18.5 70q21 68 46.5 132.5t54.5 131t62 139.5t69 158l47 33l-62 71l-48 -53h-244l26 -42l72 17h155q-38 -91 -72 -171.5t-65 -155.5t-58 -147t-50 -145
q-7 -28 -10 -54t-3 -50q0 -66 23.5 -99.5t61.5 -39.5h288q15 0 34 2t35.5 6.5t29 11t15.5 15.5q-2 9 -7 11.5t-11 6.5t-12 13t-11.5 31t-9 61t-3.5 103zM49 276q27 53 55 112.5t51.5 119.5t40.5 118t22 108h-71l-72 -15l-19 37h166v245l77 -32l-21 -67v-146h55l51 47l64 -69
h-170v-119q22 -15 44.5 -30.5t41.5 -31t34 -30.5t22 -28q9 -15 9 -33t-10 -32t-30 -14q-8 0 -13 10.5t-11 27.5q-8 16 -15 29.5t-16.5 28.5t-22.5 34t-33 46v-564q-10 -12 -22 -17t-35 -12l1 536q-32 -63 -69 -131.5t-91 -135.5z" />
  </g>

</svg>
