<?xml version="1.0" standalone="no"?>
<!DOCTYPE svg PUBLIC "-//W3C//DTD SVG 1.1//EN" "http://www.w3.org/Graphics/SVG/1.1/DTD/svg11.dtd" >
<svg xmlns="http://www.w3.org/2000/svg" xmlns:xlink="http://www.w3.org/1999/xlink" version="1.1" viewBox="0 -204 1024 1024">
  <g transform="matrix(1 0 0 -1 0 820)">
   <path fill="currentColor"
d="M808 854q-42 -30 -93 -57q-47 -25 -96 -44q-44 -20 -89 -36q-4 -18 -9 -30q102 -25 179 -51q90 -30 137 -54q52 -22 73 -37q20 -11 28 -23q6 -11 6 -19q0 -26 -21 -26q-14 0 -28 5q-16 4 -51 26q-45 32 -100 58q-52 29 -117 56q-54 22 -116 42q-19 -34 -47 -60
q-31 -33 -84 -56q-68 -30 -132 -48q-78 -19 -166 -29l-14 19q131 21 197 44q62 20 108 48q40 23 69 58q24 28 34 67q12 37 12 78v1q0 104 -11 170q52 -7 88 -19q14 -2 14 -14q0 -7 -14 -15q-15 -7 -29 -12v-111q0 -25 -3 -45q42 21 74 38q40 22 73 47q33 24 58 49
q26 24 41 48q81 -49 81 -62q0 -11 -19 -11q-12 0 -33 5zM193 896q49 -28 87 -56q38 -26 59 -46q22 -18 32 -30q8 -12 12 -24q5 -9 5 -20q-1 -32 -24 -32q-8 0 -15 5q-6 6 -31 45t-54 70q-31 33 -84 73zM72 418q44 -12 117 -12h299v58q0 53 -6 80q51 -8 84 -23q12 -6 12 -15
q0 -10 -10 -13q-14 -11 -32 -12v-75h296l47 53l72 -55q9 -6 9 -12q0 -14 -16 -14h-383q34 -44 74 -77q48 -41 108 -79q60 -36 121 -62q58 -24 110 -34l-3 -20q-57 0 -76 -35q-59 22 -106 53q-53 33 -92 70q-43 35 -85 77q-36 36 -76 91v-245q0 -27 2 -36v-35q0 -22 -30 -22
q-24 0 -24 27q0 12 3 32q1 19 1 34v242q-25 -36 -55 -64q-44 -45 -98 -82q-47 -35 -107 -70q-61 -33 -148 -70l-13 18q87 40 147 78q60 35 108 77q45 35 78 75q27 31 43 57h-254q-71 -2 -97 -7z" />
  </g>

</svg>
