<?xml version="1.0" standalone="no"?>
<!DOCTYPE svg PUBLIC "-//W3C//DTD SVG 1.1//EN" "http://www.w3.org/Graphics/SVG/1.1/DTD/svg11.dtd" >
<svg xmlns="http://www.w3.org/2000/svg" xmlns:xlink="http://www.w3.org/1999/xlink" version="1.1" viewBox="0 0 2048 2048">
  <g transform="matrix(1 0 0 -1 0 2048)">
   <path fill="currentColor"
d="M624 1597l1 -123q140 -53 215 -93q126 -68 132 -135q1 -21 -11 -38q-13 -17 -31 -17q-29 0 -61 38q-88 105 -244 194v-133q1 -112 10 -190q3 -26 3 -53q0 -39 -49 -42q-63 -4 -63 42v461q-187 -320 -458 -481l-25 33q269 233 403 537h-102q-110 0 -192 -8l-39 88
q96 -22 231 -22h182v129q0 115 -7 160l109 -24q82 -18 85 -44q4 -29 -49 -44l-40 -11v-166h123l98 101l121 -107q19 -17 16 -33q-5 -19 -26 -19h-332zM1323 1597h-102q-108 0 -192 -8l-38 88q96 -22 230 -22h183v125q0 115 -8 160l109 -24q82 -18 86 -44q3 -29 -50 -44
l-39 -11v-162h214l98 101l121 -107q19 -17 15 -33q-4 -19 -26 -19h-422v-110q447 -187 437 -324q-4 -48 -42 -54q-37 -5 -93 73q-95 135 -302 256l1 -152q0 -109 9 -189q3 -28 3 -54q0 -39 -49 -42q-62 -4 -62 42v489q-143 -274 -462 -474l-20 32q261 195 401 507zM137 63
l-12 34q270 101 393 233q90 97 109 239q11 90 11 193q0 98 -6 204l113 -72h497l68 77l84 -55q40 -26 40 -48q0 -28 -78 -62v-466h-1v-63q0 -41 17 -58q14 -14 72 -14h265q62 0 85 22q19 19 31 95l34 223l38 3l-14 -245q-2 -44 49 -92q11 -10 12 -24q7 -72 -187 -73h-326
q-106 0 -138 27q-35 29 -35 101v594h-522l-1 -123q-3 -225 -91 -350q-136 -192 -507 -300z" />
  </g>

</svg>
