<?xml version="1.0" standalone="no"?>
<!DOCTYPE svg PUBLIC "-//W3C//DTD SVG 1.1//EN" "http://www.w3.org/Graphics/SVG/1.1/DTD/svg11.dtd" >
<svg xmlns="http://www.w3.org/2000/svg" xmlns:xlink="http://www.w3.org/1999/xlink" version="1.1" viewBox="0 -205 1024 1024">
  <g transform="matrix(1 0 0 -1 0 819)">
   <path fill="currentColor"
d="M55 402h426v59q2 15 -24 42l9 12l85 -32q14 -5 6 -11q-21 -9 -30 -21v-49h345l32 46l74 -54q11 -8 8 -11t-19 -1h-412q32 -49 70 -79q42 -36 92 -69t87 -48q36 -15 73 -26q34 -8 114 -15v-21q-51 1 -64 -5q-13 -7 -21 -25q-122 41 -191 87q-76 51 -111 91q-39 39 -75 110
h-2v-239l3 -64q0 -21 -15 -31q-15 -9 -41 -15q4 39 7 150v199q-80 -118 -198 -191q-125 -75 -251 -104l-4 18q118 45 222 111q106 68 174 166h-289q-28 0 -46 -14zM509 773h187q9 48 11 110v47h-97q-27 0 -45 -13l-34 33h309l31 42l67 -50q11 -8 8 -11q-3 -2 -19 -1h-176
v-51q-2 -59 -10 -106h135l32 42l66 -50q11 -8 8 -11q-3 -2 -19 -1h-226q-6 -26 -14 -47q76 -29 124 -58q53 -37 71 -65q15 -30 11 -48q-5 -19 -20 -21q-15 -3 -34 33q-18 35 -57 71q-34 32 -102 69q-14 -33 -34 -57q-68 -77 -162 -118l-8 18q86 51 138 122q27 36 42 101
h-104q-27 0 -45 -13zM77 773h185q4 24 7 50v107h-82q-27 0 -45 -13l-35 33h263l28 38l66 -46q11 -8 8 -11q-3 -2 -19 -1h-140v-111q-3 -24 -6 -46h92l27 38l66 -46q11 -8 8 -11q-3 -2 -19 -1h-178q-4 -19 -9 -36q59 -23 108 -55q45 -35 60 -61q14 -27 9 -45t-20 -20
q-15 -3 -30 30q-15 30 -48 65q-28 30 -84 67q-20 -60 -53 -103q-63 -81 -170 -131l-8 16q97 66 146 135q36 53 54 138h-101q-27 0 -46 -13z" />
  </g>

</svg>
