<?xml version="1.0" standalone="no"?>
<!DOCTYPE svg PUBLIC "-//W3C//DTD SVG 1.1//EN" "http://www.w3.org/Graphics/SVG/1.1/DTD/svg11.dtd" >
<svg xmlns="http://www.w3.org/2000/svg" xmlns:xlink="http://www.w3.org/1999/xlink" version="1.1" viewBox="0 0 2048 2048">
  <g transform="matrix(1 0 0 -1 0 2048)">
   <path fill="currentColor"
d="M387 1507v256q0 117 -8 160l109 -24q83 -18 86 -43q3 -30 -50 -44l-40 -11v-294h68l98 102l121 -107q21 -18 16 -34q-6 -19 -26 -19h-277v-177q268 -183 275 -301q2 -33 -20 -54q-12 -12 -25 -12q-34 0 -69 78q-51 113 -161 224v-837q0 -110 12 -209q3 -28 3 -54
q0 -38 -49 -42q-63 -4 -63 42v1096q-116 -404 -302 -636l-32 23q98 155 180 411q66 204 103 448l-56 2l-91 -3q-36 0 -72 -6l-38 88q89 -21 201 -22zM1099 876l36 -21q-70 -165 -145 -296q-91 -162 -178 -303l9 -61q3 -19 -7 -29q-8 -8 -17 -5q-22 8 -59 52l-72 83
q238 224 433 580zM827 1865q267 -146 274 -259q2 -26 -16 -46q-20 -22 -45 -20q-34 3 -52 51q-49 132 -182 243zM773 1338q323 -135 288 -258q-11 -39 -46 -39q-41 0 -80 78q-50 99 -186 184zM1765 222h-441v-88q0 -47 -45 -50q-59 -3 -59 51q0 3 3 45q1 11 2 71q1 22 2 57
q3 58 3 82v1328q0 49 -12 148l119 -83h417l61 77l84 -54q49 -32 46 -52q-3 -22 -85 -58v-1298l2 -65q3 -99 6 -153q1 -24 1 -34q0 -54 -55 -54q-49 0 -49 34v96zM1324 1292h441v434h-441v-434zM1324 796h441v437h-441v-437zM1324 279h441v456h-441v-456z" />
  </g>

</svg>
