<?xml version="1.0" standalone="no"?>
<!DOCTYPE svg PUBLIC "-//W3C//DTD SVG 1.1//EN" "http://www.w3.org/Graphics/SVG/1.1/DTD/svg11.dtd" >
<svg xmlns="http://www.w3.org/2000/svg" xmlns:xlink="http://www.w3.org/1999/xlink" version="1.1" viewBox="0 -205 1024 1024">
  <g transform="matrix(1 0 0 -1 0 819)">
   <path fill="currentColor"
d="M653 996l78 -30q16 -9 7 -15q-22 -2 -36 -14q-34 -64 -65 -111h204l36 41l56 -49q7 -6 6 -10q-2 -5 -12 -7l-20 -9v-216l5 -32q2 -23 -12 -32t-41 -12v52h-159l-81 -152h264l38 41l55 -48q7 -6 5 -11t-12 -7l-19 -9v-257l5 -32q1 -22 -12 -32q-12 -9 -41 -12v74h-407v-35
q0 -21 -14 -31q-15 -9 -41 -15q4 39 7 142v224q-6 24 -19 42l16 11l43 -45h104l57 152h-113v-22q0 -21 -15 -31q-14 -10 -41 -15q4 39 7 147v189q-6 24 -19 42l16 12l44 -48h83q45 101 49 136q-2 12 -14 27zM902 380h-407v-253h407v253zM39 227l-14 8q159 230 189 470h-97
q-28 0 -47 -13l-36 33h186v223q1 16 -32 46l9 12l96 -36q15 -5 7 -11q-23 -9 -32 -21v-213h68l31 43l64 -49q11 -8 9 -12q-3 -3 -20 -2h-152v-119q40 -18 70 -37q35 -24 48 -54q12 -30 6 -50q-8 -21 -25 -22q-18 -1 -22 31q-6 32 -27 63q-17 23 -50 47v-403l2 -97
q0 -21 -16 -31q-15 -9 -42 -15q3 19 8 190v314q-51 -147 -181 -295zM859 806h-324v-234h324v234z" />
  </g>

</svg>
