<?xml version="1.0" standalone="no"?>
<!DOCTYPE svg PUBLIC "-//W3C//DTD SVG 1.1//EN" "http://www.w3.org/Graphics/SVG/1.1/DTD/svg11.dtd" >
<svg xmlns="http://www.w3.org/2000/svg" xmlns:xlink="http://www.w3.org/1999/xlink" version="1.1" viewBox="0 0 2048 2048">
  <g transform="matrix(1 0 0 -1 0 2048)">
   <path fill="currentColor"
d="M994 1709q-18 -3 -263 -34l-3 47q138 10 317 75q122 44 200 109l96 -101q15 -16 13 -28q-2 -11 -16 -14q-12 -2 -30 2l-51 11q-95 -32 -164 -49v-357h57l76 86l101 -91q20 -19 16 -34q-6 -19 -26 -19h-224q0 -210 -9 -402h77l64 87l110 -92q20 -17 15 -33q-5 -19 -25 -19
h-245q-21 -233 -83 -381q-80 -189 -262 -375l-30 26q162 221 220 402q44 137 58 328h-61q-63 0 -138 -8l-39 88q96 -23 177 -23h65q9 106 9 144l-2 204v54h-64q-49 0 -131 -8l-37 89q93 -23 168 -23h64v339zM373 1469v310q0 117 -8 159l109 -24q82 -18 85 -43q4 -29 -49 -44
l-40 -11v-347h69l75 94l117 -99q21 -18 16 -34q-6 -18 -26 -18h-251v-130q249 -182 256 -288q2 -33 -20 -55q-12 -12 -25 -12q-35 0 -70 79q-46 104 -141 205l-1 -864q0 -105 12 -209q3 -28 3 -54q0 -39 -49 -42q-62 -4 -62 42v1033q-105 -316 -284 -569l-32 23
q198 346 283 841h-26q-119 0 -192 -8l-38 88q98 -23 230 -23h59zM1774 1806l68 76l84 -54q40 -26 40 -49q0 -33 -80 -61v-1467q0 -144 -158 -172q-2 67 -43 94q-32 20 -160 43l8 46q134 -22 190 -27q68 -5 68 57v526l-282 1q-22 -305 -62 -439q-54 -182 -154 -307l-30 24
q91 183 126 404q33 208 33 500l1 689q1 81 -10 187l111 -70zM1791 1749l-278 2l1 -404l277 -1v403zM1513 876l278 -1v414h-278v-413z" />
  </g>

</svg>
