<?xml version="1.0" standalone="no"?>
<!DOCTYPE svg PUBLIC "-//W3C//DTD SVG 1.1//EN" "http://www.w3.org/Graphics/SVG/1.1/DTD/svg11.dtd" >
<svg xmlns="http://www.w3.org/2000/svg" xmlns:xlink="http://www.w3.org/1999/xlink" version="1.1" viewBox="0 -205 1024 1024">
  <g transform="matrix(1 0 0 -1 0 819)">
   <path fill="currentColor"
d="M428 495l36 -39h208v115h-147v-5q0 -30 -13 -39q-14 -10 -38 -15q4 47 7 99v292q-6 24 -18 42l15 12l41 -50h327l35 41l51 -49q7 -7 5 -11q-1 -5 -11 -7l-18 -9v-216l4 -77q2 -23 -9 -32q-13 -9 -40 -12v36h-147v-115h188l26 37l48 -39q9 -6 9 -11t-9 -8l-20 -13v-270
q1 -51 -11 -78q-13 -27 -62 -39q-11 30 -38 40q-28 10 -84 25l4 18q98 -18 122 -17q25 2 25 49v286h-198v-141l100 14q-17 27 -49 64l9 12q52 -34 79 -65q26 -33 32 -60q6 -28 -3 -46q-9 -17 -24 -14t-17 30q-3 25 -15 58l-1 1q-138 -29 -188 -38q-51 -9 -71 -17
q-21 -9 -42 -28l-32 58l178 25v147h-197v-284l4 -72q0 -21 -14 -31q-15 -9 -41 -15q4 39 7 117v284q-3 28 -18 49zM57 740h173v197q2 16 -30 46l9 12l89 -36q14 -5 6 -11q-21 -9 -30 -21v-187h64l31 40l61 -48q11 -8 8 -11q-3 -2 -19 -1h-145v-117q29 -16 50 -34
q33 -30 47 -60q13 -33 7 -55q-8 -24 -26 -25q-19 -1 -22 33q-3 33 -23 69q-12 20 -33 41v-401l2 -96q0 -21 -12 -31q-13 -9 -39 -15q2 19 4 108q0 44 1 71v372q-53 -180 -185 -315l-12 12q140 201 186 443h-82q-28 0 -46 -13zM716 744h147v142h-147v-142zM672 886h-147v-142
h147v142zM863 724h-147v-133h147v133zM672 724h-147v-133h147v133z" />
  </g>

</svg>
