<?xml version="1.0" standalone="no"?>
<!DOCTYPE svg PUBLIC "-//W3C//DTD SVG 1.1//EN" "http://www.w3.org/Graphics/SVG/1.1/DTD/svg11.dtd" >
<svg xmlns="http://www.w3.org/2000/svg" xmlns:xlink="http://www.w3.org/1999/xlink" version="1.1" viewBox="0 -205 1024 1024">
  <g transform="matrix(1 0 0 -1 0 819)">
   <path fill="currentColor"
d="M436 429l39 -34h360l33 40l52 -48q7 -7 6 -11q-1 -5 -10 -7l-21 -9v-263h18l31 43l66 -51q11 -7 8 -10t-19 -2h-609q-28 2 -46 -13l-34 33h133v272q3 22 -19 46zM591 981l75 -31q10 -6 1 -13q-18 -3 -30 -11q-17 -44 -35 -82h252l31 42l67 -50q11 -8 8 -11q-3 -2 -19 -1
h-348q-28 -57 -60 -105l6 -7h243l31 37l50 -45q7 -6 5 -10q-1 -5 -11 -7l-18 -9v-131l4 -40q2 -23 -9 -32q-12 -9 -39 -12v48h-250v-13q0 -30 -13 -39q-14 -10 -38 -15q4 47 7 99v131q-62 -79 -137 -123l-6 15q80 74 138 168q-1 0 -1 2l4 3q1 1 1 2q1 1 1 2q26 45 45 81
h-112q-27 0 -45 -13l-35 33h202q3 6 8 17q3 7 11 26q20 52 20 64q-1 9 -12 20zM33 736h173v201q2 16 -30 46l9 12l89 -36q14 -5 6 -11q-21 -9 -30 -21v-191h64l31 40l61 -48q11 -8 8 -11q-3 -2 -19 -1h-145v-117q29 -16 50 -34q33 -30 46 -60q13 -33 7 -55q-6 -24 -24 -23
q-18 0 -21 33q-3 31 -24 67q-12 20 -34 42v-396l2 -96q0 -21 -13 -31q-15 -9 -40 -15q4 39 7 189v355q-53 -176 -185 -314l-12 12q136 197 186 443h-83q-27 0 -45 -13zM545 531h250v161h-250v-161zM581 374h-94v-277h94v277zM760 97h91v277h-91v-277zM716 374h-91v-277h91
v277z" />
  </g>

</svg>
