<?xml version="1.0" standalone="no"?>
<!DOCTYPE svg PUBLIC "-//W3C//DTD SVG 1.1//EN" "http://www.w3.org/Graphics/SVG/1.1/DTD/svg11.dtd" >
<svg xmlns="http://www.w3.org/2000/svg" xmlns:xlink="http://www.w3.org/1999/xlink" version="1.1" viewBox="0 -205 1024 1024">
  <g transform="matrix(1 0 0 -1 0 819)">
   <path fill="currentColor"
d="M890 598v-24q3 -59 -11 -86q-14 -29 -35 -44t-73 -28q-5 21 -23 33q-19 10 -61 25l6 16q7 -2 22 -6q21 -5 31 -7q27 -8 48 -5q21 2 38 24q17 21 14 82v31h-146q-9 -61 -47 -109q-51 -62 -175 -87l71 -27q14 -6 6 -12q-21 -9 -30 -21v-23h360l32 42l66 -50q11 -8 8 -11
q-3 -2 -19 -1h-426q31 -28 67 -52q43 -32 93 -59q48 -27 81 -39q17 -7 56 -18q8 -3 12 -4q36 -12 114 -17v-20q-51 0 -64 -6q-15 -6 -24 -22q-108 33 -171 73q-65 37 -113 78q-39 30 -72 74v-160l3 -72q0 -21 -14 -31q-15 -9 -40 -15q4 39 7 116v161q-85 -91 -192 -147
q-119 -63 -249 -86l-4 18q98 29 218 91q107 57 184 137h-325q-27 0 -45 -13l-34 33h447v33q2 16 -24 43l3 4q-3 -1 -6 -1l-4 14q121 39 166 94q31 36 40 92h-86q-27 -3 -36 -15l-31 35h156v3q2 15 2 32q-9 21 -17 21l7 11l65 -14q12 -3 14 -7q3 -5 -4 -10q-15 -3 -22 -9v-13
q-1 -9 -1 -14h133l24 30l49 -29q9 -6 9 -11t-9 -8zM886 907q9 -9 -3 -17q-9 -1 -17 -3q-9 -3 -43 -46q-31 -38 -74 -75q31 -18 67 -32q64 -27 107 -30q41 -6 77 -6v-19q-15 1 -33 -2q-20 -3 -29 -22q-50 5 -118 32q-54 21 -103 54q-40 -29 -92 -49q-69 -30 -165 -43l-4 16
q90 26 145 51q46 20 84 48q-48 38 -85 98q-42 -55 -93 -89l-10 12q36 41 61 78q24 36 40 68q7 14 16 31q2 5 3 6q2 6 -9 24l6 9l60 -23q15 -3 8 -16q-16 -1 -25 -10l-3 -6q-11 -21 -18 -30h178l21 26zM50 473q161 106 215 253h-130q-21 2 -39 -13l-33 33h369l28 32l53 -38
q7 -12 -14 -16q-21 -5 -37 -23q-18 -19 -57 -66l-14 9l44 82h-92v-247q-2 -34 -17 -49q-18 -17 -54 -23q-6 24 -29 35q-24 9 -66 18l2 17l41 -8q35 -5 56 -5t23 33v204q-60 -147 -240 -242zM214 866q48 -11 81 -26q15 -8 27 -17l90 99h-224q-20 2 -38 -13l-34 33h295l22 28
l55 -37q8 -11 -6 -17q-18 0 -27 -6q-10 -7 -37 -31q-5 -5 -19 -16q-37 -30 -64 -53q1 -1 2 -3q2 -4 3 -5q12 -23 5 -38q-8 -17 -20 -14q-13 2 -21 23t-26 39t-67 39zM623 896q-2 -4 -6 -10q-2 -3 -3 -5q43 -48 85 -79q3 -3 11 -9q3 -3 5 -4q47 40 96 107h-188z" />
  </g>

</svg>
