<?xml version="1.0" standalone="no"?>
<!DOCTYPE svg PUBLIC "-//W3C//DTD SVG 1.1//EN" "http://www.w3.org/Graphics/SVG/1.1/DTD/svg11.dtd" >
<svg xmlns="http://www.w3.org/2000/svg" xmlns:xlink="http://www.w3.org/1999/xlink" version="1.1" viewBox="0 0 2048 2048">
  <g transform="matrix(1 0 0 -1 0 2048)">
   <path fill="currentColor"
d="M563 899q304 -173 290 -303q-7 -58 -52 -58q-41 0 -64 72q-38 120 -174 242v-490q0 -69 11 -181q3 -37 3 -70q0 -50 -60 -53q-49 -3 -49 50l-1 615q-148 -312 -393 -495l-29 30q135 133 235 302q95 160 169 408h-182q-67 0 -149 -11l-39 86q112 -17 188 -18l200 -3v544
h-160q-63 0 -148 -11l-40 86q126 -18 188 -18h160v42l-2 102q-1 147 -5 171l109 -24q82 -18 85 -43q3 -32 -49 -44l-44 -10l1 -152v-41h133l80 80l114 -86q21 -16 16 -33q-6 -19 -26 -19h-316v-544h159l80 81l114 -86q21 -16 15 -34q-5 -19 -25 -18l-343 3v-69zM1456 1002
q146 -302 255 -432q110 -131 269 -212l-8 -34q-24 3 -41 3q-60 0 -97 -61q-155 148 -252 333q-66 125 -127 278v-622v-53l4 -64q6 -73 4 -76q-8 -25 -49 -27q-54 -3 -54 27l1 817q-122 -233 -237 -371q-119 -143 -306 -277l-25 35q185 152 322 362q83 126 136 247
q11 24 41 94q7 16 20 45l-157 1q-67 0 -148 -11l-39 86q125 -18 187 -18h206v486h-175q-68 0 -149 -11l-39 86q119 -17 188 -18h175l-1 168q0 117 -8 160l109 -24q83 -18 86 -44q3 -29 -50 -44l-41 -11v-205l184 -1l83 95l122 -95q14 -11 19 -26q9 -31 -20 -31l-388 1v-486
h307l80 81l114 -87q21 -15 16 -33q-6 -19 -26 -19l-491 1v-13zM195 1466q185 -165 203 -277q11 -65 -31 -84q-33 -15 -50 14q-7 11 -21 72q-29 122 -126 251zM1571 1099l-25 21q110 163 177 351l85 -50q60 -36 54 -57q-6 -22 -58 -22h-32q-80 -136 -201 -243zM1025 1474
q110 -92 146 -132q93 -100 82 -171q-7 -50 -49 -50q-35 0 -53 76q-22 95 -152 252zM759 1502l78 -31q60 -25 72 -35q14 -12 4 -27q-9 -11 -40 -18l-44 -9q-103 -194 -201 -303l-28 24q101 174 159 399z" />
  </g>

</svg>
