<?xml version="1.0" standalone="no"?>
<!DOCTYPE svg PUBLIC "-//W3C//DTD SVG 1.1//EN" "http://www.w3.org/Graphics/SVG/1.1/DTD/svg11.dtd" >
<svg xmlns="http://www.w3.org/2000/svg" xmlns:xlink="http://www.w3.org/1999/xlink" version="1.1" viewBox="0 -205 1024 1024">
  <g transform="matrix(1 0 0 -1 0 819)">
   <path fill="currentColor"
d="M44 732h172v201q0 15 -30 44l9 12l87 -36q9 -5 9 -7q0 -1 -15 -11q-15 -11 -18 -14v-189h69l25 36l65 -44q8 -5 5 -8q-4 -4 -16 -4h-148v-117q106 -65 106 -132q-1 -37 -27 -40h-1q-10 0 -21 35q-21 71 -57 107l2 -496q3 -37 -51 -46q0 8 2 30q5 70 5 123v391
q-53 -179 -179 -310l-12 12q130 192 180 443h-82q-28 0 -45 -13zM747 972l87 -36q9 -5 9 -7q0 -1 -15 -11q-15 -11 -18 -14v-64h92l25 36l64 -40q9 -6 8 -11q-2 -5 -13 -5h-176l3 -31q2 -37 -52 -44q1 11 3 30q2 23 4 34v11h-197l3 -31q2 -37 -52 -44q1 11 3 30q2 23 4 34
v11h-86q-28 0 -45 -13l-35 33h166v76q0 15 -30 44l9 12l87 -36q9 -5 9 -7q0 -1 -15 -11q-15 -11 -18 -14v-64h197v76q0 15 -30 44zM690 576q7 -5 7 -8q0 -4 -18 -10q-15 -6 -20 -9q-56 -65 -115 -130q138 1 266 5q-31 42 -69 79l8 12q128 -65 129 -138q-1 -34 -25 -35
q-14 0 -23 33q-5 17 -8 27q-282 -19 -283 -24q-21 -6 -43 -28l-40 61q60 -2 164 160q6 16 -7 28l7 10zM596 287q3 -3 3 -5q0 -1 -8 -6q-15 -9 -25 -17v-89q-2 -64 16 -71q10 -7 32 -9q16 -2 75 -2h49q15 0 22 1h11q43 -29 42 135h14q1 -14 2 -37q-2 -75 32 -84
q-17 -40 -27 -44q-2 -1 -5 -3q-9 -15 -110 -14h-62h-15q-126 -15 -120 106v120q-2 18 -20 36l8 10zM763 732q11 -3 11 -8q0 -3 -7 -7l-11 -8q99 -174 245 -169v-18q-1 0 -2 1q-5 1 -15 0q-40 1 -63 -28q-110 40 -199 213q-12 18 -22 26l4 11zM566 738l61 -32q7 -4 7 -10
q0 -4 -12 -8q-16 -6 -25 -12q-94 -145 -208 -206l-9 13q133 124 186 227q-2 9 -8 18zM857 280q131 -73 131 -142q-1 -36 -26 -38q-18 1 -21 31q-13 67 -92 136zM452 272q-5 -197 -76 -192q-24 3 -26 26q0 12 17 23q58 19 68 143h17zM604 366q138 -57 131 -120
q-1 -30 -24 -32q-12 0 -24 28q-29 69 -91 111z" />
  </g>

</svg>
