<?xml version="1.0" standalone="no"?>
<!DOCTYPE svg PUBLIC "-//W3C//DTD SVG 1.1//EN" "http://www.w3.org/Graphics/SVG/1.1/DTD/svg11.dtd" >
<svg xmlns="http://www.w3.org/2000/svg" xmlns:xlink="http://www.w3.org/1999/xlink" version="1.1" viewBox="0 0 2048 2048">
  <g transform="matrix(1 0 0 -1 0 2048)">
   <path fill="currentColor"
d="M1551 1065l92 -19q75 -16 80 -50q4 -29 -50 -42l-45 -10v-107h146l90 89l111 -97q18 -15 13 -34q-3 -15 -17 -15h-343v-479q0 -60 11 -178q5 -47 -63 -54q-47 -5 -47 27v684h-135q-69 0 -148 -9l-40 85q126 -19 188 -19h135v84q0 106 -6 144l-144 -1q-16 -15 -39 -19
q-58 -8 -58 42v442h-13q-2 0 -26 -2q-4 0 -27 -1q-16 -1 -51 -4l-40 82q121 -19 144 -19h13v154q0 117 -7 160l109 -25q68 -15 73 -43q4 -23 -47 -40l-31 -9v-197h116v181q0 118 -8 159l109 -24q69 -15 73 -43q3 -23 -47 -40l-29 -10v-223h109v174q0 119 -8 161l106 -25
q68 -16 73 -43q4 -24 -47 -40l-31 -10l2 -217l89 76l91 -80q15 -13 15 -30q0 -22 -24 -22h-171v-183l46 -41q7 -7 9 -13q3 -9 -2.5 -19t-13.5 -10h-235q-2 -51 -68 -42q-38 5 -38 38v270h-116v-406h353l80 80l114 -86q22 -15 16 -33q-6 -19 -26 -19h-365zM1593 1529v-213
h106v213h-106zM440 1324q224 -150 224 -256q0 -31 -22 -48q-18 -14 -40 -6q-31 10 -53 89q-23 79 -109 163v-978q0 -20 3 -57q11 -113 9 -135q-3 -40 -70 -40q-38 0 -38 34v1030q-108 -331 -266 -555l-29 24q100 195 168 409q75 234 104 433h-49q-69 0 -149 -9l-40 85
q121 -20 189 -20h72v294q0 111 -9 160l120 -25q71 -15 74 -43q4 -29 -50 -44l-39 -11v-331h39l90 90l113 -97q19 -17 15 -34q-3 -15 -21 -15h-236v-107zM1335 679l86 -39q59 -27 60 -46q2 -22 -35 -29q-7 -1 -14 -1q-10 -1 -30 -4q-85 -213 -221 -357l-26 22
q101 160 180 454zM1732 674q131 -142 188 -265q36 -78 21 -142q-5 -22 -23 -38t-38 -11q-31 6 -38 71q-10 98 -57 210q-16 39 -82 151zM718 1923l118 -27q74 -17 77 -44q3 -33 -53 -46l-38 -10v-472h188v436q0 94 -8 150l126 -29q61 -14 64 -40q4 -28 -52 -45l-38 -11v-439
q61 -53 48 -72q-5 -8 -22 -8h-306v-175q-4 -117 -4 -153h178l53 69l68 -44q48 -31 43 -57q-1 -4 -58 -54v-494v-61q7 -115 7 -136v-20q2 -60 -61 -60q-38 0 -38 34v768h-192q-7 -67 -24 -263q-26 -306 -156 -539l-30 19q67 217 93 471q25 236 25 542v658q0 107 -8 152z" />
  </g>

</svg>
