<?xml version="1.0" standalone="no"?>
<!DOCTYPE svg PUBLIC "-//W3C//DTD SVG 1.1//EN" "http://www.w3.org/Graphics/SVG/1.1/DTD/svg11.dtd" >
<svg xmlns="http://www.w3.org/2000/svg" xmlns:xlink="http://www.w3.org/1999/xlink" version="1.1" viewBox="0 0 2048 2048">
  <g transform="matrix(1 0 0 -1 0 2048)">
   <path fill="currentColor"
d="M1372 1908l118 -64h292l61 71l72 -49q37 -26 41 -44q5 -20 -25 -37q-6 -4 -13 -7q-9 -4 -26 -14v-1533q0 -88 -66 -133q-43 -30 -93 -38q-11 71 -43.5 92t-162.5 45l8 46q135 -23 189 -27q72 -6 72 56v1074h-330v-22q0 -13 -25 -24q-19 -9 -44 -9t-25 24v593zM1466 1617
h330v169h-330v-169zM1466 1404h330v159h-330v-159zM687 1932l129 -88h279l61 71l72 -49q37 -25 42 -44q5 -20 -25 -37q-7 -4 -13 -7q-9 -4 -26 -14v-437q0 -15 -27 -28q-19 -9 -38 -9q-30 0 -30 17v39h-312v-1253q0 -28 -52 -28t-52 59q0 19 3 102l2 82l3 101v1385
q-2 80 -16 138zM799 1617h312v169h-312v-169zM799 1404h312v159h-312v-159zM434 1280q215 -153 221 -281q3 -65 -50 -68q-29 -2 -41 26q-7 14 -18 59q-20 81 -112 201v-894l3 -44l1 -48l5 -51l2 -38q1 -29 1 -30q0 -53 -65 -53q-43 0 -43 32v1022q-80 -233 -259 -527l-31 21
q180 345 264 822h-63q-69 0 -148 -10l-40 86q119 -18 188 -18h89v305q0 121 -8 160l111 -24q82 -18 86 -44q3 -29 -50 -43l-43 -11v-343h27l86 85l112 -91q19 -15 15 -32q-4 -20 -27 -20h-213v-149zM939 1052l-39 82q127 -18 188 -18l390 2l86 89l117 -89q14 -11 18 -19
q7 -13 -0.5 -24.5t-22.5 -11.5h-332v-234h134l80 80l108 -88q24 -19 18 -34q-5 -14 -24 -14h-316v-307h208l80 81l114 -86q21 -16 16 -33q-6 -19 -26 -19h-699q-69 -1 -148 -11l-40 86q126 -18 188 -18h211v307h-122q-67 0 -149 -11l-39 86q116 -17 188 -17l122 -2v234h-160
q-68 0 -149 -11zM1407 705q164 -106 156 -171q-6 -47 -52 -44q-26 2 -35 38q-24 88 -90 151z" />
  </g>

</svg>
