<?xml version="1.0" standalone="no"?>
<!DOCTYPE svg PUBLIC "-//W3C//DTD SVG 1.1//EN" "http://www.w3.org/Graphics/SVG/1.1/DTD/svg11.dtd" >
<svg xmlns="http://www.w3.org/2000/svg" xmlns:xlink="http://www.w3.org/1999/xlink" version="1.1" viewBox="0 0 2048 2048">
  <g transform="matrix(1 0 0 -1 0 2048)">
   <path fill="currentColor"
d="M970 609v18q0 115 -8 160l103 -22q88 -19 91 -46q2 -16 -5.5 -22t-47.5 -19l-38 -14v-55h668l99 101l120 -110q20 -18 16 -33q-5 -16 -25 -16h-878v-219q0 -15 13 -185q3 -43 3 -54q0 -39 -49 -42q-62 -4 -62 42v458h-689q-69 0 -149 -11l-39 90q127 -21 188 -21h689z
M1285 503q132 -41 352 -127q155 -61 199 -96q65 -51 76 -110q4 -19 -4 -37q-13 -27 -38 -29q-33 -3 -62 26l-61 60q-119 116 -481 272zM330 1902q152 -46 209 -69q149 -60 140 -140q-5 -40 -43 -44q-35 -3 -84 57q-57 70 -235 160zM631 1219l28 -31q-163 -173 -358 -327
q2 -70 -18 -78q-19 -7 -60 52l-54 76q264 144 462 308zM168 1562q174 -45 228 -72q99 -50 99 -110q0 -46 -33 -55q-35 -9 -58 18q-8 9 -31 41q-58 82 -217 143zM696 523l110 -102q20 -19 15 -35q-5 -21 -41 -17l-60 7q-116 -78 -196 -117q-166 -82 -399 -139l-11 36
q405 157 582 367zM1553 1798l61 66l91 -53q32 -18 30 -38q-1 -17 -72 -55l1 -268q0 -47 -63 -47q-32 0 -32 15v20h-658v-100h729l80 81l114 -86q21 -16 16 -34q-6 -18 -26 -18l-913 1v-104h843l60 71l84 -55q40 -26 40 -48q0 -32 -70 -56q-30 -228 -79 -304
q-51 -79 -164 -92q-1 57 -49 88q-16 11 -90 39l15 46q105 -36 135 -42q72 -12 102 95q12 41 33 202l-867 -1q-24 -15 -65 -15q-22 0 -22 22v735l105 -65h77q32 69 70 182l96 -30q56 -17 59 -37q4 -25 -45 -31l-42 -5l-75 -79h491zM1569 1741h-658v-89h658v89zM911 1493h658
v102h-658v-102zM848 1080h38q2 -30 2 -65q0 -90 -42 -166q-42 -78 -115 -78q-37 0 -48 33q-12 38 37 65q63 34 89 73q28 41 39 138zM1050 1081q93 -135 87 -214q-5 -60 -59 -57q-39 3 -35 52l3 47q5 80 -29 159zM1214 1112q152 -125 163 -192q5 -29 -16 -51.5t-47 -16.5
q-23 6 -28 30l-8 42q-14 70 -91 164zM1461 1115q75 -51 110 -80q53 -45 53 -92q0 -27 -17.5 -46t-39.5 -15q-27 5 -40 65q-13 58 -92 144z" />
  </g>

</svg>
