<?xml version="1.0" standalone="no"?>
<!DOCTYPE svg PUBLIC "-//W3C//DTD SVG 1.1//EN" "http://www.w3.org/Graphics/SVG/1.1/DTD/svg11.dtd" >
<svg xmlns="http://www.w3.org/2000/svg" xmlns:xlink="http://www.w3.org/1999/xlink" version="1.1" viewBox="0 -205 1024 1024">
  <g transform="matrix(1 0 0 -1 0 819)">
   <path fill="currentColor"
d="M162 979l77 -24q14 -5 6 -11q-19 -12 -28 -25v-182h40l23 34l58 -42q11 -6 8 -9t-19 -3h-110v-122l9 -6q9 -5 25 -17q30 -23 41 -47q10 -24 7 -44q-5 -21 -20 -22q-17 -2 -20 25q-4 25 -22 55q-8 12 -20 24v-402l2 -88q0 -21 -11 -31q-12 -9 -36 -15q4 39 7 179v357
q-46 -173 -160 -302l-10 12q124 205 162 444h-60q-27 0 -45 -13l-34 33h147v190q1 16 -26 40zM707 698h162v238q3 15 -22 38l8 11l73 -26q18 -11 9 -14q-17 -7 -29 -16v-231h22l25 30l50 -38q11 -8 8 -11q-3 -2 -19 -1h-86v-554q-1 -30 -15 -53q-15 -23 -58 -33
q-5 26 -26 35t-71 25l4 16l28 -6q62 -15 81 -9q18 8 18 52v527h-83q-27 0 -45 -13zM411 542l29 -26h156l29 31l41 -41q7 -5 6 -9t-10 -6l-14 -9v-62l3 -70q-1 -18 -12 -25q-11 -8 -32 -8v26h-159q-2 -16 -10 -23q-12 -9 -37 -14q4 36 7 74v117q0 22 -9 37zM537 908
q6 -6 6 -9q-1 -3 -7 -5q-9 -2 -15 -5q-7 -6 -15 -52q-9 -48 -33 -118q-15 -40 -33 -76h122l26 31l47 -41q8 -5 6 -8q-2 -2 -13 -2h-135q-27 0 -45 -13l-16 19q-8 -16 -24 -39q-41 -57 -86 -89l-10 12q36 42 65 89q28 47 58 121q27 72 39 164h-105q-15 0 -30 -14l-36 34h166
l27 36zM635 965l61 -34q7 -7 7 -11t-7 -4q-18 -2 -23 -5q0 -1 -2 -2q-13 -17 -29 -39q-25 -31 -56 -65q26 -27 47 -54q43 42 62 68q17 21 25 36q4 9 -5 25l8 5l52 -41q10 -7 10 -11t-10 -4q-22 0 -34 -12q-7 -6 -23 -22l-8 -8q-17 -15 -64 -53q3 -3 7 -10q5 -7 7 -11
q42 -72 52 -124q9 -51 -10 -62q-20 -13 -32 43q-13 59 -43 120q-31 66 -102 155l9 12l15 -15l21 -21q8 12 23 36q14 21 21 31q21 36 23 45q0 8 -10 25zM448 363h159v133h-159v-133zM540 110q-102 -21 -125 -32q-24 -9 -49 -38l-30 60l213 44q29 59 40 91q12 33 13 45
q0 10 -9 25l8 7l57 -24q16 -7 7 -15q-18 1 -27 -14q-29 -61 -56 -109l134 25l4 -20zM744 565q51 -50 67 -80q15 -30 21 -55q4 -27 -2 -43q-6 -19 -21 -16q-15 2 -17 33q-2 17 -9 54q-1 4 -1 6q-8 31 -47 91zM403 294q53 -33 71 -58t22 -49q3 -24 -6 -36q-10 -10 -21 -7
q-12 4 -14 27q-2 25 -17 53q-15 27 -43 60zM326 851q29 -16 54 -40q26 -24 33 -46q7 -23 1 -38q-6 -16 -19 -15q-14 0 -19 26q-6 25 -18 49q-13 24 -40 53z" />
  </g>

</svg>
