<?xml version="1.0" standalone="no"?>
<!DOCTYPE svg PUBLIC "-//W3C//DTD SVG 1.1//EN" "http://www.w3.org/Graphics/SVG/1.1/DTD/svg11.dtd" >
<svg xmlns="http://www.w3.org/2000/svg" xmlns:xlink="http://www.w3.org/1999/xlink" version="1.1" viewBox="0 -200 1000 1000">
  <g transform="matrix(1 0 0 -1 0 800)">
   <path fill="currentColor"
d="M674 865h18v134l60 -30l-17 -49v-55h42v134l62 -27l-18 -50v-57h34l27 36l48 -44l-28 -31v-214q-11 -9 -20 -15t-21 -8v35h-205v-20q-7 -8 -18 -13t-22 -7v313zM315 317q63 96 114 199.5t85 232.5h-105l-47 -12l-19 33h171l30 36l52 -56l-41 -46l-84 -200
q15 -14 32.5 -29t31.5 -31t23.5 -34t9.5 -39q0 -14 -10.5 -24t-18.5 -10q-11 0 -14.5 10.5t-8 30.5t-14 49.5t-33.5 67.5v-478q-6 -14 -21 -20.5t-26 -8.5v442q-6 -10 -19 -27t-27.5 -35.5t-28.5 -34t-21 -22.5zM681 460h154l31 39l48 -40l-28 -31v-144h-210l-1 -18
q-8 -12 -19 -17t-24 -9v255zM676 428v-123h166v135h-164zM905 225l-27 -28q-15 -26 -40.5 -64.5t-54.5 -71.5h86l43 43l55 -65h-318l-60 -16l-22 38h204q31 57 51.5 113.5t28.5 98.5zM574 544h288l40 41l56 -60h-321l-42 -14zM654 244q45 -41 69.5 -70t32.5 -63v-3
q0 -11 -7.5 -25.5t-20.5 -14.5q-5 0 -10.5 5.5t-6.5 18.5q-5 37 -24.5 78.5t-39.5 75.5zM363 926h132l28 41l40 -63h-146l-40 -16zM777 737h-42v-92h42v92zM735 844v-87h42v87h-42zM861 737h-40v-92h40v92zM861 844h-40v-87h40v87zM692 737h-36v-92h36v92zM656 826v-69h36
v88h-18zM29 276q45 106 84 220t56 238h-59l-59 -15l-15 37h135v245l67 -32l-20 -67v-146h38l42 47l60 -69h-140v-115q19 -14 37 -30.5t33.5 -33t27 -31t17.5 -23.5q8 -19 8 -37q0 -19 -7.5 -33.5t-23.5 -14.5q-11 0 -24 36q-6 16 -11.5 30t-12.5 30t-17.5 35.5t-26.5 46.5
v-566q-8 -12 -17 -17t-31 -12l1 529q-26 -63 -55.5 -128.5t-74.5 -128.5z" />
  </g>

</svg>
