<?xml version="1.0" standalone="no"?>
<!DOCTYPE svg PUBLIC "-//W3C//DTD SVG 1.1//EN" "http://www.w3.org/Graphics/SVG/1.1/DTD/svg11.dtd" >
<svg xmlns="http://www.w3.org/2000/svg" xmlns:xlink="http://www.w3.org/1999/xlink" version="1.1" viewBox="0 -205 1024 1024">
  <g transform="matrix(1 0 0 -1 0 819)">
   <path fill="currentColor"
d="M513 295h197v61h-111q-1 -26 -12 -34q-13 -10 -33 -15q4 46 7 100v128q-1 16 -12 28l15 12l31 -38h243l33 31l47 -37q7 -6 5 -10q-1 -5 -11 -7l-19 -9v-104l5 -29q2 -23 -7 -32t-36 -12v28h-107v-61h138l29 26l56 -34q7 -5 6 -8q-1 -2 -12 -2h-204q42 -55 75 -82
q39 -36 73 -48q30 -13 45 -19q12 -6 50 -12v-16q-36 3 -47 1q-12 -2 -19 -18q-47 21 -85 53q-39 28 -64 61q-21 26 -41 63v-124l2 -58q0 -21 -10 -30q-12 -9 -37 -14q4 37 7 113v109q-90 -125 -261 -187l-6 12q164 95 236 196h-87q-27 0 -45 -13zM59 295h215v61h-108
q-1 -26 -12 -34q-13 -10 -34 -15q4 46 7 100v128q-1 16 -12 28l16 12l31 -38h243l31 29l48 -35q7 -6 5 -10q-1 -5 -11 -7l-18 -9v-104l4 -29q2 -23 -6 -32q-9 -9 -36 -12v28h-110v-61h109l28 26l56 -34q7 -5 6 -8q-1 -2 -12 -2h-187v-52q39 -5 76 -17q45 -15 61 -34
q15 -19 12 -33q-3 -15 -17 -18q-14 -1 -27 18q-13 17 -42 37q-22 17 -63 29v-63l2 -72q0 -21 -10 -30q-12 -9 -37 -14q4 37 7 125v77q-84 -93 -228 -151l-6 12q153 89 223 186h-124q-28 0 -46 -13zM513 741h195v61h-109q-1 -26 -12 -34q-13 -10 -33 -15q4 47 7 99v105
q-6 24 -16 36l15 12l34 -38h244l35 31l45 -37q7 -6 5 -10q-1 -5 -11 -7l-19 -9v-89l5 -28q2 -23 -7 -32t-36 -12v28h-109v-61h128l29 26l56 -34q7 -5 6 -8q-1 -2 -12 -2h-207v-26q51 -2 113 -18q57 -16 78 -36q21 -22 19 -37q-3 -16 -16 -18q-14 -3 -29 17q-14 17 -54 41
q-35 19 -111 36v-24l2 -58q0 -15 -10 -24q-12 -9 -37 -14q4 30 7 107v20q-71 -73 -223 -121l-8 10q135 61 218 145h-103q-27 0 -45 -13zM59 741h215v61h-108q-1 -26 -12 -34q-13 -10 -34 -15q4 47 7 99v113q-1 16 -12 28l16 12l31 -38h247l31 25l40 -31q6 -6 4 -10
q-1 -5 -10 -7l-14 -9v-89l4 -28q2 -23 -6 -32q-9 -9 -36 -12v28h-110v-61h109l28 26l56 -34q7 -5 6 -8q-1 -2 -12 -2h-187v-23q45 -6 87 -19q45 -15 61 -34q15 -22 12 -36q-3 -15 -17 -17q-15 -3 -27 17q-14 18 -41 40q-27 17 -75 33v-20l2 -58q0 -21 -10 -30
q-12 -9 -37 -14q4 36 7 113v13q-72 -78 -233 -130l-8 10q142 69 227 155h-121q-28 0 -46 -13zM710 439h-111v-65h111v65zM422 439h-110v-65h110v65zM274 439h-108v-65h108v65zM855 439h-107v-65h107v65zM710 519h-111v-62h111v62zM312 457h110v62h-110v-62zM274 519h-108
v-62h108v62zM748 457h107v62h-107v-62zM422 876h-110v-56h110v56zM855 876h-109v-56h109v56zM274 876h-108v-56h108v56zM708 876h-109v-56h109v56zM312 895h110v54h-110v-54zM746 895h109v54h-109v-54zM274 949h-108v-54h108v54zM708 949h-109v-54h109v54z" />
  </g>

</svg>
