<?xml version="1.0" standalone="no"?>
<!DOCTYPE svg PUBLIC "-//W3C//DTD SVG 1.1//EN" "http://www.w3.org/Graphics/SVG/1.1/DTD/svg11.dtd" >
<svg xmlns="http://www.w3.org/2000/svg" xmlns:xlink="http://www.w3.org/1999/xlink" version="1.1" viewBox="0 -449 2048 2048">
  <g transform="matrix(1 0 0 -1 0 1599)">
   <path fill="currentColor"
d="M869 1017l14 32q309 -60 309 -157q0 -29 -17 -50.5t-36 -16.5q-12 4 -29 26q-89 121 -241 166zM1071 1728h430l98 102l121 -107q20 -18 15 -34q-5 -18 -26 -18h-638v-281h652l99 102l120 -107q21 -18 16 -34q-6 -18 -26 -18h-1618q-117 0 -192 -8l-38 88q97 -23 230 -23
h167v309q0 115 -8 160l109 -24q82 -18 85 -44t-50 -43l-41 -14v-344h399v419q0 118 -8 160l109 -24q82 -18 85 -44q4 -26 -50 -43l-40 -14v-116zM970 635q-2 127 -8 160l109 -24q83 -19 85 -44q3 -26 -50 -43l-40 -14v-233q0 -72 10 -180q4 -38 4 -70q0 -50 -60 -54
q-22 -1 -38 9q-12 7 -12 42v451zM1697 239q-5 -88 -59 -131q-35 -28 -96 -40q-12 70 -47 93q-33 21 -160 44l9 45q138 -22 189 -26q68 -6 68 57v830h-1121l-1 -238q0 -127 -23 -288q-30 -208 -118 -367q-34 -63 -102 -154l-30 26q91 154 132 308q33 125 45 344l7 112l1 269
q-2 85 -14 135l118 -88h1087l68 76l84 -54q40 -26 40 -49q0 -18 -13.5 -28.5t-64.5 -32.5z" />
  </g>

</svg>
