<?xml version="1.0" standalone="no"?>
<!DOCTYPE svg PUBLIC "-//W3C//DTD SVG 1.1//EN" "http://www.w3.org/Graphics/SVG/1.1/DTD/svg11.dtd" >
<svg xmlns="http://www.w3.org/2000/svg" xmlns:xlink="http://www.w3.org/1999/xlink" version="1.1" viewBox="0 0 2048 2048">
  <g transform="matrix(1 0 0 -1 0 2048)">
   <path fill="currentColor"
d="M1265 999h-220q-68 0 -148 -11l-40 86q124 -18 188 -18h220l1 535q-161 -48 -310 -76l-11 42q291 88 453 170q180 91 289 209l121 -80q28 -18 27 -38q-1 -28 -44 -24l-62 5q-160 -102 -369 -178v-565h336l98 98l121 -102q20 -17 15 -34q-5 -19 -25 -19h-546v-680
q0 -71 30 -82q43 -17 277 -14q121 1 151 26t45 152q9 76 19 166l35 -6l-5 -213q-1 -58 16 -80q4 -5 38 -34q16 -13 17 -28q4 -62 -198 -72q-280 -14 -416 4q-104 13 -104 127zM468 1726q-20 -150 -63 -325h315l63 81l91 -72q22 -17 24 -34q3 -21 -22 -32l-56 -27
q-70 -439 -212 -720q-173 -342 -473 -556l-24 31q284 250 452 638q-8 -2 -14 -3q-29 -4 -48 21q-6 9 -24 53q-57 140 -204 265q-67 -126 -172 -264l-29 22q146 241 218 504q45 166 77 418h-57q-117 0 -192 -8l-38 89q96 -23 230 -23h410l99 101l120 -106q20 -18 16 -34
q-6 -19 -26 -19h-461zM293 1084q266 -156 302 -296q92 237 131 556h-337q-49 -160 -96 -260z" />
  </g>

</svg>
