<?xml version="1.0" standalone="no"?>
<!DOCTYPE svg PUBLIC "-//W3C//DTD SVG 1.1//EN" "http://www.w3.org/Graphics/SVG/1.1/DTD/svg11.dtd" >
<svg xmlns="http://www.w3.org/2000/svg" xmlns:xlink="http://www.w3.org/1999/xlink" version="1.1" viewBox="0 0 2048 2048">
  <g transform="matrix(1 0 0 -1 0 2048)">
   <path fill="currentColor"
d="M1413 1082q309 -371 309 -522q0 -36 -25.5 -58.5t-52.5 -9.5q-28 13 -43 78q-44 199 -169 405q-16 25 -28 44q-32 -161 -74 -271q-51 -130 -175 -305l-36 27q122 170 178 463q22 120 34 247q18 196 18 256q0 113 -7 190l112 -18q88 -15 91 -44q2 -11 -11 -24.5t-29 -16.5
l-57 -14q-12 -244 -33 -415zM1763 1793l69 77l83 -54q40 -26 40 -49q0 -27 -78 -61v-1363l4 -76l4 -95l4 -42q0 -50 -67 -53q-42 -2 -42 31v84h-714v-88q0 -23 -34 -26q-67 -4 -67 37q0 24 1 39q4 43 4 200v1388q0 74 -14 139l122 -88h685zM1780 1737h-714v-1491h714v1491z
M525 714q-11 -5 -17 -5q-38 -5 -69 73q-49 124 -188 252q-65 -122 -171 -260l-28 23q145 238 218 503q45 166 77 419h-50q-117 0 -192 -8l-38 88q96 -23 230 -23h392l98 102l121 -107q20 -18 15 -33q-6 -19 -26 -19h-449q-20 -149 -63 -326h292l62 81l93 -71q22 -18 23 -34
q2 -21 -23 -33l-55 -26q-68 -434 -208 -714q-168 -336 -464 -551l-25 31q278 251 445 638zM270 1072q151 -95 212 -160q60 -64 71 -129q91 244 129 553h-313q-49 -160 -99 -264z" />
  </g>

</svg>
