<?xml version="1.0" standalone="no"?>
<!DOCTYPE svg PUBLIC "-//W3C//DTD SVG 1.1//EN" "http://www.w3.org/Graphics/SVG/1.1/DTD/svg11.dtd" >
<svg xmlns="http://www.w3.org/2000/svg" xmlns:xlink="http://www.w3.org/1999/xlink" version="1.1" viewBox="0 0 2048 2048">
  <g transform="matrix(1 0 0 -1 0 2048)">
   <path fill="currentColor"
d="M1884 1331v-1090q0 -142 -155 -171q-12 71 -44 92t-163 44l8 46q135 -22 190 -26q68 -6 68 57l1 345h-696q-73 -403 -282 -585l-26 26q132 168 184 389q25 107 37 297q11 178 11 226v338l-5 107q-25 -16 -38 -24q-48 -32 -75 -47l-20 33q153 118 250 276q69 112 135 301
l121 -43q54 -19 49 -41q-4 -23 -40 -27l-49 -6q-17 -29 -37 -67q-11 -21 -24 -41l272 1l80 71l80 -67q49 -42 42 -69q-7 -24 -101 -30q-39 -44 -96 -113q-43 -52 -101 -115h307l68 77l84 -54q49 -32 46 -51q-2 -20 -81 -59zM1789 1060v303h-290v-303h290zM1789 1004h-290
v-318h290v318zM1096 685l311 1v318h-295v-34q0 -92 -16 -285zM1112 1060h295v303h-295v-303zM1120 1418h284q84 140 144 266l-296 1q-99 -136 -194 -224zM533 703q-24 0 -37 10q-14 11 -36 64q-52 130 -198 261q-68 -126 -170 -260l-29 22q125 206 194 422q64 201 98 476
q3 21 6 44h-68q-98 0 -173 -8l-38 88q96 -23 211 -23h384l98 102l121 -107q20 -18 16 -34q-6 -18 -26 -18h-424q-24 -175 -66 -345h296l62 81l92 -72q22 -17 24 -34q3 -21 -22 -32l-56 -27q-67 -433 -212 -720q-173 -342 -473 -556l-24 31q284 250 450 635zM282 1077
q247 -146 292 -274q85 231 123 537h-317q-49 -162 -98 -263z" />
  </g>

</svg>
