<?xml version="1.0" standalone="no"?>
<!DOCTYPE svg PUBLIC "-//W3C//DTD SVG 1.1//EN" "http://www.w3.org/Graphics/SVG/1.1/DTD/svg11.dtd" >
<svg xmlns="http://www.w3.org/2000/svg" xmlns:xlink="http://www.w3.org/1999/xlink" version="1.1" viewBox="0 0 2048 2048">
  <g transform="matrix(1 0 0 -1 0 2048)">
   <path fill="currentColor"
d="M1320 802v97q0 106 -8 144l110 -24q82 -19 85 -44q3 -29 -49 -44l-41 -11v-118h316l98 102l121 -107q20 -18 15 -34q-5 -18 -25 -18h-525v-396q0 -15 7 -159q6 -92 2 -105q-9 -27 -58 -23q-48 3 -48 50v633h-280q-112 0 -191 -9l-39 88q94 -22 230 -22h280zM1560 641
q181 -128 221 -161q117 -96 138 -180q15 -55 -26 -79q-36 -21 -64 15q-8 11 -33 57q-90 160 -263 318zM1056 667l131 -46q37 -13 40 -29q6 -29 -38 -35l-49 -7q-14 -21 -58 -96q-54 -93 -152 -180q-38 -35 -144 -106l-20 35q236 200 290 464zM1377 1632q-23 9 -34 26
q-4 7 -25 66q-25 73 -132 178l22 26q67 -30 133 -87q84 -71 99 -125q19 -66 -38 -84h313l99 102l121 -107q20 -18 15 -33q-6 -18 -26 -18h-507q-166 -262 -410 -405q424 15 712 43q-51 69 -177 181l22 26q323 -191 334 -318q5 -53 -44 -62q-39 -7 -64 50q-17 40 -41 80
q-118 -25 -713 -95l-8 -35q-5 -27 -23 -27q-16 0 -34 32l-62 116q201 113 381 414h-210q-118 0 -191 -8l-40 88q95 -24 231 -24h297zM547 722q-12 -4 -22 -6q-22 -3 -37 18q-6 7 -22 53q-46 124 -195 265q-65 -113 -184 -250l-26 25q150 233 225 495q46 159 80 412h-61
q-115 0 -182 -8l-36 88q93 -23 218 -23h401l92 102l116 -107q19 -18 15 -34q-6 -18 -25 -18h-435q-34 -219 -65 -325h291l61 76l93 -68q22 -15 23 -34q1 -20 -23 -32l-51 -27q-63 -432 -202 -720q-163 -339 -450 -556l-23 31q260 247 424 643zM294 1096q167 -120 227 -194
q44 -55 49 -117q95 255 130 566h-310q-38 -125 -96 -255z" />
  </g>

</svg>
