<?xml version="1.0" standalone="no"?>
<!DOCTYPE svg PUBLIC "-//W3C//DTD SVG 1.1//EN" "http://www.w3.org/Graphics/SVG/1.1/DTD/svg11.dtd" >
<svg xmlns="http://www.w3.org/2000/svg" xmlns:xlink="http://www.w3.org/1999/xlink" version="1.1" viewBox="0 0 2048 2048">
  <g transform="matrix(1 0 0 -1 0 2048)">
   <path fill="currentColor"
d="M790 609v-370q132 59 287 156l18 -26q-126 -117 -295 -236l-4 -22q-8 -48 -26 -49q-19 -2 -45 49l-47 90l16 4v404l-245 2q-10 -237 -82 -346q-71 -110 -267 -210l-19 29q153 110 209 216q51 98 61 311l-82 -2q-70 -1 -149 -11l-39 86q117 -17 188 -17h658l80 80l114 -85
q21 -16 15 -34q-5 -19 -25 -19h-321zM549 1477v194h-175q-75 0 -149 -10l-39 86q118 -20 188 -20h175v56q0 118 -8 160l105 -24q70 -16 74 -44q4 -26 -51 -42l-23 -7v-99h152l79 80l115 -86q20 -16 15 -33q-4 -17 -31 -17h-330v-194h255l80 80l114 -86q21 -15 16 -33
q-6 -18 -26 -18h-787l-71 -5q-50 -3 -78 -7l-39 86q120 -17 188 -17h251zM360 1179h24l75 72l98 -82q20 -17 15 -33t-13 -15l-17 1h-182v-198q24 6 84 20q58 14 109 39l16 -35q-57 -38 -180 -85q-23 -10 -135 -48q-28 -10 -61 -22q-3 -10 -4 -15q-13 -48 -26 -51
q-21 -5 -33 24l-19 45l-36 76q144 19 191 30v220h-11l-60 -5q-40 -2 -78 -7l-39 86q114 -17 173 -17h15v45q0 114 -7 152l101 -24q70 -17 74 -44t-50 -42l-24 -7v-80zM782 900v206q-93 -4 -135 -10l-39 86q92 -14 174 -18v62q-4 137 -7 152l102 -24q68 -16 72 -43
q4 -26 -50 -43l-22 -6v-98h26l84 75l104 -82q21 -16 15 -32q-6 -19 -26 -19h-203v-206h59l80 79l114 -86q20 -15 15 -33q-4 -17 -27 -17h-359q-66 0 -148 -11l-39 86q126 -18 187 -18h23zM1526 380q-189 -201 -513 -309l-11 39q199 95 325 199q83 69 147 140
q-89 128 -157 303q-40 102 -60 167q-10 33 -20 63l-48 -8l-37 86q119 -18 179 -17l416 1l58 75l75 -54q33 -24 41 -53q8 -26 -37 -41l-37 -13q-14 -39 -21 -58q-57 -168 -102 -246q-64 -114 -136 -205q187 -185 399 -238l-3 -39q-90 -4 -111 -75q-177 93 -347 283zM1282 986
q15 -32 64 -158q66 -169 180 -313q138 175 223 470zM1288 1915l108 -85h237l65 76l80 -54q38 -26 38 -49q0 -28 -76 -62l1 -420q0 -79 86 -69q66 7 87 15q22 8 29 8q15 -2 38 -26q22 -24 16 -49q-12 -43 -170 -43q-114 0 -149 34q-34 32 -34 115v466h-248v-118
q-2 -226 -54 -345q-49 -111 -192 -228l-31 31q110 128 142 231q38 117 37 303v118q-1 49 -10 151z" />
  </g>

</svg>
