<?xml version="1.0" standalone="no"?>
<!DOCTYPE svg PUBLIC "-//W3C//DTD SVG 1.1//EN" "http://www.w3.org/Graphics/SVG/1.1/DTD/svg11.dtd" >
<svg xmlns="http://www.w3.org/2000/svg" xmlns:xlink="http://www.w3.org/1999/xlink" version="1.1" viewBox="0 -205 1024 1024">
  <g transform="matrix(1 0 0 -1 0 819)">
   <path fill="currentColor"
d="M1005 96l-2 -15q-72 5 -75 -29q-42 28 -105 86q-34 29 -67 71q-25 -31 -57 -59q-85 -83 -203 -121l-4 16q106 51 184 134q30 32 55 66q-15 23 -29 48q-56 96 -91 236h-12q-17 1 -28 -14l-31 34h313l30 31l57 -48q5 -5 4 -9t-8 -5q-29 -2 -43 -50q-14 -47 -62 -143
q-21 -43 -50 -83q38 -45 78 -77q50 -38 75 -48q26 -11 71 -21zM621 968l44 -34h143l26 35l57 -43q6 -5 4 -10q-1 -4 -10 -6l-25 -13v-177q2 -58 13 -65q11 -6 38 -5q21 6 41 20h5q9 -8 31 -23q2 -2 4 -3q20 -12 9 -14l-46 -10l-44 -4q-34 -1 -46 2q-15 4 -28 18
q-15 17 -15 69v209h-146q5 -132 -20 -213q-26 -85 -100 -136l-8 10q54 65 74 136t16 205q-4 21 -26 41zM339 497l22 -22h107l19 25l48 -29q7 -6 5 -10q-1 -5 -11 -7l-14 -9v-104l6 -33q-1 -29 -40 -31v26h-109v-5q6 -10 -41 -18q5 23 7 88v96q-3 18 -11 26zM101 495l18 -20
h109l21 25l42 -33q7 -4 5 -7q-1 -4 -11 -6l-12 -9v-104l6 -27q-1 -29 -40 -31v20h-111q-3 -10 -7 -13q-6 -5 -32 -10q5 29 7 88v96q-3 21 -9 24zM684 400q30 -69 69 -123q27 40 49 82q50 98 63 170h-228q16 -57 47 -129zM338 758q6 -5 7 -8q0 -3 -5 -5q-19 -3 -33 -13
q92 -33 131 -53q55 -25 81 -67q28 -49 -2 -60q-16 -3 -30 28q-13 32 -57 63q-39 29 -133 75q-49 -73 -115 -137q-3 -2 -6 -5h206l18 30l56 -36q8 -5 7 -8q-2 -2 -13 -2h-203q-27 1 -45 -13l-30 25q-68 -63 -151 -102l-8 10q56 36 118 95t101 113q39 55 39 58t-11 18l6 8z
M154 990l64 -18q7 -4 8 -6q0 -3 -5 -5q-18 -3 -26 -16q-17 -42 -35 -77h105l24 32l52 -36q8 -6 7 -9q-2 -3 -13 -3h-137q16 -17 22 -26q17 -26 16 -60q-3 -28 -23 -28q-15 0 -13 25t-5 46q-6 17 -20 43h-24q-42 -77 -90 -118l-12 9q54 72 79 134q26 63 29 76q3 14 -11 30z
M406 990l60 -20q17 -9 7 -13q-22 -3 -30 -12q-17 -43 -35 -77h106l21 34l58 -38q8 -6 7 -9q-2 -3 -13 -3h-152q34 -19 50 -33q27 -25 31 -55q1 -27 -24 -28q-18 0 -20 20t-14 40q-12 19 -48 56h-11q-31 -54 -64 -80l-10 9q33 45 57 106q24 62 24 72q0 11 -8 26zM130 319h109
v140h-109v-140zM372 319h109v140h-109v-140zM385 277l71 -19q7 -5 7 -9q-1 -3 -10 -5q-12 -3 -18 -8q-3 -3 -11 -18q34 -16 61 -34q36 -25 47 -55q11 -31 -8 -41q-19 -11 -28 18t-35 55q-18 20 -45 40q-5 -11 -2 -5q-3 -6 -9 -21q-24 -55 -100 -137l-12 8q86 129 101 202
q-1 9 -15 17zM141 271l67 -21q7 -5 7 -9q-1 -3 -10 -5q-12 -3 -15 -8q0 -1 -4 -7q-4 -7 -7 -13q31 -13 55 -30q32 -23 42 -53q11 -33 -8 -43q-19 -11 -26 18q-7 28 -28 50q-16 18 -45 41q-2 -3 -5 -10q-2 -5 -12 -24q-35 -65 -107 -129l-8 8q70 94 92 144q22 51 22 60
t-14 19z" />
  </g>

</svg>
