<?xml version="1.0" standalone="no"?>
<!DOCTYPE svg PUBLIC "-//W3C//DTD SVG 1.1//EN" "http://www.w3.org/Graphics/SVG/1.1/DTD/svg11.dtd" >
<svg xmlns="http://www.w3.org/2000/svg" xmlns:xlink="http://www.w3.org/1999/xlink" version="1.1" viewBox="0 -205 1024 1024">
  <g transform="matrix(1 0 0 -1 0 819)">
   <path fill="currentColor"
d="M940 527q5 -6 4 -9q0 -4 -8 -5q-29 -2 -45 -49q-15 -48 -61 -145q-22 -43 -52 -85q38 -44 80 -77q54 -41 77 -50q25 -11 70 -21l-2 -15q-36 2 -52 -4q-18 -4 -23 -25q-44 28 -107 88q-34 30 -67 73q-27 -32 -57 -61q-86 -84 -205 -123l-4 16q110 55 187 137q29 32 54 66
q-15 23 -29 48q-61 104 -93 238h-12q-18 1 -28 -14l-19 34h303l30 31zM380 474q-18 1 -38 -14l-35 32h122l31 33l47 -41q7 -6 6 -10q-1 -5 -10 -6l-20 -8v-62l6 -65q-1 -18 -13 -28q-12 -11 -31 -11v34h-135v-73h150l26 36l64 -44q7 -5 6 -8q-1 -2 -12 -2h-234v-17
q16 -4 11 -3q54 -13 79 -19q45 -14 69 -35q22 -18 22 -41q-1 -20 -19 -21t-32 23q-13 24 -55 43q-20 10 -66 30q-6 3 -9 4v-75l2 -57q0 -21 -10 -30q-12 -9 -37 -14q4 37 7 100v70q-80 -84 -243 -143l-6 16q159 76 236 169h-142q-27 0 -45 -13l-32 31h232v73h-141v-7
q1 -13 -10 -24q-10 -9 -36 -14q4 36 7 92v78q-3 21 -17 38l14 11l27 -31q33 10 50 19q24 11 24 19q-1 7 -13 20l10 7l66 -43q8 -5 8 -11t-8 -5q-20 4 -46 -4q-40 -12 -76 -21v-37h48l24 34l56 -42q8 -6 6 -9q-2 -2 -12 -1h-122v-51h314v54h-41q-27 0 -45 -13l-34 31h120v56
h-65zM358 809l65 -29q15 -9 5 -15q-6 2 -31 -3q-31 -33 -4 -4q-27 -29 -52 -53h99l26 36l62 -40q9 -7 8 -11q-1 -3 -12 -3h-214v-50h82l26 37l64 -46q7 -5 6 -8q-1 -2 -12 -2h-166v-33l1 -24h137l26 36l64 -44q7 -5 6 -8q-1 -2 -12 -2h-419q-27 0 -45 -13l-32 31h234
q1 3 1 10q1 7 1 10v37h-105q-26 0 -47 -13l-32 32h184v50h-151q-27 0 -45 -13l-32 31h273l18 29q27 40 24 52q-1 1 -1 4q-3 8 -5 13zM617 967l46 -34h143l26 35l57 -43q6 -6 5 -10q-2 -4 -11 -6l-25 -14v-170q1 -58 13 -64q10 -7 40 -6q21 6 41 20h5q15 -14 35 -29
q20 -21 9 -21l-46 -10l-44 -4q-28 -1 -45 2q-16 2 -31 18q-15 18 -15 71v211h-146q4 -136 -20 -215q-31 -89 -102 -138l-8 10q52 62 74 138q19 68 16 207q-5 21 -26 41zM683 395q28 -71 68 -125q26 39 49 83q50 99 63 171h-230q15 -49 50 -129zM440 963l67 -29q15 -9 5 -15
q-6 2 -31 -3q-23 -32 -70 -87h63l26 36l64 -44q7 -5 6 -8q-1 -2 -12 -2h-461q-27 0 -45 -13l-32 31h194v131q4 7 -23 34l8 11l74 -26q14 -5 6 -11q-18 -6 -27 -18v-121h82v135q4 7 -23 34l8 11l76 -26q14 -5 6 -11q-21 -7 -29 -18v-125h11l24 35q39 64 35 76q-6 12 -7 17z
M67 960q33 -10 60 -24q28 -15 40 -34q12 -23 5 -38q-7 -16 -22 -16t-19 20q-7 20 -25 43q-19 21 -45 37zM137 800q33 -6 60 -16q26 -10 36 -27q10 -18 4 -30q-6 -13 -21 -13t-18 14t-22 30q-19 15 -45 30z" />
  </g>

</svg>
