<?xml version="1.0" standalone="no"?>
<!DOCTYPE svg PUBLIC "-//W3C//DTD SVG 1.1//EN" "http://www.w3.org/Graphics/SVG/1.1/DTD/svg11.dtd" >
<svg xmlns="http://www.w3.org/2000/svg" xmlns:xlink="http://www.w3.org/1999/xlink" version="1.1" viewBox="0 0 2048 2048">
  <g transform="matrix(1 0 0 -1 0 2048)">
   <path fill="currentColor"
d="M368 1628q-132 -36 -303 -70l-8 39q438 110 682 321l83 -59q41 -30 41 -47q0 -28 -45 -22l-45 6q-118 -64 -309 -137v-333l157 20l85 113l134 -91q21 -15 19 -32q-4 -19 -23 -22l-372 -47v-354l207 24l80 111l134 -91q21 -15 18 -32q-3 -20 -22 -22l-417 -48v-533
q0 -62 20 -74q32 -18 166 -18h1033q113 0 143 15q29 14 45 74q10 39 26 114l32 -8v-70q0 -61 16 -80q4 -6 37 -34q11 -10 15 -23q19 -81 -309 -81h-1046q-167 0 -214 19q-60 25 -60 136v552l-140 -16q-77 -9 -114 -29l-68 68l167 17l155 18v352l-127 -15q-79 -10 -123 -31
l-70 70l149 13l171 22v315zM1222 1328q48 100 83 204h-249q-117 0 -192 -8l-38 88q96 -22 230 -22h676l98 101l121 -107q20 -18 16 -33q-6 -19 -26 -19h-510q-87 -128 -158 -205h359l68 76l84 -55q40 -26 40 -48q0 -27 -78 -61v-573q0 -24 4 -85q2 -37 4 -79q2 -41 3 -59
q6 -53 -62 -59q-43 -3 -43 25v57h-582v-54q0 -37 -52 -37q-59 0 -55 59l4 57l4 80l4 76v594q0 86 -14 176l121 -90zM1652 1009h-582v-214l582 1v213zM1070 1064l582 2v204h-582v-206zM1652 739h-582v-212h582v212zM1593 1917l116 -66q31 -18 27 -39q-5 -21 -38 -21l-49 -1
q-112 -131 -198 -176l-22 25q100 121 164 278zM1067 1911q205 -135 199 -228q-4 -53 -53 -53q-36 0 -47 61q-14 76 -121 193z" />
  </g>

</svg>
