<?xml version="1.0" standalone="no"?>
<!DOCTYPE svg PUBLIC "-//W3C//DTD SVG 1.1//EN" "http://www.w3.org/Graphics/SVG/1.1/DTD/svg11.dtd" >
<svg xmlns="http://www.w3.org/2000/svg" xmlns:xlink="http://www.w3.org/1999/xlink" version="1.1" viewBox="0 0 2048 2048">
  <g transform="matrix(1 0 0 -1 0 2048)">
   <path fill="currentColor"
d="M1460 1190h-208q-77 0 -149 -12l-39 86q27 -3 41 -5q42 -6 132 -12v263q0 119 -7 160l109 -24q82 -18 85 -43q4 -30 -49 -44l-43 -11v-301h145v487q0 118 -8 160l109 -24q83 -18 86 -43q3 -30 -49 -44l-44 -11v-191h112l81 81l114 -86q21 -16 15 -33q-6 -19 -26 -19h-296
v-277h170l80 81l114 -86q21 -16 16 -33q-6 -19 -26 -19h-371v-322h106l80 81l114 -86q21 -16 16 -34q-5 -16 -43 -16l-273 -2v-338q126 -33 241 -33q23 0 67 2l1 -40q-59 -3 -79 -26q-14 -15 -24 -60q-229 27 -370 145q-72 60 -156 184q-31 -93 -54 -142q-39 -81 -122 -173
l-32 23q90 153 124 307q36 162 47 342l99 -30q67 -20 67 -44q0 -21 -47 -33l-31 -7q-21 -118 -35 -183q71 -94 209 -194zM456 1671v-376l90 12l80 106l128 -85q21 -14 19 -31q-3 -20 -23 -22l-294 -41v-408l129 17l85 109l133 -91q22 -15 19 -31q-3 -20 -23 -23l-343 -44
v-462q0 -61 21 -74q31 -18 165 -18h1075q78 0 105 18q48 32 61 219h39l-2 -112q0 -59 16 -80q4 -5 38 -34q11 -10 14 -22q20 -82 -308 -82h-1046l-84 -2q-107 0 -150 33q-39 31 -39 112v492l-87 -12q-98 -17 -133 -22l-54 59l274 37v409l-65 -9q-63 -9 -140 -31l-53 63
l258 37v362q-80 -20 -253 -56l-12 40q391 114 559 260l82 -65q41 -32 41 -47q0 -28 -45 -22l-45 7q-27 -12 -83 -36q-77 -33 -149 -54zM1020 1896l82 -32q64 -24 64 -50t-48 -32l-31 -4q-139 -225 -330 -366l-19 28q196 188 282 456zM1048 1561l101 -43q49 -21 51 -41
q2 -28 -40 -33l-42 -5q-32 -58 -92 -147q-30 -46 -67 -91l49 -19q46 -17 44 -35q-2 -22 -40 -33l-26 -7l-1 -565q0 -14 4 -60q2 -33 3 -72q2 -48 4 -68q5 -39 -38 -46q-67 -10 -67 40v786q-61 -56 -175 -131l-21 31q130 108 246 291q71 113 107 248z" />
  </g>

</svg>
