<?xml version="1.0" standalone="no"?>
<!DOCTYPE svg PUBLIC "-//W3C//DTD SVG 1.1//EN" "http://www.w3.org/Graphics/SVG/1.1/DTD/svg11.dtd" >
<svg xmlns="http://www.w3.org/2000/svg" xmlns:xlink="http://www.w3.org/1999/xlink" version="1.1" viewBox="0 -205 1024 1024">
  <g transform="matrix(1 0 0 -1 0 819)">
   <path fill="currentColor"
d="M29 597l177 35v225q-73 -22 -173 -45l-2 14q219 74 248 95q32 17 39 25q9 9 10 31l11 3l55 -45q9 -10 9 -15t-9 -5q-28 6 -59 -10q-26 -13 -89 -35v-230l52 11l25 45l73 -36q13 -7 10 -10q-2 -3 -20 -4l-140 -28v-204l90 21l19 46l79 -31q13 -7 10 -10q-2 -3 -20 -4
l-178 -42v-226q0 -56 17 -68q17 -13 58 -17q41 -5 109 -4h390q68 1 89 9q21 6 31 44q11 35 12 151h15l2 -111q1 -59 31 -66q-19 -42 -33 -46q-13 -5 -36 -9q-22 -6 -51 -7q-28 -1 -102 -1h-118h-218q-88 -2 -165 8q-77 6 -71 115v219l-93 -22q-34 -7 -45 -30l-43 30l181 42
v205l-89 -17q-34 -9 -45 -30zM470 471l34 -45h80l40 84h-126q-27 1 -45 -13l-34 31h430l28 34l64 -42q8 -5 7 -8q-2 -2 -13 -2h-256l-63 -84h228l26 33l46 -30q9 -6 9 -11q0 -4 -9 -8l-20 -13v-172q5 -51 -61 -64q13 32 -48 37l-15 3v14q13 -1 33 -3q24 -2 32 -2q9 0 16 6
q8 6 7 72v120h-101v-129l2 -35q10 -34 -43 -43q5 36 7 89v118h-90v-137l2 -47q2 -34 -43 -43q5 36 7 101v126h-92v-141l4 -66q3 -38 -49 -46q5 39 7 131v138q-3 19 -17 34zM478 849l35 -39h89l41 92h-145q-27 1 -45 -13l-34 31h430l28 36l64 -44q8 -5 7 -8q-2 -2 -13 -2
h-245l-64 -92h212l30 33l44 -30q8 -6 8 -11q0 -4 -8 -8l-20 -13v-152q4 -52 -61 -65q-5 23 -16 28t-47 13v14q16 -1 39 -3q20 -2 26 -2q7 0 14 6q8 6 7 72v100h-95v-109l2 -35q2 -35 -43 -44q5 38 7 90v98h-90v-121l2 -47q3 -37 -43 -44q5 38 7 102v110h-84v-121l4 -67
q2 -37 -49 -46q5 39 7 116v132q-3 20 -17 30z" />
  </g>

</svg>
