<?xml version="1.0" standalone="no"?>
<!DOCTYPE svg PUBLIC "-//W3C//DTD SVG 1.1//EN" "http://www.w3.org/Graphics/SVG/1.1/DTD/svg11.dtd" >
<svg xmlns="http://www.w3.org/2000/svg" xmlns:xlink="http://www.w3.org/1999/xlink" version="1.1" viewBox="0 -205 1024 1024">
  <g transform="matrix(1 0 0 -1 0 819)">
   <path fill="currentColor"
d="M14 602l163 30v226q-76 -28 -147 -41l-2 14q64 24 127 49q63 26 89 39q27 14 35 18q9 5 10 33l11 3l59 -35q9 -9 9 -13q0 -5 -9 -5q-28 4 -61 -13q-26 -13 -83 -35v-233l44 9l21 43l65 -32q13 -7 10 -10q-2 -3 -20 -4l-120 -25v-206l78 18l19 46l79 -31q13 -7 10 -10
q-2 -3 -20 -4l-166 -39v-229q0 -48 17 -62q17 -15 58 -19q41 -5 109 -4h434q68 2 89 11q21 8 31 38q11 35 12 111h15l2 -71q1 -50 29 -64q-24 -51 -67 -55q-22 -6 -51 -7q-28 -1 -111 -1h-130h-241q-88 -2 -165 8q-75 6 -69 113v222l-75 -17q-34 -7 -45 -30l-43 30l163 37
v208l-75 -15q-34 -9 -45 -30zM549 945l31 -33h244l32 40l64 -44q8 -6 7 -9q-2 -3 -13 -3h-180v-74h78l24 32l52 -34q8 -6 7 -9q-2 -3 -13 -3h-148v-74h80l26 32l50 -34q8 -6 7 -9q-2 -3 -13 -3h-150v-66h129l26 27l38 -22q9 -6 9 -11q0 -4 -9 -8l-14 -13q-4 -110 -14 -143
t-32 -52t-68 -31q-4 23 -53 40q-13 5 -21 8l4 14q30 -10 78 -14q40 2 52 43t12 146h-284q-1 -10 -8 -18q-8 -9 -34 -14q5 31 7 82v212q-3 18 -17 34zM474 437l35 -36h174l24 28l48 -28q8 -9 -9 -14l-17 -16v-136q-2 -39 34 -43q102 -6 119 4q17 9 18 53l1 82h13l7 -72
q0 -45 20 -50q-13 -31 -36 -43q-22 -12 -168 -6q-47 14 -46 64v161h-176q2 -41 -6 -85q-28 -122 -206 -176l-4 14q146 70 170 162q8 40 8 91q-4 17 -16 29zM531 859l12 -6l-66 -150q-36 -67 -41 -90q-5 -22 2 -84t-22 -64q-28 -1 -18 60q11 62 -7 77t-60 17l2 18q54 -8 67 1
q14 9 33 40q20 31 98 181zM698 808h-110v-74h110v74zM698 896h-110v-74h110v74zM698 720h-110v-66h110v66zM352 901q44 -17 72 -40q20 -18 29 -41q12 -34 -7 -47q-19 -9 -27 17q-6 26 -21 49q-20 30 -52 54zM552 583q-4 -111 -50 -126q-21 -8 -28 8q-7 17 8 24q15 8 31 31
t23 63h16zM751 603l6 12q73 -36 77 -88q2 -22 -18 -25q-19 -3 -19 17q-3 48 -46 84zM667 601l10 8q43 -27 57 -68q13 -45 -17 -51q-18 -1 -16 19t-6 44t-28 48zM583 585l10 8q40 -35 51 -73q10 -43 -18 -47q-16 0 -15 16q2 17 -2 41t-26 55z" />
  </g>

</svg>
