<?xml version="1.0" standalone="no"?>
<!DOCTYPE svg PUBLIC "-//W3C//DTD SVG 1.1//EN" "http://www.w3.org/Graphics/SVG/1.1/DTD/svg11.dtd" >
<svg xmlns="http://www.w3.org/2000/svg" xmlns:xlink="http://www.w3.org/1999/xlink" version="1.1" viewBox="0 0 2048 2048">
  <g transform="matrix(1 0 0 -1 0 2048)">
   <path fill="currentColor"
d="M455 1219v-343l128 17l66 97l130 -83q21 -14 19 -31q-4 -20 -23 -23l-320 -38v-520q0 -62 21 -74q31 -18 165 -18h1048q113 0 144 15q28 14 44 74q9 35 26 114l33 -7v-71q0 -61 15 -80q4 -5 37 -34q12 -10 15 -23q19 -81 -308 -81h-1062q-167 0 -214 19q-60 25 -60 136
v539l-117 -13q-67 -7 -119 -26l-61 72q104 4 134 7l163 20v344l-100 -11q-79 -9 -132 -29l-61 68q58 2 129 10l164 18v349q-158 -61 -289 -94l-7 40q158 54 296 139q153 95 237 198l87 -64q41 -30 41 -47q0 -28 -44 -22l-46 7q-29 -18 -107 -69q-20 -14 -72 -42v-382l110 16
l58 105l130 -87q21 -15 19 -32q-3 -19 -23 -22zM825 794q134 13 314 54q-45 72 -78 110l21 22q176 -136 163 -217q-2 -18 -19 -30q-19 -15 -41 -8q-17 6 -21 31q-6 36 -12 55q-30 -16 -212 -85q-74 -24 -93 -30l-11 -29q-12 -30 -26 -29q-16 1 -31 36l-47 110q45 16 130 100
q72 71 142 169q-19 -7 -113 -36l-23 -7l-11 -29q-11 -31 -27 -30q-14 1 -29 36l-48 111q97 58 177 326l113 -55q35 -17 33 -38q-2 -25 -44 -28l-45 -4q-64 -111 -163 -196q76 6 200 23l30 5q24 44 61 121l114 -59q26 -13 26 -31q0 -27 -37 -30l-49 -4q-116 -168 -344 -334z
M1634 1195q-7 13 -13 46q-8 42 -67 120l20 23q66 -44 89 -64q41 -36 41 -74q0 -22 -25 -51h47l68 75l107 -80q17 -13 12 -30q-5 -16 -24 -16h-231v-190h59l64 76l102 -81q17 -13 14 -28q-3 -17 -22 -17h-217v-181h66l69 72l101 -77q19 -15 14 -32q-4 -17 -24 -17h-226v-195
h91l68 73l106 -78q19 -15 14 -31q-5 -17 -25 -17h-511v-49q0 -25 -39 -29q-65 -7 -59 48l4 39q6 97 6 98l-1 541q-45 -53 -101 -99l-22 24q120 149 200 424l115 -47q25 -11 30 -25q8 -25 -36 -34l-41 -8q-24 -54 -55 -109h232zM1401 1144v-190h168v190h-168zM1401 904v-181
h168v181h-168zM1401 669v-195h168v195h-168zM818 1887l117 -64h795l58 71l69 -49q35 -25 40 -44q4 -20 -24 -37q-6 -4 -12 -7q-9 -4 -26 -14v-259q0 -19 -15 -30q-25 -18 -53 -18q-24 0 -24 18v24h-831v-16q0 -41 -73 -41q-21 0 -21 25v441zM912 1535h233v229h-233v-229z
M1236 1535h209v229h-209v-229zM1533 1535h210v229h-210v-229zM1076 700q186 -145 173 -235q-6 -45 -42 -45q-35 0 -45 52q-18 96 -105 204zM765 599q169 -163 148 -252q-10 -43 -47 -40q-34 3 -39 56q-9 98 -83 214zM943 644q171 -161 148 -251q-11 -43 -47 -41
q-35 3 -39 57q-8 98 -83 214z" />
  </g>

</svg>
