<?xml version="1.0" standalone="no"?>
<!DOCTYPE svg PUBLIC "-//W3C//DTD SVG 1.1//EN" "http://www.w3.org/Graphics/SVG/1.1/DTD/svg11.dtd" >
<svg xmlns="http://www.w3.org/2000/svg" xmlns:xlink="http://www.w3.org/1999/xlink" version="1.1" viewBox="0 -205 1024 1024">
  <g transform="matrix(1 0 0 -1 0 819)">
   <path fill="currentColor"
d="M872 997l60 -42q9 -4 10 -8q1 -5 -6 -10q-27 0 -57 -6q-60 -19 -106 -31q0 -157 4 -213q0 -6 1 -19q2 -34 4 -76h106l33 40l68 -48q8 -6 7 -9q-2 -3 -13 -3h-200v-4q1 -10 2 -33q7 -213 58 -307q24 -46 52 -73q29 -27 40 -15q9 10 40 134l15 -4l-11 -66q-20 -103 -9 -109
q8 -12 5 -21q-18 -16 -69 15q-22 15 -56 54q-33 35 -53 82q-36 80 -52 263q-4 42 -7 84h-182v-383q100 43 189 88l9 -16l-77 -46q-79 -43 -101 -61q-21 -15 -36 -49l-60 52q19 8 32 25v670q-3 19 -26 53l14 10l43 -39q45 10 118 27q10 3 15 4q57 15 113 33t67 26q11 9 7 27z
M730 888q-26 -7 -46 -10q-59 -11 -128 -19v-267h181q-3 38 -4 79q-4 89 -3 217zM30 909h329l33 41l68 -50q8 -6 7 -8q-2 -3 -13 -3h-177v-763l2 -37q3 -35 -53 -44q5 37 7 123v721h-124q-27 1 -45 -13zM354 746l85 -36q14 -5 6 -11q-21 -7 -30 -21v-329l3 -71q3 -38 -50 -46
q5 39 7 159v297q2 16 -30 46zM81 738l79 -17q16 -11 7 -14q-19 -6 -30 -17v-116q2 -202 -90 -361l-13 4q61 164 58 359v126q-4 6 -11 17q-5 8 -7 11zM632 177q66 -19 88 -33q20 -16 31 -35q11 -17 6 -36q-4 -19 -18 -22q-16 -5 -20 18q-5 21 -22 47q-17 25 -68 49z" />
  </g>

</svg>
