<?xml version="1.0" standalone="no"?>
<!DOCTYPE svg PUBLIC "-//W3C//DTD SVG 1.1//EN" "http://www.w3.org/Graphics/SVG/1.1/DTD/svg11.dtd" >
<svg xmlns="http://www.w3.org/2000/svg" xmlns:xlink="http://www.w3.org/1999/xlink" version="1.1" viewBox="0 0 2048 2048">
  <g transform="matrix(1 0 0 -1 0 2048)">
   <path fill="currentColor"
d="M531 1728h1005l108 114l131 -113q26 -22 22 -40q-5 -16 -26 -16h-1277q-161 -241 -400 -381l-20 36q175 128 288 310q102 164 144 304l125 -45q46 -16 49 -37q3 -25 -33 -31l-61 -11q-31 -50 -55 -90zM789 644q91 107 144 202l125 -55q23 -10 31 -23q11 -16 1 -30
t-33 -16l-57 -4q-18 -19 -27 -29q-61 -66 -91 -95q69 -40 129 -84q111 -83 100 -154q-8 -47 -52 -40q-27 4 -45 22t-75 84q-39 45 -124 113q-173 -138 -376 -223l-16 40q182 105 315 236q-102 65 -121 76q-117 66 -161 95l16 33q156 -68 317 -148zM354 981h847l64 76l84 -54
q40 -26 40 -49q0 -27 -77 -61l-1 -611q0 -48 7 -104q3 -27 3 -44q0 -41 -56 -49q-48 -7 -48 24l-1 70h-881v-68q0 -27 -45 -30q-66 -5 -60 51l4 42q6 95 6 104l1 772zM1217 923h-882v-685h881zM535 1418l-39 86q123 -17 187 -18h645l105 115l131 -112q27 -23 22 -40
q-6 -19 -26 -19l-877 -1q-70 0 -148 -11zM276 1186l-40 85q126 -17 188 -17h1070l68 77l84 -55q40 -26 40 -48q0 -27 -78 -62q0 -341 58 -569q38 -149 104 -251q58 -90 81 -84q18 4 40 119q2 11 23 106q5 24 14 71l38 -7q-15 -145 -19 -187q-9 -73 -9 -118q0 -38 25 -106
q15 -42 -4 -61q-15 -16 -49 -6q-88 26 -183 151q-222 291 -218 972h-1085q-63 0 -148 -10z" />
  </g>

</svg>
