<?xml version="1.0" standalone="no"?>
<!DOCTYPE svg PUBLIC "-//W3C//DTD SVG 1.1//EN" "http://www.w3.org/Graphics/SVG/1.1/DTD/svg11.dtd" >
<svg xmlns="http://www.w3.org/2000/svg" xmlns:xlink="http://www.w3.org/1999/xlink" version="1.1" viewBox="0 -205 1024 1024">
  <g transform="matrix(1 0 0 -1 0 819)">
   <path fill="currentColor"
d="M439 887q-22 -2 -36 -14l-33 34h432l28 31l50 -42q8 -12 -3 -16q-18 -7 -22 -12q-3 -4 -23 -75q-20 -70 -62 -208h114l27 31l55 -39q11 -13 -3 -21q-14 -5 -23 -11v-142q-4 -104 -13 -161q-9 -56 -38 -92q-48 -68 -171 -91q-2 23 -25 38t-103 43l6 16q114 -28 150 -28
q77 -2 117 69q23 40 31 178v190h-114l-38 -36l-44 44q18 6 30 28q34 102 82 286h-245l-5 -242q-4 -236 -77 -368q-73 -129 -215 -219l-8 16q114 90 180 216q66 128 72 333l7 264h-80zM364 809l21 -6l-102 -294q-61 -158 -82 -199q-19 -41 3 -145q23 -103 -20 -108
q-42 -4 -33 97q10 103 -7 119q-16 16 -96 25v19q77 -4 97 4t37 43q18 35 45 98t137 347zM58 710l4 13q76 -19 101 -39q26 -18 37 -37q26 -51 -8 -65q-18 -4 -28 20q-10 25 -30 52q-19 27 -76 56zM128 956l4 13q76 -19 101 -39q26 -18 37 -37q25 -50 -10 -65q-18 -4 -27 20
q-9 25 -29 52q-19 27 -76 56z" />
  </g>

</svg>
