<?xml version="1.0" standalone="no"?>
<!DOCTYPE svg PUBLIC "-//W3C//DTD SVG 1.1//EN" "http://www.w3.org/Graphics/SVG/1.1/DTD/svg11.dtd" >
<svg xmlns="http://www.w3.org/2000/svg" xmlns:xlink="http://www.w3.org/1999/xlink" version="1.1" viewBox="0 -205 1024 1024">
  <g transform="matrix(1 0 0 -1 0 819)">
   <path fill="currentColor"
d="M544 738l85 -26q16 -5 8 -11q-17 -8 -31 -16v-54q-1 -51 -3 -96h131l38 40l54 -49q7 -8 -1 -11q-13 -6 -29 -19v-318q-3 -81 42 -73q23 -1 30 -1q20 -2 41 3q32 6 35 35q2 16 3 35q2 19 1 112h17q7 -78 8 -111q2 -32 27 -46q-21 -43 -53 -56q-24 -12 -76 -11q-19 0 -54 1
q-34 0 -48 18q-13 18 -19 50v381h-148q-12 -204 -62 -303q-64 -122 -258 -178l-2 14q161 70 218 183q46 93 58 284h-112q-22 0 -44 -12l-32 32h189q1 13 1 39q1 26 1 39v80q-4 20 -23 34zM310 761l19 -8l-85 -256q-58 -160 -69 -201q-10 -41 6 -145q16 -103 -26 -108
q-40 -5 -30 99q12 101 -5 117q-16 16 -96 25v19q77 -4 91 2t31 43q18 37 44 100t120 313zM418 852q4 -25 5 -50h463l33 41l63 -56q4 -13 -10 -11q-37 -3 -51 -29q-3 -4 -15 -19q-23 -32 -41 -56l-15 8l44 102h-470q-1 -6 -1 -12q-2 -88 -50 -112q-25 -12 -38 9t15 38
q29 17 39 50q11 33 14 97h15zM542 975l6 12q102 -34 132 -83q28 -58 -12 -71q-19 -2 -27 26q-7 29 -31 58q-24 30 -68 58zM34 716l4 13q76 -19 101 -39q26 -18 37 -37q26 -51 -8 -65q-18 -4 -28 20q-10 25 -29 52q-18 27 -77 56zM116 962l4 13q76 -19 101 -39q26 -18 37 -37
q25 -50 -10 -65q-18 -4 -27 20q-9 25 -28 52q-18 27 -77 56z" />
  </g>

</svg>
