<?xml version="1.0" standalone="no"?>
<!DOCTYPE svg PUBLIC "-//W3C//DTD SVG 1.1//EN" "http://www.w3.org/Graphics/SVG/1.1/DTD/svg11.dtd" >
<svg xmlns="http://www.w3.org/2000/svg" xmlns:xlink="http://www.w3.org/1999/xlink" version="1.1" viewBox="0 -205 1024 1024">
  <g transform="matrix(1 0 0 -1 0 819)">
   <path fill="currentColor"
d="M862 892v-213h12l32 36l56 -44q11 -7 8 -10q-2 -3 -19 -2h-89v-219h32l32 42l66 -50q11 -7 8 -10q-2 -3 -19 -2h-119v-236q4 -59 -11 -89q-15 -28 -71 -40q-1 45 -106 63l4 19q94 -16 118 -14q23 2 22 47v250h-104v-134l2 -56q3 -37 -51 -45q5 38 7 114v121h-96v-168
l2 -55q2 -37 -51 -46q5 39 7 148v121h-104v-224l4 -95q2 -36 -55 -46q5 39 7 183v182h-43q-27 1 -45 -13l-34 33h122v219h-13q-27 1 -45 -13l-34 33h92v241q-6 22 -19 35l18 13l36 -41h381l30 41l50 -43q9 -6 9 -11q0 -4 -9 -8zM272 773l17 -6l-74 -259q-52 -148 -66 -200
q-10 -41 7 -145t-23 -109t-29 98q12 103 -5 119q-16 16 -84 25v19q65 -4 77 2t27 43q18 39 43 101q26 63 110 312zM714 679h104v228h-104v-228zM534 907h-104v-228h104v228zM818 659h-104v-219h104v219zM534 659h-104v-219h104v219zM672 907h-96v-228h96v228zM672 659h-96
v-219h96v219zM73 965l4 13q78 -19 101 -39q26 -18 36 -37q23 -50 -11 -66q-17 -4 -25 20q-8 25 -28 53q-20 27 -77 56zM19 730l4 13q76 -19 100 -39q25 -17 36 -37q23 -51 -10 -66q-17 -4 -26 20q-8 27 -28 53q-19 27 -76 56z" />
  </g>

</svg>
