<?xml version="1.0" standalone="no"?>
<!DOCTYPE svg PUBLIC "-//W3C//DTD SVG 1.1//EN" "http://www.w3.org/Graphics/SVG/1.1/DTD/svg11.dtd" >
<svg xmlns="http://www.w3.org/2000/svg" xmlns:xlink="http://www.w3.org/1999/xlink" version="1.1" viewBox="0 -205 1024 1024">
  <g transform="matrix(1 0 0 -1 0 819)">
   <path fill="currentColor"
d="M453 517q-1 16 -17 29l7 11l77 -26q8 -2 10 -5t-3 -7q-20 -4 -32 -18l-22 -139h157v286h-175q-27 1 -45 -13l-34 33h476l24 38l64 -48q8 -5 7 -8q-2 -2 -13 -2h-260v-132h151l30 41l50 -40q9 -6 9 -11q0 -4 -9 -8l-20 -13v-165q-4 -130 -22 -174q-18 -46 -52 -73
t-104 -40q1 41 -47 53q-20 6 -79 21l4 18q107 -22 132 -23q26 -2 51 4t47 44t26 184v8h-355l-29 -36l-52 40q24 18 28 38zM315 735l19 -8l-73 -232q-58 -160 -70 -201q-11 -43 7 -144q18 -104 -23 -109q-40 -5 -31 99q10 101 -7 117q-16 16 -96 25v19q80 -4 93 2q14 6 31 43
q18 37 44 100t106 289zM423 868q2 -22 3 -42h456l29 42l60 -49q6 -7 3 -11t-15 -4q-13 0 -27 -10q-13 -10 -72 -82l-15 6l46 88h-464q0 -17 -1 -31q-5 -75 -46 -81q-22 -4 -30 14t14 35t28 42t13 83h18zM674 362h167v134h-167v-134zM51 714l4 13q76 -19 100 -39
q26 -18 36 -37q25 -51 -7 -65q-16 -4 -27 20q-10 25 -29 52q-18 27 -77 56zM125 960l4 13q76 -19 100 -39q26 -18 36 -37q24 -50 -9 -65q-17 -4 -26 20q-9 25 -28 52q-18 27 -77 56zM541 976l6 13q86 -20 123 -63q39 -59 -10 -75q-17 0 -23 25q-6 26 -25 47q-18 21 -71 53z
" />
  </g>

</svg>
