<?xml version="1.0" standalone="no"?>
<!DOCTYPE svg PUBLIC "-//W3C//DTD SVG 1.1//EN" "http://www.w3.org/Graphics/SVG/1.1/DTD/svg11.dtd" >
<svg xmlns="http://www.w3.org/2000/svg" xmlns:xlink="http://www.w3.org/1999/xlink" version="1.1" viewBox="0 -204 1024 1024">
  <g transform="matrix(1 0 0 -1 0 820)">
   <path fill="currentColor"
d="M122 938q36 -22 63 -42q28 -20 44 -34q17 -14 25 -23q4 -9 8 -16q3 -7 3 -16q-1 -34 -25 -34q-7 0 -12 4q-4 4 -21 34q-19 29 -39 54q-23 24 -60 55zM62 701q33 -22 58 -43q25 -19 40 -36q13 -12 20 -22q5 -10 8 -18q5 -8 5 -15q-3 -38 -29 -38q-5 0 -9 3q-5 4 -21 37
q-14 31 -34 55q-18 27 -53 60zM836 901q-64 -6 -130 -14q-41 -3 -82 -5v-99h212l47 52q38 -29 71 -54q10 -6 10 -12q0 -15 -17 -15h-323v-95h184l35 33q51 -36 51 -50q0 -11 -31 -26v-89h4l44 48q36 -27 69 -51q7 -5 7 -11q0 -15 -14 -15h-110v-81q19 -13 34 -24q6 -4 6 -8
q0 -15 -10 -15h-247q30 -45 63 -81q36 -42 86 -81q49 -35 97 -61q46 -25 88 -36l-3 -18q-52 0 -71 -32q-46 21 -83 52q-42 34 -71 72q-34 35 -67 77q-30 38 -61 96v-244q0 -22 1 -32v-27q0 -35 -30 -35q-27 0 -27 18q0 21 3 55t3 59v190q-28 -50 -61 -86q-52 -59 -112 -108
q-57 -44 -148 -91l-13 17q83 54 134 98q44 38 83 90q38 46 70 108h-70q-72 -2 -98 -7l-19 47q44 -11 117 -11h117v99h-182q-70 -2 -96 -7l-21 47q43 -11 117 -11h182v103h-115q-80 0 -98 -7l-18 43q41 -7 116 -7h115v95h-174q-70 -2 -97 -7l-19 47q44 -11 116 -11h174v96
q-19 -1 -36 -2q-71 -3 -180 -5l-7 24q59 2 122 7t120 12q61 7 104 15t72 17q24 6 43 13q40 -22 70 -46q5 -4 5 -8q0 -11 -16 -11q-14 0 -35 6zM624 399h191v99h-191v-99zM815 527v103h-191v-103h191zM291 668l8 -18q-37 -121 -83 -254q-46 -138 -99 -269q-5 -52 -14 -52
q-7 0 -60 73q65 95 135 253q71 150 113 267z" />
  </g>

</svg>
