<?xml version="1.0" standalone="no"?>
<!DOCTYPE svg PUBLIC "-//W3C//DTD SVG 1.1//EN" "http://www.w3.org/Graphics/SVG/1.1/DTD/svg11.dtd" >
<svg xmlns="http://www.w3.org/2000/svg" xmlns:xlink="http://www.w3.org/1999/xlink" version="1.1" viewBox="0 -205 1024 1024">
  <g transform="matrix(1 0 0 -1 0 819)">
   <path fill="currentColor"
d="M578 968l78 -22q14 -5 6 -11q-21 -9 -31 -21v-211h43l32 32l56 -42q7 -5 6 -8q-1 -2 -12 -2h-125v-112q32 -21 57 -47q29 -30 41 -58q12 -30 6 -49q-6 -21 -23 -21t-20 28q-3 27 -21 65q-14 27 -40 56v-347l2 -96q0 -21 -11 -31q-12 -9 -38 -15q4 30 7 201v280
q-56 -183 -166 -300l-10 10q136 202 171 436h-40q-27 0 -45 -13l-34 33h124v221q1 16 -20 34zM407 760l62 -29q10 -6 1 -13q-21 -3 -27 -15q-34 -65 -57 -102v-427l2 -86q0 -21 -13 -31q-13 -9 -37 -15q4 39 7 131v369q-60 -82 -123 -129l-10 9q77 88 137 193q62 110 60 117
q-1 9 -10 20zM710 630h197l32 33l56 -43q7 -5 6 -8q-1 -2 -12 -2h-99v-471q-2 -34 -14 -55q-14 -21 -68 -35q-1 30 -24 37t-77 21l4 18l32 -8q58 -14 82 -6q24 9 25 51v448h-61q-27 0 -45 -13zM18 298q61 -4 76 2t28 38q8 19 29 87l3 9q19 63 79 304l17 -6l-54 -253
q-10 -41 -26 -104q-9 -37 -21 -81q-13 -45 2 -139q15 -93 -21 -99q-38 -5 -26 90q9 91 -6 108q-17 16 -80 25v19zM474 954q12 -11 -10 -17q-10 -1 -18 -12q-66 -148 -169 -230l-10 10q69 91 106 163q38 72 38 83t-9 24l8 8zM90 971q72 -20 93 -35q20 -17 32 -35
q11 -21 8 -39q-3 -19 -18 -22t-23 20q-9 21 -24 46q-14 20 -72 52zM27 733q63 -17 86 -35q24 -21 32 -39q8 -20 5 -41q-4 -19 -19 -21q-17 -3 -23 23q-7 24 -21 50q-15 24 -64 50zM740 879h138l33 33l56 -43q7 -5 6 -8q-1 -2 -12 -2h-142q-27 0 -45 -13zM660 873
q40 -15 64 -34q21 -21 26 -40q3 -21 -4 -31q-9 -11 -20 -8q-12 3 -16 26q-5 22 -17 40q-13 17 -39 36z" />
  </g>

</svg>
