<?xml version="1.0" standalone="no"?>
<!DOCTYPE svg PUBLIC "-//W3C//DTD SVG 1.1//EN" "http://www.w3.org/Graphics/SVG/1.1/DTD/svg11.dtd" >
<svg xmlns="http://www.w3.org/2000/svg" xmlns:xlink="http://www.w3.org/1999/xlink" version="1.1" viewBox="0 -205 1024 1024">
  <g transform="matrix(1 0 0 -1 0 819)">
   <path fill="currentColor"
d="M400 928l35 -40h88l21 36q20 41 18 48q-2 8 -10 15l8 11l60 -20q17 -9 7 -17q-20 -3 -28 -12q-16 -18 -51 -61h277l29 31l48 -37q7 -6 5 -10q-1 -5 -11 -7l-18 -9v-240l4 -40q7 -30 -46 -34v24h-393q-2 -22 -14 -30q-13 -10 -35 -15q5 47 7 135v226q-5 22 -16 34z
M996 139v-18q-66 3 -82 -28q-113 54 -195 171q-28 41 -58 102v-245l2 -57q3 -36 -51 -44q5 37 7 146v277q-129 -7 -283 -9l-2 18q408 25 513 54q5 6 4 18l10 4l53 -42q9 -9 9 -14t-9 -6q-25 10 -63 2q-87 -14 -190 -22v-35q43 -69 82 -116q75 44 109 68q36 24 35 32t-4 15
l11 4l46 -49q5 -5 4 -9q-1 -3 -8 -5q-18 7 -26 4q-7 -3 -51 -28q-40 -22 -103 -48l10 -10q99 -103 167 -121q26 -5 63 -9zM836 768h-393v-86h393v86zM443 784h393v86h-393v-86zM836 666h-393v-82h393v82zM338 760l17 -8l-89 -248q-68 -176 -86 -217q-16 -41 -3 -143
q14 -105 -25 -110q-38 -5 -25 99q14 101 -3 117q-16 17 -96 21v19q80 0 93 6q14 6 37 43q24 38 54 108q30 71 126 313zM505 276l53 -42q7 -8 5 -11q-3 -4 -14 -3q-19 -2 -25 -7t-77 -50q-70 -44 -197 -87l-6 14q123 58 186 103t67 51q5 6 -3 26zM465 402l53 -42q7 -8 5 -11
q-3 -4 -14 -3q-19 0 -25 -3t-59 -35t-164 -68l-6 14q150 66 204 119q5 7 -3 25zM38 707l4 13q77 -19 99 -39q24 -18 35 -37q25 -50 -6 -65q-16 -4 -26 20q-10 25 -29 52q-18 27 -77 56zM112 953l4 13q77 -19 99 -39q24 -18 35 -37q24 -49 -8 -65q-16 -4 -25 20q-9 25 -28 52
q-18 27 -77 56z" />
  </g>

</svg>
