<?xml version="1.0" standalone="no"?>
<!DOCTYPE svg PUBLIC "-//W3C//DTD SVG 1.1//EN" "http://www.w3.org/Graphics/SVG/1.1/DTD/svg11.dtd" >
<svg xmlns="http://www.w3.org/2000/svg" xmlns:xlink="http://www.w3.org/1999/xlink" version="1.1" viewBox="0 -205 1024 1024">
  <g transform="matrix(1 0 0 -1 0 819)">
   <path fill="currentColor"
d="M812 505q6 -9 -9 -14l-23 -14v-44q-2 -62 23 -65q13 -4 38 -6h8q21 0 55 2q26 2 36 23q5 17 6 33q0 17 5 69h15q3 -40 6 -73q2 -35 21 -40q-14 -29 -41 -40q-24 -11 -102 -11q-77 0 -93 18q-19 18 -19 85v67h-172q-17 -87 -87 -141q-61 -53 -233 -82l-4 16q155 40 206 84
q54 48 70 100q3 11 6 23h-138q-35 0 -41 -15l-37 35h221q6 30 8 60q-5 24 -17 28l4 12l69 -14q18 -6 8 -13q-1 0 -3 -1q-8 -1 -20 -7q-3 -33 -8 -65h156l31 37zM451 112h340v149h-340v-149zM742 994l79 -28q14 -5 6 -11q-21 -9 -30 -21v-76h85l25 29l53 -42q5 -5 3 -7
q-2 -1 -11 0h-140q76 -152 176 -190l-1 -17q-23 0 -35 -3q-15 -3 -30 -18q-78 85 -125 211v-161l2 -34q0 -21 -11 -30q-12 -9 -38 -14q2 17 5 49q1 11 2 16v127q-54 -102 -160 -167l-7 10q102 89 157 221h-35q-27 0 -45 -13l-35 33h125v86q2 15 -24 38zM451 998l81 -26
q14 -5 6 -11q-21 -9 -30 -21v-82h47l24 29l53 -42q5 -5 3 -7q-2 -1 -11 0h-116v-43q29 -12 53 -25q31 -18 46 -40q15 -24 10 -42q-5 -19 -20 -19t-24 25q-9 24 -29 48q-18 18 -36 30v-100l2 -46q0 -21 -13 -30q-15 -9 -36 -14q4 36 7 89v94q-64 -109 -177 -179l-9 10
q119 108 179 242h-72q-28 0 -46 -13l-34 33h159v92q1 15 -26 36zM36 297q67 0 79 6t29 43q5 12 17 44q15 36 23 57q34 90 107 312l17 -6l-76 -257q-56 -161 -65 -202q-12 -42 2 -144q12 -105 -24 -111q-40 -5 -23 100q16 101 -1 118q-18 15 -85 21v19zM96 964
q76 -20 100 -38q22 -19 34 -39q11 -19 8 -40t-18 -25t-23 21q-9 24 -27 52q-20 27 -78 56zM46 729q73 -21 96 -38q21 -20 33 -38q9 -20 8 -41q-3 -21 -18 -25q-17 -4 -23 21q-7 22 -27 52q-21 27 -73 56zM812 313l45 -40q7 -6 5 -10q-1 -5 -11 -7l-18 -9v-123l4 -40
q1 -23 -8 -32q-11 -9 -38 -12v52h-340v-11q0 -29 -12 -39q-13 -9 -37 -15q4 48 7 99v133q0 24 -13 37l17 13l31 -28h330l32 32h6z" />
  </g>

</svg>
