<?xml version="1.0" standalone="no"?>
<!DOCTYPE svg PUBLIC "-//W3C//DTD SVG 1.1//EN" "http://www.w3.org/Graphics/SVG/1.1/DTD/svg11.dtd" >
<svg xmlns="http://www.w3.org/2000/svg" xmlns:xlink="http://www.w3.org/1999/xlink" version="1.1" viewBox="0 -205 1024 1024">
  <g transform="matrix(1 0 0 -1 0 819)">
   <path fill="currentColor"
d="M559 990l66 -20q17 -10 7 -15q-20 -3 -28 -12q-12 -17 -47 -61h221l35 41l48 -47q7 -6 5 -10q-1 -5 -11 -7l-18 -9v-100l4 -40q5 -31 -46 -36v32h-371v-62h452l28 42l68 -48q8 -6 7 -9q-2 -3 -13 -3h-542v-62h449l26 30l42 -30q9 -6 9 -11q0 -4 -9 -8l-18 -9v-21
q2 -96 -8 -135t-32 -62q-22 -22 -62 -28q-13 28 -63 46q-9 3 -13 5l4 15q82 -28 99 -11q13 9 23 36q10 28 10 112v53h-458q-1 -19 -12 -26q-12 -10 -36 -15q5 47 7 99v270q-4 24 -18 42l15 12l36 -46h112l20 36q22 37 19 46q-3 11 -13 15zM948 144l3 -16q-49 9 -75 -19
q-76 44 -128 126q-28 42 -51 104q-8 -4 -27 -12q-16 -7 -25 -11q19 -31 29 -66q33 -125 -13 -178q-23 -26 -83 -42q7 26 -80 47q-19 6 -30 9l6 14q56 -11 78 -13q26 -3 44 -1q52 5 52 78q0 44 -9 78l-1 4q-26 -32 -70 -62q-95 -67 -254 -99l-4 12q68 26 115 46q47 17 105 57
q51 35 92 87q-3 7 -11 22q-5 8 -8 13q-1 2 -3 4q-1 2 -5 7q-28 -29 -70 -59q-95 -66 -215 -93l-4 14q124 48 201 108q29 23 62 64q-16 18 -36 36l-18 -15q-86 -67 -211 -94l-4 12q122 48 183 100q27 22 52 52h-141q-27 1 -45 -13l-34 29h442l26 34l58 -40q8 -6 7 -8
q-2 -3 -13 -2h-248q-21 -24 -41 -43q39 -24 73 -63q3 -3 7 -9q5 -6 7 -9q54 30 82 48q54 30 36 43l11 6l39 -37q7 -5 7 -9q0 -3 -7 -5q-19 5 -48 -12q-6 -4 -23 -13l-12 -6q24 -51 50 -84q69 -84 121 -106q16 -7 59 -15zM325 758l17 -8l-85 -256q-60 -160 -72 -201
q-10 -41 3 -143q14 -105 -25 -110q-38 -5 -25 99q14 101 -3 117q-16 17 -96 21v19q80 0 93 6q14 6 31 43q18 37 44 100t118 313zM424 802h371v62h-371v-62zM795 786h-371v-62h371v62zM37 713l4 13q77 -19 99 -39q24 -18 35 -37q25 -50 -6 -65q-16 -4 -26 20q-10 25 -29 52
q-18 27 -77 56zM119 959l4 13q77 -19 99 -39q24 -18 35 -37q24 -49 -8 -65q-16 -4 -25 20q-9 25 -28 52q-18 27 -77 56z" />
  </g>

</svg>
