<?xml version="1.0" standalone="no"?>
<!DOCTYPE svg PUBLIC "-//W3C//DTD SVG 1.1//EN" "http://www.w3.org/Graphics/SVG/1.1/DTD/svg11.dtd" >
<svg xmlns="http://www.w3.org/2000/svg" xmlns:xlink="http://www.w3.org/1999/xlink" version="1.1" viewBox="0 -205 1024 1024">
  <g transform="matrix(1 0 0 -1 0 819)">
   <path fill="currentColor"
d="M275 194h342v76h-166q-1 -19 -12 -28q-11 -10 -35 -15q5 41 7 93v142q-3 12 -12 16l15 12l28 -24h373l27 29l44 -35q7 -6 5 -10q-1 -5 -11 -7l-16 -9v-122l4 -38q5 -29 -44 -34v30h-167v-76h242l32 31l56 -41q8 -5 7 -8q-2 -2 -13 -2h-324v-53l2 -57q3 -36 -49 -44
q5 37 7 100v54h-263q-27 1 -45 -13zM360 702l29 -28h144v79h-133q-27 1 -45 -13l-34 31h544l32 32l56 -40q8 -5 7 -8q-2 -2 -13 -2h-212v-79h126l17 25l46 -29q7 -6 5 -10q-1 -5 -11 -7l-10 -9v-64l4 -30q6 -31 -44 -36v22h-471q-2 -15 -13 -19q-12 -5 -34 -10q5 27 7 79v84
q-3 16 -12 22zM710 1001l83 -26q14 -5 6 -11q-21 -7 -30 -21v-56h118l32 32l56 -40q8 -5 7 -8q-2 -2 -13 -2h-200l2 -36q3 -36 -49 -44q5 32 6 80h-195l2 -38q3 -36 -49 -44q5 32 6 82h-114q-27 1 -45 -13l-34 31h194v66q2 16 -30 34l9 12l85 -24q14 -5 6 -11
q-21 -7 -30 -21v-56h196v66q2 17 -28 36zM824 362h-373v-74h373v74zM310 744l17 -8l-81 -244q-60 -158 -73 -200q-12 -42 2 -144q14 -105 -24 -110q-37 -5 -24 99q14 101 -3 117q-16 17 -96 21v19q80 0 93 6q14 6 31 43q18 37 44 100t114 301zM451 378h373v70h-373v-70z
M533 658h-136v-106h136v106zM701 658h-134v-106h134v106zM735 552h133v106h-133v-106zM701 753h-134v-79h134v79zM120 957l4 13q76 -19 98 -39q23 -18 34 -37q24 -49 -8 -65q-16 -4 -24 20q-7 25 -27 52q-18 27 -77 56zM22 711l4 13q76 -19 98 -39q23 -18 34 -37
q24 -49 -5 -65q-15 -4 -25 20q-10 25 -29 52q-18 27 -77 56z" />
  </g>

</svg>
