<?xml version="1.0" standalone="no"?>
<!DOCTYPE svg PUBLIC "-//W3C//DTD SVG 1.1//EN" "http://www.w3.org/Graphics/SVG/1.1/DTD/svg11.dtd" >
<svg xmlns="http://www.w3.org/2000/svg" xmlns:xlink="http://www.w3.org/1999/xlink" version="1.1" viewBox="0 0 2048 2048">
  <g transform="matrix(1 0 0 -1 0 2048)">
   <path fill="currentColor"
d="M1384 985q101 -92 225 -162q188 -108 383 -129l1 -39q-16 2 -23 1q-50 -3 -91 -68q-89 32 -140 58l-25 -22v-353q0 -46 7 -104q3 -25 3 -43q0 -42 -66 -49q-47 -6 -48 24v48h-556v-44q0 -31 -50 -31q-65 0 -60 51l4 42q6 98 6 104v385q-89 -43 -200 -78l-21 42
q379 145 578 478l117 -50q35 -15 31 -40t-36 -23zM1347 948q-135 -148 -297 -243l18 -8h532l18 20q-149 97 -271 231zM1054 531h556v109h-556v-109zM1054 365h556v110h-556v-110zM1054 201h556v110h-556v-110zM195 1896q337 -124 337 -256q0 -51 -46 -51q-32 0 -49 19
q-13 15 -38 57q-59 101 -227 195zM87 1398q324 -124 340 -248q7 -54 -38 -65q-35 -8 -56 17q-15 16 -36 54q-55 96 -232 208zM495 929l34 -20q-121 -332 -317 -686q4 -22 4 -33q3 -55 -14 -65t-48 36l-73 107q95 117 159 214q91 138 236 412zM878 1204q92 -24 240 -24h470
l82 80l112 -84q26 -20 19 -38q-6 -16 -25 -16h-658q-113 -2 -196 -6zM1519 1079q35 -11 52 -16q297 -95 276 -197q-6 -28 -30 -34t-45 13q-12 12 -51 55q-43 46 -217 145zM1077 1112l112 -60q42 -22 36 -43q-8 -29 -73 -25q-8 1 -23 2q-186 -145 -328 -193l-18 32
q101 65 159 119q72 67 135 168zM1183 1611l58 -13q83 -18 86 -44t-51 -44l-40 -13v-23l208 12l72 84l107 -80q20 -15 19 -30q-1 -16 -24 -18l-382 -30q1 -42 33 -54q71 -26 207 -21q110 4 189 27q29 9 42 7q37 -5 50 -44q16 -45 -79 -60q-129 -22 -276 -17q-190 7 -239 64
q-18 22 -22 92l-195 -16l-68 -10l-44 68l92 4l214 16q-1 19 -3 116q-1 10 -3 27h-356l-1 -444q-1 -397 -65 -629q-70 -254 -263 -427l-31 28q161 179 217 459q47 235 47 589l1 371q0 47 -10 179l123 -70h398v146q-1 85 -9 133l123 -25q74 -15 71 -42q-2 -21 -52 -35l-35 -10
l-2 -40h298l80 95l114 -99q18 -16 17 -30q-2 -20 -19 -20h-490v-73h478l56 70l103 -84q24 -19 15 -38q-7 -16 -86 -38q-51 -68 -108 -143l-34 18q30 83 54 159h-585z" />
  </g>

</svg>
