<?xml version="1.0" standalone="no"?>
<!DOCTYPE svg PUBLIC "-//W3C//DTD SVG 1.1//EN" "http://www.w3.org/Graphics/SVG/1.1/DTD/svg11.dtd" >
<svg xmlns="http://www.w3.org/2000/svg" xmlns:xlink="http://www.w3.org/1999/xlink" version="1.1" viewBox="0 0 2048 2048">
  <g transform="matrix(1 0 0 -1 0 2048)">
   <path fill="currentColor"
d="M1532 1269l-96 -15q-23 -4 -90 -24l-52 77q31 -1 109 8l26 3l101 16q0 34 -1 96l-4 223q-8 254 -12 276l111 -24q88 -19 91 -44q3 -28 -51 -44l-40 -11q1 -43 1 -60l-2 -167q0 -82 1 -147v-80l98 18l64 94l134 -69q24 -12 22 -30q-1 -20 -22 -24l-296 -55q1 -52 24 -342
l14 -111q9 -80 12 -98q21 48 73 249q29 114 39 173l128 -51q46 -18 44 -41q-2 -22 -40 -27l-53 -6l-24 -73q-76 -234 -135 -387q76 -296 114 -293q16 1 31 49l78 245l38 -9l-53 -244q-10 -47 -6 -100q2 -29 8 -53q8 -33 9 -53q2 -28 -19 -39q-54 -30 -154 116
q-66 96 -106 273q-61 -90 -108 -141q-61 -65 -215 -185l-22 27q226 209 312 422q-77 422 -81 682zM1689 1739l24 26q206 -119 185 -211q-10 -44 -48 -39q-28 4 -41 31q-11 19 -27 64q-18 53 -93 129zM756 1268l-51 82q47 -4 73 -4q5 0 39 1q17 1 49 1v200h-191v-448
q-12 -444 -61 -614q-59 -203 -220 -383l-28 27q116 158 160 329q56 214 56 641q0 367 -8 465q-5 60 -7 111l116 -72h221v188q0 114 -8 160l109 -24q80 -17 85 -44q6 -24 -45 -40l-43 -14v-65h154l80 82l114 -86q21 -16 15 -35q-5 -19 -25 -19h-338v-103h222l54 62l93 -65
q28 -20 35 -34q14 -30 -35 -40l-49 -9q-113 -79 -125 -88l-22 18l16 32q24 44 33 68h-298l42 -9q69 -15 69 -40q0 -21 -41 -35l-33 -12v-94h9l85 11l57 75l106 -60q24 -14 20 -33t-23 -22l-245 -29h-9q1 -65 14 -85q22 -36 134 -36q55 0 97 15q34 11 44 11q15 0 38 -20
q23 -18 23 -40q0 -28 -50 -35q-119 -16 -167 -16q-168 0 -205 64q-24 41 -25 125q-70 -3 -110 -15zM769 933l-39 84q96 -22 230 -22h162l80 85l114 -85q21 -16 16 -35q-6 -19 -26 -19h-346q-117 0 -191 -8zM1162 532l108 -55q30 -16 25 -33q-6 -19 -33 -20l-53 -2
q-34 -64 -87 -136q71 13 176 35l12 -36q-137 -49 -439 -121l-66 -16q-5 -21 -8 -34q-8 -31 -21 -37q-15 -7 -39 36l-62 113q41 6 150 17q41 5 94 12q-12 26 -18 55q-15 75 -76 171l-11 -7q-19 -5 -27 -5q-24 0 -24 22v269l-3 103l121 -57h272l65 77l71 -54q44 -37 43 -53
q-3 -23 -64 -50v-129l30 -17q15 -8 19 -19q3 -10 -10 -19.5t-32 -9.5h-113zM858 587h310v161h-310v-161zM1059 276q58 125 94 256h-295v-27q11 -9 25 -22q41 -36 68 -78q47 -73 34 -122q-2 -6 -9 -20q39 5 83 13zM208 1855q21 -10 89 -35q59 -22 129 -74q47 -35 54 -77
q5 -31 -13 -57q-11 -17 -25 -20q-27 -5 -61 53q-57 96 -196 174zM125 1356q82 -29 172 -83q110 -66 114 -136q2 -28 -18 -48q-14 -14 -30 -13q-26 2 -64 65q-62 103 -197 182zM443 853l33 -22q-18 -72 -102 -330q-51 -156 -115 -312q4 -22 4 -34q3 -54 -15 -65
q-18 -10 -51 36l-78 107q71 106 125 201q65 116 184 386z" />
  </g>

</svg>
