<?xml version="1.0" standalone="no"?>
<!DOCTYPE svg PUBLIC "-//W3C//DTD SVG 1.1//EN" "http://www.w3.org/Graphics/SVG/1.1/DTD/svg11.dtd" >
<svg xmlns="http://www.w3.org/2000/svg" xmlns:xlink="http://www.w3.org/1999/xlink" version="1.1" viewBox="0 0 2048 2048">
  <g transform="matrix(1 0 0 -1 0 2048)">
   <path fill="currentColor"
d="M1106 643q35 -48 83 -104q218 141 394 355l87 -64q56 -42 41 -65q-7 -11 -60 -13l-37 -1q-184 -143 -397 -245q169 -150 377 -225q176 -63 404 -93v-42q-61 1 -85 -16q-22 -15 -37 -57q-325 89 -515 225q-148 107 -273 278q-62 -183 -276 -314q-208 -127 -616 -198l-4 41
q252 69 404 134q200 87 318 231q83 102 106 280q13 109 13 199q0 23 -3 88l105 -19q83 -15 87 -38q6 -27 -50 -45l-37 -12q-9 -154 -29 -280zM1264 1243q-512 -363 -1146 -486l-12 40q589 161 1006 446h-794q-102 0 -177 -8l-38 88q97 -23 204 -23h583v300h-310
q-108 0 -192 -8l-38 88q95 -22 230 -22h310v122q0 123 -8 160l109 -24q82 -18 85 -44q4 -28 -49 -43l-41 -12v-159h267l98 101l121 -107q20 -18 16 -33q-6 -19 -26 -19h-476v-300h207q330 249 485 558l123 -71q34 -19 37 -40q2 -29 -42 -26l-57 4q-183 -251 -400 -425h377
l102 102l124 -107q21 -18 16 -33q-6 -19 -26 -19h-668zM507 844q142 -50 235 -97q157 -79 152 -167q-2 -22 -17 -39.5t-33 -17.5q-23 0 -48 27q-5 6 -45 65q-69 100 -259 192z" />
  </g>

</svg>
