<?xml version="1.0" standalone="no"?>
<!DOCTYPE svg PUBLIC "-//W3C//DTD SVG 1.1//EN" "http://www.w3.org/Graphics/SVG/1.1/DTD/svg11.dtd" >
<svg xmlns="http://www.w3.org/2000/svg" xmlns:xlink="http://www.w3.org/1999/xlink" version="1.1" viewBox="0 -200 1000 1000">
  <g transform="matrix(1 0 0 -1 0 800)">
   <path fill="currentColor"
d="M432 901h402l39 49l65 -70h-420l-64 -12zM512 599l322 5q-9 17 -29 47t-51 68l7 10q48 -32 79 -57t44 -42q25 -28 25 -60q0 -2 -0.5 -5t-0.5 -6q-5 -35 -25 -45q-1 -1 -4 -1q-16 0 -37 73q-95 -3 -204 -15q-29 -3 -57.5 -8.5t-53.5 -12.5t-44.5 -15t-29.5 -15l-36 77
l72 4q20 26 43.5 62t46 74.5t40.5 76t28 67.5l68 -53q-20 -8 -44 -38l-56 -70q-32 -38 -57.5 -69.5t-45.5 -51.5zM636 333v202l72 -34l-22 -64v-104h88l46 53l69 -75h-203v-238h152l45 54l71 -75h-487l-55 -13l-22 34h246v238h-119l-63 -12l-21 34h203zM82 0q46 90 71.5 186
t37.5 195t14 199t2 197v136v46v23.5t2 18.5v-4l74 -38l-22 -71l-3 -239q39 48 66 88.5t36 85.5l59 -72l-38 -22q-9 -9 -24 -23t-32 -29t-34.5 -28.5t-32.5 -22.5q-4 -102 -8 -157.5t-7 -80.5q25 -17 49.5 -36t44 -38t31.5 -38t12 -35q-3 -21 -15 -39.5t-25 -18.5
q-12 0 -19 19q-5 23 -12 43t-16.5 39.5t-22 40.5t-28.5 47q-9 -65 -25 -123.5t-36 -108t-42 -87.5t-43 -61zM111 677q-8 -66 -21.5 -113.5t-33.5 -79.5q-4 -8 -4 -21q0 -14 7 -24.5t21 -10.5q16 4 26.5 15t16.5 27t8 35t2 40q0 38 -4.5 75t-5.5 59z" />
  </g>

</svg>
