<?xml version="1.0" standalone="no"?>
<!DOCTYPE svg PUBLIC "-//W3C//DTD SVG 1.1//EN" "http://www.w3.org/Graphics/SVG/1.1/DTD/svg11.dtd" >
<svg xmlns="http://www.w3.org/2000/svg" xmlns:xlink="http://www.w3.org/1999/xlink" version="1.1" viewBox="0 -205 1024 1024">
  <g transform="matrix(1 0 0 -1 0 819)">
   <path fill="currentColor"
d="M293 995l82 -34q14 -5 6 -11q-16 -4 -27 -18v-87h110l32 40l68 -50q8 -5 7 -8q-2 -2 -13 -2h-204v-98h98l32 40l68 -48q8 -5 7 -8q-2 -2 -13 -2h-192v-99h274l-1 19q-4 89 -4 195q1 107 -2 120q-2 14 -22 30l6 12l88 -31q9 -5 10 -8t-6 -5q-14 -4 -31 -18q0 -154 2 -221
q1 -18 2 -52q2 -28 2 -41h180l41 50l74 -58q11 -7 8 -10q-2 -3 -19 -2h-282l1 -10q7 -143 49 -255l3 -8q27 38 46 74q44 83 46 97q3 14 -13 28l7 8l82 -43q11 -11 0 -17q-24 2 -36 -12q-56 -105 -112 -179q24 -46 61 -86q57 -62 79 -71t34 55l17 97l17 -4q-10 -93 -10 -130
q0 -39 12 -56t8 -26t-18 -10q-13 -2 -54 15q-40 16 -100 76q-46 44 -79 99q-24 -28 -48 -50q-97 -89 -223 -141l-4 12q120 73 203 161q29 30 51 59q-34 74 -48 169q-11 77 -16 148h-514q-27 1 -45 -13l-34 33h274v99h-115q-27 1 -45 -13l-34 31h194v98h-151q-27 1 -45 -13
l-34 33h230v97q2 17 -25 42zM345 524q-1 -98 -13 -179q84 59 108 79q42 33 43 37q1 5 -2 24l13 3l52 -66q4 -6 3 -9q-2 -4 -10 -4q-16 8 -27 9q-11 0 -61 -28q-10 -6 -41 -24q-58 -36 -82 -49q-1 -7 -3 -13q70 -33 112 -68q105 -88 66 -128q-22 -16 -36 20q-15 35 -57 79
q-36 36 -90 74q-55 -168 -255 -255l-6 17q200 127 231 289q10 59 12 151q2 53 -3 62q-3 9 -18 24l8 8l88 -27q4 -4 3 -6q0 -2 -5 -3q-9 -3 -30 -17zM740 869l6 13q82 -31 122 -88q42 -71 -4 -86q-19 -2 -25 26q-6 29 -32 66q-26 38 -67 69zM212 466q7 -114 -30 -156
q-49 -52 -70 -21q-9 17 14 32t42 43q20 29 27 102h17z" />
  </g>

</svg>
