<?xml version="1.0" standalone="no"?>
<!DOCTYPE svg PUBLIC "-//W3C//DTD SVG 1.1//EN" "http://www.w3.org/Graphics/SVG/1.1/DTD/svg11.dtd" >
<svg xmlns="http://www.w3.org/2000/svg" xmlns:xlink="http://www.w3.org/1999/xlink" version="1.1" viewBox="0 0 2048 2048">
  <g transform="matrix(1 0 0 -1 0 2048)">
   <path fill="currentColor"
d="M707 763q-50 92 -81 128q-24 26 -88 83q-152 -85 -290 -141l-17 30q19 11 29 16q238 131 381 263q85 79 188 224l104 -47q46 -21 47 -37q1 -27 -59 -27h-33q-45 -49 -104 -102l290 -1l63 64l99 -72q28 -20 30 -37q3 -23 -26 -31l-63 -16q-269 -307 -593 -437
q-166 -66 -385 -114l-7 38q314 93 515 216zM778 811q152 115 301 289h-358q-35 -26 -105 -76q-26 -18 -45 -31q87 -48 140 -85q64 -45 67 -97zM1363 1785l120 -25q71 -15 75 -43q3 -30 -50 -44l-42 -11v-561q0 -59 5 -135q4 -82 4 -86q0 -50 -64 -50q-40 0 -40 50v745
q0 118 -8 160zM1730 1904l120 -25q71 -15 74 -43q4 -29 -49 -44l-42 -11l1 -1052q0 -142 -155 -171q-12 70 -47 93q-33 21 -159 43l8 46q139 -22 189 -26q68 -6 68 56l-1 974q0 118 -7 160zM1602 457q292 -181 317 -327q6 -32 -11 -59q-10 -15 -27 -19q-33 -8 -57 30
q-5 8 -36 84q-52 128 -207 258zM1141 481q239 -203 222 -338q-7 -53 -51 -55q-38 -2 -50 61q-20 104 -60 173q-28 48 -89 132zM690 485q113 -188 129 -305q12 -83 -39 -98q-62 -18 -63 86q-1 93 -15 160q-7 32 -46 140zM350 484l37 -7q-24 -162 -80 -267q-79 -145 -183 -145
q-27 0 -43.5 18t-9.5 40q8 25 89 73q103 62 147 162q19 45 43 126zM619 1376q-19 11 -34 32q-76 107 -167 171q-102 -76 -217 -135l-26 30q141 95 232 197q134 152 189 295l124 -45q42 -16 40 -36t-46 -29l-44 -9q-31 -43 -63 -81h315l59 63l104 -67q27 -17 27 -37
q0 -27 -35 -35l-57 -14q-178 -210 -289 -306q-151 -132 -298 -205q-103 -52 -249 -102l-12 38q251 103 447 275zM668 1422q144 149 252 291l-359 -1q-39 -41 -112 -107q100 -44 162 -91q52 -39 57 -92z" />
  </g>

</svg>
