<?xml version="1.0" standalone="no"?>
<!DOCTYPE svg PUBLIC "-//W3C//DTD SVG 1.1//EN" "http://www.w3.org/Graphics/SVG/1.1/DTD/svg11.dtd" >
<svg xmlns="http://www.w3.org/2000/svg" xmlns:xlink="http://www.w3.org/1999/xlink" version="1.1" viewBox="0 -205 1024 1024">
  <g transform="matrix(1 0 0 -1 0 819)">
   <path fill="currentColor"
d="M237 752l33 -27h469l25 29l50 -37q7 -5 5 -9q-1 -4 -11 -6l-16 -9v-70l5 -54q3 -27 -49 -36v39h-467v-11q-2 -22 -51 -32q5 37 7 82v100q-3 20 -12 30zM281 590h467v117h-467v-117zM510 536q6 -5 5 -9q-1 -3 -9 -5q-21 0 -32 -14q-16 -22 -36 -43h417l32 40l69 -50
q8 -5 7 -8q-2 -2 -13 -2h-302q29 -29 63 -56q83 -66 181 -90q52 -12 92 -13l1 -16q-52 -1 -65 -29q-139 33 -240 130q-39 41 -59 74h-204q-150 -140 -371 -194l-2 16q186 62 315 178h-205q-27 1 -46 -13l-34 33h307l15 14q44 47 42 58q-1 12 -12 15l7 8zM705 306l60 -44
q7 -5 7 -9q0 -3 -7 -5q-24 6 -62 -27q-11 -9 -18 -15q-20 -16 -47 -33q14 -5 40 -14q22 -8 33 -11q101 -45 123 -73q24 -28 9 -46t-44 9t-116 74q-76 40 -197 77q-37 -63 -128 -108q-94 -47 -265 -51l-2 17q274 35 353 159q33 55 41 97t4 51q-3 9 -18 24l8 9l88 -28
q4 -4 3 -6q0 -2 -5 -3q-9 -3 -30 -17q-9 -65 -39 -125q62 -10 116 -27q58 54 71 71q27 31 12 49zM673 905l4 13q51 -12 108 -46q58 -32 77 -68q20 -35 -1 -50t-41 21q-9 16 -21 31q-246 -7 -352 -14q-165 -5 -189 -7q-39 -3 -64 -23l-30 62q26 0 48 8q114 56 204 141
q5 14 -6 28l10 5l65 -50q5 -12 -7 -15q-15 4 -35 -5q-73 -56 -195 -118q199 3 535 6q-10 11 -24 22q-41 34 -86 59zM359 325q-4 -85 -53 -132q-54 -45 -78 -12q-10 18 17 29t53 34q27 23 44 81h17z" />
  </g>

</svg>
