<?xml version="1.0" standalone="no"?>
<!DOCTYPE svg PUBLIC "-//W3C//DTD SVG 1.1//EN" "http://www.w3.org/Graphics/SVG/1.1/DTD/svg11.dtd" >
<svg xmlns="http://www.w3.org/2000/svg" xmlns:xlink="http://www.w3.org/1999/xlink" version="1.1" viewBox="0 -205 1024 1024">
  <g transform="matrix(1 0 0 -1 0 819)">
   <path fill="currentColor"
d="M525 410l6 14q67 -33 97 -73q30 -37 36 -77q5 -39 -16 -44q-22 -6 -27 26q-4 27 -21 66q-39 -33 -108 -89q-6 -4 -8 -6q-15 -11 -27 -26q-14 -13 -23 -42l-57 53q20 7 33 25v640q-3 19 -24 46l9 8l46 -36h146l37 40l45 -48q7 -6 5 -10q-1 -5 -11 -7l-19 -9v-248l6 -90
q-1 -18 -13 -24q-10 -6 -31 -12v37h-154v-274q63 41 136 93q-21 34 -63 67zM719 922l33 -32h141l31 44l48 -43q9 -6 9 -11t-9 -8l-20 -13v-555q0 -23 -12 -44t-72 -30q-4 28 -24 34t-59 21l2 14q69 -11 85 -11t28 6q10 6 10 72v504h-144v-697l5 -96q0 -21 -14 -31
q-15 -9 -40 -15q4 39 7 189v654q-7 21 -21 36zM310 770l61 -55q7 -6 7 -9q0 -4 -7 -5q-33 6 -60 -25q-2 -2 -5 -6q-39 -41 -73 -73q-1 -148 -15 -247q29 -12 63 -35q42 -29 66 -68q23 -37 17 -60q-6 -22 -22 -24q-18 0 -27 34q-8 36 -37 72q-24 29 -63 59q-6 -37 -14 -66
q-39 -125 -160 -223l-6 11q116 132 135 243q20 115 22 273v367q-6 13 -27 28l8 13l93 -35q5 -3 5 -5q0 -3 -5 -5q-21 -6 -33 -24v-278q33 42 46 63q18 30 23 44q4 15 -2 28zM452 700v-156h154v156h-154zM606 875h-154v-155h154v155zM99 724h16q2 -95 0 -136q-1 -40 -13 -66
q-11 -25 -28 -32q-18 -6 -30 8t8 40q18 26 31 56q10 35 16 130z" />
  </g>

</svg>
