<?xml version="1.0" standalone="no"?>
<!DOCTYPE svg PUBLIC "-//W3C//DTD SVG 1.1//EN" "http://www.w3.org/Graphics/SVG/1.1/DTD/svg11.dtd" >
<svg xmlns="http://www.w3.org/2000/svg" xmlns:xlink="http://www.w3.org/1999/xlink" version="1.1" viewBox="0 0 2048 2048">
  <g transform="matrix(1 0 0 -1 0 2048)">
   <path fill="currentColor"
d="M1439 416q238 -173 554 -206v-39q-98 -5 -136 -83q-281 107 -490 268q-230 -171 -678 -260l-8 37q407 118 617 282q-163 151 -304 431q-24 48 -36 70q-94 -5 -120 -7l-38 88q96 -23 230 -23h323q-20 12 -28 49q-20 97 -124 205l22 26q215 -133 204 -228q-5 -34 -36 -52
h330l99 102l120 -107q21 -18 16 -34q-6 -18 -26 -18h-199q-60 -193 -138 -315q-62 -96 -154 -186zM1011 917q12 -19 25 -40q142 -231 331 -403q182 181 256 443h-612zM1410 1460h398l65 75l76 -61q55 -43 49 -64q-4 -15 -41 -24q-45 -10 -55 -13q-83 -98 -179 -206l-34 26
q67 110 114 210h-868q-8 -82 -18 -126q-20 -85 -83 -99q-65 -13 -65 49q0 21 6.5 31t45.5 49q57 57 77 266h37v-113h379v331q0 117 -7 159l109 -24q82 -18 85 -44q4 -29 -49 -43l-42 -12v-367zM962 1849q57 -44 125 -105q84 -76 76 -148q-5 -35 -31 -47q-27 -13 -51 12
q-7 7 -11 26q-29 125 -135 237zM94 1524q149 -193 178 -292q26 -89 0 -127q-24 -34 -57 -25q-37 10 -37 75q-1 117 -112 342zM1755 1861l106 -45q48 -20 46 -40t-32 -25q-5 -1 -53 -7q-109 -131 -237 -213l-27 29q104 105 197 301zM657 1428q-91 -120 -205 -231
q-4 -172 -27 -464q32 -23 48 -35q196 -139 207 -245q5 -55 -37 -68q-34 -11 -54 24q-5 8 -27 70q-33 91 -146 202q-94 -374 -324 -610l-29 29q179 249 239 506q54 235 54 611v407q0 171 -15 274l106 -19q80 -14 91 -33q15 -28 -37 -48l-49 -19v-509q83 124 156 290l89 -56
q57 -36 57 -56q0 -29 -47 -25z" />
  </g>

</svg>
