<?xml version="1.0" standalone="no"?>
<!DOCTYPE svg PUBLIC "-//W3C//DTD SVG 1.1//EN" "http://www.w3.org/Graphics/SVG/1.1/DTD/svg11.dtd" >
<svg xmlns="http://www.w3.org/2000/svg" xmlns:xlink="http://www.w3.org/1999/xlink" version="1.1" viewBox="0 -200 1000 1000">
  <g transform="matrix(1 0 0 -1 0 800)">
   <path fill="currentColor"
d="M408 308h229q8 35 11 79t4 101q24 -13 43.5 -22t39.5 -20l-34 -61l-13 -77h141l49 44l66 -67h-257l-8 -16q37 -57 71 -94.5t66.5 -61t63.5 -37t61 -23.5q-47 -16 -83 -47q-24 12 -48 36t-46.5 56.5t-44.5 70.5t-42 77q-20 -50 -44.5 -92.5t-56.5 -75.5t-74 -54.5
t-97 -29.5l-4 7q45 21 81.5 45.5t65 57.5t49.5 77t35 104h-145l-57 -17zM541 859h29l38 34l52 -55h-119v-95h33l36 37l52 -59h-121v-96h29l40 39l51 -61h-120v-116q-7 -7 -11.5 -11t-9.5 -7t-11.5 -5.5t-16.5 -6.5v146h-59l-38 -9l-18 31h115v96h-45l-42 -10l-14 32h101v95
h-53l-36 -10l-16 31h105v138l69 -36l-20 -50v-52zM798 899q0 -72 -17.5 -136t-43.5 -115t-56.5 -87t-57.5 -52l-10 -2q64 81 99.5 182.5t35.5 203.5v9l-53 -8l-17 31h190l34 35l55 -47l-29 -33q-3 -132 -14.5 -202.5t-22.5 -86.5q-10 -21 -29 -36.5t-56 -24.5q-2 15 -7 24.5
t-14 16.5t-23 12.5t-33 12.5v8q29 -10 66 -10q27 0 43.5 17t24.5 54.5t10.5 96t2.5 141.5h-78v-4zM77 0q44 90 68.5 186t36 195t13.5 199t2 197v136v46v23.5t2 18.5v-4l71 -38l-21 -71l-3 -239q38 48 64 88.5t35 85.5l56 -72l-36 -22q-9 -9 -23.5 -23t-30.5 -29t-33 -28.5
t-32 -22.5q-3 -102 -7.5 -157.5t-6.5 -80.5q24 -17 47.5 -36t42.5 -38t30.5 -38t11.5 -35q-3 -21 -15.5 -40t-24.5 -19q-11 0 -17 20q-5 23 -11.5 43t-15.5 40t-21 41t-28 46q-9 -65 -24.5 -123.5t-34.5 -108t-40 -87.5t-42 -61zM105 677q-8 -66 -20.5 -113.5t-32.5 -79.5
q-5 -13 -5 -22q0 -14 7 -24t21 -10q15 4 25 15.5t16 28t8 36.5t2 41q0 38 -4 73t-5 57z" />
  </g>

</svg>
