<?xml version="1.0" standalone="no"?>
<!DOCTYPE svg PUBLIC "-//W3C//DTD SVG 1.1//EN" "http://www.w3.org/Graphics/SVG/1.1/DTD/svg11.dtd" >
<svg xmlns="http://www.w3.org/2000/svg" xmlns:xlink="http://www.w3.org/1999/xlink" version="1.1" viewBox="0 0 2048 2048">
  <g transform="matrix(1 0 0 -1 0 2048)">
   <path fill="currentColor"
d="M919 751q-199 -47 -645 -120q-2 -55 -29 -62q-23 -5 -37 34l-40 112q119 74 287 335h-192q-133 -5 -160 -11l-38 91q94 -24 176 -24h61v679q0 97 -16 147l120 -85h480l74 73l106 -82q16 -13 16 -31q0 -17 -28 -17h-657v-183h416l80 68l95 -76q23 -19 18 -34
q-5 -16 -23 -16h-586v-189h416l84 73l94 -76q20 -16 15 -34q-4 -17 -23 -17h-586v-200h543l80 78l103 -73q22 -17 25 -35q3 -26 -25 -26h-517q-177 -193 -338 -325q307 23 464 42q111 12 170 18q-29 55 -117 173l26 23q264 -211 257 -358q-3 -69 -61 -69q-38 0 -51 70
q-11 66 -37 127zM1676 1905l80 -45q66 -36 57 -64q-7 -19 -61 -15l-42 4q-203 -179 -561 -281l-15 36q221 96 338 177q127 89 204 188zM1833 1095l72 -42q77 -44 65 -69q-10 -20 -42 -15l-44 7q-192 -140 -352 -211q-102 -45 -375 -123l-11 43q192 51 378 158
q179 103 309 252zM1739 1497l68 -40q76 -46 64 -69q-10 -20 -42 -15l-44 7q-139 -104 -240 -155q-116 -59 -331 -123l-11 34q178 69 300 146q126 81 236 215zM721 525q106 -166 129 -262q22 -94 -1 -135q-30 -52 -73 -28q-30 17 -28 104q4 110 -61 303zM1125 530
q265 -211 257 -358q-3 -69 -61 -69q-38 0 -50 70q-18 101 -68 186q-25 43 -104 148zM364 494l43 -4q-22 -181 -42 -242q-23 -70 -67 -117q-56 -58 -111 -62q-33 -3 -53 26q-17 24 -4 50q10 20 79 57q78 43 114 135q21 55 41 157zM1624 547q272 -214 296 -364q13 -78 -50 -91
q-51 -11 -68 67q-28 126 -93 221q-19 28 -110 143z" />
  </g>

</svg>
