<?xml version="1.0" standalone="no"?>
<!DOCTYPE svg PUBLIC "-//W3C//DTD SVG 1.1//EN" "http://www.w3.org/Graphics/SVG/1.1/DTD/svg11.dtd" >
<svg xmlns="http://www.w3.org/2000/svg" xmlns:xlink="http://www.w3.org/1999/xlink" version="1.1" viewBox="0 -200 1000 1000">
  <g transform="matrix(1 0 0 -1 0 800)">
   <path fill="currentColor"
d="M80 0q46 89 71 185t37 195.5t14 199.5t2 197v95t0.5 62.5t1 39.5t1.5 27v-4l71 -38l-21 -71l-3 -239q39 48 65.5 88.5t36.5 85.5l58 -72l-38 -22q-9 -9 -23.5 -23t-31.5 -28.5t-34.5 -28.5t-32.5 -23q-4 -102 -7.5 -157.5t-6.5 -80.5q25 -17 49 -36t43 -38.5t31 -38
t12 -34.5q-3 -21 -15 -39.5t-25 -18.5q-11 0 -18 19q-5 23 -11.5 43t-16 40t-22 41t-28.5 46q-9 -65 -25 -123.5t-35.5 -108t-42 -87.5t-44.5 -61zM109 677q-8 -66 -21 -113.5t-33 -79.5q-5 -13 -5 -23q0 -13 6.5 -23t21.5 -10q16 4 26 15.5t16 28t8 36.5t2 41q0 38 -4 73.5
t-5 56.5zM787 439q59 -41 97 -70t38 -58v-6q-10 -23 -17.5 -30t-13.5 -7q-4 0 -5 1q-9 3 -14.5 11t-10.5 19.5t-10.5 24.5t-14.5 26q-32 -5 -67.5 -9.5t-77.5 -12.5v-237q-8 -43 -22.5 -63t-43.5 -28q-2 22 -19.5 42t-68.5 32v14q23 -4 37.5 -7t28.5 -3q12 0 19 3.5
t10.5 10.5t4.5 15.5t2 19.5v195q-27 -5 -49 -9t-44 -8.5t-46.5 -9.5t-55.5 -11l-37 61l73 7q16 7 39.5 21t50.5 32t55 37t52 36q-36 -4 -70 -9t-64 -11t-53.5 -12.5t-38.5 -13.5l-37 52l54 9q9 6 24.5 19t33.5 30.5t38.5 37.5t40.5 41h-131l-63 -12l-22 37h254v90h-117
l-59 -11l-22 35h198v94h-164l-59 -11l-22 33h245v124l71 -26l-19 -58v-40h133l48 45l66 -67h-247v-94h82l49 43l63 -67h-194v-90h146l46 43l67 -68h-342l41 -50l-42 -16l-117 -63q63 2 112.5 2.5t94.5 4.5q26 16 54 36.5t53 43.5l45 -66v1q0 2 -3 2q-14 0 -96.5 -41
t-235.5 -128q57 4 131 9.5t180 11.5l-50 64zM759 237v1q0 1 -1 1t-1 1l1 -1h1q87 -44 121.5 -77t34.5 -52v-4l2 -6q0 -2 -0.5 -3.5t-0.5 -3.5q-4 -12 -14 -22.5t-19 -10.5h-3q-11 3 -16.5 14.5t-16 32.5t-31.5 51t-63 70zM330 65q37 30 66.5 53.5t52 44t39 40t28.5 40.5
l48 -66l-39 -14q-37 -24 -83.5 -54.5t-103.5 -56.5z" />
  </g>

</svg>
