<?xml version="1.0" standalone="no"?>
<!DOCTYPE svg PUBLIC "-//W3C//DTD SVG 1.1//EN" "http://www.w3.org/Graphics/SVG/1.1/DTD/svg11.dtd" >
<svg xmlns="http://www.w3.org/2000/svg" xmlns:xlink="http://www.w3.org/1999/xlink" version="1.1" viewBox="0 0 2048 2048">
  <g transform="matrix(1 0 0 -1 0 2048)">
   <path fill="currentColor"
d="M395 754q235 -165 235 -275q0 -49 -36 -59q-32 -9 -52 23q-3 6 -31 78q-29 73 -125 174q-22 -122 -90 -282q-74 -173 -212 -327l-29 29q141 198 207 434q67 241 67 688v407q0 172 -15 274l106 -19q80 -15 90 -34q16 -28 -31 -46l-54 -20v-442q90 120 144 257l89 -56
q58 -37 58 -57q0 -29 -48 -24l-49 4q-105 -120 -194 -187v-57q-7 -316 -30 -483zM1205 1234q-3 102 -8 131l109 -24q82 -18 85 -44q3 -29 -49 -43l-42 -12v-8h280l61 72l72 -49q37 -26 41 -44q5 -20 -25 -37q-6 -4 -12 -7q-10 -4 -27 -14l-1 -93q50 -35 50 -58
q0 -18 -15 -18h-424v-117h420l88 91l110 -80q36 -26 30 -49q-4 -19 -31 -19h-1066q-69 0 -149 -10l-39 86q116 -19 188 -19h354v117l-294 -1q-1 0 -11 -19q-5 -9 -33 -12q-66 -5 -61 51l4 42q6 96 6 104l-1 149l120 -66h270zM1300 1177v-133h296v133h-296zM1205 1044v133
h-294v-133h294zM1327 517q82 -41 130 -69q132 -76 102 -143q-12 -27 -34 -27q-23 0 -61 60q-44 70 -154 148zM96 1524q185 -220 185 -356q0 -47 -23 -68q-22 -20 -44 -12q-32 13 -42 102q-11 91 -43 179q-11 30 -64 136zM1804 1376h-911q-68 0 -149 -10l-39 86
q117 -19 188 -19h312v127h-230q-69 0 -148 -11l-40 86q115 -18 188 -19h230v119h-277q-67 0 -149 -10l-39 86q116 -19 188 -19l277 -1v26q0 114 -8 160l109 -24q82 -19 85 -44q3 -29 -49 -44l-42 -11v-63h333l88 92l109 -80q36 -26 31 -49q-5 -19 -31 -19h-530v-119h285
l88 91l110 -80q36 -26 30 -49q-4 -19 -31 -18h-482v-127h504l61 69l99 -81q21 -17 18 -33q-3 -19 -34 -27l-56 -15l-108 -131l-26 17zM771 712l118 -64h158l61 72l72 -49q36 -25 41 -44q5 -20 -25 -37q-6 -4 -13 -7q-8 -4 -24 -13l-1 -204l46 -34q18 -15 15 -31
q-4 -15 -23 -15l-329 -2l-1 -32q-1 -27 -45 -30q-66 -6 -60 50l4 42q6 96 6 104v294zM867 338h195v256h-195v-256zM1296 560l-39 86q117 -19 187 -19l181 -1v26q0 114 -8 156l109 -24q83 -18 86 -44q3 -29 -50 -43l-41 -11v-60l55 1l89 83l91 -72q38 -31 36 -49
q-2 -19 -36 -19l-235 1v-344q0 -142 -155 -171q-11 70 -47 93q-33 21 -160 44l8 46q139 -23 190 -27q68 -6 68 57v302h-181q-69 0 -148 -11z" />
  </g>

</svg>
