<?xml version="1.0" standalone="no"?>
<!DOCTYPE svg PUBLIC "-//W3C//DTD SVG 1.1//EN" "http://www.w3.org/Graphics/SVG/1.1/DTD/svg11.dtd" >
<svg xmlns="http://www.w3.org/2000/svg" xmlns:xlink="http://www.w3.org/1999/xlink" version="1.1" viewBox="0 0 2048 2048">
  <g transform="matrix(1 0 0 -1 0 2048)">
   <path fill="currentColor"
d="M374 728q91 -64 147 -114q80 -72 80 -129q0 -49 -36 -60q-36 -10 -58 37q-49 104 -145 210q-86 -360 -276 -586l-36 26q103 156 158 306q60 166 83 337q26 194 26 501v407q0 175 -16 274l107 -19q80 -15 90 -34q16 -28 -31 -46l-54 -20v-472q77 126 119 234l89 -56
q59 -38 58 -57q-2 -29 -48 -25l-49 5q-38 -45 -92 -96q-46 -46 -77 -69v-26q-5 -341 -39 -528zM1708 1252q240 -259 240 -469q0 -269 -231 -322q-3 49 -21 67q-15 14 -67 33l14 36q47 -13 72 -14q63 -3 100 47q39 53 39 160q0 237 -205 453q60 231 106 508l-149 1v-1386
q0 -70 11 -181q3 -36 3 -69q0 -50 -59 -54q-50 -3 -50 50l2 1616q0 21 -12 159l114 -77h137l64 82l104 -76q31 -22 27 -46q-4 -23 -89 -49q-60 -203 -150 -469zM1288 930h10l64 67l98 -68q26 -19 20 -37q-5 -19 -25 -19l-167 1v-384h10l70 70l93 -70q23 -17 23 -34
q0 -19 -27 -19h-169v-261l8 -95q-2 -38 -59 -38q-38 0 -38 31v363h-130q-20 -24 -56 -21q-30 2 -32 21q0 2 5 40l77 510l86 -58l50 1v67q-4 144 -7 160l106 -27q68 -18 68 -40q0 -23 -47 -38l-31 -9v-113zM1199 490v384h-60l-58 -385zM708 1888q192 -124 182 -213
q-4 -34 -29 -39q-44 -11 -57 52q-19 94 -113 175zM1251 1875l110 -57q18 -10 15 -25q-4 -18 -29 -18h-36q-18 -21 -53 -65q-38 -48 -90 -94l-27 27q57 89 110 232zM1152 1444l85 -50q150 -86 150 -167q0 -52 -45 -55q-28 -2 -44 27q-3 6 -18 49q-24 71 -149 170zM92 1521
q185 -221 185 -357q0 -47 -24 -68q-20 -18 -43 -11q-25 7 -30 60q-15 147 -119 356zM1079 1516v-295l7 -96q-2 -37 -58 -37q-45 0 -45 31v397h-149q-69 0 -149 -10l-39 85q126 -17 188 -17h149v194q0 114 -8 160l109 -24q82 -18 85 -44q4 -25 -50 -43l-40 -14v-229h152
l80 80l114 -86q21 -16 16 -33q-6 -19 -26 -19h-336zM808 528q-4 -4 -6 -5q-31 -19 -57 47q-25 64 -77 107q-27 -43 -59 -75l-30 23q75 123 116 291q18 78 42 232l113 -33q32 -9 32 -28q0 -16 -32 -23l-33 -8q-11 -45 -25 -92h99l55 58l73 -58q18 -15 20 -29q2 -13 -13 -21
l-46 -27l-12 -63q-54 -289 -158 -465q-85 -145 -254 -283l-22 27q181 179 274 425zM823 570q40 110 76 336h-125q-45 -121 -81 -188q55 -39 86 -68q36 -33 44 -80zM827 1459l97 -50q31 -16 30 -34q-1 -21 -38 -21h-27q-137 -155 -288 -245l-21 27q21 19 76 68q91 83 171 255
z" />
  </g>

</svg>
