<?xml version="1.0" standalone="no"?>
<!DOCTYPE svg PUBLIC "-//W3C//DTD SVG 1.1//EN" "http://www.w3.org/Graphics/SVG/1.1/DTD/svg11.dtd" >
<svg xmlns="http://www.w3.org/2000/svg" xmlns:xlink="http://www.w3.org/1999/xlink" version="1.1" viewBox="0 0 2048 2048">
  <g transform="matrix(1 0 0 -1 0 2048)">
   <path fill="currentColor"
d="M1554 1080l71 -32q58 -26 49 -53q-5 -19 -83 -24q-58 -58 -135 -114l-29 27q83 103 127 196zM992 1079q67 -28 119 -71q55 -45 55 -88q0 -51 -40 -55q-37 -3 -62 63q-23 61 -94 123zM1259 1151v103h-361q-70 0 -149 -11l-39 86q119 -18 188 -18h361v115
q-142 -15 -322 -20q-95 -3 -134 -4l1 45q318 23 485 50q249 39 390 96l76 -66q43 -37 30 -55q-5 -7 -20 -10q-15 -2 -28 2l-47 14q-82 -16 -335 -46v-121h370l84 94l132 -99q17 -13 13 -32.5t-24 -19.5h-575l-2 -101l346 -2l61 71l72 -49q37 -25 41 -44q5 -20 -25 -37
q-6 -4 -13 -7q-9 -4 -26 -14l-1 -141q0 -43 7 -104q3 -26 3 -44q0 -41 -58 -49q-48 -6 -48 25v26h-357v-152h289l84 80l106 -84q21 -17 19 -34q-1 -19 -24 -19h-474v-117h388l81 85l121 -93q20 -15 15 -34q-5 -17 -27 -17h-1029q-67 0 -151 -11l-39 86q114 -16 190 -16h355
v117h-273q-67 0 -149 -11l-39 86q121 -18 188 -18h273v152h-355v-23q0 -28 -48 -30q-65 -3 -60 51l4 41q6 95 6 105v289l108 -64zM904 842h355v253h-355v-253zM1353 1096l2 -254h357v253zM649 1432q-84 -91 -186 -169v-50q-8 -272 -32 -457q121 -86 170 -137q85 -87 85 -152
q0 -49 -36 -59q-33 -10 -53 25q-4 7 -31 77q-39 100 -142 193q-61 -222 -86 -281q-76 -181 -205 -325l-32 31q16 24 65 97q107 159 162 439q40 207 40 573v523q0 117 -8 160l109 -24q82 -18 85 -44t-50 -44l-41 -13v-468q86 121 137 237l88 -56q58 -36 58 -56q0 -29 -47 -25
zM115 1463q94 -123 124 -171q52 -82 61 -174q5 -54 -19 -77q-24 -22 -48 -14q-31 12 -40 106q-10 112 -109 311zM1615 1717l-27 -108q-6 -28 -31 -32q-21 -3 -44 6q-21 7 -15 31l22 103q-57 -2 -130 -11l-39 86q96 -13 180 -17l12 51q3 12 11 65q3 15 8 46l106 -31
q64 -19 60 -47q-4 -29 -62 -35l-22 -2l-17 -47h88l80 80l114 -86q21 -16 16 -33q-6 -19 -26 -19h-284zM1038 1717l9 -114q3 -40 -48 -44q-38 -3 -41 28l-12 130l-22 -1q-88 -3 -141 -10l-40 86q141 -21 166 -19l31 2l1 9q-14 144 -18 159l106 -19q68 -13 72 -36
q5 -22 -42 -42l-30 -13l3 -58h41l80 80l114 -86q21 -16 16 -33q-6 -19 -26 -19h-219zM1729 357q223 -117 223 -214q0 -73 -49 -68q-29 3 -52 61q-38 94 -144 185zM1414 364q165 -134 165 -234q0 -58 -46 -63q-39 -5 -52 74q-19 111 -93 198zM1097 359q112 -120 117 -214
q2 -45 -19 -69q-19 -19 -41 -14q-25 6 -29 50q-11 134 -61 234zM868 358l38 -20q-34 -100 -59 -148q-55 -107 -131 -124q-35 -8 -53 7q-18 16 -8 42q8 21 91 80q71 50 122 163z" />
  </g>

</svg>
