<?xml version="1.0" standalone="no"?>
<!DOCTYPE svg PUBLIC "-//W3C//DTD SVG 1.1//EN" "http://www.w3.org/Graphics/SVG/1.1/DTD/svg11.dtd" >
<svg xmlns="http://www.w3.org/2000/svg" xmlns:xlink="http://www.w3.org/1999/xlink" version="1.1" viewBox="0 0 2048 2048">
  <g transform="matrix(1 0 0 -1 0 2048)">
   <path fill="currentColor"
d="M1482 598q75 40 132 84q55 43 137 147l95 -79q46 -39 38 -61q-5 -17 -26 -19q-18 -2 -42 3l-50 12q-150 -87 -259 -121q98 -129 193 -202q107 -82 291 -137v-34q-69 -4 -93 -15q-31 -14 -55 -61q-232 147 -385 377q-100 151 -170 440l37 15q99 -264 157 -349zM333 1794
v-498h326v425q0 115 -10 160l110 -24q83 -18 85 -44q4 -30 -48 -43l-41 -11v-420l52 -39q11 -8 16 -18q9 -20 -8 -34q-9 -8 -23 -8h-459v-66q0 -133 -7 -253h350l61 72l72 -50q37 -25 41 -43q5 -21 -25 -38q-6 -3 -13 -6q-9 -5 -26 -15v-576q0 -48 6 -104q3 -27 3 -44
q0 -41 -56 -49q-48 -6 -48 25l3 774h-368q-15 -501 -226 -829l-32 16q89 205 117 362q52 295 52 758v543l-7 137v-1q-2 38 -5 62l108 -24q81 -18 86 -44q5 -22 -25 -32zM1351 1637q-17 17 -35 81q-26 94 -122 205l23 23q102 -67 154 -131q60 -74 55 -124q-2 -24 -33 -54h285
l68 77l84 -55q40 -26 40 -48q0 -27 -78 -62l-1 -451q0 -47 7 -104q3 -26 3 -44q0 -41 -56 -49q-47 -6 -48 25l-1 46h-606v-732q111 33 181 59q129 49 177 65l13 -36q-37 -19 -171 -97q-8 -5 -119 -59q-17 -9 -50 -26l-8 -35q-7 -33 -10 -38.5t-16 -6.5q-19 -2 -42 34
l-71 114l23 7v1345q0 51 -15 144l108 -73h261zM1090 1580v-242h606v242h-606zM1090 1282v-256h606v256h-606z" />
  </g>

</svg>
