<?xml version="1.0" standalone="no"?>
<!DOCTYPE svg PUBLIC "-//W3C//DTD SVG 1.1//EN" "http://www.w3.org/Graphics/SVG/1.1/DTD/svg11.dtd" >
<svg xmlns="http://www.w3.org/2000/svg" xmlns:xlink="http://www.w3.org/1999/xlink" version="1.1" viewBox="0 -200 1000 1000">
  <g transform="matrix(1 0 0 -1 0 800)">
   <path fill="currentColor"
d="M264 693v308l70 -30l-20 -61v-217h18l42 43l62 -66h-256v-191h85l41 45l57 -55l-35 -38v-386q-27 -15 -45 -15q-2 0 -4 0.5t-4 0.5v426l-95 -1q-2 -72 -8.5 -142.5t-21 -131.5t-38.5 -109t-61 -75l-8 6q32 54 49.5 121.5t25.5 148.5t9.5 176t1.5 204q0 88 -1 160.5
t-4 141.5l72 -32l-16 -63v-168h84zM950 77q-16 -3 -35.5 -14t-30.5 -28q-16 16 -39.5 53.5t-46.5 98.5t-41.5 147.5t-24.5 201.5h-34q-7 -13 -17.5 -31t-32.5 -38q46 -63 69 -132t23 -138t-24 -123t-74 -74q1 5 1 8.5v7.5q0 29 -16 47t-48 33l3 11q37 -18 59 -18
q17 0 28 12.5t17 30.5t8.5 39t2.5 38q0 25 -3 57q-31 -44 -70.5 -82.5t-80 -68.5t-77.5 -49.5t-62 -24.5v7q52 39 93.5 72t75 66t60.5 68.5t50 78.5l-9 34q-46 -50 -88.5 -86.5t-78 -61.5t-62 -38t-40.5 -15l-3 9q31 21 66 48t69 58.5t63.5 67.5t49.5 76l-12 27
q-15 -17 -40.5 -42t-56 -50t-62.5 -45.5t-59 -27.5l-8 4q84 60 135.5 120.5t86.5 125.5l-92 -1l-50 -15l-13 37h312l41 41l62 -63h-145q7 -54 15.5 -102.5t23.5 -96.5q18 27 41.5 64.5t40.5 79.5l42 -62l-33 -19l-88 -77q15 -45 33.5 -84t39.5 -70t43.5 -53t45.5 -32z
M639 972l-16 -54v-16h99v94l61 -25l-17 -54v-15h77l41 42l60 -64h-178v-54q-6 -8 -16.5 -14.5t-24.5 -6.5h-3v75h-99v-55q-4 -9 -18 -16t-28 -7v78h-104l-49 -15l-18 37h171v100zM510 815l8 -46h298l30 46q33 -21 54.5 -44t21.5 -40q0 -10 -9.5 -11.5t-16.5 -1.5
q-14 0 -24.5 -3.5t-19.5 -10.5t-18.5 -19t-21.5 -28l-10 6q11 14 16 30t5 30q0 18 -7 25h-298q0 -20 -2 -39t-7 -33.5t-14 -23t-23 -8.5q-12 0 -18.5 9.5t-6.5 20.5q0 17 12 26q17 21 27 50.5t16 64.5h8zM739 701l48 -61h-190l-43 -16l-14 37h162z" />
  </g>

</svg>
