<?xml version="1.0" standalone="no"?>
<!DOCTYPE svg PUBLIC "-//W3C//DTD SVG 1.1//EN" "http://www.w3.org/Graphics/SVG/1.1/DTD/svg11.dtd" >
<svg xmlns="http://www.w3.org/2000/svg" xmlns:xlink="http://www.w3.org/1999/xlink" version="1.1" viewBox="0 -205 1024 1024">
  <g transform="matrix(1 0 0 -1 0 819)">
   <path fill="currentColor"
d="M993 82v-19h-12q-46 6 -62 -22q-74 22 -142 66q-37 24 -72 52q-8 -7 -17 -11q-114 -81 -311 -111l-2 18l27 9q171 52 244 104q14 9 27 20q-12 11 -23 23q-53 56 -95 147q-61 -81 -129 -122l-10 13q76 74 119 144q44 71 45 81q1 11 -7 27l8 7l64 -24q15 -7 5 -17
q-18 -1 -29 -9q-12 -21 -25 -40h224l25 32l51 -41q11 -7 3 -16q-15 -4 -22 -9q-6 -3 -23 -39q-17 -35 -64 -98q-24 -33 -51 -59q2 -1 6 -4q4 -2 6 -4q117 -89 242 -98zM216 990l87 -30q14 -5 6 -11q-21 -7 -30 -21v-207h38l28 36l64 -46q8 -5 7 -8q-2 -2 -13 -2h-124v-206
l127 60l7 -22l-134 -70v-291l3 -95q2 -36 -52 -46q5 39 7 91v319q-84 -43 -105 -60q-25 -19 -41 -51l-47 56l193 90v225h-104l-12 -39q-5 -15 -7 -22q-25 -76 -69 -133l-14 8q57 130 81 272q8 42 2 53q-5 11 -13 21l6 9l81 -24q5 -5 4 -9q0 -3 -7 -5q-13 -2 -22 -13
q-12 -53 -25 -98h99v217q-12 26 -30 40zM463 866q3 22 -19 37l5 13l83 -26q12 -8 3 -16q-18 -4 -30 -12v-189h377v188q2 16 -20 38l5 12l81 -28q14 -5 6 -11q-21 -7 -30 -21v-115l4 -73q2 -43 -46 -54v44h-364l-33 -38l-46 36q20 18 24 36v179zM583 398l-12 -17
q45 -73 85 -117q22 -26 49 -49q25 24 47 54q47 62 75 129h-244zM537 938l6 14q92 -36 159 -80q6 7 16 20q3 3 4 5q37 49 38 58t-7 21l8 8l63 -30q8 -5 7 -9t-11 -8q-13 2 -25 -9q-30 -42 -62 -77q53 -37 77 -65q48 -62 7 -76q-16 0 -42 41q-22 35 -68 72q-78 -79 -162 -115
l-7 15q55 41 101 83l39 39q-57 42 -141 93zM553 626l60 -32q7 -1 7 -5t-6 -10q-14 3 -26 -3q-93 -110 -192 -166l-8 13q70 61 112 110q44 49 48 59q5 11 -3 27zM775 598l8 16q132 -56 171 -105q42 -58 4 -78q-17 -3 -32 30t-53 66q-37 34 -98 71z" />
  </g>

</svg>
