<?xml version="1.0" standalone="no"?>
<!DOCTYPE svg PUBLIC "-//W3C//DTD SVG 1.1//EN" "http://www.w3.org/Graphics/SVG/1.1/DTD/svg11.dtd" >
<svg xmlns="http://www.w3.org/2000/svg" xmlns:xlink="http://www.w3.org/1999/xlink" version="1.1" viewBox="0 0 2048 2048">
  <g transform="matrix(1 0 0 -1 0 2048)">
   <path fill="currentColor"
d="M1449 1376q-58 -171 -147 -299l-36 23q130 321 170 653l119 -37q46 -14 46 -39q0 -19 -43 -33l-38 -11q-27 -112 -53 -199h140v317q-3 127 -9 161l103 -24q85 -20 88 -44t-50 -43l-38 -14v-353h49l98 101l121 -106q20 -18 15 -34q-5 -19 -25 -19h-258v-527h82l98 102
l121 -107q20 -18 15 -33q-5 -19 -26 -19l-290 -1v-444q0 -135 8 -210q3 -27 3 -53q0 -37 -44 -42q-61 -8 -61 39v710h-31q-119 0 -193 -10l-40 94q94 -26 233 -26h31v527h-158zM219 1442h158v345q0 117 -8 160l109 -24q82 -18 85 -43q3 -30 -49 -44l-42 -11v-383h16l80 81
l113 -86q21 -16 16 -34q-5 -19 -26 -19h-199v-388q18 14 182 122l27 -30q-14 -13 -209 -161v-548q0 -77 10 -181q3 -36 3 -69q0 -50 -59 -54q-49 -3 -49 50v731q-49 -39 -73 -58q-70 -53 -106 -86q-2 -26 -2 -39q-1 -44 -24 -43q-24 1 -58 49l-65 91q144 62 328 176v438
h-179q-34 -96 -110 -240l-36 16q106 271 138 611l95 -22q75 -17 77 -44q1 -29 -38 -40l-46 -13q-33 -128 -59 -210zM704 1677q95 -25 195 -25h28v135q-2 114 -8 159l136 -22q67 -12 64 -42q-2 -30 -96 -54v-176h75l81 81l114 -86q20 -16 15 -33q-6 -19 -26 -19h-259v-199
h107l61 72l73 -49q36 -25 41 -44q5 -20 -25 -37q-6 -4 -13 -7q-9 -4 -27 -14v-437q0 -51 7 -104q3 -25 3 -43q0 -41 -56 -49q-48 -7 -48 25v53h-123v-232l100 1l75 76l114 -86q21 -16 16 -34q-6 -19 -26 -18l-277 1l-2 -220q-1 -37 5 -83q1 -12 1 -59q0 -38 -50 -38
q-36 0 -46 11q-6 8 -6 35v353h-54q-152 -2 -192 -8l-38 95q93 -26 230 -26h54v232h-119v-53q0 -27 -46 -30q-66 -5 -60 51l5 41q6 104 6 105v575l117 -55h97v199h-28q-106 -2 -153 -7zM808 820h119v236h-119v-236zM1023 1056v-236h123v236h-123zM808 1111h119v228h-119v-228
zM1023 1339v-228h123v228h-123z" />
  </g>

</svg>
