<?xml version="1.0" standalone="no"?>
<!DOCTYPE svg PUBLIC "-//W3C//DTD SVG 1.1//EN" "http://www.w3.org/Graphics/SVG/1.1/DTD/svg11.dtd" >
<svg xmlns="http://www.w3.org/2000/svg" xmlns:xlink="http://www.w3.org/1999/xlink" version="1.1" viewBox="0 -205 1024 1024">
  <g transform="matrix(1 0 0 -1 0 819)">
   <path fill="currentColor"
d="M407 619h17q0 -17 -1 -32h51v262q-3 21 -17 38l14 12l34 -37h79l27 78h-169q-27 0 -45 -13l-35 33h522l33 32l56 -42q7 -5 6 -8q-1 -2 -12 -2h-310l-47 -78h188l39 32l44 -46q7 -6 5 -10q-1 -5 -11 -7l-18 -9v-235h73l25 31l53 -48q2 -6 -1 -8q-2 -1 -9 1q-15 -3 -25 -10
q-10 -8 -22 -20q-6 -6 -24 -25q-8 -8 -12 -13l-15 6l36 68h-513v-3q-2 -9 -2 -19q-4 -31 -15 -51q-12 -21 -31 -27q-20 -8 -29 7q-10 14 11 30t34 40q12 24 16 73zM67 330l-39 57l176 84v232h-88q-9 -33 -18 -60q-26 -78 -61 -135l-14 8q30 81 48 157q18 73 24 118
q5 44 0 53l-9 12l-5 5l6 9l80 -22q7 -11 -5 -14q-11 -3 -20 -13q-9 -53 -21 -98h83v221q2 15 -24 42l9 12l79 -32q14 -5 6 -11q-21 -9 -30 -21v-211h46l26 36l58 -46q8 -5 6 -8q-1 -2 -12 -2h-124v-213l103 50l7 -22l-100 -51q-6 -3 -10 -6v-295l3 -96q0 -21 -12 -31
q-12 -9 -38 -15q4 39 7 189v226q-77 -42 -95 -56q-27 -22 -42 -53zM1006 67v-19q-21 3 -39 2q-18 0 -31 -21q-39 17 -93 57q-22 16 -42 34l-3 -3q-45 -40 -106 -64q-63 -24 -118 -27l-4 12q50 15 93 33q42 18 77 45q17 14 35 32q-16 15 -29 33q-37 50 -69 131q-13 -3 -21 -9
l-34 26h154v100h-79q-27 0 -45 -13l-35 29h159v63q2 15 -21 36l8 11l74 -28q14 -5 6 -11q-17 -6 -29 -18v-53h80l21 36l60 -42q7 -5 6 -8q-1 -2 -12 -2h-155v-100h54l25 27l45 -28q10 -11 1 -14q-18 -3 -23 -15q-6 -12 -16 -39q-12 -27 -34 -66q-18 -27 -36 -44
q33 -27 68 -47t62 -26q4 -1 11 -3q14 -4 35 -7zM482 551l74 -30q14 -5 6 -11q-18 -6 -27 -18v-120h33l24 30l54 -39q5 -5 3 -7q-3 -1 -12 0h-102v-185l117 33l4 -20l-161 -52q-110 -43 -116 -48q-17 -9 -35 -39l-30 65l79 23v234q2 15 -22 38l8 11l71 -30q14 -5 6 -11
q-18 -6 -27 -19v-213l68 17v342q1 15 -23 38zM514 666v-79h303v79h-303zM514 757v-75h303v75h-303zM817 842h-303v-69h303v69zM878 313h-178q33 -57 60 -92q18 -26 41 -47q5 6 11 12q36 43 66 127z" />
  </g>

</svg>
