<?xml version="1.0" standalone="no"?>
<!DOCTYPE svg PUBLIC "-//W3C//DTD SVG 1.1//EN" "http://www.w3.org/Graphics/SVG/1.1/DTD/svg11.dtd" >
<svg xmlns="http://www.w3.org/2000/svg" xmlns:xlink="http://www.w3.org/1999/xlink" version="1.1" viewBox="0 0 2048 2048">
  <g transform="matrix(1 0 0 -1 0 2048)">
   <path fill="currentColor"
d="M553 1174q-30 119 -45 161q-12 31 -64 138q-159 -122 -348 -212l-19 44q173 92 330 234q-71 120 -210 301l31 22q144 -160 226 -278q165 169 255 355l113 -66q47 -27 41 -46q-5 -18 -51 -22l-50 -4q-127 -162 -264 -283q147 -245 176 -509q24 -227 6 -516
q-15 -252 -89 -337q-60 -67 -184 -94q-5 69 -67 94q-26 11 -151 53l11 42q141 -47 217 -57q111 -13 144 141q27 124 27 452q0 101 -11 260q-75 -123 -206 -253q-126 -124 -292 -216l-20 34q280 207 494 562zM1355 1280v488q0 118 -8 160l109 -24q83 -19 86 -44
q3 -29 -50 -44l-41 -11v-492l294 89l68 76l84 -54q40 -26 40 -49q0 -28 -78 -62q-40 -137 -90 -324q-63 -233 -111 -369l-51 7q9 40 46 186q61 245 97 525l-299 -97v-438q0 -103 12 -209q3 -28 3 -54q0 -39 -49 -42q-62 -4 -62 42v670l-282 -86v-809q0 -64 21 -77
q35 -21 362 -18q298 2 350 16q47 12 61 67q7 27 37 257l34 -3l-12 -208q-3 -55 16 -80q4 -5 37 -34q16 -13 17 -28q5 -66 -243 -74q-497 -16 -656 -1q-120 12 -120 130v830l-21 -9q-46 -18 -80 -37l-87 75l118 23l70 21v417q0 118 -7 160l109 -25q82 -18 86 -43
q3 -30 -50 -44l-42 -11v-424z" />
  </g>

</svg>
