<?xml version="1.0" standalone="no"?>
<!DOCTYPE svg PUBLIC "-//W3C//DTD SVG 1.1//EN" "http://www.w3.org/Graphics/SVG/1.1/DTD/svg11.dtd" >
<svg xmlns="http://www.w3.org/2000/svg" xmlns:xlink="http://www.w3.org/1999/xlink" version="1.1" viewBox="0 -205 1024 1024">
  <g transform="matrix(1 0 0 -1 0 819)">
   <path fill="currentColor"
d="M882 834q-11 -1 -17 -7q-5 -5 -28 -35q-23 -28 -53 -69q-27 -35 -64 -67q38 -22 87 -38q69 -22 115 -27q47 -3 90 -8v-18q-6 -1 -19 -1q-42 2 -48 -26q-103 16 -179 50q-39 18 -75 45q-40 -29 -101 -61q-78 -40 -210 -59l-2 14q128 38 192 73q53 30 90 57q-19 17 -37 37
q-51 53 -78 121l-8 -13q-42 -69 -115 -123l-6 14q81 94 131 205q21 45 18 59q-1 14 -12 29l9 7l73 -28q11 -6 11 -10q1 -5 -10 -7q-20 -1 -28 -13q-16 -34 -36 -72h233l33 32l47 -49q7 -5 6 -8t-9 -4zM385 905q5 -12 -5 -12q-16 2 -36 -12q-46 -59 -83 -101q32 -49 54 -108
q73 -202 24 -467q-33 -138 -143 -167q-3 52 -120 66l2 18q90 -14 127 -13t62 37q26 34 36 107q11 74 11 141q0 62 -2 104q-23 -35 -47 -64q-37 -45 -75 -80q-37 -34 -125 -93l-10 14q128 108 196 205q22 30 53 82q-6 30 -16 68q-18 64 -50 124l-16 -16q-49 -49 -163 -132
l-7 17q110 99 150 146l16 18q-46 73 -122 148l10 14q90 -79 133 -136q21 25 39 50q35 47 33 58v1q-1 10 -5 21l8 6zM652 592l89 -36q14 -5 6 -11q-21 -7 -30 -21v-62h132l28 40l68 -50q8 -5 7 -8q-2 -2 -13 -2h-222v-175h166l33 42l70 -49q10 -7 8 -10q-1 -4 -14 -3h-263
v-119l2 -57q3 -35 -53 -44q5 37 7 134v86h-176l-26 -36l-45 44q23 13 30 29l24 83q1 20 -14 33l8 10l73 -23q9 -4 11 -7q1 -4 -4 -6q-19 -5 -30 -13l-32 -94h181v175h-163q-27 1 -45 -13l-34 33h242v72q2 16 -30 46zM560 843q0 -1 -1 -2q23 -46 52 -83q36 -47 76 -79
q35 30 63 65q35 41 66 99h-256z" />
  </g>

</svg>
