<?xml version="1.0" standalone="no"?>
<!DOCTYPE svg PUBLIC "-//W3C//DTD SVG 1.1//EN" "http://www.w3.org/Graphics/SVG/1.1/DTD/svg11.dtd" >
<svg xmlns="http://www.w3.org/2000/svg" xmlns:xlink="http://www.w3.org/1999/xlink" version="1.1" viewBox="0 -205 1024 1024">
  <g transform="matrix(1 0 0 -1 0 819)">
   <path fill="currentColor"
d="M639 1005l80 -34q14 -5 6 -11q-16 -4 -27 -18v-90h148l37 29l44 -37q7 -6 5 -10q-1 -5 -11 -7l-18 -9v-188l6 -61q0 -30 -44 -31v36h-377v-5q5 -48 -45 -52q5 45 7 100v218q2 16 -19 29l12 12l29 -24h184v100q2 17 -25 42zM973 74v-17q-43 1 -57 -4q-16 -4 -27 -22
q-90 27 -151 60q-34 16 -66 45q-48 -32 -122 -62q-82 -33 -201 -49l-4 14q118 30 185 60q65 29 113 61q-12 12 -24 25q-49 54 -83 129q-7 -11 -22 -31q-7 -9 -10 -13q-49 -64 -97 -91l-10 10q47 45 84 105q38 60 53 93t13 42q-1 9 -11 21l7 8l78 -29q6 -4 7 -6q0 -3 -5 -5
q-20 -1 -34 -14q-3 -6 -11 -20q-7 -13 -11 -20h229l29 31l51 -44q5 -4 5 -7q-1 -3 -8 -5q-16 -1 -24 -7q-6 -5 -26 -40q-20 -34 -56 -76q-28 -31 -63 -59q1 -1 3 -2q9 -5 13 -6q97 -66 253 -75zM370 914q3 -12 -7 -12q-14 2 -32 -12q-48 -61 -86 -105q31 -50 55 -110
q75 -196 25 -466q-16 -77 -57 -115q-41 -39 -85 -53q-3 52 -120 66l2 18q90 -14 127 -13q38 1 63 36q26 34 37 107q11 75 11 142q0 68 -3 111q-1 6 -1 13q-29 -46 -58 -81q-36 -43 -76 -81q-39 -37 -125 -95l-10 14q131 111 196 203q26 35 62 99q-3 14 -11 44q-1 6 -2 9
q-18 66 -52 128q-9 -10 -17 -18q-49 -52 -168 -134l-7 17q113 95 154 143q4 4 11 13q5 7 8 10q-45 72 -121 146l10 14q88 -79 131 -136q7 9 20 25q13 17 19 25q37 50 35 60v1q-1 10 -5 21l8 6zM555 344q-1 -1 -2 -4q-3 -4 -5 -7q48 -79 86 -118q18 -16 37 -33q34 27 62 59
q39 45 66 103h-244zM656 706h-168v-112h168v112zM865 706h-167v-112h167v112zM656 832h-168v-110h168v110zM698 722h167v110h-167v-110zM374 479h516l32 40l68 -50q8 -5 7 -8q-2 -2 -13 -2h-531q-27 1 -45 -13z" />
  </g>

</svg>
