<?xml version="1.0" standalone="no"?>
<!DOCTYPE svg PUBLIC "-//W3C//DTD SVG 1.1//EN" "http://www.w3.org/Graphics/SVG/1.1/DTD/svg11.dtd" >
<svg xmlns="http://www.w3.org/2000/svg" xmlns:xlink="http://www.w3.org/1999/xlink" version="1.1" viewBox="0 0 2048 2048">
  <g transform="matrix(1 0 0 -1 0 2048)">
   <path fill="currentColor"
d="M987 1554h123l69 76l83 -54q40 -26 40 -49q0 -27 -77 -61v-572q0 -24 3 -85q3 -38 4 -79q2 -41 4 -59q5 -53 -63 -59q-43 -4 -43 25v50h-143v-320q0 -105 11 -210q3 -28 3 -53q0 -39 -49 -42q-62 -4 -62 42v583h-150v-29q0 -37 -53 -37q-59 0 -55 60l4 57l4 80l4 76v574
q0 84 -13 176l119 -90h140v228q0 118 -8 160l109 -24q82 -18 86 -43q3 -29 -50 -44l-40 -11v-266zM987 1497v-344h143v344h-46v0h-97zM890 1497h-150v-344h150v344zM987 743h143v354h-143v-354zM890 743v354h-150v-354h150zM1463 1931l132 -46q50 -17 56 -41q9 -30 -47 -39
l-49 -7q-61 -244 -85 -333l278 -2l88 99l125 -103q21 -17 15 -33q-5 -19 -25 -19l-123 -1q-5 -383 -43 -570q-40 -201 -139 -376q60 -100 143 -173q75 -65 198 -115l-8 -38q-66 3 -112 -62q-160 131 -278 309q-185 -217 -432 -322l-18 33q268 166 400 380q-64 134 -97 255
q-47 170 -60 421l45 4q24 -207 59 -347q29 -109 103 -257q85 182 115 410q22 172 21 448h-269q-16 -42 -56 -149q-33 -90 -106 -224l-32 24q62 154 114 376q78 334 87 498zM343 1627q126 161 176 285l99 -53q49 -27 45 -46q-4 -21 -45 -23l-45 -2q-99 -136 -191 -232
q85 -178 124 -348q35 -156 35 -504q0 -416 -83 -532q-59 -82 -195 -110q-4 53 -37 80q-24 21 -125 49l5 42q122 -34 179 -35q75 -2 104 60q58 124 58 584q0 43 -12 169q-151 -232 -329 -354l-20 36q82 78 173 208q108 154 153 285q-11 121 -86 318q-93 -78 -237 -169l-15 33
q143 117 224 204q-63 138 -167 287l31 22q63 -72 181 -254z" />
  </g>

</svg>
