<?xml version="1.0" standalone="no"?>
<!DOCTYPE svg PUBLIC "-//W3C//DTD SVG 1.1//EN" "http://www.w3.org/Graphics/SVG/1.1/DTD/svg11.dtd" >
<svg xmlns="http://www.w3.org/2000/svg" xmlns:xlink="http://www.w3.org/1999/xlink" version="1.1" viewBox="0 0 2048 2048">
  <g transform="matrix(1 0 0 -1 0 2048)">
   <path fill="currentColor"
d="M1283 1365q-177 -190 -365 -327q441 17 763 46q-70 80 -159 149l19 25q317 -164 334 -284q4 -28 -12.5 -48t-41.5 -17q-33 3 -64 61q-13 26 -52 79q-249 -44 -400 -60q-300 -32 -372 -42q-9 -57 -38 -61q-24 -3 -38 46l-29 99q188 144 320 335h-223q-68 0 -148 -11
l-39 86q124 -18 187 -18h313v209h-187q-64 0 -149 -11l-39 86q124 -18 188 -18h187v116q0 117 -8 160l110 -24q82 -19 85 -44q3 -30 -49 -44l-42 -11l3 -153h234l98 101l121 -107q20 -18 15 -33q-5 -19 -26 -19l-442 1v-209h374l98 101l121 -107q22 -19 17 -33
q-6 -19 -27 -19h-637zM864 206v533q-2 69 -11 125l117 -76h647l68 76l84 -53q49 -32 46 -52t-82 -58l-2 -495h19l83 91l118 -99q18 -15 15 -30q-4 -19 -23 -19h-1083q-63 0 -148 -11l-39 86q131 -19 172 -18h19zM1474 206h165v524h-165v-524zM1380 206v524h-164v-524h164z
M1120 206v524h-163v-524h163zM398 1510q-129 -105 -299 -192l-19 34q160 104 276 227q-81 130 -189 267l30 26q111 -115 207 -242q121 134 212 309l126 -76q21 -12 19 -30q-3 -22 -30 -23l-58 -2q-148 -180 -220 -249q111 -181 147 -303q58 -199 57 -546q-2 -405 -66 -507
q-60 -95 -215 -133q-16 58 -55 80q-55 32 -163 68l11 41q140 -47 217 -57q114 -14 144 133q51 257 10 753q-107 -154 -197 -240q-88 -82 -238 -174l-21 30q263 209 427 525q-33 128 -113 281z" />
  </g>

</svg>
