<?xml version="1.0" standalone="no"?>
<!DOCTYPE svg PUBLIC "-//W3C//DTD SVG 1.1//EN" "http://www.w3.org/Graphics/SVG/1.1/DTD/svg11.dtd" >
<svg xmlns="http://www.w3.org/2000/svg" xmlns:xlink="http://www.w3.org/1999/xlink" version="1.1" viewBox="0 0 2048 2048">
  <g transform="matrix(1 0 0 -1 0 2048)">
   <path fill="currentColor"
d="M1373 555q219 108 353 271l90 -64q47 -34 45 -53q-2 -16 -15 -19q-10 -3 -42 1l-41 5q-168 -109 -360 -180q97 -118 217 -191q125 -75 240 -102q43 -11 134 -28v-42q-131 -2 -164 -71q-369 148 -550 524q-65 -179 -199 -300q-159 -144 -444 -239l-13 39q405 154 531 419
q74 155 74 457l106 -23q64 -14 68 -36q5 -23 -34 -36l-46 -15q-9 -129 -24 -207q48 -76 74 -110zM851 1470q266 -116 266 -212q0 -69 -52 -64q-26 2 -48 52q-47 105 -184 195zM779 758q125 -65 176 -105q89 -69 89 -136q0 -27 -17 -45.5t-39 -15.5q-28 5 -48 57
q-27 73 -78 129q-28 30 -103 89zM1221 1954q94 -56 126 -83q58 -48 58 -93q0 -37 -26 -63h429l58 66l89 -69q35 -27 36 -45q3 -21 -37 -29l-49 -10q-50 -66 -124 -139l-27 17q29 62 54 150h-940q-26 -203 -124 -203q-26 0 -42 20q-12 16 -9 37q3 24 36 47q98 70 100 237h35
l4 -79h451q-14 23 -22 58q-20 79 -99 155zM1319 1282q225 87 392 215l91 -78q36 -31 25 -53q-7 -14 -29 -15q-9 -1 -19 1l-50 14q-171 -69 -422 -130l-1 -2q293 -95 398 -146q99 -49 146 -82q45 -33 48 -78q3 -51 -42 -60q-29 -6 -82 47q-56 55 -227 158q-110 65 -259 118
q-98 -150 -227 -226q-151 -89 -347 -138l-11 33q389 144 492 361q57 121 56 376l110 -21q68 -13 73 -32q6 -25 -29 -36l-55 -17q-8 -123 -31 -209zM368 1520q-121 -95 -258 -174l-24 32q108 78 131 97q50 41 116 116q-26 50 -142 242l33 23q41 -44 80 -102q43 -65 76 -112
q101 107 195 281l85 -45q65 -35 57 -62q-6 -18 -51 -22l-54 -4q-65 -100 -194 -223q97 -167 142 -377q37 -173 37 -509q0 -396 -90 -507q-60 -76 -190 -103q3 104 -195 135l8 44q156 -48 229 -47q133 2 141 366q6 247 -6 494q-161 -247 -392 -407l-25 34q153 130 265 299
q83 124 122 243q-28 131 -96 288z" />
  </g>

</svg>
