<?xml version="1.0" standalone="no"?>
<!DOCTYPE svg PUBLIC "-//W3C//DTD SVG 1.1//EN" "http://www.w3.org/Graphics/SVG/1.1/DTD/svg11.dtd" >
<svg xmlns="http://www.w3.org/2000/svg" xmlns:xlink="http://www.w3.org/1999/xlink" version="1.1" viewBox="0 -205 1024 1024">
  <g transform="matrix(1 0 0 -1 0 819)">
   <path fill="currentColor"
d="M459 983l35 -31h327l31 33l46 -39q7 -6 5 -10q-1 -5 -11 -7l-16 -7v-145l5 -74q2 -31 -47 -36v29h-329q-2 -21 -11 -29q-10 -9 -36 -14q5 37 7 104v183q-3 19 -19 35zM416 636l43 -29h410l32 40l68 -50q8 -6 7 -8q-2 -3 -13 -2h-493v-151q0 -6 -1 -19q0 -13 -1 -20h427
l28 40l72 -50q8 -6 7 -8q-2 -3 -13 -2h-300q39 -88 62 -127l9 -15q46 30 77 54q37 29 37 33q1 5 -4 21l10 6l54 -44q11 -10 1 -15q-19 3 -33 -1q-12 -4 -52 -30q-33 -21 -77 -43q17 -21 36 -40q59 -60 150 -74q20 -4 31 -7v-15q-38 1 -46 -4q-7 -5 -18 -23q-130 48 -199 173
q-28 53 -61 151h-86v-264q47 22 138 62l10 -14q-52 -34 -98 -58q-43 -29 -54 -36q-10 -8 -24 -30l-42 48q20 8 30 25v267h-73q-7 -133 -42 -198q-42 -79 -131 -140l-8 14q62 58 101 131q39 74 41 254v162q-14 22 -22 26zM372 941q3 -12 -7 -12q-12 2 -30 -12
q-48 -61 -87 -105q32 -51 56 -112q75 -204 25 -466q-16 -78 -57 -114q-41 -38 -85 -54q-3 52 -120 66l2 18q90 -14 128 -14q79 0 101 144q11 75 11 142t-3 107q-1 9 -3 20q-29 -47 -58 -82q-36 -44 -76 -82q-39 -37 -125 -96l-10 12q131 111 196 203q26 35 62 101
q-4 23 -12 50q-19 71 -54 133q-9 -10 -17 -18q-52 -53 -167 -136l-7 17q113 95 154 143q2 3 7 8q3 4 13 15q-46 72 -122 146l10 14q88 -79 131 -136q7 9 20 25q13 17 19 25q37 50 35 60v1q-1 10 -5 21l8 6zM505 830h329v102h-329v-102zM834 814h-329v-98h329v98zM493 497
h322l24 36l64 -42q8 -5 7 -8q-2 -2 -13 -2h-325q-27 1 -45 -13z" />
  </g>

</svg>
