<?xml version="1.0" standalone="no"?>
<!DOCTYPE svg PUBLIC "-//W3C//DTD SVG 1.1//EN" "http://www.w3.org/Graphics/SVG/1.1/DTD/svg11.dtd" >
<svg xmlns="http://www.w3.org/2000/svg" xmlns:xlink="http://www.w3.org/1999/xlink" version="1.1" viewBox="0 0 2048 2048">
  <g transform="matrix(1 0 0 -1 0 2048)">
   <path fill="currentColor"
d="M1181 1917l89 -28q98 -31 94 -61q-2 -22 -64 -34l-35 -7l-30 -69q-41 -96 -79 -175h634l68 76l84 -54q40 -26 40 -49q0 -26 -78 -61q-4 -96 -11 -318q-24 -700 -91 -889q-52 -145 -232 -190q-10 56 -80 83q-43 18 -100 33q-61 16 -92 26l7 38q213 -46 272 -46
q109 0 144 144q48 198 65 573q21 457 21 580h-140q-81 -462 -308 -811q-103 -159 -251 -294q-61 -57 -211 -155l-23 35q543 385 688 1226l-159 -1q-79 -301 -207 -491q-121 -180 -320 -316l-23 34q168 146 274 330q76 133 119 262q15 47 50 181h-170q-24 -39 -36 -59
q-108 -175 -228 -290l-26 28q270 360 345 749zM386 474v590h-47q-118 0 -192 -8l-38 89q97 -23 230 -23h47v520h-70q-112 0 -191 -9l-39 89q96 -23 196 -23h294l99 102l120 -107q21 -18 16 -33q-6 -19 -25 -19h-304v-520h66l99 101l120 -107q20 -18 16 -33q-6 -19 -26 -19
h-275v-562q163 53 322 120l19 -36q-230 -132 -610 -266l-11 -42q-8 -30 -25 -32q-12 0 -29 32l-69 130q168 28 307 66z" />
  </g>

</svg>
