<?xml version="1.0" standalone="no"?>
<!DOCTYPE svg PUBLIC "-//W3C//DTD SVG 1.1//EN" "http://www.w3.org/Graphics/SVG/1.1/DTD/svg11.dtd" >
<svg xmlns="http://www.w3.org/2000/svg" xmlns:xlink="http://www.w3.org/1999/xlink" version="1.1" viewBox="0 0 2048 2048">
  <g transform="matrix(1 0 0 -1 0 2048)">
   <path fill="currentColor"
d="M1287 1274l109 -24q83 -18 86 -44q3 -29 -50 -43l-42 -11v-177h330l99 100l120 -107q20 -18 16 -32q-6 -18 -26 -18h-539v-541q0 -105 11 -209q4 -29 4 -54q0 -39 -49 -42q-62 -4 -62 42v804h-286q-120 0 -192 -8l-34 88q107 -23 226 -23h286l1 143q-5 142 -8 156z
M1511 1855l69 76l83 -55q40 -26 40 -48q0 -27 -77 -62v-389q0 -48 32 -63q18 -9 92 -9q61 0 100 11q28 8 43 10q48 9 64 -37q29 -83 -179 -83q-97 0 -158 14q-91 21 -91 114l-1 464h-381q-1 -326 -64 -461q-52 -112 -223 -233l-23 30q129 119 170 235q44 120 44 333
q0 146 -8 226l109 -73h359zM1057 776l97 -42q61 -27 61 -50q0 -30 -57 -30h-33q-34 -44 -50 -67q-68 -90 -193 -205q-31 -28 -109 -83q-26 -19 -54 -41l-23 34q14 14 110 103q134 124 251 381zM1522 743q409 -209 417 -362q2 -32 -20 -54q-14 -16 -34 -16q-34 0 -64 73
q-28 64 -134 173q-73 74 -183 154zM389 459v650h-79q-113 0 -169 -8l-38 89q87 -23 198 -23h88v569h-79q-117 0 -192 -8l-38 88q96 -23 230 -23h274l98 102l121 -107q20 -18 16 -34q-6 -18 -26 -18h-308v-569h83l99 101l121 -107q20 -18 15 -33q-6 -19 -26 -19h-292v-620
q168 47 352 123l23 -36q-96 -58 -337 -160q-30 -13 -297 -108l-6 -35q-7 -40 -27 -42q-23 -2 -45 42l-62 120q163 26 303 66z" />
  </g>

</svg>
