<?xml version="1.0" standalone="no"?>
<!DOCTYPE svg PUBLIC "-//W3C//DTD SVG 1.1//EN" "http://www.w3.org/Graphics/SVG/1.1/DTD/svg11.dtd" >
<svg xmlns="http://www.w3.org/2000/svg" xmlns:xlink="http://www.w3.org/1999/xlink" version="1.1" viewBox="0 -204 1024 1024">
  <g transform="matrix(1 0 0 -1 0 820)">
   <path fill="currentColor"
d="M43 882q44 -11 118 -11h102l44 48q36 -27 69 -51q8 -5 8 -11q0 -15 -15 -15h-146v-243h36l39 41q31 -24 58 -46q8 -5 8 -10q0 -13 -14 -13h-127v-276q15 8 27 13q52 21 122 60l4 -21q-55 -43 -97 -68q-47 -28 -86 -48q-39 -22 -82 -37q-12 -37 -19 -37t-49 84
q60 11 109 29q12 4 23 7v294q-70 -2 -95 -7l-21 47q44 -12 116 -12v243h-14q-72 -2 -99 -7zM412 859q44 -13 116 -13h147l-2 4q-15 34 -31 56t-46 47l14 19q45 -21 71 -45q24 -17 34 -36q8 -13 8 -24q0 -12 -3 -21h107l45 52q37 -28 71 -55q8 -5 8 -11q0 -13 -15 -13h-119
q69 -32 69 -47q0 -14 -50 -16q-23 -42 -59 -89q-24 -40 -56 -77h142l44 50q36 -27 69 -53q7 -5 7 -11q0 -13 -14 -13h-108v-463q0 -20 -12 -35q-11 -16 -33 -27q-21 -12 -48 -18q-1 31 -11 42q-8 10 -25 14q-36 14 -81 22v21q66 -21 117 -21q25 0 33 7q9 5 9 22v436h-317
q-71 -2 -98 -7l-19 47q44 -13 117 -13h57q-3 8 -3 15q-9 77 -26 116q-14 40 -48 96q-28 -2 -42 -5zM593 590h102q29 51 46 87q21 40 33 76q11 34 19 66h-265q-18 -1 -32 -1q34 -42 57 -84q21 -33 36 -72q8 -27 8 -48q0 -12 -4 -24zM433 473l64 -30h139l31 29q51 -36 51 -51
q0 -10 -31 -24v-136q14 -13 28 -22q5 -3 5 -7q0 -13 -10 -13h-227v-25q0 -9 -12 -15q-14 -6 -25 -6q-13 0 -13 14q0 3 1 13q1 24 1 42v162q0 49 -2 69zM483 246h157v164l-1 4h-156v-168z" />
  </g>

</svg>
