<?xml version="1.0" standalone="no"?>
<!DOCTYPE svg PUBLIC "-//W3C//DTD SVG 1.1//EN" "http://www.w3.org/Graphics/SVG/1.1/DTD/svg11.dtd" >
<svg xmlns="http://www.w3.org/2000/svg" xmlns:xlink="http://www.w3.org/1999/xlink" version="1.1" viewBox="0 0 2048 2048">
  <g transform="matrix(1 0 0 -1 0 2048)">
   <path fill="currentColor"
d="M319 581v577h-21q-103 0 -176 -8l-39 89q96 -23 215 -23h21v470h-17q-112 0 -191 -8l-39 88q96 -22 196 -22h188l98 101l121 -106q20 -19 16 -34q-6 -19 -26 -19h-250v-470h39l98 101l121 -107q20 -18 15 -33q-5 -19 -26 -19h-247v-552l21 7q121 35 218 73l18 -36
q-136 -80 -269 -132q-72 -28 -132 -48q-48 -16 -72 -25l-6 -40q-3 -25 -19 -30q-22 -8 -40 26l-69 132q117 17 254 48zM1548 1164q35 -12 53 -17q296 -95 276 -197q-6 -28 -31 -34q-23 -5 -44 14q-13 11 -52 54q-44 48 -216 145zM482 74l-27 30q161 180 217 460
q47 234 47 589l1 371q0 46 -9 178l122 -70h398v169q0 84 -9 134l123 -25q74 -15 72 -43q-2 -21 -53 -35l-35 -10l-1 -62h297l81 95l114 -99q18 -16 17 -30q-2 -20 -20 -20h-489v-74h477l57 70l102 -83q24 -19 15 -38q-7 -17 -86 -38q-50 -68 -108 -143l-34 18q31 82 54 158
h-585l59 -13q82 -18 85 -43q3 -26 -50 -44l-41 -13v-42l209 12l72 83l106 -79q20 -15 19 -31q0 -15 -24 -17l-382 -30q1 -43 33 -55q72 -26 207 -20q111 4 189 27q29 9 42 7q37 -5 51 -45q15 -44 -80 -60q-128 -21 -275 -16q-190 7 -239 64q-18 21 -23 92l-195 -16l-67 -11
l-44 69l91 3l215 17q-3 139 -7 161h-355l-1 -443q-1 -305 -39 -513q-63 -345 -294 -546zM1106 1196l113 -59q42 -23 36 -44q-9 -29 -73 -25q-8 1 -24 2q-164 -130 -290 -172l-18 32q167 113 256 266zM807 674q352 146 533 464l117 -53q35 -16 31 -41q-4 -24 -36 -22l-42 1
l-7 -8q253 -228 595 -285v-34q-61 -9 -84 -35q-10 -11 -25 -34q-88 32 -122 49l-24 -20v-399q0 -46 7 -104q3 -25 3 -44q0 -41 -66 -49q-47 -5 -47 25l-1 51h-556v-47q0 -31 -50 -31q-65 0 -60 51l4 42q6 95 6 104v438q-84 -34 -158 -59zM1367 976q-129 -133 -295 -237
l25 -11h532l15 17q-151 93 -277 231zM1083 547h556v124h-556v-124zM1083 369h556v122h-556v-122zM1083 190h556v125h-556v-125z" />
  </g>

</svg>
