<?xml version="1.0" standalone="no"?>
<!DOCTYPE svg PUBLIC "-//W3C//DTD SVG 1.1//EN" "http://www.w3.org/Graphics/SVG/1.1/DTD/svg11.dtd" >
<svg xmlns="http://www.w3.org/2000/svg" xmlns:xlink="http://www.w3.org/1999/xlink" version="1.1" viewBox="0 -205 1024 1024">
  <g transform="matrix(1 0 0 -1 0 819)">
   <path fill="currentColor"
d="M546 941l44 -43q61 11 112 23q60 13 87 25q25 11 37 18q10 7 16 25l7 2l56 -52q9 -9 9 -14t-9 -6q-29 6 -80 -5q0 -163 8 -279q7 -135 26 -234q18 -99 40 -157q21 -61 45 -103q24 -47 69 -89v-12q-15 5 -34 5t-37 -17q-68 128 -100 266q-34 151 -40 293q-7 141 -6 321h-2
q-2 -1 -3 -1q-38 -9 -77 -16v-754q50 31 78 53q-16 36 -57 104l10 13q43 -52 67 -86q22 -36 34 -70q11 -34 5 -62q-6 -27 -25 -27q-20 2 -17 38q2 33 -9 66q-2 -2 -6 -5q-20 -15 -55 -46q-30 -21 -45 -62l-57 52q30 11 37 32v749q-7 -1 -23 -2q-33 -3 -51 -4q2 -235 -7 -403
q-9 -179 -59 -284q-50 -104 -167 -176l-8 14q100 74 144 179q41 103 48 275q6 185 5 395q0 25 -22 49zM135 553l183 9q22 20 34 35q21 27 21 34q0 12 -3 23l9 7l69 -57q6 -5 -3 -11q-26 2 -50 -18q-118 -100 -242 -172l275 21q-28 43 -70 75l8 14q56 -28 89 -58
q35 -30 44 -72t-12 -51q-22 -9 -28 21q-5 23 -20 50l-35 -4q-24 -3 -66 -9q-23 -4 -34 -5v-247q-1 -37 -16 -58q-15 -18 -74 -35q-2 30 -23 40q-25 11 -78 27l6 17l36 -9q57 -14 83 -6q22 9 22 58v206q-117 -15 -129 -18q-20 -5 -38 -23l-26 60q30 4 57 16q95 67 150 112
q3 3 10 8q6 5 9 7l-55 -7q-100 -12 -108 -16q-21 -6 -28 -18l-32 59q33 3 59 26q42 33 70 64q28 30 28 38q1 9 -8 26l8 9l69 -53q9 -10 -13 -12q-17 -1 -29 -12q-42 -38 -119 -91zM440 1001l55 -59q8 -9 8 -14t-8 -6q-24 12 -70 2q-122 -25 -193 -34q-74 -8 -184 -8l2 18
q134 12 240 35t122 33q16 9 18 31zM137 326l60 -38q23 -12 11 -18q-16 -1 -29 -10q-52 -82 -152 -172l-11 10q74 100 98 145q25 44 23 52q0 1 -1 2q-2 6 -9 20zM426 895l65 -50q14 -10 6 -15q-20 1 -31 -5q-54 -74 -117 -138l-13 11l57 92q33 58 33 71q0 12 -7 26zM78 845
l8 10q76 -37 97 -85q22 -49 -3 -63q-24 -12 -31 16q-4 24 -18 55q-15 28 -53 67zM331 330l6 11q47 -21 78 -48q33 -28 45 -57q12 -31 -9 -44q-22 -10 -30 16q-5 23 -25 55q-18 31 -65 67zM217 876l7 7q69 -37 90 -83q19 -48 -4 -61q-25 -11 -31 19q-1 3 -2 8q-7 33 -14 44
q-8 21 -46 66z" />
  </g>

</svg>
