<?xml version="1.0" standalone="no"?>
<!DOCTYPE svg PUBLIC "-//W3C//DTD SVG 1.1//EN" "http://www.w3.org/Graphics/SVG/1.1/DTD/svg11.dtd" >
<svg xmlns="http://www.w3.org/2000/svg" xmlns:xlink="http://www.w3.org/1999/xlink" version="1.1" viewBox="0 0 2048 2048">
  <g transform="matrix(1 0 0 -1 0 2048)">
   <path fill="currentColor"
d="M1215 1698l-35 86q84 -19 178 -19h402l89 100l110 -107q19 -18 14 -33q-5 -19 -23 -19h-498l-30 -359h239l62 77l76 -55q36 -26 36 -48q0 -26 -70 -62l-49 -928q-5 -101 58 -101q61 0 79 13q33 25 57 276h35l-8 -191q-2 -36 14 -60q4 -5 33 -34q9 -9 11 -25
q5 -37 -71 -58q-57 -16 -144 -16q-163 0 -156 128l19 340l37 688h-264l-21 -249q170 -148 185 -244q12 -75 -39 -83q-44 -8 -59 81q-16 92 -92 202l-59 -687q107 30 208 78l17 -40q-105 -85 -248 -151q-12 -75 -32 -82q-14 -5 -26 10q-9 13 -39 75l-35 71q30 5 71 13
l122 1421h-25q-61 0 -117 -6zM154 1765l-39 85q27 -4 40 -6q84 -11 145 -11h621l76 80l92 -80q25 -21 19 -41q-4 -17 -19 -17h-194v-494h75l79 79l89 -72q31 -25 26 -45q-4 -19 -19 -19h-250v-43q0 -18 1 -33q4 -30 4 -41q0 -39 -45 -38q-50 0 -51 22l-1 133h-521
q-68 0 -146 -10l-39 85q73 -10 136 -15l37 -3h53v494h-30q-64 0 -139 -10zM414 1281h389v131h-389v-131zM414 1466h389v130h-389v-130zM414 1652h389v123h-389v-123zM83 1072q90 -25 195 -25h253l68 70l85 -59q52 -2 78 -4q92 -7 104 -7h139l68 70l91 -70q25 -19 23 -39
q-2 -18 -23 -18h-107v-614l58 57l80 -65q24 -19 18 -41q-5 -16 -18 -16h-138v-75l2 -40l1 -32q4 -36 4 -42q0 -38 -49 -43q-48 -6 -48 26v206h-186q-145 -8 -157 -10l-40 88q12 -3 43 -7q41 -5 64 -9v617h-124v-747q0 -42 4 -72q5 -34 5 -41q0 -39 -53 -44q-48 -4 -48 27
v210q-98 -52 -279 -109l-4 -24q-7 -44 -33 -41q-19 1 -41 57l-35 89q58 9 113 16v679q-39 -5 -78 -7zM785 368h182v159h-182v-159zM785 585h182v173h-182v-173zM785 816h182v174h-182v-174zM291 331q90 19 184 45v151h-184v-196zM291 585h184v173h-184v-173zM291 816h184
v174h-184v-174z" />
  </g>

</svg>
