<?xml version="1.0" standalone="no"?>
<!DOCTYPE svg PUBLIC "-//W3C//DTD SVG 1.1//EN" "http://www.w3.org/Graphics/SVG/1.1/DTD/svg11.dtd" >
<svg xmlns="http://www.w3.org/2000/svg" xmlns:xlink="http://www.w3.org/1999/xlink" version="1.1" viewBox="0 -205 1024 1024">
  <g transform="matrix(1 0 0 -1 0 819)">
   <path fill="currentColor"
d="M347 978l89 -36q14 -5 6 -11q-21 -7 -30 -21v-200h34l36 42l72 -52q8 -5 7 -8q-2 -2 -13 -2h-136v-461l4 -95q1 -33 -48 -45v93h-190v-71q3 -36 -51 -44q5 38 7 145v478h-41q-27 1 -45 -13l-34 33h120v204q2 16 -30 46l9 12l89 -36q14 -5 6 -11q-21 -7 -30 -21v-194h190
v210q2 16 -30 46zM454 542h242v334h-117q-31 1 -49 -13l-34 33h350l32 40l68 -50q8 -5 7 -8q-2 -2 -13 -2h-200v-334h158l32 40l68 -50q8 -5 7 -8q-2 -2 -13 -2h-252v-338l2 -95q2 -37 -53 -46q5 39 7 187v292h-163q-27 1 -45 -13zM368 465h-190v-264h190v264zM368 690h-190
v-207h190v207z" />
  </g>

</svg>
