<?xml version="1.0" standalone="no"?>
<!DOCTYPE svg PUBLIC "-//W3C//DTD SVG 1.1//EN" "http://www.w3.org/Graphics/SVG/1.1/DTD/svg11.dtd" >
<svg xmlns="http://www.w3.org/2000/svg" xmlns:xlink="http://www.w3.org/1999/xlink" version="1.1" viewBox="0 -205 1024 1024">
  <g transform="matrix(1 0 0 -1 0 819)">
   <path fill="currentColor"
d="M858 913v-268q1 -55 -11 -82q-13 -27 -69 -39q-3 33 -34 44q-33 11 -78 23l2 16q98 -21 122 -19q24 3 24 51v40h-248l2 -97q0 -21 -12 -31q-12 -9 -37 -15q3 21 5 118q1 16 1 25h-263q-15 -49 -39 -79q-48 -60 -138 -91l-5 13q91 50 123 117q31 66 34 146q1 34 2 63v32
v48q0 24 -18 30l12 12l32 -23h533l32 39l48 -41q9 -6 9 -11t-9 -8zM955 451v-304q2 -63 -10 -87t-67 -38q0 30 -31 39q-32 9 -77 24l4 18q96 -18 120 -17q25 2 25 47v107h-129v-33l2 -57q0 -19 -12 -29q-12 -9 -37 -14q3 22 5 112q1 14 1 21h-127q-12 -148 -118 -221l-8 14
q55 57 73 111q20 51 20 144q2 103 2 176q-5 21 -26 41l9 11l43 -31h286l28 37l44 -39q9 -6 9 -11t-9 -8zM495 451v-296q2 -61 -10 -85t-66 -38q0 30 -31 39q-26 7 -59 18l4 18q74 -14 102 -11q24 2 24 47v95h-125v-33l2 -55q0 -22 -12 -31t-37 -14q3 22 5 112q1 14 1 21
h-129q-21 -139 -126 -219l-8 14q100 85 102 253q2 103 2 178q-3 18 -27 41l9 11l44 -31h283l28 37l44 -39q9 -6 9 -11t-9 -8zM276 764q-3 -37 -10 -69h260v2v106h-248q0 -11 -2 -36q2 18 0 -3zM566 803v-108h248v108h-248zM814 927h-248v-108h248v108zM281 927q0 -37 -2 -99
v-9h247v108h-245zM919 465h-129v-99h129v99zM170 465v-59q0 -23 -1 -42h125v101h-124zM459 465h-125v-101h125v101zM790 350v-94h129v94h-129zM627 465v-58q0 -22 -1 -41h124v99h-123zM167 265q0 -2 -1 -6v-5h128v94h-125q0 -39 -2 -83zM334 348v-94h125v94h-125zM624 267
q0 -2 -1 -6v-5h127v94h-124q0 -39 -2 -83z" />
  </g>

</svg>
