<?xml version="1.0" standalone="no"?>
<!DOCTYPE svg PUBLIC "-//W3C//DTD SVG 1.1//EN" "http://www.w3.org/Graphics/SVG/1.1/DTD/svg11.dtd" >
<svg xmlns="http://www.w3.org/2000/svg" xmlns:xlink="http://www.w3.org/1999/xlink" version="1.1" viewBox="0 -205 1024 1024">
  <g transform="matrix(1 0 0 -1 0 819)">
   <path fill="currentColor"
d="M538 905l36 -41h118v83q2 15 -25 42l8 11l80 -34q14 -5 6 -11q-18 -6 -27 -18v-73h92l39 40l43 -48q7 -6 5 -10q-1 -5 -11 -7l-19 -9v-202l3 -73q-2 -30 -11 -37q-9 -8 -30 -8v44h-262q-1 -25 -12 -32q-12 -9 -33 -14q4 45 7 104v239q2 16 -19 37zM134 905l36 -40h118v83
q2 15 -25 42l8 11l80 -34q14 -5 6 -11q-18 -6 -27 -18v-73h85l39 40l42 -48q7 -6 5 -10q-1 -5 -11 -7l-18 -9v-204l3 -73q-2 -30 -11 -37q-9 -8 -30 -8v45h-255q-1 -27 -12 -34q-12 -9 -33 -14q4 45 7 104v241q2 16 -20 37zM493 98l5 18q59 -12 123 -24q54 -3 82 10
q28 15 43 61q14 48 24 134h-453l-39 -30l-38 50q17 3 36 22l51 102h-187q-28 0 -46 -13l-34 33h833l33 40l68 -50q7 -5 6 -8q-1 -2 -12 -2h-611l-69 -124h450l33 38l55 -51q5 -9 -6 -11l-22 -12q-18 -106 -34 -149q-16 -45 -46 -66q-30 -20 -52 -26q-21 -6 -68 -17
q3 30 -27 43q-47 17 -98 32zM845 844h-111v-129h111v129zM179 845v-130h109v130h-109zM583 844v-129h109v129h-109zM734 699v-125h111v125h-111zM179 699v-125h109v125h-109zM583 699v-125h109v125h-109zM434 845h-104v-130h104v130zM330 699v-125h104v125h-104z" />
  </g>

</svg>
