<?xml version="1.0" standalone="no"?>
<!DOCTYPE svg PUBLIC "-//W3C//DTD SVG 1.1//EN" "http://www.w3.org/Graphics/SVG/1.1/DTD/svg11.dtd" >
<svg xmlns="http://www.w3.org/2000/svg" xmlns:xlink="http://www.w3.org/1999/xlink" version="1.1" viewBox="0 0 2048 2048">
  <g transform="matrix(1 0 0 -1 0 2048)">
   <path fill="currentColor"
d="M977 920q-207 -39 -492 -59l-8 42q629 85 902 249l88 -87q17 -16 18 -30q5 -33 -30 -27l-63 12q-203 -55 -320 -81v-172q63 -68 107 -108q309 128 495 296l86 -69q51 -41 48 -59q-3 -19 -32 -19q-13 0 -42 8l-27 7q-241 -117 -487 -199q381 -315 705 -360v-38
q-99 -2 -137 -73q-276 118 -452 273q-137 121 -264 265v-618q0 -34 -51 -36q-48 -1 -51 35q-1 21 4 80q4 40 4 103v98l-2 56zM1589 1733l68 76l84 -54q40 -26 40 -49q0 -27 -78 -61v-280q0 -76 4 -129q6 -79 3 -119q-2 -32 -62 -32q-41 0 -41 24v50h-1166v-41q0 -44 -56 -38
q-39 4 -45 45q-3 28 3 126q4 52 4 122v288q0 48 -9 152l116 -80h250q116 106 190 236l79 -34q15 -6 36 -14q30 -11 37 -28q11 -25 -18 -29l-64 -8l-88 -56l-102 -67h815zM973 1423h-532v-208h532v208zM1069 1423v-208h538v208h-538zM973 1674h-532v-195h532v195zM1069 1674
v-195h538v195h-538zM776 543l72 -80q36 -40 23 -64q-13 -22 -49 -7l-46 18q-174 -120 -333 -177q-109 -39 -246 -61l-4 42q29 10 44 14q149 49 284 122q112 60 255 193zM736 795l74 -82q33 -36 23 -57q-6 -12 -23 -11q-12 1 -34 7l-26 8q-168 -115 -304 -163
q-70 -24 -242 -57l-7 38q191 68 272 112q146 79 267 205z" />
  </g>

</svg>
