<?xml version="1.0" standalone="no"?>
<!DOCTYPE svg PUBLIC "-//W3C//DTD SVG 1.1//EN" "http://www.w3.org/Graphics/SVG/1.1/DTD/svg11.dtd" >
<svg xmlns="http://www.w3.org/2000/svg" xmlns:xlink="http://www.w3.org/1999/xlink" version="1.1" viewBox="0 -205 1024 1024">
  <g transform="matrix(1 0 0 -1 0 819)">
   <path fill="currentColor"
d="M190 875l38 -34h652l32 40l68 -50q8 -6 7 -8q-2 -3 -13 -2h-728v-210q4 -230 -38 -346q-41 -113 -165 -233l-8 14q94 112 133 228q29 87 33 237q-47 -38 -65 -53q-42 -34 -53 -66l-54 36l172 112v49q0 20 -1 38v188q0 24 -22 48zM515 545q11 -4 3 -13q-16 -4 -33 -19
v-309q0 -47 14 -56q14 -12 103 -11q89 0 133 2q42 4 42 44q3 43 4 127h15l6 -82q3 -61 31 -75q-15 -43 -65 -59q-19 -5 -83 -6h-80q-45 1 -96 1q-78 6 -70 113v320q-3 23 -24 44l8 10zM799 502l8 12q86 -78 116 -124t38 -85q15 -80 -29 -79q-21 2 -20 33t-14 82t-99 161z
M346 466q3 -40 -2 -113t-23 -107q-42 -65 -72 -25q-7 21 15 37q23 16 39 67t20 141h23zM527 718l4 12q86 -52 113 -94t35 -74q16 -72 -24 -72q-19 2 -21 36q-1 34 -22 80t-85 112zM42 769l8 10q119 -63 113 -139q-5 -31 -26 -31t-21 26q1 65 -74 134zM471 981l6 13
q96 -27 125 -70q29 -52 -13 -61q-20 0 -25 21q-4 21 -27 46q-22 26 -66 51z" />
  </g>

</svg>
