<?xml version="1.0" standalone="no"?>
<!DOCTYPE svg PUBLIC "-//W3C//DTD SVG 1.1//EN" "http://www.w3.org/Graphics/SVG/1.1/DTD/svg11.dtd" >
<svg xmlns="http://www.w3.org/2000/svg" xmlns:xlink="http://www.w3.org/1999/xlink" version="1.1" viewBox="0 -205 1024 1024">
  <g transform="matrix(1 0 0 -1 0 819)">
   <path fill="currentColor"
d="M521 819l82 -34q14 -5 6 -11q-16 -4 -27 -18v-83h102l32 36l60 -46q8 -5 7 -8q-2 -2 -13 -2h-188v-148h79q34 32 67 66q109 113 107 128q-1 15 -8 24l10 7l74 -46q7 -12 -2 -15q-22 4 -42 -11q-76 -85 -145 -153h134l32 40l68 -50q8 -5 7 -8q-2 -2 -13 -2h-249
q-95 -90 -176 -141l-24 -15v-98q119 51 177 83q67 36 70 48q4 12 -2 18l11 4l67 -52q8 -10 -3 -14q-22 5 -40 0q-161 -72 -280 -110v-27q0 -62 15 -70q16 -9 38 -11t131 -2h92q26 0 33 1q17 1 24 5q9 4 14 20q6 15 7 36q1 11 2 63q1 28 2 45h18q5 -87 6 -113q2 -25 28 -36
q-20 -44 -56 -52q-16 -6 -140 -6t-164 2q-39 1 -53 7q-42 17 -41 91v142q-115 -67 -240 -112l-4 17q143 71 243 136q-4 23 -21 42l12 12l38 -35l21 15q67 48 133 107h-296q-27 1 -45 -13l-34 33h274v148h-141q-27 1 -45 -13l-34 33h220v93q2 17 -25 42zM186 889l36 -34h656
l32 40l68 -50q8 -4 7 -7q-2 -2 -13 -3h-732v-238q4 -230 -37 -346q-39 -111 -166 -233l-8 14q96 114 135 228q29 86 33 233q-25 -19 -53 -42q-4 -4 -6 -5q-42 -34 -53 -66l-54 34l166 108v52q0 21 -1 39v216q0 24 -22 48zM44 755l8 10q119 -63 113 -139q-5 -31 -25 -31
t-20 26q1 64 -76 134zM485 991l6 13q96 -27 125 -70q28 -51 -12 -61q-19 0 -24 21q-4 21 -27 46q-23 26 -68 51z" />
  </g>

</svg>
