<?xml version="1.0" standalone="no"?>
<!DOCTYPE svg PUBLIC "-//W3C//DTD SVG 1.1//EN" "http://www.w3.org/Graphics/SVG/1.1/DTD/svg11.dtd" >
<svg xmlns="http://www.w3.org/2000/svg" xmlns:xlink="http://www.w3.org/1999/xlink" version="1.1" viewBox="0 -205 1024 1024">
  <g transform="matrix(1 0 0 -1 0 819)">
   <path fill="currentColor"
d="M162 879l35 -34h689l32 40l68 -50q8 -6 7 -8q-2 -3 -13 -2h-766v-222q4 -229 -23 -348q-26 -113 -134 -227l-8 14q80 103 105 222q18 84 19 223q-10 -8 -26 -22q-13 -10 -17 -13q-42 -34 -53 -66l-54 32l150 100q1 47 -1 101v200q0 24 -22 48zM633 778q5 -5 4 -8
q-2 -4 -10 -6q-21 -4 -26 -20q-10 -29 -24 -55h269l32 40l68 -50q8 -5 7 -8q-2 -2 -13 -2h-246q23 -43 56 -81q59 -70 133 -102q38 -16 88 -21l-1 -14q-49 2 -69 -27q-113 51 -178 149q-29 41 -52 96h-104q-44 -82 -109 -139q-93 -82 -211 -126l-4 14q113 62 180 126
q60 57 96 125h-178q-27 1 -45 -13l-34 33h266q35 75 33 85q-1 11 -14 26l7 8zM282 371h536l32 40l68 -50q8 -5 7 -8q-2 -2 -13 -2h-282v-235q-1 -35 -16 -53q-14 -18 -80 -34q5 41 -105 60l4 18l32 -8q71 -16 96 -6q27 10 27 52v206h-227q-27 1 -45 -13zM433 303l62 -39
q7 -7 7 -10t-7 -4q-25 3 -39 -10q-13 -13 -68 -60q-55 -46 -150 -91l-10 12q147 98 196 170q6 14 -1 24zM719 271l6 12q124 -42 168 -109q43 -63 3 -77q-21 -4 -32 31q-11 33 -46 69q-34 35 -99 74zM428 495h232l32 40l68 -50q8 -5 7 -8q-2 -2 -13 -2h-247q-27 1 -45 -13z
M36 761l8 10q119 -63 113 -139q-4 -31 -24 -31q-19 0 -19 26q1 62 -78 134zM485 981l6 13q98 -27 126 -68q28 -49 -13 -60q-19 -1 -23 20q-3 21 -26 45t-70 50z" />
  </g>

</svg>
