<?xml version="1.0" standalone="no"?>
<!DOCTYPE svg PUBLIC "-//W3C//DTD SVG 1.1//EN" "http://www.w3.org/Graphics/SVG/1.1/DTD/svg11.dtd" >
<svg xmlns="http://www.w3.org/2000/svg" xmlns:xlink="http://www.w3.org/1999/xlink" version="1.1" viewBox="0 0 2048 2048">
  <g transform="matrix(1 0 0 -1 0 2048)">
   <path fill="currentColor"
d="M1727 943l-58 -37l-1 -342q0 -46 6 -104q3 -25 3 -43q0 -42 -56 -49q-50 -7 -51 31v28l-351 -2v-98q0 -73 49 -96q60 -28 289 -28q138 0 241 27q28 8 44 10q41 6 64 -26q19 -27 12 -48q-9 -29 -68 -39q-110 -17 -291 -17q-176 0 -305 21q-132 21 -132 163v133h-334v-30
q0 -28 -49 -31q-66 -3 -61 51l4 42q7 94 7 104l-1 391q-81 -45 -218 -99l-14 39q176 95 292 197q-33 11 -42 24q-2 2 -9 25q-22 64 -126 139l17 26q110 -41 152 -73q56 -42 54 -98q106 104 181 217l-232 -1q-110 0 -191 -8l-39 88q96 -22 230 -22h265q49 85 97 220l133 -42
q30 -9 30 -30q0 -22 -35 -28l-45 -8q-32 -59 -66 -112h569l99 102l120 -107q21 -18 16 -34q-6 -18 -26 -18l-519 -2q104 -121 244 -217q97 108 146 183l85 -48q47 -27 47 -47q0 -31 -49 -26l-47 4q-60 -43 -137 -94q184 -103 339 -138l-4 -40q-47 0 -71 -13q-21 -13 -39 -50
q-132 60 -168 80zM1594 1041q-158 126 -278 308l-224 2q-150 -226 -366 -373h396v60q0 117 -8 160l109 -24q82 -18 85 -44q4 -26 -50 -43l-40 -14v-95h329zM786 483h336v188h-336v-188zM1218 671v-188h352v188h-352zM786 725h336v194h-336v-194zM1218 919v-194h352v194h-352
zM86 1539q100 -79 129 -110q90 -93 90 -166q0 -61 -46 -66q-29 -3 -44 33q-3 7 -15 60q-22 94 -137 226zM462 1706h666q-14 27 -23 67q-19 87 -99 176l23 27q92 -64 127 -98q57 -55 57 -109q0 -36 -25 -62h534l108 114l131 -112q27 -24 21 -41q-5 -18 -25 -19l-1502 -2
l-4 -499q-4 -264 -17 -380q-51 -450 -334 -707l-27 27q144 164 214 406q35 121 56 290q3 25 10 135q2 31 5 66l-177 -205l-4 -49q-3 -49 -34 -40q-14 4 -22 17l-81 116q141 69 318 221l-1 445q0 121 -6 291z" />
  </g>

</svg>
