<?xml version="1.0" standalone="no"?>
<!DOCTYPE svg PUBLIC "-//W3C//DTD SVG 1.1//EN" "http://www.w3.org/Graphics/SVG/1.1/DTD/svg11.dtd" >
<svg xmlns="http://www.w3.org/2000/svg" xmlns:xlink="http://www.w3.org/1999/xlink" version="1.1" viewBox="0 -205 1024 1024">
  <g transform="matrix(1 0 0 -1 0 819)">
   <path fill="currentColor"
d="M271 685h142v79q2 17 -25 42l8 11l80 -34q14 -5 6 -11q-16 -4 -27 -18v-69h274v75q2 17 -25 42l8 11l80 -34q14 -5 6 -11q-16 -5 -27 -22v-61h60l32 40l68 -50q8 -5 7 -8q-2 -2 -13 -2h-154v-310h104l32 40l68 -50q8 -5 7 -8q-2 -2 -13 -2h-651q-27 1 -45 -13l-34 33h174
v310h-63q-27 1 -45 -13zM177 891l35 -34h681l32 40l68 -50q8 -6 7 -8q-2 -3 -13 -2h-758v-242q4 -230 -37 -346q-39 -112 -168 -233l-8 14q100 113 139 228q29 86 33 233q-25 -19 -53 -42q-4 -4 -6 -5q-42 -34 -53 -66l-58 32l170 110v52q0 21 -1 39v220q0 24 -22 48z
M472 262q4 -3 3 -5q0 -2 -4 -4q-17 -2 -31 -17v-86q1 -53 7 -65q7 -12 52 -12q45 -2 117 0q62 -1 47 -1h24h29q48 8 54 44q6 50 8 101h15l4 -59q2 -61 27 -58q-14 -52 -71 -59q-29 -5 -205 -4q-6 -1 -91 2q-62 0 -59 89v117q-3 23 -26 44l8 10zM729 450h-274v-95h274v95z
M729 558h-274v-92h274v92zM729 665h-274v-91h274v91zM810 257l6 14q108 -45 141 -106q30 -59 -11 -70q-19 -1 -24 26q-2 24 -32 65q-29 39 -80 71zM297 252q5 -138 -60 -169q-30 -11 -38 9t14 34q23 13 40 36q18 24 27 90h17zM31 753l8 10q124 -61 117 -139q-4 -31 -24 -31
q-19 0 -19 26q1 65 -82 134zM476 993l2 13q100 -25 130 -68q28 -49 -13 -60q-19 -1 -23 20q-3 21 -26 45t-70 50zM515 301l4 12q87 -18 118 -59q18 -21 18 -45q0 -23 -18 -28q-18 -4 -26 24q-15 52 -96 96z" />
  </g>

</svg>
