<?xml version="1.0" standalone="no"?>
<!DOCTYPE svg PUBLIC "-//W3C//DTD SVG 1.1//EN" "http://www.w3.org/Graphics/SVG/1.1/DTD/svg11.dtd" >
<svg xmlns="http://www.w3.org/2000/svg" xmlns:xlink="http://www.w3.org/1999/xlink" version="1.1" viewBox="0 0 2048 2048">
  <g transform="matrix(1 0 0 -1 0 2048)">
   <path fill="currentColor"
d="M1822 1567l108 -81q33 -25 31 -42q-2 -22 -25 -22h-1215v-456q0 -254 -42 -439q-55 -243 -212 -393l-28 26q113 158 152 350q35 175 35 459v426q0 96 -6 155l112 -71h1003zM782 1258q79 -43 99 -57q54 -39 68 -92q7 -24 -7 -45q-14 -20 -38 -19q-30 1 -54 61
q-25 64 -92 125zM1321 1155q-69 -36 -223 -87l-12 -42q140 -49 207 -86q99 -55 86 -119q-7 -34 -31 -38q-28 -5 -61 30l-45 50q-48 52 -171 121q-92 -137 -293 -216l-20 39q155 79 214 185q53 97 53 312q0 15 -4 64l137 -27q38 -7 40 -30q2 -22 -76 -46q-6 -81 -13 -144
q114 66 186 156l78 -57q53 -39 40 -61q-8 -14 -42 -11q-23 1 -50 7zM763 703q210 -82 180 -191q-5 -19 -23 -28t-33 -1q-18 9 -56 89q-18 40 -88 99zM1079 520l-8 -22q43 -20 64 -30q121 -56 186 -103q70 -50 65 -99q-3 -27 -22 -39q-39 -24 -96 51q-57 76 -208 178
q-55 -110 -161 -180q-61 -40 -217 -90l-14 39q221 90 290 224q54 106 41 376l135 -24q45 -8 45 -33q0 -23 -78 -46q-6 -77 -15 -152q139 77 219 152l77 -68q46 -40 29 -61q-6 -8 -23 -8q-24 0 -70 16q-105 -46 -239 -81zM1479 1212l139 -30q59 -13 61 -38q2 -22 -39 -37
q-4 -1 -33 -9q-12 -4 -25 -7v-346q0 -76 4 -118q3 -30 4 -49q2 -31 -40 -42q-64 -16 -64 42l2 487q0 29 -9 147zM1756 1330l115 -23q78 -15 83 -38q6 -26 -37 -41l-16 -4q-14 -4 -43 -12l1 -946q0 -62 -47 -98q-29 -22 -88 -42q-7 63 -46 89q-27 18 -140 48l4 44
q29 -4 110 -21q81 -11 90 -9q23 7 23 54v839q0 96 -9 160zM516 1711h632q-16 23 -26 59q-22 80 -111 157l16 27q187 -100 202 -173q7 -33 -21 -70h534l98 102l121 -107q20 -18 15 -33q-5 -19 -25 -19l-1445 -2v-511q0 -396 -67 -623q-86 -294 -285 -464l-27 27
q146 167 218 416q47 165 68 493q-79 -94 -93 -106q-71 -67 -98 -95l4 -46q3 -38 -15 -45q-17 -6 -42 23l-87 102q144 83 176 105q48 33 154 122l-1 576q0 21 -4 87q-1 23 -3 68zM108 1526q269 -177 245 -305q-11 -59 -56 -54q-38 4 -53 73q-18 84 -65 153q-21 31 -93 110z
" />
  </g>

</svg>
