<?xml version="1.0" standalone="no"?>
<!DOCTYPE svg PUBLIC "-//W3C//DTD SVG 1.1//EN" "http://www.w3.org/Graphics/SVG/1.1/DTD/svg11.dtd" >
<svg xmlns="http://www.w3.org/2000/svg" xmlns:xlink="http://www.w3.org/1999/xlink" version="1.1" viewBox="0 -205 1024 1024">
  <g transform="matrix(1 0 0 -1 0 819)">
   <path fill="currentColor"
d="M386 266l30 -32h344l27 31l40 -39q7 -6 5 -10q-1 -5 -11 -7l-18 -8v-83l6 -61q-3 -21 -46 -23v44h-338v-19q1 -27 -48 -36q5 29 8 64v138q-4 14 -22 30zM750 819l62 -34q11 -9 1 -13q-10 -1 -30 -8q-48 -57 -76 -81h93l28 36l60 -42q13 -5 11 -8q-1 -2 -17 -2h-303
q-22 -45 -45 -78l-8 -11h354l33 40l60 -46q8 -5 7 -8q-2 -2 -13 -2h-248q22 -22 49 -48q55 -50 106 -71q42 -17 115 -20l2 -18q-63 1 -64 -29q-108 32 -180 117q-36 39 -53 69h-180q-51 -66 -112 -108q-77 -52 -156 -71l-4 14q68 32 132 77q52 35 95 88h-132q-27 1 -45 -13
l-34 29h223q1 1 3 4q2 2 7 9q28 40 46 76h-168q-27 1 -45 -13l-34 29h254q11 22 17 43q18 62 13 72q-4 10 -13 19l6 10l78 -19q10 -10 -11 -15q-7 -4 -18 -13q-10 -51 -30 -97h96q29 36 46 63q34 48 13 65zM174 900l38 -39h682l33 41l68 -47q8 -6 7 -8q-2 -3 -13 -2h-765
v-243q4 -222 -38 -343q-42 -118 -160 -238l-8 14q93 112 134 227q29 88 33 241q-10 -8 -27 -22q-23 -20 -38 -31q-40 -30 -48 -63l-52 30l165 112v50q0 21 -1 39v221q0 20 -22 48zM425 94h338v124h-338v-124zM384 420h189v50q2 17 -25 42l8 11l78 -26q15 -5 7 -11
q-18 -4 -28 -18v-48h106l24 32l56 -38q8 -5 7 -8q-2 -2 -13 -2h-180v-74h190l32 40l60 -46q8 -5 7 -8q-2 -2 -13 -2h-504q-28 1 -46 -13l-34 29h268v74h-117q-27 1 -41 -13zM27 759l8 10q60 -32 85 -74q27 -41 20 -68q-6 -25 -24 -25q-17 0 -19 24q-1 26 -12 57
q-10 32 -58 76zM480 994l4 13q100 -29 119 -70q21 -48 -16 -54q-17 0 -22 22q-4 21 -20 40t-65 49zM347 797l5 14q113 -33 112 -86q0 -25 -19 -26t-23 17q-1 38 -75 81z" />
  </g>

</svg>
