<?xml version="1.0" standalone="no"?>
<!DOCTYPE svg PUBLIC "-//W3C//DTD SVG 1.1//EN" "http://www.w3.org/Graphics/SVG/1.1/DTD/svg11.dtd" >
<svg xmlns="http://www.w3.org/2000/svg" xmlns:xlink="http://www.w3.org/1999/xlink" version="1.1" viewBox="0 -205 1024 1024">
  <g transform="matrix(1 0 0 -1 0 819)">
   <path fill="currentColor"
d="M364 816l30 -32h435l23 27l36 -31q7 -6 5 -10q-1 -5 -11 -7l-12 -9v-162l6 -27q0 -31 -40 -31v22h-437q-2 -8 -7 -13q-8 -9 -32 -14v4q5 33 7 70v170q-3 22 -17 32zM646 445l25 -28h192l25 19l34 -17q7 -8 5 -12q-1 -4 -11 -5l-12 -9v-180l6 -38q1 -30 -38 -29v22h-195
q-1 -15 -7 -21q-6 -9 -32 -14q5 35 7 83v190q-3 22 -13 28zM310 429l16 -12h193l21 21l30 -19q7 -6 5 -10q-1 -5 -11 -7l-10 -9v-178l6 -38q0 -29 -38 -29v20h-187q-2 -14 -7 -19q-6 -9 -32 -14q5 35 7 75v196q1 14 -7 12zM173 915l37 -40h681l32 40l68 -44q8 -6 7 -8
q-2 -3 -13 -2h-766v-242q4 -230 -37 -356q-40 -124 -132 -227l-8 14q69 96 109 222q29 96 33 249q-21 -17 -48 -39q-13 -10 -16 -13q-40 -30 -48 -63l-52 26l164 113v51q0 21 -1 39v220q0 24 -22 48zM836 700h-435v-64h435v64zM401 712h435v58h-435v-58zM401 624v-51v-3h435
v54h-435zM872 325h-195v-66h195v66zM677 337h195v66h-195v-66zM872 247h-195v-65h195v65zM522 325h-187v-66h187v66zM335 337h187v66h-187v-66zM522 247h-187v-65h187v65zM679 524l6 13q232 -33 272 -74q38 -36 7 -48q-12 -2 -31 19q-18 23 -73 42q-54 21 -181 48zM482 549
l48 -33q7 -5 7 -9q0 -3 -7 -5q-20 2 -28 -1q-4 -1 -54 -17q-17 -6 -27 -9q-73 -24 -169 -38l-4 12q206 56 227 81q6 10 -1 11zM27 775l8 10q58 -32 83 -74t19 -67t-22 -25t-17 24t-12 56t-59 76zM712 145l47 -30q8 -12 -4 -15q-11 1 -25 -2q-64 -66 -138 -87l-4 10
q85 50 107 85q1 2 4 7q14 17 2 26zM478 999l4 13q103 -23 124 -61q24 -41 -12 -50q-14 0 -19 17q-4 17 -23 36q-19 20 -74 45zM360 151l43 -30q5 -5 5 -8q-1 -3 -7 -5q-11 1 -23 0q-70 -53 -150 -81l-4 14q58 31 80 47t34 27q26 19 11 32zM806 129l4 12q99 -31 122 -60
q37 -47 12 -60q-13 -6 -24 16q-10 22 -40 47t-74 45zM452 139l2 11q70 -21 97 -56q30 -46 4 -56q-15 -3 -19 14t-23 41t-61 46z" />
  </g>

</svg>
