<?xml version="1.0" standalone="no"?>
<!DOCTYPE svg PUBLIC "-//W3C//DTD SVG 1.1//EN" "http://www.w3.org/Graphics/SVG/1.1/DTD/svg11.dtd" >
<svg xmlns="http://www.w3.org/2000/svg" xmlns:xlink="http://www.w3.org/1999/xlink" version="1.1" viewBox="0 0 2048 2048">
  <g transform="matrix(1 0 0 -1 0 2048)">
   <path fill="currentColor"
d="M548 1334q-12 -2 -20 -1q-22 2 -71 77q-47 72 -212 161l16 34q153 -51 230 -94q99 -56 96 -128q121 166 205 389h-415q-64 0 -149 -11l-39 86q126 -18 188 -18h421l61 72l83 -59q27 -19 30 -34q5 -21 -25 -38l-12 -6q-14 -6 -39 -19q-74 -176 -140 -280
q-214 -338 -645 -534l-17 32q275 166 454 371zM1643 287q-50 59 -196 171l22 32q164 -88 245 -144q143 -100 159 -186q6 -36 -12 -61q-14 -20 -38 -20q-25 0 -43 22q-4 5 -36 57q-31 51 -67 91l-150 -16l-149 -15l-163 -15q-274 -24 -638 -46l-190 -11l-5 -32
q-6 -34 -26 -38q-18 -4 -45 50l-57 115l267 5q384 8 448 10v304h-428v-62q0 -27 -44 -31q-67 -5 -61 51l4 42q6 95 6 104l1 412l120 -58h402v180q0 117 -8 160l112 -24q82 -18 85 -44q4 -30 -49 -44l-42 -11v-217h414l68 76l82 -59q38 -28 36 -50q-1 -22 -72 -56v-276
q72 -52 72 -76q0 -17 -16 -17h-584v-300q38 1 97 4q236 10 479 23zM1500 963h-433v-348h433v348zM541 615h428v348h-428v-348zM1274 1615q121 110 253 276l91 -67q48 -35 38 -58q-6 -14 -23 -16q-10 -1 -26 1l-50 6q-99 -79 -259 -182q76 -115 148 -187q18 14 51 38
q119 85 251 226l86 -63q48 -35 38 -58q-6 -14 -23 -16q-11 -1 -26 1l-51 7q-170 -109 -288 -171q231 -211 504 -283l-4 -38q-70 1 -101 -20q-22 -15 -37 -48q-325 181 -486 383q-108 136 -164 278q-29 73 -91 267l37 16q95 -235 132 -292z" />
  </g>

</svg>
