<?xml version="1.0" standalone="no"?>
<!DOCTYPE svg PUBLIC "-//W3C//DTD SVG 1.1//EN" "http://www.w3.org/Graphics/SVG/1.1/DTD/svg11.dtd" >
<svg xmlns="http://www.w3.org/2000/svg" xmlns:xlink="http://www.w3.org/1999/xlink" version="1.1" viewBox="0 -205 1024 1024">
  <g transform="matrix(1 0 0 -1 0 819)">
   <path fill="currentColor"
d="M463 551l82 -32q14 -5 6 -11q-16 -4 -27 -18v-78h281l37 41l50 -47q7 -6 5 -10q-1 -5 -11 -7l-18 -9v-240l5 -76q3 -27 -49 -36v67h-644v-27q3 -36 -51 -44q5 37 7 110v264q-3 22 -20 38l12 13l42 -37h310v88q2 16 -25 40zM160 897l41 -35h174l27 42q31 47 31 60
q0 14 -8 29l8 7l76 -44q11 -10 1 -15q-15 1 -37 -7q-22 -25 -66 -72h366l37 39l50 -45q7 -6 5 -10q-1 -5 -11 -7l-18 -9v-191l5 -78q3 -22 -49 -32v43h-580v-13q0 -21 -42 -35l-9 -3q5 31 7 104v223q-3 22 -20 38zM792 712h-580v-122h580v122zM212 728h580v116h-580v-116z
M480 248h-300v-135h300v135zM824 248h-300v-135h300v135zM480 394h-300v-130h300v130zM524 264h300v130h-300v-130z" />
  </g>

</svg>
