<?xml version="1.0" standalone="no"?>
<!DOCTYPE svg PUBLIC "-//W3C//DTD SVG 1.1//EN" "http://www.w3.org/Graphics/SVG/1.1/DTD/svg11.dtd" >
<svg xmlns="http://www.w3.org/2000/svg" xmlns:xlink="http://www.w3.org/1999/xlink" version="1.1" viewBox="0 -205 1024 1024">
  <g transform="matrix(1 0 0 -1 0 819)">
   <path fill="currentColor"
d="M692 999l66 -32q11 -10 1 -15q-13 1 -27 -7q-33 -41 -63 -74h201l23 31l44 -39q7 -4 5 -7q-1 -4 -11 -6l-18 -9v-212l2 -33q1 -31 -38 -31v38h-291v-3q2 -36 -43 -44q5 38 7 84v218q-3 18 -17 34l14 11l30 -32h64l15 22q38 65 38 75q0 11 -12 20zM71 373h124v84h-57
q-27 1 -45 -13l-34 29h136v78q1 14 -17 32l-6 -3q-74 -37 -146 -49v14q118 39 224 125q99 83 170 195h-211q-16 -25 -36 -51l-1 -2q0 -1 -1 -2q33 -6 54 -15q49 -21 54 -59q3 -19 -13 -26t-26 16q-10 24 -27 40q-15 14 -54 30q-44 -54 -109 -101l-8 12q59 59 99 120
q42 62 57 97q17 35 18 42q3 7 -7 25l6 6l62 -35q9 -7 11 -11q1 -3 -6 -5q-19 3 -36 -15q-12 -24 -27 -50h196l25 30l46 -36q11 -14 -2 -17q-22 -2 -38 -28q-53 -80 -138 -157q-52 -47 -112 -80l54 -23q14 -5 6 -11q-16 -4 -27 -18v-401l76 10v427q2 16 -23 38l8 11l70 -30
q14 -5 6 -11q-16 -4 -27 -18v-95h54l26 34l60 -38q8 -6 7 -9q-2 -3 -13 -3h-134v-84h54l20 32l54 -36q8 -6 7 -9q-2 -3 -13 -3h-122v-88h54l22 30l56 -34q8 -6 7 -9q-2 -3 -13 -3h-126v-98l152 21l5 -15l-176 -30q-127 -24 -174 -35q-46 -11 -57 -38l-49 55l155 23v118h-57
q-27 1 -45 -13l-34 29h136v88h-45q-27 1 -45 -13zM894 483l62 -40q5 -8 3 -11q-3 -4 -13 -3q-18 2 -27 -4t-114 -68v-19q47 -17 77 -40q38 -28 50 -60q12 -31 -8 -38t-28 15q-8 24 -37 55q-19 22 -54 44v-188q-1 -50 60 -45q21 -1 34 -2q14 3 30 6q24 11 28 41q3 24 6 95h13
l2 -71q2 -29 21 -46q-23 -42 -74 -51q-7 -1 -10 -2q-42 1 -70 0q-74 5 -76 79v392q-4 23 -18 33l9 12l77 -31q4 -3 3 -5q0 -2 -4 -4q-13 -2 -31 -17v-130q51 38 67 52q32 26 12 43zM877 731h-291v-112h291v112zM586 745h291v110h-291v-110zM588 257q-64 -43 -62 -75l-50 37
l168 104q7 50 5 107v99q-4 20 -23 34l8 11l63 -28q11 -4 13 -7q2 -4 -5 -8q-14 -5 -20 -14v-88q5 -172 -55 -267q-59 -94 -176 -144l-6 14q105 61 156 158q26 48 36 108zM510 483q63 -17 99 -59q38 -51 5 -67q-18 -6 -24 18q-4 24 -30 51q-24 28 -54 43z" />
  </g>

</svg>
