<?xml version="1.0" standalone="no"?>
<!DOCTYPE svg PUBLIC "-//W3C//DTD SVG 1.1//EN" "http://www.w3.org/Graphics/SVG/1.1/DTD/svg11.dtd" >
<svg xmlns="http://www.w3.org/2000/svg" xmlns:xlink="http://www.w3.org/1999/xlink" version="1.1" viewBox="0 0 2048 2048">
  <g transform="matrix(1 0 0 -1 0 2048)">
   <path fill="currentColor"
d="M1380 1729l110 -61q39 -22 33 -40q-5 -18 -53 -20l-41 -1q-18 -18 -26 -28q-91 -98 -194 -163l-20 22q56 65 109 142q45 64 63 107q11 26 19 42zM573 1728q12 -6 57 -26q182 -83 209 -169q15 -49 -12 -76q-11 -12 -24 -14q-30 -5 -49 36q-52 115 -200 214zM93 886l-38 88
q94 -24 230 -24h690v168h-435q-118 0 -192 -8l-38 88q100 -23 230 -23h435v171h-524v-15q0 -27 -45 -31q-66 -5 -60 51l4 42q6 96 6 104v411l117 -62h1120l61 72l72 -50q37 -25 42 -43q5 -20 -25 -38q-6 -3 -13 -6q-9 -5 -26 -15l-4 -269q-1 -41 6 -104q3 -26 3 -44
q0 -42 -56 -49q-42 -5 -44 23l-1 23h-535v-171h491l97 95l122 -101q20 -16 16 -32q-6 -19 -26 -19h-700v-168h667l99 101l120 -106q19 -17 16 -33q-4 -18 -26 -18h-1664q-117 0 -192 -8zM1073 1400h535v388h-535v-388zM975 1400v388h-524v-388h524zM410 856
q-60 -294 -206 -301q-25 -1 -43 16q-13 13 -12 29q2 30 32 47l41 24q53 31 92 82q23 30 59 115zM679 852l28 25q150 -137 150 -214q0 -62 -53 -65q-31 -1 -41 26q-2 5 -11 63q-11 69 -73 165zM1203 843l26 25q148 -90 164 -163q13 -61 -35 -78q-31 -11 -43 16q-3 5 -20 59
q-19 60 -92 141zM1657 841l23 27q73 -29 144 -81q105 -75 105 -149q0 -30 -16 -47q-21 -22 -47 -17q-27 4 -46 60q-32 96 -163 207zM490 529h1064l61 72l72 -50q37 -25 41 -43q5 -20 -25 -37q-6 -4 -12 -7q-10 -5 -27 -15v-246h95l98 101l121 -107q20 -18 16 -33
q-6 -18 -26 -18h-1675q-122 0 -192 -8l-38 87q93 -22 230 -22h87v197q0 78 -11 198zM1256 203h315v270h-315v-270zM874 203h290v270h-290v-270zM477 203h301v266l-301 4v-270z" />
  </g>

</svg>
