<?xml version="1.0" standalone="no"?>
<!DOCTYPE svg PUBLIC "-//W3C//DTD SVG 1.1//EN" "http://www.w3.org/Graphics/SVG/1.1/DTD/svg11.dtd" >
<svg xmlns="http://www.w3.org/2000/svg" xmlns:xlink="http://www.w3.org/1999/xlink" version="1.1" viewBox="0 0 2048 2048">
  <g transform="matrix(1 0 0 -1 0 2048)">
   <path fill="currentColor"
d="M1424 483q242 -237 550 -308l-2 -35q-18 1 -26 1q-84 0 -129 -71q-184 107 -292 194q-69 57 -159 154q-159 -137 -294 -206q-143 -73 -372 -137l-12 37q402 149 621 376q-119 160 -189 321q-42 98 -100 277q-28 -2 -72 -7l-40 86q117 -19 188 -19l220 -1v387h-247
q-117 0 -192 -8l-38 88q96 -23 230 -23h247v195q0 123 -9 160l109 -24q83 -18 86 -43q3 -29 -50 -44l-41 -12v-232h326l98 102l121 -107q20 -18 16 -33q-6 -19 -26 -19h-535v-387h264l70 82l103 -78q25 -19 25 -38q0 -32 -67 -48q-100 -212 -167 -318q-86 -135 -215 -262z
M1366 545q218 236 332 543l-602 1l-28 -1q122 -344 298 -543zM613 370h-358v-56q0 -55 -60 -55q-46 0 -46 50q0 7 3 46q1 17 2 70l2 58q3 61 3 83v1156q-3 61 -11 125l113 -79h338l64 77l74 -47q53 -35 45 -61q-7 -25 -74 -56v-1115q0 -91 7 -181q2 -27 2 -69q0 -53 -58 -53
q-46 0 -46 51v56zM255 426h358v401h-358v-401zM255 881h358v398h-358v-398zM255 1333h358v377h-358v-377z" />
  </g>

</svg>
