<?xml version="1.0" standalone="no"?>
<!DOCTYPE svg PUBLIC "-//W3C//DTD SVG 1.1//EN" "http://www.w3.org/Graphics/SVG/1.1/DTD/svg11.dtd" >
<svg xmlns="http://www.w3.org/2000/svg" xmlns:xlink="http://www.w3.org/1999/xlink" version="1.1" viewBox="0 0 2048 2048">
  <g transform="matrix(1 0 0 -1 0 2048)">
   <path fill="currentColor"
d="M1157 821q37 16 54 23q301 129 473 337l114 -104q21 -19 16 -34q-8 -21 -41 -16l-59 8q-267 -187 -532 -249q101 -139 224 -237q204 -161 576 -252v-39q-19 1 -39 1q-64 0 -95 -69q-204 84 -308 149q-204 127 -345 319q-52 70 -126 203l-1 -623q0 -142 -158 -172
q-2 67 -44 94q-32 21 -159 43l8 46q135 -22 190 -26q68 -6 68 57v849q0 118 -7 160l109 -24q82 -18 85 -43q4 -30 -49 -44l-42 -11l2 -205q50 -86 86 -141zM179 907l-39 86q122 -18 188 -18h351l60 74l68 -49q52 -37 46 -61q-4 -18 -71 -44q-99 -181 -147 -248
q-187 -259 -541 -440l-17 36q429 276 607 675h-356q-64 0 -149 -11zM358 1847h1341l69 76l83 -54q40 -26 40 -49q0 -27 -77 -61l-1 -421q0 -48 -60 -48q-38 0 -38 22v33h-1369v-24q0 -37 -54 -37q-32 0 -41 18q-3 5 -3 38l1 421q0 73 -10 155zM1212 1790h-383v-384h383v384z
M730 1790h-384v-384h384v384zM1312 1790v-384h403v384h-403z" />
  </g>

</svg>
