<?xml version="1.0" standalone="no"?>
<!DOCTYPE svg PUBLIC "-//W3C//DTD SVG 1.1//EN" "http://www.w3.org/Graphics/SVG/1.1/DTD/svg11.dtd" >
<svg xmlns="http://www.w3.org/2000/svg" xmlns:xlink="http://www.w3.org/1999/xlink" version="1.1" viewBox="0 -205 1024 1024">
  <g transform="matrix(1 0 0 -1 0 819)">
   <path fill="currentColor"
d="M84 967l39 -48h151l35 41l50 -49q7 -6 5 -10q-1 -5 -11 -7l-18 -10v-594l4 -112q2 -23 -10 -30q-11 -9 -38 -12v70h-160v-63q1 -19 -13 -32q-12 -9 -38 -15q4 39 7 158v659q-6 24 -18 42zM848 434l88 -36q14 -5 6 -11q-21 -10 -31 -22v-218l5 -72q0 -21 -14 -31
q-15 -9 -33 -15v73h-368l-35 -44l-50 42q25 23 30 45v260q-2 16 -23 37l7 9l83 -36q16 -6 7 -12q-20 -4 -32 -18v-263h166v407h-200q-27 0 -45 -13l-35 33h280v209h-161q-27 0 -45 -13l-34 33h240v165q2 15 -28 42l8 11l89 -34q14 -5 6 -11q-20 -6 -29 -18v-155h142l32 40
l69 -50q7 -5 6 -8q-1 -2 -12 -2h-237v-209h191l33 40l68 -50q7 -5 6 -8q-1 -2 -12 -2h-286v-407h169v253q2 17 -30 47zM131 451v-225h160v225h-160zM131 676v-209h160v209h-160zM291 899h-160v-207h160v207z" />
  </g>

</svg>
