<?xml version="1.0" standalone="no"?>
<!DOCTYPE svg PUBLIC "-//W3C//DTD SVG 1.1//EN" "http://www.w3.org/Graphics/SVG/1.1/DTD/svg11.dtd" >
<svg xmlns="http://www.w3.org/2000/svg" xmlns:xlink="http://www.w3.org/1999/xlink" version="1.1" viewBox="0 -205 1024 1024">
  <g transform="matrix(1 0 0 -1 0 819)">
   <path fill="currentColor"
d="M223 528l40 -37h473l37 41l48 -49q7 -5 5 -9q-1 -4 -11 -6l-18 -9v-309l5 -77q4 -28 -47 -36v67h-482v-29q2 -35 -49 -44q5 37 7 112v334q-3 22 -20 40zM273 361h482v112h-482v-112zM755 345h-482v-106h482v106zM755 223h-482v-101h482v101zM576 984l87 -36q14 -5 6 -11
q-21 -7 -30 -21v-58h228l32 42l68 -48q8 -6 7 -9q-2 -3 -13 -3h-322v-94h192l32 44l68 -52q8 -4 7 -6q-2 -2 -13 -2h-286v-100h232l32 40l68 -46q8 -6 7 -9q-2 -3 -13 -3h-326v-48q3 -36 -49 -44q5 38 7 120v286q2 16 -30 46zM65 859h328v67q2 16 -30 46l9 12l87 -36
q14 -5 6 -11q-21 -7 -30 -21v-277l4 -79q1 -34 -46 -46v99h-249q-27 1 -45 -13l-34 31h328v96h-201q-27 1 -45 -13l-34 29h280v98h-249q-27 1 -45 -13z" />
  </g>

</svg>
