<?xml version="1.0" standalone="no"?>
<!DOCTYPE svg PUBLIC "-//W3C//DTD SVG 1.1//EN" "http://www.w3.org/Graphics/SVG/1.1/DTD/svg11.dtd" >
<svg xmlns="http://www.w3.org/2000/svg" xmlns:xlink="http://www.w3.org/1999/xlink" version="1.1" viewBox="0 0 2048 2048">
  <g transform="matrix(1 0 0 -1 0 2048)">
   <path fill="currentColor"
d="M1163 1399q56 151 89 341h-267q-64 0 -149 -11l-39 86q115 -18 188 -18h771l97 102l120 -107q21 -18 16 -34q-6 -18 -26 -18h-595q-71 -214 -153 -341h541l62 72l72 -49q37 -25 41 -44q5 -20 -25 -37q-6 -4 -12 -7q-9 -4 -27 -14v-981q0 -89 5 -125q4 -43 4 -72
q0 -56 -66 -56q-38 0 -38 26v94h-799v-79q0 -45 -62 -39q-49 5 -45 57q2 29 4 64q2 68 3 80q4 49 4 58v1002q-3 72 -11 134l123 -84h174zM973 262h194v1079h-194v-1079zM1259 262h211v335h-211v-335zM1566 262h206v1079h-206v-1079zM1259 653h211v318h-211v-318zM1259 1025
h211v316h-211v-316zM258 1726h330l64 76l84 -54q49 -32 46 -51q-3 -23 -85 -59v-1067l2 -65q3 -93 6 -118q3 -41 2 -69q-3 -50 -55 -54q-50 -3 -50 51v52h-351v-56q0 -54 -59 -54q-46 0 -46 50q0 5 2 45q2 17 3 71q1 25 2 58q3 59 3 82v1116q-3 83 -16 131zM251 1668v-357
h351v357h-351zM251 1254v-377h351v377h-351zM251 822v-397h351v397h-351z" />
  </g>

</svg>
