<?xml version="1.0" standalone="no"?>
<!DOCTYPE svg PUBLIC "-//W3C//DTD SVG 1.1//EN" "http://www.w3.org/Graphics/SVG/1.1/DTD/svg11.dtd" >
<svg xmlns="http://www.w3.org/2000/svg" xmlns:xlink="http://www.w3.org/1999/xlink" version="1.1" viewBox="0 -449 2048 2048">
  <g transform="matrix(1 0 0 -1 0 1599)">
   <path fill="currentColor"
d="M1017 961l621 -1v209h-689q-68 0 -149 -11l-39 86q124 -18 188 -18h689v197h-625q-69 0 -149 -11l-39 86q127 -18 188 -17l168 1v298q0 118 -8 160l109 -24q83 -19 86 -44q3 -30 -50 -44l-42 -11v-92h366l98 102l121 -107q20 -18 16 -34q-6 -18 -26 -18h-575v-186h348
l61 71l72 -48q37 -25 42 -45q5 -21 -28 -39q-1 -1 -24 -12q-7 -4 -15 -7v-176h42l98 102l121 -107q20 -18 16 -33q-6 -19 -26 -19h-251v-192l38 -29q16 -13 11 -30q-4 -14 -20 -14h-449v-255h328l98 102l121 -107q20 -18 15 -33q-6 -19 -26 -19h-536v-357q118 -15 222 -15
q139 0 244 10q49 5 204 32l4 -42q-45 -9 -65 -27q-22 -19 -26 -63q-127 -9 -266 -9q-363 0 -517 99q-77 50 -143 153q-17 27 -54 93q-49 -119 -100 -187q-98 -130 -262 -218l-22 34q126 93 188 178q139 187 162 530l113 -25q38 -8 52 -15q15 -8 15 -27q0 -25 -47 -38
l-41 -11l-16 -72l-18 -75q56 -112 112 -172q61 -64 166 -114v650h-200q-70 0 -149 -11l-39 86q125 -17 188 -18zM250 1716h296l68 77l84 -55q49 -31 46 -51q-2 -19 -31 -34q-8 -5 -54 -25v-1095l2 -64q3 -92 5 -117q4 -41 2 -69q-2 -49 -54 -53q-22 -2 -38 8q-12 7 -12 43
v33h-317v-33q0 -55 -59 -55q-46 0 -46 50q0 6 2 46q2 16 3 70q1 26 2 58q3 59 3 83v1135q-3 84 -16 136zM247 1659v-380h317v380h-317zM247 1223v-374h317v374h-317zM247 793v-422h317v422h-317z" />
  </g>

</svg>
