<?xml version="1.0" standalone="no"?>
<!DOCTYPE svg PUBLIC "-//W3C//DTD SVG 1.1//EN" "http://www.w3.org/Graphics/SVG/1.1/DTD/svg11.dtd" >
<svg xmlns="http://www.w3.org/2000/svg" xmlns:xlink="http://www.w3.org/1999/xlink" version="1.1" viewBox="0 -205 1024 1024">
  <g transform="matrix(1 0 0 -1 0 819)">
   <path fill="currentColor"
d="M75 929l38 -48h151l35 41l48 -49q7 -6 5 -10q-1 -5 -11 -7l-18 -9v-596l4 -99q6 -38 -46 -42v86h-160v19h160v208h-161v-314q1 -35 -49 -46q5 39 7 164v648q-4 24 -18 42zM404 905l45 -40q95 11 190 30q105 22 151 35q46 14 61 21q16 9 13 29l8 3l76 -54q5 -6 4 -10
q-2 -3 -11 -4q-33 10 -72 -2q-135 -32 -213 -44q-73 -12 -198 -23v-203q6 -274 -25 -405q-31 -129 -145 -220l-6 16q96 106 117 223q21 120 19 366v222q-4 24 -26 48zM696 866l70 -18q14 -5 6 -11q-16 -4 -27 -18v-45h100l28 36l62 -42q8 -6 7 -9q-2 -3 -13 -3h-184v-79h163
l21 27l49 -44q3 -6 1 -8q-2 -3 -9 -2q-30 -7 -55 -38q-12 -14 -20 -23l-13 6l26 62h-336v-174q6 -136 -21 -247q-27 -108 -145 -214l-8 12q78 90 110 189q32 102 28 276v162q-12 32 -28 44l14 12l40 -40h145v152q2 16 -19 26zM281 647h-161v-208h161v208zM120 663h161v198
h-161v-198zM643 361l35 -26h120l27 25l37 -37q8 -9 -9 -14l-13 -10v-175q0 -38 22 -38q48 -6 60 4t15 56l3 71l13 2l5 -61q2 -49 20 -60q-10 -28 -33 -38q-22 -10 -101 -4q-37 12 -40 67v194h-118v-42q2 -176 -170 -245l-4 14q146 88 140 237v47q-7 17 -18 29zM772 599
q4 -6 3 -8q0 -3 -4 -1q-16 -4 -27 -17v-41l85 12l14 33l58 -27q11 -5 9 -8q-3 -4 -19 -6l-147 -21v-39q-5 -56 53 -54q33 0 31 1q16 -1 44 3q30 8 32 34q5 38 6 58h13v-24q3 -49 21 -55q-13 -31 -48 -37q-16 -4 -58 -7q-38 0 -64 2q-66 1 -64 79v34l-25 -3q-33 -11 -43 -26
l-41 30l109 16v50q-2 24 -23 36l7 12z" />
  </g>

</svg>
