<?xml version="1.0" standalone="no"?>
<!DOCTYPE svg PUBLIC "-//W3C//DTD SVG 1.1//EN" "http://www.w3.org/Graphics/SVG/1.1/DTD/svg11.dtd" >
<svg xmlns="http://www.w3.org/2000/svg" xmlns:xlink="http://www.w3.org/1999/xlink" version="1.1" viewBox="0 0 2048 2048">
  <g transform="matrix(1 0 0 -1 0 2048)">
   <path fill="currentColor"
d="M1242 1172h2l-2 -4v-315q0 -45 -69 -39q-42 3 -39 52l4 55q8 133 8 142l1 53h-228q-1 -1 -3 -2q-25 -14 -54 -14q-24 0 -24 25v484l121 -67h189v229h-141q-119 0 -189 -7l-41 88q89 -23 234 -23h702l96 97l126 -97q12 -9 17 -23q10 -35 -25 -35h-398v-229h212l68 77
l84 -55q40 -26 40 -49q0 -26 -68 -56v-275l41 -32q16 -13 3 -27q-9 -9 -20 -9h-360v-35q0 -79 7 -139q5 -44 4 -69q-2 -38 -56 -41q-52 -3 -52 32v909l-190 -2v-599zM1148 1486h-215v-314h214zM1529 1486v-314h238v314h-238zM1281 820l109 -25q82 -18 85 -43q3 -29 -49 -44
l-40 -11l1 -141h292l89 99l121 -107q20 -17 15 -33q-4 -16 -27 -16h-490v-298h374l98 102l121 -107q20 -18 15 -33q-6 -18 -26 -18h-1080q-68 0 -154 -12l-39 85q120 -17 187 -17h406v298h-293q-69 0 -149 -10l-39 86q116 -19 188 -19h293v104q0 115 -8 160zM261 1745h281
l64 76l84 -54q49 -32 46 -51q-3 -23 -86 -59v-1067l3 -64q3 -94 5 -118q4 -42 2 -70q-2 -50 -54 -54q-50 -3 -50 51v52h-302v-56q0 -54 -59 -54q-46 0 -46 50q0 5 2 46q2 16 3 70q1 26 2 58q3 59 3 83v1115q-3 83 -16 132zM254 1688v-358h302v358h-302zM254 1274v-378h302
v378h-302zM254 841v-397h302v397h-302z" />
  </g>

</svg>
