<?xml version="1.0" standalone="no"?>
<!DOCTYPE svg PUBLIC "-//W3C//DTD SVG 1.1//EN" "http://www.w3.org/Graphics/SVG/1.1/DTD/svg11.dtd" >
<svg xmlns="http://www.w3.org/2000/svg" xmlns:xlink="http://www.w3.org/1999/xlink" version="1.1" viewBox="0 0 2048 2048">
  <g transform="matrix(1 0 0 -1 0 2048)">
   <path fill="currentColor"
d="M1481 1538h-603v-475q0 -283 -42 -475q-57 -257 -269 -462l-25 23q142 194 184 344q57 200 57 565l1 418q0 25 -4 82q-2 28 -8 111l114 -73h594q-1 57 -2 174q0 25 -7 188l132 -29q51 -12 55 -33q5 -23 -33 -39l-54 -23q-3 -149 -3 -238h185l92 94l109 -83q32 -25 31 -44
q-1 -25 -27 -25h-389q9 -498 88 -864q104 316 129 674l135 -38q28 -8 29 -30q1 -21 -23 -29l-53 -15q-48 -378 -177 -698q10 -27 15 -40q72 -197 101 -194q16 1 42 79l72 217l30 -14l-45 -241q-5 -28 -7 -64q-3 -67 24 -157q6 -22 0 -40q-8 -22 -29 -23q-69 -3 -171 170
q-44 76 -92 192q-132 -208 -268 -334l-23 27q177 218 253 404q-8 36 -35 147q-78 323 -82 828zM264 1730h224l68 73l84 -52q49 -30 46 -49q-3 -23 -85 -57v-1104l2 -61q3 -89 5 -112q4 -40 2 -67q-2 -50 -58 -50q-46 0 -46 48v61h-248v-53q0 -52 -56 -52q-50 0 -50 47
q0 6 2 44q2 16 3 68q1 23 2 55q3 56 3 79v1138q-3 81 -16 128zM258 1675v-364h248v364h-248zM258 1257v-380h248v380h-248zM258 824v-409h248v409h-248zM939 803l118 -34q29 -8 25 -30q-2 -14 -21 -21l-44 -13q-13 -34 -19 -52q-79 -216 -184 -360l-31 14q121 211 156 496z
M1089 944v366q0 120 -7 160l105 -24q81 -19 85 -44q6 -29 -49 -44l-42 -11v-148h66l80 80l97 -80q25 -21 21 -38q-4 -19 -25 -19h-239v-198h98l76 78l97 -76q27 -21 25 -40q-2 -20 -23 -20h-243v-614q0 -118 -151 -146q-9 57 -32 75t-108 35l10 40q42 -6 63 -10q38 -8 54 -9
q70 -5 70 47l2 581h-91q-43 0 -106 -9l-33 87q75 -17 140 -18zM1706 1922q67 -28 103 -48q77 -41 85 -96q3 -21 -9 -38q-11 -16 -30 -17q-28 -1 -47 39q-33 72 -121 134zM1308 768q188 -208 188 -314q0 -58 -48 -63q-32 -3 -45 33q-3 9 -13 62q-25 128 -112 254z" />
  </g>

</svg>
