<?xml version="1.0" standalone="no"?>
<!DOCTYPE svg PUBLIC "-//W3C//DTD SVG 1.1//EN" "http://www.w3.org/Graphics/SVG/1.1/DTD/svg11.dtd" >
<svg xmlns="http://www.w3.org/2000/svg" xmlns:xlink="http://www.w3.org/1999/xlink" version="1.1" viewBox="0 -205 1024 1024">
  <g transform="matrix(1 0 0 -1 0 819)">
   <path fill="currentColor"
d="M388 657l91 -13q8 -3 8 -7q0 -2 -17 -8q-11 -4 -12 -5q11 -30 39 -60l322 16l29 33l82 -38q10 -3 10 -6t-20 -3l-404 -20q37 -33 100 -67q159 35 154 77l7 2l71 -45q9 -8 9 -11q0 -5 -9 -5q-9 4 -24 4q-28 0 -111 -30q-32 -11 -47 -16q104 -47 181 -48q51 -3 57 32l14 73
l17 -3q-3 -32 -3 -53q0 -34 23 -57q10 -10 10 -16q-2 -15 -92 -16q-52 0 -98 10l53 -35q6 -3 6 -5q0 -4 -12 -5l-20 -7v-204l5 -77q-3 -17 -42 -25q-6 -1 -9 -2v40h-471v-10q4 -25 -54 -33q0 6 2 22q6 49 6 86v215q-4 18 -21 30l12 8l37 -21h471l32 21q-85 22 -165 64
q-192 -51 -480 -57l-1 13q234 22 438 70q-51 33 -95 78l-310 -15q-34 -6 -44 -16l-41 32l379 18q-12 14 -28 44q-19 36 -35 46v5zM178 848l43 -48h586l31 31l46 -37q6 -3 6 -6q0 -4 -12 -7l-18 -9l3 -100q-5 -29 -45 -29v22h-590q-4 -25 -50 -36q-1 10 3 43q3 28 4 44v81
q0 16 -19 35zM285 154v-79h471v79h-471zM285 248v-78h471v78h-471zM614 1012l88 -36q6 -2 6 -5q1 -3 -2 -6l-10 -7q-13 -8 -19 -14v-41h201l33 41l68 -48q6 -5 6 -8t-12 -3h-296l4 -32q2 -38 -53 -44q0 15 5 61q1 10 2 15h-225l4 -30q3 -36 -53 -44q-1 5 4 51q2 16 3 23
h-252q-28 0 -45 -13l-34 31h331v52q0 17 -30 45l9 12l88 -36q6 -2 7 -5q0 -4 -3 -6l-10 -7q-13 -8 -19 -14v-41h225v52q0 17 -30 45zM756 336h-471v-72h471v72zM434 782v-100h180v100h-180zM227 782v-100h171v100h-171zM818 782h-168v-100h168v100zM599 652l3 9
q112 -22 111 -64q-1 -20 -22 -21q-14 0 -20 16q-8 33 -72 60z" />
  </g>

</svg>
