<?xml version="1.0" standalone="no"?>
<!DOCTYPE svg PUBLIC "-//W3C//DTD SVG 1.1//EN" "http://www.w3.org/Graphics/SVG/1.1/DTD/svg11.dtd" >
<svg xmlns="http://www.w3.org/2000/svg" xmlns:xlink="http://www.w3.org/1999/xlink" version="1.1" viewBox="0 -200 1000 1000">
  <g transform="matrix(1 0 0 -1 0 800)">
   <path fill="currentColor"
d="M340 880v-265q-8 -7 -22.5 -10.5t-22.5 -5.5v37h-146v-28q-8 -5 -21.5 -11.5t-27.5 -9.5v371l57 -36h128l31 40l51 -51zM158 899l-9 -33v-77h146v110h-137zM149 768v-111h146v111h-146zM172 94q57 -15 75 -15q6 0 8 2q5 4 6 18.5t1 28.5v217h-162l-39 -11l-17 34h218v121
h-136l-41 -13l-15 35h236l31 43l48 -65h-75v-121h17l33 47l48 -70h-98v-250q0 -19 -2.5 -32t-8.5 -23.5t-16.5 -19.5t-26.5 -20q-7 29 -27 47t-57 34v13zM117 307q48 -38 68.5 -65.5t20.5 -48.5q0 -23 -23 -41q-8 -5 -12 -5q-12 0 -20 41q-6 29 -16 56t-24 55zM820 919h-96
l-50 35v-856l-79 -41l51 -45q18 17 39 36.5t43.5 39t44.5 39t42 36.5q17 -46 42 -85t60 -68q15 -5 16 -5q17 0 17 18q0 2 -0.5 3.5t-0.5 3.5q-2 7 -3.5 11t-4 9t-6 13.5t-9.5 23.5q1 17 2 39t2.5 45.5t3.5 46.5t5 43l-9 3q-11 -66 -16.5 -107t-10.5 -41q-23 0 -45.5 66.5
t-35.5 195.5h111l-48 61l-32 -40h-33q-5 19 -6 48.5t-1 61.5q0 30 0.5 58t0.5 49h60v260l26 43l-50 42zM420 959v-869q17 2 27 7t18 18l-1 57h100v-60q17 2 25.5 6t20.5 21v730l32 36l-53 50l-34 -41h-79zM718 638v243l6 14h108v-257h-114zM464 420h100v-226h-100v226z
M476 890h88v-216h-100v165zM464 652h100v-209h-100v209zM718 377l62 1q10 -119 33 -204l-95 -54v257zM718 616h53q1 -32 1.5 -66t1 -63.5t1 -53t2.5 -34.5h-59v217z" />
  </g>

</svg>
