<?xml version="1.0" standalone="no"?>
<!DOCTYPE svg PUBLIC "-//W3C//DTD SVG 1.1//EN" "http://www.w3.org/Graphics/SVG/1.1/DTD/svg11.dtd" >
<svg xmlns="http://www.w3.org/2000/svg" xmlns:xlink="http://www.w3.org/1999/xlink" version="1.1" viewBox="0 0 2048 2048">
  <g transform="matrix(1 0 0 -1 0 2048)">
   <path fill="currentColor"
d="M1558 710v-21q0 -7 3 -72q3 -53 -48 -53q-52 0 -52 48v145q0 115 -8 160l109 -24q83 -19 86 -44q3 -29 -50 -44l-40 -11v-29h167l81 80l99 -86q23 -20 15 -37q-5 -11 -25 -11zM1088 765q-3 121 -8 148l109 -24q83 -19 86 -44q3 -29 -50 -44l-40 -11v-104q0 -9 3 -73
q4 -53 -48 -53t-52 48v103h-132q-64 0 -143 -7l-16 -2l-41 87q117 -24 220 -24h112zM942 961v-18q0 -27 -44 -30q-65 -6 -61 50q1 14 4 42q4 35 4 55l-1 58l2 262l110 -54h811l61 72l73 -50q42 -29 44 -46q2 -21 -68 -55l-1 -140q0 -46 7 -104q3 -27 3 -44q0 -44 -57 -49
q-51 -4 -51 19v32h-836zM1778 1178v92h-836v-92h836zM1778 1122h-836v-103h836v103zM1199 1974q76 -33 102 -45q84 -42 91 -96q3 -28 -28 -51h360l91 92l109 -100q21 -19 15 -36q-4 -12 -22 -12h-929q-56 0 -159 -9l-41 86q122 -21 219 -21h310q-39 82 -140 161zM988 1694
l125 -53h477l50 65l63 -40q42 -27 44 -44t-20 -30l-30 -16v-109l44 -33q16 -12 11 -28q-3 -14 -17 -14h-648l-1 -13q-2 -28 -45 -30q-61 -4 -57 43q5 47 5 65l-1 44v193zM1087 1446h512v143h-512v-143zM261 1724h307l64 76l84 -54q49 -32 46 -51q-3 -23 -85 -59v-1107
q0 -91 7 -180q3 -28 3 -70q0 -49 -55 -53q-50 -4 -50 51v44h-328v-56q0 -51 -52 -54q-53 -3 -53 50q0 5 2 46q2 16 3 70q1 26 2 58q3 59 3 83v1160q-3 84 -16 134zM254 1227v-397h328v397h-328zM254 775v-397h328l1 396zM254 1667v-384h328v384h-328zM1277 329v148h-190
q-110 0 -159 -10l-41 88q116 -24 220 -24h510l84 78l91 -78q27 -21 25 -38q-3 -16 -25 -16h-417v-148h381l86 80l101 -86q17 -14 15 -30q-3 -20 -26 -20h-557l-1 -79q-1 -36 4 -72q4 -35 4 -41q0 -38 -53 -44q-54 -6 -53 48l1 188h-331q-50 0 -159 -8l-41 86
q119 -22 219 -22h312z" />
  </g>

</svg>
