<?xml version="1.0" standalone="no"?>
<!DOCTYPE svg PUBLIC "-//W3C//DTD SVG 1.1//EN" "http://www.w3.org/Graphics/SVG/1.1/DTD/svg11.dtd" >
<svg xmlns="http://www.w3.org/2000/svg" xmlns:xlink="http://www.w3.org/1999/xlink" version="1.1" viewBox="0 0 2048 2048">
  <g transform="matrix(1 0 0 -1 0 2048)">
   <path fill="currentColor"
d="M1434 473q-158 -177 -352 -286q-101 -57 -245 -119l-23 42q352 165 567 435q-102 160 -147 292q-50 145 -80 325l49 10q74 -318 237 -539q131 223 167 526q13 110 20 259h-400q-80 -222 -216 -410l-35 24q202 346 242 903l134 -35q58 -16 55 -46q-3 -22 -39 -29l-48 -8
q-6 -36 -21 -123q-11 -64 -53 -219h457l98 102l121 -107q20 -18 15 -33q-5 -19 -25 -19h-191q0 -53 -8 -169q-15 -212 -68 -384q-37 -120 -148 -306q128 -156 281 -262q90 -62 179 -83l-1 -29q-62 -15 -86 -30q-22 -13 -43 -52q-203 125 -393 370zM525 760q154 -94 213 -140
q193 -149 193 -254q0 -65 -56 -65q-34 0 -57 53q-51 121 -132 213q-49 56 -170 152q-88 -365 -395 -619l-26 29q202 215 281 443q65 189 75 426h-163q-70 -1 -148 -11l-40 86q126 -18 188 -18h166l1 496h-151q-82 -188 -197 -315l-27 26q190 300 243 709l111 -34
q71 -22 73 -54q1 -30 -68 -38l-31 -3q-25 -82 -82 -233h337l99 101l120 -107q21 -18 16 -33q-6 -19 -26 -19h-321v-496h140l98 102l121 -107q20 -18 15 -34q-5 -18 -25 -18h-349q-9 -148 -26 -238z" />
  </g>

</svg>
