<?xml version="1.0" standalone="no"?>
<!DOCTYPE svg PUBLIC "-//W3C//DTD SVG 1.1//EN" "http://www.w3.org/Graphics/SVG/1.1/DTD/svg11.dtd" >
<svg xmlns="http://www.w3.org/2000/svg" xmlns:xlink="http://www.w3.org/1999/xlink" version="1.1" viewBox="0 0 2048 2048">
  <g transform="matrix(1 0 0 -1 0 2048)">
   <path fill="currentColor"
d="M1211 1615h-101q-116 0 -192 -8l-34 87q105 -21 226 -21h123q47 133 67 273l133 -32q45 -11 45 -34q0 -20 -43 -32l-44 -12q-26 -85 -56 -163h387l98 101l121 -107q20 -18 16 -33q-6 -19 -26 -19h-376q97 -193 212 -293q88 -78 209 -128l-11 -35q-21 2 -36 2
q-58 0 -101 -51q-103 85 -188 215q-58 88 -143 290h-186q-66 -159 -161 -283q-89 -118 -295 -262l-21 26q260 218 377 519zM1276 907l-94 -237h460l64 68l52 -38q59 -44 53 -68q-4 -16 -30 -31l-35 -19q-31 -318 -86 -402q-57 -88 -209 -121q0 32 -5 46q-15 39 -89 66
l-129 47l11 41l74 -22q124 -39 164 -42q76 -7 107 61q38 83 65 357h-505q-26 -9 -47 -8q-44 2 -27 44q4 12 15 31q11 20 24 54l65 173h-57q-117 0 -192 -8l-35 87q104 -21 227 -22l536 -1l83 80l116 -88q20 -15 15 -33q-4 -16 -13 -16l-10 1h-568zM1153 1190l-37 85
q122 -17 227 -17h105l80 81l114 -86q20 -15 15 -33q-4 -18 -25 -18h-289q-102 0 -190 -12zM474 1707q-45 -276 -148 -530l54 -30h259l61 73l72 -49q39 -27 39 -48q0 -25 -68 -58v-708l40 -29q29 -21 26 -38q-3 -19 -26 -19h-426v-69q0 -44 -73 -44q-29 0 -29 33q0 5 4 112
l4 82v634q-69 -139 -173 -277l-30 20q88 167 176 394q84 217 136 551h-109q-67 0 -149 -11l-39 86q121 -18 188 -18h375l99 102l120 -107q21 -18 16 -33q-6 -19 -26 -19h-373zM357 328h293v763h-293v-763z" />
  </g>

</svg>
