<?xml version="1.0" standalone="no"?>
<!DOCTYPE svg PUBLIC "-//W3C//DTD SVG 1.1//EN" "http://www.w3.org/Graphics/SVG/1.1/DTD/svg11.dtd" >
<svg xmlns="http://www.w3.org/2000/svg" xmlns:xlink="http://www.w3.org/1999/xlink" version="1.1" viewBox="0 0 2048 2048">
  <g transform="matrix(1 0 0 -1 0 2048)">
   <path fill="currentColor"
d="M1736 1820l97 102l120 -107q20 -18 15 -33q-5 -19 -25 -19h-872q-117 -1 -191 -9l-38 89q97 -23 229 -23h665zM988 1631l129 -88l528 -2l67 76l84 -54q39 -26 39 -48q0 -28 -77 -62l-2 -229l44 -38q13 -11 11 -27q-3 -22 -26 -22h-686v-75q-3 -24 -54 -24q-49 0 -49 56
l8 176v225q-3 86 -16 136zM1099 1192h562v295h-562v-295zM889 1006l121 -88h744l68 76l83 -55q39 -25 39 -48q0 -27 -77 -62v-423q0 -119 8 -247v-41q0 -48 -50 -54q-51 -7 -51 24v88h-775v-106q0 -30 -58 -22q-41 5 -44 54q-1 18 3 70q6 73 6 148v548q-3 88 -17 138z
M999 234h334v293h-334v-293zM1424 234h350v293h-350v-293zM999 581h334v279h-334v-279zM1424 860v-279h350v279h-350zM478 1673q-51 -265 -152 -523l56 -29h220l62 72l75 -48q41 -27 41 -48q0 -25 -71 -59v-616l35 -30q21 -18 20 -34q-1 -14 -25 -14l-382 -1v-46
q0 -28 -45 -30q-61 -4 -56 43l3 34l2 31l2 49l-2 558q-84 -136 -162 -240l-24 23q129 248 200 489q54 186 94 419h-80q-71 0 -154 -11l-40 86q129 -18 194 -18h316l101 101l125 -107q21 -18 16 -33q-7 -19 -27 -19zM357 404l253 -2v662l-253 1v-661z" />
  </g>

</svg>
