<?xml version="1.0" standalone="no"?>
<!DOCTYPE svg PUBLIC "-//W3C//DTD SVG 1.1//EN" "http://www.w3.org/Graphics/SVG/1.1/DTD/svg11.dtd" >
<svg xmlns="http://www.w3.org/2000/svg" xmlns:xlink="http://www.w3.org/1999/xlink" version="1.1" viewBox="0 -205 1024 1024">
  <g transform="matrix(1 0 0 -1 0 819)">
   <path fill="currentColor"
d="M448 897l39 -44h386l37 39l46 -47q7 -6 5 -10q-1 -5 -11 -7l-18 -9v-74l3 -69q-1 -32 -43 -33v34h-396v-26q6 -246 -24 -388q-29 -138 -132 -227l-8 10q53 60 90 170q38 113 34 429v200q-10 24 -25 39zM42 878h280l35 40l64 -46q11 -8 8 -11q-2 -4 -19 -3h-162
q-13 -132 -63 -268l-1 -2q0 -1 -1 -2h115l29 35l50 -43q7 -6 5 -10q-1 -5 -11 -7l-22 -9v-298l4 -61q8 -42 -44 -43v66h-127v-48q4 -37 -43 -44q2 38 3 114v255q-44 -81 -103 -146l-10 8q71 104 113 219v4q-4 26 -18 44l15 12l16 -22q38 119 52 246h-90q-27 1 -45 -13z
M496 697h396v136h-396v-136zM182 236h127v330h-127v-330zM775 207l-44 44l177 90v209h-88q-27 2 -43 -12l-32 30h147l28 37l48 -39q8 -5 8 -9q-1 -4 -10 -8l-20 -13v-362q2 -74 -11 -90q-13 -17 -57 -30q0 25 -56 38l-38 9l2 14q74 -9 98 -7t24 52v163q-60 -40 -96 -67
q-22 -17 -37 -49zM706 532v-352q2 -70 -13 -87t-67 -31q4 34 -44 40l-44 10l2 16q77 -12 102 -10q26 2 26 48v128q-20 -14 -51 -36q-27 -19 -46 -33q-21 -16 -37 -47l-44 41l178 95v232h-82q-27 2 -43 -12l-32 30h147l22 29l42 -31q10 -5 10 -9t-10 -8zM592 981l6 12
q98 -26 116 -58q31 -46 -7 -58q-19 -1 -24 18t-22 35q-16 17 -69 51zM756 479l4 14q104 -35 114 -81q8 -27 -11 -33t-27 17q-7 23 -24 39q-16 16 -56 44zM522 469l4 12q99 -34 108 -83q8 -29 -12 -35q-19 -6 -27 19q-7 25 -20 41t-53 46z" />
  </g>

</svg>
