<?xml version="1.0" standalone="no"?>
<!DOCTYPE svg PUBLIC "-//W3C//DTD SVG 1.1//EN" "http://www.w3.org/Graphics/SVG/1.1/DTD/svg11.dtd" >
<svg xmlns="http://www.w3.org/2000/svg" xmlns:xlink="http://www.w3.org/1999/xlink" version="1.1" viewBox="0 -205 1024 1024">
  <g transform="matrix(1 0 0 -1 0 819)">
   <path fill="currentColor"
d="M31 853h284l31 40l64 -46q11 -8 8 -11q-2 -4 -19 -3h-166q-12 -152 -61 -290l-2 -6h113l29 35l48 -43q7 -6 5 -10q-1 -5 -11 -7l-22 -9v-298l4 -75q8 -42 -42 -44v74h-129v-55q4 -40 -41 -46q2 39 3 131v250q-43 -81 -103 -146l-10 8q72 104 113 216v11q-4 26 -18 44
l15 12l17 -24q39 124 51 272h-86q-27 1 -45 -13zM875 963l64 -46q8 -10 4 -14q-5 -4 -20 -2q-12 6 -62 -8q-88 -16 -155 -26v-603h150l32 40l68 -50q8 -5 7 -8q-2 -2 -13 -2h-244v-151h196l32 40l68 -50q8 -5 7 -8q-2 -2 -13 -2h-545q-27 1 -45 -13l-34 33h296v151h-155
q-27 1 -45 -13l-34 33h234v598q-23 -3 -43 -5q-90 -10 -200 -10v18l126 10q174 28 229 40t70 20t14 26zM165 180h129v337h-129v-337zM491 567l70 -24q15 -10 5 -15q-16 -3 -28 -10q-10 -28 -21 -54q49 -25 67 -40q47 -35 41 -73q-3 -21 -22 -20t-21 22q-2 22 -19 44
q-14 19 -53 49q-49 -107 -112 -146l-10 12q67 81 89 147q23 66 18 76q-3 11 -11 20zM833 831l70 -24q15 -10 5 -15q-16 -3 -28 -10q-5 -16 -17 -44q-3 -9 -5 -14q45 -22 62 -36q47 -35 41 -73q-3 -21 -22 -20t-21 22q-2 22 -19 44q-13 18 -50 44q-48 -103 -113 -141l-6 12
q67 81 89 147q23 66 18 76q-3 11 -11 20zM831 575l70 -24q15 -10 5 -15q-16 -3 -28 -10q-5 -16 -17 -44q-3 -9 -5 -14q45 -22 62 -36q47 -35 41 -73q-3 -21 -22 -20t-21 22q-2 22 -19 44q-13 18 -50 44q-48 -103 -113 -141l-6 12q67 81 89 147q23 66 18 76q-3 11 -11 20z
M505 811l70 -24q15 -10 5 -15q-16 -3 -28 -10q-5 -16 -17 -44q-3 -9 -5 -14q45 -22 60 -36q44 -37 39 -73q-3 -21 -22 -20t-21 22q-2 22 -17 44q-12 18 -48 44q-48 -103 -113 -141l-6 12q67 81 89 147q23 66 18 76q-3 11 -11 20z" />
  </g>

</svg>
