<?xml version="1.0" standalone="no"?>
<!DOCTYPE svg PUBLIC "-//W3C//DTD SVG 1.1//EN" "http://www.w3.org/Graphics/SVG/1.1/DTD/svg11.dtd" >
<svg xmlns="http://www.w3.org/2000/svg" xmlns:xlink="http://www.w3.org/1999/xlink" version="1.1" viewBox="0 -205 1024 1024">
  <g transform="matrix(1 0 0 -1 0 819)">
   <path fill="currentColor"
d="M533 257q39 -67 77 -107q25 -27 55 -44v272h-142q-2 -15 -8 -21q-10 -9 -36 -14q3 23 7 72v5v116q-3 21 -17 38l14 11l31 -34h313l35 37l45 -45q7 -6 5 -10q-1 -5 -11 -7l-19 -9v-124l6 -22q-1 -14 -13 -20t-31 -7v34h-141v-121h154l32 40l69 -50q8 -6 6 -9q-2 -2 -12 -1
h-249v-145q49 -12 102 -14h103q45 1 82 3l4 -16q-36 -8 -49 -14q-15 -6 -16 -24q-147 4 -222 24q-77 22 -120 75q-37 45 -63 99q-2 -9 -8 -28l-3 -9q-13 -39 -54 -90q-40 -46 -111 -85l-12 12q68 54 98 94q30 42 42 80q12 40 20 85q0 19 -15 28l6 9l73 -22q6 -3 6 -5
q1 -3 -4 -6q-9 -2 -27 -14q-1 -9 -4 -18zM24 887h281l35 41l65 -47q11 -8 8 -12q-3 -3 -19 -2h-159q-13 -144 -63 -285q-1 -5 -3 -8h124l29 35l48 -43q7 -6 5 -10q-1 -5 -11 -7l-22 -9v-299l4 -78q2 -21 -6 -30q-9 -10 -36 -13v75h-137v-55q0 -22 -7 -32q-8 -9 -35 -15
q0 39 4 132v258q-50 -92 -108 -157l-10 8q73 111 118 230v2q-7 26 -19 44l15 12l16 -22q41 126 53 267h-95q-27 0 -45 -13zM167 215h137v339h-137v-339zM524 399h320v132h-320v-132zM784 996l83 -36q14 -5 6 -11q-21 -9 -30 -21v-63h59l30 37l62 -47q7 -5 6 -8q-1 -2 -12 -2
h-145v-33q21 -10 57 -29q11 -6 16 -9q30 -21 51 -51q19 -31 19 -54q-3 -24 -22 -28q-21 -5 -27 31q-9 35 -33 66q-24 26 -61 54v-122l2 -34q0 -21 -11 -30q-12 -9 -36 -14q4 28 7 125v49q-52 -81 -166 -171l-4 12q114 115 164 238h-19q-27 0 -45 -13l-34 33h104v73
q2 16 -30 46zM519 998l83 -36q14 -5 6 -11q-21 -9 -30 -21v-69h46l27 39l60 -49q7 -5 6 -8q-1 -2 -12 -2h-127v-25q25 -10 59 -28q5 -2 7 -3q24 -18 38 -40q12 -24 9 -39q-4 -18 -21 -19q-18 -3 -24 24q-13 32 -24 47q-12 15 -44 38v-110l2 -58q0 -21 -11 -30
q-12 -9 -36 -14q4 29 7 135v55q-58 -92 -155 -161l-9 10q98 91 156 218h-59q-19 0 -37 -13l-38 33h142v79q2 16 -30 46z" />
  </g>

</svg>
