<?xml version="1.0" standalone="no"?>
<!DOCTYPE svg PUBLIC "-//W3C//DTD SVG 1.1//EN" "http://www.w3.org/Graphics/SVG/1.1/DTD/svg11.dtd" >
<svg xmlns="http://www.w3.org/2000/svg" xmlns:xlink="http://www.w3.org/1999/xlink" version="1.1" viewBox="0 -205 1024 1024">
  <g transform="matrix(1 0 0 -1 0 819)">
   <path fill="currentColor"
d="M617 999l100 -39q5 -2 5 -5t-5 -5q-19 -6 -32 -24v-183h195l34 41l48 -40q9 -6 9 -11q0 -4 -9 -8l-20 -13v-447q7 -121 -53 -172q-31 -29 -105 -53q-3 41 -43 52q-11 4 -53 16q-23 6 -36 10l4 16q114 -20 132 -20q55 -4 85 36q23 29 23 93v480h-211v-2q-4 -259 -55 -426
q-51 -164 -239 -253l-6 16q155 99 202 248q48 152 50 405v12h-114q-28 1 -40 -14l-36 34h190v211q-6 14 -28 28zM217 607l34 -25q16 25 29 47q33 58 58 133h-226q-25 1 -36 -14l-31 34h281l30 37l63 -50q7 -5 7 -9q0 -3 -7 -5q-22 -4 -30 -10t-28 -50q-19 -43 -54 -99
q-16 -25 -35 -51v-29q79 -24 106 -41q44 -26 61 -66q13 -39 -18 -47q-20 -4 -26 20q-6 25 -38 58q-28 29 -85 58v-334l4 -95q2 -36 -57 -46q5 39 7 187v279q-4 -3 -7 -7q-54 -59 -160 -131l-10 10q84 74 141 141q20 24 36 45v4q-4 29 -24 45zM165 970l4 13q74 -24 99 -43
q26 -18 37 -37q22 -48 -15 -65q-17 -4 -23 20q-6 25 -26 52q-19 27 -76 60z" />
  </g>

</svg>
