<?xml version="1.0" standalone="no"?>
<!DOCTYPE svg PUBLIC "-//W3C//DTD SVG 1.1//EN" "http://www.w3.org/Graphics/SVG/1.1/DTD/svg11.dtd" >
<svg xmlns="http://www.w3.org/2000/svg" xmlns:xlink="http://www.w3.org/1999/xlink" version="1.1" viewBox="0 -200 1000 1000">
  <g transform="matrix(1 0 0 -1 0 800)">
   <path fill="currentColor"
d="M791 965l-24 -73v-162h78l47 47l64 -68h-189v-613q-6 -38 -34 -64.5t-61 -32.5q-7 18 -12 32.5t-14.5 26t-26.5 21t-48 17.5l2 7q38 -11 60 -13.5t37 -2.5q13 0 21 6t12.5 15.5t6 20.5t1.5 21v559h-175l-55 -13l-24 34h254v268zM550 615q46 -60 61 -96t15 -55v-8
q-1 -12 -7.5 -22t-14 -17.5t-15.5 -12t-12 -5.5q-1 -1 -9 -1q-9 0 -9 14q0 9 2.5 23t2.5 36q0 26 -4 60.5t-18 79.5zM48 327q52 53 101 118.5t87.5 127t63 111.5t28.5 73h-170l-54 -11l-20 36h248l31 54l67 -56l-49 -55l-94 -183q48 -24 89.5 -51.5t63.5 -52.5
q12 -17 12 -35q0 -15 -9 -26.5t-26 -13.5q-8 0 -15 7t-15 25q-10 15 -19 29.5t-20 29.5t-26.5 32.5t-37.5 38.5l-5 -496q-8 -14 -24 -20.5t-30 -8.5v476q-9 -14 -28 -36t-42.5 -45t-49 -44t-48.5 -34zM102 929h195l48 45l59 -69h-240l-43 -13z" />
  </g>

</svg>
