<?xml version="1.0" standalone="no"?>
<!DOCTYPE svg PUBLIC "-//W3C//DTD SVG 1.1//EN" "http://www.w3.org/Graphics/SVG/1.1/DTD/svg11.dtd" >
<svg xmlns="http://www.w3.org/2000/svg" xmlns:xlink="http://www.w3.org/1999/xlink" version="1.1" viewBox="0 -205 1024 1024">
  <g transform="matrix(1 0 0 -1 0 819)">
   <path fill="currentColor"
d="M705 965q5 -12 -5 -12q-16 -1 -33 -21q-15 -36 -33 -69h252l28 36l62 -46q8 -5 7 -8q-2 -2 -13 -2h-347q-30 -51 -67 -96l13 -9h231l39 39l46 -45q7 -6 5 -10q-1 -5 -11 -7l-18 -9v-90l6 -43q-2 -23 -48 -25v34h-237v-17q-2 -22 -49 -32q5 37 7 100v92q0 1 -1 2
q-73 -82 -170 -139l-6 14q80 64 144 142q42 53 70 99h-102q-27 1 -45 -13l-34 33h193q7 13 13 26q31 68 26 75q0 1 -1 2q-3 5 -13 20l8 6zM203 613l32 -25q8 12 23 37q4 7 6 10q33 58 58 133h-222q-25 1 -36 -14l-31 34h277l30 37l59 -50q7 -5 7 -9q0 -3 -7 -5
q-22 -4 -30 -10t-28 -50q-19 -43 -54 -99q-15 -24 -33 -49v-31q78 -24 101 -41q34 -20 43 -56q6 -38 -21 -46q-16 -3 -22 21q-6 25 -25 52q-17 24 -76 54v-336l4 -95q1 -34 -53 -46q5 39 7 187v285l-12 -14q-53 -60 -157 -130l-10 10q84 74 141 141q10 14 31 39q5 6 7 9v1
q-4 29 -24 45zM935 443v-294q2 -56 -10 -81t-66 -37q-2 33 -34 42q-14 3 -54 14q-23 6 -36 9l2 16q110 -23 133 -21q23 1 23 42v324h-395v-290l4 -75q2 -37 -53 -46q5 39 7 163v260q-3 19 -17 34l16 13l34 -39h390l32 37l44 -39q9 -6 9 -11q0 -4 -9 -8zM595 398l29 -34h122
l31 31l42 -39q7 -4 5 -7q-1 -4 -11 -6l-18 -9v-82l6 -43q-1 -26 -42 -28v35h-125v-22q1 -24 -43 -32q5 37 7 115v72q-3 22 -17 38zM582 600h237v120h-237v-120zM634 232h125v116h-125v-116zM147 974l4 13q77 -24 99 -42q24 -16 34 -36q21 -49 -11 -64q-16 -3 -23 20
q-7 24 -26 51q-18 27 -77 58z" />
  </g>

</svg>
