<?xml version="1.0" standalone="no"?>
<!DOCTYPE svg PUBLIC "-//W3C//DTD SVG 1.1//EN" "http://www.w3.org/Graphics/SVG/1.1/DTD/svg11.dtd" >
<svg xmlns="http://www.w3.org/2000/svg" xmlns:xlink="http://www.w3.org/1999/xlink" version="1.1" viewBox="0 -205 1024 1024">
  <g transform="matrix(1 0 0 -1 0 819)">
   <path fill="currentColor"
d="M929 341v-172q2 -68 -8 -95t-60 -37q11 28 -65 39l-15 3l2 16q76 -10 91 -5t15 65v200h-115v-160l2 -47q2 -35 -45 -44q6 47 7 129v122h-110v-170l2 -47q2 -35 -45 -44q6 48 7 123v138h-106v-236l5 -37q2 -37 -52 -46q5 39 7 128v203q-7 21 -15 31l14 10l34 -35h132
q20 56 35 114h-189q-27 1 -37 -13l-34 33h500l32 40l68 -50q8 -5 7 -8q-2 -2 -13 -2h-289q-26 -63 -55 -114h245l26 29l42 -31q8 -6 8 -10q0 -5 -8 -7zM195 633l21 -15q3 6 10 18q5 8 7 12q1 2 4 7q28 48 66 120h-194q-25 1 -36 -14l-31 34h249l30 41l60 -47q7 -5 7 -9
q0 -3 -7 -5q-22 -4 -30 -10t-34 -49q-25 -43 -60 -97q-6 -10 -13 -20l2 -1v-65q62 -16 85 -34q35 -25 43 -58q7 -35 -20 -42q-15 -3 -20 21q-4 25 -24 50q-15 22 -64 46v-342l4 -95q2 -36 -51 -46q5 39 7 187v327q-5 -6 -16 -20q-11 -13 -17 -20q-49 -57 -141 -128l-10 10
q71 70 125 137q29 35 52 67q-7 16 -15 29zM466 862v-28h190v91h-133q-27 1 -45 -13l-34 33h378l32 40l68 -50q8 -5 7 -8q-2 -2 -13 -2h-220v-91h217l35 29l49 -54q2 -5 -1 -7q-2 -2 -9 0q-34 0 -67 -34q-18 -18 -31 -30l-12 6q24 40 40 70h-221v-178l2 -57q3 -36 -49 -44
q5 37 7 148v131h-191l-2 -20q-3 -44 -31 -72q-32 -28 -50 -5q-7 15 15 36q48 44 52 109h17zM136 975l4 13q72 -24 96 -42q26 -16 36 -36q12 -19 7 -40t-20 -20q-13 1 -23 25q-27 61 -100 100zM471 726h134v-18h-134v18zM745 726h134v-18h-134v18zM751 620h134v-18h-134v18z
M471 620h130v-18h-130v18z" />
  </g>

</svg>
