<?xml version="1.0" standalone="no"?>
<!DOCTYPE svg PUBLIC "-//W3C//DTD SVG 1.1//EN" "http://www.w3.org/Graphics/SVG/1.1/DTD/svg11.dtd" >
<svg xmlns="http://www.w3.org/2000/svg" xmlns:xlink="http://www.w3.org/1999/xlink" version="1.1" viewBox="0 0 2048 2048">
  <g transform="matrix(1 0 0 -1 0 2048)">
   <path fill="currentColor"
d="M499 1096q115 -48 159 -74q112 -68 118 -139q2 -25 -11 -44q-13 -20 -37 -20q-27 0 -45 25q-4 5 -35 57q-42 74 -149 145v-693q0 -108 11 -209q3 -29 3 -54q0 -39 -49 -42q-63 -4 -63 42v943q-94 -246 -316 -518l-29 24q130 206 200 389q46 122 98 330h-116
q-69 0 -149 -10l-39 86q119 -18 188 -18h163v401l-22 -3q-152 -22 -293 -31l-4 36q245 51 359 91q130 46 234 116l102 -93q19 -18 17 -34q-2 -23 -37 -17l-68 11q-82 -29 -190 -59v-418h130l91 92l114 -92q24 -19 21 -40q-3 -18 -28 -18h-328v-162zM1591 1057q59 95 121 201
h-298q-129 0 -192 -9l-39 88q92 -22 231 -22h305l80 74l80 -66q54 -46 48 -68q-9 -29 -110 -33q-85 -96 -174 -178q60 -14 63 -37q3 -27 -51 -44l-40 -14v-122h130l99 102l120 -107q21 -18 16 -34q-6 -18 -26 -18h-339l-1 -523q0 -142 -154 -170q-12 70 -48 93
q-32 21 -159 43l8 46q140 -23 190 -27q68 -5 68 57v481h-150q-117 0 -192 -8l-38 88q96 -23 230 -23h150v87q0 114 -8 160zM1031 1065l48 -12q82 -21 85 -43q3 -26 -50 -44l-41 -13v-576q0 -105 13 -219q3 -28 3 -54q0 -38 -49 -41q-63 -4 -63 41v867q-79 -132 -205 -260
l-26 29q246 311 368 805h-69q-118 0 -192 -8l-38 88q96 -23 230 -23h83q41 178 50 329l130 -32q68 -16 65 -45q-3 -23 -57 -38l-36 -9q-22 -95 -44 -183l-5 -22h526l98 102l121 -107q20 -18 16 -34q-6 -18 -26 -18h-750q-67 -249 -185 -480z" />
  </g>

</svg>
