<?xml version="1.0" standalone="no"?>
<!DOCTYPE svg PUBLIC "-//W3C//DTD SVG 1.1//EN" "http://www.w3.org/Graphics/SVG/1.1/DTD/svg11.dtd" >
<svg xmlns="http://www.w3.org/2000/svg" xmlns:xlink="http://www.w3.org/1999/xlink" version="1.1" viewBox="0 0 2048 2048">
  <g transform="matrix(1 0 0 -1 0 2048)">
   <path fill="currentColor"
d="M1793 247q-265 -65 -640 -114l-5 -28q-3 -25 -21 -29q-18 -3 -32 25l-60 118q42 27 77 76q157 214 239 419l124 -60q33 -16 29 -36t-36 -22l-56 -5q-156 -237 -292 -359q32 -1 49 -1q228 0 584 53l23 3q-43 88 -126 195l28 24q71 -58 155 -155q99 -114 99 -198
q0 -57 -49 -69q-39 -10 -56 28q-7 16 -20 82q-2 13 -14 53zM1684 1095h-694v-31q0 -53 -76 -45q-31 3 -31 33q0 23 4 54q3 22 7 99v485q-5 89 -13 129l118 -89h157q34 85 53 215l145 -32q25 -6 26 -25q3 -26 -30 -32l-49 -10q-35 -56 -75 -116h444l68 76l84 -54
q40 -26 40 -49q0 -27 -78 -61v-357q0 -68 7 -122q8 -55 8 -80q0 -30 -33 -44q-30 -13 -55 -9q-27 5 -27 31v34zM992 1305v-152h692v152h-692zM992 1361h692v129h-692v-129zM992 1547h692v125h-692v-125zM468 1201q265 -100 265 -206q0 -55 -48 -55q-25 0 -46 23q-4 5 -33 55
q-35 59 -138 132v-793q0 -105 11 -209q3 -28 3 -54q0 -39 -49 -42q-63 -4 -63 42v950q-120 -268 -314 -481l-30 22q209 306 301 689h-101q-64 0 -149 -11l-39 86q119 -17 188 -17h144v379q-121 -23 -300 -35l-3 35q229 51 343 90q135 48 239 116l99 -91q17 -16 18 -29
q3 -30 -37 -23l-66 12q-105 -35 -195 -57v-397h123l91 91l114 -91q24 -20 21 -41q-3 -17 -28 -17h-321v-73zM1096 797h-191q-119 0 -192 -8l-38 88q99 -23 230 -23h206q4 20 5 30q13 71 28 189l141 -34q21 -5 30 -11q30 -22 3 -46q-11 -10 -34 -16l-49 -11q-13 -56 -23 -101
h527l85 90l124 -95q21 -16 16 -34q-6 -18 -26 -18h-741q-57 -191 -178 -356q-104 -143 -309 -301l-28 34q304 259 414 623z" />
  </g>

</svg>
