<?xml version="1.0" standalone="no"?>
<!DOCTYPE svg PUBLIC "-//W3C//DTD SVG 1.1//EN" "http://www.w3.org/Graphics/SVG/1.1/DTD/svg11.dtd" >
<svg xmlns="http://www.w3.org/2000/svg" xmlns:xlink="http://www.w3.org/1999/xlink" version="1.1" viewBox="0 0 2048 2048">
  <g transform="matrix(1 0 0 -1 0 2048)">
   <path fill="currentColor"
d="M1080 184l1 827l115 -86h454l65 77l80 -55q38 -26 38 -48q0 -27 -74 -62v-654h12l84 86l119 -94q14 -12 11 -28q-4 -20 -25 -20h-910q-67 0 -142 -11l-38 86q121 -18 180 -18h30zM1665 183v200h-494v-199zM1665 437v187h-494v-187h494zM1665 678v191h-494v-191h494z
M481 1119l20 -10q275 -141 268 -243q-4 -56 -56 -52q-25 1 -44 28q-3 4 -27 58q-39 84 -161 175v-718q0 -109 11 -210q3 -28 3 -54q0 -38 -49 -41q-62 -5 -63 41v933q-103 -251 -295 -469l-30 23q196 306 278 678h-86q-69 0 -149 -10l-39 86q125 -18 188 -18h133l-1 390
q-136 -23 -300 -34l-3 36q434 94 583 203l99 -89q19 -18 17 -35q-3 -22 -37 -17l-66 12q-103 -35 -194 -57v-409h92l91 92l114 -92q24 -19 21 -39q-3 -18 -28 -18l-290 -1v-139zM1220 1502h-278l1 -487q0 -210 -38 -413q-46 -248 -153 -392q-76 -103 -127 -143l-30 27
q141 165 200 419q23 97 38 272q19 211 19 375v289q-10 148 -15 182l113 -71h326v223q0 118 -8 160l103 -24q83 -20 83 -48q0 -26 -47 -39l-40 -12v-72h251l76 80l109 -86q20 -15 15 -33q-5 -19 -25 -19h-426v-130h433l53 62l88 -59q23 -16 33 -31q19 -29 -40 -46l-40 -11
l-52 -79l-56 -85l-34 23q24 80 48 168h-521l36 -9q67 -16 70 -41q2 -26 -43 -38l-32 -8v-88l222 28l69 91l108 -72q23 -15 23 -31q0 -25 -38 -30l-384 -44v-39q0 -62 51 -80q60 -21 197 -15q136 6 175 18q36 11 45 11q26 0 49 -25q24 -26 19 -46q-7 -26 -88 -32
q-143 -9 -180 -9q-233 0 -296 38q-56 34 -56 128v42l-76 -7q-82 -17 -101 -28l-71 81h92l156 11v84q0 32 -6 110z" />
  </g>

</svg>
