<?xml version="1.0" standalone="no"?>
<!DOCTYPE svg PUBLIC "-//W3C//DTD SVG 1.1//EN" "http://www.w3.org/Graphics/SVG/1.1/DTD/svg11.dtd" >
<svg xmlns="http://www.w3.org/2000/svg" xmlns:xlink="http://www.w3.org/1999/xlink" version="1.1" viewBox="0 -204 1024 1024">
  <g transform="matrix(1 0 0 -1 0 820)">
   <path fill="currentColor"
d="M348 888q-38 -15 -79 -26q-11 -3 -21 -5v-191h40l41 45q34 -25 64 -49q7 -4 7 -10q0 -14 -14 -14h-138v-72q50 -29 78 -57q29 -25 43 -50q10 -18 10 -35q0 -32 -23 -32q-8 0 -16 5q-6 5 -14 24q-19 45 -41 73q-15 21 -37 41v-417q0 -23 1 -31v-29q0 -34 -30 -34
q-26 0 -26 18q0 20 3 54q4 34 4 60v343q-18 -53 -39 -97q-21 -48 -49 -97q-27 -45 -67 -97l-13 18q34 57 58 110q23 49 42 110q17 49 30 106q11 46 18 86h-23q-71 -2 -97 -7l-20 47q44 -12 117 -12h43v181q-17 -3 -33 -5q-43 -6 -108 -10l-7 23q34 3 72 10q37 7 71 18
q36 10 62 22q25 10 42 23q14 9 26 20q39 -23 69 -47q5 -4 5 -8q0 -12 -15 -12q-14 0 -36 7zM570 952q46 -9 75 -18q11 -4 11 -11q0 -5 -7 -9q-11 -6 -25 -10v-174h68v142q0 53 -6 80q46 -9 75 -18q11 -4 11 -11q0 -5 -7 -9q-11 -6 -25 -10v-174h112l43 47q35 -26 65 -50
q8 -5 8 -11q0 -14 -14 -14h-165q26 -10 47 -19q5 -6 5 -11q0 -9 -16 -13q-19 -3 -27 -3q-11 -24 -26 -45q-14 -21 -29 -38q-10 -10 -21 -19h114l40 43q32 -24 61 -47q7 -5 7 -10q0 -14 -14 -14h-250v-84h124l40 43q32 -24 61 -47q7 -5 7 -10q0 -14 -14 -14h-218v-84h188
l41 45q34 -25 64 -49q7 -4 7 -10q0 -14 -14 -14h-272q25 -32 53 -57q34 -29 77 -57q43 -26 86 -44q41 -17 78 -25l-3 -17q-49 0 -65 -30q-41 17 -73 39q-37 25 -63 52q-30 26 -59 57q-22 24 -45 57v-159q0 -23 1 -31v-29q0 -34 -30 -34q-26 0 -26 18q0 20 3 54q4 34 4 60
v119q-25 -35 -53 -61q-48 -46 -103 -85q-54 -36 -139 -73l-13 18q76 42 123 75q40 31 77 71q33 35 63 82h-126q-71 -2 -97 -7l-20 47q44 -12 117 -12h171v84h-87q-71 -2 -97 -7l-20 47q44 -12 117 -12h87v84h-115q-71 -2 -97 -7l-20 47q44 -12 117 -12h42q-4 8 -7 19
q-13 42 -28 68q-15 29 -41 59l1 2q-64 -2 -88 -7l-20 47q44 -12 117 -12h83v142q0 53 -6 80zM590 554h101q17 21 27 39q9 18 19 39q9 22 16 41l6 29h-245q28 -23 44 -45q20 -24 30 -47q7 -17 7 -33t-5 -23zM429 896q41 -22 64 -46q21 -18 31 -37q7 -13 7 -25q0 -32 -23 -32
q-6 0 -11 4t-10 18q-13 34 -28 55q-16 23 -43 47zM853 912q43 -15 75 -29q5 -6 5 -11q0 -9 -16 -13q-19 -3 -27 -3q-11 -20 -26 -37q-14 -18 -29 -31q-16 -14 -39 -28l-16 10q18 20 30 38q9 15 19 34q9 19 16 36q5 15 8 34z" />
  </g>

</svg>
