<?xml version="1.0" standalone="no"?>
<!DOCTYPE svg PUBLIC "-//W3C//DTD SVG 1.1//EN" "http://www.w3.org/Graphics/SVG/1.1/DTD/svg11.dtd" >
<svg xmlns="http://www.w3.org/2000/svg" xmlns:xlink="http://www.w3.org/1999/xlink" version="1.1" viewBox="0 -205 1024 1024">
  <g transform="matrix(1 0 0 -1 0 819)">
   <path fill="currentColor"
d="M1011 111v-14h-20q-30 3 -47 -18q-134 77 -179 284h-10l2 -291q3 -36 -51 -46q4 39 7 94v185q-84 -154 -273 -247l-6 10q186 129 260 295h-107q-31 0 -51 -13l-32 33h209v88q-92 -13 -183 -18v15q89 14 149 28q13 3 36 9q121 22 113 55l8 2l39 -35l41 69h-789
q-4 -99 -71 -116q-18 2 -20 23q0 6 16 23q56 59 62 139h13q3 -25 2 -48h781l28 34l58 -60q2 -4 2 -6q0 -4 -5 -4h-2q-2 1 -3 1q-52 -3 -98 -69q7 -7 7 -12q1 -5 -10 -6q-10 2 -21 2q-27 1 -111 -19v-95h139l30 37l69 -47q8 -4 8 -7t-14 -3h-199q57 -201 223 -252zM419 554
l52 -44q10 -10 10 -16t-10 -6q-9 3 -22 2q-20 0 -83 -12q-26 -5 -40 -7v-98h92l29 37l55 -47q8 -4 8 -7t-14 -3h-170v-29q141 -45 150 -112q0 -34 -21 -37h-3q-21 -1 -25 28q-8 56 -101 105l2 -243q3 -36 -51 -46q4 39 7 94v184q-72 -141 -236 -230l-9 9q160 119 225 277
h-116q-33 0 -52 -13l-32 33h220v91q-91 -13 -178 -17v15q69 9 152 27q13 3 36 8q123 22 117 55zM695 1001l77 -25q12 -4 12 -8q0 -2 -13 -10q-14 -9 -19 -14q0 -6 1 -18v-18q0 -35 -4 -65q13 10 36 27q79 56 72 61q0 6 -4 11l9 6l52 -44q7 -6 7 -10t-7 -5q-8 1 -14 1
q-9 8 -154 -70q-1 -3 -2 -10q-4 -18 -7 -26q171 -51 178 -120q-1 -19 -21 -21q-14 0 -29 24q-38 66 -133 101q-28 -87 -198 -138l-2 16q113 50 148 106q18 27 25 65q6 33 6 102v10q5 38 -25 61zM457 954l50 -47q7 -6 7 -9q-1 -4 -7 -6q-6 1 -12 1q-16 0 -34 -9
q-15 -12 -58 -30q-35 -15 -56 -26q-3 -17 -7 -32q155 -48 163 -118q-2 -24 -21 -26q-12 0 -22 23q-32 66 -124 108q-38 -113 -189 -153l-2 16q96 41 133 105q36 59 35 179q4 38 -25 60l8 11l78 -25q11 -4 11 -9q0 -1 -12 -9q-15 -9 -20 -14v-25q0 -36 -3 -67q105 64 102 82
q0 7 -4 13zM622 930h14q1 -15 1 -30q-4 -115 -69 -131q-23 2 -25 23q0 6 14 17q50 37 65 121zM220 922h13q1 -11 1 -30q-3 -116 -68 -131q-24 3 -26 25q0 5 13 15q53 38 67 121z" />
  </g>

</svg>
