<?xml version="1.0" standalone="no"?>
<!DOCTYPE svg PUBLIC "-//W3C//DTD SVG 1.1//EN" "http://www.w3.org/Graphics/SVG/1.1/DTD/svg11.dtd" >
<svg xmlns="http://www.w3.org/2000/svg" xmlns:xlink="http://www.w3.org/1999/xlink" version="1.1" viewBox="0 -205 1024 1024">
  <g transform="matrix(1 0 0 -1 0 819)">
   <path fill="currentColor"
d="M479 649q-1 23 -26 46l8 11l86 -38q9 -4 11 -7q2 -4 -4 -7q-18 -5 -31 -16v-115h326l21 38l66 -44q11 -8 8 -11q-2 -4 -19 -3h-402v-58q29 -43 76 -96q25 -28 49 -51q56 44 99 78q50 39 51 51q3 13 -4 26l12 6l62 -59q7 -5 7 -9q0 -3 -7 -5q-28 9 -68 -21
q-36 -27 -134 -83q22 -19 44 -36q135 -103 270 -99v-16q-71 2 -90 -34q-58 15 -150 72q-91 59 -156 141q-38 49 -61 85v-289q-1 -32 -17 -52q-15 -20 -79 -32q-7 27 -30 38q-22 10 -87 28l8 16l38 -10q128 -34 123 42v161l-233 -105q-58 -28 -75 -41q-16 -11 -27 -35l-56 52
l391 151v184h-333q-27 1 -45 -13l-34 33h412v126zM960 833q2 -5 -1 -7q-2 -2 -9 0q-26 -7 -50 -37q-2 -3 -10 -13q-21 -25 -37 -46l-13 8l36 88h-729v-4q-3 -55 -30 -88q-30 -32 -53 -10q-13 17 6 33q20 17 36 44q17 27 28 96h16q0 -22 -1 -51h725l31 41zM358 815l68 -65
q11 -11 0 -14q-28 9 -52 -3q-23 -10 -98 -48q-75 -37 -183 -66l-2 14q228 106 261 150q3 12 -4 21zM587 773l3 15q176 -33 243 -83q65 -44 27 -75q-14 -8 -41 20q-27 29 -88 62t-144 61zM153 436l2 13q125 -13 172 -77q30 -52 -10 -58q-15 -1 -26 21q-10 23 -41 50
q-30 29 -97 51zM389 980l4 13q89 -12 128 -47q42 -45 0 -71q-16 -4 -27 18q-9 23 -33 45q-24 24 -72 42zM619 652l2 13q107 -20 147 -69q25 -43 -12 -52q-16 -1 -28 22q-11 24 -43 46q-31 23 -66 40z" />
  </g>

</svg>
