<?xml version="1.0" standalone="no"?>
<!DOCTYPE svg PUBLIC "-//W3C//DTD SVG 1.1//EN" "http://www.w3.org/Graphics/SVG/1.1/DTD/svg11.dtd" >
<svg xmlns="http://www.w3.org/2000/svg" xmlns:xlink="http://www.w3.org/1999/xlink" version="1.1" viewBox="0 -205 1024 1024">
  <g transform="matrix(1 0 0 -1 0 819)">
   <path fill="currentColor"
d="M180 410l78 -34q14 -5 6 -11q-16 -4 -27 -18v-272h152v461h-227q-27 1 -45 -13l-34 33h764l28 36l64 -46q8 -5 7 -8q-2 -2 -13 -2h-316v-127h168l33 39l50 -47q7 -6 5 -10q-1 -5 -11 -7l-18 -9v-89l5 -78q3 -25 -45 -35v42h-187v-140h266l32 40l68 -50q8 -5 7 -8
q-2 -2 -13 -2h-859q-27 1 -45 -13l-34 33h158v282q2 17 -25 42zM573 536h-140v-461h140v461zM617 235h187v154h-187v-154zM968 831q2 -5 -1 -7q-2 -2 -9 0q-26 -7 -50 -37q-2 -3 -10 -13q-21 -25 -37 -46l-13 8l36 88h-741v-4q-3 -55 -30 -88q-30 -32 -53 -10q-13 17 6 33
q20 17 36 44q17 27 28 96h16q0 -22 -1 -51h737l31 41zM362 805l68 -65q11 -11 0 -14q-28 9 -52 -3q-23 -10 -98 -48q-75 -37 -183 -66l-2 14q228 106 261 150q3 12 -4 21zM587 763l3 15q176 -33 243 -83q65 -44 27 -75q-14 -8 -41 20q-27 29 -88 62t-144 61zM393 982l4 13
q89 -12 128 -47q42 -45 0 -71q-16 -4 -27 18q-9 23 -33 45q-24 24 -72 42z" />
  </g>

</svg>
