<?xml version="1.0" standalone="no"?>
<!DOCTYPE svg PUBLIC "-//W3C//DTD SVG 1.1//EN" "http://www.w3.org/Graphics/SVG/1.1/DTD/svg11.dtd" >
<svg xmlns="http://www.w3.org/2000/svg" xmlns:xlink="http://www.w3.org/1999/xlink" version="1.1" viewBox="0 -205 1024 1024">
  <g transform="matrix(1 0 0 -1 0 819)">
   <path fill="currentColor"
d="M442 347l42 -39h317l37 39l48 -47q7 -6 5 -10q-1 -5 -11 -7l-18 -9v-156l5 -42q-2 -18 -11 -24q-12 -6 -36 -12v71h-328v-35q0 -21 -11 -30q-12 -9 -38 -14q4 37 7 105v159q-3 24 -20 36zM820 288h-328v-157h328v157zM371 429h261v132h-171q-27 0 -45 -13l-35 33h251v83
q2 15 -25 42l8 11l86 -34q7 -2 8 -6q0 -4 -7 -5q-18 -6 -27 -18v-73h124l32 40l69 -50q7 -5 6 -8q-1 -2 -12 -2h-219v-132h171l32 40l68 -50q7 -5 6 -8q-1 -2 -12 -2h-490q-27 0 -45 -13zM187 671l83 -24q14 -5 6 -12q-21 -9 -30 -21v-42q31 -16 62 -39q21 -20 33 -44
q12 -25 9 -43t-20 -19q-17 -2 -20 22q-3 23 -22 53q-10 14 -42 46v-425l2 -57q0 -21 -12 -30q-13 -9 -39 -14q4 37 7 147v451q1 16 -26 39zM869 763l-15 8l31 72h-726q-3 -33 -15 -61q-14 -27 -34 -36q-20 -10 -32 6q-12 15 9 35q21 18 35 41q15 21 22 88h16v-53h724l31 40
l56 -53q2 -6 -1 -8q-2 -1 -9 1q-21 -6 -27 -11q-4 -3 -15 -12q-4 -5 -7 -7q-15 -14 -43 -50zM381 829l65 -54q7 -6 7 -9q0 -4 -7 -5q-28 6 -49 -1q-5 -2 -23 -9q-43 -17 -75 -30q-76 -30 -195 -51l-4 14q136 44 194 72q57 27 70 40q13 12 7 27zM607 786l5 13
q114 -14 177 -35q61 -23 88 -41q26 -19 32 -37q5 -20 -9 -29q-16 -10 -44 17q-29 26 -77 53q-49 26 -172 59zM131 515h17q0 -42 -3 -83q-4 -42 -16 -67q-14 -25 -35 -34q-22 -9 -33 8q-11 16 7 31q16 12 36 42q16 23 27 103zM413 994l4 13q58 -12 85 -28q27 -18 38 -36
q11 -19 9 -36q-3 -18 -21 -21q-21 -5 -25 17q-5 19 -26 46q-21 26 -64 45z" />
  </g>

</svg>
