<?xml version="1.0" standalone="no"?>
<!DOCTYPE svg PUBLIC "-//W3C//DTD SVG 1.1//EN" "http://www.w3.org/Graphics/SVG/1.1/DTD/svg11.dtd" >
<svg xmlns="http://www.w3.org/2000/svg" xmlns:xlink="http://www.w3.org/1999/xlink" version="1.1" viewBox="0 0 2048 2048">
  <g transform="matrix(1 0 0 -1 0 2048)">
   <path fill="currentColor"
d="M639 664q292 -106 297 -202q1 -16 -8 -30q-12 -19 -30 -19q-25 0 -66 51q-66 82 -193 156v-282q0 -106 13 -219q3 -28 3 -54q0 -38 -49 -41q-62 -5 -62 41v622q-92 -178 -187 -279q-123 -129 -266 -216l-21 33q119 89 230 236q97 127 160 289h-145q-68 0 -148 -11l-40 86
q121 -18 188 -18h229v243h-157q-69 0 -148 -11l-39 86q123 -18 187 -18h157v98q0 114 -8 160l109 -24q82 -18 85 -44t-50 -43l-41 -14v-133h114l80 81l114 -86q21 -16 16 -34q-6 -18 -26 -18h-298v-243h171l80 81l114 -86q21 -16 16 -34q-6 -18 -26 -18l-355 1v-87z
M1517 751q192 -346 456 -447l-2 -33q-101 -2 -138 -51q-222 180 -353 500v-382q0 -106 12 -219q4 -28 4 -54q0 -38 -49 -41q-63 -5 -63 41v660q-161 -343 -452 -533l-21 33q247 199 366 525h-57q-68 0 -148 -11l-39 86q121 -18 187 -18h164v243h-129q-70 0 -149 -11l-39 86
q123 -18 188 -18h129v98q0 117 -8 160l109 -24q83 -18 86 -44t-50 -43l-41 -14v-133h133l80 81l114 -86q21 -16 15 -34q-5 -18 -25 -18h-317v-243h239l80 81l114 -86q21 -16 15 -34q-5 -18 -25 -18zM799 1695l48 -24q37 -19 37 -37q0 -28 -50 -27l-37 1q-102 -113 -232 -180
q-141 -72 -392 -128l-9 38q259 82 399 185q93 69 151 172h-374q-8 -78 -33 -131q-43 -92 -109 -105q-38 -8 -58 16q-17 19 -9 47q6 20 37 40q82 53 109 148q9 30 24 145h39v-102h693q-23 55 -48 89q-30 39 -112 103l19 26q98 -38 149 -67q69 -39 75 -83q6 -40 -38 -68h688
l59 72l85 -59q42 -29 46 -52q5 -26 -38 -32l-46 -5q-89 -84 -153 -146l-28 20q20 41 68 144h-481v-83q0 -62 15 -84q32 -47 228 -47q180 0 264 26q33 11 44 12q34 4 57 -29q11 -16 10 -30q-2 -33 -66 -42q-153 -21 -269 -21q-204 0 -279 23q-57 18 -81 60q-20 34 -20 107
v108h-382z" />
  </g>

</svg>
