<?xml version="1.0" standalone="no"?>
<!DOCTYPE svg PUBLIC "-//W3C//DTD SVG 1.1//EN" "http://www.w3.org/Graphics/SVG/1.1/DTD/svg11.dtd" >
<svg xmlns="http://www.w3.org/2000/svg" xmlns:xlink="http://www.w3.org/1999/xlink" version="1.1" viewBox="0 0 2048 2048">
  <g transform="matrix(1 0 0 -1 0 2048)">
   <path fill="currentColor"
d="M1463 1374l83 71l104 -76q22 -16 17 -33q-6 -19 -26 -19h-571l1 -108h568l58 69l67 -54q41 -33 41 -49q0 -18 -35 -33q-7 -3 -14 -5q-10 -4 -31 -12q-13 -14 -52 -59q-25 -28 -77 -72l-27 27q56 92 72 135h-571v-110h230l79 77l112 -84q16 -12 16 -29q0 -21 -26 -21h-411
v-114h355l79 77l104 -77q17 -12 22 -24q8 -15 -5 -28q-6 -5 -17 -5h-813l52 -22q45 -18 38 -41q-5 -17 -49 -23l-36 -5q-12 -19 -25 -38h775l61 73l72 -49q37 -25 42 -44q5 -20 -25 -37q-7 -4 -13 -7q-9 -4 -27 -14q-23 -252 -29 -287q52 -4 125 -4q47 0 175 7l4 -33
q-100 -21 -127 -93q-52 6 -138 12q-44 3 -69 8q-40 -79 -88 -115q-72 -53 -149 -52q4 47 -27 70q-38 28 -159 64l7 38q30 -9 87 -21l68 -16q88 -10 90 -10q40 0 74 59q-126 27 -327 89q-186 -183 -494 -273l-15 35q119 44 239 123q121 80 182 145q-32 15 -49 23
q-70 32 -128 64q-131 -107 -210 -149q-95 -50 -208 -91l-17 31q225 114 365 243q-48 36 -101 68l15 34q71 -33 130 -57q42 51 82 110l-230 1q-83 -110 -284 -249l-23 33q229 198 290 400h-79q-48 0 -148 -11l-40 86q121 -18 188 -18h334v114h-228q-64 0 -149 -11l-39 86
q127 -18 188 -18h228v110h-568v-276q0 -292 -53 -474q-56 -194 -223 -333l-27 25q127 156 167 331q40 181 40 436v235l-4 86q-2 66 -4 95l112 -72h560v108h-392q-68 0 -148 -10l-39 85q119 -18 187 -18h879zM1540 332q18 76 28 302h-205q-65 -139 -135 -238q89 -29 312 -64z
M1142 421q65 91 118 212l-186 1q-60 -85 -118 -144q86 -37 186 -69zM1202 1713h-402l47 -24q35 -18 39 -33q9 -29 -39 -29h-47q-103 -91 -234 -145q-135 -55 -395 -102l-10 39q261 68 402 152q93 55 152 142h-415q-8 -80 -32 -131q-56 -119 -140 -105q-42 7 -39 50
q2 28 39 52q82 54 110 148q8 31 23 146h39v-102h753q-34 97 -132 182l23 30q86 -37 128 -64q63 -41 63 -85q0 -40 -36 -63h710l60 72l65 -50q62 -47 65 -61q8 -26 -37 -32l-46 -6q-61 -52 -125 -104l-28 20l51 103h-514v-83q0 -52 53 -69q54 -17 189 -17q184 0 264 27
q31 10 43 11q35 4 57 -28q12 -17 11 -31q-2 -33 -66 -41q-158 -22 -262 -22q-14 0 -50 1q-19 1 -52 3q-152 6 -205 27q-80 32 -80 132v90z" />
  </g>

</svg>
