<?xml version="1.0" standalone="no"?>
<!DOCTYPE svg PUBLIC "-//W3C//DTD SVG 1.1//EN" "http://www.w3.org/Graphics/SVG/1.1/DTD/svg11.dtd" >
<svg xmlns="http://www.w3.org/2000/svg" xmlns:xlink="http://www.w3.org/1999/xlink" version="1.1" viewBox="0 -200 1000 1000">
  <g transform="matrix(1 0 0 -1 0 800)">
   <path fill="currentColor"
d="M494 585q-7 -19 -22 -24t-55 -5q-17 0 -31 -0.5t-25 -0.5q-24 0 -37 5t-19 22.5t-7 52t-1 94.5v117h-159q-7 -39 -11 -63t-8.5 -37t-11.5 -17t-20 -4q-11 0 -18 6t-7 14q0 6 7 16.5t18 28t23.5 42t23.5 58.5l5 8v-32h113v133l67 -30l-21 -56v-47h103l29 36
q9 -14 20 -23.5t21.5 -16.5t17.5 -12.5t7 -10.5q0 -2 -12.5 -6t-30 -11.5t-35.5 -17.5t-29 -23l-4 4q9 10 14.5 21.5t5.5 21.5q0 18 -15 18h-69l41 -28q-14 -30 -17.5 -58t-3.5 -55q0 -17 -0.5 -31.5t-0.5 -25.5q0 -27 9.5 -38t45.5 -11q17 0 27 3.5t15 9.5t6.5 14t2.5 17
q6 -17 17 -31.5t31 -26.5zM204 767q16 -20 26 -35t18 -31l-27 -23q-31 -49 -74 -89.5t-100 -66.5l-10 -1q21 16 44 38.5t45 52.5t42 68.5t36 86.5zM349 318v-242q-4 -25 -10 -39.5t-14.5 -22t-18.5 -10t-22 -3.5q-3 10 -7.5 20t-14 20.5t-25.5 20.5t-43 20l-1 8
q26 -11 48 -19.5t38 -8.5q12 0 19 8t7 28v196q-21 -36 -49.5 -77t-62.5 -78t-72.5 -65.5t-79.5 -40.5v1q40 28 74 64.5t62 75t49 76.5t35 69h-153l-44 -10l-20 32h84q4 4 8 18.5t7.5 35t7 45t6.5 49.5l60 -27l-22 -20l-51 -103h160v153h-163l-43 -10l-22 31h301l41 30
l50 -53h-119v-151h53l40 42l61 -63h-154zM610 410l-8 -20v-130h99v150h-91zM749 410v-150h106v150h-106zM602 238v-156h99v156h-99zM749 238v-156h106v156h-106zM550 -2v471l59 -37h235l36 43l53 -56l-28 -35v-356q-5 -7 -20.5 -15t-29.5 -10v58h-253v-36q-4 -7 -11 -11
t-14.5 -6.5t-15 -4.5t-11.5 -5zM668 747l21 -41h-68l-10 -8l-15 25h52zM670 649l24 -41h-72l-11 -8l-13 26h53zM829 748l25 -37h-55l-20 -7l-11 24h44zM829 662l25 -42h-57l-18 -9l-12 26h47zM842 920l43 43l58 -63h-190v-82h105l31 40l49 -46l-23 -29v-204
q-4 -18 -14.5 -39t-38.5 -37q-4 18 -10 26t-14 12t-17.5 6t-19.5 7v13q10 0 20 -1.5t19 -1.5q12 0 20 5.5t8 25.5v202h-115v-261q-10 -10 -22.5 -16t-25.5 -8v285h-106l-13 -27v-236q-12 -8 -25 -15t-21 -7v336l59 -30h106v81h-132l-49 -11l-17 32h335z" />
  </g>

</svg>
