<?xml version="1.0" standalone="no"?>
<!DOCTYPE svg PUBLIC "-//W3C//DTD SVG 1.1//EN" "http://www.w3.org/Graphics/SVG/1.1/DTD/svg11.dtd" >
<svg xmlns="http://www.w3.org/2000/svg" xmlns:xlink="http://www.w3.org/1999/xlink" version="1.1" viewBox="0 -205 1024 1024">
  <g transform="matrix(1 0 0 -1 0 819)">
   <path fill="currentColor"
d="M343 880l67 -50q7 -6 7 -9q0 -4 -7 -5q-27 5 -48 -3t-99 -41q-6 -3 -12 -5l68 -32q2 -4 1 -6t-6 -2q-18 -3 -29 -17q-16 -20 -31 -38h113l32 31l49 -52q3 -7 1 -9t-9 0q-24 2 -42 -15t-46 -44q-9 -10 -18 -18h86l37 37l44 -45q7 -6 5 -10q-1 -5 -11 -7l-18 -7v-151l6 -87
q-1 -18 -13 -24t-31 -7v34h-257v-16q0 -13 -10 -22q-9 -9 -35 -14q4 36 7 141v150q1 14 -5 27q-41 -29 -92 -56l-8 10q144 89 210 219q2 5 -7 18q-3 5 -4 7q-69 -28 -161 -54l-2 14q117 50 178 80q62 30 75 42q13 13 7 28zM546 648l37 -38h173q71 82 70 107q2 13 -4 29l9 6
l61 -50q16 -14 6 -16q-24 4 -40 -5l-4 -4q-36 -38 -69 -67h76l36 40l46 -44q7 -6 5 -10q-1 -5 -11 -7l-18 -9v-170l3 -62q-1 -18 -13 -25q-12 -8 -29 -8v40h-125v-100h134l27 36l64 -44q7 -5 6 -8q-1 -2 -12 -2h-219v-117l2 -53q0 -21 -12 -30t-37 -14q4 37 7 143v71h-128
q-27 0 -45 -13l-32 31h205v100h-124v-16q0 -21 -10 -30q-9 -9 -35 -14q4 36 7 113v190q2 12 -19 33zM133 941h14v-35h733l39 36l50 -57q2 -6 -1 -8q-2 -1 -9 1q-26 -3 -38 -7q-8 -3 -26 -13q14 8 -2 -1q-15 -9 -58 -45l-11 10l57 64h-735q-1 -8 -1 -16q-3 -39 -16 -65
q-15 -27 -34 -36q-21 -10 -30 6q-10 15 9 35q18 18 36 42q17 24 23 89zM755 476v-105h125v105h-125zM371 656h-132q-38 -44 -81 -78l14 -13h133q49 59 66 91zM591 476v-105h124v105h-124zM880 594h-125v-102h125v102zM591 594v-102h124v102h-124zM182 426v-112h110v112h-110
zM328 426v-112h111v112h-111zM182 549v-109h110v109h-110zM439 549h-111v-109h111v109zM579 853l5 13q196 -24 288 -72q25 -13 34 -34q8 -26 -9 -33q-10 -6 -43 23q-64 59 -275 103zM560 744l5 11q87 -26 117 -71q13 -20 10 -40t-19 -22q-16 -3 -23 26q-16 55 -90 96z
M127 224h16v-64q-2 -31 -13 -55q-13 -25 -33 -33q-21 -6 -28 9q-8 15 7 27q17 13 27 30q12 17 24 86zM386 998l4 13q68 -9 95 -19q27 -12 40 -25q12 -14 12 -29q-1 -16 -18 -18q-17 -1 -26 17q-10 19 -31 34t-76 27zM428 234l10 12q7 -7 21 -18q17 -14 24 -21q20 -20 29 -39
q10 -19 4 -40t-22 -18q-17 3 -17 26q-1 21 -10 42q-9 22 -39 56zM319 225l10 11q27 -34 42 -54q14 -19 20 -41q5 -25 -4 -37q-11 -12 -23 -9q-13 4 -12 24q0 21 -4 40q-5 21 -29 66zM201 224l10 11q27 -34 42 -54q13 -19 19 -41q5 -25 -4 -37t-22 -9q-13 4 -12 24
q0 21 -4 40q-6 24 -29 66z" />
  </g>

</svg>
