<?xml version="1.0" standalone="no"?>
<!DOCTYPE svg PUBLIC "-//W3C//DTD SVG 1.1//EN" "http://www.w3.org/Graphics/SVG/1.1/DTD/svg11.dtd" >
<svg xmlns="http://www.w3.org/2000/svg" xmlns:xlink="http://www.w3.org/1999/xlink" version="1.1" viewBox="0 -205 1024 1024">
  <g transform="matrix(1 0 0 -1 0 819)">
   <path fill="currentColor"
d="M132 719l43 -43h165l30 43l52 -42q9 -6 9 -11q0 -4 -9 -8l-20 -9v-338q0 -25 -16 -51q-16 -24 -94 -34q14 47 -103 80l6 16q85 -20 119 -25q18 -1 31 6q14 8 13 74v279h-177v-508l5 -97q5 -36 -54 -46q5 39 5 187v475q-4 22 -20 41zM680 503q-2 25 -27 46l9 11l86 -38
q9 -4 11 -7q2 -4 -4 -7q-18 -5 -31 -16v-387q-1 -35 -17 -54q-15 -19 -84 -35q-3 31 -26 42q-22 10 -87 26l4 18l42 -10q72 -16 97 -5q27 9 27 52v364zM379 721q-19 1 -20 25q0 24 -10 47q-8 18 -23 34q-12 13 -38 32h-89q-56 -118 -119 -176l-13 11q60 86 95 174
q35 90 31 105q-3 15 -15 29l8 9l86 -50q4 -4 3 -6q0 -3 -5 -5q-19 1 -36 -8q-5 -13 -16 -39l-9 -24h215l32 41l68 -51q8 -6 7 -8q-2 -3 -13 -2h-196q27 -14 44 -29q49 -41 38 -85q-4 -17 -25 -24zM580 1003l91 -51q4 -4 3 -6q0 -3 -5 -5q-20 2 -39 -8l-9 -21
q-10 -22 -14 -33h248l36 47l71 -57q8 -6 7 -8q-2 -3 -13 -2h-236q21 -15 38 -30q49 -41 43 -87q-3 -22 -23 -21q-19 2 -22 23q-2 22 -11 41t-23 38q-10 15 -33 36h-91q-47 -96 -94 -143l-18 6q42 65 74 145q32 81 28 96q-3 15 -14 29zM571 748l70 -33q9 -6 5 -10
q-19 -7 -31 -14q-15 -36 -32 -70h298l27 28l62 -45q2 -5 -1 -7q-2 -2 -9 0q-33 2 -62 -50q-23 -34 -42 -60l-17 4l50 110h-317q-55 -94 -136 -165l-10 7q74 100 111 179q38 82 36 93q-2 14 -10 25zM544 434l70 -36q17 -10 7 -15q-28 3 -51 -32q-91 -139 -183 -201l-10 10
q79 90 122 157q43 68 44 82q1 13 -7 28zM772 403l8 12q84 -53 125 -90q39 -33 55 -63q35 -73 -6 -87q-21 -2 -30 35q-9 38 -43 81q-32 45 -109 112z" />
  </g>

</svg>
