<?xml version="1.0" standalone="no"?>
<!DOCTYPE svg PUBLIC "-//W3C//DTD SVG 1.1//EN" "http://www.w3.org/Graphics/SVG/1.1/DTD/svg11.dtd" >
<svg xmlns="http://www.w3.org/2000/svg" xmlns:xlink="http://www.w3.org/1999/xlink" version="1.1" viewBox="0 -205 1024 1024">
  <g transform="matrix(1 0 0 -1 0 819)">
   <path fill="currentColor"
d="M716 472l89 -36q14 -5 6 -11q-21 -7 -30 -21v-86h88l32 40l68 -50q8 -5 7 -8q-2 -2 -13 -2h-182v-178l2 -57q3 -35 -53 -44q5 37 7 146v133h-189q-11 -111 -56 -165q-60 -75 -160 -111l-10 12q78 50 130 115q39 47 50 149h-102q-27 1 -45 -13l-34 33h182q2 24 3 51v52
q-4 20 -24 34l8 11l85 -32q6 -2 7 -5q0 -3 -5 -6q-13 -5 -25 -14v-36q0 -29 -2 -55h187v96q2 16 -30 46zM709 626l6 11q144 -55 172 -113q23 -52 -16 -59q-16 0 -27 27q-1 8 -6 15q-33 -2 -92 -5q-122 -7 -188 -11q-69 -3 -94 -7q-24 -3 -62 -27l-30 62q35 3 45 11
q12 8 30 24q71 67 131 160q3 23 -8 33l8 8l75 -47q5 -3 5 -6t-5 -5q-19 2 -33 -8q-66 -84 -175 -171l377 14q-7 9 -16 18q-28 31 -97 76zM579 1001l88 -46q4 -4 3 -6q0 -3 -5 -5q-17 -1 -34 -8q-13 -31 -29 -63h265l36 46l70 -56q8 -6 7 -8q-2 -3 -13 -2h-266q34 -24 50 -38
q45 -38 38 -77q-4 -21 -23 -24q-18 -2 -24 25q-5 27 -13 44q-8 18 -19 32q-9 12 -38 38h-81q-48 -90 -117 -169l-13 11q123 197 125 269q-3 14 -15 27zM181 1003l86 -46q4 -4 3 -6q0 -3 -5 -5q-17 -1 -34 -8q-19 -40 -40 -75h218l32 40l68 -50q8 -6 7 -8q-2 -3 -13 -2h-217
q25 -16 38 -28q44 -41 37 -78q-4 -22 -23 -25q-18 -2 -23 25q-4 27 -12 44q-7 17 -19 32q-9 11 -30 30h-74q-61 -101 -132 -169l-13 11q79 107 118 188t35 94q-3 14 -15 27zM366 620l20 -6l-114 -245q-55 -106 -63 -153q-7 -42 4 -111q11 -67 -25 -70t-23 80q14 80 -3 100
q-16 20 -98 33l2 16q52 -3 76 -3t36 19q12 20 42 63q30 44 146 277zM39 546l4 13q129 -36 151 -80q16 -25 8 -45q-7 -19 -21 -17q-9 2 -26 29q-17 30 -31 46q-22 27 -85 54zM125 688l4 13q121 -30 149 -72q28 -47 -9 -64q-13 0 -24 23q-10 24 -34 49q-23 26 -86 51z" />
  </g>

</svg>
