<?xml version="1.0" standalone="no"?>
<!DOCTYPE svg PUBLIC "-//W3C//DTD SVG 1.1//EN" "http://www.w3.org/Graphics/SVG/1.1/DTD/svg11.dtd" >
<svg xmlns="http://www.w3.org/2000/svg" xmlns:xlink="http://www.w3.org/1999/xlink" version="1.1" viewBox="0 0 2048 2048">
  <g transform="matrix(1 0 0 -1 0 2048)">
   <path fill="currentColor"
d="M392 1691q-111 -109 -317 -234l-24 28q255 185 412 485l122 -54q40 -18 40 -40q0 -24 -46 -27l-51 -4q-50 -62 -80 -97h398l98 102l121 -107q20 -18 15 -33q-5 -19 -25 -19h-663zM401 809l30 -7q71 -17 74 -44q2 -19 -40 -37l-34 -14v-330q0 -119 10 -212q3 -28 4 -45
q2 -47 -45 -50q-65 -5 -65 54v542q0 56 -2 85q-106 -90 -243 -158l-21 31q166 111 277 240q93 109 188 286l123 -59q29 -14 29 -31q0 -28 -40 -30l-53 -4q-99 -131 -192 -217zM1379 1668q19 -9 29 -14q69 -32 101 -50q65 -38 73 -86q4 -26 -12 -45q-14 -19 -38 -16
q-26 3 -48 48q-33 67 -125 132zM1228 1699q-115 -137 -295 -250l-22 29q231 194 359 495l106 -47q49 -22 49 -44q0 -21 -48 -28l-41 -6q-36 -56 -64 -93l474 1l98 101l121 -106q20 -18 15 -34q-5 -18 -26 -18h-726zM566 1665q20 -10 78 -36q115 -52 121 -116q1 -20 -12 -37
q-16 -19 -39 -17q-22 2 -47 52q-27 54 -121 125zM474 1452l126 -58q29 -13 29 -30q0 -28 -40 -31l-53 -3q-114 -127 -200 -184q-155 -103 -253 -143l-19 31q288 183 410 418zM1177 1453q199 -126 199 -229q0 -39 -33 -70h328l99 102l120 -107q21 -18 16 -33q-6 -19 -26 -19
l-529 -3v-373h279l99 102l120 -107q21 -18 16 -34q-6 -18 -26 -18l-488 -3v-427h386l99 102l121 -107q20 -18 15 -34q-5 -18 -26 -18h-1095q-65 0 -148 -11l-39 85q122 -17 187 -17h404v427h-269q-68 0 -149 -11l-39 86q125 -18 188 -18l269 3v373h-293q-69 0 -148 -10
l-40 85q128 -18 188 -17l333 2q-14 17 -25 63q-26 105 -118 210z" />
  </g>

</svg>
