<?xml version="1.0" standalone="no"?>
<!DOCTYPE svg PUBLIC "-//W3C//DTD SVG 1.1//EN" "http://www.w3.org/Graphics/SVG/1.1/DTD/svg11.dtd" >
<svg xmlns="http://www.w3.org/2000/svg" xmlns:xlink="http://www.w3.org/1999/xlink" version="1.1" viewBox="0 -205 1024 1024">
  <g transform="matrix(1 0 0 -1 0 819)">
   <path fill="currentColor"
d="M377 368h230v87h-129q-27 1 -45 -13l-34 27h208v83h-197q-27 1 -45 -13l-34 29h276v93h-132q-18 2 -38 -14l-33 28h203v57q2 16 -26 38l9 12l81 -28q14 -5 6 -11q-21 -7 -30 -21v-47h137l37 41l43 -43q7 -6 6 -10t-10 -6l-20 -8v-81h43l28 36l56 -42q8 -5 7 -8
q-2 -2 -13 -2h-121v-33l6 -55q3 -26 -46 -36v27h-153v-87h152l28 32l52 -38q8 -5 7 -8q-2 -2 -13 -2h-226v-92h194l28 44l60 -50q8 -5 7 -8q-2 -2 -13 -2h-276v-37l2 -56q3 -34 -49 -42q5 36 7 135h-179q-27 1 -45 -13l-34 29h258v92h-151q-27 1 -45 -13zM979 108v-16
q-53 -4 -55 -38q-164 -2 -325 3t-289 73q-40 20 -77 52q-32 -45 -74 -85q-47 -45 -127 -75l-10 10q86 58 125 99q30 29 59 76q-64 66 -120 170l24 1q55 -85 113 -142q38 66 63 201h-120l-26 -28l-44 42q26 8 39 24l151 192h-155q-17 -2 -29 -11l-31 31h207l31 27l44 -35
q8 -7 8 -11t-8 -6q-19 -5 -35 -16l-153 -189h107l32 34l46 -46q14 -10 3 -16q-18 -3 -31 -14l-28 -106q-16 -54 -42 -99q34 -27 70 -46q112 -58 257 -63q146 -5 213 -2q22 1 60 3q99 4 127 6zM199 1007l84 -46q4 -4 3 -6q0 -3 -5 -5q-19 1 -34 -8q-19 -33 -39 -62h219l32 40
l68 -50q8 -6 7 -8q-2 -3 -13 -2h-228q29 -17 43 -29q42 -36 35 -71q-4 -20 -22 -23q-17 -2 -22 23q-4 25 -12 41q-7 16 -19 29q-9 11 -32 30h-69q-78 -112 -156 -163l-13 11q81 75 131 161q51 87 47 100q-3 14 -15 27zM607 1005l88 -46q4 -4 3 -6q0 -3 -5 -5q-15 1 -38 -10
q-15 -31 -31 -58h257l36 46l70 -56q8 -6 7 -8q-2 -3 -13 -2h-292q35 -18 53 -34q34 -25 41 -56q5 -29 -22 -37q-16 -2 -24 22q-7 25 -17 41q-9 17 -22 28q-11 9 -40 36h-46q-41 -64 -92 -112l-13 11q101 150 106 210q-2 14 -14 27zM647 568h153v93h-153v-93zM800 552h-153
v-83h153v83z" />
  </g>

</svg>
