<?xml version="1.0" standalone="no"?>
<!DOCTYPE svg PUBLIC "-//W3C//DTD SVG 1.1//EN" "http://www.w3.org/Graphics/SVG/1.1/DTD/svg11.dtd" >
<svg xmlns="http://www.w3.org/2000/svg" xmlns:xlink="http://www.w3.org/1999/xlink" version="1.1" viewBox="0 0 2048 2048">
  <g transform="matrix(1 0 0 -1 0 2048)">
   <path fill="currentColor"
d="M545 1240q-102 -133 -178 -198q-90 -77 -189 -132l-19 32q106 75 206 209q113 151 172 329l98 -36q74 -27 74 -54t-51 -36l-44 -8q-17 -24 -35 -53h1143l79 83l72 -49q60 -41 60 -68q0 -31 -82 -61q-18 -655 -69 -871q-39 -169 -149 -229q-54 -29 -136 -42q2 73 -59 99
q-18 8 -171 53l10 40q187 -47 266 -51t112 66q37 77 57 289q20 224 38 687zM1192 826l34 -16q44 -19 42 -38q-3 -22 -47 -29l-44 -5q-24 -45 -89 -130h144l79 80l114 -86q21 -16 16 -34q-6 -19 -26 -19h-432v-142h338l87 88l115 -94q20 -16 15 -33q-6 -20 -26 -20h-529v-57
q0 -23 5 -64q5 -48 7 -84q3 -49 -14 -64q-6 -5 -30 -7q-62 -6 -62 41v235h-298q-118 0 -192 -8l-39 89q92 -22 231 -22h298v142h-211q-116 0 -192 -8l-38 88q92 -21 287 -21h12q-18 79 -37 124q-8 17 -50 91h-65q-150 -1 -195 -4l-39 88q101 -23 231 -23h297v114h-189
q-119 0 -191 -8l-38 88q92 -25 229 -25h189v25q-4 133 -7 148l108 -24q82 -18 85 -44q3 -29 -49 -43l-43 -12v-50h189l80 81l114 -86q20 -16 15 -33t-26 -17h-372v-114h352l80 80l114 -86q21 -16 16 -33q-6 -18 -26 -18zM714 823q110 -88 110 -155q0 -40 -25 -60h231
q38 88 71 217zM1256 1665q-108 -124 -258 -216l-22 29q207 180 313 461l110 -47q51 -21 50 -44q-2 -24 -45 -29l-44 -4q-33 -52 -63 -94h460l98 102l121 -107q20 -18 16 -34q-5 -17 -33 -17h-703zM1458 1599q249 -108 249 -196q0 -25 -19 -40q-17 -15 -41 -9q-25 7 -46 49
q-47 92 -162 169zM567 1622q249 -107 249 -197q0 -24 -18 -40q-18 -14 -41 -8q-26 7 -47 48q-48 93 -162 170zM431 1660q-100 -143 -279 -276l-24 32q187 163 335 529l106 -48q46 -20 46 -43q0 -25 -46 -29l-34 -2l-38 -60l-30 -46h380l98 102l121 -107q20 -18 16 -34
q-5 -17 -33 -17z" />
  </g>

</svg>
