<?xml version="1.0" standalone="no"?>
<!DOCTYPE svg PUBLIC "-//W3C//DTD SVG 1.1//EN" "http://www.w3.org/Graphics/SVG/1.1/DTD/svg11.dtd" >
<svg xmlns="http://www.w3.org/2000/svg" xmlns:xlink="http://www.w3.org/1999/xlink" version="1.1" viewBox="0 -205 1024 1024">
  <g transform="matrix(1 0 0 -1 0 819)">
   <path fill="currentColor"
d="M474 739l70 -35q9 -6 5 -10q-19 -4 -31 -12q-27 -49 -52 -90h340l32 40l68 -50q8 -6 7 -8q-2 -3 -13 -2h-226v-108h106l32 40l60 -46q8 -6 7 -8q-2 -3 -13 -2h-192v-110h104l32 40l56 -46q8 -6 7 -8q-2 -3 -13 -2h-186v-120h154l32 40l68 -49q8 -6 7 -8q-2 -3 -13 -2
h-457l1 -20q2 -33 -45 -42q5 36 7 145v266q-61 -88 -113 -120l-8 7q82 102 128 189q47 87 43 99q-4 14 -12 24zM97 41l-44 52q65 36 99 53q34 14 55 17v261h-91q-18 2 -36 -12l-32 32h138l39 43l46 -51q7 -6 6 -10t-10 -6l-20 -8v-250q17 -4 41 -20q33 -27 74 -40
q41 -14 131 -21l142 -2q146 -2 341 9v-18q-70 -2 -77 -35h-268q-189 0 -254 22q-64 21 -91 44q-27 22 -51 31q-54 15 -138 -91zM204 987l74 -38q4 -4 3 -6q0 -3 -5 -5q-17 1 -32 -8q-9 -19 -28 -53q-4 -8 -6 -11h220l32 40l68 -50q8 -6 7 -8q-2 -3 -13 -2h-223
q20 -10 33 -21q29 -27 35 -59q4 -28 -21 -33q-17 -1 -22 21q-4 24 -15 41q-9 18 -18 28q-6 8 -25 23h-70q-56 -93 -115 -142l-9 11q63 79 99 155t33 88q-2 12 -10 20zM602 987l78 -42q4 -4 3 -6q0 -3 -5 -5q-15 1 -36 -10q-7 -17 -23 -47q-3 -7 -5 -11h226l30 42l68 -52
q8 -6 7 -8q-2 -3 -13 -2h-227q18 -9 29 -19q29 -27 35 -59q4 -28 -21 -33q-17 -1 -22 21q-4 24 -15 40q-9 17 -18 28q-6 8 -23 22h-67q-38 -68 -82 -116l-9 11q90 169 93 213q-1 12 -11 24zM638 322h-174v-103v-17h174v120zM638 448h-174v-110h174v110zM638 572h-174v-108
h174v108zM159 705l4 12q57 -21 78 -36q22 -14 34 -32q25 -49 -10 -62q-18 -1 -24 21t-20 41q-13 20 -62 56zM599 737l4 12q86 -34 102 -73q17 -47 -19 -55q-17 2 -20 21q-3 20 -14 39q-10 20 -53 56z" />
  </g>

</svg>
