<?xml version="1.0" standalone="no"?>
<!DOCTYPE svg PUBLIC "-//W3C//DTD SVG 1.1//EN" "http://www.w3.org/Graphics/SVG/1.1/DTD/svg11.dtd" >
<svg xmlns="http://www.w3.org/2000/svg" xmlns:xlink="http://www.w3.org/1999/xlink" version="1.1" viewBox="0 0 2048 2048">
  <g transform="matrix(1 0 0 -1 0 2048)">
   <path fill="currentColor"
d="M1575 372h-491v-64l4 -48q11 -145 11 -156q0 -39 -49 -42q-64 -4 -64 46l-1 264h-483q-23 -106 -60 -165q-52 -83 -152 -158l-24 31q102 103 133 226q24 99 24 274v133q0 31 -6 171l102 -72h1036l69 76l83 -55q40 -26 40 -48q0 -35 -76 -57l-1 -500q0 -142 -154 -171
q-12 70 -47 93q-33 21 -160 44l8 45q143 -22 190 -26q68 -6 68 57v102zM1575 428v134h-491v-134h491zM1575 618l1 137h-492v-137h491zM985 755h-466v-137h466v137zM519 562q-2 -78 -8 -133l474 -1v134h-466zM620 1261l109 -24q82 -18 86 -44q3 -26 -51 -43l-40 -14v-27
q1 -60 10 -74q11 -19 55 -23q77 -8 256 -8q225 0 271 12q50 13 66 119q10 68 18 116l35 -4l1 -115q1 -62 16 -81q4 -5 37 -33q16 -14 17 -29q6 -76 -310 -76l-141 1l-154 -1q-169 0 -214 20q-59 26 -59 115v65q0 102 -8 148zM482 1251l37 -8q-24 -116 -60 -182
q-67 -122 -158 -122q-22 0 -39 19q-13 15 -11 34q3 26 58 50q91 41 137 120q15 26 36 89zM963 1291q102 -41 145 -68q81 -53 81 -115q0 -48 -43 -52q-29 -3 -44 25q-2 5 -17 41q-23 54 -139 143zM1489 1263q280 -135 280 -247q0 -23 -14.5 -42t-32.5 -20q-36 -2 -61 60
q-28 68 -84 131q-25 27 -108 91zM900 1612q184 -92 189 -163q3 -40 -25 -69h699l60 69l91 -75q35 -28 34 -45q-2 -20 -38 -27l-50 -9q-25 -28 -37 -42q-47 -54 -94 -94l-35 20q43 90 61 147h-1432q-12 -106 -43 -166q-46 -91 -113 -97q-32 -3 -50 19q-15 18 -9 44
q7 28 51 61q60 43 91 110q28 59 32 175h43q0 -46 -2 -90h681q-11 16 -22 56q-17 63 -106 150zM1429 1677q21 -11 32 -15q73 -35 106 -55q69 -40 77 -92q4 -26 -11 -45t-39 -16q-28 3 -52 52q-34 68 -138 143zM533 1677q23 -11 83 -39q125 -58 131 -128q1 -20 -12 -37
q-15 -19 -38 -17q-25 2 -53 57q-28 57 -130 136zM1275 1764h463l83 102l120 -107q21 -18 16 -33q-5 -19 -26 -19h-698q-73 -80 -180 -154l-25 30q142 145 230 374l116 -53q44 -20 44 -42q0 -23 -40 -26l-54 -5zM437 1764h412l72 102l121 -107q20 -18 15 -33q-5 -19 -26 -19
h-637q-95 -119 -241 -237l-28 35q187 183 294 452l121 -55q40 -18 40 -40q0 -23 -45 -26l-52 -4z" />
  </g>

</svg>
