<?xml version="1.0" standalone="no"?>
<!DOCTYPE svg PUBLIC "-//W3C//DTD SVG 1.1//EN" "http://www.w3.org/Graphics/SVG/1.1/DTD/svg11.dtd" >
<svg xmlns="http://www.w3.org/2000/svg" xmlns:xlink="http://www.w3.org/1999/xlink" version="1.1" viewBox="0 -205 1024 1024">
  <g transform="matrix(1 0 0 -1 0 819)">
   <path fill="currentColor"
d="M788 749l70 -36q7 -4 6 -7q0 -4 -8 -7q-8 2 -28 -6q-22 -39 -74 -107h115l32 40l68 -50q8 -5 7 -8q-2 -2 -13 -2h-202v-103h88l39 37l44 -45q7 -6 5 -10q-1 -5 -11 -7l-18 -9v-267l6 -103q0 -31 -46 -31v70h-367v-33q4 -37 -47 -44q5 37 7 112v317q-3 22 -17 38l14 11
l34 -36h116q4 45 2 103h-136q-27 1 -45 -13l-34 33h335q31 56 47 90q17 37 15 46q-1 9 -12 19zM352 723l57 -42q7 -5 6 -8q0 -4 -8 -5q-15 2 -34 -12q-40 -45 -81 -83q34 -45 53 -96q27 -74 30 -181q3 -106 -32 -174q-34 -70 -123 -92q-4 24 -24 36t-76 28l4 16
q54 -12 78 -16t48 2t50 46q26 38 29 109q3 72 -4 123l-3 19l-30 -38q-136 -142 -248 -183l-4 12q54 35 117 90q60 53 153 171q-4 15 -9 31q-12 36 -36 74q-94 -79 -201 -117l-5 13q99 57 150 101q6 6 18 16q12 11 18 16v1q-39 53 -111 119l10 10q58 -36 116 -97q5 -5 9 -11
q8 7 23 23l11 11q44 44 46 54q3 11 -7 25zM643 443q-7 -69 -29 -105q-40 -64 -113 -104v-23h367v82l-14 -2q-49 -5 -93 2q-32 6 -34 56v94h-84zM868 196h-367v-78h367v78zM617 1001l78 -42q4 -4 3 -6q0 -3 -5 -5q-15 1 -36 -10q-13 -30 -29 -58h255l30 42l68 -52q8 -6 7 -8
q-2 -3 -13 -2h-255q18 -9 29 -19q29 -27 35 -59q4 -28 -21 -33q-17 -1 -22 21q-4 24 -15 40q-9 17 -18 28q-6 8 -23 22h-68q-43 -72 -101 -128l-9 11q104 156 113 225q-1 12 -11 24zM211 1001l74 -38q4 -4 3 -6q0 -3 -5 -5q-17 1 -32 -8q-9 -19 -28 -53q-4 -8 -6 -11h220
l32 40l68 -50q8 -6 7 -8q-2 -3 -13 -2h-227q20 -10 33 -21q29 -27 35 -59q4 -28 -21 -33q-17 -1 -22 21q-4 24 -15 41q-9 18 -18 28q-6 8 -25 23h-66q-56 -93 -115 -142l-9 11q63 79 99 155t33 88q-2 12 -10 20zM501 443v-188q60 48 86 106q14 31 19 82h-105zM817 320l51 3
v120h-107v-71q0 -37 8 -45t48 -7zM727 566h-81q3 -58 -1 -103h82v103zM532 733q57 -25 88 -72q29 -52 -3 -65q-19 -7 -25 20t-22 54t-46 53z" />
  </g>

</svg>
