<?xml version="1.0" standalone="no"?>
<!DOCTYPE svg PUBLIC "-//W3C//DTD SVG 1.1//EN" "http://www.w3.org/Graphics/SVG/1.1/DTD/svg11.dtd" >
<svg xmlns="http://www.w3.org/2000/svg" xmlns:xlink="http://www.w3.org/1999/xlink" version="1.1" viewBox="0 0 2048 2048">
  <g transform="matrix(1 0 0 -1 0 2048)">
   <path fill="currentColor"
d="M429 1151l72 -9q48 -6 100 -6h116l62 61l94 -67q21 -15 16 -34q-5 -18 -26 -18h-262q-88 0 -141 -11l-35 81q-128 -124 -299 -218l-22 22q347 262 454 567l131 -59q34 -15 30 -33q-5 -21 -42 -23l-62 -4l-1 -1l50 -15q157 -50 289 -118q103 -54 109 -118q2 -21 -10 -38
q-16 -23 -40 -19q-21 4 -55 40q-136 141 -359 237q-81 -130 -169 -217zM868 351l-25 -16q-198 -129 -401 -216q-12 -60 -28 -68q-19 -11 -43 27l-74 118l17 3v707q-4 70 -10 130l106 -65h479l61 72l72 -50q37 -25 42 -44q5 -20 -26 -37q-6 -4 -13 -7q-9 -4 -27 -14v-344
q-4 -23 -13 -31t-39 -14q-45 -9 -45 13v16h-491v-310q216 59 429 164q-23 24 -84 78l22 27q284 -169 273 -287q-3 -23 -18 -41t-33 -18q-38 0 -59 69q-24 76 -72 138zM410 915v-139h491v139h-491zM410 718v-131h491v131h-491zM1217 1241q-4 97 -16 136l128 -88h341l68 76
l89 -60q45 -30 40 -53q-6 -24 -89 -47q-46 -60 -111 -157q-44 -65 -96 -127q283 -231 259 -441q-17 -146 -246 -174q-10 65 -56 87q-35 16 -113 30l8 45q156 -27 189 -27q107 0 107 88q0 176 -201 387q19 40 149 317h-354l1 -879q0 -107 12 -222q3 -28 3 -54q0 -38 -49 -42
q-62 -4 -62 42zM1397 1659q99 -44 135 -64q114 -67 114 -133q0 -25 -18 -40q-18 -14 -41 -8q-26 7 -47 48q-47 93 -162 170zM414 1661q-141 -130 -319 -220l-19 31q268 179 421 474l123 -59q28 -14 28 -30q0 -27 -39 -30l-53 -4q-47 -59 -87 -106h392l98 102l121 -107
q20 -17 15 -33q-5 -18 -25 -18h-656zM1312 1717h445l99 102l120 -107q20 -18 16 -34q-5 -17 -36 -17h-694q-108 -108 -279 -197l-21 35q124 88 198 173q83 94 173 274l101 -46q54 -25 53 -46q-1 -27 -46 -27h-44q-12 -19 -85 -110zM594 1658q233 -103 233 -188
q0 -26 -18 -41t-41 -8q-24 7 -43 47q-43 89 -150 164z" />
  </g>

</svg>
