<?xml version="1.0" standalone="no"?>
<!DOCTYPE svg PUBLIC "-//W3C//DTD SVG 1.1//EN" "http://www.w3.org/Graphics/SVG/1.1/DTD/svg11.dtd" >
<svg xmlns="http://www.w3.org/2000/svg" xmlns:xlink="http://www.w3.org/1999/xlink" version="1.1" viewBox="0 0 2048 2048">
  <g transform="matrix(1 0 0 -1 0 2048)">
   <path fill="currentColor"
d="M642 1269v23q0 88 -8 133l115 -25q77 -16 80 -43q3 -29 -50 -43l-41 -11v-34h539v27q0 83 -8 125l115 -24q76 -17 79 -43q4 -29 -49 -44l-42 -11v-30h253l102 108l144 -110q13 -10 16 -24q2 -12 -7.5 -23t-22.5 -11h-486l1 -151l34 -26q20 -16 12 -31q-6 -11 -29 -11
h-650v-19q0 -28 -45 -31q-62 -3 -57 44l4 34l1 30l3 49l-1 112h-257q-151 0 -193 -13l-39 97q91 -24 232 -24h255zM739 1047h536v162h-536v-162zM587 812v-240q52 11 98 26l14 -36q-264 -114 -506 -160q-10 -62 -36 -62q-15 0 -27 26l-55 118q110 8 281 39q102 17 135 26
v162h-168q-139 0 -193 -10l-33 84q86 -16 226 -16h167v38q-1 92 -8 127l115 -25q76 -16 79 -43q4 -29 -49 -43zM1149 844l63 74l72 -50q42 -29 42 -48q2 -21 -63 -54l-1 -204l42 -34q17 -14 3 -30q-6 -8 -18 -8l-447 1l-1 -17q-1 -26 -41 -30q-61 -6 -56 43l3 34l2 31l2 49
l-3 309l118 -66h283zM842 547h325v241h-325v-241zM1379 942l115 -25q76 -16 79 -43q4 -29 -49 -43l-42 -11v-66h232l80 80l110 -87q18 -15 11 -35q-5 -16 -25 -16h-408v-101q1 -64 37 -80q37 -16 146 -16q78 0 156 20q35 8 53 7q21 -1 38 -23q12 -15 10 -34q-3 -30 -78 -42
q-82 -12 -166 -12q-195 0 -243 37q-47 37 -48 135v195q-1 117 -8 160zM1638 360q106 -59 155 -92q104 -72 104 -142q0 -18 -13 -33q-15 -17 -34 -15q-29 2 -53 49q-44 85 -88 129q-18 19 -91 76zM1161 367q206 -143 194 -241q-6 -51 -48 -48q-38 3 -48 59q-16 99 -118 207z
M703 380q78 -69 119 -122q60 -78 44 -141q-12 -49 -54 -41q-37 7 -40 64q-4 101 -91 220zM318 382l37 -9q-14 -99 -40 -164q-58 -145 -153 -145q-27 0 -45 21q-15 16 -10 38q6 23 50 42q72 31 107 85q27 42 54 132zM1234 1695q-78 -85 -254 -205l-25 30q196 170 306 416
l116 -53q43 -20 43 -42q0 -24 -39 -26l-55 -4q-24 -36 -42 -59h467l98 102l121 -107q20 -18 15 -33q-5 -19 -25 -19h-726zM407 1692q-139 -167 -293 -262l-24 28q214 188 339 479l122 -55q40 -18 40 -40q0 -24 -46 -27l-51 -3l-27 -39l-17 -24h383l98 101l121 -107
q20 -17 15 -33q-5 -18 -25 -18h-635zM530 1665q24 -11 97 -42q135 -58 148 -128q5 -26 -9 -45t-38 -17q-25 1 -38 19q-5 7 -24 39q-35 60 -156 142zM1393 1642q24 -11 97 -42q135 -59 149 -128q5 -26 -10 -46q-13 -18 -38 -17q-25 2 -38 20q-5 7 -24 39q-35 61 -155 141z
" />
  </g>

</svg>
