<?xml version="1.0" standalone="no"?>
<!DOCTYPE svg PUBLIC "-//W3C//DTD SVG 1.1//EN" "http://www.w3.org/Graphics/SVG/1.1/DTD/svg11.dtd" >
<svg xmlns="http://www.w3.org/2000/svg" xmlns:xlink="http://www.w3.org/1999/xlink" version="1.1" viewBox="0 0 2048 2048">
  <g transform="matrix(1 0 0 -1 0 2048)">
   <path fill="currentColor"
d="M558 1224l-14 -11q-138 -124 -289 -184l-18 33q180 105 304 307l114 -58q26 -13 25 -33q-1 -23 -30 -24l-58 -1l-2 -2q19 -5 28 -7q216 -60 249 -132q10 -22 0 -45q-12 -24 -38 -26q-28 -2 -68 45q-68 82 -203 138zM1453 1227q-147 -136 -304 -198l-18 33
q180 106 304 307l113 -58q27 -13 25 -33q-1 -23 -29 -24l-64 -1l-5 -5l30 -8q135 -37 217 -71q72 -30 95 -79q11 -24 -1 -46t-37 -24q-30 -2 -68 45q-62 75 -233 151zM586 326q-54 -192 -332 -279l-13 32q195 85 252 247h-180q-124 0 -192 -10l-38 88q100 -23 230 -23h193
q7 43 7 67q0 64 -6 129l141 -23q33 -6 36 -27q2 -20 -29 -30l-47 -15q-4 -62 -10 -101h760v17q0 114 -8 160l109 -24q82 -18 85 -44q3 -25 -50 -43l-41 -13l1 -53h261l99 101l121 -106q20 -18 15 -34q-4 -15 -35 -15l-461 -1l-2 -93q-1 -39 7 -104q3 -27 3 -44
q0 -41 -57 -49q-47 -6 -47 25v265h-772zM1649 959l61 72l72 -49q37 -26 42 -44q5 -20 -25 -38q-7 -3 -13 -6q-9 -5 -27 -14l-2 -89l30 -24q19 -15 4 -30q-6 -6 -18 -6h-523v-13q0 -28 -45 -30q-62 -4 -57 43l4 34l1 31l3 49l3 156l109 -42h381zM1250 785h412v118h-412v-118z
M116 575l-38 88q94 -24 230 -24h660v741h-534q-113 0 -192 -8l-38 88q97 -23 230 -23h1212l98 101l120 -107q21 -18 16 -33q-6 -18 -27 -18h-788v-741h675l98 102l121 -107q21 -18 16 -33q-6 -18 -26 -18h-1641q-108 0 -192 -8zM1378 1668q86 -40 110 -53q92 -50 95 -106
q1 -20 -14 -36q-16 -18 -38 -15q-26 2 -48 47q-33 68 -125 132zM1199 1703q-78 -76 -221 -175l-25 30q113 103 180 201q52 77 107 200l116 -53q43 -20 43 -42q0 -24 -39 -27l-55 -4q-27 -40 -53 -73h485l99 101l120 -107q21 -17 16 -33q-5 -18 -26 -18h-747zM394 1703
q-109 -124 -286 -250l-25 28q222 194 352 489l121 -54q40 -18 40 -40q0 -24 -46 -27l-51 -4q-33 -48 -60 -85h372l99 101l120 -107q21 -17 16 -33q-6 -18 -26 -18h-626zM535 1661q20 -9 30 -13q70 -30 102 -47q78 -42 78 -96q0 -18 -12 -33q-16 -18 -38 -17q-24 2 -51 51
q-29 53 -129 122zM752 963l61 72l72 -50q37 -25 42 -44q4 -20 -26 -37q-6 -3 -12 -7q-10 -4 -27 -14l-2 -92l30 -24q18 -14 4 -30q-6 -6 -18 -6h-524v-13q0 -28 -45 -30q-61 -4 -56 43l3 34l2 31l2 49v159l112 -41h382zM352 785h412v122h-412v-122z" />
  </g>

</svg>
