<?xml version="1.0" standalone="no"?>
<!DOCTYPE svg PUBLIC "-//W3C//DTD SVG 1.1//EN" "http://www.w3.org/Graphics/SVG/1.1/DTD/svg11.dtd" >
<svg xmlns="http://www.w3.org/2000/svg" xmlns:xlink="http://www.w3.org/1999/xlink" version="1.1" viewBox="0 -205 1024 1024">
  <g transform="matrix(1 0 0 -1 0 819)">
   <path fill="currentColor"
d="M74 490h752l32 40l68 -50q8 -5 7 -8q-2 -2 -13 -2h-197v-311l165 6l30 40l60 -44q13 -7 10 -9q-2 -2 -20 -3l-245 -10v-49l2 -37q3 -35 -53 -44q5 37 7 128l-557 -23q-29 1 -49 -14l-41 34l242 10v326h-121q-27 1 -45 -13zM44 774h426v178q2 16 -30 46l9 14l89 -36
q14 -5 6 -11q-21 -7 -30 -21v-170h65q77 72 106 102q54 53 32 74l8 7l70 -46q17 -10 7 -15q-22 3 -46 -10q-60 -46 -151 -112h249l33 38l66 -46q11 -7 8 -10q-2 -3 -19 -2h-376q16 -13 46 -36l15 -12q70 -53 173 -81q55 -14 91 -17t88 -9v-14q-66 3 -86 -34q-60 16 -136 43
q-76 28 -131 70q-50 38 -89 90h-23v-157l3 -40q2 -37 -54 -46q5 39 7 139v104h-23q-43 -54 -116 -103q-146 -100 -305 -124l-3 12q149 49 255 122q62 42 109 93h-264q-27 1 -45 -13zM679 470h-361v-97h361v97zM679 247h-361v-102l361 12v90zM679 357h-361v-94h361v94z
M185 931l4 15q134 -32 160 -93q26 -56 -13 -63q-15 2 -26 27q-10 27 -35 55q-24 28 -90 59z" />
  </g>

</svg>
