<?xml version="1.0" standalone="no"?>
<!DOCTYPE svg PUBLIC "-//W3C//DTD SVG 1.1//EN" "http://www.w3.org/Graphics/SVG/1.1/DTD/svg11.dtd" >
<svg xmlns="http://www.w3.org/2000/svg" xmlns:xlink="http://www.w3.org/1999/xlink" version="1.1" viewBox="0 -200 1000 1000">
  <g transform="matrix(1 0 0 -1 0 800)">
   <path fill="currentColor"
d="M742 615h134v203h-125l-9 -13v-190zM876 377v216h-134v-216h134zM743 127h133v225h-134zM752 839h-10q15 26 24 43t15 32.5t10.5 34.5t10.5 49l50 -50l-12 -18q-11 -15 -18.5 -26.5t-14.5 -22t-15 -20.5t-20 -22h94l30 49l55 -57l-28 -36l1 -772q-8 -13 -21.5 -17
t-26.5 -8v106h-134v-79q-5 -9 -20.5 -16.5t-27.5 -10.5v883zM497 860h76l35 45l52 -49l-30 -34v-414h-145v-62q-6 -15 -22 -19t-29 -6v578zM485 795v-363h96v402h-86zM244 541q20 -14 40.5 -31.5t38 -36t29 -37t13.5 -33.5q1 -5 1 -8.5v-7.5q0 -20 -8 -31t-18 -11t-19 10
t-11 33q-14 48 -30 79t-36 59v-500q-17 -26 -44 -26h-6v479q-22 -75 -54 -147t-80 -126l-13 7q89 174 118 387h-54l-41 -13l-17 37h141v377l68 -31l-18 -61v-213q36 63 56 111.5t24 76.5l61 -51l-25 -20l-113 -141l-3 -48h62l42 44l59 -68h-163v-59zM73 876
q22 -21 37.5 -41.5t25 -37.5t14 -28.5t5.5 -14.5q0 -3 0.5 -6.5t0.5 -6.5q0 -25 -10.5 -38.5t-21.5 -13.5q-9 0 -16 9.5t-8 31.5q-1 24 -6.5 58t-26.5 83z" />
  </g>

</svg>
