<?xml version="1.0" standalone="no"?>
<!DOCTYPE svg PUBLIC "-//W3C//DTD SVG 1.1//EN" "http://www.w3.org/Graphics/SVG/1.1/DTD/svg11.dtd" >
<svg xmlns="http://www.w3.org/2000/svg" xmlns:xlink="http://www.w3.org/1999/xlink" version="1.1" viewBox="0 0 2048 2048">
  <g transform="matrix(1 0 0 -1 0 2048)">
   <path fill="currentColor"
d="M690 867q-38 79 -94 163l25 22q91 -83 153 -173q59 -88 59 -146q0 -65 -48 -65q-36 0 -52 64q-23 84 -24 90q-28 -10 -442 -144l-8 -33q-9 -38 -30 -35q-20 2 -35 40l-48 119q48 35 137 146q132 165 231 334q-48 -16 -118 -35q-60 -18 -142 -43l-8 -30q-9 -36 -25 -37
q-21 -1 -37 36l-52 118q59 59 168 276q111 223 163 380l118 -65q54 -30 54 -49q0 -30 -62 -30h-37q-101 -178 -324 -483l-13 -18q37 2 120 10q174 15 225 20q58 85 132 276l112 -60q47 -25 47 -47q0 -28 -53 -28h-39q-213 -379 -518 -657q110 15 355 62zM145 484
q78 -77 136 -154q73 -95 68 -171q-4 -72 -62 -66q-35 4 -41 68q-15 145 -130 297zM378 557q267 -193 246 -309q-10 -59 -56 -54q-38 4 -52 73q-18 83 -65 153q-21 31 -97 113zM1457 1105l12 -3q82 -18 86 -43q3 -27 -51 -44l-40 -13v-165h305l98 102l121 -107q20 -18 15 -33
q-5 -19 -26 -19h-513v-388q0 -107 12 -219q3 -28 3 -54q0 -38 -49 -42q-62 -4 -62 42v661h-326q-67 0 -149 -11l-39 86q121 -18 188 -18h326v129q0 75 -5 139h-158v-32q0 -28 -45 -30q-61 -4 -56 43l3 34l1 31l3 49l1 344h-61q-69 0 -149 -11l-39 86q123 -18 188 -18h61v138
q0 121 -8 160l101 -24q69 -16 73 -44q4 -27 -51 -41l-27 -8v-181h442v142q0 112 -7 159l102 -24q69 -16 73 -43t-51 -43l-22 -6v-185h46l99 102l120 -107q21 -18 16 -33q-6 -19 -26 -19h-255v-354l38 -28q12 -9 15 -24q6 -30 -15 -30zM1200 1544v-379h442v379h-442z
M1550 688q163 -123 254 -210q135 -127 120 -209q-11 -54 -55 -45q-31 7 -58 71q-72 173 -280 363zM600 657q256 -166 244 -281q-2 -23 -17 -41q-16 -19 -34 -18q-34 2 -52 68q-21 78 -68 143q-24 32 -94 103zM1118 698l122 -56q29 -13 31 -28q5 -28 -37 -34l-52 -8
q-140 -214 -348 -351l-24 29q112 94 185 205q88 133 123 243z" />
  </g>

</svg>
