<?xml version="1.0" standalone="no"?>
<!DOCTYPE svg PUBLIC "-//W3C//DTD SVG 1.1//EN" "http://www.w3.org/Graphics/SVG/1.1/DTD/svg11.dtd" >
<svg xmlns="http://www.w3.org/2000/svg" xmlns:xlink="http://www.w3.org/1999/xlink" version="1.1" viewBox="0 0 2048 2048">
  <g transform="matrix(1 0 0 -1 0 2048)">
   <path fill="currentColor"
d="M525 1248l35 -25q17 -11 16 -24q-3 -23 -37 -23h-43q-102 -91 -142 -117q-47 -31 -93 -57h39l84 1q176 3 211 6q83 78 157 182l104 -67q32 -21 31 -36q-2 -25 -42 -23l-47 2q-198 -194 -500 -322q313 11 520 32q-32 55 -90 129l22 23q88 -71 124 -106q79 -77 88 -147
q7 -55 -40 -66q-36 -9 -51 26q-4 10 -15 51q-6 26 -16 48q-99 -19 -225 -39v-466q0 -87 -59 -129q-32 -22 -96 -42q-8 75 -45 96q-17 10 -131 36l8 46q125 -19 177 -19q50 0 50 53v415q-167 -15 -247 -25l-7 -32q-5 -24 -21 -31q-21 -9 -36 29l-49 119q117 22 371 206
q-106 -15 -204 -27q-37 -5 -65 -8l-11 -43q-8 -26 -26 -23q-12 2 -27 30l-56 110q151 61 282 257h-156q-67 0 -149 -11l-39 86q120 -18 188 -18h233v163h-135q-67 0 -148 -11l-40 86q124 -18 188 -18h135v148h-196q-68 0 -148 -11l-40 86q124 -18 188 -18h196v43
q0 121 -8 160l109 -24q82 -19 85 -44q4 -29 -49 -44l-41 -11v-80h212l80 81l114 -86q21 -16 16 -34q-6 -18 -26 -18h-396v-148h129l80 81l114 -86q21 -16 15 -34q-5 -18 -26 -18h-312v-163h223l80 81l114 -86q21 -16 16 -33q-6 -19 -26 -19h-478zM713 598q257 -156 272 -272
q3 -28 -16 -50q-16 -19 -38 -19q-28 0 -43 29q-3 6 -25 62q-43 106 -175 221zM1237 1475q-66 -114 -159 -218l-29 27q156 256 247 658l151 -49q34 -11 35 -31q2 -25 -45 -33l-47 -7l-28 -71l-14 -36h327l77 84l110 -84q25 -20 25 -41q0 -25 -103 -67q-71 -218 -236 -445
q155 -133 441 -214v-34q-90 -13 -115 -77q-252 126 -385 259q-97 -99 -227 -176q-62 -37 -275 -120l-15 38q315 170 448 326q-63 82 -103 155q-10 18 -52 102q-10 18 -28 54zM1266 1535q121 -203 215 -304q76 111 118 199q34 72 86 227l-361 -1q-24 -63 -58 -121zM308 599
l120 -48q28 -11 30 -30q4 -27 -36 -31l-42 -5q-140 -168 -290 -262l-19 25q144 141 237 351zM1685 762l69 77l83 -56q40 -26 40 -48q0 -27 -77 -61v-433l33 -23q30 -21 32 -41q2 -24 -35 -24h-570v-48q0 -15 -18 -26q-24 -16 -53 -10q-38 9 -34 76l4 64q2 59 4 76q3 48 3 61
v367q0 36 -11 126l116 -77h414zM1260 705v-494h441v494h-441z" />
  </g>

</svg>
