<?xml version="1.0" standalone="no"?>
<!DOCTYPE svg PUBLIC "-//W3C//DTD SVG 1.1//EN" "http://www.w3.org/Graphics/SVG/1.1/DTD/svg11.dtd" >
<svg xmlns="http://www.w3.org/2000/svg" xmlns:xlink="http://www.w3.org/1999/xlink" version="1.1" viewBox="0 -205 1024 1024">
  <g transform="matrix(1 0 0 -1 0 819)">
   <path fill="currentColor"
d="M488 777l27 -32h298l39 37l40 -45q7 -6 5 -10q-1 -5 -11 -7l-18 -9v-228l2 -45q2 -32 -38 -31v42h-305v-17q2 -36 -43 -44q5 37 7 100v240q-3 22 -17 38zM284 498l10 10q98 -63 98 -129q0 -27 -21 -30t-24 22q-1 18 -9 40q-7 -1 -21 -4q-58 -9 -105 -18
q-100 -15 -134 -48l-40 64q26 4 52 14q82 90 152 183q9 12 18 23l-69 -9q-104 -10 -123 -44l-42 65q29 8 38 17q10 9 34 39q65 83 142 230q-3 23 -12 33l8 8l79 -52q5 -4 5 -7q0 -4 -5 -6q-22 2 -39 -8q-79 -124 -186 -252l185 8q39 56 45 77q-1 19 -12 28l10 10l77 -53
q5 -2 5 -5t-5 -8q-25 3 -43 -9q-58 -91 -235 -276l215 18q-12 29 -48 69zM832 591h-305v-122h305v122zM527 607h305v118h-305v-118zM483 941q1 -26 1 -46h421l25 31l55 -46q2 -7 0 -9q-3 -2 -10 0q-21 -3 -43 -27q-3 -3 -4 -5q-12 -14 -40 -56l-15 6l34 86h-423l-1 -11
q0 -44 -28 -76q-30 -30 -50 -8q-12 15 6 30t33 40t24 91h15zM398 312h492l32 40l68 -50q8 -5 7 -8q-2 -2 -13 -2h-507q-27 1 -45 -13zM573 256l64 -41q7 -7 7 -10t-7 -4q-26 1 -35 -8q-9 -10 -69 -59q-60 -51 -155 -100l-8 12q154 112 197 180q7 13 -4 22zM747 234l10 12
q136 -67 176 -129q34 -59 -5 -71q-19 -2 -32 28t-47 69q-34 37 -102 91zM117 280q11 -116 -18 -168q-37 -55 -70 -22q-11 17 14 35q25 17 40 46q15 30 17 109h17zM294 326l10 10q59 -44 81 -96q21 -62 -14 -74q-20 -3 -22 21t-11 59t-44 80zM183 301l14 6q49 -60 61 -116
q10 -59 -26 -63q-21 2 -18 28q3 29 -3 63q-6 36 -28 82zM601 424l4 12q86 -21 104 -58q20 -42 -15 -50q-16 -1 -22 19t-19 37q-13 18 -52 40z" />
  </g>

</svg>
