<?xml version="1.0" standalone="no"?>
<!DOCTYPE svg PUBLIC "-//W3C//DTD SVG 1.1//EN" "http://www.w3.org/Graphics/SVG/1.1/DTD/svg11.dtd" >
<svg xmlns="http://www.w3.org/2000/svg" xmlns:xlink="http://www.w3.org/1999/xlink" version="1.1" viewBox="0 0 2048 2048">
  <g transform="matrix(1 0 0 -1 0 2048)">
   <path fill="currentColor"
d="M1218 459v-250q0 -142 -155 -170q-10 69 -47 92q-32 21 -159 44l8 46q140 -23 189 -27q68 -5 68 57v199q-98 -10 -278 -21q-103 -7 -217 -18l-14 -32q-11 -27 -28 -27q-11 0 -25 30l-53 116q215 49 481 158q-13 -1 -59 -6q-174 -13 -224 -19l-7 -29q-6 -23 -23 -23
q-16 0 -31 36l-35 83q103 33 148 58q171 96 264 211l116 -50q28 -12 28 -28q0 -25 -39 -27l-54 -3q-158 -93 -290 -144q106 1 240 0q42 -1 98 0q148 80 266 176l110 -71q28 -18 26 -32q-3 -22 -45 -19l-55 3q-169 -92 -336 -153q-124 -46 -372 -118q381 16 881 54
q-68 73 -111 100l20 30q249 -132 257 -225q6 -61 -47 -64q-24 -1 -39 22q-3 4 -23 47q-8 16 -26 42q-108 -14 -371 -43zM1349 1725v-137h391l62 72l70 -49q38 -27 42 -44q5 -20 -25 -37q-6 -4 -12 -7q-9 -4 -27 -14v-181q0 -38 -55 -44q-39 -3 -39 20v24h-524l79 -17
q82 -18 86 -44q3 -27 -48 -44l-46 -15v-33h306l80 81l113 -86q22 -17 16 -33t-28 -16h-487v-45q0 -56 31 -70q55 -25 250 -25q139 0 205 11q71 12 83 72l23 123l43 -6l-6 -98q-3 -43 18 -62q4 -3 31 -22q15 -10 15 -26q0 -76 -371 -76q-249 0 -320 18q-95 24 -95 134v126
q0 99 -6 153l-657 -1l40 -9q89 -21 91 -47q1 -19 -55 -41l-41 -15v-58h305l80 80l114 -86q21 -16 16 -34q-5 -15 -28 -15h-487v-135q231 27 494 77l12 -38q-124 -43 -270 -84q-33 -10 -141 -36q-34 -8 -81 -21l-3 -26q-5 -32 -21 -35q-20 -2 -34 27l-63 125h16v226
q0 90 -4 122q-1 12 -1 21q-58 -2 -91 -6l-34 79v-342q0 -387 -46 -589q-46 -204 -185 -387l-32 22q108 190 138 420q30 231 30 516v631q0 56 -13 185l118 -71h665q-11 10 -16 28q-20 71 -91 141l19 25q162 -84 158 -148q-2 -27 -29 -46h666l99 101l120 -107q20 -18 16 -33
q-6 -19 -26 -19h-603zM1349 1386h407v144h-407v-144zM1257 1725h-386v-137h386v137zM871 1386h386v144h-386v-144zM361 1406q98 -20 226 -20h190v144h-203q-117 0 -192 -8l-21 48v-164zM361 1606q78 -18 213 -18h203v137h-416v-119zM1451 397q138 -70 219 -124
q104 -69 91 -133q-5 -22 -25 -34q-18 -10 -36 -4q-21 8 -78 85q-51 70 -196 175zM740 392l104 -59q36 -20 36 -34q0 -20 -44 -23l-45 -3q-134 -105 -323 -181l-19 34q206 130 291 266z" />
  </g>

</svg>
