<?xml version="1.0" standalone="no"?>
<!DOCTYPE svg PUBLIC "-//W3C//DTD SVG 1.1//EN" "http://www.w3.org/Graphics/SVG/1.1/DTD/svg11.dtd" >
<svg xmlns="http://www.w3.org/2000/svg" xmlns:xlink="http://www.w3.org/1999/xlink" version="1.1" viewBox="0 0 2048 2048">
  <g transform="matrix(1 0 0 -1 0 2048)">
   <path fill="currentColor"
d="M1118 1512q122 -124 122 -198q0 -22 -17 -40q-14 -16 -34 -16q-37 0 -73 78q-16 35 -62 102q-126 -123 -346 -211l-15 34q196 107 311 245q-126 154 -267 264l-17 -3l-39 86q124 -18 188 -18l106 1h162l67 76l84 -54q40 -26 40 -49q0 -27 -78 -61q-64 -146 -132 -236z
M1143 1778h-274q-19 0 -79 -3q95 -56 263 -200q40 69 90 203zM1706 1836l68 76l84 -54q40 -26 40 -49q0 -27 -78 -61q-40 -99 -109 -197q36 -39 60 -67q94 -111 94 -186q0 -22 -16 -39.5t-35 -15.5q-37 3 -68 81q-22 55 -90 159q-146 -155 -356 -226l-11 38q209 108 318 257
q-101 128 -203 217l-15 -2l-39 86q123 -18 188 -18zM1532 1778q-40 -1 -76 -3q82 -60 190 -159q39 73 70 162h-184zM443 1319q63 122 116 273l114 -55q47 -23 49 -46q2 -28 -52 -30l-39 -1q-20 -37 -29 -55q-98 -186 -211 -321q-177 -214 -243 -278q70 13 234 51
q156 37 220 51q-45 84 -100 160l25 24q214 -185 223 -313q4 -62 -47 -66q-34 -2 -54 62q-27 87 -28 89q-18 -7 -154 -59q-206 -78 -273 -103l-7 -32q-9 -39 -30 -37q-20 2 -36 40l-52 116l15 12q108 91 323 455q-37 -14 -75 -28q-76 -28 -138 -52l-7 -30q-7 -37 -22 -39
q-21 -3 -40 33l-60 114q63 72 148 287q102 258 137 391l122 -57q56 -27 57 -45q1 -29 -59 -34l-37 -2q-98 -205 -302 -524q70 12 201 31q74 10 111 18zM272 584q267 -194 246 -309q-10 -59 -56 -54q-38 4 -52 73q-18 82 -65 152q-21 31 -97 114zM1234 1249l109 -24
q82 -18 85 -44t-50 -43l-42 -13v-76h312l99 100l120 -107q21 -18 16 -33q-6 -18 -26 -18h-521v-253h188l98 101l121 -107q20 -18 15 -33q-6 -19 -26 -19h-692q-68 0 -149 -11l-39 86q121 -17 188 -17h202v253h-327q-67 0 -149 -11l-39 86q122 -18 188 -18l327 1v36
q0 118 -8 164zM980 584l109 -24q82 -18 85 -44q4 -26 -50 -43l-40 -14l-1 -208q0 -60 45 -72q37 -10 199 -10q143 0 181 15q41 16 56 120q9 62 19 126l35 -5l-4 -130q-3 -57 15 -80q4 -5 38 -34q16 -14 17 -28q4 -62 -198 -73q-260 -13 -394 4q-104 13 -104 127v222
q1 105 -8 151zM837 488l37 -3q0 -132 -42 -241q-45 -115 -114 -125q-27 -4 -48 13q-16 14 -15 37q1 25 46 53q70 44 101 113q21 48 35 153zM90 503q78 -77 136 -153q73 -96 68 -171q-4 -72 -62 -66q-35 3 -41 68q-14 143 -130 297zM485 656q242 -155 232 -263
q-2 -23 -17 -41q-15 -17 -34 -17q-31 0 -49 63q-20 73 -65 135q-22 29 -89 96zM1248 633q226 -147 215 -247q-2 -22 -17 -38q-17 -18 -36 -17q-30 3 -44 59q-18 70 -62 130q-12 16 -78 87zM1666 567q269 -179 269 -305q0 -56 -50 -61q-46 -5 -60 64q-22 117 -181 276z" />
  </g>

</svg>
