<?xml version="1.0" standalone="no"?>
<!DOCTYPE svg PUBLIC "-//W3C//DTD SVG 1.1//EN" "http://www.w3.org/Graphics/SVG/1.1/DTD/svg11.dtd" >
<svg xmlns="http://www.w3.org/2000/svg" xmlns:xlink="http://www.w3.org/1999/xlink" version="1.1" viewBox="0 -205 1024 1024">
  <g transform="matrix(1 0 0 -1 0 819)">
   <path fill="currentColor"
d="M858 575l48 -34q17 -10 7 -15h-3q-23 0 -29 -8q-5 -5 -58 -76h84l22 34l54 -42q8 -5 7 -8q-2 -2 -13 -2h-176v-110h82l24 34l50 -42q8 -5 7 -8q-2 -2 -13 -2h-150v-71l2 -56q4 -35 -45 -42q5 35 7 129v40h-79q-27 1 -45 -13l-34 31h158v110h-99q-27 1 -45 -13l-26 23
q-13 -144 -105 -260l-12 11q82 138 83 302q1 59 1 118v122v144q-4 21 -16 33l13 13l30 -30h314l19 31l38 -35q7 -6 5 -10q-1 -5 -11 -7l-12 -11v-76l6 -53q0 -31 -42 -31v48h-304v-11q0 -85 -4 -255q0 -6 -1 -18q0 -11 -1 -17h202q31 51 43 73q14 24 15 29q2 5 -8 23z
M229 465l10 10q91 -61 89 -124q-1 -28 -20 -31t-20 25q-1 23 -9 48q-53 -14 -92 -22q-80 -13 -104 -57l-44 58q24 6 46 21q62 75 117 170q8 15 24 41l12 21q-10 -2 -29 -5q-25 -4 -36 -6q-80 -11 -105 -50l-46 55q35 11 41 18q4 4 18 23q5 6 8 10q56 76 126 224
q-5 24 -14 35l8 8l71 -48q5 -4 5 -7q0 -4 -5 -6q-19 2 -33 -8q-73 -132 -165 -243l166 19q19 38 29 63q-1 20 -12 29l10 10l71 -54q5 -4 5 -7q0 -4 -5 -6q-19 3 -35 -7q-118 -193 -207 -288l168 26q-13 28 -43 55zM355 61l-44 34q40 30 71 52q21 13 41 17v325h-45
q-18 2 -36 -12l-32 32h92l35 43l46 -51q7 -6 6 -10t-10 -6l-20 -8v-315q21 -6 51 -23q45 -28 151 -32q154 -3 325 10v-18q-62 -7 -53 -36h-170q-126 0 -181 14q-55 13 -80 33q-25 18 -50 27t-52 -16q-27 -26 -45 -60zM602 761h304v108h-304v-108zM609 606h270l24 34l50 -38
q10 -6 9 -10q-1 -3 -13 -4h-267q-27 1 -45 -13zM351 864l10 12q92 -52 106 -95q18 -53 -20 -59q-18 0 -21 28t-18 53t-57 61zM90 245q8 -119 -8 -158q-27 -53 -55 -28q-8 15 11 41q20 25 27 50q8 24 8 95h17zM233 282l10 10q90 -64 98 -117q2 -25 -17 -32t-24 21
q-4 29 -21 57q-15 28 -46 61zM143 256l12 6q48 -53 57 -88q9 -33 4 -56q-4 -23 -24 -21q-19 0 -16 29q4 41 -2 62q-5 22 -31 68zM696 723l6 10q102 -34 98 -86q-2 -24 -19 -24t-19 22t-19 41t-47 37zM654 557l6 10q79 -33 86 -84q2 -24 -16 -25t-20 18t-13 38t-43 43z" />
  </g>

</svg>
