<?xml version="1.0" standalone="no"?>
<!DOCTYPE svg PUBLIC "-//W3C//DTD SVG 1.1//EN" "http://www.w3.org/Graphics/SVG/1.1/DTD/svg11.dtd" >
<svg xmlns="http://www.w3.org/2000/svg" xmlns:xlink="http://www.w3.org/1999/xlink" version="1.1" viewBox="0 -205 1024 1024">
  <g transform="matrix(1 0 0 -1 0 819)">
   <path fill="currentColor"
d="M724 755l56 -24q11 -10 1 -15q-13 1 -27 -7q-22 -32 -42 -55h131l22 34l58 -40q8 -5 7 -8q-2 -2 -13 -2h-254v-66h136l22 30l52 -34q8 -5 7 -8q-2 -2 -13 -2h-204v-72h230l18 32l54 -38q8 -5 7 -8q-2 -2 -13 -2h-330v-281l91 16l6 -13l-97 -21v-59l2 -49q5 -39 -41 -44
q5 37 7 78v67q-142 -28 -165 -38q-24 -10 -40 -32l-34 48l71 11v317h-9q-27 1 -45 -13l-30 29h282v72h-127q-27 1 -45 -13l-34 27h206v66h-169q-27 1 -45 -13l-34 29h309q15 26 26 48q21 37 2 46zM257 473l10 10q95 -70 94 -129q0 -27 -20 -30q-19 -3 -21 22q-1 19 -9 41
q-21 -4 -61 -11q-31 -5 -46 -8q-53 -9 -79 -17q-26 -7 -52 -31l-32 62q22 0 44 12q74 90 133 185q2 4 7 13q2 3 3 4q-18 -2 -36 -5q-4 0 -11 -1q-84 -5 -109 -35l-33 53q27 8 36 17q11 9 30 37q55 79 132 248q-3 23 -12 33l8 8l73 -46q11 -12 0 -17q-22 2 -39 -8
q-76 -145 -168 -270l143 7q38 63 45 84q-1 19 -12 28l10 10l69 -51q5 -2 5 -5t-5 -8q-25 3 -43 -9q-51 -102 -199 -282l192 20q-13 29 -47 69zM994 84l2 -15q-53 4 -62 -23q-76 49 -118 93q-8 8 -16 15q-14 -13 -29 -27q-61 -56 -123 -81l-6 14q50 34 104 87q18 16 33 34
q-19 27 -36 61q-29 59 -47 123q-17 -2 -25 -13l-31 32h231l22 29l47 -32q7 -7 7 -11t-7 -5q-22 2 -33 -28t-43 -94q-17 -33 -41 -63q3 -3 6 -5q78 -77 165 -91zM670 1002l70 -34q14 -5 6 -11q-16 -4 -27 -18v-155h156l26 32l58 -40q8 -5 7 -8q-2 -2 -13 -2h-515
q-27 1 -45 -13l-34 31h204v161q2 17 -25 42l8 11l70 -34q14 -5 6 -11q-16 -4 -27 -18v-151h92v165q2 17 -25 42zM768 256q16 -29 32 -49q2 3 7 10q10 15 24 40q31 60 44 109h-156q20 -61 49 -110zM597 269h-136v-110l136 24v86zM597 371h-136v-88h136v88zM597 470h-136v-85
h136v85zM118 271q11 -110 -18 -160q-38 -55 -65 -22q-8 16 14 33q22 16 37 42q15 28 17 107h15zM820 957l56 -34q11 -10 1 -15q-14 1 -31 -11q-30 -40 -94 -106l-16 4q89 125 85 133q-1 7 -9 22zM273 317l10 10q53 -37 72 -78q19 -40 16 -60q-3 -19 -22 -19t-19 16
q-2 63 -57 131zM178 284l14 8q48 -69 59 -121q10 -52 -23 -52q-18 1 -16 27q2 23 -5 57q-7 35 -29 81zM408 935l6 10q83 -33 104 -79q17 -45 -16 -47q-12 2 -19 25q-19 55 -75 91zM506 747l6 8q66 -23 79 -57q11 -36 -16 -37q-13 2 -16 18q-2 17 -14 33t-39 35z" />
  </g>

</svg>
