<?xml version="1.0" standalone="no"?>
<!DOCTYPE svg PUBLIC "-//W3C//DTD SVG 1.1//EN" "http://www.w3.org/Graphics/SVG/1.1/DTD/svg11.dtd" >
<svg xmlns="http://www.w3.org/2000/svg" xmlns:xlink="http://www.w3.org/1999/xlink" version="1.1" viewBox="0 0 2048 2048">
  <g transform="matrix(1 0 0 -1 0 2048)">
   <path fill="currentColor"
d="M952 1918l106 -62h568l61 71l72 -50q37 -25 42 -43q5 -20 -25 -38q-6 -3 -13 -6q-9 -5 -26 -15l1 -179q3 -68 4 -72q4 -35 4 -41q0 -41 -57 -44q-50 -3 -48 27l1 23h-597l-1 -24q-1 -28 -43 -31q-61 -5 -56 44l3 33l2 31l2 49v327zM1045 1695h253v104h-253v-104z
M1394 1799v-104h248v104h-248zM1394 1543h248v98h-248v-98zM1045 1543h253v98h-253v-98zM1358 1420l106 -61h333l61 71l72 -50q37 -25 42 -44q5 -20 -25 -37q-6 -4 -13 -7q-9 -4 -26 -14v-193q3 -68 4 -72q4 -35 4 -42q0 -39 -55 -43q-48 -4 -48 26v26h-362l1 -22
q1 -28 -45 -31q-61 -3 -56 44l3 34l2 30l2 49v336zM1675 1302v-109h138v109h-138zM1675 1034h138v106h-138v-106zM1451 1193h132v109h-132v-109zM1451 1034h132v106h-132v-106zM1231 934q-8 -3 -15 -4q-19 -4 -34 7q-8 6 -8 12v31h-338v-26q1 -28 -44 -30q-62 -4 -57 43
l4 34l1 31l3 49v339l105 -61h311l61 71l72 -50q37 -25 41 -44q5 -20 -25 -37q-6 -4 -12 -7q-9 -4 -26 -14v-298l-1 -8q125 -57 114 -105q-4 -20 -30 -39h472l60 69l76 -65q51 -44 50 -60q-2 -23 -44 -27l-51 -6q-39 -44 -84 -87l-30 25q17 46 30 95h-953q-3 -58 -17 -95
q-33 -90 -98 -90q-27 0 -44 19q-12 13 -10 31q2 23 53 58q48 33 63 90q7 28 14 92h38l1 -27v-22h436q-12 5 -35 47q-16 28 -49 59zM1048 1302v-109h126v109h-126zM836 1193h120v109h-120v-109zM836 1034h120v106h-120v-106zM1048 1034h126v106h-126v-106zM987 191l-2 418
q0 65 -14 125l109 -75h528l61 72l72 -50q37 -25 42 -43q5 -20 -26 -38l-39 -20l-1 -389h52l90 86l112 -83q30 -22 22 -44q-6 -16 -22 -16h-1047q-64 0 -149 -10l-39 86q126 -19 188 -19h63zM1622 348v97h-542v-97h542zM1080 503h542v98h-542v-98zM1622 289h-542v-98h542v98z
M575 917q-34 83 -97 168l26 24q95 -99 139 -159q73 -98 67 -171t-62 -67q-27 3 -35 26q-2 7 -7 44q-8 62 -18 98q-118 -56 -363 -145l-11 -51q-5 -22 -17 -22q-19 0 -39 31l-72 113q47 28 147 170q94 134 176 283q-9 -4 -32 -10q-71 -22 -193 -55l-16 -49q-7 -21 -20 -20
q-19 1 -35 35l-53 113q51 31 108 140q138 261 209 520l129 -55q43 -19 38 -44q-3 -21 -46 -24l-44 -4q-118 -276 -306 -522q144 9 289 28q60 119 117 286l128 -51q38 -15 37 -37q-1 -26 -46 -30l-48 -4l-14 -26q-131 -249 -206 -354q-108 -151 -229 -276q28 6 55 11
q182 38 344 86zM120 482q197 -207 188 -319q-5 -61 -53 -61q-32 0 -43 41q-3 8 -9 63q-11 92 -110 254zM324 571q98 -90 134 -137q60 -77 57 -139q-3 -61 -50 -63q-29 -2 -41 35q-3 7 -12 56q-15 83 -113 225zM554 646q93 -79 126 -118q55 -66 53 -119q-3 -61 -50 -64
q-27 -1 -38 31q-3 7 -11 49q-14 71 -105 198z" />
  </g>

</svg>
