<?xml version="1.0" standalone="no"?>
<!DOCTYPE svg PUBLIC "-//W3C//DTD SVG 1.1//EN" "http://www.w3.org/Graphics/SVG/1.1/DTD/svg11.dtd" >
<svg xmlns="http://www.w3.org/2000/svg" xmlns:xlink="http://www.w3.org/1999/xlink" version="1.1" viewBox="0 -205 1024 1024">
  <g transform="matrix(1 0 0 -1 0 819)">
   <path fill="currentColor"
d="M652 991l91 -36q14 -5 6 -11q-21 -7 -30 -21v-233h174l30 42l68 -52q8 -5 7 -8q-2 -2 -13 -2h-221q21 -86 38 -151q32 -120 98 -211q30 -40 51 -54q21 -13 52 -24v-15q-34 1 -48 -3q-15 -3 -29 -17q-86 74 -138 242q-28 89 -51 233h-18v-499l3 -95q2 -37 -56 -46
q5 39 7 168v472h-9q-50 -335 -227 -509l-8 16q144 186 186 493h-107q-27 1 -45 -13l-34 33h244v243q2 16 -30 46zM151 976l82 -37q17 -10 7 -15q-19 -1 -39 -19q-13 -56 -30 -103h183l32 40l68 -48q8 -6 7 -9q-2 -3 -13 -3h-166v-216h106l32 40l68 -50q8 -5 7 -8
q-2 -2 -13 -2h-200v-346q43 13 88 28v178q2 16 -30 46l9 12l87 -36q14 -5 6 -11q-21 -7 -30 -21v-173l4 -46q1 -32 -46 -44v69q-56 -24 -151 -58q-58 -24 -73 -35t-33 -33l-42 52q18 7 30 23v258q-1 24 -24 43l7 11l78 -31q18 -5 10 -13q-16 -4 -29 -16v-245q9 3 27 8t66 20
v360h-121q-27 1 -45 -13l-34 33h200v216h-72q-43 -121 -108 -185l-12 7q39 65 66 142t38 131t9 65q-1 12 -12 26zM767 896l4 15q86 -27 121 -74q33 -55 -1 -71q-19 -4 -26 18q-6 24 -30 55q-23 32 -68 57z" />
  </g>

</svg>
