<?xml version="1.0" standalone="no"?>
<!DOCTYPE svg PUBLIC "-//W3C//DTD SVG 1.1//EN" "http://www.w3.org/Graphics/SVG/1.1/DTD/svg11.dtd" >
<svg xmlns="http://www.w3.org/2000/svg" xmlns:xlink="http://www.w3.org/1999/xlink" version="1.1" viewBox="0 -205 1024 1024">
  <g transform="matrix(1 0 0 -1 0 819)">
   <path fill="currentColor"
d="M134 990l82 -37q17 -10 7 -15q-19 -1 -39 -19q-13 -56 -30 -103h175l32 40l68 -48q8 -6 7 -9q-2 -3 -13 -3h-162v-216h98l32 40l68 -50q8 -5 7 -8q-2 -2 -13 -2h-192v-348q11 3 33 10l63 18v180q2 16 -30 46l9 12l87 -36q14 -5 6 -11q-21 -7 -30 -21v-173l4 -46
q1 -35 -46 -44v71q-38 -15 -145 -55q-12 -5 -18 -7q-58 -22 -73 -33t-33 -33l-42 52q20 7 30 23v258q-1 24 -24 43l7 11l78 -31q18 -5 10 -13q-16 -4 -29 -16v-245q24 7 76 22l21 6v360h-117q-27 1 -45 -13l-34 33h196v216h-68q-43 -121 -108 -185l-12 7q39 65 66 142
t38 131t9 65q-1 12 -12 26zM638 680l17 -7q34 85 64 202h-220q-27 1 -45 -13l-34 33h470l32 40l68 -50q8 -5 7 -8q-2 -2 -13 -2h-213q-27 -118 -67 -211q0 -1 -2 -4q-1 -3 -2 -5l29 -11q14 -5 6 -11q-21 -7 -30 -21v-464l3 -71q2 -36 -56 -46q5 39 7 157v385
q-31 -54 -73 -111q-76 -104 -156 -155l-4 20q138 139 218 320q1 1 1 2l1 1q-2 2 -7 8l-10 10zM751 568l6 17q136 -81 190 -190q35 -83 -10 -92q-21 -1 -32 45q-10 47 -51 107q-40 61 -103 113z" />
  </g>

</svg>
