<?xml version="1.0" standalone="no"?>
<!DOCTYPE svg PUBLIC "-//W3C//DTD SVG 1.1//EN" "http://www.w3.org/Graphics/SVG/1.1/DTD/svg11.dtd" >
<svg xmlns="http://www.w3.org/2000/svg" xmlns:xlink="http://www.w3.org/1999/xlink" version="1.1" viewBox="0 -205 1024 1024">
  <g transform="matrix(1 0 0 -1 0 819)">
   <path fill="currentColor"
d="M472 770l28 -38h157v97h-176q-27 0 -45 -13l-34 33h255v93q2 15 -27 38l9 12l82 -28q15 -5 8 -11q-23 -9 -32 -21v-83h184l29 36l64 -46q7 -5 6 -8q-1 -2 -12 -2h-271v-97h139l29 35l55 -43q7 -6 5 -10q-1 -5 -11 -7l-19 -9v-225l4 -26q-2 -18 -13 -29q-12 -12 -33 -16
l4 51l2 20v18h-162v-40l2 -33q0 -21 -12 -30q-15 -11 -37 -15q4 38 7 101v17h-148v-48l4 -43q0 -22 -13 -32q-12 -10 -34 -15q4 39 7 131v239q-3 19 -17 34zM327 495l82 -36q14 -5 6 -11q-21 -9 -31 -21v-186l5 -45q0 -19 -14 -31q-13 -9 -31 -15v65q-10 -2 -30 -7
q-30 -8 -105 -27q-70 -18 -86 -27q-15 -6 -27 -28l-42 45q10 2 22 20v245q-3 28 -20 43l7 15l73 -35q18 -6 10 -13q-19 -5 -30 -16v-235q22 5 65 12q23 4 35 6v370h-118q-27 0 -45 -13l-34 33h197v193h-81q-43 -76 -94 -129l-12 9q41 60 69 123q32 72 42 108q12 45 11 56
q-1 12 -12 26l6 8l78 -35q16 -12 7 -15q-18 -3 -37 -19q-20 -56 -48 -112h149l32 40l69 -48q8 -6 6 -9q-1 -3 -12 -3h-133v-193h90l28 37l65 -47q7 -5 6 -8q-1 -2 -12 -2h-177v-363q19 4 57 10q21 3 31 5v202q1 20 -26 46zM774 407l8 11l82 -22q10 -5 11 -8q2 -3 -4 -6
q-17 -7 -29 -17v-59h50l33 40l68 -50q7 -5 6 -8q-1 -2 -12 -2h-145v-171q-1 -28 -19 -51q-15 -18 -79 -33q-3 21 -22 34q-19 12 -75 24l4 18l34 -8q57 -14 86 -6q27 8 29 53v140h-327q-27 0 -45 -13l-34 33h406v70q-2 24 -26 31zM859 712h-162v-97h162v97zM697 599v-92h162
v92h-162zM509 712v-97h148v97h-148zM509 599v-92h148v92h-148zM530 256l5 12q51 -15 81 -34q29 -19 40 -39q11 -21 5 -37q-6 -13 -22 -13q-15 0 -21 20q-6 21 -22 39q-15 18 -66 52zM744 964l4 12q53 -11 81 -26q27 -15 36 -33t2 -34q-6 -15 -19 -12q-14 3 -17 17
q-5 15 -20 32q-15 18 -67 44z" />
  </g>

</svg>
