<?xml version="1.0" standalone="no"?>
<!DOCTYPE svg PUBLIC "-//W3C//DTD SVG 1.1//EN" "http://www.w3.org/Graphics/SVG/1.1/DTD/svg11.dtd" >
<svg xmlns="http://www.w3.org/2000/svg" xmlns:xlink="http://www.w3.org/1999/xlink" version="1.1" viewBox="0 0 2048 2048">
  <g transform="matrix(1 0 0 -1 0 2048)">
   <path fill="currentColor"
d="M1530 893v-334h251l80 81l114 -86q20 -15 14 -34q-5 -19 -24 -19h-435v-262q0 -142 -154 -170q-12 70 -47 93q-33 20 -160 43l8 46q142 -23 191 -27q67 -5 67 57v220h-253q-70 0 -149 -11l-39 86q122 -17 188 -17h253v322q-94 -15 -373 -28l-3 40q454 55 710 159l53 -61
q50 -58 31 -80q-12 -13 -50 -3q-25 7 -52 19q-65 -12 -182 -28zM183 357v491q0 117 -10 176l109 -24q82 -18 85 -44q4 -24 -42 -38l-54 -16v-527l165 44v730h-134q-63 0 -148 -11l-39 86q120 -17 187 -18l134 -1v390h-130q-86 -117 -176 -195l-27 24q101 144 151 257
q57 126 83 250l95 -35q71 -27 67 -57q-2 -18 -25 -20l-52 -6q-33 -77 -83 -161l262 1l87 88l109 -82q25 -18 30 -30q6 -15 -9 -29q-7 -5 -15 -5h-271v-390h90l88 88l120 -90q9 -7 12 -13q10 -18 -6 -36q-4 -5 -14 -5h-290v-261h83l81 88l122 -90q13 -10 16 -22
q6 -30 -24 -30h-278v-385q131 42 251 91l15 -38q-209 -126 -502 -227l-14 -44q-8 -27 -24 -29q-18 -2 -30 25l-57 127zM1746 855l75 -42q64 -35 59 -53q-6 -26 -92 -27q-63 -79 -143 -152l-29 26q71 97 130 248zM1240 1511h-246v-440q0 -340 -45 -548q-53 -246 -205 -431
l-34 22q133 226 163 481q27 232 27 476v384q0 74 -6 186l107 -72h295v232q0 120 -8 160l109 -24q83 -18 86 -44q3 -29 -50 -43l-40 -11v-80h263l81 80l113 -85q21 -16 16 -34t-26 -18h-447v-133h415l61 72l72 -50q37 -26 42 -44q6 -27 -75 -58q-50 -64 -104 -123l-33 21
q26 71 46 124h-485l45 -15q31 -10 35 -30q4 -26 -51 -42l-23 -7l2 -75l181 22l69 91l126 -91q18 -13 17 -27q-3 -16 -26 -19l-367 -41v-27q0 -52 48 -67t138 -15q114 0 213 21q66 14 88 8q46 -12 46 -58q0 -28 -39 -37q-8 -1 -86 -12l-68 -4q-202 -12 -302 7q-82 15 -106 43
q-27 34 -27 88v43l-103 -12l-62 -16l-49 72l214 22v41q0 65 -5 137zM1105 816q80 -37 120 -64q72 -48 69 -106q-1 -32 -23 -46q-32 -20 -60 19q-4 5 -37 68q-26 49 -89 103z" />
  </g>

</svg>
