<?xml version="1.0" standalone="no"?>
<!DOCTYPE svg PUBLIC "-//W3C//DTD SVG 1.1//EN" "http://www.w3.org/Graphics/SVG/1.1/DTD/svg11.dtd" >
<svg xmlns="http://www.w3.org/2000/svg" xmlns:xlink="http://www.w3.org/1999/xlink" version="1.1" viewBox="0 -205 1024 1024">
  <g transform="matrix(1 0 0 -1 0 819)">
   <path fill="currentColor"
d="M171 260h383v97h-189q-29 -44 -94 -86l-11 8q81 88 85 132q1 9 -8 20l3 4q-57 0 -81 1q-61 7 -56 56v110q-1 23 -10 39l9 4l36 -36h235l22 21l27 -22q8 -5 1 -11l-12 -12v-33l2 -19q-2 -7 -14 -21q-8 -8 -24 -14v30h-236v-35q-3 -32 56 -31h30q33 -1 54 -1q56 0 87 2
q40 1 47 17q8 13 10 51h11l2 -36q4 -22 16 -32q-20 -25 -53 -27q-22 -1 -31 -1h-25h-44h-43l46 -21q16 -8 7 -17q-12 0 -22 -4q-3 -4 -7 -12q-3 -5 -5 -8h395l28 37l64 -41q8 -6 6 -9q-1 -3 -12 -3h-262v-97h273l28 36l65 -46q7 -5 6 -8q-1 -2 -12 -2h-360v-148h237v80
q2 16 -30 46l9 12l88 -36q14 -5 6 -11q-22 -7 -31 -21v-66l4 -29q0 -21 -14 -31q-14 -9 -32 -15v51h-492l-35 -42l-50 40q26 24 30 44v66q3 22 -21 43l9 9l79 -38q8 -2 10 -5q1 -3 -3 -7q-20 -3 -32 -18v-72h228v148h-304q-27 0 -45 -13zM511 663l-8 5q56 55 72 78
q26 34 42 64q15 28 16 34v1q1 13 -4 19l7 2l49 -30q4 -3 3 -5q-1 -3 -6 -3q-12 0 -21 -9q-17 -27 -31 -43v-5h223l31 31l49 -34q6 -3 5 -7t-8 -4h-149v-80h52l34 31l48 -33q6 -5 5 -7q-1 -3 -10 -3h-129v-83h59l32 31l48 -35q7 -2 5 -5q-1 -3 -9 -3h-135v-90h84l32 34
l49 -38q6 -5 5 -7q-1 -3 -9 -3h-311l1 -8q-1 -14 -16 -30q-12 -11 -31 -14q2 11 5 61q1 14 1 21v234q-32 -33 -80 -67zM122 948l40 -44h720l27 35l60 -42q7 -7 6 -10t-12 -3h-792v-135q-1 -113 -1 -176q-2 -183 -20 -307q-19 -119 -126 -238l-8 14q84 112 99 247
q15 140 17 306q0 61 1 169v123q0 23 -23 49zM232 741l30 -17h179l31 18l28 -24q8 -6 0 -12l-8 -7v-23l1 -19q-1 -10 -12 -19q-9 -9 -25 -13v20h-187q-5 -11 -13 -16q-8 -4 -26 -7q2 12 4 36q0 12 1 20v41q-2 9 -14 16zM456 712h-185v-55h185v55zM630 487v-7h113v90h-113v-83
zM630 665v-83h113v83h-113zM630 757v-80h113v80h-113zM239 597v-57h108v57h-108zM475 597h-99v-57h99v57zM255 877l49 -35q2 -2 1 -5q-1 -2 -4 -1q-6 2 -18 0q-3 -1 -4 -1q-11 0 -37 -18l-31 -19q38 -16 54 -25q21 -11 24 -22q5 -20 -7 -25q-11 -3 -21 14q-7 13 -22 25
q-26 21 -51 30q23 21 43 36q19 18 19 24q2 12 -1 18zM487 873l49 -35q2 -2 1 -5q-1 -2 -4 -1q-6 2 -18 0q-3 -1 -4 -1q-11 0 -37 -18l-31 -19q38 -16 54 -25q21 -11 24 -22q5 -20 -7 -25q-11 -3 -21 14q-7 13 -22 25q-26 21 -51 30q23 21 43 36q19 18 19 24q2 12 -1 18z
M367 876l50 -35q2 -2 1 -5q-1 -2 -4 -1q-6 2 -18 0q-3 -1 -4 -1q-12 0 -38 -18l-31 -19q38 -16 54 -25q22 -11 25 -22q5 -20 -7 -25q-11 -3 -22 14q-7 13 -22 25q-26 21 -51 30q23 21 43 36q19 18 19 24q2 12 -1 18zM483 1005l4 11q48 -12 75 -24q25 -12 40 -29
q13 -18 10 -33q-4 -16 -18 -15q-15 0 -19 14q-6 13 -22 31q-18 18 -70 45zM701 869l8 6q36 -18 56 -31q20 -12 26 -21q9 -15 6 -34q-4 -14 -16 -13q-14 0 -20 23q-2 13 -13 28q-16 21 -47 42z" />
  </g>

</svg>
