<?xml version="1.0" standalone="no"?>
<!DOCTYPE svg PUBLIC "-//W3C//DTD SVG 1.1//EN" "http://www.w3.org/Graphics/SVG/1.1/DTD/svg11.dtd" >
<svg xmlns="http://www.w3.org/2000/svg" xmlns:xlink="http://www.w3.org/1999/xlink" version="1.1" viewBox="0 -205 1024 1024">
  <g transform="matrix(1 0 0 -1 0 819)">
   <path fill="currentColor"
d="M124 1010l46 -46h649l33 41l52 -49q7 -6 5 -10q-2 -5 -12 -7l-19 -9v-96l4 -62q2 -23 -9 -32q-12 -9 -37 -12v42h-661v-7q0 -21 -12 -31q-14 -11 -39 -15q7 58 9 121v124q-9 26 -24 36zM260 749l87 -36q14 -5 6 -11q-21 -9 -30 -21v-50h128l32 42l68 -52q7 -5 6 -8
q-1 -2 -12 -2h-222v-85h104l39 39l46 -47q7 -6 5 -10q-1 -5 -11 -7l-18 -9v-86l3 -55q-1 -18 -12 -25q-12 -8 -33 -8v38h-123v-57q58 -18 102 -37q42 -20 65 -44q21 -24 20 -46q-2 -21 -20 -22q-18 -2 -31 24q-12 26 -48 54q-32 22 -88 52v-144l3 -71q0 -21 -13 -31
q-13 -9 -39 -15q4 39 7 162v100q-81 -124 -245 -210l-6 16q170 116 243 269h-125v-9q1 -21 -10 -30q-12 -9 -40 -14q4 36 7 126v88q2 16 -19 37l12 16l46 -44h137v85h-155q-27 0 -45 -13l-34 33h234v60q2 16 -30 46zM1003 70v-11q-36 1 -49 1q-15 0 -32 -20q-47 28 -95 98
q-48 66 -70 148q-15 63 -28 186q-14 -126 -31 -194q-24 -88 -76 -145q-55 -68 -177 -117l-6 13q108 62 150 120q47 59 65 122q18 65 27 147q7 80 7 89q-2 9 -17 30l6 9l79 -28q11 -5 12 -8t-6 -6q-9 -2 -16 -5q9 -57 22 -114q13 -69 34 -117q20 -51 51 -90q27 -34 67 -66
q33 -26 83 -42zM635 790h201v154h-201v-154zM367 944h-192v-154h192v154zM595 944h-187v-154h187v154zM646 748l74 -24q16 -12 7 -15q-22 -3 -36 -14q-31 -81 -49 -113h242l35 33l61 -52q2 -6 -1 -8q-2 -1 -9 1q-20 0 -29 -7q-10 -7 -27 -25q-24 -24 -57 -72l-21 4l54 106
h-259q-50 -94 -107 -139l-8 7q48 72 74 125q26 52 42 103q15 41 16 60q-2 10 -13 22zM281 506h-133v-130h133v130zM323 376h123v130h-123v-130z" />
  </g>

</svg>
