<?xml version="1.0" standalone="no"?>
<!DOCTYPE svg PUBLIC "-//W3C//DTD SVG 1.1//EN" "http://www.w3.org/Graphics/SVG/1.1/DTD/svg11.dtd" >
<svg xmlns="http://www.w3.org/2000/svg" xmlns:xlink="http://www.w3.org/1999/xlink" version="1.1" viewBox="0 -205 1024 1024">
  <g transform="matrix(1 0 0 -1 0 819)">
   <path fill="currentColor"
d="M483 717l37 -45h82l62 186h-157q-27 1 -45 -13l-34 33h468l32 40l68 -50q8 -5 7 -8q-2 -2 -13 -2h-273l-83 -186h253l30 43l46 -42q9 -6 9 -11q0 -4 -9 -8l-20 -13v-509q6 -59 -71 -75q-1 30 -36 42q-34 11 -73 17l2 16q95 -17 111 -15q17 2 22 8q6 5 5 70v457h-104v-405
l2 -37q3 -35 -45 -43q5 36 7 127v358h-98v-427l2 -36q2 -35 -45 -42q5 35 7 125v380h-101v-508l4 -49q1 -35 -51 -46q5 39 7 136v481q-4 23 -21 36zM349 987l68 -46q17 -10 7 -15q-24 3 -39 -11q-55 -76 -102 -137h79l32 40l68 -50q8 -5 7 -8q-2 -2 -13 -2h-185v-168h67
l32 40l68 -50q8 -5 7 -8q-2 -2 -13 -2h-161q2 -95 -7 -172h90l32 40l68 -50q8 -5 7 -8q-2 -2 -13 -2h-186q-12 -85 -36 -149q-51 -129 -199 -195l-8 10q126 77 170 199q20 57 30 135h-128q-27 1 -45 -13l-34 33h209q8 76 6 172h-90q-27 1 -45 -13l-34 33h169v168h-116
q-27 1 -45 -13l-34 33h229l38 71q50 89 50 102q0 14 -8 29zM82 972l10 11q49 -38 70 -62t35 -52q24 -63 -19 -76q-19 0 -22 26q-2 27 -14 61q-10 35 -60 92z" />
  </g>

</svg>
