<?xml version="1.0" standalone="no"?>
<!DOCTYPE svg PUBLIC "-//W3C//DTD SVG 1.1//EN" "http://www.w3.org/Graphics/SVG/1.1/DTD/svg11.dtd" >
<svg xmlns="http://www.w3.org/2000/svg" xmlns:xlink="http://www.w3.org/1999/xlink" version="1.1" viewBox="0 -205 1024 1024">
  <g transform="matrix(1 0 0 -1 0 819)">
   <path fill="currentColor"
d="M410 894h470l32 40l68 -50q8 -5 7 -8q-2 -2 -13 -2h-187v-129h81l39 39l44 -47q7 -6 5 -10q-1 -5 -11 -7l-18 -9v-182l3 -59q0 -33 -43 -33v50h-379v-21q4 -37 -47 -44q5 37 7 94v216q2 16 -19 37l12 16l38 -40h110v129h-120q-27 1 -45 -13zM339 983l68 -44q17 -10 7 -15
q-24 3 -39 -11q-3 -3 -8 -10q-47 -67 -94 -129h51l32 40l68 -50q8 -5 7 -8q-2 -2 -13 -2h-167v-152h57l32 40l68 -50q8 -5 7 -8q-2 -2 -13 -2h-151q3 -95 -6 -172h83l32 40l68 -50q8 -5 7 -8q-2 -2 -13 -2h-179q-11 -84 -35 -145q-50 -124 -175 -207l-8 10q102 94 146 211
q20 55 30 131h-108q-27 1 -45 -13l-34 33h189q8 76 6 172h-74q-27 1 -45 -13l-34 33h153v152h-92q-27 1 -45 -13l-34 33h213l38 69q50 91 50 104q0 14 -6 31zM651 458l80 -30q14 -5 6 -11q-16 -4 -27 -18v-83h146l32 40l68 -50q8 -5 7 -8q-2 -2 -13 -2h-240v-175h184l32 38
l68 -48q8 -5 7 -8q-2 -2 -13 -2h-527q-27 1 -45 -13l-34 33h286v175h-143q-27 1 -45 -13l-34 33h222v89q2 17 -25 42zM749 725h-102v-218h102v218zM609 725h-101v-218h101v218zM787 507h100v218h-100v-218zM749 874h-102v-129h102v129zM74 966l10 11q83 -61 103 -112
q24 -65 -19 -76q-19 0 -20 25q0 26 -14 61q-13 36 -60 91z" />
  </g>

</svg>
