<?xml version="1.0" standalone="no"?>
<!DOCTYPE svg PUBLIC "-//W3C//DTD SVG 1.1//EN" "http://www.w3.org/Graphics/SVG/1.1/DTD/svg11.dtd" >
<svg xmlns="http://www.w3.org/2000/svg" xmlns:xlink="http://www.w3.org/1999/xlink" version="1.1" viewBox="0 0 2048 2048">
  <g transform="matrix(1 0 0 -1 0 2048)">
   <path fill="currentColor"
d="M1680 1052q-18 -20 -47 -51q-31 -32 -96 -107q-133 -150 -228 -250q-230 -239 -227 -314q5 -96 236 -96h180q188 9 238 25q54 17 69 42q9 16 42 165q16 70 19 117l41 -8q-3 -40 -17 -170q-2 -12 -2 -45q0 -47 14 -68q3 -4 25 -25q25 -24 25 -41q0 -80 -454 -80h-180
q-205 5 -275 53q-57 39 -51 127q9 112 228 348q70 76 223 248l102 117l45 51h-423q-68 0 -148 -11l-39 86q123 -18 187 -18h43l103 1v607q-2 129 -8 162q212 -25 212 -73q0 -31 -107 -47v-247h287l98 101l121 -107q20 -18 15 -33q-6 -19 -25 -19l-496 1v-345h171l73 79
q21 -15 31 -23q104 -76 95 -109q-9 -28 -100 -43zM490 1044v247h-101q-117 0 -192 -8l-38 88q98 -23 230 -23l101 1v234q-135 -18 -282 -23l-4 38q166 23 286 52v129q0 114 -8 160l109 -24q82 -18 85 -44q4 -26 -50 -44l-40 -13v-138q174 65 253 118l91 -92q14 -14 15 -27
q2 -18 -15 -23q-10 -2 -28 1l-50 11q-78 -23 -266 -66v-249l116 1l99 102l120 -107q20 -18 16 -34q-6 -18 -26 -18l-325 -2v-247l173 -1l99 101l120 -106q21 -18 16 -34q-6 -19 -26 -18l-382 1v-112q282 -118 327 -256q9 -26 -2 -52q-10 -20 -32 -26q-31 -8 -57 26
q-4 6 -43 67q-60 95 -193 189v-462q0 -106 12 -219q3 -28 3 -53q0 -39 -49 -42q-62 -5 -62 42v695q-158 -351 -362 -529l-22 29q98 115 184 279q117 226 155 424h-117q-108 0 -192 -8l-38 88q95 -22 230 -22z" />
  </g>

</svg>
