<?xml version="1.0" standalone="no"?>
<!DOCTYPE svg PUBLIC "-//W3C//DTD SVG 1.1//EN" "http://www.w3.org/Graphics/SVG/1.1/DTD/svg11.dtd" >
<svg xmlns="http://www.w3.org/2000/svg" xmlns:xlink="http://www.w3.org/1999/xlink" version="1.1" viewBox="0 -205 1024 1024">
  <g transform="matrix(1 0 0 -1 0 819)">
   <path fill="currentColor"
d="M201 995l87 -36q14 -5 6 -11q-21 -9 -30 -21v-105h66l32 40l69 -50q7 -5 6 -8q-1 -2 -12 -2h-161v-128h61l32 40l69 -50q7 -5 6 -8q-1 -2 -12 -2h-156v-135h95l33 40l65 -48q3 93 2 85v53v77v146q-4 29 -24 52l15 7l42 -33h364l29 37l61 -43q11 -8 8 -12q-3 -3 -19 -2
h-430v-188q2 -67 0 -125h387l26 34l58 -40q11 -8 8 -12q-3 -3 -19 -2h-252q27 -100 46 -150q13 -36 29 -68l60 60q49 54 52 64q3 9 -6 21l11 7l62 -38q10 -8 8 -12t-15 -3q-17 -3 -35 -15q-69 -59 -128 -101q1 -2 4 -6l3 -6q24 -45 62 -88q36 -41 68 -60q30 -20 80 -35v-17
q-27 1 -45 -3q-18 -3 -30 -18q-54 39 -103 96q-47 57 -86 147q-37 83 -59 225h-65v-424q35 22 141 75l8 -14q-16 -12 -52 -35q-25 -17 -38 -26q-38 -26 -53 -42t-22 -34l-60 52q18 9 30 25v423h-76q-4 -160 -26 -255q-34 -136 -162 -259l-10 12q122 157 138 282q9 66 12 174
h-2h-190v-68q36 -18 73 -40q47 -32 59 -54q15 -27 9 -45q-7 -20 -24 -20q-16 0 -25 31t-39 61q-5 4 -14 13t-39 33v-260l3 -85q0 -21 -13 -31q-13 -9 -39 -15q4 39 7 177v217q-56 -172 -173 -290l-8 11q113 158 162 365h-100q-27 0 -45 -13l-34 33h198v135h-72
q-27 0 -46 -13l-34 33h152v128h-93q-28 0 -46 -13l-34 33h173v115q2 16 -30 46zM517 736h289l27 36l58 -42q11 -8 9 -12q-3 -3 -20 -2h-284q-27 0 -45 -13z" />
  </g>

</svg>
