<?xml version="1.0" standalone="no"?>
<!DOCTYPE svg PUBLIC "-//W3C//DTD SVG 1.1//EN" "http://www.w3.org/Graphics/SVG/1.1/DTD/svg11.dtd" >
<svg xmlns="http://www.w3.org/2000/svg" xmlns:xlink="http://www.w3.org/1999/xlink" version="1.1" viewBox="0 -205 1024 1024">
  <g transform="matrix(1 0 0 -1 0 819)">
   <path fill="currentColor"
d="M447 969l45 -43h338l35 35l49 -43q7 -6 5 -10q-1 -5 -11 -7l-19 -10v-255l4 -33q-2 -18 -14 -24q-13 -6 -30 -7v46h-350v-15q-2 -17 -11 -26q-10 -9 -36 -10q4 48 7 107v244q-3 19 -21 43zM183 1005l85 -36q14 -5 6 -11q-21 -9 -30 -21v-115h74l30 38l59 -48q7 -5 6 -8
q-1 -2 -12 -2h-157v-118h44l32 40l69 -50q8 -5 6 -8q-2 -2 -13 -2h-138v-137h62l32 40l69 -50q7 -5 6 -8q-1 -2 -12 -2h-157v-53q39 -19 72 -43q36 -29 50 -55q13 -27 7 -46t-22 -19q-16 -2 -24 31q-9 30 -30 61q-20 24 -53 50v-272l3 -96q0 -21 -13 -31q-13 -9 -37 -15
q4 39 7 157v238q-60 -135 -174 -239l-10 10q112 136 175 322h-91q-27 0 -45 -13l-34 33h179v137h-61q-28 0 -46 -13l-34 33h141v118h-86q-27 0 -45 -13l-34 33h165v125q2 16 -30 46zM399 453h138v79q2 15 -25 42l8 11l78 -34q14 -5 6 -11q-18 -6 -27 -18v-69h197v81
q2 15 -25 42l8 11l76 -34q14 -5 6 -11q-18 -6 -25 -18v-71h36l32 40l69 -50q7 -5 6 -8q-1 -2 -12 -2h-131v-141h87l24 40l68 -50q10 -5 9 -8q0 -2 -11 -2h-533q-27 0 -45 -13l-35 33h159v141h-59q-27 0 -45 -13zM774 433h-197v-141h197v141zM660 765h-161v-126h161v126z
M660 906h-161v-121h161v121zM849 765h-149v-126h149v126zM700 785h149v121h-149v-121zM558 250l64 -41q7 -6 7 -10q0 -3 -7 -4q-27 3 -39 -9l-4 -4q-9 -7 -68 -60q-61 -53 -150 -103l-8 12q99 78 146 128q52 56 53 63q4 13 -2 22zM753 240q76 -40 112 -68q40 -29 58 -56
q21 -28 19 -52q-3 -22 -18 -28q-16 -5 -33 33q-15 36 -48 75q-33 34 -96 84z" />
  </g>

</svg>
