<?xml version="1.0" standalone="no"?>
<!DOCTYPE svg PUBLIC "-//W3C//DTD SVG 1.1//EN" "http://www.w3.org/Graphics/SVG/1.1/DTD/svg11.dtd" >
<svg xmlns="http://www.w3.org/2000/svg" xmlns:xlink="http://www.w3.org/1999/xlink" version="1.1" viewBox="0 0 2048 2048">
  <g transform="matrix(1 0 0 -1 0 2048)">
   <path fill="currentColor"
d="M1004 338q58 20 118 82q219 224 408 579q-21 -3 -133 -27q-129 -28 -178 -42q-39 -11 -85 -19q-28 -74 -51 -72q-18 1 -41 50l-55 118q77 55 141 149q125 181 160 245q64 118 117 282h-247q-68 0 -147 -11l-41 86q126 -19 188 -19l582 -1l95 112l131 -111q23 -20 15 -37
q-8 -19 -32 -19h-525l125 -60q42 -20 34 -40t-40 -22l-58 -3q-26 -44 -38 -66q-167 -293 -366 -479q200 13 478 44q69 143 110 277l124 -61q40 -20 47 -33q9 -14 -4.5 -27.5t-38.5 -15.5l-58 -6q-189 -366 -338 -558q-159 -205 -269 -285q19 1 50 3q168 11 584 54
q-52 97 -158 245l24 26q155 -145 202 -205q93 -119 100 -211q5 -77 -44 -87q-44 -10 -61 59q-20 81 -43 131q-36 -8 -106 -25q-54 -12 -304 -60q-167 -32 -243 -45q-2 -11 -3 -16q-13 -65 -39 -54q-16 6 -38 58zM722 624q-118 -46 -490 -154l-12 -45q-8 -30 -25 -28
q-15 1 -32 36l-62 125q69 7 154 25v1185q-84 0 -145 -6l-38 88q95 -23 230 -23l466 -1l81 103l121 -107q20 -18 15 -34q-6 -18 -26 -18h-140l-1 -1391q0 -103 13 -219q3 -27 3 -54q0 -38 -49 -42q-63 -4 -63 42v518zM722 1448v322h-371v-322h371zM722 1389l-371 1v-334h371
v333zM351 601q264 46 373 77l-2 323l-371 -2v-398z" />
  </g>

</svg>
