<?xml version="1.0" standalone="no"?>
<!DOCTYPE svg PUBLIC "-//W3C//DTD SVG 1.1//EN" "http://www.w3.org/Graphics/SVG/1.1/DTD/svg11.dtd" >
<svg xmlns="http://www.w3.org/2000/svg" xmlns:xlink="http://www.w3.org/1999/xlink" version="1.1" viewBox="0 0 2048 2048">
  <g transform="matrix(1 0 0 -1 0 2048)">
   <path fill="currentColor"
d="M242 571v1210q-82 -2 -126 -7l-38 88q97 -23 230 -23h385l79 102l121 -107q20 -18 15 -33q-5 -19 -26 -19l-132 -1l-1 -1389q-1 -105 12 -219q3 -29 3 -54q0 -42 -53 -46q-58 -5 -58 42v494q-39 -18 -142 -54l-110 -40q-127 -41 -157 -51l-11 -45q-7 -29 -23 -30
q-19 -1 -35 32l-65 126q84 14 132 24zM339 591q70 12 314 71v367l-314 1v-439zM653 1412h-314v-324h314v324zM339 1471h314v311h-314v-311zM1500 891q57 -12 57 -38q0 -29 -49 -43l-40 -12v-77h272l90 102l121 -107q21 -18 16 -34q-6 -18 -26 -18h-473v-434
q0 -146 -153 -175q-11 71 -47 93q-33 21 -159 44l8 46q139 -23 189 -27q69 -6 69 57v396h-274q-108 0 -192 -8l-38 88q95 -23 230 -23h274v40q0 114 -9 160l86 -15q118 103 152 142q35 41 82 108h-499q-120 -1 -192 -8l-38 88q101 -24 211 -24l528 -1l60 69l91 -74
q35 -29 34 -46q-2 -19 -38 -26l-50 -10q-173 -158 -293 -233zM1778 1794q-232 -55 -406 -77q-169 -21 -425 -32l-3 39q292 34 489 76q210 44 331 118l95 -91q13 -12 15 -22q5 -32 -42 -23zM1020 1616q179 -167 174 -268q-1 -22 -13 -38q-19 -26 -46 -18q-36 10 -44 90
q-10 94 -98 211zM1305 1647q179 -167 174 -268q-1 -22 -13 -39q-19 -25 -46 -18q-36 11 -44 91q-10 94 -98 211zM1742 1701l137 -60q30 -13 29 -34q-1 -20 -30 -22l-58 -6q-78 -151 -234 -292l-32 23q140 189 188 391z" />
  </g>

</svg>
