<?xml version="1.0" standalone="no"?>
<!DOCTYPE svg PUBLIC "-//W3C//DTD SVG 1.1//EN" "http://www.w3.org/Graphics/SVG/1.1/DTD/svg11.dtd" >
<svg xmlns="http://www.w3.org/2000/svg" xmlns:xlink="http://www.w3.org/1999/xlink" version="1.1" viewBox="0 -200 1000 1000">
  <g transform="matrix(1 0 0 -1 0 800)">
   <path fill="currentColor"
d="M365 307v-272q-14 -18 -29 -25t-23 -7v280l-208 -87l-51 64l83 20v615l-71 -12l-19 36h310l48 48l68 -72h-108v-564l76 19l4 -9zM189 708h124v187h-124v-187zM189 504h124v180h-124v-180zM189 288l124 31v162h-124v-193zM560 328h94l28 37l52 -44l-28 -36v-129h-149v-38
q-11 -14 -25 -15t-24 -3l-1 258zM883 488l64 -67h-120v-347q-1 -18 -23.5 -40.5t-60.5 -32.5q0 2 0.5 4.5t0.5 4.5q0 26 -19.5 38t-57.5 22l1 12q29 -6 47 -8.5t29 -2.5q16 0 23.5 5t10.5 16v331h-251l-72 -17l-25 41h412zM476 494q33 22 56.5 42t40.5 41t29.5 44t23.5 52
h-91l-54 -10l-21 33h172q6 21 7.5 41.5t1.5 43.5v36l70 -25l-17 -45q-2 -11 -4 -24t-3 -27h113l42 41l62 -65h-224q-4 -12 -5 -13.5t-5 -10.5q36 -11 67.5 -26t54.5 -30.5t36 -29.5t13 -24q0 -23 -10 -31t-20 -8q-14 0 -19 9.5t-16 27t-35 43t-76 57.5q-11 -23 -29.5 -47.5
t-42.5 -45.5t-52 -37.5t-57 -23.5zM667 870v38l-14 92l76 -29l-14 -63v-38h131l30 34q10 -3 23 -10t24 -15.5t19 -18t9 -16.5q1 -1 1 -8q0 -9 -6 -12t-13 -3q-5 0 -9.5 0.5t-9.5 0.5q-14 0 -31.5 -11t-42.5 -52l-10 7q10 20 15 34t5 26q0 14 -4 21h-329q-2 -35 -8.5 -60.5
t-27.5 -30.5q-8 -2 -10 -2h-5q-23 0 -23 24v5q0 2 2 10q2 6 9.5 15.5t16 24t16.5 36t11 52.5h12l6 -51h151zM557 290l-41 -109h143v122h-90z" />
  </g>

</svg>
