<?xml version="1.0" standalone="no"?>
<!DOCTYPE svg PUBLIC "-//W3C//DTD SVG 1.1//EN" "http://www.w3.org/Graphics/SVG/1.1/DTD/svg11.dtd" >
<svg xmlns="http://www.w3.org/2000/svg" xmlns:xlink="http://www.w3.org/1999/xlink" version="1.1" viewBox="0 0 2048 2048">
  <g transform="matrix(1 0 0 -1 0 2048)">
   <path fill="currentColor"
d="M985 1201h-203q-34 -172 -195 -307l-25 24q74 83 112 205q30 97 30 295q0 127 -9 213l114 -60h156l69 77l80 -54q43 -29 43 -49q0 -31 -77 -59v-401q0 -126 -158 -153q-3 54 -28 75q-23 18 -99 40l6 38q85 -15 116 -17q68 -5 68 57v76zM790 1256h195v109h-187
q-2 -51 -8 -109zM798 1421h187v92h-186zM1553 1257q129 -119 380 -202l-5 -36q-65 -4 -86 -13q-25 -12 -40 -49q-74 32 -185 115q-75 57 -126 110q-152 -162 -374 -269l-15 27q206 143 334 311q-88 129 -164 371l-16 51l-6 20q-43 -4 -52 -6l-40 86q125 -17 188 -18h289
l70 74l83 -54q40 -26 40 -49q0 -27 -75 -61q-75 -229 -200 -408zM1301 1696q78 -225 186 -367q98 158 161 369h-302zM285 1201q-22 -110 -77 -187q-48 -67 -123 -132l-25 25q78 89 115 207q33 107 33 304q0 132 -9 219l114 -66h149l69 77l80 -54q43 -29 43 -49
q0 -31 -77 -59v-401q0 -126 -159 -153q-2 55 -29 75q-24 18 -103 40l6 38q88 -14 121 -17q68 -5 68 57v76h-196zM303 1421h178v92h-178v-92zM302 1365q-1 -54 -8 -109h187v109h-179zM401 1780h36l74 67l97 -72q21 -16 16 -34q-6 -19 -26 -19h-189l8 -65q8 -54 -53 -50
q-32 3 -35 27l-11 88h-29q-69 0 -149 -10l-39 86q120 -18 188 -18h22l-13 107q-7 46 -9 68l98 -10q80 -9 77 -46q-1 -18 -42 -38l-29 -14zM1457 818v-512h296l87 83l115 -83q28 -20 22 -39q-5 -18 -26 -18h-494v-39l6 -54q2 -68 2 -80q-3 -34 -41 -40q-27 -5 -47 10
q-16 12 -16 31v172h-1028q-116 0 -191 -8l-39 88q99 -23 230 -23h181v512h-74q-118 0 -192 -8l-38 88q91 -21 230 -21h1151l88 81l115 -81q28 -20 22 -41q-5 -18 -26 -18h-333zM1361 621h-751v-133h751v133zM610 679h751v139h-751v-139zM1361 430h-751v-124h751v124z
M905 1722l-16 -90q-7 -37 -54 -33q-34 3 -39 24q-2 10 1 23l18 76q-85 -2 -145 -10l-39 86q96 -14 195 -18l20 126q2 8 4 32l3 27l98 -32q62 -20 59 -47q-2 -15 -54 -30l-32 -9l-9 -67h31l76 60l95 -65q22 -15 16 -34t-26 -19h-202z" />
  </g>

</svg>
