<?xml version="1.0" standalone="no"?>
<!DOCTYPE svg PUBLIC "-//W3C//DTD SVG 1.1//EN" "http://www.w3.org/Graphics/SVG/1.1/DTD/svg11.dtd" >
<svg xmlns="http://www.w3.org/2000/svg" xmlns:xlink="http://www.w3.org/1999/xlink" version="1.1" viewBox="0 0 2048 2048">
  <g transform="matrix(1 0 0 -1 0 2048)">
   <path fill="currentColor"
d="M1061 788h660l98 102l121 -107q20 -18 15 -33q-5 -19 -25 -19h-869l-2 -347q0 -101 76 -122q69 -19 307 -19q247 0 425 31q27 4 44 3q55 -3 57 -66q0 -24 -57 -33q-151 -25 -545 -25q-229 0 -299 26q-102 38 -102 163l1 1375q0 120 -8 160l109 -24q82 -18 85 -44
q4 -25 -49 -43l-42 -15v-963zM1510 1543q362 -300 375 -469q5 -63 -45 -71q-47 -8 -78 76q-77 206 -267 409q-102 -333 -370 -549l-23 32q176 176 270 443q69 197 93 504l137 -34q52 -12 54 -38q2 -25 -48 -34l-46 -9q-11 -56 -28 -147q-11 -59 -24 -113zM655 987
q-82 -69 -267 -183l5 -42q4 -32 -25 -30q-20 1 -43 30l-46 58l-2 -34q-10 -212 -44 -360q-36 -156 -123 -338l-36 14q54 159 74 284q22 134 32 317q8 144 8 207v837q0 84 -13 173l113 -76h347l68 76l81 -55q43 -30 43 -49q0 -31 -77 -59v-1498q0 -145 -159 -171
q-2 67 -43 93q-34 21 -160 43l9 42q141 -23 189 -26q69 -6 69 56v691zM655 1038v206q-17 -33 -52 -28q-20 3 -46 30q-87 85 -274 141v-352q0 -73 -3 -166q179 65 375 169zM655 1304v484h-372v-357q34 -6 67 -12q113 -19 197 -43q85 -25 108 -72z" />
  </g>

</svg>
