<?xml version="1.0" standalone="no"?>
<!DOCTYPE svg PUBLIC "-//W3C//DTD SVG 1.1//EN" "http://www.w3.org/Graphics/SVG/1.1/DTD/svg11.dtd" >
<svg xmlns="http://www.w3.org/2000/svg" xmlns:xlink="http://www.w3.org/1999/xlink" version="1.1" viewBox="0 0 2048 2048">
  <g transform="matrix(1 0 0 -1 0 2048)">
   <path fill="currentColor"
d="M1464 1113q74 -72 185 -142q119 -74 218 -102q36 -11 114 -26v-38q-66 0 -97 -22q-19 -13 -46 -54q-239 114 -434 321q-79 -74 -154 -127q-137 -99 -367 -186l-14 33q271 130 481 342q-138 171 -226 361q-95 -158 -210 -280l-28 24q13 20 19 30q202 317 286 679l120 -33
q57 -16 60 -40q3 -27 -49 -35l-38 -6q-22 -55 -62 -148h396l67 74l108 -72q21 -14 19 -34q-3 -21 -29 -35l-58 -30q-76 -186 -128 -275q-55 -92 -133 -179zM1152 1522q113 -207 251 -349q141 182 227 432h-435q-20 -41 -43 -83zM1093 431q506 -184 495 -325q-3 -43 -38 -49
q-38 -6 -96 68q-61 80 -207 179q-81 55 -166 94zM328 819l-1 -30q-11 -214 -43 -360q-35 -155 -120 -337l-35 13q54 171 72 284q22 135 31 317q8 127 7 207v837q0 81 -12 174l107 -78h345l67 76l79 -54q41 -29 41 -49q0 -32 -75 -59v-1498q0 -144 -155 -172q1 65 -42 94
q-31 21 -155 43l8 42q140 -23 185 -26q66 -6 66 56v697q-94 -80 -268 -189l6 -42q4 -33 -24 -30q-21 2 -42 29zM332 1442q162 -30 233 -49q114 -30 133 -89v482l-366 1v-345zM332 1397v-359q0 -66 -2 -164q184 70 334 152l34 19v221q-13 -45 -53 -39q-20 3 -45 29
q-79 82 -268 141zM1235 767q42 -13 62 -20q332 -103 299 -218q-10 -37 -40 -37q-25 0 -53 34q-103 128 -284 207z" />
  </g>

</svg>
