<?xml version="1.0" standalone="no"?>
<!DOCTYPE svg PUBLIC "-//W3C//DTD SVG 1.1//EN" "http://www.w3.org/Graphics/SVG/1.1/DTD/svg11.dtd" >
<svg xmlns="http://www.w3.org/2000/svg" xmlns:xlink="http://www.w3.org/1999/xlink" version="1.1" viewBox="0 -205 1024 1024">
  <g transform="matrix(1 0 0 -1 0 819)">
   <path fill="currentColor"
d="M369 895v-780q0 -27 -13 -48q-12 -21 -81 -32q-6 28 -31 40t-76 27l2 14q101 -18 120 -16q18 2 27 8q7 7 6 72v248h-150q-4 -80 -12 -137q-21 -141 -127 -271l-12 8q84 146 98 274q15 130 11 407v197q-7 24 -28 51l9 10l55 -41h140l30 43l53 -42q9 -6 9 -11t-9 -8z
M479 871l46 -52q76 55 101 79q28 25 35 34q6 9 5 25l7 4l61 -31q8 -6 8 -9q0 -4 -8 -5q-29 -6 -43 -15q-4 -3 -19 -14q-17 -12 -28 -20q-37 -24 -116 -70v-285h75l30 38l65 -50q6 -2 5 -4q-2 -1 -11 -2h-164v-332h370v333h-79q-27 0 -45 -13l-34 31h158v312h-97
q-18 1 -38 -14l-35 34h153l38 39l49 -47q7 -6 6 -10q-1 -5 -10 -6l-20 -8v-581l6 -128q0 -18 -16 -25q-15 -6 -36 -8v73h-370v-57q0 -21 -14 -31q-13 -9 -39 -15q4 30 7 189v585q-3 24 -19 44zM323 906h-146v-207v-16h146v223zM177 665q2 -124 -3 -219h149v219h-146z" />
  </g>

</svg>
