<?xml version="1.0" standalone="no"?>
<!DOCTYPE svg PUBLIC "-//W3C//DTD SVG 1.1//EN" "http://www.w3.org/Graphics/SVG/1.1/DTD/svg11.dtd" >
<svg xmlns="http://www.w3.org/2000/svg" xmlns:xlink="http://www.w3.org/1999/xlink" version="1.1" viewBox="0 -205 1024 1024">
  <g transform="matrix(1 0 0 -1 0 819)">
   <path fill="currentColor"
d="M912 652q7 -5 7 -9q0 -3 -7 -5q-25 -2 -42 -29q-15 -27 -75 -90q-22 -22 -48 -43q5 -2 13 -7q9 -5 13 -8q64 -33 115 -46q52 -13 116 -14l-1 -16q-61 -4 -75 -29q-89 25 -160 61q-29 15 -56 35q-35 -22 -76 -42q-55 -26 -116 -46l29 -23h292l29 23l48 -31q7 -6 5 -10
q-1 -5 -11 -7l-14 -11v-138l5 -68q4 -25 -49 -34v57h-291v-37q3 -36 -51 -44q5 37 7 100v180q-3 21 -17 37q-37 -11 -76 -20l-2 16q86 27 174 72q45 23 83 49q-22 21 -45 45q-56 62 -86 127h-35q-25 1 -36 -16l-31 36h393l29 23zM122 981l44 -48h162l30 41l46 -43
q9 -6 9 -11q0 -4 -9 -8l-20 -13v-718q2 -62 -11 -86q-13 -26 -69 -34q3 41 -98 49l2 18q82 -11 107 -9t25 48v299h-166q-4 -117 -27 -213q-33 -138 -117 -210l-10 10q65 91 90 216q26 128 22 339v312q-6 24 -25 49zM563 142h291v179h-291v-179zM936 910q0 -6 -1 -17
q0 -73 -24 -109q-33 -57 -105 -70q0 18 -18 26t-76 24l2 16q48 -10 102 -16q54 1 71 72q8 30 6 83h-229q-11 -52 -35 -101q-56 -106 -217 -144l-4 14q132 52 181 143q24 45 28 88h-97q-25 -3 -36 -15l-31 35h430l24 33l44 -32q9 -6 9 -11q0 -4 -9 -8zM176 692v-112
q1 -49 -1 -96h165v208h-164zM176 710h164v203h-164v-203zM841 647h-263q25 -43 76 -95q29 -30 60 -53q6 5 17 14q11 10 16 14q61 56 94 120z" />
  </g>

</svg>
