<?xml version="1.0" standalone="no"?>
<!DOCTYPE svg PUBLIC "-//W3C//DTD SVG 1.1//EN" "http://www.w3.org/Graphics/SVG/1.1/DTD/svg11.dtd" >
<svg xmlns="http://www.w3.org/2000/svg" xmlns:xlink="http://www.w3.org/1999/xlink" version="1.1" viewBox="0 -200 1000 1000">
  <g transform="matrix(1 0 0 -1 0 800)">
   <path fill="currentColor"
d="M811 970l-18 -65v-161h32l38 44l61 -67h-131v-237h59l44 47l59 -70h-195l46 -56l-25 -30q-12 -27 -24.5 -60t-25.5 -68t-27 -69.5t-29 -64.5q25 3 56 6.5t59.5 7.5t51.5 7t34 5q-11 58 -48 138l6 5q62 -79 89.5 -127t27.5 -84q0 -15 -6 -35.5t-28 -31.5h-2q-5 0 -8.5 9.5
t-7 26.5t-7.5 39.5t-11 49.5q-39 -10 -81.5 -26t-79.5 -32t-62 -28t-29 -14l-41 68l64 11q30 78 52.5 170t37.5 183h-77l-55 -10l-14 33h151v237h-50l-47 -10l-20 33h117v258zM522 304q-2 -19 -5 -54.5t-3 -102.5q0 -50 3 -122q-8 -11 -22 -16t-22 -5q-14 0 -18 10t-4 19
q0 12 1 30t2.5 37t2.5 35.5t1 24.5q0 32 -14.5 69t-43.5 60v11h5q18 0 35 4t25 15q6 8 12.5 27.5t15.5 54t21 86t29 124.5l84 378l16 -2zM463 546h-2q-9 0 -16 16.5t-16.5 41.5t-22.5 54.5t-34 55.5v11q51 -20 80.5 -45t32.5 -60q1 -5 1 -9.5v-8.5q0 -27 -7.5 -41t-15.5 -15
zM495 845q-8 42 -28.5 75t-49.5 61v7q34 -10 58 -20.5t39.5 -24t22.5 -31t7 -41.5q0 -17 -9.5 -33.5t-18.5 -16.5q-6 0 -12 6.5t-9 17.5zM139 747v209l64 -42h87l35 42l53 -55l-32 -34l-1 -745q-3 -12 -6 -24.5t-10.5 -25.5t-21 -25t-37.5 -23q-3 21 -9.5 34t-18.5 22
t-30 16t-44 15l2 13q23 -4 41.5 -6t29.5 -2q26 0 37.5 8t16.5 26v273h-115q-5 -66 -15 -129.5t-25.5 -118.5t-37 -99.5t-49.5 -73.5l-13 2q21 50 35.5 95.5t24.5 94t17 102.5t13 122q6 91 7.5 169.5t1.5 159.5zM184 446h111v209h-104zM190 846v-169h105v213h-93z" />
  </g>

</svg>
