<?xml version="1.0" standalone="no"?>
<!DOCTYPE svg PUBLIC "-//W3C//DTD SVG 1.1//EN" "http://www.w3.org/Graphics/SVG/1.1/DTD/svg11.dtd" >
<svg xmlns="http://www.w3.org/2000/svg" xmlns:xlink="http://www.w3.org/1999/xlink" version="1.1" viewBox="0 -205 1024 1024">
  <g transform="matrix(1 0 0 -1 0 819)">
   <path fill="currentColor"
d="M116 964l41 -48h157l30 41l42 -43q9 -6 9 -11q0 -4 -9 -8l-20 -13v-718q2 -61 -10 -86q-12 -26 -66 -34q2 40 -94 49l2 18q78 -11 103 -9t25 48v299h-160q-5 -116 -26 -212q-31 -139 -114 -211l-8 12q62 89 87 214q23 111 21 339v312q-6 24 -25 49zM513 412l36 -38h313
l29 33l48 -37q7 -6 5 -10q-1 -5 -11 -7l-18 -9v-233l2 -37q1 -32 -42 -31v64h-319v-37q4 -37 -47 -44q5 37 7 96v245q-3 18 -17 34zM943 850q7 -12 -2 -15q-22 5 -38 -9q-60 -66 -120 -119h107l32 42l68 -50q8 -5 7 -8q-2 -2 -13 -2h-221q-84 -72 -167 -121l-10 -6v-21
q118 27 179 47q66 22 71 29q5 8 -1 21l12 4l54 -51q7 -5 7 -9q0 -3 -7 -5q-24 3 -32 5q-7 2 -63 -16q-52 -17 -220 -47q2 -29 11 -37q6 -8 37 -11q24 -3 122 -4q99 -1 151 4q33 8 31 42q7 29 8 73h15l2 -45q2 -37 23 -52q-13 -27 -23 -35q-9 -7 -40 -12q-31 -4 -63 -3
q-210 -1 -267 6q-45 9 -47 65v29q-114 -64 -165 -75l-6 14q81 44 170 100q-4 26 -18 42l13 13l32 -37l21 14q59 38 109 79h-237q-27 1 -45 -13l-34 31h260v120h-115q-27 1 -45 -13l-34 29h194v99q2 17 -25 42l8 11l78 -32q14 -5 6 -11q-16 -4 -27 -18v-91h56l22 32l58 -38
q8 -5 7 -8q-2 -2 -13 -2h-130v-120h38q36 30 67 62q83 83 81 98q0 15 -7 24l10 7zM875 240h-319v-117h319v117zM166 675v-112v-96h160v208h-160zM556 254h319v104h-319v-104zM166 693h160v203h-160v-203z" />
  </g>

</svg>
