<?xml version="1.0" standalone="no"?>
<!DOCTYPE svg PUBLIC "-//W3C//DTD SVG 1.1//EN" "http://www.w3.org/Graphics/SVG/1.1/DTD/svg11.dtd" >
<svg xmlns="http://www.w3.org/2000/svg" xmlns:xlink="http://www.w3.org/1999/xlink" version="1.1" viewBox="0 0 2048 2048">
  <g transform="matrix(1 0 0 -1 0 2048)">
   <path fill="currentColor"
d="M1055 1097q-18 -31 -42 -68q-70 -112 -152 -201l-29 22q87 141 128 238q39 93 69 229l124 -31q64 -16 57 -44q-6 -25 -52 -32l-51 -8l-19 -39l-5 -11h529l80 89l121 -89q11 -8 13 -20q8 -35 -21 -35h-414v-296h383l80 82l114 -86q21 -16 16 -34q-6 -19 -26 -19h-567v-510
h308v272q0 108 -9 159l109 -24q83 -18 86 -44q3 -31 -50 -44l-42 -10v-259q0 -47 7 -122v-24q0 -37 -60 -37q-41 0 -41 45v35h-724q-13 -8 -47 -12q-43 -4 -43 49v311q-2 115 -8 146l109 -24q83 -18 86 -44q3 -31 -50 -43l-43 -11v-319h319v510h-334q-68 0 -148 -10l-39 86
q116 -19 187 -19h334v296h-243zM593 950q-84 -68 -222 -153l6 -42q5 -32 -24 -30q-21 2 -43 30l-40 49l-1 -27q-10 -210 -44 -359q-36 -155 -123 -338l-36 13q87 259 106 602q8 144 8 207l-1 837q0 88 -12 174l110 -79h296l69 76l81 -54q42 -29 42 -49q0 -31 -77 -58v-1499
q0 -142 -158 -171q-2 66 -43 93q-33 21 -160 44l8 42q135 -22 190 -27q68 -6 68 57v662zM593 1007v252q-17 -38 -53 -32q-20 3 -46 30q-76 77 -219 128v-359q0 -56 -2 -161q178 67 320 142zM593 1310l1 467l-319 -1v-344l12 -2q123 -23 197 -44q88 -25 109 -76zM1766 1817
q-398 -102 -860 -118v43q630 77 836 204l91 -78q36 -31 24 -50q-5 -8 -14 -10q-15 -2 -36 2zM1273 1674q178 -121 190 -230q5 -43 -12 -68t-41 -25q-23 0 -36 30q-2 5 -21 78q-24 94 -108 194zM911 1653q240 -164 209 -277q-13 -45 -51 -36q-24 5 -39 54q-33 112 -145 233z
M1728 1707l118 -45q52 -20 49 -43q-2 -21 -32 -24l-56 -6q-96 -190 -204 -306l-35 24q116 198 160 400z" />
  </g>

</svg>
