<?xml version="1.0" standalone="no"?>
<!DOCTYPE svg PUBLIC "-//W3C//DTD SVG 1.1//EN" "http://www.w3.org/Graphics/SVG/1.1/DTD/svg11.dtd" >
<svg xmlns="http://www.w3.org/2000/svg" xmlns:xlink="http://www.w3.org/1999/xlink" version="1.1" viewBox="0 -205 1024 1024">
  <g transform="matrix(1 0 0 -1 0 819)">
   <path fill="currentColor"
d="M785 995l68 -38q8 -5 8 -9q1 -3 -6 -5q-14 0 -28 -6q-27 -44 -82 -119h103l32 40l68 -50q8 -5 7 -8q-2 -2 -13 -2h-275q-6 -53 -17 -104h150l32 42l68 -50q8 -5 7 -8q-2 -2 -13 -2h-247q-12 -53 -26 -103l-1 -3h242l32 40l68 -50q8 -5 7 -8q-2 -2 -13 -2h-342
q-18 -54 -44 -105h230l35 35l46 -41q7 -6 6 -10t-10 -6l-20 -8l-14 -314h63l28 38l64 -46q8 -5 7 -8q-2 -2 -13 -2h-511q-27 1 -45 -13l-34 31h193l17 158h-27q-27 1 -45 -13l-34 29h108l16 152h-32q-18 2 -36 -12l-5 6q-17 -31 -38 -61q-68 -99 -148 -151l-8 14
q48 43 108 131q59 86 96 196h-106q-27 1 -45 -13l-34 33h191q16 51 29 106h-85q-27 2 -45 -15l-34 33h168q10 50 17 104h-140q-27 1 -45 -13l-34 33h314q41 71 54 104q15 35 15 44t-10 21zM100 965l41 -48h157l30 41l42 -43q9 -6 9 -11q0 -4 -9 -8l-20 -13v-718
q2 -61 -10 -86q-12 -26 -66 -34q1 40 -90 49l2 18q74 -11 99 -9t25 48v299h-160q-5 -116 -26 -212q-32 -139 -106 -211l-8 12q54 89 79 214q26 128 21 339v312q-6 24 -25 49zM150 676v-112q2 -49 0 -96h160v208h-160zM150 694h160v203h-160v-203zM808 259h-155l-18 -158h166
zM655 275h153l7 152h-143zM505 981q105 -50 108 -110q2 -30 -19 -35t-26 25t-19 52t-52 56z" />
  </g>

</svg>
