<?xml version="1.0" standalone="no"?>
<!DOCTYPE svg PUBLIC "-//W3C//DTD SVG 1.1//EN" "http://www.w3.org/Graphics/SVG/1.1/DTD/svg11.dtd" >
<svg xmlns="http://www.w3.org/2000/svg" xmlns:xlink="http://www.w3.org/1999/xlink" version="1.1" viewBox="0 -205 1024 1024">
  <g transform="matrix(1 0 0 -1 0 819)">
   <path fill="currentColor"
d="M827 408v-329q0 -20 -11 -39t-70 -26q-7 46 -107 57l2 16q93 -15 112 -15q20 0 27 6q8 6 7 60v281h-309l-9 -18q80 -20 140 -49q124 -63 94 -110q-16 -16 -38 16q-21 32 -87 73q-59 37 -118 55q-2 -2 -5 -7q-2 -2 -3 -4q-66 -87 -219 -137l-6 16q133 54 184 127
q14 20 24 38h-249v-306l4 -49q1 -35 -51 -46q5 39 7 102v315q-5 23 -19 26l16 15l38 -39h262q5 8 6 16q14 47 -8 62l8 8l76 -25q5 -6 4 -9t-8 -4q-12 -4 -26 -13q-3 -18 -9 -35h285l30 43l46 -40q9 -6 9 -11q0 -4 -9 -8zM114 733l27 -29h215l31 33l40 -37q7 -6 5 -10
q-1 -5 -11 -7l-16 -11v-73l5 -54q3 -27 -41 -36v35h-219v-9q2 -36 -43 -44q5 37 7 88v111q-3 24 -12 32zM767 856l58 -34q17 -10 7 -15q-18 2 -36 -12l-15 -18q-6 -8 -36 -44h109l30 38l66 -46q8 -5 7 -8q-2 -2 -13 -2h-227v-86h92l30 38l66 -46q8 -5 7 -8q-2 -2 -13 -2
h-182v-59l2 -55q3 -36 -49 -44q5 37 7 98v60h-111q-27 1 -45 -13l-32 31h188v86h-143q-27 1 -45 -13l-32 31h259l22 30q31 53 31 63q0 12 -10 23zM150 562h219v124h-219v-124zM307 966q7 -10 -5 -13q-15 2 -31 -11q-61 -65 -138 -139q123 8 254 15q-2 2 -5 7q-2 2 -3 4
q-22 28 -67 58l6 13q112 -40 133 -108q10 -34 -11 -42q-21 -7 -30 21q-4 14 -12 27q-67 -7 -148 -15q-82 -7 -110 -12q-28 -4 -49 -22l-32 54q20 0 46 14q65 54 133 154q5 14 -6 28l10 5zM529 288q4 -4 3 -6q0 -2 -5 -3q-13 2 -32 -15q-1 -3 -5 -9q-3 -6 -5 -9
q62 -16 114 -42q121 -62 89 -102q-17 -13 -40 19q-22 30 -85 66q-46 26 -90 42q-29 -39 -76 -71q-68 -44 -166 -66l-4 17q70 21 130 59q60 41 81 75q21 35 17 44q-3 9 -14 22l8 8zM462 885h366l30 38l66 -46q8 -5 7 -8q-2 -2 -13 -2h-379q-27 1 -45 -13zM607 994l4 13
q109 -31 110 -86q0 -22 -19 -26t-25 18q-16 53 -70 81zM562 858q48 -14 75 -55q25 -45 -6 -56q-19 -4 -24 17q-4 22 -15 41q-10 20 -36 43z" />
  </g>

</svg>
