<?xml version="1.0" standalone="no"?>
<!DOCTYPE svg PUBLIC "-//W3C//DTD SVG 1.1//EN" "http://www.w3.org/Graphics/SVG/1.1/DTD/svg11.dtd" >
<svg xmlns="http://www.w3.org/2000/svg" xmlns:xlink="http://www.w3.org/1999/xlink" version="1.1" viewBox="0 0 2048 2048">
  <g transform="matrix(1 0 0 -1 0 2048)">
   <path fill="currentColor"
d="M1033 1585v-65q83 21 227 69l11 -34q-123 -62 -237 -105v-196q1 -118 -142 -142q1 60 -39 85q-29 18 -96 31l8 42q88 -19 129 -19q46 0 47 68l2 100l-22 -6q-73 -22 -136 -38l-15 -48q-5 -17 -17 -19q-17 -2 -33 29l-58 116q153 17 282 47v42q1 114 -8 160l69 -16
q11 17 16 26q30 48 56 101h-147q-68 0 -149 -10l-39 86q124 -19 188 -18l145 1l72 64l95 -80q45 -37 34 -57q-8 -13 -34 -15l-72 -4q-81 -74 -119 -106q55 -13 60 -40q4 -23 -47 -39zM842 849q183 -39 239 -61q89 -35 99 -88q8 -48 -33 -55q-29 -5 -70 36q-74 74 -247 134z
M697 945q41 78 71 180l105 -49q33 -15 31 -36t-36 -25l-48 -5q-10 -12 -31 -41q-6 -8 -21 -24h695l68 76l84 -54q40 -26 40 -49q0 -27 -77 -61v-261h177l99 101l120 -107q21 -18 16 -33q-6 -19 -26 -19h-386v-316q0 -142 -154 -170q-12 70 -48 92q-32 21 -159 44l8 46
q134 -22 189 -27q68 -6 68 57l1 274h-910q-38 -158 -144 -280q-88 -103 -295 -214l-17 36q299 201 366 458h-192q-69 0 -149 -11l-39 86q124 -17 188 -17h202q5 45 4 90l-1 184q-1 64 -11 145l115 -70h97zM1483 596v292l-893 -1l-2 -193q0 -47 -5 -98h900zM455 1696
q14 24 22 36q17 29 39 75h-147q-69 0 -148 -10l-40 86q128 -18 188 -18l146 1l72 64l95 -79q45 -38 34 -57q-8 -14 -34 -15l-72 -4q-77 -70 -101 -92q53 -14 58 -40q4 -23 -47 -39l-31 -10v-65q85 22 227 69l11 -34q-119 -60 -237 -105v-245q1 -119 -142 -143q0 61 -39 85
q-28 18 -96 32l8 42q91 -20 129 -20q46 0 47 69l2 149l-22 -6q-72 -22 -136 -38l-15 -48q-5 -17 -17 -19q-17 -2 -33 29l-58 115q155 18 282 48v42q1 112 -8 160zM1642 1683q12 19 17 29q31 49 56 101h-170q-68 0 -149 -10l-39 86q124 -19 188 -18l168 1l73 64l94 -80
q45 -37 34 -57q-8 -13 -34 -15l-72 -4q-39 -35 -59 -54q-42 -38 -63 -54q47 -13 51 -38q5 -23 -46 -39l-31 -10v-74l78 1l80 80l114 -85q21 -16 16 -34q-6 -19 -26 -19h-262v-227q1 -142 -158 -172q-2 65 -34 91q-24 20 -127 43l8 45q101 -17 148 -22q67 -7 68 57l4 185
l-85 -1q-71 0 -148 -11l-39 86q125 -18 187 -18l86 1v31q-3 137 -7 160zM826 475q132 -26 219 -50q150 -43 167 -113q4 -16 -2 -32q-9 -21 -29 -25q-26 -6 -80 40q-93 80 -286 146z" />
  </g>

</svg>
