<?xml version="1.0" standalone="no"?>
<!DOCTYPE svg PUBLIC "-//W3C//DTD SVG 1.1//EN" "http://www.w3.org/Graphics/SVG/1.1/DTD/svg11.dtd" >
<svg xmlns="http://www.w3.org/2000/svg" xmlns:xlink="http://www.w3.org/1999/xlink" version="1.1" viewBox="0 -205 1024 1024">
  <g transform="matrix(1 0 0 -1 0 819)">
   <path fill="currentColor"
d="M510 517l34 -36h73l37 109h-148q-27 1 -45 -13l-34 33h480l24 28l60 -38q8 -5 7 -8q-2 -2 -13 -2h-280l-59 -109h193l39 37l44 -45q7 -6 5 -10q-1 -5 -11 -7l-18 -9v-329l2 -45q1 -32 -42 -31v66h-305v-31q4 -37 -47 -44q5 37 7 112v323q-3 22 -17 38zM398 801v-683
q0 -26 -10 -47t-63 -30q-4 32 -43 46q-39 13 -78 21l2 14q107 -17 122 -17q16 0 23 6q8 6 7 70v322h-195q-3 -156 -22 -249q-26 -129 -105 -230l-10 12q70 139 85 266q11 84 12 201h-27q-27 1 -45 -13l-34 33h106q2 53 0 112v185q-2 23 -23 48l10 8l45 -44h40q4 9 11 26
q9 20 21 51q13 36 13 45q0 10 -14 23l10 9l72 -34q5 -4 5 -7q0 -4 -6 -6q-16 -1 -26 -8q-6 -9 -16 -27q-18 -31 -43 -72h120l30 43l46 -42q9 -6 9 -11q0 -4 -9 -8zM163 523h195v289h-195v-161q2 -69 0 -128zM858 233h-305v-105h305v105zM858 349h-305v-100h305v100zM553 365
h305v96h-305v-96zM698 989l68 -45q7 -8 -4 -11q-18 0 -26 -4q-7 -4 -36 -39q-27 -34 -64 -77q72 -39 100 -81q32 -57 -2 -77q-18 -6 -24 24t-19 49q-1 2 -3 4q-10 16 -23 31q-12 15 -61 46q32 44 63 90q31 48 32 56q2 8 -9 26zM538 989l68 -45q7 -8 -4 -11q-18 0 -26 -4
q-7 -4 -36 -39q-27 -34 -64 -77q72 -39 100 -81q32 -57 -2 -77q-18 -6 -24 24t-19 49q-1 2 -3 4q-10 16 -23 31q-12 15 -61 46q32 44 63 90q31 48 32 56q2 8 -9 26zM874 977l68 -45q7 -8 -4 -11q-18 0 -26 -4t-34 -33q-25 -28 -62 -71q72 -39 100 -81q15 -21 15 -48
q1 -27 -17 -31t-24 26t-19 49q-1 2 -3 4q-10 16 -23 31q-12 15 -61 46q8 11 23 32q9 12 38 52q29 42 30 50q2 8 -9 26zM201 435l6 10q51 -28 72 -90q20 -73 -18 -76q-21 0 -19 29t-6 63t-35 64zM205 753l6 10q40 -22 61 -62q23 -40 18 -71q-4 -31 -25 -31t-19 29t-6 63
t-35 62z" />
  </g>

</svg>
