<?xml version="1.0" standalone="no"?>
<!DOCTYPE svg PUBLIC "-//W3C//DTD SVG 1.1//EN" "http://www.w3.org/Graphics/SVG/1.1/DTD/svg11.dtd" >
<svg xmlns="http://www.w3.org/2000/svg" xmlns:xlink="http://www.w3.org/1999/xlink" version="1.1" viewBox="0 0 2048 2048">
  <g transform="matrix(1 0 0 -1 0 2048)">
   <path fill="currentColor"
d="M374 1471q124 -125 157 -201q20 -48 14 -84q-9 -49 -50 -44q-37 5 -45 64q-19 133 -101 243zM302 955q-9 -383 -42 -555q-30 -155 -150 -340l-30 21q84 186 105 378q22 192 24 477l-34 -8l-10 -42q-9 -31 -25 -32q-20 -1 -29 30l-39 135q59 6 137 17v561q0 73 -7 128
l99 -61l19 -10q53 105 90 273l121 -51q38 -17 36 -38q-3 -26 -48 -29l-48 -3q-40 -85 -96 -152h197l68 76l84 -54q40 -26 40 -48q0 -28 -78 -62v-448q40 8 80 15l10 -36q-38 -14 -90 -33v-828q0 -142 -152 -170q-11 70 -47 92q-33 21 -159 44l8 46q134 -22 188 -27
q68 -6 68 57v756q-97 -33 -290 -79zM302 1046q181 26 290 49v500h-290v-549zM366 872q124 -125 157 -201q20 -48 14 -83q-9 -50 -50 -45q-36 5 -45 65q-19 132 -101 243zM876 1733l-40 86q124 -18 188 -18h632l95 100l125 -105q20 -17 15 -33q-5 -19 -26 -19h-500v-161h451
l56 71l107 -79q24 -18 23 -38q-1 -21 -27 -27l-65 -15q-19 -28 -28 -42q-46 -68 -82 -110l-32 15q24 67 48 168h-451v-233q0 -108 11 -210q4 -28 4 -53q0 -39 -49 -42q-63 -4 -63 42l1 496l-396 -1q-11 -246 -108 -256q-47 -5 -47 43q0 26 32 61q54 59 72 134q10 40 15 140
h36v-63l396 -1v161h-245q-69 0 -148 -11zM1656 1356q-114 -57 -226 -88l-15 33q127 72 210 183l97 -84q21 -17 18 -32q-5 -25 -38 -20zM1433 1191q114 -11 218 -30q149 -27 172 -98q5 -16 -1 -32q-8 -23 -31 -26q-22 -4 -75 34q-102 72 -291 119zM918 1433q171 -17 227 -37
q82 -29 72 -91q-4 -29 -32 -32q-22 -3 -60 29q-66 55 -215 99zM1216 1205l15 -33q-118 -67 -265 -116q-18 -68 -39 -70q-16 -2 -33 46l-39 109q187 15 361 64zM1592 929l110 -77l90 1l60 72l70 -49q36 -26 40 -44q5 -20 -24 -37q-6 -4 -13 -7q-9 -5 -26 -14v-495l33 -26
q15 -12 15 -29t-16 -17h-248v-77q0 -26 -44 -30q-66 -5 -61 51l4 42q6 97 6 104zM1683 262h124v533h-124v-533zM1200 928l112 -76l86 1l60 72l70 -49q36 -26 40 -44q5 -20 -24 -37q-6 -4 -13 -7q-9 -5 -25 -14v-495l32 -26q15 -12 15 -29t-16 -17h-244v-77q0 -26 -44 -30
q-66 -5 -61 51l4 42q6 97 6 104zM1293 262h120v533h-120v-533zM810 928l112 -76l79 1l59 72l71 -49q36 -26 40 -44q5 -20 -24 -37q-6 -4 -13 -7q-9 -5 -26 -14v-495l33 -26q15 -13 15 -29q0 -17 -17 -17h-236l1 -77q0 -27 -45 -30q-66 -5 -60 51l4 42q6 97 6 104zM903 262
h113v533h-113v-533z" />
  </g>

</svg>
