<?xml version="1.0" standalone="no"?>
<!DOCTYPE svg PUBLIC "-//W3C//DTD SVG 1.1//EN" "http://www.w3.org/Graphics/SVG/1.1/DTD/svg11.dtd" >
<svg xmlns="http://www.w3.org/2000/svg" xmlns:xlink="http://www.w3.org/1999/xlink" version="1.1" viewBox="0 -205 1024 1024">
  <g transform="matrix(1 0 0 -1 0 819)">
   <path fill="currentColor"
d="M881 844q2 -5 -1 -7q-2 -2 -9 0q-20 -6 -29 -16q-9 -9 -39 -61l-21 -36q-25 -42 -38 -65h128l35 41l50 -41q7 -6 5 -10q-1 -5 -11 -7l-18 -9v-174l4 -70q7 -41 -48 -44v56h-312v-226q0 -44 16 -59q13 -16 59 -19q41 -5 59 -3q138 -1 178 5q52 8 56 40q8 38 12 161h15
l2 -113q2 -51 33 -66q-19 -30 -34 -40q-14 -10 -43 -17q-28 -8 -207 -6q-37 -2 -102 4q-88 7 -88 119v465q0 7 -1 13q-27 -36 -59 -68l-8 10q106 164 150 300q14 46 10 56q-3 10 -13 23l11 5l78 -37q2 -4 1 -6t-6 -2q-12 3 -29 -17q-10 -31 -24 -64h153l29 37zM405 497
l60 -55q6 -7 5 -11q0 -3 -7 -5q-20 3 -31 2q-10 -1 -54 -28q-38 -25 -106 -61q-1 -10 -4 -19q44 -23 85 -55q47 -38 72 -82q26 -44 24 -67q-2 -24 -20 -29t-33 40q-14 41 -55 94q-34 45 -77 79q-19 -79 -67 -144q-62 -82 -166 -131l-2 17q181 130 202 316q11 93 11 147
q2 54 -3 63q-3 9 -18 24l8 8l88 -25q7 -10 -2 -13q-9 -1 -30 -15q2 -88 -10 -182q60 42 89 68q35 30 35 35t-6 23zM316 953q6 -5 5 -9q-1 -3 -9 -5q-22 -4 -30 -18q-4 -55 -15 -103h139l32 40l68 -50q8 -5 7 -8q-2 -2 -13 -2h-237q-22 -94 -64 -159q-68 -102 -175 -150
l-6 14q95 59 145 150q38 70 55 145h-111q-27 1 -45 -13l-34 33h195q1 5 2 13q2 9 2 13q15 99 13 110q-1 12 -14 27l7 8zM716 639h-139v-218h139v218zM567 659h147l85 180h-164q-18 -41 -42 -85q-21 -39 -46 -75zM754 421h135v218h-135v-218zM270 738l4 13q116 -44 162 -111
q44 -70 1 -83q-19 -2 -31 32t-48 76q-35 42 -88 73zM144 481q10 -108 -27 -162q-42 -50 -66 -16q-10 18 10 30t39 41q20 29 27 107h17z" />
  </g>

</svg>
