<?xml version="1.0" standalone="no"?>
<!DOCTYPE svg PUBLIC "-//W3C//DTD SVG 1.1//EN" "http://www.w3.org/Graphics/SVG/1.1/DTD/svg11.dtd" >
<svg xmlns="http://www.w3.org/2000/svg" xmlns:xlink="http://www.w3.org/1999/xlink" version="1.1" viewBox="0 0 2048 2048">
  <g transform="matrix(1 0 0 -1 0 2048)">
   <path fill="currentColor"
d="M134 1733l-39 86q126 -18 188 -18h554l98 102l121 -107q20 -18 15 -34q-5 -18 -25 -18l-435 -1q-63 -178 -146 -312h418l68 76l80 -54q40 -27 40 -48q0 -30 -79 -61l-1 -903l4 -50l4 -71q5 -82 2 -93q-6 -25 -45 -30q-55 -8 -57 41l-2 35l-640 1v-42q0 -37 -53 -37
q-59 0 -55 60l4 56l4 80l4 76l1 920q0 29 -11 114l113 -70h148q54 130 89 312h-218q-69 0 -149 -10zM257 331h138v1046l-138 -1v-1045zM489 331h163v347h-163v-347zM749 331h148v1046l-148 -1v-1045zM489 736h163v289h-163v-289zM489 1079h163v298h-163v-298zM1546 1293h212
l68 76l84 -54q40 -26 40 -49q0 -27 -78 -61v-370l52 -34q22 -15 22 -34q0 -20 -18 -20h-655v-436q0 -64 32 -82q47 -27 291 -27q151 0 205 16q45 12 59 71q7 33 35 271l39 -5l-5 -224q-1 -59 16 -81q4 -5 37 -33q16 -14 17 -29q3 -48 -109 -64q-89 -12 -332 -12
q-199 0 -277 17q-105 23 -105 125v953q0 50 -9 146q-13 -14 -59 -60l-30 25q224 260 315 643l108 -36q59 -20 59 -40q0 -22 -46 -32l-44 -10q-25 -62 -50 -116h244l68 81l112 -81q21 -15 23 -35q3 -22 -30 -32l-64 -19q-44 -62 -125 -192q-82 -128 -102 -156zM1496 1293
q111 230 170 382h-272q-81 -163 -222 -317l113 -65h211zM1273 1235v-432h197v432h-197zM1566 1235v-432l210 1v432z" />
  </g>

</svg>
