<?xml version="1.0" standalone="no"?>
<!DOCTYPE svg PUBLIC "-//W3C//DTD SVG 1.1//EN" "http://www.w3.org/Graphics/SVG/1.1/DTD/svg11.dtd" >
<svg xmlns="http://www.w3.org/2000/svg" xmlns:xlink="http://www.w3.org/1999/xlink" version="1.1" viewBox="0 0 2048 2048">
  <g transform="matrix(1 0 0 -1 0 2048)">
   <path fill="currentColor"
d="M686 702q-123 -81 -368 -201q-5 -21 -7 -32q-7 -38 -25 -38q-16 0 -32 32l-63 121l14 4v608q0 114 -8 160l109 -24q82 -18 85 -44t-50 -43l-40 -14v-619q148 39 389 148q6 65 6 167v355q-4 145 -7 161l109 -25q83 -20 86 -44q3 -26 -51 -43l-41 -14v-413q0 -232 -40 -364
q-94 -314 -552 -492l-18 32q293 159 410 335q80 120 94 287zM1521 559h-350q-31 -5 -54 -5q-49 0 -49 49l2 582q0 115 -8 160l109 -24q83 -18 86 -44q3 -29 -50 -43l-41 -12v-606h355v680q0 117 -8 160l109 -24q83 -18 86 -44t-51 -44l-40 -13v-715h100l99 102l120 -107
q21 -18 16 -33q-6 -19 -26 -19h-309v-190q0 -107 12 -220q3 -28 3 -53q0 -39 -48 -42q-63 -4 -63 42v463zM644 1657l13 -139q5 -50 -52 -50q-43 0 -47 46l-12 143h-232q-117 0 -192 -8l-38 88q97 -23 230 -23h227l-6 66q-12 129 -19 158l111 -16q82 -12 87 -38
q6 -28 -45 -46l-42 -15l11 -109h120l99 102l121 -107q20 -18 15 -33q-6 -19 -26 -19h-323zM1438 1657l-14 -147q-5 -52 -54 -52q-44 0 -47 35q0 6 1 21l15 143h-15q-117 0 -192 -8l-40 88q96 -23 232 -23h20l7 74q12 124 8 157l107 -32q81 -24 82 -49q2 -31 -52 -41l-43 -7
l-9 -102h275l98 102l121 -107q20 -18 15 -33q-5 -19 -25 -19h-490z" />
  </g>

</svg>
