<?xml version="1.0" standalone="no"?>
<!DOCTYPE svg PUBLIC "-//W3C//DTD SVG 1.1//EN" "http://www.w3.org/Graphics/SVG/1.1/DTD/svg11.dtd" >
<svg xmlns="http://www.w3.org/2000/svg" xmlns:xlink="http://www.w3.org/1999/xlink" version="1.1" viewBox="0 0 2048 2048">
  <g transform="matrix(1 0 0 -1 0 2048)">
   <path fill="currentColor"
d="M424 866q-14 -245 -62 -399q-73 -237 -271 -394l-25 28q161 167 216 419q52 242 52 578v277l-6 116v44l112 -72h1177l61 72l72 -49q37 -26 42 -44q5 -20 -25 -37q-7 -4 -13 -7q-9 -5 -27 -14v-190l30 -21q16 -12 20 -21q6 -11 -2 -24q-6 -11 -11 -11h-1333
q0 -120 -3 -191h1301l68 76l84 -54q40 -26 40 -49q0 -27 -78 -61q-19 -482 -89 -631q-60 -126 -244 -147q-5 41 -17 62q-19 32 -241 102l14 40q184 -53 275 -61q91 -7 135 88q59 126 71 575h-1323zM431 1173h1197v232h-1197v-232zM722 369v-29q0 -27 -45 -30q-65 -5 -60 50
l3 42q6 96 6 105v248l118 -60h558l68 76l84 -54q40 -26 40 -49q0 -27 -79 -61v-156l43 -33q15 -12 15 -30q0 -19 -23 -19h-728zM722 425h596v214h-596v-214zM1354 1745l8 62q13 115 8 157l107 -32q80 -24 82 -49q2 -30 -52 -40l-43 -9l-10 -89h260l99 101l120 -107
q21 -18 16 -33q-6 -19 -26 -19h-474l-14 -131q-6 -52 -54 -52q-43 0 -46 35q-1 8 0 21l14 127h-34q-117 0 -192 -8l-38 88q97 -22 230 -22h39zM540 1744l-6 55q-15 141 -19 159l110 -16q83 -12 88 -38q6 -29 -46 -47l-41 -14l11 -99h128l98 102l121 -107q20 -18 15 -34
q-6 -18 -26 -18h-330l13 -124q5 -50 -52 -50q-43 0 -47 47l-12 127h-225q-120 0 -192 -8l-38 88q99 -23 230 -23h220z" />
  </g>

</svg>
