<?xml version="1.0" standalone="no"?>
<!DOCTYPE svg PUBLIC "-//W3C//DTD SVG 1.1//EN" "http://www.w3.org/Graphics/SVG/1.1/DTD/svg11.dtd" >
<svg xmlns="http://www.w3.org/2000/svg" xmlns:xlink="http://www.w3.org/1999/xlink" version="1.1" viewBox="0 -205 1024 1024">
  <g transform="matrix(1 0 0 -1 0 819)">
   <path fill="currentColor"
d="M587 737l89 -36q14 -5 6 -11q-21 -7 -30 -21v-145h191l32 40l68 -50q8 -5 7 -8q-2 -2 -13 -2h-250q18 -61 44 -105q62 -110 108 -146q62 -50 124 -59v-16q-62 2 -75 -24q-102 59 -168 190q-34 64 -54 160h-14v-379l2 -57q3 -35 -53 -44q5 37 7 146v334h-10
q-40 -148 -116 -243q-76 -94 -170 -143l-6 15q72 56 102 94q32 37 72 101q41 63 68 176h-114q-27 1 -45 -13l-34 33h253v155q2 16 -30 46zM626 998l89 -36q14 -5 6 -11q-21 -7 -30 -21v-68h186l36 44l72 -54q8 -5 7 -8q-2 -2 -13 -2h-288v-5l2 -57q3 -35 -53 -44q5 36 7 106
h-274v-17l2 -57q3 -36 -53 -44q5 38 7 114v4h-223q-27 1 -45 -13l-34 33h302v86q2 16 -30 46l9 12l89 -36q14 -5 6 -11q-21 -7 -30 -21v-76h274v78q2 16 -30 46zM368 654l16 -9l-134 -334q-28 -60 -32 -105q-4 -43 6 -109q11 -67 -27 -68q-37 -1 -22 80q15 79 -1 98
q-16 20 -98 33l2 16q52 -3 73 -3q26 0 61 65q4 6 6 10q20 37 150 326zM65 560l4 13q127 -36 151 -79q25 -50 -15 -57q-13 3 -25 25q-33 62 -115 98zM145 712l4 13q126 -42 148 -80q26 -48 -11 -61q-16 -1 -24 22q-7 24 -32 47q-24 24 -85 59zM710 695l4 12q101 -38 111 -79
q16 -50 -21 -53q-18 1 -20 22q-1 21 -15 41q-12 21 -59 57z" />
  </g>

</svg>
