<?xml version="1.0" standalone="no"?>
<!DOCTYPE svg PUBLIC "-//W3C//DTD SVG 1.1//EN" "http://www.w3.org/Graphics/SVG/1.1/DTD/svg11.dtd" >
<svg xmlns="http://www.w3.org/2000/svg" xmlns:xlink="http://www.w3.org/1999/xlink" version="1.1" viewBox="0 0 2048 2048">
  <g transform="matrix(1 0 0 -1 0 2048)">
   <path fill="currentColor"
d="M508 743l-38 88q98 -22 230 -22l413 -1v91q1 115 -6 153h-650q0 -400 -70 -607q-77 -227 -278 -372l-25 28q167 158 223 395q53 227 53 545v277l-6 116v44l112 -72h1211l61 72l72 -49q37 -26 42 -44q4 -20 -26 -37q-6 -4 -12 -7q-10 -4 -27 -14v-198l29 -21
q17 -12 21 -21q5 -11 -2 -24q-6 -11 -11 -11h-690l81 -17q82 -19 85 -44q4 -30 -49 -44l-42 -11v-128h461l98 112l142 -112q19 -15 17 -34q-2 -23 -31 -23h-687v-215h411l68 76l84 -54q40 -26 40 -49q0 -27 -78 -61v-219l57 -39q33 -22 27 -45q-6 -24 -46 -24h-1083v-37
q0 -45 -69 -40q-42 4 -39 53q2 24 4 55q5 82 5 103l-2 213l-4 55q-4 64 -9 101l118 -88h420v215h-413q-109 0 -192 -8zM689 180h946v302h-946v-302zM457 1108h1231v240h-1231v-240zM588 1733l-5 66q-12 129 -19 159l110 -16q83 -12 88 -38q6 -29 -46 -47l-41 -14l11 -110
h127l99 102l120 -107q21 -18 16 -34q-6 -18 -26 -18h-331l14 -139q4 -50 -52 -50q-44 0 -48 47l-12 142h-224q-118 0 -192 -8l-38 88q96 -23 230 -23h219zM1403 1733l7 74q12 124 8 157l108 -32q80 -24 82 -49q1 -30 -53 -40l-42 -9l-10 -101h260l98 102l121 -107
q20 -18 16 -34q-6 -18 -26 -18h-474l-15 -147q-5 -51 -54 -51q-42 0 -45 34q-1 8 0 22l14 142h-34q-118 0 -192 -8l-38 88q96 -23 230 -23h39z" />
  </g>

</svg>
