<?xml version="1.0" standalone="no"?>
<!DOCTYPE svg PUBLIC "-//W3C//DTD SVG 1.1//EN" "http://www.w3.org/Graphics/SVG/1.1/DTD/svg11.dtd" >
<svg xmlns="http://www.w3.org/2000/svg" xmlns:xlink="http://www.w3.org/1999/xlink" version="1.1" viewBox="0 0 2048 2048">
  <g transform="matrix(1 0 0 -1 0 2048)">
   <path fill="currentColor"
d="M1004 504q62 -55 158 -111q142 63 242 123q46 29 133 106l101 -74q34 -25 32 -48q-1 -21 -32 -21q-13 0 -27 4l-40 12q-161 -77 -359 -130q167 -91 361 -131q143 -30 325 -47v-37q-63 -12 -84 -35q-9 -10 -31 -52q-348 75 -552 192q-115 65 -251 202q-144 -254 -755 -396
l-11 40q435 132 591 291q73 75 115 194q8 23 20 75q4 16 11 37l104 -33q68 -22 64 -46t-36 -28l-45 -6q-20 -49 -34 -81zM1071 1437h450l61 76l72 -49q37 -25 42 -44q4 -20 -26 -37q-6 -4 -12 -7q-10 -5 -30 -16l2 -141h69l79 97l121 -102q21 -19 16 -34q-9 -21 -30 -21
h-255v-142l27 -20q25 -19 27 -34q2 -27 -17 -27h-596v-165h571l83 106l121 -107q20 -18 16 -33q-6 -19 -26 -19h-1440q-118 0 -192 -8l-39 84q100 -23 231 -23h582l-1 165h-413q-118 0 -192 -8l-38 88q95 -22 230 -22l413 -1v169h-604q-118 0 -192 -9l-38 89q96 -23 230 -23
h604l-1 163h-403q-118 0 -192 -8l-38 84q97 -23 230 -23l403 1v52q0 94 -7 132l109 -24q72 -16 74 -44q2 -23 -43 -36l-38 -12v-67zM1071 1382v-163h457v164zM1071 1159v-166l458 -1l-1 167h-457zM314 592q288 -99 298 -198q3 -23 -10 -43q-12 -20 -30 -23q-34 -7 -65 49
q-37 66 -96 112q-18 15 -114 73zM1416 1669l-22 -127q-10 -56 -59 -51q-40 5 -44 35q-1 8 1 16l22 127q-133 -4 -178 -8l-38 88q81 -20 225 -23l13 73q13 79 22 141l117 -28q52 -13 58 -32q10 -29 -49 -44l-39 -9l-19 -101h290l98 102l121 -107q20 -18 15 -34
q-6 -18 -26 -18h-508zM711 1669l9 -115q3 -44 -9 -56t-34 -15q-53 -7 -56 37l-9 149h-287q-117 0 -192 -8l-38 88q97 -23 230 -23h283l-14 204l125 -21q60 -10 62 -36q3 -23 -41 -39l-42 -15l8 -93h48l99 102l120 -107q21 -18 16 -34q-6 -18 -26 -18h-252z" />
  </g>

</svg>
