<?xml version="1.0" standalone="no"?>
<!DOCTYPE svg PUBLIC "-//W3C//DTD SVG 1.1//EN" "http://www.w3.org/Graphics/SVG/1.1/DTD/svg11.dtd" >
<svg xmlns="http://www.w3.org/2000/svg" xmlns:xlink="http://www.w3.org/1999/xlink" version="1.1" viewBox="0 0 2048 2048">
  <g transform="matrix(1 0 0 -1 0 2048)">
   <path fill="currentColor"
d="M1248 733v202h-321v-18q0 -27 -44 -31q-67 -5 -61 51l4 42q6 96 6 104l-1 250l118 -64h299v38q0 118 -7 160l109 -24q82 -18 85 -44q4 -28 -49 -43l-44 -13v-74h326l61 74l72 -51q37 -26 41 -43q5 -21 -27 -39q-7 -5 -15 -8q-10 -5 -28 -15v-164l29 -23q35 -26 33 -44
q-2 -21 -14 -21h-478v-202h407l61 73l72 -50q37 -25 41 -43q5 -21 -26 -39q-1 0 -25 -12q-9 -5 -17 -9v-201l31 -24q40 -32 40 -49q0 -22 -17 -22h-567v-153l4 -42q4 -76 4 -85q0 -45 -60 -41q-42 2 -42 42v279h-409v-24q0 -26 -45 -30q-65 -5 -60 51l4 42q6 98 6 104
l-1 297l116 -64h389zM1342 417h417v258h-417v-258zM1248 417v258h-409v-258h409zM927 989h321v222h-321v-222zM1342 1211v-222h334v222h-334zM1436 1691l-14 -132q-6 -51 -54 -51q-42 0 -46 34q-1 9 0 22l14 127q-120 1 -197 -8l-39 88q96 -22 230 -22h12l7 73q2 112 0 127
l107 -32q81 -24 82 -49q2 -30 -52 -40l-43 -9l-2 -70h284l99 101l120 -107q21 -18 16 -33q-6 -19 -26 -19h-498zM641 1691l14 -124q5 -50 -52 -50q-43 0 -48 47l-12 127h-222q-117 0 -192 -8l-38 88q95 -22 230 -22h217l-5 65q-16 116 -20 128l111 -16q83 -12 88 -37
q6 -29 -46 -47l-41 -14l11 -79h129l98 101l121 -107q20 -18 16 -33q-6 -19 -26 -19h-333zM379 990q-108 -123 -269 -229l-24 34q337 301 455 679l94 -41q69 -30 72 -49q3 -24 -48 -35l-51 -11q-86 -164 -166 -269l40 -9q83 -18 85 -43q3 -29 -49 -44l-40 -11v-606
q0 -108 11 -210q3 -28 3 -54q0 -38 -49 -41q-62 -4 -62 41v821q-1 55 -2 77z" />
  </g>

</svg>
