<?xml version="1.0" standalone="no"?>
<!DOCTYPE svg PUBLIC "-//W3C//DTD SVG 1.1//EN" "http://www.w3.org/Graphics/SVG/1.1/DTD/svg11.dtd" >
<svg xmlns="http://www.w3.org/2000/svg" xmlns:xlink="http://www.w3.org/1999/xlink" version="1.1" viewBox="0 0 2048 2048">
  <g transform="matrix(1 0 0 -1 0 2048)">
   <path fill="currentColor"
d="M842 1004l8 5l124 -80h707l68 75l83 -54q40 -25 40 -48q0 -27 -77 -61v-209l32 -25q23 -18 24 -37q2 -20 -16 -20h-891v-234q0 -70 49 -87q83 -29 304 -27q284 1 395 12q112 11 129 85q0 2 23 193h40v-126q0 -42 6 -59q5 -16 38 -40q36 -27 30 -53q-12 -50 -124 -69
q-155 -27 -430 -27q-320 0 -447 32q-64 15 -90 61q-17 30 -17 105v552q-5 101 -8 136zM1701 872h-330v-268h330v268zM944 872v-268h331v268h-331zM685 1684l8 -115q3 -44 -9 -56t-34 -15q-52 -7 -55 37l-9 149h-253q-116 0 -192 -8l-37 88q93 -23 229 -23h249l-14 220
l125 -21q59 -10 62 -36q3 -24 -42 -40l-41 -15l8 -108h82l99 102l120 -107q21 -18 16 -34q-6 -18 -26 -18h-286zM1432 1684l-23 -127q-10 -56 -58 -50q-40 4 -44 34q-1 8 0 16l22 127q-123 -3 -177 -8l-38 88q84 -20 225 -23l12 74q4 21 22 147l117 -28q52 -12 59 -31
q9 -29 -50 -44l-38 -10l-20 -108h290l99 102l120 -107q21 -18 16 -34q-6 -18 -26 -18h-508zM366 1143h-85q-113 0 -192 -8l-38 88q96 -23 230 -23h85v161q0 115 -8 160l109 -24q82 -18 85 -44q4 -25 -50 -44l-40 -13v-196h98l98 102l121 -107q21 -18 16 -33q-7 -19 -27 -19
h-306v-343q155 47 288 87l18 -38q-122 -55 -306 -125v-504q0 -79 -42 -117q-51 -45 -111 -56q-12 70 -47 93q-32 21 -158 43l7 46q137 -22 189 -26q47 -4 60 20q6 9 6 52v409q-54 -18 -81 -29q-75 -31 -99 -37l-9 -48q-2 -12 -8 -17q-17 -15 -31 3q-6 6 -34 64l-42 84
q271 60 304 68v371zM1034 1081v-19q0 -28 -48 -30q-65 -4 -60 50l4 42q7 98 7 104v275l120 -65h540l68 77l84 -55q40 -26 40 -48q0 -28 -78 -62v-193l41 -28q16 -10 20 -25q6 -23 -14 -23h-724zM1034 1135h578v245h-578v-245z" />
  </g>

</svg>
