<?xml version="1.0" standalone="no"?>
<!DOCTYPE svg PUBLIC "-//W3C//DTD SVG 1.1//EN" "http://www.w3.org/Graphics/SVG/1.1/DTD/svg11.dtd" >
<svg xmlns="http://www.w3.org/2000/svg" xmlns:xlink="http://www.w3.org/1999/xlink" version="1.1" viewBox="0 0 2048 2048">
  <g transform="matrix(1 0 0 -1 0 2048)">
   <path fill="currentColor"
d="M514 505l-69 17l9 37l79 -13l24 -4q162 164 228 319l115 -57q42 -21 41 -44q-2 -26 -53 -28l-41 -2q-31 -36 -56 -68h544l68 77l84 -55q40 -26 40 -48t-81 -56q-101 -120 -211 -206l21 -8q208 -74 302 -122q105 -54 120 -102q8 -23 -3 -42q-16 -30 -51 -27q-34 3 -146 75
q-110 71 -301 149l-33 13q-305 -188 -966 -246l-10 44q609 93 872 243q-183 69 -408 125l-22 6q-122 -97 -327 -175l-13 37q123 66 244 161zM1128 409q106 78 198 196h-586q-44 -48 -81 -82l19 -3q249 -52 450 -111zM1023 1402q-16 13 -20 36q-15 73 -91 152l24 26l42 -27
q122 -77 116 -143q-3 -27 -30 -44h721l56 74l54 -39q73 -52 69 -80q-4 -24 -91 -45q-67 -86 -194 -198l-40 32q70 55 146 200h-1470q-5 -81 -32 -145q-44 -105 -124 -105q-63 0 -53 49q5 22 65 83q54 55 83 147q12 40 21 135l36 -3q5 -58 4 -105h708zM1417 1698l-19 -109
q-6 -38 -17 -45q-20 -12 -47 -9q-40 5 -35 36l22 127h-58q-75 0 -149 -10l-39 86q27 -4 41 -6q85 -13 147 -13h66l24 190l137 -32q42 -10 38 -32q-5 -24 -89 -46l-13 -80h312l94 99l121 -102q20 -18 15 -35q-5 -19 -26 -19h-525zM673 1755h82l84 87l120 -92q21 -16 17 -32
q-5 -20 -27 -20h-269l15 -133q6 -45 -57 -45q-30 0 -34 33l-17 145h-318q-69 0 -149 -11l-39 86q126 -18 188 -18h311l-22 187l98 -13q79 -11 84 -34q6 -24 -78 -51zM693 1286l86 -47q53 -30 53 -49q0 -20 -50 -24l-54 -4q-81 -83 -204 -154q-103 -60 -296 -123l-19 39
q333 134 484 362zM1261 1251q201 -71 315 -133q138 -74 144 -149q2 -21 -11 -38t-31 -17q-31 0 -66 41q-118 142 -363 263zM131 634l-14 42q313 102 513 229q169 106 255 202q36 40 83 116l108 -41q67 -26 65 -46t-41 -27l-40 -6q155 -120 398 -213q261 -100 514 -126v-41
q-18 -6 -27 -7q-38 -6 -46.5 -10.5t-21.5 -24.5q-9 -14 -21 -43q-246 66 -446 176q-236 131 -394 275q-275 -289 -885 -455z" />
  </g>

</svg>
