<?xml version="1.0" standalone="no"?>
<!DOCTYPE svg PUBLIC "-//W3C//DTD SVG 1.1//EN" "http://www.w3.org/Graphics/SVG/1.1/DTD/svg11.dtd" >
<svg xmlns="http://www.w3.org/2000/svg" xmlns:xlink="http://www.w3.org/1999/xlink" version="1.1" viewBox="0 0 2048 2048">
  <g transform="matrix(1 0 0 -1 0 2048)">
   <path fill="currentColor"
d="M1123 1449l118 -62q22 -11 21 -31q-1 -24 -30 -26l-52 -3q-141 -193 -338 -331l-23 27q106 99 188 220q32 46 116 206zM1546 655v-364q0 -51 10 -67q19 -31 104 -31q127 0 158 25q33 25 46 130q9 66 20 142l31 -6l-5 -163q-2 -58 16 -80q4 -5 37 -34q16 -14 17 -29
q3 -37 -79 -59q-63 -16 -197 -16q-150 0 -194 19q-60 26 -60 115v418h-141q-19 -263 -128 -393q-74 -89 -197 -148q-25 -12 -135 -55l-15 37q194 104 275 222q68 99 80 205q15 117 17 132h-95v-46q0 -29 -46 -29q-63 0 -58 52q0 5 5 32q1 4 8 98l-2 364l101 -47h482l68 76
l84 -55q40 -26 40 -48q0 -28 -78 -62v-250l52 -33q22 -14 22 -33t-18 -19h-225zM1111 711h510v311h-510v-311zM1417 1663l-22 -127q-10 -56 -59 -50q-40 4 -44 34q-1 8 1 16l21 127q-123 -3 -177 -8l-38 88q85 -20 225 -23l13 74q3 20 22 147l117 -28q52 -12 58 -31
q10 -29 -49 -44l-40 -10l-18 -108h290l98 102l121 -107q20 -18 15 -34q-6 -18 -26 -18h-508zM669 1663l9 -115q6 -66 -42 -71q-53 -6 -56 37l-9 149h-252q-117 0 -192 -8l-39 88q96 -23 231 -23h248l-14 220l125 -21q60 -10 63 -36q2 -24 -42 -40l-42 -15l12 -108h79l98 102
l119 -107q22 -18 17 -34q-5 -18 -25 -18h-288zM305 650q-11 -182 -41 -279q-49 -162 -194 -316l-31 29q120 173 152 385q18 119 20 477v365q0 89 -6 166l112 -75h332l69 75l83 -53q40 -25 40 -48q0 -28 -78 -62v-1088q0 -137 -150 -171q-12 71 -47 94q-32 21 -160 43l8 46
q134 -22 190 -27q68 -5 68 57v382h-367zM305 1059h367v288h-367v-288zM305 999v-289h367v289h-367zM1490 1455l60 68l83 -57q25 -16 23 -33q-2 -22 -68 -51q218 -203 420 -238l-3 -37q-45 1 -69 -16q-20 -14 -40 -47q-204 104 -384 354h-110v57h88z" />
  </g>

</svg>
