<?xml version="1.0" standalone="no"?>
<!DOCTYPE svg PUBLIC "-//W3C//DTD SVG 1.1//EN" "http://www.w3.org/Graphics/SVG/1.1/DTD/svg11.dtd" >
<svg xmlns="http://www.w3.org/2000/svg" xmlns:xlink="http://www.w3.org/1999/xlink" version="1.1" viewBox="0 -205 1024 1024">
  <g transform="matrix(1 0 0 -1 0 819)">
   <path fill="currentColor"
d="M334 176q-114 -24 -150 -33q-35 -11 -50 -40l-51 57l111 18v370h-7q-27 1 -45 -13l-34 31h372l28 36l64 -44q8 -5 7 -8q-2 -2 -13 -2h-104v-329l92 15l3 -13l-95 -20v-79l2 -57q4 -37 -47 -44q5 38 7 166v7zM935 115l-1 -16q-56 3 -79 -27q-50 38 -100 88q-23 26 -46 57
q-18 -23 -40 -44q-76 -76 -176 -119l-2 16q82 52 149 126q25 28 47 56q-13 23 -25 45q-42 83 -62 203h-16q-25 1 -36 -16l-31 34h287l25 27l46 -40q7 -5 7 -9q0 -3 -7 -5q-25 -6 -36 -36q-9 -30 -51 -118q-22 -45 -53 -88q23 -29 42 -49q44 -44 77 -61q33 -21 81 -24z
M621 996l87 -36q14 -5 6 -11q-21 -7 -30 -21v-52h186l36 44l72 -54q8 -5 7 -8q-2 -2 -13 -2h-288v-17l2 -33q2 -35 -51 -44q5 38 7 90v4h-270v-17l2 -33q3 -36 -51 -44q5 38 7 90v4h-211q-27 1 -45 -13l-34 33h290v66q2 16 -30 46l9 12l87 -36q14 -5 6 -11q-21 -7 -30 -21
v-56h270v62q2 16 -30 46zM949 677q2 -5 -1 -7q-2 -2 -9 0q-38 -4 -55 -28q-5 -5 -28 -35q-15 -20 -25 -32l-13 8l38 92h-709q-5 -34 -16 -57q-35 -57 -67 -30q-12 16 9 35t38 43t27 91h15q2 -27 -3 -62h703l33 41zM688 326l9 -15q3 -6 14 -25q20 32 37 64q40 80 58 150h-184
q23 -94 66 -174zM424 309h-192v-125l192 29v96zM424 548h-192v-107h192v107zM424 425h-192v-100h192v100zM400 816l4 13q103 -16 128 -59q22 -43 -12 -53q-16 -3 -24 16q-7 20 -29 43t-67 40z" />
  </g>

</svg>
