<?xml version="1.0" standalone="no"?>
<!DOCTYPE svg PUBLIC "-//W3C//DTD SVG 1.1//EN" "http://www.w3.org/Graphics/SVG/1.1/DTD/svg11.dtd" >
<svg xmlns="http://www.w3.org/2000/svg" xmlns:xlink="http://www.w3.org/1999/xlink" version="1.1" viewBox="0 -205 1024 1024">
  <g transform="matrix(1 0 0 -1 0 819)">
   <path fill="currentColor"
d="M460 383l78 -34q8 -2 10 -5q1 -3 -4 -6q-16 -4 -27 -18v-95h198l32 40l68 -46q8 -5 7 -8q-2 -2 -13 -2h-292v-129h318l32 40l68 -48q8 -5 7 -8q-2 -2 -13 -2h-759q-27 1 -45 -13l-34 31h386v129h-203q-27 2 -45 -12l-34 28h282v105q2 17 -25 42zM612 999l87 -36
q14 -5 6 -11q-21 -7 -30 -21v-56h190l36 44l72 -54q8 -5 7 -8q-2 -2 -13 -2h-292l2 -30q2 -35 -51 -44q5 31 6 74h-253v-5l2 -33q3 -36 -51 -44q4 34 7 82h-223q-27 1 -45 -13l-34 33h302v70q2 16 -30 46l9 12l87 -36q14 -5 6 -11q-21 -7 -30 -21v-60h254v66q2 16 -30 46z
M974 313v-15q-57 -5 -72 -32q-160 27 -283 109q-64 41 -117 106q-88 -97 -213 -156q-130 -60 -241 -75l-2 14q107 30 207 79q101 50 162 108q61 59 62 70q1 12 -8 21l10 4l60 -29q18 -11 8 -17q-16 0 -27 -4q49 -48 101 -81q106 -68 213 -90q44 -9 69 -10q10 -1 36 -1
q22 -1 35 -1zM472 732q4 -4 3 -6q0 -2 -5 -3q-9 -3 -30 -17q2 -78 -21 -144q-22 -65 -100 -110q-77 -45 -203 -71l-2 17q236 63 269 176l5 17l-27 -6q-21 -5 -75 -16q-44 -13 -61 -22q-16 -9 -33 -29l-42 44q20 6 30 21v103q-1 24 -24 43l7 11l72 -31q18 -5 10 -13
q-16 -4 -29 -16v-98q101 15 177 28q8 38 8 66q2 42 -3 51q-3 9 -18 24l8 8zM744 744q7 -10 -2 -13q-9 -1 -30 -15q0 -47 -6 -100q65 33 92 54q30 24 30 29t-4 21l12 6l58 -45q6 -7 5 -11q0 -3 -7 -5q-20 3 -31 2t-49 -23q-35 -20 -109 -52q-1 -1 -1 -4q-1 -2 -1 -3
q63 -23 107 -50q45 -28 65 -60q19 -32 0 -46q-19 -13 -35 18q-16 32 -56 66q-34 30 -85 55q-11 -34 -32 -61q-32 -41 -83 -64l-2 17q81 60 88 162q5 51 5 78q2 28 -3 37q-3 9 -18 24l8 8zM603 722q11 -76 -15 -123q-13 -23 -36 -29q-22 -6 -29 9t14 27t35 41t14 75h17z" />
  </g>

</svg>
