<?xml version="1.0" standalone="no"?>
<!DOCTYPE svg PUBLIC "-//W3C//DTD SVG 1.1//EN" "http://www.w3.org/Graphics/SVG/1.1/DTD/svg11.dtd" >
<svg xmlns="http://www.w3.org/2000/svg" xmlns:xlink="http://www.w3.org/1999/xlink" version="1.1" viewBox="0 0 2048 2048">
  <g transform="matrix(1 0 0 -1 0 2048)">
   <path fill="currentColor"
d="M1762 761h-408q-125 -169 -340 -263h417v69q0 123 -7 160l108 -24q79 -17 82 -43q3 -30 -47 -44l-40 -11l-3 -107h223l94 101l115 -107q19 -18 15 -33q-6 -19 -25 -19l-422 1v-90q0 -110 10 -213q3 -28 4 -45q2 -50 -47 -50q-58 0 -58 54l-2 344h-447q-64 0 -142 -10
l-38 86q93 -14 162 -18l25 -1l-16 27q174 100 275 237l-236 -1v-7q-5 -24 -57 -24q-36 0 -36 50q0 10 3 49q6 70 6 152v301q-1 76 -16 137l113 -87h157q50 83 73 194l112 -48q32 -15 29 -37q-3 -20 -34 -24l-47 -6q-40 -52 -63 -79h493l64 76l81 -55q38 -26 38 -48
q0 -27 -74 -62l-1 -95v-194l3 -45l3 -61l4 -53q0 -58 -62 -65q-41 -4 -41 24v7zM1014 820h266q36 86 47 199h-313v-199zM1428 1018q-8 -102 -47 -198h381v199zM1014 1074h318v200h-318v-200zM1431 1274v-200h331v200h-331zM1429 1747h317l95 99l120 -104q21 -17 16 -33
q-6 -19 -26 -19h-530l-12 -99q-5 -46 -16 -53q-18 -11 -51 -7q-42 6 -36 33l4 15l13 111q-117 1 -203 -8l-37 88q27 -6 230 -23h20l10 88q0 1 7 99l88 -15q92 -17 95 -45q3 -26 -39 -35l-56 -12zM685 1690l10 -70q5 -36 4 -44q-2 -39 -59 -39q-28 0 -34 15q-2 5 -5 41l-9 97
h-278q-108 0 -192 -8l-38 88q32 -7 230 -23h270l-21 186l102 -14q73 -10 83 -26q15 -27 -40 -49l-38 -14l10 -83h79l85 88l118 -93q12 -9 13 -10q21 -23 -10 -39q-6 -3 -15 -3h-265zM159 1311l-39 86q120 -17 188 -18l303 -2l73 72l83 -55q40 -26 40 -48q0 -27 -77 -62v-189
l54 -37q26 -17 34 -34q17 -34 -38 -34h-453l-52 -247h338l69 80l93 -65q38 -26 38 -44q0 -26 -85 -57q-46 -351 -110 -461q-73 -124 -249 -144q-7 72 -52 94q-23 11 -165 60l12 41q40 -12 102 -29q106 -28 152 -28q110 0 156 167q23 82 55 328h-352l-27 -9q-31 -11 -47 -9
q-36 4 -36 28q0 8 5 32l52 238q21 99 23 155l98 -72h288v274h-325q-69 0 -149 -11z" />
  </g>

</svg>
