<?xml version="1.0" standalone="no"?>
<!DOCTYPE svg PUBLIC "-//W3C//DTD SVG 1.1//EN" "http://www.w3.org/Graphics/SVG/1.1/DTD/svg11.dtd" >
<svg xmlns="http://www.w3.org/2000/svg" xmlns:xlink="http://www.w3.org/1999/xlink" version="1.1" viewBox="0 0 2048 2048">
  <g transform="matrix(1 0 0 -1 0 2048)">
   <path fill="currentColor"
d="M1329 1273q-15 -2 -280 -26l-4 38q240 27 415 90q153 56 265 142l114 -80q17 -11 19 -23q4 -25 -34 -22l-57 4q-182 -70 -344 -106v-289l191 24l91 106l110 -92q24 -20 21 -38t-24 -20l-389 -38v-301l267 24l89 110l129 -97q22 -16 18 -32q-4 -19 -24 -21l-476 -41v-271
q0 -68 26 -80q33 -16 207 -16q175 0 200 39q20 31 44 210l6 46l31 -6l-5 -163q-1 -58 16 -81q4 -5 38 -33q16 -14 17 -29q3 -49 -110 -64q-84 -11 -295 -11q-167 0 -213 19q-59 25 -59 115v316l-112 -10q-89 -8 -191 -24l-46 84q44 -7 74 -7q103 0 158 5l117 10v302l-77 -7
q-150 -20 -173 -25l-45 77q176 2 214 5l81 8v279zM1422 1703l-22 -145q-6 -37 -18 -45q-19 -12 -47 -9q-43 5 -38 36l30 163h-43q-64 0 -149 -11l-39 86q126 -18 188 -18h51l25 193l139 -29q40 -9 37 -32q-2 -21 -37 -31l-55 -15l-13 -86h324l95 98l120 -103q21 -18 16 -33
q-6 -19 -26 -19h-538zM693 1760h75l83 87l120 -92q21 -16 17 -32q-5 -20 -27 -20h-262l20 -164q5 -49 -58 -46q-30 2 -34 34l-21 176h-321q-63 0 -149 -11l-39 86q126 -18 188 -18h315l-23 194l98 -13q80 -11 85 -34t-34 -36l-44 -15zM752 628l68 77l85 -55q39 -25 39 -48
q0 -27 -78 -62v-308q43 -36 50 -49q8 -17 -4 -30q-3 -3 -7 -3h-597v-62q0 -28 -48 -30q-66 -4 -61 51l5 41q6 95 6 105l2 437l118 -64h422zM767 571h-459v-367h459v367zM265 1244q-57 -4 -105 -9l-38 89q99 -24 230 -24h154q-13 15 -20 41q-33 108 -135 207l19 26
q219 -127 219 -221q0 -26 -22 -53h173l98 101l121 -106q20 -18 15 -32q-6 -19 -26 -19h-204l89 -34q57 -22 55 -46q-1 -20 -37 -26q-8 -1 -15 -1q-12 -1 -36 -5q-41 -109 -128 -264h125l99 102l120 -107q20 -18 16 -33q-5 -18 -26 -18h-719q-120 0 -192 -8l-38 88
q94 -24 230 -24h83q-13 17 -16 56q-7 117 -110 303zM276 1244q189 -203 173 -326q-4 -30 -28 -50h199q73 161 100 376h-444z" />
  </g>

</svg>
