<?xml version="1.0" standalone="no"?>
<!DOCTYPE svg PUBLIC "-//W3C//DTD SVG 1.1//EN" "http://www.w3.org/Graphics/SVG/1.1/DTD/svg11.dtd" >
<svg xmlns="http://www.w3.org/2000/svg" xmlns:xlink="http://www.w3.org/1999/xlink" version="1.1" viewBox="0 -205 1024 1024">
  <g transform="matrix(1 0 0 -1 0 819)">
   <path fill="currentColor"
d="M186 339l34 -28h540l35 38l47 -46q7 -6 6 -10q-1 -5 -10 -7l-20 -9v-194h73l32 40l68 -50q8 -5 7 -8q-2 -2 -13 -2h-887q-27 1 -45 -13l-34 33h174v201q-1 23 -19 41zM615 990l87 -36q14 -5 6 -11q-21 -7 -30 -21v-56h200l36 44l72 -54q8 -5 7 -8q-2 -2 -13 -2h-302v-17
l2 -25q3 -36 -51 -44q5 37 7 82v4h-258v-29l2 -21q3 -36 -51 -44q5 38 7 78v16h-233q-27 1 -45 -13l-34 33h312v70q2 16 -30 46l9 12l87 -36q14 -5 6 -11q-21 -7 -30 -21v-60h258v66q2 16 -30 46zM395 291h-160v-208h160v208zM621 83h155v208h-155v-208zM585 291h-154v-208
h154v208zM380 576q4 -3 3 -5q0 -2 -4 -4q-17 -2 -31 -17v-109q-9 -27 43 -27q33 -1 46 -1h39h67q120 1 127 4q8 3 15 21q7 51 11 115h15l2 -60q2 -56 27 -64q-10 -30 -40 -42q-12 -4 -35 -6q-22 -1 -40 -1h-38h-68q-124 0 -182 4q-31 9 -29 58v124q-3 19 -22 31l8 10z
M154 727q2 -25 1 -52h729l29 33l59 -50q4 -11 -10 -11q-28 1 -40 -11q-15 -10 -57 -65l-15 8l36 78h-732q-2 -31 -14 -55q-13 -26 -41 -37t-37 8q-9 20 16 33q49 22 61 121h15zM755 561l4 14q139 -47 143 -112q0 -28 -21 -29t-26 21q-13 57 -100 106zM439 625l4 12
q84 -31 109 -60q26 -28 23 -55t-23 -27t-22 21q-1 21 -18 45q-16 24 -73 64zM232 562q-1 -130 -60 -150q-30 -9 -37 10q-7 20 17 27q24 8 40 36t22 77h18zM439 808l6 13q95 -30 110 -67q20 -48 -20 -53q-19 1 -20 19q-1 19 -18 40t-58 48z" />
  </g>

</svg>
