<?xml version="1.0" standalone="no"?>
<!DOCTYPE svg PUBLIC "-//W3C//DTD SVG 1.1//EN" "http://www.w3.org/Graphics/SVG/1.1/DTD/svg11.dtd" >
<svg xmlns="http://www.w3.org/2000/svg" xmlns:xlink="http://www.w3.org/1999/xlink" version="1.1" viewBox="0 -205 1024 1024">
  <g transform="matrix(1 0 0 -1 0 819)">
   <path fill="currentColor"
d="M136 297l36 -36h283l39 39l46 -47q7 -6 5 -10q-1 -5 -11 -7l-18 -9v-83l3 -69q0 -32 -45 -33v44h-289v-9q5 -47 -49 -52q5 37 7 100v119q2 16 -19 37zM294 654l85 -28q14 -5 6 -11q-21 -7 -30 -21v-36h114l24 34l70 -42q5 -10 -6 -10h-202v-70h100l26 32l62 -38
q8 -5 7 -8q-2 -2 -13 -2h-182v-78h148l32 40l68 -48q8 -5 7 -8q-2 -2 -13 -2h-242l3 -54q2 -31 -52 -40q5 25 6 94h-150q-27 1 -45 -13l-34 31h229q0 15 1 32v46h-115q-19 1 -37 -13l-34 29h186v70h-155q-27 1 -45 -13l-34 31h234v46q2 16 -28 38zM185 104h289v139h-289
v-139zM615 998l87 -36q14 -5 6 -11q-21 -7 -30 -21v-52h196l36 44l72 -54q8 -5 7 -8q-2 -2 -13 -2h-298v-25l2 -25q3 -36 -51 -44q5 37 7 82v12h-258v-17l2 -21q3 -36 -51 -44q5 38 7 78v4h-225q-27 1 -45 -13l-34 33h304v66q2 16 -30 46l9 12l87 -36q14 -5 6 -11
q-21 -7 -30 -21v-56h258v62q2 16 -30 46zM847 713q-1 23 -26 46l8 11l84 -38q9 -4 11 -7q2 -4 -4 -7q-18 -5 -31 -16v-592q-1 -34 -16 -53q-14 -19 -80 -35q-3 31 -26 42q-22 10 -81 22l4 18l34 -8q71 -16 96 -6q27 10 27 52v571zM132 739v-3q2 -26 2 -49h413l27 28l52 -41
q5 -7 2 -11q-3 -3 -14 -2q-18 -4 -32 -14t-47 -52l-15 8l28 64h-414l-1 -8q-2 -43 -31 -68q-36 -24 -50 3q-6 15 16 30t32 41t14 74h18zM660 682l83 -36q14 -5 6 -11q-21 -7 -30 -21v-301l3 -69q1 -36 -48 -43q5 36 7 159v264q-1 16 -30 46zM238 801q116 -29 116 -74
q2 -24 -18 -28t-25 16t-20 34t-59 40z" />
  </g>

</svg>
