<?xml version="1.0" standalone="no"?>
<!DOCTYPE svg PUBLIC "-//W3C//DTD SVG 1.1//EN" "http://www.w3.org/Graphics/SVG/1.1/DTD/svg11.dtd" >
<svg xmlns="http://www.w3.org/2000/svg" xmlns:xlink="http://www.w3.org/1999/xlink" version="1.1" viewBox="0 -205 1024 1024">
  <g transform="matrix(1 0 0 -1 0 819)">
   <path fill="currentColor"
d="M998 665v-17h-65q-15 0 -25 -22q-156 18 -298 97q-47 27 -94 76l-1 -1q-110 -94 -287 -146l29 -21h468l17 23l42 -25q7 -4 7 -7q0 -4 -7 -8l-14 -9v-110l2 -35q-1 -30 -36 -31v28h-481q-13 -45 -39 -83q-50 -73 -160 -117l-6 12q88 53 131 114q43 62 47 162v77
q-2 13 -10 23l6 5q-88 -25 -193 -41l-4 15q154 30 291 95q68 32 111 63q45 33 45 42q2 11 -6 18l5 9l78 -37q15 -9 5 -13q-10 4 -19 4q41 -32 75 -49q89 -46 198 -71q55 -11 95 -14q41 -3 93 -6zM266 433l29 -28h454l27 25l36 -25q14 -10 0 -17l-14 -9v-60l2 -31
q1 -32 -36 -31v34h-463q-1 -16 -9 -23q-8 -9 -32 -14q0 4 1 12q4 25 6 56v74q-3 18 -13 26zM301 305h463v86h-463v-86zM630 998l85 -36q14 -5 6 -11q-21 -7 -30 -21v-43h188l29 42l74 -48q11 -7 8 -10q-2 -3 -19 -2h-280v-14l2 -25q3 -36 -49 -44v4q5 33 7 70v9h-282v-10
l2 -33q2 -35 -49 -44q5 37 7 82v5h-213q-27 1 -45 -13l-34 31h292v47q2 16 -30 46l9 12l85 -36q14 -5 6 -11q-21 -7 -30 -21v-37h282v53q2 16 -30 46zM772 228l85 -35q14 -5 6 -11q-21 -7 -30 -21v-65l4 -25q3 -31 -44 -40v48h-580l-27 -28l-42 36q20 10 24 30v69
q3 21 -19 38l5 7l79 -31q8 -2 10 -5t-3 -7q-20 -4 -32 -18v-73h271v130q2 17 -25 42l8 11l78 -34q14 -5 6 -11q-16 -4 -27 -18v-120h274v74q2 17 -30 45zM268 547h468v70h-468v-70zM267 535q-1 -34 -9 -64h478v64h-469zM415 706l4 13q86 3 127 -31q27 -34 -3 -46
q-13 -1 -25 14q-10 16 -36 29q-24 14 -67 21z" />
  </g>

</svg>
