<?xml version="1.0" standalone="no"?>
<!DOCTYPE svg PUBLIC "-//W3C//DTD SVG 1.1//EN" "http://www.w3.org/Graphics/SVG/1.1/DTD/svg11.dtd" >
<svg xmlns="http://www.w3.org/2000/svg" xmlns:xlink="http://www.w3.org/1999/xlink" version="1.1" viewBox="0 0 2048 2048">
  <g transform="matrix(1 0 0 -1 0 2048)">
   <path fill="currentColor"
d="M912 837q133 -80 149 -140q5 -24 -7 -46q-12 -21 -34 -23q-30 -2 -41 47q-14 60 -88 136zM703 527q-17 -2 -49 -3q-30 -1 -77 -8l-40 84q110 -15 168 -16v177q0 61 -8 226l114 -77h54q48 89 78 189l107 -52q24 -12 23 -27q-1 -17 -23 -20l-48 -7q-16 -18 -23 -27
q-24 -26 -58 -56h264l57 77l72 -50q37 -25 41 -43q5 -20 -25 -38q-6 -3 -13 -6q-9 -5 -28 -15v-252h12l72 82l80 -86q20 -19 16 -33q-6 -19 -26 -19h-154v-333q0 -115 -151 -139q-10 58 -34 76q-23 17 -116 37l8 46q88 -18 133 -23q69 -8 69 45v291h-404q-6 -106 -26 -184
q-30 -112 -97 -194q-31 -39 -101 -99l-25 30q114 126 139 255q17 86 19 192zM1198 583v273h-403v-272zM1042 1337v-160h168l61 82l114 -86q20 -15 15 -33q-5 -19 -26 -19h-603q-67 0 -149 -10l-39 84q70 -11 127 -15v130q0 118 -7 160l100 -24q70 -17 74 -44t-51 -42l-23 -7
v-176h146v266q0 118 -8 160l101 -24q70 -17 74 -44t-51 -42l-23 -7v-91h146l60 71l102 -77q21 -15 16 -33q-6 -19 -26 -19h-298zM239 1513q104 -43 167 -78q117 -66 121 -135q3 -59 -47 -59q-28 0 -59 46q-48 72 -93 111q-19 16 -109 78zM135 1141q121 -63 156 -87
q103 -68 110 -135q2 -27 -10 -48q-13 -22 -36 -22q-26 0 -52 52q-55 111 -189 205zM501 728l28 -24q-101 -225 -270 -508q-2 -16 -3 -23q-5 -73 -19 -79q-19 -7 -68 64l-52 75q210 211 384 495zM1479 1324l107 -24q83 -18 86 -43q3 -31 -50 -44l-39 -10l-2 -402
q0 -87 8 -181q3 -43 2 -70q-2 -50 -55 -53q-50 -3 -49 46v622q0 114 -8 159zM908 508q133 -80 148 -141q6 -24 -6 -45t-34 -23q-30 -2 -41 46q-15 60 -88 136zM1453 1688l-16 -106q-6 -37 -18 -45q-20 -12 -47 -9q-41 5 -36 36l21 124h-83q-67 0 -148 -11l-40 86
q121 -18 188 -18h91l22 185l137 -32q43 -10 38 -32q-4 -23 -88 -46l-12 -75h272l95 99l120 -102q20 -18 15 -35q-5 -19 -26 -19h-485zM693 1749h89l83 87l121 -91q20 -15 17 -32q-5 -21 -28 -21h-276l12 -122q4 -46 -58 -46q-31 0 -34 34l-14 134h-332q-64 0 -149 -11
l-39 86q126 -18 188 -18h326l-18 179l98 -13q80 -11 85 -34q5 -24 -78 -51zM1731 1560l110 -24q82 -18 85 -43q4 -30 -49 -44l-42 -11v-1190q0 -142 -154 -170q-11 69 -45 92q-31 21 -150 44l8 46q128 -22 178 -27q68 -6 68 57l-1 1110q0 116 -8 160z" />
  </g>

</svg>
