<?xml version="1.0" standalone="no"?>
<!DOCTYPE svg PUBLIC "-//W3C//DTD SVG 1.1//EN" "http://www.w3.org/Graphics/SVG/1.1/DTD/svg11.dtd" >
<svg xmlns="http://www.w3.org/2000/svg" xmlns:xlink="http://www.w3.org/1999/xlink" version="1.1" viewBox="0 -205 1024 1024">
  <g transform="matrix(1 0 0 -1 0 819)">
   <path fill="currentColor"
d="M440 198l4 -18l-159 -46q-126 -42 -154 -53q-29 -12 -35 -36l-52 54l86 22v240q2 17 -24 37l8 11l69 -29q14 -5 6 -11q-16 -4 -27 -18v-221l88 20v356h-71v-1q3 -37 -43 -44q5 37 7 100v135q-3 22 -18 38l15 11l31 -36h168l39 37l41 -45q7 -6 5 -10q-1 -5 -11 -7l-19 -9
v-127l3 -45q0 -31 -39 -31v34h-72v-170h70l24 36l55 -40q8 -6 7 -9t-11 -3h-145v-161zM923 496v-405q9 -53 -65 -65q-1 38 -89 48l2 15q80 -13 90 -13q12 0 19 6q8 6 7 71v358h-365v-392l4 -49q3 -38 -47 -46q5 39 7 94v399q-3 26 -24 45l12 9l39 -44h237l18 34q33 62 33 73
q0 13 -12 20l8 9l64 -35q9 -10 -1 -15q-12 5 -26 -2q-29 -42 -59 -84h102l21 31l40 -30q9 -6 9 -11q0 -4 -9 -8zM670 491l68 -24q14 -5 6 -11q-16 -4 -27 -18v-40h65l20 27l51 -34q5 -5 3 -6q-1 -2 -11 -1h-128v-85h52l19 27l36 -27q7 -5 5 -9q-1 -4 -11 -6l-14 -11v-73
l2 -31q1 -30 -32 -29v38h-137v-7q2 -33 -37 -42q5 35 7 77v80q-3 22 -13 32l10 11l27 -30h56v85h-65q-27 1 -45 -16l-32 30h142v46q2 17 -25 36zM626 999l82 -36q14 -5 6 -11q-21 -7 -30 -21v-37h202l33 41l68 -51q8 -5 7 -8q-2 -2 -13 -2h-297v-5l2 -17q2 -34 -45 -44
q5 33 6 66h-271v-17l2 -33q2 -34 -45 -44q5 38 7 90v4h-224q-27 1 -45 -13l-34 33h303v47q2 16 -30 46l9 12l82 -36q14 -5 6 -11q-21 -7 -31 -21v-37h272v47q1 16 -31 46zM179 526h179v163h-179v-163zM637 192h137v93h-137v-93zM437 692h435l31 38l62 -44q8 -5 7 -8
q-2 -2 -13 -2h-445q-27 1 -45 -13zM547 649l6 8q86 -31 96 -88q2 -27 -17 -31q-18 -3 -21 18q-3 22 -17 44q-13 22 -47 49zM606 794l4 13q103 -29 103 -76q2 -22 -16 -25t-21 15t-21 38t-49 35z" />
  </g>

</svg>
