<?xml version="1.0" standalone="no"?>
<!DOCTYPE svg PUBLIC "-//W3C//DTD SVG 1.1//EN" "http://www.w3.org/Graphics/SVG/1.1/DTD/svg11.dtd" >
<svg xmlns="http://www.w3.org/2000/svg" xmlns:xlink="http://www.w3.org/1999/xlink" version="1.1" viewBox="0 -205 1024 1024">
  <g transform="matrix(1 0 0 -1 0 819)">
   <path fill="currentColor"
d="M704 752q2 -5 -1 -7q-2 -2 -9 0q-26 -1 -42 -19q-10 -9 -38 -37h212l19 29l38 -27q7 -6 5 -10q-1 -5 -11 -7l-12 -9v-46l2 -33q1 -32 -36 -31v22h-603q-1 -8 -6 -11q-7 -7 -31 -12q1 9 3 25q2 12 4 33v38q-58 -39 -114 -63l-8 12q54 35 113 78l3 3q3 1 4 2q-4 17 -15 30
l14 11l20 -26q42 35 74 69q41 45 41 51q2 6 -9 21l11 5l60 -41q2 -4 1 -6t-6 -2q-18 5 -33 -11l-19 -20h288l27 27zM239 553l20 -24h513l15 17l36 -15q7 -6 5 -10q-1 -5 -11 -7l-8 -9v-110l2 -41q1 -32 -36 -31v22h-505q-1 -17 -10 -25q-9 -9 -31 -14q0 3 1 8q4 29 6 62v142
q-3 22 -7 26zM458 283q2 -4 1 -6t-6 -2q-18 5 -33 -13q-3 -3 -9 -10q-6 -6 -9 -10h253l27 26l43 -41q5 -4 5 -7q-1 -3 -8 -5q-21 1 -50 -22q-15 -14 -59 -43q-24 -13 -54 -29q53 -22 106 -32q148 -28 285 -15l-1 -16q-65 -8 -71 -31q-121 7 -217 27q-71 14 -140 49l-21 -9
q-167 -69 -428 -71v16q218 10 360 62q27 10 52 22q-4 2 -9 5q-75 43 -108 79q-8 -8 -26 -22q-3 -3 -5 -4q-39 -31 -118 -66l-6 12q92 55 155 127q32 34 30 41q0 7 -10 20l11 5zM652 1000l83 -36q14 -5 6 -11q-21 -7 -30 -21v-34h184l32 40l68 -48q8 -5 7 -8q-2 -2 -13 -2
h-278v-1l2 -25q2 -34 -47 -44q5 31 6 70h-264l1 -10q2 -34 -47 -44q5 29 6 54h-244q-27 1 -45 -13l-34 31h324v44q2 16 -30 46l9 12l83 -36q14 -5 6 -11q-21 -7 -30 -21v-34h266v44q2 16 -30 46zM270 471h505v44h-505v-44zM775 403h-505v-44h505v44zM775 459h-505v-44h505
v44zM252 689h334l38 60h-303q-33 -31 -69 -60zM629 675h-192v-84h192v84zM230 672v-81h175v84h-172zM661 591h170v84h-170v-84zM500 149l19 -10q13 7 26 12q53 29 105 75h-263q-3 -2 -5 -5q42 -33 118 -72zM658 301l4 14q134 -18 209 -69q57 -42 27 -66q-14 -6 -35 19
q-21 26 -72 54q-51 29 -133 48zM312 339l50 -37q8 -5 8 -9q0 -3 -8 -5q-20 3 -41 -12q-20 -13 -80 -45q-59 -30 -140 -58l-2 14q76 33 143 75q68 43 67 53q0 11 -7 16z" />
  </g>

</svg>
