<?xml version="1.0" standalone="no"?>
<!DOCTYPE svg PUBLIC "-//W3C//DTD SVG 1.1//EN" "http://www.w3.org/Graphics/SVG/1.1/DTD/svg11.dtd" >
<svg xmlns="http://www.w3.org/2000/svg" xmlns:xlink="http://www.w3.org/1999/xlink" version="1.1" viewBox="0 0 2048 2048">
  <g transform="matrix(1 0 0 -1 0 2048)">
   <path fill="currentColor"
d="M1063 178h679l98 91l121 -96q20 -17 15 -31q-6 -17 -26 -17h-1690q-65 0 -148 -9l-39 78q27 -4 41 -6q83 -11 146 -11l704 1v15h1v163h-518q-76 0 -149 -10l-38 78q27 -3 87 -11q36 -5 100 -5h518v121h-163q-41 0 -148 -10l-33 64q-270 -68 -482 -81l-8 35
q637 94 876 332l118 -50q40 -17 41 -36q2 -19 -28 -21q132 -55 389 -102q245 -44 443 -47v-33q-98 -2 -126 -71q-270 38 -531 132l97 -65q21 -15 16 -30q-6 -17 -26 -17h-337v-121h469l98 92l121 -97q20 -16 15 -30q-5 -17 -26 -17h-677v-178zM1297 648l-45 18
q-75 30 -153 71q-32 15 -43 22q-178 -110 -403 -168l28 -3q68 -8 121 -8l412 1zM1259 198l-7 38q25 12 38 19q81 39 144 94l83 -83q22 -22 7 -42q-10 -13 -30 -7l-64 19q-78 -20 -171 -38zM503 308l10 34q133 -26 164 -44q55 -33 45 -74q-11 -43 -50 -30q-14 5 -29 19
q-50 45 -140 95zM1294 1196q-11 -112 -32 -168q-36 -100 -132 -183l-30 23q63 99 80 192q22 118 22 254v94q0 49 -8 121l112 -71q94 11 199 42q146 42 215 101l92 -72q43 -33 35 -55q-5 -15 -24 -16q-11 -1 -27 2l-53 10q-160 -39 -379 -49l-38 -2l-28 -1l-1 -125l1 -43h438
l80 77l114 -82q21 -15 16 -31q-7 -18 -26 -18h-298v-143q0 -101 7 -173q4 -41 2 -66q-3 -49 -68 -48q-37 1 -37 23v407h-232zM923 1003l111 -79q20 -14 14 -30q-6 -18 -26 -18h-401q1 -32 5 -66q2 -15 2 -35q0 -52 -75 -47q-30 2 -30 25v123h-251q-50 0 -149 -10l-39 81
q127 -17 188 -17h251v98h-239v-11q0 -38 -63 -34q-21 1 -33 8q-13 8 -10 43q8 77 8 138v251l123 -61h214v80h-255q-107 -5 -149 -10l-39 81q136 -17 188 -17h255v9q0 82 -7 132l109 -24q82 -17 85 -41q3 -21 -48 -40l-41 -15v-21h260l80 76l114 -81q21 -15 16 -32
q-6 -17 -26 -17h-444v-80h223l68 73l84 -52q40 -25 40 -46q0 -26 -79 -58v-67q0 -70 6 -144q5 -52 -40 -65zM913 1001q-12 -1 -21 -1q-34 0 -34 22v6h-237v-98h217zM621 1311v-86h237v86h-237zM621 1170v-90h237v90h-237zM523 1080v90h-239v-90h239zM284 1225h239v86h-239
v-86zM653 1784h111l83 87l120 -92q21 -17 16 -34q-6 -19 -25 -19h-299l7 -35q10 -51 -46 -53q-44 -2 -47 42l-5 46h-249q-116 0 -192 -8l-34 88q103 -22 226 -22h241l-21 171l98 -13q88 -12 84 -38q-2 -14 -76 -51zM1447 1784h285l95 98l120 -103q21 -18 16 -34
q-6 -19 -26 -19h-498l-13 -79q-6 -38 -18 -45q-15 -9 -44 -7q-47 3 -44 30q0 4 5 28l17 73h-43q-117 0 -192 -8l-35 88q104 -22 227 -22h51q7 38 25 174l114 -23q56 -11 59 -33q3 -23 -36 -36q-8 -2 -15 -4q-13 -3 -38 -11z" />
  </g>

</svg>
