<?xml version="1.0" standalone="no"?>
<!DOCTYPE svg PUBLIC "-//W3C//DTD SVG 1.1//EN" "http://www.w3.org/Graphics/SVG/1.1/DTD/svg11.dtd" >
<svg xmlns="http://www.w3.org/2000/svg" xmlns:xlink="http://www.w3.org/1999/xlink" version="1.1" viewBox="0 -205 1024 1024">
  <g transform="matrix(1 0 0 -1 0 819)">
   <path fill="currentColor"
d="M620 915l31 -34h155l15 33l55 -43q8 -9 -9 -14l-19 -14v-709q-2 -44 34 -48q72 -12 75 62l7 109h13l1 -93q0 -43 20 -58q-16 -32 -39 -44q-22 -12 -103 -6q-47 18 -46 71v734h-146v-336q0 -150 -35 -283q-34 -131 -159 -220l-8 14q92 85 127 197q35 114 35 283v343
q0 24 -22 48zM578 762q3 -5 1 -6t-9 1q-34 8 -87 -62l-13 6l34 64h-360v-234q2 -180 -23 -288q-25 -105 -97 -187l-10 8q58 95 76 208q18 115 14 283v199q-6 21 -26 41l11 12l30 -22h170v162q0 17 -25 42l8 11l78 -34q14 -5 6 -11q-16 -4 -27 -18v-55h126l32 38l60 -46
q8 -6 7 -9q-2 -3 -13 -3h-212v-77h175l26 26zM206 439l33 -32h202l23 29l40 -33q7 -6 5 -10q-1 -5 -11 -7l-14 -9v-44l6 -33q1 -32 -42 -31v8h-202q-1 -6 -6 -9q-8 -9 -34 -14q5 37 7 76v64q-3 22 -21 34zM354 722q4 -3 5 -5q0 -2 -4 -4q-17 -2 -31 -17v-37l59 7l14 33
l56 -27q13 -7 10 -10q-2 -3 -20 -4l-119 -14v-7q0 -26 4 -43q4 -16 67 -16q64 0 77 2q14 2 17 24q3 47 7 75h11l2 -24q2 -52 21 -56q-2 -4 -4 -10q-11 -30 -25 -34q-11 -4 -65 -6q-53 -1 -115 3q-35 13 -31 88l-47 -5q-34 -7 -45 -22l-39 28l131 14v45q-4 15 -24 31l8 10z
M249 391v-93v-5h199v98h-199zM400 265l62 -32q8 -4 9 -7q0 -4 -7 -7q-10 0 -30 -8q-15 -26 -54 -79l132 18l4 -12l-118 -28q-160 -32 -185 -39t-41 -29l-40 52l224 35q24 43 37 72q13 30 13 36t-12 18zM163 496h312l20 28l52 -38q8 -5 7 -8q-2 -2 -13 -2h-299q-27 1 -45 -13
zM244 245q42 -18 60 -54q17 -41 -9 -51q-16 -2 -18 15q-1 20 -8 36q-7 17 -33 42z" />
  </g>

</svg>
