<?xml version="1.0" standalone="no"?>
<!DOCTYPE svg PUBLIC "-//W3C//DTD SVG 1.1//EN" "http://www.w3.org/Graphics/SVG/1.1/DTD/svg11.dtd" >
<svg xmlns="http://www.w3.org/2000/svg" xmlns:xlink="http://www.w3.org/1999/xlink" version="1.1" viewBox="0 0 2048 2048">
  <g transform="matrix(1 0 0 -1 0 2048)">
   <path fill="currentColor"
d="M1567 1455q99 -66 159 -95q77 -36 198 -66l-8 -38q-53 -6 -77 -14q-29 -11 -56 -46q-36 21 -54 32q-115 67 -239 165q-146 -104 -386 -182l-14 39q191 82 337 200q-91 87 -142 150q-20 26 -136 192q-25 1 -54 -3l-38 88q88 -20 192 -21l448 -1l69 76l83 -54
q40 -25 40 -49q0 -32 -87 -62q-97 -189 -235 -311zM1493 1506q22 24 97 104q48 51 114 187l-459 -1l-40 -2q143 -175 288 -288zM912 719l446 31l76 88l114 -86q21 -15 15 -33q-5 -17 -25 -19l-625 -43v-12q2 -54 119 -71q215 -31 494 14q50 8 71 -13q19 -19 19 -40
q0 -27 -35 -35q-31 -8 -120 -10q-215 -17 -431 0q-212 16 -212 136v26l-221 -20q-16 -2 -93 -21l-65 84q82 -2 165 -2l214 16v166h-430v-166q0 -303 -98 -453q-71 -111 -230 -201l-21 31q119 82 176 204q69 149 69 404v137l-4 86q-2 66 -4 95l112 -84h560v118q0 115 -8 160
l109 -24q82 -18 85 -44q4 -25 -51 -42l-38 -12l-2 -14h418l98 101l121 -107q21 -18 16 -33q-6 -16 -35 -16l-618 1v-88h717l56 66l80 -64q46 -36 41 -55q-7 -24 -82 -31q-28 -23 -71 -63q-41 -39 -82 -75l-30 24q53 77 88 145h-874l65 -22q36 -12 38 -30q2 -22 -36 -34
l-41 -13v-57zM627 1794v-142h174l63 68l72 -51q33 -23 34 -46q3 -26 -68 -56v-70l31 -27q25 -19 24 -33q-2 -19 -18 -19h-312v-144h156l81 81l114 -86q20 -16 15 -34q-6 -18 -26 -18h-684q-21 -11 -45 -11q-55 0 -53 48l2 37l2 62l3 63v354q0 2 -9 166l104 -84h504l80 81
l114 -86q21 -16 16 -34q-6 -19 -26 -19h-348zM537 1794l-254 2v-144h254v142zM283 1474h528v121h-528v-121zM537 1418h-254v-144h254v144zM1798 390l38 -5v-88q-1 -60 15 -80q4 -5 38 -34q16 -14 17 -29q5 -80 -412 -75q-174 2 -214 19q-64 28 -61 134l2 63q2 99 -8 159
l109 -24q82 -18 85 -43q3 -26 -50 -44l-41 -13l2 -67l-1 -40q0 -27 27 -37.5t109 -13.5q265 -9 297 27q20 23 48 191zM742 483l107 -24q84 -19 88 -42q5 -31 -52 -45l-42 -12q-43 -146 -169 -211q-104 -53 -321 -94l-10 37q200 53 288 121q70 54 92 127q15 51 19 143z" />
  </g>

</svg>
