<?xml version="1.0" standalone="no"?>
<!DOCTYPE svg PUBLIC "-//W3C//DTD SVG 1.1//EN" "http://www.w3.org/Graphics/SVG/1.1/DTD/svg11.dtd" >
<svg xmlns="http://www.w3.org/2000/svg" xmlns:xlink="http://www.w3.org/1999/xlink" version="1.1" viewBox="0 -205 1024 1024">
  <g transform="matrix(1 0 0 -1 0 819)">
   <path fill="currentColor"
d="M212 186h200v72h-105v-5q3 -36 -41 -44q0 2 1 5q4 33 6 67v66q-3 22 -17 38l14 11l26 -32h116v72h-59q-2 -11 -8 -17q-8 -9 -32 -14q1 6 2 17q3 20 5 47v46h-25q-27 1 -45 -13l-28 29h98v46q2 16 -28 40l9 12l77 -30q14 -5 6 -11q-21 -7 -30 -21v-36h152v34q2 16 -28 40
l9 12l77 -30q14 -5 6 -11q-21 -7 -30 -21v-24h44l24 34l50 -40q8 -5 7 -8q-2 -2 -13 -2h-112v-41l4 -25q1 -37 -38 -46v33h-58v-72h91l31 33l40 -41q7 -6 5 -10q-1 -5 -11 -7l-18 -9v-54l2 -23q1 -32 -36 -31v36h-104v-72h116l24 27l44 -37q8 -5 7 -8q-2 -2 -13 -2h-178v-55
l2 -45q4 -37 -45 -44q5 37 7 94v50h-123q-27 1 -45 -13zM686 580l30 -31h165l20 31l42 -30q9 -6 9 -11q0 -4 -9 -8l-14 -13v-411q0 -24 -10 -40t-61 -25q-3 34 -85 48l2 15q71 -13 86 -13q16 0 23 6q8 6 7 70v114h-167q-6 -63 -20 -102q-29 -79 -115 -149l-8 12
q71 82 90 152q20 71 18 223v116q-4 21 -16 33zM154 862l42 -32h294v114q2 17 -25 36l8 11l76 -28q14 -5 6 -11q-16 -4 -27 -18v-19h254l30 38l66 -46q8 -6 7 -9q-2 -3 -13 -3h-344v-65h377l25 29l43 -40q3 -5 1 -7q-2 -3 -9 -2q-20 -5 -40 -31q-1 -1 -1 -2q-2 -3 -10 -13
q-9 -13 -16 -22l-13 8l22 60h-700v-250q-3 -383 -152 -531l-10 12q63 87 94 227q32 146 30 316v225q-4 21 -26 41zM555 769q4 -3 3 -5q0 -2 -4 -4q-17 -1 -29 -15v-17l191 11l26 37l62 -39q13 -7 10 -10q-2 -3 -20 -4l-269 -15v-6q0 -18 5 -36q5 -17 149 -14q146 3 156 5
q12 2 21 24q5 32 7 69h13l2 -26q2 -43 27 -54q-18 -31 -41 -37q-10 -4 -159 -6q-147 -2 -179 4q-39 12 -39 75l-157 -8q-34 -3 -45 -18l-39 32l241 14v25q-3 23 -20 35l8 10zM891 408h-163q2 -62 -3 -110h166v110zM727 424h164v105h-164v-97v-8zM506 515h-152v-63h152v63z
M412 348h-105v-74h105v74zM448 274h104v74h-104v-74z" />
  </g>

</svg>
