<?xml version="1.0" standalone="no"?>
<!DOCTYPE svg PUBLIC "-//W3C//DTD SVG 1.1//EN" "http://www.w3.org/Graphics/SVG/1.1/DTD/svg11.dtd" >
<svg xmlns="http://www.w3.org/2000/svg" xmlns:xlink="http://www.w3.org/1999/xlink" version="1.1" viewBox="0 0 2048 2048">
  <g transform="matrix(1 0 0 -1 0 2048)">
   <path fill="currentColor"
d="M1625 621q-55 83 -180 206l27 30q317 -214 333 -347q9 -76 -54 -76q-40 0 -65 68q-11 28 -38 83q-188 -36 -500 -75q-155 -20 -533 -55q-5 -23 -8 -34q-10 -45 -33 -47q-20 -2 -44 56l-53 125q256 6 599 24v404h-356v-25q0 -45 -69 -40q-42 3 -39 53l3 54q8 136 8 142
v417l121 -64h332v229q0 118 -7 159l109 -24q82 -18 85 -43q4 -29 -49 -44l-42 -12v-235v-30h341l68 76l84 -54q40 -26 40 -49q0 -27 -77 -61v-355q20 -14 31 -21q44 -30 45 -49q1 -24 -31 -24h-501v-398q86 6 130 8q201 13 323 28zM1076 1464h-356v-423h356v423zM1172 1464
v-423h361v423h-361zM221 1770l109 -24q82 -18 86 -43q3 -29 -50 -44l-40 -11v-1419h1363l106 119l142 -114q20 -16 24 -27q6 -14 -9 -27q-6 -6 -21 -6l-1604 1q-43 -13 -64 -11q-35 3 -34 30v1417q-4 143 -8 159z" />
  </g>

</svg>
