<?xml version="1.0" standalone="no"?>
<!DOCTYPE svg PUBLIC "-//W3C//DTD SVG 1.1//EN" "http://www.w3.org/Graphics/SVG/1.1/DTD/svg11.dtd" >
<svg xmlns="http://www.w3.org/2000/svg" xmlns:xlink="http://www.w3.org/1999/xlink" version="1.1" viewBox="0 -205 1024 1024">
  <g transform="matrix(1 0 0 -1 0 819)">
   <path fill="currentColor"
d="M78 774l37 -50h92v198q2 17 -27 42l8 11l86 -34q14 -5 6 -11q-17 -4 -29 -18v-188h69l35 41l46 -49q7 -6 5 -10q-1 -5 -11 -7l-18 -9v-198l4 -70q5 -39 -44 -44v34h-86v-229l107 24l-6 18q-16 43 -46 77l10 16q77 -67 93 -124q13 -39 4 -57q-10 -21 -26 -16q-15 7 -17 32
q-1 15 -6 33l-112 -33q-92 -26 -129 -44q-27 -14 -33 -32l-50 60l167 36v239h-86v-19q3 -38 -47 -46q5 39 7 119v254q-4 24 -18 42zM783 300l12 10q137 -111 150 -215q3 -46 -22 -49t-30 36q-3 24 -14 56l-226 -24q-121 -9 -145 -16q-24 -8 -36 -23l-32 68q14 -1 36 10
q74 91 147 202q47 70 87 136l-136 -11q-3 0 -8 -1q-42 -3 -62 -7q-19 -4 -42 -24l-38 62q33 2 52 24q72 104 160 281q-2 15 -8 23l6 5h-186q-27 1 -45 -13l-34 33h510l36 42l70 -52q8 -5 7 -8q-2 -2 -13 -2h-336l60 -34q5 -3 5 -6t-5 -5q-15 0 -29 -8q-106 -178 -181 -283
l230 5q7 12 21 34q9 14 13 21q61 101 61 108t-10 23l9 7l66 -44q14 -10 4 -13q-25 3 -34 -9q-209 -339 -353 -502l371 19q-3 11 -8 22q-25 58 -80 122zM251 432h86v272h-86v-272zM207 704h-86v-272h86v272z" />
  </g>

</svg>
