<?xml version="1.0" standalone="no"?>
<!DOCTYPE svg PUBLIC "-//W3C//DTD SVG 1.1//EN" "http://www.w3.org/Graphics/SVG/1.1/DTD/svg11.dtd" >
<svg xmlns="http://www.w3.org/2000/svg" xmlns:xlink="http://www.w3.org/1999/xlink" version="1.1" viewBox="0 0 2048 2048">
  <g transform="matrix(1 0 0 -1 0 2048)">
   <path fill="currentColor"
d="M1699 253q-28 -4 -52 -7q-24 -2 -135 -17q-338 -46 -842 -73q-207 -11 -393 -23l-4 -26q-6 -40 -29 -40q-24 0 -47 66l-34 99q529 0 811 18v273h-521v-24q0 -22 -17 -32q-23 -12 -52 -8q-33 5 -36 36q-2 14 4 80q6 69 6 133v284l118 -63h498v86q0 119 -8 160l109 -24
q83 -18 86 -43q4 -31 -53 -44l-40 -9v-126h507l62 76l84 -54q40 -26 40 -49q0 -27 -78 -61v-237q20 -17 30 -24q38 -30 20 -50q-7 -7 -28 -7h-637v-268l88 4q310 18 505 40q-73 84 -178 145l20 35q417 -187 387 -336q-4 -23 -19 -37q-21 -21 -49 -11t-59 69q-12 22 -64 89z
M453 578h521v294h-521v-294zM1068 872v-294h519v294h-519zM1100 1628h402l99 101l120 -107q21 -18 16 -33q-6 -19 -26 -19h-611v-307h620l99 101l121 -106q20 -18 15 -34q-6 -19 -26 -19h-1604q-108 0 -192 -7l-38 88q96 -23 230 -23h121v373q0 121 -9 160l110 -24
q82 -18 85 -44q4 -28 -49 -43l-41 -12v-410h463v533q0 122 -9 159l109 -24q83 -18 86 -43q3 -29 -50 -44l-41 -12v-204z" />
  </g>

</svg>
