<?xml version="1.0" standalone="no"?>
<!DOCTYPE svg PUBLIC "-//W3C//DTD SVG 1.1//EN" "http://www.w3.org/Graphics/SVG/1.1/DTD/svg11.dtd" >
<svg xmlns="http://www.w3.org/2000/svg" xmlns:xlink="http://www.w3.org/1999/xlink" version="1.1" viewBox="0 0 2048 2048">
  <g transform="matrix(1 0 0 -1 0 2048)">
   <path fill="currentColor"
d="M488 861l122 -63h360v101q0 118 -7 160l111 -24q82 -18 85 -44q4 -30 -49 -44l-42 -11v-138h357l68 76l83 -59q37 -27 36 -49q-2 -23 -73 -56l1 -178q72 -53 72 -76q0 -18 -16 -18h-528v-213q84 5 280 17l185 13l61 3q-46 46 -145 125l21 31q139 -73 210 -121
q123 -84 137 -155q7 -36 -12 -61q-14 -20 -38 -20q-21 0 -36 19q-4 4 -31 49t-71 95q-470 -61 -1054 -102l-194 -14l-6 -32q-5 -34 -25 -38q-18 -4 -45 51l-57 115q53 -2 70 -2l171 4q289 6 481 18v218h-385l-1 -61q0 -27 -44 -31q-66 -5 -61 51l4 42q6 96 6 104zM1444 744
h-165v0h-211v-250h376v250zM585 494h385v250h-385v-250zM79 623l-22 35q373 223 545 479h-269q-119 0 -193 -9l-38 89q95 -23 231 -23l311 1q70 118 117 222h-230q-119 -1 -193 -8l-38 88q93 -22 230 -22h254q39 80 69 204h-426q-105 0 -193 -9l-39 88q95 -22 232 -22h438
q31 123 45 235l158 -49q30 -10 30 -30t-25 -27l-60 -15q-17 -56 -36 -114h604l98 102l121 -107q20 -18 15 -33q-6 -19 -26 -19h-830q-13 -50 -59 -174l-11 -31l593 2l99 102l120 -107q21 -18 16 -34q-6 -18 -26 -18l-825 -1q-54 -120 -116 -223l958 -1l99 102l120 -107
q21 -18 16 -34q-6 -18 -26 -18h-488q233 -264 558 -352v-35q-62 -2 -88 -16q-23 -11 -42 -53q-169 98 -295 221q-95 93 -193 235l-651 -1q-111 -146 -213 -237q-169 -152 -426 -276z" />
  </g>

</svg>
