<?xml version="1.0" standalone="no"?>
<!DOCTYPE svg PUBLIC "-//W3C//DTD SVG 1.1//EN" "http://www.w3.org/Graphics/SVG/1.1/DTD/svg11.dtd" >
<svg xmlns="http://www.w3.org/2000/svg" xmlns:xlink="http://www.w3.org/1999/xlink" version="1.1" viewBox="0 -205 1024 1024">
  <g transform="matrix(1 0 0 -1 0 819)">
   <path fill="currentColor"
d="M65 778l37 -50h88v198q2 17 -27 42l8 11l86 -34q14 -5 6 -11q-17 -4 -29 -18v-188h73l23 33l46 -37q7 -6 5 -10q-1 -5 -11 -7l-14 -13v-198l4 -70q7 -41 -44 -44v34h-82v-233l95 22q-1 5 -5 13q-3 9 -5 13q-20 49 -50 83l10 16q78 -71 97 -134q14 -40 6 -59
q-8 -22 -25 -18q-14 6 -16 32q-1 14 -6 32l-120 -40q-78 -20 -105 -34t-33 -32l-50 60l163 36v243h-82v-19q3 -38 -47 -46q5 39 7 119v254q-4 24 -18 42zM398 722h326v233q-7 25 -22 38l11 9l78 -28q8 -5 9 -8q0 -4 -7 -7q-16 -4 -25 -18v-219h112l34 42l68 -52q8 -5 7 -8
q-2 -2 -13 -2h-207q2 -90 9 -169q25 -228 77 -334q20 -43 45 -73q13 -16 22 -13q10 3 16 25l24 115l15 -4q-15 -114 -15 -142q0 -19 10 -45q8 -20 4 -26q-13 -21 -69 15q-64 41 -113 168q-25 70 -42 172q-16 102 -21 179q-4 57 -6 132h-250q-27 2 -45 -15zM566 177
q-79 -25 -96 -38q-16 -14 -22 -32l-44 55l137 34v313h-51q-27 1 -45 -13l-34 33h198l28 40l62 -50q8 -5 7 -8q-2 -2 -13 -2h-112v-303l151 38l6 -14zM234 436h82v272h-82v-272zM190 708h-82v-272h82v272zM813 919l9 11q92 -44 98 -109q2 -28 -17 -32t-24 21t-16 50t-50 59z
" />
  </g>

</svg>
