<?xml version="1.0" standalone="no"?>
<!DOCTYPE svg PUBLIC "-//W3C//DTD SVG 1.1//EN" "http://www.w3.org/Graphics/SVG/1.1/DTD/svg11.dtd" >
<svg xmlns="http://www.w3.org/2000/svg" xmlns:xlink="http://www.w3.org/1999/xlink" version="1.1" viewBox="0 0 2048 2048">
  <g transform="matrix(1 0 0 -1 0 2048)">
   <path fill="currentColor"
d="M1679 223q-56 -6 -147 -17q-424 -48 -1264 -88l-2 -34q-2 -36 -29 -30q-14 3 -37 49l-59 119q111 -6 307 -6q259 0 527 14v202h-544v-24q0 -27 -44 -30q-66 -5 -61 51l4 41q6 96 6 105l-1 251l118 -63h522v68q0 55 -8 120l122 -26q62 -13 60 -40q-1 -25 -80 -43v-79h524
l61 72l72 -50q37 -25 42 -43q5 -21 -25 -38q-7 -3 -13 -7q-9 -4 -27 -14v-169q57 -45 54 -64q-2 -18 -31 -18h-657v-198q272 13 556 39l15 1q-43 57 -97 102l29 28q23 -16 100 -68q177 -119 187 -214q4 -30 -21 -55q-15 -13 -31 -13q-27 0 -40 19q-10 16 -36 72
q-10 21 -52 78zM431 488h544v217h-544v-217zM1069 705v-217h538v217h-538zM635 1315v169h-302v-236q-8 -42 -72 -42q-24 0 -24 24v372l120 -64h278v149h-263q-126 -1 -192 -7l-42 87q97 -25 234 -25h263v63q0 91 -8 133l110 -24q69 -16 73 -44q3 -25 -48 -43l-31 -12v-73
h271l99 101l120 -107q21 -18 16 -31q-7 -18 -26 -18h-480v-149h294l61 72l72 -49q37 -26 42 -44q5 -20 -26 -37q-6 -4 -13 -7q-9 -4 -27 -14v-112q0 -116 -139 -137q-9 49 -34 64q-22 14 -112 31l8 46q73 -15 114 -19q69 -8 68 56l-2 96h-306v-237l17 -4l18 -5
q133 -31 227 -63q141 -48 156 -121q10 -47 -31 -54q-29 -6 -93 48q-98 84 -294 157v-141q2 -64 7 -108q2 -18 2 -29q0 -49 -63 -49q-42 0 -42 34v270q-112 -94 -231 -147q-78 -35 -281 -93l-16 42q167 55 280 122q91 54 219 180zM1358 1801l109 -24q83 -18 86 -44
q3 -30 -50 -44l-42 -11l1 -331q3 -100 7 -135q6 -51 -61 -51q-42 0 -42 48v432q0 118 -8 160zM1766 1893l109 -24q83 -18 86 -44q3 -30 -50 -43l-41 -12v-701q0 -142 -154 -170q-12 69 -48 92q-32 21 -159 44l8 46q134 -22 190 -27q68 -6 68 57l-1 622q0 121 -8 160z" />
  </g>

</svg>
