<?xml version="1.0" standalone="no"?>
<!DOCTYPE svg PUBLIC "-//W3C//DTD SVG 1.1//EN" "http://www.w3.org/Graphics/SVG/1.1/DTD/svg11.dtd" >
<svg xmlns="http://www.w3.org/2000/svg" xmlns:xlink="http://www.w3.org/1999/xlink" version="1.1" viewBox="0 -205 1024 1024">
  <g transform="matrix(1 0 0 -1 0 819)">
   <path fill="currentColor"
d="M534 714q5 -12 -4 -13q-17 2 -34 -15q-31 -43 -63 -81h430l32 40l68 -50q8 -5 7 -8q-2 -2 -13 -2h-324q60 -57 93 -78q62 -40 125 -61q50 -16 139 -20l2 -16q-69 -2 -79 -34q-130 44 -205 103q-40 31 -102 106h-191q-63 -68 -133 -116q-36 -25 -72 -45l25 -30h260v100
q2 17 -27 42l8 11l82 -34q14 -5 6 -11q-17 -4 -29 -18v-90h240l9 13l48 -21q7 -6 5 -10q-1 -5 -11 -7l-6 -9v-84l4 -42q6 -39 -44 -43v27h-245v-120l283 8q-34 23 -102 55l8 13q206 -54 192 -128q-6 -17 -21 -16q-15 2 -21 20q-5 16 -29 36l-407 -17q-226 -12 -258 -17
q-31 -5 -48 -24l-40 55l403 13v122h-252v-1q2 -36 -47 -45q5 38 7 86v130l-10 26q-76 -40 -157 -66l-4 14q126 53 224 127q65 50 109 96h-239q-27 1 -45 -13l-34 33h336q13 14 23 27q52 70 52 80q1 11 -10 24l8 8zM590 982l34 -40h177l39 37l40 -45q7 -6 5 -10q-1 -5 -11 -7
l-18 -9v-128l6 -61q1 -32 -42 -31v48h-191v-19q2 -36 -43 -44q5 37 7 76v184q-3 22 -17 38zM146 982l34 -40h173l39 37l40 -45q11 -12 -6 -17l-18 -9v-128l6 -61q1 -32 -42 -31v48h-187v-19q2 -36 -43 -44q5 37 7 76v184q-3 22 -17 38zM495 374h-252v-136h252v136zM535 238
h245v136h-245v-136zM629 752h191v174h-191v-174zM185 752h187v174h-187v-174z" />
  </g>

</svg>
