<?xml version="1.0" standalone="no"?>
<!DOCTYPE svg PUBLIC "-//W3C//DTD SVG 1.1//EN" "http://www.w3.org/Graphics/SVG/1.1/DTD/svg11.dtd" >
<svg xmlns="http://www.w3.org/2000/svg" xmlns:xlink="http://www.w3.org/1999/xlink" version="1.1" viewBox="0 -205 1024 1024">
  <g transform="matrix(1 0 0 -1 0 819)">
   <path fill="currentColor"
d="M236 176q-50 -15 -109 -31q-22 -6 -25 -7q-14 -4 -40 -34l-52 48l175 37v230h-88v-21q3 -38 -43 -46q5 39 7 119v258q-1 14 -16 32l15 12l30 -38h95v198q2 17 -21 36l8 11l76 -28q14 -5 6 -11q-17 -4 -29 -18v-188h64l33 35l42 -39q7 -6 5 -10q-1 -5 -11 -7l-16 -13v-202
l4 -70q5 -38 -40 -44v34h-81v-221l104 21q-16 35 -53 94l10 8q93 -88 101 -138q10 -53 -25 -55q-18 0 -17 25q2 23 -9 48zM479 400l-36 -41l-43 50q24 14 28 33v423q2 24 -24 45l8 10l79 -35q9 -4 11 -7q1 -4 -4 -6q-20 -5 -32 -19v-434h171l29 35l46 -29q11 -7 11 -11
q1 -4 -9 -10l-22 -14q-9 -59 -20 -106h237l32 40l64 -50q8 -5 7 -8q-2 -2 -13 -2h-286q38 -59 76 -97q59 -57 115 -76q38 -16 96 -24v-17q-7 0 -22 -1q-15 0 -22 -1q-21 -1 -24 -22q-83 22 -170 122q-43 47 -71 116h-24q-22 -77 -70 -131q-76 -91 -273 -119l-2 14
q176 46 245 129q35 42 56 107h-161q-27 1 -45 -13l-34 33h245q11 47 21 116h-170zM676 988l74 -22q14 -5 6 -11q-16 -4 -27 -18v-59h100l24 36l56 -42q8 -5 7 -8q-2 -2 -13 -2h-174v-100h136l24 36l56 -42q8 -5 7 -8q-2 -2 -13 -2h-369q-27 1 -45 -13l-34 29h202v100h-93
q-27 1 -45 -13l-34 29h172v65q2 16 -25 34zM684 724l70 -18q14 -5 6 -11q-16 -4 -27 -18v-43h102l21 34l56 -37q8 -7 6 -10q-1 -3 -13 -3h-172v-100h141l28 37l56 -41q8 -7 7 -9q-1 -3 -13 -3h-394q-27 1 -45 -13l-30 29h214v100h-107q-27 1 -45 -13l-34 29h186v45
q2 16 -21 34zM185 715h-88v-276h88v276zM225 439h81v276h-81v-276z" />
  </g>

</svg>
