<?xml version="1.0" standalone="no"?>
<!DOCTYPE svg PUBLIC "-//W3C//DTD SVG 1.1//EN" "http://www.w3.org/Graphics/SVG/1.1/DTD/svg11.dtd" >
<svg xmlns="http://www.w3.org/2000/svg" xmlns:xlink="http://www.w3.org/1999/xlink" version="1.1" viewBox="0 -205 1024 1024">
  <g transform="matrix(1 0 0 -1 0 819)">
   <path fill="currentColor"
d="M775 116q-15 -3 -54 -9q-87 -15 -112 -22q-54 -14 -66 -30l-43 54l219 27v170h-137v-5q0 -45 -8 -54q-9 -9 -35 -14q1 9 2 26q2 35 5 62v194q-3 19 -17 31l9 8l34 -29h147v94q2 16 -25 43l8 11l74 -34q14 -7 6 -12q-18 -6 -27 -18v-84h134l28 27l36 -35q14 -12 0 -17
l-18 -9v-137l6 -63q-1 -18 -12 -24q-12 -6 -30 -7v46h-144v-165l154 19q-25 33 -72 71l6 13q71 -42 97 -66q28 -28 37 -45q12 -24 10 -47q-3 -22 -21 -22q-19 1 -22 25q-4 24 -22 54zM108 468l25 -13h259l36 34l42 -42q7 -6 6 -10q-1 -5 -10 -7l-20 -9v-234l82 19l8 -16
l-301 -79q-106 -27 -129 -36q-28 -9 -40 -30l-46 44l87 21v324q5 21 -9 25zM534 971l29 -34h334l37 37l42 -45q7 -6 5 -10q-1 -5 -11 -7l-18 -9v-153l6 -75q-1 -18 -12 -24q-12 -6 -30 -7v44h-343v-13q0 -21 -8 -30q-11 -11 -35 -15q4 38 7 147v145q-3 21 -17 38zM755 326
h144v179h-144v-179zM719 505h-137v-179h137v179zM310 435h-66v-293l66 15v278zM210 435h-66v-317l66 16v301zM790 917h-92v-209h92v209zM826 708h90v209h-90v-209zM662 917h-89v-209h89v209zM344 165l66 14v256h-66v-270zM31 741h374l32 40l68 -50q7 -5 6 -8q-1 -2 -12 -2
h-389q-27 0 -45 -13zM167 676l64 -32q16 -13 7 -16q-22 0 -28 -6q-78 -135 -160 -200l-8 7q62 78 96 139q32 60 30 74q-3 11 -10 26zM396 979l64 -30q16 -12 7 -15q-16 -3 -33 -11q-48 -90 -97 -153l-18 2l48 96q28 63 30 80q-1 9 -9 24zM120 967q61 -41 82 -62
q21 -23 33 -50t7 -48q-6 -21 -22 -19q-17 2 -23 33q-6 30 -22 59t-65 77zM330 670q54 -26 85 -48q24 -20 42 -44q17 -25 17 -49t-19 -26q-19 -3 -27 30q-8 32 -29 59t-73 65z" />
  </g>

</svg>
