<?xml version="1.0" standalone="no"?>
<!DOCTYPE svg PUBLIC "-//W3C//DTD SVG 1.1//EN" "http://www.w3.org/Graphics/SVG/1.1/DTD/svg11.dtd" >
<svg xmlns="http://www.w3.org/2000/svg" xmlns:xlink="http://www.w3.org/1999/xlink" version="1.1" viewBox="0 -205 1024 1024">
  <g transform="matrix(1 0 0 -1 0 819)">
   <path fill="currentColor"
d="M231 175q-91 -33 -114 -40q-22 -8 -42 -34l-50 42l143 39v248h-78v-21q1 -37 -37 -46q5 39 7 119v258q-1 14 -16 32l15 12l25 -38h84v198q2 17 -21 36l8 11l70 -28q14 -5 6 -11q-17 -4 -29 -18v-188h64l33 35l36 -39q7 -6 5 -10q-1 -5 -11 -7l-16 -13v-202l4 -70
q4 -38 -34 -44v34h-81v-239l104 29q0 2 -1 4q-1 3 -2 4q-16 36 -56 84l10 10q123 -100 98 -166q-11 -13 -23 -10q-11 4 -12 23q-1 15 -7 33zM336 897h304v59q2 16 -23 34l8 11l70 -26q14 -5 6 -11q-16 -4 -27 -18v-49h226l24 32l58 -40q8 -5 7 -8q-2 -2 -13 -2h-302v-64h168
l21 25l34 -25q7 -6 5 -10q-1 -5 -11 -7l-12 -9v-41l4 -37q-1 -29 -36 -31v32h-173v-70h241l17 23l55 -40q5 -10 -12 -9q-24 -3 -49 -29l-4 -4q-6 -7 -22 -25l-13 6l28 60h-509q-2 -19 -10 -38q-9 -20 -29 -28q-20 -7 -26 6q-6 14 8 23q32 19 42 91h17q0 -6 -1 -18
q0 -13 -1 -18h234v70h-166q0 -17 -8 -25q-7 -9 -31 -14q1 9 3 25q2 12 4 33v76q-3 19 -19 29l13 8l31 -29h173v64h-225q-27 1 -45 -13zM400 557h390l22 28l54 -34q6 -5 5 -8q-2 -2 -11 -2h-271q-32 -40 -62 -69h287l17 27l38 -19q8 -8 7 -13q-1 -6 -11 -8l-10 -9v-58l4 -23
q-1 -27 -38 -29v24h-307v-3q4 -34 -41 -40q1 10 4 27q2 16 3 21v62q-33 -25 -56 -35q-3 -1 -7 -3q-24 -11 -48 -19l-8 10q36 20 64 40t68 60q33 33 48 57h-64q-27 1 -45 -13zM624 354l75 -20q14 -5 6 -11q-21 -7 -30 -21v-27h231l24 36l54 -44q8 -5 7 -8q-2 -2 -13 -2h-270
q22 -29 47 -52q61 -53 126 -82q29 -12 75 -23q14 -3 21 -5v-13q-53 5 -68 -24q-123 64 -180 132q-30 36 -42 67h-12v-169l2 -31q4 -38 -43 -44q5 37 7 88v156h-16q-67 -86 -120 -115q-54 -33 -98 -53t-124 -40l-2 16q80 30 122 52t92 58q45 34 84 82h-156q-27 1 -45 -13
l-30 31h293v35q2 16 -26 34zM514 380h307v76h-307v-76zM202 450h81v276h-81v-276zM168 726h-78v-276h78v276zM674 728h173v71h-173v-71zM640 799h-166v-71h166v71z" />
  </g>

</svg>
