<?xml version="1.0" standalone="no"?>
<!DOCTYPE svg PUBLIC "-//W3C//DTD SVG 1.1//EN" "http://www.w3.org/Graphics/SVG/1.1/DTD/svg11.dtd" >
<svg xmlns="http://www.w3.org/2000/svg" xmlns:xlink="http://www.w3.org/1999/xlink" version="1.1" viewBox="0 0 2048 2048">
  <g transform="matrix(1 0 0 -1 0 2048)">
   <path fill="currentColor"
d="M1376 1795v-118h419l59 66l89 -69q35 -27 36 -45q3 -21 -37 -29l-49 -9q-49 -65 -124 -140l-27 17q37 80 53 154h-419v-212q0 -47 7 -104q3 -28 3 -44q0 -45 -57 -50q-45 -5 -45 26l-1 384h-382q-12 -186 -97 -186q-56 0 -51 51q2 24 32 50q49 41 61 85q15 57 17 135h34
l4 -80h382v118h-152q-117 0 -192 -8l-38 89q96 -23 230 -23h449l98 91l121 -97q20 -16 15 -33q-6 -19 -26 -19h-412zM1638 1478q-62 -34 -180 -66l-21 30q86 50 170 148l92 -64q31 -22 23 -40q-7 -15 -42 -12zM1451 1378q182 -24 241 -45q87 -30 68 -95q-6 -21 -26 -27
q-25 -7 -65 28q-70 58 -229 102zM942 1560q163 -20 217 -38q77 -26 61 -83q-6 -21 -26 -26q-22 -6 -57 24q-62 52 -202 90zM1220 1381l18 -32q-100 -55 -226 -105q-13 -68 -35 -72q-18 -3 -36 44l-38 100q189 27 317 65zM850 1198l109 -55l70 1l50 54l72 -53q14 -10 17 -25
q2 -14 -4 -20t-45 -28v-199l19 -16q11 -10 12 -21q1 -20 -17 -20h-197v-35q0 -27 -41 -31q-57 -6 -53 38l4 35l1 36l3 49v290zM936 869l99 1v215h-99v-216zM1211 1198l109 -55l61 1l49 54l73 -53q14 -10 16 -25q3 -14 -3 -20t-45 -28v-199l19 -16q10 -10 11 -21
q2 -20 -17 -20h-187v-35q0 -24 -37 -30q-62 -11 -57 43l4 34l1 31l3 49v290zM1297 869l89 1v215h-89v-216zM1567 1199l108 -54h63l50 54l72 -52q14 -10 17 -25q3 -20 -25 -36l-24 -13v-198l19 -17q10 -9 11 -21q2 -20 -17 -20h-188v-34q0 -28 -40 -31q-58 -6 -53 44l4 34
l1 37l3 42zM1653 871l90 1v215h-90v-216zM1380 607v-410h386l94 95l113 -100q20 -18 16 -34q-6 -18 -26 -18h-1006q-117 0 -192 -8l-38 88q95 -23 230 -23h331v410h-267q-119 0 -192 -8l-38 88q98 -23 230 -23h669l87 91l120 -96q21 -17 16 -34q-6 -18 -26 -18h-507z
M1638 448q191 -88 167 -170q-9 -31 -37 -33q-34 -3 -68 60q-27 50 -90 100q-74 -130 -152 -185l-26 21q99 142 140 333l121 -40q34 -11 34 -33q0 -21 -33 -28l-47 -11zM1064 456q144 -84 157 -152q4 -21 -6 -40q-14 -26 -42 -26q-34 0 -57 66q-18 51 -80 113
q-95 -140 -169 -185l-22 28q112 132 158 322l122 -40q34 -12 34 -33q0 -25 -33 -29l-47 -5zM558 1479l58 76l82 -54q40 -26 40 -48q0 -25 -29 -41l-38 -21v-481l43 -30q21 -15 21 -37q0 -21 -17 -21h-277v-449q81 26 141 49q-35 100 -88 190l32 22q174 -211 188 -348
q8 -85 -52 -85q-41 0 -48 58q-10 74 -21 119q-156 -95 -370 -187l-7 -43q-5 -27 -25 -30q-18 -3 -28 19l-66 143q94 17 248 57v485h-122v-53q0 -39 -66 -39q-28 0 -28 28v794l118 -73h98v296q0 118 -8 160l108 -24q82 -18 85 -43q4 -29 -49 -44l-40 -11v-334h117zM223 880
h122v541h-122v-541zM441 1421v-541h134v541h-134z" />
  </g>

</svg>
