<?xml version="1.0" standalone="no"?>
<!DOCTYPE svg PUBLIC "-//W3C//DTD SVG 1.1//EN" "http://www.w3.org/Graphics/SVG/1.1/DTD/svg11.dtd" >
<svg xmlns="http://www.w3.org/2000/svg" xmlns:xlink="http://www.w3.org/1999/xlink" version="1.1" viewBox="0 -200 998 1000">
  <g transform="matrix(1 0 0 -1 0 800)">
   <path fill="currentColor"
d="M841 328l80 -65h-351q30 -32 66.5 -64t81.5 -59t99 -46t118 -25l-32.5 -6.5t-35 -8.5t-34 -12.5t-28.5 -18.5q-43 20 -82.5 50t-73.5 63.5t-61.5 67t-45.5 59.5h-22v-231q-9 -11 -26 -18.5t-26 -7.5q-1 0 -1.5 0.5t-1.5 0.5v229q-36 -32 -80.5 -67.5t-93.5 -66.5
t-100 -53.5t-99 -28.5l-5 6q45 19 94.5 49.5t93.5 64.5t77.5 66.5t46.5 56.5h-235l-73 -12l-26 33h400v92l70 -29l-15 -54v-9h269zM341 490h295v56h-295v-56zM341 409h295v60h-295v-60zM636 671l76 -29l-19 -58v-17h78l51 42l73 -63h-202v-184q-14 -8 -22.5 -12.5
t-34.5 -4.5v42h-295v-29q-10 -5 -16 -9t-11 -6.5t-11.5 -3.5t-16.5 -1v208h-81l-70 -14l-24 35h175v97l74 -29l-19 -48v-20h295v95v9zM500 948l-41 -11q-18 -8 -51.5 -21t-99.5 -43l434 -1l39 44l61 -52l-35 -33v-124h13l44 38l66 -59h-751l-64 -13l-22 36h101v203l80 -39h6
q14 9 35 24t43 32.5t43 37t35 37.5zM250 844v-136h134v145h-126zM439 709h137v144h-137v-144zM633 709h118v144h-118v-144z" />
  </g>

</svg>
