<?xml version="1.0" standalone="no"?>
<!DOCTYPE svg PUBLIC "-//W3C//DTD SVG 1.1//EN" "http://www.w3.org/Graphics/SVG/1.1/DTD/svg11.dtd" >
<svg xmlns="http://www.w3.org/2000/svg" xmlns:xlink="http://www.w3.org/1999/xlink" version="1.1" viewBox="0 -205 1024 1024">
  <g transform="matrix(1 0 0 -1 0 819)">
   <path fill="currentColor"
d="M407 405l60 -24q17 -10 5 -15q-13 2 -30 -12q-36 -38 -63 -59h390l29 40l49 -48q7 -6 6 -10q-1 -5 -10 -7l-20 -9v-188h63l32 40l68 -50q8 -5 7 -8q-2 -2 -13 -2h-887q-27 1 -45 -13l-34 33h144v201q3 21 -19 45l12 14l39 -38h167l26 36q28 41 26 49q-2 9 -8 16zM703 982
l78 -34q14 -5 6 -11q-16 -4 -27 -18v-83h116l32 40l68 -50q8 -6 7 -8q-2 -3 -13 -2h-210v-117h85l34 33l44 -47q7 -5 7 -8t-6 -4q-22 -1 -29 -12q-6 -10 -24 -45q-18 -33 -56 -81q-14 -17 -31 -34q15 -10 29 -18q3 -2 9 -5q91 -54 187 -55l2 -16q-34 -3 -47 -7
q-12 -3 -28 -23q-69 25 -119 56q-31 20 -60 44q-25 -19 -55 -39q-75 -49 -201 -77l-4 12q94 32 154 71q41 26 78 58l-3 3q-40 40 -114 173q-14 -1 -23 -9l-29 30h160v230q2 17 -25 42zM370 275h-174v-202h174v202zM578 275h-174v-202h174v202zM612 73h173v202h-173v-202z
M389 733l52 -28q8 -4 9 -7q0 -4 -7 -7q-12 0 -26 -8q-16 -24 -59 -75h56l16 26l52 -32q8 -5 7 -8q-2 -2 -13 -2h-142v-80h106l24 30l56 -36q8 -5 7 -8q-2 -2 -13 -2h-180v-75l2 -33q4 -37 -47 -44v4q5 33 7 70v78h-123q-27 1 -45 -13l-28 29h196v80h-75q-27 1 -45 -13
l-34 29h195q50 76 55 102q-1 8 -9 15zM365 956q4 -5 1 -8q-2 -3 -11 -3q-12 -6 -24 -22q-9 -37 -29 -75h172l32 40l62 -48q8 -5 7 -8q-2 -2 -13 -2h-270q-27 -46 -69 -96q-86 -99 -196 -137l-6 12q107 58 174 142q35 43 57 79h-111q-27 1 -45 -13l-34 31h200q13 24 20 44
q19 57 16 62q-1 2 -7 10q-4 6 -7 10l8 6zM745 532l8 -8l9 9q51 50 93 146h-219q74 -117 109 -147zM363 781l6 12q131 -54 168 -95q42 -50 11 -70q-15 -3 -29 24q-14 29 -44 54q-30 27 -112 75zM227 721q58 -31 60 -79q0 -23 -16 -23t-16 15q-1 39 -34 79z" />
  </g>

</svg>
