<?xml version="1.0" standalone="no"?>
<!DOCTYPE svg PUBLIC "-//W3C//DTD SVG 1.1//EN" "http://www.w3.org/Graphics/SVG/1.1/DTD/svg11.dtd" >
<svg xmlns="http://www.w3.org/2000/svg" xmlns:xlink="http://www.w3.org/1999/xlink" version="1.1" viewBox="0 -205 1024 1024">
  <g transform="matrix(1 0 0 -1 0 819)">
   <path fill="currentColor"
d="M340 521l33 -44h180l35 41l46 -49q7 -6 5 -10q-1 -5 -11 -7l-18 -9v-255l4 -38q8 -42 -44 -44v70h-191v-26q3 -47 -47 -53q5 46 7 97v279q-5 24 -14 36zM683 630h224l32 32l56 -42q8 -5 7 -8q-2 -2 -13 -2h-130v-483q-1 -35 -15 -56q-13 -21 -73 -35q4 41 -97 57
q-9 2 -14 3l4 18l32 -6q74 -17 97 -8q26 8 26 50v460h-57q-27 1 -45 -13zM207 733l60 -34q7 -6 6 -10q0 -4 -8 -5q-13 2 -23 -9q-16 -31 -63 -105v-404l2 -95q3 -39 -49 -46q5 39 7 187v303q-48 -57 -118 -105l-8 10q107 112 167 222q27 51 27 61q1 11 -7 22zM570 319h-191
v-123h191v123zM379 335h191v122h-191v-122zM546 783l62 -24q20 -9 9 -15q-18 -3 -24 -10q-34 -74 -74 -136h76l32 32l56 -42q8 -5 7 -8q-2 -2 -13 -2h-347q-27 1 -45 -13l-34 33h242l26 61q30 77 30 90q0 15 -12 26zM207 975l52 -36q7 -5 7 -8q0 -4 -7 -5q-15 1 -25 -7
q-27 -42 -69 -88q-41 -45 -128 -95l-6 10q101 93 146 157q24 34 25 44q2 11 -4 24zM277 826h296l32 32l56 -42q8 -5 7 -8q-2 -2 -13 -2h-299q-27 1 -45 -13zM679 886h200l32 32l56 -42q8 -5 7 -8q-2 -2 -13 -2h-203q-27 1 -45 -13zM369 983l6 13q93 -36 117 -88
q22 -57 -17 -67q-16 -1 -22 28q-5 30 -25 59q-20 30 -59 55zM341 785q89 -51 99 -128q2 -34 -20 -37t-26 31t-18 62q-13 29 -45 62z" />
  </g>

</svg>
