<?xml version="1.0" standalone="no"?>
<!DOCTYPE svg PUBLIC "-//W3C//DTD SVG 1.1//EN" "http://www.w3.org/Graphics/SVG/1.1/DTD/svg11.dtd" >
<svg xmlns="http://www.w3.org/2000/svg" xmlns:xlink="http://www.w3.org/1999/xlink" version="1.1" viewBox="0 0 2048 2048">
  <g transform="matrix(1 0 0 -1 0 2048)">
   <path fill="currentColor"
d="M1653 1779l69 77l83 -55q40 -26 40 -48q0 -33 -73 -57l-1 -365l34 -27q23 -17 24 -37q0 -20 -18 -20l-630 1q-22 -125 -67 -342h623l68 76l84 -55q40 -26 40 -48q0 -28 -78 -62q-48 -361 -76 -481q-66 -285 -308 -297q4 50 -17 73q-26 28 -241 103l10 44l39 -11
q199 -54 258 -57q70 -3 111 54q43 62 76 264q13 83 41 336h-641q-37 -21 -68 -18q-43 4 -38 42q4 26 19 70q25 72 52 258q14 95 16 170l104 -62h485v417h-498q-116 0 -191 -8l-39 88q93 -22 230 -22zM491 1038l1 -678q0 -108 12 -219q3 -29 3 -54q0 -39 -49 -42
q-62 -4 -62 42v898q-139 -114 -309 -203l-18 36q363 232 585 683h-338q-117 0 -192 -8l-38 88q96 -23 230 -22h325l68 76l84 -54q40 -26 40 -49q0 -27 -78 -61q-126 -233 -263 -392q21 -14 41 -26q63 -36 102 -64q73 104 129 218l91 -61q43 -28 41 -47q-3 -27 -58 -23l-31 3
q-97 -84 -139 -114q139 -109 131 -193q-5 -59 -51 -59q-38 0 -59 69q-45 147 -198 256zM367 1954q97 -71 134 -110q71 -75 62 -139q-7 -49 -50 -49q-40 0 -51 55q-22 106 -115 219z" />
  </g>

</svg>
