<?xml version="1.0" standalone="no"?>
<!DOCTYPE svg PUBLIC "-//W3C//DTD SVG 1.1//EN" "http://www.w3.org/Graphics/SVG/1.1/DTD/svg11.dtd" >
<svg xmlns="http://www.w3.org/2000/svg" xmlns:xlink="http://www.w3.org/1999/xlink" version="1.1" viewBox="0 0 2048 2048">
  <g transform="matrix(1 0 0 -1 0 2048)">
   <path fill="currentColor"
d="M1097 1721h593l68 76l84 -54q40 -26 40 -49q0 -28 -77 -60v-624l51 -35q22 -15 22 -34q0 -20 -18 -20h-770v-38q0 -28 -44 -28q-60 0 -60 51l9 161v570q0 30 -9 167zM1090 978h620v685h-620v-685zM1136 750l92 -39q83 -34 87 -57q6 -30 -46 -36q-9 -1 -19 -2
q-13 0 -40 -3q-81 -151 -163 -254q-106 -130 -286 -266l-24 31q161 148 253 302q83 140 146 324zM1549 732q170 -140 257 -244q157 -187 151 -293q-4 -65 -53 -65q-41 0 -64 77q-41 138 -150 293q-37 52 -163 202zM355 1917q201 -137 188 -230q-6 -48 -49 -50q-39 -1 -49 52
q-21 99 -110 204zM472 1061q53 -32 91 -59q71 101 129 218l91 -61q42 -29 40 -48q-2 -27 -57 -22l-32 3q-97 -85 -138 -114q139 -110 131 -194q-6 -58 -51 -58q-38 0 -59 68q-36 117 -144 214l-1 -648q0 -105 13 -219q3 -28 3 -53q0 -39 -49 -42q-63 -4 -63 42l1 898
q-85 -72 -141 -108q-14 -9 -144 -85l-21 37q350 227 564 672h-320q-108 0 -191 -8l-39 88q97 -23 230 -22h307l68 76l84 -54q40 -26 40 -49q0 -27 -78 -61q-125 -233 -264 -393v-18z" />
  </g>

</svg>
