<?xml version="1.0" standalone="no"?>
<!DOCTYPE svg PUBLIC "-//W3C//DTD SVG 1.1//EN" "http://www.w3.org/Graphics/SVG/1.1/DTD/svg11.dtd" >
<svg xmlns="http://www.w3.org/2000/svg" xmlns:xlink="http://www.w3.org/1999/xlink" version="1.1" viewBox="0 0 2048 2048">
  <g transform="matrix(1 0 0 -1 0 2048)">
   <path fill="currentColor"
d="M1194 972v184h-166v-18q0 -51 -68 -39q-37 7 -37 38q0 12 2 27q3 21 3 64q1 45 3 68q2 43 2 52v214l119 -66h142v176h-166q-58 0 -148 -11l-40 85q27 -3 41 -5q85 -13 147 -13h166v63q0 120 -8 159l109 -24q83 -18 86 -43q3 -30 -50 -44l-41 -11v-100h177v79
q-7 131 -9 143l109 -24q82 -18 85 -43q4 -29 -49 -44l-40 -11v-100h200l78 83l113 -86q22 -17 16 -34q-6 -19 -26 -19h-381v-176h163l56 71l91 -65q16 -11 22 -24q9 -24 -25 -42q-6 -3 -13 -6q-9 -4 -26 -13v-110q0 -19 4 -64q9 -98 8 -114q-3 -34 -65 -34q-43 0 -43 34v27
h-172v-184h268l51 58l72 -58q39 -32 40 -33q14 -14 7 -30q-10 -26 -81 -37q-60 -67 -123 -133l-28 21q39 78 66 157h-913q-23 -216 -124 -216q-48 0 -53 42q-4 29 30 59q104 92 112 235h39v-65h268zM1290 972h177v184h-177v-184zM1290 1496h177v176h-177v-176zM1028 1210
h166v232h-166v-232zM1290 1210h177v232h-177v-232zM1563 1210h172v232h-172v-232zM1315 308q-22 3 -34 12q-6 4 -46 52q-58 70 -210 167q-60 -50 -190 -129l-20 32q252 192 367 442l84 -39q63 -29 61 -53q-2 -22 -53 -22h-34q-34 -40 -67 -80h434l69 82l93 -74
q32 -25 31 -46q-1 -24 -89 -51q-107 -159 -164 -216q-167 -168 -435 -240q-174 -46 -315 -63l-8 46q246 46 375 104q137 62 151 76zM1360 336q138 108 240 297h-473q-33 -34 -68 -64q75 -27 188 -83q131 -65 115 -144zM355 1004q-140 -120 -253 -184l-19 31q160 131 266 264
q128 160 235 410h-262q-117 0 -192 -8l-39 88q94 -22 231 -22h256l68 73l77 -51q40 -26 40 -49q0 -27 -80 -60q-120 -241 -235 -386v-34q47 -28 90 -59q73 105 130 218l90 -61q43 -28 41 -47q-3 -27 -57 -23l-32 3q-95 -83 -139 -114q140 -110 131 -193q-4 -45 -45 -49
q-33 -4 -50 28q-4 8 -30 84q-25 73 -129 161v-648q0 -107 12 -219q3 -28 3 -54q0 -39 -49 -42q-59 -3 -59 46v897zM304 1940q202 -138 189 -230q-7 -47 -50 -49q-38 -2 -49 51q-21 100 -110 204z" />
  </g>

</svg>
