<?xml version="1.0" standalone="no"?>
<!DOCTYPE svg PUBLIC "-//W3C//DTD SVG 1.1//EN" "http://www.w3.org/Graphics/SVG/1.1/DTD/svg11.dtd" >
<svg xmlns="http://www.w3.org/2000/svg" xmlns:xlink="http://www.w3.org/1999/xlink" version="1.1" viewBox="0 -205 1024 1024">
  <g transform="matrix(1 0 0 -1 0 819)">
   <path fill="currentColor"
d="M469 384l69 -35q7 -5 6 -8q0 -3 -8 -5q-3 1 -10 0h-5q38 -48 96 -94q14 -12 29 -23q61 33 93 54q45 27 51 38q6 9 0 24l8 6l62 -47q7 -6 7 -9q0 -4 -7 -5q-24 5 -37 -1q-6 -2 -28 -14l-30 -15q-39 -21 -98 -47q33 -23 61 -38q48 -23 110 -43q62 -18 133 -18v-16
q-22 2 -42 -7q-21 -9 -28 -25q-87 21 -165 62q-88 47 -139 97q-54 50 -96 112q-57 -53 -123 -94v-140q46 15 147 53q27 9 40 14l10 -10q-10 -5 -33 -18q-62 -33 -104 -54q-33 -17 -48 -27q-17 -9 -32 -30l-50 48q17 4 30 21v118q-5 -3 -16 -8q-10 -6 -16 -9
q-106 -56 -258 -88v14q119 40 197 80q50 26 93 54v2q-3 18 -24 45l9 8l41 -36q4 3 13 10q5 3 22 16q65 53 66 62q0 8 -6 18zM754 848l83 -36q14 -5 6 -11q-21 -9 -30 -21v-76h58l27 34l62 -44q7 -5 6 -8q-1 -2 -12 -2h-141v-58q45 -22 76 -47q36 -30 50 -54q12 -25 12 -43
q-1 -19 -18 -24q-18 -6 -27 26q-12 32 -35 63q-19 23 -58 56v-141l2 -57q0 -21 -11 -31q-12 -9 -36 -14q4 38 7 113v145q-48 -110 -162 -206l-8 10q105 118 150 262h-39q-27 0 -45 -13l-39 33h143v86q2 16 -30 46zM192 846l83 -36q14 -5 6 -11q-21 -9 -30 -21v-78h38l26 34
l62 -44q8 -5 7 -8q-2 -2 -13 -2h-120v-46q26 -11 55 -30q24 -20 37 -41q12 -21 11 -39q-1 -19 -18 -22q-18 -4 -24 23q-9 25 -24 49q-12 15 -37 37v-151l2 -57q0 -21 -11 -31q-12 -9 -36 -14q4 38 7 113v145q-46 -107 -162 -206l-8 10q106 114 150 260h-55q-28 0 -46 -13
l-38 33h159v88q2 16 -30 46zM675 638q12 -15 5 -15q-9 -2 -19 -2q-10 -2 -28 -17q-18 -16 -46 -51l-12 7l34 66h-67v-159q-1 -33 -13 -49q-13 -16 -57 -24q-6 28 -24 34q-9 3 -36 9q-13 3 -21 5l2 16l20 -4q55 -9 73 -4q17 3 18 48v107q-13 -22 -24 -39q-19 -29 -58 -71
t-100 -75l-8 12q42 37 68 64q20 19 51 65q21 32 37 65h-71q-21 0 -36 -12l-33 33h282l21 26zM47 889h823l33 41l68 -51q7 -5 6 -8q-1 -2 -12 -2h-839q-27 0 -45 -13zM433 737q53 -4 84 -22q1 -1 4 -2l3 -3l63 73h-163q-20 2 -38 -13l-34 33h236l22 24l54 -47q4 -12 -2 -9
q-27 -3 -40 -9q-14 -7 -41 -30q-19 -16 -42 -36q8 -10 9 -21q0 -22 -16 -25q-18 -3 -21 13q-5 15 -23 32q-20 16 -59 31zM411 1004q54 -12 84 -25q28 -15 40 -35q12 -21 7 -36q-5 -17 -20 -17q-15 -1 -23 21q-9 21 -24 39q-17 17 -68 41z" />
  </g>

</svg>
