<?xml version="1.0" standalone="no"?>
<!DOCTYPE svg PUBLIC "-//W3C//DTD SVG 1.1//EN" "http://www.w3.org/Graphics/SVG/1.1/DTD/svg11.dtd" >
<svg xmlns="http://www.w3.org/2000/svg" xmlns:xlink="http://www.w3.org/1999/xlink" version="1.1" viewBox="0 -205 1024 1024">
  <g transform="matrix(1 0 0 -1 0 819)">
   <path fill="currentColor"
d="M998 94v-16q-52 -2 -70 -32q-91 18 -175 59q-83 40 -133 89q-46 46 -76 104h-51q-40 -37 -96 -75q-25 -18 -57 -34v-104q80 31 190 80l8 -12q-43 -25 -141 -76q-65 -30 -83 -58l-40 42q17 6 30 23v87q-34 -15 -73 -28q-102 -41 -187 -51l-2 14q70 17 146 46q61 24 115 53
q-3 18 -23 47l9 8l42 -39q57 33 107 77h-328q-27 1 -45 -13l-34 33h860l32 40l68 -50q8 -5 7 -8q-2 -2 -13 -2h-415q29 -39 72 -78q3 -3 9 -8q10 -9 29 -23q3 2 8 5q33 19 62 38q35 22 40 29q7 8 0 24l8 4l60 -43q7 -4 7 -8t-7 -6q-22 5 -35 1t-49 -22q-5 -2 -17 -8t-57 -27
q21 -14 43 -25q133 -62 255 -57zM75 724l29 -26h122l23 26l28 -26q7 -5 6 -9q0 -4 -7 -6l-12 -11v-184q2 -52 -5 -69t-41 -23q-2 14 -13 19q-6 5 -42 12l3 11q30 -6 51 -6t19 44v63h-125v-68l2 -36q10 -33 -35 -37q3 21 5 55v3v231q-4 17 -18 28zM545 724l29 -26h122l23 26
l28 -26q7 -5 6 -9q0 -4 -7 -6l-12 -11v-184q2 -52 -5 -69t-41 -23q-2 14 -13 19q-6 5 -42 12l3 11q30 -6 51 -6t19 44v63h-125v-68l2 -36q10 -33 -35 -37q3 21 5 55v3v231q-4 17 -18 28zM792 957q1 23 -19 33l5 9l59 -22q8 -2 10 -5t-3 -7q-18 -2 -24 -14v-19h79l21 29
l44 -33q8 -5 7 -8q-2 -2 -13 -2h-138v-63h81l21 25l26 -20q9 -5 10 -9q0 -5 -7 -7l-9 -5v-64l3 -20q2 -30 -31 -31v25h-96v-69h67l19 25l36 -27q8 -5 7 -8q-2 -2 -13 -2h-116v-62h71l17 23l38 -25q8 -5 7 -8q-2 -2 -13 -2h-120v-62h69l17 21l34 -23q8 -5 7 -8q-2 -2 -13 -2
h-114v-9q0 -38 3 -55q4 -16 44 -20q32 -3 44 -2q16 1 25 5q20 10 22 41q3 24 2 44h11q1 -9 1 -23q0 -44 15 -50q-13 -30 -33 -35q-15 -7 -90 -5q-76 2 -72 56v280q-1 24 -10 27l7 11l23 -22h104v78h-87l-21 -24l-32 30q18 6 18 30v80zM322 957q1 23 -19 33l5 9l59 -22
q8 -2 10 -5t-3 -7q-18 -2 -24 -14v-19h79l21 29l44 -33q8 -5 7 -8q-2 -2 -13 -2h-138v-63h81l21 25l26 -20q9 -5 10 -9q0 -5 -7 -7l-9 -5v-64l3 -20q2 -30 -31 -31v25h-96v-69h67l19 25l36 -27q8 -5 7 -8q-2 -2 -13 -2h-116v-62h71l17 23l38 -25q8 -5 7 -8q-2 -2 -13 -2
h-120v-62h69l17 21l34 -23q8 -5 7 -8q-2 -2 -13 -2h-114v-9q0 -38 3 -55q4 -16 44 -20q32 -3 44 -2q16 1 25 5q20 10 22 41q3 24 2 44h11q1 -9 1 -23q0 -44 15 -50q-13 -30 -33 -35q-15 -7 -90 -5q-76 2 -72 56v280q-1 24 -10 27l7 11l23 -22h104v78h-87l-21 -24l-32 30
q18 6 18 30v80zM236 615h-125v-64h125v64zM706 615h-125v-64h125v64zM34 772h153l14 33q18 41 18 48q3 11 -5 19l5 6l43 -23q4 -4 4 -7q-1 -2 -5 -3q-9 1 -20 -11q-6 -9 -19 -31q-12 -20 -19 -31h40l21 25l36 -31q8 -4 7 -6q-2 -2 -13 -2h-192q-27 1 -43 -13zM504 772h153
l14 33q18 41 18 48q3 11 -5 19l5 6l43 -23q4 -4 4 -7q-1 -2 -5 -3q-9 1 -20 -11q-6 -9 -19 -31q-12 -20 -19 -31h40l21 25l36 -31q8 -4 7 -6q-2 -2 -13 -2h-192q-27 1 -43 -13zM111 627h125v57h-125v-57zM581 627h125v57h-125v-57zM516 904h181l17 25l38 -29q8 -5 7 -8
q-2 -2 -13 -2h-170q-21 1 -33 -13zM46 904h181l17 25l38 -29q8 -5 7 -8q-2 -2 -13 -2h-170q-21 1 -33 -13zM412 392l2 11q109 -10 108 -60q-1 -14 -16 -17q-14 -1 -20 13q-9 34 -74 53zM586 1002q44 -13 63 -40q20 -36 -5 -47q-12 0 -18 20q-10 39 -44 58zM116 1002
q44 -13 63 -40q20 -36 -5 -47q-12 0 -18 20q-10 39 -44 58zM567 876q34 -18 47 -49q11 -37 -12 -44q-11 -1 -15 26q-2 15 -4 22q-4 17 -22 38zM97 876q34 -18 47 -49q11 -37 -12 -44q-11 -1 -15 26q-2 15 -4 22q-4 17 -22 38z" />
  </g>

</svg>
