<?xml version="1.0" standalone="no"?>
<!DOCTYPE svg PUBLIC "-//W3C//DTD SVG 1.1//EN" "http://www.w3.org/Graphics/SVG/1.1/DTD/svg11.dtd" >
<svg xmlns="http://www.w3.org/2000/svg" xmlns:xlink="http://www.w3.org/1999/xlink" version="1.1" viewBox="0 0 2048 2048">
  <g transform="matrix(1 0 0 -1 0 2048)">
   <path fill="currentColor"
d="M1657 1095h-1261v-24q0 -27 -45 -30q-66 -5 -60 51l4 41q6 104 6 105v366l121 -65h329v240h-399q-120 0 -192 -8l-38 88q96 -22 230 -22h1337l108 113l131 -113q27 -24 22 -40q-6 -18 -26 -18h-631v-240h346l68 78l84 -54q40 -26 40 -48q0 -28 -77 -62v-223q0 -48 6 -104
q3 -26 3 -43q0 -41 -57 -49q-49 -7 -49 24v37zM1197 1779h-348v-240h348v240zM396 1153h355v333h-355v-333zM849 1153h348v333h-348v-333zM1293 1153h364v333h-364v-333zM772 780q-9 -150 -29 -265q-38 -217 -218 -353q-68 -51 -227 -123l-15 30q223 124 304 280
q64 122 80 431h-344q-108 0 -192 -8l-38 88q96 -22 230 -22h1373l104 120l154 -124q17 -14 12 -31q-7 -23 -25 -23h-497v-418q0 -106 11 -209q3 -29 3 -54q0 -38 -49 -42q-62 -4 -62 42v681h-575z" />
  </g>

</svg>
