<?xml version="1.0" standalone="no"?>
<!DOCTYPE svg PUBLIC "-//W3C//DTD SVG 1.1//EN" "http://www.w3.org/Graphics/SVG/1.1/DTD/svg11.dtd" >
<svg xmlns="http://www.w3.org/2000/svg" xmlns:xlink="http://www.w3.org/1999/xlink" version="1.1" viewBox="0 0 2048 2048">
  <g transform="matrix(1 0 0 -1 0 2048)">
   <path fill="currentColor"
d="M1668 1360h-1274v-26q0 -28 -45 -31q-61 -3 -57 44l4 34l1 31l2 49v276l121 -66h291v137h-394q-69 0 -149 -10l-39 86q124 -18 192 -18h1392l80 81l114 -86q21 -16 16 -34q-6 -19 -26 -19h-570v-137h323l68 76l84 -55q49 -31 46 -51q-2 -19 -31 -34q-1 0 -54 -24v-128
q3 -67 3 -72q5 -35 5 -41q0 -40 -54 -44q-49 -4 -49 27v35zM1668 1414v201h-341v-201h341zM1230 1414v201h-421v-201h421zM711 1414v201h-317v-201h317zM1230 1671v137h-421v-137h421zM879 409q-226 -77 -422 -121l-11 -46q-6 -28 -24 -28q-14 1 -25 25l-47 105
q-18 -97 -47 -154q-45 -88 -135 -148l-25 31q88 87 109 211q36 210 3 563l114 -51h485l68 76l84 -54q40 -26 40 -48q0 -28 -77 -62v-473q0 -142 -154 -171q-12 70 -48 93t-155 44l8 45q122 -20 191 -26q68 -6 68 57v132zM355 377q34 4 134 14q181 19 390 67v282h-518v-90
q137 -5 241 -21q155 -23 158 -90q1 -21 -13.5 -36.5t-33.5 -12.5q-21 3 -48 19q-73 41 -167 62q-41 10 -137 29q1 -75 -6 -223zM179 1020q75 26 174 111q115 99 189 214l111 -61q39 -21 44 -36q11 -31 -38 -29l-63 4q-80 -68 -115 -95q-76 -56 -198 -105l66 3l118 4l177 7
q153 5 265 14q-52 69 -117 126l27 33q87 -57 144 -102q91 -74 99 -136q4 -26 -12 -49t-37 -23q-31 0 -52 50q-17 40 -25 56q-118 -18 -287 -35q-197 -20 -345 -35l-5 -36q-6 -37 -26 -37q-14 0 -31 34zM1271 1070v-72q0 -69 34 -90q49 -31 263 -31q156 0 235 33q21 8 26 8
q18 0 55 -29q24 -19 25 -38q5 -66 -343 -66q-267 0 -333 49q-57 41 -57 152v187q0 117 -7 159l109 -24q82 -18 85 -43q4 -30 -49 -44l-43 -11v-83h401l80 81l114 -86q21 -16 16 -34q-6 -18 -26 -18h-585zM1283 434v-157q0 -55 43.5 -67.5t230.5 -12.5q190 0 231 21
q25 14 39 77q2 10 15 83l32 -2q3 -29 3 -44q1 -59 16 -79q7 -9 48 -35q13 -9 9 -29q-11 -53 -123 -69q-101 -15 -262 -15l-106 3q-165 4 -203 21q-69 32 -69 143v292q0 120 -8 159l109 -24q83 -18 86 -43q3 -30 -50 -44l-41 -11v-109h403l80 81l115 -86q21 -16 15 -34
q-6 -19 -26 -19h-587z" />
  </g>

</svg>
