<?xml version="1.0" standalone="no"?>
<!DOCTYPE svg PUBLIC "-//W3C//DTD SVG 1.1//EN" "http://www.w3.org/Graphics/SVG/1.1/DTD/svg11.dtd" >
<svg xmlns="http://www.w3.org/2000/svg" xmlns:xlink="http://www.w3.org/1999/xlink" version="1.1" viewBox="0 0 2048 2048">
  <g transform="matrix(1 0 0 -1 0 2048)">
   <path fill="currentColor"
d="M495 564q171 58 336 125l19 -36q-164 -96 -372 -181q-35 -14 -283 -101l-11 -41q-8 -31 -25 -33q-11 -1 -28 31l-70 131q197 33 338 75v592h-86q-116 0 -192 -8l-38 89q101 -23 230 -23h86v476q-132 -19 -315 -28l-4 40q429 50 634 192l96 -101q15 -16 13 -29
q-2 -11 -15 -13t-31 2l-50 11q-50 -15 -182 -49q-27 -8 -50 -11v-490h134l99 101l120 -107q20 -18 16 -33q-6 -19 -26 -19h-343v-562zM1037 842v-28q0 -59 -69 -53q-45 4 -42 49q1 18 4 46q12 109 12 209v690q-3 82 -18 138l122 -88h631l68 76l84 -54q40 -26 40 -49
q0 -27 -78 -61v-641q0 -114 10 -209q4 -28 4 -54q0 -39 -50 -42q-63 -4 -63 43v28h-165v-539q0 -65 20 -78q32 -19 156 -19q125 0 150 49q15 31 38 201l6 46l31 -6l-5 -164q-1 -57 16 -80q4 -5 38 -34q16 -13 17 -28q5 -76 -300 -76q-161 0 -205 20q-59 26 -59 115v593h-164
q-23 -244 -61 -341q-78 -199 -303 -318q-58 -32 -224 -94l-14 37q265 119 389 291q67 94 92 231q11 63 22 194h-130zM1037 1207h655v246h-655v-246zM1037 1511h655v236h-655v-236zM1037 898h655v253h-655v-253z" />
  </g>

</svg>
