<?xml version="1.0" standalone="no"?>
<!DOCTYPE svg PUBLIC "-//W3C//DTD SVG 1.1//EN" "http://www.w3.org/Graphics/SVG/1.1/DTD/svg11.dtd" >
<svg xmlns="http://www.w3.org/2000/svg" xmlns:xlink="http://www.w3.org/1999/xlink" version="1.1" viewBox="0 -205 1024 1024">
  <g transform="matrix(1 0 0 -1 0 819)">
   <path fill="currentColor"
d="M515 959l38 -44h287l35 41l53 -49q7 -6 5 -11q-1 -5 -11 -7l-19 -9v-411l7 -80q2 -24 -12 -33t-41 -12v57h-67v-247q0 -48 14 -57q12 -8 61 -8q42 0 63 5q21 4 26 37q7 36 10 123h13q5 -79 2 -26q3 -53 4 -80q0 -29 27 -50q-15 -18 -31 -30q-17 -12 -38 -14q-3 0 -10 -1
q-19 -2 -50 -2q-47 0 -85 3q-54 7 -50 104v243h-77q-5 -317 -356 -377v14q308 72 309 363h-58v-19q0 -23 -14 -32q-13 -10 -39 -15q4 39 7 92v76q-5 -1 -16 0h-136v-321q23 19 75 63q44 37 68 57l10 -16l-9 -9q-42 -45 -85 -89q-56 -49 -59 -57q-12 -18 -18 -36l-56 55
q18 7 30 23v330h-85q-6 -186 -52 -289q-50 -106 -140 -183l-10 10q69 82 113 180q40 96 46 282h-77q-27 0 -45 -13l-34 33h223v221h-104q-2 -7 -8 -20q-5 -14 -8 -21q-34 -75 -76 -128l-12 8q30 61 52 124q1 3 3 10q24 69 29 96q9 43 5 49q-1 3 -8 14q-3 5 -5 8l8 11l81 -28
q3 -8 -7 -14q-12 0 -25 -15q-5 -22 -19 -65l-3 -9h97v183q2 15 -27 42l8 11l86 -34q14 -5 6 -11q-17 -6 -29 -18v-173h62l36 42l60 -48q11 -8 8 -12q-3 -3 -19 -2h-147v-221h117l31 36l60 -42q3 -3 5 -4v392q-6 24 -18 42zM857 895h-293v-151h293v151zM564 567v-146h293v146
h-293zM564 728v-145h293v145h-293z" />
  </g>

</svg>
