<?xml version="1.0" standalone="no"?>
<!DOCTYPE svg PUBLIC "-//W3C//DTD SVG 1.1//EN" "http://www.w3.org/Graphics/SVG/1.1/DTD/svg11.dtd" >
<svg xmlns="http://www.w3.org/2000/svg" xmlns:xlink="http://www.w3.org/1999/xlink" version="1.1" viewBox="0 -205 1024 1024">
  <g transform="matrix(1 0 0 -1 0 819)">
   <path fill="currentColor"
d="M452 652v-484q2 -60 -11 -87t-69 -39q0 51 -90 63l2 16q76 -17 100 -15t24 48v185h-107v-14l2 -117q1 -34 -49 -45q5 38 7 171v5h-102q-7 -96 -40 -166q-42 -89 -104 -139l-8 14q42 56 73 127q32 72 37 210v276q0 12 -6 21q-37 -40 -85 -78l-8 10q78 86 113 144t63 122
q29 65 24 75q-4 11 -14 26l8 6l88 -37q2 -4 1 -6t-6 -2q-18 -1 -33 -21l-21 -39q-9 -17 -13 -25h115l29 28l56 -49q4 -7 2 -9q-1 -2 -8 0q-26 8 -71 -58l-6 -9q-10 -14 -56 -74h103l32 39l48 -41q9 -6 9 -11q0 -4 -9 -8zM679 589q4 -3 3 -5q0 -2 -4 -4q-16 -4 -33 -17v-219
q86 54 142 93q62 42 74 59t4 34l10 5l70 -52q11 -13 1 -17q-18 9 -45 -1q-100 -70 -256 -147v-145q-7 -96 97 -81h41q56 -2 96 3q52 10 56 42q8 38 12 147h15l2 -99q1 -51 31 -66q-19 -32 -34 -42q-13 -10 -42 -17q-28 -8 -124 -6q-66 -2 -104 2q-90 7 -90 123v394
q-2 24 -29 44l7 12zM143 686h119q57 94 84 151h-129q-27 -49 -55 -91q-16 -22 -34 -45zM566 819v-3q2 -21 2 -43h358l29 33l58 -54q2 -5 -1 -7q-2 -2 -9 0q-24 -4 -41 -27q-5 -6 -8 -10q-13 -15 -38 -59l-17 6l32 98h-362v-8q-2 -79 -40 -99q-20 -9 -31 8t7 33t30 52t14 80
h17zM408 505h-107v-150h107v150zM301 521h107v145h-107v-145zM161 505v-112q0 -20 -1 -38h101v150h-100zM261 666h-100v-145h100v145zM656 963l6 14q121 -45 126 -122q2 -31 -21 -36q-22 -4 -28 30t-27 62t-56 52z" />
  </g>

</svg>
