<?xml version="1.0" standalone="no"?>
<!DOCTYPE svg PUBLIC "-//W3C//DTD SVG 1.1//EN" "http://www.w3.org/Graphics/SVG/1.1/DTD/svg11.dtd" >
<svg xmlns="http://www.w3.org/2000/svg" xmlns:xlink="http://www.w3.org/1999/xlink" version="1.1" viewBox="0 -205 1024 1024">
  <g transform="matrix(1 0 0 -1 0 819)">
   <path fill="currentColor"
d="M427 651v-484q2 -60 -11 -87t-67 -39q0 51 -90 63l2 16q76 -17 100 -15t24 48v185h-101v-18l2 -113q3 -37 -47 -45q5 39 7 167v9h-97q-6 -95 -33 -164q-34 -87 -96 -141l-8 14q42 60 67 129q26 70 31 206v278q0 11 -3 19q-34 -40 -76 -76l-8 10q69 86 104 144
q35 59 64 123q29 65 24 76q-4 11 -14 26l8 6l84 -39q2 -4 1 -6t-6 -2q-18 -1 -33 -21q-4 -7 -11 -22q-5 -11 -21 -42h105l29 28l56 -49q4 -7 2 -9q-1 -2 -8 0q-26 8 -71 -58l-6 -9q-10 -14 -56 -74h95l32 39l46 -41q9 -6 9 -11q0 -4 -9 -8zM921 480v-360q0 -23 -12 -43
t-67 -29q-4 32 -32 40q-28 7 -67 15l2 16q86 -15 102 -15q18 0 25 6q8 6 7 70v146h-89v-62l2 -55q2 -34 -45 -43q5 36 7 97v63h-78v-86l2 -54q2 -34 -45 -42q5 35 7 95v87h-78v-163l5 -71q2 -37 -54 -46q5 39 7 116v339q-7 21 -13 31l16 12l29 -33h319l24 35l42 -34
q9 -6 9 -11q0 -4 -9 -8zM757 932q11 -10 2 -15l-15 -3q27 -47 53 -89q62 -100 117 -140q32 -23 49 -31q18 -7 50 -14v-13q-54 -2 -64 -26q-50 32 -85 67q-34 35 -76 105q-37 62 -64 129q-3 -3 -5 -7q-41 -95 -125 -193t-147 -127l-8 12q70 58 130 140q61 83 86 135t26 62
q2 10 -9 35l8 5zM136 685h111q57 94 84 151h-119q-27 -49 -55 -91q-16 -25 -35 -49zM385 504h-101v-150h101v150zM284 520h101v145h-101v-145zM152 504v-114q0 -19 -2 -36h96v150h-94zM152 665v-145h94v145h-94zM790 346h89v145h-89v-145zM640 491h-78v-145h78v145zM754 491
h-78v-145h78v145zM558 633h244l20 28l52 -38q8 -5 7 -8q-2 -2 -13 -2h-235q-27 1 -45 -13z" />
  </g>

</svg>
