<?xml version="1.0" standalone="no"?>
<!DOCTYPE svg PUBLIC "-//W3C//DTD SVG 1.1//EN" "http://www.w3.org/Graphics/SVG/1.1/DTD/svg11.dtd" >
<svg xmlns="http://www.w3.org/2000/svg" xmlns:xlink="http://www.w3.org/1999/xlink" version="1.1" viewBox="0 -205 1024 1024">
  <g transform="matrix(1 0 0 -1 0 819)">
   <path fill="currentColor"
d="M420 661v-484q2 -60 -11 -87t-67 -39q0 51 -90 63l2 16q76 -17 100 -15t24 48v185h-101v-14l2 -117q3 -37 -47 -45q5 38 7 171v5h-97q-6 -95 -33 -164q-34 -87 -96 -141l-8 14q42 60 67 129q26 70 31 206v278q0 11 -3 19q-34 -40 -76 -76l-8 10q69 86 104 144
q35 59 64 123q29 65 24 76q-4 11 -14 26l8 6l84 -39q2 -4 1 -6t-6 -2q-18 -1 -33 -21q-4 -7 -11 -22q-5 -11 -21 -42h109l29 28l56 -49q4 -7 2 -9q-1 -2 -8 0q-26 8 -71 -58l-6 -9q-10 -14 -56 -74h91l32 39l46 -41q9 -6 9 -11q0 -4 -9 -8zM556 984l87 -36q14 -5 6 -11
q-21 -7 -30 -21v-98h194v116q2 16 -30 46l9 12l87 -36q14 -5 6 -11q-21 -7 -30 -21v-106h50l28 36l64 -46q8 -5 7 -8q-2 -2 -13 -2h-136v-131l4 -84q1 -33 -46 -45v53h-194v-19q3 -36 -49 -44q5 37 7 136v134h-57q-27 1 -45 -13l-34 33h136v108q2 16 -30 46zM433 426h262v84
q2 16 -30 46l9 12l87 -36q14 -5 6 -11q-21 -7 -30 -21v-74h174l28 36l64 -46q8 -5 7 -8q-2 -2 -13 -2h-223q21 -70 58 -123q60 -84 114 -116q20 -13 66 -18l-1 -14q-38 7 -71 -25q-21 15 -57 45q-4 3 -6 5q-27 26 -67 89q-39 62 -61 157h-12v-282l3 -57q3 -36 -52 -44
q5 37 7 146v237h-14q-25 -71 -54 -121q-67 -122 -199 -203l-6 14q67 61 103 107q36 48 64 100q26 48 44 103h-121q-27 1 -45 -13zM813 798h-194v-187h194v187zM129 695h115q57 94 84 151h-123q-27 -49 -55 -91q-16 -25 -35 -49zM378 514h-101v-150h101v150zM277 530h101v145
h-101v-145zM145 514v-114q0 -19 -2 -36h96v150h-94zM145 675v-145h94v145h-94z" />
  </g>

</svg>
