<?xml version="1.0" standalone="no"?>
<!DOCTYPE svg PUBLIC "-//W3C//DTD SVG 1.1//EN" "http://www.w3.org/Graphics/SVG/1.1/DTD/svg11.dtd" >
<svg xmlns="http://www.w3.org/2000/svg" xmlns:xlink="http://www.w3.org/1999/xlink" version="1.1" viewBox="0 0 2048 2048">
  <g transform="matrix(1 0 0 -1 0 2048)">
   <path fill="currentColor"
d="M1235 1328q-46 -23 -171 -78q-24 -73 -41 -75t-45 60l-38 84l19 3l1 319q0 33 -9 162l96 -56q159 52 286 166l75 -60q44 -36 38 -56q-5 -17 -34 -15q-1 0 -59 9q-44 -14 -138 -48q-23 -8 -164 -41v-366q80 23 193 53q11 169 -5 264l103 -24q78 -18 80 -43q4 -29 -46 -44
l-36 -11q1 -47 1 -61q0 -124 -26 -197q-49 -133 -190 -223q-61 -39 -155 -84l-15 39q114 73 184 145q74 75 96 178zM194 1433q-39 -50 -84 -99l-27 24q181 273 237 586l142 -38q23 -6 25 -26q2 -24 -25 -31l-57 -13q-26 -67 -41 -97h230l56 62l81 -62q38 -30 32 -50
q-8 -26 -85 -39q-69 -142 -124 -229l-12 -19h180l59 72l69 -49q36 -25 40 -44q5 -20 -24 -37q-6 -4 -12 -7q-9 -5 -26 -14v-1069q0 -144 -150 -173q-4 68 -42 94q-33 22 -154 44l8 46q137 -23 182 -26q65 -6 65 56v340h-458q-27 -253 -59 -345q-38 -113 -126 -232l-29 23
q70 128 96 263q33 173 33 487v503q-2 74 0 99zM210 1455l76 -53h203q53 110 105 278h-254q-48 -104 -130 -225zM737 693v299h-184v-299h184zM737 1345h-184v-296h184v296zM286 693h176v299h-176v-299zM286 1049h176v296h-176v-296zM1116 880h629l61 73l72 -50q37 -25 41 -43
q5 -20 -25 -38q-6 -3 -13 -6q-10 -5 -29 -16l2 -403q1 -58 10 -218q4 -69 -49 -75q-56 -6 -56 37v43h-658l1 -42q1 -39 -59 -36q-36 2 -40 31q-1 8 1 100q5 79 5 145v406q-3 89 -3 100q-6 66 -5 66zM1101 238h280v272h-280v-272zM1477 238h282v272h-282v-272zM1101 566h280
v256h-280v-256zM1477 822v-256h282v256h-282zM1590 1749l1 -585q0 -57 5 -129q2 -23 2 -49q0 -44 -57 -44q-41 0 -41 36v739q0 100 -16 177l118 -89h186l61 73l72 -50q37 -25 42 -43q4 -20 -26 -37q-6 -4 -12 -7q-9 -5 -25 -15v-425q0 -123 -161 -165q-1 59 -25 78
q-25 19 -80 36l3 41q18 -1 53 -5l49 -4q52 -4 65 19q8 13 8 47v401h-222z" />
  </g>

</svg>
