<?xml version="1.0" standalone="no"?>
<!DOCTYPE svg PUBLIC "-//W3C//DTD SVG 1.1//EN" "http://www.w3.org/Graphics/SVG/1.1/DTD/svg11.dtd" >
<svg xmlns="http://www.w3.org/2000/svg" xmlns:xlink="http://www.w3.org/1999/xlink" version="1.1" viewBox="0 0 2048 2048">
  <g transform="matrix(1 0 0 -1 0 2048)">
   <path fill="currentColor"
d="M498 1608h160l80 80l114 -86q21 -15 16 -33q-6 -18 -26 -18h-592q-69 0 -149 -11l-39 86q126 -18 188 -18h202q-21 9 -28 66q-12 93 -118 236l30 24q86 -76 120 -112q80 -85 80 -150q0 -45 -38 -64zM542 1008l80 80l114 -86q20 -15 15 -33q-5 -19 -26 -19h-402
q-67 0 -149 -10l-39 86q121 -18 188 -18h219zM553 1296l80 81l114 -86q21 -16 16 -33q-6 -19 -26 -19h-414q-67 0 -149 -11l-39 86q121 -18 188 -18h230zM153 775l107 -62h337l61 71l72 -49q37 -25 42 -44q5 -20 -25 -37q-6 -4 -13 -7q-9 -4 -26 -14v-369l33 -23
q27 -19 29 -34q2 -22 -20 -22h-503v-28q0 -27 -44 -30q-66 -6 -60 51l4 41q6 96 6 104v452zM247 241h366v414h-366v-414zM1395 1575v-364h254l99 101l120 -107q20 -17 16 -33q-6 -19 -26 -19h-463v-375h353l98 101l121 -107q20 -18 15 -33q-6 -19 -26 -19h-561v-350
q0 -102 12 -209q4 -28 4 -54q0 -39 -49 -42q-62 -4 -62 42v613h-252q-121 0 -192 -7l-38 87q95 -22 230 -22h252v375h-187q-118 0 -192 -8l-38 89q96 -23 230 -23h187v349q-246 -42 -387 -55l-6 38q215 40 393 83v153q0 116 -8 160l109 -24q82 -18 85 -44q4 -29 -49 -43
l-42 -12v-167q221 71 335 148l99 -71q41 -29 30 -51q-6 -13 -28 -15q-17 -1 -36 4l-30 8q-57 -17 -85 -25q-183 -54 -285 -72z" />
  </g>

</svg>
