<?xml version="1.0" standalone="no"?>
<!DOCTYPE svg PUBLIC "-//W3C//DTD SVG 1.1//EN" "http://www.w3.org/Graphics/SVG/1.1/DTD/svg11.dtd" >
<svg xmlns="http://www.w3.org/2000/svg" xmlns:xlink="http://www.w3.org/1999/xlink" version="1.1" viewBox="0 -205 1024 1024">
  <g transform="matrix(1 0 0 -1 0 819)">
   <path fill="currentColor"
d="M717 804q5 -6 -3 -9q-17 -2 -35 -17v-180l85 41v273q2 16 -30 46l9 12l83 -36q14 -5 6 -11q-21 -7 -30 -21v-245l83 40l26 46l60 -40q6 -7 -7 -14l-19 -16v-159q-1 -53 -3 -88q-3 -72 -15 -99q-14 -34 -62 -50q-4 40 -52 46l2 14q59 -13 69 0q12 14 14 152q3 138 1 188
l-97 -46v-280l2 -57q2 -34 -47 -44q5 37 7 148v215l-85 -40v-399q0 -46 7 -60t47 -18q41 -4 78 -2q25 1 66 3q17 1 24 1q38 8 42 40q8 38 12 157h15q3 -107 3 -134q0 -26 32 -41q-19 -30 -34 -39q-14 -9 -43 -16t-109 -7q-74 -2 -130 6q-61 12 -52 116v373l-14 -6
q-29 -19 -44 -37l-38 22l96 46v209q-3 23 -24 44l8 10zM96 416l36 -46h153l31 35l44 -41q7 -6 6 -11q-1 -4 -10 -8l-18 -9v-185l4 -34q9 -42 -46 -44v72h-155v-57q3 -38 -49 -46q5 39 7 103v217q-4 24 -18 42zM629 926q3 -10 -7 -10q-18 -7 -29 -15q-26 -88 -68 -183v-610
l2 -37q2 -35 -51 -44q5 37 7 126v485q-43 -69 -104 -129l-12 8q110 152 160 328q20 74 15 84q-4 11 -14 26l8 6zM141 163h155v187h-155v-187zM19 793h326l24 34l58 -44q8 -5 7 -8q-2 -2 -13 -2h-323q-27 1 -45 -13zM69 651h206l24 34l62 -44q8 -5 7 -8q-2 -2 -13 -2h-215
q-19 1 -37 -13zM69 515h202l24 34l62 -44q10 -5 8 -8q-1 -2 -14 -2h-211q-19 1 -37 -13zM126 983l4 12q120 -49 123 -129q0 -33 -21 -36t-23 27q-9 74 -83 126z" />
  </g>

</svg>
