<?xml version="1.0" standalone="no"?>
<!DOCTYPE svg PUBLIC "-//W3C//DTD SVG 1.1//EN" "http://www.w3.org/Graphics/SVG/1.1/DTD/svg11.dtd" >
<svg xmlns="http://www.w3.org/2000/svg" xmlns:xlink="http://www.w3.org/1999/xlink" version="1.1" viewBox="0 0 2048 2048">
  <g transform="matrix(1 0 0 -1 0 2048)">
   <path fill="currentColor"
d="M1537 1351v-442h204l99 101l120 -107q21 -18 16 -33q-6 -19 -26 -19h-413v-462q0 -108 11 -209q4 -29 4 -54q0 -39 -49 -42q-63 -4 -63 42v725h-140q-115 0 -190 -8l-37 88q94 -22 227 -22h140v442h-140q-67 0 -148 -11l-39 86q120 -17 187 -17h406l79 80l115 -86
q21 -15 15 -33q-5 -19 -26 -19h-352zM1060 1755h674l103 95l121 -95q23 -18 18 -40q-4 -18 -32 -18h-894v-714q0 -372 -47 -535q-65 -224 -231 -383l-26 23q123 177 166 346q45 174 45 556v675l-3 57q-2 65 -4 102zM471 1608h132l78 81l114 -86q21 -16 16 -34t-26 -18h-509
q-62 0 -148 -11l-39 86q121 -18 187 -18h149q-21 10 -28 66q-11 92 -117 236l30 25q83 -74 120 -112q79 -85 79 -150q0 -46 -38 -65zM522 1331l81 81l113 -86q21 -16 16 -34q-6 -18 -26 -18h-364q-69 0 -149 -11l-39 86q124 -18 188 -18h180zM530 1031l80 81l114 -86
q21 -16 15 -34q-5 -18 -25 -18h-372q-68 0 -149 -11l-39 87q116 -19 188 -19h188zM182 779l106 -62h301l61 71l72 -49q37 -26 41 -44q7 -27 -66 -58l2 -346l32 -23q27 -19 29 -34q2 -22 -20 -22h-464v-36q0 -45 -69 -40q-42 3 -39 53l3 54q9 129 9 142zM276 268h327v391
h-327v-391z" />
  </g>

</svg>
