<?xml version="1.0" standalone="no"?>
<!DOCTYPE svg PUBLIC "-//W3C//DTD SVG 1.1//EN" "http://www.w3.org/Graphics/SVG/1.1/DTD/svg11.dtd" >
<svg xmlns="http://www.w3.org/2000/svg" xmlns:xlink="http://www.w3.org/1999/xlink" version="1.1" viewBox="0 0 2048 2048">
  <g transform="matrix(1 0 0 -1 0 2048)">
   <path fill="currentColor"
d="M1485 1551q8 -12 20 -31q193 -294 478 -361l-2 -32q-66 -2 -96 -15q-28 -13 -50 -50q-277 186 -403 489h-138q-82 -175 -214 -311q-96 -99 -293 -228l-27 34q300 231 424 505h-153q-70 0 -149 -10l-39 86q123 -18 188 -18h176q49 133 83 321l137 -44q53 -17 49 -42
q-3 -18 -42 -25l-48 -7q-36 -121 -68 -203h416l98 101l121 -106q20 -18 15 -34q-4 -15 -25 -19h-458zM430 1581h118l80 81l114 -86q21 -16 16 -33q-5 -19 -26 -19h-477q-68 0 -149 -10l-39 86q123 -19 188 -19h129q-21 10 -28 67q-12 93 -118 236l31 24q84 -75 119 -112
q80 -85 80 -150q0 -46 -38 -65zM493 997l80 80l114 -86q21 -15 15 -33q-5 -19 -26 -19h-371q-67 0 -149 -10l-39 86q121 -18 188 -18h188zM485 1297l81 80l113 -86q21 -15 16 -33q-6 -19 -26 -19h-364q-68 0 -149 -10l-39 86q121 -18 188 -18h180zM144 744l107 -62h301
l61 72l72 -49q37 -26 41 -44q5 -20 -25 -37q-6 -4 -13 -7q-9 -4 -26 -14v-346l32 -23q27 -19 29 -34q2 -22 -20 -22h-465v-44q0 -27 -44 -30q-65 -6 -60 50l4 42q6 96 6 104v444zM238 234h328v391h-328v-391zM1304 1202l109 -24q82 -18 85 -43q4 -26 -50 -44l-41 -13v-834
q0 -142 -158 -171q-2 67 -43 94q-33 21 -160 43l9 46q135 -22 189 -27q68 -5 68 57v757q0 115 -8 159zM1786 913q-116 -94 -245 -155l-23 29q138 108 237 262l91 -76q41 -34 38 -49q-4 -25 -45 -19zM1527 669q199 -101 305 -189q85 -70 91 -127q5 -59 -39 -75
q-37 -13 -62 23q-4 6 -45 80q-55 98 -268 255zM1223 654l19 -34q-75 -61 -292 -194l-58 -36l1 -28q3 -63 -31 -61q-19 1 -57 68l-53 94q269 82 471 191zM896 996l16 35q296 -84 296 -198q0 -53 -46 -57q-30 -3 -57 38q-46 71 -79 103q-43 39 -130 79z" />
  </g>

</svg>
