<?xml version="1.0" standalone="no"?>
<!DOCTYPE svg PUBLIC "-//W3C//DTD SVG 1.1//EN" "http://www.w3.org/Graphics/SVG/1.1/DTD/svg11.dtd" >
<svg xmlns="http://www.w3.org/2000/svg" xmlns:xlink="http://www.w3.org/1999/xlink" version="1.1" viewBox="0 0 2048 2048">
  <g transform="matrix(1 0 0 -1 0 2048)">
   <path fill="currentColor"
d="M925 1221q-33 -11 -118 -34l-3 -29q-5 -35 -26 -34q-16 1 -33 39l-47 108q88 112 202 451h-58q-65 0 -142 -11l-37 86q115 -18 179 -18h291l76 80l109 -85q20 -16 15 -33q-6 -19 -25 -19h-294q-74 -148 -248 -436q261 29 405 66q-35 65 -80 131l22 23q97 -100 126 -137
q60 -77 60 -133q0 -30 -18 -50q-13 -13 -33 -11q-30 4 -38 51q-4 23 -24 90q-119 -51 -227 -84l67 -16q79 -18 81 -43q4 -30 -47 -44l-39 -11v-248h65l76 80l109 -86q20 -15 14 -32q-5 -19 -24 -19h-240v-415q136 57 269 133l16 -34q-216 -158 -490 -300q-6 -67 -28 -67
q-16 0 -30 24l-27 61q-17 38 -35 75q113 31 233 73v450h-47q-61 0 -141 -11l-38 86q116 -18 179 -18h47v210q0 40 -4 141zM1664 538q149 -240 343 -329l-12 -36q-13 2 -17 2q-52 0 -112 -57q-116 106 -258 326q-119 -131 -206 -201q-79 -64 -221 -150l-21 32
q252 181 406 414q-88 181 -164 502q-29 -62 -63 -133l-35 17q54 135 77 225q-30 153 -35 183l35 20q10 -54 25 -110q6 26 28 106q61 220 106 586l123 -43q64 -23 64 -52q0 -25 -56 -32l-47 -5q-7 -31 -25 -115l-34 -153h233l61 79l70 -57q44 -36 46 -51q4 -23 -36 -41
l-41 -19q-11 -79 -31 -242q-50 -403 -203 -666zM1615 625q76 158 121 365q38 172 73 490h-259q-39 -143 -112 -363q18 -80 77 -249q46 -132 100 -243zM416 1045l83 80l116 -85q22 -16 16 -34t-26 -18h-292q-70 0 -153 -11l-40 86q126 -18 193 -18h103zM472 748l62 72l74 -50
q38 -25 43 -44q4 -20 -26 -37q-6 -4 -13 -7q-9 -4 -27 -14v-378l26 -18q29 -19 28 -39q-1 -19 -21 -19h-377v-48q0 -28 -49 -31q-65 -3 -60 51l4 42q6 95 6 104l1 480l119 -64h210zM241 272h247v421h-247v-421zM412 1334l82 80l117 -86q22 -16 16 -33q-6 -19 -26 -19h-292
q-71 0 -153 -10l-40 85q126 -17 193 -17h103zM344 1631q-27 17 -34 49q-20 97 -112 204l21 24q206 -137 193 -230q-4 -31 -39 -47h100l82 79l117 -85q22 -16 16 -33q-6 -19 -26 -19h-411q-69 0 -153 -10l-40 85q126 -17 193 -17h93z" />
  </g>

</svg>
