<?xml version="1.0" standalone="no"?>
<!DOCTYPE svg PUBLIC "-//W3C//DTD SVG 1.1//EN" "http://www.w3.org/Graphics/SVG/1.1/DTD/svg11.dtd" >
<svg xmlns="http://www.w3.org/2000/svg" xmlns:xlink="http://www.w3.org/1999/xlink" version="1.1" viewBox="0 -205 1024 1024">
  <g transform="matrix(1 0 0 -1 0 819)">
   <path fill="currentColor"
d="M80 403l38 -46h165l29 35l48 -41q7 -6 6 -11q-1 -4 -10 -8l-18 -9v-175l4 -52q7 -41 -48 -44v80h-167v-57q2 -37 -51 -46q5 39 7 103v217q-4 24 -18 42zM450 69l-48 44q54 45 92 67q21 13 39 14q160 107 275 204h-314q-16 -2 -33 -14l-32 34h388l35 28l53 -56
q4 -10 -10 -9q-23 2 -50 -13q-96 -73 -278 -186q21 -12 43 -32q24 -23 59 -32q35 -10 111 -13h52q3 0 9 1q71 3 156 10v-16q-54 -9 -65 -37l-54 -1q-70 -2 -110 0q-43 1 -74 7q-61 11 -92 44q-36 37 -53 46q-39 21 -99 -90zM127 150h167v187h-167v-187zM492 865v-46h430
l25 31l59 -50q2 -5 -1 -7q-2 -2 -9 0q-35 -3 -68 -55q-16 -21 -27 -35l-15 8l36 88h-431q-1 -8 -1 -14q-2 -45 -30 -77q-28 -28 -48 -5q-12 17 7 33q19 17 35 48q17 32 21 81h17zM584 757l71 -46q5 -6 4 -10q-2 -3 -10 -5q-21 3 -41 -15q-74 -100 -175 -171l-6 14l31 35
q97 106 124 167q0 8 -8 22zM742 729l8 12q112 -46 166 -119q43 -67 4 -87q-20 -8 -34 29q-13 37 -48 79q-34 42 -96 86zM15 780h326l24 34l58 -44q8 -5 7 -8q-2 -2 -13 -2h-323q-27 1 -45 -13zM586 979l4 14q64 -21 89 -38q26 -17 40 -41q30 -58 -11 -71q-19 -2 -27 25
q-6 27 -25 55t-70 56zM65 502h214l24 34l62 -44q8 -5 7 -8q-2 -2 -13 -2h-223q-19 1 -37 -13zM65 638h214l24 34l62 -44q8 -5 7 -8q-2 -2 -13 -2h-223q-19 1 -37 -13zM111 971l4 12q121 -50 125 -129q0 -33 -22 -37t-26 28q-11 77 -81 126zM604 587l6 12q90 -37 112 -83
q25 -57 -15 -69q-21 -2 -25 28q-3 30 -21 56t-57 56z" />
  </g>

</svg>
