<?xml version="1.0" standalone="no"?>
<!DOCTYPE svg PUBLIC "-//W3C//DTD SVG 1.1//EN" "http://www.w3.org/Graphics/SVG/1.1/DTD/svg11.dtd" >
<svg xmlns="http://www.w3.org/2000/svg" xmlns:xlink="http://www.w3.org/1999/xlink" version="1.1" viewBox="0 -205 1024 1024">
  <g transform="matrix(1 0 0 -1 0 819)">
   <path fill="currentColor"
d="M941 675q8 -9 -9 -14l-21 -14l-14 -517q-2 -38 14 -44q36 -2 46 7t17 53l7 81h9l3 -67q0 -43 20 -56q-16 -65 -116 -48q-41 14 -40 67l16 542h-116l-7 -106q36 -32 54 -61q55 -104 1 -122q-15 2 -13 31q3 30 -11 70q-11 29 -32 59l-22 -367q44 34 104 88l10 -12
q-54 -65 -90 -100q-27 -30 -50 -66l-46 48q16 6 32 23l43 740h-1q-27 1 -45 -13l-34 33h232l32 40l68 -50q8 -5 7 -8q-2 -2 -13 -2h-206l-12 -205h105l30 34zM349 791l26 -35h74l23 120h-93q-27 1 -45 -13l-34 33h276l22 30l58 -40q8 -5 7 -8q-2 -2 -13 -2h-137l-37 -120
h121l20 27l38 -27q9 -6 9 -11q0 -4 -9 -8l-16 -15v-161q2 -61 -8 -84q-10 -22 -46 -28q0 21 -24 25q-24 5 -48 6v14q52 -3 71 -1t19 50v193h-53v-125l2 -57q5 -39 -41 -44q5 37 7 86v140h-52v-141l2 -57q3 -36 -41 -44q5 37 7 88v154h-48v-151l4 -93q2 -37 -47 -46
q5 39 7 82v216q-3 19 -17 34zM55 400l30 -42h125l29 35l42 -41q7 -6 6 -11q-1 -4 -10 -8l-18 -9v-129l4 -50q8 -42 -42 -44v52h-125v-49q2 -36 -45 -46q5 39 7 101v187q-4 24 -18 42zM431 470l79 -20q6 -2 7 -5q0 -3 -5 -6q-14 -5 -26 -14l-1 -46q0 -7 -1 -13h104l24 32
l60 -42q8 -5 7 -8q-2 -2 -13 -2h-183q-1 -15 -3 -28q62 -42 83 -65q35 -36 47 -87q8 -46 -20 -47q-19 -1 -24 31q-5 35 -29 75q-21 36 -60 73q-12 -70 -42 -120q-46 -74 -140 -128l-10 12q89 73 121 134q31 57 37 150h-58q-27 1 -45 -13l-34 33h139v5l1 62q-4 20 -23 26z
M96 173h125v165h-125v-165zM12 773h222l24 34l58 -44q8 -5 7 -8q-2 -2 -13 -2h-219q-27 1 -45 -13zM58 959l4 12q118 -51 124 -129q1 -33 -20 -37t-25 28t-24 66q-20 35 -59 60zM36 497h160l24 34l62 -44q8 -5 7 -8q-2 -2 -13 -2h-169q-19 1 -37 -13zM36 633h160l24 34
l62 -44q8 -5 7 -8q-2 -2 -13 -2h-169q-19 1 -37 -13z" />
  </g>

</svg>
