<?xml version="1.0" standalone="no"?>
<!DOCTYPE svg PUBLIC "-//W3C//DTD SVG 1.1//EN" "http://www.w3.org/Graphics/SVG/1.1/DTD/svg11.dtd" >
<svg xmlns="http://www.w3.org/2000/svg" xmlns:xlink="http://www.w3.org/1999/xlink" version="1.1" viewBox="0 0 2048 2048">
  <g transform="matrix(1 0 0 -1 0 2048)">
   <path fill="currentColor"
d="M336 1529q22 274 21 402l121 -27q59 -12 72.5 -19.5t11.5 -25.5q-3 -28 -101 -54q-15 -191 -23 -276h310l80 81l114 -86q21 -16 16 -34q-6 -18 -26 -18h-500q-87 -837 -352 -1338l-35 23q129 325 205 725q47 247 82 590h-72q-72 0 -149 -11l-39 86q126 -18 188 -18h76z
M811 368q-192 -70 -394 -131q-9 -67 -34 -73q-22 -5 -38 49l-30 96q97 202 173 490q66 254 88 471l107 -31q84 -23 80 -57q-2 -22 -45 -32l-12 -2q-14 -2 -42 -8q-101 -491 -288 -815q189 27 425 89q-31 108 -121 268l29 21q195 -234 222 -368q11 -58 -13 -96
q-20 -34 -52 -29q-41 6 -46 81q-3 37 -9 77zM1179 810h437l68 76l84 -54q40 -26 40 -49q0 -28 -78 -61v-493l48 -33q21 -14 21 -35q0 -20 -23 -20h-605l-1 -23q0 -27 -41 -27q-67 0 -62 58q8 80 8 209v391l-1 43q-3 60 -6 102zM1171 199h461v554h-461v-554zM1489 1862
q108 -65 209 -148q179 -148 179 -238q0 -64 -50 -64q-44 0 -70 64q-70 171 -290 353zM1448 1417q218 -357 552 -515l-5 -35q-14 1 -24 2q-78 5 -123 -52q-94 68 -209 208q-128 156 -219 343q-115 -222 -240 -356q-114 -123 -290 -237l-22 33q199 168 302 320
q106 157 148 263q11 27 50 158l144 -42q35 -10 37 -33q1 -21 -25 -25l-70 -13zM1231 1892l150 -64q22 -9 15 -27q-8 -21 -45 -26l-50 -5q-60 -119 -115 -196q-88 -124 -232 -236l-28 29q208 217 305 525z" />
  </g>

</svg>
