<?xml version="1.0" standalone="no"?>
<!DOCTYPE svg PUBLIC "-//W3C//DTD SVG 1.1//EN" "http://www.w3.org/Graphics/SVG/1.1/DTD/svg11.dtd" >
<svg xmlns="http://www.w3.org/2000/svg" xmlns:xlink="http://www.w3.org/1999/xlink" version="1.1" viewBox="0 0 2048 2048">
  <g transform="matrix(1 0 0 -1 0 2048)">
   <path fill="currentColor"
d="M574 1426q8 -7 18 -15q120 -89 222 -213q91 -110 99 -186q3 -31 -11 -53q-15 -23 -42 -21q-39 1 -62 62q-77 206 -257 398q-8 -14 -53 -97q-90 -165 -217 -294q-43 -44 -166 -145l-23 28q294 313 388 640l110 -30q54 -15 57 -34q5 -33 -63 -40zM1201 1831l132 -50
q50 -19 48 -39t-38 -25q-8 -2 -16 -2q-15 -1 -45 -4q-136 -375 -316 -561l-31 20q168 262 266 661zM1410 1885h103l60 57l44 -36q33 -27 36 -45q3 -17 -19 -29l-45 -23q49 -224 150 -363q116 -161 255 -231v-31q-80 -4 -123 -42q-132 112 -218 289q-73 152 -124 401h-119v53
zM659 841l68 77l83 -58q40 -27 40 -48q0 -27 -77 -60v-444q67 -41 60 -68q-5 -15 -19 -15h-480v-31q0 -46 -69 -40q-42 4 -39 53l4 55q8 134 8 142l1 502l110 -65h310zM334 282h344v505h-344v-505zM602 1835l25 22q74 -53 164 -143q136 -138 136 -229q0 -65 -49 -68
q-42 -2 -70 89q-30 96 -90 184q-25 38 -116 145zM360 1888l116 -44q53 -20 53 -44q0 -23 -44 -30l-50 -8q-146 -269 -312 -434l-27 25q169 236 264 535zM1055 1020l-39 86q125 -18 188 -18h449l66 76l82 -55q39 -26 39 -48q0 -27 -76 -62q-5 -81 -11 -212q-18 -431 -65 -525
q-47 -95 -192 -128q-8 54 -75 89q-34 18 -156 60l11 42q175 -49 235 -49q77 0 105 110q36 135 50 646h-314q-43 -403 -154 -589q-111 -188 -293 -301l-24 35q167 132 251 316q55 122 82 263q18 89 35 276l-45 -1q-82 -2 -149 -11z" />
  </g>

</svg>
