<?xml version="1.0" standalone="no"?>
<!DOCTYPE svg PUBLIC "-//W3C//DTD SVG 1.1//EN" "http://www.w3.org/Graphics/SVG/1.1/DTD/svg11.dtd" >
<svg xmlns="http://www.w3.org/2000/svg" xmlns:xlink="http://www.w3.org/1999/xlink" version="1.1" viewBox="0 0 2048 2048">
  <g transform="matrix(1 0 0 -1 0 2048)">
   <path fill="currentColor"
d="M1309 230q-15 16 -18 51q-20 221 -61 357q-26 87 -65 182q-13 -3 -22 -4q-61 -4 -61 52l10 161v315q0 2 -10 167l112 -83h491l68 77l83 -53q41 -26 41 -49q0 -22 -30 -39q-6 -4 -12 -7q-13 -6 -36 -20v-388l52 -33q22 -14 22 -33t-18 -19h-166l98 -28q59 -17 59 -40
q0 -24 -46 -32l-37 -7q-12 -40 -38 -141q-51 -194 -161 -386h187l98 102l121 -107q20 -18 16 -34q-6 -18 -26 -18h-806q-108 0 -192 -8l-38 88q96 -23 230 -23h155zM1190 864l15 -25q190 -328 190 -499q0 -81 -29 -110h140q74 195 105 334q29 131 48 300h-469zM1186 920h519
v451h-519v-451zM389 1962q196 -128 196 -215q0 -42 -37 -68h219l80 81l114 -86q21 -16 16 -34q-6 -18 -26 -18h-196l73 -34q65 -32 60 -57q-5 -27 -64 -27h-27q-67 -188 -155 -331h168l80 81l114 -86q21 -16 16 -34q-5 -16 -34 -16h-742q-63 0 -149 -11l-39 86
q126 -20 188 -20h96q-19 17 -24 44q-2 9 -11 75q-22 166 -103 313l20 14q-70 -2 -93 -6l-40 88q95 -22 201 -22h214q-18 12 -25 64q-6 58 -117 192zM380 1173h205q104 229 125 449h-466q142 -201 171 -303q19 -67 3 -104q-8 -19 -38 -42zM180 974l116 -79h443l68 76l84 -54
q40 -26 40 -48q0 -29 -80 -62v-458l-1 -49l7 -79l4 -65l2 -18q3 -53 -69 -53q-39 0 -39 26v95h-469v-88q0 -39 -60 -30q-46 7 -42 68q7 110 7 224v454q0 48 -11 140zM286 261h469v270h-469v-270zM286 589h469v248h-469v-248zM1709 1783l98 102l121 -107q20 -18 16 -33
q-6 -19 -26 -19h-695q-118 0 -192 -8l-38 88q96 -23 230 -23h486z" />
  </g>

</svg>
