<?xml version="1.0" standalone="no"?>
<!DOCTYPE svg PUBLIC "-//W3C//DTD SVG 1.1//EN" "http://www.w3.org/Graphics/SVG/1.1/DTD/svg11.dtd" >
<svg xmlns="http://www.w3.org/2000/svg" xmlns:xlink="http://www.w3.org/1999/xlink" version="1.1" viewBox="0 -200 1000 1000">
  <g transform="matrix(1 0 0 -1 0 800)">
   <path fill="currentColor"
d="M766 351h-132v-89q-22 -18 -47 -25v480l60 -39h72l27 39l47 -48l-27 -36v-282zM851 900l47 48l69 -70h-79v-728v-16q0 -54 -15 -85t-48 -50q-5 34 -35 52.5t-90 30.5v14q13 -2 28.5 -3t30.5 -1.5t28 -0.5h22q17 0 25 18t8 41v728h-236l-63 -13l-15 35h323zM634 610v-238
h88v283h-75zM170 286q-7 -8 -23 -14.5t-27 -11.5v277l63 -33h215l39 45l52 -58l-33 -34v-151h-286v-20zM267 999l65 -31l-18 -63v-150h122v195l66 -34l-19 -55v-146q-11 -10 -20.5 -15t-26.5 -10v44h-293l-21 -33l-52 54l26 21v183l69 -36l-22 -58v-110h125zM170 327h239
v156h-229l-10 -48v-108zM199 87q-3 42 -15 78t-32 70l7 7q48 -34 68 -64.5t20 -53.5q0 -21 -13 -31l103 19q17 61 29 102.5t14 67.5l65 -55q-33 -16 -85 -112l167 26v-15q-91 -23 -171 -43t-140 -36t-96.5 -28t-40.5 -19l-21 67zM439 624l51 45l67 -66h-447l-51 -12l-20 33
h400zM229 90l-5 -3z" />
  </g>

</svg>
