<?xml version="1.0" standalone="no"?>
<!DOCTYPE svg PUBLIC "-//W3C//DTD SVG 1.1//EN" "http://www.w3.org/Graphics/SVG/1.1/DTD/svg11.dtd" >
<svg xmlns="http://www.w3.org/2000/svg" xmlns:xlink="http://www.w3.org/1999/xlink" version="1.1" viewBox="0 -205 1024 1024">
  <g transform="matrix(1 0 0 -1 0 819)">
   <path fill="currentColor"
d="M666 1004l76 -34q14 -5 6 -11q-16 -4 -27 -18l-7 -107h141l26 34l60 -44q8 -5 7 -8q-2 -2 -13 -2h-223l-7 -105h113l35 38l47 -46q7 -6 6 -10q-1 -5 -10 -7l-20 -9v-434h43l26 34l60 -44q8 -5 7 -8q-2 -2 -13 -2h-513q-27 -1 -45 -15l-30 35h112v447q-5 23 -19 41l14 12
l31 -32h118l7 105h-128q-27 1 -45 -13l-30 33h204l8 117q2 17 -25 42zM94 615l32 -32h213l25 29l48 -37q7 -5 5 -9q-1 -4 -11 -8l-18 -9v-106l6 -43q1 -31 -44 -31v20h-215q-2 -17 -11 -25q-10 -9 -36 -14q5 37 7 86v134q-3 22 -15 34zM135 409h215v154h-215v-154zM210 978
l76 -34q14 -5 6 -11q-16 -4 -27 -18v-99h118l26 34l60 -44q4 -5 2 -8q-1 -2 -8 -2h-198v-106h82l26 34l60 -44q8 -5 7 -8q-2 -2 -13 -2h-293q-27 1 -45 -13l-30 33h168v106h-137q-27 1 -45 -13l-30 33h212v109q2 17 -25 42zM561 584h277v105h-277v-105zM838 452h-277v-104
h277v104zM838 568h-277v-100h277v100zM838 332h-277v-91h277v91zM322 347l54 -24q17 -7 7 -15q-16 -1 -24 -8q-32 -63 -61 -106l117 29l4 -16q-65 -20 -159 -49q-58 -17 -76 -23q-58 -20 -81 -30q-22 -11 -34 -31l-34 56l238 58q24 53 35 81q2 5 5 14q19 37 0 56zM592 202
l61 -43q6 -5 5 -8q0 -1 -7 -3q-11 1 -31 -3q-108 -84 -224 -126l-8 14q162 94 195 139q5 11 -1 23zM762 183l6 14q110 -30 167 -87q29 -27 30 -56q2 -30 -16 -33t-35 32q-16 34 -64 74q-48 38 -88 56zM113 331l10 10q79 -58 75 -115q-2 -26 -20 -28q-18 -1 -19 21
q-1 24 -10 51t-36 61z" />
  </g>

</svg>
