<?xml version="1.0" standalone="no"?>
<!DOCTYPE svg PUBLIC "-//W3C//DTD SVG 1.1//EN" "http://www.w3.org/Graphics/SVG/1.1/DTD/svg11.dtd" >
<svg xmlns="http://www.w3.org/2000/svg" xmlns:xlink="http://www.w3.org/1999/xlink" version="1.1" viewBox="0 -205 1024 1024">
  <g transform="matrix(1 0 0 -1 0 819)">
   <path fill="currentColor"
d="M797 626l76 -34q14 -5 6 -11q-16 -5 -27 -22v-33h50l24 32l58 -40q8 -5 7 -8q-2 -2 -13 -2h-126v-134h28l26 34l60 -42q8 -5 8 -8q1 -2 -6 -2h-260v-116h200l26 34l60 -44q8 -5 7 -8q-2 -2 -13 -2h-280v-80l2 -57q3 -36 -51 -44q5 37 7 146v35h-197q-27 1 -45 -13l-34 33
h276v116h-175q-27 1 -45 -13l-34 31h100v134h-43q-27 1 -45 -13l-34 31h122v53q2 17 -19 36l8 11l70 -28q14 -5 6 -11q-16 -4 -27 -18v-43h116v145h-160q-2 -11 -10 -17q-10 -9 -33 -14q5 38 7 114v176q-3 22 -19 38l16 11l31 -34h354l41 37l40 -45q7 -6 5 -10q-1 -5 -11 -7
l-18 -9v-194l6 -39q4 -32 -44 -31v24h-163v-145h106v47q2 17 -25 42zM83 793l36 -36h169l39 37l46 -45q7 -6 5 -10q-1 -5 -11 -7l-18 -9v-110l2 -89q4 -33 -44 -31v30h-179v-15q3 -36 -49 -44q5 38 7 126v154q-3 22 -17 38zM128 543h179v194h-179v-194zM201 156
q-62 -16 -86 -27t-44 -33l-50 52l203 42l23 77q42 153 40 165q-2 13 -10 28l8 7l68 -24q17 -10 7 -15q-20 -3 -35 -21l-77 -212l131 28l4 -16zM871 801h-163v-110h163v110zM708 817h163v108h-163v-108zM666 801h-158v-110h158v110zM666 925h-158v-108h158v108zM666 508h-116
v-134h116v134zM814 508h-106v-134h106v134zM14 918h314l32 40l68 -50q8 -5 7 -8q-2 -2 -13 -2h-329q-27 1 -45 -13zM81 435l9 9q51 -59 68 -88t21 -56t-2 -46t-24 -18t-18 35q0 35 -7 66q-7 32 -47 98z" />
  </g>

</svg>
