<?xml version="1.0" standalone="no"?>
<!DOCTYPE svg PUBLIC "-//W3C//DTD SVG 1.1//EN" "http://www.w3.org/Graphics/SVG/1.1/DTD/svg11.dtd" >
<svg xmlns="http://www.w3.org/2000/svg" xmlns:xlink="http://www.w3.org/1999/xlink" version="1.1" viewBox="0 0 2048 2048">
  <g transform="matrix(1 0 0 -1 0 2048)">
   <path fill="currentColor"
d="M695 1084q354 -242 366 -392q3 -30 -14.5 -50.5t-44.5 -18.5q-39 3 -59 54q-74 183 -275 376q69 -224 69 -486q0 -305 -105 -423q-66 -76 -227 -105q2 40 -8 61q-25 51 -184 91l14 39q48 -12 71 -19q160 -44 197 -37q75 14 115 147q29 101 29 243q0 109 -9 224
q-107 -151 -235 -261q-85 -73 -240 -168l-25 34q281 217 478 542q-10 68 -54 205q-158 -228 -428 -382l-21 34q137 105 236 217q76 87 169 250q-28 78 -77 177q-74 -81 -150 -142q-13 -10 -136 -93l-21 30q17 15 86 74q88 76 192 227q52 77 100 187h-236q-71 0 -155 -10
l-41 86q126 -18 196 -18h535l102 101l126 -107q22 -18 17 -33q-6 -19 -29 -19h-399q-79 -148 -154 -245q110 -174 186 -374q139 172 215 321l126 -66q27 -14 33 -30q6 -19 -15 -31q-7 -4 -13 -4q-17 0 -34 2l-38 4q-133 -135 -231 -212zM1576 1677v-1428q0 -144 -181 -175
q-16 76 -67 102q-45 21 -223 46l8 46q220 -29 299 -34q69 -5 69 57v1386h-223q-67 0 -148 -11l-39 86q122 -18 187 -18l499 1l98 102l121 -107q20 -18 15 -33q-6 -19 -26 -19z" />
  </g>

</svg>
