<?xml version="1.0" standalone="no"?>
<!DOCTYPE svg PUBLIC "-//W3C//DTD SVG 1.1//EN" "http://www.w3.org/Graphics/SVG/1.1/DTD/svg11.dtd" >
<svg xmlns="http://www.w3.org/2000/svg" xmlns:xlink="http://www.w3.org/1999/xlink" version="1.1" viewBox="0 0 2048 2048">
  <g transform="matrix(1 0 0 -1 0 2048)">
   <path fill="currentColor"
d="M556 1275q80 -96 143 -228q104 -219 104 -579q0 -248 -109 -344q-61 -54 -169 -69q0 69 -44 93q-49 28 -124 45l10 37q189 -45 227 -39q76 11 100 138q13 69 13 283q0 51 -12 132q-246 -318 -588 -460l-20 36q172 92 337 248q91 87 150 168q17 24 95 144q-16 82 -42 151
q-216 -245 -534 -385l-19 32q334 198 508 459q-31 63 -64 114q-160 -94 -421 -171l-10 41q274 96 472 252l18 14q-33 14 -42 34q-2 6 -14 49q-30 104 -141 197q-125 -52 -259 -84l-9 32q170 60 310 156q97 66 204 192l99 -63q39 -25 31 -43q-8 -20 -46 -17l-45 5
q-131 -105 -246 -160q208 -134 208 -233q0 -6 -1 -16q75 84 132 189l94 -48q45 -23 40 -47q-5 -22 -50 -22h-37q-125 -152 -249 -233zM1151 1576h561l102 122l158 -120q19 -14 18 -32q-1 -24 -30 -24h-616v-402h317l98 102l121 -107q20 -18 15 -33q-5 -19 -25 -19l-526 1
v-418h317l98 102l121 -107q20 -18 15 -33q-6 -19 -25 -19l-526 2v-239q0 -106 11 -210q3 -28 3 -53q0 -39 -49 -42q-62 -4 -62 42l1 1433h-125q-107 -204 -261 -352l-30 24q268 353 344 760l155 -61q26 -10 30 -27q7 -25 -38 -30l-67 -8q-55 -148 -105 -252zM187 1557
q201 -137 188 -230q-7 -47 -50 -49q-38 -2 -49 51q-21 100 -109 204z" />
  </g>

</svg>
