<?xml version="1.0" standalone="no"?>
<!DOCTYPE svg PUBLIC "-//W3C//DTD SVG 1.1//EN" "http://www.w3.org/Graphics/SVG/1.1/DTD/svg11.dtd" >
<svg xmlns="http://www.w3.org/2000/svg" xmlns:xlink="http://www.w3.org/1999/xlink" version="1.1" viewBox="0 -205 1024 1024">
  <g transform="matrix(1 0 0 -1 0 819)">
   <path fill="currentColor"
d="M508 451l36 -33h294l37 39l48 -47q7 -6 5 -10q-1 -5 -11 -7l-18 -9v-220l5 -76q4 -28 -47 -36v73h-299v-49q2 -35 -49 -44q5 37 7 146v222q-3 24 -20 40zM558 145h299v253h-299v-253zM229 51q-4 22 -19 32t-91 42l4 14q66 -18 91 -22q25 -5 52 0q27 4 49 29q44 45 49 152
q2 46 -4 92q-30 -32 -69 -68q-126 -122 -246 -159l-8 14q68 41 115 76t97 83q46 44 100 111q-11 42 -29 82q0 1 -1 2q0 2 -1 2q-33 -39 -66 -72q-86 -87 -189 -125l-8 14q52 34 85 61t74 69q37 38 82 96q-15 26 -34 54q-31 -23 -63 -41q-79 -46 -174 -75l-4 12q90 44 165 95
q75 53 117 90q85 75 70 91l8 6l53 -46q9 -8 9 -13q0 -4 -9 -5q-24 11 -61 -24q-49 -43 -94 -78q45 -54 70 -95q69 -124 59 -269q-7 -79 -28 -123q-40 -89 -151 -104zM677 814l29 -34q36 46 65 101h-244q-27 1 -45 -13l-34 33h440l32 40l68 -50q8 -5 7 -8q-2 -2 -13 -2h-156
q-25 -54 -75 -117l-27 -33v-197l4 -49q1 -39 -53 -44q5 39 7 102v143q-30 -29 -63 -56q-78 -64 -212 -128l-6 16q116 77 176 129q56 50 105 105v11q-4 23 -21 36zM343 990l51 -44q9 -9 9 -14t-9 -6q-16 8 -59 -10q-100 -46 -174 -67q-72 -21 -136 -31l-4 12q147 46 241 92
q91 43 73 62zM760 691l10 15q153 -53 201 -118q39 -61 -2 -77q-18 -3 -32 29q-13 32 -57 73q-42 41 -120 78zM80 795l8 11q77 -38 93 -79q18 -49 -14 -59q-16 -2 -20 19q-3 23 -15 45q-11 24 -52 63zM206 839l8 11q54 -15 84 -56q28 -49 -6 -60q-15 -1 -22 21q-6 24 -21 44
q-14 21 -43 40z" />
  </g>

</svg>
