<?xml version="1.0" standalone="no"?>
<!DOCTYPE svg PUBLIC "-//W3C//DTD SVG 1.1//EN" "http://www.w3.org/Graphics/SVG/1.1/DTD/svg11.dtd" >
<svg xmlns="http://www.w3.org/2000/svg" xmlns:xlink="http://www.w3.org/1999/xlink" version="1.1" viewBox="0 0 2048 2048">
  <g transform="matrix(1 0 0 -1 0 2048)">
   <path fill="currentColor"
d="M1547 1471q123 -124 156 -201q21 -48 15 -84q-9 -49 -50 -44q-37 5 -45 64q-19 134 -101 244zM1393 967q-53 -4 -98 -12l-43 95q48 -11 141 -18v564q0 71 -8 129l101 -61l18 -10q54 109 89 273l122 -51q39 -17 37 -38q-3 -26 -49 -29l-48 -3q-40 -85 -96 -152h182l68 76
l83 -54q41 -26 41 -48q0 -28 -78 -62v-536l65 69l79 -77q19 -19 15 -33q-5 -19 -26 -19h-133v-734q0 -141 -152 -170q-13 72 -44.5 92.5t-162.5 43.5l8 46q142 -23 189 -27q68 -5 68 57v692h-275v-15q0 -337 -42 -555q-30 -155 -150 -339l-30 20q91 203 112 446
q11 131 17 440zM1761 1027v569h-275v-569h275zM462 1364q-31 14 -39 34q-2 6 -14 48q-28 103 -132 198q-11 -5 -30 -14q-60 -27 -163 -51l-8 40q260 93 433 321l93 -63q37 -25 30 -43q-8 -20 -44 -17l-43 5q-122 -103 -231 -160q66 -46 106 -80q89 -78 89 -153v-16
q72 85 125 189l89 -48q42 -23 37 -47q-5 -22 -47 -22h-35q-126 -163 -259 -249q218 -289 218 -681q0 -284 -74 -397q-55 -83 -189 -104q-1 70 -42 94q-46 27 -117 44l10 38q178 -46 214 -40q69 12 90 139q17 101 17 226q0 101 -8 181q-191 -288 -454 -410l-20 35
q129 80 260 227q73 81 116 153q9 15 42 74q10 19 32 57q-18 71 -40 136q-165 -217 -404 -336l-18 32q248 173 380 409q-28 59 -48 101q-117 -69 -311 -129l-9 40q217 80 384 227zM121 1538q190 -136 177 -230q-6 -49 -46 -49q-37 0 -47 51q-19 99 -104 204zM930 1465
q114 -123 145 -200q19 -46 13 -83q-8 -50 -46 -44q-34 5 -42 64q-17 135 -93 242zM878 952q-9 -389 -39 -553q-29 -161 -139 -338l-28 20q79 187 98 377q19 179 22 475l-32 -9l-8 -37q-6 -26 -18 -30q-21 -7 -36 30l-52 124q63 8 146 21v548q0 22 -4 65t-6 83l96 -59l16 -10
q54 117 83 272l112 -51q37 -17 35 -38q-2 -25 -46 -28l-44 -3q-38 -87 -89 -152h168l63 76l77 -54q37 -26 37 -48q0 -29 -72 -61v-459l73 15l10 -35l-83 -33v-825q0 -140 -140 -169q-12 70 -43 92q-30 21 -149 44l8 45q125 -22 175 -26q63 -5 63 56v755l-121 -38zM878 1042
q129 21 254 49v510h-254v-559zM933 872q119 -125 150 -201q20 -48 14 -83q-9 -50 -48 -44q-35 4 -43 64q-18 130 -97 243zM1554 872q124 -124 156 -201q21 -48 15 -83q-9 -50 -50 -44q-37 4 -45 64q-19 132 -101 243z" />
  </g>

</svg>
