<?xml version="1.0" standalone="no"?>
<!DOCTYPE svg PUBLIC "-//W3C//DTD SVG 1.1//EN" "http://www.w3.org/Graphics/SVG/1.1/DTD/svg11.dtd" >
<svg xmlns="http://www.w3.org/2000/svg" xmlns:xlink="http://www.w3.org/1999/xlink" version="1.1" viewBox="0 0 2048 2048">
  <g transform="matrix(1 0 0 -1 0 2048)">
   <path fill="currentColor"
d="M1376 1263q-80 89 -154 217l41 18q77 -107 167 -186q133 133 210 339h-344q-76 -127 -197 -245l-28 26q156 213 236 511l137 -61q32 -14 33 -32q1 -25 -49 -31l-44 -5q-23 -45 -35 -67q-12 -21 -19 -38h367l91 98l120 -107q20 -17 16 -32q-4 -16 -37 -16h-126
q-70 -160 -125 -239q-63 -91 -130 -158q168 -103 459 -139v-40q-63 -5 -92 -20q-27 -13 -42 -48q-234 69 -384 186q-198 -119 -460 -181l-11 38q263 99 400 212zM1261 309q574 -72 595 -207q6 -42 -28 -56q-36 -15 -116 46q-140 106 -456 182zM1537 962l68 77l80 -54
q40 -27 40 -48q0 -27 -78 -62l-1 -284q0 -8 13 -189q3 -45 3 -54q0 -39 -49 -41q-60 -4 -60 42v10h-775l84 -50q38 -22 29 -43q-10 -21 -55 -17l-51 3q-160 -78 -283 -120q-146 -51 -358 -92l-12 38q411 113 597 281h-192v-15q0 -14 -20 -28q-19 -13 -51 -8q-42 5 -40 49
q1 17 4 46q11 104 11 210v405l103 -55zM537 420h1016v125h-1016v-125zM537 606h1016v123h-1016v-123zM537 788h1016v114h-1016v-114zM636 1496v-153q0 -106 13 -219q3 -29 3 -54q0 -38 -49 -42q-62 -4 -62 42v426h-237q-69 0 -149 -11l-39 86q126 -18 188 -18h237v226
q0 114 -8 159l109 -24q82 -18 85 -43q3 -26 -50 -44l-41 -13v-261h199l98 102l121 -105q20 -18 15 -35q-5 -19 -26 -19h-407zM347 1424l128 -73q37 -21 22 -48q-14 -23 -55 -11l-46 13q-127 -138 -251 -204l-24 25q114 100 226 298zM745 1421q282 -133 246 -257
q-10 -35 -43 -35q-25 0 -46 48q-49 116 -180 213zM224 1875q233 -126 233 -223q0 -49 -37 -53q-35 -3 -57 45q-58 127 -156 203zM725 1579l-20 25q117 141 181 296l109 -78q27 -19 22 -33q-6 -17 -34 -17l-42 1q-88 -105 -216 -194z" />
  </g>

</svg>
