<?xml version="1.0" standalone="no"?>
<!DOCTYPE svg PUBLIC "-//W3C//DTD SVG 1.1//EN" "http://www.w3.org/Graphics/SVG/1.1/DTD/svg11.dtd" >
<svg xmlns="http://www.w3.org/2000/svg" xmlns:xlink="http://www.w3.org/1999/xlink" version="1.1" viewBox="0 0 2048 2048">
  <g transform="matrix(1 0 0 -1 0 2048)">
   <path fill="currentColor"
d="M1074 1738v-121h464l90 92l129 -97q21 -16 16 -33q-6 -19 -26 -19h-1244q-116 0 -191 -8l-39 88q96 -23 230 -23h474v121h-653q-116 0 -191 -8l-38 88q94 -22 229 -22h653v28q0 83 -7 134l109 -25q82 -18 85 -43q4 -26 -50 -44l-40 -13v-37h649l95 91l122 -97
q20 -16 15 -33q-6 -19 -26 -19h-855zM1156 305q606 -70 628 -210q7 -45 -30 -60q-36 -16 -122 47q-161 119 -482 185zM1518 853l61 72l72 -49q37 -26 41 -44q6 -24 -68 -58v-224l7 -104q5 -95 5 -105q0 -43 -45 -43q-61 0 -61 28v19h-760l84 -50q38 -23 29 -44
q-10 -20 -55 -17l-51 4q-275 -128 -577 -183l-12 39q366 97 533 251h-196v-15q0 -44 -69 -37q-41 4 -39 50q1 14 3 45q9 106 9 173v348l102 -56h987zM525 405h1005v91h-1005v-91zM525 557h1005v93h-1005v-93zM525 709h1005v84h-1005v-84zM1619 983h-1186v-22q0 -33 -52 -33
q-60 0 -55 54l4 51l3 71l4 69v210q0 6 -4 67q-2 21 -3 64l115 -52h1161l65 65l80 -46q40 -23 40 -43q0 -23 -78 -55v-200q0 -21 4 -75q2 -32 4 -72q2 -36 4 -53q4 -43 -53 -50q-53 -7 -53 20v30zM704 1247q-84 -28 -254 -61l-17 28v-181h271v214zM726 1254l89 -53h431l39 53
q-57 3 -89 13q-69 21 -69 105v38h-232q-66 -111 -169 -156zM1316 1254l61 -45q40 -29 30 -49q-8 -18 -61 -47v-80h273v246q-45 -25 -159 -25q-44 1 -53 0q-51 -1 -54 -1q-24 1 -37 1zM1619 1317v93h-400v-23q0 -58 123 -58t202 16q23 5 38 4q21 -2 37 -32zM786 1410h-353
v-184q84 19 160 47q91 34 136 76q22 20 57 61zM1251 1033v113h-451v-113h451z" />
  </g>

</svg>
