<?xml version="1.0" standalone="no"?>
<!DOCTYPE svg PUBLIC "-//W3C//DTD SVG 1.1//EN" "http://www.w3.org/Graphics/SVG/1.1/DTD/svg11.dtd" >
<svg xmlns="http://www.w3.org/2000/svg" xmlns:xlink="http://www.w3.org/1999/xlink" version="1.1" viewBox="0 -205 1024 1024">
  <g transform="matrix(1 0 0 -1 0 819)">
   <path fill="currentColor"
d="M210 540l38 -37h496l37 39l46 -47q7 -6 5 -10q-1 -5 -11 -7l-18 -9v-183l5 -84q3 -26 -45 -35v29h-505v-7q4 -37 -47 -42q5 35 7 91v251q-3 24 -20 40zM99 912l33 -38h132v80q2 17 -25 42l8 11l78 -34q14 -5 6 -11q-16 -4 -27 -18v-70h118l27 25l40 -33q7 -6 5 -10
q-1 -5 -11 -7l-18 -9v-76l6 -33q-1 -30 -42 -31v24h-125v-114l133 12q-1 2 -3 4q-2 3 -3 4q-20 24 -56 50l6 14q116 -45 117 -104q-1 -19 -17 -22q-16 0 -23 19q-3 8 -8 16l-147 -19q-136 -15 -167 -20q-31 -4 -53 -28l-36 52l217 19v117h-126q-2 -16 -11 -23
q-10 -9 -32 -14q0 2 1 5q4 33 6 67v104q-3 22 -17 38zM865 996l55 -52q8 -10 -3 -14q-10 8 -28 8q-68 -16 -140 -30q1 -61 8 -109q1 -4 2 -13q2 -7 2 -10h112l25 37l62 -40q8 -6 7 -10q-2 -3 -13 -4h-190q6 -26 13 -44q14 -31 39 -66q26 -34 46 -51q21 -17 41 -28
q20 -10 30 16q10 53 20 90l14 -6q-12 -93 -5 -108t11 -28q1 -27 -72 -8q-33 11 -68 43q-35 33 -56 63q-21 32 -36 66q-10 27 -18 61h-148v-166q86 26 174 48l8 -13q-38 -15 -108 -42q-12 -5 -18 -7q-42 -18 -56 -29t-26 -29l-46 42q19 8 32 25v294q-3 20 -24 45l9 8l42 -35
q141 27 218 47q81 21 81 28q1 7 -7 11zM763 393h-505v-86h505v86zM763 291h-505v-76h505v76zM258 409h505v74h-505v-74zM709 901q-65 -10 -134 -19v-106h146q0 2 -1 4q-6 43 -11 121zM264 856h-126v-114h126v114zM304 742h125v114h-125v-114zM349 190l64 -47q7 -5 7 -9
q0 -3 -7 -5q-26 5 -50 -7q-24 -13 -105 -47q-80 -34 -193 -53l-2 16q101 30 193 74q93 43 92 53q0 10 -7 19zM597 150l4 15q124 -20 182 -39q59 -20 84 -36q49 -36 23 -68q-13 -8 -38 16t-80 50t-175 62z" />
  </g>

</svg>
