<?xml version="1.0" standalone="no"?>
<!DOCTYPE svg PUBLIC "-//W3C//DTD SVG 1.1//EN" "http://www.w3.org/Graphics/SVG/1.1/DTD/svg11.dtd" >
<svg xmlns="http://www.w3.org/2000/svg" xmlns:xlink="http://www.w3.org/1999/xlink" version="1.1" viewBox="0 0 2048 2048">
  <g transform="matrix(1 0 0 -1 0 2048)">
   <path fill="currentColor"
d="M1762 511h-649v-44q0 -60 -70 -54q-44 5 -42 50q1 18 4 45q12 105 12 210v619q-5 132 -11 206l123 -88h249v318q0 118 -7 160l109 -24q83 -18 85 -44q4 -29 -49 -43l-41 -11v-356h270l68 76l84 -54q40 -26 40 -49q0 -27 -79 -61v-641q0 -105 11 -219q3 -27 3 -54
q0 -39 -49 -42q-29 -2 -45 11q-16 12 -16 20v69zM1475 1397v-366h287v366h-287zM1762 569v405h-287v-405h287zM1113 1031h265v366h-265v-366zM1113 569h265v405h-265v-405zM553 382q231 -160 796 -160q166 0 367 12q137 7 278 22v-38q-83 -12 -102 -87q-150 -7 -372 -7
q-512 0 -750 66q-220 61 -336 199q-71 85 -160 254q-44 -219 -86 -333q-38 -105 -104 -228l-36 22q64 155 102 363q46 260 50 490l114 -26q60 -14 64 -34q5 -21 -40 -35l-34 -10q-11 -60 -15 -120q66 -133 167 -268v737h-152q-118 0 -191 -8l-35 87q105 -23 226 -23h163v303
h-106q-117 0 -192 -9l-35 89q108 -25 227 -25h106v157q0 115 -8 160l109 -24q82 -18 86 -44q3 -29 -50 -44l-40 -11v-194h102l96 104l119 -107q22 -19 17 -34q-6 -18 -26 -18h-308v-303h122l99 101l120 -107q21 -18 16 -34t-28 -16h-340v-353h117l100 101l120 -106
q21 -18 16 -35q-5 -19 -25 -19h-328v-407z" />
  </g>

</svg>
