<?xml version="1.0" standalone="no"?>
<!DOCTYPE svg PUBLIC "-//W3C//DTD SVG 1.1//EN" "http://www.w3.org/Graphics/SVG/1.1/DTD/svg11.dtd" >
<svg xmlns="http://www.w3.org/2000/svg" xmlns:xlink="http://www.w3.org/1999/xlink" version="1.1" viewBox="0 0 2048 2048">
  <g transform="matrix(1 0 0 -1 0 2048)">
   <path fill="currentColor"
d="M1451 863q29 -15 87 -53q160 97 259 210l84 -76q34 -31 34 -44q0 -18 -19 -21q-10 -1 -32 2l-47 7q-26 -11 -88 -43q-23 -12 -119 -52l-30 -12q310 -217 310 -344q0 -19 -9 -35q-15 -23 -41 -21q-33 2 -73 76q-96 179 -316 359v-366q0 -143 -154 -171q-12 70 -48 93
q-32 21 -159 43l8 46q139 -22 190 -27q68 -5 68 57v672h-235v-23q0 -21 -45 -23q-35 -2 -51 14q-8 8 -8 40l1 29q6 114 6 198l1 240l-4 82l-3 47l120 -79h79q53 81 121 276l122 -55q37 -17 36 -38q-2 -25 -48 -28l-48 -3q-38 -62 -113 -152h400l68 76l83 -54q40 -26 40 -49
q0 -30 -72 -58v-188q0 -120 7 -205q3 -30 1 -51q-3 -48 -66 -44q-41 3 -41 25v23h-256v-300zM1121 1218h586v178h-586v-178zM1121 1454h586v176h-586v-176zM535 399q120 -82 259 -120q205 -56 514 -56q207 0 409 11q137 7 278 22v-38q-53 -10 -73 -28q-19 -19 -29 -59
q-296 -13 -621 -4q-502 15 -716 157q-90 59 -165 168q-29 43 -127 218q-63 -324 -190 -561l-36 22q64 146 103 365q44 249 49 490l114 -28q60 -15 64 -35q6 -22 -40 -36l-34 -10q-8 -57 -15 -118q65 -134 159 -264v683h-113q-119 0 -192 -8l-35 87q105 -23 227 -23h121v303
h-84q-120 0 -191 -8l-36 88q106 -26 227 -26h84v181q0 106 -8 160l109 -24q82 -19 85 -44q4 -26 -49 -44l-40 -13v-216h60l86 95l119 -95q21 -17 16 -35q-5 -19 -24 -19h-257v-303h119l98 100l121 -106q20 -18 15 -34t-27 -16h-334v-330h57l100 102l119 -107q21 -19 17 -35
q-6 -19 -26 -19h-267v-390zM1156 879h-95q-72 -1 -149 -11l-39 86q124 -18 188 -18h95l62 63l67 -48q38 -26 38 -45q0 -18 -34 -34l-29 -14q-88 -206 -174 -307q-89 -104 -210 -185l-21 25q227 216 301 488z" />
  </g>

</svg>
