<?xml version="1.0" standalone="no"?>
<!DOCTYPE svg PUBLIC "-//W3C//DTD SVG 1.1//EN" "http://www.w3.org/Graphics/SVG/1.1/DTD/svg11.dtd" >
<svg xmlns="http://www.w3.org/2000/svg" xmlns:xlink="http://www.w3.org/1999/xlink" version="1.1" viewBox="0 0 2048 2048">
  <g transform="matrix(1 0 0 -1 0 2048)">
   <path fill="currentColor"
d="M1677 852q35 -43 120 -166q124 -182 133 -298q2 -28 -9 -50q-14 -31 -46 -29q-45 3 -59 92q-28 173 -149 387q-56 -316 -313 -502l-22 32q156 163 210 315q71 202 68 594l118 -19q45 -8 45 -32q0 -19 -30 -32l-40 -18q-12 -161 -26 -274zM1336 1696l131 -59
q31 -13 29 -30q-2 -19 -29 -23l-58 -8q-73 -116 -160 -193l-30 21q71 139 117 292zM1012 1677q86 -68 114 -99q67 -76 53 -140q-11 -51 -55 -43q-26 4 -34 34q-1 5 -8 47q-11 61 -97 178zM836 1878l106 -72h796l103 100l116 -105q20 -18 15 -33q-5 -18 -26 -18h-1012v-364
q0 -353 -32 -598q-33 -258 -144 -442l-30 18q69 195 83 320q18 154 23 419l3 144l-1 147v484zM497 789v-383q110 -98 254 -132q214 -52 519 -52q207 0 408 12q148 7 278 22v-38q-51 -8 -72 -28q-19 -19 -30 -59q-214 -10 -592 -1q-282 6 -449 40q-233 49 -375 183
q-54 52 -115 147l-39 60q-19 30 -37 58q-11 -89 -66 -260q-44 -136 -100 -238l-36 22q71 180 100 393q32 247 37 451l114 -28q60 -15 64 -35q6 -24 -40 -36l-34 -9q-8 -57 -15 -119l-11 -67q17 -29 138 -199l2 685l-100 1l-80 -4q-48 0 -88 -5l-34 87q139 -21 198 -22
l122 -1v303h-73q-100 0 -168 -10l-35 89q124 -25 203 -25h73v181q0 117 -8 160l110 -23q79 -16 79 -53q0 -27 -42 -37l-45 -12v-216h35l80 95l119 -95q20 -16 16 -35q-5 -19 -24 -19h-223v-303l74 1l88 88l112 -95q20 -17 15 -34q-5 -16 -27 -16h-280v-329h98l76 80l95 -84
q23 -20 23 -38q-1 -17 -33 -17zM1228 735q-53 -263 -269 -421l-23 27q81 95 115 155q58 102 87 239h-84q-13 -7 -38 -7q-37 0 -37 47v247q0 120 -7 159l106 -26q55 -13 59 -36q3 -24 -44 -42l-30 -11v-275h85q13 100 13 255v245h-13q-109 -4 -156 -9l-37 89q97 -24 193 -24
h178l71 62l91 -74q5 -4 7 -7q10 -11 5 -24t-18 -13h-228v-245q-6 -163 -14 -233l-3 -22h92v231q0 111 -6 159l119 -36q43 -13 47 -33q5 -26 -34 -38l-42 -14l1 -226q2 -46 7 -109v-21q0 -43 -55 -39q-18 2 -31 11q-6 4 -6 36v23h-101zM1625 1365h195l58 66l87 -70
q35 -28 36 -44q2 -21 -37 -29l-48 -10q-46 -92 -112 -191l-26 17q31 115 42 205h-212q-27 -79 -93 -186l-32 14q51 141 71 290q6 45 18 221l94 -19q59 -11 69 -30q14 -29 -27 -41l-45 -15q-10 -40 -23 -107q-9 -44 -15 -71z" />
  </g>

</svg>
