<?xml version="1.0" standalone="no"?>
<!DOCTYPE svg PUBLIC "-//W3C//DTD SVG 1.1//EN" "http://www.w3.org/Graphics/SVG/1.1/DTD/svg11.dtd" >
<svg xmlns="http://www.w3.org/2000/svg" xmlns:xlink="http://www.w3.org/1999/xlink" version="1.1" viewBox="0 -205 1024 1024">
  <g transform="matrix(1 0 0 -1 0 819)">
   <path fill="currentColor"
d="M226 576l78 -34q14 -5 6 -11q-17 -4 -29 -18v-123h66l28 38l62 -44q8 -6 7 -9q-2 -3 -13 -3h-150v-205l9 -6q80 -53 184 -58t218 -5h184h75q28 0 50 -1v-16q-52 -3 -69 -7q-16 -5 -24 -18q-364 2 -431 7q-67 4 -118 21q-51 16 -112 66q-52 41 -105 146q-7 -48 -19 -87
q-26 -89 -94 -170l-10 10q88 147 97 328q4 71 1 83q-1 12 -15 27l6 7l70 -24q17 -9 8 -13q-21 -1 -32 -18q-2 -58 -8 -108q48 -83 99 -133v325q2 17 -27 42zM457 926h400l28 36l64 -44q8 -5 7 -8q-2 -2 -13 -2h-236v-97h223l19 29l49 -40q2 -7 0 -9q-3 -2 -10 0
q-15 -2 -31 -20l-9 -9q-9 -9 -29 -41l-15 4l24 68h-221v-156l2 -57q4 -37 -45 -44q5 38 7 126v131h-187q-1 -4 -1 -7q0 -34 -25 -61q-24 -23 -40 -4q-9 13 10 31q38 38 39 95h15q0 -6 1 -18q0 -12 1 -18h187v97h-135q-27 1 -45 -13zM623 523l25 -28h70l19 25l32 -23
q7 -6 5 -10q-1 -5 -11 -7l-12 -13v-202l2 -45q0 -30 -32 -30v51h-63v-25q5 -38 -37 -43q5 36 7 97v210q-3 22 -17 32zM453 523l25 -28h70l19 25l32 -23q7 -6 5 -10q-1 -5 -11 -7l-12 -13v-202l2 -45q0 -30 -32 -30v51h-63v-25q5 -38 -37 -43q5 36 7 95v212q-3 22 -17 32z
M797 523l25 -28h70l19 25l32 -23q7 -6 5 -10q-1 -5 -11 -7l-12 -13v-202l2 -45q0 -30 -32 -30v51h-63v-25q5 -38 -37 -43q5 36 7 95v212q-3 22 -17 32zM87 790h158v139q2 17 -27 42l8 11l78 -34q14 -5 6 -11q-17 -4 -29 -18v-129h42l26 34l62 -42q8 -5 7 -8q-2 -2 -13 -2
h-124v-168h70l26 36l62 -44q8 -5 7 -8q-2 -2 -13 -2h-299q-27 1 -45 -13l-34 31h190v168h-79q-27 1 -45 -13zM488 257h63v222h-63v-222zM658 257h63v222h-63v-222zM832 257h63v222h-63v-222zM756 701h140v-18h-140v18zM486 605h140v-18h-140v18zM756 605h140v-18h-140v18z
M486 701h140v-18h-140v18z" />
  </g>

</svg>
