<?xml version="1.0" standalone="no"?>
<!DOCTYPE svg PUBLIC "-//W3C//DTD SVG 1.1//EN" "http://www.w3.org/Graphics/SVG/1.1/DTD/svg11.dtd" >
<svg xmlns="http://www.w3.org/2000/svg" xmlns:xlink="http://www.w3.org/1999/xlink" version="1.1" viewBox="0 -120 1000 1000">
  <g transform="matrix(1 0 0 -1 0 880)">
   <path fill="currentColor"
d="M315 167v345l80 -11q15 -2 15 -15q0 -10 -13 -15l-19 -7v-285l101 26v413h-96v-48l-63 -13v342l74 -32h233l24 34l60 -40q12 -7 12 -16q0 -8 -16 -13l-11 -4v-234l-62 -13v37h-90v-184h89l38 52l62 -60v-18h-189v-190l207 45l3 -20l-430 -136l-3 -14q-2 -14 -10 -14
q-6 0 -16 14l-42 62zM383 645h251v195h-251v-195z" />
  </g>

</svg>
