<?xml version="1.0" standalone="no"?>
<!DOCTYPE svg PUBLIC "-//W3C//DTD SVG 1.1//EN" "http://www.w3.org/Graphics/SVG/1.1/DTD/svg11.dtd" >
<svg xmlns="http://www.w3.org/2000/svg" xmlns:xlink="http://www.w3.org/1999/xlink" version="1.1" viewBox="0 -205 1024 1024">
  <g transform="matrix(1 0 0 -1 0 819)">
   <path fill="currentColor"
d="M118 969l39 -46h184l35 41l52 -49q7 -6 5 -10q-1 -5 -11 -7l-18 -9v-176l4 -60q7 -40 -50 -44v50h-71v-201h86l32 40l68 -48q8 -6 7 -9q-2 -3 -13 -3h-180v-226l169 53l8 -16l-254 -97q-94 -36 -113 -48t-31 -38l-56 60l93 28v323q2 17 -27 42l8 11l84 -34q14 -5 6 -11
q-17 -4 -29 -18v-300l96 31v461h-74v-21q2 -37 -53 -46q5 39 7 135v188q-4 24 -18 42zM878 987l72 -64q5 -8 3 -11q-2 -4 -12 -3q-35 10 -98 -9q-11 -3 -17 -5q-40 -12 -103 -25q-57 -12 -129 -18v-181q0 -19 1 -36h302l31 40l64 -46q11 -8 8 -11q-2 -4 -19 -3h-158v-474
l2 -56q2 -36 -55 -46q5 39 7 147v429h-182q0 -195 -37 -332q-42 -153 -180 -249l-6 20q119 117 148 258q30 143 28 369v178q-4 32 -18 54l18 8l38 -50q61 11 140 33q82 23 104 34q23 11 30 18q9 8 8 26zM167 679h191v224h-191v-224z" />
  </g>

</svg>
