<?xml version="1.0" standalone="no"?>
<!DOCTYPE svg PUBLIC "-//W3C//DTD SVG 1.1//EN" "http://www.w3.org/Graphics/SVG/1.1/DTD/svg11.dtd" >
<svg xmlns="http://www.w3.org/2000/svg" xmlns:xlink="http://www.w3.org/1999/xlink" version="1.1" viewBox="0 0 2048 2048">
  <g transform="matrix(1 0 0 -1 0 2048)">
   <path fill="currentColor"
d="M500 366q91 24 246 81l12 -38q-235 -132 -560 -235l-6 -30q-3 -21 -10 -29q-16 -21 -34 -2q-6 6 -15 24l-63 123q26 2 94 15v642q0 69 -7 112l118 -28q51 -13 51 -35q0 -20 -32 -33l-41 -16v-622q67 15 151 41v908h-158v-47q0 -27 -45 -31q-66 -5 -60 51q9 95 10 146
l6 309q1 84 -8 190l97 -71h350l57 67l72 -50q36 -25 41 -44q6 -23 -37 -45q-2 -1 -17 -9q-5 -3 -14 -8v-376l40 -30q16 -12 18 -22q6 -30 -18 -30h-238v-364h74l88 88l123 -94q12 -10 15 -20q3 -12 -4.5 -22t-18.5 -10h-277v-456zM246 1302h360v433h-360v-433zM1330 1659
q-21 14 -40 74q-31 100 -134 189l22 26q205 -119 217 -229q5 -36 -23 -60h396l59 66l89 -70q35 -27 36 -44q2 -22 -37 -29l-49 -10q-51 -67 -124 -140l-27 17q31 67 59 154h-804q-2 -74 -26 -125q-38 -82 -98 -82q-26 0 -42 21q-13 16 -10 36q4 24 36 48q99 70 101 237l37 1
l2 -80h360zM1528 913l-1 -632q0 -52 28 -60.5t194 -8.5q84 0 89 145q4 89 10 168l40 -2q1 -55 2 -83q2 -67 1 -87q-1 -72 15 -97q6 -10 42 -35q14 -10 15 -31q3 -37 -47 -53q-64 -20 -129 -20l-108 1l-85 -2q-162 0 -162 117v680h-188q-6 -50 -19 -192q-9 -96 -61 -224
q-101 -247 -405 -413l-20 31q239 181 323 375q67 158 79 423h-99q-119 0 -192 -8l-38 88q99 -23 230 -23h627l98 102l121 -107q20 -18 15 -33q-6 -19 -25 -19h-350zM1502 1309l98 101l121 -107q20 -18 15 -33q-5 -19 -25 -19h-509q-117 0 -192 -8l-38 89q96 -23 230 -23h300
z" />
  </g>

</svg>
