<?xml version="1.0" standalone="no"?>
<!DOCTYPE svg PUBLIC "-//W3C//DTD SVG 1.1//EN" "http://www.w3.org/Graphics/SVG/1.1/DTD/svg11.dtd" >
<svg xmlns="http://www.w3.org/2000/svg" xmlns:xlink="http://www.w3.org/1999/xlink" version="1.1" viewBox="0 -205 1024 1024">
  <g transform="matrix(1 0 0 -1 0 819)">
   <path fill="currentColor"
d="M81 511l80 -34q14 -5 6 -11q-17 -4 -29 -18v-301l88 27v470h-78v-21q2 -37 -49 -46q5 39 7 135v180q-4 24 -18 42l15 12l36 -46h183l35 41l52 -49q7 -6 5 -10q-1 -5 -11 -7l-18 -9v-168l4 -52q6 -39 -46 -44v42h-75v-201h74l32 40l68 -48q8 -6 7 -9q-2 -3 -13 -3h-168
v-236l145 47l8 -16l-214 -83q-84 -38 -104 -50t-32 -38l-56 60l85 28v323q2 17 -27 42zM486 868l36 -38h349l39 39l46 -47q7 -6 5 -10q-1 -5 -11 -7l-18 -9v-178l3 -13q0 -32 -45 -33v46h-354q-1 -252 -41 -383q-43 -136 -137 -214l-6 16q65 78 102 195q38 120 40 408v178
q-10 24 -25 39zM536 638h354v172h-354v-172zM714 571l80 -34q14 -5 6 -11q-16 -4 -27 -18v-157h74l32 40l68 -50q8 -4 7 -7q-2 -2 -13 -3h-168v-225h120l32 40l68 -50q8 -5 7 -8q-2 -2 -13 -2h-443q-27 1 -45 -13l-34 33h128v264q2 17 -25 42l8 11l76 -34q14 -5 6 -11
q-16 -4 -27 -18v-254h100v412q2 17 -25 42zM148 664h195v216h-195v-216zM597 987l8 13q102 -41 121 -89q22 -55 -18 -59q-18 0 -22 23q-3 24 -21 50q-17 27 -68 62z" />
  </g>

</svg>
