<?xml version="1.0" standalone="no"?>
<!DOCTYPE svg PUBLIC "-//W3C//DTD SVG 1.1//EN" "http://www.w3.org/Graphics/SVG/1.1/DTD/svg11.dtd" >
<svg xmlns="http://www.w3.org/2000/svg" xmlns:xlink="http://www.w3.org/1999/xlink" version="1.1" viewBox="0 0 2048 2048">
  <g transform="matrix(1 0 0 -1 0 2048)">
   <path fill="currentColor"
d="M1114 1745q132 -84 176 -123q81 -72 81 -140q0 -57 -50 -57q-37 0 -60 55q-50 122 -167 220q-57 -102 -102 -161q-62 -79 -186 -190l-29 29q122 146 184 270q60 119 100 292l139 -50q37 -13 40 -32q3 -28 -43 -35l-52 -7q-15 -37 -31 -71zM1709 1730q96 -63 150 -107
q112 -92 112 -175q0 -23 -15 -40t-35 -17q-36 0 -59 53q-49 114 -177 237q-49 -86 -93 -144q-58 -76 -185 -189l-29 28q122 146 183 270t101 292l139 -50q36 -13 39 -32q3 -28 -43 -34l-52 -8q-13 -34 -36 -84zM1708 1255q101 -67 150 -107q112 -94 112 -175q0 -23 -15 -40
t-36 -17q-36 0 -59 53q-49 114 -177 237q-47 -83 -87 -136q-51 -67 -158 -160l-30 30q112 141 171 272q47 105 81 251l139 -50q36 -13 39 -32q4 -28 -43 -34l-52 -8q-11 -29 -30 -71zM1114 1267q134 -84 176 -122q81 -72 81 -141q0 -57 -50 -57q-37 0 -60 56q-30 74 -68 123
q-30 39 -99 97q-64 -115 -114 -176.5t-141 -136.5l-29 30q112 140 170 271q47 105 81 251l139 -49q37 -13 40 -32q3 -28 -43 -35l-52 -7q-15 -37 -31 -72zM950 906l116 -75h651l61 71l74 -49q34 -23 39 -44q5 -20 -25 -37q-6 -4 -13 -7q-9 -4 -26 -14l-1 -498q0 -44 8 -104
q3 -25 3 -44q0 -41 -57 -49q-47 -6 -48 25l-1 78h-676v-84q0 -27 -44 -31q-65 -5 -60 51l4 42q6 98 6 104v544q-2 60 -11 121zM1055 529h676v248h-676v-248zM1055 211h676v264h-676v-264zM508 362q98 27 234 78l11 -38q-208 -119 -547 -232l-6 -29q-3 -22 -10 -30
q-16 -22 -35 -2q-5 5 -15 24l-62 121q33 3 94 17v627q0 69 -7 112l118 -29q53 -13 51 -36q-1 -23 -32 -33l-41 -14v-607q67 15 151 41v918h-170v-50q0 -27 -44 -30q-65 -5 -61 51l4 42l3 55q3 47 3 49v304q0 21 -7 195l95 -72h381l57 67l72 -49q36 -25 41 -45q6 -23 -37 -45
q-3 -1 -17 -8q-5 -3 -14 -8v-376l40 -28q15 -11 18 -22q6 -30 -18 -30h-250v-389h55l88 88l123 -94q12 -10 15 -20q7 -32 -23 -32h-258v-441zM242 1325h380v414h-380v-414z" />
  </g>

</svg>
