<?xml version="1.0" standalone="no"?>
<!DOCTYPE svg PUBLIC "-//W3C//DTD SVG 1.1//EN" "http://www.w3.org/Graphics/SVG/1.1/DTD/svg11.dtd" >
<svg xmlns="http://www.w3.org/2000/svg" xmlns:xlink="http://www.w3.org/1999/xlink" version="1.1" viewBox="0 0 2048 2048">
  <g transform="matrix(1 0 0 -1 0 2048)">
   <path fill="currentColor"
d="M1653 1051q96 60 162 136l63 -51q45 -38 37 -58q-5 -11 -19 -13q-9 -1 -24 1l-37 5q-72 -32 -132 -51q108 -77 134 -157q8 -26 -4 -51q-9 -21 -31 -26q-31 -9 -57 26q-4 5 -43 67q-46 74 -128 140q-74 61 -124 83l15 36q90 -34 188 -87zM719 1695l95 -23q67 -16 72 -45
q4 -25 -51 -43l-40 -14v-33h120l66 63l99 -69q21 -14 16 -33q-6 -19 -34 -19h-267v-91h157l74 64l95 -69q21 -16 15 -34q-5 -18 -25 -18h-150l48 -20q24 -9 23 -24q-1 -16 -32 -19l-39 -3q-41 -38 -82 -72h56l72 64l94 -69q22 -16 16 -34q-5 -15 -28 -15h-294v-106h165
l76 74l102 -80q21 -16 16 -33q-6 -20 -26 -20h-333v-122q0 -46 -52 -46q-40 0 -40 34v134h-140q-69 0 -148 -10l-40 86q128 -18 188 -18l140 1v106h-104q-69 0 -149 -11l-39 86q39 -6 197 -21q-24 70 -95 138q-11 -4 -37 -5q-5 0 -50 -6l-40 86q122 -18 188 -18h129v91h-97
q-68 0 -149 -11l-39 86q122 -18 188 -18l97 1v24q0 88 -8 134h-329v-612q0 -388 -45 -589q-44 -194 -179 -386l-36 27q105 187 136 417q30 230 30 513v573q0 62 -14 186l118 -72h654q-12 14 -17 35q-19 81 -94 167l24 23q171 -108 162 -183q-3 -20 -27 -42h655l99 102
l120 -107q21 -18 16 -33q-6 -19 -26 -19h-1223zM886 1331h-307q21 -12 31 -18q52 -30 61 -59q8 -30 -21 -61h177q40 79 59 138zM1490 758l61 71l72 -49q37 -25 41 -44q5 -20 -25 -37q-6 -4 -13 -7q-9 -4 -26 -14v-64l40 -27q28 -19 26 -43q-1 -18 -18 -18h-488v-110h419
l80 80l114 -86q21 -16 16 -33q-6 -19 -26 -19l-603 2v-165q158 -8 367 -8q94 0 338 29l26 3v-38q-65 -15 -81 -77q-133 -6 -157 -6q-560 0 -720 51q-133 42 -255 149q-106 -116 -218 -175q-56 -29 -165 -60l-12 34q146 67 231 148q98 91 154 229l114 -42q29 -10 28 -26
q-1 -21 -33 -28l-46 -10l-22 -32q140 -110 357 -133v323h-342v-11q0 -21 -46 -26q-58 -7 -55 42q6 87 6 139v11q0 59 -7 152l128 -75h740zM724 583h783v118h-783v-118zM1168 1663l117 -89h381l68 76l83 -54q40 -26 40 -49q0 -27 -77 -61v-112q0 -34 6 -117q2 -27 2 -44
q0 -65 -74 -53q-31 4 -31 24l1 17h-407v-243q100 15 224 51l17 -35q-74 -51 -233 -126q-2 -10 -2 -15q-8 -45 -22 -50q-20 -6 -44 45l-52 108l17 4v584q0 72 -14 139zM1277 1420h407v96h-407v-96zM1277 1364v-106h407v106h-407z" />
  </g>

</svg>
