<?xml version="1.0" standalone="no"?>
<!DOCTYPE svg PUBLIC "-//W3C//DTD SVG 1.1//EN" "http://www.w3.org/Graphics/SVG/1.1/DTD/svg11.dtd" >
<svg xmlns="http://www.w3.org/2000/svg" xmlns:xlink="http://www.w3.org/1999/xlink" version="1.1" viewBox="0 0 2048 2048">
  <g transform="matrix(1 0 0 -1 0 2048)">
   <path fill="currentColor"
d="M1216 1686q45 94 75 237l123 -41q33 -11 33 -33q0 -20 -33 -28l-47 -11q-44 -70 -95 -124h417l61 72l72 -50q37 -25 42 -43q5 -21 -26 -38q-6 -3 -13 -7q-9 -4 -26 -14v-389q0 -69 3 -118q7 -87 1 -104q-12 -40 -73 -33q-31 4 -31 31v45h-597v-45q0 -37 -61 -37
q-45 0 -45 54q1 30 6 122q3 58 3 96v393q-1 74 -11 141l116 -76h106zM1102 1091h597v245h-597v-245zM1102 1394h597v236h-597v-236zM956 744l-39 86q27 -4 40 -6q87 -13 148 -13h571l98 101l121 -107q20 -17 15 -32q-5 -18 -25 -18h-443v-248h181l99 101l120 -107
q21 -18 16 -34q-6 -19 -26 -19h-390v-260h305l98 101l121 -107q21 -18 16 -33q-6 -19 -26 -19h-940q-66 0 -149 -11l-39 86q122 -17 188 -17h326v260h-184q-69 0 -149 -11l-39 86q112 -16 188 -16h184v248h-237q-70 0 -149 -11zM305 1675h10q67 92 115 244l120 -45
q30 -12 30 -31q0 -23 -32 -26l-52 -5q-64 -86 -130 -137h268l68 76l84 -54q40 -26 40 -49q0 -27 -78 -61h-1v-637q19 34 52 101l123 -66q32 -17 27 -38q-5 -19 -36 -19h-57q-71 -100 -109 -147v-550q0 -142 -159 -171q-2 67 -43 94q-33 21 -159 43l8 46q135 -22 189 -27
q68 -5 68 57v406q-274 -281 -599 -443l-19 36q342 191 618 534v12q-164 -68 -487 -164l-13 -45q-8 -30 -24 -29q-16 2 -33 36l-61 126q51 5 143 19l23 3v825q0 87 -14 177zM487 1618v-1h-194v-219l358 1v219h-164zM651 1342l-358 -1v-217l358 1v217zM651 1067h-358v-287
q172 35 358 92v195z" />
  </g>

</svg>
