<?xml version="1.0" standalone="no"?>
<!DOCTYPE svg PUBLIC "-//W3C//DTD SVG 1.1//EN" "http://www.w3.org/Graphics/SVG/1.1/DTD/svg11.dtd" >
<svg xmlns="http://www.w3.org/2000/svg" xmlns:xlink="http://www.w3.org/1999/xlink" version="1.1" viewBox="0 0 2048 2048">
  <g transform="matrix(1 0 0 -1 0 2048)">
   <path fill="currentColor"
d="M779 792h-219v-252h190l98 102l121 -107q20 -18 15 -33q-6 -19 -26 -19h-398v-110q0 -107 12 -219q3 -29 3 -54q0 -39 -49 -42q-62 -4 -62 42v383h-174q-117 0 -192 -8l-38 88q96 -23 230 -23h174v252h-205v-24q0 -37 -52 -37q-60 0 -56 60l4 57l4 79l4 76v320
q0 89 -14 177l122 -91h193v198h-162q-118 0 -192 -8l-38 88q96 -22 230 -22h162v122q0 114 -8 159l109 -24q82 -18 85 -43q4 -26 -50 -44l-40 -13v-157h160l98 101l121 -107q20 -18 15 -33q-5 -19 -25 -19h-369v-198h199l68 77l83 -55q40 -26 40 -48q0 -27 -77 -62v-310
q0 -24 3 -85q3 -38 5 -79q1 -41 3 -59q5 -53 -63 -59q-42 -3 -42 26v37zM779 852v229h-219v-229h219zM779 1141v211h-219v-211h219zM464 852v229h-205v-229h205zM464 1141v211h-205v-211h205zM1485 930q-265 -58 -373 -71l-7 -29q-7 -28 -22 -31q-16 -2 -25 22l-46 125
q232 371 359 716h-239q-69 0 -132 -10l-35 81q24 -4 36 -5q80 -12 131 -12h614l86 102l128 -104q20 -17 6 -41q-6 -11 -22 -11h-528l70 -32q38 -18 38 -36q0 -21 -31 -27l-14 -2q-10 -1 -30 -5q-160 -329 -376 -614q169 8 441 37q97 180 141 321l102 -41q48 -19 57 -35
q8 -14 -7.5 -27t-39.5 -13l-41 -1q-162 -326 -329 -530q-139 -170 -342 -344q213 3 738 50q-64 133 -147 229l27 26q270 -245 288 -396q6 -55 -45 -66q-39 -8 -57 44q-8 21 -45 117q-327 -63 -721 -104l-12 -46q-7 -24 -23 -23t-30 30l-62 136q97 76 219 214
q171 192 300 406z" />
  </g>

</svg>
