<?xml version="1.0" standalone="no"?>
<!DOCTYPE svg PUBLIC "-//W3C//DTD SVG 1.1//EN" "http://www.w3.org/Graphics/SVG/1.1/DTD/svg11.dtd" >
<svg xmlns="http://www.w3.org/2000/svg" xmlns:xlink="http://www.w3.org/1999/xlink" version="1.1" viewBox="0 0 2048 2048">
  <g transform="matrix(1 0 0 -1 0 2048)">
   <path fill="currentColor"
d="M742 758h-193v-244h160l99 101l120 -107q21 -18 16 -33q-6 -19 -26 -19h-369v-84q0 -105 13 -219q3 -28 3 -53q0 -39 -49 -42q-62 -4 -62 42v356h-155q-119 0 -192 -8l-38 88q99 -22 230 -22h155v244h-194v-24q0 -37 -52 -37q-59 0 -55 59l4 57l3 80l4 76v320
q0 74 -10 162l118 -76h182v217h-132q-117 0 -192 -8l-38 88q96 -23 230 -23h132v134q0 114 -8 159l109 -24q82 -18 85 -43q4 -26 -50 -44l-41 -13v-169h172l99 102l120 -107q21 -18 16 -33q-6 -19 -26 -19h-381v-217h173l68 76l73 -49q48 -32 51 -54q2 -25 -78 -61v-310
q0 -22 4 -85q2 -32 4 -80q1 -39 3 -58q5 -54 -63 -59q-42 -4 -42 25v38zM742 818v229h-193v-229h193zM742 1107v211h-193v-211h193zM454 818v229h-194v-229h194zM454 1107v211h-194v-211h194zM1610 625l116 16l68 97l133 -87q16 -10 16 -27q0 -20 -25 -23l-308 -37v-194
q0 -105 12 -209q3 -28 3 -54q0 -39 -49 -42q-63 -4 -63 42v446l-361 -43q-35 -4 -134 -24l-56 77q75 -1 152 8l399 45v620q0 115 -8 160l109 -24q83 -19 86 -44q3 -29 -50 -44l-40 -11v-648zM1391 1954l137 -46q49 -17 47 -34q-3 -16 -28 -23l-44 -12q107 -189 244 -315
q128 -117 250 -155l-7 -34q-73 0 -119 -62q-141 108 -230 227q-67 90 -179 325q-160 -357 -522 -578l-20 35q203 169 298 307q108 155 173 365zM1144 1310q52 -21 79 -31q227 -83 219 -169q-4 -43 -40 -47q-29 -3 -47 21q-4 5 -30 45q-37 56 -196 154zM1030 1009
q150 -69 202 -105q55 -39 76 -65q24 -30 21 -72q-5 -52 -47 -49q-31 1 -61 56q-43 81 -210 208z" />
  </g>

</svg>
