<?xml version="1.0" standalone="no"?>
<!DOCTYPE svg PUBLIC "-//W3C//DTD SVG 1.1//EN" "http://www.w3.org/Graphics/SVG/1.1/DTD/svg11.dtd" >
<svg xmlns="http://www.w3.org/2000/svg" xmlns:xlink="http://www.w3.org/1999/xlink" version="1.1" viewBox="0 0 2048 2048">
  <g transform="matrix(1 0 0 -1 0 2048)">
   <path fill="currentColor"
d="M1090 1146v109q0 120 -8 160l110 -24q82 -18 85 -44q3 -29 -43 -41l-48 -13v-147h408v110q0 118 -7 160l109 -24q82 -18 86 -44q3 -27 -50 -43l-39 -13l-1 -74v-72h48l98 101l112 -99q31 -27 27 -41q-6 -19 -28 -19h-257v-125q0 -47 6 -104q3 -27 3 -43q0 -42 -56 -49
q-47 -7 -48 24l-3 297h-408v-114q0 -47 7 -104q3 -26 3 -43q0 -41 -56 -49q-48 -7 -48 24l-2 286h-28q-58 0 -147 -8l-38 88q93 -22 185 -22h28zM1092 721h592l69 76l83 -54q40 -26 40 -49q0 -26 -77 -61l-1 -412l36 -19q37 -20 30 -45q-3 -15 -15 -15h-765v-24
q0 -46 -69 -41q-44 3 -42 49q1 18 4 46q12 100 12 209v282l-8 143zM1084 200h615v463h-615v-463zM563 1079h102l82 83l122 -88q20 -15 16 -34q-4 -18 -26 -18h-351l-1 -158q-4 -89 -10 -166h108l81 83l123 -89q19 -14 15 -33t-25 -19h-309q-53 -355 -374 -570l-22 27
q136 122 205 239q77 132 100 304h-77q-117 0 -192 -8l-38 88q95 -22 230 -22h82q7 84 7 166v158h-118q-119 0 -192 -8l-38 88q99 -23 230 -23h40q-17 18 -19 46q-17 232 -121 456q-46 -3 -71 -5l-38 88q96 -23 230 -23h171q-14 11 -17 34q-20 143 -105 251l25 21
q161 -133 161 -245q0 -37 -32 -61h143l81 84l122 -89q20 -14 16 -33t-26 -19h-184l112 -46q25 -10 29 -26q5 -30 -44 -36l-50 -4q-66 -248 -153 -393zM639 1584h-325q-46 0 -74 -1q166 -290 166 -416q0 -60 -23 -88h129q6 17 18 44q64 148 105 439zM1027 1576l-39 88
q100 -23 230 -23l128 1l-1 112q-1 127 -7 160l109 -24q83 -18 86 -43q3 -30 -50 -44l-42 -11v-150h194l100 99l120 -108q22 -20 16 -33q-6 -15 -42 -15l-388 -1v-135q0 -15 3 -49q6 -59 4 -75q-3 -35 -44 -44q-29 -7 -49 8q-9 7 -9 20v275h-128q-117 0 -191 -8z" />
  </g>

</svg>
