<?xml version="1.0" standalone="no"?>
<!DOCTYPE svg PUBLIC "-//W3C//DTD SVG 1.1//EN" "http://www.w3.org/Graphics/SVG/1.1/DTD/svg11.dtd" >
<svg xmlns="http://www.w3.org/2000/svg" xmlns:xlink="http://www.w3.org/1999/xlink" version="1.1" viewBox="0 -205 1024 1024">
  <g transform="matrix(1 0 0 -1 0 819)">
   <path fill="currentColor"
d="M97 63l-46 54q66 28 105 44q32 15 61 20v345h-115q-18 2 -36 -12l-32 32h164l39 43l50 -51q7 -6 6 -10t-10 -6l-20 -8v-336q17 -6 33 -20q33 -25 74 -38t131 -17l162 -2q158 -2 327 9v-16q-63 -2 -79 -47h-252q-209 0 -274 25q-64 24 -91 47q-27 22 -51 31
q-64 10 -146 -87zM578 974l91 -36q14 -5 6 -11q-21 -7 -30 -21v-284h154l32 40l68 -50q8 -5 7 -8q-2 -2 -13 -2h-248v-176h212l32 40l68 -50q8 -5 7 -8q-2 -2 -13 -2h-306v-141l3 -96q2 -34 -56 -44q5 38 7 163v118h-215q-27 1 -45 -13l-34 33h294v176h-161q-27 1 -45 -13
l-34 33h240v294q2 16 -30 46zM790 894l78 -44q11 -10 1 -15q-20 1 -37 -13q-56 -103 -110 -180l-18 6l38 82q52 117 50 129q-2 13 -10 28zM366 864l7 15q112 -65 136 -153q11 -62 -25 -64q-16 2 -23 34q-6 32 -24 71q-18 40 -71 97zM101 934l4 12q119 -43 149 -101
q30 -62 -17 -76q-19 -1 -25 33q-6 35 -34 68q-28 34 -77 64z" />
  </g>

</svg>
