<?xml version="1.0" standalone="no"?>
<!DOCTYPE svg PUBLIC "-//W3C//DTD SVG 1.1//EN" "http://www.w3.org/Graphics/SVG/1.1/DTD/svg11.dtd" >
<svg xmlns="http://www.w3.org/2000/svg" xmlns:xlink="http://www.w3.org/1999/xlink" version="1.1" viewBox="0 -205 1024 1024">
  <g transform="matrix(1 0 0 -1 0 819)">
   <path fill="currentColor"
d="M881 648v-97l4 -63q2 -37 -51 -46q5 39 7 108v113h-180v-203q99 -36 175 -88q81 -55 98 -96q16 -40 -5 -54q-21 -13 -43 28q-21 41 -90 98q-62 52 -135 88v-171l4 -96q2 -34 -55 -45q6 51 7 140v179q-21 -30 -45 -56q-107 -124 -269 -197l-6 15q86 58 140 106
q48 41 110 117q40 50 70 105v130h-176v-139l4 -63q2 -37 -51 -46q5 39 7 108v144q-4 29 -21 41l16 11l37 -36h184v107h-199q-27 1 -46 -13l-34 33h279v115q2 16 -30 46l9 12l90 -36q14 -5 6 -11q-21 -7 -31 -21v-105h195l32 40l69 -50q8 -5 7 -8q-2 -2 -13 -2h-290v-107h164
l28 38l49 -41q9 -6 9 -11t-9 -8zM97 50l-44 52q76 43 104 52q32 14 61 19v346h-116q-18 2 -36 -12l-32 32h165l39 43l48 -51q7 -6 6 -10t-10 -6l-20 -8v-337q17 -6 35 -20q33 -25 74 -39q42 -13 132 -17l163 -2q157 -2 328 9v-16q-64 -2 -79 -45h-253q-210 0 -275 24
q-65 23 -92 46t-51 32q-62 10 -147 -92zM109 937l4 12q119 -43 150 -102q30 -62 -17 -76q-19 -1 -25 33q-6 35 -34 68q-28 36 -78 65z" />
  </g>

</svg>
