<?xml version="1.0" standalone="no"?>
<!DOCTYPE svg PUBLIC "-//W3C//DTD SVG 1.1//EN" "http://www.w3.org/Graphics/SVG/1.1/DTD/svg11.dtd" >
<svg xmlns="http://www.w3.org/2000/svg" xmlns:xlink="http://www.w3.org/1999/xlink" version="1.1" viewBox="0 0 2048 2048">
  <g transform="matrix(1 0 0 -1 0 2048)">
   <path fill="currentColor"
d="M379 439q79 120 122 250q26 79 41 214h-269q-24 -6 -48 -6q-44 0 -43 21q1 6 10 17q7 9 29 38q9 13 45 59q109 139 199 308h-190q-60 0 -149 -12l-39 86q121 -18 188 -18h190l69 67l95 -82q19 -16 15 -34t-27 -24l-51 -16l-36 -51q-144 -206 -212 -297h219l63 66l91 -66
q21 -16 21 -34t-21 -26l-51 -19q-26 -144 -59 -221q-56 -130 -159 -238q14 -12 40 -37q84 -82 245 -122q192 -47 657 -47l167 2q270 3 458 13v-33q-90 -14 -105 -83q-62 0 -216 2q-118 2 -266 2q-485 0 -684 57q-154 44 -258 142q-57 54 -77 54q-44 0 -209 -129v-36
q0 -37 -17 -37q-18 0 -36 24l-62 82q61 33 166 93q101 59 154 71zM250 1928q274 -162 274 -283q0 -25 -19 -45q-14 -14 -34 -15q-35 -2 -59 66q-29 86 -77 146q-25 31 -107 105zM1755 1620l68 76l87 -58q46 -31 38 -58q-6 -21 -87 -49q-96 -219 -157 -310l-31 17
q55 172 88 326h-430q-50 -148 -68 -188q-28 -62 -107 -190l-37 19q76 171 130 380q22 88 59 328l142 -44q48 -15 45 -38q-2 -23 -51 -30l-41 -6q-14 -44 -32 -101q-11 -37 -24 -75zM1421 1445l148 -27q50 -9 44 -41q-4 -18 -42 -33l-44 -16q-10 -169 -29 -314
q29 -33 98 -111q86 -96 166 -220q114 -176 95 -258q-9 -40 -51 -40q-37 0 -62 81q-84 273 -258 492q-54 -202 -122 -306q-120 -183 -325 -306l-22 31q128 104 182 172q121 150 169 334q29 109 47 258q16 135 16 198q0 15 -10 106zM780 1518l-35 87q106 -21 169 -21h34l72 75
l88 -67q37 -27 34 -46q-4 -20 -26 -20h-171q-90 0 -165 -8zM782 825l-35 88q112 -23 192 -22h30l74 83l102 -87q19 -16 15 -34q-4 -20 -28 -20h-193q-73 0 -157 -8z" />
  </g>

</svg>
