<?xml version="1.0" standalone="no"?>
<!DOCTYPE svg PUBLIC "-//W3C//DTD SVG 1.1//EN" "http://www.w3.org/Graphics/SVG/1.1/DTD/svg11.dtd" >
<svg xmlns="http://www.w3.org/2000/svg" xmlns:xlink="http://www.w3.org/1999/xlink" version="1.1" viewBox="0 -205 1024 1024">
  <g transform="matrix(1 0 0 -1 0 819)">
   <path fill="currentColor"
d="M852 592v-374q6 -60 -75 -70q-3 45 -101 56l2 16q87 -15 101 -15q15 0 22 6q8 6 7 72v91h-164v-120l2 -37q3 -35 -49 -43q5 36 7 127v73h-161v-142l4 -48q2 -35 -55 -44q5 37 7 135v348q-4 23 -21 36l16 15l46 -51h352l30 43l50 -42q9 -6 9 -11q0 -4 -9 -8zM97 56l-44 52
q64 36 103 51q32 14 61 19v345h-115q-18 2 -36 -12l-32 32h164l39 43l48 -51q7 -6 6 -10t-10 -6l-20 -8v-336q17 -6 35 -20q33 -25 74 -38t131 -17l162 -2q158 -2 327 9v-16q-64 -2 -79 -45h-252q-209 0 -274 24q-64 23 -91 46q-27 22 -51 31q-63 10 -146 -91zM760 962
l61 -54q9 -9 9 -14t-9 -6q-28 8 -63 0q-121 -40 -318 -62v-37q-4 -56 69 -58q25 -1 83 -1q55 -1 124 0q38 -1 82 3q48 10 52 44q7 48 10 110h13l6 -60q1 -53 25 -64q-18 -51 -70 -61q-28 -7 -106 -6q-192 -2 -244 4q-76 1 -88 73v151q-2 24 -25 40l7 12l96 -36q4 -3 3 -5
q0 -2 -4 -4q-16 -4 -33 -17v-66q109 20 190 43q90 25 108 35q18 11 12 30zM644 504h164v99h-164v-99zM808 488h-164v-98h164v98zM604 603h-161v-99h161v99zM604 488h-161v-98h161v98zM101 930l4 12q119 -43 149 -101q30 -62 -17 -76q-19 -1 -25 33q-6 35 -34 68
q-28 34 -77 64z" />
  </g>

</svg>
