<?xml version="1.0" standalone="no"?>
<!DOCTYPE svg PUBLIC "-//W3C//DTD SVG 1.1//EN" "http://www.w3.org/Graphics/SVG/1.1/DTD/svg11.dtd" >
<svg xmlns="http://www.w3.org/2000/svg" xmlns:xlink="http://www.w3.org/1999/xlink" version="1.1" viewBox="0 0 2048 2048">
  <g transform="matrix(1 0 0 -1 0 2048)">
   <path fill="currentColor"
d="M1250 1098q-51 -9 -211 -20q-140 -10 -189 -10l-5 46q162 9 392 57q248 53 400 125l66 -63q36 -35 41.5 -46.5t-8.5 -24.5q-16 -15 -91 13q-98 -26 -301 -62v-625q0 -121 9 -185q3 -15 3 -21q0 -48 -66 -42q-19 2 -32 11q-7 6 -7 41zM1758 1358h-889v-44q0 -27 -44 -31
q-66 -5 -61 51l4 42q7 98 7 104l-1 382l111 -64h865l62 69l76 -51q33 -22 35 -46q2 -26 -68 -56l-2 -225q0 -44 7 -104q3 -26 3 -44q0 -41 -56 -49q-48 -6 -48 25zM1526 1418h232v323h-232v-323zM1431 1418v323h-239v-323h239zM1096 1418v323h-227v-323h227zM257 1928
q274 -161 274 -283q0 -25 -19 -45q-13 -14 -34 -15q-35 -2 -58 66q-30 86 -78 146q-25 31 -107 105zM1640 772q273 -177 259 -280q-3 -21 -18.5 -35t-33.5 -10q-24 5 -46 47q-69 130 -177 235q-81 -178 -192 -307l-35 28q77 105 131 268q58 172 80 296l127 -38
q36 -11 36 -34q0 -24 -40 -33l-46 -10l-10 -28l-26 -73zM946 755q70 -47 155 -138q62 -66 72 -113q8 -37 -12 -62q-21 -27 -45 -19q-21 8 -38 50q-43 112 -145 241q-82 -190 -210 -339l-30 22q169 273 225 617l126 -37q40 -12 40 -33q0 -25 -43 -35l-46 -10
q-22 -67 -49 -144zM333 433q76 109 112 201q40 101 58 269h-248q-23 -6 -48 -6q-44 0 -42 21q0 5 38 55q156 203 244 367h-178q-62 0 -149 -12l-39 86q125 -17 188 -17h178l69 66l95 -82q19 -16 15 -34q-3 -18 -26 -24l-52 -16q-28 -40 -87 -128q-6 -10 -161 -220h199l63 66
l91 -66q21 -16 21 -33q0 -19 -21 -27l-51 -19q-41 -195 -100 -297q-54 -92 -124 -162q18 -15 45 -41q85 -82 246 -122q191 -47 689 -47l167 2q270 3 458 14v-34q-90 -14 -105 -83q-62 0 -217 3q-125 1 -265 1q-516 0 -716 57q-154 44 -258 142q-54 51 -77 54q-32 3 -93 -51
q-23 -21 -65 -54v-36q0 -36 -17 -36q-18 0 -36 23l-62 83q77 40 130 73q92 56 131 64z" />
  </g>

</svg>
