<?xml version="1.0" standalone="no"?>
<!DOCTYPE svg PUBLIC "-//W3C//DTD SVG 1.1//EN" "http://www.w3.org/Graphics/SVG/1.1/DTD/svg11.dtd" >
<svg xmlns="http://www.w3.org/2000/svg" xmlns:xlink="http://www.w3.org/1999/xlink" version="1.1" viewBox="0 -200 1000 1000">
  <g transform="matrix(1 0 0 -1 0 800)">
   <path fill="currentColor"
d="M58 571q38 18 63.5 39.5t44 48t32 59t27.5 73.5l15 109l-63 -9l-31 31h544l36 39l60 -32l-25 -33v-63h-476q-5 -51 -21 -92t-29 -67h239v39h-97l-53 -6l-22 27h174v38q-28 -3 -71.5 -7t-85.5 -4l-2 11q45 4 96.5 11t101 15t92.5 15.5t72 12.5q11 -5 16.5 -10.5t9 -11
t7 -10t10.5 -7.5l-49 -2h-9q-21 0 -54 -5t-81 -7v-39h139l42 32l60 -51h-243v-40h204l52 27l67 -48h-323v-31q2 -12 10.5 -15t20.5 -3h280q19 1 29 8.5t13.5 19.5t4 29t1.5 38h11q0 -3 0.5 -6.5t0.5 -6.5q0 -8 -1 -17t-1 -18q0 -18 7.5 -32t33.5 -18q9 -3 9 -8q0 -9 -18 -18
t-70 -9h-311q-31 4 -43 7t-16 7t-5 9t-9 13v50h-173l-48 -13l-28 12q-11 -11 -23 -24t-30 -25.5t-44 -23.5t-63 -18zM302 887l-11 -33h412v46h-422zM107 547q38 -10 64 -20t39 -29v-6q0 -17 -9.5 -25t-23.5 -8q-11 0 -19 7.5t-8 18.5v5q-9 17 -20 28t-27 21zM939 81l-69 -50
q-63 -2 -124 -4t-121 -2q-66 0 -126 3.5t-108 14t-82 29t-49 48.5h-24q-37 -17 -69.5 -38t-59.5 -39l-52 46q45 8 88.5 18t85.5 24v129h-99l-56 -10l-18 32h167l35 37l58 -47l-31 -32v-117q13 -20 40 -32t65 -18t85 -8t100 -2q40 0 86 2t93.5 6t93.5 10t85 13zM925 168
q-24 -7 -47.5 -19.5t-31.5 -16.5q-38 13 -69.5 34t-55.5 42.5t-40 40t-24 27.5v-132q-9 -5 -13 -8t-8 -4.5t-10 -2t-20 -1.5v120q-24 -20 -56.5 -40t-66 -37t-66 -30t-57.5 -20l-8 12q105 54 157.5 96t60.5 58h-97v-16q-21 -8 -31 -12.5t-26 -4.5v151l60 -16h130v53h-200
l-72 -11l-25 31h297v95l69 -20l-18 -48v-27h175l44 38l63 -58h-282v-53h125l26 33l57 -40l-23 -25v-71q-8 -2 -18.5 -8.5t-36.5 -8.5v19l-115 -2q51 -42 108.5 -70t135.5 -39zM657 307h130v62h-130v-62zM473 358v-51h133v62h-124zM99 426q38 -10 63.5 -20t39.5 -29v-6
q0 -16 -10 -23t-24 -7q-11 0 -19.5 6t-8.5 17v4q-8 17 -16 28t-26 22z" />
  </g>

</svg>
