<?xml version="1.0" standalone="no"?>
<!DOCTYPE svg PUBLIC "-//W3C//DTD SVG 1.1//EN" "http://www.w3.org/Graphics/SVG/1.1/DTD/svg11.dtd" >
<svg xmlns="http://www.w3.org/2000/svg" xmlns:xlink="http://www.w3.org/1999/xlink" version="1.1" viewBox="0 0 2048 2048">
  <g transform="matrix(1 0 0 -1 0 2048)">
   <path fill="currentColor"
d="M806 796l24 -30q149 -195 199 -270q79 -122 79 -195q0 -64 -46 -77q-61 -17 -86 75q-49 177 -214 416q-220 -370 -616 -559l-21 39q366 213 574 612l-13 17q-135 189 -352 441l27 24q243 -243 377 -406q81 173 161 494l122 -48q60 -23 57 -51q-2 -25 -42 -32q-1 0 -31 -3
q-12 -1 -25 -3q-70 -233 -174 -444zM1425 1786l-1 -1420q0 -70 11 -181q4 -36 4 -69q0 -50 -60 -54q-49 -3 -49 50v1611q0 80 -12 207l115 -86h338l64 82l105 -76q30 -22 26 -45q-4 -24 -89 -50q-127 -247 -281 -498q120 -98 188 -174q182 -205 182 -426q0 -284 -258 -337
q-4 58 -60 88q-50 27 -170 57l9 39q164 -42 234 -42q139 0 139 203q0 339 -320 583q117 215 234 538h-349zM766 1884l20 28q159 -104 266 -204q163 -153 177 -250q4 -29 -11 -53q-16 -26 -45 -27q-37 -2 -63 55q-60 135 -151 249q-41 52 -193 202zM440 1924l126 -55
q35 -15 35 -38q0 -32 -95 -38q-109 -219 -188 -335q-85 -125 -193 -237l-30 27q194 241 345 676z" />
  </g>

</svg>
