<?xml version="1.0" standalone="no"?>
<!DOCTYPE svg PUBLIC "-//W3C//DTD SVG 1.1//EN" "http://www.w3.org/Graphics/SVG/1.1/DTD/svg11.dtd" >
<svg xmlns="http://www.w3.org/2000/svg" xmlns:xlink="http://www.w3.org/1999/xlink" version="1.1" viewBox="0 -205 1024 1024">
  <g transform="matrix(1 0 0 -1 0 819)">
   <path fill="currentColor"
d="M564 626l42 -50h289l33 35l44 -43q11 -12 -6 -17l-18 -9v-126l4 -59q3 -30 -42 -36v37h-300v-188q0 -48 17 -60q17 -13 57 -17q40 -5 100 -4q68 -1 120 5t56 40q7 38 10 151h15l4 -105q3 -51 23 -66q-25 -50 -72 -52q-28 -4 -148 -5q-76 -2 -136 8q-88 14 -84 109v379
q-3 32 -21 60zM612 952l39 -52h200l29 35l46 -43q7 -6 5 -10q-1 -5 -11 -7l-18 -9v-106l4 -71q2 -29 -42 -36v45h-207v-23q1 -35 -45 -46q5 39 7 79v192q-7 20 -23 38zM320 818q-22 2 -30 -32q-6 -19 -28 -72q-77 -185 -236 -279l-8 12q183 143 246 376h-94q-11 -24 -23 -47
q15 -9 25 -16q23 -18 32 -48q6 -26 -13 -28q-11 0 -19 25q-5 16 -9 24q-6 14 -24 29q0 -1 -1 -2q-2 -3 -3 -5q-18 -32 -42 -64q17 -9 27 -17q23 -18 32 -48q6 -26 -13 -28q-11 0 -19 25q-5 16 -9 24q-7 15 -27 32q-27 -34 -62 -69l-10 10q95 122 143 261q17 51 14 61
q-1 10 -12 25l11 5l70 -35q4 -5 3 -8q-1 -2 -6 -2q-16 -3 -29 -13q-13 -37 -27 -71h78l27 32l39 -45q5 -4 5 -7q-1 -3 -8 -5zM657 718h207v162h-207v-162zM77 416h372l24 34l64 -44q8 -5 7 -8q-2 -2 -13 -2h-210v-267q-1 -33 -14 -49q-12 -17 -68 -30q-3 27 -22 35
q-19 7 -73 21l4 18l32 -8q63 -16 81 -7q22 8 22 49v238h-127q-27 1 -45 -13zM777 378h133v178h-133v-178zM741 556h-131v-178h131v178zM324 799l8 10q47 -31 83 -64l59 106h-89q-19 2 -38 -13l-33 33h161l24 26l45 -43q6 -9 -2 -11q-34 2 -65 -47q-17 -22 -47 -66
q18 -18 33 -38q46 -60 63 -107q16 -47 -5 -57q-21 -9 -32 33q-39 122 -165 238zM162 355l57 -36q7 -5 6 -8q0 -4 -8 -5q-10 1 -27 -11q-70 -111 -163 -181l-10 12q78 89 117 158q20 33 21 41q3 11 -5 22zM369 323l10 14q92 -54 122 -110q16 -26 16 -50q0 -26 -19 -28
q-19 -5 -29 31q-17 68 -100 143zM163 544h214l24 34l58 -44q8 -5 7 -8q-2 -2 -13 -2h-211q-27 1 -45 -13z" />
  </g>

</svg>
