<?xml version="1.0" standalone="no"?>
<!DOCTYPE svg PUBLIC "-//W3C//DTD SVG 1.1//EN" "http://www.w3.org/Graphics/SVG/1.1/DTD/svg11.dtd" >
<svg xmlns="http://www.w3.org/2000/svg" xmlns:xlink="http://www.w3.org/1999/xlink" version="1.1" viewBox="0 -205 1024 1024">
  <g transform="matrix(1 0 0 -1 0 819)">
   <path fill="currentColor"
d="M496 984l64 -59q10 -13 -4 -16q-30 3 -38 5q-7 2 -81 -14q-30 -7 -90 -13q-10 -49 -29 -92h217l32 40l68 -50q8 -5 7 -8q-2 -2 -13 -2h-321l-1 -2q-27 -50 -76 -104l10 -11h210l13 19l34 -15q14 -12 -2 -21l-10 -9v-68l2 -45q0 -31 -38 -31v32h-203q4 -37 -43 -43
q0 2 1 5q4 33 6 67v98v2q-64 -64 -165 -109l-8 14q155 96 220 219q0 1 1 2h-119q-27 1 -45 -13l-34 33h208q23 44 33 87q-76 -6 -188 -12v18q218 25 292 43q74 19 79 26q5 8 1 21zM933 867l-38 -98q-31 -85 -60 -150q70 -58 97 -94t41 -81t12 -96q-1 -123 -134 -143
q-6 46 -96 68l4 18q111 -42 144 -15q37 24 37 88q3 45 -22 107q-13 34 -35 62q-22 29 -80 78q48 120 90 282h-175v-715l3 -95q1 -35 -50 -46q5 39 7 144v719q-4 29 -28 54l13 13l48 -54h171l35 44l52 -54q13 -10 2 -15q-19 -4 -38 -21zM562 416v-295q0 -24 -11 -41
q-10 -17 -66 -26q0 35 -105 49v16q93 -13 110 -13q18 0 25 6q8 6 7 70v245h-353v-272l4 -53q2 -37 -51 -46q5 39 7 100v285q-3 19 -17 34l16 13l34 -41h352l22 31l38 -26q9 -6 9 -11q0 -4 -9 -8zM248 390l25 -34h124l25 31l40 -27q7 -6 5 -10q-1 -5 -11 -7l-14 -13v-68
l2 -41q1 -31 -36 -30v35h-129v-7q4 -36 -41 -43q5 36 7 79v94q-3 18 -11 30zM247 536h203v106h-203v-106zM279 242h129v98h-129v-98zM367 751l4 13q135 -28 207 -98q53 -60 17 -86q-17 -6 -35 27q-17 34 -67 73q-49 40 -126 71z" />
  </g>

</svg>
