<?xml version="1.0" standalone="no"?>
<!DOCTYPE svg PUBLIC "-//W3C//DTD SVG 1.1//EN" "http://www.w3.org/Graphics/SVG/1.1/DTD/svg11.dtd" >
<svg xmlns="http://www.w3.org/2000/svg" xmlns:xlink="http://www.w3.org/1999/xlink" version="1.1" viewBox="0 0 2048 2048">
  <g transform="matrix(1 0 0 -1 0 2048)">
   <path fill="currentColor"
d="M1274 1383q76 -84 156 -200q107 -154 107 -250q0 -63 -50 -63q-45 0 -60 79q-29 148 -153 362v-125q0 -456 -63 -713q-57 -234 -209 -405l-28 17q123 208 165 453q40 231 40 652v486q0 6 -8 106q-2 27 -4 80l122 -71l315 -1l64 76l84 -54q40 -26 40 -49q0 -26 -77 -61
l-1 -1418q0 -37 13 -46t63 -9q78 0 96 59q14 47 35 229l34 -6l-4 -184q-1 -39 15 -60q4 -5 36 -35q10 -9 12 -24q11 -74 -278 -74q-72 0 -95 24q-23 25 -23 90l1 1489h-346zM594 612l91 91l109 -95q21 -18 16 -34q-6 -19 -26 -19h-299q-82 0 -166 -7l-38 88q93 -22 204 -23z
M839 198h-569v-50q0 -37 -52 -37q-59 0 -55 60l4 57l3 80l4 76v1000q0 89 -14 176l122 -90h116l-1 297h-114q-69 0 -149 -11l-39 86q124 -18 188 -18h520l99 102l120 -107q21 -18 16 -33q-6 -19 -26 -19h-327v-297h134l68 76l84 -54q40 -26 40 -49q0 -27 -77 -61v-1002
q0 -22 3 -85q2 -32 4 -79q2 -40 4 -59q6 -59 -63 -59q-43 0 -43 26v74zM839 256v619q-32 0 -98 -2q-99 -4 -129 24q-21 21 -21 102l1 414h-107v-58q0 -172 -35 -268q-37 -102 -156 -223l-24 24v-633zM685 1413l-1 -418q0 -41 45 -41h110v459h-154zM592 1470l1 297h-108v-297
h107zM398 1413h-128v-506q14 20 22 30q111 152 107 419z" />
  </g>

</svg>
