<?xml version="1.0" standalone="no"?>
<!DOCTYPE svg PUBLIC "-//W3C//DTD SVG 1.1//EN" "http://www.w3.org/Graphics/SVG/1.1/DTD/svg11.dtd" >
<svg xmlns="http://www.w3.org/2000/svg" xmlns:xlink="http://www.w3.org/1999/xlink" version="1.1" viewBox="0 0 2048 2048">
  <g transform="matrix(1 0 0 -1 0 2048)">
   <path fill="currentColor"
d="M1175 625q24 12 37 19q209 105 348 259l109 -82q25 -18 22 -35q-4 -27 -45 -23l-52 7q-178 -116 -363 -167l-22 -6q147 -121 318 -209q150 -78 255 -106q26 -7 87 -23q17 -4 47 -12l-4 -32q-81 -2 -116 -80q-246 98 -416 226q-173 130 -306 277l-1 -424q0 -142 -159 -171
q-2 66 -43 93q-32 21 -159 44l8 46q134 -22 189 -27q69 -6 68 57v569q0 115 -8 160l109 -24q82 -18 86 -43q3 -26 -51 -44l-40 -14l1 -144q60 -55 101 -91zM693 708l68 72l69 -53q36 -28 41 -47q8 -27 -80 -64q-86 -125 -149 -188q-182 -185 -514 -316l-16 37
q210 102 345 216q134 113 241 287l-381 -1q-71 0 -149 -11l-39 86q123 -18 188 -18h376zM1258 1216l81 81l113 -86q22 -16 16 -34t-26 -18l-673 2q-68 0 -149 -11l-39 86q121 -17 188 -18zM823 1782h-474q-131 0 -192 -9l-38 91q104 -23 230 -23h1383l99 105l120 -110
q21 -19 16 -35q-6 -19 -26 -19h-692v-170h358l68 79l83 -57q40 -27 40 -49q0 -29 -77 -63v-295q0 -25 4 -88q2 -37 4 -83q1 -41 3 -61q5 -55 -63 -61q-42 -3 -42 27v40h-1185v-48q0 -39 -52 -39q-59 0 -55 62l4 59l4 83l4 79v325q0 92 -15 184l122 -94h346q17 56 23 170z
M916 1782q-1 -104 -17 -170h255v170h-238zM877 1553q-45 -90 -134 -140q-73 -40 -290 -113l-12 30v-27l1 -243h1185l-1 270q-99 -4 -128 -4q-207 0 -255 10q-89 18 -89 107v110h-277zM776 1553h-334v-212q144 49 218 94t116 118zM1626 1421l1 132h-378v-58q0 -48 17 -61
q50 -40 360 -13z" />
  </g>

</svg>
