<?xml version="1.0" standalone="no"?>
<!DOCTYPE svg PUBLIC "-//W3C//DTD SVG 1.1//EN" "http://www.w3.org/Graphics/SVG/1.1/DTD/svg11.dtd" >
<svg xmlns="http://www.w3.org/2000/svg" xmlns:xlink="http://www.w3.org/1999/xlink" version="1.1" viewBox="0 -205 1024 1024">
  <g transform="matrix(1 0 0 -1 0 819)">
   <path fill="currentColor"
d="M49 737l37 -34h83q2 69 0 179h-78q-27 1 -45 -13l-34 33h348l32 40l68 -50q8 -5 7 -8q-2 -2 -13 -2h-158v-179h58l33 35l42 -41q7 -6 5 -11q-1 -4 -11 -8l-16 -9v-456l3 -128q0 -33 -43 -33v92h-271v-65q6 -39 -47 -44q5 37 7 146v509q2 16 -19 37zM661 707l80 -34
q14 -5 6 -11q-16 -4 -27 -18v-83h160l32 40l68 -50q8 -5 7 -8q-2 -2 -13 -2h-254v-167h100l39 39l46 -47q7 -6 5 -10q-1 -5 -11 -7l-18 -9v-136l3 -128q0 -32 -45 -33v64h-273v-41q1 -26 -49 -36q5 37 7 138v187q2 16 -19 37l12 16l34 -34h127v167h-165q-27 1 -45 -13
l-34 33h244v93q2 17 -25 42zM202 683q0 -20 -1 -37q-5 -176 -94 -249l-6 16q58 74 66 216q1 8 1 27q1 17 1 27h-73v-374h271v130q-6 -1 -12 -1q-19 0 -63 3q-28 6 -30 60v182h-60zM566 127h273v227h-273v-227zM773 991l87 -36q14 -5 6 -11q-21 -7 -30 -21v-104h58l32 40
l68 -50q10 -5 8 -8q-1 -2 -14 -2h-152v-19l3 -57q3 -36 -52 -44q5 32 6 120h-179v-23l3 -57q3 -36 -52 -44q5 33 6 124h-72q-27 1 -45 -13l-34 33h152v4v106q2 16 -30 46l9 12l87 -36q14 -5 6 -11q-21 -7 -30 -21v-100h180v8v106q2 16 -30 46zM367 293h-271v-131h271v131z
M346 468l21 3v212h-71v-177q2 -26 10 -31q7 -7 40 -7zM262 882h-59q2 -104 0 -179h59v179z" />
  </g>

</svg>
