<?xml version="1.0" standalone="no"?>
<!DOCTYPE svg PUBLIC "-//W3C//DTD SVG 1.1//EN" "http://www.w3.org/Graphics/SVG/1.1/DTD/svg11.dtd" >
<svg xmlns="http://www.w3.org/2000/svg" xmlns:xlink="http://www.w3.org/1999/xlink" version="1.1" viewBox="0 -205 1024 1024">
  <g transform="matrix(1 0 0 -1 0 819)">
   <path fill="currentColor"
d="M61 731l35 -34h87v179h-80q-27 1 -45 -13l-34 33h348l32 40l68 -50q8 -5 7 -8q-2 -2 -13 -2h-160v-179h62l31 35l42 -41q7 -6 5 -11q-1 -4 -11 -8l-16 -9v-456l3 -128q-1 -32 -41 -33v92h-275v-65q6 -39 -45 -44q5 37 7 146v509q2 16 -19 37zM896 383v-242q2 -62 -10 -87
t-66 -37q-2 33 -28 42q-25 8 -84 23l2 16q98 -23 122 -21t24 50v83h-285v-63l4 -83q2 -37 -51 -46q5 39 7 128v263q-3 19 -17 34l16 13l32 -39h286l18 25l44 -27q9 -6 9 -11q0 -4 -9 -8zM214 677q0 -20 -1 -37q-5 -176 -94 -249l-6 12q60 75 68 220q1 8 1 27q1 17 1 27h-77
v-374h275v130q-7 -1 -14 -1q-19 0 -63 3q-28 6 -30 60v182h-60zM986 713q2 -5 -1 -7q-2 -2 -9 0q-35 -4 -63 -29q-17 -15 -29 -25l-14 6l36 58h-171v-101h124l22 24l56 -26q8 -6 7 -10q-2 -3 -13 -4h-196v-97h11q44 -2 85 -2q28 0 85 2q58 2 85 2v-16q-64 -1 -61 -32
q-14 0 -40 1q-223 -2 -276 46q-35 26 -59 57q-15 -43 -39 -72q-38 -46 -98 -77l-4 13q82 76 100 137q20 62 15 75q-4 15 -12 26l8 8l72 -25q9 -6 5 -10q-19 -4 -31 -18q-1 -5 -4 -15q-2 -11 -4 -17q49 -46 86 -62q18 -8 36 -14v207h-170q-19 2 -38 -13l-33 33h451l34 24z
M381 287h-275v-131h275v131zM767 901l4 13q69 -28 99 -45q30 -16 49 -36q19 -19 19 -41t-19 -23t-27 21q-4 11 -12 21q-214 -11 -249 -14q-8 -1 -22 -2q-65 -1 -89 -24l-28 53q26 2 35 6q8 2 26 18q17 14 38 34t75 77q7 22 -2 29l8 8l65 -37q5 -3 5 -6t-5 -5q-11 2 -35 -8
q-72 -66 -146 -118l307 8l-9 9q-30 27 -87 62zM856 312h-285v-86h285v86zM571 328h285v69h-285v-69zM358 462l23 3v212h-75v-177q5 -25 12 -31q8 -6 40 -7zM274 876h-59v-179h59v179z" />
  </g>

</svg>
