<?xml version="1.0" standalone="no"?>
<!DOCTYPE svg PUBLIC "-//W3C//DTD SVG 1.1//EN" "http://www.w3.org/Graphics/SVG/1.1/DTD/svg11.dtd" >
<svg xmlns="http://www.w3.org/2000/svg" xmlns:xlink="http://www.w3.org/1999/xlink" version="1.1" viewBox="0 0 2048 2048">
  <g transform="matrix(1 0 0 -1 0 2048)">
   <path fill="currentColor"
d="M1678 1121q38 -453 83 -652q31 -132 66 -210q20 -46 72 -114l-23 -23q-78 28 -136 -22q-48 150 -80 372q-24 171 -52 649h-350q-14 -345 -37 -485q-35 -207 -134 -365q-57 -91 -165 -202l-26 26q152 202 203 410q45 183 60 616h-91q-67 0 -148 -10l-39 86
q120 -18 187 -18h92l1 537q1 114 -8 160l111 -24q83 -18 86 -44q3 -29 -50 -43l-41 -11v-575h347q-10 340 -12 661h50q14 -426 30 -661h80l85 89l124 -95q21 -16 15 -33q-5 -19 -25 -19h-275zM524 1816q133 -93 227 -175q145 -127 121 -208q-11 -35 -44 -37q-31 -2 -55 27
q-11 13 -36 68q-64 136 -226 291q-72 -175 -148 -285q-97 -141 -264 -270l-27 27q282 258 369 667l119 -33q49 -13 52 -32q4 -25 -39 -32l-49 -7v-1zM749 813l132 -58q30 -14 28 -31q-2 -19 -28 -23l-59 -8q-27 -38 -41 -56q-56 -79 -163 -187l-30 21q99 162 161 342z
M160 799q189 -184 200 -297q6 -48 -19 -72q-25 -25 -49 -19q-37 8 -41 80q-4 81 -41 161q-16 34 -78 127zM449 1233h-60q-68 0 -148 -10l-39 86q121 -18 187 -18h206l85 90l124 -95q21 -16 16 -34q-6 -19 -26 -19h-250v-275h118l86 89l124 -95q21 -16 15 -33q-6 -19 -26 -19
h-317v-568q208 52 318 86l13 -39q-157 -69 -327 -124q-98 -32 -219 -66q-66 -19 -103 -30l-11 -41q-7 -34 -25 -33q-12 1 -28 31l-70 131q157 23 335 60l22 4v589h-112q-116 0 -192 -8l-38 88q96 -22 230 -22h112v275z" />
  </g>

</svg>
