<?xml version="1.0" standalone="no"?>
<!DOCTYPE svg PUBLIC "-//W3C//DTD SVG 1.1//EN" "http://www.w3.org/Graphics/SVG/1.1/DTD/svg11.dtd" >
<svg xmlns="http://www.w3.org/2000/svg" xmlns:xlink="http://www.w3.org/1999/xlink" version="1.1" viewBox="0 -205 1024 1024">
  <g transform="matrix(1 0 0 -1 0 819)">
   <path fill="currentColor"
d="M553 875q-18 2 -38 -14l-35 34h340l37 39l49 -47q7 -6 6 -10t-10 -6l-20 -8v-197h21l32 40l68 -50q8 -5 7 -8q-2 -2 -13 -2h-115v-161l6 -109q0 -31 -52 -33v72h-187q-15 -92 -45 -157q-67 -146 -220 -238l-4 16q149 130 196 279q15 46 24 100h-40q-27 1 -45 -13l-34 33
h123q15 94 14 211h-104q-27 1 -45 -13l-34 33h183v28v181h-65zM65 480h182v152h-53q-27 1 -45 -13l-34 32q-40 -43 -89 -84l-8 10q62 68 116 149t85 153q32 72 27 83q-4 11 -15 26l6 8l90 -32q6 -4 5 -8q0 -3 -7 -5q-21 -1 -37 -18q-9 -22 -19 -44q57 -13 97 -34
q91 -50 87 -111q-6 -22 -24 -24q-18 -1 -29 34q-11 36 -43 66q-29 29 -95 55q-37 -79 -82 -144q-29 -41 -65 -79h240l24 32l54 -42q8 -5 7 -8q-2 -2 -13 -2h-138v-152h84l28 36l58 -46q8 -5 7 -8q-2 -2 -13 -2h-164v-198l39 46q42 56 39 66q-3 12 -11 27l6 9l74 -50
q15 -9 5 -15q-20 2 -41 -9q-40 -43 -111 -104v-53l164 36l4 -14q-54 -16 -137 -41q-70 -20 -90 -26q-57 -18 -80 -29t-41 -41l-41 67l179 38v291h-103q-27 1 -45 -13zM836 646h-171q0 -119 -13 -211h184v211zM664 666h172v209h-172v-175v-34zM78 382l10 8q97 -64 96 -133
q0 -34 -22 -39q-22 -4 -22 23t-9 60t-53 81z" />
  </g>

</svg>
