<?xml version="1.0" standalone="no"?>
<!DOCTYPE svg PUBLIC "-//W3C//DTD SVG 1.1//EN" "http://www.w3.org/Graphics/SVG/1.1/DTD/svg11.dtd" >
<svg xmlns="http://www.w3.org/2000/svg" xmlns:xlink="http://www.w3.org/1999/xlink" version="1.1" viewBox="0 -204 1024 1024">
  <g transform="matrix(1 0 0 -1 0 820)">
   <path fill="currentColor"
d="M171 151v288h-44l-34 -2h-13l-12 -2l-12 -1l-19 43q12 -2 23 -4q10 -2 19 -2q9 -1 24 -2q16 -1 24 -1h44v139q-9 -1 -15 -1q-6 -1 -10 -1h-13l-13 -2l-12 -1l-18 43q12 -2 22 -4t20 -2q9 -1 24 -2q16 -1 24 -1h53l41 45l60 -48q3 -2 5 -7q3 -3 2 -9t-5 -8t-8 -2h-112
v-139h36l40 45l60 -48q4 -4 6 -7q4 -3 2 -9q-2 -4 -6 -8q-4 -2 -7 -2h-131v-276q6 1 13 3q8 2 41 10q34 9 50 15l22 8l6 -20l-31 -16q-16 -8 -43 -19q-27 -12 -50 -20l-58 -19l-46 -16l-17 -6l-5 -21l-2 -11q-4 -8 -10 -6q-4 0 -6 3q-2 2 -8 13l-34 66q12 2 19 2t42 8l62 12
zM402 935l15 -8q8 -4 25 -14q18 -10 38 -26q22 -16 30 -29q8 -15 11 -31q3 -17 -9 -29q-12 -13 -27 -3q-5 2 -11 19q-6 16 -20 37q-14 22 -28 37q-14 16 -28 26l-8 5zM372 669l16 -7q10 -4 30 -18q21 -13 40 -27q18 -14 26 -28q9 -15 12 -31q3 -17 -7 -27q-9 -10 -25 -4
q-9 3 -19 23t-16 31q-6 10 -16 24q-11 14 -21 24l-22 19l-8 7zM514 467l18 -11l-20 -55l-20 -55l-39 -93l-20 -53l-27 -65l-7 -18l7 -34q0 -4 -1 -8t-6 -8q-5 -2 -11 1q-6 4 -18 16l-42 41l20 24q10 13 29 46q20 32 43 76l44 85q20 43 30 65zM70 365l18 -26q6 -8 18 -26
q11 -18 18 -32q8 -14 12 -30t5 -32q2 -16 -2 -25q-3 -9 -13 -15t-17 -4q-9 2 -11 14q-2 10 -2 24t-3 27q-2 13 -5 27q-2 14 -6 25q-4 12 -10 26l-11 27l-5 10zM786 511h74l35 38l58 -48q6 -6 7 -12q0 -8 -6 -14q-4 -6 -14 -8l-22 -8l-9 -29q-6 -16 -17 -51q-12 -34 -26 -67
q-14 -32 -26 -55q-13 -22 -22 -34l-15 -20q7 -9 13 -16q6 -8 24 -22q16 -15 43 -34q27 -18 51 -32t36 -18l28 -12l-4 -18h-20q-8 0 -20 -7q-12 -5 -15 -15l-3 -9q-15 7 -26 15q-10 7 -26 20q-15 12 -35 32q-19 20 -37 37q-17 17 -25 27l-14 18l-22 -23q-9 -10 -27 -25
q-17 -14 -37 -29t-39 -27q-20 -12 -46 -26t-40 -20l-14 -6l-8 16l27 17q14 9 25 17l40 29q28 22 52 45q24 22 44 46l16 19q-6 10 -10 17l-15 28l-21 40q-10 20 -20 46t-18 49t-14 42t-8 33l-6 26h-20q-2 -22 -2 -32l-3 -58q-2 -26 -6 -60q-3 -32 -9 -64q-6 -30 -15 -60
q-8 -30 -20 -55q-11 -24 -23 -44t-27 -40q-15 -21 -23 -30l-16 -18l-14 13l17 27q9 13 20 34t22 47t17 50t14 55q6 32 9 57q3 24 6 61t5 75t2 87v105t-1 84l-2 61l-1 25l56 -36h122v116q-2 40 -3 56v18l-1 6l53 -12q24 -6 33 -10q8 -4 9 -12q0 -7 -7 -13q-6 -7 -17 -9
l-21 -5v-135h110l30 41l58 -42q8 -6 10 -14t-4 -13q-1 -2 -17 -8l-27 -8l-21 -41q-12 -22 -21 -36l-25 -37l-15 9l19 51q10 26 14 44l6 26h-117v-228zM614 739v-228h126v228h-126zM654 483l8 -29q4 -14 9 -26q5 -13 21 -48q16 -36 22 -46l24 -41q18 -30 20 -32l14 -22l15 21
q7 10 17 30q10 21 20 45q10 25 22 60q12 34 19 64l6 24h-217zM227 901q7 -6 11 -8l34 -29l28 -22q16 -13 32 -30q17 -16 23 -28t10 -23q3 -12 0 -23q-3 -9 -9 -14q-6 -4 -13 -5q-7 0 -13 6q-4 3 -9 9q-4 6 -11 24q-8 17 -15 31q-8 13 -22 31q-14 19 -22 29l-23 24l-9 10
l-19 -51q-10 -26 -23 -52q-13 -25 -30 -51t-38 -51q-21 -24 -49 -49l-20 -17l-12 15l25 29q13 17 29 38q15 22 31 51q16 30 29 62q12 32 22 62t14 49l7 35l58 -16q9 -4 17 -8t8 -10t-5 -10q-6 -4 -14 -4zM290 383l65 -22q6 -2 11 -8q4 -6 2 -12t-6 -7q-5 -2 -12 -3l-20 -3
l-10 -21q-2 -6 -21 -37q-17 -32 -19 -34l-20 -28l-16 9l10 27q4 12 10 36l14 49q6 24 8 33z" />
  </g>

</svg>
