<?xml version="1.0" standalone="no"?>
<!DOCTYPE svg PUBLIC "-//W3C//DTD SVG 1.1//EN" "http://www.w3.org/Graphics/SVG/1.1/DTD/svg11.dtd" >
<svg xmlns="http://www.w3.org/2000/svg" xmlns:xlink="http://www.w3.org/1999/xlink" version="1.1" viewBox="0 -120 1000 1000">
  <g transform="matrix(1 0 0 -1 0 880)">
   <path fill="currentColor"
d="M210 954l81 -35q9 -4 9 -11q0 -9 -12 -11l-27 -5l-2 -5q123 -59 123 -130q0 -30 -22 -30q-12 0 -20 17q-37 71 -91 121q-50 -102 -121 -201h125l40 47l66 -54v-20h-113v-148h39l39 51l70 -59v-19h-148v-276l129 29l3 -19l-261 -106l-2 -14q-3 -13 -13 -13q-7 0 -14 12
l-38 66l137 31v290h-121l-12 27h133v148h-59l-7 18q-40 -49 -71 -80l-12 12q108 162 172 367zM68 386l14 9q32 -40 48 -67q30 -47 30 -88q0 -40 -28 -40q-20 0 -24 32q-9 100 -40 154zM320 407l70 -30q8 -4 8 -11q0 -10 -10 -11l-21 -3l-71 -129l-15 6zM863 899l82 -66v-20
h-258v-102h133l23 36l64 -42q11 -7 11 -13t-11 -10l-21 -6v-285l-58 -12v36h-332v-40l-59 -11v383l63 -36h129v102h-231l-12 27h243v110l87 -13q14 -2 14 -13q0 -12 -12 -14l-31 -7v-63h133zM496 442h133v110h-133v-110zM687 552v-110h141v110h-141zM496 579h133v105h-133
v-105zM687 684v-105h141v105h-141zM445 289h16q-3 -88 -12 -129q-15 -66 -61 -66q-37 0 -37 32q0 14 10 23q2 2 17 14q49 41 67 126zM511 340l76 -7q14 -1 14 -11q0 -9 -11 -13l-20 -8v-156q0 -12 4 -16t19 -4h122q17 0 25 6q7 5 13 20l32 88h12v-90q0 -19 31 -31
q-11 -46 -90 -47h-168q-33 0 -46 14q-13 13 -13 44v211zM601 368l7 15q42 -11 78 -29q53 -26 53 -57q0 -14 -6 -25q-8 -14 -22 -14q-12 0 -20 15q-31 56 -90 95zM799 294l13 15q137 -81 137 -151q0 -21 -12 -32q-8 -8 -21 -8q-15 0 -22 11q-3 5 -11 27q-35 89 -84 138z" />
  </g>

</svg>
