<?xml version="1.0" standalone="no"?>
<!DOCTYPE svg PUBLIC "-//W3C//DTD SVG 1.1//EN" "http://www.w3.org/Graphics/SVG/1.1/DTD/svg11.dtd" >
<svg xmlns="http://www.w3.org/2000/svg" xmlns:xlink="http://www.w3.org/1999/xlink" version="1.1" viewBox="0 -200 1001 1000">
  <g transform="matrix(1 0 0 -1 0 800)">
   <path fill="currentColor"
d="M717 896v-159h138l55 39l65 -62h-465l-56 -10l-26 33h231v159h-99l-42 -8l-20 29h295l45 31l54 -52h-175zM510 655l71 -26h226l38 38l64 -41l-33 -33v-384q-6 -8 -25.5 -15t-34.5 -7v30h-243v-22q-8 -8 -26.5 -11t-30.5 -3v474h-6zM573 597v-105h243v116h-236zM573 472
l7 -104h236v104h-243zM573 237h243v113h-243v-113zM936 86q0 -3 0.5 -6t0.5 -7q0 -21 -8 -32t-18 -11q-9 0 -22 19.5t-34.5 45.5t-53 52t-76.5 40l-8 6q85 -14 144 -41.5t75 -65.5zM643 212l48 -51l-25 -8q-23 -20 -65 -45.5t-90.5 -48.5t-97 -39.5t-82.5 -18.5l-1 4
q46 16 93 39.5t87.5 51t73 57.5t50.5 59h9zM365 699l70 -73h-145v-170h61l48 48l64 -71h-173v-219q14 25 40.5 70.5t47.5 111.5l64 -63l-33 -23l-119 -132v-52l181 53l3 -16q-47 -19 -97.5 -40t-98 -42t-88.5 -40.5t-69 -36.5l-62 63q19 3 44 8.5t50.5 12.5t49 13.5
t39.5 11.5v320h-78l-53 -11l-22 34h153v170h-86q-25 -33 -50 -64t-52 -49l-8 8q38 51 71 110t60 121t47.5 125t32.5 123l69 -43l-32 -39l-7 -20q81 -34 130 -67.5t50 -55.5q1 -1 1 -10q0 -15 -8 -33t-21 -18q-12 0 -22 18q-14 24 -27 42.5t-28.5 36t-34.5 34.5t-44 38
q-26 -61 -51.5 -120t-59.5 -113h144zM120 356q42 -48 61 -82t19 -60q0 -29 -21 -54q-12 -14 -19 -14q-13 0 -16 42q-2 35 -11 75t-24 86z" />
  </g>

</svg>
