<?xml version="1.0" standalone="no"?>
<!DOCTYPE svg PUBLIC "-//W3C//DTD SVG 1.1//EN" "http://www.w3.org/Graphics/SVG/1.1/DTD/svg11.dtd" >
<svg xmlns="http://www.w3.org/2000/svg" xmlns:xlink="http://www.w3.org/1999/xlink" version="1.1" viewBox="0 -205 1024 1024">
  <g transform="matrix(1 0 0 -1 0 819)">
   <path fill="currentColor"
d="M674 683l-8 8q19 31 37 74h-119v-43q60 -22 97 -51q32 -30 33 -57q0 -27 -16 -31q-17 -4 -23 20t-33 57q-22 24 -58 44v-140l2 -57q0 -21 -12 -30t-33 -14q4 36 7 104v135q-50 -103 -159 -174l-11 13q113 96 156 224h-50q-27 0 -45 -13l-34 33h143v113q-83 -21 -146 -27
l-4 12l59 16q105 33 134 45q5 2 13 6q20 9 23 12q8 5 9 24l7 2l49 -44q8 -9 8 -14t-8 -6q-34 8 -93 -13q-7 -3 -15 -4v-122h62l22 32l41 -37q42 106 48 170q3 15 -8 33l4 6l67 -26q6 -3 6 -6q1 -3 -4 -5q-17 -1 -26 -18q-9 -36 -19 -67h149l14 24l42 -25q9 -6 9 -11t-9 -8
l-14 -12v-149q0 -81 -9 -117q-8 -37 -34 -62q-25 -24 -72 -33q-3 15 -16 26q-23 15 -61 24v14q35 -6 78 -10q79 -3 76 152v167h-59q-33 -241 -173 -331l-9 12q117 114 141 319h-60q-34 -96 -96 -164zM647 516l87 -35q14 -5 6 -11q-21 -9 -30 -21v-67h187l30 39l62 -49
q7 -5 6 -8q-1 -2 -12 -2h-244q19 -42 53 -90q33 -48 70 -81q38 -33 77 -49q39 -18 79 -21l-1 -14q-28 0 -45 -5q-16 -4 -30 -22q-54 29 -97 72q-44 46 -78 103q-23 37 -49 107h-8v-242l3 -57q0 -21 -13 -30t-39 -14q4 37 7 147v157q-103 -165 -311 -246l-6 12
q194 96 291 273h-139q-27 0 -45 -13l-34 33h244v77q2 16 -31 46zM100 84l-43 56l166 50v273h-92q-28 0 -46 -13l-34 33h172v142h-32q-27 0 -45 -13l-35 33h195l24 33l57 -43q8 -5 6 -8q-2 -2 -13 -2h-119v-142h71l26 34l57 -44q7 -5 6 -8q-1 -2 -12 -2h-148v-188l28 37
q47 66 43 75q-3 12 -11 27l6 9l73 -40q15 -10 5 -16q-18 0 -40 -9q-46 -53 -104 -106v-50l129 39l4 -14q-36 -14 -93 -37q-75 -30 -93 -37q-47 -15 -68 -28q-22 -11 -40 -41zM46 590l-8 10q51 60 98 136q45 75 70 143q24 69 21 80q-4 11 -15 26l6 8l84 -32q6 -4 5 -8
q0 -3 -7 -5q-21 -3 -35 -16q-3 -8 -9 -23l-9 -24q37 -13 68 -31q36 -21 56 -49q22 -28 16 -49q-7 -21 -22 -21t-24 28q-9 29 -35 60q-24 27 -64 48q-30 -71 -64 -127q-45 -75 -132 -154zM65 405l10 8q46 -31 71 -65q24 -34 24 -69q0 -36 -19 -39q-19 -4 -19 23t-10 60
q-9 33 -57 82z" />
  </g>

</svg>
