<?xml version="1.0" standalone="no"?>
<!DOCTYPE svg PUBLIC "-//W3C//DTD SVG 1.1//EN" "http://www.w3.org/Graphics/SVG/1.1/DTD/svg11.dtd" >
<svg xmlns="http://www.w3.org/2000/svg" xmlns:xlink="http://www.w3.org/1999/xlink" version="1.1" viewBox="0 -205 1024 1024">
  <g transform="matrix(1 0 0 -1 0 819)">
   <path fill="currentColor"
d="M74 472h155v150h-25q-27 1 -45 -13l-30 30q-44 -60 -97 -105l-8 10q38 46 93 139q57 93 80 169q24 78 21 89t-14 26l6 6l83 -29q6 -4 5 -6q0 -3 -7 -5q-21 -3 -27 -19q-2 -5 -6 -17l-6 -18q53 -15 92 -40q53 -33 72 -73q17 -46 -15 -55q-17 -1 -26 30q-9 33 -41 68
q-30 32 -87 56q-37 -95 -84 -173q-15 -26 -32 -50h176l24 31l55 -41q8 -5 7 -8q-2 -2 -14 -2h-114v-150h86l24 30l47 -40q8 -5 7 -8q-2 -2 -13 -2h-151v-227l34 53q38 59 35 70q-3 12 -11 27l6 8l67 -41q15 -9 5 -15q-18 3 -32 -7q-41 -52 -104 -120v-32l159 37l4 -13
q-39 -12 -104 -33q-93 -28 -116 -36q-59 -20 -83 -29q-23 -9 -41 -39l-49 59l194 45v293h-75q-27 1 -46 -13zM809 709l16 17q30 41 31 48q1 8 -7 23l8 7l61 -34q11 -10 1 -15q-10 1 -34 -7q-30 -30 -53 -49q20 -8 43 -22q106 -67 69 -106q-16 -14 -45 23q-29 38 -74 70
q-53 35 -148 71q-21 -41 -67 -87q-66 -67 -191 -105l-4 12q111 53 166 113q69 72 87 167h-171q-27 1 -45 -13l-34 33h254q3 20 4 42q3 42 -1 53q-3 11 -18 24l6 11l89 -30q6 -2 5 -7q-2 -5 -9 -6q-13 2 -28 -15q-2 -41 -6 -72h173l33 41l68 -51q8 -5 7 -8q-2 -2 -13 -2h-271
q-9 -46 -25 -82q83 -26 123 -44zM501 131l-44 44l228 95v133q-1 23 -26 38l8 11l80 -30q9 -4 11 -7q2 -4 -4 -7q-18 -5 -31 -16v-121q4 -1 12 -2q7 -2 10 -2l21 19q64 64 64 73t-8 20l8 6l60 -39q13 -10 1 -15q-17 3 -37 -3q-47 -42 -85 -67q41 -12 76 -33q111 -68 77 -106
q-17 -14 -38 20q-20 31 -64 63q-42 32 -97 51v-137q1 -72 -74 -85q-8 24 -28 32q-19 8 -78 22v16l46 -8q47 -6 71 -5t25 60v94l-60 -29q-78 -39 -95 -50q-17 -10 -29 -35zM423 326l-8 10q158 103 228 225q29 51 27 62q-2 14 -11 27l8 6l82 -32q6 -3 5 -8q-1 -6 -8 -6
q-16 0 -31 -13q10 -14 35 -43q6 -6 8 -9q46 -57 102 -90q60 -38 138 -46l-2 -16q-64 4 -65 -29q-62 34 -101 64q-40 31 -78 77q-30 36 -50 72q-93 -162 -279 -251zM77 358l10 8q88 -55 87 -125q0 -34 -19 -39q-19 -3 -19 23q0 27 -7 58q-9 32 -52 75zM469 798l4 10
q86 -25 101 -63q20 -44 -14 -53q-15 -1 -18 19t-17 38q-13 19 -56 49zM529 356l6 9q83 -17 94 -70q6 -27 -13 -31t-23 15t-14 35q-10 17 -50 42z" />
  </g>

</svg>
