<?xml version="1.0" standalone="no"?>
<!DOCTYPE svg PUBLIC "-//W3C//DTD SVG 1.1//EN" "http://www.w3.org/Graphics/SVG/1.1/DTD/svg11.dtd" >
<svg xmlns="http://www.w3.org/2000/svg" xmlns:xlink="http://www.w3.org/1999/xlink" version="1.1" viewBox="0 -200 1000 1000">
  <g transform="matrix(1 0 0 -1 0 800)">
   <path fill="currentColor"
d="M251 991q18 -9 30.5 -16t28.5 -24l-31 -7q-12 -8 -30.5 -23.5t-39 -32.5t-39.5 -32.5t-31 -22.5q34 0 78 0.5t80 3.5q10 11 19.5 21.5t30.5 32.5l61 -49l-38 -8q-32 -20 -57.5 -36t-47.5 -29.5t-42.5 -25t-44.5 -23.5l182 13q-2 5 -8.5 13t-21.5 22l2 3q25 -8 46.5 -19.5
t37.5 -23.5t24.5 -24t8.5 -21q0 -8 -5 -13t-11.5 -9t-13 -5.5t-8.5 -1.5q-10 0 -16.5 7.5t-11 17t-7.5 19.5t-7 16q-85 -7 -145.5 -22t-111.5 -35l-55 60q47 2 77 8t52.5 17.5t43 30t47.5 44.5q-39 -2 -80.5 -9t-81.5 -21l-49 43q5 -1 8 -1.5t5 -0.5q24 0 51 19t51 44.5
t42 50.5t23 36zM322 672q54 -28 79.5 -47t25.5 -39q0 -7 -13 -20t-31 -13q-9 0 -12 11.5t-7 28.5t-13 37.5t-29 37.5h-5zM217 655q28 -11 44 -26.5t23.5 -29.5t9 -24.5t1.5 -11.5q0 -14 -7.5 -26t-27.5 -12q-11 0 -21 7t-10 17q0 14 4 26.5t4 24.5q0 13 -3 25t-13 27z
M137 624q2 -20 4 -37t2 -31q0 -36 -16 -50.5t-41 -14.5q-10 0 -18 3.5t-8 14.5q0 7 8.5 14t20 19t24.5 31t22 51h2zM519 896l-27 25h176v34l-10 46l81 -20l-16 -40v-20h131l41 33l61 -48h-278l61 -44l-44 -18l-111 -73q57 4 116.5 8.5t122.5 6.5q-2 6 -5 13.5t-8 15.5
t-14 16.5t-24 17.5l5 1q46 -19 72 -34.5t38.5 -26.5t15 -18.5t2.5 -11.5v-1q0 -5 -4.5 -11.5t-11 -12.5t-13 -10.5t-10.5 -4.5q-7 0 -10 8l-26 53q-88 -11 -166.5 -25t-135.5 -25l-47 35l79 5q42 32 67.5 65t44.5 71h-108zM804 707l-21 -36v-72q0 -16 7 -26t22 -10h76
q8 0 14 7.5t9.5 19.5t5.5 27.5t2 31.5v13t-1 12l12 2q0 -36 3.5 -56.5t8.5 -31.5t11.5 -15t11.5 -5.5t8.5 -3.5t3.5 -10q0 -7 -7.5 -11.5t-18 -7.5t-22 -4t-19.5 -1h-127q-45 8 -49 48v157zM655 661q-32 -38 -67.5 -62.5t-72 -40.5t-75 -25t-76.5 -17l-9 3q32 9 73 24.5
t79 41t67 62t38 88.5l70 -36zM58 228q145 66 252.5 147.5t186.5 172.5l65 -47l-36 -18q55 -51 102.5 -86.5t96 -59.5t102 -39.5t121.5 -26.5l1 -11q-16 -4 -25.5 -9t-17 -10t-15.5 -11t-21 -12q-54 25 -91 44t-64.5 36t-48 33.5t-42 37t-46.5 46t-61 60.5q-42 -39 -93.5 -76
t-110 -70.5t-121.5 -61.5t-127 -48zM527 63h68q23 28 40.5 59t32.5 69l75 -30v-9q-32 0 -115 -89h183l51 34l74 -54h-764l-61 -13l-28 33h390v148h-170l-59 -10l-15 28h244v76h-97l-47 -14l-28 35h309l41 37l60 -58h-184v-75h167l47 35l70 -54h-284v-148zM347 69
q-7 5 -7.5 14.5t-4 24t-14.5 33t-39 41.5l4 6q57 -19 82.5 -42t25.5 -50q0 -33 -24 -33q-10 0 -23 6z" />
  </g>

</svg>
