<?xml version="1.0" standalone="no"?>
<!DOCTYPE svg PUBLIC "-//W3C//DTD SVG 1.1//EN" "http://www.w3.org/Graphics/SVG/1.1/DTD/svg11.dtd" >
<svg xmlns="http://www.w3.org/2000/svg" xmlns:xlink="http://www.w3.org/1999/xlink" version="1.1" viewBox="0 -200 1000 1000">
  <g transform="matrix(1 0 0 -1 0 800)">
   <path fill="currentColor"
d="M292 699l54 -73h-113v-172h48l38 50l50 -73h-136v-219q12 25 32.5 70.5t37.5 111.5l49 -63l-26 -23l-93 -132v-54l142 55l2 -18q-37 -19 -76.5 -40t-76.5 -41.5t-69 -40.5t-53 -37l-49 63q15 3 33.5 8.5t37.5 12t37 13.5t30 12v322h-57l-41 -11l-16 34h114v172h-62
q-20 -33 -39 -64t-41 -49l-6 8q29 51 53.5 110.5t44 121.5t33.5 125.5t23 123.5l64 -43l-26 -39l-4 -20q64 -34 102.5 -68.5t39.5 -56.5v-6q0 -7 -1.5 -16.5t-4.5 -18t-7 -14.5t-9 -6q-8 0 -18 18q-11 23 -21.5 42.5t-22 37t-26.5 35.5t-35 38q-20 -63 -39.5 -122
t-47.5 -113h113zM99 354q32 -49 48.5 -83.5t16.5 -63.5q0 -26 -16 -51q-11 -14 -19 -14q-13 0 -15 44q-2 34 -7.5 75t-15.5 86zM345 221q18 42 33 86t26 86t18.5 79.5t10.5 67.5l-28 -4l-7 25h37q4 43 9 156h-33l-25 -5l-11 27h69q1 38 1.5 66t0.5 53v22.5t-1 20.5h-12
l-27 -8l-16 31h162l31 39l52 -51l-29 -32v-138h6l29 30l38 -56h-73v-176h-129q-4 -29 -9.5 -57.5t-9.5 -46.5l20 -29h78l34 35l45 -54l-29 -29v-253h-132v-78q-8 -12 -20.5 -19.5t-22.5 -9.5v364q-16 -45 -35 -83.5t-39 -64.5zM474 370v-244h89v259h-83zM489 716
q-2 -28 -2.5 -48t-1 -37t-1.5 -33t-4 -37h83v156h-74v-1zM492 885q-1 -35 -1.5 -71t-1.5 -74h74v161h-65zM871 1002l41 -57l-13 -20q-5 -12 -13 -30t-17 -40.5t-18 -47.5t-16 -50h27l32 38l45 -58h-119l-6 -22v-147h38l33 37l37 -59h-108v-189h63l34 40l48 -64h-145v-291
q-5 -14 -19.5 -23t-25.5 -12v326h-61l-44 -9l-16 33h121v188h-45l-40 -8l-17 30h102v169h-52l-39 -10l-14 30l150 1q17 57 27 116.5t18 123.5zM708 989q42 -64 57.5 -108t15.5 -62q0 -14 -4.5 -25.5t-11 -20t-13 -13t-10.5 -4.5q-2 0 -5 23.5t-7.5 58t-11.5 74.5t-17 72z
" />
  </g>

</svg>
