<?xml version="1.0" standalone="no"?>
<!DOCTYPE svg PUBLIC "-//W3C//DTD SVG 1.1//EN" "http://www.w3.org/Graphics/SVG/1.1/DTD/svg11.dtd" >
<svg xmlns="http://www.w3.org/2000/svg" xmlns:xlink="http://www.w3.org/1999/xlink" version="1.1" viewBox="0 0 2048 2048">
  <g transform="matrix(1 0 0 -1 0 2048)">
   <path fill="currentColor"
d="M1320 1299l91 -20q80 -18 85 -44q6 -25 -50 -43l-40 -14v-982h343l98 101l121 -107q20 -18 16 -33q-6 -19 -26 -19h-962q-117 0 -191 -8l-39 88q97 -22 230 -22h314v947q0 103 -7 156h-315q-72 0 -149 -10l-39 86q27 -4 41 -6q86 -13 147 -13h42v286q0 119 -8 158
l109 -24q83 -18 86 -43q3 -30 -50 -44l-42 -11v-322h242v429q0 117 -7 160l109 -24q83 -19 85 -44q4 -29 -49 -44l-41 -11v-185h158l98 102l121 -107q21 -18 16 -33q-6 -19 -26 -19h-367v-224h270l98 102l121 -107q20 -18 15 -33q-6 -19 -25 -19h-623zM1077 1038
q44 -23 106 -64q93 -61 93 -114q0 -41 -28 -56q-38 -20 -69 38q-38 74 -124 153q-71 -127 -218 -211l-20 32q159 137 206 402l72 -20q95 -26 95 -50q0 -23 -43 -32l-40 -8q-16 -40 -30 -70zM1073 603q44 -24 106 -64q93 -62 93 -114q0 -41 -28 -57q-38 -20 -69 38
q-40 79 -124 153q-73 -128 -218 -211l-20 33q160 137 206 402l72 -20q95 -26 95 -50q0 -23 -43 -32l-40 -9q-16 -40 -30 -69zM1690 1023q40 -21 107 -64q93 -61 93 -114q0 -41 -29 -56q-38 -20 -68 38q-38 73 -124 153q-72 -128 -219 -211l-19 32q164 140 209 406l89 -28
q75 -24 75 -46q0 -23 -44 -32l-40 -9q-16 -40 -30 -69zM1686 588q41 -22 107 -65q93 -60 93 -113q0 -41 -29 -57q-38 -20 -68 38q-38 74 -124 153q-72 -127 -219 -211l-19 32q160 138 206 403l72 -20q95 -26 95 -51q0 -22 -44 -32l-40 -8q-16 -40 -30 -69zM395 300v615h-93
q-60 0 -148 -11l-40 85q28 -3 41 -5q86 -13 147 -13h93v279h-13q-70 0 -149 -10l-39 86q125 -17 188 -17h127l86 88l124 -94q21 -17 15 -34q-5 -19 -26 -19h-218v-279h77l85 90l124 -95q21 -15 16 -32q-6 -19 -26 -19h-276v-593q181 48 287 86l14 -40q-154 -79 -400 -159
q-100 -33 -158 -53l-11 -42q-8 -32 -25 -31q-12 0 -29 31l-70 130q140 22 297 56zM464 1815q360 -247 324 -368q-11 -35 -43 -36q-29 -2 -52 25q-10 12 -33 63q-60 130 -212 275q-70 -184 -144 -295q-71 -106 -214 -231l-24 28q256 283 308 653l133 -32q48 -12 51 -32
q5 -26 -39 -32l-49 -7zM637 802l139 -37q31 -8 33 -25q1 -20 -24 -28l-67 -19q-70 -158 -153 -270l-34 16q65 155 106 363zM136 785q189 -185 201 -297q5 -49 -19 -73q-25 -24 -50 -19q-37 8 -41 81q-4 81 -40 160q-14 31 -78 127z" />
  </g>

</svg>
