<?xml version="1.0" standalone="no"?>
<!DOCTYPE svg PUBLIC "-//W3C//DTD SVG 1.1//EN" "http://www.w3.org/Graphics/SVG/1.1/DTD/svg11.dtd" >
<svg xmlns="http://www.w3.org/2000/svg" xmlns:xlink="http://www.w3.org/1999/xlink" version="1.1" viewBox="0 -205 1024 1024">
  <g transform="matrix(1 0 0 -1 0 819)">
   <path fill="currentColor"
d="M932 554v-457q7 -52 -55 -69q-6 41 -93 42v15q81 -7 91 -7q11 0 18 6q8 6 7 78v403h-191v-413l2 -67q3 -39 -41 -46q5 39 7 136v390h-192v-416l4 -79q2 -37 -43 -46q5 39 7 134v421q-1 8 -3 12q-33 -16 -72 -33l-6 12q78 45 132 85q54 41 57 50q5 10 -3 19l10 7l52 -33
q7 -5 7 -9q0 -3 -7 -5q-16 3 -27 -5q-5 -4 -45 -30q-15 -10 -23 -15q-26 -17 -58 -34l13 -17h197v159h-197q-27 1 -45 -13l-32 31h206v189q2 17 -25 36l8 11l68 -28q14 -5 6 -11q-16 -4 -27 -18v-179h110v189q2 17 -23 36l8 11l66 -28q14 -5 6 -11q-16 -4 -27 -18v-179h120
l26 36l64 -44q8 -5 7 -8q-2 -2 -13 -2h-274v-159h183l16 25l32 -24q9 -6 9 -11q0 -4 -9 -8zM97 618h186l24 30l54 -38q8 -5 7 -8q-2 -2 -13 -2h-118v-152h78l24 30l54 -38q8 -5 7 -8q-2 -2 -13 -2h-150v-235l36 55q52 80 49 92q-3 13 -11 28l7 9l64 -40q15 -9 5 -15
q-18 2 -33 -9q-48 -71 -117 -145v-30l154 38l4 -14q-160 -46 -197 -58t-62 -24t-39 -38l-43 49l153 40v297h-73q-27 1 -45 -13l-34 31h152v152h-31q-27 1 -45 -13zM285 930q6 -4 5 -6q0 -3 -7 -5q-16 -4 -30 -18q-3 -7 -8 -21q-8 -20 -12 -29q38 -15 70 -32q79 -45 81 -97
q-3 -19 -17 -21q-13 -1 -27 26q-13 28 -44 59q-27 28 -69 50q-31 -70 -65 -125q-50 -80 -131 -157l-8 10q50 56 94 132t72 145q29 69 24 80q-4 11 -15 26l6 8zM606 552l42 -18q7 -4 8 -6q0 -3 -5 -5q-7 -1 -18 -6q-5 -10 -16 -30q-9 -16 -13 -24q23 -27 35 -49q20 -32 7 -50
q-17 -12 -31 25q-7 21 -26 49q-43 -67 -87 -97l-6 7q47 55 77 112q-27 35 -61 62l6 10q40 -23 67 -49q20 41 18 48q-1 10 -6 17zM828 550l42 -18q7 -4 8 -6q0 -3 -5 -5q-7 -1 -18 -6q-5 -10 -16 -30q-9 -16 -13 -24q23 -27 35 -49q20 -32 7 -50q-17 -12 -31 25q-7 21 -26 49
q-43 -67 -87 -97l-6 7q47 55 77 112q-27 35 -61 62l6 10q40 -23 67 -49q20 41 18 48q-1 10 -6 17zM610 342l42 -18q7 -4 8 -6q0 -3 -5 -5q-7 -1 -18 -6q-5 -10 -16 -30q-9 -16 -13 -24q23 -27 35 -49q20 -31 7 -48q-17 -11 -31 24q-7 21 -27 49q-43 -67 -86 -95l-6 7
q47 53 77 109q-27 35 -61 62l6 10q40 -23 67 -49q20 41 18 48q-1 10 -6 17zM832 340l42 -18q7 -4 8 -6q0 -3 -5 -5q-7 -1 -18 -6q-5 -10 -16 -30q-9 -16 -13 -24q23 -27 35 -49q20 -31 7 -48q-17 -11 -31 24q-7 21 -27 49q-43 -67 -86 -95l-6 7q47 53 77 109q-27 35 -61 62
l6 10q40 -23 67 -49q20 41 18 48q-1 10 -6 17zM767 704v13q260 -66 230 -146q-13 -8 -32 16q-18 25 -69 58q-51 34 -129 59zM70 350l10 8q91 -60 90 -133q0 -34 -16 -38q-15 -3 -20 30q-10 81 -64 133zM880 945l56 -34q8 -6 8 -10t-8 -6q-8 2 -22 -4q-16 -30 -82 -118l-16 4
q71 128 68 140q0 8 -10 18zM450 941q92 -52 100 -111q4 -28 -14 -36q-18 -7 -23 23t-20 56t-51 56z" />
  </g>

</svg>
