<?xml version="1.0" standalone="no"?>
<!DOCTYPE svg PUBLIC "-//W3C//DTD SVG 1.1//EN" "http://www.w3.org/Graphics/SVG/1.1/DTD/svg11.dtd" >
<svg xmlns="http://www.w3.org/2000/svg" xmlns:xlink="http://www.w3.org/1999/xlink" version="1.1" viewBox="0 -200 1000 1000">
  <g transform="matrix(1 0 0 -1 0 800)">
   <path fill="currentColor"
d="M691 913v-163h45v178h-39zM777 750h47v178h-47v-178zM865 750h38v178h-38v-178zM876 642l46 -62h-106v-101h76l31 42l44 -62h-102l21 -47l-20 -27l-47 -84h30l38 41l44 -61h-114v-119h62l38 40l48 -60h-148v-128q-6 -12 -18 -15t-23 -5v148h-100l-32 -14l-14 34h146v119
h-51l-31 -15l-16 35h132q16 46 25 86t13 72h-135q30 -32 42 -59.5t12 -51.5q0 -6 -1 -13.5t-3 -14t-4.5 -11.5t-5.5 -5q-7 0 -10.5 12t-7.5 33t-9 49t-15 61h-34l-38 -15l-18 35h155v101h-41l-35 -14l-17 34h93v129h-85v-31q-11 -12 -23.5 -20.5t-20.5 -8.5v310l50 -31h198
l26 39l43 -54l-18 -31v-183q-6 -12 -19 -21t-24 -9v40h-119l45 -25l-13 -73v-31h32zM519 31q-11 -20 -21 -25.5t-19 -10.5v411q-11 -77 -25.5 -132.5t-31 -97t-35 -71t-36.5 -53.5l-2 3q38 85 63.5 190.5t35.5 217.5h-43l-37 -13l-14 39h125v363q17 -8 32 -15.5t22 -19.5
l-15 -76v-252h47l30 42l40 -68h-116v-432zM608 910l-27 -6q-38 -19 -68 -31.5t-55.5 -20t-47.5 -11.5t-44 -7l-12 5q85 32 142 74.5t88 84.5zM579 210q-3 14 -5 35.5t-6.5 49.5t-14 61t-27.5 71v3q18 -28 35 -53t29.5 -49t20.5 -48t8 -49q0 -9 -1.5 -19.5t-4.5 -20t-7.5 -16
t-10.5 -6.5q-5 0 -11 5t-6 23q0 2 0.5 4.5t0.5 5.5v3zM578 791q13 -11 27 -28t18 -31l-25 -40q-13 -47 -28 -88t-32 -89l-7 9q13 57 24.5 123t22.5 144zM461 527q-6 -21 -15 -21q-11 0 -14 21.5t-6 57t-9.5 80t-24.5 90.5l-1 5q15 -18 28.5 -42t23.5 -51t16 -55t6 -53
q0 -24 -4 -32zM297 696l58 -73h-121v-170h51l40 48l54 -71h-145v-218q12 25 34 70t40 111l53 -63l-28 -23l-99 -131v-52l152 53l2 -16q-39 -19 -81 -40.5t-81.5 -42.5t-74 -40.5t-58.5 -35.5l-51 63q16 3 36.5 8.5t42 12.5t40.5 13.5t32 11.5v319h-65l-42 -11l-20 34h127
v170h-70q-21 -33 -42 -64t-44 -49l-6 8q32 51 59.5 109.5t49.5 120.5t38.5 125t26.5 123l59 -43l-26 -39l-7 -20q69 -34 110 -67.5t42 -55.5q0 -2 0.5 -4t0.5 -4q0 -7 -2 -16t-5.5 -17t-8 -13.5t-9.5 -5.5q-11 0 -18 18q-11 23 -22 42t-24 36.5t-29 34.5t-37 37
q-23 -61 -43.5 -119.5t-49.5 -112.5h120zM92 353q35 -48 51 -81t16 -60q0 -28 -17 -54q-11 -14 -17 -14q-9 0 -12 42q-2 34 -10 74.5t-19 85.5z" />
  </g>

</svg>
