<?xml version="1.0" standalone="no"?>
<!DOCTYPE svg PUBLIC "-//W3C//DTD SVG 1.1//EN" "http://www.w3.org/Graphics/SVG/1.1/DTD/svg11.dtd" >
<svg xmlns="http://www.w3.org/2000/svg" xmlns:xlink="http://www.w3.org/1999/xlink" version="1.1" viewBox="0 0 2048 2048">
  <g transform="matrix(1 0 0 -1 0 2048)">
   <path fill="currentColor"
d="M337 883h423l99 101l120 -107q21 -18 16 -33q-6 -19 -26 -19l-554 1q-112 -289 -246 -485q306 32 601 121q-44 107 -111 197l27 22q120 -135 156 -189q63 -96 63 -160q0 -86 -56 -82q-41 3 -49 67q-6 57 -16 105q-218 -93 -578 -179q-4 -65 -33 -57q-24 6 -41 47l-39 93
q123 190 209 499l-84 1q-51 1 -140 -9l-38 88q99 -23 159 -22l42 1v789l-4 74q-4 67 -10 103l122 -91l377 -2l95 104l121 -107q20 -18 15 -33q-6 -19 -26 -19h-594v-238h305l99 101l120 -107q21 -18 16 -33q-6 -19 -26 -19h-514v-223h324l99 101l121 -107q20 -18 15 -33
q-6 -19 -26 -19h-533v-242zM1450 1070q64 -295 158 -480q103 -202 228 -311q55 -48 159 -89l-1 -33q-58 2 -89 -13t-56 -57q-306 272 -415 836q-63 -348 -247 -567q-128 -153 -365 -280l-19 33q184 122 272 222q213 242 269 639q34 240 16 421l141 -23q32 -5 36 -26
q4 -26 -34 -37l-44 -14q-3 -132 -9 -221zM1243 1550l569 1l49 71l103 -86q19 -16 21 -30q2 -25 -40 -33l-45 -8q-108 -181 -190 -273l-33 25q13 23 19 35q63 122 106 244h-580q-81 -186 -225 -355l-32 28q133 198 196 403q51 166 79 375l105 -36q68 -24 72 -44
q4 -21 -44 -33l-47 -11q-34 -149 -83 -273z" />
  </g>

</svg>
