<?xml version="1.0" standalone="no"?>
<!DOCTYPE svg PUBLIC "-//W3C//DTD SVG 1.1//EN" "http://www.w3.org/Graphics/SVG/1.1/DTD/svg11.dtd" >
<svg xmlns="http://www.w3.org/2000/svg" xmlns:xlink="http://www.w3.org/1999/xlink" version="1.1" viewBox="0 -200 1000 1000">
  <g transform="matrix(1 0 0 -1 0 800)">
   <path fill="currentColor"
d="M890 995l60 -49l-31 -41q-3 -91 -9 -166t-21 -130.5t-43 -89.5t-74 -43v5q0 17 -16 40.5t-54 41.5l4 3q27 -10 45.5 -14t30.5 -4q21 0 35.5 20.5t23.5 54t13.5 75t7 84t3 81t1.5 65.5h-108q-2 -32 -3.5 -55t-4 -43.5t-7 -42t-11.5 -49.5q28 -12 43.5 -25.5t23 -26.5
t9.5 -24.5t2 -18.5v-6q0 -12 -4 -20.5t-11 -8.5q-4 0 -15.5 13t-24.5 29.5t-24.5 30.5t-14.5 16q-20 -43 -48.5 -84t-62 -74.5t-70.5 -57t-73 -31.5h-6q42 27 76 61t61 70.5t46.5 73.5t32.5 69l1 1q0 5 -15 13.5t-35.5 18t-41 18t-31.5 13.5l1 1q46 -7 76.5 -14t56.5 -18
q11 40 16 83t5 88h-85l-45 -12l-26 32h308zM779 94h2q17 0 17 26q0 15 -4.5 36.5t-11 48t-14 57.5t-13.5 64h4q17 -65 29.5 -107t22 -67t17 -37t14 -17.5t13 -8.5t14.5 -10q2 -2 2 -7q0 -12 -22.5 -16.5t-46.5 -4.5h-164q-3 0 -6 -0.5t-5 -0.5q-33 0 -40 20.5t-7 62.5v274
l66 -35l-16 -51v-178q1 -17 7 -33t20 -16h3h119zM831 351q20 -18 41 -38t39 -41.5t32 -44t20 -44.5v-2q0 -28 -7.5 -42t-16.5 -14q-17 0 -27 36q-15 60 -35 108.5t-46 81.5zM508 348q16 -68 16 -129q0 -43 -12.5 -64.5t-38.5 -27.5q-10 4 -18 8t-8 12q0 7 9 22
q10 16 19 37.5t16 45.5t11.5 49t5.5 49v-2zM726 335q-11 2 -16.5 5t-8.5 7.5t-4.5 10.5t-4.5 14q-10 21 -19 34t-17.5 22t-16.5 15.5t-17 13.5l-1 8q23 -5 45.5 -13.5t40.5 -21t29 -28t11 -33.5q0 -14 -4.5 -24t-12.5 -10h-4zM410 991l61 -69h-271l-7 -15v-92h128l52 44
l56 -65h-236v-123h142l52 47l58 -71h-252v-122h193l49 45l60 -69h-354l-62 -13l-19 37h78v466l65 -48h163zM139 143v353l71 -42l-21 -51v-236l111 69v-18q-52 -45 -103.5 -93t-93.5 -87l-59 55zM250 501q21 -78 41.5 -146.5t50 -123t72.5 -94t109 -59.5q-11 0 -25.5 -4.5
t-29 -11t-28 -15.5t-22.5 -18q-35 35 -65.5 84.5t-54 110t-39 130.5t-19.5 146zM442 326q-23 -14 -53 -32.5t-58 -38.5l-1 15q22 26 37.5 46.5t27.5 37.5t21 32t18 29l32 -78z" />
  </g>

</svg>
