<?xml version="1.0" standalone="no"?>
<!DOCTYPE svg PUBLIC "-//W3C//DTD SVG 1.1//EN" "http://www.w3.org/Graphics/SVG/1.1/DTD/svg11.dtd" >
<svg xmlns="http://www.w3.org/2000/svg" xmlns:xlink="http://www.w3.org/1999/xlink" version="1.1" viewBox="0 -205 1024 1024">
  <g transform="matrix(1 0 0 -1 0 819)">
   <path fill="currentColor"
d="M587 988l33 -45h228l28 43l51 -42q9 -6 9 -11q0 -4 -9 -8l-21 -13v-821q2 -26 -12 -48q-12 -22 -71 -31q-4 30 -46 46q-42 15 -81 23l2 14q113 -17 132 -17q20 0 27 6q8 6 7 71v557h-239q-2 -13 -11 -21q-10 -10 -33 -15q1 8 3 23q2 16 4 40v199q-5 24 -16 40zM99 988
l38 -44h242l22 35l42 -39q7 -6 5 -10q-1 -5 -11 -7l-14 -13v-161l4 -24q5 -39 -42 -44v32h-239v-559l5 -96q2 -36 -54 -46q5 39 7 189v735q-4 28 -20 41zM446 416l60 -33q7 -9 -4 -12q-27 2 -44 -22l-19 -23h281l20 30l60 -38q8 -5 7 -8q-2 -2 -13 -2h-141q-42 -58 -90 -96
q43 -14 82 -32q80 -40 56 -73q-13 -12 -36 9q-21 21 -60 41q-34 19 -71 34q-46 -30 -108 -51q-79 -31 -185 -43v14q42 10 120 36q17 4 25 7q59 21 107 52q-67 23 -150 39l6 9q21 29 40 54h-96q-27 1 -45 -13l-28 31h182q12 16 19 25q20 29 22 37q3 10 -7 22zM628 687l68 -48
q9 -10 9 -15t-9 -6q-36 10 -85 4q-41 -8 -89 -13v-73h167l22 28l56 -36q8 -5 7 -8q-2 -2 -13 -2h-199q87 -76 238 -87l-1 -12q-51 -2 -58 -29q-143 47 -204 128h-15v-22l2 -46q3 -36 -49 -44q5 37 7 76v36h-25q-40 -46 -87 -80q-50 -37 -160 -70l-4 12q78 33 123 66
q41 30 80 72h-89q-27 1 -45 -13l-34 31h241v69q-7 0 -22 -1q-15 0 -23 -1q-99 -5 -153 -1v15q104 3 177 13q6 1 17 3q76 11 90 15q3 1 7 2q50 10 46 35zM146 836h239v90h-239v-90zM626 835h238v90h-238v-90zM385 820h-239v-89h239v89zM864 819h-238v-89h238v89zM383 257
q75 -13 137 -31q46 37 76 82h-172l-2 -3z" />
  </g>

</svg>
