<?xml version="1.0" standalone="no"?>
<!DOCTYPE svg PUBLIC "-//W3C//DTD SVG 1.1//EN" "http://www.w3.org/Graphics/SVG/1.1/DTD/svg11.dtd" >
<svg xmlns="http://www.w3.org/2000/svg" xmlns:xlink="http://www.w3.org/1999/xlink" version="1.1" viewBox="0 0 2048 2048">
  <g transform="matrix(1 0 0 -1 0 2048)">
   <path fill="currentColor"
d="M998 972l9 20q74 157 101 248l111 -42q44 -17 46 -38q1 -25 -40 -32q-8 -1 -15 -2q-10 -1 -31 -4q-68 -101 -105 -150h367l68 76l83 -54q40 -26 40 -48q0 -32 -79 -62v-423q0 -48 6 -104q4 -27 4 -44q0 -46 -57 -50q-46 -4 -48 25l-1 26h-498l1 -31q0 -46 -69 -40
q-42 4 -39 52l4 55q8 135 8 142v546l122 -66h12zM959 372h498v253h-498v-253zM959 681h498v235h-498v-235zM178 1919l114 -76h470l68 76l80 -55q42 -29 40 -48q-2 -22 -77 -61v-259q0 -47 7 -104q3 -26 3 -44q0 -41 -57 -49q-47 -6 -47 25l-1 40h-494v-1261q0 -34 -50 -31
q-60 3 -56 59l5 57l3 80l4 76l-1 1434q0 33 -11 141zM284 1635h494v150h-494v-150zM284 1420h494v158h-494v-158zM1169 1913l109 -72l477 2l68 76l84 -55q40 -26 40 -48q0 -32 -80 -61v-1518q0 -139 -155 -170q-12 66 -36 81.5t-156 42.5l8 46q140 -13 175 -15q69 -4 69 57
v1085h-509l1 -7q3 -45 -69 -39q-42 3 -39 52l4 55q8 130 8 142zM1263 1635h509v150h-509v-150zM1263 1420h509v158h-509v-158zM722 1285l106 -42q60 -24 57 -45q-4 -19 -44 -25q-9 -1 -17 -2q-10 -1 -31 -4q-28 -64 -132 -235l30 -11q45 -17 38 -39q-6 -16 -61 -38v-406
q0 -109 8 -179q6 -56 -61 -56q-42 0 -42 33l1 575q-103 -111 -189 -170l-23 30q132 129 235 326q82 158 125 288z" />
  </g>

</svg>
