<?xml version="1.0" standalone="no"?>
<!DOCTYPE svg PUBLIC "-//W3C//DTD SVG 1.1//EN" "http://www.w3.org/Graphics/SVG/1.1/DTD/svg11.dtd" >
<svg xmlns="http://www.w3.org/2000/svg" xmlns:xlink="http://www.w3.org/1999/xlink" version="1.1" viewBox="0 -205 1024 1024">
  <g transform="matrix(1 0 0 -1 0 819)">
   <path fill="currentColor"
d="M918 925v-835q0 -26 -12 -45t-69 -28q-4 30 -46 43q-42 12 -81 20l2 14q113 -17 132 -17q20 0 27 6q8 6 7 70v566h-248q-1 -15 -12 -22q-12 -10 -34 -15q5 39 7 127v140q-4 24 -18 42l15 12l37 -51h237l30 39l46 -34q9 -6 9 -11q0 -4 -9 -8zM84 999l37 -46h236l35 41
l48 -47q7 -5 5 -9q-1 -4 -11 -6l-18 -9v-124l4 -70q7 -41 -44 -44v34h-247v-561l4 -95q1 -35 -51 -46q5 39 7 187v743q-4 28 -20 41zM220 517q3 23 -19 39l5 7l69 -34q8 -2 10 -5t-3 -7q-19 -4 -30 -16v-338h237v496q2 17 -23 36l8 11l70 -28q14 -5 6 -11q-16 -4 -27 -18
v-486h240v333q2 17 -28 42l9 8l75 -28q14 -5 6 -11q-21 -7 -30 -21v-241l4 -88q1 -32 -36 -44v34h-498l-31 -42l-44 40q26 20 30 40v332zM545 603h193l20 27l51 -38q5 -5 3 -6q-1 -2 -11 -1h-126l21 -12q15 -9 5 -15q-14 3 -25 -1q-13 -16 -25 -31q33 -37 49 -67
q35 -65 33 -137q-1 -37 -19 -75t-64 -55q-3 30 -78 39v12q7 -1 19 -3q64 -10 79 4q28 26 30 95q0 19 -5 43q-18 -25 -47 -52q-44 -41 -94 -65l-4 10q44 32 84 75q34 37 52 67q-6 20 -14 37q-21 -30 -48 -56q-34 -33 -74 -59l-4 10q36 34 66 71q27 33 44 64q-8 15 -17 28
q-48 -54 -93 -81l-6 8q47 46 77 89q31 44 32 51q0 3 -1 6h-26q-27 1 -45 -13zM215 603h201l14 21l49 -30q5 -5 3 -6q-1 -2 -11 -1h-82l25 -14q15 -9 5 -15q-14 3 -25 -1q-13 -16 -25 -31q33 -37 49 -67q35 -65 33 -137q-1 -37 -19 -75t-64 -55q-3 30 -78 39v12q7 -1 19 -3
q64 -10 79 4q28 26 30 95q0 20 -5 42q-18 -24 -47 -51q-44 -41 -94 -65l-4 10q44 32 84 75q34 37 52 67q-6 20 -14 37q-21 -30 -48 -56q-34 -33 -74 -59l-4 10q36 34 66 71q27 33 44 64q-8 15 -17 28q-48 -54 -93 -81l-6 8q47 46 77 89q31 44 32 51q0 4 -1 8h-74
q-27 1 -45 -13zM129 843h247v94h-247v-94zM376 829h-247v-94h247v94zM878 829h-247v-94h247v94zM631 843h247v93h-247v-93z" />
  </g>

</svg>
