<?xml version="1.0" standalone="no"?>
<!DOCTYPE svg PUBLIC "-//W3C//DTD SVG 1.1//EN" "http://www.w3.org/Graphics/SVG/1.1/DTD/svg11.dtd" >
<svg xmlns="http://www.w3.org/2000/svg" xmlns:xlink="http://www.w3.org/1999/xlink" version="1.1" viewBox="0 -205 1024 1024">
  <g transform="matrix(1 0 0 -1 0 819)">
   <path fill="currentColor"
d="M586 986l32 -37h254l32 39l44 -37q9 -6 9 -11q0 -4 -9 -8l-20 -13v-774q2 -62 -10 -87t-66 -37q-2 33 -34 42q-14 3 -54 14q-23 6 -36 9l2 16q110 -23 134 -21t24 50v611h-263v-3q2 -31 -43 -40q5 33 7 90v148q-3 22 -17 38zM74 998l35 -42h246l39 37l40 -43q7 -6 5 -10
q-1 -3 -11 -5l-18 -9v-136l6 -53q1 -32 -42 -31v38h-259v-581l4 -95q2 -37 -51 -46q5 39 7 187v742q-3 19 -17 34zM438 403l36 -31h272l17 26l35 -30q7 -6 6 -10q-1 -5 -10 -7l-10 -11v-162h23l16 27l46 -33q8 -5 7 -8q-2 -2 -13 -2h-421q-37 1 -57 -12l-28 28h90v167
q3 21 -19 49zM461 689l44 -43h202l27 31l40 -35q7 -6 5 -10q-1 -5 -11 -7l-14 -11v-138l4 -35q-1 -30 -42 -31v44h-205q4 -39 -45 -45q2 14 5 34q2 13 2 18v177q-3 19 -21 43zM378 585l58 -37q7 -5 7 -9q0 -3 -7 -5q-26 3 -49 -15l-46 -36q-16 -13 -34 -27q-1 -27 -3 -47
q0 -5 -2 -14q-1 -11 -2 -17q32 -25 53 -49q51 -53 46 -100q-2 -22 -19 -24q-17 -1 -20 27t-20 64q-14 29 -43 64q-10 -49 -30 -100q-31 -77 -129 -144l-4 15q77 70 104 142q29 74 30 168q3 96 1 217q2 12 -18 26l11 15l65 -24q18 -7 8 -13q-13 1 -24 -14q-1 -102 -3 -168
q22 23 40 42q29 30 27 38q0 8 -7 17zM888 844h-263v-86h263v86zM374 846h-259v-86h259v86zM115 860h259v78h-259v-78zM625 858h263v75h-263v-75zM716 546h-205v-76h205v76zM511 560h205v70h-205v-70zM553 356h-70v-178h70v178zM651 356h-66v-178h66v178zM683 178h65v178h-65
v-178zM220 544q7 -95 -18 -135q-35 -44 -54 -12q-3 15 14 27t29 43t16 77h13z" />
  </g>

</svg>
