<?xml version="1.0" standalone="no"?>
<!DOCTYPE svg PUBLIC "-//W3C//DTD SVG 1.1//EN" "http://www.w3.org/Graphics/SVG/1.1/DTD/svg11.dtd" >
<svg xmlns="http://www.w3.org/2000/svg" xmlns:xlink="http://www.w3.org/1999/xlink" version="1.1" viewBox="0 0 2048 2048">
  <g transform="matrix(1 0 0 -1 0 2048)">
   <path fill="currentColor"
d="M1807 762l76 80l102 -87q26 -23 22 -44q-5 -19 -26 -19h-174l-2 -453q0 -80 -64 -121q-29 -18 -90 -39q-12 70 -40 89t-167 49l9 44q134 -22 188 -27q70 -6 70 58v400h-691v-568q0 -59 -65 -54q-45 4 -42 50q1 18 4 45q12 107 12 209v318q-61 1 -117 -11l-39 86
q23 -3 35 -5q45 -6 83 -9q23 -1 38 -3v786q0 39 -12 137l117 -81h282v190q0 118 -7 155l112 -28l33 -7q42 -10 46 -32q5 -27 -51 -44l-38 -11v-223h281l68 76l84 -55q40 -26 40 -48t-30 -38q-7 -4 -13 -7q-12 -5 -34 -17v-741zM1711 1174v359l-300 2v-360zM1711 1118h-300
v-367l300 -1v368zM1020 750h296v368h-296v-368zM1020 1174h296v359h-296v-359zM259 1773v-1393q0 -111 13 -219q3 -29 3 -54q0 -39 -49 -42q-63 -4 -63 42v1663q-3 75 -13 149l118 -88h302l72 83l67 -53q54 -43 50 -68q-3 -20 -50 -39l-28 -11q-133 -303 -226 -471
q132 -129 195 -225q104 -159 86 -337q-13 -131 -83 -190q-51 -42 -145 -57q-8 60 -45 81q-29 18 -149 53l8 42q162 -36 212 -39q99 -7 99 148q0 164 -68 288q-63 115 -163 225q114 302 176 512h-319z" />
  </g>

</svg>
