<?xml version="1.0" standalone="no"?>
<!DOCTYPE svg PUBLIC "-//W3C//DTD SVG 1.1//EN" "http://www.w3.org/Graphics/SVG/1.1/DTD/svg11.dtd" >
<svg xmlns="http://www.w3.org/2000/svg" xmlns:xlink="http://www.w3.org/1999/xlink" version="1.1" viewBox="0 -205 1024 1024">
  <g transform="matrix(1 0 0 -1 0 819)">
   <path fill="currentColor"
d="M460 982l43 -48h376l35 41l52 -49q7 -6 5 -10q-1 -5 -11 -7l-18 -9v-374l4 -76q8 -41 -50 -44v58h-171v-269l2 -95q2 -36 -55 -46q5 39 7 187v223h-170v-29q2 -37 -53 -46q5 39 7 110v427q-3 24 -19 44zM374 897l-46 -86q-45 -84 -77 -134q72 -67 99 -99q27 -31 41 -65
t12 -77q-6 -80 -66 -119q-25 -16 -78 -26q5 42 -102 70l4 16q124 -36 156 -9q42 30 38 94q-2 48 -25 85q-22 44 -105 122q58 120 106 248h-192v-739l3 -95q1 -33 -56 -46q5 39 7 177v712q-6 29 -24 48l12 11l51 -48h188l35 44l58 -46q13 -10 2 -15q-19 -5 -41 -23zM896 696
h-171v-212h171v212zM679 696h-170v-212h170v212zM725 714h171v200h-171v-200zM679 914h-170v-200h170v200z" />
  </g>

</svg>
