<?xml version="1.0" standalone="no"?>
<!DOCTYPE svg PUBLIC "-//W3C//DTD SVG 1.1//EN" "http://www.w3.org/Graphics/SVG/1.1/DTD/svg11.dtd" >
<svg xmlns="http://www.w3.org/2000/svg" xmlns:xlink="http://www.w3.org/1999/xlink" version="1.1" viewBox="0 -205 1024 1024">
  <g transform="matrix(1 0 0 -1 0 819)">
   <path fill="currentColor"
d="M331 883l-36 -88q-34 -76 -66 -132q98 -82 121 -156q13 -36 11 -77q-6 -114 -136 -141q10 41 -86 66l4 16q62 -17 87 -18q29 -1 47 11q42 30 38 92q-2 45 -26 89q-24 51 -84 110q44 116 84 248h-169v-761l3 -73q1 -34 -54 -46q5 39 7 126v759q-6 29 -24 48l12 11l45 -44
h167l35 44l54 -46q13 -10 2 -15q-19 -5 -36 -23zM406 895q-4 24 -21 48l13 14l41 -45h437l30 43l68 -51q8 -6 7 -9q-2 -3 -13 -3h-520v-772h446l28 32l63 -36q12 -9 12 -13t-12 -3h-523l-36 -43l-50 42q26 22 30 42v754zM731 864l79 -32q14 -5 6 -11q-21 -7 -30 -21v-90h76
l32 40l66 -48q8 -6 7 -9q-2 -3 -13 -3h-168v-150h66l32 40l66 -48q8 -6 7 -9q-2 -3 -13 -3h-158v-158h86l32 40l66 -48q8 -6 7 -9q-2 -3 -13 -3h-178v-75l3 -49q3 -35 -46 -43q5 36 7 103v532q2 17 -28 42zM611 861l79 -32q14 -5 6 -11q-21 -7 -30 -21v-530l3 -57
q3 -35 -46 -43q5 36 7 111v61h-75q-27 1 -45 -13l-34 33h154v162h-55q-27 1 -45 -13l-34 33h134v146h-65q-27 1 -45 -13l-34 33h144v100q2 17 -28 42z" />
  </g>

</svg>
