<?xml version="1.0" standalone="no"?>
<!DOCTYPE svg PUBLIC "-//W3C//DTD SVG 1.1//EN" "http://www.w3.org/Graphics/SVG/1.1/DTD/svg11.dtd" >
<svg xmlns="http://www.w3.org/2000/svg" xmlns:xlink="http://www.w3.org/1999/xlink" version="1.1" viewBox="0 -205 1024 1024">
  <g transform="matrix(1 0 0 -1 0 819)">
   <path fill="currentColor"
d="M329 867l-38 -88q-32 -74 -62 -124q99 -82 120 -157q12 -37 10 -77q-6 -75 -68 -113q-26 -15 -70 -27q10 36 -86 62l4 16q109 -29 138 -4q42 29 38 93q-2 45 -26 89q-24 51 -84 110q44 108 84 240h-161v-751l3 -73q1 -33 -52 -46q5 39 7 126v749q-6 29 -24 48l12 11
l44 -44h158l35 44l50 -48q13 -10 2 -15q-19 -3 -34 -21zM337 306h300v555q-90 -13 -265 -24v17q216 29 296 48q5 1 14 3q67 16 101 26q38 12 46 19q11 7 11 25l7 2l75 -52q9 -9 9 -14t-9 -6q-37 10 -78 -2q-88 -21 -165 -35v-562h206l32 40l68 -50q8 -5 7 -8q-2 -2 -13 -2
h-300v-122l2 -95q2 -37 -51 -46q5 39 7 140v123h-221q-27 1 -45 -13zM796 595l60 -24q17 -10 7 -15q-18 2 -27 -9q-4 -7 -10 -20q-11 -20 -16 -30q27 -10 51 -23q41 -23 56 -54q14 -32 -11 -41q-13 -4 -24 17q-10 21 -31 46q-18 21 -50 40q-43 -73 -91 -115l-10 10
q40 54 70 119q30 66 29 74q-1 9 -9 20zM792 839l60 -24q17 -10 7 -15q-18 2 -27 -9q-10 -21 -21 -41q26 -10 48 -22q41 -23 56 -54q14 -32 -11 -41q-13 -4 -24 17q-10 21 -31 46q-17 20 -47 39q-45 -80 -96 -124l-10 10q40 54 70 119q30 66 29 74q-1 9 -9 20zM470 599
l60 -24q17 -10 7 -15q-18 2 -27 -9q-13 -27 -27 -52q24 -9 46 -21q41 -23 56 -54q14 -32 -11 -41q-13 -4 -24 17q-10 21 -31 46q-16 19 -45 38q-43 -72 -90 -113l-10 10q40 54 70 119q30 66 29 74q-1 9 -9 20zM466 825l60 -24q17 -10 7 -15q-18 2 -27 -9q-11 -23 -23 -44
q24 -9 46 -21q41 -23 56 -54q14 -32 -11 -41q-13 -4 -24 17q-10 21 -31 46q-16 19 -45 37q-44 -76 -94 -120l-10 10q40 54 70 119q30 66 29 74q-1 9 -9 20z" />
  </g>

</svg>
