<?xml version="1.0" standalone="no"?>
<!DOCTYPE svg PUBLIC "-//W3C//DTD SVG 1.1//EN" "http://www.w3.org/Graphics/SVG/1.1/DTD/svg11.dtd" >
<svg xmlns="http://www.w3.org/2000/svg" xmlns:xlink="http://www.w3.org/1999/xlink" version="1.1" viewBox="0 -205 1024 1024">
  <g transform="matrix(1 0 0 -1 0 819)">
   <path fill="currentColor"
d="M325 879l-38 -88q-32 -74 -62 -124q99 -82 120 -157q12 -37 10 -77q-7 -104 -130 -140q10 36 -86 58l4 16q102 -23 130 0q42 29 38 93q-2 45 -26 89q-24 51 -84 110q44 108 84 240h-157v-767l3 -73q1 -33 -52 -46q5 39 7 126v765q-6 29 -24 48l12 11l44 -44h154l35 44
l50 -48q13 -10 2 -15q-19 -3 -34 -21zM351 349h280v70q2 16 -24 38l9 12l79 -28q14 -5 6 -11q-21 -7 -30 -21v-60h192l32 40l68 -50q8 -5 7 -8q-2 -2 -13 -2h-248q18 -38 48 -76q70 -88 129 -118q29 -14 72 -19l-1 -14q-55 2 -75 -23q-93 60 -152 155q-30 50 -44 95h-15
v-208l3 -57q2 -34 -50 -44q5 37 7 116v193h-20q-45 -86 -121 -154q-79 -70 -174 -110l-8 14q83 52 147 113q60 57 104 137h-129q-27 1 -45 -13zM715 603l8 11q133 -49 161 -127q12 -37 -10 -47t-33 23q-4 16 -15 32q-68 -7 -178 -13q-108 -7 -148 -14q-39 -7 -56 -23l-36 60
q20 -2 46 10q58 57 113 136q5 14 -6 27h-129q-27 1 -45 -13l-34 33h510l32 40l68 -50q8 -5 7 -8q-2 -2 -13 -2h-373l58 -26q5 -7 3 -10q-1 -4 -10 -6q-16 2 -29 -9q-49 -48 -118 -121q9 0 26 1q140 4 300 7q-2 3 -6 8q-4 6 -6 8q-28 33 -87 73zM339 867h170v64q2 16 -30 46
l9 12l85 -36q14 -5 6 -11q-21 -7 -30 -21v-54h194v64q2 16 -30 46l9 12l85 -36q14 -5 6 -11q-21 -7 -30 -21v-54h84l32 40l68 -50q8 -5 7 -8q-2 -2 -13 -2h-178v-29l2 -21q3 -36 -49 -44q0 2 1 5q4 33 6 67v22h-194v-33l2 -21q3 -36 -49 -44q0 2 1 5q4 33 6 67v26h-91
q-27 1 -45 -13zM571 812l4 14q66 -20 88 -60q21 -48 -13 -56q-19 -2 -22 19q-3 22 -18 44q-13 23 -39 39z" />
  </g>

</svg>
