<?xml version="1.0" standalone="no"?>
<!DOCTYPE svg PUBLIC "-//W3C//DTD SVG 1.1//EN" "http://www.w3.org/Graphics/SVG/1.1/DTD/svg11.dtd" >
<svg xmlns="http://www.w3.org/2000/svg" xmlns:xlink="http://www.w3.org/1999/xlink" version="1.1" viewBox="0 -205 1024 1024">
  <g transform="matrix(1 0 0 -1 0 819)">
   <path fill="currentColor"
d="M913 486v-385q6 -55 -73 -67q-1 37 -93 52l2 15q81 -15 95 -15q15 0 22 6q8 6 7 70v86h-241v-109l4 -61q3 -39 -49 -46q5 39 7 112v365q-1 19 -18 31l12 9l35 -32h238l22 29l44 -28q9 -6 9 -11q0 -4 -9 -8zM264 876l-38 -86q-20 -49 -60 -141q-3 -6 -4 -9
q103 -71 127 -142q14 -34 12 -74q-8 -111 -117 -134q0 34 -76 62l4 16q89 -37 117 -11q36 32 29 91q-5 51 -28 86q-26 48 -96 98q48 132 92 264h-129v-743l3 -79q1 -35 -48 -46q5 39 7 118v755q-6 29 -24 48l12 11l40 -44h126l35 44l50 -46q13 -10 2 -15q-19 -5 -36 -23z
M740 962q4 -4 3 -6q0 -2 -5 -3q-16 3 -30 -13q-9 -33 -21 -65h220l24 32l64 -42q8 -5 7 -8q-2 -2 -13 -2h-309q-22 -59 -46 -96h235l20 32l68 -38q8 -5 7 -8q-2 -2 -13 -2h-156v-120h99l24 32l64 -42q8 -5 7 -8q-2 -2 -13 -2h-344q-27 1 -45 -13l-34 33h204v120h-61
q-27 1 -45 -13l-23 19l-14 -21q-60 -90 -128 -136l-9 12q66 61 108 135q35 60 57 116h-54q-27 1 -45 -13l-34 33h140l4 13q23 70 20 80q-2 10 -13 23l8 8zM242 706h124v216q2 17 -25 42l8 11l76 -34q14 -5 6 -11q-16 -4 -27 -18v-206h34l28 36l60 -46q8 -5 7 -8
q-2 -2 -13 -2h-116v-355l125 55l6 -14l-136 -78q-74 -42 -91 -54t-25 -36l-52 50l135 60v372h-45q-27 1 -45 -13zM873 375h-241v-111h241v111zM632 391h241v106h-241v-106z" />
  </g>

</svg>
