<?xml version="1.0" standalone="no"?>
<!DOCTYPE svg PUBLIC "-//W3C//DTD SVG 1.1//EN" "http://www.w3.org/Graphics/SVG/1.1/DTD/svg11.dtd" >
<svg xmlns="http://www.w3.org/2000/svg" xmlns:xlink="http://www.w3.org/1999/xlink" version="1.1" viewBox="0 0 2048 2048">
  <g transform="matrix(1 0 0 -1 0 2048)">
   <path fill="currentColor"
d="M261 1771v-1413q0 -75 10 -180q4 -37 4 -70q0 -50 -60 -54q-49 -3 -49 50v1633q0 33 -12 171l115 -79h264l72 83l81 -61q38 -28 34 -57q-2 -22 -72 -46q-33 -67 -118 -262q-48 -109 -111 -216q134 -132 195 -227q90 -141 90 -289q0 -256 -232 -293q-3 59 -48 83
q-20 11 -101 40l6 36q124 -23 154 -22q103 3 112 110q15 175 -56 317q-54 108 -174 234q65 160 176 512h-280zM1387 742v-239h238l98 102l134 -106q12 -10 16 -24q7 -30 -31 -30h-455v-263h352l99 95l125 -95q20 -15 21 -34q2 -25 -26 -25h-1065q-67 0 -148 -10l-39 86
q125 -17 187 -17h394v263h-268q-69 0 -149 -11l-39 86q125 -17 188 -17h268v229q-190 -14 -389 -22l-2 44q263 23 482 66q167 33 314 100l97 -105q15 -16 13 -28q-2 -11 -15 -14t-30 2l-49 13q-182 -30 -321 -46zM1863 1163l51 -40q12 -9 13 -23q2 -23 -18 -23h-349v-43
q0 -39 -72 -33q-33 3 -33 38q0 22 3 53q8 123 8 204v389q-3 69 -9 126l118 -80h173l68 76l84 -54q40 -26 40 -49q0 -27 -77 -61v-480zM1767 1673h-207v-540h207v540zM711 1858q92 -26 230 -26h262l89 88l119 -92q11 -8 15 -18q6 -16 -7 -27q-6 -5 -16 -5h-99v-680
q3 -114 3 -118q4 -44 4 -68q0 -47 -66 -47q-38 0 -38 30v148q-179 -59 -353 -103q-13 -65 -30 -69q-18 -5 -31 24l-61 133q59 5 116 12v736q-68 -4 -96 -7zM944 1052q98 16 263 50v163h-263v-213zM944 1320h263v197h-263v-197zM944 1575h263v203h-263v-203z" />
  </g>

</svg>
