<?xml version="1.0" standalone="no"?>
<!DOCTYPE svg PUBLIC "-//W3C//DTD SVG 1.1//EN" "http://www.w3.org/Graphics/SVG/1.1/DTD/svg11.dtd" >
<svg xmlns="http://www.w3.org/2000/svg" xmlns:xlink="http://www.w3.org/1999/xlink" version="1.1" viewBox="0 -205 1024 1024">
  <g transform="matrix(1 0 0 -1 0 819)">
   <path fill="currentColor"
d="M661 933q5 -5 5 -8t-5 -5q-19 0 -30 -16q-18 -66 -42 -127h289l32 40l68 -48q8 -6 7 -9q-2 -3 -13 -3h-200v-180h92l32 40l68 -44q8 -6 7 -9q-2 -3 -13 -3h-186v-182h96l32 40l68 -44q8 -6 7 -9q-2 -3 -13 -3h-190v-195h122l32 39l68 -47q8 -6 7 -8q-2 -2 -13 -2h-402v-9
l5 -59q5 -40 -54 -46q5 39 7 114v528q-34 -61 -75 -102l-10 8q39 62 73 147q34 86 46 139q13 54 13 64q1 10 -8 29l8 5zM243 981l80 -34q14 -5 6 -11q-16 -4 -27 -18v-169h70l32 40l68 -50q8 -6 7 -8q-2 -3 -13 -2h-164v-188h118l22 34l68 -44q8 -5 7 -8q-2 -2 -13 -2h-128
v-336q64 51 128 111l12 -16q-32 -40 -94 -97q-8 -9 -21 -24q-17 -17 -25 -27q-8 -11 -16 -35l-56 56q20 8 30 25v343h-111q-1 -115 -13 -188q-27 -166 -189 -298l-6 14q113 132 146 258q14 56 18 214h-72q-27 1 -45 -13l-34 33h232v188h-115q-31 -81 -82 -141l-14 6
q46 84 68 163t22 94t-10 29l8 8l75 -27q7 -5 7 -9q-1 -3 -10 -5q-12 -3 -19 -8q-7 -4 -38 -90h108v179q2 17 -25 42zM730 363h-144v-195h144v195zM730 561h-144v-182h144v182zM730 757h-144v-180h144v180zM686 975l8 11q88 -50 107 -101q17 -58 -19 -65q-16 0 -21 27
q-3 28 -19 59q-15 32 -56 69z" />
  </g>

</svg>
