<?xml version="1.0" standalone="no"?>
<!DOCTYPE svg PUBLIC "-//W3C//DTD SVG 1.1//EN" "http://www.w3.org/Graphics/SVG/1.1/DTD/svg11.dtd" >
<svg xmlns="http://www.w3.org/2000/svg" xmlns:xlink="http://www.w3.org/1999/xlink" version="1.1" viewBox="0 -205 1024 1024">
  <g transform="matrix(1 0 0 -1 0 819)">
   <path fill="currentColor"
d="M705 830q5 -5 5 -8t-5 -5q-19 0 -30 -16q-22 -56 -49 -109h262l32 40l68 -44q8 -6 7 -9q-2 -3 -13 -3h-180v-140h84l24 32l60 -34q8 -6 7 -9q-2 -3 -13 -3h-162v-148h84l24 36l60 -38q8 -6 7 -9q-2 -3 -13 -3h-162v-165h94l32 39l68 -43q8 -6 7 -9q-2 -3 -13 -3h-366v-25
l5 -41q6 -40 -50 -46q5 39 7 96v456l-1 -1q-52 -87 -102 -125l-10 8q50 68 87 142q38 74 57 125q20 51 20 61q1 10 -8 29l8 5zM252 971l44 -43h600l32 40l68 -50q8 -6 7 -8q-2 -3 -13 -2h-683v-125q2 -346 -33 -505q-34 -156 -135 -228l-10 14q86 91 113 245q13 77 19 188
h-93q-7 -124 -33 -192q-25 -72 -108 -153l-14 10q68 93 87 167q18 71 22 168h-27q-27 1 -45 -13l-34 33h246q3 69 3 151h-105l-31 -42l-50 40q26 24 30 44v157q3 22 -21 43l9 9l75 -38q8 -2 10 -5t-3 -7q-20 -4 -32 -18v-163h118v77v146q-1 27 -24 47zM549 836q5 -5 5 -8
t-5 -5q-19 0 -30 -16q-22 -70 -63 -147v-510l5 -41q7 -41 -50 -46q5 39 7 96v435q-46 -72 -105 -113l-10 8q62 78 103 160q41 83 57 129q16 47 16 57q1 10 -8 29l8 5zM764 360h-140v-165h140v165zM764 522h-140v-148h140v148zM764 676h-140v-140h140v140zM732 862l8 11
q84 -44 95 -84q18 -55 -19 -57q-17 2 -19 24q-1 24 -15 49q-13 26 -50 57z" />
  </g>

</svg>
