<?xml version="1.0" standalone="no"?>
<!DOCTYPE svg PUBLIC "-//W3C//DTD SVG 1.1//EN" "http://www.w3.org/Graphics/SVG/1.1/DTD/svg11.dtd" >
<svg xmlns="http://www.w3.org/2000/svg" xmlns:xlink="http://www.w3.org/1999/xlink" version="1.1" viewBox="0 0 2048 2048">
  <g transform="matrix(1 0 0 -1 0 2048)">
   <path fill="currentColor"
d="M617 994l1027 -1l102 100l128 -107q15 -13 13 -30q-2 -21 -24 -21h-972v-208h589l99 99l125 -97q18 -14 20 -30q2 -28 -28 -28h-805v-216l631 1l107 99l117 -92q25 -19 25 -39q0 -23 -26 -23h-854l1 -116q0 -14 2 -42q2 -45 3 -68q1 -31 2 -42q3 -25 2 -40
q-2 -43 -64 -43q-42 0 -42 32l-1 853h-218q-117 -163 -377 -333l-20 35q187 153 277 291q73 112 142 286l139 -52q31 -12 32 -32q2 -23 -30 -29l-59 -10q-50 -78 -63 -97zM1069 1605v-196q0 -17 4 -69q1 -22 4 -72q2 -40 3 -61q1 -13 1 -24q0 -36 -49 -42q-60 -7 -60 43v421
h-698q2 -75 -19 -132q-36 -99 -106 -99q-52 0 -54 46q-1 28 36 58q66 51 85 115q16 56 19 149h39v-79h698v136h-516q-60 0 -149 -12l-38 86q117 -17 187 -17h1077l98 102l121 -107q20 -18 15 -34q-6 -18 -26 -18h-672v-136h718l59 66l88 -69q35 -28 37 -45q2 -21 -37 -29
l-50 -10q-54 -72 -135 -151l-27 17q28 55 71 163h-724zM380 1552q187 -12 266 -27q172 -33 149 -112q-5 -17 -23 -26q-24 -12 -47 -1q-13 6 -29 17q-106 74 -319 115zM850 1336l6 -35q-184 -59 -430 -107q-17 -63 -44 -64q-24 -1 -42 53l-34 103q285 7 544 50zM1537 1568
l72 -66q45 -41 34 -63q-6 -11 -19 -11q-18 0 -38 7l-34 13q-21 -5 -113 -27q-43 -10 -255 -35l-4 38q226 53 357 144zM1180 1335q227 -5 332 -23q85 -14 116 -28q42 -18 49 -52q5 -24 -6.5 -40.5t-31.5 -16.5q-18 0 -79 30q-120 59 -380 97v33z" />
  </g>

</svg>
