<?xml version="1.0" standalone="no"?>
<!DOCTYPE svg PUBLIC "-//W3C//DTD SVG 1.1//EN" "http://www.w3.org/Graphics/SVG/1.1/DTD/svg11.dtd" >
<svg xmlns="http://www.w3.org/2000/svg" xmlns:xlink="http://www.w3.org/1999/xlink" version="1.1" viewBox="0 0 2048 2048">
  <g transform="matrix(1 0 0 -1 0 2048)">
   <path fill="currentColor"
d="M511 911q-70 -86 -126 -140q-60 -57 -186 -145l-26 29q269 242 359 514l102 -39q62 -23 65 -40q5 -27 -42 -34l-46 -7q-19 -29 -46 -65l-12 -18h1002l61 73l72 -49q37 -25 42 -44q5 -20 -25 -37q-7 -4 -13 -7q-9 -4 -27 -14q-21 -283 -42 -430q138 -15 336 -21l4 -33
q-100 -19 -127 -85q-140 20 -231 37q-36 -142 -107 -213q-47 -45 -132 -66q-28 -7 -50 -7q4 47 -27 70q-35 26 -159 63l7 39q31 -10 87 -22q88 -20 108 -20q89 0 132 61q23 32 47 113q-18 4 -67 15q-168 36 -377 101q-111 -124 -245 -217q-106 -74 -232 -126
q-42 -18 -152 -60l-15 37q356 163 560 395l-16 5q-174 66 -243 96q-180 -178 -432 -287l-18 31q143 90 200 134q83 65 171 157q-98 44 -202 108l22 29q172 -77 217 -95q98 125 138 214h-309zM1529 470q25 150 44 441h-266q-18 -42 -27 -64q-73 -168 -162 -292
q164 -45 389 -81zM1032 579q108 143 170 332h-263q-82 -137 -174 -246q154 -52 267 -86zM1073 1578v-234l3 -50l4 -72q5 -81 2 -92q-5 -20 -35 -30q-35 -12 -58 9q-14 12 -14 34v435h-698q0 -92 -19 -137q-41 -94 -106 -94q-54 0 -54 46q0 31 41 61q59 45 78 114
q19 68 21 147h39v-79h698v162h-501q-62 0 -149 -11l-38 86q122 -17 187 -17h1073l99 101l120 -107q21 -18 16 -33q-6 -19 -26 -19h-683v-162h717l59 66l88 -70q35 -28 37 -44q2 -21 -37 -29l-50 -10q-29 -46 -135 -151l-27 17q28 56 71 163h-723zM854 1316l5 -36
q-148 -47 -450 -91q-19 -62 -47 -62q-27 0 -40 62l-20 87q284 6 552 40zM378 1523q206 -2 278 -11q143 -20 153 -77q6 -31 -14 -49q-15 -14 -38 -9q-20 4 -94 43q-79 42 -285 68v35zM1545 1554l69 -69q44 -44 32 -64q-6 -11 -19 -11q-15 0 -38 10l-33 13q-24 -4 -96 -20
q-75 -18 -274 -26l-3 33q234 49 362 134zM1176 1331q474 2 510 -101q7 -22 -2.5 -41.5t-29.5 -22.5q-23 -3 -78 24q-155 76 -400 107v34z" />
  </g>

</svg>
