<?xml version="1.0" standalone="no"?>
<!DOCTYPE svg PUBLIC "-//W3C//DTD SVG 1.1//EN" "http://www.w3.org/Graphics/SVG/1.1/DTD/svg11.dtd" >
<svg xmlns="http://www.w3.org/2000/svg" xmlns:xlink="http://www.w3.org/1999/xlink" version="1.1" viewBox="0 -205 1024 1024">
  <g transform="matrix(1 0 0 -1 0 819)">
   <path fill="currentColor"
d="M875 848l69 -62q7 -5 6 -8q0 -4 -8 -5q-21 5 -33 1t-114 -67q-34 -21 -78 -41v-186l165 33l26 43l72 -35q13 -7 10 -10q-2 -3 -20 -4l-253 -50v-302q0 -56 14 -64q15 -9 37 -11t71 -2t65 1q17 1 27 5q12 4 16 20q5 15 7 34q2 17 3 112h14q2 -34 5 -82q1 -19 1 -26
q2 -30 28 -41q-20 -49 -56 -55q-16 -5 -80 -6t-104 2q-39 2 -53 7q-13 5 -27 26q-13 21 -12 70v303l-93 -18q-31 -9 -39 -30l-47 36l179 35v177q-75 -27 -173 -51l-4 14q104 40 177 74v247q-1 17 -22 40l8 10l94 -33q4 -3 3 -5q0 -2 -4 -4q-17 -2 -35 -17v-216q37 19 64 37
q91 59 89 69q-1 11 -6 29zM589 771q2 -5 -1 -7q-2 -2 -9 0q-21 0 -48 -31q-3 -4 -12 -15q-13 -16 -21 -26l-15 6l24 68h-191v-167l2 -52q2 -37 -53 -46q5 39 7 109v156h-164q-3 -37 -17 -60q-38 -52 -63 -21q-9 17 10 31q43 28 55 122h17q0 -25 -1 -52h163v97h-91
q-27 1 -45 -13l-34 33h308l32 40l68 -50q8 -5 7 -8q-2 -2 -13 -2h-188v-97h185l29 35zM343 258l10 8q78 -46 104 -72q26 -27 36 -51q10 -27 5 -48t-23 -22q-18 -2 -21 27q-2 15 -8 32q-178 -28 -216 -32q-40 -4 -61 -10q-20 -7 -56 -31l-36 60q40 10 50 21l7 7q10 8 15 14
q12 12 34 48q20 35 59 114h-105q-27 1 -45 -13l-34 33h396l22 34l66 -44q8 -5 7 -8q-2 -2 -13 -2h-243q-51 -104 -135 -197l279 26q-1 1 -1 2q-15 29 -93 104zM98 459h288l24 32l64 -42q8 -5 7 -8q-2 -2 -13 -2h-291q-27 1 -45 -13zM113 686h118v-16h-118v16zM353 574h118
v-16h-118v16zM353 686h118v-16h-118v16zM113 574h118v-16h-118v16z" />
  </g>

</svg>
