<?xml version="1.0" standalone="no"?>
<!DOCTYPE svg PUBLIC "-//W3C//DTD SVG 1.1//EN" "http://www.w3.org/Graphics/SVG/1.1/DTD/svg11.dtd" >
<svg xmlns="http://www.w3.org/2000/svg" xmlns:xlink="http://www.w3.org/1999/xlink" version="1.1" viewBox="0 -205 1024 1024">
  <g transform="matrix(1 0 0 -1 0 819)">
   <path fill="currentColor"
d="M85 574l36 -36h149l23 31l48 -39q7 -6 5 -10q-1 -5 -11 -7l-18 -9v-270l3 -44q0 -32 -45 -33v75h-141v-76q3 -34 -49 -42q6 47 7 89v318q2 16 -19 37zM984 830q2 -5 -1 -7q-2 -2 -9 0q-24 2 -53 -27q-3 -3 -14 -13l-44 -44l-13 10l50 84h-371v-123l2 -56q2 -37 -51 -46
q5 39 7 149v76h-357q0 -11 -1 -23q-6 -78 -49 -99q-19 -10 -30 6q-10 16 9 34q20 18 33 43q14 25 22 91h17v-32h356v89h-247q-27 1 -45 -13l-34 33h602l32 40l68 -50q8 -5 7 -8q-2 -2 -13 -2h-328v-89h359l37 41zM727 349l87 -36q14 -5 6 -11q-21 -7 -30 -21v-42h100l22 36
l66 -46q8 -5 7 -8q-2 -2 -13 -2h-182v-96l3 -57q3 -36 -52 -44q5 37 7 104v93h-198q-11 -87 -59 -133q-56 -53 -148 -67l-4 16q82 30 122 74q35 37 45 110h-85q-27 1 -45 -13l-34 33h166q2 2 2 3v64q-4 20 -19 34l8 11l79 -32q6 -2 7 -5q0 -3 -5 -6q-15 -5 -27 -14v-44
q-1 -6 -1 -11h196v52q2 16 -30 46zM134 252h141v266h-141v-266zM426 483h194v78h-151q-27 1 -45 -13l-34 31h400l22 30l62 -38q8 -5 7 -8q-2 -2 -13 -2h-206v-78h118l24 32l64 -38q8 -5 7 -8q-2 -2 -13 -2h-200v-82h182l18 32l66 -40q8 -5 7 -8q-2 -2 -13 -2h-475
q-27 1 -45 -13l-34 31h252v82h-115q-27 1 -45 -13zM196 757h206v-16h-206v16zM616 753h206v-16h-206v16zM196 665h206v-16h-206v16zM616 661h206v-16h-206v16z" />
  </g>

</svg>
