<?xml version="1.0" standalone="no"?>
<!DOCTYPE svg PUBLIC "-//W3C//DTD SVG 1.1//EN" "http://www.w3.org/Graphics/SVG/1.1/DTD/svg11.dtd" >
<svg xmlns="http://www.w3.org/2000/svg" xmlns:xlink="http://www.w3.org/1999/xlink" version="1.1" viewBox="0 -205 1024 1024">
  <g transform="matrix(1 0 0 -1 0 819)">
   <path fill="currentColor"
d="M465 591l86 -34q14 -5 6 -11q-19 -4 -29 -18l-3 -69h351l32 40l68 -50q8 -5 7 -8q-2 -2 -13 -2h-445l-5 -135h198l35 41l52 -49q7 -6 5 -10q-1 -5 -11 -7l-18 -9v-91l4 -102q7 -40 -50 -44v52h-469v-25q2 -37 -53 -46q5 39 7 99v181q-4 24 -18 42l15 12l38 -44h223l2 135
h-369q-27 1 -45 -13l-34 33h449l1 79q2 17 -25 42zM266 105h469v179h-469v-179zM569 1007l91 -36q14 -5 6 -11q-21 -7 -30 -21v-60h232l32 40l68 -50q8 -6 7 -8q-2 -3 -13 -2h-326v-112h172l32 40l68 -48q8 -6 7 -8q-2 -3 -13 -2h-266v-114h230l32 40l68 -50q8 -6 7 -8
q-2 -3 -13 -2h-324l3 -32q2 -36 -56 -46q5 39 7 129v303q2 16 -30 46zM349 997l91 -36q14 -5 6 -11q-21 -8 -30 -13v-343l3 -25q2 -36 -56 -46q5 31 6 85h-228q-27 1 -45 -13l-34 33h308v8v106h-185q-27 1 -45 -13l-34 31h264v104h-227q-27 1 -45 -13l-34 33h306v63
q2 8 -30 38z" />
  </g>

</svg>
