<?xml version="1.0" standalone="no"?>
<!DOCTYPE svg PUBLIC "-//W3C//DTD SVG 1.1//EN" "http://www.w3.org/Graphics/SVG/1.1/DTD/svg11.dtd" >
<svg xmlns="http://www.w3.org/2000/svg" xmlns:xlink="http://www.w3.org/1999/xlink" version="1.1" viewBox="0 -205 1024 1024">
  <g transform="matrix(1 0 0 -1 0 819)">
   <path fill="currentColor"
d="M70 761l31 -38h71l63 153h-131q-27 1 -45 -13l-34 33h376l24 36l64 -46q8 -5 7 -8q-2 -2 -13 -2h-200l-84 -153h202l31 29l38 -37q7 -6 5 -10q-1 -5 -11 -7l-18 -9v-426l2 -114q2 -33 -36 -31v52h-305v-53q2 -35 -41 -44q5 37 7 129v510q-3 22 -17 38zM672 999l50 -26
q17 -10 7 -15q-12 2 -22 -6q-38 -62 -65 -97h207l23 27l46 -27q7 -6 5 -10q-1 -5 -11 -7l-12 -13v-141l5 -36q1 -30 -43 -36v41h-277v-109h308l28 36l62 -44q8 -6 7 -9q-2 -3 -13 -3h-392v-100h327l22 33l44 -32q9 -6 9 -11q0 -4 -9 -8l-16 -13v-101q0 -119 -18 -163
q-18 -48 -54 -73q-36 -26 -94 -33q-4 20 -26 34q-39 19 -100 34l2 14q104 -24 144 -25q51 0 79 42q29 39 29 148v134h-339v-30q1 -33 -45 -44q5 38 7 126v389q-3 24 -20 40l12 11l39 -41h41l21 40q32 71 31 78q-1 8 -9 21zM585 669h277v170h-277v-170zM337 190h75v513h-75
v-513zM181 703h-74v-513h74v513zM307 355h-96v-165h96v165zM307 703h-96v-158h96v158zM307 529h-96v-158h96v158zM546 300q17 -129 -33 -171q-23 -17 -37 1t7 30q21 14 36 48q15 35 15 92h12zM773 361l6 8q104 -60 97 -120q-2 -28 -19 -30q-17 -1 -19 21q-2 23 -11 50
t-54 71zM603 309l8 6q67 -77 51 -134q-7 -29 -24 -26q-16 3 -12 28q4 24 2 53t-25 73zM697 323l8 8q50 -34 65 -78q14 -53 -18 -65q-16 0 -14 23q2 24 -6 52q-8 29 -35 60z" />
  </g>

</svg>
