<?xml version="1.0" standalone="no"?>
<!DOCTYPE svg PUBLIC "-//W3C//DTD SVG 1.1//EN" "http://www.w3.org/Graphics/SVG/1.1/DTD/svg11.dtd" >
<svg xmlns="http://www.w3.org/2000/svg" xmlns:xlink="http://www.w3.org/1999/xlink" version="1.1" viewBox="0 0 2048 2048">
  <g transform="matrix(1 0 0 -1 0 2048)">
   <path fill="currentColor"
d="M1646 1092l-1 -126q-6 -558 -282 -908l-28 15q127 221 177 459q47 220 48 684v45q-14 -1 -131 -6q-10 0 -30 -2l-43 88q91 -22 204 -24l1 22q0 438 -9 578l93 -16q88 -14 85 -46q-1 -24 -34 -34l-41 -13l-6 -491h80l88 88l115 -79q18 -12 23 -31q7 -28 -23 -34h-259
q4 -27 11 -75q45 -331 108 -562q75 -280 209 -423l-8 -25q-40 0 -60 -3q-31 -5 -63 -38q-84 177 -139 416q-37 162 -80 508zM519 1713q-38 -123 -120 -282h284l60 76l70 -54q35 -27 35 -48q0 -30 -70 -61v-903l4 -50l3 -71q4 -82 2 -93q-6 -25 -41 -30q-51 -8 -51 41v36
h-479v-42q0 -39 -45 -37q-53 2 -49 60l4 57l3 79l4 76v919q0 25 -9 115l99 -70h122q31 123 50 208q10 45 18 74h-174q-55 0 -130 -11l-34 85q106 -19 164 -19h399l79 84l112 -84q22 -16 16 -35q-6 -20 -26 -20h-300zM216 331h110v1046h-110v-1046zM408 331h99v347h-99v-347z
M592 331h103v1046h-103v-1046zM408 736h99v289h-99v-289zM408 1079h99v298h-99v-298zM968 564q-10 -135 -29 -216q-30 -123 -99 -236l-30 18q77 196 77 572v330q0 8 -4 87q-1 14 -2 40l100 -75h256l59 75l70 -53q37 -28 41 -43q4 -20 -25 -38l-12 -6q-9 -5 -26 -15v-721
q0 -149 -138 -174q-4 59 -27 78q-17 14 -94 41l5 42q82 -11 103 -11q49 0 61 23q8 16 8 49v233h-294zM972 858h290v174h-290v-174zM972 802v-97q0 -27 -2 -85h292v182h-290zM1215 1799l51 69l68 -51q32 -24 37 -43t-23 -37q-5 -3 -11 -7q-7 -3 -19 -11v-312q0 -40 6 -104
q2 -22 2 -44q0 -41 -53 -49q-44 -6 -44 25v28h-219v-28q0 -28 -40 -31q-60 -4 -55 51q9 100 9 146v467l110 -69h181zM1010 1319h219v187h-219v-187zM1010 1558h219v192h-219v-192zM1691 1771q76 -68 123 -121q64 -73 61 -134q-5 -72 -63 -66q-29 3 -36 55q-17 126 -112 242z
" />
  </g>

</svg>
