<?xml version="1.0" standalone="no"?>
<!DOCTYPE svg PUBLIC "-//W3C//DTD SVG 1.1//EN" "http://www.w3.org/Graphics/SVG/1.1/DTD/svg11.dtd" >
<svg xmlns="http://www.w3.org/2000/svg" xmlns:xlink="http://www.w3.org/1999/xlink" version="1.1" viewBox="0 -205 1024 1024">
  <g transform="matrix(1 0 0 -1 0 819)">
   <path fill="currentColor"
d="M304 997l83 -36q14 -5 6 -11q-21 -7 -30 -21v-78h54l18 26l58 -36q8 -5 7 -8q-2 -2 -13 -2h-124v-95l4 -24q1 -32 -42 -45v35h-57v-120h93l27 33l38 -33q7 -6 5 -10q-1 -5 -11 -7l-14 -13v-145l5 -30q3 -28 -43 -36v51h-100v-125h139l18 28l58 -38q8 -5 7 -8
q-2 -2 -13 -2h-209v-142l2 -37q3 -36 -51 -44q5 37 7 120v103h-130q-27 1 -45 -13l-34 33h209v125h-99v-13q4 -37 -45 -44q5 37 7 80v153q-3 20 -20 36l12 11l36 -33h109v120h-51q4 -36 -45 -43q1 9 3 25q2 12 4 33v114h-41q-27 1 -45 -13l-34 33h120v90q2 16 -30 46l9 12
l83 -36q14 -5 6 -11q-21 -7 -30 -21v-80h150v88q2 16 -30 46zM927 891v-151q2 -104 -13 -146t-37 -62t-86 -32q4 26 -28 42q-41 15 -80 22l2 16q80 -12 124 -17q41 0 58 27q18 28 18 128v184h-144q-10 -110 -32 -187q-23 -81 -73 -143q-49 -62 -156 -112l-10 12
q88 54 133 114t67 143q20 78 24 173h-124q-28 1 -40 -14l-36 34h375l34 41l44 -40q9 -6 9 -11q0 -4 -9 -8zM672 379q4 -3 3 -5q0 -2 -4 -4q-17 -2 -35 -17v-180q0 -48 12 -63t34 -19q23 -4 54 -2q46 2 62 8q46 2 52 34q9 44 14 165h13l2 -111q-1 -51 25 -64q-16 -39 -42 -50
q-22 -12 -96 -14q-79 -8 -132 8q-44 18 -40 114v183q-3 23 -30 46l8 10zM325 831h-150v-109h150v109zM268 408h100v158h-100v-158zM226 566h-99v-158h99v158zM670 476l12 12q88 -72 105 -156q10 -64 -31 -62q-20 2 -17 32t-10 74t-59 100zM882 382l8 12q81 -67 108 -135
q28 -83 -19 -89q-17 3 -19 35q-1 33 -15 75q-13 42 -63 102zM537 334q1 -36 -4 -97q-4 -60 -24 -87q-19 -27 -44 -28q-25 -2 -27 18q-2 17 20 29q23 12 39 50q17 39 23 115h17zM601 826v-4q-1 -30 -5 -74t-23 -71t-43 -29q-24 -1 -29 15q-5 17 19 31t39 37t25 95h17z" />
  </g>

</svg>
