<?xml version="1.0" standalone="no"?>
<!DOCTYPE svg PUBLIC "-//W3C//DTD SVG 1.1//EN" "http://www.w3.org/Graphics/SVG/1.1/DTD/svg11.dtd" >
<svg xmlns="http://www.w3.org/2000/svg" xmlns:xlink="http://www.w3.org/1999/xlink" version="1.1" viewBox="0 0 2048 2048">
  <g transform="matrix(1 0 0 -1 0 2048)">
   <path fill="currentColor"
d="M1119 1342v-114q0 -410 -71 -686q-76 -298 -267 -464l-25 24q107 149 154 277q75 203 96 478q18 239 18 382v483q0 39 -8 160l111 -70h671l58 77l76 -53q44 -30 35 -53q-12 -30 -65 -51v-308q69 -48 65 -67q-4 -15 -25 -15h-823zM1119 1756v-356h296v356h-296zM1509 1400
h296v356h-296v-356zM1176 1202l120 -80h468l61 72l72 -50q36 -25 41 -44q5 -20 -25 -37q-6 -4 -12 -7q-9 -4 -26 -14v-716q0 -80 6 -140q5 -42 4 -68q-2 -39 -56 -42q-53 -3 -52 33l3 72h-500v-79q0 -45 -69 -40q-42 3 -39 53l3 55q9 134 9 142v764q-6 67 -8 126zM1280 235
h500v241h-500v-241zM1280 532h500v241h-500v-241zM1280 827h500v241h-500v-241zM103 1633l-37 85q30 -4 106 -12l53 -4h26v70q-3 146 -6 160l97 -24q66 -16 70 -43t-49 -43l-21 -6v-114h254v70q-4 144 -7 160l96 -24q67 -17 71 -43t-49 -43l-22 -6v-114h43l76 80l87 -80
q26 -24 23 -41t-28 -17h-201v-200l30 -25q19 -14 18 -27q-2 -18 -26 -18h-186v-202h180l59 72l71 -50q33 -23 37 -43q5 -21 -23 -38q-6 -3 -13 -6q-9 -5 -25 -15v-255l24 -17q31 -21 28 -45q-1 -15 -21 -15h-317v-240h189l76 81l109 -86q21 -16 15 -34q-5 -19 -24 -19h-365
v-130q0 -14 11 -182q3 -46 3 -54q0 -38 -46 -42q-61 -4 -61 42v366h-183q-67 0 -142 -10l-37 86q116 -18 179 -18h183v240h-187v-25q0 -26 -44 -30q-67 -5 -61 51l5 42l7 104v337l119 -67h161v202h-86v-12q0 -25 -39 -30q-66 -9 -61 50l4 42q5 96 5 104v116h-10
q-52 0 -138 -11zM342 1433h254v211h-254v-211zM241 820h187v294h-187v-294zM521 1114v-294h194v294h-194z" />
  </g>

</svg>
