<?xml version="1.0" standalone="no"?>
<!DOCTYPE svg PUBLIC "-//W3C//DTD SVG 1.1//EN" "http://www.w3.org/Graphics/SVG/1.1/DTD/svg11.dtd" >
<svg xmlns="http://www.w3.org/2000/svg" xmlns:xlink="http://www.w3.org/1999/xlink" version="1.1" viewBox="0 -205 1024 1024">
  <g transform="matrix(1 0 0 -1 0 819)">
   <path fill="currentColor"
d="M484 701l45 -33h223q41 73 62 115q23 44 22 52q-1 9 -9 24l10 7l60 -36q17 -10 7 -15q-22 2 -33 -9q-52 -79 -98 -138h52l20 30l43 -34q13 -12 2 -14q-16 -1 -25 -18l-25 -88h23l20 30l43 -34q13 -12 2 -14q-16 -1 -25 -18l-21 -96h43l16 27l40 -26q9 -6 9 -11
q0 -4 -9 -8l-14 -13l-4 -129q-6 -88 -24 -128q-18 -41 -51 -63t-95 -32q0 16 -24 34q-43 21 -82 32l2 16q88 -24 118 -27q43 -6 76 29q34 34 40 139l4 140h-393q-10 -120 -42 -191q-51 -113 -133 -173l-8 8q70 68 112 181q42 116 36 346v85q-4 21 -26 41zM281 969l77 -28
q14 -5 6 -11q-21 -7 -30 -21v-72h34l20 26l54 -36q8 -5 7 -8q-2 -2 -13 -2h-102v-83l4 -41q1 -33 -40 -46v37h-42v-114h95l21 27l38 -29q7 -6 5 -10q-1 -5 -11 -7l-14 -15v-136l2 -21q2 -32 -38 -31v28h-98v-105h110l26 34l62 -44q8 -5 7 -8q-2 -2 -13 -2h-192v-138l2 -49
q3 -36 -49 -44q5 37 7 92v139h-117q-27 1 -45 -13l-34 33h196v105h-98q4 -37 -43 -43q5 37 7 76v152q-3 18 -17 34l14 11l31 -36h106v114h-42v-1q4 -40 -43 -46q5 38 7 84v96h-39q-27 1 -45 -13l-34 33h118v86q2 16 -22 40l9 12l73 -30q14 -5 6 -11q-21 -7 -30 -21v-76h124
v82q2 16 -26 38zM535 412h312l22 112h-330q0 -60 -4 -112zM539 544h266l26 104h-292v-93v-11zM256 392h98v162h-98v-162zM216 554h-98v-162h98v162zM843 983l51 -50q9 -9 9 -14t-9 -6q-32 8 -59 0q-90 -20 -154 -28q-63 -8 -247 -14v14l144 14q152 27 190 37q39 11 50 18
q12 9 13 27zM298 817h-124v-113h124v113zM604 859l4 10q108 -56 106 -124q-1 -32 -23 -34t-22 29q3 65 -65 119zM587 289q7 -91 -16 -136q-30 -55 -59 -33q-11 14 7 30q18 15 34 47q16 30 19 92h15zM472 829l4 10q101 -54 102 -117q-1 -29 -21 -32t-22 24t-17 58
q-15 32 -46 57zM709 336q61 -46 69 -105q7 -49 -23 -46q-15 2 -13 28t-6 54q-7 29 -35 62zM627 310q54 -54 54 -109q0 -49 -28 -46q-15 2 -10 28t1 55q-3 30 -25 65zM792 352l6 9q58 -38 74 -93q9 -48 -20 -53q-13 0 -15 32q-3 68 -45 105z" />
  </g>

</svg>
