<?xml version="1.0" standalone="no"?>
<!DOCTYPE svg PUBLIC "-//W3C//DTD SVG 1.1//EN" "http://www.w3.org/Graphics/SVG/1.1/DTD/svg11.dtd" >
<svg xmlns="http://www.w3.org/2000/svg" xmlns:xlink="http://www.w3.org/1999/xlink" version="1.1" viewBox="0 0 2048 2048">
  <g transform="matrix(1 0 0 -1 0 2048)">
   <path fill="currentColor"
d="M1396 215q-211 -105 -619 -165l-12 42q341 72 555 176q-139 104 -254 293q-26 -4 -52 -7q-16 -2 -35 -5l-39 86q118 -17 188 -17h517l68 76l84 -54q40 -27 40 -49q0 -27 -78 -61q-146 -182 -269 -263q158 -61 481 -105v-32q-65 -1 -90 -85q-347 81 -485 170zM1122 561
q136 -170 275 -250q154 100 254 249zM1786 1851q-267 -45 -413 -58q-166 -15 -483 -25l-4 40l87 8q563 51 812 153l84 -89q15 -16 13 -28q-1 -11 -15 -13q-12 -2 -30 1zM1719 1810l132 -59q30 -14 29 -30q-2 -20 -29 -24l-59 -8q-22 -27 -33 -40q-48 -58 -136 -134l-30 21
q82 139 126 274zM1270 1762q187 -102 176 -176q-6 -47 -49 -50q-35 -2 -46 41q-20 80 -101 161zM961 1738q21 -12 31 -18q131 -77 146 -151q4 -23 -7 -43q-17 -32 -46 -25q-25 5 -42 62q-24 79 -108 149zM891 1268l122 -66h104l52 73l79 -54q41 -27 39 -45q-3 -22 -64 -54
v-193q46 -31 44 -53q-2 -17 -23 -17h-257v-18q0 -43 -61 -43q-35 0 -35 23v447zM987 917h142v229h-142v-229zM989 1398l-39 86q121 -18 188 -18h499l73 69l79 -69q47 -40 38 -64q-9 -23 -117 -30q-118 -75 -235 -132q26 -16 28 -26q3 -15 -36 -29l-30 -11v-370
q0 -86 -49 -121q-26 -18 -89 -42q-18 59 -54 78q-23 11 -123 32l8 46q33 -7 97 -14l48 -5q71 -6 71 64v310q0 55 -12 133l99 -27l182 151h-477q-64 0 -149 -11zM108 1635l-39 86q27 -3 41 -5q38 -6 97 -10l35 -2h18v70q0 117 -7 160l101 -24q70 -16 74 -43t-51 -43l-23 -6
v-114h209v70q-4 146 -7 160l101 -24q70 -16 74 -43q3 -26 -53 -43l-21 -6v-114h21l79 80l91 -80q28 -23 24 -41q-3 -17 -30 -17h-185v-200l29 -25q21 -13 20 -27q-2 -18 -28 -18h-160v-202h130l60 72l73 -49q36 -25 41 -44q5 -20 -25 -38q-6 -3 -13 -6q-9 -5 -27 -14v-256
l21 -16q37 -29 34 -46q-2 -15 -23 -15h-271v-239h138l79 80l114 -86q22 -16 16 -34t-26 -18h-321v-131q0 -24 6 -138q5 -91 4 -102q-3 -34 -43 -38q-63 -5 -63 42v367h-161q-67 0 -149 -11l-39 86q118 -17 188 -17h161v239h-138v-13q0 -38 -54 -38q-60 0 -55 52l5 42
q7 99 7 104v332l122 -67h113v202h-68v-37q0 -11 -23 -19q-29 -11 -55 -1q-16 6 -16 28v299h-26q-40 0 -126 -11zM354 1435h209v211h-209v-211zM284 823h138v293h-138v-293zM518 1116v-293h141v293h-141zM1553 1272l122 -67h105l51 74l79 -55q41 -27 39 -44q-3 -22 -63 -54
v-194q46 -30 44 -52q-2 -18 -24 -18h-257v-17q0 -44 -60 -44q-36 0 -36 23v448zM1649 921h143v228h-143v-228z" />
  </g>

</svg>
