<?xml version="1.0" standalone="no"?>
<!DOCTYPE svg PUBLIC "-//W3C//DTD SVG 1.1//EN" "http://www.w3.org/Graphics/SVG/1.1/DTD/svg11.dtd" >
<svg xmlns="http://www.w3.org/2000/svg" xmlns:xlink="http://www.w3.org/1999/xlink" version="1.1" viewBox="0 0 2048 2048">
  <g transform="matrix(1 0 0 -1 0 2048)">
   <path fill="currentColor"
d="M513 1518l82 -12q41 -5 45 -22q6 -22 -32 -33l-34 -10v-21h120l55 53l70 -49q32 -22 27 -40q-4 -13 -23 -13h-253v-79h86l38 49l86 -53q18 -11 18 -28q0 -20 -40 -40v-27l26 -23q30 -25 19 -40q-4 -6 -14 -6h-396v-15q0 -9 -16 -18q-23 -11 -47 -6q-23 4 -23 24v218
l81 -35h100v79h-48q-80 0 -141 -7l-30 70q80 -14 180 -14h39v98h-263v-479q0 -59 -59 -54q-40 4 -36 54l4 50l4 94l4 106v171l-2 46q-2 102 -10 149l119 -86h139q-2 6 -5 23q-10 60 -69 133l16 15q-84 0 -173 -8l-39 76q127 -18 189 -18h245q-16 11 -21 33q-15 63 -76 126
l18 22q136 -65 140 -125q2 -33 -28 -56h217l81 81l113 -86q18 -14 15 -26q-4 -19 -26 -19h-254l83 -33q32 -13 30 -34q-1 -19 -33 -22q-21 -2 -35 -5q-19 -24 -49 -59q-12 -14 -16 -18h157l61 71l73 -49q36 -25 41 -44q5 -20 -25 -37q-7 -4 -13 -7q-10 -4 -28 -14v-380
q0 -116 -139 -141q-7 50 -39 70q-28 17 -96 31l8 40q86 -17 128 -17q43 0 44 61l4 365h-374zM651 1569q38 68 60 171h-363q127 -89 118 -143q-2 -11 -8 -28h193zM393 1170h274v78h-274v-78zM1335 1376h-55q-94 0 -189 -12l-40 85q27 -3 41 -5q86 -11 208 -11h51
q16 61 28 240h-53q-44 0 -151 -11l-39 86q123 -16 182 -16h61q-6 145 -15 209l126 -24q74 -14 69 -42q-6 -28 -83 -52q-1 -27 -1 -69q0 -3 1 -22h171l61 71l72 -49q37 -25 41 -44q5 -20 -25 -37l-39 -21v-219h25l80 80l114 -86q21 -15 16 -33q-6 -18 -26 -18h-534
q-51 -152 -149 -248q-92 -91 -256 -158l-13 33q241 134 321 373zM1476 1673q-6 -135 -28 -240h214v240h-186zM229 804l-39 87q111 -19 188 -19h278v23l-6 70q-2 26 -4 37l109 -22q83 -17 86 -45q3 -30 -51 -44l-41 -11v-8h539v8q0 90 -8 133l113 -26q79 -19 82 -42
q3 -29 -50 -43l-41 -11v-19h268l87 87l132 -92q21 -15 16 -34q-6 -18 -26 -18h-477v-73l31 -26q24 -22 20 -38q-4 -15 -20 -15h-349v-81h485l61 72l72 -50q37 -25 42 -43q5 -20 -25 -38q-6 -3 -13 -6q-9 -5 -26 -15v-62l38 -26q22 -15 18 -35q-3 -19 -15 -19h-637v-95h676
l98 102l121 -108q20 -17 15 -33q-5 -18 -25 -18h-885v-116q0 -42 -55 -42q-41 0 -41 32v126h-707q-67 0 -149 -11l-39 86q116 -18 188 -18h707v95h-492v-15q0 -37 -58 -42q-38 -3 -38 22v319l122 -62h466v81h-221v-15q0 -32 -53 -32q-40 0 -40 32v167h-278q-63 0 -149 -11z
M1066 524v-110h501v110h-501zM749 720h539v95h-539v-95zM478 414h492v110h-492v-110zM1532 1285q158 -78 200 -107q98 -67 114 -119q8 -31 -8 -57.5t-42 -24.5q-23 3 -45 41q-75 130 -241 236z" />
  </g>

</svg>
