<?xml version="1.0" standalone="no"?>
<!DOCTYPE svg PUBLIC "-//W3C//DTD SVG 1.1//EN" "http://www.w3.org/Graphics/SVG/1.1/DTD/svg11.dtd" >
<svg xmlns="http://www.w3.org/2000/svg" xmlns:xlink="http://www.w3.org/1999/xlink" version="1.1" viewBox="0 -205 1024 1024">
  <g transform="matrix(1 0 0 -1 0 819)">
   <path fill="currentColor"
d="M709 966q9 -10 -2 -15q-18 -4 -30 -15v-118h85v121q2 16 -22 44l11 8l75 -30q14 -5 6 -11q-21 -7 -30 -21v-111h87l25 31l43 -39q7 -6 6 -10t-10 -6l-20 -8v-116l6 -61q1 -32 -46 -33v52h-91v-160h113l29 38l51 -53q5 -9 -6 -11l-22 -10v-74q-1 -94 -19 -127
q-20 -40 -67 -48q-8 38 -79 54v-90l3 -63q2 -36 -50 -46q5 39 7 140v270h-91q-14 -161 -56 -235q-68 -116 -202 -194l-2 16q152 109 189 257q17 68 26 156h-80l-21 -34l-47 39q18 9 27 32l18 150q-2 23 -16 42l11 9l35 -38h83v56v94h-76q-18 2 -38 -14l-35 34h149v132
q-6 23 -25 39l8 8zM109 656l30 -29h228l15 27l46 -31q7 -6 5 -10q-1 -5 -11 -7l-6 -13v-67l5 -36q3 -26 -45 -36v31h-94v-93h97l20 32l60 -38q8 -5 7 -8q-2 -2 -13 -2h-171v-127h121l23 28l52 -35q10 -7 8 -10q-1 -4 -14 -3h-190v-123l2 -37q3 -35 -53 -44q5 37 7 120v84
h-133l-26 -28l-37 36q16 9 26 27l20 49q2 17 -12 21l8 10l55 -29q9 -4 11 -7q1 -4 -4 -6q-18 -3 -24 -7l-20 -46h136v127h-94q-27 1 -45 -13l-34 29h173v93h-89q-1 -19 -11 -27q-10 -9 -36 -14v4q5 33 7 70v95q-3 24 -12 32zM123 837q-18 2 -36 -12l-32 28h142l18 88
q2 16 -17 38l8 11l74 -30q14 -5 6 -11q-19 -4 -29 -18l-16 -78h112l21 29l46 -31q7 -6 6 -10t-10 -6l-14 -14v-103h37l20 26l52 -36q8 -5 7 -8q-2 -2 -13 -2h-411q-27 1 -45 -13l-34 33h155l24 119h-71zM802 448v-205l2 11q39 -14 85 -16q33 10 37 100q1 7 1 10q2 42 0 100
h-125zM149 501h227v110h-227v-110zM212 718h150v119h-125zM677 628q0 -88 -5 -160h90v160h-85zM802 648h91v150h-91v-150zM541 468h87q6 73 8 160h-77zM677 798v-120v-30h85v150h-85z" />
  </g>

</svg>
