<?xml version="1.0" standalone="no"?>
<!DOCTYPE svg PUBLIC "-//W3C//DTD SVG 1.1//EN" "http://www.w3.org/Graphics/SVG/1.1/DTD/svg11.dtd" >
<svg xmlns="http://www.w3.org/2000/svg" xmlns:xlink="http://www.w3.org/1999/xlink" version="1.1" viewBox="0 -205 1024 1024">
  <g transform="matrix(1 0 0 -1 0 819)">
   <path fill="currentColor"
d="M510 818l39 -44h85l52 142h-178q-27 1 -45 -13l-34 33h456l39 44l66 -52q11 -7 8 -10q-2 -3 -19 -2h-237l-76 -142h189l35 41l52 -49q7 -6 5 -10q-1 -5 -11 -7l-18 -9v-316l4 -106q7 -40 -50 -44v60h-313v-39q-5 -25 -15 -33q-7 -8 -38 -13q5 39 7 134v379q-3 24 -19 44z
M80 722l6 12q117 -85 188 -171q12 33 22 69q30 104 46 204h-252q-20 2 -32 -12l-32 32h309l29 33l53 -46q5 -4 5 -7q-1 -3 -8 -5q-26 5 -35 -58q-7 -38 -36 -142q-16 -59 -37 -110q62 -87 88 -150q28 -69 23 -95t-25 -28t-38 70q-16 65 -71 155q-2 -4 -7 -13q-4 -8 -7 -13
q-46 -80 -102 -149q-55 -69 -147 -135l-8 12q68 68 115 128q48 61 94 143q18 34 34 71q-65 94 -175 205zM872 480h-313v-126h313v126zM559 632h313v122h-313v-122zM872 616h-313v-120h313v120zM600 276l66 -39q7 -7 7 -10t-7 -4q-24 3 -38 -11q-13 -13 -81 -66
q-67 -56 -155 -105l-8 14q180 139 210 192q5 14 -2 23zM762 254l6 14q86 -40 125 -67q39 -28 59 -54q38 -59 1 -79q-16 -5 -33 32q-16 37 -46 68q-30 33 -112 86z" />
  </g>

</svg>
