<?xml version="1.0" standalone="no"?>
<!DOCTYPE svg PUBLIC "-//W3C//DTD SVG 1.1//EN" "http://www.w3.org/Graphics/SVG/1.1/DTD/svg11.dtd" >
<svg xmlns="http://www.w3.org/2000/svg" xmlns:xlink="http://www.w3.org/1999/xlink" version="1.1" viewBox="0 0 2048 2048">
  <g transform="matrix(1 0 0 -1 0 2048)">
   <path fill="currentColor"
d="M116 1758l-39 86q117 -17 188 -17h615l99 101l120 -107q21 -18 16 -33q-6 -19 -26 -19h-462q-57 -144 -146 -256h388l69 76l79 -54q40 -27 40 -50q0 -26 -75 -59v-684q0 -15 8 -164l3 -58q0 -56 -60 -59q-47 -3 -47 25v53h-416l57 -43q51 -38 44 -56q-7 -15 -57 -15
l-33 -3q-122 -170 -204 -245q-80 -74 -165 -128l-19 31q120 113 182 199q93 130 143 260h-153v-43q0 -37 -52 -37q-60 0 -55 49q13 133 13 223v728q0 17 -5 68q-3 20 -6 60l125 -74h140q49 89 89 256h-249q-68 0 -149 -11zM265 595h621v249h-621v-249zM265 902h621v251h-621
v-251zM265 1207h621v248h-621v-248zM645 487q146 -109 207 -166q117 -111 117 -183q0 -37 -24 -58q-16 -14 -36 -9q-30 6 -51 70q-41 127 -237 319zM1842 830l137 -76q25 -14 27 -34q2 -26 -49 -30l-50 -3q-30 -40 -45 -61q-163 -228 -368 -359q-164 -105 -417 -182l-16 38
q195 86 280 142q227 149 355 317q80 105 146 248zM1686 1951l134 -71q27 -15 29 -32q3 -29 -51 -31l-50 -2q-164 -211 -331 -317q-126 -79 -275 -122l-17 38q147 71 196 106q234 166 365 431zM1764 1421l130 -77q16 -9 22 -21q22 -45 -49 -45h-40q-47 -58 -142 -188
q-89 -123 -280 -230q-59 -32 -256 -107l-16 42q234 104 371 247q149 156 260 379z" />
  </g>

</svg>
