<?xml version="1.0" standalone="no"?>
<!DOCTYPE svg PUBLIC "-//W3C//DTD SVG 1.1//EN" "http://www.w3.org/Graphics/SVG/1.1/DTD/svg11.dtd" >
<svg xmlns="http://www.w3.org/2000/svg" xmlns:xlink="http://www.w3.org/1999/xlink" version="1.1" viewBox="0 0 2048 2048">
  <g transform="matrix(1 0 0 -1 0 2048)">
   <path fill="currentColor"
d="M215 1421q-44 -54 -87 -98l-28 24q185 265 246 586l148 -38q24 -7 26 -27q2 -24 -26 -30l-60 -13q-7 -19 -11 -29q-17 -42 -31 -69h240l58 63l85 -63q39 -29 33 -49q-8 -26 -88 -39q-65 -132 -142 -248h187l61 72l72 -49q37 -25 42 -44q5 -20 -25 -38q-6 -3 -13 -6
q-9 -5 -26 -15v-1068q0 -145 -158 -173q-2 67 -44 94q-32 22 -159 44l8 46q139 -23 190 -27q68 -5 68 57v340h-477q-17 -218 -63 -345q-41 -115 -134 -232l-26 23q73 130 100 263q34 172 34 487v503q-1 74 0 98zM232 1444l79 -53h212q68 151 109 278h-264
q-57 -116 -136 -225zM781 682v299h-193v-299h193zM781 1334h-193v-296h193v296zM307 681l187 1v299h-183v-148q0 -14 -2 -79q-1 -24 -2 -73zM311 1038h183v296h-183v-296zM992 1747l-39 86q118 -18 188 -18h614l98 102l121 -107q20 -18 15 -34q-6 -19 -26 -19h-460
q-58 -143 -146 -255h371l64 75l80 -53q40 -27 40 -49q0 -26 -75 -61v-724q0 -14 7 -165l4 -59q0 -55 -60 -58q-48 -3 -48 25v53h-392l57 -43q51 -38 44 -56q-7 -15 -56 -15h-35q-159 -155 -254 -218q-111 -72 -214 -116l-11 37q282 172 417 411h-131v-43q0 -37 -52 -37
q-59 0 -54 49q13 135 13 223v766q0 17 -6 70l-6 63l125 -75h110q49 89 90 255h-244q-69 0 -149 -10zM1165 542h575v283h-575v-283zM1165 883h575v259h-575v-259zM1165 1196h575v248h-575v-248zM1564 446q194 -83 290 -149q139 -97 120 -190q-6 -35 -38 -37q-33 -2 -69 63
q-82 148 -315 283z" />
  </g>

</svg>
