<?xml version="1.0" standalone="no"?>
<!DOCTYPE svg PUBLIC "-//W3C//DTD SVG 1.1//EN" "http://www.w3.org/Graphics/SVG/1.1/DTD/svg11.dtd" >
<svg xmlns="http://www.w3.org/2000/svg" xmlns:xlink="http://www.w3.org/1999/xlink" version="1.1" viewBox="0 0 2048 2048">
  <g transform="matrix(1 0 0 -1 0 2048)">
   <path fill="currentColor"
d="M381 1754v-280h15l84 76l91 -81q21 -18 16 -34q-6 -18 -26 -18h-181l1 -170q0 -34 8 -91q8 -58 1 -79q-10 -27 -58 -27q-46 0 -46 26l1 341h-22q-67 0 -149 -11l-39 86q121 -18 188 -18h25v280h-23q-54 0 -127 -9l-39 86q115 -17 180 -18l81 -2l80 80l98 -88
q21 -18 19 -34q-2 -15 -28 -15h-150zM654 1758l-35 80q102 -16 141 -16h110l79 80l87 -80q24 -21 24 -35q0 -20 -25 -20h-164v-285h23l80 81l85 -81q25 -24 21 -39q-4 -19 -26 -19h-183v-183q0 -41 6 -104q3 -30 3 -44q0 -51 -60 -51q-46 0 -46 27l1 355l-34 1l-45 -4
q-40 0 -69 -4l-26 80q111 -16 140 -15h34v285l-19 -1zM124 755l-39 86q119 -17 188 -18h239v119q0 118 -8 160l131 -29q61 -14 64 -38q3 -30 -50 -44l-40 -11v-157h226l94 98l114 -98q24 -21 19 -39q-6 -18 -25 -18h-428v-100q386 -211 380 -345q-1 -27 -23 -41.5t-45 -4.5
t-72 91q-54 90 -240 250v-314q0 -80 7 -140q5 -44 3 -68q-1 -38 -55 -42q-51 -4 -51 27v578q-17 -28 -25 -41q-93 -158 -201 -269q-64 -66 -188 -157l-24 28q225 219 372 548h-174q-68 0 -149 -11zM1130 1754l-39 86q120 -17 187 -17h483l98 101l121 -106q21 -19 15 -34
q-6 -18 -26 -18h-419q-76 -169 -139 -253h350l73 77l79 -55q40 -27 40 -48q0 -26 -75 -61v-724q0 -13 8 -165l3 -59q0 -56 -60 -59q-47 -2 -47 26v52h-374l86 -60q27 -18 27 -34q0 -26 -35 -26h-54q-189 -202 -413 -313l-19 35q264 185 363 398h-111v-42q0 -41 -62 -37
q-41 2 -45 30q-1 6 3 94q6 116 6 148v770q0 53 -11 127l124 -74h88q39 82 85 253h-162q-60 0 -148 -12zM1252 1200h530v256h-530v-256zM1252 887h530v259h-530v-259zM1252 554h530v275h-530v-275zM1606 433q129 -54 228 -123q148 -104 123 -194q-12 -46 -56 -36
q-25 6 -52 60q-41 80 -124 155q-31 28 -135 106z" />
  </g>

</svg>
