<?xml version="1.0" standalone="no"?>
<!DOCTYPE svg PUBLIC "-//W3C//DTD SVG 1.1//EN" "http://www.w3.org/Graphics/SVG/1.1/DTD/svg11.dtd" >
<svg xmlns="http://www.w3.org/2000/svg" xmlns:xlink="http://www.w3.org/1999/xlink" version="1.1" viewBox="0 -205 1024 1024">
  <g transform="matrix(1 0 0 -1 0 819)">
   <path fill="currentColor"
d="M520 917h392l28 34l62 -44q8 -5 7 -8q-2 -2 -13 -2h-227l-56 -133h153l29 41l50 -49q7 -6 5 -10q-1 -5 -11 -7l-18 -9v-340l4 -112q5 -39 -42 -44v64h-253v-21q-5 -28 -12 -34q-6 -7 -33 -12q5 39 7 134v389q-3 24 -19 44l16 12l34 -46h61l38 133h-123q-27 1 -45 -13z
M359 984l58 -26q17 -7 9 -15q-16 -1 -30 -12q-4 -7 -13 -21q-10 -17 -33 -56h90l29 41l46 -49q7 -6 5 -10q-1 -5 -11 -7l-18 -9v-86l4 -76q7 -41 -38 -44v38h-159v-124h152l29 41l46 -49q7 -6 5 -10q-1 -5 -11 -7l-18 -9v-112l4 -82q5 -39 -38 -44v56h-169v-41
q-5 -27 -12 -33q-5 -8 -29 -13q5 39 7 134v481q-3 24 -19 44l16 12l28 -42h37l13 32q26 65 23 74q-3 11 -11 15zM71 115l-50 28q38 41 71 70q22 19 41 25v310h-55q-18 2 -36 -12l-32 32h108l33 35l44 -43q7 -6 6 -10t-10 -6l-20 -8v-300q17 -6 35 -22q54 -49 135 -51l66 2
q-2 -1 155 3v-16q-57 -2 -62 -28l-151 1q-67 2 -102 23q-34 19 -59 48q-25 28 -41 22q-51 -29 -76 -103zM883 456h-253v-138h253v138zM883 610h-253v-138h253v138zM630 626h253v118h-253v-118zM298 332h169v176h-169v-176zM298 672h159v162h-159v-162zM671 252l66 -41
q7 -6 7 -9t-7 -4q-26 3 -38 -10t-58 -56q-45 -47 -138 -99l-8 14q66 52 118 104q53 54 54 70q3 16 -4 25zM805 218l4 14q116 -61 152 -107q37 -56 2 -72q-16 -2 -28 30q-12 31 -44 66q-32 32 -86 69zM57 928l6 12q100 -45 119 -97q21 -54 -16 -62q-17 -1 -22 27t-23 56
t-64 64z" />
  </g>

</svg>
