<?xml version="1.0" standalone="no"?>
<!DOCTYPE svg PUBLIC "-//W3C//DTD SVG 1.1//EN" "http://www.w3.org/Graphics/SVG/1.1/DTD/svg11.dtd" >
<svg xmlns="http://www.w3.org/2000/svg" xmlns:xlink="http://www.w3.org/1999/xlink" version="1.1" viewBox="0 0 2048 2048">
  <g transform="matrix(1 0 0 -1 0 2048)">
   <path fill="currentColor"
d="M349 636q-31 -246 -81 -348q-65 -132 -190 -218l-26 39q96 88 144 220q41 114 55 307q-19 -1 -63 -3q-42 -2 -89 -6l-32 79q87 -16 157 -16h251v210h-197q-25 -18 -55 -16q-37 2 -37 46v723q0 110 -9 150l119 -25q67 -14 71 -43q4 -25 -49 -43l-36 -13l-1 -724l177 -1
l61 72l72 -50q37 -25 41 -43q5 -20 -25 -38q-6 -3 -13 -6q-9 -5 -26 -15l-2 -520q0 -66 8 -205q3 -60 -51 -67q-48 -7 -48 26v528h-126zM793 690h182l57 71l76 -57q34 -25 34 -41q0 -15 -29 -33q-28 -16 -35 -21v-241q0 -154 4 -187q4 -44 3 -68q-2 -45 -60 -45
q-42 0 -42 30v534h-190l1 -169l-1 -181l4 -76q4 -84 2 -89q-9 -32 -58 -32q-38 0 -38 33v750q0 84 -9 147l115 -77h166v707q0 108 -9 150l124 -24q66 -14 71 -43q4 -27 -50 -44l-40 -12v-717l41 -31q14 -10 15 -21q3 -21 -24 -21l-310 1v-193zM751 1847l61 72l72 -50
q36 -25 41 -43q5 -19 -25 -37t-42 -27l-1 -431q0 -77 6 -144q6 -79 -1 -94q-20 -38 -70 -29q-26 5 -26 29v32h-265l1 -22q0 -36 -50 -46q-49 -9 -45 49q6 79 6 190v422q0 96 -8 190l114 -61h232zM766 1183v160h-265v-160h265zM766 1397v161h-265v-161h265zM766 1613v176
h-265v-176h265zM1201 1739l-40 86q123 -17 189 -17h406l98 101l121 -106q20 -18 16 -34q-6 -19 -26 -19l-325 1q-57 -125 -139 -253h259l68 77l80 -55q40 -27 40 -48q0 -26 -75 -61v-725q0 -13 7 -164l4 -59q0 -56 -60 -59q-48 -2 -48 26v52h-286l57 -42q58 -43 45 -68
q-7 -14 -27 -15q-14 -1 -30 3l-35 9q-186 -192 -358 -270l-15 35q217 163 310 348h-96v-42q0 -37 -52 -37q-60 0 -55 49q13 133 13 223v770q0 53 -11 127l125 -74h83q41 92 83 253l-177 -1q-69 0 -149 -11zM1341 1192h435v249h-435v-249zM1341 875h435v263h-435v-263z
M1341 539h435v282h-435v-282zM1644 429q340 -157 333 -286q-1 -20 -18 -36q-16 -15 -35 -15q-25 0 -55 59q-56 111 -241 247z" />
  </g>

</svg>
