<?xml version="1.0" standalone="no"?>
<!DOCTYPE svg PUBLIC "-//W3C//DTD SVG 1.1//EN" "http://www.w3.org/Graphics/SVG/1.1/DTD/svg11.dtd" >
<svg xmlns="http://www.w3.org/2000/svg" xmlns:xlink="http://www.w3.org/1999/xlink" version="1.1" viewBox="0 0 2048 2048">
  <g transform="matrix(1 0 0 -1 0 2048)">
   <path fill="currentColor"
d="M1002 1045q360 -148 370 -264q4 -49 -38 -57q-30 -5 -65 49q-79 123 -292 240q-64 -81 -122 -131q-96 -82 -252 -151l-14 35q148 100 212 168q87 92 154 237l95 -30q66 -21 61 -45q-4 -20 -45 -26q-6 -1 -12 -1q-12 -1 -38 -6zM1040 1771l-40 86q124 -18 188 -18h33
l55 68l73 -50q36 -25 41 -44q5 -20 -25 -37q-6 -4 -12 -7q-10 -5 -27 -15l-1 -492q0 -67 -52 -110q-30 -25 -81 -33q0 61 -39 85q-28 18 -96 32l8 42q97 -19 129 -19q46 0 46 68v455h-52q-68 0 -148 -11zM975 891l83 -38q68 -31 57 -61q-5 -14 -61 -14h-34
q-124 -129 -310 -201l-15 32q112 77 157 121q65 63 123 161zM1115 702l79 -50q57 -35 50 -56q-7 -20 -58 -16l-37 4q-199 -182 -492 -254l-12 35q334 140 470 337zM998 1702q212 -34 212 -122q0 -41 -40 -43q-32 -2 -66 47q-27 39 -117 85zM1207 1494l12 -27q-2 -2 -114 -86
l-3 -25q-7 -46 -30 -49q-18 -1 -40 45l-41 85q116 22 216 57zM260 1798h198l61 71l72 -49q37 -25 41 -44q5 -20 -25 -37q-6 -4 -13 -7q-9 -4 -26 -14l-6 -1145l3 -65q3 -92 5 -116q3 -42 2 -70q-2 -53 -59 -53q-46 0 -46 51v79h-218v-71q0 -52 -52 -54q-53 -3 -53 50
q0 5 2 45q2 17 3 71q1 25 2 58q3 59 3 82v1172q-3 84 -16 134zM249 1741v-376h218v376h-218zM249 1308v-393h218v393h-218zM249 860v-404h218v404h-218zM1439 1754l-39 86q118 -17 188 -17h179l80 81l114 -86q21 -16 15 -34t-26 -18h-235q-40 -127 -109 -252h188l61 71
l72 -49q37 -26 42 -44q5 -20 -25 -37q-7 -4 -13 -7q-9 -4 -27 -14l3 -733q0 -11 7 -164l4 -59q0 -55 -60 -59q-48 -2 -48 26v52h-225l69 -42q36 -21 36 -42q0 -27 -42 -28l-34 -1q-143 -200 -340 -311l-15 34q202 158 293 390h-41v-42q0 -37 -52 -37q-60 0 -55 49
q14 135 14 223v770q0 54 -12 127l106 -75l38 2q32 97 55 252l-17 -1q-100 -4 -149 -11zM1511 1207h299v249h-299v-249zM1511 890h299v263h-299v-263zM1511 554h299v278h-299v-278zM1745 420q90 -69 150 -139q94 -108 80 -168q-6 -25 -25 -39q-15 -11 -32 -6q-20 6 -33 53
q-37 129 -170 275zM668 1767l-39 86q118 -18 188 -18h21l56 68l72 -50q37 -25 41 -44q6 -20 -24 -38q-6 -3 -13 -6q-9 -5 -26 -15l-1 -492q0 -67 -52 -110q-31 -25 -82 -33q1 61 -38 85q-28 18 -97 32l8 42q100 -20 129 -20q47 0 47 69v455h-41q-67 0 -149 -11zM634 1698
q212 -34 212 -122q0 -41 -40 -43q-31 -2 -66 47q-28 40 -117 85zM832 1486l13 -27q-2 -1 -115 -86l-3 -25q-7 -46 -30 -48q-18 -2 -40 44l-41 85q113 22 216 57zM1206 497l79 -50q56 -35 49 -56q-6 -20 -57 -15l-38 3q-122 -104 -251 -169q-139 -71 -343 -119l-12 35
q406 153 573 371z" />
  </g>

</svg>
