<?xml version="1.0" standalone="no"?>
<!DOCTYPE svg PUBLIC "-//W3C//DTD SVG 1.1//EN" "http://www.w3.org/Graphics/SVG/1.1/DTD/svg11.dtd" >
<svg xmlns="http://www.w3.org/2000/svg" xmlns:xlink="http://www.w3.org/1999/xlink" version="1.1" viewBox="0 -205 1024 1024">
  <g transform="matrix(1 0 0 -1 0 819)">
   <path fill="currentColor"
d="M854 965l60 -43q7 -5 7 -9q0 -3 -7 -5q-20 5 -34 0t-107 -25l-14 -3v-122h140l20 28l64 -38q8 -5 7 -8q-2 -2 -13 -2h-98v-126h48l20 28l60 -38q8 -5 7 -8q-2 -2 -13 -2h-122v-150h32l24 28l60 -38q8 -5 7 -8q-2 -2 -13 -2h-230v-124h112l20 28l60 -38q8 -5 7 -8
q-2 -2 -13 -2h-309q-27 1 -45 -13l-34 33h168v124h-123q-27 1 -45 -13l-34 33h80v150h-29q-27 1 -45 -13l-34 33h108v126h-13q-27 1 -45 -13l-34 33h214v115q-77 -13 -173 -22l-2 14q96 18 184 38q89 20 99 30q11 10 13 26zM81 930l32 -35h310l26 35l45 -42q7 -7 6 -11
q-1 -5 -11 -7l-22 -10v-70q0 -142 2 -225t15 -175q14 -92 42 -149q29 -57 94 -98q65 -44 167 -58t125 -8t26 43q2 30 9 87l16 -2v-71q-2 -49 24 -65q12 -10 -2 -17q-55 -19 -212 3q-205 29 -277 168q-37 75 -48 164q-10 89 -13 182q-2 95 -2 225v81h-312v-151
q3 -316 -19 -458q-22 -138 -84 -233l-8 6q54 127 66 254q13 129 11 423v165q-2 23 -16 41zM176 625l20 -29h68v133q-43 -7 -111 -12v12q104 20 137 30t44 16q12 8 8 24l7 1l48 -42q5 -8 3 -11q-3 -3 -14 -1q-18 5 -29 3q-10 -1 -57 -13q-1 0 -5 -1q-3 0 -5 -1v-138h54l15 23
l28 -25q8 -8 -4 -13l-8 -9v-154l4 -47q-2 -21 -28 -27v28h-61v-139l95 24v2q-12 26 -36 48l6 5q74 -46 76 -116q-4 -19 -18 -16q-12 5 -14 27q-2 20 -8 36l-118 -37q-70 -21 -86 -31t-22 -25l-34 43l133 34v145h-62v-5q1 -26 -4 -31q-6 -9 -27 -13q0 3 1 8q4 29 6 62v193
q-1 15 -11 31zM725 592h-92v-150h92v150zM849 592h-90v-150h90v150zM264 580h-62v-192h62v192zM290 388h61v192h-61v-192zM725 738h-92v-126h92v126zM849 738h-90v-126h90v126z" />
  </g>

</svg>
