<?xml version="1.0" standalone="no"?>
<!DOCTYPE svg PUBLIC "-//W3C//DTD SVG 1.1//EN" "http://www.w3.org/Graphics/SVG/1.1/DTD/svg11.dtd" >
<svg xmlns="http://www.w3.org/2000/svg" xmlns:xlink="http://www.w3.org/1999/xlink" version="1.1" viewBox="0 -205 1024 1024">
  <g transform="matrix(1 0 0 -1 0 819)">
   <path fill="currentColor"
d="M89 930l32 -35h298l26 35l45 -42q7 -7 6 -11q-1 -5 -11 -7l-22 -10v-70q0 -142 2 -225t15 -175q14 -92 42 -149q29 -57 94 -98q65 -44 167 -58t125 -8t26 43q2 30 9 87l16 -2v-71q-2 -49 24 -65q12 -10 -2 -17q-55 -19 -212 3q-205 29 -277 168q-37 75 -48 164
q-10 89 -13 182q-2 95 -2 225v81h-300v-151q3 -316 -19 -458q-22 -138 -84 -233l-8 6q54 127 66 254q13 129 11 423v165q-2 23 -16 41zM176 617l20 -29h68v133q-42 -7 -107 -12v12q101 20 132 30q32 10 43 16q12 8 8 24l7 1l48 -42q5 -8 3 -11q-3 -3 -14 -1q-18 5 -29 3
q-10 -1 -56 -13q-1 0 -4 -1q-3 0 -5 -1v-138h54l15 23l28 -25q8 -8 -4 -13l-8 -9v-154l4 -47q-2 -21 -28 -27v28h-61v-139l95 24v2q-12 26 -36 48l6 5q74 -46 76 -116q-4 -19 -18 -16q-12 6 -14 28q-2 18 -8 35l-118 -36q-70 -22 -86 -32t-22 -24l-34 42l133 34v145h-62v-5
q1 -26 -4 -31q-6 -9 -27 -13q0 3 1 8q4 29 6 62v193q-1 15 -11 31zM820 966l75 -28q14 -5 6 -11q-21 -7 -30 -21v-84h46l16 28l60 -38q8 -5 7 -8q-2 -2 -13 -2h-116v-73l4 -25q1 -34 -38 -46v31h-88q-1 -17 -7 -25q-6 -9 -34 -14q1 6 2 17q3 20 5 47v88h-81v-201h263l17 27
l56 -34q10 -7 8 -10q-1 -4 -14 -3h-319l-32 -30l-41 38q24 14 28 33v180h-30q-27 1 -45 -13l-34 33h109v67q2 24 -24 45l8 10l75 -27q9 -4 11 -7q1 -4 -4 -6q-20 -5 -32 -19v-63h81v92q2 16 -26 38l5 12l79 -28q14 -5 6 -11q-21 -7 -30 -21v-82h88v94q2 16 -26 38zM728 564
l79 -28q14 -5 6 -11q-21 -7 -30 -21v-50h140l20 28l56 -38q8 -5 7 -8q-2 -2 -13 -2h-210v-41q66 -22 103 -45q46 -27 62 -57q16 -35 -9 -47q-13 -3 -26 25t-45 55q-28 23 -85 49v-114l2 -57q2 -34 -43 -43q5 38 7 99v176h-20q-26 -70 -73 -122q-50 -55 -100 -85l-6 14
q57 48 103 114q21 31 37 79h-104q-27 1 -45 -13l-34 33h242v60q2 16 -30 38zM264 572h-62v-192h62v192zM290 380h61v192h-61v-192zM837 802h-88v-93h88v93z" />
  </g>

</svg>
