<?xml version="1.0" standalone="no"?>
<!DOCTYPE svg PUBLIC "-//W3C//DTD SVG 1.1//EN" "http://www.w3.org/Graphics/SVG/1.1/DTD/svg11.dtd" >
<svg xmlns="http://www.w3.org/2000/svg" xmlns:xlink="http://www.w3.org/1999/xlink" version="1.1" viewBox="0 -205 1024 1024">
  <g transform="matrix(1 0 0 -1 0 819)">
   <path fill="currentColor"
d="M582 641l19 -27h69v147q-46 -9 -91 -12l-9 12q90 14 121 25q30 11 49 18q19 8 16 25l7 1l44 -38q5 -8 3 -11q-3 -3 -14 -1q-12 4 -24 2q-10 -1 -63 -14l-7 -2v-152h58l13 19l26 -17q7 -6 6 -11q0 -4 -8 -6l-10 -9v-140l4 -45q-2 -27 -34 -31v32h-55v-180l92 21l-1 1
q-13 29 -42 56l4 9q85 -60 83 -132q-5 -15 -17 -10q-10 6 -12 25q-1 16 -9 37l-95 -27q-148 -39 -140 -60l-32 42l137 32v186h-54v-13q3 -29 -37 -36q5 29 7 78v167q-1 17 -13 33zM499 966l33 -39h301l18 27l36 -27q10 -7 9 -13q0 -5 -11 -7l-14 -11v-333q0 -113 7 -214
t32 -173q26 -71 33 -43q8 26 24 113l10 -4q-1 -12 -3 -33q-5 -46 -7 -80q-2 -36 7 -58q8 -23 -15 -14q-22 12 -46 43q-77 92 -74 470v337h-302v-352q-1 -188 -33 -328q-31 -137 -90 -201l-6 10q92 158 97 527v354q-2 23 -16 41zM422 519v-375q5 -55 -59 -67q-4 28 -33 37
q-29 7 -64 15l4 15q81 -15 93 -15q13 0 20 6q8 6 7 69v326h-287v-384l4 -37q3 -38 -43 -46q5 39 7 102v375q-3 17 -16 33l10 9l29 -32h286l22 27l34 -26q9 -6 9 -11q0 -4 -9 -8zM458 793q15 -15 -8 -16h-5q-20 -1 -72 -72l-10 3l40 76h-114v-151q0 -56 -65 -62q4 33 -85 43
l2 15l29 -6q41 -4 62 -6q21 -1 25 38v129h-21q-19 -42 -48 -72q-31 -34 -64 -57t-109 -53l-4 10q100 51 147 111q20 25 38 61h-111q-19 2 -35 -12l-33 30h389l19 22zM171 394l16 -21h108l13 21l28 -23q7 -6 6 -10t-10 -5l-6 -7v-69l5 -26q0 -30 -31 -36v29h-105
q2 -35 -33 -43v4q5 33 7 70v83q-1 17 -7 25zM182 885l2 9q33 -4 61 -16q20 -8 30 -17l70 73h-221q-19 2 -38 -13l-33 31h297l24 20l37 -39q4 -10 -2 -9q-29 3 -71 -32q-7 -5 -25 -20q-17 -13 -27 -21q11 -14 11 -26q-1 -13 -13 -16q-11 -2 -16 11q-16 39 -86 65zM670 598
h-54v-176h54v176zM702 422h55v176h-55v-176zM195 263h105v94h-105v-94zM192 501l42 -23q7 -4 7 -7t-7 -5q-16 2 -31 -24q-15 -24 -83 -93l-6 8q69 98 72 107q12 19 0 33zM277 488l4 9q84 -50 87 -102q-1 -17 -14 -18q-12 2 -17 20q-13 50 -60 91z" />
  </g>

</svg>
