<?xml version="1.0" standalone="no"?>
<!DOCTYPE svg PUBLIC "-//W3C//DTD SVG 1.1//EN" "http://www.w3.org/Graphics/SVG/1.1/DTD/svg11.dtd" >
<svg xmlns="http://www.w3.org/2000/svg" xmlns:xlink="http://www.w3.org/1999/xlink" version="1.1" viewBox="0 0 2048 2048">
  <g transform="matrix(1 0 0 -1 0 2048)">
   <path fill="currentColor"
d="M730 708q4 -30 20 -39q14 -9 44 -13q48 -7 67 13q14 16 21 58q0 1 13 80h36v-46q0 -51 12 -84q3 -8 24 -29q12 -13 13 -23q4 -57 -153 -57q-78 0 -119 17q-60 24 -60 101l-2 308q0 91 -5 144h-260l56 -13q80 -18 83 -43q4 -26 -49 -43l-39 -14v-109l25 1l70 64l83 -70
q20 -17 15 -33q-5 -19 -25 -19l-168 1v-173q94 29 182 73l14 -30q-73 -70 -181 -149l-5 -30q-5 -35 -22 -36q-22 -2 -41 40l-51 110l16 2v323q0 110 -6 148l-3 4l-55 -11l-23 40q0 -294 -20 -503q-28 -286 -138 -519l-32 18q58 217 75 390q16 168 21 494l2 136v399
q0 111 -15 201l114 -76h313q-18 15 -23 40q-19 86 -92 175l20 24q171 -113 161 -193q-3 -29 -33 -46h163l78 80l111 -86q20 -15 15 -33q-5 -19 -25 -19h-241v-199l125 1l52 69l70 -49q35 -25 40 -43q5 -20 -24 -38q-6 -3 -13 -6q-10 -6 -30 -19l3 -228q0 -16 -11 -28
q-23 -24 -56 -21q-26 3 -26 24v22h-144l39 -9q80 -18 83 -43q3 -26 -49 -43l-40 -14v-105l60 1l61 62l92 -69q20 -15 15 -33q-6 -18 -26 -18l-202 1v-160zM414 1454v199h-157l1 -185q59 -11 156 -14zM625 1454l-1 199h-124v-199h125zM257 1209q28 -2 74 -7q41 -5 83 -7v201
q-61 -4 -127 -11l-30 44v-220zM500 1195h125v201h-125v-201zM711 1195h130v201h-130v-201zM1316 1234h82v236h-43q-69 0 -148 -11l-39 86q125 -18 187 -18h154l80 81l114 -85q21 -16 16 -34q-6 -19 -26 -19h-211v-236h70l61 71l72 -49q37 -25 41 -44q5 -20 -25 -37
q-6 -4 -13 -7q-9 -4 -27 -14v-319l30 -26q25 -20 24 -33q-2 -19 -18 -19h-215v-333l30 3q26 3 35 5q64 12 78 12l3 -1q-46 92 -83 145l28 26q71 -74 121 -143q65 -90 60 -159q-5 -73 -62 -66q-28 3 -33 41q-12 92 -19 112q-62 -30 -375 -91l-11 -42q-8 -31 -25 -32
q-12 -2 -29 30l-69 131q107 6 189 14q43 4 78 7v341h-102v-47q0 -31 -45 -31q-57 0 -53 51l4 42q7 97 7 104l1 278q0 9 -10 167zM1296 1175v-362h102v362h-102zM1482 813h91v362h-91v-362zM1848 1718v-701q0 -278 17 -499q12 -159 33 -159q5 0 14 35l53 225l37 -12l-32 -235
q-6 -42 -6 -107q0 -64 19 -121q9 -27 8 -42q-1 -12 -15 -20t-27 -5q-66 16 -116 165q-75 224 -75 764v756h-622v-519q0 -475 -23 -686q-20 -177 -67 -309q-26 -73 -88 -195l-36 18q80 228 102 443q22 219 22 683v473q0 121 -17 229l119 -80h591l68 80l86 -65q41 -32 40 -52
q-1 -26 -85 -64zM779 511q172 -113 180 -207q7 -68 -43 -68q-23 0 -34 35q-36 118 -124 212zM591 510q180 -158 180 -260q0 -26 -15 -45q-16 -20 -40 -15q-28 5 -35 51q-12 78 -43 134q-22 39 -71 112zM439 481q114 -163 114 -253q0 -83 -57 -76q-27 4 -33 34q-1 7 -2 50
q-3 109 -52 232zM333 462l32 -7q-9 -114 -40 -195q-49 -127 -110 -127q-54 0 -51 52q1 25 42 52q93 61 127 225z" />
  </g>

</svg>
