<?xml version="1.0" standalone="no"?>
<!DOCTYPE svg PUBLIC "-//W3C//DTD SVG 1.1//EN" "http://www.w3.org/Graphics/SVG/1.1/DTD/svg11.dtd" >
<svg xmlns="http://www.w3.org/2000/svg" xmlns:xlink="http://www.w3.org/1999/xlink" version="1.1" viewBox="0 0 2048 2048">
  <g transform="matrix(1 0 0 -1 0 2048)">
   <path fill="currentColor"
d="M1196 1501q-94 -247 -224 -387l-26 23q190 318 256 811l124 -45q57 -20 57 -44q0 -22 -54 -30l-41 -6q-8 -33 -12 -49q-29 -117 -61 -216h545l88 102l113 -99q20 -17 23 -34q5 -26 -27 -26h-431v-1272q0 -142 -154 -170q-12 70 -48 92q-32 21 -159 44l8 46
q140 -23 190 -27q68 -6 68 57l-1 1230h-234zM1647 1098q121 -136 190 -269q98 -188 98 -306q0 -34 -24.5 -54.5t-53.5 -12.5q-35 10 -44 76q-40 305 -195 542zM1143 1129l135 -44q52 -17 52 -39q0 -25 -49 -32l-48 -7q-60 -231 -123 -351q-71 -135 -158 -224l-26 22
q170 278 217 675zM345 1486q91 -13 158 -13h102l80 81l114 -86q21 -16 16 -34q-6 -18 -26 -18h-286q-69 0 -149 -11l-28 61q-26 -26 -38 -39q-77 -78 -198 -174l-22 31q178 173 286 349q80 132 137 315l130 -48q43 -16 43 -37q0 -26 -43 -31l-41 -4q301 -141 334 -261
q11 -37 -11 -64q-15 -19 -40 -15q-29 4 -55 51q-74 135 -256 256q-98 -181 -207 -309zM726 665h-429v-415q255 64 439 143q-31 63 -112 178l28 25q247 -220 233 -356q-7 -65 -58 -62q-36 3 -46 68q-8 51 -28 107q-119 -78 -374 -187l-65 -28q-5 -21 -7 -32q-7 -39 -25 -39
q-16 0 -32 33l-63 121l14 4v912q-7 122 -8 154l116 -69h402l61 72l72 -49q37 -26 42 -44q5 -20 -25 -37q-6 -4 -13 -7q-9 -4 -27 -14v-352q0 -47 7 -104q3 -27 3 -44q0 -41 -56 -49q-47 -6 -48 25zM726 725v198h-429v-198h429zM726 1165h-429v-182h429v182z" />
  </g>

</svg>
