<?xml version="1.0" standalone="no"?>
<!DOCTYPE svg PUBLIC "-//W3C//DTD SVG 1.1//EN" "http://www.w3.org/Graphics/SVG/1.1/DTD/svg11.dtd" >
<svg xmlns="http://www.w3.org/2000/svg" xmlns:xlink="http://www.w3.org/1999/xlink" version="1.1" viewBox="0 -205 1024 1024">
  <g transform="matrix(1 0 0 -1 0 819)">
   <path fill="currentColor"
d="M806 967l89 -36q14 -5 6 -11q-21 -7 -30 -21v-206h38l32 40l62 -50q8 -5 7 -8q-2 -2 -13 -2h-126v-474l4 -95q1 -33 -48 -46v85h-246v-61q2 -36 -51 -46q5 39 7 157v480h-39q-27 1 -45 -13l-34 33h118v214q2 16 -30 46l9 12l89 -36q14 -5 6 -11q-21 -7 -30 -21v-204h246
v216q2 16 -30 46zM288 274l6 12q130 -57 125 -155q-6 -22 -24 -23t-21 31q-3 26 -17 57q-91 -51 -134 -73q-43 -24 -57 -39q-13 -15 -23 -39l-52 53q15 6 30 25v479q-3 20 -16 45l9 8l41 -35h180l33 41l50 -47q7 -6 5 -10q-1 -5 -11 -7l-18 -9v-197l5 -56q3 -26 -45 -36v45
h-189v-214q101 41 183 82q-18 32 -60 62zM827 430h-246v-269h246v269zM827 673h-246v-225h246v225zM317 963q6 -4 5 -8q0 -3 -7 -5q-21 -3 -34 -18q-6 -14 -11 -28q66 -27 102 -50q51 -35 70 -75q17 -44 -14 -53q-16 -3 -33 32q-16 36 -45 66q-27 27 -88 64
q-38 -86 -89 -154q-63 -85 -148 -149l-8 10q57 61 111 136q54 77 83 147q30 71 26 82t-15 26l6 8zM354 480h-189v-118h189v118zM165 496h189v106h-189v-106zM212 781l6 11q68 -30 84 -73q14 -28 6 -48q-7 -19 -25 -17t-18 25q1 50 -53 102z" />
  </g>

</svg>
