<?xml version="1.0" standalone="no"?>
<!DOCTYPE svg PUBLIC "-//W3C//DTD SVG 1.1//EN" "http://www.w3.org/Graphics/SVG/1.1/DTD/svg11.dtd" >
<svg xmlns="http://www.w3.org/2000/svg" xmlns:xlink="http://www.w3.org/1999/xlink" version="1.1" viewBox="0 0 2048 2048">
  <g transform="matrix(1 0 0 -1 0 2048)">
   <path fill="currentColor"
d="M1615 596h149l80 80l114 -86q21 -16 16 -33q-6 -19 -26 -19h-333v-243q0 -80 7 -140q5 -43 4 -68q-2 -39 -56 -42q-52 -3 -52 32l1 461h-292q-52 -286 -332 -499l-24 27q219 220 264 472h-146q-68 0 -148 -11l-40 86q126 -17 188 -17h155q15 117 19 293h-75
q-67 0 -149 -11l-39 86q122 -18 188 -18h604l80 81l114 -86q21 -16 16 -33q-6 -19 -26 -19h-261v-293zM1519 596l1 293h-268q-3 -201 -16 -293h283zM1432 1475v-52q217 -70 327 -127q150 -78 150 -163q0 -19 -17 -33.5t-35 -11.5q-26 4 -94 73q-61 60 -180 137
q-89 57 -151 83v-99q0 -80 7 -139q5 -43 4 -68q-2 -39 -56 -42q-52 -3 -52 32l1 338q-122 -134 -192 -188q-105 -80 -258 -157l-22 37q129 83 230 177q80 74 168 203h-173q-69 0 -149 -11l-39 86q127 -18 188 -18l247 2v173q-222 -24 -394 -27l-6 42q207 13 430 65
q198 47 334 133l106 -83q40 -31 27 -54q-9 -15 -30 -13q-9 1 -27 6l-42 10q-112 -32 -302 -68v-186h329l80 81l114 -86q21 -16 16 -33q-6 -19 -26 -19h-513zM683 692h-413v-461q208 57 426 158q-32 66 -114 181l28 25q247 -220 233 -355q-6 -65 -58 -62q-35 2 -46 68
q-7 48 -26 101q-112 -74 -192 -117q-31 -16 -234 -111q-5 -21 -7 -32q-7 -39 -25 -39q-15 0 -32 33l-63 121l14 4v946q-7 122 -8 154l116 -68h387l61 71l72 -49q37 -25 42 -44q5 -20 -25 -37q-7 -4 -13 -7q-9 -4 -27 -14v-311l6 -54l1 -50q8 -51 6 -60q-6 -27 -59 -33
q-45 -4 -48 25zM683 752v186h-413v-186h413zM683 1181h-413v-182h413v182zM315 1484q88 -15 158 -15h102l80 81l114 -87q21 -15 16 -33q-6 -18 -25 -18h-287q-69 0 -149 -11l-28 62q-92 -95 -184 -172l-26 31q187 218 261 346q62 109 114 277l129 -49q44 -16 44 -37
q0 -26 -44 -31l-40 -4q301 -142 334 -261q11 -37 -11 -64q-15 -19 -40 -15q-29 4 -55 51q-74 136 -256 256q-99 -181 -207 -307z" />
  </g>

</svg>
