<?xml version="1.0" standalone="no"?>
<!DOCTYPE svg PUBLIC "-//W3C//DTD SVG 1.1//EN" "http://www.w3.org/Graphics/SVG/1.1/DTD/svg11.dtd" >
<svg xmlns="http://www.w3.org/2000/svg" xmlns:xlink="http://www.w3.org/1999/xlink" version="1.1" viewBox="0 0 2048 2048">
  <g transform="matrix(1 0 0 -1 0 2048)">
   <path fill="currentColor"
d="M1572 1169h-553q-130 0 -194 -7l-38 92q77 -23 232 -28q-15 24 -20 64q-21 146 -117 325l27 23q-43 -4 -67 -10l-39 89q93 -23 232 -23h99q-12 86 -27 126q-15 41 -60 108l26 26q63 -45 114 -107q50 -60 41 -108q-4 -22 -30 -45h111l88 88l103 -76q22 -16 28 -35
q4 -15 -10 -28q-6 -5 -18 -5h-135l90 -39q49 -21 49 -38q0 -20 -53 -30l-37 -8q-68 -162 -146 -297h300q-4 82 -4 238q0 38 -2 191v62l1 62q0 79 -11 175l155 -35q44 -10 47 -34q2 -22 -31 -34l-65 -22q0 -54 -1 -405q0 -7 4 -167l1 -31h99l99 104l119 -104q22 -19 17 -36
q-6 -21 -26 -21h-304q2 -31 4 -86q6 -200 37 -368q7 18 35 91q29 77 76 261l105 -51q62 -29 56 -55q-7 -23 -33 -23h-49q-111 -274 -161 -383q19 -83 32 -118q61 -165 88 -167q29 -3 42 68q6 34 17 83q22 93 31 142l48 -12q-9 -56 -14 -85q-29 -169 -29 -260q0 -26 7 -56
q7 -34 9 -49q6 -48 -45 -43q-58 6 -128 98q-69 91 -124 277q-128 -204 -331 -348l-25 33q122 112 200 226q48 70 124 219q-46 204 -65 587zM1071 1226h140q79 196 118 412h-408q172 -199 178 -321q3 -60 -28 -91zM627 661h-357v-410q189 48 357 113q-32 72 -124 199l28 25
q247 -220 233 -356q-7 -65 -58 -62q-36 3 -46 69q-7 43 -19 78q-105 -68 -353 -179q-6 -21 -8 -32q-7 -39 -25 -39q-15 0 -32 33l-63 121l14 4v915q-7 123 -8 154l116 -68h331l61 72l72 -50q37 -25 42 -43q5 -21 -26 -38l-12 -6q-10 -5 -27 -15v-325l5 -54l2 -50
q9 -50 6 -60q-7 -27 -60 -32q-49 -5 -49 24v12zM627 721v198h-357v-198h357zM627 1169h-357v-190h357v190zM1742 1763q214 -150 222 -246q3 -34 -21 -58q-17 -18 -41 -15q-38 5 -50 60q-21 104 -137 229zM267 1486q91 -13 158 -13h81l80 81l114 -87q21 -16 16 -33
q-6 -18 -26 -18h-265q-68 0 -149 -11l-28 62q-89 -91 -184 -172l-24 27q158 175 257 348q65 112 116 279l130 -49q43 -16 43 -37q0 -26 -43 -31l-40 -4q281 -131 311 -245q10 -38 -12 -65q-14 -18 -39 -15q-29 4 -56 51q-50 92 -112 150q-40 38 -120 91q-100 -182 -208 -309
zM872 1041l108 -67h309l62 80l72 -51q52 -34 50 -53t-46 -42l-35 -19v-418q0 -81 6 -139q5 -45 4 -69q-2 -38 -56 -41q-55 -4 -52 32l6 67h-326v-47q0 -45 -70 -40q-42 3 -39 53l4 54q8 135 8 142v438zM974 676h326v242h-326v-242zM974 379h326v241h-326v-241z" />
  </g>

</svg>
