<?xml version="1.0" standalone="no"?>
<!DOCTYPE svg PUBLIC "-//W3C//DTD SVG 1.1//EN" "http://www.w3.org/Graphics/SVG/1.1/DTD/svg11.dtd" >
<svg xmlns="http://www.w3.org/2000/svg" xmlns:xlink="http://www.w3.org/1999/xlink" version="1.1" viewBox="0 0 2048 2048">
  <g transform="matrix(1 0 0 -1 0 2048)">
   <path fill="currentColor"
d="M821 1325l-39 87q120 -20 189 -20h826l56 68l77 -57q44 -33 44 -50q0 -20 -37 -28q-43 -9 -59 -14q-53 -54 -116 -113l-27 22q34 61 62 115h-826q-69 0 -150 -10zM826 1681l-39 85q27 -3 40 -5q87 -13 148 -13h296v50q0 16 -5 68q-2 23 -4 67l123 -25q67 -13 71 -42
q4 -27 -49 -44l-41 -12v-62h342l80 79l105 -76q27 -20 26 -38q-1 -22 -25 -22h-528v-140h234l87 87l113 -87q25 -19 20 -38q-5 -18 -25 -18h-723q-70 0 -149 -10l-39 86q129 -20 188 -20h199v140h-296q-64 0 -149 -10zM790 804l-39 85q128 -18 187 -18h823l87 83l100 -79
q33 -27 23 -51q-5 -10 -20 -10h-1013q-68 0 -148 -10zM827 700l118 -64h164l61 72l70 -50q39 -27 43 -43q5 -21 -25 -38q-7 -3 -13 -6q-10 -5 -27 -15v-201q18 -16 28 -24q30 -23 30 -38q0 -21 -21 -21h-333v-31q0 -35 -48 -38q-60 -3 -54 52l4 42q6 97 6 104zM922 327h199
v251h-199v-251zM1351 530l-38 86q124 -20 187 -20h147v50q0 15 -3 57q-2 26 -4 76l106 -18q78 -14 78 -42q0 -30 -81 -49v-74h38l80 74l93 -78q26 -22 21 -37t-20 -15h-212v-311q0 -142 -155 -171q-9 66 -38 88q-26 19 -131 41l8 46q104 -16 152 -19q68 -5 68 58v268h-147
q-67 0 -149 -10zM1382 494q181 -71 185 -155q2 -44 -38 -49q-35 -4 -59 50q-27 62 -107 124zM967 1164l-40 86q27 -4 40 -6q86 -12 147 -12h371l87 80l102 -80q27 -22 20 -42q-5 -16 -20 -16h-308v-134h241l91 86l104 -87q24 -21 22 -34q-2 -22 -19 -22h-804q-64 0 -151 -11
l-37 86q126 -18 188 -18h270v134h-157q-62 0 -147 -10zM171 1300l119 -68h300l61 72l73 -50q36 -25 41 -44q5 -20 -25 -37q-6 -4 -13 -7q-9 -4 -27 -14v-254q0 -79 7 -140q5 -43 4 -68q-2 -39 -56 -41q-50 -3 -50 22v12h-323v-431q137 42 323 133q-29 56 -106 165l28 25
q246 -222 233 -356q-3 -29 -24 -49q-15 -15 -34 -13q-33 5 -44 64q-11 63 -35 123q-119 -83 -327 -195q-6 -27 -8 -41q-7 -39 -25 -39q-16 0 -32 33l-60 120l14 5v935q0 76 -14 138zM606 1174h-324v-186h324v186zM606 932h-324v-190h324v190zM270 1483q87 -13 151 -13h78
l76 81l109 -87q21 -16 15 -34t-25 -18h-253q-66 0 -143 -11l-26 63q-24 -27 -37 -40q-45 -49 -138 -133l-24 27q144 162 246 348q62 113 111 279l124 -48q43 -17 41 -39q-2 -31 -41 -31h-38q300 -156 300 -283q0 -55 -52 -45q-28 6 -53 52q-49 92 -107 150q-39 37 -115 91
q-98 -186 -199 -309z" />
  </g>

</svg>
