<?xml version="1.0" standalone="no"?>
<!DOCTYPE svg PUBLIC "-//W3C//DTD SVG 1.1//EN" "http://www.w3.org/Graphics/SVG/1.1/DTD/svg11.dtd" >
<svg xmlns="http://www.w3.org/2000/svg" xmlns:xlink="http://www.w3.org/1999/xlink" version="1.1" viewBox="0 -205 1024 1024">
  <g transform="matrix(1 0 0 -1 0 819)">
   <path fill="currentColor"
d="M431 428v-165q-1 -97 -21 -138q-19 -44 -50 -66q-31 -23 -85 -33q0 16 -22 30q-27 15 -86 26l2 18q90 -18 128 -19q27 -2 57 29q31 29 37 131v198h-273v-2q4 -37 -47 -44q5 38 7 96v386q2 16 -19 37l12 16l39 -41h268l26 36l66 -44q8 -6 7 -9q-2 -3 -13 -3h-184v-124h68
l26 34l60 -38q8 -6 7 -9q-2 -3 -13 -3h-148v-122h70l26 32l58 -36q8 -6 7 -9q-2 -3 -13 -3h-148v-130h95l24 37l50 -34q9 -6 9 -11q0 -4 -9 -8zM664 933q8 -10 -2 -13q-19 1 -31 -10q-15 -59 -37 -113h274l32 40l68 -48q8 -6 7 -9q-2 -3 -13 -3h-210v-260h150l32 40l68 -50
q8 -5 7 -8q-2 -2 -13 -2h-244v-371h142v231q2 16 -30 46l9 12l83 -36q14 -5 6 -11q-21 -7 -30 -21v-186l4 -79q1 -32 -42 -46v70h-314l-31 -42l-50 40q26 24 30 44v208q3 24 -21 43l9 11l77 -32q14 -7 5 -14q-20 -4 -32 -18v-220h143v371h-173q-27 1 -45 -13l-34 33h252v260
h-125q-9 -19 -18 -37q-40 -78 -92 -128l-8 10q37 54 67 124q30 71 46 129q17 59 14 67q-3 9 -14 21l11 7zM240 589h-122v-130h122v130zM240 867h-122v-124h122v124zM240 727h-122v-122h122v122zM109 335q5 -107 -20 -149q-33 -49 -59 -22q-8 16 14 31q23 15 35 51t15 89h15z
M138 340l10 6q61 -71 48 -135q-6 -23 -23 -20q-17 2 -13 26q6 40 -4 75q-3 14 -18 48zM284 393l6 8q78 -46 81 -110q1 -28 -16 -30t-19 22t-10 46q-7 23 -42 64zM216 361l8 8q39 -26 58 -80q16 -60 -12 -65q-16 -2 -18 23q0 26 -6 51q-4 26 -30 63z" />
  </g>

</svg>
