<?xml version="1.0" standalone="no"?>
<!DOCTYPE svg PUBLIC "-//W3C//DTD SVG 1.1//EN" "http://www.w3.org/Graphics/SVG/1.1/DTD/svg11.dtd" >
<svg xmlns="http://www.w3.org/2000/svg" xmlns:xlink="http://www.w3.org/1999/xlink" version="1.1" viewBox="0 -205 1024 1024">
  <g transform="matrix(1 0 0 -1 0 819)">
   <path fill="currentColor"
d="M85 936l31 -33h258l24 32l60 -40q8 -6 7 -9q-2 -3 -13 -3h-170v-134h66l22 30l58 -34q8 -6 7 -9q-2 -3 -13 -3h-140v-134h74l26 34l54 -38q8 -6 7 -9q-2 -3 -13 -3h-148v-132h103l30 29l40 -28q9 -6 9 -11q0 -4 -9 -8l-16 -13v-145q-2 -95 -20 -135q-18 -43 -51 -67
t-87 -35q0 18 -16 32q-27 17 -80 32l2 16q78 -26 120 -25q27 0 58 30q32 27 38 130v178h-279v-12q4 -38 -43 -44q1 8 3 23t4 37v456q2 17 -15 33zM655 818l78 -34q14 -5 6 -11q-16 -4 -27 -18v-95h142l32 40l68 -48q8 -6 7 -9q-2 -3 -13 -3h-236v-135h98l29 31l49 -44
q7 -5 7 -8q1 -3 -6 -4q-13 -1 -19 -7q-5 -5 -20 -41q-48 -110 -123 -205q-7 -8 -15 -17q12 -11 24 -20q120 -101 255 -108v-16h-12q-65 7 -78 -30q-80 34 -155 91q-33 24 -62 55q-39 -36 -94 -73q-88 -61 -217 -95l-6 14q118 48 199 107q54 38 92 76q-21 27 -40 58
q-51 84 -81 216h-4q-20 2 -32 -12l-32 32h203v260q2 17 -25 42zM637 304q23 -36 48 -64q4 5 7 9q80 98 131 236h-265q33 -112 79 -181zM568 998l85 -34q7 -5 6 -8q0 -4 -8 -5q-19 -1 -33 -12q-15 -44 -30 -83h288l32 40l68 -48q8 -6 7 -9q-2 -3 -13 -3h-390
q-56 -132 -124 -191l-13 6q92 144 119 253q13 46 13 56q1 11 -13 30zM246 733h-122v-134h122v134zM246 883h-122v-134h122v134zM246 583h-122v-132h122v132zM97 341v-15q2 -90 -10 -118q-7 -23 -24 -34q-17 -9 -24 6q-7 16 8 31q17 15 24 44q8 29 13 86h13zM278 377l8 8
q76 -69 70 -114q-2 -26 -16 -26t-16 23t-10 43q-7 21 -36 66zM132 346l10 6q54 -86 41 -130q-7 -21 -23 -21q-13 3 -9 25q8 36 -5 78q-3 14 -14 42zM200 361l8 8q64 -59 63 -111q-2 -26 -16 -29t-16 24q-1 29 -9 51q-7 24 -30 57z" />
  </g>

</svg>
