<?xml version="1.0" standalone="no"?>
<!DOCTYPE svg PUBLIC "-//W3C//DTD SVG 1.1//EN" "http://www.w3.org/Graphics/SVG/1.1/DTD/svg11.dtd" >
<svg xmlns="http://www.w3.org/2000/svg" xmlns:xlink="http://www.w3.org/1999/xlink" version="1.1" viewBox="0 0 2048 2048">
  <g transform="matrix(1 0 0 -1 0 2048)">
   <path fill="currentColor"
d="M1751 1815l100 102l121 -107q20 -18 16 -33q-6 -19 -26 -19h-843q-70 0 -149 -10l-39 86q124 -18 188 -18zM1657 1555l61 72l72 -49q37 -26 41 -44q5 -20 -25 -37q-6 -4 -13 -7q-9 -4 -26 -14v-218l25 -23q15 -13 16 -22q3 -24 -29 -24h-586v-34q0 -35 -50 -38
q-60 -4 -54 51l4 42q6 96 6 105l-1 303l101 -63h458zM1670 1498h-477v-252h477v252zM1793 997l61 71l72 -49q37 -25 42 -44q4 -20 -26 -37q-6 -4 -12 -7q-10 -4 -27 -14v-677q0 -142 -154 -170q-12 70 -48 93q-33 21 -159 43l8 46q136 -22 189 -27q68 -5 68 57v658h-742
v-824q0 -42 -68 -42q-32 0 -32 41l3 83l4 88v787l110 -76h711zM1531 750l61 72l70 -50q40 -28 43 -43q5 -22 -64 -54l1 -189l34 -26q16 -12 16 -31q0 -26 -23 -26l-371 1v-59q0 -27 -44 -30q-66 -6 -61 50l4 42q7 98 7 104l-1 304l103 -65h225zM1546 693h-248v-232h248v232z
M757 1904l111 -86q13 -11 16 -24q7 -28 -28 -28h-278v-226h99l81 79l97 -76q18 -13 24 -27q15 -33 -29 -33h-272v-244h95l82 80l97 -75q15 -11 20 -23t-2.5 -26t-19.5 -14h-272v-261h167l65 69l58 -38q48 -32 48 -57q0 -23 -26 -38l-38 -23q-38 -479 -78 -594
q-50 -145 -226 -180q-4 43 -21 64q-20 23 -72 45l-118 50l12 36l134 -40q53 -17 72 -19q116 -15 151 170q17 92 52 499h-489v-31q0 -42 -65 -42q-40 0 -40 42q0 13 3 53q8 85 8 175v684q0 66 -16 167l116 -88h403zM483 1540v226h-214v-226h214zM483 1239v244h-214v-244h214z
M269 920h214v261h-214v-261zM572 797q26 -23 39 -34q97 -84 103 -157q5 -58 -37 -63q-26 -2 -40 25q-5 10 -14 58q-11 60 -77 148zM453 757q99 -138 106 -221q4 -40 -18 -63q-19 -20 -43 -16q-35 6 -35 50l2 42q0 105 -44 192zM317 734q74 -170 63 -264q-9 -73 -58 -76
q-22 -2 -36 17q-14 20 -11 43q3 17 10 44q26 102 -3 225zM157 712h40q0 -133 -7 -218q-12 -131 -89 -142q-22 -3 -40 10q-17 12 -19 28q-3 23 38 68q66 73 77 254z" />
  </g>

</svg>
