<?xml version="1.0" standalone="no"?>
<!DOCTYPE svg PUBLIC "-//W3C//DTD SVG 1.1//EN" "http://www.w3.org/Graphics/SVG/1.1/DTD/svg11.dtd" >
<svg xmlns="http://www.w3.org/2000/svg" xmlns:xlink="http://www.w3.org/1999/xlink" version="1.1" viewBox="0 -200 1001 1000">
  <g transform="matrix(1 0 0 -1 0 800)">
   <path fill="currentColor"
d="M512 887v-77h94v98h-84zM512 661h94v125h-94v-125zM780 887v-77h89v98h-81zM780 662h89v124h-89v-124zM460 975l62 -47h77l38 44l55 -54l-34 -41v-238h-146v-603q-3 -9 -10 -15t-15 -10t-15.5 -6t-11.5 -2v972zM727 969l63 -41h72l44 41l47 -56l-32 -35v-791
q0 -11 -7 -26t-17.5 -28.5t-23 -22.5t-24.5 -9h-4q0 19 -9.5 30.5t-23 18.5t-30 11.5t-29.5 10.5l-1 10q16 -5 33.5 -7.5t32.5 -2.5q23 0 30 4q8 2 13.5 3.5t7.5 6.5v553h-142v330zM733 551l40 37l52 -59h-71v-166h11l28 36l49 -57h-88v-216q-6 -10 -21 -15t-24 -7v238h-31
q0 -66 -9 -113.5t-24 -79t-34 -49.5t-39 -25l-12 -3q19 18 32.5 39.5t22.5 52.5t14 74t6 104l-67 -8l-18 29h85v166l-56 -7l-22 29h176zM681 529v-166h29v166h-29zM247 737v-120h47l53 45l67 -68h-167v-130h101l38 44l52 -58l-36 -30q-2 -85 -2 -155.5t-11.5 -124t-40 -89
t-86.5 -50.5q1 1 1 10q0 13 -6 24.5t-15.5 21t-20.5 17.5t-21 14v10q6 -3 16.5 -6t22.5 -5.5t24 -4t21 -1.5q24 0 37.5 27t20 71.5t8 102t1.5 119.5v38h-295v506l63 -41h172l52 45l67 -69h-163v-119h50l54 47l63 -71h-167zM110 464h89v130h-89v-130zM110 617h89v120h-89
v-120zM110 761h89v119h-82l-7 -29v-90zM22 171q11 29 18.5 53t7.5 57q0 11 -1 23t-3 26h4q20 -45 28.5 -72t8.5 -48q0 -18 -6 -37q-2 -17 -16.5 -28t-27.5 -11q-7 0 -12 4.5t-5 13.5q0 12 4 19zM108 182q6 19 8.5 43.5t2.5 50.5q0 34 -3 61h6q29 -52 35 -84.5t6 -50.5
q-2 -27 -13.5 -42.5t-22.5 -15.5q-19 0 -19 33v5zM217 171q-7 0 -12.5 10t-6.5 30q-1 31 -1.5 69.5t-8.5 74.5h5q20 -36 37 -70.5t17 -66.5v-8q0 -17 -10.5 -28t-19.5 -11zM277 188q-3 14 -4 35t-2 45t-3.5 48t-9.5 45h7q12 -13 22.5 -30.5t18.5 -35.5t12.5 -35t4.5 -29v-5
q-5 -23 -16.5 -33.5t-20.5 -10.5q-8 0 -9 6z" />
  </g>

</svg>
