<?xml version="1.0" standalone="no"?>
<!DOCTYPE svg PUBLIC "-//W3C//DTD SVG 1.1//EN" "http://www.w3.org/Graphics/SVG/1.1/DTD/svg11.dtd" >
<svg xmlns="http://www.w3.org/2000/svg" xmlns:xlink="http://www.w3.org/1999/xlink" version="1.1" viewBox="0 -205 1024 1024">
  <g transform="matrix(1 0 0 -1 0 819)">
   <path fill="currentColor"
d="M691 983l96 -43q7 -8 -4 -11q-18 0 -29 -5q-11 -4 -23 -45l-56 -185h227l32 40l68 -50q8 -5 7 -8q-2 -2 -13 -2h-115q-22 -163 -64 -271q-21 -52 -51 -101q38 -22 76 -51q62 -46 96 -101q34 -54 12 -74q-22 -21 -48 26q-25 46 -73 94q-38 38 -86 71q-26 -37 -58 -71
q-88 -94 -258 -158l-4 12q170 95 244 191q3 5 10 14q10 13 27 38q-63 39 -163 90q46 152 85 291h-49q-27 1 -45 -13l-34 33h134l18 66q49 179 47 187q-1 9 -16 25zM131 566l29 -27h217l22 29l36 -27q14 -10 8 -15l-18 -15v-346q2 -61 -10 -86q-12 -26 -58 -36q-1 28 -21 36
q-19 6 -75 21l2 16q86 -15 102 -13t16 48v117h-207v-129l4 -57q2 -36 -55 -46q1 11 4 30q2 21 3 28v425q3 14 -13 36zM527 649q2 -5 -1 -7q-2 -2 -9 0q-13 -4 -49 -51q-15 -20 -24 -31l-11 8l28 68h-370q1 -1 1 -2q7 -63 -31 -85q-19 -13 -33 2q-13 15 6 30t26 35
q8 20 15 84h15q-1 -23 0 -44h36v247q3 21 -12 49l11 10l31 -32h223l25 26l37 -28q9 -6 9 -10q0 -5 -9 -7l-16 -9v-246h26l33 31zM669 674l-44 -149l-48 -130q80 -32 142 -65l6 -3q33 56 52 108q33 90 56 239h-164zM293 656h90v254h-215v-106h85l25 24l31 -28q14 -12 4 -17
l-20 -9v-118zM174 408h207v111h-207v-111zM381 392h-207v-108h207v108zM168 656h89v132h-89v-132z" />
  </g>

</svg>
