<?xml version="1.0" standalone="no"?>
<!DOCTYPE svg PUBLIC "-//W3C//DTD SVG 1.1//EN" "http://www.w3.org/Graphics/SVG/1.1/DTD/svg11.dtd" >
<svg xmlns="http://www.w3.org/2000/svg" xmlns:xlink="http://www.w3.org/1999/xlink" version="1.1" viewBox="0 -205 1024 1024">
  <g transform="matrix(1 0 0 -1 0 819)">
   <path fill="currentColor"
d="M137 564l27 -27h203l18 29l36 -27q14 -10 8 -13l-18 -15v-356q2 -61 -10 -86q-12 -26 -58 -36q-2 28 -20 36q-18 6 -76 21l2 16q90 -15 106 -13t16 50v119h-195v-129l4 -65q2 -37 -51 -46q1 11 4 30q2 21 3 28v439q3 11 -13 34zM517 643q2 -5 -1 -7q-2 -2 -9 0
q-18 0 -55 -49q-13 -18 -22 -29l-11 8l26 68h-350v-2q2 -67 -30 -86q-18 -12 -31 3t4 30t26 35t17 84h15q-1 -23 -1 -44h37v247q3 21 -12 49l11 10l28 -32h210l21 26l37 -28q9 -6 9 -10q0 -5 -9 -7l-16 -9v-246h32l27 31zM285 654h88v254h-203v-106h79l23 24l25 -24
q18 -16 8 -21l-20 -9v-118zM668 483l91 -32q14 -5 6 -11q-21 -7 -30 -21v-70h166l26 36l66 -46q8 -5 7 -8q-2 -2 -13 -2h-252v-214l2 -57q2 -35 -51 -44q5 37 7 146v169h-177q-27 1 -45 -13l-34 33h256v80q2 17 -34 42zM176 406h195v113h-195v-113zM371 390h-195v-112h195
v112zM824 780l63 -33q4 -4 4 -7q-1 -3 -6 -4q-17 -1 -25 -12q-13 -33 -30 -69q45 -21 78 -46q40 -31 49 -66q9 -34 -11 -45q-20 -10 -31 26t-40 70q-22 25 -52 46q-11 -23 -23 -47q-36 -71 -75 -110l-13 9q32 50 60 117q29 67 39 100q11 33 11 40q0 8 -10 26zM610 792
l65 -31q4 -4 4 -7q-1 -3 -6 -4q-13 -2 -25 -14q-15 -45 -35 -91q35 -18 56 -35q27 -22 32 -54q5 -31 -14 -39q-19 -7 -24 20q-4 27 -24 57q-13 20 -33 37l-10 -20q-6 -13 -10 -20q-37 -74 -95 -128l-9 9q54 80 82 149q29 69 36 100q8 32 9 39q1 9 -11 29zM455 833h422l30 38
l66 -48q8 -5 7 -8q-2 -2 -13 -2h-433q-27 1 -45 -13zM170 654h83v132h-83v-132zM603 994l4 10q132 -47 129 -114q0 -31 -21 -36q-21 -4 -24 26q-5 66 -88 114z" />
  </g>

</svg>
