<?xml version="1.0" standalone="no"?>
<!DOCTYPE svg PUBLIC "-//W3C//DTD SVG 1.1//EN" "http://www.w3.org/Graphics/SVG/1.1/DTD/svg11.dtd" >
<svg xmlns="http://www.w3.org/2000/svg" xmlns:xlink="http://www.w3.org/1999/xlink" version="1.1" viewBox="0 0 2048 2048">
  <g transform="matrix(1 0 0 -1 0 2048)">
   <path fill="currentColor"
d="M967 393q75 107 108 261q11 51 29 220h-131q-41 -9 -56 -7q-22 3 -25 20q-1 7 30 60q84 145 158 385h-70q-1 0 -14 -3q-4 -1 -27 -2q-6 0 -51 -6l-40 86q28 -4 88 -12l44 -6h70l70 65l96 -90q19 -18 9 -38q-6 -14 -32 -21l-52 -15q-102 -254 -161 -362h94l52 66l88 -54
q25 -16 28 -32t-17 -27l-51 -26q-6 -39 -9 -58q-20 -142 -69 -263q-19 -48 -87 -149q113 -108 193 -135q94 -32 421 -32q107 0 352 22l1 -32q-59 -14 -82 -28q-25 -16 -31 -57q-76 -1 -115 -1q-344 0 -473 29q-115 26 -180 75q-13 10 -89 82q-24 22 -46 22t-68 -32
q-24 -17 -53 -59q-4 -18 -4 -30q1 -33 -17 -30q-15 3 -25 23l-41 87q86 68 185 104zM892 1816q148 -91 178 -118q84 -76 77 -140q-5 -59 -51 -59q-35 0 -54 62q-37 119 -172 229zM1464 1646q55 124 68 273l136 -36q32 -8 35 -30q2 -20 -24 -28l-56 -16q-29 -54 -102 -163
h183l61 71l72 -49q37 -25 41 -43q5 -21 -25 -38q-6 -4 -12 -7q-10 -4 -27 -14v-303l47 -37q13 -11 10 -27q-3 -18 -17 -18h-430v-224h325l61 71l73 -49q36 -25 41 -44q5 -20 -25 -37q-6 -4 -12 -7q-9 -4 -26 -14v-362l47 -37q17 -13 13 -28q-5 -16 -31 -16h-466v-50
q-3 -26 -39 -24q-40 2 -52 22q-9 17 -5 57q8 80 8 224v937q-2 71 -12 130l118 -84h22zM1424 491h341v407h-341v-407zM1424 1239h296v353h-296v-353zM627 1846l60 72l68 -50q38 -27 42 -43q4 -20 -25 -37q-6 -4 -13 -7q-9 -5 -26 -15v-446h41l53 58l90 -73q19 -16 23 -27
q10 -31 -44 -34l-44 -2l-48 -49l-44 -44l-32 16q25 47 42 99h-589q-9 -81 -15 -107q-17 -71 -75 -67q-46 4 -41 43q2 14 40 65q36 50 54 211h37v-89h62v590l105 -64h279zM445 1320v356l108 -57h92v169h-314v-468h114zM533 1320h112v246h-112v-246zM743 992l1 -802
q0 -98 -154 -137q-4 62 -31 83q-23 17 -90 38l-37 12l8 41l64 -15q72 -17 98 -19q48 -3 48 40v354q-115 -70 -248 -131l-6 -44q-3 -25 -18 -31q-20 -9 -42 35l-28 58q-27 -159 -81 -260q-50 -95 -124 -175l-31 25q85 139 115 248q39 143 39 328v330q0 102 -14 177l121 -75
h298l59 71l73 -49q36 -24 40 -44t-22 -36q-6 -4 -11 -7q-10 -4 -27 -15zM650 630v384h-332v-124q128 -13 200 -29q95 -21 103 -73q3 -26 -9 -44q-11 -14 -29 -13q-19 1 -62 30q-93 62 -203 84v-46q0 -175 -6 -263q144 30 338 94z" />
  </g>

</svg>
