<?xml version="1.0" standalone="no"?>
<!DOCTYPE svg PUBLIC "-//W3C//DTD SVG 1.1//EN" "http://www.w3.org/Graphics/SVG/1.1/DTD/svg11.dtd" >
<svg xmlns="http://www.w3.org/2000/svg" xmlns:xlink="http://www.w3.org/1999/xlink" version="1.1" viewBox="0 0 2048 2048">
  <g transform="matrix(1 0 0 -1 0 2048)">
   <path fill="currentColor"
d="M1069 821v-196h446l68 77l83 -55q41 -26 41 -48q0 -26 -77 -62v-226q1 -157 -177 -173q-3 66 -35.5 87t-173.5 46v48q35 -5 140 -21q49 -8 80 -8q71 0 71 63v216h-466v-210q0 -69 11 -181q4 -37 4 -70q0 -50 -61 -53q-50 -3 -50 50v464h-443v-342q0 -44 -65 -39
q-42 3 -39 52q2 26 4 55q8 91 8 142l1 74q-6 158 -12 201l114 -87h432v196h-491q-66 -71 -165 -139q-117 -81 -169 -105l-25 31q138 91 230 200q81 96 156 238l123 -59q28 -13 28 -30q0 -28 -39 -31l-54 -3q-19 -24 -36 -45l1096 -1l91 102l126 -98q26 -20 15 -47
q-5 -13 -27 -13h-763zM1840 1451l76 -41q73 -39 63 -66q-5 -17 -26 -15l-63 8q-170 -117 -305 -172q-165 -67 -365 -104l-10 38q417 115 630 352zM1643 1946l84 -44q69 -36 53 -64q-9 -16 -53 -12l-38 4q-33 -19 -108 -75q-131 -96 -403 -163l-12 40q316 117 477 314z
M1751 1700l90 -48q58 -31 49 -57q-6 -15 -57 -15h-41q-141 -104 -252 -153q-152 -68 -309 -101l-10 39q356 121 530 335zM961 1942l112 -85q20 -16 15 -36q-4 -16 -23 -16h-659v-107h390l73 72l106 -78q24 -18 14 -39q-6 -13 -23 -13h-560v-110h390l73 72l97 -74
q15 -10 21 -22q20 -34 -21 -34h-560v-118h524l89 83l111 -91q9 -8 11 -18q3 -32 -24 -32h-646q-36 -37 -54 -57q-64 -69 -114 -113q107 9 346 31q51 5 173 19q42 4 99 10q-38 35 -72 65l20 27q159 -68 196 -126q30 -48 4 -89q-18 -29 -49 -21q-26 7 -37 46q-10 33 -32 61
q-156 -36 -295 -59q-32 -5 -207 -31q-48 -7 -108 -16q-19 -74 -41 -72q-19 2 -46 68l-34 76q46 53 123 181h-56q-80 0 -160 -11l-38 91q78 -19 190 -21l32 -1v458q0 76 -16 139l120 -88h466z" />
  </g>

</svg>
