<?xml version="1.0" standalone="no"?>
<!DOCTYPE svg PUBLIC "-//W3C//DTD SVG 1.1//EN" "http://www.w3.org/Graphics/SVG/1.1/DTD/svg11.dtd" >
<svg xmlns="http://www.w3.org/2000/svg" xmlns:xlink="http://www.w3.org/1999/xlink" version="1.1" viewBox="0 -205 1024 1024">
  <g transform="matrix(1 0 0 -1 0 819)">
   <path fill="currentColor"
d="M504 407h375l18 30l60 -34q8 -6 7 -9q-2 -3 -13 -3h-100v-216l56 1l20 30l54 -30q13 -7 10 -10q-2 -3 -20 -4l-120 -3v-36l2 -57q5 -39 -41 -44q5 37 7 100v36l-270 -8q-34 -6 -45 -21l-43 34l114 4v224q-25 0 -42 -13zM24 409h397l18 24l54 -28q8 -6 7 -9q-2 -3 -13 -3
h-80v-196l109 13l2 -13l-111 -16v-44l2 -57q5 -39 -41 -44q5 37 7 100v41l-161 -24q-157 -18 -158 -48l-32 48l113 13v227h-39q-27 1 -45 -13zM152 997l33 -29h268l18 24l56 -26q8 -5 7 -8q-2 -2 -13 -2h-326v-54h232l16 24l56 -26q8 -5 7 -8q-2 -2 -13 -2h-298v-58h234
l18 26l54 -28q8 -5 7 -8q-2 -2 -13 -2h-300v-54h302l16 22l50 -26q8 -5 7 -8q-2 -2 -13 -2h-311q-22 -34 -74 -77q19 1 60 2q54 2 208 9q-18 14 -51 34l4 8q110 -24 117 -85q-4 -14 -16 -14q-12 1 -19 16q-6 12 -17 25q-30 -2 -83 -6q-62 -4 -125 -9q-66 -4 -89 -10
q-22 -6 -39 -18l-28 46q29 0 54 12q34 28 53 67h-103q-27 1 -45 -13l-32 27h138v192q3 9 -17 27zM571 615l36 -37h202l23 29l42 -27q7 -6 5 -10q-1 -5 -11 -7l-14 -13v-58l4 -21q-1 -30 -38 -31v32h-207q-1 -19 -8 -27q-7 -9 -33 -14q1 5 2 14q3 24 5 52v73q-3 19 -17 37z
M141 607l30 -29h194l23 29l42 -27q7 -6 5 -10q-1 -5 -11 -7l-14 -13v-58l4 -23q-1 -30 -38 -31v32h-199q-1 -19 -9 -27q-8 -9 -32 -14q0 4 1 12q4 25 6 56v73q-3 19 -11 29zM613 486h207v78h-207v-78zM177 484h199v80h-199v-80zM819 242h-212v-74l212 6v68zM819 391h-212
v-61h212v61zM375 244h-206v-74l206 24v50zM819 316h-212v-60h212v60zM375 393h-206v-61h206v61zM375 318h-206v-60h206v60zM895 778l50 -38q7 -5 6 -8q0 -4 -8 -5q-15 7 -29 1q-175 -69 -339 -78v12q95 14 153 30q59 16 110 37q51 22 53 29q3 8 -4 15zM823 994l50 -36
q7 -5 6 -8q0 -4 -8 -5q-13 5 -29 1q-126 -66 -288 -91l-2 12q129 28 231 81q37 21 38 28q2 7 -5 13zM859 893l45 -32q7 -5 6 -8q0 -4 -8 -5q-15 5 -23 2q-133 -73 -288 -87l-2 14q133 21 226 71q40 22 41 26q2 5 -4 12z" />
  </g>

</svg>
