<?xml version="1.0" standalone="no"?>
<!DOCTYPE svg PUBLIC "-//W3C//DTD SVG 1.1//EN" "http://www.w3.org/Graphics/SVG/1.1/DTD/svg11.dtd" >
<svg xmlns="http://www.w3.org/2000/svg" xmlns:xlink="http://www.w3.org/1999/xlink" version="1.1" viewBox="0 0 2048 2048">
  <g transform="matrix(1 0 0 -1 0 2048)">
   <path fill="currentColor"
d="M1160 651h-373v-236q0 -67 65 -79q68 -12 127 -12h196q102 0 133 7q53 13 72 88q19 76 30 118l43 -12q-13 -81 -16 -105q-7 -43 26 -72t27 -49q-16 -63 -315 -63h-175q-151 0 -215 24q-92 34 -92 143v284q-104 -61 -306 -124l-17 38q251 105 401 250h-216q-67 0 -149 -11
l-39 86q116 -17 188 -17h214v137h-80q-75 0 -148 -11l-40 86q125 -19 188 -19h80v18q-6 144 -10 160l108 -24q84 -19 87 -44q4 -29 -49 -43l-42 -12v-55h315v18q0 118 -9 160l109 -24q83 -18 86 -44q3 -28 -50 -43l-40 -12v-55h79l80 80l114 -85q20 -16 15 -33
q-5 -18 -26 -18h-262v-137h201l77 78l114 -86q20 -15 15 -32q-5 -18 -26 -18h-394q248 -135 460 -159l-2 -37q-63 -4 -88 -20q-21 -13 -42 -47q-214 87 -423 263h-270q-85 -88 -137 -120l44 -23h344l58 63l70 -48q37 -25 30 -45q-5 -17 -55 -43l1 -118q0 -93 -127 -114
q-2 52 -48 70q-21 8 -89 18l6 39q40 -4 59 -6q48 -5 64 -5q44 0 44 38v94zM1178 1046h-315v-137h315v137zM272 1384v-1250q0 -61 -70 -54q-45 5 -43 50q1 18 4 45q13 111 13 210v1372l-8 99q-4 55 -7 80l111 -19q84 -14 79 -49q-1 -5 -10 -15q95 -12 161 -12h265l80 80
l114 -85q21 -16 15 -33q-5 -19 -25 -19h-295v-166h88l80 83l114 -86q21 -16 16 -34q-6 -19 -26 -19h-272v-178h141l78 82l116 -85q21 -16 16 -35q-6 -19 -26 -19h-531q-59 0 -149 -11zM272 1636q15 -3 34 -5q95 -13 144 -13h110v166h-74q-90 0 -164 -12l-32 63l-18 -6v-193z
M272 1624v-224q107 -16 178 -16h110v178h-110q-68 0 -148 -11zM1775 1322h-521q-67 0 -149 -11l-39 86q126 -16 188 -16h108v181h-70q-69 0 -149 -11l-38 86q123 -19 187 -19h70v166h-94q-67 0 -148 -10l-39 86q126 -19 187 -19h323l80 76l104 -87q-4 58 -9 106l108 -23
q85 -17 89 -45q4 -23 -53 -42l-36 -12v-1586q0 -88 -58 -128q-36 -26 -106 -40q-4 38 -16 57q-29 46 -217 72l5 45q39 -5 140 -17l80 -11q73 -7 73 58v1058zM1775 1784h-317v-166h146l74 75l97 -75v166zM1775 1381v181h-317v-181h156l76 73z" />
  </g>

</svg>
