<?xml version="1.0" standalone="no"?>
<!DOCTYPE svg PUBLIC "-//W3C//DTD SVG 1.1//EN" "http://www.w3.org/Graphics/SVG/1.1/DTD/svg11.dtd" >
<svg xmlns="http://www.w3.org/2000/svg" xmlns:xlink="http://www.w3.org/1999/xlink" version="1.1" viewBox="0 -205 1024 1024">
  <g transform="matrix(1 0 0 -1 0 819)">
   <path fill="currentColor"
d="M440 505v-376q0 -23 -12 -44t-73 -30q-2 30 -29 38q-7 2 -22 6q-24 7 -38 11l2 14q75 -11 94 -11q20 0 27 6q8 6 7 70v327h-303v-382l5 -39q2 -37 -56 -46q5 39 7 130v349q-7 21 -21 35l16 12l40 -39h296l30 43l48 -42q9 -6 9 -11q0 -4 -9 -8zM96 833l35 -34h198l39 39
l42 -47q7 -6 5 -10q-1 -5 -11 -7l-16 -9v-82l3 -35q1 -34 -43 -33v32h-205v-15q4 -37 -47 -44q5 37 7 80v112q2 16 -19 37zM879 435v54h-302l-35 -42l-52 40q26 24 30 44v317q3 22 -25 41l7 11l85 -38q8 -2 10 -5t-3 -7q-20 -4 -32 -18v-323h317v328q2 16 -30 46l9 12
l87 -36q14 -5 6 -11q-21 -7 -30 -21v-273l4 -74q1 -33 -46 -45zM590 936l10 12q82 -64 137 -137q14 29 24 56q29 71 26 81q-1 10 -12 25l11 5l70 -37q2 -4 1 -6t-6 -2q-13 3 -27 -13q-28 -76 -63 -144q42 -63 61 -108q38 -96 -4 -102q-18 -2 -33 56q-13 48 -46 113
q-9 -15 -19 -30q-59 -96 -130 -153l-8 12q54 62 102 147q19 32 34 62q-47 79 -128 163zM809 150q-4 -66 68 -59h18l20 4q28 8 32 38q7 38 8 147h15l6 -97q2 -51 27 -66q-28 -65 -116 -61q-28 0 -74 4q-44 15 -46 75v265q0 23 -27 50l6 8l90 -36q14 -5 6 -11q-25 -11 -33 -21
v-240zM143 663h205v120h-205v-120zM628 404q-6 29 -27 50l6 8l92 -36q14 -5 6 -11q-25 -11 -33 -21q6 -273 -244 -361l-8 16q225 109 208 355zM306 483l50 -28q17 -10 7 -15q-18 2 -33 -9q-11 -17 -29 -43q-15 -21 -27 -40h37l18 26l48 -32q8 -5 7 -8q-2 -2 -13 -2h-110
v-138q2 -14 -1 -27q-5 -17 -44 -24q5 35 7 73v116h-33q-27 1 -45 -13l-34 29h142l17 31q35 64 36 77q2 13 -8 20zM25 926h346l32 40l68 -50q8 -5 7 -8q-2 -2 -13 -2h-361q-27 1 -45 -13zM136 471l6 8q45 -19 68 -60q21 -49 -10 -53q-12 0 -15 20t-14 39q-10 20 -35 46z" />
  </g>

</svg>
