<?xml version="1.0" standalone="no"?>
<!DOCTYPE svg PUBLIC "-//W3C//DTD SVG 1.1//EN" "http://www.w3.org/Graphics/SVG/1.1/DTD/svg11.dtd" >
<svg xmlns="http://www.w3.org/2000/svg" xmlns:xlink="http://www.w3.org/1999/xlink" version="1.1" viewBox="0 -205 1024 1024">
  <g transform="matrix(1 0 0 -1 0 819)">
   <path fill="currentColor"
d="M456 1006l73 -26q14 -5 6 -11q-21 -7 -30 -21v-47h97l20 27l51 -34q5 -5 3 -6q-1 -2 -11 -1h-160v-60h86l19 25l38 -25q7 -6 5 -10q-1 -5 -11 -7l-12 -13v-34l4 -35q-1 -29 -34 -31v24h-95v-22q41 -10 74 -24q47 -16 70 -45q24 -36 0 -46q-13 -3 -26 17q-12 21 -43 44
q-27 20 -75 38v-42l2 -47q3 -37 -43 -44q5 38 7 90v81h-15q-26 -70 -68 -107q-44 -39 -112 -65l-2 14q58 35 94 72q35 36 48 86h-35q-1 -17 -10 -25q-9 -9 -27 -14q1 6 2 17q3 20 5 47v71q-3 20 -11 27l9 8l24 -25h98v60h-91q-27 1 -45 -13l-26 27h162v57q2 17 -24 36z
M214 493l33 -30h472l23 31l46 -39q7 -6 5 -10q-1 -5 -11 -7l-18 -9v-54l3 -13q0 -33 -37 -33v30h-476q-2 -13 -11 -21q-11 -9 -29 -14q2 14 5 34q2 13 2 18v68q2 16 -19 37zM852 265v-181q0 -22 -10 -40t-69 -27q-4 30 -70 45q-13 2 -19 4l2 14q75 -11 94 -11q20 0 27 6
q8 6 7 52v151h-643v-166l5 -51q1 -35 -50 -46q5 39 7 92v179q-7 21 -21 35l16 12l35 -39h637l26 39l42 -34q9 -6 9 -11q0 -4 -9 -8zM255 373h475v76h-475v-76zM908 727q-4 -60 -9 -79q-4 -19 -15 -38q-26 -48 -97 -60q1 17 -23 33q-32 14 -65 20l2 16q62 -13 93 -18
q68 0 76 76q4 36 4 60h-139l-21 -28l-41 31q20 9 27 34l14 68q-4 10 -14 26l14 11l22 -36h136v92h-131q-18 2 -38 -14l-35 28h196l27 33l33 -31q8 -7 7 -11t-11 -5l-16 -14v-56l5 -31q1 -29 -37 -33v28h-128l-16 -78h136l23 34l39 -33q5 -9 -6 -11zM290 727q-4 -55 -9 -75
q-4 -19 -15 -40q-24 -50 -97 -62q1 17 -23 33q-32 14 -65 20l2 16q62 -13 93 -18q68 0 76 76q4 36 4 60h-139l-21 -28l-41 31q20 5 27 30l14 72q-4 10 -14 26l14 11l22 -36h136v92h-127q-22 2 -42 -14l-35 28h196l23 33l37 -31q8 -7 7 -11t-11 -5l-16 -14v-56l5 -31
q0 -27 -37 -33v28h-128l-16 -78h136l19 34l43 -33q5 -9 -6 -11zM581 267l53 -27q14 -7 3 -15q-11 0 -25 -1q-36 -40 -65 -65h152l18 26l58 -30q8 -4 7 -6q-2 -2 -13 -2h-269v-43l2 -31q2 -35 -41 -44v4q5 33 7 70v44h-192q-27 1 -45 -13l-34 25h330l21 30q36 50 34 57
q-2 8 -8 15zM39 534h842l22 30l66 -36q8 -5 7 -8q-2 -2 -13 -2h-845q-27 1 -45 -13zM505 735h95v78h-95v-78zM471 813h-90v-78h90v78zM329 264q50 -9 82 -41q32 -39 6 -53q-15 -7 -22 13q-7 19 -21 37t-47 34z" />
  </g>

</svg>
