<?xml version="1.0" standalone="no"?>
<!DOCTYPE svg PUBLIC "-//W3C//DTD SVG 1.1//EN" "http://www.w3.org/Graphics/SVG/1.1/DTD/svg11.dtd" >
<svg xmlns="http://www.w3.org/2000/svg" xmlns:xlink="http://www.w3.org/1999/xlink" version="1.1" viewBox="0 0 2048 2048">
  <g transform="matrix(1 0 0 -1 0 2048)">
   <path fill="currentColor"
d="M1496 1204q-147 -324 -314 -573q259 27 482 67l31 5q-61 115 -133 201l28 26q90 -79 169 -175q129 -155 122 -259q-1 -24 -18 -43q-19 -23 -43 -19q-31 5 -44 59q-20 84 -60 167q-240 -73 -515 -124l-8 -45q-6 -37 -32 -25q-17 7 -28 29l-55 103q54 49 96 130
q111 213 195 476h-135q-116 0 -192 -8l-38 88q97 -23 230 -23h534l80 81l114 -86q21 -16 15 -33q-5 -19 -26 -19h-455zM791 867l88 -28q72 -22 71 -45q-2 -17 -51 -28l-34 -7q-48 -150 -112 -253l188 23q-17 53 -62 125l28 20q49 -40 85 -88q57 -74 57 -121q0 -30 -20 -49
q-14 -14 -35 -12q-28 3 -32 32q-3 27 -9 47q-81 -28 -162 -49l-7 -34q-9 -37 -27 -38q-22 -1 -38 57l-23 79q66 161 95 369zM1156 1661l-38 88q96 -23 230 -23h290l80 81l114 -86q21 -16 15 -33q-5 -19 -26 -19h-473q-118 -1 -192 -8zM785 1660l61 72l72 -50q38 -25 42 -43
q5 -20 -25 -37q-33 -20 -36 -22v-470l5 -54l2 -50q8 -51 6 -60q-7 -28 -59 -32q-53 -5 -51 26l1 25h-141v-657q0 -67 48 -81q36 -11 138 -11h861q89 0 120 14q32 16 48 89l34 163l39 -3l-10 -160q-2 -43 30 -69q38 -31 33 -57q-14 -64 -294 -64h-888q-110 0 -166 14
q-87 22 -87 131v691h-117q-5 -224 -19 -345q-29 -250 -163 -400q-74 -83 -179 -151l-20 27q166 153 223 326q49 148 54 344q4 147 7 199h-111v-35q0 -38 -54 -38q-59 0 -54 51l4 42q6 97 6 104l3 635l115 -64h87q48 114 64 278l112 -24q74 -16 68 -46q-4 -19 -30 -23l-59 -9
q-21 -40 -32 -59q-36 -69 -66 -117h378zM803 1602h-232v-260h232v260zM243 1342h233v260h-233v-260zM243 1022h233v264h-233v-264zM571 1022h232v264h-232v-264z" />
  </g>

</svg>
