<?xml version="1.0" standalone="no"?>
<!DOCTYPE svg PUBLIC "-//W3C//DTD SVG 1.1//EN" "http://www.w3.org/Graphics/SVG/1.1/DTD/svg11.dtd" >
<svg xmlns="http://www.w3.org/2000/svg" xmlns:xlink="http://www.w3.org/1999/xlink" version="1.1" viewBox="0 0 2048 2048">
  <g transform="matrix(1 0 0 -1 0 2048)">
   <path fill="currentColor"
d="M1711 1447l68 76l84 -54q40 -26 40 -49q0 -27 -78 -61v-309q0 -7 7 -104l3 -42q5 -58 -64 -51q-43 4 -44 30l-1 22h-225v-194h240l98 101l121 -107q20 -18 15 -33q-6 -19 -26 -19h-448v-42q0 -81 11 -198q5 -78 4 -86q-4 -32 -47 -34q-64 -4 -64 42v318h-226
q-108 0 -192 -8l-38 88q94 -22 230 -22h226v194h-232v-16q0 -27 -46 -30q-65 -5 -60 50l4 42q6 98 6 104v453l118 -61h210v172h-202q-123 0 -192 -8l-38 88q93 -24 230 -24h202v77q0 114 -8 160l109 -24q82 -19 85 -44q3 -26 -50 -44l-40 -13v-112h246l92 88l118 -93
q20 -16 15 -33q-5 -18 -26 -18h-445v-172h210zM1174 1205h231v185h-231v-185zM1501 1390v-185h229v185h-229zM1501 1149v-190h229v190h-229zM1174 959h231v190h-231v-190zM746 965h-134v-655q0 -64 54 -81q38 -11 169 -11h859q90 0 134 28q26 18 38 77l31 160l37 -4
l-11 -144q-3 -47 23 -75q5 -5 36 -26q15 -10 13 -26q-9 -79 -301 -79h-884q-165 0 -218 22q-76 30 -76 123v691h-99q1 -311 -46 -497q-44 -175 -159 -299q-39 -42 -117 -104l-23 23q102 120 146.5 206t68.5 208q36 178 35 463h-110v-28q0 -36 -49 -39q-61 -3 -55 52l4 42
q6 97 6 104v507q0 12 -5 64l-3 57l113 -64h108q40 116 65 279l113 -24q76 -16 68 -46q-4 -16 -61 -28l-35 -7q-27 -63 -91 -174h341l59 73l70 -47q44 -30 45 -53q1 -20 -38 -38l-29 -13v-472q0 -18 7 -104q4 -50 3 -58q-5 -31 -55 -35q-47 -3 -47 24v28zM521 1023h225v264
h-225v-264zM746 1343v260h-225v-260h225zM212 1343h217v260h-217v-260zM212 1023h217v264h-217v-264zM653 497q12 43 19 65q48 164 62 311l93 -27q71 -22 65 -50q-4 -15 -54 -26l-30 -7q-53 -169 -88 -251l168 27q-15 47 -61 126l28 19q131 -132 138 -202q3 -26 -13 -48
t-40 -20q-25 1 -31 35q-1 6 -1 12q-1 10 -6 30q-85 -31 -163 -57l-5 -26q-5 -32 -24 -36q-22 -4 -38 57z" />
  </g>

</svg>
