<?xml version="1.0" standalone="no"?>
<!DOCTYPE svg PUBLIC "-//W3C//DTD SVG 1.1//EN" "http://www.w3.org/Graphics/SVG/1.1/DTD/svg11.dtd" >
<svg xmlns="http://www.w3.org/2000/svg" xmlns:xlink="http://www.w3.org/1999/xlink" version="1.1" viewBox="0 -205 1024 1024">
  <g transform="matrix(1 0 0 -1 0 819)">
   <path fill="currentColor"
d="M390 844q4 -11 -10 -11q-20 -1 -28 -9q-8 -7 -29 -40q-20 -31 -56 -95h121l23 23l38 -27q14 -12 4 -21l-18 -7v-272l3 -45q-5 -20 -43 -23v20h-262v-11q0 -25 -47 -34q1 5 2 14q3 24 5 52v316v3q-33 -43 -69 -72l-10 10q95 114 155 275q27 74 23 83q-3 9 -13 24l8 6
l77 -37q4 -4 3 -6t-6 -2q-14 -3 -31 -17q-16 -44 -33 -82h108l33 33zM544 669l41 -32h177l25 33l59 -39q8 -13 -9 -18l-19 -14v-429q0 -47 8 -61q8 -15 66 -13q40 6 44 20q5 13 9 85l3 85h15l3 -77q0 -66 30 -84q-22 -43 -42 -52q-19 -9 -78 -11q-115 -11 -102 90v465h-176
v-158q-2 -180 -59 -272q-57 -91 -199 -157l-8 14q122 74 171 157q50 84 51 270v156l-3 6q-7 12 -17 26zM189 841q-27 -60 -56 -106q-12 -20 -25 -37l15 -11v2h121q9 19 26 58q30 63 44 94h-125zM283 521h112v150h-112v-150zM245 505h-112v-150h112v150zM245 671h-112v-150
h112v150zM395 505h-112v-150h112v150zM431 790h436l32 40l68 -50q8 -5 7 -8q-2 -2 -13 -2h-451q-27 1 -45 -13zM588 973l10 12q102 -51 112 -100q16 -61 -23 -65q-17 1 -19 29t-20 59t-60 65zM616 479l8 10q123 -85 104 -170q-10 -19 -25 -15q-13 6 -13 30q1 60 -74 145z
M112 236q5 -83 -3 -115q-7 -33 -24 -50q-35 -29 -45 2q0 9 16 29q15 19 22 33q12 21 20 102zM176 243l10 6q31 -42 34 -98q-1 -63 -30 -61q-24 7 -7 48q5 12 5 39q0 29 -12 66zM269 262l8 9q49 -49 61 -109q3 -40 -23 -41q-13 1 -15 35q-1 23 -3 36q-5 27 -28 70zM372 281
l8 10q36 -28 46 -44t16 -33q7 -17 4 -34t-19 -17q-15 -1 -15 22q0 44 -40 96z" />
  </g>

</svg>
