<?xml version="1.0" standalone="no"?>
<!DOCTYPE svg PUBLIC "-//W3C//DTD SVG 1.1//EN" "http://www.w3.org/Graphics/SVG/1.1/DTD/svg11.dtd" >
<svg xmlns="http://www.w3.org/2000/svg" xmlns:xlink="http://www.w3.org/1999/xlink" version="1.1" viewBox="0 -205 1024 1024">
  <g transform="matrix(1 0 0 -1 0 819)">
   <path fill="currentColor"
d="M386 836q4 -11 -10 -11q-20 -1 -28 -9q-8 -7 -29 -40q-20 -31 -56 -95h109l23 23l38 -27q14 -12 4 -21l-18 -7v-272l3 -45q-5 -20 -43 -23v20h-238v-11q0 -25 -47 -34q1 5 2 14q3 24 5 52v316q2 11 -3 15q-37 -51 -78 -84l-10 10q95 114 155 275q27 74 23 83q-3 9 -13 24
l8 6l77 -37q4 -4 3 -6t-6 -2q-14 -3 -31 -17q-16 -44 -33 -82h108l33 33zM672 986l89 -36q14 -5 6 -11q-21 -7 -30 -21v-305h146v204q2 16 -30 46l9 12l85 -36q14 -5 6 -11q-21 -7 -30 -21v-122l4 -98q1 -31 -44 -45v51h-115q76 -339 245 -443l-4 -14q-7 0 -20 1
q-14 1 -20 0q-19 -1 -32 -22q-148 192 -194 478h-6v-439l2 -95q2 -37 -53 -46q5 39 7 188v392h-6q-83 -337 -278 -512l-11 12q166 192 249 500h-82l-31 -36l-52 40q26 24 30 44v182q3 22 -25 41l7 11l83 -38q8 -2 10 -5t-3 -7q-20 -4 -32 -18v-194h141v315q2 16 -30 46z
M185 833q-27 -60 -56 -106l-6 -9q-4 -7 -14 -22l20 -15h111q9 19 26 58q30 63 44 94h-125zM279 513h100v150h-100v-150zM241 497h-100v-150h100v150zM379 497h-100v-150h100v150zM241 663h-100v-150h100v150zM108 232q5 -83 -3 -115q-7 -33 -24 -50q-35 -29 -45 2q0 9 16 29
q15 19 22 33q12 21 20 102zM180 239l10 6q31 -42 34 -97q-1 -64 -30 -62q-24 7 -7 48q5 12 5 39q0 29 -12 66zM273 258l8 9q49 -49 61 -109q3 -40 -23 -41q-13 1 -15 35q-1 23 -3 36q-5 27 -28 70zM376 273l8 10q36 -28 46 -44t16 -33q7 -17 4 -34t-19 -17q-15 -1 -15 22
q1 44 -40 96z" />
  </g>

</svg>
