<?xml version="1.0" standalone="no"?>
<!DOCTYPE svg PUBLIC "-//W3C//DTD SVG 1.1//EN" "http://www.w3.org/Graphics/SVG/1.1/DTD/svg11.dtd" >
<svg xmlns="http://www.w3.org/2000/svg" xmlns:xlink="http://www.w3.org/1999/xlink" version="1.1" viewBox="0 0 2048 2048">
  <g transform="matrix(1 0 0 -1 0 2048)">
   <path fill="currentColor"
d="M1560 1082v240q0 115 -8 160l109 -24q83 -18 86 -44t-51 -43l-40 -14v-235l130 57l57 72l90 -61q27 -18 31 -34q4 -17 -27 -34l-49 -28q-18 -95 -51 -271q-33 -180 -79 -340l-42 9q38 208 79 624l-139 -58v-394q0 -103 12 -219q3 -28 3 -54q0 -38 -49 -42q-62 -4 -62 42
v629l-133 -55v-662q0 -65 38 -77q45 -13 238 -12q111 1 137 27t55 263l34 -7l-4 -184q-1 -39 15 -59q4 -6 36 -35q10 -10 12 -25q11 -75 -295 -75q-232 0 -285 16q-77 24 -77 119v671q-26 -13 -48 -23l-59 63q36 10 72 21q18 5 35 10v169q0 114 -7 159l109 -24
q82 -18 85 -43q3 -26 -50 -44l-41 -13v-173zM1424 1636h369l80 80l114 -86q21 -16 16 -33q-6 -19 -26 -19h-575q-67 -160 -161 -301l-31 18q138 276 188 644l128 -44q52 -19 53 -39q1 -25 -47 -33l-48 -9q-58 -173 -60 -178zM370 1726h152l65 63l75 -56q44 -32 44 -51
q0 -23 -53 -38l-31 -8q-118 -195 -164 -263h158l61 72l73 -50q37 -25 41 -43q5 -21 -25 -38q-6 -3 -13 -7q-9 -4 -26 -14v-505l3 -49l4 -56q7 -50 5 -59q-6 -28 -59 -33q-47 -5 -47 24l-1 37h-362v-32q0 -34 -49 -38q-61 -4 -55 52l4 42q6 95 6 104v582q-38 -49 -83 -97
l-30 25q120 175 173 312q53 140 82 344l116 -28q53 -12 53 -37q0 -26 -49 -33l-31 -4q-21 -70 -37 -118zM349 1668q-41 -113 -137 -255l71 -40h118q57 121 121 295h-173zM270 1045h133v271h-133v-271zM497 1316v-271h135v271h-135zM632 989h-135v-281h135v281zM270 989v-281
h133v281h-133zM204 525h39q-3 -206 -23 -285q-34 -133 -108 -142q-24 -3 -41 11.5t-15 35.5t45 69q85 94 103 311zM348 529q73 -195 73 -295q0 -94 -66 -84q-36 6 -33 45q1 7 5 33q7 47 7 93q0 73 -23 198zM471 543q144 -182 144 -283q0 -65 -52 -68q-44 -2 -46 63
q-3 115 -76 270zM616 567q173 -203 173 -297q0 -63 -55 -63q-32 0 -41 54q-19 120 -106 283zM911 1763l-1 -1402l4 -82q5 -108 8 -149q5 -72 -54 -72q-49 0 -49 38v1652q0 41 -12 161l112 -88h172l67 83l77 -61q42 -34 36 -56q-4 -19 -42 -36q-20 -9 -34 -17
q-37 -105 -101 -252q-29 -66 -92 -219q243 -278 243 -516q0 -147 -68 -220q-39 -41 -125 -64q-11 55 -38 74q-14 9 -84 37l12 37q40 -7 59 -11q27 -5 47 -6q95 -5 95 165q0 158 -69 290q-55 105 -127 199q66 190 151 515h-187z" />
  </g>

</svg>
