<?xml version="1.0" standalone="no"?>
<!DOCTYPE svg PUBLIC "-//W3C//DTD SVG 1.1//EN" "http://www.w3.org/Graphics/SVG/1.1/DTD/svg11.dtd" >
<svg xmlns="http://www.w3.org/2000/svg" xmlns:xlink="http://www.w3.org/1999/xlink" version="1.1" viewBox="0 0 2048 2048">
  <g transform="matrix(1 0 0 -1 0 2048)">
   <path fill="currentColor"
d="M1316 1210l419 -1l83 87l120 -92q21 -16 16 -34q-6 -19 -26 -19h-546q184 -138 330 -197q107 -44 196 -65q63 -14 90 -22v-38q-95 -5 -128 -60q-338 122 -582 382h-519q-162 -152 -312 -235q-131 -72 -379 -147l-12 35q193 75 340 167q48 30 157 116q41 32 72 65l-274 -1
q-135 -1 -192 -7l-38 88q94 -23 230 -23h321q40 55 75 110l-440 -1q-119 0 -192 -8l-38 88q99 -22 230 -22h650v102h-426q-117 0 -192 -8l-38 88q96 -23 230 -23h426l1 30q4 55 -9 129l109 -24q82 -18 85 -43q3 -26 -50 -44l-41 -13v-35h410l98 102l121 -107q19 -17 15 -33
q-5 -19 -23 -19h-621v-102h656l99 102l120 -108q21 -18 16 -33q-6 -19 -26 -19l-725 1q23 -23 47 -46q35 -34 67 -63zM1235 1210q-21 23 -92 109h-296l42 -19q26 -12 29 -26q5 -25 -37 -31l-47 -8l-23 -25h424zM707 1798v32q0 86 -6 122l109 -24q78 -17 81 -44
q4 -26 -50 -44l-40 -13l1 -153q0 -61 -57 -52q-38 6 -38 37v81h-333q-117 0 -192 -8l-39 88q97 -22 231 -22h333zM1317 1737v-66q0 -62 -57 -53q-38 6 -38 38v178q0 87 -6 122l109 -24q78 -17 81 -44q4 -26 -50 -44l-40 -13v-37h345l99 102l120 -107q21 -18 16 -34
q-6 -18 -26 -18h-553zM1692 301q211 -87 228 -160q9 -37 -18 -64q-15 -15 -36 -12q-24 3 -43 44q-39 84 -152 156zM1220 308q143 -108 143 -178q0 -30 -21 -49q-15 -15 -37 -12q-24 4 -37 56q-21 80 -83 161zM723 305q139 -115 139 -175q0 -25 -16 -43q-17 -21 -41 -18
q-31 4 -37 55q-9 73 -75 155zM322 317l37 -13q-15 -90 -52 -153q-28 -48 -77 -75q-41 -23 -79 -18q-51 7 -49 53q2 27 44 40q73 22 103 49q42 37 73 117zM1554 751l60 74l73 -49q36 -26 41 -44q5 -20 -25 -38q-6 -3 -13 -6q-9 -5 -27 -14v-168l6 -54l2 -51q8 -50 5 -59
q-6 -28 -59 -33q-49 -5 -49 29v19h-981v-19q0 -41 -52 -44q-61 -3 -55 52l4 42q8 95 8 104v199q-148 -66 -265 -106l-17 38q399 168 575 436l89 -35q63 -24 56 -49q-6 -19 -38 -23l-47 -5l-35 -26h374l73 59l76 -55q55 -40 42 -62q-8 -12 -38 -15l-50 -3q-76 -52 -150 -94
h417zM591 751h470q55 57 112 117h-416q-146 -105 -166 -117zM587 582h432v114h-432v-114zM587 414h432v114h-432v-114zM1568 696h-457v-114h457v114zM1111 414h457v114h-457v-114z" />
  </g>

</svg>
