<?xml version="1.0" standalone="no"?>
<!DOCTYPE svg PUBLIC "-//W3C//DTD SVG 1.1//EN" "http://www.w3.org/Graphics/SVG/1.1/DTD/svg11.dtd" >
<svg xmlns="http://www.w3.org/2000/svg" xmlns:xlink="http://www.w3.org/1999/xlink" version="1.1" viewBox="0 -205 1024 1024">
  <g transform="matrix(1 0 0 -1 0 819)">
   <path fill="currentColor"
d="M376 848q2 -5 -1 -7q-2 -2 -9 0q-22 -6 -32 -19q-10 -12 -33 -53q-21 -37 -48 -84h83l21 29l42 -33q7 -6 5 -10q-1 -5 -11 -7l-16 -11v-253l5 -66q4 -29 -39 -36v37h-212v-9q4 -38 -41 -44q5 37 7 128v267q-2 8 -5 14l-9 -12q-46 -64 -73 -86l-4 12q12 20 39 63
q30 49 46 75q46 78 70 143q25 66 22 76q-2 11 -10 21l8 6l71 -35q2 -4 1 -6t-6 -2q-18 1 -31 -19q-12 -34 -27 -68h108l27 29zM495 468l30 -34h291l25 29l38 -33q14 -12 2 -19l-20 -11v-255l3 -65q-1 -32 -41 -33v70h-291v-41q4 -37 -45 -44q5 37 7 128v263q-3 22 -13 32z
M721 817q-1 16 -9 26l7 4l46 -24q18 -9 7 -13q-15 -2 -24 -14l-13 -82h65q10 66 13 173h-56q-27 1 -45 -13l-34 29h224l18 26l52 -32q8 -5 7 -8q-2 -2 -13 -2h-119q-1 -84 -10 -161l-2 -12h87l17 27l46 -30q10 -7 8 -10q-1 -4 -14 -3h-102v-144q0 -46 16 -50q6 -2 14 -3
q5 -2 6 -2q2 0 8 1q10 1 17 1q21 3 25 39q2 29 4 80v11h11l2 -47q3 -55 23 -63q-16 -37 -33 -42q-19 -9 -81 -6q-42 3 -44 65v160h-13q-13 -64 -57 -121q-52 -69 -178 -129l-6 14q90 53 142 111q50 57 64 125h-57l-19 -25l-36 33q14 8 22 23zM823 274h-291v-137h291v137z
M435 817q-1 16 -9 26l7 4l48 -24q18 -9 7 -13q-15 -2 -24 -14l-13 -82h61q1 3 2 7q1 5 1 7q11 69 12 157h-54q-27 1 -45 -13l-34 29h202l16 28l56 -34q8 -5 7 -8q-2 -2 -13 -2h-101q1 -54 -8 -131q-3 -21 -7 -40h62l15 25l44 -28q10 -7 8 -10q-1 -4 -14 -3h-65v-134
q16 10 65 40q27 16 42 25l6 -11q-42 -36 -88 -72q-30 -28 -43 -54l-38 40q20 11 24 26v140h-21q-11 -52 -32 -100q-32 -73 -118 -144l-6 12q66 72 91 131q19 46 31 101h-55l-19 -25l-36 33q14 8 22 23zM532 290h291v124h-291v-124zM126 685h103q41 84 71 156h-119
q-24 -50 -55 -101q-5 -9 -17 -25q-3 -5 -5 -7zM221 502h-90v-149h90v149zM221 667h-90v-149h90v149zM343 502h-90v-149h90v149zM253 518h90v149h-90v-149zM100 240q5 -85 -3 -117q-7 -33 -24 -50q-35 -29 -45 2q0 9 16 29q15 19 22 33q12 21 20 104zM166 243l10 6
q29 -42 30 -102q-1 -68 -28 -65q-24 2 -7 52q5 17 5 45t-10 64zM243 256l8 9q50 -53 58 -108q6 -49 -22 -50q-15 1 -14 25q2 23 -3 54q-4 31 -27 70zM334 265l8 10q78 -63 70 -133q-3 -17 -19 -16q-15 0 -15 24q-2 65 -44 115z" />
  </g>

</svg>
