<?xml version="1.0" standalone="no"?>
<!DOCTYPE svg PUBLIC "-//W3C//DTD SVG 1.1//EN" "http://www.w3.org/Graphics/SVG/1.1/DTD/svg11.dtd" >
<svg xmlns="http://www.w3.org/2000/svg" xmlns:xlink="http://www.w3.org/1999/xlink" version="1.1" viewBox="0 -205 1024 1024">
  <g transform="matrix(1 0 0 -1 0 819)">
   <path fill="currentColor"
d="M16 570l-12 10q51 62 95 136q43 72 70 149q26 78 21 89t-14 26l8 6l85 -39q2 -4 1 -6t-6 -2q-18 0 -33 -21q-18 -47 -36 -89h129l31 32l59 -55q3 -6 1 -8q-2 -1 -9 1q-21 1 -35 -8q-15 -11 -36 -41l-63 -90h91l34 41l50 -49q7 -6 5 -10q-1 -5 -11 -8l-19 -9v-271l5 -54
q2 -23 -10 -32t-37 -12v50h-244v-15q2 -21 -12 -31q-12 -10 -37 -15q4 39 7 85v324l-1 1q-35 -46 -77 -85zM479 695h118l40 117q0 21 -13 29l7 10l63 -41q15 -9 7 -13q-20 -6 -29 -19l-31 -83h214l28 40l61 -50q7 -5 6 -8q-1 -2 -10 -1h-307l-76 -210h143v117q1 14 -27 46
l7 13l82 -37q12 -5 5 -11q-17 -8 -27 -21v-107h102l31 43l57 -50q9 -8 7 -11q-1 -3 -13 -2h-184v-157h169l29 39l60 -49q7 -6 5 -9q-1 -2 -10 -1h-253v-105l3 -95q0 -21 -14 -31q-11 -8 -36 -15q4 30 7 188v58h-198q-24 0 -40 -13l-30 33h268v157h-133l-36 -42l-41 46
q19 16 38 37l63 189h-42q-24 0 -39 -13zM325 809h-139q-17 -37 -45 -85q-15 -24 -31 -45l19 -19h118q50 83 78 149zM900 775l-14 4l41 109h-405q1 -41 -12 -86q-13 -27 -30 -31q-18 -3 -22 12q-5 15 10 32q35 45 39 131h13q0 -7 1 -19q0 -13 1 -19h394l29 40l61 -63
q1 -6 -1 -8q-2 -1 -7 1q-21 -3 -34 -15q-34 -32 -64 -88zM278 477v-151h102v151h-102zM136 477v-151h102v151h-102zM380 640h-102v-143h102v143zM136 640v-143h102v143h-102zM74 67l-44 57l414 100l4 -17q-284 -87 -323 -102q-30 -11 -51 -38z" />
  </g>

</svg>
