<?xml version="1.0" standalone="no"?>
<!DOCTYPE svg PUBLIC "-//W3C//DTD SVG 1.1//EN" "http://www.w3.org/Graphics/SVG/1.1/DTD/svg11.dtd" >
<svg xmlns="http://www.w3.org/2000/svg" xmlns:xlink="http://www.w3.org/1999/xlink" version="1.1" viewBox="0 0 2048 2048">
  <g transform="matrix(1 0 0 -1 0 2048)">
   <path fill="currentColor"
d="M622 1472v-233q349 68 511 123l17 -39q-205 -93 -518 -182q-8 -62 -29 -66q-15 -3 -40 43l-59 106l23 4v202q-155 -59 -406 -112l-11 42q242 69 385 135q190 88 350 210h-502q-108 0 -192 -8l-38 88q91 -22 230 -22h672q-21 17 -32 57q-16 60 -101 126l24 28
q89 -42 126 -68q69 -49 57 -100q-5 -23 -32 -43h616l108 114l131 -114q27 -23 22 -40q-6 -18 -26 -18h-911q-238 -172 -375 -233zM1288 1467q165 52 239 87q96 45 184 104l75 -61q53 -42 49 -61q-3 -16 -22 -19q-13 -2 -83 13q-152 -46 -403 -95q142 -98 311 -150
q108 -32 309 -53v-35q-67 -5 -99 -24q-25 -15 -43 -57q-298 89 -452 204q-144 108 -265 308l34 17q96 -120 166 -178zM1501 683h-948v-73h1054l88 85l108 -77q32 -23 30 -46q-1 -19 -25 -19h-1255v-77h1233l61 72l72 -49q37 -26 42 -44q5 -20 -25 -37q-7 -4 -13 -7
q-9 -5 -27 -14q-32 -216 -87 -276q-48 -52 -159 -70q1 49 -18 71q-21 25 -85 47l-43 15l15 42l71 -23q79 -24 99 -24q55 0 78 92q14 57 26 147h-1246q-22 -9 -52 -9q-38 0 -38 22v656l111 -61h189q35 68 60 160l92 -23q68 -16 72 -40q3 -22 -38 -29l-48 -7q-35 -30 -78 -61
h668l61 72l72 -50q37 -25 41 -43q5 -20 -25 -38l-12 -6q-10 -5 -27 -15l-2 -247q0 -40 -47 -46q-45 -6 -45 17v13zM1501 885v84h-948v-84h948zM553 742h948v87h-948v-87zM1288 375q152 -69 175 -123q13 -30 -4 -58q-14 -22 -39 -20q-27 2 -43 42q-26 64 -110 130zM943 373
q66 -47 90 -67q54 -44 64 -92q5 -29 -12 -53q-20 -29 -50 -23q-29 5 -37 61q-11 68 -78 151zM593 363q132 -128 123 -206q-2 -19 -15 -35q-19 -23 -43 -19q-32 6 -36 80q-4 61 -56 163zM324 392l36 -7q-20 -149 -46 -210q-41 -98 -119 -98q-24 0 -40 21t-9 44q6 18 58 52
q58 37 86 98q16 35 34 100z" />
  </g>

</svg>
