<?xml version="1.0" standalone="no"?>
<!DOCTYPE svg PUBLIC "-//W3C//DTD SVG 1.1//EN" "http://www.w3.org/Graphics/SVG/1.1/DTD/svg11.dtd" >
<svg xmlns="http://www.w3.org/2000/svg" xmlns:xlink="http://www.w3.org/1999/xlink" version="1.1" viewBox="0 -205 1024 1024">
  <g transform="matrix(1 0 0 -1 0 819)">
   <path fill="currentColor"
d="M656 975l70 -28q17 -10 7 -15q-20 -3 -28 -12q-22 -33 -63 -83h184l31 39l50 -43q7 -6 5 -10q-1 -5 -11 -7l-18 -9v-143l5 -46q0 -29 -43 -36v25h-281v-93h336l22 32l58 -36q8 -6 7 -9q-2 -3 -13 -3h-410v-84h335l22 33l42 -28q9 -6 9 -11q0 -4 -9 -8l-16 -17v-61
q0 -132 -19 -180q-19 -51 -53 -75t-94 -32q-4 20 -26 32q-39 21 -100 36l2 14q104 -24 144 -25q49 0 77 42q29 38 29 166v98h-343v-10q2 -34 -47 -44q5 37 7 106v377q-3 24 -20 40l12 11l43 -41h55l24 42q28 53 25 63q-3 11 -13 22zM56 686l34 -35h135v291q2 17 -25 42l8 11
l80 -34q14 -5 6 -11q-16 -4 -27 -18v-281h119l30 43l48 -42q9 -6 9 -11q0 -4 -9 -8l-20 -13v-492q0 -23 -12 -44t-71 -30q-4 34 -46 44q-6 1 -18 4q-24 5 -63 13l2 14q113 -17 132 -17q20 0 27 6q8 6 7 70v443h-299v-438l5 -95q2 -37 -54 -46q5 39 7 187v400q-7 21 -21 35z
M154 550l34 -36h103l23 27l40 -31q7 -4 6 -8q0 -5 -8 -9l-18 -9v-134l3 -71q-1 -32 -39 -33v64h-101v-33q2 -36 -43 -44q5 37 7 76v192q2 12 -19 33zM564 729h281v92h-281v-92zM845 715h-281v-92h281v92zM197 326h101v172h-101v-172zM379 884l68 -42q17 -10 7 -15
q-22 -1 -38 -12q-49 -85 -89 -145l-18 6q60 129 66 155q11 32 -5 45zM50 862l5 14q62 -32 94 -97q33 -80 -6 -89q-21 -1 -25 27q-3 29 -17 67q-13 38 -51 78zM542 288q6 -103 -21 -135q-33 -38 -52 -10q-4 11 12 23q17 12 29 40q13 29 19 82h13zM668 315l6 8q50 -33 66 -75
q16 -52 -15 -59q-16 -1 -17 21q-1 23 -7 48q-6 26 -33 57zM584 299l8 6q57 -58 50 -121q-3 -26 -22 -25t-15 25q4 23 2 50t-23 65zM756 339l6 8q80 -43 84 -99q2 -25 -15 -27q-14 -2 -22 29q-6 21 -12 33q-12 26 -41 56z" />
  </g>

</svg>
