<?xml version="1.0" standalone="no"?>
<!DOCTYPE svg PUBLIC "-//W3C//DTD SVG 1.1//EN" "http://www.w3.org/Graphics/SVG/1.1/DTD/svg11.dtd" >
<svg xmlns="http://www.w3.org/2000/svg" xmlns:xlink="http://www.w3.org/1999/xlink" version="1.1" viewBox="0 0 2048 2048">
  <g transform="matrix(1 0 0 -1 0 2048)">
   <path fill="currentColor"
d="M674 1645q82 -90 110 -128q73 -101 66 -176q-6 -59 -56 -59q-28 0 -37 39q-2 8 -8 56q-10 91 -103 247zM1001 1679l136 -49q30 -11 30 -28q0 -20 -26 -26l-59 -12q-16 -31 -23 -47q-64 -132 -107 -197q-16 -23 -58 -85l-32 19q70 165 93 243q20 69 46 182zM492 1580
q86 -80 120 -120q79 -93 72 -165q-6 -60 -56 -60q-31 0 -42 37q-2 8 -8 53q-11 88 -114 234zM708 70q-11 70 -47 93q-33 21 -158 43l7 46q137 -22 190 -27q69 -6 69 57v335q-75 -28 -196 -71l-5 -40q-4 -27 -24 -27q-18 0 -33 31l-63 126q169 26 321 69v71q0 40 -11 141
l79 -17q55 70 123 178h-268q-69 0 -148 -10l-41 85q124 -17 189 -17h276l67 62l83 -69q33 -26 35 -49q1 -24 -27 -27l-68 -7q-89 -87 -166 -158q50 -15 55 -35q8 -28 -39 -44l-44 -14v-65q81 20 288 90l16 -41q-143 -72 -304 -129v-410q0 -142 -156 -170zM1064 1783
q-195 -59 -598 -85l-1 42q416 48 579 155l90 -66q28 -20 23 -40q-4 -16 -23 -17q-13 -1 -34 4zM167 1869q114 -69 164 -112q83 -69 90 -141q3 -36 -15 -60q-15 -19 -40 -17q-38 4 -57 63q-39 123 -166 238zM107 1344q98 -55 170 -109q125 -94 125 -189q0 -65 -53 -65
q-39 0 -61 65q-49 138 -205 266zM425 792l37 -19q-91 -267 -248 -576l9 -31q4 -16 3 -30q-1 -15 -11 -21q-18 -11 -49 21l-97 101q108 126 172 225q75 116 184 330zM1687 1707l60 72l72 -50q38 -26 42 -43q5 -19 -25 -37q-24 -14 -35 -24l-2 -268l5 -53l2 -51q8 -50 6 -59
q-7 -28 -59 -33q-45 -5 -48 24l-1 17h-402v-179h388l89 83l118 -91q20 -15 16 -34q-4 -16 -22 -16h-589v-167h500l68 65l61 -42q50 -34 53 -53q5 -27 -46 -45l-30 -12l-12 -162q-22 -306 -78 -395q-52 -81 -190 -103q-8 62 -38 84q-26 19 -122 48l13 44l76 -20
q55 -14 63 -16q23 -7 40 -9q78 -9 108 130q21 97 34 274l12 156h-521q-19 -11 -53 -15q-34 -5 -34 37v844q0 95 -16 167l126 -68h76q31 115 42 231l102 -23q69 -15 76 -41q7 -25 -49 -34l-46 -8q-39 -64 -75 -125h245zM1302 1260h402v168h-402v-168zM1704 1649h-402v-161
h402v161zM1606 693q143 -117 149 -191q2 -27 -13 -47q-16 -22 -40 -18q-24 3 -31 47q-13 87 -89 186zM1448 653q138 -134 138 -217q0 -28 -18.5 -45.5t-40.5 -9.5q-23 7 -28 54q-9 94 -77 198zM1328 641q61 -123 74 -181q14 -66 0 -101q-18 -41 -56 -38q-19 2 -30 19
q-14 19 -10 42q11 58 11 101q0 64 -23 146zM1168 633h38q15 -356 -99 -356q-23 0 -38 15q-14 15 -11 35q2 17 40 59q57 64 70 247z" />
  </g>

</svg>
