<?xml version="1.0" standalone="no"?>
<!DOCTYPE svg PUBLIC "-//W3C//DTD SVG 1.1//EN" "http://www.w3.org/Graphics/SVG/1.1/DTD/svg11.dtd" >
<svg xmlns="http://www.w3.org/2000/svg" xmlns:xlink="http://www.w3.org/1999/xlink" version="1.1" viewBox="0 -205 1024 1024">
  <g transform="matrix(1 0 0 -1 0 819)">
   <path fill="currentColor"
d="M682 975l62 -24q17 -10 7 -15q-20 -3 -28 -12q-22 -25 -58 -75h181l21 33l46 -35q7 -6 5 -10q-1 -5 -11 -7l-14 -11v-147l5 -46q0 -29 -41 -36v25h-261v-97h300l22 32l58 -36q8 -6 7 -9q-2 -3 -13 -3h-374v-96h307l22 33l42 -28q9 -6 9 -11q0 -4 -9 -8l-16 -17v-61
q2 -132 -18 -180q-19 -51 -54 -75q-34 -24 -86 -32q-4 20 -26 32q-39 21 -100 36l2 14q104 -24 136 -25q50 0 78 42q30 38 28 166v98h-315q-1 -20 -12 -28q-10 -9 -33 -14q5 37 7 106v385q-3 24 -20 36l12 15l41 -41h48l23 42q28 45 26 54q-1 10 -12 19zM104 614l36 -27h256
l25 27l42 -31q7 -6 5 -10q-1 -5 -11 -7l-12 -9v-132l6 -69q1 -28 -44 -33v30h-113v-107h124l32 44l68 -50q8 -5 7 -8q-2 -2 -13 -2h-218v-108l2 -57q3 -36 -49 -44q5 38 7 130v79h-149q-27 1 -45 -17l-34 33h228v107h-106v-11q3 -36 -45 -44q5 38 7 126v155q-3 15 -15 27z
M407 467h-259v-98h259v98zM857 727h-261v-96h261v96zM596 741h261v92h-261v-92zM148 481h259v90h-259v-90zM375 829l66 -30q17 -10 7 -15q-22 1 -45 -19q-6 -9 -18 -26q-22 -33 -48 -69h91l32 40l68 -46q8 -5 7 -8q-2 -2 -13 -2h-419q-27 1 -45 -13l-34 29h288l33 63
q30 60 30 68t-8 23zM44 846h362l24 40l68 -46q8 -5 7 -8q-2 -2 -13 -2h-369q-27 1 -45 -13zM184 984l10 13q82 -32 104 -66q30 -54 -8 -69q-19 -3 -22 22t-22 50t-62 50zM122 800l4 13q65 -21 99 -66q33 -55 -9 -66q-19 0 -21 21t-19 46q-16 25 -54 52zM570 288
q6 -110 -22 -141q-31 -40 -51 -12q-5 12 12 23q17 12 29 41q13 28 19 89h13zM616 299l8 6q53 -68 46 -125q-3 -26 -22 -25t-15 25q4 23 2 50t-19 69zM696 319l6 8q46 -40 61 -82q14 -51 -15 -57q-15 0 -16 22q-1 23 -7 48t-29 61zM784 347l6 8q46 -25 68 -68q22 -51 -4 -62
q-13 -2 -21 29q-6 23 -12 36q-12 27 -37 57z" />
  </g>

</svg>
