<?xml version="1.0" standalone="no"?>
<!DOCTYPE svg PUBLIC "-//W3C//DTD SVG 1.1//EN" "http://www.w3.org/Graphics/SVG/1.1/DTD/svg11.dtd" >
<svg xmlns="http://www.w3.org/2000/svg" xmlns:xlink="http://www.w3.org/1999/xlink" version="1.1" viewBox="0 0 2048 2048">
  <g transform="matrix(1 0 0 -1 0 2048)">
   <path fill="currentColor"
d="M1736 1420l17 -13q37 -28 40 -41q5 -20 -25 -37q-6 -4 -13 -7q-9 -4 -27 -14v-115l38 -26q15 -10 15 -27q0 -19 -28 -19h-585l2 -14q3 -26 -65 -27q-42 0 -37 41l3 34q5 76 5 80l-1 178q-87 -11 -176 -21l-5 37q262 56 432 122q-122 64 -227 136q-88 -60 -189 -107
l-18 31q219 137 301 343l102 -34q51 -17 51 -36q0 -22 -48 -28l-33 -5q-16 -22 -30 -37h391l62 57l89 -68q31 -24 31 -43q0 -26 -35 -30l-49 -4q-75 -70 -201 -162q172 -46 467 -63v-44q-47 -1 -69 -11q-24 -12 -38 -50q-95 12 -147 24zM1660 1437q-123 24 -243 72
q-145 -61 -286 -83l50 -41h437zM1137 1715q141 -79 283 -119q116 73 204 166h-431zM1168 1175h465l-1 155h-462zM1477 679h-947l-1 -76h1036l86 80l110 -95q13 -11 11 -24q-2 -19 -25 -19h-1218l1 -78h1238l56 72l72 -48q37 -25 42 -44q5 -20 -25 -37q-7 -4 -13 -7
q-9 -4 -27 -14q-32 -216 -87 -276q-48 -52 -159 -70q1 49 -18 71q-21 25 -86 47l-42 15l15 42l71 -23q79 -24 99 -24q55 0 78 93q14 56 26 147h-1246q-22 -10 -52 -10q-38 0 -38 23v655l111 -60h223q39 66 67 159l89 -26q60 -18 56 -38q-2 -16 -53 -23l-26 -3
q-33 -34 -73 -69h634l61 71l72 -49q37 -26 41 -43q5 -20 -25 -37q-6 -4 -13 -7q-9 -4 -27 -14v-102q0 -47 6 -104q4 -27 4 -44q0 -41 -56 -49q-45 -6 -47 25zM1478 877v84h-949v-84h949zM529 734h949v88h-949v-88zM1265 369q151 -68 175 -124q13 -30 -4 -58q-14 -22 -39 -21
q-27 2 -43 42q-26 64 -110 131zM920 365q66 -47 90 -66q54 -45 64 -93q5 -29 -12 -53q-20 -28 -50 -23q-29 6 -37 61q-11 68 -78 152zM570 356q132 -128 123 -207q-2 -19 -15 -34q-20 -23 -43 -19q-32 5 -36 80q-4 60 -56 163zM301 384l36 -7q-20 -151 -46 -210
q-42 -97 -119 -97q-25 0 -40.5 20.5t-8.5 43.5q6 18 58 52q58 37 86 98q16 35 34 100zM200 1844l122 -65h392l61 71l72 -49q37 -26 42 -44q5 -20 -26 -37q-6 -4 -13 -7q-9 -4 -27 -14v-326q0 -47 7 -104q3 -27 3 -44q0 -41 -58 -49q-48 -6 -48 25l1 21h-432v-11
q0 -27 -45 -30q-66 -6 -60 50l4 42q6 98 6 104zM560 1473v-194h168v194h-168zM560 1721v-192h168v192h-168zM296 1529h168v192h-168v-192zM296 1279h168v194h-168v-194z" />
  </g>

</svg>
