<?xml version="1.0" standalone="no"?>
<!DOCTYPE svg PUBLIC "-//W3C//DTD SVG 1.1//EN" "http://www.w3.org/Graphics/SVG/1.1/DTD/svg11.dtd" >
<svg xmlns="http://www.w3.org/2000/svg" xmlns:xlink="http://www.w3.org/1999/xlink" version="1.1" viewBox="0 -205 1024 1024">
  <g transform="matrix(1 0 0 -1 0 819)">
   <path fill="currentColor"
d="M742 986l62 -24q17 -9 7 -15q-22 -1 -30 -10q-18 -35 -44 -86h137l15 27l42 -29q7 -6 5 -10q-1 -5 -11 -7l-10 -11v-153l5 -50q1 -31 -37 -36v35h-201v-93h230l18 28l54 -32q8 -6 7 -9q-2 -3 -13 -3h-296v-86h241l24 31l34 -32q9 -6 9 -11q0 -4 -9 -8l-12 -11v-67
q0 -136 -19 -180q-19 -47 -52 -71t-79 -34q-4 18 -26 32q-39 21 -100 36l2 14q104 -26 138 -27q43 -2 71 41q29 40 29 167v104h-251q-2 -16 -11 -24q-10 -9 -30 -14q5 41 7 104v369q-3 24 -14 36l10 11l33 -37h38l15 39q20 57 18 67q-1 11 -12 20zM247 987l70 -34
q14 -5 6 -11q-16 -4 -27 -18v-108h21l24 29l53 -42q5 -5 3 -6q-1 -2 -11 -1h-90v-418h29l24 29l53 -42q5 -5 -8 -7h-309q-27 1 -45 -23l-34 43h102v418h-15q-27 1 -45 -13l-34 33h94v112q2 17 -25 42l8 11l74 -34q14 -5 6 -11q-21 -4 -31 -18v-102h124v118q2 17 -25 42z
M429 663l65 -30q18 -7 8 -13q-14 1 -26 -14q3 -99 -9 -197q44 -46 66 -81q25 -38 37 -79q11 -42 2 -61t-24 -15t-14 35q1 32 -17 80q-15 39 -54 96q-5 -42 -14 -85q-32 -150 -176 -268l-10 14q130 121 157 263q27 144 24 310q-4 20 -23 34zM633 769q4 -10 -10 -9
q-31 -5 -46 -36q-13 -20 -33 -68l-13 6l32 102h-131q-2 -5 -5 -15q-2 -7 -9 -27q-31 -84 -75 -134l-8 10q61 115 88 272q12 71 7 79q-1 1 -3 5q-1 3 -11 18l8 6l83 -31q2 -4 1 -6t-6 -2q-12 1 -31 -19q-15 -75 -33 -136h111l29 27zM883 733h-201v-100h201v100zM682 747h201
v88h-201v-88zM264 518h-124v-140h124v140zM264 666h-124v-132h124v132zM264 796h-124v-114h124v114zM123 312l56 -36q17 -10 7 -15q-22 1 -28 -10q-78 -125 -143 -179l-8 7q58 75 87 128q32 59 30 70q-2 12 -10 27zM223 302l10 8q88 -79 94 -114q14 -56 -18 -57
q-18 0 -19 26q-1 29 -12 54q-11 27 -55 83zM649 290q8 -72 -5 -117q-14 -44 -38 -28q-13 8 0 23q14 14 21 42q8 29 11 81zM686 305l8 6q54 -62 41 -120q-6 -25 -21 -22t-10 23q5 19 2 49t-20 64zM815 352l4 8q46 -22 69 -64q23 -53 -3 -63q-15 -1 -16 18t-12 47
q-10 29 -42 54zM748 323l6 8q60 -49 62 -110q-1 -21 -16 -22t-15 20q-1 55 -37 104z" />
  </g>

</svg>
