<?xml version="1.0" standalone="no"?>
<!DOCTYPE svg PUBLIC "-//W3C//DTD SVG 1.1//EN" "http://www.w3.org/Graphics/SVG/1.1/DTD/svg11.dtd" >
<svg xmlns="http://www.w3.org/2000/svg" xmlns:xlink="http://www.w3.org/1999/xlink" version="1.1" viewBox="0 -205 1024 1024">
  <g transform="matrix(1 0 0 -1 0 819)">
   <path fill="currentColor"
d="M198 997l64 -28q17 -10 7 -15q-20 -3 -28 -12q-9 -13 -31 -45q-17 -24 -26 -37h161l25 33l42 -39q7 -6 5 -10q-1 -5 -11 -7l-14 -11v-151l5 -40q1 -31 -41 -36v33h-245v-101h274l22 32l58 -36q8 -6 7 -9q-2 -3 -13 -3h-348v-92h269l22 35l40 -34q10 -6 10 -11
q0 -4 -10 -8l-16 -17v-63q0 -137 -22 -181q-22 -48 -51 -71q-28 -23 -81 -39q-1 20 -24 32q-37 25 -94 36l2 14q98 -24 138 -29q29 2 63 46q35 41 31 170v104h-277v-2q4 -37 -47 -44q5 37 7 92v391q-3 24 -20 40l12 11l36 -35h57l24 41q28 53 25 63q-3 11 -13 22zM548 973
l78 -29q9 -6 5 -10q-19 -4 -31 -12q-18 -46 -38 -86h316l28 34l60 -40q8 -5 7 -8q-2 -2 -13 -2h-196v-98h100l18 32l56 -36q8 -4 7 -7q-2 -2 -13 -3h-168v-100h94l22 36l62 -40q8 -5 7 -8q-2 -2 -13 -2h-172v-96h122l32 34l54 -38q10 -6 10 -9q1 -3 -8 -3h-414l2 -34
q3 -32 -47 -40q5 38 7 144v207q-43 -74 -91 -125l-8 7q62 101 98 192q37 92 32 106q-5 15 -13 26zM953 349v-253q0 -24 -10 -43q-10 -20 -71 -30q-2 32 -35 35q-33 2 -72 11l2 15q95 -11 114 -11q20 0 27 6q8 6 7 71v210h-103v-148q3 -35 -41 -43q0 4 1 14q2 19 3 31h-79
l-26 -38l-44 36q19 17 23 36v111h-103v-209l4 -87q1 -42 -49 -42q5 39 7 180v167q-3 26 -14 27l12 9l32 -29h105l24 32l40 -36q9 -6 8 -10q-1 -5 -12 -7l-20 -9v-115h93q1 7 1 23q1 15 1 23v93q-3 19 -13 35l9 8l30 -36h101l22 31l42 -26q9 -6 9 -11q0 -4 -9 -8zM356 742
h-245v-94h245v94zM111 756h245v88h-245v-88zM726 708h-166v-100h166v100zM726 820h-166v-98h166v98zM560 594v-96h166v96h-166zM659 985l8 12q85 -38 102 -84q17 -55 -21 -58q-16 2 -18 23q-1 21 -18 50t-53 57zM86 308q2 -113 -24 -143q-30 -38 -49 -12q-4 13 12 25
q17 12 29 40q13 29 19 90h13zM185 330l8 8q67 -44 69 -112q-1 -24 -17 -25q-16 -2 -16 22q2 56 -44 107zM265 362l7 7q72 -48 76 -110q0 -25 -16 -27q-15 0 -16 22q0 48 -51 108zM125 311l8 8q49 -72 35 -128q-5 -20 -20 -19q-15 0 -10 25q10 37 -2 75q-5 23 -11 39z
M554 819l1 1h-1v-1z" />
  </g>

</svg>
