<?xml version="1.0" standalone="no"?>
<!DOCTYPE svg PUBLIC "-//W3C//DTD SVG 1.1//EN" "http://www.w3.org/Graphics/SVG/1.1/DTD/svg11.dtd" >
<svg xmlns="http://www.w3.org/2000/svg" xmlns:xlink="http://www.w3.org/1999/xlink" version="1.1" viewBox="0 -205 1024 1024">
  <g transform="matrix(1 0 0 -1 0 819)">
   <path fill="currentColor"
d="M480 625l46 -26q15 -9 5 -13q-7 3 -18 -4q-31 -40 -56 -71h274l17 25l46 -25q7 -6 5 -10q-1 -5 -11 -7l-10 -11v-69l5 -42q2 -16 -41 -22v15h-467v-51h624l22 32l58 -34q8 -6 7 -9q-2 -3 -13 -3h-698v-52h569l22 33l44 -32q9 -6 9 -11q0 -4 -9 -8l-14 -13v-54
q1 -82 -62 -123q-28 -19 -82 -23q0 22 -28 38q-37 16 -82 24l2 14q90 -22 128 -25q78 -1 84 97v67h-581q-2 -16 -14 -24q-13 -8 -33 -11q0 3 1 8q4 26 6 57v237q1 26 -14 24l12 11l32 -23h169l18 34q3 6 7 16q19 39 19 43q0 5 -6 16zM964 589l2 -16q-64 1 -71 -32
q-47 16 -107 41q-29 12 -56 29q-18 -11 -35 -20q-43 -22 -82 -37t-105 -27v10q14 6 41 17q87 34 135 66q9 6 17 11q-13 11 -25 23q-43 41 -69 87q-7 -3 -13 -6l-28 26h271l17 20l49 -35q5 -4 5 -7q-1 -3 -8 -5q-18 7 -53 -27q-16 -16 -63 -55q-12 -11 -25 -20q14 -7 27 -11
q57 -21 115 -28q3 0 9 -1q10 -1 52 -3zM275 443h467v54h-467v-54zM742 431h-467v-52h467v52zM264 1012l76 -34q14 -5 6 -11q-16 -4 -27 -18v-33h136l20 26l56 -32q10 -6 8 -8q-1 -3 -14 -2h-206v-60h100l18 24l60 -30q10 -6 8 -8q-1 -3 -14 -2h-303q-27 1 -45 -13l-34 29
h172v60h-131q-27 1 -45 -13l-34 29h210v43q2 17 -25 42zM835 924v-37q3 -54 7 -60t16 -6h34q24 4 28 19h5q20 -7 36 -19q17 -12 6 -14l-29 -9l-36 -3q-38 -3 -79 0q-23 14 -26 54v90h-139q3 -46 -10 -83q-21 -68 -100 -99l-6 11q58 44 72 97q6 28 4 74q-4 17 -26 37l9 15
l46 -36h139l21 26l51 -28q6 -5 4 -10q-1 -4 -10 -6zM383 708l61 -29q15 -7 5 -15q-13 0 -29 -5q-22 -22 -45 -41q18 -9 37 -22q46 -36 18 -58q-12 -5 -23 14q-10 19 -39 38q-25 17 -78 39q-19 -36 -52 -61q-62 -47 -152 -67l-8 10q177 68 194 163q12 51 8 53q-3 3 -11 18
l6 6l69 -25q2 -4 1 -6t-6 -2q-18 -3 -23 -15q-6 -33 -19 -61q40 -12 61 -19l12 16q24 38 20 45q-4 9 -12 18zM133 809q-1 -13 -3 -34h330l23 25l51 -31q6 -14 -8 -14q-34 -1 -73 -62l-11 6l26 60h-339q-4 -21 -14 -40q-12 -22 -36 -31q-24 -7 -32 8q-7 15 20 31q42 24 51 84
zM702 672q15 -12 28 -21q9 7 26 20q6 6 9 8q35 30 67 66h-194h-9q30 -40 73 -73zM227 173q-3 -90 -68 -125q-30 -14 -40 5t17 29t48 31t31 60h12zM209 721q-7 -38 -12 -55q-4 -16 -21 -39q-40 -43 -66 -13q-6 15 17 24t39 30t26 55zM484 194l6 9q77 -42 73 -94
q-2 -19 -19 -20q-17 -2 -17 15q1 46 -43 90zM650 213l4 8q49 -15 72 -53q24 -49 -8 -56q-16 0 -18 19q-1 18 -12 38q-11 21 -38 44zM324 180l8 8q44 -29 55 -66q10 -49 -21 -53q-14 3 -13 29q2 48 -29 82z" />
  </g>

</svg>
