<?xml version="1.0" standalone="no"?>
<!DOCTYPE svg PUBLIC "-//W3C//DTD SVG 1.1//EN" "http://www.w3.org/Graphics/SVG/1.1/DTD/svg11.dtd" >
<svg xmlns="http://www.w3.org/2000/svg" xmlns:xlink="http://www.w3.org/1999/xlink" version="1.1" viewBox="0 -200 1000 1000">
  <g transform="matrix(1 0 0 -1 0 800)">
   <path fill="currentColor"
d="M625 586l-15 27h162v161l58 -34l-16 -60v-66h98l37 32l47 -52h-182v-77h75l28 38l50 -45l-24 -30v-408q-3 -26 -19.5 -47.5t-36.5 -26.5q-2 27 -12.5 40.5t-41.5 24.5v8q10 -4 19 -4.5t17 -0.5h15q12 0 14 20v146h-84v-202q-12 -8 -23 -13.5t-19 -6.5v222h-81v-202
q-11 -14 -24 -21t-18 -7v542l53 -28h70v78h-110zM855 749q45 -17 63 -38.5t18 -44.5l-7 -2q-12 -23 -23 -23q-8 0 -9.5 10t-5 26t-13 35t-32.5 36l3 1h6zM814 387h84v112h-84v-112zM691 484v-97h81v111h-74zM691 253h81v115h-81v-115zM814 253h84v115h-84v-115zM479 739
q51 -17 78 -35t27 -53v-6q-1 -11 -5 -22t-12 -11q-6 0 -11.5 13t-14 32t-22.5 41t-38 40zM428 566q46 -17 72 -43.5t28 -53.5v-7q0 -20 -9 -28.5t-18 -8.5q-13 0 -16 13t-6.5 33.5t-13.5 45.5t-37 49l4 -8zM612 631q-22 -112 -39 -212t-37 -194q-2 -18 -5 -60t-3 -105
q0 -11 0.5 -21.5t0.5 -21.5q-5 -9 -13 -12.5t-17 -3.5q-19 0 -19 19q0 9 1 23.5t2.5 28.5t2.5 27t1 19q0 13 -2 23t-7.5 21t-14 24.5t-21.5 32.5q3 0 6 -0.5t5 -0.5h11q11 0 18.5 5.5t17 30t23.5 74t38 137.5l66 308l10 -2zM776 870h-128v-66q-8 -5 -18 -13t-25 -10v89h-83
l-55 -15l-24 34h162v112l61 -34l-18 -48v-28h128v109l61 -33l-17 -52v-25h76l40 37l57 -56h-173v-56q-5 -5 -15.5 -16.5t-28.5 -14.5v86zM56 880l60 -38l29 -1q19 45 29.5 87.5t12.5 71.5l63 -50l-23 -18l-60 -89h129l34 46l52 -53l-29 -36v-190h-248v-94h218l39 42l59 -64
h-316v-91h264l32 42l52 -52l-28 -32q-2 -80 -5 -145.5t-16.5 -112.5t-43 -75t-84.5 -34q1 1 1 9q0 12 -6.5 23t-16.5 20t-22 16.5t-23 13.5v10q7 -3 18 -6t24 -5t25.5 -3.5t21.5 -1.5q2 0 4.5 0.5t4.5 0.5q23 4 36.5 26t20 58t8.5 83.5t2 103.5v37h-318v501zM105 791v-56
h201v84h-194zM105 632h201v81h-201v-81zM23 138q11 22 16 41t5 43q0 11 -1 24.5t-4 29.5h6q20 -39 28.5 -62.5t8.5 -41.5q0 -16 -6 -32q-4 -14 -18 -23t-25 -9q-15 0 -15 13zM116 147q10 19 10 60q0 20 -2.5 39.5t-5.5 35.5h7q30 -45 36.5 -73t6.5 -44q0 -22 -10.5 -35
t-18.5 -13t-15.5 8.5t-7.5 21.5zM300 154q-3 12 -4.5 30t-4 38.5t-7 41.5t-13.5 39h7q13 -11 24 -25.5t19.5 -30t13.5 -30t5 -25.5v-6q-5 -19 -14 -29t-17 -10t-9 7zM225 138q-12 0 -14 35q-1 26 -3.5 59.5t-13.5 64.5h7q22 -32 40 -60.5t18 -57.5v-7q-1 -14 -12 -24
t-22 -10z" />
  </g>

</svg>
