<?xml version="1.0" standalone="no"?>
<!DOCTYPE svg PUBLIC "-//W3C//DTD SVG 1.1//EN" "http://www.w3.org/Graphics/SVG/1.1/DTD/svg11.dtd" >
<svg xmlns="http://www.w3.org/2000/svg" xmlns:xlink="http://www.w3.org/1999/xlink" version="1.1" viewBox="0 -205 1024 1024">
  <g transform="matrix(1 0 0 -1 0 819)">
   <path fill="currentColor"
d="M678 983l62 -24q17 -10 7 -15q-20 -3 -28 -12q-22 -25 -58 -75h179l21 33l42 -35q7 -6 5 -10q-1 -5 -11 -7l-14 -11v-163l5 -46q0 -29 -37 -36v25h-261v-97h298l22 32l58 -36q8 -6 7 -9q-2 -3 -13 -3h-372v-84h309l22 33l38 -28q9 -6 9 -11q0 -4 -9 -8l-16 -17v-69
q2 -132 -17 -178q-19 -49 -52 -74t-85 -35q-4 22 -26 28q-39 17 -100 32l2 14q104 -24 136 -25q50 0 78 46q30 43 28 170v106h-317v-10q2 -35 -41 -44q5 37 7 106v401q-3 24 -20 36l12 15l37 -41h50l23 42q28 45 26 54q-1 10 -12 19zM242 997l46 -26q15 -9 5 -13
q-8 2 -20 -6q-27 -39 -46 -57h184l21 25l42 -27q7 -6 5 -10q-1 -5 -11 -7l-10 -11v-159l5 -28q2 -31 -39 -36v31h-279q-1 -20 -13 -29t-28 -14q1 5 2 14q3 24 5 52v187q-3 20 -20 36l12 11l35 -35h69l11 16q26 55 25 61q-1 7 -9 20zM23 248h211q10 36 10 76h-108
q-27 1 -45 -13l-32 29h330l18 28l58 -34q8 -5 7 -8q-2 -2 -13 -2h-178q-2 -41 -11 -76h149l22 32l58 -42q8 -5 7 -8q-2 -2 -13 -2h-229q-7 -24 -17 -43q-62 -114 -235 -163l-2 12q66 25 127 72q61 45 85 103q3 9 6 19h-126q-27 1 -45 -13zM851 727h-261v-104h261v104z
M590 741h261v100h-261v-100zM145 819h279v60h-279v-60zM424 741h-279v-52h279v52zM424 805h-279v-50h279v50zM156 537l48 -24q17 -10 7 -15q-22 1 -30 -8q-1 -2 -3 -4q-1 -2 -5 -7q6 -2 20 -7l18 -6q42 -16 57 -39q15 -29 -9 -36q-9 0 -19 19q-10 20 -38 36q-21 12 -40 20
q-61 -73 -137 -117l-6 7q67 57 103 104t34 53t-8 17zM372 523l46 -22q17 -10 7 -15q-22 1 -30 -8l-16 -19q31 -8 62 -20q43 -18 58 -40q16 -28 -9 -35q-12 -1 -22 18q-10 20 -37 36q-24 15 -64 28q-52 -56 -102 -91l-6 7q111 117 113 137q-2 6 -8 17zM366 651l46 -22
q17 -10 7 -15q-22 1 -30 -8l-10 -12q30 -8 59 -20q44 -19 58 -42q14 -28 -13 -33q-13 0 -21 19q-8 20 -35 36q-22 14 -60 27q-55 -61 -108 -98l-6 7q111 117 113 137q-2 6 -8 17zM162 663l46 -22q17 -10 7 -15q-22 1 -28 -14q-3 -3 -5 -6q8 -2 24 -7q8 -3 12 -4
q38 -14 54 -37q16 -29 -8 -32q-12 1 -18 16t-33 32q-20 12 -41 20q-64 -72 -137 -111l-6 7q111 91 133 149q-2 6 -8 17zM279 173l2 11q105 -32 150 -73q24 -23 26 -45q1 -23 -20 -29q-15 -1 -23 23q-7 24 -39 52q-31 28 -96 61zM562 292q6 -110 -22 -142q-31 -39 -50 -11
q-5 11 13 23q17 12 28 40q12 29 18 90h13zM604 299l8 6q52 -65 44 -125q-3 -26 -21 -25t-14 25q4 23 2 50t-19 69zM684 315l6 8q45 -39 60 -81q14 -51 -14 -58q-15 0 -16 22q-1 23 -6 48q-4 25 -30 61zM768 339l6 8q45 -26 67 -68q22 -51 -3 -62q-13 -2 -22 32
q-15 61 -48 90z" />
  </g>

</svg>
