<?xml version="1.0" standalone="no"?>
<!DOCTYPE svg PUBLIC "-//W3C//DTD SVG 1.1//EN" "http://www.w3.org/Graphics/SVG/1.1/DTD/svg11.dtd" >
<svg xmlns="http://www.w3.org/2000/svg" xmlns:xlink="http://www.w3.org/1999/xlink" version="1.1" viewBox="0 -205 1024 1024">
  <g transform="matrix(1 0 0 -1 0 819)">
   <path fill="currentColor"
d="M195 994l78 -34q14 -5 6 -11q-18 -6 -27 -18v-96h135l32 40l68 -48q8 -6 6 -9q-1 -3 -12 -3h-229v-101h126l40 39l44 -47q7 -6 5 -10q-1 -5 -11 -7l-18 -9v-482l3 -130q-2 -18 -11 -25q-11 -6 -32 -8v78h-301v-59q0 -21 -9 -30q-11 -9 -38 -14q4 37 7 147v542
q2 16 -19 37l12 16l36 -38h126v227q2 15 -25 42zM398 694h-301v-561h301v561zM536 471l30 -32h276l39 37l45 -45q7 -6 5 -10q-1 -5 -11 -7l-19 -9v-233l7 -100q-1 -18 -14 -24q-12 -6 -33 -7v60h-282v-33q0 -21 -10 -30q-12 -9 -37 -14q4 37 7 123v275q-3 21 -17 38z
M579 270v-149h282v149h-282zM861 419h-282v-133h282v133zM722 916h169l20 34l42 -36q11 -9 8 -12q-2 -3 -19 -2h-92v-67q-2 -36 -5 -67h79l18 30l54 -36q7 -5 6 -8q-1 -2 -12 -2h-116q12 -68 20 -92q9 -29 23 -56q14 -28 30 -45q16 -18 58 -40l-2 -12q-26 2 -41 -1t-23 -13
q-22 27 -45 71q-18 36 -26 74q-9 35 -15 114h-9q-10 -77 -33 -135q-36 -84 -123 -139l-10 12q67 57 100 125q22 47 31 137h-21q-23 0 -41 -13l-34 29h97q3 29 4 63v71h-13q-27 1 -45 -13zM470 917h169l20 34l42 -36q11 -9 8 -12q-2 -3 -19 -2h-79v-66q-1 -41 -4 -77h23
l21 28l60 -34q7 -5 6 -8q-1 -2 -12 -2h-100q-3 -30 -9 -56q9 -5 26 -13q14 -6 38 -19q25 -16 43 -39q16 -24 19 -51q2 -28 -18 -30q-21 -3 -24 26q-4 27 -25 54q-19 22 -63 52q-4 -21 -14 -52q-31 -86 -111 -146l-10 12q57 60 86 131q18 48 26 131h-32q-27 0 -45 -13l-34 29
h113q3 34 5 73v70h-27q-27 1 -45 -13zM139 577l6 9q63 -57 109 -118v-1q22 53 32 83q15 45 13 55q-3 9 -10 18l5 7l63 -26q5 -8 -1 -8q-18 1 -27 -17q-24 -64 -57 -138q32 -48 53 -88q26 -52 33 -81q7 -30 -8 -36q-15 -9 -28 33q-15 41 -37 89q-3 5 -9 17q-12 22 -18 34
q-1 -1 -2 -4l-3 -6q-47 -100 -137 -196l-8 6q78 100 121 199q6 15 12 28q-8 14 -17 27q-39 56 -85 114zM197 640l4 8q28 -14 46 -35q14 -20 17 -41q3 -24 -11 -27q-15 -6 -17 18q-3 23 -9 39q-7 15 -30 38zM114 475l4 8q32 -15 47 -34q14 -20 17 -41q3 -24 -11 -28
q-15 -5 -17 19q-3 23 -9 39q-7 15 -31 37zM313 467l4 8q31 -15 46 -34q14 -20 17 -41q3 -24 -11 -28q-15 -6 -17 19q-3 23 -9 39q-7 15 -30 37zM221 280l4 8q31 -15 46 -34q14 -20 17 -41q3 -22 -11 -27q-15 -4 -17 18q-3 23 -9 39q-7 15 -30 37z" />
  </g>

</svg>
