<?xml version="1.0" standalone="no"?>
<!DOCTYPE svg PUBLIC "-//W3C//DTD SVG 1.1//EN" "http://www.w3.org/Graphics/SVG/1.1/DTD/svg11.dtd" >
<svg xmlns="http://www.w3.org/2000/svg" xmlns:xlink="http://www.w3.org/1999/xlink" version="1.1" viewBox="0 -205 1024 1024">
  <g transform="matrix(1 0 0 -1 0 819)">
   <path fill="currentColor"
d="M110 871l38 -33h343l24 36l62 -42q8 -6 7 -9q-2 -3 -13 -3h-168v-143h68l25 27l42 -31q7 -6 5 -10q-1 -5 -11 -7l-10 -9v-103l5 -44q-1 -28 -41 -39q-3 -1 -4 -1v39h-327v-12q-3 -160 -34 -275q-29 -102 -101 -180l-8 14q50 73 76 170q26 99 28 273v334q0 22 -16 38z
M750 954q2 -4 1 -6t-6 -2q-18 2 -31 -21q-16 -82 -45 -159h223l32 41l48 -40q9 -6 9 -11q0 -4 -9 -8l-20 -13v-325q-14 -205 -32 -254q-18 -47 -45 -74t-105 -51q3 37 -45 51q-20 8 -79 23l4 16q106 -18 124 -18q18 -1 41 2t47 32q24 26 46 251v358h-63q-9 -279 -89 -441
q-82 -164 -246 -265l-8 16q156 117 225 280q67 161 74 410h-54q-30 -238 -91 -344q-62 -107 -140 -161l-8 12q74 73 123 179q48 105 74 314h-44l-7 -17q-40 -94 -114 -166l-8 10q53 74 84 159q32 85 46 149q14 65 9 76q-4 11 -14 26l8 6zM413 448q28 -7 20 -15
q-22 -4 -33 -18v-87h57l20 30l46 -34q8 -6 7 -9q-2 -3 -13 -3h-117v-162q44 26 128 83l12 -12q-50 -47 -102 -83q-42 -38 -47 -48q-1 -3 -5 -10q-5 -11 -8 -18l-46 46q20 8 30 25v288q-1 24 -24 35l7 11zM235 436q22 -3 16 -11q-16 -4 -27 -18v-79h49l20 26l46 -30
q8 -6 7 -9q-2 -3 -13 -3h-109v-178q54 26 108 58l6 -14q-26 -25 -90 -72q-22 -20 -28 -30q-6 -11 -14 -30l-50 48q20 8 30 25v300q-1 24 -24 35l7 11zM155 661v-146h94v146h-94zM155 820v-143h94v143h-94zM367 661h-82v-146h82v146zM367 820h-82v-143h82v143zM403 515h79
v146h-79v-146zM243 968l4 13q81 -23 110 -65q25 -51 -11 -57q-18 0 -21 22q-3 23 -26 45q-23 23 -56 42z" />
  </g>

</svg>
