<?xml version="1.0" standalone="no"?>
<!DOCTYPE svg PUBLIC "-//W3C//DTD SVG 1.1//EN" "http://www.w3.org/Graphics/SVG/1.1/DTD/svg11.dtd" >
<svg xmlns="http://www.w3.org/2000/svg" xmlns:xlink="http://www.w3.org/1999/xlink" version="1.1" viewBox="0 0 2048 2048">
  <g transform="matrix(1 0 0 -1 0 2048)">
   <path fill="currentColor"
d="M586 872l117 -73h341v21q-2 39 -4 59q-3 58 -7 99l141 -31q50 -11 45 -38q-3 -18 -30 -29l-48 -19v-62h367l61 73l72 -50q37 -26 41 -44q5 -20 -25 -37l-40 -21v-255q2 -38 4 -57q4 -27 4 -39q0 -17 -12 -29q-22 -22 -57 -25q-37 -3 -37 28v34h-378v-28q0 -73 48 -96
q24 -11 123 -21.5t152 -7.5l91 5q167 8 241 27q28 8 44 10q40 6 60 -24q21 -31 17 -50q-7 -33 -134 -46q-140 -14 -284 -14q-193 0 -323 21q-132 21 -132 163v61h-358v-30q0 -38 -55 -42q-51 -4 -53 34q-1 16 0 37q8 112 8 211v285zM686 433h358v128h-358v-128zM1141 561
v-128h378v128h-378zM686 615h358v126h-358v-126zM1141 741v-126h378v126h-378zM920 1962q86 -32 128 -54q79 -40 79 -96q0 -30 -24 -53h623l98 106l129 -100q21 -17 23 -36q4 -27 -23 -27h-1629v-581q0 -69 -5 -177q-10 -293 -62 -494q-46 -180 -166 -366l-31 22
q167 357 167 978v566l-4 60q-5 88 -9 134l119 -85h708q-44 107 -140 176zM1533 1421v-228q10 -180 10 -181q4 -38 4 -70q0 -50 -60 -53q-49 -3 -49 50v482h-90q-67 0 -149 -11l-39 86q115 -17 188 -17h90v33q0 118 -8 160l109 -24q83 -19 86 -44q3 -30 -49 -44l-43 -11v-70
h163l80 81l114 -87q21 -16 15 -33q-5 -19 -25 -19h-347zM1646 1365l137 -30q32 -7 34 -27q2 -18 -25 -30l-44 -19v-152q0 -39 61 -39q32 0 96 12q28 5 48 -15q27 -27 23 -51q-7 -40 -148 -40q-102 0 -135 16q-38 17 -38 87v163l-2 36q-4 63 -7 89zM1221 1369l133 -26
q28 -5 31 -27q3 -19 -31 -34l-35 -15q-7 -118 -41 -174q-35 -57 -113 -113l-21 25q55 60 70 123q17 74 7 241zM800 1421v-216q10 -180 10 -181q4 -39 4 -70q0 -50 -60 -53q-49 -3 -49 50v470h-121q-66 0 -148 -11l-39 86q115 -17 187 -17h121v33q0 118 -7 160l109 -24
q82 -19 85 -44q3 -30 -49 -44l-43 -11v-70h127l80 81l114 -87q21 -16 16 -33q-6 -19 -26 -19h-311zM882 1365l137 -29q32 -7 34 -27q2 -19 -25 -30l-43 -20v-106q0 -40 43 -34l48 6q31 4 49 -14q27 -27 23 -51q-7 -40 -129 -39q-83 2 -107 27q-20 21 -20 75v118
q0 50 -10 124zM484 1361l133 -25q28 -6 32 -27q3 -19 -32 -34l-35 -16q-10 -151 -43 -209q-39 -69 -132 -138l-22 28q67 74 88 158q21 81 11 263z" />
  </g>

</svg>
