<?xml version="1.0" standalone="no"?>
<!DOCTYPE svg PUBLIC "-//W3C//DTD SVG 1.1//EN" "http://www.w3.org/Graphics/SVG/1.1/DTD/svg11.dtd" >
<svg xmlns="http://www.w3.org/2000/svg" xmlns:xlink="http://www.w3.org/1999/xlink" version="1.1" viewBox="0 -205 1024 1024">
  <g transform="matrix(1 0 0 -1 0 819)">
   <path fill="currentColor"
d="M138 919l42 -41h697l32 40l68 -48q8 -6 7 -9q-2 -3 -13 -3h-781v-391q-2 -106 -31 -224q-29 -116 -137 -219l-8 14q88 100 110 223q23 126 24 223v375q0 24 -22 48zM382 379l35 -30h249l25 27l53 -35q9 -9 -7 -14l-17 -14v-169q-1 -53 18 -63q21 -11 124 -9q56 0 72 14
q16 13 13 68l3 84h15l7 -76q-8 -47 20 -69q-17 -41 -46 -47q-28 -6 -120 -8t-119 20t-31 68v205h-246v-82q-20 -132 -94 -178q-74 -47 -160 -59l-4 14q88 30 145 71q57 40 71 164v76q-10 20 -20 28zM704 822l83 -36q14 -5 6 -11q-21 -7 -28 -21v-52h84l28 34l62 -42
q8 -5 7 -8q-2 -2 -13 -2h-131q26 -52 40 -73q25 -40 62 -73q26 -21 83 -37v-14q-51 7 -64 -20q-48 38 -69 65t-39 63q-16 33 -36 89h-14v-223l2 -9q3 -36 -49 -44q5 37 7 100v176h-14q-19 -60 -44 -100q-47 -77 -157 -129l-12 10q59 44 84 70q26 26 49 65q21 36 33 84h-20
q-27 1 -45 -13l-34 31h160v62q0 16 -30 46zM346 820l85 -36q14 -5 6 -11q-21 -7 -30 -21v-56h68l28 36l62 -44q8 -5 7 -8q-2 -2 -13 -2h-152v-45q32 -10 54 -21q40 -16 55 -49q14 -39 -14 -44q-16 0 -23 21t-31 43q-16 14 -41 29v-91l2 -71q2 -34 -49 -44q5 38 7 114v158
h-16q-17 -53 -34 -95q-37 -95 -105 -142l-8 12q51 56 84 149q14 37 20 76h-20q-27 1 -45 -13l-34 31h158v66q2 16 -30 46zM439 996l4 13q111 -33 132 -68q29 -47 -9 -55q-18 -1 -24 18t-30 43t-73 49z" />
  </g>

</svg>
