<?xml version="1.0" standalone="no"?>
<!DOCTYPE svg PUBLIC "-//W3C//DTD SVG 1.1//EN" "http://www.w3.org/Graphics/SVG/1.1/DTD/svg11.dtd" >
<svg xmlns="http://www.w3.org/2000/svg" xmlns:xlink="http://www.w3.org/1999/xlink" version="1.1" viewBox="0 -205 1024 1024">
  <g transform="matrix(1 0 0 -1 0 819)">
   <path fill="currentColor"
d="M678 567l77 -32q14 -5 6 -11q-21 -9 -30 -21v-26h156l29 36l64 -46q7 -5 6 -8q-1 -2 -12 -2h-243v-65h136l23 29l47 -35q7 -7 5 -11q-1 -5 -11 -7l-16 -11v-72l4 -27q-1 -18 -12 -24q-12 -6 -29 -7v34h-112q22 -36 58 -72q39 -39 86 -65q42 -24 99 -27v-14q-23 1 -38 -3
q-16 -3 -34 -20q-39 21 -77 52q-42 36 -67 66q-27 33 -49 83h-13v-155l2 -41q0 -21 -10 -30q-11 -9 -35 -14q4 37 7 76v128q-24 -30 -63 -63q-59 -46 -113 -76q-55 -29 -139 -54l-2 14q68 29 123 62q58 37 103 77q42 39 66 76h-118v-9q0 -21 -9 -30q-10 -9 -34 -14
q4 36 7 74v97q-3 20 -17 38l9 8l34 -33h153v65h-162q-27 0 -45 -13l-34 33h241v36q1 15 -26 42zM676 995l77 -32q14 -5 6 -11q-21 -9 -30 -21v-39h169l28 37l64 -47q7 -5 6 -8q-1 -2 -12 -2h-255v-59h140l23 29l46 -32q11 -7 1 -13l-22 -14v-58l4 -27q-1 -18 -12 -24
q-12 -6 -29 -7v36h-151v-17q81 -16 129 -33q54 -21 87 -40q31 -19 34 -39q2 -20 -13 -26t-39 23q-26 27 -73 53q-44 23 -125 45v-10l2 -42q0 -21 -10 -30q-11 -9 -35 -14q4 36 7 77v32q-30 -33 -67 -60q-51 -36 -103 -61q-53 -26 -104 -35l-2 12q50 20 96 47q45 27 87 61
q39 33 60 57h-110v-1q0 -21 -9 -30q-10 -9 -34 -14q4 36 7 74v73q-2 15 -16 33l9 8l33 -33h153v59h-176q-27 0 -45 -13l-34 33h255v49q1 15 -26 42zM359 996l60 -42q9 -9 9 -14t-9 -6q-30 7 -75 -8q-5 -1 -14 -4q-17 -5 -47 -13v-95h86l25 36l64 -44q7 -5 6 -8q-1 -2 -12 -2
h-169v-45q55 -15 92 -33q44 -23 62 -44t19 -42q0 -20 -13 -26q-14 -6 -32 25q-17 29 -54 60q-29 21 -74 42v-31l2 -50q0 -21 -11 -31q-12 -9 -34 -10q4 40 7 88v62q-80 -117 -216 -185l-8 10q137 98 199 210h-107q-27 0 -45 -13l-34 31h211v87q-93 -12 -183 -10v15
q197 20 277 61q8 6 11 27zM247 426q-2 22 -26 46l8 11l78 -32q10 -5 11 -8q2 -3 -4 -6q-18 -6 -31 -16v-134q13 15 43 52q5 5 7 8q33 39 33 47q-2 7 -8 16l8 8l59 -40q7 -6 7 -9q0 -4 -7 -5q-21 3 -33 -6q-14 -9 -41 -35q-24 -24 -52 -45q45 -17 76 -35q42 -24 58 -47
t16 -41q0 -15 -14 -21q-14 -5 -29 23q-13 27 -50 60q-29 24 -73 49v-142q-1 -46 -12 -64q-12 -18 -54 -24q-6 27 -27 34q-7 2 -25 7q-28 8 -46 13l4 16l41 -8q52 -12 67 -4t16 53v106l-51 -28q-81 -42 -97 -55q-16 -12 -20 -29l-46 42l214 88v155zM231 606l68 -24q7 -5 6 -8
q0 -3 -8 -5q-21 -1 -28 -12l-9 -12q63 -17 102 -35q51 -24 72 -44q21 -21 24 -40q3 -21 -12 -27q-15 -8 -36 25q-21 32 -67 60q-38 23 -94 46q-38 -47 -86 -86q-66 -53 -139 -89l-4 12q72 53 118 96q42 42 71 79q28 36 25 42q0 1 -2 2q-1 2 -8 14zM731 281h147v90h-147v-90z
M695 371h-143v-90h143v90zM729 723h151v70h-151v-70zM693 793h-143v-70h143v70zM106 396q36 -9 60 -24q26 -15 38 -34t10 -37t-17 -22t-21 21q-6 24 -22 45q-17 20 -52 42z" />
  </g>

</svg>
