<?xml version="1.0" standalone="no"?>
<!DOCTYPE svg PUBLIC "-//W3C//DTD SVG 1.1//EN" "http://www.w3.org/Graphics/SVG/1.1/DTD/svg11.dtd" >
<svg xmlns="http://www.w3.org/2000/svg" xmlns:xlink="http://www.w3.org/1999/xlink" version="1.1" viewBox="0 -205 1024 1024">
  <g transform="matrix(1 0 0 -1 0 819)">
   <path fill="currentColor"
d="M85 950l33 -35h303l27 31l40 -39q7 -4 6 -7q0 -4 -8 -6l-18 -9v-203l5 -54q3 -26 -45 -36v43h-129v-123h108l20 36l68 -46q4 -5 2 -8q-1 -2 -8 -2h-190v-112l201 31l4 -16l-172 -36q-150 -30 -181 -38t-59 -34l-34 56l199 30v119h-115q-27 1 -45 -13l-34 33h194v123h-132
v-15q2 -34 -47 -44q5 37 7 124v203q-3 20 -12 36zM592 705l49 -42h142l19 31l55 -35q5 -9 -7 -14l-17 -12v-473q1 -48 50 -38q22 -6 44 4t25 58l7 141h13l7 -133q0 -42 24 -52q-16 -42 -48 -53q-31 -11 -112 -5q-55 14 -54 71v490h-136v-140q0 -193 -67 -297
q-67 -100 -203 -158l-4 14q128 79 179 175q51 98 51 280v134q-4 21 -26 45zM257 899h-132v-248h132v248zM299 651h129v248h-129v-248zM577 945q2 -25 3 -46h315l29 31l60 -54q2 -5 -1 -7q-2 -2 -9 0q-27 -4 -49 -29l-10 -10q-17 -17 -62 -83l-13 8l58 124h-318q0 -13 -1 -23
q-1 -48 -31 -81q-33 -33 -53 -9q-10 15 12 35q23 20 38 52t17 92h15zM122 253q-1 -13 -1 -40q-1 -26 -1 -40q-1 -43 -11 -68q-25 -49 -56 -23q-9 14 11 34t26 50q6 32 15 87h17zM398 313l4 12q75 -48 86 -80q24 -56 -9 -66q-18 -2 -21 25q-3 28 -16 50q-12 23 -44 59z
M206 267l12 6q26 -58 31 -86t-2 -51q-7 -26 -26 -21q-19 3 -14 31q1 3 2 9q16 59 -3 112zM301 282l7 9q60 -43 71 -88q14 -53 -21 -59q-14 1 -13 24q1 24 -11 55q-12 32 -33 59zM350 835l56 -18q17 -10 7 -15q-12 -3 -24 -10q-17 -55 -47 -109l-15 5l11 37q22 71 19 81
q-3 11 -15 22zM138 827l8 8q46 -31 66 -87q12 -46 -20 -53q-12 0 -12 25q1 50 -42 107z" />
  </g>

</svg>
