<?xml version="1.0" standalone="no"?>
<!DOCTYPE svg PUBLIC "-//W3C//DTD SVG 1.1//EN" "http://www.w3.org/Graphics/SVG/1.1/DTD/svg11.dtd" >
<svg xmlns="http://www.w3.org/2000/svg" xmlns:xlink="http://www.w3.org/1999/xlink" version="1.1" viewBox="0 0 2048 2048">
  <g transform="matrix(1 0 0 -1 0 2048)">
   <path fill="currentColor"
d="M972 112l-29 19q94 186 123 464q25 239 25 594v492q0 54 -7 230l112 -74h621l69 78l84 -55q39 -25 39 -48q0 -27 -77 -61v-192l42 -36q11 -9 14 -21q4 -25 -18 -25h-782v-288q0 -387 -41 -636q-43 -262 -175 -441zM1188 1783v-250h649v250h-649zM1725 1244v-220
q0 -50 17 -63q15 -13 56 -10q37 3 49 24q6 11 30 162l42 -4q-1 -35 -2 -53q-2 -32 -2 -41q0 -52 31 -77q33 -27 33 -49q0 -56 -193 -55q-156 2 -155 139l2 247h-113q-21 -178 -82 -266q-66 -96 -195 -163l-25 38q187 124 197 390h-26q-60 0 -135 -10l-39 86q118 -19 167 -19
h381l80 83l110 -95q22 -18 19 -30q-4 -14 -25 -14h-222zM1639 736l60 71l70 -49q37 -27 41 -44q5 -20 -25 -37q-6 -4 -13 -7q-9 -5 -26 -14l-1 -346q0 -84 76 -74q47 6 60 65q16 71 27 158l42 -11q-13 -84 -13 -139q1 -38 8 -52q2 -3 27 -29q11 -11 11 -26q0 -66 -180 -62
q-97 2 -125 32q-33 36 -33 119v387h-195q-17 -253 -60 -346q-59 -129 -223 -235l-23 32q108 89 152 192q70 164 47 494l106 -79h190zM711 1572q-83 -196 -118 -250l-32 13q51 167 82 345l117 -53q21 -9 18 -27q-2 -13 -18 -17zM282 1653q129 -135 141 -234q5 -45 -18 -72
q-20 -25 -45 -15q-23 10 -32 93q-9 97 -71 207zM154 1891l108 -64h503l61 72l73 -50q36 -24 41 -43q5 -20 -25 -38q-6 -3 -13 -6q-9 -5 -26 -15v-419q0 -47 6 -104q4 -27 4 -43q0 -42 -57 -49q-48 -7 -48 24l1 37h-233v-230h145l80 80l113 -85q22 -17 16 -34q-5 -19 -33 -19
h-321v-228h199l80 81l114 -86q21 -16 15 -34q-6 -19 -26 -19h-639q-114 0 -192 -8l-38 88q94 -22 230 -22h163v228h-105q-110 0 -192 -8l-39 88q95 -22 231 -22h105v230h-207v-24q0 -27 -45 -30q-66 -5 -60 51l3 41q7 98 7 104zM782 1769h-233v-520h233v520zM248 1249h207
v520h-207v-520zM212 526l40 -3v-16q0 -370 -143 -393q-25 -4 -42.5 10.5t-17.5 38.5q0 28 41 61q71 55 92 127q14 45 30 175zM358 526q109 -175 116 -267q3 -42 -16 -69q-17 -26 -50 -25q-50 2 -44 60q1 9 4 27q3 20 3 28q0 96 -45 235zM562 536q154 -178 154 -278
q0 -72 -55 -72q-46 0 -49 65q-5 126 -80 265zM756 549q181 -162 192 -268q7 -73 -49 -80q-34 -4 -49 34q-5 13 -16 78q-17 93 -107 215z" />
  </g>

</svg>
