<?xml version="1.0" standalone="no"?>
<!DOCTYPE svg PUBLIC "-//W3C//DTD SVG 1.1//EN" "http://www.w3.org/Graphics/SVG/1.1/DTD/svg11.dtd" >
<svg xmlns="http://www.w3.org/2000/svg" xmlns:xlink="http://www.w3.org/1999/xlink" version="1.1" viewBox="0 -205 1024 1024">
  <g transform="matrix(1 0 0 -1 0 819)">
   <path fill="currentColor"
d="M136 405l27 -26h219v82h-205q-2 -7 -8 -11q-10 -9 -33 -14q5 35 7 72v66q2 14 -9 31l12 10l24 -26h647l21 25l42 -25q7 -6 5 -10q-1 -5 -11 -7l-14 -13v-62l3 -25q0 -30 -41 -31v20h-213v-82h210l25 27l38 -31q7 -6 5 -10q-1 -5 -11 -7l-10 -9v-146l3 -32q-1 -27 -41 -29
v22h-219v-92q24 -1 53 -1q143 1 186 7q66 4 70 46q8 39 12 115h13l2 -75q2 -51 21 -66q-16 -44 -73 -51q-34 -5 -219 -6q-142 0 -230 6q-62 5 -62 67v54h-211v-17q4 -35 -45 -42q1 7 2 19q4 30 5 43v199q2 14 -9 25zM424 573v-437q0 -48 15 -53q15 -6 58 -8q23 -2 70 -3v501
h-143zM238 825l31 -27h304l25 28l39 -30q5 -4 5 -7q0 -2 -6 -6l-18 -12v-34l3 -45q0 -29 -39 -29v24h-303q-1 -20 -11 -29t-32 -14q0 3 1 8q4 29 6 62v70q-4 18 -15 30zM228 993l66 -26q15 -7 8 -16q-19 0 -32 -16q-5 -8 -14 -23q-11 -18 -17 -26h571l18 31l42 -26
q9 -6 9 -11q0 -4 -9 -8l-12 -13v-59q2 -31 -4 -84q-6 -52 -36 -72t-90 -32q2 22 -16 31q-26 8 -64 13l2 14q64 -9 110 -9q45 14 51 45q7 32 5 72v92h-588q-80 -116 -155 -157l-6 9q75 79 120 151t44 85q0 14 -10 27zM279 701h303v83h-303v-83zM609 477h213v96h-213v-96z
M181 573v-95v-1h201v96h-201zM828 265h-219v-85h219v85zM609 279h219v84h-219v-84zM382 363h-211v-84h211v84zM382 265h-211v-81h211v81z" />
  </g>

</svg>
