<?xml version="1.0" standalone="no"?>
<!DOCTYPE svg PUBLIC "-//W3C//DTD SVG 1.1//EN" "http://www.w3.org/Graphics/SVG/1.1/DTD/svg11.dtd" >
<svg xmlns="http://www.w3.org/2000/svg" xmlns:xlink="http://www.w3.org/1999/xlink" version="1.1" viewBox="0 -205 1024 1024">
  <g transform="matrix(1 0 0 -1 0 819)">
   <path fill="currentColor"
d="M145 520l28 -28h655l15 21l40 -23q11 -12 -6 -17l-10 -9v-59l4 -19q-6 -16 -38 -20v21h-234v-62h231l13 21l38 -23q12 -10 0 -17l-12 -9v-101l4 -31q-1 -27 -38 -29v24h-236v-100q17 -1 57 -1q37 -1 57 -1q122 1 166 7q67 4 71 46q8 41 12 140h13l2 -99q1 -52 23 -67
q-2 -2 -5 -6q-26 -39 -61 -43q-26 -4 -209 -6q-156 0 -253 6q-62 3 -62 65v63h-246v-15q3 -38 -42 -45q1 11 4 31q3 21 4 30v157q2 16 -8 23l11 10l25 -24h252v61h-235q-1 -4 -9 -12q-9 -9 -31 -14q5 24 7 55v64q2 16 -9 25zM681 1016l56 -28q17 -10 7 -15q-20 3 -34 -6
q-56 -54 -92 -85h220l29 40l62 -46q8 -5 7 -8q-2 -2 -13 -2h-308v-85h173l25 27l42 -33q11 -4 -6 -13l-12 -9v-175l4 -13q-1 -30 -42 -31v18h-580q-1 -10 -9 -14q-9 -6 -35 -11q1 4 2 11q3 14 5 33v201q2 12 -17 27l14 10l35 -28h194q7 31 8 85h-251q-27 1 -46 -13l-32 29
h507l30 37q55 66 53 74q-1 3 -2 9q-2 5 -2 7zM448 478v-355q0 -48 15 -53q15 -6 65 -8q5 -1 17 -1q10 -1 16 -1v418h-113zM583 731v36h-144q-5 -16 -11 -27q-22 -35 -76 -56q-49 -20 -132 -28v-24h579v45q-3 -1 -9 -1q-6 -1 -9 -1q-130 -1 -171 5q-25 8 -27 51zM799 620
h-579v-54h579v54zM599 478v-77h234v77h-234zM176 478v-72h234v72h-234zM410 243h-246v-65h246v65zM410 317h-246v-62h246v62zM835 237h-236v-63h236v63zM599 249h236v62h-236v-62zM615 767v-17q0 -37 7 -43q8 -6 40 -7h137v67h-184zM220 767v-95q72 14 115 33q48 23 65 51
q1 2 2 5l3 6h-185zM443 781h140v85h-133q-1 -52 -7 -85zM283 992l4 12q120 -22 145 -63q20 -42 -10 -49q-15 -1 -22 20q-6 20 -34 39q-27 19 -83 41z" />
  </g>

</svg>
