<?xml version="1.0" standalone="no"?>
<!DOCTYPE svg PUBLIC "-//W3C//DTD SVG 1.1//EN" "http://www.w3.org/Graphics/SVG/1.1/DTD/svg11.dtd" >
<svg xmlns="http://www.w3.org/2000/svg" xmlns:xlink="http://www.w3.org/1999/xlink" version="1.1" viewBox="0 -205 1024 1024">
  <g transform="matrix(1 0 0 -1 0 819)">
   <path fill="currentColor"
d="M155 473l42 -37h584l25 29l48 -33q7 -6 5 -10q-1 -5 -11 -7l-16 -9v-256l5 -84q3 -27 -49 -36v51h-581v-25q3 -36 -51 -44q5 37 7 112v298q-3 24 -20 40zM207 99h581v321h-581v-321zM688 991l78 -30q14 -5 6 -11q-16 -4 -27 -18v-73h128l28 40l62 -48q8 -3 7 -4
q-2 -2 -13 -2h-212v-98h75l28 31l50 -36q7 -4 7 -6q0 -3 -7 -4q-24 -6 -40 -29q-31 -46 -81 -98q-11 -13 -25 -25q41 -28 81 -44q42 -17 68 -20q26 -2 62 -2v-17q-59 -3 -70 -30q-63 17 -126 57q-6 4 -17 12q-6 4 -27 20q-35 -25 -80 -48q-82 -41 -186 -50l-4 12
q96 21 169 63q41 23 72 48q-20 19 -38 40q-47 53 -74 112h-12q-17 -3 -28 -14l-31 28h192v98h-145q-27 1 -45 -13l-32 27h222v83q2 16 -23 38zM116 782l25 -24h266l21 27l44 -29q7 -4 5 -7q-1 -4 -11 -6l-10 -13v-50l3 -15q0 -33 -41 -33v28h-269v-7q2 -35 -45 -44q1 5 2 14
q3 24 5 52v76q2 12 -7 21zM554 382q4 -4 3 -6q0 -2 -5 -3q-13 -4 -32 -15q-3 -26 -9 -49h134l26 36l64 -40q8 -5 7 -8q-2 -2 -13 -2h-223q-3 -10 -7 -20q70 -18 116 -41q69 -35 97 -67q27 -32 -2 -44q-16 -6 -36 24q-20 27 -68 57q-43 27 -115 55q-1 -2 -3 -5q-1 -1 -1 -2
q-60 -98 -245 -136l-6 11q104 33 150 69q47 35 66 73q6 14 11 26h-131q-27 1 -45 -13l-32 27h213q0 1 1 4q4 11 6 24q5 29 1 38q-3 9 -14 22l8 8zM254 1009l74 -30q14 -5 6 -11q-16 -4 -27 -18v-43h136l22 34l56 -38q8 -5 7 -8q-2 -2 -13 -2h-208v-66h100l22 34l56 -38
q8 -5 7 -8q-2 -2 -13 -2h-313q-27 1 -45 -13l-32 27h180v66h-147q-27 1 -45 -13l-32 27h224v53q2 16 -23 38zM149 674h269v70h-269v-70zM668 653q25 -27 52 -50q14 12 24 24q50 51 78 106h-220q29 -42 66 -80zM317 522q-172 -30 -197 -39q-24 -9 -30 -25l-44 42l255 38
q15 26 30 53q16 30 14 36q-2 7 -10 14l7 8l56 -23q6 -4 6 -8t-7 -6q-17 0 -23 -9q-24 -31 -50 -61l194 29l6 -13zM160 634l6 7q68 -28 69 -76q2 -23 -16 -25q-16 -2 -18 17q-1 19 -9 35q-8 17 -32 42z" />
  </g>

</svg>
