<?xml version="1.0" standalone="no"?>
<!DOCTYPE svg PUBLIC "-//W3C//DTD SVG 1.1//EN" "http://www.w3.org/Graphics/SVG/1.1/DTD/svg11.dtd" >
<svg xmlns="http://www.w3.org/2000/svg" xmlns:xlink="http://www.w3.org/1999/xlink" version="1.1" viewBox="0 -205 1024 1024">
  <g transform="matrix(1 0 0 -1 0 819)">
   <path fill="currentColor"
d="M59 568q3 22 -21 43l9 9l75 -38q8 -2 10 -5t-3 -7q-20 -4 -32 -18v-124h311v129q2 17 -24 36l9 12l77 -26q14 -5 6 -11q-21 -7 -30 -21v-353l4 -68q1 -35 -42 -46v58l-298 -32l-31 -42l-48 42q24 14 28 34v428zM630 497l38 -40h199l37 39l46 -45q7 -6 5 -10q-1 -5 -11 -7
l-18 -9v-299l3 -41q-1 -32 -43 -33v80h-209v-51q3 -36 -47 -44q5 38 7 130v279q2 14 -19 35zM408 412h-311v-280l311 21v259zM677 150h209v289h-209v-289zM881 977l59 -44q9 -9 9 -14t-9 -6q-24 12 -68 -6q-102 -26 -159 -37q-53 -10 -128 -18v-186h300l32 40l68 -50
q8 -6 7 -8q-2 -3 -13 -2h-394v-102q-1 -183 -32 -303q-31 -117 -121 -217l-10 10q84 119 102 240q18 123 20 292v291q0 24 -22 48l12 12l47 -48q77 14 140 30q25 8 62 19q93 20 91 57zM243 989l80 -34q14 -5 6 -11q-16 -4 -27 -18v-79h78l24 36l60 -40q8 -6 7 -9
q-2 -3 -13 -3h-156v-118h120l24 32l60 -42q8 -5 7 -8q-2 -2 -13 -2h-411q-27 1 -45 -13l-34 33h104v143q2 17 -25 42l8 11l76 -34q14 -5 6 -11q-16 -4 -27 -18v-133h108v223q2 17 -25 42zM292 370l56 -14q8 -9 -3 -13q-8 1 -20 -13q-6 -25 -14 -47q20 -9 33 -18
q25 -18 35 -49q8 -34 -12 -34q-8 2 -17 25q-8 25 -17 36q-10 13 -27 26q-25 -68 -65 -110l-10 5q69 125 68 182q-4 10 -10 17zM292 642l54 -14q8 -9 -3 -13q-6 1 -18 -13q-2 -5 -4 -14q-3 -10 -10 -30l15 -9q14 -9 21 -13q45 -34 38 -68q-4 -16 -15 -14q-10 2 -15 22
q-4 20 -18 38q-12 15 -30 31q-28 -72 -66 -103l-10 5q41 58 56 110q17 52 12 61q-4 10 -10 17zM168 374l54 -12q17 -9 7 -13q-8 -3 -22 -14q-6 -21 -12 -40q14 -7 26 -18q21 -13 26 -39q4 -31 -14 -32q-10 2 -13 22q-1 20 -12 33q-7 10 -18 22q-28 -74 -71 -124l-8 5
q76 145 67 185q-6 10 -12 19zM164 646l54 -12q17 -9 7 -13q-8 -3 -22 -14q-6 -21 -14 -41q17 -6 29 -17q20 -13 25 -39q4 -31 -13 -32q-9 2 -13 22q-3 20 -13 33q-7 11 -19 21q-29 -72 -70 -116l-8 5q74 130 67 178q-6 10 -12 19z" />
  </g>

</svg>
