<?xml version="1.0" standalone="no"?>
<!DOCTYPE svg PUBLIC "-//W3C//DTD SVG 1.1//EN" "http://www.w3.org/Graphics/SVG/1.1/DTD/svg11.dtd" >
<svg xmlns="http://www.w3.org/2000/svg" xmlns:xlink="http://www.w3.org/1999/xlink" version="1.1" viewBox="0 -205 1024 1024">
  <g transform="matrix(1 0 0 -1 0 819)">
   <path fill="currentColor"
d="M566 565q0 19 -19 34l5 7l71 -34q11 -1 11 -6q0 -1 -12 -8q-20 -12 -24 -16v-138h319v149q0 18 -26 38l9 12l73 -30q9 -3 9 -7q0 -1 -12 -9q-18 -12 -21 -16v-380l4 -81q1 -34 -36 -44v44h-304l-33 -34l-38 32q20 14 24 34v453zM917 388h-319v-288h319v288zM258 1003
l72 -34q9 -3 9 -7q0 -1 -8 -6q-17 -9 -22 -16v-51h130l20 28l52 -34q7 -4 7 -7t-9 -3h-200v-73h156l25 24l41 -39q2 -3 2 -6q0 -2 -3 -2q-4 0 -7 1q-29 -2 -47 -25l-22 -27l-11 8l22 48h-338v-156q0 -177 -3 -239q-3 -81 -13 -139q-18 -116 -86 -221l-8 8q52 100 64 209
q7 57 10 145q2 76 2 261v140q0 24 -16 36l12 12l31 -38h155v152q0 16 -25 40zM732 983l70 -34q9 -3 9 -7q0 -1 -9 -7q-16 -10 -19 -15v-73h104l20 28l56 -32q7 -4 7 -8t-13 -4h-174v-130h132l20 28l56 -38q7 -4 7 -7t-13 -3h-397q-22 0 -41 -13l-34 33h92v133q0 16 -25 40
l8 11l66 -32q9 -4 9 -9q0 -1 -9 -7q-16 -10 -19 -15v-121h114v231q0 16 -25 40zM482 324v-221q6 -51 -63 -63q-4 29 -56 40q-7 1 -11 2l2 15q53 -9 66 -9h11q18 -4 17 62v185h-261v-212l4 -37q2 -38 -45 -46q7 62 7 128v177q-3 13 -12 25l10 9l29 -28h258l18 27l40 -22
q9 -6 9 -11t-9 -8zM194 515l25 -28h180l17 23l42 -29q1 -2 1 -4q0 -6 -7 -9l-12 -11v-20l2 -27q-1 -24 -36 -25v20h-179q-2 -22 -41 -27q5 25 7 56v44q-3 22 -13 28zM313 749q7 -3 7 -6q0 -1 -5 -5q-10 -7 -20 -15v-33l71 9l14 27l48 -21q10 -6 10 -9t-20 -5l-123 -16v-11
q-1 -50 39 -50q23 0 93 4q33 7 30 94h11l2 -34q0 -34 17 -44q-11 -28 -37 -36q-23 -9 -90 -9h-31q-62 -1 -64 59v24l-63 -8q-27 -5 -37 -20l-29 26l129 16v46q-3 22 -16 26l8 10zM367 321l43 -20q9 -6 9 -10t-4 -5h-4q-19 0 -64 -62q-9 -13 -12 -16h35l18 25l41 -30
q3 -1 3 -3q0 -3 -11 -3h-96l2 -75q3 -37 -37 -44v4q6 45 7 70v45h-27q-22 0 -41 -13l-28 24h114l17 24q33 52 33 62t-6 22zM804 362l54 -24q10 -6 10 -9t-3 -4q-25 -6 -37 -47l-6 -18q62 -35 65 -84q0 -23 -15 -23h-4q-12 2 -14 22q-2 41 -37 74q-28 -74 -66 -112l-10 5
q65 124 71 186q0 5 -2 9l-12 17zM814 646l54 -18q10 -6 10 -9t-3 -4q-25 -6 -38 -48l-6 -18q60 -33 65 -85q0 -24 -15 -24h-3q-12 2 -14 22q-2 42 -37 75q-28 -73 -66 -113l-10 5q64 124 71 188q0 5 -8 16l-6 9zM227 421h179v50h-179v-50zM666 370l54 -24q10 -6 10 -9t-3 -4
q-24 -6 -37 -49q-4 -13 -6 -20q55 -20 59 -65q0 -22 -15 -22h-2q-11 2 -14 22q-3 32 -32 55q-25 -66 -61 -104l-10 4q61 115 65 181q0 6 -2 10l-12 17zM682 656l52 -18q10 -6 10 -9t-3 -4q-24 -6 -34 -42q-2 -9 -4 -14q53 -20 56 -64q0 -23 -15 -23h-2q-5 1 -15 25
q-15 37 -28 50q-27 -73 -66 -117l-10 5q61 116 65 183q0 18 -9 21q-1 0 -2 -1zM140 556h271l25 28l57 -34q6 -4 6 -7t-6 -3h-274q-27 1 -45 -17zM215 306l4 10q88 -26 82 -69q-1 -19 -14 -20h-1q-9 1 -16 18q-15 39 -55 61z" />
  </g>

</svg>
