<?xml version="1.0" standalone="no"?>
<!DOCTYPE svg PUBLIC "-//W3C//DTD SVG 1.1//EN" "http://www.w3.org/Graphics/SVG/1.1/DTD/svg11.dtd" >
<svg xmlns="http://www.w3.org/2000/svg" xmlns:xlink="http://www.w3.org/1999/xlink" version="1.1" viewBox="0 0 2048 2048">
  <g transform="matrix(1 0 0 -1 0 2048)">
   <path fill="currentColor"
d="M1461 1213l-45 -165h284l61 71l77 -49q36 -24 41 -44t-25 -37q-6 -4 -13 -7q-9 -4 -27 -14v-764l80 76l104 -90q20 -18 15 -33q-5 -19 -25 -19h-884q-75 0 -150 -8l-38 88q95 -23 173 -23h13v807q-3 70 -8 130l117 -84h109l42 165h-129q-118 0 -192 -8l-38 88
q98 -23 230 -23h140q21 90 32 161l142 -38q27 -7 30 -24q5 -26 -31 -36l-54 -15l-14 -48h202l89 90l123 -95q21 -16 15 -34q-5 -18 -25 -18h-421zM1199 195h521v157h-521v-157zM1199 406h521v155h-521v-155zM1199 615h521v160h-521v-160zM1199 834h521v160h-521v-160z
M626 1394l74 -16q43 -10 39 -38q-3 -19 -31 -23l-40 -4q-10 -50 -25 -109l-5 -22q9 -8 27 -22q108 -85 99 -171q-2 -19 -18 -32.5t-32 -8.5q-22 6 -35 70q-12 58 -53 122q-31 -90 -114 -223l-34 24q98 183 120 453h-196l59 -16q42 -12 39 -34q-4 -20 -35 -27l-32 -7
q-19 -57 -35 -114q91 -65 106 -126q8 -33 -14 -58q-15 -17 -32 -11q-15 5 -35 80q-5 21 -40 64q-31 -88 -114 -224l-31 20q106 244 112 453h-120q-62 0 -140 -11l-36 86q82 -13 187 -19v171q0 111 -7 161l95 -24q65 -17 69 -44q4 -26 -48 -43l-21 -6v-215h172v317
q-5 145 -8 160l97 -24q67 -16 71 -43t-49 -43l-22 -6v-113h129l75 81l106 -86q21 -17 16 -34q-6 -19 -25 -19h-301v-190l183 -1l83 87l105 -90q19 -16 15 -33q-6 -19 -24 -19h-326zM130 1279l104 -26q59 -15 63 -42q4 -26 -47 -42l-23 -7v-952h573v902q0 120 -7 159l98 -23
q66 -16 70 -44q4 -25 -48 -42l-22 -7v-860q0 -63 4 -94q6 -65 0 -79q-12 -28 -50 -28q-46 0 -46 26l1 31h-573q-19 -22 -53 -18q-38 4 -38 48v938q0 124 -6 160zM284 780l-37 87q119 -19 176 -19h149l75 81l106 -87q20 -16 16 -34q-5 -16 -31 -16h-315q-54 0 -139 -12z
M399 552q90 -63 105 -125q7 -28 -9 -51.5t-37 -17.5q-19 5 -28 48q-8 36 -47 93q-45 -143 -106 -240l-32 17q79 187 96 466l113 -23q44 -9 40 -38q-3 -19 -32 -22l-39 -4q-12 -56 -24 -103zM631 520q57 -45 82 -69q59 -54 59 -113q0 -21 -11 -38q-15 -22 -40 -20
q-29 4 -36 61q-4 39 -66 137q-35 -94 -115 -223l-29 15q91 211 108 470l109 -25q42 -10 39 -37q-2 -20 -31 -23l-39 -4q-10 -43 -14 -65q-9 -41 -16 -66zM1030 1879l115 -60l644 1l68 76l84 -54q40 -26 40 -48t-29 -39q-6 -4 -13 -7q-12 -6 -34 -18v-165q0 -41 3 -72
q4 -34 4 -42q0 -38 -53 -43q-43 -5 -48 26l-2 20h-683v-29q-1 -27 -45 -31q-66 -5 -60 51l4 42q6 96 6 104zM1644 1510h165v252h-165v-252zM1381 1510h167v252h-167v-252zM1126 1510h163v252h-163v-252z" />
  </g>

</svg>
