<?xml version="1.0" standalone="no"?>
<!DOCTYPE svg PUBLIC "-//W3C//DTD SVG 1.1//EN" "http://www.w3.org/Graphics/SVG/1.1/DTD/svg11.dtd" >
<svg xmlns="http://www.w3.org/2000/svg" xmlns:xlink="http://www.w3.org/1999/xlink" version="1.1" viewBox="0 -205 1024 1024">
  <g transform="matrix(1 0 0 -1 0 819)">
   <path fill="currentColor"
d="M69 584q3 22 -21 43l9 9l67 -38q8 -2 10 -5t-3 -7q-20 -4 -32 -18v-144h287v155q6 8 -22 32l9 12l67 -22q14 -5 6 -11q-21 -7 -30 -21v-382l4 -81q2 -38 -34 -46v79l-274 -49l-35 -40l-36 42q24 14 28 34v458zM386 408h-287v-294l287 40v254zM479 771l32 -31h374l21 23
l38 -27q7 -6 5 -10q-1 -5 -11 -7l-12 -9v-70l4 -53q-1 -30 -38 -31v24h-375q-2 -15 -8 -17q-7 -3 -33 -8q5 25 7 76v101q-3 21 -13 31zM579 214l6 12q114 -45 115 -133q-2 -22 -19 -23t-20 31q-3 30 -20 55q-10 -6 -28 -17q-25 -16 -35 -21q-40 -24 -52 -37t-22 -35l-46 43
q19 8 26 25v371q-3 20 -14 33l9 8l26 -20h142l27 25l36 -27q7 -6 6 -11q0 -4 -8 -6l-16 -11v-156l4 -45q-1 -30 -36 -31v46h-140v-169q75 30 109 52q-18 22 -50 41zM231 1003l70 -34q14 -5 6 -11q-17 -4 -25 -18v-81h66l20 30l56 -34q8 -6 7 -9q-2 -3 -13 -3h-136v-122h90
l20 28l56 -36q8 -5 7 -8q-2 -2 -13 -2h-349q-27 1 -45 -13l-34 31h98v151q2 17 -25 42l8 11l66 -32q14 -7 6 -13q-17 -4 -25 -18v-141h106v229q2 17 -25 42zM858 494q-1 29 -24 47l8 12l72 -29q12 -5 14 -10q2 -4 -6 -7q-16 -2 -30 -13v-93h28l22 28l48 -32q8 -5 7 -8
q-2 -2 -13 -2h-92v-280q2 -64 -71 -74q1 34 -96 56l2 12l19 -3q62 -14 85 -14t27 39v264h-71q-27 1 -45 -13l-32 27h148v93zM785 596h107v128h-107v-128zM755 724h-106v-128h106v128zM877 1003l57 -40q9 -9 9 -14t-9 -6q-34 11 -62 0q-239 -42 -436 -40v13q118 9 230 24
q113 16 144 22q57 7 60 39zM619 724h-102v-128h102v128zM660 394h-140v-88h140v88zM520 408h140v82h-140v-82zM283 641l52 -14q5 -9 -3 -13q-6 1 -18 -13q-6 -24 -14 -45q20 -10 33 -21q24 -15 34 -47q8 -38 -12 -35q-10 2 -16 23q-5 21 -17 39q-10 14 -26 28
q-27 -73 -68 -114l-6 5q67 118 68 183q-4 10 -10 17zM281 377l52 -14q8 -9 -3 -13q-6 1 -18 -13q-6 -24 -14 -45q20 -10 33 -21q24 -15 33 -46q9 -38 -10 -35q-7 2 -16 26t-17 35q-10 14 -27 28q-27 -73 -68 -113l-6 5q67 116 68 182q-4 10 -10 17zM167 653l52 -12
q17 -9 7 -13q-8 -3 -22 -14l-12 -39q13 -8 25 -19q20 -13 26 -40q4 -30 -13 -31q-10 2 -13 22q-2 20 -13 33q-7 11 -17 21q-27 -73 -69 -124l-8 5q76 147 67 186q-6 10 -12 19zM165 381l52 -12q17 -9 7 -13q-8 -3 -22 -14l-12 -39q13 -8 25 -19q20 -13 26 -40q4 -30 -13 -31
q-10 2 -13 22q-2 20 -13 33q-7 11 -17 21q-27 -73 -69 -123l-8 5q76 145 67 185q-6 10 -12 19zM897 920l54 -32q15 -9 7 -15q-13 3 -27 -3q-45 -49 -104 -104l-12 8l42 55q43 56 43 63q0 9 -12 20zM723 322l6 8q81 -55 81 -116q0 -27 -20 -30t-20 27q4 59 -47 111zM469 879
l6 10q77 -33 83 -93q2 -26 -17 -28q-19 -1 -20 21q0 24 -15 48q-14 24 -37 42zM649 892l6 10q46 -15 70 -59q23 -52 -8 -61q-19 -1 -19 21q1 24 -14 48q-14 24 -35 41z" />
  </g>

</svg>
