<?xml version="1.0" standalone="no"?>
<!DOCTYPE svg PUBLIC "-//W3C//DTD SVG 1.1//EN" "http://www.w3.org/Graphics/SVG/1.1/DTD/svg11.dtd" >
<svg xmlns="http://www.w3.org/2000/svg" xmlns:xlink="http://www.w3.org/1999/xlink" version="1.1" viewBox="0 -205 1024 1024">
  <g transform="matrix(1 0 0 -1 0 819)">
   <path fill="currentColor"
d="M392 741l50 -26q16 -12 7 -15q-22 1 -30 -8q-29 -29 -57 -63h419l19 30l44 -26q7 -6 5 -10q-1 -5 -11 -7l-10 -13v-82l4 -23q-2 -18 -14 -24q-13 -6 -28 -7v26h-196v-77h203l17 26l42 -25q12 -12 -4 -19l-12 -11v-231l4 -21q-2 -19 -11 -25q-10 -6 -27 -7v39h-212v-86h44
q213 0 262 3q49 4 58 31q6 76 8 136h11l6 -76q1 -52 31 -67q-19 -27 -34 -36q-15 -8 -43 -14q-20 -5 -286 -5q-90 -1 -153 8q-83 7 -79 112v16h-3h-96v-39l4 -23q-1 -14 -10 -20t-26 -7v28h-124q-27 2 -46 -13l-30 25h200v49h-179q-27 -3 -45 -9l-30 21h254v54h-117
q-18 1 -38 -14l-32 26h183l17 21l27 -19q9 -6 9 -10q0 -3 -9 -4l-8 -12v-42h42l20 21l37 -24v196h-98v-27l4 -23q-1 -18 -10 -24t-26 -7v18h-124q-27 0 -46 -13l-30 25h200v51h-174q-27 0 -45 -13l-30 25h249v53h-125q-18 1 -39 -14l-31 26h191l17 23l27 -19q10 -6 9 -11
t-13 -9l-4 -10v-39h49l15 22l34 -23v118h-196q-1 -11 -9 -17q-10 -9 -36 -15q2 12 5 34q1 7 2 10v104q-3 16 -13 34l9 8l29 -27h129l28 42q3 5 8 13q12 20 15 27q2 8 -7 23zM557 536l33 -27h200v106h-567v-101h181l25 31l50 -39q7 -4 5 -8q-1 -3 -11 -5l-18 -9v-340
q0 -55 18 -67q17 -12 57 -17q12 -2 28 -2v437q-1 23 -10 33zM806 402h-212v-248h212v248zM1008 714v-15q-36 -1 -54 -7t-28 -21q-60 6 -127 24q-69 17 -150 69q-77 45 -137 147q-34 -85 -93 -126q-73 -51 -163 -77q-90 -27 -233 -36l-2 11q166 27 249 62q86 35 141 86
q54 51 71 128q-2 24 -17 34l8 9l73 -24q18 -7 8 -13q-15 1 -28 -14q-1 -4 -4 -13q-2 -5 -3 -7q60 -83 114 -122q46 30 96 68q41 31 45 43q3 10 -4 19l8 6l52 -37q7 -6 7 -9q0 -4 -7 -5q-17 3 -29 -6q-13 -9 -58 -36q-39 -24 -94 -52q6 -4 12 -7q67 -37 115 -49t91 -19
q42 -8 69 -8q26 -1 72 -3zM599 350l2 9q45 -15 84 -35q3 -2 11 -7q4 -4 7 -6q23 30 37 51q3 6 -1 21h7l33 -19q10 -6 11 -10q2 -3 -6 -5q-12 0 -21 -4q-20 -26 -41 -50q8 -7 22 -22q10 -11 14 -14q19 -23 22 -41q2 -19 -12 -21q-15 -3 -23 24q-8 21 -40 55q-57 -59 -99 -82
l-6 7q52 49 88 91q-2 2 -5 4l-3 3q-34 24 -81 51zM297 951h13q-5 -50 -20 -77t-33 -41q-18 -15 -40 -18q-23 -4 -32 14q-10 18 14 25q24 6 54 27t44 70z" />
  </g>

</svg>
