<?xml version="1.0" standalone="no"?>
<!DOCTYPE svg PUBLIC "-//W3C//DTD SVG 1.1//EN" "http://www.w3.org/Graphics/SVG/1.1/DTD/svg11.dtd" >
<svg xmlns="http://www.w3.org/2000/svg" xmlns:xlink="http://www.w3.org/1999/xlink" version="1.1" viewBox="0 0 2048 2048">
  <g transform="matrix(1 0 0 -1 0 2048)">
   <path fill="currentColor"
d="M1540 459q85 -48 87 -83q2 -22 -14 -37q-14 -13 -32 -10q-24 5 -82 71q-6 6 -21 16q-10 -5 -61 -32q-52 -28 -121 -52l-17 26q78 43 139 94q0 1 -124 56l10 25q92 -21 155 -42q41 41 73 94l89 -46q28 -14 25 -30q-2 -15 -25 -15l-39 1q-15 -12 -22 -19q-13 -12 -20 -17z
M613 1192l111 -41q23 -8 23 -23q0 -21 -27 -22l-36 -2l-16 -12h526l55 50l111 -62q20 -11 17 -27q-2 -16 -26 -20l-72 -10l-94 -48h464l59 58l60 -35q32 -20 40 -37q10 -24 -30 -44l-27 -14v-51l27 -14q21 -11 19 -29q-2 -15 -21 -15h-551v-152h468l57 58l50 -30
q51 -32 56 -43q10 -23 -36 -48l-28 -14v-236l28 -22q12 -10 16 -15q6 -10 0.5 -20t-16.5 -10h-822v-20q0 -37 27.5 -47t141.5 -15q160 -8 449 0q182 4 230 22q40 14 54 88l25 126l33 -8l-5 -119q-2 -52 34 -89q13 -14 16 -20q14 -44 -71 -62q-51 -10 -189 -14
q-126 -4 -233 -4l-268 2q-193 3 -231 11q-103 24 -103 107v42h-195l-1 -41l23 -13q29 -17 26 -32q-2 -15 -28 -15h-301q-41 0 -164 -8l-40 77q126 -19 184 -19h211v51h-336l-95 -3q-39 0 -79 -4l-36 80q33 -4 49 -6q104 -15 152 -15h345v50h-173q-109 0 -182 -10l-40 76
q82 -16 234 -16h157l47 48l50 -28q46 -26 48 -44q2 -16 -20 -29l-31 -18v-29h195v277h-195l-1 -42l19 -15q15 -12 17 -25q3 -18 -28 -19h-273q-46 -1 -179 -16l-53 84q52 -7 129 -11l98 -7h181v51h-298q-126 0 -199 -7l-41 72q173 -14 240 -14h298v50h-173q-106 0 -182 -11
l-40 77q91 -16 234 -16h157l47 48l50 -28q45 -25 48 -44q2 -17 -20 -29l-31 -19v-28h195v156h-398v-12q0 -21 -50 -25q-42 -3 -42 18v167q-64 -31 -191 -73l-16 37q276 113 402 282zM1225 314h476v277h-476v-277zM998 314h135v277h-135v-277zM998 642h135v294h-135v-294z
M1225 924v-79h434v79h-434zM908 848v76h-398v-76h398zM1094 975l70 65l-555 1q-50 -28 -109 -59l24 -7h570zM1353 1438l112 -54h209l49 61l73 -50q35 -24 41 -43q6 -21 -19 -30q-19 -7 -34 -17l1 -38q19 -17 28 -22q13 -6 14 -14q5 -30 -15 -30h-363q-8 -45 -61 -45
q-35 0 -35 25v257zM1449 1254h242v72h-242v-72zM789 1438l112 -54h208l54 61l72 -50q36 -25 41 -43q6 -21 -20 -33q-1 -1 -20 -8q-9 -3 -17 -6l1 -38q19 -17 29 -22q12 -6 14 -14q5 -30 -16 -30h-363v-15q0 -49 -60 -49q-35 0 -35 25v276zM884 1254h242v72h-242v-72z
M244 1438l111 -54h202l53 65l72 -50q37 -25 41 -43q7 -30 -57 -51l1 -38q19 -17 29 -22q12 -6 14 -14q5 -30 -16 -30h-355v-7q0 -49 -61 -49q-34 0 -34 25v268zM339 1254h234v72h-234v-72zM1065 1709v-48l4 -59l3 -64l2 -23q2 -38 -35 -49q-67 -19 -67 47v196h-698
q2 -74 -19 -132q-36 -99 -106 -99q-54 0 -54 46q0 31 41 62q44 33 63 70q20 39 36 159h38l1 -48l698 -1v68h-501q-57 0 -149 -11l-38 85q122 -17 187 -17l1073 1l87 80l120 -86q22 -15 16 -34q-6 -18 -26 -18h-676v-67h722l58 66l89 -69q35 -28 36 -45q2 -21 -36 -29
l-50 -10q-28 -46 -136 -151l-26 18q30 59 70 162h-727zM1577 1699l57 -56q42 -42 31 -59q-7 -10 -20 -9q-16 0 -38 9l-33 13q-24 -2 -96 -12q-77 -10 -276 -13l1 35q230 29 374 92zM1193 1544q131 6 164 6q314 0 345 -66q7 -15 -0.5 -30.5t-23.5 -18.5q-22 -3 -79 15
q-166 54 -404 64zM392 1681q189 14 217 11q135 -17 154 -21q46 -9 58 -44q5 -17 -6 -31q-11 -15 -29 -17q-24 -2 -110 29q-88 33 -283 42zM850 1553l2 -32q-126 -24 -200 -32q-137 -15 -212 -26q-10 -43 -30 -42q-18 1 -34 45l-24 67q257 1 498 20z" />
  </g>

</svg>
