<?xml version="1.0" standalone="no"?>
<!DOCTYPE svg PUBLIC "-//W3C//DTD SVG 1.1//EN" "http://www.w3.org/Graphics/SVG/1.1/DTD/svg11.dtd" >
<svg xmlns="http://www.w3.org/2000/svg" xmlns:xlink="http://www.w3.org/1999/xlink" version="1.1" viewBox="0 -410 2048 2048">
  <g transform="matrix(1 0 0 -1 0 1638)">
   <path fill="currentColor"
d="M92 1715l-38 88q95 -23 230 -23h1468l98 100l121 -106q17 -16 17 -26q0 -26 -28 -26h-1116q-6 -65 -17 -204q-17 -193 -42 -315h770l68 76l84 -54q40 -27 40 -49q0 -27 -78 -61q-9 -324 -77 -628q-41 -185 -90 -262q-57 -92 -132 -132q-49 -26 -123 -41q-11 65 -55 87
q-57 29 -211 71l8 42q205 -54 271 -54q107 0 149 73q126 211 157 878h-793q-87 -375 -184 -555q-148 -276 -502 -535l-25 32q380 322 516 713q133 380 164 918h-458q-115 0 -192 -7z" />
  </g>

</svg>
