<?xml version="1.0" standalone="no"?>
<!DOCTYPE svg PUBLIC "-//W3C//DTD SVG 1.1//EN" "http://www.w3.org/Graphics/SVG/1.1/DTD/svg11.dtd" >
<svg xmlns="http://www.w3.org/2000/svg" xmlns:xlink="http://www.w3.org/1999/xlink" version="1.1" viewBox="0 -204 1024 1024">
  <g transform="matrix(1 0 0 -1 0 820)">
   <path fill="currentColor"
d="M168 848l58 -30h260v70q0 55 -4 80q59 -7 96 -20q14 -5 14 -16q0 -9 -14 -12q-20 -8 -42 -10v-92h260l26 30q54 -30 54 -44q0 -10 -28 -26v-128q11 -9 21 -18q7 -4 7 -8q0 -14 -10 -14h-330v-106h322l30 32q50 -31 50 -44q0 -9 -28 -28v-144q16 -9 28 -19q4 -3 4 -9
q0 -16 -6 -16h-400v-172q0 -23 2 -30q2 -16 2 -28q0 -32 -32 -32q-26 0 -26 14q0 23 2 57q2 33 2 61v130h-326v-6q0 -9 -14 -15q-15 -7 -22 -7q-12 0 -12 14v270l52 -28h322v106h-272v-4q0 -9 -10 -16q-17 -6 -26 -6q-10 0 -10 14v250zM214 636h272v152h-272v-152zM536 788
v-152h264v152h-264zM160 306h326v172h-324l-2 -4v-168zM536 478v-172h326v172h-326z" />
  </g>

</svg>
