<?xml version="1.0" standalone="no"?>
<!DOCTYPE svg PUBLIC "-//W3C//DTD SVG 1.1//EN" "http://www.w3.org/Graphics/SVG/1.1/DTD/svg11.dtd" >
<svg xmlns="http://www.w3.org/2000/svg" xmlns:xlink="http://www.w3.org/1999/xlink" version="1.1" viewBox="0 -204 1024 1024">
  <g transform="matrix(1 0 0 -1 0 820)">
   <path fill="currentColor"
d="M46 734q44 -14 118 -14h132v101q0 97 -8 139q50 -4 90 -15q8 -2 8 -13q0 -9 -10 -16q-16 -6 -34 -10v-186h322v160q0 54 -6 80q59 -5 96 -20q14 -7 14 -16t-14 -11q-20 -9 -42 -11v-182h124l48 58q38 -30 70 -58q10 -5 10 -12q0 -14 -18 -14h-234v-322h142l52 62
q40 -31 75 -61q9 -5 9 -13q0 -14 -14 -14h-264v-238q0 -21 2 -30q2 -16 2 -28q0 -32 -34 -32q-24 0 -24 14q0 23 4 56q2 34 2 60v198h-347q-15 -66 -38 -114q-31 -61 -84 -119q-55 -55 -137 -103l-16 14q82 55 126 107q41 53 68 109q20 41 35 106h-129q-69 -1 -96 -4l-18 44
q43 -14 114 -14h137q1 2 1 3q16 88 16 191v128h-132q-72 -1 -96 -4zM664 372v322h-322v-128q0 -106 -16 -193v-1h338zM420 636q41 -22 73 -48q35 -21 58 -44q23 -20 32 -38q9 -15 9 -28q0 -18 -5 -27q-8 -9 -21 -9q-11 0 -17 4q-9 5 -15 28q-10 25 -28 53q-19 24 -40 47
q-22 25 -58 50z" />
  </g>

</svg>
