<?xml version="1.0" standalone="no"?>
<!DOCTYPE svg PUBLIC "-//W3C//DTD SVG 1.1//EN" "http://www.w3.org/Graphics/SVG/1.1/DTD/svg11.dtd" >
<svg xmlns="http://www.w3.org/2000/svg" xmlns:xlink="http://www.w3.org/1999/xlink" version="1.1" viewBox="0 -200 1000 1000">
  <g transform="matrix(1 0 0 -1 0 800)">
   <path fill="currentColor"
d="M300 505l46 -29l-35 -14l-62 -86l152 7q-6 16 -16.5 37t-32.5 37l2 -1q107 -53 107 -99v-4q-5 -41 -24 -41q-12 0 -18 18l-14 42q-60 -11 -109 -23t-94 -24l-26 51l54 -2q6 0 17 38t26 93h-150l-11 -34v-471q-4 -11 -19 -21t-37 -12v602l66 -40h170q-6 3 -9.5 17
t-11.5 32.5t-24 39t-46 36.5l1 4q48 -11 78.5 -28.5t51.5 -39.5l110 88h-279l-54 -14l-29 37h263q10 12 27 31t36.5 43.5t38.5 54t33 62.5l62 -54l-33 -15l-145 -122h87l48 40l63 -67l-55 -16q-29 -6 -66.5 -26t-99.5 -51q0 -2 0.5 -3t0.5 -3q0 -11 -6 -24.5t-12 -21.5h165
l27 45l70 -45l-30 -43v-428q-2 -23 -9 -36.5t-18.5 -22.5t-27 -15.5t-34.5 -14.5q-3 34 -31.5 53t-79.5 33v15q28 -11 50 -16t38 -5q22 0 37.5 8t19.5 23v425h-199zM650 973l73 -34l-18 -78v-720q0 -42 12 -66t47 -24q2 0 4.5 0.5t13.5 0.5q8 0 21.5 -0.5t34.5 -1.5
q14 0 26.5 4t22 18t15 40t5.5 70q0 14 1 29.5t1 33.5q0 9 -0.5 18.5t-1.5 19.5l16 -3q0 -74 3.5 -117.5t9 -67t12.5 -31.5t13.5 -10t12 -3.5t8.5 -12.5q-7 -22 -32 -29t-70 -7h-119q-43 0 -64.5 7.5t-31 24t-11 42.5t-4.5 62v835zM253 863q35 -20 60.5 -46t25.5 -50v-7
q-18 -37 -33 -37q-10 0 -19 14q0 51 -11.5 81t-34.5 43l-139 -16q100 -46 100 -87q0 -10 -4 -17.5t-9.5 -13t-11 -8t-7.5 -2.5q-12 0 -16 13t-9 32.5t-15.5 41t-35.5 38.5l-45 2v8q167 31 281 63t171 58l50 -66l-54 -5q-66 -6 -124.5 -19t-119.5 -20zM165 295h197l34 34
l59 -44l-33 -20l-67 -63q22 -12 38 -21.5t26.5 -19.5t16 -21.5t6.5 -27.5q0 -12 -6.5 -18t-15.5 -6q-11 0 -20 5.5t-19.5 15.5t-25 24.5t-36.5 31.5q-22 -15 -39.5 -24.5t-34 -15.5t-33 -10.5t-37.5 -9.5l-15 -3q43 24 74.5 46.5t52.5 45.5q-20 14 -37 26.5t-44 30.5l1 3
l103 -37l49 56h-130l-40 -7z" />
  </g>

</svg>
