<?xml version="1.0" standalone="no"?>
<!DOCTYPE svg PUBLIC "-//W3C//DTD SVG 1.1//EN" "http://www.w3.org/Graphics/SVG/1.1/DTD/svg11.dtd" >
<svg xmlns="http://www.w3.org/2000/svg" xmlns:xlink="http://www.w3.org/1999/xlink" version="1.1" viewBox="0 -410 2048 2048">
  <g transform="matrix(1 0 0 -1 0 1638)">
   <path fill="currentColor"
d="M1678 1360l68 76l84 -54q40 -26 40 -49q0 -27 -77 -61v-509l37 -33q17 -16 17 -26q0 -23 -17 -23h-559v-455h493l95 114l131 -118q17 -16 17 -27q0 -27 -31 -27h-1698q-117 0 -192 -8l-38 88q96 -22 230 -22h444v455h-423q-25 -8 -41 -8q-21 0 -21 22v731l118 -66h367
v394h-398q-109 0 -191 -8l-39 88q97 -23 230 -23h1398l71 102l121 -89q36 -26 36 -44q0 -26 -33 -26h-649v-394h410zM816 654v-428h360v461q-3 88 -16 138l119 -86h417v565h-438q-16 -24 -63 -24q-27 0 -27 32v442h-352v-378l40 -27q14 -9 14 -24q0 -21 -14 -21h-525v-565
h375l62 75l72 -57q43 -34 43 -48q0 -22 -67 -55z" />
  </g>

</svg>
