<?xml version="1.0" standalone="no"?>
<!DOCTYPE svg PUBLIC "-//W3C//DTD SVG 1.1//EN" "http://www.w3.org/Graphics/SVG/1.1/DTD/svg11.dtd" >
<svg xmlns="http://www.w3.org/2000/svg" xmlns:xlink="http://www.w3.org/1999/xlink" version="1.1" viewBox="0 -120 1000 1000">
  <g transform="matrix(1 0 0 -1 0 880)">
   <path fill="currentColor"
d="M35 439q110 201 167 513l86 -24q13 -3 13 -13q0 -13 -23 -19l-15 -3q-27 -100 -64 -193l18 -4q20 -4 20 -13t-18 -18l-10 -4v-595l-58 -11v536q-43 -86 -99 -164zM314 58l4 825l69 -32h428l22 44l70 -44q16 -10 16 -21q0 -10 -17 -15l-21 -6v-731l-60 -13v46h-448v-42z
M377 138h448l1 207h-113q-53 0 -65 15q-9 12 -9 30v433h-94l-2 -182q-1 -77 -7 -140q-10 -93 -87 -162q-28 -25 -72 -54v-147zM377 823v-515q56 44 83 107q26 62 27 184l2 224h-112zM696 823v-404q0 -12 3 -15q5 -4 19 -4l108 1v422h-130z" />
  </g>

</svg>
