<?xml version="1.0" standalone="no"?>
<!DOCTYPE svg PUBLIC "-//W3C//DTD SVG 1.1//EN" "http://www.w3.org/Graphics/SVG/1.1/DTD/svg11.dtd" >
<svg xmlns="http://www.w3.org/2000/svg" xmlns:xlink="http://www.w3.org/1999/xlink" version="1.1" viewBox="0 -204 1024 1024">
  <g transform="matrix(1 0 0 -1 0 820)">
   <path fill="currentColor"
d="M266 960q50 -16 86 -35q6 -6 6 -11q0 -9 -18 -12q-24 -4 -34 -4q-32 -84 -73 -161q-10 -22 -20 -39q43 -20 43 -30q0 -9 -34 -22v-530q0 -31 5 -48q3 -12 3 -22q0 -30 -34 -32q-22 0 -22 14v607q-10 -17 -21 -30q-48 -59 -111 -119l-14 10q57 67 97 124q32 50 61 114
q30 60 53 114q17 52 27 112zM496 960q49 -16 85 -35q7 -6 7 -11q0 -9 -21 -12q-21 -4 -31 -4q-22 -62 -47 -116h359l50 58q40 -28 77 -57q7 -6 7 -13q0 -18 -14 -18h-340v-198h202l50 56q38 -30 70 -56q8 -7 8 -14q0 -14 -16 -14h-314v-202h202l50 56q38 -27 70 -56
q8 -5 8 -10q0 -16 -16 -16h-314v-194q0 -23 2 -30q2 -16 2 -28q0 -32 -34 -32q-24 0 -24 14q0 23 4 57q2 33 2 61v606h-103l-2 -4q-32 -66 -66 -122q-37 -52 -91 -108l-16 12q47 59 80 115q25 47 48 103q26 57 42 109q14 48 24 103z" />
  </g>

</svg>
