<?xml version="1.0" standalone="no"?>
<!DOCTYPE svg PUBLIC "-//W3C//DTD SVG 1.1//EN" "http://www.w3.org/Graphics/SVG/1.1/DTD/svg11.dtd" >
<svg xmlns="http://www.w3.org/2000/svg" xmlns:xlink="http://www.w3.org/1999/xlink" version="1.1" viewBox="0 -204 1024 1024">
  <g transform="matrix(1 0 0 -1 0 820)">
   <path fill="currentColor"
d="M245 960q52 -18 90 -35q6 -7 6 -13q0 -11 -19 -15q-22 -3 -32 -3q-30 -93 -68 -176q-5 -12 -10 -21q47 -21 47 -31t-32 -23v-511q0 -32 4 -47q1 -14 1 -23q0 -32 -39 -34q-17 0 -17 18q0 29 1 36q2 17 2 36v505q0 2 -1 7q-16 -30 -32 -56q-43 -64 -103 -130l-19 12
q53 71 90 134q29 55 58 122q27 67 47 126q17 56 26 122zM870 898l34 42q37 -23 55 -43q7 -7 7 -13q0 -9 -39 -32v-724q0 -35 -13 -52q-11 -16 -31 -25q-18 -12 -31 -12q-4 23 -15 36q-14 15 -30 20q-28 11 -63 13v26q65 -15 118 -15q11 0 14 5q4 6 4 26v224h-220v-236
q0 -23 2 -31v-29q0 -34 -31 -34q-26 0 -26 18q0 20 3 54q4 34 4 60v198h-198v-343q0 -12 -16 -12q-9 0 -25 6q-12 9 -12 25q0 18 3 47q4 23 4 100v672q0 41 -7 72l62 -43h447zM414 870v-220h198v220h-198zM414 622v-220h198v220h-198zM660 870v-220h220v220h-220zM660 622
v-220h220v220h-220z" />
  </g>

</svg>
