<?xml version="1.0" standalone="no"?>
<!DOCTYPE svg PUBLIC "-//W3C//DTD SVG 1.1//EN" "http://www.w3.org/Graphics/SVG/1.1/DTD/svg11.dtd" >
<svg xmlns="http://www.w3.org/2000/svg" xmlns:xlink="http://www.w3.org/1999/xlink" version="1.1" viewBox="0 -204 1024 1024">
  <g transform="matrix(1 0 0 -1 0 820)">
   <path fill="currentColor"
d="M258 960q50 -16 86 -35q6 -6 6 -11q0 -9 -18 -12q-24 -4 -34 -4q-31 -93 -70 -177q-12 -25 -23 -49q47 -19 47 -30t-34 -26v-500q0 -31 5 -48q3 -12 3 -22q0 -30 -36 -32q-20 0 -20 14v585q-10 -20 -20 -35q-46 -62 -108 -130l-14 12q56 71 94 133q31 56 59 121
q30 68 50 125q19 57 27 121zM870 884q-64 -15 -136 -28q-85 -16 -174 -25q-74 -5 -184 -9l-8 22q58 4 127 13q62 8 122 18q65 13 109 27q45 11 77 24q22 12 45 24q40 -27 70 -51q6 -4 6 -11q0 -12 -18 -12q-12 0 -36 8zM364 788q48 -34 76 -69q26 -22 39 -51q13 -18 13 -36
q0 -11 -8 -22q-9 -12 -16 -12q-9 0 -16 5q-10 9 -10 21q-11 58 -29 86q-19 31 -63 72zM588 810q22 -23 42 -49q20 -20 34 -43q14 -19 18 -35t4 -29q0 -21 -4 -33q-9 -11 -24 -11q-6 0 -10 6q-5 3 -8 26q-4 27 -14 55q-12 25 -24 48q-10 25 -32 51zM898 826q45 -16 80 -34
q4 -5 4 -10q0 -9 -15 -12q-20 -6 -29 -6q-18 -31 -43 -62q-26 -31 -52 -53q-29 -24 -69 -47l-14 8q33 30 55 56q20 25 38 52q16 29 30 56q10 22 15 52zM536 602q49 -19 85 -35q7 -7 7 -13q0 -11 -21 -14q-21 -4 -33 -4q-14 -47 -31 -90h212q5 29 5 50q0 32 -4 48
q50 -7 87 -16q11 -4 11 -10q0 -10 -14 -17q-19 -5 -30 -5q-1 -27 -5 -50h49l52 58q40 -28 75 -58q9 -5 9 -12q0 -18 -14 -18h-176q-6 -30 -16 -56q-17 -66 -45 -105q-20 -30 -44 -55q59 -20 102 -45q63 -33 88 -51q18 -11 25 -29q10 -13 10 -29q0 -26 -22 -26q-10 0 -40 26
q-24 23 -108 71q-45 30 -88 48q-64 -49 -133 -76q-77 -37 -197 -65l-8 22q143 42 199 74q48 27 93 66q-15 5 -28 10q-84 37 -180 56l9 13l-1 1q27 47 48 89q12 29 23 61h-79q-71 -1 -98 -4l-18 44q43 -10 116 -10h91q13 40 21 75q9 36 16 81zM750 416h-220q-18 -45 -41 -81
q-19 -29 -44 -62q109 -22 190 -51q8 -3 15 -5q29 26 50 64q25 42 41 111q4 12 9 24z" />
  </g>

</svg>
