<?xml version="1.0" standalone="no"?>
<!DOCTYPE svg PUBLIC "-//W3C//DTD SVG 1.1//EN" "http://www.w3.org/Graphics/SVG/1.1/DTD/svg11.dtd" >
<svg xmlns="http://www.w3.org/2000/svg" xmlns:xlink="http://www.w3.org/1999/xlink" version="1.1" viewBox="0 -204 1024 1024">
  <g transform="matrix(1 0 0 -1 0 820)">
   <path fill="currentColor"
d="M230 964q51 -16 86 -35q8 -6 8 -13t-21 -10q-21 -4 -33 -4q-26 -85 -60 -164q-7 -19 -14 -33q40 -17 40 -29q0 -9 -32 -22v-538q0 -31 5 -48q3 -12 3 -22q0 -30 -38 -32q-18 0 -18 14v599q-10 -12 -17 -24q-39 -60 -93 -121l-14 10q48 68 81 126q25 51 52 116
q24 61 43 116q13 53 22 114zM536 960q45 -14 76 -32q8 -6 8 -12q0 -7 -18 -10q-18 -4 -28 -4q-26 -35 -62 -69q-34 -31 -72 -53q-27 -20 -65 -37q24 1 54 1q81 2 192 13q92 7 184 21q-15 21 -32 38q-22 26 -49 46l10 10q45 -25 91 -60q32 -25 48 -44q14 -16 20 -32
q3 -9 3 -20q0 -26 -26 -26q-5 0 -10 3q-8 5 -16 20q-15 27 -27 44q-51 -10 -105 -16v-73q0 -42 2 -52q3 -11 11 -16q15 -10 40 -14q30 -6 63 -6q21 0 45 5q17 3 24 12q7 5 9 5q21 0 32 -10q12 -9 12 -22q0 -8 -2 -11q-3 -5 -11 -10q-15 -5 -46 -8q-38 -5 -57 -5q-47 0 -92 9
q-43 5 -56 17q-8 6 -13 17q-6 11 -8 31q-1 16 -1 62v62q-14 -2 -24 -3q-43 -6 -80 -13q-6 -48 -15 -75q-14 -29 -33 -57q-23 -31 -52 -55q-32 -23 -77 -45q-49 -25 -121 -44l-6 18q62 24 100 44q36 18 66 41q24 23 46 47q14 26 26 55q9 26 15 65q-28 -4 -49 -6
q-47 -5 -80 -8q-13 -38 -22 -38q-6 0 -30 82h10q46 30 76 54l54 54q25 30 44 58q13 23 24 52zM526 536q98 -17 98 -36q0 -12 -58 -14q-21 -42 -44 -74h242l44 40q36 -26 58 -49q10 -5 10 -13q0 -7 -18 -18q-15 -10 -40 -14q-50 -83 -97 -130q-32 -34 -59 -55q18 -11 36 -19
q54 -21 121 -42q75 -17 167 -32v-16q-39 -2 -54 -32q-90 22 -159 44q-63 21 -111 48q-22 12 -39 23q-43 -26 -86 -43q-61 -28 -120 -44q-66 -23 -147 -36l-8 18q105 23 150 43q46 16 112 46q33 16 66 36q-12 12 -24 21q-48 41 -78 87q-21 32 -30 59q-32 -31 -67 -59
q-52 -42 -107 -71l-14 22q60 39 94 64q30 28 66 73q34 38 62 86q20 38 34 87zM472 353q16 -40 47 -75q35 -42 79 -73q12 -7 26 -14q3 1 5 3q37 33 73 81q40 45 68 111h-268q-9 -13 -19 -22q-5 -6 -11 -11z" />
  </g>

</svg>
