<?xml version="1.0" standalone="no"?>
<!DOCTYPE svg PUBLIC "-//W3C//DTD SVG 1.1//EN" "http://www.w3.org/Graphics/SVG/1.1/DTD/svg11.dtd" >
<svg xmlns="http://www.w3.org/2000/svg" xmlns:xlink="http://www.w3.org/1999/xlink" version="1.1" viewBox="0 -120 1000 1000">
  <g transform="matrix(1 0 0 -1 0 880)">
   <path fill="currentColor"
d="M34 437q58 111 110 287q38 129 54 236l84 -31q16 -5 16 -14q0 -8 -16 -12l-20 -6l-67 -199l18 -6q15 -5 15 -12q0 -8 -11 -13l-12 -6v-586l-63 -9v521q-43 -91 -93 -159zM314 70v867l69 -38h121l21 33l69 -42q9 -5 9 -12q0 -6 -13 -10l-21 -5v-332l-59 -10v54h-138v-498z
M372 728v-127h138v127h-138zM372 871v-118h138v118h-138zM639 524v412l68 -39h121l23 36l75 -45q10 -6 10 -14q0 -9 -11 -11l-28 -6v-708q0 -41 -9 -55q-7 -12 -25 -19q-41 -15 -59 -15q-7 0 -9 4q-1 1 -6 29q-2 11 -43 22l-29 8v17h119v432h-141v-41zM695 725v-126h141v126
h-141zM695 869v-117h141v117h-141z" />
  </g>

</svg>
