<?xml version="1.0" standalone="no"?>
<!DOCTYPE svg PUBLIC "-//W3C//DTD SVG 1.1//EN" "http://www.w3.org/Graphics/SVG/1.1/DTD/svg11.dtd" >
<svg xmlns="http://www.w3.org/2000/svg" xmlns:xlink="http://www.w3.org/1999/xlink" version="1.1" viewBox="0 -140 1000 1000">
  <g transform="matrix(1 0 0 -1 0 860)">
   <path fill="currentColor"
d="M596 743v91q-178 -6 -220 -6h-25v20q266 18 481 84l60 -64l-9 -8l-42 8q-120 -21 -181 -29v-96h161l44 59h14l65 -66v-15h-284v-98l149 -1l28 36h14l62 -50v-15l-28 -17v-237l-7 -10l-45 -13l-11 6l-1 39h-161v-117h135l47 59h14l65 -66v-15h-261v-105h161l47 59h15
l63 -66v-15h-655v22h305v105h-261v22h261v117h-166v-37l-6 -11l-47 -14l-12 5l1 348l63 -29h167v98h-271v22h271zM596 601h-166v-98h166v98zM596 481h-166v-98h166v98zM821 601h-161v-98h161v98zM821 481h-161v-98h161v98zM166 63v520q-46 -73 -92 -119l-14 11
q56 78 100 184.5t88 274.5l89 -35l-2 -14l-27 -6q-57 -153 -82 -210l36 -12l-1 -13l-35 -15l-4 -556l-48 -19z" />
  </g>

</svg>
