<?xml version="1.0" standalone="no"?>
<!DOCTYPE svg PUBLIC "-//W3C//DTD SVG 1.1//EN" "http://www.w3.org/Graphics/SVG/1.1/DTD/svg11.dtd" >
<svg xmlns="http://www.w3.org/2000/svg" xmlns:xlink="http://www.w3.org/1999/xlink" version="1.1" viewBox="0 -140 1000 1000">
  <g transform="matrix(1 0 0 -1 0 860)">
   <path fill="currentColor"
d="M239 928l92 -37l-4 -15l-30 -7q-50 -115 -86 -182l24 -9v-13l-24 -18l-1 -571l-8 -16l-46 -13l-10 10v525q-36 -48 -80 -91l-12 10q64 100 102 188.5t83 238.5zM345 345h17q1 -14 1 -51q0 -43 -8 -77t-18.5 -52.5t-23 -31t-20.5 -16.5t-11 -4q-13 0 -21.5 14.5t-8.5 33.5
q0 18 5 25.5t32 30.5q44 38 56 128zM866 824v-347l-7 -11l-43 -15l-13 8v42h-382l-1 -34l-10 -11l-39 -12l-13 9l-1 446l68 -30h368l31 33h14l55 -46v-13zM421 523h155v149h-155v-149zM421 694h155v153h-155v-153zM640 523h163v149h-163v-149zM640 694h163v153h-163v-153z
M446 444l93 -23v-16l-30 -13v-213q0 -34 10 -44.5t43 -10.5l116 1q45 0 62 11t29 52l27 88l17 -3l-8 -132l33 -20v-15q-33 -24 -54.5 -30t-77.5 -6h-169q-51 0 -71 20.5t-20 74.5v279zM572 433l9 12q6 -3 25 -14q100 -55 100 -100q0 -17 -10 -33.5t-20 -16.5q-14 0 -31 41
q-19 49 -73 111zM785 363l10 10q154 -108 154 -172q0 -16 -9.5 -35t-20.5 -19q-15 0 -35 53q-28 79 -99 163z" />
  </g>

</svg>
