<?xml version="1.0" standalone="no"?>
<!DOCTYPE svg PUBLIC "-//W3C//DTD SVG 1.1//EN" "http://www.w3.org/Graphics/SVG/1.1/DTD/svg11.dtd" >
<svg xmlns="http://www.w3.org/2000/svg" xmlns:xlink="http://www.w3.org/1999/xlink" version="1.1" viewBox="0 -140 1000 1000">
  <g transform="matrix(1 0 0 -1 0 860)">
   <path fill="currentColor"
d="M826 111l45 56h16l63 -64l-1 -15h-496q0 -17 -6 -29l-46 -14l-10 9v453q-46 -47 -119 -97l-9 12q83 83 128 155l1 64l36 -14q43 66 82 157l-109 1q-11 -73 -24 -107q-9 -24 -28 -42t-35 -18q-22 0 -22 47q0 26 34 57q27 25 37 50.5t21 100.5h15q4 -35 4 -66h114
q27 91 35 122l95 -32l-1 -17l-37 -9l-25 -63l269 -1l31 39h14l54 -69l-6 -13l-35 -6l-61 -74l-13 6l21 94l-281 1q-58 -114 -95 -165h148l46 148l81 -37l-1 -12l-38 -6l-60 -93h155l38 53h15l57 -61l1 -14h-245v-148h111l34 46h17l51 -53l1 -16h-214v-151l109 1l35 48h16
l53 -56l1 -15h-214v-144zM230 918l96 -34l-1 -16l-32 -9q-2 -6 -29 -82.5t-33 -90.5l29 -14v-15l-38 -16l-5 -582l-46 -12l-8 9l-1 495q-41 -67 -99 -134l-11 9q70 123 108 228t70 264zM452 450h163v147h-163v-147zM452 276h163v151h-163v-151zM452 110h163v143h-163v-143z
" />
  </g>

</svg>
