<?xml version="1.0" standalone="no"?>
<!DOCTYPE svg PUBLIC "-//W3C//DTD SVG 1.1//EN" "http://www.w3.org/Graphics/SVG/1.1/DTD/svg11.dtd" >
<svg xmlns="http://www.w3.org/2000/svg" xmlns:xlink="http://www.w3.org/1999/xlink" version="1.1" viewBox="0 -120 1000 1000">
  <g transform="matrix(1 0 0 -1 0 880)">
   <path fill="currentColor"
d="M44 477q62 93 114 243q41 117 65 239l70 -29q23 -10 23 -18t-19 -13l-24 -7q-25 -94 -74 -208l23 -12q16 -8 16 -15t-15 -12l-16 -5v-566l-60 -5v513q-49 -74 -88 -119zM326 149l-2 -13q-3 -16 -10 -16q-9 0 -16 14l-37 67l172 25v90h-146l-12 28h158v83h-79v-29l-52 -7
v303l58 -30h73v78h-158l-14 28h172v75q-79 -12 -143 -17l-8 17q113 22 192 49q52 17 121 49l39 -46q14 -16 14 -21q0 -7 -10 -7q-9 0 -18 4l-18 7q-52 -14 -113 -26v-84h74l42 51l71 -63v-16h-187v-78h84l15 27l56 -36q18 -11 18 -20t-19 -13l-12 -2v-209l-55 -7v23h-87v-83
h67l41 44l66 -56v-16h-174v-82l148 22v-17zM354 534v-79h79v79h-79zM354 636v-74h79v74h-79zM489 455h87v79h-87v-79zM489 636v-74h87v74h-87zM484 86q108 70 155 135q71 96 86 281q6 65 8 164h-66l-16 27h82v252l71 -8q21 -2 21 -14q0 -9 -16 -13l-16 -4v-213h60l18 31
l67 -39q18 -11 18 -21q0 -11 -18 -15l-13 -3v-211q0 -260 -36 -320q-13 -22 -51 -35q-26 -9 -37 -9q-14 0 -14 16q0 15 -7 24q-5 7 -28 13l-49 10v15h126q34 43 34 253v264h-70q-7 -161 -17 -228q-16 -92 -41 -146q-32 -72 -106 -137q-58 -50 -133 -84z" />
  </g>

</svg>
