<?xml version="1.0" standalone="no"?>
<!DOCTYPE svg PUBLIC "-//W3C//DTD SVG 1.1//EN" "http://www.w3.org/Graphics/SVG/1.1/DTD/svg11.dtd" >
<svg xmlns="http://www.w3.org/2000/svg" xmlns:xlink="http://www.w3.org/1999/xlink" version="1.1" viewBox="0 -140 1000 1000">
  <g transform="matrix(1 0 0 -1 0 860)">
   <path fill="currentColor"
d="M68 487l-11 8q102 171 175 434l90 -33l-6 -15l-24 -7q-56 -138 -85 -195l25 -11v-13l-21 -15l-4 -584l-49 -14l-12 6v532q-45 -62 -78 -93zM442 939l81 -36l-2 -15l-28 -5l-11 -18h171l35 32h14l57 -54l-5 -13l-31 -3l-106 -102h190l27 27h15l49 -43v-14l-20 -14l1 -140
l-5 -12l-50 -15l-9 6v18h-145q12 -78 48 -168q77 58 144 118l58 -64l-12 -12l-25 8l-154 -70q33 -66 82 -109.5t133 -83.5l-5 -15q-21 0 -32 -8.5t-27 -34.5q-109 73 -157.5 158t-72.5 247l-5 34h-16q-36 -36 -60 -55q58 -74 82 -134.5t24 -129.5q0 -82 -35 -124t-114 -56
l-13 7l-3 32l-81 34l3 13l74 -11q18 -2 20 -2q90 0 90 119q0 1 -2 49q-85 -60 -158 -93t-221 -73l-3 13q129 50 205.5 94.5t164.5 120.5q-5 20 -13 36q-146 -91 -337 -142l-4 12q188 76 319 180q-5 11 -23 39q-85 -49 -149.5 -74.5t-159.5 -46.5l-3 14q100 36 166 73
t146 105h-159v-14l-8 -11l-44 -13l-12 8v178q-25 -19 -61 -41l-10 13q63 63 104 123t88 158zM377 736l11 -11h200l64 118h-187q-36 -52 -88 -107zM385 703v-143h184v143h-184zM815 560v143h-181v-143h181z" />
  </g>

</svg>
