<?xml version="1.0" standalone="no"?>
<!DOCTYPE svg PUBLIC "-//W3C//DTD SVG 1.1//EN" "http://www.w3.org/Graphics/SVG/1.1/DTD/svg11.dtd" >
<svg xmlns="http://www.w3.org/2000/svg" xmlns:xlink="http://www.w3.org/1999/xlink" version="1.1" viewBox="0 -204 1024 1024">
  <g transform="matrix(1 0 0 -1 0 820)">
   <path fill="currentColor"
d="M244 960q49 -16 85 -35q7 -6 7 -11q0 -9 -21 -12q-21 -4 -31 -4q-30 -93 -68 -177q-11 -27 -26 -55q46 -18 46 -30q0 -9 -32 -22v-494q0 -31 5 -48q3 -12 3 -22q0 -31 -38 -32q-18 0 -18 14v569q-9 -13 -15 -23q-41 -62 -99 -130l-14 12q52 71 87 133q27 56 55 121
q29 68 47 125q16 57 27 121zM570 958q23 -12 38 -26q20 -11 31 -20q11 -11 15 -21q4 -7 4 -15q0 -18 -6 -31q-2 -3 -4 -5h250l30 32q33 -23 59 -48q3 -3 3 -6q0 -8 -17 -14q-17 -4 -31 -8q-10 -12 -27 -26q-16 -17 -31 -28l-18 10q14 18 22 33q8 14 10 29h-527
q-2 -16 -4 -29q-6 -29 -14 -46q-6 -18 -14 -29q-9 -9 -17 -12q-9 -4 -16 -4q-22 0 -22 14q0 8 11 22q26 28 37 50q11 18 18 45q6 23 8 63h14v-48h248q-4 5 -6 13q-4 17 -13 31q-7 17 -18 31q-11 13 -29 31zM358 698q44 -12 116 -12h22v8q0 52 -4 80q44 -10 72 -18
q10 -5 10 -12q0 -4 -7 -7q-11 -7 -23 -11v-40h146v8q0 52 -4 80q45 -10 75 -18q9 -5 9 -12q0 -4 -6 -7q-11 -7 -26 -11v-40h58l40 44q30 -25 60 -46q6 -6 6 -12q0 -14 -10 -14h-154v-88h40l44 44q32 -25 62 -46q8 -5 8 -10q0 -18 -12 -18h-142v-92h120l44 48q36 -23 69 -49
q9 -3 9 -9q0 -18 -12 -18h-228q21 -24 42 -46q29 -25 67 -53q37 -23 74 -42q35 -14 67 -21v-18q-52 0 -70 -32q-34 18 -63 38q-30 25 -51 52q-26 22 -48 54q-25 26 -47 68h-146q-20 -33 -45 -60q-31 -38 -66 -68q-33 -26 -75 -56q-43 -26 -105 -54l-12 18q56 32 95 63
q39 26 70 59q30 29 50 61q16 20 27 37h-80q-72 -1 -96 -4l-22 44q44 -12 118 -12h72v92h-10q-69 -1 -96 -4l-18 44q43 -10 114 -10h10v88h-22q-71 -1 -94 -4zM544 448h146v92h-146v-92zM690 570v88h-146v-88h146zM430 252q44 -12 118 -12h40v40q0 54 -4 80q56 -5 94 -19
q12 -8 12 -17q0 -7 -12 -11q-20 -9 -42 -11v-62h80l44 44q32 -22 59 -46q7 -4 7 -8q0 -16 -12 -16h-178v-134h216l44 50q36 -26 67 -51q9 -5 9 -11q0 -14 -14 -14h-532q-70 -1 -94 -4l-22 44q44 -14 116 -14h162v134h-40q-72 -1 -96 -6z" />
  </g>

</svg>
