<?xml version="1.0" standalone="no"?>
<!DOCTYPE svg PUBLIC "-//W3C//DTD SVG 1.1//EN" "http://www.w3.org/Graphics/SVG/1.1/DTD/svg11.dtd" >
<svg xmlns="http://www.w3.org/2000/svg" xmlns:xlink="http://www.w3.org/1999/xlink" version="1.1" viewBox="0 -120 1000 1000">
  <g transform="matrix(1 0 0 -1 0 880)">
   <path fill="currentColor"
d="M138 593q-12 -24 -36 -73q-15 -29 -60 -96l-16 12q50 103 86 219q50 160 67 289l86 -23q16 -4 16 -14q0 -7 -15 -12l-20 -6q-30 -98 -61 -187l29 -9q14 -4 14 -14q0 -11 -15 -15l-12 -2v-605l-66 -11zM259 74l-7 26h563l44 68l81 -77l1 -17h-682zM277 813l-11 27h287
l2 107l73 -6q21 -1 21 -13q0 -14 -16 -19l-13 -3v-65h180l45 62l87 -73v-17h-655zM466 513v171l59 -25h128l15 25l54 -33q16 -10 16 -16t-11 -9l-11 -4v-97l-56 -7v25h-144v-22zM516 635v-68l144 -1v69h-144zM326 420v353l70 -34h396l21 37l62 -40q18 -12 18 -21
q0 -8 -15 -10l-18 -2v-266l-60 -9v31h-414v-29zM386 714v-230h414v230h-414zM377 123v295l63 -28l297 1l20 35l59 -38q15 -10 15 -16q0 -7 -17 -13l-11 -4v-213l-59 -9v32h-310v-34zM434 269v-80h310v80h-310zM434 365v-73h310v73h-310z" />
  </g>

</svg>
