<?xml version="1.0" standalone="no"?>
<!DOCTYPE svg PUBLIC "-//W3C//DTD SVG 1.1//EN" "http://www.w3.org/Graphics/SVG/1.1/DTD/svg11.dtd" >
<svg xmlns="http://www.w3.org/2000/svg" xmlns:xlink="http://www.w3.org/1999/xlink" version="1.1" viewBox="0 -140 1000 1000">
  <g transform="matrix(1 0 0 -1 0 860)">
   <path fill="currentColor"
d="M644 574l31 36h14l61 -49v-15l-27 -15v-207l-3 -11l-54 -15l-9 5l1 43h-60v-190q0 -24 14.5 -33t53.5 -9h145q31 0 45 10.5t25 40.5l32 87l14 -1l-6 -126l29 -20v-16q-37 -31 -100 -31h-186q-77 0 -101.5 21t-24.5 85v182h-107q-8 -79 -29.5 -130t-67 -84.5t-106 -51
t-159.5 -31.5l-5 12q163 35 227.5 91.5t76.5 193.5h-49l1 -21l-4 -5l-53 -10l-8 4v277l68 -17h321zM659 552h-340v-184h340v184zM460 829v99l98 -18l1 -14l-34 -18v-49h289l47 59h14l65 -66v-15h-876v22h396zM340 670l-7 -15l-30 2q-55 -68 -101.5 -104t-141.5 -83l-9 10
q79 55 126 109t82 131zM630 727l37 39h13l55 -57l-6 -15l-35 -7q42 -61 99 -92t158 -48l-7 -13q-31 -7 -42 -13t-21 -23q-78 25 -133.5 73.5t-88.5 132.5h-303v23h274z" />
  </g>

</svg>
