<?xml version="1.0" standalone="no"?>
<!DOCTYPE svg PUBLIC "-//W3C//DTD SVG 1.1//EN" "http://www.w3.org/Graphics/SVG/1.1/DTD/svg11.dtd" >
<svg xmlns="http://www.w3.org/2000/svg" xmlns:xlink="http://www.w3.org/1999/xlink" version="1.1" viewBox="0 -410 2048 2048">
  <g transform="matrix(1 0 0 -1 0 1638)">
   <path fill="currentColor"
d="M1660 1772l68 77l84 -55q40 -26 40 -48t-29 -39q-3 -2 -50 -23v-240q1 -149 4 -184q4 -55 4 -83q0 -63 -74 -63q-38 0 -38 24v38h-1302v-38q-3 -24 -43 -24q-19 0 -45 10q-16 18 -16 52q0 66 3 97q5 46 5 171v278q-2 80 -16 138l118 -88h596v49q-2 136 -7 161l113 -20
q86 -15 86 -45t-50 -42l-46 -11v-92h595zM367 1232h602v219h-602v-219zM1065 1232h604v219h-604v-219zM367 1505h602v209h-602v-209zM1065 1714v-209h604v209h-604zM1462 1001l72 81l84 -54q40 -26 40 -49q0 -28 -77 -61v-519q0 -119 4 -182t4 -92q0 -58 -68 -58
q-36 0 -36 23v856h-932v-769q0 -82 -4 -94q-4 -16 -37 -16q-38 0 -49 14q-13 15 -13 55l8 263v555q-2 82 -16 134l117 -87h903zM592 759q92 -25 232 -25h406l79 85l117 -85q14 -11 14 -25q0 -28 -27 -28h-589q-114 0 -163 -4q-19 -1 -32 -2zM592 487q92 -22 232 -22h406
l79 80l117 -86q14 -11 14 -27q0 -25 -27 -25h-589q-122 0 -163 -6q-18 -2 -32 -2z" />
  </g>

</svg>
