<?xml version="1.0" standalone="no"?>
<!DOCTYPE svg PUBLIC "-//W3C//DTD SVG 1.1//EN" "http://www.w3.org/Graphics/SVG/1.1/DTD/svg11.dtd" >
<svg xmlns="http://www.w3.org/2000/svg" xmlns:xlink="http://www.w3.org/1999/xlink" version="1.1" viewBox="0 -140 1000 1000">
  <g transform="matrix(1 0 0 -1 0 860)">
   <path fill="currentColor"
d="M54 599v23h306v102h-228v23h228v74h-255v23h255v93l98 -22v-14l-33 -14v-43h167v93l93 -19v-14l-29 -13v-47h145l43 45h13l51 -51v-17h-252v-74h119l42 43h13l49 -48v-18h-223v-102h174l45 46h16l53 -52v-17h-404v-96h187l30 34h14l59 -45v-14l-29 -19v-218h31l47 50h12
l55 -58v-15h-145v-69q0 -49 -20.5 -68t-91.5 -36l-8 6v30l-89 33v17l97 -7q28 -2 38 5.5t10 30.5v58h-457v-145l-7 -15l-49 -15l-8 8v167h-159v23h159v296l68 -34h192v96h-422zM476 241v113h-196v-113h196zM476 377v104h-196v-104h196zM592 622v102h-167v-102h167zM592 747
v74h-167v-74h167zM737 241v113h-197v-113h197zM737 377v104h-197v-104h197z" />
  </g>

</svg>
