<?xml version="1.0" standalone="no"?>
<!DOCTYPE svg PUBLIC "-//W3C//DTD SVG 1.1//EN" "http://www.w3.org/Graphics/SVG/1.1/DTD/svg11.dtd" >
<svg xmlns="http://www.w3.org/2000/svg" xmlns:xlink="http://www.w3.org/1999/xlink" version="1.1" viewBox="0 -120 1000 1000">
  <g transform="matrix(1 0 0 -1 0 880)">
   <path fill="currentColor"
d="M270 397h190q13 60 16 148h-206v-148zM525 397h255v148h-237q-6 -89 -18 -148zM277 573h328q0 24 -11.5 30.5t-59.5 9.5v17h107q25 47 38 108h-268q-21 -50 -50.5 -86.5t-83.5 -78.5zM845 338l-65 -12v44h-173v-220q0 -18 6.5 -24.5t24.5 -6.5h179q46 0 61 51l29 95h21
l-9 -92q0 -21 7 -30t30 -20q-21 -63 -80 -63h-270q-64 0 -64 61v249h-26q-23 -69 -53 -111q-44 -64 -120 -111q-52 -31 -127.5 -58.5t-137.5 -38.5l-6 19q152 41 252 119q49 38 77.5 78t50.5 103h-182v-41l-65 -10v207q-62 -31 -121 -55l-7 19q197 94 263 248h-123l-14 27
h473l25 34l58 -40q15 -12 15 -20q0 -15 -34 -15q-17 -77 -31.5 -104.5t-47.5 -46.5h112l23 36l61 -36q22 -11 22 -23q0 -10 -34 -22v-190zM861 910l71 -61q14 -12 14 -22q0 -13 -23 -13q-1 0 -33 4q-57 -48 -94 -75l-13 12q30 46 49 89h-649q-4 -62 -31 -91q-19 -20 -42 -20
q-16 0 -26.5 10t-10.5 25q0 12 5 18.5t33 30.5q26 22 36.5 42t14.5 56h19q3 -25 4 -44h645zM624 323l7 13q71 -22 111 -53q41 -33 41 -71q0 -14 -7.5 -22.5t-19.5 -8.5t-18.5 7t-28.5 44q-32 57 -85 91z" />
  </g>

</svg>
