<?xml version="1.0" standalone="no"?>
<!DOCTYPE svg PUBLIC "-//W3C//DTD SVG 1.1//EN" "http://www.w3.org/Graphics/SVG/1.1/DTD/svg11.dtd" >
<svg xmlns="http://www.w3.org/2000/svg" xmlns:xlink="http://www.w3.org/1999/xlink" version="1.1" viewBox="0 -140 1000 1000">
  <g transform="matrix(1 0 0 -1 0 860)">
   <path fill="currentColor"
d="M264 846v23h318l43 46h13l54 -56v-13h-229q-21 -98 -42 -156h120l33 27h14l55 -66l-4 -12l-29 -7q-54 -200 -141 -320t-244 -213l-9 10q85 72 135.5 131.5t100.5 149.5q-21 -2 -29.5 6t-33.5 50q-21 38 -65 74q-45 -51 -95 -90l-11 10q72 85 110.5 175t63.5 231h-128z
M544 667h-133q-30 -67 -73 -130q7 -3 23.5 -10.5t23.5 -11.5q50 -23 67 -41.5t18 -48.5q47 111 74 242zM681 801l93 -17v-13l-29 -18l-1 -421l-6 -15l-47 -15l-11 8zM909 864v-700q0 -46 -21 -64t-94 -34l-13 7v31l-96 38l3 15l95 -8q35 -3 48.5 7.5t13.5 40.5v720l99 -19
v-15zM74 861l5 11q78 -23 117 -47.5t39 -59.5q0 -46 -28 -46q-13 0 -42 48q-25 42 -91 94zM295 812l13 -4l-120 -383q-23 -75 -23 -108q0 -23 14 -71q13 -45 13 -69q0 -22 -13 -38.5t-30 -16.5q-18 0 -31 16.5t-13 40.5q0 6 7 34l13 53q2 24 2 28q0 33 -9.5 51.5t-21.5 24.5
t-39 14v16q38 0 53.5 8.5t32.5 48.5z" />
  </g>

</svg>
