<?xml version="1.0" standalone="no"?>
<!DOCTYPE svg PUBLIC "-//W3C//DTD SVG 1.1//EN" "http://www.w3.org/Graphics/SVG/1.1/DTD/svg11.dtd" >
<svg xmlns="http://www.w3.org/2000/svg" xmlns:xlink="http://www.w3.org/1999/xlink" version="1.1" viewBox="0 -120 1000 1000">
  <g transform="matrix(1 0 0 -1 0 880)">
   <path fill="currentColor"
d="M327 739l-142 -357q-6 -16 -6 -62q0 -35 17 -111q3 -12 3 -25q0 -17 -10 -29q-14 -18 -37 -18q-19 0 -31 17q-9 15 -9 31q0 13 8 53q5 27 5 57q0 49 -20 68q-17 16 -55 22v21h80l181 342zM91 878q78 -30 116 -62q41 -35 41 -69q0 -28 -24 -42q-7 -5 -14 -5q-11 0 -23 27
q-26 56 -50 86q-16 21 -53 48zM574 341q-137 -181 -354 -261l-10 16q110 57 205 152q90 92 121 157h-119v-45l-64 -9v368l66 -35h155v113h-280l-13 28h293v136l79 -15q21 -4 21 -12q0 -6 -15 -14l-23 -13v-82h199l39 55l80 -66v-17h-318v-113h149l24 40l67 -38q17 -9 17 -19
q0 -8 -13 -15l-18 -9v-266l-66 -7v35h-135q35 -66 116 -137q100 -86 189 -117l-8 -14h-11q-26 0 -40 -7q-15 -8 -31 -30q-136 92 -240 294v-331l-62 -4v282zM417 533v-100h157v100h-157zM417 656v-95h157v95h-157zM636 533v-100h160v100h-160zM636 561h160v95h-160v-95z" />
  </g>

</svg>
