<?xml version="1.0" standalone="no"?>
<!DOCTYPE svg PUBLIC "-//W3C//DTD SVG 1.1//EN" "http://www.w3.org/Graphics/SVG/1.1/DTD/svg11.dtd" >
<svg xmlns="http://www.w3.org/2000/svg" xmlns:xlink="http://www.w3.org/1999/xlink" version="1.1" viewBox="0 -140 1000 1000">
  <g transform="matrix(1 0 0 -1 0 860)">
   <path fill="currentColor"
d="M162 862h166l31 32h12l54 -45v-15l-26 -14v-309h201v377l66 -26h161l31 32h12l58 -48v-14l-24 -17l-7 -713l-43 -15l-16 7l1 65l-680 -1l-1 -56l-5 -15l-49 -15l-8 9l-1 805zM159 181l680 2v656h-174v-386l-8 -11l-47 -14l-10 8v52h-201v-45l-7 -15l-45 -11l-12 8v414
h-176v-658z" />
  </g>

</svg>
