<?xml version="1.0" standalone="no"?>
<!DOCTYPE svg PUBLIC "-//W3C//DTD SVG 1.1//EN" "http://www.w3.org/Graphics/SVG/1.1/DTD/svg11.dtd" >
<svg xmlns="http://www.w3.org/2000/svg" xmlns:xlink="http://www.w3.org/1999/xlink" version="1.1" viewBox="0 -120 1000 1000">
  <g transform="matrix(1 0 0 -1 0 880)">
   <path fill="currentColor"
d="M94 105q118 78 183 162q81 104 108 194q-32 33 -85 98q-16 20 -52 80q-13 -17 -43 -62q-26 -40 -37 -61l1 -19l1 -2q0 -8 -6 -11q-3 -2 -5 -2q-7 0 -13 8l-44 61q23 18 26 20q59 48 99 88l21 62l53 -28l-37 -38q33 -50 68 -89q39 -43 66 -65q36 160 40 330h-315l-13 27
h623l27 45l74 -55q12 -9 12 -18q0 -8 -16 -12l-21 -4v-175q-1 -198 -45 -349q75 -22 112 -30q28 -5 75 -9v-22q-39 -3 -58 -55q-67 17 -153 55q-32 -77 -81 -110q-48 -34 -91 -34q-11 0 -11 14q0 20 -9 31q-5 7 -43 16l-57 13v15h176q17 12 33 33q20 26 27 47l-24 12
q-104 45 -228 151q-47 -106 -121 -184q-82 -86 -206 -145zM501 831q-12 -232 -53 -373q60 -50 119 -83q41 -23 69 -37q21 -11 71 -28q39 130 43 335v186h-249z" />
  </g>

</svg>
