<?xml version="1.0" standalone="no"?>
<!DOCTYPE svg PUBLIC "-//W3C//DTD SVG 1.1//EN" "http://www.w3.org/Graphics/SVG/1.1/DTD/svg11.dtd" >
<svg xmlns="http://www.w3.org/2000/svg" xmlns:xlink="http://www.w3.org/1999/xlink" version="1.1" viewBox="0 -410 2048 2048">
  <g transform="matrix(1 0 0 -1 0 1638)">
   <path fill="currentColor"
d="M490 1385h407l64 86l95 -68q27 -19 27 -39q0 -21 -63 -58q-94 -444 -309 -734q-129 -173 -290 -306q-95 -78 -285 -196l-21 37q369 265 575 610q-20 -8 -32 -8q-14 0 -27 11q-17 14 -57 86q-85 156 -266 274q-70 -94 -202 -227l-30 30q200 249 291 453q80 178 115 393
h-174q-107 0 -193 -8l-39 84q91 -24 232 -24h658l84 102l111 -82q33 -24 33 -49q0 -23 -30 -23h-576q-56 -252 -98 -344zM465 1332q-53 -100 -134 -221q27 -14 103 -52q159 -79 239 -185q43 -59 43 -99v-13q76 145 121 273q38 108 76 297h-448zM1748 1941l109 -20
q86 -16 86 -45t-50 -42l-41 -11v-1524q0 -81 -7 -103q-26 -73 -169 -110q-5 54 -34 74q-47 34 -256 62v48q214 -33 301 -33q69 0 69 73v1471q-4 137 -8 160zM1320 1595q-6 142 -9 159l109 -20q86 -15 86 -45q0 -28 -50 -42l-41 -11v-794q0 -53 7 -126q8 -109 8 -121
q0 -58 -64 -58q-46 0 -46 51v1007z" />
  </g>

</svg>
