<?xml version="1.0" standalone="no"?>
<!DOCTYPE svg PUBLIC "-//W3C//DTD SVG 1.1//EN" "http://www.w3.org/Graphics/SVG/1.1/DTD/svg11.dtd" >
<svg xmlns="http://www.w3.org/2000/svg" xmlns:xlink="http://www.w3.org/1999/xlink" version="1.1" viewBox="0 -410 2048 2048">
  <g transform="matrix(1 0 0 -1 0 1638)">
   <path fill="currentColor"
d="M572 987h397l63 72l84 -55q40 -25 40 -48q0 -28 -74 -61q0 -23 -3 -87q-22 -520 -93 -630q-32 -50 -92 -73q-42 -16 -101 -24q-8 71 -55 93q-55 26 -183 60l9 50q67 -23 161.5 -46t121.5 -23q56 0 79 66q50 141 60 649h-422q-18 -234 -95 -410q-101 -230 -352 -412
l-28 30q161 157 225 263q133 220 155 529h-95q-103 0 -191 -9l-39 89q96 -23 230 -23h100v273h-177v-27q0 -54 -58 -54q-54 0 -54 45q0 17 4 50q12 92 12 210v288q-3 81 -18 136l122 -90h580l72 80l83 -54q39 -25 39 -49q0 -32 -76 -58v-391l53 -42q12 -9 12 -19
q0 -25 -19 -25h-477v-273zM297 1312h614v452h-614v-452zM1720 1945l109 -24q86 -19 86 -46q0 -22 -51 -41l-39 -16v-1555q0 -142 -155 -171q-11 70 -47 93q-33 21 -159 44l8 45q169 -27 200 -27q57 0 57 58v1480q0 118 -9 160zM1308 1753l109 -24q82 -18 82 -46
q0 -24 -51 -41l-39 -13v-750q0 -102 12 -219q4 -30 4 -50q0 -46 -56 -46q-54 0 -54 42v988q0 124 -7 159z" />
  </g>

</svg>
