<?xml version="1.0" standalone="no"?>
<!DOCTYPE svg PUBLIC "-//W3C//DTD SVG 1.1//EN" "http://www.w3.org/Graphics/SVG/1.1/DTD/svg11.dtd" >
<svg xmlns="http://www.w3.org/2000/svg" xmlns:xlink="http://www.w3.org/1999/xlink" version="1.1" viewBox="0 -140 1000 1000">
  <g transform="matrix(1 0 0 -1 0 860)">
   <path fill="currentColor"
d="M533 868l31 36h14l61 -49v-15l-27 -18l-1 -133l-5 -7l-51 -6l-7 6v25h-350q-1 -20 -5 -27l-53 -9l-5 8l-1 216l71 -27h328zM548 846h-77v-116h77v116zM411 846h-76v-116h76v116zM275 846h-77v-116h77v116zM530 595l34 37h14l61 -51v-16l-27 -17q0 -100 -2 -164t-8.5 -122
t-18 -91t-31 -60t-46.5 -40.5t-66 -21.5l-12 6l-10 32l-82 35l3 13l101 -13q68 0 89 70.5t21 282.5q0 69 -1 97h-324q-66 -87 -150 -133l-10 9q62 53 97 109t62 145l79 -26l-1 -12l-32 -6q-14 -32 -33 -63h293zM419 449h-70v-99h70v99zM289 449h-71v-99h71v99zM407 472
l31 31h15l52 -47l-1 -13l-21 -11l-1 -113l-4 -8l-52 -10l-6 5l-1 22h-70v-105q6 1 85 20q-21 33 -32 45l7 9q58 -38 75.5 -58t17.5 -47q0 -37 -24 -37q-22 0 -27 32q-1 13 -9 40q-227 -79 -313 -105l-4 -26l-15 -3l-25 80q37 5 162 30l42 9v116h-71l1 -29l-6 -8l-54 -8l-5 6
v199l68 -16h67v80l83 -15v-15l-23 -10v-40h58zM690 830l95 -18v-15l-35 -18l1 -515l-7 -9l-48 -9l-6 8v576zM839 927l95 -20v-13l-35 -17v-714q0 -61 -20 -80.5t-90 -28.5l-12 8l-2 27l-86 39l1 12l114 -11q24 0 29.5 9.5t5.5 50.5v738z" />
  </g>

</svg>
