<?xml version="1.0" standalone="no"?>
<!DOCTYPE svg PUBLIC "-//W3C//DTD SVG 1.1//EN" "http://www.w3.org/Graphics/SVG/1.1/DTD/svg11.dtd" >
<svg xmlns="http://www.w3.org/2000/svg" xmlns:xlink="http://www.w3.org/1999/xlink" version="1.1" viewBox="0 -120 1000 1000">
  <g transform="matrix(1 0 0 -1 0 880)">
   <path fill="currentColor"
d="M176 875l15 -17q22 -26 22 -30q0 -7 -8 -6q-3 0 -7 1l-11 3q-76 -73 -144 -112l-9 12q84 75 119 149h-92l-8 28h178l25 36l58 -42q16 -12 16 -19q0 -2 -4 -6q-6 -7 -12 -8l-12 -2v-263l-59 -11v116q-101 -92 -190 -132l-8 13q89 67 167 172l31 -23v141h-67zM43 362
q96 53 148 101q71 67 100 115l63 -32q15 -8 15 -13t-8 -10l-7 -4q9 -4 60 -22q66 -23 120 -72q27 -23 27 -47q0 -13 -10 -22q-7 -6 -16 -6q-6 0 -14 4q-5 3 -65 64q-29 31 -93 69q-22 12 -42 22q-6 -4 -11 -9q-124 -112 -259 -151zM72 264q55 23 104 57q78 54 141 115
q13 13 23 25l47 -24q22 -11 22 -19q0 -12 -22 -12h-20q-73 -57 -155 -102q-89 -47 -132 -54zM88 179q167 57 323 199l50 -31q15 -9 15 -17q0 -12 -21 -12h-23q-65 -46 -142 -85q-109 -53 -197 -68zM93 83q10 3 55 14q113 31 217 101q46 31 118 91l60 -37q16 -9 16 -17
q0 -11 -17 -11q-4 0 -8 1l-18 2q-8 -6 -43 -29q-100 -66 -223 -103q-73 -21 -153 -25zM313 723q59 58 109 152h-70l-10 28h145l27 39l62 -49q14 -11 14 -19q0 -9 -16 -14l-13 -4v-254l-59 -12v117q-9 -7 -52 -46q-54 -49 -107 -73l-8 12q50 43 83 87q39 53 48 78l36 -19v129
h-57l27 -26q10 -10 10 -16t-10 -7l-14 -1q-62 -66 -135 -112zM747 686q0 -184 -11 -238q-23 -146 -110 -260q-67 -86 -140 -133l-13 16q60 50 110 125q72 110 89 238q10 76 13 252h-92l-10 26h102v228l76 -11q26 -4 26 -13q0 -8 -16 -17l-22 -12v-175h104l24 40l60 -46
q15 -12 15 -20q0 -7 -13 -12l-14 -5v-199q0 -261 -42 -343q-24 -47 -71 -59q-18 -5 -26 -5q-12 0 -14 16q-1 13 -6 23q-5 12 -40 19l-33 5v18h108q21 19 30 41q20 47 24 119q5 113 6 127v255h-114z" />
  </g>

</svg>
