<?xml version="1.0" standalone="no"?>
<!DOCTYPE svg PUBLIC "-//W3C//DTD SVG 1.1//EN" "http://www.w3.org/Graphics/SVG/1.1/DTD/svg11.dtd" >
<svg xmlns="http://www.w3.org/2000/svg" xmlns:xlink="http://www.w3.org/1999/xlink" version="1.1" viewBox="0 -200 1000 1000">
  <g transform="matrix(1 0 0 -1 0 800)">
   <path fill="currentColor"
d="M824 750l70 -72l-36 -40q-4 -152 -4 -265.5t-14 -191.5t-50 -121.5t-112 -55.5q1 1 1 15q0 32 -24.5 56t-82.5 47l5 8q84 -26 120 -26q12 0 29 5q15 10 28.5 25.5t24 51.5t16.5 99.5t6 170.5q0 46 -1.5 100.5t-3.5 120.5h-126l33 -27l-27 -44q-22 -118 -50 -205
t-62 -150.5t-74.5 -107t-88 -74.5t-102.5 -53.5t-117 -43.5l-22 -4q80 45 141.5 87t108.5 87.5t81 97t58 115.5t40 143t27 179h-117l28 -28q0 -3 -4.5 -9.5t-10 -14.5t-10 -14.5t-5.5 -9.5q-20 -88 -58 -158t-86.5 -122.5t-104.5 -88.5t-113 -56l-19 -5q75 56 133 111.5
t99 115.5t65 128t32 151h-113q-21 -43 -46.5 -86t-52 -81t-53 -68t-49.5 -46l-11 -6q42 61 81 132.5t70 147t51.5 151t25.5 144.5l86 -77l-34 -26q-6 -20 -13.5 -43t-16 -45t-16.5 -41t-15 -31h444z" />
  </g>

</svg>
