<?xml version="1.0" standalone="no"?>
<!DOCTYPE svg PUBLIC "-//W3C//DTD SVG 1.1//EN" "http://www.w3.org/Graphics/SVG/1.1/DTD/svg11.dtd" >
<svg xmlns="http://www.w3.org/2000/svg" xmlns:xlink="http://www.w3.org/1999/xlink" version="1.1" viewBox="0 -140 1000 1000">
  <g transform="matrix(1 0 0 -1 0 860)">
   <path fill="currentColor"
d="M166 371v12h30q25 0 36 10.5t23 42.5l128 336l12 -5l-90 -336q-15 -55 -15 -100q0 -30 18 -69q18 -42 18 -59t-10.5 -29t-25.5 -12q-16 0 -27 13t-11 32q0 3 2 23t2 23q0 19 -1 30.5t-5 29t-15 29.5t-29 17zM194 795l4 10q73 -13 99 -27t26 -40q0 -37 -19 -37
q-14 0 -32 24q-30 39 -78 70zM521 686l126 1l37 156l85 -32l-3 -13l-28 -8l-66 -103l149 -1l39 40h13l47 -47v-16h-212v-116h84l34 37h12l43 -43v-16h-173v-112h86l36 36h15l39 -43v-17h-176v-120l118 -1l42 41h13l48 -49v-15h-420v-40l-6 -13l-49 -13l-9 5v387
q-42 -47 -95 -94l-9 11q61 85 98 158t86 203l86 -40l-5 -16l-27 -3zM644 663h-135v-116h135v116zM644 389h-135l-1 -121h135zM644 525h-135v-112h135v112zM166 612l4 12q31 -6 44 -9t30.5 -9t24.5 -12t12 -16.5t5 -24.5q0 -32 -23 -32q-10 0 -25 22q-24 35 -72 69zM92 929
l71 -30l610 -1l42 50h14l62 -56v-17h-735v-747h638l58 59h13l62 -66v-16h-804q-19 0 -25 5t-6 22v797z" />
  </g>

</svg>
