<?xml version="1.0" standalone="no"?>
<!DOCTYPE svg PUBLIC "-//W3C//DTD SVG 1.1//EN" "http://www.w3.org/Graphics/SVG/1.1/DTD/svg11.dtd" >
<svg xmlns="http://www.w3.org/2000/svg" xmlns:xlink="http://www.w3.org/1999/xlink" version="1.1" viewBox="0 -410 2048 2048">
  <g transform="matrix(1 0 0 -1 0 1638)">
   <path fill="currentColor"
d="M1067 673v-319q0 -13 10 -181q4 -57 4 -63q0 -60 -63 -60q-46 0 -46 51v572h-686q-114 0 -192 -8l-38 88q94 -21 230 -21h686v78q0 116 -8 160l109 -24q86 -19 86 -45q0 -31 -50 -43l-42 -10v-116h655l105 116l150 -116q18 -14 18 -30q0 -29 -30 -29h-898zM539 1273
q-133 -247 -402 -401l-23 34q378 299 419 706l149 -34q33 -7 33 -26q0 -24 -33 -33l-49 -13q-36 -111 -73 -189q102 -55 203 -120q130 -84 130 -156q0 -65 -58 -65q-33 0 -81 75q-48 73 -93 118q-12 11 -122 104zM1425 1321q220 -103 313 -163q112 -73 112 -144
q0 -56 -48 -56q-34 0 -104 84q-93 112 -296 235q-74 -111 -146 -176q-68 -63 -172 -129l-25 32q174 147 251 293q72 136 97 321l147 -40q32 -9 32 -30q0 -23 -27 -29l-51 -11q-53 -129 -83 -187zM878 1977q190 -97 190 -193q0 -47 -36 -71h630l106 122l142 -109
q25 -19 25 -41q0 -26 -33 -26h-1559q-92 0 -178 -9l-14 -1l-42 88q98 -24 234 -24h647q-6 3 -44 106q-21 55 -98 136z" />
  </g>

</svg>
