<?xml version="1.0" standalone="no"?>
<!DOCTYPE svg PUBLIC "-//W3C//DTD SVG 1.1//EN" "http://www.w3.org/Graphics/SVG/1.1/DTD/svg11.dtd" >
<svg xmlns="http://www.w3.org/2000/svg" xmlns:xlink="http://www.w3.org/1999/xlink" version="1.1" viewBox="0 -204 1024 1024">
  <g transform="matrix(1 0 0 -1 0 820)">
   <path fill="currentColor"
d="M888 946q38 -30 70 -58q10 -5 10 -12q0 -14 -18 -14h-786v-300q0 -83 -6 -157q-3 -63 -15 -130q-9 -54 -22 -100q-13 -41 -35 -79q-15 -34 -46 -68l-12 8q16 29 30 65q14 31 23 64q9 39 16 92q8 59 13 119q6 82 6 186q0 226 -4 362l56 -36h672zM200 672q43 -12 114 -12
h50v27q0 111 -6 145q51 -2 77 -9q18 -4 17 -13q1 -11 -14 -16q-12 -6 -26 -12q0 -69 -1 -122h159l44 48q34 -23 66 -49q6 -3 6 -9q0 -18 -10 -18h-265q-3 -97 -10 -148q-11 -94 -30 -159q-22 -69 -53 -123q-30 -53 -80 -94q-51 -46 -114 -76l-12 22q67 40 106 84
q40 40 68 94q24 43 44 114q14 58 22 139q8 63 9 147h-47q-69 -1 -96 -4zM452 580q51 -6 89 -14q11 -3 11 -12q1 -11 -13 -17q-19 -8 -31 -11v-396q0 -9 4 -16q1 -6 10 -10q7 -3 24 -6q25 -4 74 -4h162q53 0 74 2l34 6q13 2 18 8q7 7 12 21q10 31 18 109l20 -8q-3 -32 -4 -80
q0 -28 9 -34q27 -10 27 -28q0 -9 -5 -14q-4 -6 -19 -13q-21 -6 -54 -10q-36 -3 -130 -3h-162q-64 0 -93 6q-23 3 -41 10q-13 10 -18 24q-4 13 -4 22v414q0 28 -12 54zM862 814q43 -20 72 -36q8 -8 8 -14q0 -5 -14 -10q-22 -6 -36 -6q-37 -54 -64 -87q-30 -34 -61 -57
q-35 -30 -77 -53q-44 -22 -84 -33l-8 12q52 24 79 40q30 18 51 42q26 21 56 61q29 37 49 73q16 28 29 68zM888 610q42 -20 68 -36q12 -8 12 -12q0 -6 -17 -12q-19 -6 -37 -6q-41 -51 -70 -79q-36 -30 -73 -54q-39 -24 -88 -47q-49 -20 -95 -32l-8 14q60 20 90 37
q35 19 60 38q30 22 66 59q32 35 55 67q18 26 37 63zM910 420q43 -17 71 -34q9 -9 9 -14t-14 -10q-22 -4 -38 -4q-44 -49 -80 -78q-39 -30 -79 -50q-43 -27 -97 -46q-55 -22 -108 -32l-8 12q69 23 102 36q39 20 67 38q33 22 74 56q38 34 61 66q23 26 40 60zM518 822
q25 -12 48 -30q18 -9 26 -19q5 -6 9 -16q1 -5 1 -9q0 -32 -28 -32q-2 0 -5 2q-5 3 -8 12q-7 17 -16 28q-8 15 -18 25q-11 12 -23 21z" />
  </g>

</svg>
