<?xml version="1.0" standalone="no"?>
<!DOCTYPE svg PUBLIC "-//W3C//DTD SVG 1.1//EN" "http://www.w3.org/Graphics/SVG/1.1/DTD/svg11.dtd" >
<svg xmlns="http://www.w3.org/2000/svg" xmlns:xlink="http://www.w3.org/1999/xlink" version="1.1" viewBox="0 -140 1000 1000">
  <g transform="matrix(1 0 0 -1 0 860)">
   <path fill="currentColor"
d="M829 881l48 49h14l57 -57v-14h-333l-83 -118h208l31 28h15l52 -46l-1 -13l-25 -20v-265l-5 -9l-49 -15l-10 8v29h-147v-283q0 -55 -18.5 -72.5t-90.5 -33.5l-10 8l1 29l-99 36l4 13l101 -8q24 -2 36 10.5t12 38.5v262h-153v-29l-8 -12l-47 -11l-9 6v377l68 -28h119
l26 118h-311v-124.5t-1.5 -109t-4 -103t-7.5 -89.5t-13 -87.5t-19.5 -77t-26.5 -77t-35.5 -70t-45.5 -72.5l-14 8q58 111 80 239t22 333v52l-1 51v52q0 84 1 125l71 -28h601zM384 460h364v121h-364v-121zM384 603h364v116h-364v-116zM215 93l-9 10q67 67 103.5 121.5
t74.5 143.5l83 -49l-9 -15h-28q-51 -78 -96.5 -122t-118.5 -89zM674 337l7 11q130 -52 185 -91t55 -82q0 -46 -18 -46q-17 0 -55 48q-62 81 -174 160z" />
  </g>

</svg>
