<?xml version="1.0" standalone="no"?>
<!DOCTYPE svg PUBLIC "-//W3C//DTD SVG 1.1//EN" "http://www.w3.org/Graphics/SVG/1.1/DTD/svg11.dtd" >
<svg xmlns="http://www.w3.org/2000/svg" xmlns:xlink="http://www.w3.org/1999/xlink" version="1.1" viewBox="0 -200 1000 1000">
  <g transform="matrix(1 0 0 -1 0 800)">
   <path fill="currentColor"
d="M376 3v-6q-8 -11 -24.5 -19t-28.5 -8l-1 233l-234 -101l-50 67q15 2 25.5 4t21.5 5t25 7t35 9v653h-19l-49 -12l-17 32h344l50 48l64 -68h-142v-599l112 28l5 -5l-118 -48zM195 847v-189h128v189h-128zM195 637v-191h128v191h-128zM195 422v-213l127 28v185h-127zM389 7
q42 9 83 40t75.5 69t60 75t36.5 59q18 -36 40 -66.5t45 -56t46 -45.5t43 -35q19 14 49.5 20t58.5 6q5 0 9.5 -0.5t9.5 -0.5l3 10q-100 24 -168.5 83t-110.5 140q20 43 36 96.5t27.5 113t18.5 123t9 127.5l43 40l-69 51l-38 -46h-235l20 -37l50 15q2 -169 26 -284.5
t56 -187.5q-20 -50 -49.5 -100.5t-62 -93t-64 -72.5t-55.5 -40zM555 788h150v-19q0 -49 -5.5 -103.5t-15 -108t-22 -104t-26.5 -91.5q-23 54 -46 158.5t-35 267.5z" />
  </g>

</svg>
