<?xml version="1.0" standalone="no"?>
<!DOCTYPE svg PUBLIC "-//W3C//DTD SVG 1.1//EN" "http://www.w3.org/Graphics/SVG/1.1/DTD/svg11.dtd" >
<svg xmlns="http://www.w3.org/2000/svg" xmlns:xlink="http://www.w3.org/1999/xlink" version="1.1" viewBox="0 -140 1000 1000">
  <g transform="matrix(1 0 0 -1 0 860)">
   <path fill="currentColor"
d="M288 773l30 30h15l51 -39v-15l-27 -23l1 -435l-7 -13l-46 -15l-12 7l-1 51h-135l-1 -56l-7 -12l-46 -15l-11 5v563l74 -32zM293 342l-1 410h-136v-410h137zM499 402v514l97 -22v-14l-33 -15v-421q178 187 269 354l75 -73l-7 -14l-35 4l-130 -147q-60 -70 -172 -182
l1 -172q0 -48 15.5 -63.5t62.5 -15.5h145q57 0 78 54l48 125l15 -3l-21 -155l31 -23v-18q-52 -37 -101 -37l-231 1q-61 0 -84 19t-23 69l1 163q-100 -126 -310 -200l-11 16q184 75 320 256z" />
  </g>

</svg>
