<?xml version="1.0" standalone="no"?>
<!DOCTYPE svg PUBLIC "-//W3C//DTD SVG 1.1//EN" "http://www.w3.org/Graphics/SVG/1.1/DTD/svg11.dtd" >
<svg xmlns="http://www.w3.org/2000/svg" xmlns:xlink="http://www.w3.org/1999/xlink" version="1.1" viewBox="0 -204 1024 1024">
  <g transform="matrix(1 0 0 -1 0 820)">
   <path fill="currentColor"
d="M42 858l60 -44h146l32 44q34 -24 52 -43q8 -9 8 -15q0 -9 -42 -30v-421q24 -18 43 -31q5 -4 5 -8q0 -18 -6 -18h-246v-48q0 -12 -18 -12q-9 0 -24 6q-10 8 -10 24t3 46q5 22 5 96v384q0 41 -8 70zM94 320h162v466h-162v-466zM530 954q51 -19 86 -37q8 -5 8 -11
q0 -9 -21 -14q-21 -4 -33 -4q-22 -59 -53 -114h331l50 58q40 -30 77 -57q7 -6 7 -15q0 -16 -14 -16h-466q-27 -45 -56 -83q-35 -45 -88 -91l-16 10q46 53 78 99q23 41 49 92q24 49 40 93q13 41 21 90zM408 574q37 -8 110 -8h202l40 36q80 -55 80 -70q0 -18 -80 -18
q-29 -23 -121 -121q-90 -99 -133 -150q-43 -53 -62 -85q-10 -15 -10 -34q0 -7 2 -12q6 -7 19 -10q17 -6 65 -11q58 -5 159 -5q82 0 154 10q52 6 62 16q11 15 13 32q11 36 28 166l22 -4q-12 -102 -12 -142q0 -22 16 -32q24 -17 24 -34q0 -11 -11 -21q-12 -13 -50 -19
q-36 -11 -107 -16q-62 -6 -139 -6q-117 0 -178 10q-48 4 -75 16q-23 9 -35 26q-7 15 -7 36q0 18 8 34q11 26 46 71q36 50 274 307h-194q-79 0 -94 -4z" />
  </g>

</svg>
