<?xml version="1.0" standalone="no"?>
<!DOCTYPE svg PUBLIC "-//W3C//DTD SVG 1.1//EN" "http://www.w3.org/Graphics/SVG/1.1/DTD/svg11.dtd" >
<svg xmlns="http://www.w3.org/2000/svg" xmlns:xlink="http://www.w3.org/1999/xlink" version="1.1" viewBox="0 -204 1024 1024">
  <g transform="matrix(1 0 0 -1 0 820)">
   <path fill="currentColor"
d="M52 894q44 -12 117 -12h675l48 55q40 -30 75 -57q9 -5 9 -12q0 -14 -16 -14h-392q-21 -37 -44 -68v-43l1 1q112 -35 196 -74q90 -40 137 -71q52 -30 73 -49q20 -16 28 -31q6 -15 6 -26q0 -21 -17 -21q-14 0 -28 6q-16 5 -51 35q-45 42 -100 77q-52 37 -117 73
q-59 32 -128 60v-209q0 -23 1 -31v-29q0 -34 -30 -34q-26 0 -26 18q0 20 3 54q4 34 4 60v175q-51 -58 -112 -107q-57 -47 -131 -96q-73 -45 -179 -96l-14 20q107 56 181 108q73 49 132 109q56 49 96 105q35 45 55 84h-335q-71 -2 -97 -7zM208 437l61 -43h485l34 42
q37 -23 55 -43q7 -7 7 -13q0 -9 -39 -32v-215q16 -12 28 -22q5 -3 5 -7q0 -14 -10 -14h-574v-46q0 -12 -16 -12q-9 0 -24 6q-12 9 -12 24q0 18 3 47q4 22 4 97v160q0 41 -7 71zM260 118h504v248h-504v-248z" />
  </g>

</svg>
