<?xml version="1.0" standalone="no"?>
<!DOCTYPE svg PUBLIC "-//W3C//DTD SVG 1.1//EN" "http://www.w3.org/Graphics/SVG/1.1/DTD/svg11.dtd" >
<svg xmlns="http://www.w3.org/2000/svg" xmlns:xlink="http://www.w3.org/1999/xlink" version="1.1" viewBox="0 -204 1024 1024">
  <g transform="matrix(1 0 0 -1 0 820)">
   <path fill="currentColor"
d="M270 427l63 -30h487l35 33q51 -36 51 -50q0 -10 -30 -25v-217q18 -15 34 -27q6 -4 6 -8q0 -14 -11 -14h-586v-31q0 -10 -11 -16q-15 -6 -25 -6q-13 0 -13 14q0 4 1 14q1 23 1 42v253q0 49 -2 68zM319 117h509v252h-509v-252zM455 964q28 -17 50 -34q23 -15 38 -30
q16 -15 22 -26q5 -11 5 -21q0 -21 -6 -31h282l28 28q56 -38 56 -53q0 -11 -32 -28v-158q0 -25 1 -33t1 -17q0 -23 -37 -29q-17 0 -17 11v21h-631l-6 -108q-3 -74 -18 -152q-10 -62 -27 -115q-16 -48 -42 -92q-22 -38 -60 -77l-14 11q25 33 43 73q18 36 30 76q14 45 24 104
q11 68 15 141q8 93 8 211q1 138 -4 220l51 -34h308q-2 5 -3 10q-6 21 -18 41q-12 21 -27 38q-14 18 -38 39zM216 592h630v194l-2 8h-627l-1 -4v-198z" />
  </g>

</svg>
