<?xml version="1.0" standalone="no"?>
<!DOCTYPE svg PUBLIC "-//W3C//DTD SVG 1.1//EN" "http://www.w3.org/Graphics/SVG/1.1/DTD/svg11.dtd" >
<svg xmlns="http://www.w3.org/2000/svg" xmlns:xlink="http://www.w3.org/1999/xlink" version="1.1" viewBox="0 -410 2048 2048">
  <g transform="matrix(1 0 0 -1 0 1638)">
   <path fill="currentColor"
d="M687 1849q86 -17 222 -17h313l59 79l106 -79q27 -20 27 -46q0 -16 -12 -23q-9 -5 -30 -7q-17 -2 -49 -12q-76 -115 -242 -314l50 -17q30 -10 30 -31t-36 -30l-44 -12v-287l73 32q179 79 233 111l23 -35q-84 -58 -224 -135q-66 -37 -105 -57v-702q0 -84 -58 -127
q-36 -27 -127 -44q-11 46 -28.5 64.5t-60.5 32.5q-18 6 -166 36v46q197 -33 255 -33q89 0 89 75v606q-52 -24 -118 -50q-41 -15 -77 -32q-7 -74 -31 -74q-15 0 -77 124l-19 36q142 27 322 88v246q-6 158 -15 209l68 -23q111 161 176 330h-305q-140 0 -192 -8zM1461 1951
l109 -24q86 -19 86 -46q0 -24 -50 -42l-44 -16v-1492q0 -65 24 -81q24 -17 124 -17q102 0 127 22q20 16 33 125q2 15 26 289l33 -6v-340q5 -35 19 -51q5 -7 40 -31q16 -11 16 -28q0 -68 -332 -68q-109 0 -150 22q-54 29 -54 120v1556q-3 88 -7 108zM148 1787l118 -88h241
l68 77l84 -55q40 -27 40 -48q0 -28 -78 -62v-860l42 -33q14 -11 14 -28q0 -21 -14 -21h-409v-94q-3 -26 -36 -26q-62 0 -62 70l6 276v754q-3 85 -14 138zM254 727h267v914h-267v-914z" />
  </g>

</svg>
