<?xml version="1.0" standalone="no"?>
<!DOCTYPE svg PUBLIC "-//W3C//DTD SVG 1.1//EN" "http://www.w3.org/Graphics/SVG/1.1/DTD/svg11.dtd" >
<svg xmlns="http://www.w3.org/2000/svg" xmlns:xlink="http://www.w3.org/1999/xlink" version="1.1" viewBox="0 -410 2048 2048">
  <g transform="matrix(1 0 0 -1 0 1638)">
   <path fill="currentColor"
d="M1789 335q-38 -9 -129 -29q-401 -87 -771 -144l-7 -38q-6 -30 -24 -30t-29 21l-74 138q56 29 172 219q133 219 219 421h-177q-117 0 -192 -8l-40 88q91 -23 232 -23h276v550h-166q-121 0 -190 -7l-40 87q95 -26 230 -26h166v248q-4 138 -8 161l110 -24q85 -19 85 -46
q0 -26 -50 -42l-35 -11v-286h284l96 114l136 -105q25 -19 25 -36q0 -27 -33 -27h-508v-550h373l94 111l144 -111q19 -15 19 -29q0 -28 -33 -28h-668q-132 -224 -190 -313q-93 -140 -233 -312q486 36 875 101l42 7q-52 120 -193 309l36 32q346 -351 346 -535q0 -39 -21 -65
q-16 -19 -39 -19q-22 0 -34 17q-13 19 -40 108q-20 70 -36 112zM155 1753l122 -88h275l68 77l84 -55q40 -26 40 -48q0 -28 -77 -62v-837l59 -47q17 -14 17 -26q0 -21 -17 -21h-459v-88q-3 -22 -40 -22q-64 0 -64 63q0 65 3 96q5 45 5 185v734q-2 78 -16 139zM267 704h301
v902h-301v-902z" />
  </g>

</svg>
