<?xml version="1.0" standalone="no"?>
<!DOCTYPE svg PUBLIC "-//W3C//DTD SVG 1.1//EN" "http://www.w3.org/Graphics/SVG/1.1/DTD/svg11.dtd" >
<svg xmlns="http://www.w3.org/2000/svg" xmlns:xlink="http://www.w3.org/1999/xlink" version="1.1" viewBox="0 -140 1000 1000">
  <g transform="matrix(1 0 0 -1 0 860)">
   <path fill="currentColor"
d="M503 931l97 -39l-4 -17l-34 -4l-28 -53h154l36 31h14l51 -69l-8 -13l-31 -5l-72 -86h163l30 35h15l57 -53v-13l-28 -22v-489q0 -44 -21 -61t-95 -33l-10 7v33l-97 33v14l112 -6q4 -1 19 -1q30 0 30 41v184h-372q-12 -108 -51.5 -173t-136.5 -140l-11 11q82 90 109 169.5
t27 234.5v176q-55 -62 -101 -105l-13 9q67 85 112 175t87 229zM700 527h153v127h-153v-127zM645 676l47 119h-167l-58 -101l24 -18h154zM700 504v-138h153v138h-153zM481 527h154v127h-154v-127zM635 504h-154v-138h154v138zM218 811l29 33h15l50 -54v-13l-23 -13v-504
l-7 -15l-44 -12l-10 8v58h-101v-97l-6 -13l-46 -12l-10 8v664l62 -38h91zM127 323h101v467h-101v-467z" />
  </g>

</svg>
