<?xml version="1.0" standalone="no"?>
<!DOCTYPE svg PUBLIC "-//W3C//DTD SVG 1.1//EN" "http://www.w3.org/Graphics/SVG/1.1/DTD/svg11.dtd" >
<svg xmlns="http://www.w3.org/2000/svg" xmlns:xlink="http://www.w3.org/1999/xlink" version="1.1" viewBox="0 -204 1024 1024">
  <g transform="matrix(1 0 0 -1 0 820)">
   <path fill="currentColor"
d="M42 888l60 -44h112l34 44q36 -20 51 -42q7 -8 7 -14q0 -8 -40 -32v-406q16 -11 28 -22q4 -4 4 -8q0 -14 -6 -14h-198v-52q0 -14 -18 -14q-9 0 -24 6q-10 10 -10 24q0 16 3 46q5 23 5 96v366q0 39 -8 66zM94 376h128v442h-128v-442zM526 964q47 -12 86 -33q8 -6 8 -11
q0 -7 -15 -12q-22 -6 -43 -6q-16 -26 -41 -46q-21 -25 -50 -46q-25 -22 -50 -37q-13 -11 -31 -19q64 2 115 5q69 4 154 11q70 5 158 13q-10 10 -20 19q-29 28 -81 64l10 10q49 -21 86 -46q39 -20 58 -37q23 -13 32 -23q7 -12 12 -21q6 -6 6 -15q-1 -32 -24 -32q-8 0 -15 2
q-8 5 -30 40q-7 9 -15 17q-65 -10 -116 -17v-112q0 -42 2 -52q3 -11 12 -16q18 -8 41 -14q34 -6 71 -6q20 0 49 5q16 5 27 12q7 5 10 5q17 0 30 -8q14 -11 14 -26q0 -6 -2 -9q-3 -5 -16 -8q-15 -7 -48 -10q-39 -5 -59 -5q-48 0 -96 11q-44 5 -60 15q-10 5 -14 17
q-5 12 -8 31q-1 16 -1 62v103q-66 -8 -122 -14q-6 -47 -13 -73q-11 -30 -26 -54q-18 -32 -42 -57q-26 -21 -62 -45q-39 -21 -97 -44l-8 18q50 20 81 43q28 17 49 41q22 20 37 48q11 24 19 53q9 27 13 63q-49 -6 -103 -10q-10 -36 -14 -36q-8 0 -48 80h10q38 24 63 47
q30 31 60 64q28 34 45 66q9 18 12 35zM526 518q98 -21 98 -36q0 -16 -58 -18q-15 -25 -31 -48h221l40 36q32 -24 56 -45q6 -5 6 -13q0 -6 -14 -16q-16 -9 -36 -14q-57 -88 -111 -136q-22 -26 -44 -42q38 -25 89 -46q67 -32 130 -45q59 -19 118 -27v-10q-59 0 -70 -38
q-90 26 -146 54q-77 31 -133 73q-10 7 -18 13q-11 -6 -18 -10q-51 -30 -109 -54q-67 -29 -132 -46q-71 -24 -160 -36l-4 14q113 27 165 45q50 19 124 48q55 26 105 62q-36 27 -63 58q-37 43 -69 94q-38 -35 -80 -64q-56 -39 -116 -67l-10 22q60 36 96 60q34 27 74 70
q34 34 62 80q23 34 38 82zM479 355q37 -53 70 -86q36 -37 74 -64q32 30 64 70q44 46 77 115h-252q-15 -21 -33 -35z" />
  </g>

</svg>
