<?xml version="1.0" standalone="no"?>
<!DOCTYPE svg PUBLIC "-//W3C//DTD SVG 1.1//EN" "http://www.w3.org/Graphics/SVG/1.1/DTD/svg11.dtd" >
<svg xmlns="http://www.w3.org/2000/svg" xmlns:xlink="http://www.w3.org/1999/xlink" version="1.1" viewBox="0 -204 1024 1024">
  <g transform="matrix(1 0 0 -1 0 820)">
   <path fill="currentColor"
d="M442 960q25 -12 41 -28q22 -12 33 -23q13 -12 19 -23q5 -9 5 -16q0 -23 -6 -36q-4 -3 -6 -4h324l46 54q40 -27 77 -54q7 -5 7 -12q0 -18 -14 -18h-291q33 -12 55 -22q6 -6 6 -14q0 -9 -15 -12q-21 -4 -29 -4q-12 -26 -25 -50q-15 -25 -30 -42q-12 -14 -28 -28h241l32 44
q36 -20 52 -42q6 -8 6 -14q0 -8 -40 -32v-472q0 -34 -14 -50q-15 -16 -36 -27q-22 -11 -38 -11q0 25 -9 35q-12 11 -42 20q-35 12 -77 15v22q77 -14 136 -14q23 0 30 4q6 5 6 28v468h-248v-40q0 -43 3 -54q2 -12 12 -18q14 -6 34 -11q29 -5 62 -5q16 0 41 5q12 2 20 9
q5 4 10 4q18 0 29 -6q15 -10 15 -26q0 -7 -2 -11q-4 -3 -13 -6q-13 -5 -44 -8q-34 -5 -52 -5q-43 0 -86 8q-42 6 -53 15q-9 5 -15 19q-5 11 -8 29q-1 18 -1 65v36h-148q-5 -40 -14 -65q-9 -23 -23 -46q-18 -28 -40 -45q-25 -20 -59 -41q-37 -18 -92 -37l-8 22q46 16 75 36
q26 14 45 32q18 19 34 39q10 23 17 45q8 26 11 60h-204v-570q0 -12 -22 -12q-7 0 -20 6q-12 8 -12 24t3 46q7 22 7 96v414q0 39 -10 66l62 -44h197l-2 2q-5 4 -8 26q-5 26 -15 48q-10 25 -24 45q-12 23 -32 47l5 4h-125q-72 -1 -98 -4l-20 44q44 -10 118 -10h339q-3 5 -5 12
q-6 21 -16 37q-9 20 -20 36q-12 14 -32 35zM384 628h202q14 26 25 45q11 22 21 45q8 26 14 46q4 19 7 36h-349q22 -17 36 -33q21 -21 35 -38q13 -20 18 -33t5 -28q0 -18 -6 -29q-4 -9 -8 -11zM324 398l60 -34h240l26 34q52 -33 52 -44t-26 -30v-119q11 -9 21 -16q5 -3 5 -7
q0 -18 -8 -18h-322v-18q0 -9 -14 -15q-15 -7 -22 -7q-12 0 -12 14v260zM372 192h256v144h-256v-144z" />
  </g>

</svg>
