<?xml version="1.0" standalone="no"?>
<!DOCTYPE svg PUBLIC "-//W3C//DTD SVG 1.1//EN" "http://www.w3.org/Graphics/SVG/1.1/DTD/svg11.dtd" >
<svg xmlns="http://www.w3.org/2000/svg" xmlns:xlink="http://www.w3.org/1999/xlink" version="1.1" viewBox="0 -140 1000 1000">
  <g transform="matrix(1 0 0 -1 0 860)">
   <path fill="currentColor"
d="M75 849l65 -29h72l31 28h13l53 -43v-14l-25 -18v-420l-8 -16l-48 -11l-8 4v67h-82v-72l-5 -11l-47 -13l-11 5v543zM138 418h82v381h-82v-381zM362 58v534q-25 -39 -59 -77l-11 9q50 90 79 168t70 237l86 -33l-2 -15l-28 -9q-38 -109 -70 -177l18 -12v-13l-18 -13l-5 -591
l-52 -16zM599 573h212l34 40h12l48 -49v-13h-172v-81l-3 -71h108l45 46h13l49 -53v-14l-209 -1q34 -95 82 -148.5t127 -84.5l-3 -14q-25 -3 -37 -11t-25 -30q-70 52 -104 112t-51 162q-27 -118 -90.5 -184.5t-194.5 -110.5l-5 11q111 61 161.5 127t64.5 171l-217 1v21l220 1
l5 67v84h-80q-41 -67 -110 -137l-11 6q41 66 62.5 123.5t40.5 153.5l87 -34v-13l-28 -7q-2 -4 -31 -70zM454 726h305v142h-214v22h205l32 29h16l54 -39v-15l-29 -18v-121h26l32 44h14l50 -51v-14l-491 -1v22z" />
  </g>

</svg>
