<?xml version="1.0" standalone="no"?>
<!DOCTYPE svg PUBLIC "-//W3C//DTD SVG 1.1//EN" "http://www.w3.org/Graphics/SVG/1.1/DTD/svg11.dtd" >
<svg xmlns="http://www.w3.org/2000/svg" xmlns:xlink="http://www.w3.org/1999/xlink" version="1.1" viewBox="0 -200 1002 1000">
  <g transform="matrix(1 0 0 -1 0 800)">
   <path fill="currentColor"
d="M372 612l54 -31h316l38 45l63 -50l-33 -43v-145h-173l-9 -14v-92h173l52 47l76 -71h-301v-119h174l49 45l72 -70h-295v-117q-10 -18 -24 -22.5t-29 -4.5v144h-221l-27 -26l-43 47q18 10 29.5 21t20 25t14 32.5t11.5 44.5h-37l-57 -14l-23 38h333v106h-152v-26
q-11 -17 -28.5 -20.5t-27.5 -7.5v278h5zM740 857l56 -52l-35 -35l-17 -91h72l56 47l72 -71h-578l-57 -13l-17 37h168l14 114h-70l-48 -10l-16 35h138l17 153l77 -36l-32 -60l-8 -57h173zM422 412h332v146h-332v-146zM513 679h174l19 114h-176zM432 213l-27 -10l-41 -64h211
v119h-204zM114 809h110l39 49l56 -56l-32 -38v-248h-184v-62q0 -9 -5.5 -15t-14 -10t-17.5 -6.5t-16 -3.5v435zM103 773v-235h132v246h-121z" />
  </g>

</svg>
