<?xml version="1.0" standalone="no"?>
<!DOCTYPE svg PUBLIC "-//W3C//DTD SVG 1.1//EN" "http://www.w3.org/Graphics/SVG/1.1/DTD/svg11.dtd" >
<svg xmlns="http://www.w3.org/2000/svg" xmlns:xlink="http://www.w3.org/1999/xlink" version="1.1" viewBox="0 -140 1000 1000">
  <g transform="matrix(1 0 0 -1 0 860)">
   <path fill="currentColor"
d="M570 680v87l91 -21v-13l-31 -13v-40h91l32 36h14l50 -43v-15l-79 1l28 -20l-7 -11h-25l-79 -65q53 -22 72 -37t19 -38q0 -28 -21 -28q-8 0 -24 13q-38 29 -89 57q-76 -48 -164 -78l-6 13q73 40 130 86q-44 26 -109 53l6 13l47 -12l88 -22q49 44 76 76l-278 -1v22h168z
M306 750v-459l-7 -13l-48 -15l-9 7v42h-102v-60l-4 -9l-49 -13l-8 6v589l63 -31h89l29 31h11l56 -43v-14zM140 773v-440h102v440h-102zM774 416h-153l32 -17l-3 -14l-29 -3l-37 -59h233l25 29h14l58 -50v-15l-24 -15v-146q0 -41 -16.5 -58t-71.5 -31l-15 6v28l-94 30l1 15
l101 -5q16 -1 23.5 9t7.5 30v152h-253l-65 -94l204 10q-18 34 -38 59l10 10q107 -69 107 -117q0 -13 -8.5 -26t-17.5 -13q-14 0 -31 38q-7 17 -15 29l-233 -44l-30 -23l-25 76q27 0 37.5 4.5t18.5 21.5l31 69h-132l1 -234l-5 -13l-48 -15l-11 6v306l60 -29h142l38 93h-124
l-19 -25l-58 30l8 23l1 193l90 -20v-15l-26 -14v-151h339v193l92 -21v-15l-27 -12l-1 -161l-6 -15l-45 -15l-13 8v17zM647 881h-28q82 -67 147.5 -101.5t160.5 -59.5l-3 -15q-39 -8 -53 -41q-94 49 -151 92.5t-116 111.5q-74 -88 -138 -136t-151 -81l-9 11q87 54 142.5 112
t118.5 162l84 -40z" />
  </g>

</svg>
