<?xml version="1.0" standalone="no"?>
<!DOCTYPE svg PUBLIC "-//W3C//DTD SVG 1.1//EN" "http://www.w3.org/Graphics/SVG/1.1/DTD/svg11.dtd" >
<svg xmlns="http://www.w3.org/2000/svg" xmlns:xlink="http://www.w3.org/1999/xlink" version="1.1" viewBox="0 -200 1000 1000">
  <g transform="matrix(1 0 0 -1 0 800)">
   <path fill="currentColor"
d="M702 720h-73l-17 -19q-24 -42 -49.5 -70.5t-48.5 -46.5t-44 -28.5t-36 -17.5l-1 -21h202v43l-14 76l84 -19l-17 -59v-41h111l48 45l75 -67h-490q-2 -36 -3.5 -74.5t-5 -77.5t-10 -78t-18.5 -77q-10 -33 -24.5 -63t-35.5 -58t-50.5 -52.5t-68.5 -45.5l-8 3q46 39 76 83
t49 98.5t28 123.5t13 159q2 57 2.5 121t0.5 142v20h-3l-57 -12l-23 34h59q35 27 63 52.5t51 52.5t41 57.5t33 66.5l72 -51l-30 -14q-12 -14 -24 -25t-25 -23h185l49 43l51 -65l-37 -16q-32 -19 -58.5 -36.5t-59.5 -41.5h156l56 44l67 -65h-191v-54q0 -10 3.5 -14.5
t20.5 -4.5h54q10 1 15.5 6t8 13.5t3.5 19.5t3 24l3 1q2 -31 8.5 -44.5t14 -18.5t13.5 -6.5t6 -8.5q0 -9 -19.5 -17.5t-53.5 -8.5h-83q-17 0 -31.5 8.5t-15.5 37.5v67zM534 189h260l36 38l53 -51l-28 -31v-121h-332v-38q-16 -14 -28.5 -16.5t-24.5 -2.5v254zM523 135v-88h280
v120h-270zM637 741l19 19t24 25.5t21.5 26.5t12.5 22h-204q-45 -38 -80 -63t-57 -30h264zM435 698l-1 -148q29 22 50 45.5t34.5 46t21 42.5t9.5 35h-107zM757 412l44 41l66 -62h-324l-59 -12l-22 33h295zM766 304l45 39l64 -60h-330l-62 -12l-16 33h299zM122 809h110l39 49
l56 -56l-32 -38v-248h-184v-62q0 -9 -5.5 -15t-14 -10t-17.5 -6.5t-16 -3.5v435zM111 773v-235h132v246h-121z" />
  </g>

</svg>
