<?xml version="1.0" standalone="no"?>
<!DOCTYPE svg PUBLIC "-//W3C//DTD SVG 1.1//EN" "http://www.w3.org/Graphics/SVG/1.1/DTD/svg11.dtd" >
<svg xmlns="http://www.w3.org/2000/svg" xmlns:xlink="http://www.w3.org/1999/xlink" version="1.1" viewBox="0 -410 2048 2048">
  <g transform="matrix(1 0 0 -1 0 1638)">
   <path fill="currentColor"
d="M1658 1185l61 74l72 -50q43 -29 43 -49t-59 -55v-247q0 -38 7 -103q3 -30 3 -45q0 -48 -67 -48q-38 0 -38 25v33h-715v-28q0 -31 -52 -31q-53 0 -53 45q0 3 4 48q6 95 6 104v393l121 -66h667zM965 776h715v152h-715v-152zM965 986h715v145h-715v-145zM1217 1962
q154 -94 154 -157q0 -42 -38 -69h333l97 96l114 -87q31 -24 31 -38q0 -25 -25 -25h-270l99 -40q44 -18 44 -42q0 -29 -40 -26l-50 4q-67 -100 -136 -194h233l96 96l122 -92q21 -16 21 -33q0 -25 -21 -25h-1069q-120 0 -192 -10l-38 90q106 -26 230 -26h179q-26 100 -64 168
q-15 27 -74 104l23 26h-23q-53 0 -141 -9l-42 89q96 -26 183 -26h338q-4 5 -11 37q-17 72 -93 165zM1143 1384h324q76 157 120 298h-598q186 -143 186 -243q0 -30 -32 -55zM774 578h45q-2 -146 -39 -241q-55 -143 -163 -143q-52 0 -52 51q0 33 67 73q88 52 118 146
q16 49 24 114zM993 659l102 -18q64 -11 72 -19q12 -9 12 -21q0 -18 -31 -30l-57 -24v-256q0 -33 45 -53q43 -19 198 -19q205 0 250 35q27 21 55 213l41 -16v-110q0 -62 32 -92q33 -30 33 -43q0 -42 -72 -57q-89 -19 -304 -19q-209 0 -285 25q-81 28 -81 104v288
q0 54 -10 112zM1285 658q247 -117 247 -214q0 -58 -50 -58q-18 0 -33 15q-9 9 -42 67q-40 70 -143 152zM1722 609q264 -193 264 -314q0 -63 -49 -63q-44 0 -65 71q-41 138 -180 278zM516 1673l68 77l84 -55q40 -26 40 -48t-29 -39q-1 -1 -50 -24v-803l39 -33q17 -15 17 -27
q0 -24 -17 -24h-405v-102q0 -26 -39 -26q-65 0 -65 56q0 30 3 79q5 71 5 209v671q0 112 -16 177l122 -88h243zM263 753h271v867h-271v-867z" />
  </g>

</svg>
