<?xml version="1.0" standalone="no"?>
<!DOCTYPE svg PUBLIC "-//W3C//DTD SVG 1.1//EN" "http://www.w3.org/Graphics/SVG/1.1/DTD/svg11.dtd" >
<svg xmlns="http://www.w3.org/2000/svg" xmlns:xlink="http://www.w3.org/1999/xlink" version="1.1" viewBox="0 -140 1000 1000">
  <g transform="matrix(1 0 0 -1 0 860)">
   <path fill="currentColor"
d="M378 482h193l35 39l15 -1l48 -49v-12h-292q-14 -168 -44 -248.5t-105 -155.5l-9 8q62 78 81.5 174.5t19.5 284.5v270l64 -20h44v154l90 -15v-12l-30 -15v-31h64l35 39l13 1l49 -50v-12h-161v-59h133l24 25h13l45 -45l-4 -12l-23 -2l-48 -51l-9 6l16 56h-255v-116l48 7
v100l87 -13v-12l-27 -18v-44l44 7l17 42l12 2l43 -31l2 -15l-118 -25q0 -42 6 -53t30 -11h33q36 0 48 23l24 46l10 -4l-5 -66l21 -10v-13q-20 -17 -72 -17h-64q-62 0 -76.5 16t-14.5 76l-48 -8v-68q0 -18 -2 -62zM559 400l28 28h17l49 -36v-16l-16 -16v-84l-4 -10l-54 -7
l-4 9l1 11h-126q0 -12 -4 -24l-50 -6l-7 10l1 164l63 -23h106zM576 377h-126v-75h126v75zM630 232l-1 -9l-19 -5q-37 -40 -64 -64q29 4 119 24l3 -13q-15 -5 -25 -10q-92 -33 -194 -62l-63 -18l-5 -23l-11 -4l-37 74l135 18q-16 6 -20.5 13t-6.5 28q-3 34 -18 56l8 7
q58 -37 58 -74q0 -9 -8 -27l47 9q21 35 47 101zM803 907v-10l-27 -13l-5 -259l85 14l25 43l15 1l38 -33l2 -16l-163 -27q5 -164 26 -259q21 84 36 169l78 -25l-3 -14l-22 -6q-28 -110 -67 -207l13.5 -40.5t11 -29t12 -21.5t11.5 -6q8 0 27 30l27 64l12 -8l-21 -132l26 -44
l-5 -15q-49 0 -81.5 30t-69.5 115q-78 -93 -175 -153l-8 9q91 66 162 198q-37 142 -45 338l-64 -10l-3 20l67 10v111q0 71 2 193zM825 854l4 8q80 -53 80 -97q0 -17 -7 -30t-17 -13q-16 0 -22 32q-11 56 -38 100zM194 804l31 36h14l61 -49v-15l-27 -18l-1 -429l-6 -14
l-43 -5l-10 10v59h-74v-74l-5 -13l-46 -10l-8 10l-1 541l64 -29h51zM213 782h-74v-380h74v380z" />
  </g>

</svg>
