<?xml version="1.0" standalone="no"?>
<!DOCTYPE svg PUBLIC "-//W3C//DTD SVG 1.1//EN" "http://www.w3.org/Graphics/SVG/1.1/DTD/svg11.dtd" >
<svg xmlns="http://www.w3.org/2000/svg" xmlns:xlink="http://www.w3.org/1999/xlink" version="1.1" viewBox="0 -200 1000 1000">
  <g transform="matrix(1 0 0 -1 0 800)">
   <path fill="currentColor"
d="M249 -20q112 45 186 105.5t98 133.5h-72v-23q-12 -6 -26 -11t-26 -5h-3v340l65 -22h318l30 37l57 -52l-33 -32v-247q-12 -8 -25 -12t-25 -8v35h-73v-125q0 -2 -0.5 -3t-0.5 -3q0 -27 35 -27q2 0 4.5 0.5t5.5 0.5h100q28 0 33.5 29.5t9.5 90.5h7q2 -17 3 -33.5t4 -34.5
q1 -23 7.5 -31.5t15 -11t17 -4.5t13.5 -12q-2 -8 -11 -14.5t-21.5 -12t-27 -9t-26.5 -4.5h-153h-7q-31 0 -46 15t-15 39q0 10 1 11v139h-94l27 -38l-34 -31q-20 -35 -57 -65.5t-81.5 -54.5t-91 -40t-85.5 -22l-3 10v2zM345 947l56 -27h136l36 35l54 -55h-125v-90h43l24 36
l46 -37l-23 -26v-106h-90v-85h35l33 35l49 -55h-226l-33 -37l-46 45l32 28zM113 811h99l39 49l56 -60l-34 -34v-248h-171v-62q0 -9 -5.5 -15t-13 -10t-16.5 -6.5t-16 -3.5v435zM685 717h182l27 27l45 -39l-23 -20l1 -121q-10 -6 -21 -12t-21 -11v27h-198v-16q-12 -8 -23 -13
t-23 -6v203zM102 775v-235h121v246h-110zM793 307h-332v-67h332v67zM793 476h-318l-14 -31v-36h332v67zM793 388h-332v-60h332v60zM549 791h-156v-94h156v94zM759 935q-15 -9 -35 -47h101l38 40l57 -59h-208q-22 -42 -44.5 -74.5t-44.5 -58.5l-12 8q15 19 28.5 47.5
t24.5 59.5t18.5 61.5t10.5 54.5zM463 900h-62l-8 -36v-54h70v90zM463 677h-70v-85h70v85zM728 834q98 -24 117 -46q5 -6 7.5 -15t2.5 -18q0 -11 -4 -20.5t-12 -9.5q-10 0 -21 17t-35.5 37t-61.5 43zM834 588h41v109h-41v-109zM677 659v-71h40v109h-30zM757 588h38v109h-38
v-109z" />
  </g>

</svg>
