<?xml version="1.0" standalone="no"?>
<!DOCTYPE svg PUBLIC "-//W3C//DTD SVG 1.1//EN" "http://www.w3.org/Graphics/SVG/1.1/DTD/svg11.dtd" >
<svg xmlns="http://www.w3.org/2000/svg" xmlns:xlink="http://www.w3.org/1999/xlink" version="1.1" viewBox="0 -120 1000 1000">
  <g transform="matrix(1 0 0 -1 0 880)">
   <path fill="currentColor"
d="M118 49l-2 876l80 -42h617l22 40l80 -46q6 -4 6 -13t-9 -11l-22 -7l3 -776l-67 -13v46h-647v-41zM179 350v-223h647l1 729h-648v-193h353l26 40l70 -47q6 -4 6 -10q0 -9 -10 -12l-23 -6v-326l-62 -12v60h-360zM179 636v-259h361v259h-361z" />
  </g>

</svg>
