<?xml version="1.0" standalone="no"?>
<!DOCTYPE svg PUBLIC "-//W3C//DTD SVG 1.1//EN" "http://www.w3.org/Graphics/SVG/1.1/DTD/svg11.dtd" >
<svg xmlns="http://www.w3.org/2000/svg" xmlns:xlink="http://www.w3.org/1999/xlink" version="1.1" viewBox="0 -410 2048 2048">
  <g transform="matrix(1 0 0 -1 0 1638)">
   <path fill="currentColor"
d="M880 754h470l57 67l72 -49q43 -30 43 -49q0 -23 -67 -55q-36 -182 -48 -221q-50 -159 -243 -171v8q-2 50 -28 67q-46 31 -181 61l8 41q185 -46 257 -46q65 0 87 42q28 55 51 245h-492q-43 -148 -149 -242q-95 -83 -276 -155l-9 38q183 105 251 184q104 124 123 383h-222
q-67 0 -149 -10l-39 86q121 -19 188 -19h428q-30 116 -95 201l25 23q159 -103 159 -161q0 -32 -36 -63h364l99 101l120 -106q17 -15 17 -26q0 -26 -27 -26h-733q-15 -101 -25 -148zM1447 1606l57 68l72 -50q43 -29 43 -48q0 -23 -66 -55v-116q0 -71 7 -140q4 -41 4 -60
q0 -50 -61 -50q-48 0 -48 32v8h-863v-8q0 -40 -57 -40q-51 0 -51 44l12 205v280l118 -70h833zM592 1253h214v301h-214v-301zM902 1253h232v301h-232v-301zM1230 1253h225v301h-225v-301zM1702 1836l68 76l84 -54q40 -26 40 -48q0 -29 -79 -62v-1342l-4 -69q0 -18 6 -96
q5 -54 5 -114q0 -65 -67 -65q-21 0 -32 11q-9 10 -9 13v84h-1390v-84q0 -24 -43 -24q-47 0 -58 23q-7 15 -7 43l8 278v1324q0 129 -16 194l120 -88h1374zM324 226h1390v1552h-1390v-1552z" />
  </g>

</svg>
