<?xml version="1.0" standalone="no"?>
<!DOCTYPE svg PUBLIC "-//W3C//DTD SVG 1.1//EN" "http://www.w3.org/Graphics/SVG/1.1/DTD/svg11.dtd" >
<svg xmlns="http://www.w3.org/2000/svg" xmlns:xlink="http://www.w3.org/1999/xlink" version="1.1" viewBox="0 -410 2048 2048">
  <g transform="matrix(1 0 0 -1 0 1638)">
   <path fill="currentColor"
d="M1214 1755l-87 -404h484l68 76l84 -54q40 -26 40 -49q0 -32 -79 -61l-145 -1025h178l98 102l121 -107q17 -15 17 -25q0 -26 -28 -26h-1081q-74 0 -148 -10l-39 82q122 -16 187 -16h597l64 448h-568q-22 -11 -48 -11q-37 0 -37 21q0 12 7 43l218 1016h-160q-60 0 -148 -10
l-40 85q117 -18 188 -18h771l98 102l121 -107q17 -15 17 -25q0 -27 -34 -27h-716zM1553 743l77 551h-516l-119 -551h558zM339 1966l108 -24q88 -20 88 -45q0 -28 -50 -42l-38 -11v-99v-377h129l88 90l122 -94q15 -11 15 -25q0 -25 -23 -25h-331v-675q38 16 171 63
q129 53 181 72l16 -32q-137 -87 -326 -170q-241 -105 -310 -130q-10 -80 -25 -80q-20 0 -36 31l-67 137q48 7 92 21q136 42 207 60v703h-65q-116 0 -193 -8l-37 88q91 -26 230 -26h65v423q0 114 -11 175z" />
  </g>

</svg>
