<?xml version="1.0" standalone="no"?>
<!DOCTYPE svg PUBLIC "-//W3C//DTD SVG 1.1//EN" "http://www.w3.org/Graphics/SVG/1.1/DTD/svg11.dtd" >
<svg xmlns="http://www.w3.org/2000/svg" xmlns:xlink="http://www.w3.org/1999/xlink" version="1.1" viewBox="0 -410 2048 2048">
  <g transform="matrix(1 0 0 -1 0 1638)">
   <path fill="currentColor"
d="M1272 1185q-228 -39 -316 -51l-5 -53q-3 -26 -23 -26q-21 0 -37 33l-58 124q90 58 207 261q89 154 135 261h-224q-64 0 -150 -11l-39 86q27 -3 41 -5q86 -13 148 -13h765l98 101l121 -107q16 -14 16 -25q0 -26 -27 -26h-627q-15 -24 -61 -108q-113 -201 -308 -397l77 7
q562 58 682 77q-74 115 -155 204l25 27q329 -253 329 -387q0 -29 -16.5 -49t-39.5 -20q-37 0 -71 83q-14 34 -48 93q-92 -19 -317 -58q-59 -11 -97 -17l83 -18q85 -19 85 -45q0 -29 -49 -42l-42 -11v-303h309l99 102l120 -107q17 -15 17 -27q0 -27 -27 -27h-518v-471h382
l99 102l120 -107q17 -15 17 -26q0 -26 -27 -26h-1106q-64 0 -149 -11l-39 85q117 -17 188 -17h419v471h-300q-71 0 -148 -11l-40 86q120 -16 188 -16h300v265q-4 137 -6 150zM96 1234l-39 86q115 -19 188 -19h83v411q0 117 -8 160l110 -24q85 -19 85 -46q0 -28 -49 -41
l-42 -12v-448h91l99 102l120 -107q17 -15 17 -26q0 -26 -26 -26h-301v-686q107 35 301 134l19 -37q-226 -170 -564 -308l-8 -41q-7 -39 -22 -39q-17 0 -31 27l-70 140q137 26 279 82v728h-83q-76 0 -149 -10z" />
  </g>

</svg>
