<?xml version="1.0" standalone="no"?>
<!DOCTYPE svg PUBLIC "-//W3C//DTD SVG 1.1//EN" "http://www.w3.org/Graphics/SVG/1.1/DTD/svg11.dtd" >
<svg xmlns="http://www.w3.org/2000/svg" xmlns:xlink="http://www.w3.org/1999/xlink" version="1.1" viewBox="0 -410 2048 2048">
  <g transform="matrix(1 0 0 -1 0 1638)">
   <path fill="currentColor"
d="M859 1338q90 -20 209 -20h159l80 81l114 -86q17 -13 17 -26q0 -27 -27 -27h-350q-96 0 -165 -9l-37 85v-172q0 -435 -62 -661q-53 -196 -226 -394l-26 25q82 132 117 220q71 177 92 507q8 134 9 511v122q0 97 -8 216l112 -70h573q-7 227 -19 335l121 -24q95 -19 95 -46
q0 -31 -66 -50l-37 -10l8 -205h219l96 93l121 -93q18 -14 18 -36t-32 -22h-422q11 -486 75 -826q95 308 132 586l96 -34q88 -31 88 -58q0 -25 -58 -33l-37 -5q-56 -224 -75 -291q-45 -149 -112 -297q63 -165 137 -284q21 -34 33 -34q19 0 31 41l73 257l34 -6l-42 -254
q-8 -50 -8 -76q0 -34 16 -72q19 -48 19 -69q0 -35 -34 -35q-84 0 -194 168q-55 85 -125 250q-171 -262 -377 -413l-29 30q137 133 221 250q59 82 146 243q-85 320 -106 962h-587v-244zM933 1089l116 -66h199l60 72l72 -50q42 -28 42 -49q0 -16 -64 -53v-405l25 -26
q10 -10 10 -21q0 -22 -27 -22h-341v-42q0 -37 -44 -37q-63 0 -60 48l4 61q8 130 8 142v448zM1025 969v-444h239v444h-239zM304 1941l109 -24q86 -19 86 -45q0 -28 -50 -42l-43 -11v-462h77l98 101l121 -105q16 -14 16 -26q0 -28 -26 -28h-286v-667q152 57 266 111l20 -39
q-262 -175 -502 -273l-10 -53q-6 -30 -23 -30q-20 0 -43 48l-58 122q96 19 256 78v703h-81q-69 0 -149 -11l-39 86q123 -17 188 -17h81v425q0 117 -8 159zM1686 1968q120 -46 160 -75q57 -41 57 -89q0 -49 -43 -49q-16 0 -29 14q-3 4 -22 45q-23 48 -137 127z" />
  </g>

</svg>
