<?xml version="1.0" standalone="no"?>
<!DOCTYPE svg PUBLIC "-//W3C//DTD SVG 1.1//EN" "http://www.w3.org/Graphics/SVG/1.1/DTD/svg11.dtd" >
<svg xmlns="http://www.w3.org/2000/svg" xmlns:xlink="http://www.w3.org/1999/xlink" version="1.1" viewBox="0 -140 1000 1000">
  <g transform="matrix(1 0 0 -1 0 860)">
   <path fill="currentColor"
d="M57 69v21h409v128h-288v22h288v150l97 -23v-14l-33 -14v-99h212l39 43h11l56 -50v-15h-318v-128h294l50 52h12l61 -59v-14h-890zM811 853v-184l-4 -12l-50 -14l-10 6v31h-217v-99h205l40 42h14l56 -50v-14h-315v-72h312l36 43h13l56 -50v-15h-880v22h399v72h-305v22h305
v99h-217v-26l-6 -11l-49 -13l-9 6v298l73 -32h480l30 29h13l56 -45v-16zM466 702v179h-217v-179h217zM747 702v179h-217v-179h217zM175 438h14q1 -5 1 -17q0 -73 -35.5 -115t-63.5 -42q-20 0 -20 31q0 19 7 28t36 26q46 27 61 89zM305 425l8 9q55 -32 78 -54t23 -50
q0 -12 -9 -27t-18 -15q-16 0 -34 53q-13 42 -48 84zM572 427l8 10q110 -54 110 -106q0 -42 -26 -42q-18 0 -34 48q-13 40 -58 90zM774 430l7 11q148 -60 148 -122q0 -44 -27 -44q-14 0 -41 52q-25 49 -87 103zM292 851l8 11q75 -37 101 -58.5t26 -48.5q0 -45 -27 -45
q-15 0 -35 47q-19 46 -73 94zM581 707l-13 10q41 55 86 153l71 -46l-4 -14h-30q-43 -47 -110 -103z" />
  </g>

</svg>
