<?xml version="1.0" standalone="no"?>
<!DOCTYPE svg PUBLIC "-//W3C//DTD SVG 1.1//EN" "http://www.w3.org/Graphics/SVG/1.1/DTD/svg11.dtd" >
<svg xmlns="http://www.w3.org/2000/svg" xmlns:xlink="http://www.w3.org/1999/xlink" version="1.1" viewBox="0 -200 1000 1000">
  <g transform="matrix(1 0 0 -1 0 800)">
   <path fill="currentColor"
d="M809 919l45 45l67 -68h-679l69 -49l-22 -60q-12 -101 -29 -186.5t-42 -154t-58.5 -118.5t-79.5 -81l-7 -4q27 41 55 92.5t51 126.5t39 180.5t19 254.5l-62 -12l-22 34h656zM765 841l-19 -56q-2 -39 -2.5 -71t-2.5 -68h89l39 38l59 -59h-163q5 -54 20 -106.5t37.5 -97
t51 -78t60.5 -49.5q-21 -3 -44.5 -8.5t-43.5 -19.5q-34 54 -60.5 141t-38.5 216l-9 -1q-17 -160 -60.5 -254.5t-99.5 -134.5l-10 -4q42 63 77 162.5t46 232.5h-47l-35 -12l-19 34h104v229zM398 827h108l25 36l58 -45l-30 -33v-159l-46 -24v28h-123v-17l-46 -22v267zM390 651
h123v67h-123v-67zM513 737v69h-123v-69h123zM530 467v84h-155v-84h155zM530 402v86h-155v-86h155zM373 573h151l32 32l46 -45l-24 -30v-195q-2 -35 -19.5 -53t-40.5 -22q-6 15 -13 24t-16 15.5t-19.5 13t-23.5 15.5l5 7q28 -16 48 -16q25 0 31 29v33h-155v-90
q-6 -7 -21.5 -16t-25.5 -9v336zM771 818q24 -14 41 -25.5t28 -21t17 -19t9 -19.5q-2 -18 -8 -25.5t-21 -11.5h-2q-7 0 -13 13t-13.5 31.5t-16.5 39t-22 36.5zM515 9h307l55 45l76 -70h-811l-68 -14l-23 39h409v102h-237l-62 -15l-23 40h322v137l78 -26l-23 -70v-41h222
l56 45l71 -70h-349v-102z" />
  </g>

</svg>
