<?xml version="1.0" standalone="no"?>
<!DOCTYPE svg PUBLIC "-//W3C//DTD SVG 1.1//EN" "http://www.w3.org/Graphics/SVG/1.1/DTD/svg11.dtd" >
<svg xmlns="http://www.w3.org/2000/svg" xmlns:xlink="http://www.w3.org/1999/xlink" version="1.1" viewBox="0 -410 2048 2048">
  <g transform="matrix(1 0 0 -1 0 1638)">
   <path fill="currentColor"
d="M524 883q-157 -143 -308 -240v-41q0 -47 -24 -47q-19 0 -43 32l-92 128q212 60 467 225v865q0 115 -8 160l109 -24q86 -19 86 -46q0 -28 -50 -41l-41 -12v-1441q0 -100 12 -209q3 -30 3 -50q0 -46 -56 -46q-55 0 -55 42v745zM1381 1247h316l102 115l138 -121
q17 -15 17 -26q0 -26 -28 -26h-545v-929h255l107 111l122 -117q16 -15 16 -25q0 -26 -26 -26h-846q-81 0 -182 -10l-38 89q91 -22 230 -22h264v929h-344q-116 0 -192 -8l-38 90q92 -24 230 -24h344v537q0 115 -8 160l109 -24q86 -19 86 -45q0 -28 -50 -42l-39 -12v-574z
M104 1616q147 -102 184 -136q109 -101 109 -182q0 -70 -50 -70q-17 0 -30 11q-15 12 -40 86q-38 109 -195 258z" />
  </g>

</svg>
