<?xml version="1.0" standalone="no"?>
<!DOCTYPE svg PUBLIC "-//W3C//DTD SVG 1.1//EN" "http://www.w3.org/Graphics/SVG/1.1/DTD/svg11.dtd" >
<svg xmlns="http://www.w3.org/2000/svg" xmlns:xlink="http://www.w3.org/1999/xlink" version="1.1" viewBox="0 -204 1024 1024">
  <g transform="matrix(1 0 0 -1 0 820)">
   <path fill="currentColor"
d="M252 924q46 -12 85 -33q5 -6 5 -11q0 -8 -12 -12q-24 -6 -42 -6q-13 -19 -23 -32q30 -12 50 -27q32 -16 52 -28q17 -13 25 -22q6 -8 10 -13q6 -7 6 -14q-1 -28 -22 -28q-5 0 -11 3t-28 31q-19 25 -46 48q-18 15 -47 36l-6 -10q-24 -25 -50 -54q-25 -22 -52 -43
q-23 -18 -62 -41l-16 14q40 25 66 57q33 34 60 71q26 36 46 74q9 21 12 40zM752 916q47 -12 85 -33q7 -6 7 -11q0 -7 -15 -12q-22 -6 -43 -6q-11 -19 -23 -33q35 -17 61 -31q37 -16 60 -31q19 -12 30 -19q9 -8 13 -15q5 -9 5 -17q-1 -26 -22 -26q-8 0 -14 3q-6 4 -32 31
q-23 28 -54 51q-25 17 -60 37q-22 -23 -48 -48q-21 -20 -48 -39q-21 -16 -58 -35l-16 12q36 23 61 51q31 32 55 66q27 34 43 69q10 19 13 36zM470 960q57 -5 95 -20q15 -7 15 -16t-15 -11q-17 -9 -43 -11v-252h204l52 58q40 -30 75 -57q9 -6 9 -15q0 -16 -14 -16h-326v-116
h326l50 62q42 -32 80 -61q8 -5 8 -13q0 -14 -14 -14h-488q46 -14 46 -26t-56 -14q-20 -28 -44 -48h325l31 40q43 -31 69 -63q7 -7 7 -17q0 -5 -17 -9q-34 -9 -45 -9q-91 -73 -164 -115q-33 -20 -65 -34q18 -8 33 -16q84 -30 190 -50q92 -15 192 -15v-26q-46 -5 -62 -48
q-125 23 -206 47q-86 29 -164 66q-17 8 -34 17q-20 -9 -43 -16q-93 -38 -211 -70q-103 -24 -216 -40l-10 26q141 22 242 52q99 29 187 66q7 3 12 6q-29 18 -55 40q-49 34 -98 86q-37 -27 -80 -47q-70 -35 -140 -61l-14 22q77 33 122 55q43 25 91 64q42 30 79 72q25 29 42 65
h-272q-71 -1 -98 -4l-18 44q43 -14 116 -14h318v116h-216q-70 -1 -94 -4l-22 44q44 -10 116 -10h216v230q0 54 -4 80zM349 323q48 -47 109 -82q30 -19 69 -39q53 26 89 49q66 40 126 103l1 6h-345q-15 -12 -30 -25q-11 -8 -19 -12z" />
  </g>

</svg>
