<?xml version="1.0" standalone="no"?>
<!DOCTYPE svg PUBLIC "-//W3C//DTD SVG 1.1//EN" "http://www.w3.org/Graphics/SVG/1.1/DTD/svg11.dtd" >
<svg xmlns="http://www.w3.org/2000/svg" xmlns:xlink="http://www.w3.org/1999/xlink" version="1.1" viewBox="0 -120 1000 1000">
  <g transform="matrix(1 0 0 -1 0 880)">
   <path fill="currentColor"
d="M792 835l68 -60q11 -10 11 -16q0 -12 -18 -12h-21q-58 -139 -77 -178q-88 -179 -191 -278q-143 -136 -317 -186q-114 -34 -186 -44l-9 20q151 41 214 69q213 94 340 295q74 116 115 219q16 45 39 109h-319q-6 -9 -44 -72q-45 -64 -53 -75q81 -37 140 -89q67 -58 67 -106
q0 -20 -14 -34q-8 -8 -19 -8q-10 0 -19 8q-8 7 -26 43q-33 66 -75 110q-40 44 -69 58q-57 -67 -120 -121q-75 -63 -114 -84l-14 17q128 95 209 218q71 111 111 208q8 19 27 70q6 17 18 47l83 -33q17 -6 17 -16q0 -9 -17 -14l-20 -5l-52 -94h303z" />
  </g>

</svg>
