<?xml version="1.0" standalone="no"?>
<!DOCTYPE svg PUBLIC "-//W3C//DTD SVG 1.1//EN" "http://www.w3.org/Graphics/SVG/1.1/DTD/svg11.dtd" >
<svg xmlns="http://www.w3.org/2000/svg" xmlns:xlink="http://www.w3.org/1999/xlink" version="1.1" viewBox="0 -120 1000 1000">
  <g transform="matrix(1 0 0 -1 0 880)">
   <path fill="currentColor"
d="M871 538l71 -57q13 -10 13 -16q0 -12 -20 -14l-23 -4q-81 -101 -123 -143q-166 -163 -384 -208q-167 -34 -349 -33l-2 20q185 18 287 41q129 31 220 87q-10 5 -15 8q-6 4 -30 55q-16 33 -77 88q-110 -65 -267 -122l-13 18q282 117 473 359l67 -35q13 -7 13 -14
q0 -12 -21 -15l-19 -3q-26 -27 -53 -52h219zM588 470q-77 -63 -133 -98q67 -19 104 -50q40 -36 43 -85q127 80 230 233h-244zM733 894l70 -62q10 -9 10 -17q0 -11 -20 -14l-21 -3q-85 -105 -199 -203q-95 -79 -192 -125q-126 -58 -213 -78q-41 -10 -101 -20l-8 20
q208 49 395 185q-12 5 -13 6q-8 7 -34 61q-10 25 -49 61q-12 11 -24 18q-117 -91 -238 -142l-11 19q240 137 395 367l75 -33q15 -6 15 -16q0 -13 -20 -14l-26 -2l-44 -49h220zM451 825q-49 -45 -100 -89q87 -29 127 -73q19 -24 18 -54q140 123 197 216h-242z" />
  </g>

</svg>
