<?xml version="1.0" standalone="no"?>
<!DOCTYPE svg PUBLIC "-//W3C//DTD SVG 1.1//EN" "http://www.w3.org/Graphics/SVG/1.1/DTD/svg11.dtd" >
<svg xmlns="http://www.w3.org/2000/svg" xmlns:xlink="http://www.w3.org/1999/xlink" version="1.1" viewBox="0 -200 1000 1000">
  <g transform="matrix(1 0 0 -1 0 800)">
   <path fill="currentColor"
d="M856 575l67 -73h-226q15 -82 35 -155.5t50 -137.5t72.5 -117t101.5 -94q-4 0 -7 0.5t-6 0.5q-23 0 -42.5 -9.5t-40.5 -20.5q-30 38 -60 94.5t-54.5 125.5t-41.5 148.5t-22 164.5h-12q-9 -93 -29 -176.5t-55 -153t-86 -122t-122 -83.5l-2 11q46 40 86.5 87.5t72 109
t52.5 141.5t28 186h-120l-56 -14l-21 37h200q3 32 4.5 73.5t2 86t0.5 88.5v81q-33 -3 -70 -7t-71 -4q-21 0 -42 3v5q136 32 225.5 61t125.5 60l58 -70l-36 -4q-16 -2 -30 -5t-28.5 -7.5t-31.5 -9.5t-38 -10q-3 -40 -4 -86t-2 -91.5t-3 -88t-6 -75.5h138zM215 684
q-7 -26 -13.5 -62.5t-15.5 -80t-21 -91.5t-30 -97q13 -8 31 -18t35.5 -20t32 -19t21.5 -15q10 14 22 49.5t22 84t17 107t7 118.5q0 10 -0.5 20t-1.5 20l76 -32l-22 -69q-7 -106 -28.5 -186t-49.5 -143q34 -27 56 -49.5t35 -40.5t18 -31.5t5 -22.5q0 -20 -8.5 -35t-17.5 -15
t-19.5 16.5t-23.5 40t-29.5 50.5t-37.5 48q-60 -103 -111.5 -161t-99.5 -82l-8 12q49 42 94 107.5t93 162.5q-6 8 -21 20.5t-32 25t-34 24t-27 17.5l-30 -38l-44 39l30 27q6 5 13 23.5t14 45.5t14.5 59.5t13.5 66.5t11 66t8 58h-16l-73 -12l-21 34h115q4 22 8 55t7.5 70
t6 73.5t4.5 66.5l75 -38l-25 -56l-22 -171h111l48 42l63 -64h-225z" />
  </g>

</svg>
