<?xml version="1.0" standalone="no"?>
<!DOCTYPE svg PUBLIC "-//W3C//DTD SVG 1.1//EN" "http://www.w3.org/Graphics/SVG/1.1/DTD/svg11.dtd" >
<svg xmlns="http://www.w3.org/2000/svg" xmlns:xlink="http://www.w3.org/1999/xlink" version="1.1" viewBox="0 -120 1000 1000">
  <g transform="matrix(1 0 0 -1 0 880)">
   <path fill="currentColor"
d="M33 71q86 121 88 289v90h-73l-15 28h241v144h-113v-52l-60 -12v345l74 -10q24 -4 24 -16q0 -10 -19 -15l-19 -5v-207h113v307l83 -16q19 -3 19 -13q0 -12 -17 -16l-21 -5v-830l-64 -17v390h-90v-37q-1 -148 -41 -217q-42 -78 -95 -136zM364 79q198 82 281 216
q-24 17 -66 38q-47 24 -83 38l-20 -62l-64 13q52 160 101 340h-149l-14 28h169l64 260l77 -25q22 -8 22 -18q0 -9 -19 -15l-24 -8l-50 -194h238l42 52l86 -64v-16h-166l50 -19q19 -7 19 -17q0 -8 -14 -10l-24 -5q-7 -30 -11 -45q-31 -139 -89 -257q73 -44 129 -94
q30 -27 42 -45q14 -21 14 -43q0 -19 -11 -29q-9 -7 -18 -7q-7 0 -16 6q-6 5 -42 48q-17 21 -81 79q-19 17 -47 40q-107 -145 -317 -200zM505 395q83 -26 163 -60q18 34 47 130q29 98 42 197h-175z" />
  </g>

</svg>
