<?xml version="1.0" standalone="no"?>
<!DOCTYPE svg PUBLIC "-//W3C//DTD SVG 1.1//EN" "http://www.w3.org/Graphics/SVG/1.1/DTD/svg11.dtd" >
<svg xmlns="http://www.w3.org/2000/svg" xmlns:xlink="http://www.w3.org/1999/xlink" version="1.1" viewBox="0 -200 1000 1000">
  <g transform="matrix(1 0 0 -1 0 800)">
   <path fill="currentColor"
d="M815 646l65 -66l-57 -42q-77 -125 -142 -213.5t-121 -162.5q34 -35 58 -58.5t46 -37.5t45 -20t56 -6q48 0 104.5 9t104.5 23q-16 -9 -26.5 -19.5t-19.5 -23t-17.5 -26.5t-19.5 -30q-9 -1 -19 -1h-21q-35 0 -69.5 2t-68.5 15t-67 40t-64 78l-17.5 21t-15.5 9q0 -1 -1 -1
t-2 -0.5t-2 -0.5q-22 -15 -42.5 -27t-30.5 -25l-34 53q20 6 47 14t56 18q85 140 144 237.5t85 168.5h-203l-59 -15l-29 38h294zM858 888l-48 -6q-42 -18 -88.5 -37.5t-92 -35t-87 -26t-72.5 -10.5h-6l-12 3q57 19 110 42.5t100 50t86 53t68 51.5zM718 661q0 -13 -13.5 -28
t-29.5 -15q-2 0 -10 2q-5 0 -6.5 14.5t-5.5 37t-12.5 48.5t-27.5 50v6q48 -26 76.5 -56t28.5 -59zM215 684q-7 -26 -13.5 -62.5t-15.5 -80t-21 -91.5t-30 -97q13 -8 31 -18t35.5 -20t32 -19t21.5 -15q10 14 22 49.5t22 84t17 107t7 118.5q0 10 -0.5 20t-1.5 20l76 -32
l-22 -69q-7 -106 -28.5 -186t-49.5 -143q34 -27 56 -49.5t35 -40.5t18 -31.5t5 -22.5q0 -20 -8.5 -35t-17.5 -15t-19.5 16.5t-23.5 40t-29.5 50.5t-37.5 48q-60 -103 -111.5 -161t-99.5 -82l-8 12q49 42 94 107.5t93 162.5q-6 8 -21 20.5t-32 25t-34 24t-27 17.5l-30 -38
l-44 39l30 27q6 5 13 23.5t14 45.5t14.5 59.5t13.5 66.5t11 66t8 58h-16l-73 -12l-21 34h115q4 22 8 55t7.5 70t6 73.5t4.5 66.5l75 -38l-25 -56l-22 -171h111l48 42l63 -64h-225z" />
  </g>

</svg>
