<?xml version="1.0" standalone="no"?>
<!DOCTYPE svg PUBLIC "-//W3C//DTD SVG 1.1//EN" "http://www.w3.org/Graphics/SVG/1.1/DTD/svg11.dtd" >
<svg xmlns="http://www.w3.org/2000/svg" xmlns:xlink="http://www.w3.org/1999/xlink" version="1.1" viewBox="0 -140 1000 1000">
  <g transform="matrix(1 0 0 -1 0 860)">
   <path fill="currentColor"
d="M782 782l59 -55v-15h-341v23h234l36 47h12zM899 925l58 -51v-17l-34 -25v-696q0 -37 -21 -54t-83 -21l-8 8l-1 23l-92 40l4 15l111 -14q18 0 23 6t5 26v702h-398l-7 -801l-48 -14l-8 7v870l66 -39h390l30 35h13zM757 611l51 -52v-15l-22 -19l-1 -201l-3 -12l-50 -13
l-11 5l1 53h-128l1 -51l-5 -12l-52 -13l-9 7v321l62 -27h130l23 29h13zM594 379h128v180h-128v-180zM53 702v22h97l41 206l89 -29l-2 -15l-33 -8l-33 -154h86l32 34h13l55 -56l-4 -15l-28 -10q-21 -143 -35.5 -208t-46.5 -147q93 -56 93 -106q0 -38 -20 -38q-10 0 -39 35
q-29 34 -57 59q-48 -78 -86 -120t-108 -96l-10 12q101 110 159 241q-40 30 -78 50l-12 -44l-9 -8l-51 -4l-7 9q45 166 87 390h-93zM207 703l-63 -323l41 -15q11 -4 46 -18q28 80 42 152t27 203z" />
  </g>

</svg>
