<?xml version="1.0" standalone="no"?>
<!DOCTYPE svg PUBLIC "-//W3C//DTD SVG 1.1//EN" "http://www.w3.org/Graphics/SVG/1.1/DTD/svg11.dtd" >
<svg xmlns="http://www.w3.org/2000/svg" xmlns:xlink="http://www.w3.org/1999/xlink" version="1.1" viewBox="0 -200 1000 1000">
  <g transform="matrix(1 0 0 -1 0 800)">
   <path fill="currentColor"
d="M324 653l-38 -22l-32 44l36 13l75 111h-203l-59 -9l-27 34h302q20 28 36.5 64l38.5 84q14 -13 29 -27t29 -27l-33 -29l-50 -65h372l51 44l73 -69h-289l49 -51l-40 -28q-5 -8 -16 -20t-24.5 -25.5t-28.5 -27.5t-27 -25q70 -24 108 -41.5t56 -30.5t21.5 -23t4.5 -20
q0 -13 -6 -26.5t-20 -13.5q-15 0 -36 24q-26 25 -69.5 53t-92.5 45q-85 -57 -174.5 -78.5t-186.5 -21.5h-25t-25 1l-9 5q137 8 222.5 41.5t136.5 78.5zM418 799q-23 -35 -48.5 -68t-42.5 -61q27 -5 48.5 -9t40 -7.5t36.5 -7t39 -7.5q51 49 86 91.5t41 68.5h-200zM261 336
q-12 -26 -30.5 -68.5t-48.5 -96.5q13 -4 31.5 -9t36 -9.5t31.5 -8t19 -5.5q12 12 24.5 31t24.5 45t21 57t13 67l76 -22l-23 -27q-20 -58 -41.5 -99.5t-50.5 -74.5q34 -14 56 -26t34.5 -21.5t17 -17t4.5 -13.5q0 -11 -8 -18t-19 -7q-9 0 -19 8.5t-23.5 21t-29.5 26.5t-37 25
q-57 -54 -117.5 -83.5t-108.5 -42.5l-6 3q45 26 94.5 58.5t95.5 82.5q-7 5 -20.5 12t-28.5 14.5t-29.5 14t-24.5 10.5q1 0 1 -1l-16 -16l-39 5q23 42 48 91t40 97h-95l-44 -11l-29 33h175q4 12 9 28.5t9.5 35t8.5 37.5t6 35l74 -40l-29 -34l-28 -62h146l47 35l50 -57h-246z
M659 340q-12 -26 -30.5 -68.5t-48.5 -96.5q13 -4 31.5 -9t36 -9.5t31.5 -8t19 -5.5q12 12 24.5 31t24.5 45t21 57t13 67l76 -22l-23 -27q-20 -60 -41.5 -100.5t-50.5 -74.5q34 -14 56 -25.5t34.5 -21t17 -17t4.5 -13.5q0 -11 -8 -18t-19 -7q-9 0 -19 8.5t-23.5 21
t-29.5 26.5t-37 25q-57 -54 -117.5 -84t-108.5 -42l-6 3q45 26 94.5 58.5t95.5 82.5q-7 5 -20 12t-28.5 14.5t-30 14t-24.5 9.5q1 0 1 -1t-16 -16l-39 6q23 42 48 91t40 97h-62l-48 -17l-25 39h142q4 12 9 28.5t9.5 35t8.5 37.5t6 35l74 -40l-29 -34l-28 -62h190l48 40
l60 -62h-301z" />
  </g>

</svg>
