<?xml version="1.0" standalone="no"?>
<!DOCTYPE svg PUBLIC "-//W3C//DTD SVG 1.1//EN" "http://www.w3.org/Graphics/SVG/1.1/DTD/svg11.dtd" >
<svg xmlns="http://www.w3.org/2000/svg" xmlns:xlink="http://www.w3.org/1999/xlink" version="1.1" viewBox="0 -204 1024 1024">
  <g transform="matrix(1 0 0 -1 0 820)">
   <path fill="currentColor"
d="M186 953q57 -21 99 -38q6 -8 6 -14q0 -13 -21 -18q-23 -4 -34 -4q-19 -106 -40 -206q-1 -3 -1 -5q60 5 108 10q2 30 2 58q0 20 -2 37q44 -6 78 -19q10 -3 10 -11q0 -7 -14 -15q-18 -9 -27 -12q-7 -117 -27 -210q-25 -111 -64 -198q-3 -9 -7 -19q22 -16 41 -34
q38 -34 50 -55q11 -11 16 -29q5 -16 5 -32q0 -23 -21 -23q-6 0 -22 26q-15 24 -64 76q-13 15 -29 28q-25 -51 -53 -89q-48 -68 -124 -129l-15 24q78 69 122 140q22 37 44 81q-20 15 -36 28q-49 37 -105 58l7 6q28 83 48 157q11 46 21 95q-16 -3 -35 -6q-14 -34 -20 -34
q-3 0 -7 7q-22 36 -39 79q55 0 111 3q15 78 25 145q9 62 14 142zM218 312q7 15 13 32q34 88 57 204q10 58 13 110q-40 -12 -82 -23q-17 -5 -36 -8q-15 -66 -33 -123q-22 -64 -53 -131q60 -19 103 -51q10 -5 18 -10zM387 882q44 -11 118 -11h62l40 43q33 -25 62 -47
q7 -5 7 -10q0 -15 -14 -15h-110v-326q5 2 10 3q49 12 114 32l4 -20q-50 -28 -88 -43q-22 -9 -41 -16q-1 -61 -8 -109q-9 -64 -32 -122q-24 -64 -55 -109q-37 -55 -103 -112l-17 19q56 57 87 104q26 44 43 88q15 41 28 105q8 49 9 118q-32 -11 -65 -19q-11 -37 -17 -37
q-8 0 -49 84q55 6 99 14q15 3 33 7v5v334q-71 -2 -96 -7zM695 882q44 -11 117 -11h43l44 48q37 -27 69 -51q8 -5 8 -11q0 -15 -15 -15h-121v-355h27l45 50q37 -26 71 -53q8 -5 8 -11q0 -15 -15 -15h-136v-340q0 -22 1 -30v-29q0 -35 -31 -35q-26 0 -26 19t3 54q5 34 5 59
v302q-62 -3 -84 -7l-21 47q41 -10 105 -11v354q-55 -2 -76 -6z" />
  </g>

</svg>
