<?xml version="1.0" standalone="no"?>
<!DOCTYPE svg PUBLIC "-//W3C//DTD SVG 1.1//EN" "http://www.w3.org/Graphics/SVG/1.1/DTD/svg11.dtd" >
<svg xmlns="http://www.w3.org/2000/svg" xmlns:xlink="http://www.w3.org/1999/xlink" version="1.1" viewBox="0 -410 2048 2048">
  <g transform="matrix(1 0 0 -1 0 1638)">
   <path fill="currentColor"
d="M1287 1073h-163q-119 0 -192 -8l-38 89q96 -23 230 -23h458l99 102l120 -107q17 -15 17 -26q0 -27 -27 -27h-406v-375h266l98 101l121 -106q17 -16 17 -26q0 -27 -27 -27h-475v-436h364l99 102l121 -107q17 -16 17 -26q0 -27 -28 -27h-982q-109 0 -192 -8l-38 89
q96 -23 230 -23h311v436h-220q-118 0 -192 -8l-38 89q96 -23 230 -23h220v375zM632 1365q3 63 3 88q0 45 -3 114l145 -29q44 -8 44 -32q0 -23 -34 -34l-49 -15l-8 -85q47 3 90 6l7 -39q-51 -13 -102 -23q-24 -223 -44 -318q-38 -174 -117 -352q211 -176 211 -277
q0 -57 -49 -57q-39 0 -73 63q-49 89 -136 182q-141 -215 -261 -323q-68 -61 -162 -126l-26 35q241 203 383 479q-118 105 -302 190q93 300 128 447q-61 -6 -112 -12q-3 -10 -5 -16q-15 -55 -32 -55q-19 0 -38 45l-49 118l29 1q132 1 224 6q77 370 84 589l115 -33
q65 -19 65 -50q0 -25 -41 -33l-51 -10q-25 -191 -84 -459q129 7 250 15zM627 1301q-119 -16 -267 -33q-68 -233 -148 -424q146 -58 276 -142q107 270 139 599zM1236 1867l68 76l84 -55q40 -26 40 -49q0 -16 -12 -26q-6 -6 -49 -30q250 -403 627 -506l-8 -33q-52 -2 -78 -16
q-26 -15 -47 -60q-187 109 -314 252q-97 108 -215 345q-121 -226 -234 -358q-121 -141 -304 -271l-24 32q24 23 36 34q168 155 264 291t166 316h-135v58h135z" />
  </g>

</svg>
