<?xml version="1.0" standalone="no"?>
<!DOCTYPE svg PUBLIC "-//W3C//DTD SVG 1.1//EN" "http://www.w3.org/Graphics/SVG/1.1/DTD/svg11.dtd" >
<svg xmlns="http://www.w3.org/2000/svg" xmlns:xlink="http://www.w3.org/1999/xlink" version="1.1" viewBox="0 -204 1024 1024">
  <g transform="matrix(1 0 0 -1 0 820)">
   <path fill="currentColor"
d="M182 954q55 -21 93 -39q9 -6 9 -13q0 -13 -21 -17q-21 -5 -33 -5q-14 -100 -30 -193q-3 -16 -5 -27q61 6 113 13q2 30 2 57q0 19 -4 34q43 -6 78 -16q10 -3 10 -10t-15 -18q-19 -9 -29 -12q-7 -117 -25 -208q-21 -93 -46 -166q24 -16 45 -31q36 -28 51 -44q10 -13 15 -27
q4 -12 4 -28q0 -18 -18 -18q-7 0 -25 19q-13 23 -62 66q-15 12 -28 22q-38 -86 -75 -140q-46 -68 -114 -129l-18 22q74 68 116 142q36 53 62 128q-19 13 -36 25q-51 31 -106 49l4 5q23 79 36 146q7 35 12 73q-20 -4 -44 -8q-13 -32 -18 -32q-3 0 -7 5q-22 35 -37 75
q56 0 115 4q2 10 3 19q11 74 18 141q6 60 10 136zM247 353q27 84 48 188q9 61 12 113q-43 -12 -86 -23q-16 -5 -36 -9q-11 -52 -21 -95q-19 -62 -40 -124q58 -16 104 -43q11 -3 19 -7zM876 888q-62 -14 -124 -24q-31 -5 -62 -8v-122h180l44 48q36 -27 68 -49q8 -5 8 -13
q0 -16 -10 -16h-290v-428h114l48 56q38 -27 71 -56q9 -3 9 -10q0 -18 -18 -18h-224v-158h154l44 48q36 -27 66 -49q10 -7 10 -13q0 -14 -14 -14h-438q-72 -1 -96 -4l-22 44q44 -12 118 -12h130v158h-98q-72 -1 -98 -4l-20 44q44 -12 118 -12h98v428h-120q-69 -1 -96 -2
l-18 42q43 -10 114 -10h120v114q-27 -4 -49 -6q-69 -6 -169 -10l-4 22q53 3 115 10q58 7 111 17q60 11 99 25q41 9 68 21q24 12 41 23q38 -24 65 -44q5 -4 5 -8q0 -14 -14 -14t-34 4zM354 530q42 -11 110 -12v70q0 46 -4 70q44 -7 71 -14q13 -4 13 -12q0 -5 -9 -8
q-14 -8 -27 -10v-96h6l38 36q28 -22 52 -40q6 -3 6 -10q0 -16 -12 -16h-90v-62q0 -23 2 -29q2 -18 2 -29q0 -26 -30 -26q-22 0 -22 16q0 10 2 30q2 18 2 32v68q-66 0 -88 -2zM808 658q45 -8 77 -17q11 -6 11 -13q0 -5 -9 -8q-14 -6 -29 -10v-92h26l40 40q29 -23 57 -43
q5 -4 5 -11q0 -16 -10 -16h-118v-50q0 -25 2 -32q2 -16 2 -30q0 -30 -32 -30q-22 0 -22 14t2 36v38v54q-46 0 -68 -2l-18 44q34 -10 86 -11v65q0 49 -2 74z" />
  </g>

</svg>
