<?xml version="1.0" standalone="no"?>
<!DOCTYPE svg PUBLIC "-//W3C//DTD SVG 1.1//EN" "http://www.w3.org/Graphics/SVG/1.1/DTD/svg11.dtd" >
<svg xmlns="http://www.w3.org/2000/svg" xmlns:xlink="http://www.w3.org/1999/xlink" version="1.1" viewBox="0 -140 1000 1000">
  <g transform="matrix(1 0 0 -1 0 860)">
   <path fill="currentColor"
d="M597 800l1 130l95 -20v-14l-35 -17v-79h76l41 49h15l63 -56v-14h-195v-105h136l46 52h18l63 -59l-1 -15h-176v-102q0 -45 46 -45h41q30 0 41.5 8.5t21.5 37.5l22 63l11 -4l2 -95l24 -20v-15q-47 -32 -115 -32h-71q-47 0 -66 17t-19 59v128h-112q-7 -48 -19 -84.5
t-36.5 -72t-67 -59t-102.5 -33.5l-1 11q80 34 118.5 89.5t42.5 149.5l-126 -1v22h220v104h-185v22h183zM620 463l-6 -13l-25 -1q-21 -33 -25 -40h167l28 30h16l50 -51l-5 -17l-25 -8q-48 -67 -124 -142q72 -48 131 -69t151 -30v-13q-27 -14 -55 -59q-83 20 -139 51t-119 91
q-83 -63 -153.5 -92t-179.5 -45l-5 14q115 36 176 68t124 91q-42 42 -88 106q-46 -48 -76 -70.5t-80 -46.5l-6 10q73 62 113 120t80 158zM724 386l-172 1l-17 -27q32 -48 95 -104q53 58 94 130zM132 704l39 209l93 -34l-4 -15l-39 -5l-30 -155h70l32 33h19l45 -49l-3 -16
l-24 -14q-21 -152 -37 -217t-56 -157q108 -64 108 -124q0 -15 -7.5 -27t-16.5 -12q-18 0 -46 61q-17 34 -54 75q-40 -76 -74 -117.5t-91 -83.5l-7 8q56 64 82.5 105.5t53.5 108.5q-33 19 -69 31l-4 -26l-10 -8l-38 -9l-8 5l71 411h-57v22h62zM186 682l-66 -355q10 -2 76 -25
q56 149 69 380h-79z" />
  </g>

</svg>
