<?xml version="1.0" standalone="no"?>
<!DOCTYPE svg PUBLIC "-//W3C//DTD SVG 1.1//EN" "http://www.w3.org/Graphics/SVG/1.1/DTD/svg11.dtd" >
<svg xmlns="http://www.w3.org/2000/svg" xmlns:xlink="http://www.w3.org/1999/xlink" version="1.1" viewBox="0 -410 2048 2048">
  <g transform="matrix(1 0 0 -1 0 1638)">
   <path fill="currentColor"
d="M1251 1510q46 103 96 246h-263q-117 0 -191 -8l-39 88q99 -23 230 -23h608l99 101l120 -107q17 -15 17 -25q0 -26 -27 -26h-441q-73 -127 -155 -246h413l69 76l83 -54q41 -27 41 -48q0 -28 -78 -62v-417q0 -131 -160 -156q-2 58 -26 80q-15 13 -72 31v45q81 -15 117 -15
q46 0 46 56v408h-210v-361q0 -11 5 -84q2 -28 2 -49q0 -48 -57 -48q-43 0 -43 35v507h-168v-354q0 -38 4 -89q2 -33 2 -54q0 -56 -56 -56q-41 0 -41 39v514h-175v-591q0 -44 -49 -44t-49 51q0 15 2 46q7 117 7 196v350q0 74 -16 136l120 -88h235zM1423 548q214 -98 308 -154
q205 -122 205 -218q0 -57 -55 -57q-33 0 -87 76q-113 160 -391 318zM1280 694q9 86 12 176l138 -22q52 -8 52 -32q0 -32 -82 -47q-5 -43 -11 -75h335l99 101l121 -107q16 -14 16 -25q0 -27 -27 -27h-555q-67 -231 -233 -366q-122 -100 -356 -172l-13 37q240 106 352 236
q99 114 139 265h-230q-114 0 -192 -8l-38 88q90 -22 230 -22h243zM631 1384q5 91 5 131q0 28 -2 83l99 -16q89 -14 89 -38t-55 -46l-30 -11l-9 -95l104 6l6 -37l-113 -23q-26 -257 -58 -384q-42 -161 -109 -302q88 -78 129 -123q80 -84 80 -153q0 -40 -30 -59q-10 -6 -21 -6
q-33 0 -90 102q-49 88 -116 152q-153 -262 -413 -429l-21 31q254 219 368 464q-31 31 -144 108q-95 65 -147 89q89 269 127 447q-38 -3 -77 -8q-3 -10 -4 -16q-15 -55 -33 -55q-20 0 -48 66l-42 97q136 1 220 6q32 122 64 356q17 129 21 230l129 -34q72 -18 72 -49
q0 -28 -46 -35l-57 -8q-50 -313 -84 -458l114 9zM626 1322q-117 -18 -253 -36q-84 -271 -150 -426q177 -95 259 -148q42 84 84 246q44 173 60 364z" />
  </g>

</svg>
