<?xml version="1.0" standalone="no"?>
<!DOCTYPE svg PUBLIC "-//W3C//DTD SVG 1.1//EN" "http://www.w3.org/Graphics/SVG/1.1/DTD/svg11.dtd" >
<svg xmlns="http://www.w3.org/2000/svg" xmlns:xlink="http://www.w3.org/1999/xlink" version="1.1" viewBox="0 -140 1000 1000">
  <g transform="matrix(1 0 0 -1 0 860)">
   <path fill="currentColor"
d="M822 424l38 45h15l55 -52v-15h-242v-124l117 1l37 45h16l55 -52v-17h-225v-139l151 1l41 47h13l56 -54l1 -17h-560v23h240v139h-182v23h182v124h-208v22h400zM798 790h-279v-105h279v105zM798 662h-279v-123h279v123zM524 812h72q10 21 51 115l63 -33l-4 -11l-24 -4
l-54 -68h155l32 32h19l52 -45v-13l-28 -23v-261l-7 -8l-39 -8l-13 5l-1 28h-279q-1 -15 -7 -23l-46 -11l-7 9v348zM308 728l36 34h17l54 -49l-5 -16l-25 -12q-11 -125 -29.5 -199.5t-60.5 -157.5q105 -52 105 -105q0 -39 -19 -39q-18 0 -42 40t-62 72
q-67 -111 -113.5 -161.5t-94.5 -78.5l-7 10q54 48 91.5 101t88.5 154q-39 24 -90 46l-7 -33l-10 -11l-41 -4l-5 12l71 375h-101v22h105l30 189l99 -29l-4 -19l-41 -3l-28 -138h88zM215 706l-61 -316q14 -4 16 -6l82 -35q58 160 63 358z" />
  </g>

</svg>
