<?xml version="1.0" standalone="no"?>
<!DOCTYPE svg PUBLIC "-//W3C//DTD SVG 1.1//EN" "http://www.w3.org/Graphics/SVG/1.1/DTD/svg11.dtd" >
<svg xmlns="http://www.w3.org/2000/svg" xmlns:xlink="http://www.w3.org/1999/xlink" version="1.1" viewBox="0 -120 1000 1000">
  <g transform="matrix(1 0 0 -1 0 880)">
   <path fill="currentColor"
d="M53 65q97 99 151 250q-28 21 -56 36l-9 -72l-59 4q27 169 48 391h-65l-10 26h78l20 246l71 -11q20 -3 20 -14q0 -10 -18 -14l-16 -4l-19 -203h68l21 41l64 -44q11 -8 11 -15q0 -6 -14 -12l-15 -6q-20 -163 -25 -198q-10 -62 -31 -139q70 -42 70 -96q0 -14 -7.5 -23.5
t-17.5 -9.5q-13 0 -23 16q-32 48 -43 60q-36 -80 -86 -135q-40 -44 -98 -85zM152 371q33 -9 66 -19q35 157 46 322h-76zM281 87q76 80 99 161q22 78 24 229h-62l-10 25h225l35 46l71 -53l-1 -18h-95v-224l145 77l6 -13q-122 -101 -181 -146l-6 -17q-6 -17 -11 -17
q-6 0 -16 16l-34 52l41 19v253h-48q-8 -139 -22 -196q-16 -66 -66 -127q-27 -34 -80 -79zM369 569v284l59 -7q24 -3 24 -12q0 -8 -9 -11l-19 -8v-174h50l-1 288l64 -7q18 -2 18 -10q0 -6 -13 -13l-14 -8l1 -250h46l-1 213l59 -10q19 -3 19 -12q0 -7 -10 -11l-13 -5v-222
l-54 -8v31h-151v-39zM540 68q54 40 91 75q67 64 122 166q-36 92 -51 170q-13 69 -19 146l-52 -83l-13 7q37 83 55 143q31 101 48 249l89 -18q14 -2 14 -12q0 -7 -14 -12l-22 -9q-28 -101 -69 -199h125l42 59l78 -64v-20h-103l37 -15q16 -6 16 -13t-13 -14l-15 -8
q-16 -182 -72 -305q62 -96 157 -189l-6 -11q-49 0 -67 -39q-70 86 -120 180q-52 -69 -98 -110q-42 -37 -126 -89zM703 666q12 -94 27 -152q19 -76 50 -142q44 140 45 294h-122z" />
  </g>

</svg>
