<?xml version="1.0" standalone="no"?>
<!DOCTYPE svg PUBLIC "-//W3C//DTD SVG 1.1//EN" "http://www.w3.org/Graphics/SVG/1.1/DTD/svg11.dtd" >
<svg xmlns="http://www.w3.org/2000/svg" xmlns:xlink="http://www.w3.org/1999/xlink" version="1.1" viewBox="0 -410 2048 2048">
  <g transform="matrix(1 0 0 -1 0 1638)">
   <path fill="currentColor"
d="M596 1402q3 56 3 76q0 45 -3 108l144 -29q45 -9 45 -33q0 -22 -35 -33l-49 -15l-6 -63q23 2 45 5t48 5l6 -38q-46 -17 -99 -30q-24 -276 -61 -426q-42 -174 -110 -321q148 -117 148 -192q0 -31 -21 -47q-8 -7 -17 -7q-22 0 -45 24q-6 6 -60 84q-14 19 -49 54
q-149 -260 -381 -427l-26 35q218 203 341 454q-110 95 -291 173q33 107 49 160q58 183 97 367l-27 -4q-35 -4 -64 -9q-3 -11 -5 -16q-15 -55 -33 -55q-16 0 -46 65l-44 97q107 2 237 10q72 311 93 580l127 -41q70 -22 70 -51t-48 -34l-58 -6q-27 -178 -86 -440q75 6 190 18z
M596 1335l-22 -3q-145 -25 -210 -34q-81 -285 -169 -510q156 -61 253 -125q113 267 148 672zM1509 774q201 -366 471 -472l-12 -42q-28 8 -41 8q-57 0 -90 -55q-89 67 -188 203q-112 155 -166 293v-388q0 -48 4 -102q4 -59 4 -80q0 -57 -67 -57q-37 0 -37 31v661h-195v-457
q0 -79 3 -121q4 -49 4 -61q0 -53 -65 -53q-19 0 -28 9q-8 8 -8 44v490q-89 -146 -185 -247q-103 -108 -264 -220l-23 37q280 222 427 579h-63q-70 0 -149 -11l-38 86q109 -16 187 -18l108 -3v224h-146q-70 0 -149 -11l-39 86q126 -17 188 -17h146v208h-70q-70 0 -149 -11
l-38 86q122 -15 187 -15h70v195h-130q-69 0 -149 -11l-39 86q122 -18 188 -18h744l97 95l125 -90q20 -15 20 -36q0 -26 -28 -26h-443v-195h194l61 67l71 -49q44 -30 44 -50q0 -16 -65 -52v-184h8l73 84l118 -91q17 -13 17 -26q0 -25 -24 -25h-192v-190l45 -34q19 -15 19 -29
q0 -25 -19 -25h-324zM1387 1378v195h-195v-195h195zM1192 1318v-208h195v208h-195zM1483 1318v-208h209v208h-209zM1192 1052v-224h195v224h-195zM1483 1052v-224h209v224h-209zM975 1945q211 -129 211 -227q0 -61 -49 -61q-18 0 -31 12q-11 11 -30 72q-23 72 -124 172z
M1581 1962l111 -50q48 -21 48 -40q0 -25 -65 -32l-37 -4q-78 -93 -175 -189l-34 22q90 137 152 293z" />
  </g>

</svg>
