<?xml version="1.0" standalone="no"?>
<!DOCTYPE svg PUBLIC "-//W3C//DTD SVG 1.1//EN" "http://www.w3.org/Graphics/SVG/1.1/DTD/svg11.dtd" >
<svg xmlns="http://www.w3.org/2000/svg" xmlns:xlink="http://www.w3.org/1999/xlink" version="1.1" viewBox="0 -120 1000 1000">
  <g transform="matrix(1 0 0 -1 0 880)">
   <path fill="currentColor"
d="M43 68q129 115 174 221q-39 35 -90 62l-13 -59h-61q67 309 83 412h-70l-12 28h88l36 226l74 -15q24 -5 24 -16q0 -6 -14 -13l-25 -13l-33 -169h85l27 42l67 -51q13 -10 13 -17t-13 -11l-12 -4l-2 -12q-25 -238 -87 -377q83 -64 83 -103q0 -23 -18 -39q-8 -7 -16 -7
q-15 0 -24 16q-38 63 -52 80q-75 -119 -202 -198zM132 375q56 -18 102 -46q34 84 53 207q16 104 17 168h-106zM359 813l-12 28h271v132l77 -14q17 -3 17 -15q0 -7 -14 -13l-12 -6v-84h141l46 61l95 -67v-22h-166l35 -21q15 -9 15 -16q0 -11 -20 -12l-13 -2l-79 -103h108
l25 34l57 -42q14 -10 14 -20q0 -8 -14 -11l-14 -3v-462q0 -42 -8 -52q-16 -20 -46 -31q-32 -11 -36 -11q-9 0 -11 26q-1 13 -5 20q-5 7 -27 12l-49 10v16h123v486h-178v-112h53l38 46l62 -53v-21h-153v-88h35l23 31l48 -33q14 -9 14 -16q0 -5 -9 -9l-12 -5v-159l-55 -9v29
h-137v-55l-53 -5v262l47 -31h42v88h-119l-14 28h133v112h-156v-567l-60 -10v641l64 -36h74q-7 15 -15 49q-9 37 -38 78q-12 15 -28 27h-104zM503 813q25 -14 49 -33q48 -42 48 -80q0 -20 -17 -41h119l56 154h-255zM586 260h137v116h-137v-116z" />
  </g>

</svg>
