<?xml version="1.0" standalone="no"?>
<!DOCTYPE svg PUBLIC "-//W3C//DTD SVG 1.1//EN" "http://www.w3.org/Graphics/SVG/1.1/DTD/svg11.dtd" >
<svg xmlns="http://www.w3.org/2000/svg" xmlns:xlink="http://www.w3.org/1999/xlink" version="1.1" viewBox="0 -204 1024 1024">
  <g transform="matrix(1 0 0 -1 0 820)">
   <path fill="currentColor"
d="M168 954q52 -21 91 -39q7 -6 7 -13q0 -13 -18 -17q-24 -5 -34 -5q-13 -100 -32 -195q-2 -13 -4 -22h1q59 9 107 21q2 28 2 54q0 19 -4 36q43 -6 75 -18q13 -3 13 -12q0 -5 -18 -14q-16 -11 -26 -14q-7 -118 -27 -212q-21 -112 -54 -199q14 -16 25 -30q31 -35 42 -53
q10 -15 14 -32q4 -15 4 -34q0 -18 -22 -18q-5 0 -17 24q-12 27 -51 78q-9 10 -15 20q-27 -65 -56 -109q-43 -71 -109 -131l-16 22q71 69 110 144q24 45 48 102q-21 23 -37 36q-34 35 -70 52q-7 7 -13 10l1 1l-5 3q19 79 35 148q7 36 13 76q-16 -4 -34 -8q-12 -32 -18 -32
q-3 0 -7 5q-22 35 -37 75q52 0 102 5q2 8 3 16q10 75 20 142q7 61 11 137zM217 329q2 4 3 8q32 91 50 209q12 63 15 116q-37 -13 -75 -23q-20 -8 -39 -13q-10 -56 -25 -102q-16 -62 -37 -123q51 -23 88 -55q11 -10 20 -17zM492 958q43 -13 76 -32q6 -5 6 -10q0 -7 -11 -12
q-19 -6 -37 -6q-5 -15 -11 -26q-5 -11 -12 -25q-7 -11 -14 -17h102l23 28q54 -32 54 -44t-28 -28v-254q0 -17 -34 -24q-14 0 -14 10v36h-166v-28q0 -9 -10 -15q-17 -7 -26 -7q-10 0 -10 14v340l50 -28h30q5 10 9 24q4 18 10 38q5 22 9 42q1 12 4 24zM426 580h166v96h-166
v-96zM426 704h166v92l-1 4h-165v-96zM464 532q16 -10 32 -24q16 -11 24 -20q11 -11 16 -19q4 -9 4 -17q0 -14 -5 -24q-1 -1 -4 -2h79l40 38q32 -20 59 -42q7 -4 7 -10q0 -14 -14 -14h-238q-1 -44 -5 -80v-4h115l36 32q34 -21 54 -36q8 -8 8 -12q0 -14 -40 -28
q-5 -67 -16 -112q-10 -47 -19 -67q-9 -22 -23 -29q-12 -11 -25 -19q-13 -7 -23 -7q0 18 -6 26q-8 10 -82 40l4 18q70 -18 94 -18q7 0 12 2q5 1 7 8q5 7 11 27q5 18 8 53q7 36 10 92h-129q-3 -25 -10 -46q-8 -39 -21 -67q-15 -33 -34 -59q-19 -25 -49 -48q-25 -19 -57 -36
l-14 18q44 24 67 52q19 21 36 53q15 33 24 70q11 30 15 78q4 35 4 99q-62 -1 -84 -4l-22 44q44 -12 116 -12h79q-1 4 -3 10q-3 14 -13 28q-7 17 -15 28q-7 13 -22 30zM752 946q49 -19 85 -35q7 -7 7 -13q0 -11 -21 -14q-21 -4 -31 -4q-17 -78 -35 -148l-5 -20h124l44 48
q32 -23 62 -49q8 -5 8 -9q0 -16 -10 -16h-60q-1 -86 -9 -155q-7 -84 -19 -135q-14 -70 -39 -122q-7 -22 -15 -37q5 -9 10 -17q18 -41 55 -76q37 -40 87 -76l-4 -10q-43 0 -54 -26q-43 38 -68 72q-25 39 -50 85q-1 2 -2 3q-5 -10 -10 -18q-35 -47 -81 -85q-42 -37 -97 -65
l-14 22q78 46 116 92q38 41 67 96q1 3 2 4q-12 28 -21 56q-17 58 -29 114q-13 71 -15 154l26 8q5 -84 16 -154q12 -56 33 -108q4 -14 8 -25q14 37 25 76q15 54 22 136q6 70 6 191h-124q-13 -42 -25 -77q-24 -54 -53 -113l-18 12q27 63 42 116q14 48 29 107q11 57 21 108
q7 48 14 107z" />
  </g>

</svg>
