<?xml version="1.0" standalone="no"?>
<!DOCTYPE svg PUBLIC "-//W3C//DTD SVG 1.1//EN" "http://www.w3.org/Graphics/SVG/1.1/DTD/svg11.dtd" >
<svg xmlns="http://www.w3.org/2000/svg" xmlns:xlink="http://www.w3.org/1999/xlink" version="1.1" viewBox="0 -204 1024 1024">
  <g transform="matrix(1 0 0 -1 0 820)">
   <path fill="currentColor"
d="M175 948q56 -20 98 -38q6 -8 6 -14q0 -12 -20 -17q-24 -4 -35 -4q-17 -107 -38 -206q-1 -3 -1 -5q55 6 99 14q2 26 2 49q0 21 -2 37q44 -7 77 -18q11 -3 11 -12q0 -7 -15 -15q-17 -8 -26 -11q-7 -117 -27 -209q-23 -112 -58 -197q-5 -11 -9 -19q10 -7 17 -15
q31 -27 41 -43q10 -10 13 -25q4 -12 4 -26q0 -22 -20 -22q-5 0 -19 20q-12 21 -52 63q-3 4 -4 5q-26 -51 -50 -87q-45 -70 -115 -129l-16 23q72 69 113 140q22 35 41 80q-24 21 -45 35q-40 32 -85 48l7 9l-3 2q27 83 45 156q10 44 19 91l-25 -6q-14 -33 -21 -33q-3 0 -7 7
q-21 36 -39 79q52 0 102 5q14 78 24 146q8 63 13 142zM206 307q6 15 11 30q32 88 52 204q10 60 14 114q-37 -14 -73 -24q-17 -6 -35 -11q-16 -66 -32 -120q-21 -66 -50 -133q48 -17 84 -43q16 -8 29 -17zM614 960q24 -14 42 -29q21 -13 33 -25q14 -13 19 -22q4 -9 4 -18
q0 -21 -6 -32q-2 -4 -3 -4h153l44 49q36 -27 68 -52q8 -5 8 -11q0 -14 -15 -14h-521v-238q0 -84 -7 -157q-3 -65 -17 -132q-10 -54 -27 -100q-15 -42 -40 -80q-21 -33 -59 -67l-14 11q24 29 42 64q17 31 29 65q13 39 23 90q10 60 15 122q7 81 7 184q0 190 -4 304l57 -38h225
q-3 6 -4 12q-6 18 -16 36t-22 33q-12 16 -32 35zM661 444q45 -20 74 -38q6 -4 6 -10q0 -8 -10 -11q-17 -6 -31 -7q-15 -18 -34 -34q-19 -18 -41 -33q-20 -15 -47 -30q-12 -7 -24 -13q48 0 94 3t85 6q16 16 27 31q23 30 33 56q45 -20 74 -38q6 -4 6 -10q0 -8 -10 -11
q-17 -6 -31 -7q-28 -29 -61 -56q-35 -29 -75 -54q-35 -24 -85 -49q-32 -17 -66 -32q42 3 77 6q52 4 115 12q51 6 115 15q-19 27 -52 60l14 16q32 -22 57 -45q25 -21 39 -37q14 -14 21 -24q5 -9 8 -19q3 -7 3 -16q-1 -35 -26 -35q-5 0 -9 4q-5 5 -20 37q-9 21 -20 37
q-56 -15 -101 -24q-55 -12 -105 -21q-47 -9 -98 -15q-11 -37 -18 -37q-8 0 -49 84h1l-1 1q67 36 114 69q46 32 85 66l3 3q-11 -3 -21 -5q-51 -11 -108 -21q-13 -30 -19 -30q-2 0 -6 6q-20 34 -36 72v1h1q35 25 58 46q24 22 43 46q21 25 34 46q12 21 17 39zM452 710
q41 -11 106 -12v13q0 46 -6 69q44 -7 74 -16q10 -4 10 -10q0 -5 -8 -8q-11 -6 -26 -10v-38h18l31 30l47 -36q6 -4 6 -8q0 -14 -10 -14h-92v-31q32 -16 51 -32q20 -15 29 -30q7 -10 7 -20q0 -29 -21 -29q-6 0 -11 3q-4 3 -9 15q-13 28 -27 45q-8 10 -19 20v-122q0 -21 1 -27
q1 -16 1 -27q0 -31 -29 -31q-23 0 -23 16q0 12 3 31q3 20 3 35v98q-9 -17 -18 -30q-15 -26 -35 -51q-20 -24 -49 -51l-12 16q23 29 38 56q16 25 28 55q12 26 21 54q6 19 10 36q-49 -2 -69 -6zM720 710q34 -9 86 -11v12q0 46 -6 69q44 -7 74 -16q10 -4 10 -10q0 -5 -8 -8
q-11 -6 -26 -10v-38h34l34 34l52 -40q6 -3 6 -8q0 -14 -12 -14h-114v-22q38 -21 62 -42q25 -21 37 -41q8 -14 8 -28q0 -29 -21 -29q-7 0 -13 4t-12 20q-16 36 -35 59q-11 14 -26 28v-118q0 -21 1 -27q1 -16 1 -27q0 -31 -29 -31q-23 0 -23 16q0 12 3 31q3 20 3 35v109
q-16 -29 -35 -51q-19 -25 -43 -50q-25 -23 -60 -50l-12 16q30 28 51 55q20 24 37 54q15 25 26 53q8 19 13 34q-29 -2 -43 -5z" />
  </g>

</svg>
