<?xml version="1.0" standalone="no"?>
<!DOCTYPE svg PUBLIC "-//W3C//DTD SVG 1.1//EN" "http://www.w3.org/Graphics/SVG/1.1/DTD/svg11.dtd" >
<svg xmlns="http://www.w3.org/2000/svg" xmlns:xlink="http://www.w3.org/1999/xlink" version="1.1" viewBox="0 -200 1000 1000">
  <g transform="matrix(1 0 0 -1 0 800)">
   <path fill="currentColor"
d="M900 335v-284q0 -32 -21 -56t-53 -31v8q0 29 -13 45t-35 27l-1 9q31 -11 43 -11q26 0 26 33v291h-79v-360q-12 -18 -28 -19t-23 -2v381h-64v-363q-6 -10 -14.5 -15t-17 -7t-15 -3t-8.5 -2v390h-78v-355q-12 -18 -30 -24.5t-24 -6.5v447l64 -37h74l45 133h-155l-42 -13
l-18 36h407l42 45l48 -68h-225l-89 -133h224l38 40l53 -55zM0 443h239q-7 49 -16.5 98t-21.5 93t-25.5 80t-29.5 60l5 -6l55 -36q11 13 27.5 33t33 41t32 42t24.5 36h-239l-58 -12l-20 36h314l46 58l60 -91l-45 -18q-20 -14 -41.5 -30.5t-43.5 -34t-42 -35t-37 -32.5l38 -20
l-5 -45q6 -20 12.5 -46.5t12.5 -56t11 -59.5t8 -55h55l40 44l56 -68h-147l1 -10q5 -37 7.5 -76t2.5 -78q0 -57 -8 -109t-28 -92t-54.5 -64t-86.5 -24h-4q-2 22 -7.5 36t-17.5 24.5t-31.5 20t-47.5 23.5l-2 8q39 -12 73 -19.5t54 -7.5q30 6 50 24t32 46.5t17 65t5 80.5
q0 35 -2.5 73.5t-7.5 78.5h-176l-47 -14zM710 823h191l33 50q14 -20 26 -31.5t21 -19t14.5 -14t6.5 -16.5q-2 -10 -12.5 -10.5t-26 -2.5t-34 -12t-36.5 -38l-7 3q5 12 15 24t10 26q0 9 -6 18h-195v-170q-7 -14 -25 -21t-31 -8v199h-195v-18q0 -39 -11 -67t-33 -33
q-1 -1 -6 -1q-9 0 -14 9t-5 20q0 19 15 30q12 25 23.5 55t17.5 82l1 1l9 -55h198v87h-131l-59 -14l-16 35h374l45 47l62 -68h-219v-87zM463 729h93l30 33l43 -55h-106l-40 -12zM560 650l34 33l47 -56h-121l-41 -9l-23 32h104zM832 652l34 33l39 -54h-135l-18 -11l-22 32h102
zM822 729l34 35l40 -59h-133l-26 -7l-15 31h100z" />
  </g>

</svg>
