<?xml version="1.0" standalone="no"?>
<!DOCTYPE svg PUBLIC "-//W3C//DTD SVG 1.1//EN" "http://www.w3.org/Graphics/SVG/1.1/DTD/svg11.dtd" >
<svg xmlns="http://www.w3.org/2000/svg" xmlns:xlink="http://www.w3.org/1999/xlink" version="1.1" viewBox="0 -140 1000 1000">
  <g transform="matrix(1 0 0 -1 0 860)">
   <path fill="currentColor"
d="M70 344v22h254v148h-114v-43l-6 -8l-47 -17l-11 7v273l86 -21v-16l-22 -15v-139h114v242l89 -22v-15l-25 -14v-663l-8 -7l-48 -10l-8 8v290h-100q-5 -90 -40.5 -152.5t-116.5 -121.5l-11 10q55 61 77 118t24 146h-87zM599 463v139h-168v21h168v170l91 -18v-15l-27 -13
v-124h109l37 43h11l54 -48v-16h-211v-139h160l38 45h13l51 -51v-16h-251q49 -103 111.5 -166.5t163.5 -114.5l-3 -13q-27 -3 -40 -10.5t-29 -28.5q-77 57 -121.5 118.5t-92.5 176.5v-248q0 -56 -18 -74t-90 -34l-12 7v30l-70 34l2 13l60 -8q5 -1 29 -1q35 0 35 21v193
q-56 -77 -93.5 -116.5t-100.5 -88.5l-9 12q61 65 95 123.5t80 174.5h-166v22h194zM524 849h299l32 29h16l65 -72l-9 -14l-35 -2l-91 -91l-14 8l47 121h-672q-16 -137 -63 -137q-11 0 -19.5 12.5t-8.5 28.5q0 19 25 47q40 44 44 114h14q7 -23 8 -44h298v84l95 -18v-15
l-31 -16v-35z" />
  </g>

</svg>
