<?xml version="1.0" standalone="no"?>
<!DOCTYPE svg PUBLIC "-//W3C//DTD SVG 1.1//EN" "http://www.w3.org/Graphics/SVG/1.1/DTD/svg11.dtd" >
<svg xmlns="http://www.w3.org/2000/svg" xmlns:xlink="http://www.w3.org/1999/xlink" version="1.1" viewBox="0 -410 2048 2048">
  <g transform="matrix(1 0 0 -1 0 1638)">
   <path fill="currentColor"
d="M989 606h-722q-64 0 -149 -11l-39 85q116 -17 188 -17h114v443l122 -63h1040l61 72l72 -50q42 -28 42 -49q0 -16 -65 -53v-300h60l99 102l120 -107q18 -16 18 -26q0 -26 -28 -26h-838v-374q0 -142 -155 -170q-12 76 -62 98q-39 17 -153 38l8 46q176 -27 209 -27
q58 0 58 57v332zM1262 663h295v322h-295v-322zM1167 663v322h-301v-322h301zM770 663v322h-291v-322h291zM439 1522l37 -8q-25 -138 -86 -218q-75 -99 -149 -99q-54 0 -54 47q0 37 58 64q80 37 121 83q44 50 73 131zM609 1613l110 -24q85 -19 85 -45q0 -29 -49 -42l-40 -12
v-182q0 -38 37 -50q22 -7 172 -7h258q84 0 108 21q32 27 44 195h42q0 -94 2 -113q2 -31 10 -45q7 -11 37 -31q23 -15 23 -33q0 -78 -243 -78h-349q-163 0 -206 38q-33 28 -33 84v182q0 100 -8 142zM1470 1546q35 -17 52 -25q151 -71 207 -119q62 -54 62 -115q0 -31 -21 -51
q-17 -15 -35 -15q-30 0 -77 86q-52 94 -210 205zM901 1625q53 -20 80 -30q205 -77 205 -170q0 -57 -52 -57q-14 0 -25 8q-12 8 -51 75q-34 60 -168 140zM874 1986q193 -105 193 -195q0 -32 -28 -53h736l59 66l88 -70q37 -29 37 -48q0 -18 -37 -26l-49 -9q-73 -88 -148 -167
l-24 18q48 91 83 179h-1514q-30 -233 -139 -233q-49 0 -49 46q0 23 54 72q93 85 95 251h39v-79h709q-14 25 -23 61q-22 86 -101 165z" />
  </g>

</svg>
