<?xml version="1.0" standalone="no"?>
<!DOCTYPE svg PUBLIC "-//W3C//DTD SVG 1.1//EN" "http://www.w3.org/Graphics/SVG/1.1/DTD/svg11.dtd" >
<svg xmlns="http://www.w3.org/2000/svg" xmlns:xlink="http://www.w3.org/1999/xlink" version="1.1" viewBox="0 -140 1000 1000">
  <g transform="matrix(1 0 0 -1 0 860)">
   <path fill="currentColor"
d="M59 374v22h199v292l67 -33h112l20 73h-286v22h533l35 44h13l50 -52v-14h-269l-65 -73h204l32 30h19l48 -42v-10l-23 -16v-221h76l44 55h14l64 -62v-15h-297q66 -75 133 -110t164 -45v-12q-25 -8 -35.5 -18.5t-18.5 -35.5q-93 32 -183 100l-10 -8q-3 -21 -5 -42
q-4 -38 -10.5 -61.5t-22.5 -47.5t-47 -36.5t-78 -14.5l-7 6l-4 25l-82 40l3 12l52 -8q23 -4 41 -4q49 0 66 22t25 94l4 36h-169q-36 -46 -50 -60q-110 -111 -328 -164l-5 14q109 35 175 81t125 129h-94q-63 -52 -107 -75.5t-122 -47.5l-4 13q97 49 147 94.5t93 123.5h-236z
M310 287l315 1l8 23l15 5l11 -7q-12 26 -33 65h-249l-11 -14q-10 -13 -26.5 -34.5t-29.5 -38.5zM322 396h362v74h-362v-74zM322 491h362v63h-362v-63zM322 576h362v57h-362v-57zM529 846h312l28 33h14l63 -62l-5 -15l-32 -6l-81 -82l-10 8l30 102h-698q-6 -145 -58 -145
q-12 0 -20.5 12t-8.5 29q0 25 9 34q37 36 44.5 53.5t10.5 71.5h17q2 -17 6 -33h315l1 88l99 -13v-15l-36 -16v-44z" />
  </g>

</svg>
