<?xml version="1.0" standalone="no"?>
<!DOCTYPE svg PUBLIC "-//W3C//DTD SVG 1.1//EN" "http://www.w3.org/Graphics/SVG/1.1/DTD/svg11.dtd" >
<svg xmlns="http://www.w3.org/2000/svg" xmlns:xlink="http://www.w3.org/1999/xlink" version="1.1" viewBox="0 -410 2048 2048">
  <g transform="matrix(1 0 0 -1 0 1638)">
   <path fill="currentColor"
d="M1121 537v367h-139q-114 0 -192 -9l-39 89q100 -22 231 -22h139v208q0 120 -8 160l109 -24q86 -19 86 -45q0 -29 -50 -42l-41 -11v-246h151l98 102l121 -107q17 -15 17 -26q0 -27 -27 -27h-360v-367h217l99 102l120 -107q17 -15 17 -26q0 -27 -27 -27h-714
q-106 0 -192 -9l-39 88q100 -21 231 -21h192zM1729 235v866q0 120 -8 159l109 -24q86 -19 86 -45q0 -28 -50 -42l-41 -11v-801q0 -122 6 -169q4 -37 4 -53q0 -48 -66 -48q-40 0 -40 26v86h-1101q-42 -9 -64 -9q-32 0 -32 31v915q0 117 -8 160l109 -24q86 -19 86 -46
q0 -28 -50 -42l-41 -11v-918h1101zM1677 1833l68 76l84 -54q40 -26 40 -48q0 -28 -78 -62v-287l50 -35q12 -9 12 -22q0 -23 -34 -23h-1431q-3 -520 -36 -731q-38 -242 -132 -401q-40 -69 -119 -159l-31 25q136 204 179 461q43 252 43 634v505l-2 68q-2 83 -6 126l112 -73
h1281zM388 1776v-341h1310v341h-1310z" />
  </g>

</svg>
