<?xml version="1.0" standalone="no"?>
<!DOCTYPE svg PUBLIC "-//W3C//DTD SVG 1.1//EN" "http://www.w3.org/Graphics/SVG/1.1/DTD/svg11.dtd" >
<svg xmlns="http://www.w3.org/2000/svg" xmlns:xlink="http://www.w3.org/1999/xlink" version="1.1" viewBox="0 -410 2048 2048">
  <g transform="matrix(1 0 0 -1 0 1638)">
   <path fill="currentColor"
d="M119 154l-16 38q468 195 719 427h-339v-14q0 -43 -61 -43q-55 0 -55 45q0 17 4 50q12 95 12 211v193q-2 85 -14 139l126 -89h477v137h-596q-119 0 -191 -8l-39 88q100 -23 230 -23h596v41q0 113 -7 160l109 -24q86 -19 86 -46q0 -24 -51 -41l-38 -14v-76h612l99 102
l120 -107q17 -15 17 -25q0 -27 -27 -27h-821v-137h528l68 77l84 -55q40 -26 40 -48q0 -28 -78 -62v-149q0 -97 13 -220q3 -30 3 -49q0 -46 -57 -46q-55 0 -55 42v18h-446q193 -145 434 -241q162 -64 405 -104v-39q-107 -2 -147 -65q-459 150 -758 449h-34v-254
q0 -102 11 -219q3 -31 3 -49q0 -47 -57 -47q-56 0 -56 42v530q-35 -30 -53 -45q-313 -273 -800 -423zM972 674v165h-489v-165h489zM972 897v160h-489v-160h489zM1071 839v-165h546v165h-546zM1071 1057v-160h546v160h-546zM1625 1873l125 -23q70 -14 70 -48q0 -27 -50 -40
l-42 -11v-212q0 -35 -4 -42q-12 -18 -41 -18q-50 0 -50 39v31h-1212q-19 -13 -51 -13q-44 0 -44 49v132q0 118 -8 160l109 -24q86 -19 86 -45q0 -29 -50 -42l-42 -11v-150h551v207q0 118 -7 160l109 -24q85 -19 85 -45q0 -30 -49 -43l-42 -10v-245h565v108q0 118 -8 160z
" />
  </g>

</svg>
