<?xml version="1.0" standalone="no"?>
<!DOCTYPE svg PUBLIC "-//W3C//DTD SVG 1.1//EN" "http://www.w3.org/Graphics/SVG/1.1/DTD/svg11.dtd" >
<svg xmlns="http://www.w3.org/2000/svg" xmlns:xlink="http://www.w3.org/1999/xlink" version="1.1" viewBox="0 -120 1000 1000">
  <g transform="matrix(1 0 0 -1 0 880)">
   <path fill="currentColor"
d="M46 63q31 59 44 90q21 55 30 111q9 61 9 156v235l84 -40h377q-2 29 -3 44q-4 49 -5 76l74 -9q20 -2 20 -13q0 -9 -12 -15l-15 -9v-23q0 -15 2 -51h169l49 59l78 -68v-19h-293q12 -129 55 -243q41 76 78 163l71 -25q13 -5 13 -13q0 -9 -14 -13l-22 -6q-34 -68 -98 -166
q58 -97 128 -131q9 14 23 50l36 92l13 -6l-13 -97q-3 -20 -3 -32q0 -28 15 -45q6 -6 18 -16q-15 -33 -44 -33q-27 0 -78 29q-61 34 -139 137q-131 -131 -235 -176l-7 14q7 6 40 29q49 37 117 112q32 36 58 72q-35 75 -51 156q-13 61 -22 148h-401v-200h108l33 91h-107
l-15 25h223l41 48l75 -56v-17h-155l-34 -91h91l28 33l55 -41q16 -12 16 -19q0 -8 -18 -11l-19 -3q-25 -66 -62 -132q63 -33 63 -65q0 -11 -9 -20q-8 -7 -16 -7q-9 0 -15 5q-50 41 -58 45q-50 -42 -83 -60q-59 -32 -169 -56l-4 18q53 16 107 46q64 35 102 79q-32 20 -70 31
l-19 -45l-56 8l66 168h-101q-8 -85 -24 -133q-28 -84 -108 -174zM351 361q-16 -40 -42 -109q58 -9 90 -16q29 44 54 125h-102zM159 697v216l76 -10q20 -2 20 -13q0 -9 -14 -14l-18 -6v-93l240 1v172l82 -9q18 -2 18 -13q0 -8 -13 -13l-25 -11l1 -126h271l1 136l71 -6
q18 -2 18 -15q0 -10 -12 -13l-18 -5l-1 -141l-59 -10v26h-574v-44zM703 722h13q39 0 69 -14q32 -15 32 -42q0 -14 -10 -23q-8 -7 -17 -7q-8 0 -17 7q-2 2 -41 44q-7 9 -29 21v14z" />
  </g>

</svg>
