<?xml version="1.0" standalone="no"?>
<!DOCTYPE svg PUBLIC "-//W3C//DTD SVG 1.1//EN" "http://www.w3.org/Graphics/SVG/1.1/DTD/svg11.dtd" >
<svg xmlns="http://www.w3.org/2000/svg" xmlns:xlink="http://www.w3.org/1999/xlink" version="1.1" viewBox="0 -204 1024 1024">
  <g transform="matrix(1 0 0 -1 0 820)">
   <path fill="currentColor"
d="M478 958q59 -7 95 -23q15 -6 15 -15q0 -7 -15 -11q-19 -9 -43 -11v-160h272q2 19 2 36v66q0 55 -4 80q48 -5 80 -20q12 -5 12 -16q0 -9 -10 -12q-15 -8 -30 -10v-160q0 -20 -28 -20q32 -22 47 -39q9 -9 9 -15q0 -9 -36 -30v-102q0 -74 2 -96q2 -30 2 -46t-11 -24
q-15 -6 -23 -6q-18 0 -18 12v22h-588v-22q0 -12 -22 -12q-8 0 -20 6q-10 8 -10 24t2 46q6 22 6 96v120q0 41 -8 70l54 -40h581l25 37q-16 3 -16 21v4h-618q-22 0 -22 26q0 11 2 30q2 22 2 36v36q0 54 -4 80q48 -5 80 -20q12 -7 12 -16q0 -8 -10 -11q-15 -9 -30 -11v-120h270
v138q0 54 -4 82zM208 386h266v102h-266v-102zM522 386h274v102h-274v-102zM208 518h266v98h-265l-1 -2v-96zM522 616v-98h274v96l-1 2h-273zM174 270h16q0 -61 -13 -98q-7 -30 -23 -54q-13 -18 -31 -31q-10 -10 -25 -14q-9 -5 -18 -5q-26 0 -26 22q0 4 8 10q34 22 56 45
q24 22 37 49q14 30 19 76zM292 306q48 -11 81 -21q11 -3 11 -11q0 -9 -11 -11q-15 -6 -31 -11v-114q0 -19 10 -26q15 -8 43 -10q35 -8 114 -8q57 0 92 2q29 3 44 8q18 4 24 20q11 23 21 116l22 -4v-84q0 -13 6 -18q3 -6 15 -14q19 -9 19 -22q0 -10 -15 -19q-18 -12 -48 -16
q-34 -6 -80 -9q-53 -4 -100 -4q-75 0 -113 4q-50 7 -66 13q-19 7 -28 24q-6 13 -6 29v116q0 42 -4 70zM402 328q67 -22 107 -48q34 -19 49 -40q12 -12 12 -26q0 -28 -18 -28q-10 0 -21 4q-7 3 -16 18q-21 36 -46 60q-29 23 -75 50zM760 284q86 -32 135 -64q43 -28 63 -55
q18 -18 18 -35q0 -28 -22 -28q-13 0 -22 4q-11 5 -24 27q-28 47 -61 74q-36 32 -95 67z" />
  </g>

</svg>
