<?xml version="1.0" standalone="no"?>
<!DOCTYPE svg PUBLIC "-//W3C//DTD SVG 1.1//EN" "http://www.w3.org/Graphics/SVG/1.1/DTD/svg11.dtd" >
<svg xmlns="http://www.w3.org/2000/svg" xmlns:xlink="http://www.w3.org/1999/xlink" version="1.1" viewBox="0 -410 2048 2048">
  <g transform="matrix(1 0 0 -1 0 1638)">
   <path fill="currentColor"
d="M1484 362q236 -110 505 -148v-40q-97 -14 -129 -80q-245 80 -458 205q-254 -158 -625 -233l-8 42q376 119 551 246q-159 117 -261 249q-85 -60 -200 -114l-21 36q100 60 185 143q-31 61 -61 145l34 15q39 -77 66 -117q104 113 181 314l137 -56q33 -13 33 -30
q0 -26 -37 -28l-56 -4q-41 -63 -74 -109h424l68 65l105 -90q21 -17 21 -35q0 -24 -27 -31l-62 -15q-134 -198 -291 -330zM1401 413q156 134 269 325h-471q-42 -50 -89 -93q92 -111 291 -232zM1524 1693q156 -115 156 -199q0 -45 -40 -45q-32 0 -78 65q-45 65 -101 114
q-75 -68 -150 -115q-57 -36 -208 -106l-20 41q200 110 307 239q-82 71 -246 158l19 37q156 -62 274 -136q48 75 102 203l131 -54q33 -14 33 -33q0 -25 -36 -28l-56 -6q-1 -2 -87 -135zM928 1885l109 -24q86 -19 86 -44q0 -30 -50 -43l-41 -11v-398h748v353q0 118 -8 159
l109 -24q85 -18 85 -45q0 -29 -49 -42l-41 -11v-324q0 -47 6 -124q1 -10 1 -19q0 -46 -57 -46q-15 0 -28 11q-18 13 -18 24v32h-188v-172q0 -67 21 -81q34 -23 140 -23q76 0 136 14q26 6 40 6q18 0 30 -10q23 -19 23 -49q0 -57 -248 -57q-105 0 -167 28q-72 32 -72 127v217
h-213q-17 -102 -32 -147q-42 -115 -183 -197q-62 -37 -201 -82l-12 41q173 62 251 165q60 81 66 220h-134q-44 -10 -63 -10q-38 0 -38 36v391q0 120 -8 159zM251 549h158v1230q0 118 -7 160l109 -24q86 -19 86 -45q0 -29 -50 -42l-40 -11v-1268h167v908q0 118 -8 160
l109 -24q86 -19 86 -46q0 -28 -50 -42l-42 -11v-810q0 -68 7 -181q3 -43 3 -60q0 -63 -60 -63q-45 0 -45 50v63h-423q-21 -14 -45 -14q-50 0 -50 50v958q0 118 -8 160l109 -24q84 -19 84 -45q0 -29 -48 -42l-42 -12v-975z" />
  </g>

</svg>
