<?xml version="1.0" standalone="no"?>
<!DOCTYPE svg PUBLIC "-//W3C//DTD SVG 1.1//EN" "http://www.w3.org/Graphics/SVG/1.1/DTD/svg11.dtd" >
<svg xmlns="http://www.w3.org/2000/svg" xmlns:xlink="http://www.w3.org/1999/xlink" version="1.1" viewBox="0 -410 2048 2048">
  <g transform="matrix(1 0 0 -1 0 1638)">
   <path fill="currentColor"
d="M1039 1705q-17 17 -25 40q-42 114 -162 209l22 35q126 -70 176 -113q65 -57 65 -111q0 -37 -29 -60h603l108 114l131 -114q23 -20 23 -32q0 -25 -27 -25h-1442v-247q0 -95 25 -123q55 -61 635 -61q371 0 527 30q45 9 63 9q31 0 47 -23q15 -20 15 -40q0 -33 -70 -40
q-3 0 -50 -5q-135 -16 -627 -16q-436 0 -551 42q-64 23 -88 83q-16 39 -16 144v247h-67l-155 -7q-22 0 -37 -3l-42 89q97 -22 234 -22h714zM964 1030l110 -24q85 -19 85 -46t-49 -41l-40 -12v-456q0 -99 12 -209q3 -33 3 -50q0 -46 -55 -46q-57 0 -57 42v682q0 109 -9 160z
M414 1039l111 -23q84 -17 84 -46q0 -28 -50 -42l-39 -11q-10 -196 -25 -308q-33 -248 -175 -390q-83 -83 -249 -148l-15 36q135 74 196 143q129 144 156 421q10 108 10 276q0 35 -4 92zM1472 1049l113 -22q82 -15 82 -49q0 -27 -50 -41l-40 -11v-559q0 -107 28 -127
q25 -18 146 -18q73 0 141 20q45 14 59 14q15 0 29 -16q20 -22 20 -45q0 -33 -52 -42q-101 -18 -256 -18q-149 0 -187 66q-25 41 -25 135v553q0 115 -8 160z" />
  </g>

</svg>
