<?xml version="1.0" standalone="no"?>
<!DOCTYPE svg PUBLIC "-//W3C//DTD SVG 1.1//EN" "http://www.w3.org/Graphics/SVG/1.1/DTD/svg11.dtd" >
<svg xmlns="http://www.w3.org/2000/svg" xmlns:xlink="http://www.w3.org/1999/xlink" version="1.1" viewBox="0 -204 1024 1024">
  <g transform="matrix(1 0 0 -1 0 820)">
   <path fill="currentColor"
d="M32 818q43 -14 114 -14h134l48 58q38 -30 70 -58q10 -5 10 -12q0 -14 -18 -14h-164v-427q25 9 47 22q62 31 143 83l4 -18q-68 -55 -119 -87q-54 -36 -104 -64q-46 -26 -99 -47q-10 -36 -14 -36q-8 0 -48 80q68 17 124 38q10 3 18 7v449h-32q-69 -1 -96 -4zM376 902
q43 -14 116 -14h360l50 62q42 -32 79 -61q9 -5 9 -13q0 -14 -14 -14h-335l-98 -278h305l40 36q36 -19 54 -39q8 -7 8 -11q0 -14 -40 -34q-10 -141 -29 -242q-23 -103 -43 -149q-23 -44 -48 -65q-28 -22 -62 -38q-28 -14 -46 -14q0 25 -9 36q-15 16 -143 56l6 22
q116 -40 154 -40q26 0 45 6q17 3 30 22q16 17 37 63q18 46 33 135q17 86 23 230h-340q-8 -4 -14 -4q-22 0 -22 8q0 5 4 12q18 29 50 126l55 162h-99q-71 -1 -98 -4z" />
  </g>

</svg>
