<?xml version="1.0" standalone="no"?>
<!DOCTYPE svg PUBLIC "-//W3C//DTD SVG 1.1//EN" "http://www.w3.org/Graphics/SVG/1.1/DTD/svg11.dtd" >
<svg xmlns="http://www.w3.org/2000/svg" xmlns:xlink="http://www.w3.org/1999/xlink" version="1.1" viewBox="0 -410 2048 2048">
  <g transform="matrix(1 0 0 -1 0 1638)">
   <path fill="currentColor"
d="M592 1016l58 -39h644l60 72l71 -49q43 -30 43 -50q0 -16 -63 -51v-247l20 -15q20 -14 20 -34q0 -27 -53 -27h-763v-186q0 -53 22 -76q55 -54 294 -54h271q271 0 335 25q58 23 76 84q15 52 42 225l48 -4l-11 -154q-1 -15 -1 -40q0 -41 10 -59q5 -10 44 -35q23 -15 23 -34
q0 -41 -124 -66q-147 -30 -589 -30q-354 0 -435 34q-100 41 -100 155v589q-182 -179 -464 -328l-24 34q454 299 590 620h-361q-117 0 -192 -8l-37 88q96 -23 229 -23h354v277h-216q-116 0 -192 -8l-38 88q95 -22 230 -22h216v134q0 116 -11 160l109 -24q85 -19 85 -46
q0 -18 -49 -41l-39 -18v-165h579v127q0 117 -9 160l111 -24q85 -19 85 -47q0 -17 -51 -41l-38 -18v-157h175l108 113l131 -113q24 -20 24 -33q0 -25 -28 -25h-410v-277h321l108 114l131 -114q23 -20 23 -32q0 -25 -27 -25h-596q250 -382 622 -493v-30q-57 -4 -80 -10
q-37 -9 -64 -53q-301 161 -541 586h-543q-71 -147 -163 -260zM724 1333h579v277h-579v-277zM629 631h680v287h-680v-287z" />
  </g>

</svg>
