<?xml version="1.0" standalone="no"?>
<!DOCTYPE svg PUBLIC "-//W3C//DTD SVG 1.1//EN" "http://www.w3.org/Graphics/SVG/1.1/DTD/svg11.dtd" >
<svg xmlns="http://www.w3.org/2000/svg" xmlns:xlink="http://www.w3.org/1999/xlink" version="1.1" viewBox="0 -140 1000 1000">
  <g transform="matrix(1 0 0 -1 0 860)">
   <path fill="currentColor"
d="M198 908l181 -1l24 26h17l51 -41v-12l-22 -16v-122l-8 -9l-50 -10l-7 6v25h-189v-109q0 -23 10.5 -30.5t36.5 -7.5h106q38 0 55 7.5t28 32.5l28 69l15 -4l-12 -101l30 -17v-15q-47 -26 -102 -26h-195q-66 0 -66 61v326zM195 885v-109h189v109h-189zM59 243v22h285v123
h-215v22h215v112l103 -21v-13l-39 -17v-61h194v107l101 -24v-13l-37 -15v-55h114l36 43h15l53 -50v-15h-218v-123h170l37 44h13l53 -50v-16h-880zM408 388v-123h194v123h-194zM82 51l-5 12q102 37 161.5 72.5t123.5 97.5l70 -57l-10 -14l-33 5q-84 -49 -145 -72t-162 -44z
M608 193l6 14q94 -15 170 -36.5t96 -41.5q26 -24 26 -51q0 -28 -18 -28q-10 0 -23 9q-74 52 -121.5 76.5t-135.5 57.5zM620 908l182 -1l24 26h17l51 -41v-12l-22 -16v-122l-8 -9l-50 -10l-7 6v25h-190v-109q0 -23 10.5 -30.5t37.5 -7.5h103q39 0 57 7.5t27 32.5l27 69l15 -4
l-11 -101l29 -17v-13q-37 -28 -102 -28h-193q-66 0 -66 61v326zM617 885v-109h190v109h-190z" />
  </g>

</svg>
