<?xml version="1.0" standalone="no"?>
<!DOCTYPE svg PUBLIC "-//W3C//DTD SVG 1.1//EN" "http://www.w3.org/Graphics/SVG/1.1/DTD/svg11.dtd" >
<svg xmlns="http://www.w3.org/2000/svg" xmlns:xlink="http://www.w3.org/1999/xlink" version="1.1" viewBox="0 -410 2048 2048">
  <g transform="matrix(1 0 0 -1 0 1638)">
   <path fill="currentColor"
d="M1398 1848q139 -295 319 -454q162 -144 292 -188v-42q-106 -3 -146 -57q-297 220 -499 704q-72 -190 -176 -345q-156 -235 -333 -359l-27 38q219 206 342 459q68 140 129 364l114 -32q62 -18 68 -24q6 -7 6 -14q0 -22 -38 -34zM1055 199v-37q0 -54 -58 -54q-57 0 -53 48
l3 47l8 103l9 106v404q-3 87 -18 137l124 -88h600l69 76l83 -54q41 -26 41 -49q0 -16 -12 -26q-10 -9 -62 -36v-489l33 -23q33 -23 33 -43q0 -22 -36 -22h-764zM1055 257h641v551h-641v-551zM525 617l3 42q32 -3 92 -12q9 -1 19 -1q50 0 50 62v767h-178v-1029q0 -18 3 -71
q4 -40 7 -119q2 -38 3 -56q4 -41 4 -61q0 -62 -66 -62q-47 0 -47 50v1348h-152v-950q-4 -28 -46 -28q-31 0 -49 18q-11 12 -11 88l8 242v591q-1 46 -16 186l122 -89h144v275q0 118 -8 160l109 -24q87 -20 87 -46q0 -25 -50 -42l-42 -14v-309h160l68 76l84 -54q40 -26 40 -48
q0 -36 -79 -58v-798q0 -138 -137 -148q1 8 1 10q0 42 -15 60q-12 16 -108 44zM1039 1107l-39 87q97 -23 230 -23h254l98 101l121 -107q17 -15 17 -25q0 -26 -27 -26h-463q-112 0 -191 -7z" />
  </g>

</svg>
