<?xml version="1.0" standalone="no"?>
<!DOCTYPE svg PUBLIC "-//W3C//DTD SVG 1.1//EN" "http://www.w3.org/Graphics/SVG/1.1/DTD/svg11.dtd" >
<svg xmlns="http://www.w3.org/2000/svg" xmlns:xlink="http://www.w3.org/1999/xlink" version="1.1" viewBox="0 -204 1024 1024">
  <g transform="matrix(1 0 0 -1 0 820)">
   <path fill="currentColor"
d="M40 898q43 -14 116 -14h144l-12 80q44 -5 77 -10q11 -3 11 -8q0 -6 -15 -14q-11 -8 -21 -12l5 -36h49l40 40q32 -20 59 -42q7 -4 7 -10q0 -14 -14 -14h-136l8 -48q0 -12 -10 -15q-9 -7 -20 -7q-12 0 -14 8l-10 62h-148q-71 -1 -98 -4zM668 960q42 -2 76 -17q8 -3 8 -11
t-17 -13q-14 -4 -27 -5q-2 -15 -8 -30h158l48 54q36 -27 69 -54q7 -5 7 -12q0 -14 -10 -14h-277q-4 -26 -13 -54q-2 -16 -28 -16q-18 0 -18 12l1 11q3 7 6 21q3 13 5 26q-55 -1 -78 -4l-18 44q40 -13 102 -14q11 44 14 76zM208 796l58 -32h472l30 32q50 -29 50 -44
q0 -9 -26 -26v-196q0 -19 -32 -26q-18 0 -18 10v22h-289q-19 -40 -39 -71q-2 -3 -3 -5h455l44 48q36 -23 69 -49q7 -5 7 -11q0 -14 -10 -14h-317q28 -30 60 -51q37 -28 85 -56q48 -24 94 -43q47 -15 88 -22v-18q-52 0 -72 -30q-46 16 -81 37q-21 13 -35 24q-13 -9 -28 -17
v-120q0 -34 -12 -52q-13 -18 -33 -26q-16 -10 -31 -10q0 21 -9 31q-8 15 -34 23q-25 10 -59 12v26q60 -18 110 -18q16 0 20 7q4 6 4 25v118h-208v-246q0 -18 -26 -18q-24 0 -24 22q0 14 1 32q1 22 1 38v172h-190v-162q0 -9 2 -16q2 -11 2 -28q0 -14 -36 -18q-18 0 -18 12
v219q-25 -19 -52 -37q-50 -27 -132 -62l-10 18q76 33 129 71q53 35 102 82q42 41 73 81h-188q-71 -1 -98 -4l-18 44q43 -14 116 -14h205q26 39 39 76h-140v-10q0 -9 -12 -15q-17 -7 -26 -7q-10 0 -10 14v278zM720 302l14 20q-19 16 -39 36q-30 30 -65 76h-240
q-15 -24 -35 -43q-34 -39 -84 -78l-3 -2l12 -9h190v12q0 52 -2 80q47 -7 80 -23q10 -6 10 -13q0 -9 -8 -13q-13 -11 -32 -13v-30h202zM256 566h486v76h-486v-76zM256 668h486v70h-486v-70z" />
  </g>

</svg>
