<?xml version="1.0" standalone="no"?>
<!DOCTYPE svg PUBLIC "-//W3C//DTD SVG 1.1//EN" "http://www.w3.org/Graphics/SVG/1.1/DTD/svg11.dtd" >
<svg xmlns="http://www.w3.org/2000/svg" xmlns:xlink="http://www.w3.org/1999/xlink" version="1.1" viewBox="0 -410 2048 2048">
  <g transform="matrix(1 0 0 -1 0 1638)">
   <path fill="currentColor"
d="M259 238h714v1552q0 115 -8 160l109 -24q86 -19 86 -46q0 -28 -50 -41l-41 -12v-1589h724v1321q0 99 -10 159l106 -24q89 -20 89 -44q0 -33 -50 -44l-39 -9v-1262q0 -17 4 -87q3 -67 3 -86q0 -77 -67 -77q-36 0 -36 27v72h-1530q-39 -18 -65 -18q-46 0 -46 53q0 14 4 56
q7 75 7 155v1138q0 114 -8 160l108 -24q87 -20 87 -46q0 -29 -50 -42l-41 -10v-1368zM553 1745l137 -48q36 -13 36 -34t-44 -31l-44 -9q-47 -159 -131 -333q-33 -67 -131 -231q139 9 277 26q68 135 103 285l139 -54q30 -11 30 -32q0 -24 -46 -32l-43 -8q-81 -192 -166 -328
q-106 -168 -267 -334q218 41 369 90q-35 83 -77 150l35 25q190 -204 190 -353q0 -80 -54 -80q-47 0 -53 85q-3 45 -25 122q-163 -77 -373 -144l-9 -49q-5 -26 -20 -26q-21 0 -37 33l-60 127q111 52 321 434l13 24l-208 -51l-9 -47q-4 -23 -19 -23q-19 0 -34 30l-58 122
q50 31 117 202q89 224 141 492zM1363 1737l143 -49q30 -10 30 -32q0 -21 -38 -29l-48 -10q-39 -138 -130 -327q-34 -69 -94 -164q-24 -38 -36 -60q144 10 288 26q49 70 119 289l117 -50q40 -16 40 -41t-40 -30l-45 -6q-95 -214 -192 -361q-94 -143 -265 -303q191 28 407 107
q-16 52 -57 156l35 17q81 -125 106 -174q49 -94 49 -186q0 -82 -55 -82q-51 0 -52 93q-1 39 -16 122q-172 -81 -396 -156l-13 -44q-7 -27 -24 -26q-19 1 -31 26l-61 128q144 73 351 457q-35 -7 -116 -28q-87 -20 -111 -28l-8 -40q-4 -26 -23 -26q-17 0 -32 29l-61 120
q54 30 138 253q82 214 121 429z" />
  </g>

</svg>
