<?xml version="1.0" standalone="no"?>
<!DOCTYPE svg PUBLIC "-//W3C//DTD SVG 1.1//EN" "http://www.w3.org/Graphics/SVG/1.1/DTD/svg11.dtd" >
<svg xmlns="http://www.w3.org/2000/svg" xmlns:xlink="http://www.w3.org/1999/xlink" version="1.1" viewBox="0 -200 1000 1000">
  <g transform="matrix(1 0 0 -1 0 800)">
   <path fill="currentColor"
d="M590 512q14 -14 29 -32.5t15 -34.5v-5q0 -9 -4.5 -19.5t-14.5 -15.5l181 -1l36 41q15 -12 32.5 -21t32 -16.5t24 -15.5t9.5 -20q0 -9 -6 -11t-15.5 -2t-22 -1t-26 -8.5t-26.5 -24.5t-24 -49h-12q1 9 3 21.5t4.5 25t4 23.5t1.5 17q0 12 -12 17h-172v-295
q-2 -53 -27.5 -75.5t-70.5 -34.5q-6 39 -39 56t-93 31v11q36 -7 68 -11t56 -4q20 0 35 4.5t18 15.5v302h-213l-63 -16l-19 41h306q-6 7 -11.5 23t-14.5 37t-24.5 44t-41.5 44v9q20 -7 44 -18t41 -23q42 30 81 59.5t66 58.5h-279l-57 -14l-22 38h362l52 45l56 -74l-38 -13z
M263 721l-9 -296q-8 -93 -18.5 -162.5t-30.5 -123t-52.5 -95t-84.5 -78.5l-5 12q44 44 69.5 101t39 123t18 138.5t6.5 147.5l7 326h-1l-57 -12l-19 34h411v44l-13 87l92 -32l-21 -65v-34h220l53 48l78 -70h-700l41 -30z" />
  </g>

</svg>
