<?xml version="1.0" standalone="no"?>
<!DOCTYPE svg PUBLIC "-//W3C//DTD SVG 1.1//EN" "http://www.w3.org/Graphics/SVG/1.1/DTD/svg11.dtd" >
<svg xmlns="http://www.w3.org/2000/svg" xmlns:xlink="http://www.w3.org/1999/xlink" version="1.1" viewBox="0 -120 1000 1000">
  <g transform="matrix(1 0 0 -1 0 880)">
   <path fill="currentColor"
d="M39 72q105 163 108 407v390l76 -32h252v125l73 -6q24 -2 24 -17q0 -10 -12 -15l-24 -11v-76h275l47 58l95 -67v-19h-739v-168h186v138l75 -5q23 -2 23 -14q0 -9 -17 -15l-16 -7v-97h180v138l80 -5q24 -2 24 -16q0 -10 -16 -17l-20 -8v-92h107l44 53l83 -59v-22h-234v-259
l-68 -8v40h-180v-41l-65 -7v275h-186v-106q-1 -196 -65 -314q-34 -65 -95 -135zM465 613v-199h180v199h-180zM335 300q1 -22 1 -29q0 -93 -29 -151q-15 -30 -43 -48q-14 -10 -31 -10t-29 13q-11 11 -11 25q0 9 7 18q1 2 57 51q25 21 45 73q12 30 15 58h18zM438 293
q82 -82 82 -162q0 -30 -17 -46q-10 -10 -24 -10q-26 0 -31 29q-1 8 -1 69q0 47 -7 72q-5 15 -15 38zM583 295q28 -14 55 -42q64 -65 64 -119q0 -24 -15 -37q-9 -9 -20 -9q-12 0 -21 10q-8 9 -12 42q-17 98 -64 144zM753 296q33 -11 78 -41q61 -41 99 -95q21 -30 21 -52
q0 -23 -14 -36q-10 -9 -21 -9q-7 0 -14 5q-9 7 -24 40q-49 91 -135 174z" />
  </g>

</svg>
