<?xml version="1.0" standalone="no"?>
<!DOCTYPE svg PUBLIC "-//W3C//DTD SVG 1.1//EN" "http://www.w3.org/Graphics/SVG/1.1/DTD/svg11.dtd" >
<svg xmlns="http://www.w3.org/2000/svg" xmlns:xlink="http://www.w3.org/1999/xlink" version="1.1" viewBox="0 -410 2048 2048">
  <g transform="matrix(1 0 0 -1 0 1638)">
   <path fill="currentColor"
d="M1788 1801q-141 -47 -368 -98v-483h231l98 101l120 -106q17 -16 17 -26q0 -25 -27 -25h-439v-592h292l98 102l121 -107q17 -15 17 -26q0 -26 -27 -26h-1017q-113 0 -192 -8l-38 87q95 -22 230 -22h38v674q0 116 -7 160l116 -25q71 -15 71 -45q0 -25 -45 -39l-38 -12v-713
h285v1109q-266 -37 -531 -45v49q188 6 469 69q319 71 509 187l98 -101q17 -18 17 -32q0 -18 -31 -18q-6 0 -10 1zM520 1829l68 76l91 -76q25 -21 25 -42q0 -13 -21 -27q-26 -18 -68 -22q-131 -301 -282 -553h237l66 84l87 -58q37 -25 37 -47q0 -26 -73 -59
q-41 -269 -102 -431q-38 -103 -115 -231q86 -90 256 -144q173 -56 539 -66l143 -4q341 0 586 47l5 -38q-48 -12 -70 -31q-23 -21 -26 -72q-143 0 -248 -3q-143 -5 -177 -5q-256 0 -470 18q-379 31 -583 226q-124 -159 -314 -288l-28 33q165 135 280 316q-115 140 -210 410
l38 20q15 -38 94 -188q56 -106 123 -171q129 213 184 625h-283q-28 -8 -44 -8q-59 0 -59 29q0 9 10 24q149 229 304 597h-201q-118 0 -192 -8l-39 88q96 -21 231 -21h201z" />
  </g>

</svg>
