<?xml version="1.0" standalone="no"?>
<!DOCTYPE svg PUBLIC "-//W3C//DTD SVG 1.1//EN" "http://www.w3.org/Graphics/SVG/1.1/DTD/svg11.dtd" >
<svg xmlns="http://www.w3.org/2000/svg" xmlns:xlink="http://www.w3.org/1999/xlink" version="1.1" viewBox="0 -410 2048 2048">
  <g transform="matrix(1 0 0 -1 0 1638)">
   <path fill="currentColor"
d="M1733 1821l98 101l121 -107q17 -15 17 -25q0 -26 -28 -26h-184v-1180h21l98 101l121 -106q17 -15 17 -25q0 -26 -27 -26h-230v-264q0 -51 7 -148q1 -7 1 -14q0 -47 -67 -47q-41 0 -41 33v440h-656q-120 0 -192 -8l-38 88q106 -24 203 -24h31v1180h-15q-41 0 -124 -8
l-39 90q78 -25 197 -25h709zM1104 584h553v362h-553v-362zM1104 1003h553v351h-553v-351zM1104 1412h553v352h-553v-352zM589 1836l68 76l84 -54q40 -25 40 -48q0 -27 -76 -62v-336l36 -25q24 -17 24 -34q0 -24 -30 -24h-448q-22 -172 -52 -355h354l68 76l84 -54
q40 -26 40 -49q0 -28 -78 -61q-19 -164 -26 -238q-36 -351 -101 -456q-66 -107 -200 -126q1 14 1 21q0 40 -33 64q-27 19 -167 67l-48 17l8 42q190 -55 260 -55q76 0 109 74q38 84 65 311q23 201 28 308h-364q-63 -17 -89 -17q-34 0 -34 27q0 17 17 76q22 81 42 239
q12 103 12 177v52l123 -82h303v392h-276q-117 0 -192 -8l-38 87q94 -22 230 -22h256z" />
  </g>

</svg>
