<?xml version="1.0" standalone="no"?>
<!DOCTYPE svg PUBLIC "-//W3C//DTD SVG 1.1//EN" "http://www.w3.org/Graphics/SVG/1.1/DTD/svg11.dtd" >
<svg xmlns="http://www.w3.org/2000/svg" xmlns:xlink="http://www.w3.org/1999/xlink" version="1.1" viewBox="0 -120 1000 1000">
  <g transform="matrix(1 0 0 -1 0 880)">
   <path fill="currentColor"
d="M63 408q32 161 48 314l60 -33h105v165h-205l-10 28h208l21 37l58 -40q16 -11 16 -21t-16 -16l-12 -4v-212l-60 -10v45h-110l-24 -166h138l21 35l55 -41q13 -10 13 -21q0 -9 -11 -12l-10 -3q-11 -138 -19 -180q-23 -112 -38 -145q-18 -42 -68 -60q-18 -7 -29 -7
q-13 0 -16 31q-3 23 -10 26q-8 4 -34 7l-36 4v21h129q23 35 41 136q13 72 17 181h-148l-10 -61zM363 279l-10 28h253v102h-134v-40l-62 -9v383l73 -33h326l25 42l55 -37q19 -13 19 -23q0 -12 -14 -15l-15 -4v-286l-65 -9v31h-145v-102h164l45 55l83 -57v-26h-292v-212
l-63 -9v221h-243zM472 542v-105h134v105h-134zM472 682v-112h134v112h-134zM669 542v-105h145v105h-145zM669 682v-112h145v112h-145zM393 921q48 -12 80 -38q53 -43 53 -84q0 -23 -15 -38q-10 -9 -20 -9q-6 0 -11 4q-6 5 -20 49q-18 52 -71 103zM537 956q40 -14 69 -37
q60 -46 60 -96q0 -24 -15 -38q-11 -10 -22 -10q-9 0 -16 8q-6 7 -16 48q-22 77 -66 112zM717 735l92 220l87 -41q10 -5 10 -14q0 -11 -13 -12l-37 -5l-121 -158z" />
  </g>

</svg>
