<?xml version="1.0" standalone="no"?>
<!DOCTYPE svg PUBLIC "-//W3C//DTD SVG 1.1//EN" "http://www.w3.org/Graphics/SVG/1.1/DTD/svg11.dtd" >
<svg xmlns="http://www.w3.org/2000/svg" xmlns:xlink="http://www.w3.org/1999/xlink" version="1.1" viewBox="0 -410 2048 2048">
  <g transform="matrix(1 0 0 -1 0 1638)">
   <path fill="currentColor"
d="M1518 436q186 -150 476 -232l-4 -38h-18q-41 0 -62 -14q-19 -13 -38 -55q-282 128 -425 267q-139 -125 -268 -188q-102 -49 -258 -97l-13 38q288 120 477 315q-99 120 -152 254q-34 85 -60 246l-5 27l-57 -11l-39 84q85 -15 223 -15h366l69 75l99 -72q36 -26 36 -44
q0 -31 -97 -58q-102 -307 -250 -482zM1217 959q29 -145 71 -233q58 -120 159 -225q153 190 218 458h-448zM531 1771v42q0 118 -8 159l109 -24q86 -19 86 -44q0 -31 -50 -43l-42 -10v-80h210l81 80l114 -85q16 -13 16 -27q0 -26 -27 -26h-394v-154h177l80 80l114 -85
q16 -12 16 -26q0 -24 -14 -23l-21 1h-600q-73 0 -148 -12l-40 86q115 -17 188 -17h153v150h-236q-67 0 -149 -11l-39 87q116 -18 188 -18h236zM173 1465h30l2 -34l2 -38h755l61 75l95 -79q27 -23 27 -43q0 -22 -34 -26l-57 -8q-44 -53 -99 -110l-30 19q24 57 41 118h-759
q-5 -137 -29 -191q-30 -68 -83 -68q-46 0 -46 45q0 20 53 88q50 63 71 252zM708 1195l79 81l115 -86q17 -13 17 -26q0 -26 -27 -26h-453q-63 0 -148 -11l-40 85q118 -17 188 -17h269zM776 1000l61 73l76 -57q35 -25 35 -45q0 -24 -65 -53v-107q53 -33 53 -55q0 -20 -19 -20
h-570q-17 -80 -38 -169h508l66 77l95 -65q31 -21 31 -45q0 -26 -77 -54q-9 -37 -30 -148q-28 -150 -108 -213q-61 -48 -171 -57q2 16 2 27q0 43 -66 80q0 1 -151 69l15 41q187 -79 253 -79q57 0 92 51q26 38 53 170q9 42 12 90h-531q-39 -15 -63 -15q-52 0 -52 32q0 8 12 33
q44 100 60 301l119 -71h409v152h-394q-77 0 -149 -12l-37 85q123 -16 186 -16h383zM1207 1902l112 -72h281l68 76l84 -55q40 -26 40 -48q0 -27 -78 -61v-398q0 -72 80 -72q56 0 92 11q38 11 41 11q15 0 31 -11q34 -25 34 -58q0 -49 -181 -49q-119 0 -156 33q-35 31 -35 119
v448h-308v-205q0 -147 -56 -264q-48 -102 -179 -199l-27 30q110 106 141 239q24 107 24 336q0 104 -8 189z" />
  </g>

</svg>
