<?xml version="1.0" standalone="no"?>
<!DOCTYPE svg PUBLIC "-//W3C//DTD SVG 1.1//EN" "http://www.w3.org/Graphics/SVG/1.1/DTD/svg11.dtd" >
<svg xmlns="http://www.w3.org/2000/svg" xmlns:xlink="http://www.w3.org/1999/xlink" version="1.1" viewBox="0 -140 1000 1000">
  <g transform="matrix(1 0 0 -1 0 860)">
   <path fill="currentColor"
d="M52 710h121v224l96 -13v-16l-31 -15v-180h35l31 40h13l44 -40h84v227l97 -16v-13l-33 -16v-182h37l39 40h14l50 -49v-13h-140v-115q74 -38 98.5 -61t24.5 -51q0 -18 -9 -34t-22 -16q-12 0 -26 29q-27 64 -66 104l-1 -465l-5 -13l-49 -14l-9 5v411q-44 -87 -77 -134
t-89 -103l-11 8q64 94 103 197t66 252h-199v-112q119 -59 119 -105q0 -15 -11 -32.5t-22 -17.5q-18 0 -28 34q-15 50 -58 95l-1 -487l-7 -11l-47 -13l-10 4v377q-62 -131 -112 -195l-9 5q49 115 72.5 209t40.5 249h-113v22zM521 52l-8 10q127 72 206 147t154 198l76 -55
l-6 -14l-30 -1q-95 -116 -179 -177t-213 -108zM557 569l-9 9q101 81 159.5 154t109.5 179l84 -57l-6 -12l-32 -2q-68 -94 -132.5 -151t-173.5 -120zM555 312l-7 10q114 80 181.5 156t136.5 202l80 -52l-4 -13l-34 -3q-79 -115 -155 -179.5t-198 -120.5z" />
  </g>

</svg>
