<?xml version="1.0" standalone="no"?>
<!DOCTYPE svg PUBLIC "-//W3C//DTD SVG 1.1//EN" "http://www.w3.org/Graphics/SVG/1.1/DTD/svg11.dtd" >
<svg xmlns="http://www.w3.org/2000/svg" xmlns:xlink="http://www.w3.org/1999/xlink" version="1.1" viewBox="0 -140 1000 1000">
  <g transform="matrix(1 0 0 -1 0 860)">
   <path fill="currentColor"
d="M642 420v-264q0 -46 -18 -62t-91 -35l-10 6v29l-87 35l2 13l85 -7q36 0 45.5 6.5t9.5 32.5v246h-285v21h285v158h-149v22h254l35 39h13l50 -46v-15h-139v-158h175l42 50h15l57 -57v-14h-289zM299 758l83 -45l-6 -14l-28 -3q-74 -111 -110 -158l13 -8v-15l-19 -15v-431
l-9 -10l-44 -9l-11 4l-1 406q-46 -43 -103 -82l-8 10q86 90 136 166.5t107 203.5zM697 332l7 11q32 -14 97 -47q65 -37 90 -63.5t25 -59.5q0 -50 -23 -50q-17 0 -30 24q-50 91 -166 185zM313 931l72 -57l-9 -12h-29q-120 -99 -267 -159l-8 11q74 46 122.5 89.5t118.5 127.5z
M268 100l-8 10q68 65 105 117t77 139l85 -47l-4 -14l-31 -3q-50 -72 -95.5 -112.5t-128.5 -89.5zM290 537l-8 8q113 99 174.5 182.5t109.5 205.5l96 -32l-3 -14l-25 -4q75 -114 140 -171.5t169 -103.5l-2 -9q-41 -5 -69 -39q-62 39 -113 94.5t-78.5 99t-64.5 113.5
q-66 -110 -134 -179t-192 -151z" />
  </g>

</svg>
