<?xml version="1.0" standalone="no"?>
<!DOCTYPE svg PUBLIC "-//W3C//DTD SVG 1.1//EN" "http://www.w3.org/Graphics/SVG/1.1/DTD/svg11.dtd" >
<svg xmlns="http://www.w3.org/2000/svg" xmlns:xlink="http://www.w3.org/1999/xlink" version="1.1" viewBox="0 -200 1000 1000">
  <g transform="matrix(1 0 0 -1 0 800)">
   <path fill="currentColor"
d="M384 566q16 16 26.5 27.5t18.5 23.5t14 27t12 39l13 -1l6 -38h77q-12 2 -15 12.5t-5.5 32.5t-10 55t-29.5 80h-31l-67 -14l-23 35h253v37l-11 89l80 -22l-15 -64v-40h138l40 45l74 -66h-152l69 -44l1 -10q-17 -3 -47 -36t-67 -90h89l35 41q18 -15 34 -23.5t29 -15.5
t20.5 -14t7.5 -18q0 -8 -4 -10.5t-10 -2.5q-4 0 -8 0.5t-9 0.5q-9 0 -20 -2.5t-22 -10.5t-22 -23.5t-21 -42.5l-13 -4q1 9 3.5 21t4.5 24t4 22.5t2 16.5q0 8 -4.5 14t-18.5 6h-336q-2 -33 -7 -53t-14 -31.5t-22 -16t-31 -6.5q-25 6 -25 22q0 11 11 28h-2zM614 583l82 -28
l-20 -58v-30h156l49 46l77 -68h-426l62 -27l-21 -53l-13 -55h229l33 46l61 -46l-38 -33q-2 -97 -14.5 -153.5t-36.5 -86.5t-60 -40.5t-84 -14.5q-2 21 -23.5 41t-66.5 31q-2 0 -2 3q0 2 1 5.5t2 2.5q18 -4 31 -7t24 -4.5t22 -2t25 -0.5q36 0 59.5 8.5t37.5 34t20.5 72
t8.5 122.5h-232q-2 -23 -9 -53.5t-12 -53.5q-24 -85 -73.5 -137t-118.5 -75l-1 10q55 37 87 85.5t49.5 107t25 127t13.5 146.5h-95l-70 -13l-23 35h295v32zM506 824q45 -48 67 -85t24 -49q0 -11 -4 -27t-10 -19h129q27 61 43 104.5t16 72.5v3h-265zM280 552v-555
q-8 -6 -13.5 -11t-11 -8.5t-12 -5.5t-16.5 -2v509q-18 -23 -39.5 -45.5t-44 -43t-44 -37.5t-39.5 -29l-10 11q42 42 83.5 93.5t78 106.5t66 109t47.5 101l70 -52l-32 -27zM289 966l74 -50l-34 -33q-18 -27 -46 -63.5t-61 -73.5t-69.5 -70.5t-71.5 -55.5l-10 9
q38 39 73.5 82.5t64.5 88t50 87t30 79.5z" />
  </g>

</svg>
