<?xml version="1.0" standalone="no"?>
<!DOCTYPE svg PUBLIC "-//W3C//DTD SVG 1.1//EN" "http://www.w3.org/Graphics/SVG/1.1/DTD/svg11.dtd" >
<svg xmlns="http://www.w3.org/2000/svg" xmlns:xlink="http://www.w3.org/1999/xlink" version="1.1" viewBox="0 -204 1024 1024">
  <g transform="matrix(1 0 0 -1 0 820)">
   <path fill="currentColor"
d="M355 744l17 -2q4 -30 3 -54q0 -38 -6 -73q-8 -35 -18 -57q-9 -20 -21 -32q-13 -12 -24 -18q-9 -4 -18 -4q-31 0 -31 22q0 8 14 23q34 36 50 62q15 23 23 54q9 30 11 79zM481 953q60 -7 98 -24q13 -4 13 -14q0 -9 -13 -12q-20 -11 -43 -13v-126q47 -22 85 -48
q41 -21 64 -43q28 -19 38 -37q8 -14 8 -28q0 -19 -5 -28q-7 -11 -18 -11q-14 0 -23 5q-9 4 -16 27q-12 26 -33 53q-22 25 -47 48q-22 19 -53 41v-633q0 -22 1 -31v-28q0 -34 -30 -34q-27 0 -27 17q0 21 3 55q4 33 4 59v724q0 54 -6 81z" />
  </g>

</svg>
