<?xml version="1.0" standalone="no"?>
<!DOCTYPE svg PUBLIC "-//W3C//DTD SVG 1.1//EN" "http://www.w3.org/Graphics/SVG/1.1/DTD/svg11.dtd" >
<svg xmlns="http://www.w3.org/2000/svg" xmlns:xlink="http://www.w3.org/1999/xlink" version="1.1" viewBox="0 -204 1024 1024">
  <g transform="matrix(1 0 0 -1 0 820)">
   <path fill="currentColor"
d="M274 958q51 -18 86 -37q8 -6 8 -11q0 -9 -21 -12q-21 -6 -33 -6q-12 -22 -23 -44h477l50 62q40 -32 77 -61q7 -5 7 -13q0 -14 -14 -14h-615q-15 -26 -30 -47q-39 -56 -82 -99q-46 -42 -111 -88l-14 14q56 50 96 95q33 38 64 86q28 47 51 89q17 39 27 86zM262 734
q44 -14 118 -14h284l48 58q38 -30 70 -58q10 -5 10 -12q0 -14 -18 -14h-394q-72 -1 -96 -4zM120 598q39 -10 110 -10h512l32 48q79 -53 78 -62q1 -13 -52 -38q0 -136 11 -203q12 -64 32 -107q17 -49 47 -85q13 -25 20 -25q4 0 10 19q11 32 38 179l18 -12q-22 -158 -22 -194
q0 -15 12 -30q10 -12 10 -28q0 -22 -22 -22q-16 0 -42 19q-31 19 -62 65q-35 49 -52 105q-24 58 -32 133q-13 79 -14 212h-522q-78 0 -96 -4zM164 386h14q0 -77 -10 -128q-6 -39 -22 -68q-10 -27 -25 -43q-9 -10 -22 -15q-7 -8 -15 -8q-26 0 -26 22q0 4 8 12q29 32 48 61
q20 30 30 66q14 39 20 101zM256 452q47 -7 81 -18q9 -3 9 -14q0 -8 -9 -11q-13 -6 -31 -7v-260q0 -19 8 -26q11 -9 31 -12q28 -6 84 -6q41 0 68 3q18 2 29 8q13 5 17 26q8 27 15 139l22 -4v-114q0 -13 6 -18q3 -6 15 -14q19 -9 19 -22q0 -10 -12 -17q-14 -14 -37 -18
q-25 -6 -62 -9q-40 -4 -80 -4q-57 0 -88 4q-42 5 -53 13q-16 7 -23 24q-7 13 -7 29v262q0 42 -2 66zM380 514q46 -33 75 -68q23 -29 34 -55q11 -20 11 -37q0 -34 -22 -34q-7 0 -12 6q-5 5 -12 28q-18 48 -34 77q-21 31 -52 65zM602 402q54 -42 85 -86q30 -37 41 -72
q10 -22 10 -48q0 -32 -18 -32q-8 0 -15 9q-8 7 -16 31q-17 62 -39 99q-20 40 -58 83z" />
  </g>

</svg>
