<?xml version="1.0" standalone="no"?>
<!DOCTYPE svg PUBLIC "-//W3C//DTD SVG 1.1//EN" "http://www.w3.org/Graphics/SVG/1.1/DTD/svg11.dtd" >
<svg xmlns="http://www.w3.org/2000/svg" xmlns:xlink="http://www.w3.org/1999/xlink" version="1.1" viewBox="0 -410 2048 2048">
  <g transform="matrix(1 0 0 -1 0 1638)">
   <path fill="currentColor"
d="M1797 1226q-278 -44 -847 -106l-99 -11l-12 -50q-6 -26 -24 -26q-22 0 -33 30l-51 140q59 14 178 182q184 259 301 559l144 -55q37 -13 37 -37q0 -28 -44 -35l-66 -12q-127 -223 -205 -327q-104 -140 -241 -272q646 39 938 71q-85 154 -216 289l29 31q155 -120 253 -236
q129 -154 129 -250q0 -68 -60 -68q-41 0 -61 56q-22 62 -50 127zM843 967l121 -72h730l68 76l84 -54q40 -26 40 -49q0 -27 -78 -61v-521q65 -37 65 -57q0 -22 -20 -22h-913v-65q0 -40 -58 -40q-51 0 -51 46q0 17 4 62q8 84 8 142v615zM940 262h773v576h-773v-576zM443 1578
q92 -55 136 -87q130 -96 130 -195q0 -71 -58 -71q-44 0 -66 93q-24 106 -142 207v-1154q0 -113 10 -203q5 -39 5 -59q0 -43 -55 -43q-54 0 -54 43v1686q0 117 -8 160l109 -24q85 -19 85 -46q0 -29 -49 -42l-43 -11v-254zM212 1597l43 -4v-53q0 -193 -26 -290
q-41 -152 -132 -152q-47 0 -47 50q0 29 59 96q53 61 76 152q16 60 27 201z" />
  </g>

</svg>
