<?xml version="1.0" standalone="no"?>
<!DOCTYPE svg PUBLIC "-//W3C//DTD SVG 1.1//EN" "http://www.w3.org/Graphics/SVG/1.1/DTD/svg11.dtd" >
<svg xmlns="http://www.w3.org/2000/svg" xmlns:xlink="http://www.w3.org/1999/xlink" version="1.1" viewBox="0 -410 2048 2048">
  <g transform="matrix(1 0 0 -1 0 1638)">
   <path fill="currentColor"
d="M878 1918l121 -77h656l68 77l85 -55q38 -25 38 -49q0 -28 -77 -61v-257l39 -31q31 -25 31 -37q0 -28 -19 -28h-837v-21q0 -34 -51 -34q-50 0 -50 52l7 174v194q0 62 -11 153zM983 1458h694v325h-694v-325zM867 1271l125 -80h685l68 76l84 -55q40 -26 40 -48
q0 -28 -77 -62v-844q0 -142 -155 -170q-11 70 -47 93q-32 20 -159 43l8 46q168 -27 202 -27q56 0 56 57v385q-186 -95 -332 -152q-47 -18 -275 -94l-7 -47q-7 -44 -30 -44q-14 0 -31 29l-61 107q-37 -166 -94 -252q-55 -82 -149 -162l-29 32q113 126 151 281q38 156 38 430
v268q0 114 -11 190zM966 533q324 52 731 220v381h-720v-164q36 -3 142 -16q199 -25 284 -53q107 -36 107 -99q0 -55 -50 -55q-27 0 -117 53q-126 74 -366 119q0 -241 -11 -386zM464 1593q251 -160 251 -307q0 -70 -57 -70q-22 0 -35 15q-11 14 -26 76q-29 121 -133 228
v-1169q0 -97 12 -209q3 -32 3 -49q0 -47 -55 -47q-56 0 -56 42v1686q0 114 -7 160l103 -24q88 -20 88 -44q0 -23 -49 -40l-39 -14v-234zM221 1595l43 -4q0 -257 -34 -362q-42 -132 -120 -132q-49 0 -49 50q0 28 56 93q55 64 80 167q13 50 24 188z" />
  </g>

</svg>
