<?xml version="1.0" standalone="no"?>
<!DOCTYPE svg PUBLIC "-//W3C//DTD SVG 1.1//EN" "http://www.w3.org/Graphics/SVG/1.1/DTD/svg11.dtd" >
<svg xmlns="http://www.w3.org/2000/svg" xmlns:xlink="http://www.w3.org/1999/xlink" version="1.1" viewBox="0 -200 1000 1000">
  <g transform="matrix(1 0 0 -1 0 800)">
   <path fill="currentColor"
d="M665 904l-78 49q-13 -63 -38.5 -134.5t-62 -142.5t-83 -139.5t-100.5 -125.5l13 6q69 50 115 99l18 -26l49 11h89v-168h-220l25 -35l49 12h146v-293h-259l35 -36l51 14h512l-73 75l-50 -53h-161v293h251l-67 70l-44 -47h-140v168h164l-65 66l-41 -41h-261
q48 61 92.5 135.5t86.5 168.5q28 -62 58.5 -115.5t61 -96.5t60 -74t55.5 -47q16 11 27 17.5t20.5 10.5t19.5 6t24 4h20q-56 15 -104 46t-89 73.5t-76 93.5t-65 106zM756 297q-4 -35 -15 -72t-24.5 -72t-28 -65t-25.5 -51l1 -1q4 0 21 20.5t38 49.5t42 60.5t33 53.5l27 23z
M475 114q7 -39 12.5 -57t16.5 -18q9 0 14.5 7t9 16.5t5 19.5t1.5 16q0 42 -35 82.5t-101 91.5l3 -5q20 -26 32 -46.5t20 -38t12.5 -34t9.5 -34.5zM161 720v-31q0 -57 -5.5 -96t-13.5 -60q-8 -20 -27 -34t-37 -14q-16 0 -26 13q-6 7 -6 15q0 13 11 29t29 35q23 24 39.5 59.5
t23.5 83.5h12zM261 -3q-8 -9 -19.5 -15.5t-36.5 -11.5l1 1000l75 -32l-20 -66v-126q67 -23 103 -53.5t36 -64.5v-4q-5 -44 -30 -44q-11 0 -21.5 10.5t-15.5 33.5q-6 27 -24 56t-48 52v-735z" />
  </g>

</svg>
