<?xml version="1.0" standalone="no"?>
<!DOCTYPE svg PUBLIC "-//W3C//DTD SVG 1.1//EN" "http://www.w3.org/Graphics/SVG/1.1/DTD/svg11.dtd" >
<svg xmlns="http://www.w3.org/2000/svg" xmlns:xlink="http://www.w3.org/1999/xlink" version="1.1" viewBox="0 -120 1000 1000">
  <g transform="matrix(1 0 0 -1 0 880)">
   <path fill="currentColor"
d="M115 752q16 -58 16 -113q0 -54 -14 -88q-16 -36 -48 -36q-12 0 -21 9q-9 10 -9 24q0 11 4 18l31 56q24 45 24 108v22h17zM170 61v900l79 -9q21 -2 21 -14q0 -9 -16 -15l-20 -8v-844zM255 806q16 -12 29 -25q45 -47 45 -89q0 -26 -13 -38q-8 -8 -18 -8q-7 0 -14 6
q-9 7 -13 53q-9 55 -27 91zM315 92l-10 27h517l53 53l78 -62v-18h-638zM429 779q0 -55 -3 -73q-6 -33 -32 -49q-9 -6 -21 -6q-29 0 -29 30q0 13 5 21l27 39q26 44 31 105h14l7 -40h174v153l78 -9q20 -3 20 -18q0 -10 -16 -15l-21 -6v-105h190l23 36l77 -50q14 -9 14 -21
q0 -15 -20 -16l-33 -1l-73 -68l-12 9l24 84h-424zM430 163v415l75 -40h257l27 36l68 -39q10 -6 10 -13q0 -9 -10 -12l-23 -8v-316l-63 -9v53h-283v-58zM488 257h283v123h-283v-123zM488 407h283v104h-283v-104zM430 630l-12 25h317l46 54l85 -60v-19h-436z" />
  </g>

</svg>
