<?xml version="1.0" standalone="no"?>
<!DOCTYPE svg PUBLIC "-//W3C//DTD SVG 1.1//EN" "http://www.w3.org/Graphics/SVG/1.1/DTD/svg11.dtd" >
<svg xmlns="http://www.w3.org/2000/svg" xmlns:xlink="http://www.w3.org/1999/xlink" version="1.1" viewBox="0 -140 1000 1000">
  <g transform="matrix(1 0 0 -1 0 860)">
   <path fill="currentColor"
d="M826 275l35 47h18l59 -53v-17h-284v-180l-6 -16l-43 -13l-13 10v199h-283v23h283v120h-151v-19l-8 -11l-41 -12l-13 10v368l52 -33h368l24 27l16 1l52 -48v-15l-25 -24v-248l-7 -13l-41 -15l-14 5v27h-150v-120h172zM441 555h363v121h-363v-121zM441 418h363v114h-363
v-114zM240 764v-696l-10 -15l-40 -13l-13 12v885l105 -23v-20l-42 -18v-85q79 -74 101 -102q21 -27 21 -54q0 -19 -10.5 -34.5t-22.5 -15.5q-20 0 -30 37q-18 68 -59 142zM105 728l18 -1q10 -91 10 -136q0 -122 -54 -122q-11 0 -19.5 18t-8.5 41q0 19 16 44q15 25 23.5 53.5
t10.5 47t4 55.5zM544 801v-60l-7 -13l-46 -12l-11 6v79h-166v22h166v111l99 -21v-14l-35 -18v-58h160v111l99 -21v-14l-35 -18v-58h74l34 45h12l50 -53v-14h-170v-60l-7 -13l-46 -12l-11 6v79h-160z" />
  </g>

</svg>
