<?xml version="1.0" standalone="no"?>
<!DOCTYPE svg PUBLIC "-//W3C//DTD SVG 1.1//EN" "http://www.w3.org/Graphics/SVG/1.1/DTD/svg11.dtd" >
<svg xmlns="http://www.w3.org/2000/svg" xmlns:xlink="http://www.w3.org/1999/xlink" version="1.1" viewBox="0 -120 1000 1000">
  <g transform="matrix(1 0 0 -1 0 880)">
   <path fill="currentColor"
d="M132 758q17 -72 17 -118q0 -54 -20 -90q-18 -34 -46 -34q-18 0 -30 12q-9 9 -9 20q0 14 6 23l35 45q12 14 23 54q6 24 9 88h15zM183 65v902l78 -10q17 -2 17 -18q0 -10 -15 -14l-20 -6v-845zM277 115l-10 28h80v335l71 -40h358l25 40l65 -37q19 -11 19 -20q0 -10 -14 -14
l-18 -6v-258h9l44 52l69 -61v-19h-698zM406 412v-269h95v269h-95zM558 143h87v269h-87v-269zM700 143h86v269h-86v-269zM291 794q76 -76 76 -135q0 -25 -14 -39q-9 -8 -20 -8t-21 7q-10 6 -10 36q-1 56 -27 132zM474 598q48 69 72 130q19 51 36 132l66 -21q14 -4 14 -12
q0 -7 -14 -11l-16 -4l-27 -66q7 -3 21 -10q57 -26 80 -48q22 -22 22 -44q0 -16 -11 -26q-9 -8 -20 -8q-12 0 -31 33q-24 41 -71 80q-50 -87 -109 -135zM386 495v443l78 -37h299l23 35l56 -31q22 -12 22 -21q0 -12 -20 -16l-18 -5v-357l-60 -10v53h-322v-45zM444 577h322v298
h-322v-298z" />
  </g>

</svg>
