<?xml version="1.0" standalone="no"?>
<!DOCTYPE svg PUBLIC "-//W3C//DTD SVG 1.1//EN" "http://www.w3.org/Graphics/SVG/1.1/DTD/svg11.dtd" >
<svg xmlns="http://www.w3.org/2000/svg" xmlns:xlink="http://www.w3.org/1999/xlink" version="1.1" viewBox="0 -204 1024 1024">
  <g transform="matrix(1 0 0 -1 0 820)">
   <path fill="currentColor"
d="M166 960q59 -7 97 -23q13 -4 13 -14t-13 -13q-19 -10 -43 -12v-113q23 -19 42 -40q22 -20 36 -39t19 -33t5 -27q0 -19 -5 -30q-9 -12 -21 -12q-7 0 -11 5q-5 4 -9 25q-6 25 -17 49t-24 45q-6 11 -15 22v-636q0 -23 1 -31v-29q0 -34 -30 -34q-26 0 -26 18q0 20 3 54
q4 34 4 60v728q0 54 -6 80zM102 752l14 -3q2 -28 2 -53q0 -37 -4 -72q-4 -33 -12 -55q-5 -19 -14 -32q-8 -12 -15 -17q-7 -4 -13 -4q-26 0 -26 18q0 9 10 24q23 36 34 61q10 24 16 55q6 29 8 78zM368 949l61 -43h445l34 42q37 -23 55 -43q7 -7 7 -13q0 -9 -38 -32v-654
q0 -74 3 -98q1 -28 1 -46q0 -16 -11 -24q-14 -6 -24 -6q-17 0 -17 13v37h-464v-42q0 -12 -16 -12q-9 0 -24 6q-12 9 -12 24q0 18 3 47q4 22 4 97v676q0 41 -7 71zM420 110h464v768h-464v-768zM440 746q44 -12 117 -12h109v7q0 88 -10 111q102 -18 102 -30q0 -18 -48 -30v-58
h58l34 34l52 -40q6 -3 6 -8q0 -14 -12 -14h-137q2 -105 9 -174q5 -61 15 -109q16 37 27 75q12 43 18 72t6 54q44 -12 68 -24q14 -5 14 -14t-9 -12q-15 -6 -30 -9q-12 -46 -24 -85q-18 -46 -40 -96q-8 -17 -15 -29q15 -59 38 -100q8 -17 12 -17q3 0 5 6q22 63 36 124l19 -12
q-12 -131 -12 -138q0 -11 4 -22q8 -17 8 -31q0 -21 -19 -21q-11 0 -27 14q-22 19 -49 61q-25 39 -42 89q-1 -2 -2 -3q-22 -33 -48 -59q-24 -30 -55 -52q-30 -27 -70 -50l-16 19q48 33 78 65q31 29 55 61q18 27 36 58q4 7 6 13q-20 70 -29 154q-10 89 -12 192h-109
q-71 -2 -97 -7zM462 654l63 -30h47l35 33q51 -36 51 -50q0 -10 -30 -25v-113l23 -18q5 -3 5 -6q0 -14 -8 -14h-136q-1 -9 -12 -14q-15 -6 -25 -6q-13 0 -13 14q0 4 1 14q1 23 1 42v105q0 49 -2 68zM512 459h68v137h-68v-137zM664 376l4 -20q-35 -28 -61 -43q-29 -18 -55 -32
q-24 -14 -51 -23q-10 -33 -16 -33q-7 0 -45 77q41 6 74 16q30 8 67 22q36 13 83 36zM766 860q26 -3 44 -13q18 -9 26 -20q6 -8 6 -18q0 -21 -22 -21q-9 0 -13 4q-6 4 -12 15q-5 11 -14 18q-7 8 -25 19z" />
  </g>

</svg>
