<?xml version="1.0" standalone="no"?>
<!DOCTYPE svg PUBLIC "-//W3C//DTD SVG 1.1//EN" "http://www.w3.org/Graphics/SVG/1.1/DTD/svg11.dtd" >
<svg xmlns="http://www.w3.org/2000/svg" xmlns:xlink="http://www.w3.org/1999/xlink" version="1.1" viewBox="0 -140 1000 1000">
  <g transform="matrix(1 0 0 -1 0 860)">
   <path fill="currentColor"
d="M224 879v-125q61 -42 84.5 -68t23.5 -55q0 -18 -9.5 -31t-22.5 -13q-24 0 -37 64q-9 43 -39 83l-7 -667l-46 -13l-12 8l1 870l100 -22v-13zM663 907v-14l-37 -17v-73h173l47 59h14l65 -66v-15h-299v-79h139l48 58h13l65 -66v-15h-545v23h216v79h-261v22h261v125zM756 281
l38 35h12l60 -50v-16l-27 -18v-158l-6 -9l-48 -10l-9 5l-1 40h-366v-28l-9 -9l-47 -8l-9 5l1 250l70 -29h341zM775 258h-366v-136h366v136zM736 620l34 31h13l56 -46v-14l-27 -18v-95l-7 -10l-48 -10l-9 5v13l-309 -1v-16l-8 -10l-47 -10l-9 6v203l69 -28h292zM748 598h-309
v-100h309v100zM828 357l47 58h14l64 -66v-15h-689v23h415q22 58 36 112l69 -34l-9 -13l-21 -1l-50 -64h124zM449 458l7 9q47 -25 67.5 -41t20.5 -34q0 -33 -25 -33q-17 0 -26 17q0 3 -3.5 14.5t-14.5 31.5t-26 36zM104 719l14 -1q16 -77 16 -116q0 -51 -16.5 -87.5
t-39.5 -36.5q-12 0 -23.5 15.5t-11.5 31.5q0 18 28 52q34 40 34 107q0 26 -1 35z" />
  </g>

</svg>
