<?xml version="1.0" standalone="no"?>
<!DOCTYPE svg PUBLIC "-//W3C//DTD SVG 1.1//EN" "http://www.w3.org/Graphics/SVG/1.1/DTD/svg11.dtd" >
<svg xmlns="http://www.w3.org/2000/svg" xmlns:xlink="http://www.w3.org/1999/xlink" version="1.1" viewBox="0 -140 1000 1000">
  <g transform="matrix(1 0 0 -1 0 860)">
   <path fill="currentColor"
d="M266 758v97h-142v23h278l36 35h15l46 -42v-16h-169v-97h107l40 43h11l52 -49v-15h-93v-236l57 13v-13l-57 -18v-96l-3 -15l-53 -12l-7 6v100l-277 -84l-6 -28l-13 -3l-33 76l96 16v294h-76v21h191zM384 737h-169v-64h169v64zM384 651h-169v-78h169v78zM215 551v-95
l169 33v62h-169zM701 900l-2 -14l-34 -7q-3 -5 -6 -12q-8 -20 -43 -87h212l41 50h14l58 -58v-15h-117q-27 -125 -101 -222q101 -82 229 -118v-12q-25 -9 -35 -17.5t-20 -28.5q-70 31 -112 59t-96 81q-103 -100 -236 -139l-6 10q124 62 209 168q-46 53 -91 160
q-42 -51 -83 -88l-12 8q54 77 82.5 140t61.5 177zM757 757h-152l-25 -39q39 -83 104 -146q57 81 73 185zM161 332h15q7 -75 7 -83q0 -48 -17.5 -90t-37 -62.5t-31.5 -20.5q-13 0 -24.5 16.5t-11.5 34.5q0 16 8.5 28t28.5 32q39 39 48.5 61t14.5 84zM711 234l14 -2l7 -109
l33 -20v-15q-22 -15 -53 -22.5t-51.5 -8.5t-56.5 -1h-209q-78 0 -101.5 12.5t-23.5 72.5v191l95 -22v-13l-31 -15v-138q0 -21 11.5 -26.5t63.5 -5.5h182q49 0 68.5 10.5t29.5 41.5zM405 322l3 10q93 -18 126.5 -38.5t33.5 -54.5q0 -16 -7.5 -28t-18.5 -12t-26 19
q-37 46 -53 61t-58 43zM727 305l5 10q84 -10 147 -38t63 -69q0 -46 -19 -46q-17 0 -52 35q-65 65 -144 108z" />
  </g>

</svg>
