<?xml version="1.0" standalone="no"?>
<!DOCTYPE svg PUBLIC "-//W3C//DTD SVG 1.1//EN" "http://www.w3.org/Graphics/SVG/1.1/DTD/svg11.dtd" >
<svg xmlns="http://www.w3.org/2000/svg" xmlns:xlink="http://www.w3.org/1999/xlink" version="1.1" viewBox="0 -410 2048 2048">
  <g transform="matrix(1 0 0 -1 0 1638)">
   <path fill="currentColor"
d="M1291 1729q71 129 109 236l118 -50q29 -12 29 -29q0 -21 -29 -24l-58 -8q-63 -74 -117 -125h409l68 76l84 -54q40 -26 40 -48q0 -29 -77 -62v-603q0 -72 7 -140q4 -40 4 -58q0 -52 -62 -52q-49 0 -49 32v46h-555v-28q0 -40 -58 -40q-49 0 -49 39q0 5 6 68l3 64l3 79v580
q0 32 -9 170l126 -69h57zM1212 1141v-217h555v217h-555zM1212 1197h555v218h-555v-218zM1212 1471h555v204h-555v-204zM520 1254v234h-202q-109 0 -191 -8l-39 88q97 -23 230 -23h202v228h-111q-108 0 -191 -8l-38 88q95 -23 229 -23h348l99 101l120 -106q17 -15 17 -26
q0 -26 -27 -26h-348v-228h211l99 102l120 -107q17 -15 17 -26q0 -26 -27 -26h-420v-234h192l61 72l72 -50q42 -29 42 -50q0 -15 -65 -52v-282q36 -31 36 -45q0 -21 -32 -21h-597v-45q0 -30 -51 -30q-53 0 -53 44q0 4 4 49q6 64 6 104v204q0 74 -10 168l126 -66h171z
M327 1197v-314h498v314h-498zM1501 516l33 -4l-5 -164q-1 -35 7 -63q4 -14 46 -51q17 -14 17 -29q0 -38 -83 -58q-71 -17 -288 -17h-90q-430 2 -467 13q-77 24 -77 122v277q-4 145 -7 159l109 -24q85 -18 85 -45q0 -29 -49 -42l-42 -11v-261q0 -64 20 -77q32 -20 230 -17
q47 0 207 -1q44 -1 87 -1q124 0 172 10q46 11 60 60q17 58 35 224zM327 615l41 -7q-14 -172 -45 -259q-26 -73 -79 -122q-52 -50 -103 -50q-60 0 -60 53q0 18 10 32q8 12 58 42q91 54 134 147q26 56 44 164zM1627 624q321 -199 321 -333q0 -77 -57 -77q-45 0 -68 75
q-36 116 -109 199q-33 38 -114 107zM960 740l48 -21q131 -58 193 -103q93 -67 93 -142q0 -66 -56 -66q-40 0 -73 72q-52 114 -225 225z" />
  </g>

</svg>
