<?xml version="1.0" standalone="no"?>
<!DOCTYPE svg PUBLIC "-//W3C//DTD SVG 1.1//EN" "http://www.w3.org/Graphics/SVG/1.1/DTD/svg11.dtd" >
<svg xmlns="http://www.w3.org/2000/svg" xmlns:xlink="http://www.w3.org/1999/xlink" version="1.1" viewBox="0 -204 1024 1024">
  <g transform="matrix(1 0 0 -1 0 820)">
   <path fill="currentColor"
d="M112 748h22q0 -71 -7 -118q-5 -33 -16 -60q-8 -26 -21 -39q-5 -11 -14 -15q-5 -8 -14 -8q-26 0 -26 24q0 6 4 12q21 30 35 56q15 27 22 59q8 36 15 89zM178 954q59 -7 95 -23q15 -6 15 -15q0 -7 -15 -11q-17 -9 -43 -13v-131q26 -19 44 -40q25 -20 40 -43q18 -19 24 -35
q4 -16 4 -29q0 -16 -3 -27q-8 -11 -21 -11q-8 0 -13 6q-6 4 -8 27q-6 25 -19 50q-14 27 -27 48q-8 13 -21 28v-623q0 -21 2 -30q4 -18 4 -28q0 -34 -32 -34q-26 0 -26 16q0 23 2 56q2 35 2 60v720q0 54 -4 82zM328 854q43 -14 114 -14h120q5 15 10 28q20 49 26 92
q52 -6 79 -18q13 -4 13 -14q0 -8 -16 -13q-21 -7 -34 -9q-12 -37 -26 -66h230l44 48q36 -23 66 -49q10 -5 10 -9q0 -16 -14 -16h-251q26 -43 56 -76q22 -29 51 -53q9 9 16 17q14 11 24 27q8 14 16 27q8 16 14 30q74 -47 74 -60q0 -14 -18 -14q-12 0 -34 4q-12 -12 -31 -21
q-14 -10 -29 -20q-9 -4 -16 -7q3 -4 6 -6q42 -34 85 -56q41 -24 77 -32v-16q-51 0 -66 -28q-40 19 -71 48q-4 3 -6 5q-7 -7 -21 -13v-194q0 -22 2 -30q2 -9 2 -18q0 -17 -34 -22q-18 0 -18 8v22h-110v-224q0 -34 -15 -50q-11 -16 -30 -27t-31 -11l-2 20q-2 10 -7 15
q-11 11 -33 20q-27 12 -58 15v22q51 -14 92 -14q20 0 26 5q10 6 10 31v198h-134v-8q0 -9 -12 -13q-13 -5 -22 -5q-14 0 -14 10v282q-8 -9 -12 -13q-45 -32 -116 -75l-14 18q57 42 95 76q27 20 49 47q-4 0 -7 2q-5 2 -10 16q-16 30 -34 49q-17 22 -49 42l6 14q48 -21 77 -41
q23 -18 36 -34q8 -9 9 -17q29 33 54 77q16 24 28 51h-108q-69 -1 -96 -4zM486 364h292v96h-292v-96zM486 488h292v92h-292v-92zM774 610l25 24q-5 7 -7 10q-30 30 -59 69q-27 39 -57 101h-74q-7 -19 -14 -31q-32 -56 -76 -108q-24 -27 -45 -49l33 -16h274zM464 276
q40 -16 65 -35q7 -3 7 -9q0 -4 -12 -8q-14 -5 -28 -6q-17 -23 -33 -43q-21 -23 -42 -40q-20 -20 -46 -38q-27 -19 -57 -35l-12 10q35 31 61 56q23 24 45 53q20 27 33 51q14 25 19 44zM742 274q48 -27 82 -51q36 -26 58 -42q18 -17 28 -29q9 -9 13 -19q5 -11 5 -21
q-1 -32 -26 -32q-6 0 -12 6q-7 6 -31 41q-21 35 -50 63q-29 31 -79 68z" />
  </g>

</svg>
