<?xml version="1.0" standalone="no"?>
<!DOCTYPE svg PUBLIC "-//W3C//DTD SVG 1.1//EN" "http://www.w3.org/Graphics/SVG/1.1/DTD/svg11.dtd" >
<svg xmlns="http://www.w3.org/2000/svg" xmlns:xlink="http://www.w3.org/1999/xlink" version="1.1" viewBox="0 -410 2048 2048">
  <g transform="matrix(1 0 0 -1 0 1638)">
   <path fill="currentColor"
d="M1577 1388h164l99 99l120 -105q17 -14 17 -25q0 -27 -27 -27h-474v-216h197l98 102l120 -107q18 -15 18 -25q0 -27 -27 -27h-406v-57q0 -55 11 -158q3 -32 3 -50q0 -46 -55 -46q-56 0 -56 42v269h-149q-117 0 -192 -8l-38 88q98 -23 230 -23h149v216h-206q-116 0 -192 -8
l-38 88q92 -22 230 -22h84q-17 23 -20 59q-14 127 -107 252l4 4q-82 -1 -153 -8l-38 88q94 -22 230 -22h236q-10 16 -13 31q-14 59 -29 85q-18 30 -65 79l22 22q163 -89 163 -164q0 -30 -25 -53h220l98 102l121 -107q17 -16 17 -26q0 -27 -27 -27h-233l101 -41q23 -9 23 -25
q0 -23 -35 -28l-49 -8q-35 -79 -121 -213zM1528 1388q71 184 98 315h-453q8 -8 27 -32q133 -150 133 -227q0 -32 -26 -56h221zM300 1319l96 -56h375l61 72l72 -50q43 -29 43 -50q0 -16 -67 -52v-270q14 -9 20 -14q29 -20 29 -36q0 -25 -29 -25h-526v-13q0 -31 -49 -31
t-49 36q0 4 4 42l-1 43l4 64v250q-50 -225 -183 -391l-32 24q74 126 111 294q35 161 35 446v159q0 69 -8 183l120 -88h414l62 71l73 -49q41 -28 41 -50q0 -16 -67 -52v-252l26 -18q25 -17 25 -36q0 -24 -40 -24h-552zM308 1798v-299h444v299h-444zM374 897h409v308h-409
v-308zM1497 527l33 -4l-5 -164q0 -1 -1 -9q-4 -45 16 -71q4 -5 38 -33q17 -15 17 -30q0 -38 -83 -58q-71 -17 -290 -17h-88q-137 1 -204 1q-224 0 -268 19q-59 26 -59 115v277q0 117 -7 160l109 -25q86 -18 86 -45q0 -28 -50 -42l-42 -11v-260q0 -64 21 -77q32 -20 228 -17
q46 0 195 -1q44 -1 86 -1q126 0 173 10q46 11 60 60q17 56 35 223zM334 649l40 -6q-12 -171 -44 -259q-26 -73 -79 -122q-53 -50 -104 -50q-60 0 -60 53q0 17 10 32q8 12 58 41q91 54 135 148q26 55 44 163zM1618 631q321 -199 321 -332q0 -77 -56 -77q-46 0 -69 74
q-37 117 -109 199q-34 39 -113 107zM958 745q31 -14 47 -21q132 -57 194 -103q93 -67 93 -142q0 -66 -57 -66q-40 0 -72 72q-52 113 -226 226z" />
  </g>

</svg>
