<?xml version="1.0" standalone="no"?>
<!DOCTYPE svg PUBLIC "-//W3C//DTD SVG 1.1//EN" "http://www.w3.org/Graphics/SVG/1.1/DTD/svg11.dtd" >
<svg xmlns="http://www.w3.org/2000/svg" xmlns:xlink="http://www.w3.org/1999/xlink" version="1.1" viewBox="0 -120 1000 1000">
  <g transform="matrix(1 0 0 -1 0 880)">
   <path fill="currentColor"
d="M73 319l-19 28l379 11q-18 71 -22 125h-232q0 -39 -14 -64q-20 -33 -53 -33q-14 0 -24 10q-9 11 -9 25q0 11 8 21q2 2 32 26q29 24 40 83h18l2 -40h60v305l61 -31h122l11 83h-365l-14 26h760l56 63l87 -72v-17h-450l-48 -83h241l18 31l63 -40q14 -9 14 -16q0 -8 -12 -13
l-19 -11v-225h80l22 25l71 -56q11 -8 11 -17q0 -18 -21 -19l-41 -3l-69 -49l-10 9l37 82h-390l45 -12q12 -4 12 -12t-14 -13l-19 -7q7 -52 15 -78l335 10l38 43l67 -47l3 -20l-435 -14q28 -65 76 -109q82 54 135 100l63 -45q12 -9 12 -14q-1 -10 -20 -11l-39 -1
q-21 -14 -105 -65q41 -31 105 -52q63 -19 132 -21q11 19 18 33l42 86l16 -6l-9 -60q-2 -16 -2 -25q0 -18 9 -25q10 -8 31 -15q-11 -19 -22 -30q-19 -21 -70 -21q-102 0 -206 47q-56 25 -102 60q-167 -83 -432 -111l-5 15q121 21 230 57q110 38 169 75q-53 55 -85 136z
M300 569v-58h400v58h-400zM300 597h400v71h-400v-71zM300 695h400v62h-400v-62zM557 469q51 -7 91 -25q44 -19 44 -44q0 -11 -9 -18q-10 -9 -22 -9q-16 0 -38 26q-16 19 -71 58z" />
  </g>

</svg>
