<?xml version="1.0" standalone="no"?>
<!DOCTYPE svg PUBLIC "-//W3C//DTD SVG 1.1//EN" "http://www.w3.org/Graphics/SVG/1.1/DTD/svg11.dtd" >
<svg xmlns="http://www.w3.org/2000/svg" xmlns:xlink="http://www.w3.org/1999/xlink" version="1.1" viewBox="0 -204 1024 1024">
  <g transform="matrix(1 0 0 -1 0 820)">
   <path fill="currentColor"
d="M32 832q43 -10 114 -10h14v50q0 54 -4 82q57 -7 94 -23q12 -6 12 -15q0 -7 -12 -11q-20 -9 -42 -13v-70h190v50q0 54 -4 82q59 -7 95 -23q15 -6 15 -15q0 -7 -15 -11q-19 -9 -43 -13v-70h40l44 48q34 -27 66 -49q6 -5 6 -11q0 -18 -10 -18h-146v-346h36l44 46
q36 -23 69 -47q7 -5 7 -11q0 -18 -10 -18h-184v-110q3 -26 56 -26q15 0 72 4q28 0 30 -22q-2 -20 -22 -24q-26 -6 -80 -6q-55 0 -79 14q-20 14 -27 42v128h-74q-1 -47 -5 -72q-7 -32 -18 -56q-10 -23 -25 -41q-19 -17 -35 -31q-19 -13 -41 -24l-14 16q18 12 29 23
q11 9 22 21q9 16 16 31q8 16 13 35q4 18 6 43q4 22 4 55h-102v-180q0 -42 5 -50q5 -13 24 -20q26 -8 70 -12q57 -6 119 -6q40 0 93 5q32 3 53 10q12 7 16 7q21 0 32 -10q12 -9 12 -22q0 -8 -3 -11q-3 -6 -20 -10q-25 -5 -78 -8q-63 -5 -98 -5q-71 0 -145 9q-68 5 -88 17
q-15 6 -25 17q-9 11 -13 31q-2 16 -2 62v174q-24 -1 -36 -2l-18 44q43 -10 114 -10h14v346h-14q-69 -1 -96 -4zM208 446h190v102h-190v-102zM208 576h190v92h-190v-92zM208 698h190v94h-190v-94zM861 678l35 60l78 -50q6 -4 6 -12q0 -12 -12 -16l-262 -33q1 -20 3 -42
q9 -113 22 -180q12 -67 32 -110q7 14 14 26q40 72 67 138q22 52 44 125q49 -20 80 -42q12 -8 12 -12q0 -7 -18 -13q-24 -9 -42 -9q-51 -113 -86 -178q-27 -43 -53 -75q18 -32 37 -60q29 -43 60 -71q14 -16 24 -16q6 0 11 7q9 14 51 165l16 -10q-30 -122 -30 -162
q0 -18 18 -30q12 -12 12 -28q0 -22 -30 -22q-12 0 -23 7q-26 10 -59 42q-48 37 -82 89q-18 28 -31 54q-4 -5 -7 -11q-47 -58 -106 -105q-59 -48 -116 -72l-8 18q73 44 109 74q42 38 72 79q19 22 36 49q-5 14 -9 23q-19 49 -40 137q-17 89 -24 194q-3 9 -3 16l-75 -8l-32 -8
l-30 36l56 6l78 9q-6 92 -6 153q-1 107 -8 144q82 -22 82 -34q0 -7 -30 -18q0 -134 7 -241zM786 914q51 -25 78 -47q27 -21 37 -39q9 -13 9 -28q0 -30 -22 -30q-7 0 -15 4q-6 4 -12 17q-15 37 -34 57q-18 24 -53 50z" />
  </g>

</svg>
