<?xml version="1.0" standalone="no"?>
<!DOCTYPE svg PUBLIC "-//W3C//DTD SVG 1.1//EN" "http://www.w3.org/Graphics/SVG/1.1/DTD/svg11.dtd" >
<svg xmlns="http://www.w3.org/2000/svg" xmlns:xlink="http://www.w3.org/1999/xlink" version="1.1" viewBox="0 -410 2048 2048">
  <g transform="matrix(1 0 0 -1 0 1638)">
   <path fill="currentColor"
d="M1077 1763v-18v-28q0 -706 -101 -1091q-64 -244 -182 -405q-41 -56 -131 -143l-23 29q182 212 264 578q78 346 78 870v145v31v32h-27q-117 0 -192 -8l-38 88q94 -22 230 -22h520l68 76l84 -54q40 -25 40 -49q0 -28 -78 -61q-11 -75 -83 -478l-13 -72h276l68 76l84 -54
q40 -26 40 -48q0 -33 -81 -62q-8 -94 -25 -232q-42 -371 -78 -494q-48 -170 -162 -229q-58 -31 -145 -45q1 8 1 9q0 65 -59 90q-19 8 -171 53l9 40q204 -51 274 -51q89 0 132 79q75 138 127 811h-250q-19 0 -53 -2q-24 -2 -37 -2q-42 0 -42 31q0 11 4 30q3 12 14 72l87 508
h-429zM488 1460h108l98 102l119 -107q19 -15 19 -26q0 -26 -27 -26h-317v-432q162 46 325 108l10 -34q-113 -69 -335 -154v-643q0 -141 -155 -170q-12 70 -47 93q-34 21 -159 43l7 46q165 -27 201 -27q57 0 57 57v568q-40 -13 -60 -20q-109 -37 -153 -50l-11 -43
q-8 -31 -26 -31q-10 0 -27 31l-70 130q158 23 347 70v458h-92q-117 0 -192 -8l-39 88q97 -23 231 -23h92v335q0 118 -8 160l110 -24q85 -19 85 -46q0 -29 -49 -42l-42 -10v-373z" />
  </g>

</svg>
