<?xml version="1.0" standalone="no"?>
<!DOCTYPE svg PUBLIC "-//W3C//DTD SVG 1.1//EN" "http://www.w3.org/Graphics/SVG/1.1/DTD/svg11.dtd" >
<svg xmlns="http://www.w3.org/2000/svg" xmlns:xlink="http://www.w3.org/1999/xlink" version="1.1" viewBox="0 -410 2048 2048">
  <g transform="matrix(1 0 0 -1 0 1638)">
   <path fill="currentColor"
d="M1341 948q-73 -361 -260 -573q-158 -177 -442 -302l-15 34q304 171 447 391q120 186 174 450h-237q-130 -2 -191 -8l-39 88q95 -22 230 -22h248q26 153 40 455h-204q-140 -3 -192 -8l-38 88q95 -22 230 -22h204v29v67v194q0 115 -7 160l112 -24q84 -18 84 -45
q0 -29 -50 -42l-41 -11l-3 -165l-3 -142l-1 -21h281l98 102l121 -107q17 -15 17 -26q0 -27 -27 -27h-490v-14q-15 -322 -36 -441h393l97 102l122 -107q16 -15 16 -26q0 -27 -27 -27h-551q100 -280 199 -433q152 -237 388 -315v-32q-68 -3 -96 -15q-29 -13 -51 -50
q-173 126 -288 325q-103 178 -205 509l-3 11h-4zM508 1499h84l99 101l121 -107q16 -14 16 -25q0 -27 -27 -27h-293v-426q85 38 270 138l15 -35q-108 -88 -285 -184v-689q0 -142 -155 -171q-12 70 -47 93q-32 21 -159 43l8 46q164 -27 201 -27q56 0 56 58v598l-40 -20
l-39 -20l-108 -53l-38 -19l-5 -42q-5 -36 -24 -36q-10 0 -29 27l-85 122q163 44 368 130v467h-97q-117 0 -192 -8l-38 86q95 -20 230 -20h97v292q0 120 -8 160l110 -24q85 -18 85 -45q0 -29 -49 -42l-42 -11v-330z" />
  </g>

</svg>
