<?xml version="1.0" standalone="no"?>
<!DOCTYPE svg PUBLIC "-//W3C//DTD SVG 1.1//EN" "http://www.w3.org/Graphics/SVG/1.1/DTD/svg11.dtd" >
<svg xmlns="http://www.w3.org/2000/svg" xmlns:xlink="http://www.w3.org/1999/xlink" version="1.1" viewBox="0 -200 1000 1000">
  <g transform="matrix(1 0 0 -1 0 800)">
   <path fill="currentColor"
d="M771 964l51 -77l-57 -10q-39 -12 -82 -25.5t-88 -26.5t-91 -24.5t-92 -18.5l-14 3q118 38 213.5 83t159.5 96zM649 627q-14 -14 -24 -14t-16.5 8t-7.5 18v12q0 42 -8.5 74t-24.5 62l-6 9q46 -32 72 -65.5t26 -65.5q0 -18 -11 -38zM713 595l42 46l57 -74l-39 -28
q-79 -121 -144 -218t-122 -169q54 -51 96 -79.5t74 -28.5q2 0 4.5 0.5t4.5 0.5q11 -1 22 -3t24 -2q21 0 50.5 1t61 2.5t62 4.5t54.5 7q-17 -9 -27.5 -16t-19.5 -15.5t-17.5 -19.5t-20.5 -27q-6 -1 -14 -1.5t-16 -0.5q-12 0 -25.5 -0.5t-27.5 -0.5q-32 0 -66.5 3.5t-69.5 16
t-68 37.5t-61 68q-18 26 -36 26q-8 0 -18 -7t-20.5 -16.5t-19.5 -20.5t-15 -19l-55 52q32 11 63.5 21.5t60.5 18.5q88 139 143 242.5t81 172.5l-221 -10l-42 -16l-24 39zM277 454v-377q0 -43 -18 -69t-66 -44q-5 15 -12 27.5t-19.5 23t-31.5 19t-47 14.5v15q33 -8 57 -11
t40 -3q13 0 14 1q14 2 21.5 13t7.5 27v328l-124 -84l-54 57l178 78v209h-67l-61 -14l-27 35h155v269l74 -29l-20 -63v-177h29l49 44l72 -65h-150v-189l119 57l9 -9z" />
  </g>

</svg>
