<?xml version="1.0" standalone="no"?>
<!DOCTYPE svg PUBLIC "-//W3C//DTD SVG 1.1//EN" "http://www.w3.org/Graphics/SVG/1.1/DTD/svg11.dtd" >
<svg xmlns="http://www.w3.org/2000/svg" xmlns:xlink="http://www.w3.org/1999/xlink" version="1.1" viewBox="0 -410 2048 2048">
  <g transform="matrix(1 0 0 -1 0 1638)">
   <path fill="currentColor"
d="M1399 1082q1 -177 -33 -358h360l99 102l120 -107q17 -15 17 -26q0 -26 -27 -26h-582q-128 -428 -660 -603l-12 39q209 81 353 216q165 154 220 348h-304q-118 0 -190 -8l-39 88q100 -23 229 -23h319q26 115 33 301q2 41 3 57h-293q-118 -164 -202 -240l-30 28
q154 197 239 479l140 -57q30 -12 29 -29q-2 -28 -40 -32l-59 -6q-20 -43 -43 -86h551l99 101l120 -106q17 -15 17 -26q0 -26 -27 -26h-407zM1710 1559q-44 55 -162 176l22 27q111 -78 186 -139q160 -131 160 -234q0 -62 -52 -62q-33 0 -53 48q-29 68 -67 139l-64 -10
q-226 -36 -378 -57q-147 -21 -334 -47l-18 -38q-15 -35 -30 -35q-16 0 -25 20l-68 136q89 40 211 181q117 137 186 301l143 -62q31 -14 31 -29q0 -25 -42 -28l-50 -5q-144 -197 -356 -344l70 5l263 20q247 19 392 34zM1429 599l19 25q465 -301 465 -478q0 -24 -18 -42
q-17 -16 -38 -16q-39 0 -73 83q-83 202 -355 428zM460 1484h83l99 101l120 -107q17 -15 17 -25q0 -27 -27 -27h-292v-462q135 40 297 105l10 -35q-98 -65 -307 -150v-662q0 -142 -154 -170q-12 70 -48 92q-32 21 -159 44l7 46q170 -27 202 -27q57 0 57 57v585
q-32 -11 -106 -38q-47 -17 -78 -27l-11 -42q-8 -32 -26 -32q-10 0 -27 32l-70 130q152 24 318 65v489h-68q-117 0 -191 -8l-39 88q96 -22 230 -22h68v319q0 116 -8 160l109 -24q85 -19 85 -45q0 -29 -49 -42l-42 -11v-357z" />
  </g>

</svg>
