<?xml version="1.0" standalone="no"?>
<!DOCTYPE svg PUBLIC "-//W3C//DTD SVG 1.1//EN" "http://www.w3.org/Graphics/SVG/1.1/DTD/svg11.dtd" >
<svg xmlns="http://www.w3.org/2000/svg" xmlns:xlink="http://www.w3.org/1999/xlink" version="1.1" viewBox="0 -204 1024 1024">
  <g transform="matrix(1 0 0 -1 0 820)">
   <path fill="currentColor"
d="M32 730q44 -12 117 -12h35v154q0 57 -6 80q56 -7 99 -26q11 -4 11 -11q0 -10 -13 -14q-20 -6 -43 -10v-173h24l43 47q35 -26 65 -50q8 -5 8 -11q0 -14 -14 -14h-126v-219q5 2 9 3q53 17 123 46l4 -22q-56 -34 -99 -53q-20 -9 -37 -17v-315q0 -35 -14 -52q-11 -17 -33 -26
q-18 -11 -33 -11q-6 26 -17 38q-7 9 -25 17q-25 11 -58 13v26q50 -15 90 -15q26 0 33 6q9 5 9 28v270q-2 0 -3 -1q-39 -16 -82 -28q-11 -37 -18 -37q-8 0 -49 84q61 8 109 21q21 4 43 10v234h-35q-71 -2 -97 -7zM456 720l63 -30h295l31 29q51 -36 51 -50q0 -10 -30 -25v-179
l23 -18q5 -3 5 -7q0 -14 -10 -14h-136v-293q0 -14 6 -23q3 -9 16 -14q16 -3 59 -3q32 0 58 4q10 0 15 9q5 7 8 24q6 24 11 114l19 -4v-89q0 -17 6 -27q8 -12 22 -19q8 -4 8 -14q0 -4 -3 -11q-6 -10 -20 -17q-16 -8 -47 -11q-35 -4 -62 -4q-52 0 -78 4q-24 1 -37 9
q-15 6 -23 20q-6 13 -6 23v322h-72q-7 -74 -18 -116q-12 -41 -32 -78q-22 -43 -53 -75q-30 -32 -78 -65q-49 -32 -120 -60l-11 20q65 31 104 61q36 24 65 58q26 29 46 66q16 36 27 76q11 45 17 113h-69v-20q0 -10 -12 -16q-15 -6 -25 -6q-13 0 -13 14q0 4 1 14q1 23 1 42
v198q0 49 -2 68zM506 454h312v204l-1 4h-311v-208zM546 956q41 -18 68 -35q5 -3 5 -9q0 -7 -9 -10q-15 -5 -28 -6q-16 -29 -35 -57q-20 -29 -43 -54q-20 -24 -49 -50q-27 -24 -58 -47l-13 13q37 36 62 68q25 31 46 65q22 36 36 66q13 30 18 56zM759 951q21 -47 48 -83
q25 -34 57 -66q32 -31 64 -52q31 -20 59 -29l-2 -15q-45 0 -60 -28q-29 19 -53 44q-26 28 -45 59q-22 29 -42 64q-22 37 -47 97z" />
  </g>

</svg>
