<?xml version="1.0" standalone="no"?>
<!DOCTYPE svg PUBLIC "-//W3C//DTD SVG 1.1//EN" "http://www.w3.org/Graphics/SVG/1.1/DTD/svg11.dtd" >
<svg xmlns="http://www.w3.org/2000/svg" xmlns:xlink="http://www.w3.org/1999/xlink" version="1.1" viewBox="0 -140 1000 1000">
  <g transform="matrix(1 0 0 -1 0 860)">
   <path fill="currentColor"
d="M599 694l-29 -174l172 -1v175h-143zM778 395l36 34h19l57 -49v-15l-28 -18v-252l-5 -15l-51 -13l-8 6v45h-293l1 -26l-7 -12l-48 -16l-10 4v352l68 -25h269zM798 372h-293v-231h293v231zM183 924l100 -20v-13l-36 -19v-164h29l47 59h14l55 -66v-15h-145v-184l104 45
l6 -15l-110 -67v-318q0 -44 -15.5 -62t-63.5 -27l-31 -6l-13 6v28l-74 39l2 12l97 -9q23 0 28.5 9.5t5.5 48.5v242l-80 -48l1 -22l-15 -7l-37 77l131 50v208h-124v22h124v216zM777 863l52 50h13l55 -57v-15l-271 -1l-21 -124l117 1l35 35h13l62 -50v-15l-28 -18v-150l28 1
l43 51h14l55 -59v-15h-575v22l136 1l32 175l-111 -1v23l112 -1l24 124l-171 1v22h386z" />
  </g>

</svg>
