<?xml version="1.0" standalone="no"?>
<!DOCTYPE svg PUBLIC "-//W3C//DTD SVG 1.1//EN" "http://www.w3.org/Graphics/SVG/1.1/DTD/svg11.dtd" >
<svg xmlns="http://www.w3.org/2000/svg" xmlns:xlink="http://www.w3.org/1999/xlink" version="1.1" viewBox="0 -410 2048 2048">
  <g transform="matrix(1 0 0 -1 0 1638)">
   <path fill="currentColor"
d="M1410 1703h327l98 102l121 -107q17 -15 17 -26q0 -29 -31 -29h-1068v-536q0 -358 -25 -566q-34 -278 -148 -464l-32 20q69 166 93 394q21 208 21 624v463q0 113 -9 197l114 -72h474q-14 18 -21 40q-37 108 -179 218l20 30q115 -63 161 -94q99 -68 99 -132q0 -29 -32 -62z
M1125 1143l40 -14q62 -20 62 -45q0 -26 -38 -38l-34 -10v-681q0 -69 7 -136q4 -31 4 -49q0 -48 -56 -48q-48 0 -48 48v847q-53 -83 -144 -190l-26 31q192 317 263 717l128 -49q44 -17 44 -38q0 -25 -42 -32l-53 -9q-53 -172 -107 -304zM1628 1179h-181q-69 0 -149 -11
l-39 86q124 -17 188 -17h181v172q0 115 -8 160l105 -24q81 -19 81 -46q0 -23 -49 -42l-38 -14v-206h53l80 80l114 -86q17 -13 17 -26q0 -26 -28 -26h-236v-913q0 -143 -154 -171q-12 71 -37.5 88.5t-165.5 49.5l4 44q168 -27 205 -27q57 0 57 57v872zM1347 1009
q98 -100 138 -152q70 -91 70 -162q0 -75 -58 -75q-30 0 -40 25q-3 8 -7 43q-9 84 -32 139q-23 57 -94 162zM450 911v-649q0 -141 -155 -170q-11 70 -47 92q-33 22 -159 44l6 46q167 -27 202 -27q57 0 57 57v566q-22 -10 -47 -21q-57 -24 -113 -50v-46q0 -33 -20 -33
q-19 0 -40 31l-81 119q46 11 117 34q75 24 184 58v468h-68q-126 0 -191 -9l-39 92q100 -22 230 -22h68v310q0 117 -8 160l110 -24q85 -19 85 -45q0 -29 -49 -42l-42 -11v-348h91l80 81l114 -90q17 -13 17 -26q0 -26 -27 -26h-275v-436q44 18 247 109l14 -39q-31 -19 -46 -29
q-79 -49 -215 -124z" />
  </g>

</svg>
