<?xml version="1.0" standalone="no"?>
<!DOCTYPE svg PUBLIC "-//W3C//DTD SVG 1.1//EN" "http://www.w3.org/Graphics/SVG/1.1/DTD/svg11.dtd" >
<svg xmlns="http://www.w3.org/2000/svg" xmlns:xlink="http://www.w3.org/1999/xlink" version="1.1" viewBox="0 -140 1000 1000">
  <g transform="matrix(1 0 0 -1 0 860)">
   <path fill="currentColor"
d="M242 704v-222l121 65l10 -14l-131 -103v-303q0 -38 -23 -55.5t-90 -32.5l-9 6v27l-66 34l3 12l78 -6q30 0 36 8.5t6 53.5v216l-63 -46l-3 -31l-11 -6l-49 74l126 67v256h-122v20h122v209l96 -19v-14l-31 -14v-162h34l41 43h13l49 -48v-15h-137zM346 819h242v112l99 -19
v-15l-33 -13v-65h165l41 47h15l56 -52v-17h-277v-100h115l27 26h13l57 -47v-17l-27 -11v-74h9l27 39h14l40 -45l-1 -15h-89l-1 -129l-8 -13l-43 -18l-9 6v33h-124v-129h130l43 51h17l54 -58v-14h-244v-159q65 -20 152 -20q37 0 139 8v-12q-24 -19 -40 -58
q-133 4 -206.5 18.5t-132 50.5t-135.5 113q-60 -77 -93 -109.5t-83 -65.5l-9 12q72 72 110.5 139t75.5 183l91 -43l-3 -15l-33 -8q-12 -21 -44 -70q74 -67 145 -102v288h-190v21h190v100h-238v21h238v102h-182v21h182v100h-242v22zM654 453h124v100h-124v-100zM654 574h124
v102h-124v-102z" />
  </g>

</svg>
