<?xml version="1.0" standalone="no"?>
<!DOCTYPE svg PUBLIC "-//W3C//DTD SVG 1.1//EN" "http://www.w3.org/Graphics/SVG/1.1/DTD/svg11.dtd" >
<svg xmlns="http://www.w3.org/2000/svg" xmlns:xlink="http://www.w3.org/1999/xlink" version="1.1" viewBox="0 -140 1000 1000">
  <g transform="matrix(1 0 0 -1 0 860)">
   <path fill="currentColor"
d="M803 914h13l53 -38v-13l-18 -18v-285l-7 -11l-47 -9l-9 9v34h-334q0 -15 -5 -27l-46 -11l-12 8v366l66 -33h321zM652 524l98 -17v-15l-33 -15v-155q89 69 167 152l62 -60l-7 -11l-34 6q-94 -62 -188 -114v-125q0 -25 11 -34t41 -9h65q22 0 31.5 7t16.5 28l32 98l15 -4
l-8 -120l31 -17v-15q-44 -31 -99 -31h-120q-81 0 -81 80v371zM381 513l102 -19v-15l-40 -15v-100h99l36 44h13l44 -53v-13h-192v-189l181 39l5 -16l-271 -101l-4 -31l-15 -3l-43 84l85 17v371zM275 718l38 43h15l42 -51v-15h-126v-220l111 42l6 -14l-117 -69v-289
q0 -49 -19.5 -68.5t-87.5 -36.5l-10 7v28l-73 38l4 14l72 -7q19 0 27.5 1t15.5 9t7 25v241l-67 -36l-2 -30l-11 -7l-50 79l130 49v244h-124v23h124v233l103 -21v-16l-39 -15v-181h31zM454 744h334v119h-334v-119zM454 605h334v117h-334v-117z" />
  </g>

</svg>
