<?xml version="1.0" standalone="no"?>
<!DOCTYPE svg PUBLIC "-//W3C//DTD SVG 1.1//EN" "http://www.w3.org/Graphics/SVG/1.1/DTD/svg11.dtd" >
<svg xmlns="http://www.w3.org/2000/svg" xmlns:xlink="http://www.w3.org/1999/xlink" version="1.1" viewBox="0 -120 1000 1000">
  <g transform="matrix(1 0 0 -1 0 880)">
   <path fill="currentColor"
d="M174 151v296l-66 -36l-6 -18q-5 -16 -12 -16t-13 12l-38 67l135 47v205h-110l-12 28h122v227l74 -5q36 -2 36 -16q0 -10 -20 -19l-28 -11v-176h28l42 56l79 -61v-23h-149v-183l141 53l8 -17l-149 -80v-349q0 -28 -37 -51q-32 -20 -46 -20q-15 0 -15 22q-2 27 -7 31
q-7 6 -21 9l-62 11v17h126zM264 114q119 99 191 225l64 -42q17 -11 17 -20q0 -15 -21 -16l-29 -1q-89 -87 -211 -163zM810 815l49 59l92 -65v-22h-587l-10 28h256v151l83 -8q19 -2 19 -15t-14 -18l-21 -8v-102h133zM418 371v324l71 -30h295l24 37l67 -37q16 -9 16 -17
q0 -10 -16 -14l-14 -3v-236l-65 -8v28h-124v-262q0 -37 -25 -59q-12 -10 -35 -21q-16 -7 -24 -7q-11 0 -12 22q0 16 -5 24q-4 7 -25 11l-63 12v17l125 1v262h-130v-38zM478 443h318v193h-318v-193zM741 340q5 -3 11 -7q93 -54 109 -67q84 -68 84 -116q0 -36 -30 -36
q-11 0 -20 6q-6 5 -18 29q-62 98 -148 178z" />
  </g>

</svg>
