<?xml version="1.0" standalone="no"?>
<!DOCTYPE svg PUBLIC "-//W3C//DTD SVG 1.1//EN" "http://www.w3.org/Graphics/SVG/1.1/DTD/svg11.dtd" >
<svg xmlns="http://www.w3.org/2000/svg" xmlns:xlink="http://www.w3.org/1999/xlink" version="1.1" viewBox="0 -120 1000 1000">
  <g transform="matrix(1 0 0 -1 0 880)">
   <path fill="currentColor"
d="M68 210l-13 28h449v74h-355l-13 29h368v71q-23 -2 -82 -10q-167 -20 -258 -25l-2 19q144 18 264 41q166 33 272 63l64 -52q4 -3 4 -5q0 -5 -17 -5h-46l-40 -6q-70 -9 -102 -13v-78h166l48 55l75 -67v-17h-289v-74h265l50 56l83 -68v-16h-398v-80q0 -38 -32 -55
q-26 -14 -51 -14q-14 0 -16 13q-4 24 -7 27q-4 7 -49 16l-39 7v16h137v70h-436zM311 715h-248l-14 28h262v97h-110q-32 -46 -70 -85l-13 8q47 83 72 187l63 -23q16 -5 16 -14q0 -11 -14 -14l-21 -5l-16 -27h93v98l74 -8q22 -2 22 -13q0 -9 -18 -15l-16 -6v-56h94l41 49
l76 -59v-17h-211v-97h135l41 50l73 -62v-16h-249v-59h125l19 37l60 -34q14 -8 14 -18q0 -8 -12 -13l-15 -6v-93q0 -32 -33 -43q-30 -11 -46 -11q-6 0 -5 10q0 8 -2 13q-3 5 -20 11l-30 9v11h76v99h-131v-171l-62 -9v180h-137v-149l-58 -11v224l85 -36h110v59zM658 581v303
l66 -5q32 -3 32 -17q0 -13 -18 -17l-20 -4v-252zM899 897v-385q0 -34 -27 -49q-22 -12 -47 -12q-9 0 -12 2t-2 19q0 18 -28 27l-48 14v16h102v412l84 -9q20 -2 20 -13q0 -12 -20 -17z" />
  </g>

</svg>
