<?xml version="1.0" standalone="no"?>
<!DOCTYPE svg PUBLIC "-//W3C//DTD SVG 1.1//EN" "http://www.w3.org/Graphics/SVG/1.1/DTD/svg11.dtd" >
<svg xmlns="http://www.w3.org/2000/svg" xmlns:xlink="http://www.w3.org/1999/xlink" version="1.1" viewBox="0 -120 1000 1000">
  <g transform="matrix(1 0 0 -1 0 880)">
   <path fill="currentColor"
d="M55 449l139 39v222h-134l-11 28h145v224l62 -6q32 -3 32 -13q0 -12 -17 -19l-15 -8v-178h51l40 46l63 -48v-26h-154v-201l137 43l6 -14l-143 -78v-321q0 -32 -40 -56q-30 -17 -44 -17q-6 0 -9 6q-2 4 -4 30q-1 8 -24 14l-55 14v17h114v284l-68 -30l-6 -18q-6 -15 -12 -15
q-10 0 -19 17zM312 307q164 131 230 299l71 -14q17 -3 17 -11q0 -6 -14 -11l-17 -6q-17 -27 -37 -55h284l20 35l69 -42q15 -9 15 -16q0 -8 -19 -15l-17 -6q-3 -161 -7 -203q-8 -112 -43 -155q-16 -20 -43 -33t-54 -14q-13 -1 -13 22q0 6 -2 9q-2 4 -37 13l-70 17v18h159
q31 32 42 129q7 68 7 125v88h-312l-30 -35l24 -6q10 -3 10 -11t-10 -13l-19 -11v-79q100 53 182 114l44 -32q21 -14 21 -22q0 -12 -13 -10l-4 1l-23 2l-207 -77v-48q1 -28 16 -28h147q29 -1 45 33l20 61h18l-2 -66q1 -20 25 -25q-8 -23 -19 -35q-15 -17 -76 -18h-174
q-55 2 -55 53v165q-69 -58 -138 -99zM444 561v375l61 -38h282l21 35l71 -43q9 -5 9 -13q0 -11 -15 -15l-19 -5v-275l-60 -9v53h-289v-56zM505 750v-96h289v96h-289zM505 870v-92h289v92h-289z" />
  </g>

</svg>
