<?xml version="1.0" standalone="no"?>
<!DOCTYPE svg PUBLIC "-//W3C//DTD SVG 1.1//EN" "http://www.w3.org/Graphics/SVG/1.1/DTD/svg11.dtd" >
<svg xmlns="http://www.w3.org/2000/svg" xmlns:xlink="http://www.w3.org/1999/xlink" version="1.1" viewBox="0 -140 1000 1000">
  <g transform="matrix(1 0 0 -1 0 860)">
   <path fill="currentColor"
d="M286 297h175q1 16 1 53q0 26 -1 37l101 -20v-12l-37 -18q1 -7 1 -22q0 -13 -1 -18h193v97l101 -22v-13l-36 -18v-44h44l47 58h14l65 -66v-15h-170v-197l-7 -9l-48 -13l-10 8v211h-196q-12 -86 -75.5 -139t-190.5 -76l-6 15q63 19 104 41.5t62 51t28.5 50t14.5 57.5h-173
v23zM757 607l35 34h14l60 -49v-15l-27 -18v-66l3 -63l-5 -7l-54 -12l-10 7l4 28h-300l4 -23l-4 -10l-55 -12l-9 7v233l68 -34h276zM777 584h-300v-116h300v116zM690 897l-3 -15l-32 -3q64 -81 132.5 -124.5t165.5 -64.5v-12q-18 -12 -24.5 -21t-12.5 -33q-93 44 -143.5 85.5
t-110.5 123.5l-30 41q-120 -159 -298 -244l-13 11q94 56 159 128t119 164zM180 927l103 -20v-14l-39 -19v-164h17l43 53h14l60 -61v-15h-134v-190l118 43l7 -18l-125 -62v-312q0 -44 -15.5 -62t-63.5 -27l-31 -6l-13 7v27l-70 39v12l89 -8q2 -1 6 -1q23 0 28.5 9.5t5.5 48.5
v240l-76 -40v-27l-15 -8l-38 78l129 43v214h-121v23h121v217zM476 677v23h182l39 52h16l63 -60v-15h-300z" />
  </g>

</svg>
