<?xml version="1.0" standalone="no"?>
<!DOCTYPE svg PUBLIC "-//W3C//DTD SVG 1.1//EN" "http://www.w3.org/Graphics/SVG/1.1/DTD/svg11.dtd" >
<svg xmlns="http://www.w3.org/2000/svg" xmlns:xlink="http://www.w3.org/1999/xlink" version="1.1" viewBox="0 -410 2048 2048">
  <g transform="matrix(1 0 0 -1 0 1638)">
   <path fill="currentColor"
d="M437 941v-678q0 -142 -155 -170q-11 70 -47 92q-33 21 -159 44l6 46q170 -27 202 -27q57 0 57 57v584q-19 -10 -43 -23q-43 -23 -105 -57v-46q0 -33 -19 -33q-18 0 -39 27l-90 114q62 20 296 115v441h-93q-67 0 -149 -11l-39 86q129 -14 188 -14h93v310q0 118 -8 160
l110 -24q85 -19 85 -45q0 -29 -49 -42l-42 -11v-348h113l81 81l114 -90q16 -13 16 -26q0 -26 -27 -26h-297v-400q83 36 271 131l17 -42q-70 -53 -288 -175zM1299 1000l28 -6q86 -18 86 -46q0 -27 -50 -41l-40 -12v-143h413l98 101l121 -107q17 -15 17 -25q0 -24 -29 -24
h-620v-428q3 -55 4 -83q2 -28 2 -36q1 -13 1 -21q0 -44 -61 -44q-47 0 -47 50v562h-363q-119 0 -188 -8l-38 88q97 -25 226 -25h363v106q0 88 -5 142h-269q-29 -15 -52 -15q-37 0 -37 25v566h-30q-60 0 -149 -11l-39 86q27 -4 40 -5q86 -12 148 -12h30v135q0 116 -8 160
l104 -24q87 -21 87 -46q0 -28 -50 -42l-37 -11v-172h240v145q0 118 -7 159l111 -24q84 -18 84 -45q0 -29 -50 -42l-40 -10v-183h239v145q0 118 -8 159l109 -24q86 -19 86 -43q0 -36 -50 -44l-41 -7v-186h119l80 81l116 -86q15 -12 15 -27q0 -26 -27 -26h-303v-236l64 -47
q12 -9 12 -26q0 -18 -20 -18h-391v-19q0 -34 -51 -34q-54 0 -52 41l1 14q4 96 4 104v221h-240v-517h705l99 101l120 -107q17 -14 17 -26q0 -27 -27 -27h-570zM1532 1306v270h-239v-270h239zM951 615l110 -65q31 -18 31 -33q0 -27 -39 -27h-43q-18 -18 -80 -85
q-120 -130 -373 -234l-13 35q138 69 256 192q102 107 151 217zM1495 601q461 -254 461 -389q0 -29 -18 -50q-15 -17 -34 -17q-37 0 -86 85q-104 180 -341 337z" />
  </g>

</svg>
