<?xml version="1.0" standalone="no"?>
<!DOCTYPE svg PUBLIC "-//W3C//DTD SVG 1.1//EN" "http://www.w3.org/Graphics/SVG/1.1/DTD/svg11.dtd" >
<svg xmlns="http://www.w3.org/2000/svg" xmlns:xlink="http://www.w3.org/1999/xlink" version="1.1" viewBox="0 -140 1000 1000">
  <g transform="matrix(1 0 0 -1 0 860)">
   <path fill="currentColor"
d="M643 603h-135v-128h135v128zM643 452h-135v-132h135v132zM643 297h-135v-154h135v154zM467 805h80q19 65 25 128l95 -29l-6 -13l-25 -4q-15 -47 -28 -82h229l30 37h14l62 -69l-5 -12l-27 -4l-82 -75l-14 6l31 94h-246q-32 -73 -84 -157h140l32 128l84 -29l-5 -12l-28 -6
l-57 -81h112l43 54h14l64 -62v-15h-209v-127h89l42 50h14l59 -58v-15h-204v-132h80l39 51l15 3l60 -62v-15h-194v-155h120l48 59h14l65 -66v-15h-446v-39l-8 -10l-48 -10l-7 7l-1 459q-63 -75 -122 -111l-14 14q159 146 233 352h-73q0 -72 -18 -109.5t-45 -37.5
q-13 0 -23 13t-10 30q0 18 29 47q26 26 33.5 47t11.5 76h13q3 -11 9 -43zM180 927l103 -20v-14l-39 -19v-164h19l36 49h14l53 -57v-15h-122v-190l117 43l7 -18l-124 -62v-312q0 -44 -15.5 -62t-63.5 -27l-31 -6l-13 7v27l-71 39l2 12l88 -8q2 -1 9 -1q22 0 26.5 10.5
t4.5 47.5v240l-76 -40v-27l-15 -8l-37 78l128 43v214h-121v23h121v217z" />
  </g>

</svg>
