<?xml version="1.0" standalone="no"?>
<!DOCTYPE svg PUBLIC "-//W3C//DTD SVG 1.1//EN" "http://www.w3.org/Graphics/SVG/1.1/DTD/svg11.dtd" >
<svg xmlns="http://www.w3.org/2000/svg" xmlns:xlink="http://www.w3.org/1999/xlink" version="1.1" viewBox="0 -140 1000 1000">
  <g transform="matrix(1 0 0 -1 0 860)">
   <path fill="currentColor"
d="M751 560v292h-130v23h222l38 43h13l58 -51v-15h-139v-292l41 1l35 44h14l56 -52v-17l-146 1v-479l-6 -15l-46 -13l-10 9v498h-133v23h133zM598 861l52 -48v-15l-168 -1v-110h51l26 27h10l55 -36v-13l-19 -19v-277l-6 -15l-43 -12l-13 9v40h-61v-133h52l34 41h13l58 -49
v-15l-157 1v-175l-7 -13l-45 -15l-12 6v197h-139v22h139v133h-51v-42l-10 -12l-40 -8l-11 10v369l59 -21h53v110h-144v23h144v119l99 -19v-16l-35 -13v-71h70l29 41h17zM482 547h61v117h-61v-117zM367 547h51v117h-51v-117zM482 413h61v111h-61v-111zM367 413h51v111h-51
v-111zM165 734v209l104 -19v-13l-41 -20v-157h33l28 38h15l51 -46l-1 -15l-126 1v-237l67 31l8 -13l-75 -59v-300q0 -48 -18.5 -65.5t-82.5 -30.5l-12 9v26l-63 40l4 16l56 -10q16 -3 29 -3q24 0 24 38v237l-60 -46v-27l-15 -11l-49 83l124 57v265h-121v22h121z" />
  </g>

</svg>
