<?xml version="1.0" standalone="no"?>
<!DOCTYPE svg PUBLIC "-//W3C//DTD SVG 1.1//EN" "http://www.w3.org/Graphics/SVG/1.1/DTD/svg11.dtd" >
<svg xmlns="http://www.w3.org/2000/svg" xmlns:xlink="http://www.w3.org/1999/xlink" version="1.1" viewBox="0 -410 2048 2048">
  <g transform="matrix(1 0 0 -1 0 1638)">
   <path fill="currentColor"
d="M1305 1676q-68 -311 -208 -491q-119 -154 -325 -282l-25 33q206 155 312 333q-12 -3 -19 -3q-26 0 -49 57q-27 70 -99 131q-12 10 -19 16q-30 -44 -134 -159l-31 29q114 149 185 318q36 87 67 263l6 36l119 -32q50 -14 50 -39q0 -23 -42 -29l-39 -6q-15 -52 -33 -104h182
l53 64l79 -53q28 -19 28 -38q0 -16 -25 -28zM1090 1324q83 159 119 368h-208q-39 -86 -103 -186q21 -13 44 -25q139 -78 148 -157zM1378 1599l-38 81q43 -6 89 -9q104 -8 115 -8h81v142q0 118 -8 160l110 -24q87 -19 87 -45q0 -29 -50 -42l-42 -12v-179h14l81 80l108 -83
q23 -17 23 -31q0 -22 -26 -22h-200v-346h49l80 80l107 -87q15 -11 15 -27q0 -24 -25 -24h-226v-222q0 -40 -63 -40q-34 0 -34 34v228h-217q-32 -9 -51 -9q-37 0 -37 21q0 1 7 30l90 362zM1625 1261v346h-112l-83 -346h195zM746 747l-39 86q118 -17 188 -17h387v61
q0 118 -8 160l109 -24q86 -19 86 -45q0 -29 -50 -42l-41 -12v-98h355l96 94l127 -97q19 -14 19 -33q0 -22 -24 -22h-573v-505q0 -30 6 -97q2 -21 2 -38q0 -49 -56 -49q-48 0 -48 38v651h-387q-70 0 -149 -11zM1559 637q172 -115 250 -182q115 -99 115 -176q0 -60 -55 -60
q-36 0 -56 48q-42 96 -108 177q-49 59 -166 165zM996 664l113 -67q36 -21 36 -40q0 -24 -31 -24q-5 0 -9 1l-44 4q-100 -120 -145 -162q-89 -84 -212 -165l-24 30q206 175 316 423zM446 1027q147 67 229 113l15 -34q-75 -57 -244 -159v-693q0 -142 -155 -170q-11 70 -47 92
q-32 21 -159 44l8 46q171 -28 201 -28q56 0 56 58v602l-71 -35l-96 -48l-34 -16l-6 -41q-5 -38 -24 -38q-10 0 -29 27l-85 123q129 33 327 109l18 7v438h-65q-109 0 -192 -8l-39 88q96 -23 231 -23h65v308q0 119 -7 160l109 -24q85 -18 85 -45q0 -29 -49 -42l-42 -11v-346
h74l98 102l121 -107q17 -15 17 -26q0 -26 -27 -26h-283v-397z" />
  </g>

</svg>
