<?xml version="1.0" standalone="no"?>
<!DOCTYPE svg PUBLIC "-//W3C//DTD SVG 1.1//EN" "http://www.w3.org/Graphics/SVG/1.1/DTD/svg11.dtd" >
<svg xmlns="http://www.w3.org/2000/svg" xmlns:xlink="http://www.w3.org/1999/xlink" version="1.1" viewBox="0 -120 1000 1000">
  <g transform="matrix(1 0 0 -1 0 880)">
   <path fill="currentColor"
d="M192 443l-71 -46v-20q0 -20 -9 -20q-5 0 -13 11l-49 69l142 63v209h-131l-13 27h144v232l71 -6q35 -3 35 -16q0 -11 -13 -15l-32 -11v-184h7l43 56l73 -64v-19h-123v-181l109 54l10 -14l-119 -84v-364q0 -32 -40 -49q-21 -9 -45 -9q-7 0 -9 2q-1 0 -8 33q-1 4 -9 6
l-48 17v15h98v308zM425 535q-60 -52 -118 -85l-9 14q105 78 168 174q-19 3 -23 14q-1 3 -10 31q-8 28 -39 71l8 8q56 -24 75 -45q12 -15 15 -39q30 52 54 109h-186l-13 28h209q20 62 37 138l79 -25q18 -5 18 -14q0 -11 -17 -14l-24 -5q-8 -24 -31 -80h211l45 56l74 -64v-20
h-281q35 -62 86 -109l82 94l51 -44q9 -8 9 -16t-9 -10q-5 -2 -7 -1l-25 6l-79 -47q87 -69 197 -116l-6 -12q-25 -1 -38 -9q-8 -5 -25 -27l-62 44v-210l-60 -10v29h-115v-219q0 -39 -29 -56q-24 -13 -52 -13q-10 0 -12 3q0 1 -4 32q-1 4 -11 8l-50 17v16h96v212h-123v-24
l-56 -9v219zM481 458v-81h300v81h-300zM481 565v-79h300v79h-300zM606 787q-21 -50 -53 -102q-18 -28 -70 -94h298q-85 83 -138 196h-37zM514 239q-65 -60 -102 -88q-38 -28 -87 -54l-9 11q97 77 169 202l59 -39q11 -7 11 -15q0 -11 -14 -13zM721 304q82 -31 116 -52
q86 -54 86 -108q0 -18 -10 -26q-9 -8 -20 -8q-7 0 -14 4q-9 5 -38 53q-12 23 -66 73l-60 54z" />
  </g>

</svg>
