<?xml version="1.0" standalone="no"?>
<!DOCTYPE svg PUBLIC "-//W3C//DTD SVG 1.1//EN" "http://www.w3.org/Graphics/SVG/1.1/DTD/svg11.dtd" >
<svg xmlns="http://www.w3.org/2000/svg" xmlns:xlink="http://www.w3.org/1999/xlink" version="1.1" viewBox="0 -204 1024 1024">
  <g transform="matrix(1 0 0 -1 0 820)">
   <path fill="currentColor"
d="M36 738q43 -12 116 -12h12v150q0 58 -4 82q54 -7 96 -27q10 -4 10 -11q0 -8 -12 -13q-22 -6 -42 -9v-172h18l40 44q32 -25 62 -48q8 -4 8 -10q0 -14 -12 -14h-116v-200l4 2q48 24 112 62l4 -22q-49 -41 -87 -63q-19 -14 -33 -23v-346q0 -34 -14 -50t-33 -27
q-21 -11 -35 -11l-2 22q-1 9 -4 13q-9 11 -32 20q-22 12 -52 15v22q45 -14 84 -14q22 0 31 6q9 5 9 30v293q-34 -21 -70 -33q-9 -36 -14 -36q-8 0 -48 80q53 9 96 26q17 7 36 14v220h-12q-71 -1 -98 -4zM614 958q21 -10 34 -20q19 -12 29 -21q10 -7 13 -14q4 -7 4 -15
q0 -18 -6 -29q-2 -3 -4 -5h208l28 30q32 -21 61 -50q1 -2 1 -4q0 -8 -17 -13q-17 -3 -29 -7q-11 -15 -27 -28q-14 -15 -29 -30l-18 12q11 18 19 32q7 16 11 30h-468q0 -5 -1 -10q-3 -25 -11 -40q-6 -15 -17 -24q-8 -8 -14 -11q-7 -3 -13 -3q-26 0 -26 14q0 7 11 19
q26 23 35 42q11 17 20 37q6 22 8 56h10v-38v-14h229q-2 3 -3 9q-4 14 -12 28q-6 15 -16 26q-10 13 -26 29zM426 756q44 -12 118 -12h220l44 48q34 -23 62 -48q10 -4 10 -10q0 -18 -14 -18h-194v-140q26 14 54 32q68 34 118 78q43 -17 63 -29q13 -7 13 -15q0 -10 -18 -13
q-25 -5 -48 -5q-61 -37 -112 -61q-54 -29 -115 -50q-6 -2 -12 -5h211l32 46q38 -23 53 -43q9 -9 9 -15q0 -8 -36 -32v-122q0 -75 2 -99q2 -28 2 -47q0 -12 -11 -21q-15 -5 -23 -5q-18 0 -18 12v14h-246q30 -16 50 -33q2 -3 2 -11q0 -6 -18 -6h-28q-39 -30 -79 -46
q-39 -24 -78 -38q-46 -18 -93 -30l-10 22q70 25 116 51q49 26 75 47q25 22 41 44h-72v-14q0 -19 -36 -22q-14 0 -14 18v285q-59 -12 -122 -17l-14 24q97 13 162 32q72 22 133 44q9 4 19 9v161h-80q-72 -1 -98 -4zM496 226h340v72h-340v-72zM496 324h340v66h-340v-66z
M496 416h340v66h-318l-22 -6v-60zM496 682q40 -19 65 -35q5 -4 5 -11q0 -6 -10 -9q-14 -5 -30 -7q-12 -10 -25 -22q-17 -14 -33 -24q-15 -9 -38 -20q-19 -12 -44 -22l-10 12q25 21 45 37l35 35q15 19 25 36q11 15 15 30zM726 170q53 -12 107 -26q52 -17 77 -30
q28 -12 35 -20q11 -9 19 -19q4 -7 4 -13q0 -26 -22 -26q-5 0 -13 7q-9 5 -23 14q-20 14 -40 24q-22 14 -56 26q-37 20 -98 41z" />
  </g>

</svg>
