<?xml version="1.0" standalone="no"?>
<!DOCTYPE svg PUBLIC "-//W3C//DTD SVG 1.1//EN" "http://www.w3.org/Graphics/SVG/1.1/DTD/svg11.dtd" >
<svg xmlns="http://www.w3.org/2000/svg" xmlns:xlink="http://www.w3.org/1999/xlink" version="1.1" viewBox="0 -410 2048 2048">
  <g transform="matrix(1 0 0 -1 0 1638)">
   <path fill="currentColor"
d="M1453 1454h-39q-48 0 -93 -8l-38 89q25 -8 73 -14q68 -8 83 -8h119v167h-169q-29 -46 -93 -120l-26 19q82 131 115 319l94 -38q33 -14 33 -34q0 -23 -30 -23h-29q-14 -35 -30 -65h135v38q0 109 -7 159l105 -24q70 -16 70 -44q0 -27 -47 -43l-23 -8v-78h102l68 65l87 -70
q19 -16 19 -27q0 -26 -27 -26h-249v-167h149l68 63l89 -69q16 -13 16 -26q0 -27 -26 -27h-235v-162q0 -33 6 -39q9 -10 31 -10l36 1l17 -1h11q20 0 32 12q8 9 15 55l12 77h36v-77q0 -39 4 -50q5 -11 30 -31q6 -4 6 -12q0 -32 -40 -46q-44 -15 -74 -15l-57 1l-75 -1
q-62 0 -79 31q-9 17 -9 59v208h-68q-23 -131 -71 -193q-69 -88 -247 -143l-15 38q140 62 193 158q31 56 42 140zM954 1454q-20 -105 -38.5 -151.5t-61.5 -95.5q-70 -80 -190 -128l-20 32q127 85 173 188q20 45 34 155q-94 0 -146 -8l-38 88q92 -21 230 -21h64v167h-179
q-42 -72 -88 -120l-30 16q82 135 112 334l93 -38q33 -13 33 -34q0 -22 -29 -22h-29q-8 -19 -16 -43q-7 -16 -14 -36h147v46q0 113 -7 159l101 -24q75 -17 75 -43t-51 -45l-20 -8v-85h41l70 65l89 -70q17 -14 17 -27q0 -25 -30 -25h-187v-167h57l70 63l89 -69q17 -14 17 -26
q0 -27 -27 -27h-133v-185q75 29 175 94l17 -27q-66 -79 -201 -173v-24q0 -28 -20 -28q-16 0 -28 22l-57 103l16 4v214h-80zM1415 393q482 -139 482 -272q0 -30 -22 -49q-11 -9 -25 -9q-30 0 -83 59q-125 140 -368 232zM95 1436l-39 91q97 -23 215 -23h41v286q0 118 -7 160
l111 -24q85 -19 85 -46t-51 -41l-40 -12v-323h40l90 94l114 -99q16 -14 16 -26q0 -27 -27 -27h-233v-409q129 69 209 119l15 -39q-63 -54 -224 -167v-696q0 -142 -156 -171q-11 70 -48 92q-41 24 -142 43l8 45q157 -25 184 -25q56 0 56 56v599q-21 -12 -148 -78l-14 -45
q-7 -26 -25 -26q-13 0 -30 34l-63 126q118 25 280 87v455h-41q-109 0 -176 -10zM806 1148l105 -65h745l61 71l74 -49q42 -29 42 -52q0 -18 -65 -53v-504q0 -40 4 -73q4 -38 4 -45q0 -41 -60 -41q-46 0 -46 28v46h-589l100 -61q23 -14 23 -32q0 -24 -36 -24h-57
q-211 -170 -463 -228l-19 39q100 31 227 110q119 73 205 196h-150v-61q0 -30 -53 -30q-54 0 -54 44q0 4 4 49q5 99 5 105v525zM911 469h759v151h-759v-151zM911 678h759v146h-759v-146zM911 882h759v143h-759v-143z" />
  </g>

</svg>
