<?xml version="1.0" standalone="no"?>
<!DOCTYPE svg PUBLIC "-//W3C//DTD SVG 1.1//EN" "http://www.w3.org/Graphics/SVG/1.1/DTD/svg11.dtd" >
<svg xmlns="http://www.w3.org/2000/svg" xmlns:xlink="http://www.w3.org/1999/xlink" version="1.1" viewBox="0 -140 1000 1000">
  <g transform="matrix(1 0 0 -1 0 860)">
   <path fill="currentColor"
d="M285 62l-4 15q190 27 308 75q-60 38 -115 95h-122v21h399l30 21h18l58 -47l-9 -15l-28 -3q-81 -52 -134 -75q114 -35 216 -35q29 0 40 1l-3 -16q-30 -11 -54 -45q-68 7 -115.5 19.5t-136.5 47.5q-175 -50 -348 -59zM745 247l-249 -1q83 -55 133 -73q60 32 116 74z
M325 438l-9 9q49 56 77 102t64 130l88 -38l-8 -13l-26 -6l-30 -36h147l22 74l78 -25l-4 -16l-28 -5l-31 -28h186l30 35h14l48 -43v-14h-256v-49h115l27 34h12l47 -42v-13h-201v-62h107l33 33h16l45 -41v-14h-201v-62h166l34 33h13l47 -38v-16h-486v-21l-8 -10l-49 -10l-7 8
v206q-18 -25 -45 -43zM461 348h162v62h-162v-62zM461 432h162v62h-162v-62zM461 515h162v49h-158l-4 -5v-44zM603 853v-174l-4 -11l-47 -12l-12 5v28h-117v-17l-9 -10l-45 -12l-11 8v261l71 -27h105l25 25h16l49 -38v-13zM540 754h-117v-43h117v43zM540 812h-117v-37h117v37
zM540 871h-117v-38h117v38zM657 916l69 -24h109l25 25h15l47 -36v-14l-18 -16l-1 -180l-5 -10l-52 -9l-6 6v31h-119v-9l-8 -10l-45 -7l-10 8zM721 711h119v43h-119v-43zM721 775h119v37h-119v-37zM721 833h119v38h-119v-38zM54 692h129v236l98 -21v-15l-34 -20v-180h21
l25 36h14l42 -41v-16h-102v-182l100 38l4 -14l-104 -67v-290q0 -45 -19.5 -63t-85.5 -33l-10 8v28l-65 33l2 13l87 -5q27 0 27 26v251l-65 -38l-5 -32l-15 -5l-45 82l130 46v204h-129v21z" />
  </g>

</svg>
