<?xml version="1.0" standalone="no"?>
<!DOCTYPE svg PUBLIC "-//W3C//DTD SVG 1.1//EN" "http://www.w3.org/Graphics/SVG/1.1/DTD/svg11.dtd" >
<svg xmlns="http://www.w3.org/2000/svg" xmlns:xlink="http://www.w3.org/1999/xlink" version="1.1" viewBox="0 -120 1000 1000">
  <g transform="matrix(1 0 0 -1 0 880)">
   <path fill="currentColor"
d="M108 394l-3 -11q-6 -18 -16 -18q-11 0 -20 18l-28 58l128 33v236h-107l-12 27h119v222l59 -7q29 -4 29 -17q0 -11 -16 -17l-13 -5v-176h10l35 42l52 -42v209l57 -33h149l26 33l59 -43v-17h-138v-72h44l19 33l43 -30q19 -14 19 -21q0 -10 -19 -10h-12v-116l-48 -10v23h-46
v-72h63l28 36l49 -42v-21h-239v-31l-54 -10v167h-97v-221l111 36l8 -20l-119 -59v-325q0 -20 -9 -29q-12 -11 -37 -24q-16 -9 -28 -9q-17 0 -17 27q0 13 -2.5 16.5t-12.5 6.5l-60 16v19h107v276zM379 683v-72h53v72h-53zM379 786v-76h145v76h-145zM379 814h53v72h-53v-72z
M305 71q187 57 231 175h-58v-29l-59 -7v351l63 -32h300l18 29l59 -35q17 -10 17 -18q0 -10 -17 -15l-10 -3v-260l-61 -10v29h-80v-99q0 -18 3 -22q3 -2 21 -2h109q18 0 29 15q12 15 20 45l15 54h21l-5 -60v-4q0 -35 34 -47q-8 -30 -24 -40q-19 -13 -72 -13h-132q-44 0 -59 8
q-20 9 -20 42v123h-48q-59 -149 -291 -191zM478 274h310v57h-310v-57zM478 421v-62h310v62h-310zM478 450h310v52h-310v-52zM588 741q52 95 80 222l56 -22q25 -10 25 -18q0 -10 -17 -10h-19l-10 -24h131l35 42l71 -49v-20h-252q-35 -69 -86 -129zM635 561v196l50 -23h189
l19 28l38 -25q16 -10 16 -18q0 -7 -7 -9l-17 -3v-138l-45 -5v21h-198v-18zM680 707v-94h38v94h-38zM753 707v-94h47v94h-47zM834 707v-94h44v94h-44zM688 776l-12 27h140l30 37l67 -43v-21h-225z" />
  </g>

</svg>
