<?xml version="1.0" standalone="no"?>
<!DOCTYPE svg PUBLIC "-//W3C//DTD SVG 1.1//EN" "http://www.w3.org/Graphics/SVG/1.1/DTD/svg11.dtd" >
<svg xmlns="http://www.w3.org/2000/svg" xmlns:xlink="http://www.w3.org/1999/xlink" version="1.1" viewBox="0 -200 1000 1000">
  <g transform="matrix(1 0 0 -1 0 800)">
   <path fill="currentColor"
d="M334 808v-149l41 1q5 5 17.5 25t28 47t32 57.5t30.5 57.5t24 46.5t12 24.5l52 -53l-30 -27q-12 -20 -26.5 -44.5t-29.5 -49.5t-29.5 -47t-26.5 -37h19l41 37l45 -60h-116q-16 -22 -29 -40.5t-26 -36.5t-28.5 -37.5t-36.5 -43.5h113l46 38l32 -75l-45 -18l-104 -84l8 -3
l-9 -35l25 -61h85l51 41l60 -64h-193q10 -39 10 -75q0 -9 -0.5 -17t-1.5 -16q0 -63 -39.5 -99.5t-100.5 -42.5q-2 16 -7 27t-16 20t-28.5 17t-43.5 18l-2 12q37 -10 63 -16t46 -6q47 5 62 30.5t15 59.5q0 22 -3 45t-4 43h-174l-64 -11l-18 34h246q-7 26 -14 46t-14.5 37
t-16 32.5t-17.5 31.5l11 -6l73 -37l85 113h-138q-48 -57 -109 -107.5t-118 -80.5l-3 9q34 28 83.5 74.5t92.5 104.5h-38l-47 -20l-28 41h133q16 19 30.5 37t28.5 36.5t28.5 39t31.5 45.5h-216l-40 -14l-15 37h195v148h-95l-31 -11l-23 33h149v142l67 -35l-18 -58v-49h67
l37 43l50 -65h-154zM507 441q48 115 79.5 249t39.5 280l76 -57l-28 -57q-6 -24 -10 -40.5t-7.5 -31l-7 -29t-8.5 -34.5h188l40 43l55 -68h-107v-27q0 -81 -7.5 -145t-19 -114t-25.5 -88t-28 -67q42 -75 97 -124t118 -63l1 -12q-23 -7 -43 -14.5t-47 -30.5q-48 34 -84.5 86
t-69.5 110q-19 -33 -45 -66.5t-57 -65t-65.5 -58.5t-69.5 -46l-9 13q30 24 61.5 55t60.5 66t54 74t43 80q-30 92 -49.5 172.5t-28.5 170.5q-15 -46 -37.5 -90t-45.5 -76zM616 638q10 -64 21.5 -113.5t23.5 -88.5t23.5 -70.5t21.5 -58.5q24 54 42.5 138.5t18.5 202.5
q0 10 -0.5 24t-0.5 24h-132z" />
  </g>

</svg>
