<?xml version="1.0" standalone="no"?>
<!DOCTYPE svg PUBLIC "-//W3C//DTD SVG 1.1//EN" "http://www.w3.org/Graphics/SVG/1.1/DTD/svg11.dtd" >
<svg xmlns="http://www.w3.org/2000/svg" xmlns:xlink="http://www.w3.org/1999/xlink" version="1.1" viewBox="0 -204 1024 1024">
  <g transform="matrix(1 0 0 -1 0 820)">
   <path fill="currentColor"
d="M62 876q43 -10 116 -10h96v10q0 54 -4 82q48 -7 81 -23q13 -6 13 -15q0 -7 -11 -11q-12 -9 -29 -11v-32h96l44 48q36 -27 66 -49q10 -5 10 -11q0 -18 -14 -18h-202v-80h122l28 32q52 -31 52 -44q0 -9 -26 -28v-75q12 -11 22 -19q4 -2 4 -6q0 -14 -8 -14h-194v-23
q28 -8 57 -20q37 -19 54 -30q20 -13 26 -23q7 -10 10 -18q3 -6 3 -14q0 -22 -14 -22q-4 0 -10 6q-8 4 -17 16q-13 14 -26 25q-18 14 -39 28q-19 12 -44 29v-140q0 -18 -28 -18q-26 0 -26 22q0 14 2 32q2 22 2 36v79q-8 -10 -15 -20q-26 -31 -57 -59q-30 -25 -67 -48
q-36 -25 -89 -50l-10 18q47 30 79 54q31 26 57 55q26 23 42 52q12 17 22 33h-90v-22q0 -7 -12 -13q-13 -5 -22 -5q-14 0 -14 12v214l62 -32h114v80h-96q-69 -1 -94 -4zM146 628h128v102h-128v-102zM324 730v-102h128v102h-128zM658 954q47 -16 78 -34q6 -5 6 -10
q0 -9 -16 -12q-18 -6 -28 -6q-16 -47 -40 -88h194l44 50q36 -25 67 -51q9 -5 9 -11q0 -14 -14 -14h-95q-9 -52 -24 -94q-17 -51 -52 -87q-15 -23 -30 -40q11 -10 24 -17q54 -27 107 -49q50 -17 94 -27v-16q-49 0 -68 -28q-51 20 -91 43q-46 26 -79 57q-8 6 -14 10
q-6 -7 -12 -12q-41 -33 -102 -62q-62 -30 -148 -54l-12 14q93 33 146 65q54 31 91 62q5 5 9 11q-16 14 -29 26q-38 36 -81 92l18 10q35 -43 78 -78q20 -16 37 -28q15 15 29 33q24 35 43 82q11 36 19 87h-172q-16 -31 -35 -56q-25 -32 -61 -68l-18 6q31 42 54 80q15 31 32 70
q17 38 27 72q10 33 15 72zM98 380q44 -12 116 -12h568l48 52q36 -25 68 -52q8 -5 8 -10q0 -16 -10 -16h-360v-112h188l44 46q36 -25 67 -47q9 -5 9 -11q0 -18 -14 -18h-294v-120h330l48 54q36 -29 68 -54q8 -5 8 -12q0 -14 -10 -14h-824q-71 -1 -98 -4l-18 44
q43 -14 116 -14h96v134q0 53 -4 78q55 -7 93 -20q13 -5 13 -14q0 -11 -13 -14q-17 -10 -43 -12v-152h188v262h-272q-70 -1 -94 -6z" />
  </g>

</svg>
