<?xml version="1.0" standalone="no"?>
<!DOCTYPE svg PUBLIC "-//W3C//DTD SVG 1.1//EN" "http://www.w3.org/Graphics/SVG/1.1/DTD/svg11.dtd" >
<svg xmlns="http://www.w3.org/2000/svg" xmlns:xlink="http://www.w3.org/1999/xlink" version="1.1" viewBox="0 -410 2048 2048">
  <g transform="matrix(1 0 0 -1 0 1638)">
   <path fill="currentColor"
d="M578 800h925v43q0 120 -8 160l110 -25q85 -18 85 -45q0 -29 -49 -42l-42 -11v-560l4 -53l4 -60q4 -54 4 -65q0 -49 -61 -49q-47 0 -47 50v328h-942q-27 -133 -98 -219q-69 -82 -230 -170l-24 34q127 82 193 185q76 118 76 295v251q-4 144 -7 160l109 -25q86 -19 86 -44
q0 -28 -50 -43l-38 -11v-84zM578 743v-154q0 -24 -6 -61h931v215h-925zM554 1574l44 28q189 -170 439 -266q214 118 366 307h-1082q-76 0 -149 -10l-39 85q118 -17 188 -17h693q-15 23 -27 66q-29 97 -122 178l23 30q212 -118 212 -200q0 -51 -43 -74h636l99 102l120 -107
q17 -15 17 -26q0 -27 -27 -27h-370q-191 -238 -385 -349q164 -55 304 -82q200 -39 510 -45l4 -35q-107 -11 -142 -95q-534 96 -775 205q-322 -161 -928 -221l-6 41q426 80 572 126q136 42 263 103q-130 65 -231 142q-63 48 -164 141z" />
  </g>

</svg>
