<?xml version="1.0" standalone="no"?>
<!DOCTYPE svg PUBLIC "-//W3C//DTD SVG 1.1//EN" "http://www.w3.org/Graphics/SVG/1.1/DTD/svg11.dtd" >
<svg xmlns="http://www.w3.org/2000/svg" xmlns:xlink="http://www.w3.org/1999/xlink" version="1.1" viewBox="0 -204 1024 1024">
  <g transform="matrix(1 0 0 -1 0 820)">
   <path fill="currentColor"
d="M836 910q-82 -24 -169 -39q-107 -21 -216 -32q-84 -8 -210 -12l-1 -9v-164h614l52 58q40 -28 75 -57q9 -6 9 -13q0 -18 -14 -18h-362v-219q65 -19 116 -45q60 -24 97 -45q28 -15 54 -33q9 -7 15 -15q7 -8 9 -18q5 -7 5 -17q0 -24 -14 -24q-3 0 -10 8q-13 12 -36 30
q-22 22 -63 45q-36 27 -92 54q-42 21 -81 35v-276q0 -23 2 -30q4 -16 4 -28q0 -32 -32 -32q-26 0 -26 14q0 23 2 57q2 33 2 61v478h-326v-54q0 -85 -11 -161q-5 -64 -20 -134q-14 -54 -38 -100q-19 -43 -51 -81q-29 -34 -78 -70l-10 8q33 30 56 67q24 31 40 65q18 40 32 94
q14 60 20 122q10 84 10 190q0 193 -4 310l55 -34q63 4 134 14q80 8 153 21q80 16 138 32q56 12 93 30q31 12 55 25q38 -20 65 -44q5 -4 5 -8q0 -10 -14 -10t-34 4z" />
  </g>

</svg>
