<?xml version="1.0" standalone="no"?>
<!DOCTYPE svg PUBLIC "-//W3C//DTD SVG 1.1//EN" "http://www.w3.org/Graphics/SVG/1.1/DTD/svg11.dtd" >
<svg xmlns="http://www.w3.org/2000/svg" xmlns:xlink="http://www.w3.org/1999/xlink" version="1.1" viewBox="0 -204 1024 1024">
  <g transform="matrix(1 0 0 -1 0 820)">
   <path fill="currentColor"
d="M446 968q23 -12 38 -26q20 -14 29 -27q13 -10 17 -20q6 -10 6 -19q0 -18 -8 -31l-1 -1h295l54 62q38 -32 73 -61q9 -5 9 -13q0 -14 -16 -14h-237q30 -14 57 -26q6 -5 6 -10q0 -9 -17 -12q-20 -6 -27 -6q-13 -23 -29 -48q-14 -21 -30 -40q-14 -12 -26 -22h241l26 32
q34 -25 63 -52q3 -2 3 -6q0 -8 -20 -12q-14 -2 -28 -6q-17 -21 -37 -40q-22 -24 -43 -40l-18 10q22 25 33 44q13 23 21 40h-741q0 -8 -2 -16q-4 -28 -12 -44q-6 -17 -17 -27q-10 -8 -19 -12q-7 -3 -13 -3q-26 0 -26 14q0 8 12 20q27 26 39 48q14 16 22 42q5 20 7 58h12v-50
h204q-3 7 -5 20q-4 27 -14 51l-22 46q-10 20 -31 47h-92q-69 -1 -96 -4l-18 44q43 -14 114 -14h312q-2 4 -5 11q-3 17 -12 35q-8 19 -18 33q-10 17 -29 35zM376 654h233q19 22 29 43q9 17 19 42q11 22 18 44q4 16 7 35h-380q15 -18 29 -32q18 -22 29 -41q15 -17 19 -34
q5 -12 5 -25q0 -19 -5 -28q-2 -3 -3 -4zM438 610q25 -13 41 -30q22 -11 33 -23q13 -14 18 -23q6 -7 6 -16q0 -21 -8 -31q-2 -3 -4 -5h316l48 50q36 -27 66 -51q10 -5 10 -11q0 -18 -14 -18h-510q-6 -64 -15 -106h317l36 30q34 -17 52 -34q10 -10 10 -14q0 -11 -40 -26
q-7 -75 -23 -128q-14 -56 -29 -79q-17 -25 -33 -34q-22 -12 -43 -22q-21 -7 -32 -7q0 19 -9 28q-11 11 -117 42l4 18q97 -22 128 -22q17 0 29 3q8 2 17 9q10 9 24 33q10 21 19 63q10 42 17 112h-335q-17 -42 -38 -77q-30 -49 -69 -84t-97 -69q-63 -35 -155 -68l-8 16
q86 34 137 68q50 28 86 66q35 32 63 72q20 41 35 85q14 49 21 125h-214q-69 -1 -94 -4l-22 44q43 -10 116 -10h317q-3 6 -7 12q-4 20 -14 37q-8 16 -20 33q-12 14 -30 34z" />
  </g>

</svg>
