<?xml version="1.0" standalone="no"?>
<!DOCTYPE svg PUBLIC "-//W3C//DTD SVG 1.1//EN" "http://www.w3.org/Graphics/SVG/1.1/DTD/svg11.dtd" >
<svg xmlns="http://www.w3.org/2000/svg" xmlns:xlink="http://www.w3.org/1999/xlink" version="1.1" viewBox="0 -140 1000 1000">
  <g transform="matrix(1 0 0 -1 0 860)">
   <path fill="currentColor"
d="M201 744v161l100 -22v-12l-36 -15v-112h65l33 44h14l47 -51v-16h-202v-137h97l30 33h13l52 -44v-13l-27 -24v-117q0 -221 -48 -301q-18 -32 -43 -46.5t-74 -22.5l-13 7l-5 30l-60 39l4 12l48 -6q24 -3 33 -3q53 0 74 67q20 69 20 240v125h-101q-6 -177 -49 -295.5
t-119 -208.5l-12 8q117 200 117 524v133h-97v23h139zM603 675h-125v22h361l31 41h14l52 -49v-14h-135v-82h60l27 30h11l52 -39v-18l-24 -15v-90l-8 -9l-44 -9l-9 3v23h-329v-20l-6 -9l-50 -12l-9 6v189l64 -30h67v82zM797 389l35 40h11l50 -49v-14h-402v23h306zM769 236
l9 12q5 -3 34 -15q76 -33 120 -73q19 -16 19 -49q0 -18 -7.5 -31.5t-17.5 -13.5q-14 0 -43 48q-37 59 -114 122zM862 302l34 40h11l52 -49v-14h-222l1 -165q0 -37 -18 -51.5t-77 -25.5l-12 8v24l-73 34l4 15l62 -4q11 -1 24 -1q23 0 23 41v125h-237v23h428zM556 258l70 -55
l-8 -12h-31q-81 -84 -194 -130l-10 14q59 39 93.5 76t79.5 107zM801 492h65v78h-65v-78zM667 593h70v81h-70v-81zM667 492h70v78h-70v-78zM538 492h65v78h-65v-78zM840 801l36 46h13l57 -53v-16h-419q-59 -82 -120 -143l-14 9q48 66 74 125.5t50 158.5l90 -38l-2 -15l-34 -8
q-22 -48 -31 -66h300z" />
  </g>

</svg>
