<?xml version="1.0" standalone="no"?>
<!DOCTYPE svg PUBLIC "-//W3C//DTD SVG 1.1//EN" "http://www.w3.org/Graphics/SVG/1.1/DTD/svg11.dtd" >
<svg xmlns="http://www.w3.org/2000/svg" xmlns:xlink="http://www.w3.org/1999/xlink" version="1.1" viewBox="0 -200 1000 1000">
  <g transform="matrix(1 0 0 -1 0 800)">
   <path fill="currentColor"
d="M54 259q44 31 85.5 65.5t78 70.5t66 72.5t48.5 71.5h-155l-76 -16l-25 38h267q9 20 23 50.5t26 63.5h-146l-61 -13l-23 36h239q7 17 15 43.5t16 61.5h-209l-75 -15l-24 38h314q6 27 9 44t5 31t3.5 29.5t4.5 41.5l86 -48l-28 -55l-12 -43h247l51 49l73 -72h-376l-38 -105
h226l49 44l69 -67h-216q19 -29 30 -57t28 -57h141l51 49l76 -71h-247q22 -33 51 -69t64 -68.5t76 -58.5t88 -39l-2 -11q-32 -5 -53 -17t-34 -29q-13 1 -32.5 16t-42 39t-46.5 54.5t-44.5 62.5t-37 63.5t-24.5 56.5h-239q-19 -38 -50 -77.5t-73 -78t-95 -73t-115 -61.5z
M618 561q-16 36 -23.5 60t-15.5 54h-123l-50 -114h209h3zM645 224v139h-279l-13 -41v-98h292zM353 46h292v153h-292v-153zM366 388h277l42 40l53 -62l-34 -38v-325q-16 -14 -29 -22t-30 -12v55h-292v-30q-14 -8 -27 -14t-30 -11v455z" />
  </g>

</svg>
