<?xml version="1.0" standalone="no"?>
<!DOCTYPE svg PUBLIC "-//W3C//DTD SVG 1.1//EN" "http://www.w3.org/Graphics/SVG/1.1/DTD/svg11.dtd" >
<svg xmlns="http://www.w3.org/2000/svg" xmlns:xlink="http://www.w3.org/1999/xlink" version="1.1" viewBox="0 -140 1000 1000">
  <g transform="matrix(1 0 0 -1 0 860)">
   <path fill="currentColor"
d="M221 790h194l1 148l95 -20v-11l-31 -16v-101h249l26 27h17l53 -45v-14l-28 -16v-306l-5 -12l-48 -13l-10 6v26h-217q25 -89 70 -153q71 50 139 113l65 -59l-7 -11l-35 6q-55 -41 -133 -90q71 -71 137 -103t96 -32q13 0 19 8t21 44l36 85l13 -3l-20 -146l34 -34l-4 -14
q-48 -5 -62 -5q-76 0 -161 45t-157 124q-182 -106 -502 -156l-3 15q194 43 322 99q85 38 151 83q-52 85 -82 184h-238v-35l-6 -9l-50 -17l-8 7v429zM216 465h232q-12 67 -21 138h-211v-138zM216 624h209q-2 12 -9 144h-200v-144zM488 624h246v144h-254q0 -49 5 -111z
M511 465h223v138h-245q11 -90 22 -138z" />
  </g>

</svg>
