<?xml version="1.0" standalone="no"?>
<!DOCTYPE svg PUBLIC "-//W3C//DTD SVG 1.1//EN" "http://www.w3.org/Graphics/SVG/1.1/DTD/svg11.dtd" >
<svg xmlns="http://www.w3.org/2000/svg" xmlns:xlink="http://www.w3.org/1999/xlink" version="1.1" viewBox="0 -120 1000 1000">
  <g transform="matrix(1 0 0 -1 0 880)">
   <path fill="currentColor"
d="M128 159l-3 -11q-5 -17 -16 -17q-5 0 -11 7l-57 70l74 18v617l68 -29h78v147l77 -6q22 -2 22 -15q0 -8 -18 -17l-16 -8v-101h86l19 35l61 -47q15 -11 15 -17q0 -9 -16 -12l-16 -3v-331l-65 -8v49h-230v-239q84 19 190 56q-16 25 -37 49q-12 15 -46 41l11 16
q73 -37 115 -74q68 -57 68 -102q0 -16 -11 -26q-11 -9 -24 -9q-14 0 -21 9q-6 7 -39 72q-54 -27 -218 -97zM180 626v-118h230v118h-230zM180 787v-134h230v134h-230zM397 84q25 16 54 45q66 68 89 149q21 72 21 158v489l62 -34h193l26 41l63 -47q15 -11 15 -18q0 -8 -15 -13
l-17 -7v-699q0 -42 -15 -55q-10 -8 -43 -20q-30 -11 -40 -11q-12 0 -15 18q-3 19 -9 23q-4 7 -28 13l-42 10v22h127v286h-198q-3 -248 -215 -370zM625 648v-186h198v186h-198zM625 676h198v188h-198v-188z" />
  </g>

</svg>
