<?xml version="1.0" standalone="no"?>
<!DOCTYPE svg PUBLIC "-//W3C//DTD SVG 1.1//EN" "http://www.w3.org/Graphics/SVG/1.1/DTD/svg11.dtd" >
<svg xmlns="http://www.w3.org/2000/svg" xmlns:xlink="http://www.w3.org/1999/xlink" version="1.1" viewBox="0 -140 1000 1000">
  <g transform="matrix(1 0 0 -1 0 860)">
   <path fill="currentColor"
d="M65 425v21h393v143l101 -20v-15l-37 -16v-92h308l39 48h12l56 -53v-16h-406q86 -109 175.5 -166.5t223.5 -89.5v-13q-29 -7 -40.5 -14t-36.5 -36q-117 53 -191 118t-140 172l1 -329l-6 -12l-50 -12l-8 8l-1 297q-76 -91 -157.5 -149t-215.5 -114l-7 12
q102 61 172.5 120.5t105.5 104.5t67 103h-358zM342 885h-178v21h423l31 24h15l54 -45l-5 -12l-27 -10l-43 -103h188l30 28h15l58 -50l-6 -14l-24 -8q-28 -127 -57 -169t-99 -56l-16 11l-3 31l-69 32l3 13l59 -10q16 -2 23 -2q40 0 61.5 44.5t32.5 128.5h-204l-11 -28l-14 -3
l-50 -3l-4 11l68 169h-182q-9 -149 -72.5 -240t-202.5 -160l-8 11q58 38 99.5 83.5t62.5 82t33 84t14.5 73t4.5 66.5z" />
  </g>

</svg>
