<?xml version="1.0" standalone="no"?>
<!DOCTYPE svg PUBLIC "-//W3C//DTD SVG 1.1//EN" "http://www.w3.org/Graphics/SVG/1.1/DTD/svg11.dtd" >
<svg xmlns="http://www.w3.org/2000/svg" xmlns:xlink="http://www.w3.org/1999/xlink" version="1.1" viewBox="0 -204 1024 1024">
  <g transform="matrix(1 0 0 -1 0 820)">
   <path fill="currentColor"
d="M28 738q43 -12 114 -12h66v154q0 54 -4 80q55 -5 94 -20q12 -7 12 -16t-12 -11q-18 -9 -42 -11v-176h62l50 56q38 -30 70 -56q8 -7 8 -14q0 -14 -16 -14h-174v-82q35 -22 61 -44q33 -26 53 -43q16 -17 26 -31l12 -20q4 -9 4 -22q-1 -30 -26 -30q-5 0 -11 4q-6 6 -28 44
q-19 39 -46 67q-17 24 -45 49v-486v-30q2 -16 2 -28q0 -32 -32 -32q-22 0 -22 14q0 23 2 57q2 33 2 61v438l-2 -6q-22 -60 -47 -113q-24 -48 -54 -96q-27 -45 -69 -95l-12 14q35 58 61 111q27 48 46 108q21 51 35 108q10 44 17 83h-41q-69 -1 -96 -4zM376 888
q43 -12 116 -12h366l52 62q40 -30 75 -61q9 -5 9 -11q0 -18 -14 -18h-346l-98 -268h322l34 34q30 -14 47 -34q7 -7 7 -14q0 -16 -40 -30q0 -118 -14 -252q-19 -133 -43 -180q-12 -28 -34 -42q-13 -8 -36 -16q-34 -14 -77 -14q-2 16 -7 25q-3 5 -13 12q-24 11 -80 29l4 22
q102 -26 118 -26q25 0 43 7q16 6 27 20q11 16 23 49q18 46 30 147q10 103 11 237h-340l-1 -3q-15 -7 -25 -7q-22 0 -22 10q0 5 4 12q18 27 49 124l56 158h-87q-71 -1 -98 -4z" />
  </g>

</svg>
