<?xml version="1.0" standalone="no"?>
<!DOCTYPE svg PUBLIC "-//W3C//DTD SVG 1.1//EN" "http://www.w3.org/Graphics/SVG/1.1/DTD/svg11.dtd" >
<svg xmlns="http://www.w3.org/2000/svg" xmlns:xlink="http://www.w3.org/1999/xlink" version="1.1" viewBox="0 -410 2048 2048">
  <g transform="matrix(1 0 0 -1 0 1638)">
   <path fill="currentColor"
d="M1037 246h302v1524q0 118 -8 160l110 -24q85 -19 85 -45q0 -29 -49 -42l-42 -11v-610h192l99 101l120 -106q17 -15 17 -25q0 -26 -27 -26h-401v-896h279l98 101l121 -106q17 -16 17 -26q0 -26 -28 -26h-1057q-106 0 -147 -4l-38 87q113 -26 185 -26h80v1069q0 118 -7 160
l105 -24q85 -20 85 -45q0 -29 -49 -42l-42 -12v-1106zM516 1229v-844q0 -100 12 -210q3 -31 3 -50q0 -46 -56 -46t-56 42v1055q-102 -315 -314 -580l-32 24q234 365 306 814h-61q-117 0 -192 -8l-38 88q94 -23 230 -23h101v302q0 114 -8 160l109 -24q86 -19 86 -45
q0 -29 -50 -42l-40 -11v-340h91l99 102l120 -107q17 -15 17 -25q0 -27 -27 -27h-300v-149q35 -25 53 -38q207 -142 207 -248q0 -30 -20 -49q-12 -12 -28 -12q-39 0 -67 78q-35 101 -145 213z" />
  </g>

</svg>
