<?xml version="1.0" standalone="no"?>
<!DOCTYPE svg PUBLIC "-//W3C//DTD SVG 1.1//EN" "http://www.w3.org/Graphics/SVG/1.1/DTD/svg11.dtd" >
<svg xmlns="http://www.w3.org/2000/svg" xmlns:xlink="http://www.w3.org/1999/xlink" version="1.1" viewBox="0 -410 2048 2048">
  <g transform="matrix(1 0 0 -1 0 1638)">
   <path fill="currentColor"
d="M357 1480v307q0 114 -8 160l109 -24q86 -19 86 -46q0 -26 -50 -42l-41 -13v-342h93l100 102l120 -107q17 -15 17 -25q0 -27 -27 -27h-303v-113q260 -165 260 -292q0 -42 -28 -63q-11 -8 -23 -8q-38 0 -60 74q-39 132 -149 237v-870q0 -100 13 -219q3 -32 3 -50
q0 -46 -55 -46q-57 0 -57 42v1044q-130 -358 -279 -542l-24 23q185 335 271 783h-70q-69 0 -149 -11l-39 86q27 -4 41 -5q85 -13 147 -13h102zM1389 441q119 -80 310 -155q137 -54 292 -81v-36q-38 -5 -61 -17q-28 -15 -43 -60q-353 123 -570 284q-169 -115 -345 -183
q-102 -40 -322 -101l-10 37q402 138 606 306q-199 199 -312 533q-9 0 -52 -6l-39 86q123 -17 188 -17h567l68 72l88 -64q43 -32 43 -49q0 -28 -98 -65q-143 -314 -310 -484zM1313 492q120 131 190 256q41 72 107 225h-579h-25h-21q76 -175 156 -293q57 -83 172 -188z
M1016 1943l126 -88h318l68 76l84 -54q40 -26 40 -49q0 -27 -77 -61v-398q0 -34 36 -55q26 -14 137 -14q81 0 147 17q38 10 51 10q52 0 52 -62q0 -29 -40 -40q-59 -16 -278 -16q-107 0 -149 27q-52 34 -52 102v459h-359v-33q0 -105 -31 -245q-33 -152 -128 -269
q-48 -60 -145 -141l-20 24q154 179 194 355q31 136 31 355q0 29 -5 100z" />
  </g>

</svg>
