<?xml version="1.0" standalone="no"?>
<!DOCTYPE svg PUBLIC "-//W3C//DTD SVG 1.1//EN" "http://www.w3.org/Graphics/SVG/1.1/DTD/svg11.dtd" >
<svg xmlns="http://www.w3.org/2000/svg" xmlns:xlink="http://www.w3.org/1999/xlink" version="1.1" viewBox="0 -204 1024 1024">
  <g transform="matrix(1 0 0 -1 0 820)">
   <path fill="currentColor"
d="M427 952q48 -16 82 -32q6 -6 6 -12q0 -10 -18 -13q-20 -4 -29 -4q-38 -31 -87 -59q-48 -27 -99 -48q-30 -12 -67 -24h29q145 0 288 6q151 7 264 16q-19 17 -38 31q-34 26 -74 44l14 15q64 -25 130 -60q44 -22 68 -42q17 -14 26 -30q4 -10 4 -18q0 -30 -26 -30q-7 0 -15 3
q-14 5 -25 20q-19 24 -36 41q-96 -13 -270 -27q-182 -18 -371 -21q-9 -31 -15 -31q-12 0 -48 87q15 -2 38 -3q54 23 94 43q39 23 77 49q37 27 64 50q22 22 34 49zM200 693l61 -43h505l34 42q37 -23 55 -43q7 -7 7 -13q0 -9 -39 -32v-114q11 -8 20 -15q5 -3 5 -7
q0 -14 -9 -14h-293v-116h298l47 53l72 -55q9 -6 9 -12q0 -14 -16 -14h-387q36 -36 77 -64q48 -32 109 -63q61 -29 122 -49q58 -19 111 -27l-3 -17q-49 0 -65 -30q-61 18 -109 43q-55 26 -94 56q-45 28 -88 62q-39 31 -83 78v-182q0 -25 1 -34v-31q0 -36 -32 -36
q-29 0 -29 20q0 22 4 58q4 37 4 65v131q-25 -25 -53 -46q-47 -38 -105 -68q-50 -29 -115 -58q-65 -27 -159 -58l-14 20q93 33 158 63q64 28 116 63q48 28 83 61q26 22 44 43h-280q-71 -2 -97 -7l-20 47q44 -12 117 -12h325v116h-242v-22q0 -12 -16 -12q-9 0 -24 6
q-12 9 -12 24q0 18 3 47q4 22 4 97v28q0 41 -7 71zM252 482h524v140h-524v-140z" />
  </g>

</svg>
