<?xml version="1.0" standalone="no"?>
<!DOCTYPE svg PUBLIC "-//W3C//DTD SVG 1.1//EN" "http://www.w3.org/Graphics/SVG/1.1/DTD/svg11.dtd" >
<svg xmlns="http://www.w3.org/2000/svg" xmlns:xlink="http://www.w3.org/1999/xlink" version="1.1" viewBox="0 -410 2048 2048">
  <g transform="matrix(1 0 0 -1 0 1638)">
   <path fill="currentColor"
d="M967 1559q-330 -358 -827 -522l-14 33q234 116 317 165q269 162 446 389h-537q-116 0 -192 -8l-38 88q96 -23 230 -23h615v108q0 114 -8 159l105 -24q86 -19 86 -45t-50 -42l-41 -13v-143h646l98 101l121 -106q17 -15 17 -26q0 -26 -27 -26h-855v-87q246 -91 476 -195
q309 -140 309 -240q0 -53 -41 -53q-22 0 -48 17q-11 6 -80 69q-186 170 -616 361v-125q0 -98 13 -220q3 -32 3 -49q0 -35 -33 -44h356l68 76l83 -54q41 -27 41 -49q0 -31 -81 -61v-312q0 -100 11 -222q3 -32 3 -50q0 -46 -50 -46q-59 0 -59 42v53h-785v-46q0 -33 -9 -40
q-17 -14 -52 -14q-51 0 -51 47q0 15 4 48q13 107 13 210v372q0 62 -5 122l108 -76h364q-34 12 -34 40v461zM629 489h785v240h-785v-240zM629 787h785v215h-785v-215zM130 167l-39 85q126 -18 188 -18h1455l99 101l120 -107q17 -15 17 -25q0 -26 -27 -26h-1664
q-75 0 -149 -10z" />
  </g>

</svg>
