<?xml version="1.0" standalone="no"?>
<!DOCTYPE svg PUBLIC "-//W3C//DTD SVG 1.1//EN" "http://www.w3.org/Graphics/SVG/1.1/DTD/svg11.dtd" >
<svg xmlns="http://www.w3.org/2000/svg" xmlns:xlink="http://www.w3.org/1999/xlink" version="1.1" viewBox="0 -410 2048 2048">
  <g transform="matrix(1 0 0 -1 0 1638)">
   <path fill="currentColor"
d="M346 1464v325q0 114 -8 160l109 -24q86 -19 86 -46q0 -25 -50 -41l-41 -13v-361h62l101 102l120 -107q17 -15 17 -26q0 -26 -27 -26h-273v-201q52 -31 128 -97q113 -99 113 -183q0 -43 -28 -63q-11 -8 -23 -8q-38 0 -60 74q-37 126 -130 218v-752q0 -99 13 -219
q3 -33 3 -50q0 -46 -55 -46q-57 0 -57 42v974q-40 -115 -85 -220q-77 -179 -183 -321l-30 22q100 174 186 458q61 204 88 372h-66q-70 0 -149 -11l-39 86q121 -18 188 -18h90zM970 1928l106 -38q72 -26 72 -52q0 -12 -14 -22q-2 -2 -43 -10l-41 -8q-118 -354 -161 -451
q-62 -140 -140 -250q166 20 293 48q39 113 73 252l101 -35q81 -29 81 -53q0 -29 -101 -38q-108 -260 -182 -384q-122 -204 -265 -373q242 70 427 159q-18 43 -94 163l33 24q196 -169 196 -291q0 -60 -53 -60q-29 0 -41 32q-3 8 -11 44q-3 15 -10 41q-53 -27 -185 -104
q-14 -8 -137 -68q-25 -12 -76 -38q-9 -80 -34 -80q-26 0 -61 69l-46 90q40 32 88 102q167 239 277 491q-109 -44 -224 -83q-16 -69 -33 -69q-19 0 -43 49l-49 100q51 51 133 257q120 304 164 586zM1318 1419l-39 87q52 -8 191 -20v305q0 117 -8 159l109 -24q85 -18 85 -45
q0 -29 -49 -42l-42 -11v-342h191l68 75l84 -55q40 -26 40 -48q0 -27 -78 -61q-8 -579 -49 -898q-32 -242 -124 -330q-53 -52 -163 -76q-1 7 -1 11q-8 49 -58 80q-21 14 -130 61l11 38q61 -17 91 -27q90 -29 117 -29q87 0 127 139q44 152 69 566q15 257 16 499h-211
q1 -405 -58 -658q-93 -399 -405 -684l-30 28q239 275 322 580q53 194 68 436q5 71 8 298q-106 -6 -152 -12z" />
  </g>

</svg>
