<?xml version="1.0" standalone="no"?>
<!DOCTYPE svg PUBLIC "-//W3C//DTD SVG 1.1//EN" "http://www.w3.org/Graphics/SVG/1.1/DTD/svg11.dtd" >
<svg xmlns="http://www.w3.org/2000/svg" xmlns:xlink="http://www.w3.org/1999/xlink" version="1.1" viewBox="0 -140 1000 1000">
  <g transform="matrix(1 0 0 -1 0 860)">
   <path fill="currentColor"
d="M692 887l-5 -16h-35l-19 -31l-17 -26h141l35 25h15l42 -60l-4 -14l-30 -4q-84 -143 -190 -238t-274 -155l-6 13q159 83 243 167.5t169 243.5h-152l-67 -92q53 -22 71 -36t18 -42q0 -17 -7 -27.5t-17 -10.5q-13 1 -31 37q-15 30 -45 66q-65 -69 -147 -123l-8 10
q81 79 131 157.5t97 202.5zM853 459l34 29h14l47 -64l-3 -13l-30 -8q-114 -159 -254 -241t-358 -109l-4 15q143 30 248.5 82.5t175.5 120.5t132 166h-165q-28 -27 -124 -106q54 -28 70 -42.5t16 -37.5q0 -42 -27 -42q-15 0 -31 40q-14 31 -45 72q-86 -50 -184 -85l-6 14
q130 64 208 135.5t152 195.5l80 -49l-4 -15l-32 2l-51 -60h141zM199 941l103 -19v-17l-40 -13v-195h58l38 51h15l53 -59v-14h-164v-104q72 -31 105 -56.5t33 -62.5q0 -39 -19 -39q-20 0 -44 43q-29 52 -75 95v-495l-7 -10l-47 -9l-9 6v409q-61 -120 -139 -212l-11 9
q59 105 88 192t54 234h-134v22h142v244z" />
  </g>

</svg>
