<?xml version="1.0" standalone="no"?>
<!DOCTYPE svg PUBLIC "-//W3C//DTD SVG 1.1//EN" "http://www.w3.org/Graphics/SVG/1.1/DTD/svg11.dtd" >
<svg xmlns="http://www.w3.org/2000/svg" xmlns:xlink="http://www.w3.org/1999/xlink" version="1.1" viewBox="0 -410 2048 2048">
  <g transform="matrix(1 0 0 -1 0 1638)">
   <path fill="currentColor"
d="M379 1523v276q0 113 -8 159l109 -24q86 -19 86 -45q0 -28 -50 -42l-40 -11v-313h64l98 102l121 -107q17 -15 17 -26q0 -26 -27 -26h-273v-196q260 -193 260 -295q0 -31 -20 -50q-12 -12 -26 -12q-34 0 -69 78q-39 87 -145 209v-821q0 -96 11 -209q4 -32 4 -50
q0 -46 -55 -46q-57 0 -57 42v1084q-102 -343 -292 -609l-32 23q138 241 204 486q48 178 80 366h-54q-118 0 -192 -8l-38 88q99 -23 230 -23h94zM1337 1550h459l61 70l102 -85q21 -17 21 -31q0 -26 -40 -32l-45 -6q-94 -148 -129 -192q-31 -40 -89 -104l-25 23
q98 173 144 302h-477q-97 -219 -208 -372l-30 19q176 330 243 801l134 -47q51 -18 51 -42t-51 -30l-47 -6q-14 -46 -40 -148q-8 -34 -34 -120zM979 759l80 80l114 -86q18 -13 18 -26q0 -26 -28 -26h-287q-69 0 -148 -11l-40 86q124 -17 188 -17h103zM941 1401l81 81l113 -86
q18 -13 18 -26q0 -26 -28 -26h-254q-69 0 -149 -11l-39 86q126 -18 188 -18h70zM1407 1401l110 -22q86 -18 86 -46t-50 -42l-40 -11v-104q42 -413 187 -685q117 -222 281 -274l-4 -26h-11q-94 0 -136 -71q-109 119 -196 312q-61 135 -101 308q-4 17 -27 131q-5 28 -17 83
q-39 -279 -139 -463q-130 -242 -400 -410l-23 32q250 194 355 418q136 286 136 692q0 125 -11 178z" />
  </g>

</svg>
