<?xml version="1.0" standalone="no"?>
<!DOCTYPE svg PUBLIC "-//W3C//DTD SVG 1.1//EN" "http://www.w3.org/Graphics/SVG/1.1/DTD/svg11.dtd" >
<svg xmlns="http://www.w3.org/2000/svg" xmlns:xlink="http://www.w3.org/1999/xlink" version="1.1" viewBox="0 -120 1000 1000">
  <g transform="matrix(1 0 0 -1 0 880)">
   <path fill="currentColor"
d="M34 287q66 138 91 207q32 88 48 193h-121l-11 26h132v238l80 -7q18 -2 18 -12q0 -9 -9 -14l-27 -15v-190h39l40 54l67 -63v-17h-146l1 -102q118 -51 118 -107q0 -21 -12 -32q-9 -8 -19 -8q-12 0 -21 11q-3 4 -20 44q-23 55 -46 64v-503l-62 -11v422q-59 -100 -127 -187z
M291 328q84 111 129 198q49 93 79 200l-121 -1l-12 26l142 1q25 86 40 187l87 -23q15 -4 15 -14t-14 -15l-21 -7q-18 -66 -39 -129l240 1l46 63l88 -71v-18h-383q-26 -64 -53 -123l23 -14h239l30 40l71 -49q7 -5 7 -11q0 -7 -11 -10l-20 -5v-436q0 -37 -37 -51
q-44 -18 -57 -18q-6 0 -6 13q0 23 -3 29t-21 12l-50 16v15h108v168h-259v-245l-64 -8v464q-84 -123 -160 -196zM528 435v-108h259v109zM528 462h259l-1 101h-258v-101z" />
  </g>

</svg>
