<?xml version="1.0" standalone="no"?>
<!DOCTYPE svg PUBLIC "-//W3C//DTD SVG 1.1//EN" "http://www.w3.org/Graphics/SVG/1.1/DTD/svg11.dtd" >
<svg xmlns="http://www.w3.org/2000/svg" xmlns:xlink="http://www.w3.org/1999/xlink" version="1.1" viewBox="0 -140 1000 1000">
  <g transform="matrix(1 0 0 -1 0 860)">
   <path fill="currentColor"
d="M389 882l70 -36h367l41 46h15l54 -55v-14h-482v-684h378l50 51h13l51 -59v-15h-492v-34l-7 -13l-49 -17l-9 7v823zM479 690h314l34 37h14l44 -44v-16h-189l1 -163h83l37 37h13l44 -47v-14h-177v-166h124l37 40h13l47 -47v-16h-444v23h158v166h-124v24h124v163h-153v23z
M281 711l40 44h13l44 -50l1 -17h-144l1 -120q75 -40 105 -64t30 -55q0 -50 -28 -50q-15 0 -37 46q-18 39 -71 101v-469l-8 -13l-46 -12l-10 7v392q-48 -106 -106 -176l-11 10q73 142 114 403h-111v23h114v220l100 -21v-14l-34 -19l-1 -166h45z" />
  </g>

</svg>
