<?xml version="1.0" standalone="no"?>
<!DOCTYPE svg PUBLIC "-//W3C//DTD SVG 1.1//EN" "http://www.w3.org/Graphics/SVG/1.1/DTD/svg11.dtd" >
<svg xmlns="http://www.w3.org/2000/svg" xmlns:xlink="http://www.w3.org/1999/xlink" version="1.1" viewBox="0 -200 1000 1000">
  <g transform="matrix(1 0 0 -1 0 800)">
   <path fill="currentColor"
d="M723 429v-164h141v164h-141zM468 682l73 -34h152v7q0 31 -18.5 64t-58.5 67l6 8q26 -9 48.5 -21t41.5 -29q43 45 70 72t40 39h-286l-53 -13l-24 34h368l42 34l44 -71l-39 -14q-27 -10 -64.5 -34t-85.5 -59q24 -21 24 -45q0 -12 -6 -22.5t-18 -16.5h134l37 43l57 -56
l-35 -36v-509q1 -5 1 -10v-10q0 -35 -16.5 -59t-46.5 -39q-2 27 -29 48.5t-75 34.5v10q19 -2 37 -4t38 -2q38 0 38 40v144h-141v-182q-11 -12 -26 -20t-28 -13v215h-141v-235q-12 -11 -27.5 -19t-32.5 -15v708zM541 628l-13 -48v-129h141v177h-128zM723 628v-177h141v177
h-141zM528 429v-164h141v164h-141zM284 1q-11 -11 -21 -17t-35 -12l1 539q-36 -88 -79 -159t-95 -131l-8 13q125 219 182 471h-71l-70 -15l-19 37h160v244l78 -36l-23 -67v-141h44l50 47l70 -69h-164v-113q58 -33 86 -62.5t43 -47.5q10 -13 10 -35q0 -21 -9 -40t-22 -19
q-7 0 -14 7.5t-14 26.5q-5 16 -10.5 31.5t-14.5 33.5t-22 38.5t-33 46.5v-571z" />
  </g>

</svg>
