<?xml version="1.0" standalone="no"?>
<!DOCTYPE svg PUBLIC "-//W3C//DTD SVG 1.1//EN" "http://www.w3.org/Graphics/SVG/1.1/DTD/svg11.dtd" >
<svg xmlns="http://www.w3.org/2000/svg" xmlns:xlink="http://www.w3.org/1999/xlink" version="1.1" viewBox="0 -410 2048 2048">
  <g transform="matrix(1 0 0 -1 0 1638)">
   <path fill="currentColor"
d="M1434 586q240 129 383 332l117 -72q33 -20 33 -36q0 -27 -45 -27h-52q-25 -18 -94 -70q-98 -72 -314 -165q109 -138 241 -221q127 -80 300 -125v-35q-18 1 -28 1q-82 0 -128 -71q-271 160 -409 343q-109 144 -198 406l45 18q81 -177 149 -278zM1667 1010h-737v-42v-719
q197 48 357 117l13 -38q-133 -83 -361 -189q-11 -64 -28 -64q-16 0 -31 30l-60 122l15 4v1385q0 84 -15 177l119 -90h334q-18 17 -24 45q-21 100 -110 204l20 24q190 -128 190 -218q0 -35 -30 -55h328l68 76l83 -54q40 -26 40 -48q0 -27 -77 -61v-406q0 -79 11 -223
q1 -9 1 -13q0 -46 -70 -46q-36 0 -36 26v56zM1667 1066v267h-737v-267h737zM1667 1389v257h-544h-193v-257h737zM375 1485v309q0 118 -8 160l109 -24q86 -19 86 -45q0 -28 -50 -42l-40 -11v-347h68l99 102l120 -107q17 -15 17 -25q0 -27 -27 -27h-277v-165
q256 -187 256 -292q0 -30 -20 -50q-12 -12 -26 -12q-34 0 -69 78q-46 103 -141 205v-817q0 -101 11 -210q3 -32 3 -50q0 -46 -54 -46q-57 0 -57 43v1057q-42 -149 -119 -314q-92 -196 -184 -321l-31 23q199 320 288 871h-40q-108 0 -191 -8l-39 88q96 -23 230 -23h86z" />
  </g>

</svg>
