<?xml version="1.0" standalone="no"?>
<!DOCTYPE svg PUBLIC "-//W3C//DTD SVG 1.1//EN" "http://www.w3.org/Graphics/SVG/1.1/DTD/svg11.dtd" >
<svg xmlns="http://www.w3.org/2000/svg" xmlns:xlink="http://www.w3.org/1999/xlink" version="1.1" viewBox="0 -410 2048 2048">
  <g transform="matrix(1 0 0 -1 0 1638)">
   <path fill="currentColor"
d="M1120 691v-371q0 -61 41 -73q59 -17 294 -17q320 0 372 39q28 22 42 118q15 109 20 152l34 -7l-4 -184q-1 -25 5 -43q6 -14 46 -51q13 -12 13 -29q0 -77 -443 -77q-371 0 -437 19q-77 23 -77 118v826q0 74 -6 162l108 -87h587l62 69l72 -52q35 -24 35 -47q0 -27 -69 -54
v-332l34 -23q22 -14 22 -30q0 -26 -22 -26h-729zM1120 747h255v382h-255v-363v-19zM1464 1129v-382h261v382h-261zM370 1500v310q0 117 -8 160l109 -24q86 -19 86 -46q0 -28 -50 -42l-40 -11v-347h72l99 102l120 -107q17 -15 17 -26q0 -26 -27 -26h-281v-144
q252 -190 252 -290q0 -31 -20 -50q-12 -12 -26 -12q-34 0 -69 78q-45 101 -137 202v-849q0 -99 11 -209q3 -32 3 -50q0 -46 -55 -46q-56 0 -56 42v1078q-32 -116 -104 -273q-80 -177 -182 -318l-31 24q81 148 109 216q109 258 164 601h-41q-106 0 -181 -8l-38 88
q95 -23 219 -23h85zM914 1759q229 18 477 75q267 60 390 135l102 -105q13 -15 13 -26q0 -17 -26 -17q-9 0 -20 3l-49 13q-432 -113 -887 -130v-11v-219h822l99 102l120 -107q17 -15 17 -26q0 -26 -27 -26h-1031v-239q0 -244 -30 -466q-30 -228 -122 -393q-59 -107 -162 -213
l-30 24q145 196 198 434q47 212 47 626v440q0 11 -6 132q-1 19 -2 59z" />
  </g>

</svg>
