<?xml version="1.0" standalone="no"?>
<!DOCTYPE svg PUBLIC "-//W3C//DTD SVG 1.1//EN" "http://www.w3.org/Graphics/SVG/1.1/DTD/svg11.dtd" >
<svg xmlns="http://www.w3.org/2000/svg" xmlns:xlink="http://www.w3.org/1999/xlink" version="1.1" viewBox="0 -200 1000 1000">
  <g transform="matrix(1 0 0 -1 0 800)">
   <path fill="currentColor"
d="M266 1q-10 -12 -19.5 -17t-32.5 -12l1 539q-34 -88 -74.5 -159t-88.5 -131l-8 13q60 109 102 223.5t69 247.5h-66l-67 -15l-17 37h150v244l74 -36l-23 -67v-141h42l47 47l65 -69h-154v-113q55 -33 81 -62.5t40 -47.5q10 -13 10 -34q0 -20 -8.5 -36.5t-19.5 -16.5
q-7 0 -14 8t-13 28q-5 16 -10.5 31t-13.5 32t-20.5 37t-31.5 46v-576zM587 6q17 20 40 49.5t46 61t43 61.5t31 53q-2 7 -5.5 25t-8 43t-9 56t-8.5 64q-8 72 -9 151t-4 151h-203l-57 -12l-17 36h277v163v24v19t-2 21l64 -40l-14 -52v-136h105l37 46l60 -69h-202v-72.5t1 -78
t3.5 -80t6.5 -77.5q2 -39 9 -68.5t13 -59.5q7 18 14 33.5t15 36.5t18 51t24 76l51 -64l-34 -34q-13 -30 -21 -49t-15.5 -35.5t-16.5 -33.5t-23 -41q9 -23 22 -49.5t26.5 -49.5t26.5 -38.5t22 -15.5t12 8l31 142l14 -6q-14 -58 -19 -105t-5 -73q0 -17 7 -29.5t7 -23.5
q0 -5 -5 -9t-12 -6q-15 2 -34.5 18t-41.5 43.5t-43.5 65.5t-40.5 85q-7 -14 -26.5 -39.5t-43.5 -53t-49.5 -52.5t-45.5 -38zM706 420h-82v-298q-14 -23 -42 -26v324h-59q-6 -151 -30.5 -254t-72.5 -169l-10 5q13 35 27.5 86.5t23.5 108.5q10 66 12.5 126t2.5 97h-24l-44 -12
l-20 33h88v220l63 -29l-18 -54v-135h61v218l60 -30l-18 -56v-132h20l25 37zM808 930q50 -22 67.5 -42.5t17.5 -32.5v-6q0 -15 -8 -24.5t-18 -11.5h-3q-9 0 -14 9.5t-10.5 25t-13.5 35t-24 38.5z" />
  </g>

</svg>
