<?xml version="1.0" standalone="no"?>
<!DOCTYPE svg PUBLIC "-//W3C//DTD SVG 1.1//EN" "http://www.w3.org/Graphics/SVG/1.1/DTD/svg11.dtd" >
<svg xmlns="http://www.w3.org/2000/svg" xmlns:xlink="http://www.w3.org/1999/xlink" version="1.1" viewBox="0 -140 1000 1000">
  <g transform="matrix(1 0 0 -1 0 860)">
   <path fill="currentColor"
d="M322 529l-12 8q60 79 99 167.5t86 228.5l93 -46l-4 -14l-31 -4q-27 -57 -72 -137h168l71 192l85 -39l-3 -15l-31 -5l-98 -133h159l39 47h15l56 -56v-14h-234v-174h105l35 41h14l52 -48v-15h-206v-158h105l40 47h14l52 -54v-15h-211v-196h123l42 49h14l59 -57l1 -15h-467
v-26l-8 -10l-48 -14l-8 7v565q-36 -51 -94 -107zM481 137h162v196h-162v-196zM481 355h162v158h-162v-158zM481 535h162v174h-163zM58 668l-1 23h123v238l97 -24v-16l-32 -16v-182h38l37 42h14l47 -50v-15h-136v-137q75 -31 101.5 -51t26.5 -50q0 -49 -27 -49q-12 0 -19 15
q-27 53 -34 62.5t-48 48.5v-437l-6 -14l-51 -13l-8 7v383q-68 -119 -113 -177l-12 6q88 165 118 406h-115z" />
  </g>

</svg>
