<?xml version="1.0" standalone="no"?>
<!DOCTYPE svg PUBLIC "-//W3C//DTD SVG 1.1//EN" "http://www.w3.org/Graphics/SVG/1.1/DTD/svg11.dtd" >
<svg xmlns="http://www.w3.org/2000/svg" xmlns:xlink="http://www.w3.org/1999/xlink" version="1.1" viewBox="0 -410 2048 2048">
  <g transform="matrix(1 0 0 -1 0 1638)">
   <path fill="currentColor"
d="M1443 941l-200 4q-89 2 -192 -8l-38 88q94 -22 230 -22h200v275h-166v-26q0 -31 -53 -31q-57 0 -54 43l5 50q6 97 6 104v452l121 -64h369l67 76l85 -54q40 -25 40 -48q0 -28 -78 -62v-358q57 -39 57 -59q0 -23 -19 -23h-284v-275h199l97 102l121 -107q17 -15 17 -25
q0 -28 -40 -28h-394v-535q0 -101 12 -219q4 -31 4 -50q0 -46 -58 -46q-54 0 -54 42v804zM1277 1335h413v413h-413v-413zM960 1956l135 -50q46 -17 46 -37q0 -25 -54 -34l-40 -6q-54 -235 -149 -468l39 -12q62 -18 62 -35q0 -19 -39 -36l-34 -15v-856q0 -95 14 -219
q4 -31 4 -50q0 -46 -58 -46q-54 0 -54 42v1079q-75 -133 -126 -204l-34 25q209 387 288 922zM442 1335q219 -166 219 -285q0 -66 -54 -66q-26 0 -37 20q-6 10 -17 61q-21 93 -111 204v-935l3 -43l2 -48l4 -51l2 -38q1 -29 1 -33q0 -51 -61 -51q-47 0 -47 33v1029
q-110 -277 -254 -509l-31 20q191 366 270 836h-78q-69 0 -148 -11l-39 86q118 -17 187 -17h93v263q0 120 -8 160l111 -24q85 -19 85 -45q0 -29 -49 -42l-43 -12v-300h61l86 85l112 -91q17 -14 17 -28q0 -24 -28 -24h-248v-144zM1220 834l132 -40q45 -13 45 -37
q0 -22 -43 -32l-39 -9q-73 -163 -102 -215q-56 -100 -139 -215l-32 18q120 247 178 530zM1656 803q24 -26 106 -112q139 -148 139 -259q0 -76 -60 -76q-25 0 -40 20q-11 15 -24 96q-25 148 -154 302z" />
  </g>

</svg>
