<?xml version="1.0" standalone="no"?>
<!DOCTYPE svg PUBLIC "-//W3C//DTD SVG 1.1//EN" "http://www.w3.org/Graphics/SVG/1.1/DTD/svg11.dtd" >
<svg xmlns="http://www.w3.org/2000/svg" xmlns:xlink="http://www.w3.org/1999/xlink" version="1.1" viewBox="0 -410 2048 2048">
  <g transform="matrix(1 0 0 -1 0 1638)">
   <path fill="currentColor"
d="M1273 1086h-138v-10q0 -13 -15 -24q-20 -13 -45 -13q-36 0 -36 21v618l118 -66h534l60 72l72 -50q43 -29 43 -49q0 -16 -66 -53v-442q0 -47 -68 -47q-31 0 -31 17v26h-415l111 -42q42 -15 42 -37q0 -15 -17 -24q-3 -1 -66 -15q-24 -57 -52 -116h264q8 63 8 125l115 -23
q55 -11 55 -30q0 -22 -31 -32l-40 -14l-4 -26h100l80 81l114 -86q17 -12 17 -26q0 -27 -27 -27h-296q-36 -146 -126 -257q144 -41 230 -79q99 -44 99 -101q0 -49 -40 -49q-26 0 -126 63q-84 52 -229 106q-187 -128 -507 -181l-8 42q215 36 433 172q-117 32 -319 74
q70 104 114 210h-81q-63 0 -147 -11l-41 86q121 -17 188 -17h103q36 96 65 213zM1561 794h-288q-62 -103 -123 -181q88 -14 175 -31q58 -11 110 -21q90 84 126 233zM1135 1144h566v177h-566v-177zM1135 1383h566v173h-566v-173zM663 1846q95 -26 230 -26h848l99 101
l120 -106q17 -15 17 -26q0 -25 -27 -25h-1050v-1409q0 -60 38 -84q67 -41 509 -41q302 0 406 30q29 9 36 9q25 0 47 -16q32 -24 32 -56t-92 -42q-184 -19 -409 -19q-434 0 -560 38q-63 19 -84 57q-18 33 -18 117v1414q-48 -1 -96 -4h-7zM378 1501v310q0 114 -8 160l109 -24
q86 -19 86 -46q0 -28 -50 -42l-40 -11v-347h69l98 102l121 -107q17 -15 17 -25q0 -27 -28 -27h-277v-206q256 -185 256 -292q0 -31 -20 -50q-12 -12 -26 -12q-34 0 -69 78q-46 105 -141 205v-788q0 -95 12 -209q3 -32 3 -50q0 -46 -55 -46q-57 0 -57 42v1073
q-31 -113 -107 -279q-104 -226 -192 -328l-28 21q197 345 282 841h-56q-117 0 -192 -8l-38 88q96 -23 230 -23h101z" />
  </g>

</svg>
