<?xml version="1.0" standalone="no"?>
<!DOCTYPE svg PUBLIC "-//W3C//DTD SVG 1.1//EN" "http://www.w3.org/Graphics/SVG/1.1/DTD/svg11.dtd" >
<svg xmlns="http://www.w3.org/2000/svg" xmlns:xlink="http://www.w3.org/1999/xlink" version="1.1" viewBox="0 -120 1000 1000">
  <g transform="matrix(1 0 0 -1 0 880)">
   <path fill="currentColor"
d="M48 324q61 99 101 228q34 110 39 156h-125l-10 28h145v225l50 -6q47 -5 47 -18q0 -8 -16 -15l-23 -9v-177h28l33 51l80 -55v-24h-141v-154q29 -11 58 -35q48 -41 48 -73q0 -37 -34 -37q-13 0 -20 9q-4 6 -25 64q-9 24 -27 42v-449l-58 -13v459q-74 -140 -135 -207z
M442 594q-6 -97 -55 -97q-17 0 -29 11q-8 7 -8 17q0 11 5 18.5t35 41.5q22 25 27 85h21q3 -29 4 -48h248q41 107 58 176h-357l-10 28h235v137l64 -7q35 -4 35 -15t-22 -16l-15 -4v-95h125l43 51l83 -57v-22h-170l44 -22q36 -18 39 -22q1 -3 1 -5q0 -12 -26 -15l-17 -3
l-83 -109h138l30 38l72 -63q12 -10 12 -18q0 -14 -24 -14h-36l-71 -56l-9 8l23 77h-410zM429 132v351l57 -32h134v125l41 -4q47 -5 47 -16q0 -9 -16 -15l-14 -6v-84h127l25 35l45 -25q33 -19 33 -31q0 -10 -14 -14l-18 -5v-205q0 -38 -35 -52t-50 -14q-6 0 -8 4q-1 0 -9 27
q-5 13 -19 15l-39 7v18h100v213h-138v-349l-58 -11v360h-134v-282zM489 784q25 -14 46 -30q24 -18 34 -33q11 -17 11 -41q0 -40 -27 -40q-23 0 -27 28q-15 64 -47 104z" />
  </g>

</svg>
