<?xml version="1.0" standalone="no"?>
<!DOCTYPE svg PUBLIC "-//W3C//DTD SVG 1.1//EN" "http://www.w3.org/Graphics/SVG/1.1/DTD/svg11.dtd" >
<svg xmlns="http://www.w3.org/2000/svg" xmlns:xlink="http://www.w3.org/1999/xlink" version="1.1" viewBox="0 -410 2048 2048">
  <g transform="matrix(1 0 0 -1 0 1638)">
   <path fill="currentColor"
d="M1189 242h552l99 102l120 -107q17 -15 17 -26q0 -26 -27 -26h-1117q-116 0 -191 -8l-39 88q97 -23 230 -23h311q-10 73 -93 95l-107 29l8 38l128 -27q60 -12 84 -12q80 0 97 85q15 77 15 441l1 134l-1 131v183v101h-250q-23 -9 -45 -9q-44 0 -43 24q1 5 3 10l127 308
h-189q-117 0 -192 -8l-38 88q96 -23 230 -23h828l98 101l121 -106q17 -15 17 -26q0 -26 -27 -26h-743l-122 -273h207l68 76l80 -49q50 -31 50 -54q0 -25 -84 -63q-1 -103 -2 -176v-100v-141v-307q0 -218 -21 -295q-31 -117 -160 -149zM358 1477v321q0 117 -9 160l110 -24
q86 -19 86 -45q0 -28 -50 -42l-41 -11v-359h80l99 102l120 -107q18 -15 18 -25q0 -27 -28 -27h-289v-96q224 -200 224 -306q0 -63 -46 -63q-39 0 -67 85q-36 107 -111 203v-876q0 -94 12 -209q3 -32 3 -49q0 -47 -55 -47q-56 0 -56 42v1046q-117 -334 -283 -533l-30 23
q115 157 192 407q59 190 87 373h-40q-117 0 -192 -8l-39 88q96 -23 231 -23h74zM1463 1271h-9l-38 88q92 -22 228 -22h132l50 58l75 -50q36 -24 36 -41q0 -23 -65 -47q-65 -249 -107 -350q169 -265 169 -376q0 -58 -30 -83q-9 -7 -22 -7q-23 0 -40 25q-15 21 -37 129
q-17 86 -82 224q-114 -220 -291 -396l-34 28q161 185 280 461q-74 142 -203 341zM1508 1275q56 -69 200 -283q35 94 76 287h-138q-63 0 -138 -4zM834 1189h166l63 69l72 -51q34 -25 34 -47q0 -27 -68 -55v-340l30 -26q25 -19 25 -30q0 -23 -18 -23h-314v-38q0 -28 -47 -28
q-33 0 -43 11q-10 13 -10 58l9 147v273q0 44 -8 138zM824 742h185v390h-185v-390z" />
  </g>

</svg>
