<?xml version="1.0" standalone="no"?>
<!DOCTYPE svg PUBLIC "-//W3C//DTD SVG 1.1//EN" "http://www.w3.org/Graphics/SVG/1.1/DTD/svg11.dtd" >
<svg xmlns="http://www.w3.org/2000/svg" xmlns:xlink="http://www.w3.org/1999/xlink" version="1.1" viewBox="0 -140 1000 1000">
  <g transform="matrix(1 0 0 -1 0 860)">
   <path fill="currentColor"
d="M764 701l5 12q113 -34 145.5 -56t32.5 -63q0 -12 -6.5 -22t-14.5 -10q-13 0 -41 40q-37 52 -121 99zM499 915l6 14q111 -34 148.5 -56t37.5 -52q0 -13 -6.5 -24.5t-17.5 -11.5q-12 0 -30 20q-73 76 -138 110zM808 926l87 -53l-8 -14l-30 3q-79 -125 -144.5 -195.5
t-162.5 -133.5q0 -17 6.5 -20t37.5 -3h114q35 0 49.5 12t21.5 48l12 58l16 -1l10 -105l30 -16v-17q-46 -29 -124 -29h-149q-50 0 -66 4.5t-16 26.5q0 10 1 13q-47 -20 -129 -47l-7 15q71 30 131 75v265l90 -20v-13l-28 -18l1 -173q95 78 152 153t105 185zM424 784h15
q1 -11 1 -35q0 -51 -6 -90.5t-15 -60.5t-19.5 -35t-18 -18t-12.5 -4q-27 0 -27 47q0 25 28 60q28 37 37 58.5t17 77.5zM882 367l1 -285l22 35h15l38 -42v-16h-651v23h90v354l65 -23h350l33 29h15l48 -38v-15zM316 735l46 -52v-16h-135v-104q75 -41 103.5 -70t28.5 -60
q0 -35 -29 -35q-20 0 -36 45q-13 36 -22.5 49.5t-44.5 45.5v-479l-10 -15l-47 -11l-6 8l-1 374q-59 -93 -110 -141l-10 10q51 81 76 163.5t41 219.5h-116v23h119v242l104 -31l1 -16l-41 -23v-172h35l39 46zM744 82h74v308h-74v-308zM605 82h77v308h-77v-308zM459 82h80v308
h-80v-308z" />
  </g>

</svg>
