<?xml version="1.0" standalone="no"?>
<!DOCTYPE svg PUBLIC "-//W3C//DTD SVG 1.1//EN" "http://www.w3.org/Graphics/SVG/1.1/DTD/svg11.dtd" >
<svg xmlns="http://www.w3.org/2000/svg" xmlns:xlink="http://www.w3.org/1999/xlink" version="1.1" viewBox="0 -120 1000 1000">
  <g transform="matrix(1 0 0 -1 0 880)">
   <path fill="currentColor"
d="M244 822q47 -11 65 -22q32 -19 32 -48q0 -13 -9 -21t-21 -8q-15 0 -25 21q-19 38 -50 65zM96 621l-4 -12q-5 -14 -14 -14q-8 0 -13 14l-26 66l111 10v209l49 -28h54l10 103l39 -9q48 -12 48 -22q0 -9 -19 -12l-16 -4l-26 -56h87l16 26l63 -33q14 -7 14 -14t-11 -12
l-15 -6v-113l45 4l2 -17l-47 -8v-215q0 -35 -36 -50q-34 -14 -49 -14q-4 0 -6 3q-2 2 -8 28q-3 12 -46 20l-23 4v15h113v199l-182 -32q-5 -88 -41 -145q-39 -60 -103 -111l-11 13q99 102 96 226zM206 839v-149l182 16v133h-182zM51 93q97 41 207 117q91 65 144 128h-342
l-12 26h418v74l53 -5q40 -4 40 -14q0 -12 -17 -17l-15 -5v-33h269l44 51l80 -57v-20h-359q75 -71 152 -108q106 -51 234 -76l-6 -20q-21 0 -31 -6q-15 -10 -35 -40q-92 38 -205 113q-62 43 -143 133v-266l-61 -8v245q-73 -67 -194 -136q-37 -21 -125 -57q-41 -17 -91 -34z
M267 516v133l31 -2q42 -3 42 -14q0 -6 -18 -16l-10 -6v-89zM493 463q63 19 101 33q38 15 66 36q-60 45 -95 104h-29l-9 28h271l23 26l60 -41q10 -7 10 -15q0 -11 -18 -11h-26l-17 -16q-53 -47 -88 -75q51 -21 93 -31q36 -8 107 -20l-6 -16q-27 -5 -39 -15q-6 -6 -21 -25
q-96 25 -179 81q-36 -17 -74 -31q-57 -21 -121 -28zM591 636q35 -45 100 -82q49 39 83 82h-183zM492 677q75 56 74 145v118l52 -31h118l18 27l60 -40q14 -9 14 -16q0 -8 -14 -10l-20 -4v-87q0 -11 5 -14q4 -3 15 -4h46q15 1 22 9q5 7 8 16l25 63h16l-4 -55q-1 -16 3 -21
q8 -10 27 -15q0 -20 -17 -33q-16 -14 -42 -14h-100q-35 0 -44 8q-14 10 -14 30v132h-119v-59q0 -38 -9.5 -63t-32.5 -46q-22 -20 -74 -49z" />
  </g>

</svg>
