<?xml version="1.0" standalone="no"?>
<!DOCTYPE svg PUBLIC "-//W3C//DTD SVG 1.1//EN" "http://www.w3.org/Graphics/SVG/1.1/DTD/svg11.dtd" >
<svg xmlns="http://www.w3.org/2000/svg" xmlns:xlink="http://www.w3.org/1999/xlink" version="1.1" viewBox="0 -200 1000 1000">
  <g transform="matrix(1 0 0 -1 0 800)">
   <path fill="currentColor"
d="M536 685h140l47 45l61 -69h-174l-45 -15zM561 570l-6 -89h224v100h-201zM539 353h240v106h-226zM338 550q16 13 41 37t54 56t61 71.5t61 82t53.5 87t39.5 88.5l69 -65l-29 -24q23 -49 57.5 -87t76 -66t87.5 -46.5t91 -28.5q-31 -7 -53.5 -21t-46.5 -34q-33 18 -62 41
t-56 54.5t-54 73.5t-55 98q-26 -39 -46 -70t-38 -57t-36.5 -47.5t-42.5 -40.5l67 -48h193l37 43l64 -62l-35 -38v-217h-301l-15 -56l66 -32h201l34 36l56 -60l-31 -23v-176h-274v-32q-17 -11 -30.5 -13t-23.5 -2l1 300q-6 -38 -27 -82.5t-52.5 -86.5t-72 -77t-86.5 -53
l-9 -3q16 17 40 41.5t50 60.5t52 85.5t46.5 117.5t33.5 156.5t13 202.5v16q-15 -13 -38.5 -29t-48.5 -31t-47.5 -26t-34.5 -14zM572 198v-156h221v175h-213zM251 1q-11 -11 -21 -17t-35 -12l1 539q-36 -88 -79 -159t-95 -131l-8 13q125 219 182 471h-71l-70 -15l-19 37h160
v244l78 -36l-23 -67v-141h44l50 47l70 -69h-164v-113q58 -33 86 -62.5t43 -47.5q10 -13 10 -35q0 -21 -9 -40t-22 -19q-7 0 -14 7.5t-14 26.5q-5 16 -10.5 31.5t-14.5 33.5t-22 38.5t-33 46.5v-571z" />
  </g>

</svg>
