<?xml version="1.0" standalone="no"?>
<!DOCTYPE svg PUBLIC "-//W3C//DTD SVG 1.1//EN" "http://www.w3.org/Graphics/SVG/1.1/DTD/svg11.dtd" >
<svg xmlns="http://www.w3.org/2000/svg" xmlns:xlink="http://www.w3.org/1999/xlink" version="1.1" viewBox="0 -120 1000 1000">
  <g transform="matrix(1 0 0 -1 0 880)">
   <path fill="currentColor"
d="M29 110q72 70 123 141q41 59 96 163l-186 2l-10 27l199 -2v142l82 -8q14 -1 14 -13q0 -8 -8 -11l-27 -11v-99l66 -1l40 53l70 -63v-17l-176 1v-61q65 -17 101 -40q53 -34 53 -72q0 -17 -11 -27q-9 -8 -18 -8q-14 0 -39 39q-31 48 -86 85v-272l-61 -12v248
q-112 -126 -210 -197zM128 550l-2 369l66 -41h187l24 34l67 -41q11 -7 11 -15t-11 -12l-20 -6v-267l-61 -10l-1 41h-201v-42zM187 850v-223h202v223h-202zM397 117q157 124 263 300h-142l-8 25h156l2 140l84 -11q10 -1 10 -10q0 -7 -8 -10l-23 -11v-98h103l40 52l81 -63v-14
h-224q60 -126 230 -229l-5 -10q-25 -1 -37 -9q-10 -6 -30 -26q-51 48 -87 96q-42 56 -71 131v-310l-64 -11v264q-141 -142 -259 -210zM544 542v376l66 -40h204l23 35l69 -39q10 -5 10 -13t-8 -10l-26 -8v-272l-63 -10v40h-213v-48zM605 850v-224h214v224h-214z" />
  </g>

</svg>
