<?xml version="1.0" standalone="no"?>
<!DOCTYPE svg PUBLIC "-//W3C//DTD SVG 1.1//EN" "http://www.w3.org/Graphics/SVG/1.1/DTD/svg11.dtd" >
<svg xmlns="http://www.w3.org/2000/svg" xmlns:xlink="http://www.w3.org/1999/xlink" version="1.1" viewBox="0 -140 1000 1000">
  <g transform="matrix(1 0 0 -1 0 860)">
   <path fill="currentColor"
d="M858 707l-22 -14l-1 -164l-2 -18l-46 -18l-16 4v20h-115v-63l104 3q-25 25 -34 36l7 9q9 -5 56.5 -27t55.5 -26q23 -20 23 -45q0 -44 -24 -44q-9 0 -23 20q-6 9 -47 59l-359 -50l-10 -35l-13 -2l-35 86l234 14v65h-122q0 -16 -7 -28l-47 -12l-11 6v280l66 -24h121v70
h-266v23h266v90l93 -14v-14l-28 -14v-48h164l36 51h17l59 -58v-16h-276v-70h106l29 28h16l51 -47v-13zM468 640h123v75h-123v-75zM468 540h123v77h-123v-77zM771 640v75h-115v-75h115zM771 540v77h-115v-77h115zM278 301v23h435v87l90 -23v-14l-25 -11v-39h63l41 47h14
l48 -52v-18h-166v-144q0 -47 -23.5 -64t-92.5 -31l-10 6v33l-68 30l4 13l77 -5q27 -2 37 7t10 36l1 119h-435zM433 278l8 7q57 -36 81 -61.5t24 -56.5q0 -16 -10.5 -31t-19.5 -15q-18 0 -33 54q-11 43 -50 103zM59 711h114v220l93 -21v-15l-29 -12v-172h51l34 44h15l50 -51
v-15h-150v-130q68 -32 90 -54.5t22 -57.5q0 -17 -9 -31t-20 -14q-21 0 -36 51q-14 47 -47 82v-469l-6 -13l-50 -8l-8 9v381q-45 -89 -104 -169l-10 10q47 96 70 192.5t37 220.5h-107v22z" />
  </g>

</svg>
