<?xml version="1.0" standalone="no"?>
<!DOCTYPE svg PUBLIC "-//W3C//DTD SVG 1.1//EN" "http://www.w3.org/Graphics/SVG/1.1/DTD/svg11.dtd" >
<svg xmlns="http://www.w3.org/2000/svg" xmlns:xlink="http://www.w3.org/1999/xlink" version="1.1" viewBox="0 -410 2048 2048">
  <g transform="matrix(1 0 0 -1 0 1638)">
   <path fill="currentColor"
d="M451 1329q196 -157 196 -267q0 -65 -53 -65q-23 0 -35 19q-8 14 -21 67q-20 82 -87 168v-917l2 -43l2 -48l4 -51l2 -38q2 -29 2 -32q0 -52 -62 -52q-47 0 -47 33v992q-103 -247 -263 -486l-31 19q190 338 277 790l4 23h-76q-69 0 -148 -11l-40 86q119 -17 188 -17h89v305
q0 118 -8 160l111 -24q86 -19 86 -46q0 -30 -48 -42l-44 -11v-342h44l88 85l109 -91q13 -11 13 -26q0 -26 -22 -26h-232v-112zM725 1547l-39 86q119 -17 188 -17h46v161q0 118 -8 159l109 -24q87 -19 87 -45q0 -29 -50 -42l-43 -11v-198h57l78 80l112 -83q19 -14 19 -32
q0 -23 -25 -23h-241v-248h119l80 80l113 -80q19 -14 19 -32q0 -26 -28 -26h-174v-176q0 -35 17 -42t57 -7q37 0 67 6q31 6 42 6q53 0 53 -50q0 -53 -150 -53q-94 0 -135 20q-45 22 -45 90v206h-130q-24 -140 -52 -198q-72 -156 -262 -230l-17 32q111 72 156 144
q60 96 77 252h-31l-37 -3q-42 -3 -78 -8l-39 86q126 -17 188 -17h95v248h-46q-69 0 -149 -11zM691 617l-40 86q121 -19 188 -19h81v98q0 118 -8 159l109 -24q86 -19 86 -44q0 -30 -50 -43l-42 -11v-135h87l80 82l119 -88q14 -10 14 -24q0 -26 -28 -26h-272v-259
q143 32 272 74l14 -36q-228 -116 -545 -192l-11 -47q-7 -29 -23 -29q-18 0 -31 25l-71 143q118 11 300 42v279h-81q-63 0 -148 -11zM1320 1354l-40 87q126 -17 188 -17h32v359q0 126 -5 160l108 -24q86 -19 86 -46q0 -29 -50 -42l-42 -11v-396h107l68 75l83 -54
q41 -26 41 -48q0 -29 -80 -62v-496l-2 -46q0 -218 29 -334q24 -100 38 -99q11 1 30 91l28 159l38 -8l-15 -178q-4 -54 -4 -106q0 -68 12 -106q14 -45 14 -52q0 -39 -40 -39q-93 0 -166 228q-51 158 -51 472v544h-130q-9 -352 -52 -574q152 -117 152 -197q0 -50 -46 -50
q-31 0 -53 43q-32 59 -72 121q-58 -246 -151 -394q-86 -137 -206 -229l-25 32q111 108 178 251q73 157 125 414q-8 7 -12 11q-48 45 -102 85l22 34q23 -13 104 -66q42 224 41 519h-32q-63 0 -148 -11z" />
  </g>

</svg>
