<?xml version="1.0" standalone="no"?>
<!DOCTYPE svg PUBLIC "-//W3C//DTD SVG 1.1//EN" "http://www.w3.org/Graphics/SVG/1.1/DTD/svg11.dtd" >
<svg xmlns="http://www.w3.org/2000/svg" xmlns:xlink="http://www.w3.org/1999/xlink" version="1.1" viewBox="0 -140 1000 1000">
  <g transform="matrix(1 0 0 -1 0 860)">
   <path fill="currentColor"
d="M438 883l72 -22h272l33 32h14l59 -51v-13l-28 -12v-176l-8 -12l-47 -9l-9 9v29h-294v-19l-8 -10l-48 -11l-8 5v260zM839 580l30 27h14l53 -44v-11l-23 -12v-123l-8 -11l-47 -14l-9 7v30h-393v-27l-10 -10l-45 -13l-8 7v227l66 -33h380zM549 558h-93v-106h93v106zM701 558
h-92v-106h92v106zM849 558h-88v-106h88v106zM786 326h-276q62 -64 146 -111q78 49 130 111zM787 349l29 25h13l53 -55l-1 -13l-32 -7q-73 -73 -150 -114q112 -54 249 -61l-1 -14q-20 -6 -28 -14.5t-21 -35.5q-145 33 -244 99q-143 -74 -338 -90l-6 19q108 19 167 39t134 64
q-78 67 -131 136h-76v22h383zM75 729h124v204l97 -22v-13l-34 -18v-151h37l40 43h14l46 -52v-13h-137v-107q68 -29 94.5 -54t26.5 -60q0 -43 -25 -43q-15 0 -21 10t-16 44q-11 35 -59 83v-505l-12 -12l-41 -8l-10 7v470q-38 -131 -135 -233l-9 9q54 81 85 173t50 226h-115
v22zM797 839h-295v-66h295v66zM797 751h-295v-69h295v69z" />
  </g>

</svg>
