<?xml version="1.0" standalone="no"?>
<!DOCTYPE svg PUBLIC "-//W3C//DTD SVG 1.1//EN" "http://www.w3.org/Graphics/SVG/1.1/DTD/svg11.dtd" >
<svg xmlns="http://www.w3.org/2000/svg" xmlns:xlink="http://www.w3.org/1999/xlink" version="1.1" viewBox="0 -204 1024 1024">
  <g transform="matrix(1 0 0 -1 0 820)">
   <path fill="currentColor"
d="M32 730q43 -14 114 -14h36v164q0 54 -4 80q59 -5 95 -20q15 -7 15 -16t-15 -11q-17 -9 -43 -11v-186h28l44 48q36 -23 66 -49q8 -5 8 -11q0 -14 -12 -14h-134v-73q43 -24 68 -47q28 -24 41 -45q7 -17 7 -33q0 -32 -18 -32q-10 0 -16 5q-6 6 -13 23q-16 41 -37 66
q-12 18 -32 33v-483q0 -23 2 -30q4 -16 4 -28q0 -32 -32 -32q-26 0 -26 14q0 23 2 57q2 33 2 61v401q-15 -50 -35 -92q-19 -49 -46 -96q-24 -45 -61 -97l-12 14q30 57 53 112q20 50 39 109q15 50 27 109q12 45 18 84h-19q-69 -1 -96 -4zM340 914q43 -12 116 -12h406l48 52
q36 -29 69 -53q7 -5 7 -13q0 -16 -10 -16h-216v-98h106l30 30q50 -30 50 -44q0 -10 -26 -26v-190q0 -17 -32 -22q-18 0 -18 8v24h-424v-14q0 -9 -12 -13q-13 -5 -22 -5q-14 0 -14 10v272l62 -30h92v98h-96q-72 0 -98 -2zM446 580h106v164h-106v-164zM598 580h114v164h-114
v-164zM760 580h110v164h-110v-164zM712 774v98h-114v-98h114zM398 482q44 -12 116 -12h278l44 48q34 -27 66 -49q8 -7 8 -13q0 -14 -12 -14h-384q-70 -1 -94 -4zM318 360q43 -10 116 -10h432l48 52q36 -29 68 -53q8 -5 8 -13q0 -16 -10 -16h-298v-204q0 -34 -8 -51
q-8 -15 -25 -26q-11 -11 -21 -11l-2 18q-2 11 -10 16q-10 12 -35 23q-29 10 -67 13v22q58 -16 106 -16q9 0 12 7q4 6 4 31v178h-202q-69 -1 -94 -2zM482 274q42 -19 72 -40q4 -2 4 -8t-8 -10q-16 -6 -32 -8q-16 -18 -39 -36q-21 -21 -49 -36q-21 -18 -53 -34
q-32 -17 -67 -34l-12 12q43 27 72 53q27 22 52 49q24 26 41 50q13 23 19 42zM752 252q54 -24 96 -52q42 -23 64 -42q25 -15 35 -27q9 -13 15 -23q6 -8 6 -18q-1 -28 -22 -28q-8 0 -15 3q-8 5 -35 42q-30 38 -62 67q-34 29 -96 66z" />
  </g>

</svg>
