<?xml version="1.0" standalone="no"?>
<!DOCTYPE svg PUBLIC "-//W3C//DTD SVG 1.1//EN" "http://www.w3.org/Graphics/SVG/1.1/DTD/svg11.dtd" >
<svg xmlns="http://www.w3.org/2000/svg" xmlns:xlink="http://www.w3.org/1999/xlink" version="1.1" viewBox="0 -120 1000 1000">
  <g transform="matrix(1 0 0 -1 0 880)">
   <path fill="currentColor"
d="M97 144l-11 -14q-5 -7 -11 -7t-9 10l-29 76q52 0 103 4v300h-81l-8 26h760l44 54l86 -62v-18h-494v-453l-62 -9v161q-100 -26 -288 -68zM201 215q93 7 184 16v79h-184v-95zM201 415v-81h184v81h-184zM201 439h184v74h-184v-74zM55 597q101 80 178 216h-169l-12 26h194
v118l76 -9q16 -2 16 -12q0 -8 -10 -12l-22 -9v-76h71l39 48l69 -57v-17h-179v-30q91 -22 128 -49q30 -21 30 -52q0 -13 -10 -22q-8 -7 -17 -7q-6 0 -13 5q-1 1 -47 52q-24 26 -71 51v-183l-62 -10l2 156q-88 -82 -181 -141zM406 592q115 71 237 220h-128l-9 26h157v117
l79 -9q15 -2 15 -13q0 -9 -10 -12l-24 -8v-75h106l43 54l80 -63v-17h-228q40 -49 95 -86q54 -38 139 -73l-5 -12q-15 -6 -23 -13q-11 -10 -25 -33q-75 51 -109 89q-41 46 -73 99v-211l-60 -12v185q-76 -69 -139 -107t-111 -59zM461 84q110 64 191 145q-62 72 -109 182h-54
l-9 27h310l24 31l70 -51q11 -8 11 -13q0 -7 -15 -10l-21 -4q-72 -101 -128 -159q86 -62 210 -97l-1 -12q-26 -2 -41 -13t-28 -33q-96 49 -183 117q-117 -91 -222 -127zM572 411q44 -92 114 -146q62 64 105 146h-219z" />
  </g>

</svg>
