<?xml version="1.0" standalone="no"?>
<!DOCTYPE svg PUBLIC "-//W3C//DTD SVG 1.1//EN" "http://www.w3.org/Graphics/SVG/1.1/DTD/svg11.dtd" >
<svg xmlns="http://www.w3.org/2000/svg" xmlns:xlink="http://www.w3.org/1999/xlink" version="1.1" viewBox="0 -120 1000 1000">
  <g transform="matrix(1 0 0 -1 0 880)">
   <path fill="currentColor"
d="M35 302q10 20 37 72q71 152 93 334h-108l-13 27h121v226l84 -12q16 -2 16 -11q0 -7 -14 -12l-27 -10v-181h22l34 46l59 -56v-17h-115v-152q98 -49 98 -102q0 -16 -12 -28q-9 -8 -20 -8q-13 0 -19 21q-12 45 -22 64q-7 15 -25 37v-466l-59 -13v408q-38 -68 -51 -89
q-27 -44 -66 -91zM293 169q43 112 52 247l57 -15q12 -3 12 -11q0 -6 -8 -9l-10 -4q-16 -68 -37 -121q-26 -67 -47 -96zM358 485l-2 -8q-2 -7 -10 -7q-6 0 -9 7l-27 60h59q16 32 45 87q74 145 98 208l64 -35q11 -6 11 -14q0 -6 -13 -9l-14 -4l-165 -233l125 6q-7 27 -36 57
l9 13q96 -52 96 -109q0 -17 -12 -28q-9 -9 -20 -9q-9 0 -13 6q-2 3 -16 50l-49 -10v-442l-54 -11v440zM375 768q27 58 68 190l62 -29q16 -8 16 -17q0 -8 -19 -12l-17 -3l-93 -142q20 -25 25 -33q8 -14 8 -28q0 -16 -10 -26q-9 -8 -20 -8q-15 0 -20 23q-17 62 -54 98l11 13z
M522 140q117 80 210 205q-4 30 -12 50q-36 -28 -72 -49q-24 -14 -40 -23q-11 -6 -21 -13q2 -14 2 -22q0 -22 -12 -33q-8 -8 -18 -8t-15 6q-4 6 -8 32q-14 80 -42 127l13 10q37 -37 71 -91q72 51 125 112q-16 33 -30 55q-72 -62 -119 -90l-13 16q97 77 162 182h-145l-14 26
h213l16 99h-102l-10 -40h-58l65 269l55 -19q16 -6 16 -13t-11 -11l-12 -4l-8 -32h78l25 35l57 -43q7 -6 7 -11q0 -6 -7 -8l-16 -5l-39 -217h37l39 54l64 -67v-13h-172q3 -55 32 -167q30 32 77 103l48 -44q10 -9 10 -15q0 -11 -17 -9l-17 2l-94 -59q24 -78 64 -142
q51 -82 82 -105l-7 -15q-23 -8 -35 -18q-5 -4 -17 -18q-121 162 -147 479l-41 -46l-31 -36q30 -36 55 -88q21 -43 32 -93q16 -74 16 -125q0 -76 -41 -119q-28 -28 -45 -28q-4 0 -7 3q-1 1 -4 23q-1 6 -5 10q-3 3 -21 7l-53 13v19l97 -3q28 34 28 107q0 9 -1 36
q-113 -111 -208 -155zM678 760h100l17 96h-94z" />
  </g>

</svg>
