<?xml version="1.0" standalone="no"?>
<!DOCTYPE svg PUBLIC "-//W3C//DTD SVG 1.1//EN" "http://www.w3.org/Graphics/SVG/1.1/DTD/svg11.dtd" >
<svg xmlns="http://www.w3.org/2000/svg" xmlns:xlink="http://www.w3.org/1999/xlink" version="1.1" viewBox="0 -410 2048 2048">
  <g transform="matrix(1 0 0 -1 0 1638)">
   <path fill="currentColor"
d="M510 1322q241 -177 241 -301q0 -67 -55 -67q-26 0 -37 20q-6 11 -17 61q-21 97 -132 231v-928l2 -44l1 -47l5 -51l1 -23l2 -28q1 -17 1 -19q0 -52 -63 -52q-46 0 -46 33v1084q-129 -330 -330 -629l-31 25q235 419 313 858h-86q-67 0 -149 -11l-39 86q116 -17 188 -17h134
v305q0 118 -8 160l111 -24q86 -19 86 -46q0 -29 -50 -42l-42 -11v-342h68l86 84l112 -90q16 -13 16 -28q0 -24 -28 -24h-254v-123zM825 1956l119 -75h252l68 75l84 -53q40 -26 40 -49q0 -27 -78 -61v-478q0 -12 3 -72q2 -30 2 -39q0 -46 -58 -46q-44 0 -44 32v28h-293v-36
q0 -30 -51 -30q-49 0 -49 41l5 193v570zM920 1275h293v144h-293v-144zM920 1473h293v153h-293v-153zM920 1684h293v141h-293v-141zM1416 1956l120 -75h260l68 75l84 -53q40 -26 40 -49q0 -27 -78 -61v-479q0 -8 3 -72l3 -43q0 -42 -57 -42q-45 0 -45 31v30h-302v-14
q0 -31 -51 -31q-52 0 -52 38q0 3 1 37l2 61l4 70v577zM1512 1275h302v144h-302v-144zM1512 1473h302v153h-302v-153zM1512 1684h302v141h-302v-141zM1007 1179l145 -58q26 -10 26 -28q0 -20 -35 -27l-54 -10l-51 -79h364q-25 83 -89 160l26 28q143 -75 143 -138
q0 -32 -24 -50h246l98 102l121 -107q17 -15 17 -26q0 -27 -27 -27h-451v-184h191l80 85l114 -85q17 -12 17 -27q0 -27 -28 -27h-374v-182h191l80 81l114 -86q17 -13 17 -27q0 -26 -28 -26h-374v-206h307l98 102l121 -107q17 -15 17 -26q0 -27 -27 -27h-955v-72
q0 -31 -52 -31q-53 0 -53 44q0 4 4 49q6 98 6 105v561q-102 -122 -254 -227l-25 31q138 124 230 277q96 159 128 265zM1023 235h343v206h-343v-206zM1366 499v182h-343v-182h343zM1366 735v184h-343v-184h343z" />
  </g>

</svg>
