<?xml version="1.0" standalone="no"?>
<!DOCTYPE svg PUBLIC "-//W3C//DTD SVG 1.1//EN" "http://www.w3.org/Graphics/SVG/1.1/DTD/svg11.dtd" >
<svg xmlns="http://www.w3.org/2000/svg" xmlns:xlink="http://www.w3.org/1999/xlink" version="1.1" viewBox="0 -120 1000 1000">
  <g transform="matrix(1 0 0 -1 0 880)">
   <path fill="currentColor"
d="M392 447l-280 -227l-4 -22q-2 -14 -13 -14q-9 0 -14 11l-31 76q152 79 333 189zM85 856q72 -32 106 -59q55 -45 55 -99q0 -25 -16 -40q-11 -10 -23 -10q-10 0 -17 8t-11 19l-21 64q-16 44 -78 103zM164 76q191 83 278 196q60 79 84 186q13 58 16 101q5 52 5 148h-79
q-69 -153 -156 -253l-17 9q74 117 122 261q41 134 51 238l105 -22q15 -3 15 -17q0 -9 -14 -14l-33 -9q-19 -59 -38 -110q-11 -30 -20 -54h340l26 41l90 -64q11 -8 11 -16q0 -10 -16 -11l-38 -3q-8 -7 -73 -72q-18 -18 -66 -59l-13 9l79 146h-190q2 -6 2 -7q0 -5 -10 -9
l-11 -5q0 -134 35 -218q57 -144 199 -270q49 -41 110 -72l-4 -15q-8 1 -12 1q-17 0 -38 -13q-19 -12 -29 -30q-59 44 -134 140q-68 88 -99 178q-14 41 -42 143q-18 -122 -42 -179q-83 -197 -385 -293z" />
  </g>

</svg>
