<?xml version="1.0" standalone="no"?>
<!DOCTYPE svg PUBLIC "-//W3C//DTD SVG 1.1//EN" "http://www.w3.org/Graphics/SVG/1.1/DTD/svg11.dtd" >
<svg xmlns="http://www.w3.org/2000/svg" xmlns:xlink="http://www.w3.org/1999/xlink" version="1.1" viewBox="0 -120 1000 1000">
  <g transform="matrix(1 0 0 -1 0 880)">
   <path fill="currentColor"
d="M190 303q-44 -70 -84 -114q-18 -19 -60 -54l-14 16q94 90 144 259h-88l-11 28h113v82h-133l-11 28h144v85h-98l-13 27h111v73h-130l-10 27h140v98q-83 -29 -118 -37l-8 18q44 17 68 28q100 54 136 82l45 -27q15 -9 15 -17t-15 -8h-26l-65 -27l35 -6q23 -5 23 -14
q0 -7 -10 -11l-17 -6v-73h62v112l34 -6q65 46 104 88l50 -32q10 -6 10 -13q0 -9 -17 -11l-28 -1l-82 -39l13 -3q9 -2 9 -10q0 -7 -20 -14l-12 -5v-66h77l40 52l83 -58v-21h-200v-73h68l21 33l58 -41q10 -7 10 -13q0 -7 -11 -9l-16 -4v-78h26l38 50l72 -57v-21h-136v-131
l-59 -11v32h-71v-333l-61 -13v346h-62v-338l-63 -12v243zM253 520v-82h62v82h-62zM253 633v-85h62v85h-62zM253 660h62v73h-62v-73zM376 520v-82h71v82h-71zM376 548h71v85h-71v-85zM397 340q56 -23 85 -48q47 -41 47 -80q0 -32 -27 -32q-11 0 -18 7q-7 6 -34 57
q-23 41 -37 57q-9 10 -27 24zM462 58l-11 18q208 151 219 521v109h-56q-33 -63 -70 -109l-13 12q72 123 108 342l79 -31q11 -4 11 -12q0 -10 -14 -12l-18 -3q-24 -71 -68 -159h200l29 44l65 -51q21 -16 21 -24q0 -11 -16 -11h-33l-95 -139l-16 8q31 78 51 145h-101l3 -109
q5 -134 57 -251q56 -128 160 -221l-6 -17q-9 1 -14 1q-29 0 -54 -33q-75 102 -112 204q-33 91 -47 208q-41 -298 -259 -430z" />
  </g>

</svg>
