<?xml version="1.0" standalone="no"?>
<!DOCTYPE svg PUBLIC "-//W3C//DTD SVG 1.1//EN" "http://www.w3.org/Graphics/SVG/1.1/DTD/svg11.dtd" >
<svg xmlns="http://www.w3.org/2000/svg" xmlns:xlink="http://www.w3.org/1999/xlink" version="1.1" viewBox="0 -204 1024 1024">
  <g transform="matrix(1 0 0 -1 0 820)">
   <path fill="currentColor"
d="M156 946l58 -44h572l32 44q36 -24 53 -43q9 -7 9 -15q0 -9 -36 -30v-168q0 -75 2 -99q2 -28 2 -47q0 -13 -11 -21q-15 -5 -23 -5q-18 0 -18 12v24h-588v-24q0 -12 -22 -12q-8 0 -20 5q-10 8 -10 21q0 19 2 47q6 24 6 99v186q0 39 -8 70zM208 580h270v136h-270v-136z
M526 580h270v136h-270v-136zM208 744h270v128h-270v-128zM526 872v-128h270v128h-270zM164 514q55 -9 93 -23q13 -4 13 -13t-13 -14q-17 -10 -43 -12v-102h162l44 44q32 -25 59 -46q7 -5 7 -12q0 -16 -12 -16h-260v-219q32 6 57 15q45 15 101 38q53 25 124 64l4 -22
q-58 -42 -102 -65q-47 -29 -89 -50q-39 -20 -83 -35q-10 -36 -14 -36q-8 0 -48 80q3 1 4 1v343q0 53 -4 80zM830 398q32 -25 62 -46q6 -5 6 -10q0 -18 -10 -18h-296v-200q0 -7 4 -14q1 -6 10 -9q7 -4 24 -7q25 -4 72 -4h72q51 0 76 3q15 4 32 7q14 4 18 12q7 8 11 26
q11 42 21 142l18 -6q-3 -50 -4 -126q0 -28 7 -34q29 -10 29 -28q0 -9 -3 -14q-5 -6 -23 -11q-18 -8 -52 -12q-37 -3 -130 -3h-72q-62 0 -91 6q-23 3 -41 10q-13 10 -18 24q-4 13 -4 22v352q0 28 -12 58q51 -6 89 -18q11 -3 11 -12q1 -7 -13 -14q-19 -11 -31 -14v-106h194z
" />
  </g>

</svg>
