<?xml version="1.0" standalone="no"?>
<!DOCTYPE svg PUBLIC "-//W3C//DTD SVG 1.1//EN" "http://www.w3.org/Graphics/SVG/1.1/DTD/svg11.dtd" >
<svg xmlns="http://www.w3.org/2000/svg" xmlns:xlink="http://www.w3.org/1999/xlink" version="1.1" viewBox="0 -120 1000 1000">
  <g transform="matrix(1 0 0 -1 0 880)">
   <path fill="currentColor"
d="M27 543q124 81 207 179h-178l-7 27h265q-4 6 -7 10q-44 60 -113 86l6 15q37 -4 43 -5q36 -5 75 -22l43 54h-257l-9 26l279 1l26 37l76 -46q8 -5 8 -12q0 -9 -14 -11l-37 -5l-92 -61q17 -27 17 -43q0 -12 -12 -23l92 -1l32 34l75 -50q8 -5 8 -15q0 -12 -12 -13l-46 -4
l-104 -76l-8 7l55 90h-87v-148q0 -21 -19 -39q-19 -17 -50 -17q-11 0 -12 16q-1 15 -15 19l-55 17v14h94l-1 110q-77 -60 -117 -86q-73 -47 -141 -79zM76 58v475l76 -35h299l28 43l68 -46q10 -7 10 -14q0 -9 -12 -13l-21 -8l3 -345q0 -26 -27 -41q-29 -16 -54 -16q-6 0 -9 3
q-1 1 -2 21q-1 16 -14 20l-41 14v15h87v342h-92v-63q0 -10 8 -10l21 -1q5 0 11 18l6 20h12l2 -19q2 -16 5 -20t11 -8q-4 -24 -16 -33q-7 -6 -34 -6h-3l-49 1q-26 0 -26 37v84h-62q-18 -71 -42 -103q-26 -35 -64 -63l-13 11q56 70 61 155h-69v-404zM197 112v217l55 -27h74
l23 34l55 -39q5 -4 5 -10q0 -7 -8 -10l-12 -6v-125l-54 -8v26h-85v-41zM250 188h85v90h-85v-90zM520 612l144 20v176q-61 -12 -125 -20l-7 15q95 25 183 63q86 38 136 71l71 -51q6 -4 6 -10q0 -10 -15 -10h-39q-70 -23 -148 -42v-184l95 14l42 70l93 -61v-17l-230 -32v-192
l99 15l43 71l90 -58l2 -20l-234 -34v-241q0 -15 7 -18q5 -3 25 -3h84q34 0 47 36l33 95l18 -1l-11 -89v-6q-2 -33 35 -42q-9 -26 -22 -34q-23 -15 -61 -16l-170 -1q-26 0 -37 12q-10 11 -10 38v260l-108 -15l-12 24l120 18v192l-128 -17z" />
  </g>

</svg>
