<?xml version="1.0" standalone="no"?>
<!DOCTYPE svg PUBLIC "-//W3C//DTD SVG 1.1//EN" "http://www.w3.org/Graphics/SVG/1.1/DTD/svg11.dtd" >
<svg xmlns="http://www.w3.org/2000/svg" xmlns:xlink="http://www.w3.org/1999/xlink" version="1.1" viewBox="0 -204 1024 1024">
  <g transform="matrix(1 0 0 -1 0 820)">
   <path fill="currentColor"
d="M124 938q60 -26 96 -54q33 -20 47 -42q13 -13 13 -28q0 -32 -24 -32q-9 0 -17 4q-9 3 -18 20q-19 38 -43 63q-24 26 -66 51zM50 694q67 -27 104 -52q32 -23 50 -43q10 -16 10 -29q0 -34 -24 -34q-9 0 -18 5q-6 4 -15 22q-23 38 -46 60q-26 28 -71 53zM266 460l8 -14
q-31 -78 -73 -162q-42 -89 -89 -172q-7 -48 -14 -48t-58 74q57 58 124 155q64 97 102 167zM328 872q43 -10 114 -10h410l50 58q40 -30 77 -57q7 -6 7 -15q0 -16 -14 -16h-252v-716q0 -34 -19 -51q-15 -15 -42 -26q-22 -11 -39 -11l-3 14q-3 14 -13 20q-13 12 -51 23
q-41 10 -93 13v22q84 -16 150 -16q37 0 47 7q15 6 15 31v690h-230q-69 -1 -96 -2z" />
  </g>

</svg>
