<?xml version="1.0" standalone="no"?>
<!DOCTYPE svg PUBLIC "-//W3C//DTD SVG 1.1//EN" "http://www.w3.org/Graphics/SVG/1.1/DTD/svg11.dtd" >
<svg xmlns="http://www.w3.org/2000/svg" xmlns:xlink="http://www.w3.org/1999/xlink" version="1.1" viewBox="0 -140 1000 1000">
  <g transform="matrix(1 0 0 -1 0 860)">
   <path fill="currentColor"
d="M402 907l71 -35h357l31 28h14l61 -44v-16l-33 -22l1 -712l-8 -10l-48 -11l-9 8v44h-374v-47l-5 -12l-52 -12l-8 5zM465 160h374v345h-374v-345zM465 528h374v321h-374v-321zM193 416l171 484l15 -6l-152 -571q-11 -42 -11 -72q0 -27 17 -78q12 -35 12 -58
q0 -20 -13.5 -35t-31.5 -15q-17 0 -28.5 17t-11.5 41q0 7 3 33q4 31 4 59t-6 47t-20 29.5t-25.5 15t-35.5 10.5l3 17q1 0 16.5 -1.5t17.5 -1.5q27 0 43 17.5t33 67.5zM56 661l5 13q10 -4 56 -18q93 -28 93 -85q0 -14 -8 -26t-18 -12q-5 0 -32.5 28.5t-58 61.5t-37.5 38z
M116 913l6 11q36 -10 56 -17.5t43.5 -20t34.5 -29t11 -38.5q0 -40 -22 -40t-45 44q-20 37 -84 90z" />
  </g>

</svg>
