<?xml version="1.0" standalone="no"?>
<!DOCTYPE svg PUBLIC "-//W3C//DTD SVG 1.1//EN" "http://www.w3.org/Graphics/SVG/1.1/DTD/svg11.dtd" >
<svg xmlns="http://www.w3.org/2000/svg" xmlns:xlink="http://www.w3.org/1999/xlink" version="1.1" viewBox="0 -204 1024 1024">
  <g transform="matrix(1 0 0 -1 0 820)">
   <path fill="currentColor"
d="M128 938q70 -26 110 -54q34 -20 53 -42q11 -13 11 -28q0 -32 -22 -32q-12 0 -21 4q-7 3 -17 20q-25 38 -52 63q-26 26 -74 51zM50 694q72 -27 112 -52q36 -23 52 -43q12 -16 12 -29q0 -34 -22 -34q-11 0 -21 5q-9 4 -17 22q-25 38 -50 60q-29 28 -76 53zM302 460l8 -14
q-40 -82 -91 -170q-50 -91 -107 -178q-7 -48 -14 -48t-58 70q68 64 142 165q76 101 120 175zM390 902l47 -30q46 2 98 7q61 6 118 18q63 11 107 21q43 10 70 24q24 9 46 18q34 -20 62 -44q4 -2 4 -6q0 -12 -10 -12q-14 0 -36 4q-66 -15 -132 -26q-82 -10 -168 -17
q-62 -5 -152 -10l-2 -13v-200h376l44 40q36 -26 61 -49q9 -6 9 -13t-18 -16q-17 -12 -38 -18q-50 -137 -93 -217q-40 -78 -76 -121l-1 -1q37 -45 109 -83q72 -43 167 -82l-2 -12q-43 0 -56 -22q-89 39 -141 75q-55 43 -102 92q-2 4 -3 5q-33 -32 -66 -59q-55 -44 -110 -74
q-61 -33 -134 -57l-10 18q97 38 139 69q42 29 102 77q28 26 53 54q-29 39 -57 84q-40 62 -59 124q-28 76 -31 160h-64q-2 -72 -9 -132q-5 -76 -21 -156q-16 -62 -39 -118q-23 -49 -57 -93q-27 -39 -79 -79l-14 10q36 32 63 74q24 36 43 77q19 46 32 108q18 69 24 143
q10 95 10 216q1 152 -4 242zM528 610q12 -84 34 -152q23 -61 62 -120q19 -32 53 -66q8 10 17 21q35 55 71 135q37 74 61 182h-298z" />
  </g>

</svg>
