<?xml version="1.0" standalone="no"?>
<!DOCTYPE svg PUBLIC "-//W3C//DTD SVG 1.1//EN" "http://www.w3.org/Graphics/SVG/1.1/DTD/svg11.dtd" >
<svg xmlns="http://www.w3.org/2000/svg" xmlns:xlink="http://www.w3.org/1999/xlink" version="1.1" viewBox="0 -410 2048 2048">
  <g transform="matrix(1 0 0 -1 0 1638)">
   <path fill="currentColor"
d="M771 1738l-39 88q120 -20 188 -20h829l68 75l84 -55q40 -27 40 -48q0 -28 -77 -61v-1440q0 -142 -158 -171q-2 66 -37 90t-166 47l9 46q166 -28 200 -28q57 0 57 58v1430h-849q-67 0 -149 -11zM734 1356l-39 86q127 -16 187 -16h484l89 103l119 -103q29 -25 29 -41
q0 -18 -33 -18h-688q-68 0 -148 -11zM802 1141l121 -64h418l68 76l84 -54q40 -26 40 -49q0 -27 -78 -61v-339l48 -34q26 -18 26 -33q0 -21 -26 -21h-606v-86q0 -40 -57 -40q-50 0 -50 47l12 203v455zM897 620h464v399h-464v-399zM558 906l37 -20q-128 -314 -338 -648l10 -44
q3 -14 3 -27q0 -23 -18 -23q-19 0 -64 50l-74 80q135 131 229 271q116 171 215 361zM123 1418q342 -151 342 -256q0 -54 -48 -54q-35 0 -79 63q-56 80 -113 128q-37 29 -123 84zM252 1907q110 -40 210 -104q116 -73 116 -146q0 -20 -15 -36q-16 -16 -35 -16q-35 0 -79 72
q-58 95 -214 195z" />
  </g>

</svg>
