<?xml version="1.0" standalone="no"?>
<!DOCTYPE svg PUBLIC "-//W3C//DTD SVG 1.1//EN" "http://www.w3.org/Graphics/SVG/1.1/DTD/svg11.dtd" >
<svg xmlns="http://www.w3.org/2000/svg" xmlns:xlink="http://www.w3.org/1999/xlink" version="1.1" viewBox="0 -140 1000 1000">
  <g transform="matrix(1 0 0 -1 0 860)">
   <path fill="currentColor"
d="M841 867l36 35h18l58 -55v-17l-32 -17v-633q0 -51 -3 -66.5t-15 -27.5q-18 -18 -72 -24l-15 6v25l-95 29l1 15l84 -4q31 -1 41 8.5t10 40.5v662h-434l-5 -758l-49 -18l-10 5v829l75 -35h407zM690 661l27 29h17l52 -47v-14l-22 -15v-292l-6 -10l-46 -14l-8 6v40h-145v-51
l-7 -10l-43 -11l-10 4v410l64 -25h127zM704 639h-145v-273h145v273zM66 668l4 10q62 -16 87.5 -34.5t25.5 -47.5q0 -46 -30 -46q-20 0 -29 36q-13 54 -58 82zM118 897l3 12q72 -13 99.5 -29t27.5 -42q0 -39 -30 -39q-17 0 -31 29q-23 44 -69 69zM309 793l14 -6l-125 -391
q-18 -56 -18 -93q0 -35 25 -94q23 -57 23 -88q0 -23 -15 -41t-34 -18q-20 0 -33.5 21t-13.5 52q0 10 4 60t4 52q0 48 -19.5 76t-65.5 46l4 15q25 -3 34 -3q41 0 58 39z" />
  </g>

</svg>
