<?xml version="1.0" standalone="no"?>
<!DOCTYPE svg PUBLIC "-//W3C//DTD SVG 1.1//EN" "http://www.w3.org/Graphics/SVG/1.1/DTD/svg11.dtd" >
<svg xmlns="http://www.w3.org/2000/svg" xmlns:xlink="http://www.w3.org/1999/xlink" version="1.1" viewBox="0 -200 1000 1000">
  <g transform="matrix(1 0 0 -1 0 800)">
   <path fill="currentColor"
d="M723 852l67 -38l-27 -56v-360q0 -21 5.5 -34t11.5 -13q2 0 3 1l48 29l29 -57v528h-137zM912 2q-8 -8 -11.5 -12t-8 -7t-11.5 -6t-21 -7v149h-359v-119q-11 -8 -25 -16t-30 -12v942l67 -36h336l36 46l62 -63l-35 -36v-823zM501 142h359v161h-81q-60 8 -67 59v490h-117
l62 -35l-22 -50v-58q0 -73 -5 -148t-19 -139t-40.5 -110.5t-69.5 -62.5v-107zM501 252q14 18 32 49t28 88q6 30 10.5 67.5t8 87t5 113.5t1.5 147v48h-85v-21v-579zM167 264q29 47 53.5 110t48.5 135t49 151t55 159l15 -6l-149 -562q-2 -10 -3.5 -28t-3 -40.5t-2 -48
t-0.5 -50.5q0 -26 0.5 -49.5t2.5 -42.5q-15 -14 -22 -17t-15 -3h-8q-20 0 -26 9.5t-6 17.5q0 23 3.5 54t3.5 63q0 23 -3.5 44t-13 37.5t-26 27.5t-42.5 14v18q14 -2 25.5 -3.5t19.5 -1.5q13 0 23.5 2.5t20.5 9.5zM177 512l-2 -1q-14 0 -22 12t-19.5 32.5t-30.5 47t-55 55.5
l4 13q21 -6 47.5 -17t50.5 -24t40.5 -27t18.5 -27q2 -6 2 -15q0 -16 -8.5 -31.5t-25.5 -17.5zM261 789q-8 -2 -7 -2q-11 0 -19.5 12t-22 31.5t-35.5 44t-58 48.5l3 12q23 -6 49.5 -13.5t50 -17.5t41.5 -22.5t24 -28.5q4 -9 4 -22q0 -15 -6 -29t-20 -14h-2z" />
  </g>

</svg>
