<?xml version="1.0" standalone="no"?>
<!DOCTYPE svg PUBLIC "-//W3C//DTD SVG 1.1//EN" "http://www.w3.org/Graphics/SVG/1.1/DTD/svg11.dtd" >
<svg xmlns="http://www.w3.org/2000/svg" xmlns:xlink="http://www.w3.org/1999/xlink" version="1.1" viewBox="0 -140 1000 1000">
  <g transform="matrix(1 0 0 -1 0 860)">
   <path fill="currentColor"
d="M421 699v-180h161v198q-110 -17 -161 -18zM582 749v159l103 -11v-15l-39 -15v-103q93 31 181 85l52 -66l-9 -9l-31 7q-82 -37 -193 -58v-204h198l31 33h14l55 -53v-14l-25 -16v-78q0 -120 -22 -169t-82 -64l-13 5l-2 35l-81 31l2 15l70 -6q41 -5 52 32q14 47 13 116
l-1 111h-209l-1 -410l-8 -9l-46 -13l-9 7v327q-123 -166 -311 -281l-9 11q89 68 167 165t130 203h-138v-48l-11 -7l-43 -9l-9 6v306q35 -24 57 -28q70 11 167 32zM64 669l6 13q115 -34 115 -85q0 -39 -24 -39t-38 39q-17 42 -59 72zM118 900l3 13q15 -5 27 -6q98 -19 98 -73
q0 -12 -7.5 -22t-17.5 -10q-19 0 -35 30q-27 47 -68 68zM329 840l14 -6l-158 -477q-7 -20 -7 -53q0 -35 25 -92q21 -50 21 -74q0 -27 -11.5 -48.5t-28.5 -21.5q-48 0 -48 74q0 8 2.5 51t2.5 50q0 53 -19.5 82t-66.5 48l4 15q21 -4 36 -4q40 0 56 40z" />
  </g>

</svg>
