<?xml version="1.0" standalone="no"?>
<!DOCTYPE svg PUBLIC "-//W3C//DTD SVG 1.1//EN" "http://www.w3.org/Graphics/SVG/1.1/DTD/svg11.dtd" >
<svg xmlns="http://www.w3.org/2000/svg" xmlns:xlink="http://www.w3.org/1999/xlink" version="1.1" viewBox="0 -140 1000 1000">
  <g transform="matrix(1 0 0 -1 0 860)">
   <path fill="currentColor"
d="M307 117h530l40 58h15l50 -65v-15h-635v22zM458 717h327l38 37h16l60 -56v-15l-30 -22v-431l-6 -12l-51 -15l-8 7v37h-351q0 -29 -4 -37l-51 -18l-9 6v542zM804 693h-351v-196h351v196zM804 474h-351v-204h351v204zM357 870h470l39 48h13l53 -57v-14h-575v23zM187 419
l146 398l14 -5l-131 -483q-7 -24 -7 -53q0 -43 19 -100q12 -38 12 -59q0 -20 -14 -34.5t-33 -14.5q-15 0 -26.5 17.5t-11.5 40.5q0 8 3 33q4 31 4 59t-6 47t-20 29.5t-25.5 15t-35.5 10.5l3 16q56 0 71.5 11t37.5 72zM57 662l3 14l50 -16q94 -31 94 -86q0 -14 -7.5 -26
t-17.5 -12q-16 0 -41 40q-29 45 -81 86zM111 918l6 9q49 -14 74.5 -23.5t48 -30.5t22.5 -50q0 -16 -8.5 -28t-19.5 -12q-16 0 -39 44q-21 38 -84 91z" />
  </g>

</svg>
