<?xml version="1.0" standalone="no"?>
<!DOCTYPE svg PUBLIC "-//W3C//DTD SVG 1.1//EN" "http://www.w3.org/Graphics/SVG/1.1/DTD/svg11.dtd" >
<svg xmlns="http://www.w3.org/2000/svg" xmlns:xlink="http://www.w3.org/1999/xlink" version="1.1" viewBox="0 -140 1000 1000">
  <g transform="matrix(1 0 0 -1 0 860)">
   <path fill="currentColor"
d="M461 595l-1 202q-44 -7 -128 -10l-1 13q144 29 268 87l52 -65l-14 -11l-28 13q-45 -13 -88 -20v-209h49l39 50h13l43 -59v-14h-144v-85q75 -28 106.5 -52t31.5 -66q0 -15 -8 -27.5t-17 -12.5q-19 0 -30 26q-24 57 -36.5 74t-46.5 44v-383l-7 -8l-46 -13l-7 8v371
q-36 -80 -76 -134.5t-109 -120.5l-10 12q69 90 108 173.5t63 193.5h-116v23h140zM848 904l97 -12v-13l-35 -20v-699q0 -44 -13.5 -61.5t-62.5 -35.5l-16 5l-8 25l-116 36v15l90 -5q38 -2 50.5 6t12.5 35zM708 798l96 -16v-14l-34 -15v-463l-5 -9l-49 -13l-8 7v523zM55 665
l6 13q6 -2 36 -10q101 -26 101 -81q0 -29 -20 -29q-12 0 -20 8t-29 38q-23 32 -74 61zM106 888l4 10q92 -25 123 -45t31 -56q0 -31 -25 -31q-15 0 -41 42q-23 38 -92 80zM70 377l1 17l19 -2q46 0 56 28l159 388l15 -6l-127 -444q-3 -10 -3 -42q0 -49 19 -109q12 -39 12 -61
q0 -28 -14.5 -50t-31.5 -22q-19 0 -32.5 18.5t-13.5 45.5q0 24 9 61q10 41 10 70q0 31 -6 52t-19 32t-23 15t-30 9z" />
  </g>

</svg>
