<?xml version="1.0" standalone="no"?>
<!DOCTYPE svg PUBLIC "-//W3C//DTD SVG 1.1//EN" "http://www.w3.org/Graphics/SVG/1.1/DTD/svg11.dtd" >
<svg xmlns="http://www.w3.org/2000/svg" xmlns:xlink="http://www.w3.org/1999/xlink" version="1.1" viewBox="0 -200 1000 1000">
  <g transform="matrix(1 0 0 -1 0 800)">
   <path fill="currentColor"
d="M206 289q5 5 10.5 16.5t13.5 33.5t20 56l30 85q23 69 55 170t77 248l14 -4l-156 -619q-3 -19 -6 -51.5t-3 -92.5q0 -26 1 -58.5t3 -72.5q-14 -14 -22.5 -17.5t-16.5 -3.5h-9q-18 0 -24 10t-6 19q0 12 2 30t4 37t4 35.5t2 24.5q0 15 -2 31t-10.5 32.5t-25 33.5t-45.5 34
v15h4q11 -2 21 -3.5t20 -1.5q14 0 26 3t19 10zM181 505h-2q-13 0 -23 18t-23 44.5t-32.5 55.5t-51.5 50l5 9q66 -21 107.5 -45t46.5 -59q1 -6 1.5 -11.5t0.5 -10.5q0 -24 -8.5 -37t-20.5 -14zM254 792q-8 38 -33 71t-60 59v10q32 -10 60.5 -20.5t50 -24t34 -30.5t12.5 -40
q0 -8 -3.5 -16.5t-8.5 -16t-11 -12t-12 -4.5q-19 0 -29 24zM576 652l-16 -20l-21 -194h235l17 214h-215zM536 416q-8 -54 -16 -114.5t-16 -114.5h237q0 2 9.5 59.5t21.5 169.5h-236zM512 715l50 -39h213l31 49l70 -57l-35 -40l-14 -189h5l48 43l65 -67h-121l-28 -228h30
l43 43l66 -71l-144 1q-17 -91 -48 -137.5t-79 -57.5q-2 40 -32 57.5t-78 29.5l10 17q25 -11 44.5 -13.5t33.5 -2.5q22 0 37 5.5t25.5 18t17.5 33.5t14 52h-233l-28 -40l-62 49l38 37l28 206h-22l-50 -11l-22 35h98zM785 825l49 45l70 -68h-362l8 23h235zM599 381
q45 -29 68 -52t23 -48q0 -5 -3.5 -13.5t-8.5 -16.5t-12 -14t-14 -6q-8 0 -12.5 12t-10 32t-14.5 45t-27 52zM660 930l-35 -26q-54 -72 -108.5 -139t-108.5 -109l-13 9q37 47 65.5 87t50.5 76.5t38.5 71t29.5 70.5zM623 625q46 -30 71 -52.5t25 -47.5q0 -5 -4 -13.5
t-10 -16.5t-13 -14t-14 -6q-8 0 -12.5 12t-10 32t-14.5 45t-27 52z" />
  </g>

</svg>
