<?xml version="1.0" standalone="no"?>
<!DOCTYPE svg PUBLIC "-//W3C//DTD SVG 1.1//EN" "http://www.w3.org/Graphics/SVG/1.1/DTD/svg11.dtd" >
<svg xmlns="http://www.w3.org/2000/svg" xmlns:xlink="http://www.w3.org/1999/xlink" version="1.1" viewBox="0 -140 1000 1000">
  <g transform="matrix(1 0 0 -1 0 860)">
   <path fill="currentColor"
d="M924 244l-8 -121l34 -19v-12q-37 -34 -105 -34h-90q-53 0 -70 16t-17 66v226h-65q-21 -156 -100 -225.5t-243 -95.5l-5 16q144 39 208.5 112t71.5 193h-57v-39l-5 -11l-52 -11l-7 9v601l65 -30h310l29 32h13l61 -48v-16l-31 -20v-494l-5 -8l-49 -12l-9 5v42h-65v-222
q0 -24 11.5 -28.5t64.5 -4.5q30 0 46 14.5t29 53.5l23 68zM478 720h320v142h-320v-142zM478 555h320v142h-320v-142zM478 388h320v144h-320v-144zM87 315l1 14h36q31 0 54 53l157 377l14 -5l-123 -410q-17 -59 -17 -93q0 -30 13 -91q8 -42 8 -59q0 -57 -43 -57t-43 59
q0 5 9.5 63.5t9.5 64.5q0 57 -37 70zM63 670l6 12q81 -18 111 -36t30 -59q0 -36 -24 -36q-11 0 -35 35q-35 49 -88 84zM125 916l7 10q81 -21 109.5 -39t28.5 -51q0 -44 -20 -44q-19 0 -46 44q-25 39 -79 80z" />
  </g>

</svg>
