<?xml version="1.0" standalone="no"?>
<!DOCTYPE svg PUBLIC "-//W3C//DTD SVG 1.1//EN" "http://www.w3.org/Graphics/SVG/1.1/DTD/svg11.dtd" >
<svg xmlns="http://www.w3.org/2000/svg" xmlns:xlink="http://www.w3.org/1999/xlink" version="1.1" viewBox="0 -204 1024 1024">
  <g transform="matrix(1 0 0 -1 0 820)">
   <path fill="currentColor"
d="M124 938q63 -26 101 -54q33 -20 49 -42q14 -13 14 -28q0 -32 -26 -32q-8 0 -16 4q-8 3 -18 20q-21 38 -47 63q-24 26 -69 51zM46 694q70 -28 109 -54q34 -24 52 -46q11 -15 11 -28q0 -34 -22 -34q-12 0 -21 5q-6 4 -16 23q-24 39 -48 62q-28 28 -75 54zM270 464l10 -16
q-34 -77 -77 -162q-43 -90 -91 -174q-7 -48 -14 -48t-58 74q58 59 126 157q65 98 104 169zM368 946l58 -44h352l32 44q38 -24 53 -43q7 -7 7 -15q0 -9 -34 -30v-358q0 -73 2 -97q2 -29 2 -45q0 -14 -12 -24q-14 -6 -20 -6q-22 0 -22 14v34h-92v-260q0 -12 7 -21
q7 -10 23 -15q19 -4 78 -4q44 0 81 4q13 1 21 11q7 7 11 23q9 26 17 116l14 -4v-92q0 -19 6 -28q10 -11 24 -18q6 -6 6 -16q0 -3 -2 -10q-7 -8 -26 -14q-19 -9 -58 -11q-43 -5 -77 -5q-62 0 -93 4q-30 1 -45 11q-17 6 -28 18q-7 14 -7 25v286h-96q-7 -63 -21 -101
q-13 -38 -34 -71q-26 -41 -60 -69q-35 -30 -87 -59q-54 -28 -134 -56l-6 22q73 26 116 55q41 20 71 51q31 29 54 60q19 33 28 69q12 40 21 99h-78v-52q0 -10 -22 -10q-8 0 -20 4q-10 8 -10 24q0 17 2 46q6 22 6 98v390q0 39 -8 70zM420 404h366v140h-366v-140zM420 574h366
v138h-366v-138zM420 742h366v130h-366v-130z" />
  </g>

</svg>
