<?xml version="1.0" standalone="no"?>
<!DOCTYPE svg PUBLIC "-//W3C//DTD SVG 1.1//EN" "http://www.w3.org/Graphics/SVG/1.1/DTD/svg11.dtd" >
<svg xmlns="http://www.w3.org/2000/svg" xmlns:xlink="http://www.w3.org/1999/xlink" version="1.1" viewBox="0 -204 1024 1024">
  <g transform="matrix(1 0 0 -1 0 820)">
   <path fill="currentColor"
d="M124 938q60 -26 96 -54q33 -20 47 -42q13 -13 13 -28q0 -32 -24 -32q-9 0 -17 4q-9 3 -18 20q-19 38 -43 63q-24 26 -66 51zM50 694q67 -27 104 -52q32 -23 50 -43q10 -16 10 -29q0 -34 -24 -34q-9 0 -18 5q-6 4 -15 22q-23 38 -46 60q-26 28 -71 53zM258 460l8 -14
q-30 -78 -69 -162q-40 -89 -85 -172q-7 -48 -14 -48t-58 74q55 58 120 155q61 97 98 167zM822 972q38 -14 60 -28q10 -6 10 -16q0 -8 -44 -8q-50 -39 -93 -65q-22 -15 -40 -25q10 -3 17 -7q42 -20 78 -39q13 -9 25 -22q10 -11 14 -19q5 -9 5 -23q0 -22 -14 -22q-4 0 -16 5
q-16 16 -52 41q-32 26 -90 56q-7 4 -13 7q-47 -21 -91 -36q-47 -20 -101 -31q-56 -15 -123 -28l-12 18q80 14 128 31q52 19 104 42q28 12 55 25q-38 17 -83 38q-81 37 -156 54l18 22q101 -28 182 -62q45 -14 80 -31q6 6 11 9q51 29 84 57q36 28 57 57zM270 650
q44 -14 116 -14h116q4 10 6 17q16 49 22 91q49 -5 71 -16q13 -3 13 -12q0 -7 -15 -12q-15 -4 -29 -6q-10 -35 -19 -62h311l48 58q38 -30 72 -58q8 -5 8 -12q0 -14 -14 -14h-435q-10 -22 -18 -36q-16 -36 -37 -66h328l34 46q36 -23 51 -43q7 -9 7 -15q0 -8 -40 -32v-348
q0 -34 -13 -51q-11 -15 -34 -26q-17 -11 -33 -11q0 25 -10 34q-9 12 -36 23q-28 10 -64 13v22q65 -16 120 -16q15 0 20 6q6 5 6 28v88h-326v-122q0 -19 2 -28q2 -15 2 -26q0 -30 -30 -30q-24 0 -24 16q0 21 4 51q2 30 2 55v316q-38 -49 -75 -80q-42 -33 -107 -76l-12 18
q53 40 87 75q34 28 62 68q27 36 57 86q14 28 28 61h-106q-70 -1 -94 -4zM496 482v-102h326v102h-326zM496 354v-102h326v102h-326z" />
  </g>

</svg>
