<?xml version="1.0" standalone="no"?>
<!DOCTYPE svg PUBLIC "-//W3C//DTD SVG 1.1//EN" "http://www.w3.org/Graphics/SVG/1.1/DTD/svg11.dtd" >
<svg xmlns="http://www.w3.org/2000/svg" xmlns:xlink="http://www.w3.org/1999/xlink" version="1.1" viewBox="0 -204 1024 1024">
  <g transform="matrix(1 0 0 -1 0 820)">
   <path fill="currentColor"
d="M108 928q62 -23 100 -50q33 -19 48 -41q10 -13 10 -27q0 -32 -18 -32q-10 0 -20 4q-8 4 -15 19q-23 37 -46 61q-28 24 -73 52zM36 682q60 -23 96 -49q33 -18 47 -36q11 -15 11 -27q0 -34 -20 -34q-8 0 -16 4q-9 4 -18 21q-19 33 -45 55q-24 25 -67 48zM222 442l8 -22
q-23 -68 -56 -145q-32 -83 -66 -159q-7 -52 -14 -52q-8 0 -62 78q49 54 103 144q55 88 87 156zM346 854q44 -14 118 -14h128v36q0 54 -4 82q55 -7 94 -23q12 -6 12 -15q0 -7 -12 -11q-18 -9 -42 -11v-58h164l44 48q36 -23 66 -49q10 -5 10 -9q0 -16 -14 -16h-270v-120h222
l44 48q36 -27 69 -49q7 -5 7 -11q0 -18 -10 -18h-248v-48q0 -42 1 -50q3 -12 13 -20q18 -8 42 -12q34 -4 73 -4q20 0 48 3q19 3 29 10q7 5 8 5q19 0 32 -8q12 -9 12 -22q0 -7 -1 -13q-2 -4 -13 -8q-18 -5 -50 -8q-38 -3 -62 -3q-47 0 -95 7q-46 5 -61 18q-10 5 -16 17
q-4 10 -7 30q-1 16 -1 62v44h-135q-5 -30 -16 -52q-10 -32 -29 -55q-21 -28 -44 -51q-26 -20 -62 -37q-39 -21 -92 -35l-14 18q53 22 84 39q29 20 52 40q18 17 34 39q15 20 23 48q6 22 11 46h-80q-71 -1 -98 -4l-18 44q43 -10 116 -10h184v120h-128q-72 -1 -96 -4zM536 518
q96 -21 96 -36q0 -16 -58 -18q-22 -37 -46 -66h236l40 36q42 -25 63 -45q9 -5 9 -13t-18 -15q-14 -7 -36 -11q-64 -86 -111 -129q-30 -27 -65 -48q25 -13 51 -24q55 -21 124 -42q75 -16 169 -31v-14q-39 -4 -54 -34q-92 22 -162 43q-63 21 -115 47q-27 16 -52 30
q-3 -1 -7 -3q-63 -40 -137 -65q-79 -27 -197 -56l-10 18q120 34 179 61q58 19 111 48q15 10 31 22q-8 4 -13 9q-49 40 -80 87q-18 24 -27 49q-26 -23 -49 -40q-53 -36 -106 -60l-10 18q53 37 87 62q31 22 64 63q30 34 58 78q18 33 35 79zM472 334q17 -33 44 -61
q36 -42 81 -74q4 -3 9 -6q15 9 28 21q45 34 81 72q34 40 55 82h-265q-5 -6 -9 -9q-14 -14 -24 -25z" />
  </g>

</svg>
