<?xml version="1.0" standalone="no"?>
<!DOCTYPE svg PUBLIC "-//W3C//DTD SVG 1.1//EN" "http://www.w3.org/Graphics/SVG/1.1/DTD/svg11.dtd" >
<svg xmlns="http://www.w3.org/2000/svg" xmlns:xlink="http://www.w3.org/1999/xlink" version="1.1" viewBox="0 -410 2048 2048">
  <g transform="matrix(1 0 0 -1 0 1638)">
   <path fill="currentColor"
d="M668 1927l115 -72h841l61 84l87 -61q40 -28 40 -49q0 -24 -77 -61v-748q0 -314 65 -536q33 -114 58 -114q26 0 104 270l36 -19q-55 -231 -55 -302q0 -58 21 -119q11 -33 11 -53q0 -32 -36 -32q-43 0 -95 66q-122 155 -165 375q-41 210 -41 451v790h-863v-610l-5 -79
q-21 -409 -88 -606q-56 -165 -150 -281q-47 -58 -137 -136l-28 24q191 220 250 472q59 255 59 606v554q0 45 -8 186zM855 1558q92 -22 230 -22h259l91 96l121 -103q11 -9 11 -24q0 -27 -20 -27h-298v-241h167l56 71l75 -53q35 -25 35 -44q0 -20 -62 -59v-322l48 -38
q9 -7 9 -18q0 -23 -21 -23h-307v-384q21 4 98 15q70 10 139 27q-41 79 -113 158l24 27q130 -96 188 -181q66 -95 66 -150q0 -68 -57 -68q-42 0 -56 68q-11 55 -32 104q-271 -89 -600 -144q-14 -77 -33 -77q-22 0 -41 42l-57 123q144 8 378 40v400h-171v-28q-2 -45 -63 -45
q-43 0 -41 38l3 46v30l3 60v285q0 30 -6 164l128 -64h147v241h-68q-113 0 -192 -8zM982 806h171v373h-171v-373zM1249 1179v-373h177v373h-177zM219 1924q324 -118 324 -247q0 -55 -52 -55q-35 0 -73 64q-66 112 -220 202zM98 1426q340 -130 340 -257q0 -57 -50 -57
q-22 0 -42 16q-10 8 -43 62q-57 94 -227 202zM512 933l33 -21q-127 -337 -316 -669q4 -26 4 -39q0 -61 -21 -61q-17 0 -43 37l-77 107q137 160 223 302q119 197 197 344z" />
  </g>

</svg>
