<?xml version="1.0" standalone="no"?>
<!DOCTYPE svg PUBLIC "-//W3C//DTD SVG 1.1//EN" "http://www.w3.org/Graphics/SVG/1.1/DTD/svg11.dtd" >
<svg xmlns="http://www.w3.org/2000/svg" xmlns:xlink="http://www.w3.org/1999/xlink" version="1.1" viewBox="0 -140 1000 1000">
  <g transform="matrix(1 0 0 -1 0 860)">
   <path fill="currentColor"
d="M422 329l-1 240q-35 -23 -86 -48l-36 -17l-8 12q132 97 202 218l82 -56l-6 -13l-36 3q-6 -6 -36 -35t-32 -31l25 -6h281l28 28q-24 31 -46 100h-158v22h137l28 35h18l48 -41l-1 -14l-37 -10q29 -51 61 -78t104 -61l-2 -13q-29 -13 -53 -41q-11 7 -34 28l-20 -24v-160
l-5 -12l-47 -15l-11 6v26h-49v-229q0 -22 5.5 -26.5t31.5 -4.5l57 1q25 0 35.5 8.5t17.5 31.5l26 91l16 -1l-3 -121l29 -20v-14q-16 -22 -36 -27t-71 -5h-86q-50 0 -66.5 18t-16.5 73v225h-77q-5 -51 -15 -92.5t-30.5 -82.5t-51 -71.5t-76.5 -54.5t-106 -37l-7 12
q119 47 166.5 124t57.5 202h-49l1 -24l-6 -9l-45 -15zM594 819v120l96 -16v-16l-34 -17v-71h174l41 44h12l61 -51v-15h-588v22h238zM484 394h297v180h-297v-180zM67 309l33 -1q23 -1 40.5 17t28.5 53l132 415l13 -3l-109 -496q-6 -28 -6 -54q0 -40 18 -92q13 -36 13 -57
q0 -20 -14 -35.5t-31 -15.5q-18 0 -29.5 15.5t-11.5 39.5q0 7 3 36q4 33 4 62q0 27 -6 45t-20 28.5t-25.5 15t-35.5 10.5zM52 654l6 11q140 -23 140 -87q0 -41 -24 -41q-14 0 -41 36q-31 43 -81 81zM111 902l7 11q143 -35 143 -92q0 -43 -30 -43q-15 0 -28 21q-37 54 -48 67
t-44 36z" />
  </g>

</svg>
