<?xml version="1.0" standalone="no"?>
<!DOCTYPE svg PUBLIC "-//W3C//DTD SVG 1.1//EN" "http://www.w3.org/Graphics/SVG/1.1/DTD/svg11.dtd" >
<svg xmlns="http://www.w3.org/2000/svg" xmlns:xlink="http://www.w3.org/1999/xlink" version="1.1" viewBox="0 -204 1024 1024">
  <g transform="matrix(1 0 0 -1 0 820)">
   <path fill="currentColor"
d="M124 938q60 -26 96 -54q33 -20 47 -42q13 -13 13 -28q0 -32 -24 -32q-9 0 -17 4q-9 3 -18 20q-19 38 -43 63q-24 26 -66 51zM50 694q67 -27 104 -52q32 -23 50 -43q10 -16 10 -29q0 -34 -24 -34q-9 0 -18 5q-6 4 -15 22q-23 38 -46 60q-26 28 -71 53zM244 460l8 -14
q-30 -78 -65 -162q-35 -89 -75 -172q-7 -48 -14 -48t-58 74q51 58 111 155q58 97 93 167zM252 730q43 -14 116 -14h40v160q0 54 -6 82q59 -7 96 -23q14 -6 14 -15q0 -7 -14 -11q-20 -9 -42 -11v-182h30l44 48q36 -23 68 -49q8 -5 8 -11q0 -14 -10 -14h-140v-56
q30 -24 56 -50q28 -25 42 -45q16 -17 25 -31q6 -12 9 -21q4 -10 4 -23q-1 -30 -26 -30q-6 0 -10 5q-4 6 -21 46q-20 39 -40 71q-17 22 -39 51v-491q0 -21 2 -29q2 -19 2 -29q0 -34 -34 -34q-24 0 -24 18q0 20 4 54q2 35 2 60v410q-21 -62 -42 -111q-23 -47 -50 -95
q-25 -43 -64 -94l-12 14q32 56 56 110q22 49 42 107q16 49 30 107q11 46 16 86h-16q-71 -1 -98 -4zM624 920l58 -44h188l32 44q36 -20 53 -42q9 -6 9 -12q0 -10 -36 -34v-614q0 -75 2 -99q2 -28 2 -47q0 -12 -11 -21q-15 -5 -23 -5q-18 0 -18 12v36h-204v-40q0 -12 -22 -12
q-8 0 -20 5q-10 9 -10 21q0 19 2 47q6 24 6 99v640q0 37 -8 66zM676 120h204v234h-204v-234zM676 380h204v222h-204v-222zM676 628h204v220h-204v-220z" />
  </g>

</svg>
