<?xml version="1.0" standalone="no"?>
<!DOCTYPE svg PUBLIC "-//W3C//DTD SVG 1.1//EN" "http://www.w3.org/Graphics/SVG/1.1/DTD/svg11.dtd" >
<svg xmlns="http://www.w3.org/2000/svg" xmlns:xlink="http://www.w3.org/1999/xlink" version="1.1" viewBox="0 -410 2048 2048">
  <g transform="matrix(1 0 0 -1 0 1638)">
   <path fill="currentColor"
d="M1298 295q169 13 375 33q18 2 65 5q-61 89 -137 164l26 21q83 -50 163 -123q127 -115 127 -192q0 -61 -49 -61q-30 0 -61 72q-15 35 -43 81q-64 -13 -413 -66q-214 -32 -346 -45q-158 -16 -207 -23q-17 -73 -38 -73q-18 0 -32 35l-56 134q271 11 528 30v272h-337v-62
q0 -30 -53 -30q-54 0 -54 44q0 4 4 49q7 97 7 104v355l120 -61h313v73q-2 114 -8 159l155 -29q61 -12 61 -40q0 -23 -61 -41l-49 -16v-106h334l57 70l68 -42q43 -27 43 -50t-62 -58v-241l44 -35q10 -8 10 -18q0 -25 -28 -25h-466v-264zM863 617h337v283h-337v-283zM1298 900
v-283h345v283h-345zM1347 1356q279 -104 631 -135v-36q-54 -4 -77 -17q-27 -14 -45 -62q-353 79 -586 189q-139 -83 -299 -137q-123 -41 -383 -92l-9 40q385 95 608 232q-288 161 -432 373l39 24q187 -223 470 -345q230 177 352 412h-654q-49 1 -68 1q-72 0 -124 -7l-34 80
q85 -17 226 -17h654l76 81l101 -81q32 -25 32 -45q0 -24 -32 -29l-75 -13q-144 -239 -371 -416zM664 1497q217 -74 217 -160q0 -50 -42 -50q-26 0 -62 55q-40 59 -139 123zM1088 1715q209 -60 209 -146q0 -49 -40 -49q-29 0 -77 70q-35 50 -114 90zM232 1920
q318 -121 318 -247q0 -56 -51 -56q-34 0 -71 64q-64 113 -217 203zM113 1422q334 -131 334 -257q0 -57 -49 -57q-22 0 -41 16q-11 9 -43 63q-56 93 -223 201zM530 929l33 -22q-21 -63 -148 -343q-62 -137 -169 -325q4 -26 4 -39q0 -61 -22 -61q-17 0 -43 37l-77 107
q212 248 422 646z" />
  </g>

</svg>
