<?xml version="1.0" standalone="no"?>
<!DOCTYPE svg PUBLIC "-//W3C//DTD SVG 1.1//EN" "http://www.w3.org/Graphics/SVG/1.1/DTD/svg11.dtd" >
<svg xmlns="http://www.w3.org/2000/svg" xmlns:xlink="http://www.w3.org/1999/xlink" version="1.1" viewBox="0 -410 2048 2048">
  <g transform="matrix(1 0 0 -1 0 1638)">
   <path fill="currentColor"
d="M1212 1410l101 -52q18 -9 18 -23q0 -23 -29 -24l-57 -4q-122 -124 -361 -265q74 1 242 10q165 5 224 9q112 107 174 186l125 -74q21 -13 21 -30q0 -10 -13.5 -19t-26.5 -7h-4l-53 4q-18 -14 -85 -72q-202 -173 -585 -330q194 16 367 26q225 12 397 32q-41 41 -153 126
l24 33q330 -168 330 -264q0 -61 -42 -61q-29 0 -64 48q-30 41 -58 74q-135 -21 -176 -26q-141 -16 -186 -23v-463q0 -94 -157 -132q-7 67 -58 87q-83 32 -171 45l5 50q33 -4 49 -7q69 -9 87 -12q57 -9 79 -9q69 0 69 55v371q-3 0 -376 -45q-17 -72 -36 -72q-14 0 -36 46
l-53 110q190 60 530 288q-110 -13 -185 -22q-143 -19 -212 -27q-1 -72 -25 -72q-22 0 -48 53l-52 107q91 32 225 145q120 100 208 230h-453q-16 -277 -124 -277q-50 0 -50 47q0 21 69 113q51 69 67 251h38v-80h489v195h-304q-117 0 -192 -8l-42 88q90 -27 234 -27h304v65
q-1 85 -9 162l126 -23q87 -16 87 -48t-55 -40l-53 -9v-107h382l96 116l138 -116q20 -17 20 -31q0 -22 -28 -22h-608v-195h491l57 72l87 -60q39 -27 39 -50q0 -28 -77 -50q-30 -37 -76 -102q-35 -49 -76 -95l-35 22q41 79 88 209h-603zM964 555l97 -47q45 -22 45 -43
q0 -23 -66 -23h-30q-137 -118 -240 -173q-96 -51 -219 -93l-16 35q141 69 241 145q88 67 188 199zM1470 549q30 -12 139 -53q143 -53 265 -149q73 -57 73 -111q0 -50 -44 -50q-24 0 -102 78q-109 110 -346 250zM216 1912q331 -118 331 -252q0 -48 -51 -48q-39 0 -75 62
q-64 110 -227 203zM108 1414q169 -63 258 -131q90 -69 90 -126t-52 -57q-22 0 -42 16q-11 8 -45 63q-58 94 -232 201zM539 922l34 -22q-25 -67 -157 -341q-69 -144 -178 -324q4 -26 4 -38q0 -62 -22 -62q-17 0 -44 38l-79 107q125 137 223 281q73 108 219 361z" />
  </g>

</svg>
