<?xml version="1.0" standalone="no"?>
<!DOCTYPE svg PUBLIC "-//W3C//DTD SVG 1.1//EN" "http://www.w3.org/Graphics/SVG/1.1/DTD/svg11.dtd" >
<svg xmlns="http://www.w3.org/2000/svg" xmlns:xlink="http://www.w3.org/1999/xlink" version="1.1" viewBox="0 -140 1000 1000">
  <g transform="matrix(1 0 0 -1 0 860)">
   <path fill="currentColor"
d="M827 903v-13l-33 -16v-65h55l36 46h14l49 -51v-17h-154v-139l-9 -10l-45 -9l-10 4v39h-68v-99h144l34 35h14l55 -47v-16l-26 -15v-130l-5 -5l-51 -11l-8 4v34h-157v-97h151l34 52h13l48 -60v-15h-246v-93h107l40 53h14l50 -63v-13h-211v-97h173l38 55h14l49 -61v-16h-632
v22h294v97h-227v23h227v93h-254v23h254v97h-160v-36l-9 -9l-44 -9l-10 5v227l73 -27h150v99h-66v-29l-11 -9l-40 -11l-12 6l-1 158h-116v22h116v112l99 -14v-12l-35 -14v-72h198v110zM730 787h-198v-93h198v93zM598 551h-160v-106h160v106zM819 551h-157v-106h157v106z
M124 870l5 9q81 -19 106.5 -35.5t25.5 -48.5q0 -37 -24 -37q-19 0 -32 28q-24 46 -81 84zM336 865l13 -5l-135 -517q-8 -34 -8 -77q0 -35 17 -95q12 -41 12 -59q0 -28 -13.5 -49t-31.5 -21q-17 0 -31.5 19t-14.5 42q0 19 10 56t10 64q0 75 -96 87l1 18q49 0 64 7t28 43z
M70 634l7 8q73 -31 94.5 -50t21.5 -46q0 -17 -8 -29.5t-19 -12.5q-19 0 -30 33q-15 49 -66 97z" />
  </g>

</svg>
