<?xml version="1.0" standalone="no"?>
<!DOCTYPE svg PUBLIC "-//W3C//DTD SVG 1.1//EN" "http://www.w3.org/Graphics/SVG/1.1/DTD/svg11.dtd" >
<svg xmlns="http://www.w3.org/2000/svg" xmlns:xlink="http://www.w3.org/1999/xlink" version="1.1" viewBox="0 -120 1000 1000">
  <g transform="matrix(1 0 0 -1 0 880)">
   <path fill="currentColor"
d="M318 762l-123 -380q-12 -37 -12 -60q0 -20 6 -47q2 -10 26 -99q4 -13 4 -32q0 -43 -20 -60q-15 -12 -33 -12q-13 0 -20 6q-15 16 -15 45q0 11 6 52q2 19 2 38q0 49 -10 82q-10 36 -47 41l-31 4v24h75l176 406zM56 698q7 1 8 1q28 0 68 -21q55 -30 55 -69q0 -18 -13 -31
q-7 -7 -18 -7q-12 0 -16 4q-8 7 -20 38q-13 30 -69 73zM108 926q58 -1 111 -34q40 -26 40 -57q0 -18 -12 -28t-25 -10q-9 0 -17 9q-3 3 -31 46q-17 27 -70 61zM316 808l-12 28h196v127l73 -10q22 -3 22 -12q0 -11 -14 -15l-23 -6v-84h109v127l70 -7q23 -2 23 -17
q0 -10 -17 -15l-17 -4v-84h115l45 49l76 -55v-22h-236v-82h110l23 33l59 -39q19 -13 19 -18q0 -9 -18 -16l-17 -7v-248l-61 -9v40h-446v-36l-57 -13v341l78 -28h84v82h-184zM395 581v-91h105v91h-105zM395 698v-89h105v89h-105zM558 581v-91h109v91h-109zM558 698v-89h109
v89h-109zM558 808v-82h109v82h-109zM726 581v-91h115v91h-115zM726 698v-89h115v89h-115zM400 63v351l60 -26h318l21 35l71 -38q19 -10 19 -18t-15 -15l-24 -12v-254l-62 -11v38h-328v-38zM460 240v-99h328v99h-328zM460 268h328v92h-328v-92z" />
  </g>

</svg>
