<?xml version="1.0" standalone="no"?>
<!DOCTYPE svg PUBLIC "-//W3C//DTD SVG 1.1//EN" "http://www.w3.org/Graphics/SVG/1.1/DTD/svg11.dtd" >
<svg xmlns="http://www.w3.org/2000/svg" xmlns:xlink="http://www.w3.org/1999/xlink" version="1.1" viewBox="0 -120 1000 1000">
  <g transform="matrix(1 0 0 -1 0 880)">
   <path fill="currentColor"
d="M349 805l-151 -457q-4 -12 -4 -23q0 -33 28 -146q7 -30 7 -51q0 -28 -19 -46q-13 -12 -32 -12q-16 0 -24 10q-12 12 -12 32q0 11 7 57q3 18 3 35q0 45 -13 84q-11 36 -44 47q-15 6 -44 9v20h86l191 449zM56 718q62 -13 103 -44q36 -27 36 -60q0 -18 -12 -29q-9 -8 -21 -8
q-18 0 -35 31q-24 46 -42 64q-10 10 -34 30zM129 937q68 -17 105 -42q41 -29 41 -63q0 -21 -13 -33q-9 -8 -20 -8q-15 0 -23 13q-2 3 -23 45q-23 44 -71 73zM954 114q-23 -9 -34 -20q-11 -10 -21 -32q-158 40 -269 112q-149 -80 -356 -114l-5 18q96 21 183 58q87 36 134 69
q-86 82 -136 153h-146l-9 28h494l31 33l61 -43q13 -9 13 -17q0 -9 -16 -12l-29 -6q-75 -74 -172 -140q30 -15 75 -28q73 -22 132 -32q50 -9 73 -14zM481 358q9 -18 67 -73q31 -28 77 -56q82 51 148 129h-292zM334 421v235l59 -28h463l19 34l63 -37q14 -9 14 -14
q0 -7 -18 -13l-17 -5v-144l-55 -10v20h-473v-29zM389 487h124v113h-124v-113zM566 600v-113h122v113h-122zM740 600v-113h122v113h-122zM414 655v291l65 -29h292l21 36l63 -40q16 -9 16 -16q0 -8 -16 -12l-14 -4v-201l-61 -12v19h-306v-22zM474 789v-75h306v75h-306z
M474 889v-73h306v73h-306z" />
  </g>

</svg>
