<?xml version="1.0" standalone="no"?>
<!DOCTYPE svg PUBLIC "-//W3C//DTD SVG 1.1//EN" "http://www.w3.org/Graphics/SVG/1.1/DTD/svg11.dtd" >
<svg xmlns="http://www.w3.org/2000/svg" xmlns:xlink="http://www.w3.org/1999/xlink" version="1.1" viewBox="0 -410 2048 2048">
  <g transform="matrix(1 0 0 -1 0 1638)">
   <path fill="currentColor"
d="M1269 837h411l56 73l73 -49q43 -29 43 -50q0 -25 -65 -54v-466q0 -46 7 -95q3 -25 3 -39q0 -55 -81 -55q-28 0 -28 17v54h-836v-44q0 -30 -53 -30q-54 0 -54 44q0 4 5 49q6 94 6 104v607l118 -66h368q-32 7 -32 35v435q-181 -286 -623 -465l-17 40q194 105 319 208
q126 103 216 245h-281q-139 -2 -190 -8l-42 88q121 -25 232 -25h386v363q-248 -19 -526 -28v50q689 31 1031 180l72 -69q42 -40 42 -68q0 -23 -32 -23q-21 0 -47 11l-35 15q-221 -41 -405 -60v-371h405l101 105l137 -105q16 -12 16 -27q0 -28 -29 -28h-630v-60
q199 -43 377 -118q248 -105 248 -198q0 -47 -35 -45q-27 1 -62 27q-293 208 -528 292v-162q0 -55 5 -127q3 -35 3 -51q0 -42 -49 -56zM852 229h366v250h-366v-250zM1314 229h374v250h-374v-250zM852 533h366v248h-366v-248zM1314 781v-248h374v248h-374zM819 1704
q245 -130 245 -222q0 -58 -53 -58q-19 0 -35 16q-12 12 -47 82q-19 40 -100 118q-19 17 -40 34zM1664 1753l118 -68q27 -16 27 -34q0 -27 -107 -27q-118 -118 -277 -186l-23 34q151 109 262 281zM217 1909q323 -118 323 -252q0 -48 -50 -48q-38 0 -73 62q-63 110 -222 202z
M110 1411q341 -131 341 -257q0 -58 -53 -58q-35 0 -78 72q-59 100 -232 209zM491 922l39 -22q-39 -124 -140 -345q-96 -209 -159 -326q4 -24 4 -37q0 -60 -21 -60q-16 0 -41 37l-73 107q200 260 391 646z" />
  </g>

</svg>
