<?xml version="1.0" standalone="no"?>
<!DOCTYPE svg PUBLIC "-//W3C//DTD SVG 1.1//EN" "http://www.w3.org/Graphics/SVG/1.1/DTD/svg11.dtd" >
<svg xmlns="http://www.w3.org/2000/svg" xmlns:xlink="http://www.w3.org/1999/xlink" version="1.1" viewBox="0 -410 2048 2048">
  <g transform="matrix(1 0 0 -1 0 1638)">
   <path fill="currentColor"
d="M1612 1509q86 -51 185 -137q141 -123 141 -208q0 -54 -45 -54q-31 0 -71 76q-74 142 -210 264v-248q0 -92 3 -125q5 -44 5 -69q0 -42 -58 -42q-45 0 -45 46v438q-18 -33 -27 -50q-142 -262 -334 -414l-26 30q92 99 176 234q76 121 144 328q-81 -1 -155 -7l-42 92
q88 -27 234 -27h30v137q0 118 -7 159l106 -24q88 -20 88 -44q0 -30 -49 -43l-43 -11v-174h82l96 94l114 -94q25 -21 25 -33q0 -25 -25 -25h-292v-69zM578 1663q87 -27 170 -27h111v145q-4 144 -7 160l109 -25q86 -18 86 -44q0 -30 -50 -43l-42 -11v-182h53l88 90l105 -90
q23 -20 23 -36q0 -22 -29 -22h-240v-110q140 -80 186 -120q62 -53 62 -98q0 -55 -48 -55q-23 0 -41 21q-5 6 -31 54q-31 57 -128 149v-247q0 -36 6 -141q1 -11 1 -22q0 -48 -56 -48q-47 0 -47 36v453q-76 -152 -175 -271q-36 -42 -155 -152l-23 27q96 117 153 204
q74 114 140 320h-51q-67 -4 -100 -5q-17 -1 -31 -2zM171 1897q121 -48 188 -95q113 -80 113 -152q0 -53 -51 -53q-17 0 -32 11q-13 9 -45 69q-51 95 -193 185zM90 1399q31 -16 117 -57t142 -98q55 -55 55 -102q0 -57 -48 -57q-34 0 -72 72q-55 100 -213 208zM457 868l33 -21
q-37 -120 -130 -324q-88 -196 -148 -307q4 -25 4 -38q0 -62 -19 -62q-18 0 -41 35l-70 110q94 121 143 196q77 121 211 379zM1625 875l58 68l72 -49q43 -30 43 -49q0 -20 -60 -51v-470q4 -36 4 -87l3 -65q0 -53 -64 -53q-39 0 -39 27v86h-809v-82q0 -35 -64 -35
q-38 0 -38 32q0 19 3 52q4 37 4 106v633l111 -63h776zM833 288h809v242h-809v-242zM833 584h809v236h-809v-236z" />
  </g>

</svg>
