<?xml version="1.0" standalone="no"?>
<!DOCTYPE svg PUBLIC "-//W3C//DTD SVG 1.1//EN" "http://www.w3.org/Graphics/SVG/1.1/DTD/svg11.dtd" >
<svg xmlns="http://www.w3.org/2000/svg" xmlns:xlink="http://www.w3.org/1999/xlink" version="1.1" viewBox="0 -140 1000 1000">
  <g transform="matrix(1 0 0 -1 0 860)">
   <path fill="currentColor"
d="M798 622h-159v23h159v282l93 -21v-14l-31 -18v-229h5l29 35h14l49 -42v-16h-97v-450q0 -71 -15 -87.5t-96 -37.5l-13 6v29l-100 49l3 13l104 -18q16 -2 23 -2q32 0 32 48v450zM677 542l15 5q33 -49 45.5 -70.5t24 -51.5t11.5 -59q0 -50 -30 -50q-21 0 -25 43
q-11 100 -41 183zM246 884l13 9q63 -59 82 -87.5t19 -62.5q0 -18 -9.5 -33t-20.5 -15q-22 0 -31 56q-11 66 -53 133zM549 685h48l30 41h12l63 -41v-22h-157l56 -27l-2 -13l-35 -6l-55 -99h67l28 42h14l49 -45v-19h-180v-145h54l35 47h17l58 -51v-18h-164v-154l183 29l5 -15
l-385 -105l-8 -32l-13 -3l-37 87l192 30v163h-159v22h159v145h-155v22h212l38 145h-260v22h113v249l90 -26v-11l-28 -13v-199h40v245l93 -20v-13l-33 -11v-186l82 187l73 -56l-7 -15h-34zM103 927l6 11q30 -7 41.5 -10t33 -11t30.5 -15t16.5 -19t7.5 -27q0 -36 -19 -36
q-17 0 -44 37q-30 40 -72 70zM248 773l16 -4l-82 -421q-15 -76 -15 -101q0 -37 15 -103q8 -37 8 -49q0 -21 -12 -35.5t-30 -14.5q-41 0 -41 57l1 13l8 44q8 46 8 71q0 47 -12.5 64t-60.5 35v15l25 -1q25 0 37.5 10t20.5 37zM42 680l6 10q33 -8 49.5 -13t38.5 -14.5
t31.5 -22.5t9.5 -31q0 -37 -19 -37q-18 0 -44 38q-28 38 -72 70zM336 654l14 6q70 -61 70 -100q0 -14 -8.5 -26t-18.5 -12q-20 0 -26 44q-8 43 -31 88z" />
  </g>

</svg>
