<?xml version="1.0" standalone="no"?>
<!DOCTYPE svg PUBLIC "-//W3C//DTD SVG 1.1//EN" "http://www.w3.org/Graphics/SVG/1.1/DTD/svg11.dtd" >
<svg xmlns="http://www.w3.org/2000/svg" xmlns:xlink="http://www.w3.org/1999/xlink" version="1.1" viewBox="0 -140 1000 1000">
  <g transform="matrix(1 0 0 -1 0 860)">
   <path fill="currentColor"
d="M294 763h39v89l-9 50l67 -27h142l28 37h11l41 -50v-10h-102q-11 -54 -21 -89h51l30 43h12l40 -33l11 -10v89l-8 54l67 -31h150l28 37h11l39 -48v-12h-108q-7 -26 -32 -89h85l31 42h14l37 -52v-12h-127v-54q0 -22 5 -32t12 -11.5t24 -1.5q21 0 30 23l19 48l12 -3v-71
l18 -8v-15q-25 -22 -60 -22h-48q-45 0 -58 12.5t-13 53.5v65q-49 -58 -91 -87.5t-122 -59.5l-8 11q61 33 97 63.5t75 86.5h-183v-73l106 37l4 -14l-177 -94v-21l-15 -5l-30 66l55 14v72q-38 -60 -76.5 -93t-120.5 -76l-7 12q100 71 155 175h-130v24zM392 852v-89h43
q13 43 17 89h-60zM692 852v-89h35q21 56 28 89h-63zM269 539h584l35 49h11l52 -56l-1 -15h-681v22zM741 474l32 31h13l52 -44v-17l-22 -12v-64l-10 -7l-44 -10l-9 4l-1 27h-325v-24l-10 -7l-41 -11l-13 6v159l68 -31h310zM752 452h-325v-48h325v48zM844 332l35 42h14l60 -55
v-15l-30 -21v-121q0 -60 -15 -77.5t-77 -25.5l-11 8l2 20l-74 25l1 16l83 -7q19 0 23 7t4 39v145h-177v-21q0 -21 2.5 -24.5t16.5 -3.5h78q16 0 22.5 7t16.5 34l11 -2l3 -44l10 -8v-13q-24 -11 -62 -11h-103q-38 0 -46.5 7.5t-8.5 38.5v40h-106q-28 -112 -182 -135v-107
l-10 -7l-46 -10l-8 6v298l63 -25h511zM334 312v-122q109 34 120 122h-120zM700 186l30 37h10l38 -46v-14h-177v-95l-6 -10l-49 -7l-9 6v106h-144l-2 23h309zM118 903l5 9q77 -19 104.5 -36t27.5 -48q0 -15 -7 -26.5t-16 -11.5q-20 0 -33 28q-22 44 -81 85zM64 689l10 13
q79 -38 97 -55q21 -19 21 -46q0 -44 -33 -44q-15 0 -21 15q-22 58 -30 70.5t-44 46.5zM282 730l13 -5l-85 -372q-9 -39 -9 -85q0 -44 12 -84q16 -54 16 -74q0 -23 -13.5 -40.5t-31.5 -17.5q-19 0 -31.5 17t-12.5 41q0 23 10 59t10 69q0 73 -96 82l1 18q49 0 64 7t28 43z" />
  </g>

</svg>
