<?xml version="1.0" standalone="no"?>
<!DOCTYPE svg PUBLIC "-//W3C//DTD SVG 1.1//EN" "http://www.w3.org/Graphics/SVG/1.1/DTD/svg11.dtd" >
<svg xmlns="http://www.w3.org/2000/svg" xmlns:xlink="http://www.w3.org/1999/xlink" version="1.1" viewBox="0 -204 1024 1024">
  <g transform="matrix(1 0 0 -1 0 820)">
   <path fill="currentColor"
d="M117 928q58 -23 91 -47q30 -20 45 -39q10 -13 10 -26q0 -32 -23 -32q-8 0 -16 4q-7 4 -15 19q-19 35 -42 56q-23 24 -63 49zM61 696q55 -25 86 -51q29 -20 43 -41q9 -14 9 -28q0 -32 -23 -32q-8 0 -15 5q-7 3 -14 19q-18 38 -39 60q-22 25 -60 52zM255 528l9 -19
q-28 -95 -63 -200q-36 -108 -76 -212q-5 -50 -13 -50q-7 0 -60 73q52 75 111 198q58 119 92 210zM852 910l35 33q51 -36 51 -50q0 -10 -30 -25v-35l23 -18q5 -3 5 -7q0 -14 -10 -14h-562v-158q0 -91 -7 -170q-4 -70 -18 -143q-11 -58 -29 -108q-16 -45 -42 -87
q-22 -35 -62 -72l-14 11q25 31 45 69q18 34 31 71q14 43 24 98q11 64 16 131q8 89 8 200q0 195 -4 312l57 -38h483zM364 882v-60h496v60h-496zM619 778q40 -7 67 -14q9 -3 9 -9q0 -5 -8 -8q-10 -6 -23 -9v-46q0 -19 1 -25q1 -15 1 -25q0 -28 -26 -28q-22 0 -22 15q0 11 3 27
q3 19 3 32v28q0 41 -5 62zM423 770q47 -2 79 -7q35 -5 51 -11q19 -6 24 -14q5 -4 5 -10q0 -22 -18 -22q-3 0 -13 3q-34 14 -71 24q-36 11 -64 14zM594 691v-17q-26 -10 -54 -16q-29 -9 -50 -13l-22 -5q-8 -28 -14 -28q-4 0 -26 62q9 0 34 1q26 2 62 6q35 4 70 10zM861 718
q-30 -9 -69 -14q-35 -5 -74 -6l-10 24q31 1 62 9q29 9 52 22q18 8 34 23q52 -42 52 -54q0 -9 -10 -9q-16 0 -37 5zM711 680q47 -2 78 -7q35 -5 51 -11q18 -6 23 -14q5 -4 5 -10q0 -22 -18 -22q-3 0 -13 3q-34 14 -70 24q-35 11 -63 14zM402 619l63 -30h395l35 33
q51 -36 51 -50q0 -10 -30 -25v-18q0 -23 2 -30q2 -8 2 -16q0 -21 -36 -27q-16 0 -16 10v5h-311q-17 -29 -34 -49h351l37 33q35 -21 54 -39q8 -10 8 -14q0 -12 -38 -27q-6 -100 -18 -170q-14 -71 -26 -105q-14 -30 -30 -44q-17 -17 -37 -28q-17 -8 -28 -8q0 15 -7 24
q-8 11 -89 39l5 21q75 -17 100 -17q12 0 22 5q7 2 14 14q8 12 18 44q9 30 16 90q8 58 12 154h-389q-25 -26 -51 -47q-35 -27 -91 -55l-12 17q46 31 74 56q25 22 46 52q20 24 35 54h-47v-1q0 -10 -12 -16q-15 -6 -25 -6q-13 0 -13 14q0 4 1 14q1 23 1 42v33q0 49 -2 68z
M452 499h104v62h-104v-62zM604 499h108v62h-108v-62zM760 499h108v62h-108v-62zM460 345l58 -27h70q-1 44 -6 68q46 -9 75 -18q11 -4 11 -11q0 -5 -7 -9q-11 -6 -25 -10v-20h75l32 29q47 -33 47 -46q0 -9 -28 -23v-34q10 -7 17 -13q5 -3 5 -7q0 -14 -10 -14h-138v-57h5
l104 11q-14 13 -33 24l13 16q40 -14 63 -29q20 -11 30 -23q7 -8 7 -16q0 -32 -23 -32q-6 0 -11 3q-4 2 -9 12q-8 14 -16 24q-54 -14 -96 -22q-51 -10 -98 -18q-43 -8 -91 -13q-11 -37 -18 -37q-8 0 -49 84q67 3 119 7l55 4v62h-82v-13q0 -10 -11 -15q-14 -6 -23 -6
q-12 0 -12 13q0 3 1 13q1 22 1 39v41q0 45 -2 63zM506 238h82v52h-82v-52zM636 290v-52h72l10 9v43h-82z" />
  </g>

</svg>
