<?xml version="1.0" standalone="no"?>
<!DOCTYPE svg PUBLIC "-//W3C//DTD SVG 1.1//EN" "http://www.w3.org/Graphics/SVG/1.1/DTD/svg11.dtd" >
<svg xmlns="http://www.w3.org/2000/svg" xmlns:xlink="http://www.w3.org/1999/xlink" version="1.1" viewBox="0 -120 1000 1000">
  <g transform="matrix(1 0 0 -1 0 880)">
   <path fill="currentColor"
d="M46 66q58 63 90 132q31 68 43 142q11 68 11 171v434l86 -9q21 -2 21 -14q0 -13 -16 -18l-27 -7l-2 -231q31 29 54 60q9 11 49 67l63 -52q7 -6 7 -12q0 -12 -20 -12l-28 -1q-57 -40 -125 -76v-192q0 -17 -11 -94q66 -24 108 -52q29 -20 42 -49q9 -20 9 -37q0 -38 -32 -38
q-9 0 -15 6q-1 1 -27 50q-26 51 -89 98q-24 -105 -89 -190q-31 -39 -87 -91zM137 704q13 -49 13 -89q0 -77 -34 -108q-16 -15 -37 -15q-15 0 -25 9q-10 10 -10 24t11 29q2 2 26 28q36 37 39 122h17zM335 93l-10 27h269l1 209h-174l-10 28l184 -2v143l84 -9q21 -2 21 -15
q0 -11 -16 -17l-25 -8v-94h114l43 51l72 -57v-21h-229v-209l153 1l54 62l88 -72v-17h-619zM358 554h240v196h-147l-9 25h157v168l76 -8q19 -2 19 -16q0 -12 -13 -16l-20 -7v-121h113l48 57l77 -63v-19h-239v-196h147l49 55l82 -64v-15h-572z" />
  </g>

</svg>
