<?xml version="1.0" standalone="no"?>
<!DOCTYPE svg PUBLIC "-//W3C//DTD SVG 1.1//EN" "http://www.w3.org/Graphics/SVG/1.1/DTD/svg11.dtd" >
<svg xmlns="http://www.w3.org/2000/svg" xmlns:xlink="http://www.w3.org/1999/xlink" version="1.1" viewBox="0 -410 2048 2048">
  <g transform="matrix(1 0 0 -1 0 1638)">
   <path fill="currentColor"
d="M1268 1962l120 -25q75 -16 75 -45q0 -28 -50 -42l-41 -11v-142h366l98 96l128 -96q16 -12 16 -33q0 -22 -27 -22h-581v-214h385l62 72l72 -50q42 -28 42 -49q0 -16 -65 -53v-431q0 -40 7 -104q3 -30 3 -45q0 -48 -66 -48q-40 0 -40 33v40h-370v-244h355l95 94l126 -100
q16 -13 16 -26q0 -26 -22 -26h-570v-154l1 -23q3 -104 7 -130q5 -45 5 -67q0 -59 -67 -59q-25 0 -33 8q-9 11 -9 42v383h-343q-68 0 -149 -11l-39 86q122 -17 188 -17h343v244h-318v-40q0 -30 -54 -30q-60 0 -56 44l4 46l4 61l4 64v554l122 -64h264v374q0 116 -8 160z
M988 849h784v249h-784v-249zM988 1148h784v222h-784v-222zM117 1529q216 -224 216 -352q0 -73 -52 -73q-33 0 -44 53q-18 92 -42 152q-25 65 -107 198zM719 1471q-78 -115 -209 -222q-5 -261 -35 -492q254 -183 254 -291q0 -59 -49 -59q-14 0 -23 8q-14 11 -47 95
q-31 78 -144 194q-94 -364 -339 -594l-29 25q149 192 214 373q48 133 68 245q34 184 34 515v407q0 175 -15 274l106 -19q93 -17 93 -44q0 -22 -39 -37l-49 -19v-517q95 152 159 290l89 -56q58 -36 58 -55q0 -26 -39 -26h-8z" />
  </g>

</svg>
