<?xml version="1.0" standalone="no"?>
<!DOCTYPE svg PUBLIC "-//W3C//DTD SVG 1.1//EN" "http://www.w3.org/Graphics/SVG/1.1/DTD/svg11.dtd" >
<svg xmlns="http://www.w3.org/2000/svg" xmlns:xlink="http://www.w3.org/1999/xlink" version="1.1" viewBox="0 -204 1024 1024">
  <g transform="matrix(1 0 0 -1 0 820)">
   <path fill="currentColor"
d="M54 712q21 -25 34 -53q17 -27 29 -49q11 -25 13 -42q4 -19 4 -36q0 -18 -6 -31q-7 -13 -20 -13q-7 0 -10 7q-4 5 -6 31q-4 32 -11 60q-7 30 -19 58q-8 25 -22 58zM302 708q-14 -21 -35 -43q-15 -17 -34 -33q-12 -10 -21 -17v-17q0 -107 -10 -194q-1 -11 -3 -21
q48 -29 75 -60q28 -25 42 -52q12 -20 12 -39q0 -32 -22 -32q-8 0 -14 6q-7 7 -14 26q-21 46 -41 77q-18 22 -42 47q-10 -53 -21 -95q-16 -63 -46 -118q-32 -57 -78 -107l-14 18q41 54 61 105q23 54 35 112q13 49 24 134q8 89 8 193v205q0 95 -8 135q50 -8 90 -19
q10 -2 10 -9q0 -10 -12 -18q-16 -8 -32 -12v-232q3 4 6 9q14 17 27 40q11 18 19 40q9 19 16 41q74 -47 74 -62q0 -12 -18 -12q-12 0 -34 4zM514 914q40 -8 114 -8h208l40 36q34 -31 59 -62q3 -6 3 -10q0 -6 -16 -10q-31 -2 -38 -2q-38 -29 -77 -55q-28 -17 -50 -29
q14 -10 22 -15q7 -6 12 -12q5 -3 5 -9q0 -16 -5 -22h101l32 44q34 -20 52 -42q6 -8 6 -14q0 -8 -40 -32v-414q0 -34 -10 -53q-10 -15 -30 -25q-14 -10 -26 -10l-4 22q-2 5 -4 9q-7 15 -22 24q-20 9 -42 11v26q35 -18 62 -18q21 0 27 7q5 7 5 29v106h-134v-182q0 -15 -38 -18
q-10 0 -10 14v186h-124v-204q0 -12 -22 -12q-8 0 -20 5q-10 9 -10 21q0 19 2 47q6 24 6 99v352q0 39 -8 66l58 -44h157q-11 10 -23 22q-21 20 -50 39q-27 17 -76 41l14 12q44 -14 76 -31q28 -10 43 -17q27 20 44 40q24 21 47 54h-202q-80 0 -98 -4zM592 412h124v128h-124
v-128zM764 540v-128h134v128h-134zM592 570h124v120h-124v-120zM764 690v-120h134v120h-134zM372 928q21 -16 41 -36q19 -17 31 -31q15 -18 19 -30q5 -10 5 -21q0 -19 -5 -28q-8 -12 -21 -12q-6 0 -10 5q-5 3 -7 19q-5 23 -15 43q-12 22 -24 39q-10 20 -32 40zM302 682
q39 -10 110 -10l34 30q26 -23 43 -43q7 -4 7 -9q0 -11 -17 -20q-13 -7 -27 -10q-31 -80 -73 -164h51l30 36q25 -17 45 -37q7 -6 7 -9q-2 -7 -12 -13q-11 -7 -22 -13q-4 -42 -11 -79q-7 -33 -18 -66q-13 -35 -25 -58q-10 -22 -26 -39h14q0 -7 9 -16q29 -17 64 -27
q34 -12 81 -17q48 -6 157 -6q119 0 259 18v-18q-33 -5 -44 -44q-74 -4 -169 -4q-93 0 -152 6q-49 6 -91 18q-44 10 -80 28q-37 20 -56 40q-24 -42 -50 -76q0 -38 -8 -38q-14 0 -58 60q24 10 48 32q24 18 46 44h6q12 21 20 46q12 24 20 55q7 31 12 75q7 40 8 76h-70
q-11 -10 -22 -10q-18 0 -18 14q0 3 2 10q6 7 11 17q48 101 79 185q-80 0 -98 -4z" />
  </g>

</svg>
