<?xml version="1.0" standalone="no"?>
<!DOCTYPE svg PUBLIC "-//W3C//DTD SVG 1.1//EN" "http://www.w3.org/Graphics/SVG/1.1/DTD/svg11.dtd" >
<svg xmlns="http://www.w3.org/2000/svg" xmlns:xlink="http://www.w3.org/1999/xlink" version="1.1" viewBox="0 -410 2048 2048">
  <g transform="matrix(1 0 0 -1 0 1638)">
   <path fill="currentColor"
d="M1113 1199q-18 -1 -52 -3q-34 -1 -78 -7l-39 85q107 -15 202 -18v144q0 118 -7 160l109 -24q86 -19 86 -46t-50 -41l-44 -13v-180h39h284v155q0 119 -7 160l108 -24q86 -19 86 -44q0 -30 -50 -43l-42 -11v-193h71l88 86l125 -91q16 -12 16 -26q0 -26 -26 -26h-274v-376
l26 -19q23 -17 23 -31q0 -23 -38 -23h-429v-57q0 -43 -62 -43q-39 0 -39 29q0 5 1 15q6 88 6 204v301h-33zM1240 808h323v391h-323v-391zM928 1255q1 -483 -51 -694q-70 -286 -265 -475l-29 26q111 152 156 272q64 170 80 401q11 163 11 405v377q0 133 -12 228l118 -77h412
q-27 111 -126 210l23 25q195 -100 195 -185q0 -23 -20 -50h304l98 102l120 -107q18 -16 18 -25q0 -27 -28 -27h-1004v-406zM1057 550h36v-29q-1 -181 -45 -290q-58 -141 -141 -141q-48 0 -48 41q0 25 53 74q75 70 106 159q20 59 39 186zM1275 550q84 -198 84 -322
q0 -118 -70 -118q-41 0 -41 41q0 13 8 50q11 52 11 136q0 81 -27 205zM1494 550q169 -239 169 -373q0 -75 -59 -75q-37 0 -41 44q-15 202 -101 384zM1718 559q222 -227 222 -377q0 -81 -58 -81q-36 0 -45 76q-19 164 -149 360zM83 1544q71 -79 132 -189q58 -105 58 -176
q0 -72 -62 -72q-36 0 -44 65q-24 173 -115 353zM663 1463q-104 -136 -213 -218q-3 -192 -28 -473q255 -181 255 -290q0 -60 -48 -60q-15 0 -24 8q-18 13 -54 108q-23 59 -137 182q-62 -234 -143 -370q-86 -147 -181 -240l-29 29q181 251 242 512q51 219 51 605v407
q0 171 -15 274l106 -19q93 -16 93 -43q0 -23 -39 -38l-49 -19v-509q95 132 163 286l89 -56q58 -36 58 -54q0 -27 -41 -27h-6z" />
  </g>

</svg>
