<?xml version="1.0" standalone="no"?>
<!DOCTYPE svg PUBLIC "-//W3C//DTD SVG 1.1//EN" "http://www.w3.org/Graphics/SVG/1.1/DTD/svg11.dtd" >
<svg xmlns="http://www.w3.org/2000/svg" xmlns:xlink="http://www.w3.org/1999/xlink" version="1.1" viewBox="0 -120 1000 1000">
  <g transform="matrix(1 0 0 -1 0 880)">
   <path fill="currentColor"
d="M93 716h21q11 -67 11 -106q0 -61 -14 -93q-18 -39 -43 -39q-15 0 -25 12q-9 11 -9 25t19 39q30 43 36 93q3 25 4 69zM310 814l56 -56q8 -8 8 -15q0 -11 -19 -11h-21l-100 -87q-1 -143 -17 -262q69 -33 107 -64q58 -46 58 -82q0 -37 -34 -37q-16 0 -25 10q-6 6 -23 40
q-26 54 -87 109q-22 -112 -54 -176q-34 -67 -99 -119l-10 17q47 63 69 124q52 143 52 425v309l79 -9q17 -2 17 -11t-13 -15l-20 -9v-213q40 60 76 132zM594 923l58 -40q10 -7 10 -11q0 -6 -11 -10l-20 -7v-261l57 -40q12 -8 12 -13q0 -7 -16 -8l-19 -2q78 -59 143 -91
q65 -31 157 -56v-12q-41 -10 -63 -51q-150 87 -257 198q-87 -77 -140 -112q-55 -37 -143 -78l-7 18q69 45 128 96q53 46 124 127l-31 -6v109h-22q-81 -77 -166 -125l-10 13q64 59 87 84q36 39 68 95l43 -35v162h-76l51 -42q6 -5 6 -11q0 -12 -12 -12h-26q-62 -70 -139 -117
l-9 13q45 46 68 76q30 39 58 93h-119l-15 27h213zM863 927l59 -38q15 -9 15 -17q0 -7 -15 -12l-20 -7v-277l-59 -12v117h-23l-18 -15q-47 -40 -75 -56q-18 -11 -50 -27l-9 13q87 76 131 151l44 -36v156h-65l47 -38q6 -5 6 -10q0 -13 -13 -13h-26q-61 -63 -131 -102l-9 14
q41 41 61 66q29 35 55 83h-85l-15 27h175zM650 454l54 -46q6 -5 6 -11q0 -13 -18 -13h-21q-108 -79 -232 -129l-10 14q147 90 221 185zM724 372l49 -42q11 -9 11 -17q0 -11 -21 -11h-18q-144 -101 -310 -156l-10 14q117 65 171 102q75 52 128 110zM822 298l54 -48
q6 -6 6 -12q0 -10 -20 -10h-24q-103 -68 -209 -115q-86 -38 -229 -73l-10 23q111 37 140 49q154 64 292 186z" />
  </g>

</svg>
