<?xml version="1.0" standalone="no"?>
<!DOCTYPE svg PUBLIC "-//W3C//DTD SVG 1.1//EN" "http://www.w3.org/Graphics/SVG/1.1/DTD/svg11.dtd" >
<svg xmlns="http://www.w3.org/2000/svg" xmlns:xlink="http://www.w3.org/1999/xlink" version="1.1" viewBox="0 -410 2048 2048">
  <g transform="matrix(1 0 0 -1 0 1638)">
   <path fill="currentColor"
d="M1326 475h-368q-69 0 -148 -11l-40 86q123 -17 188 -17h368v228h-338v-49q0 -31 -43 -31q-59 0 -59 56q0 22 4 73q4 47 4 129v339q0 79 -11 141l117 -72h755l59 72l75 -50q42 -28 42 -50q0 -16 -65 -52v-293q0 -133 8 -206q1 -7 1 -17q0 -70 -70 -70q-34 0 -34 24v56
h-351v-228h343l95 95l114 -106q15 -14 15 -27q0 -20 -22 -20h-545v-123q0 -7 1 -23q2 -21 4 -69q2 -36 4 -55q4 -41 4 -61q0 -62 -61 -62q-46 0 -46 31v362zM1420 1025v-206h351v206h-351zM988 819h338v206h-338v-206zM988 1083h338v207h-338v-207zM1420 1290v-207h351v207
h-351zM1801 1867l61 72l73 -50q42 -29 42 -49q0 -16 -66 -52v-169l40 -34q21 -18 21 -32q0 -16 -21 -16h-415v-22q0 -31 -52 -31q-57 0 -53 45l4 48q6 102 6 105v249l117 -64h243zM1536 1595h278v214h-278v-214zM1174 1871l62 72l72 -50q42 -29 42 -49q0 -16 -66 -52v-169
l42 -34q20 -16 20 -29q0 -19 -20 -19h-405v-28q0 -31 -52 -31q-54 0 -54 37q0 3 4 40l2 31l3 49v296l108 -64h242zM921 1599h270v214h-270v-214zM693 1456q-103 -123 -201 -203q-1 -230 -31 -472q258 -173 258 -293q0 -58 -49 -58q-14 0 -23 8q-14 11 -42 81
q-39 95 -149 209q-71 -254 -164 -399q-87 -136 -181 -221l-30 31q182 222 254 493q61 230 61 633v496q0 83 -15 184l106 -19q93 -17 93 -44q0 -22 -39 -37l-49 -18v-510q102 144 150 265l89 -50q64 -35 64 -51q0 -25 -64 -25h-38zM122 1552q55 -60 115 -161q72 -122 72 -196
q0 -81 -59 -81q-16 0 -27 12q-9 11 -13 60q-9 124 -119 347z" />
  </g>

</svg>
