<?xml version="1.0" standalone="no"?>
<!DOCTYPE svg PUBLIC "-//W3C//DTD SVG 1.1//EN" "http://www.w3.org/Graphics/SVG/1.1/DTD/svg11.dtd" >
<svg xmlns="http://www.w3.org/2000/svg" xmlns:xlink="http://www.w3.org/1999/xlink" version="1.1" viewBox="0 -204 1024 1024">
  <g transform="matrix(1 0 0 -1 0 820)">
   <path fill="currentColor"
d="M52 733q24 -31 42 -62q21 -28 33 -55q13 -27 18 -47t5 -38q0 -19 -6 -31q-9 -12 -20 -12q-6 0 -10 7q-5 6 -9 34q-6 34 -16 65q-9 33 -21 63q-13 29 -32 62zM334 716q-18 -18 -39 -34q-21 -18 -40 -29q-13 -10 -28 -19v-37q0 -108 -11 -196q-1 -12 -3 -23q53 -28 84 -60
q31 -26 45 -52q10 -19 10 -36q0 -30 -20 -30q-9 0 -18 6q-7 4 -15 25q-19 46 -43 75q-17 23 -46 49q-9 -56 -24 -103q-17 -62 -52 -120q-34 -59 -85 -108l-17 15q47 58 72 109q24 54 40 114q17 53 26 140q9 90 9 195v219q0 95 -9 137q51 -8 93 -19q9 -3 9 -12q0 -8 -12 -15
q-12 -6 -33 -11v-229q6 6 13 11q15 17 26 35q14 18 23 35q9 19 15 37q81 -49 81 -63q0 -11 -18 -11q-13 0 -33 5zM609 960q17 -11 29 -22q13 -13 24 -23q8 -9 11 -17q3 -9 3 -16q0 -17 -5 -27h148l44 49q36 -28 69 -54q7 -4 7 -10q0 -13 -14 -13h-142q37 -13 66 -27
q5 -6 5 -12q0 -9 -17 -12q-21 -4 -29 -4q-10 -27 -25 -51q-13 -21 -26 -39q-8 -12 -18 -20h113l44 49q36 -26 68 -52q8 -4 8 -10q0 -15 -16 -15h-495q-72 -2 -97 -7l-21 47q44 -12 118 -12h75q-1 7 -2 16q-6 25 -15 50q-7 23 -17 45q-9 21 -27 47l8 6q-54 -2 -75 -6l-21 47
q44 -12 118 -12h131q-3 17 -10 32q-6 16 -15 29q-7 14 -19 31zM569 662h140q12 23 20 40q8 20 16 43q9 25 15 44q4 16 6 38h-268q16 -21 29 -38q18 -19 27 -39q11 -18 15 -33q4 -14 4 -26q0 -20 -4 -29zM414 588l62 -29h339l36 32q50 -35 50 -50q0 -10 -30 -24v-188
q0 -22 1 -29q1 -9 1 -17q0 -20 -33 -26q-17 0 -17 10v23h-151v-100h124l44 49q36 -26 67 -51q8 -5 8 -11q0 -15 -15 -15h-228v-92h187l47 53q38 -28 73 -55q8 -6 8 -11q0 -14 -15 -14h-536q-70 -4 -96 -8l-22 47q46 -12 118 -12h188v92h-123q-72 -2 -98 -7l-19 47
q43 -12 117 -12h123v100h-160v-12q0 -9 -12 -15q-16 -6 -26 -6q-12 0 -12 14q0 4 1 13q1 24 1 42v195q0 49 -2 67zM464 318h160v92h-160v-92zM672 410v-92h151v92h-151zM464 439h160v92h-160v-92zM672 531v-92h151v92h-151z" />
  </g>

</svg>
