<?xml version="1.0" standalone="no"?>
<!DOCTYPE svg PUBLIC "-//W3C//DTD SVG 1.1//EN" "http://www.w3.org/Graphics/SVG/1.1/DTD/svg11.dtd" >
<svg xmlns="http://www.w3.org/2000/svg" xmlns:xlink="http://www.w3.org/1999/xlink" version="1.1" viewBox="0 -204 1024 1024">
  <g transform="matrix(1 0 0 -1 0 820)">
   <path fill="currentColor"
d="M486 964q21 -8 37 -16q18 -8 29 -15q12 -7 16 -13q4 -5 4 -10q0 -21 -6 -32h298l44 49q36 -27 68 -52q8 -5 8 -11q0 -14 -15 -14h-817v-246q0 -69 -4 -129q-3 -53 -12 -108q-6 -45 -17 -82q-10 -35 -27 -66q-14 -27 -38 -55l-14 11q13 24 23 52q9 25 16 54q7 32 13 73
q5 49 8 99q4 67 4 151q1 195 -4 312l57 -38h371v1q-4 13 -13 25t-19 22q-10 11 -28 24zM176 522q40 -8 115 -8h142v11q0 40 -10 58q52 -8 94 -18q9 -3 9 -12t-12 -16q-13 -6 -33 -11v-129q0 -39 -10 -72q-11 -31 -28 -54q-18 -22 -50 -44q-32 -21 -81 -39l-18 16
q44 20 68 38q23 18 38 39q8 8 13 20q-24 -8 -43 -12q-40 -11 -76 -19q-33 -8 -70 -13q-10 -34 -16 -34q-7 0 -44 76q53 3 94 8q39 3 86 10q36 5 80 12q8 27 9 57h-122q-80 0 -97 -7l-18 43q40 -8 115 -8h122v72h-142q-80 0 -97 -7zM594 580q48 -8 80 -17q11 -4 11 -12
q0 -5 -9 -8q-12 -7 -28 -11v-22h196l37 38q30 -22 56 -43q7 -4 7 -9q0 -14 -12 -14h-284v-76h196l37 38q30 -22 56 -43q7 -4 7 -9q0 -14 -12 -14h-284v-80h220l37 38q30 -22 56 -43q7 -4 7 -9q0 -14 -12 -14h-308q0 -11 1 -15q1 -17 1 -29q0 -34 -32 -34q-25 0 -25 18
q0 13 4 33q3 22 3 38v224q0 50 -6 75zM175 184l13 -4q-8 -46 -18 -73q-10 -25 -22 -42q-11 -18 -25 -28q-13 -9 -24 -13t-19 -4q-24 0 -24 22q0 7 4 12q3 6 32 23q35 24 43 35q12 14 22 31q12 17 18 41zM368 180q16 -16 27 -37q13 -21 17 -39q5 -20 5 -35q0 -18 -5 -33
q-5 -11 -15 -16q-8 -4 -13 -4q-20 0 -20 21q-2 6 1 17q3 18 -3 43q-1 30 -14 78zM578 184q39 -27 62 -55q19 -19 32 -41q8 -15 8 -28t-7 -27q-11 -13 -21 -13q-9 0 -18 5q-9 10 -9 25q-7 45 -21 68q-11 23 -40 56zM812 208q37 -22 66 -45q31 -21 51 -41t28 -35q7 -14 7 -28
q0 -18 -5 -27q-8 -12 -19 -12q-10 0 -17 6q-7 4 -13 24q-9 26 -25 51t-36 47t-53 48zM176 778q44 -12 117 -12h55q0 47 -6 70q48 -8 80 -17q11 -4 11 -12q0 -5 -9 -8q-12 -7 -28 -11v-22h76l32 32q27 -20 50 -38q6 -4 6 -8q0 -14 -11 -14h-153v-21q47 -17 73 -34
q26 -15 39 -30q9 -10 9 -20q0 -29 -21 -29q-8 0 -14 3t-13 15q-17 28 -37 45q-14 12 -36 26v-52q0 -23 1 -30q1 -17 1 -29q0 -34 -31 -34q-26 0 -26 18q0 13 4 33q3 22 3 39v72q-7 -13 -14 -24q-18 -29 -40 -53q-20 -22 -45 -44q-25 -21 -61 -45l-12 16q31 25 52 49
q21 21 38 48q16 22 28 47q9 18 14 34h-15q-71 -2 -97 -7zM572 778q44 -12 117 -12h35q-1 44 -6 66q48 -8 80 -17q11 -4 11 -11q0 -6 -9 -9q-12 -7 -28 -11v-18h100l32 32q27 -20 50 -38q7 -4 7 -8q0 -14 -12 -14h-177v-16q58 -21 91 -43q34 -19 51 -39q11 -14 11 -27
q0 -29 -21 -29q-10 0 -19 4q-8 4 -16 19q-23 36 -48 57q-19 18 -49 35v-58q0 -23 1 -30q1 -17 1 -29q0 -34 -31 -34q-26 0 -26 18q0 13 4 33q3 22 3 39v77q-8 -12 -16 -21q-21 -28 -46 -50q-24 -21 -54 -42q-29 -20 -72 -42l-12 16q38 23 65 45q25 21 47 46q19 20 34 44
q10 15 15 27q-68 -2 -93 -7z" />
  </g>

</svg>
