<?xml version="1.0" standalone="no"?>
<!DOCTYPE svg PUBLIC "-//W3C//DTD SVG 1.1//EN" "http://www.w3.org/Graphics/SVG/1.1/DTD/svg11.dtd" >
<svg xmlns="http://www.w3.org/2000/svg" xmlns:xlink="http://www.w3.org/1999/xlink" version="1.1" viewBox="0 -140 1000 1000">
  <g transform="matrix(1 0 0 -1 0 860)">
   <path fill="currentColor"
d="M68 425v23h407v221h-201q-57 -115 -145 -202l-12 10q55 78 83.5 159t53.5 228l98 -32l-1 -12l-31 -10q-18 -62 -39 -120h194v232l102 -20v-14l-38 -20v-178h195l48 55h14l65 -61v-15h-322v-221h282l47 57h14l69 -65v-15h-412l1 -342l-9 -11l-43 -16l-13 5v364h-407z" />
  </g>

</svg>
