<?xml version="1.0" standalone="no"?>
<!DOCTYPE svg PUBLIC "-//W3C//DTD SVG 1.1//EN" "http://www.w3.org/Graphics/SVG/1.1/DTD/svg11.dtd" >
<svg xmlns="http://www.w3.org/2000/svg" xmlns:xlink="http://www.w3.org/1999/xlink" version="1.1" viewBox="0 -120 1000 1000">
  <g transform="matrix(1 0 0 -1 0 880)">
   <path fill="currentColor"
d="M39 437h423v273h-222q-40 -85 -96 -166q-25 -37 -45 -59l-17 13q106 171 146 433l99 -38q17 -6 17 -17q0 -12 -18 -14l-25 -3l-47 -121h208v226l89 -8q25 -3 25 -14q0 -12 -20 -18l-23 -8v-178h193l50 65l87 -70v-23h-330v-273h278l52 73l92 -78v-22h-422v-343l-71 -10
v353h-409z" />
  </g>

</svg>
