<?xml version="1.0" standalone="no"?>
<!DOCTYPE svg PUBLIC "-//W3C//DTD SVG 1.1//EN" "http://www.w3.org/Graphics/SVG/1.1/DTD/svg11.dtd" >
<svg xmlns="http://www.w3.org/2000/svg" xmlns:xlink="http://www.w3.org/1999/xlink" version="1.1" viewBox="0 -140 1000 1000">
  <g transform="matrix(1 0 0 -1 0 860)">
   <path fill="currentColor"
d="M703 885v-14l-26 -17v-264l-7 -7l-51 -11l-8 5v324zM709 555l1 13l81 -6q21 0 30.5 4t11 9.5t1.5 17.5v344l94 -18v-15l-30 -12v-328q0 -33 -15 -45t-79 -31l-12 8v27zM324 754h120l32 41h14l53 -48v-15h-219v-44q34 -8 53 -13.5t44.5 -16.5t37.5 -27t12 -37
q0 -33 -23 -33q-11 0 -24 16q-36 44 -48 55t-52 36l1 -149l-8 -12l-47 -10l-11 6v135q-72 -67 -197 -137l-8 11q71 54 110 98t88 123l-195 -1v22l202 1v83q-136 -8 -169 -8h-31l-2 13q130 17 209 36t181 58l71 -43l-6 -12l-41 1q-85 -23 -147 -35v-94zM481 370h-222
q-57 -74 -125 -128l-9 10q45 54 70 103t54 142l84 -35l-4 -14l-26 -5l-7.5 -12.5t-11.5 -18.5t-12 -19h209v122l96 -18v-14l-32 -15v-75h184l37 47h15l52 -55v-15h-288v-130h290l40 50h14l57 -56v-17h-401l1 -150l-9 -13l-48 -12l-9 6l1 169h-419v23h419v130z" />
  </g>

</svg>
