<?xml version="1.0" standalone="no"?>
<!DOCTYPE svg PUBLIC "-//W3C//DTD SVG 1.1//EN" "http://www.w3.org/Graphics/SVG/1.1/DTD/svg11.dtd" >
<svg xmlns="http://www.w3.org/2000/svg" xmlns:xlink="http://www.w3.org/1999/xlink" version="1.1" viewBox="0 -410 2048 2048">
  <g transform="matrix(1 0 0 -1 0 1638)">
   <path fill="currentColor"
d="M1410 1607q-23 -50 -79 -153h55l54 58l46 -26q56 -31 56 -60q0 -28 -56 -45v-352q0 -37 4 -73q4 -39 4 -45q0 -40 -60 -40q-33 0 -33 27v27h-159v-27q0 -23 -47 -23q-41 0 -41 28v10l1 36q2 59 2 80v483l116 -58q10 49 21 109q5 27 8 44h-352q-118 0 -190 -8l-38 88
q97 -22 228 -22h804l98 102l121 -107q17 -15 17 -26q0 -27 -27 -27h-553zM1401 978v109h-159v-109h159zM1401 1401h-159v-100h159v100zM1401 1248h-159v-107h159v107zM997 1239v-239q109 18 136 24l8 -38q-132 -51 -242 -80q-50 -14 -93 -29l-7 -33q-5 -25 -21 -25
q-18 0 -43 46l-50 95l72 5v291q0 7 -4 59q-2 19 -3 57l92 -15q57 -10 57 -42q0 -19 -33 -32l-24 -9v-299l70 11v443q0 33 -6 114l91 -16q68 -11 68 -36q0 -23 -38 -36l-30 -11v-152h27l43 47l60 -56q15 -13 15 -25q0 -19 -28 -19h-117zM1756 1448l59 64l61 -47
q39 -29 39 -42q0 -15 -34 -31q-13 -6 -32 -18v-115l27 -15q20 -11 20 -34q0 -15 -20 -15h-227v-148q0 -77 126 -77q85 0 102 25q14 20 21 116h31q3 -25 4 -38q2 -46 19 -61q5 -4 26 -16q12 -7 12 -23q0 -31 -45 -54q-63 -32 -173 -32q-208 0 -208 129v413q-6 36 -8 72
l109 -53h91zM1764 1248v147h-115v-147h115zM1217 664h275l62 76l83 -55q41 -26 41 -49q0 -29 -78 -61q-25 -32 -95 -125q-30 -39 -94 -104q166 -67 298 -99q98 -24 274 -44l-5 -41q-106 -3 -130 -68q-269 60 -511 191q-159 -104 -338 -160q-88 -27 -259 -55l-6 39
q319 72 532 223q-101 80 -202 182q-108 -77 -159 -102q-9 -4 -53 -24q-25 -11 -76 -35l-19 36q162 92 260 182l-36 67l29 26l49 -54q78 81 158 240l81 -30q64 -24 64 -47q0 -24 -47 -29l-31 -4q-32 -36 -67 -76zM1169 606q-29 -29 -57 -50q116 -103 223 -169q21 25 31 36
q62 70 87 111q29 48 45 72h-329zM474 1007q107 47 211 105l21 -38q-120 -79 -232 -156v-536l7 -125l3 -56q4 -52 4 -63q0 -60 -64 -60q-48 0 -48 51v732q-43 -27 -107 -66q-38 -22 -66 -41l-3 -40q-2 -31 -21 -31q-25 0 -51 42l-65 108q92 30 313 128v468h-173
q-44 -125 -111 -256l-32 15q98 297 127 619l119 -36q42 -13 42 -37q0 -21 -30 -30l-38 -11q-28 -110 -58 -206h154v312q0 115 -8 160l112 -24q86 -19 86 -46q0 -28 -50 -41l-42 -12v-349h24l98 102l121 -107q16 -14 16 -26q0 -27 -27 -27h-232v-422zM970 1958
q207 -91 207 -184q0 -31 -24 -49q-10 -7 -23 -7q-30 0 -54 54q-30 69 -72 109q-18 17 -54 47zM1573 1965l75 -34q61 -27 61 -53q0 -22 -41 -26l-40 -4q-92 -90 -150 -138l-28 24q72 98 123 231zM1558 868q153 -50 240 -89q122 -54 122 -131q0 -49 -45 -49q-18 0 -85 68
q-89 89 -250 165zM1032 776q-179 -144 -326 -201l-22 35q178 112 308 281l80 -50q42 -26 42 -47q0 -18 -23 -18h-59z" />
  </g>

</svg>
