<?xml version="1.0" standalone="no"?>
<!DOCTYPE svg PUBLIC "-//W3C//DTD SVG 1.1//EN" "http://www.w3.org/Graphics/SVG/1.1/DTD/svg11.dtd" >
<svg xmlns="http://www.w3.org/2000/svg" xmlns:xlink="http://www.w3.org/1999/xlink" version="1.1" viewBox="0 -204 1024 1024">
  <g transform="matrix(1 0 0 -1 0 820)">
   <path fill="currentColor"
d="M310 960q40 -16 68 -35q6 -3 6 -9q0 -4 -10 -8q-18 -5 -32 -6q-26 -34 -55 -68q-29 -30 -60 -52q6 -8 12 -15q32 -58 53 -115q19 -54 29 -125q7 -58 7 -137q0 -125 -17 -219q-6 -47 -21 -68q-15 -27 -42 -47q-30 -23 -74 -32q0 23 -7 31q-6 10 -25 16q-23 9 -62 9l6 24
q48 -10 88 -10q41 0 56 15q24 18 32 75q18 91 18 206q0 94 -7 149q-27 -47 -54 -75q-32 -36 -66 -66q-38 -32 -103 -74l-10 18q63 52 100 91q32 33 70 85q28 41 51 94q-6 32 -16 59q-17 43 -41 89q-31 -23 -68 -48q-44 -27 -94 -54l-10 10q61 42 105 78q28 23 48 43
q-30 48 -91 121l22 10q56 -65 91 -109q6 6 10 12q39 41 64 75q20 33 29 62zM354 704q44 -10 116 -10h170v178q0 54 -4 82q55 -7 93 -23q13 -6 13 -15q0 -7 -13 -11q-17 -9 -43 -13v-198h158l48 54q38 -28 71 -54q9 -5 9 -12q0 -18 -18 -18h-268v-230h166l32 44
q36 -24 52 -43q6 -7 6 -15q0 -9 -40 -30v-273q16 -11 28 -20q6 -3 6 -7q0 -18 -8 -18h-460v-36q0 -12 -22 -12q-8 0 -20 6q-10 8 -10 24t2 46q6 22 6 96v212q0 39 -8 70l58 -44h166v230h-170q-70 -1 -94 -4zM468 102h390v302h-390v-302z" />
  </g>

</svg>
