<?xml version="1.0" standalone="no"?>
<!DOCTYPE svg PUBLIC "-//W3C//DTD SVG 1.1//EN" "http://www.w3.org/Graphics/SVG/1.1/DTD/svg11.dtd" >
<svg xmlns="http://www.w3.org/2000/svg" xmlns:xlink="http://www.w3.org/1999/xlink" version="1.1" viewBox="0 -140 1000 1000">
  <g transform="matrix(1 0 0 -1 0 860)">
   <path fill="currentColor"
d="M777 357l34 28h14l55 -40v-15l-25 -22l-1 -215l-6 -9l-51 -11l-5 7l-1 39h-300l1 -32l-6 -9l-50 -11l-8 6l-1 316l68 -32h282zM791 334h-300v-192h300v192zM397 852l-10 -14l-37 4q-46 -64 -106 -124q65 -109 91.5 -190.5t26.5 -176.5q0 -279 -192 -299l-12 10v23l-76 39
l6 11l72 -9q3 -1 15 -1q59 0 92 60.5t33 169.5q0 45 -13 139q-86 -133 -214 -234l-10 12q131 134 199 318q-8 26 -44 102q-71 -65 -146 -113l-12 11q82 68 138 135q-43 66 -96 127l13 13q56 -54 103 -112q58 81 92 152zM349 714v23h482l41 50h14l61 -56v-17h-598zM441 585
v23h294l42 52h13l60 -58v-17h-409zM439 460v23h298l42 49h14l61 -55v-17h-415zM456 840v23h272l39 49h11l57 -55v-17h-379z" />
  </g>

</svg>
