<?xml version="1.0" standalone="no"?>
<!DOCTYPE svg PUBLIC "-//W3C//DTD SVG 1.1//EN" "http://www.w3.org/Graphics/SVG/1.1/DTD/svg11.dtd" >
<svg xmlns="http://www.w3.org/2000/svg" xmlns:xlink="http://www.w3.org/1999/xlink" version="1.1" viewBox="0 -410 2048 2048">
  <g transform="matrix(1 0 0 -1 0 1638)">
   <path fill="currentColor"
d="M840 556v-409q0 -54 -59 -54q-53 0 -53 47q0 15 4 48q13 106 13 210v1388q0 32 -11 138l122 -80h268l66 76l83 -55q40 -26 40 -49q0 -28 -77 -63v-317l29 -24q30 -24 30 -36q0 -22 -22 -22h-433v-336h181l98 101l121 -106q16 -15 16 -26q0 -27 -27 -27h-389v-347h187
l97 102l122 -107q17 -15 17 -26q0 -26 -27 -26h-396zM840 1412h306v374h-306v-374zM1751 1790h-224q-68 0 -149 -11l-39 86q121 -18 188 -18h202l69 76l84 -54q40 -26 40 -48q0 -28 -77 -61v-352l33 -23q31 -22 31 -43q0 -18 -42 -18h-336q-69 0 -149 -11l-39 86
q126 -18 188 -18h220v409zM331 1521q-127 -107 -259 -177l-23 33q31 23 46 35q93 69 206 181q-18 33 -27 50q-48 90 -115 195l34 23q64 -70 152 -216q125 146 198 284l85 -46q58 -32 58 -57q0 -22 -52 -27l-43 -4q-103 -121 -204 -223q103 -212 139 -372q41 -180 41 -476
q0 -431 -91 -546q-62 -76 -191 -102v7q-1 40 -36 68q-29 24 -157 63l6 40q35 -7 91 -22q87 -24 116 -24q89 0 125 108q16 47 27 176q15 168 15 281q0 102 -15 289q-111 -163 -198 -247q-83 -80 -187 -152l-23 33q265 241 379 537q-29 148 -97 288zM1735 1075l58 67l88 -59
q42 -28 42 -49q0 -16 -14 -25q-6 -4 -70 -30q-40 -200 -82 -312q-32 -85 -108 -210q105 -105 196 -155q64 -35 171 -73v-30q-59 -5 -85 -16q-29 -12 -60 -54q-102 70 -149 110q-56 49 -137 146q-116 -106 -246 -174q-92 -48 -241 -105l-15 40q284 128 448 311
q-91 182 -124 300q-29 104 -51 260q-37 -5 -56 -5q-4 0 -7 -1l-35 80q95 -16 244 -16h233zM1406 1017q41 -273 181 -492q112 184 155 492h-336z" />
  </g>

</svg>
