<?xml version="1.0" standalone="no"?>
<!DOCTYPE svg PUBLIC "-//W3C//DTD SVG 1.1//EN" "http://www.w3.org/Graphics/SVG/1.1/DTD/svg11.dtd" >
<svg xmlns="http://www.w3.org/2000/svg" xmlns:xlink="http://www.w3.org/1999/xlink" version="1.1" viewBox="0 -410 2048 2048">
  <g transform="matrix(1 0 0 -1 0 1638)">
   <path fill="currentColor"
d="M430 1665v-496h126l80 80l114 -86q17 -12 17 -26q0 -26 -27 -26h-310v-569q60 23 146 62q80 35 152 66l17 -41q-269 -173 -580 -295l-4 -35q-4 -40 -25 -40t-47 50l-56 105q183 42 300 86v611h-37q-109 0 -192 -8l-39 88q94 -22 231 -22h37v496h-64q-117 0 -192 -8
l-38 88q93 -22 230 -22h317l92 96l125 -102q17 -13 17 -25q0 -27 -27 -27h-363zM1250 233v486h-215q-117 0 -192 -8l-39 88q96 -23 231 -23h215v145q0 118 -7 159l109 -24q85 -18 85 -45q0 -29 -49 -42l-42 -11v-182h270l99 101l120 -106q17 -15 17 -26q0 -26 -27 -26h-479
v-486h410l99 102l120 -107q17 -15 17 -26q0 -26 -27 -26h-1059q-117 0 -192 -8l-39 88q96 -23 231 -23h344zM1265 1180v402h-162q-108 0 -192 -8l-38 88q95 -23 230 -23h162v175q0 118 -8 160l110 -24q85 -19 85 -46q0 -28 -49 -41l-42 -12v-212h263l98 101l121 -106
q17 -15 17 -26q0 -26 -27 -26h-472v-402h384l98 101l121 -106q17 -15 17 -26q0 -26 -27 -26h-935q-116 0 -192 -8l-38 88q96 -23 230 -23h246z" />
  </g>

</svg>
