<?xml version="1.0" standalone="no"?>
<!DOCTYPE svg PUBLIC "-//W3C//DTD SVG 1.1//EN" "http://www.w3.org/Graphics/SVG/1.1/DTD/svg11.dtd" >
<svg xmlns="http://www.w3.org/2000/svg" xmlns:xlink="http://www.w3.org/1999/xlink" version="1.1" viewBox="0 -140 1000 1000">
  <g transform="matrix(1 0 0 -1 0 860)">
   <path fill="currentColor"
d="M802 609l43 49h15l55 -56v-15h-143v-285h63l45 51h18l55 -59v-15h-405v23h163v285h-122v22h122v222q-61 -11 -156 -15l-3 12q200 34 315 105l58 -48l-7 -11l-25 5q-57 -22 -110 -36l-11 -3l-1 -231h31zM253 870l47 59h13l65 -67v-15h-147v-258h6l48 59h15l63 -66v-15
h-132v-284l125 31v-15l-248 -112l-2 -23l-14 -5l-39 82l118 27v299h-107v22h107v258h-115v23h197zM446 818l31 35h16l48 -50l-2 -14l-26 -10l-89 -246h95l28 26h15l41 -42l-2 -15h-17q-33 -141 -96 -244q46 -60 98 -85q99 -49 275 -49l90 2l-5 -13q-31 -19 -52 -55
q-189 12 -274.5 47t-148.5 126q-93 -107 -222 -174l-6 11q128 81 203 200l-40 125q-20 -20 -29 -48q-6 -13 -13 -13q-10 0 -22 14t-12 20q0 8 15 19q47 30 66 66q9 16 17 16q6 0 13.5 -7.5t7.5 -14.5q0 -4 -13 -14q-7 -5 -15 -16q35 -103 41 -116q45 96 65 214h-110l-11 -32
l-9 -7l-46 8l-2 11l19 46l90 259h-120v20h108z" />
  </g>

</svg>
