<?xml version="1.0" standalone="no"?>
<!DOCTYPE svg PUBLIC "-//W3C//DTD SVG 1.1//EN" "http://www.w3.org/Graphics/SVG/1.1/DTD/svg11.dtd" >
<svg xmlns="http://www.w3.org/2000/svg" xmlns:xlink="http://www.w3.org/1999/xlink" version="1.1" viewBox="0 -204 1024 1024">
  <g transform="matrix(1 0 0 -1 0 820)">
   <path fill="currentColor"
d="M36 874q44 -12 117 -12h115l43 47q35 -26 65 -50q8 -5 8 -11q0 -14 -14 -14h-150v-256h36l41 45q34 -25 64 -49q7 -4 7 -10q0 -14 -14 -14h-134v-280q17 6 32 13q55 21 128 57l4 -22q-58 -40 -103 -64q-48 -26 -92 -46q-41 -20 -86 -34q-11 -37 -18 -37q-8 0 -49 84
q63 10 114 26q11 3 22 7v296h-11q-71 -2 -98 -7l-19 47q44 -12 117 -12h11v256h-19q-71 -2 -97 -7zM506 956q41 -27 65 -55q21 -22 31 -44q7 -15 7 -30q0 -35 -25 -35q-6 0 -11 5q-5 4 -10 21q-13 40 -28 65q-16 26 -43 55zM785 956q52 -18 89 -35q7 -7 7 -13q0 -11 -19 -14
q-22 -5 -32 -5q-9 -21 -19 -39q-11 -19 -21 -33q-14 -14 -31 -29l-19 12q11 22 18 41q6 18 12 38q6 21 10 39q3 17 5 38zM392 809l61 -43h441l34 41q37 -22 55 -41q7 -8 7 -14q0 -9 -38 -32v-94q0 -75 3 -98q1 -28 1 -46q0 -16 -11 -24q-14 -6 -24 -6q-17 0 -17 13v33h-460
v-34q0 -12 -16 -12q-9 0 -24 6q-12 8 -12 24q0 18 3 47q4 22 4 97v112q0 41 -7 71zM444 526h200v212h-200v-212zM692 526h212v212h-212v-212zM506 708q32 -25 49 -51q17 -21 25 -42q5 -14 5 -28q0 -36 -25 -36q-4 0 -8 6q-4 4 -7 20q-10 38 -21 61q-12 25 -32 52zM797 704
q43 -15 75 -29q5 -6 5 -11q0 -9 -16 -13q-19 -3 -27 -3q-10 -20 -24 -37q-12 -18 -26 -31q-15 -14 -36 -29l-16 11q16 20 26 38q9 15 17 34q9 19 15 36q4 15 7 34zM456 449l61 -43h309l34 42q37 -23 55 -43q7 -7 7 -13q0 -9 -38 -32v-166q0 -74 3 -98q1 -28 1 -46
q0 -16 -11 -24q-14 -6 -24 -6q-17 0 -17 13v49h-328v-50q0 -12 -16 -12q-9 0 -24 6q-12 9 -12 24q0 18 3 47q4 22 4 97v184q0 41 -7 71zM508 110h328v268h-328v-120h167l43 47q37 -26 66 -51q7 -7 7 -10q0 -6 -5 -9q-3 -5 -9 -5h-269v-120z" />
  </g>

</svg>
