<?xml version="1.0" standalone="no"?>
<!DOCTYPE svg PUBLIC "-//W3C//DTD SVG 1.1//EN" "http://www.w3.org/Graphics/SVG/1.1/DTD/svg11.dtd" >
<svg xmlns="http://www.w3.org/2000/svg" xmlns:xlink="http://www.w3.org/1999/xlink" version="1.1" viewBox="0 -120 1000 1000">
  <g transform="matrix(1 0 0 -1 0 880)">
   <path fill="currentColor"
d="M32 74q80 85 113 213q13 57 16 173h-105l-10 28h115v206h-84l-12 28h201q60 103 95 241l65 -36q24 -12 24 -25q0 -10 -21 -13l-11 -1l-127 -166h91l40 48l67 -55v-21h-116v-206h20l42 52l65 -59v-21h-127v-397l-64 -10v407h-87q-6 -86 -11 -117q-29 -179 -167 -283z
M222 488h87v206h-87v-206zM82 954q61 -39 83 -62q26 -27 41 -60q11 -25 11 -40t-12 -32q-12 -15 -23 -15q-19 0 -28 33q-37 119 -83 163zM762 223q-155 -80 -287 -135l-5 -11q-5 -9 -13 -9t-12 9l-32 65q47 10 92 24l7 74q46 441 57 616h-72l-14 28h339l41 55l81 -64v-19
h-311l-18 -184h140l26 40l71 -45q12 -8 12 -17q0 -7 -14 -13l-21 -8q-1 -85 -1 -117q0 -125 13 -207q12 -76 40 -129l50 134l17 -7l-17 -87q-5 -28 -5 -42q0 -40 25 -82q-22 -21 -50 -21q-21 0 -48 28q-44 46 -66 158q-20 102 -20 307v80h-155l-45 -462q73 20 188 61z
M628 517q38 -19 71 -55q43 -48 43 -87q0 -25 -15 -39q-9 -9 -19 -9q-13 0 -21 11q-4 5 -19 67q-8 34 -50 102z" />
  </g>

</svg>
