<?xml version="1.0" standalone="no"?>
<!DOCTYPE svg PUBLIC "-//W3C//DTD SVG 1.1//EN" "http://www.w3.org/Graphics/SVG/1.1/DTD/svg11.dtd" >
<svg xmlns="http://www.w3.org/2000/svg" xmlns:xlink="http://www.w3.org/1999/xlink" version="1.1" viewBox="0 -204 1024 1024">
  <g transform="matrix(1 0 0 -1 0 820)">
   <path fill="currentColor"
d="M384 902l35 33q51 -36 51 -50q0 -10 -30 -25v-109l12 -9q4 -3 4 -6q0 -14 -8 -14h-277q0 -27 -2 -52l58 -28h158l35 33q51 -36 51 -50q0 -10 -30 -25v-106q11 -9 20 -16q5 -3 5 -6q0 -14 -8 -14h-244v-12q0 -10 -12 -16q-15 -6 -25 -6q-13 0 -13 14q0 4 1 14q1 23 1 42
v145q-4 -33 -13 -67q-8 -33 -21 -60q-12 -25 -32 -48q-16 -20 -46 -40l-14 11q17 17 30 37q13 19 21 39q10 23 17 53q7 35 11 72q5 48 5 108q0 123 -4 196l57 -38h207zM214 486h179v128h-179v-128zM172 874v-124h220v124h-220zM678 964q14 -10 25 -20q12 -9 20 -18
q7 -9 10 -16q3 -6 3 -12q0 -21 -6 -32h118l38 41q31 -24 59 -45q7 -5 7 -10q0 -14 -13 -14h-92q24 -9 43 -18q6 -5 6 -9q0 -8 -11 -12q-19 -5 -35 -5q-6 -16 -14 -31q-9 -15 -18 -31q-9 -14 -19 -25l-5 -5h90l37 38q30 -22 56 -43q7 -4 7 -9q0 -14 -12 -14h-232v-88h116
l40 43q32 -24 61 -47q7 -5 7 -10q0 -14 -14 -14h-210v-32q0 -21 1 -26q2 -6 2 -37q0 -20 -39 -23q-15 0 -15 17q0 18 1 27q2 5 2 42v32h-75q-71 -2 -97 -7l-20 47q44 -12 117 -12h75v88h-111q-71 -2 -97 -7l-20 47q44 -12 117 -12h39q-2 5 -3 11q-10 39 -21 63
q-12 26 -32 54l5 6q-36 -2 -53 -5l-20 47q44 -12 117 -12h86q-1 1 -1 3q-3 14 -8 28q-6 14 -12 26q-7 12 -18 27zM654 702h110q10 15 17 30q10 20 18 44q9 23 14 47q2 7 2 15h-202q-13 -1 -22 -1q23 -21 36 -42q17 -21 25 -43q5 -15 5 -29q0 -13 -3 -21zM40 402
q44 -12 117 -12h703l45 51l71 -54q8 -5 8 -11q0 -14 -16 -14h-611l-20 -72h290l37 38q32 -23 54 -43q7 -7 7 -14q0 -6 -13 -12q-11 -9 -24 -15l-12 -112q0 -17 5 -24q6 -11 19 -15q15 -5 71 -5q47 0 79 4q17 1 28 7q10 4 14 19q16 38 28 130l24 -5q-5 -49 -5 -102
q0 -26 13 -33q24 -12 24 -28q0 -7 -9 -14q-14 -10 -60 -17q-53 -5 -121 -5q-69 0 -112 8q-25 3 -37 18q-9 9 -9 62l12 126l-2 4h-309l-7 -27q59 -3 98 -9q50 -7 73 -16q27 -10 34 -20q7 -7 7 -16q0 -22 -18 -22q-5 0 -19 4q-50 21 -104 37q-44 13 -78 18l-30 -109
q58 4 123 11q78 7 180 19l4 -22q-87 -18 -155 -28q-72 -12 -138 -21q-60 -9 -128 -15q-11 -37 -18 -37q-8 0 -49 84q74 2 132 6l73 263h-152q-71 -2 -97 -7z" />
  </g>

</svg>
