<?xml version="1.0" standalone="no"?>
<!DOCTYPE svg PUBLIC "-//W3C//DTD SVG 1.1//EN" "http://www.w3.org/Graphics/SVG/1.1/DTD/svg11.dtd" >
<svg xmlns="http://www.w3.org/2000/svg" xmlns:xlink="http://www.w3.org/1999/xlink" version="1.1" viewBox="0 -204 1024 1024">
  <g transform="matrix(1 0 0 -1 0 820)">
   <path fill="currentColor"
d="M40 840q43 -10 116 -10h314v54q0 55 -2 80q55 -6 93 -20q13 -5 13 -16q0 -9 -13 -12q-17 -8 -43 -10v-76h334l46 54q40 -27 77 -54q7 -5 7 -12q0 -18 -14 -18h-450v-114h282l30 44q36 -24 54 -43q8 -9 8 -15q0 -9 -40 -30v-530q0 -34 -16 -50q-15 -16 -38 -27t-38 -11
q0 25 -12 35q-14 11 -46 20q-34 12 -78 15v22q78 -14 144 -14q24 0 31 4q9 5 9 28v168h-290v-160q0 -25 2 -32q2 -16 2 -30q0 -30 -30 -30q-24 0 -24 14q0 23 1 55q1 35 1 63v120h-270v-270q0 -12 -22 -12q-8 0 -20 6q-12 8 -12 24t4 46q6 22 6 96v468q0 41 -10 70l62 -44
h262v114h-314q-71 -1 -98 -4zM200 328h270v154h-270v-154zM518 482v-154h290v154h-290zM200 508h270v150h-270v-150zM518 658v-150h290v150h-290zM636 960q37 -9 65 -21q33 -12 54 -22q20 -9 28 -17q9 -8 9 -16q0 -14 -7 -24q-8 -12 -17 -12q-11 0 -17 5q-10 2 -15 14
q-8 14 -24 29q-17 14 -36 25q-20 13 -52 29z" />
  </g>

</svg>
