<?xml version="1.0" standalone="no"?>
<!DOCTYPE svg PUBLIC "-//W3C//DTD SVG 1.1//EN" "http://www.w3.org/Graphics/SVG/1.1/DTD/svg11.dtd" >
<svg xmlns="http://www.w3.org/2000/svg" xmlns:xlink="http://www.w3.org/1999/xlink" version="1.1" viewBox="0 -204 1024 1024">
  <g transform="matrix(1 0 0 -1 0 820)">
   <path fill="currentColor"
d="M478 964q59 -6 95 -20q15 -5 15 -16q0 -9 -15 -12q-19 -8 -43 -10v-150h358l26 32q34 -21 63 -48q3 -3 3 -6q0 -8 -19 -14q-17 -4 -29 -8q-19 -19 -42 -44q-26 -23 -50 -44l-18 12q27 26 40 50q18 22 26 44h-731q-1 -15 -4 -28q-7 -31 -18 -51q-7 -19 -21 -31
q-13 -10 -25 -14q-9 -4 -17 -4q-26 0 -26 14q0 9 15 24q34 31 51 56q15 20 23 49q9 28 11 73h14v-62h322v128q0 55 -4 80zM244 938q30 -18 55 -34q29 -17 44 -32q18 -14 26 -27q7 -10 7 -19q0 -16 -5 -27q-10 -11 -21 -11q-8 0 -13 5q-6 3 -11 20q-8 19 -22 40
q-12 19 -30 34q-16 19 -44 37zM760 950q47 -16 85 -35q7 -4 7 -9q0 -9 -14 -15q-24 -7 -42 -7q-15 -12 -31 -24q-17 -14 -39 -27q-17 -10 -39 -20q-17 -10 -47 -21l-16 12q28 18 49 34l44 42q19 24 34 45q6 13 9 25zM280 672l60 -30h342l30 30q52 -30 52 -44q0 -10 -30 -26
v-96q15 -10 24 -18q6 -2 6 -6q0 -18 -8 -18h-428v-8q0 -9 -14 -13q-15 -5 -22 -5q-12 0 -12 10v224zM328 492h358v122h-358v-122zM170 420l60 -30h570l26 30q54 -30 54 -44q0 -10 -28 -26v-286q0 -17 -34 -22q-14 0 -14 8v22h-586v-10q0 -9 -10 -15q-15 -5 -26 -5
q-12 0 -12 12v366zM218 102h274v120h-274v-120zM540 102h264v120h-264v-120zM218 248h274v112h-274v-112zM540 360v-112h264v112h-264z" />
  </g>

</svg>
