<?xml version="1.0" standalone="no"?>
<!DOCTYPE svg PUBLIC "-//W3C//DTD SVG 1.1//EN" "http://www.w3.org/Graphics/SVG/1.1/DTD/svg11.dtd" >
<svg xmlns="http://www.w3.org/2000/svg" xmlns:xlink="http://www.w3.org/1999/xlink" version="1.1" viewBox="0 -140 1000 1000">
  <g transform="matrix(1 0 0 -1 0 860)">
   <path fill="currentColor"
d="M763 658l36 38h13l59 -50v-14l-31 -22v-252l-6 -11l-51 -12l-7 8v59h-366v-226q0 -39 10.5 -48.5t62.5 -9.5l287 -1q62 0 69 51l16 99l16 -5l14 -133l30 -22v-14q-25 -20 -43 -25.5t-63 -5.5h-345q-68 0 -93 19t-25 70v548l64 -42zM776 635h-149v-210h149v210zM563 635
h-153v-210h153v210zM615 822h230l44 47h13l57 -53l-1 -16h-694v-229q0 -209 -36 -323t-132 -207l-11 11q92 130 116 356l-87 -104v-38l-13 -10l-56 72l156 108v419l71 -33h279v117l100 -22v-12l-36 -15v-68zM66 699l10 10q107 -80 107 -134q0 -19 -9.5 -34t-21.5 -15
q-18 0 -29 48q-15 63 -57 125z" />
  </g>

</svg>
