<?xml version="1.0" standalone="no"?>
<!DOCTYPE svg PUBLIC "-//W3C//DTD SVG 1.1//EN" "http://www.w3.org/Graphics/SVG/1.1/DTD/svg11.dtd" >
<svg xmlns="http://www.w3.org/2000/svg" xmlns:xlink="http://www.w3.org/1999/xlink" version="1.1" viewBox="0 -204 1024 1024">
  <g transform="matrix(1 0 0 -1 0 820)">
   <path fill="currentColor"
d="M492 954q22 -12 42 -27q20 -12 33 -22q15 -10 20 -21q5 -8 5 -14q0 -21 -6 -33q-2 -3 -5 -5h271l46 56q40 -27 77 -56q7 -3 7 -10q0 -18 -14 -18h-738v-278q0 -78 -7 -146q-4 -59 -16 -119q-12 -52 -32 -94q-15 -37 -42 -72q-21 -32 -61 -63l-14 10q27 25 45 59
q19 28 31 59q16 36 25 83q11 56 15 113q5 48 7 103q-11 -13 -21 -22q-25 -26 -58 -51q0 -40 -8 -40q-6 0 -62 70q26 10 58 25q30 12 54 30q19 10 38 23v32q1 215 -4 344l58 -38h314q-3 4 -5 12q-5 19 -17 34q-10 18 -20 32q-12 13 -34 32zM50 730q26 -20 43 -38
q23 -19 35 -34q13 -16 17 -30q7 -12 7 -22q0 -19 -7 -30q-8 -10 -17 -10q-7 0 -11 5q-5 3 -9 20q-6 24 -17 44q-9 22 -22 40q-13 20 -33 41zM314 658l62 -44h212v68q0 53 -4 78q56 -7 94 -20q12 -5 12 -14q0 -11 -12 -14q-20 -10 -42 -10v-88h212l32 44q34 -24 52 -43
q6 -7 6 -13q0 -11 -40 -32v-201l28 -20q6 -3 6 -7q0 -18 -8 -18h-288v-185q12 1 27 2q93 5 210 13l-6 8q-25 38 -71 78l12 18q65 -40 103 -81q35 -33 53 -68q12 -21 12 -45q0 -32 -26 -32q-10 0 -17 7q-8 8 -18 31q-13 34 -26 61q-111 -16 -196 -25q-101 -10 -193 -18
q-86 -10 -182 -16q-13 -40 -20 -40t-50 88q121 4 216 10q57 3 124 6v188h-220v-18q0 -14 -22 -14q-7 0 -20 7q-12 9 -12 21q0 18 3 47q7 24 7 97v124q0 39 -10 70zM368 354h220v230h-220v-230zM636 584v-230h218v230h-218z" />
  </g>

</svg>
