<?xml version="1.0" standalone="no"?>
<!DOCTYPE svg PUBLIC "-//W3C//DTD SVG 1.1//EN" "http://www.w3.org/Graphics/SVG/1.1/DTD/svg11.dtd" >
<svg xmlns="http://www.w3.org/2000/svg" xmlns:xlink="http://www.w3.org/1999/xlink" version="1.1" viewBox="0 -410 2048 2048">
  <g transform="matrix(1 0 0 -1 0 1638)">
   <path fill="currentColor"
d="M995 1354h-199q-117 0 -192 -8l-38 88q98 -23 230 -23h849l95 107l103 -80q53 -41 53 -57q0 -27 -40 -27h-702q-198 -192 -478 -369q532 14 977 45q-60 63 -117 105q-71 53 -93 69l23 28q20 -11 92 -49q300 -158 300 -272q0 -55 -48 -55q-40 0 -68 50q-29 52 -57 84
q-46 -7 -193 -25q-190 -28 -343 -40l85 -19q86 -19 86 -45q0 -30 -50 -43l-42 -11v-164h323l98 101l134 -106q17 -14 17 -27q0 -26 -27 -26h-551v-359h468l114 114l137 -110q20 -17 20 -39q0 -23 -31 -23h-1280q-117 0 -192 -8l-39 88q97 -22 231 -22h480v359h-316
q-108 0 -192 -8l-38 88q94 -22 230 -22h319v127q0 114 -7 152q-67 -6 -193 -17l-177 -17l-56 -5q-14 -69 -33 -69t-32 28l-69 143q52 19 133 83q154 124 296 286zM81 1550q246 -163 246 -284q0 -37 -23 -60q-14 -15 -31 -15q-40 0 -57 74q-20 86 -64 152q-23 34 -94 111z
M492 1682h631q-13 21 -26 72q-21 82 -125 194l24 26q101 -64 141 -101q71 -64 71 -128q0 -40 -23 -63h529l109 114l130 -114q23 -20 23 -32q0 -25 -27 -25h-1465v-439q0 -444 -77 -682q-85 -265 -279 -426l-27 27q136 156 204 371q57 180 81 526q-6 -7 -215 -234v-42
q0 -45 -22 -45q-20 0 -34 23l-77 121q146 62 348 237v445q0 70 -6 249z" />
  </g>

</svg>
