<?xml version="1.0" standalone="no"?>
<!DOCTYPE svg PUBLIC "-//W3C//DTD SVG 1.1//EN" "http://www.w3.org/Graphics/SVG/1.1/DTD/svg11.dtd" >
<svg xmlns="http://www.w3.org/2000/svg" xmlns:xlink="http://www.w3.org/1999/xlink" version="1.1" viewBox="0 -140 1000 1000">
  <g transform="matrix(1 0 0 -1 0 860)">
   <path fill="currentColor"
d="M270 527v22h246v93h-200v22h200v120l90 -22v-15l-27 -13l-1 -70l59 1l33 31h14l43 -40l-1 -14h-148v-93h74q56 60 86.5 101.5t83.5 131.5l74 -49l-7 -15h-34q-68 -95 -137 -169l128 1l43 40h13l49 -47v-17l-251 1q-58 -54 -70 -64.5t-41 -31.5l195 -1l28 27h20l43 -51
l-6 -18l-36 -3l-155 -80l19 -5v-13l-27 -10v-22l182 1l37 41h18l50 -48l-1 -16h-286v-100q0 -46 -21.5 -64.5t-87.5 -29.5l-11 8v28l-83 27l3 16l88 -9q31 0 39.5 6.5t8.5 32.5l1 85h-269v23l269 -1l-1 75l49 -13l108 91l-200 -1q-147 -111 -330 -182l-7 16q125 59 268 166
l-98 1v22l125 1q51 41 106 95zM88 40l-11 10q97 127 124 383l-91 -104l2 -31l-12 -9l-55 68l156 104v397l66 -33h295v112l100 -22v-12l-36 -15v-63h219l44 47h13l56 -54v-15h-694v-232q0 -195 -39.5 -314t-136.5 -217zM68 706l9 9q108 -78 108 -135q0 -17 -9 -32t-20 -15
q-18 0 -35 65q-12 45 -53 108z" />
  </g>

</svg>
