<?xml version="1.0" standalone="no"?>
<!DOCTYPE svg PUBLIC "-//W3C//DTD SVG 1.1//EN" "http://www.w3.org/Graphics/SVG/1.1/DTD/svg11.dtd" >
<svg xmlns="http://www.w3.org/2000/svg" xmlns:xlink="http://www.w3.org/1999/xlink" version="1.1" viewBox="0 -140 1000 1000">
  <g transform="matrix(1 0 0 -1 0 860)">
   <path fill="currentColor"
d="M271 603h106v155l88 -14v-15l-24 -11v-115h47l32 45h13l48 -53v-14h-140v-99q68 -28 89.5 -46t21.5 -49q0 -16 -9 -29.5t-19 -13.5q-12 0 -37 54q-10 22 -46 59v-393l-4 -8l-52 -13l-8 7v330q-29 -56 -56.5 -91.5t-86.5 -92.5l-10 9q57 75 90.5 160t57.5 216h-101v22z
M597 603h75v158l88 -16v-14l-24 -12v-116h111l35 45h14l47 -52v-15h-203q34 -133 80 -219t129 -172l-6 -9l-18 2q-22 0 -51 -32q-51 84 -78.5 150.5t-59.5 183.5v-424l-8 -11l-49 -11l-7 7v328q-57 -92 -98 -142.5t-99 -98.5l-11 9q83 99 129 198t75 241h-71v22zM186 847
l72 -31h255v122l94 -17v-15l-30 -13v-77h260l39 50h15l52 -58v-14h-690q1 -43 1 -147q0 -245 -29.5 -370.5t-127.5 -228.5l-11 9q44 73 66 148t34 232l-75 -75l-3 -27l-14 -5l-41 73l133 61q4 97 4 172q0 8 -2 124zM61 666l8 5q103 -60 103 -113q0 -17 -9.5 -30.5
t-21.5 -13.5q-10 0 -16 11t-14 44q-12 51 -50 97z" />
  </g>

</svg>
