<?xml version="1.0" standalone="no"?>
<!DOCTYPE svg PUBLIC "-//W3C//DTD SVG 1.1//EN" "http://www.w3.org/Graphics/SVG/1.1/DTD/svg11.dtd" >
<svg xmlns="http://www.w3.org/2000/svg" xmlns:xlink="http://www.w3.org/1999/xlink" version="1.1" viewBox="0 -204 1024 1024">
  <g transform="matrix(1 0 0 -1 0 820)">
   <path fill="currentColor"
d="M522 968q21 -10 34 -21q17 -12 29 -22q11 -10 13 -17q4 -7 4 -16q0 -19 -5 -29q-2 -3 -4 -5h261l48 56q40 -30 77 -56q7 -5 7 -14q0 -14 -14 -14h-720v-254q0 -86 -8 -162q-4 -66 -20 -137q-11 -55 -29 -103q-18 -43 -43 -83q-24 -34 -66 -71l-10 8q25 32 46 68
q17 32 32 67q15 41 23 96q12 61 19 126q3 30 4 62q-15 -11 -28 -21q-28 -23 -64 -50q0 -40 -10 -40q-6 0 -62 72q30 8 63 23q31 12 61 26q18 9 42 24q2 46 2 95q0 199 -4 316l56 -34h307q-2 4 -3 11q-4 14 -11 31q-7 15 -18 27q-9 15 -23 31zM54 774q26 -23 43 -44
q23 -22 34 -39q14 -21 20 -34q5 -14 5 -29q0 -16 -5 -26q-10 -14 -21 -14q-5 0 -9 6q-5 5 -9 24q-7 27 -17 50q-10 25 -22 45q-13 23 -33 47zM332 774l54 -36h409l27 40q74 -52 74 -70q0 -11 -52 -36q0 -191 7 -279q5 -83 20 -138q14 -56 36 -106q6 -11 13 -11q6 0 8 9
q10 20 44 145l10 -12q-14 -132 -14 -146q0 -19 6 -30q6 -15 6 -40q0 -28 -26 -28q-14 0 -27 18q-27 19 -54 73q-26 52 -45 118q-18 73 -24 167q-8 99 -8 292l-1 4h-411v-134q0 -86 -8 -163q-4 -66 -20 -136q-12 -55 -30 -102q-19 -43 -45 -82q-25 -35 -67 -71l-10 8
q25 32 47 68q18 32 33 66q14 41 24 95q14 61 19 126q9 83 9 191q0 125 -4 200zM408 636q43 -12 114 -12h142l38 40q29 -20 55 -42q7 -4 7 -8q0 -16 -12 -16h-132v-116h78l28 32q52 -32 52 -44t-26 -28v-130q6 -4 11 -8q5 -3 5 -6q0 -18 -8 -18h-140v-142h1q52 3 116 7
l-12 22q-10 20 -31 41l14 14q21 -21 41 -39q19 -20 31 -36q15 -16 19 -31q5 -12 5 -22q0 -18 -5 -27q-8 -9 -21 -9q-6 0 -10 4q-3 3 -6 23q-5 19 -13 36q-58 -9 -102 -14q-52 -6 -100 -11q-46 -6 -95 -10q-12 -36 -18 -36q-8 0 -48 80q70 1 124 3q29 1 60 3v144h-92v-4
q0 -7 -10 -13q-15 -5 -26 -5q-12 0 -12 12v244l62 -32h78v116h-48q-69 -1 -96 -6zM478 310h92v142h-92v-142zM620 452v-142h82v142h-82z" />
  </g>

</svg>
