<?xml version="1.0" standalone="no"?>
<!DOCTYPE svg PUBLIC "-//W3C//DTD SVG 1.1//EN" "http://www.w3.org/Graphics/SVG/1.1/DTD/svg11.dtd" >
<svg xmlns="http://www.w3.org/2000/svg" xmlns:xlink="http://www.w3.org/1999/xlink" version="1.1" viewBox="0 -140 1000 1000">
  <g transform="matrix(1 0 0 -1 0 860)">
   <path fill="currentColor"
d="M423 728l28 28h9l53 -47l-3 -12l-26 -9l-73 -151q78 -67 78 -150q0 -88 -98 -120l-7 5v22l-36 18v-229l-5 -12l-49 -16l-7 7l1 696l62 -30h73zM562 580h153l30 32h10l42 -41v-14h-235v23zM747 739l-7 -12l-28 -3q43 -50 94 -81.5t139 -62.5l-2 -10q-37 -1 -63 -32
q-63 41 -101 77t-85 98q-81 -109 -254 -179l-6 10q169 99 231 230zM524 490h249l23 21h9l43 -44l-3 -11l-24 -9l-26 -60h53l30 34h11l41 -44v-13h-437v23h243l33 80h-245v23zM857 278l33 36h10l42 -45v-13h-299l-82 -109l258 21q-13 13 -55 51l5 9q84 -38 114.5 -63
t30.5 -59q0 -41 -21 -41q-10 0 -23 22q-24 42 -39 64l-367 -66l-5 -27l-11 -3l-31 85l112 5l38 111h-99v22h389zM348 705v-375q20 -4 29 -4q13 0 28.5 11t22.5 25q7 15 7 44q0 56 -30 97q-18 25 -18 34q0 3 1 6.5t2.5 9.5t2.5 11l35 141h-80zM65 706l9 11q56 -41 77.5 -69
t21.5 -59q0 -16 -9 -30.5t-19 -14.5q-16 0 -27 38q-17 62 -22.5 75t-30.5 49zM525 813v116l93 -23v-10l-29 -19v-64h236l44 43h12l58 -52v-13h-683v-260q0 -146 -41.5 -253.5t-143.5 -230.5l-9 9q68 109 96.5 196t33.5 206l-79 -66l-3 -32l-15 -4l-42 70q32 12 107 47l32 15
v359l68 -34h265z" />
  </g>

</svg>
