<?xml version="1.0" standalone="no"?>
<!DOCTYPE svg PUBLIC "-//W3C//DTD SVG 1.1//EN" "http://www.w3.org/Graphics/SVG/1.1/DTD/svg11.dtd" >
<svg xmlns="http://www.w3.org/2000/svg" xmlns:xlink="http://www.w3.org/1999/xlink" version="1.1" viewBox="0 -204 1024 1024">
  <g transform="matrix(1 0 0 -1 0 820)">
   <path fill="currentColor"
d="M492 968q20 -10 34 -21q19 -12 28 -22q12 -10 16 -17t4 -16q0 -19 -6 -29l-1 -1h285l46 54q40 -28 73 -54q9 -5 9 -14q0 -16 -16 -16h-742v-222q0 -89 -7 -166q-2 -71 -16 -140q-12 -59 -29 -108q-16 -45 -42 -85q-23 -35 -60 -69l-14 8q26 29 43 66q19 33 31 72
q13 41 24 95q11 64 16 129q2 18 2 34q-7 -7 -12 -11q-23 -19 -50 -37q0 -40 -10 -40q-6 0 -62 72q24 5 54 16q27 8 50 19q16 8 31 16q3 59 3 129q1 178 -4 288l56 -36h308q0 4 -3 7q-4 14 -13 31q-6 15 -16 27q-10 15 -28 31zM54 778q22 -22 36 -43q19 -21 30 -38
q10 -20 14 -34q4 -12 4 -27q0 -17 -5 -26q-6 -12 -17 -12q-6 0 -11 5q-4 4 -7 22q-4 27 -13 49q-7 25 -18 45q-11 22 -27 45zM354 804q41 -14 72 -27q4 -6 4 -13q0 -6 -15 -9q-20 -3 -29 -3q-15 -34 -37 -64q-19 -30 -43 -55q-22 -22 -54 -49l-12 8q26 30 47 58q14 22 28 52
q16 28 26 51q8 25 13 51zM342 616q45 -14 80 -32q4 -6 4 -10q0 -9 -15 -12q-20 -4 -27 -4q-17 -39 -38 -75q44 -21 44 -31q0 -8 -32 -22v-300q0 -33 7 -50q3 -14 3 -22q0 -32 -36 -34q-22 0 -22 18v387q-6 -11 -12 -18q-25 -27 -58 -57l-18 6q31 38 49 70q17 26 31 60
q15 36 27 66q9 26 13 60zM536 792q44 -6 72 -15q12 -4 12 -13q0 -5 -9 -8q-11 -7 -23 -12v-152h48v80q0 49 -4 72q46 -4 77 -17q11 -7 11 -15q0 -9 -10 -11q-15 -9 -30 -11v-132q0 -22 -26 -22q-18 0 -18 26v4h-163q-4 -12 -21 -12q-22 0 -22 22v106q0 48 -4 70
q47 -6 79 -17q9 -5 9 -15q0 -9 -8 -12q-13 -8 -32 -10v-106h66v120q0 55 -4 80zM412 492q43 -10 114 -10h36l40 40q32 -23 57 -43q9 -4 9 -9q0 -18 -14 -18h-128q-69 -1 -96 -4zM438 408q50 -5 91 -15q11 -2 11 -13q0 -9 -14 -16q-14 -6 -30 -10v-102q0 -33 -7 -63
q-6 -29 -15 -48q-8 -22 -25 -40q-18 -20 -41 -37l-18 16q19 19 29 34q8 18 14 35q6 16 10 43q3 30 3 60v107q0 36 -8 49zM562 408q40 -5 68 -12q10 -4 10 -10q0 -7 -7 -10q-9 -7 -23 -12v-174q6 2 13 5q23 11 54 33q29 17 65 48v-14q-25 -35 -47 -56q-20 -22 -42 -40
q-17 -17 -39 -28q-8 -30 -12 -30q-5 0 -36 56q-2 7 -4 10q2 1 4 1v161q0 50 -4 72zM764 796q48 -16 85 -35q5 -6 5 -13t-18 -10q-24 -4 -32 -4q-14 -59 -32 -112q0 -2 -1 -2h91l40 44q34 -22 62 -46q8 -3 8 -8q0 -18 -14 -18h-49q-7 -79 -18 -146q-12 -72 -38 -128
q-13 -39 -31 -73q13 -20 27 -42q18 -32 52 -60q36 -34 81 -63l-2 -16q-42 0 -52 -18q-40 29 -64 58q-23 33 -47 71q-7 15 -14 31q-1 -1 -2 -3q-32 -49 -76 -90q-45 -45 -111 -81l-12 18q69 48 107 94q39 46 64 93q5 10 9 20q-2 4 -3 7q-16 47 -25 95q-15 57 -16 127l26 2
q4 -68 15 -124q8 -36 23 -69q8 21 13 38q20 54 32 122q8 58 14 137h-98q-11 -33 -24 -61q-17 -40 -45 -83l-14 12q18 48 34 90q11 36 20 81q11 45 20 84q6 37 10 81z" />
  </g>

</svg>
