<?xml version="1.0" standalone="no"?>
<!DOCTYPE svg PUBLIC "-//W3C//DTD SVG 1.1//EN" "http://www.w3.org/Graphics/SVG/1.1/DTD/svg11.dtd" >
<svg xmlns="http://www.w3.org/2000/svg" xmlns:xlink="http://www.w3.org/1999/xlink" version="1.1" viewBox="0 -410 2048 2048">
  <g transform="matrix(1 0 0 -1 0 1638)">
   <path fill="currentColor"
d="M1472 1148v-125h290l80 82l114 -86q17 -12 17 -26q0 -27 -27 -27h-756q-119 0 -192 -10l-38 89q92 -22 237 -22h180v125h-103q-120 0 -193 -10l-37 89q91 -22 236 -22h345l81 82l113 -86q18 -13 18 -26q0 -27 -30 -27h-335zM1771 742h33l73 70l91 -70q27 -21 27 -37
q0 -20 -27 -20h-197v-56l36 -23q35 -22 35 -38q0 -27 -22 -27h-529q-67 0 -149 -11l-39 87q122 -18 188 -18h382v86h-452q-70 0 -149 -11l-39 86q123 -18 188 -18h452v86h-387q-69 0 -149 -11l-39 87q122 -18 188 -18h375l61 72l72 -50q43 -29 43 -49q0 -17 -66 -53v-64z
M1731 1533l-23 -4q-291 -51 -649 -60v38q486 46 654 142l94 -70q20 -15 20 -32q0 -23 -31 -23q-8 0 -32 4zM1067 1441q73 -32 105 -52q59 -37 59 -87q0 -49 -45 -49q-32 0 -49 57q-12 41 -87 109zM1354 1463q131 -86 131 -153q0 -52 -45 -52q-34 0 -45 64q-8 53 -62 124z
M1736 1481l71 -35q49 -23 49 -43q0 -24 -49 -24h-24q-95 -69 -174 -110l-19 23q88 79 146 189zM1003 466l34 -5q-3 -124 -47 -199q-46 -78 -108 -78q-50 0 -50 42q0 18 14 34q6 6 69 46q50 32 88 160zM327 924q-51 -40 -61 -48q-74 -65 -91 -78v-32q0 -47 -19 -47
q-20 0 -68 68l-54 72q157 49 293 131q4 74 4 312q0 263 -8 516l112 -74h664q-13 18 -34 56q-31 56 -125 142l23 30q133 -62 175 -97q45 -37 45 -78q0 -26 -24 -53h562l106 113l141 -113q19 -15 19 -35q0 -22 -33 -22h-1527v-482q-6 -491 -61 -719q-58 -237 -232 -410l-31 27
q137 182 181 412q33 172 43 409zM75 1521q218 -143 218 -242q0 -60 -50 -60q-35 0 -64 84q-34 97 -128 192zM670 608q83 -30 126 -30q25 0 46 19q47 43 47 128q0 180 -163 356q76 212 120 382h-221v-1064q0 -96 12 -219q4 -31 4 -49q0 -47 -51 -47t-51 42v1459l112 -64h187
l61 72l72 -49q43 -30 43 -49q0 -27 -73 -51q-29 -51 -91 -194q-24 -54 -84 -169q111 -94 155 -176q55 -99 55 -207q0 -201 -188 -247q-2 52 -28 74t-100 47zM1124 507l90 -24q64 -17 71 -23q14 -10 14 -23q0 -22 -50 -42l-28 -11v-94q0 -50 28 -60q42 -15 178 -15
q140 0 179 6q58 10 76 76q1 4 16 95l33 -4v-55q0 -45 12 -66q6 -10 31 -27q25 -18 25 -35q0 -34 -80 -54q-65 -16 -338 -16q-150 0 -193 19q-56 25 -56 113v80q0 115 -8 160zM1771 463q111 -54 146 -81q75 -58 75 -113q0 -53 -44 -53q-29 0 -47 42q-48 110 -145 176z
M1365 512q85 -44 107 -59q64 -46 64 -93q0 -52 -42 -52q-18 0 -31 12q-10 9 -35 69q-21 50 -85 96z" />
  </g>

</svg>
