<?xml version="1.0" standalone="no"?>
<!DOCTYPE svg PUBLIC "-//W3C//DTD SVG 1.1//EN" "http://www.w3.org/Graphics/SVG/1.1/DTD/svg11.dtd" >
<svg xmlns="http://www.w3.org/2000/svg" xmlns:xlink="http://www.w3.org/1999/xlink" version="1.1" viewBox="0 -410 2048 2048">
  <g transform="matrix(1 0 0 -1 0 1638)">
   <path fill="currentColor"
d="M716 1726h828l69 76l84 -54q40 -26 40 -48q0 -27 -78 -62v-296q0 -93 13 -219q3 -32 3 -48q0 -49 -66 -49q-45 0 -45 22v41h-1107v-4q0 -54 -58 -54q-54 0 -54 47q0 15 4 48q13 94 13 210v276q-1 123 -11 201l113 -87h198q64 124 110 269l116 -53q35 -16 35 -33
q0 -23 -40 -28l-48 -6q-60 -78 -119 -149zM457 1669v-225h1107v225h-1107zM1564 1145v241h-1107v-241h1107zM976 217v280h-425l-155 -7q-22 0 -37 -3l-42 90q97 -22 234 -22h425v260h-543l-155 -7q-22 0 -37 -2l-42 89q97 -22 234 -22h1184l106 113l141 -113q19 -15 19 -35
q0 -23 -28 -23h-784v-260h444l106 113l141 -113q18 -15 18 -35q0 -23 -32 -23h-677v-280h647l104 118l152 -118q18 -14 18 -28q0 -30 -36 -30h-1652l-155 -7q-22 0 -37 -2l-42 89q97 -22 234 -22h672z" />
  </g>

</svg>
