<?xml version="1.0" standalone="no"?>
<!DOCTYPE svg PUBLIC "-//W3C//DTD SVG 1.1//EN" "http://www.w3.org/Graphics/SVG/1.1/DTD/svg11.dtd" >
<svg xmlns="http://www.w3.org/2000/svg" xmlns:xlink="http://www.w3.org/1999/xlink" version="1.1" viewBox="0 -140 1000 1000">
  <g transform="matrix(1 0 0 -1 0 860)">
   <path fill="currentColor"
d="M838 463l39 47h13l57 -55v-14h-194v-290q0 -22 9.5 -29.5t34.5 -7.5h46q34 0 48 44l26 91l14 -2l-12 -128l28 -13v-14q-34 -31 -88 -31h-85q-50 0 -67.5 13t-17.5 50v317h-95q-2 -58 -8.5 -100t-26 -88t-53 -80.5t-90 -69t-136.5 -63.5l-8 13q141 68 196.5 152.5
t58.5 235.5h-166v22h477zM259 740l31 32h15l49 -41v-13l-21 -15v-486l-5 -12l-48 -12l-11 5v39h-138v-66l-7 -10l-49 -13l-8 9v615l69 -32h24l46 189l84 -33v-16l-31 -7l-78 -133h78zM131 718v-219h138v219h-138zM131 476v-217h138v217h-138zM421 836h15l6 -40h174v136
l96 -18v-12l-31 -18v-88h168l32 33h15l52 -64l-9 -11l-29 -5l-60 -78l-13 5l17 97l-412 1q2 -40 2 -41q0 -42 -13 -68.5t-33 -26.5q-32 0 -32 38q0 19 7 30q36 52 42 67t6 63zM431 618h339l37 45l15 1l51 -54v-14h-442v22z" />
  </g>

</svg>
