<?xml version="1.0" standalone="no"?>
<!DOCTYPE svg PUBLIC "-//W3C//DTD SVG 1.1//EN" "http://www.w3.org/Graphics/SVG/1.1/DTD/svg11.dtd" >
<svg xmlns="http://www.w3.org/2000/svg" xmlns:xlink="http://www.w3.org/1999/xlink" version="1.1" viewBox="0 -410 2048 2048">
  <g transform="matrix(1 0 0 -1 0 1638)">
   <path fill="currentColor"
d="M976 1787v41q0 115 -8 160l124 -26q79 -16 79 -44q0 -27 -58 -43l-38 -11v-77h460l69 77l66 -55q44 -34 44 -53q0 -15 -12 -23q-9 -7 -25 -14q-13 -6 -39 -20v-150h127l93 95l106 -88q31 -26 31 -47q0 -18 -24 -18h-333v-161l25 -18q32 -20 32 -33q0 -21 -32 -21h-591
v-155h484h164l92 96l114 -96q28 -24 28 -36q0 -19 -28 -19h-376h-1241q-63 0 -148 -11l-40 83q120 -17 188 -17h667v155h-422q-67 0 -149 -11l-40 86q119 -17 189 -17h422v175h-694q-72 0 -149 -11l-39 86q117 -17 188 -17h694v182h-419q-67 0 -148 -11l-40 86
q121 -19 188 -19h419zM1072 1731v-182h471v182h-471zM1072 1491v-175h471v175h-471zM393 1036l34 -8q-40 -172 -112 -240q-61 -57 -119 -57q-55 0 -55 45q0 35 65 62q82 34 121 83q18 22 66 115zM796 1024q118 -136 118 -214q0 -68 -54 -68q-47 0 -47 50v38q0 71 -47 175z
M1225 1021q166 -131 166 -215q0 -67 -51 -67q-22 0 -36 15q-12 14 -27 87q-12 56 -79 152zM1657 1021q254 -124 254 -237q0 -60 -52 -60q-40 0 -58 53q-28 76 -65 121q-28 35 -98 91zM366 218v423q-3 94 -16 138l122 -88h1098l68 77l83 -55q47 -30 47 -47q0 -13 -12 -25
q-9 -9 -70 -38v-385h48l102 106l133 -106q19 -15 19 -35q0 -22 -33 -22h-1701q-69 0 -149 -11l-39 86q27 -4 41 -6q85 -12 147 -12h112zM462 218h298v415h-298v-415zM856 218h308v415h-308v-415zM1258 218h332v415h-332v-415z" />
  </g>

</svg>
