<?xml version="1.0" standalone="no"?>
<!DOCTYPE svg PUBLIC "-//W3C//DTD SVG 1.1//EN" "http://www.w3.org/Graphics/SVG/1.1/DTD/svg11.dtd" >
<svg xmlns="http://www.w3.org/2000/svg" xmlns:xlink="http://www.w3.org/1999/xlink" version="1.1" viewBox="0 -120 1000 1000">
  <g transform="matrix(1 0 0 -1 0 880)">
   <path fill="currentColor"
d="M40 104h117l2 181l56 -28l567 -1l19 27l66 -41q8 -6 9 -13q0 -7 -11 -10l-18 -5v-110h19l38 55l56 -64v-20h-907zM219 229l-1 -125h144v125h-143zM420 229v-125h157v125h-157zM634 229v-125h151v125h-151zM959 767q-47 -14 -59 -55q-122 36 -236 97q-74 40 -151 105
q-164 -117 -293 -171q-83 -35 -167 -55l-6 18q106 36 202 96q99 61 209 163l106 -22q12 -2 12 -10q0 -7 -11 -10l-23 -5q76 -52 217 -98q93 -29 200 -41v-12zM102 607l-13 26h516l27 73h-379l-14 27l397 -1l22 28l58 -37q11 -7 11 -16q0 -7 -10 -9l-23 -4l-26 -61h140l41 52
l80 -61l-1 -17h-325l1 -57h146l16 32l66 -43q11 -7 11 -13q0 -7 -10 -11l-18 -6v-215l-57 -9v18h-505v-16l-61 -7v300l72 -30h122l5 57h-289zM253 329h505v34h-505v-34zM436 525q-30 -57 -84 -85q-38 -20 -99 -30v-19h505v134h-155v-34q0 -15 18 -15h53q18 0 23 13l9 25
l13 -1l1 -18q1 -19 24 -27q-4 -24 -14 -30q-11 -8 -55 -8h-78q-25 0 -35 8q-11 8 -11 31v56h-115zM253 525v-93q42 9 72 31q28 20 53 62h-125zM448 607l-6 -57h109v57h-103zM365 782l-9 24h171l38 43l66 -51v-16h-266z" />
  </g>

</svg>
