<?xml version="1.0" standalone="no"?>
<!DOCTYPE svg PUBLIC "-//W3C//DTD SVG 1.1//EN" "http://www.w3.org/Graphics/SVG/1.1/DTD/svg11.dtd" >
<svg xmlns="http://www.w3.org/2000/svg" xmlns:xlink="http://www.w3.org/1999/xlink" version="1.1" viewBox="0 -200 1000 1000">
  <g transform="matrix(1 0 0 -1 0 800)">
   <path fill="currentColor"
d="M388 187h357l36 38l60 -49l-28 -31v-120h22l45 38l63 -61h-623l-76 -14l-26 37h108v188zM362 232v259l64 -30h301l27 34l55 -49l-26 -25v-160q-11 -5 -25 -13.5t-20 -8.5l-2 21h-324v-11zM670 25h90v138h-94v-134zM473 25v138h-75l-20 -11v-127h95zM528 25h90v138h-94
v-134zM548 371l-24 70h-94l-18 -11v-59h136zM736 371v70h-141v-70h141zM548 281v69h-136v-69h136zM595 350v-69h141v69h-141zM781 741l10 2h-361l39 -25l-23 -44v-25l142 20l39 41l82 -46l-263 -37v-33q0 -12 14.5 -15.5t30.5 -3.5h213q6 0 11 -1q22 0 35.5 5.5t20.5 15.5
t9.5 23.5t3.5 30.5l10 -1q1 -32 9 -45.5t17 -19t17 -8.5t10 -14v-1q-5 -14 -38.5 -19t-94.5 -7h-241q-48 2 -65.5 9.5t-18.5 31.5v42l-102 -18l-48 -15l-24 27l174 28v104h-177l38 -23l-15 -46q-4 -64 -3 -121t-2 -105v-25q0 -69 -10 -134.5t-30.5 -124t-52 -107.5
t-74.5 -84l-14 5q37 46 61 103.5t38 121.5t20 131.5t6 132.5q0 20 -0.5 39.5t-1.5 39.5q0 48 0.5 79.5t0.5 54.5q0 17 -0.5 31.5t-1.5 28.5l-56 -11l-36 35h313v206l77 -24l-19 -54v-31h220l55 44l75 -63h-350v-78h370l34 38q17 -3 34.5 -10t31.5 -16t22.5 -20t8.5 -21
q0 -15 -13 -14.5t-32 -1.5t-40 -16t-37 -57h-12q1 9 3.5 20t4.5 22t4 20t2 15q0 7 -5.5 12.5t-18.5 5.5h-26z" />
  </g>

</svg>
