<?xml version="1.0" standalone="no"?>
<!DOCTYPE svg PUBLIC "-//W3C//DTD SVG 1.1//EN" "http://www.w3.org/Graphics/SVG/1.1/DTD/svg11.dtd" >
<svg xmlns="http://www.w3.org/2000/svg" xmlns:xlink="http://www.w3.org/1999/xlink" version="1.1" viewBox="0 -204 1024 1024">
  <g transform="matrix(1 0 0 -1 0 820)">
   <path fill="currentColor"
d="M256 950q94 -21 94 -36q0 -14 -54 -16q-23 -41 -45 -72h245v50q0 54 -4 82q57 -7 94 -23q12 -6 12 -15q0 -7 -12 -11q-20 -9 -42 -11v-72h264l46 54q40 -27 73 -54q9 -5 9 -12q0 -18 -16 -18h-376v-92h216l44 48q36 -23 66 -49q10 -3 10 -9q0 -18 -14 -18h-322v-102h314
l48 54q38 -27 73 -54q7 -5 7 -12q0 -18 -14 -18h-816q-71 -1 -98 -4l-18 44q43 -10 116 -10h340v102h-182q-69 -1 -96 -4l-18 44q43 -12 114 -12h182v92h-270q-29 -38 -66 -66q-42 -33 -84 -58l-14 22q43 32 69 52q26 24 51 60q26 30 45 70q17 32 29 74zM212 514l58 -44h504
l34 44q36 -24 51 -43q7 -9 7 -15q0 -9 -36 -30v-226q0 -73 4 -96q2 -30 2 -46q0 -14 -12 -24q-14 -6 -20 -6q-22 0 -22 14v30h-520v-30q0 -14 -18 -14q-11 0 -24 6q-8 10 -8 24q0 16 1 46q5 23 5 96v246q0 39 -6 68zM262 102h520v98h-520v-98zM262 230h520v94h-520v-94z
M262 354h520v88h-520v-88z" />
  </g>

</svg>
