<?xml version="1.0" standalone="no"?>
<!DOCTYPE svg PUBLIC "-//W3C//DTD SVG 1.1//EN" "http://www.w3.org/Graphics/SVG/1.1/DTD/svg11.dtd" >
<svg xmlns="http://www.w3.org/2000/svg" xmlns:xlink="http://www.w3.org/1999/xlink" version="1.1" viewBox="0 -204 1024 1024">
  <g transform="matrix(1 0 0 -1 0 820)">
   <path fill="currentColor"
d="M72 932l58 -44h128l34 44q36 -20 51 -42q7 -8 7 -14q0 -8 -36 -32v-560q0 -74 3 -96q1 -30 1 -46q0 -14 -10 -24q-12 -6 -20 -6q-22 0 -22 12v46h-142v-46q0 -12 -22 -12q-8 0 -20 6q-10 10 -10 24q0 16 2 46q6 22 6 96v582q0 39 -8 66zM124 196h142v220h-142v-220z
M124 446h142v200h-142v-200zM124 672h142v190h-142v-190zM606 924q23 -14 38 -32q20 -16 31 -28q11 -16 15 -27q4 -9 4 -19q0 -21 -5 -30h209l30 34q33 -25 59 -50q3 -3 3 -8q0 -8 -17 -12t-31 -8q-15 -25 -40 -50q-22 -31 -48 -52l-14 12q22 30 37 55q15 29 21 51h-462
q-1 -10 -2 -19q-4 -33 -11 -53q-6 -20 -16 -30q-10 -12 -19 -16q-6 -6 -12 -6q-26 0 -26 18q0 7 11 21q26 33 38 59q13 20 20 51q7 27 7 73h12v-51q0 -11 -1 -19h215q-1 4 -2 9q-4 22 -12 40q-8 21 -21 37q-9 18 -25 40zM364 566q43 -12 114 -12h366l52 60q40 -32 75 -59
q9 -7 9 -15q0 -14 -16 -14h-284v-418q0 -34 -14 -50t-33 -27q-21 -11 -35 -11l-1 15q-2 14 -7 20q-11 11 -37 20q-30 12 -67 15v22q59 -14 106 -14q22 0 31 6q9 5 9 30v392h-154q-69 -1 -94 -4z" />
  </g>

</svg>
