<?xml version="1.0" standalone="no"?>
<!DOCTYPE svg PUBLIC "-//W3C//DTD SVG 1.1//EN" "http://www.w3.org/Graphics/SVG/1.1/DTD/svg11.dtd" >
<svg xmlns="http://www.w3.org/2000/svg" xmlns:xlink="http://www.w3.org/1999/xlink" version="1.1" viewBox="0 -410 2048 2048">
  <g transform="matrix(1 0 0 -1 0 1638)">
   <path fill="currentColor"
d="M1464 1186h-850v-54q0 -38 -50 -38q-62 0 -58 54l4 63l4 79l4 76v400q0 85 -13 176l118 -90h822l68 76l83 -54q40 -26 40 -48q0 -28 -77 -62v-375q0 -56 11 -223q1 -8 1 -13q0 -46 -70 -46q-37 0 -37 25v54zM614 1663h850v132h-850v-132zM614 1607v-145h850v145h-850z
M614 1406v-164h850v164h-850zM815 206h-524v-77q0 -37 -50 -37q-62 0 -58 54l4 63l4 79l4 76v502q0 80 -13 176l118 -90h495l68 76l83 -54q41 -27 41 -48q0 -28 -78 -62v-482q0 -55 11 -222q1 -8 1 -13q0 -46 -71 -46q-35 0 -35 24v81zM291 493h524v180h-524v-180zM291 437
v-175h524v175h-524zM815 729v166h-332h-192v-166h524zM1779 202h-553v-77q0 -37 -51 -37q-61 0 -57 55l4 61l4 80l4 76v502q0 86 -13 176l118 -90h525l67 76l84 -54q40 -26 40 -49q0 -26 -77 -61v-482q0 -55 11 -222q1 -8 1 -13q0 -46 -71 -46q-36 0 -36 24v81zM1226 736
h553v155h-553v-155zM1226 680v-183h553v183h-553zM1226 441v-183h553v183h-553z" />
  </g>

</svg>
