<?xml version="1.0" standalone="no"?>
<!DOCTYPE svg PUBLIC "-//W3C//DTD SVG 1.1//EN" "http://www.w3.org/Graphics/SVG/1.1/DTD/svg11.dtd" >
<svg xmlns="http://www.w3.org/2000/svg" xmlns:xlink="http://www.w3.org/1999/xlink" version="1.1" viewBox="0 -120 1000 1000">
  <g transform="matrix(1 0 0 -1 0 880)">
   <path fill="currentColor"
d="M57 426q40 111 55 187l62 -21q8 -3 8 -10q0 -8 -13 -11l-9 -2q-52 -102 -90 -151zM103 635l-9 -12q-6 -8 -10 -8q-6 0 -9 12l-16 60l88 4q88 118 132 193l60 -28q12 -5 12 -12q0 -8 -16 -10l-16 -2l-135 -139l115 7q-10 22 -27 44l9 11q36 -22 57 -45q31 -35 31 -61
q0 -17 -12 -28q-8 -7 -17 -7q-8 0 -12 5q-3 5 -21 58l-58 -12v-229l-53 -4v222zM167 834q23 -21 23 -46q0 -33 -24 -33q-11 0 -17 7q0 1 -23 46q-12 25 -37 54l8 11l54 -26q22 68 32 115l68 -25q12 -4 12 -11q0 -10 -19 -11h-13zM178 48v378l81 -25h499l15 26l63 -35
q12 -7 12 -14q0 -9 -15 -12l-13 -3v-298l-62 -8v25h-519v-25zM239 106h519v81h-519v-81zM239 283v-70h519v70h-519zM239 374v-67h519v66zM276 617q22 -19 39 -42q34 -45 34 -80q0 -27 -18 -36q-6 -3 -12 -3q-11 0 -14 9q-1 3 -13 68q-5 29 -25 78zM366 800l-9 24h214l31 37
l56 -41v-20h-292zM387 422l2 183l57 -29l105 1l23 29l49 -31q10 -7 10 -14q0 -9 -12 -11l-13 -2v-110l-51 -8v20h-120v-19zM437 552v-79l120 1v78h-120zM396 725l-7 25l144 -1l28 34l58 -45v-16zM400 639l-9 25h144l29 35l58 -45v-14zM611 892v-15h-209l-9 27h124l31 37z
M631 440q23 56 32 89q8 29 21 87l56 -27q10 -5 10 -11q0 -7 -13 -11l-11 -3q-38 -71 -82 -132zM673 636l-5 -9q-5 -8 -10 -8t-9 10l-17 56l77 5q82 111 134 190l60 -27q14 -6 14 -14t-16 -10l-20 -1l-135 -137l113 6l-28 46l13 9q91 -59 91 -110q0 -15 -10 -25q-9 -7 -19 -7
q-9 0 -15 9q-1 1 -13 37q-4 10 -8 18l-57 -10l2 -220l-54 -8v219zM734 835q17 -25 17 -45q0 -18 -11 -29q-6 -6 -15 -6q-16 0 -23 23q-18 60 -52 99l7 11q28 -14 59 -36l49 111l64 -33q7 -4 7 -12q0 -9 -13 -10h-19zM842 615q29 -21 53 -51q35 -44 35 -75q0 -14 -7.5 -24.5
t-17.5 -10.5q-19 0 -28 37q-16 67 -47 115z" />
  </g>

</svg>
