<?xml version="1.0" standalone="no"?>
<!DOCTYPE svg PUBLIC "-//W3C//DTD SVG 1.1//EN" "http://www.w3.org/Graphics/SVG/1.1/DTD/svg11.dtd" >
<svg xmlns="http://www.w3.org/2000/svg" xmlns:xlink="http://www.w3.org/1999/xlink" version="1.1" viewBox="0 -410 2048 2048">
  <g transform="matrix(1 0 0 -1 0 1638)">
   <path fill="currentColor"
d="M1715 835l84 101l118 -72q36 -22 36 -44q0 -17 -26 -20l-699 -84q35 -132 139 -280q170 130 275 284l122 -64q29 -15 29 -31q0 -27 -43 -27h-54q-158 -146 -275 -226q73 -73 176 -125q104 -53 169 -53q25 0 38 16q13 15 35 84l63 194l34 -16l-29 -166q-3 -21 -3 -45
q0 -51 38 -89q24 -25 24 -45q0 -56 -116 -56q-263 0 -510 244q-163 -94 -313 -145q-98 -33 -292 -80l-12 42q290 72 564 249q-94 126 -152 323l-219 -30q-39 -8 -77 -22l-66 78l143 12l202 23q-31 132 -51 299l132 -14q71 -8 71 -31q0 -30 -87 -61q8 -80 29 -181zM1428 1959
q103 -37 133 -57q61 -40 61 -89q0 -51 -42 -51q-29 0 -52 45q-37 73 -120 124zM1426 1079q84 -30 134 -61q52 -32 52 -81q0 -55 -42 -55q-16 0 -48 50q-46 72 -117 114zM456 1696q-75 -327 -149 -510l54 -30h274l61 73l72 -49q40 -27 40 -48q0 -25 -69 -58v-685l29 -19
q41 -25 41 -51q0 -16 -29 -16h-441v-27q0 -46 -65 -46q-31 0 -31 28v770q-68 -141 -176 -277l-26 20q246 454 308 925h-90q-68 0 -149 -11l-39 86q126 -18 188 -18h356l98 101l121 -107q17 -14 17 -25q0 -26 -27 -26h-368zM339 361h308v739h-308v-739zM1669 1696l73 102
l130 -76q30 -17 30 -38q0 -23 -30 -26l-631 -66q42 -124 128 -242q142 113 239 239l108 -53q35 -17 35 -32q0 -25 -50 -25h-46q-37 -31 -107 -90q-51 -43 -125 -99q183 -140 306 -140q21 0 32 13q13 15 33 69l68 187l33 -11l-30 -158q-2 -14 -2 -28q0 -54 39 -100
q23 -25 23 -46q0 -47 -92 -47q-233 0 -490 209q-229 -119 -473 -158l-12 34q272 79 435 188q-87 117 -145 282l-203 -21q-46 -8 -90 -21l-66 73l114 9l226 20q-23 105 -36 174q-17 90 -26 132l166 -19q39 -4 39 -27q0 -12 -8 -18q-7 -6 -81 -38l11 -54l13 -68l14 -72z" />
  </g>

</svg>
