<?xml version="1.0" standalone="no"?>
<!DOCTYPE svg PUBLIC "-//W3C//DTD SVG 1.1//EN" "http://www.w3.org/Graphics/SVG/1.1/DTD/svg11.dtd" >
<svg xmlns="http://www.w3.org/2000/svg" xmlns:xlink="http://www.w3.org/1999/xlink" version="1.1" viewBox="0 -140 1000 1000">
  <g transform="matrix(1 0 0 -1 0 860)">
   <path fill="currentColor"
d="M412 333v21h347v115l89 -17v-12l-24 -14v-72h17l38 48h16l51 -54v-15h-122v-185q0 -50 -17 -68t-89 -31l-9 7v26l-86 38l3 11l100 -12q33 0 33 41v173h-207q79 -67 79 -106q0 -17 -10.5 -33.5t-21.5 -16.5q-19 0 -27 32q-13 57 -18 71.5t-27 52.5h-115zM490 933l67 -26
h249l22 28h15l56 -42v-15l-25 -23v-258l-9 -10l-44 -11l-11 4v28h-255v-27l-7 -8l-48 -12l-10 7v365zM810 749h-255v-120h255v120zM810 886h-255v-116h255v116zM136 87v410q-32 -47 -71 -82l-12 8q61 96 92 179.5t62 231.5h-143v21h283l35 43h15l54 -50v-14h-180
q-37 -150 -90 -270l26 -17h113l27 37h18l53 -41v-15l-25 -25v-363l-8 -10l-49 -12l-8 6v49h-128v-70l-7 -12l-49 -11zM200 526v-332h128v332h-128zM424 475v21h408l37 44h12l52 -52v-13h-509z" />
  </g>

</svg>
