<?xml version="1.0" standalone="no"?>
<!DOCTYPE svg PUBLIC "-//W3C//DTD SVG 1.1//EN" "http://www.w3.org/Graphics/SVG/1.1/DTD/svg11.dtd" >
<svg xmlns="http://www.w3.org/2000/svg" xmlns:xlink="http://www.w3.org/1999/xlink" version="1.1" viewBox="0 -120 1000 1000">
  <g transform="matrix(1 0 0 -1 0 880)">
   <path fill="currentColor"
d="M30 338q114 217 137 483h-122l-10 26h235l39 48l70 -56v-18h-143q-24 -137 -74 -274l105 1l22 34l58 -39q14 -9 14 -16q0 -8 -13 -11l-21 -5v-347l-56 -8v43h-100l-1 -109l-53 -10l1 364q-35 -61 -72 -116zM171 523v-299h100v299h-100zM289 73q86 27 147 64
q79 47 116 105q14 22 27 57h-226l-7 25l239 2q11 44 15 98l74 -11q16 -3 16 -14q0 -8 -11 -13l-17 -8l-10 -54l179 2l46 56l80 -62v-20l-302 -1q48 -62 116 -100q54 -30 198 -70l-3 -13q-24 -4 -33 -12q-14 -12 -26 -40q-91 34 -163 94q-58 48 -105 130q-29 -79 -92 -128
q-71 -55 -187 -89q-38 -11 -65 -15zM383 857l-14 27h464l42 56l80 -67v-16h-296l-53 -108h229l21 36l68 -40q9 -5 9 -13t-14 -12l-19 -6v-245q0 -24 -12 -34q-26 -21 -51 -21q-7 0 -10 3q-2 3 -4 18q-3 17 -17 22l-34 10v15h68l2 242h-94l-3 -262l-56 -10v272h-97v-266
l-56 -9v275h-81l-1 -291l-58 -10l-1 363l66 -37h110l13 108h-201z" />
  </g>

</svg>
