<?xml version="1.0" standalone="no"?>
<!DOCTYPE svg PUBLIC "-//W3C//DTD SVG 1.1//EN" "http://www.w3.org/Graphics/SVG/1.1/DTD/svg11.dtd" >
<svg xmlns="http://www.w3.org/2000/svg" xmlns:xlink="http://www.w3.org/1999/xlink" version="1.1" viewBox="0 -140 1000 1000">
  <g transform="matrix(1 0 0 -1 0 860)">
   <path fill="currentColor"
d="M58 363h772l41 50h14l60 -58v-14h-403v-211q0 -34 -18 -49t-85 -34l-12 9v28l-82 39l3 11l79 -11q5 -1 17 -1q33 0 33 31v188h-419v22zM531 592h269v121l93 -24v-14l-29 -11l-1 -115l-4 -13l-47 -10l-12 5v39h-594v-42l-7 -11l-50 -14l-8 7v188l95 -20v-17l-30 -12v-57
h261v171h-223v-20l-7 -12l-44 -10l-13 5v183l95 -22v-16l-31 -13v-73h223v143l102 -16v-17l-38 -15v-95h219v133l94 -23v-14l-30 -12v-122l-6 -10l-51 -10l-7 6v30h-219v-171zM76 68l-7 12q108 78 154.5 119t98.5 105l78 -52l-10 -14h-29q-132 -106 -285 -170zM639 280l7 12
q155 -44 210 -75q69 -40 69 -89q0 -37 -18 -37q-16 0 -43 30q-76 85 -225 159zM231 466h416l42 47h15l55 -56v-13h-528v22z" />
  </g>

</svg>
