<?xml version="1.0" standalone="no"?>
<!DOCTYPE svg PUBLIC "-//W3C//DTD SVG 1.1//EN" "http://www.w3.org/Graphics/SVG/1.1/DTD/svg11.dtd" >
<svg xmlns="http://www.w3.org/2000/svg" xmlns:xlink="http://www.w3.org/1999/xlink" version="1.1" viewBox="0 -140 1000 1000">
  <g transform="matrix(1 0 0 -1 0 860)">
   <path fill="currentColor"
d="M799 387h-269v-253h269v253zM511 575h218l35 42h14l56 -48v-17h-323v23zM122 870h186l39 39h15l51 -43v-19h-291v23zM360 705l35 38h16l55 -43v-18h-179l1 -600l-7 -14l-49 -16l-9 9v621h-154v23h291zM340 594l92 -20v-17l-29 -12v-312l-6 -15l-50 -15l-8 9zM196 574
l1 -17l-26 -10q-1 -147 -23.5 -243t-79.5 -194l-10 8q52 123 52 350q0 42 -3 126zM741 885l-8 -18l-31 -4q40 -81 107 -157t146 -128l-7 -14q-41 0 -67 -20q-127 131 -196 301q-96 -201 -262 -332l-9 13q73 76 133 183.5t92 222.5zM790 409l29 34l14 1l57 -50v-12l-27 -19
v-268l-5 -13l-52 -17l-7 8v39h-269v-26l-8 -15l-46 -17l-9 8l-1 377l68 -30h256z" />
  </g>

</svg>
