<?xml version="1.0" standalone="no"?>
<!DOCTYPE svg PUBLIC "-//W3C//DTD SVG 1.1//EN" "http://www.w3.org/Graphics/SVG/1.1/DTD/svg11.dtd" >
<svg xmlns="http://www.w3.org/2000/svg" xmlns:xlink="http://www.w3.org/1999/xlink" version="1.1" viewBox="0 -410 2048 2048">
  <g transform="matrix(1 0 0 -1 0 1638)">
   <path fill="currentColor"
d="M1394 1716h346l99 102l120 -107q17 -15 17 -25q0 -27 -27 -27h-866q-120 0 -192 -8l-38 88q99 -23 230 -23h275q-24 16 -44 74q-27 83 -113 156l28 32q96 -57 137 -92q65 -54 65 -111q0 -43 -37 -59zM1611 1483l60 72l80 -50q42 -26 42 -49q0 -12 -8 -19q-1 0 -58 -33
v-181q49 -34 49 -54q0 -25 -42 -25h-612v-23q0 -46 -53 -46q-42 0 -42 34q0 4 4 96v342l110 -64h470zM1122 1429v-229h509v229h-509zM1793 972l67 77l83 -54q40 -26 40 -48q0 -27 -77 -61v-632q0 -142 -155 -171q-12 71 -44 92.5t-161 44.5l7 45q165 -27 201 -27q58 0 58 58
v618h-861v-749q0 -58 -4 -65q-9 -13 -38 -13q-59 0 -59 54q0 18 3 69q7 112 7 206v512q0 77 -15 137l119 -93h829zM1522 730l61 73l80 -50q42 -27 42 -50q0 -11 -9 -18q0 -1 -57 -34v-191q49 -34 49 -54q0 -25 -42 -25h-449v-23q0 -43 -55 -43q-39 0 -39 30q0 3 4 97v352
l123 -64h292zM1201 676v-239h345v239h-345zM292 1969q132 -79 162 -104q85 -70 85 -138q0 -65 -54 -65q-24 0 -37 18q-8 10 -34 81q-29 78 -147 179zM407 1024q-160 -137 -294 -217l-23 34q353 266 559 713h-314q-120 0 -192 -8l-35 88q105 -23 227 -23h314l59 72l84 -58
q38 -26 38 -51q0 -22 -85 -51q-95 -189 -221 -367q278 -139 278 -246q0 -35 -26 -55q-16 -11 -33 -11q-34 0 -60 63q-41 99 -180 221v-764q0 -4 5 -139q5 -74 5 -93q0 -73 -58 -73q-48 0 -48 37v928z" />
  </g>

</svg>
