<?xml version="1.0" standalone="no"?>
<!DOCTYPE svg PUBLIC "-//W3C//DTD SVG 1.1//EN" "http://www.w3.org/Graphics/SVG/1.1/DTD/svg11.dtd" >
<svg xmlns="http://www.w3.org/2000/svg" xmlns:xlink="http://www.w3.org/1999/xlink" version="1.1" viewBox="0 -410 2048 2048">
  <g transform="matrix(1 0 0 -1 0 1638)">
   <path fill="currentColor"
d="M834 1771l-34 87q98 -21 226 -21h712l94 94l107 -83q31 -24 31 -42q0 -27 -27 -27h-385v-183h202l68 76l84 -56q40 -27 40 -47q0 -29 -76 -60v-129q0 -40 7 -104q3 -29 3 -45q0 -48 -64 -48q-42 0 -42 23v38h-845v-23q0 -9 -12 -20q-18 -16 -40 -16q-49 0 -49 45
q0 2 4 49q6 101 6 104v277l121 -64h191v183h-130q-116 0 -192 -8zM1465 1596v183h-221v-183h221zM1558 1298h222v240h-222v-240zM1244 1298h221v240h-221v-240zM935 1298h221v240h-221v-240zM924 1165l121 -58h631l68 76l84 -54q40 -26 40 -49q0 -27 -76 -61v-250
q0 -42 6 -104q3 -29 3 -44q0 -49 -67 -49q-39 0 -39 26v28h-287v-168h357l92 94l104 -82q36 -28 36 -45q0 -25 -27 -25h-562v-93q0 -18 8 -140q2 -33 2 -45q0 -50 -57 -50q-43 0 -43 30v298h-370q-117 0 -192 -8l-35 87q98 -21 227 -21h370v168h-303v-25q0 -31 -49 -31
q-52 0 -52 45q0 4 4 49q6 98 6 105v396zM1015 897h680v156h-680v-156zM1015 682h680v157h-680v-157zM302 1989q129 -75 174 -113q75 -64 75 -127q0 -65 -59 -65q-33 0 -48 42q-33 92 -70 139q-36 46 -96 94zM474 1130v-795q0 -31 8 -156q2 -37 2 -58q0 -60 -60 -60
q-45 0 -45 35v947q-168 -150 -313 -233l-20 32q24 20 115 93q156 124 290 318q100 144 165 306h-309q-117 0 -192 -8l-35 87q106 -22 227 -22h309l59 70l84 -57q38 -26 38 -50q0 -22 -84 -52q-91 -191 -222 -357q309 -139 309 -241q0 -63 -57 -63q-29 0 -64 61
q-72 123 -205 203z" />
  </g>

</svg>
