<?xml version="1.0" standalone="no"?>
<!DOCTYPE svg PUBLIC "-//W3C//DTD SVG 1.1//EN" "http://www.w3.org/Graphics/SVG/1.1/DTD/svg11.dtd" >
<svg xmlns="http://www.w3.org/2000/svg" xmlns:xlink="http://www.w3.org/1999/xlink" version="1.1" viewBox="0 -204 1024 1024">
  <g transform="matrix(1 0 0 -1 0 820)">
   <path fill="currentColor"
d="M376 892q-42 -19 -87 -33q-17 -4 -30 -10v-210h100l41 45q34 -25 65 -50q6 -4 6 -10q0 -13 -13 -13h-198q-1 -2 -1 -3v-65q34 -19 57 -41q29 -20 44 -36q18 -14 24 -24q6 -9 9 -20q4 -7 4 -16q-1 -30 -21 -30q-6 0 -11 4q-6 6 -24 37q-17 32 -40 58q-16 19 -42 43v-408
q0 -22 1 -31v-28q0 -34 -30 -34q-25 0 -25 17q0 21 3 55q4 33 4 59v331q-18 -41 -41 -75q-25 -43 -56 -86q-32 -40 -78 -86l-13 18q41 51 69 98q29 43 51 96q22 43 37 92q14 40 22 75h-53q-72 -2 -99 -7l-19 47q44 -12 118 -12h62v200q-17 -4 -35 -7q-47 -6 -119 -11l-7 22
q38 3 80 13q40 7 78 19q41 13 69 28q27 12 47 25q15 12 27 25q39 -24 70 -47q4 -4 4 -8q0 -13 -14 -13q-15 0 -36 7zM439 890q40 -8 115 -8h307l33 28q38 -32 63 -62q5 -6 5 -12t-19 -9q-31 -2 -39 -2q-51 -52 -106 -95q-35 -31 -65 -52q3 -1 4 -2q11 -6 11 -13
q0 -6 -14 -10q-16 -6 -29 -12v-135h154l48 56q40 -31 75 -58q9 -5 9 -12q0 -13 -15 -13h-271v-366q0 -35 -18 -51q-13 -17 -41 -27q-20 -11 -39 -11q-4 23 -18 39q-11 11 -29 16q-26 12 -64 14v25q56 -14 101 -14q37 0 46 5q12 5 12 29v341h-154q-72 -2 -98 -7l-19 47
q43 -13 117 -13h154v97q0 55 -10 109q41 -11 71 -24q36 33 62 62q35 40 74 96v9h-298q-80 0 -96 -8z" />
  </g>

</svg>
