<?xml version="1.0" standalone="no"?>
<!DOCTYPE svg PUBLIC "-//W3C//DTD SVG 1.1//EN" "http://www.w3.org/Graphics/SVG/1.1/DTD/svg11.dtd" >
<svg xmlns="http://www.w3.org/2000/svg" xmlns:xlink="http://www.w3.org/1999/xlink" version="1.1" viewBox="0 -200 1000 1000">
  <g transform="matrix(1 0 0 -1 0 800)">
   <path fill="currentColor"
d="M790 718l-92 -52h110l53 43l77 -64h-220v-72h51l55 40l73 -63h-179v-71h59l53 43l71 -65h-183v-73h113l52 41l75 -64h-424v-22q-11 -7 -24.5 -12t-30.5 -10v241q-9 -11 -23 -23.5t-28.5 -24t-28 -19t-20.5 -7.5h-2l-7 1q31 32 58 69.5t48.5 75t36 72t20.5 60.5l1 66h-81
l-58 -11l-24 36h163v117l82 -37l-26 -54v-26h124v116l76 -37l-22 -55v-24h69l55 44l70 -69h-194v-57q-11 -10 -26 -16t-28 -6v79h-124v-66l-9 -9l31 -34l-31 -14l-29 -39h125l45 74zM283 1q-8 -12 -20 -18.5t-32 -11.5v513q-42 -97 -83 -164t-83 -112l-12 6q31 52 57 109.5
t47.5 115.5t38 113.5t27.5 102.5h-84l-57 -13l-25 34h174v186q-18 -3 -42 -7.5t-47 -8t-42 -6.5t-27 -3v12q42 12 84.5 26t80 29.5t69 32.5t51.5 34l53 -75l-46 -4l-84 -21v-195h37l47 48l73 -69h-157v-117q74 -38 101 -66.5t27 -54.5v-9q-2 -19 -13.5 -35t-23.5 -16
q-8 0 -15 10t-10 34q-5 31 -20.5 56t-43.5 57v-513zM784 -17q-23 23 -51.5 49.5t-58.5 47.5q-72 -51 -150 -81.5t-150 -35.5l-3 5q88 32 152.5 67.5t110.5 72.5q-45 29 -83.5 50.5t-58.5 32.5l4 4q32 -12 73.5 -30t86.5 -38q51 42 79.5 76t46.5 57h-262l-57 -10l-15 32h333
l41 43l77 -61l-58 -34q-28 -31 -61.5 -61.5t-75.5 -61.5q31 -16 56.5 -28.5t42.5 -24.5t26.5 -24.5t9.5 -28.5q0 -30 -24 -30q-14 0 -29 16zM534 384h131v73h-131v-73zM534 573h131v72h-132zM534 479h131v71h-131v-71z" />
  </g>

</svg>
