<?xml version="1.0" standalone="no"?>
<!DOCTYPE svg PUBLIC "-//W3C//DTD SVG 1.1//EN" "http://www.w3.org/Graphics/SVG/1.1/DTD/svg11.dtd" >
<svg xmlns="http://www.w3.org/2000/svg" xmlns:xlink="http://www.w3.org/1999/xlink" version="1.1" viewBox="0 -410 2048 2048">
  <g transform="matrix(1 0 0 -1 0 1638)">
   <path fill="currentColor"
d="M360 994q-101 -260 -291 -497l-30 23q24 43 36 64q165 284 246 662l4 21h-98q-64 0 -149 -11l-39 86q119 -17 188 -17h133v391q-126 -24 -301 -36l-3 36q422 91 582 204l99 -90q18 -16 18 -31q0 -23 -29 -21q-4 0 -8 1l-67 12q-103 -36 -194 -57v-409h122l92 91l114 -91
q21 -17 21 -36q0 -22 -28 -22h-321v-130q265 -101 265 -206q0 -54 -47 -54q-27 0 -47 23q-4 4 -33 55q-36 60 -138 131v-705q0 -99 11 -210q3 -32 3 -49q0 -47 -54 -47q-57 0 -57 42v877zM1571 1729v-40q0 -10 2 -32q2 -27 2 -36q0 -44 -61 -44q-40 0 -40 30v184
q0 118 -7 159l109 -24q86 -19 86 -45q0 -28 -50 -42l-41 -11v-41h203l80 80l112 -84q19 -15 19 -28q0 -26 -27 -26h-387zM1133 1729h-155q-61 0 -149 -10l-39 86q117 -18 188 -18h155v18q0 111 -8 153l109 -24q86 -19 86 -46q0 -28 -49 -41l-42 -12v-116q0 -18 3 -74
q1 -8 1 -15q0 -41 -61 -41q-39 0 -39 29v111zM859 654q91 -17 225 -17h605l77 72l99 -67q27 -18 27 -38q0 -23 -27 -28l-76 -15q-107 -114 -153 -154q-60 -51 -139 -99q112 -43 247 -63q47 -7 271 -19v-36q-61 -7 -89 -30q-18 -15 -38 -55q-252 38 -484 148
q-256 -119 -709 -157l-3 39q369 54 617 169q-200 134 -305 276h-26q-8 0 -26 -2q-26 -4 -60 -7zM1065 580q144 -140 333 -234q151 94 271 234h-604zM1030 1614l133 -65q23 -11 23 -28q0 -23 -36 -29l-48 -8l-38 -54h324q-28 100 -106 162l21 28q170 -72 170 -144
q0 -29 -27 -46h273l90 92l111 -87q24 -19 24 -39q0 -22 -24 -22h-458v-146h207l80 80l110 -80q21 -15 21 -34q0 -24 -25 -24h-393v-144h207l80 81l117 -85q17 -13 17 -28q0 -22 -24 -22h-397v-148h306l87 86l111 -83q23 -17 23 -38q0 -24 -23 -24h-915v-29q0 -31 -52 -31
q-55 0 -53 45q1 13 4 48q5 61 5 104v377q-98 -109 -221 -198l-23 26q227 243 319 507zM1051 824h316v148h-316v-148zM1051 1026h316v144h-316v-144zM1367 1228v146h-316v-146h316z" />
  </g>

</svg>
