<?xml version="1.0" standalone="no"?>
<!DOCTYPE svg PUBLIC "-//W3C//DTD SVG 1.1//EN" "http://www.w3.org/Graphics/SVG/1.1/DTD/svg11.dtd" >
<svg xmlns="http://www.w3.org/2000/svg" xmlns:xlink="http://www.w3.org/1999/xlink" version="1.1" viewBox="0 -140 1000 1000">
  <g transform="matrix(1 0 0 -1 0 860)">
   <path fill="currentColor"
d="M933 530l-2 -15q-37 -16 -48 -55q-124 29 -202.5 73t-164.5 133q-99 -91 -194.5 -139.5t-235.5 -79.5l-5 15q145 50 240 115.5t171 166.5l81 -53l-5 -15l-29 -3q94 -70 181.5 -101.5t212.5 -41.5zM591 506l36 40h15l51 -48v-14h-364v22h262zM475 936l102 -19v-13l-38 -16
v-62h298l31 31h16l48 -54l-7 -11l-30 -5l-71 -61l-14 7l27 70h-183v-57q0 -23 10.5 -30.5t36.5 -7.5h115q26 0 37.5 6.5t25.5 29.5l18 30l14 -3l-4 -56l27 -15v-14q-38 -28 -111 -28h-144q-53 0 -71 15.5t-18 61.5v68h-166q-37 -93 -111 -141t-203 -74l-5 15
q108 35 167 83.5t83 116.5h-172q-1 -39 -17.5 -74.5t-34 -52.5t-27.5 -17q-22 0 -22 50q0 19 12 30q42 37 54 58t18 68h17v-39h292v110zM630 437l73 -39l-4 -12l-27 -4l-93 -126q95 -112 95 -147q0 -20 -9.5 -37t-19.5 -17q-19 0 -29 55q-13 63 -67 144zM795 425l69 -42
l-4 -12l-27 -3l-109 -112q110 -105 110 -150q0 -19 -9 -36.5t-19 -17.5q-16 0 -33 56q-16 56 -79 146zM451 413l27 28l12 -2l62 -43v-15l-28 -25v-207q0 -50 -12.5 -64t-81.5 -32l-10 7l1 27l-73 25l3 12l74 -10q3 -1 12 -1q16 0 19.5 10t3.5 39v42h-198l-6 -129l-5 -12
l-51 -15l-8 9l6 391l75 -35h178zM460 391h-198v-69h198v69zM460 299h-198v-72h198v72z" />
  </g>

</svg>
