<?xml version="1.0" standalone="no"?>
<!DOCTYPE svg PUBLIC "-//W3C//DTD SVG 1.1//EN" "http://www.w3.org/Graphics/SVG/1.1/DTD/svg11.dtd" >
<svg xmlns="http://www.w3.org/2000/svg" xmlns:xlink="http://www.w3.org/1999/xlink" version="1.1" viewBox="0 -410 2048 2048">
  <g transform="matrix(1 0 0 -1 0 1638)">
   <path fill="currentColor"
d="M671 1482l95 -28q65 -20 65 -45q0 -27 -54 -40l-42 -11q-79 -524 -182 -853q106 38 251 99l17 -39q-283 -156 -482 -225q-100 -34 -141 -55l-4 -24q-7 -49 -31 -49q-23 0 -44 49l-51 123q82 10 226 43q-41 22 -41 80q0 11 12 126q7 61 7 184q0 213 -93 661q-18 -1 -60 -6
l-39 85q126 -17 189 -17h190q-24 10 -31 27q-7 15 -19 75q-25 125 -140 261l25 25q123 -111 157 -150q76 -88 76 -160q0 -62 -48 -78h179l80 80l114 -86q17 -13 17 -26q0 -26 -27 -26h-171zM640 1482h-414h-10l7 -27q105 -377 127 -500q30 -169 30 -322q0 -155 -36 -193
q53 14 147 44q108 481 149 998zM1377 411q203 211 332 488h-613q-103 0 -173 -8l-34 88q84 -22 207 -22h605l71 77l93 -98q24 -25 24 -35q0 -18 -24 -25l-60 -17q-136 -228 -394 -478q166 -159 166 -246q0 -60 -49 -60q-24 0 -45 26q-11 14 -44 73q-121 215 -361 416l21 35
q29 -21 134 -95q12 -8 123 -101zM1303 1989l138 -50q40 -14 40 -33q0 -22 -26 -30l-44 -13q243 -441 585 -559l-5 -41q-81 -3 -120 -70q-170 123 -287 280q-102 136 -212 361q-96 -244 -244 -420q-103 -123 -203 -201q-32 -25 -122 -91l-26 34q198 171 321 363
q123 194 205 470zM1066 1195l-34 85q109 -17 168 -17h338l72 81l102 -86q16 -14 16 -26q0 -26 -25 -26h-503q-52 0 -134 -11z" />
  </g>

</svg>
