<?xml version="1.0" standalone="no"?>
<!DOCTYPE svg PUBLIC "-//W3C//DTD SVG 1.1//EN" "http://www.w3.org/Graphics/SVG/1.1/DTD/svg11.dtd" >
<svg xmlns="http://www.w3.org/2000/svg" xmlns:xlink="http://www.w3.org/1999/xlink" version="1.1" viewBox="0 -120 1000 1000">
  <g transform="matrix(1 0 0 -1 0 880)">
   <path fill="currentColor"
d="M107 169v-11q0 -10 -4.5 -18.5t-9.5 -8.5q-8 0 -13 9l-42 76l225 58q16 138 18 412l77 -17q23 -6 23 -17q0 -10 -19 -16l-21 -8l-53 -349l137 36l6 -14zM439 705h-381l-11 25h154v207l81 -8q23 -3 23 -19q0 -11 -17 -15l-25 -6v-159h67l43 51l66 -53v-23zM104 678
q93 -189 93 -308q0 -89 -41 -89q-9 0 -17 8q-11 11 -11 33q0 21 5 81q1 16 1 33q0 84 -46 236zM330 340q11 10 59 51q49 42 116 136q46 65 62 101h-45v-29l-60 -10v355l68 -40h262l22 40l66 -43q14 -10 14 -16q0 -7 -12 -11l-27 -7v-249l-61 -10v20h-183l36 -25
q14 -9 14 -18q0 -12 -20 -12h-30l-49 -58h300l25 44l70 -46q12 -8 12 -18q0 -8 -12 -12l-25 -8q-13 -222 -27 -284q-19 -89 -59 -110q-41 -22 -84 -22q-6 0 -7 3q-2 3 -2 30q-2 13 -22 16l-68 10v20h161q20 38 38 167q6 46 9 183h-332q-108 -110 -197 -163zM522 655h272v100
h-272v-100zM522 879v-97h272v97h-272zM452 117v279l79 -8q17 -2 17 -16q0 -12 -15 -17l-25 -8v-131h217l38 44l66 -50v-19h-321v-65zM522 244q82 126 106 227l64 -20q19 -6 19 -18q0 -10 -21 -13l-17 -3l-25 -43q53 -23 70 -36q33 -24 33 -47q0 -17 -12 -29q-7 -7 -15 -7
q-10 0 -33 36q-19 30 -59 58q-40 -58 -66 -85l-33 -30z" />
  </g>

</svg>
