<?xml version="1.0" standalone="no"?>
<!DOCTYPE svg PUBLIC "-//W3C//DTD SVG 1.1//EN" "http://www.w3.org/Graphics/SVG/1.1/DTD/svg11.dtd" >
<svg xmlns="http://www.w3.org/2000/svg" xmlns:xlink="http://www.w3.org/1999/xlink" version="1.1" viewBox="0 -140 1000 1000">
  <g transform="matrix(1 0 0 -1 0 860)">
   <path fill="currentColor"
d="M57 679v22h138v219l96 -18v-14l-30 -16v-171h72l36 45h15l54 -51v-16h-381zM304 637l97 -31l-4 -16l-29 -10l-97 -306l130 32l5 -13l-292 -129l-4 -29l-15 -4l-38 94l187 43q32 170 60 369zM72 598l12 8q101 -167 101 -252q0 -29 -12 -53t-26 -24q-25 0 -25 53v24
q0 98 -50 244zM381 541v22h466l36 43h12l52 -50v-15h-245l-76 -127h224l29 31h16l52 -41v-15l-26 -18v-226q0 -47 -20 -68t-77 -32l-9 7v23l-62 31v13l59 -6q17 0 24.5 1.5t14.5 10.5t7 28v239h-81v-251l-6 -10l-48 -16l-10 8v269h-78v-271l-7 -10l-48 -13l-8 8l-1 286h-82
v-317l-9 -13l-45 -12l-10 6v389l66 -31h108l27 127h-245zM702 710h129v182l90 -19v-14l-26 -16v-175l-8 -8l-45 -13l-11 3v38h-319v-38l-8 -8l-46 -14l-10 5v250l96 -24v-13l-32 -20v-116h124v220l99 -17v-16l-33 -14v-173z" />
  </g>

</svg>
