<?xml version="1.0" standalone="no"?>
<!DOCTYPE svg PUBLIC "-//W3C//DTD SVG 1.1//EN" "http://www.w3.org/Graphics/SVG/1.1/DTD/svg11.dtd" >
<svg xmlns="http://www.w3.org/2000/svg" xmlns:xlink="http://www.w3.org/1999/xlink" version="1.1" viewBox="0 -410 2048 2048">
  <g transform="matrix(1 0 0 -1 0 1638)">
   <path fill="currentColor"
d="M1041 368q-200 -116 -507 -202q-202 -56 -390 -77l-5 39q530 107 825 292q-203 148 -344 374l31 20q176 -214 383 -346q223 161 367 398l111 -63q43 -25 43 -46q0 -30 -48 -30h-49q-195 -208 -337 -307q343 -178 850 -220v-40q-128 -4 -155 -85q-402 89 -775 293z
M1091 1181q227 130 360 267l111 -76q26 -17 26 -37q0 -27 -36 -25h-5l-61 5q-155 -104 -286 -174q217 -78 366 -150q164 -79 164 -150q0 -32 -23 -49q-11 -8 -22 -8q-24 0 -63 27q-231 163 -520 281q-378 -177 -836 -259l-4 37q436 114 740 263q-112 47 -416 146l-113 36
l12 36q337 -79 606 -170zM1231 1677q-123 -182 -312 -315l-24 31q248 212 373 588l107 -44q52 -21 52 -45q0 -26 -48 -33l-41 -6q-41 -72 -70 -120h465l99 102l120 -106q17 -15 17 -26q0 -26 -34 -26h-704zM389 1673q-130 -184 -323 -319l-24 32q263 219 394 606l108 -44
q51 -20 51 -44q0 -27 -48 -33l-41 -6q-50 -89 -80 -136h369l99 101l120 -106q17 -15 17 -26q0 -25 -34 -25h-608zM1447 1635q257 -75 257 -173q0 -52 -45 -52q-20 0 -35 14q-3 3 -28 48q-31 56 -162 136zM503 1624q257 -76 257 -174q0 -52 -45 -52q-20 0 -35 14q-3 3 -28 48
q-30 56 -162 137z" />
  </g>

</svg>
