<?xml version="1.0" standalone="no"?>
<!DOCTYPE svg PUBLIC "-//W3C//DTD SVG 1.1//EN" "http://www.w3.org/Graphics/SVG/1.1/DTD/svg11.dtd" >
<svg xmlns="http://www.w3.org/2000/svg" xmlns:xlink="http://www.w3.org/1999/xlink" version="1.1" viewBox="0 -204 1024 1024">
  <g transform="matrix(1 0 0 -1 0 820)">
   <path fill="currentColor"
d="M186 964q98 -17 98 -36q0 -13 -58 -14q-10 -27 -21 -48h185l44 48q35 -27 66 -49q8 -5 8 -11q0 -18 -12 -18h-309q-8 -12 -16 -22q-27 -41 -60 -74q-35 -36 -71 -58l-12 20q34 33 57 54q19 24 43 64q18 29 37 70q11 31 21 74zM256 810q43 -19 70 -35q21 -16 32 -31
q10 -8 10 -18q0 -32 -26 -32q-5 0 -10 3t-11 13q-16 29 -31 45q-18 19 -46 37zM596 964q94 -17 94 -36q0 -13 -54 -14q-15 -30 -33 -48h249l44 48q36 -27 67 -49q9 -5 9 -11q0 -18 -14 -18h-379q-19 -18 -37 -35q-30 -20 -60 -37l-12 22q30 21 45 38q15 14 34 42
q14 20 29 49q10 20 18 49zM658 810q44 -18 70 -34q25 -15 36 -29q6 -8 6 -17q0 -32 -22 -32q-8 0 -14 3q-5 1 -9 13q-15 27 -32 42q-16 19 -47 36zM40 658q43 -12 116 -12h322v26q0 55 -4 80q49 -7 81 -20q11 -5 11 -16q0 -9 -9 -12q-12 -8 -31 -10v-48h328l48 56
q38 -30 73 -56q7 -5 7 -14q0 -16 -14 -16h-442v-108h285l-1 6l26 30q56 -33 56 -48q0 -10 -30 -18v-136q0 -20 -10 -31q-10 -17 -31 -26q-17 -10 -43 -15q-1 25 -10 37q-6 9 -23 11q-31 12 -73 18v22q59 -22 106 -22q23 0 30 9q6 6 6 19v118h-288v-83q41 -53 91 -95
q54 -44 119 -86q67 -39 132 -69q66 -25 122 -37v-14q-52 0 -70 -34q-67 26 -120 57q-61 35 -104 75q-50 36 -96 81q-35 35 -74 83v-324q0 -18 -26 -18t-26 24q0 12 2 30q2 22 2 36v227q-26 -34 -54 -60q-43 -43 -93 -78q-57 -38 -126 -67q-73 -36 -163 -66l-10 12
q89 32 161 73q74 44 128 87q56 42 99 99q32 42 58 92v55h-264v-190q0 -9 -10 -14q-17 -4 -26 -4q-10 0 -10 10v256l58 -32h252v108h-322q-71 0 -98 -2z" />
  </g>

</svg>
