<?xml version="1.0" standalone="no"?>
<!DOCTYPE svg PUBLIC "-//W3C//DTD SVG 1.1//EN" "http://www.w3.org/Graphics/SVG/1.1/DTD/svg11.dtd" >
<svg xmlns="http://www.w3.org/2000/svg" xmlns:xlink="http://www.w3.org/1999/xlink" version="1.1" viewBox="0 -200 1000 1000">
  <g transform="matrix(1 0 0 -1 0 800)">
   <path fill="currentColor"
d="M270 624l-87 -18l-27 41h538l50 41l79 -81q-66 -6 -138 -39.5t-150 -78.5q15 -12 15 -23q0 -13 -28 -16h223l50 44l65 -72l-38 -31v-329q-4 -14 -11.5 -29t-20 -29t-30 -24t-40.5 -13q-4 14 -9 26.5t-16.5 23t-33.5 19.5t-59 16l2 8q32 -7 57 -11t45 -4q23 0 37.5 12.5
t22.5 32.5v55h-257l-1 -120q-5 -15 -14.5 -20.5t-26.5 -5.5q-2 0 -5 0.5t-6 0.5v145h-240v-142q-8 -10 -20 -15.5t-38 -7.5v507l85 -37h233q-7 19 -37.5 47.5t-76.5 55.5h-2q43 -9 81.5 -20.5t72.5 -29.5q27 17 54.5 36.5t50.5 37t39 30.5t20 17h-408zM509 427v-119h257v119
h-257zM509 287v-120h257v120h-257zM216 404v-117l240 23v117h-220zM216 283v-116h240v120zM354 938l-37 -20q-11 -12 -18 -24t-21 -29h142l51 45l71 -67h-250q35 -21 52 -32.5t24 -20t8.5 -17t5.5 -23.5q-6 -16 -14 -22t-16 -6q-17 0 -21.5 9.5t-9 26t-15 38.5t-40.5 48h-4
q-22 -25 -46.5 -51t-52.5 -50t-59.5 -44.5t-67.5 -33.5l-7 2q39 30 78 70.5t72 82.5t57 82t33 69zM736 934l-34 -15l-28 -28t-27 -26h169l50 44l72 -67h-272q37 -16 57.5 -27.5t30.5 -20.5t12.5 -17t4.5 -18q0 -13 -8.5 -20.5t-19.5 -9.5h-3q-9 0 -17.5 11t-19.5 28.5
t-26 37.5t-38 38h1q-15 -14 -32 -30.5t-39 -34t-48.5 -33t-59.5 -26.5l-4 3q27 19 59 52t60.5 69t50 70.5t27.5 56.5z" />
  </g>

</svg>
