<?xml version="1.0" standalone="no"?>
<!DOCTYPE svg PUBLIC "-//W3C//DTD SVG 1.1//EN" "http://www.w3.org/Graphics/SVG/1.1/DTD/svg11.dtd" >
<svg xmlns="http://www.w3.org/2000/svg" xmlns:xlink="http://www.w3.org/1999/xlink" version="1.1" viewBox="0 -120 1000 1000">
  <g transform="matrix(1 0 0 -1 0 880)">
   <path fill="currentColor"
d="M53 406q92 74 152 143q50 59 97 140l61 -16q24 -5 24 -16t-24 -15l-14 -2l-1 -3q61 -21 130 -57q111 -57 111 -108q0 -13 -10 -23q-8 -9 -21 -9q-15 0 -25 9q-9 8 -22 25q-30 44 -118 113q-33 25 -58 33q-30 -36 -76 -84q-52 -57 -190 -144zM60 680q44 57 73 107
q36 63 78 168l74 -33q12 -6 12 -14q0 -9 -15 -11l-20 -3l-30 -47h146l43 50l79 -55v-21h-193q6 -4 10 -7q56 -39 63 -48q12 -15 12 -31t-12 -27q-10 -9 -25 -9q-16 0 -26 10q-7 7 -19 48q-8 27 -33 64h-65q-63 -94 -137 -153zM153 64v322l66 -28h212l23 32l62 -37
q15 -9 15 -17q0 -10 -19 -14l-12 -3v-218l-59 -10v47h-228v-65zM213 330v-165h228v165h-228zM187 463h187l42 46l74 -55v-18h-291zM466 698q73 109 128 259l72 -32q12 -5 12 -14q0 -11 -16 -14l-25 -3l-26 -45h208l44 50l87 -59v-18h-254q39 -22 53 -36q23 -22 23 -55
q0 -42 -36 -42q-15 0 -24 10q-6 8 -19 57q-11 39 -36 66h-64q-43 -70 -108 -134zM628 202v401l77 -9q17 -3 17 -15q0 -10 -14 -13l-19 -5v-349zM696 142h116v528l73 -7q27 -3 27 -16q0 -12 -20 -19l-16 -5v-490q0 -38 -27 -53q-38 -19 -57 -19q-5 0 -8 4q-1 2 -9 32
q-3 10 -12 12l-67 14v19z" />
  </g>

</svg>
