<?xml version="1.0" standalone="no"?>
<!DOCTYPE svg PUBLIC "-//W3C//DTD SVG 1.1//EN" "http://www.w3.org/Graphics/SVG/1.1/DTD/svg11.dtd" >
<svg xmlns="http://www.w3.org/2000/svg" xmlns:xlink="http://www.w3.org/1999/xlink" version="1.1" viewBox="0 -204 1024 1024">
  <g transform="matrix(1 0 0 -1 0 820)">
   <path fill="currentColor"
d="M186 964q98 -17 98 -36q0 -13 -58 -14q-10 -27 -20 -48h184l44 48q35 -27 66 -49q8 -5 8 -11q0 -18 -12 -18h-307q-8 -13 -17 -25q-26 -43 -58 -77q-35 -36 -72 -62l-10 22q35 34 54 56q19 25 42 65q19 30 38 73q10 32 20 76zM256 810q43 -19 70 -35q21 -16 32 -31
q10 -8 10 -18q0 -32 -26 -32q-5 0 -10 3t-11 13q-16 29 -31 45q-18 19 -46 37zM596 964q94 -17 94 -36q0 -13 -54 -14q-13 -30 -28 -48h244l44 48q36 -27 67 -49q9 -5 9 -11q0 -18 -14 -18h-370q-19 -23 -39 -44q-28 -22 -53 -40l-14 22q27 22 40 40q16 16 32 45
q12 21 26 53q9 21 16 52zM650 810q41 -18 67 -34q20 -15 31 -29q8 -8 8 -17q0 -32 -26 -32q-5 0 -9 3q-5 1 -10 13q-15 27 -29 42q-15 19 -42 36zM178 672q44 -12 118 -12h134v12q0 55 -4 80q45 -8 75 -15q11 -4 11 -11t-8 -10q-11 -7 -26 -12v-44h128l40 42q32 -23 59 -43
q7 -4 7 -9q0 -18 -14 -18h-220v-118h124q13 9 26 17q70 48 108 91t64 86q45 -16 67 -31q13 -6 13 -17q0 -14 -44 -14q-73 -76 -147 -128l-6 -4h179l48 52q36 -29 69 -53q7 -6 7 -13q0 -14 -10 -14h-336q-50 -32 -102 -57q-58 -28 -127 -57h353l32 36q56 -34 56 -48
q0 -9 -34 -28v-228q0 -24 2 -31q2 -8 2 -15q0 -23 -36 -30q-18 0 -18 8v32h-418v-6q0 -34 -32 -34q-22 0 -22 18q0 20 2 54v60v172q-113 -38 -240 -58l-16 10q155 37 266 80q102 40 174 79q42 20 77 43h-385q-70 -1 -94 -4l-22 44q44 -12 116 -12h256v118h-134
q-72 -1 -96 -4zM347 98h421v110h-422v-88q0 -15 1 -22zM346 236h422v110h-422v-110z" />
  </g>

</svg>
