<?xml version="1.0" standalone="no"?>
<!DOCTYPE svg PUBLIC "-//W3C//DTD SVG 1.1//EN" "http://www.w3.org/Graphics/SVG/1.1/DTD/svg11.dtd" >
<svg xmlns="http://www.w3.org/2000/svg" xmlns:xlink="http://www.w3.org/1999/xlink" version="1.1" viewBox="0 -140 1000 1000">
  <g transform="matrix(1 0 0 -1 0 860)">
   <path fill="currentColor"
d="M852 688l66 -59l-3 -15l-30 -10v-218l-5 -13l-49 -25l-9 7v40h-386l1 -30l-5 -9l-50 -13l-8 7v338l57 -29h389l19 29h13zM154 701l10 11q10 -6 27 -15.5t24.5 -14.5t19 -12t16.5 -12.5t10.5 -12.5t7.5 -14.5t2 -16.5q0 -16 -7 -28t-16 -12q-14 0 -31 32q-29 61 -63 95z
M890 137l61 -54v-15l-669 -1v23h303v157h-248v22h248v117l99 -23v-15l-37 -23v-56h139l35 46h15l51 -54v-14h-240v-157h194l36 47h13zM68 554l5 11q128 -41 128 -97q0 -37 -22 -37q-13 0 -39 44q-25 43 -72 79zM336 636l12 -5l-145 -353q-8 -21 -8 -41q0 -30 14 -83
q9 -33 9 -51q0 -23 -13 -42.5t-29 -19.5t-29.5 18t-13.5 40q0 9 6.5 53.5t6.5 51.5q0 46 -39 59l-49 16l1 15l50 -3q24 -1 36.5 7.5t27.5 35.5zM436 532h386v105h-386v-105zM436 418h386v91h-386v-91zM907 871l46 -45v-14h-227q82 -48 82 -92q0 -17 -8.5 -30.5t-18.5 -13.5
q-7 0 -11.5 6t-14.5 28q-41 75 -46 82t-21 20h-104q-71 -80 -149 -130l-11 9q107 109 161 243l83 -53l-7 -15l-36 3q-2 -4 -26 -35h266l32 37h10zM458 873l43 -47v-14h-181l16 -11q32 -21 42 -32t10 -30q0 -44 -25 -44q-18 0 -32 35q-19 52 -44 82h-66q-69 -93 -160 -152
l-10 11q111 111 163 264l94 -44l-6 -15l-43 -7q-20 -30 -23 -35h169l39 39h14z" />
  </g>

</svg>
