<?xml version="1.0" standalone="no"?>
<!DOCTYPE svg PUBLIC "-//W3C//DTD SVG 1.1//EN" "http://www.w3.org/Graphics/SVG/1.1/DTD/svg11.dtd" >
<svg xmlns="http://www.w3.org/2000/svg" xmlns:xlink="http://www.w3.org/1999/xlink" version="1.1" viewBox="0 -204 1024 1024">
  <g transform="matrix(1 0 0 -1 0 820)">
   <path fill="currentColor"
d="M193 960q50 -10 85 -24q8 -3 8 -11t-18 -12q-20 -5 -38 -5q-9 -24 -19 -42h181l41 45q34 -25 64 -49q7 -4 7 -10q0 -14 -14 -14h-297l-19 -25q-21 -25 -38 -43q-19 -19 -40 -36q-23 -19 -49 -34l-19 22q30 20 52 43q20 22 41 48q20 28 36 54q14 24 23 47q8 20 13 46z
M266 816q32 -17 49 -34q17 -14 25 -28q5 -10 5 -19q0 -35 -25 -35q-4 0 -8 3t-7 15q-10 27 -21 43q-12 18 -32 37zM601 960q50 -10 85 -24q8 -3 8 -11t-18 -12q-20 -5 -38 -5q-7 -20 -16 -35l-4 -7h238l44 49q36 -27 68 -52q8 -5 8 -11q0 -14 -15 -14h-363l-1 -1
q-16 -19 -29 -33t-29 -26q-17 -15 -36 -26l-19 22q21 16 37 33l29 38q14 22 26 42q9 19 15 37q6 16 10 36zM670 816q33 -15 52 -31q17 -12 25 -25q6 -9 6 -17q0 -35 -25 -35q-4 0 -9 3q-3 3 -7 13q-11 25 -22 40q-13 16 -34 34zM52 678q44 -12 117 -12h234q4 5 7 10
q27 39 36 72q44 -7 67 -18q12 -3 12 -10t-14 -12q-16 -5 -28 -7q-12 -20 -22 -35h387l47 53l72 -55q9 -6 9 -12q0 -14 -16 -14h-348q32 -33 67 -58t77 -48l13 9q15 12 27 25t22 26q9 13 15 26q75 -45 75 -57q0 -10 -18 -10q-11 0 -30 4q-17 -12 -38 -22q-19 -9 -38 -16
q52 -26 103 -44q53 -18 101 -26l-3 -17q-49 0 -65 -30q-54 17 -97 41q-31 16 -55 33v-153q0 -11 2 -17q2 -12 2 -26q0 -17 -37 -22q-16 0 -16 14t1 24h-184v-181q0 -35 -14 -52q-13 -17 -36 -26q-19 -11 -34 -11q-4 22 -15 36q-5 10 -25 19q-25 11 -56 13v26q47 -15 86 -15
q28 0 37 6q9 5 9 28v157h-173q1 -8 1 -16q0 -17 -37 -22q-16 0 -16 14q0 19 1 32v179l-1 11q-32 -19 -64 -33q-62 -26 -154 -59l-13 19q80 31 133 57q26 12 49 26q-4 4 -8 12q-13 28 -29 45q-17 19 -45 39l14 18q43 -18 67 -36q22 -15 33 -29q7 -10 7 -20v-5q3 2 4 3
q44 29 85 67q22 20 40 42h-213q-71 -2 -97 -7zM312 322h408v80h-408v-80zM312 430h408v43l-3 37h-404l-1 -16v-64zM335 538h345l-20 16q-38 33 -81 84h-138q-14 -18 -26 -31q-34 -36 -80 -69zM356 176q-36 -28 -75 -47q-37 -21 -74 -36q-45 -19 -90 -29l-13 22q67 26 111 51
q46 25 73 48q26 23 45 51q40 -22 68 -42q4 -3 4 -10q0 -10 -18 -10q-13 0 -31 2zM664 232q59 -20 104 -42q46 -19 71 -33q26 -13 39 -23q9 -8 14 -17q6 -7 6 -15q-1 -30 -22 -30q-10 0 -18 4t-38 34q-30 29 -66 53q-37 24 -102 55z" />
  </g>

</svg>
