<?xml version="1.0" standalone="no"?>
<!DOCTYPE svg PUBLIC "-//W3C//DTD SVG 1.1//EN" "http://www.w3.org/Graphics/SVG/1.1/DTD/svg11.dtd" >
<svg xmlns="http://www.w3.org/2000/svg" xmlns:xlink="http://www.w3.org/1999/xlink" version="1.1" viewBox="0 -204 1024 1024">
  <g transform="matrix(1 0 0 -1 0 820)">
   <path fill="currentColor"
d="M194 964q98 -20 98 -36q0 -15 -55 -18l-22 -44h177l43 47q35 -26 65 -50q8 -5 8 -11q0 -14 -14 -14h-296q-9 -13 -17 -24q-28 -40 -63 -70q-37 -34 -74 -56l-12 21q37 32 58 53q20 22 44 61q20 29 37 69q13 31 23 72zM278 824q38 -17 59 -34q20 -14 30 -28q6 -10 6 -19
q0 -35 -25 -35q-5 0 -10 3q-4 3 -9 15q-12 27 -26 43q-14 18 -39 37zM602 964q98 -20 98 -36q0 -15 -55 -18q-12 -25 -26 -44h237l44 49q36 -27 68 -52q8 -5 8 -11q0 -14 -15 -14h-363q-5 -6 -9 -10q-28 -34 -63 -60q-37 -29 -74 -48l-12 21q37 28 58 47q20 19 44 53
q20 25 37 60q13 27 23 63zM706 824q43 -16 67 -33q22 -13 33 -26q7 -9 7 -18q0 -35 -25 -35q-6 0 -11 3t-11 14q-13 26 -29 41q-17 18 -45 36zM40 646q44 -12 117 -12h59v35q0 50 -6 75q48 -8 80 -17q11 -4 11 -11q0 -6 -9 -9q-12 -7 -28 -11v-62h100l41 45q34 -25 64 -49
q7 -4 7 -10q0 -14 -14 -14h-198v-72h92l35 33q51 -36 51 -50q0 -10 -30 -25v-159q0 -23 1 -30q1 -8 1 -16q0 -21 -34 -27q-16 0 -16 10v16h-100v-96h96l41 45q34 -25 64 -49q7 -4 7 -10q0 -14 -14 -14h-194v-57q0 -23 1 -30q1 -17 1 -29q0 -34 -31 -34q-26 0 -26 18
q0 13 4 33q3 22 3 38v61h-67q-71 -2 -97 -7l-20 47q44 -12 117 -12h67v96h-100v-12q0 -10 -12 -16q-15 -6 -25 -6q-13 0 -13 14q0 4 1 14q1 23 1 42v174q0 49 -2 68l63 -30h87v72h-59q-71 -2 -97 -7zM116 314h100v84h-100v-84zM264 398v-84h100v84h-100zM116 426h100v80
h-100v-80zM264 506v-80h100v80h-100zM594 752q98 -20 98 -36q0 -15 -55 -18q-12 -30 -25 -52h195l45 39q37 -28 60 -51q9 -6 9 -15q0 -6 -15 -16q-16 -10 -38 -15q-39 -67 -75 -105q-16 -19 -30 -31q17 -8 35 -16q52 -23 104 -34q45 -14 94 -19v-14q-65 0 -78 -41
q-69 19 -112 42q-52 22 -89 48q-32 -20 -65 -35q-46 -21 -91 -36q-49 -16 -111 -27l-8 18q76 20 110 35q33 13 83 37q25 14 48 32q-38 29 -65 59q-30 33 -53 71q-6 -9 -13 -17q-29 -37 -68 -67l-12 21q38 44 64 87q22 42 37 79q13 30 21 77zM585 601q30 -43 57 -69
q32 -29 68 -52q6 -4 11 -7q23 23 45 55q30 38 50 90h-221q-5 -9 -10 -17zM532 314l63 -30h242l35 33q51 -36 51 -50q0 -10 -30 -25v-154q11 -8 20 -15q5 -3 5 -7q0 -14 -9 -14h-327q0 -10 -12 -16q-15 -6 -25 -6q-13 0 -13 14q0 4 1 14q1 23 1 42v146q0 49 -2 68zM582 80
h263v176h-263v-176z" />
  </g>

</svg>
