<?xml version="1.0" standalone="no"?>
<!DOCTYPE svg PUBLIC "-//W3C//DTD SVG 1.1//EN" "http://www.w3.org/Graphics/SVG/1.1/DTD/svg11.dtd" >
<svg xmlns="http://www.w3.org/2000/svg" xmlns:xlink="http://www.w3.org/1999/xlink" version="1.1" viewBox="0 -204 1024 1024">
  <g transform="matrix(1 0 0 -1 0 820)">
   <path fill="currentColor"
d="M186 964q98 -20 98 -36q0 -15 -55 -18q-7 -13 -14 -24h177l41 45q34 -25 64 -49q7 -4 7 -10q0 -14 -14 -14h-294q-10 -14 -21 -25q-27 -32 -60 -57q-35 -26 -71 -44l-12 21q35 26 55 44q19 18 42 50q19 25 36 58q11 25 21 59zM294 836q36 -14 57 -29q19 -12 28 -24
q6 -8 6 -16q0 -35 -25 -35q-5 0 -10 3q-4 2 -8 12q-12 24 -25 38q-13 16 -37 33zM610 964q98 -20 98 -36q0 -15 -55 -18l-15 -24h218l44 49q36 -27 68 -52q8 -5 8 -11q0 -14 -15 -14h-344l-12 -14q-24 -28 -54 -50q-31 -22 -63 -38l-12 21q31 23 48 39t36 45q17 21 31 50
q10 23 19 53zM714 836q38 -14 59 -29q20 -12 30 -24q6 -8 6 -16q0 -35 -25 -35q-5 0 -10 3q-4 2 -9 12q-12 24 -26 38q-14 16 -39 33zM284 688q-33 -16 -71 -25q-20 -6 -43 -9l-2 -4l4 -104h68l38 41q31 -24 59 -45q7 -5 7 -10q0 -14 -13 -14h-158l5 -112h54l38 41
q31 -24 59 -45q7 -5 7 -10q0 -14 -13 -14h-144l4 -112h630l7 112h-17q-80 0 -97 -7l-18 43q40 -8 115 -8h19l6 112h-25q-80 0 -97 -7l-18 43q40 -8 115 -8h27l7 132h-42q-80 0 -97 -7l-18 43q40 -8 115 -8h25l43 45q36 -30 58 -56q6 -7 6 -14q0 -8 -14 -13q-13 -6 -27 -9
l-25 -393h15l41 45q34 -25 64 -49q7 -4 7 -10q0 -14 -14 -14h-821q-71 -2 -97 -7l-20 47q39 -11 99 -12l-15 386q0 37 -4 54l53 -24q27 12 50 29q23 18 34 41q53 -27 83 -49q8 -5 8 -11q0 -12 -15 -14q-5 0 -18 5q-9 5 -27 5zM425 752q46 -5 84 -21q6 -3 6 -9q0 -8 -16 -13
l-31 -6q-2 -20 -5 -37h85l38 41q31 -24 59 -45q7 -5 7 -10q0 -14 -13 -14h-181l-3 -12q-5 -33 -14 -68h120l28 29q33 -17 50 -36q5 -5 5 -11q0 -8 -6 -16q-9 -10 -18 -13q0 -57 -6 -102q-5 -43 -14 -70q-6 -19 -24 -35q-14 -15 -40 -22q-7 23 -18 31q-17 12 -51 20l9 24
q25 -11 51 -11q11 0 21 8q12 8 15 28q9 52 9 148h-140q-7 -10 -24 -10q-22 0 -22 12l2 12l9 31q22 108 28 177zM372 143q-44 -31 -92 -51q-46 -24 -91 -40q-56 -20 -111 -32l-14 24q83 28 137 56q57 27 90 52t56 56q43 -24 74 -46q4 -3 4 -11q0 -10 -20 -10q-14 0 -33 2z
M615 188q67 -14 132 -34q67 -23 100 -38q33 -18 45 -28q13 -13 22 -24q4 -9 4 -19q0 -21 -18 -21q-7 0 -18 7q-12 6 -28 18q-28 20 -51 33q-30 16 -72 34q-46 23 -127 54zM388 492q47 -7 77 -20q11 -6 11 -14q0 -10 -10 -13q-12 -10 -28 -11v-57q0 -25 1 -33v-31
q0 -21 -27 -21q-22 0 -22 25q0 11 3 29q1 17 1 31v42q0 48 -6 73z" />
  </g>

</svg>
