<?xml version="1.0" standalone="no"?>
<!DOCTYPE svg PUBLIC "-//W3C//DTD SVG 1.1//EN" "http://www.w3.org/Graphics/SVG/1.1/DTD/svg11.dtd" >
<svg xmlns="http://www.w3.org/2000/svg" xmlns:xlink="http://www.w3.org/1999/xlink" version="1.1" viewBox="0 -204 1024 1024">
  <g transform="matrix(1 0 0 -1 0 820)">
   <path fill="currentColor"
d="M186 968q98 -17 98 -36q0 -14 -58 -16q-7 -11 -14 -24h178l44 46q34 -24 62 -48q8 -4 8 -10q0 -14 -12 -14h-304q-7 -9 -15 -18q-26 -28 -57 -52q-33 -22 -70 -40l-10 22q34 22 53 40q20 15 40 45q21 21 37 52q11 23 20 53zM266 840q41 -10 67 -20q20 -9 31 -19
q8 -6 8 -13q0 -32 -26 -32q-5 0 -9 3q-5 2 -10 11q-15 17 -29 29q-15 14 -42 27zM610 968q98 -17 98 -36q0 -14 -58 -16q-7 -11 -13 -24h217l44 50q38 -27 69 -51q9 -5 9 -11q0 -14 -12 -14h-349q-5 -7 -10 -12q-20 -26 -49 -49q-28 -20 -56 -35l-14 18q28 24 45 40
q17 14 33 42q17 20 30 48q8 22 16 50zM668 836q49 -8 76 -18q25 -8 37 -18q11 -6 11 -12q0 -32 -24 -32q-7 0 -14 2q-5 2 -13 11q-16 18 -33 27q-21 14 -54 26zM72 744q39 -6 110 -6h234l30 44q36 -24 54 -43q8 -7 8 -13q0 -11 -40 -32v-158q0 -34 -14 -50t-33 -27
q-21 -11 -35 -11q0 25 -7 35q-9 11 -34 20q-27 12 -57 15v22q58 -14 106 -14q19 0 24 5q6 4 6 27v150h-242q-79 0 -96 -4zM124 686q50 -2 88 -10q38 -6 54 -13q23 -7 28 -16q4 -6 4 -15q0 -18 -14 -18q-4 0 -16 2q-39 18 -80 33q-38 11 -68 15zM364 610l4 -22
q-53 -21 -93 -33q-43 -17 -80 -26q-36 -11 -75 -21q-11 -34 -18 -34q-8 0 -48 80q58 5 103 12q42 6 92 15q49 10 115 29zM548 744q39 -6 110 -6h218l30 44q36 -24 52 -43q10 -7 10 -13q0 -11 -40 -32v-158q0 -34 -16 -50q-13 -16 -34 -27t-34 -11q0 25 -9 35q-12 11 -35 20
q-28 12 -62 15v22q64 -14 114 -14q18 0 25 5q7 4 7 27v150h-226q-78 0 -96 -4zM596 686q49 -2 86 -10q37 -6 53 -13q22 -7 27 -16q6 -6 6 -15q0 -18 -16 -18q-4 0 -16 2q-37 18 -77 33q-37 11 -67 15zM830 610l6 -22q-53 -19 -92 -32q-42 -15 -78 -25q-35 -10 -74 -17
q-11 -36 -18 -36q-8 0 -48 80q57 4 101 11q42 5 92 14q48 10 111 27zM270 504q47 -14 86 -31q8 -8 8 -13q0 -9 -15 -13q-22 -5 -43 -5q-15 -25 -36 -44h250q-2 3 -3 6q-3 14 -8 28q-7 13 -15 23q-10 14 -24 27l16 10q19 -7 31 -16q17 -10 26 -18q10 -8 12 -13q3 -5 3 -11
q0 -21 -4 -31q-2 -3 -4 -5h264l44 48q38 -27 69 -49q9 -5 9 -11q0 -18 -12 -18h-354v-66h208l40 40q32 -23 59 -43q7 -5 7 -11q0 -14 -14 -14h-300v-78h208l40 44q34 -22 62 -46q8 -4 8 -8q0 -16 -12 -16h-306v-76h282l44 48q36 -27 67 -49q9 -5 9 -13q0 -16 -14 -16h-703
q1 -10 1 -18q0 -32 -34 -32q-22 0 -22 14q0 23 2 57q2 33 2 61v184q-5 -4 -8 -7q-30 -24 -66 -47q-30 -19 -80 -44l-14 12q50 30 86 63q41 35 76 76q33 38 58 79q10 22 14 42zM252 94h270v76h-270v-66v-10zM252 196h270v78h-270v-78zM522 302v66h-270v-66h270z" />
  </g>

</svg>
