<?xml version="1.0" standalone="no"?>
<!DOCTYPE svg PUBLIC "-//W3C//DTD SVG 1.1//EN" "http://www.w3.org/Graphics/SVG/1.1/DTD/svg11.dtd" >
<svg xmlns="http://www.w3.org/2000/svg" xmlns:xlink="http://www.w3.org/1999/xlink" version="1.1" viewBox="0 -204 1024 1024">
  <g transform="matrix(1 0 0 -1 0 820)">
   <path fill="currentColor"
d="M483 899q40 -9 115 -9h280l37 38q32 -18 53 -37q10 -10 10 -16q0 -10 -39 -36q-5 -271 -16 -430q-10 -157 -21 -219q-10 -54 -23 -77q-11 -21 -30 -35q-19 -17 -62 -29q-6 19 -15 29q-10 12 -33 17q-18 7 -88 16l5 26q104 -22 130 -22q17 0 29 9q13 9 24 32q13 30 21 76
q9 52 19 215q13 209 13 416h-186q0 -112 -9 -199q-8 -105 -23 -173q-17 -85 -43 -153q-31 -71 -64 -123q-40 -61 -94 -107q-47 -46 -113 -80l-13 22q93 58 138 115q44 53 79 123q34 72 53 156q6 15 10 34q-4 -1 -7 -1q-10 0 -19 5q-6 5 -15 23q-22 44 -45 70q-26 31 -70 61
l13 17q64 -31 100 -62q31 -24 48 -49q3 -4 5 -8q5 40 9 83q7 88 7 246h-55q-80 0 -96 -7zM66 869q23 -26 42 -52q20 -25 32 -46q15 -24 20 -40q4 -17 4 -32q0 -22 -6 -33q-8 -13 -23 -13q-6 0 -9 6q-5 4 -8 29q-6 29 -17 57q-10 29 -21 54q-12 26 -33 56zM373 876
q49 -13 88 -33q7 -6 7 -11q0 -9 -13 -14q-24 -6 -42 -6q-7 -25 -19 -45q-10 -23 -22 -45q-12 -20 -25 -36q-10 -17 -29 -33l-19 13q16 24 28 49q12 29 22 62q11 33 19 64q4 18 5 35zM36 599q44 -13 117 -13h59v290q0 54 -6 81q58 -7 96 -24q13 -4 13 -14q0 -9 -13 -12
q-18 -10 -43 -12v-309h73l45 53q37 -29 72 -56q7 -5 7 -10q0 -14 -17 -14h-180v-79l2 1q37 -25 66 -49q30 -24 50 -45q20 -22 29 -38q6 -16 6 -31q0 -20 -6 -32q-10 -13 -22 -13q-10 0 -16 5q-9 5 -14 29q-8 27 -24 55t-35 51q-13 19 -36 38v-341q0 -22 1 -31v-28
q0 -34 -30 -34q-25 0 -25 17q0 21 3 55q4 33 4 59v317q-2 -6 -4 -11q-21 -55 -46 -102q-23 -43 -51 -87q-29 -41 -70 -88l-13 17q34 51 60 99q25 44 44 99q19 45 33 95q10 39 16 72h-28q-71 -2 -98 -8z" />
  </g>

</svg>
