<?xml version="1.0" standalone="no"?>
<!DOCTYPE svg PUBLIC "-//W3C//DTD SVG 1.1//EN" "http://www.w3.org/Graphics/SVG/1.1/DTD/svg11.dtd" >
<svg xmlns="http://www.w3.org/2000/svg" xmlns:xlink="http://www.w3.org/1999/xlink" version="1.1" viewBox="0 -120 1000 1000">
  <g transform="matrix(1 0 0 -1 0 880)">
   <path fill="currentColor"
d="M41 199q60 90 86 145q47 96 79 203h-153l-10 27h167v369l79 -8q21 -2 21 -12q0 -8 -16 -15l-20 -8v-326h51l40 51l76 -58l1 -21l-168 1v-76q40 -22 67 -49q46 -45 46 -84q0 -19 -12 -30q-9 -9 -21 -9q-7 0 -13 5q-10 8 -21 51t-45 94l-1 -381l-62 -8v332
q-99 -149 -159 -203zM90 859q33 -42 51 -71q32 -51 32 -105q0 -36 -16 -52q-10 -9 -22 -9q-29 0 -28 52q2 81 -31 177zM293 619q30 118 53 249l78 -27q11 -3 11 -11t-12 -12l-17 -6l-96 -199zM316 75q47 39 102 90q51 48 119 141l72 -39q11 -5 11 -14q0 -8 -18 -11l-25 -3
q-82 -69 -139 -108q-25 -18 -111 -68zM404 351l-12 26h120v274h-88l-11 25h99v259l73 -9q21 -2 21 -11t-14 -15l-18 -9v-215h138v260l81 -10q18 -3 18 -13q0 -7 -15 -13l-22 -9v-215h42l43 51l73 -54l-1 -22h-157v-274h57l40 52l79 -59v-19h-546zM574 651v-274h138v274h-138
zM687 303q112 -48 157 -80q76 -53 76 -106q0 -32 -28 -32q-8 0 -16 5q-9 6 -28 37q-52 83 -168 161z" />
  </g>

</svg>
