<?xml version="1.0" standalone="no"?>
<!DOCTYPE svg PUBLIC "-//W3C//DTD SVG 1.1//EN" "http://www.w3.org/Graphics/SVG/1.1/DTD/svg11.dtd" >
<svg xmlns="http://www.w3.org/2000/svg" xmlns:xlink="http://www.w3.org/1999/xlink" version="1.1" viewBox="0 -140 1000 1000">
  <g transform="matrix(1 0 0 -1 0 860)">
   <path fill="currentColor"
d="M266 884v-190q53 97 81 172l76 -33l-5 -16l-26 -4q-46 -67 -126 -159v-29h61l39 45h15l47 -50v-18h-162v-85q122 -71 122 -124q0 -17 -9 -32t-20 -15q-16 0 -38 58q-12 33 -55 88v-423l-8 -13l-47 -13l-10 8v364q-68 -109 -130 -170l-12 11q53 88 80.5 159t54.5 187h-142
v23h149v307l96 -15v-13zM59 848l9 7q97 -85 97 -149q0 -18 -10 -34t-21 -16q-20 0 -26 45q-8 54 -49 147zM822 657l29 29h15l55 -45v-13l-27 -19l-1 -224l-5 -12l-47 -14l-11 5v32h-200l71 -19l-2 -15l-29 -10q-1 -11 -11 -56h170l43 49h15l54 -56v-15h-271
q58 -72 118 -108.5t153 -55.5v-14q-39 -14 -56 -50q-78 28 -130.5 76t-105.5 141q-40 -98 -124.5 -149t-209.5 -68l-5 14q217 65 274 214h-241v22h246q6 25 14 100h-96v-25l-6 -12l-51 -13l-8 6v334l76 -29h304zM830 518h-323v-100h323v100zM830 635h-323v-95h323v95z
M418 802h138v133l92 -14v-15l-28 -13v-91h97v130l90 -14v-15l-26 -14v-87h60l36 42h15l52 -49v-15h-163v-81l-7 -12l-46 -13l-11 7v99h-97v-81l-5 -12l-46 -13l-13 7v99h-138v22z" />
  </g>

</svg>
