<?xml version="1.0" standalone="no"?>
<!DOCTYPE svg PUBLIC "-//W3C//DTD SVG 1.1//EN" "http://www.w3.org/Graphics/SVG/1.1/DTD/svg11.dtd" >
<svg xmlns="http://www.w3.org/2000/svg" xmlns:xlink="http://www.w3.org/1999/xlink" version="1.1" viewBox="0 -410 2048 2048">
  <g transform="matrix(1 0 0 -1 0 1638)">
   <path fill="currentColor"
d="M1186 767q-21 16 -30 59q-17 81 -103 178l5 3h-20v-16q0 -7 -4 -12q-22 -23 -66 -23q-26 0 -26 22v394l120 -63h603l68 76l83 -54q41 -26 41 -49q0 -27 -79 -61v-138q11 -9 17 -14q29 -25 29 -40q0 -22 -25 -22h-189l100 -37q39 -14 39 -33q0 -24 -68 -35l-28 -5
q-43 -56 -110 -130h220l98 101l121 -106q16 -15 16 -26q0 -29 -43 -29h-924q-122 0 -192 -7l-39 88q101 -21 231 -21h155zM1221 767h273q62 153 85 240h-476q58 -40 88 -68q57 -55 57 -115q0 -39 -27 -57zM1038 1064h643v186h-643v-186zM1402 1815v-76h313l99 101l120 -107
q17 -15 17 -24q0 -26 -27 -26h-522v-181h250l99 101l120 -107q17 -14 17 -25q0 -26 -27 -26h-702q-119 0 -191 -8l-39 88q95 -23 230 -23h146v181h-229q-118 0 -192 -8l-38 89q95 -25 230 -25h229v25q0 129 -10 172l107 -24q88 -20 88 -43q0 -29 -50 -43zM1653 534l71 76
l81 -54q40 -27 40 -49q0 -28 -77 -61v-170q16 -16 26 -23q36 -28 36 -48q0 -17 -16 -17h-761v-34q-8 -40 -73 -40q-23 0 -23 24v462l119 -66h577zM1053 242h619v238h-619v-238zM128 1784q7 -10 39 -47q137 -164 137 -293q0 -30 -17 -49q-16 -19 -37 -19q-32 0 -38 67
q-9 93 -46 180q-18 41 -71 140zM206 1033l111 -31q59 -16 59 -40q0 -22 -45 -32l-46 -10q-77 -300 -211 -455l-28 21q108 214 160 547zM574 1015l45 -50q160 -175 160 -307q0 -33 -16 -55.5t-39 -22.5q-34 0 -43 71q-13 98 -53 189q-19 41 -82 150zM659 1826l126 -47
q39 -14 39 -33q0 -29 -46 -34l-42 -4q-58 -200 -155 -330l-32 14q76 208 110 434zM490 1176v-786q0 -99 13 -219q3 -31 3 -50q0 -46 -59 -46q-57 0 -57 42v1059h-127q-78 0 -150 -8l-39 88q100 -22 189 -22h127v581q0 115 -8 160l113 -24q86 -18 86 -45q0 -26 -50 -42
l-41 -13v-617h88l99 101l120 -107q17 -15 17 -26q0 -26 -27 -26h-297z" />
  </g>

</svg>
