<?xml version="1.0" standalone="no"?>
<!DOCTYPE svg PUBLIC "-//W3C//DTD SVG 1.1//EN" "http://www.w3.org/Graphics/SVG/1.1/DTD/svg11.dtd" >
<svg xmlns="http://www.w3.org/2000/svg" xmlns:xlink="http://www.w3.org/1999/xlink" version="1.1" viewBox="0 -120 1000 1000">
  <g transform="matrix(1 0 0 -1 0 880)">
   <path fill="currentColor"
d="M51 143q52 121 60 282l68 -30q18 -7 18 -15t-13 -14l-13 -5q-11 -49 -47 -128q-26 -55 -56 -95zM114 469l-8 -13q-6 -10 -13 -10t-13 15l-32 74h98q126 177 191 309l79 -44q10 -6 10 -15q0 -11 -18 -13l-22 -2q-108 -125 -207 -235l176 5q-22 49 -56 74l9 15
q46 -20 79 -46q57 -47 57 -88q0 -19 -11 -29t-24 -10q-14 0 -21 10l-13 32q-4 10 -7 18l-85 -16v-432l-61 -9v430zM61 810q18 -2 53 -15q30 -12 48 -24q47 122 60 194l82 -34q11 -5 11 -13t-15 -12l-22 -6l-92 -147q34 -31 34 -63q0 -19 -12 -30q-8 -8 -20 -8q-13 0 -21 10
q-2 2 -32 56q-17 29 -38 47q-13 11 -41 28zM326 421q72 -48 94 -87q18 -33 18 -62q0 -34 -18 -49q-7 -6 -18 -6q-14 0 -19 6q-3 5 -16 69q-14 62 -52 115zM355 69q103 81 146 158q34 60 50 127q24 100 24 165v16h-94l-13 28h316l23 36l66 -44q17 -11 17 -19t-15 -12l-17 -5
q0 -161 -21 -288q-13 -79 -29 -106q-22 -39 -67 -52q-27 -8 -48 -8q-11 0 -13 23q-1 16 -5 19q-5 5 -36 11l-53 10v21h161q46 84 49 375v11h-154q-8 -162 -58 -259q-47 -89 -106 -143q-44 -41 -113 -79zM431 561q93 143 137 388l72 -25q28 -10 28 -19q0 -11 -17 -16l-18 -5
q-28 -76 -72 -163q-36 -70 -113 -172zM747 958q37 -110 107 -216q73 -101 121 -139l-6 -10h-8q-26 -1 -37 -6t-24 -24q-82 102 -125 216q-28 77 -45 176z" />
  </g>

</svg>
