<?xml version="1.0" standalone="no"?>
<!DOCTYPE svg PUBLIC "-//W3C//DTD SVG 1.1//EN" "http://www.w3.org/Graphics/SVG/1.1/DTD/svg11.dtd" >
<svg xmlns="http://www.w3.org/2000/svg" xmlns:xlink="http://www.w3.org/1999/xlink" version="1.1" viewBox="0 -120 1000 1000">
  <g transform="matrix(1 0 0 -1 0 880)">
   <path fill="currentColor"
d="M41 113q21 45 36 103q22 89 22 171q0 12 -1 31l76 -18q16 -4 16 -12t-11 -14l-16 -8q-28 -166 -108 -266zM109 473l-12 -16q-7 -10 -13 -10q-9 0 -15 16l-24 71h94q19 20 87 115q25 35 68 102q22 34 56 86l64 -47q10 -7 10 -15q0 -11 -16 -13l-24 -3q-136 -155 -210 -225
l187 4q-14 40 -40 82l13 10q35 -21 64 -52q47 -51 47 -92q0 -23 -16 -37q-10 -10 -24 -10q-15 0 -24 16q0 2 -13 59l-97 -16v-422l-60 -13v426zM58 808q56 -23 78 -34q37 74 79 188l62 -46q18 -13 18 -19q0 -10 -16 -13l-21 -2l-102 -124q51 -37 51 -78q0 -22 -16 -34
q-8 -5 -16 -5q-10 0 -19 9q-10 9 -14 18l-18 39q-16 33 -76 83zM318 422q101 -103 101 -185q0 -33 -18 -50q-9 -9 -21 -9q-11 0 -19 8q-11 9 -14 79q-2 38 -43 146zM466 63v849l77 -41h282l26 49l66 -45q15 -11 15 -23t-15 -18l-18 -8v-739l-63 -12v61h-309v-63zM527 508
v-344h120v344h-120zM527 843v-307h120v307h-120zM706 508v-344h130v344h-130zM706 536h130v307h-130v-307z" />
  </g>

</svg>
