<?xml version="1.0" standalone="no"?>
<!DOCTYPE svg PUBLIC "-//W3C//DTD SVG 1.1//EN" "http://www.w3.org/Graphics/SVG/1.1/DTD/svg11.dtd" >
<svg xmlns="http://www.w3.org/2000/svg" xmlns:xlink="http://www.w3.org/1999/xlink" version="1.1" viewBox="0 -410 2048 2048">
  <g transform="matrix(1 0 0 -1 0 1638)">
   <path fill="currentColor"
d="M1503 443q-84 -50 -174 -90q-170 -77 -480 -147l-10 42q241 72 445 173q116 57 176 103q-91 191 -134 456h-354v-36q0 -37 -49 -37q-63 0 -59 56l4 61l4 79l4 77v456q0 85 -13 178l118 -91h286q1 15 1 26l-1 19v52l-4 58q-2 75 -5 101l109 -24q86 -18 86 -45
q0 -29 -50 -42l-43 -11q-1 -46 -1 -73q0 -18 1 -61h347l69 76l83 -54q40 -26 40 -48q0 -27 -77 -61v-441q0 -56 12 -223v-13q0 -46 -70 -46q-36 0 -36 25v42h-308q53 -270 119 -402q116 86 255 281l126 -91q26 -19 26 -34q0 -28 -38 -24l-6 1l-63 5q-18 -17 -89 -87
q-18 -17 -163 -134q55 -95 140 -178q69 -67 105 -67q29 0 45 56l74 249l36 -12l-36 -241q-5 -32 -5 -59q0 -40 17 -62l28 -40q7 -9 7 -19q0 -29 -52 -29q-91 0 -224 98q-129 96 -219 252zM1284 1326h-312v-290h345q-24 174 -33 290zM1377 1326q10 -131 34 -290h317v290h-351
zM1267 1666h-295v-284h309q-1 27 -8 118q-2 32 -6 166zM1360 1666q3 -109 12 -284h356v284h-368zM318 590q248 -180 248 -289q0 -36 -22 -59q-15 -15 -32 -15q-40 0 -57 73q-19 86 -64 153q-20 30 -97 113zM69 512q205 -204 205 -314q0 -77 -58 -77q-40 0 -46 68
q-14 143 -130 297zM545 683q273 -162 273 -276q0 -41 -27 -61q-12 -9 -24 -9q-37 0 -59 69q-28 83 -78 146q-26 32 -107 104zM650 917q-35 75 -95 164l26 22q212 -195 212 -322q0 -62 -50 -62q-32 0 -45 43q-5 17 -15 59q-6 24 -15 52q-114 -41 -157 -54q-253 -76 -322 -98
l-8 -33q-9 -35 -27 -35q-22 0 -38 40l-48 119q48 35 136 146q131 164 232 334q-51 -16 -118 -35t-142 -43l-8 -30q-9 -36 -26 -36q-21 0 -37 36l-52 117q59 58 169 276q109 219 163 380l118 -65q54 -30 54 -48q0 -30 -62 -30h-37q-102 -182 -324 -484l-13 -18q37 2 119 11
q175 14 226 19q56 82 131 276l113 -60q47 -25 47 -48q0 -27 -53 -27h-39q-211 -375 -518 -657q111 15 282 49q66 13 221 42z" />
  </g>

</svg>
