<?xml version="1.0" standalone="no"?>
<!DOCTYPE svg PUBLIC "-//W3C//DTD SVG 1.1//EN" "http://www.w3.org/Graphics/SVG/1.1/DTD/svg11.dtd" >
<svg xmlns="http://www.w3.org/2000/svg" xmlns:xlink="http://www.w3.org/1999/xlink" version="1.1" viewBox="0 -120 1000 1000">
  <g transform="matrix(1 0 0 -1 0 880)">
   <path fill="currentColor"
d="M41 104q46 149 46 290v30l77 -13q15 -3 15 -12q0 -10 -13 -14l-15 -5q-22 -104 -44 -162q-21 -58 -51 -118zM107 474l-7 -16q-4 -10 -9 -10q-6 0 -10 8l-37 70l103 4q61 121 143 306l70 -31q13 -6 13 -17t-17 -13l-22 -3q-43 -68 -162 -241q68 2 143 7q-17 30 -43 63
l6 11q37 -12 68 -40q43 -38 43 -77q0 -22 -15 -35q-8 -6 -17 -6q-8 0 -14 7q-3 5 -10 29q-5 16 -9 27l-67 -14v-439l-59 -12v438zM150 753q38 -43 38 -76q0 -21 -11 -31q-8 -7 -18 -7t-17 8q-7 7 -16 38q-11 40 -56 101l7 10q31 -15 51 -28q29 92 55 189l83 -24
q16 -4 16 -14q0 -9 -16 -13l-24 -6zM295 426q42 -48 61 -75q39 -56 39 -109q0 -28 -15 -43q-10 -9 -20 -9q-8 0 -15 8q-9 10 -15 72q-3 39 -47 147zM669 505q150 -130 150 -223q0 -56 -36 -56q-12 0 -18 10q-4 7 -20 90q-15 77 -79 150q-22 -108 -59 -170q-31 -52 -92 -106
l-10 13q53 64 80 146q28 90 28 176v51h-104l-8 26h113v184l71 -7q21 -1 21 -13q0 -8 -13 -15l-18 -9l-1 -140h69l38 43l65 -49l1 -20h-174q-2 -42 -4 -81zM416 58l-3 845l78 -41h361l22 40l69 -45q12 -7 12 -16q0 -7 -12 -11l-20 -8l1 -734l-62 -12v52h-387v-58zM475 153
h387v683h-386z" />
  </g>

</svg>
