<?xml version="1.0" standalone="no"?>
<!DOCTYPE svg PUBLIC "-//W3C//DTD SVG 1.1//EN" "http://www.w3.org/Graphics/SVG/1.1/DTD/svg11.dtd" >
<svg xmlns="http://www.w3.org/2000/svg" xmlns:xlink="http://www.w3.org/1999/xlink" version="1.1" viewBox="0 -204 1024 1024">
  <g transform="matrix(1 0 0 -1 0 820)">
   <path fill="currentColor"
d="M185 960q84 -36 84 -52q0 -12 -46 -14q-29 -60 -75 -129q-39 -65 -86 -126q45 1 90 5q46 5 83 11q4 5 6 10q31 63 48 123q84 -36 84 -52q0 -12 -46 -14q-47 -79 -121 -169q-63 -86 -139 -165q40 4 72 10q40 6 90 18q41 8 92 23l-4 8q-15 32 -41 67l14 18q40 -33 62 -68
q20 -28 30 -55q7 -19 7 -38q0 -35 -25 -35q-6 0 -11 6q-4 5 -9 26q-7 28 -14 47q-41 -19 -73 -30q-41 -16 -78 -27q-34 -12 -72 -20q-11 -37 -18 -37q-8 0 -49 84h2q75 88 119 153q33 45 57 86q-18 -7 -35 -13q-37 -14 -78 -25q-14 -33 -21 -33q-3 0 -7 7q-21 36 -39 79h3
q43 70 69 122q29 53 47 101q18 50 28 98zM47 240q40 -32 63 -65q20 -27 30 -53q7 -18 7 -36q0 -38 -27 -38q-6 0 -11 6q-4 5 -9 25q-13 47 -27 76q-15 31 -41 65zM162 280q48 -30 75 -61q24 -25 36 -50q8 -17 8 -34q0 -35 -25 -35q-7 0 -13 5q-5 5 -12 24q-15 45 -33 72
q-18 29 -50 61zM285 324q44 -27 69 -56q22 -22 33 -45q8 -16 8 -31q0 -32 -23 -32q-6 0 -12 5q-5 4 -11 22q-14 40 -30 65q-17 27 -47 56zM565 960q49 -14 88 -33q7 -6 7 -11q0 -10 -13 -15q-23 -6 -42 -6q-11 -26 -23 -49h164l33 35q37 -27 67 -58q4 -3 4 -7q0 -8 -21 -12
q-17 -3 -33 -7q-25 -35 -61 -72q-26 -31 -53 -55h182l35 33q51 -36 51 -50q0 -10 -30 -25v-178q11 -8 19 -15q5 -3 5 -7q0 -14 -9 -14h-167v-285q0 -14 6 -23q3 -9 16 -14q15 -3 58 -3q32 0 59 5q10 1 15 11t8 32q6 31 11 147l19 -4q-4 -67 -4 -133q0 -17 6 -27
q8 -12 22 -19q8 -4 8 -14q0 -4 -3 -11q-5 -10 -20 -17q-16 -8 -46 -11q-35 -4 -61 -4q-52 0 -77 4q-24 1 -37 9q-15 6 -22 20q-6 13 -6 23v314h-38q-18 -84 -52 -143q-38 -65 -84 -110q-56 -50 -112 -85q-56 -33 -133 -60l-13 20q67 30 117 58q45 30 84 64q38 38 73 84
q31 42 51 94q11 36 18 78h-150v-16q0 -34 -30 -34q-26 0 -26 18q0 20 3 54q4 34 4 60v134q-25 -26 -57 -50l-19 14q45 40 77 86q36 50 67 105q31 58 52 115q10 28 13 60zM480 442h155l2 15q9 66 9 185h-166v-200zM698 642q-1 -125 -12 -200h186v200h-174zM468 670h180
q39 40 61 76q26 37 39 72h-181q-4 -6 -7 -12q-25 -44 -56 -88q-18 -27 -36 -48z" />
  </g>

</svg>
