<?xml version="1.0" standalone="no"?>
<!DOCTYPE svg PUBLIC "-//W3C//DTD SVG 1.1//EN" "http://www.w3.org/Graphics/SVG/1.1/DTD/svg11.dtd" >
<svg xmlns="http://www.w3.org/2000/svg" xmlns:xlink="http://www.w3.org/1999/xlink" version="1.1" viewBox="0 -120 1000 1000">
  <g transform="matrix(1 0 0 -1 0 880)">
   <path fill="currentColor"
d="M220 60v420l-110 -15l-7 -21q-4 -13 -12 -13t-13 13l-33 75h118q109 194 158 303l72 -50q12 -8 12 -15q0 -10 -17 -10h-22q-107 -144 -169 -226l163 6q-19 39 -46 77l18 13q38 -28 62 -55q49 -53 49 -91q0 -19 -13 -31q-9 -8 -20 -8q-14 0 -21 13q-1 2 -13 39
q-4 11 -8 21l-86 -14v-423zM55 118q35 123 47 286l77 -15q15 -3 15 -13q0 -9 -12 -13l-21 -6q-5 -19 -22 -81q-19 -68 -63 -166zM77 791q28 -16 61 -36q40 95 75 205l75 -41q11 -6 11 -13q0 -12 -23 -14l-15 -2l-103 -154q42 -40 42 -69q0 -15 -12 -25q-11 -10 -24 -10
q-6 0 -12 3q-9 6 -30 58q-13 34 -58 81zM327 412q35 -28 57 -57q47 -64 47 -107q0 -18 -13 -31q-9 -9 -21 -9q-22 0 -29 31q-11 53 -20 77q-9 26 -38 82zM587 871q-25 -35 -62 -91q-24 -36 -51 -73q46 -50 65 -77q28 -40 28 -77t-32 -37q-11 0 -19 6q-10 8 -19 60
q-7 44 -56 127q67 131 97 230l70 -42q15 -9 15 -17q0 -9 -24 -9h-12zM474 57v469l75 -45h290l20 34l70 -37q15 -8 15 -18q0 -7 -15 -15l-19 -10v-358l-64 -9v39h-314v-42zM532 282v-148h132v148h-132zM532 454v-145h132v145h-132zM723 282v-148h123v148h-123zM723 454v-145
h123v145h-123zM764 865q-21 -27 -48 -64q-36 -49 -69 -94q103 -87 103 -141q0 -18 -12 -30q-8 -8 -21 -8q-14 0 -21 9q-5 5 -10 24q-6 30 -21 63q-12 26 -50 89q70 125 108 218l70 -41q12 -7 12 -14q0 -8 -15 -9zM934 850l-111 -133q41 -40 66 -66q51 -53 51 -87
q0 -17 -13 -28q-12 -10 -25 -10q-10 0 -18 11q-4 6 -22 58q-15 43 -74 122q26 49 101 203l62 -38q18 -12 18 -19q0 -9 -18 -11z" />
  </g>

</svg>
