<?xml version="1.0" standalone="no"?>
<!DOCTYPE svg PUBLIC "-//W3C//DTD SVG 1.1//EN" "http://www.w3.org/Graphics/SVG/1.1/DTD/svg11.dtd" >
<svg xmlns="http://www.w3.org/2000/svg" xmlns:xlink="http://www.w3.org/1999/xlink" version="1.1" viewBox="0 -410 2048 2048">
  <g transform="matrix(1 0 0 -1 0 1638)">
   <path fill="currentColor"
d="M441 1293q-38 -15 -79 -30q-71 -26 -139 -52l-5 -30q-6 -39 -26 -39q-19 0 -37 34l-60 113q63 71 148 287q102 258 137 391l120 -57q59 -28 59 -46q0 -34 -59 -34h-37q-111 -233 -302 -525q37 4 119 18q174 28 195 31q60 114 110 258l114 -55q49 -24 49 -48
q0 -29 -52 -29h-39q-98 -184 -206 -332q-137 -187 -277 -322q107 19 458 98q-47 87 -101 161l25 23q223 -193 223 -318q0 -61 -49 -61q-34 0 -55 77q-13 45 -24 75q-64 -27 -349 -128l-84 -31l-6 -31q-7 -38 -27 -38q-21 0 -38 38l-52 118q10 8 14 12q57 47 183 231
q95 138 149 241zM1397 1372v-902q0 -95 13 -219q3 -32 3 -50q0 -46 -55 -46q-57 0 -57 42v422q-60 -3 -102 -36q-39 120 -60 253q-52 -147 -145 -263l-33 26q66 108 105 241q30 103 50 282h-103v54h98l71 69l53 -50q35 -32 35 -50q0 -24 -76 -54q-10 -74 -20 -126
q17 -111 42 -185q24 -70 85 -129v721h-347v-963q0 -99 13 -219q3 -33 3 -50q0 -46 -55 -46q-56 0 -56 42v1209q0 26 -5 116l-3 51l110 -83h340v332h-257q-109 0 -193 -8l-37 88q96 -23 230 -23h692l98 101l121 -106q17 -15 17 -26q0 -26 -27 -26h-548v-332h366l68 76l84 -54
q40 -26 40 -48q0 -28 -78 -62v-1087q0 -142 -155 -171q-11 70 -47 93q-33 21 -159 43l8 46q167 -27 201 -27q57 0 57 58v1076h-385zM1630 965q3 -14 4 -21q19 -128 50 -194q30 -63 89 -113l-8 -18q-65 -1 -110 -36q-39 122 -59 253q-53 -147 -146 -263l-33 26
q67 108 106 241q29 99 49 282h-111v54h107l70 69l53 -50q35 -32 35 -50q0 -24 -76 -54q-10 -78 -20 -126zM345 609q248 -180 248 -288q0 -36 -23 -60q-14 -15 -32 -15q-39 0 -56 74q-19 84 -64 152q-20 29 -97 113zM131 538q206 -201 206 -313q0 -78 -57 -78q-41 0 -47 68
q-14 143 -130 298zM565 710q248 -181 248 -289q0 -36 -22 -60q-15 -15 -32 -15q-40 0 -57 74q-19 84 -64 152q-22 34 -97 113z" />
  </g>

</svg>
