<?xml version="1.0" standalone="no"?>
<!DOCTYPE svg PUBLIC "-//W3C//DTD SVG 1.1//EN" "http://www.w3.org/Graphics/SVG/1.1/DTD/svg11.dtd" >
<svg xmlns="http://www.w3.org/2000/svg" xmlns:xlink="http://www.w3.org/1999/xlink" version="1.1" viewBox="0 -120 1000 1000">
  <g transform="matrix(1 0 0 -1 0 880)">
   <path fill="currentColor"
d="M31 526l119 3q60 93 96 159q31 57 79 156l47 -25q35 -19 35 -28q0 -11 -15 -13l-22 -3q-99 -135 -193 -244l160 9q-11 28 -29 57q-12 18 -17 27l12 11q109 -72 109 -144q0 -20 -11 -29q-8 -7 -16 -7q-16 0 -25 12q-1 2 -15 47l-81 -14v-426l-60 -14v431l-101 -14l-7 -15
q-7 -15 -15 -15t-13 10zM43 125q18 58 26 94q14 68 21 197l64 -12q23 -4 23 -12q0 -6 -12 -12l-15 -7q-12 -70 -36 -137q-30 -84 -55 -120zM156 746q40 -37 40 -75q0 -17 -11 -26q-8 -7 -18 -7q-12 0 -22 11q-3 4 -30 64q-16 36 -66 70l5 12q37 -10 82 -33l83 201l51 -27
q30 -15 30 -25q0 -7 -19 -11l-17 -3zM297 427q35 -29 58 -61q38 -53 38 -99q0 -25 -15 -38q-8 -8 -18 -8q-15 0 -22 13q-3 7 -12 68q-8 54 -42 112zM359 69q145 119 173 286l-86 -41l-5 -19q-3 -11 -12 -11q-7 0 -14 13l-37 62q79 13 156 30q3 33 4 57v95h-110l-12 28h122
v167h-123l-13 28h136v193l70 -8q30 -3 30 -14q0 -10 -16 -17l-18 -7v-370q-1 -138 -12 -196q-23 -154 -219 -292zM756 73l-66 -11v896l76 -9q21 -2 21 -14q0 -9 -8 -12l-23 -11v-146h90l39 49l70 -58v-18h-199v-168h81l36 48l61 -53v-22h-178v-184h99l43 55l65 -58v-25h-207
v-259z" />
  </g>

</svg>
