<?xml version="1.0" standalone="no"?>
<!DOCTYPE svg PUBLIC "-//W3C//DTD SVG 1.1//EN" "http://www.w3.org/Graphics/SVG/1.1/DTD/svg11.dtd" >
<svg xmlns="http://www.w3.org/2000/svg" xmlns:xlink="http://www.w3.org/1999/xlink" version="1.1" viewBox="0 -200 1000 1000">
  <g transform="matrix(1 0 0 -1 0 800)">
   <path fill="currentColor"
d="M878 80q2 -2 5 -2q8 0 14.5 19t11.5 44.5t9 52.5t7 44l12 -4q-5 -32 -9.5 -65t-8.5 -60q-1 -8 -1.5 -15.5t-0.5 -13.5q0 -27 14 -44q13 -16 18 -26t5 -17q0 -13 -15 -16q-53 13 -95 62t-79 152q-34 -60 -77.5 -111.5t-107.5 -93.5l-3 13q16 15 33 33t37.5 45.5t45 68
t54.5 99.5q-9 54 -15 109.5t-10 116t-5.5 127.5t-1.5 144h-192l-10 -54q0 -121 -5 -223.5t-21.5 -189.5t-48.5 -160.5t-86 -136.5l-9 7q34 60 56.5 122.5t36 127.5t19.5 133.5t8 140.5q0 37 0.5 73.5t0.5 73.5t-0.5 73t-1.5 73l61 -38h192q0 95 -3 206l73 -33l-21 -60v-113
h74l43 49l59 -71h-176q0 -140 3.5 -243t17.5 -184q12 27 23 67t20.5 83t17.5 85t14 73l61 -53l-25 -28q-24 -88 -48 -160.5t-50 -135.5q16 -55 33.5 -96.5t46.5 -69.5zM537 482l54 -39h47l28 34l40 -48l-23 -29v-213h-103v-60l-43 -26v381zM580 376v-168h62v214h-54z
M796 957q74 -44 83 -78q1 -5 1.5 -9t0.5 -7q0 -18 -7 -36.5t-16 -18.5q-10 0 -15 26q-5 23 -18.5 54t-35.5 63zM617 593l39 41l47 -63h-112l-47 -10l-18 32h91zM295 892l-31 -38q-6 -6 -21.5 -30.5t-33.5 -56t-36.5 -63t-30.5 -51.5l142 3q20 35 39 70t30 70l59 -68l-34 -23
q-23 -34 -52 -76t-60.5 -85.5t-63.5 -85.5t-60 -75l201 35q-9 59 -28 99l7 6q38 -45 60 -79t30 -55q3 -9 3 -21q0 -21 -10.5 -40.5t-28.5 -19.5q-6 0 -7 1q-15 6 -22 88q-26 -6 -57 -15t-60 -19t-53 -19.5t-36 -16.5l-46 -30l-42 78l64 12q54 76 95 141.5t58 102.5
q-25 -2 -50.5 -4.5t-48.5 -8.5t-42.5 -15.5t-32.5 -24.5l-31 70l44 6q42 66 72.5 142t54.5 152zM80 77q23 35 35.5 73.5t17.5 83.5h7q2 -19 5.5 -43.5t3.5 -41.5q0 -26 -2.5 -51.5t-11 -47t-24.5 -35.5t-43 -16q-14 14 -14 26t8 24t18 28zM330 293q13 -15 26.5 -36t24 -43
t17 -42.5t6.5 -35.5q0 -14 -5 -27t-11.5 -22.5t-14 -15.5t-12.5 -6q-11 3 -15 14t-4 25t1.5 27t1.5 24v6q0 11 -1.5 28.5t-4 36t-6.5 36t-9 27.5zM222 254h7q4 -13 12 -31.5t15.5 -38.5t13.5 -40t6 -36v-5q0 -34 -14.5 -50.5t-30.5 -22.5q-16 9 -16 34q0 12 2.5 25t5.5 26
t5.5 24.5t2.5 19.5v5q0 17 -1.5 38.5t-6.5 45.5z" />
  </g>

</svg>
