<?xml version="1.0" standalone="no"?>
<!DOCTYPE svg PUBLIC "-//W3C//DTD SVG 1.1//EN" "http://www.w3.org/Graphics/SVG/1.1/DTD/svg11.dtd" >
<svg xmlns="http://www.w3.org/2000/svg" xmlns:xlink="http://www.w3.org/1999/xlink" version="1.1" viewBox="0 -140 1000 1000">
  <g transform="matrix(1 0 0 -1 0 860)">
   <path fill="currentColor"
d="M54 534h77l52 73q44 63 141 229l69 -49l-5 -14l-29 -3l-193 -232l163 9q-17 36 -49 78l11 10q2 -2 9.5 -7t12.5 -9q47 -33 64 -55.5t17 -52.5q0 -18 -8.5 -32t-19.5 -14q-14 0 -23 37q-1 2 -8 25l-74 -16l1 -441l-12 -12l-46 -15l-7 9l1 447l-98 -17l-10 -24h-15zM70 96
l-12 5q41 137 41 316l87 -18v-13l-26 -14q-7 -81 -26.5 -141t-63.5 -135zM209 929l74 -44l-5 -13l-28 -2q-45 -62 -99 -124q54 -22 54 -64q0 -36 -25 -36q-9 0 -47 58q-17 27 -66 60l7 9l56 -17q39 73 79 173zM291 416l13 6q60 -59 78.5 -87.5t18.5 -58.5q0 -20 -10.5 -37.5
t-23.5 -17.5q-19 0 -22 43q-5 58 -54 152zM851 473l35 42h18l45 -50v-15h-363q-10 -39 -27 -85h210l30 28h16l54 -50l-7 -15l-32 -3q-47 -86 -107 -140q57 -32 103 -46t121 -21v-13q-30 -12 -55 -52q-77 24 -117 43t-91 56q-68 -43 -126.5 -63t-156.5 -34l-4 13
q168 50 249 117q-59 64 -101 143q-43 -92 -98.5 -155t-146.5 -123l-9 11q101 94 154 182t81 207h-129v23h132q6 32 11 101h-112v21h400l32 40h17l46 -47v-14h-319q-2 -20 -14 -101h261zM770 343h-211q57 -83 122 -131q56 55 89 131zM834 927l58 -67l-9 -10l-38 10
q-175 -36 -306 -37q-31 -74 -63 -119t-91 -97l-11 9q47 65 69.5 120t40.5 149l53 -38q76 10 131 24.5t166 55.5zM726 802l8 12q107 -43 140.5 -71t33.5 -62q0 -36 -25 -36q-10 0 -34 35q-46 67 -123 122zM579 800l10 8q12 -10 30 -24q77 -59 77 -102q0 -9 -8 -30t-20 -21
q-20 0 -36 61q-12 42 -53 108z" />
  </g>

</svg>
