<?xml version="1.0" standalone="no"?>
<!DOCTYPE svg PUBLIC "-//W3C//DTD SVG 1.1//EN" "http://www.w3.org/Graphics/SVG/1.1/DTD/svg11.dtd" >
<svg xmlns="http://www.w3.org/2000/svg" xmlns:xlink="http://www.w3.org/1999/xlink" version="1.1" viewBox="0 -204 1024 1024">
  <g transform="matrix(1 0 0 -1 0 820)">
   <path fill="currentColor"
d="M470 968q22 -11 39 -22q19 -11 30 -21q12 -10 17 -17q4 -7 4 -14q0 -21 -6 -32q-2 -4 -3 -4h281l47 53l72 -55q9 -6 9 -12q0 -14 -16 -14h-780v-306q0 -76 -5 -143q-2 -59 -13 -120q-7 -49 -19 -91q-12 -38 -30 -73q-15 -30 -43 -61l-14 11q16 26 27 58q11 28 19 60
q9 35 15 81q7 54 10 111q5 74 5 167q0 233 -4 372l57 -38h349q-2 3 -3 8q-4 16 -14 31q-9 15 -20 28q-10 13 -29 29zM196 750q44 -12 117 -12h35q0 52 -6 78q51 -8 84 -23q12 -6 12 -15q0 -10 -10 -13q-14 -11 -32 -12v-15h60l38 41q31 -24 59 -45q7 -5 7 -10q0 -14 -13 -14
h-151v-68h40l35 36q29 -21 55 -41q6 -4 6 -9q0 -14 -12 -14h-124v-62l77 5l23 40l63 -41q5 -3 5 -8q0 -11 -13 -14l-155 -15q1 -19 2 -26v-35q0 -22 -30 -22q-24 0 -24 27q0 12 3 32q1 11 1 19l-103 -10l-25 -7l-28 41l43 3l113 8v65h-3q-71 -2 -97 -7l-20 47
q44 -12 117 -12h3v68h-35q-71 -2 -97 -7zM584 762q40 -8 115 -8h143l32 33q33 -16 53 -36q8 -9 8 -17q0 -15 -40 -29q0 -55 -9 -117q-10 -61 -24 -83q-7 -13 -18 -19q-8 -5 -21 -9q-19 -5 -43 -5q-1 14 -5 22q-3 7 -11 12q-17 11 -60 26l6 24q80 -22 93 -22q8 0 14 3
q5 3 9 9q3 6 7 19q6 20 10 62q4 43 4 99h-117q-3 -31 -10 -56q-7 -31 -23 -55q-13 -28 -31 -49q-18 -22 -45 -39q-27 -19 -66 -35l-15 19q37 20 59 39q21 18 36 38q13 19 23 39q10 22 17 50q4 20 7 49q-65 -1 -80 -7zM491 504q41 -18 68 -35q5 -3 5 -9q0 -7 -9 -10
q-15 -5 -28 -6q-15 -8 -33 -16q-19 -8 -41 -15q-13 -5 -32 -10l61 3q66 2 144 11q33 24 53 45q84 -36 84 -52q0 -12 -46 -14q-71 -32 -185 -69q-86 -32 -192 -62q64 3 169 9q127 4 280 27q-23 24 -57 52l13 15q37 -21 65 -44q29 -20 45 -35q16 -13 24 -23q6 -9 9 -18
q4 -8 4 -16q-1 -32 -24 -32q-6 0 -11 4t-23 36q-12 21 -26 38q-94 -18 -200 -33v-156q0 -18 -10 -31q-10 -16 -26 -25q-18 -11 -40 -17q-1 28 -9 39q-6 9 -19 13q-28 12 -64 19v20q51 -20 92 -20q17 0 22 7q6 5 6 19v126q-100 -13 -211 -23q-18 -40 -24 -40t-11 9
q-14 34 -26 79q118 43 190 76q52 22 91 42q-83 -13 -178 -22q-15 -34 -20 -34t-9 8q-12 28 -22 65v1h2q34 15 56 27q24 13 43 27q20 15 33 27q12 12 17 23zM432 148q-34 -26 -71 -43q-36 -20 -71 -34q-43 -17 -85 -27l-13 22q64 25 105 49q44 23 69 44q25 23 43 49
q40 -22 68 -42q4 -3 4 -10q0 -10 -18 -10q-13 0 -31 2zM699 200q54 -12 108 -31q54 -20 81 -33q27 -16 37 -25q11 -11 17 -21q4 -8 4 -17q0 -21 -18 -21q-6 0 -15 6q-9 5 -22 16q-23 18 -42 30q-24 14 -58 30q-37 20 -103 48z" />
  </g>

</svg>
