<?xml version="1.0" standalone="no"?>
<!DOCTYPE svg PUBLIC "-//W3C//DTD SVG 1.1//EN" "http://www.w3.org/Graphics/SVG/1.1/DTD/svg11.dtd" >
<svg xmlns="http://www.w3.org/2000/svg" xmlns:xlink="http://www.w3.org/1999/xlink" version="1.1" viewBox="0 -410 2048 2048">
  <g transform="matrix(1 0 0 -1 0 1638)">
   <path fill="currentColor"
d="M608 888q-147 -67 -245 -101q-132 -46 -177 -63l-13 -52q-5 -22 -18 -22q-18 0 -37 34l-68 119q134 82 362 470q-58 -24 -242 -76l-16 -52q-7 -20 -19 -20q-18 0 -36 36l-60 123q65 58 132 194q118 240 181 480l129 -58q39 -17 39 -41t-47 -29l-44 -4q-9 -18 -56 -122
q-77 -170 -250 -415q192 19 322 41q63 119 126 284l125 -60q36 -17 36 -37q0 -32 -49 -32h-48q-88 -166 -143 -245q-181 -259 -356 -424q18 4 51 11q197 38 408 98q-34 74 -83 142l27 25q194 -195 194 -308q0 -80 -58 -80q-38 0 -43 68q-4 51 -24 116zM1499 774
q201 -366 481 -472l-12 -42q-29 8 -43 8q-57 0 -91 -55q-94 70 -192 203q-116 156 -170 293v-388q0 -50 4 -102q4 -61 4 -80q0 -57 -69 -57q-37 0 -37 31v661h-200v-457q0 -80 4 -121q4 -49 4 -61q0 -53 -67 -53q-19 0 -29 10q-8 7 -8 43v490q-128 -197 -258 -313
q-86 -76 -201 -154l-27 36q289 216 435 580h-60q-71 0 -152 -11l-38 86q110 -16 190 -18l111 -3v224h-149q-73 0 -152 -11l-40 86q122 -17 192 -17h149v208h-72q-70 0 -152 -11l-39 86q124 -15 191 -15h72v196h-133q-67 0 -152 -11l-40 86q128 -18 192 -18h761l99 95
l127 -91q21 -14 21 -35q0 -26 -28 -26h-453v-196h198l62 68l73 -50q44 -29 44 -50q0 -17 -66 -52v-184h8l75 84l121 -91q17 -13 17 -27q0 -24 -24 -24h-197v-190l46 -34q20 -15 20 -29q0 -25 -20 -25h-330zM1374 1378v196h-200v-196h200zM1174 1318v-208h200v208h-200z
M1472 1318v-208h213v208h-213zM1174 1052v-224h200v224h-200zM1472 1052v-224h213v224h-213zM953 1945q216 -138 216 -228q0 -60 -50 -60q-19 0 -32 12q-11 11 -34 77q-22 65 -124 167zM1572 1962l113 -50q49 -21 49 -40q0 -25 -65 -32l-39 -4q-68 -80 -178 -189l-36 22
q101 154 156 293zM501 692q199 -159 199 -257q0 -35 -24 -55q-13 -10 -27 -10q-31 0 -51 86q-20 85 -121 212zM317 587q95 -102 124 -146q52 -80 52 -141q0 -71 -52 -71q-17 0 -27 15q-9 16 -19 82q-13 88 -103 238zM97 501q189 -196 189 -308q0 -29 -16 -50t-39 -21
q-21 0 -32 17q-10 17 -18 87q-11 94 -110 254z" />
  </g>

</svg>
