<?xml version="1.0" standalone="no"?>
<!DOCTYPE svg PUBLIC "-//W3C//DTD SVG 1.1//EN" "http://www.w3.org/Graphics/SVG/1.1/DTD/svg11.dtd" >
<svg xmlns="http://www.w3.org/2000/svg" xmlns:xlink="http://www.w3.org/1999/xlink" version="1.1" viewBox="0 -204 1024 1024">
  <g transform="matrix(1 0 0 -1 0 820)">
   <path fill="currentColor"
d="M193 956q98 -42 98 -61q0 -14 -53 -16q-33 -61 -85 -131q-40 -62 -89 -120q45 0 89 5q47 6 86 12q7 12 13 23q33 64 51 124q91 -39 91 -57q0 -13 -50 -15q-49 -78 -127 -167q-63 -82 -142 -160q34 4 61 10q40 6 87 19q40 9 89 24q-3 10 -7 17q-17 36 -45 75l14 18
q43 -38 67 -77q22 -31 33 -61q7 -22 7 -43q0 -35 -25 -35q-6 0 -11 7q-5 5 -11 28q-6 27 -13 47q-39 -20 -69 -31q-39 -16 -75 -28q-33 -13 -70 -21q-11 -37 -18 -37q-8 0 -49 84q3 0 6 1q77 86 124 152q29 38 51 74q-20 -7 -39 -13q-42 -14 -89 -25q-13 -30 -19 -30
q-2 0 -6 6q-17 30 -31 62l-5 4q2 2 2 3l-2 4h5q46 69 73 121q32 55 52 105q20 53 31 103zM55 240q37 -32 58 -65q19 -27 28 -53q6 -18 6 -36q0 -38 -27 -38q-5 0 -10 6q-4 5 -8 25q-12 47 -25 76q-13 31 -37 65zM166 280q41 -28 65 -58q21 -23 31 -47q7 -16 7 -32
q0 -35 -25 -35q-6 0 -11 5t-10 23q-13 42 -28 68q-16 28 -43 58zM269 324q39 -22 61 -46q20 -18 30 -37q7 -13 7 -25q0 -32 -23 -32q-6 0 -11 4q-4 4 -9 18q-13 34 -27 55q-15 23 -41 47zM904 955q36 -27 68 -52q8 -5 8 -11q0 -14 -15 -14h-489v-214q0 -90 -6 -169
q-3 -69 -15 -141q-9 -59 -23 -108q-14 -45 -35 -86q-19 -35 -51 -72l-14 11q20 31 34 69q15 33 24 70q12 42 20 97q8 64 12 131q6 88 6 198q0 175 -4 280l57 -38h379zM683 850q45 -13 81 -30q6 -5 6 -10q0 -10 -12 -14q-21 -6 -38 -6q-7 -10 -15 -20q-9 -9 -20 -19
q-9 -9 -19 -16q-1 -1 -2 -1h192l35 33q51 -36 51 -50q0 -10 -30 -25v-247q0 -23 1 -30q1 -8 1 -16q0 -21 -34 -27q-16 0 -16 10v28h-108v-297q0 -35 -14 -52q-11 -17 -33 -26q-18 -11 -33 -11q-4 22 -15 36q-6 10 -27 19q-25 11 -58 13v26q50 -15 90 -15q26 0 33 6q9 5 9 28
v273h-116v-16q0 -10 -12 -16q-15 -6 -25 -6q-13 0 -13 14q0 4 1 14q1 23 1 42v254q0 49 -2 68l63 -30h20q13 13 21 26q10 16 19 34q8 18 14 37q3 9 4 19zM592 438h272v124h-272v-124zM592 590h272v116h-272v-116zM563 324q48 -16 82 -32q6 -6 6 -12q0 -10 -18 -13
q-20 -4 -29 -4q-18 -36 -41 -70q-23 -32 -47 -57q-26 -26 -63 -52l-17 11q31 32 52 61q16 25 33 55q16 31 27 58q10 24 15 55zM822 308q40 -28 69 -58q31 -27 48 -47q17 -18 26 -31q6 -12 9 -24q4 -10 4 -21q-1 -35 -26 -35q-6 0 -11 5q-6 6 -25 47q-19 40 -43 72
q-23 34 -65 76z" />
  </g>

</svg>
