<?xml version="1.0" standalone="no"?>
<!DOCTYPE svg PUBLIC "-//W3C//DTD SVG 1.1//EN" "http://www.w3.org/Graphics/SVG/1.1/DTD/svg11.dtd" >
<svg xmlns="http://www.w3.org/2000/svg" xmlns:xlink="http://www.w3.org/1999/xlink" version="1.1" viewBox="0 -140 1000 1000">
  <g transform="matrix(1 0 0 -1 0 860)">
   <path fill="currentColor"
d="M537 908v-15l-31 -12v-60q148 30 255 96l46 -65l-10 -6l-25 8q-115 -35 -266 -53q0 -35 10 -41.5t65 -6.5h183q31 0 43 7.5t23 33.5l27 65l12 -5l-6 -97l25 -14v-13q-16 -13 -29.5 -16t-54.5 -3h-254q-74 0 -91 11t-17 59v148zM567 640h187l28 29l15 1l57 -44v-16
l-27 -13l-1 -263l-4 -14l-49 -17l-10 8v20h-196q0 -12 -6 -25l-46 -15l-8 7l-1 372zM763 617h-196v-72h196v72zM763 522h-196v-73h196v73zM763 427h-196v-74h196v74zM830 261l44 41h11l42 -48v-16h-479v-20l-7 -12l-45 -13l-8 8l-1 421l89 -26v-14l-28 -17v-304h382z
M689 197l5 12q224 -44 224 -133q0 -29 -19 -29q-16 0 -39 23q-52 55 -80.5 76t-90.5 51zM609 169l-8 -12l-28 3q-99 -63 -245 -99l-5 10q75 36 119 67t100 89zM247 882l-9 -17l-30 2l-96 -122q76 -46 76 -94q0 -35 -26 -35q-22 0 -43 44q-21 43 -72 104l7 10q7 -3 40 -20
l68 176zM354 759l-10 -16h-28l-164 -234l132 7q-8 32 -28 80l8 7q95 -86 95 -141q0 -18 -11 -31t-25 -13q-12 0 -18 13.5t-18 70.5l-60 -19l-5 -416l-51 -16l-8 5v412l-82 -25l-7 -25l-13 -4l-30 94l96 1l150 303zM262 390l9 5q78 -101 78 -164q0 -18 -11 -32t-26 -14
q-27 0 -27 52q0 72 -23 153zM157 360l-5 -16l-20 -5q-46 -137 -99 -231l-10 6q40 140 49 279z" />
  </g>

</svg>
