<?xml version="1.0" standalone="no"?>
<!DOCTYPE svg PUBLIC "-//W3C//DTD SVG 1.1//EN" "http://www.w3.org/Graphics/SVG/1.1/DTD/svg11.dtd" >
<svg xmlns="http://www.w3.org/2000/svg" xmlns:xlink="http://www.w3.org/1999/xlink" version="1.1" viewBox="0 -120 1000 1000">
  <g transform="matrix(1 0 0 -1 0 880)">
   <path fill="currentColor"
d="M73 533l-13 27h207v57h-100v-27l-50 -9v242l58 -26h92v46h-180l-13 28h193v91l69 -5q26 -2 26 -13t-22 -20l-19 -8v-45h125l37 45l71 -53v-20h-233v-46h99l15 27l56 -27q17 -8 17 -14q0 -7 -12 -13l-19 -9v-153l-53 -6v15h-103v-57h136l34 45l66 -52v-20h-236v-78l-54 -6
v84h-194zM167 701v-56h100v56h-100zM167 769v-40h100v40h-100zM321 701v-56h103v56h-103zM321 769v-40h103v40h-103zM327 187q-46 -32 -120 -71q-69 -36 -123 -55l-7 14q124 69 219 171l64 -35q15 -9 15 -16q0 -4 -6.5 -8.5t-11.5 -3.5h-2zM177 252l-5 -10q-9 -18 -21 -18
q-6 0 -14 14l-43 71h375q102 92 153 161l63 -37q16 -9 16 -15t-8 -8l-11 -1l-19 2l-158 -102l267 8q-44 33 -90 53l8 12q94 -19 137 -41q40 -22 59 -49q14 -19 14 -35q0 -15 -10 -24q-7 -7 -16 -7q-12 0 -24 11q-6 6 -54 60l-263 -23v-207l-62 -7v210zM360 405
q36 -26 36 -54q0 -14 -11 -24q-9 -8 -19 -8q-7 0 -17 6q-4 3 -46 56q-20 25 -60 50l6 14q44 -3 96 -29l65 104l61 -29q14 -7 14 -13q0 -8 -14 -8h-24zM497 456q46 17 97 45q52 30 85 59q-44 41 -89 100h-40l-17 28h260l20 29l54 -39q17 -12 17 -20q0 -7 -14 -9l-27 -4
q-41 -46 -87 -85q86 -47 193 -57l-3 -14q-20 -6 -29 -16q-10 -10 -21 -37q-38 10 -101 43q-41 22 -80 51q-34 -25 -117 -59q-56 -23 -96 -30zM618 660q34 -41 90 -76q36 34 70 76h-160zM503 695q84 52 87 188v56l55 -28h86l22 32l57 -32q15 -9 15 -15t-15 -11l-19 -7v-84
q0 -10 8 -11h67q15 -1 27 33l20 64h14l-2 -74l-1 -4q-2 -11 26 -25q-7 -21 -23 -31q-15 -10 -48 -10h-87q-55 1 -56 37v110h-91q0 -73 -35 -123q-43 -56 -98 -79zM615 246q96 -18 192 -55q59 -23 86 -54q16 -18 16 -34q0 -15 -13 -25q-7 -7 -18 -7q-17 0 -40 16q-6 4 -57 48
q-72 54 -173 95z" />
  </g>

</svg>
