<?xml version="1.0" standalone="no"?>
<!DOCTYPE svg PUBLIC "-//W3C//DTD SVG 1.1//EN" "http://www.w3.org/Graphics/SVG/1.1/DTD/svg11.dtd" >
<svg xmlns="http://www.w3.org/2000/svg" xmlns:xlink="http://www.w3.org/1999/xlink" version="1.1" viewBox="0 -140 1000 1000">
  <g transform="matrix(1 0 0 -1 0 860)">
   <path fill="currentColor"
d="M848 877l23 23h12l58 -43v-14l-27 -17q-1 -94 -7.5 -133t-24 -56t-61.5 -27l-12 6l-3 21l-65 29l3 13l72 -7q37 0 37 118l1 21v44h-93q-10 -93 -34 -147t-77 -99l-12 10q29 43 44 93t17 76.5t2 66.5h-71v22h218zM844 321l38 46h12l49 -52v-16h-134v-234l-5 -12l-42 -16
l-14 5v257h-111v22h111v146h-43q-32 -77 -68 -127l-13 8q29 106 38 229l84 -25l-4 -14l-21 -11l-9 -38h36v127l96 -26v-12l-35 -17v-72h28l33 38h12l46 -45v-15h-119v-146h35zM589 710l52 -44v-15l-21 -15l-1 -489q0 -53 -16 -71t-74 -31l-15 8v24l-84 34l3 14l84 -10
q6 -1 16 -1q17 0 21 10t4 43l-1 143h-154q-15 -94 -37.5 -152.5t-68.5 -121.5l-14 9q40 85 55 163.5t15 205.5q0 76 -8 258l-45 -39l-13 10q53 71 82 134t53 163l89 -35l-3 -15l-31 -6l-12 -26h56l27 25h14l59 -58l-4 -17l-28 -5l-94 -116h56l22 23h16zM472 687l54 147h-72
q-51 -92 -80 -128l29 -19h69zM511 515h46v150h-46v-150zM410 515h40v150h-40v-150zM511 332h46v161h-46v-161zM405 332h45v161h-40q0 -33 -5 -161zM244 885l-4 -12l-32 -3l-83 -126q64 -37 64 -70q0 -41 -22 -41q-11 0 -27 27q-39 60 -87 97l6 13l41 -15l67 170zM341 760
l-4 -13l-30 -2l-144 -237l117 9q-10 32 -29 72l12 7q85 -91 85 -130q0 -16 -10.5 -34.5t-20.5 -18.5q-3 0 -5.5 0.5t-5 2t-4 3t-2.5 4.5l-2 6t-2 8t-1.5 9t-1.5 11t-2 12q-2 9 -6 23l-53 -11v-408l-5 -11l-49 -13l-7 8v409l-74 -14l-7 -29l-14 -3l-30 84l86 4l134 296z
M246 380l12 7q79 -97 79 -141q0 -14 -9 -34t-19 -20q-18 0 -27 66q-7 54 -36 122zM166 362v-12l-26 -9q-14 -82 -28.5 -125t-46.5 -96l-13 5q30 117 31 259z" />
  </g>

</svg>
