<?xml version="1.0" standalone="no"?>
<!DOCTYPE svg PUBLIC "-//W3C//DTD SVG 1.1//EN" "http://www.w3.org/Graphics/SVG/1.1/DTD/svg11.dtd" >
<svg xmlns="http://www.w3.org/2000/svg" xmlns:xlink="http://www.w3.org/1999/xlink" version="1.1" viewBox="0 -204 1024 1024">
  <g transform="matrix(1 0 0 -1 0 820)">
   <path fill="currentColor"
d="M193 940q98 -42 98 -61q0 -14 -53 -16q-31 -58 -81 -124q-39 -58 -85 -111q38 1 77 5q44 6 82 13q4 6 6 11q29 61 46 119q91 -39 91 -57q0 -13 -50 -15q-45 -74 -116 -159q-58 -79 -129 -151q30 4 54 9q37 6 82 19q38 10 86 25q-1 3 -2 5q-14 32 -39 66l14 18
q38 -33 59 -67q20 -26 30 -53q6 -19 6 -37q0 -35 -25 -35q-5 0 -10 6q-4 5 -9 25q-7 28 -15 49q-37 -21 -67 -33q-36 -16 -68 -28q-30 -13 -64 -21q-11 -37 -18 -37q-8 0 -49 84q3 0 6 1q70 84 112 146q31 42 53 81q-19 -8 -38 -14q-38 -14 -80 -25q-13 -30 -19 -30
q-2 0 -6 6q-20 34 -36 73h9q43 66 69 115q30 53 49 100q19 50 30 98zM67 240q35 -32 55 -65q18 -27 27 -53q6 -18 6 -36q0 -38 -27 -38q-5 0 -9 6q-4 5 -8 25q-11 47 -24 76q-13 31 -35 65zM174 284q41 -29 65 -60q21 -24 31 -48q7 -17 7 -33q0 -35 -25 -35q-6 0 -11 5
t-10 23q-13 44 -28 70q-16 29 -43 60zM277 324q38 -26 59 -53q19 -21 29 -42q6 -15 6 -29q0 -32 -23 -32q-5 0 -10 5q-4 4 -9 20q-12 39 -26 62q-14 26 -39 53zM438 888l63 -30h83v18q0 53 -6 80q46 -9 75 -18q11 -4 11 -11q0 -5 -7 -9q-11 -6 -25 -10v-50h88v18q0 53 -6 80
q46 -9 75 -18q11 -4 11 -11q0 -5 -7 -9q-11 -6 -25 -10v-50h96l35 33q51 -36 51 -50q0 -10 -30 -25v-155q0 -23 1 -30q1 -8 1 -16q0 -21 -34 -27q-16 0 -16 10v16h-384v-12q0 -10 -12 -16q-15 -6 -25 -6q-13 0 -13 14q0 4 1 14q1 23 1 42v170q0 49 -2 68zM488 642h96v84h-96
v-84zM632 642h88v84h-88v-84zM768 642h104v84h-104v-84zM488 754h96v76h-96v-76zM632 830v-76h88v76h-88zM768 830v-76h104v76h-104zM420 576l57 -38h395l41 45q34 -25 64 -49q7 -4 7 -10q0 -14 -14 -14h-498v-68h313l40 43q34 -24 62 -48q6 -6 6 -9q0 -6 -5 -9q-3 -5 -9 -5
h-407q-1 -40 -4 -76h396l41 45q35 -25 64 -50q7 -6 7 -9q0 -6 -5 -9q-3 -5 -9 -5h-394v-198l11 3q28 6 61 19q33 11 76 30l4 -22q-29 -25 -52 -39q-24 -16 -46 -28q-20 -13 -43 -21q-11 -37 -18 -37q-8 0 -49 84q5 1 8 1v208h-55q-3 -46 -14 -94q-9 -41 -25 -76
q-13 -32 -35 -61q-19 -25 -53 -51l-14 11q21 22 36 48q15 24 25 50q11 29 20 68q9 45 13 92q6 61 6 139q0 88 -4 140zM722 284q21 -41 40 -65l14 -16l26 14q18 11 33 23q14 12 25 24q12 12 19 24q75 -45 75 -57q0 -10 -18 -10q-11 0 -30 4q-20 -10 -45 -19q-22 -8 -45 -14
q-12 -4 -23 -6q7 -7 13 -12q21 -18 57 -38q34 -20 68 -29q29 -11 61 -16v-13q-61 0 -73 -38q-42 16 -68 36q-37 22 -63 50q-31 30 -52 65q-23 36 -40 81z" />
  </g>

</svg>
