<?xml version="1.0" standalone="no"?>
<!DOCTYPE svg PUBLIC "-//W3C//DTD SVG 1.1//EN" "http://www.w3.org/Graphics/SVG/1.1/DTD/svg11.dtd" >
<svg xmlns="http://www.w3.org/2000/svg" xmlns:xlink="http://www.w3.org/1999/xlink" version="1.1" viewBox="0 -410 2048 2048">
  <g transform="matrix(1 0 0 -1 0 1638)">
   <path fill="currentColor"
d="M351 706q-29 -88 -79 -150q-47 -58 -146 -124l-24 28q80 84 108 130q55 91 65 216q3 31 3 152v186l115 -46h433l59 72l72 -50q43 -29 43 -49q0 -17 -65 -53v-421q0 -142 -154 -170q-12 70 -47 93q-33 21 -159 43l8 47q170 -28 201 -28q56 0 56 57v137q-100 -39 -376 -115
l-13 -51q-6 -28 -22 -28q-19 0 -36 36zM361 744q220 15 479 73v227h-467v-97q346 0 346 -86q0 -43 -39 -43q-16 0 -55 21q-89 46 -252 71v-30q0 -65 -12 -136zM184 1267q159 33 355 257l95 -101q13 -15 13 -27q0 -19 -23 -19q-7 0 -19 2l-45 8q-158 -88 -243 -120
q343 7 549 27q-38 48 -114 115l18 27q141 -86 185 -124q74 -63 74 -112q0 -28 -17 -45q-14 -15 -31 -15q-23 0 -41 39q-21 45 -46 80l-23 -4q-159 -31 -515 -70l-78 -9l-21 -45q-7 -13 -19 -13q-11 0 -21 36zM1221 811h342l80 81l114 -86q17 -13 17 -26q0 -26 -27 -26h-526
v-93q0 -62 17 -75q29 -22 337 -22q147 0 193 9q50 11 66 101q6 35 19 102l37 -6v-80q0 -60 16 -80q4 -5 38 -34q17 -14 17 -29q0 -75 -354 -75h-62q-303 2 -340 13q-77 24 -77 122v225q0 113 -8 160l109 -24q86 -19 86 -46q0 -26 -51 -42l-43 -13v-56zM1215 1260v-100
q0 -53 51 -59q100 -12 210 -12q221 0 306 25q27 8 41 8q22 0 42 -25q18 -23 18 -41q0 -34 -105 -42q-151 -11 -256 -11q-284 0 -341 24q-60 25 -60 112v192q-6 149 -9 166l110 -24q84 -18 84 -45q0 -28 -49 -42l-42 -12v-57h326l80 81l114 -86q17 -13 17 -26q0 -26 -27 -26
h-510zM1714 1529h-1369v-40q0 -37 -47 -37q-57 0 -57 59l6 138v131q0 76 -10 156l120 -69h1341l68 76l80 -54q40 -28 40 -48q0 -28 -78 -61v-116q0 -16 7 -138q1 -9 1 -13q0 -10 -5 -18q-19 -27 -62 -27q-35 0 -35 25v36zM1714 1585v225h-398v-225h398zM1222 1585v225h-396
v-225h396zM732 1585v225h-387v-225h387zM338 420l35 -8l-6 -27q-25 -120 -71 -198q-62 -105 -146 -105q-52 0 -52 49q0 34 61 64q88 44 131 111q25 38 48 114zM1154 418q201 -149 201 -254q0 -64 -52 -64q-18 0 -32 14t-23 79q-12 81 -120 202zM732 411q99 -156 99 -232
q0 -54 -28 -78q-14 -12 -29 -12q-42 0 -42 49q0 8 3 32q1 15 1 34q0 95 -36 193zM1618 407q274 -142 274 -256q0 -26 -17 -45q-15 -16 -36 -16q-36 0 -62 66q-45 117 -178 226z" />
  </g>

</svg>
