<?xml version="1.0" standalone="no"?>
<!DOCTYPE svg PUBLIC "-//W3C//DTD SVG 1.1//EN" "http://www.w3.org/Graphics/SVG/1.1/DTD/svg11.dtd" >
<svg xmlns="http://www.w3.org/2000/svg" xmlns:xlink="http://www.w3.org/1999/xlink" version="1.1" viewBox="0 -204 1024 1024">
  <g transform="matrix(1 0 0 -1 0 820)">
   <path fill="currentColor"
d="M90 954q20 -21 34 -40q15 -19 26 -38q10 -16 14 -31q4 -12 4 -23q0 -19 -5 -30q-8 -10 -21 -10q-5 0 -8 5q-4 2 -6 23q-3 22 -11 46q-7 21 -18 42q-9 19 -23 44zM310 958q45 -16 78 -34q6 -6 6 -10q0 -9 -15 -12q-20 -4 -29 -4q-9 -25 -23 -45q-14 -23 -29 -37
q-13 -18 -36 -34l-14 6q14 26 24 45q10 20 18 41q8 24 13 42q4 18 7 42zM36 756q43 -12 116 -12h158l44 44q32 -21 62 -44q8 -5 8 -10q0 -18 -12 -18h-160v-142h36l40 40q29 -23 56 -43q6 -4 6 -9q0 -18 -10 -18h-128v-84q0 -46 -3 -84h49l44 44q34 -22 61 -46q9 -4 9 -10
q0 -14 -14 -14h-152q-1 -14 -3 -25q-11 -59 -30 -112q-23 -62 -53 -105q-34 -49 -98 -102l-20 18q52 52 82 96q23 41 40 82q13 37 24 100q6 20 8 48h-54q-69 -1 -96 -4l-18 44q43 -14 114 -14h56q2 38 2 84v84h-30q-70 -1 -94 -4l-22 44q44 -10 116 -10h30v142h-48
q-71 -1 -98 -4zM426 840q44 -10 118 -10h95q-1 74 -7 124q48 -7 82 -20q12 -2 12 -14q0 -6 -12 -13q-15 -8 -28 -15v-62h172l44 46q36 -23 69 -47q9 -5 9 -11q0 -18 -12 -18h-282v-106h154l26 32q54 -32 54 -44t-28 -28v-98q8 -9 17 -16q5 -4 5 -8q0 -14 -8 -14h-220
q-1 -70 -7 -116h217l36 32q33 -21 50 -36q8 -8 8 -12q0 -14 -40 -28q-4 -50 -12 -84q-8 -37 -17 -52q-11 -17 -22 -24q-10 -8 -26 -12q-11 -4 -19 -4q0 13 -4 21q-6 13 -72 37l4 22q62 -18 80 -18q6 0 11 2q5 1 8 6q4 7 9 20q4 11 6 38q4 22 6 62h-223q22 -58 43 -95
q23 -41 51 -72q26 -28 68 -59q39 -33 79 -47q33 -19 70 -27v-10q-52 0 -62 -34q-52 26 -85 54q-45 32 -77 74q-41 44 -66 96q-18 37 -34 79q-14 -49 -31 -87q-23 -53 -62 -92q-48 -49 -95 -79q-54 -31 -120 -49l-12 18q91 34 137 73q43 36 75 83q29 39 48 100q11 31 20 74
h-139l-2 -2q-11 -6 -21 -6q-26 0 -26 16q0 5 2 13q15 47 25 96q8 51 13 99l58 -44h104v120h-74q-79 0 -96 -4l-14 42q39 -8 110 -8h74v106h-96q-72 -1 -98 -4zM686 664v-120h154l4 4v116h-158zM630 402q2 4 2 9q7 51 7 107h-125q-8 -68 -15 -116h131z" />
  </g>

</svg>
