<?xml version="1.0" standalone="no"?>
<!DOCTYPE svg PUBLIC "-//W3C//DTD SVG 1.1//EN" "http://www.w3.org/Graphics/SVG/1.1/DTD/svg11.dtd" >
<svg xmlns="http://www.w3.org/2000/svg" xmlns:xlink="http://www.w3.org/1999/xlink" version="1.1" viewBox="0 -120 1000 1000">
  <g transform="matrix(1 0 0 -1 0 880)">
   <path fill="currentColor"
d="M36 67q28 47 49 111q30 91 30 235v531l74 -34h95l23 41l58 -44q17 -12 17 -21t-18 -12l-15 -3v-719q0 -43 -14 -56q-15 -14 -50 -27q-18 -7 -24 -7q-11 0 -11 17q0 27 -4 30q-4 7 -42 13l-28 4v18h111v266h-111q0 -122 -37 -215q-21 -53 -63 -108q-13 -17 -26 -29z
M176 649v-211h111v211h-111zM176 882v-205h111v205h-111zM364 62l-11 13q39 30 67 55q68 62 95 149q18 60 25 149l70 -13q25 -5 25 -15q0 -8 -14 -15l-18 -9q-23 -144 -101 -221q-56 -54 -138 -93zM438 418v375l59 -28h179l95 194l61 -32q26 -14 26 -27q0 -11 -16 -13
l-22 -1l-110 -121h83l27 45l58 -43q19 -14 19 -24q0 -7 -19 -15l-14 -5v-286l-63 -8v29h-62v-300q0 -8 2 -11t14 -3h89q12 0 20 13q14 21 26 73l17 76h19l-4 -92q-1 -23 -1 -27q0 -21 7 -29q5 -6 21 -14q0 -22 -14 -36q-24 -22 -59 -22l-154 2q-20 0 -34 14q-13 14 -13 53
v303h-178v-36zM497 486h304v251h-304v-251zM445 951q59 -18 101 -56q42 -37 42 -71q0 -20 -13 -33q-8 -8 -19 -8q-13 0 -24 12q-4 4 -27 60q-17 39 -65 82z" />
  </g>

</svg>
