<?xml version="1.0" standalone="no"?>
<!DOCTYPE svg PUBLIC "-//W3C//DTD SVG 1.1//EN" "http://www.w3.org/Graphics/SVG/1.1/DTD/svg11.dtd" >
<svg xmlns="http://www.w3.org/2000/svg" xmlns:xlink="http://www.w3.org/1999/xlink" version="1.1" viewBox="0 -410 2048 2048">
  <g transform="matrix(1 0 0 -1 0 1638)">
   <path fill="currentColor"
d="M1244 1507v186h-222q-63 0 -148 -11l-40 86q127 -18 188 -18h222v55q0 118 -8 160l109 -24q86 -19 86 -46q0 -30 -50 -42l-42 -11v-92h306l98 103l121 -108q17 -15 17 -26q0 -26 -27 -26h-515v-186h285l61 71l72 -48q43 -29 43 -51q0 -19 -68 -52v-175h42l98 101
l121 -106q17 -15 17 -25q0 -27 -28 -27h-250v-191l38 -31q12 -10 12 -22q0 -22 -22 -22h-421v-255h299l100 102l120 -107q18 -16 18 -26q0 -26 -28 -26h-509v-357q118 -15 198 -15q204 0 445 41l4 -41q-84 -18 -91 -91q-134 -8 -218 -8q-386 0 -535 97q-79 51 -174 218
q-48 -126 -102 -202q-56 -78 -155 -148l-19 27q128 128 183 311q41 141 56 355l101 -23q77 -17 77 -43q0 -21 -35 -32l-52 -18l-16 -71l-17 -75q52 -106 104 -161q54 -57 151 -102v650h-178q-68 0 -149 -11l-39 86q122 -18 188 -18h178v209h-246q-67 0 -148 -11l-40 86
q124 -18 188 -18h246v196h-182q-69 0 -148 -11l-40 86q123 -16 188 -16h182zM1339 1252h299v196h-299v-196zM1339 986h299v209h-299v-209zM603 962q-94 -72 -241 -164l6 -40v-1v-4q-1 -25 -23 -25q-20 0 -44 30l-33 40q-6 -181 -34 -318q-40 -202 -134 -400l-36 14
q54 159 74 284q22 134 32 317q8 144 8 208v837q0 83 -13 172l109 -77h309l68 77l81 -55q43 -29 43 -48q0 -31 -77 -59v-1499q0 -145 -159 -171q-2 67 -42 93q-15 10 -153 44v41q170 -27 202 -27q57 0 57 58v673zM603 1326v450h-329v-341q70 -13 139 -29q142 -33 190 -80z
M603 1020v232q-17 -22 -39 -22q-24 0 -52 30q-74 77 -238 133v-366l-2 -141q0 -2 2 -15q23 11 61 26q146 59 268 123z" />
  </g>

</svg>
