<?xml version="1.0" standalone="no"?>
<!DOCTYPE svg PUBLIC "-//W3C//DTD SVG 1.1//EN" "http://www.w3.org/Graphics/SVG/1.1/DTD/svg11.dtd" >
<svg xmlns="http://www.w3.org/2000/svg" xmlns:xlink="http://www.w3.org/1999/xlink" version="1.1" viewBox="0 -410 2048 2048">
  <g transform="matrix(1 0 0 -1 0 1638)">
   <path fill="currentColor"
d="M1000 1702v-271h121l80 80l114 -85q17 -13 17 -27q0 -26 -27 -26h-305v-315h766v315h-141q-69 0 -149 -11l-39 86q121 -17 188 -17h141v305h-128q-69 0 -149 -10l-40 85q123 -17 193 -17h104l68 76l84 -53q40 -26 40 -49q0 -29 -78 -62v-477q0 -104 10 -209q4 -31 4 -50
q0 -46 -56 -46q-59 0 -55 42l3 34h-203v-660q0 -64 20 -77q31 -19 120 -19q131 0 155 49q16 31 39 200l6 46l31 -5l-5 -164v-19q0 -39 16 -61q4 -5 38 -34q17 -15 17 -30q0 -75 -289 -75q-141 0 -186 20q-59 27 -59 115v714h-203q-14 -372 -77 -525q-57 -137 -184 -242
q-60 -50 -192 -121l-23 38q181 124 254 233q86 129 110 359q7 67 12 258h-163v-18q0 -54 -56 -54q-54 0 -54 45q0 18 3 50q12 91 12 209v422q-3 108 -20 174l115 -84q189 102 298 211l103 -78q30 -23 30 -41q0 -23 -39 -23q-15 0 -33 4l-36 7q-143 -73 -323 -122zM609 995
q-75 -62 -237 -164l6 -43q1 -4 1 -5q0 -25 -23 -25q-21 0 -45 30l-47 59q-1 -18 -2 -46q-7 -196 -44 -360q-35 -155 -123 -338l-36 14q54 159 74 284q22 134 32 318q8 143 8 207v836q0 85 -13 174l108 -78h321l68 76l77 -54q43 -30 43 -48q0 -32 -77 -60v-1498
q0 -145 -155 -171q-2 67 -43 93q-32 21 -159 43l8 42q167 -27 201 -27q57 0 57 58v683zM609 1339v460h-341v-339q122 -21 208 -43q104 -27 133 -78zM609 1048v230q-14 -28 -42 -28q-26 0 -56 30q-75 75 -243 132v-362q0 -88 -3 -154q179 64 344 152z" />
  </g>

</svg>
