<?xml version="1.0" standalone="no"?>
<!DOCTYPE svg PUBLIC "-//W3C//DTD SVG 1.1//EN" "http://www.w3.org/Graphics/SVG/1.1/DTD/svg11.dtd" >
<svg xmlns="http://www.w3.org/2000/svg" xmlns:xlink="http://www.w3.org/1999/xlink" version="1.1" viewBox="0 -140 1000 1000">
  <g transform="matrix(1 0 0 -1 0 860)">
   <path fill="currentColor"
d="M716 914v-15l-25 -12v-164h120v171l88 -20v-13l-24 -13v-158l-5 -9l-48 -14l-9 9v25h-314v-16l-9 -14l-47 -15l-8 8v229l95 -22v-15l-31 -14v-119h128v209zM280 870l28 29h12l56 -48l-1 -14l-24 -14v-687q0 -37 -10 -49.5t-48 -21.5q-22 -6 -43 -13l-13 9l1 32l-69 22
l3 12l88 -9q17 0 22 8.5t5 35.5v270h-96q-9 -121 -37.5 -209t-85.5 -172l-10 9q40 93 55 183t15 231v427l73 -31h79zM287 847h-95v-184h95v184zM192 641v-186h95v186h-95zM832 570l42 40h15l52 -48v-15h-253l-85 -134h215l32 30h13l58 -52v-15l-30 -15v-215
q0 -52 -11.5 -67.5t-62.5 -31.5l-11 10l-1 20l-48 22l4 14l38 -1q18 0 23 9t5 34v236h-76l-1 -276l-8 -14l-49 -11l-7 9l1 292h-73v-276l-5 -12l-51 -15l-7 9l-1 294h-71l1 -314l-4 -10l-54 -15l-6 7v385l71 -31h91l28 134h-220v22z" />
  </g>

</svg>
