<?xml version="1.0" standalone="no"?>
<!DOCTYPE svg PUBLIC "-//W3C//DTD SVG 1.1//EN" "http://www.w3.org/Graphics/SVG/1.1/DTD/svg11.dtd" >
<svg xmlns="http://www.w3.org/2000/svg" xmlns:xlink="http://www.w3.org/1999/xlink" version="1.1" viewBox="0 -120 1000 1000">
  <g transform="matrix(1 0 0 -1 0 880)">
   <path fill="currentColor"
d="M31 69q67 131 67 356v489l61 -38h98l21 39l68 -42q12 -8 12 -14q0 -9 -14 -12l-19 -6v-708q0 -37 -15 -49q-15 -11 -37 -20q-16 -5 -24 -5q-6 0 -9 4q-2 2 -3 16t-19 20l-36 11v16h83v289h-109q-3 -74 -10.5 -118.5t-26.5 -94.5q-31 -79 -72 -142zM158 638v-197h107v197
h-107zM158 851v-187l107 1v186h-107zM333 134q6 9 59 71q27 32 74 103q23 37 35 67h-123l-12 27l139 -1v87h-159l-10 26h168v78h-130l-10 26h141v69h-159l-11 27h170v107q-68 -33 -113 -51l-5 14q42 24 103 74q66 54 102 94l64 -38q7 -4 7 -10q0 -9 -11 -10h-24
q-62 -39 -102 -60l42 -8q15 -3 15 -11q0 -7 -11 -11l-11 -5v-85h86v86l-54 -21l-8 15q117 65 205 152l61 -39q11 -7 11 -13q0 -10 -14 -10h-1l-24 1q-19 -9 -71 -36q-34 -18 -56 -28l27 -5q15 -3 15 -12q0 -7 -13 -12l-18 -7v-71h128l37 47l73 -57v-17h-238v-69h71l25 33
l58 -37q10 -7 10 -12q0 -10 -14 -12l-13 -2v-74h31l32 50l60 -61v-15h-123v-142l-58 -9v37h-78q34 -53 88 -100q81 -73 168 -108l-2 -14q-49 -1 -68 -38q-58 45 -99 90q-34 39 -88 133v-271l-60 -11v320h-86v-306l-58 -14l2 220q-29 -35 -99 -99q-43 -39 -63 -54zM561 488
v-87h86v87h-86zM561 592v-78h86v78h-86zM561 687v-69h86v69h-86zM707 488v-87h80v87h-80zM707 592v-78h80v78h-80z" />
  </g>

</svg>
