<?xml version="1.0" standalone="no"?>
<!DOCTYPE svg PUBLIC "-//W3C//DTD SVG 1.1//EN" "http://www.w3.org/Graphics/SVG/1.1/DTD/svg11.dtd" >
<svg xmlns="http://www.w3.org/2000/svg" xmlns:xlink="http://www.w3.org/1999/xlink" version="1.1" viewBox="0 -410 2048 2048">
  <g transform="matrix(1 0 0 -1 0 1638)">
   <path fill="currentColor"
d="M1527 1742l2 -96l2 -140q7 -320 11 -376h156l99 101l120 -106q18 -16 18 -26q0 -27 -28 -27h-360q37 -376 147 -601q91 -185 141 -185q39 0 130 284l36 -14q-27 -123 -37 -163q-27 -107 -27 -149q0 -32 19 -110q2 -4 2 -11q0 -34 -38 -34q-92 0 -215 162
q-127 169 -189 417q-45 178 -67 404h-358v-809q178 59 379 146l16 -35q-136 -102 -380 -224l-15 -49q-9 -28 -19 -27q-19 1 -32 30l-60 137l17 3v1367q0 92 -13 169l107 -69q148 25 334 93q169 62 303 148l83 -87q34 -36 34 -55q0 -23 -34 -23q-8 0 -45 12l-38 13
q-90 -39 -201 -70zM1429 1717l-49 -10q-180 -36 -289 -45v-532h353q-5 62 -10 356l-4 167zM525 1742v-444h148l100 101l107 -98q27 -22 27 -36q0 -25 -24 -25h-358v-419h148l59 77l76 -52q46 -31 46 -53q0 -26 -46 -45l-30 -13v-433l45 -31q30 -20 30 -34q0 -22 -19 -22
h-584v-24q0 -37 -50 -37q-62 0 -58 56l4 60l4 80l4 76v309q0 88 -15 177l123 -91h167v419h-187q-69 0 -149 -11l-39 86q124 -17 188 -17h187v444h-122q-70 0 -149 -11l-39 86q124 -18 188 -18h303l99 102l120 -107q18 -15 18 -26q0 -26 -28 -26h-294zM250 271h434v493h-434
v-493z" />
  </g>

</svg>
