<?xml version="1.0" standalone="no"?>
<!DOCTYPE svg PUBLIC "-//W3C//DTD SVG 1.1//EN" "http://www.w3.org/Graphics/SVG/1.1/DTD/svg11.dtd" >
<svg xmlns="http://www.w3.org/2000/svg" xmlns:xlink="http://www.w3.org/1999/xlink" version="1.1" viewBox="0 -120 1000 1000">
  <g transform="matrix(1 0 0 -1 0 880)">
   <path fill="currentColor"
d="M211 767q43 -38 61 -59q33 -41 33 -76q0 -39 -35 -39q-20 0 -23 31q-11 84 -49 131zM54 70q34 74 48 132q16 64 17 179v92l-19 -4l-5 -11q-7 -15 -15 -15q-7 0 -10 11l-22 68l71 6v340l70 -29h37l16 123l74 -17q20 -4 20 -15q0 -12 -23 -14l-19 -3l-50 -74h91l21 37
l71 -42q10 -7 10 -15q0 -12 -17 -13l-21 -2v-248l70 9l2 -20l-72 -17v-405q0 -29 -19 -41q-33 -21 -53 -21q-6 0 -9 3q-1 2 -4 24q-2 14 -18 18l-65 17v18h110v375l-163 -32q-2 -127 -13 -198q-12 -73 -42 -135q-13 -28 -53 -89zM178 812v-279l163 16v263h-163zM231 238v231
l67 -11q16 -3 16 -10q0 -11 -16 -16l-12 -4v-181zM491 64v685l76 -37h96v237l76 -10q23 -2 23 -14q0 -10 -26 -18l-11 -4v-191h118l24 37l64 -42q11 -7 11 -12q0 -7 -11 -10l-25 -7v-586l-58 -8v52h-296v-63zM552 423v-259h111v259h-111zM552 685v-234h111v234h-111z
M725 423v-259h123v259h-123zM725 451h123v234h-123v-234z" />
  </g>

</svg>
