<?xml version="1.0" standalone="no"?>
<!DOCTYPE svg PUBLIC "-//W3C//DTD SVG 1.1//EN" "http://www.w3.org/Graphics/SVG/1.1/DTD/svg11.dtd" >
<svg xmlns="http://www.w3.org/2000/svg" xmlns:xlink="http://www.w3.org/1999/xlink" version="1.1" viewBox="0 -120 1000 1000">
  <g transform="matrix(1 0 0 -1 0 880)">
   <path fill="currentColor"
d="M217 745q39 -38 53 -55q23 -30 23 -63q0 -26 -13 -38q-9 -8 -19 -8t-15 7q-4 6 -11 64q-5 33 -31 83zM100 470l-4 -11q-7 -18 -17 -18q-7 0 -12 15l-24 69h81v347l66 -36h32l26 126l82 -27q8 -3 8 -12t-16 -10l-18 -1l-58 -76h74l23 35l60 -38q14 -9 14 -17
q0 -12 -17 -15l-16 -2v-259l81 6l3 -21l-84 -12v-384q0 -27 -5 -36q-10 -16 -34 -25t-34 -9q-9 0 -12 26q-2 19 -19 23l-62 13v20h107v364l-138 -21q-3 -120 -8 -164q-11 -87 -48 -159q-19 -36 -62 -95l-14 10q39 80 53 144q18 87 18 159v94zM185 528l140 6v275h-140v-281z
M227 242v215l62 -8q13 -2 13 -11q0 -6 -10 -11l-14 -7v-171zM417 362l-11 27h239v114l55 -8l7 9q52 63 64 83h-301l-9 28h325l25 35l64 -44q17 -13 17 -20q0 -9 -21 -9h-23l-118 -86q11 -5 11 -12q0 -9 -16 -15l-18 -7v-68h121l43 49l81 -55v-21h-245v-228q0 -33 -8 -43
q-9 -10 -42 -23q-14 -5 -19 -5q-12 0 -14 16q-3 21 -7 24q-5 5 -19 8l-59 11v19h106v221h-228zM409 620q33 61 57 133q19 59 27 110q5 32 8 46l72 -39q127 36 242 86l69 -52q10 -8 10 -14q0 -8 -14 -8q-6 0 -11 2l-27 7q-183 -37 -285 -42q-3 -8 -25 -63q-35 -82 -108 -175z
M614 838q27 -13 49 -32q56 -47 56 -97q0 -22 -12 -33q-10 -9 -23 -9t-19 8q-3 3 -21 71q-15 44 -42 79zM803 845q46 -16 86 -51q56 -49 56 -95q0 -20 -18 -30q-11 -5 -20 -5q-20 0 -35 42q-36 89 -78 125z" />
  </g>

</svg>
