<?xml version="1.0" standalone="no"?>
<!DOCTYPE svg PUBLIC "-//W3C//DTD SVG 1.1//EN" "http://www.w3.org/Graphics/SVG/1.1/DTD/svg11.dtd" >
<svg xmlns="http://www.w3.org/2000/svg" xmlns:xlink="http://www.w3.org/1999/xlink" version="1.1" viewBox="0 -410 2048 2048">
  <g transform="matrix(1 0 0 -1 0 1638)">
   <path fill="currentColor"
d="M400 1515q90 -59 143 -106q93 -82 93 -156q0 -33 -24 -54q-13 -11 -26 -11q-20 0 -33 18q-8 12 -22 65q-26 97 -153 219zM711 1053q-106 -25 -375 -78q-7 -303 -29 -443q-27 -168 -103 -302q-36 -64 -114 -157l-22 28q109 186 141 375q28 172 33 457v28q-26 -5 -55 -10
l-11 -42q-8 -32 -25 -32q-19 0 -28 32l-40 134q81 3 159 10v567q0 71 -8 124l106 -61q68 102 119 275l122 -51q36 -15 36 -35q0 -28 -48 -32l-48 -3q-52 -92 -122 -159h291l69 76l83 -54q40 -26 40 -48q0 -29 -76 -62v-463q57 10 124 22l11 -36q-58 -18 -135 -39v-814
q0 -142 -154 -170q-11 70 -47 93q-32 20 -160 43l8 46q166 -27 201 -27q57 0 57 57v751zM711 1112v508h-55h-320v-557q41 5 193 22l160 23zM1743 1359l69 76l83 -54q40 -26 40 -49q0 -28 -77 -61v-1019q0 -83 -68 -129q-41 -29 -89 -38q-12 74 -53 96q-25 13 -153 41l7 46
q166 -28 203 -28q59 0 59 52v493q-248 -114 -507 -205l-4 -26q-7 -53 -32 -53q-17 0 -32 30l-34 68q-33 -195 -94 -311q-41 -76 -160 -195l-26 28q113 141 155 299q40 154 40 459v374q0 91 -7 177l114 -71h247v431q0 117 -8 160l110 -24q87 -19 87 -46q0 -28 -51 -41
l-41 -12v-468h222zM1166 1300v-163q179 -39 325 -87q149 -48 149 -120q0 -57 -44 -57q-21 0 -63 29q-162 115 -367 186v-220q0 -38 -8 -200q345 74 606 170v462h-598zM1801 1835l137 -60q30 -13 30 -34q0 -25 -30 -29l-62 -8q-105 -166 -248 -281l-28 27q119 139 201 385z
M1004 1814q263 -172 263 -302q0 -66 -52 -66q-24 0 -39 24q-5 8 -22 59q-28 82 -83 155q-14 19 -91 99zM408 895q235 -154 235 -262q0 -24 -15.5 -44.5t-34.5 -20.5q-33 0 -55 83q-26 99 -152 220z" />
  </g>

</svg>
