<?xml version="1.0" standalone="no"?>
<!DOCTYPE svg PUBLIC "-//W3C//DTD SVG 1.1//EN" "http://www.w3.org/Graphics/SVG/1.1/DTD/svg11.dtd" >
<svg xmlns="http://www.w3.org/2000/svg" xmlns:xlink="http://www.w3.org/1999/xlink" version="1.1" viewBox="0 -140 1000 1000">
  <g transform="matrix(1 0 0 -1 0 860)">
   <path fill="currentColor"
d="M654 629v-21q0 -24 6 -29.5t32 -5.5h120q29 0 40.5 6.5t19.5 29.5l18 57l13 -3l-5 -82l27 -12v-13q-30 -30 -90 -30h-163q-78 0 -78 55v43l-119 -11v21l119 9v88l81 -11v-15l-21 -12v-44l121 11l24 45h10l17 -13l22 55h-389q0 -328 -21 -453t-100 -251l-13 7
q42 95 57 200.5t15 319.5q0 76 -3 224l64 -26h137v166l98 -19v-13l-35 -13v-35h129l27 36h12l44 -42v-15h-212v-65h192l21 23h14l49 -44l-8 -13h-23l-67 -52l23 -22v-13zM374 62v21h82v160l61 -17l302 1l24 26h12l50 -40v-12l-18 -19v-86l20 22h10l31 -42v-14h-574zM516 204
v-121h63v121h-63zM640 83h67v121h-67v-121zM769 83h56v121h-56v-121zM790 477l26 25h13l49 -37v-14l-24 -16v-152l-8 -12l-43 -14l-9 5v26h-232v-21l-9 -7l-43 -14l-8 5l-1 250l59 -24h230zM562 310h78v63h-78v-63zM562 456v-62h78v62h-78zM701 310h93v63h-93v-63zM701 394
h93v62h-93v-62zM164 698l8 10q82 -45 82 -98q0 -38 -23 -38q-19 0 -31 47q-9 35 -36 79zM96 838l58 -24h19l13 121l79 -22l-4 -14l-18 -5l-48 -80h66l26 32h14l48 -38v-17l-20 -11v-245l49 7l3 -15l-52 -18v-373q0 -44 -20.5 -62.5t-81.5 -31.5l-10 8v26l-72 29l3 11l87 -6
q20 -3 24.5 6.5t4.5 38.5v335l-103 -24q-4 -87 -8.5 -133t-20.5 -114t-45 -129l-20 -36l-12 7q42 137 42 313q0 54 -1 72l-6 -2l-2 -19l-16 -3l-19 80l43 6v330zM160 793v-278l104 13v265h-104zM236 419v-155l-7 -10l-39 -14l-8 6v211l75 -14v-15z" />
  </g>

</svg>
