<?xml version="1.0" standalone="no"?>
<!DOCTYPE svg PUBLIC "-//W3C//DTD SVG 1.1//EN" "http://www.w3.org/Graphics/SVG/1.1/DTD/svg11.dtd" >
<svg xmlns="http://www.w3.org/2000/svg" xmlns:xlink="http://www.w3.org/1999/xlink" version="1.1" viewBox="0 -410 2048 2048">
  <g transform="matrix(1 0 0 -1 0 1638)">
   <path fill="currentColor"
d="M966 1402v397q0 115 -8 160l109 -25q86 -19 86 -45q0 -25 -51 -42l-42 -13v-432h419v246q0 114 -8 160l109 -24q86 -19 86 -46q0 -25 -51 -41l-41 -14v-171q0 -16 3 -52q6 -69 6 -126q0 -48 -61 -48q-43 0 -43 28v31h-419v-60q0 -77 9 -146q3 -21 3 -34q0 -44 -53 -44
t-53 42v242h-387q-37 -12 -57 -12q-38 0 -38 46v278q0 113 -8 160l109 -24q86 -19 86 -46q0 -25 -51 -42l-41 -13v-290h387zM592 559h226v289q0 113 -8 159l109 -24q85 -18 85 -45q0 -26 -50 -42l-41 -13v-213q0 -17 3 -53q6 -72 6 -126q0 -48 -61 -48q-43 0 -43 28v31h-229
q-19 -172 -148 -272q-131 -101 -375 -155l-10 38q229 81 319 161q104 93 118 228h-222q-37 -12 -57 -12q-38 0 -38 46v312q0 114 -8 159l109 -24q86 -18 86 -45q0 -25 -51 -42l-41 -13v-324h225v444q0 114 -8 160l109 -24q86 -19 86 -46q0 -25 -51 -41l-40 -14v-479z
M1441 555v442q0 115 -8 160l109 -24q86 -19 86 -45q0 -25 -51 -42l-40 -13v-478h269v273q0 115 -8 160l109 -24q85 -19 85 -46q0 -25 -50 -42l-41 -13v-198q0 -15 3 -52q6 -69 6 -126q0 -48 -60 -48q-44 0 -44 28v31h-269v-101q0 -96 13 -219q3 -32 3 -50q0 -46 -55 -46
q-57 0 -57 42v374h-239q-37 -11 -57 -11q-38 0 -38 45v300q0 114 -8 160l109 -24q86 -19 86 -45q0 -22 -51 -40l-41 -16v-312h239z" />
  </g>

</svg>
