<?xml version="1.0" standalone="no"?>
<!DOCTYPE svg PUBLIC "-//W3C//DTD SVG 1.1//EN" "http://www.w3.org/Graphics/SVG/1.1/DTD/svg11.dtd" >
<svg xmlns="http://www.w3.org/2000/svg" xmlns:xlink="http://www.w3.org/1999/xlink" version="1.1" viewBox="0 -410 2048 2048">
  <g transform="matrix(1 0 0 -1 0 1638)">
   <path fill="currentColor"
d="M1461 1662l-27 -160q-6 -35 -43 -35q-51 0 -49 29q0 2 1 6l27 160h-78q-69 0 -149 -11l-39 86q125 -18 188 -18h87l19 106q8 73 10 143l118 -34q50 -14 50 -38q0 -32 -53 -38l-30 -4l-22 -135h269l99 101l121 -106q16 -15 16 -26q0 -26 -27 -26h-488zM647 1662l15 -134
q6 -47 -55 -47q-30 0 -33 27l-18 154h-282q-69 0 -149 -11l-39 86q126 -18 188 -18h276l-9 78q-13 113 -26 158l107 -14q75 -10 75 -37q0 -19 -42 -39l-29 -14l15 -132h116l98 101l121 -106q16 -15 16 -26q0 -26 -27 -26h-318zM1112 415q219 -99 400 -145q171 -43 418 -77
l-5 -37q-67 -3 -86 -17q-13 -9 -36 -53q-29 7 -203 48q-321 77 -581 228q-183 -94 -384 -162q-185 -64 -528 -130l-8 41q561 146 841 301q-187 127 -301 287q-38 54 -104 187h-7q-107 -4 -143 -8l-38 88q93 -22 230 -22h380v278h-507q-107 0 -192 -8l-38 88q95 -23 230 -23
h507v102q0 118 -8 160l110 -24q85 -19 85 -46q0 -29 -49 -42l-42 -11v-139h563l99 102l120 -107q17 -15 17 -26q0 -26 -27 -26h-772v-278h398l68 77l84 -55q40 -26 40 -49q0 -27 -78 -61q-192 -281 -453 -441zM1023 460q269 170 432 426h-865q53 -99 139 -190
q138 -146 294 -236z" />
  </g>

</svg>
