<?xml version="1.0" standalone="no"?>
<!DOCTYPE svg PUBLIC "-//W3C//DTD SVG 1.1//EN" "http://www.w3.org/Graphics/SVG/1.1/DTD/svg11.dtd" >
<svg xmlns="http://www.w3.org/2000/svg" xmlns:xlink="http://www.w3.org/1999/xlink" version="1.1" viewBox="0 -120 1000 1000">
  <g transform="matrix(1 0 0 -1 0 880)">
   <path fill="currentColor"
d="M58 809l-12 28h265v124l79 -8q19 -2 19 -14q0 -8 -14 -15l-20 -9v-78h249v124l76 -4q21 -1 21 -15q0 -10 -17 -18l-14 -7v-80h123l54 59l86 -67v-20h-263v-102l-66 -6v108h-249v-102l-64 -8v110h-253zM637 660q89 -28 175 -80q82 -49 113 -93q18 -25 18 -42t-8 -31
q-9 -18 -27 -18q-17 0 -39 35q-24 38 -79 92q-314 -35 -633 -55l-7 -14q-6 -12 -14 -12t-16 15l-38 76l227 3l99 215l82 -31q12 -4 12 -14q0 -12 -16 -12h-21l-122 -158l414 16q-54 46 -129 91zM223 63v367l72 -33h396l33 42l65 -44q18 -11 18 -19q0 -7 -18 -13l-18 -7v-272
l-69 -8v52h-409v-57zM293 156h409v213h-409v-213z" />
  </g>

</svg>
