<?xml version="1.0" standalone="no"?>
<!DOCTYPE svg PUBLIC "-//W3C//DTD SVG 1.1//EN" "http://www.w3.org/Graphics/SVG/1.1/DTD/svg11.dtd" >
<svg xmlns="http://www.w3.org/2000/svg" xmlns:xlink="http://www.w3.org/1999/xlink" version="1.1" viewBox="0 -410 2048 2048">
  <g transform="matrix(1 0 0 -1 0 1638)">
   <path fill="currentColor"
d="M530 1741l-5 58q-11 126 -19 158l111 -16q88 -12 88 -41q0 -28 -47 -43l-41 -14l10 -102h136l99 102l121 -107q16 -15 16 -26q0 -26 -27 -26h-339l14 -147v-9q0 -41 -54 -41q-41 0 -45 47l-13 150h-216q-108 0 -192 -8l-38 88q96 -23 230 -23h211zM1335 1741l6 66
q10 105 10 132q0 10 -2 25l107 -32q82 -24 82 -50q0 -28 -52 -39l-43 -9l-9 -93h279l99 102l120 -107q17 -15 17 -26q0 -26 -27 -26h-493l-15 -155q-5 -51 -51 -51q-49 0 -49 42q0 7 1 14l14 150h-30q-109 0 -192 -8l-38 88q96 -23 230 -23h36zM1786 371q-316 -81 -682 -142
l-10 -40q-8 -33 -26 -33q-19 0 -51 59l-46 86q52 50 140 244q176 388 268 876l141 -46q54 -18 54 -44q0 -28 -66 -41l-40 -7q-66 -247 -151 -465q-96 -249 -257 -493q396 28 703 92q-46 83 -93 150q-13 19 -77 98q-20 24 -37 45l24 26q149 -129 238 -235q145 -173 145 -274
q0 -69 -57 -69q-43 0 -63 66q-24 76 -57 147zM208 1331l-39 84q92 -22 231 -22h352l73 72l83 -55q40 -25 40 -48q0 -27 -77 -62v-190l54 -36q37 -25 37 -46q0 -22 -41 -22h-593l-53 -247h506l69 80l93 -65q38 -26 38 -43q0 -27 -85 -57q-47 -350 -111 -461
q-72 -125 -248 -145q-7 73 -52 95q-24 11 -166 60l12 40q41 -12 103 -28q106 -29 150 -29q112 0 158 167q23 84 55 328h-546q-15 -18 -47 -18q-44 0 -44 28q0 7 5 33l52 237q21 99 23 155l106 -72h428v274h-374q-129 0 -192 -7z" />
  </g>

</svg>
