<?xml version="1.0" standalone="no"?>
<!DOCTYPE svg PUBLIC "-//W3C//DTD SVG 1.1//EN" "http://www.w3.org/Graphics/SVG/1.1/DTD/svg11.dtd" >
<svg xmlns="http://www.w3.org/2000/svg" xmlns:xlink="http://www.w3.org/1999/xlink" version="1.1" viewBox="0 -200 1000 1000">
  <g transform="matrix(1 0 0 -1 0 800)">
   <path fill="currentColor"
d="M642 835h-216v-75q-10 -9 -27.5 -15.5t-28.5 -6.5v96h-175l-77 -10l-20 31h272v115l82 -34l-26 -46v-35h216v111l80 -31l-25 -43v-37h147l48 31l69 -51h-264v-70q-8 -6 -23 -12.5t-32 -8.5v91zM223 670h574l39 50l85 -56l-45 -45v-549q-3 -11 -6 -26.5t-12.5 -31
t-28 -28.5t-52.5 -18q0 45 -51.5 65t-148.5 25l-1 13q25 -3 42.5 -5.5t32 -4.5t28 -3t29.5 -1q104 0 110 30v565h-610v-655q-12 -6 -17 -9.5t-9 -5.5t-10.5 -3t-22.5 -2v728zM294 497l-24 34h350l59 46l72 -67h-407zM421 404h160l38 37l62 -43l-27 -37v-162h-261v-53
q-2 -3 -2.5 -6t-4.5 -6t-13.5 -5.5t-28.5 -4.5v312zM394 216h208v171h-194l-14 -10v-161z" />
  </g>

</svg>
