<?xml version="1.0" standalone="no"?>
<!DOCTYPE svg PUBLIC "-//W3C//DTD SVG 1.1//EN" "http://www.w3.org/Graphics/SVG/1.1/DTD/svg11.dtd" >
<svg xmlns="http://www.w3.org/2000/svg" xmlns:xlink="http://www.w3.org/1999/xlink" version="1.1" viewBox="0 -140 1000 1000">
  <g transform="matrix(1 0 0 -1 0 860)">
   <path fill="currentColor"
d="M502 825v-14h-170v-83l-7 -10l-45 -17l-12 7v103h-200v21h200v102l97 -21v-14l-33 -12v-55h48l46 52h13zM941 825v-14h-237v-83l-7 -10l-45 -17l-12 7v103h-99v21h99v102l97 -21v-14l-33 -12v-55h115l46 52h13zM706 747l9 10q63 -27 79 -39.5t16 -39.5q0 -12 -5 -22
t-12 -10q-11 0 -26 23q-26 38 -32.5 46.5t-28.5 31.5zM591 715v-12l-33 -18q1 -3 1 -7l4 -44v-6h242l48 51h15l58 -56v-17h-360q14 -89 32 -146t62 -153q73 90 130 220l72 -58l-5 -11h-25q-72 -122 -144 -191q34 -44 78 -81.5t69 -37.5q15 0 27 25l39 83l10 -3l-19 -131
l24 -42l-4 -9q-21 -8 -32 -8q-32 0 -66 15t-66.5 44t-52 50t-47.5 53q-137 -107 -303 -154l-9 11q174 68 287 180q-42 72 -64.5 132.5t-45.5 162.5l-11 49h-303v-151h171l21 28h14l60 -52l-7 -11l-21 -8q-5 -135 -29 -182q-37 -67 -108 -67l-8 5v27l-93 41l2 10l102 -15
q3 -1 12 -1q33 0 45 43t15 159h-176q-8 -236 -131 -377l-10 7q53 91 65.5 186t12.5 363v49l65 -32h299q-7 66 -10 104z" />
  </g>

</svg>
