<?xml version="1.0" standalone="no"?>
<!DOCTYPE svg PUBLIC "-//W3C//DTD SVG 1.1//EN" "http://www.w3.org/Graphics/SVG/1.1/DTD/svg11.dtd" >
<svg xmlns="http://www.w3.org/2000/svg" xmlns:xlink="http://www.w3.org/1999/xlink" version="1.1" viewBox="0 -140 1000 1000">
  <g transform="matrix(1 0 0 -1 0 860)">
   <path fill="currentColor"
d="M678 581h172l26 26h15l63 -45v-14l-30 -18v-146q0 -82 -2.5 -125t-10.5 -86t-26.5 -65t-47.5 -40.5t-76 -33.5l-14 8l-7 26l-113 41v17l104 -12q6 0 10 -1h32q24 0 48.5 27t28.5 48q13 56 13 226v145h-198q-48 -64 -87 -100.5t-101 -75.5l-8 9q82 87 125.5 159.5
t77.5 177.5l92 -47l-6 -12l-29 -3q-24 -45 -51 -86zM214 581h172l32 34h17l56 -51v-16l-28 -25l-4 -448l-48 -20l-8 9v48h-247v-30l-6 -12l-48 -20l-8 9v558l70 -36h26q32 97 42 165l90 -39l-3 -16l-36 -7zM156 367h246v192h-246v-192zM156 134h246v210h-246v-210zM643 425
l5 11q2 -1 45 -23q85 -43 85 -84q0 -15 -8.5 -29t-17.5 -14t-37 49q-19 35 -72 90zM836 827l41 42h16l48 -45v-19h-241v-52l-5 -11l-50 -16l-8 8v71h-66v22h66v104l103 -31v-15l-40 -20v-38h136zM461 827l36 42h16l46 -45v-19h-164v-58l-5 -11l-48 -16l-10 7v78h-262v22h264
v104l102 -31v-15l-41 -20v-38h66z" />
  </g>

</svg>
