<?xml version="1.0" standalone="no"?>
<!DOCTYPE svg PUBLIC "-//W3C//DTD SVG 1.1//EN" "http://www.w3.org/Graphics/SVG/1.1/DTD/svg11.dtd" >
<svg xmlns="http://www.w3.org/2000/svg" xmlns:xlink="http://www.w3.org/1999/xlink" version="1.1" viewBox="0 -140 1000 1000">
  <g transform="matrix(1 0 0 -1 0 860)">
   <path fill="currentColor"
d="M513 817v-14h-170v-84l-7 -10l-45 -17l-12 7v104h-225v21h225v110l97 -21v-14l-33 -12v-63h48l46 52h13zM937 817v-14h-218v-74l-7 -10l-45 -17l-12 7v94h-103v21h103v110l97 -21v-14l-33 -12v-63h96l46 52h13zM472 715l51 -67l-13 -10l-44 7q-19 -4 -41 -8.5t-49 -9.5
t-43 -8v-134h40l34 40l16 -1l49 -48v-14h-139v-59q149 -71 149 -151q0 -33 -21 -33q-15 0 -34 42q-12 26 -42 65.5t-52 57.5l1 -320l-5 -11l-49 -17l-9 7l1 293q-72 -92 -116 -135.5t-102 -79.5l-9 7q80 80 125.5 151t87.5 183h-198v23h212v124q-98 -19 -195 -24l-7 15
q138 22 220.5 45.5t181.5 69.5zM608 635h250l23 34l15 -1l58 -45v-17l-25 -19l2 -82q7 -328 -97 -409q-49 -37 -128 -40l-11 8l-2 26l-84 52l5 9l88 -21q15 -4 32 -4q32 0 56 13.5t38 44.5t22.5 59t12 79t4 81t0.5 88v121h-131l-9 -91q-18 -137 -86.5 -249.5t-174.5 -178.5
l-69 -36l-10 10l50 31q222 163 233 514h-71q-37 -94 -107 -185l-15 7q42 90 60.5 155.5t24.5 149.5l93 -45l-2 -15l-36 -10q-1 -10 -9 -34z" />
  </g>

</svg>
