<?xml version="1.0" standalone="no"?>
<!DOCTYPE svg PUBLIC "-//W3C//DTD SVG 1.1//EN" "http://www.w3.org/Graphics/SVG/1.1/DTD/svg11.dtd" >
<svg xmlns="http://www.w3.org/2000/svg" xmlns:xlink="http://www.w3.org/1999/xlink" version="1.1" viewBox="0 -200 1000 1000">
  <g transform="matrix(1 0 0 -1 0 800)">
   <path fill="currentColor"
d="M344 602q-29 -24 -55 -46.5t-55 -45.5l22 -21h413l40 49l69 -55l-40 -37v-156h-488v-28q-7 -9 -12 -15t-10.5 -9t-12.5 -4t-18 -1v245q-23 -20 -58.5 -40t-83.5 -43l-4 7q51 36 97 76.5t86.5 83.5t75 87t60.5 86l56 -60l-59 -51h190l47 43l74 -49l-60 -33
q-24 -23 -50 -46.5t-56 -46.5h-10q16 26 30.5 52.5t27.5 55.5l-215 1zM566 250l-23 -65v-83q0 -26 8.5 -40.5t31.5 -14.5h172q23 2 35 5.5t18 18.5t9 47t8 92l8 2q-2 -18 -3.5 -33t-1.5 -28q0 -39 8.5 -59.5t20 -31.5t22.5 -16.5t16 -15.5q-14 -20 -43.5 -26t-69.5 -6h-221
q-20 4 -33.5 7.5t-22.5 11.5t-14 21.5t-7 36.5v213zM491 467v-156h192v155h-192v1zM250 450v-139h188v155h-178zM28 -69q55 29 103 60.5t88.5 69t72.5 83t54 102.5l62 -62l-42 -39q-25 -31 -59 -65t-77 -64.5t-93.5 -53.5t-107.5 -32zM589 254q25 -11 48 -23.5t40 -25.5
t27 -26.5t10 -26.5q0 -19 -21 -35q-23 3 -29.5 18t-13 35t-19.5 41.5t-48 38.5zM46 862h248v116l75 -33l-25 -63v-20h207v116q11 -7 19.5 -11.5t17 -8.5t17 -8.5t19.5 -11.5l-21 -54v-22h155l48 46l70 -68h-273v-75q-8 -7 -19 -18.5t-33 -15.5v109h-207v-73
q-11 -11 -22 -19.5t-28 -10.5v103h-148l-79 -16z" />
  </g>

</svg>
