<?xml version="1.0" standalone="no"?>
<!DOCTYPE svg PUBLIC "-//W3C//DTD SVG 1.1//EN" "http://www.w3.org/Graphics/SVG/1.1/DTD/svg11.dtd" >
<svg xmlns="http://www.w3.org/2000/svg" xmlns:xlink="http://www.w3.org/1999/xlink" version="1.1" viewBox="0 -140 1000 1000">
  <g transform="matrix(1 0 0 -1 0 860)">
   <path fill="currentColor"
d="M572 761v-15l-39 -19v-60h271l50 56h16l56 -60v-19h-393v-152q78 -128 168.5 -202.5t235.5 -134.5l-4 -13q-25 0 -34.5 -8t-22.5 -37q-120 56 -199.5 141t-143.5 204v-366l-6 -9l-50 -15l-9 3l1 307q-124 -167 -384 -283l-7 13q141 78 231.5 173.5t159.5 237.5v141h-394
v23h394v110zM806 594l-3 -15l-24 -2q-17 -37 -34 -64l35 -18q65 -32 85 -52t20 -53q0 -30 -18 -30q-20 0 -77 73q-6 8 -54 64q-49 -83 -105 -133l-11 9q63 86 98 251zM334 588l-4 -16l-24 -8q-23 -46 -47 -82q16 -11 53 -28q32 -16 42.5 -29.5t10.5 -38.5q0 -33 -18 -33
q-16 0 -32 25q-38 56 -65 87q-62 -91 -136 -148l-13 10q96 104 145 291zM836 838l41 42h16l48 -45v-19h-211v-72l-5 -11l-50 -16l-8 8v91h-96v22h96v94l103 -31v-15l-40 -20v-28h106zM461 838l36 42h16l46 -45v-19h-194v-68l-5 -11l-48 -16l-10 7v88h-242v22h244v94l102 -31
v-15l-41 -20v-28h96z" />
  </g>

</svg>
