<?xml version="1.0" standalone="no"?>
<!DOCTYPE svg PUBLIC "-//W3C//DTD SVG 1.1//EN" "http://www.w3.org/Graphics/SVG/1.1/DTD/svg11.dtd" >
<svg xmlns="http://www.w3.org/2000/svg" xmlns:xlink="http://www.w3.org/1999/xlink" version="1.1" viewBox="0 -410 2048 2048">
  <g transform="matrix(1 0 0 -1 0 1638)">
   <path fill="currentColor"
d="M1284 1367v-62h337l56 72l80 -53q35 -24 35 -45q0 -22 -64 -54v-139h49l80 81l114 -86q17 -13 17 -25q0 -26 -27 -26h-233v-135l44 -34q27 -21 27 -33q0 -19 -22 -19h-493v-162h291l98 102l121 -107q17 -15 17 -26q0 -27 -28 -27h-499v-174h450l98 101l121 -106
q17 -15 17 -26q0 -27 -27 -27h-659v-80q0 -41 6 -126q1 -14 1 -25q0 -49 -61 -49q-44 0 -44 51v229h-421q-155 -3 -195 -8l-42 88q95 -22 237 -22h421v174h-231q-133 0 -197 -6l-39 88q95 -24 236 -24h231v162h-212q-151 -3 -200 -8l-39 88q96 -26 239 -26h212v167h-366
q-141 -2 -197 -8l-39 88q96 -24 236 -24h366v161h-205q-108 -2 -199 -6l-31 80q90 -16 230 -16h205v22q-2 116 -8 162l169 -40q30 -7 30 -31q0 -28 -93 -51zM1284 1247v-161h345v161h-345zM1284 1030v-167h345v167h-345zM121 1055q160 -51 233 -88q103 -54 103 -112
q0 -53 -47 -53q-31 0 -60 38q-75 102 -245 181zM1411 1681l-16 -142q-6 -51 -50 -51q-50 0 -50 44q0 7 1 12l15 137h-46q-108 0 -192 -8l-38 88q96 -23 230 -23h51l6 64q10 114 10 133q0 10 -2 24l107 -32q82 -24 82 -49q0 -26 -52 -39l-43 -10l-8 -91h274l99 101l120 -106
q17 -15 17 -26q0 -26 -27 -26h-488zM629 1681l16 -147v-3v-6q-1 -41 -54 -41q-41 0 -45 47l-14 150h-254q-108 0 -192 -8l-38 88q96 -23 230 -23h250l-5 58q-9 121 -19 158l111 -16q88 -12 88 -41q0 -27 -46 -43l-42 -15l10 -101h97l98 101l121 -106q17 -15 17 -26
q0 -26 -27 -26h-302zM585 685l30 -26q-17 -23 -83 -114q-118 -162 -311 -375v-38q0 -45 -18 -45q-21 0 -40 27l-82 111q231 152 504 460zM270 1421q157 -50 232 -88q103 -54 103 -113q0 -52 -47 -52q-32 0 -60 39q-75 102 -244 180z" />
  </g>

</svg>
