<?xml version="1.0" standalone="no"?>
<!DOCTYPE svg PUBLIC "-//W3C//DTD SVG 1.1//EN" "http://www.w3.org/Graphics/SVG/1.1/DTD/svg11.dtd" >
<svg xmlns="http://www.w3.org/2000/svg" xmlns:xlink="http://www.w3.org/1999/xlink" version="1.1" viewBox="0 -140 1000 1000">
  <g transform="matrix(1 0 0 -1 0 860)">
   <path fill="currentColor"
d="M97 663v21h301l35 33h19l60 -61l-6 -15l-33 -3q-93 -117 -182.5 -177.5t-233.5 -104.5l-5 13q111 48 199 124q-6 8 -24 37q-18 35 -71 80l6 10q61 -19 93 -40t35 -53q68 66 109 136h-302zM284 448h328l42 46h16l54 -51v-17h-196q-3 -65 -11 -118h267l45 54h15l59 -61v-14
h-372q71 -81 168 -125t247 -56v-13q-20 -8 -28 -16.5t-26 -36.5q-156 35 -232 82.5t-150 156.5q-25 -84 -107 -141.5t-209 -80.5q-50 -10 -131 -14l-4 13q159 23 250.5 74t135.5 157h-348v21h353q7 46 10 82q0 12 3 36h-179v22zM950 444v-13q-26 -7 -37.5 -16.5t-22.5 -34.5
q-134 47 -218 132t-125 215l14 5q40 -75 72 -113q71 71 124 137l68 -60l-7 -9l-35 1l-135 -88q25 -29 61 -59q82 60 158 135l69 -62l-10 -10l-34 3l-163 -82q55 -35 97 -50.5t124 -30.5zM507 834v-14h-170v-68l-7 -7l-45 -17l-12 4v88h-207v21h207v93l97 -21v-14l-33 -12
v-46h48l46 52h13zM939 834v-14h-226v-68l-7 -10l-45 -17l-12 7v88h-103v21h103v93l97 -21v-14l-33 -12v-46h104l46 52h13z" />
  </g>

</svg>
