<?xml version="1.0" standalone="no"?>
<!DOCTYPE svg PUBLIC "-//W3C//DTD SVG 1.1//EN" "http://www.w3.org/Graphics/SVG/1.1/DTD/svg11.dtd" >
<svg xmlns="http://www.w3.org/2000/svg" xmlns:xlink="http://www.w3.org/1999/xlink" version="1.1" viewBox="0 -410 2048 2048">
  <g transform="matrix(1 0 0 -1 0 1638)">
   <path fill="currentColor"
d="M523 649q1 44 7 112q4 46 4 100v298h-222q-117 0 -192 -8l-38 88q93 -22 230 -22h566l97 101l122 -106q17 -15 17 -26q0 -27 -27 -27h-457v-298q0 -68 -13 -212h261v216q0 117 -8 159l105 -23q88 -20 88 -47q0 -23 -50 -41l-38 -13v-206q0 -37 2 -60q4 -60 4 -75
q0 -49 -56 -49q-47 0 -47 50v30h-265q-50 -196 -178 -322q-81 -81 -237 -174l-24 33q153 120 204 182q83 101 136 281h-228q-29 -14 -50 -14q-47 0 -47 56v233q0 113 -8 159l109 -23q86 -19 86 -46q0 -25 -50 -42l-40 -13v-251h237zM1453 1707l-15 -98q-6 -35 -14 -42
q-14 -12 -42 -12q-44 0 -44 30v6l16 116h-86q-75 0 -149 -10l-39 85q126 -18 188 -18h94l30 215l137 -32q39 -9 39 -28q0 -26 -89 -49l-17 -106h284l95 98l120 -102q17 -14 17 -26q0 -27 -27 -27h-498zM681 1764h83l83 87l121 -92q17 -14 17 -27q0 -25 -28 -25h-269l12 -110
q1 -6 1 -11q0 -35 -56 -35q-32 0 -36 34l-15 122h-313q-68 0 -148 -11l-39 86q123 -18 187 -18h307l-25 210l98 -14q85 -11 85 -36t-79 -49zM1694 62q-14 77 -56 101q-39 23 -185 47l8 46l90 -15q121 -20 149 -20q60 0 60 57v373h-462q-36 -194 -128 -327
q-99 -145 -293 -269l-26 30q134 118 194 200q119 164 153 352q24 138 24 484q0 285 -22 405l136 -80h406l68 76l84 -54q40 -26 40 -49q0 -28 -78 -61v-1121q0 -143 -162 -175zM1760 1389h-442v-318h442v318zM1305 708h455v305h-442q-1 -81 -13 -305zM268 1539
q104 -66 138 -96q66 -61 66 -122q0 -59 -48 -59q-23 0 -38 23q-4 5 -16 57q-16 65 -122 174zM914 1436q-75 -91 -216 -185l-25 27q120 120 176 271l118 -56q27 -13 27 -29q0 -22 -38 -25z" />
  </g>

</svg>
