<?xml version="1.0" standalone="no"?>
<!DOCTYPE svg PUBLIC "-//W3C//DTD SVG 1.1//EN" "http://www.w3.org/Graphics/SVG/1.1/DTD/svg11.dtd" >
<svg xmlns="http://www.w3.org/2000/svg" xmlns:xlink="http://www.w3.org/1999/xlink" version="1.1" viewBox="0 -204 1024 1024">
  <g transform="matrix(1 0 0 -1 0 820)">
   <path fill="currentColor"
d="M44 886q44 -12 117 -12h143l-12 94q45 -6 80 -12q11 -3 11 -9q0 -5 -12 -12q-14 -8 -26 -11l6 -50h41l38 41q31 -24 59 -45q7 -5 7 -10q0 -14 -13 -14h-128l7 -57q0 -10 -10 -14q-12 -7 -24 -7q-11 0 -13 10l-8 68h-146q-71 -2 -97 -7zM673 972q46 -5 84 -21q6 -3 6 -9
q0 -8 -16 -13l-31 -6l-4 -49h156l45 51l71 -54q8 -5 8 -11q0 -14 -16 -14h-266l-6 -59q-3 -19 -28 -19q-22 0 -22 12l1 11q2 9 4 26l3 29q-66 -2 -90 -7l-20 47q43 -12 113 -12q6 57 8 98zM209 776q84 -36 84 -52q0 -12 -46 -14q-32 -41 -83 -87q-42 -44 -93 -84q50 1 99 4
q46 3 86 7q31 49 49 94q84 -36 84 -52q0 -12 -46 -14q-48 -58 -125 -124q-63 -62 -139 -119q42 4 75 9q45 6 98 16q41 8 92 20q-2 5 -5 9q-17 29 -45 61l14 18q43 -30 67 -61q22 -25 33 -50q7 -17 7 -34q0 -35 -25 -35q-6 0 -11 5t-11 24q-6 22 -13 39q-42 -17 -75 -27
q-45 -14 -85 -25q-38 -10 -80 -18q-11 -37 -18 -37q-8 0 -49 83v1h1q78 68 124 118q34 34 59 67q-16 -5 -30 -9q-44 -13 -93 -23q-14 -33 -21 -33q-3 0 -7 7q-21 36 -39 79h5l-1 1q49 52 79 90q32 39 52 74q20 37 32 72zM59 208q46 -25 73 -52q23 -21 35 -41q8 -15 8 -29
q0 -38 -27 -38q-6 0 -12 5q-6 4 -12 20q-14 39 -32 62q-17 26 -48 53zM198 252q46 -26 72 -53q24 -21 35 -43q8 -15 8 -29q0 -35 -25 -35q-6 0 -12 5q-6 4 -12 20q-14 39 -32 63q-17 26 -48 54zM337 288q46 -25 71 -51q24 -20 35 -41q8 -14 8 -28q0 -32 -23 -32q-6 0 -12 5
q-6 3 -12 19q-14 38 -32 60q-17 25 -48 52zM557 708q49 -14 88 -33q7 -6 7 -11q0 -10 -13 -15q-23 -6 -42 -6q-15 -33 -34 -62q-19 -30 -42 -61q-20 -28 -44 -50q-20 -22 -54 -46l-19 14q33 30 56 63q27 37 49 78q23 42 38 85q8 21 10 44zM779 728q20 -50 45 -88
q23 -37 53 -71q30 -32 60 -55q29 -22 55 -31l-3 -20q-57 0 -76 -35q-25 20 -45 48q-23 31 -39 64q-19 32 -37 70q-19 41 -40 106zM460 426q40 -8 115 -8h243l32 33q33 -16 53 -36q8 -9 8 -17q0 -15 -40 -29q0 -83 -12 -177q-13 -93 -31 -126q-9 -20 -24 -29q-10 -7 -27 -13
q-25 -8 -57 -8q-2 17 -8 28q-4 8 -16 16q-27 13 -92 32l6 24q115 -38 133 -38q15 0 25 5t16 15q7 9 14 31q10 32 18 100q6 71 7 161h-175q-7 -54 -19 -98q-12 -50 -39 -89q-24 -46 -55 -80t-76 -63q-48 -31 -115 -56l-16 20q70 33 110 64t67 63q25 32 45 66q18 36 31 83
q9 37 15 90h-21q-80 0 -97 -7z" />
  </g>

</svg>
