<?xml version="1.0" standalone="no"?>
<!DOCTYPE svg PUBLIC "-//W3C//DTD SVG 1.1//EN" "http://www.w3.org/Graphics/SVG/1.1/DTD/svg11.dtd" >
<svg xmlns="http://www.w3.org/2000/svg" xmlns:xlink="http://www.w3.org/1999/xlink" version="1.1" viewBox="0 -410 2048 2048">
  <g transform="matrix(1 0 0 -1 0 1638)">
   <path fill="currentColor"
d="M1465 1707l-15 -98q-5 -35 -13 -43q-15 -12 -42 -12q-44 0 -44 29v8l19 116h-101q-74 0 -149 -10l-39 85q126 -18 188 -18h108l24 211l137 -32q38 -8 38 -28q0 -26 -89 -49l-14 -102h274l95 98l120 -102q17 -14 17 -26q0 -27 -27 -27h-487zM586 1764l-22 210l98 -14
q85 -11 85 -36t-78 -49l11 -111h89l83 87l120 -92q18 -14 18 -27q0 -25 -28 -25h-276l12 -113v-10q0 -36 -56 -36q-33 0 -36 34l-13 125h-318q-68 0 -149 -11l-39 86q123 -18 188 -18h311zM993 1681q211 -126 211 -207q0 -34 -34 -54h543l98 102l121 -107q17 -15 17 -26
q0 -26 -28 -26h-1449q1 -477 -64 -775q-41 -183 -130 -352q-57 -109 -123 -181l-26 28q174 269 217 675q-57 -65 -156 -147l4 -35q1 -4 1 -6q0 -36 -22 -36q-14 0 -44 38l-77 99q174 73 302 164q20 256 20 405q0 99 -8 269l130 -89h630q-14 13 -38 78q-26 69 -121 153z
M86 1261q219 -111 219 -213q0 -59 -50 -59q-32 0 -49 53q-28 87 -142 186zM820 1322l108 -40q57 -21 57 -42q0 -29 -50 -34l-42 -4q-38 -94 -81 -160h755l98 102l121 -107q16 -15 16 -26q0 -27 -27 -27h-511q-6 -123 -37 -305h486l98 100l121 -106q17 -15 17 -25
q0 -26 -28 -26h-705q-87 -242 -283 -366q-173 -109 -478 -197l-19 37q303 114 426 200q176 122 248 326h-368q-122 0 -192 -8l-39 87q98 -22 231 -22h383q7 33 36 305h-382q-91 -117 -210 -205l-27 29q131 142 189 269q66 145 89 245zM1329 506q519 -222 519 -359
q0 -30 -21 -50q-16 -16 -38 -16q-29 0 -66 49q-90 120 -222 214q-37 27 -187 124z" />
  </g>

</svg>
