<?xml version="1.0" standalone="no"?>
<!DOCTYPE svg PUBLIC "-//W3C//DTD SVG 1.1//EN" "http://www.w3.org/Graphics/SVG/1.1/DTD/svg11.dtd" >
<svg xmlns="http://www.w3.org/2000/svg" xmlns:xlink="http://www.w3.org/1999/xlink" version="1.1" viewBox="0 -140 1000 1000">
  <g transform="matrix(1 0 0 -1 0 860)">
   <path fill="currentColor"
d="M348 674l31 26h11l53 -54l-3 -14l-30 -4l-98 -60l33 -7v-13l-34 -20v-91l150 39l5 -12l-155 -67v-275q0 -27 -21 -39.5t-86 -28.5l-9 8v32l-77 33l1 11l66 -2q4 -1 12 -1q29 0 39.5 7t10.5 27v203l-124 -48l-2 -37l-15 -4l-40 91l181 48v159l48 -8l55 79h-253v22h251z
M437 662l-2 15q266 29 405 85l57 -59l-10 -10l-20 10l-17 -3q-102 -18 -176 -26l33 -14l-5 -13l-25 -1l-124 -94q24 -8 38 -17t20 -21t7 -20.5t1 -24.5l154 149l69 -58l-7 -11l-30 6l-275 -195l314 17q-22 30 -68 76l7 10q153 -72 153 -133q0 -45 -26 -45q-11 0 -22 17
q-22 40 -36 60l-148 -24v-263l-6 -8l-49 -14l-9 6v269l-190 -29l-6 -26l-14 -3l-22 87l97 3l90 85q-14 10 -35 39q-29 42 -83 75l3 10l15 -3l20 -4l20 -4l73 110q-88 -6 -171 -6zM602 210l-7 -8l-23 3q-58 -55 -107 -84.5t-132 -60.5l-6 12q68 34 113.5 76t93.5 115z
M748 258l9 10q1 -2 24 -12q66 -32 114 -71q26 -21 26 -63q0 -37 -24 -37q-10 0 -42 50q-36 58 -107 123zM507 834v-14h-170v-58l-7 -7l-45 -17l-12 4v78h-207v21h207v93l97 -21v-14l-33 -12v-46h48l46 52h13zM939 834v-14h-226v-58l-7 -10l-45 -17l-12 7v78h-103v21h103v93
l97 -21v-14l-33 -12v-46h104l46 52h13z" />
  </g>

</svg>
