<?xml version="1.0" standalone="no"?>
<!DOCTYPE svg PUBLIC "-//W3C//DTD SVG 1.1//EN" "http://www.w3.org/Graphics/SVG/1.1/DTD/svg11.dtd" >
<svg xmlns="http://www.w3.org/2000/svg" xmlns:xlink="http://www.w3.org/1999/xlink" version="1.1" viewBox="0 -140 1000 1000">
  <g transform="matrix(1 0 0 -1 0 860)">
   <path fill="currentColor"
d="M537 724l61 -31q103 14 155 28.5t114 46.5l61 -57l-8 -12l-26 5l-41 -9q7 -179 30.5 -317t74.5 -304l-11 -11q-21 7 -33 7q-8 0 -28 -5q-54 300 -54 544q0 58 1 83q-40 -8 -89 -13v-454l39 10q-7 35 -18 60l13 5q2 -3 8.5 -11t10.5 -14q56 -76 56 -113q0 -13 -9.5 -32.5
t-21.5 -19.5q-22 0 -29 64q-1 10 -7 43l-181 -83l-1 -36l-12 -5l-40 88l128 31v463q-1 0 -86 -1v-79q0 -219 -40 -336.5t-143 -201.5l-9 11q81 83 110 191.5t29 323.5q0 62 -4 141zM647 931l101 -22v-15l-40 -16v-36h133l39 43h12l52 -48v-17h-236v-69l-5 -11l-48 -11l-8 7
v84h-129v22h129v89zM408 842l36 43h15l48 -46v-19h-162v-68l-5 -11l-48 -12l-8 4v87h-228v22h228v89l101 -20v-15l-40 -16v-38h63zM482 677l-65 -11q11 -169 25 -228t59 -164l-11 -11q-21 7 -33 7q-8 0 -28 -5q-43 132 -43 328q0 40 1 61q-14 6 -58 4v-429l51 18
q-8 23 -30 70l9 7q14 -12 24 -22q66 -63 66 -110q0 -19 -8.5 -36t-18.5 -17q-18 0 -29 57q-3 15 -7 32l-155 -93l2 -22l-10 -5l-45 76l87 28v445l-37 -2q-19 0 -47 2q1 -28 1 -94q0 -139 -17.5 -244t-34.5 -148t-50 -107l-12 8q61 159 61 465q0 84 -7 175l71 -35
q90 7 142 20.5t120 47.5l60 -61l-5 -13z" />
  </g>

</svg>
