<?xml version="1.0" standalone="no"?>
<!DOCTYPE svg PUBLIC "-//W3C//DTD SVG 1.1//EN" "http://www.w3.org/Graphics/SVG/1.1/DTD/svg11.dtd" >
<svg xmlns="http://www.w3.org/2000/svg" xmlns:xlink="http://www.w3.org/1999/xlink" version="1.1" viewBox="0 -204 1024 1024">
  <g transform="matrix(1 0 0 -1 0 820)">
   <path fill="currentColor"
d="M48 890q44 -12 117 -12h118l-11 86q45 -6 80 -12q10 -3 10 -9q0 -5 -11 -12q-14 -8 -26 -11l5 -42h66l38 41q31 -24 59 -45q7 -5 7 -10q0 -14 -13 -14h-153l8 -65q0 -10 -10 -14q-13 -7 -24 -7t-13 10l-9 76h-121q-71 -2 -97 -7zM693 964q46 -5 84 -21q6 -3 6 -9
q0 -8 -16 -13q-16 -4 -31 -6q-1 -18 -4 -37h132l44 49l68 -52q8 -5 8 -11q0 -14 -15 -14h-241q-4 -31 -12 -67q-3 -19 -28 -19q-22 0 -22 12l1 11q3 8 6 25q3 20 6 38h-10q-71 -2 -97 -7l-20 47q44 -12 117 -12h15q7 50 9 86zM63 718q45 -12 118 -12h195q-1 46 -6 70
q46 -9 75 -18q11 -4 11 -11q0 -5 -7 -9q-11 -6 -25 -10v-22h168q-1 46 -6 70q46 -9 76 -18q10 -4 10 -11q0 -5 -7 -9q-11 -6 -25 -10v-22h196l44 49q36 -27 68 -52q8 -5 8 -11q0 -14 -15 -14h-301v-60h168l35 33q51 -36 51 -50q0 -10 -30 -25v-167q0 -23 1 -30q1 -8 1 -16
q0 -21 -35 -27q-15 0 -15 10v24h-616v-16q0 -10 -12 -16q-15 -6 -25 -6q-13 0 -13 14q0 4 1 14q1 23 1 42v178q0 49 -2 68l63 -30h163v60h-195q-71 -2 -97 -7zM592 618v60h-168v-60h168zM200 398h176v84h-176v-84zM424 482v-84h168v84h-168zM640 482v-84h176v84h-176z
M200 510h176v80h-176v-80zM424 590v-80h168v80h-168zM640 590v-80h176v80h-176zM246 328l63 -30h411l35 33q51 -36 51 -50q0 -10 -30 -25v-171q0 -23 1 -30q1 -8 1 -16q0 -21 -34 -27q-16 0 -16 10v28h-432v-16q0 -10 -12 -16q-15 -6 -25 -6q-13 0 -13 14q0 4 1 13
q1 24 1 43v178q0 49 -2 68zM296 78h432v192h-432v-83h302l37 38q31 -22 57 -44q6 -6 6 -8q0 -6 -4 -9q-3 -5 -8 -5h-390v-81z" />
  </g>

</svg>
