<?xml version="1.0" standalone="no"?>
<!DOCTYPE svg PUBLIC "-//W3C//DTD SVG 1.1//EN" "http://www.w3.org/Graphics/SVG/1.1/DTD/svg11.dtd" >
<svg xmlns="http://www.w3.org/2000/svg" xmlns:xlink="http://www.w3.org/1999/xlink" version="1.1" viewBox="0 -410 2048 2048">
  <g transform="matrix(1 0 0 -1 0 1638)">
   <path fill="currentColor"
d="M1401 1696l-11 -83q-4 -36 -14 -45q-12 -11 -38 -11q-51 0 -51 35q0 6 1 9l14 95h-47q-68 0 -148 -11l-39 86q125 -18 187 -18h55l11 89q6 42 11 121l88 -16q95 -17 95 -45q0 -26 -39 -35l-56 -12l-13 -102h339l95 98l120 -103q17 -15 17 -26q0 -26 -28 -26h-549z
M1354 1545l106 -24q85 -19 85 -45q0 -28 -49 -42l-40 -11v-80h187l61 72l72 -50q42 -29 42 -50q0 -16 -66 -52v-138h47l79 80l98 -80q23 -19 23 -38t-23 -19h-224v-127l54 -44q18 -14 18 -30q0 -20 -18 -20h-350v-185h205l91 88l117 -88q22 -16 22 -38q0 -20 -27 -20h-408
v-166h276l99 94l114 -87q32 -23 32 -38q0 -27 -25 -27h-496v-21q0 -39 3 -96q3 -65 4 -84q0 -40 1 -49q2 -22 2 -31q0 -44 -58 -44q-45 0 -45 50v275h-195q-118 0 -192 -8l-32 87q103 -21 224 -21h195v166h-107q-118 0 -194 -8l-33 88q104 -22 227 -22h107v185h-75
q-118 0 -192 -8l-34 87q104 -20 226 -20h75v162h-171q-119 0 -192 -8l-35 87q104 -22 227 -22h171v161h-75q-118 0 -192 -8l-34 87q107 -22 226 -22h75v53q-6 136 -9 149zM1661 1125v161h-205v-161h205zM1456 1068v-162h205v162h-205zM813 1476l98 -81q27 -22 27 -41
q0 -23 -22 -23h-589v-188h336l72 78l93 -78q25 -21 25 -34q0 -24 -36 -24h-490v-174h336l72 73l89 -70q28 -22 28 -38q0 -23 -21 -23h-504v-183h432l80 81l105 -81q21 -17 21 -35q0 -22 -21 -22h-463q-112 -172 -258 -338q210 30 529 110q-36 63 -115 132l26 31
q262 -171 262 -310q0 -64 -56 -64q-40 0 -61 78q-12 47 -37 98q-178 -68 -452 -148l-72 -20q-12 -73 -34 -73q-16 0 -35 38l-55 110q40 19 65 54q83 119 171 302h-105q-83 0 -161 -8l-36 86q107 -21 144 -21h38v645q0 75 -16 161l120 -87h392zM711 1696l17 -98q1 -4 1 -12
q0 -44 -49 -44q-41 0 -48 52l-14 102h-346q-70 0 -149 -11l-39 86q125 -18 188 -18h338l-23 206l102 -13q86 -11 86 -37q0 -21 -43 -38l-37 -15l11 -103h75l83 87l105 -92q20 -17 20 -31q0 -21 -27 -21h-251z" />
  </g>

</svg>
