<?xml version="1.0" standalone="no"?>
<!DOCTYPE svg PUBLIC "-//W3C//DTD SVG 1.1//EN" "http://www.w3.org/Graphics/SVG/1.1/DTD/svg11.dtd" >
<svg xmlns="http://www.w3.org/2000/svg" xmlns:xlink="http://www.w3.org/1999/xlink" version="1.1" viewBox="0 -140 1000 1000">
  <g transform="matrix(1 0 0 -1 0 860)">
   <path fill="currentColor"
d="M720 359l30 29h14l58 -42v-17l-23 -22v-239l-5 -12l-50 -10l-7 8l-1 25h-469q0 -15 -6 -25l-52 -9l-7 8v338l67 -32h451zM736 238v101h-212v-101h212zM267 238h191v101h-191v-101zM736 216h-212v-115h212v115zM459 216h-192v-115h192v115zM524 711v-83h327l29 28h19
l47 -58l-3 -15l-35 -6l-66 -77l-12 7l31 99h-337v-189l-3 -13l-55 -13l-8 7v208h-308q0 -59 -9 -92.5t-38 -53.5q-10 -8 -16 -8q-10 0 -18 14.5t-8 30.5q0 18 21 39q40 40 49 132h14l5 -40h309v83h-309v21h607l41 46h17l55 -52v-15h-346zM178 543h136l34 41h13l47 -45v-17
h-230v21zM178 455h134l34 38h14l48 -44v-15h-230v21zM582 455h131l37 42h15l47 -48v-15h-230v21zM582 546h134l32 42h14l50 -49v-14h-230v21zM647 936l101 -22v-15l-40 -16v-26h133l39 43h12l52 -48v-17h-236v-51l-5 -12l-48 -10l-8 6v67h-129v22h129v79zM408 857l36 43h15
l48 -46v-19h-162v-53l-5 -11l-48 -12l-8 4v72h-228v22h228v79l101 -20v-15l-40 -16v-28h63z" />
  </g>

</svg>
