<?xml version="1.0" standalone="no"?>
<!DOCTYPE svg PUBLIC "-//W3C//DTD SVG 1.1//EN" "http://www.w3.org/Graphics/SVG/1.1/DTD/svg11.dtd" >
<svg xmlns="http://www.w3.org/2000/svg" xmlns:xlink="http://www.w3.org/1999/xlink" version="1.1" viewBox="0 -120 1000 1000">
  <g transform="matrix(1 0 0 -1 0 880)">
   <path fill="currentColor"
d="M51 466q55 61 90 118q76 119 99 193l69 -27q19 -7 20 -14q1 -9 -17 -12l-21 -3l-14 -21h122l22 35l63 -36q15 -9 15 -18q0 -12 -18 -15l-20 -3l-81 -78h97l20 35l63 -35q16 -9 16 -17t-14 -14l-14 -6v-253l-62 -8v25h-264v-27l-65 -9v264q-50 -54 -91 -84zM260 672
q-23 -35 -66 -87h155l45 87h-134zM222 439v-99h101v99h-101zM222 558v-92h101v92h-101zM382 340h104v99h-104v-99zM382 466h104v92h-104v-92zM168 244q2 -38 2 -57q0 -52 -21 -88q-20 -35 -50 -35q-15 0 -26 11q-8 8 -8 18q0 12 7 21t32 35q21 23 30 45q6 15 13 50h21z
M86 835l-17 26h280v100l67 -8q28 -3 28 -15q0 -8 -16 -15l-15 -7v-55h190v103l74 -11q18 -3 18 -14q0 -8 -13 -13l-17 -6v-59h153l49 59l80 -63v-22h-282v-63l-62 -9v72h-190v-72l-64 -10v82h-263zM258 251q56 -69 56 -126q0 -25 -17 -41q-11 -11 -23 -11q-27 0 -27 37
q0 5 2 38q1 12 1 23q0 28 -10 77zM361 251q83 -72 83 -124q0 -21 -14 -33q-9 -8 -19 -8q-11 0 -22 10q-6 6 -18 77q-4 21 -29 74zM457 261q51 -21 86 -53q49 -44 49 -77q0 -21 -13 -33q-9 -8 -21 -8q-9 0 -17 6t-28 56q-20 46 -68 98zM652 256v438l65 -11q26 -4 26 -14
q0 -8 -13 -13l-18 -7v-383zM901 707v-582q0 -30 -46 -49q-24 -10 -37 -10q-5 0 -7 2q-3 2 -10 31q-2 10 -20 15l-54 14v19h109v603l73 -10q21 -3 21 -14q0 -8 -15 -14z" />
  </g>

</svg>
