<?xml version="1.0" standalone="no"?>
<!DOCTYPE svg PUBLIC "-//W3C//DTD SVG 1.1//EN" "http://www.w3.org/Graphics/SVG/1.1/DTD/svg11.dtd" >
<svg xmlns="http://www.w3.org/2000/svg" xmlns:xlink="http://www.w3.org/1999/xlink" version="1.1" viewBox="0 -204 1024 1024">
  <g transform="matrix(1 0 0 -1 0 820)">
   <path fill="currentColor"
d="M40 890q44 -12 117 -12h138l-11 86q45 -6 80 -12q11 -3 11 -9q0 -5 -12 -12q-14 -8 -26 -11l5 -42h54l38 41q31 -24 59 -45q7 -5 7 -10q0 -14 -13 -14h-141l8 -65q0 -10 -10 -14q-12 -7 -24 -7q-11 0 -13 10l-9 76h-141q-71 -2 -97 -7zM669 964q46 -5 84 -21q6 -3 6 -9
q0 -8 -16 -13l-31 -6q-1 -19 -4 -37h156l44 49q36 -27 68 -52q8 -5 8 -11q0 -14 -15 -14h-265q-4 -31 -12 -67q-3 -19 -28 -19q-22 0 -22 12l1 11q3 8 6 25q4 20 6 38q-60 -3 -83 -7l-20 47q41 -11 107 -12q8 50 10 86zM470 820q20 -10 35 -20q17 -9 28 -18t15 -16
q4 -6 4 -12q0 -18 -4 -28h300l44 49q36 -27 68 -52q8 -5 8 -11q0 -14 -15 -14h-313v-76h180l31 29q51 -36 51 -50q0 -10 -30 -25v-51q0 -23 1 -30q1 -8 1 -16q0 -21 -34 -27q-16 0 -16 10v12h-443l-21 -84h432l41 45q34 -25 64 -49q7 -4 7 -10q0 -14 -14 -14h-537l-18 -76
h535l28 27q27 -16 51 -34q6 -7 6 -13q0 -13 -37 -27q-12 -77 -26 -118q-12 -40 -27 -59t-29 -28q-13 -8 -29 -13q-14 -5 -23 -5q0 24 -6 35q-4 10 -19 15q-23 10 -71 21l4 17q96 -21 112 -21q8 0 14 3q7 2 12 11q6 8 16 30q8 21 15 57q7 33 9 74h-547l-4 -4q-16 -6 -25 -6
q-17 0 -17 9q0 4 3 8q8 22 25 93l28 116h-151q-1 -33 -4 -62q-3 -61 -15 -124q-9 -51 -23 -94q-14 -39 -35 -75q-19 -31 -51 -63l-14 11q20 27 34 60q15 29 24 62q12 36 20 84q8 56 12 114q6 77 6 173q0 128 -4 204l57 -38h320q-5 14 -13 27q-8 14 -18 26q-9 12 -26 27z
M183 502h193v92h-192v-34q0 -31 -1 -58zM424 502h168v92h-168v-92zM640 502h184v88l-1 4h-183v-92zM184 622h192v76h-192v-76zM424 622h168v76h-168v-76zM271 220l13 -2q2 -20 2 -37q0 -27 -6 -51q-5 -24 -16 -40q-8 -14 -20 -23q-11 -9 -22 -12q-10 -3 -18 -3q-24 0 -24 17
q0 6 13 17q32 24 46 42q13 16 22 38q8 20 10 54zM398 220q20 -28 30 -49q11 -23 15 -41q5 -19 5 -29q0 -41 -24 -41q-23 0 -23 31q0 30 -2 46q-1 18 -5 35q-3 20 -10 43zM536 224q19 -16 35 -32q16 -15 26 -29q11 -14 15 -24t4 -20q0 -18 -5 -27q-8 -12 -19 -12q-5 0 -8 4
q-4 3 -7 19q-4 19 -13 38q-8 18 -18 35q-9 16 -26 36zM692 232q21 -13 36 -26q17 -12 25 -21q10 -9 14 -15q3 -5 5 -11q2 -4 2 -9q-1 -30 -22 -30q-3 0 -6 2q-2 3 -12 23t-21 36q-12 16 -33 37z" />
  </g>

</svg>
