<?xml version="1.0" standalone="no"?>
<!DOCTYPE svg PUBLIC "-//W3C//DTD SVG 1.1//EN" "http://www.w3.org/Graphics/SVG/1.1/DTD/svg11.dtd" >
<svg xmlns="http://www.w3.org/2000/svg" xmlns:xlink="http://www.w3.org/1999/xlink" version="1.1" viewBox="0 -410 2048 2048">
  <g transform="matrix(1 0 0 -1 0 1638)">
   <path fill="currentColor"
d="M308 1026v-52q0 -47 -6 -135q-15 -268 -58 -403q-43 -136 -146 -278l-29 19q99 187 122 374q19 159 19 497q0 281 -8 517l114 -74h700q-9 10 -15 22q-28 54 -57 81q-22 21 -74 57l21 30q116 -43 157 -72q48 -33 48 -72q0 -23 -24 -46h593l107 120l111 -86q58 -44 58 -60
q0 -30 -35 -30h-615v-147h350l67 76l84 -54q40 -26 40 -48q0 -29 -77 -62v-195q0 -19 -16 -30q-26 -18 -55 -18q-26 0 -26 17v31h-436l74 -17q86 -18 86 -44q0 -29 -50 -43l-41 -11v-59h289l80 80l114 -85q17 -13 17 -26q0 -27 -27 -27h-473v-41q0 -47 30 -59
q39 -14 253 -14q190 0 222 17q30 17 44 96q14 78 18 106l31 -6l4 -88q3 -63 16 -79q4 -5 37 -34q17 -15 17 -30q0 -38 -83 -58q-72 -17 -317 -17q-247 0 -292 14q-77 24 -77 121v152q-4 139 -5 152h-680l64 -14q86 -19 86 -46q0 -28 -49 -42l-41 -11v-61h289l80 80l114 -85
q17 -13 17 -26q0 -27 -27 -27h-473v-119q167 12 511 64l10 -35q-241 -81 -506 -135l-5 -31q-5 -36 -24 -36q-22 0 -41 41l-52 109l12 3v221q0 86 -7 150q-4 -1 -116 -5q-12 -1 -31 -3zM308 1080q81 -17 204 -17h219v169h-204q-118 0 -192 -8l-27 64v-208zM308 1309
q88 -21 219 -21h204v147h-423v-126zM828 1435v-147h366v147h-366zM828 1063h366v169h-366v-169zM1291 1063h367v169h-367v-169zM1415 1696l-13 -88q-5 -34 -14 -42q-15 -12 -42 -12q-35 0 -45 18q-4 8 -3 11l1 8l20 105h-37q-68 0 -149 -11l-39 86q124 -18 188 -18h46
l27 212l139 -29q38 -8 38 -30t-38 -33l-56 -15l-15 -105h331l94 98l120 -103q18 -15 18 -25q0 -27 -28 -27h-543zM697 1753h65l83 87l120 -92q18 -14 18 -27q0 -25 -28 -25h-252l10 -92q1 -5 1 -6q0 -39 -57 -39q-32 0 -36 33l-11 104h-331q-68 0 -149 -11l-39 86
q124 -18 188 -18h324l-24 213l99 -13q85 -12 85 -37q0 -21 -35 -33l-44 -16zM1143 408h387l95 102l132 -105q16 -13 16 -30q0 -24 -27 -24h-603v-179h557l114 110l123 -115q18 -16 18 -25q0 -27 -28 -27h-1452q-108 0 -192 -8l-38 88q96 -23 230 -23h570v179h-370
q-108 0 -192 -8l-38 88q98 -23 230 -23h370v50q0 98 -8 141l109 -24q86 -19 86 -46q0 -28 -50 -42l-39 -10v-69z" />
  </g>

</svg>
