<?xml version="1.0" standalone="no"?>
<!DOCTYPE svg PUBLIC "-//W3C//DTD SVG 1.1//EN" "http://www.w3.org/Graphics/SVG/1.1/DTD/svg11.dtd" >
<svg xmlns="http://www.w3.org/2000/svg" xmlns:xlink="http://www.w3.org/1999/xlink" version="1.1" viewBox="0 -140 1000 1000">
  <g transform="matrix(1 0 0 -1 0 860)">
   <path fill="currentColor"
d="M416 702l47 52h13l63 -57v-18h-155v-96h57l24 29h15l49 -41v-14l-25 -13v-153l-7 -10l-39 -13l-10 5l-1 34h-290l1 -21l-6 -9l-43 -11l-9 7v232l58 -22h57v96h-166v23h367zM332 679h-65v-96h65v96zM215 561h-58v-131h58v131zM332 561h-65v-131h65v131zM447 561h-63v-131
h63v131zM344 385v-16l-27 -11v-74h65l36 42h12l48 -48v-16h-161v-101l186 39l1 -13l-391 -115l-3 -25l-12 -3l-29 78l184 30v110h-143v22h143v116zM810 702l47 53h16l65 -58v-18h-283l-14 -129h119l29 32h13l58 -56l-2 -12l-34 -11l-7 -346q0 -23 3 -30t15 -7q22 0 31.5 1
t20 8.5t14.5 22.5l20 74l15 -2l1 -102l24 -18v-13q-31 -21 -65 -21h-81q-36 0 -47 12.5t-10 51.5l1 64l-217 -92l-4 -32l-13 -3l-39 81l56 14l53 513h-35v23h250zM639 527l-36 -351l156 44l7 308zM633 405l7 10q31 -10 46.5 -16t34.5 -17t27 -25.5t8 -35.5q0 -33 -27 -33
q-11 0 -31 39q-15 31 -65 78zM843 834l39 43h12l52 -48v-17h-242v-73l-5 -11l-48 -11l-8 7v88h-129v22h129v98l101 -24v-15l-40 -16v-43h139zM404 834l36 42h15l48 -45v-19h-163v-70l-5 -12l-48 -14l-8 6v90h-223v22h223v97l102 -24v-15l-41 -16v-42h64z" />
  </g>

</svg>
