<?xml version="1.0" standalone="no"?>
<!DOCTYPE svg PUBLIC "-//W3C//DTD SVG 1.1//EN" "http://www.w3.org/Graphics/SVG/1.1/DTD/svg11.dtd" >
<svg xmlns="http://www.w3.org/2000/svg" xmlns:xlink="http://www.w3.org/1999/xlink" version="1.1" viewBox="0 -204 1024 1024">
  <g transform="matrix(1 0 0 -1 0 820)">
   <path fill="currentColor"
d="M46 880q44 -10 118 -10h117l-15 88q44 -5 78 -12q10 -3 10 -8q0 -7 -12 -14q-11 -8 -24 -10l9 -44h67l40 40q32 -23 59 -43q7 -4 7 -9q0 -18 -14 -18h-155l5 -30q0 -12 -10 -15q-13 -7 -24 -7q-9 0 -10 8l-7 44h-121q-72 -1 -96 -4zM686 958q43 -4 80 -19q4 -5 4 -11
q0 -8 -14 -13q-16 -3 -30 -5q-1 -22 -6 -40h138l44 46q36 -25 69 -47q9 -5 9 -11q0 -18 -12 -18h-254q-5 -16 -12 -36q-3 -16 -26 -16q-22 0 -22 12l2 11q3 7 8 20q1 5 2 9q-69 -1 -96 -4l-18 44q43 -10 116 -10h4q10 51 14 88zM50 774q44 -14 118 -14h324q0 45 -6 70
q45 -8 74 -17q10 -6 10 -13q0 -5 -7 -8q-10 -6 -23 -10v-22h312l46 54q38 -27 69 -54q9 -5 9 -12q0 -14 -12 -14h-424v-58h228l42 50q38 -25 69 -51q9 -5 9 -11q0 -14 -12 -14h-610q-69 -1 -96 -4l-18 44q43 -14 114 -14h226v58h-324q-72 -1 -96 -4zM134 636l52 -26h661
l23 26q54 -30 54 -44q0 -10 -28 -26v-92q0 -20 -34 -26q-14 0 -14 8v18h-666v-4q0 -11 -12 -16q-13 -6 -24 -6q-12 0 -12 12v176zM182 500h666v76l-1 4h-227v-14q3 -18 52 -18h80q17 0 18 -12q-2 -11 -22 -14q-23 -4 -76 -4q-55 0 -75 8q-20 7 -27 28v26h-100q-2 -7 -5 -12
q-7 -7 -20 -14q-13 -11 -29 -17q-19 -6 -44 -11q-30 -6 -70 -12l-6 18q32 5 49 10q20 4 34 9q11 6 21 12q10 5 15 11q3 2 4 6h-235l-2 -4v-76zM222 470l62 -32h472l26 32q54 -32 54 -44t-28 -28v-234q0 -17 -34 -22q-14 0 -14 6v22h-340q23 -17 44 -29q4 -4 4 -11
q0 -10 -22 -10h-26q-50 -22 -106 -39q-52 -19 -102 -30q-62 -18 -126 -27l-10 22q94 22 155 47q67 21 105 42q29 15 49 35h-115v-14q0 -9 -12 -13q-13 -5 -22 -5q-14 0 -14 10v322zM270 196h490v48h-490v-48zM270 274h490v50h-490v-50zM270 354h490v54h-490v-54zM602 142
q69 -8 135 -22q69 -13 102 -21q33 -10 46 -18q12 -7 20 -13q5 -6 5 -10q0 -26 -18 -26q-8 0 -21 5q-11 5 -26 12q-30 12 -52 19q-30 9 -73 22q-46 13 -128 30z" />
  </g>

</svg>
