<?xml version="1.0" standalone="no"?>
<!DOCTYPE svg PUBLIC "-//W3C//DTD SVG 1.1//EN" "http://www.w3.org/Graphics/SVG/1.1/DTD/svg11.dtd" >
<svg xmlns="http://www.w3.org/2000/svg" xmlns:xlink="http://www.w3.org/1999/xlink" version="1.1" viewBox="0 -204 1024 1024">
  <g transform="matrix(1 0 0 -1 0 820)">
   <path fill="currentColor"
d="M46 888q44 -12 118 -12h114l-12 82q48 -5 85 -12q13 -3 13 -8q0 -8 -15 -17q-12 -7 -25 -11l5 -34h65l40 40q32 -20 59 -42q7 -3 7 -8q0 -18 -14 -18h-153l7 -52q0 -9 -11 -11q-14 -7 -27 -7q-12 0 -14 8l-7 62h-117q-72 -1 -96 -4zM686 958q43 -4 80 -19q4 -5 4 -11
q0 -8 -14 -13q-16 -3 -30 -5q-1 -19 -2 -34h134l44 48q36 -23 69 -49q9 -3 9 -9q0 -18 -12 -18h-249q-4 -26 -11 -60q-6 -14 -28 -14t-22 12l1 8q5 8 8 26q3 14 5 28h-4q-71 -1 -98 -4l-18 44q43 -12 116 -12h9q7 47 9 82zM186 788q45 -14 78 -32q6 -6 6 -12q0 -7 -15 -10
q-19 -4 -29 -4q-20 -31 -49 -61q-25 -26 -55 -49q-32 -19 -76 -44l-14 8q37 31 61 56q23 21 41 50q21 25 35 51q10 20 17 47zM226 646q45 -18 78 -32q6 -6 6 -12q0 -11 -15 -14q-20 -4 -29 -4q-26 -47 -61 -90q-15 -14 -27 -30q40 -18 40 -26q0 -10 -32 -26v-274
q0 -34 7 -48q3 -16 3 -26q0 -30 -36 -32q-22 0 -22 18v377q-4 -5 -6 -7q-39 -32 -92 -66l-16 6q49 42 81 77q27 32 55 68q24 37 44 71q13 32 22 70zM426 786q96 -19 96 -38q0 -12 -54 -14q-7 -19 -15 -32h113l30 32q33 -25 59 -50q3 -2 3 -8q0 -8 -18 -12q-14 -4 -30 -6
q-17 -25 -45 -48q-14 -17 -29 -30h100l28 34q52 -33 52 -44t-30 -30v-208q0 -17 -32 -22q-14 0 -14 8v18h-268v-8q0 -14 -36 -18q-18 0 -18 10v225q-17 -14 -34 -23l-14 18q35 32 58 52q18 22 41 59q18 27 37 65q12 28 20 70zM368 364h110v88h-110v-88zM526 364h114v88h-114
v-88zM368 482h110v72h-110v-72zM526 554v-72h114v72h-114zM358 580h145q23 25 38 45q16 26 25 47h-132q-9 -15 -20 -29q-26 -36 -56 -63zM240 252q43 -12 114 -12h115q1 6 1 12q0 46 -6 72q47 -6 76 -11q14 -4 14 -11q0 -11 -12 -17q-13 -8 -28 -11q-1 -18 -2 -34h142l40 40
q31 -20 59 -42q7 -4 7 -8q0 -16 -12 -16h-240q-3 -14 -6 -23q41 -15 71 -33q39 -16 62 -29q19 -14 32 -23q7 -6 12 -14q3 -7 3 -16q0 -26 -18 -26q-10 0 -17 3q-7 4 -32 32q-23 26 -56 49q-23 17 -62 41q-11 -26 -25 -40q-16 -28 -46 -45q-32 -22 -72 -34q-42 -14 -96 -24
l-2 22q52 8 86 22q33 15 59 34q27 22 42 44q15 25 22 50q1 4 1 10h-112q-69 -1 -96 -6zM720 698q43 -12 116 -12h34l44 44q32 -25 62 -46q6 -6 6 -12q0 -14 -10 -14h-136q-71 -1 -98 -4zM712 530q43 -12 114 -12h58l44 44q30 -25 59 -46q7 -5 7 -12q0 -16 -12 -16h-90v-380
q0 -34 -14 -50t-33 -27q-21 -11 -35 -11l-1 18q-2 12 -6 17q-9 11 -33 20q-25 12 -54 15v22q48 -14 88 -14q22 0 31 6q9 5 9 30v354h-18q-69 0 -96 -2z" />
  </g>

</svg>
