<?xml version="1.0" standalone="no"?>
<!DOCTYPE svg PUBLIC "-//W3C//DTD SVG 1.1//EN" "http://www.w3.org/Graphics/SVG/1.1/DTD/svg11.dtd" >
<svg xmlns="http://www.w3.org/2000/svg" xmlns:xlink="http://www.w3.org/1999/xlink" version="1.1" viewBox="0 -140 1000 1000">
  <g transform="matrix(1 0 0 -1 0 860)">
   <path fill="currentColor"
d="M800 445l26 30h16l50 -36v-15l-23 -14v-272q0 -45 -16 -58.5t-89 -30.5l-9 6v24l-67 32l2 13l72 -7q31 0 39.5 6.5t8.5 34.5l-1 65h-206l-1 -154l-4 -10l-43 -13l-9 5l1 424l64 -30h189zM809 423h-206v-81h206v81zM809 319h-206v-73h206v73zM84 642h58v109l94 -17v-12
l-34 -16v-64h152v106l87 -15v-11l-31 -19v-61h11l31 34h12l35 -39v-18h-89v-257h43l27 34h15l39 -39v-18h-152v-66q0 -24 4.5 -28.5t25.5 -4.5q15 0 22 16l24 47l11 -3l-10 -62l25 -11v-12q-23 -23 -57 -23h-50q-29 0 -38.5 14.5t-9.5 52.5v80h-49q-15 -78 -37.5 -108
t-86.5 -56l-6 9q39 26 52.5 55t20.5 100h-80v-216h283l37 37h15l35 -43v-16h-370v-40l-6 -10l-50 -12l-8 7v293h-30v23h93v257h-58v23zM354 619h-152v-73h152v73zM354 523h-152v-68h152v68zM354 433h-152v-71h152v71zM502 672h161v87l88 -11v-12l-24 -13v-51h105l39 41h13
l54 -49v-15l-222 1l-127 -109l244 5q-19 22 -80 61l5 10q64 -20 105 -40q40 -21 52.5 -34.5t12.5 -40.5q0 -35 -20 -35q-10 0 -24 18q-3 4 -38 47l-333 -52l-7 -29h-14l-30 86l104 2l70 111l-134 -1v23zM647 853v86l101 -22v-15l-40 -16v-33h133l39 43h12l52 -48v-17h-236
v-46l-5 -11l-48 -11l-8 7v61h-129v22h129zM284 853v85l101 -20v-15l-40 -16v-34h63l36 42h15l48 -45v-19h-162v-50l-5 -11l-48 -12l-8 4v69h-228v22h228z" />
  </g>

</svg>
