<?xml version="1.0" standalone="no"?>
<!DOCTYPE svg PUBLIC "-//W3C//DTD SVG 1.1//EN" "http://www.w3.org/Graphics/SVG/1.1/DTD/svg11.dtd" >
<svg xmlns="http://www.w3.org/2000/svg" xmlns:xlink="http://www.w3.org/1999/xlink" version="1.1" viewBox="0 -140 1000 1000">
  <g transform="matrix(1 0 0 -1 0 860)">
   <path fill="currentColor"
d="M422 718l33 33l10 1l46 -41v-16l-324 1q-45 -48 -91 -78l-10 10q49 60 91 169l79 -32l-3 -15l-30 -5l-20 -28zM366 648l27 25h13l41 -35v-15l-18 -10l-5 -51h23l28 32h13l39 -40l-1 -14l-104 -1l-6 -79h15l29 32h14l34 -38v-15h-96l-1 -20l-7 -11l-43 -12l-9 7l3 36h-148
l-20 -20l-47 35l13 22l8 63l-49 1v22h52l13 114l63 -28h126zM230 625l-8 -63h143l6 63h-88q28 -16 28 -35q0 -8 -5 -15.5t-11 -7.5q-8 0 -13 15q-2 8 -19 43h-33zM220 539l-10 -79h147l6 79h-74q31 -28 31 -49q0 -9 -6.5 -18.5t-13.5 -9.5q-16 0 -17 19q-2 14 -14 58h-49z
M814 712l36 40h14l50 -46v-16h-86q-25 -77 -82 -153q81 -60 179 -83l-1 -15q-36 -9 -54 -37q-77 30 -157 100q-76 -57 -191 -97l-11 11q103 51 169 117q-32 34 -80 129q-28 -28 -78 -68l-12 10q48 61 94 170l74 -31l-7 -15h-21l-13 -17zM624 690l-9 -10q54 -79 91 -112
q32 42 59 122h-141zM610 161l4 14q32 -7 43 -8q184 -28 184 -92q0 -26 -15 -26q-10 0 -25 12q-65 53 -191 100zM489 187l-268 -23l-9 -30l-15 -3l-30 85l249 8l226 181l61 -54l-7 -11l-37 3l-202 -118l319 10l-83 57l8 11q1 -1 30 -10q159 -53 159 -115q0 -35 -18 -35
q-8 0 -24 18q-27 29 -55 52l-242 -19l-1 -131l-5 -10l-48 -11l-8 6v139zM360 174l56 -53l-8 -12l-33 6q-107 -50 -220 -73l-5 15q104 35 210 117zM323 335l6 12q18 -5 42 -14l91 102l54 -45l-5 -11h-31l-83 -56q45 -18 45 -53q0 -31 -19 -31q-9 0 -30 30q-28 39 -70 66z
M648 936l101 -22v-15l-40 -16v-36h133l39 43h12l52 -48v-17h-236v-41l-5 -12l-48 -10l-8 6v57h-90v22h90v89zM447 847l36 43h15l48 -46v-19h-191v-53l-5 -11l-48 -12l-8 4v72h-248v22h248v89l101 -20v-15l-40 -16v-38h92z" />
  </g>

</svg>
