<?xml version="1.0" standalone="no"?>
<!DOCTYPE svg PUBLIC "-//W3C//DTD SVG 1.1//EN" "http://www.w3.org/Graphics/SVG/1.1/DTD/svg11.dtd" >
<svg xmlns="http://www.w3.org/2000/svg" xmlns:xlink="http://www.w3.org/1999/xlink" version="1.1" viewBox="0 -410 2048 2048">
  <g transform="matrix(1 0 0 -1 0 1638)">
   <path fill="currentColor"
d="M1416 933l109 -24q86 -19 86 -44q0 -30 -50 -43l-42 -11v-229q0 -96 6 -169q3 -25 3 -40q0 -52 -58 -52q-47 0 -47 39v368v46q0 120 -7 159zM1648 84q0 54 -28 77q-44 34 -163 50l5 46q131 -21 192 -21q59 0 59 55v566q0 119 -10 160l112 -24q86 -19 86 -46t-50 -42
l-40 -12v-644q0 -82 -50 -121q-37 -28 -113 -44zM1690 1554l61 75l73 -49q42 -29 42 -50q0 -15 -67 -52v-103v-86q0 -44 -64 -44q-32 0 -32 14v22h-1384q-3 -37 -67 -37q-29 0 -29 23v351l120 -64h1347zM319 1339h398v161h-398v-161zM813 1339h392v161h-392v-161zM1299 1339
h404v161h-404v-161zM1775 1217l115 -88q19 -14 19 -32q0 -22 -22 -22h-1073l73 -22q43 -13 43 -34t-76 -37q-17 -87 -40 -157q196 58 351 174l100 -78q22 -16 22 -34q0 -21 -26 -21q-12 0 -74 12q-177 -64 -348 -91q188 -38 294 -80q104 -42 104 -96q0 -51 -47 -51
q-24 0 -109 61q-97 72 -302 138q-52 -70 -127 -113q-79 -47 -228 -89l-13 39q146 60 201 101q102 76 132 234q8 45 13 144h-429v-265q0 -325 -44 -460q-41 -127 -168 -248l-30 24q107 142 128 311q18 143 18 489q0 158 -9 275l116 -69h1352zM418 966q103 -42 133 -61
q69 -44 69 -94q0 -52 -46 -52q-16 0 -25 8q-8 6 -41 59q-33 51 -108 107zM405 493q90 -27 130 -49q63 -34 63 -82t-47 -48q-20 0 -59 57q-33 49 -108 90zM747 633l114 -24q53 -12 53 -34q0 -24 -72 -41q-14 -66 -34 -132q208 64 319 132l78 -70q27 -24 27 -41q0 -20 -24 -20
q-15 0 -59 14q-118 -28 -322 -60q216 -61 290 -93q130 -57 130 -126q0 -50 -42 -50q-25 0 -61 34q-129 122 -365 212q-63 -87 -129 -128q-81 -52 -276 -109l-12 38q176 64 256 141q107 103 129 357zM1447 1785h285l95 97l120 -103q16 -14 16 -26q0 -26 -26 -26h-501l-13 -79
q-6 -37 -14 -43q-12 -10 -38 -10q-51 0 -51 27q0 8 5 32l17 73h-43q-109 0 -192 -8l-36 87q104 -21 228 -21h51q11 62 25 173l119 -25q54 -11 54 -32q0 -16 -16 -25q-5 -3 -73 -24zM653 1785h111l83 86l120 -92q17 -12 17 -26q0 -26 -27 -26h-298l11 -81v-14q0 -39 -53 -39
q-37 0 -41 42l-8 92h-249q-109 0 -192 -8l-35 87q103 -21 227 -21h240l-20 171l98 -13q83 -12 83 -35q0 -18 -75 -54z" />
  </g>

</svg>
