<?xml version="1.0" standalone="no"?>
<!DOCTYPE svg PUBLIC "-//W3C//DTD SVG 1.1//EN" "http://www.w3.org/Graphics/SVG/1.1/DTD/svg11.dtd" >
<svg xmlns="http://www.w3.org/2000/svg" xmlns:xlink="http://www.w3.org/1999/xlink" version="1.1" viewBox="0 -140 1000 1000">
  <g transform="matrix(1 0 0 -1 0 860)">
   <path fill="currentColor"
d="M834 711l31 37h14l49 -45v-14h-161l-66 -110l128 -1l29 28h12l50 -40v-11l-20 -17v-322l-8 -10l-44 -13l-10 8v39h-203v-28l-6 -8l-45 -14l-9 7v405l62 -24l30 1l29 110h-152v22h290zM748 203l10 12q102 -39 145 -66.5t43 -63.5q0 -37 -16 -37q-12 0 -27 18
q-41 49 -67 71.5t-88 65.5zM152 698l9 10q63 -32 78.5 -46.5t15.5 -35.5q0 -39 -24 -39q-13 0 -28 36q-17 35 -51 75zM472 573l31 35h15l42 -41v-16h-196v-162l-8 -8l-42 -9l-11 6v173h-226v22h226v161l95 -24v-11l-34 -18v-108h108zM210 530l73 -44l-4 -12l-34 -4
q-71 -79 -181 -140l-10 13q54 45 85.5 82.5t70.5 104.5zM385 511l8 13q8 -2 39 -14q117 -39 117 -89q0 -34 -20 -34q-9 0 -22 15q-56 63 -122 109zM387 413l8 8q83 -44 83 -77q0 -14 -6.5 -25t-15.5 -11q-15 0 -31 45q-10 29 -38 60zM665 233l67 -50l-8 -14h-32
q-55 -47 -99.5 -73t-117.5 -53l-9 14q71 43 111 78t88 98zM466 296l35 42h12l54 -49l1 -15h-219l-13 -31q34 -11 55 -19t51.5 -23t46.5 -32.5t16 -37.5q0 -34 -16 -34q-13 0 -38 27q-57 62 -124 96q-39 -68 -93 -106.5t-151 -66.5l-7 14q90 40 134 85t74 128h-198v22h204
q7 33 11 72l88 -25v-14l-28 -10l-6 -23h111zM635 469h203v87h-203v-87zM635 365h203v82h-203v-82zM635 262h203v81h-203v-81zM471 708l60 -50l-6 -10h-31l-96 -66l-11 9zM648 936l101 -22v-15l-40 -16v-36h133l39 43h12l52 -48v-17h-236v-51l-5 -12l-48 -10l-8 6v67h-90v22
h90v89zM447 847l36 43h15l48 -46v-19h-191v-53l-5 -11l-48 -12l-8 4v72h-248v22h248v89l101 -20v-15l-40 -16v-38h92z" />
  </g>

</svg>
