<?xml version="1.0" standalone="no"?>
<!DOCTYPE svg PUBLIC "-//W3C//DTD SVG 1.1//EN" "http://www.w3.org/Graphics/SVG/1.1/DTD/svg11.dtd" >
<svg xmlns="http://www.w3.org/2000/svg" xmlns:xlink="http://www.w3.org/1999/xlink" version="1.1" viewBox="0 -410 2048 2048">
  <g transform="matrix(1 0 0 -1 0 1638)">
   <path fill="currentColor"
d="M1765 1488l69 76l84 -54q40 -26 40 -49q0 -28 -78 -62v-1145q0 -87 -43 -126q-37 -33 -112 -50q-16 75 -77 98q-49 19 -174 38l3 48q191 -27 254 -27q53 0 53 61v1136h-152h-176q51 -247 126 -402q72 -148 183 -260l-12 -30h-22q-37 0 -83 -35q-114 169 -208 489
q-62 -188 -140 -317q-59 -96 -159 -192l-26 24q197 235 281 690v33h-336v-1273q0 -54 -56 -54q-51 0 -51 45q0 8 5 85q7 155 7 174v72v905q0 101 -12 185l116 -83h320q-6 86 -13 344h-117v54h96l62 66l67 -46q31 -21 31 -42q0 -16 -20 -26l-61 -32q0 -177 14 -318h317z
M247 796v-26q0 -40 -58 -40q-49 0 -49 47l11 203v612l122 -62h153v244q0 118 -8 160l109 -24q86 -19 86 -46q0 -28 -50 -41l-40 -12v-281h165l69 76l83 -54q40 -27 40 -49q0 -27 -78 -62v-551l45 -33q31 -21 31 -40q0 -21 -46 -21h-309v-391q115 27 234 73q-30 71 -77 146
l31 26q193 -187 193 -300q0 -74 -60 -74q-39 0 -49 65q-6 36 -20 91q-267 -133 -532 -210q-2 -72 -26 -72q-18 0 -42 46l-58 115q192 29 309 66v419h-179zM247 854h179v618h-179v-618zM705 1472h-182v-618h182v618z" />
  </g>

</svg>
