<?xml version="1.0" standalone="no"?>
<!DOCTYPE svg PUBLIC "-//W3C//DTD SVG 1.1//EN" "http://www.w3.org/Graphics/SVG/1.1/DTD/svg11.dtd" >
<svg xmlns="http://www.w3.org/2000/svg" xmlns:xlink="http://www.w3.org/1999/xlink" version="1.1" viewBox="0 -140 1000 1000">
  <g transform="matrix(1 0 0 -1 0 860)">
   <path fill="currentColor"
d="M79 327v420l71 -29h56v198l93 -19l-1 -13l-28 -16v-150h53l31 31h16l48 -43v-15l-21 -15v-309l-5 -10l-52 -13l-7 6v37h-63v-186l91 22q-21 34 -64 81l8 10q91 -61 124.5 -98.5t33.5 -86.5q0 -20 -7.5 -32.5t-18.5 -12.5q-12 0 -24 15t-19 45q-9 36 -24 60l-258 -109
l-4 -26l-15 -5l-40 91l154 35l-1 197h-62v-41l-7 -12l-51 -13zM144 408h62v288h-62v-288zM270 408h63v288h-63v-288zM491 789h16l3 -40h152v171l96 -19v-12l-31 -16v-124h121l32 28h13l55 -54l-5 -15l-34 -5l-84 -100l-13 6l42 118h-340q0 -14 1 -23q0 -85 -23 -117
q-16 -22 -30 -22q-11 0 -20.5 13.5t-9.5 30.5q0 18 8 32q31 53 38.5 74t12.5 74zM620 386v-182q0 -39 9 -54.5t38 -15.5h137q39 0 56 12.5t31 51.5l28 78l13 -4l-18 -127l34 -17v-19q-39 -28 -128 -28l-175 -1q-50 0 -70 22t-20 77v464l99 -17v-15l-34 -18v-182
q122 49 243 144l66 -63l-10 -13l-33 8q-124 -55 -226 -88z" />
  </g>

</svg>
