<?xml version="1.0" standalone="no"?>
<!DOCTYPE svg PUBLIC "-//W3C//DTD SVG 1.1//EN" "http://www.w3.org/Graphics/SVG/1.1/DTD/svg11.dtd" >
<svg xmlns="http://www.w3.org/2000/svg" xmlns:xlink="http://www.w3.org/1999/xlink" version="1.1" viewBox="0 -204 1024 1024">
  <g transform="matrix(1 0 0 -1 0 820)">
   <path fill="currentColor"
d="M46 804l62 -30h78v98q0 54 -4 82q59 -7 96 -23q14 -6 14 -15q0 -7 -14 -11q-20 -9 -42 -13v-118h78l32 44q38 -24 53 -43q9 -7 9 -15q0 -9 -40 -30v-297q16 -14 29 -25q5 -4 5 -6q0 -16 -8 -16h-158v-228l12 4q49 17 111 40q-5 17 -11 29q-8 20 -24 45l16 12
q17 -19 34 -43q15 -19 25 -40q13 -17 17 -32t4 -27q0 -18 -5 -30q-8 -12 -21 -12q-5 0 -8 6q-3 4 -6 26q-4 24 -12 48q-54 -31 -94 -47q-49 -24 -93 -38q-42 -19 -87 -31q-9 -36 -14 -36q-8 0 -48 80q61 9 111 23q23 5 43 10v241h-92v-14q0 -9 -10 -13q-15 -5 -26 -5
q-12 0 -12 10v440zM94 412h92v332h-92v-332zM236 744v-332h88v332h-88zM504 942q23 -20 44 -38q21 -19 35 -34q14 -16 18 -30q5 -10 5 -22q0 -19 -5 -30q-6 -10 -17 -10q-7 0 -13 5q-5 3 -9 20q-5 24 -15 44q-11 22 -26 40q-11 20 -35 41zM804 960q47 -12 85 -33q7 -6 7 -11
q0 -7 -14 -12q-24 -6 -42 -6q-12 -22 -25 -38q-11 -21 -28 -39q-13 -18 -27 -32q-15 -12 -36 -29l-16 14q19 19 33 44q18 24 31 54q14 30 26 58q4 16 6 30zM426 748q44 -10 118 -10h286l50 54q38 -28 70 -54q8 -5 8 -12q0 -18 -16 -18h-252v-168h106l48 52q36 -25 66 -52
q10 -5 10 -10q0 -16 -14 -16h-216v-190h172l48 56q38 -27 72 -56q8 -5 8 -10q0 -16 -14 -16h-286v-190q0 -21 2 -30q2 -16 2 -28q0 -32 -30 -32q-24 0 -24 14v56q2 34 2 60v150h-128q-70 -3 -94 -6l-22 44q44 -12 116 -12h128v190h-72q-69 -1 -96 -6l-18 46q43 -14 114 -14
h72v168h-98q-72 -1 -98 -4z" />
  </g>

</svg>
