<?xml version="1.0" standalone="no"?>
<!DOCTYPE svg PUBLIC "-//W3C//DTD SVG 1.1//EN" "http://www.w3.org/Graphics/SVG/1.1/DTD/svg11.dtd" >
<svg xmlns="http://www.w3.org/2000/svg" xmlns:xlink="http://www.w3.org/1999/xlink" version="1.1" viewBox="0 -120 1000 1000">
  <g transform="matrix(1 0 0 -1 0 880)">
   <path fill="currentColor"
d="M259 484q-82 -66 -197 -130l-14 16q71 48 141 116q71 70 109 133h-236l-14 27h263v135h-189l-15 27h204v151l78 -10q23 -4 23 -14q0 -8 -14 -13l-21 -8v-106h231v151l78 -10q23 -4 23 -13q0 -11 -18 -17l-17 -5v-106h101l42 51l75 -66v-12h-218v-135h121l46 54l76 -64
v-17h-241q49 -67 151 -127q63 -37 127 -58v-18q-23 -1 -34 -8q-10 -8 -28 -33q-147 85 -256 244h-249q-33 -48 -119 -128l45 -30h156v115l73 -11q19 -3 19 -13t-15 -16l-15 -6v-69h145l16 28l70 -40q15 -8 15 -18q0 -7 -11 -12l-23 -10v-143l-58 -9v28h-154v-126l215 7
q-53 39 -110 67l11 13q92 -14 160 -54q90 -53 90 -96q0 -14 -9 -22q-10 -9 -23 -9q-17 0 -36 21q-38 41 -57 58l-557 -53l-6 -13q-6 -16 -12 -16q-9 0 -16 13l-40 78l105 1h97l126 3v128h-149v-46l-61 -10v255zM320 434v-122h149v122h-149zM377 781v-135h231v135h-231z
M531 434v-122h154v122h-154z" />
  </g>

</svg>
