<?xml version="1.0" standalone="no"?>
<!DOCTYPE svg PUBLIC "-//W3C//DTD SVG 1.1//EN" "http://www.w3.org/Graphics/SVG/1.1/DTD/svg11.dtd" >
<svg xmlns="http://www.w3.org/2000/svg" xmlns:xlink="http://www.w3.org/1999/xlink" version="1.1" viewBox="0 -120 1000 1000">
  <g transform="matrix(1 0 0 -1 0 880)">
   <path fill="currentColor"
d="M41 184l153 33v237l-69 -1v-74l-56 -8v393l66 -36h58v223l76 -6q20 -2 20 -14q0 -11 -14 -17l-21 -10v-175l62 -1l26 36l61 -43q9 -7 9 -14t-11 -10l-18 -5v-271l-57 -9v42l-72 -1v-224l96 20q-7 20 -23 46q-22 37 -39 54l8 12q44 -21 93 -75q42 -45 42 -90
q0 -23 -13 -34q-9 -9 -20 -9q-9 0 -13 7q-6 10 -21 55q-1 4 -4 12l-254 -98l-7 -17q-6 -14 -15 -14t-15 14zM125 480h69v223h-69v-223zM254 480h72v223h-72v-223zM455 72l-11 -20q-5 -9 -14 -9q-8 0 -13 12l-26 70l84 17l-3 689l75 -37h93l3 159l79 -6q20 -2 20 -15
q0 -11 -14 -15l-23 -9l-1 -114h103l20 36l69 -45q10 -7 10 -16q0 -8 -15 -10l-17 -4l-2 -312l-63 -13v33h-156q25 -107 80 -178q65 53 143 135l68 -45q6 -5 6 -12q0 -12 -14 -11l-7 1l-19 2l-162 -90q38 -46 119 -100q43 -27 95 -50l-5 -9q-35 -8 -50 -20q-10 -7 -20 -24
q-72 45 -136 120q-66 -28 -216 -81zM534 463l1 -309l201 46q-52 75 -75 138q-14 39 -34 125h-93zM534 623v-133h275v134zM534 651h275v117h-275v-117z" />
  </g>

</svg>
