<?xml version="1.0" standalone="no"?>
<!DOCTYPE svg PUBLIC "-//W3C//DTD SVG 1.1//EN" "http://www.w3.org/Graphics/SVG/1.1/DTD/svg11.dtd" >
<svg xmlns="http://www.w3.org/2000/svg" xmlns:xlink="http://www.w3.org/1999/xlink" version="1.1" viewBox="0 -204 1024 1024">
  <g transform="matrix(1 0 0 -1 0 820)">
   <path fill="currentColor"
d="M42 764l60 -30h76v138q0 54 -4 82q57 -7 95 -23q15 -6 15 -15q0 -7 -15 -11q-17 -9 -43 -13v-158h84l30 30q50 -30 50 -44q0 -10 -26 -26v-259q11 -8 19 -16q3 -3 3 -7q0 -14 -6 -14h-154v-222q3 1 5 1q48 12 109 30q-7 22 -16 39q-13 26 -32 56l10 12q26 -28 43 -54
q23 -26 35 -47q13 -24 17 -42q5 -18 5 -33q0 -18 -5 -27q-8 -9 -17 -9q-7 0 -11 5q-5 4 -10 29q-4 26 -13 51q-48 -25 -88 -39q-45 -17 -88 -32q-40 -12 -84 -22q-9 -36 -14 -36q-10 0 -48 80q60 7 107 15q24 4 47 9v236h-88v-30q0 -8 -10 -13q-15 -5 -26 -5q-12 0 -12 10
v404zM90 426h88v278h-88v-278zM226 704v-278h88v278h-88zM426 938l60 -46h406l32 46q34 -23 52 -43q6 -9 6 -15q0 -8 -36 -32v-644q0 -73 3 -97q1 -29 1 -45q0 -14 -10 -24q-12 -6 -20 -6q-22 0 -22 14v40h-420v-58q0 -10 -18 -10q-9 0 -24 4q-10 8 -10 24t3 46q5 22 5 98
v680q0 39 -8 68zM478 112h420v754h-420v-754zM804 756q-37 -15 -77 -28q-7 -3 -15 -6v-142h58l44 44q34 -22 62 -46q8 -4 8 -8q0 -16 -14 -16h-158v-62q37 -21 63 -46q35 -26 52 -43q20 -18 28 -32q7 -11 11 -21q4 -9 4 -22q-1 -26 -18 -26q-8 0 -13 4q-9 6 -29 44
q-23 39 -48 67q-22 25 -50 49v-258q0 -17 -32 -18q-16 0 -16 10q0 18 2 27q2 5 2 39v196q-21 -44 -43 -77q-24 -35 -53 -71q-27 -35 -68 -74l-12 18q34 41 61 79q25 36 44 80q18 37 33 78q10 32 16 59h-32q-69 -3 -96 -6l-18 44q43 -12 114 -12h54v131q-21 -5 -37 -8
q-41 -5 -105 -9l-4 18q33 4 71 13q34 8 65 19q35 12 61 26q22 11 40 24q12 10 23 24q36 -24 65 -44q5 -4 5 -10q0 -12 -12 -12q-16 0 -36 4z" />
  </g>

</svg>
