<?xml version="1.0" standalone="no"?>
<!DOCTYPE svg PUBLIC "-//W3C//DTD SVG 1.1//EN" "http://www.w3.org/Graphics/SVG/1.1/DTD/svg11.dtd" >
<svg xmlns="http://www.w3.org/2000/svg" xmlns:xlink="http://www.w3.org/1999/xlink" version="1.1" viewBox="0 -410 2048 2048">
  <g transform="matrix(1 0 0 -1 0 1638)">
   <path fill="currentColor"
d="M955 1265l118 -60h654l61 72l73 -49q42 -29 42 -50q0 -11 -9 -18q-9 -8 -30 -20q-8 -4 -24 -14v-407q2 -43 7 -113q2 -19 2 -33q0 -54 -75 -54q-31 0 -31 30v20h-295v-237q0 -70 30 -81q37 -14 174 -14q145 0 177 22q27 19 41 97q3 16 18 129l6 46l32 -6l-5 -163v-10
q0 -50 16 -70q4 -5 37 -34q17 -14 17 -29q0 -75 -345 -75q-175 0 -218 13q-75 23 -75 121v291h-305v-53q0 -39 -62 -39q-39 0 -39 28q0 14 4 63q0 2 4 131v566zM1448 1148v-229h295v229h-295zM1048 919h306v229h-306v-229zM1048 623h306v240h-306v-240zM1448 863v-240h295
v240h-295zM1636 1856l68 76l83 -54q41 -26 41 -49q0 -16 -12 -26q-6 -5 -64 -38v-241l37 -23q41 -25 41 -47t-20 -22h-704v-39q0 -34 -55 -34q-39 0 -39 36l2 57l1 80l2 88v155l-2 45q-2 79 -5 120l112 -84h514zM1106 1488h554v310h-554v-310zM247 819v-26q0 -15 -19 -27
q-20 -12 -47 -12q-31 0 -31 23v821l123 -64h130v240q0 118 -8 160l109 -24q86 -19 86 -44q0 -33 -50 -43l-40 -9v-280h148l69 76l83 -55q40 -26 40 -48q0 -27 -78 -61v-533l45 -33q31 -22 31 -40q0 -21 -47 -21h-291v-426q105 31 217 72q-47 96 -78 147l30 26
q209 -224 209 -348q0 -73 -59 -73q-45 0 -60 85q-10 60 -26 118q-322 -149 -529 -209q-1 -72 -27 -72q-17 0 -41 46l-58 115q140 21 325 65v454h-156zM665 1475h-165v-598h165v598zM247 877h156v598h-156v-598z" />
  </g>

</svg>
