<?xml version="1.0" standalone="no"?>
<!DOCTYPE svg PUBLIC "-//W3C//DTD SVG 1.1//EN" "http://www.w3.org/Graphics/SVG/1.1/DTD/svg11.dtd" >
<svg xmlns="http://www.w3.org/2000/svg" xmlns:xlink="http://www.w3.org/1999/xlink" version="1.1" viewBox="0 -120 1000 1000">
  <g transform="matrix(1 0 0 -1 0 880)">
   <path fill="currentColor"
d="M289 326q28 -17 60 -47q61 -59 61 -113q0 -30 -23 -30q-22 0 -35 24q-2 4 -12 35q-3 8 -6 15l-230 -74l-2 -15q-2 -9 -7 -9q-9 0 -14 9l-34 64l145 27v251h-60v-81l-58 -15v429l67 -32h51v194l68 -9q28 -4 28 -14t-17 -17l-24 -10v-144h60l21 32l61 -36q14 -8 14 -18
q0 -9 -14 -13l-17 -4v-305l-57 -11v54h-68v-243l79 14q-24 58 -48 80zM132 738v-248h60v248h-60zM247 738v-248h68v248h-68zM951 107q-45 -6 -61 -36q-60 32 -131 92q-64 58 -111 136h-5q-18 -56 -37 -84q-44 -65 -130 -107q-39 -19 -129 -44l-8 17q83 31 121 55
q99 61 124 163h-206l-14 27h227q10 46 12 107h-105v-36l-57 -11v351l66 -27h284l24 33l49 -33q22 -15 22 -22q0 -8 -16 -12l-11 -3v-266l-63 -12v38h-133q-5 -57 -13 -107h170l46 52l85 -58v-21h-279q64 -68 138 -112q73 -42 141 -63v-17zM498 561v-101h298v101h-298z
M498 683v-97h298v97h-298zM376 822l-15 26h156v111l67 -8q25 -3 25 -16q0 -7 -18 -14l-16 -6v-67h122v111l76 -10q19 -2 19 -11q0 -8 -14 -15l-19 -10v-65h62l44 53l85 -58v-21h-191v-76l-62 -13v89h-122v-78l-58 -11v89h-141z" />
  </g>

</svg>
