<?xml version="1.0" standalone="no"?>
<!DOCTYPE svg PUBLIC "-//W3C//DTD SVG 1.1//EN" "http://www.w3.org/Graphics/SVG/1.1/DTD/svg11.dtd" >
<svg xmlns="http://www.w3.org/2000/svg" xmlns:xlink="http://www.w3.org/1999/xlink" version="1.1" viewBox="0 -204 1024 1024">
  <g transform="matrix(1 0 0 -1 0 820)">
   <path fill="currentColor"
d="M54 760l62 -30h58v142q0 54 -4 82q57 -7 95 -23q15 -6 15 -15q0 -7 -15 -11q-17 -9 -43 -13v-162h70l26 30q54 -30 54 -44q0 -10 -30 -26v-251q10 -7 19 -16q7 -3 7 -7q0 -14 -10 -14h-136v-230q6 1 11 3q46 14 101 34q-3 9 -5 14q-17 34 -41 69l10 18q41 -36 63 -74
q22 -30 30 -58q7 -21 7 -40q0 -34 -22 -34q-6 0 -11 6q-6 6 -11 30q-7 27 -13 49q-45 -27 -81 -42q-44 -19 -84 -36q-37 -14 -78 -25q-10 -36 -14 -36q-8 0 -48 80q56 8 102 18q19 4 36 8v246h-72v-12q0 -11 -12 -16q-13 -6 -22 -6q-14 0 -14 12v380zM102 430h72v272h-72
v-272zM222 702v-272h74v272h-74zM368 932q39 -8 110 -8h102l30 44q36 -20 54 -42q8 -8 8 -12q0 -10 -40 -34v-216q0 -34 -11 -50t-27 -27q-15 -11 -28 -11q0 25 -5 35q-5 11 -17 20q-16 12 -32 15v22q35 -14 62 -14q9 0 11 5q3 4 3 27v212h-110q-79 0 -94 -6zM412 854
q20 -10 39 -19q17 -7 25 -13q10 -6 16 -10q3 -5 5 -9q3 -3 3 -7q-1 -32 -26 -32q-3 0 -5 4q-2 2 -12 18q-12 14 -25 27q-11 13 -34 27zM552 744l2 -14q-26 -23 -51 -41q-28 -20 -65 -39q0 -34 -8 -34q-4 0 -50 60q28 8 58 19q30 8 56 21q23 12 58 28zM682 928q41 -8 114 -8
h84l30 44q36 -20 54 -42q8 -7 8 -12q0 -10 -40 -34v-216q0 -34 -11 -50q-11 -18 -27 -27q-15 -9 -28 -9q0 23 -5 33q-5 11 -17 20q-16 12 -34 15v22q37 -14 66 -14q7 0 9 5q3 4 3 27v210h-92q-80 0 -98 -4zM712 862q22 -9 42 -21l28 -14q12 -6 17 -10q4 -4 6 -7q3 -6 3 -10
q-1 -30 -26 -30q-4 0 -7 2t-12 16q-12 16 -27 29q-12 13 -38 27zM844 744l4 -14q-28 -22 -53 -39q-27 -19 -65 -37q0 -34 -6 -34t-52 62q26 5 58 16q30 8 54 19q26 12 60 27zM640 602q45 -10 80 -23q6 -3 6 -9q0 -9 -16 -15q-13 -5 -22 -6q25 -22 49 -41q34 -23 79 -48
q44 -21 89 -39q43 -14 81 -19v-16q-49 0 -66 -28q-42 13 -76 34q-38 20 -66 46q-30 20 -59 49q-27 24 -52 54q-16 -20 -30 -37q-25 -21 -53 -45q-33 -22 -62 -41q-28 -17 -62 -32q-36 -20 -76 -32l-16 18q48 22 85 41q32 23 66 47q35 28 61 53q22 22 36 44q15 19 24 45z
M682 390q-42 -41 -78 -63q-36 -19 -76 -35q-42 -13 -90 -18l-8 24q45 9 79 22q33 12 61 34q30 18 54 45q22 21 40 49q62 -42 62 -50q0 -12 -18 -12q-15 0 -26 4zM782 302q-60 -51 -109 -74q-51 -27 -109 -42q-57 -16 -126 -26l-8 26q66 9 112 27q48 14 89 37q44 24 75 53
q33 24 58 57q62 -42 62 -50q0 -12 -18 -12q-14 0 -26 4zM892 192q-92 -60 -166 -92q-76 -33 -160 -52q-88 -22 -186 -30l-12 24q97 13 166 32q70 19 134 47q65 27 112 64q50 32 86 73q72 -45 72 -58q0 -10 -24 -10q-13 0 -22 2z" />
  </g>

</svg>
