<?xml version="1.0" standalone="no"?>
<!DOCTYPE svg PUBLIC "-//W3C//DTD SVG 1.1//EN" "http://www.w3.org/Graphics/SVG/1.1/DTD/svg11.dtd" >
<svg xmlns="http://www.w3.org/2000/svg" xmlns:xlink="http://www.w3.org/1999/xlink" version="1.1" viewBox="0 -140 1000 1000">
  <g transform="matrix(1 0 0 -1 0 860)">
   <path fill="currentColor"
d="M799 750l23 23h15l42 -36v-14l-18 -13l1 -86l-7 -10l-39 -10l-10 6l-1 27h-98q0 -16 -5 -24l-37 -11l-11 7l1 166l56 -25h88zM805 727h-98v-68h98v68zM538 750l22 24h13l45 -30v-14l-16 -15l-1 -97l-5 -8l-39 -11l-9 5l1 33h-106v-32l-5 -10l-42 -11l-9 5v183l60 -22h91z
M549 727h-106v-68h106v68zM692 918v-14l-34 -16v-51h166l35 42h15l49 -49v-16h-575v23h246v96zM824 535l40 39h12l51 -45v-17h-173v-67h33l30 34h13l39 -40v-17h-115v-68h88l39 40h15l46 -45v-17h-266q29 -51 70 -94l101 88l46 -55l-9 -8l-25 5l-99 -45q74 -75 186 -123
l-5 -14q-32 -1 -55 -33q-154 92 -236 279h-10q-32 -40 -97 -95v-98l167 53l6 -13l-227 -111v-25l-16 -7l-43 74l57 17v81q-33 -20 -94 -43l-6 11q113 66 180 156h-196v22h134v68h-98v23h98v67h-123v23h123v61l83 -11v-11l-23 -13v-26h129v64l83 -13v-11l-23 -14v-26h70z
M694 512h-129v-67h129v67zM694 422h-129v-68h129v68zM194 732v178l98 -17l2 -16l-44 -20v-125h44l20 29h15l46 -38v-14l-19 -16l1 -292l-8 -10l-42 -14l-6 6l-1 34h-50l1 -174l53 12q-1 8 -9.5 47.5t-9.5 45.5l11 4q83 -100 83 -150q0 -20 -11 -37t-24 -17q-21 0 -33 67
q0 1 -1 4.5t-2 8t-2 8.5l-199 -93l-1 -23l-11 -4l-46 87l145 28v186h-50l-1 -29l-7 -8l-44 -12l-8 8v384l64 -28h46zM194 709h-50v-269h50v269zM300 709h-50v-269h50v269z" />
  </g>

</svg>
