<?xml version="1.0" standalone="no"?>
<!DOCTYPE svg PUBLIC "-//W3C//DTD SVG 1.1//EN" "http://www.w3.org/Graphics/SVG/1.1/DTD/svg11.dtd" >
<svg xmlns="http://www.w3.org/2000/svg" xmlns:xlink="http://www.w3.org/1999/xlink" version="1.1" viewBox="0 -120 1000 1000">
  <g transform="matrix(1 0 0 -1 0 880)">
   <path fill="currentColor"
d="M50 225q85 38 211 132q52 39 120 106q18 18 31 35h-147v-33l-63 -5v288l60 -33h205v93h-408l-12 28h420v122l76 -5q23 -1 23 -14q0 -10 -17 -15l-18 -6v-82h280l48 59l100 -67v-20h-428v-93h197l26 35l57 -35q19 -12 19 -22q0 -9 -14 -13l-18 -5v-195l-64 -8v26h-217
q9 -32 29 -71q38 -70 80 -113q75 49 180 148l53 -51q14 -13 14 -20q0 -8 -12 -8q-7 0 -11 1l-25 4l-177 -96q65 -62 149 -107q52 -27 151 -62l-8 -15q-40 0 -68 -45q-64 22 -158 91q-111 81 -176 210q-26 51 -42 121q-44 -46 -159 -135v-186l253 41l6 -20q-89 -30 -176 -53
q-110 -27 -219 -54l-9 -11q-8 -12 -13 -12t-13 14l-37 67l145 19v154q-115 -70 -219 -100zM265 526h202v161h-202v-161zM531 687v-161h203v161h-203z" />
  </g>

</svg>
