<?xml version="1.0" standalone="no"?>
<!DOCTYPE svg PUBLIC "-//W3C//DTD SVG 1.1//EN" "http://www.w3.org/Graphics/SVG/1.1/DTD/svg11.dtd" >
<svg xmlns="http://www.w3.org/2000/svg" xmlns:xlink="http://www.w3.org/1999/xlink" version="1.1" viewBox="0 -140 1000 1000">
  <g transform="matrix(1 0 0 -1 0 860)">
   <path fill="currentColor"
d="M696 732h140l33 43h15l57 -48v-16h-289l51 -39l-6 -14h-24q-67 -69 -139 -152q52 -27 70 -43.5t18 -38.5q0 -18 -9 -35t-19 -17q-13 0 -31 37q-25 53 -103 115l6 11l47 -18q63 110 104 194h-212v21h227v178l97 -23v-12l-33 -16v-127zM776 620l81 -57l-6 -13h-31
q-115 -162 -255 -331l-37 -45q139 11 318 29q-38 58 -82 110l9 11q168 -116 168 -187q0 -19 -9.5 -36t-20.5 -17q-14 0 -22 23q-3 6 -7.5 16.5t-11.5 27t-13 30.5l-381 -83l-9 -18l-12 -5l-40 93l89 5q88 128 227 369zM256 769h38l27 30h12l56 -53l-7 -16l-28 -4
q-46 -113 -98 -197v-45l20 -12q31 51 57 116l68 -41l-2 -14l-32 -5l-67 -69q76 -46 76 -91q0 -16 -8.5 -30t-18.5 -14q-12 0 -34 48q-14 31 -59 86v-390l-5 -9l-49 -15l-8 4v402q-62 -66 -128 -113l-14 14q86 84 141 176t97 220h-219v22h121v165l100 -22v-12l-36 -15v-116z
" />
  </g>

</svg>
