<?xml version="1.0" standalone="no"?>
<!DOCTYPE svg PUBLIC "-//W3C//DTD SVG 1.1//EN" "http://www.w3.org/Graphics/SVG/1.1/DTD/svg11.dtd" >
<svg xmlns="http://www.w3.org/2000/svg" xmlns:xlink="http://www.w3.org/1999/xlink" version="1.1" viewBox="0 -200 1000 1000">
  <g transform="matrix(1 0 0 -1 0 800)">
   <path fill="currentColor"
d="M840 764l61 -70h-190v-233h127l45 47l61 -70h-282l60 -49l-27 -29q-10 -22 -22.5 -52.5t-26.5 -66t-30.5 -72.5t-34.5 -73q33 4 60 7t55 5.5t60 5.5t73 8q-8 18 -12 28t-9.5 21.5t-15.5 29.5t-29 51l1 11q66 -64 107 -123.5t41 -101.5q0 -9 -3 -21t-8.5 -23t-12 -18.5
t-13.5 -7.5q-11 0 -16.5 16t-9 38.5t-6.5 45.5t-9 37q-146 -30 -226.5 -56.5t-104.5 -47.5l-21 90l78 5q15 46 27 84t22.5 76t20 81.5t18.5 100.5h-132l-51 -13l-17 36h214v233h-78l-48 -10l-20 33h146v250l67 -36l-18 -65v-149h87zM43 209q51 66 99 132.5t90 141.5
q37 67 62.5 130t35.5 108h-160l-56 -10l-16 34h231l38 54l56 -56l-39 -43q-8 -23 -19.5 -53t-25 -61.5t-28 -61t-27.5 -49.5l-4 -40q13 -5 18 -6.5t11 -6.5q14 15 29 39t28 49.5t23.5 48t15.5 35.5l56 -64l-45 -24l-96 -95q106 -67 106 -132q0 -9 -4.5 -19t-10.5 -18
t-13.5 -13t-13.5 -5q-5 0 -10 21.5t-16 52.5t-30 66t-52 63v-420q-6 -7 -9.5 -13t-8 -11t-11.5 -8.5t-20 -5.5v424q-11 -14 -29 -37.5t-40.5 -50.5t-48.5 -54t-54 -49zM352 942l62 -63h-241l-57 -9l-18 31h209z" />
  </g>

</svg>
