<?xml version="1.0" standalone="no"?>
<!DOCTYPE svg PUBLIC "-//W3C//DTD SVG 1.1//EN" "http://www.w3.org/Graphics/SVG/1.1/DTD/svg11.dtd" >
<svg xmlns="http://www.w3.org/2000/svg" xmlns:xlink="http://www.w3.org/1999/xlink" version="1.1" viewBox="0 -410 2048 2048">
  <g transform="matrix(1 0 0 -1 0 1638)">
   <path fill="currentColor"
d="M580 528v-286q340 85 493 141l10 -36q-199 -101 -488 -211l-4 -31q-5 -36 -25 -36t-41 45l-51 107h14v261q-112 -51 -393 -120l-11 36q258 85 421 183q166 101 293 250h-310v-11q0 -31 -52 -31q-53 0 -53 44q0 3 4 49q7 99 7 105v246l117 -61h983l69 77l82 -54
q41 -27 41 -49q0 -27 -77 -61v-179l36 -26q23 -16 23 -28q0 -21 -36 -21h-689q-171 -196 -363 -303zM488 887h1023v228h-1023v-228zM1301 487q17 11 34 21q222 130 329 262l112 -72q39 -26 39 -44q0 -26 -38 -26q-11 0 -22 1l-45 5q-162 -82 -338 -158l-37 -16
q125 -89 270 -141q165 -59 379 -82v-37q-76 -9 -97 -22q-25 -14 -39 -58q-324 95 -534 259q-134 105 -233 301l29 18q20 -22 75 -96q42 -55 116 -115zM1546 1423q-113 81 -248 136l12 34q504 -165 504 -295q0 -31 -24 -48q-10 -7 -23 -7q-31 0 -88 64q-31 35 -79 76
l-146 -15q-427 -41 -788 -60q-128 -6 -290 -16l-7 -28q-9 -35 -30 -35q-19 0 -37 48l-45 111q97 16 242 77q185 76 289 138q51 31 115 89h-588q-117 0 -192 -8l-38 88q95 -23 230 -23h695q-13 13 -22 45q-17 68 -108 153l23 23q181 -83 181 -168q0 -29 -22 -53h666l98 101
l121 -106q17 -15 17 -26q0 -26 -27 -26h-993l80 -46q52 -30 52 -53q0 -25 -33 -25q-14 0 -29 2l-48 4q-279 -110 -529 -186q223 7 575 12q8 0 408 17z" />
  </g>

</svg>
