<?xml version="1.0" standalone="no"?>
<!DOCTYPE svg PUBLIC "-//W3C//DTD SVG 1.1//EN" "http://www.w3.org/Graphics/SVG/1.1/DTD/svg11.dtd" >
<svg xmlns="http://www.w3.org/2000/svg" xmlns:xlink="http://www.w3.org/1999/xlink" version="1.1" viewBox="0 -120 1000 1000">
  <g transform="matrix(1 0 0 -1 0 880)">
   <path fill="currentColor"
d="M56 183q99 33 204 93q51 30 153 108h-340l-12 28h403v107l73 -8q24 -3 24 -15q0 -10 -16 -15l-19 -6v-63h286l41 54l84 -60v-22h-391q54 -74 119 -123q17 11 67 64q29 30 45 51l56 -44q15 -13 15 -20q0 -13 -19 -13h-4l-25 2l-6 -3q-57 -28 -104 -53q43 -31 105 -61
q77 -34 156 -55l-2 -10q-55 -12 -70 -50q-40 16 -119 63q-148 88 -246 252h-7q-55 -43 -134 -93v-138q130 8 271 29l2 -16l-417 -90l-3 -12q-3 -15 -13 -15q-8 0 -16 15l-42 70q95 6 157 11v113q-42 -21 -114 -49q-77 -28 -134 -43zM260 658q-28 -27 -128 -87v-15
q0 -21 -12 -21q-7 0 -15 12l-43 66q138 34 191 60zM102 879q35 -10 66 -31q56 -39 56 -77q0 -25 -20 -37q-6 -4 -13 -4q-8 0 -15 6q-8 7 -27 53q-15 36 -54 80zM275 462v495l76 -6q17 -1 17 -14q0 -9 -14 -13l-19 -6v-447zM369 796h217v168l79 -11q17 -2 17 -15
q0 -11 -15 -14l-17 -5v-123h157l44 55l69 -63v-20h-270v-179h137l43 53l70 -62v-17h-509l-12 26h207v179h-204z" />
  </g>

</svg>
