<?xml version="1.0" standalone="no"?>
<!DOCTYPE svg PUBLIC "-//W3C//DTD SVG 1.1//EN" "http://www.w3.org/Graphics/SVG/1.1/DTD/svg11.dtd" >
<svg xmlns="http://www.w3.org/2000/svg" xmlns:xlink="http://www.w3.org/1999/xlink" version="1.1" viewBox="0 -140 1000 1000">
  <g transform="matrix(1 0 0 -1 0 860)">
   <path fill="currentColor"
d="M44 399v22h436v113l100 -21v-12l-36 -15v-65h312l39 44h13l53 -52v-14h-431q54 -92 122 -159l190 112l53 -63l-9 -12l-41 9l-172 -65q74 -55 129.5 -80.5t134.5 -41.5l-2 -10q-36 -13 -53 -46q-129 46 -208 115.5t-164 211.5q-83 -62 -164 -95v-137l207 32l2 -17
l-250 -80l-8 -30l-12 -3l-46 81l43 8v125q-122 -40 -225 -54l-5 15q261 65 395 184h-403zM896 804l51 -53v-10h-158v-251l-5 -11l-49 -15l-10 10v267h-149q-16 -89 -53 -143t-116 -102l-6 11q115 105 115 257v134l73 -34q152 25 250 72l55 -58l-6 -12l-38 7
q-99 -24 -224 -34l-46 -4v-71h272l33 40h11zM453 870l53 -59v-15h-195v-113l166 35l4 -15l-170 -59v-99q0 -36 -20.5 -52.5t-75.5 -24.5l-7 9l-1 25l-66 31l4 14l88 -8q17 3 17 27v60l-142 -44l-4 -40l-15 -1l-47 84l208 43v128h-206v22h206v115l97 -17v-14l-36 -22v-62h89
l41 52h12z" />
  </g>

</svg>
