<?xml version="1.0" standalone="no"?>
<!DOCTYPE svg PUBLIC "-//W3C//DTD SVG 1.1//EN" "http://www.w3.org/Graphics/SVG/1.1/DTD/svg11.dtd" >
<svg xmlns="http://www.w3.org/2000/svg" xmlns:xlink="http://www.w3.org/1999/xlink" version="1.1" viewBox="0 -140 1000 1000">
  <g transform="matrix(1 0 0 -1 0 860)">
   <path fill="currentColor"
d="M866 819l54 -69l-11 -10l-20 10l-181 -96q8 -2 38 -12q106 -33 144 -58t38 -65q0 -45 -18 -45t-55 39q-66 72 -195 134q-29 -69 -71 -106q-73 -63 -199 -103l-11 15q46 18 75.5 33.5t67 48t59 74t37 109.5t15.5 156v54l97 -18v-12l-29 -16q-6 -124 -33 -218q5 -3 22 -5z
M863 458l52 -63l-10 -11l-21 10l-164 -94q51 -63 102.5 -103t132.5 -80l-2 -13q-33 -3 -57 -39q-86 58 -133.5 115.5t-89.5 156.5q-30 -82 -63 -126.5t-90 -79.5q-88 -54 -204 -73l-8 14q154 38 231 129.5t90 247.5q0 1 5 93l91 -17l-2 -15l-27 -12q-1 -7 -7 -58.5
t-10 -72.5q21 -38 32 -53zM78 737h120v190l104 -16v-15l-40 -20v-139h51l20 28h16l65 -56l-6 -14l-24 -3q-60 -99 -116 -159l21 -9v-15l-27 -11v-28l27 -10l84 115l53 -60l-12 -11l-18 8l-90 -58q59 -20 84 -46.5t25 -68.5q0 -50 -22 -50q-13 0 -26 24l-39 68
q-4 6 -10.5 14.5t-13 15.5t-14.5 15t-13.5 13t-10.5 9l-4 5l1 -383l-9 -11l-46 -12l-10 6v415q-63 -63 -153 -109l-10 13q175 126 286 342h-243v23zM510 827l15 -2q6 -60 6 -77q0 -65 -31 -121.5t-58 -56.5q-13 0 -22 15.5t-9 37.5q0 24 13 36q53 47 67 73.5t19 94.5z
M500 465l15 -1q6 -60 6 -77q0 -64 -31 -121t-58 -57q-12 0 -21.5 15.5t-9.5 35.5q0 26 13 38q42 39 50 47q28 36 36 120z" />
  </g>

</svg>
