<?xml version="1.0" standalone="no"?>
<!DOCTYPE svg PUBLIC "-//W3C//DTD SVG 1.1//EN" "http://www.w3.org/Graphics/SVG/1.1/DTD/svg11.dtd" >
<svg xmlns="http://www.w3.org/2000/svg" xmlns:xlink="http://www.w3.org/1999/xlink" version="1.1" viewBox="0 -410 2048 2048">
  <g transform="matrix(1 0 0 -1 0 1638)">
   <path fill="currentColor"
d="M357 1039q-118 -120 -277 -210l-19 31q160 131 266 264q126 158 234 410h-261q-120 0 -192 -8l-39 88q97 -22 231 -22h249l68 76l83 -54q40 -25 40 -48q0 -28 -79 -60q-109 -218 -209 -352v-57q51 -30 91 -58q72 104 129 217l91 -61q40 -27 40 -45q0 -24 -57 -24h-32
q-95 -81 -138 -112q131 -102 131 -182q0 -41 -28 -61q-11 -9 -24 -9q-37 0 -59 68q-39 120 -144 214v-647q0 -91 13 -219q3 -31 3 -49q0 -47 -54 -47q-57 0 -57 42v915zM1777 241h-849v-84q0 -53 -63 -53q-53 0 -53 46q0 16 3 49q13 115 13 209v434q-4 88 -16 133l123 -87
h825l68 76l84 -54q40 -26 40 -48q0 -28 -79 -62v-377q0 -58 10 -180q4 -42 4 -63q0 -61 -64 -61q-46 0 -46 51v71zM1777 593v240h-849v-240h849zM1777 297v243h-849v-243h849zM1669 1134h-645v-19q0 -46 -59 -46q-54 0 -54 47q0 15 4 48q13 112 13 208v300q-1 83 -12 165
l130 -77h606l68 77l83 -55q41 -27 41 -48q0 -17 -12 -27q-11 -9 -65 -35v-265l10 -155l2 -32q0 -12 3 -49q2 -32 2 -40q0 -55 -67 -55q-48 0 -48 31v27zM1024 1473h645v229h-645v-229zM1669 1190v225h-645v-225h645zM282 1948q190 -127 190 -216q0 -39 -29 -56
q-11 -7 -24 -7q-36 0 -47 51q-23 103 -110 204z" />
  </g>

</svg>
