<?xml version="1.0" standalone="no"?>
<!DOCTYPE svg PUBLIC "-//W3C//DTD SVG 1.1//EN" "http://www.w3.org/Graphics/SVG/1.1/DTD/svg11.dtd" >
<svg xmlns="http://www.w3.org/2000/svg" xmlns:xlink="http://www.w3.org/1999/xlink" version="1.1" viewBox="0 -204 1024 1024">
  <g transform="matrix(1 0 0 -1 0 820)">
   <path fill="currentColor"
d="M154 964q24 -15 42 -31q21 -14 33 -28q14 -13 19 -24q4 -9 4 -19q0 -21 -6 -32q-9 -14 -22 -14q-6 0 -10 4q-5 3 -8 19q-6 20 -16 39t-22 35q-12 17 -32 37zM32 798q40 -8 115 -8h124l31 32q34 -22 54 -42q6 -6 6 -10q0 -7 -13 -15q-16 -8 -24 -10q-44 -104 -83 -164
q-15 -22 -30 -42q30 -11 51 -22q12 15 22 27q11 14 19 30q9 15 15 31q8 16 12 31q75 -45 75 -57q0 -10 -18 -10q-11 0 -30 4q-13 -16 -29 -30q-14 -13 -29 -23q-10 -7 -19 -14q12 -6 19 -11q32 -20 48 -40q11 -14 11 -27q0 -32 -23 -32q-9 0 -18 4q-7 4 -16 20
q-21 36 -45 58q-15 15 -37 29v-389q0 -23 1 -31v-29q0 -34 -30 -34q-26 0 -26 18q0 20 3 54q4 34 4 60v333l-16 -18q-46 -49 -112 -95l-16 18q70 57 113 109q40 48 71 107q29 54 64 152h-129q-80 0 -97 -7zM444 944l63 -30h319l35 33q51 -36 51 -50q0 -10 -30 -25v-185
q0 -23 1 -30q1 -8 1 -16q0 -21 -34 -27q-16 0 -16 10v36h-340v-24q0 -10 -12 -16q-15 -6 -25 -6q-13 0 -13 14q0 4 1 14q1 23 1 42v192q0 49 -2 68zM494 688h340v198h-340v-82h197l38 41q33 -24 61 -46q5 -6 5 -9q0 -6 -4 -9q-4 -5 -9 -5h-288v-88zM372 546q40 -8 115 -8h95
l34 42q37 -23 55 -43q7 -7 7 -13q0 -9 -39 -32v-383q0 -35 -14 -52q-13 -18 -35 -26q-20 -11 -34 -11q-8 30 -17 39q-4 7 -25 16q-25 11 -58 13v26q50 -15 90 -15q28 0 37 6q9 5 9 28v377h-105q-80 0 -97 -7zM407 452q38 -5 63 -17q28 -10 41 -26q15 -16 19 -33q4 -12 4 -26
q0 -22 -18 -22q-3 0 -10 7q-27 35 -56 61q-28 25 -50 33zM568 304l4 -22q-32 -43 -56 -67q-26 -28 -50 -49q-22 -21 -47 -36q-11 -37 -18 -37q-8 0 -49 84q40 11 71 28q29 13 65 38q34 22 80 61zM684 546q40 -8 115 -8h83l34 42q37 -23 55 -43q7 -7 7 -13q0 -9 -39 -32v-383
q0 -35 -15 -52q-13 -18 -36 -26q-21 -11 -36 -11q-8 30 -17 39q-4 7 -25 16q-25 11 -58 13v26q50 -15 90 -15q31 0 40 6q10 5 10 28v377h-93q-80 0 -97 -7zM691 444q41 -4 69 -16q31 -10 45 -24q16 -14 21 -30q4 -11 4 -24q0 -22 -18 -22q-3 0 -11 6q-30 33 -62 56
q-31 24 -55 31zM860 308l4 -22q-29 -39 -52 -62q-24 -26 -46 -45q-20 -19 -43 -33q-11 -37 -18 -37q-8 0 -49 84q38 10 67 25q28 12 61 34q33 21 76 56z" />
  </g>

</svg>
