<?xml version="1.0" standalone="no"?>
<!DOCTYPE svg PUBLIC "-//W3C//DTD SVG 1.1//EN" "http://www.w3.org/Graphics/SVG/1.1/DTD/svg11.dtd" >
<svg xmlns="http://www.w3.org/2000/svg" xmlns:xlink="http://www.w3.org/1999/xlink" version="1.1" viewBox="0 -140 1000 1000">
  <g transform="matrix(1 0 0 -1 0 860)">
   <path fill="currentColor"
d="M569 823v98l92 -17v-13l-32 -15v-53h70v98l86 -18v-15l-26 -12v-53h61l22 30h13l56 -42v-16l-17 -17v-192l-6 -13l-43 -13l-15 7v30h-332l-1 -29l-8 -12l-44 -9l-10 5v298l69 -27h65zM498 702v-83h71v83h-71zM629 801v-77h70v77h-70zM759 801v-77h71v77h-71zM759 702v-83
h71v83h-71zM629 702v-83h70v83h-70zM498 801v-77h71v77h-71zM859 382h13l53 -50v-15h-270q29 -50 90 -107l103 99l60 -56l-13 -9l-20 8l-112 -58q107 -68 178 -91l-2 -14q-39 -13 -54 -39q-193 106 -253 267h-67l-1 -162l143 25l4 -12l-243 -90l-7 -27l-11 -1l-37 82l92 15
v170h-46q-20 -99 -43 -144.5t-82 -104.5l-10 6q47 69 66.5 153t19.5 267v43l66 -27h345l41 41h17l47 -49v-14h-452q0 -11 -2 -35t-4.5 -58.5t-4.5 -55.5l354 1zM500 424h255l37 38h14l50 -48v-12h-356v22zM190 759v168l97 -17l1 -15l-34 -18v-118h39l30 33h12l49 -55l-6 -13
l-19 -11q-37 -115 -108 -201v-19l42 -17l47 111l64 -35l-10 -15l-21 2l-61 -71l12 -8q60 -40 60 -82q0 -36 -23 -36t-36 33q-17 43 -30 60t-44 37l-1 -392l-6 -15l-48 -11l-8 8v391q-47 -53 -120 -85l-8 9q173 130 237 360h-228v22h121z" />
  </g>

</svg>
