<?xml version="1.0" standalone="no"?>
<!DOCTYPE svg PUBLIC "-//W3C//DTD SVG 1.1//EN" "http://www.w3.org/Graphics/SVG/1.1/DTD/svg11.dtd" >
<svg xmlns="http://www.w3.org/2000/svg" xmlns:xlink="http://www.w3.org/1999/xlink" version="1.1" viewBox="0 -204 1024 1024">
  <g transform="matrix(1 0 0 -1 0 820)">
   <path fill="currentColor"
d="M234 956q46 -9 75 -18q11 -4 11 -11q0 -5 -7 -9q-11 -6 -25 -10v-54h100l37 38q30 -22 56 -43q7 -4 7 -9q0 -14 -12 -14h-188v-76h141l30 31q35 -25 63 -54q3 -3 3 -6q0 -7 -19 -11q-16 -4 -31 -7l-24 -27q-15 -16 -30 -28l-17 13q11 17 17 32q7 15 10 29h-166
q27 -6 46 -13q7 -4 7 -11q0 -9 -10 -14t-26 -10v-72l86 9l24 42l63 -41q5 -3 5 -8q0 -11 -13 -14l-165 -22v-1q0 -27 3 -40q4 -10 11 -15q6 -7 26 -8q21 -5 45 -5t46 3q17 3 29 10q12 6 18 6q15 0 25 -7q9 -8 11 -23q0 -6 -3 -7q-2 -6 -8 -9q-15 -5 -35 -7q-37 -5 -72 -5
q-44 0 -73 5q-21 1 -31 8q-13 5 -19 14q-11 11 -14 26t-3 41v8l-39 -5l-19 -8l-28 41l35 3l51 5v76q0 28 -2 48h-96v-210q0 -68 -4 -127q-3 -52 -12 -106q-6 -43 -17 -81q-10 -33 -27 -64q-14 -27 -38 -54l-14 11q13 23 23 51q9 25 16 53q7 31 13 72q5 48 8 97q4 66 4 148
q0 173 -4 276l57 -38h95v126q0 53 -6 80zM213 416q42 -4 79 -10q12 -3 12 -10q0 -9 -12 -14q-13 -6 -25 -11q-1 -58 -7 -98t-15 -75q-11 -36 -26 -63q-16 -30 -40 -53q-26 -28 -70 -58l-13 19q26 23 44 45q15 22 29 48t25 62q10 33 15 78q6 45 6 88q0 35 -2 52zM338 416
q46 -9 75 -18q11 -4 11 -11q0 -5 -7 -9q-11 -6 -25 -10v-182q27 8 58 22q32 13 74 36l4 -22q-28 -28 -50 -44q-24 -19 -45 -32q-20 -14 -42 -24q-11 -37 -18 -37q-8 0 -49 84l20 4v163q0 53 -6 80zM552 933l61 -43h253l34 42q37 -23 55 -43q7 -7 7 -13q0 -9 -38 -32v-346
q0 -74 3 -98q1 -28 1 -46q0 -16 -11 -24q-14 -6 -24 -6q-17 0 -17 13v29h-60v-237q0 -14 4 -23q3 -9 13 -14q11 -3 43 -3q20 0 36 4q6 1 10 9q2 8 4 25q4 25 7 117l19 -4q4 -47 4 -93q0 -17 6 -27q8 -12 22 -19q8 -4 8 -14q0 -4 -2 -11q-5 -10 -16 -17q-13 -8 -38 -11
q-28 -4 -49 -4q-43 0 -64 4q-20 1 -31 9q-13 6 -19 20q-5 13 -5 23v266h-62q-5 -48 -15 -87q-9 -45 -30 -80q-19 -41 -43 -72q-25 -31 -61 -57q-37 -28 -90 -50l-15 19q54 29 85 58q30 27 52 56q19 28 34 59q14 32 24 75q7 32 12 79h-55v-38q0 -12 -16 -12q-9 0 -24 6
q-12 9 -12 24q0 18 3 47q4 22 4 97v372q0 41 -7 71zM604 394h272v148h-272v-148zM604 570h272v132h-272v-132zM604 730h272v132h-272v-132z" />
  </g>

</svg>
