<?xml version="1.0" standalone="no"?>
<!DOCTYPE svg PUBLIC "-//W3C//DTD SVG 1.1//EN" "http://www.w3.org/Graphics/SVG/1.1/DTD/svg11.dtd" >
<svg xmlns="http://www.w3.org/2000/svg" xmlns:xlink="http://www.w3.org/1999/xlink" version="1.1" viewBox="0 -120 1000 1000">
  <g transform="matrix(1 0 0 -1 0 880)">
   <path fill="currentColor"
d="M52 325q89 61 160 143q74 86 122 176l68 -30q18 -7 18 -14q0 -10 -20 -12l-23 -2l-11 -15h232l23 33l62 -43q14 -10 14 -19t-14 -10l-33 -1l-71 -58h160l21 35l60 -36q13 -8 13 -16q0 -11 -11 -14l-16 -5v-306q0 -26 -10 -37q-20 -21 -54 -31q-9 -3 -15 -3q-7 0 -10 3
q0 1 -4 21q-2 9 -8 14q-9 7 -43 13l-47 8v18h127v108h-443q-10 -42 -20 -62q-48 -82 -156 -121l-9 14q56 36 89 81q37 54 38 162v112q-84 -76 -179 -120zM285 473h246l53 71h-239zM304 345l-3 -72h187v72h-184zM304 445v-72h184v72h-184zM546 273h196v72h-196v-72zM546 373
h196v72h-196v-72zM531 701q-41 -11 -161 -39q-164 -39 -236 -55l-3 -10q-6 -21 -16 -21q-9 0 -17 17l-33 67l85 10v221l71 -11q21 -3 21 -13q0 -9 -21 -16l-15 -5v-170l83 10v278l65 -9q26 -4 26 -17q0 -8 -14 -15l-15 -7v-98h64l40 48l69 -57v-19h-173v-97l176 26zM897 775
v-54q0 -22 12 -32q10 -8 32 -15q-11 -52 -102 -50h-207q-46 1 -63 14q-20 15 -20 47v278l69 -10q25 -4 25 -14q0 -8 -17 -13l-19 -6v-128q100 41 217 118l49 -48q9 -9 9 -15q0 -13 -14 -12q-5 0 -10 3l-17 9q-140 -49 -234 -74v-61q0 -21 6 -27q5 -5 22 -5h176q25 1 34 10
q8 8 15 30l19 55h18z" />
  </g>

</svg>
