<?xml version="1.0" standalone="no"?>
<!DOCTYPE svg PUBLIC "-//W3C//DTD SVG 1.1//EN" "http://www.w3.org/Graphics/SVG/1.1/DTD/svg11.dtd" >
<svg xmlns="http://www.w3.org/2000/svg" xmlns:xlink="http://www.w3.org/1999/xlink" version="1.1" viewBox="0 -140 1000 1000">
  <g transform="matrix(1 0 0 -1 0 860)">
   <path fill="currentColor"
d="M621 398v322q-117 -20 -217 -22v17q105 13 217 49v172l104 -25v-15l-42 -17v-97q128 44 177 76l56 -56l-5 -12l-34 2q-90 -41 -194 -59v-335h123v267l94 -20v-16l-31 -18v-264l-7 -15l-44 -11l-12 11v44h-123v-210q0 -19 12.5 -31t32.5 -12h78q54 0 68 39l37 112l13 -3
l-8 -136l35 -20v-13q-44 -34 -131 -34h-101q-47 0 -72.5 19t-25.5 68v221h-122l-19 -25l-57 31l10 23v242l94 -18v-15l-33 -18v-198h127zM333 792l59 -58v-15h-344v23h229l41 50h15zM259 622l43 53h9l60 -63v-13h-303v23h191zM259 502l39 49h12l56 -59v-13h-298v23h191z
M319 401l49 -44v-15l-23 -25v-232l-8 -17l-43 -11l-12 10v56h-137v-55l-10 -16l-41 -10l-15 13v353l58 -35h143l25 28h14zM143 146h139v205h-139v-205zM78 838v23h182l45 46h10l54 -56v-13h-291z" />
  </g>

</svg>
