<?xml version="1.0" standalone="no"?>
<!DOCTYPE svg PUBLIC "-//W3C//DTD SVG 1.1//EN" "http://www.w3.org/Graphics/SVG/1.1/DTD/svg11.dtd" >
<svg xmlns="http://www.w3.org/2000/svg" xmlns:xlink="http://www.w3.org/1999/xlink" version="1.1" viewBox="0 -140 1000 1000">
  <g transform="matrix(1 0 0 -1 0 860)">
   <path fill="currentColor"
d="M404 198l61 11v632l63 -23q101 19 161.5 38t152.5 62l66 -68l-10 -11l-39 11q-2 0 -72 -15.5t-73 -16.5q4 -120 18 -222h107l41 45h14l53 -51v-15h-212q18 -111 69.5 -229t75.5 -118q12 0 23 26l32 79l12 -8l-29 -153l25 -51l-11 -16q-75 23 -119 91q-107 163 -140 379
h-145v-356l215 43l4 -14l-287 -107l-7 -24l-14 -3zM528 596h141q-10 100 -15 215q-16 -2 -126 -13v-202zM95 862v22h182l46 43h13l50 -50v-15h-291zM97 615v21h176l46 43h15l52 -48v-16h-289zM97 477v22h175l44 42h15l50 -48v-16h-284zM316 765l48 47h14l52 -53v-16h-373v22
h259zM404 82v21h310l52 49h13l60 -55v-15h-435zM86 60v345l70 -28h139l34 34h15l50 -46v-16l-23 -18v-231l-8 -12l-46 -14l-10 7v34h-156l-1 -34l-5 -14l-50 -15zM151 136h156v219h-156v-219z" />
  </g>

</svg>
