<?xml version="1.0" standalone="no"?>
<!DOCTYPE svg PUBLIC "-//W3C//DTD SVG 1.1//EN" "http://www.w3.org/Graphics/SVG/1.1/DTD/svg11.dtd" >
<svg xmlns="http://www.w3.org/2000/svg" xmlns:xlink="http://www.w3.org/1999/xlink" version="1.1" viewBox="0 -410 2048 2048">
  <g transform="matrix(1 0 0 -1 0 1638)">
   <path fill="currentColor"
d="M1385 1660q205 58 329 135l99 -103q14 -14 14 -26q0 -17 -28 -17q-10 0 -18 2l-49 12q-177 -54 -347 -85v-280h227l98 101l121 -106q17 -15 17 -26q0 -26 -27 -26h-436v-265h315l108 114l131 -114q23 -20 23 -33q0 -25 -27 -25h-510q232 -374 556 -453l-4 -42
q-49 -3 -72 -13q-31 -13 -59 -59q-256 153 -461 527v-482q0 -95 13 -219q3 -32 3 -50q0 -46 -55 -46q-57 0 -57 42v725q-155 -217 -250 -315q-125 -127 -255 -218l-25 28q251 226 443 575h-164q-117 0 -192 -8l-38 87q98 -21 230 -21h251v265h-174q-104 0 -192 -8l-37 88
q91 -23 229 -23h174v265q-93 -16 -403 -42l-4 42q257 34 407 71v161q0 114 -8 161l109 -25q86 -18 86 -45q0 -25 -51 -42l-40 -13v-171zM461 1578h152l80 80l114 -85q17 -13 17 -27q0 -25 -27 -25h-538q-64 0 -149 -11l-39 86q128 -18 188 -18h156q-21 10 -28 66
q-12 93 -118 236l30 25q86 -76 120 -112q80 -86 80 -153q0 -43 -38 -62zM535 997l80 81l115 -86q16 -13 16 -26q0 -26 -27 -26h-391q-68 0 -147 -11l-41 86q121 -18 188 -18h207zM531 1298l81 81l113 -86q17 -13 17 -26q0 -26 -27 -26h-391q-68 0 -148 -11l-40 86
q124 -18 188 -18h207zM181 760l107 -62h287l61 72l72 -50q42 -28 42 -50q0 -16 -64 -52v-346l33 -23q29 -20 29 -36q0 -20 -20 -20h-453v-39q0 -31 -52 -31q-53 0 -53 44q0 4 4 49q7 95 7 104v440zM275 249h316v391h-316v-391z" />
  </g>

</svg>
