<?xml version="1.0" standalone="no"?>
<!DOCTYPE svg PUBLIC "-//W3C//DTD SVG 1.1//EN" "http://www.w3.org/Graphics/SVG/1.1/DTD/svg11.dtd" >
<svg xmlns="http://www.w3.org/2000/svg" xmlns:xlink="http://www.w3.org/1999/xlink" version="1.1" viewBox="0 -120 1000 1000">
  <g transform="matrix(1 0 0 -1 0 880)">
   <path fill="currentColor"
d="M51 723l-10 28h241l42 50l69 -60v-18h-342zM85 59v362l62 -43h126l17 32l62 -39q11 -7 11 -15t-10 -11l-16 -4l-2 -241l-57 -10v45h-135v-69zM143 161h135v191h-135v-191zM87 472l-12 28l174 -1l42 47l68 -55v-19h-272zM84 602l-9 26h179l40 47l67 -53v-20h-277zM88 850
l-10 27h167l40 50l70 -57v-20h-267zM363 322q99 161 151 362l80 -26q10 -3 10 -11q0 -9 -11 -12l-21 -6q-30 -68 -60 -125l22 -7q11 -4 11 -12q0 -9 -10 -12l-11 -3v-412l-62 -9l1 373q-36 -51 -83 -109zM371 827h164v126l71 -4q19 -2 19 -14q0 -9 -11 -14l-20 -8v-86h110
v125l73 -3q20 -1 20 -13q0 -10 -15 -16l-20 -9v-84h69l43 54l78 -62v-18h-190v-92l-58 -11v103h-110v-96l-59 -12v108h-153zM561 283q59 50 108 95l-1 293l74 -7q19 -2 19 -13q0 -9 -14 -15l-16 -6v-191q69 71 134 181l66 -45q8 -6 9 -12q1 -10 -14 -11l-19 -2
q-63 -73 -176 -168v-232q0 -17 22 -17h66q26 0 36 9q8 7 15 31l29 107h17l-2 -80q0 -1 -1 -4q-5 -26 13 -45q6 -7 26 -15q-10 -29 -21 -41q-19 -19 -54 -19l-153 -1q-27 0 -39 9q-15 11 -15 43l-1 205q-56 -37 -98 -62z" />
  </g>

</svg>
