<?xml version="1.0" standalone="no"?>
<!DOCTYPE svg PUBLIC "-//W3C//DTD SVG 1.1//EN" "http://www.w3.org/Graphics/SVG/1.1/DTD/svg11.dtd" >
<svg xmlns="http://www.w3.org/2000/svg" xmlns:xlink="http://www.w3.org/1999/xlink" version="1.1" viewBox="0 -120 1000 1000">
  <g transform="matrix(1 0 0 -1 0 880)">
   <path fill="currentColor"
d="M53 762h258l39 48l61 -57v-19h-345zM92 63v361l70 -35h137l18 33l62 -40q12 -8 12 -17q0 -11 -12 -13l-19 -4v-240l-59 -10v38h-150v-62zM151 164h150v197h-150v-197zM86 511h192l39 52l65 -59v-21h-281zM103 607l-14 28h188l36 50l69 -60v-18h-279zM101 860l-14 28h188
l34 47l56 -56v-19h-264zM408 586l-13 28h229v85h-170l-15 28h185v85h-199l-13 28h212v121l73 -5q33 -2 33 -17q0 -12 -23 -18l-21 -7v-74h121l44 57l82 -65v-20h-247v-85h93l44 50l70 -58v-20h-207v-85h132l45 57l88 -63v-22h-543zM478 66v475l62 -30h246l20 41l58 -37
q15 -9 15 -19q0 -6 -15 -15l-11 -7v-331q0 -37 -17 -51q-15 -11 -40 -20q-18 -7 -30 -7q-10 0 -9 19q0 20 -23 28l-58 19v12h116v116h-256v-181zM536 370v-83h256v83h-256zM536 483v-85h256v85h-256z" />
  </g>

</svg>
