<?xml version="1.0" standalone="no"?>
<!DOCTYPE svg PUBLIC "-//W3C//DTD SVG 1.1//EN" "http://www.w3.org/Graphics/SVG/1.1/DTD/svg11.dtd" >
<svg xmlns="http://www.w3.org/2000/svg" xmlns:xlink="http://www.w3.org/1999/xlink" version="1.1" viewBox="0 -120 1000 1000">
  <g transform="matrix(1 0 0 -1 0 880)">
   <path fill="currentColor"
d="M52 749l-18 28h234l36 47l70 -57v-18h-322zM458 538v-101h143v101h-143zM458 661v-95h143v95h-143zM663 538v-101h152v101h-152zM663 661v-95h152v95h-152zM86 93v355l58 -35h122l23 39l51 -37q14 -11 14 -22q0 -8 -14 -14l-10 -5v-220l-57 -10v17h-129v-61zM144 385
v-196h129v196h-129zM88 629l-11 28h163l36 50l61 -57v-21h-249zM97 508l-17 28h156l40 51l64 -58v-21h-243zM112 860l-20 28h134l36 44l54 -50v-22h-204zM383 783l-18 28h236v154l77 -11q15 -2 15 -10q0 -7 -12 -14l-18 -10v-109h163l50 63l80 -71v-20h-293v-94h146l22 37
l56 -39q14 -9 14 -15q0 -7 -14 -15l-11 -5v-273l-61 -9v39h-127q43 -74 119 -147q71 -67 153 -120l-4 -11q-31 0 -45 -6q-16 -6 -31 -25q-148 143 -217 309v-344l-62 -7v294q-75 -103 -187 -191q-70 -53 -137 -81l-8 14q90 57 161 139q84 97 124 176h-96v-44l-57 -7v368
l76 -37h124v94h-218z" />
  </g>

</svg>
