<?xml version="1.0" standalone="no"?>
<!DOCTYPE svg PUBLIC "-//W3C//DTD SVG 1.1//EN" "http://www.w3.org/Graphics/SVG/1.1/DTD/svg11.dtd" >
<svg xmlns="http://www.w3.org/2000/svg" xmlns:xlink="http://www.w3.org/1999/xlink" version="1.1" viewBox="0 -410 2048 2048">
  <g transform="matrix(1 0 0 -1 0 1638)">
   <path fill="currentColor"
d="M752 1168l-22 38q400 328 525 750l121 -32q55 -15 55 -36q0 -24 -85 -40q263 -441 653 -555v-37q-58 -1 -87 -12q-28 -11 -48 -46q-190 129 -298 247q-121 134 -252 367q-95 -185 -155 -263q-116 -149 -213 -234q-86 -75 -194 -147zM1705 1009l68 77l84 -56
q40 -26 40 -48q0 -27 -79 -61v-684q0 -115 -140 -143q0 48 -16 67q-28 32 -118 50l7 42q89 -19 126 -19q46 0 46 60v289h-201v-411q0 -31 -51 -31t-51 37q0 3 4 41l2 31l3 49v284h-190v-428q0 -31 -51 -31t-51 37q0 4 5 41l2 31l3 49v301h-193v-447q0 -54 -58 -54
q-53 0 -53 47q0 15 4 48q12 98 12 210v574q-2 82 -16 137l120 -89h742zM954 637h193v319h-193v-319zM1239 956v-319h190v319h-190zM1522 956v-319h201v319h-201zM561 733l61 72l74 -50q40 -27 40 -49q0 -16 -65 -53v-360l25 -18q28 -21 28 -37q0 -21 -21 -21h-443v-35
q0 -31 -52 -31q-54 0 -54 44q0 4 4 49l4 55l5 49v449l120 -64h274zM260 275h317v401h-317v-401zM524 1327l80 81l114 -88q17 -12 17 -24q0 -26 -27 -26h-378q-68 0 -149 -11l-39 86q121 -18 188 -18h194zM534 1030l80 81l114 -86q17 -13 17 -26q0 -26 -26 -26h-400
q-69 0 -150 -11l-38 84q126 -16 188 -16h215zM1435 1333l80 80l114 -86q17 -13 17 -26q0 -25 -26 -25h-423q-70 0 -150 -11l-37 86q125 -18 187 -18h238zM458 1607h157l81 81l113 -86q17 -13 17 -26q0 -26 -27 -26h-536q-69 0 -149 -11l-39 86q128 -18 188 -18h149
q-21 9 -28 66q-12 93 -116 236l28 25q88 -78 120 -112q80 -86 80 -153q0 -43 -38 -62z" />
  </g>

</svg>
