<?xml version="1.0" standalone="no"?>
<!DOCTYPE svg PUBLIC "-//W3C//DTD SVG 1.1//EN" "http://www.w3.org/Graphics/SVG/1.1/DTD/svg11.dtd" >
<svg xmlns="http://www.w3.org/2000/svg" xmlns:xlink="http://www.w3.org/1999/xlink" version="1.1" viewBox="0 -120 1000 1000">
  <g transform="matrix(1 0 0 -1 0 880)">
   <path fill="currentColor"
d="M36 752h229l37 49l72 -56v-19h-327zM82 64v344l59 -32h118l19 31l61 -36q11 -7 11 -16q0 -8 -12 -12l-15 -5v-220l-57 -11v46h-126v-78zM140 180h126v170h-126v-170zM349 477h-266l-10 27h161l41 48l74 -57v-18zM71 628h164l41 49l71 -56v-20h-266zM86 850l-9 26l150 1
l41 53l79 -62v-18h-261zM342 300q93 92 154 232q-52 -13 -89 -20l-3 15q7 3 51 19q100 36 122 103h-79v-33l-50 -8v137q-46 -55 -86 -90l-13 10q45 56 80 124q31 60 67 165l76 -22q12 -3 12 -12q0 -7 -10 -10l-25 -7q-13 -25 -28 -53h323l25 39l65 -45q11 -8 11 -15
q0 -10 -14 -13l-17 -3q-1 -11 -6 -107q-6 -115 -29 -160q-13 -25 -41 -42q-24 -15 -49 -15q-7 0 -9 2q-4 2 -3 14q0 18 -17 23l-50 17l-1 14l111 -2q18 32 28 140q6 63 6 111v15h-350q-18 -29 -36 -55l43 -5q14 -1 14 -10q0 -8 -9 -11l-18 -7v-59h88q2 37 2 56q0 23 -3 73
l69 -6q17 -1 17 -10q0 -7 -11 -12l-18 -9q-1 -48 -4 -92h84v95l62 -8q17 -2 17 -11q0 -6 -12 -11l-15 -6v-122l-52 -9v45h-88q-14 -65 -103 -101l48 -22q10 -4 10 -10q0 -8 -12 -10l-20 -3q-18 -26 -38 -51h323l22 36l70 -41q11 -7 11 -16q0 -8 -16 -12l-19 -5
q-5 -199 -26 -271q-14 -47 -48 -69q-30 -18 -51 -18q-14 0 -13 22q0 9 -3 14q-1 2 -17 7l-55 15v17h119q16 26 23 83q10 83 11 212h-352q-25 -31 -52 -60l53 -5q15 -1 15 -11q0 -8 -12 -12l-13 -5v-70h89q4 52 4 102v42l68 -8q13 -2 13 -13q0 -7 -9 -11l-14 -5
q-1 -55 -5 -107h84v106l63 -4q19 -1 19 -11q0 -7 -15 -13l-13 -5l1 -140l-55 -7v48h-87q-14 -57 -38 -84q-38 -43 -131 -72q-31 -10 -59 -14l-4 16q79 29 109 50q50 36 65 104h-85v-41l-51 -8v170q-43 -41 -85 -70z" />
  </g>

</svg>
