<?xml version="1.0" standalone="no"?>
<!DOCTYPE svg PUBLIC "-//W3C//DTD SVG 1.1//EN" "http://www.w3.org/Graphics/SVG/1.1/DTD/svg11.dtd" >
<svg xmlns="http://www.w3.org/2000/svg" xmlns:xlink="http://www.w3.org/1999/xlink" version="1.1" viewBox="0 -204 1024 1024">
  <g transform="matrix(1 0 0 -1 0 820)">
   <path fill="currentColor"
d="M458 968q19 -8 34 -16q16 -8 26 -15q11 -7 14 -13q4 -5 4 -10q0 -21 -6 -32h359l30 31q35 -25 63 -54q3 -3 3 -6q0 -7 -19 -11q-16 -4 -31 -7q-12 -14 -30 -29q-17 -17 -36 -30l-17 13q16 18 24 34q10 16 15 31h-746q-1 -22 -4 -42q-5 -28 -15 -47q-7 -16 -18 -27
q-10 -11 -20 -14q-9 -4 -16 -4q-24 0 -24 17q0 8 12 20q29 30 41 51q13 20 21 46q7 25 9 66l13 -2q2 -20 2 -36h348v1q-4 13 -12 25t-17 22q-9 11 -25 24zM156 774q44 -12 117 -12h71q-1 46 -6 70q46 -9 75 -18q11 -4 11 -11q0 -5 -7 -9q-11 -6 -25 -10v-22h224q-1 46 -6 70
q46 -9 75 -18q11 -4 11 -11q0 -5 -7 -9q-11 -6 -25 -10v-22h92l35 36q29 -21 55 -41q6 -4 6 -9q0 -14 -12 -14h-176v-64h72l35 36q29 -21 55 -41q6 -4 6 -9q0 -14 -12 -14h-156v-60h212l38 41q31 -24 59 -45q7 -5 7 -10q0 -14 -13 -14h-246q20 -21 42 -37q31 -23 70 -44
q39 -19 78 -33q37 -13 71 -19l-3 -17q-49 0 -65 -30q-36 13 -65 31q-33 20 -57 42q-27 20 -52 45q-25 24 -53 62h-356q-30 -39 -63 -66q-44 -36 -95 -67q-49 -28 -127 -57l-14 20q68 32 109 57q36 23 68 54q29 25 54 59h-98q-71 -2 -97 -7l-20 47q44 -12 117 -12h179v60h-51
q-71 -2 -97 -7l-20 47q44 -12 117 -12h51v64h-71q-71 -2 -97 -7zM392 582h224v60h-224v-60zM616 670v64h-224v-64h224zM461 532q18 -9 32 -18q15 -8 24 -15q10 -8 14 -14q3 -6 3 -11q0 -19 -5 -30l-2 -2h155l34 34l52 -40q6 -3 6 -8q0 -14 -12 -14h-403q-71 -2 -97 -7
l-20 47q44 -12 117 -12h138q-1 2 -2 5q-4 13 -12 25q-7 12 -16 23q-8 11 -23 24zM266 366q44 -12 117 -12h287l31 30l47 -36q6 -4 6 -8q0 -14 -10 -14h-361q-71 -2 -97 -7zM270 278q44 -12 117 -12h283l31 30l47 -36q6 -4 6 -8q0 -14 -10 -14h-357q-71 -2 -97 -7zM240 205
l55 -27h435l35 33q51 -36 51 -50q0 -10 -30 -25v-50q11 -8 19 -15q5 -3 5 -7q0 -14 -9 -14h-511q0 -10 -12 -16q-15 -6 -25 -6q-13 0 -13 14q0 4 1 14q1 23 1 42v56q0 36 -2 51zM290 78h448v72h-448v-72z" />
  </g>

</svg>
