<?xml version="1.0" standalone="no"?>
<!DOCTYPE svg PUBLIC "-//W3C//DTD SVG 1.1//EN" "http://www.w3.org/Graphics/SVG/1.1/DTD/svg11.dtd" >
<svg xmlns="http://www.w3.org/2000/svg" xmlns:xlink="http://www.w3.org/1999/xlink" version="1.1" viewBox="0 -140 1000 1000">
  <g transform="matrix(1 0 0 -1 0 860)">
   <path fill="currentColor"
d="M745 323v-135l-6 -16l-46 -12l-12 10v21h-148v-24l-7 -14l-45 -11l-13 6l-1 243l77 -26h129l28 25h17l47 -41v-14zM680 344h-147v-131h147v131zM677 638h-147v-20l-7 -12l-49 -9l-8 9v207l59 -23h144l28 28h14l47 -37v-15l-17 -11l-1 -124l-6 -11l-48 -11l-9 9v20z
M530 659h147v110h-147v-110zM889 471v-329q0 -56 -13.5 -68.5t-86.5 -28.5l-10 5v21l-89 32l3 13l86 -5q45 -3 45 34v326h-443v21h455l45 53h14l54 -62v-12h-60zM872 867v-267q0 -19 -3 -30t-16.5 -19.5t-24.5 -12t-44 -13.5l-12 5v24l-82 29l4 10l49 -2l21 -1h-1
q29 0 36.5 8t7.5 42v227h-399v23h429l37 44h16l53 -49v-18h-71zM79 859v21h143l43 46h15l51 -51v-16h-252zM79 605v21h173l43 42h13l47 -47v-16h-276zM79 466v21h170l43 46h11l50 -51v-16h-274zM53 734v21h244l46 45h13l48 -52v-14h-351zM74 57l1 344l70 -28h115l33 34h15
l50 -46v-16l-23 -17v-230l-5 -13l-49 -14l-10 8v33h-131v-34l-6 -14l-50 -15zM140 133h131v218h-131v-218z" />
  </g>

</svg>
