<?xml version="1.0" standalone="no"?>
<!DOCTYPE svg PUBLIC "-//W3C//DTD SVG 1.1//EN" "http://www.w3.org/Graphics/SVG/1.1/DTD/svg11.dtd" >
<svg xmlns="http://www.w3.org/2000/svg" xmlns:xlink="http://www.w3.org/1999/xlink" version="1.1" viewBox="0 -410 2048 2048">
  <g transform="matrix(1 0 0 -1 0 1638)">
   <path fill="currentColor"
d="M1649 1039l66 76l84 -54q40 -26 40 -46q0 -27 -47 -48l-34 -15v-382h26l80 82l114 -87q17 -12 17 -26q0 -26 -27 -26h-210v-238q0 -142 -154 -170q-12 70 -48 92q-32 21 -159 44l8 46q165 -28 200 -28q56 0 56 58v196h-642v-378q0 -54 -59 -54q-53 0 -53 47q0 15 4 48
q12 101 12 210v127h-28q-65 0 -111 -8l-37 88q98 -23 148 -23h28v532l120 -63h251v186h-298q-122 0 -192 -8l-39 89q90 -24 231 -24h106v167h-41q-117 0 -192 -8l-39 88q94 -22 231 -22h41v149h-88q-128 0 -192 -9l-38 86q96 -23 230 -23h88v73q0 112 -8 160l107 -25
q86 -19 86 -45q0 -25 -51 -42l-38 -12v-109h258v73q0 121 -9 160l111 -25q83 -18 83 -42q0 -27 -52 -45l-37 -12v-109h159l81 81l113 -86q16 -13 16 -26q0 -23 -28 -23h-341v-149h117l80 82l115 -87q16 -13 16 -27q0 -26 -27 -26h-301v-167h216l80 80l114 -85q17 -13 17 -26
q0 -26 -27 -26h-563v-186h260zM1019 570h275v180h-275v-180zM1389 570h272v180h-272v-180zM1019 808h275v175h-275v-175zM1389 808h272v175h-272v-175zM1198 1282h258v167h-258v-167zM1456 1507v149h-258v-149h258zM507 1330l80 81l114 -86q16 -12 16 -26q0 -26 -26 -26
h-348q-66 0 -149 -11l-39 86q122 -18 188 -18h164zM512 1045l80 81l114 -87q17 -13 17 -25q0 -26 -26 -26h-354q-66 0 -149 -11l-39 86q122 -18 188 -18h169zM405 1648q-26 17 -33 48q-20 99 -111 204l19 24q192 -127 192 -217q0 -40 -38 -59h131l80 80l114 -86
q17 -12 17 -26q0 -26 -27 -26h-476q-69 0 -149 -11l-39 86q126 -17 188 -17h132zM546 756l61 72l74 -50q40 -27 40 -50q0 -15 -65 -52v-378l25 -18q28 -21 28 -37q0 -21 -21 -21h-426v-35q0 -31 -52 -31q-54 0 -54 44q0 4 4 49q6 97 6 104v463l121 -60h259zM262 280h300v419
h-300v-419z" />
  </g>

</svg>
