<?xml version="1.0" standalone="no"?>
<!DOCTYPE svg PUBLIC "-//W3C//DTD SVG 1.1//EN" "http://www.w3.org/Graphics/SVG/1.1/DTD/svg11.dtd" >
<svg xmlns="http://www.w3.org/2000/svg" xmlns:xlink="http://www.w3.org/1999/xlink" version="1.1" viewBox="0 -140 1000 1000">
  <g transform="matrix(1 0 0 -1 0 860)">
   <path fill="currentColor"
d="M452 698l65 -23h271l30 32h14l53 -48v-14l-20 -14v-234l-3 -14l-53 -14l-9 8v29h-162l75 -19v-14l-29 -9q-8 -40 -16 -68h177l40 48h13l49 -57v-13h-269q65 -79 117.5 -111t151.5 -52v-11q-40 -13 -61 -51q-77 30 -125.5 76t-101.5 141q-53 -102 -114 -146.5t-195 -78.5
l-4 12q113 48 158.5 89t86.5 132h-203v22h211q13 50 20 110h-100v-28l-7 -13l-48 -16l-12 8v341zM519 428h281v99h-281v-99zM519 653v-105h281v105h-281zM379 835h157l1 99l94 -17v-14l-30 -11v-57h99l1 101l92 -19v-14l-28 -9v-59h81l37 45h13l51 -56v-14h-182l1 -76
l-5 -13l-54 -9l-7 7l1 91h-100v-76l-3 -13l-54 -12l-8 8l1 93h-158v25zM77 835v21h173l42 45h14l51 -50v-16h-280zM92 586v22h172l42 41h14l47 -47v-16h-275zM89 456v21h169l43 46h12l49 -51v-16h-273zM313 734l45 45h14l49 -52v-14h-366v21h258zM85 50l1 345l70 -28h116
l33 34h15l50 -46v-16l-23 -17v-230l-5 -14l-49 -14l-10 8v33h-132v-31l-6 -17l-50 -15zM151 126h132v219h-132v-219z" />
  </g>

</svg>
