<?xml version="1.0" standalone="no"?>
<!DOCTYPE svg PUBLIC "-//W3C//DTD SVG 1.1//EN" "http://www.w3.org/Graphics/SVG/1.1/DTD/svg11.dtd" >
<svg xmlns="http://www.w3.org/2000/svg" xmlns:xlink="http://www.w3.org/1999/xlink" version="1.1" viewBox="0 -204 1024 1024">
  <g transform="matrix(1 0 0 -1 0 820)">
   <path fill="currentColor"
d="M108 958q25 -20 48 -43q22 -18 37 -37q16 -17 20 -32q5 -13 5 -24q0 -21 -5 -33q-1 -2 -1 -1h24l44 44q30 -22 60 -45q6 -4 6 -9q0 -18 -10 -18h-190q-69 -1 -96 -4l-18 44q43 -12 114 -12h28q-3 7 -4 17q-5 25 -17 50q-13 23 -25 45q-13 20 -38 46zM46 654
q44 -12 118 -12h50l42 40q30 -23 55 -43q7 -5 7 -11q0 -14 -12 -14h-142q-72 -1 -96 -4zM46 518q44 -14 118 -14h50l42 40q30 -20 55 -42q7 -4 7 -10q0 -14 -12 -14h-142q-72 -1 -96 -4zM62 386l62 -32h128l28 32q52 -32 52 -44t-30 -28v-182q10 -9 20 -16q6 -4 6 -8
q0 -14 -10 -14h-206v-22q0 -9 -14 -13q-13 -5 -22 -5q-14 0 -14 10v322zM112 120h140l4 4v200h-144v-204zM464 954q20 -19 39 -37q18 -15 31 -32q13 -13 17 -25q3 -13 3 -24q0 -18 -4 -31l-1 -1h35l44 44q30 -22 59 -46q7 -4 7 -10q0 -14 -12 -14h-222q-72 -1 -96 -4l-22 44
q44 -14 118 -14h53q-1 9 -2 15q-5 21 -14 43l-22 40q-9 17 -29 40zM384 734l58 -32h132l28 32q52 -32 52 -44t-26 -30v-87q8 -6 14 -13q4 -2 4 -6q0 -18 -6 -18h-210v-6q0 -9 -10 -15q-17 -7 -26 -7q-10 0 -10 14v212zM430 566h150v106h-150v-106zM346 446q39 -8 114 -8h114
l36 32q34 -27 57 -55q5 -5 5 -11q0 -4 -19 -8q-27 -2 -33 -2q-27 -22 -57 -37q-10 -7 -19 -12q12 -8 21 -12q9 -5 9 -13q0 -6 -13 -10q-15 -6 -31 -12v-28q12 2 20 5q56 16 132 45l4 -18q-61 -33 -112 -53q-21 -9 -44 -17v-124q0 -34 -14 -50q-10 -16 -33 -27
q-17 -11 -31 -11l-2 22q-4 9 -8 13q-8 11 -27 20q-24 12 -51 15v22q44 -14 78 -14q26 0 32 6q8 5 8 30v82q-4 -1 -7 -2q-44 -18 -91 -28q-11 -34 -16 -34q-9 0 -44 74q64 7 116 19q22 4 42 12v5q0 54 -8 106q31 -8 51 -16q11 9 18 17q12 18 27 39h-110q-80 0 -96 -4z
M764 946q48 -19 85 -35q5 -7 5 -13q0 -11 -18 -14q-24 -4 -32 -4q-17 -73 -36 -139q-3 -12 -7 -25h123l40 40q29 -20 57 -42q5 -4 5 -10q0 -14 -10 -14h-49q-8 -128 -21 -201q-11 -63 -34 -126q-21 -70 -53 -120q10 -16 21 -30q20 -39 59 -72q39 -38 91 -73l-4 -10
q-43 0 -54 -26q-45 36 -72 69q-26 37 -51 81q-7 12 -12 24q-28 -35 -63 -72q-52 -54 -128 -102l-8 22q71 50 111 100q39 41 68 96q-7 18 -11 33q-21 53 -31 109q-14 66 -15 144l22 8q7 -79 21 -143q10 -54 33 -106q1 -4 2 -5q16 35 29 73q18 63 28 128q12 79 18 199h-121
q-13 -36 -25 -65q-20 -51 -51 -103l-18 10q25 58 42 111q16 45 27 100q13 53 24 102q8 45 13 101z" />
  </g>

</svg>
