<?xml version="1.0" standalone="no"?>
<!DOCTYPE svg PUBLIC "-//W3C//DTD SVG 1.1//EN" "http://www.w3.org/Graphics/SVG/1.1/DTD/svg11.dtd" >
<svg xmlns="http://www.w3.org/2000/svg" xmlns:xlink="http://www.w3.org/1999/xlink" version="1.1" viewBox="0 -120 1000 1000">
  <g transform="matrix(1 0 0 -1 0 880)">
   <path fill="currentColor"
d="M51 723l-11 27h238l42 53l78 -63l-1 -17h-346zM86 474l-9 26h175l40 51l74 -59v-18h-280zM84 599l-10 26h180l38 50l71 -59v-17h-279zM87 848l-10 26l175 2l36 46l73 -54v-18zM92 63v351l69 -38h109l22 31l63 -41q8 -5 8 -12q0 -9 -11 -12l-17 -5v-223l-59 -10v50h-125
v-81zM151 181h125v170h-125v-170zM355 389q175 138 237 235h-208l-11 27h245v185q-142 -12 -206 -14l-4 20q241 37 420 93l59 -52q7 -6 7 -13q0 -9 -13 -10h-5l-29 10q-60 -12 -170 -27v-192h47q37 76 76 177l70 -30q14 -6 14 -14q0 -7 -15 -11l-22 -6l-98 -116h86l42 53
l76 -63v-17h-264q88 -113 264 -178l-3 -12q-21 -8 -30 -15q-9 -8 -21 -30q-79 43 -137 104q-60 62 -85 112v-190l-59 -10v149q-133 -114 -253 -179zM437 44v365l58 -31h297l23 33l67 -45q7 -5 7 -11t-10 -10l-20 -6v-272l-59 -12v39h-306v-40zM494 120h124v109h-124v-109z
M494 256h124v96h-124v-96zM674 120h126v109h-126v-109zM674 256h126v96h-126v-96zM449 810q47 -18 77 -47q28 -26 28 -54q0 -22 -15 -36q-9 -9 -19 -9q-12 0 -17 8q-4 5 -13 49q-8 44 -46 78z" />
  </g>

</svg>
