<?xml version="1.0" standalone="no"?>
<!DOCTYPE svg PUBLIC "-//W3C//DTD SVG 1.1//EN" "http://www.w3.org/Graphics/SVG/1.1/DTD/svg11.dtd" >
<svg xmlns="http://www.w3.org/2000/svg" xmlns:xlink="http://www.w3.org/1999/xlink" version="1.1" viewBox="0 -204 1024 1024">
  <g transform="matrix(1 0 0 -1 0 820)">
   <path fill="currentColor"
d="M108 954q25 -20 48 -39q22 -16 37 -34q16 -15 20 -28q5 -13 5 -23q0 -20 -5 -33q-2 -3 -4 -5h31l44 44q30 -22 59 -46q7 -3 7 -8q0 -18 -10 -18h-194q-69 -1 -96 -4l-18 44q43 -12 114 -12h30q-4 8 -6 21q-5 21 -17 45q-13 20 -25 41q-13 18 -38 43zM46 650
q44 -14 118 -14h50l42 40q30 -20 55 -42q7 -4 7 -10q0 -14 -12 -14h-142q-72 -1 -96 -4zM46 504q44 -12 118 -12h50l42 40q30 -20 55 -42q7 -3 7 -8q0 -18 -12 -18h-142q-72 -1 -96 -4zM62 368l62 -32h128l28 32q52 -31 52 -44q0 -9 -30 -26v-199q10 -7 21 -14q5 -5 5 -9
q0 -14 -10 -14h-206v-20q0 -11 -14 -16q-13 -6 -22 -6q-14 0 -14 12v336zM112 90h144v220h-144v-220zM620 960q47 -7 78 -20q10 -2 10 -12q0 -9 -20 -13q-8 -2 -15 -3q24 -42 55 -76q38 -40 83 -77q47 -34 93 -60q46 -24 86 -35v-14q-51 0 -66 -30q-45 23 -80 52
q-40 32 -71 69q-33 33 -62 73q-30 36 -62 93q-14 -36 -34 -64q-23 -32 -54 -65q-33 -35 -60 -61q-31 -25 -65 -49q-37 -26 -78 -48l-16 22q50 26 86 57q36 30 71 64q32 37 59 72q25 34 39 64q12 26 23 61zM492 698q43 -12 114 -12h88l44 44q32 -25 62 -46q8 -6 8 -12
q0 -14 -12 -14h-190q-69 -1 -94 -4zM402 592l62 -30h106l28 30q52 -30 52 -44q0 -10 -26 -26v-128q12 -9 21 -18q5 -4 5 -8q0 -14 -8 -14h-98q18 -5 29 -10q15 -3 15 -12q0 -7 -17 -12q-16 -4 -27 -6q-15 -53 -28 -84q28 -16 46 -33q24 -16 35 -27q13 -14 19 -22q6 -6 9 -13
q3 -6 3 -15q-1 -30 -26 -30q-4 0 -7 3q-4 4 -17 30q-16 26 -31 49q-16 18 -37 41q-15 -37 -37 -68q-22 -40 -47 -64q-26 -24 -62 -57l-14 22q31 28 49 54q19 21 34 51q17 28 33 65q12 33 23 75q10 34 14 63h-51v-18q0 -9 -14 -14q-13 -4 -22 -4q-14 0 -14 10v264zM452 380
h122v152h-122v-152zM694 592l62 -30h102l30 30q50 -30 50 -44q0 -10 -28 -26v-127q15 -10 24 -19q4 -4 4 -8q0 -14 -6 -14h-110q21 -5 31 -10q13 -3 13 -12q0 -7 -13 -12q-17 -4 -31 -6q-12 -49 -26 -82q40 -26 68 -50q36 -30 58 -49q18 -20 28 -32q7 -13 13 -26
q5 -11 5 -21q-1 -30 -22 -30q-8 0 -12 5q-7 7 -32 48q-22 42 -51 74q-26 31 -65 65q-17 -39 -41 -71q-25 -40 -53 -64q-26 -24 -68 -57l-14 22q34 28 57 54q18 21 38 51q18 28 34 65q18 33 29 75q9 34 13 63h-39v-18q0 -9 -12 -14q-13 -4 -22 -4q-14 0 -14 10v264zM742 380
h120v152h-120v-152z" />
  </g>

</svg>
