<?xml version="1.0" standalone="no"?>
<!DOCTYPE svg PUBLIC "-//W3C//DTD SVG 1.1//EN" "http://www.w3.org/Graphics/SVG/1.1/DTD/svg11.dtd" >
<svg xmlns="http://www.w3.org/2000/svg" xmlns:xlink="http://www.w3.org/1999/xlink" version="1.1" viewBox="0 -204 1024 1024">
  <g transform="matrix(1 0 0 -1 0 820)">
   <path fill="currentColor"
d="M116 950q27 -22 51 -43q23 -21 40 -38q16 -20 21 -34q8 -12 8 -25q0 -21 -8 -31l-1 -1h57l40 40q29 -23 57 -43q5 -4 5 -11q0 -16 -10 -16h-224q-71 -1 -98 -4l-18 44q43 -10 116 -10h36q-3 7 -5 16q-6 27 -17 50q-12 25 -28 45q-13 23 -40 49zM50 642q44 -14 118 -14h76
l40 40q29 -20 57 -42q5 -4 5 -10q0 -14 -10 -14h-168q-72 -1 -96 -4zM50 504q44 -12 118 -12h76l40 40q29 -20 57 -42q5 -3 5 -8q0 -18 -10 -18h-168q-72 -1 -96 -4zM68 372l60 -30h142l28 30q52 -30 52 -44q0 -10 -26 -26v-152q11 -7 17 -13q5 -3 5 -7q0 -18 -6 -18h-224
v-36q0 -9 -14 -14q-15 -4 -22 -4q-12 0 -12 10v304zM116 142h154l4 4v168h-158v-172zM380 898q43 -14 116 -14h144q0 55 -4 80q44 -6 73 -15q11 -4 11 -11t-8 -10q-12 -7 -26 -12v-32h180l44 44q32 -22 62 -46q8 -4 8 -10q0 -14 -12 -14h-282v-70h150l40 42q27 -23 53 -43
q7 -4 7 -9q0 -18 -12 -18h-388q-71 -1 -98 -4l-18 44q43 -12 116 -12h104v70h-144q-71 -1 -98 -4zM398 738l62 -34h436l28 34q52 -33 52 -44t-30 -30v-142q0 -20 -32 -26q-16 0 -16 8v26h-452v-16q0 -11 -12 -16q-13 -6 -22 -6q-14 0 -14 12v234zM446 558h452v118h-146v-40
q2 -16 40 -16q13 0 60 4q21 0 24 -18q-4 -14 -21 -18q-18 -4 -63 -4q-47 0 -64 10q-16 11 -20 30v52h-64q-4 -15 -6 -22q-6 -11 -16 -22q-13 -13 -27 -20q-15 -9 -40 -19q-25 -9 -59 -17l-10 22q27 7 43 14q17 5 27 13q11 7 21 17q7 8 11 17q3 8 5 17h-147v-118zM452 500
l60 -30h324l26 30q52 -30 52 -44q0 -10 -26 -26v-252q0 -20 -34 -26q-14 0 -14 8v18h-254q35 -12 54 -22q6 -3 6 -10q0 -16 -50 -16q-38 -26 -82 -49q-38 -19 -82 -33q-46 -18 -82 -24l-14 22q50 13 92 34q42 19 81 47q33 22 57 51h-66v-14q0 -9 -14 -14q-15 -4 -22 -4
q-12 0 -12 10v344zM500 204h340v62h-340v-62zM500 292h340v62h-340v-62zM500 380h340v62h-340v-62zM748 146q50 -9 101 -25q49 -15 76 -24q24 -11 33 -20q12 -8 18 -15q4 -5 4 -12q0 -22 -16 -22q-7 0 -16 5q-9 4 -20 14q-23 13 -39 21q-25 11 -56 25q-35 14 -99 37z" />
  </g>

</svg>
