<?xml version="1.0" standalone="no"?>
<!DOCTYPE svg PUBLIC "-//W3C//DTD SVG 1.1//EN" "http://www.w3.org/Graphics/SVG/1.1/DTD/svg11.dtd" >
<svg xmlns="http://www.w3.org/2000/svg" xmlns:xlink="http://www.w3.org/1999/xlink" version="1.1" viewBox="0 -204 1024 1024">
  <g transform="matrix(1 0 0 -1 0 820)">
   <path fill="currentColor"
d="M175 940q48 -16 82 -32q6 -6 6 -12q0 -10 -18 -13q-20 -4 -29 -4q-20 -47 -46 -90q-25 -42 -52 -74q-28 -33 -69 -67l-17 11q34 40 58 75q19 31 38 68q17 37 30 70q11 30 17 68zM296 932q34 -26 60 -53q26 -25 40 -43q15 -17 22 -29q6 -11 9 -22q3 -9 3 -19
q-1 -30 -22 -30q-5 0 -10 4q-4 6 -21 43t-37 66q-20 31 -56 69zM225 768q50 -10 85 -24q8 -3 8 -11t-18 -12q-11 -3 -21 -4q34 -30 61 -61q39 -39 60 -68q22 -26 33 -45q8 -18 12 -35q5 -14 5 -30q-1 -30 -22 -30q-8 0 -15 7q-7 8 -32 65q-25 56 -56 101q-26 39 -66 84
q-11 -33 -22 -59q-18 -36 -39 -71q-24 -37 -45 -63q-21 -29 -46 -54q-26 -28 -56 -50l-19 22q35 29 60 60q24 32 49 69q24 40 42 77q16 35 26 66q10 29 16 66zM94 440l63 -30h155l35 33q51 -36 51 -50q0 -10 -30 -25v-226q15 -11 27 -21q5 -3 5 -7q0 -14 -10 -14h-246v-3
q0 -10 -12 -16q-15 -6 -25 -6q-13 0 -13 14q0 4 1 14q1 23 1 42v227q0 49 -2 68zM144 128h176v254h-176v-254zM416 934q40 -8 115 -8h77l28 34q34 -21 50 -40q7 -6 7 -12q0 -9 -36 -30v-198q0 -32 -14 -47q-12 -14 -34 -23q-19 -10 -33 -10q-2 20 -7 32q-7 13 -15 18
q-13 10 -30 12v24q34 -13 61 -13q18 0 23 4q6 6 6 24v193l-1 4h-82q-80 0 -97 -7zM447 864q34 -2 56 -9q25 -5 37 -13q13 -8 16 -17q4 -6 4 -13q0 -24 -20 -24q-2 0 -9 3q-23 18 -48 31q-24 13 -43 17zM588 784l4 -20q-25 -29 -44 -45l-39 -33q-17 -14 -36 -24
q-10 -33 -16 -33q-7 0 -45 77q32 7 58 17q24 8 53 23q28 14 65 38zM704 934q40 -8 115 -8h57l28 34q34 -21 50 -40q7 -6 7 -12q0 -9 -36 -30v-206q0 -32 -13 -47q-12 -14 -32 -23q-19 -10 -32 -10q-2 20 -8 32q-7 13 -15 18q-15 10 -33 12v24q36 -13 65 -13q15 0 20 4
q5 6 5 24v201l-1 4h-62q-80 0 -97 -7zM707 864q35 -3 59 -10q26 -7 39 -16q13 -10 17 -20q4 -7 4 -16q0 -22 -18 -22q-2 0 -9 4q-25 21 -52 37q-27 15 -47 20zM853 768l3 -18q-25 -21 -44 -33q-21 -14 -39 -24q-18 -11 -37 -18q-9 -31 -15 -31q-7 0 -41 70q32 5 57 12
q23 5 52 16q27 10 64 26zM657 624q50 -10 85 -24q8 -3 8 -11t-18 -12q-14 -3 -25 -4q23 -31 50 -54q33 -29 75 -56q42 -26 84 -44q40 -17 76 -24l-3 -17q-49 0 -65 -30q-39 16 -71 39q-35 24 -61 51q-29 25 -57 56q-24 26 -49 64q-12 -20 -25 -37q-23 -26 -51 -52
q-31 -26 -58 -46q-28 -21 -60 -38q-34 -21 -73 -37l-19 22q46 22 80 45q33 24 64 52q33 30 57 58q22 26 35 50q13 21 21 49zM683 464q46 -14 71 -27q8 -3 8 -12q0 -16 -54 -16q-33 -32 -72 -61q-34 -26 -73 -44q-41 -21 -74 -28l-17 22q46 16 84 43q38 22 71 56q31 31 56 67
zM771 372q46 -14 71 -27q8 -3 8 -12q0 -16 -54 -16q-48 -40 -106 -76q-50 -31 -108 -54q-61 -26 -109 -35l-17 22q69 19 125 51q57 27 106 67q47 37 84 80zM867 268q46 -14 71 -27q8 -3 8 -12q0 -16 -54 -16q-65 -47 -143 -89q-67 -37 -146 -63q-81 -31 -146 -41l-17 22
q94 21 170 58q77 31 143 76q64 43 114 92z" />
  </g>

</svg>
