<?xml version="1.0" standalone="no"?>
<!DOCTYPE svg PUBLIC "-//W3C//DTD SVG 1.1//EN" "http://www.w3.org/Graphics/SVG/1.1/DTD/svg11.dtd" >
<svg xmlns="http://www.w3.org/2000/svg" xmlns:xlink="http://www.w3.org/1999/xlink" version="1.1" viewBox="0 -140 1000 1000">
  <g transform="matrix(1 0 0 -1 0 860)">
   <path fill="currentColor"
d="M220 825v22h77v64l82 -14v-12l-22 -12v-26h77v-22h-77v-55h67v-22h-67v-56h86v-22h-86v-46l-6 -12l-45 -11l-9 4v65h-82v22h82v56h-71v22h71v55h-77zM566 770h71v55h-79v22h79v72l79 -13v-13l-19 -15v-31h75v-22h-75v-55h66v-22h-66v-56h82v-22h-82v-41l-7 -13l-43 -10
l-10 6v58h-81v22h81v56h-71v22zM189 854v-259h278v334l89 -17v-14l-25 -13v-290h268v317l94 -21v-12l-30 -19v-304l-7 -12l-47 -12l-10 3v38h-610v-19l-8 -13l-48 -15l-8 9v368l90 -18v-12zM232 207v207l68 -23h409l26 27h16l56 -42v-14l-28 -19v-112l-8 -8l-47 -13l-9 5v23
h-418q0 -13 -6 -23l-51 -14zM297 260h418v109h-418v-109zM72 463v22h767l43 50h15l51 -57v-15h-876zM54 67v22h327q-2 6 -10 38q-13 52 -40 88l7 10q96 -43 96 -93q0 -20 -21 -43h169l51 145l79 -41l-4 -16h-26l-76 -88h231l42 49h12l57 -57v-14h-894z" />
  </g>

</svg>
