<?xml version="1.0" standalone="no"?>
<!DOCTYPE svg PUBLIC "-//W3C//DTD SVG 1.1//EN" "http://www.w3.org/Graphics/SVG/1.1/DTD/svg11.dtd" >
<svg xmlns="http://www.w3.org/2000/svg" xmlns:xlink="http://www.w3.org/1999/xlink" version="1.1" viewBox="0 -120 1000 1000">
  <g transform="matrix(1 0 0 -1 0 880)">
   <path fill="currentColor"
d="M46 416q164 82 268 205h-226l-14 26h261q29 38 64 101h-123l-20 25h157q35 70 66 179l78 -25q11 -4 11 -13t-15 -11l-22 -2q-23 -61 -55 -128h194l41 48l70 -52v-21h-204q31 -50 83 -101h168l41 44l71 -53v-17h-249q110 -89 268 -143v-19q-28 -6 -39 -12q-12 -7 -26 -31
q-86 52 -145 100q-52 44 -105 105h-267q-65 -78 -163 -142q-73 -46 -159 -79zM463 748q-32 -55 -65 -101h224q-42 56 -65 101h-94zM90 692q78 61 127 122q37 45 77 114l58 -33q15 -9 15 -17t-17 -11l-19 -2q-124 -133 -228 -187zM112 153q260 55 429 184l-21 42
q-74 -49 -214 -100q-84 -30 -177 -44l-4 19q202 43 363 165q-15 19 -28 30q-105 -51 -178 -72q-80 -22 -153 -32l-4 17q115 27 205 71q78 38 128 75h-129l-14 27h286l43 46l77 -56v-17h-180l9 -10q4 -5 4 -10t-13 -5h-21q-20 -12 -40 -23q57 -46 80 -75q17 -21 35 -56
q68 57 135 129l57 -40q9 -6 9 -11q0 -10 -15 -10h-23l-141 -76q110 -24 172 -50t94 -57q21 -20 21 -40q0 -14 -9 -23q-8 -7 -16 -7q-14 0 -28 10t-38 32q-68 58 -125 84q-56 28 -81 32q14 -60 14 -91q0 -76 -46 -118q-37 -35 -86 -35q-12 0 -12 15q0 17 -6 24q-3 4 -19 8
l-73 17v17h148q21 20 27 45q7 26 7 53q0 19 -5 45q-177 -110 -439 -151zM679 911q69 -24 101 -42q56 -30 97 -73q27 -27 27 -53q0 -29 -23 -29q-11 0 -24 11q-5 5 -53 61q-56 66 -132 111z" />
  </g>

</svg>
