<?xml version="1.0" standalone="no"?>
<!DOCTYPE svg PUBLIC "-//W3C//DTD SVG 1.1//EN" "http://www.w3.org/Graphics/SVG/1.1/DTD/svg11.dtd" >
<svg xmlns="http://www.w3.org/2000/svg" xmlns:xlink="http://www.w3.org/1999/xlink" version="1.1" viewBox="0 -204 1024 1024">
  <g transform="matrix(1 0 0 -1 0 820)">
   <path fill="currentColor"
d="M452 968q19 -8 36 -15q20 -8 29 -15q13 -9 18 -15q5 -5 5 -9q0 -19 -6 -33q-4 -3 -6 -5h320l48 56q38 -27 71 -56q9 -4 9 -10q0 -18 -18 -18h-790q-72 -1 -96 -4l-22 44q44 -12 118 -12h330q-2 4 -3 8q-6 14 -14 27q-9 10 -18 21q-10 13 -29 26zM256 822l58 -34h384
l28 34q52 -33 52 -44t-26 -30v-65q8 -8 15 -13q3 -2 3 -6q0 -14 -6 -14h-462v-18q0 -9 -10 -14q-17 -4 -26 -4q-10 0 -10 10v198zM302 676h400v84h-400v-84zM124 632h10v-44h754l26 32q34 -21 63 -48q3 -3 3 -6q0 -8 -19 -12q-17 -6 -29 -10q-13 -16 -33 -38
q-16 -19 -37 -36l-14 12q14 20 23 42q12 18 17 38h-755q-1 -18 -3 -31q-3 -28 -11 -45q-6 -16 -18 -28q-8 -11 -16 -13q-7 -3 -13 -3q-26 0 -26 14q0 8 11 21q28 28 38 50q13 17 20 44q7 22 9 61zM208 514q43 -14 116 -14h316l42 48q38 -23 69 -49q9 -5 9 -11q0 -14 -12 -14
h-206q-41 -29 -83 -51q-7 -4 -15 -6q44 -37 69 -69q13 -19 24 -34q12 -10 23 -20q47 19 82 33q40 19 76 38q34 21 58 40q29 21 42 41q78 -47 78 -60q0 -14 -20 -14q-13 0 -32 4q-43 -20 -95 -41q-48 -17 -97 -30q-38 -14 -72 -24q17 -11 33 -20q50 -29 112 -57
q62 -24 127 -44q60 -15 116 -22v-18q-56 0 -72 -30q-63 15 -114 39q-57 23 -97 52q-46 23 -89 54q-17 12 -37 28q15 -42 15 -85q0 -45 -11 -76q-9 -32 -22 -49q-16 -18 -40 -27q-24 -8 -45 -8q0 25 -7 32q-6 8 -17 12q-20 13 -64 24l4 18q86 -24 110 -24q11 0 19 7
q7 5 11 15q6 8 11 32q3 21 3 44q0 27 -4 52q-59 -38 -124 -67q-65 -28 -150 -51q-92 -24 -186 -40l-8 22q116 23 190 49q71 23 131 54q53 29 135 84q-10 27 -26 48q-55 -31 -109 -54q-59 -25 -130 -43q-79 -19 -159 -32l-6 22q97 19 160 41q61 19 110 46q44 20 107 63
q-16 19 -32 35q-39 -16 -82 -33q-56 -17 -107 -29q-62 -18 -134 -27l-8 18q77 17 126 31q52 16 94 35q58 19 93 42q23 12 47 30h-130q-71 -1 -98 -4z" />
  </g>

</svg>
