<?xml version="1.0" standalone="no"?>
<!DOCTYPE svg PUBLIC "-//W3C//DTD SVG 1.1//EN" "http://www.w3.org/Graphics/SVG/1.1/DTD/svg11.dtd" >
<svg xmlns="http://www.w3.org/2000/svg" xmlns:xlink="http://www.w3.org/1999/xlink" version="1.1" viewBox="0 -410 2048 2048">
  <g transform="matrix(1 0 0 -1 0 1638)">
   <path fill="currentColor"
d="M1259 1412h339l68 76l84 -54q40 -26 40 -48q0 -28 -78 -62v-590q0 -103 11 -219q4 -32 4 -49q0 -46 -55 -46q-56 0 -56 42v33h-874l95 -60q38 -24 38 -39q0 -23 -41 -23q-12 0 -21 1l-37 4q-171 -120 -315 -190q-137 -66 -328 -123l-13 36q432 176 600 394h-213v-21
q0 -54 -59 -54q-53 0 -53 47q0 14 4 48q12 93 12 209v612q-2 64 -6 115h-4q-91 -53 -303 -146l-14 39q256 131 420 265q163 133 280 347l121 -43q56 -19 56 -39q0 -24 -59 -31l-46 -5q-35 -46 -68 -85h594l83 71l87 -71q42 -34 42 -58q0 -29 -115 -38q-98 -124 -220 -245z
M1199 1412q82 114 178 282h-640q-125 -118 -299 -222l81 -60h680zM507 555h1109v245h-1109v-245zM507 856h1109v228h-1109v-228zM507 1141h1109v210h-1109v-210zM1271 436q631 -140 631 -294q0 -58 -52 -58q-36 0 -107 65q-91 85 -274 171q-115 55 -211 80z" />
  </g>

</svg>
