<?xml version="1.0" standalone="no"?>
<!DOCTYPE svg PUBLIC "-//W3C//DTD SVG 1.1//EN" "http://www.w3.org/Graphics/SVG/1.1/DTD/svg11.dtd" >
<svg xmlns="http://www.w3.org/2000/svg" xmlns:xlink="http://www.w3.org/1999/xlink" version="1.1" viewBox="0 -120 1000 1000">
  <g transform="matrix(1 0 0 -1 0 880)">
   <path fill="currentColor"
d="M36 67q72 101 107 220l72 -23q11 -4 11 -12q0 -9 -15 -12l-13 -3q-41 -60 -64 -90q-28 -35 -85 -90zM93 287v643l63 -38h138l20 36l62 -42q12 -8 12 -17t-13 -12l-15 -3v-547l-59 -12v33h-147v-31zM154 512v-159h147v159h-147zM154 686v-148h147v148h-147zM154 866v-153
h147v153h-147zM240 302q65 -16 103 -47q32 -27 32 -61q0 -23 -14 -37q-9 -8 -18 -8q-12 0 -25 33q-22 56 -86 108zM339 69q38 55 52 89q45 110 45 340v446l63 -39h346l23 38l69 -45q11 -7 11 -16q0 -7 -15 -12l-22 -7v-739q0 -30 -31 -46q-31 -15 -54 -15q-7 0 -10 2t-4 15
q0 26 -19 31l-52 12v14h108v740h-353l3 -345q2 -177 -34 -295q-30 -95 -113 -178zM521 566l-10 27h121v106h-96l-9 27h105v126l71 -6q15 -1 15 -12q0 -9 -13 -14l-15 -7v-87h39l29 42l64 -52l-1 -17h-131v-106h45l34 44l60 -55v-16h-139v-78l-58 -10v88h-111zM549 168v292
l62 -35l101 -1l24 41l57 -39q8 -5 8 -13q0 -6 -11 -11l-14 -6l1 -189l-57 -9v41l-113 -1v-60zM607 401v-139h113v139h-113z" />
  </g>

</svg>
