<?xml version="1.0" standalone="no"?>
<!DOCTYPE svg PUBLIC "-//W3C//DTD SVG 1.1//EN" "http://www.w3.org/Graphics/SVG/1.1/DTD/svg11.dtd" >
<svg xmlns="http://www.w3.org/2000/svg" xmlns:xlink="http://www.w3.org/1999/xlink" version="1.1" viewBox="0 -204 1024 1024">
  <g transform="matrix(1 0 0 -1 0 820)">
   <path fill="currentColor"
d="M48 818q44 -12 117 -12h71v74q0 53 -6 80q46 -9 75 -18q11 -4 11 -11q0 -5 -7 -9q-11 -6 -25 -10v-106h64l38 41q31 -24 59 -45q7 -5 7 -10q0 -14 -13 -14h-155v-168h68l41 45q34 -25 64 -49q7 -4 7 -10q0 -14 -14 -14h-154v-192h56l38 41q31 -24 59 -45q7 -5 7 -10
q0 -14 -13 -14h-147v-200q36 -22 77 -36q51 -14 122 -21q71 -10 181 -10q79 0 156 7q82 6 152 18l4 -21q-48 -9 -57 -48q-102 -7 -197 -7q-170 0 -248 13q-89 12 -136 30q-44 17 -92 53q-44 34 -82 91q-19 25 -35 55q-2 -14 -5 -26q-15 -71 -34 -122q-21 -59 -52 -110
l-22 17q20 44 34 96q15 50 24 98q9 54 15 110q6 52 6 103q0 27 -4 44q46 -8 85 -25q10 -4 10 -11t-13 -12q-11 -5 -23 -7q-5 -57 -12 -103q28 -59 59 -102q18 -22 39 -40v386h-95q-71 -2 -97 -7l-20 47q44 -12 117 -12h83v168h-71q-71 -2 -97 -7zM574 952l63 -30h171l35 33
q51 -36 51 -50q0 -10 -30 -25v-89l12 -9q4 -3 4 -6q0 -14 -8 -14h-248v-8q0 -10 -12 -16q-15 -6 -25 -6q-13 0 -13 14q0 4 1 14q1 23 1 42v82q0 49 -2 68zM624 790h192v104h-192v-104zM490 728l63 -30h83l35 33q51 -36 51 -50q0 -10 -30 -25v-97l12 -9q4 -3 4 -6
q0 -14 -8 -14h-160q0 -10 -12 -16q-15 -6 -25 -6q-13 0 -13 14q0 4 1 14q1 23 1 42v82q0 49 -2 68zM540 558h104v112h-104v-112zM746 728l63 -30h91l35 33q51 -36 51 -50q0 -10 -30 -25v-97l12 -9q4 -3 4 -6q0 -14 -8 -14h-168q0 -10 -12 -16q-15 -6 -25 -6q-13 0 -13 14
q0 4 1 14q1 23 1 42v82q0 49 -2 68zM796 558h112v112h-112v-112zM464 438q44 -12 117 -12h115q-1 43 -6 66q48 -8 80 -17q11 -4 11 -11q0 -6 -9 -9q-12 -7 -28 -11v-18h136l41 45q34 -25 64 -49q7 -4 7 -10q0 -14 -14 -14h-234v-42q59 -21 103 -44q52 -26 79 -46
q30 -20 42 -32q12 -10 16 -20t4 -17q0 -25 -20 -25q-8 0 -16 4q-10 3 -30 23q-25 28 -57 51q-30 25 -68 49q-25 16 -53 30v-104q0 -23 1 -30q1 -17 1 -29q0 -34 -31 -34q-26 0 -26 18q0 13 4 33q3 22 3 38v146l-24 -30q-28 -32 -63 -59q-30 -26 -69 -51q-39 -24 -95 -51
l-13 18q52 29 88 55q36 25 65 55q27 25 46 54q16 22 26 40h-76q-71 -2 -97 -7z" />
  </g>

</svg>
