<?xml version="1.0" standalone="no"?>
<!DOCTYPE svg PUBLIC "-//W3C//DTD SVG 1.1//EN" "http://www.w3.org/Graphics/SVG/1.1/DTD/svg11.dtd" >
<svg xmlns="http://www.w3.org/2000/svg" xmlns:xlink="http://www.w3.org/1999/xlink" version="1.1" viewBox="0 -140 1000 1000">
  <g transform="matrix(1 0 0 -1 0 860)">
   <path fill="currentColor"
d="M692 733h135l40 47h15l55 -50v-19h-245l33 -8v-15l-33 -13v-247h123l39 49h13l56 -53v-16h-231v-317h135l48 53h14l61 -57v-19h-608v23h287v317h-204v20h204v283h-231v22h231v181l99 -21v-12l-36 -15v-133zM407 217l3 -15l-290 -117l-17 -38l-50 86q14 5 20 8t10.5 11.5
t4.5 23.5v331l99 -27v-16l-38 -17v-294l55 14v451h-50v-43l-9 -12l-42 -15l-10 7v362l69 -31h147l33 31h13l55 -55v-15l-33 -18v-225l-6 -13l-47 -16l-9 8v35h-47v-188h41l37 47h14l50 -52v-17h-142v-226zM154 640h161v222h-161v-222z" />
  </g>

</svg>
