<?xml version="1.0" standalone="no"?>
<!DOCTYPE svg PUBLIC "-//W3C//DTD SVG 1.1//EN" "http://www.w3.org/Graphics/SVG/1.1/DTD/svg11.dtd" >
<svg xmlns="http://www.w3.org/2000/svg" xmlns:xlink="http://www.w3.org/1999/xlink" version="1.1" viewBox="0 -204 1024 1024">
  <g transform="matrix(1 0 0 -1 0 820)">
   <path fill="currentColor"
d="M84 932l58 -30h172l32 44q38 -24 53 -43q9 -7 9 -15q0 -9 -40 -30v-201q14 -10 25 -21q5 -4 5 -8q0 -14 -8 -14h-124v-176h48l40 44q32 -25 62 -46q8 -5 8 -10q0 -18 -12 -18h-146v-233q5 2 8 3q64 18 146 52l4 -22q-70 -35 -122 -58q-55 -23 -107 -42q-48 -17 -101 -32
q-9 -34 -14 -34q-8 0 -48 78q26 4 52 10v318q0 54 -4 82q55 -7 93 -23q13 -6 13 -15q0 -7 -13 -11q-17 -9 -43 -11v-331q14 4 29 7q27 4 59 13v455h-88v-16q0 -11 -10 -16q-17 -6 -26 -6q-10 0 -10 12v344zM130 642h194v230h-194v-230zM668 958q47 -9 80 -23q8 -3 8 -11
q0 -9 -20 -13q-13 -3 -23 -4q22 -46 50 -83q31 -42 71 -82q39 -39 79 -66q39 -23 73 -34v-18q-49 0 -66 -26q-37 21 -67 54q-35 33 -57 69q-28 35 -55 78q-21 37 -48 93q-13 -33 -28 -62q-25 -38 -55 -75q-31 -40 -59 -67q-31 -31 -64 -58q-35 -29 -75 -54l-18 22
q49 29 85 63q34 35 70 75q34 42 58 81q24 37 37 69q14 31 24 72zM540 658q43 -12 114 -12h70l44 44q32 -25 59 -46q9 -5 9 -12q0 -16 -14 -16h-168q-69 0 -96 -2zM438 554l62 -46h376l30 46q36 -23 52 -43q10 -9 10 -15q0 -8 -40 -32v-356q0 -34 -14 -50q-11 -16 -29 -27
t-31 -11q0 25 -3 35q-5 11 -17 20q-15 12 -30 15v22q33 -14 58 -14q14 0 17 5q5 4 5 27v180h-114v-216q0 -19 -36 -22q-10 0 -10 18v220h-88v-224q0 -19 -38 -22q-10 0 -10 16v230h-96v-278q0 -12 -22 -12q-7 0 -20 6q-12 8 -12 24t3 46q5 22 5 96v294q0 39 -8 68zM492 336
h96v146h-96v-146zM636 482v-146h88v146h-88zM770 482v-146h114v146h-114z" />
  </g>

</svg>
