<?xml version="1.0" standalone="no"?>
<!DOCTYPE svg PUBLIC "-//W3C//DTD SVG 1.1//EN" "http://www.w3.org/Graphics/SVG/1.1/DTD/svg11.dtd" >
<svg xmlns="http://www.w3.org/2000/svg" xmlns:xlink="http://www.w3.org/1999/xlink" version="1.1" viewBox="0 -204 1024 1024">
  <g transform="matrix(1 0 0 -1 0 820)">
   <path fill="currentColor"
d="M74 932l63 -30h155l35 33q51 -36 51 -50q0 -10 -30 -25v-195l23 -18q5 -3 5 -7q0 -14 -10 -14h-122v-184h44l41 45q34 -25 64 -49q7 -4 7 -10q0 -14 -14 -14h-142v-232q7 3 13 5q57 21 131 57l4 -22q-60 -40 -106 -64q-50 -26 -95 -46q-42 -20 -88 -34q-11 -37 -18 -37
q-8 0 -49 84q15 2 28 5v306q0 53 -6 80q46 -9 75 -18q11 -4 11 -11q0 -5 -7 -9q-11 -6 -25 -10v-328q22 5 40 11q22 5 44 13v462h-72v-28q0 -10 -12 -16q-15 -6 -25 -6q-13 0 -13 14q0 4 1 14q1 23 1 42v218q0 49 -2 68zM124 654h176v220h-176v-220zM864 896
q-57 -13 -117 -22q-74 -11 -151 -18q-64 -5 -161 -8l-7 23q52 3 110 9q55 6 106 16q55 10 94 21q39 9 64 20q21 9 39 19q39 -23 69 -47q5 -4 5 -8q0 -12 -15 -12q-14 0 -36 7zM444 820q24 -16 43 -33q21 -15 34 -30q13 -14 18 -26q5 -10 5 -20q0 -18 -5 -27q-8 -12 -19 -12
q-7 0 -11 4q-5 4 -8 20q-6 19 -16 39q-11 19 -23 36q-13 17 -34 37zM629 840q19 -13 35 -26q17 -12 27 -24q11 -11 15 -20q4 -8 4 -16q0 -19 -5 -30q-9 -12 -21 -12q-5 0 -8 4q-4 2 -7 16q-4 17 -13 33q-8 16 -18 30q-9 15 -26 32zM867 868q41 -18 68 -35q5 -3 5 -9
q0 -7 -9 -10q-15 -5 -28 -6l-24 -36q-13 -19 -29 -34q-14 -16 -34 -32q-18 -15 -39 -30l-13 13q23 25 39 48q17 22 30 46q14 25 23 46q8 21 11 39zM654 657q-30 -23 -67 -43q-34 -19 -69 -34q-14 -7 -28 -12q60 0 118 3q61 3 112 7q7 5 12 10q37 30 57 60q81 -49 81 -62
q0 -11 -19 -11q-12 0 -33 5q-57 -41 -127 -76q-63 -33 -128 -59q-36 -16 -73 -29q44 2 81 5q61 4 135 12q60 6 136 15q-20 19 -50 38l14 18q54 -21 85 -43q27 -17 41 -34q9 -12 9 -24q0 -35 -25 -35q-8 0 -15 4q-6 3 -13 17q-12 23 -25 38q-73 -16 -128 -25
q-66 -12 -127 -21q-55 -9 -117 -15q-11 -37 -18 -37q-8 0 -46 79l-3 3h1l-1 2h5q72 31 123 56q55 27 101 59q14 9 25 17q-20 -5 -39 -8q-62 -13 -132 -23q-14 -33 -21 -33q-3 0 -7 7q-21 36 -39 78v1h2q37 21 64 37q28 17 51 38q23 19 41 39q18 19 29 39q75 -45 75 -57
q0 -10 -18 -10q-11 0 -30 4zM372 290q44 -12 117 -12h124q5 23 5 41q0 30 -3 47q48 -7 85 -20q10 -5 10 -12q0 -6 -13 -9q-15 -5 -28 -7q-2 -23 -6 -40h201l44 49q36 -27 68 -52q8 -5 8 -11q0 -14 -15 -14h-312q-2 -9 -5 -16q-14 -36 -39 -66q-23 -32 -59 -56
q-40 -32 -88 -50q-50 -23 -106 -34l-8 21q71 22 108 42q37 17 70 45q28 23 49 54q16 25 26 60h-116q-71 -2 -97 -7zM704 212q62 -24 109 -49q49 -23 75 -40q28 -16 41 -27q10 -10 15 -20q6 -8 6 -18q-1 -30 -22 -30q-10 0 -19 4q-8 5 -40 40q-32 34 -70 62q-39 28 -107 64z
" />
  </g>

</svg>
