<?xml version="1.0" standalone="no"?>
<!DOCTYPE svg PUBLIC "-//W3C//DTD SVG 1.1//EN" "http://www.w3.org/Graphics/SVG/1.1/DTD/svg11.dtd" >
<svg xmlns="http://www.w3.org/2000/svg" xmlns:xlink="http://www.w3.org/1999/xlink" version="1.1" viewBox="0 -204 1024 1024">
  <g transform="matrix(1 0 0 -1 0 820)">
   <path fill="currentColor"
d="M258 968q92 -18 92 -36q0 -12 -52 -16q-27 -36 -66 -68h162l32 44q38 -20 53 -42q7 -8 7 -14q0 -8 -40 -32v-296q20 33 32 68q43 -13 67 -32q9 -7 9 -14q0 -12 -42 -12q-36 -57 -66 -99v-307q0 -34 -15 -50q-12 -16 -37 -27q-19 -11 -36 -11q0 25 -11 35q-10 11 -40 20
q-32 12 -71 15v22q71 -14 132 -14q20 0 26 4q8 5 8 28v228q-30 -37 -61 -67q-45 -43 -88 -73q-44 -36 -95 -63q-57 -27 -118 -51l-12 16q72 29 118 62q51 32 100 78q50 39 98 97q22 26 38 46q-41 -14 -75 -23q-54 -20 -105 -31q-47 -15 -100 -25q-10 -36 -16 -36t-46 80
q48 5 90 13v441q0 39 -6 66l58 -44h26q23 28 36 56q10 25 14 64zM174 391q49 7 107 19q54 11 121 31v103h-228v-153zM174 574h228v108h-228v-108zM174 708h228v114h-228v-114zM558 928q39 -8 114 -8h198l32 44q36 -20 53 -42q9 -7 9 -12q0 -10 -40 -34v-165q14 -9 25 -19
q5 -2 5 -6q0 -18 -8 -18h-306q-18 -117 -36 -198h288l36 30q33 -17 52 -36q6 -8 6 -12q0 -11 -40 -26q-7 -113 -21 -192q-18 -81 -33 -119q-16 -34 -37 -50q-20 -17 -45 -31q-23 -10 -36 -10q0 20 -9 30q-13 11 -137 44l4 18q113 -26 150 -26q19 0 31 5q11 3 21 15
q12 14 24 50q14 36 24 106q12 64 16 176h-307q-10 -4 -21 -4q-22 0 -22 10q0 5 3 16q17 66 32 135q13 67 19 135l52 -36h226v194h-208q-80 0 -98 -4z" />
  </g>

</svg>
