<?xml version="1.0" standalone="no"?>
<!DOCTYPE svg PUBLIC "-//W3C//DTD SVG 1.1//EN" "http://www.w3.org/Graphics/SVG/1.1/DTD/svg11.dtd" >
<svg xmlns="http://www.w3.org/2000/svg" xmlns:xlink="http://www.w3.org/1999/xlink" version="1.1" viewBox="0 -120 1000 1000">
  <g transform="matrix(1 0 0 -1 0 880)">
   <path fill="currentColor"
d="M49 160q67 51 136 122q82 86 134 156v13l-207 -73l-3 -15q-3 -11 -11 -11q-7 0 -13 10l-40 71l77 13v438l74 -44q17 60 29 129l66 -23q23 -8 23 -17t-15 -12l-20 -5l-52 -72h79l24 35l57 -31q27 -15 27 -22q0 -9 -20 -17l-14 -5v-276q22 31 51 83l52 -41q16 -13 16 -22
t-18 -9h-15q-22 -30 -86 -113v-289q0 -28 -11 -38q-14 -13 -44 -22q-16 -5 -24 -5q-14 0 -14 15q0 21 -5.5 25t-54.5 17l-29 8v20h121v199q-147 -151 -259 -209zM183 560v-105q35 5 43 6q59 9 93 16v83h-136zM183 687v-99h136v99h-136zM183 813v-99h136v99h-136zM400 273
q13 17 42 56q57 78 107 196q40 95 64 187h-193l-13 27h221v222l68 -11q27 -5 27 -16q0 -10 -19 -18l-13 -6v-171h115l53 60l84 -68v-19h-239q25 -91 91 -190q87 -122 172 -189l-5 -14h-12q-17 0 -27 -5q-11 -5 -31 -26q-84 102 -140 214q-26 54 -43 106l-18 52v-320h22
l39 46l68 -60v-13h-129v-233l-63 -13v246h-108l-12 27h120v223q-90 -196 -215 -302z" />
  </g>

</svg>
