<?xml version="1.0" standalone="no"?>
<!DOCTYPE svg PUBLIC "-//W3C//DTD SVG 1.1//EN" "http://www.w3.org/Graphics/SVG/1.1/DTD/svg11.dtd" >
<svg xmlns="http://www.w3.org/2000/svg" xmlns:xlink="http://www.w3.org/1999/xlink" version="1.1" viewBox="0 -140 1000 1000">
  <g transform="matrix(1 0 0 -1 0 860)">
   <path fill="currentColor"
d="M467 855l61 -32q108 18 172.5 37.5t154.5 62.5l53 -65l-9 -9l-25 9q-56 -17 -145 -34q1 -9 1 -30l2 -56l1 -56q2 -29 3 -89h97l41 50h15l55 -56v-16h-208q15 -243 85 -358q34 -58 57 -58q16 0 26 30l33 98l14 -3l-19 -162l19 -46l-5 -10q-5 -1 -18 -1q-48 0 -88.5 28.5
t-67.5 75t-44 92t-27 91.5q-19 85 -29 223h-144v-320l164 54l6 -16l-210 -107v-30l-14 -7l-52 73l46 16zM671 593l-6 222l-137 -12v-210h143zM264 770v-96h53l28 30h13l53 -56v-14l-26 -15v-272l-5 -12l-50 -13l-8 7v29h-58v-110h74l36 43h14l48 -48v-17h-172v-154l-6 -10
l-49 -12l-8 6v170h-152v22h152v110h-55v-32l-7 -10l-46 -13l-10 7v397l71 -33h47v96h-143v22h143v142l97 -22v-13l-34 -16v-91h52l38 44h13l49 -50v-16h-152zM264 528h59v123h-59v-123zM201 528v123h-55v-123h55zM264 381h59v125h-59v-125zM201 506h-55v-125h55v125zM396 97
v21h277l41 47h14l52 -53v-15h-384z" />
  </g>

</svg>
