<?xml version="1.0" standalone="no"?>
<!DOCTYPE svg PUBLIC "-//W3C//DTD SVG 1.1//EN" "http://www.w3.org/Graphics/SVG/1.1/DTD/svg11.dtd" >
<svg xmlns="http://www.w3.org/2000/svg" xmlns:xlink="http://www.w3.org/1999/xlink" version="1.1" viewBox="0 -120 1000 1000">
  <g transform="matrix(1 0 0 -1 0 880)">
   <path fill="currentColor"
d="M42 293h178v107h-73v-27l-59 -8v352l70 -43h62v102h-166l-10 27h176v149l72 -4q24 -2 24 -13q0 -10 -22 -18l-9 -3v-111h73l41 52l74 -59v-20h-188v-102h72l25 41l57 -37q16 -10 16 -17t-14 -13l-14 -7v-262l-61 -11v32h-81v-107h73l41 50l74 -60l1 -17h-189v-201
l-65 -11v212h-168zM147 425h73v102h-73v-102zM147 651v-100h73v100h-73zM366 527h-81v-102h81v102zM285 551h81v100h-81v-100zM635 729q50 -20 79 -50q26 -27 26 -55q0 -24 -14 -38q-9 -8 -19 -8q-7 0 -13 5q-7 6 -16 41q-6 25 -29 60l-24 34zM588 489q1 -42 1 -65
q0 -97 -17 -160q-19 -72 -71 -119q-64 -59 -167 -100l-8 19q96 48 136 101q60 80 62 243l1 81h-70l-9 27h79v322l66 -36h52q12 97 13 147l78 -10q20 -2 20 -13q0 -9 -20 -17l-13 -4l-47 -103h124l26 40l66 -46q14 -9 14 -17q0 -10 -15 -14l-17 -4v-245h14l34 50l56 -62v-15
h-104v-362q0 -36 -12 -48q-18 -19 -60 -26q-14 -2 -20 -2q-7 0 -7 13q0 30 -21 36l-49 12l1 19h101l1 358h-218zM588 776v-260h218v259zM658 177l-1 273l63 -6q23 -2 23 -12q0 -7 -13 -13l-15 -8v-224z" />
  </g>

</svg>
