<?xml version="1.0" standalone="no"?>
<!DOCTYPE svg PUBLIC "-//W3C//DTD SVG 1.1//EN" "http://www.w3.org/Graphics/SVG/1.1/DTD/svg11.dtd" >
<svg xmlns="http://www.w3.org/2000/svg" xmlns:xlink="http://www.w3.org/1999/xlink" version="1.1" viewBox="0 -120 1000 1000">
  <g transform="matrix(1 0 0 -1 0 880)">
   <path fill="currentColor"
d="M221 252h-164l-13 28h177v95h-72v-23l-58 -12v371l58 -32h72v82h-161l-13 28h174v175l77 -11q19 -3 19 -15q0 -10 -16 -16l-24 -8v-125h60l38 50l68 -56v-22h-166v-82h70l21 35l57 -42q14 -11 14 -17q0 -9 -13 -13l-14 -5v-275l-60 -10v23h-75v-95h57l37 51l72 -57v-22
h-166v-180l-56 -12v192zM149 515v-112h72v112h-72zM149 651v-109h72v109h-72zM277 515v-112h75v112h-75zM277 542h75v109h-75v-109zM468 750l-10 28h190v183l70 -11q19 -3 19 -14t-16 -16l-12 -3v-139h117l38 51l80 -64v-15h-235v-113h111l23 34l65 -45q12 -8 12 -16
q0 -7 -12 -11l-16 -7v-455q0 -37 -26 -56q-25 -18 -52 -18q-8 0 -12 2q-7 3 -7 21q1 23 -28 29l-26 4v22h88v174h-120v-228l-61 -9v237h-100v-242l-64 -14v612l61 -34h103v113h-180zM548 343h100v118h-100v-118zM548 609v-120h100v120h-100zM709 461v-118h120v118h-120z
M709 609v-120h120v120h-120zM756 920q48 -14 65 -28q25 -20 25 -46q0 -15 -10 -26q-8 -8 -18 -8q-9 0 -16 6q-3 2 -17 35q-6 13 -38 53z" />
  </g>

</svg>
