<?xml version="1.0" standalone="no"?>
<!DOCTYPE svg PUBLIC "-//W3C//DTD SVG 1.1//EN" "http://www.w3.org/Graphics/SVG/1.1/DTD/svg11.dtd" >
<svg xmlns="http://www.w3.org/2000/svg" xmlns:xlink="http://www.w3.org/1999/xlink" version="1.1" viewBox="0 -120 1000 1000">
  <g transform="matrix(1 0 0 -1 0 880)">
   <path fill="currentColor"
d="M63 256l-12 26h145v108h-66v-55l-60 -6v398l77 -44h49v98h-141l-15 25h156v144l73 -8q20 -3 20 -15q0 -11 -16 -17l-18 -6v-98h60l40 50l69 -56v-19h-169v-98h56l20 31l52 -31q25 -14 25 -25t-19 -17l-11 -3v-279l-57 -9v40h-66v-108h52l37 49l72 -61v-14h-161v-190
l-59 -9v199h-133zM130 531v-114h66v114h-66zM130 658v-99h66v99h-66zM255 531v-114h66v114h-66zM255 658v-99h66v99h-66zM482 745q-4 -72 -45 -72q-28 0 -28 24q0 13 6 21l22 28q17 23 20 60h16q6 -15 9 -34h149v93h-166l-14 28h305l42 54l81 -64v-18h-188v-93h147l26 34
l64 -42q25 -16 25 -26q0 -13 -30 -15l-26 -1l-51 -39l-16 9l14 53h-153v-282l-60 -9v291h-149zM442 256l-14 28h358v113h-298l-12 25h305l17 31l63 -34q20 -11 20 -19q0 -9 -20 -16l-12 -5v-95h7l32 50l64 -58v-20h-103v-190l-63 -9v52h-304l-11 26h315v121h-344zM444 545
h78l35 39l55 -50v-17h-153zM451 645h74l34 38l53 -44v-21h-146zM717 645h72l35 38l60 -45v-20h-153zM726 542h75l39 44l63 -49v-20h-162z" />
  </g>

</svg>
