<?xml version="1.0" standalone="no"?>
<!DOCTYPE svg PUBLIC "-//W3C//DTD SVG 1.1//EN" "http://www.w3.org/Graphics/SVG/1.1/DTD/svg11.dtd" >
<svg xmlns="http://www.w3.org/2000/svg" xmlns:xlink="http://www.w3.org/1999/xlink" version="1.1" viewBox="0 -200 1000 1000">
  <g transform="matrix(1 0 0 -1 0 800)">
   <path fill="currentColor"
d="M888 880h-50q-48 -8 -114.5 -23t-157.5 -29l-16 -32v-115h213l30 44q20 -16 37 -31t31 -32l-31 -23q-11 -58 -22 -104t-23 -83.5t-26 -68t-30 -56.5q54 -63 107.5 -99t98.5 -44q-30 -10 -48.5 -23t-41.5 -31q-42 34 -75 72t-65 86q-21 -26 -47.5 -53t-57.5 -52t-66.5 -47
t-74.5 -38l-15 1q69 48 130.5 105.5t101.5 126.5q-58 117 -83 327h-43q0 -129 -13 -221t-37 -157t-59 -107.5t-79 -71.5l-10 -2q55 58 85 128t44 151.5t16.5 175t2.5 198.5q0 33 -0.5 68t-1.5 73l75 -45q78 22 140.5 47t116.5 57zM610 658q7 -67 28.5 -139.5t63.5 -148.5
q20 45 40 116.5t35 171.5h-167zM100 969q26 -12 48 -22.5t40 -22.5t31.5 -27t22.5 -36v-11q0 -33 -11 -47.5t-24 -14.5t-23 12t-10 35v9q-6 23 -11 38t-13 27.5t-20 26t-32 32.5zM199 435l49 51l71 -68l-45 -44v-236q11 -34 37 -56.5t63 -36t82 -19.5t94 -6q55 0 112.5 6
t112.5 14.5t104 18t87 17.5q-24 -23 -42.5 -47.5t-36.5 -48.5q-72 -4 -142.5 -9t-139.5 -5q-63 0 -119.5 6.5t-103 25t-80 51t-50.5 84.5h-29q-32 -42 -54 -72t-50 -60l-58 55q45 15 81 36t75 47v272h-84l-56 -14l-19 38h141zM74 726q25 -12 47.5 -22t40.5 -22t31.5 -27
t21.5 -37v-10q0 -32 -10 -46.5t-24 -14.5q-13 0 -23 12t-10 34v9q-6 23 -11 38t-13 28t-20 26t-32 32h2z" />
  </g>

</svg>
