<?xml version="1.0" standalone="no"?>
<!DOCTYPE svg PUBLIC "-//W3C//DTD SVG 1.1//EN" "http://www.w3.org/Graphics/SVG/1.1/DTD/svg11.dtd" >
<svg xmlns="http://www.w3.org/2000/svg" xmlns:xlink="http://www.w3.org/1999/xlink" version="1.1" viewBox="0 -140 1000 1000">
  <g transform="matrix(1 0 0 -1 0 860)">
   <path fill="currentColor"
d="M398 683v206l97 -17v-16l-37 -14v-159h95v203l95 -17v-14l-35 -16v-156h127v203l95 -17v-14l-31 -13v-159h40l40 48l15 1l53 -58v-13h-148l-1 -238l-6 -14l-44 -14l-13 5v42h-127v-35l-6 -13l-41 -12l-13 6v273h-95v-371h361l43 49h13l57 -57v-15h-474v-32l-9 -13
l-39 -11l-12 5v445h-90v22h90zM740 661h-127v-196h127v196zM153 910l6 13q4 0 42 -7q75 -12 100 -28.5t25 -54.5q0 -37 -24 -37q-13 0 -28 19q-46 58 -121 95zM99 694l4 13q112 -20 140 -35q32 -17 32 -56q0 -38 -24 -38q-14 0 -28 17q-36 44 -57 60.5t-67 38.5zM210 442
l36 44h13l57 -48v-18l-32 -27v-165q27 -31 51.5 -48t88 -31.5t161.5 -14.5q121 0 250 13q30 4 112 12l3 -16q-27 -15 -37 -29.5t-11 -43.5q-152 -2 -153 -2q-231 0 -335 33q-56 18 -91 42t-73 72l-130 -128v-28l-13 -7l-57 77l170 105v185h-134v23h124z" />
  </g>

</svg>
