<?xml version="1.0" standalone="no"?>
<!DOCTYPE svg PUBLIC "-//W3C//DTD SVG 1.1//EN" "http://www.w3.org/Graphics/SVG/1.1/DTD/svg11.dtd" >
<svg xmlns="http://www.w3.org/2000/svg" xmlns:xlink="http://www.w3.org/1999/xlink" version="1.1" viewBox="0 -120 1000 1000">
  <g transform="matrix(1 0 0 -1 0 880)">
   <path fill="currentColor"
d="M942 123q-35 -12 -38 -45h-401q-123 1 -197 52q-36 25 -71 67l-107 -94l-3 -19q-2 -13 -11 -13q-7 0 -20 13l-53 52l151 77v234h-131l-17 27h143l20 36l56 -31q29 -17 29 -27q0 -11 -19 -17l-17 -6v-212q28 -30 78 -50q65 -27 151 -27h457v-17zM94 736q46 -11 81 -30
q65 -36 65 -77q0 -15 -10 -24q-9 -8 -21 -8t-22 9q-2 3 -26 40q-23 34 -80 74zM136 933q83 -17 121 -61q20 -23 20 -41q0 -10 -6 -18q-10 -13 -26 -13q-13 0 -24 12q-2 3 -29 43q-12 18 -69 62zM299 333q58 100 86 323l72 -24q19 -7 19 -15q0 -9 -15 -14l-19 -6
q-46 -172 -126 -274zM313 757l-15 27h273v174l73 -11q27 -4 27 -17q0 -9 -16 -16l-19 -9v-121h156l49 57l85 -66v-18h-218v-500q0 -29 -9 -38q-10 -10 -39 -22q-16 -6 -23 -6q-6 0 -9 4q0 1 -6 30q-3 13 -27 18l-62 11l2 17h109v486h-70v-132q4 -268 -175 -418l-18 12
q57 66 84 130q44 108 45 262v146h-197zM757 631q34 -27 64 -63q88 -106 88 -174q0 -19 -13 -31q-9 -9 -21 -9q-13 0 -21 10q-6 7 -26 85q-17 66 -86 172z" />
  </g>

</svg>
