<?xml version="1.0" standalone="no"?>
<!DOCTYPE svg PUBLIC "-//W3C//DTD SVG 1.1//EN" "http://www.w3.org/Graphics/SVG/1.1/DTD/svg11.dtd" >
<svg xmlns="http://www.w3.org/2000/svg" xmlns:xlink="http://www.w3.org/1999/xlink" version="1.1" viewBox="0 -120 1000 1000">
  <g transform="matrix(1 0 0 -1 0 880)">
   <path fill="currentColor"
d="M953 124q-37 -11 -48 -46h-359q-130 3 -208 67q-37 28 -86 88l-134 -137l2 -18l1 -4q2 -14 -12 -14q-6 0 -12 8l-52 69l158 93v299h-144l-14 28h151l25 50l75 -47q12 -7 12 -16q0 -11 -18 -15l-20 -5v-268q38 -47 75 -70q74 -48 229 -49h379v-13zM91 935q68 -19 128 -54
q67 -39 67 -93q0 -13 -9 -27q-12 -21 -26 -21q-15 0 -36 41q-10 22 -48 65q-25 28 -85 68zM421 221l-3 -14q-5 -17 -16 -17q-8 0 -17 15l-45 73l85 15v671l72 -42h244l29 45l67 -48q11 -8 11 -16q0 -9 -15 -15l-20 -9v-326l-64 -10v18h-257v-255q94 21 212 53l8 -18z
M492 739v-150h257v150h-257zM492 894v-127h257v127h-257zM642 489q59 -28 112 -58q63 77 118 160l59 -40q11 -7 11 -13q0 -12 -17 -12h-12l-136 -109q50 -32 89 -62q66 -51 66 -96q0 -19 -13 -30q-10 -9 -24 -9q-12 0 -20 8q-2 2 -48 67q-37 53 -99 104q-30 25 -95 71z" />
  </g>

</svg>
