<?xml version="1.0" standalone="no"?>
<!DOCTYPE svg PUBLIC "-//W3C//DTD SVG 1.1//EN" "http://www.w3.org/Graphics/SVG/1.1/DTD/svg11.dtd" >
<svg xmlns="http://www.w3.org/2000/svg" xmlns:xlink="http://www.w3.org/1999/xlink" version="1.1" viewBox="0 -410 2048 2048">
  <g transform="matrix(1 0 0 -1 0 1638)">
   <path fill="currentColor"
d="M1387 1467q273 -79 406 -148q100 -51 100 -102q0 -21 -14 -38t-31 -16q-23 1 -55 22q-206 131 -412 208q-44 16 -65 25q-286 -176 -660 -241l-10 34q358 93 582 242q-172 60 -356 110q-98 -57 -200 -96l-16 36q135 56 259 179q112 110 188 276l125 -69q31 -17 31 -36
q0 -4 -2 -7q-15 -24 -41 -20l-5 1l-51 4q-21 -28 -44 -59h410l66 68l78 -68q29 -25 29 -43q0 -23 -39 -32l-42 -9q-143 -154 -231 -221zM919 1593q214 -52 374 -97q105 79 216 222h-441q-83 -79 -149 -125zM288 454q75 107 112 200q40 102 58 270h-248q-24 -6 -43 -6
q-48 0 -48 20q0 5 39 56q157 203 244 367h-136q-62 0 -149 -12l-39 86q121 -17 188 -17h136l69 66l95 -82q15 -12 15 -28q0 -23 -25 -30l-53 -15q-28 -40 -87 -129q-11 -18 -161 -220h199l63 66l91 -66q21 -16 21 -33q0 -19 -21 -27l-52 -19q-4 -17 -6 -26
q-55 -275 -217 -433q18 -14 45 -40q86 -83 246 -122q193 -47 642 -47q392 0 657 15v-34q-90 -14 -105 -82q-53 0 -217 2q-121 2 -252 2q-515 0 -714 57q-155 44 -258 141q-57 54 -83 54q-29 0 -87 -51q-26 -23 -65 -53v-36q0 -37 -17 -37q-18 0 -36 24l-62 82q74 39 130 73
q92 56 131 64zM1292 770v-178h374l98 101l121 -106q17 -15 17 -26q0 -26 -27 -26h-583v-20l4 -38q11 -146 11 -156q0 -43 -56 -43q-55 0 -55 42v215h-325q-116 0 -192 -8l-38 88q96 -23 230 -23h325v178h-161q-117 0 -192 -8l-38 88q93 -23 230 -23h161v187h-218
q-119 0 -192 -8l-38 88q99 -23 230 -23h218v32q0 117 -8 160l109 -24q86 -19 86 -46q0 -22 -50 -41l-41 -16v-65h252l99 102l121 -107q16 -15 16 -26q0 -26 -27 -26h-461v-187h214l99 102l120 -107q17 -15 17 -26q0 -26 -27 -26h-423zM229 1945q274 -161 274 -279
q0 -30 -19 -48q-16 -16 -37 -16q-33 0 -56 67q-28 85 -77 145q-25 31 -107 105z" />
  </g>

</svg>
