<?xml version="1.0" standalone="no"?>
<!DOCTYPE svg PUBLIC "-//W3C//DTD SVG 1.1//EN" "http://www.w3.org/Graphics/SVG/1.1/DTD/svg11.dtd" >
<svg xmlns="http://www.w3.org/2000/svg" xmlns:xlink="http://www.w3.org/1999/xlink" version="1.1" viewBox="0 -410 2048 2048">
  <g transform="matrix(1 0 0 -1 0 1638)">
   <path fill="currentColor"
d="M703 1587h196l98 102l121 -107q17 -15 17 -26q0 -26 -28 -26h-748v-977q0 -50 39 -60q57 -16 284 -16q199 0 289 21q24 6 39 6q31 0 51 -32q10 -16 10 -29q0 -18 -22 -28q-50 -22 -271 -22h-106q-285 2 -339 18q-70 22 -70 93v1026q-104 -2 -157 -8l-38 88
q97 -23 230 -23h373q-27 17 -46 90q-26 101 -167 261l24 24q123 -92 172 -142q86 -88 86 -162q0 -55 -37 -71zM1333 1795v-1427q0 -13 10 -181q3 -58 3 -64q0 -60 -62 -60q-21 0 -35 8q-11 7 -11 43v1618q0 78 -12 206l115 -85h421l65 82l104 -76q28 -20 28 -42
q0 -26 -91 -53q-124 -243 -281 -498q123 -100 188 -174q183 -205 183 -434q0 -276 -259 -329q-3 58 -59 88q-50 26 -171 57l9 39q166 -42 237 -42q137 0 137 199q0 343 -320 587q117 215 234 538h-433z" />
  </g>

</svg>
