<?xml version="1.0" standalone="no"?>
<!DOCTYPE svg PUBLIC "-//W3C//DTD SVG 1.1//EN" "http://www.w3.org/Graphics/SVG/1.1/DTD/svg11.dtd" >
<svg xmlns="http://www.w3.org/2000/svg" xmlns:xlink="http://www.w3.org/1999/xlink" version="1.1" viewBox="0 -204 1024 1024">
  <g transform="matrix(1 0 0 -1 0 820)">
   <path fill="currentColor"
d="M32 798q44 -12 117 -12h135v81q0 54 -6 80q59 -7 97 -23q13 -4 13 -14t-13 -13q-19 -10 -43 -12v-99h148l44 49q36 -27 68 -52q8 -5 8 -11q0 -14 -15 -14h-253v-328h160v170q0 53 -6 80q51 -8 84 -23q12 -6 12 -15q0 -10 -10 -13q-14 -11 -32 -12v-172q0 -27 2 -36v-35
q0 -22 -30 -22q-24 0 -24 27q0 10 2 23h-158v-265q28 5 50 11q45 9 98 26q51 15 120 42l4 -22q-54 -31 -96 -50q-45 -20 -85 -35q-38 -16 -80 -27q-11 -37 -18 -37q-8 0 -49 84q5 1 8 1v272h-158q-7 -10 -26 -10q-24 0 -24 27q0 12 3 32q1 19 1 34v115q0 53 -6 80
q51 -8 84 -23q12 -6 12 -15q0 -10 -10 -13q-14 -11 -32 -12v-132q0 -27 2 -36v-19h154v328h-135q-71 -2 -97 -7zM880 894l32 39q40 -28 65 -49q8 -10 8 -18q0 -5 -17 -13q-17 -9 -39 -16q-60 -133 -132 -258q70 -45 108 -88q35 -39 57 -88q20 -42 20 -89q0 -56 -16 -89
q-10 -31 -37 -49q-21 -19 -77 -32q-16 25 -41 36q-24 15 -79 22l5 22q51 -10 93 -10q39 0 58 11q20 12 29 33q13 24 13 70q0 40 -16 78q-13 40 -44 80q-29 38 -95 86q71 172 107 294h-190v-838q0 -12 -16 -12q-9 0 -24 6q-12 9 -12 24q0 18 3 47q4 22 4 97v676q0 41 -7 71
l61 -43h179z" />
  </g>

</svg>
