<?xml version="1.0" standalone="no"?>
<!DOCTYPE svg PUBLIC "-//W3C//DTD SVG 1.1//EN" "http://www.w3.org/Graphics/SVG/1.1/DTD/svg11.dtd" >
<svg xmlns="http://www.w3.org/2000/svg" xmlns:xlink="http://www.w3.org/1999/xlink" version="1.1" viewBox="0 -204 1024 1024">
  <g transform="matrix(1 0 0 -1 0 820)">
   <path fill="currentColor"
d="M54 916q39 -6 114 -6h314l32 32q32 -16 49 -32q7 -9 7 -18q0 -14 -40 -26q0 -84 -12 -180q-11 -97 -31 -129q-9 -22 -23 -30q-11 -7 -29 -13q-23 -10 -55 -10q-2 16 -9 25q-4 5 -19 12q-27 13 -96 29l2 22q123 -26 140 -26t28 5q9 3 15 13q9 10 17 32q10 34 16 102
q7 71 8 162h-200q-7 -52 -16 -95q-8 -50 -26 -89q-19 -45 -40 -80q-25 -35 -58 -62q-33 -31 -84 -58l-16 22q48 31 78 62q26 33 47 66q16 29 31 63q13 36 20 84q7 37 11 87h-61q-81 0 -96 -4zM94 486l62 -34h318l30 34q50 -33 50 -44t-28 -30v-258q15 -9 24 -17q4 -3 4 -7
q0 -18 -6 -18h-406v-32q0 -9 -12 -14q-13 -4 -22 -4q-14 0 -14 10v414zM142 142h332l4 3v281h-336v-284zM680 880v-852q0 -10 -22 -10q-8 0 -20 4q-10 8 -10 24t2 46q6 22 6 98v694q0 39 -8 70l58 -44h202l32 36q34 -27 56 -44q6 -10 6 -18q0 -5 -14 -12q-17 -8 -36 -14
q-64 -142 -136 -274q67 -48 105 -94q37 -41 57 -93q22 -44 22 -95q0 -55 -15 -86q-11 -29 -34 -49q-21 -18 -73 -29q-5 26 -28 36q-25 14 -92 22l4 22q55 -18 98 -18q33 0 53 13q16 11 26 30q13 25 13 71q0 45 -18 87q-13 45 -45 88q-28 42 -95 95q78 174 118 296h-212z" />
  </g>

</svg>
