<?xml version="1.0" standalone="no"?>
<!DOCTYPE svg PUBLIC "-//W3C//DTD SVG 1.1//EN" "http://www.w3.org/Graphics/SVG/1.1/DTD/svg11.dtd" >
<svg xmlns="http://www.w3.org/2000/svg" xmlns:xlink="http://www.w3.org/1999/xlink" version="1.1" viewBox="0 -120 1000 1000">
  <g transform="matrix(1 0 0 -1 0 880)">
   <path fill="currentColor"
d="M48 534q50 86 74 146q46 115 85 275l86 -18q13 -3 13 -11q0 -9 -14 -14l-20 -7l-24 -57l-19 -46h273l29 41l62 -43q16 -11 16 -18q0 -8 -14 -12l-18 -6q-3 -353 -10 -452q-11 -182 -68 -223q-20 -14 -52 -23q-16 -4 -25 -4q-15 0 -14 16q1 28 -24 34l-54 12v20h134
q16 27 23 53q24 87 24 444q0 49 -1 134h-293l-31 -59l-24 -46l52 -31h128l27 40l61 -39q16 -10 16 -18q0 -9 -16 -14l-11 -3v-338l-64 -13v50h-141v-59l-62 -14l-1 420q-33 -56 -90 -128zM214 465v-135h141v135h-141zM214 492h141v121l-141 -1v-120zM652 57v859l63 -38h138
l27 36l65 -47q14 -9 14 -18q0 -10 -14 -12l-16 -2l-120 -231q6 -7 10 -11q57 -59 80 -98q48 -84 48 -167q0 -81 -40 -115q-32 -28 -74 -28q-9 0 -9 15q0 13 -3 19q-4 7 -21 12l-57 16v18l118 1q23 36 23 81q0 120 -103 253q39 116 73 251h-137v-782z" />
  </g>

</svg>
