<?xml version="1.0" standalone="no"?>
<!DOCTYPE svg PUBLIC "-//W3C//DTD SVG 1.1//EN" "http://www.w3.org/Graphics/SVG/1.1/DTD/svg11.dtd" >
<svg xmlns="http://www.w3.org/2000/svg" xmlns:xlink="http://www.w3.org/1999/xlink" version="1.1" viewBox="0 -410 2048 2048">
  <g transform="matrix(1 0 0 -1 0 1638)">
   <path fill="currentColor"
d="M712 1298h247l98 101l121 -106q17 -15 17 -26q0 -26 -27 -26h-328v-980q0 -141 -153 -171q-12 71 -48 93q-34 22 -160 44l9 46q164 -28 201 -28q56 0 56 58v938h-168q-1 -16 -2 -35q-14 -465 -89 -673q-64 -173 -164 -286q-70 -77 -180 -151l-19 29q139 118 205 237
q100 181 130 430q21 171 21 400v31v18h-123q-118 0 -192 -8l-38 88q99 -23 230 -23h260v311h-165q-118 0 -192 -8l-38 88q98 -23 230 -23h165v134q0 121 -8 160l109 -24q85 -19 85 -45q0 -27 -50 -42l-40 -12v-171h182l99 102l120 -107q17 -15 17 -26q0 -26 -27 -26h-391
v-311zM939 1082q66 -113 126 -267q59 -151 59 -251q0 -93 -50 -93q-48 0 -50 97q-6 231 -114 495zM137 475l-36 19q128 301 177 629l131 -52q22 -9 22 -27q0 -21 -33 -27l-38 -8q-82 -273 -223 -534zM1380 1779v-1408q0 -13 10 -181q4 -57 4 -63q0 -60 -63 -60q-46 0 -46 50
v1599q0 82 -11 206l115 -85h337l64 82l105 -76q27 -20 27 -41q0 -27 -90 -54q-125 -243 -281 -498q122 -100 188 -174q182 -205 182 -434q0 -277 -258 -329q-3 56 -54 86q-43 25 -153 55l9 39q146 -38 215 -38q135 0 135 199q0 343 -319 587q115 211 233 538h-349z" />
  </g>

</svg>
