<?xml version="1.0" standalone="no"?>
<!DOCTYPE svg PUBLIC "-//W3C//DTD SVG 1.1//EN" "http://www.w3.org/Graphics/SVG/1.1/DTD/svg11.dtd" >
<svg xmlns="http://www.w3.org/2000/svg" xmlns:xlink="http://www.w3.org/1999/xlink" version="1.1" viewBox="0 -140 1000 1000">
  <g transform="matrix(1 0 0 -1 0 860)">
   <path fill="currentColor"
d="M859 885l27 28h13l59 -46l-3 -12l-28 -15l-132 -243q83 -71 117.5 -125.5t34.5 -123.5q0 -83 -43.5 -135t-116.5 -54l-10 2l-8 33l-61 30l1 16l85 -9q3 -1 15 -1q36 0 59 36.5t23 92.5q0 73 -28.5 125.5t-87.5 109.5l84 268h-163l-6 -821l-45 -15l-11 12l-1 879l55 -32
h171zM456 784l35 36h15l43 -43v-15h-330v22h237zM617 662h-316v-174l129 32l5 -11l-165 -81l-22 -36l-43 80q36 4 36 51v139h-59v22h340l31 39h13l51 -47v-14zM531 338l27 39l13 1l49 -47v-15h-113v-179q0 -48 -18 -64.5t-81 -26.5l-12 8v31l-76 35l5 11l68 -9q3 -1 12 -1
q25 0 32 6t7 23v166h-289q-29 -139 -94 -234l-10 7q41 91 55 182.5t14 317.5l-1 329l61 -33h349l26 35h16l51 -43v-15h-442q1 -19 1 -64q0 -274 -19 -460h282v99l99 -18v-13l-36 -16v-52h24zM185 269l5 13q5 -2 13.5 -5.5t11.5 -5.5q100 -42 100 -97q0 -13 -7.5 -23.5
t-17.5 -10.5q-16 0 -37 43q-21 41 -68 86zM348 602l5 12q15 -6 21 -8q81 -28 115 -52l61 103l66 -50l-12 -10l-20 5l-81 -58q70 -43 70 -89q0 -28 -20 -28t-38 25q-48 64 -67 81.5t-100 68.5z" />
  </g>

</svg>
