<?xml version="1.0" standalone="no"?>
<!DOCTYPE svg PUBLIC "-//W3C//DTD SVG 1.1//EN" "http://www.w3.org/Graphics/SVG/1.1/DTD/svg11.dtd" >
<svg xmlns="http://www.w3.org/2000/svg" xmlns:xlink="http://www.w3.org/1999/xlink" version="1.1" viewBox="0 -410 2048 2048">
  <g transform="matrix(1 0 0 -1 0 1638)">
   <path fill="currentColor"
d="M1460 1577q168 82 305 287l95 -73q44 -33 44 -54q0 -25 -21 -22l-30 4l-49 6q-162 -132 -347 -197q-9 -31 -12 -63q176 -53 298 -133q137 -90 137 -163q0 -24 -15 -43t-35 -19q-25 0 -65 54q-134 182 -335 252q-61 -156 -161 -236q-80 -65 -237 -123l-15 38
q132 62 198 129q114 117 144 321q16 114 16 259q0 91 -10 158l115 -15q72 -9 72 -34q0 -23 -30 -34l-53 -21q1 -112 -9 -278zM1030 962q228 -156 228 -276q0 -65 -50 -65q-17 0 -27 12q-12 14 -38 95q-29 96 -140 204zM555 580l91 90l110 -95q16 -14 16 -25q0 -27 -27 -27
h-265q-71 0 -154 -8l-38 88q94 -23 192 -23h75zM674 1460h108l68 76l83 -54q41 -27 41 -49q0 -28 -78 -61v-954q0 -24 4 -85q1 -24 4 -80q2 -38 3 -58q1 -9 1 -14q0 -45 -70 -45q-36 0 -36 25v56h-546v-106q0 -37 -49 -37q-63 0 -59 54l4 62l4 80l4 76v1028l-5 74
q-4 67 -9 102l122 -90h92v293h-48q-108 0 -192 -8l-38 88q96 -23 230 -23h426l98 101l121 -106q16 -15 16 -26q0 -26 -27 -26h-272v-293zM256 274h546v635q-37 -9 -68 -9h-68q-43 0 -65 20q-18 19 -18 40v64v379h-136v-81q0 -186 -37 -289q-37 -102 -138 -219l-16 14v-554z
M583 1460v293h-136v-293h136zM802 979v424h-128v-385q0 -37 37 -37q19 0 38 5q18 4 26 4q10 0 27 -11zM360 1403h-104v-544q104 165 104 431v113zM1521 690q89 -179 245 -330q113 -109 224 -139l-5 -39q-16 1 -27 1q-59 0 -106 -67q-125 114 -226 247q-78 102 -118 206
q-15 38 -46 128q-64 -229 -169 -354q-115 -137 -292 -215l-18 40q149 88 254 240q160 234 160 686q0 52 -6 87l116 -15q71 -10 71 -35q0 -22 -29 -34l-53 -20q0 -75 -12 -231q5 -52 26 -103q140 131 253 286l99 -81q43 -35 43 -52q0 -19 -26 -19q-2 0 -8 1l-66 8
q-125 -94 -284 -196zM1053 1833q227 -157 227 -277q0 -65 -50 -65q-17 0 -27 12q-12 15 -37 96q-30 96 -140 203z" />
  </g>

</svg>
