<?xml version="1.0" standalone="no"?>
<!DOCTYPE svg PUBLIC "-//W3C//DTD SVG 1.1//EN" "http://www.w3.org/Graphics/SVG/1.1/DTD/svg11.dtd" >
<svg xmlns="http://www.w3.org/2000/svg" xmlns:xlink="http://www.w3.org/1999/xlink" version="1.1" viewBox="0 -410 2048 2048">
  <g transform="matrix(1 0 0 -1 0 1638)">
   <path fill="currentColor"
d="M1364 851q24 89 43 201h-224q-11 -20 -40 -20q-36 0 -50 14q-6 6 -6 54v370q0 113 -8 160l109 -24q86 -19 86 -45q0 -25 -51 -42l-40 -13v-398h582v362q0 118 -10 160l109 -24q86 -19 86 -45q0 -25 -51 -42l-40 -13v-310q0 -41 7 -105q3 -29 3 -44q0 -49 -66 -49
q-38 0 -38 25v29h-248q-22 -86 -57 -201h346l68 76l84 -54q40 -26 40 -48q0 -28 -77 -62v-518q0 -89 -66 -134q-17 -13 -90 -37q-12 71 -44 92t-162 44l9 46q164 -27 201 -27q57 0 57 58v509h-382q-44 -120 -122 -282q186 21 298 40q-19 38 -90 140l26 21q21 -20 64 -65
q121 -126 121 -206q0 -58 -44 -58q-20 0 -32 16q-8 13 -18 77q-2 12 -9 31l-24 -8q-106 -35 -340 -85v-37q0 -37 -25 -37q-19 0 -33 28l-64 128l111 11q51 146 86 286h-225v-685q0 -31 -52 -31q-53 0 -53 44q0 4 4 49q7 95 7 104v515q-45 -3 -59 -5l-33 72q24 -2 36 -4
q28 -3 56 -4v66l109 -66h225zM1489 1759h262l99 99l120 -107q17 -14 17 -25q0 -27 -27 -27h-745q-120 0 -192 -8l-38 89q98 -21 230 -21h225q-13 15 -19 30q-24 66 -49 96q-21 26 -71 66l20 27q28 -15 42 -22q150 -76 150 -151q0 -26 -24 -46zM511 616l92 90l109 -95
q17 -14 17 -25q0 -27 -27 -27h-243q-68 0 -142 -8l-38 88q94 -23 180 -23h52zM280 1475h84v285h-57q-119 0 -192 -8l-38 88q99 -23 230 -23h414l98 102l121 -107q16 -15 16 -26q0 -26 -27 -26h-304v-285h104l68 76l83 -55q41 -27 41 -48q0 -27 -78 -61v-1015q0 -55 11 -223
q1 -8 1 -13q0 -46 -70 -46q-36 0 -36 25v87h-481v-87q0 -38 -50 -38q-62 0 -58 56l4 61l4 79l4 77v1037l-5 75q-4 67 -9 103zM364 1417h-96v-531q96 158 96 361v170zM452 1417v-88q0 -207 -60 -328q-42 -84 -98 -144l-26 19v-617h481v610h-31h-25h-39h-26q-52 0 -75 21
q-20 19 -20 99v428h-81zM452 1475h81v285h-81v-285zM749 951v466h-124v-430q0 -36 28 -36h96zM1522 1380q156 -98 156 -178q0 -56 -45 -56q-16 0 -32 15q-5 6 -43 67q-30 49 -86 100q-100 -101 -242 -187l-20 26q93 68 204 207q-75 55 -163 109l19 30q141 -68 180 -91
q66 98 98 189l84 -38q58 -27 58 -48q0 -30 -42 -30h-36q-19 -24 -55 -71q-22 -28 -35 -44z" />
  </g>

</svg>
