<?xml version="1.0" standalone="no"?>
<!DOCTYPE svg PUBLIC "-//W3C//DTD SVG 1.1//EN" "http://www.w3.org/Graphics/SVG/1.1/DTD/svg11.dtd" >
<svg xmlns="http://www.w3.org/2000/svg" xmlns:xlink="http://www.w3.org/1999/xlink" version="1.1" viewBox="0 -410 2048 2048">
  <g transform="matrix(1 0 0 -1 0 1638)">
   <path fill="currentColor"
d="M1497 1012q53 96 53 245q0 93 -5 130l86 -8q45 -4 45 -24q0 -15 -27 -29l-27 -14q-4 -113 -13 -162q-14 -78 -83 -160zM1348 1323l-3 57l69 -13q55 -10 55 -30q0 -13 -26 -27l-24 -11v-143q0 -22 22 -22q2 0 28 7h3q8 0 20 -10q19 -17 19 -37q0 -37 -78 -37q-50 0 -69 21
q-16 18 -16 61v184zM452 616l91 90l109 -95q17 -14 17 -25q0 -27 -27 -27h-212q-68 0 -143 -8l-38 88q94 -23 181 -23h22zM250 1474h84v285h-34q-119 0 -192 -8l-38 89q99 -23 230 -23h330l99 102l120 -107q17 -15 17 -26q0 -27 -27 -27h-244v-285h82l68 76l83 -55
q40 -25 40 -48q0 -26 -77 -60v-958q0 -55 12 -223v-13q0 -46 -70 -46q-36 0 -36 25v79h-459v-79q0 -38 -50 -38q-62 0 -58 56l4 61l4 79l4 76v981q0 89 -14 177zM334 1417h-96v-525q96 154 96 354v171zM422 1417v-89q0 -212 -59 -337q-39 -82 -97 -149l-28 31v-565h459v560
h-33h-32h-34q-52 0 -75 21q-20 19 -20 99v429h-81zM422 1474h81v285h-81v-285zM697 950v467h-102v-431q0 -36 29 -36h73zM1538 653h216l80 81l114 -86q16 -13 16 -26q0 -26 -27 -26h-399v-215q0 -89 13 -218q3 -32 3 -49q0 -47 -55 -47q-57 0 -57 42v487h-200
q-69 0 -149 -11l-39 86q126 -18 188 -18h200v166q0 115 -8 160l109 -24q86 -19 86 -45q0 -25 -50 -42l-41 -13v-202zM1740 950l104 -55q30 -17 30 -32q0 -16 -42 -21l-34 -4q-57 -68 -155 -146l-27 26q73 98 124 232zM1243 538l115 -56q29 -14 29 -28q0 -23 -29 -25l-49 -4
q-66 -98 -126 -155q-63 -59 -160 -129l-22 27q102 101 156 191q44 73 86 179zM1812 1380l70 -13q55 -10 55 -30q0 -15 -25 -27l-26 -11v-166q0 -31 19 -31q4 0 10 1q18 2 31 2q51 0 51 -50q0 -27 -36 -27h-79q-36 0 -53 17q-13 15 -13 71v207zM1154 1312q-3 -101 -8 -134
q-16 -111 -88 -188l-28 22q53 89 53 245q0 94 -6 130l86 -8q46 -4 46 -24q0 -15 -28 -29zM1169 935q100 -50 135 -75q67 -48 67 -98q0 -55 -44 -55q-17 0 -31 16q-4 4 -20 48q-19 51 -124 139zM1634 501q311 -155 311 -271q0 -59 -47 -59q-36 0 -69 80q-34 81 -214 222z
M1770 1453v-369q4 -38 4 -44q0 -46 -55 -46q-23 0 -30 14q-4 7 -4 41v404h-76q-26 0 -61 -6l-44 72q83 -9 95 -9h86q0 150 -8 200l97 -24q86 -21 86 -44q0 -29 -50 -43l-40 -11v-78h46l66 59l72 -64q17 -15 17 -26q0 -26 -27 -26h-174zM1303 1453v-369q4 -39 4 -44
q0 -46 -56 -46q-34 0 -34 27l1 28v404h-77q-26 0 -60 -6l-44 72q83 -9 95 -9h86q0 153 -8 200l97 -24q86 -21 86 -44q0 -29 -50 -43l-40 -11v-78h46l64 59l74 -64q17 -14 17 -26q0 -26 -27 -26h-174zM1492 1794h293l80 81l114 -86q16 -13 16 -27q0 -26 -27 -26h-945v-622
q-11 -403 -35 -574q-33 -239 -146 -412l-32 22q84 181 106 517q10 162 10 657q0 401 -8 542l105 -72h431q-17 14 -24 43q-18 70 -95 134l20 23q76 -36 121 -70q42 -30 42 -71q0 -34 -26 -59z" />
  </g>

</svg>
