<?xml version="1.0" standalone="no"?>
<!DOCTYPE svg PUBLIC "-//W3C//DTD SVG 1.1//EN" "http://www.w3.org/Graphics/SVG/1.1/DTD/svg11.dtd" >
<svg xmlns="http://www.w3.org/2000/svg" xmlns:xlink="http://www.w3.org/1999/xlink" version="1.1" viewBox="0 -140 1000 1000">
  <g transform="matrix(1 0 0 -1 0 860)">
   <path fill="currentColor"
d="M664 909l96 -13v-16l-32 -15v-211h92l44 54h17l59 -59v-17h-212v-229h77l39 54h15l59 -62v-15h-190v-267h115l40 44h14l58 -51v-15h-534v22h243v267h-171v23h171v229h-129q-34 -70 -78 -133l-13 9q61 170 71 327l107 -28l-3 -14l-30 -6q-14 -64 -44 -133h119v255z
M310 890l-4 -15l-28 -7q90 -41 101 -48q68 -36 68 -87q0 -20 -10 -34t-23 -14q-19 0 -32 28q-27 52 -46 75.5t-66 59.5q-88 -174 -200 -286l-13 10q62 78 95.5 153.5t60.5 196.5zM137 624h154l37 48l16 -1l59 -52v-17h-129v-130h39l36 48l15 1l61 -55v-17h-151v-204l69 182
l82 -50l-6 -13l-29 -2l-116 -149v-28l156 42l5 -17l-307 -126l-6 -29l-15 -5l-42 88l145 34v277h-139v23h139v130h-73v22zM85 371l12 7q52 -54 70.5 -80.5t18.5 -54.5q0 -22 -12 -37.5t-29 -15.5q-20 0 -23 37q-8 84 -37 144z" />
  </g>

</svg>
