<?xml version="1.0" standalone="no"?>
<!DOCTYPE svg PUBLIC "-//W3C//DTD SVG 1.1//EN" "http://www.w3.org/Graphics/SVG/1.1/DTD/svg11.dtd" >
<svg xmlns="http://www.w3.org/2000/svg" xmlns:xlink="http://www.w3.org/1999/xlink" version="1.1" viewBox="0 -204 1024 1024">
  <g transform="matrix(1 0 0 -1 0 820)">
   <path fill="currentColor"
d="M204 960q47 -7 80 -20q8 -2 8 -12q0 -9 -20 -13q-12 -3 -21 -4q33 -23 56 -42q34 -25 50 -42q19 -16 27 -30q6 -10 10 -20q4 -9 4 -21q-1 -26 -18 -26q-7 0 -13 4q-7 6 -26 42q-23 37 -47 64q-25 29 -63 62q-8 -33 -18 -61q-16 -34 -36 -66q-20 -36 -40 -63
q-13 -18 -27 -37q36 -7 90 -7h66l40 40q32 -20 59 -42q7 -4 7 -8q0 -16 -14 -16h-118v-156h66l44 44q34 -25 62 -46q8 -5 8 -10q0 -18 -12 -18h-168v-309q9 3 16 7q58 25 134 64l4 -22q-61 -42 -109 -65q-53 -29 -100 -50q-43 -20 -91 -35q-9 -36 -14 -36q-8 0 -48 80
q64 11 118 26q20 5 40 15v325h-60q-70 -1 -94 -4l-22 44q44 -10 116 -10h60v156q-63 -1 -88 -6l-9 23q-21 -28 -47 -45l-14 18q29 29 53 61q20 29 43 65q22 38 38 74q13 35 22 66q10 27 16 62zM54 386q30 -32 46 -67q16 -21 25 -47q5 -20 5 -36q0 -10 -4 -22
q-10 -14 -18 -14q-10 0 -18 5q-6 11 -6 25q-5 52 -14 81q-9 26 -28 65zM336 402q42 -19 70 -40q6 -2 6 -8t-12 -10q-16 -6 -28 -8q-8 -18 -18 -33q-10 -20 -20 -33q-9 -15 -24 -33q-12 -13 -26 -29l-14 14q16 24 26 48q9 21 17 46q10 26 16 45q5 23 7 41zM902 950
q40 -32 77 -61q7 -5 7 -13q0 -14 -14 -14h-472v-776h348l50 60q42 -32 80 -59q8 -7 8 -15q0 -14 -14 -14h-472v-16q0 -14 -22 -14q-8 0 -20 6q-12 10 -12 24q0 16 4 46q6 23 6 96v666q0 39 -10 66l62 -44h344zM554 720l60 -44h98v84q0 55 -4 80q48 -7 79 -20q13 -5 13 -16
q0 -9 -10 -12q-15 -8 -30 -10v-106h98l34 44q36 -20 51 -42q7 -8 7 -14q0 -8 -40 -32v-300q0 -32 -13 -51q-10 -15 -32 -25q-16 -12 -29 -12q0 25 -7 33q-5 13 -18 24q-13 10 -33 13v22q36 -16 66 -16q13 0 17 6q5 5 5 28v296h-106v-494q0 -18 -30 -18q-22 0 -22 22
q0 14 2 32q2 22 2 38v420h-106v-406q0 -12 -18 -12q-9 0 -24 6q-10 8 -10 24t3 46q5 22 5 96v250q0 39 -8 66z" />
  </g>

</svg>
