<?xml version="1.0" standalone="no"?>
<!DOCTYPE svg PUBLIC "-//W3C//DTD SVG 1.1//EN" "http://www.w3.org/Graphics/SVG/1.1/DTD/svg11.dtd" >
<svg xmlns="http://www.w3.org/2000/svg" xmlns:xlink="http://www.w3.org/1999/xlink" version="1.1" viewBox="0 -204 1024 1024">
  <g transform="matrix(1 0 0 -1 0 820)">
   <path fill="currentColor"
d="M204 958q47 -9 80 -23q8 -3 8 -11q0 -9 -20 -13q-16 -4 -29 -5q38 -27 64 -50q34 -26 52 -46q20 -20 28 -31q7 -12 11 -25q4 -10 4 -20q-1 -30 -18 -30q-8 0 -13 5q-7 6 -30 46q-20 40 -47 73q-26 29 -64 62q-9 -26 -17 -51q-14 -34 -34 -65q-19 -35 -38 -61
q-17 -25 -39 -49q-1 -2 -3 -3q42 -7 105 -7h58l40 44q34 -25 62 -46q8 -5 8 -10q0 -18 -14 -18h-118v-138h56l44 44q32 -25 59 -46q9 -5 9 -10q0 -18 -14 -18h-154v-309q17 4 34 9q62 18 142 44l4 -18q-67 -34 -118 -51q-53 -23 -102 -37q-46 -18 -98 -30q-10 -36 -16 -36
t-46 80q69 8 123 22q13 3 27 6v320h-34q-71 -1 -98 -4l-18 44q43 -10 116 -10h34v138q-60 -1 -82 -4l-17 33q-16 -21 -37 -37l-14 20q29 28 49 59q22 30 41 64q22 37 38 72q12 34 21 64q9 26 15 63zM72 394q28 -37 48 -76q14 -25 23 -54q9 -22 9 -38q0 -11 -8 -23
q-9 -11 -16 -11t-14 4q-6 8 -6 22q-8 59 -18 92q-8 31 -32 76zM328 408q42 -17 68 -38q6 -4 6 -10q0 -4 -10 -8q-14 -5 -28 -6q-9 -21 -16 -37q-7 -21 -17 -35q-8 -16 -21 -35q-11 -14 -22 -31l-14 14q13 25 21 50q7 22 14 47q7 28 13 48q4 24 6 41zM584 950l58 -34h176
l30 34q50 -33 50 -44t-28 -30v-174q15 -9 24 -17q4 -3 4 -9q0 -16 -6 -16h-260v-6q0 -9 -12 -15q-17 -7 -24 -7q-12 0 -12 14v304zM632 690h190v198h-190v-198zM456 804q46 -8 75 -16q13 -3 13 -10q0 -6 -9 -9q-14 -9 -27 -13v-146q0 -25 2 -32q2 -16 2 -30h314l28 32
q52 -31 52 -44q0 -9 -26 -28v-144h8l40 40q29 -20 55 -42q7 -3 7 -8q0 -18 -10 -18h-313q-4 -17 -11 -28q-14 -52 -39 -91q-26 -44 -57 -76q-37 -37 -86 -65q-45 -26 -102 -48l-14 22q84 35 125 67q39 31 71 73t48 91q10 27 18 55h-76q-72 -1 -98 -4l-20 44q44 -12 118 -12
h82q2 10 3 21q6 50 7 137h-138q-10 -4 -20 -4q-22 0 -22 14t2 36q2 20 2 38v128q0 48 -4 70zM686 522q-1 -64 -6 -113q-3 -23 -7 -45h157v158h-144zM738 274q62 -35 108 -69q47 -30 74 -55q24 -20 37 -37q11 -13 17 -26t6 -25q-1 -30 -22 -30q-10 0 -18 6q-8 8 -40 55
q-31 46 -67 83q-38 38 -107 86z" />
  </g>

</svg>
