<?xml version="1.0" standalone="no"?>
<!DOCTYPE svg PUBLIC "-//W3C//DTD SVG 1.1//EN" "http://www.w3.org/Graphics/SVG/1.1/DTD/svg11.dtd" >
<svg xmlns="http://www.w3.org/2000/svg" xmlns:xlink="http://www.w3.org/1999/xlink" version="1.1" viewBox="0 -140 1000 1000">
  <g transform="matrix(1 0 0 -1 0 860)">
   <path fill="currentColor"
d="M501 869l65 -34q199 36 280 80l71 -52l-10 -12l-35 5q-113 -38 -309 -51q-50 -147 -154 -235l-12 9q90 129 104 290zM451 492h292v147l96 -21v-16l-32 -10v-100h46l38 44h12l49 -50v-17h-145v-282q0 -105 -104 -119l-10 7v29l-100 33v17l88 -6q3 -1 14 -1q29 0 38.5 13
t9.5 48v261h-292v23zM337 894l-7 -17l-41 -3l-12 -30q81 -43 105 -64.5t24 -59.5q0 -32 -21 -32q-15 0 -29 30q-26 58 -87 111q-74 -161 -196 -266l-10 14q139 170 164 351zM151 625h145l28 39h17l45 -46v-16h-98v-122h36l30 45l17 -1l42 -50v-17h-125v-191l74 141l69 -48
l-4 -12h-35l-104 -123v-33l111 25l4 -17l-270 -106l-5 -26l-14 -5l-40 84l150 32v279h-141v23h141v122h-73v23zM97 369l13 10q97 -79 97 -136q0 -36 -29 -36q-28 0 -36 42q-12 60 -17.5 75t-27.5 45zM592 759l9 10q105 -69 105 -127q0 -19 -9.5 -32t-22.5 -13q-31 0 -37 63
q-5 54 -45 99zM766 794l11 11q92 -65 122.5 -98t30.5 -69q0 -18 -7.5 -29t-18.5 -11q-29 0 -48 57q-19 58 -90 139zM529 423l11 8q84 -84 84 -143q0 -44 -31 -44q-32 0 -35 50q-4 65 -7.5 81t-21.5 48z" />
  </g>

</svg>
