<?xml version="1.0" standalone="no"?>
<!DOCTYPE svg PUBLIC "-//W3C//DTD SVG 1.1//EN" "http://www.w3.org/Graphics/SVG/1.1/DTD/svg11.dtd" >
<svg xmlns="http://www.w3.org/2000/svg" xmlns:xlink="http://www.w3.org/1999/xlink" version="1.1" viewBox="0 -140 1000 1000">
  <g transform="matrix(1 0 0 -1 0 860)">
   <path fill="currentColor"
d="M537 429h267l33 32h17l52 -40v-15l-21 -19v-313l-5 -14l-47 -10l-10 9l-1 43h-297v-35l-6 -8l-51 -5l-7 8v396zM822 407h-297v-130h297v130zM822 254h-297v-130h297v130zM422 797h105l27 25h14l54 -55l-4 -14l-26 -11q-25 -79 -60.5 -130t-108.5 -110l-12 11
q51 53 78 111.5t43 150.5l-110 -1v23zM649 932l102 -19v-15l-38 -18v-45q21 -58 56 -124l95 151l66 -55l-9 -13l-28 6l-112 -107q36 -62 69 -94.5t97 -69.5l-6 -12q-31 0 -44.5 -5t-27.5 -25q-51 54 -78 100t-62 143l-16 43v-218q0 -47 -16.5 -65.5t-67.5 -28.5l-13 9l-1 28
l-78 21l2 15l70 -4q12 0 17.5 0.5t12 4t8.5 11t2 20.5v366zM326 891l-5 -17l-36 -6q-4 -10 -12 -29q21 -12 37 -20q51 -26 71.5 -49t20.5 -54q0 -33 -23 -33q-13 0 -27 30q-26 60 -87 111q-74 -161 -196 -266l-10 14q63 75 107.5 168t56.5 183zM150 622l145 -1l30 42h16
l44 -46v-17h-97v-122h37l30 39h15l43 -45v-16h-125v-193l72 138l68 -47l-5 -12l-28 -2l-107 -118v-34l111 25l1 -16l-267 -106l-8 -25l-15 -5l-36 82l150 33v280h-141v22h141v122h-74v22zM90 364l7 10q58 -40 80 -64.5t22 -56.5q0 -45 -30 -45q-10 0 -19 8.5t-10 19.5
q-7 55 -16 78t-34 50z" />
  </g>

</svg>
