<?xml version="1.0" standalone="no"?>
<!DOCTYPE svg PUBLIC "-//W3C//DTD SVG 1.1//EN" "http://www.w3.org/Graphics/SVG/1.1/DTD/svg11.dtd" >
<svg xmlns="http://www.w3.org/2000/svg" xmlns:xlink="http://www.w3.org/1999/xlink" version="1.1" viewBox="0 -204 1024 1024">
  <g transform="matrix(1 0 0 -1 0 820)">
   <path fill="currentColor"
d="M218 958q54 -10 91 -26q9 -3 9 -12q0 -7 -20 -13q-19 -4 -38 -5q34 -24 58 -46q34 -26 55 -46q17 -20 26 -31q8 -12 12 -25q5 -10 5 -20q-1 -30 -22 -30q-7 0 -11 5q-7 6 -30 46q-20 40 -49 73q-20 27 -54 56q-8 -25 -20 -48q-16 -33 -34 -64q-24 -34 -42 -60
q-21 -25 -42 -49l-3 -3q41 -6 99 -6h72l38 44q32 -25 62 -46q6 -5 6 -10q0 -18 -10 -18h-118v-138h60l46 44q30 -25 60 -46q6 -5 6 -10q0 -18 -10 -18h-162v-305q8 2 16 5q62 18 142 44l4 -18q-67 -34 -118 -51q-53 -23 -102 -37q-46 -18 -98 -30q-10 -36 -16 -36t-46 80
q69 8 123 22q22 4 49 10v316h-56q-71 -1 -98 -4l-18 44q43 -10 116 -10h56v138h-4q-72 -1 -96 -4l-15 31q-18 -21 -39 -35l-18 26q32 26 54 57q24 29 45 62q24 37 40 72q17 34 26 63q8 26 13 62zM80 394q31 -37 49 -76q16 -25 27 -54q8 -22 8 -38q0 -11 -6 -23
q-11 -11 -20 -11q-7 0 -12 4q-6 8 -6 22q-7 59 -19 92q-10 31 -33 76zM350 408q42 -17 72 -38q4 -4 4 -10q0 -4 -8 -8q-18 -5 -32 -6q-5 -21 -13 -37q-9 -21 -21 -35q-8 -16 -19 -35q-12 -14 -27 -31l-10 14q11 25 19 50q11 22 18 47q8 28 11 48q4 24 6 41zM654 950
q23 -16 38 -32q20 -13 31 -27t15 -22q4 -10 4 -21q0 -18 -5 -26h161l30 32q33 -24 59 -52q3 -2 3 -6q0 -8 -17 -11t-31 -7q-10 -19 -29 -36q-17 -22 -33 -38l-18 12q16 23 24 40q9 21 12 36h-395q-1 -19 -4 -39q-4 -28 -14 -49q-6 -16 -16 -29q-7 -11 -15 -15q-9 -2 -16 -2
q-22 0 -22 14q0 10 10 23q27 31 38 52q11 23 18 48q6 27 10 71h12v-44h196q-1 4 -2 7q-4 18 -13 38q-7 17 -18 35q-11 15 -27 36zM562 632v-172h260v172h-260zM562 434v-116h300l30 32q50 -32 50 -44t-28 -30v-155q10 -5 17 -11q5 -2 5 -6q0 -14 -8 -14h-366v-48
q0 -14 -18 -14q-9 0 -24 6q-8 10 -8 24q0 16 1 46q5 23 5 96v436q0 39 -6 68l58 -44h248l30 34q50 -33 50 -44t-28 -30v-155q10 -5 17 -11q5 -2 5 -6q0 -14 -8 -14h-322zM562 116h304v172h-304v-172z" />
  </g>

</svg>
