<?xml version="1.0" standalone="no"?>
<!DOCTYPE svg PUBLIC "-//W3C//DTD SVG 1.1//EN" "http://www.w3.org/Graphics/SVG/1.1/DTD/svg11.dtd" >
<svg xmlns="http://www.w3.org/2000/svg" xmlns:xlink="http://www.w3.org/1999/xlink" version="1.1" viewBox="0 -140 1000 1000">
  <g transform="matrix(1 0 0 -1 0 860)">
   <path fill="currentColor"
d="M853 894l55 -46v-12l-23 -21v-201l-5 -13l-49 -15l-9 8l1 29h-295l-1 -25l-7 -12l-42 -10l-12 8v315l65 -25h288l21 20h13zM896 139l56 -51v-13l-614 -1v23h310v152h-205v23h205v127h-141q-35 -59 -87 -105l-8 10q67 103 95 255l88 -27l-2 -15l-33 -10l-40 -85h128v171
l91 -15v-12l-29 -21v-123h135l33 36h11l47 -47v-12h-226v-127h110l35 38h15l51 -49v-12h-211v-152h134l39 42h13zM316 892l-30 -10q-5 -16 -15 -38q78 -43 105 -71.5t27 -64.5q0 -18 -7.5 -32.5t-17.5 -14.5q-13 0 -40 58q-27 55 -77 101q-95 -176 -211 -264l-10 11
q142 161 188 373l89 -35zM393 522l46 -50v-11h-159v-294l150 26l1 -15l-312 -104l-11 -40l-12 -1l-47 90l170 30v308h-156v22h156v108h-88v22h170l33 34h10l49 -44v-12h-113v-108l70 1l33 38h10zM96 365l9 10q101 -104 101 -159q0 -17 -9 -31t-20 -14q-22 0 -29 43
q-11 62 -19 85.5t-33 65.5zM528 753h295v99h-295v-99zM528 645h295v86h-295v-86zM306 190l-14 7q12 30 47 141l13 48l69 -48l-5 -11l-28 -5q-36 -66 -82 -132z" />
  </g>

</svg>
