<?xml version="1.0" standalone="no"?>
<!DOCTYPE svg PUBLIC "-//W3C//DTD SVG 1.1//EN" "http://www.w3.org/Graphics/SVG/1.1/DTD/svg11.dtd" >
<svg xmlns="http://www.w3.org/2000/svg" xmlns:xlink="http://www.w3.org/1999/xlink" version="1.1" viewBox="0 -120 1000 1000">
  <g transform="matrix(1 0 0 -1 0 880)">
   <path fill="currentColor"
d="M431 244l-311 -121l-13 -25q-6 -12 -13 -12q-5 0 -12 12l-45 82l176 34v296h-145l-18 28h163v137h-102l-63 -65l-14 13q59 81 92 146q38 78 70 193l87 -24q17 -4 17 -15q0 -9 -11 -13l-16 -7q79 -38 109 -66q25 -23 25 -57q0 -39 -26 -39q-9 0 -16 7q-6 5 -23 36
q-37 66 -93 103q-51 -101 -114 -184h138l36 48l69 -56v-20h-105v-137h56l33 50l70 -60v-18h-159v-286l155 39zM98 473q25 -23 40 -42q49 -64 49 -120q0 -27 -19 -43q-9 -8 -18 -8q-12 0 -20 12q-6 10 -6 20l-2 51q-7 80 -40 117zM291 281q46 127 58 202l64 -31q17 -8 17 -18
q0 -12 -17 -14l-15 -1q-18 -37 -88 -147zM356 79q8 4 47 20q27 11 85 49q70 46 105 85l65 -41q12 -7 12 -16q0 -10 -20 -10h-34q-113 -77 -254 -105zM459 936q61 -22 103 -61q38 -35 38 -72q0 -22 -14 -34q-10 -9 -22 -9q-16 0 -26 31q-24 74 -87 133zM476 216v530l73 -35
h101v249l75 -5q15 -1 15 -10q0 -8 -9 -12l-21 -10v-212h102l33 47l61 -49q12 -9 12 -15t-12 -13l-21 -13v-427l-63 -13v31h-285v-31zM537 287h285v124h-285v-124zM537 548v-109h285v109h-285zM537 683v-107h285v107h-285zM743 228q75 -18 147 -61q55 -34 55 -71
q0 -16 -11 -26q-10 -8 -21 -8q-9 0 -13 3q-16 10 -50 54q-22 27 -113 98zM744 754q60 106 91 185l72 -39q15 -8 15 -17q0 -12 -18 -15l-27 -4q-9 -9 -47 -50q-19 -20 -72 -68z" />
  </g>

</svg>
