<?xml version="1.0" standalone="no"?>
<!DOCTYPE svg PUBLIC "-//W3C//DTD SVG 1.1//EN" "http://www.w3.org/Graphics/SVG/1.1/DTD/svg11.dtd" >
<svg xmlns="http://www.w3.org/2000/svg" xmlns:xlink="http://www.w3.org/1999/xlink" version="1.1" viewBox="0 -410 2048 2048">
  <g transform="matrix(1 0 0 -1 0 1638)">
   <path fill="currentColor"
d="M456 1277v-281h79l86 91l124 -95q17 -13 17 -24q0 -26 -27 -26h-279v-594q162 42 260 74l13 -39q-138 -71 -495 -188l-36 -12l-11 -43q-8 -32 -23 -32q-13 0 -31 32l-70 130q145 23 297 56v616h-93q-67 0 -148 -13l-40 87q123 -20 188 -20h93v281h-13q-68 0 -149 -11
l-33 73q-37 -35 -110 -91l-24 29q165 155 262 348q82 165 107 319l121 -32q53 -14 53 -35q0 -24 -39 -29l-26 -4q283 -203 283 -308q0 -64 -50 -64q-28 0 -49 25q-10 12 -34 64q-52 113 -187 249l-5 -10q-88 -209 -158 -304q-50 -69 -131 -147q107 -15 169 -15h143l85 90
l124 -95q17 -13 17 -26q0 -26 -27 -26h-233zM1557 1689q72 91 129 210l109 -76q23 -15 23 -32q0 -8 -9 -15q-14 -12 -29 -10h-4l-48 3q-16 -14 -58 -54q-65 -52 -85 -65q50 -66 101 -119q7 7 23 22q66 62 124 153l100 -80q23 -18 23 -35q0 -23 -36 -23h-7l-48 6
q-20 -12 -69 -47q-23 -16 -64 -38q116 -93 263 -138l-4 -35q-23 3 -34 3q-72 0 -114 -59q-153 116 -256 266q-69 101 -107 180q-40 83 -63 127l40 20q56 -97 100 -164zM930 1320q15 -2 39 -5q45 -6 100 -6h34l61 72l72 -47q42 -27 42 -50q0 -16 -65 -52v-218l32 -30
q12 -11 12 -20q0 -22 -21 -22h-275l-49 -252h172l68 75l84 -54q40 -25 40 -48q0 -28 -78 -62q-33 -256 -58 -325q-50 -139 -219 -172q-3 46 -22 65q-24 24 -124 61l11 42q127 -37 164 -37q81 0 115 126q21 75 38 275h-214q-19 -11 -38 -11q-40 0 -40 26q0 14 6 38
q34 116 72 366l98 -59h136v255h-54q-69 0 -148 -10l-25 55q-28 -17 -98 -59l-23 39q159 113 250 222q-7 -1 -12 -1q-21 0 -48 64q-20 47 -131 128l16 26q94 -34 138 -61q71 -45 75 -107l13 19q68 96 131 235h-138q-69 0 -148 -11l-40 86q123 -17 188 -17h122l72 72l103 -79
q18 -14 18 -34q0 -25 -26 -31l-45 -11q-93 -183 -190 -286q-90 -96 -193 -170zM120 826q175 -194 175 -309q0 -46 -33 -67q-15 -10 -30 -10q-36 0 -41 81q-5 86 -33 158q-10 24 -66 127zM1324 690l-21 -4l-40 84q121 -17 188 -17h224l69 76l84 -54q40 -26 40 -49
q0 -27 -78 -61q-54 -136 -115 -227q60 -65 86 -96q91 -107 91 -183q0 -37 -27 -54q-11 -7 -23 -7q-27 0 -49 27q-9 10 -33 66q-26 63 -102 175q-141 -154 -435 -276l-14 37q283 149 397 311q-115 145 -242 252zM1381 694q120 -81 231 -190q47 85 83 193h-244q-18 0 -70 -3z
M627 836l136 -47q31 -10 31 -27q0 -20 -26 -26l-58 -13q-102 -169 -181 -260l-32 18q84 170 130 355zM1365 1363l109 -73h118l61 73l72 -53q42 -31 42 -49q0 -15 -65 -51v-188q0 -72 77 -72q39 0 90 16q18 6 33 6q24 0 41 -21q17 -20 17 -42q0 -55 -163 -55q-119 0 -155 35
q-30 30 -30 117v226h-159q-2 -166 -29 -235q-37 -96 -158 -193l-23 26q68 85 94 169q28 89 28 238v126z" />
  </g>

</svg>
