<?xml version="1.0" standalone="no"?>
<!DOCTYPE svg PUBLIC "-//W3C//DTD SVG 1.1//EN" "http://www.w3.org/Graphics/SVG/1.1/DTD/svg11.dtd" >
<svg xmlns="http://www.w3.org/2000/svg" xmlns:xlink="http://www.w3.org/1999/xlink" version="1.1" viewBox="0 -200 1000 1000">
  <g transform="matrix(1 0 0 -1 0 800)">
   <path fill="currentColor"
d="M660 556v-92h53v91zM660 575h53v82h-53v-82zM802 555h-43v-91h43v91zM802 342v101h-43v-101h43zM660 342h54v100h-54v-100zM564 321l-29 -11l-23 32h103v100h-47l-38 -13l-16 24q-4 -39 -12.5 -86t-21 -96t-30 -97t-39.5 -90t-49 -74.5t-58 -49.5l-18 -10q29 31 54 73.5
t45 88t34 90.5t21 81q12 63 22.5 199t12.5 339l-52 -12l-26 36h244v62l-14 64l90 -26l-28 -74v-26h122l33 44l63 -67h-147l51 -45l-27 -20l-57 -79h79l35 42l54 -62h-136v-83h36l20 36l56 -36l-23 -30v-81h18l22 30q13 -17 25 -27t19 -24h-84v-122h-70q18 -48 43 -90
t54 -74.5t60.5 -54.5t61.5 -30l1 -4q-8 0 -21.5 -1t-28 -4t-28 -8t-22.5 -14q-22 17 -41.5 45.5t-36.5 64.5t-31 78.5t-24 87.5l-6 4v-296q-5 -13 -18.5 -20t-26.5 -11v327h-54v-294q-1 -9 -15 -20t-31 -13v228q-9 -30 -31.5 -62t-52.5 -62t-65 -54.5t-69 -38.5h-9
q27 22 56.5 50.5t58 66t54 86.5t44.5 113h-36zM590 809q86 -59 86 -95q0 -18 -20 -35h53q18 42 29.5 75.5t16.5 67.5h-268l63 -40l-23 -54q0 -6 -1.5 -12t-1.5 -10q0 -6 1 -9.5t1 -8.5q0 -9 -1 -10h114q-2 28 -14 58t-35 73zM534 575h81v82h-35l-31 -14l-27 30
q-2 -60 -4.5 -115.5t-4.5 -93.5h102v92h-27l-31 -19zM323 667l68 -73h-141v-170h59l47 48l62 -71h-168v-219q14 25 39.5 70.5t46.5 111.5l62 -63l-32 -23l-116 -132v-52l176 53l3 -16q-46 -19 -95 -40t-95 -41.5t-86 -40.5t-67 -37l-61 63q19 3 43.5 8.5t49 12t47.5 13.5
t38 12v320h-76l-51 -11l-22 34h149v170h-83q-24 -33 -49 -64t-51 -49l-7 8q37 51 69 110t58.5 121t46 125t31.5 123l67 -43l-31 -39l-7 -20q79 -34 126.5 -67.5t48.5 -55.5q1 -1 1 -11q0 -15 -7.5 -32.5t-19.5 -17.5t-22 18q-13 24 -26 43t-28 36.5t-33.5 34.5t-43.5 37
q-26 -61 -50.5 -120t-57.5 -113h140zM85 324q40 -48 59 -82t19 -61q0 -28 -21 -53q-11 -14 -18 -14q-13 0 -16 42q-2 35 -11 75t-23 86z" />
  </g>

</svg>
