<?xml version="1.0" standalone="no"?>
<!DOCTYPE svg PUBLIC "-//W3C//DTD SVG 1.1//EN" "http://www.w3.org/Graphics/SVG/1.1/DTD/svg11.dtd" >
<svg xmlns="http://www.w3.org/2000/svg" xmlns:xlink="http://www.w3.org/1999/xlink" version="1.1" viewBox="0 -204 1024 1024">
  <g transform="matrix(1 0 0 -1 0 820)">
   <path fill="currentColor"
d="M200 960q47 -7 80 -20q8 -2 8 -12q0 -9 -20 -13q-13 -3 -23 -4q22 -16 41 -34q26 -20 43 -38q13 -14 21 -24q5 -12 9 -21q5 -7 5 -16q-3 -30 -22 -30q-4 0 -9 4q-5 5 -24 39q-16 35 -39 59q-15 22 -43 49q-9 -30 -18 -56q-16 -32 -36 -65q-20 -35 -40 -61
q-12 -17 -28 -32q39 -9 95 -9h58l40 44q34 -22 61 -46q9 -4 9 -10q0 -14 -14 -14h-128v-136h32l44 44q34 -25 62 -46q8 -6 8 -12q0 -14 -14 -14h-132v-311q15 4 28 9q55 17 130 48l2 -18q-58 -36 -104 -58q-51 -23 -96 -41q-42 -17 -88 -29q-10 -36 -14 -36q-8 0 -48 80
q62 9 114 21q14 3 28 8v327h-36q-69 -1 -96 -4l-18 44q43 -12 114 -12h36v136q-53 -1 -76 -4l-10 22q-22 -26 -50 -48l-14 22q29 26 53 57q20 30 43 64q20 37 38 72q13 34 22 64q10 26 16 61zM58 426q19 -23 31 -43q15 -23 26 -40q10 -21 13 -34q2 -15 2 -29q0 -18 -4 -31
q-9 -13 -24 -13q-4 0 -7 6q-3 4 -6 26q-3 25 -8 50q-7 26 -15 46q-10 24 -24 48zM324 430q42 -21 68 -38q6 -4 6 -12q0 -6 -10 -9q-14 -5 -30 -7q-7 -15 -15 -33q-7 -16 -17 -31q-10 -16 -23 -30q-10 -14 -23 -30l-14 12q14 25 23 49q9 20 14 45q8 23 13 45q6 20 8 39z
M588 964q23 -9 44 -21t35 -22q15 -9 18 -17q5 -7 5 -16q0 -18 -6 -29q-2 -3 -3 -5h177l48 52q36 -29 69 -53q7 -6 7 -13q0 -14 -10 -14h-468q-72 -1 -96 -4l-22 44q44 -12 118 -12h143q-2 4 -4 11q-4 14 -15 31q-12 15 -24 27q-11 15 -34 31zM580 810q21 -15 41 -28
q19 -13 31 -27q15 -11 19 -20q5 -8 5 -19q0 -7 -1 -11q11 -3 20 -7q3 4 5 8q12 21 21 42q7 24 13 45q3 11 4 25q39 -13 72 -29q4 -3 4 -7q0 -7 -10 -11q-21 -7 -36 -7q-7 -14 -15 -26q-10 -16 -20 -30q-8 -11 -18 -21q-2 -3 -3 -3q-3 -10 -14 -16v-142q0 -20 -8 -32
q-8 -14 -21 -24q-16 -12 -33 -18q-1 29 -5 37q-4 9 -11 13q-18 14 -36 20v18q27 -18 52 -18q8 0 11 7q3 5 3 19v84q0 28 -1 50q-6 1 -9 4q-3 2 -6 16q-5 16 -17 33q-9 15 -20 32q-10 14 -31 29zM390 730q39 -10 114 -10h32l26 28q33 -14 48 -33q4 -5 4 -11t-6 -14
q-9 -8 -16 -14q0 -50 -6 -89q-5 -37 -14 -59q-5 -17 -20 -33q-13 -11 -38 -17q-3 20 -12 28q-14 12 -38 20l6 22q18 -8 38 -8q7 0 15 7q11 8 13 25q8 42 8 122h-49q-3 -32 -9 -55q-4 -31 -13 -57q-7 -28 -18 -51q-12 -20 -28 -39q-16 -18 -41 -36l-10 18q17 19 27 40
q12 17 20 40l10 38q5 24 9 53q2 19 3 48q-28 -1 -37 -3zM914 712q-16 -8 -31 -12q7 -34 13 -52q7 -27 17 -46q10 -20 25 -38q13 -21 28 -31q12 -10 24 -15v-10q-50 0 -58 -30q-14 15 -24 36q-12 19 -19 49q-10 27 -18 61q-6 33 -11 69l-9 -3q-17 -6 -38 -11l-3 -7v-135
q9 3 17 6q20 7 43 19l6 -22l-23 -23q-10 -12 -19 -19q-10 -8 -20 -12q-9 -34 -14 -34q-8 0 -44 74q5 1 8 1v207l51 -29q23 10 40 26q22 16 33 39q46 -25 70 -42q10 -6 10 -12q0 -10 -14 -12q-4 0 -16 4q-7 4 -24 4zM474 456q44 -5 80 -15q8 -2 8 -11q0 -7 -14 -14
q-9 -5 -22 -8v-36h296v4q0 55 -4 80q49 -7 81 -20q11 -5 11 -16q0 -9 -9 -12q-12 -8 -31 -10v-352q0 -22 -26 -22t-26 26q0 12 2 30q2 22 2 36v102h-305q-6 -43 -20 -74q-19 -37 -37 -59q-23 -30 -74 -67l-10 14q36 35 53 73q17 29 29 66q11 31 14 64q6 37 6 118
q0 70 -4 103zM822 244v102h-296v-46q0 -26 -4 -56h300z" />
  </g>

</svg>
