<?xml version="1.0" standalone="no"?>
<!DOCTYPE svg PUBLIC "-//W3C//DTD SVG 1.1//EN" "http://www.w3.org/Graphics/SVG/1.1/DTD/svg11.dtd" >
<svg xmlns="http://www.w3.org/2000/svg" xmlns:xlink="http://www.w3.org/1999/xlink" version="1.1" viewBox="0 -140 1000 1000">
  <g transform="matrix(1 0 0 -1 0 860)">
   <path fill="currentColor"
d="M930 398h-208v-79h97l26 33h12l39 -40v-15h-174v-68h105l26 31h13l39 -40v-13h-183v-80h140l30 34h13l39 -41v-15h-416v-26l-6 -7l-49 -15l-8 5v260q-47 -52 -94 -87l-11 11q82 89 157 284l76 -40l-2 -12l-25 -5q-5 -7 -33 -53h137l39 99l70 -36l-5 -14h-30l-35 -49h136
l29 31l13 1l43 -39v-15zM658 319v79h-130v-79h130zM658 127v80h-130v-80h130zM658 229v68h-130v-68h130zM397 807v22h116v100l93 -13v-14l-29 -12v-61h120v96l88 -11v-12l-24 -15v-58h80l29 34h14l44 -44v-12h-167v-55l-8 -9l-45 -11l-11 4v71h-120v-68l-7 -6l-47 -12l-10 4
v82h-116zM479 691h88l27 22h12l46 -37v-12l-18 -15v-109l-7 -7l-46 -14l-8 5v32h-94v-37l-9 -7l-48 -12l-7 6v207zM573 579v89h-94v-89h94zM836 691l27 22h14l40 -35v-12l-17 -14v-107l-7 -7l-48 -10l-9 7v21h-92q0 -10 -5 -21l-47 -11l-8 4v182l58 -19h94zM836 579v89h-92
v-89h92zM67 464v22h131v127h-68q-17 -20 -59 -65l-12 8q55 87 86.5 168.5t64.5 199.5l86 -30l-2 -15l-28 -6l-7 -19q81 -35 112.5 -60t31.5 -48q0 -42 -26 -42q-12 0 -24 18q-35 54 -48 68.5t-53 45.5q-56 -119 -109 -201h142l30 38h13l48 -44v-16h-114v-127h50l37 42h13
l50 -49l-1 -15h-149v-203l81 164l70 -45l-3 -13h-22l-126 -147v-58l163 34l3 -18l-312 -102l-4 -26l-16 -2l-29 79l131 23v314h-131zM70 389l13 11q25 -27 52 -66q25 -35 32.5 -50.5t7.5 -33.5t-8.5 -30.5t-20.5 -12.5q-29 0 -37 74q-5 47 -39 108z" />
  </g>

</svg>
