<?xml version="1.0" standalone="no"?>
<!DOCTYPE svg PUBLIC "-//W3C//DTD SVG 1.1//EN" "http://www.w3.org/Graphics/SVG/1.1/DTD/svg11.dtd" >
<svg xmlns="http://www.w3.org/2000/svg" xmlns:xlink="http://www.w3.org/1999/xlink" version="1.1" viewBox="0 -410 2048 2048">
  <g transform="matrix(1 0 0 -1 0 1638)">
   <path fill="currentColor"
d="M901 1312q183 -68 183 -156q0 -30 -31 -52h275l68 77l83 -54q41 -27 41 -49q0 -31 -80 -60v-140q0 -24 7 -106q4 -54 4 -58q0 -18 -19 -31t-43 -13q-46 0 -46 25v11h-638v-363q177 38 367 103l15 -34q-105 -67 -368 -167l-4 -35q-4 -41 -32 -41q-25 0 -52 57l-45 95l23 3
v707q0 19 -5 76l-3 57l104 -60h306q-17 15 -26 49q-20 74 -103 132zM705 1046v-108h638v108h-638zM705 878v-116h638v116h-638zM1317 456q96 -77 123 -111q40 -48 40 -89q0 -56 -48 -56q-26 0 -52 41q-90 138 -203 229q-65 53 -205 140l17 30q123 -53 155 -72
q106 -64 139 -82q120 81 199 211l80 -57q51 -36 51 -56q0 -21 -41 -21l-38 1h-23q-108 -67 -194 -108zM176 1927l114 -76h470l68 76l80 -55q40 -27 40 -45q0 -24 -77 -63v-260l5 -53l2 -50q7 -43 7 -51q0 -42 -69 -42q-41 0 -41 25v17h-493v-1238q0 -32 -45 -32
q-64 0 -60 56l4 61l3 80l4 76v1433q0 33 -12 141zM282 1406h493v169h-493v-169zM282 1632h493v161h-493v-161zM1170 1915l107 -64h476l68 76l83 -55q41 -26 41 -48q0 -31 -80 -61v-1506q0 -138 -155 -170q-12 72 -47 94q-23 14 -152 42v46q164 -27 201 -27q58 0 58 57v1051
h-509v-7q0 -38 -50 -38q-51 0 -51 35v14q10 105 10 151v410zM1261 1406h509v169h-509v-169zM1261 1632h509v161h-509v-161z" />
  </g>

</svg>
