<?xml version="1.0" standalone="no"?>
<!DOCTYPE svg PUBLIC "-//W3C//DTD SVG 1.1//EN" "http://www.w3.org/Graphics/SVG/1.1/DTD/svg11.dtd" >
<svg xmlns="http://www.w3.org/2000/svg" xmlns:xlink="http://www.w3.org/1999/xlink" version="1.1" viewBox="0 -200 1000 1000">
  <g transform="matrix(1 0 0 -1 0 800)">
   <path fill="currentColor"
d="M353 408v-109h260v121h-247zM342 581q58 -23 89 -51.5t31 -53.5q0 -17 -16 -36h64q32 45 49 82t26 63q27 -20 41 -30t22 -18l-27 -10q-30 -22 -51.5 -44.5t-35.5 -42.5l77 2l30 36l60 -42l-32 -33v-124h-134l51 -26l-22 -49v-53q1 -13 5 -19.5t10 -9.5t14 -3.5t18 -1.5
h58q17 3 24.5 30t9.5 84l11 1v-16q0 -42 8.5 -61.5t19 -28t19 -11t8.5 -10.5q0 -6 -9 -10.5t-22 -8.5t-29 -6.5t-29 -3.5h-98q-27 0 -45.5 11t-23.5 36v156h-92l56 -51l-31 -30q-14 -25 -37.5 -51.5t-54.5 -49.5t-68 -39t-78 -20l-12 4q37 15 74.5 37.5t67.5 52.5t49 66.5
t19 80.5h-53v-19q-26 -23 -57 -23v236l75 -33h49l-4 17q-1 16 -7 34t-15 34.5t-21 31t-25 23.5zM631 908h195l40 42l65 -47l-33 -39l1 -784q0 -39 -22.5 -66t-79.5 -47v6q0 35 -22.5 52.5t-71.5 28.5l-7 11q23 -4 42 -6t33 -2q34 0 48.5 12t19.5 39v522h-292v308zM603 781
h236v104h-222l-14 -19v-85zM603 655h236v103h-236v-103zM160 907h216l44 43l58 -53l-33 -33v-233h-301v-627q-6 -27 -57 -36v978zM144 655h244v103h-244v-103zM162 885l-18 -23v-81h244v104h-226z" />
  </g>

</svg>
