<?xml version="1.0" standalone="no"?>
<!DOCTYPE svg PUBLIC "-//W3C//DTD SVG 1.1//EN" "http://www.w3.org/Graphics/SVG/1.1/DTD/svg11.dtd" >
<svg xmlns="http://www.w3.org/2000/svg" xmlns:xlink="http://www.w3.org/1999/xlink" version="1.1" viewBox="0 -120 1000 1000">
  <g transform="matrix(1 0 0 -1 0 880)">
   <path fill="currentColor"
d="M104 63v878l74 -31h190l21 35l63 -40q10 -6 10 -12q0 -7 -8 -10l-17 -7v-195l-60 -8v39h-213v-639zM164 801v-63h213v63h-213zM164 886v-61h213v61h-213zM236 225l-13 24h248v66h-132v-27l-54 -8v221l-35 -6v168l57 -26h102l16 28l48 -28q11 -6 11 -14q0 -7 -11 -13
l-10 -5v-85l-47 -8v30h-115v-36l49 -19h318l20 30l49 -30q13 -8 13 -16q0 -10 -14 -16l-10 -3v-156l-53 -8v27h-144v-66h166l38 44l73 -49v-19h-277v-130l-58 -8v138h-235zM301 565h115v48h-115v-48zM339 339h132v49h-132v-49zM339 464v-52h132v52h-132zM529 388v-49h144v49
h-144zM529 464v-52h144v52h-144zM543 514v145l54 -22h92l19 32l49 -30q18 -10 18 -18q0 -7 -12 -10l-11 -4v-83l-55 -7v26h-106v-20zM591 613v-46h106v46h-106zM570 682v257l69 -29h187l25 39l72 -43q12 -8 12 -17q0 -7 -12 -10l-22 -5v-742q0 -34 -31 -51q-33 -18 -50 -18
q-8 0 -13 25q-4 18 -17 21l-67 15v16h118v572h-213v-22zM628 738h213v63h-213v-63zM628 886v-61h213v61h-213z" />
  </g>

</svg>
