<?xml version="1.0" standalone="no"?>
<!DOCTYPE svg PUBLIC "-//W3C//DTD SVG 1.1//EN" "http://www.w3.org/Graphics/SVG/1.1/DTD/svg11.dtd" >
<svg xmlns="http://www.w3.org/2000/svg" xmlns:xlink="http://www.w3.org/1999/xlink" version="1.1" viewBox="0 -204 1024 1024">
  <g transform="matrix(1 0 0 -1 0 820)">
   <path fill="currentColor"
d="M120 884v-856q0 -10 -22 -10q-8 0 -20 4q-10 8 -10 24t2 46q6 22 6 98v698q0 39 -8 70l60 -44h128l32 36q35 -27 55 -44q7 -9 7 -18q0 -5 -14 -12q-15 -8 -38 -14q-44 -130 -98 -252q51 -38 79 -75q24 -31 42 -73q15 -32 15 -72q0 -49 -14 -80q-10 -28 -30 -44
q-20 -18 -66 -30l-4 14q-6 16 -14 21q-20 12 -66 21l4 22q33 -12 62 -12q31 0 46 9q14 9 21 30q13 19 13 61q0 34 -13 67q-9 32 -30 66t-67 75q53 162 80 274h-138zM910 932q38 -27 72 -56q8 -4 8 -10q0 -18 -14 -18h-508v-198q0 -95 -9 -178q-5 -74 -22 -151
q-12 -61 -36 -114q-17 -48 -50 -91q-24 -38 -71 -74l-14 8q32 31 56 71q21 35 37 75q19 45 29 105q15 66 22 138q10 92 10 211q0 165 -4 264l54 -38h392zM628 672v-526q0 -12 6 -23q7 -9 24 -14q24 -7 66 -7h106q32 0 62 7q18 5 27 23q14 28 31 130l22 -4q-14 -76 -14 -106
q0 -17 18 -35q14 -13 14 -23q0 -7 -7 -15q-6 -7 -27 -12q-18 -5 -53 -6q-37 -3 -73 -3h-106q-29 0 -54 4q-23 2 -41 8q-19 6 -31 18q-8 9 -13 21q-5 13 -5 33v588l56 -28h208l32 40q27 -17 45 -35q7 -5 7 -17q0 -7 -26 -18v-142q0 -64 -7 -110q-7 -34 -22 -55
q-13 -22 -34 -34q-21 -14 -61 -17q-5 35 -25 46q-27 13 -73 20l2 18q57 -26 100 -26q28 0 38 12q20 13 27 38q7 31 7 74v176h-226z" />
  </g>

</svg>
