<?xml version="1.0" standalone="no"?>
<!DOCTYPE svg PUBLIC "-//W3C//DTD SVG 1.1//EN" "http://www.w3.org/Graphics/SVG/1.1/DTD/svg11.dtd" >
<svg xmlns="http://www.w3.org/2000/svg" xmlns:xlink="http://www.w3.org/1999/xlink" version="1.1" viewBox="0 -140 1000 1000">
  <g transform="matrix(1 0 0 -1 0 860)">
   <path fill="currentColor"
d="M438 822l69 -26q159 45 290 122l63 -65l-12 -7l-32 11q-63 -27 -132 -50q0 -17 1 -26l2 -36q2 -38 8 -122h122l39 48h12l54 -54v-16h-225q16 -161 73 -284q54 -116 87 -116q11 0 23 26l32 70l13 -5l-24 -146l19 -56l-9 -9q-34 5 -52.5 15.5t-42.5 36.5q-53 59 -95 145
l-323 -114l-4 -27l-13 -5l-42 87l99 19v584zM502 623h135q-7 89 -10 169q-57 -11 -125 -18v-151zM397 97h274l38 48h15l52 -51v-20h-379v23zM290 867l31 36h16l63 -55l-4 -14l-20 -9l-118 -216q60 -70 84 -118.5t24 -100.5q0 -139 -136 -152l-8 5l-2 31l-48 30l-2 19l66 -6
q33 -3 50.5 17t17.5 63q0 94 -71 210l73 237h-140v-770l-9 -8l-48 -10l-6 5l-1 836l66 -30h122zM502 246l211 51q-57 143 -73 304h-138v-355z" />
  </g>

</svg>
