<?xml version="1.0" standalone="no"?>
<!DOCTYPE svg PUBLIC "-//W3C//DTD SVG 1.1//EN" "http://www.w3.org/Graphics/SVG/1.1/DTD/svg11.dtd" >
<svg xmlns="http://www.w3.org/2000/svg" xmlns:xlink="http://www.w3.org/1999/xlink" version="1.1" viewBox="0 -120 1000 1000">
  <g transform="matrix(1 0 0 -1 0 880)">
   <path fill="currentColor"
d="M76 50v883l63 -33h105l20 26l53 -41q16 -12 16 -20t-13 -12l-11 -3q-46 -110 -103 -222q25 -37 45 -79q58 -121 58 -197q0 -49 -25 -75q-9 -11 -27 -20q-19 -10 -33 -10q-3 0 -6 2q-2 2 -4 26q-1 15 -25 23l-35 11v16h83q7 26 7 54q0 131 -63 248q39 130 64 245h-108
v-812zM249 90q95 168 97 371l4 455l62 -31h111l19 31l57 -39q12 -9 12 -16q0 -6 -13 -11l-16 -6v-283l-59 -8v33h-116l-4 -125l43 -25h79l22 34l50 -34q19 -12 19 -20t-16 -14l-12 -5l-1 -302l-57 -10v41h-79v-58l-55 -9l1 349q-19 -116 -51 -189q-31 -71 -81 -137zM407 613
h116v245h-118zM451 410v-258h79v259zM608 473l-9 26h179q14 61 24 128q1 9 9 72q3 18 5 35l73 -22q17 -5 17 -13q0 -9 -15 -14l-14 -6l-75 -180h42l45 53l69 -59v-20h-167v-147h40l40 49l67 -58v-18h-147v-235l-62 -10v245h-111l-8 27h119v147h-121zM616 750l-10 28h123v162
l80 -5q18 -1 18 -15q0 -10 -15 -16l-20 -7l1 -120h33l41 49l63 -55v-21h-314zM643 733q28 -27 47 -58q40 -65 40 -107q0 -29 -18 -45q-12 -9 -23 -9q-26 0 -24 45l1 21q3 67 -33 144z" />
  </g>

</svg>
