<?xml version="1.0" standalone="no"?>
<!DOCTYPE svg PUBLIC "-//W3C//DTD SVG 1.1//EN" "http://www.w3.org/Graphics/SVG/1.1/DTD/svg11.dtd" >
<svg xmlns="http://www.w3.org/2000/svg" xmlns:xlink="http://www.w3.org/1999/xlink" version="1.1" viewBox="0 -120 1000 1000">
  <g transform="matrix(1 0 0 -1 0 880)">
   <path fill="currentColor"
d="M81 61v864l65 -37h130l20 37l60 -42q19 -13 19 -23t-16 -13l-13 -3q-33 -70 -120 -233q108 -134 108 -267q0 -73 -26 -101q-16 -16 -43 -25q-11 -3 -17 -3q-7 0 -9 4q0 1 -4 30q-3 13 -28 21l-33 11v19h86q11 33 11 72q0 112 -76 237q50 125 81 252h-133v-790zM298 619
q164 117 279 347l74 -32q12 -5 12 -14q0 -10 -12 -13l-14 -2q61 -70 140 -125q67 -46 111 -69t66 -34l-8 -13q-32 -7 -47 -18q-8 -7 -22 -23q-57 39 -126 107q-82 82 -134 165q-92 -128 -167 -194q-65 -55 -139 -98zM316 89q65 66 107 128q40 59 75 133l60 -39q10 -6 10 -13
q0 -9 -16 -9h-17q-20 -31 -44 -63q48 -16 72 -39q28 -27 28 -52q0 -27 -25 -27q-8 0 -14 5q-5 5 -23 39q-25 42 -52 59q-78 -89 -148 -138zM383 341v272l63 -37h89l19 32l59 -35q10 -6 10 -13q0 -8 -12 -12l-12 -3v-186l-56 -9v34h-100v-34zM443 548v-137h100v137h-100z
M461 662l-12 28h213l37 42l75 -50v-20h-313zM578 78q68 75 110 154q31 58 57 123l71 -43q8 -5 8 -11q0 -12 -16 -12h-14q-18 -28 -38 -58q53 -13 97 -42q53 -35 53 -75q0 -27 -29 -27q-9 0 -16 5q-7 4 -20 27q-15 27 -55 64q-24 20 -44 30q-82 -101 -148 -150zM653 340v275
l62 -40h97l24 36l57 -42q8 -6 8 -14q0 -13 -17 -13h-12v-181l-56 -11v34h-108v-34zM708 547v-136h108v136h-108z" />
  </g>

</svg>
