<?xml version="1.0" standalone="no"?>
<!DOCTYPE svg PUBLIC "-//W3C//DTD SVG 1.1//EN" "http://www.w3.org/Graphics/SVG/1.1/DTD/svg11.dtd" >
<svg xmlns="http://www.w3.org/2000/svg" xmlns:xlink="http://www.w3.org/1999/xlink" version="1.1" viewBox="0 -204 1024 1024">
  <g transform="matrix(1 0 0 -1 0 820)">
   <path fill="currentColor"
d="M427 894q-90 -20 -195 -31q-75 -11 -166 -15l-8 18q125 14 234 43q73 19 107 44q48 -25 76 -45q7 -4 7 -10q0 -11 -14 -13q-5 0 -16 5q-9 4 -25 4zM88 824q19 -15 35 -31q16 -14 26 -27q11 -14 15 -24t4 -19q0 -18 -5 -27q-8 -12 -19 -12q-5 0 -8 4q-4 3 -7 18
q-4 19 -13 37q-8 18 -18 34q-9 16 -26 35zM236 840q18 -14 33 -29q16 -14 25 -27q11 -13 15 -23q3 -9 3 -18q0 -18 -5 -27q-8 -12 -19 -12q-5 0 -8 4q-4 3 -6 17q-4 19 -12 36q-8 18 -17 33q-9 16 -25 34zM431 864q41 -18 68 -35q5 -3 5 -9q0 -7 -9 -10q-15 -5 -28 -6
q-9 -17 -19 -34q-11 -17 -24 -32l-27 -30q-15 -14 -32 -28l-13 13q18 24 30 46q13 21 23 43q11 24 17 45q6 20 9 37zM209 720q84 -36 84 -52q0 -12 -46 -14q-25 -20 -65 -44q-26 -18 -58 -34q45 0 87 4q45 4 83 10q29 34 45 66q77 -33 77 -48q0 -11 -42 -12
q-47 -42 -122 -89q-58 -43 -131 -83q68 1 133 7q68 6 123 14q-1 4 -3 7q-14 23 -38 53l13 15q24 -19 42 -40q19 -18 29 -32q11 -12 16 -21l6 -17q2 -6 2 -14q-1 -32 -24 -32q-4 0 -7 3q-3 5 -14 33q-5 14 -12 27q-50 -17 -102 -28q-61 -16 -130 -29q-14 -33 -21 -33
q-3 0 -7 7q-21 36 -39 78v1h2q75 51 120 88q29 23 51 44l-21 -6q-43 -13 -91 -23q-13 -30 -19 -30q-2 0 -6 6q-20 34 -36 72v1h1q37 32 58 55q23 24 38 45q15 23 24 45zM40 306q44 -12 117 -12h76q3 21 3 38q0 28 -3 44q45 -7 79 -19q9 -4 9 -11q0 -5 -12 -9q-14 -4 -26 -6
q-2 -21 -4 -37h113l38 41q31 -24 59 -45q7 -5 7 -10q0 -14 -13 -14h-208q-2 -12 -5 -21l-3 -8q41 -22 73 -43q38 -23 59 -40q22 -16 32 -27q8 -11 12 -21q5 -8 5 -18q-1 -32 -24 -32q-8 0 -15 4q-6 5 -31 41q-25 35 -54 62q-25 24 -65 52q-8 -21 -19 -38q-18 -33 -46 -59
q-30 -32 -68 -51q-39 -23 -82 -35l-8 20q53 23 81 43q28 18 52 48q22 23 37 56q13 26 21 65v2h-70q-71 -2 -97 -7zM609 952q49 -14 88 -33q7 -6 7 -11q0 -10 -13 -15q-23 -6 -42 -6q-20 -52 -45 -99q-10 -20 -20 -38h184l-2 10q-4 20 -12 40q-8 19 -17 36t-25 38l18 14
q19 -16 34 -32q16 -15 26 -29q11 -14 14 -25q4 -10 4 -20q0 -21 -6 -32h58l44 49q36 -27 68 -52q8 -5 8 -11q0 -14 -15 -14h-181v-172h60l41 45q34 -25 64 -49q7 -4 7 -10q0 -14 -14 -14h-158v-180h68l41 45q34 -25 64 -49q7 -4 7 -10q0 -14 -14 -14h-166v-204h84l44 49
q36 -27 68 -52q8 -5 8 -11q0 -14 -15 -14h-384v-2q2 -6 2 -37q0 -20 -39 -23q-15 0 -15 17q0 18 1 27q2 5 2 42v571q-23 -37 -49 -67q-27 -36 -72 -74l-19 14q45 44 77 94q36 55 67 116q31 63 52 126q10 31 13 66zM588 110h148v204h-148v-204zM736 342v180h-148v-180h148z
M736 550v172h-148v-172h148z" />
  </g>

</svg>
