<?xml version="1.0" standalone="no"?>
<!DOCTYPE svg PUBLIC "-//W3C//DTD SVG 1.1//EN" "http://www.w3.org/Graphics/SVG/1.1/DTD/svg11.dtd" >
<svg xmlns="http://www.w3.org/2000/svg" xmlns:xlink="http://www.w3.org/1999/xlink" version="1.1" viewBox="0 -200 1000 1000">
  <g transform="matrix(1 0 0 -1 0 800)">
   <path fill="currentColor"
d="M205 332h230v102h-214l-16 -7v-95zM491 332h226v102h-226v-102zM491 311v-108h226v108h-226zM435 311h-230v-108h230v108zM151 486l66 -30h218v103l74 -30l-18 -56v-19h214l40 42l68 -61l-39 -33v-233q-15 -13 -26.5 -17t-30.5 -7v37h-226v-99q0 -8 11 -18.5t27 -14.5
h276q36 6 46 34t10 87l9 4q4 -39 8.5 -62t12 -35.5t19 -19t29.5 -12.5q-1 -16 -12 -23.5t-27.5 -10.5t-36 -3.5t-37.5 -1.5h-324q-38 0 -51.5 16t-15.5 36v123h-230v-46q-15 -11 -27 -14.5t-27 -6.5v371zM519 775v-185q-6 -8 -10.5 -13t-10 -7.5t-13.5 -3.5t-21 -1v210h-337
q1 -7 2 -16t1 -19q0 -12 -2 -23.5t-7.5 -21t-15.5 -15.5t-25 -6q-14 2 -19.5 9t-5.5 17q0 8 2.5 17t6.5 17q8 18 14 29t10.5 22t8 26t6.5 41h14l7 -55h340v75h-220l-63 -14l-20 35h550l49 45l73 -66h-314v-75h297l32 42q15 -6 32 -13t31 -15t23 -17.5t9 -19.5q0 -7 -1 -8
l-3.5 -7t-6.5 -5t-10.5 -2.5t-10.5 -0.5h-17q-8 0 -16 -2t-16 -9t-15.5 -20.5t-15.5 -37.5l-15 3q4 7 7 17.5t5.5 21.5t3.5 21.5t1 17.5q0 5 -5 8.5t-10 3.5h-299zM744 598l43 37l57 -60h-196l-46 -13l-25 35zM317 597l44 40l57 -62h-193l-49 -10l-17 32h158zM163 696h162
l39 37l54 -60h-189l-44 -12zM734 693l38 37l55 -58h-179l-50 -13l-23 34h159z" />
  </g>

</svg>
