<?xml version="1.0" standalone="no"?>
<!DOCTYPE svg PUBLIC "-//W3C//DTD SVG 1.1//EN" "http://www.w3.org/Graphics/SVG/1.1/DTD/svg11.dtd" >
<svg xmlns="http://www.w3.org/2000/svg" xmlns:xlink="http://www.w3.org/1999/xlink" version="1.1" viewBox="0 -120 1000 1000">
  <g transform="matrix(1 0 0 -1 0 880)">
   <path fill="currentColor"
d="M322 449l-118 -217q-7 -13 -7 -27q0 -16 14 -61q6 -21 6 -31q0 -21 -16 -37q-11 -10 -25 -10q-15 0 -26 10q-9 10 -9 24q0 17 5 46q3 14 3 25q0 57 -84 70v19h81l162 198zM153 783q-3 -49 -20 -71q-19 -27 -49 -27q-12 0 -19 8t-7 17t7 19q3 3 31 26q37 32 36 79h21v-24
h311v66h-295l-12 25h554l37 44l78 -50v-19h-301v-66h298l25 39l77 -49q24 -15 24 -24q0 -14 -30 -15l-36 -2l-57 -40l-16 12l18 52h-303v-208l-61 -9v217h-311zM81 484q102 -26 102 -84q0 -14 -10 -23q-7 -7 -15 -7q-6 0 -13 4q-7 5 -28 47q-11 23 -43 48zM146 623l-12 27
h202l29 33l62 -41v-19h-281zM146 594q113 -26 113 -83q0 -32 -25 -32q-11 0 -20 8q-2 2 -23 41q-19 30 -53 49zM175 695l-12 26h174l30 36l60 -41v-21h-252zM345 473l-13 26h265v94l74 -8q18 -3 18 -10q0 -10 -20 -18l-11 -4v-54h166l40 47l85 -57v-16h-291v-84h142l16 30
l73 -43q11 -6 11 -13q0 -8 -11 -11l-23 -6v-145q0 -25 -13 -38q-30 -28 -60 -28q-11 0 -11 13q-3 29 -29 35l-43 13v17h95v149h-147v-288l-61 -9v297h-135v-217l-63 -12v286l65 -30h133v84h-252zM575 694l-14 27h147l30 36l67 -44v-19h-230zM575 623l-11 27h173l27 33
l68 -42v-18h-257z" />
  </g>

</svg>
