<?xml version="1.0" standalone="no"?>
<!DOCTYPE svg PUBLIC "-//W3C//DTD SVG 1.1//EN" "http://www.w3.org/Graphics/SVG/1.1/DTD/svg11.dtd" >
<svg xmlns="http://www.w3.org/2000/svg" xmlns:xlink="http://www.w3.org/1999/xlink" version="1.1" viewBox="0 -120 1000 1000">
  <g transform="matrix(1 0 0 -1 0 880)">
   <path fill="currentColor"
d="M754 943l78 -59v-19h-305v-67h313l19 35l81 -60q14 -10 13 -18q-1 -7 -29 -8h-26l-66 -66l-16 8l24 82h-313v-211l-59 -12v223h-299q-5 -51 -14 -75q-16 -42 -52 -42q-25 0 -36 17q-5 8 -5 17q0 8 5 15q4 6 29 24q35 25 56 98h19q-1 -14 -1 -27h298v67h-289l-11 27h543z
M378 728l55 -39v-20h-230l-12 27h156zM375 650l58 -47v-20h-262l-11 27h179zM746 736l58 -47v-20h-218l-12 27h141zM777 646l59 -43v-20h-247l-11 27h168zM125 529l7 15q69 -16 97 -28q36 -16 36 -41q0 -16 -10 -25q-8 -7 -18 -7q-13 0 -30 21q-31 39 -82 65zM46 439l8 15
q54 -16 85 -31q40 -20 40 -53t-28 -33q-12 0 -22 16q-25 37 -42 55q-16 15 -41 31zM343 486l12 -4l-148 -265q-12 -21 -12 -32q0 -10 16 -60q7 -20 7 -33q0 -24 -17 -40q-9 -8 -20 -8q-21 0 -34 21q-7 12 -7 24q0 8 5 25q7 26 7 41q0 35 -31 51q-19 10 -63 18v15h94z
M566 404h-215l-12 27h227v117l68 -12q22 -4 22 -16q0 -11 -16 -16l-15 -6v-67h148l47 47l82 -55v-19h-305l48 -9q14 -2 14 -12t-14 -14l-20 -7v-80h125l43 47l78 -54v-20h-246v-137h183l51 59l90 -67v-19h-668l-12 27h297v137h-195l-12 27h207v122z" />
  </g>

</svg>
