<?xml version="1.0" standalone="no"?>
<!DOCTYPE svg PUBLIC "-//W3C//DTD SVG 1.1//EN" "http://www.w3.org/Graphics/SVG/1.1/DTD/svg11.dtd" >
<svg xmlns="http://www.w3.org/2000/svg" xmlns:xlink="http://www.w3.org/1999/xlink" version="1.1" viewBox="0 -140 1000 1000">
  <g transform="matrix(1 0 0 -1 0 860)">
   <path fill="currentColor"
d="M55 395v22h208q-2 3 -7 8q-19 40 -26.5 50.5t-33.5 34.5l7 9q48 -18 79 -35l59 59h-266v22h267l35 27h14l53 -61l-7 -11l-38 -1l-100 -49q20 -20 20 -35q0 -6 -4 -18h74l29 25h13l50 -56l-6 -14h-31l-79 -56l-10 7l32 72h-70v-269q0 -38 -19 -51t-87 -32l-11 5v27l-65 31
l1 12l70 -6q3 -1 11 -1q23 0 29 10.5t6 42.5v122q-34 -40 -89 -83.5t-102 -67.5l-7 11q76 66 117.5 119t76.5 129zM139 856h16q0 -3 0.5 -8t1 -13.5t0.5 -14.5h305v53h-306v21h614l40 41h15l54 -49v-13h-353v-53h321l24 24h15l59 -61l-6 -14l-39 -2l-86 -80l-11 8l44 102
h-321l1 -194l-4 -10l-52 -15l-9 9v210h-304q-3 -56 -22.5 -95t-42.5 -39q-24 0 -24 45q0 19 12 31q36 36 45 54.5t13 62.5zM166 660h234l-1 -22h-233v22zM408 46l-3 12q85 37 125.5 72.5t75.5 103.5h-173v22h180q15 41 27 97l91 -26l-4 -14l-26 -6l-19 -51h131l27 27h14
l57 -46l-5 -14l-21 -6q-20 -97 -48 -129t-100 -42l-12 5l-6 30l-75 35l4 12l75 -8q6 -1 19 -1q41 0 53.5 22t23.5 93h-144q-40 -80 -96 -119.5t-171 -68.5zM596 532h238l42 46h13l56 -53v-15h-118q-35 -55 -99 -104q67 -22 105 -28.5t109 -7.5v-12q-17 -11 -23.5 -18.5
t-22.5 -32.5q-60 6 -101.5 19t-110.5 48q-118 -59 -270 -91l-5 13q100 35 140 54.5t95 56.5q-46 37 -80 90q-44 -37 -93 -66l-9 9q74 79 122 184l78 -43l-8 -13h-24q-20 -22 -34 -36zM755 510h-177q23 -28 38 -39.5t62 -38.5q58 47 77 78zM168 738l233 -1v-21h-233v22z
M562 660h230l1 -22h-231v22zM558 738l234 -1v-21h-234v22z" />
  </g>

</svg>
