<?xml version="1.0" standalone="no"?>
<!DOCTYPE svg PUBLIC "-//W3C//DTD SVG 1.1//EN" "http://www.w3.org/Graphics/SVG/1.1/DTD/svg11.dtd" >
<svg xmlns="http://www.w3.org/2000/svg" xmlns:xlink="http://www.w3.org/1999/xlink" version="1.1" viewBox="0 -410 2048 2048">
  <g transform="matrix(1 0 0 -1 0 1638)">
   <path fill="currentColor"
d="M1012 1749l-39 89q73 -12 139 -18l44 -5h246l61 71l72 -48q42 -28 42 -51q0 -18 -64 -53v-362l28 -23q21 -15 21 -25q0 -23 -17 -23h-409l-71 -375h337l68 76l83 -54q41 -27 41 -50q0 -30 -81 -62q-14 -354 -48 -529q-28 -142 -129 -185q-46 -19 -140 -29q-1 69 -46 101
q-26 18 -131 53l11 42q43 -11 134 -39q69 -22 108 -22q77 0 97 118q28 158 43 435l5 88h-364q-41 -9 -55 -9q-36 0 -36 29q0 1 8 44l64 356q10 55 19 141l103 -72h261v401h-256q-61 0 -149 -10zM1761 1916l109 -24q85 -19 85 -44q0 -30 -49 -43l-42 -11v-1406q0 -142 9 -213
q4 -33 4 -49q0 -47 -51 -47q-56 0 -56 54v1624q0 118 -9 159zM95 1649l-39 85q125 -16 188 -16h18v70q0 117 -6 160l100 -24q74 -18 74 -47q0 -25 -51 -39l-23 -7v-113h267v70q0 118 -7 160l100 -24q74 -18 74 -47q0 -24 -52 -39l-22 -7v-113h47l80 80l93 -80q23 -17 23 -31
q0 -25 -23 -25h-220v-202l29 -25q20 -13 20 -25q0 -20 -27 -20h-195v-202h190l61 72l72 -50q42 -28 42 -50q0 -16 -65 -52v-251l23 -21q32 -26 32 -38q0 -18 -23 -18h-332v-244h220l80 81l115 -86q17 -13 17 -26q0 -27 -27 -27h-405v-131l6 -79q10 -148 10 -156
q0 -43 -56 -43t-56 43v366h-203q-64 0 -149 -11l-39 86q122 -17 188 -17h203v244h-203v-17q0 -38 -54 -38q-55 0 -51 45l4 48q6 97 6 104v332l122 -66h176v202h-91v-15q0 -31 -51 -31t-51 37q0 4 4 41l1 30l3 49v161h-23l-67 -5q-47 -4 -77 -8zM356 1445h267v217h-267v-217z
M244 836h203v294h-203v-294zM543 1130v-294h202v294h-202z" />
  </g>

</svg>
