<?xml version="1.0" standalone="no"?>
<!DOCTYPE svg PUBLIC "-//W3C//DTD SVG 1.1//EN" "http://www.w3.org/Graphics/SVG/1.1/DTD/svg11.dtd" >
<svg xmlns="http://www.w3.org/2000/svg" xmlns:xlink="http://www.w3.org/1999/xlink" version="1.1" viewBox="0 -204 1024 1024">
  <g transform="matrix(1 0 0 -1 0 820)">
   <path fill="currentColor"
d="M32 866q31 -8 76 -11v30q0 50 -6 75q48 -8 80 -17q11 -4 11 -11q0 -6 -9 -9q-12 -7 -28 -11v-58h112v26q0 53 -6 80q46 -9 75 -18q11 -4 11 -11q0 -5 -7 -9q-11 -6 -25 -10v-58h8l35 36q29 -21 55 -41q6 -4 6 -9q0 -14 -12 -14h-92v-108q11 -8 19 -15q5 -3 5 -7
q0 -14 -9 -14h-99v-108h76l35 33q51 -36 51 -50q0 -10 -30 -25v-122l15 -12q5 -3 5 -6q0 -14 -8 -14h-144v-108h60l41 45q34 -25 64 -49q7 -4 7 -10q0 -14 -14 -14h-158v-132q0 -23 1 -31v-29q0 -34 -30 -34q-26 0 -26 18q0 20 3 54q4 34 4 60v94h-39q-71 -2 -97 -7l-20 47
q44 -12 117 -12h39v108h-80v-16q0 -10 -12 -16q-15 -6 -25 -6q-13 0 -13 14q0 4 1 14q1 23 1 42v126q0 49 -2 68l63 -30h67v108h-33q-8 -10 -24 -10q-26 0 -26 18q0 13 4 33q3 22 3 38v63q-39 -2 -56 -5zM158 710h110v116h-112v-61q0 -23 1 -30q1 -15 1 -25zM104 406h80v140
h-80v-140zM232 546v-140h84v140h-84zM372 742q41 -11 106 -12v156q0 53 -6 74q52 -7 92 -24q10 -3 10 -10q0 -9 -12 -13q-19 -6 -40 -9v-174h14l35 36q29 -21 55 -41q6 -4 6 -9t-1 -6q41 -8 98 -8h53q-4 8 -7 28q-6 32 -17 63q-12 30 -25 57q-14 28 -37 60l18 14
q26 -28 47 -57q23 -26 37 -50q15 -25 21 -44q5 -18 5 -35q0 -21 -6 -32q-2 -4 -3 -4h61l41 45q34 -25 64 -49q7 -4 7 -10q0 -14 -14 -14h-56q23 -7 43 -17q10 -6 10 -13t-17 -12q-18 -6 -33 -8q-22 -160 -46 -293q-20 -126 -42 -233h43l43 47q35 -26 65 -50q8 -5 8 -11
q0 -14 -14 -14h-293q-71 -2 -97 -7l-20 47q44 -12 117 -12h27q-5 9 -5 24q0 135 -6 208q-4 78 -17 157q-12 84 -34 183q-11 -2 -18 -3l-15 35h-95v-226q5 3 9 5q38 19 89 51l4 -20q-38 -36 -67 -58q-19 -14 -35 -25v-324q0 -32 -13 -47q-10 -15 -31 -24q-16 -10 -30 -10
q-4 23 -13 34q-5 9 -19 16q-19 10 -44 12v24q37 -13 67 -13q24 0 31 5q8 5 8 25v274q-19 -11 -37 -19q-10 -33 -16 -33q-7 0 -45 77q44 9 79 23q9 3 19 7v246q-62 -2 -86 -7zM751 98h55q15 91 29 194l27 233q10 102 12 149h-145l-62 -3q35 -121 53 -216q21 -103 29 -186
q10 -89 10 -136q0 -25 -8 -35z" />
  </g>

</svg>
