<?xml version="1.0" standalone="no"?>
<!DOCTYPE svg PUBLIC "-//W3C//DTD SVG 1.1//EN" "http://www.w3.org/Graphics/SVG/1.1/DTD/svg11.dtd" >
<svg xmlns="http://www.w3.org/2000/svg" xmlns:xlink="http://www.w3.org/1999/xlink" version="1.1" viewBox="0 -140 1000 1000">
  <g transform="matrix(1 0 0 -1 0 860)">
   <path fill="currentColor"
d="M385 788l8 9q54 -28 71.5 -45t17.5 -38q0 -40 -28 -40q-11 0 -27 43q-1 4 -2 6q-10 31 -40 65zM602 453l-32 68l49 9v202l55 -17q90 42 150 86l55 -48l-6 -11l-28 3l-86 -31q33 -81 74 -129.5t110 -89.5l-6 -14q-4 1 -13 1q-28 0 -53 -24q-34 33 -73 87l-179 -68l-5 -20z
M679 540l110 24q-26 49 -53 144q-35 -8 -57 -13v-155zM111 710v22h205l23 21h14l44 -41v-14l-23 -14q-7 -98 -18 -143.5t-33.5 -66.5t-70.5 -33l-10 7l-4 24l-52 20v13l43 -4q69 -6 77 100q2 29 7 109h-63q-17 -105 -55.5 -171t-121.5 -134l-9 11q60 74 85.5 135.5
t36.5 158.5h-75zM80 818v22h379v93l91 -11v-16l-26 -10v-56h314l35 39h15l52 -48v-13h-860zM462 673l42 -8l58 133l70 -33l-2 -12h-22l-86 -93l28 -8v-13l-26 -9v-156l-8 -9l-44 -12l-10 5v215zM138 401h255v56l92 -16v-14l-29 -12v-329h91v364l95 -12v-14l-31 -12l1 -11
h201l38 40h13l45 -48v-14h-297v-85h177l34 37h11l42 -47v-12h-264v-74h185l35 37h11l41 -44v-14h-272v-91h225l39 42h15l49 -48v-16h-869v22h322v91h-244v21h244v74h-244v22h244v85h-255v22z" />
  </g>

</svg>
