<?xml version="1.0" standalone="no"?>
<!DOCTYPE svg PUBLIC "-//W3C//DTD SVG 1.1//EN" "http://www.w3.org/Graphics/SVG/1.1/DTD/svg11.dtd" >
<svg xmlns="http://www.w3.org/2000/svg" xmlns:xlink="http://www.w3.org/1999/xlink" version="1.1" viewBox="0 -204 1024 1024">
  <g transform="matrix(1 0 0 -1 0 820)">
   <path fill="currentColor"
d="M58 910q39 -8 112 -8h188l28 30q35 -21 63 -50q3 -2 3 -6q0 -6 -20 -11q-14 -3 -30 -7q-32 -37 -80 -76q-41 -38 -84 -68q10 -8 17 -14q14 -15 24 -27q6 -10 9 -18q4 -8 4 -19q0 -10 -4 -16h102l30 34q33 -25 59 -50q3 -3 3 -6q0 -10 -17 -14q-15 -4 -31 -8
q-19 -34 -50 -72q-30 -40 -60 -70l-18 12q35 40 53 77q22 37 31 69h-132v-476q0 -34 -12 -51q-14 -15 -33 -26t-35 -11l-2 20q-2 10 -6 14q-10 12 -37 23q-28 10 -61 13v22q55 -16 98 -16q26 0 33 7q9 6 9 31v450h-60q-80 0 -98 -4l-14 40q39 -8 112 -8h103q-7 9 -18 32
q-21 34 -42 58q-25 29 -65 64l12 12q38 -25 67 -47q6 -6 12 -10q50 35 81 69q39 39 56 74h-188q-79 0 -94 -2zM464 914q43 -12 116 -12h282l48 52q36 -29 69 -53q7 -5 7 -13q0 -16 -10 -16h-244q-12 -33 -30 -58q-17 -35 -43 -72h193l32 44q36 -24 52 -43q6 -7 6 -13
q0 -11 -36 -32v-330q0 -74 3 -96q1 -30 1 -46t-10 -24q-12 -6 -20 -6q-22 0 -22 12v24h-221q29 -16 49 -32q4 -4 4 -10q0 -8 -18 -8h-32q-33 -39 -67 -66q-31 -29 -63 -51q-41 -26 -80 -41l-10 26q55 32 93 66q41 32 64 63q19 24 31 53h-56v-24q0 -12 -22 -12q-8 0 -20 6
q-10 8 -10 24t2 46q6 22 6 96v348q0 39 -8 70l58 -44h76q16 36 28 74q11 29 16 56h-98q-71 0 -98 -2zM552 262h306v136h-306v-136zM552 426h306v136h-306v-136zM552 588h306v124h-306v-124zM760 192q47 -11 93 -32q47 -20 72 -37q22 -16 30 -25q11 -11 17 -23q4 -9 4 -17
q0 -22 -18 -22q-5 0 -13 9q-7 5 -18 17q-21 17 -36 32q-22 14 -50 33q-33 20 -89 51z" />
  </g>

</svg>
