<?xml version="1.0" standalone="no"?>
<!DOCTYPE svg PUBLIC "-//W3C//DTD SVG 1.1//EN" "http://www.w3.org/Graphics/SVG/1.1/DTD/svg11.dtd" >
<svg xmlns="http://www.w3.org/2000/svg" xmlns:xlink="http://www.w3.org/1999/xlink" version="1.1" viewBox="0 -140 1000 1000">
  <g transform="matrix(1 0 0 -1 0 860)">
   <path fill="currentColor"
d="M850 881l31 44h18l57 -48v-18h-188l27 -20l-7 -12l-36 -3l-53 -94h147l26 33h14l59 -48v-16l-29 -22l1 -459l-6 -11l-44 -12l-13 6l1 41h-246l-1 -25l-10 -12l-42 -10l-11 10v566l79 -41h47l25 129h-206v22h360zM339 919l77 -51l-6 -15l-46 -1q-76 -56 -139.5 -83.5
t-160.5 -47.5l-5 15q96 36 156 75.5t124 107.5zM399 829l73 -49l-6 -15l-42 -2q-99 -66 -172.5 -95.5t-190.5 -51.5l-8 14q124 42 197 84t149 115zM757 203l8 12l54 -25q70 -33 95 -58t25 -63q0 -37 -19 -37q-15 0 -34 31q-35 56 -53 75t-76 65zM647 224l72 -47l-8 -15
l-34 -3q-51 -48 -95 -72.5t-128 -51.5l-8 15q67 33 110 70.5t91 103.5zM251 353l27 43h16l38 -48v-17l-89 -1v-131l84 27l5 -16l-212 -105l-9 -31l-51 65q25 15 25 44v264l91 -26v-16l-31 -12v-223l36 12v326l94 -20v-17l-32 -16v-102h8zM609 579h246v129h-246v-129z
M609 421h246v136h-246v-136zM609 264h246v135h-246v-135zM518 283l-9 -111l26 -16v-14q-28 -26 -77 -26h-50q-45 0 -55 15.5t-10 69.5v333l102 -22v-16l-38 -14v-126q42 36 85 98l49 -50l-5 -13l-28 -2q-40 -37 -101 -61v-136q0 -17 6.5 -21t24.5 -4q26 0 37 33l29 89z
M444 726l74 -51l-6 -17h-43q-112 -74 -200.5 -107.5t-216.5 -49.5l-7 15q107 27 184.5 61.5t122.5 67.5t92 81z" />
  </g>

</svg>
