<?xml version="1.0" standalone="no"?>
<!DOCTYPE svg PUBLIC "-//W3C//DTD SVG 1.1//EN" "http://www.w3.org/Graphics/SVG/1.1/DTD/svg11.dtd" >
<svg xmlns="http://www.w3.org/2000/svg" xmlns:xlink="http://www.w3.org/1999/xlink" version="1.1" viewBox="0 -120 1000 1000">
  <g transform="matrix(1 0 0 -1 0 880)">
   <path fill="currentColor"
d="M36 79q22 54 30 81q20 75 20 204v423l62 -36h223l-6 201l70 -9q17 -3 17 -15q0 -9 -11 -13l-15 -7l3 -157h38l34 46l69 -53l1 -20h-140l4 -98q4 -110 19 -196q24 69 50 166l66 -30q8 -4 8 -12t-11 -10l-11 -2q-57 -151 -87 -208q14 -58 32 -103q5 14 9 25l34 107l13 -3
l-14 -121q-3 -25 -3 -43q0 -26 19 -62q-13 -20 -34 -20q-26 0 -58 55q-22 39 -40 100q-90 -118 -221 -199l-9 14q136 106 215 251q-23 96 -33 271l-6 118h-227v-309q-1 -128 -31 -225q-18 -58 -66 -121zM169 613l95 1l36 43l65 -51v-19l-187 -1zM183 221v308l55 -31h55
l18 35l56 -41q11 -8 11 -15t-10 -11l-16 -5l2 -207l-52 -9v31l-69 -1v-45zM233 471v-168h69v168h-69zM472 918q74 -20 74 -67q0 -21 -15 -31q-8 -4 -15 -4q-13 0 -19 25q-8 34 -31 65zM504 62q97 76 169 188l62 -34q9 -5 9 -11q0 -9 -12 -11l-21 -3q-87 -73 -121 -97
q-39 -28 -77 -44zM560 874l-11 28h285l44 53l72 -58v-22l-167 -1l-56 -122h114l21 37l66 -41q12 -7 12 -17q0 -12 -19 -16l-11 -2v-470l-62 -8l1 31h-199v-33l-61 -8l1 562l68 -35h44l11 122h-153zM650 293h198v132h-198v-132zM650 575v-124h199v124h-199zM650 724v-122h199
v122h-199zM771 241q55 -11 107 -43q66 -41 66 -90q0 -20 -12 -33q-7 -9 -18 -9q-13 0 -24 21q-31 56 -53 81q-22 24 -70 61z" />
  </g>

</svg>
