<?xml version="1.0" standalone="no"?>
<!DOCTYPE svg PUBLIC "-//W3C//DTD SVG 1.1//EN" "http://www.w3.org/Graphics/SVG/1.1/DTD/svg11.dtd" >
<svg xmlns="http://www.w3.org/2000/svg" xmlns:xlink="http://www.w3.org/1999/xlink" version="1.1" viewBox="0 -410 2048 2048">
  <g transform="matrix(1 0 0 -1 0 1638)">
   <path fill="currentColor"
d="M610 1213v-175h200l68 77l83 -56q41 -26 41 -47q0 -31 -82 -62v-421l76 75l91 -80q25 -21 25 -33q0 -20 -25 -20h-167v-209q0 -90 -65 -134q-19 -13 -91 -37q-9 67 -36 88q-24 19 -124 41l6 46q62 -8 98 -14q44 -8 65 -8q53 0 53 48v179h-522v-340q0 -38 -54 -38
q-51 0 -51 45q0 3 4 49q7 99 7 105v179h-20l-53 -4q-33 0 -61 -3l-42 87q75 -22 153 -22h23v438q0 45 -10 141l115 -70h203v175h-259q-62 0 -149 -11l-39 86q128 -17 188 -17h99v180h-32q-73 0 -149 -12l-39 86q27 -4 40 -6q86 -12 148 -12h32v172h-72q-68 0 -148 -11
l-40 86q123 -18 198 -18h62v69q0 120 -8 159l100 -24q75 -18 75 -45q0 -28 -51 -41l-24 -6v-112h214v62q0 118 -8 160l101 -24q74 -18 74 -46q0 -25 -51 -40l-23 -6v-106h77l74 77l114 -86q17 -12 17 -26q0 -24 -15 -23l-16 1h-251v-172h63l80 82l114 -87q17 -13 17 -27
q0 -24 -31 -24h-243v-180h121l80 80l114 -85q17 -13 17 -26q0 -27 -28 -27h-451zM450 1271h214v180h-214v-180zM664 1507v172h-214v-172h214zM304 529h214v203h-214v-203zM610 732v-203h216v203h-216zM304 786h214v197h-214v-197zM610 983v-197h216v197h-216zM1088 1756
l-39 85q120 -17 188 -17h508l98 102l120 -107q18 -16 18 -26q0 -26 -28 -26h-396q-58 -143 -127 -253h320l68 75l79 -53q40 -27 40 -48q0 -27 -75 -61v-725q0 -18 7 -164l4 -61q0 -57 -66 -57q-39 0 -39 28v50h-361l57 -42q49 -37 49 -57q0 -22 -61 -22h-42
q-173 -188 -380 -284l-16 34q251 167 348 371h-113v-38q0 -41 -50 -41q-55 0 -55 40q0 2 4 85q6 114 6 147v769q0 55 -12 129l125 -75h106q10 27 15 40q39 101 59 213h-210q-66 0 -149 -11zM1249 555h519v276h-519v-276zM1249 888h519v257h-519v-257zM1249 1202h519v254
h-519v-254zM1595 445q356 -155 356 -280q0 -57 -48 -57q-27 0 -57 51q-73 124 -263 251z" />
  </g>

</svg>
