<?xml version="1.0" standalone="no"?>
<!DOCTYPE svg PUBLIC "-//W3C//DTD SVG 1.1//EN" "http://www.w3.org/Graphics/SVG/1.1/DTD/svg11.dtd" >
<svg xmlns="http://www.w3.org/2000/svg" xmlns:xlink="http://www.w3.org/1999/xlink" version="1.1" viewBox="0 -204 1024 1024">
  <g transform="matrix(1 0 0 -1 0 820)">
   <path fill="currentColor"
d="M508 826q30 -23 55 -43q7 -4 7 -9q0 -18 -12 -18h-166q3 -113 11 -189q11 -115 29 -195q4 18 7 32q14 56 23 113q7 59 12 100q4 42 4 77q47 -12 75 -27q13 -5 13 -13q0 -10 -10 -14q-15 -7 -34 -12q-9 -64 -17 -122q-16 -65 -32 -137q-9 -41 -19 -74q15 -52 38 -92
q10 -21 16 -21q3 0 5 6q32 60 49 122l22 -12q-26 -131 -26 -138q0 -12 4 -23q8 -22 8 -35q0 -22 -18 -22q-13 0 -34 20q-25 22 -57 78q-17 26 -30 57q-12 -36 -29 -63q-18 -42 -42 -75q-22 -38 -54 -73l-14 22q35 46 55 91q25 41 41 86l24 66q-6 21 -13 37q-28 104 -42 233
q-11 93 -13 197h-216v-224q0 -72 -5 -134q-2 -56 -9 -116q-6 -47 -18 -87q-9 -36 -22 -67q-14 -29 -34 -60l-12 8q10 27 17 57q7 25 13 57q7 34 11 79q5 50 7 103q4 73 4 160q0 180 -4 290l54 -36h213q-1 32 -1 62q0 96 -6 120q106 -16 106 -30q0 -20 -52 -32q0 -67 1 -120
h77zM200 704q40 -5 65 -12q9 -4 9 -10q0 -7 -7 -10q-9 -7 -19 -12v-68h18l32 28q24 -15 43 -32q5 -4 5 -8q0 -14 -6 -14h-92v-128h18l36 36q28 -22 50 -40q6 -3 6 -8q0 -18 -8 -18h-92v-310q0 -18 -8 -29q-9 -12 -27 -21q-14 -11 -37 -16q-1 27 -6 35t-13 12q-22 13 -47 19
v14q38 -14 66 -14q19 0 24 6q4 4 4 16v198q-5 -6 -24 -8q-4 -27 -13 -55q-8 -28 -22 -61q-15 -35 -27 -56l-26 14q19 40 27 76q12 35 18 67q8 31 9 59q48 -11 58 -23v76q-41 -1 -58 -3l-22 44q30 -6 70 -8v192q0 50 -4 72zM292 346q14 -24 26 -46q15 -23 23 -42
q7 -22 10 -36q3 -15 3 -30q0 -16 -5 -28q-8 -12 -17 -12q-4 0 -7 6q-3 4 -7 27q-3 25 -9 50q-7 27 -13 48q-7 24 -22 49zM438 916q25 -3 40 -16q17 -12 24 -27q6 -9 6 -25q0 -18 -22 -18q-7 0 -12 4q-4 5 -8 21q-5 13 -12 21q-8 11 -24 26zM566 914q44 -12 116 -12h188
l44 48q36 -27 68 -49q8 -5 8 -13q0 -16 -10 -16h-171q-12 -33 -28 -58q-15 -34 -41 -70h141l25 38q36 -24 52 -43q10 -7 10 -13q0 -11 -36 -32v-314q0 -73 2 -97q2 -28 2 -47q0 -12 -11 -21q-15 -7 -23 -7q-18 0 -18 14v18h-154q27 -14 44 -26q4 -6 4 -14t-18 -8h-34
q-24 -42 -48 -69q-27 -31 -50 -55q-31 -26 -62 -44l-12 26q43 36 73 70q29 34 48 66q12 27 21 54h-28v-14q0 -12 -22 -12q-7 0 -20 5q-12 9 -12 21q0 19 3 47q7 24 7 99v326q0 39 -10 70l52 -38h49q14 35 23 72q12 29 16 56h-72q-70 0 -94 -2zM668 270h216v138h-216v-138z
M668 438h216v132h-216v-132zM668 598h216v110l-2 8h-212l-2 -8v-110zM822 200q32 -12 65 -35q31 -22 47 -38q14 -19 20 -29q7 -13 11 -26q3 -9 3 -18q0 -22 -18 -22q-3 0 -9 10q-4 5 -11 18q-15 19 -26 35q-13 15 -34 35q-20 22 -60 56z" />
  </g>

</svg>
