<?xml version="1.0" standalone="no"?>
<!DOCTYPE svg PUBLIC "-//W3C//DTD SVG 1.1//EN" "http://www.w3.org/Graphics/SVG/1.1/DTD/svg11.dtd" >
<svg xmlns="http://www.w3.org/2000/svg" xmlns:xlink="http://www.w3.org/1999/xlink" version="1.1" viewBox="0 -140 1000 1000">
  <g transform="matrix(1 0 0 -1 0 860)">
   <path fill="currentColor"
d="M203 599l5 11q-51 -22 -140 -46l-6 13q100 39 162 78q-11 6 -22 24q-31 54 -50 74q-33 -22 -61 -36l-6 11q96 76 155 193l68 -32l-6 -14l-23 -3l-22 -23h120l30 29h14l51 -58l-4 -14l-26 -5q-55 -72 -97 -107.5t-123 -76.5l61 -24l-6 -14l-22 -3l-27 -32h131l32 39h13
l42 -46l-1 -15h-137v-117h69l35 40h12l44 -48v-15h-160v-186h60v128l86 -18v-14l-26 -17v-111l-6 -11l-44 -17l-10 5v32h-180v-35l-5 -12l-45 -18l-10 8v206l89 -19v-16l-29 -15v-76h60v186h-177v23h177v117h-32q-45 -47 -94 -92l-10 8q35 51 91 161zM221 806l-59 -46
q53 -29 70 -42t17 -31l-2 -16q45 39 52 45q-13 7 -23 22q-23 35 -30.5 44t-24.5 24zM243 827l-13 -12q4 -2 20 -9t24 -11.5t20 -12.5t19.5 -17.5t11.5 -21.5q28 35 58 83zM801 743l-8 -8l-26 4q-1 0 -72 -26v-135l22 -1l27 28h17l42 -37v-15l-24 -23v-177l-6 -11l-35 -18
l-10 5v35h-33v-161l72 12q-13 37 -30 74l10 8q89 -97 89 -139q0 -16 -7.5 -28t-17.5 -12q-7 0 -11.5 4t-9.5 17t-8 23.5t-10 35.5l-180 -59l-7 -37l-15 -1l-27 79l97 15v169h-37q0 -20 -4 -30l-40 -20l-6 6l-1 282l56 -24h32v125q-37 -10 -95 -18l-2 17q66 16 106 33.5
t104 59.5zM645 556h-42v-169h42v169zM728 556h-38v-169h38v169zM802 870l34 32h15l46 -40v-14l-27 -19l-1 -35q-3 -105 -3 -231q0 -118 25 -324q6 -47 18 -47q5 0 12 22l17 57l15 -2l-18 -160l15 -40l-11 -11q-35 12 -54.5 37.5t-34.5 79.5q-37 134 -37 535v138h-279l1 -124
q2 -352 -43 -492q-26 -82 -93 -173l-13 9q53 89 74.5 198.5t21.5 356.5v272l56 -24z" />
  </g>

</svg>
