<?xml version="1.0" standalone="no"?>
<!DOCTYPE svg PUBLIC "-//W3C//DTD SVG 1.1//EN" "http://www.w3.org/Graphics/SVG/1.1/DTD/svg11.dtd" >
<svg xmlns="http://www.w3.org/2000/svg" xmlns:xlink="http://www.w3.org/1999/xlink" version="1.1" viewBox="0 -140 1000 1000">
  <g transform="matrix(1 0 0 -1 0 860)">
   <path fill="currentColor"
d="M838 723l37 44h14l51 -50v-16h-137v-250h43l39 45h14l49 -51v-16h-145l1 -359l-7 -12l-48 -13l-11 7v377h-106q-9 -137 -62.5 -227t-162.5 -150l-10 8q87 79 127 163.5t47 205.5h-131v22h131q5 82 5 139q0 78 -1 111h-117v22h274l87 211l83 -44l-6 -14l-26 -1l-114 -152
h82zM738 701h-101v-62q0 -86 -4 -188h105v250zM491 910l8 10q136 -73 136 -136q0 -18 -10.5 -34t-21.5 -16q-19 0 -38 56q-24 65 -74 120zM317 896l-4 -14l-29 -5l-7 -14q55 -23 74.5 -31.5t42.5 -20.5t39 -25q19 -15 19 -40q0 -41 -19 -41q-12 0 -48 43q-44 51 -118 95
q-54 -90 -95.5 -140.5t-111.5 -110.5l-10 11q70 85 108.5 155t73.5 177zM347 600l30 31h15l47 -40v-16l-23 -19v-187l-6 -10l-46 -15l-9 6v25h-179v-95h157l34 40h15l42 -48v-15h-248v-89h155l33 43h15l44 -49v-16h-247v-81l-3 -8l-49 -16l-8 4v584l65 -29h166zM355 577
h-179v-80h179v80zM355 475h-179v-78h179v78zM179 669v23h143l34 40h11l43 -46v-17h-231z" />
  </g>

</svg>
