<?xml version="1.0" standalone="no"?>
<!DOCTYPE svg PUBLIC "-//W3C//DTD SVG 1.1//EN" "http://www.w3.org/Graphics/SVG/1.1/DTD/svg11.dtd" >
<svg xmlns="http://www.w3.org/2000/svg" xmlns:xlink="http://www.w3.org/1999/xlink" version="1.1" viewBox="0 -204 1024 1024">
  <g transform="matrix(1 0 0 -1 0 820)">
   <path fill="currentColor"
d="M218 964q47 -7 80 -20q8 -3 8 -12t-16 -14q-12 -3 -25 -3q34 -23 60 -43q35 -26 57 -44q18 -18 30 -32q7 -10 11 -21q3 -12 3 -23q0 -26 -18 -26q-10 0 -16 4q-7 6 -28 45q-24 39 -54 69q-23 28 -62 60q-10 -33 -23 -59q-16 -34 -38 -68q-14 -23 -24 -37q38 -6 89 -6h14
l36 36q30 -22 54 -40q8 -3 8 -10q0 -16 -14 -16h-98q-72 -1 -96 -2l-10 15q-2 -2 -3 -4q-20 -26 -46 -51q-2 -3 -5 -4l50 -38h194l28 34q52 -33 52 -44t-30 -30v-252q0 -17 -32 -22q-14 0 -14 8v18h-206v-219q21 5 36 14q38 11 82 31q36 19 82 44q-20 30 -46 64l10 14
q33 -24 55 -52q26 -26 38 -43q15 -19 22 -31q5 -10 8 -20q3 -11 3 -22q-1 -32 -26 -32q-5 0 -9 6t-17 43q-14 29 -28 55q-38 -33 -65 -50q-36 -27 -68 -44q-32 -20 -65 -32q-10 -38 -16 -38t-46 82q3 1 6 1v495q0 29 -4 54q-19 -23 -44 -38l-14 18q33 29 58 62q26 31 48 66
q26 38 42 75q18 35 28 66q9 27 14 63zM134 592v-104h206v104h-206zM134 460v-100h206v100h-206zM636 960q48 -16 85 -35q5 -6 5 -11q0 -9 -18 -12q-24 -4 -32 -4q-10 -28 -22 -54h208l36 40q40 -26 74 -59q4 -3 4 -7q0 -8 -23 -14q-17 -4 -33 -8q-31 -56 -75 -120
q-43 -66 -89 -118l-18 12q53 66 81 130q33 60 47 118h-223q-11 -30 -23 -57q-31 -61 -66 -110t-84 -103l-14 14q43 55 71 105q26 43 47 97q23 54 39 101q15 44 23 95zM640 500q-36 -28 -75 -46q-21 -11 -46 -16l-1 -4v-124h62l40 40q29 -23 57 -43q5 -4 5 -9q0 -18 -10 -18
h-154v-164h374v164h-40q-81 0 -96 -4l-18 42q39 -8 114 -8h40v138h-48q-80 0 -96 -2l-18 40q39 -8 114 -8h40l30 44q36 -24 54 -43q8 -7 8 -15q0 -9 -38 -30v-226q0 -73 3 -97q1 -29 1 -47q0 -12 -9 -21q-13 -7 -23 -7q-18 0 -18 14v40h-374v-40q0 -14 -18 -14q-11 0 -24 7
q-8 9 -8 21q0 18 1 47q5 24 5 97v230q0 39 -6 66l51 -39q31 19 55 43t36 58q52 -28 80 -49q8 -5 8 -13q0 -10 -12 -12q-4 0 -17 4q-12 4 -29 4z" />
  </g>

</svg>
