<?xml version="1.0" standalone="no"?>
<!DOCTYPE svg PUBLIC "-//W3C//DTD SVG 1.1//EN" "http://www.w3.org/Graphics/SVG/1.1/DTD/svg11.dtd" >
<svg xmlns="http://www.w3.org/2000/svg" xmlns:xlink="http://www.w3.org/1999/xlink" version="1.1" viewBox="0 -204 1024 1024">
  <g transform="matrix(1 0 0 -1 0 820)">
   <path fill="currentColor"
d="M36 906q44 -12 117 -12h251l38 41q31 -24 59 -45q7 -5 7 -10q0 -14 -13 -14h-220q-15 -28 -30 -48h113l32 28q38 -22 58 -42q6 -5 6 -10q0 -7 -13 -13t-30 -10q-42 -66 -73 -98q-30 -31 -69 -58q-43 -29 -90 -49q-50 -22 -126 -42l-13 16q76 27 114 47q35 15 68 37
q6 4 11 8q-5 3 -11 16q-13 31 -29 50q-13 16 -32 32l-19 -16q-30 -21 -74 -46l-12 16q39 26 66 51q27 22 48 50q20 23 35 49q10 17 17 32h-69q-71 -2 -97 -7zM179 747q30 -16 48 -32q22 -16 33 -32q7 -12 7 -22q6 5 11 10q28 27 51 57q21 30 35 62h-141q-14 -16 -28 -29
q-8 -8 -16 -14zM663 964q46 -9 78 -22q7 -3 7 -10q0 -8 -16 -11q-17 -4 -29 -5q52 -14 104 -34q65 -28 98 -47q33 -21 44 -34q13 -15 22 -29q4 -11 4 -23q0 -17 -15 -17q-7 0 -18 8q-12 7 -27 22q-28 24 -51 41q-29 19 -71 41q-40 24 -106 56q-8 -15 -17 -27
q-19 -22 -42 -43q-26 -23 -49 -39q-23 -17 -49 -32q-29 -18 -61 -31l-17 20q38 18 66 39q26 20 53 44q26 25 46 49q18 22 29 42q10 18 17 42zM709 840q40 -14 62 -30q10 -6 10 -14q0 -11 -42 -11q-22 -18 -40 -31q-18 -12 -36 -22q-20 -10 -39 -17q-20 -9 -43 -15l-53 -12
l-12 17q32 8 51 18q21 9 42 23q21 12 43 30q21 17 33 32q15 15 24 32zM793 772q40 -14 62 -30q10 -6 10 -14q0 -11 -42 -11l-46 -30l-43 -21l-46 -17q-23 -8 -50 -13q-29 -7 -62 -12l-12 17q37 8 61 17q25 10 50 23q25 11 50 29q25 16 40 31q17 15 28 31zM885 708
q40 -14 62 -30q10 -6 10 -14q0 -11 -42 -11q-30 -19 -55 -32q-24 -13 -50 -23q-28 -10 -54 -18q-27 -9 -59 -15q-34 -7 -73 -13l-12 17q45 9 72 19q30 9 60 23q30 12 60 31q30 17 48 33q20 16 33 33zM473 640q50 -10 85 -24q8 -3 8 -11t-18 -12q-15 -4 -27 -4q42 -28 89 -48
q53 -23 120 -45q67 -20 135 -35q65 -13 123 -19l-3 -17q-49 0 -65 -30q-68 14 -122 32q-61 20 -105 43q-51 21 -99 47q-45 24 -95 61q-21 -19 -44 -35q-38 -23 -85 -46q-52 -23 -97 -40q-47 -19 -100 -35q-57 -18 -122 -32l-19 22q79 19 138 41q55 21 110 46q55 27 97 52
q38 23 60 45q22 19 36 44zM591 490q27 -20 50 -38q6 -4 6 -8q0 -14 -11 -14h-287v28h210zM688 390l35 33q51 -36 51 -50q0 -10 -30 -25v-79q0 -23 1 -30q1 -8 1 -16q0 -21 -34 -27q-16 0 -16 10v8h-416v-117q27 2 49 4q47 4 103 12q55 7 128 19l4 -22q-58 -18 -103 -28
q-48 -12 -92 -21q-41 -9 -86 -15q-11 -37 -18 -37q-8 0 -49 84q11 1 20 1v269q0 39 -8 69l62 -42h398zM280 362v-44h416v44h-416zM280 290v-48h416v48h-416zM830 156q-18 -8 -40 -15q-21 -6 -42 -11q-8 -3 -16 -4q32 -12 52 -22q43 -17 61 -29q16 -9 23 -19q5 -9 5 -15
q0 -21 -17 -21q-12 0 -23 4q-14 3 -43 21q-38 26 -84 47q-43 23 -98 45q-54 21 -120 41l17 14q94 -21 164 -44l31 -10q19 10 33 19q16 10 29 22q13 11 23 22q10 12 16 23q81 -49 81 -62q0 -11 -19 -11q-12 0 -33 5z" />
  </g>

</svg>
