<?xml version="1.0" standalone="no"?>
<!DOCTYPE svg PUBLIC "-//W3C//DTD SVG 1.1//EN" "http://www.w3.org/Graphics/SVG/1.1/DTD/svg11.dtd" >
<svg xmlns="http://www.w3.org/2000/svg" xmlns:xlink="http://www.w3.org/1999/xlink" version="1.1" viewBox="0 -120 1000 1000">
  <g transform="matrix(1 0 0 -1 0 880)">
   <path fill="currentColor"
d="M44 629q72 108 102 174q31 67 59 155l77 -19q19 -4 19 -14q0 -8 -14 -13l-16 -5v-2q79 -31 109 -54q49 -39 49 -77q0 -19 -13 -32q-8 -8 -18 -8q-8 0 -15 6q-2 1 -27 50q-15 29 -61 70q-15 15 -37 30q-44 -76 -106 -161h115l39 44l64 -51v-21h-213l-11 20l-39 -49l65 -44
h133l22 36l62 -40q12 -9 12 -16q0 -9 -14 -14l-13 -4l1 -219l-62 -10v26h-150v-96h136l41 49l70 -54v-22h-247v-92h134l42 50l76 -59l-1 -18l-251 1v-81l-62 -12v611q-25 -29 -44 -45zM163 501v-87h150v87h-150zM163 601v-73h150v73h-150zM367 102l-9 26h91v284l55 -32h294
l21 36l62 -44q12 -8 12 -15q0 -11 -16 -13l-14 -2v-214l39 50l57 -53v-23h-592zM510 128h52v226h-52v-226zM619 354v-226h58v226h-58zM736 128h66v226h-66v-226zM412 663l-9 27h203v113h-153l-9 26h162v114l72 -4q20 -1 20 -13q0 -9 -15 -16l-12 -6l-1 -75h113l45 56l76 -61
v-21h-234v-113h150l45 55l77 -63l-1 -19h-270q11 -5 11 -13q0 -7 -12 -10l-21 -7l-80 -117l227 7q-28 39 -91 87l5 16q51 -12 108 -50q74 -49 74 -104q0 -17 -11 -28q-9 -9 -20 -9q-9 0 -14 5q-4 6 -26 46q-2 5 -8 15l-336 -45l-5 -12q-4 -12 -13 -12q-6 0 -10 9l-37 73
l130 2q35 95 47 147h-177z" />
  </g>

</svg>
