<?xml version="1.0" standalone="no"?>
<!DOCTYPE svg PUBLIC "-//W3C//DTD SVG 1.1//EN" "http://www.w3.org/Graphics/SVG/1.1/DTD/svg11.dtd" >
<svg xmlns="http://www.w3.org/2000/svg" xmlns:xlink="http://www.w3.org/1999/xlink" version="1.1" viewBox="0 -410 2048 2048">
  <g transform="matrix(1 0 0 -1 0 1638)">
   <path fill="currentColor"
d="M610 717h-342v-438q208 60 329 113q-37 65 -122 169l22 26q245 -165 245 -301q0 -71 -55 -71q-35 0 -48 59q-10 42 -22 74q-131 -87 -332 -181q-5 -21 -7 -32q-8 -39 -24 -39t-33 33l-63 121l14 3v904q-7 124 -8 155l116 -68h317l60 72l72 -50q42 -28 42 -50
q0 -16 -65 -52v-469q0 -37 -57 -37q-39 0 -39 25v34zM610 777v179h-342v-179h342zM610 1187h-342v-171h342v171zM1318 1101q-124 -115 -310 -250q288 5 628 46q-45 66 -116 126l23 34q136 -86 183 -134q88 -89 88 -153q0 -63 -50 -63q-22 0 -38 19q-6 7 -23 52q-8 23 -40 77
q-301 -55 -655 -91q-17 -71 -32 -71q-18 0 -29 42l-30 112q37 25 120 100q86 78 145 154h-207q-61 0 -142 -11l-37 86q90 -19 179 -19h297v207h-182q-56 0 -141 -11l-36 87q108 -17 177 -17h182v29q0 117 -8 159l105 -24q81 -19 81 -46q0 -24 -48 -41l-38 -13v-64h222
l93 101l114 -107q16 -15 16 -28q0 -25 -26 -25h-419v-207h366l94 102l114 -107q16 -15 16 -25q0 -26 -25 -26h-611zM290 1491q81 -10 140 -10h81l80 80l115 -86q16 -12 16 -26q0 -26 -27 -26h-265q-69 0 -149 -11l-19 43q-69 -81 -164 -173l-26 25q141 178 232 365
q53 109 97 286l132 -39q46 -13 46 -36q0 -24 -41 -32l-51 -9v-3q303 -148 303 -264q0 -58 -48 -58q-32 0 -61 52q-76 136 -214 229q-4 -10 -17 -38q-71 -153 -160 -269zM906 678l111 -64h676l58 72l68 -50q41 -29 41 -49q0 -14 -61 -52v-352l76 80l108 -85q16 -13 16 -27
q0 -26 -26 -26h-1071q-59 0 -140 -11l-38 86q99 -14 189 -17v352q0 89 -7 143zM1003 183h163v372h-163v-372zM1257 183h175v372h-175v-372zM1523 183h185v372h-185v-372zM1637 1753h119l76 81l109 -86q15 -12 15 -27q0 -26 -26 -26h-302l-16 -87q-6 -36 -14 -43
q-13 -11 -37 -11q-49 0 -49 27q0 7 7 43l15 71h-15q-9 0 -48 -4q-15 -1 -46 -3l-43 88q86 -23 144 -23h19l23 132l7 57l126 -25q30 -6 30 -24q0 -23 -76 -46zM1105 1753h61l75 81l108 -86q16 -13 16 -26q0 -27 -26 -27h-231l12 -80q5 -33 5 -35q0 -31 -54 -31q-34 0 -35 15
l-17 131h-63q-60 0 -142 -9l-37 85q26 -3 39 -5q81 -13 140 -13h57l-23 189l111 -11q48 -5 48 -26q0 -24 -58 -48z" />
  </g>

</svg>
