<?xml version="1.0" standalone="no"?>
<!DOCTYPE svg PUBLIC "-//W3C//DTD SVG 1.1//EN" "http://www.w3.org/Graphics/SVG/1.1/DTD/svg11.dtd" >
<svg xmlns="http://www.w3.org/2000/svg" xmlns:xlink="http://www.w3.org/1999/xlink" version="1.1" viewBox="0 -410 2048 2048">
  <g transform="matrix(1 0 0 -1 0 1638)">
   <path fill="currentColor"
d="M1169 905h555l68 76l83 -54q40 -26 40 -49q0 -27 -77 -61v-522l52 -31q22 -14 22 -36q0 -20 -18 -20h-733v-69q0 -28 -43 -28q-61 0 -61 51l9 161v498q0 6 -9 167zM1161 264h583v584h-583v-584zM1842 1229q-361 -72 -786 -109q-4 -56 -21 -56q-20 0 -34 32l-57 133
q99 59 253 324q109 187 190 395l121 -53q43 -19 43 -45q0 -31 -48 -31h-46q-208 -356 -419 -590q67 2 232 3q182 1 549 43q-43 82 -92 154q-8 11 -106 136l24 26q351 -321 351 -488q0 -64 -51 -64q-39 0 -58 63q-12 40 -45 127zM160 727h38q2 -56 2 -84q0 -271 -103 -271
q-43 0 -43 42q0 19 38 64q44 51 57 134q6 35 11 115zM455 757q103 -154 103 -238q0 -66 -45 -66q-42 0 -42 60v37q0 85 -44 191zM705 1839l82 81l111 -86q18 -14 18 -26q0 -27 -28 -27h-312v-236h86l81 80l114 -85q16 -13 16 -27q0 -26 -27 -26h-270v-244h102l80 80l114 -85
q17 -14 17 -27q0 -26 -28 -26h-285v-249h199l71 72l52 -38q55 -40 55 -64q0 -26 -29 -39l-42 -19q-5 -53 -8 -79q-42 -460 -100 -558q-68 -113 -216 -128q-5 62 -57 86q-45 21 -137 48l11 38q26 -6 104 -26q65 -16 95 -16q126 0 162 200q34 186 51 466h-513v-31
q0 -24 -9 -31q-14 -11 -55 -11q-45 0 -41 46l4 53l7 172v686q0 62 -17 164l121 -88h421zM274 936h211v249h-211v-249zM485 1243v244h-211v-244h211zM485 1545v236h-211v-236h211zM587 782q146 -126 146 -213q0 -59 -46 -59q-30 0 -43 83q-12 72 -80 166zM318 745
q10 -27 15 -40q43 -108 43 -185q0 -103 -63 -103q-38 0 -38 38q0 14 8 39q19 62 19 109q0 67 -16 132z" />
  </g>

</svg>
