<?xml version="1.0" standalone="no"?>
<!DOCTYPE svg PUBLIC "-//W3C//DTD SVG 1.1//EN" "http://www.w3.org/Graphics/SVG/1.1/DTD/svg11.dtd" >
<svg xmlns="http://www.w3.org/2000/svg" xmlns:xlink="http://www.w3.org/1999/xlink" version="1.1" viewBox="0 -200 1000 1000">
  <g transform="matrix(1 0 0 -1 0 800)">
   <path fill="currentColor"
d="M744 841l52 -40l-17 -59v-305q0 -22 4.5 -34.5t11.5 -12.5l43 15l15 -43v479h-109zM907 63q-6 -8 -10.5 -12.5t-10.5 -7.5t-13.5 -5.5l-19.5 -6.5v125h-290v-113q-10 -8 -24.5 -16t-28.5 -12v884l64 -36h269l32 46l65 -68l-33 -28v-750zM563 179h290v162h-59
q-54 11 -60 59v441h-102l61 -36l-20 -53v-39q0 -72 -3 -137t-14.5 -120t-33.5 -98t-59 -70v-109zM563 310q9 13 17 25.5t15 32t12.5 50t9.5 79.5t6 120.5t2 172.5v51h-62v-20v-511zM267 708v-120h47l53 45l67 -68h-167v-130h101l38 44l52 -58l-36 -30q-2 -85 -2 -155.5
t-11.5 -124t-40 -89t-86.5 -50.5q1 1 1 10q0 13 -6 24.5t-15.5 21t-20.5 17.5t-21 14v10q6 -3 16.5 -6t22.5 -5.5t24 -4t21 -1.5q24 0 37.5 27t20 71.5t8 102t1.5 119.5v38h-295v506l63 -41h172l52 45l67 -69h-163v-119h50l54 47l63 -71h-167zM130 435h89v130h-89v-130z
M130 588h89v120h-89v-120zM130 732h89v119h-82l-7 -29v-90zM42 142q11 29 18.5 53t7.5 57q0 11 -1 23t-3 26h4q20 -45 28.5 -72t8.5 -48q0 -18 -6 -37q-2 -17 -16.5 -28t-27.5 -11q-7 0 -12 4.5t-5 13.5q0 12 4 19zM128 153q6 19 8.5 43.5t2.5 50.5q0 34 -3 61h6
q29 -52 35 -84.5t6 -50.5q-2 -27 -13.5 -42.5t-22.5 -15.5q-19 0 -19 33v5zM237 142q-7 0 -12.5 10t-6.5 30q-1 31 -1.5 69.5t-8.5 74.5h5q20 -36 37 -70.5t17 -66.5v-8q0 -17 -10.5 -28t-19.5 -11zM297 159q-3 14 -4 35t-2 45t-3.5 48t-9.5 45h7q12 -13 22.5 -30.5
t18.5 -35.5t12.5 -35t4.5 -29v-5q-5 -23 -16.5 -33.5t-20.5 -10.5q-8 0 -9 6z" />
  </g>

</svg>
