<?xml version="1.0" standalone="no"?>
<!DOCTYPE svg PUBLIC "-//W3C//DTD SVG 1.1//EN" "http://www.w3.org/Graphics/SVG/1.1/DTD/svg11.dtd" >
<svg xmlns="http://www.w3.org/2000/svg" xmlns:xlink="http://www.w3.org/1999/xlink" version="1.1" viewBox="0 -410 2048 2048">
  <g transform="matrix(1 0 0 -1 0 1638)">
   <path fill="currentColor"
d="M1364 513q-85 127 -133 243q-36 84 -97 294l43 15q65 -192 121 -301q35 -70 120 -179q152 222 216 565l129 -46q54 -19 54 -43q0 -29 -54 -39l-43 -7q-9 -23 -43 -133q-56 -175 -200 -365q104 -102 194 -158q140 -85 329 -130v-36q-64 -5 -81 -12q-30 -11 -60 -62
q-255 116 -441 326q-194 -217 -536 -372l-13 36q180 98 307 208q102 87 188 196zM1439 1631q-19 8 -24 41q-22 124 -133 267l24 22q209 -182 209 -266q0 -40 -35 -64h293l98 102l121 -107q17 -15 17 -26q0 -26 -27 -26h-817q-116 0 -191 -8l-39 88q97 -23 230 -23h274z
M1595 1472q354 -233 354 -357q0 -24 -16.5 -44t-36.5 -20q-33 0 -68 79q-72 161 -260 316zM1185 1475l123 -56q36 -16 36 -35q0 -28 -48 -31l-48 -3q-121 -233 -295 -356l-20 24q17 22 26 33q148 187 226 424zM153 731h38q0 -166 -11 -237q-19 -115 -89 -115q-44 0 -44 40
q0 19 38 64q44 51 57 133q6 36 11 115zM456 767q103 -161 103 -239q0 -65 -47 -65q-40 0 -40 60v37q0 86 -44 191zM699 1840l80 81l115 -86q16 -12 16 -27q0 -26 -29 -26h-311v-225h105l81 81l112 -86q18 -14 18 -26q0 -27 -27 -27h-289v-244h113l80 80l114 -85
q17 -13 17 -27q0 -26 -26 -26h-298v-261h203l71 72l50 -38q61 -45 61 -63q0 -25 -32 -40l-42 -19q-4 -37 -12 -136q-33 -400 -96 -510q-66 -113 -216 -128q-4 61 -57 85q-45 21 -137 49l11 37q25 -6 104 -26q65 -16 98 -16q100 0 137 104q46 128 76 572h-521v-31
q0 -24 -9 -31q-14 -11 -55 -11q-45 0 -41 46l4 53l7 172v687q0 60 -16 164l120 -88h421zM268 936h211v261h-211v-261zM479 1255v244h-211v-244h211zM479 1557v225h-211v-225h211zM585 790q145 -123 145 -212q0 -59 -45 -59q-20 0 -32 23q-4 8 -12 60q-12 74 -80 166z
M317 748q58 -147 58 -226q0 -105 -64 -105q-38 0 -38 38q0 14 8 39q19 61 19 113q0 43 -18 130z" />
  </g>

</svg>
