<?xml version="1.0" standalone="no"?>
<!DOCTYPE svg PUBLIC "-//W3C//DTD SVG 1.1//EN" "http://www.w3.org/Graphics/SVG/1.1/DTD/svg11.dtd" >
<svg xmlns="http://www.w3.org/2000/svg" xmlns:xlink="http://www.w3.org/1999/xlink" version="1.1" viewBox="0 -140 1000 1000">
  <g transform="matrix(1 0 0 -1 0 860)">
   <path fill="currentColor"
d="M641 935l92 -49l-2 -14l-39 -7q48 -69 108 -109t154 -66l-4 -16q-27 -3 -40 -10.5t-29 -29.5q-80 51 -125.5 97t-84.5 117q-67 -85 -131 -137t-156 -97l-12 12q97 72 157 141t112 168zM766 695l53 -48v-17h-339v23l237 -1l34 43h15zM838 576l95 -26v-16l-33 -19v-351
q0 -62 -17.5 -84.5t-78.5 -39.5l-17 8v29l-86 29l2 18l92 -5q24 -1 33.5 11t9.5 45v401zM710 526l92 -25v-15l-30 -21v-254l-6 -15l-44 -15l-12 8v337zM573 536l29 26h14l57 -45v-16l-28 -20v-320q0 -68 -14.5 -90t-66.5 -32l-15 11v22l-48 25l3 15l44 -2q22 -1 28 7t6 33
l1 87h-101v-177l-8 -14l-42 -14l-12 7v527l65 -31zM323 445l24 27h13l54 -46l-2 -18l-19 -17q-3 -151 -40.5 -237.5t-127.5 -106.5l-11 4l-9 39l-81 52l7 13l79 -18q14 -3 24 -3q96 0 96 251v38h-186q-1 -11 -7 -26l-43 -17l-14 7v515l65 -28h159l40 42h14l53 -47v-17h-141
v-127h24l36 40h11l52 -46v-16h-123v-118h22l32 39h16l51 -43v-18h-121v-118h53zM230 399l10 11q83 -35 83 -75q0 -15 -6.5 -26.5t-15.5 -11.5t-15 13q-23 46 -31 59t-25 30zM183 355l13 11q92 -60 92 -108q0 -16 -8.5 -29t-19.5 -13q-14 0 -28 48q-11 39 -49 91zM135 340
l15 8q62 -85 62 -127q0 -18 -9.5 -33t-20.5 -15q-22 0 -26 65q-2 28 -21 102zM86 334h20q16 -77 16 -125q0 -34 -16 -64t-34 -30q-29 0 -29 49q0 13 8 27q26 42 30.5 60.5t4.5 82.5zM482 402h101v111h-101v-111zM144 725h64v127h-64v-127zM482 259h101v120h-101v-120z
M144 585h64v117h-64v-117zM144 445h64v117h-64v-117z" />
  </g>

</svg>
