<?xml version="1.0" standalone="no"?>
<!DOCTYPE svg PUBLIC "-//W3C//DTD SVG 1.1//EN" "http://www.w3.org/Graphics/SVG/1.1/DTD/svg11.dtd" >
<svg xmlns="http://www.w3.org/2000/svg" xmlns:xlink="http://www.w3.org/1999/xlink" version="1.1" viewBox="0 -204 1024 1024">
  <g transform="matrix(1 0 0 -1 0 820)">
   <path fill="currentColor"
d="M381 956q34 -26 63 -49q8 -4 8 -10q0 -15 -15 -15h-145v-132h36l38 41q30 -23 59 -45q6 -4 6 -9q0 -15 -12 -15h-127v-119h36l38 41q30 -25 59 -45q6 -6 6 -11q0 -14 -12 -14h-127v-128h101l37 34q36 -22 54 -39q9 -10 9 -14q0 -13 -38 -27q-6 -106 -22 -177
q-14 -76 -30 -111q-16 -32 -32 -47q-21 -16 -43 -28q-21 -9 -32 -9q0 17 -6 26q-6 12 -75 42l5 20q64 -20 84 -20q14 0 28 5q9 3 16 14q11 14 24 46q12 32 19 96q10 61 16 161h-283v-33q0 -13 -16 -13q-10 0 -24 6q-12 10 -12 25q0 17 3 46q4 23 4 97v336q0 41 -7 72l60 -43
h208zM124 446h120v128h-120v-128zM244 603v119h-120v-119h120zM244 750v132h-120v-132h120zM88 328h23q0 -55 -8 -93q-4 -27 -13 -47q-5 -18 -15 -32q-6 -8 -13 -11q-5 -4 -11 -4q-26 0 -26 23q0 6 4 10q17 21 29 41q14 21 20 46q7 25 10 67zM166 336q8 -18 15 -41
q7 -21 9 -40q4 -22 4 -38q0 -18 -6 -29q-4 -11 -13 -16q-6 -2 -11 -2q-20 0 -20 19q0 5 6 17q4 18 3 44q2 31 -6 82zM224 353q14 -17 24 -34q10 -15 17 -31q7 -13 10 -24q3 -12 3 -22q0 -18 -6 -29q-9 -13 -20 -13q-3 0 -5 4t-4 21q-3 19 -10 40q-4 19 -10 37q-6 16 -15 36z
M296 368q15 -13 29 -30q14 -13 22 -25q10 -13 13 -24q4 -9 4 -17q0 -17 -6 -28q-8 -12 -18 -12q-4 0 -7 4q-3 3 -6 19q-3 18 -11 34q-7 19 -15 33q-7 16 -21 35zM659 960q93 -19 93 -37q0 -13 -51 -17q-19 -28 -49 -51h203l36 32q50 -37 50 -50q0 -9 -30 -24v-243
q0 -24 1 -31q1 -8 1 -15q0 -22 -33 -28q-17 0 -17 10v25h-128v-140q14 -27 28 -47q21 13 39 24q20 16 38 34q17 15 30 33q15 16 23 34q81 -50 81 -63q0 -10 -20 -10q-12 0 -32 5q-24 -18 -53 -34q-26 -13 -54 -25q-19 -11 -41 -18q5 -6 9 -10q29 -39 67 -74q37 -34 74 -56
q37 -23 67 -33l-3 -18q-51 0 -69 -32q-34 20 -61 48q-31 32 -52 66q-26 32 -48 70q-10 19 -23 40v-208q0 -35 -12 -52q-11 -16 -33 -26q-16 -11 -31 -11q-3 23 -12 36q-5 10 -20 18q-22 13 -47 15v25q37 -15 69 -15q24 0 31 6q7 5 7 29v389h-124v-20q0 -11 -11 -17
q-15 -6 -26 -6q-13 0 -13 14q0 4 1 15q1 22 1 42v258q0 49 -2 67l64 -29h45q17 21 25 46q7 23 12 59zM563 559h300v119h-300v-119zM563 706h300v121h-300v-121zM487 406q35 -6 96 -7l30 32q34 -23 55 -42q6 -6 6 -11q0 -7 -12 -15q-18 -7 -25 -9q-32 -74 -58 -117
q-28 -43 -62 -78q-32 -35 -78 -66l-15 17q45 40 75 78q25 35 47 76q18 38 42 106q-68 -1 -82 -7z" />
  </g>

</svg>
