<?xml version="1.0" standalone="no"?>
<!DOCTYPE svg PUBLIC "-//W3C//DTD SVG 1.1//EN" "http://www.w3.org/Graphics/SVG/1.1/DTD/svg11.dtd" >
<svg xmlns="http://www.w3.org/2000/svg" xmlns:xlink="http://www.w3.org/1999/xlink" version="1.1" viewBox="0 -120 1000 1000">
  <g transform="matrix(1 0 0 -1 0 880)">
   <path fill="currentColor"
d="M109 330q16 -63 16 -102q0 -50 -21 -74q-12 -15 -31 -15q-27 0 -27 24q0 10 22 48q22 40 23 118zM81 363v572l63 -35h190l43 50l69 -56v-21h-170v-120h40l36 41l63 -51v-18h-139v-124h41l41 49l66 -58v-18l-148 -1v-134h76l25 38l63 -42q13 -9 13 -16t-14 -12l-17 -6
l-4 -82q33 33 64 78q51 72 76 133q-47 -18 -88 -28l-4 13q69 30 93 49q34 28 42 70h-57v-36l-53 -8l1 170q-22 -29 -71 -71l-11 11q87 97 145 255l74 -11q15 -2 15 -14q0 -10 -12 -14l-23 -7q-15 -23 -31 -44h270l22 37l67 -42q15 -10 15 -17q0 -8 -15 -14l-18 -6
q-2 -25 -6 -107q-4 -88 -21 -146q-12 -38 -47 -54q-32 -14 -46 -14q-6 0 -8 11q-3 16 -6 21q-5 6 -19 9l-43 10v18h107q25 78 29 268h-299q-28 -35 -57 -69l50 -8q14 -3 14 -10q0 -6 -11 -11l-12 -7v-72h63v149l69 -7q13 -2 13 -12q0 -7 -11 -12l-17 -8v-110h64v110l69 -8
q13 -2 13 -10q0 -7 -9 -12l-18 -8v-122l-55 -8v30h-67q-13 -41 -26 -56q-12 -15 -62 -45l55 -15q16 -4 16 -14t-14 -14l-23 -6l-20 -26h273l20 36l60 -38q14 -8 14 -16t-12 -14l-15 -7q-3 -33 -8 -114q-13 -194 -53 -223q-19 -14 -53 -22q-17 -5 -25 -5q-12 0 -13 20
q0 18 -20 23l-51 11v18l124 -1q15 31 26 112q12 82 13 194h-301l-23 -26l-30 -32l40 -5q13 -1 13 -10q0 -7 -10 -13l-14 -9v-85h73v157l62 -7q17 -1 17 -12q0 -8 -13 -13l-13 -6v-119h65v120l68 -7q15 -2 15 -11q0 -7 -10 -12l-17 -8v-137l-56 -8v36h-68q-12 -68 -65 -103
q-62 -41 -153 -65l-7 15q158 61 167 153h-65v-39l-56 -8l1 171q-47 -42 -68 -57q-6 -57 -10 -91q-11 -81 -38 -110q-20 -22 -52 -31q-13 -4 -22 -4q-7 0 -8 3l-2 20q0 15 -26 22l-47 14l1 14l114 1q14 26 19 55q3 15 10 59q-10 -4 -15 -4q-18 0 -27 32q-12 42 -27 63
q-6 9 -18 22l12 11q28 -13 44 -26q14 -11 35 -37l6 105l-225 1v-35zM140 439h77v135h-77v-135zM140 725v-124h77v124h-77zM140 873v-120h77v120h-77zM156 338q52 -52 52 -108q0 -32 -17 -46q-7 -5 -12 -5q-20 0 -20 24l1 53q0 26 -19 75zM219 350q65 -51 65 -99
q0 -22 -14 -36q-8 -8 -17 -8q-8 0 -12 8q-3 5 -7 49q-2 22 -29 76z" />
  </g>

</svg>
