<?xml version="1.0" standalone="no"?>
<!DOCTYPE svg PUBLIC "-//W3C//DTD SVG 1.1//EN" "http://www.w3.org/Graphics/SVG/1.1/DTD/svg11.dtd" >
<svg xmlns="http://www.w3.org/2000/svg" xmlns:xlink="http://www.w3.org/1999/xlink" version="1.1" viewBox="0 -204 1024 1024">
  <g transform="matrix(1 0 0 -1 0 820)">
   <path fill="currentColor"
d="M380 946q30 -23 55 -43q7 -4 7 -11q0 -16 -12 -16h-156v-128h54l36 38q27 -22 53 -41q7 -2 7 -7q0 -18 -12 -18h-138v-122h54l36 34q27 -18 53 -39q7 -4 7 -9q0 -14 -12 -14h-138v-136h102l36 30q32 -18 52 -34q6 -10 6 -14q0 -12 -40 -26q-5 -105 -17 -175
q-15 -75 -28 -111q-12 -32 -29 -45q-16 -17 -38 -30q-17 -9 -26 -9q0 17 -7 28q-10 12 -89 42l4 18q73 -22 98 -22q12 0 24 5q8 2 14 13q7 13 17 45q11 34 18 95q9 62 13 160h-256v-18q0 -14 -20 -14q-10 0 -23 6q-9 10 -9 24q0 16 2 45q6 24 6 97v336q0 39 -8 70l58 -44
h206zM128 434h98v136h-98v-136zM226 598v122h-98v-122h98zM226 748v128h-98v-128h98zM86 314h12v-44q0 -33 -3 -62q-3 -26 -10 -47q-3 -15 -10 -25q-7 -12 -14 -16q-6 -4 -11 -4q-22 0 -22 18q0 8 8 18q20 31 30 51q9 21 15 45q4 25 5 66zM146 320q13 -16 21 -39
q8 -22 11 -43q4 -19 4 -38q0 -15 -4 -28q-5 -11 -11 -16q-7 -4 -11 -4q-18 0 -18 18q0 6 2 19q4 16 2 43q-1 34 -12 86zM218 328q13 -13 24 -30q11 -16 16 -28q7 -14 10 -26q2 -10 2 -18q0 -19 -5 -30q-8 -10 -17 -10q-4 0 -6 4q-2 2 -4 17q-2 21 -9 38q-5 20 -11 35
q-5 18 -14 38zM280 346q18 -15 31 -28q17 -13 27 -27q9 -12 12 -20q4 -8 4 -19q0 -16 -5 -24q-8 -10 -17 -10q-5 0 -8 4q-3 2 -7 14q-4 19 -11 35q-8 15 -15 31q-8 15 -25 30zM632 954q80 -19 80 -34q0 -10 -44 -14q-26 -34 -63 -66h275l30 44q36 -20 54 -42q8 -8 8 -12
q0 -10 -36 -34v-238q0 -75 2 -99v-47q0 -12 -9 -21q-15 -5 -23 -5q-18 0 -18 12v22h-358v-22q0 -12 -18 -12q-9 0 -24 5q-10 9 -10 21q0 19 3 47q5 24 5 99v260q0 39 -8 66l62 -44h43q21 26 32 49q11 26 17 65zM530 448h358v366h-358v-366zM500 310h14q0 -66 -7 -108
q-6 -30 -19 -55q-7 -20 -19 -36q-7 -8 -16 -12q-7 -5 -15 -5q-22 0 -22 22q0 5 5 12q23 24 38 48q17 24 25 54q11 31 16 80zM592 364q52 -9 88 -28q6 -4 6 -12q0 -5 -9 -8q-14 -9 -35 -14v-164q0 -25 4 -32q8 -12 27 -13q20 -3 56 -3q45 0 64 3q17 3 22 16q13 25 25 105
l14 -6l-2 -74q0 -17 11 -28q25 -14 25 -26q0 -10 -12 -16q-13 -6 -47 -10q-39 -8 -105 -8q-44 0 -80 3q-28 2 -40 17q-8 13 -8 42v190q0 32 -4 66zM720 390q38 -21 58 -41q21 -18 31 -33q5 -11 5 -24q0 -30 -18 -30q-6 0 -12 3q-5 4 -10 16q-11 32 -25 49q-17 22 -41 42z
M892 292q39 -28 61 -60q22 -25 30 -48q7 -19 7 -36q0 -32 -22 -32q-6 0 -12 5q-5 7 -10 26q-11 43 -25 70q-17 28 -41 59zM640 782q84 -12 84 -26q0 -16 -44 -18q-7 -22 -14 -36h108l36 32q39 -23 58 -42q8 -4 8 -10q0 -10 -15 -17q-12 -7 -31 -11q-27 -45 -49 -68
q-10 -11 -20 -19q10 -7 17 -13q21 -17 30 -25q6 -10 10 -18q4 -10 4 -19q-1 -28 -18 -28q-8 0 -14 6q-8 5 -28 35q-14 22 -33 38q-24 -16 -53 -28q-35 -17 -84 -29l-12 14q47 21 70 33q24 10 43 27q5 4 12 9q-27 23 -69 51l10 12q45 -20 79 -44v0q2 1 3 3q17 20 33 38
q12 23 21 43h-131q-2 -3 -3 -5q-12 -22 -35 -51q-18 -27 -51 -50l-10 18q22 30 40 59q17 30 29 62q14 39 19 77z" />
  </g>

</svg>
