<?xml version="1.0" standalone="no"?>
<!DOCTYPE svg PUBLIC "-//W3C//DTD SVG 1.1//EN" "http://www.w3.org/Graphics/SVG/1.1/DTD/svg11.dtd" >
<svg xmlns="http://www.w3.org/2000/svg" xmlns:xlink="http://www.w3.org/1999/xlink" version="1.1" viewBox="0 -140 1000 1000">
  <g transform="matrix(1 0 0 -1 0 860)">
   <path fill="currentColor"
d="M430 321l-7 10q87 103 142 221l70 -36l-4 -13h-21l-54 -69h123l41 107l67 -32l-5 -14h-21l-55 -61h134l33 37h14l41 -46v-12h-197v-78h80l33 36h14l34 -42l1 -16h-162v-75h88l34 35l14 1l37 -45v-13h-173v-92h127l32 37h12l40 -44l-1 -14h-388v-36l-5 -13l-51 -11l-8 8
l-1 311q-25 -22 -58 -41zM668 216h-115v-92h115v92zM668 314h-115v-77h115v77zM665 413h-112v-78h112v78zM425 834h140v99l86 -12v-12l-21 -11v-64h86v99l83 -16v-11l-19 -10v-62h77l36 38h11l41 -45v-14h-165v-53l-5 -8l-51 -10l-8 7v64h-86v-56l-6 -8l-53 -11l-7 7l1 68
h-140v21zM445 539v196l63 -27h77l24 26h13l40 -31v-13l-16 -13l1 -114l-6 -9l-44 -12l-9 7v28h-83v-25l-6 -10l-44 -9zM588 687h-83v-89h83v89zM681 733l59 -25h81l24 26h13l42 -31v-12l-13 -16v-114l-5 -9l-45 -12l-10 4v33h-86q0 -16 -5 -26l-46 -12l-9 3v191zM827 687
h-86v-89h86v89zM351 875l37 41h15l44 -49v-13h-154v-130h49l35 38h15l34 -47v-12h-133v-106h57l29 37h16l39 -42l-1 -16h-139v-117h57l27 27h15l43 -48l-2 -12l-22 -11q-14 -204 -28 -257q-18 -67 -68 -89q-19 -9 -46 -14l-13 7l-6 22l-73 43l5 14l58 -13q13 -3 26 -3
q41 0 58 54q16 52 24 211l2 48h-192v-41l-6 -8l-49 -13l-9 5v520l66 -26h190zM229 854h-70v-130h70v130zM229 703h-70v-105h70v105zM229 577h-70v-118h70v118zM80 303l15 1q19 -98 19 -138q0 -61 -31 -61q-11 0 -20 13t-9 28q0 16 7 37q17 58 19 120zM122 305l10 9
q68 -60 68 -111q0 -43 -22 -43q-23 0 -29 48q-6 56 -27 97zM176 329l9 9q49 -38 65 -59t16 -46q0 -34 -20 -34q-19 0 -26 32q-13 55 -44 98zM234 371l8 7q82 -48 82 -92q0 -35 -23 -35q-17 0 -24 31q-11 45 -43 89z" />
  </g>

</svg>
