<?xml version="1.0" standalone="no"?>
<!DOCTYPE svg PUBLIC "-//W3C//DTD SVG 1.1//EN" "http://www.w3.org/Graphics/SVG/1.1/DTD/svg11.dtd" >
<svg xmlns="http://www.w3.org/2000/svg" xmlns:xlink="http://www.w3.org/1999/xlink" version="1.1" viewBox="0 -140 1000 1000">
  <g transform="matrix(1 0 0 -1 0 860)">
   <path fill="currentColor"
d="M180 512l8 8q105 -36 105 -89q0 -10 -8 -20t-16 -10q-15 0 -26 24q-25 57 -63 87zM79 425l4 13q102 -46 102 -106q0 -13 -8 -22.5t-18 -9.5q-15 0 -20 14q-22 62 -23 65q-13 26 -37 46zM405 462l-165 -238q-26 -38 -26 -57q0 -13 7 -31q6 -21 6 -38q0 -19 -13 -33
t-31 -14q-37 0 -37 43q0 8 12 43q7 18 7 35q0 23 -43 45l-51 26l6 14l56 -14q12 -3 20 -3q28 0 47 22l193 210zM558 445l-5 -15l-24 -5q-64 -91 -151 -151l-10 10q77 87 122 195zM754 455l7 13q175 -79 175 -138q0 -43 -27 -43q-3 0 -6.5 1t-6.5 3.5t-5.5 5t-5 7t-4.5 7
t-5 8.5t-4 8.5t-4 8.5l-4 8q-27 55 -110 111zM852 282l-8 -14l-29 1q-110 -104 -221 -152.5t-281 -66.5l-8 14q162 28 276 93t204 182zM417 885l39 34h12l41 -42v-15h-304v-47h207l32 30h12l37 -36v-17h-288v-45h205l32 29h12l39 -35v-17h-288v-46h263l36 39h14l44 -45v-16
h-326l-75 -76l251 8q-15 24 -37 53l9 10q99 -51 99 -101q0 -14 -8.5 -24t-19.5 -10t-17 9.5t-21 45.5l-287 -48l-7 -26l-17 -2l-26 82l55 3l41 76h-127v22h96v233l71 -26h201zM852 875l-7 -8h-23q-127 -74 -270 -107l-8 13q66 21 118.5 54t130.5 102zM905 779l-6 -13h-30
q-152 -93 -316 -136l-8 14q195 70 297 181zM950 678l-7 -14h-25q-149 -98 -376 -140l-5 15q236 67 353 185zM499 282l3 13l89 -5q21 -1 27 7.5t6 32.5v197l93 -20l1 -14l-34 -18v-148q0 -58 -16.5 -79.5t-71.5 -32.5l-13 5l-3 33z" />
  </g>

</svg>
