<?xml version="1.0" standalone="no"?>
<!DOCTYPE svg PUBLIC "-//W3C//DTD SVG 1.1//EN" "http://www.w3.org/Graphics/SVG/1.1/DTD/svg11.dtd" >
<svg xmlns="http://www.w3.org/2000/svg" xmlns:xlink="http://www.w3.org/1999/xlink" version="1.1" viewBox="0 -140 1000 1000">
  <g transform="matrix(1 0 0 -1 0 860)">
   <path fill="currentColor"
d="M943 201h-401q40 -30 76 -47.5t120.5 -35.5t206.5 -23l-2 -12q-35 -17 -50 -52q-150 28 -253 77q-50 24 -71 39t-60 54h-18q-11 -25 -12 -27q-54 -71 -157 -104t-274 -34v15l51 3q120 9 205.5 47.5t119.5 99.5h-366v22h372q9 30 12 70l92 -27l-2 -12l-28 -16l-6 -15
l340 1l35 40h15l55 -45v-18zM249 382h491v48h-491v-48zM249 318h491v42h-491v-42zM733 462l28 18h12l48 -40v-15l-17 -16v-118l-5 -11l-50 -16l-8 8v24h-492q0 -15 -3 -24l-48 -16l-10 8v213l65 -26zM785 941l65 -67l-10 -11l-41 5q-159 -60 -262 -79l-3 10
q97 40 151.5 70.5t99.5 71.5zM839 851l63 -64l-7 -10l-35 5q-152 -64 -300 -90l-7 12q93 27 152.5 58t133.5 89zM895 764l59 -64l-10 -10l-37 3q-167 -70 -362 -97l-7 13q129 35 201 66.5t156 88.5zM451 708l36 35l14 1l49 -42v-16h-301l-68 -66l267 19q-12 17 -22 28l10 9
q5 -2 28 -14q67 -34 67 -68q0 -31 -20 -31q-13 0 -40 39q-1 4 -13 19l-284 -53l-10 -31l-13 -3l-33 81q12 0 18.5 1t14.5 7.5t13 20.5l15 42h-131v22h100v204l70 -24l222 -1l36 38h16l47 -44v-16h-330v-39h191l33 35l13 -1l46 -39v-16l-283 -1v-38h183l33 35l15 -1l42 -40
v-16h-273v-36h242zM398 493v-29l-7 -8l-49 -9l-6 9v37h-305v23h305v73l91 -25v-12l-29 -14v-22h208v74l96 -28v-13l-34 -18v-15h181l31 42h15l55 -47v-18h-282v-25l-10 -10l-42 -12l-10 8v39h-208z" />
  </g>

</svg>
