<?xml version="1.0" standalone="no"?>
<!DOCTYPE svg PUBLIC "-//W3C//DTD SVG 1.1//EN" "http://www.w3.org/Graphics/SVG/1.1/DTD/svg11.dtd" >
<svg xmlns="http://www.w3.org/2000/svg" xmlns:xlink="http://www.w3.org/1999/xlink" version="1.1" viewBox="0 -140 1000 1000">
  <g transform="matrix(1 0 0 -1 0 860)">
   <path fill="currentColor"
d="M485 364l246 88v461l90 -18v-13l-26 -16v-392l54 19l15 50l10 5l70 -28l2 -14l-151 -56l-1 -263l-5 -12l-51 -13l-6 7l-1 257l-238 -82zM493 838l3 11q79 -10 121 -29q40 -18 40 -53q0 -28 -19 -28q-12 0 -33 21q-35 36 -112 78zM511 615l4 10q153 -19 153 -85
q0 -26 -21 -26q-15 0 -42 30q-37 42 -94 71zM225 478h-68q0 -14 -4 -26l-50 -12l-8 9v406l68 -32h72l23 118l82 -49l-5 -11l-38 -12l-31 -46h129l28 28h12l51 -47v-15l-25 -18v-297l-3 -13l-51 -14l-6 5v26h-67v-198q8 0 12.5 1t10.5 7t10 19l44 133l80 -44l-3 -14l-37 -5
l-63 -89l86 9q-1 1 -1 2q-1 2 -1 3q-1 1 -2.5 3.5t-2.5 3.5q-9 18 -23 40l10 12q88 -61 88 -108q0 -36 -24 -36q-14 0 -27 39l-1 4q-2 4 -4 7l-106 -25l-18 -30l-28 49v-63q0 -58 22 -58h477q42 0 52 46l23 94l13 -4l3 -128l24 -13v-15q-12 -22 -34 -27.5t-76 -5.5h-473
q-27 0 -39.5 1.5t-27 9t-20 25t-5.5 48.5v267q-42 -153 -105 -246q-29 -43 -52.5 -66.5t-79.5 -64.5l-7 14q77 81 122 174t74 229zM312 655h89v146h-87zM157 655h93l-1 146h-92v-146zM314 500h87v133h-89zM157 500h94v133h-94v-133z" />
  </g>

</svg>
