<?xml version="1.0" standalone="no"?>
<!DOCTYPE svg PUBLIC "-//W3C//DTD SVG 1.1//EN" "http://www.w3.org/Graphics/SVG/1.1/DTD/svg11.dtd" >
<svg xmlns="http://www.w3.org/2000/svg" xmlns:xlink="http://www.w3.org/1999/xlink" version="1.1" viewBox="0 -140 1000 1000">
  <g transform="matrix(1 0 0 -1 0 860)">
   <path fill="currentColor"
d="M334 658l28 37h18l49 -41v-18l-24 -21v-272l-8 -13l-45 -14l-7 7v23h-187q0 -16 -6 -30l-44 -11l-10 8v373l60 -28h73l38 136h-102q-39 -67 -108 -149l-10 9q65 114 105 268l77 -28l-4 -18l-22 -7q-10 -21 -28 -52h92l33 33h17l43 -61l-5 -11l-36 -9l-66 -111h79z
M220 636h-62v-128h62v128zM345 636h-65v-128h65v128zM345 486h-65v-118h65v118zM220 486h-62v-118h62v118zM639 628v-16l-30 -20v-128q125 64 228 135l53 -74l-10 -9l-29 9q-148 -53 -242 -82v-278q0 -26 12.5 -35t43.5 -9h145q38 0 53 56l21 78l18 -2l-1 -117l24 -16v-18
q-25 -23 -52.5 -29t-88.5 -6h-134q-62 0 -82 19t-20 79v481zM844 759l30 36h17l59 -68l-10 -14l-31 -3l-70 -84l-13 3l28 108h-329q0 -23 -1 -37.5t-5 -37.5t-15 -34.5t-28 -11.5q-29 0 -29 41q0 18 22 43q21 25 27.5 45.5t7.5 61.5h15l6 -48h140v171l95 -15v-14l-35 -18
v-124h119zM187 255l11 8q68 -79 68 -130q0 -44 -27 -44q-31 0 -31 64q0 56 -21 102zM129 258l16 -1l-2 -28q-3 -96 -17 -126q-17 -32 -36 -32q-10 0 -19.5 12t-9.5 25q0 16 28 45q34 37 40 105zM272 271l10 8q79 -76 79 -129q0 -41 -26 -41q-30 0 -35 71q-3 46 -28 91z
M345 290l8 10q100 -67 100 -122q0 -15 -7.5 -26t-18.5 -11q-23 0 -38 65q-9 40 -44 84z" />
  </g>

</svg>
