<?xml version="1.0" standalone="no"?>
<!DOCTYPE svg PUBLIC "-//W3C//DTD SVG 1.1//EN" "http://www.w3.org/Graphics/SVG/1.1/DTD/svg11.dtd" >
<svg xmlns="http://www.w3.org/2000/svg" xmlns:xlink="http://www.w3.org/1999/xlink" version="1.1" viewBox="0 -204 1024 1024">
  <g transform="matrix(1 0 0 -1 0 820)">
   <path fill="currentColor"
d="M182 964q98 -17 98 -36q0 -13 -58 -14q-9 -28 -17 -48h105l30 32q33 -25 59 -52q3 -2 3 -6q0 -8 -18 -11q-14 -3 -30 -7q-16 -35 -43 -74q-20 -34 -43 -58h96l26 30q52 -30 52 -44q0 -10 -26 -26v-322q0 -17 -32 -22q-16 0 -16 8v22h-230v-16q0 -7 -10 -13q-15 -5 -26 -5
q-12 0 -12 12v375q-29 -30 -54 -53l-12 22q34 38 57 63q19 27 43 73q18 36 37 84q11 37 21 86zM138 364h92v144h-92v-144zM280 364h88v144h-88v-144zM138 536h92v124h-92v-124zM280 660v-124h88v124h-88zM152 690h92q25 40 42 77q16 36 24 69h-120q-11 -22 -22 -42
q-26 -47 -57 -84zM86 240h26q0 -59 -9 -98q-3 -32 -12 -53q-5 -22 -14 -33q-5 -9 -11 -13q-6 -7 -12 -7q-26 0 -26 26q0 3 3 8q16 26 26 45q15 26 20 51q7 29 9 74zM186 252q13 -20 21 -49q8 -26 11 -52q4 -24 4 -47q0 -15 -4 -29q-5 -10 -11 -14q-7 -3 -11 -3q-18 0 -18 14
q0 8 3 24q5 20 2 52q-1 41 -13 100zM280 266q15 -21 26 -40q15 -20 23 -36q9 -18 12 -33q1 -11 1 -23q0 -21 -4 -31q-9 -13 -24 -13q-4 0 -6 5q-3 4 -5 22q-3 26 -7 47q-6 25 -13 44q-9 22 -21 44zM358 276q22 -14 36 -32q19 -14 30 -28q10 -16 14 -26t4 -20q0 -18 -5 -26
q-8 -10 -17 -10q-6 0 -9 4q-4 3 -8 17q-4 21 -13 38q-6 20 -16 37q-10 15 -28 36zM562 888q47 -14 86 -31q6 -8 6 -13q0 -9 -13 -13q-24 -5 -43 -5q-9 -37 -25 -69q-2 -5 -4 -9h113v128q0 54 -2 82q55 -7 93 -23q13 -6 13 -15q0 -7 -13 -11q-17 -9 -43 -11v-150h78l44 48
q36 -23 67 -49q9 -3 9 -9q0 -18 -14 -18h-184v-190h128l48 50q36 -25 69 -51q7 -5 7 -11q0 -18 -10 -18h-222q20 -53 46 -94q25 -46 60 -88q37 -42 72 -71q33 -25 62 -39v-16q-51 0 -66 -28q-32 26 -58 60q-27 36 -49 76q-22 36 -45 84q-19 42 -42 104v-380q0 -21 2 -30
q2 -16 2 -28q0 -32 -32 -32q-22 0 -22 14q0 23 2 56v60v332q-13 -40 -30 -74q-22 -50 -52 -93q-26 -40 -57 -81q-32 -37 -79 -80l-12 18q42 46 70 90q31 40 52 89q23 41 39 87q15 36 23 64h-82q-70 -1 -94 -4l-22 44q44 -10 116 -10h128v190h-125q-6 -16 -13 -29
q-17 -32 -32 -56q-15 -23 -42 -51l-14 14q22 30 39 67q17 40 33 84q18 46 27 92q5 24 7 47z" />
  </g>

</svg>
