<?xml version="1.0" standalone="no"?>
<!DOCTYPE svg PUBLIC "-//W3C//DTD SVG 1.1//EN" "http://www.w3.org/Graphics/SVG/1.1/DTD/svg11.dtd" >
<svg xmlns="http://www.w3.org/2000/svg" xmlns:xlink="http://www.w3.org/1999/xlink" version="1.1" viewBox="0 -204 1024 1024">
  <g transform="matrix(1 0 0 -1 0 820)">
   <path fill="currentColor"
d="M182 964q98 -17 98 -36q0 -13 -58 -14q-9 -28 -17 -48h105l30 32q33 -25 59 -52q3 -2 3 -6q0 -8 -18 -11q-14 -3 -30 -7q-16 -36 -43 -76q-19 -32 -41 -56h94l26 30q52 -30 52 -44q0 -10 -26 -26v-322q0 -17 -32 -22q-16 0 -16 8v22h-230v-16q0 -7 -10 -13q-15 -5 -26 -5
q-12 0 -12 12v375q-29 -30 -54 -53l-12 22q34 38 57 63q19 27 43 73q18 36 37 84q11 37 21 86zM138 364h92v144h-92v-144zM280 364h88v144h-88v-144zM138 536h92v124h-92v-124zM280 660v-124h88v124h-88zM152 690h94q24 40 40 74q16 38 24 72h-120q-11 -22 -22 -42
q-26 -47 -57 -84zM86 240h26q0 -59 -10 -98q-5 -32 -15 -53q-5 -22 -17 -33q-8 -9 -16 -13q-5 -7 -12 -7q-28 0 -28 26q0 3 5 8q22 26 33 45q16 26 23 51q9 29 11 74zM186 252q13 -20 21 -49q8 -26 11 -52q4 -24 4 -47q0 -15 -4 -29q-5 -10 -11 -14q-7 -3 -11 -3
q-18 0 -18 14q0 8 3 24q5 20 2 52q-1 41 -13 100zM280 266q15 -21 26 -40q15 -20 23 -36q9 -18 12 -33q1 -11 1 -23q0 -21 -4 -31q-9 -13 -24 -13q-4 0 -6 5q-3 4 -5 22q-3 26 -7 47q-6 25 -13 44q-9 22 -21 44zM368 280q19 -17 35 -39q21 -16 30 -35q13 -16 18 -28
q5 -14 5 -26q0 -14 -5 -24q-10 -12 -21 -12q-4 0 -7 5q-5 6 -8 23q-4 21 -14 44l-18 40q-10 18 -29 42zM632 960q47 -12 85 -33q7 -6 7 -11q0 -7 -14 -12q-24 -6 -42 -6l-27 -54h127l32 36q35 -25 63 -55q3 -4 3 -7q0 -7 -18 -12q-19 -3 -34 -6q-21 -36 -53 -74
q-24 -31 -46 -58h155l28 34q52 -33 52 -44t-26 -30v-176q12 -8 21 -16q5 -2 5 -6q0 -18 -8 -18h-174v-278q0 -16 4 -25q3 -8 18 -12q15 -3 59 -3q32 0 58 3q12 2 17 8q5 7 8 25q6 23 10 110l16 -4v-88q0 -15 8 -26q8 -13 20 -18q8 -4 8 -14q0 -3 -3 -12q-5 -9 -18 -15
q-18 -7 -48 -9q-35 -4 -63 -4q-52 0 -78 4q-23 1 -36 8q-16 5 -23 19q-5 15 -5 23v308h-6q-16 -79 -43 -136q-31 -62 -71 -106q-46 -52 -90 -85q-46 -32 -112 -61l-12 22q54 27 95 57q36 29 69 61q30 38 57 84q26 40 40 94q8 31 16 70h-123v-14q0 -19 -36 -22q-12 0 -12 18
v233q-20 -17 -40 -35l-18 14q43 39 73 83q34 49 62 102q29 55 48 113q11 26 15 56zM540 442h127l2 18q7 65 7 182h-136v-200zM726 642q-1 -124 -8 -200h158v200h-150zM527 668h158q32 40 48 76q24 39 35 74h-140l-3 -6q-25 -42 -53 -85q-20 -32 -45 -59z" />
  </g>

</svg>
