<?xml version="1.0" standalone="no"?>
<!DOCTYPE svg PUBLIC "-//W3C//DTD SVG 1.1//EN" "http://www.w3.org/Graphics/SVG/1.1/DTD/svg11.dtd" >
<svg xmlns="http://www.w3.org/2000/svg" xmlns:xlink="http://www.w3.org/1999/xlink" version="1.1" viewBox="0 -140 1000 1000">
  <g transform="matrix(1 0 0 -1 0 860)">
   <path fill="currentColor"
d="M891 739l45 -51l-4 -12l-23 -6l-68 -109l-15 6l29 126h-150v-157q0 -48 -6.5 -61t-34.5 -21q-13 -3 -37 -11l-11 10v17l-81 34l2 15l79 -7q14 0 19 6t5 29v94q-54 -60 -103.5 -94.5t-124.5 -63.5l-9 15q76 46 116 86t78 109h-192v22h268q-3 6 -12 16q-25 43 -39 58
t-55 39l5 12q74 -22 114 -51l80 90h-318v22h314l34 29h12l53 -66l-10 -11h-35l-112 -80q20 -26 20 -45l-1 -13h124l26 24h18zM361 706l53 -43v-19l-23 -24v-291l-6 -18l-42 -21l-14 5v37h-167v-18l-12 -14l-43 -10l-8 8v352q-20 -20 -46 -38l-14 10q60 78 92.5 144.5
t62.5 174.5l86 -43l-4 -16l-28 -3q-6 -14 -21 -40h64l36 29h19l50 -68l-9 -15l-37 -8l-83 -98h54l25 27h15zM324 272l9 12q99 -66 99 -116q0 -15 -8 -30t-19 -15q-14 0 -28 40q-27 77 -53 109zM259 256l11 10q84 -72 84 -122q0 -15 -10 -34t-21 -19q-20 0 -30 60
q-7 43 -34 105zM159 261l14 4q73 -76 73 -136q0 -17 -10.5 -34t-21.5 -17q-22 0 -26 55q-6 68 -29 128zM109 259h15q4 -36 4 -64q0 -57 -14 -99.5t-35 -42.5q-11 0 -21 16t-10 34q0 17 21 49q26 39 40 107zM276 516h53v144h-53v-144zM163 516h53v144h-53v-144zM276 351h53
v143h-53v-143zM163 351h53v143h-53v-143zM296 816h-80q-50 -82 -81 -123l24 -14h86zM614 314h-190v22h220v107l94 -16v-16l-33 -13v-62h140l35 39h11l48 -47v-14h-227q49 -71 97 -109.5t123 -66.5l-1 -10q-30 -6 -56 -34q-99 61 -170 187v-215l-9 -13l-39 -13l-13 5v205
q-100 -105 -249 -171l-8 11q86 57 133 103t94 121z" />
  </g>

</svg>
