<?xml version="1.0" standalone="no"?>
<!DOCTYPE svg PUBLIC "-//W3C//DTD SVG 1.1//EN" "http://www.w3.org/Graphics/SVG/1.1/DTD/svg11.dtd" >
<svg xmlns="http://www.w3.org/2000/svg" xmlns:xlink="http://www.w3.org/1999/xlink" version="1.1" viewBox="0 -204 1024 1024">
  <g transform="matrix(1 0 0 -1 0 820)">
   <path fill="currentColor"
d="M178 956q98 -20 98 -36q0 -15 -55 -18q-10 -30 -20 -56h76l30 31q35 -25 63 -54q3 -3 3 -6q0 -7 -19 -11q-16 -4 -31 -7q-16 -31 -39 -63q-18 -28 -36 -50h60l35 33q51 -36 51 -50q0 -10 -30 -25v-283q0 -23 1 -30q1 -8 1 -16q0 -21 -34 -27q-16 0 -16 10v32h-172v-20
q0 -10 -12 -16q-15 -6 -25 -6q-13 0 -13 14q0 4 1 14q1 23 1 42v313q-26 -29 -52 -51l-12 21q33 39 52 66q18 27 40 75q18 36 34 85q11 38 20 89zM144 358h66v140h-66v-140zM254 358h62v140h-62v-140zM144 526h66v132h-66v-132zM254 658v-132h62v132h-62zM157 686h64
q22 36 36 69t22 63h-90q-10 -21 -20 -38q-21 -43 -47 -77zM106 216l14 -3q2 -21 2 -39q0 -28 -4 -53t-13 -42q-5 -14 -15 -23q-8 -10 -16 -13t-14 -3q-26 0 -26 18q0 7 11 17q24 26 35 45q11 17 18 39q6 21 8 57zM189 224q10 -18 17 -41q7 -24 10 -44q3 -22 3 -39
q0 -15 -4 -27q-4 -10 -12 -14q-7 -3 -11 -3q-17 0 -17 18q0 6 3 18q4 18 2 45q0 32 -8 83zM265 236q14 -18 25 -37q11 -17 19 -33q8 -17 10 -29q3 -12 3 -23q0 -19 -5 -30q-9 -12 -21 -12q-3 0 -6 5q-2 3 -4 21q-3 22 -8 44q-6 21 -12 40q-7 19 -18 41zM342 264
q30 -25 47 -51q15 -21 23 -42q5 -14 5 -28q0 -35 -25 -35q-4 0 -8 5q-3 4 -7 20q-9 38 -19 61q-11 25 -30 52zM384 834q33 -9 82 -11v56q0 48 -6 73q47 -7 77 -20q11 -6 11 -14q0 -10 -10 -13q-12 -10 -28 -11v-72h108v57q0 49 -6 73q42 -8 69 -16q10 -3 10 -10q0 -5 -7 -8
q-9 -6 -22 -10v-86h10l34 34l52 -40q6 -3 6 -8q0 -14 -12 -14h-90v-110q10 -8 18 -14q4 -3 4 -6q0 -14 -8 -14h-82v-84h64l32 29q47 -33 47 -46q0 -9 -28 -23v-142q7 -6 13 -10q4 -3 4 -6q0 -14 -8 -14h-124v-100h34l37 38q30 -22 56 -43q7 -4 7 -9q0 -14 -12 -14h-122v-124
q0 -23 1 -31v-29q0 -34 -30 -34q-26 0 -26 18q0 20 3 54q4 34 4 60v86h-27q-71 -2 -97 -7l-20 47q44 -12 117 -12h27v100h-75v-9q0 -10 -11 -15q-14 -6 -23 -6q-12 0 -12 13q0 3 1 13q1 22 1 39v137q0 45 -2 63l49 -23h72v84h-36q-4 -14 -26 -14t-22 25q0 11 3 29q1 17 1 31
v72q-43 -2 -62 -6zM511 678h107v116h-108v-73q0 -25 1 -33v-10zM471 382h75v156h-73l-2 -4v-152zM594 538v-156h68l3 3v153h-71zM712 694q34 -7 91 -8q1 42 1 82q0 140 -10 188q43 -4 80 -11q10 -2 10 -9q0 -10 -9 -16q-10 -7 -24 -13q0 -125 -3 -221h50l38 38
q32 -19 52 -37q10 -10 10 -16q0 -11 -38 -36q-6 -213 -18 -336q-10 -123 -21 -172q-12 -43 -25 -60q-11 -17 -32 -27q-19 -15 -64 -24q-3 19 -7 28q-5 10 -16 15q-9 7 -41 16l5 25q46 -17 58 -17q17 0 31 7q14 6 25 25q14 22 23 58q10 40 20 166q14 160 14 319h-65l-4 -73
q-8 -121 -24 -193q-16 -90 -38 -151q-21 -62 -45 -110q-25 -55 -70 -103l-20 17q52 68 73 125q25 61 45 146q18 84 29 198q6 72 9 144q-58 -1 -72 -7z" />
  </g>

</svg>
