<?xml version="1.0" standalone="no"?>
<!DOCTYPE svg PUBLIC "-//W3C//DTD SVG 1.1//EN" "http://www.w3.org/Graphics/SVG/1.1/DTD/svg11.dtd" >
<svg xmlns="http://www.w3.org/2000/svg" xmlns:xlink="http://www.w3.org/1999/xlink" version="1.1" viewBox="0 -410 2048 2048">
  <g transform="matrix(1 0 0 -1 0 1638)">
   <path fill="currentColor"
d="M536 1400h141l61 72l72 -50q42 -28 42 -50q0 -15 -65 -52v-508q0 -42 7 -105q3 -31 3 -45q0 -49 -67 -49q-38 0 -38 25v41h-410v-32q0 -31 -53 -31t-53 44q0 4 4 49q7 95 7 103v580q-51 -56 -117 -114l-29 29q142 173 209 308q62 124 102 343l115 -28q53 -12 53 -36
q0 -27 -49 -34l-31 -4l-38 -119h188l65 64l75 -56q44 -32 44 -53q0 -20 -54 -36l-28 -8q-112 -185 -156 -248zM476 1400q54 117 114 280h-212q-63 -134 -151 -241l67 -39h182zM282 1016v-281h155v281h-155zM282 1072h155v270h-155v-270zM531 1342v-270h161v270h-161z
M692 1016h-161v-281h161v281zM1765 1564l61 72l72 -50q42 -29 42 -49q0 -24 -61 -47v-227q0 -41 7 -104q3 -29 3 -44q0 -49 -68 -49q-38 0 -38 25v48h-748v-35q0 -31 -52 -31q-53 0 -53 44q0 4 4 49q6 98 6 104l5 361l99 -67h170v196h-110q-117 0 -192 -8l-38 88
q93 -22 230 -22h679l77 81l114 -86q17 -13 17 -27q0 -26 -27 -26h-372v-196h173zM1783 1506h-191v-307h191v307zM1306 1564h194v196h-194v-196zM1500 1506h-194v-307h194v307zM1214 1506h-179v-307h179v307zM1592 542q178 -110 234 -156q102 -84 102 -144q0 -34 -26 -53
q-12 -9 -27 -9q-30 0 -68 74q-60 116 -238 253zM1029 881l-38 88q95 -24 230 -24h388l91 91l114 -98q17 -14 17 -24q0 -26 -27 -26h-583q-121 0 -192 -7zM1096 548l96 -43q51 -23 51 -45q0 -25 -32 -27l-53 -4q-134 -176 -308 -285l-23 31q192 165 269 373zM904 621l-39 88
q96 -23 230 -23h653l99 101l120 -108q17 -15 17 -25q0 -25 -27 -25h-509v-263q0 -79 13 -203q3 -32 3 -50q0 -46 -55 -46q-56 0 -56 42v520h-258q-116 0 -191 -8zM206 533h38q-2 -194 -24 -273q-37 -136 -121 -136q-49 0 -49 43q0 22 48 70q87 88 108 296zM376 544
q74 -197 74 -305q0 -74 -58 -74q-41 0 -41 40q0 8 4 38q7 46 7 93q0 71 -24 197zM519 560q145 -182 145 -284q0 -67 -54 -67q-42 0 -45 63q-4 111 -77 267zM688 590q85 -76 131 -128q57 -65 57 -116q0 -35 -25 -53q-14 -10 -30 -10q-35 0 -45 46q-22 103 -117 238z" />
  </g>

</svg>
