<?xml version="1.0" standalone="no"?>
<!DOCTYPE svg PUBLIC "-//W3C//DTD SVG 1.1//EN" "http://www.w3.org/Graphics/SVG/1.1/DTD/svg11.dtd" >
<svg xmlns="http://www.w3.org/2000/svg" xmlns:xlink="http://www.w3.org/1999/xlink" version="1.1" viewBox="0 -204 1024 1024">
  <g transform="matrix(1 0 0 -1 0 820)">
   <path fill="currentColor"
d="M186 964q98 -17 98 -36q0 -13 -58 -14q-9 -28 -17 -48h93l30 32q33 -25 59 -52q3 -2 3 -6q0 -8 -17 -11t-31 -7q-15 -36 -40 -76q-17 -32 -37 -56h81l30 30q50 -30 50 -44q0 -10 -28 -26v-322q0 -17 -30 -22q-18 0 -18 8v22h-202v-16q0 -7 -14 -13q-13 -5 -22 -5
q-14 0 -14 12v381q-30 -37 -62 -63l-12 22q34 39 57 64q19 27 43 73q18 38 37 86q11 38 21 87zM152 364h74v144h-74v-144zM274 364h80v144h-80v-144zM152 536h74v124h-74v-124zM274 660v-124h80v124h-80zM164 690h82q21 40 35 74q15 38 21 72h-106q-13 -23 -25 -44
q-25 -45 -52 -80zM98 240h26q0 -59 -8 -98q-5 -32 -17 -53q-7 -22 -17 -33q-6 -9 -14 -13q-7 -7 -14 -7q-26 0 -26 26q0 3 4 8q19 26 33 45q15 26 21 51q8 29 12 74zM190 252q13 -20 21 -49q8 -26 11 -52q4 -24 4 -47q0 -15 -4 -29q-5 -10 -11 -14q-7 -3 -11 -3
q-18 0 -18 14q0 8 3 24q5 20 2 52q-1 41 -13 100zM274 266q16 -21 26 -40q12 -20 21 -36q9 -18 12 -33q3 -11 3 -23q0 -21 -6 -31q-9 -13 -24 -13q-3 0 -6 5q-2 4 -3 22q-2 26 -8 47q-5 25 -14 44q-6 22 -17 44zM358 280q22 -17 36 -39q19 -16 30 -35q10 -16 14 -28
q4 -14 4 -26q0 -14 -5 -24q-8 -12 -17 -12q-6 0 -9 5q-4 6 -8 23q-4 21 -13 44q-6 20 -16 40q-10 18 -28 42zM606 960q47 -12 86 -33q6 -6 6 -11q0 -7 -13 -12q-22 -6 -43 -6q-8 -21 -19 -36h141l28 30q32 -21 61 -50q1 -2 1 -6q0 -6 -17 -11q-17 -3 -29 -7q-21 -28 -46 -56
q-20 -19 -37 -36h166l23 26q54 -31 54 -44q0 -9 -30 -26v-116q9 -7 16 -15q4 -3 4 -7q0 -14 -8 -14h-207q-18 -28 -42 -47q-5 -5 -9 -8q31 -42 46 -83q10 -19 15 -35q20 13 34 26q21 16 35 32q18 19 30 35q11 19 18 36q72 -44 72 -56q0 -10 -14 -10q-13 0 -32 6
q-23 -21 -48 -36q-25 -18 -49 -30q-19 -9 -35 -16q18 -30 40 -54q24 -25 57 -53q34 -23 67 -42q30 -14 58 -21v-18q-49 0 -66 -26q-29 15 -54 35q-24 25 -44 51q-20 22 -42 53q-5 6 -10 14q8 -44 8 -87q0 -49 -10 -83q-6 -33 -19 -53q-13 -17 -34 -29q-21 -11 -39 -11
q0 27 -6 34q-5 8 -17 12q-19 13 -61 24l4 18q83 -22 106 -22q7 0 12 6q5 5 9 16q2 11 5 39q2 26 2 49q0 35 -2 64q-28 -31 -54 -56q-38 -31 -86 -56q-52 -28 -106 -44l-8 20q67 27 107 55q41 25 72 58q29 29 68 81q-5 29 -13 53q-31 -34 -65 -57q-34 -29 -78 -47
q-47 -25 -95 -37l-6 18q57 25 94 46q38 24 68 54q25 23 63 73q-7 20 -14 36q-21 -15 -40 -28q-34 -24 -75 -46q-42 -22 -100 -47l-14 22q57 25 95 47q38 23 67 48q30 24 50 47q16 18 24 30h-143q1 -6 1 -12q0 -17 -36 -22q-18 0 -18 12v200l-26 -18l-18 12q36 28 62 59
q26 36 51 76q26 40 42 81q6 22 9 42zM536 558h150v140h-150v-136v-4zM734 558h158v136l-1 4h-157v-140zM536 726h158q28 28 41 55q20 26 29 51h-162q-18 -28 -40 -51q-20 -26 -42 -43z" />
  </g>

</svg>
