<?xml version="1.0" standalone="no"?>
<!DOCTYPE svg PUBLIC "-//W3C//DTD SVG 1.1//EN" "http://www.w3.org/Graphics/SVG/1.1/DTD/svg11.dtd" >
<svg xmlns="http://www.w3.org/2000/svg" xmlns:xlink="http://www.w3.org/1999/xlink" version="1.1" viewBox="0 -204 1024 1024">
  <g transform="matrix(1 0 0 -1 0 820)">
   <path fill="currentColor"
d="M170 968q98 -20 98 -36q0 -15 -55 -18q-9 -24 -19 -44h75l30 31q35 -25 63 -54q3 -3 3 -6q0 -7 -19 -11q-16 -4 -31 -7q-19 -35 -46 -71q-22 -33 -44 -58h71l35 33q51 -36 51 -50q0 -10 -30 -25v-283q0 -23 1 -30q1 -8 1 -16q0 -21 -34 -27q-16 0 -16 10v32h-192v-28
q0 -10 -12 -16q-15 -6 -25 -6q-13 0 -13 14q0 4 1 14q1 23 1 42v298q0 26 -1 42q-12 -10 -23 -18l-12 21q32 33 51 56q18 23 38 63q18 31 33 73q11 32 20 75zM112 366h80v140h-80v-140zM240 366h64v140h-64v-140zM112 534h80v132h-80v-132zM240 666v-132h64v132h-64z
M125 694h72q30 41 46 77q18 37 28 71h-91q-9 -16 -18 -29q-25 -42 -56 -75q-12 -12 -24 -23zM87 256l13 -2q2 -25 2 -47q0 -34 -4 -65q-3 -30 -11 -50q-5 -17 -13 -29q-7 -11 -14 -15t-12 -4q-24 0 -24 17q0 8 9 22q22 31 32 54q9 21 15 49q6 26 7 70zM158 256
q15 -21 27 -47t16 -49q5 -25 5 -44q0 -17 -5 -29q-4 -11 -13 -16q-7 -3 -12 -3q-19 0 -19 20q0 7 2 21q3 20 -2 50q-2 36 -17 93zM233 264q18 -19 32 -40q15 -18 24 -35q10 -17 14 -31q3 -12 3 -24q0 -19 -5 -30q-9 -12 -21 -12q-5 0 -7 5q-4 4 -6 23q-4 23 -12 45
q-7 23 -16 42q-8 20 -23 44zM297 288q26 -16 46 -33q20 -16 31 -27q12 -11 17 -18q4 -7 7 -14q2 -6 2 -12q-1 -32 -24 -32q-4 0 -7 3q-4 4 -16 28q-12 25 -27 44q-15 21 -42 46zM490 956q98 -20 98 -36q0 -15 -55 -18q-9 -34 -19 -60h90l35 36q29 -21 55 -41q6 -4 6 -9
q0 -14 -12 -14h-185q-2 -7 -5 -13q-18 -42 -40 -75q-23 -34 -46 -58l-12 21q21 33 32 56t24 63q12 31 21 73q7 32 13 75zM553 800q17 -8 30 -16q14 -8 23 -15t13 -13q3 -5 3 -10q0 -19 -5 -30q-9 -12 -21 -12q-4 0 -7 3q-3 2 -6 11q-3 13 -10 24q-7 12 -15 22q-8 11 -22 23z
M750 956q98 -20 98 -36q0 -15 -55 -18q-10 -33 -21 -60h116l38 41q31 -24 59 -45q7 -5 7 -10q0 -14 -13 -14h-219q-3 -8 -7 -15q-20 -43 -45 -75q-25 -36 -52 -60l-12 21q24 34 38 57q13 23 28 64q14 31 25 74q8 32 15 76zM822 800q28 -8 44 -16q15 -6 22 -12q5 -5 5 -9
q0 -35 -25 -35q-4 0 -7 2q-3 1 -7 8q-8 15 -18 24t-28 20zM933 660q30 -22 56 -43q7 -4 7 -9q0 -14 -12 -14h-193q2 -104 12 -172q8 -63 21 -112q21 52 36 100q16 44 29 110q47 -21 77 -40q11 -7 11 -12q0 -6 -17 -11q-22 -7 -40 -7q-34 -102 -59 -157q-10 -21 -20 -40
q22 -63 55 -106q11 -17 16 -17t7 8q34 82 54 162l19 -12q-32 -169 -32 -178q0 -11 4 -22q8 -17 8 -31q0 -21 -19 -21q-13 0 -32 14q-26 19 -58 60q-30 41 -51 93q-5 -9 -10 -16q-31 -50 -71 -93q-42 -42 -80 -62l-11 17q49 39 73 66q28 33 50 70q15 24 33 62q-24 72 -36 157
q-12 88 -14 190h-262v-158q0 -64 -5 -120q-2 -49 -13 -100q-7 -41 -19 -76q-12 -32 -30 -61q-15 -25 -43 -51l-14 11q16 22 27 48q11 24 19 50q9 29 15 68q7 45 10 92q5 61 5 139q0 140 -4 224l57 -38h257v7q0 88 -10 111q102 -18 102 -30q0 -18 -48 -30q0 -31 1 -58h105z
M504 506q44 -12 117 -12h3l35 36q29 -21 55 -41q6 -4 6 -9q0 -14 -12 -14h-87q-71 -2 -97 -7zM520 397l49 -23h86l32 29q47 -33 47 -46q0 -9 -28 -23v-117q6 -5 10 -8t4 -6q0 -14 -8 -14h-146q-1 -9 -11 -13q-14 -6 -23 -6q-12 0 -12 13q0 3 1 13q1 22 1 39v99q0 45 -2 63z
M566 217h90l6 5v124h-94l-2 -4v-125zM855 720q23 -3 38 -13q15 -8 22 -19q5 -7 5 -17q0 -23 -24 -23q-7 0 -11 4t-9 15q-4 10 -11 17q-6 9 -21 19z" />
  </g>

</svg>
