<?xml version="1.0" standalone="no"?>
<!DOCTYPE svg PUBLIC "-//W3C//DTD SVG 1.1//EN" "http://www.w3.org/Graphics/SVG/1.1/DTD/svg11.dtd" >
<svg xmlns="http://www.w3.org/2000/svg" xmlns:xlink="http://www.w3.org/1999/xlink" version="1.1" viewBox="0 -204 1024 1024">
  <g transform="matrix(1 0 0 -1 0 820)">
   <path fill="currentColor"
d="M178 916q50 -16 86 -35q6 -6 6 -11q0 -9 -18 -12q-24 -4 -34 -4q-18 -71 -45 -137q-23 -61 -50 -110q-29 -49 -69 -103l-14 14q33 56 55 105q20 43 37 97q19 54 31 101q9 44 15 95zM296 902q40 -49 71 -101q30 -47 49 -81q16 -30 24 -54q6 -20 12 -41q4 -16 4 -37
q-1 -30 -26 -30q-5 0 -10 8q-6 9 -27 78q-18 66 -44 119q-23 57 -65 125zM90 532q39 -6 114 -6h128l32 32q28 -16 48 -32q8 -9 8 -18q0 -14 -40 -26q0 -106 -11 -222q-13 -118 -28 -160q-7 -25 -20 -37q-11 -8 -24 -15q-23 -12 -49 -12q-1 16 -5 25q-2 5 -10 12
q-13 13 -47 29l4 22q66 -26 76 -26q14 0 22 6q8 5 11 17q6 14 12 41q7 41 15 128q5 93 6 206h-103q-4 -64 -12 -119q-6 -59 -21 -105q-16 -54 -33 -96q-21 -41 -46 -75q-31 -39 -71 -69l-10 18q38 40 58 78q24 36 37 76q14 38 26 80q10 44 16 103q5 46 8 109q-59 -1 -73 -4z
M646 958q92 -20 92 -38q0 -10 -52 -14q-18 -34 -48 -66h198l26 32q52 -31 52 -42t-26 -30v-226q0 -19 -34 -26q-14 0 -14 10v12h-292v-88h322l44 44q32 -25 62 -46q6 -5 6 -10q0 -18 -10 -18h-424v-80h348l36 32q33 -17 50 -36q8 -8 8 -10q0 -13 -40 -30q-7 -88 -20 -149
q-17 -65 -33 -93q-14 -28 -34 -40q-19 -16 -44 -26q-19 -6 -33 -6q0 15 -7 25q-9 13 -93 41l4 22q78 -26 106 -26q14 0 27 5q11 4 20 14q10 9 22 37q14 26 22 78q10 52 15 136h-372q-12 -4 -18 -4q-12 0 -12 12v518l58 -32h54q19 28 26 55q4 23 8 63zM548 598h292v96h-292
v-96zM548 720h292v94h-292v-94zM500 266h12v-45q0 -32 -5 -63q-5 -27 -14 -48q-7 -15 -18 -25q-8 -13 -17 -17q-8 -4 -16 -4q-22 0 -22 16q0 10 10 22q29 30 39 50q13 22 20 46q9 26 11 68zM592 274q10 -17 18 -40q11 -21 14 -41q4 -19 4 -37q0 -15 -5 -28q-6 -11 -14 -16
q-7 -4 -11 -4q-14 0 -14 16q-1 8 2 20q3 16 1 44q-1 32 -13 82zM676 288q14 -14 29 -31q14 -17 21 -29q10 -15 13 -27q3 -10 3 -19q0 -19 -5 -30q-8 -10 -17 -10q-5 0 -8 4q-3 2 -5 18q-5 22 -12 39q-7 21 -13 36q-8 19 -24 37zM768 306q31 -21 48 -41q18 -18 26 -33
q6 -11 6 -24q0 -30 -22 -30q-4 0 -8 3q-4 4 -8 16q-9 32 -23 49q-12 22 -31 42z" />
  </g>

</svg>
