<?xml version="1.0" standalone="no"?>
<!DOCTYPE svg PUBLIC "-//W3C//DTD SVG 1.1//EN" "http://www.w3.org/Graphics/SVG/1.1/DTD/svg11.dtd" >
<svg xmlns="http://www.w3.org/2000/svg" xmlns:xlink="http://www.w3.org/1999/xlink" version="1.1" viewBox="0 -204 1024 1024">
  <g transform="matrix(1 0 0 -1 0 820)">
   <path fill="currentColor"
d="M68 898q43 -14 114 -14h198l44 44q32 -22 59 -46q9 -4 9 -10q0 -14 -14 -14h-114v-300h26l40 40q30 -23 54 -43q8 -5 8 -11q0 -14 -14 -14h-114v-422q0 -34 -17 -50q-12 -16 -37 -27q-19 -11 -36 -11l-2 16q-2 13 -8 19q-10 11 -40 20q-29 12 -68 15v22q60 -14 110 -14
q31 0 38 6q10 5 10 30v354q-15 -41 -32 -75q-30 -59 -68 -110q-33 -47 -74 -96q-42 -44 -100 -95l-12 18q57 55 96 106q39 48 71 108q28 49 51 103q17 44 28 83h-139l-1 -1q-13 -7 -22 -7q-22 0 -22 8q0 4 2 11q9 33 28 138l27 178q-43 -1 -61 -3zM314 558v300h-113
l-51 -300h164zM664 958q92 -20 92 -38q0 -10 -54 -14q-19 -32 -48 -62h182l30 36q58 -34 58 -48q0 -9 -32 -28v-188q0 -24 2 -31q2 -8 2 -15q0 -23 -38 -30q-18 0 -18 8v28h-278v-84h318l44 44q30 -22 59 -46q7 -3 7 -8q0 -18 -10 -18h-418v-84h334l36 32q33 -17 50 -36
q8 -8 8 -12q0 -11 -40 -28q-6 -90 -18 -151q-14 -66 -29 -95q-13 -28 -32 -40q-18 -16 -37 -26q-20 -6 -30 -6q0 14 -8 24q-11 12 -102 38l4 22q84 -22 112 -22q14 0 26 6q9 2 16 13q8 9 18 38q13 26 20 81q8 51 12 136h-354q-12 -4 -22 -4q-12 0 -12 10v516l60 -32h56
q15 27 22 52q6 23 12 62zM562 606h278v96h-278v-96zM562 730h278v88h-278v-88zM474 288h12v-42q0 -29 -4 -56q-4 -29 -13 -45q-4 -16 -14 -27t-19 -14q-7 -2 -12 -2q-26 0 -26 14q0 8 13 21q24 27 35 48q14 17 21 43q5 22 7 60zM562 288q12 -16 24 -39q10 -22 12 -43
q4 -19 4 -36q0 -18 -4 -30q-3 -10 -11 -16q-7 -4 -13 -4q-16 0 -16 18q-1 6 2 17q3 20 0 46q-2 32 -12 83zM654 298q18 -16 29 -30q15 -16 25 -29q9 -12 12 -22q4 -11 4 -21q0 -16 -5 -26q-8 -14 -21 -14q-4 0 -7 4q-3 3 -6 20t-8 37q-7 16 -15 32q-10 18 -22 35zM752 310
q33 -21 55 -39q16 -16 26 -33q7 -9 7 -20q0 -32 -22 -32q-5 0 -8 3q-4 2 -9 15q-11 29 -25 48q-13 21 -38 40z" />
  </g>

</svg>
