<?xml version="1.0" standalone="no"?>
<!DOCTYPE svg PUBLIC "-//W3C//DTD SVG 1.1//EN" "http://www.w3.org/Graphics/SVG/1.1/DTD/svg11.dtd" >
<svg xmlns="http://www.w3.org/2000/svg" xmlns:xlink="http://www.w3.org/1999/xlink" version="1.1" viewBox="0 -140 1000 1000">
  <g transform="matrix(1 0 0 -1 0 860)">
   <path fill="currentColor"
d="M498 837l62 -34h68l34 125l71 -29l-5 -12l-24 -8l-56 -76h119l30 34h17l52 -42v-15l-28 -20v-192l-7 -11l-44 -14l-9 8v21h-220v-92h263l38 44h13l47 -50v-17h-361v-82h288l31 33h15l47 -47v-14l-26 -20q-3 -135 -31 -192q-17 -36 -42.5 -54t-75.5 -31l-12 4l-7 29
l-79 35l4 15l78 -11q5 -1 16 -1q22 0 37 6t25.5 21t16.5 31.5t9 46.5t4 56t1 70h-299q0 -15 -6 -25l-45 -14l-9 7v517zM778 781h-220v-84h220v84zM778 674h-220v-79h220v79zM316 859l32 34h13l47 -45v-15l-24 -20v-190l-6 -7l-43 -12l-11 9v29h-156v-29l-5 -9l-44 -12l-10 7
v292l63 -32h144zM324 837h-156v-173h156v173zM351 524l37 45h12l53 -50v-17h-248l-40 -118h150l28 32h16l46 -41v-13l-21 -19l-6 -52q-14 -123 -47.5 -170.5t-119.5 -67.5l-10 5l-5 31l-87 35l6 15l87 -12q5 -1 16 -1q30 0 50.5 17.5t31.5 53t16 72.5t8 93h-166l-11 -29
l-12 -13l-41 -5l-7 8l60 179h-97v22h301zM539 267l11 7q68 -79 68 -120t-29 -41t-29 56q0 23 -1 34t-5.5 28t-14.5 36zM456 263h16q0 -8 1.5 -49t1.5 -48q0 -40 -11.5 -66.5t-31.5 -26.5q-11 0 -20.5 12.5t-9.5 24.5q0 14 24 45q30 41 30 108zM631 287l9 8q91 -67 91 -110
q0 -39 -28 -39q-25 0 -32 57q-4 33 -40 84zM722 320l8 9q97 -65 97 -108q0 -32 -25 -32q-23 0 -36 55q-9 36 -44 76z" />
  </g>

</svg>
