<?xml version="1.0" standalone="no"?>
<!DOCTYPE svg PUBLIC "-//W3C//DTD SVG 1.1//EN" "http://www.w3.org/Graphics/SVG/1.1/DTD/svg11.dtd" >
<svg xmlns="http://www.w3.org/2000/svg" xmlns:xlink="http://www.w3.org/1999/xlink" version="1.1" viewBox="0 -140 1000 1000">
  <g transform="matrix(1 0 0 -1 0 860)">
   <path fill="currentColor"
d="M908 760l-29 -12q-58 -125 -148 -221q55 -52 103 -80t125 -53l-4 -14q-45 -17 -65 -43q-115 60 -195 151q-107 -90 -218 -136l-9 13q108 61 195 165q-58 82 -96 188q-56 -105 -132 -176l-10 11q60 82 91 162.5t53 205.5l89 -28l-3 -15l-29 -8l-22 -76h206l27 33h18
l56 -53zM594 770l-15 -29q47 -95 116 -175q80 96 119 204h-220zM171 537v-85h195l34 44h19l49 -49v-17h-297v-80h210l27 35h18l54 -45v-13l-29 -20q-12 -111 -27 -163t-41 -76.5t-80 -36.5l-14 6l-6 29l-68 32l5 15l63 -10q18 -2 26 -2q39 0 55.5 54t23.5 172h-217v-20
l-14 -13l-41 -8l-9 8v521l64 -25h22l42 132l80 -39l-3 -13l-30 -4l-63 -76h122l28 28h16l51 -45v-15l-25 -18l1 -220l-9 -9l-44 -10l-9 6l-1 30h-178zM271 305l9 9q87 -44 87 -89q0 -17 -7.5 -31t-16.5 -14q-12 0 -23 32q-19 53 -49 93zM211 284l14 8q73 -73 73 -110
q0 -16 -8.5 -30t-19.5 -14q-17 0 -23 36q-11 61 -36 110zM152 271l15 9q55 -79 55 -122q0 -17 -11 -32.5t-23 -15.5q-26 0 -20 54q0 46 -16 107zM110 280l18 -5q-2 -127 -23 -173q-18 -41 -40 -41q-21 0 -21 43q0 32 15 48q37 42 51 128zM350 675v93h-179v-93h179zM350 561
v92h-179v-92h179zM594 373l4 12q105 -16 146.5 -35t41.5 -56q0 -34 -15 -34q-6 0 -22 14q-61 60 -155 99zM900 257l7 -14q-150 -80 -353 -162l-3 -32l-14 -3l-48 77q229 65 411 134z" />
  </g>

</svg>
