<?xml version="1.0" standalone="no"?>
<!DOCTYPE svg PUBLIC "-//W3C//DTD SVG 1.1//EN" "http://www.w3.org/Graphics/SVG/1.1/DTD/svg11.dtd" >
<svg xmlns="http://www.w3.org/2000/svg" xmlns:xlink="http://www.w3.org/1999/xlink" version="1.1" viewBox="0 -140 1000 1000">
  <g transform="matrix(1 0 0 -1 0 860)">
   <path fill="currentColor"
d="M758 891l-37 -10q60 -98 109 -148t133 -99l-3 -17q-21 -3 -65 -31q-69 63 -109 120.5t-87 162.5q-62 -109 -114 -170.5t-131 -121.5l-10 12q70 69 117.5 157t91.5 201l109 -38zM749 337l14 12q28 -21 44 -34t47 -41.5t49 -51.5t33 -54t15 -59q0 -19 -9 -37t-19 -18
q-17 0 -38 50q-51 126 -104 197q-15 18 -32 36zM898 479l58 -56v-16l-230 -1v-285q0 -37 -8 -49t-36 -24q-26 -12 -42 -12q-12 0 -14 15t-15 24l-84 22v30l95 -11q6 -1 22 -1q13 0 16 4t3 21v266h-212v22h212v136h-153v23h276l35 50h13l51 -54v-19h-159v-136h126l35 47z
M535 367l106 -47l-6 -21l-38 -10l-25 -48q-65 -123 -133 -196l-14 12q66 114 110 310zM399 528l56 -57l1 -19h-298v-76l224 1l27 26h14l56 -58l-3 -18l-24 -19q-11 -138 -39 -189t-112 -85l-16 8l-8 25l-71 41l7 16l73 -11q5 -1 14 -1q43 0 63 53t30 188l-225 1l-20 -40
l-66 23l13 35v473l66 -35h46l25 134l92 -45l-3 -18l-35 -7l-51 -64h100l27 38h15l59 -49v-18l-29 -24v-199l-7 -15l-39 -23l-19 6v27h-184v-78h189l37 53h15zM158 689h185v98h-185v-98zM158 577h185v89h-185v-89zM263 304l10 15q96 -23 96 -76q0 -36 -18 -36q-9 0 -33 37
q-20 30 -55 60zM200 287l11 9q92 -41 92 -104q0 -15 -7.5 -26.5t-15.5 -11.5q-14 0 -32 46q-20 51 -48 87zM147 277l12 7q66 -69 66 -114q0 -18 -10 -36t-20 -18q-26 0 -28 62q-2 49 -20 99zM116 282l19 -3q3 -31 3 -55q0 -40 -15.5 -75t-31 -51t-22.5 -16q-8 1 -16.5 16.5
t-8.5 31.5q0 19 10 30q41 47 49 63t13 59z" />
  </g>

</svg>
