<?xml version="1.0" standalone="no"?>
<!DOCTYPE svg PUBLIC "-//W3C//DTD SVG 1.1//EN" "http://www.w3.org/Graphics/SVG/1.1/DTD/svg11.dtd" >
<svg xmlns="http://www.w3.org/2000/svg" xmlns:xlink="http://www.w3.org/1999/xlink" version="1.1" viewBox="0 -140 1000 1000">
  <g transform="matrix(1 0 0 -1 0 860)">
   <path fill="currentColor"
d="M53 146l32 11v330l90 -18v-13l-29 -16v-263l37 13v404l93 -19v-13l-32 -19v-126h6l26 36h15l33 -42v-16h-80v-185l96 35l6 -14l-232 -126l-3 -29l-15 -7zM311 662v274l102 -19v-14l-38 -17v-224l45 -1l38 47h16l51 -53v-15h-150q5 -179 26 -297q8 -44 22 -88.5t21 -44.5
t16 21l23 55l11 -5l-22 -143l11 -61l-11 -13q-51 29 -77 83q-76 153 -85 493h-252v22h253zM79 807h123l33 41h15l45 -51v-12h-216v22zM388 844l10 12q35 -21 50.5 -32t29.5 -29.5t14 -39.5q0 -17 -8.5 -29t-20.5 -12q-18 0 -33 60q-7 34 -42 70zM944 479h-341v-89h249l26 33
h17l57 -47v-16l-27 -24q-18 -171 -50 -227q-17 -30 -42 -43.5t-75 -20.5l-11 4l-9 32l-77 39l4 11l76 -11l18 -2q52 0 73 54t26 196h-255v-32l-5 -12l-50 -16l-10 9v543l65 -19h28l26 93l73 -30l-4 -12l-26 -4l-43 -47h130l31 33h15l55 -43v-16l-30 -28v-211l-7 -13l-43 -16
l-14 6v19h-191v-71h227l45 53h16l53 -59v-16zM794 594v113h-191v-113h191zM794 729v90h-191v-90h191zM534 282h15q11 -46 11 -79q0 -126 -38 -126q-11 0 -21 16t-10 30q0 13 5 21q28 45 33 65t5 73zM585 275l11 7q69 -72 69 -107q0 -44 -26 -44q-22 0 -30 68q-3 26 -24 76z
M733 324l7 8q55 -23 74 -39t19 -44q0 -26 -25 -26q-16 0 -34 40q-9 22 -41 61zM663 295l10 8q89 -59 89 -99q0 -16 -8.5 -29t-18.5 -13q-12 0 -16 13q-16 47 -24 64.5t-32 55.5z" />
  </g>

</svg>
