<?xml version="1.0" standalone="no"?>
<!DOCTYPE svg PUBLIC "-//W3C//DTD SVG 1.1//EN" "http://www.w3.org/Graphics/SVG/1.1/DTD/svg11.dtd" >
<svg xmlns="http://www.w3.org/2000/svg" xmlns:xlink="http://www.w3.org/1999/xlink" version="1.1" viewBox="0 -204 1024 1024">
  <g transform="matrix(1 0 0 -1 0 820)">
   <path fill="currentColor"
d="M694 960q92 -18 92 -36q0 -10 -52 -14q-15 -41 -41 -80h159l28 32q52 -32 52 -44t-30 -30v-214q0 -19 -32 -26q-16 0 -16 10v12h-234v-84h272l36 36q27 -22 53 -40q5 -3 5 -8q0 -18 -10 -18h-356v-80h278l38 32q33 -17 50 -36q8 -8 8 -12q0 -11 -40 -28q-6 -86 -17 -145
q-12 -64 -27 -91q-13 -28 -27 -39q-18 -14 -36 -25q-18 -8 -29 -8q0 18 -6 26q-7 12 -86 40l4 18q74 -18 96 -18q13 0 23 4q6 2 12 11q8 10 19 38q9 27 16 77q6 49 10 130h-291q-3 -4 -9 -7q-13 -7 -22 -7q-14 0 -14 14v512l62 -32h41q9 30 14 58q5 29 7 72zM620 598h234v92
h-234v-92zM620 716h234v84h-234v-84zM554 270h12v-45q0 -34 -4 -63q-3 -27 -9 -48q-6 -15 -14 -26q-9 -12 -17 -16q-6 -4 -10 -4q-26 0 -26 18q0 8 12 19q21 31 32 51q12 22 18 46q6 26 6 68zM624 270q12 -19 20 -39q11 -23 14 -41q6 -20 6 -38q0 -13 -6 -25q-4 -11 -11 -15
q-5 -4 -7 -4q-16 0 -16 16q-1 8 1 20q2 16 -2 43q-2 31 -17 79zM708 284q15 -13 26 -29q15 -17 23 -29q9 -13 11 -26q2 -10 2 -18q0 -19 -3 -30q-8 -10 -19 -10q-6 0 -9 4q-3 2 -5 17q-3 21 -9 38q-5 20 -13 35q-7 19 -22 38zM774 302q37 -22 59 -42q19 -19 27 -35
q6 -11 6 -25q0 -30 -18 -30q-6 0 -10 4q-5 3 -11 16q-12 33 -24 51q-16 22 -39 43zM216 482l-2 -8v-94h220v102h-218zM434 354h-220v-102h220v102zM434 226h-220v-172q0 -12 -14 -12q-10 0 -21 5q-9 9 -9 21q0 18 1 43q3 22 3 89v278q0 36 -4 62l43 -32h217l26 32
q56 -34 56 -48q0 -10 -30 -18v-376q0 -20 -11 -32q-8 -14 -28 -24q-17 -12 -41 -18q-1 29 -8 38q-6 8 -17 12q-29 14 -63 20v18q51 -18 88 -18q21 0 26 7q6 5 6 19v106zM108 854l50 -32h143q-1 3 -1 5q-8 38 -18 60q-13 28 -30 55l10 16q30 -27 45 -52q16 -23 23 -43
q6 -16 6 -31q0 -6 -1 -10h99l30 32q50 -32 50 -44t-28 -28v-176q0 -20 -30 -26q-18 0 -18 8v22h-278q-1 -83 -6 -156q-3 -71 -15 -145q-8 -62 -21 -114q-13 -46 -33 -88q-15 -37 -45 -75l-12 10q15 31 28 70q14 35 23 75q8 43 15 99q7 68 11 136q7 93 7 206q0 142 -4 226z
M160 636h278v156h-277l-1 -4v-152z" />
  </g>

</svg>
