<?xml version="1.0" standalone="no"?>
<!DOCTYPE svg PUBLIC "-//W3C//DTD SVG 1.1//EN" "http://www.w3.org/Graphics/SVG/1.1/DTD/svg11.dtd" >
<svg xmlns="http://www.w3.org/2000/svg" xmlns:xlink="http://www.w3.org/1999/xlink" version="1.1" viewBox="0 -140 1000 1000">
  <g transform="matrix(1 0 0 -1 0 860)">
   <path fill="currentColor"
d="M903 349l55 -55v-16l-507 1v22h88v434h-83v22h83v176l95 -20v-14l-33 -21v-121h170v174l95 -22v-15l-34 -21v-116h12l32 50h11l58 -53v-18l-113 -1v-434h25l33 48h13zM745 225l8 14q133 -47 179 -114q15 -21 15 -58q0 -35 -18 -35q-15 0 -34 25q-100 133 -150 168z
M572 255l80 -56l-9 -14l-33 -2q-70 -66 -120.5 -96.5t-119.5 -49.5l-6 10q76 49 120.5 93.5t87.5 114.5zM601 610h170v125h-170v-125zM601 455h170v133h-170v-133zM601 301h170v132h-170v-132zM420 525l55 -56v-18h-298v-80l188 1l26 26h14l54 -57l-3 -18l-15 -11
q1 -12 1 -41q0 -104 -23.5 -152.5t-83.5 -69.5l-11 6l-8 21l-66 27l3 20l64 -3q67 -3 67 128q0 33 -5 101h-192l-26 -32l-62 29l16 31l1 477l64 -35h37l30 116l90 -44l-4 -18l-33 -6l-57 -48h102l26 38h15l57 -49v-18l-28 -23v-201l-8 -15l-42 -16l-14 6v26h-174v-94h192
l36 52h15zM177 701h175v95h-175v-95zM177 591h175v88h-175v-88zM285 307l8 13q84 -45 84 -98q0 -14 -8.5 -30.5t-18.5 -16.5q-14 0 -22 36q-12 56 -43 96zM220 302l12 8q84 -68 84 -121q0 -20 -10.5 -35t-23.5 -15q-16 0 -21 42q-5 44 -41 121zM165 289l15 7q53 -76 53 -122
q0 -17 -13 -40.5t-26 -23.5q-12 0 -15 10t-3 32q0 5 1 28t1 27q0 23 -13 82zM127 281l19 5q7 -49 7 -77q0 -58 -16.5 -102.5t-41.5 -44.5q-12 0 -22 16t-10 36t28 60q27 41 36 107z" />
  </g>

</svg>
