<?xml version="1.0" standalone="no"?>
<!DOCTYPE svg PUBLIC "-//W3C//DTD SVG 1.1//EN" "http://www.w3.org/Graphics/SVG/1.1/DTD/svg11.dtd" >
<svg xmlns="http://www.w3.org/2000/svg" xmlns:xlink="http://www.w3.org/1999/xlink" version="1.1" viewBox="0 -120 1000 1000">
  <g transform="matrix(1 0 0 -1 0 880)">
   <path fill="currentColor"
d="M39 802h118v149l70 -6q19 -1 19 -13q0 -8 -15 -15l-17 -8v-107h88l1 149l73 -6q16 -1 16 -11q0 -8 -13 -14l-21 -10l1 -108h37l34 48l72 -57v-16h-144l1 -129l-55 -12l-1 141h-89v-134l-57 -11v145h-106zM74 51v570l58 -34h241l18 31l52 -36q17 -11 17 -19t-14 -11
l-15 -3v-462l-58 -9v51h-242v-65zM131 364v-210h90v210h-90zM132 562v-173h89v173h-89zM276 154h97v209h-97v-209zM276 390h97v171h-97v-171zM511 299q21 -63 21 -113q0 -44 -16 -68q-13 -19 -30 -19q-13 0 -23 10q-8 9 -8 18q0 8 7 22q28 57 33 96q3 19 3 53zM524 333
l-1 530l56 -35h48l13 128l80 -18q15 -3 15 -13q0 -11 -14 -15l-22 -5l-44 -77h130l20 32l58 -33q14 -9 14 -18q0 -11 -15 -15l-21 -5v-235l-56 -11v32l-203 2v-76h254l42 47l71 -56l-1 -17h-366v-74l274 1l21 35l60 -40q17 -11 17 -19t-17 -14l-10 -3q-21 -189 -45 -244
q-19 -45 -66 -59q-17 -5 -29 -5q-7 0 -10 4q-1 1 -4 30q-1 11 -34 18l-47 9v16h124q14 21 19 40q12 42 23 122q5 39 5 64q0 6 -1 20l-280 1v-34zM582 691v-89h203v89h-203zM582 803v-87h203v87h-203zM562 304q23 -21 36 -40q38 -53 38 -98q0 -20 -12 -32q-7 -7 -18 -7
q-28 0 -30 47q-4 68 -25 122zM622 320q40 -17 68 -42q41 -36 41 -70q0 -33 -27 -33q-9 0 -15 6q-5 5 -28 61q-15 36 -46 71zM700 347q46 -8 79 -33q37 -27 37 -55q0 -17 -10 -25q-8 -7 -17 -7q-10 0 -20 17q-33 56 -74 93z" />
  </g>

</svg>
