<?xml version="1.0" standalone="no"?>
<!DOCTYPE svg PUBLIC "-//W3C//DTD SVG 1.1//EN" "http://www.w3.org/Graphics/SVG/1.1/DTD/svg11.dtd" >
<svg xmlns="http://www.w3.org/2000/svg" xmlns:xlink="http://www.w3.org/1999/xlink" version="1.1" viewBox="0 -410 2048 2048">
  <g transform="matrix(1 0 0 -1 0 1638)">
   <path fill="currentColor"
d="M256 1623v-654q0 -355 -37 -532q-37 -178 -121 -343l-42 21q105 256 105 854v605q0 81 -11 182l114 -76h343q-23 18 -30 48q-21 100 -109 204l20 24q190 -129 190 -217q0 -39 -36 -59h199l80 81l114 -86q17 -13 17 -26q0 -26 -27 -26h-769zM315 1203l-39 86
q86 -13 163 -17v132q0 117 -9 160l109 -24q86 -19 86 -46q0 -25 -51 -41l-40 -14v-167h209v125q0 118 -9 159l108 -24q87 -19 87 -45q0 -28 -52 -43l-41 -12v-160h44l75 73l98 -73q22 -16 22 -34q0 -24 -26 -24h-213v-366l41 -34q19 -14 19 -26q0 -22 -19 -22h-343v-23
q0 -31 -52 -31q-53 0 -53 44q0 4 4 49q6 95 6 104v305q-31 -2 -47 -3q-36 -2 -77 -8zM534 1214v-389h209v389h-209zM332 569h38q-3 -67 -6 -170q-4 -171 -42 -228q-25 -38 -67 -38q-44 0 -44 40q0 24 37 75q40 56 61 157q6 33 23 164zM511 583q88 -179 88 -293
q0 -90 -56 -90q-45 0 -45 54q0 8 8 70q2 14 2 36q0 91 -30 209zM677 597q140 -188 140 -294q0 -65 -49 -65q-20 0 -31 13q-8 10 -12 61q-9 131 -77 271zM823 627q189 -163 189 -241q0 -62 -50 -62q-25 0 -35 37q-32 125 -129 246zM1688 1719l61 72l72 -49q43 -30 43 -50
q0 -15 -64 -52v-278q0 -41 6 -104q4 -30 4 -44q0 -49 -67 -49q-38 0 -38 25v24h-474v-172h514l88 84l119 -88q15 -11 17 -26q2 -24 -24 -24h-714v-178h572l69 65l58 -40q54 -37 54 -57q0 -19 -43 -40l-32 -15q-21 -203 -37 -297q-39 -229 -159 -308q-61 -41 -150 -51
q-2 65 -60 93q-31 15 -156 54l12 42q52 -14 117 -33q103 -30 138 -30q101 0 149 195q20 79 52 366h-584q-24 -13 -45 -13q-47 0 -47 35v844q0 83 -16 167l117 -68h73q41 148 50 247l102 -23q77 -18 77 -45q0 -24 -45 -32l-43 -8q-45 -74 -91 -139h325zM1705 1662h-474v-162
h474v162zM1231 1272h474v172h-474v-172zM1564 692q176 -131 176 -217q0 -60 -50 -60q-21 0 -34 16q-9 11 -20 64q-16 70 -97 175zM1399 650q161 -147 161 -230q0 -62 -54 -62q-36 0 -44 61q-14 104 -92 210zM1285 624q83 -171 83 -242q0 -79 -58 -79q-47 0 -47 49q0 12 3 36
q6 33 6 72q0 59 -21 151zM1132 618h40q-2 -175 -17 -241q-29 -128 -105 -128q-51 0 -51 46q0 26 48 73q49 49 66 120q13 52 19 130z" />
  </g>

</svg>
