<?xml version="1.0" standalone="no"?>
<!DOCTYPE svg PUBLIC "-//W3C//DTD SVG 1.1//EN" "http://www.w3.org/Graphics/SVG/1.1/DTD/svg11.dtd" >
<svg xmlns="http://www.w3.org/2000/svg" xmlns:xlink="http://www.w3.org/1999/xlink" version="1.1" viewBox="0 -120 1000 1000">
  <g transform="matrix(1 0 0 -1 0 880)">
   <path fill="currentColor"
d="M65 81v838l66 -40h260l44 50l66 -54v-22h-379v-650l273 -1l44 51l63 -55v-20h-380v-87zM162 254v289l42 -26h56l18 27l44 -30q12 -9 12 -14q0 -6 -10 -9l-12 -3l-2 -207l-45 -8v31h-58v-41zM207 329h58l1 165h-59v-165zM212 560v245l54 -27h101l21 30l50 -36
q11 -7 11 -13t-12 -10l-12 -3v-164l-52 -9v28h-109v-31zM264 752v-125h109v125h-109zM346 260v286l50 -29h46l18 29l42 -29q13 -8 13 -13q0 -6 -10 -10l-11 -5l-1 -206l-47 -7v29h-55v-37zM391 329h55v165h-54zM549 297q22 -69 22 -118q0 -43 -18 -62q-14 -14 -31 -14
q-26 0 -26 25q0 10 23 57q17 36 17 111zM562 343l2 521l64 -38h33l13 125l81 -18q10 -3 10 -10q0 -5 -10 -10l-25 -11l-40 -75h110l21 35l60 -43q5 -3 5 -8q0 -7 -6 -8l-19 -5v-244l-57 -6v30h-183v-76h229l37 46l63 -50l1 -22l-331 1l1 -75h231l27 34l58 -40q14 -9 14 -19
q0 -9 -13 -11l-14 -2q-20 -154 -36 -206q-20 -63 -53 -84q-29 -17 -55 -17q-11 0 -13 13q-2 18 -5 22q-5 7 -17 10l-52 13v15h121q35 87 49 246h-242l-1 -23zM621 604h182v92h-181zM622 721h182v80h-182v-80zM598 303q20 -20 33 -39q29 -47 29 -80q0 -21 -13 -34
q-8 -8 -18 -8q-12 0 -18 11q-5 9 -7 77q-1 25 -18 67zM654 317q91 -46 91 -99q0 -12 -7 -21q-8 -10 -19 -10q-15 0 -23 24q-18 54 -49 98zM722 348q44 -9 73 -33q33 -27 33 -53q0 -12 -9 -21q-7 -7 -16 -7q-6 0 -12 5q-4 4 -33 54q-8 12 -43 47z" />
  </g>

</svg>
