<?xml version="1.0" standalone="no"?>
<!DOCTYPE svg PUBLIC "-//W3C//DTD SVG 1.1//EN" "http://www.w3.org/Graphics/SVG/1.1/DTD/svg11.dtd" >
<svg xmlns="http://www.w3.org/2000/svg" xmlns:xlink="http://www.w3.org/1999/xlink" version="1.1" viewBox="0 -410 2048 2048">
  <g transform="matrix(1 0 0 -1 0 1638)">
   <path fill="currentColor"
d="M661 1574h-109q-118 0 -192 -8l-39 86q92 -22 231 -22h5q-23 73 -98 133l21 26q57 -24 85 -39q64 -33 64 -77q0 -18 -18 -43h157q46 86 72 167h-531v-164q0 -306 -55 -442q-52 -128 -182 -226l-24 31q93 86 126 200q40 132 40 362v190l-4 61q-3 89 -7 118l114 -72h1336
l99 95l129 -99q16 -11 16 -27q0 -27 -28 -27h-530l67 -25q45 -17 45 -37q0 -23 -45 -30l-43 -6l-32 -66h382l67 62l82 -65q41 -32 41 -52q0 -28 -44 -28h-50q-82 -82 -193 -158l-28 30q70 76 121 157h-407q-80 -113 -177 -206l-30 32q152 188 190 392h-409l65 -25
q47 -19 47 -38q0 -18 -41 -22l-42 -7q-38 -35 -79 -75h164l70 69l95 -75q17 -13 17 -27q0 -23 -30 -23h-383q-8 -176 -40 -265h209v53q-4 143 -7 159l106 -27q69 -18 69 -39q0 -23 -42 -38l-35 -12v-175q0 -40 -52 -40q-39 0 -39 32v34h-230q-63 -124 -206 -212l65 -27h187
q40 63 67 158l94 -22q71 -18 71 -44q0 -24 -35 -27l-51 -5q-38 -30 -79 -60h249l-18 39q197 89 262 183q69 98 69 263q0 12 -2 41l113 -16q61 -9 61 -31q0 -17 -40 -31l-35 -12q65 -168 177 -255q105 -81 288 -126l-6 -38q-14 1 -20 1q-55 0 -88 -46q-126 57 -195 117
q-96 84 -174 256q-36 -141 -130 -216q-82 -65 -255 -129h390l60 72l71 -49q44 -31 44 -50q0 -16 -65 -52v-248q0 -47 -57 -47q-40 0 -40 18v13h-927v-65h1045l89 85l109 -77q28 -20 28 -43q0 -22 -23 -22h-1248v-76h1237l62 70l72 -49q43 -29 43 -49q0 -17 -66 -53
q-24 -140 -39 -180q-37 -94 -119 -123q-31 -10 -92 -18q-5 51 -20 69q-17 22 -60 38l-61 22l17 42l78 -24l38 -10q38 -14 57 -14q55 0 80 112q3 14 16 110h-1243q-29 -9 -50 -9q-44 0 -44 21v589q-38 -20 -97 -43l-14 36q165 84 263 243h-131q-31 -6 -43 -6q-37 0 -37 28v89
q-4 145 -7 160l106 -27q69 -18 69 -40q0 -25 -42 -38l-36 -12v-101h143q28 104 38 265zM543 875h927v85h-927v-85zM543 733h927v87h-927v-87zM1278 385q97 -44 128 -67q53 -40 53 -81q0 -52 -46 -52q-29 0 -46 42q-26 64 -109 130zM934 384q95 -68 118 -94q37 -43 37 -79
q0 -22 -13 -40q-17 -23 -43 -23q-34 0 -45 61q-12 70 -77 152zM583 374q125 -121 125 -195q0 -39 -29 -58q-12 -8 -24 -8q-37 0 -43 81q-5 62 -56 163zM288 402l36 -7q-20 -148 -46 -210q-41 -97 -117 -97q-53 0 -53 51q0 27 60 66q58 37 86 97q15 35 34 100z" />
  </g>

</svg>
