<?xml version="1.0" standalone="no"?>
<!DOCTYPE svg PUBLIC "-//W3C//DTD SVG 1.1//EN" "http://www.w3.org/Graphics/SVG/1.1/DTD/svg11.dtd" >
<svg xmlns="http://www.w3.org/2000/svg" xmlns:xlink="http://www.w3.org/1999/xlink" version="1.1" viewBox="0 -140 1000 1000">
  <g transform="matrix(1 0 0 -1 0 860)">
   <path fill="currentColor"
d="M179 640v-150h259v47h-58q-59 0 -59 53v50h-38q-8 -43 -26.5 -69.5t-63.5 -59.5l-11 11q27 35 36.5 58t11.5 60h-51zM375 640v-41q0 -19 24 -19h39v60h-63zM179 378v-23l-5 -8l-47 -4l-6 4v334l55 -19h55v74h-60v22h197l31 31h13l36 -38v-15h-73v-74h53l33 30h13l49 -46
v-12l-26 -25v-243l-6 -6l-47 -6l-6 5v19h-259zM936 472v-14h-298v-93h228l29 19h13l44 -56l-5 -13l-22 -13q-29 -151 -55 -193q-27 -45 -99 -60l-11 5l-10 25l-75 37l5 12l75 -12q4 -1 11 -1q41 0 65 54q23 51 37 174h-267q-26 0 -26 24v501l58 -34h52l23 97l80 -35l-4 -14
l-34 -1l-35 -47h111l31 34h11l55 -52v-12l-28 -26v-204l-7 -8l-44 -11l-9 4v20h-197v-99h201l35 42h14zM709 311l4 14q72 -35 97 -56t25 -45q0 -16 -7 -28.5t-16 -12.5q-17 0 -31 35q-24 56 -72 93zM655 291l11 9q40 -26 65.5 -57.5t25.5 -55.5q0 -17 -10 -33t-20 -16
q-18 0 -24 42q-11 72 -48 111zM595 280l13 5q64 -80 64 -131q0 -19 -11.5 -36t-23.5 -17q-18 0 -20 53q-2 76 -22 126zM550 288h13q12 -66 12 -99q0 -47 -18.5 -85t-40.5 -38q-21 0 -21 45q0 16 16 41q30 46 39 136zM533 280v-13h-96v-149q0 -29 -9 -42.5t-36 -26.5
q-21 -10 -46 -13l-8 6v23l-92 39l6 13l89 -10q17 -2 25.5 9t8.5 36v115h-298v21h298v71l84 -19v-11l-22 -13v-28h17l32 33h12zM153 241l6 13q99 -38 99 -83q0 -15 -7 -26.5t-17 -11.5q-13 0 -41 56q-15 30 -40 52zM835 716v96h-197v-96h197zM835 600v94h-197v-94h197z
M321 660v76h-38v-76h38zM164 856l69 -39l-2 -11l-27 -2q-62 -85 -144 -148l-11 10q68 82 115 190zM187 863v23h198l23 28h12l45 -35l-3 -11l-32 -12q30 -49 59 -75.5t84 -56.5l-1 -10q-30 -4 -53 -29q-41 34 -65.5 70t-55.5 108h-211zM438 402v65h-259v-65h259z" />
  </g>

</svg>
