<?xml version="1.0" standalone="no"?>
<!DOCTYPE svg PUBLIC "-//W3C//DTD SVG 1.1//EN" "http://www.w3.org/Graphics/SVG/1.1/DTD/svg11.dtd" >
<svg xmlns="http://www.w3.org/2000/svg" xmlns:xlink="http://www.w3.org/1999/xlink" version="1.1" viewBox="0 -140 1000 1000">
  <g transform="matrix(1 0 0 -1 0 860)">
   <path fill="currentColor"
d="M542 350l-43 -13l-13 8v239l-66 -66l-11 13q69 99 123 227l75 -38l-6 -13l-26 -3l-23 -34h114l27 87l66 -31l-2 -13l-27 -4l-34 -39h135l36 44h15l44 -50v-15h-209v-71h92l37 42h15l44 -49v-16h-188v-66h96l36 42h15l44 -49v-15h-191v-67h129l36 43h15l44 -50v-15h-394
q0 -20 -5 -28zM547 400h109v67h-109v-67zM547 489h109v66h-109v-66zM547 578h109v71h-109v-71zM618 848h127v90l82 -16v-14l-21 -13v-47h53l36 43h13l46 -50v-17h-148v-59l-5 -9l-43 -11l-14 6l1 73h-127v-55l-5 -9l-43 -10l-13 6v68h-126v24h126v87l82 -17v-13l-21 -14v-43
zM153 282l-53 -21l-9 7v549l64 -20h17l44 140l75 -35l-5 -13l-31 -3l-57 -89h121l26 28h21l50 -48v-15l-26 -18v-232l-11 -6l-42 -9l-9 9v25h-173v-88h206l37 54h18l58 -61v-15h-319v-84h227l28 24h14l50 -47l-6 -19l-21 -8l-3 -72q-5 -91 -36.5 -129t-88.5 -47l-14 3l-6 38
l-69 26l4 15l65 -8q5 -1 19 -1q68 0 68 144v58h-231q0 -27 -2 -32zM871 264h-32q-62 -76 -106 -110q63 -30 106 -41.5t106 -14.5v-13q-21 -8 -52 -51q-81 15 -206 87q-121 -57 -262 -76l-9 14q120 28 234 95q-55 49 -82 133h-78v22h286l30 32h15l56 -63zM273 281l9 12
q59 -26 74.5 -40t15.5 -40q0 -34 -22 -34q-14 0 -21 21q-15 40 -56 81zM192 261l13 11q51 -34 69.5 -56.5t18.5 -49.5q0 -38 -25 -38q-7 0 -12 9.5t-25 59.5q-13 32 -39 64zM130 237l12 10q66 -65 66 -105q0 -19 -9 -33t-20 -14q-17 0 -19 38q-3 48 -30 104zM89 229h18
q8 -50 8 -79q0 -52 -12.5 -83t-31.5 -31q-25 0 -25 53q0 17 10 28q32 38 33 112zM776 287h-186q22 -40 40 -60t57 -43q53 42 89 103zM155 674h173v100h-173v-100zM155 555h173v98h-173v-98z" />
  </g>

</svg>
