<?xml version="1.0" standalone="no"?>
<!DOCTYPE svg PUBLIC "-//W3C//DTD SVG 1.1//EN" "http://www.w3.org/Graphics/SVG/1.1/DTD/svg11.dtd" >
<svg xmlns="http://www.w3.org/2000/svg" xmlns:xlink="http://www.w3.org/1999/xlink" version="1.1" viewBox="0 -204 1024 1024">
  <g transform="matrix(1 0 0 -1 0 820)">
   <path fill="currentColor"
d="M134 932l62 -30h224l26 30q54 -30 54 -44q0 -10 -30 -26v-318q0 -17 -32 -22q-14 0 -14 8v24h-242v-22q0 -7 -12 -13q-13 -5 -24 -5q-12 0 -12 12v406zM182 580h92v136h-92v-136zM324 716v-136h100v136h-100zM182 744h92v128h-92v-128zM324 872v-128h100v128h-100z
M62 482l58 -30h110l28 30q48 -30 48 -40q0 -9 -26 -26v-314q0 -22 2 -28t2 -12q0 -19 -28 -26q-20 0 -20 10v34h-128v-22q0 -9 -12 -15q-12 -7 -20 -7q-14 0 -14 14v432zM108 108h44v150h-44v-150zM190 258v-150h46v150h-46zM108 284h44v142h-44v-142zM190 426v-142h46v142
h-46zM324 482l56 -30h112l26 30q48 -30 48 -40q0 -9 -26 -26v-314q0 -22 2 -28t2 -12q0 -19 -30 -26q-18 0 -18 10v34h-128v-22q0 -9 -12 -15q-14 -7 -20 -7q-12 0 -12 14v432zM368 108h44v144h-44v-144zM452 252v-144h44v144h-44zM368 280h44v146h-44v-146zM452 426v-146
h44v146h-44zM730 960q92 -18 92 -36q0 -10 -52 -14q-13 -37 -37 -70h121l30 32q52 -31 52 -42t-30 -30v-230q0 -20 -30 -26q-18 0 -18 10v16h-212v-88h230l38 40q31 -23 59 -43q7 -4 7 -9q0 -18 -12 -18h-322v-92h250l36 34q33 -21 50 -36q8 -8 8 -12q0 -14 -40 -28
q-5 -83 -15 -137q-12 -60 -26 -86q-12 -26 -25 -36q-18 -13 -34 -24q-16 -7 -28 -7q0 18 -6 26q-6 10 -78 40l4 18q68 -18 88 -18q12 0 21 4q5 2 11 9q7 10 17 36q8 23 14 71q6 45 9 118h-259q-3 -4 -7 -6q-15 -6 -26 -6q-12 0 -12 12v540l60 -32h55q9 29 12 56q3 25 5 64z
M646 598h212v96h-212v-96zM646 720h212v94h-212v-94zM610 266h14v-41q0 -30 -4 -55q-4 -26 -11 -43q-4 -16 -12 -25q-5 -9 -11 -13q-6 -3 -12 -3q-22 0 -22 16q0 6 7 16q22 29 31 47q8 19 13 41q6 23 7 60zM682 270q9 -18 16 -37q8 -20 11 -39q3 -17 3 -34q0 -13 -4 -25
q-6 -11 -13 -15q-5 -4 -9 -4q-14 0 -14 18q-1 6 2 15q4 16 2 41q0 30 -8 76zM742 280q16 -12 26 -29q12 -13 19 -25q11 -12 14 -24q3 -9 3 -16q0 -16 -5 -27q-8 -11 -21 -11q-3 0 -6 4q-2 3 -4 19q-1 17 -7 33q-5 18 -12 32q-8 15 -19 34zM810 298q16 -12 31 -22
q13 -8 21 -17q10 -11 14 -18q4 -6 4 -11q0 -16 -7 -27q-8 -11 -19 -11q-2 0 -5 3t-5 13q-3 15 -10 27q-8 13 -15 26q-8 11 -19 23z" />
  </g>

</svg>
