<?xml version="1.0" standalone="no"?>
<!DOCTYPE svg PUBLIC "-//W3C//DTD SVG 1.1//EN" "http://www.w3.org/Graphics/SVG/1.1/DTD/svg11.dtd" >
<svg xmlns="http://www.w3.org/2000/svg" xmlns:xlink="http://www.w3.org/1999/xlink" version="1.1" viewBox="0 -140 1000 1000">
  <g transform="matrix(1 0 0 -1 0 860)">
   <path fill="currentColor"
d="M468 769l-4 -10l-29 -6l-32 -47q74 -26 74 -75q0 -21 -11 -21q-16 0 -33 37q-7 16 -37 49q-13 -20 -60 -70q-4 -4 -8 -9l-9 10q31 55 63 147q5 17 9 26zM203 775l-2 -11l-27 -2q-12 -31 -24 -53q78 -19 78 -58q0 -28 -17 -28q-8 0 -34 38q-13 19 -33 33q-36 -57 -74 -100
l-11 8q40 91 68 198zM653 774v-12l-30 -10q-50 -121 -121 -201l-12 8q64 127 85 236zM798 797l10 7q69 -66 96.5 -105t27.5 -80q0 -23 -7 -35t-17 -12q-20 0 -28 34q-23 97 -82 191zM905 528l-5 -12h-31q-99 -136 -177.5 -196t-230.5 -114l-7 16q131 63 222 148.5t151 210.5
zM788 918v-15l-39 -21v-363q0 -52 -15 -67.5t-81 -32.5l-10 8l-4 33l-85 32l3 13l96 -13q5 -1 20 -1q16 0 16 28v411zM55 842h193v89l97 -13v-15l-37 -17v-44h94l35 35h14l49 -41v-17h-192v-210q156 -56 156 -119q0 -12 -6.5 -22t-14.5 -10q-10 0 -24 20q-34 48 -50 64.5
t-61 49.5v-89l-7 -11l-41 -12l-12 5v75q-93 -76 -193 -135l-6 13q67 51 107.5 97t91.5 129v155h-193v23zM333 405l26 33h16l63 -46l-3 -10l-30 -14q-35 -88 -91 -156q46 -29 76 -43.5t101.5 -28t172.5 -13.5q137 0 288 23v-14q-40 -14 -44 -63q-142 -5 -183 -5
q-217 0 -330 45q-46 18 -113 68q-111 -91 -225 -135l-8 14q118 57 203 157q-47 65 -68 119q-18 -23 -53.5 -59t-52.5 -49l-8 10q43 54 69 100t64 138l70 -30v-13l-28 -5l-12 -23h100zM334 382h-115q-2 -4 -6 -8q-8 -14 -12 -19q27 -63 74 -110q39 57 59 137z" />
  </g>

</svg>
