<?xml version="1.0" standalone="no"?>
<!DOCTYPE svg PUBLIC "-//W3C//DTD SVG 1.1//EN" "http://www.w3.org/Graphics/SVG/1.1/DTD/svg11.dtd" >
<svg xmlns="http://www.w3.org/2000/svg" xmlns:xlink="http://www.w3.org/1999/xlink" version="1.1" viewBox="0 -204 1024 1024">
  <g transform="matrix(1 0 0 -1 0 820)">
   <path fill="currentColor"
d="M464 972q21 -11 40 -21q17 -11 27 -20q12 -7 17 -13q3 -3 5 -8q1 -4 1 -8q0 -20 -5 -26h303l44 48q36 -23 67 -49q9 -3 9 -9q0 -18 -14 -18h-812v-352q0 -73 -5 -136q-2 -57 -11 -118q-6 -48 -18 -88q-12 -37 -28 -69q-14 -30 -42 -61l-10 8q12 27 22 58q12 26 19 57
q8 36 12 81q6 51 9 105q4 73 4 163q1 260 -4 418l58 -38h362q-2 5 -5 12q-11 20 -25 34q-12 17 -32 36zM770 430q-112 -24 -234 -37v-69l220 25l30 53l71 -46q5 -4 5 -10q0 -14 -10 -18l-316 -36v-76l289 28l33 54l72 -48q6 -4 6 -10q0 -11 -12 -14l-388 -42v-64q0 -7 4 -14
q3 -5 11 -9q6 -4 22 -7q26 -4 73 -4h124q53 0 78 2q16 2 32 3q15 3 19 8q7 4 11 11q12 25 22 80l18 -8q-6 -16 -8 -36q0 -30 7 -36q31 -9 31 -30q0 -7 -5 -12q-5 -6 -23 -11q-18 -8 -52 -12q-37 -3 -130 -3h-124q-62 0 -92 6q-27 3 -42 12q-13 8 -19 20q-7 15 -7 24v75
l-239 -28l-61 -9l-26 36l94 9l232 22v78l-214 -23l-50 -12l-26 36l79 10l211 21v69q-9 -1 -16 -2q-115 -16 -256 -22l-6 22q195 17 366 53q114 22 168 53q52 -26 80 -47q8 -5 8 -11q0 -12 -12 -14q-5 0 -17 6q-11 4 -31 4zM168 748q43 -10 116 -10h58v22q0 50 -2 72
q45 -6 77 -15q9 -4 9 -13q0 -5 -7 -8q-12 -8 -29 -10v-48h78l32 32q25 -20 50 -36q4 -4 4 -8q0 -18 -6 -18h-158v-11q45 -20 72 -37q26 -15 40 -33q10 -11 10 -21q0 -30 -20 -30q-9 0 -16 4q-6 3 -12 18q-19 29 -38 50q-13 13 -36 27v-135q0 -21 2 -29q2 -19 2 -29
q0 -34 -30 -34q-24 0 -24 16q0 15 1 34q1 23 1 38v152q-7 -18 -16 -31q-20 -34 -41 -59q-22 -25 -46 -52q-26 -21 -65 -50l-10 18q32 27 53 55q24 23 41 53q17 26 30 53q8 20 12 33h-16q-71 -1 -98 -4zM566 752q44 -10 116 -10h38v14q0 49 -4 74q46 -8 77 -17q11 -6 11 -13
q0 -5 -9 -8q-14 -6 -27 -10v-40h98l32 32q28 -20 50 -36q6 -4 6 -8q0 -18 -8 -18h-178v-20q57 -23 92 -45q36 -22 54 -41q14 -15 14 -30q0 -28 -22 -28q-10 0 -18 6q-8 4 -19 20q-22 38 -50 59q-20 20 -51 37v-72v-31q2 -19 2 -31q0 -32 -32 -32q-22 0 -22 18q0 12 2 34
q2 20 2 36v109q-10 -17 -23 -32q-19 -26 -46 -51q-21 -20 -51 -43q-29 -18 -70 -43l-12 16q37 26 64 49q24 19 46 46q18 19 34 45q9 14 14 24q-66 -1 -88 -4z" />
  </g>

</svg>
