<?xml version="1.0" standalone="no"?>
<!DOCTYPE svg PUBLIC "-//W3C//DTD SVG 1.1//EN" "http://www.w3.org/Graphics/SVG/1.1/DTD/svg11.dtd" >
<svg xmlns="http://www.w3.org/2000/svg" xmlns:xlink="http://www.w3.org/1999/xlink" version="1.1" viewBox="0 -204 1024 1024">
  <g transform="matrix(1 0 0 -1 0 820)">
   <path fill="currentColor"
d="M70 936l63 -30h311l35 33q51 -36 51 -50q0 -10 -30 -25v-235q0 -23 1 -30q1 -8 1 -16q0 -21 -34 -27q-16 0 -16 10v24h-149v-116h109l41 45q34 -25 64 -49q7 -4 7 -10q0 -14 -14 -14h-207v-116h121l43 47q35 -26 65 -50q8 -5 8 -11q0 -14 -14 -14h-377q-71 -2 -97 -7
l-20 47q44 -12 117 -12h108v116h-88q-71 -2 -97 -7l-20 47q44 -12 117 -12h88v116h-137v-12q0 -10 -12 -16q-15 -6 -25 -6q-13 0 -13 14q0 4 1 14q1 23 1 42v242q0 49 -2 68zM120 618h137v260h-137v-260zM303 878v-260h149v260h-149zM160 812q16 -16 29 -33q14 -15 23 -30
q10 -14 13 -26q3 -10 3 -20q0 -18 -5 -27q-8 -12 -19 -12q-4 0 -7 4t-6 20q-3 19 -10 39q-7 19 -15 36t-22 37zM365 820q38 -16 62 -32q5 -3 5 -8q0 -6 -8 -9q-14 -5 -26 -6q-5 -15 -11 -28q-7 -15 -14 -27t-16 -25t-19 -24l-12 12q9 21 15 39t11 38l9 38q3 17 4 32z
M112 256h24q0 -62 -9 -102q-5 -31 -15 -54q-7 -21 -20 -34q-7 -9 -15 -13q-6 -5 -13 -5q-29 0 -29 26q0 4 5 10q22 24 36 45q15 24 22 52q10 29 14 75zM222 256q10 -21 17 -47t10 -49q3 -25 3 -44q0 -17 -5 -29q-4 -11 -13 -16q-7 -3 -12 -3q-19 0 -19 20q0 7 4 20
q4 20 4 50q0 36 -7 94zM321 256q16 -19 28 -40q14 -18 22 -35q9 -17 12 -31q3 -12 3 -24q0 -19 -5 -30q-9 -12 -21 -12q-4 0 -6 5q-4 4 -6 23q-3 23 -10 45q-6 23 -14 42q-7 20 -20 44zM421 260q34 -27 54 -54q18 -22 26 -44q6 -15 6 -30q0 -32 -23 -32q-5 0 -9 5
q-4 4 -8 21q-11 39 -24 63q-13 27 -35 55zM698 952q59 -7 97 -23q13 -4 13 -14t-13 -13q-19 -10 -43 -12v-172h116l44 49q36 -27 68 -52q8 -5 8 -11q0 -14 -15 -14h-221v-256h130l34 42q37 -23 55 -43q7 -7 7 -13q0 -9 -39 -32v-255q16 -12 28 -22q5 -3 5 -7q0 -14 -10 -14
h-362v-46q0 -12 -16 -12q-9 0 -24 6q-12 9 -12 24q0 18 3 47q4 22 4 97v200q0 41 -7 71l61 -43h95v438q0 54 -6 80zM600 118h292v288h-292v-288z" />
  </g>

</svg>
