<?xml version="1.0" standalone="no"?>
<!DOCTYPE svg PUBLIC "-//W3C//DTD SVG 1.1//EN" "http://www.w3.org/Graphics/SVG/1.1/DTD/svg11.dtd" >
<svg xmlns="http://www.w3.org/2000/svg" xmlns:xlink="http://www.w3.org/1999/xlink" version="1.1" viewBox="0 -204 1024 1024">
  <g transform="matrix(1 0 0 -1 0 820)">
   <path fill="currentColor"
d="M76 938l58 -32h256l30 32q50 -32 50 -46q0 -10 -28 -26v-286q0 -17 -30 -22q-18 0 -18 8v22h-114v-110h60l44 44q32 -25 59 -46q9 -5 9 -12q0 -16 -14 -16h-158v-124h92l44 44q30 -22 59 -46q7 -4 7 -8q0 -16 -12 -16h-314q-71 -3 -98 -6l-18 44q43 -12 116 -12h74v124
h-44q-69 -1 -96 -2l-18 42q43 -10 114 -10h44v110h-106v-12q0 -7 -12 -13q-17 -5 -26 -5q-10 0 -10 12v368zM124 616h106v260h-106v-260zM280 876v-260h114v260h-114zM152 822q14 -20 24 -38q12 -17 21 -35q9 -15 12 -29q3 -12 3 -22q0 -19 -5 -30q-8 -10 -21 -10q-4 0 -6 3
q-3 4 -5 23q-3 21 -7 44q-6 20 -13 40q-9 19 -21 42zM328 836q32 -14 55 -31q3 -4 3 -9q0 -4 -6 -7q-13 -2 -26 -3q-5 -19 -10 -39q-5 -17 -12 -35q-6 -14 -16 -33q-9 -16 -18 -29l-6 8q6 25 12 46q5 24 10 47q4 27 10 46q2 23 4 39zM90 252h26q0 -61 -8 -102
q-5 -31 -14 -52q-6 -23 -15 -36q-6 -7 -13 -11q-6 -5 -12 -5q-26 0 -26 22q0 5 4 11q17 25 28 48q15 22 21 51q6 28 9 74zM190 248q16 -18 24 -43q12 -24 16 -47q6 -21 6 -42q0 -15 -6 -28q-5 -11 -13 -16q-5 -4 -9 -4q-18 0 -18 18q-1 7 3 19q3 22 -3 49q-2 36 -16 90z
M288 258q14 -21 27 -40q16 -20 25 -36q8 -19 11 -33q3 -11 3 -25q0 -17 -5 -26q-8 -12 -17 -12q-5 0 -8 5q-3 4 -7 21q-3 25 -10 46q-7 24 -13 43q-8 21 -24 43zM372 266q39 -26 61 -49q22 -21 31 -40q6 -15 6 -29q0 -32 -18 -32q-8 0 -13 5q-4 6 -10 21q-12 36 -28 56
q-16 26 -43 50zM492 866q43 -12 114 -12h92v22q0 54 -4 82q45 -8 74 -17q10 -6 10 -13q0 -5 -7 -8q-10 -6 -23 -10v-56h110l44 44q34 -25 62 -48q8 -4 8 -10q0 -14 -14 -14h-210v-92h95l27 40q36 -24 54 -43q8 -9 8 -15q0 -9 -40 -30v-424l36 36q29 -23 55 -43q7 -5 7 -11
q0 -14 -10 -14h-392q-72 -1 -96 -4l-22 44q36 -10 88 -11v445q0 40 -6 70l53 -40h93v92h-92q-69 -1 -94 -4zM602 258h246v96h-246v-96zM602 380h246v94h-246v-94zM602 500h246v88h-246v-88zM602 616h246v86l-1 2h-244l-1 -2v-86zM632 208q42 -18 68 -36q8 -6 8 -12t-12 -9
q-14 -4 -28 -5q-20 -17 -39 -34q-24 -16 -48 -31q-23 -14 -55 -28q-28 -15 -62 -29l-12 12q40 26 67 46q30 22 51 46q26 23 40 44q16 19 22 36zM774 196q49 -19 86 -43q37 -19 60 -35q19 -14 30 -22q7 -10 13 -20q5 -7 5 -14q-1 -34 -26 -34q-6 0 -13 4q-7 5 -32 36
q-24 32 -52 55q-31 25 -81 59z" />
  </g>

</svg>
