<?xml version="1.0" standalone="no"?>
<!DOCTYPE svg PUBLIC "-//W3C//DTD SVG 1.1//EN" "http://www.w3.org/Graphics/SVG/1.1/DTD/svg11.dtd" >
<svg xmlns="http://www.w3.org/2000/svg" xmlns:xlink="http://www.w3.org/1999/xlink" version="1.1" viewBox="0 -204 1024 1024">
  <g transform="matrix(1 0 0 -1 0 820)">
   <path fill="currentColor"
d="M128 944q21 -10 36 -20q17 -9 25 -16q10 -6 14 -11q3 -4 5 -8q2 -3 2 -7q-1 -30 -22 -30q-3 0 -6 2q-2 2 -12 18t-21 28q-12 14 -33 30zM409 952q38 -16 62 -32q5 -3 5 -8q0 -6 -8 -9q-14 -5 -26 -6q-6 -6 -14 -12q-8 -7 -17 -12q-8 -5 -20 -11q-11 -5 -23 -10l-12 12
q12 12 20 23q9 11 15 23q8 12 12 23q4 10 6 19zM78 861l55 -27h123v50q0 53 -6 80q51 -8 84 -23q12 -6 12 -15q0 -10 -10 -13q-14 -11 -32 -12v-67h133l25 32q58 -38 58 -52q0 -13 -28 -21v-156q0 -18 -10 -31q-9 -16 -25 -25q-16 -11 -37 -17q-1 28 -7 39q-4 9 -14 13
q-22 12 -50 19v20q40 -20 71 -20q15 0 19 7q5 6 5 21v143h-140v-145q0 -27 2 -36v-35q0 -22 -30 -22q-24 0 -24 27q0 12 3 32q1 19 1 34v145h-128v-216q0 -10 -12 -16q-15 -6 -25 -6q-13 0 -13 14q0 4 1 14q1 23 1 42v172q0 36 -2 51zM185 768q59 -14 59 -26t-24 -15
q-4 -17 -12 -37q-8 -19 -21 -40q-13 -23 -25 -38l-22 16q15 27 24 52q10 24 15 48q5 22 6 40zM342 768q15 -10 28 -21q13 -10 21 -19q9 -9 12 -16t3 -13q0 -18 -5 -27q-8 -12 -19 -12q-4 0 -6 3q-4 2 -6 14q-3 14 -10 27q-6 14 -14 26q-7 12 -20 26zM655 968q91 -18 91 -33
q0 -14 -51 -17q-13 -29 -28 -52h201l41 45q34 -25 64 -49q7 -4 7 -10q0 -14 -14 -14h-99q-17 -42 -36 -74q-22 -36 -47 -65q-15 -14 -30 -26q27 -15 65 -30q43 -19 87 -28q37 -11 78 -15v-12q-56 0 -67 -35q-57 15 -93 34q-50 20 -85 47q-11 7 -18 13q-27 -19 -59 -33
q-34 -18 -73 -30q-28 -11 -72 -20l-9 19q39 11 70 23q37 13 70 34q27 15 46 29q-15 12 -26 25q-31 35 -55 77l24 11q27 -38 52 -61q16 -15 34 -28q17 16 31 35q21 26 36 57q12 24 24 53h-167q-24 -34 -53 -60q-31 -27 -63 -46l-11 19q31 27 48 45q17 19 37 52q16 25 31 59
q10 26 19 61zM122 557l55 -27h642l32 29q47 -33 47 -46q0 -9 -28 -23v-45q7 -6 14 -11q4 -3 4 -6q0 -14 -8 -14h-288v-56h240l35 33q51 -36 51 -50q0 -10 -30 -25v-103q0 -23 1 -30q1 -8 1 -16q0 -21 -34 -27q-16 0 -16 10h-247q-10 -12 -37 -14q-15 0 -15 17q0 18 1 27
q2 5 2 42v280h-104v-381q0 -8 4 -15q3 -6 12 -10q7 -4 23 -7q27 -4 74 -4h230q52 0 75 2q17 4 31 6q15 5 20 13q8 6 11 21q10 37 20 125l20 -9q-5 -39 -7 -98q0 -29 8 -35q31 -10 31 -30q0 -8 -5 -13q-4 -5 -21 -12q-19 -8 -53 -12q-37 -3 -130 -3h-230q-64 0 -94 7
q-26 2 -42 12q-14 9 -20 22q-5 14 -5 25v44h-246q-3 -3 -6 -4q-15 -6 -25 -6q-13 0 -13 14q0 4 1 14q1 23 1 42v110q0 49 -2 68l63 -30h227v56h-232q-15 -6 -25 -6q-13 0 -13 14q0 4 1 14q1 23 1 42v28q0 36 -2 51zM152 178h240v64h-240v-64zM152 270h240v60h-240v-60z
M392 442v60h-220v-60h220zM595 178h245v64h-248v-20q0 -21 1 -26q1 -4 2 -18zM592 270h248v60h-248v-60zM592 502v-60h232l2 2v58h-234z" />
  </g>

</svg>
