<?xml version="1.0" standalone="no"?>
<!DOCTYPE svg PUBLIC "-//W3C//DTD SVG 1.1//EN" "http://www.w3.org/Graphics/SVG/1.1/DTD/svg11.dtd" >
<svg xmlns="http://www.w3.org/2000/svg" xmlns:xlink="http://www.w3.org/1999/xlink" version="1.1" viewBox="0 -410 2048 2048">
  <g transform="matrix(1 0 0 -1 0 1638)">
   <path fill="currentColor"
d="M1919 481l40 -12l-28 -170q-8 -50 -8 -58q0 -20 43 -60q18 -17 18 -36q0 -60 -193 -60q-196 0 -405 67q-306 98 -437 320q-76 129 -109 388q-8 60 -18 149q-7 62 -14 121l98 -19q85 -16 85 -46q0 -22 -46 -41l-28 -11q6 -50 8 -75q29 -309 110 -433q125 -193 399 -270
q187 -52 324 -52q52 0 70 14q23 16 45 102zM1057 506q79 118 123 223q-71 105 -140 261l35 18q81 -142 128 -204q65 226 80 462h-121q-26 -8 -45 -8q-40 0 -40 22q0 7 4 22l131 455h-27q-35 0 -145 -11l-37 90q112 -22 177 -22h35l61 61l68 -48q35 -25 35 -47q0 -26 -39 -40
l-42 -15l-118 -406h96l61 62l46 -31q53 -36 53 -51q0 -19 -27 -36l-30 -19q-5 -28 -16 -121q-27 -217 -99 -386q102 -89 207 -116q83 -22 214 -22q169 0 289 11l4 -37q-65 -18 -82 -27q-28 -15 -33 -58q-204 0 -355 27q-153 28 -278 153q-63 -95 -149 -184zM1836 1801
q-52 -20 -118 -34v-432h35l77 69l101 -76q20 -15 20 -32q0 -19 -30 -19h-203v-406h75l75 73l103 -79q14 -11 14 -23q0 -27 -24 -27h-355q-66 0 -186 -12l-46 91q163 -23 190 -23h58v406q-36 -1 -137 -10l-45 91q94 -18 182 -23v419q-115 -15 -188 -19l-8 43q31 5 46 8
q93 15 220 64q50 19 119 74l76 -53q52 -37 52 -62q0 -20 -30 -20q-14 0 -36 4zM440 1827q-31 -15 -47 -23q-75 -37 -146 -58v-192h102l75 72l98 -72q20 -15 20 -30q0 -24 -26 -24h-269v-184h593v184h-43q-66 0 -149 -11l-37 86q116 -17 186 -17h43v199h-47q-69 0 -148 -11
l-37 86q124 -18 185 -18h39l57 65l53 -30q57 -33 57 -56q0 -31 -31 -43l-33 -14v-345l5 -54l2 -50q7 -43 7 -51q0 -42 -68 -42q-41 0 -41 25v39h-593v-22q0 -38 -53 -38q-51 0 -51 45q0 4 4 49q7 94 7 104v469l107 -58q59 37 80 54q30 26 67 79l66 -38q65 -38 65 -59
q0 -24 -33 -24q-7 0 -39 4zM154 1138l110 -24q87 -19 87 -46q0 -30 -51 -41l-46 -11v-121h78l53 50l72 -62q17 -14 17 -28q0 -16 -17 -16h-203v-200h78l58 54l67 -54q21 -16 21 -36t-21 -20h-203v-305q91 30 193 81l19 -32q-99 -84 -212 -158v-24q0 -42 -24 -42
q-23 0 -45 47l-44 94l22 7v727q0 116 -9 160zM507 1134l104 -20q63 -11 74 -22q7 -7 7 -16q0 -25 -51 -41l-30 -9v-131h74l53 50l73 -62q16 -14 16 -28q0 -16 -16 -16h-200v-200h74l59 54l67 -54q20 -16 20 -36t-20 -20h-200v-303q173 63 258 109l18 -29q-84 -70 -164 -120
q-79 -50 -108 -68l-4 -27q-6 -42 -31 -42q-22 0 -42 47l-43 101l21 7v743q0 66 -9 133z" />
  </g>

</svg>
