<?xml version="1.0" standalone="no"?>
<!DOCTYPE svg PUBLIC "-//W3C//DTD SVG 1.1//EN" "http://www.w3.org/Graphics/SVG/1.1/DTD/svg11.dtd" >
<svg xmlns="http://www.w3.org/2000/svg" xmlns:xlink="http://www.w3.org/1999/xlink" version="1.1" viewBox="0 -410 2048 2048">
  <g transform="matrix(1 0 0 -1 0 1638)">
   <path fill="currentColor"
d="M1502 1073h161q2 27 2 48q0 23 -2 74l98 -16q68 -11 68 -38q0 -23 -26 -30l-46 -12l-3 -26h49l69 61l75 -65q24 -20 24 -35q0 -18 -24 -18h-200q-20 -105 -84 -196q77 -28 114 -46q64 -32 64 -83q0 -23 -16 -39q-11 -12 -22 -12q-17 0 -72 42q-66 50 -122 78
q-101 -64 -178 -93q-40 -15 -146 -44l-15 34q30 13 45 20q124 52 216 117q-72 28 -223 80q62 80 92 142q-30 -3 -79 -6q-34 -2 -65 -5l-45 87q125 -19 192 -19h17q31 101 44 187h-77v-6q0 -40 -68 -40q-27 0 -27 24v466l108 -62h321l61 71l72 -49q43 -30 43 -50
q0 -16 -66 -52v-314q0 -34 -63 -34q-31 0 -31 16v30h-221l40 -12q61 -19 61 -45t-43 -31l-30 -4q-18 -49 -42 -95zM1483 1016q-40 -60 -91 -117q78 -23 188 -54q61 75 75 171h-172zM1387 1312h350v112h-350v-112zM1387 1478h350v108h-350v-108zM1188 1786v-1088
q0 -72 53 -98q76 -36 349 -36q163 0 248 23q58 15 75 15q20 0 42 -16q28 -20 28 -42q0 -27 -62 -41q-103 -25 -327 -25q-271 0 -367 28q-134 40 -134 171v1103l-57 -5l-38 89q133 -21 205 -21h541l87 88l116 -88q21 -15 21 -32q0 -25 -24 -25h-756zM1926 477l40 -12
l-35 -152q-8 -34 -8 -54q0 -24 42 -64q18 -16 18 -35q0 -60 -193 -60q-216 0 -434 77q-372 132 -473 468q-30 102 -57 348q-9 85 -18 152l98 -18q85 -17 85 -46q0 -23 -47 -42l-27 -11q5 -50 8 -75q29 -304 109 -427q129 -197 402 -274q183 -52 321 -52q53 0 71 13
q18 14 47 110zM440 1843q-85 -47 -193 -81v-193h102l74 73l98 -73q20 -14 20 -31q0 -23 -24 -23h-270v-184h592v184h-42q-68 0 -149 -11l-37 86q116 -17 186 -17h42v199h-46q-72 0 -149 -10l-36 85q123 -17 185 -17h38l57 64l53 -30q57 -33 57 -59q0 -28 -37 -43l-27 -11
v-348q0 -40 7 -105q3 -29 3 -45q0 -48 -67 -48q-38 0 -38 25v43h-592v-22q0 -31 -52 -31q-53 0 -53 44q0 4 4 49q6 97 6 104v459l109 -54q79 46 157 133l71 -45q48 -30 48 -53t-33 -23q-14 0 -38 4zM152 1153l109 -24q87 -19 87 -46q0 -30 -51 -41l-46 -11v-121h78l53 50
l72 -62q17 -14 17 -28q0 -16 -17 -16h-203v-200h78l58 54l67 -54q21 -16 21 -36t-21 -20h-203v-305q91 30 193 81l19 -32q-98 -83 -212 -158v-24q0 -42 -24 -42q-23 0 -45 47l-44 94l22 7v727q0 117 -8 160zM504 1149l104 -20q63 -11 74 -22q7 -7 7 -16q0 -25 -51 -41
l-30 -9v-131h74l53 50l73 -62q16 -14 16 -28q0 -16 -16 -16h-200v-200h74l59 54l67 -54q20 -16 20 -36t-20 -20h-200v-303q174 64 258 109l18 -29q-84 -70 -164 -120q-79 -50 -108 -68l-4 -27q-6 -42 -31 -42q-22 0 -42 47l-43 101l21 7v743q0 66 -9 133z" />
  </g>

</svg>
