<?xml version="1.0" standalone="no"?>
<!DOCTYPE svg PUBLIC "-//W3C//DTD SVG 1.1//EN" "http://www.w3.org/Graphics/SVG/1.1/DTD/svg11.dtd" >
<svg xmlns="http://www.w3.org/2000/svg" xmlns:xlink="http://www.w3.org/1999/xlink" version="1.1" viewBox="0 -410 2048 2048">
  <g transform="matrix(1 0 0 -1 0 1638)">
   <path fill="currentColor"
d="M1125 1610l-40 86q129 -17 188 -17h118v107q0 118 -8 159l110 -24q85 -19 85 -45t-49 -41l-42 -12v-144h211l61 72l72 -50q43 -29 43 -49q0 -16 -67 -52v-209l69 81l99 -81q19 -16 19 -37t-27 -21h-160v-220l40 -32q18 -15 18 -27q0 -22 -18 -22h-360v-803
q0 -142 -155 -170q-11 70 -47 93q-32 20 -160 43l9 46q167 -27 201 -27q56 0 56 57v761h-102q-68 0 -149 -11l-39 87q117 -19 188 -19h102v244h-207q-65 0 -149 -10l-39 85q115 -17 188 -17h207v230h-118q-69 0 -148 -11zM1487 1621v-230h218v230h-218zM1487 1333v-244h218
v244h-218zM1060 979q241 -148 241 -245q0 -24 -13 -41q-15 -19 -35 -19q-19 0 -33 19q-9 12 -34 70q-29 67 -149 185zM1319 613l23 -31q-104 -120 -272 -256l6 -40v-9q-2 -31 -19 -30q-25 1 -67 58l-64 87q151 63 191 85q76 40 202 136zM1820 856q-109 -90 -280 -161l-18 34
q115 82 158 124q44 43 96 131l94 -59q46 -29 46 -54t-35 -23q-3 0 -8 1zM1537 600q136 -58 278 -152q115 -76 115 -147q0 -57 -45 -57q-24 0 -73 63q-49 65 -104 117q-50 48 -188 143zM490 1962l99 -24q58 -14 61 -39q2 -20 -31 -25l-45 -8q-52 -50 -114 -96h308l60 65
l47 -29q59 -37 59 -57q0 -21 -22 -36l-37 -24v-274l5 -54l2 -50q7 -42 7 -50q0 -42 -67 -42q-45 0 -45 29v16h-459v-13q0 -38 -55 -38q-53 0 -53 45q0 4 4 48q6 102 6 105v424l110 -65h76q45 68 84 192zM318 1323h459v92h-459v-92zM318 1472h459v91h-459v-91zM318 1617h459
v96h-459v-96zM142 1209l109 -61h597l60 65l42 -27q65 -41 65 -63q0 -20 -23 -34l-38 -22v-194l5 -55l2 -50q7 -43 7 -51q0 -42 -67 -42q-40 0 -40 25v21h-621v-16q0 -38 -55 -38q-53 0 -53 45q0 4 4 48q6 96 6 105v344zM240 778h258v126h-258v-126zM596 778h265v126h-265
v-126zM240 963h258v130h-258v-130zM596 1093v-130h265v130h-265zM110 526l-39 86q124 -19 188 -19h623l72 65l91 -65q23 -16 23 -34q0 -22 -32 -22h-264v-290q0 -37 8 -100q2 -20 2 -33q0 -51 -69 -51q-39 0 -39 32v442h-226q-30 -175 -78 -253q-83 -137 -290 -222l-19 38
q148 83 224 207q47 75 64 230h-90q-69 0 -149 -11z" />
  </g>

</svg>
