<?xml version="1.0" standalone="no"?>
<!DOCTYPE svg PUBLIC "-//W3C//DTD SVG 1.1//EN" "http://www.w3.org/Graphics/SVG/1.1/DTD/svg11.dtd" >
<svg xmlns="http://www.w3.org/2000/svg" xmlns:xlink="http://www.w3.org/1999/xlink" version="1.1" viewBox="0 -120 1000 1000">
  <g transform="matrix(1 0 0 -1 0 880)">
   <path fill="currentColor"
d="M43 488h232v91l-32 -7v57l-109 -25v-14q0 -18 -11 -18q-7 0 -11 7l-45 79l176 19v69h-126l-10 27h136v73h-161l-9 27h170v87l83 -6q25 -2 25 -16q0 -10 -13 -14l-34 -13v-38h91l43 51l76 -59v-19h-210v-73h80l40 49l72 -55v-21h-192v-62l201 27l7 -18l-208 -51v-49l45 -6
q31 -4 31 -18q0 -10 -19 -17l-26 -9v-55h158v130l-42 -12l-7 20q101 42 148 96q52 59 68 143h-111l-14 28h299l24 41l57 -41q15 -10 15 -20q0 -8 -11 -13l-20 -8q-11 -83 -24 -133q-17 -66 -60 -86q-20 -10 -38 -10q-10 0 -14 6q-1 4 -1 25q-2 11 -26 15l-64 10v17h132
q18 44 38 169h-121q-17 -88 -67 -144q-53 -60 -124 -88l46 -6q13 -1 16 -4q4 -4 4 -10q0 -10 -11 -14l-33 -12v-18h125l38 42l55 -46v-22h-218v-55h277l42 53l77 -61v-19h-295l30 -20q9 -6 9 -14q0 -11 -17 -11h-24l-15 -14q56 -9 84 -26q31 -20 31 -41q0 -9 -8 -16
q-7 -7 -15 -7q-5 0 -29 17q-37 30 -85 56q-56 -44 -93 -64l-12 13q64 60 105 127h-203l27 -20q8 -6 8 -13q0 -12 -22 -12h-22l-11 -9q51 -14 69 -28q19 -13 19 -35q0 -26 -23 -26q-10 0 -33 26q-33 31 -56 43q-46 -37 -95 -66l-14 13q25 24 62 68q31 37 44 59h-307zM141 57
v372l78 -7q26 -2 26 -13t-17 -17l-26 -9v-81h579v131l87 -9q23 -2 23 -13q0 -9 -15 -16l-31 -13v-310l-64 -10v20h-579v-16zM202 109h579v166h-119l19 -13q14 -9 14 -17q0 -10 -16 -13l-30 -4l-13 -12q122 -29 122 -69q0 -10 -8 -17q-8 -8 -19 -8t-37 22q-39 32 -82 51
q-48 -38 -99 -69l-15 14q60 56 118 135h-202l22 -15q9 -6 9 -14q0 -16 -25 -17l-25 -1l-10 -10q95 -22 95 -61q0 -11 -9 -20q-8 -7 -18 -7q-9 0 -21 16q-28 31 -70 53q-50 -44 -94 -73l-15 14q67 66 104 135h-155v-166z" />
  </g>

</svg>
