<?xml version="1.0" standalone="no"?>
<!DOCTYPE svg PUBLIC "-//W3C//DTD SVG 1.1//EN" "http://www.w3.org/Graphics/SVG/1.1/DTD/svg11.dtd" >
<svg xmlns="http://www.w3.org/2000/svg" xmlns:xlink="http://www.w3.org/1999/xlink" version="1.1" viewBox="0 -140 1000 1000">
  <g transform="matrix(1 0 0 -1 0 860)">
   <path fill="currentColor"
d="M45 713h79v175l89 -17v-15l-29 -13v-130h69v216l85 -15v-11l-25 -14v-66h46l32 34h14l41 -43v-13h-133v-88h78l30 37h14l42 -43v-16h-432v22zM394 413v244l88 -18v-11l-29 -15v-523l-8 -13l-44 -12l-7 9v36h-263v-40l-11 -9l-41 -12l-8 10v608l91 -16v-17l-31 -16v-205
h263zM131 391v-259h263v259h-263zM277 613l-3 -10l-21 -3q-15 -23 -31 -57q43 -19 43 -49q0 -22 -13 -22q-8 0 -13 10t-14 35q-3 5 -12 12q-32 -55 -70 -90l-7 9q39 57 80 190zM385 612v-12l-27 -6q-9 -29 -30 -67q57 -22 57 -49q0 -25 -16 -25q-7 0 -22 33q-7 18 -25 29
q-38 -59 -75 -93l-8 7q31 42 47.5 81t39.5 125zM270 340v-11l-27 -5q-13 -36 -29 -62q43 -13 43 -49q0 -19 -15 -20q-6 0 -8 5q-10 25 -26 54q-27 -54 -65 -95l-7 6q41 77 72 202zM378 318l-4 -11l-25 -8q-10 -25 -23 -52q55 -30 55 -65q0 -26 -16 -26q-8 0 -13 14
q-12 34 -15 39.5t-18 23.5q-35 -57 -72 -93l-9 8q33 51 48 86t33 106zM732 545v-370l-6 -7l-47 -10l-7 10v291q-44 -92 -104 -160l-12 8q46 87 68.5 160.5t37.5 186.5h-94v22h104v191l97 -21v-15l-37 -16v-139h31l33 40h12l45 -46v-16h-116q23 -116 51 -187t78 -139l-6 -8
q-4 1 -15 1q-16 0 -41 -16q-45 95 -72 240zM869 903l24 22h13l50 -40v-13l-25 -23v-780l-8 -16l-40 -13l-14 8v69h-316v-51l-8 -11l-39 -15l-15 8v888l62 -33h316zM553 140h316v740h-316v-740z" />
  </g>

</svg>
