<?xml version="1.0" standalone="no"?>
<!DOCTYPE svg PUBLIC "-//W3C//DTD SVG 1.1//EN" "http://www.w3.org/Graphics/SVG/1.1/DTD/svg11.dtd" >
<svg xmlns="http://www.w3.org/2000/svg" xmlns:xlink="http://www.w3.org/1999/xlink" version="1.1" viewBox="0 -410 2048 2048">
  <g transform="matrix(1 0 0 -1 0 1638)">
   <path fill="currentColor"
d="M1193 1462v-554h397l98 102l121 -107q17 -15 17 -25q0 -26 -27 -26h-606v-653h532l99 101l120 -106q17 -15 17 -26q0 -26 -27 -26h-1103q-114 0 -192 -9l-38 88q94 -22 230 -22h267v1263h-193q-108 -226 -308 -448l-25 27q170 246 247 440q75 190 127 426l107 -40
q85 -32 85 -56q0 -26 -40 -28l-64 -2q-49 -137 -104 -261h805l99 105l120 -105q21 -19 21 -32q0 -9 -11 -17.5t-24 -8.5h-747zM480 1925l148 -58q37 -14 37 -37q0 -22 -41 -28l-59 -9q-19 -55 -29 -82q-57 -168 -135 -321l92 -33q25 -9 25 -30q0 -19 -21 -27l-49 -19v-1035
q0 -73 7 -146q2 -18 2 -30q0 -43 -68 -43q-38 0 -38 45v1235q-21 -35 -32 -52q-111 -179 -230 -306l-26 27q182 258 274 484q115 285 143 465z" />
  </g>

</svg>
