<?xml version="1.0" standalone="no"?>
<!DOCTYPE svg PUBLIC "-//W3C//DTD SVG 1.1//EN" "http://www.w3.org/Graphics/SVG/1.1/DTD/svg11.dtd" >
<svg xmlns="http://www.w3.org/2000/svg" xmlns:xlink="http://www.w3.org/1999/xlink" version="1.1" viewBox="0 -410 2048 2048">
  <g transform="matrix(1 0 0 -1 0 1638)">
   <path fill="currentColor"
d="M1460 1108v123q0 113 -8 159l109 -24q86 -19 86 -45q0 -29 -50 -42l-41 -11v-160h102l108 114l131 -114q23 -20 23 -32q0 -25 -27 -25h-340v-844q0 -142 -154 -170q-12 70 -48 93q-32 21 -159 43l8 46q168 -27 201 -27q57 0 57 57v802h-510q-118 0 -192 -8l-42 88
q94 -23 234 -23h512zM867 873q92 -49 199 -141q109 -94 109 -183q0 -35 -26 -54q-13 -10 -30 -10q-16 0 -26 8q-20 17 -52 99q-28 75 -79 137q-24 28 -113 115zM1164 1916q29 -21 44 -31q108 -75 142 -120q31 -41 31 -84q0 -28 -34 -58h452l59 70l84 -64q38 -30 38 -50
q0 -15 -10 -24q-4 -3 -36 -10l-37 -9q-67 -92 -172 -219l-34 26q55 106 108 224h-946q-8 -79 -34 -142q-48 -119 -128 -119q-60 0 -60 54q0 29 49 63q125 88 140 334h33v-134h430q-26 88 -40 120q-28 62 -107 147zM471 1922l148 -58q38 -15 38 -37q0 -23 -41 -29l-60 -9
q-88 -254 -164 -402l92 -34q25 -9 25 -29t-21 -28l-49 -19v-1034q0 -73 7 -147q2 -18 2 -30q0 -43 -68 -43q-38 0 -38 46v1234q-21 -34 -32 -51q-111 -179 -230 -306l-26 26q182 259 274 485q115 285 143 465z" />
  </g>

</svg>
