<?xml version="1.0" standalone="no"?>
<!DOCTYPE svg PUBLIC "-//W3C//DTD SVG 1.1//EN" "http://www.w3.org/Graphics/SVG/1.1/DTD/svg11.dtd" >
<svg xmlns="http://www.w3.org/2000/svg" xmlns:xlink="http://www.w3.org/1999/xlink" version="1.1" viewBox="0 -410 2048 2048">
  <g transform="matrix(1 0 0 -1 0 1638)">
   <path fill="currentColor"
d="M1221 1468v83q-5 119 -8 135l109 -24q86 -19 86 -45q0 -27 -50 -42l-36 -11v-96h142l88 92l120 -92q15 -11 15 -25q0 -27 -23 -27h-342v-197h195l88 88l124 -90q15 -11 15 -26q0 -26 -25 -26h-270l99 -37q42 -16 42 -37q0 -23 -22 -28l-69 -15q-22 -35 -33 -52
q-36 -60 -82 -129h77l87 88l118 -88q19 -13 19 -27q0 -29 -24 -29h-339v-206h206l88 88l122 -90q14 -11 14 -25q0 -29 -26 -29h-404v-111q0 -29 3 -58q4 -50 4 -65q0 -47 -56 -47q-47 0 -47 34v247h-169q-117 0 -192 -8l-43 88q96 -24 235 -24h169v206h-123q-108 0 -192 -8
l-42 88q96 -24 234 -24h19q-35 125 -55 172q-19 43 -73 126q-97 -5 -135 -10l-37 88q85 -24 212 -24h187v197h-122q-116 0 -192 -8l-42 84q85 -24 234 -24h122zM1164 867h158q11 29 35 84q25 58 64 214h-369q61 -62 95 -105q49 -63 49 -121q0 -24 -15 -53q-10 -13 -17 -19z
M687 1850l122 -88h939l68 76l84 -54q40 -26 40 -49q0 -27 -77 -61v-1272q1 -30 1 -45q2 -113 5 -164q3 -52 3 -71q0 -64 -71 -64q-37 0 -37 26v80h-965v-80q-3 -27 -39 -27q-65 0 -65 63q0 26 4 86l1 13q3 57 3 183v1314q-2 81 -16 134zM799 218h965v1490h-965v-1490z
M454 1922l148 -58q38 -15 38 -37q0 -23 -41 -29l-60 -9q-88 -254 -164 -402l92 -34q25 -9 25 -29t-21 -28l-49 -19v-1034q0 -73 7 -147q2 -18 2 -30q0 -43 -68 -43q-38 0 -38 46v1234q-21 -34 -32 -51q-111 -179 -230 -306l-26 26q182 259 274 485q115 285 143 465z" />
  </g>

</svg>
