<?xml version="1.0" standalone="no"?>
<!DOCTYPE svg PUBLIC "-//W3C//DTD SVG 1.1//EN" "http://www.w3.org/Graphics/SVG/1.1/DTD/svg11.dtd" >
<svg xmlns="http://www.w3.org/2000/svg" xmlns:xlink="http://www.w3.org/1999/xlink" version="1.1" viewBox="0 -410 2048 2048">
  <g transform="matrix(1 0 0 -1 0 1638)">
   <path fill="currentColor"
d="M1755 1892l145 -113q23 -18 23 -38q0 -26 -31 -26h-1588v-1514h1367l102 120l150 -116q18 -14 18 -32q0 -28 -30 -28h-1628q-11 -6 -27 -6q-61 0 -61 61q0 66 3 98q5 45 5 185v1240q-2 81 -16 139l117 -88h1347zM1499 1024l69 76l84 -54q40 -26 40 -48q0 -28 -79 -62
v-390l45 -33q17 -12 17 -28q0 -28 -17 -28h-953v-46q0 -31 -52 -31q-53 0 -53 43q0 5 4 50q7 95 7 105v400q-4 93 -16 136l118 -90h786zM705 513h807v457h-807v-457zM821 1625l122 -64q34 -18 34 -38q0 -26 -34 -28l-57 -3q-99 -157 -164 -227q-111 -117 -317 -241l-22 29
q156 117 257 249q99 130 181 323zM1173 1604h112l72 83l84 -58q28 -20 28 -38q0 -19 -22 -31l-49 -26q102 -169 258 -270q142 -92 287 -124l-5 -38q-69 -1 -90 -15q-15 -11 -46 -58q-180 110 -286 228q-108 120 -183 293h-160v54z" />
  </g>

</svg>
