<?xml version="1.0" standalone="no"?>
<!DOCTYPE svg PUBLIC "-//W3C//DTD SVG 1.1//EN" "http://www.w3.org/Graphics/SVG/1.1/DTD/svg11.dtd" >
<svg xmlns="http://www.w3.org/2000/svg" xmlns:xlink="http://www.w3.org/1999/xlink" version="1.1" viewBox="0 -410 2048 2048">
  <g transform="matrix(1 0 0 -1 0 1638)">
   <path fill="currentColor"
d="M973 1361q-54 -62 -115 -116l-21 24q224 263 283 647l119 -33q48 -14 48 -35q0 -20 -25 -25l-39 -10q233 -167 233 -254q0 -56 -47 -56q-28 0 -54 64q-46 114 -160 222q-3 -10 -33 -100q-51 -153 -179 -315q119 -16 212 -16h72l80 81l114 -86q17 -13 17 -26
q0 -27 -27 -27h-235v-292h65l85 89l124 -95q17 -13 17 -26q0 -26 -27 -26h-264v-605q178 44 306 84l14 -39q-163 -77 -577 -203l-42 -13l-11 -41q-8 -33 -24 -33q-13 0 -30 31l-70 131q137 21 338 62v626h-32q-116 0 -192 -8l-38 88q95 -22 230 -22h32v292q-70 -2 -118 -7z
M712 1094l36 -8q78 -19 78 -44q0 -30 -42 -44l-41 -13v-632q0 -97 13 -219q3 -32 3 -50q0 -46 -54 -46t-54 42v900q-69 -118 -133 -197l-26 23q181 292 247 688l142 -56q29 -12 29 -33q0 -25 -35 -28l-59 -6q-52 -165 -104 -277zM1796 1157v-940q0 -141 -154 -170
q-11 70 -39.5 90t-148.5 44l8 46q156 -26 183 -26q56 0 56 58v898h-27q-116 0 -192 -8l-38 88q96 -23 230 -23h105l85 90l124 -95q17 -13 17 -26q0 -26 -27 -26h-182zM1396 858l136 -46q31 -11 31 -27q0 -21 -26 -27l-58 -13q-87 -157 -181 -271l-29 18q82 175 127 366z
M754 1911l142 -56q29 -12 29 -33q0 -25 -34 -28l-59 -6q-118 -274 -302 -447l-23 26q184 235 247 544zM1760 1743l85 89l124 -95q17 -13 17 -26q0 -26 -27 -26h-258q-108 0 -192 -8l-38 88q96 -22 230 -22h59zM858 843q187 -182 187 -290q0 -45 -32 -66q-16 -10 -31 -10
q-38 0 -44 76q-5 81 -36 151q-14 31 -71 119zM353 1613l75 86l76 -56q40 -29 40 -48q0 -28 -68 -57v-860q57 -36 57 -56q0 -26 -19 -26h-280v-88q-3 -22 -34 -22q-60 0 -60 62l8 282v730q-2 86 -16 139l118 -86h103zM234 654h154v906h-154v-906z" />
  </g>

</svg>
