<?xml version="1.0" standalone="no"?>
<!DOCTYPE svg PUBLIC "-//W3C//DTD SVG 1.1//EN" "http://www.w3.org/Graphics/SVG/1.1/DTD/svg11.dtd" >
<svg xmlns="http://www.w3.org/2000/svg" xmlns:xlink="http://www.w3.org/1999/xlink" version="1.1" viewBox="0 -410 2048 2048">
  <g transform="matrix(1 0 0 -1 0 1638)">
   <path fill="currentColor"
d="M1250 898l95 -19q85 -17 85 -46q0 -25 -50 -41l-41 -14l-2 -105h356l98 102l121 -107q17 -15 17 -26q0 -26 -27 -26h-565v-270q0 -103 11 -209q3 -31 3 -50q0 -46 -56 -46q-55 0 -55 42v533h-291q-68 0 -149 -11l-39 86q121 -18 188 -18h291v70q0 116 -8 155h-272v-24
q0 -32 -47 -32q-59 0 -59 59q0 7 4 80l2 97l4 110v464q-6 67 -8 126l120 -80h103q52 133 72 222l134 -45q33 -11 33 -30q0 -24 -27 -27l-59 -7q-36 -50 -95 -113h515l68 76l84 -54q40 -26 40 -49q0 -16 -12 -26q-10 -9 -68 -38v-472q0 -28 2 -82q3 -53 3 -77q1 -30 1 -38
q2 -37 2 -49q0 -49 -67 -49q-37 0 -37 28v30h-418zM960 952h708v202h-708v-202zM960 1210h708v196h-708v-196zM960 1460h708v184h-708v-184zM1509 507q358 -168 358 -309q0 -25 -17 -43q-16 -16 -38 -16q-32 0 -72 72q-62 111 -137 177q-18 16 -115 84zM975 539l104 -68
q43 -27 43 -47q0 -27 -36 -27q-6 0 -14 1l-56 8q-173 -215 -387 -304l-21 33q120 85 209 178q74 77 158 226zM323 1882l109 -24q86 -19 86 -45q0 -28 -50 -42l-42 -12v-435h68l98 101l121 -104q17 -15 17 -27q0 -28 -28 -28h-276v-642q125 42 284 116l21 -39
q-262 -175 -522 -281l-10 -52q-6 -31 -22 -31q-21 0 -44 49l-58 121q95 19 256 78v681h-89q-63 0 -148 -11l-39 86q121 -17 187 -17h89v398q0 118 -8 160z" />
  </g>

</svg>
