<?xml version="1.0" standalone="no"?>
<!DOCTYPE svg PUBLIC "-//W3C//DTD SVG 1.1//EN" "http://www.w3.org/Graphics/SVG/1.1/DTD/svg11.dtd" >
<svg xmlns="http://www.w3.org/2000/svg" xmlns:xlink="http://www.w3.org/1999/xlink" version="1.1" viewBox="0 -204 1024 1024">
  <g transform="matrix(1 0 0 -1 0 820)">
   <path fill="currentColor"
d="M218 973q56 -21 98 -38q7 -8 7 -14q0 -13 -21 -18q-23 -4 -35 -4q-18 -101 -42 -194q-1 -6 -2 -8q3 1 5 1q78 14 142 30q2 32 2 61q0 21 -2 38q48 -6 84 -18q12 -2 12 -12q0 -7 -17 -17q-19 -9 -28 -12q-8 -124 -35 -220q-29 -119 -74 -210q-3 -4 -5 -8q27 -20 46 -39
q41 -37 57 -57q12 -14 16 -33q5 -17 5 -34q0 -23 -19 -23q-6 0 -27 27q-14 28 -69 82q-16 19 -31 35q-36 -65 -72 -108q-58 -72 -147 -136l-19 26q93 72 148 147q30 42 59 97q-21 18 -40 29q-49 39 -101 57q-9 5 -14 7l1 2l-9 5q32 79 52 147q11 37 21 78q-26 -6 -48 -12
q-16 -37 -23 -37q-3 0 -7 6q-24 40 -43 87q68 0 132 8q0 4 1 6q17 75 28 141q9 59 14 135zM271 352q8 14 12 25q41 91 67 215q11 57 18 114q-54 -23 -106 -37l-51 -17q-16 -59 -35 -107q-21 -60 -51 -120q73 -22 126 -59q10 -8 20 -14zM581 980q52 -17 90 -35q6 -7 6 -12
q0 -11 -20 -15q-21 -3 -31 -3q-22 -69 -48 -128h316l32 32q32 -15 53 -36q7 -9 7 -17q0 -14 -40 -29q0 -162 -12 -349q-13 -184 -34 -250q-9 -39 -27 -56q-11 -14 -28 -26q-28 -16 -62 -16q-2 15 -10 26q-4 7 -18 14q-33 11 -112 29l6 23q136 -30 158 -30q16 0 29 11
q12 11 18 30q7 22 16 67q12 67 21 211q6 147 7 338h-334q-20 -49 -46 -88q-31 -48 -76 -100l-18 14q38 55 63 104q22 44 41 98q20 52 34 98q11 43 19 95zM504 598q44 -11 117 -11h55l44 49q36 -28 67 -52q9 -5 9 -13q0 -13 -16 -13h-159q-71 -2 -98 -7zM468 394
q44 -12 117 -12h114l44 49q36 -26 68 -51q8 -5 8 -11q0 -15 -14 -15h-220q-72 -2 -98 -7z" />
  </g>

</svg>
