<?xml version="1.0" standalone="no"?>
<!DOCTYPE svg PUBLIC "-//W3C//DTD SVG 1.1//EN" "http://www.w3.org/Graphics/SVG/1.1/DTD/svg11.dtd" >
<svg xmlns="http://www.w3.org/2000/svg" xmlns:xlink="http://www.w3.org/1999/xlink" version="1.1" viewBox="0 -204 1024 1024">
  <g transform="matrix(1 0 0 -1 0 820)">
   <path fill="currentColor"
d="M344 754q44 -12 117 -12h5v148q0 50 -6 74q54 -7 90 -21q12 -4 12 -13t-12 -12q-18 -9 -40 -11v-165h18l41 45q34 -25 64 -49q7 -4 7 -10q0 -14 -14 -14h-116v-57q29 -32 51 -62q28 -35 43 -62q16 -24 24 -41q5 -17 9 -32q3 -13 3 -28q-1 -32 -24 -32q-6 0 -11 6
q-4 8 -22 61q-18 51 -39 93q-14 28 -34 58v-496q0 -21 1 -29v-26q0 -31 -27 -31q-25 0 -25 16q0 19 3 50q4 31 4 55v435q-1 -2 -1 -3q-18 -64 -41 -117q-20 -50 -45 -100q-26 -47 -63 -100l-12 16q32 59 54 114q21 51 39 113q16 51 28 110q10 47 17 88q-56 -2 -78 -6z
M652 754q44 -12 117 -12h7v142q0 54 -6 80q59 -7 97 -23q13 -4 13 -14t-13 -13q-19 -10 -43 -12v-160h48l41 45q34 -25 64 -49q7 -4 7 -10q0 -14 -14 -14h-133q13 -82 30 -147q17 -67 39 -130q21 -60 43 -102q20 -39 39 -56l-3 -17q-49 0 -65 -30q-17 35 -30 81
q-16 52 -27 108q-12 54 -24 119q-8 39 -15 90v-500q0 -23 1 -31v-29q0 -34 -30 -34q-26 0 -26 18q0 20 3 54q4 34 4 60v426q-3 -11 -6 -19q-23 -72 -52 -131q-25 -54 -56 -110q-32 -51 -78 -110l-12 16q42 65 71 126q28 57 51 126q22 57 37 122q14 53 22 99q-58 -2 -81 -6z
M163 972q56 -20 98 -38q6 -8 6 -14q0 -12 -20 -17q-24 -4 -35 -4q-14 -97 -33 -185l-6 -29h1q48 5 87 11q3 40 3 76q0 22 -2 40q48 -7 84 -19q12 -3 12 -13q0 -7 -17 -16q-18 -9 -28 -12q-6 -122 -24 -217q-18 -108 -46 -191q11 -12 20 -25q31 -35 41 -56q10 -13 13 -33
q4 -16 4 -34q0 -24 -21 -24q-5 0 -19 27q-12 27 -52 81q-4 5 -6 9q-28 -69 -55 -115q-40 -72 -102 -134l-18 25q62 72 98 146q26 50 47 117q-21 25 -40 42q-40 41 -85 62l4 5q22 76 37 142l10 50l-12 -3q-14 -33 -21 -33q-3 0 -7 7q-21 36 -39 79q45 0 88 3q3 14 5 27
l19 133q7 58 11 130zM208 377q25 89 42 202q7 48 10 92q-28 -10 -55 -18q-22 -7 -42 -13q-10 -44 -21 -79q-17 -55 -39 -112q47 -22 83 -55q12 -8 22 -17z" />
  </g>

</svg>
