<?xml version="1.0" standalone="no"?>
<!DOCTYPE svg PUBLIC "-//W3C//DTD SVG 1.1//EN" "http://www.w3.org/Graphics/SVG/1.1/DTD/svg11.dtd" >
<svg xmlns="http://www.w3.org/2000/svg" xmlns:xlink="http://www.w3.org/1999/xlink" version="1.1" viewBox="0 -204 1024 1024">
  <g transform="matrix(1 0 0 -1 0 820)">
   <path fill="currentColor"
d="M406 973l63 -31h430l36 34q50 -37 50 -50q0 -10 -30 -26v-110q0 -24 1 -30q1 -8 1 -18q0 -20 -33 -25q-17 0 -17 9v21h-451v-9q0 -10 -13 -16q-15 -5 -24 -5q-13 0 -13 13q0 4 1 15q1 22 1 42v117q0 49 -2 69zM456 774h115v141h-115v-141zM620 774h119v141h-119v-141z
M787 774h120v141h-120v-141zM456 706l60 -43h322l33 42q37 -24 56 -43q7 -8 7 -14q0 -9 -38 -31v-231q0 -74 2 -97q1 -29 1 -46t-10 -25q-16 -6 -25 -6q-16 0 -16 13v33h-247q31 -16 51 -32q4 -3 4 -10q0 -9 -17 -9q-13 0 -32 2q-39 -42 -81 -69q-41 -31 -81 -53
q-49 -28 -97 -43l-12 23q73 34 121 68q50 34 79 65q24 26 43 58h-71v-34q0 -12 -16 -12q-10 0 -24 6q-12 9 -12 25q0 17 3 47q4 21 4 96v249q0 41 -7 71zM508 287h340v99h-340v-99zM508 415h340v92h-340v-92zM508 535h340v100h-340v-100zM752 241q49 -18 98 -43
q48 -29 74 -47q23 -23 32 -35q11 -16 17 -30q3 -10 3 -23q0 -23 -21 -23q-5 0 -14 8q-7 7 -19 24q-21 23 -37 41q-23 18 -52 42q-34 27 -94 65zM301 699q2 32 2 62q0 21 -2 40q48 -7 84 -20q12 -3 12 -13q0 -6 -16 -15q-20 -11 -29 -13q-7 -118 -27 -209q-24 -105 -56 -184
q25 -20 41 -43q34 -38 46 -59q12 -15 16 -35q4 -16 4 -36q0 -21 -21 -21q-6 0 -21 27q-13 29 -56 86q-16 21 -28 35q-36 -74 -71 -123q-48 -69 -122 -130l-17 26q76 69 120 141q30 50 58 121q-13 13 -28 25q-44 44 -95 65l6 8q23 75 36 140q5 29 13 62q-23 -5 -45 -9
q-13 -33 -20 -33q-2 0 -6 6q-22 36 -39 79q58 0 118 5q1 10 3 22q10 71 19 135q6 58 10 132q57 -21 99 -38q6 -8 6 -14q0 -13 -21 -18q-23 -4 -34 -4q-15 -97 -32 -188q-2 -14 -4 -23q52 5 97 11zM130 440q53 -22 94 -58q5 -3 9 -6q32 86 54 195q9 57 12 106
q-36 -12 -73 -22q-16 -5 -31 -8q-14 -51 -25 -92q-16 -57 -40 -115z" />
  </g>

</svg>
