<?xml version="1.0" standalone="no"?>
<!DOCTYPE svg PUBLIC "-//W3C//DTD SVG 1.1//EN" "http://www.w3.org/Graphics/SVG/1.1/DTD/svg11.dtd" >
<svg xmlns="http://www.w3.org/2000/svg" xmlns:xlink="http://www.w3.org/1999/xlink" version="1.1" viewBox="0 -410 2048 2048">
  <g transform="matrix(1 0 0 -1 0 1638)">
   <path fill="currentColor"
d="M944 1503q-10 -126 -47 -209q-39 -88 -145 -173l-28 28q129 127 129 414v131q0 61 -5 151l104 -74q165 26 313 143l114 -88q18 -13 18 -27q0 -21 -27 -22h-3h-1l-69 10q-173 -44 -345 -60q-3 -87 -3 -167h210l80 81l114 -86q17 -13 17 -26q0 -26 -27 -26h-119v-285
q0 -44 -61 -44q-35 0 -35 23v306h-184zM1467 331q498 -115 498 -234q0 -52 -49 -52q-29 0 -66 33q-147 133 -394 217zM1537 1560h240l80 81l114 -86q16 -13 16 -26q0 -26 -27 -26h-140v-285q0 -44 -62 -44q-36 0 -36 23v306h-191q-30 -176 -81 -246q-54 -75 -158 -140
l-21 27q123 106 151 244q18 92 18 351q0 41 -4 112l105 -74q165 26 313 143l114 -88q17 -13 17 -28q0 -22 -25 -22q-2 0 -5 1l-69 9q-167 -41 -345 -59v-71q0 -36 -4 -102zM508 573q228 -166 228 -265q0 -32 -21 -51q-11 -11 -26 -11q-18 0 -36 15q-7 5 -73 104
q-31 45 -116 125q-150 -267 -371 -433l-26 39q197 188 328 452q-96 66 -270 152q32 107 48 160q58 193 97 407q-43 -4 -83 -11q-3 -11 -5 -16q-15 -55 -33 -55q-16 0 -46 65l-44 97q119 2 228 9q60 339 66 539l129 -34q72 -18 72 -50q0 -27 -46 -34l-57 -8
q-30 -181 -35 -216q-17 -125 -31 -189q100 7 208 18q1 69 1 102q0 35 -1 103l145 -27q44 -9 44 -34q0 -23 -34 -33l-49 -15l-8 -85q41 5 79 9l7 -38q-45 -15 -86 -27q-31 -284 -64 -423q-41 -168 -119 -341zM430 624q123 286 159 692q-112 -22 -221 -36q-66 -269 -173 -547
q59 -26 89 -38q97 -41 146 -71zM1163 408h-145v-39q0 -13 -19 -24q-23 -13 -51 -13t-28 24v792l122 -72h664l68 76l84 -54q40 -26 40 -49q0 -28 -78 -61v-598q0 -57 -69 -57q-29 0 -29 15v60h-532l90 -63q30 -20 30 -34q0 -26 -37 -26h-4l-59 8q-288 -211 -497 -246l-13 35
q19 9 28 13q278 119 435 313zM1722 612h-704v-149h704v149zM1722 819h-704v-152h704v152zM1018 876h704v145h-704v-145z" />
  </g>

</svg>
