<?xml version="1.0" standalone="no"?>
<!DOCTYPE svg PUBLIC "-//W3C//DTD SVG 1.1//EN" "http://www.w3.org/Graphics/SVG/1.1/DTD/svg11.dtd" >
<svg xmlns="http://www.w3.org/2000/svg" xmlns:xlink="http://www.w3.org/1999/xlink" version="1.1" viewBox="0 -410 2048 2048">
  <g transform="matrix(1 0 0 -1 0 1638)">
   <path fill="currentColor"
d="M1404 1542h319l98 101l121 -106q17 -15 17 -26q0 -26 -27 -26h-203q-33 -267 -74 -429q-56 -221 -131 -365q-34 -65 -108 -174q239 -251 575 -356l-3 -33q-55 -1 -81 -22q-15 -13 -39 -56q-171 93 -279 173q-103 77 -231 223q-248 -266 -591 -420l-23 35q194 113 326 224
q105 88 233 232q-118 199 -174 371q-68 208 -94 446l41 8q63 -469 279 -757q122 184 187 424q49 177 79 442l4 34h-461q-118 0 -192 -7l-38 87q96 -23 230 -23h191q-18 16 -22 43q-30 159 -124 293l31 28q189 -183 189 -295q0 -39 -25 -69zM252 517h168v1227q0 117 -8 160
l110 -24q85 -19 85 -44q0 -31 -49 -43l-43 -11v-1265h187v923q0 119 -7 160l108 -24q86 -19 86 -44q0 -30 -50 -43l-41 -11v-796q0 -109 11 -209q3 -31 3 -50q0 -46 -56 -46q-54 0 -54 42v42h-450q-22 -14 -44 -14q-51 0 -51 38v955q0 115 -7 160l109 -24q85 -19 85 -44
q0 -31 -49 -43l-43 -11v-961z" />
  </g>

</svg>
