<?xml version="1.0" standalone="no"?>
<!DOCTYPE svg PUBLIC "-//W3C//DTD SVG 1.1//EN" "http://www.w3.org/Graphics/SVG/1.1/DTD/svg11.dtd" >
<svg xmlns="http://www.w3.org/2000/svg" xmlns:xlink="http://www.w3.org/1999/xlink" version="1.1" viewBox="0 -410 2048 2048">
  <g transform="matrix(1 0 0 -1 0 1638)">
   <path fill="currentColor"
d="M1773 1793l68 76l84 -54q40 -26 40 -48q0 -29 -77 -62v-1485q0 -143 -159 -171q-2 66 -43 93q-32 21 -159 44l8 46q167 -28 200 -28q57 0 57 58v1473h-790v-1678q0 -30 -49 -30q-55 0 -55 45q0 2 1 58q7 159 7 240v1373q-7 98 -16 138l122 -88h761zM1117 1662
q91 -86 144 -150q56 -69 56 -128q0 -46 -40 -75h112q94 171 147 353l124 -54q37 -17 37 -38q0 -25 -43 -28l-46 -4q-31 -44 -97 -136q-38 -53 -67 -93h103l80 80l114 -86q17 -13 17 -26q0 -27 -28 -27h-295v-701h123v344q0 117 -7 159l109 -24q86 -18 86 -44q0 -30 -50 -43
l-42 -11v-390q1 -32 2 -48q6 -69 6 -86q0 -54 -61 -54q-43 0 -43 36v106h-326q-46 -12 -68 -12q-42 0 -42 49q0 6 1 20v364q0 115 -8 160l105 -23q85 -19 85 -46q0 -29 -49 -43l-41 -11v-403h121v701h-110q-68 0 -149 -11l-40 86q112 -16 164 -16h38q-23 18 -33 80
q-18 105 -118 252zM254 498h150v1254q0 118 -8 160l109 -24q87 -19 87 -46q0 -28 -51 -42l-41 -11v-1291h160v950q0 121 -8 160l109 -24q85 -19 85 -45q0 -29 -49 -43l-41 -11v-822q0 -104 11 -209q4 -31 4 -50q0 -46 -57 -46q-54 0 -54 42v42h-407q-22 -14 -45 -14
q-21 0 -37 8q-13 7 -13 42v970q0 118 -8 160l109 -24q84 -19 84 -45q0 -29 -48 -43l-41 -11v-987z" />
  </g>

</svg>
