<?xml version="1.0" standalone="no"?>
<!DOCTYPE svg PUBLIC "-//W3C//DTD SVG 1.1//EN" "http://www.w3.org/Graphics/SVG/1.1/DTD/svg11.dtd" >
<svg xmlns="http://www.w3.org/2000/svg" xmlns:xlink="http://www.w3.org/1999/xlink" version="1.1" viewBox="0 -410 2048 2048">
  <g transform="matrix(1 0 0 -1 0 1638)">
   <path fill="currentColor"
d="M1138 1287q358 283 513 607l109 -58q45 -23 45 -46q0 -25 -41 -25h-52l-42 -57q-180 -244 -392 -421h399l99 102l120 -107q17 -15 17 -26q0 -26 -27 -26h-678q-296 -221 -692 -345l87 -60h448v92q0 112 -8 160l109 -24q85 -19 85 -46q0 -22 -49 -41l-42 -17v-124h472
l68 76l84 -54q40 -26 40 -49q0 -24 -76 -61v-405q0 -142 -155 -171q-12 70 -47 93q-33 21 -159 43l8 46q169 -27 200 -27q57 0 57 57v398h-492v-437q0 -104 12 -209q3 -31 3 -50q0 -46 -56 -46q-54 0 -54 42v700h-464v-576q0 -42 -52 -42q-55 0 -55 41q0 9 2 29
q10 88 10 212v289q-2 85 -8 151q-165 -51 -423 -98l-12 41q633 131 1016 412h-729q-117 0 -192 -8l-38 88q97 -23 230 -23h500v312h-320q-118 0 -193 -8l-38 88q97 -23 231 -23h320v93q0 122 -8 159l109 -24q86 -19 86 -45q0 -28 -50 -42l-41 -11v-130h271l99 102l109 -107
q16 -16 16 -26q0 -26 -27 -26h-468v-312h206z" />
  </g>

</svg>
