<?xml version="1.0" standalone="no"?>
<!DOCTYPE svg PUBLIC "-//W3C//DTD SVG 1.1//EN" "http://www.w3.org/Graphics/SVG/1.1/DTD/svg11.dtd" >
<svg xmlns="http://www.w3.org/2000/svg" xmlns:xlink="http://www.w3.org/1999/xlink" version="1.1" viewBox="0 -410 2048 2048">
  <g transform="matrix(1 0 0 -1 0 1638)">
   <path fill="currentColor"
d="M1297 1694h189v76q0 120 -8 160l106 -24q84 -19 84 -45q0 -29 -49 -42l-42 -12v-113h179l92 94l118 -99q17 -15 17 -26q0 -27 -27 -27h-379v-166h170l66 76l82 -54q39 -26 39 -49q0 -27 -75 -61v-315q0 -50 5 -106q3 -24 3 -36q0 -55 -68 -55q-37 0 -37 16v45h-733v-27
q0 -38 -63 -38q-38 0 -38 38q0 6 3 116l3 58v307q0 30 -11 161l129 -76h154v166h-165q-114 0 -187 -8l-37 88q92 -22 224 -22h165v72q0 119 -7 160l104 -24q83 -19 83 -45q0 -29 -48 -42l-41 -11v-110zM1486 1636h-189v-166h189v166zM1206 987v189h-177v-189h177zM1297 987
h189v189h-189v-189zM1577 987h185v189h-185v-189zM1029 1234h177v179h-177v-179zM1297 1234h189v179h-189v-179zM1577 1234h185v179h-185v-179zM1630 734l67 75l82 -53q38 -25 38 -49q0 -28 -75 -61v-376q2 -104 3 -117q4 -41 4 -56q0 -59 -69 -59q-31 0 -31 22v89h-523v-68
q0 -43 -67 -43q-35 0 -35 35l9 197v382q0 68 -14 157l130 -75h481zM1126 205h523v216h-523v-216zM1126 478h523v198h-523v-198zM658 1508l57 75l72 -51q49 -34 49 -50q0 -19 -45 -45l-27 -17v-768q0 -159 -145 -170q0 46 -12 66q-15 30 -67 39l5 45q52 -6 67 -6q62 0 62 56
v768h-161v-1087q0 -95 10 -218q4 -43 4 -64q0 -60 -63 -60q-44 0 -44 37v1392h-155v-982q-16 -30 -44 -30q-55 0 -55 66l8 282v675q-2 74 -16 135l120 -88h142v240q0 120 -8 160l112 -24q85 -18 85 -47q0 -21 -49 -41l-47 -18v-270h145z" />
  </g>

</svg>
