<?xml version="1.0" standalone="no"?>
<!DOCTYPE svg PUBLIC "-//W3C//DTD SVG 1.1//EN" "http://www.w3.org/Graphics/SVG/1.1/DTD/svg11.dtd" >
<svg xmlns="http://www.w3.org/2000/svg" xmlns:xlink="http://www.w3.org/1999/xlink" version="1.1" viewBox="0 -410 2048 2048">
  <g transform="matrix(1 0 0 -1 0 1638)">
   <path fill="currentColor"
d="M1186 458h245l80 81l114 -86q17 -13 17 -26q0 -26 -27 -26h-429v-71q0 -97 12 -209q3 -32 3 -51q0 -45 -47 -45q-68 0 -68 47v329h-276q-66 0 -148 -11l-40 86q122 -18 188 -18h276v613q-123 -213 -303 -365q-98 -84 -181.5 -136t-241.5 -131l-22 37q294 175 458 356
q147 162 225 353h-385q-68 0 -149 -11l-39 86q125 -16 188 -16h452v131q0 116 -8 160l109 -24q86 -19 86 -45q0 -28 -49 -42l-40 -11v-169h445l108 113l131 -113q23 -20 23 -33q0 -26 -27 -26h-674q148 -220 324 -382q141 -130 288 -212q62 -34 183 -75l-4 -34q-56 0 -77 -7
q-34 -11 -63 -58q-134 76 -294 223q-187 173 -325 408q-17 30 -38 63v-653zM946 1934q86 -52 141 -103q53 -50 53 -107q0 -28 -19 -61h567l109 114l130 -114q24 -20 24 -32q0 -24 -27 -24h-1581v-516q0 -96 -13 -288q-17 -240 -38 -335q-37 -172 -100 -287
q-33 -62 -107 -162l-29 28q111 189 150 435q42 267 42 639v342q0 24 -7 214q0 19 -1 58l109 -72h705q-35 126 -134 241z" />
  </g>

</svg>
