<?xml version="1.0" standalone="no"?>
<!DOCTYPE svg PUBLIC "-//W3C//DTD SVG 1.1//EN" "http://www.w3.org/Graphics/SVG/1.1/DTD/svg11.dtd" >
<svg xmlns="http://www.w3.org/2000/svg" xmlns:xlink="http://www.w3.org/1999/xlink" version="1.1" viewBox="0 -120 1000 1000">
  <g transform="matrix(1 0 0 -1 0 880)">
   <path fill="currentColor"
d="M308 908l69 -41q13 -8 13 -15q0 -8 -16 -13l-23 -6v-234l-62 -12v55h-123l-20 -172h143l23 39l59 -44q11 -8 11 -15q0 -6 -12 -8l-15 -3v-142q0 -133 -61 -196q-41 -42 -98 -42q-19 0 -19 14v15q0 10 -10 13l-70 17v16h145q23 31 33 54q18 45 18 117v138h-150l-7 -55h-62
l6 43q24 162 37 281l61 -43h111v176h-223l-12 27h231zM457 939l75 -8q18 -2 18 -11q0 -7 -15 -13l-20 -7v-74q147 30 278 89l59 -48q7 -6 7 -13q0 -9 -11 -9q-6 0 -12 2l-24 6q-142 -33 -297 -49v-49q0 -15 24 -15h281q30 0 39 22l31 75h12v-78q0 -18 27 -27q-6 -21 -22 -30
q-20 -13 -71 -13h-289q-46 0 -64 9q-26 13 -26 50v191zM527 654l63 -28h193l21 31l64 -38q11 -6 11 -12q0 -7 -12 -10l-20 -6v-293l-58 -12v28h-203v-32l-59 -11v383zM586 341h203v70h-203v-70zM586 438h203v67h-203v-67zM586 532h203v67h-203v-67zM406 634l72 -12
q14 -2 14 -11t-12 -12l-16 -4v-352h368l43 51l74 -58v-20h-485v-27l-58 -8v453zM554 204l61 -40q10 -7 10 -14q0 -12 -19 -12h-28q-103 -56 -231 -94l-5 13q81 44 116 67q56 37 96 80zM707 173l8 16q91 -20 148 -45q42 -18 56 -32q15 -15 15 -35q0 -33 -27 -33q-16 0 -38 22
q-63 64 -162 107z" />
  </g>

</svg>
