<?xml version="1.0" standalone="no"?>
<!DOCTYPE svg PUBLIC "-//W3C//DTD SVG 1.1//EN" "http://www.w3.org/Graphics/SVG/1.1/DTD/svg11.dtd" >
<svg xmlns="http://www.w3.org/2000/svg" xmlns:xlink="http://www.w3.org/1999/xlink" version="1.1" viewBox="0 -120 1000 1000">
  <g transform="matrix(1 0 0 -1 0 880)">
   <path fill="currentColor"
d="M250 943l69 -49q9 -6 9 -13q0 -9 -16 -9h-32q-56 -70 -97 -107q-46 -42 -125 -92l-12 16q72 65 114 119q36 44 90 135zM268 751l75 -53q8 -6 8 -11q0 -10 -18 -10h-34q-34 -57 -82 -123l26 -4q20 -4 20 -15q0 -8 -16 -16l-14 -6v-457l-63 -12v455q-64 -64 -119 -106
l-12 16q58 63 78 89q84 110 151 253zM425 908l12 15q46 -25 69 -41q40 -31 40 -63q0 -15 -8 -26q-10 -11 -24 -11q-12 0 -17 7q-3 5 -9 21q-21 54 -63 98zM718 943l72 -41q10 -5 10 -14q0 -11 -15 -13l-24 -3l-91 -101h130l24 39l63 -41q15 -10 15 -17q0 -9 -16 -14l-19 -6
v-184l-63 -12v43h-164v-136h207l28 43l65 -43q17 -11 17 -20q0 -10 -17 -17l-18 -6q-11 -95 -16 -122q-17 -83 -63 -113q-29 -20 -59 -20q-14 0 -15 14q0 22 -1 26q-2 11 -18 15l-63 16v16h121q26 25 36 70q8 33 15 113h-219v-359l-62 -12v319q-84 -100 -157 -158
q-61 -49 -148 -98l-7 12q91 70 152 139q54 60 118 157h-133l-5 -54h-66q17 141 31 285l63 -39h152v136h-235l-11 28h312zM640 743v-136h164v136h-164zM578 443v136h-162l-11 -136h173z" />
  </g>

</svg>
