<?xml version="1.0" standalone="no"?>
<!DOCTYPE svg PUBLIC "-//W3C//DTD SVG 1.1//EN" "http://www.w3.org/Graphics/SVG/1.1/DTD/svg11.dtd" >
<svg xmlns="http://www.w3.org/2000/svg" xmlns:xlink="http://www.w3.org/1999/xlink" version="1.1" viewBox="0 -410 2048 2048">
  <g transform="matrix(1 0 0 -1 0 1638)">
   <path fill="currentColor"
d="M471 1549q118 -72 158 -110q97 -93 97 -170q0 -39 -28 -60q-12 -9 -26 -9q-12 0 -21 6q-24 17 -57 110q-35 95 -123 175v-1155q0 -60 10 -181q4 -42 4 -65q0 -59 -63 -59q-46 0 -46 51v1677q0 115 -8 160l117 -24q85 -18 85 -48q0 -38 -50 -49l-49 -12v-237zM221 1565
l43 -4v-51q0 -226 -36 -323q-46 -123 -121 -123q-46 0 -46 48q0 34 49 93q71 85 92 198q10 48 19 162zM1362 1518q-17 30 -34 98q-27 112 -162 264l24 26q260 -189 260 -316q0 -43 -27 -72h321l99 102l120 -107q17 -15 17 -26q0 -26 -27 -26h-759q0 -130 -8 -356h497l69 76
l83 -55q40 -25 40 -48q0 -28 -77 -62q-4 -48 -11 -219q-19 -436 -77 -591q-33 -89 -117 -123q-38 -16 -122 -30q-2 59 -36 79q-11 7 -201 65l8 38q45 -9 159 -34q79 -18 128 -18q50 0 73 36q51 80 77 414q18 246 19 415h-512q-32 -391 -180 -625q-100 -158 -222 -255
q-50 -40 -141 -100l-22 30q196 177 281 313q157 253 184 635q13 183 13 415h-140q-66 0 -149 -11l-39 85q122 -17 188 -17h403z" />
  </g>

</svg>
