<?xml version="1.0" standalone="no"?>
<!DOCTYPE svg PUBLIC "-//W3C//DTD SVG 1.1//EN" "http://www.w3.org/Graphics/SVG/1.1/DTD/svg11.dtd" >
<svg xmlns="http://www.w3.org/2000/svg" xmlns:xlink="http://www.w3.org/1999/xlink" version="1.1" viewBox="0 -410 2048 2048">
  <g transform="matrix(1 0 0 -1 0 1638)">
   <path fill="currentColor"
d="M1635 1341l68 76l83 -54q40 -26 40 -49q0 -28 -77 -61v-1057h24l98 102l121 -107q17 -15 17 -26q0 -26 -27 -26h-1157q-96 0 -184 -9l-39 88q94 -22 208 -22h35v1095q-2 79 -16 140l134 -90h220l42 252h-309q-113 0 -192 -8l-38 88q96 -21 230 -21h320l21 130
q9 58 15 117l129 -27q44 -9 44 -29q0 -22 -44 -36l-37 -11l-27 -144h390l98 101l121 -106q16 -15 16 -27q0 -27 -27 -27h-610l-49 -252h359zM1647 1047v236h-706v-236h706zM1647 759v234h-706v-234h706zM1647 478v223h-706v-223h706zM1647 196v224h-706v-224h706zM453 1547
q258 -158 258 -310q0 -70 -56 -70q-23 0 -37 18q-14 16 -44 126q-22 78 -121 178v-1158q0 -60 10 -181q4 -42 4 -64q0 -60 -63 -60q-46 0 -46 51v1677q0 114 -8 160l117 -24q85 -17 85 -48t-52 -47l-47 -14v-234zM198 1554h42q4 -83 4 -129q0 -149 -27 -246
q-35 -126 -111 -126q-53 0 -53 50q0 31 47 87q93 114 98 364z" />
  </g>

</svg>
