<?xml version="1.0" standalone="no"?>
<!DOCTYPE svg PUBLIC "-//W3C//DTD SVG 1.1//EN" "http://www.w3.org/Graphics/SVG/1.1/DTD/svg11.dtd" >
<svg xmlns="http://www.w3.org/2000/svg" xmlns:xlink="http://www.w3.org/1999/xlink" version="1.1" viewBox="0 -410 2048 2048">
  <g transform="matrix(1 0 0 -1 0 1638)">
   <path fill="currentColor"
d="M1130 397l102 -65q34 -21 34 -34q0 -27 -46 -27h-50q-21 -13 -96 -64q-172 -116 -436 -165l-12 38q162 50 302 149q116 82 180 168h-128v-44q0 -37 -52 -37q-64 0 -60 55l4 62l4 80l4 77v391q0 85 -13 177l122 -90h670l68 76l87 -54q41 -25 41 -48q0 -28 -78 -61v-377
q0 -58 11 -226q1 -8 1 -13q0 -47 -75 -47q-35 0 -35 26v53h-549zM1679 867v144h-699v-144h699zM1679 662v151h-699v-151h699zM1679 604h-699v-151h699v151zM445 1539q58 -36 109 -84q118 -110 118 -209q0 -72 -55 -72q-29 0 -47 35q-5 10 -26 97q-19 79 -99 167v-1146
q0 -100 12 -209q3 -31 3 -50q0 -46 -57 -46q-54 0 -54 41v1687q0 114 -7 160l110 -24q85 -19 85 -45q0 -28 -49 -42l-43 -11v-249zM218 1560l43 -4v-50q0 -217 -36 -322q-27 -77 -76 -109q-25 -16 -44 -16q-47 0 -47 48q0 33 49 93q68 82 91 194q10 47 20 166zM1367 1653
v-152h246l80 81l114 -86q17 -13 17 -26q0 -26 -39 -26h-418v-156h384l99 102l120 -107q17 -15 17 -25q0 -27 -27 -27h-1040q-109 0 -192 -8l-39 88q93 -23 231 -23h352v156h-226q-69 0 -149 -11l-39 86q125 -18 188 -18h226v152h-337q-67 0 -148 -11l-39 86q121 -18 187 -18
h337v50q0 123 -9 160l109 -24q86 -19 86 -45q0 -28 -50 -43l-41 -11v-87h357l80 81l114 -86q16 -13 16 -26q0 -26 -38 -26h-529zM1414 343q39 -11 58 -17q453 -129 453 -234q0 -33 -27 -51q-12 -7 -25 -7q-31 0 -88 55q-119 116 -385 218z" />
  </g>

</svg>
