<?xml version="1.0" standalone="no"?>
<!DOCTYPE svg PUBLIC "-//W3C//DTD SVG 1.1//EN" "http://www.w3.org/Graphics/SVG/1.1/DTD/svg11.dtd" >
<svg xmlns="http://www.w3.org/2000/svg" xmlns:xlink="http://www.w3.org/1999/xlink" version="1.1" viewBox="0 -410 2048 2048">
  <g transform="matrix(1 0 0 -1 0 1638)">
   <path fill="currentColor"
d="M992 520v293h-91q-117 0 -192 -8l-38 88q95 -23 230 -23h91v64q0 117 -8 159l106 -24q73 -16 73 -44q0 -26 -47 -43l-30 -11v-101h388v64q0 118 -8 159l102 -24q73 -17 73 -44q0 -21 -47 -43l-22 -11v-101h100l98 101l122 -106q16 -15 16 -26q0 -26 -27 -26h-309v-293
h188l98 102l121 -107q17 -16 17 -26q0 -26 -27 -26h-1132q-109 0 -192 -8l-39 88q96 -23 231 -23h155zM1086 813v-293h388v293h-388zM1464 414q39 -15 155 -60q150 -58 275 -163q64 -53 64 -106q0 -35 -28 -53q-10 -7 -21 -7q-33 0 -88 71q-130 168 -373 279zM830 1441v-245
q197 45 432 140l10 -35q-144 -97 -433 -211q-9 -72 -29 -72t-42 46l-52 109l20 3v571l-4 120l107 -71h273l62 71l72 -49q42 -29 42 -50q0 -15 -65 -52v-198q51 -36 51 -57q0 -20 -25 -20h-419zM830 1738v-243h298v243h-298zM1464 1441v-163q0 -46 40 -57q33 -9 174 -9
q126 0 195 20q27 8 41 8q23 0 42 -25q18 -23 18 -41q0 -52 -295 -52q-194 0 -249 22q-61 25 -61 113v551l-4 92l109 -104h279l61 71l73 -49q42 -29 42 -50q0 -16 -65 -52v-196q48 -36 48 -58q0 -21 -17 -21h-431zM1464 1738v-243h305v243h-305zM1040 453l118 -74
q33 -21 33 -35q0 -27 -46 -27h-49q-19 -15 -86 -73q-135 -118 -388 -192l-19 44q160 61 297 186q98 89 140 171zM440 1563q224 -148 224 -292q0 -71 -55 -71q-29 0 -47 35q-5 10 -27 89q-27 96 -95 171v-1146q0 -100 12 -209q3 -31 3 -50q0 -46 -57 -46q-54 0 -54 42v1687
q0 119 -7 159l110 -24q85 -18 85 -44q0 -30 -49 -43l-43 -11v-247zM205 1583l43 -4v-51q0 -217 -36 -322q-27 -77 -76 -109q-25 -16 -44 -16q-47 0 -47 48q0 34 49 93q68 82 91 194q10 48 20 167z" />
  </g>

</svg>
