<?xml version="1.0" standalone="no"?>
<!DOCTYPE svg PUBLIC "-//W3C//DTD SVG 1.1//EN" "http://www.w3.org/Graphics/SVG/1.1/DTD/svg11.dtd" >
<svg xmlns="http://www.w3.org/2000/svg" xmlns:xlink="http://www.w3.org/1999/xlink" version="1.1" viewBox="0 -140 1000 1000">
  <g transform="matrix(1 0 0 -1 0 860)">
   <path fill="currentColor"
d="M770 357l26 37q8 11 19 11q16 0 25 -11h-1l42 -45l-9 -13h-341v-95h296l29 37q8 12 20 12q16 -5 23 -12l47 -47l-7 -12h-408v-60q0 -40 -8.5 -57t-36.5 -29q-29 -13 -48 -13q-25 0 -25 19q-3 17 -5 19l-99 31l5 11l110 -16q18 -2 23 -2q20 0 20 39v58h-412v22h412v95
h-348v21h348v78q-149 -18 -305 -19l-1 16q336 19 545 88l14 -13q-4 23 -27 31l-70 22l6 13l88 -13q18 -2 21 -2q18 0 18 59v178h-245v21h245v89l-4 47l64 -19q36 -11 36 -20q0 -5 -36 -17h1q-3 0 -5 -2l5 1v-79h15l16 28q9 16 25 16q9 0 22 -8h-4q1 -1 7 -1l47 -44l-8 -12
h-120v-200q0 -29 -1.5 -42t-9 -28.5t-26 -21t-50.5 -5.5q30 -25 30 -35q0 -9 -25 -9q-11 0 -35 6q-12 0 -150 -18l4 -7q0 -6 -20 -11l-6 -6l3 1v-62h239zM389 631l18 26q11 18 26 18q9 0 26 -17l39 -34l-9 -16h-172v-78l187 17l1 -15l-363 -60q-14 -32 -32 -32t-25 27
l-11 39l181 18v84h-146v23h146v36l-5 47l62 -15q34 -7 34 -16q0 -6 -34 -22l6 1l-1 -31h72zM322 898v-59h62q14 19 19 25.5t11.5 11t13.5 4.5q12 0 25 -15l36 -33l-7 -16h-160v-71h99q2 2 13 16t10 14q11 14 22 14q13 0 15 -2l13 -14l37 -36l-3 -14h-465v22h195v71h-148v23
h148v64l-7 45l64 -12q22 -5 29 -14q2 -3 5 -5q0 -7 -34 -20zM566 751l14 13q85 -49 108.5 -72t23.5 -58q0 -30 -24 -30q-18 0 -26 21q-19 44 -37.5 68.5t-58.5 57.5z" />
  </g>

</svg>
