<?xml version="1.0" standalone="no"?>
<!DOCTYPE svg PUBLIC "-//W3C//DTD SVG 1.1//EN" "http://www.w3.org/Graphics/SVG/1.1/DTD/svg11.dtd" >
<svg xmlns="http://www.w3.org/2000/svg" xmlns:xlink="http://www.w3.org/1999/xlink" version="1.1" viewBox="0 -204 1024 1024">
  <g transform="matrix(1 0 0 -1 0 820)">
   <path fill="currentColor"
d="M59 886l51 -36h146l32 39q37 -24 54 -43q7 -7 7 -13q0 -10 -38 -32v-447q0 -73 3 -98q1 -28 1 -46q0 -15 -11 -24q-13 -6 -23 -6q-18 0 -18 14v60h-151v-61q0 -13 -17 -13q-9 0 -23 6q-13 10 -13 24q0 18 3 47q5 23 5 97v460q0 41 -8 72zM112 283h151v264h-151v-264z
M112 575h151v243l-1 4h-147l-3 -8v-239zM625 977q50 -10 85 -25q8 -3 8 -11q0 -7 -19 -11q-15 -4 -27 -4q24 -46 54 -84q37 -44 83 -86q45 -39 90 -68q44 -25 84 -37l-2 -16q-49 0 -66 -31q-44 25 -78 57q-39 34 -69 73q-32 37 -62 81q-25 36 -54 88q-12 -29 -26 -55
q-26 -41 -56 -80q-33 -40 -62 -70q-32 -30 -67 -58q-35 -32 -80 -55l-18 21q51 32 88 67q36 35 71 75q35 44 61 84q25 37 38 72q14 32 24 73zM496 686q44 -11 116 -11h71l41 43q32 -25 60 -47q8 -5 8 -10q0 -15 -15 -15h-165q-70 -2 -97 -7zM395 569l58 -38h385l33 40
q37 -21 56 -40q7 -9 7 -15q0 -8 -39 -32v-351q0 -35 -12 -51q-12 -17 -30 -27q-17 -11 -30 -11q-5 31 -10 39q-2 7 -14 16q-16 12 -35 14v25q28 -14 49 -14q22 0 28 5q7 5 7 29v152h-115v-158q0 -20 1 -25q2 -4 2 -34q0 -17 -36 -20q-14 0 -14 15q0 17 1 26q2 4 2 38v158
h-99v-162q0 -20 1 -24q2 -5 2 -35q0 -17 -37 -20q-13 0 -13 15q0 16 1 26q2 4 2 38v162h-97v-254q0 -12 -18 -12q-8 0 -23 6q-13 9 -13 25q0 17 3 47q4 21 4 96v281q0 41 -7 70zM449 338h97v165h-96l-1 -4v-161zM590 503v-165h99v165h-99zM733 503v-165h115v165h-115z" />
  </g>

</svg>
