<?xml version="1.0" standalone="no"?>
<!DOCTYPE svg PUBLIC "-//W3C//DTD SVG 1.1//EN" "http://www.w3.org/Graphics/SVG/1.1/DTD/svg11.dtd" >
<svg xmlns="http://www.w3.org/2000/svg" xmlns:xlink="http://www.w3.org/1999/xlink" version="1.1" viewBox="0 -140 1000 1000">
  <g transform="matrix(1 0 0 -1 0 860)">
   <path fill="currentColor"
d="M839 653l18 28q11 17 23 17q14 0 25 -12l40 -43l-6 -12h-199q38 -80 82 -121.5t117 -66.5v-12q-29 0 -36.5 -1.5t-8.5 -8.5t-2 -9.5t-4 -3t-11 -0.5q-5 0 -17 6.5t-31.5 23t-40 40.5t-43.5 64.5t-40 88.5h-140q-48 -85 -103.5 -135t-156.5 -98v-68h137v-2q2 0 2 50t-3 98
l62 -21q29 -11 29 -18q0 -5 -34 -15l7 1v-30q0 -30 -3 -63h204v105l-2 41l61 -20q31 -10 31 -16q0 -5 -23 -14l-10 -6l5 1v-91h61l23 32q8 11 21 11t26 -18l30 -32l-6 -16h-155v-196q0 -3 2 -9q1 -3 1 -15q0 -9 -16 -16.5t-37 -8.5q-4 1 -14 7l2 39v199h-206
q-10 -88 -52 -139.5t-150 -107.5l-12 14q78 48 113 100t42 133h-136l1 -62q-1 -8 -14.5 -16t-28.5 -8q-21 0 -21 43l1 21h-115v-36q1 -12 1 -34q0 -45 -17 -54q-18 -9 -29 -9q-20 0 -20 22l1 57q1 5 1 15l-4 640l57 -34h119q24 24 34 24t21 -11l24 -24q15 -15 15 -19
q0 -7 -26 -9v-396q73 45 116.5 91.5t83.5 122.5h-168v22h176q28 67 38 122l49 -20q30 -13 30 -21t-33 -15l7 1q-25 -52 -31 -67h266zM530 819v-43l1 -30q0 -7 -19.5 -15.5t-29.5 -8.5q-16 0 -16 11v86h-126v23h126v59l-2 46l56 -10q35 -6 35 -18q0 -6 -32 -20l7 1v-58h178
v59l-3 46l56 -10q33 -6 33 -18q0 -7 -31 -20l6 1v-58h60l17 21q12 19 26 19q13 0 26 -16h1l29 -32l-5 -15h-154v-53q0 -21 -2.5 -25.5t-17.5 -9.5h1q-16 -7 -28 -7q-14 0 -14 15v80h-178zM128 830v-256h115v256h-115zM128 551v-244h115v244h-115zM299 813q-1 -1 -3 -1l9 1
h-6z" />
  </g>

</svg>
