<?xml version="1.0" standalone="no"?>
<!DOCTYPE svg PUBLIC "-//W3C//DTD SVG 1.1//EN" "http://www.w3.org/Graphics/SVG/1.1/DTD/svg11.dtd" >
<svg xmlns="http://www.w3.org/2000/svg" xmlns:xlink="http://www.w3.org/1999/xlink" version="1.1" viewBox="0 -204 1024 1024">
  <g transform="matrix(1 0 0 -1 0 820)">
   <path fill="currentColor"
d="M59 893l62 -43h133l34 42q37 -23 54 -42q7 -7 7 -13q0 -10 -38 -32v-451q0 -73 3 -98q1 -28 1 -46q0 -15 -11 -24q-13 -6 -23 -6q-18 0 -18 14v60h-151v-61q0 -13 -17 -13q-9 0 -23 6q-13 10 -13 24q0 18 3 47q5 23 5 97v468q0 41 -8 71zM112 283h151v264h-151v-264z
M112 575h151v247h-151v-247zM499 973q37 -15 57 -32q18 -12 29 -25q6 -9 6 -18q0 -38 -28 -38q-5 0 -9 3t-8 14q-12 25 -26 41q-12 17 -37 34zM763 980q47 -15 82 -32q6 -6 6 -12q0 -9 -18 -12q-21 -4 -29 -4q-13 -13 -30 -24q-15 -10 -34 -18q-17 -9 -44 -18l-16 10
q19 17 34 30q11 12 20 27q11 14 19 27q7 12 10 26zM368 862q44 -12 116 -12h356l41 45q33 -25 63 -48q7 -4 7 -10q0 -15 -13 -15h-266v-84h120l41 45q33 -24 63 -49q7 -4 7 -10q0 -13 -13 -13h-218v-84h183l44 49q37 -28 69 -52q8 -5 8 -12q0 -14 -15 -14h-492
q-72 -2 -97 -6l-21 46q44 -11 118 -11h155v84h-90q-72 -2 -99 -7l-19 47q44 -13 118 -13h90v84h-140q-70 -2 -97 -7zM593 526q-24 -7 -47 -13v-83h159q-4 27 -4 51q0 67 -4 100q96 -21 96 -36q0 -12 -42 -30q0 -49 2 -85h110l41 45q34 -24 65 -49q7 -3 7 -9q0 -14 -14 -14
h-208q3 -41 8 -65q8 -43 21 -80q2 -5 4 -9q32 33 51 61q21 29 34 63q40 -15 63 -31q9 -5 9 -13q0 -11 -42 -11q-31 -42 -57 -72q-19 -21 -35 -36q4 -7 9 -13q25 -27 49 -47q20 -13 24 -13q7 0 13 6q13 12 53 117l18 -8q-31 -105 -31 -118q0 -21 13 -33q18 -16 18 -28
q0 -21 -29 -21q-11 0 -37 14q-28 12 -61 40q-34 25 -59 56q-11 8 -17 18q-19 -14 -39 -25q-28 -21 -61 -34q-36 -15 -77 -29l-12 18q47 15 78 34q29 19 62 46q14 11 30 24q-4 9 -10 20q-18 42 -29 105q-6 32 -8 64h-161v-93q50 13 113 30l5 -21q-52 -25 -92 -39
q-14 -5 -26 -11v-144q0 -32 -12 -46q-14 -15 -34 -25q-19 -10 -32 -10q-4 21 -13 34q-4 8 -23 16q-21 11 -48 13v23q41 -12 75 -12q25 0 34 5q9 4 9 25v107q-6 -3 -13 -3q-34 -13 -74 -22q-12 -36 -19 -36q-8 0 -49 84q59 5 103 14q24 3 52 8v103h-45q-72 -3 -98 -8l-19 47
q44 -12 117 -12h45v75q-13 -2 -23 -4q-43 -9 -95 -12l-8 18q68 12 130 39q40 16 58 40q48 -26 76 -45q7 -4 7 -10q0 -12 -13 -14q-5 0 -17 5q-9 4 -24 4zM814 560q30 -4 50 -14q20 -9 29 -23q6 -8 6 -19q0 -24 -23 -24q-11 0 -16 5q-6 5 -12 18q-6 10 -15 18q-10 11 -29 23z
" />
  </g>

</svg>
