<?xml version="1.0" standalone="no"?>
<!DOCTYPE svg PUBLIC "-//W3C//DTD SVG 1.1//EN" "http://www.w3.org/Graphics/SVG/1.1/DTD/svg11.dtd" >
<svg xmlns="http://www.w3.org/2000/svg" xmlns:xlink="http://www.w3.org/1999/xlink" version="1.1" viewBox="0 -120 1000 1000">
  <g transform="matrix(1 0 0 -1 0 880)">
   <path fill="currentColor"
d="M570 302h-121v-240l-59 -9v471q-44 -82 -97 -156l-12 8q78 163 131 367h-80l-12 28h98q24 100 35 172l75 -28q19 -7 19 -18t-19 -16l-17 -5q-11 -45 -27 -105h78l43 51l74 -59v-20h-203q-21 -67 -39 -114l22 -14h107l20 39l53 -34q21 -14 21 -21q0 -6 -13 -12l-18 -8
v-457q0 -35 -36 -52q-23 -10 -32 -10q-5 0 -8 2q-2 2 -5 19q-4 17 -16 20l-45 13v18h83v170zM449 329h121v122h-121v-122zM449 479h121v108h-121v-108zM277 767l62 -55v-19h-117v-111q40 -17 57 -29q33 -24 33 -61q0 -34 -24 -34q-15 0 -24 22q-11 30 -19 42q-7 11 -23 27
v-497l-58 -8v439q-49 -105 -114 -201l-15 16q43 90 70 175q28 91 52 220h-95l-12 27h114v223l73 -10q20 -3 20 -14q0 -10 -15 -14l-20 -5v-180h20zM871 888l68 -49q14 -10 14 -19q0 -13 -22 -16l-17 -2q-50 -135 -90 -223q72 -79 101 -134q32 -60 32 -130q0 -73 -38 -117
q-24 -28 -57 -43q-13 -6 -20 -6q-10 0 -10 33q-1 24 -16 28l-43 10v19h93q17 47 17 97q0 68 -27 130q-20 48 -59 113q35 141 50 243h-90v-766l-58 -12v844l69 -39h83z" />
  </g>

</svg>
