<?xml version="1.0" standalone="no"?>
<!DOCTYPE svg PUBLIC "-//W3C//DTD SVG 1.1//EN" "http://www.w3.org/Graphics/SVG/1.1/DTD/svg11.dtd" >
<svg xmlns="http://www.w3.org/2000/svg" xmlns:xlink="http://www.w3.org/1999/xlink" version="1.1" viewBox="0 -410 2048 2048">
  <g transform="matrix(1 0 0 -1 0 1638)">
   <path fill="currentColor"
d="M831 1664v87q-192 -13 -427 -17v39q258 14 556 60q270 41 391 106l93 -75q25 -20 25 -40t-28 -20q-5 0 -45 7l-31 6q-229 -42 -440 -59v-89l536 31l72 79l99 -68q21 -15 21 -30q0 -22 -31 -24l-697 -40v-87l750 45l74 82l88 -61q30 -21 30 -40q0 -20 -23 -22l-919 -55
v-20q0 -38 40 -47q40 -8 156 -8h409q107 0 147 21q25 13 36 94h36v-43q0 -32 42 -53q14 -7 14 -19q0 -79 -323 -79h-397q-150 0 -199 21q-55 24 -55 101v26l-535 -32q-63 -4 -119 -25l-61 72q37 -2 55 -2q21 0 112 6l548 33v87l-432 -24q-65 -4 -119 -24l-61 71q34 -1 52 -1
q25 0 115 5zM409 1083v92q-51 -8 -254 -27l-5 33q422 66 614 180l85 -65q22 -16 22 -32q0 -21 -34 -21q-12 0 -24 2l-34 6q-167 -44 -277 -63v-97l279 24l63 71l81 -57q23 -16 23 -33q0 -20 -23 -22l-423 -36v-112l345 26l63 73l86 -59q25 -17 25 -32q0 -20 -22 -21
l-497 -38v-53q0 -41 9 -50q21 -22 79 -22h156q78 0 102 15t34 61l13 61l35 -4q-3 -34 -3 -49q0 -30 10 -46q5 -9 41 -27q16 -8 16 -24q0 -72 -244 -72h-160q-100 0 -140 26q-41 26 -41 107v69l-172 -12q-67 -5 -119 -24l-61 71q34 -1 51 -1q49 0 116 5l185 14v110l-140 -12
q-70 -6 -119 -24l-61 72q34 -2 51 -2q54 0 116 5zM1308 1087v81l-22 -2q-115 -10 -268 -19l-3 36q429 49 633 143l85 -64q22 -17 22 -33q0 -21 -33 -21q-11 0 -25 2l-34 7q-133 -24 -262 -40v-82l289 25l63 71l80 -57q24 -16 24 -33q0 -20 -24 -22l-432 -37v-108l368 27
l64 73l85 -59q25 -18 25 -33q0 -19 -22 -21l-520 -39v-68q0 -41 9 -51q21 -21 80 -21h217q64 0 92 13q28 14 38 59l18 86l40 -5l-4 -75v-9q0 -24 17 -38q5 -3 37 -20q17 -9 17 -25q0 -71 -245 -71h-227q-100 0 -141 26q-41 25 -41 106v86l-100 -8q-67 -5 -119 -23l-61 71
q36 -2 54 -2q40 0 113 5l113 9v107l-130 -11q-69 -6 -119 -24l-61 72q34 -2 50 -2q56 0 116 5zM1270 435q263 -62 391 -110q189 -71 189 -163q0 -57 -49 -57q-33 0 -109 74q-71 69 -232 139q-41 17 -204 78zM697 318q-121 -77 -251 -127q-81 -30 -252 -74l-11 37
q286 102 493 304l108 -95q22 -20 22 -38q0 -20 -35 -20q-6 0 -12 1zM957 682l112 -25q85 -19 85 -44q0 -27 -49 -42l-42 -12v-23h630l102 109l139 -114q17 -14 17 -26q0 -26 -27 -26h-861v-158q0 -103 12 -210q3 -32 3 -51q0 -45 -55 -45q-56 0 -56 42v422h-618
q-103 0 -192 -8l-39 88q99 -23 231 -23h618q-2 38 -2 57q-2 45 -8 89z" />
  </g>

</svg>
