<?xml version="1.0" standalone="no"?>
<!DOCTYPE svg PUBLIC "-//W3C//DTD SVG 1.1//EN" "http://www.w3.org/Graphics/SVG/1.1/DTD/svg11.dtd" >
<svg xmlns="http://www.w3.org/2000/svg" xmlns:xlink="http://www.w3.org/1999/xlink" version="1.1" viewBox="0 -410 2048 2048">
  <g transform="matrix(1 0 0 -1 0 1638)">
   <path fill="currentColor"
d="M1585 1181q-61 -13 -175 -35l-38 -8l-7 -23q-8 -23 -23 -23t-25 23l-41 101q99 30 221 201h-596q-51 0 -149 -8l-39 84q110 -17 188 -17h661v124h-463q-64 0 -149 -11l-39 86q113 -17 188 -17h463v127h-540q-70 0 -149 -11l-39 86q121 -18 188 -18h528l69 76l83 -55
q41 -26 41 -48q0 -28 -78 -62v-277h83l98 101l121 -107q17 -15 17 -25q0 -28 -31 -28h-423l67 -24q29 -11 29 -28q0 -22 -41 -26l-38 -5q-87 -68 -175 -122q136 9 288 26q54 45 95 101l91 -52q40 -23 40 -36q0 -25 -40 -25h-42q-38 -21 -109 -65q-126 -77 -273 -144
q41 3 160 10q23 1 146 12q29 3 85 8q-35 34 -81 68l16 26q100 -45 150 -80q80 -54 80 -109q0 -21 -15 -37t-34 -16q-25 0 -49 55q-11 26 -34 53l-209 -37v-174q3 -68 3 -73q4 -38 4 -44q0 -41 -60 -41q-39 0 -39 27v289q-95 -11 -177 -21l-11 -30q-9 -24 -24 -24
q-12 0 -23 35l-34 99q43 8 90 30q37 17 219 138zM1585 405v-180q0 -40 6 -104q3 -29 3 -45q0 -48 -67 -48q-38 0 -38 25v352h-383q-37 -176 -149 -262q-85 -65 -240 -100l-14 41q119 40 211 135q67 69 88 186h-196q-67 0 -149 -11l-39 87q116 -19 188 -19h206q6 61 6 116
q0 27 -3 70l134 -29q57 -13 57 -41q0 -22 -47 -39l-34 -12q-6 -33 -9 -65h373v26q0 104 -7 139l109 -24q80 -18 80 -47q0 -25 -48 -40l-38 -12v-42h146l99 101l120 -107q17 -15 17 -24q0 -27 -27 -27h-355zM911 1093v141q0 120 -8 160l106 -24q66 -15 66 -37q0 -21 -46 -37
l-26 -9v-194h88l80 81l114 -85q17 -13 17 -27q0 -26 -26 -26h-273v-202l4 -78q2 -65 2 -74q0 -47 -58 -47q-40 0 -40 30v371h-48q-117 0 -192 -8l-38 87q88 -22 230 -22h48zM1159 1363l93 -45q21 -10 21 -22q0 -19 -41 -26l-25 -4q-70 -82 -147 -138l-19 22q84 130 118 213z
M1758 896q93 -54 140 -87q67 -49 67 -99q0 -26 -20 -42q-13 -11 -29 -11q-27 0 -49 53q-29 70 -130 161zM1069 972q189 -123 189 -191q0 -54 -45 -54q-29 0 -51 60q-25 70 -114 162zM706 1338q74 -38 110 -64q62 -45 62 -96q0 -47 -44 -47q-23 0 -48 60q-26 65 -95 122z
M336 1177q-70 -258 -124 -379q-54 -120 -139 -235l-32 22q168 299 237 823h-40q-69 0 -149 -11l-39 86q125 -17 188 -17h98v269q0 118 -8 160l109 -24q86 -19 86 -45t-50 -42l-41 -12v-306h24l80 80l114 -86q17 -12 17 -26q0 -26 -27 -26h-208v-116q216 -192 216 -311
q0 -32 -20 -51q-14 -14 -30 -14q-39 0 -56 96q-15 89 -110 217v-910q0 -98 12 -209q3 -31 3 -50q0 -46 -56 -46q-55 0 -55 42v1121zM745 996l105 -49q26 -12 26 -30q0 -21 -31 -25l-45 -5q-87 -136 -153 -200l-25 20q86 154 123 289zM1376 900l98 -42q30 -12 30 -31
q0 -21 -30 -25l-45 -6q-77 -103 -153 -177l-25 20q59 92 125 261z" />
  </g>

</svg>
