<?xml version="1.0" standalone="no"?>
<!DOCTYPE svg PUBLIC "-//W3C//DTD SVG 1.1//EN" "http://www.w3.org/Graphics/SVG/1.1/DTD/svg11.dtd" >
<svg xmlns="http://www.w3.org/2000/svg" xmlns:xlink="http://www.w3.org/1999/xlink" version="1.1" viewBox="0 -140 1000 1000">
  <g transform="matrix(1 0 0 -1 0 860)">
   <path fill="currentColor"
d="M612 946l55 -14q34 -9 34 -19q0 -6 -36 -21l6 1q-16 -71 -48 -158h207q16 21 21.5 26t15.5 5q12 0 18 -5.5t26 -29.5h-1q21 -24 21 -29q0 -8 -24 -10q-2 0 -4 2l-67 -170l-22 18l30 170h-110q-1 -103 -14 -207l-2 -16q81 -277 224 -386l-5 -10q-23 4 -31 4q-2 0 -6 -6
q-7 -9 -20 -9q-23 0 -82 106t-96 226q-31 -116 -89 -196.5t-170 -161.5l-16 15q67 55 102 96q-21 -6 -60 -6h-55q-41 0 -50 22t-9 90v262h-104v-301l79 42l12 -15l-226 -137q0 -40 -20 -40q-21 0 -33 29l-12 28l46 21l-6 -1l-4 556l58 -16q34 -7 34 -19q0 -6 -24 -17l-6 -1
h3l-6 -3l6 1v-474l41 21l-4 -1l-5 722l64 -11q37 -6 37 -18q0 -7 -41 -21l7 1v-324h11l23 32q9 12 31 12l10 -12h-1l30 -32l-3 384l61 -15q36 -9 36 -19q0 -6 -24 -18q-3 -1 -13 -7l4 1v-286q20 23 79 99l32 -35q7 -7 15 -19q52 133 70 304zM669 712h-55q-1 -3 -3 -5l2 1
q-3 -4 -9 -20q-34 -87 -102 -201l-23 14q34 66 60 133q-6 -2 -36 -2q-23 -19 -90 -71l3 1v-275q1 -14 0 -34l-1 -14q0 -40 28 -40q22 0 30.5 8.5t13.5 34.5l18 88l31 -3l-8 -94q0 -17 7 -21q12 -10 14 -18q30 42 53 91q68 147 68 359q0 49 -1 68z" />
  </g>

</svg>
