<?xml version="1.0" standalone="no"?>
<!DOCTYPE svg PUBLIC "-//W3C//DTD SVG 1.1//EN" "http://www.w3.org/Graphics/SVG/1.1/DTD/svg11.dtd" >
<svg xmlns="http://www.w3.org/2000/svg" xmlns:xlink="http://www.w3.org/1999/xlink" version="1.1" viewBox="0 -410 2048 2048">
  <g transform="matrix(1 0 0 -1 0 1638)">
   <path fill="currentColor"
d="M830 721q95 75 193 224l112 -82q17 -13 17 -29q0 -22 -33 -24h-5l-65 8q-70 -70 -184 -134q183 -194 183 -295q0 -57 -48 -57q-44 0 -74 78q-89 228 -300 446l21 27q75 -56 183 -162zM1473 930q78 -303 190 -478q97 -152 206 -227q48 -33 131 -66v-33q-81 1 -124 -70
q-206 178 -317 430q-60 136 -107 326q-69 -305 -247 -502q-138 -154 -377 -269l-19 33q247 150 356 296q232 309 232 861q0 36 -5 83l141 -23q36 -6 36 -30q0 -23 -34 -33l-44 -14q-11 -203 -18 -284zM281 1092q-9 -384 -25 -511q-30 -223 -80 -354q-37 -96 -87 -174l-34 15
q92 229 116 569q17 227 17 729v161q-3 227 -9 312l110 -71h573l106 112l136 -109q23 -19 23 -34q0 -26 -33 -26h-810v-238q12 -2 30 -4q95 -12 147 -12h344l91 104l126 -109q17 -14 17 -26q0 -27 -27 -27h-551q-69 0 -148 -11l-31 64v-327q74 -17 220 -17h367l91 103
l127 -108q17 -14 17 -26q0 -27 -27 -27h-587v-781q29 12 130 61q108 53 147 74l23 -29q-133 -109 -288 -211l-12 -45q-7 -26 -21 -26q-15 0 -28 26l-64 128l16 4v795q-52 0 -90 -5zM1312 1521h505l48 69l103 -85q21 -18 21 -33q0 -23 -40 -31l-45 -8q-118 -194 -198 -280
l-32 24q12 24 49 92q38 72 83 195h-516q-66 -150 -185 -287l-31 24q172 268 229 702l105 -36q72 -25 72 -47q0 -20 -44 -29l-48 -10q-41 -173 -76 -260z" />
  </g>

</svg>
