<?xml version="1.0" standalone="no"?>
<!DOCTYPE svg PUBLIC "-//W3C//DTD SVG 1.1//EN" "http://www.w3.org/Graphics/SVG/1.1/DTD/svg11.dtd" >
<svg xmlns="http://www.w3.org/2000/svg" xmlns:xlink="http://www.w3.org/1999/xlink" version="1.1" viewBox="0 -410 2048 2048">
  <g transform="matrix(1 0 0 -1 0 1638)">
   <path fill="currentColor"
d="M1665 1648l61 72l73 -50q42 -29 42 -50q0 -11 -8 -18q-4 -3 -57 -34v-517q0 -41 7 -104q3 -30 3 -46q0 -48 -68 -48q-35 0 -37 25l-2 29h-259v-637q0 -77 99 -77h228q74 0 98 22t36 84l33 175l37 -4l-11 -179v-10q0 -40 23 -66q25 -28 25 -44q0 -65 -202 -65h-298
q-96 0 -134 45q-27 32 -27 106v650h-130q-17 -249 -69 -384q-76 -198 -286 -340q-94 -64 -256 -138l-20 31q284 163 395 315q88 122 118 305q11 67 24 211h-94v-34q0 -31 -52 -31q-54 0 -54 43q0 5 4 50q7 97 7 104v693l108 -84h83q41 118 65 278l119 -34q45 -13 45 -35
q0 -24 -41 -33l-40 -9q-38 -79 -90 -167h502zM1389 965h290v290h-290v-290zM1679 1590h-290v-279h290v279zM1009 1311h284v279h-284v-279zM1009 965h284v290h-284v-290zM1561 830l110 -34q51 -16 51 -38t-40 -30l-41 -9q-16 -37 -24 -55q-56 -134 -96 -199q107 15 216 33
q-18 58 -61 126l28 21q71 -68 101 -106q51 -64 51 -121q0 -33 -23 -53q-13 -12 -30 -12q-19 0 -30 14q-1 2 -25 86q-106 -32 -203 -59l-10 -34q-8 -28 -24 -28q-19 0 -29 28l-38 97q63 62 117 373zM453 1714q-28 -188 -63 -326h292l62 81l91 -71q23 -18 23 -36
q0 -20 -23 -31l-53 -26q-68 -438 -209 -720q-171 -342 -467 -557l-24 31q271 243 444 636q-20 0 -30 5q-18 10 -42 69q-52 129 -195 260q-72 -134 -168 -260l-30 23q147 253 215 503q47 174 78 419h-57q-109 0 -189 -8l-38 88q94 -23 227 -23h326l97 101l119 -106
q17 -15 17 -26q0 -26 -27 -26h-376zM279 1068q245 -152 287 -274q83 224 122 537h-312q-37 -137 -97 -263z" />
  </g>

</svg>
