<?xml version="1.0" standalone="no"?>
<!DOCTYPE svg PUBLIC "-//W3C//DTD SVG 1.1//EN" "http://www.w3.org/Graphics/SVG/1.1/DTD/svg11.dtd" >
<svg xmlns="http://www.w3.org/2000/svg" xmlns:xlink="http://www.w3.org/1999/xlink" version="1.1" viewBox="0 -410 2048 2048">
  <g transform="matrix(1 0 0 -1 0 1638)">
   <path fill="currentColor"
d="M1639 1263q-143 -28 -362 -52q-144 -16 -210 -27l-12 -42q-7 -25 -23 -25q-21 0 -38 41l-48 115q95 34 248 288h-94q-120 0 -191 -8l-39 89q94 -25 230 -25h125q66 128 116 269l126 -55q36 -16 36 -36q0 -28 -48 -31l-48 -3q-37 -80 -75 -144h320l99 101l120 -109
q17 -14 17 -23q0 -25 -27 -25h-565q-107 -155 -253 -283q152 7 361 18q140 6 206 13q-36 53 -115 130l25 30l30 -21q236 -160 236 -254q0 -53 -49 -53q-34 0 -61 61q-10 22 -37 61zM368 794l-95 -11q-135 -16 -186 -36l-57 65l338 41v338l-72 -9q-140 -17 -186 -35l-52 60
l310 41v335q-157 -47 -266 -69l-10 40q412 114 630 332l87 -63q42 -30 42 -46q0 -24 -32 -24q-5 0 -13 1l-45 6q-32 -17 -126 -68q-64 -35 -172 -77v-354l163 22l85 113l134 -91q19 -13 19 -28q0 -23 -23 -25l-378 -49v-338l223 26l86 109l133 -91q18 -12 18 -27
q0 -24 -22 -26l-438 -51v-519q0 -51 19 -69q28 -24 125 -24h1083q123 0 154 24q25 21 46 120q18 87 24 117l38 -8l-12 -140q-2 -19 -2 -36q0 -30 48 -70q16 -13 16 -31q0 -68 -307 -68h-1054q-167 0 -215 20q-58 23 -58 121v552zM1531 1075l101 -24q74 -18 74 -47
q0 -25 -50 -39l-24 -7v-398q0 -73 82 -73q27 0 89 17q16 4 25 4q26 0 44 -26q10 -15 10 -32q0 -38 -113 -50h-1v0l9 -3q-139 1 -178 27q-60 39 -60 117v374q0 118 -8 160zM1276 1073l103 -24q74 -17 74 -46q0 -25 -52 -40l-22 -6v-262q0 -73 12 -199q4 -31 4 -50
q0 -46 -56 -46q-55 0 -55 42v471q0 120 -8 160zM1011 1081l110 -24q73 -16 73 -46q0 -25 -50 -40l-23 -6q-3 -182 -17 -250q-31 -147 -139 -243q-57 -50 -142 -96l-16 32q127 100 175 208q37 81 37 274q0 150 -8 191z" />
  </g>

</svg>
