<?xml version="1.0" standalone="no"?>
<!DOCTYPE svg PUBLIC "-//W3C//DTD SVG 1.1//EN" "http://www.w3.org/Graphics/SVG/1.1/DTD/svg11.dtd" >
<svg xmlns="http://www.w3.org/2000/svg" xmlns:xlink="http://www.w3.org/1999/xlink" version="1.1" viewBox="0 -140 1000 1000">
  <g transform="matrix(1 0 0 -1 0 860)">
   <path fill="currentColor"
d="M679 891l-2 58l56 -14q32 -8 32 -20q0 -7 -30 -17l6 1v-193h87l19 26q15 21 25 21q11 0 31 -17l46 -39l-8 -13h-200q39 -140 100.5 -259.5t113.5 -172.5l-14 -20q-34 25 -40 25q-1 -1 -3 -2l-4 -2h1q-6 -6 -21 -16q-23 0 -41 43l-14 34q-50 120 -68 180l-10 34v-373
q0 -40 2 -42v-10q0 -19 -17 -29t-33 -10q-17 0 -17 20q3 34 3 77v307q-61 -144 -198 -277l-18 18q85 104 133 208t84 267h-188v22h187v185zM470 953l59 -33q26 -16 26 -21q0 -8 -41 -17l7 1q-46 -127 -60 -164l-2 1q20 -20 20 -22q0 -5 -32 -16l7 1l1 -566q0 -24 -15.5 -36
t-33.5 -12q-16 0 -16 16q0 5 1 36t1 37v414q-42 -63 -99 -130l-22 19q125 188 199 492zM86 398l2 14q38 -5 52 -5q22 0 32 28l151 404l27 -13l-133 -443q-9 -30 -9 -75q0 -13 12 -82.5t12 -80.5q0 -25 -14 -42.5t-33 -17.5q-42 0 -42 65q0 13 6.5 79t6.5 77q0 39 -15.5 60
t-54.5 32zM98 912l7 11q107 -35 131 -57q28 -27 28 -47q0 -25 -23 -25q-21 0 -34 19q-44 59 -109 99zM54 684l8 12q139 -54 139 -98q0 -25 -27 -25q-18 0 -30 18q-34 49 -90 93z" />
  </g>

</svg>
