<?xml version="1.0" standalone="no"?>
<!DOCTYPE svg PUBLIC "-//W3C//DTD SVG 1.1//EN" "http://www.w3.org/Graphics/SVG/1.1/DTD/svg11.dtd" >
<svg xmlns="http://www.w3.org/2000/svg" xmlns:xlink="http://www.w3.org/1999/xlink" version="1.1" viewBox="0 -410 2048 2048">
  <g transform="matrix(1 0 0 -1 0 1638)">
   <path fill="currentColor"
d="M737 211l98 101l121 -106q17 -16 17 -27q0 -27 -27 -27h-560v-46q0 -37 -49 -37q-63 0 -59 54l4 63l4 80l4 76v369l-5 73q-4 67 -9 103l115 -85q243 83 388 223l83 -68q40 -33 40 -53q0 -28 -44 -28q-8 0 -15 1l-43 10q-258 -102 -414 -134v-214h302l99 102l120 -107
q17 -15 17 -26q0 -26 -27 -26h-511v-271h351zM1084 141l-38 86q127 -16 188 -16h401v271h-351q-67 0 -149 -11l-39 86q123 -18 188 -18h351v287h-380q-67 0 -149 -11l-41 86q122 -18 190 -18h360l68 75l83 -54q40 -25 40 -48q0 -27 -77 -61v-433q0 -22 4 -85q1 -20 4 -79
q2 -38 3 -59q1 -8 1 -14q0 -45 -70 -45q-36 0 -36 26v46h-401q-70 0 -150 -11zM1083 1687q15 -19 63 -75q49 -57 70 -78q186 90 278 151q96 62 220 170l91 -73q33 -26 33 -44q0 -22 -27 -22q-6 0 -70 14q-128 -77 -227 -120q-138 -61 -266 -110q135 -127 328 -215
q149 -68 396 -112l-4 -38q-20 1 -32 1q-69 0 -97 -67q-320 99 -526 277q-133 115 -230 257v-423q0 -142 -158 -171q-2 66 -43 93q-33 21 -159 44l8 46q168 -27 200 -27q57 0 57 57v540q0 114 -8 159l109 -24q85 -18 85 -45q0 -29 -49 -42l-42 -11v-112zM179 1592l-39 87
q120 -19 188 -19h350l61 72l76 -57q41 -31 41 -54q0 -18 -14 -27q-12 -7 -57 -23q-154 -194 -287 -291q-167 -122 -393 -217l-19 34q216 115 356 235q131 114 240 271h-354q-70 0 -149 -11z" />
  </g>

</svg>
