<?xml version="1.0" standalone="no"?>
<!DOCTYPE svg PUBLIC "-//W3C//DTD SVG 1.1//EN" "http://www.w3.org/Graphics/SVG/1.1/DTD/svg11.dtd" >
<svg xmlns="http://www.w3.org/2000/svg" xmlns:xlink="http://www.w3.org/1999/xlink" version="1.1" viewBox="0 -410 2048 2048">
  <g transform="matrix(1 0 0 -1 0 1638)">
   <path fill="currentColor"
d="M1290 537v-346h421l96 113l131 -113q24 -21 24 -35q0 -25 -15 -23l-9 1h-1145q-119 0 -192 -8l-38 88q103 -23 230 -23h399v346h-246q-120 0 -193 -8l-37 88q98 -23 230 -23h246v296h-303q-119 0 -192 -8l-38 88q98 -23 230 -23h746l100 93l124 -97q18 -14 18 -31
q0 -22 -22 -22h-565v-296h311l96 93l124 -97q18 -14 18 -32q0 -21 -22 -21h-527zM1130 1929q205 -122 205 -215q0 -31 -37 -66h479l56 68l102 -80q21 -16 21 -30q0 -30 -91 -45q-66 -115 -152 -221l-33 22q70 150 97 233h-283v-297q0 -67 56 -85q32 -10 134 -10q73 0 152 24
q24 7 38 7q24 0 41 -24q12 -17 12 -41q0 -21 -17 -28q-67 -29 -222 -29q-289 0 -289 129v354h-344l75 -19q80 -21 80 -50q0 -23 -65 -38l-34 -7q-20 -124 -63 -192q-103 -163 -384 -234l-18 38q182 67 268 162q98 108 98 295q0 15 -1 45h-257q-29 -266 -132 -266
q-47 0 -47 41q0 21 30 58q69 83 89 183q8 40 14 133h46v-54v-42h500q-17 16 -23 30q-2 6 -13 65q-9 44 -113 158zM228 1876q330 -120 330 -247q0 -55 -52 -55q-36 0 -75 64q-68 113 -225 203zM106 1378q344 -131 344 -258q0 -56 -51 -56q-21 0 -42 16q-11 9 -44 63
q-58 93 -230 201zM532 882l35 -22q-128 -339 -322 -676q4 -27 4 -43q0 -57 -23 -57q-18 0 -46 37l-81 107q215 246 433 654z" />
  </g>

</svg>
