<?xml version="1.0" standalone="no"?>
<!DOCTYPE svg PUBLIC "-//W3C//DTD SVG 1.1//EN" "http://www.w3.org/Graphics/SVG/1.1/DTD/svg11.dtd" >
<svg xmlns="http://www.w3.org/2000/svg" xmlns:xlink="http://www.w3.org/1999/xlink" version="1.1" viewBox="0 -410 2048 2048">
  <g transform="matrix(1 0 0 -1 0 1638)">
   <path fill="currentColor"
d="M1696 686q-26 -12 -170 -66q-134 -53 -180 -67q-7 -72 -36 -72q-26 0 -65 78l-31 58q-16 -86 -34 -135q-40 -109 -148 -212l-27 23q78 118 99 209q27 117 27 277v243q0 45 -8 126l109 -70h448l68 76l82 -54q40 -27 40 -48q0 -23 -29 -39q-6 -4 -25 -13q-9 -4 -26 -12
v-551q0 -80 -65 -126q-41 -28 -90 -37q-5 66 -45 93q-33 21 -159 43l9 46q165 -27 200 -27q56 0 56 57v200zM1696 730v292h-470v-91q384 -30 384 -134q0 -42 -38 -42q-25 0 -107 47q-79 44 -239 88v-145q0 -25 -10 -113q42 8 62 12q208 37 337 68q69 15 81 18zM1440 1254
v201h-51q-76 0 -150 -10l-27 60q-103 -205 -298 -355l-22 27q196 196 284 489h-36q-63 0 -149 -11l-39 86q128 -17 188 -17h52q26 122 35 201l106 -26q73 -18 73 -45q0 -32 -88 -48q-11 -42 -23 -82h420l81 82l114 -87q16 -13 16 -26q0 -27 -27 -27h-622q-33 -85 -55 -138
q56 -8 116 -13l51 -4h235l80 80l114 -86q17 -13 17 -25q0 -25 -27 -25h-272v-201h202l80 80l114 -85q17 -13 17 -26q0 -26 -27 -26h-656q-66 0 -149 -11l-39 85q122 -17 188 -17h174zM658 1876q208 -145 208 -267q0 -75 -60 -75q-43 0 -51 65q-11 87 -34 129q-25 46 -86 123
zM506 1303l-39 86q117 -17 187 -17h52l57 63l68 -56q50 -42 50 -61q0 -25 -93 -52l-82 -306h110l55 69l78 -52q36 -24 36 -41q0 -18 -26 -34l-41 -25q-34 -157 -76 -262q-40 -102 -117 -232q145 -138 262 -167q125 -31 421 -31q376 0 570 17v-39q-73 -14 -84 -76h-87h-216
q-477 0 -627 53q-91 32 -178 111q-28 26 -92 91q-26 -26 -148 -160q1 -18 1 -26q0 -50 -20 -50q-14 0 -45 38l-59 71q99 68 245 180q108 196 159 512h-125q-30 -15 -57 -15q-50 0 -50 25q0 5 8 32l103 365h-52q-64 0 -148 -11zM226 1872q107 -46 199 -115q68 -50 68 -102
q0 -57 -53 -57q-33 0 -59 50q-57 110 -181 190zM95 1384q303 -122 303 -237q0 -19 -16 -34q-14 -14 -34 -14q-26 0 -53 30q-7 8 -57 82q-41 62 -165 138zM433 891l33 -18q-73 -240 -247 -631q1 -24 1 -39q0 -63 -23 -63q-17 0 -35 23l-82 108q166 212 353 620z" />
  </g>

</svg>
