<?xml version="1.0" standalone="no"?>
<!DOCTYPE svg PUBLIC "-//W3C//DTD SVG 1.1//EN" "http://www.w3.org/Graphics/SVG/1.1/DTD/svg11.dtd" >
<svg xmlns="http://www.w3.org/2000/svg" xmlns:xlink="http://www.w3.org/1999/xlink" version="1.1" viewBox="0 -410 2048 2048">
  <g transform="matrix(1 0 0 -1 0 1638)">
   <path fill="currentColor"
d="M369 1489q-96 -82 -257 -171l-24 32q107 78 131 97q37 31 116 114q-26 45 -38 68q-62 114 -104 177l33 23q49 -53 154 -215q102 103 197 282l85 -46q58 -31 58 -56q0 -23 -52 -27l-54 -5q-50 -77 -194 -223q102 -177 139 -339q45 -199 45 -545q0 -379 -90 -505
q-65 -91 -195 -106q0 37 -28 70q-10 11 -96 44q-44 17 -71 20l8 44q152 -46 227 -46q72 0 105 102q42 131 42 448q0 88 -10 309q-157 -242 -392 -407l-25 34q262 222 387 542q-20 127 -97 285zM1684 31q-11 70 -47 93q-33 21 -159 44l8 45q166 -27 199 -27q60 0 60 53v788
q0 114 -9 159l108 -24q84 -19 84 -45q0 -28 -49 -42l-40 -11v-862q0 -141 -155 -171zM1556 520q0 -39 1 -51q7 -83 7 -86q0 -45 -62 -45q-40 0 -40 34v567q0 121 -9 160l103 -24q76 -18 76 -43q0 -23 -43 -37l-33 -11v-464zM1016 1321l-39 87q95 -22 231 -22h215l80 81
l114 -86q17 -13 17 -26q0 -26 -27 -26h-399q-113 0 -192 -8zM1269 1932l146 -55q46 -17 46 -35q0 -16 -17 -24q-13 -6 -76 -17q108 -133 279 -243q172 -111 340 -146v-36q-54 -5 -76 -13q-34 -14 -52 -64q-178 92 -289 187q-112 96 -260 293q-127 -169 -273 -280
q-123 -93 -328 -188l-17 32q231 142 346 260q140 143 231 329zM756 1203l113 -80h293l68 76l84 -54q40 -26 40 -49q0 -28 -78 -61v-803q0 -143 -155 -171q-10 66 -38 87q-27 20 -131 42l8 45q132 -19 163 -19q56 0 56 57v197h-334q-23 -259 -190 -436l-29 27q87 133 115 314
q23 150 23 547q0 104 -5 198q-2 43 -3 83zM858 828h320v240h-320v-240zM850 529h328v242h-320q-2 -182 -8 -242z" />
  </g>

</svg>
