<?xml version="1.0" standalone="no"?>
<!DOCTYPE svg PUBLIC "-//W3C//DTD SVG 1.1//EN" "http://www.w3.org/Graphics/SVG/1.1/DTD/svg11.dtd" >
<svg xmlns="http://www.w3.org/2000/svg" xmlns:xlink="http://www.w3.org/1999/xlink" version="1.1" viewBox="0 -410 2048 2048">
  <g transform="matrix(1 0 0 -1 0 1638)">
   <path fill="currentColor"
d="M382 1480q-141 -118 -301 -189l-17 34q154 94 277 224q-62 100 -192 269l31 29q92 -98 213 -243q126 133 220 310l127 -76q17 -10 17 -25q0 -27 -56 -32l-43 -4q-114 -141 -219 -246q107 -179 149 -332q51 -191 51 -573q0 -345 -75 -469q-41 -69 -129 -97q-27 -9 -87 -21
q-8 68 -60 95q-5 3 -150 53l11 45q206 -56 243 -56q81 0 113 100q37 116 37 405q0 198 -14 350q-99 -131 -170 -198q-106 -99 -262 -197l-24 34q147 119 223 202q102 113 208 290q-37 153 -121 318zM1762 513l116 -93q20 -16 20 -29q0 -26 -40 -26h-6l-58 6q-19 -11 -95 -58
q-188 -116 -461 -190q-178 -49 -473 -61v40q239 24 480 108q326 114 517 303zM1553 697l108 -88q18 -14 18 -32q0 -24 -35 -24q-5 0 -9 1l-53 7q-171 -115 -347 -170q-177 -56 -408 -67l-3 41q450 58 729 332zM1339 879l115 -92q15 -12 15 -27q0 -24 -37 -21l-53 4
q-108 -80 -213 -130q-124 -60 -332 -87l-7 37q337 92 512 316zM1313 1023q-114 -112 -215 -171q-159 -95 -404 -166l-14 41q444 171 592 443l145 -62q22 -10 22 -30q0 -24 -26 -27l-61 -6q9 -6 41 -28q112 -79 300 -145q132 -46 292 -65v-37q-83 -4 -110 -75
q-303 87 -562 328zM1558 1548l106 -53q28 -14 28 -31q0 -19 -25 -22l-50 -7q-17 -18 -82 -86q-35 -37 -94 -83q80 1 231 12q100 6 148 13q-26 57 -60 102l27 24q165 -149 165 -239q0 -26 -15.5 -45.5t-35.5 -19.5q-32 0 -41 51q-6 33 -21 83q-214 -50 -354 -73l-13 -38
q-8 -23 -22 -23q-19 0 -27 23l-46 122q80 77 181 290zM1206 1920l125 -72q20 -12 20 -26q0 -21 -31 -23l-57 -3q-38 -31 -116 -86q-83 -59 -119 -81q68 2 251 13q203 10 313 23q-23 39 -86 115l28 25q207 -129 207 -240q0 -31 -20 -50q-14 -13 -30 -13q-26 0 -38 26
q-6 13 -20 50q-5 15 -19 45q-278 -58 -548 -82l-14 -44q-7 -24 -20 -24q-17 0 -29 26l-55 124q173 135 258 297zM918 1501l114 -60q21 -10 21 -28q0 -20 -21 -22l-57 -8q-28 -22 -85 -82q-10 -10 -84 -68q234 19 384 48q-27 59 -78 112l25 29q163 -103 163 -191
q0 -52 -48 -52q-16 0 -23 8t-21 53q-167 -61 -364 -97l-13 -48q-6 -21 -21 -21q-19 0 -27 21l-49 127q100 101 184 279z" />
  </g>

</svg>
