<?xml version="1.0" standalone="no"?>
<!DOCTYPE svg PUBLIC "-//W3C//DTD SVG 1.1//EN" "http://www.w3.org/Graphics/SVG/1.1/DTD/svg11.dtd" >
<svg xmlns="http://www.w3.org/2000/svg" xmlns:xlink="http://www.w3.org/1999/xlink" version="1.1" viewBox="0 -410 2048 2048">
  <g transform="matrix(1 0 0 -1 0 1638)">
   <path fill="currentColor"
d="M1038 1467q98 -16 180 -16h389l99 102l120 -107q17 -15 17 -26q0 -27 -27 -27h-347v-224h268l99 102l120 -107q18 -16 18 -26q0 -26 -28 -26h-857q-69 0 -147 -9l-41 83q122 -17 188 -17h284v224h-155q-68 0 -149 -11l-35 78q-108 -129 -263 -216l-22 32q199 154 294 366
h-78q-101 -5 -149 -12l-39 86q116 -17 188 -17h101q31 86 58 219l103 -26q76 -20 76 -47q0 -11 -11 -19q-8 -6 -80 -22q-21 -57 -41 -105h566l99 102l120 -107q16 -14 16 -26q0 -26 -26 -26h-800q-33 -70 -108 -175zM1048 935h694l68 75l84 -53q40 -26 40 -49q0 -27 -77 -61
v-623q0 -87 -46 -121q-32 -23 -106 -43q-12 72 -56 93q-46 23 -143 40v48q169 -27 199 -27q58 0 57 57l-5 225q-358 -97 -605 -145q-6 -19 -9 -28q-13 -50 -31 -50q-24 0 -56 73l-35 77q-23 -104 -69 -180q-73 -117 -255 -211l-17 28q159 126 208 230q54 115 54 302v278
q0 17 -5 99q-1 14 -3 41zM1025 447q27 2 65 5q339 23 672 104v322h-724v-89q47 -4 204 -18q224 -20 293 -63q42 -25 42 -69q0 -47 -42 -47q-26 0 -103 38q-125 63 -394 114v-148q0 -38 -13 -149zM346 490v555h-24q-121 0 -193 -8l-38 88q99 -23 231 -23h24v483h-59
q-117 0 -192 -8l-37 88q94 -23 229 -23h252l98 102l121 -107q18 -16 18 -26q0 -26 -28 -26h-306v-483h97l98 102l121 -107q16 -14 16 -25q0 -27 -26 -27h-306v-527q172 56 325 120l19 -36q-33 -18 -49 -27q-223 -125 -545 -232l-11 -42q-8 -32 -26 -32q-9 0 -26 32l-71 130
q187 30 288 59z" />
  </g>

</svg>
