<?xml version="1.0" standalone="no"?>
<!DOCTYPE svg PUBLIC "-//W3C//DTD SVG 1.1//EN" "http://www.w3.org/Graphics/SVG/1.1/DTD/svg11.dtd" >
<svg xmlns="http://www.w3.org/2000/svg" xmlns:xlink="http://www.w3.org/1999/xlink" version="1.1" viewBox="0 -410 2048 2048">
  <g transform="matrix(1 0 0 -1 0 1638)">
   <path fill="currentColor"
d="M770 629q-61 -228 -166 -338q151 -55 195 -83q58 -36 58 -78q0 -53 -48 -53q-27 0 -71 35q-72 60 -201 120q-117 -101 -421 -198l-13 39q206 84 345 194q-10 3 -270 92q53 110 103 227l-108 -9l-17 -43q-10 -26 -26 -26q-19 0 -35 49l-38 118q40 -1 65 -1q17 0 110 2
q28 1 83 2q17 49 58 193l126 -51q22 -9 22 -27q0 -20 -28 -25l-41 -7l-30 -71l-5 -12l256 6q11 69 21 141l125 -38q42 -12 42 -33q0 -20 -27 -27l-44 -12l-6 -26q88 4 180 6l3 -47q-111 -10 -197 -19zM658 618q-138 -13 -280 -24q-65 -110 -120 -212q41 -13 131 -34
q16 -3 117 -29q104 104 152 299zM476 1205h-230q-63 0 -148 -11l-40 86q127 -18 188 -18h230v176h-140q-66 0 -149 -11l-39 85q120 -17 188 -17h140v177h-154q-118 0 -192 -8l-38 86q99 -21 230 -21h154v31q0 116 -8 160l109 -24q86 -19 86 -46q0 -28 -50 -42l-42 -11v-68
h210l98 102l120 -107q18 -15 18 -26q0 -26 -27 -26h-419v-177h213l63 68l72 -51q34 -24 34 -47q0 -26 -68 -55v-148h38l76 72l100 -77q17 -14 17 -26q0 -26 -27 -26h-204v-157l30 -27q25 -19 25 -30q0 -22 -17 -22h-352q0 -25 2 -37q4 -38 4 -44q0 -41 -61 -41q-40 0 -40 27
v95h-135q-64 0 -149 -11l-39 86q27 -3 40 -5q87 -13 148 -13h135v179zM571 1205v-179h219v179h-219zM571 1262h219v176h-219v-176zM1272 1018q40 -25 60 -37q226 -136 226 -252q0 -56 -44 -56q-19 0 -31 12q-10 11 -50 87q-54 104 -166 198l-106 -718q112 19 264 54l48 11
l11 -38q-180 -81 -382 -143l-6 -30q-7 -42 -29 -42q-21 0 -43 45l-57 113q53 4 103 13l216 1466h-26q-101 0 -158 -7l-38 88q91 -22 203 -22h446l98 97l120 -107q16 -14 16 -23q0 -26 -29 -26h-544l-58 -390h298l68 76l83 -57q41 -27 41 -48q0 -25 -78 -59l-81 -988v-7
q0 -35 21 -48q24 -15 86 -15q60 0 81 21q22 22 36 127q15 109 25 172l35 -6l-13 -219v-5q0 -34 15 -54q4 -5 36 -35q12 -11 12 -27q0 -31 -38 -46q-49 -20 -208 -20q-186 0 -186 116v12l85 1054h-326z" />
  </g>

</svg>
