<?xml version="1.0" standalone="no"?>
<!DOCTYPE svg PUBLIC "-//W3C//DTD SVG 1.1//EN" "http://www.w3.org/Graphics/SVG/1.1/DTD/svg11.dtd" >
<svg xmlns="http://www.w3.org/2000/svg" xmlns:xlink="http://www.w3.org/1999/xlink" version="1.1" viewBox="0 -410 2048 2048">
  <g transform="matrix(1 0 0 -1 0 1638)">
   <path fill="currentColor"
d="M253 578h311v160q0 115 -6 160l107 -24q86 -20 86 -45q0 -29 -50 -43l-42 -11v-197h126l98 102l121 -107q17 -15 17 -26q0 -26 -27 -26h-335v-183q0 -101 13 -219q3 -31 3 -50q0 -46 -57 -46q-54 0 -54 42v456h-273q-117 0 -192 -8l-38 88q73 -23 126 -23h55l-32 31
q132 145 202 360h-178v-74q0 -40 -57 -40q-51 0 -51 43l12 207v491q0 86 -14 177l122 -90h100q49 116 82 253l117 -53q31 -14 31 -33q0 -23 -36 -28l-49 -5q-48 -79 -91 -134h410l68 77l83 -55q40 -26 40 -48q0 -28 -77 -61v-451q0 -58 11 -223q1 -8 1 -13q0 -46 -70 -46
q-36 0 -36 26v80h-327q-84 -221 -250 -391zM558 1292q-11 -146 -38 -263h310v263h-272zM427 1029q29 102 37 263h-230v-263h193zM464 1348v278h-230v-278h230zM558 1626v-278h272v278h-272zM1241 1018q41 -25 61 -37q226 -136 226 -251q0 -57 -44 -57q-19 0 -31 12
q-10 11 -50 87q-56 105 -166 197l-107 -717q136 24 339 76l12 -38q-208 -93 -410 -154l-5 -30q-7 -42 -29 -42q-21 0 -44 45l-56 113q53 4 103 13l216 1467h-19q-118 0 -192 -8l-38 88q92 -22 230 -22h495l98 97l120 -107q17 -15 17 -26q0 -24 -27 -24h-596l-58 -389h320
l68 76l84 -57q40 -27 40 -48q0 -25 -78 -59l-80 -988q-1 -8 -1 -12q0 -58 108 -58q59 0 80 21q22 22 37 127q14 109 24 172l35 -6l-13 -219q-1 -11 2 -28q5 -25 49 -66q13 -11 13 -27q0 -31 -38 -46q-49 -20 -208 -20q-187 0 -187 111q0 7 1 17l85 1054h-349z" />
  </g>

</svg>
