<?xml version="1.0" standalone="no"?>
<!DOCTYPE svg PUBLIC "-//W3C//DTD SVG 1.1//EN" "http://www.w3.org/Graphics/SVG/1.1/DTD/svg11.dtd" >
<svg xmlns="http://www.w3.org/2000/svg" xmlns:xlink="http://www.w3.org/1999/xlink" version="1.1" viewBox="0 -120 1000 1000">
  <g transform="matrix(1 0 0 -1 0 880)">
   <path fill="currentColor"
d="M433 919l71 -54v-20h-141v-106h58l20 36l48 -35q15 -10 15 -17t-15 -13l-13 -6v-168l-55 -7v19h-285v-35l-54 -12v274l64 -36h53v106h-129l-12 27h336zM136 575h63v137h-63v-137zM250 575h62v137h-62v-137zM363 575h58v137h-58v-137zM312 739v106h-62v-106h62zM375 513
l66 -51v-19h-309l-11 27h218zM433 407l71 -54v-20h-196v-238q0 -27 -20 -35q-36 -16 -54 -16q-10 0 -13 19q-2 22 -16 25l-45 11v19h90v215h-188l-12 27h344zM128 294l67 -27q12 -5 12 -13q0 -9 -16 -12l-16 -3q-35 -64 -57.5 -96.5t-59.5 -71.5l-16 12q51 81 86 211z
M359 278l12 8q91 -53 91 -99q0 -16 -9 -26q-10 -11 -25 -11q-9 0 -12 6l-12 33q-13 38 -22 53q-6 12 -23 36zM644 517l12 8q44 -48 59 -74q35 -56 35 -101q0 -24 -13 -35q-10 -9 -21 -9q-9 0 -12 6q-5 6 -11 41q-16 90 -49 164zM867 919l82 -62v-20h-302l-12 -176h130l28 43
l60 -39q14 -9 14 -16q0 -8 -17 -14l-14 -5v-157q0 -130 15 -199q12 -63 39 -121l51 122l12 -8l-23 -94q-8 -31 -8 -51q0 -26 19 -62q-21 -16 -36 -16q-52 0 -95 143l-299 -108l-2 -12q-3 -15 -10 -15t-21 23l-29 51l91 22l49 689h-54l-12 27h297zM777 634h-144l-34 -472
l204 47q-16 71 -21 120q-5 56 -5 146v159z" />
  </g>

</svg>
