<?xml version="1.0" standalone="no"?>
<!DOCTYPE svg PUBLIC "-//W3C//DTD SVG 1.1//EN" "http://www.w3.org/Graphics/SVG/1.1/DTD/svg11.dtd" >
<svg xmlns="http://www.w3.org/2000/svg" xmlns:xlink="http://www.w3.org/1999/xlink" version="1.1" viewBox="0 -410 2048 2048">
  <g transform="matrix(1 0 0 -1 0 1638)">
   <path fill="currentColor"
d="M1065 1096q10 95 15 219l99 -19q72 -14 72 -36q0 -23 -46 -36l-26 -7q-6 -58 -13 -111q58 4 124 10l8 -42q-64 -14 -140 -28q-56 -332 -174 -534q25 -21 117 -84q144 -100 144 -188q0 -48 -45 -48q-19 0 -31 12l-30 38l-65 75q-43 51 -136 128q-152 -179 -385 -307
l-21 32q190 131 343 321q-140 87 -266 145q51 143 108 342l-80 -12l-15 -58q-7 -24 -21 -24t-35 42l-70 135q125 4 247 13q49 191 78 436l131 -42q49 -15 49 -42t-54 -37l-42 -7q-12 -53 -17 -79q-34 -167 -51 -223q51 3 77 4q80 5 151 12zM1056 1029q-42 -6 -114 -17
t-134 -20q-41 -141 -130 -341q114 -47 231 -100q113 213 147 478zM1491 245v-29q0 -43 -54 -43q-51 0 -51 46q0 12 4 48l4 70l6 121v793q0 46 -11 131l111 -74h252l68 74l84 -55q47 -30 47 -47t-12.5 -26t-72.5 -36v-880l45 -35q28 -21 28 -34q0 -24 -24 -24h-424zM1491 303
h280v948h-280v-948zM92 1511q99 -78 129 -110q91 -93 91 -167q0 -32 -20 -51q-14 -14 -31 -14t-27 13q-13 15 -28 80q-21 93 -137 227zM469 1679h666q-14 26 -23 66q-19 87 -99 177l23 27q90 -63 127 -98q58 -56 58 -109q0 -37 -26 -63h534l108 114l131 -114q23 -20 23 -32
q0 -26 -27 -26h-1503v-500l-4 -114q-8 -350 -83 -569q-82 -237 -267 -404l-27 27q143 164 213 406q36 122 56 290q3 24 10 134q2 32 6 67l-177 -205l-4 -49q-3 -41 -26 -41q-18 0 -30 18l-81 116q141 69 318 221v444q0 112 -7 292z" />
  </g>

</svg>
