<?xml version="1.0" standalone="no"?>
<!DOCTYPE svg PUBLIC "-//W3C//DTD SVG 1.1//EN" "http://www.w3.org/Graphics/SVG/1.1/DTD/svg11.dtd" >
<svg xmlns="http://www.w3.org/2000/svg" xmlns:xlink="http://www.w3.org/1999/xlink" version="1.1" viewBox="0 -410 2048 2048">
  <g transform="matrix(1 0 0 -1 0 1638)">
   <path fill="currentColor"
d="M1128 1214q-82 -168 -294 -297l-20 32q136 109 200 227q65 120 65 344v226q0 40 -8 118l114 -70h513l68 77l80 -54q43 -29 43 -48q0 -32 -77 -60v-675q0 -143 -158 -172q-2 68 -44 95q-32 21 -159 43l8 46q168 -27 201 -27q57 0 57 57v138h-589zM1717 1736h-542v-216h542
v216zM1173 1464q-9 -132 -26 -194h570v194h-544zM813 730q26 45 39 67q46 76 93 191l117 -53q33 -15 33 -34q0 -23 -39 -27l-48 -6q-50 -59 -138 -138h688l69 76l83 -54q41 -27 41 -49q0 -28 -78 -62v-266q0 -98 13 -219q3 -30 3 -50q0 -46 -56 -46q-55 0 -55 42v43h-1107
v-27q0 -54 -57 -54q-55 0 -55 45q0 18 4 50q13 95 13 209v246q-1 121 -11 203l114 -87h334zM471 672v-203h1107v203h-1107zM1578 201v210h-1107v-210h1107zM762 1126h-425v-24q0 -37 -49 -37q-63 0 -59 54l4 62l4 80l4 76v358q0 81 -13 177l120 -91h398l61 72l72 -49
q42 -29 42 -50q0 -17 -65 -53v-360q0 -70 10 -223q1 -8 1 -13q0 -46 -70 -46q-35 0 -35 25v42zM762 1479v245h-425v-245h425zM762 1422h-425v-240h425v240z" />
  </g>

</svg>
