<?xml version="1.0" standalone="no"?>
<!DOCTYPE svg PUBLIC "-//W3C//DTD SVG 1.1//EN" "http://www.w3.org/Graphics/SVG/1.1/DTD/svg11.dtd" >
<svg xmlns="http://www.w3.org/2000/svg" xmlns:xlink="http://www.w3.org/1999/xlink" version="1.1" viewBox="0 -410 2048 2048">
  <g transform="matrix(1 0 0 -1 0 1638)">
   <path fill="currentColor"
d="M1154 1028q292 -163 292 -303q0 -30 -24 -49q-12 -9 -26 -9q-21 0 -37 16q-13 14 -54 95q-51 103 -157 200q-27 -227 -85 -400q-60 -182 -166 -317q-71 -90 -220 -208l-21 30q186 192 261 351q147 315 176 1024h-101q-69 0 -149 -11l-39 86q125 -18 188 -18h104l1 29
l2 54l3 146q2 62 2 103q0 38 -5 67l110 -24q86 -18 86 -45q0 -29 -50 -42l-41 -11q-3 -172 -9 -277h318l67 76l84 -54q40 -26 40 -48q0 -28 -77 -62v-1144q0 -74 54 -74h46h61q60 0 75 63q14 63 35 229l34 -6l-4 -184q-1 -25 5 -43q5 -15 46 -51q13 -12 13 -28
q0 -71 -201 -71q-161 0 -203 18q-59 26 -59 111v1211h-338l-2 -22q-21 -283 -35 -408zM617 346h-365v-56q0 -54 -58 -54q-48 0 -48 46q0 16 2 50q1 18 3 70q1 28 2 57q3 63 3 83v1145q-4 70 -12 140l118 -83h341l64 77l84 -54q47 -31 47 -48q0 -25 -86 -62v-1115
q0 -5 4 -138q6 -83 6 -97q0 -68 -60 -68q-45 0 -45 51v56zM252 1309h365v378h-365v-378zM252 857h365v398h-365v-398zM252 402h365v401h-365v-401z" />
  </g>

</svg>
