<?xml version="1.0" standalone="no"?>
<!DOCTYPE svg PUBLIC "-//W3C//DTD SVG 1.1//EN" "http://www.w3.org/Graphics/SVG/1.1/DTD/svg11.dtd" >
<svg xmlns="http://www.w3.org/2000/svg" xmlns:xlink="http://www.w3.org/1999/xlink" version="1.1" viewBox="0 -140 1000 1000">
  <g transform="matrix(1 0 0 -1 0 860)">
   <path fill="currentColor"
d="M100 859l63 -34h134q21 24 32 24q27 0 65 -54q-14 -8 -31 -13l-2 -2l5 1l1 -621q0 -32 -56 -32q-5 0 -6 2t-1 10v33q-1 1 -1 3h-135q1 -5 1 -25q0 -19 -13 -30.5t-33 -11.5q-18 0 -19 22q0 -4 1 -4l-1 681q0 5 -2 28zM405 795v22h215v87q0 7 -5 45q92 -22 98 -28
q1 -2 1 -4q0 -4 -14.5 -11.5t-20.5 -7.5h4l-6 -3l6 1v-79h149q2 3 9 12.5t11 14.5t9.5 11.5t10.5 9.5t10 3q14 0 37 -24q20 -24 30 -35l-4 -14h-282q43 -34 43 -36q0 -3 -34 -12l-6 -2l-125 -143q82 -52 82 -94q0 -26 -26 -26q-24 0 -31 16l1 -1q-50 77 -67 94
q-18 18 -56 40l8 19q26 -13 62 -33l115 178h-224zM866 138h1q-88 104 -159 139q-129 -121 -318 -209l-13 15q157 79 255.5 175.5t190.5 258.5q78 -43 78 -53t-41 -10q-50 -73 -133 -159l125 -72q90 -59 90 -98q0 -24 -24 -24q-27 0 -52 37zM168 388v-190h135v190h-135z
M168 596v-186h135v186h-135zM168 803v-185h135v185h-135zM810 649h7q-95 -131 -180.5 -209.5t-218.5 -153.5l-13 16q231 137 379 420q77 -44 77 -59q0 -6 -51 -14zM663 746l9 1q-7 0 -9 -1z" />
  </g>

</svg>
