<?xml version="1.0" standalone="no"?>
<!DOCTYPE svg PUBLIC "-//W3C//DTD SVG 1.1//EN" "http://www.w3.org/Graphics/SVG/1.1/DTD/svg11.dtd" >
<svg xmlns="http://www.w3.org/2000/svg" xmlns:xlink="http://www.w3.org/1999/xlink" version="1.1" viewBox="0 -410 2048 2048">
  <g transform="matrix(1 0 0 -1 0 1638)">
   <path fill="currentColor"
d="M1193 1241l21 29q171 -94 171 -159q0 -35 -30 -50h418l60 71l78 -57q49 -35 49 -56q0 -24 -29 -29l-58 -9q-66 -78 -126 -137l-29 20q11 29 28 69q14 33 27 68h-878q-17 -84 -52 -130q-36 -46 -76 -46q-49 0 -49 44q0 15 9 25.5t65 60.5q51 46 76 185l38 -4
q-2 -25 -2 -37q0 -13 2 -38h400q-12 14 -28 66q-14 45 -85 114zM1665 1279h-678v-27q0 -33 -58 -33q-38 0 -38 51q0 15 2 37q5 67 5 142v252q0 93 -8 173l110 -75h653l61 71l72 -49q42 -29 42 -49q0 -16 -65 -53v-274q0 -81 6 -128q5 -46 5 -51q0 -48 -61 -48q-48 0 -48 34
v27zM1665 1742h-678v-178h678v178zM1665 1337v172h-678v-172h678zM1502 699q8 50 8 94q0 18 -2 43l135 -25q50 -10 50 -33t-37 -33l-41 -12l-7 -34h114l80 80l114 -86q17 -12 17 -26q0 -27 -27 -27h-311q-43 -193 -159 -307q408 -116 408 -225q0 -57 -51 -57q-18 0 -50 24
q-161 120 -376 202q-88 -62 -230 -114q-222 -81 -401 -106l-13 40q327 84 545 216q-115 38 -351 99q85 135 125 228h-105q-80 0 -149 -9l-39 86q125 -18 188 -18h128q26 69 71 246l122 -44q46 -17 46 -37q0 -26 -46 -35l-48 -11q-22 -60 -50 -119h342zM1491 640h-363
q-51 -88 -128 -195q124 -24 332 -82q71 64 104 121q31 55 55 156zM258 1738h315l60 77l84 -55q47 -30 47 -47q0 -26 -86 -63v-1091l2 -65q3 -87 5 -117q3 -36 3 -56q0 -66 -60 -66q-45 0 -45 51v41h-336v-29q0 -55 -56 -55q-49 0 -49 46q0 15 3 50q1 18 2 70q1 27 2 58
q3 61 3 83v1122q-8 102 -16 134zM247 1681v-367h336v367h-336zM247 1257v-383h336v383h-336zM247 819v-415h336v415h-336z" />
  </g>

</svg>
