<?xml version="1.0" standalone="no"?>
<!DOCTYPE svg PUBLIC "-//W3C//DTD SVG 1.1//EN" "http://www.w3.org/Graphics/SVG/1.1/DTD/svg11.dtd" >
<svg xmlns="http://www.w3.org/2000/svg" xmlns:xlink="http://www.w3.org/1999/xlink" version="1.1" viewBox="0 -410 2048 2048">
  <g transform="matrix(1 0 0 -1 0 1638)">
   <path fill="currentColor"
d="M462 1679q-43 -194 -57 -247q-26 -93 -87 -262l48 -32h241l61 73l72 -49q40 -27 40 -48q0 -26 -69 -58v-742l41 -33q23 -19 23 -35q0 -18 -23 -18h-408v-50q0 -41 -57 -41q-50 0 -50 44l12 206v623q-70 -144 -172 -280l-29 26q226 384 310 923h-101q-66 0 -149 -11
l-39 86q121 -18 188 -18h307l98 101l121 -107q17 -14 17 -25q0 -26 -27 -26h-311zM344 286h275v796h-275v-796zM967 161v1073q0 75 -14 133l118 -87h527l69 77l83 -55q41 -26 41 -48q0 -27 -78 -61v-1032h46l99 102l120 -107q18 -16 18 -25q0 -27 -28 -27h-1020
q-66 0 -149 -11l-39 85q119 -17 188 -17h19zM1063 934h554v289h-554v-289zM1063 878v-333h554v333h-554zM1063 491v-330h554v330h-554zM1670 1649h85l86 91l108 -80q33 -23 33 -42q0 -26 -28 -26h-290l-22 -172q-5 -42 -47 -42q-53 0 -49 38q0 2 1 12l22 164h-22
q-44 0 -129 -11l-40 86q27 -3 41 -5q37 -5 98 -10l30 -3h27l11 125q4 63 10 129l105 -25q70 -17 70 -45q0 -20 -39 -29l-45 -11zM1122 1649h29l81 81l114 -86q17 -13 17 -26q0 -26 -27 -26h-214l16 -164q0 -9 1 -13q2 -45 -49 -45q-45 0 -48 39l-10 183h-27q-63 0 -148 -11
l-40 86q127 -18 188 -18h23l-10 117q-2 67 -10 137l89 -16q86 -15 86 -43q0 -20 -32 -32l-42 -16z" />
  </g>

</svg>
