<?xml version="1.0" standalone="no"?>
<!DOCTYPE svg PUBLIC "-//W3C//DTD SVG 1.1//EN" "http://www.w3.org/Graphics/SVG/1.1/DTD/svg11.dtd" >
<svg xmlns="http://www.w3.org/2000/svg" xmlns:xlink="http://www.w3.org/1999/xlink" version="1.1" viewBox="0 -140 1000 1000">
  <g transform="matrix(1 0 0 -1 0 860)">
   <path fill="currentColor"
d="M392 622v23h127v178q-44 -23 -92 -41l-9 15q103 55 183 158l41 -24h-1q30 -20 30 -21q0 -8 -36 -14h3l-14 -4h2l-49 -28l6 1v-220h100q-6 108 -6 270q0 30 1 39l54 -13q8 -1 24.5 -8.5t16.5 -12.5q0 -9 -31 -16l-1 -1h2q-3 -55 -3 -109q0 -74 3 -149h87q33 46 46 46
q5 0 11 -3.5t15 -10.5t15 -12t17 -15.5t14 -13.5l-4 -14h-201q12 -157 37 -233q29 52 71 179q76 -37 76 -45t-28 -15h2l-12 -3h7l-5 -9q-61 -120 -92 -164q10 -28 40 -80.5t40 -53.5q4 7 10 23h-1l28 99l31 -15q-27 -105 -27 -126q0 -22 16 -41h-1q15 -15 15 -26
q0 -13 -24 -13q-36 0 -84.5 59t-78.5 125q-39 -49 -144 -126l-16 15q84 68 141 159l-1 -1q-45 114 -59 292h-101v-175l97 45l10 -15l-113 -65l6 1q0 -77 1 -138v-139q0 -25 -29.5 -45t-58.5 -20q-22 0 -22 28q0 12 -5 14l-81 21l4 12q101 -11 109 -11q13 0 15.5 9.5
t2.5 49.5v186l-61 -41l5 1q0 -1 -1 -5.5t-1 -6.5t-1 -6t-2 -6l-2.5 -5t-3 -4.5l-3.5 -3.5t-5 -2.5t-6 -0.5t-6 0.5t-5.5 1t-5 2.5t-4.5 3.5t-4.5 4.5t-4 5.5t-4 7.5t-4.5 8.5l-6 10.5t-6 12l131 63v203h-127zM312 721l35 49q6 8 18 8q17 0 81 -64l-5 -15h-164v-533l2 -68
q0 -6 -18.5 -16.5t-28.5 -10.5q-20 0 -20 39q0 3 1 19.5t1 18.5v551h-151v22h249zM379 576l8 1l1 -341q0 -9 -17.5 -21t-29.5 -12t-16 4h2q-6 6 -5 6l1 50v321q0 3 -2 22.5t-2 22.5q100 -21 100 -33q0 -4 -40 -20zM180 584h2q-10 -4 -14 -7l6 1q-4 -266 -75 -439l-26 16
q40 117 40 335q0 74 -6 149q94 -25 94 -36q0 -6 -21 -19zM79 890h194l36 48q7 10 19 10q4 0 9 -2t11 -7t11 -9t12.5 -11.5l12 -12t12 -12.5t10.5 -11l-10 -16h-317v23zM777 844l12 15q118 -58 118 -107q0 -25 -27 -25q-19 0 -30 23q-36 69 -73 94zM325 208h-2q1 0 1 1
q0 -1 1 -1zM321 211h1h-1z" />
  </g>

</svg>
