<?xml version="1.0" standalone="no"?>
<!DOCTYPE svg PUBLIC "-//W3C//DTD SVG 1.1//EN" "http://www.w3.org/Graphics/SVG/1.1/DTD/svg11.dtd" >
<svg xmlns="http://www.w3.org/2000/svg" xmlns:xlink="http://www.w3.org/1999/xlink" version="1.1" viewBox="0 -204 1024 1024">
  <g transform="matrix(1 0 0 -1 0 820)">
   <path fill="currentColor"
d="M418 972l63 -30h391l35 33q51 -36 51 -50q0 -10 -30 -25v-103q0 -23 1 -30q1 -8 1 -16q0 -21 -34 -27q-16 0 -16 10v24h-188v-92h108l41 45q34 -25 64 -49q7 -4 7 -10q0 -14 -14 -14h-206v-96h176l41 45q34 -25 64 -49q7 -4 7 -10q0 -14 -14 -14h-160q28 -9 50 -20
q6 -5 6 -10q0 -10 -12 -14q-21 -6 -38 -6l-15 -27q-8 -13 -18 -27q-9 -12 -19 -22l-6 -6h82l41 45q34 -25 64 -49q7 -4 7 -10q0 -14 -14 -14h-242v-116h188l41 45q34 -25 64 -49q7 -4 7 -10q0 -14 -14 -14h-286v-76q0 -23 1 -31v-29q0 -34 -30 -34q-26 0 -26 18q0 20 3 54
q4 34 4 60v38h-167q-71 -2 -97 -7l-20 47q44 -12 117 -12h167v116h-115q-71 -2 -97 -7l-20 47q44 -12 117 -12h38q-2 7 -3 13q-5 21 -15 41t-22 38q-11 18 -31 39l1 1h-12q-71 -2 -97 -7l-20 47q44 -12 117 -12h159v96h-91q-71 -2 -97 -7l-20 47q44 -12 117 -12h91v92h-176
v-12q0 -10 -12 -16q-15 -6 -25 -6q-13 0 -13 14q0 4 1 14q1 23 1 42v110q0 49 -2 68zM603 382h118q12 16 19 32l18 42q8 22 13 44q2 7 2 14h-245q15 -12 26 -23q20 -16 32 -31q13 -15 18 -27q4 -10 4 -21q0 -19 -5 -30zM468 786h112v128h-112v-128zM628 786h100v128h-100
v-128zM776 786h104v128h-104v-128zM324 916q-36 -15 -73 -26q-6 -2 -11 -3v-165h44l41 45q34 -25 64 -49q7 -4 7 -10q0 -14 -14 -14h-142v-105q29 -18 51 -37q27 -20 42 -35q16 -13 23 -23q6 -9 9 -18q3 -8 3 -16q-1 -32 -24 -32q-5 0 -10 4t-22 36q-17 30 -38 55
q-14 17 -34 36v-421q0 -23 1 -31v-29q0 -34 -30 -34q-26 0 -26 18q0 20 3 54q4 34 4 60v361q-14 -41 -30 -77q-20 -47 -46 -96q-26 -45 -63 -96l-13 18q31 56 53 109q21 49 39 109q16 49 28 105q10 46 16 85h-15q-71 -2 -97 -7l-20 47q44 -12 117 -12h31v154l-36 -6
q-40 -6 -101 -10l-7 23q32 3 67 10q34 7 65 18q34 10 58 22q24 10 39 23q13 9 24 20q39 -23 69 -47q5 -4 5 -8q0 -12 -15 -12q-14 0 -36 7z" />
  </g>

</svg>
