<?xml version="1.0" standalone="no"?>
<!DOCTYPE svg PUBLIC "-//W3C//DTD SVG 1.1//EN" "http://www.w3.org/Graphics/SVG/1.1/DTD/svg11.dtd" >
<svg xmlns="http://www.w3.org/2000/svg" xmlns:xlink="http://www.w3.org/1999/xlink" version="1.1" viewBox="0 -410 2048 2048">
  <g transform="matrix(1 0 0 -1 0 1638)">
   <path fill="currentColor"
d="M846 887l-551 -35q-45 -5 -91 -10l-33 -4l-43 70h44q47 0 111 4l547 34q-18 78 -28 141q-22 141 -34 208l125 -12q69 -6 69 -31q0 -19 -39 -37l-41 -19q34 -189 48 -243l730 45l87 105l130 -93q28 -20 28 -32q0 -23 -28 -25l-931 -60q75 -241 215 -406q285 182 432 372
l86 -68q54 -42 54 -66q0 -25 -36 -25q-14 0 -34 2l-39 5q-219 -188 -396 -289q136 -127 324 -203q167 -68 229 -68q31 0 51 57q13 37 37 133q13 50 25 93l37 -6q-6 -46 -8 -69q-9 -79 -11 -98q-5 -36 -5 -60q0 -45 46 -98q10 -12 10 -27q0 -47 -94 -47q-128 0 -340 87
q-233 95 -392 255q-355 -190 -975 -261l-2 40q394 82 584 144q182 60 331 145q-145 180 -229 452zM1200 1336q27 -9 41 -14q101 -34 179 -70q113 -53 113 -115q0 -47 -46 -47q-29 0 -74 52q-68 78 -228 164zM1248 1649q-124 -152 -265 -246l-23 29q233 225 327 491l109 -47
q49 -21 49 -42q0 -23 -49 -30l-40 -5q-35 -54 -64 -94h461l99 101l120 -105q17 -15 17 -26q0 -26 -34 -26h-707zM1427 1594q249 -107 249 -197q0 -49 -48 -49q-32 0 -58 50q-46 92 -161 169zM548 1587q99 -44 135 -65q114 -66 114 -133q0 -49 -47 -49q-34 0 -59 50
q-35 69 -80 109q-28 25 -82 61zM381 1644q-133 -185 -324 -318l-24 31q251 211 381 571l106 -48q45 -20 45 -42q0 -26 -45 -30l-34 -3l-38 -59l-31 -46h392l98 102l121 -107q17 -15 17 -26q0 -25 -34 -25h-630z" />
  </g>

</svg>
