<?xml version="1.0" standalone="no"?>
<!DOCTYPE svg PUBLIC "-//W3C//DTD SVG 1.1//EN" "http://www.w3.org/Graphics/SVG/1.1/DTD/svg11.dtd" >
<svg xmlns="http://www.w3.org/2000/svg" xmlns:xlink="http://www.w3.org/1999/xlink" version="1.1" viewBox="0 -140 1000 1000">
  <g transform="matrix(1 0 0 -1 0 860)">
   <path fill="currentColor"
d="M249 659l15 99q79 -25 79 -34q0 -2 -39 -16l4 1l-23 -50h63q22 27 35 27t40 -27h-1q11 -11 20 -19q0 -4 -21 -12h1q-1 -1 -13 -8l6 1v-169l67 5v-4q62 54 62 184q0 33 -4 80l69 -37h126q25 24 38 24q8 0 16 -5h-4l7 -3q4 0 5 -1h-1q40 -33 40 -39q0 -13 -40 -22l8 1v-61
q0 -46 2.5 -54t17.5 -8h38q14 0 19.5 7.5t9.5 28.5l18 81l33 6q-8 -85 -8 -92q0 -20 10 -29t10 -15q0 -17 -14 -21.5t-56 -4.5h-66q-55 0 -66.5 17.5t-11.5 87.5v79h-132q-2 -100 -36 -153t-124 -95l-7 16q12 7 25 16l-51 -7q0 -82 1 -149v-149q0 -20 -6.5 -27t-36.5 -24
q-20 -11 -32 -11q-21 0 -22 12q-1 6 -2 12.5t-2 9.5l-1 3l-82 13l1 16l89 -7q17 0 25 11l-2 -1q6 11 6 62v219l-27 -5q4 -4 4 -9q0 -1 -4 -5t-12 -9.5t-16 -6.5h4l-6 -3l6 1v-100q0 -3 1.5 -15.5t1.5 -14.5q0 -12 -15.5 -19t-32.5 -7q-18 0 -18 14q0 1 2 9h-1q1 10 1 48
q0 90 -5 100l-40 -2q-11 -180 -102 -334l-24 11q36 74 51 144t18 169l-18 -3l9 1l-6 -8l3 1q-6 -25 -25 -25q-18 0 -27 27l-9 40l74 6q-2 96 -13 262l64 -32h60zM835 444h-7q15 -3 34.5 -25t19.5 -29q0 -3 -10 -6.5t-20 -5.5l-9 -2q-39 -95 -137 -182q95 -84 241 -92l-1 -10
q-24 -1 -49 -14t-34 -13q-41 0 -121 49h1q-45 27 -75 54q-96 -64 -261 -99l-7 12q136 35 240 115q-68 83 -109 202h-33v23h283q19 31 35 31q13 0 19 -8zM194 435l157 12v190h-156v-60t-0.5 -84t-0.5 -58zM603 898h2l-8 -2h4q-17 -26 -34 -47h247q2 2 6 8t6.5 9t7 8.5t7 8
l6.5 6.5t7.5 6t7.5 3.5t7 1.5q16 0 70 -58l-7 -16h-235q47 -50 47 -84q0 -11 -9 -20t-19 -9q-22 0 -34 42q-16 61 -22 71h-105q-30 -36 -84 -82l-17 15q64 70 105 193q74 -32 74 -42q0 -4 -30 -12zM251 895h5l-5 -6h1q-19 -23 -22 -28h1l-9 -8h1l-1 -1h164l33 39h-1
q8 11 23 11q13 0 70 -57l-8 -16h-186l6 -5h-1q47 -37 53 -47q5 -9 5 -20q0 -23 -24 -23q-6 0 -11.5 3t-11.5 9.5t-10.5 12t-11 17t-10 17t-10.5 19t-9 17.5h-73q-43 -44 -125 -118l-17 17q98 89 145 224q77 -33 77 -41q0 -5 -29 -13zM778 398h-207q45 -112 101 -173
q75 75 106 173zM214 588l13 15q105 -59 105 -100q0 -12 -8.5 -23t-19.5 -11q-22 0 -38 42q-19 48 -52 77z" />
  </g>

</svg>
