<?xml version="1.0" standalone="no"?>
<!DOCTYPE svg PUBLIC "-//W3C//DTD SVG 1.1//EN" "http://www.w3.org/Graphics/SVG/1.1/DTD/svg11.dtd" >
<svg xmlns="http://www.w3.org/2000/svg" xmlns:xlink="http://www.w3.org/1999/xlink" version="1.1" viewBox="0 -140 1000 1000">
  <g transform="matrix(1 0 0 -1 0 860)">
   <path fill="currentColor"
d="M294 877l10 14h-1q5 9 20 9q10 0 21 -8l30 -24q15 -12 15 -18q0 -8 -42 -16l8 1v-672q0 -34 -6.5 -50t-29.5 -31h1q-27 -18 -49 -18q-17 0 -21 5t-4 16q0 16 -4 17l-74 22l2 13l83 -8q7 -1 17 -1q16 0 19.5 10t3.5 53v251h-110q-5 -124 -28 -207.5t-73 -162.5l-26 13
q17 34 28.5 70.5t16 57.5t15.5 79q16 127 16 359v213l-6 53l63 -40h105zM630 940l57 -4q38 -3 38 -20q0 -15 -31 -25v-426q0 -47 -8.5 -67t-37.5 -34q-25 -11 -39 -11q-18 0 -18 13q-1 25 -22 32l-77 26l5 15l96 -17q18 -2 19 -2q14 0 17 13t3 46zM819 521l46 -33
q32 -23 32 -30q0 -9 -34 -13q-39 -72 -81 -125t-103 -104t-147 -90.5t-199 -69.5l-6 16q38 11 63.5 19.5t78 33t93.5 53t91.5 78t91.5 110.5q33 50 74 155zM186 465h107v186h-101q0 -18 -6 -186zM193 854v-180h100v180h-100zM544 751l8 1q-45 -149 -130 -280l-26 18
q67 123 102 323l45 -20q44 -20 44 -25q0 -7 -43 -17zM746 791l17 16q88 -75 128 -127t40 -98q0 -18 -10 -30.5t-24 -12.5q-23 0 -31 27q-23 86 -42.5 122t-77.5 103z" />
  </g>

</svg>
