<?xml version="1.0" standalone="no"?>
<!DOCTYPE svg PUBLIC "-//W3C//DTD SVG 1.1//EN" "http://www.w3.org/Graphics/SVG/1.1/DTD/svg11.dtd" >
<svg xmlns="http://www.w3.org/2000/svg" xmlns:xlink="http://www.w3.org/1999/xlink" version="1.1" viewBox="0 -204 1024 1024">
  <g transform="matrix(1 0 0 -1 0 820)">
   <path fill="currentColor"
d="M469 612h20q0 -86 -10 -144q-6 -43 -18 -75q-10 -29 -27 -48q-8 -11 -17 -17q-8 -7 -18 -7q-26 0 -26 23q0 6 6 14q28 36 45 67q18 37 28 77q12 43 17 110zM95 965l58 -38h148l35 42q37 -24 54 -43q7 -7 7 -14q0 -9 -39 -31v-745q0 -35 -14 -52q-10 -15 -32 -25
q-18 -11 -32 -11q-5 23 -17 35q-13 15 -31 19q-27 13 -64 15v25q65 -15 122 -15q12 0 16 5q5 6 5 27v327q-14 -15 -26 -25q-25 -23 -46 -38q-21 -17 -42 -29q-11 -32 -17 -32t-35 56q-1 -28 -2 -51q-3 -56 -12 -113q-5 -45 -16 -85q-11 -36 -28 -68q-13 -27 -38 -57l-13 11
q12 25 22 55q10 25 17 56q7 33 12 76q5 50 8 102q4 70 4 157q1 290 -4 464zM146 441q30 8 54 18q26 9 58 27q26 14 53 32v113q-4 -2 -8 -2t-14 5q-41 27 -85 46q-32 14 -57 22v-201q0 -32 -1 -60zM147 727q50 -4 80 -11q41 -9 61 -21q16 -9 23 -18v221h-164v-171zM553 772
q51 -8 87 -19q10 -3 10 -14q0 -9 -10 -13q-15 -5 -33 -8v-388q5 6 9 10q31 48 64 103q28 57 56 127q31 70 51 141q22 76 32 126q10 51 10 96q53 -14 81 -30q18 -6 18 -16t-10 -14q-20 -7 -37 -11q-21 -83 -41 -154q-30 -84 -68 -174q-37 -84 -74 -145q-36 -59 -82 -107
q-5 -6 -9 -12v-93q0 -17 7 -24q11 -9 32 -12q26 -8 82 -8q41 0 66 3q18 3 30 12q12 7 16 29q8 33 15 163l21 -6q-3 -72 -3 -140q0 -15 8 -20q3 -6 17 -12q17 -8 17 -23q0 -10 -11 -17q-13 -13 -35 -20q-26 -7 -62 -9q-40 -5 -79 -5q-57 0 -88 5q-40 6 -52 15q-15 7 -22 22
q-7 14 -7 32v57q-17 -17 -37 -33q-52 -48 -119 -90l-19 23q84 57 135 114q23 19 40 38v432q0 43 -6 69zM582 929q61 -36 97 -73q32 -29 46 -56q11 -22 11 -40q0 -36 -24 -36q-10 0 -18 6t-15 28q-21 50 -44 82q-25 35 -68 70zM857 612q48 -52 76 -105q23 -42 36 -84
q8 -31 8 -59q0 -35 -26 -35q-7 0 -13 9q-4 7 -11 39q-16 73 -33 117q-18 49 -50 100z" />
  </g>

</svg>
