<?xml version="1.0" standalone="no"?>
<!DOCTYPE svg PUBLIC "-//W3C//DTD SVG 1.1//EN" "http://www.w3.org/Graphics/SVG/1.1/DTD/svg11.dtd" >
<svg xmlns="http://www.w3.org/2000/svg" xmlns:xlink="http://www.w3.org/1999/xlink" version="1.1" viewBox="0 -204 1024 1024">
  <g transform="matrix(1 0 0 -1 0 820)">
   <path fill="currentColor"
d="M91 965l59 -38h148l34 42q37 -24 54 -43q7 -7 7 -14q0 -9 -39 -31v-753q0 -35 -14 -51q-13 -18 -37 -26q-20 -11 -36 -11q-4 23 -13 36q-14 14 -30 19q-26 12 -60 14v25q62 -14 114 -14q18 0 23 4q6 6 6 27v325q-14 -12 -26 -22q-25 -20 -48 -34q-19 -15 -40 -26
q-11 -32 -17 -32t-34 54q-1 -38 -3 -72q-3 -51 -11 -104q-6 -42 -17 -79q-11 -34 -27 -64q-14 -25 -39 -53l-13 11q12 24 22 51q8 23 17 52q7 29 13 69q4 48 7 97q4 63 4 144q1 310 -4 497zM143 441q29 7 53 16q26 8 59 23q25 13 52 28v114q-3 -1 -8 -1q-3 0 -15 6
q-41 34 -86 58q-29 18 -55 26v-270zM143 738q46 -5 78 -14q42 -10 63 -26q17 -11 23 -22v222h-164v-160zM427 919q41 -9 116 -9h335l36 33q35 -20 55 -39q8 -10 8 -13q0 -12 -39 -28q-6 -111 -18 -188q-15 -81 -28 -118q-15 -33 -32 -49q-18 -18 -39 -31q-18 -9 -29 -9
q0 18 -9 31t-100 49l5 20q84 -32 113 -32q12 0 23 6q9 2 16 14q10 14 19 50q10 34 19 103q9 65 13 174h-212q-6 -64 -17 -114q-12 -56 -34 -100q-21 -51 -47 -89q-27 -39 -68 -72q-41 -36 -98 -62l-16 18q61 37 95 73q34 34 58 71q5 11 8 18q-3 2 -4 3q-5 4 -25 35
q-19 29 -43 54q-22 24 -64 56l11 15q39 -22 70 -43q30 -21 46 -35t26 -24q6 -8 9 -15q3 7 5 11q15 40 25 94q9 44 15 106h-88q-80 0 -98 -7zM454 400h19q0 -75 -9 -125q-6 -38 -18 -66q-9 -27 -22 -42q-8 -11 -17 -16q-8 -7 -16 -7q-24 0 -24 23q0 4 5 12q25 31 41 59
q17 30 25 65q11 38 16 97zM527 421q57 -12 93 -31q7 -4 7 -11q0 -6 -12 -11q-16 -10 -35 -14v-189q0 -24 5 -31q12 -12 35 -15q28 -2 76 -2q63 0 86 4q25 3 32 21q16 28 32 126l17 -5l-4 -102q0 -17 13 -28q24 -14 24 -24q0 -12 -15 -17q-15 -8 -59 -11q-51 -8 -135 -8
q-52 0 -95 4q-34 2 -48 17q-13 14 -13 43v215q0 35 -4 69zM633 484q36 -22 63 -47q29 -21 43 -39q17 -15 25 -24q4 -10 8 -21q3 -8 3 -16q-1 -33 -23 -33q-7 0 -12 4q-4 5 -21 39q-19 33 -39 61q-23 26 -60 61zM871 388q28 -30 51 -60q23 -29 39 -56q16 -26 21 -47
q5 -18 5 -38q0 -18 -5 -26q-7 -12 -18 -12q-9 0 -14 7q-5 6 -10 31q-5 34 -17 66q-14 33 -27 61q-15 28 -41 63z" />
  </g>

</svg>
