<?xml version="1.0" standalone="no"?>
<!DOCTYPE svg PUBLIC "-//W3C//DTD SVG 1.1//EN" "http://www.w3.org/Graphics/SVG/1.1/DTD/svg11.dtd" >
<svg xmlns="http://www.w3.org/2000/svg" xmlns:xlink="http://www.w3.org/1999/xlink" version="1.1" viewBox="0 -204 1024 1024">
  <g transform="matrix(1 0 0 -1 0 820)">
   <path fill="currentColor"
d="M92 964l57 -38h145l34 42q37 -23 55 -43q7 -7 7 -13q0 -9 -39 -32v-752q0 -35 -15 -52q-13 -16 -36 -25q-21 -11 -36 -11q-3 22 -14 35q-13 15 -28 20q-25 11 -58 13v26q61 -15 110 -15q18 0 24 5q6 6 6 26v326q-14 -14 -26 -23q-23 -19 -44 -34q-19 -15 -41 -25
q-10 -33 -16 -33t-34 55l-3 -72q-3 -52 -12 -105q-6 -42 -17 -79q-10 -33 -27 -63q-14 -26 -38 -53l-14 11q13 23 23 50q9 24 16 52q7 30 13 70q5 47 8 96q4 64 4 145q0 310 -4 496zM144 441q28 6 51 15q26 8 58 24q23 11 51 28v121q-3 -1 -8 -1q-4 0 -15 5q-41 29 -85 49
q-28 14 -52 21v-262zM144 730q45 -4 76 -12q41 -9 60 -21q17 -9 24 -20v221h-160v-168zM498 964q31 -20 55 -40q25 -19 38 -32q14 -13 20 -22q5 -8 8 -17q3 -6 3 -14q-1 -35 -26 -35q-5 0 -9 4t-19 33t-33 52q-19 25 -51 55zM797 968q49 -14 88 -33q7 -6 7 -11
q0 -10 -13 -15q-23 -6 -42 -6q-9 -15 -21 -28l-25 -28q-13 -12 -27 -22q-12 -10 -33 -21l-19 14q18 16 31 35q15 21 27 43q13 24 22 47q4 12 5 25zM420 794q40 -8 115 -8h317l35 33q51 -36 51 -50q0 -10 -30 -25v-109l31 -24q5 -3 5 -7q0 -14 -10 -14h-238v-144h190l33 29
q35 -21 54 -39q8 -10 8 -14q0 -12 -38 -27q-6 -71 -17 -120q-13 -51 -25 -74q-13 -22 -27 -32q-17 -11 -36 -19q-16 -6 -26 -6q0 15 -5 24q-5 11 -59 39l5 21q51 -17 68 -17q11 0 20 3q7 2 12 10q8 8 17 28q8 21 14 60q8 39 11 102l-2 4h-197v-280q0 -23 1 -31v-29
q0 -34 -30 -34q-26 0 -26 18q0 20 3 54q4 34 4 60v207q-14 -28 -30 -51q-29 -45 -65 -82q-30 -34 -70 -69q-40 -32 -98 -69l-13 18q54 40 91 77q37 35 67 77q28 34 48 74q18 32 28 60h-156q-5 -14 -30 -14q-22 0 -22 10q0 4 2 8q2 3 7 21q9 32 16 74q5 34 10 73q4 34 5 60
l56 -32h154v140h-113q-80 0 -97 -7zM696 758v-140h164v140h-164zM648 446v144h-168q-5 -54 -10 -85q-5 -29 -13 -59h191z" />
  </g>

</svg>
