<?xml version="1.0" standalone="no"?>
<!DOCTYPE svg PUBLIC "-//W3C//DTD SVG 1.1//EN" "http://www.w3.org/Graphics/SVG/1.1/DTD/svg11.dtd" >
<svg xmlns="http://www.w3.org/2000/svg" xmlns:xlink="http://www.w3.org/1999/xlink" version="1.1" viewBox="0 -410 2048 2048">
  <g transform="matrix(1 0 0 -1 0 1638)">
   <path fill="currentColor"
d="M901 1198q89 -13 156 -13h493l94 90l113 -96q18 -14 18 -25q0 -26 -28 -26h-110v-697h98l95 95l103 -91q31 -27 31 -39q0 -24 -26 -24h-301v-88q0 -7 7 -144q5 -52 5 -59q0 -43 -52 -43q-56 0 -56 42v292h-571q-77 0 -157 -7l-40 88q81 -22 170 -22h61v697q-30 -3 -67 -3
q-20 0 -44 -5l-25 59l-19 -11q-40 -23 -72 -40l-23 34q267 177 409 433h-177q-74 0 -149 -10l-39 85q121 -18 188 -18h201q55 133 72 257l109 -25q71 -17 71 -41q0 -25 -56 -37l-38 -8q-23 -72 -53 -146h409l98 102l121 -106q17 -15 17 -26q0 -27 -27 -27h-412
q93 -132 185 -207q120 -97 294 -150v-35q-60 -9 -82 -26q-15 -12 -30 -40q-172 117 -255 211q-69 79 -166 247h-175q-104 -179 -212 -278q-73 -66 -156 -119zM1099 431h442v202h-442v-202zM1541 1128h-442v-190h442v190zM1541 879h-442v-187h442v187zM631 952
q-95 -75 -259 -177l5 -42q1 -11 -6.5 -22.5t-16.5 -11.5q-17 0 -44 34l-43 54q-1 -24 -3 -71q-10 -197 -53 -363q-34 -134 -113 -298l-36 14q87 259 106 603q8 144 8 207v836q0 83 -13 172l109 -77h339l68 77l81 -55q43 -30 43 -49q0 -32 -77 -59v-1498q0 -145 -159 -171
q-2 67 -43 93q-33 21 -159 43l7 42q167 -27 203 -27q56 0 56 58v688zM631 1003v201q-16 -21 -39 -21q-25 0 -55 30q-84 85 -265 139v-349l-2 -142q0 -2 2 -19q159 52 359 161zM631 1280v471h-359v-354q39 -7 59 -11q117 -20 197 -43q75 -22 103 -63z" />
  </g>

</svg>
