<?xml version="1.0" standalone="no"?>
<!DOCTYPE svg PUBLIC "-//W3C//DTD SVG 1.1//EN" "http://www.w3.org/Graphics/SVG/1.1/DTD/svg11.dtd" >
<svg xmlns="http://www.w3.org/2000/svg" xmlns:xlink="http://www.w3.org/1999/xlink" version="1.1" viewBox="0 -410 2048 2048">
  <g transform="matrix(1 0 0 -1 0 1638)">
   <path fill="currentColor"
d="M1751 932l68 76l84 -54q40 -26 40 -48q0 -28 -78 -62v-630q0 -143 -155 -171q-11 70 -44 92t-162 45l7 45q165 -27 201 -27q57 0 57 58v618h-818v-749q0 -58 -4 -65q-8 -13 -38 -13q-59 0 -59 55q0 21 3 68q7 109 7 206v512q0 77 -15 137l119 -93h787zM1487 686l61 72
l72 -50q43 -29 43 -50q0 -15 -66 -52v-186q48 -34 48 -54q0 -25 -42 -25h-410v-31q0 -31 -50 -31t-50 43q0 5 4 50q6 94 6 105v273l122 -64h262zM1197 632v-235h307v235h-307zM1580 1439l61 72l72 -50q42 -28 42 -49q0 -16 -66 -53v-172q49 -34 49 -54q0 -25 -43 -25h-585
v-38q0 -31 -50 -31t-50 43q0 5 4 50q6 97 6 105v266l109 -64h451zM1110 1385v-221h483v221h-483zM1394 1676h308l98 102l121 -107q17 -15 17 -26q0 -26 -27 -26h-859q-121 0 -193 -8l-38 88q100 -23 231 -23h306q-26 17 -44 74q-28 84 -114 156l28 32q96 -57 138 -92
q65 -54 65 -111q0 -43 -37 -59zM606 950q-84 -71 -244 -171l6 -42v-2l-1 -3q-1 -25 -22 -25t-44 30l-51 63q-8 -208 -34 -343q-34 -188 -135 -398l-36 14q54 159 74 284q22 134 32 317q8 144 8 207v837q0 85 -13 174l109 -78h331l68 76l77 -54q43 -30 43 -48q0 -33 -77 -60
v-1498q0 -145 -154 -171q-3 67 -44 93q-32 21 -158 43l8 42q165 -27 200 -27q57 0 57 57v683zM606 1303v452h-351v-327q149 -26 213 -43q104 -27 138 -82zM606 1010v231q-14 -26 -34 -26q-24 0 -86 56q-57 53 -231 113v-378q0 -18 -3 -163q207 82 354 167z" />
  </g>

</svg>
