<?xml version="1.0" standalone="no"?>
<!DOCTYPE svg PUBLIC "-//W3C//DTD SVG 1.1//EN" "http://www.w3.org/Graphics/SVG/1.1/DTD/svg11.dtd" >
<svg xmlns="http://www.w3.org/2000/svg" xmlns:xlink="http://www.w3.org/1999/xlink" version="1.1" viewBox="0 -410 2048 2048">
  <g transform="matrix(1 0 0 -1 0 1638)">
   <path fill="currentColor"
d="M1653 645q-36 -182 -159 -310q200 -65 307 -122q91 -49 91 -110q0 -17 -12 -31q-14 -18 -33 -18q-35 0 -131 68q-83 58 -280 143l-16 7q-233 -156 -657 -224l-8 39q235 55 359 106q110 46 213 116q-198 73 -419 114q90 116 154 222h-154q-79 0 -153 -10l-39 86
q123 -17 188 -17h189q50 111 82 196l125 -57q40 -17 40 -38q0 -27 -40 -31l-53 -6l-39 -64h349l3 28q6 46 12 95l121 -27q56 -13 56 -37q0 -22 -35 -31l-42 -11l-6 -17h110l95 91l110 -97q18 -15 18 -25q0 -28 -30 -28h-316zM1547 645h-375q-81 -110 -170 -194
q226 -38 393 -86q58 58 93 117q33 56 59 163zM986 1181l91 -54q19 -12 19 -30q0 -25 -29 -25h-56q-116 -136 -276 -227l-21 35q178 155 250 301h-44q-1 0 -11 -19q-6 -12 -34 -12q-57 0 -57 37q0 4 4 41l1 30l3 49v578l115 -70h242l65 70l83 -48q40 -24 40 -49
q0 -24 -74 -61v-432q0 -36 4 -72q4 -38 4 -44q0 -41 -60 -41q-44 0 -44 24v19h-215zM920 1375v-138h281v138h-281zM920 1429h281v138h-281v-138zM920 1623h281v134h-281v-134zM1578 1181l91 -54q19 -12 19 -30q0 -25 -29 -25h-56q-101 -123 -249 -212l-21 35
q162 149 223 286h-56q-1 0 -11 -19q-6 -12 -33 -12q-57 0 -57 36q0 5 3 42l1 30l3 49v578l116 -70h257l65 70l82 -48q41 -24 41 -49q0 -24 -74 -61v-432q3 -69 3 -72q5 -39 5 -44q0 -41 -63 -41q-34 0 -39 27l-3 16h-218zM1500 1375v-138h296v138h-296zM1500 1429h296v138
h-296v-138zM1500 1623h296v134h-296v-134zM1144 1120q197 -87 197 -164q0 -46 -42 -46q-20 0 -34 18q-4 5 -25 47q-33 63 -112 118zM1718 1127q219 -96 219 -186q0 -46 -42 -46q-22 0 -38 20q-5 6 -28 53q-35 69 -127 133zM559 927q-86 -78 -184 -146q-6 -76 -27 -76
q-18 0 -40 39l-44 78q-12 -244 -39 -388q-40 -214 -134 -381l-35 13q61 172 89 369q36 252 36 586v577q0 178 -10 280l110 -69h257l68 77l83 -56q41 -27 41 -48q0 -28 -78 -62v-1531q0 -119 -142 -143q0 48 -17 67q-28 32 -118 50l7 42q92 -19 127 -19q50 0 50 68v673z
M277 1407q208 -34 282 -111v455h-282v-344zM559 1208q-20 -11 -30 -11q-22 0 -56 37q-57 62 -128 94q-13 6 -51 20q-7 3 -17 8v-118q-1 -204 -10 -343q-1 -26 -2 -49q153 45 294 136v226z" />
  </g>

</svg>
