<?xml version="1.0" standalone="no"?>
<!DOCTYPE svg PUBLIC "-//W3C//DTD SVG 1.1//EN" "http://www.w3.org/Graphics/SVG/1.1/DTD/svg11.dtd" >
<svg xmlns="http://www.w3.org/2000/svg" xmlns:xlink="http://www.w3.org/1999/xlink" version="1.1" viewBox="0 -204 1024 1024">
  <g transform="matrix(1 0 0 -1 0 820)">
   <path fill="currentColor"
d="M40 890q44 -12 117 -12h139l-12 102q45 -6 80 -12q11 -3 11 -9q0 -5 -12 -12q-14 -8 -26 -11l7 -58h52l38 41q31 -24 59 -45q7 -5 7 -10q0 -14 -13 -14h-140l11 -89q0 -10 -10 -14q-12 -7 -24 -7q-11 0 -13 10l-12 100h-142q-71 -2 -97 -7zM673 980q46 -5 84 -21
q6 -3 6 -9q0 -8 -16 -13l-31 -6q-3 -28 -8 -53h152l45 51l71 -54q8 -5 8 -11q0 -14 -16 -14h-266q-6 -39 -18 -83q-3 -19 -28 -19q-22 0 -22 12l2 12l9 31l9 47q-59 -3 -82 -7l-20 47q41 -11 107 -12q10 60 14 102zM142 768q62 -24 97 -50q32 -20 47 -39q11 -15 11 -28
q0 -35 -25 -35q-9 0 -17 4t-16 20q-20 37 -44 59q-24 25 -67 51zM58 572q62 -23 97 -48q32 -19 47 -38q11 -14 11 -27q0 -35 -25 -35q-9 0 -17 4t-16 19q-20 36 -44 58q-24 24 -67 49zM299 424l9 -19q-36 -68 -81 -142q-46 -77 -98 -150q-5 -50 -13 -50q-7 0 -60 73
q63 53 133 140q69 84 110 148zM392 769l61 -43h333l34 42q37 -23 55 -43q7 -7 7 -13q0 -9 -38 -32v-42q0 -74 3 -98q1 -28 1 -46q0 -16 -11 -24q-14 -6 -24 -6q-17 0 -17 13v13h-265q24 -7 43 -14q8 -3 8 -11t-18 -12q-20 -5 -38 -5q-11 -18 -23 -32h383l32 33
q33 -16 53 -36q8 -9 8 -17q0 -15 -40 -29q0 -77 -10 -164q-10 -86 -25 -117q-7 -18 -20 -27q-8 -6 -22 -11q-20 -8 -46 -8q-2 13 -9 20q-3 7 -16 12q-28 10 -95 24l6 24q118 -18 137 -18q10 0 16 4q7 5 11 14l9 29q6 29 11 92q5 64 5 147h-416q-9 -9 -20 -17
q-27 -20 -49 -34q-24 -16 -51 -30q-29 -15 -62 -27l-19 22q39 17 67 35q27 19 54 41q27 23 47 45q18 20 30 39q8 13 13 28h-41v-14q0 -12 -16 -12q-9 0 -24 6q-12 9 -12 24q0 18 3 47q4 22 4 97v60q0 41 -7 71zM444 518h352v180h-352v-76h199l41 45q35 -25 64 -50q7 -6 7 -9
q0 -6 -5 -9q-3 -5 -9 -5h-297v-76zM621 366q87 -12 87 -26q0 -15 -44 -18q-4 -6 -8 -11q22 -6 42 -14q34 -13 51 -23q18 -10 24 -16l11 -15q2 -5 2 -11q0 -22 -20 -22q-4 0 -9 4l-14 11q-14 12 -25 20q-15 10 -37 21q-16 10 -43 22l-15 -15q-18 -17 -47 -35q-26 -19 -69 -36
l-15 21q36 20 60 41q26 24 42 47q20 27 27 55zM385 312q47 -9 78 -20q8 -4 8 -12q0 -10 -10 -14q-11 -6 -27 -11v-7q0 -28 6 -41q5 -11 17 -17q11 -6 43 -8q35 -5 74 -5q41 0 79 3q30 3 52 10q19 6 30 6q15 0 26 -8q9 -7 11 -23q0 -6 -4 -8q-3 -6 -13 -8q-23 -6 -54 -8
q-57 -5 -110 -5q-63 0 -107 5q-29 2 -44 8q-19 5 -28 15q-15 11 -19 28q-5 15 -5 42v21q0 34 -3 57z" />
  </g>

</svg>
