<?xml version="1.0" standalone="no"?>
<!DOCTYPE svg PUBLIC "-//W3C//DTD SVG 1.1//EN" "http://www.w3.org/Graphics/SVG/1.1/DTD/svg11.dtd" >
<svg xmlns="http://www.w3.org/2000/svg" xmlns:xlink="http://www.w3.org/1999/xlink" version="1.1" viewBox="0 -205 1000 1024">
  <g transform="matrix(1 0 0 -1 0 819)">
   <path fill="currentColor"
d="M381 524h-97v-48q35 0 66 13.5t31 34.5zM729 353v116q-11 -5 -48 -5h-77l53 -43l-7 -14h-321v22h219l22 29q7 9 12 10q-24 3 -24 56h-111q0 -69 -163 -69v-102h445zM729 320v11h-26q11 -4 26 -11zM558 546v80h-111v-80h111zM693 524h-71v-12q0 -13 11 -13h46q6 0 10 10.5
t4 14.5zM729 499v25h-15l1 -16q1 -9 14 -9zM934 244l-4 -11h-209v-106q0 -19 -16 -31q-2 -2 -33 -19l-9 -5q-17 -7 -30 -7q-20 0 -20 14q0 25 -9 27l-86 23l6 13l88 -13q14 -2 26 -2q14 0 17 18q2 10 2 29v59h-374q88 -48 88 -80t-32 -32q-23 0 -34 27q-19 48 -50 85h-180
v22h582v47l-3 29h-370v-6q0 -4 -26 -14q-13 -5 -21 -5q-14 0 -14 11v212l-5 43l63 -26h102v80h-110v6q-99 -84 -204 -123l-9 15q142 79 255 239l44 -33q20 -15 20 -22q0 -12 -40 -10q-15 -17 -49 -50h324l22 33q8 12 19 12q12 0 26 -13l43 -40l-3 -14h-99v-80h103l10 16
q9 15 23 15q8 0 22 -10l17 -12q20 -14 20 -21q0 -6 -25 -19v-186q0 -11 -23 -21q-14 -6 -23 -6q-13 0 -16 6q-2 -6 -9 -11v-42h99l25 38q8 12 20 12q13 0 24 -12zM512 859l-6 -14h-152v-34q0 -2 1 -5v-5q1 -5 1 -4q0 -7 -29 -18q-5 -3 -19 -3q-19 0 -19 13q0 1 1 6v6v44
h-237v22h237v41l-3 40l58 -12q38 -8 38 -17q0 -8 -29 -21v-31h48l28 31q9 10 20 10q13 0 24 -11zM942 574l-5 -13q-23 4 -24 4q-8 0 -17 -28q-4 -11 -19 -11q-11 0 -19 5q-71 44 -113 94q-39 47 -67 117h-303v22h287l20 18q6 4 13 4q11 0 19 -11l15 -20q7 -9 8 -14
q0 -8 -29 -8q59 -113 234 -159zM946 859l-6 -14h-242v-27q0 -2 1 -5v-5v-5q0 -6 -28 -14q-17 -5 -22 -5q-16 0 -16 11v6q0 2 1 8v9v27h-121v22h121v41l-2 40l57 -14q35 -9 35 -16t-26 -20v-31h137l24 25q13 14 22 14q10 0 25 -13z" />
  </g>

</svg>
