<?xml version="1.0" standalone="no"?>
<!DOCTYPE svg PUBLIC "-//W3C//DTD SVG 1.1//EN" "http://www.w3.org/Graphics/SVG/1.1/DTD/svg11.dtd" >
<svg xmlns="http://www.w3.org/2000/svg" xmlns:xlink="http://www.w3.org/1999/xlink" version="1.1" viewBox="0 -140 1000 1000">
  <g transform="matrix(1 0 0 -1 0 860)">
   <path fill="currentColor"
d="M527 444v-28h216q19 20 25 24t13 4q9 0 35.5 -24t26.5 -28q0 -3 -8.5 -6.5t-12.5 -3.5q-1 -1 -2 -1h1q0 -1 -6 -6l4 1v-110q0 -12 -20 -20h1q-14 -6 -27 -6q-12 0 -14.5 6t-2.5 22h-229v-112l229 18q-60 41 -86 51q-13 6 -31 18l6 15l152 -68q130 -57 130 -121
q0 -20 -23 -20t-42 25q-40 48 -85 83l-609 -80q-2 -32 -24 -32q-20 0 -30 27l-18 49l368 29v118h-215q0 -22 -1 -30t-5 -13.5t-14 -9.5q-5 -5 -26 -5q-16 0 -16 14v170l-2 54l60 -32h219v37l-3 40l54 -8q44 -8 44 -18q0 -6 -39 -24zM280 946l52 -30q28 -16 28 -22
q0 -12 -37 -12v-1q-2 -2 -3 -2l-23 -34h1l-2 -3h118l20 16h-1q12 12 24 12t24 -14l24 -28q1 -3 4 -6v39l-6 43l71 -27h191l17 16h-1q6 8 20 8t39.5 -24.5t25.5 -30.5q0 -7 -38 -20l6 1v-118q0 -36 -35.5 -56.5t-57.5 -20.5q-19 0 -21 14q-1 21 -13 26l-65 23l4 13l77 -15
q15 -3 29 -3q19 0 19 31v133h-200v-251q0 -34 12 -42.5t49 -8.5h159q42 0 59 6t22 29l17 80l29 -6l-5 -77q0 -22 17 -28q16 -7 16 -15q0 -27 -157 -27h-173q-60 0 -83.5 18.5t-23.5 67.5v195q-10 -2 -21 -2q-29 -65 -65 -120.5t-78.5 -96t-78 -69.5t-82 -53.5t-70.5 -35.5
t-63 -27l-7 16q136 66 231 162l27 30q-1 -1 -8 -1q-22 0 -40 30q-28 45 -70 71q-55 -57 -121 -101l-10 15q78 78 127.5 150.5t99.5 182.5zM527 393v-103h229v103h-229zM319 626l-1 -9q64 80 104 203h-138q-25 -33 -82 -101q22 -12 24 -12q55 -27 74 -43.5t19 -37.5zM249 393
v-103h215v103h-215z" />
  </g>

</svg>
