<?xml version="1.0" standalone="no"?>
<!DOCTYPE svg PUBLIC "-//W3C//DTD SVG 1.1//EN" "http://www.w3.org/Graphics/SVG/1.1/DTD/svg11.dtd" >
<svg xmlns="http://www.w3.org/2000/svg" xmlns:xlink="http://www.w3.org/1999/xlink" version="1.1" viewBox="0 -204 1024 1024">
  <g transform="matrix(1 0 0 -1 0 820)">
   <path fill="currentColor"
d="M59 769l59 -27h61v139q0 54 -6 80q59 -8 97 -24q14 -3 14 -13q0 -9 -14 -14q-18 -10 -43 -12v-156h75l33 29q47 -33 47 -46q0 -8 -29 -22v-247q13 -8 22 -17q5 -3 5 -7q0 -13 -9 -13h-144v-209q6 1 13 2q42 8 95 24q-10 22 -21 45q-11 22 -30 51l16 12q23 -23 41 -48
q18 -21 31 -43q12 -20 17 -37q4 -14 4 -30q0 -19 -5 -29q-8 -13 -20 -13q-7 0 -11 7q-4 4 -8 25q-2 19 -7 34q-41 -17 -74 -29q-43 -15 -82 -26q-35 -13 -75 -21q-12 -37 -19 -37t-49 84q57 5 102 14q19 2 34 6v218h-74v-34q0 -9 -11 -14q-13 -6 -22 -6q-13 0 -13 13
q0 2 1 12q1 23 1 39v278q0 45 -2 62zM105 447h74v268h-74v-268zM227 715v-268h80l2 2v266h-82zM445 961l57 -38h354l32 38q34 -22 50 -40q6 -6 6 -13q0 -9 -35 -29v-71q0 -68 2 -89q1 -27 1 -42t-10 -23q-12 -6 -21 -6q-16 0 -16 13v10h-172v-84h137l41 43q32 -25 62 -47
q6 -5 6 -12q0 -13 -13 -13h-233v-84h183l43 47q34 -25 64 -50q8 -5 8 -10q0 -14 -13 -14h-473q-72 -1 -97 -8l-21 47q44 -12 118 -12h144v84h-100q-72 -2 -97 -7l-21 47q44 -11 118 -11h100v84h-155v-20q0 -11 -16 -11q-8 0 -21 6q-12 8 -12 23t4 43q4 19 4 89v95
q0 38 -8 65zM494 698h155v196h-155v-196zM693 894v-196h172v196h-172zM541 868q24 -22 39 -47q13 -19 18 -39q4 -13 4 -25q0 -33 -22 -33q-3 0 -7 4q-3 4 -6 20q-7 34 -15 56q-9 23 -25 48zM778 873q39 -15 69 -26q4 -6 4 -10q0 -10 -15 -12q-17 -3 -25 -3q-7 -20 -17 -40
q-11 -18 -22 -32q-10 -15 -27 -29l-14 8q11 21 20 38q6 16 12 36q5 18 10 35q3 15 5 35zM466 428l13 -4q-5 -44 -11 -71q-6 -23 -13 -41q-6 -17 -17 -26q-8 -10 -14 -14q-7 -4 -12 -4q-27 0 -27 25q0 5 3 11q3 5 22 23q23 22 28 31q8 14 16 31t12 39zM559 417q28 -21 44 -40
q13 -13 23 -31q6 -10 6 -19q0 -12 -6 -24q-11 -10 -19 -10t-14 3q-8 9 -8 23q-4 31 -14 49q-7 16 -23 41zM731 417q19 -12 34 -26q15 -11 25 -21q11 -12 15 -20q3 -7 3 -14q0 -18 -5 -28q-8 -12 -20 -12q-5 0 -8 3q-4 3 -6 16q-3 17 -11 31q-8 16 -18 29q-9 13 -24 30z
M868 424q41 -24 65 -48q20 -21 31 -40q7 -14 7 -28q0 -31 -24 -31q-6 0 -10 4q-5 4 -10 19q-14 37 -29 58q-15 24 -43 51zM439 251q44 -12 117 -12h97v31q0 51 -6 74q54 -6 90 -20q13 -4 13 -14q0 -9 -13 -12q-17 -8 -40 -10v-49h114l41 43q32 -25 60 -47q8 -6 8 -11
q0 -14 -15 -14h-208v-112h170l45 52q37 -28 71 -55q8 -5 8 -11q0 -13 -15 -13h-479q-71 -2 -98 -7l-19 47q44 -13 117 -13h156v112h-97q-71 -1 -96 -6z" />
  </g>

</svg>
