<?xml version="1.0" standalone="no"?>
<!DOCTYPE svg PUBLIC "-//W3C//DTD SVG 1.1//EN" "http://www.w3.org/Graphics/SVG/1.1/DTD/svg11.dtd" >
<svg xmlns="http://www.w3.org/2000/svg" xmlns:xlink="http://www.w3.org/1999/xlink" version="1.1" viewBox="0 -120 1000 1000">
  <g transform="matrix(1 0 0 -1 0 880)">
   <path fill="currentColor"
d="M234 943l73 -28q17 -7 17 -15t-14 -13l-21 -7q-38 -66 -73 -109h151l23 35l63 -35q11 -6 11 -15q0 -7 -8 -13l-15 -11v-425l55 14l4 -19l-399 -152l-2 -15q-3 -13 -11 -13q-7 0 -12 10l-37 64l54 15v591l66 -31h30q25 79 45 172zM152 227l43 12v505h-43v-517zM246 253
l43 12v479h-43v-491zM339 279l43 11v454h-43v-465zM804 911l69 -50q10 -7 10 -15q0 -6 -13 -11l-19 -6v-188q47 -42 72 -80q38 -55 38 -95q0 -39 -29 -39q-15 0 -20 12q-2 4 -9 28q-18 66 -52 136v-76q0 -307 -59 -415q-17 -32 -48 -49q-11 -7 -18 -7t-11 5q-2 2 -8 22
q-5 18 -34 25l-60 14v16h126q54 128 54 389v311h-114v-145q0 -283 -83 -431q-76 -136 -249 -218l-8 12q157 104 220 243q62 136 62 394v145h-121l-16 27h293zM550 669h20q-1 -100 -14 -155q-17 -71 -61 -71q-19 0 -30 15q-4 5 -4 13q0 14 17 29q37 32 54 72q17 39 18 97z
" />
  </g>

</svg>
