<?xml version="1.0" standalone="no"?>
<!DOCTYPE svg PUBLIC "-//W3C//DTD SVG 1.1//EN" "http://www.w3.org/Graphics/SVG/1.1/DTD/svg11.dtd" >
<svg xmlns="http://www.w3.org/2000/svg" xmlns:xlink="http://www.w3.org/1999/xlink" version="1.1" viewBox="0 -140 1000 1000">
  <g transform="matrix(1 0 0 -1 0 860)">
   <path fill="currentColor"
d="M896 592h1l-6 -3h1l-5 -3l5 1v-234q0 -36 -7 -49.5t-34 -24.5l-1 -1q-2 -1 -5 -2t-5 -2h1q-21 -8 -30 -8q-17 0 -19 15q-1 20 -12 25l-41 17v-156q0 -32 7 -32h90q13 0 17.5 7t11.5 32l27 103l28 -11l-14 -103q0 -15 9 -19q20 -8 20 -21q0 -27 -83 -27h-114
q-42 0 -51.5 12t-9.5 67v333q-9 -3 -18 -5l-8 -3l7 1q-50 -164 -112.5 -250t-186.5 -165l-5 5q-3 -10 -17 -16.5t-26 -6.5q-13 0 -15.5 8t-2.5 46h-135v-32q0 -21 -20 -24h2q-2 -2 -9 -3h1q-7 -4 -20 -4t-16 23v286l-4 52l65 -41h127q15 18 19.5 22t10.5 4q10 0 21 -10
l30 -25l2 -2q2 -1 3 -2q92 122 143 333l50 -18q33 -12 33 -23q0 -10 -42 -17l7 1q-12 -40 -33 -94h66q20 25 28 27q3 1 6 1q10 0 18.5 -7.5t26.5 -29.5l4 -4v73l-6 51l66 -31h88q28 26 34 27q9 0 24 -10.5t26 -21.5t11 -13q0 -4 -24 -18zM355 332v-223q105 83 153 167.5
t85 249.5h-76q-28 -54 -64 -106q70 -52 70 -89q0 -28 -26 -28q-19 0 -29 25q-7 21 -31 70q-26 -34 -60 -59l-5 7l-21 -14h2l-1 -1zM901 815l20 -24q15 -13 15 -22q0 -7 -27 -16l-2 -1q-2 -1 -5 -2l-6 -2h4l-66 -78l-11 9l27 100h-342q-11 -84 -23 -110q-9 -19 -26 -32.5
t-31 -13.5q-25 0 -25 27q0 29 36 68q17 19 21.5 36t12.5 88h35q1 -4 1 -19l-1 -23h140v97l-4 45l61 -18q32 -9 32 -17q0 -7 -32 -18l7 1v-90h125q31 29 39 29q13 0 25 -14zM158 356v-212h135v212h-135zM831 358v247h-92v-266l51 -10q17 -4 31 -4q3 0 4.5 0.5t3 3.5t2 10
t0.5 19zM313 755l26 35q5 6 14 6q13 0 24 -10l40 -41l-7 -12h-355v22h258zM277 880l23 33h-1q5 8 15 8t24 -12l38 -39l-7 -13h-277v23h185zM275 626l24 33q6 8 15 8q12 0 23 -12l37 -39l-8 -13h-266v23h175zM271 495l26 34q5 6 16 6q12 0 21 -10l36 -40l-8 -12h-256v22h165z
M892 589q2 2 2 0h-2z" />
  </g>

</svg>
