<?xml version="1.0" standalone="no"?>
<!DOCTYPE svg PUBLIC "-//W3C//DTD SVG 1.1//EN" "http://www.w3.org/Graphics/SVG/1.1/DTD/svg11.dtd" >
<svg xmlns="http://www.w3.org/2000/svg" xmlns:xlink="http://www.w3.org/1999/xlink" version="1.1" viewBox="0 -410 2048 2048">
  <g transform="matrix(1 0 0 -1 0 1638)">
   <path fill="currentColor"
d="M764 692l-15 31q156 94 273 227q93 105 137 194h-129v-31q0 -31 -40 -31q-58 0 -58 52q0 14 3 57q1 10 4 135v434q0 73 -15 134l118 -88h644l68 76l83 -54q40 -26 40 -49q0 -27 -77 -61v-399l4 -69l2 -78l2 -41q0 -50 -60 -50q-44 0 -44 25v38h-171q192 -301 451 -351
v-34q-80 -12 -106 -79q-222 131 -404 464h-196q-135 -189 -224 -266q-115 -99 -290 -186zM1704 1508v244h-306v-244h306zM1704 1450h-306v-250h306v250zM1030 1450v-250h272v250h-272zM1030 1508h272v244h-272v-244zM1072 858l127 -27q55 -12 55 -37q0 -26 -80 -49
q-6 -61 -8 -92q-14 -166 -32 -235q-39 -144 -157 -248q-74 -65 -199 -125l-13 32q140 89 195 161q115 149 115 482l-3 137v1zM1474 852l109 -24q86 -19 86 -45q0 -30 -50 -42l-43 -11v-505q0 -20 3 -65q4 -47 4 -75q0 -48 -57 -48q-44 0 -44 49v605q0 115 -8 161zM486 1588
h152l80 81l114 -86q17 -13 17 -26q0 -26 -27 -26h-572q-67 0 -146 -11l-39 86q128 -18 185 -18h189q-20 10 -28 66q-12 94 -117 236l30 25q87 -77 120 -112q80 -86 80 -153q0 -42 -38 -62zM541 1288l79 81l115 -86q16 -13 16 -26q0 -26 -27 -26h-406q-69 0 -149 -11l-39 83
q123 -15 188 -15h223zM533 981l80 82l114 -90q17 -13 17 -24q0 -25 -27 -25h-406q-70 0 -149 -11l-39 86q125 -18 188 -18h222zM156 743l107 -62h315l68 72l73 -50q42 -29 42 -50q0 -16 -65 -52v-361l34 -23q28 -20 28 -36q0 -20 -20 -20h-488v-39q0 -42 -74 -42
q-20 0 -20 24v639zM250 217h351v406h-351v-406z" />
  </g>

</svg>
