<?xml version="1.0" standalone="no"?>
<!DOCTYPE svg PUBLIC "-//W3C//DTD SVG 1.1//EN" "http://www.w3.org/Graphics/SVG/1.1/DTD/svg11.dtd" >
<svg xmlns="http://www.w3.org/2000/svg" xmlns:xlink="http://www.w3.org/1999/xlink" version="1.1" viewBox="0 -140 1000 1000">
  <g transform="matrix(1 0 0 -1 0 860)">
   <path fill="currentColor"
d="M243 585h-192v22h199v148h-152v23h152v119l-6 43l58 -10q36 -6 36 -17q0 -8 -32 -22l6 1v-114h48l25 37q5 8 16 8q7 0 17 -8l46 -40l61 -29h147q-12 8 -22 26q-20 37 -49 57l10 14q24 -10 68 -35l98 69h-290v22h320l26 18h-1q4 6 17 6q12 0 24 -14l20 -24h-1
q15 -18 15 -22q0 -7 -21 -7q-11 0 -14 1t-8 1q-2 0 -9 1t-8 1l-148 -67q20 -22 20 -37q0 -4 -3 -10h118q17 13 25 13q11 0 21 -10l21 -24q19 -22 19 -25q0 -9 -31 -9q-1 -1 -2 -1h3l-2 -1l6 1v-205q0 -29 -44 -41q-13 0 -16 9t-3 30q1 4 1 12h-131q29 -17 29 -20
q0 -4 -31 -20l6 1q-6 -31 -16 -75h148l17 26q7 10 18 10q8 0 18 -6q-1 1 0 1l3 -4h-1l8 -7l19 -26q7 -8 19 -26q0 -5 -39 -13l8 1q-18 -84 -35 -119.5t-48 -59.5q-31 -23 -61 -23q-12 0 -15 4t-3 13q0 22 -7 23l-92 25l7 16l98 -17q4 -1 12 -1q33 0 50.5 34.5t33.5 125.5
h-165q-30 -82 -87 -132.5t-162 -89.5l-9 13q152 68 197 209h-158v23h167q9 35 14 114h-112l1 -26q0 -9 -18 -18.5t-30 -9.5q-16 0 -16 13v36q0 12 -1 21v74h-225l56 -16q41 -9 41 -23q0 -7 -28 -17h1l-10 -5l6 1v-95h51l27 37q7 10 20 10t24 -11l42 -44l-6 -15h-158v-216
l-4 1q69 -48 110 -59q114 -32 263 -32q111 0 255 16v-14q-37 -14 -41 -36q-3 -15 -35 -15q-25 0 -178 9h1q-169 7 -236.5 20.5t-119.5 49.5q-86 59 -147 176q-36 -145 -105 -249l-20 16q83 147 90 447l55 -21q33 -14 33 -20q0 -3 -13 -10t-22 -8l8 1q-8 -75 -14 -101h-1
q27 -56 59 -101v274zM442 642l26 -27v110l-4 30h-152v-148h61l32 36q7 9 17 9t20 -10zM712 724v-94h120v94h-120zM532 724v-94h118v94h-118zM712 607v-89h120v89h-120zM532 607v-89h118v89h-118z" />
  </g>

</svg>
