<?xml version="1.0" standalone="no"?>
<!DOCTYPE svg PUBLIC "-//W3C//DTD SVG 1.1//EN" "http://www.w3.org/Graphics/SVG/1.1/DTD/svg11.dtd" >
<svg xmlns="http://www.w3.org/2000/svg" xmlns:xlink="http://www.w3.org/1999/xlink" version="1.1" viewBox="0 -140 1000 1000">
  <g transform="matrix(1 0 0 -1 0 860)">
   <path fill="currentColor"
d="M288 878l20 24q4 6 15 6q15 0 25 -10l28 -25q18 -17 18 -20q0 -5 -37 -19l6 1v-204q0 -5 1 -6l1 -25q0 -13 -14.5 -21.5t-34.5 -8.5q-16 0 -16 13l1 23h-24q1 -3 1 -7q0 -6 -14 -14h1q-3 -1 -3 -10l-1 -161h19l24 35h-1q4 7 18 7q11 0 24 -12l40 -38l-9 -15h-115v-217
l135 42l5 -19l-278 -115q-6 -25 -27 -25q-19 0 -28 21l-17 38l49 13l-7 -1v354l51 -13q33 -7 33 -21q0 -8 -29 -19l6 1v-287l51 16l-7 -1v448h-39q1 -9 1 -22q0 -14 -13 -23.5t-33 -9.5q-18 0 -18 20q2 26 2 48v242l-6 49l66 -32h130zM757 888v-156h81l25 41h-1q4 7 17 7
q9 0 23 -11l45 -46l-8 -14h-182v-150h73l27 38q6 8 15 8q14 0 23 -10l43 -46l-8 -12h-173v-183h77l22 35q6 8 17 8q12 0 25 -11l43 -40l-8 -13h-176v-223q0 -2 1 -16t1 -17q0 -27 -44 -27q-20 0 -20 9l-4 885l53 -15q40 -10 40 -23q0 -6 -34 -19zM608 892v-318
q0 -179 -35.5 -276.5t-121.5 -168.5q-36 -30 -139 -81l-8 13q96 51 148.5 118t76.5 170l-139 -54q-4 -30 -25 -30q-17 0 -25 20l-15 36l208 51q10 67 14 165h-162v22h162v150h-163v23h163v163l-7 47l54 -13q43 -10 43 -21q0 -8 -37 -17zM159 855v-226h141v226h-141z" />
  </g>

</svg>
