<?xml version="1.0" standalone="no"?>
<!DOCTYPE svg PUBLIC "-//W3C//DTD SVG 1.1//EN" "http://www.w3.org/Graphics/SVG/1.1/DTD/svg11.dtd" >
<svg xmlns="http://www.w3.org/2000/svg" xmlns:xlink="http://www.w3.org/1999/xlink" version="1.1" viewBox="0 -410 2048 2048">
  <g transform="matrix(1 0 0 -1 0 1638)">
   <path fill="currentColor"
d="M1710 949h-672v-62q0 -37 -49 -37q-63 0 -59 54l4 62l4 80l4 76v468q0 85 -13 176l118 -90h196q26 145 34 241l138 -41q28 -9 28 -28q0 -22 -28 -29l-51 -11q-28 -66 -65 -132h391l68 76l83 -54q40 -26 40 -49q0 -27 -77 -61v-451q0 -40 9 -157q2 -76 2 -80
q0 -45 -69 -45q-36 0 -36 26v68zM1710 1453v166h-672v-166h672zM1710 1397h-672v-172h672v172zM1710 1169h-672v-160h672v160zM1546 886q180 -83 180 -157q0 -53 -45 -53q-28 0 -45 43q-25 63 -113 141zM1432 476q209 -90 321 -152q208 -116 208 -209q0 -21 -17 -38
q-18 -18 -39 -18q-33 0 -97 82q-120 154 -397 300zM1268 646q19 119 19 190q0 19 -1 55l135 -28q53 -11 53 -32q0 -20 -25 -29l-60 -22q-7 -68 -19 -134h359l99 101l120 -107q17 -14 17 -25q0 -27 -27 -27h-580q-70 -226 -248 -357q-131 -96 -382 -166l-9 38q226 86 348 194
q139 123 189 291h-226q-109 0 -192 -8l-38 88q90 -22 230 -22h238zM563 318q143 50 288 119l18 -34q-128 -80 -261 -142q-116 -55 -371 -142l-6 -30q-7 -39 -28 -39q-15 0 -31 30l-66 125l91 16v626q0 62 -9 141l128 -30q51 -13 51 -37q0 -20 -33 -31l-41 -15v-634
q92 25 175 47v952h-203v-45q0 -48 -58 -48q-42 0 -42 39q0 12 2 39q5 77 5 172v269q0 91 -8 193l97 -72h362l62 72l72 -50q42 -29 42 -49q0 -12 -8 -19q-4 -3 -58 -34v-385l40 -31q19 -14 19 -28q0 -23 -31 -23h-198v-371h56l88 89l106 -89q21 -18 21 -31q0 -27 -24 -27
h-247v-493zM265 1295h376v434h-376v-434z" />
  </g>

</svg>
