<?xml version="1.0" standalone="no"?>
<!DOCTYPE svg PUBLIC "-//W3C//DTD SVG 1.1//EN" "http://www.w3.org/Graphics/SVG/1.1/DTD/svg11.dtd" >
<svg xmlns="http://www.w3.org/2000/svg" xmlns:xlink="http://www.w3.org/1999/xlink" version="1.1" viewBox="0 -140 1000 1000">
  <g transform="matrix(1 0 0 -1 0 860)">
   <path fill="currentColor"
d="M444 821l29 -26q16 -13 16 -22q0 -11 -37 -23l7 1v-253q7 9 15 21l31 -29q26 -24 26 -26q0 -12 -34 -12q-1 -1 -7 -9q-11 -18 -33 -43l2 1v-252q0 -43 -5 -54t-31 -25q-35 -18 -62 -18q-17 0 -21 15q-3 25 -20 30l-84 24l4 14l106 -14q5 -1 20 -1q20 0 25.5 6.5t5.5 23.5
v187q-132 -144 -338 -260l-9 18q185 121 340 308l-268 -72q-9 -32 -30 -32q-17 0 -28 29l-13 36l101 19v401l-5 44l78 -28h16l40 143l44 -14q34 -10 34 -19t-38 -20l6 1l-48 -91h105q27 32 37 32t23 -11zM747 892v-366h76v261l-6 36l50 -7q41 -6 41 -17q0 -6 -28 -21l5 1
v-252q0 -22 1 -31h-1q2 -8 2 -9q0 -11 -21 -21t-28 -10q-11 0 -13.5 5t-2.5 17l1 25h-76v-382h94v260l-5 36l49 -10q37 -7 37 -17q0 -5 -23 -19l5 1v-244l1 -44q0 -14 -24 -24h1q-11 -7 -25 -7q-11 0 -13.5 8.5t-2.5 36.5h-259l1 -19q0 -7 -16 -17.5t-30 -10.5q-18 0 -18 16
v2q1 21 1 44v256l-6 48l53 -10q42 -7 42 -20q0 -11 -33 -21l6 1v-246h103v382h-83l1 -16q0 -9 -15.5 -18.5t-32.5 -9.5q-16 0 -16 17q0 8 1 15v289l-8 45l51 -9q47 -8 47 -20q0 -5 -34 -21l6 1v-250h83v369l-6 47l48 -8q47 -8 47 -21q0 -7 -33 -22zM397 428v92h-181v-128z
M216 779v-108h181v108h-181zM216 648v-106h181v106h-181z" />
  </g>

</svg>
