<?xml version="1.0" standalone="no"?>
<!DOCTYPE svg PUBLIC "-//W3C//DTD SVG 1.1//EN" "http://www.w3.org/Graphics/SVG/1.1/DTD/svg11.dtd" >
<svg xmlns="http://www.w3.org/2000/svg" xmlns:xlink="http://www.w3.org/1999/xlink" version="1.1" viewBox="0 -410 2048 2048">
  <g transform="matrix(1 0 0 -1 0 1638)">
   <path fill="currentColor"
d="M1188 1562h606l69 76l83 -54q40 -26 40 -48q0 -28 -78 -62l-27 -535q-27 -523 -74 -671t-163 -201q-42 -19 -116 -31q-8 73 -70 108q-34 19 -195 67l9 42q264 -66 311 -66q99 0 142 178q30 126 51 437l11 163l23 539h-649q-72 -145 -128 -229l101 -64h364l68 76l76 -54
q40 -29 40 -48q0 -28 -78 -62v-515q0 -47 7 -104q3 -28 3 -44q0 -49 -66 -49q-35 0 -35 46v17h-394v-32q0 -31 -52 -31q-57 0 -53 43l4 50q6 96 6 104v543q2 28 2 48q0 10 -3 33l-2 26q-34 -47 -92 -114l-34 30q222 324 293 739l117 -40q58 -20 58 -45q0 -24 -32 -29l-55 -7
q-48 -135 -88 -230zM1272 1154h-153v-274h153v274zM1360 1154v-274h153v274h-153zM1513 824h-153v-293h153v293zM1272 531v293h-153v-293h153zM722 722h-192v-248h167l98 102l121 -107q16 -14 16 -25q0 -27 -27 -27h-375v-83q0 -101 13 -219q3 -31 3 -50q0 -46 -57 -46
q-55 0 -55 42v356h-159q-109 0 -192 -8l-38 88q94 -23 230 -23h159v248h-183v-24q0 -37 -49 -37q-63 0 -59 54l4 62l4 80l4 77v320l-4 74q-5 67 -10 102l122 -90h171v213h-128q-117 0 -192 -8l-39 88q96 -22 231 -22h128v129q0 113 -8 159l109 -24q86 -18 86 -45
q0 -25 -50 -42l-41 -13v-164h156l98 101l121 -107q17 -15 17 -26q0 -26 -27 -26h-365v-213h172l68 76l83 -54q40 -26 40 -49q0 -28 -77 -61v-311q0 -56 11 -223q1 -8 1 -13q0 -46 -70 -46q-36 0 -36 26v37zM722 782v226h-192v-226h192zM722 1068v215h-192v-215h192zM434 782
v226h-183v-226h183zM434 1068v215h-183v-215h183z" />
  </g>

</svg>
