<?xml version="1.0" standalone="no"?>
<!DOCTYPE svg PUBLIC "-//W3C//DTD SVG 1.1//EN" "http://www.w3.org/Graphics/SVG/1.1/DTD/svg11.dtd" >
<svg xmlns="http://www.w3.org/2000/svg" xmlns:xlink="http://www.w3.org/1999/xlink" version="1.1" viewBox="0 -140 1000 1000">
  <g transform="matrix(1 0 0 -1 0 860)">
   <path fill="currentColor"
d="M434 261l31 10q16 -58 16 -98q0 -42 -17 -73t-39 -31q-23 0 -23 29q0 19 19 48h-1q17 32 17 65q0 16 -1 22l-5 -9h-163v-115q0 -1 1 -13.5t1 -15.5q0 -10 -14.5 -18.5t-34.5 -8.5q-18 0 -18 11l1 50v110h-154v22h154v126h-64q0 -27 -3 -33.5t-21 -11.5h1q-13 -5 -25 -5
q-16 0 -16 8l2 8h-1q1 4 1 14v310l-4 57l64 -35h66v102h-154v21h154v91l-2 45l63 -19q34 -10 34 -21q0 -5 -28 -19q0 -1 -12 -4l9 1v-74h56l24 31q13 13 23 13q9 0 21 -9v-1h1q0 -1 1 -1v1l1 -1q0 -2 2 -2l42 -40l-8 -12h-163v-102h46q28 33 40 33q8 0 21 -10h1q2 -2 3 -2
l25 -24h-1q13 -10 13 -18q0 -6 -28 -21l6 1v-261q0 -14 1 -20h-1l2 -10q0 -18 -44 -18q-15 0 -17.5 6t-2.5 32h-64v-126h62l20 27q10 15 25 15q12 -3 19 -10l42 -40q-2 16 -2 23zM662 895l-42 -59h172q15 20 19.5 24t11.5 4q13 0 16 -4h-4q1 -1 16 -8l16 -16q19 -16 19 -21
t-21 -14l-5 -1h3l-6 -2h6v-142l1 -17q0 -10 -23 -21h1q-10 -6 -26 -6q-11 0 -13.5 3.5t-2.5 13.5q1 3 1 12h-269v-112h299q17 26 23.5 33.5t14.5 7.5q9 0 23 -12l6 -4q0 -1 1 -1l35 -30l-7 -17h-395v-112h310l16 26q4 7 17 7t24 -11h-3l5 -3v1l21 -21q19 -16 19 -21
q0 -8 -37 -17l8 1q-6 -202 -83 -270q-37 -33 -79 -33q-18 0 -23 14q-8 23 -16 26l-82 30l1 14l100 -24q26 -6 35 -6q37 0 61 77.5t28 187.5h-322l2 -34q0 -13 -34 -20h1q-9 -3 -17 -3q-18 0 -18 11l2 40v438l-6 56l68 -24h54l31 111l46 -17q33 -12 33 -18q0 -7 -37 -17h5z
M532 813v-150h269v150h-269zM140 661v-123h64v123h-64zM268 661v-123h64v123h-64zM140 516v-122h64v122h-64zM268 516v-122h64v122h-64zM503 264l12 16q29 -22 45.5 -36t34.5 -39.5t18 -48.5q0 -36 -27 -36q-23 0 -29 24q-19 78 -54 120zM615 287l10 13q57 -31 79 -53
t22 -50q0 -27 -23 -27q-20 0 -27 22q-28 66 -61 95zM711 318l9 16q48 -24 73 -44.5t28.5 -29t3.5 -19.5q0 -25 -22 -25q-17 0 -30 21q-19 43 -62 81zM843 857h-3h3zM394 841h-2q0 2 2 0zM397 838v-2q1 1 3 1z" />
  </g>

</svg>
