<?xml version="1.0" standalone="no"?>
<!DOCTYPE svg PUBLIC "-//W3C//DTD SVG 1.1//EN" "http://www.w3.org/Graphics/SVG/1.1/DTD/svg11.dtd" >
<svg xmlns="http://www.w3.org/2000/svg" xmlns:xlink="http://www.w3.org/1999/xlink" version="1.1" viewBox="0 -410 2048 2048">
  <g transform="matrix(1 0 0 -1 0 1638)">
   <path fill="currentColor"
d="M570 1225q102 -21 222 -21h692l80 72l105 -77q17 -13 17 -26q0 -26 -27 -26h-526v-115h514l80 78l114 -83q16 -12 16 -28q0 -24 -16 -24h-1210q-117 0 -192 -8l-37 88q85 -23 211 -23h422v115h-243q-117 0 -192 -8l-34 77q-129 -154 -446 -220l-10 36q299 92 394 264
h-208q-113 0 -192 -8l-38 88q95 -23 230 -23h677v94h-407q-119 0 -192 -8l-38 88q97 -23 230 -23h407v99h-571q-117 0 -192 -8l-38 88q97 -23 230 -23h1254l98 102l121 -107q17 -15 17 -26q0 -26 -27 -26h-796v-99h476l72 68l118 -73q16 -10 16 -26q0 -26 -27 -26h-655v-94
h674l98 101l121 -106q17 -15 17 -26q0 -26 -27 -26h-1339q-19 -40 -43 -71zM1382 1927l111 -72q24 -16 24 -30q0 -23 -32 -23h-59q-86 -63 -212 -132l-22 34q128 114 190 223zM648 1912q114 -48 158 -83q62 -48 62 -103q0 -50 -49 -50q-31 0 -51 43q-26 57 -64 96
q-20 20 -76 69zM589 664h384v83h-538q-117 0 -192 -8l-38 89q95 -24 230 -24h538v24q0 44 -8 133l106 -23q89 -18 89 -43q0 -21 -51 -40l-40 -16v-35h581l87 91l114 -96q17 -14 17 -26q0 -26 -27 -26h-772v-83h434l63 69l72 -52q34 -24 34 -47q0 -26 -68 -55v-116
q0 -41 7 -105q3 -30 3 -45q0 -48 -66 -48q-36 0 -36 19v16h-443v-81h672l92 92l116 -97q17 -14 17 -26q0 -26 -27 -26h-870v-18q0 -21 3 -50q3 -27 3 -41q0 -41 -48 -41q-54 0 -54 54v96h-622q-116 0 -191 -8l-39 88q96 -23 230 -23h622v81h-396v-5q0 -31 -52 -31
q-53 0 -53 43q0 6 5 51q6 101 6 105v124q0 44 -10 136zM1069 607v-95h443v95h-443zM1512 452h-443v-92h443v92zM973 360v92h-396v-92h396zM973 607h-396v-95h396v95z" />
  </g>

</svg>
