<?xml version="1.0" standalone="no"?>
<!DOCTYPE svg PUBLIC "-//W3C//DTD SVG 1.1//EN" "http://www.w3.org/Graphics/SVG/1.1/DTD/svg11.dtd" >
<svg xmlns="http://www.w3.org/2000/svg" xmlns:xlink="http://www.w3.org/1999/xlink" version="1.1" viewBox="0 -410 2048 2048">
  <g transform="matrix(1 0 0 -1 0 1638)">
   <path fill="currentColor"
d="M437 1729v-11v-130h302l96 99l130 -99q17 -12 17 -28q0 -26 -25 -26h-520v-157h317l99 102l120 -107q17 -15 17 -25q0 -27 -27 -27h-523v-7q0 -58 -58 -58q-48 0 -48 41l4 135v290q0 81 -15 139l114 -87q274 69 416 177l83 -77q27 -25 27 -41q0 -24 -30 -24q-10 0 -17 2
l-44 13q-258 -81 -435 -94zM1147 1308l-32 80q71 -11 155 -11h340v157h-269q-68 0 -148 -8q-20 -3 -46 -4l-32 80q83 -14 226 -14h269v165h-286q-127 0 -188 -9l-36 80q78 -16 224 -16h267l69 76l83 -54q41 -27 41 -49q0 -16 -12 -26q-11 -9 -63 -35v-191q0 -38 4 -97
q6 -83 6 -122q0 -58 -73 -58q-36 0 -36 24v44h-269q-69 0 -148 -9q-20 -2 -46 -3zM1347 389q142 104 236 247l108 -73q26 -17 26 -36q0 -18 -42 -18h-5l-45 4q-24 -19 -36 -29q-85 -70 -194 -122q230 -126 588 -154v-34h-14q-81 0 -119 -78q-31 9 -136 36q-291 76 -480 245
q-77 69 -177 219l37 26q104 -136 253 -233zM369 962q104 -16 176 -16h933l98 102l121 -108q17 -15 17 -25q0 -26 -27 -26h-1142q-66 0 -148 -11l-28 62v-29q0 -27 -5 -157q82 -21 219 -21h1109l98 103l121 -107q17 -15 17 -26q0 -27 -27 -27h-1211v-462q197 46 431 141
l10 -35q-144 -98 -434 -212q-9 -71 -28 -71q-20 0 -41 46l-52 109l20 2v482q-129 0 -205 -8l-27 65q-11 -242 -52 -380q-49 -162 -199 -318l-27 28q113 168 152 357q34 167 34 487q0 229 -10 321l112 -69h1284l98 102l121 -107q17 -16 17 -26q0 -27 -28 -27h-1497v-139z" />
  </g>

</svg>
