<?xml version="1.0" standalone="no"?>
<!DOCTYPE svg PUBLIC "-//W3C//DTD SVG 1.1//EN" "http://www.w3.org/Graphics/SVG/1.1/DTD/svg11.dtd" >
<svg xmlns="http://www.w3.org/2000/svg" xmlns:xlink="http://www.w3.org/1999/xlink" version="1.1" viewBox="0 -204 1024 1024">
  <g transform="matrix(1 0 0 -1 0 820)">
   <path fill="currentColor"
d="M201 976q50 -10 85 -24q8 -3 8 -11t-18 -12q-11 -3 -21 -4q29 -20 53 -41q33 -26 51 -45q19 -17 28 -30q7 -12 11 -23q4 -9 4 -20q-1 -30 -22 -30q-7 0 -13 5t-27 44q-21 38 -47 69q-23 27 -58 59q-9 -31 -19 -55q-15 -34 -34 -68q-21 -35 -38 -60q-11 -16 -23 -30
q38 -6 88 -6h59l38 41q31 -24 59 -45q7 -5 7 -10q0 -14 -13 -14h-119v-148h56l38 41q31 -24 59 -45q7 -5 7 -10q0 -14 -13 -14h-147v-313q10 3 20 7q57 19 132 52l4 -22q-61 -37 -108 -58q-50 -25 -96 -43q-42 -18 -89 -31q-11 -37 -18 -37q-8 0 -49 84q66 9 117 23
q19 4 39 10v328h-31q-71 -2 -97 -7l-20 47q44 -12 117 -12h31v147q-57 -2 -80 -6l-9 20q-23 -28 -48 -47l-19 22q30 27 52 58q20 30 41 65q20 38 36 73q14 33 23 63q8 28 13 63zM87 420q27 -37 40 -66q15 -30 21 -54q7 -25 7 -39q0 -45 -27 -45q-25 0 -25 34q0 40 -3 62
q-2 22 -9 46q-6 25 -19 56zM307 436q48 -16 82 -32q6 -6 6 -12q0 -10 -18 -13q-20 -4 -29 -4q-7 -29 -16 -56q-9 -26 -18 -46q-11 -20 -25 -41l-17 11q8 27 14 51l9 47q5 26 8 48q3 21 4 47zM462 972l63 -30h325l37 37q55 -39 55 -54q0 -11 -32 -28v-182q0 -25 1 -33t1 -17
q0 -23 -37 -29q-17 0 -17 11v27h-346v-16q0 -10 -12 -16q-15 -6 -25 -6q-13 0 -13 14q0 4 1 14q1 23 1 42v198q0 49 -2 68zM512 702h346v92h-346v-92zM512 822h346v92h-346v-92zM513 636q38 -16 62 -32q5 -3 5 -8q0 -6 -8 -9q-14 -5 -26 -6l-25 -34q-14 -18 -30 -32
q-14 -15 -34 -31l-21 -15l34 2q36 1 79 7q8 12 14 22q14 28 20 52q38 -16 62 -32q5 -3 5 -8q0 -6 -8 -9q-14 -5 -26 -6q-18 -27 -39 -53q-23 -28 -49 -51q-22 -22 -55 -47l-41 -29q25 2 58 5q52 2 113 15q-4 9 -9 17q-9 17 -26 36l18 14q20 -15 35 -30q17 -14 28 -27t15 -23
q4 -9 4 -18q0 -21 -6 -32q-9 -14 -22 -14q-5 0 -8 4q-4 3 -7 19q-3 17 -10 31q-71 -26 -163 -42q-16 -37 -22 -37t-10 8q-13 32 -24 71v2h3q40 32 69 61q29 30 53 62l5 7q-33 -11 -71 -18q-15 -34 -20 -34t-9 8q-12 28 -22 66q25 24 42 45t31 43q15 23 24 43q8 20 12 37z
M789 640q38 -16 62 -32q5 -3 5 -8q0 -6 -8 -9q-14 -5 -26 -6q-11 -17 -25 -33q-14 -17 -30 -31q-14 -14 -34 -30l-19 -13q17 1 39 3q39 2 86 12q6 8 9 14q13 26 19 49q38 -16 62 -32q5 -3 5 -8q0 -6 -8 -9q-14 -5 -26 -6q-17 -26 -37 -50q-22 -26 -47 -47q-21 -22 -52 -44
q-18 -14 -36 -25q24 2 56 6q52 3 113 21q-3 6 -6 11q-11 17 -31 38l17 13q22 -16 40 -33q19 -16 31 -31q13 -14 18 -25q4 -11 4 -21q0 -19 -5 -30q-9 -12 -21 -12q-6 0 -10 4t-8 20q-4 20 -14 40q-1 2 -2 5q-74 -33 -166 -53q-16 -37 -22 -37t-10 8q-13 32 -24 73h5
q39 32 65 58q28 28 50 58q5 6 8 12q-40 -14 -85 -24q-15 -34 -20 -34t-9 8q-12 28 -22 66q25 23 42 44q17 20 31 42q15 23 24 42q8 19 12 36zM461 228h22q0 -52 -10 -87q-7 -26 -19 -45q-9 -18 -24 -29q-8 -7 -18 -11q-7 -4 -16 -4q-27 0 -27 24q0 3 6 8q26 21 42 38
q19 20 28 43q11 24 16 63zM582 228q17 -18 29 -41q13 -24 18 -44q5 -22 5 -39t-5 -29q-4 -11 -13 -16q-7 -3 -12 -3q-19 0 -19 20q0 6 1 19q2 18 -3 46q-4 32 -19 83zM726 236q27 -31 42 -62q14 -21 22 -46q6 -18 6 -32q0 -13 -7 -27q-11 -13 -21 -13q-9 0 -18 5
q-9 10 -9 25q-4 50 -10 76q-5 27 -19 64zM869 248q24 -22 44 -46q21 -21 34 -41q13 -19 18 -35q5 -14 5 -28q0 -19 -5 -30q-9 -12 -21 -12q-7 0 -11 6q-5 4 -8 25q-6 26 -16 52q-11 25 -23 47q-13 22 -34 49z" />
  </g>

</svg>
