<?xml version="1.0" standalone="no"?>
<!DOCTYPE svg PUBLIC "-//W3C//DTD SVG 1.1//EN" "http://www.w3.org/Graphics/SVG/1.1/DTD/svg11.dtd" >
<svg xmlns="http://www.w3.org/2000/svg" xmlns:xlink="http://www.w3.org/1999/xlink" version="1.1" viewBox="0 -120 1000 1000">
  <g transform="matrix(1 0 0 -1 0 880)">
   <path fill="currentColor"
d="M203 943l76 -32q10 -4 10 -11q0 -8 -15 -11l-21 -5l-1 -3q52 -24 85 -53q53 -45 53 -88q0 -32 -23 -32q-11 0 -23 22q-44 76 -102 129q-56 -114 -119 -202h134l39 47l71 -54v-20h-121v-148h39l39 50l70 -58v-19h-148v-277l152 30l4 -19l-289 -102l-2 -14q-3 -14 -13 -14
q-6 0 -10 7l-42 72l141 28v289h-121l-12 27h133v148h-66l-7 16q-43 -52 -67 -77l-12 14q101 150 168 360zM62 380l14 10q84 -90 84 -153q0 -41 -27 -41q-14 0 -21 16q-5 11 -12 50q-12 72 -38 118zM320 411l67 -28q11 -5 11 -13q0 -9 -12 -11l-19 -2l-78 -141l-16 8z
M871 904l78 -63v-19h-160v-59l-58 -8v67h-138v-63l-59 -8v71h-120l-12 27h132v94l74 -12q12 -2 12 -11t-12 -12l-15 -4v-55h138v94l73 -12q12 -2 12 -11q0 -8 -14 -12l-13 -4v-55h39zM886 700l67 -54v-19h-266v-59h131l22 35l65 -43q9 -6 9 -11q0 -8 -13 -12l-18 -5v-191
l-59 -12v55h-137v-55l-58 -8v63h-129v-63l-59 -11v293l67 -35h121v59h-219l-12 27h231v109l76 -12q13 -2 13 -10q0 -9 -16 -13l-15 -4v-70h160zM500 411h129v51h-129v-51zM687 462v-51h137v51h-137zM500 489h129v52h-129v-52zM687 541v-52h137v52h-137zM746 736l4 11
q37 -7 59 -15q34 -12 34 -37q0 -30 -25 -30q-9 0 -13 6q-1 1 -10 18q-11 22 -49 47zM879 321l70 -54v-19h-156v-134q0 -41 -40 -61q-26 -13 -41 -13q-8 0 -16 22q-6 15 -29 20l-58 13v19h125v134h-328l-12 27h340v62l76 -10q14 -1 14 -9q0 -7 -13 -13l-18 -7v-23h47z
M476 216l12 12q98 -44 98 -83q0 -12 -6 -22q-9 -13 -25 -13q-9 0 -13 6q-3 3 -9 18q-19 47 -57 82z" />
  </g>

</svg>
