<?xml version="1.0" standalone="no"?>
<!DOCTYPE svg PUBLIC "-//W3C//DTD SVG 1.1//EN" "http://www.w3.org/Graphics/SVG/1.1/DTD/svg11.dtd" >
<svg xmlns="http://www.w3.org/2000/svg" xmlns:xlink="http://www.w3.org/1999/xlink" version="1.1" viewBox="0 -410 2048 2048">
  <g transform="matrix(1 0 0 -1 0 1638)">
   <path fill="currentColor"
d="M1230 496l-200 -96l-4 -32q-4 -36 -24 -36q-16 0 -31 30l-37 78q-15 -231 -210 -406l-27 25q106 131 135 275q23 118 23 389v79q-6 105 -7 124l101 -61h262l57 71l67 -48q39 -28 39 -50q0 -20 -57 -47v-560q0 -147 -143 -172q-10 65 -36 85q-25 19 -124 41l7 46
q118 -20 155 -20q54 0 54 63v222zM942 673q0 -39 -4 -174l-1 -31q73 10 293 69v272h-288v-74v-22q49 -4 109 -13q119 -18 119 -83q0 -41 -37 -41q-19 0 -50 27q-56 49 -141 70zM1023 1404l99 -49q49 -25 49 -42q0 -28 -45 -28h-55q-62 -84 -200 -202q176 11 400 36
q-35 64 -67 105l25 22q17 -14 26 -21q140 -111 140 -193q0 -64 -48 -64q-25 0 -40 32q-2 3 -19 75q-277 -64 -400 -81q-9 -59 -30 -59q-15 0 -33 33l-49 93q43 29 98 100q86 111 149 243zM178 1299q-37 -34 -85 -75l-24 28q262 278 319 641l122 -32q52 -13 52 -34
q0 -24 -40 -30l-49 -7l-3 -11q20 -14 90 -66q193 -135 193 -236q0 -64 -50 -64q-42 0 -82 89q-61 132 -171 236q-62 -163 -109 -240q-64 -103 -154 -191q96 -16 175 -16h166l66 90l113 -96q17 -15 17 -25q0 -26 -28 -26h-226v-294h84l63 97l116 -102q17 -15 17 -26
q0 -26 -27 -26h-253v-577q149 49 257 93l13 -39q-164 -94 -381 -169q-71 -25 -117 -47l-11 -41q-7 -36 -22 -36q-13 0 -31 33l-70 130q166 27 266 50v603h-92q-66 0 -149 -10l-40 85q70 -9 139 -14l50 -4h92v294h-12q-65 0 -149 -10zM1450 800l106 -24q83 -18 83 -44
q0 -27 -49 -43l-40 -13v-123h171l76 80l111 -86q16 -12 16 -25q0 -26 -26 -26h-348v-207q0 -65 20 -82t144 -17q95 0 122 23q24 19 30 63l13 115h34l6 -94q3 -49 20 -67q5 -5 40 -32q10 -8 10 -22q0 -70 -302 -70q-135 0 -177 23q-52 28 -52 153v359q0 116 -8 159z
M1451 1398l105 -24q83 -18 83 -44t-49 -42l-40 -14v-103h163l78 81l109 -86q17 -14 17 -26q0 -26 -27 -26h-340v-114q0 -59 35 -80q28 -17 99 -17q89 0 146 15q49 12 61 12q34 0 56 -24q12 -14 12 -29q0 -60 -221 -60q-110 0 -179 14q-101 20 -101 147v261q0 120 -7 159z
M1780 1812l66 76l81 -54q39 -27 39 -49q0 -16 -12 -26q-1 -1 -59 -36v-96q0 -71 6 -140q4 -39 4 -59q0 -51 -60 -51q-48 0 -48 39v36h-868v-22q0 -40 -57 -40q-51 0 -51 43q0 10 8 127l6 80v236l119 -64h826zM929 1510h232v244h-232v-244zM1254 1510h227v244h-227v-244z
M1571 1510h226v244h-226v-244zM124 742q201 -197 201 -314q0 -45 -32 -65q-16 -10 -31 -10q-42 0 -47 81q-6 85 -41 161q-14 31 -78 127zM596 744l136 -46q32 -11 32 -27q0 -21 -27 -27l-58 -13q-86 -153 -158 -240l-32 17q71 165 107 336z" />
  </g>

</svg>
