<?xml version="1.0" standalone="no"?>
<!DOCTYPE svg PUBLIC "-//W3C//DTD SVG 1.1//EN" "http://www.w3.org/Graphics/SVG/1.1/DTD/svg11.dtd" >
<svg xmlns="http://www.w3.org/2000/svg" xmlns:xlink="http://www.w3.org/1999/xlink" version="1.1" viewBox="0 -204 1024 1024">
  <g transform="matrix(1 0 0 -1 0 820)">
   <path fill="currentColor"
d="M176 965q50 -11 85 -25q8 -3 8 -10q0 -8 -17 -12q-20 -6 -35 -6q25 -17 42 -34q26 -22 39 -37q13 -16 20 -27q6 -9 9 -18q3 -8 3 -18q-1 -29 -23 -29q-5 0 -9 4q-4 5 -19 38q-16 32 -34 59q-15 18 -36 43q-7 -27 -15 -46q-15 -35 -31 -69q-20 -36 -35 -59
q-12 -20 -27 -36q43 -8 104 -8h7l40 43q32 -25 60 -47q6 -5 6 -10q0 -15 -13 -15h-93v-147h19l41 45q34 -26 65 -49q6 -4 6 -11q0 -14 -13 -14h-118v-301q5 1 10 3q47 13 110 37l4 -23q-47 -27 -84 -44q-39 -18 -76 -31q-33 -15 -71 -25q-10 -37 -17 -37t-48 84q53 6 95 17
q15 3 29 6v314q-71 -2 -96 -6l-21 46q44 -11 117 -11v145q-39 -2 -56 -5l-15 34q-2 -3 -3 -4q-19 -29 -44 -48l-18 21q26 28 47 60q17 28 37 63q17 39 32 74q13 31 21 62q6 29 11 64zM59 424q26 -42 41 -84q14 -29 22 -62q6 -25 6 -43q0 -12 -6 -24q-10 -10 -19 -10
q-8 0 -15 4q-7 8 -7 21q-4 69 -11 105q-8 36 -23 86zM307 927q44 -12 118 -12h182l44 49q36 -28 69 -53q7 -5 7 -11q0 -13 -14 -13h-288q-10 0 -19 -1v-659q0 -37 3 -49q3 -11 15 -16q17 -7 45 -11q38 -4 79 -4q24 0 57 3q20 2 32 10q7 4 10 4q19 0 29 -8q11 -8 11 -22
q0 -8 -2 -10q-3 -3 -13 -7q-19 -4 -55 -8q-40 -4 -64 -4q-51 0 -102 8q-48 4 -63 13q-9 5 -16 16q-6 11 -11 28v714q-21 -2 -33 -4zM475 821l59 -26h61l32 28q47 -32 47 -46q0 -9 -29 -22v-127q11 -8 22 -17q5 -3 5 -7q0 -13 -9 -13h-142v-13q0 -11 -10 -16q-14 -6 -24 -6
q-12 0 -12 13q0 2 1 14q1 21 1 39v137q0 45 -2 62zM521 619h78l2 2v145h-80v-147zM433 506l53 -24h24l28 26q43 -30 43 -42q0 -7 -26 -20v-153q12 -10 24 -18q5 -4 5 -7q0 -14 -10 -14h-99v-14q0 -10 -9 -15q-13 -5 -22 -5q-11 0 -11 13q0 3 1 12q1 18 1 35v169q0 41 -2 57z
M475 283h40v172h-40v-172zM586 506l53 -24h23l27 26q43 -30 43 -42q0 -7 -24 -20v-149q12 -9 22 -18q5 -3 5 -7q0 -14 -8 -14h-99v-10q0 -9 -11 -14q-13 -6 -20 -6q-11 0 -11 13q0 3 1 11q1 19 1 36v161q0 41 -2 57zM628 287h40v168h-40v-168zM761 973q51 -19 90 -36
q5 -6 5 -12q0 -10 -18 -16q-23 -4 -32 -4q-11 -66 -28 -127h130l30 31q36 -25 63 -53q4 -3 4 -6q0 -8 -20 -12q-15 -4 -31 -7q-13 -42 -31 -85q-19 -49 -38 -86l-18 14q18 48 28 93q10 44 15 84h-139q-12 -49 -26 -88q-18 -49 -43 -99l-19 13q19 56 32 104q10 44 19 96
q10 54 18 100q6 43 9 96zM780 684q42 -4 79 -9q12 -3 12 -10q0 -10 -12 -15q-12 -6 -24 -11q-1 -68 -5 -118q5 -38 8 -71q8 -60 21 -114q10 -44 30 -91q13 -43 39 -80q25 -41 59 -78l-4 -13q-45 0 -59 -26q-27 39 -41 75q-17 40 -31 87q-13 49 -26 113q-5 27 -9 57l-6 -38
q-10 -60 -26 -107q-17 -51 -41 -91q-25 -49 -71 -100l-14 20q27 37 46 74q16 36 30 79q15 44 26 105q9 55 15 130q6 74 6 145q0 59 -2 87zM272 432q45 -19 74 -38q6 -4 6 -10q0 -7 -10 -10q-16 -6 -31 -7q-5 -20 -11 -38q-5 -20 -13 -35q-6 -16 -16 -35q-8 -15 -17 -31
l-14 15q7 26 13 51q4 21 8 47q5 28 7 50q3 23 4 41z" />
  </g>

</svg>
