<?xml version="1.0" standalone="no"?>
<!DOCTYPE svg PUBLIC "-//W3C//DTD SVG 1.1//EN" "http://www.w3.org/Graphics/SVG/1.1/DTD/svg11.dtd" >
<svg xmlns="http://www.w3.org/2000/svg" xmlns:xlink="http://www.w3.org/1999/xlink" version="1.1" viewBox="0 -410 2048 2048">
  <g transform="matrix(1 0 0 -1 0 1638)">
   <path fill="currentColor"
d="M535 342v584q-4 86 -16 134l119 -87h158q72 110 113 264l117 -52q31 -15 31 -33q0 -24 -37 -28l-48 -6q-14 -18 -46 -66q-20 -28 -71 -79h517l68 77l83 -55q41 -26 41 -48q0 -28 -79 -61v-544h9l80 80l114 -86q17 -12 17 -25q0 -26 -28 -26h-1078q-109 0 -190 -7l-42 88
q79 -21 168 -24zM630 342h189v576h-189v-576zM1389 342v576h-189v-576h189zM1108 342v576h-195v-576h195zM1168 1879l108 -64h477l68 76l83 -54q41 -27 41 -49q0 -32 -80 -61v-1525q0 -138 -155 -170q-12 71 -47 93q-23 15 -153 43l8 42q160 -23 194 -23q58 0 58 57v1070
h-509v-7q0 -39 -64 -39q-29 0 -29 22v589zM1261 1596h509v161h-509v-161zM1261 1370h509v169h-509v-169zM176 1891l114 -76h470l68 76l80 -54q40 -28 40 -45q0 -25 -77 -64v-407q0 -52 -69 -52q-27 0 -27 27v18h-493v-1238q0 -32 -46 -32q-63 0 -59 55l4 62l3 80l4 76v1433
q0 34 -12 141zM282 1596h493v161h-493v-161zM282 1370h493v169h-493v-169z" />
  </g>

</svg>
