<?xml version="1.0" standalone="no"?>
<!DOCTYPE svg PUBLIC "-//W3C//DTD SVG 1.1//EN" "http://www.w3.org/Graphics/SVG/1.1/DTD/svg11.dtd" >
<svg xmlns="http://www.w3.org/2000/svg" xmlns:xlink="http://www.w3.org/1999/xlink" version="1.1" viewBox="0 -410 2048 2048">
  <g transform="matrix(1 0 0 -1 0 1638)">
   <path fill="currentColor"
d="M117 1606l-40 85q27 -3 41 -5q88 -12 147 -12h18v71q0 117 -6 160l101 -24q73 -18 73 -47q0 -25 -50 -39l-23 -7v-114h266v71q-4 144 -7 160l101 -24q73 -18 73 -47q0 -23 -52 -39l-21 -7v-114h47l79 81l91 -81q25 -20 25 -34q0 -23 -31 -23h-211v-201l28 -25
q20 -13 20 -25q0 -20 -27 -20h-195v-201h191l60 71l73 -49q41 -28 41 -50q0 -16 -65 -52v-255l27 -17q28 -18 28 -44q0 -16 -23 -16h-332v-240h202l81 82l113 -87q17 -14 17 -27q0 -26 -28 -26h-385v-131q0 -3 13 -182q3 -44 3 -53q0 -43 -57 -43q-55 0 -55 43v366h-211
q-72 0 -148 -12l-39 87q122 -17 187 -17h211v240h-207v-13q0 -24 -50 -24q-54 0 -54 37q0 15 4 54q6 59 6 102v322l121 -66h180v201h-90v-12q0 -24 -51 -24q-55 0 -55 38q0 12 4 53q7 76 7 102v114h-26q-54 0 -140 -11zM378 1405h266v212h-266v-212zM261 793h207v294h-207
v-294zM564 1087v-294h202v294h-202zM1465 407q212 -162 486 -214l-3 -39q-63 -5 -90 -19q-25 -14 -42 -57q-239 95 -423 262q-213 -170 -559 -280l-12 40q325 127 511 299q-183 196 -299 515q-34 -3 -66 -8l-30 80q70 -16 222 -16h479l73 78l89 -62q45 -32 45 -50
q0 -26 -53 -40l-37 -10q-123 -293 -291 -479zM1084 914q117 -268 314 -449q153 171 255 449h-569zM1107 1904l113 -85h293l68 76l83 -54q40 -26 40 -49q0 -27 -78 -61v-394q0 -47 26 -60q27 -13 65 -13q85 0 126 11q44 12 50 12q30 0 56 -25q12 -11 12 -27q0 -58 -240 -58
q-192 0 -192 128v456h-317v-118q0 -190 -52 -301q-47 -101 -194 -207l-25 30q82 74 128 173q48 103 48 297v118q0 51 -10 151z" />
  </g>

</svg>
