<?xml version="1.0" standalone="no"?>
<!DOCTYPE svg PUBLIC "-//W3C//DTD SVG 1.1//EN" "http://www.w3.org/Graphics/SVG/1.1/DTD/svg11.dtd" >
<svg xmlns="http://www.w3.org/2000/svg" xmlns:xlink="http://www.w3.org/1999/xlink" version="1.1" viewBox="0 -410 2048 2048">
  <g transform="matrix(1 0 0 -1 0 1638)">
   <path fill="currentColor"
d="M1340 698v140q0 115 -8 160l105 -26q86 -20 86 -43q0 -26 -50 -43l-41 -13v-175h283l86 89l123 -94q17 -13 17 -27q0 -27 -27 -27h-482v-277q0 -96 13 -219q3 -30 3 -50q0 -46 -54 -46t-54 42v550h-167q-152 0 -229 -7l-38 89q96 -23 267 -23h167zM1371 1471
q-102 -364 -491 -578l-21 37q205 153 299 297q80 122 113 244h-104q-117 0 -191 -8l-39 88q96 -23 230 -23h119q29 144 35 391l163 -38q31 -8 31 -32q0 -22 -28 -29l-71 -18q-11 -142 -31 -274h267l85 89l124 -94q17 -14 17 -26q0 -26 -27 -26h-367q126 -210 229 -301
q140 -125 286 -163l-4 -37q-78 1 -124 -70q-261 171 -443 571h-57zM179 1332q-54 -54 -109 -102l-29 30q106 126 137 172q87 129 132 256q28 78 56 230l116 -28q53 -12 53 -36q0 -27 -49 -34l-31 -4l-39 -119h189l65 64l76 -56q43 -32 43 -51q0 -13 -12 -24q-3 -2 -43 -14
l-29 -8q-105 -176 -152 -248h166l61 72l72 -50q42 -29 42 -49q0 -16 -65 -53v-513q0 -40 7 -105q3 -29 3 -45q0 -48 -68 -48q-37 0 -37 25v45h-461v-32q0 -31 -52 -31q-53 0 -53 43q0 6 4 50q7 102 7 104v559zM232 1391l54 -31h205q52 111 114 280h-212q-67 -135 -161 -249z
M273 1028h186v274h-186v-274zM553 1302v-274h181v274h-181zM734 972h-181v-277h181v277zM273 972v-277h186v277h-186zM199 493h38q-3 -194 -25 -273q-37 -136 -121 -136q-48 0 -48 43q0 22 48 70q87 88 108 296zM388 504q74 -196 74 -306q0 -73 -58 -73q-42 0 -42 39
q0 9 5 39q7 46 7 92q0 68 -24 198zM546 520q145 -182 145 -284q0 -67 -54 -67q-42 0 -45 63q-3 79 -26 149q-10 29 -51 118zM734 554q180 -173 180 -252q0 -35 -25 -53q-14 -10 -29 -10q-35 0 -44 47q-19 104 -112 245z" />
  </g>

</svg>
