<?xml version="1.0" standalone="no"?>
<!DOCTYPE svg PUBLIC "-//W3C//DTD SVG 1.1//EN" "http://www.w3.org/Graphics/SVG/1.1/DTD/svg11.dtd" >
<svg xmlns="http://www.w3.org/2000/svg" xmlns:xlink="http://www.w3.org/1999/xlink" version="1.1" viewBox="0 -140 1000 1000">
  <g transform="matrix(1 0 0 -1 0 860)">
   <path fill="currentColor"
d="M731 287l7 15q93 -34 107 -68q12 75 16 124h-311q0 -15 1 -20h-1l2 -8q0 -6 -17 -13.5t-30 -7.5t-16 4t-3 12l2 47v424l-8 50l68 -24h52l38 130l52 -14q34 -9 34 -19t-46 -19l7 1l-41 -79h155q18 21 23 25.5t11 4.5q11 0 17 -4t25 -23q15 -15 15 -19q0 -6 -24 -20l4 1
v-177q0 -6 1 -22t1 -23q0 -16 -25 -23h1q-9 -4 -24 -4q-11 0 -13.5 3t-2.5 13q1 4 1 12h-259v-83h296q12 24 17 30.5t13 6.5q13 0 33 -16h-1l33 -25l-6 -19h-385v-80h312q10 17 14 21t13 4q15 0 24 -11l24 -23q15 -13 15 -17q0 -8 -36 -20l7 1q-13 -105 -29.5 -161
t-34.5 -75t-50 -30q-27 -9 -39 -9q-20 0 -22 14q-2 22 -7 23l-70 20l2 15l82 -11q5 -1 15 -1q16 0 27.5 6t19 20t11 25t9.5 33q-6 -6 -15 -6q-19 0 -28 16q-28 50 -63 73zM437 655l38 -30l-7 -19h-174q17 -14 17 -16q0 -4 -23 -9q-2 0 -11 -6l4 1l-130 -327l246 42
q-23 57 -78 158v-1q-8 14 -10 19l20 17q89 -114 123 -171t34 -98q0 -17 -9 -29t-21 -12q-18 0 -25.5 15t-27.5 83l-270 -73q-7 -33 -26 -33t-29 30l-14 41l47 7l113 362h-161v23h301q16 28 22.5 35.5t19.5 7.5q8 0 31 -17zM550 801v-99h259v99h-259zM550 680v-91h259v91
h-259zM492 277l32 7q13 -64 13 -113q0 -83 -41 -83q-29 0 -29 38q0 12 11 42q14 39 14 77v32zM112 812v24h210q14 24 18 28l-2 -1l5 5h-2q4 7 16 7q11 0 22 -12l42 -39l-7 -12h-302zM554 272l17 16q79 -72 79 -122q0 -17 -8 -26t-14 -10.5t-11 -1.5q-27 0 -27 30
q-2 63 -36 114zM648 271l12 16q98 -56 98 -100q0 -28 -26 -28q-20 0 -27 22q-19 53 -57 90zM337 861q-1 -1 -1 0h1z" />
  </g>

</svg>
