<?xml version="1.0" standalone="no"?>
<!DOCTYPE svg PUBLIC "-//W3C//DTD SVG 1.1//EN" "http://www.w3.org/Graphics/SVG/1.1/DTD/svg11.dtd" >
<svg xmlns="http://www.w3.org/2000/svg" xmlns:xlink="http://www.w3.org/1999/xlink" version="1.1" viewBox="0 -410 2048 2048">
  <g transform="matrix(1 0 0 -1 0 1638)">
   <path fill="currentColor"
d="M508 656h326l61 72l72 -50q42 -28 42 -49q0 -24 -73 -53q-129 -244 -376 -389q-164 -96 -435 -167l-12 42q224 71 415 193q-24 3 -33 16q-7 8 -18 38q-40 102 -129 173q-76 -61 -237 -147l-22 34q18 13 93 65q106 73 204 213q71 102 102 201l113 -35q58 -18 58 -36
q0 -26 -58 -36l-41 -8q-26 -40 -52 -77zM466 599q-40 -49 -82 -87q191 -111 191 -189q0 -15 -9 -42q175 125 269 318h-369zM754 1745q18 51 60 195l108 -29q62 -17 62 -43q0 -25 -42 -32l-49 -7l-68 -84h654l61 72l72 -50q42 -28 42 -50q0 -16 -65 -52v-121q0 -42 7 -104
q3 -29 3 -45q0 -48 -68 -48q-37 0 -37 25v37h-1035v-85h1169l80 81l106 -87q18 -14 18 -27q0 -19 -28 -19h-1345v-76h1292l53 66l71 -49q42 -29 42 -50q0 -16 -65 -52q-34 -185 -68 -250q-67 -125 -220 -141q0 40 -12 58q-18 28 -95 52l-77 25l13 43l117 -30q59 -15 94 -15
q77 0 111 103q16 47 39 186h-1309q-20 -16 -58 -16q-24 0 -24 24v663l114 -68h277zM1494 1691h-1035v-88h1035v88zM459 1461h1035v92h-1035v-92zM1169 580v-307q0 -80 81 -96q49 -10 111 -10h275q88 0 136 19q56 23 70 83l39 162l36 -6l-11 -148q-1 -9 -1 -16q0 -26 10 -41
q3 -5 40 -38q15 -14 15 -26q0 -77 -346 -77h-227q-171 0 -241 31q-84 38 -84 138v453l100 -64h468l61 73l72 -50q45 -31 45 -47q0 -19 -68 -55q-35 -205 -84 -259q-51 -57 -157 -70q0 36 -14 54q-26 33 -86 58l-66 28l15 40l72 -23q92 -30 117 -30q66 0 100 224h-478z
M1309 1115q103 -53 129 -74q45 -37 45 -76q0 -50 -44 -50q-28 0 -59 74q-17 38 -89 100zM955 1109q160 -116 160 -191q0 -23 -14 -40.5t-33 -17.5q-36 0 -47 52q-22 98 -90 173zM301 1133l37 -5q-25 -335 -166 -335q-49 0 -49 47q0 18 14 35q4 5 67 51q59 44 97 207z
M596 1100q116 -119 116 -200q0 -66 -51 -66q-41 0 -44 75q-3 74 -49 174z" />
  </g>

</svg>
