<?xml version="1.0" standalone="no"?>
<!DOCTYPE svg PUBLIC "-//W3C//DTD SVG 1.1//EN" "http://www.w3.org/Graphics/SVG/1.1/DTD/svg11.dtd" >
<svg xmlns="http://www.w3.org/2000/svg" xmlns:xlink="http://www.w3.org/1999/xlink" version="1.1" viewBox="0 -140 1000 1000">
  <g transform="matrix(1 0 0 -1 0 860)">
   <path fill="currentColor"
d="M855 886h-1q4 6 15 6t21 -10l35 -34l-5 -13h-264q23 -98 71 -167q32 33 85 127l40 -28h-1q20 -12 20 -19q0 -8 -28 -8q-44 -65 -88 -103q63 -60 100 -60q6 0 15 23l39 101l26 -8l-21 -99q-2 -6 -2 -10q0 -26 13 -38t13 -20q0 -14 -28 -14q-32 0 -90 28.5t-99 64.5
q-49 -37 -141 -81l-2 4q-4 -4 -19 -13l5 1v-26h172q18 21 26 28t19.5 7t25.5 -14l35 -32l-5 -12h-273v-51h284q19 25 26.5 32.5t15.5 7.5t25 -15l37 -33l-8 -13h-281l35 -25h-1q17 -12 17 -14q0 -7 -32 -7l-15 -15q15 -4 26 -4q1 -1 2 -1q84 -17 84 -53q0 -11 -18 -11
q-11 0 -27 10q-33 26 -84 47q-43 -34 -98 -61h251v64l-3 38l49 -5q42 -4 42 -15q0 -5 -33 -19l6 1v-224q0 -3 0.5 -6.5t1 -5.5t0.5 -4v-3q0 -8 -21 -16h1l-7 -4q-3 0 -6 -1h3q-8 -4 -19 -4q-7 0 -10.5 2.5t-4 6t-0.5 11.5q1 4 1 12h-587l2 -4l1 -8q0 -4 -29 -14h1
q-11 -4 -20 -4q-15 0 -15 11l-1 305l54 -13q34 -4 34 -12q0 -6 -33 -20l6 1v-70h29l-4 16q79 53 136 118h-310v21h248v88l-5 43l59 -10q31 -4 31 -13q0 -7 -29 -21l6 1v-88h125v103l-4 40l51 -11q16 -3 23 -7q54 29 120 92q-38 48 -57.5 90t-37.5 112h-384
q-4 -138 -30.5 -216t-99.5 -165l-18 16q49 69 68.5 142t19.5 181q0 37 -1 46l-4 56l72 -38h373l-14 95l54 -12q36 -8 36 -17q0 -5 -30 -16l6 1l6 -51h179q14 18 25 29zM420 125h1q-33 35 -63 56q-38 -27 -132 -70h576v131h-151l30 -15q12 -6 12 -10q0 -10 -25 -11v1l-17 -12
h1l-2 -2q15 -4 21 -6h-1q92 -27 92 -61q0 -10 -17 -10q-14 0 -27 11h1q-37 29 -85 54q-45 -29 -140 -68l-6 11q82 39 152 118h-268l27 -14q22 -10 22 -16q0 -7 -27 -7l-8 -6q-8 -6 -9 -8q28 -7 56 -25.5t28 -36.5q0 -15 -18 -15q-15 0 -23 11zM493 701l10 10l-3 -1q2 2 4 2
q7 10 17 10q9 0 23 -10.5t24 -21t10 -12.5q0 -6 -15 -10l-1 -1l-5 -2.5t-5 -3.5l4 1v-80q0 -6 -17.5 -13.5t-27.5 -7.5q-6 0 -9 1t-4 4.5t-1.5 6t-0.5 9.5h-181l1 -14q0 -10 -16.5 -18.5t-30.5 -8.5q-6 0 -9 1t-4 4.5t-1.5 6t-0.5 9.5q1 5 1 20v103l-5 49l65 -33h178z
M387 344h1l-2 -2q57 -14 91 -34q17 -11 17 -30q0 -9 -20 -9q-16 0 -30 12h1q-35 29 -78 49q-42 -27 -122 -69h307l-7 15q56 35 116 119h-277l29 -18q15 -9 18 -15q0 -7 -30 -7q-1 -1 -7 -5.5t-7 -5.5zM315 679v-75h181v75h-181zM369 242h-153v-120q74 40 153 120zM245 776
h241q12 18 23 29l-2 -1q3 6 14 6q14 0 25 -10l30 -31l-10 -15h-321v22zM699 943l4 9q33 -9 53 -15.5t40.5 -20.5t20.5 -31q0 -15 -20 -15q-15 0 -29 14q-30 31 -69 59zM216 111h1l-1 3v-3zM563 668v-1h-2q1 0 2 1zM667 206q0 -1 -1 -1z" />
  </g>

</svg>
