<?xml version="1.0" standalone="no"?>
<!DOCTYPE svg PUBLIC "-//W3C//DTD SVG 1.1//EN" "http://www.w3.org/Graphics/SVG/1.1/DTD/svg11.dtd" >
<svg xmlns="http://www.w3.org/2000/svg" xmlns:xlink="http://www.w3.org/1999/xlink" version="1.1" viewBox="0 -144 1024 1024">
  <g transform="matrix(1 0 0 -1 0 880)">
   <path fill="currentColor"
d="M628 61l-12 -4l-11 -4l-12 -3l-12 -3l-11 -2l-25 -2h-11v32l-108 16v16h108l17 1l9 1l9 2l17 4l8 3l9 3l8 4l25 14l16 12l14 13l13 14l11 16l10 18l9 19l7 21l6 23l2 10h-397l-24 -47l-72 1l94 180h-254v21h764l53 54l65 -54v-21h-556l-59 -113h389l32 27l59 -48l-26 -17
l-5 -2l-9 -33l-9 -26l-11 -25l-14 -23l-15 -21l-17 -19l-19 -18l-21 -15l-22 -14zM837 536l-40 29l-37 31l-36 32l-35 34l-32 36l-31 37l-28 39l-23 38h-113l-11 -16l-40 -53l-46 -51l-51 -48l-57 -47l-63 -43l-69 -41l-73 -38l-5 9l68 46l62 47l57 48l52 48l45 50l41 50
l26 39h-327v22h340l24 44l24 54l20 64l59 -27l13 -15l-20 -5l-16 -40l-29 -58l-11 -17h354l54 54l64 -54v-22h-357l94 -87l36 -30l64 -49l10 10l67 83l31 40l8 12l2 3l47 -46l4 -18l-22 4l-22 -18l-65 -47l-49 -31l76 -49l110 -58l-61 -48l-42 26zM727 575v-22h-430v22h312
l54 54zM175 660l-14 26l-9 13l-9 13l-23 26l-27 28l-16 12l4 8l39 -16l34 -17l17 -10l29 -23l13 -12l23 -27l3 -25l-14 -19l-24 -4l-20 15z" />
  </g>

</svg>
