<?xml version="1.0" standalone="no"?>
<!DOCTYPE svg PUBLIC "-//W3C//DTD SVG 1.1//EN" "http://www.w3.org/Graphics/SVG/1.1/DTD/svg11.dtd" >
<svg xmlns="http://www.w3.org/2000/svg" xmlns:xlink="http://www.w3.org/1999/xlink" version="1.1" viewBox="0 -144 1024 1024">
  <g transform="matrix(1 0 0 -1 0 880)">
   <path fill="currentColor"
d="M338 265l-18 22l-20 21l-8 8l-6 -13l-39 -66l-43 -59l-48 -52l-53 -45l-57 -37l-5 8l49 45l45 49l40 54l37 58l33 65l9 25l-26 18l-57 35l-12 -58l-69 -20l77 397h-95v21h99l47 243l61 -23l14 -13l-17 -5l-39 -202h108l32 27l59 -48l-27 -16l-4 -2l-12 -72l-20 -91
l-24 -85l-29 -79l-8 -15l20 -14l26 -21l24 -23l22 -24l20 -27l4 -24l-14 -20l-25 -4l-19 14l-15 24zM797 118l-58 40l-51 48l-26 31l-46 -51l-59 -48l-67 -39l-74 -30l-82 -20l-2 9l77 30l68 36l59 42l50 48l43 54l4 7l-29 45l-33 67l-27 72l-20 79l-13 85l10 1l24 -80
l29 -74l32 -67l36 -59l16 -22l5 7l25 68l19 75l10 83l3 90v80h-277v22h277v236l64 -10l16 -11l-16 -10v-205h75l54 54l65 -54v-22h-194v-80l-6 -96l-15 -88l-24 -81l-32 -73l-16 -25l36 -37l48 -40l54 -32l58 -27l105 -34l-63 -55l-69 27zM232 720l-58 -299l38 -11l33 -13
l25 -12l27 84l20 83l16 88l10 80h-111zM862 862l-3 13l-3 14l-5 12l-7 13l-16 24l-11 13l-13 10l5 8l33 -14l15 -8l14 -10l12 -12l12 -14l11 -15l9 -16l7 -18l6 -19l-6 -24l-21 -12l-23 5l-13 21l-1 15z" />
  </g>

</svg>
