<?xml version="1.0" standalone="no"?>
<!DOCTYPE svg PUBLIC "-//W3C//DTD SVG 1.1//EN" "http://www.w3.org/Graphics/SVG/1.1/DTD/svg11.dtd" >
<svg xmlns="http://www.w3.org/2000/svg" xmlns:xlink="http://www.w3.org/1999/xlink" version="1.1" viewBox="0 -144 1024 1024">
  <g transform="matrix(1 0 0 -1 0 880)">
   <path fill="currentColor"
d="M189 870h312v124l65 -11l16 -10l-16 -10v-93h290l54 54l64 -54v-21h-785v-339l-3 -63l-6 -59l-8 -57l-12 -53l-15 -49l-17 -46l-21 -43l-23 -38l-28 -34l-30 -28l-7 6l21 35l18 36l17 38l14 42l12 44l10 48l7 50l5 54l2 57v453zM426 115h108l6 1h5l3 1l2 1l2 3l1 4l1 5
l1 7v151h-352v22h649l54 54l65 -54v-22h-351v-151l-2 -14l-2 -13l-4 -13l-7 -12l-9 -11l-10 -9l-13 -7l-13 -4l-13 -2l-13 -1v32l-108 16v16zM443 215l6 -18l-22 3l-39 -34l-21 -15l-23 -14l-50 -28l-28 -12l-29 -11l-31 -11l-5 9l96 73l20 16l35 34l15 16l22 28l5 8z
M859 123l-29 28l-17 15l-39 28l-46 29l-27 14l3 9l30 -7l29 -7l26 -8l25 -10l23 -11l22 -12l20 -13l19 -14l17 -15l16 -16l6 -24l-12 -21l-24 -6l-21 12l-10 14zM865 407v-21h-555v21h457l44 48zM355 762h468l33 27l59 -49l-27 -21v-239l-65 -32v32h-468l-64 -32v346z
M355 740v-238h468v238h-468zM509 689h156l32 27l59 -49l-27 -21v-85l-64 -32v32h-156l-64 -32v192zM509 667v-85h156v85h-156z" />
  </g>

</svg>
