<?xml version="1.0" standalone="no"?>
<!DOCTYPE svg PUBLIC "-//W3C//DTD SVG 1.1//EN" "http://www.w3.org/Graphics/SVG/1.1/DTD/svg11.dtd" >
<svg xmlns="http://www.w3.org/2000/svg" xmlns:xlink="http://www.w3.org/1999/xlink" version="1.1" viewBox="0 -144 1024 1024">
  <g transform="matrix(1 0 0 -1 0 880)">
   <path fill="currentColor"
d="M366 60v25l18 17l16 3l8 4l7 3l7 6l7 7l7 8l13 22l2 14h9v-15l2 -15l-1 -14l-2 -14l-3 -14l-6 -12l-8 -13l-10 -11l-11 -10l-13 -8h-25zM146 940h114l32 27l59 -48l-27 -22v-758v-13l-2 -14l-5 -12l-7 -13l-8 -11l-11 -8l-12 -7l-13 -4l-14 -3l-14 -1v33l-86 16v16h86h7
l5 1l5 2l2 2l2 5l1 5v313h-114v-22l-2 -57l-5 -54l-5 -49l-7 -45l-9 -40l-10 -37l-13 -32l-14 -27l-17 -22l-18 -16l-8 6l9 21l8 23l7 27l6 30l5 35l5 39l2 43l2 48v51l-1 56v549zM897 83l-3 8l-4 9l-6 10l-27 33l-12 12l-15 10l5 9l16 -8l17 -6l15 -7l14 -7l25 -15l21 -17
l9 -10l7 -11l-1 -25l-18 -17l-24 1l-17 18v6zM725 83l3 9v6l-1 7l-4 9l-4 9l-6 9l-15 22l-11 8l5 9l12 -7l14 -6l13 -6l11 -6l10 -7l10 -8l9 -8l7 -9l7 -11l4 -11l-6 -24l-21 -13l-24 7zM589 55l-21 13l-6 24l3 3l2 5l1 4l2 6l-1 7l-1 8l-2 10l-8 19l-8 8l6 7l9 -7l11 -5
l10 -7l9 -7l8 -8l7 -9l6 -9l5 -10l3 -12l2 -12l-13 -21zM352 216h276v57h-226v22h226v63h-136l-65 -32v269l65 -33h336l32 27l59 -48l-27 -22v-161l-64 -32v32h-136v-63h127l44 48l54 -48v-22h-225v-57h177l44 49l54 -49v-21h-615v21zM492 450v-70h136v70h-136zM692 450v-70
h136v70h-136zM146 688v-221h114v221h-114zM492 541v-70h136v70h-136zM692 541v-70h136v70h-136zM549 758h222l32 26l59 -48l-27 -21v-87l-64 -32v32h-222l-64 -32v194zM549 736v-86h222v86h-222zM357 681l-7 23l10 22l6 3l7 6l7 9l7 11l6 14l6 18l5 20l6 22l5 25l2 27h10
l3 -28l2 -16h200v156l65 -11l16 -11l-16 -10v-124h60l8 14l42 80l9 22l3 11h-1l6 10l53 -37l9 -18h-27l-66 -63l-17 -14l-5 -5h129l32 27l60 -48l-27 -16l-18 -8l-25 -31l-44 -50l-12 -15l-8 6l8 16l25 76l6 22h-463l1 -12v-23l-1 -21l-3 -19l-4 -18l-6 -17l-8 -15l-11 -14
l-23 -8zM146 919v-210h114v210h-114zM505 877l-3 10l-4 10l-4 11l-12 20l-14 22l-9 8l5 8l12 -7l13 -5l12 -7l12 -7l11 -8l10 -8l10 -10l9 -10l8 -11l8 -12l-1 -24l-17 -18l-24 1l-18 17l-1 10z" />
  </g>

</svg>
