<?xml version="1.0" standalone="no"?>
<!DOCTYPE svg PUBLIC "-//W3C//DTD SVG 1.1//EN" "http://www.w3.org/Graphics/SVG/1.1/DTD/svg11.dtd" >
<svg xmlns="http://www.w3.org/2000/svg" xmlns:xlink="http://www.w3.org/1999/xlink" version="1.1" viewBox="0 -144 1024 1024">
  <g transform="matrix(1 0 0 -1 0 880)">
   <path fill="currentColor"
d="M316 483l-14 25l-8 12l-8 12l-20 23l-17 18v-498l-64 -32v491l-22 -59l-19 -46l-22 -45l-23 -43l-25 -41l-28 -39l-8 5l35 87l33 91l14 46l25 95l11 49l8 51l6 35h-128v21h143v242l64 -10l16 -11l-16 -10v-211h12l54 54l64 -54v-21h-130v-128l17 -6l17 -7l16 -8l28 -19
l14 -11l25 -24l11 -14l3 -24l-14 -20l-25 -3l-20 14zM889 84l-19 31l-16 38l-11 46l-10 53l-7 62l-4 69l-1 79v86v13l64 -13l16 -11l-16 -10v-65l2 -76l4 -67l6 -58l9 -49l10 -39l12 -29v-1l24 104h11l-10 -133l4 -2l21 -12l7 -24l-13 -21l-25 -7l-32 13zM543 118l79 34v407
l65 -11l16 -11l-16 -9v-350l78 30l28 9l29 8l4 -9l-24 -18l-49 -32l-152 -90l-3 -21l-17 10zM345 124l33 13l24 9l10 4v403l65 -10l16 -11l-16 -10v-348l71 25l53 15l4 -9l-45 -32l-112 -67l-47 -26l-3 -21l-17 10zM548 275l-14 41l-5 13l-11 25l-17 37l-8 10l7 7l10 -8
l13 -7l23 -18l21 -21l21 -24l19 -28v-24l-16 -19h-25zM751 275l-14 41l-5 13l-5 13l-12 25l-12 24l-8 10l7 7l11 -8l12 -7l12 -9l22 -19l11 -11l20 -24l19 -28l1 -24l-16 -19h-25zM542 444l-4 10l-8 21l-12 22l-12 24l-9 9l6 8l11 -8l13 -7l22 -15l11 -8l20 -17l17 -19
l9 -10l1 -25l-15 -19l-25 -1l-19 15l-3 10zM752 434l-7 20l-10 21l-12 22l-14 24l-9 9l6 8l11 -8l13 -7l13 -7l22 -15l21 -18l9 -9l17 -20l2 -25l-16 -19l-25 -1l-19 15zM637 956l24 -26l1 -19l-20 8l-49 -23l-22 -9l-44 -16l-23 -7l-23 -5l-15 -4v-108h68l44 48l54 -48v-22
h-166v-113h377v113h-144v22h144v102h-160v21h160l32 27l60 -48l-27 -22v-236l-65 -32v32h-377l-65 -32v338l53 -26l76 47l37 24l54 39z" />
  </g>

</svg>
