<?xml version="1.0" standalone="no"?>
<!DOCTYPE svg PUBLIC "-//W3C//DTD SVG 1.1//EN" "http://www.w3.org/Graphics/SVG/1.1/DTD/svg11.dtd" >
<svg xmlns="http://www.w3.org/2000/svg" xmlns:xlink="http://www.w3.org/1999/xlink" version="1.1" viewBox="0 -144 1024 1024">
  <g transform="matrix(1 0 0 -1 0 880)">
   <path fill="currentColor"
d="M351 110h107l7 1l5 1h3l1 2l3 2l1 5l1 4l1 7v326l64 -11l16 -10l-16 -10v-46l19 -29l26 -34l28 -31l22 -19l135 85l43 29l37 29l22 -32l18 -19v-20l-19 8l-52 -27l-50 -23l-55 -22l-29 -10l-31 -10l-3 -1l29 -20l39 -23l44 -20l47 -17l52 -15l105 -23l-63 -58l-61 16
l-54 20l-51 23l-46 27l-41 29l-37 32l-30 36l-25 38l-19 39v-207l-1 -14l-2 -13l-4 -13l-7 -12l-9 -11l-11 -9l-12 -7l-13 -4l-13 -2l-14 -1v32l-107 16v16zM447 329l-26 -17l-10 -3l-3 -11l-19 -32l-23 -29l-28 -27l-34 -24l-37 -22l-43 -20l-47 -17l-53 -15l-57 -12l-3 9
l54 22l91 45l37 23l32 24l26 24l21 25l15 24l11 25l1 8h-227v21h231l32 27zM659 472l-23 -7l-12 -3l-35 -4l-11 -1h-12v32l-108 16v17h117h10l18 2l9 2l18 4l9 3l18 6l3 3l7 8l4 6h-435l-22 -71l-71 -11l66 213h-149v21h156l52 168l41 -39h423l33 27l59 -49l-27 -16l-4 -2
l-4 -31l-7 -51l-1 -7h85l44 49l54 -49v-21h-187l-3 -18l-9 -40l-9 -36l-6 -16h63l54 54l64 -54v-21h-189l-9 -22l-14 -22l-17 -19l-21 -13l-11 -5zM276 687l-34 -110h440l3 7l9 27l8 33l8 38l1 5h-435zM505 603l-8 8l-10 8l-12 8l-30 16l-37 16l-21 6l2 10l22 -2l22 -1
l20 -1l19 -3l34 -7l16 -6l14 -5l13 -7l12 -9l9 -23l-10 -23l-23 -8l-22 9l-4 7zM317 815l-34 -107h432l3 17l7 50l6 40h-414zM530 734l-5 6l-8 7l-10 8l-12 7l-13 8l-33 16l-19 5l2 10l20 -3h20l17 -1l18 -2l15 -3l15 -4l13 -4l13 -5l12 -7l11 -8l7 -24l-12 -22l-24 -7
l-21 12l-2 5zM326 953l8 -17h-22l-25 -27h521l53 53l65 -53v-22h-662l-23 -18l-27 -18l-28 -18l-30 -16l-33 -14l-35 -13l-37 -11l-3 8l89 61l26 19l45 40l20 20l16 20l15 21l16 25z" />
  </g>

</svg>
