<?xml version="1.0" standalone="no"?>
<!DOCTYPE svg PUBLIC "-//W3C//DTD SVG 1.1//EN" "http://www.w3.org/Graphics/SVG/1.1/DTD/svg11.dtd" >
<svg xmlns="http://www.w3.org/2000/svg" xmlns:xlink="http://www.w3.org/1999/xlink" version="1.1" viewBox="0 -144 1024 1024">
  <g transform="matrix(1 0 0 -1 0 880)">
   <path fill="currentColor"
d="M826 81l-60 31l-56 38l-45 38l-59 -41l-66 -34l-70 -28l-75 -23l-81 -15l-1 10l76 25l70 29l65 33l60 38l49 39l-19 20l-42 54l-35 60l-31 65l-22 63h-106v22h442l32 27l59 -49l-27 -16l-11 -4l-23 -51l-37 -65l-44 -59l-49 -52l-16 -14l38 -27l53 -31l56 -25l60 -20
l63 -14l49 -10l-63 -59l-69 19zM497 483l29 -53l38 -59l39 -53l43 -46l21 -19l17 18l43 51l37 56l31 61l18 44h-316zM432 593h107l7 1h5l3 1l2 1l1 1l1 1l1 2l1 3l1 5v114l-26 -13l-102 -43l-49 -19l-28 -9l-7 -20l-14 13l-14 31l-101 -274l-26 -78l-9 -29l-6 -22l-2 -14
l-4 1l5 -11l10 -33l7 -36l4 -40v-43l-12 -21l-23 -8l-22 11l-8 23l3 38v35l-2 31l-5 28l-7 25l-7 15h-2l1 3l-2 4l-12 20l-16 18l-18 17l-23 16l4 9l29 -7l26 -11l24 -18l5 -6l123 260l59 114l-6 12l10 3h4l3 7l9 -4l59 11l52 11l109 22l7 1v173h-231v22h231l32 26l59 -48
l-27 -21v-279v-14l-2 -13l-5 -13l-7 -13l-8 -10l-11 -9l-12 -7l-13 -4l-14 -2l-14 -1v32l-107 16v16zM793 593h75l7 1h5l3 1l2 1l2 2l1 2l1 3v5l1 7v107l-31 -16l-72 -31l-93 -34h-1l-7 -20l-14 12l-27 61l80 15l126 24l39 5v177h-216v22h216l32 26l59 -48l-27 -21v-279v-14
l-3 -13l-4 -13l-7 -13l-9 -10l-10 -9l-12 -7l-13 -4l-14 -2l-14 -1v32l-75 16v16zM136 611l-6 11l-19 22l-24 22l-15 11l-17 11l-19 10l3 9l21 -5l21 -5l19 -6l18 -7l17 -7l16 -9l15 -10l13 -11l12 -13l11 -13l2 -25l-15 -19l-25 -2l-19 15l-3 11zM440 797l-4 9l-4 9l-6 9
l-16 20l-20 20l-13 8l4 9l15 -6l15 -4l14 -5l14 -6l13 -6l12 -8l11 -8l10 -10l10 -10l8 -12v-24l-17 -18h-25l-17 16l-2 9zM779 793l-7 17l-12 19l-7 9l-17 20l-10 10l-12 8l4 9l14 -6l15 -4l27 -10l12 -7l12 -7l11 -8l10 -9l10 -9l8 -9l2 -25l-15 -19l-24 -3l-19 16z
M207 858l-15 22l-10 11l-11 11l-26 22l-15 12l-17 9l3 9l19 -6l19 -4l19 -5l17 -7l17 -8l15 -9l14 -10l14 -11l12 -12l11 -13l3 -25l-15 -19l-24 -3l-20 14z" />
  </g>

</svg>
