<?xml version="1.0" standalone="no"?>
<!DOCTYPE svg PUBLIC "-//W3C//DTD SVG 1.1//EN" "http://www.w3.org/Graphics/SVG/1.1/DTD/svg11.dtd" >
<svg xmlns="http://www.w3.org/2000/svg" xmlns:xlink="http://www.w3.org/1999/xlink" version="1.1" viewBox="0 -144 1024 1024">
  <g transform="matrix(1 0 0 -1 0 880)">
   <path fill="currentColor"
d="M50 91h188v350l64 -32h420l32 27l59 -49l-27 -21v-275h70l54 54l64 -54v-22h-924v22zM302 178v-87h420v87h-420zM302 283v-83h420v83h-420zM302 387v-83h420v83h-420zM663 505h97h6l5 2l5 1l2 2l2 5l1 5v6v160h-387v22h387v81l65 -11l16 -11l-16 -9v-50h22l54 53l65 -53
v-22h-141v-160l-1 -13l-2 -13l-5 -13l-7 -13l-8 -10l-11 -10l-12 -6l-13 -4l-14 -3l-13 -1v33l-97 16v16zM68 677v21h227v92h-120v-16l-64 -32v208l64 -11l17 -11l-17 -10v-106h120v170l64 -10l16 -11l-16 -10v-471l-64 -32v229h-95v-37l-3 -25l-5 -24l-8 -23l-11 -22
l-12 -20l-15 -18l-17 -17l-19 -15l-21 -13l-23 -12l-5 8l17 17l15 18l12 18l10 18l8 17l6 19l5 17l2 19l1 19l-1 19v37h-68zM596 566l-14 20l-18 19l-10 10l-36 31l-15 8l4 9l17 -5l16 -4l17 -4l30 -12l14 -6l13 -8l25 -16l12 -10l7 -23l-11 -22l-23 -7l-22 11zM906 982
l54 -45l2 -17l-23 11l-20 -5l-35 -6l-36 -6l-37 -5l-37 -5l-78 -8l-40 -2l-41 -3h-42h-8l-7 -2l-8 -15l-12 -17l-13 -17l-15 -16l-34 -30l-20 -15l-45 -27l-5 8l17 19l30 37l24 34l9 17l7 15l6 16l3 14l2 14l3 10l60 -26l84 19l77 16l73 17l103 27zM674 803l-2 8l-4 8l-5 10
l-7 9l-9 11l-20 22l-14 10l5 8l15 -7l31 -11l13 -6l12 -7l12 -8l10 -9l10 -8l8 -10l7 -12l-3 -24l-18 -16l-24 2l-17 18l1 6zM874 816l-11 17l-17 19l-21 20l-12 10l-15 8l4 9l16 -5l17 -4l15 -4l28 -11l13 -7l24 -15l10 -8l10 -10l4 -24l-14 -21l-24 -3l-20 13l-3 8z" />
  </g>

</svg>
