<?xml version="1.0" standalone="no"?>
<!DOCTYPE svg PUBLIC "-//W3C//DTD SVG 1.1//EN" "http://www.w3.org/Graphics/SVG/1.1/DTD/svg11.dtd" >
<svg xmlns="http://www.w3.org/2000/svg" xmlns:xlink="http://www.w3.org/1999/xlink" version="1.1" viewBox="0 -144 1024 1024">
  <g transform="matrix(1 0 0 -1 0 880)">
   <path fill="currentColor"
d="M736 419l4 5l1 -1l27 23l60 -48l-27 -16l-16 -7l-24 -37l-44 -51l-51 -46l-58 -41l-65 -38l-72 -32l-79 -27l-86 -23l-93 -18l-100 -13l-1 10l97 23l90 26l82 28l74 32l67 35l13 8l-20 -8l-23 10l-7 9l-10 10l-13 11l-15 11l-18 12l-42 24l-51 27l-15 7l-28 -17l-40 -20
l-43 -20l-46 -17l-49 -15l-4 8l86 50l74 49l32 24l29 25l26 25l23 25l20 26l19 29l51 -39l8 -18l-21 1l-9 -11l-9 -10h296zM419 398l-24 -22l-31 -24l-27 -18l35 -6l27 -7l26 -7l24 -9l41 -17l18 -9l16 -10l14 -11l9 -23l-9 -21l42 27l51 41l44 44l36 47l14 25h-306z
M442 731l6 8l2 -2l24 21l60 -49l-27 -16l-20 -8l-24 -31l-40 -44l-42 -41l-44 -37l-45 -34l-48 -31l-49 -27l-52 -23l-53 -20l-55 -15l-3 9l50 25l49 27l46 28l45 30l42 33l15 13l-17 8l-5 8l-5 8l-7 8l-7 8l-18 16l-29 21l-30 -23l-28 -18l-29 -16l-31 -12l-5 8l70 64
l42 47l19 25l36 54l16 28l17 36l55 -36l6 -12v99h-285v21h285v108l65 -11l16 -11l-16 -9v-77h236v108l65 -11l16 -11l-16 -9v-77h166l54 54l65 -54v-21h-285v-82l-65 -33v115h-236v-82l-65 -33v11l-17 -1l-22 -32h152zM825 441l-51 31l-46 34l-42 37l-39 39l-32 41l-29 44
l-22 46l-17 49l9 4l28 -42l29 -40l32 -36l33 -33l71 85l20 25l16 23l2 3l46 -46l5 -18l-23 4l-49 -37l-54 -36l-20 -11l-3 -2l29 -24l42 -30l8 -5l101 96l28 30l4 5l42 -49l3 -19l-21 7l-100 -60l-23 -12l-17 -9l21 -12l49 -26l53 -23l94 -36l-62 -52l-59 26zM273 709
l-36 -42l-24 -24l-5 -5l12 -1l15 -3l14 -4l12 -5l13 -5l13 -6l12 -8l11 -8l6 -17l27 27l37 41l35 44l12 16h-154z" />
  </g>

</svg>
