<?xml version="1.0" standalone="no"?>
<!DOCTYPE svg PUBLIC "-//W3C//DTD SVG 1.1//EN" "http://www.w3.org/Graphics/SVG/1.1/DTD/svg11.dtd" >
<svg xmlns="http://www.w3.org/2000/svg" xmlns:xlink="http://www.w3.org/1999/xlink" version="1.1" viewBox="0 -144 1024 1024">
  <g transform="matrix(1 0 0 -1 0 880)">
   <path fill="currentColor"
d="M620 439l16 -11l-19 -10l-5 -43l-13 -59l-19 -54l-25 -48l-30 -43l-35 -38l-41 -32l-45 -26l-50 -19l-54 -12l-3 9l49 22l44 26l38 28l33 32l27 36l23 41l18 44l14 49l8 53l4 53l1 17zM949 279h11l-11 -134l19 -13l13 -20l-13 -19l-19 -13h-147l-14 1l-14 2l-13 5l-12 7
l-11 8l-8 11l-7 12l-5 13l-2 14v13v307l64 -11l16 -11l-16 -10v-281l1 -5l2 -5l2 -2l5 -2l5 -1h7h115zM130 879h145l33 27l59 -48l-27 -22v-615l-65 -33v65h-145v-65l-64 -32v755zM130 463v-189h145v189h-145zM502 951l16 -11l-16 -9v-501l-64 -33v565zM662 930h196l32 27
l59 -49l-27 -21v-414l-64 -33v65h-196l-65 -32v489zM130 660v-176h145v176h-145zM662 715v-189h196v189h-196zM130 858v-176h145v176h-145zM662 908v-172h196v172h-196z" />
  </g>

</svg>
