<?xml version="1.0" standalone="no"?>
<!DOCTYPE svg PUBLIC "-//W3C//DTD SVG 1.1//EN" "http://www.w3.org/Graphics/SVG/1.1/DTD/svg11.dtd" >
<svg xmlns="http://www.w3.org/2000/svg" xmlns:xlink="http://www.w3.org/1999/xlink" version="1.1" viewBox="0 -144 1024 1024">
  <g transform="matrix(1 0 0 -1 0 880)">
   <path fill="currentColor"
d="M778 122l-63 46l-54 54l-45 59l-36 64l-26 71l-17 75l-4 50l-11 -61l-26 -80l-35 -72l-44 -66l-53 -58l-63 -50l-71 -42l-80 -33l-89 -25l-2 10l83 34l74 40l64 45l55 50l46 56l36 62l29 68l20 74l11 81l3 87v13l64 -13l16 -11l-15 -9l8 -67l15 -76l23 -69l30 -63l36 -57
l44 -50l51 -44l59 -39l67 -33l75 -28l40 -14l-63 -54l-80 34zM349 977l16 -11l-16 -9v-117h30l44 48l54 -48v-22h-128v-120l-65 -32v152h-240v22h240v148zM734 977l16 -11l-16 -9v-117h122l54 54l64 -54v-22h-240v-120l-64 -32v152h-129v22h129v148z" />
  </g>

</svg>
