<?xml version="1.0" standalone="no"?>
<!DOCTYPE svg PUBLIC "-//W3C//DTD SVG 1.1//EN" "http://www.w3.org/Graphics/SVG/1.1/DTD/svg11.dtd" >
<svg xmlns="http://www.w3.org/2000/svg" xmlns:xlink="http://www.w3.org/1999/xlink" version="1.1" viewBox="0 -144 1024 1024">
  <g transform="matrix(1 0 0 -1 0 880)">
   <path fill="currentColor"
d="M40 74h144v240l64 -33h527l33 27l59 -48l-27 -22v-164h25l54 54l64 -54v-21h-943v21zM248 260v-186h133v186h-133zM445 260v-186h133v186h-133zM643 260v-186h132v186h-132zM379 361h105v413l64 -33h236l32 27l59 -48l-26 -22v-337h28l33 37l43 -37v-22h-574v22zM219 316
l-20 14l-6 24l3 11l1 9l-1 9l-4 10l-7 10l-12 11l-15 11l-21 11l-23 10l-29 7l1 9l30 -2l28 -2l24 -5l17 -5l112 95l109 83l7 -8l-154 -172l-14 -17l-10 -14l7 -8l9 -19l6 -22v-23l-14 -21zM548 470v-109h236v109h-236zM548 595v-104h236v104h-236zM199 567l-8 6l-11 6
l-12 7l-31 13l-39 15l-22 5l1 10l23 -2h43l18 -1l18 -1l16 -2l14 -2l14 -4l12 -4l12 -5l12 -21l-6 -24l-21 -12l-24 6l-3 4zM548 720v-104h236v104h-236zM287 674l-15 13l-11 6l-12 7l-30 13l-35 14l-21 6l1 10l22 -2h20h19l18 -1l32 -3l15 -3l13 -3l13 -4l12 -5l13 -20
l-5 -25l-21 -13l-24 5zM673 984l16 -10l-16 -10v-70h188l54 54l65 -54v-21h-307v-76l-64 -32v230zM415 984l16 -10l-16 -10v-167l-64 -32v108h-307v21h307v101z" />
  </g>

</svg>
