<?xml version="1.0" standalone="no"?>
<!DOCTYPE svg PUBLIC "-//W3C//DTD SVG 1.1//EN" "http://www.w3.org/Graphics/SVG/1.1/DTD/svg11.dtd" >
<svg xmlns="http://www.w3.org/2000/svg" xmlns:xlink="http://www.w3.org/1999/xlink" version="1.1" viewBox="0 -144 1024 1024">
  <g transform="matrix(1 0 0 -1 0 880)">
   <path fill="currentColor"
d="M348 116l-7 10l-18 22l-12 12l-26 23l-16 12l-18 10l4 10l20 -7l20 -5l18 -7l18 -7l16 -8l15 -8l14 -9l13 -10l12 -11l11 -12l4 -24l-14 -20l-20 -4h198l79 91l22 27l15 21l-1 1l6 6l46 -45l6 -18l-22 4l-24 -19l-32 -23l-54 -35l-17 -10h247l53 54l65 -54v-21h-914v21
h322l-19 14l-5 9zM288 402h447l32 27l59 -49l-26 -21v-118l-65 -32v32h-447l-64 -32v225zM288 380v-118h447v118h-447zM931 480v-21h-838v21h741l44 49zM318 951l17 -11l-17 -9v-24l83 16l27 6l5 1l1 -6l60 -49l1 -16l-24 12l-28 -5l-66 -6l-33 -3l-26 -2v-80h21l54 54
l64 -54v-22h-139v-88h70l54 53l64 -53v-22h-188v-105l-64 -33v138h-188v22h188v88h-150v22h150v77h-14h-71l-36 1l-37 4v9l71 15l87 15v66zM781 957l16 -11l-16 -10v-24l83 17l31 7l1 -7l60 -49l2 -16l-25 12l-27 -4l-67 -7l-33 -3l-25 -1v-81h20l54 54l65 -54v-21h-139v-89
h69l54 54l64 -54v-22h-187v-105l-65 -32v137h-187v22h187v89h-150v21h150v77h-14h-71l-36 2l-36 3l-1 10l71 14l87 15v66z" />
  </g>

</svg>
