<?xml version="1.0" standalone="no"?>
<!DOCTYPE svg PUBLIC "-//W3C//DTD SVG 1.1//EN" "http://www.w3.org/Graphics/SVG/1.1/DTD/svg11.dtd" >
<svg xmlns="http://www.w3.org/2000/svg" xmlns:xlink="http://www.w3.org/1999/xlink" version="1.1" viewBox="0 -144 1024 1024">
  <g transform="matrix(1 0 0 -1 0 880)">
   <path fill="currentColor"
d="M652 107h108l6 1l5 1l5 1l2 2l1 2l1 3l1 5v7v177h-329v22h329v86l65 -11l13 -9v337h-117v-92h27l34 38l43 -38v-21h-104v-96h27l34 38l43 -38v-21h-104v-53l-64 -32v85h-120v-88l-65 -32v404l65 -32h120v84h-231v-15h-170v-102h68l33 27l59 -49l-27 -21v-301l-65 -32v53
h-68v-123h61l54 54l64 -54v-22h-179v-177l-64 -32v209h-180v22h180v123h-69v-37l-65 -32v424l65 -32h69v102h-171v22h171v145l64 -11l16 -11l-16 -9v-114h52l53 53l62 -51v13h234v129l64 -11l16 -10l-16 -10v-98h122l22 21l-21 -1l-19 15l-1 6l-2 7l-4 8l-9 16l-22 28l-9 9
l-11 8l4 8l13 -5l13 -4l13 -4l13 -5l11 -5l11 -6l10 -7l10 -7l8 -8l8 -9l3 -24l-2 -3l15 15l64 -53v-22h-240v-84h117l32 27l59 -49l-27 -21v-288l-64 -33l-13 -7v-54h22l54 53l65 -53v-22h-141v-177l-1 -14l-2 -13l-5 -13l-6 -13l-9 -10l-11 -9l-12 -7l-13 -4l-14 -2
l-13 -1v32l-108 16v16zM601 171l-5 11l-15 26l-9 13l-22 25l-13 14l-15 13l5 8l18 -9l18 -7l17 -9l15 -10l29 -21l13 -11l22 -27l9 -14l1 -25l-17 -18h-24l-18 16l-4 12zM144 553v-134h69v134h-69zM277 553v-134h68v134h-68zM558 618v-96h120v96h-120zM144 698v-123h69v123
h-69zM277 698v-123h68v123h-68zM558 731v-92h120v92h-120z" />
  </g>

</svg>
