<?xml version="1.0" standalone="no"?>
<!DOCTYPE svg PUBLIC "-//W3C//DTD SVG 1.1//EN" "http://www.w3.org/Graphics/SVG/1.1/DTD/svg11.dtd" >
<svg xmlns="http://www.w3.org/2000/svg" xmlns:xlink="http://www.w3.org/1999/xlink" version="1.1" viewBox="0 -144 1024 1024">
  <g transform="matrix(1 0 0 -1 0 880)">
   <path fill="currentColor"
d="M674 71l-97 7l-81 10l-66 15l-53 21l-42 25l-33 30l-25 34l-11 22l-30 -31l-77 -69l-59 -48l1 -21l-18 7l-46 47l9 6l150 88l15 8v326h-161v21h161l32 27l59 -48l-27 -22v-279l20 -20l29 -25l32 -20l38 -17l49 -13l60 -9l77 -6l95 -2l116 2l199 8l-58 -73l-140 -3z
M321 256h98v404l65 -11l16 -11l-16 -9v-373h127v590l-67 -12l-58 -8l-62 -7l-64 -5l-2 10l233 60l100 29l89 30l77 31l4 -10l46 -40l1 -17l-21 9l-47 -15l-88 -25l-48 -11l-28 -6v-264h126l54 53l64 -53v-22h-244v-317h172l54 54l64 -54v-21h-645v21zM222 789l-23 32l-28 32
l-33 33l-38 32l5 8l47 -19l22 -11l41 -27l36 -29l16 -17l14 -17l14 -18l3 -24l-14 -20l-25 -3l-20 14z" />
  </g>

</svg>
