<?xml version="1.0" standalone="no"?>
<!DOCTYPE svg PUBLIC "-//W3C//DTD SVG 1.1//EN" "http://www.w3.org/Graphics/SVG/1.1/DTD/svg11.dtd" >
<svg xmlns="http://www.w3.org/2000/svg" xmlns:xlink="http://www.w3.org/1999/xlink" version="1.1" viewBox="0 -144 1024 1024">
  <g transform="matrix(1 0 0 -1 0 880)">
   <path fill="currentColor"
d="M674 71l-99 6l-81 10l-65 14l-53 19l-42 23l-33 27l-24 31l-12 20l-31 -31l-58 -48l-58 -44l-18 -13l-2 -22l-17 9l-42 50l9 5l161 81v265h-160v21h160l33 27l59 -48l-27 -22v-219l19 -16l29 -22l31 -18l39 -14l48 -12l62 -8l77 -6l96 -1l116 2l200 8l-58 -73l-141 -3z
M820 955l10 -17l-22 -2l-19 -29l-35 -48l-13 -16l-28 -31l-12 -14h114l54 54l64 -54v-22h-265v-163h120l54 54l64 -54v-22h-238v-159h179l54 54l64 -54v-22h-297v-226l-65 -32v258h-297v22h297v159h-238v22h238v163h-266v22h357l-4 3l9 19l44 111l16 46l5 11zM179 644
l-25 27l-27 26l-31 25l-16 12l-17 12l3 9l42 -11l39 -16l19 -10l35 -21l17 -13l32 -27l8 -24l-11 -22l-24 -7l-22 11zM231 833l-22 28l-25 27l-45 39l-18 12l4 9l41 -14l20 -8l37 -18l17 -12l32 -24l15 -14l14 -14l5 -24l-12 -22l-24 -5l-21 12zM505 854l-2 13l-3 14l-4 14
l-4 14l-12 28l-7 15l-10 14l7 7l13 -12l14 -10l24 -25l11 -13l10 -13l8 -15l8 -15l7 -16l5 -16l-5 -23l-21 -14l-24 6l-13 20l-1 13z" />
  </g>

</svg>
