<?xml version="1.0" standalone="no"?>
<!DOCTYPE svg PUBLIC "-//W3C//DTD SVG 1.1//EN" "http://www.w3.org/Graphics/SVG/1.1/DTD/svg11.dtd" >
<svg xmlns="http://www.w3.org/2000/svg" xmlns:xlink="http://www.w3.org/1999/xlink" version="1.1" viewBox="0 -144 1024 1024">
  <g transform="matrix(1 0 0 -1 0 880)">
   <path fill="currentColor"
d="M677 71l-99 6l-81 10l-66 14l-53 19l-42 23l-33 27l-25 31l-12 20l-50 -47l-39 -32l-58 -44l-19 -13l-1 -22l-18 9l-42 50l10 5l162 82v264h-161v21h161l32 27l59 -48l-27 -22v-219l19 -16l29 -21l32 -19l39 -14l49 -12l61 -8l78 -6l96 -1l117 2l201 8l-58 -73l-142 -3z
M874 234l-9 -10l-10 -8l-11 -7l-12 -6l-12 -4l-13 -3l-13 -2h-13v32l-108 16v16h115l7 1l6 2l6 2l5 2l5 3l5 4l4 4l4 6l5 6l2 5l2 7l3 10l3 12l2 14l3 15l2 18l1 20l2 34h-55l-13 -31l-16 -29l-19 -27l-21 -26l-24 -24l-26 -22l-29 -20l-30 -18l-34 -15l-36 -13l-4 9l58 43
l48 44l20 23l18 24l15 24l13 25l11 27l2 6h-64l-24 -35l-23 -28l-26 -26l-28 -24l-31 -22l-32 -20l-35 -17l-38 -16l-39 -13l-42 -11l-3 10l72 40l33 20l29 22l28 22l25 23l22 24l20 25l17 26h-71l-30 -26l-25 -18l-27 -18l-28 -15l-29 -13l-31 -11l-32 -8l-4 9l53 35l48 37
l21 19l21 20l19 21l17 22l13 18h-186v22h575l34 37l43 -37v-22h-389l-25 -32l-17 -19h312l32 27l59 -48l-27 -16l-1 -1l-3 -43l-5 -38l-3 -16l-3 -15l-4 -14l-5 -13l-6 -12l-8 -11zM490 752h317l32 27l60 -49l-27 -21v-142l-65 -33v33h-317l-64 -33v250zM490 651v-63h317v63
h-317zM203 615l-35 42l-26 27l-45 38l-16 12l-18 12l4 9l41 -11l40 -16l37 -20l17 -11l34 -26l15 -14l8 -24l-11 -22l-23 -7zM490 730v-58h317v58h-317zM251 805l-29 42l-24 27l-42 40l-17 13l-17 12l4 9l21 -7l20 -7l39 -16l18 -10l34 -24l15 -12l29 -28l6 -24l-12 -22
l-24 -5zM833 985l16 -11l-16 -9v-53h31l54 54l64 -54v-21h-149v-59l-65 -32v91h-93v21h93v84zM530 985l16 -11l-16 -9v-53h16l33 38l43 -38v-21h-92v-59l-65 -32v91h-150v21h150v84z" />
  </g>

</svg>
