<?xml version="1.0" standalone="no"?>
<!DOCTYPE svg PUBLIC "-//W3C//DTD SVG 1.1//EN" "http://www.w3.org/Graphics/SVG/1.1/DTD/svg11.dtd" >
<svg xmlns="http://www.w3.org/2000/svg" xmlns:xlink="http://www.w3.org/1999/xlink" version="1.1" viewBox="0 -144 1024 1024">
  <g transform="matrix(1 0 0 -1 0 880)">
   <path fill="currentColor"
d="M825 351l-45 18l-44 21l-37 19l43 -35v-21h-192v-80h198l54 53l64 -53v-22h-316v-167h271l54 54l64 -54v-22h-844v22h390v167h-317v22h317v80h-192v21h330l50 50l-21 13l-39 26l-37 28l-36 31l-9 10h-1l-22 -20l-41 -31l-43 -29l-46 -28l-48 -24l-50 -24l-53 -20l-55 -18
l-58 -16l-59 -12l-3 9l110 46l100 49l46 26l44 27l41 29l39 30l35 32l31 30l4 5l44 -47l1 -1l86 -49l83 -39l42 -17l43 -16l45 -14l45 -12l92 -22l-62 -58l-49 15zM731 228l3 4l2 3l47 -45l6 -18l-23 4l-21 -18l-30 -21l-32 -20l-17 -10l-19 -9l-17 -10l-6 8l14 14l60 71
l19 26zM314 130l-11 20l-16 21l-34 36l-15 11l5 8l17 -8l17 -6l16 -7l29 -15l25 -17l11 -9l10 -11l9 -10l2 -25l-16 -19l-25 -2l-18 16l-3 8zM535 595h114l5 1l3 1l3 2l1 1l1 2l1 3l1 5v7v233l65 -11l16 -11l-16 -10v-201l-1 -14l-3 -14l-4 -13l-6 -11l-9 -12l-11 -8l-12 -7
l-13 -4l-13 -3h-14v32l-108 16v16zM304 561l-11 -6l-11 -6l-11 -5l-12 -4l-13 -3l-12 -2l-12 -2h-13v32l-75 16v16h75l16 1l8 2l15 4l7 4l6 3l7 4l13 10l3 3l4 5l4 7l3 10l4 11l3 14l2 16l3 18l2 20v9h-170l-2 -8l-71 -15l47 179l45 -39h147v79h-241v21h241l32 27l59 -48
l-26 -22v-79l-65 -32v32h-141l-19 -73h165l32 27l59 -49l-27 -16l-1 -1l-2 -19l-3 -21l-3 -19l-4 -17l-5 -16l-6 -15l-7 -14l-8 -12l-11 -11zM589 741l10 -17l-23 -1l-13 -16l-15 -16l-35 -29l-20 -14l-22 -13l-23 -12l-51 -23l-4 9l21 17l38 35l16 16l28 33l22 31l8 16
l6 15l1 -1l3 6zM897 645l-9 14l-10 14l-26 28l-47 44l-19 14l4 9l45 -17l21 -10l19 -11l18 -11l17 -12l16 -13l15 -14l13 -15l12 -15l3 -25l-14 -20l-25 -3l-19 15l-7 14zM640 948l9 -17l-21 -1l-23 -28l-19 -21l-1 -1h308l16 16l1 -3l16 14l60 -49l-27 -16l-65 -27v7
l-47 -19l-16 -6l-14 -8l-6 8l13 11l33 35l15 15h-310l-19 -17l-23 -17l-25 -16l-26 -14l-27 -12l-29 -10l-5 8l66 57l37 38l18 20l30 42l13 21l15 28z" />
  </g>

</svg>
