<?xml version="1.0" standalone="no"?>
<!DOCTYPE svg PUBLIC "-//W3C//DTD SVG 1.1//EN" "http://www.w3.org/Graphics/SVG/1.1/DTD/svg11.dtd" >
<svg xmlns="http://www.w3.org/2000/svg" xmlns:xlink="http://www.w3.org/1999/xlink" version="1.1" viewBox="0 -144 1024 1024">
  <g transform="matrix(1 0 0 -1 0 880)">
   <path fill="currentColor"
d="M957 258h10l-10 -135l19 -13l13 -19l-13 -19l-19 -13h-144l-13 1l-14 2l-13 4l-12 7l-11 9l-9 11l-6 12l-5 13l-2 13l-1 14v252h-77l-11 -50l-16 -51l-20 -48l-24 -43l-27 -39l-31 -34l-35 -29l-39 -23l-41 -19l-44 -12l-3 9l38 22l35 24l31 27l28 29l24 34l21 36l18 40
l14 44l12 47l6 36h-154v22h105v161h-119v22h119v134l59 -11l15 -10l-15 -10v-103h192v134l59 -11l14 -10l-14 -10v-103h16l53 53l65 -53v-22h-134v-161h31l44 48l54 -48v-22h-184v-252v-7l1 -5l2 -4l2 -3l5 -1l5 -1l6 -1h111zM365 782l-9 17l-12 17l-12 17l-29 34l-35 34
l-14 -27l-45 -81l-24 -39l-26 -36l-19 -24l45 -22h44v134l64 -11l16 -11l-16 -9v-103h39l33 26l59 -48l-27 -21v-232l-65 -32v32h-147v-198l144 50l-5 9l-22 36l-25 36l-15 17l6 8l40 -25l19 -14l17 -16l16 -17l28 -38l13 -20l12 -21l10 -23l-2 -24l-18 -17l-25 3l-16 17
l-6 21l-6 20l-8 19l-6 14l-44 -27l-91 -50l-82 -40l-28 -13l-6 -21l-15 12l-32 57l83 26v493l-19 -20l-30 -30l-33 -28l-7 7l71 104l43 74l39 79l33 83l18 52l58 -30l12 -16l-20 -4l-11 -25l27 -13l21 -12l40 -28l18 -16l16 -17l16 -17l13 -19l12 -19l1 -25l-16 -19l-24 -1
l-19 17l-7 17zM596 580v-161h192v161h-192zM185 526v-107h147v107h-147zM185 548h147v102h-147v-102zM719 962l13 -11l-13 -9v-109h110l53 54l65 -54v-22h-228v-164l-54 -26v190h-213v22h213v140z" />
  </g>

</svg>
