<?xml version="1.0" standalone="no"?>
<!DOCTYPE svg PUBLIC "-//W3C//DTD SVG 1.1//EN" "http://www.w3.org/Graphics/SVG/1.1/DTD/svg11.dtd" >
<svg xmlns="http://www.w3.org/2000/svg" xmlns:xlink="http://www.w3.org/1999/xlink" version="1.1" viewBox="0 -144 1024 1024">
  <g transform="matrix(1 0 0 -1 0 880)">
   <path fill="currentColor"
d="M762 60l-11 -4l-12 -3l-12 -3l-12 -2l-12 -2l-12 -1h-12v32l-108 16v16h108l17 1l10 1l8 2l17 4l16 7l8 4l8 4l9 7l9 8l9 11l7 14l7 17l7 19l5 22l4 25l3 28l1 20h-278l-30 -49l-41 -49l-47 -43l-54 -37l-59 -31l-65 -25l-72 -19l-77 -12l-2 9l74 23l66 26l60 29l53 34
l47 37l39 42l33 46l10 19h-324v21h336l5 10l21 54l14 55h-1l4 15l61 -24l13 -14l-20 -7l-13 -45l-20 -44h268l32 27l59 -48l-27 -16l-1 -1l-1 -7l-3 -32l-4 -29l-7 -27l-8 -25l-9 -23l-12 -20l-14 -19l-16 -15l-19 -13l-10 -6zM173 654l-2 10l-2 11l-6 20l-9 20l-4 10l-8 8
l6 8l10 -7l11 -5l20 -14l10 -10l17 -19l15 -24l6 -14l-3 -24l-3 -2h99l4 7l20 43l22 50l4 12l2 6h-1l2 3h-344v21h215v95h-172v21h172v104l64 -10l17 -11l-17 -10v-73h65l54 54l64 -54v-21h-183v-95h123l44 48l54 -48v-21h-140l41 -29l10 -17l-24 -1l-33 -34l-11 -11
l-24 -21l-10 -8h88l44 49l54 -49v-21h-216v-95h54l54 54l64 -54v-22h-172v-95l-64 -32v127h-177v22h177v95h-210v21h139l-8 9l-1 12zM888 407l-22 30l-18 37l-14 42l-10 49l-8 56l-4 61l-1 69l2 63h-86v-54l-1 -1l-3 -47l-7 -43l-4 -16l30 -26l20 -22l18 -23l16 -25l2 -25
l-16 -18l-24 -2l-19 16l-10 22l-13 21l-14 20l-7 8l-17 -39l-19 -29l-22 -25l-24 -21l-27 -16l-29 -10l-4 9l22 18l19 21l16 22l14 24l12 27l10 29l7 33l-28 23l-50 33l-28 17l4 9l33 -7l30 -10l29 -12l16 -8l2 31l2 43v53h-124v21h124v149l64 -10l16 -11l-16 -10v-118h86
l32 27l59 -48l-26 -17h-2l-1 -46l1 -66l5 -58l6 -51l9 -43l12 -36l13 -27l12 -16l25 111h11l-10 -131l8 -4l19 -16l3 -25l-16 -18l-24 -3l-33 15z" />
  </g>

</svg>
