<?xml version="1.0" standalone="no"?>
<!DOCTYPE svg PUBLIC "-//W3C//DTD SVG 1.1//EN" "http://www.w3.org/Graphics/SVG/1.1/DTD/svg11.dtd" >
<svg xmlns="http://www.w3.org/2000/svg" xmlns:xlink="http://www.w3.org/1999/xlink" version="1.1" viewBox="0 -144 1024 1024">
  <g transform="matrix(1 0 0 -1 0 880)">
   <path fill="currentColor"
d="M296 493l16 -11l-17 -10l-4 -48l-11 -64l-1 -6h73l54 54l64 -54v-21h-187l25 -17l19 -16l36 -34l32 -37l15 -19l27 -41l2 -25l-16 -19l-24 -1l-19 15l-19 41l-10 20l-23 39l-54 78l-3 5l-5 -21l-19 -54l-23 -47l-26 -43l-32 -37l-35 -31l-39 -23l-43 -17l-4 9l35 25
l32 28l27 32l24 36l21 40l16 46l14 50l3 18h-152v21h156l2 16l6 60l3 66v4h-179v21h179v118h-119v22h119v118h-155v22h117l-6 1l-12 21v14l-1 14l-1 14l-1 13l-2 13l-7 28l-8 28l-7 13l8 6l10 -11l12 -11l10 -12l10 -12l9 -13l8 -14l7 -14l6 -15l6 -16l5 -16l-7 -24l-13 -7
h79l3 10l4 20l28 108l7 34l3 8l58 -29l12 -16l-22 -4l-24 -45l-29 -49l-26 -37h41l44 48l54 -48v-22h-155v-118h27l44 48l54 -48v-22h-125v-118h67l54 54l64 -54v-21h-213zM856 114l-33 32l-29 37l-26 41l-23 44l-20 49l-16 51l-12 56l-7 54h-89v-304l85 27l66 18l5 -9
l-60 -35l-86 -45l-108 -51l-5 -2l-5 -20l-15 11l-32 57l10 4l80 25v706l65 -33h77v156l65 -10l16 -11l-16 -10v-125h92l32 27l59 -48l-27 -22v-317l-64 -32v43h-134l38 -99l22 -47l24 -43l25 -38l2 -3l106 161h-1l6 7l49 -42l6 -19l-21 3l-46 -46l-31 -27l-31 -25l-30 -20
l18 -23l29 -29l30 -26l33 -22l62 -32l-61 -48l-38 25zM601 645v-145h234v145h-234zM601 666h234v140h-234v-140z" />
  </g>

</svg>
