<?xml version="1.0" standalone="no"?>
<!DOCTYPE svg PUBLIC "-//W3C//DTD SVG 1.1//EN" "http://www.w3.org/Graphics/SVG/1.1/DTD/svg11.dtd" >
<svg xmlns="http://www.w3.org/2000/svg" xmlns:xlink="http://www.w3.org/1999/xlink" version="1.1" viewBox="0 -144 1024 1024">
  <g transform="matrix(1 0 0 -1 0 880)">
   <path fill="currentColor"
d="M825 362l-24 34l-26 31l-14 14l-30 27l-15 12v-400l-64 -32v543h-175l-32 -112l-13 -35l26 -7l19 -8l19 -10l18 -10l17 -12l16 -14l15 -14l15 -15l13 -17l4 -25l-15 -19l-24 -4l-20 14l-8 16l-9 15l-9 14l-22 28l-27 27l-14 13l-16 12l-3 2l-16 -40l-40 -80l-46 -70
l-51 -59l-57 -50l-62 -38l-66 -28l-4 9l60 36l54 43l49 51l44 60l38 68l35 77l29 86l24 96h-215l-23 -38l-28 -37l-30 -32l-31 -25l-7 7l23 32l21 35l21 38l21 43l18 45l34 105l15 59l14 62l12 62l3 15l61 -22l14 -14l-19 -6l-11 -48l-15 -55h157l32 27l59 -49l-27 -16
l-4 -2l-14 -91l-17 -74h170v355l64 -10l16 -11l-16 -10v-324h129l54 54l65 -54v-21h-248v-93l27 -8l21 -8l19 -10l20 -12l18 -13l36 -30l16 -17l16 -19l5 -24l-13 -21l-24 -5l-21 13zM289 795l-15 -48l-21 -55l-23 -51l-15 -29h208l15 84l13 99h-162z" />
  </g>

</svg>
