<?xml version="1.0" standalone="no"?>
<!DOCTYPE svg PUBLIC "-//W3C//DTD SVG 1.1//EN" "http://www.w3.org/Graphics/SVG/1.1/DTD/svg11.dtd" >
<svg xmlns="http://www.w3.org/2000/svg" xmlns:xlink="http://www.w3.org/1999/xlink" version="1.1" viewBox="0 -144 1024 1024">
  <g transform="matrix(1 0 0 -1 0 880)">
   <path fill="currentColor"
d="M866 100l-32 52l-25 63l-22 -27l-42 -44l-45 -39l-49 -33l-52 -28l-5 8l45 37l42 39l39 41l36 45l32 47l6 12l-8 31l-18 100l-13 118l-10 133h-119v-449l83 20l44 10l3 -10l-40 -19l-82 -36l-124 -46l-123 -40l-20 -6l-7 -20l-14 13l-26 60l93 21l27 7v495h-92l-9 -5
l-4 -1l-8 -66l-15 -86l-19 -80l-23 -73l-27 -68l-32 -61l-35 -55l-39 -48l-44 -40l-47 -33l-6 8l39 40l36 44l32 49l28 54l26 60l21 65l4 14l-18 -13l-24 5l-14 20l-2 15l-2 15l-3 14l-5 14l-5 12l-12 25l-8 13l-7 10l-25 -48l-26 -39l-28 -37l-8 5l35 84l17 45l15 47l14 49
l12 51l11 54l9 56l7 59l5 47h-121v21h222l44 49l54 -49v-21h-135l-8 -56l-11 -60l-14 -57l-4 -15h83l33 27l46 -38h148v134h-147v22h147v156l64 -11l16 -11l-16 -9v-125h60l44 48l54 -48v-22h-158v-134h180l-5 132l-2 164v18l64 -13l16 -11l-15 -9l1 -148l5 -133h38l54 54
l64 -54v-22h-155l10 -127l12 -114l9 -50l24 62l20 63l18 76l61 -24l13 -14l-19 -6l-15 -49l-24 -65l-27 -62l-32 -57l-3 -4l12 -45l23 -59l24 -40l16 -14l28 121h11l-11 -134l23 -11l9 -23l-11 -22l-23 -9l-50 16zM500 174l67 16v465h-67v-481zM363 320l-3 44l-1 21l-2 22
l-6 43l-6 43l-4 22l9 3l22 -39l10 -21l17 -42l14 -44l5 -22l5 -24l4 -23l-8 -23l-22 -11l-23 7l-11 22v22zM742 509l14 -15l-21 -6l-13 -34l-28 -66l-23 -50l-28 -55l-9 3l11 60l26 123l8 49h-1l4 15zM185 666l-21 -71l-19 -49l-13 -30l16 -7l13 -9l14 -10l12 -12l11 -13
l11 -15l9 -16l8 -17l7 -17l8 30l15 78l11 82l6 76h-88zM887 783l-11 41l-10 28l-6 14l-22 43l-10 14l7 7l14 -12l14 -9l25 -23l23 -25l20 -27l8 -14l8 -15l-1 -24l-17 -17l-25 2z" />
  </g>

</svg>
