<?xml version="1.0" standalone="no"?>
<!DOCTYPE svg PUBLIC "-//W3C//DTD SVG 1.1//EN" "http://www.w3.org/Graphics/SVG/1.1/DTD/svg11.dtd" >
<svg xmlns="http://www.w3.org/2000/svg" xmlns:xlink="http://www.w3.org/1999/xlink" version="1.1" viewBox="0 -144 1024 1024">
  <g transform="matrix(1 0 0 -1 0 880)">
   <path fill="currentColor"
d="M295 266l-16 22l-18 21l-3 4l-39 -75l-39 -59l-44 -53l-47 -44l-52 -38l-6 8l43 44l40 49l37 53l32 60l29 64l9 26l-23 19l-47 32l-10 -55l-69 -21l69 397h-81v21h85l42 243l62 -22l14 -13l-18 -6l-35 -202h91l33 27l59 -48l-27 -16l-4 -2l-11 -71l-18 -92l-22 -84
l-26 -79l-7 -16l18 -15l24 -21l21 -22l20 -26l18 -26l3 -24l-15 -20l-25 -2l-19 14l-13 25zM448 124l51 10l10 2v374l65 -10l16 -11l-16 -10v-130h62l33 38l43 -38v-21h-138v-175l85 24l58 16l4 -10l-51 -33l-52 -27l-52 -24l-26 -11l-51 -19l-4 -1l-7 -20l-14 13l-26 60z
M468 709h106v129l65 -11l16 -10l-16 -10v-98h95v129l65 -11l16 -10l-16 -10v-98h91l33 27l59 -48l-27 -22v-161l-65 -32v43h-422l-2 -55l-4 -61l-5 -58l-7 -54l-10 -50l-10 -45l-12 -42l-15 -38l-16 -33l-19 -29l-9 5l9 31l8 35l8 37l6 42l5 44l5 49l3 52l1 57l1 59l-1 64
v371l64 -32h190v124l65 -11l16 -11l-16 -9v-93h140l53 54l65 -54v-21h-513v-135zM959 274h10l-10 -135l19 -13l13 -19l-13 -19l-19 -13h-142l-14 1l-14 2l-13 4l-12 7l-11 9l-8 11l-7 12l-5 13l-2 13v14v349l64 -10l16 -11l-16 -10v-149l38 29l31 25l38 35l7 7h-1l5 4
l40 -50l3 -19l-22 7l-27 -15l-36 -17l-61 -25l-15 -4v-153l1 -4l2 -5l2 -2l5 -2l5 -1l7 -1h109zM207 720l-53 -300l33 -10l29 -13l19 -10l24 82l18 82l14 89l9 80h-93zM468 688v-151h106v151h-106zM639 688v-151h95v151h-95zM799 688v-151h91v151h-91z" />
  </g>

</svg>
