<?xml version="1.0" standalone="no"?>
<!DOCTYPE svg PUBLIC "-//W3C//DTD SVG 1.1//EN" "http://www.w3.org/Graphics/SVG/1.1/DTD/svg11.dtd" >
<svg xmlns="http://www.w3.org/2000/svg" xmlns:xlink="http://www.w3.org/1999/xlink" version="1.1" viewBox="0 -144 1024 1024">
  <g transform="matrix(1 0 0 -1 0 880)">
   <path fill="currentColor"
d="M222 978l16 -11l-16 -9v-878l-64 -32v941zM649 265h10l-10 -135l19 -13l13 -19l-13 -19l-19 -13h-175h-13l-14 3l-12 4l-13 7l-11 8l-9 12l-6 11l-4 13l-3 14l-1 14v190l65 -11l16 -10l-16 -10v-66l55 27l59 32l37 22l17 12l9 -16l33 -34l1 -18l-20 8l-33 -14l-22 -8
l-22 -8l-46 -12l-48 -10l-20 -2v-72v-7l1 -5l1 -3l1 -2l2 -2l2 -1l3 -1h5l6 -1h142zM820 190h54h6l5 1l3 1l2 1l2 2l1 2l1 3l1 5v6v433h-126v-579l-59 -29v659l59 -29h126l33 27l59 -49l-27 -21v-412l-1 -14l-2 -13l-5 -13l-6 -12l-9 -11l-11 -9l-12 -6l-13 -4l-14 -3
l-13 -1v33l-54 16v16zM547 716l13 -15l-26 -7l-24 -30l-15 -17l-6 -6h119l30 27l56 -48l-27 -19v-204l-59 -29v29h-166l-64 -32v309l64 -33h32l1 3l3 12l3 22l1 10l3 20l1 9v9v3l-1 1l3 13zM442 517v-98h166v98h-166zM51 518l-14 21l3 24l7 9l8 11l7 14l15 35l14 44l14 53
l7 29h10l1 -60l-1 -27l-1 -26l-3 -23l-3 -22l-4 -20l-4 -19l-5 -16l-7 -16l-20 -14zM442 620v-82h166v82h-166zM285 644l-3 15l-9 30l-6 16l-13 33l-8 17l-9 17l7 6l14 -14l15 -13l13 -14l23 -28l20 -31l9 -16l7 -15l7 -16l-5 -24l-19 -16l-25 5l-14 20l-2 14zM530 795l-3 9
l-10 21l-15 22l-9 12l-11 12l-7 6h-11l-9 -16l-16 -25l-17 -24l-19 -23l-21 -22l-23 -20l-24 -17l-7 6l46 74l26 48l10 25l9 25l8 25l7 26l5 26l2 10l61 -25l13 -14l-20 -6l-2 -9l-12 -28l-7 -15h116l44 49l54 -49v-21h-186l18 -8l13 -8l12 -8l23 -20l10 -11l9 -11l8 -13
l-1 -24l-18 -17l-25 1l-16 17l-2 10zM830 795l-4 9l-4 11l-13 21l-17 23l-10 12l-8 6h-13l-7 -12l-33 -46l-19 -21l-21 -19l-23 -17l-24 -15l-6 7l32 44l14 22l13 23l23 45l9 23l14 49l5 26l2 9l61 -25l13 -14l-20 -7l-13 -34l-9 -17h121l44 49l54 -49v-21h-189l17 -8l13 -8
l13 -8l22 -20l11 -11l8 -11l8 -13l-1 -24l-18 -17l-24 1l-18 17l-1 10z" />
  </g>

</svg>
