<?xml version="1.0" standalone="no"?>
<!DOCTYPE svg PUBLIC "-//W3C//DTD SVG 1.1//EN" "http://www.w3.org/Graphics/SVG/1.1/DTD/svg11.dtd" >
<svg xmlns="http://www.w3.org/2000/svg" xmlns:xlink="http://www.w3.org/1999/xlink" version="1.1" viewBox="0 -144 1024 1024">
  <g transform="matrix(1 0 0 -1 0 880)">
   <path fill="currentColor"
d="M374 159l-3 22l-4 22l-2 5l-42 -31l-60 -36l-62 -33l-99 -44l-13 -6l-5 -20l-16 12l-31 58l78 24l96 33v250h-77v-64l-64 -33v454l64 -32h77v220l65 -10l16 -11l-16 -10v-189h77l33 27l59 -49l-27 -21v-293l-65 -32v43h-77v-225l86 32l-9 24l-8 22l-21 45l-12 23l8 6
l19 -18l19 -19l16 -20l15 -21l13 -22l11 -23l10 -24l7 -24l7 -26l4 -26l-8 -23l-22 -11l-23 8l-11 22l-1 22zM558 522h294l33 26l59 -48l-27 -21v-391l-65 -32v43h-294v-16l-64 -32v503zM558 239v-118h294v118h-294zM558 369v-109h294v109h-294zM558 500v-109h294v109h-294z
M134 718v-281h77v281h-77zM276 718v-281h77v281h-77zM560 618l-13 3l-12 3l-13 7l-11 8l-8 11l-7 11l-4 13l-3 14l-1 13v138h-62v22h247v126l65 -11l16 -10l-16 -10v-95h129l54 54l64 -54v-22h-433v-144l1 -6l1 -3v-2l4 -4l4 -1l5 -2h7h341l18 -12l12 -18l-12 -17l-18 -12
h-341h-14z" />
  </g>

</svg>
