<?xml version="1.0" standalone="no"?>
<!DOCTYPE svg PUBLIC "-//W3C//DTD SVG 1.1//EN" "http://www.w3.org/Graphics/SVG/1.1/DTD/svg11.dtd" >
<svg xmlns="http://www.w3.org/2000/svg" xmlns:xlink="http://www.w3.org/1999/xlink" version="1.1" viewBox="0 -144 1024 1024">
  <g transform="matrix(1 0 0 -1 0 880)">
   <path fill="currentColor"
d="M295 134l2 -14l4 -8l2 -2l3 -2l3 -1l5 -2h6l8 -1h21v100h-54v-70zM946 317h11l-11 -91l17 -11l10 -16l-10 -16l-17 -11h-164l-13 2l-12 4l-12 5l-11 9l-9 10l-7 11l-4 13l-4 13l-1 14v197l-90 -22l-5 21l95 23v148l-86 -20l-5 21l91 21v169l-53 -20l-34 -9l-4 8l91 60v1
h1l76 50l75 56l24 18l38 -52v-19l-18 8l-65 -38l-58 -30l-8 -4v-182l34 8l39 65l76 -37l5 -21l-154 -37v-149l76 18l39 64l76 -37l4 -21l-195 -46v-224v-4l1 -2l1 -2l1 -1l2 -2l4 -2l5 -2h7h125zM295 489v-264h54v264h-54zM464 309l-17 -23l-27 -36l-9 5l7 21l20 64l10 28
l-3 13l-6 16l-11 31l-6 14l-7 13l7 6l25 -21l12 -12l7 -8l15 44v1l5 11l57 -31l2 -5v49h-137v-264h137v203l-13 -2l-31 -58l12 -22l9 -21l8 -21l-2 -24l-19 -16l-24 3l-17 19zM295 768v-258h54v258h-54zM408 768v-91h74v91h-74zM182 768v-91h70v91h-70zM222 892l-38 -70
l-16 -25l14 -7h154l4 7l11 30l5 14l18 51h-152zM378 913l3 4h1l28 23l59 -48l-27 -16l-19 -8l-27 -33l-21 -23l-23 -22h130l33 27l59 -49l-27 -21v-102l-65 -33v43h-74v-145h137l33 27l59 -48l-27 -22v-285l-65 -32v54h-137v-100h534l24 70h10l-10 -70l14 -9l10 -15l-10 -14
l-14 -10h-638l-13 1l-13 3l-11 4l-11 6l-9 8l-7 9l-6 11l-4 12l-2 12v82h-59v-92l-59 -29v51h-49v21h49v49h-70v21h70v65h-49v21h49l30 27l56 -48l-27 -19v-46h59v264h-59v-102l-59 -30v40h-49v22h49v70h-70v21h70v54h-44v22h44l30 26l56 -48l-27 -19v-35h59v145h-70
l-59 -29v109l-23 -25l-23 -22l-25 -20l-7 7l49 80l29 55v9l4 -1l27 61l27 72l16 46l58 -29l11 -16l-19 -4l-16 -35h147z" />
  </g>

</svg>
