<?xml version="1.0" standalone="no"?>
<!DOCTYPE svg PUBLIC "-//W3C//DTD SVG 1.1//EN" "http://www.w3.org/Graphics/SVG/1.1/DTD/svg11.dtd" >
<svg xmlns="http://www.w3.org/2000/svg" xmlns:xlink="http://www.w3.org/1999/xlink" version="1.1" viewBox="0 -144 1024 1024">
  <g transform="matrix(1 0 0 -1 0 880)">
   <path fill="currentColor"
d="M50 129h333v220h-134v-64l-65 -33v396l65 -10l16 -11l-16 -10v-246h134v394h-285v22h710l53 53l65 -53v-22h-285v-394h134v277l65 -10l16 -11l-16 -10v-300l-65 -32v64h-134v-220h215l54 53l64 -53v-22h-924v22zM447 765v-636h130v636h-130zM682 977l3 5l3 6l55 -34
l9 -17l-22 -2l-28 -41l-53 -69l-31 -37l-8 5l10 23l16 43l43 108l4 10h-1zM361 860l-5 16l-6 15l-7 14l-9 14l-9 13l-10 12l-12 13l-14 9l4 9l35 -12l16 -8l16 -11l15 -13l13 -14l13 -17l12 -18l9 -20l9 -21l-3 -24l-20 -15l-24 3l-15 19l-4 19z" />
  </g>

</svg>
