<?xml version="1.0" standalone="no"?>
<!DOCTYPE svg PUBLIC "-//W3C//DTD SVG 1.1//EN" "http://www.w3.org/Graphics/SVG/1.1/DTD/svg11.dtd" >
<svg xmlns="http://www.w3.org/2000/svg" xmlns:xlink="http://www.w3.org/1999/xlink" version="1.1" viewBox="0 -144 1024 1024">
  <g transform="matrix(1 0 0 -1 0 880)">
   <path fill="currentColor"
d="M844 408l-27 -16l-17 -7l-162 -306l-72 2l176 327h-538v22h549l32 27zM824 594l-47 33l-45 35l-44 40l-42 42l-39 45l-39 49l-35 53l-11 19l-14 -21l-42 -59l-45 -55l-47 -51l-50 -48l-53 -44l-55 -40l-57 -36l-60 -32l-64 -27l-4 8l57 37l55 38l52 41l50 43l47 45l45 49
l43 52l40 55l37 57l35 61l3 5l53 -37l9 -18h-20l-5 -7l61 -67l42 -43l43 -40l43 -37l44 -33l45 -30l47 -28l46 -24l80 -35l-61 -51l-50 27zM711 596v-22h-417v22h299l53 54z" />
  </g>

</svg>
