<?xml version="1.0" standalone="no"?>
<!DOCTYPE svg PUBLIC "-//W3C//DTD SVG 1.1//EN" "http://www.w3.org/Graphics/SVG/1.1/DTD/svg11.dtd" >
<svg xmlns="http://www.w3.org/2000/svg" xmlns:xlink="http://www.w3.org/1999/xlink" version="1.1" viewBox="0 -144 1024 1024">
  <g transform="matrix(1 0 0 -1 0 880)">
   <path fill="currentColor"
d="M358 962l12 -16l-20 -3l-43 -99l-57 -113l-30 -55l-6 -10l32 -5l17 -11l-17 -10v-565l-64 -32v571l-27 -42l-34 -50l-37 -49l-38 -46l-8 6l87 156l54 108l51 112l47 116l19 55l5 12zM866 366l-30 39l-28 41l-25 44l-23 46l-13 33h-199l-8 -15l-39 -66l-21 -30l60 -30h192
l33 26l59 -48l-27 -16l-1 -11l-1 -31v-13l-1 -12l-2 -11l-2 -9l-2 -9l-3 -9l-6 -12l-8 -11l-8 -10l-10 -9l-10 -8l-12 -6l-13 -5l-12 -3l-13 -3h-14v32l-97 16v16h97l8 1l6 1l6 1l9 4l4 4l4 3l4 5l3 5l4 6l1 4v6l1 8l1 9l1 26l1 33v8h-192v-254v-7l1 -5l1 -3l2 -3l3 -2l3 -1
h5l6 -1h298l32 135h11l-11 -135l19 -13l13 -19l-13 -19l-19 -13h-330h-14l-13 3l-13 4l-12 7l-10 8l-10 12l-6 11l-4 13l-3 14l-1 14v300l-18 -26l-48 -54l-54 -49l-58 -42l-5 8l49 49l46 53l42 56l37 62l32 60h-200v22h209l22 54l25 75l5 16h-130v22h135l11 43l18 86l12 85
l2 16l63 -19l14 -13l-18 -8l-13 -73l-22 -88l-9 -29h107l54 53l64 -53v-22h-133l40 -91l22 -46l5 -8h79l54 54l64 -54v-22h-185l33 -53l27 -38l29 -36l31 -33l33 -31l48 -39l-58 -44l-36 34zM616 736l-10 -32l-31 -78l-17 -35h181l-15 42l-13 53l-8 50h-87zM546 933l11 -17
l-21 -2l-21 -36l-18 -26l-38 -50l-20 -23l-44 -42l-24 -19l-26 -17l-7 7l53 72l31 49l29 51l26 53l11 27l3 6zM867 773l-19 43l-23 42l-26 39l-29 39l-16 19l6 7l22 -12l22 -14l39 -33l18 -19l33 -40l14 -22l27 -48l-1 -24l-17 -18h-25l-17 18z" />
  </g>

</svg>
