<?xml version="1.0" standalone="no"?>
<!DOCTYPE svg PUBLIC "-//W3C//DTD SVG 1.1//EN" "http://www.w3.org/Graphics/SVG/1.1/DTD/svg11.dtd" >
<svg xmlns="http://www.w3.org/2000/svg" xmlns:xlink="http://www.w3.org/1999/xlink" version="1.1" viewBox="0 -144 1024 1024">
  <g transform="matrix(1 0 0 -1 0 880)">
   <path fill="currentColor"
d="M472 110h107h7l4 1l4 1l1 1l2 2l2 5l1 5l1 6v154h-314v22h573l54 53l65 -53v-22h-314v-154l-1 -13l-2 -14l-4 -12l-7 -13l-9 -11l-11 -9l-12 -6l-13 -5l-13 -2l-14 -1v33l-107 16v16zM506 213l7 -18l-22 2l-35 -33l-19 -16l-43 -29l-24 -14l-25 -12l-27 -12l-29 -11l-4 9
l66 54l37 35l16 17l28 33l21 33l3 3zM874 119l-11 15l-13 14l-15 14l-35 28l-41 29l-23 14l3 9l53 -14l24 -9l44 -21l39 -25l33 -30l14 -16l5 -24l-13 -21l-24 -5l-21 13l-8 15zM143 92l-21 11l-8 23l4 30l1 29l-1 28l-4 28l-5 27l-9 28l-10 27l-2 4l-2 2l1 1l-26 48l-17 29
l7 6l27 -22l23 -25l5 -7l33 57l42 78l128 266l9 -4l-38 -125l-57 -155l-35 -85l-32 -68l-13 -22l9 -18l11 -30l8 -32l6 -33l2 -34v-34l-12 -22zM883 405v-21h-500v21h402l44 49zM421 802h427l32 27l59 -49l-26 -21v-273l-65 -33v43h-427v-16l-64 -32v386zM421 780v-262h427
v262h-427zM564 722h138l32 27l59 -48l-27 -22v-95l-64 -32v32h-138l-65 -32v202zM564 701v-95h138v95h-138zM167 776l-6 14l-8 13l-18 26l-11 14l-25 25l-15 12l4 9l36 -15l18 -8l16 -10l16 -11l14 -12l14 -13l12 -13l12 -16l10 -16l1 -24l-17 -19h-25l-18 16l-4 14z
M279 886h322v104l64 -11l16 -11l-16 -9v-73h224l44 48l54 -48v-21h-708v21z" />
  </g>

</svg>
