<?xml version="1.0" standalone="no"?>
<!DOCTYPE svg PUBLIC "-//W3C//DTD SVG 1.1//EN" "http://www.w3.org/Graphics/SVG/1.1/DTD/svg11.dtd" >
<svg xmlns="http://www.w3.org/2000/svg" xmlns:xlink="http://www.w3.org/1999/xlink" version="1.1" viewBox="0 -144 1024 1024">
  <g transform="matrix(1 0 0 -1 0 880)">
   <path fill="currentColor"
d="M200 919h581l32 27l59 -49l-27 -16h-1l-3 -168l3 -160l9 -130l14 -101l17 -78l19 -54l19 -36l10 -11l26 115h11l-10 -134l23 -12l8 -24l-11 -21l-24 -8l-29 8l-30 19l-27 32l-25 46l-22 63l-19 83l-14 107l-9 133l-4 164l4 183h-580v-344l-3 -74l-6 -70l-9 -65l-12 -59
l-16 -55l-18 -49l-21 -43l-24 -38l-29 -31l-31 -24l-6 7l21 30l20 34l18 37l14 42l13 48l10 51l7 58l6 62l2 67v470zM733 793v-22h-215l-23 -59l-22 -47l-8 -15l-9 -15l-2 -3h161l32 27l60 -48l-27 -22v-450l-65 -32v65h-240v-65l-64 -32v590l64 -33h66l1 8l1 17l7 67l2 16
l3 31h-210v22h370l54 53zM375 400v-207h240v207h-240zM375 611v-190h240v190h-240z" />
  </g>

</svg>
