<?xml version="1.0" standalone="no"?>
<!DOCTYPE svg PUBLIC "-//W3C//DTD SVG 1.1//EN" "http://www.w3.org/Graphics/SVG/1.1/DTD/svg11.dtd" >
<svg xmlns="http://www.w3.org/2000/svg" xmlns:xlink="http://www.w3.org/1999/xlink" version="1.1" viewBox="0 -144 1024 1024">
  <g transform="matrix(1 0 0 -1 0 880)">
   <path fill="currentColor"
d="M139 205l70 13l56 10l28 4l9 2v60h-107v22h107v85h-98v22h98v79l65 -11l16 -11l-16 -9v-223l-1 -4l27 3l24 1l3 -9l-21 -12l-22 -11l-15 -6l-7 -28l-12 -29l-16 -27l-21 -22l-24 -19l-27 -16l-30 -11l-33 -7l-36 -4l-3 10l33 13l28 15l23 15l20 17l16 18l12 18l9 21l3 11
l-46 -15l-65 -20l-8 -19l-14 13zM751 112h86l7 1l5 1l3 1l2 1l1 1l1 1l1 1l1 4v5l1 6v849l64 -10l16 -11l-16 -10v-818v-13l-3 -14l-4 -13l-7 -12l-9 -11l-11 -9l-11 -7l-13 -4l-14 -2l-14 -1v32l-86 16v16zM339 601l-2 7l-7 14l-3 7l-9 13v-126l-64 -32v108l-22 -27
l-17 -18l-19 -16l-21 -13l-18 -10l-2 -49l-4 -63l-7 -59l-8 -55l-10 -50l-12 -45l-15 -41l-17 -35l-18 -31l-22 -25l-8 6l11 29l11 32l10 35l8 40l7 44l6 48l4 52l2 58l1 61l-1 66v384l65 -32h199v112l64 -11l16 -11l-16 -9v-81h113l53 54l65 -54v-21h-494v-331l6 6l25 37
l12 19l10 20l9 20l8 22l6 22l5 23l1 7h-74v22h88v112l64 -11l17 -11l-17 -10v-80h25l24 32l33 -32v-22h-82v-40l9 -2l10 -3l9 -3l10 -4l9 -5l16 -11l8 -6l8 -7l3 -24l-14 -20l-24 -4l-20 15l-1 6zM595 556l-14 16l-13 16l-11 18l-8 16v-106l-45 -23l16 -10l-17 -10v-50h60
l33 37l43 -37v-22h-136v-85h34l33 37l43 -37v-22h-110v-89h74l34 38l43 -38v-21h-151v-96l-64 -32v448l46 -7v118l-15 -20l-14 -17l-16 -16l-17 -13l-35 -21l-6 8l12 15l21 32l10 17l9 18l8 19l14 40l6 22l1 3h-56v22h78v112l64 -11l16 -11l-16 -10v-80h30l34 37l43 -37v-22
h-107v-16l20 -26l12 -14l13 -12l13 -11l13 -11l28 -16l15 -7l23 -14l-59 -47l-17 13zM759 892l16 -11l-16 -9v-614l-64 -33v678z" />
  </g>

</svg>
