<?xml version="1.0" standalone="no"?>
<!DOCTYPE svg PUBLIC "-//W3C//DTD SVG 1.1//EN" "http://www.w3.org/Graphics/SVG/1.1/DTD/svg11.dtd" >
<svg xmlns="http://www.w3.org/2000/svg" xmlns:xlink="http://www.w3.org/1999/xlink" version="1.1" viewBox="0 -144 1024 1024">
  <g transform="matrix(1 0 0 -1 0 880)">
   <path fill="currentColor"
d="M889 102l-9 -10l-9 -9l-11 -7l-11 -7l-13 -4l-13 -4l-13 -1l-13 -1v32l-108 16v16h108l7 1l7 1l11 3l4 3l5 3l4 3l4 5l4 5l3 7l8 19l7 27l7 37l7 44l5 52l5 60l3 68l3 75l1 83l1 79h-115l-4 -83l-9 -93l-13 -86l-19 -79l-24 -72l-29 -64l-34 -56l-38 -49l-44 -41l-49 -31
l-5 8l40 38l35 44l31 49l27 55l23 63l19 68l14 76l9 83l5 90l1 80h-132v22h132v242l64 -11l16 -11l-16 -9v-211h115l32 27l59 -49l-27 -16v-64l-1 -84l-3 -76l-4 -69l-4 -61l-6 -55l-7 -47l-8 -40l-9 -34l-11 -28l-7 -12zM481 369l-20 33l-19 -12h-1v-10l-1 -16v-15v-13
l-1 -11l-1 -10l-1 -10l-1 -7l-2 -9l-61 23v3l1 6l1 8v10l1 12l1 14v33v8h-136v-124h90l7 1l11 2l4 2l4 2l3 3l4 3l3 5l3 5l3 6v1l61 -23l-6 -12l-7 -12l-7 -11l-10 -9l-10 -9l-12 -6l-12 -6l-12 -3l-14 -3h-13v32l-90 15v-120l1 -5l1 -3l1 -3l1 -1l2 -1l3 -1h5l7 -1h214
l32 135h11l-11 -135l20 -13l12 -19l-12 -19l-20 -13h-246h-14l-13 3l-13 4l-13 7l-10 8l-9 12l-6 11l-5 13l-2 14l-1 14v282l-42 -61l-43 -49l-46 -43l-7 7l37 49l35 52l32 57l29 61l25 62h-152v22h159l17 52l19 76l3 17h-96v22h101l8 42l13 86l9 89l2 13l63 -19l15 -12
l-18 -8l-11 -73l-17 -88l-7 -30h52l53 53l65 -53v-22h-103l33 -92l19 -47l3 -6h32l53 54l65 -54v-22h-141l28 -56l22 -38l23 -36l25 -33l26 -31l27 -28l6 -7l-57 -42l-28 34zM245 569l-37 -80l-20 -35l53 -26h136l32 26l42 -34l-14 28l-20 44l-16 45l-10 32h-146zM299 736
l-8 -31l-24 -77l-14 -37h132l-11 43l-9 53l-6 49h-60zM246 936l11 -16l-20 -4l-17 -36l-28 -51l-33 -48l-36 -43l-20 -19l-21 -18l-8 6l39 72l23 48l22 50l19 53l8 28l3 7zM475 797l-15 43l-17 40l-20 38l-11 19l-12 18l7 7l36 -28l16 -16l16 -17l14 -19l14 -20l25 -43
l21 -47l-2 -24l-19 -16l-24 2l-16 19l-6 22z" />
  </g>

</svg>
