<?xml version="1.0" standalone="no"?>
<!DOCTYPE svg PUBLIC "-//W3C//DTD SVG 1.1//EN" "http://www.w3.org/Graphics/SVG/1.1/DTD/svg11.dtd" >
<svg xmlns="http://www.w3.org/2000/svg" xmlns:xlink="http://www.w3.org/1999/xlink" version="1.1" viewBox="0 -144 1024 1024">
  <g transform="matrix(1 0 0 -1 0 880)">
   <path fill="currentColor"
d="M894 934v-21h-737v-756h667l54 53l64 -53v-22h-785v-64l-64 -33v929l64 -33h618l54 54zM749 194l-35 23l-43 22l-78 33l-29 11l1 10l32 -3l31 -3l29 -5l27 -6l26 -7l24 -7l23 -9l21 -10l20 -11l18 -11l12 -22l-7 -24l-22 -11l-24 7l-12 11zM463 284l32 -32v-18l-19 8
l-41 -18l-51 -20l-27 -9l-56 -16l-29 -6l-29 -5l-31 -3l-3 9l155 76l67 38l21 14zM377 594h309l32 27l60 -49l-27 -21v-235l-65 -33v33h-309l-65 -33v343zM377 402v-65h309v65h-309zM377 489v-65h309v65h-309zM377 572v-61h309v61h-309zM185 652h316v69h-120l-65 -32v177
l65 -32h120v69l65 -11l16 -11l-16 -9v-38h124l33 27l59 -49l-27 -21v-70l-65 -32v32h-124v-69h239l34 37l43 -37v-22h-697v22zM381 812v-69h120v69h-120zM566 812v-69h124v69h-124z" />
  </g>

</svg>
