<?xml version="1.0" standalone="no"?>
<!DOCTYPE svg PUBLIC "-//W3C//DTD SVG 1.1//EN" "http://www.w3.org/Graphics/SVG/1.1/DTD/svg11.dtd" >
<svg xmlns="http://www.w3.org/2000/svg" xmlns:xlink="http://www.w3.org/1999/xlink" version="1.1" viewBox="0 -144 1024 1024">
  <g transform="matrix(1 0 0 -1 0 880)">
   <path fill="currentColor"
d="M189 919h678l54 54l64 -54v-22h-796v-328l-3 -75l-5 -71l-8 -66l-10 -61l-13 -57l-16 -51l-19 -45l-21 -41l-24 -34l-28 -28l-7 6l17 33l16 36l14 40l13 45l10 50l8 54l7 59l3 64l2 69v455zM152 102h371v177h-248v22h248v172l64 -11l16 -11l-16 -10v-140h178l53 53
l65 -53v-22h-296v-177h280l54 53l64 -53v-22h-833v22zM249 505h274v161h-242v22h242v166l64 -10l16 -11l-16 -10v-135h162l53 53l65 -53v-22h-280v-161h215l54 54l65 -54v-22h-672v22z" />
  </g>

</svg>
