<?xml version="1.0" standalone="no"?>
<!DOCTYPE svg PUBLIC "-//W3C//DTD SVG 1.1//EN" "http://www.w3.org/Graphics/SVG/1.1/DTD/svg11.dtd" >
<svg xmlns="http://www.w3.org/2000/svg" xmlns:xlink="http://www.w3.org/1999/xlink" version="1.1" viewBox="0 -144 1024 1024">
  <g transform="matrix(1 0 0 -1 0 880)">
   <path fill="currentColor"
d="M761 147l-65 41l-59 46l-22 20l-20 -17l-75 -51l-81 -43l-88 -38l-93 -29l-100 -22l-2 10l96 31l89 37l81 42l75 47l69 52l15 14l-45 52l-41 59l-35 63l-28 68l-19 67h-56l-7 -40l-24 -97l-31 -88l-36 -80l-43 -70l-49 -62l-54 -52l-61 -41l-6 8l53 48l46 56l41 61l36 70
l30 78l26 86l19 93l14 102l9 111l3 108h-241v21h586l32 27l59 -48l-27 -17l-11 -4l-70 -248h157l32 27l59 -49l-27 -16l-12 -5l-32 -65l-48 -78l-56 -72l-61 -65l-7 -6l15 -12l58 -39l63 -35l67 -30l112 -40l-62 -54l-77 32zM425 596l28 -58l35 -62l39 -56l44 -52l47 -47
l10 10l55 64l48 69l43 75l26 57h-375zM387 887l-6 -112l-12 -114l-8 -43h222l80 269h-276z" />
  </g>

</svg>
