<?xml version="1.0" standalone="no"?>
<!DOCTYPE svg PUBLIC "-//W3C//DTD SVG 1.1//EN" "http://www.w3.org/Graphics/SVG/1.1/DTD/svg11.dtd" >
<svg xmlns="http://www.w3.org/2000/svg" xmlns:xlink="http://www.w3.org/1999/xlink" version="1.1" viewBox="0 -144 1024 1024">
  <g transform="matrix(1 0 0 -1 0 880)">
   <path fill="currentColor"
d="M842 654l-3 -47l6 -45l12 -77l14 -71l15 -66l17 -61l19 -55l20 -50l22 -44l24 -39l-53 -48l-31 57l-21 50l-18 55l-15 60l-13 64l-11 70l-4 40l-6 -40l-13 -71l-16 -64l-19 -60l-21 -53l-24 -47l-27 -39l-30 -33l-8 6l20 37l19 42l17 47l15 52l14 58l11 63l9 70l7 74
l5 82l3 86v20h-91v21h91v296l64 -11l16 -10l-16 -10v-265h22l44 49l54 -49v-21h-120v-23zM608 172v-22h-51v-67l-54 -27v94h-55v22h84l33 37zM584 267v-5l1 -3l1 -3l1 -3l3 -2l4 -3l7 -2l5 -1l19 26h6v30h-46v-22l-1 -7v-5zM432 201l7 14l11 25l4 14l4 14l3 16l3 17h-32
v-100zM132 847h80l30 27l56 -49l-27 -18v-531l-59 -29v62h-80v-65l-65 -32v667zM631 259l-6 -15l6 -4v19zM132 825v-495h80v495h-80zM480 473h100l33 27l59 -49l-27 -21v-59l-65 -33v33h-100l-64 -33v167zM480 451v-59h100v59h-100zM678 543v-22h-296v22h220l33 37zM645 672
h11l-11 -49l13 -8l9 -13l-9 -13l-13 -9h-135l-13 2l-11 3l-12 5l-10 7l-9 10l-6 11l-5 12l-4 13l-1 12v20l-67 -14v-199l-2 -55l-5 -52l-6 -49l-8 -45l-11 -43l-13 -38l-14 -36l-18 -32l-20 -27l-21 -23l-6 5l13 27l13 30l11 31l10 35l8 38l6 40l5 44l3 47l1 50v440l54 -27
h77v172l64 -11l16 -10l-16 -10v-44h48l33 38l43 -38v-22h-124v-75h112l33 27l59 -48l-27 -17l-13 -5l-10 -19l-20 -34l-16 -22l-6 -13l-9 4l4 13l3 40v13l1 12l1 24v4h-157l30 -6l15 -11l-15 -9v-66l13 2l34 55l61 -35l4 -21l-112 -23v-32l-1 -7l1 -5l1 -4v-3l1 -3l2 -2
l2 -2l5 -3l6 -1l7 -2h102zM372 801v-118l67 14v104h-67zM887 856l-3 16l-3 15l-4 15l-4 15l-10 30l-8 13l8 7l11 -12l13 -11l11 -12l11 -14l9 -15l10 -15l8 -17l13 -35l5 -20l-5 -23l-21 -13l-24 6l-14 21v17zM682 126l-2 -11l-5 -11l-6 -10l-8 -9l-10 -7l-11 -5l-11 -2
l-12 -2v27l-43 14v13h43l4 1h2l2 1l1 1l3 5l1 5v7l1 7v60l-6 -3h-29l-12 1l-11 2l-12 5l-10 7l-8 9l-7 10l-6 12l-3 13l-2 13v17l-3 -11l-8 -18l-9 -17l-10 -16l-10 -15l-11 -12l-13 -11l-12 -9l-14 -7l-3 -1v-94l-59 -30v297l59 -30h199l27 27l53 -48l-26 -16v-135l-1 -12z
" />
  </g>

</svg>
