<?xml version="1.0" standalone="no"?>
<!DOCTYPE svg PUBLIC "-//W3C//DTD SVG 1.1//EN" "http://www.w3.org/Graphics/SVG/1.1/DTD/svg11.dtd" >
<svg xmlns="http://www.w3.org/2000/svg" xmlns:xlink="http://www.w3.org/1999/xlink" version="1.1" viewBox="0 -144 1024 1024">
  <g transform="matrix(1 0 0 -1 0 880)">
   <path fill="currentColor"
d="M168 919h693l33 27l59 -49l-27 -21v-780l-65 -32v54h-693v-38l-65 -32v903zM168 897v-758h693v758h-693zM749 252l-25 51l-14 26l-3 7l-83 -21l-153 -34l-205 -42l-8 -19l-14 15l-21 61l114 15l100 271l67 207l59 -29l11 -15l-19 -4l-72 -177l-68 -145l-25 -47l-26 -47
l-7 -12l209 25l54 5l55 5l24 2l-19 32l-72 114l7 6l52 -47l46 -49l39 -50l35 -51l30 -51l1 -24l-16 -18l-24 -1l-19 16z" />
  </g>

</svg>
