<?xml version="1.0" standalone="no"?>
<!DOCTYPE svg PUBLIC "-//W3C//DTD SVG 1.1//EN" "http://www.w3.org/Graphics/SVG/1.1/DTD/svg11.dtd" >
<svg xmlns="http://www.w3.org/2000/svg" xmlns:xlink="http://www.w3.org/1999/xlink" version="1.1" viewBox="0 -144 1024 1024">
  <g transform="matrix(1 0 0 -1 0 880)">
   <path fill="currentColor"
d="M168 908h693l33 27l59 -48l-27 -22v-779l-65 -33v54h-693v-38l-65 -32v903zM168 887v-758h693v758h-693zM711 212l-40 39l-43 35l-44 32l-40 27v-168l-64 -32v214l-25 -27l-31 -30l-31 -27l-34 -26l-34 -23l-36 -21l-37 -17l-39 -15l-5 9l65 48l31 24l58 54l27 29l26 31
l24 32l24 33l4 7h-95v-16l-64 -32v215l64 -32h285l32 27l60 -49l-27 -21v-92l-65 -32v32h-113v-72l30 -9l27 -10l52 -25l25 -15l30 39l29 42l17 29l5 10l6 8l50 -41l6 -18l-22 2l-24 -23l-13 -12l-29 -22l-15 -10l-16 -9l-8 -5l34 -23l47 -37l10 -23l-9 -23l-23 -10l-23 9z
M372 553v-91h285v91h-285zM544 854l16 -10l-16 -10v-66h123l44 49l54 -49v-21h-221v-92h171l44 49l54 -49v-21h-586v21h253v92h-199v21h199v97z" />
  </g>

</svg>
