<?xml version="1.0" standalone="no"?>
<!DOCTYPE svg PUBLIC "-//W3C//DTD SVG 1.1//EN" "http://www.w3.org/Graphics/SVG/1.1/DTD/svg11.dtd" >
<svg xmlns="http://www.w3.org/2000/svg" xmlns:xlink="http://www.w3.org/1999/xlink" version="1.1" viewBox="0 -144 1024 1024">
  <g transform="matrix(1 0 0 -1 0 880)">
   <path fill="currentColor"
d="M867 469l-43 34l-23 17l-53 32l-78 43v-520l-65 -32v919l65 -11l16 -11l-16 -9v-322l27 -6l34 -8l63 -22l29 -13l54 -29l49 -33l23 -17l9 -23l-8 -23l-23 -10l-23 9zM230 307v357h-177v21h177v260l64 -11l16 -10l-16 -10v-229h70l54 54l64 -54v-21h-188v-339l140 39
l53 14l3 -9l-98 -46l-92 -38l-125 -48l-74 -26l-14 -4l-6 -19l-15 13l-27 59z" />
  </g>

</svg>
