<?xml version="1.0" standalone="no"?>
<!DOCTYPE svg PUBLIC "-//W3C//DTD SVG 1.1//EN" "http://www.w3.org/Graphics/SVG/1.1/DTD/svg11.dtd" >
<svg xmlns="http://www.w3.org/2000/svg" xmlns:xlink="http://www.w3.org/1999/xlink" version="1.1" viewBox="0 -144 1024 1024">
  <g transform="matrix(1 0 0 -1 0 880)">
   <path fill="currentColor"
d="M876 128l-30 38l-17 19l-36 33l-40 33l-9 7l-21 -18l-59 -42l-63 -39l-64 -34l-67 -30l-70 -26l-72 -20l-4 9l68 30l65 33l63 35l60 38l57 41l55 44l52 47l49 51l47 54l44 57l3 3l49 -42l6 -18l-20 2l-36 -42l-51 -54l-55 -50l-21 -17l29 -11l25 -12l23 -14l23 -14
l21 -17l21 -17l20 -20l18 -20l18 -22l4 -25l-12 -20l-25 -5l-21 14l-13 21zM41 244l98 31l53 18v379h-135v21h135v274l65 -10l16 -11l-16 -10v-243h26l54 54l64 -54v-21h-144v-355l147 53l4 -9l-77 -47l-107 -58l-95 -45l-36 -16l-5 -21l-16 12zM869 633l7 -17h-20l-27 -36
l-42 -50l-45 -48l-47 -45l-50 -42l-52 -39l-54 -36l-58 -33l-59 -29l-63 -26l-3 9l111 71l52 37l49 40l48 41l44 43l43 46l40 48l37 50l35 52l3 4zM534 510l-11 16l-13 17l-13 15l-30 29l-35 28l-19 12l4 10l23 -7l23 -7l22 -9l21 -11l19 -13l9 -6l40 64l22 38l19 36l8 18
l7 17l1 1h-231v21h463l54 54l64 -54v-21h-339l46 -31l9 -16l-22 -2l-11 -16l-28 -35l-32 -33l-17 -17l-38 -32l-2 -1l14 -13l17 -17l16 -17l14 -19l3 -25l-15 -19l-24 -4l-20 15l-9 18zM913 924v-21h-456v21h338l54 54z" />
  </g>

</svg>
