<?xml version="1.0" standalone="no"?>
<!DOCTYPE svg PUBLIC "-//W3C//DTD SVG 1.1//EN" "http://www.w3.org/Graphics/SVG/1.1/DTD/svg11.dtd" >
<svg xmlns="http://www.w3.org/2000/svg" xmlns:xlink="http://www.w3.org/1999/xlink" version="1.1" viewBox="0 -144 1024 1024">
  <g transform="matrix(1 0 0 -1 0 880)">
   <path fill="currentColor"
d="M50 116h430v129h-360v21h360v104l64 -11l16 -11l-16 -9v-73h242l54 54l64 -54v-21h-360v-129h312l54 54l64 -54v-21h-924v21zM636 346l-13 1l-12 4l-12 6l-11 8l-9 10l-7 12l-5 12l-2 13l-2 14v281h-244l19 -9l13 -15l-20 -5l-4 -12l-16 -30l-9 -15h145l33 26l59 -48
l-27 -16l-10 -4l-9 -24l-23 -42l-30 -38l-34 -33l-40 -29l-45 -24l-49 -20l-55 -16l-59 -10l-64 -6l-2 9l61 16l56 19l49 21l44 23l38 26l16 14l-14 -5l-22 9l-4 7l-6 8l-7 8l-8 8l-9 9l-37 27l-13 8l-7 -7l-27 -20l-28 -16l-31 -14l-33 -12l-4 9l52 40l43 42l17 23l17 23
l13 24l11 25l10 27l5 19h-171v21h747l44 48l53 -48v-21h-319l16 -11l-16 -10v-127l25 9l85 29l125 41h1l4 1l2 -7l54 -44l1 -16l-23 10l-16 -5l-53 -10l-84 -15l-59 -8l-30 -4l-31 -2h-1v-119v-4l1 -4l1 -4l1 -2l2 -2l4 -1l5 -2l7 -1h252l27 91h10l-10 -91l16 -11l10 -16
l-10 -16l-16 -11h-279zM287 599l-12 -17l-22 -23l-3 -3l23 -4l16 -4l15 -4l14 -5l14 -5l24 -13l11 -7l8 -24l-6 -14l30 34l22 33l16 36l6 20h-156zM357 991l16 -10l-16 -10v-77h23l44 48l54 -48v-22h-121v-83l-65 -32v115h-229v22h229v108zM726 991l16 -10l-16 -10v-77h111
l54 53l65 -53v-22h-230v-83l-65 -32v115h-121v22h121v108z" />
  </g>

</svg>
