<?xml version="1.0" standalone="no"?>
<!DOCTYPE svg PUBLIC "-//W3C//DTD SVG 1.1//EN" "http://www.w3.org/Graphics/SVG/1.1/DTD/svg11.dtd" >
<svg xmlns="http://www.w3.org/2000/svg" xmlns:xlink="http://www.w3.org/1999/xlink" version="1.1" viewBox="0 -144 1024 1024">
  <g transform="matrix(1 0 0 -1 0 880)">
   <path fill="currentColor"
d="M642 112h107l7 1l4 1l4 1l2 1l1 1v1l1 1l2 4v5l1 6v151h-417v21h417v96l64 -11l16 -10l-16 -10v-65h29l54 54l64 -54v-21h-147v-151v-13l-3 -14l-4 -13l-7 -12l-9 -11l-11 -9l-12 -7l-13 -4l-13 -2l-14 -1v32l-107 16v16zM561 133l-9 28l-9 26l-19 37l-7 12l-9 10l6 8
l12 -8l13 -7l13 -9l12 -9l11 -11l21 -24l11 -14l9 -14l8 -15l-1 -25l-17 -17l-25 1l-17 17zM100 264l79 29v379h-126v21h126v274l64 -10l16 -11l-16 -10v-243h16l54 54l65 -54v-21h-135v-355l56 23l81 30l5 -9l-73 -47l-101 -57l-116 -59l-5 -2l-5 -21l-16 12l-33 56z
M894 379l-27 49l-10 15l-2 2l-25 -6l-48 -10l-142 -25l-189 -28l-25 -4l-10 -18l-12 15l-17 63l10 2l190 13l48 3h3v108h-134v-37l-65 -33v338l65 -32h134v75h-281v22h281v102l65 -11l16 -11l-16 -10v-70h162l54 54l64 -54v-22h-280v-75h137l33 27l59 -48l-27 -22v-193
l-65 -32v32h-137v-104l28 1l48 3l49 1h17l-28 35l-10 12l-12 10l5 8l15 -6l16 -5l15 -8l31 -19l29 -25l15 -15l28 -32l3 -24l-13 -21l-24 -3zM504 666v-86h134v86h-134zM703 666v-86h137v86h-137zM504 773v-86h134v86h-134zM703 773v-86h137v86h-137z" />
  </g>

</svg>
