<?xml version="1.0" standalone="no"?>
<!DOCTYPE svg PUBLIC "-//W3C//DTD SVG 1.1//EN" "http://www.w3.org/Graphics/SVG/1.1/DTD/svg11.dtd" >
<svg xmlns="http://www.w3.org/2000/svg" xmlns:xlink="http://www.w3.org/1999/xlink" version="1.1" viewBox="0 -144 1024 1024">
  <g transform="matrix(1 0 0 -1 0 880)">
   <path fill="currentColor"
d="M533 387h264l32 27l59 -48l-27 -22v-250l-64 -33v54h-264v-37l-65 -33v374zM533 244v-107h264v107h-264zM533 366v-100h264v100h-264zM485 680v-190h148v190h-148zM697 680v-190h148v190h-148zM830 620l8 -17l-23 -1l-34 -38l-36 -35l-13 -11l-11 -13l-8 5l8 16l38 88
l13 34l5 10zM546 557l-7 23l-8 22l-17 35l-9 9l6 8l11 -8l13 -7l11 -8l11 -8l11 -10l10 -10l9 -11l16 -24l8 -13l-2 -24l-17 -17l-25 2l-17 18zM910 659v-201l-65 -33v43h-360v-16l-65 -32v265l-40 -24l-31 -15l-5 8l18 18h-118v-354l134 51l5 -8l-71 -47l-99 -57l-88 -46
l-26 -13l-5 -2l-5 -21l-16 12l-32 56l9 4l53 17l59 22l18 6v380h-123v21h123v274l64 -10l16 -11l-16 -10v-243h14l53 54l65 -54v-8l37 37l7 8v4l2 -1l29 35l16 23l14 24l13 24l12 25l12 32l57 -31l11 -17l-21 -3l-21 -35l-17 -26l-20 -24l-22 -22l-24 -22l-2 -2l26 -12h360
l24 20l-25 26l-18 25l-16 26l-13 27l-11 29l-8 31l-5 27h-208v22h138l44 48l54 -48v-22h-14l27 -44l33 -45l18 -20l39 -34l21 -15l23 -13l50 -26l-60 -49l-10 7z" />
  </g>

</svg>
