<?xml version="1.0" standalone="no"?>
<!DOCTYPE svg PUBLIC "-//W3C//DTD SVG 1.1//EN" "http://www.w3.org/Graphics/SVG/1.1/DTD/svg11.dtd" >
<svg xmlns="http://www.w3.org/2000/svg" xmlns:xlink="http://www.w3.org/1999/xlink" version="1.1" viewBox="0 -144 1024 1024">
  <g transform="matrix(1 0 0 -1 0 880)">
   <path fill="currentColor"
d="M840 681l3 2l29 25l59 -49l-27 -16l-14 -6l-10 -18l-25 -37l-30 -34l-34 -33l-11 -9l26 -18l31 -16l33 -14l33 -10l85 -16l-64 -60l-41 12l-38 16l-36 19l-35 24l-31 28l-3 4l-29 -20l-45 -27l-50 -26l-55 -23l-15 -5l14 -9l-16 -10v-75h242l54 53l64 -53v-22h-360v-133
h312l54 54l64 -54v-22h-924v22h430v133h-360v22h360v106l40 -7l82 49l45 30l41 30l22 19l-22 30l-23 38l-21 42l-15 42h-52v22h263zM306 495l8 -17h-22l-12 -14l-30 -31l-35 -32l-41 -32l-46 -31l-6 7l65 83l26 36l21 33l14 27l5 9zM141 567l-4 -20l-9 -37l-11 -36l-13 -33
l-14 -32l-17 -29l-20 -27l-8 5l18 62l8 32l7 33l6 34l4 36l3 38l2 39v40v42v284l64 -32h296l32 27l59 -48l-27 -22v-99l-64 -32v43h-296v-121l-1 -11h71v104l65 -11l16 -10l-16 -10v-73h69v104l65 -11l16 -10l-16 -10v-73h26l33 37l43 -37v-22h-102v-110h16l54 54l64 -54
v-21h-419v17zM436 437l-6 10l-6 11l-8 9l-9 10l-23 18l-13 9l-17 7l3 9l17 -3l18 -2l17 -4l16 -4l15 -7l14 -9l14 -10l12 -11l12 -13l10 -14l1 -25l-17 -18l-24 -1l-19 16l-3 11zM642 659l49 -66l27 -32l24 -24l15 14l28 32l23 33l19 34l4 9h-189zM155 681l-1 -11l-4 -43
l-5 -40l-3 -16h85v110h-72zM292 681v-110h69v110h-69zM673 966h102l33 27l59 -48l-27 -22v-97l-1 -7l1 -4v-4l1 -2l1 -2l1 -2l2 -2l4 -1l5 -2h7h65l27 91h11l-11 -91l16 -11l11 -16l-11 -16l-16 -11h-105l-13 1l-12 4l-12 6l-11 8l-9 10l-7 12l-5 13l-3 12l-1 14v119h-102
v-63l-3 -24l-5 -24l-7 -22l-9 -21l-12 -21l-13 -18l-15 -19l-17 -16l-40 -29l-6 8l15 18l12 19l10 19l9 18l7 19l5 19l3 18l2 18l1 19l-1 19v116zM157 945v-88h296v88h-296z" />
  </g>

</svg>
