<?xml version="1.0" standalone="no"?>
<!DOCTYPE svg PUBLIC "-//W3C//DTD SVG 1.1//EN" "http://www.w3.org/Graphics/SVG/1.1/DTD/svg11.dtd" >
<svg xmlns="http://www.w3.org/2000/svg" xmlns:xlink="http://www.w3.org/1999/xlink" version="1.1" viewBox="0 -144 1024 1024">
  <g transform="matrix(1 0 0 -1 0 880)">
   <path fill="currentColor"
d="M753 76l-68 18l-63 22l-58 27l-38 22l-68 -30l-73 -27l-77 -22l-81 -18l-86 -13l-91 -8l-1 10l88 18l84 21l78 23l72 27l68 30l41 22l-14 10l-40 39l-33 43l-18 34l-37 -30l-34 -25l-36 -22l-38 -22l-41 -18l-43 -17l-46 -14l-4 9l41 23l75 48l34 25l31 25l29 26l26 27
l25 28l22 29l19 29l3 4l51 -40l7 -18l-21 1l-11 -14l-12 -13h276l10 10l2 -2l22 18l60 -48l-27 -16l-24 -10l-33 -33l-54 -44l-59 -39l-13 -8l65 -25l60 -16l65 -13l71 -9l135 -10l-64 -67l-79 10zM395 343l-11 -10l26 -29l38 -34l41 -31l31 -18l39 25l52 40l47 43l13 14
h-276zM593 489l-2 -12v-8l1 -2l1 -3l2 -3l5 -3l6 -2l8 -2h309l19 27h11l-11 -27l11 -8l8 -11l-8 -11l-11 -8h-328h-13l-12 1l-11 2l-12 5l-10 7l-10 9l-7 11l-5 11l-4 13l-2 14v76h-82l43 -42l5 -19l-21 4l-8 -7l-29 -20l-32 -20l-36 -17l-40 -17l-44 -16l-48 -15l-52 -13
l-56 -12l-61 -10l-3 9l111 40l94 39l40 19l36 20l31 20l26 20l22 19l16 18h-28l-65 -33v342l65 -32h51l1 2l9 28l15 36h-127v22h215l44 48l53 -48v-22h-111l-26 -26l-19 -16l-17 -14l-9 -6l-7 -4h122l32 27l59 -49l-26 -21v-256l-65 -32v54h-13v-76zM305 972l48 -42l2 -17
l-22 10l-10 -4l-16 -3l-17 -4l-18 -2l-18 -3l-18 -3l-39 -4l-31 -2v-145h75l34 37l43 -37v-22h-152v-144h75l34 37l43 -37v-22h-152v-64l-65 -33v476l57 -29l66 30l18 7l46 21l9 5v1l1 -1l4 2zM930 887l-27 -21v-325l-64 -32v54h-143v21h143v145h-143v21h143v137h-143v22
h143l32 27zM412 653v-67h194v67h-194zM412 737v-62h194v62h-194zM412 820v-61h194v61h-194z" />
  </g>

</svg>
