<?xml version="1.0" standalone="no"?>
<!DOCTYPE svg PUBLIC "-//W3C//DTD SVG 1.1//EN" "http://www.w3.org/Graphics/SVG/1.1/DTD/svg11.dtd" >
<svg xmlns="http://www.w3.org/2000/svg" xmlns:xlink="http://www.w3.org/1999/xlink" version="1.1" viewBox="0 -144 1024 1024">
  <g transform="matrix(1 0 0 -1 0 880)">
   <path fill="currentColor"
d="M793 144l-51 41l-46 44l-41 48l-35 52l-29 54l-23 59l-17 62l-10 60h-7l-13 -68l-26 -77l-36 -70l-45 -64l-54 -59l-64 -52l-73 -45l-81 -38l-91 -31l-3 9l85 41l75 44l66 49l57 52l47 57l38 61l29 66l20 71l8 54h-407v22h411l3 80v162l-64 -12l-73 -12l-76 -10l-78 -8
l-80 -6l-1 9l229 50l140 35l131 37l121 42l57 21l3 -8l47 -42l1 -16l-21 9l-67 -22l-126 -36l-67 -15l-12 -3v-175l-6 -80h302l54 53l64 -53v-22h-406l20 -54l25 -56l28 -52l33 -49l36 -44l41 -41l44 -37l49 -34l54 -30l90 -42l-61 -50l-61 33z" />
  </g>

</svg>
