<?xml version="1.0" standalone="no"?>
<!DOCTYPE svg PUBLIC "-//W3C//DTD SVG 1.1//EN" "http://www.w3.org/Graphics/SVG/1.1/DTD/svg11.dtd" >
<svg xmlns="http://www.w3.org/2000/svg" xmlns:xlink="http://www.w3.org/1999/xlink" version="1.1" viewBox="0 -144 1024 1024">
  <g transform="matrix(1 0 0 -1 0 880)">
   <path fill="currentColor"
d="M331 241l-34 46l-20 21l-8 8l-6 -13l-39 -66l-43 -59l-47 -52l-53 -45l-56 -37l-5 8l48 45l45 49l40 53l36 59l33 65l9 24l-26 19l-57 35l-11 -58l-69 -20l76 397h-93v21h97l47 243l61 -23l14 -13l-18 -5l-38 -202h107l32 27l60 -48l-27 -16l-5 -2l-11 -72l-20 -91
l-25 -85l-29 -79l-7 -15l20 -14l26 -21l24 -23l22 -24l20 -27l3 -25l-14 -19l-24 -4l-20 14zM923 118l-35 69l-42 67l-53 73l-49 -69l-64 -64l-72 -52l-81 -43l-90 -34l-4 9l84 43l75 49l65 55l55 62l46 74l38 84l29 99l21 114l12 132l5 150v12l64 -13l16 -11l-17 -10
l-6 -133l-17 -135l-26 -119l-35 -104l-41 -82l35 -24l42 -37l38 -41l34 -44l16 -24l14 -24l2 -24l-16 -19l-24 -2zM398 275l64 22v616l65 -10l16 -11l-16 -10v-561l154 61l39 14l4 -8l-66 -45l-122 -71l-84 -43l-5 -21l-15 11zM210 720l-58 -299l37 -11l33 -13l25 -12l27 84
l20 83l15 88l10 80h-109zM684 690l-20 41l-23 38l-41 55l-15 18l5 8l22 -12l20 -13l39 -31l17 -17l16 -19l30 -41l13 -22l13 -23v-24l-17 -18h-25l-17 17z" />
  </g>

</svg>
