<?xml version="1.0" standalone="no"?>
<!DOCTYPE svg PUBLIC "-//W3C//DTD SVG 1.1//EN" "http://www.w3.org/Graphics/SVG/1.1/DTD/svg11.dtd" >
<svg xmlns="http://www.w3.org/2000/svg" xmlns:xlink="http://www.w3.org/1999/xlink" version="1.1" viewBox="0 -144 1024 1024">
  <g transform="matrix(1 0 0 -1 0 880)">
   <path fill="currentColor"
d="M328 265l-19 22l-20 21l-8 8l-6 -13l-39 -66l-43 -59l-48 -52l-52 -45l-57 -37l-6 8l49 45l45 49l41 54l36 58l33 65l10 25l-27 18l-57 35l-11 -58l-70 -20l77 397h-95v21h99l47 243l61 -23l14 -13l-17 -5l-39 -202h108l32 27l59 -48l-26 -16l-5 -2l-12 -72l-19 -91
l-25 -85l-29 -79l-7 -15l20 -14l25 -21l25 -23l22 -24l8 -12l33 22l52 38l50 40l48 42l45 44l43 46l41 48l38 51l36 53l31 51l6 9l52 -38l8 -18h-20l-26 -38l-41 -54l-43 -51l-46 -47l-48 -45l-50 -42l-53 -39l-55 -35l-58 -32l-34 -16l3 -4l3 -24l-14 -20l-24 -4l-20 14
l-15 24zM881 131l-29 41l-33 37l-36 35l-29 25l-18 -16l-57 -45l-61 -41l-62 -37l-65 -32l-68 -27l-70 -22l-3 9l65 32l63 34l60 36l57 41l55 43l53 46l50 51l48 54l45 57l45 65l51 -40l7 -18l-20 1l-35 -45l-50 -58l-52 -54l-26 -23l33 -13l23 -13l23 -15l22 -16l21 -17
l38 -39l36 -45l4 -24l-14 -20l-24 -4l-21 14l-12 22zM222 720l-58 -299l37 -11l33 -13l25 -12l27 84l21 83l15 88l10 80h-110zM642 794l2 5l3 6l55 -33l11 -17l-22 -2l-39 -55l-30 -36l-35 -35l-23 -20l17 -16l16 -18l14 -18l14 -21l3 -24l-16 -19l-24 -2l-20 15l-17 36
l-22 34l-13 16l-29 32l-33 29l-18 14l4 9l23 -8l22 -8l21 -11l21 -11l18 -14l6 -5l39 67l21 40l18 38zM423 827h235v156l65 -10l16 -11l-16 -10v-125h142l54 54l64 -54v-21h-560v21z" />
  </g>

</svg>
