<?xml version="1.0" standalone="no"?>
<!DOCTYPE svg PUBLIC "-//W3C//DTD SVG 1.1//EN" "http://www.w3.org/Graphics/SVG/1.1/DTD/svg11.dtd" >
<svg xmlns="http://www.w3.org/2000/svg" xmlns:xlink="http://www.w3.org/1999/xlink" version="1.1" viewBox="0 -144 1024 1024">
  <g transform="matrix(1 0 0 -1 0 880)">
   <path fill="currentColor"
d="M324 265l-17 23l-20 21l-6 6l-6 -12l-37 -65l-42 -59l-45 -53l-51 -45l-55 -37l-6 8l47 44l43 49l39 54l35 59l31 65l10 25l-26 18l-53 34l-11 -57l-69 -20l74 397h-89v21h93l45 243l62 -22l14 -14l-18 -5l-37 -202h101l32 27l59 -48l-27 -16l-4 -2l-11 -72l-19 -91
l-24 -85l-28 -79l-7 -15l20 -14l24 -21l23 -23l21 -24l20 -27l3 -25l-15 -19l-24 -4l-20 14l-14 25zM517 935h376l32 27l59 -49l-27 -21v-134l-64 -33v33h-376v-167l-3 -68l-4 -64l-6 -62l-8 -58l-10 -55l-12 -52l-14 -48l-17 -45l-19 -40l-21 -37l-9 4l12 40l10 42l9 45
l9 47l6 51l6 54l4 57l2 59l1 64l-1 66v376zM955 273h11l-11 -134l19 -13l13 -19l-13 -20l-19 -13h-187l-14 1l-13 3l-13 4l-12 6l-11 9l-9 11l-7 12l-4 13l-2 13l-1 14v132l-166 -28l-3 22l169 28v137l-144 -27l-3 22l147 27v124l-66 -15l-38 -7l-40 -4l-3 9l142 58l63 30
l60 32l50 29v1v-1l5 3l11 -18l31 -32v-18l-19 8l-53 -25l-65 -25l-14 -5v-132l66 12l44 62l73 -41l3 -22l-186 -34v-137l104 17l44 62l73 -43l4 -21l-225 -37v-143l1 -6l1 -5l1 -3l1 -2l1 -1l1 -1l1 -1l4 -1l4 -1h7h155zM225 720l-56 -300l35 -10l32 -13l22 -11l26 83l19 83
l16 88l9 80h-103zM517 913v-134h376v134h-376z" />
  </g>

</svg>
