<?xml version="1.0" standalone="no"?>
<!DOCTYPE svg PUBLIC "-//W3C//DTD SVG 1.1//EN" "http://www.w3.org/Graphics/SVG/1.1/DTD/svg11.dtd" >
<svg xmlns="http://www.w3.org/2000/svg" xmlns:xlink="http://www.w3.org/1999/xlink" version="1.1" viewBox="0 -144 1024 1024">
  <g transform="matrix(1 0 0 -1 0 880)">
   <path fill="currentColor"
d="M472 417l7 -18l-19 1l-26 -39l-10 -13h427l53 54l65 -54v-22h-233l-28 -53l-37 -47l-45 -41l-1 -1l38 -8l113 -28l108 -32l18 -17l1 -25l-16 -17l-25 -2l-103 38l-109 35l-57 17l-20 5l-62 -29l-68 -25l-77 -18l-85 -14l-93 -8l-101 -2v10l99 12l91 17l81 19l72 23l63 27
l11 6l-194 47l-31 -31l-26 -23l-42 49l47 43l44 47l23 26h-270v22h288l38 50l38 57h-156v-16l-64 -32v212l64 -32h217v88h-191v-16l-65 -32v159h-151v21h151v142l65 -32h191v73l64 -10l16 -11l-16 -10v-42h191l32 27l59 -49l-26 -21v-67h53l44 48l54 -48v-21h-151v-121
l-65 -33v43h-191v-88h216l33 27l59 -49l-27 -21v-100l-65 -32v43h-339zM408 326l-58 -69l-27 -29l26 -2l66 -7l65 -8l62 -11l12 -2l38 29l36 37l28 41l9 21h-257zM263 565v-89h217v89h-217zM544 565v-89h216v89h-216zM289 786v-89h191v89h-191zM544 786v-89h191v89h-191z
M289 895v-88h191v88h-191zM544 895v-88h191v88h-191z" />
  </g>

</svg>
