<?xml version="1.0" standalone="no"?>
<!DOCTYPE svg PUBLIC "-//W3C//DTD SVG 1.1//EN" "http://www.w3.org/Graphics/SVG/1.1/DTD/svg11.dtd" >
<svg xmlns="http://www.w3.org/2000/svg" xmlns:xlink="http://www.w3.org/1999/xlink" version="1.1" viewBox="0 -144 1024 1024">
  <g transform="matrix(1 0 0 -1 0 880)">
   <path fill="currentColor"
d="M704 339l19 -35l21 -32l23 -30l24 -27l27 -24l28 -22l32 -19l33 -17l71 -29l-62 -51l-40 20l-36 23l-34 26l-30 29l-27 31l-23 34l-20 36l-15 39l-12 41l-2 10l-2 -15l-16 -48l-23 -44l-29 -41l-34 -36l-40 -32l-45 -27l-52 -23l-56 -18l-62 -14l-2 9l57 23l51 26l45 28
l39 29l33 32l27 34l21 36l16 38l10 41l2 20h-265v21h95v269l64 -32h109v134l65 -11l16 -10l-16 -10v-103h108l33 27l59 -49l-27 -21v-194h21l43 49l54 -49v-21h-286zM314 266l-18 22l-18 21l-5 5l-41 -76l-40 -59l-46 -53l-48 -45l-54 -37l-6 8l46 44l41 49l38 54l33 59
l31 65l9 25l-50 36l-25 15l-10 -56l-69 -20l71 397h-86v21h90l44 243l62 -22l14 -14l-18 -5l-36 -202h96l32 27l59 -48l-26 -16l-4 -2l-11 -72l-19 -91l-23 -85l-27 -78l-7 -16l19 -14l24 -21l22 -23l21 -25l19 -26l3 -25l-15 -19l-25 -4l-19 15l-13 25zM515 596v-215h109v3
v212h-109zM797 596h-108v-215h108v215zM219 720l-54 -300l34 -10l30 -13l21 -11l25 83l19 83l14 88l10 80h-99zM816 978l16 -11l-16 -9v-93h34l54 54l64 -54v-21h-152v-81l-65 -32v113h-166v-81l-65 -32v113h-141v21h141v124l65 -11l16 -11l-16 -9v-93h166v124z" />
  </g>

</svg>
