<?xml version="1.0" standalone="no"?>
<!DOCTYPE svg PUBLIC "-//W3C//DTD SVG 1.1//EN" "http://www.w3.org/Graphics/SVG/1.1/DTD/svg11.dtd" >
<svg xmlns="http://www.w3.org/2000/svg" xmlns:xlink="http://www.w3.org/1999/xlink" version="1.1" viewBox="0 -144 1024 1024">
  <g transform="matrix(1 0 0 -1 0 880)">
   <path fill="currentColor"
d="M721 107h75l7 1l5 1l3 1h2l1 1l1 1l1 2l1 3v5l1 7v96h-283v-150l-64 -32v182h-96v22h96v118h-91v22h91v161l64 -32h109v91h-274v22h172v102h-111v21h111v92h-136v21h136v113l65 -11l16 -10l-16 -10v-82h135v113l64 -11l16 -10l-16 -10v-82h33l54 54l65 -54v-21h-152v-92
h38l44 49l54 -49v-21h-136v-102h85l44 48l53 -48v-22h-279v-91h109l32 27l59 -49l-27 -21v-86h20l33 37l43 -37v-22h-96v-118h20l33 38l43 -38v-22h-96v-96v-14l-3 -13l-4 -13l-7 -13l-9 -10l-10 -9l-12 -7l-13 -4l-14 -2l-14 -1v32l-75 16v16zM286 267l-15 22l-17 21l-2 3
l-37 -75l-37 -59l-42 -52l-45 -45l-50 -38l-6 8l41 44l38 49l34 53l31 59l28 65l9 26l-22 19l-43 31l-9 -54l-69 -21l66 397h-76v21h79l40 242l62 -21l15 -13l-18 -5l-33 -203h84l32 27l59 -48l-27 -16l-4 -2l-10 -71l-17 -91l-22 -85l-25 -79l-7 -17l18 -14l23 -21l20 -23
l20 -25l17 -26l2 -25l-15 -19l-25 -2l-19 15l-12 25zM535 365v-118h109v118h-109zM709 365v-118h109v118h-109zM535 494v-107h109v107h-109zM709 494v-107h109v107h-109zM204 720l-50 -300l30 -10l29 -13l16 -10l22 82l17 82l14 88l8 81h-86zM607 731v-102h135v102h-135z
M607 844v-92h135v92h-135z" />
  </g>

</svg>
