<?xml version="1.0" standalone="no"?>
<!DOCTYPE svg PUBLIC "-//W3C//DTD SVG 1.1//EN" "http://www.w3.org/Graphics/SVG/1.1/DTD/svg11.dtd" >
<svg xmlns="http://www.w3.org/2000/svg" xmlns:xlink="http://www.w3.org/1999/xlink" version="1.1" viewBox="0 -144 1024 1024">
  <g transform="matrix(1 0 0 -1 0 880)">
   <path fill="currentColor"
d="M903 113l-46 57l-21 30l-20 31l-19 33l-17 34l-15 35l-6 14v-272l-64 -32v360h-81v-328l-64 -32v254l-16 -27l-27 -39l-28 -36l-31 -33l-33 -29l-35 -26l-36 -23l-40 -18l-4 8l32 27l59 58l27 31l25 34l23 35l21 38l20 40l17 43l8 23h-117v21h135v124h-167v21h167v113
h-124v22h124v102h-156v21h334l47 87l22 47l10 23h-1l5 10l55 -36l9 -17l-23 -1l-30 -36l-41 -44l-36 -33h100l54 54l65 -54v-21h-205v-102h86l33 27l59 -49l-27 -21v-92h24l24 33l32 -33v-21h-80v-177l-65 -33v65h-86v-7l76 -108l44 -55l47 -49l61 -54l-58 -43zM313 265
l-17 23l-19 21l-7 6l-5 -12l-37 -65l-42 -59l-46 -53l-51 -45l-55 -37l-5 8l46 44l43 49l39 54l35 59l31 65l10 25l-25 18l-54 34l-10 -57l-70 -20l74 397h-89v21h93l45 243l62 -22l14 -14l-18 -5l-37 -202h101l32 27l59 -48l-26 -16l-4 -2l-12 -72l-19 -91l-24 -85l-28 -79
l-7 -15l20 -14l25 -21l23 -23l21 -24l19 -27l3 -25l-14 -19l-24 -4l-20 14l-14 25zM214 720l-56 -300l35 -10l32 -13l22 -11l26 83l20 83l15 88l9 80h-103zM614 548v-124h81v124h-81zM759 548v-124h86v124h-86zM614 682v-113h81v113h-81zM759 682v-113h86v113h-86zM614 806
v-102h81v102h-81zM536 881l-7 12l-14 24l-9 12l-10 11l-22 22l-13 10l4 8l16 -5l16 -5l16 -7l15 -8l15 -9l13 -10l14 -12l11 -12l12 -14l10 -15l1 -24l-15 -19l-25 -1l-19 15l-4 14z" />
  </g>

</svg>
