<?xml version="1.0" standalone="no"?>
<!DOCTYPE svg PUBLIC "-//W3C//DTD SVG 1.1//EN" "http://www.w3.org/Graphics/SVG/1.1/DTD/svg11.dtd" >
<svg xmlns="http://www.w3.org/2000/svg" xmlns:xlink="http://www.w3.org/1999/xlink" version="1.1" viewBox="0 -144 1024 1024">
  <g transform="matrix(1 0 0 -1 0 880)">
   <path fill="currentColor"
d="M289 266l-16 22l-17 21l-3 4l-38 -75l-38 -59l-43 -53l-47 -44l-51 -38l-6 8l43 44l39 49l35 53l32 60l28 64l9 26l-22 19l-46 31l-9 -54l-69 -21l68 397h-79v21h83l41 242l62 -21l14 -13l-17 -6l-35 -202h88l32 27l59 -48l-27 -16l-4 -2l-10 -71l-18 -91l-21 -85
l-27 -79l-7 -16l19 -15l23 -21l21 -23l20 -25l12 -17v20h176l3 43v43h-47v-16l-64 -32v301l64 -32h351l32 26l60 -48l-27 -21v-189l-65 -32v43h-21v-86h43l53 54l65 -54v-21h-161v-172l-64 -33v205h-167l-11 -43l-16 -44l-22 -38l-27 -32l-31 -26l-35 -20l-39 -12l-42 -5
l-2 9l37 15l32 19l27 21l22 26l19 29l14 33l12 39l4 29h-172l5 -8l2 -25l-15 -19l-25 -2l-19 15l-13 24zM607 318l-5 -39h163v86h-155zM499 467v-80h140v80h-140zM703 467v-80h147v80h-147zM203 720l-51 -300l31 -10l30 -13l17 -10l23 82l18 82l14 89l8 80h-90zM499 564v-75
h140v75h-140zM703 564v-75h147v75h-147zM669 956l11 -16l-24 -4l-18 -23l-8 -9l-18 -16l-8 -7h198l32 27l59 -48l-27 -22v-199l-64 -32v32h-262l-65 -32v306l65 -32h43l1 1l3 11l9 31l8 33l3 11l1 6l-1 1l5 12zM540 720v-59h262v59h-262zM540 795v-54h262v54h-262zM540 860
v-43h262v43h-262z" />
  </g>

</svg>
