<?xml version="1.0" standalone="no"?>
<!DOCTYPE svg PUBLIC "-//W3C//DTD SVG 1.1//EN" "http://www.w3.org/Graphics/SVG/1.1/DTD/svg11.dtd" >
<svg xmlns="http://www.w3.org/2000/svg" xmlns:xlink="http://www.w3.org/1999/xlink" version="1.1" viewBox="0 -144 1024 1024">
  <g transform="matrix(1 0 0 -1 0 880)">
   <path fill="currentColor"
d="M217 618h333l-9 146l-1 18l65 -12l16 -10l-15 -9l9 -133h217l54 54l65 -54v-22h-333l21 -121l33 -107l30 -65l20 21l38 51l33 55l29 57l3 8l56 -34l9 -17l-20 -2l-24 -43l-39 -58l-44 -53l-33 -31l24 -36l44 -46l41 -30l37 -20l15 -5l29 127h11l-11 -134l2 -1l22 -11
l8 -23l-11 -21l-23 -9l-29 5l-38 13l-46 24l-50 37l-51 53l-23 34l-22 -17l-59 -38l-63 -34l-69 -29l-72 -23l-78 -18l-2 10l73 27l68 31l63 33l58 37l53 40l23 21l-43 90l-35 116l-24 136h-335v-143h171l54 54l65 -54v-21h-50v-28l-1 -36l-2 -32l-3 -30l-3 -27l-4 -24
l-5 -22l-5 -19l-8 -17l-9 -15l-9 -10l-9 -10l-10 -8l-10 -8l-12 -6l-11 -5l-13 -4l-12 -2l-13 -2l-14 -1v33l-86 16v16h95l7 1l7 2l6 2l11 5l6 4l10 10l5 6l3 5l5 10l4 14l4 17l3 21l3 24l2 28l2 31l1 34v27h-175v-51l-3 -46l-6 -44l-9 -41l-13 -39l-15 -36l-18 -32l-21 -31
l-25 -26l-27 -23l-30 -19l-6 7l22 27l19 26l17 28l15 30l12 31l10 33l7 35l5 38l2 40l-1 42v269zM744 675l-6 8l-15 18l-20 18l-25 19l-15 7l3 9l17 -4l17 -3l30 -7l14 -6l14 -5l13 -7l11 -7l12 -9l9 -8l12 18l46 84l12 22h-713v-15l-1 -25l-4 -23l-6 -22l-8 -21l-11 -19
l-14 -16l-16 -15l-25 -3l-19 14l-4 24l14 21l11 4l9 8l10 10l10 13l8 15l8 18l13 46l6 26l3 30l9 1l4 -31l2 -18h321v147l64 -10l16 -11l-16 -10v-116h336l4 3l1 3l1 -1l26 21l59 -48l-27 -16l-20 -9l-25 -25l-55 -52l-18 -13l-16 -16l-5 5l4 -24l-13 -21l-23 -5l-21 13
l-3 8z" />
  </g>

</svg>
