<?xml version="1.0" standalone="no"?>
<!DOCTYPE svg PUBLIC "-//W3C//DTD SVG 1.1//EN" "http://www.w3.org/Graphics/SVG/1.1/DTD/svg11.dtd" >
<svg xmlns="http://www.w3.org/2000/svg" xmlns:xlink="http://www.w3.org/1999/xlink" version="1.1" viewBox="0 -144 1024 1024">
  <g transform="matrix(1 0 0 -1 0 880)">
   <path fill="currentColor"
d="M836 127l-47 36l-42 42l-10 13l-45 -41l-60 -42l-65 -35l-70 -27l-75 -19l-3 10l70 28l65 33l59 39l52 44l44 45l-35 54l-31 59l-27 65l-23 71l-18 73h-5l-3 -20l-20 -98l-25 -91l-29 -83l-35 -73l-40 -65l-44 -55l-50 -45l-7 7l41 51l36 58l32 64l28 73l24 81l20 88
l16 97l11 105l7 113l2 110h-109v21h388l32 27l59 -48l-27 -16l-9 -4l-46 -276h49l32 27l59 -48l-27 -16l-8 -4l-19 -61l-32 -77l-37 -70l-44 -64l-22 -25l14 -14l41 -35l42 -28l44 -23l87 -30l-63 -54l-53 23zM113 193l-64 -32v629l64 -11l16 -11l-16 -9v-480h71v672l65 -11
l16 -10l-16 -10v-641h80v511l65 -11l16 -11l-16 -9v-523l-65 -32v54h-216v-65zM586 575l28 -65l31 -66l33 -60l34 -53l29 -37l14 18l37 61l31 67l27 74l16 61h-280zM599 892l-6 -113l-11 -116l-9 -67h183l54 296h-211z" />
  </g>

</svg>
