<?xml version="1.0" standalone="no"?>
<!DOCTYPE svg PUBLIC "-//W3C//DTD SVG 1.1//EN" "http://www.w3.org/Graphics/SVG/1.1/DTD/svg11.dtd" >
<svg xmlns="http://www.w3.org/2000/svg" xmlns:xlink="http://www.w3.org/1999/xlink" version="1.1" viewBox="0 -144 1024 1024">
  <g transform="matrix(1 0 0 -1 0 880)">
   <path fill="currentColor"
d="M684 112h108l6 1l5 1l5 2l2 2l1 5l2 5v6v129h-168v2l-13 -10v-145l-64 -32v53h-82v-37l-59 -30v264l59 -30h82l32 27l49 -40h164v80l65 -11l16 -10l-16 -10v-49h17l25 32l32 -32v-22h-74v-129l-2 -13l-2 -14l-4 -13l-7 -12l-9 -11l-10 -9l-13 -7l-13 -4l-13 -2l-13 -1v32
l-108 16v16zM701 160l-4 20l-5 18l-4 9l-3 8l-10 15l-7 5l4 9l9 -4l11 -2l10 -4l10 -5l10 -7l9 -8l9 -9l16 -22l8 -12l-2 -25l-18 -16l-24 1l-17 19zM486 276v-123h82v123h-82zM254 307h47l2 1h1l2 2l1 1l1 4l1 4l1 7v431h-66v-671l-53 -27v698h-64v-483l-60 -30v564l60 -29
h64v191l53 -11l14 -11l-14 -9v-160h66l27 26l54 -48l-27 -16v-407v-13l-2 -12l-3 -11l-4 -11l-6 -9l-8 -10l-10 -7l-11 -4l-11 -3l-12 -1v27l-43 14v13zM965 392v-21h-573v21h497l33 38zM425 489h221v86h-181v21h302l44 49l54 -49v-21h-154v-86h116l44 48l54 -48v-22h-500
v22zM984 672l-27 -17l-13 -5l-4 -8l-20 -33l-16 -23l-8 -11l-7 -13l-8 4l4 14l1 14l1 13l1 13l2 12l2 25l1 11v4h-488v21h488l32 27zM453 789h193v91h-231v22h231v91l65 -11l16 -11l-16 -10v-59h112l54 53l65 -53v-22h-231v-91h95l44 48l54 -48v-22h-451v22z" />
  </g>

</svg>
