<?xml version="1.0" standalone="no"?>
<!DOCTYPE svg PUBLIC "-//W3C//DTD SVG 1.1//EN" "http://www.w3.org/Graphics/SVG/1.1/DTD/svg11.dtd" >
<svg xmlns="http://www.w3.org/2000/svg" xmlns:xlink="http://www.w3.org/1999/xlink" version="1.1" viewBox="0 -144 1024 1024">
  <g transform="matrix(1 0 0 -1 0 880)">
   <path fill="currentColor"
d="M189 870h312v124l65 -11l16 -10l-16 -10v-93h311l44 49l53 -49v-21h-785v-339l-3 -63l-6 -59l-8 -57l-12 -53l-15 -49l-17 -46l-21 -43l-23 -38l-28 -34l-30 -28l-7 6l21 35l18 36l17 38l14 42l12 44l10 48l7 50l5 54l2 57v453zM432 802l13 -15l-25 -7l-19 -27l-7 -10
l-16 -20l-8 -7h106l32 27l59 -49l-27 -21v-220l-64 -32v43h-154v-107h137l44 48l54 -48v-22h-235v-107h137l44 48l54 -48v-21h-235v-125l-64 -32v698l64 -32h34l2 3l4 25l5 35l2 21l1 14l-2 1l5 14zM958 268h10l-10 -134l19 -13l13 -19l-13 -20l-19 -13h-119l-13 2l-13 2
l-13 4l-13 6l-11 10l-9 10l-6 13l-4 13l-3 13l-1 13v164l-9 -18l-43 -67l-49 -59l-55 -50l-61 -40l-67 -32l-4 9l60 40l53 45l48 52l42 58l36 65l30 72l11 34h-177v22h56v347l64 -32h151l54 53l65 -53v-22h-95l-10 -97l-18 -98l-24 -90l-3 -8h52l54 53l65 -53v-22h-179
l-19 -50l37 -6l16 -11l-16 -10v-196v-6l2 -5v-3l1 -2l2 -2l2 -1l3 -1h5l6 -1h86zM688 743v-293h64l7 23l19 87l14 94l6 89h-110zM322 579v-94h154v94h-154zM322 694v-93h154v93h-154z" />
  </g>

</svg>
