<?xml version="1.0" standalone="no"?>
<!DOCTYPE svg PUBLIC "-//W3C//DTD SVG 1.1//EN" "http://www.w3.org/Graphics/SVG/1.1/DTD/svg11.dtd" >
<svg xmlns="http://www.w3.org/2000/svg" xmlns:xlink="http://www.w3.org/1999/xlink" version="1.1" viewBox="0 -144 1024 1024">
  <g transform="matrix(1 0 0 -1 0 880)">
   <path fill="currentColor"
d="M187 870h320v124l64 -11l16 -10l-16 -10v-93h296l54 54l64 -54v-21h-798v-306l-3 -71l-5 -66l-8 -61l-11 -57l-12 -52l-16 -48l-18 -42l-21 -38l-24 -32l-27 -25l-7 6l18 30l17 34l14 37l12 42l11 45l8 51l7 55l4 59l2 64v426zM935 258h10l-10 -134l19 -13l13 -19
l-13 -20l-19 -13h-91l-14 1l-13 2l-14 5l-11 6l-11 9l-9 11l-7 12l-4 13l-3 14v13v193l-15 -46l-27 -64l-31 -57l-36 -50l-41 -43l-45 -35l-6 8l36 41l32 46l29 50l25 56l21 62l17 68l12 69h-71l-7 -68l-67 -25l32 326l63 -17l15 -13l-17 -6l-17 -176h72l7 64l6 86l1 93v3
h-160v22h218l54 54l65 -54v-22h-131l18 -3l16 -12l-17 -10l-3 -74l-10 -89l-9 -58h43l54 54l65 -54v-21h-165l-1 -2l39 -7l16 -10l-16 -10v-269l1 -6v-5l1 -3l1 -2l1 -1l1 -1l2 -1l3 -1l5 -1h7h58zM545 263h11l-11 -134l20 -13l13 -20l-13 -19l-20 -13h-210l-14 1l-13 2
l-13 5l-13 6l-10 9l-9 10l-7 13l-4 13l-2 13l-1 14v241l64 -10l16 -11l-16 -10v-102l26 17l136 82l5 2l6 -12l39 -37l1 -18l-20 8l-85 -32l-68 -23l-23 -7l-17 -5v-83l1 -7l1 -5v-3l1 -2l1 -1h1l2 -1l3 -1l5 -1h185zM407 790l12 -16l-26 -5l-9 -14l-29 -35l-6 -6h120l32 26
l59 -48l-26 -21v-251l-65 -32v32h-169l-59 -30v353l59 -29h35l1 2l2 23l2 12l1 10l2 11l3 30v4l-1 1l1 4l4 8zM300 558v-117h169v117h-169zM300 692v-112h169v112h-169z" />
  </g>

</svg>
