<?xml version="1.0" standalone="no"?>
<!DOCTYPE svg PUBLIC "-//W3C//DTD SVG 1.1//EN" "http://www.w3.org/Graphics/SVG/1.1/DTD/svg11.dtd" >
<svg xmlns="http://www.w3.org/2000/svg" xmlns:xlink="http://www.w3.org/1999/xlink" version="1.1" viewBox="0 -144 1024 1024">
  <g transform="matrix(1 0 0 -1 0 880)">
   <path fill="currentColor"
d="M858 236l1 -19l-19 7l-29 -20l-49 -30l-51 -27l-52 -23l-54 -21l-56 -18l-58 -15l-60 -12l-61 -8l-63 -5l-2 10l61 15l59 16l56 18l55 20l52 21l50 24l48 26l46 29l44 30l42 33zM189 870h318v124l64 -11l16 -10l-16 -10v-93h316l44 49l54 -49v-21h-796v-306l-3 -71
l-5 -66l-8 -62l-10 -57l-13 -52l-16 -47l-19 -43l-21 -37l-24 -32l-28 -26l-7 7l18 31l15 33l14 38l13 41l10 46l9 50l6 55l3 59l2 64v429zM747 305l2 -19l-19 7l-19 -13l-75 -44l-40 -19l-42 -17l-42 -15l-44 -13l-44 -11l-46 -7l-48 -5l-1 9l87 31l41 16l79 37l37 20
l70 44l33 24l30 25l2 2zM646 379l2 -19l-20 6l-36 -25l-29 -16l-29 -15l-32 -14l-31 -13l-34 -11l-34 -10l-36 -8l-36 -5l-3 9l65 31l60 31l29 16l53 35l47 37l22 20l1 1zM847 326l-37 17l-36 19l-68 43l-32 25l-30 25l-28 28l-12 15h-1l-17 -16l-35 -28l-36 -27l-38 -25
l-40 -22l-42 -21l-43 -18l-45 -16l-48 -13l-49 -10l-3 9l89 41l41 21l77 46l69 51l31 27l30 29l27 31l2 2l45 -46l2 -6l76 -45l34 -18l34 -17l70 -30l74 -24l80 -22l-62 -56l-40 15zM583 760l-27 -21v-193l-64 -32v81l-10 2l-30 -28l-24 -19l-25 -19l-27 -16l-28 -16
l-29 -14l-31 -12l-31 -11l-34 -8l-3 9l82 53l48 36l43 38l38 42l13 17v1l6 6l42 -39v143h-83l37 -30l6 -19l-20 2l-23 -23l-20 -18l-42 -33l-23 -15l-23 -14l-24 -12l-26 -10l-27 -9l-4 9l61 51l37 34l17 18l31 38l15 19l8 12h-159v22h262l32 27zM960 760l-27 -21v-246
l-65 -33v136l-8 1l-38 -32l-41 -27l-21 -12l-47 -21l-25 -8l-26 -7l-4 8l62 46l36 29l16 16l28 31l13 16l11 17l2 2l42 -36v141h-82l37 -30l6 -19l-21 2l-22 -23l-21 -18l-21 -18l-46 -31l-25 -13l-26 -12l-27 -10l-28 -9l-4 9l66 51l39 35l35 36l30 38l8 12h-159v22h261
l33 27z" />
  </g>

</svg>
