<?xml version="1.0" standalone="no"?>
<!DOCTYPE svg PUBLIC "-//W3C//DTD SVG 1.1//EN" "http://www.w3.org/Graphics/SVG/1.1/DTD/svg11.dtd" >
<svg xmlns="http://www.w3.org/2000/svg" xmlns:xlink="http://www.w3.org/1999/xlink" version="1.1" viewBox="0 -144 1024 1024">
  <g transform="matrix(1 0 0 -1 0 880)">
   <path fill="currentColor"
d="M245 967l16 -10l-16 -10v-878l-64 -32v941zM635 398l15 -12l-20 -8l-7 -31l-16 -49l-22 -46l-26 -42l-31 -38l-36 -35l-40 -30l-45 -27l-49 -23l-54 -19l-3 9l48 28l43 29l38 31l34 32l29 34l24 37l20 38l15 42l12 43l9 57zM941 258h11l-11 -135l19 -13l13 -19l-13 -19
l-19 -13h-163l-14 1l-13 2l-13 4l-13 7l-10 9l-9 11l-6 12l-5 13l-2 13l-1 14v290h-170v-64l-65 -33v373l-28 -25l-27 -21l-29 -21l-3 -2l10 -22l-5 -24l-19 -15l-24 4l-15 19l-2 14l-2 15l-4 15l-4 15l-5 15l-6 16l-22 51l-11 16l8 7l30 -28l13 -13l13 -15l22 -29l10 -15
l4 -7l64 76l38 51l33 52l32 58l53 -37l9 -17l-21 -1l-25 -35l-42 -51l-43 -44l63 -31h296l33 27l59 -48l-27 -22v-236l-65 -32v64h-61v-297l1 -5l1 -3l1 -1v-1l1 -2l5 -1l5 -1l7 -1h131zM522 661v-204h296v204h-296zM68 508l-13 20l4 24l7 9l8 11l7 14l15 35l7 21l15 48
l7 28l7 29h10l1 -60l-1 -27l-1 -26l-3 -23l-3 -22l-4 -20l-5 -18l-6 -18l-7 -16l-20 -13zM875 720l-46 44l-39 48l-16 25l-14 25l-11 27l-7 24h-211v22h165l54 54l65 -54v-22h-58l48 -53l40 -37l22 -19l47 -34l52 -30l22 -14l-60 -47z" />
  </g>

</svg>
