<?xml version="1.0" standalone="no"?>
<!DOCTYPE svg PUBLIC "-//W3C//DTD SVG 1.1//EN" "http://www.w3.org/Graphics/SVG/1.1/DTD/svg11.dtd" >
<svg xmlns="http://www.w3.org/2000/svg" xmlns:xlink="http://www.w3.org/1999/xlink" version="1.1" viewBox="0 -144 1024 1024">
  <g transform="matrix(1 0 0 -1 0 880)">
   <path fill="currentColor"
d="M247 973l16 -11l-16 -10v-877l-65 -32v940zM680 386l-9 -26h162v177h-136v-21l-4 -67zM58 514l-13 20l5 25l7 8l8 12l8 13l8 16l16 40l23 75l7 30l10 -1v-31v-29l-1 -27l-2 -26l-3 -23l-4 -22l-4 -20l-6 -19l-7 -18l-8 -16l-21 -13zM327 638l-4 14l-5 15l-6 16l-15 32
l-17 35l-12 17l7 6l32 -26l28 -28l24 -30l11 -15l9 -16l8 -15l7 -17l-3 -24l-20 -15l-24 3l-15 19l-2 14zM631 919h208l32 27l59 -49l-27 -21v-215l-64 -32v53h-208v-37l-65 -33v339zM631 897v-193h208v193h-208zM707 338l63 -76l23 -25l50 -46l27 -21l27 -19l29 -18l54 -31
l-60 -47l-31 22l-30 23l-27 25l-26 26l-25 28l-22 30l-21 30l-18 33l-16 34l-11 32h-29l-4 -11l-27 -54l-34 -50l-41 -45l-48 -40l-54 -35l-61 -30l-67 -24l-4 9l62 34l54 36l48 37l41 41l33 44l27 46l17 42h-219v22h226l11 39l7 56l2 61v21h-147v-64l-64 -33v463l64 -11
l16 -11l-16 -9v-313h347l33 27l59 -49l-27 -21v-156h23l24 32l32 -32v-22h-270z" />
  </g>

</svg>
