<?xml version="1.0" standalone="no"?>
<!DOCTYPE svg PUBLIC "-//W3C//DTD SVG 1.1//EN" "http://www.w3.org/Graphics/SVG/1.1/DTD/svg11.dtd" >
<svg xmlns="http://www.w3.org/2000/svg" xmlns:xlink="http://www.w3.org/1999/xlink" version="1.1" viewBox="0 -144 1024 1024">
  <g transform="matrix(1 0 0 -1 0 880)">
   <path fill="currentColor"
d="M765 263h10l-10 -134l19 -13l13 -20l-13 -19l-19 -13h-382l-14 1l-13 2l-13 5l-13 7l-10 8l-9 11l-7 12l-4 13l-3 14v13v192l64 -11l17 -10l-17 -10v-167l2 -5l1 -5l2 -2l5 -2l5 -1h7h349zM57 108l-3 24l15 19l15 8l14 10l13 12l12 14l11 16l9 20l8 22l7 25l6 27l4 31h10
l4 -31l3 -30l-1 -28l-4 -27l-6 -25l-9 -24l-12 -22l-15 -20l-17 -18l-20 -16l-24 -2zM889 181l-8 17l-10 19l-12 18l-13 17l-33 36l-41 37l5 8l26 -11l26 -12l23 -14l21 -16l19 -16l18 -18l16 -18l14 -20l12 -22l11 -22l-3 -24l-18 -16l-25 2l-16 19l-5 17zM556 250l-21 29
l-25 27l-15 13l-32 27l-18 12l4 9l43 -13l20 -8l19 -10l19 -11l17 -11l32 -28l15 -15l13 -17l4 -24l-14 -20l-24 -4l-20 14zM50 430h322v151h-155v-64l-65 -33v330l65 -32h155v129h-290v22h742l54 54l64 -54v-22h-290v-129h155l32 27l60 -49l-27 -21v-190l-65 -32v64h-155
v-151h204l54 54l64 -54v-21h-924v21zM437 581v-151h150v151h-150zM217 760v-157h155v157h-155zM437 760v-157h150v157h-150zM652 760v-157h155v157h-155zM437 911v-129h150v129h-150z" />
  </g>

</svg>
