<?xml version="1.0" standalone="no"?>
<!DOCTYPE svg PUBLIC "-//W3C//DTD SVG 1.1//EN" "http://www.w3.org/Graphics/SVG/1.1/DTD/svg11.dtd" >
<svg xmlns="http://www.w3.org/2000/svg" xmlns:xlink="http://www.w3.org/1999/xlink" version="1.1" viewBox="0 -144 1024 1024">
  <g transform="matrix(1 0 0 -1 0 880)">
   <path fill="currentColor"
d="M210 978l16 -11l-16 -9v-878l-65 -32v941zM758 71l-73 6l-60 10l-49 15l-39 19l-31 23l-24 28l-17 30l-5 15l-2 -1l-31 -40l-39 -46l-36 -39l1 -22l-18 6l-49 43l9 7l15 10l101 67v271h-108v21h108l32 27l59 -48l-27 -22v-226h-1l32 -32l24 -18l27 -14l35 -11l43 -9
l55 -5l69 -1l84 2l161 9l-56 -74l-103 -3zM635 501h202l32 27l59 -49l-27 -21v-228l-64 -33v65h-202v-65l-65 -32v368zM635 479v-196h202v196h-202zM768 970l16 -10l-16 -10v-112h26l54 54l65 -54v-21h-145v-193h82l53 54l65 -54v-21h-200v-56l-65 -32v88h-200v21h200v193
h-82l-13 -28l-27 -50l-16 -23l-17 -22l-19 -21l-8 5l28 76l25 78l13 54l6 26l4 23h-1l1 4l3 11l61 -24l13 -14l-20 -6l-11 -37l-11 -28l-1 -3h72v143zM67 518l-16 18l1 25l6 9l6 11l7 14l6 17l12 40l20 77l6 29h9l1 -31l2 -29v-26v-26l-2 -23l-1 -21l-6 -38l-3 -17l-5 -15
l-19 -16zM247 646l-2 15l-3 15l-3 15l-8 32l-10 33l-7 16l8 5l24 -27l11 -14l20 -29l17 -31l13 -31l6 -16l-6 -24l-20 -14l-24 6l-14 20v14zM389 648l-16 26l-17 25l-10 12l-21 25l-12 10l5 8l15 -7l16 -6l15 -7l29 -18l28 -22l13 -12l24 -28l4 -24l-14 -20l-24 -4l-21 14z
M427 838l-14 26l-17 26l-9 13l-20 25l-11 11l5 8l15 -8l16 -7l15 -8l14 -9l14 -10l26 -23l23 -27l11 -14l2 -24l-15 -20l-24 -2l-20 15l-5 14z" />
  </g>

</svg>
