<?xml version="1.0" standalone="no"?>
<!DOCTYPE svg PUBLIC "-//W3C//DTD SVG 1.1//EN" "http://www.w3.org/Graphics/SVG/1.1/DTD/svg11.dtd" >
<svg xmlns="http://www.w3.org/2000/svg" xmlns:xlink="http://www.w3.org/1999/xlink" version="1.1" viewBox="0 -144 1024 1024">
  <g transform="matrix(1 0 0 -1 0 880)">
   <path fill="currentColor"
d="M382 581l6 10l54 -36l9 -17l-24 -1l-31 -33l-20 -20l-11 -10l-2 -1h82l54 53l65 -53v-22h-181v-91h66l44 48l54 -48v-22h-164v-91h66l44 48l54 -48v-22h-164v-91h78l54 54l65 -54v-15l41 31l46 42l43 46l40 52v1l-36 124l-26 149l-9 89l-103 -8l-2 21l103 8l-7 77l-6 222
v18l65 -13l16 -11l-16 -9l6 -204l7 -75l130 10l50 58l68 -49l2 -21l-248 -19l8 -86l25 -143l18 -65l25 47l30 69l25 69l5 13l58 -30l11 -15l-19 -4l-24 -58l-35 -71l-39 -65l-15 -21l25 -59l33 -54l32 -34l26 -19l30 126h10l-10 -135l22 -9l10 -23l-10 -23l-22 -9l-27 3
l-33 13l-38 27l-41 43l-40 64l-12 30l-28 -31l-49 -47l-53 -39l-55 -34l-59 -26l-63 -18l-2 9l56 28l52 31h-368v-37l-65 -32v344l-18 -22l-22 -23l-24 -20l-25 -19l-7 7l50 76l29 52l13 27l23 56l10 29l12 38l59 -28l12 -16l-21 -4l-19 -42l-14 -25h147l5 13l5 14l28 74
l2 7h-1zM203 225v-91h115v91h-115zM203 338v-91h115v91h-115zM203 451v-91h115v91h-115zM334 913l-27 -21v-301l-65 -32v180l-18 -23l-35 -40l-39 -35l-21 -17l-22 -15l-23 -14l-25 -13l-6 8l36 40l33 39l29 40l27 40l25 47l39 -28v145h-59l50 -37l8 -18l-22 1l-27 -30
l-31 -30l-16 -15l-36 -26l-39 -25l-6 7l14 18l39 52l34 51l25 45l5 7h-114v22h175l32 27zM590 913l-27 -21v-301l-64 -32v181l-33 -36l-35 -33l-18 -17l-41 -29l-45 -27l-6 8l49 58l43 55l24 36l20 37l3 4l39 -29v146h-66l52 -37l8 -17h-22l-27 -33l-31 -32l-34 -30l-19 -15
l-39 -27l-6 7l14 19l51 74l22 35l19 35l6 13l4 8h-91v22h159l32 27zM867 830l-7 14l-8 14l-9 14l-22 27l-25 27l-15 13l5 8l37 -16l17 -9l17 -10l16 -12l28 -25l24 -30l11 -16l1 -24l-16 -19h-25l-18 16l-5 14z" />
  </g>

</svg>
