<?xml version="1.0" standalone="no"?>
<!DOCTYPE svg PUBLIC "-//W3C//DTD SVG 1.1//EN" "http://www.w3.org/Graphics/SVG/1.1/DTD/svg11.dtd" >
<svg xmlns="http://www.w3.org/2000/svg" xmlns:xlink="http://www.w3.org/1999/xlink" version="1.1" viewBox="0 -144 1024 1024">
  <g transform="matrix(1 0 0 -1 0 880)">
   <path fill="currentColor"
d="M503 903h373l32 27l59 -49l-27 -21v-199l-64 -32v64h-373v-161l-3 -68l-6 -64l-8 -60l-12 -55l-15 -52l-17 -47l-21 -43l-24 -38l-26 -33l-30 -27l-7 7l20 33l19 34l16 39l14 42l12 45l10 50l7 53l5 57l2 62l-1 65v403zM102 118h76h6l5 1l5 2l2 2l2 5l1 5v6v297l-95 -50
l-3 -20l-16 10l-37 54l151 63v259h-136v22h136v209l65 -10l16 -11l-16 -10v-178h22l53 53l65 -53v-22h-140v-232l68 28l69 26l5 -8l-60 -43l-82 -50v-334l-1 -13l-3 -14l-4 -12l-7 -13l-8 -11l-11 -8l-13 -7l-13 -4l-13 -3l-13 -1v33l-76 16v16zM945 268h11l-11 -134l19 -13
l13 -19l-13 -20l-19 -13h-268l-14 2l-14 2l-13 4l-12 7l-11 9l-9 10l-6 13l-4 13l-3 13l-1 13v468l65 -11l16 -10l-16 -10v-199l147 70l80 43l20 12l5 3l7 -15l37 -35l1 -18l-21 8l-50 -22l-59 -22l-63 -20l-65 -18l-35 -7l-4 -1v-216l1 -6v-5l1 -3l1 -2l1 -1l1 -1h2l3 -1
l5 -1l7 -1h236zM503 881v-166h373v166h-373z" />
  </g>

</svg>
