<?xml version="1.0" standalone="no"?>
<!DOCTYPE svg PUBLIC "-//W3C//DTD SVG 1.1//EN" "http://www.w3.org/Graphics/SVG/1.1/DTD/svg11.dtd" >
<svg xmlns="http://www.w3.org/2000/svg" xmlns:xlink="http://www.w3.org/1999/xlink" version="1.1" viewBox="0 -144 1024 1024">
  <g transform="matrix(1 0 0 -1 0 880)">
   <path fill="currentColor"
d="M681 515l16 -11l-16 -10v-90h13l53 54l65 -54v-21h-131v-130h95l54 54l65 -54v-22h-214v-155l-64 -32v187h-214v22h214v130h-131v21h131v121zM859 368l-32 35l-29 38l-26 40l-22 41l-18 42h-159l-42 -74l-45 -60l-50 -55l-57 -48l-62 -41l-6 8l55 49l49 52l43 56l38 60
l27 53h-152l-25 -20l-57 -41l-45 -29v-335l-1 -13l-2 -14l-4 -12l-7 -13l-9 -11l-11 -8l-12 -7l-13 -4l-13 -3l-14 -1v33l-75 16v16h75h7l5 1l4 2l3 2l1 5l1 5l1 6v295l-81 -47l-3 -20l-16 9l-39 54l139 62v260h-123v22h123v209l64 -10l16 -11l-16 -10v-178h28l44 48l54 -48
v-22h-126v-230l92 39l7 3h-21v22h211l24 61l17 57h-179v21h185l17 78l6 41h-235v21h238l3 24l7 86l1 18l64 -17l15 -11l-18 -10l-8 -74l-3 -16h144l54 54l64 -54v-21h-266l-9 -52l-18 -67h148l54 54l64 -54v-21h-194l36 -81l20 -37h93l54 53l64 -53v-22h-198l12 -20l25 -35
l28 -34l29 -31l32 -29l34 -28l54 -37l-59 -46l-38 31zM630 704l-26 -74l-21 -44h141l-9 25l-12 48l-7 45h-66z" />
  </g>

</svg>
