<?xml version="1.0" standalone="no"?>
<!DOCTYPE svg PUBLIC "-//W3C//DTD SVG 1.1//EN" "http://www.w3.org/Graphics/SVG/1.1/DTD/svg11.dtd" >
<svg xmlns="http://www.w3.org/2000/svg" xmlns:xlink="http://www.w3.org/1999/xlink" version="1.1" viewBox="0 -144 1024 1024">
  <g transform="matrix(1 0 0 -1 0 880)">
   <path fill="currentColor"
d="M831 86l-43 23l-41 27l-25 22l-42 -29l-50 -27l-55 -24l-58 -19l-61 -15l-3 9l57 25l54 26l49 28l44 31l32 26l-13 13l-31 39l-28 42l-24 47l-18 46h-4l-14 -44l-28 -63l-33 -58l-36 -52l-40 -47l-46 -40l-49 -33l-6 8l41 40l38 44l33 48l30 52l26 56l22 61l19 67l14 71
l1 8h-183v22h186l7 45l5 68h-109v21h366l54 54l64 -54v-21h-310l-9 -76l-7 -37h284l44 48l54 -48v-22h-386l-4 -20l-19 -73l-1 -4h256l32 27l59 -48l-26 -16l-13 -5l-15 -31l-30 -46l-35 -42l-38 -40l-5 -4l15 -10l37 -21l40 -17l42 -13l91 -21l-63 -59l-49 15zM95 118h75h7
l4 1l5 2l2 2l2 5l1 5l1 6v298l-98 -51l-3 -20l-17 10l-36 54l154 63v259h-140v22h140v209l64 -10l16 -11l-16 -10v-178h24l54 53l65 -53v-22h-143v-232l71 28l69 26l5 -8l-62 -43l-83 -50v-334l-1 -13l-2 -14l-4 -12l-7 -13l-9 -11l-11 -8l-12 -7l-13 -4l-13 -3l-14 -1v33
l-75 16v16zM588 376l25 -35l30 -39l32 -36l33 -32l15 -12l10 10l33 38l28 40l23 43l10 23h-239zM890 965l57 -47l2 -16l-24 11l-23 -5l-36 -6l-74 -11l-82 -11l-86 -10l-46 -4l-37 -2l2 -2l-19 -7l-4 -14l-11 -32l-12 -32l-14 -31l-16 -29l-16 -28l-19 -27l-21 -24l-22 -23
l-25 -21l-7 6l45 81l13 28l12 28l10 29l9 29l8 30l6 31l7 42l50 -18l56 15l245 58l66 17h-1h1l4 1zM668 736l-3 14l-5 14l-6 13l-7 14l-18 29l-11 14l-14 13l6 8l34 -18l16 -11l14 -12l13 -13l13 -14l10 -15l10 -16l9 -17l7 -17l-5 -25l-20 -14l-24 4l-14 20l-2 15zM895 732
l-19 30l-39 47l-32 33l-18 17l5 8l45 -22l20 -12l37 -25l17 -13l29 -30l13 -15l12 -17l2 -24l-15 -19l-24 -2l-19 15l-7 14z" />
  </g>

</svg>
