<?xml version="1.0" standalone="no"?>
<!DOCTYPE svg PUBLIC "-//W3C//DTD SVG 1.1//EN" "http://www.w3.org/Graphics/SVG/1.1/DTD/svg11.dtd" >
<svg xmlns="http://www.w3.org/2000/svg" xmlns:xlink="http://www.w3.org/1999/xlink" version="1.1" viewBox="0 -144 1024 1024">
  <g transform="matrix(1 0 0 -1 0 880)">
   <path fill="currentColor"
d="M811 95l-10 -9l-10 -7l-11 -6l-12 -5l-12 -4l-13 -3l-13 -2h-13v32l-108 16v16h108l8 1l7 1l13 3l6 3l6 3l6 4l5 4l10 11l1 2l3 9l4 14l3 17l4 23l3 26l3 30l2 34l2 38l1 30h-167l-19 -73l-25 -63l-31 -54l-38 -47l-43 -38l-49 -29l-54 -19l-58 -9l-3 9l55 20l46 24
l41 32l35 37l29 43l24 51l19 58l12 58h-185v21h188l6 60l3 81v13l64 -14l17 -11l-18 -10l-4 -65l-9 -54h164l33 27l59 -48l-27 -16l-1 -1l-1 -16l-2 -39l-2 -35l-3 -32l-3 -28l-4 -24l-4 -22l-5 -18l-6 -16l-9 -15l-8 -10zM67 118h65h6l5 1l5 2l2 2l2 5l1 5v6v292l-65 -42
l-2 -21l-17 10l-40 51l9 5l115 57v261h-108v22h108v209l65 -10l16 -11l-16 -10v-178h13l44 48l54 -48v-22h-111v-228l78 37l30 13l5 -8l-49 -43l-64 -48v-336l-1 -13l-2 -14l-5 -12l-7 -13l-8 -11l-11 -8l-12 -7l-13 -4l-14 -3l-13 -1v33l-65 16v16zM567 685l-9 13l-21 25
l-11 12l-38 37l-5 3l-8 -17l-19 -32l-24 -28l-28 -23l-29 -17l3 -21l2 -23h522l33 27l59 -48l-27 -17l-16 -6l-40 -59l-24 -31l-14 -16l-13 -18l-8 5l8 20l30 90l9 32h-517l1 -17l-1 -27l-1 -25l-3 -23l-6 -21l-7 -20l-9 -17l-12 -17l-23 -8l-22 10l-8 23l10 23l7 5l8 9
l7 12l8 15l7 18l7 21l11 53l5 30l1 15l-20 -8l-5 9l26 21l23 23l19 24l16 27l14 29l10 33l8 35l5 39l2 42l-1 41v18l64 -12l17 -10l-18 -11l-1 -29l-6 -46l-9 -44l-14 -39l-3 -7l24 -8l17 -7l33 -17l16 -10l15 -11l28 -24l13 -13l6 -23l-12 -22l-24 -6l-21 12zM872 685
l-9 13l-32 37l-37 37l-5 3l-8 -17l-20 -32l-24 -28l-27 -23l-30 -18l-34 -13l-3 9l25 21l23 23l19 24l17 27l12 29l11 33l8 35l5 39l2 42l-1 41v18l65 -12l16 -10l-17 -11l-2 -29l-6 -46l-9 -44l-14 -39l-3 -7l24 -8l18 -7l32 -17l16 -10l29 -22l14 -13l13 -13l6 -23
l-12 -22l-24 -6l-21 12zM665 783l-13 21l4 24l7 6l5 6l11 15l4 7l5 9l4 10l3 9l2 11l-1 11l10 2l3 -11l5 -12l4 -11l2 -12l2 -12v-12l-1 -13l-3 -13l-3 -13l-5 -12l-21 -14zM360 783l-14 21l5 24l6 6l6 6l11 15l4 7l4 9l4 10l3 9l3 11l-1 11l10 2l2 -11l6 -12l4 -11l2 -12
l1 -12v-12l-1 -13l-2 -13l-4 -13l-5 -12l-20 -14zM936 912l10 -16l-24 -3l-21 -23l-10 -10l-22 -19l-24 -17l-12 -10l-7 7l9 12l24 50l5 12l8 23l4 16h-1l6 12zM631 912l10 -16l-24 -3l-21 -23l-10 -10l-22 -19l-25 -17l-11 -10l-7 7l9 12l13 26l10 24l5 12l12 34l1 5h-1
l5 12z" />
  </g>

</svg>
