<?xml version="1.0" standalone="no"?>
<!DOCTYPE svg PUBLIC "-//W3C//DTD SVG 1.1//EN" "http://www.w3.org/Graphics/SVG/1.1/DTD/svg11.dtd" >
<svg xmlns="http://www.w3.org/2000/svg" xmlns:xlink="http://www.w3.org/1999/xlink" version="1.1" viewBox="0 -144 1024 1024">
  <g transform="matrix(1 0 0 -1 0 880)">
   <path fill="currentColor"
d="M826 123l-46 37l-42 42l-6 7l-48 -45l-56 -41l-61 -34l-65 -27l-5 -1l-4 -2l-12 -5l-12 -2l-10 -1l-27 -7l-2 9l26 12v15l-75 15v15h75h5l4 1l3 1l2 2l2 3l1 4v6l1 7v344h-332v-404l-60 -30v485l60 -29h332l29 26l57 -48l-27 -19v-325l-1 -13l-2 -12l-2 -9l25 14l54 38
l50 42l45 48l2 3l-36 56l-29 56l-23 61l-19 65l-11 65h-49v21h151v414l64 -10l16 -11l-16 -10v-162h134l44 48l53 -48v-22h-231v-199h110l32 27l59 -48l-27 -16l-8 -4l-21 -59l-33 -74l-38 -67l-43 -62l-14 -16l9 -10l40 -35l43 -29l47 -25l86 -35l-62 -52l-55 26zM257 392
h96l29 27l57 -48l-27 -19v-154l-59 -29v51h-96v-38l-59 -29v269zM257 371v-130h96v130h-96zM619 489l26 -59l29 -56l32 -49l29 -39l8 10l36 59l32 65l28 71l18 57h-260zM208 752h200l32 27l59 -48l-27 -22v-129l-64 -32v43h-200v-16l-65 -32v241zM208 731v-119h200v119h-200
zM55 854h220v129l65 -10l16 -11l-16 -10v-98h109l53 54l65 -54v-21h-512v21z" />
  </g>

</svg>
