<?xml version="1.0" standalone="no"?>
<!DOCTYPE svg PUBLIC "-//W3C//DTD SVG 1.1//EN" "http://www.w3.org/Graphics/SVG/1.1/DTD/svg11.dtd" >
<svg xmlns="http://www.w3.org/2000/svg" xmlns:xlink="http://www.w3.org/1999/xlink" version="1.1" viewBox="0 -144 1024 1024">
  <g transform="matrix(1 0 0 -1 0 880)">
   <path fill="currentColor"
d="M829 526l16 -10l-16 -10v-431l-64 -32v494zM265 526l16 -10l-16 -10v-125l-4 -46l-7 -44l-10 -41l-14 -39l-17 -36l-21 -32l-25 -31l-28 -26l-31 -23l-35 -19l-5 8l27 27l23 27l21 29l18 29l14 31l12 33l9 36l6 37l2 39v197zM351 123h107l7 1l5 1l4 1l3 3l1 4l1 5l1 7
v226h-194v21h344l54 54l65 -54v-21h-205v-226l-1 -14l-2 -13l-4 -13l-7 -12l-9 -11l-11 -9l-12 -7l-13 -4l-13 -2l-14 -1v32l-107 16v16zM419 275l9 -17l-21 -1l-32 -42l-34 -39l-39 -35l-21 -17l-45 -31l-7 7l63 85l26 40l25 41l20 41l3 4zM675 150l-14 29l-18 30l-22 31
l-27 33l-16 15l6 8l39 -22l19 -11l33 -26l28 -28l13 -15l22 -32l1 -24l-16 -19h-24l-19 16zM673 510v-21h-322v21h204l54 54zM743 561l-75 22l-70 25l-66 29l-16 9l-46 -22l-70 -26l-76 -23l-79 -17l-85 -13l-88 -7l-2 9l87 19l81 20l77 23l71 27l65 30l14 7l-51 32l-52 40
l-46 44l-37 44h-197v21h398v135l64 -11l16 -11l-16 -9v-104h285l54 54l64 -54v-21h-186l-56 -58l-52 -45l-56 -40l-25 -14l45 -16l68 -20l72 -16l76 -14l136 -17l-64 -64l-83 15zM331 805l50 -35l54 -32l57 -29l21 -9l54 35l50 40l45 43l13 15h-379z" />
  </g>

</svg>
