<?xml version="1.0" standalone="no"?>
<!DOCTYPE svg PUBLIC "-//W3C//DTD SVG 1.1//EN" "http://www.w3.org/Graphics/SVG/1.1/DTD/svg11.dtd" >
<svg xmlns="http://www.w3.org/2000/svg" xmlns:xlink="http://www.w3.org/1999/xlink" version="1.1" viewBox="0 -144 1024 1024">
  <g transform="matrix(1 0 0 -1 0 880)">
   <path fill="currentColor"
d="M490 115h59l3 1h2l2 1l1 1v1l2 3l1 3v6l1 8v121h-138v-181l-59 -30v512l59 -29h138l29 27l57 -49l-27 -19v-352v-14l-3 -12l-3 -12l-5 -12l-8 -10l-9 -9l-12 -7l-12 -4l-12 -3l-12 -1v30l-54 15v15zM799 324h-67v-170l1 -7l2 -5l2 -4l1 -2l2 -1h2l2 -1l3 -1h5h47v191z
M141 868h98l30 27l56 -49l-26 -19v-620l-60 -29v61h-98v-64l-65 -32v757zM141 552v-291h98v291h-98zM423 383v-101h138v101h-138zM423 510v-106h138v106h-138zM141 846v-273h98v273h-98zM613 801l13 -15l-21 -6l-13 -28l-25 -51l-21 -35l-11 -17l-3 -5h31l44 48l54 -48v-22
h-334v22h191l3 11l3 20l5 20l7 37l10 52l2 17l2 11h-1l4 14zM407 695l-5 43l-3 14l-2 14l-10 39l-5 12l8 6l9 -10l10 -10l10 -11l18 -25l8 -14l14 -29l6 -15l6 -16l-5 -25l-21 -14l-24 6l-14 20v15zM335 862h127v122l65 -10l16 -11l-16 -10v-91h29l44 48l53 -48v-22h-318v22
zM954 267h11l-11 -134l19 -13l13 -19l-13 -20l-19 -13h-195l-14 2l-13 3l-12 5l-12 7l-10 9l-8 10l-6 12l-4 13l-1 13v481l53 -27h149v122h-136l-64 -32v282l64 -10l16 -11l-16 -10v-75h119l44 48l53 -48v-22h-216v-100h136l32 27l59 -49l-27 -21v-144l-64 -32v53h-149v-116
h117l44 48l53 -48v-22h-214v-90h117l44 48l53 -48v-22h-88v-191h64z" />
  </g>

</svg>
