<?xml version="1.0" standalone="no"?>
<!DOCTYPE svg PUBLIC "-//W3C//DTD SVG 1.1//EN" "http://www.w3.org/Graphics/SVG/1.1/DTD/svg11.dtd" >
<svg xmlns="http://www.w3.org/2000/svg" xmlns:xlink="http://www.w3.org/1999/xlink" version="1.1" viewBox="0 -144 1024 1024">
  <g transform="matrix(1 0 0 -1 0 880)">
   <path fill="currentColor"
d="M432 491l-11 13l-27 25l-15 12l-53 38l-4 2v-506l-65 -32v544l-29 -67l-24 -48l-26 -46l-29 -44l-32 -43l-33 -41l-37 -38l-8 6l55 89l24 45l45 93l19 47l18 48l15 49l13 50l7 33h-192v21h214v242l65 -10l16 -11l-16 -10v-211h77l54 54l64 -54v-21h-195v-124l32 -8l23 -7
l20 -7l20 -9l19 -10l17 -11l17 -12l16 -13l15 -13l7 -24l-11 -21l-24 -8l-21 12zM632 76l-13 2l-13 4l-12 7l-11 9l-9 11l-7 12l-4 13l-2 13l-1 14v796l65 -11l16 -11l-16 -10v-771l1 -4l2 -5l2 -2l5 -2l4 -1l7 -1h275l32 135h11l-11 -135l19 -13l13 -19l-13 -19l-19 -13
h-307z" />
  </g>

</svg>
