<?xml version="1.0" standalone="no"?>
<!DOCTYPE svg PUBLIC "-//W3C//DTD SVG 1.1//EN" "http://www.w3.org/Graphics/SVG/1.1/DTD/svg11.dtd" >
<svg xmlns="http://www.w3.org/2000/svg" xmlns:xlink="http://www.w3.org/1999/xlink" version="1.1" viewBox="0 -144 1024 1024">
  <g transform="matrix(1 0 0 -1 0 880)">
   <path fill="currentColor"
d="M373 481l-17 25l-10 12l-23 25l-13 12l-26 22v-502l-64 -32v517l-16 -39l-20 -47l-23 -46l-24 -45l-26 -43l-29 -40l-32 -40l-8 6l44 88l38 91l18 46l16 47l27 98l10 50l6 34h-155v21h174v242l64 -10l16 -11l-16 -10v-211h39l54 54l65 -54v-21h-158v-126l24 -7l18 -7
l35 -16l16 -11l15 -10l15 -12l13 -13l13 -14l5 -23l-13 -21l-24 -5l-21 13zM964 887v-22h-209l39 -24l10 -16l-19 -2l-21 -40l-33 -57l-35 -55l-2 -3l10 -2l16 -11l-16 -9v-571l-65 -32v549l-19 -25l-42 -49l-44 -47l-46 -45l-49 -42l-52 -38l-6 7l86 94l41 48l39 49l37 50
l34 52l33 54l30 54l28 57l25 54h-324v22h436l54 53zM901 373l-29 43l-16 22l-39 43l-96 92l6 8l32 -15l30 -17l28 -18l27 -19l48 -40l21 -21l20 -21l18 -22l16 -23l4 -24l-14 -20l-25 -3l-20 14z" />
  </g>

</svg>
