<?xml version="1.0" standalone="no"?>
<!DOCTYPE svg PUBLIC "-//W3C//DTD SVG 1.1//EN" "http://www.w3.org/Graphics/SVG/1.1/DTD/svg11.dtd" >
<svg xmlns="http://www.w3.org/2000/svg" xmlns:xlink="http://www.w3.org/1999/xlink" version="1.1" viewBox="0 -144 1024 1024">
  <g transform="matrix(1 0 0 -1 0 880)">
   <path fill="currentColor"
d="M327 478l-14 24l-7 12l-10 12l-9 12l-27 29v-493l-65 -32v486l-21 -58l-20 -46l-21 -44l-23 -43l-25 -40l-28 -39l-8 5l52 131l30 91l13 47l12 48l10 48l9 50l5 35h-128v21h143v240l65 -11l16 -11l-16 -9v-209h12l53 54l65 -54v-21h-130v-127l17 -6l16 -7l16 -7l15 -9
l14 -10l13 -11l13 -12l12 -12l11 -14l4 -24l-14 -20l-25 -3l-20 14zM786 290h54h6l5 1l5 2l2 2l2 5l1 5v6v490h-107v-710l-65 -32v795l65 -32h107l33 27l59 -48l-27 -22v-468l-1 -13l-2 -13l-5 -13l-7 -13l-8 -11l-11 -8l-12 -7l-13 -4l-14 -3l-13 -1v33l-54 16v16zM591 332
l-4 26l-23 -15l-80 -43l-81 -38l-32 -13l-6 -21l-15 12l-32 57l92 28v519l56 -10l136 120l4 4l39 -51l2 -20l-20 8l-41 -26l-60 -33l-41 -19l-7 -2l-4 -3v-467l49 16l59 17l-2 13l-7 30l-9 31l-22 64l-26 68l8 5l23 -30l20 -30l34 -62l15 -31l12 -31l11 -30l8 -31l8 -31
l5 -31l-7 -23l-22 -12l-23 7l-12 22l-2 28z" />
  </g>

</svg>
