<?xml version="1.0" standalone="no"?>
<!DOCTYPE svg PUBLIC "-//W3C//DTD SVG 1.1//EN" "http://www.w3.org/Graphics/SVG/1.1/DTD/svg11.dtd" >
<svg xmlns="http://www.w3.org/2000/svg" xmlns:xlink="http://www.w3.org/1999/xlink" version="1.1" viewBox="0 -144 1024 1024">
  <g transform="matrix(1 0 0 -1 0 880)">
   <path fill="currentColor"
d="M351 494l-8 13l-9 12l-22 24l-25 24l-10 9v-501l-65 -32v510l-11 -31l-20 -48l-22 -46l-23 -45l-25 -43l-28 -40l-31 -39l-8 5l60 133l18 45l31 94l14 48l12 49l10 51l6 34h-146v21h163v242l65 -10l16 -11l-16 -10v-211h30l54 54l64 -54v-21h-148v-127l21 -6l18 -7l17 -8
l32 -19l28 -23l13 -12l12 -14l5 -24l-13 -20l-24 -5l-21 13l-7 13zM712 983l16 -10l-16 -10v-82h136l54 54l64 -54v-21h-254v-108h137l32 27l59 -48l-27 -22v-295l-64 -33v65h-137v-167h156l54 54l65 -54v-21h-275v-178l-65 -32v210h-258v21h258v167h-123v-65l-64 -32v435
l64 -32h123v242zM524 586v-119h325v119h-325zM524 607h325v124h-325v-124z" />
  </g>

</svg>
