<?xml version="1.0" standalone="no"?>
<!DOCTYPE svg PUBLIC "-//W3C//DTD SVG 1.1//EN" "http://www.w3.org/Graphics/SVG/1.1/DTD/svg11.dtd" >
<svg xmlns="http://www.w3.org/2000/svg" xmlns:xlink="http://www.w3.org/1999/xlink" version="1.1" viewBox="0 -144 1024 1024">
  <g transform="matrix(1 0 0 -1 0 880)">
   <path fill="currentColor"
d="M309 483l-13 25l-16 24l-9 12l-26 28v-497l-64 -32v489l-21 -57l-19 -46l-43 -88l-26 -41l-27 -39l-8 5l51 132l29 92l25 95l10 49l8 51l5 35h-124v21h140v242l64 -10l16 -11l-16 -10v-211h29l44 49l54 -49v-21h-127v-129l16 -5l17 -7l15 -8l15 -9l14 -10l25 -23l12 -12
l11 -14l3 -24l-14 -20l-25 -3l-19 15zM714 112h107l7 1l4 1l4 1l2 1l1 1v1l1 1l2 4v5l1 6v554h-197v21h197v280l64 -11l16 -11l-16 -9v-249h25l25 32l32 -32v-21h-82v-554v-13l-3 -14l-4 -13l-7 -12l-9 -11l-11 -9l-12 -7l-12 -4l-14 -2l-14 -1v32l-107 16v16zM471 122h81
l6 1l2 1l4 2v1l1 2l1 3l1 5v7v159l-28 -37l-34 -42l-36 -40l-37 -38l-38 -34l-41 -31l-6 7l64 78l62 83l30 44l41 67l-153 -68l-6 -21l-15 12l-31 58l11 4l16 3l19 4l13 3v503l63 -31l4 9l30 96l4 14l5 20h-1l5 12l57 -32l10 -16l-23 -4l-29 -42l-33 -41l-13 -14l-2 -3h92
l33 27l59 -49l-27 -21v-261l6 12h-1l6 11l54 -35l10 -17l-20 -1l-50 -86l-5 -8v-254l-1 -14l-2 -14l-5 -13l-6 -11l-9 -12l-11 -8l-12 -7l-13 -4l-13 -3h-14v32l-75 16v16zM733 417l-4 20l-7 21l-7 20l-18 40l-22 40l-14 21l7 7l39 -32l17 -17l15 -19l14 -20l13 -20l12 -21
l10 -23l8 -23l8 -23l-5 -24l-20 -14l-25 5l-14 20l-2 21zM463 513v-143l70 14l29 6l5 9v114h-104zM463 667v-133h104v133h-104zM463 804v-116h104v116h-104z" />
  </g>

</svg>
