<?xml version="1.0" standalone="no"?>
<!DOCTYPE svg PUBLIC "-//W3C//DTD SVG 1.1//EN" "http://www.w3.org/Graphics/SVG/1.1/DTD/svg11.dtd" >
<svg xmlns="http://www.w3.org/2000/svg" xmlns:xlink="http://www.w3.org/1999/xlink" version="1.1" viewBox="0 -144 1024 1024">
  <g transform="matrix(1 0 0 -1 0 880)">
   <path fill="currentColor"
d="M287 496l-7 13l-14 24l-18 23l-12 14v-495l-64 -32v477l-16 -45l-38 -91l-22 -43l-23 -41l-26 -39l-9 5l47 132l15 45l13 46l11 48l11 47l10 50l8 50l4 36h-114v21h129v242l64 -10l16 -11l-16 -10v-211h20l44 49l53 -49v-21h-117v-129l14 -5l16 -7l14 -8l27 -19l13 -12
l23 -24l10 -13l3 -25l-15 -19l-25 -2l-19 15l-5 12zM767 71l-65 6l-55 10l-45 15l-36 19l-28 24l-21 27l-15 30l-4 14l-2 -1l-25 -38l-35 -46l-31 -37l3 -23l-19 5l-51 41l8 7l105 76v273h-94v21h94l33 27l59 -48l-27 -22v-226l-3 -1l29 -32l22 -18l24 -14l31 -11l39 -8
l49 -5l62 -1l76 2l150 9l-55 -74l-94 -3zM888 660l2 5h1l2 3l50 -41l7 -18l-22 2l-36 -35l-29 -25l-34 -25l-18 -11l-11 -8l5 -16l30 -21l21 -16l37 -36l33 -38l28 -40l13 -22l1 -24l-16 -19h-25l-18 16l-8 20l-9 20l-22 40l-12 20l-42 60l6 -29l4 -48v-50l-4 -53l-9 -54
l-4 -13l-6 -13l-7 -11l-8 -11l-9 -9l-12 -8l-12 -6l-13 -3l-13 -3l-14 -1v33l-107 16v16h107h7l6 1l4 2l4 1l5 4l2 4l2 3l2 6l14 56l7 47l4 45v29l-20 -27l-25 -30l-26 -28l-58 -53l-32 -24l-33 -21l-35 -19l-6 8l81 82l48 57l42 60l20 31l17 33l14 30l-10 33l-28 -32
l-43 -42l-25 -21l-53 -38l-29 -18l-32 -16l-5 8l70 71l41 45l35 45l15 22l13 22l11 19l-20 33l-32 -25l-28 -19l-29 -17l-31 -17l-33 -15l-5 8l77 69l43 44l38 44l16 22l10 15h-111v22h163l44 48l53 -48v-22h-74l-21 -29l-19 -22l-43 -43l-8 -7l22 -20l27 -33l7 -11l10 -7
l-3 -5l9 -14l14 -31l51 73l20 30l17 29zM432 649l-14 26l-15 25l-26 36l-11 10l5 8l14 -7l14 -6l15 -8l13 -8l13 -10l13 -10l25 -24l11 -13l11 -15l3 -24l-15 -20l-24 -2l-20 15zM681 876l11 -16l-21 -4l-12 -22l-28 -41l-33 -41l-19 -22l-43 -41l-24 -20l-8 6l48 76l37 68
l10 21l16 40l4 13l-1 1l5 12zM900 744l-31 39l-13 20l-11 20l-10 20l-7 20l-6 20l-2 21l-1 15h-167v21h97l44 49l53 -49v-21h-15l6 -10l22 -30l24 -30l30 -28l33 -28l18 -13l12 -11l-58 -44zM471 826l-17 39l-14 26l-16 25l-9 12l-11 11l6 8l13 -8l15 -7l14 -8l26 -20
l12 -11l23 -25l11 -14l10 -14l1 -24l-16 -19l-25 -1l-19 16z" />
  </g>

</svg>
