<?xml version="1.0" standalone="no"?>
<!DOCTYPE svg PUBLIC "-//W3C//DTD SVG 1.1//EN" "http://www.w3.org/Graphics/SVG/1.1/DTD/svg11.dtd" >
<svg xmlns="http://www.w3.org/2000/svg" xmlns:xlink="http://www.w3.org/1999/xlink" version="1.1" viewBox="0 -144 1024 1024">
  <g transform="matrix(1 0 0 -1 0 880)">
   <path fill="currentColor"
d="M754 651l-4 -77l-6 -48l7 -41l13 -54l14 -50l18 -46l21 -44l25 -39l26 -36l31 -33l34 -30l38 -28l18 -12l-59 -45l-41 34l-36 37l-31 41l-28 43l-22 47l-18 49l-13 52l-9 55l-1 16l-8 -42l-22 -76l-29 -67l-34 -61l-41 -51l-47 -43l-52 -34l-58 -24l-3 9l50 33l44 38
l39 44l33 50l28 57l22 65l18 71l11 80l7 86l1 95v12l64 -12l17 -11zM177 462h195l32 27l59 -49l-27 -21v-301l-64 -32v32h-195v-38l-64 -32v446zM177 285v-146h195v146h-195zM177 440v-134h195v134h-195zM895 741l3 5l1 -1l28 23l59 -48l-27 -16l-17 -7l-41 -54l-45 -53
l-36 -39l-9 6l13 23l49 104l15 36h-248l-23 -38l-23 -35l-26 -33l-28 -31l-8 6l54 109l30 76l13 38l11 39l11 40l8 41l7 42l2 10l62 -23l14 -13l-19 -7l-6 -23l-12 -42l-15 -42l-16 -39l-18 -40l-7 -14h244zM359 796l5 13l58 -29l12 -15l-21 -5l-56 -118l-36 -67h75l54 54
l64 -54v-22h-473v22h267l17 79l32 130zM180 639l-5 41l-3 19l-8 35l-4 18l-5 16l-4 16l-7 15l8 6l24 -25l11 -15l11 -16l10 -17l17 -38l7 -21l7 -22l7 -22l-6 -24l-20 -14l-25 6l-13 21zM475 849v-22h-402v22h284l54 54zM415 940v-21h-298v21h180l54 54z" />
  </g>

</svg>
