<?xml version="1.0" standalone="no"?>
<!DOCTYPE svg PUBLIC "-//W3C//DTD SVG 1.1//EN" "http://www.w3.org/Graphics/SVG/1.1/DTD/svg11.dtd" >
<svg xmlns="http://www.w3.org/2000/svg" xmlns:xlink="http://www.w3.org/1999/xlink" version="1.1" viewBox="0 -144 1024 1024">
  <g transform="matrix(1 0 0 -1 0 880)">
   <path fill="currentColor"
d="M571 111h108l6 1l5 1l5 2l2 2l2 5l1 4v7v203h-388l-2 -36l-7 -42l-12 -39l-17 -35l-22 -32l-25 -27l-31 -24l-33 -19l-39 -15l-41 -10l-3 9l36 20l32 21l26 22l23 24l18 26l14 28l10 30l7 32l3 35v32h-189v22h189v233l64 -32h65l7 7l23 37l14 24l12 25l7 21h-1l6 10
l54 -36l9 -17l-24 -1l-16 -19l-23 -21l-12 -10l-13 -8l-14 -9l-7 -3h300l32 27l60 -49l-27 -21v-158h91l54 53l64 -53v-22h-209v-203l-1 -14l-3 -13l-4 -13l-7 -12l-8 -11l-11 -9l-13 -7l-12 -4l-14 -2l-13 -1v32l-108 16v16zM528 300l16 -11l-16 -10v-131l-64 -32v194z
M313 537v-179h387v179h-387zM492 414l-2 8l-4 9l-6 9l-8 11l-10 11l-24 25l-15 11l5 9l17 -9l34 -14l14 -6l14 -9l11 -8l11 -8l10 -10l8 -11l7 -11l-3 -25l-19 -15l-24 3l-15 19v5zM39 707h193v216l65 -11l16 -10l-16 -10v-185h183v281l64 -11l16 -10l-16 -10v-98h248l53 54
l65 -54v-21h-366v-131h323l54 53l64 -53v-22h-946v22z" />
  </g>

</svg>
