<?xml version="1.0" standalone="no"?>
<!DOCTYPE svg PUBLIC "-//W3C//DTD SVG 1.1//EN" "http://www.w3.org/Graphics/SVG/1.1/DTD/svg11.dtd" >
<svg xmlns="http://www.w3.org/2000/svg" xmlns:xlink="http://www.w3.org/1999/xlink" version="1.1" viewBox="0 -144 1024 1024">
  <g transform="matrix(1 0 0 -1 0 880)">
   <path fill="currentColor"
d="M193 413l-4 14l-5 13l-7 14l-8 13l-9 12l-23 25l-1 1l-31 -50l-30 -40l-33 -36l-8 5l24 42l43 88l19 47l17 49l15 51l13 54l12 56l9 59l5 46h-153v21h270l54 54l65 -54v-21h-171l-10 -57l-13 -60l-16 -58l-4 -13h113l32 27l59 -49l-26 -16l-5 -2l-9 -66l-18 -86l-23 -80
l-28 -74l-33 -68l-37 -60l-42 -55l-47 -48l-52 -40l-56 -32l-5 8l49 40l44 45l39 49l35 54l32 60l26 65l23 71l18 78l14 82l8 75h-118l-6 -20l-21 -52l-22 -49l-14 -27l19 -8l17 -8l15 -11l14 -11l14 -13l12 -15l10 -16l9 -17l8 -19l-3 -24l-19 -15l-24 3l-16 19l-2 15z
M969 263h11l-11 -134l20 -13l13 -20l-13 -19l-20 -13h-246l-13 1l-14 2l-13 5l-12 7l-11 8l-9 11l-6 12l-5 13l-2 14l-1 13v113h-90v-65l-65 -32v383l-23 -21l-46 -34l-50 -30l-6 8l43 37l39 40l36 42l34 44l30 47l27 49l24 52l2 7h-212v21h220l10 28l18 58l14 62l2 9
l61 -24l13 -14l-19 -6l-12 -44l-22 -61l-4 -8h190l54 54l64 -54v-21h-255l71 -80l50 -52l55 -48l59 -44l50 -34l-60 -45l-31 25l-26 23l-25 -19v-285l-64 -33v65h-91v-113v-6l1 -5l2 -5l2 -2l5 -2l5 -1h6h214zM547 397v-112h90v112h-90zM702 397v-112h91v112h-91zM547 537
v-118h90v118h-90zM702 537v-118h91v118h-91zM652 790l-13 -29l-29 -54l-32 -50l-36 -47l-31 -33l36 -18h90v129l65 -11l16 -11l-16 -9v-98h91l32 27l31 -26l-33 35l-25 29l-45 62l-19 33l-17 34l-14 35l3 2h-54z" />
  </g>

</svg>
