<?xml version="1.0" standalone="no"?>
<!DOCTYPE svg PUBLIC "-//W3C//DTD SVG 1.1//EN" "http://www.w3.org/Graphics/SVG/1.1/DTD/svg11.dtd" >
<svg xmlns="http://www.w3.org/2000/svg" xmlns:xlink="http://www.w3.org/1999/xlink" version="1.1" viewBox="0 -144 1024 1024">
  <g transform="matrix(1 0 0 -1 0 880)">
   <path fill="currentColor"
d="M823 963l3 -179l4 -80h56l44 48l54 -48v-22h-152l3 -66l15 -140l13 -88l17 72l13 72l2 11l61 -22l14 -13l-19 -8l-12 -54l-18 -68l-22 -63l-14 -32l24 -78l21 -46l5 -8l23 101h11l-10 -133l1 -1h-1l22 -10l9 -22l-9 -23l-23 -10l-34 12l-27 25l-24 39l-24 54l-6 16
l-25 -39l-32 -39l-34 -33l-37 -26l-40 -18l-4 8l32 27l29 30l27 34l25 39l23 45l16 38l-19 86l-18 117l-15 143l-4 71h-117v-98h40l34 38l43 -38v-21h-117v-100h40l34 38l43 -38v-22h-117v-110h40l34 37l43 -37v-22h-117v-80l74 21l44 10l3 -9l-121 -59l-261 -111l-4 -19
l-16 11l-32 57l136 44v131h-113v22h113v114h-113v22h113v100h-113v21h113v98h-121l20 -16l-27 -16l-4 -1l-8 -66l-16 -86l-20 -80l-23 -74l-29 -67l-32 -61l-36 -55l-41 -48l-45 -40l-49 -33l-5 8l41 40l36 44l34 49l30 54l25 60l23 65l4 16l-20 -15l-24 5l-14 19l-2 16
l-3 15l-3 14l-4 13l-11 26l-8 12l-17 24l-25 -49l-27 -40l-28 -36l-9 5l38 84l17 45l16 47l14 49l12 51l12 54l9 56l8 59l5 47h-127v21h213l54 54l65 -54v-21h-141l-8 -56l-12 -60l-14 -58l-4 -14h88l33 27l28 -23v12h187v118h-151v22h151v150l64 -11l16 -10l-16 -10v-119
h18l54 53l64 -53v-22h-136v-118h174l-5 78l-3 196v18l65 -13l16 -10zM532 682v-489l58 18v471h-58zM186 666l-22 -71l-20 -49l-14 -30l17 -7l14 -8l14 -11l13 -11l12 -14l10 -14l10 -17l8 -17l7 -18l-5 -24l15 55l15 78l12 83l7 75h-93zM882 841l-3 14l-4 14l-4 13l-11 28
l-13 27l-9 13l7 7l12 -11l14 -9l12 -11l23 -23l19 -27l17 -30l7 -15l-4 -25l-19 -15l-24 3l-16 19l-1 14z" />
  </g>

</svg>
