<?xml version="1.0" standalone="no"?>
<!DOCTYPE svg PUBLIC "-//W3C//DTD SVG 1.1//EN" "http://www.w3.org/Graphics/SVG/1.1/DTD/svg11.dtd" >
<svg xmlns="http://www.w3.org/2000/svg" xmlns:xlink="http://www.w3.org/1999/xlink" version="1.1" viewBox="0 -144 1024 1024">
  <g transform="matrix(1 0 0 -1 0 880)">
   <path fill="currentColor"
d="M833 100l-39 40l-33 49l-27 59l-21 68l-16 77l-9 69h-154v-293l104 21l41 7l41 6l3 -9l-77 -32l-76 -27l-75 -25l-111 -34l-16 -4l-7 -19l-14 13l-25 61l147 29v768l65 -32h290l32 27l59 -49l-27 -21v-210l-64 -32v65h-81l1 -93l6 -93v-3h85l53 54l65 -54v-21h-200l7 -58
l15 -72l20 -61l22 -51l27 -40l30 -30l33 -20l1 -1l29 123h10l-10 -133l6 -2l20 -14l5 -24l-14 -20l-24 -5l-51 18zM443 204l-14 -19l-19 -13h-237l-14 1l-14 2l-13 4l-12 7l-11 9l-8 10l-7 13l-5 13l-2 13v14v505h-37v21h166v180l65 -11l16 -10l-16 -10v-149h48l53 54
l65 -54v-21h-296v-512l1 -5l1 -3l1 -2l2 -2l2 -1l3 -1h5l7 -1h237l19 -13zM534 672v-189h151l-5 94l-1 95h-145zM534 870v-177h290v177h-290z" />
  </g>

</svg>
