<?xml version="1.0" standalone="no"?>
<!DOCTYPE svg PUBLIC "-//W3C//DTD SVG 1.1//EN" "http://www.w3.org/Graphics/SVG/1.1/DTD/svg11.dtd" >
<svg xmlns="http://www.w3.org/2000/svg" xmlns:xlink="http://www.w3.org/1999/xlink" version="1.1" viewBox="0 -144 1024 1024">
  <g transform="matrix(1 0 0 -1 0 880)">
   <path fill="currentColor"
d="M296 222l-19 -24l-7 -14l-1 -3l2 -3l15 -7l29 -8l44 -5l56 -3h495l32 135h11l-11 -135l19 -12l13 -20l-13 -19l-19 -13h-527l-61 2l-51 7l-40 10l-33 19l-22 32l-1 38l16 34l27 34l37 34l48 37l298 215h-427v22h473v5l32 27l59 -48l-27 -16l-38 -16l-332 -241l-45 -34z
M369 953l12 -15l-20 -5l-8 -23l-19 -42l-17 -30h480l54 54l64 -54v-21h-610l-46 -68l-31 -38l-34 -36l-37 -34l-40 -33l-43 -31l-6 7l69 77l59 76l25 38l23 39l20 39l17 39l14 39l11 36l4 13zM835 704v-22h-565v22h467l44 48z" />
  </g>

</svg>
