<?xml version="1.0" standalone="no"?>
<!DOCTYPE svg PUBLIC "-//W3C//DTD SVG 1.1//EN" "http://www.w3.org/Graphics/SVG/1.1/DTD/svg11.dtd" >
<svg xmlns="http://www.w3.org/2000/svg" xmlns:xlink="http://www.w3.org/1999/xlink" version="1.1" viewBox="0 -144 1024 1024">
  <g transform="matrix(1 0 0 -1 0 880)">
   <path fill="currentColor"
d="M351 118h107h7l5 1l4 2l3 2l1 5l1 5l1 6v608h-420v21h420v215l64 -10l16 -11l-16 -10v-184h301l54 54l65 -54v-21h-420v-163l87 -110l23 -27l93 78l112 83l14 10l5 3l12 -21l28 -29l1 -19l-19 8l-190 -101l-46 -23l54 -61l42 -43l42 -38l41 -34l41 -29l40 -24l68 -34
l-61 -49l-42 26l-42 30l-41 35l-41 39l-41 43l-40 48l-39 53l-39 57l-38 62l-24 44v-422l-1 -13l-2 -14l-4 -12l-7 -13l-9 -11l-11 -8l-12 -7l-13 -4l-13 -3l-14 -1v33l-107 16v16zM426 586l-27 -17l-8 -3l-14 -48l-24 -66l-27 -61l-31 -55l-33 -50l-37 -46l-40 -39l-43 -34
l-47 -27l-49 -21l-4 9l43 29l39 33l36 36l34 40l30 45l28 49l25 54l22 59l19 63l13 50h-260v21h264l32 27zM751 810l-33 45l-12 14l-13 14l-30 28l-33 27l-19 12l4 9l44 -13l21 -9l19 -9l19 -11l19 -12l17 -12l17 -13l16 -15l15 -15l6 -25l-12 -21l-24 -6z" />
  </g>

</svg>
