<?xml version="1.0" standalone="no"?>
<!DOCTYPE svg PUBLIC "-//W3C//DTD SVG 1.1//EN" "http://www.w3.org/Graphics/SVG/1.1/DTD/svg11.dtd" >
<svg xmlns="http://www.w3.org/2000/svg" xmlns:xlink="http://www.w3.org/1999/xlink" version="1.1" viewBox="0 -144 1024 1024">
  <g transform="matrix(1 0 0 -1 0 880)">
   <path fill="currentColor"
d="M832 391l-14 17l-16 18l-21 18l-23 19l-59 40l-42 26v-443l-65 -33v678l65 -11l16 -11l-16 -9v-152l16 -5l39 -14l35 -15l61 -33l49 -34l19 -19l17 -19l13 -21l1 -24l-17 -19h-24l-19 16l-5 14zM191 54l-22 11l-8 23l4 38v34l-3 32l-6 27l-8 25l-11 23l-15 20l-18 18
l-22 17l-25 16l3 9l31 -7l29 -11l26 -17l11 -10l106 204l68 124l41 71l9 -4l-147 -352l-24 -65l-6 -22l-3 -14h-2l4 -8l12 -33l7 -37l4 -40l-1 -43l-11 -22zM164 610l-8 11l-10 10l-12 12l-13 11l-33 22l-19 12l-21 10l3 9l46 -9l21 -6l20 -6l19 -9l17 -8l16 -10l14 -11
l14 -12l12 -14l3 -25l-15 -20l-24 -3l-20 15l-4 10zM978 758v-22h-624v22h505l54 53zM659 845l-9 14l-11 15l-14 15l-16 16l-39 32l-49 35l4 8l30 -10l27 -10l26 -12l23 -12l21 -13l20 -14l17 -14l16 -16l13 -17l12 -17v-25l-16 -18h-25l-18 16l-5 13zM243 857l-8 11l-10 11
l-11 11l-13 11l-15 11l-34 24l-19 9l3 9l22 -5l21 -4l21 -6l18 -7l18 -7l17 -9l16 -10l15 -11l13 -12l12 -14l5 -23l-14 -21l-25 -5l-20 14l-5 11z" />
  </g>

</svg>
