<?xml version="1.0" standalone="no"?>
<!DOCTYPE svg PUBLIC "-//W3C//DTD SVG 1.1//EN" "http://www.w3.org/Graphics/SVG/1.1/DTD/svg11.dtd" >
<svg xmlns="http://www.w3.org/2000/svg" xmlns:xlink="http://www.w3.org/1999/xlink" version="1.1" viewBox="0 -144 1024 1024">
  <g transform="matrix(1 0 0 -1 0 880)">
   <path fill="currentColor"
d="M988 919v-22h-293l-31 -56l-22 -35l-24 -33l-13 -15l-15 -17h249l33 27l59 -48l-27 -22v-586l-65 -32v65h-364v-65l-65 -32v726l65 -33h98l5 11l39 110l11 35h-302v22h544l54 54zM183 54l-22 11l-8 23l4 38v34l-3 32l-5 27l-8 25l-12 23l-14 20l-17 18l-22 17l-25 16l2 9
l32 -7l29 -11l25 -17l11 -9l136 262l76 136l9 -4l-128 -310l-30 -78l-10 -29l-7 -22l-3 -14l-2 1l5 -9l11 -34l7 -36l4 -40v-43l-11 -22zM475 440v-274h364v274h-364zM475 720v-258h364v258h-364zM156 610l-8 11l-10 11l-11 11l-13 11l-15 11l-36 23l-21 10l3 9l23 -5l23 -4
l20 -6l20 -6l19 -9l17 -8l15 -10l15 -12l13 -12l12 -13l3 -25l-15 -20l-24 -3l-20 15l-4 10zM234 857l-8 11l-10 11l-23 22l-30 23l-18 12l-19 9l3 9l22 -5l21 -4l20 -6l18 -7l18 -7l17 -9l15 -10l15 -11l13 -12l12 -14l4 -24l-13 -20l-24 -4l-21 13l-5 11z" />
  </g>

</svg>
