<?xml version="1.0" standalone="no"?>
<!DOCTYPE svg PUBLIC "-//W3C//DTD SVG 1.1//EN" "http://www.w3.org/Graphics/SVG/1.1/DTD/svg11.dtd" >
<svg xmlns="http://www.w3.org/2000/svg" xmlns:xlink="http://www.w3.org/1999/xlink" version="1.1" viewBox="0 -144 1024 1024">
  <g transform="matrix(1 0 0 -1 0 880)">
   <path fill="currentColor"
d="M790 106h83l6 1h3l2 1l2 1v1l1 1l1 3l1 3l1 6l1 7v438h-212v-320h83v250l59 -10l15 -11l-15 -9v-274l-59 -29v61h-232v-64l-59 -30v366l59 -10l15 -11l-15 -9v-220h84v320h-212v-490l-59 -30v571l59 -29h212v109h-77v-38l-64 -32v241h-153v22h153v102l64 -11l16 -11
l-16 -10v-70h210v102l64 -11l17 -11l-17 -10v-70h48l54 54l64 -54v-22h-166v-193l-64 -32v54h-68v-109h212l30 27l56 -49l-27 -18v-420l-1 -13l-2 -12l-3 -12l-6 -12l-7 -10l-10 -9l-11 -7l-11 -4l-13 -3l-13 -1v29l-83 16v14zM161 54l-22 11l-8 23l3 38v35l-2 31l-4 29
l-7 24l-6 14l-4 1l2 4l-2 4l-11 20l-14 17l-18 17l-21 16l3 9l28 -7l25 -12l23 -17l4 -4l89 198l95 196l9 -4l-121 -351l-20 -64l-5 -22l-3 -15l-4 1l5 -11l10 -33l7 -36l3 -40v-43l-11 -21zM133 612l-6 10l-7 11l-21 22l-26 22l-16 11l-18 10l4 9l20 -6l19 -4l19 -6l17 -7
l17 -8l15 -8l14 -10l13 -12l11 -12l11 -14l1 -24l-15 -19l-25 -2l-19 16l-3 10zM537 870v-150h210v150h-210zM201 859l-7 10l-16 22l-22 22l-28 23l-16 9l3 9l19 -6l18 -4l18 -6l17 -7l15 -7l15 -9l27 -21l12 -13l10 -13l3 -24l-15 -20l-25 -2l-19 15l-4 11z" />
  </g>

</svg>
