<?xml version="1.0" standalone="no"?>
<!DOCTYPE svg PUBLIC "-//W3C//DTD SVG 1.1//EN" "http://www.w3.org/Graphics/SVG/1.1/DTD/svg11.dtd" >
<svg xmlns="http://www.w3.org/2000/svg" xmlns:xlink="http://www.w3.org/1999/xlink" version="1.1" viewBox="0 -144 1024 1024">
  <g transform="matrix(1 0 0 -1 0 880)">
   <path fill="currentColor"
d="M351 111h107l7 1h5l3 2l1 1l1 1h2v2l1 4l1 4l1 7v293l-42 -7l-37 -5l-38 -4l-3 9l135 52l55 23l48 23l20 12l19 11l8 -15l36 -35v-18l-19 8l-17 -7l-24 -9l-26 -9l-57 -16l-27 -6l33 -5l16 -11l-16 -10v-41l19 -28l25 -31l29 -29l22 -19l113 67l65 42l34 24v1v-1l5 3
l16 -25l23 -25l1 -19l-19 8l-54 -27l-78 -32l-28 -10l-59 -18l-2 -1l27 -18l40 -21l43 -19l48 -16l52 -14l105 -21l-63 -59l-60 15l-55 19l-50 22l-47 25l-40 28l-37 31l-31 33l-25 37l-19 37v-192l-1 -14l-2 -13l-4 -13l-7 -12l-9 -11l-11 -9l-12 -7l-13 -4l-13 -2l-14 -1
v32l-107 16v16zM447 315l-26 -16l-11 -4l-3 -9l-18 -31l-23 -27l-29 -26l-33 -22l-38 -21l-42 -19l-47 -16l-53 -14l-57 -11l-3 10l54 21l48 21l43 22l37 22l32 22l26 23l21 24l16 23l10 23l1 5h-227v22h231l32 27zM904 430l-27 20l-32 19l-38 20l-42 20l-23 8l2 10l25 -3
l24 -2l24 -3l22 -4l21 -6l21 -6l19 -6l36 -16l17 -8l13 -21l-6 -24l-21 -13l-24 5zM430 581l1 -20l-19 8l-42 -27l-67 -36l-72 -34l-39 -15l-40 -15l-42 -13l-43 -13l-3 9l148 84l66 41l60 40l53 42h1zM985 937v-21h-221l-36 -28l-12 -8l-25 -15l-13 -7l-13 -7l-10 -4h190
l33 27l59 -48l-27 -22v-253l-65 -32v32h-268l-65 -32v361l65 -33h47l4 4l38 44l15 21h-234v21h420l54 54zM577 644v-71h268v71h-268zM403 760l6 -7h-1h1v-19l-19 9l-40 -25l-63 -32l-68 -29l-36 -14l-37 -13l-39 -12l-40 -10l-3 9l169 94l59 37l78 57zM577 733v-68h268v68
h-268zM577 826v-71h268v71h-268zM367 911l3 -19l-21 7l-27 -19l-52 -29l-60 -27l-32 -13l-35 -12l-37 -11l-39 -10l-3 9l128 73l52 34l45 33l37 34z" />
  </g>

</svg>
