<?xml version="1.0" standalone="no"?>
<!DOCTYPE svg PUBLIC "-//W3C//DTD SVG 1.1//EN" "http://www.w3.org/Graphics/SVG/1.1/DTD/svg11.dtd" >
<svg xmlns="http://www.w3.org/2000/svg" xmlns:xlink="http://www.w3.org/1999/xlink" version="1.1" viewBox="0 -144 1024 1024">
  <g transform="matrix(1 0 0 -1 0 880)">
   <path fill="currentColor"
d="M504 80l-64 -32v335l-38 -42l-24 -24l-27 -22l-7 6l68 113l15 26l13 26v8l3 -1l10 21l12 25l10 26l7 21l5 12l57 -31l11 -16l-21 -3l-18 -34l-15 -26l-3 -4l6 -1l14 -9h137l2 2l3 12l7 22l13 35l5 12l4 12l3 7l-1 1l6 9l52 -38l8 -18h-24l-29 -30l-18 -16l-9 -8l-4 -2
h177l44 48l53 -48v-22h-234v-88h93l44 48l53 -48v-22h-190v-94h93l44 48l53 -48v-21h-190v-89h153l54 54l64 -54v-22h-480v-16zM177 54l-23 11l-7 23l3 38v35l-2 31l-5 28l-8 25l-7 15l-3 1l1 2l-2 4l-13 20l-16 18l-20 17l-23 16l3 9l30 -7l27 -11l25 -17l7 -8l98 201
l102 196l9 -4l-135 -352l-12 -35l-9 -29l-6 -22l-3 -15l-3 1l5 -10l11 -33l7 -36l3 -40v-43l-11 -22zM504 207v-89h145v89h-145zM504 322v-94h145v94h-145zM504 432v-88h145v88h-145zM446 761h128l30 27l56 -48l-27 -19v-133l-59 -30v51h-128v-37l-65 -33v255zM782 982
l17 -11l-17 -10v-64h101l43 49l54 -49v-21h-198v-70l-60 -30l28 -15h129l32 27l59 -48l-27 -22v-130l-64 -33v54h-129l-59 -29v211l27 -14v216zM149 610l-7 11l-9 11l-10 11l-13 11l-29 22l-17 12l-20 10l3 9l21 -5l22 -5l20 -5l19 -7l34 -17l15 -10l13 -11l13 -13l11 -13
l2 -25l-15 -19l-24 -2l-20 15l-4 10zM750 740v-109h129v109h-129zM446 740v-109h128v109h-128zM607 982l16 -11l-16 -10v-155l-65 -32v102h-198v21h198v96zM223 858l-16 22l-22 22l-28 22l-16 12l-18 9l3 9l20 -5l20 -4l19 -6l18 -7l17 -8l31 -19l14 -11l12 -12l11 -13
l4 -24l-14 -20l-25 -4l-19 15l-5 10z" />
  </g>

</svg>
