<?xml version="1.0" standalone="no"?>
<!DOCTYPE svg PUBLIC "-//W3C//DTD SVG 1.1//EN" "http://www.w3.org/Graphics/SVG/1.1/DTD/svg11.dtd" >
<svg xmlns="http://www.w3.org/2000/svg" xmlns:xlink="http://www.w3.org/1999/xlink" version="1.1" viewBox="0 -144 1024 1024">
  <g transform="matrix(1 0 0 -1 0 880)">
   <path fill="currentColor"
d="M645 111h114l5 1l3 1l3 2l1 1l1 1l1 4v4l1 7v157h-418v22h418v99l64 -11l16 -11l-16 -9v-68h30l54 54l64 -54v-22h-148v-157v-14l-3 -13l-4 -13l-7 -12l-9 -11l-11 -9l-11 -7l-13 -4l-14 -2l-14 -1v33l-107 16v16zM303 235l-6 18l-17 39l-23 41l-26 42l-3 -17l-15 -56
l-18 -52l-23 -47l-26 -43l-29 -38l-34 -34l-38 -27l-6 7l29 34l26 37l22 39l20 42l16 46l13 49l9 52l7 57l4 60v483l64 -10l16 -11l-16 -10v-267l72 102l17 25l-1 1l6 7l48 -44l5 -18l-21 3l-25 -25l-87 -77l-14 -10v-85l-4 -67l-7 -64l-3 -21l29 -24l19 -18l18 -19l16 -19
l14 -20l13 -19l12 -19l10 -20l8 -20l-3 -25l-19 -15l-24 3l-16 19l-4 17zM559 148l-9 27l-11 26l-13 25l-7 13l-9 11l6 7l12 -8l14 -8l12 -9l12 -10l12 -11l11 -12l10 -13l19 -28l9 -16l-1 -25l-18 -17l-24 1l-17 18zM464 447l26 7v142h-103v22h160l54 54l65 -54v-22h-111
v-128l61 12l31 5l32 3l3 -9l-29 -14l-57 -25l-181 -69l-5 -20l-16 12l-29 59zM750 618h140l32 27l59 -48l-27 -22v-151l-64 -32v54h-140v-38l-65 -32v275zM750 597v-130h140v130h-140zM60 475l-14 20l3 24l10 15l8 17l8 20l7 21l5 24l5 26l3 28l2 31l2 32l1 35l9 1l9 -34
l7 -33l5 -31l2 -31l1 -29l-2 -28l-3 -26l-6 -25l-8 -23l-10 -22l-19 -15zM926 932l-26 -21v-67h11l34 38l43 -38v-21h-88v-128l-65 -33v43h-392v22h392v96h-463v21h463v88h-385v22h385l32 27z" />
  </g>

</svg>
