<?xml version="1.0" standalone="no"?>
<!DOCTYPE svg PUBLIC "-//W3C//DTD SVG 1.1//EN" "http://www.w3.org/Graphics/SVG/1.1/DTD/svg11.dtd" >
<svg xmlns="http://www.w3.org/2000/svg" xmlns:xlink="http://www.w3.org/1999/xlink" version="1.1" viewBox="0 -144 1024 1024">
  <g transform="matrix(1 0 0 -1 0 880)">
   <path fill="currentColor"
d="M644 154l2 -19l-19 7l-55 -33l-25 -13l-54 -24l-29 -11l-29 -9l-31 -8l-32 -6l-4 9l106 62l48 30l43 32l35 30l4 4zM879 82l-29 26l-36 24l-41 23l-24 11l-25 10l3 10l27 -3l27 -3l25 -6l24 -7l23 -8l22 -9l21 -12l19 -12l18 -13l18 -15l8 -23l-11 -23l-23 -8l-22 11
l-11 14zM31 228l101 31l22 8v281h-91v21h91v253h-107v22h198l54 53l64 -53v-22h-144v-253h31l44 49l53 -49v-21h-128v-260l83 27l75 23l4 -9l-68 -40l-66 -35l-125 -59l-39 -16l-5 -20l-15 11zM363 241h40v425l60 -11l14 -10l-14 -10v-394h58v460l59 -29h233l32 26l59 -48
l-26 -21v-388h9l44 49l54 -49v-21h-622v21zM580 328v-87h233v87h-233zM580 435v-86h233v86h-233zM580 543v-86h233v86h-233zM580 650v-86h233v86h-233zM923 876h10l-10 -92l16 -10l11 -16l-11 -17l-16 -10h-396h-13l-13 2l-13 4l-11 6l-11 8l-9 9l-7 12l-5 12l-2 14l-2 13
v162l65 -11l16 -11l-16 -10v-78l205 54l65 21l58 21l3 -9l49 -42l2 -17l-22 10l-12 -4l-62 -15l-34 -7l-36 -6l-37 -6l-39 -5l-40 -5l-42 -5l-44 -2l-14 -1v-40v-5l1 -4l1 -4l1 -2l2 -1l4 -2l5 -1l7 -2h369z" />
  </g>

</svg>
