<?xml version="1.0" standalone="no"?>
<!DOCTYPE svg PUBLIC "-//W3C//DTD SVG 1.1//EN" "http://www.w3.org/Graphics/SVG/1.1/DTD/svg11.dtd" >
<svg xmlns="http://www.w3.org/2000/svg" xmlns:xlink="http://www.w3.org/1999/xlink" version="1.1" viewBox="0 -144 1024 1024">
  <g transform="matrix(1 0 0 -1 0 880)">
   <path fill="currentColor"
d="M475 770l3 5l2 2l48 -44l5 -19l-22 4l-90 -86l-15 -13l-6 -6l25 -91l41 -93l51 -81l39 -43h166v233h-137v21h137v211h-86l-7 -25l-14 -40l-15 -38l-18 -36l-18 -34l-20 -31l-23 -29l-8 6l25 66l12 35l21 74l9 40l8 41l7 43l6 45l4 44l2 13l63 -19l14 -13l-18 -8l-5 -27
l-9 -46l-10 -40h80v201l64 -11l16 -11l-16 -9v-170h54l54 54l64 -54v-21h-172v-211h24l54 54l65 -54v-21h-143v-233h81l54 54l64 -54v-21h-410l5 -5l74 -57l85 -47l99 -35l110 -25l51 -8l-63 -61l-118 29l-105 43l-92 55l-79 67l-65 78l-52 91l-37 101l-23 112l-9 122l5 120
l-18 -29l-22 -30l-26 -30l-27 -30l-26 -25l17 -23l40 -60l18 -36l1 -1l12 -25l24 -63l14 -54l4 -3l-2 -3l10 -67l1 -65l-5 -65l-13 -66l-21 -65l-6 -13l-7 -11l-8 -11l-10 -9l-10 -8l-12 -7l-12 -5l-13 -3l-13 -3l-13 -1v33l-86 16v16h86h7l6 1l10 4l4 2l3 3l4 3l3 5l4 5
l24 65l16 59l9 58l2 59l-1 17l-41 -44l-30 -29l-33 -26l-33 -24l-34 -21l-36 -18l-37 -15l-39 -12l-4 9l65 43l31 23l58 50l27 27l26 29l24 31l44 67l-2 13l-18 60l-3 8l-43 -47l-25 -25l-26 -23l-57 -43l-30 -20l-33 -18l-34 -16l-4 8l79 73l47 49l42 50l38 52l17 26l3 -2
l-26 53l-13 22l-24 -21l-35 -28l-38 -27l-41 -26l-44 -25l-6 8l105 97l31 31l28 30l-1 3l7 4l42 54l20 29l18 30l1 2h-221v22h328l54 54l64 -54v-22h-146l8 -125l17 -113l15 32l19 33z" />
  </g>

</svg>
