<?xml version="1.0" standalone="no"?>
<!DOCTYPE svg PUBLIC "-//W3C//DTD SVG 1.1//EN" "http://www.w3.org/Graphics/SVG/1.1/DTD/svg11.dtd" >
<svg xmlns="http://www.w3.org/2000/svg" xmlns:xlink="http://www.w3.org/1999/xlink" version="1.1" viewBox="0 -144 1024 1024">
  <g transform="matrix(1 0 0 -1 0 880)">
   <path fill="currentColor"
d="M463 448h333l33 27l59 -48l-27 -22v-148l-65 -32v43h-130v-83h205l53 53l65 -53v-22h-323v-99l-65 -32v131h-318v22h318v83h-138v-16l-65 -33v262zM43 403l30 9l16 6l35 14l76 36v64v360l65 -32h269v134l64 -11l16 -10l-16 -10v-103h258l54 53l64 -53v-22h-709v-306
l-4 -67l-7 -64l-11 -60l-15 -55l-19 -51l-22 -47l-27 -42l-30 -37l-34 -33l-38 -26l-6 8l29 33l26 35l23 39l20 41l16 45l14 49l9 52l7 56l2 34l-35 -32l-33 -27l-32 -22l-11 -6l-5 -23l-16 11l-34 55zM463 352v-63h333v63h-333zM463 427v-54h333v54h-333zM503 552l-2 10
l-4 10l-4 9l-5 10l-6 10l-6 10l-8 10l-9 7l5 9l11 -6l13 -4l12 -6l12 -6l11 -8l11 -10l9 -9l9 -12l8 -11l8 -13l-2 -25l-8 -7h129l5 8l48 87l8 12l6 12l4 6h-423v22h504l44 48l54 -48v-22h-164l38 -34l6 -19l-23 3l-14 -13l-12 -9l-37 -33l-26 -20h173l44 48l53 -48v-22
h-688v22h230l-10 11l-1 10zM105 645l-4 16l-5 16l-5 16l-13 29l-8 14l-9 14l-10 11l6 8l29 -18l15 -11l13 -12l13 -14l11 -16l10 -16l10 -18l8 -19l8 -20l-4 -24l-20 -15l-25 4l-14 20l-3 18zM833 738v-22h-403v22h305l44 48z" />
  </g>

</svg>
