<?xml version="1.0" standalone="no"?>
<!DOCTYPE svg PUBLIC "-//W3C//DTD SVG 1.1//EN" "http://www.w3.org/Graphics/SVG/1.1/DTD/svg11.dtd" >
<svg xmlns="http://www.w3.org/2000/svg" xmlns:xlink="http://www.w3.org/1999/xlink" version="1.1" viewBox="0 -144 1024 1024">
  <g transform="matrix(1 0 0 -1 0 880)">
   <path fill="currentColor"
d="M40 106h144v301l64 -32h527l33 27l59 -49l-27 -21v-226h25l54 54l64 -54v-21h-943v21zM248 353v-247h133v247h-133zM445 353v-247h133v247h-133zM643 353v-247h132v247h-132zM851 856l2 3h1l29 24l59 -49l-27 -16l-23 -9l-48 -44l-37 -32l-22 -17l-22 -20l-7 7l18 23
l43 63l20 31l7 14h1h-179l-7 -47l17 -57l19 -48l22 -43l25 -38l29 -33l32 -28l36 -24l39 -20l82 -29l-62 -54l-49 23l-45 26l-39 33l-35 37l-29 41l-24 45l-19 50l-13 54l-1 7l-4 -16l-22 -58l-27 -51l-33 -46l-38 -40l-43 -35l-48 -28l-52 -21l-57 -15l-3 10l51 24l47 27
l41 31l35 35l31 39l25 44l21 47l17 53l11 57l6 48h-99l-26 -38l-24 -29l-26 -28l-28 -26l-29 -24l-33 -21l-6 7l69 87l20 29l36 62l15 31l13 33l12 34l10 34l3 8l59 -28l12 -15l-20 -4l-7 -17l-16 -35l-19 -34l-2 -4h335zM207 397l-22 12l-7 23l3 23v21l-2 18l-5 16l-8 15
l-11 13l-15 13l-19 12l-23 11l-28 8l1 9l30 -1l28 -3l25 -7l16 -8l198 293l44 61l8 -4l-190 -365l-13 -26l11 -20l9 -26l5 -28v-31l-12 -22zM137 744l-5 9l-5 9l-18 21l-25 22l-15 12l-17 10l4 10l19 -7l19 -6l18 -6l31 -14l14 -8l13 -9l11 -9l10 -11l9 -12v-24l-17 -19h-25
l-17 18l-2 6zM233 876l-4 8l-6 9l-8 10l-10 10l-12 11l-28 23l-17 10l3 9l20 -7l19 -5l17 -6l31 -13l14 -7l12 -8l11 -9l11 -9l8 -11l1 -25l-16 -18l-25 -1l-18 16v6z" />
  </g>

</svg>
