<?xml version="1.0" standalone="no"?>
<!DOCTYPE svg PUBLIC "-//W3C//DTD SVG 1.1//EN" "http://www.w3.org/Graphics/SVG/1.1/DTD/svg11.dtd" >
<svg xmlns="http://www.w3.org/2000/svg" xmlns:xlink="http://www.w3.org/1999/xlink" version="1.1" viewBox="0 -144 1024 1024">
  <g transform="matrix(1 0 0 -1 0 880)">
   <path fill="currentColor"
d="M528 575v21h175l54 54l65 -54v-21h-128v-102l-4 -66l-2 -10h143l54 54l64 -54v-21h-264l-6 -31l-17 -57l-23 -51l-30 -47l-35 -41l-41 -35l-47 -30l-52 -23l-57 -17l-3 9l51 26l46 29l39 33l34 35l28 40l22 43l17 46l11 52l2 19h-249v21h252l2 15l1 61v102h-102zM863 100
l-30 44l-18 22l-41 43l-75 67l-28 24l4 8l35 -15l32 -16l30 -18l54 -38l47 -41l21 -23l19 -22l17 -24l3 -24l-14 -20l-25 -3l-20 14zM124 879h133l32 27l60 -48l-27 -22v-615l-65 -33v65h-133v-65l-65 -32v755zM124 463v-189h133v189h-133zM677 913l-27 -16l-9 -3l-12 -38
l-21 -57l-24 -54l-25 -52l-28 -49l-30 -47l-32 -44l-34 -40l-36 -37l-39 -33l-7 7l31 39l29 42l27 43l26 44l25 47l23 49l21 52l18 53l18 56l10 38h-142v22h146l32 27zM124 660v-176h133v176h-133zM917 836l6 6l46 -45l5 -19l-22 4l-22 -18l-58 -41l-31 -17l40 -48l30 -33
l33 -31l46 -40l-58 -43l-35 35l-32 36l-30 39l-28 40l-26 42l-22 44l-20 45l-18 47l-14 50l-10 50l10 4l44 -91l14 -27l25 36l26 40l14 25l4 8h-1l6 8l50 -40l7 -18l-23 1l-18 -17l-26 -22l-28 -20l-15 -10l-12 -6l24 -42l26 -38l8 -11l80 107l6 9zM124 858v-176h133v176
h-133zM444 745l-7 13l-7 11l-17 23l-10 11l-23 21l-14 8l4 9l16 -5l16 -4l16 -5l16 -8l15 -8l14 -10l26 -24l12 -13l10 -14l2 -25l-16 -19l-24 -2l-19 16l-5 13z" />
  </g>

</svg>
