<?xml version="1.0" standalone="no"?>
<!DOCTYPE svg PUBLIC "-//W3C//DTD SVG 1.1//EN" "http://www.w3.org/Graphics/SVG/1.1/DTD/svg11.dtd" >
<svg xmlns="http://www.w3.org/2000/svg" xmlns:xlink="http://www.w3.org/1999/xlink" version="1.1" viewBox="0 -144 1024 1024">
  <g transform="matrix(1 0 0 -1 0 880)">
   <path fill="currentColor"
d="M840 397l5 7l1 -1l26 21l59 -48l-27 -16l-18 -8l-27 -38l-44 -51l-48 -46l-39 -31l53 -27l48 -18l51 -15l102 -21l-64 -59l-57 16l-54 20l-51 23l-48 28l-27 20l-20 -13l-59 -30l-62 -25l-65 -20l-68 -14l-72 -7l-1 9l68 18l65 22l61 25l56 28l53 33l6 5l-19 17l-36 39
l-32 43l-28 46l-22 47h-118v21h258v113h-172v-37l-64 -33v447l52 -27l36 22l78 44l4 -10l45 -40l2 -17l-21 9l-7 -2l-14 -4l-14 -2l-15 -3l-46 -9l-33 -4h-3v-140h64l33 37l43 -37v-22h-140v-150h172v457l65 -11l16 -11l-16 -9v-426h156v156h-124v21h124v156h-129v22h129
l32 26l59 -48l-27 -21v-355l-64 -32v53h-156v-113h129zM127 879h139l33 27l59 -48l-27 -22v-615l-65 -33v65h-139v-65l-64 -32v755zM546 341l34 -39l36 -35l38 -32l29 -21l48 43l41 45l38 49l17 25h-307zM127 463v-189h139v189h-139zM127 660v-176h139v176h-139zM127 858
v-176h139v176h-139z" />
  </g>

</svg>
