<?xml version="1.0" standalone="no"?>
<!DOCTYPE svg PUBLIC "-//W3C//DTD SVG 1.1//EN" "http://www.w3.org/Graphics/SVG/1.1/DTD/svg11.dtd" >
<svg xmlns="http://www.w3.org/2000/svg" xmlns:xlink="http://www.w3.org/1999/xlink" version="1.1" viewBox="0 -144 1024 1024">
  <g transform="matrix(1 0 0 -1 0 880)">
   <path fill="currentColor"
d="M651 165l2 -19l-20 7l-29 -19l-25 -14l-27 -13l-28 -13l-30 -12l-65 -20l-35 -7l-36 -6l-3 9l94 47l54 30l25 15l44 32l20 16l13 13l5 4zM868 92l-17 14l-36 27l-43 26l-75 39l3 9l30 -4l28 -6l27 -7l26 -8l24 -9l46 -22l41 -27l19 -15l9 -22l-8 -23l-23 -10l-23 9z
M412 865v-21h-136l-13 -50l-17 -54l-17 -52l-20 -51l-16 -35h110l33 27l59 -49l-27 -21v-377l-65 -32v65h-102v-65l-64 -32v371l-28 -47l-31 -46l-33 -44l-8 5l47 98l41 99l12 30v2l7 18l33 101l14 52l12 52l7 35h-145v21h229l53 54zM543 666h290l32 27l59 -48l-27 -22v-355
l-64 -32v43h-290v-38l-65 -32v489zM201 580v-344h102v344h-102zM543 408v-107h290v107h-290zM543 532v-102h290v102h-290zM543 645v-92h290v92h-290zM398 768h263v135h-222v21h379l54 54l64 -54v-21h-210v-135h166l44 49l53 -49v-21h-591v21z" />
  </g>

</svg>
