<?xml version="1.0" standalone="no"?>
<!DOCTYPE svg PUBLIC "-//W3C//DTD SVG 1.1//EN" "http://www.w3.org/Graphics/SVG/1.1/DTD/svg11.dtd" >
<svg xmlns="http://www.w3.org/2000/svg" xmlns:xlink="http://www.w3.org/1999/xlink" version="1.1" viewBox="0 -144 1024 1024">
  <g transform="matrix(1 0 0 -1 0 880)">
   <path fill="currentColor"
d="M788 984l6 7l48 -42l7 -19l-22 3l-72 -69l-62 -53h171l44 49l54 -49v-21h-208v-113h89l32 27l59 -49l-27 -21v-81h26l24 33l32 -33v-21h-82v-167l-64 -32v64h-89v-6l55 -80l44 -56l46 -48l48 -42l41 -30l-59 -45l-50 49l-24 28l-42 58l-37 66l-16 35l-6 16v-273l-64 -32
v360h-83v-328l-65 -32v264l-17 -26l-26 -37l-29 -35l-31 -32l-33 -32l-35 -29l-37 -26l-40 -24l-6 8l33 32l60 64l27 33l26 35l24 35l22 37l20 37l18 40l6 16h-118v22h136v113h-169v21h169v102h-126v22h126v113h-158v21h126l68 113l25 48l7 14l3 4l52 -39l8 -18l-23 1
l-34 -38l-64 -64l-24 -21h146l99 148l16 25h-1zM402 865v-21h-135l-13 -50l-16 -53l-17 -53l-20 -51l-15 -35h108l33 27l59 -49l-27 -21v-344l-65 -33v33h-100v-65l-65 -32v370l-27 -46l-30 -46l-33 -44l-9 5l68 147l20 50l11 29v3h1l24 68l16 51l13 52l12 52l7 35h-144v21
h246l44 48zM194 580v-344h100v344h-100zM607 532v-113h83v113h-83zM754 532v-113h89v113h-89zM607 655v-102h83v102h-83zM754 655v-102h89v102h-89zM607 790v-113h83v113h-83z" />
  </g>

</svg>
