<?xml version="1.0" standalone="no"?>
<!DOCTYPE svg PUBLIC "-//W3C//DTD SVG 1.1//EN" "http://www.w3.org/Graphics/SVG/1.1/DTD/svg11.dtd" >
<svg xmlns="http://www.w3.org/2000/svg" xmlns:xlink="http://www.w3.org/1999/xlink" version="1.1" viewBox="0 -144 1024 1024">
  <g transform="matrix(1 0 0 -1 0 880)">
   <path fill="currentColor"
d="M414 92l-8 23l9 22l9 7l10 10l9 13l8 15l8 19l7 22l6 23l6 27l5 30l4 32h10l7 -63l1 -29l-1 -27l-3 -26l-4 -23l-6 -22l-9 -20l-10 -18l-13 -17l-23 -8zM923 90l-8 -10l-9 -10l-11 -8l-11 -7l-12 -5l-13 -4l-13 -2l-14 -1v32l-107 17v16h107h7l12 2l4 2l4 3l3 2l3 4l3 4
l4 6l2 6l5 15l4 19l5 22l3 26l3 29l3 32l2 36l2 81l1 35h-339l-25 -35l-26 -31l-27 -30l-29 -27l-31 -26l-32 -23l-34 -21l-6 7v-64l-59 -29v62h-107v-65l-64 -32v372l-29 -49l-31 -45l-34 -44l-8 5l70 148l32 78v3h1l24 68l16 51l14 52l12 52l7 35h-147v21h232l54 54
l65 -54v-21h-138l-13 -50l-35 -106l-20 -51l-16 -35h115l30 27l56 -49l-27 -19v-314l53 57l25 29l45 61l20 31l37 67l16 36l15 39h-90v-64l-59 -30v437l49 -25l117 66l34 21l15 10l8 -16l35 -34l1 -18l-20 8l-51 -19l-42 -13l-44 -12l-23 -5l-20 -3v-125h82l44 49l54 -49
v-21h-180v-135h380v135h-156v21h156v136h-152v21h152l32 27l59 -48l-27 -22v-313l-64 -32v53h-281l50 -28l10 -16l-20 -3l-29 -55l-7 -11h325l32 27l59 -49l-27 -16v-19l-2 -84l-3 -37l-2 -34l-3 -31l-5 -28l-5 -25l-5 -23l-6 -20l-6 -13zM585 124l-21 14l-6 23l4 13l3 15
l2 15l1 16l1 17l-1 18l-1 20l-1 20l-2 22l-5 22l9 4l10 -21l10 -20l9 -20l7 -20l6 -18l5 -20l3 -18l3 -19l1 -18v-18l-13 -20zM677 224l-2 16l-3 16l-3 16l-4 16l-4 15l-11 32l-7 15l7 5l25 -24l12 -14l10 -14l10 -15l9 -17l8 -17l7 -17l6 -19l6 -20l-7 -23l-21 -13l-23 7
l-13 21l-1 17zM787 266l-4 14l-4 13l-12 26l-15 27l-8 13l-12 12l6 8l15 -10l15 -8l14 -9l13 -11l12 -12l22 -26l9 -15l8 -15l8 -16l-3 -25l-20 -15l-24 3l-15 19l-3 14zM187 580v-344h107v344h-107z" />
  </g>

</svg>
