<?xml version="1.0" standalone="no"?>
<!DOCTYPE svg PUBLIC "-//W3C//DTD SVG 1.1//EN" "http://www.w3.org/Graphics/SVG/1.1/DTD/svg11.dtd" >
<svg xmlns="http://www.w3.org/2000/svg" xmlns:xlink="http://www.w3.org/1999/xlink" version="1.1" viewBox="0 -144 1024 1024">
  <g transform="matrix(1 0 0 -1 0 880)">
   <path fill="currentColor"
d="M727 421l16 -11l-16 -10v-56h96l53 53l65 -53v-22h-214v-126h134l54 54l65 -54v-21h-253v-115l-64 -32v147h-178l-5 -12l-72 -4l64 148l55 -35l10 -17l-19 -3l-24 -56h169v126h-197v22h197v87zM394 706v-22h-166v-616l-54 -27v643h-145v22h246l54 54zM125 587l15 -11
l-15 -9v-155l-2 -44l-3 -42l-6 -38l-6 -35l-9 -32l-10 -29l-11 -25l-14 -21l-15 -17l-17 -13l-7 7l9 17l7 19l7 21l6 23l5 27l4 30l2 33l2 37v39l-1 43v185zM343 587l15 -11l-15 -10v-345l-59 -29v405zM571 627h237l32 27l59 -48l-27 -22v-141l-64 -33v54h-237v-38l-65 -32
v266zM571 606v-120h237v120h-237zM410 726h164l19 131h-139v22h142l17 119l62 -20l15 -13l-17 -6l-12 -80h125l32 26l59 -48l-27 -21v-110h21l44 48l54 -48v-22h-559v22zM658 857l-19 -131h147v131h-128zM347 901v-21h-276v21h158l54 54z" />
  </g>

</svg>
