<?xml version="1.0" standalone="no"?>
<!DOCTYPE svg PUBLIC "-//W3C//DTD SVG 1.1//EN" "http://www.w3.org/Graphics/SVG/1.1/DTD/svg11.dtd" >
<svg xmlns="http://www.w3.org/2000/svg" xmlns:xlink="http://www.w3.org/1999/xlink" version="1.1" viewBox="0 -144 1024 1024">
  <g transform="matrix(1 0 0 -1 0 880)">
   <path fill="currentColor"
d="M700 123h108l6 1l5 1l5 1l2 3l2 4l1 5v7v209h-285v-108l23 2l47 4l47 3l29 1l-5 10l-10 15l-22 29l-13 14l-13 13l5 8l36 -17l33 -21l16 -14l14 -14l14 -15l13 -17l13 -18l11 -19v-24l-16 -18l-25 -1l-18 17l-6 18l-15 33l-5 9l-79 -20l-91 -20l-130 -25l-101 -19l-9 -18
l-13 15l-19 62l92 9l42 4l43 4l44 4l4 1v113h-285v-268l-65 -33v355l65 -32h285v70h-226l-65 -32v258l65 -11l16 -11l-16 -10v-155l142 54l68 28l-184 56l1 10l53 -5l50 -6l47 -8l46 -9l42 -9l6 -2l98 50l42 23l25 15h-474v22h264v123l64 -10l16 -11l-16 -10v-92h145l54 54
l-51 30l-42 29l-40 31l-39 34l-36 36l-11 13l-20 -21l-43 -38l-44 -36l-47 -33l-50 -31l-52 -28l-54 -26l-57 -22l-60 -20l-62 -16l-3 9l113 53l53 28l50 30l48 31l45 33l42 34l40 37l37 38l36 42l47 -44l4 -14l85 -57l42 -26l43 -23l89 -40l46 -17l47 -16l90 -26l-63 -56
l-50 19l-48 20l-47 22l-38 20l65 -53v-22h-96l5 -8l32 -33v-17l-19 8l-36 -19l-91 -41l29 -10l33 -12l30 -14l16 -19l-2 -25l-20 -15l-24 2l-26 15l-30 15l-66 29l-14 6l-71 -24l-51 -15l-51 -12l-53 -11l-49 -8v-7h516v205l65 -11l16 -11l-16 -10v-194l-65 -32v32h-226v-70
h285l32 27l60 -49l-27 -21v-188l-1 -14l-3 -13l-4 -13l-7 -12l-8 -11l-11 -9l-13 -7l-12 -4l-14 -2l-13 -1v32l-108 16v16z" />
  </g>

</svg>
