<?xml version="1.0" standalone="no"?>
<!DOCTYPE svg PUBLIC "-//W3C//DTD SVG 1.1//EN" "http://www.w3.org/Graphics/SVG/1.1/DTD/svg11.dtd" >
<svg xmlns="http://www.w3.org/2000/svg" xmlns:xlink="http://www.w3.org/1999/xlink" version="1.1" viewBox="0 -144 1024 1024">
  <g transform="matrix(1 0 0 -1 0 880)">
   <path fill="currentColor"
d="M339 430l-8 12l-19 25l-36 36l-9 8v-436l-65 -32v428l-29 -73l-22 -43l-23 -42l-25 -40l-27 -37l-30 -35l-8 6l40 81l19 41l33 87l15 45l13 47l12 47l10 50l5 34h-143v22h160v180l-61 -14l-43 -8l-45 -7l-3 10l120 47l66 28l56 26l43 25l17 12l13 -21l29 -30v-18l-19 8
l-35 -15l-56 -20l-17 -6v-197h27l54 54l65 -54v-22h-146v-110l21 -7l17 -7l17 -8l16 -9l15 -10l15 -10l26 -25l13 -13l4 -24l-14 -21l-24 -5l-20 14l-7 13zM730 115h75h7l5 1l5 2l1 1v1l1 2l1 3l1 5v103h-280v-154l-64 -32v494l64 -32h280l33 27l59 -49l-27 -21v-330l-1 -13
l-2 -14l-4 -13l-7 -12l-9 -11l-10 -9l-13 -6l-13 -5l-13 -2l-14 -1v32l-75 16v17zM546 360v-105h280v105h-280zM546 487v-105h280v105h-280zM796 557l-60 9l-54 14l-47 18l-39 25l-32 29l-23 34l-5 14l-14 -29l-18 -29l-19 -28l-21 -26l-25 -24l-26 -22l-7 7l34 56l16 28
l12 28l12 29l9 29l7 29l6 31l4 31l1 27l1 17l64 -17l15 -12l-18 -9l-3 -14l-7 -35l-10 -33l-1 -2l19 -29l24 -23l29 -20l34 -15v275h-213v21h442l6 5l4 7l2 -2l21 17l59 -48l-27 -16l-49 -20l-27 -18l-25 -15l-10 -10l-7 7l9 12l6 13l27 44l1 3h-154v-145h90l44 49l54 -49
v-21h-188v-125l26 -5l56 -4h63l129 7l-56 -74l-74 -1z" />
  </g>

</svg>
