<?xml version="1.0" standalone="no"?>
<!DOCTYPE svg PUBLIC "-//W3C//DTD SVG 1.1//EN" "http://www.w3.org/Graphics/SVG/1.1/DTD/svg11.dtd" >
<svg xmlns="http://www.w3.org/2000/svg" xmlns:xlink="http://www.w3.org/1999/xlink" version="1.1" viewBox="0 -144 1024 1024">
  <g transform="matrix(1 0 0 -1 0 880)">
   <path fill="currentColor"
d="M859 81l-10 -8l-11 -6l-11 -6l-12 -4l-12 -4l-13 -2l-12 -2l-13 -1v33l-86 16v16h86l8 1l14 2l7 2l7 3l13 6l11 10l6 6l7 9l8 16l7 24l7 29l6 34l6 42l3 46l3 53l2 57l1 53h-164l-4 -58l-11 -67l-17 -62l-24 -57l-30 -51l-37 -45l-42 -40l-49 -33l-53 -27l-59 -20l-4 9
l53 30l47 32l41 35l35 40l29 44l23 47l18 52l12 57l7 62l1 52h-176v22h176v169l65 -11l16 -11l-16 -9v-138h163l32 26l59 -48l-27 -16v-38l-2 -59l-3 -54l-4 -49l-6 -44l-6 -38l-9 -34l-9 -29l-12 -26l-16 -21l-9 -9zM172 683h171l32 27l60 -49l-27 -21v-509l-1 -14l-3 -13
l-4 -13l-6 -12l-9 -11l-11 -9l-13 -7l-12 -4l-14 -2l-13 -1v32l-97 16v16h97l6 1l5 1l5 1l2 3l1 1l1 3l1 5v7v197h-171v-12l-2 -42l-5 -38l-7 -36l-9 -33l-11 -29l-14 -27l-15 -22l-18 -19l-20 -14l-22 -10l-5 9l13 17l12 17l10 19l9 21l7 24l6 27l4 29l3 32l1 37l-1 38v399
zM172 498v-148h171v148h-171zM172 661v-141h171v141h-171zM332 758l-6 12l-8 13l-10 13l-24 26l-31 27l-12 9h-24l-14 -21l-21 -29l-24 -28l-25 -26l-28 -25l-31 -23l-32 -21l-6 8l49 57l22 27l20 28l17 29l16 29l14 29l13 30l10 30l11 39l59 -26l13 -15l-21 -5l-5 -14
l-15 -33l-10 -19h197l54 54l64 -54v-21h-270l7 -3l20 -9l17 -9l18 -10l15 -11l14 -12l13 -14l12 -14l10 -14l1 -25l-17 -18l-25 -1l-18 16l-3 12zM757 758l-6 12l-8 13l-10 13l-25 26l-30 27l-12 9h-28l-10 -16l-22 -27l-24 -26l-25 -24l-28 -22l-30 -20l-33 -18l-6 8l50 52
l22 25l20 26l18 26l16 27l14 27l11 28l11 29l8 30l2 8l60 -26l12 -15l-20 -6l-5 -12l-15 -31l-12 -22h204l54 54l64 -54v-21h-275l7 -3l19 -9l18 -9l17 -10l16 -11l14 -12l13 -14l12 -14l9 -14l1 -25l-16 -18l-25 -1l-18 16l-3 12z" />
  </g>

</svg>
