<?xml version="1.0" standalone="no"?>
<!DOCTYPE svg PUBLIC "-//W3C//DTD SVG 1.1//EN" "http://www.w3.org/Graphics/SVG/1.1/DTD/svg11.dtd" >
<svg xmlns="http://www.w3.org/2000/svg" xmlns:xlink="http://www.w3.org/1999/xlink" version="1.1" viewBox="0 -144 1024 1024">
  <g transform="matrix(1 0 0 -1 0 880)">
   <path fill="currentColor"
d="M806 56l-31 36l-23 22l-80 -13l-102 -14l-187 -23l-43 -5l-20 -3l-10 -18l-11 15l-16 64l11 1l107 4l91 123l48 71l18 27l50 -41l7 -19l-21 2l-43 -50l-63 -65l-47 -42l-6 -5l132 5l103 2h53l11 -1l-54 46l-21 15l5 8l47 -17l22 -9l40 -20l35 -20l30 -20l14 -11l9 -23
l-9 -23l-23 -9zM446 265l6 -19l-21 4l-32 -31l-52 -42l-56 -39l-61 -34l-32 -15l-33 -13l-5 9l107 86l48 44l64 68l16 20h-1l6 7zM892 197l-82 33l-38 18l-73 39l-34 21l-32 23l-30 24l-23 22h-115l-21 -18l-41 -28l-47 -28l-52 -25l-57 -25l-63 -22l-68 -21l-75 -18l-3 9
l136 57l59 28l53 28l47 29l41 29l7 5h-320v21h346l31 32l23 29l9 15h-199l-64 -33v336l64 -32h481l31 25l-17 13l-3 8l-4 9l-7 9l-17 21l-25 21l-15 11l-16 12l-11 6h-28l-14 -16l-22 -21l-23 -19l-25 -19l-28 -16l-30 -15l-32 -12l-5 8l50 42l23 21l19 21l34 42l14 21
l12 22l9 22l11 29l57 -30l12 -16l-21 -4l-18 -31l-6 -8h199l54 54l64 -54v-21h-261l28 -10l17 -7l15 -8l14 -8l13 -10l11 -10l11 -11l3 -25l-15 -20l-22 -2l56 -46l-27 -21v-228l-65 -33v33h-242l25 -17l8 -18h-21l-12 -17l-22 -24h350l54 54l65 -54v-21h-349l75 -34l73 -31
l37 -14l79 -25l127 -36l-63 -55zM271 560v-65h481v65h-481zM271 641v-59h481v59h-481zM271 723v-60h481v60h-481zM334 800l-6 9l-18 21l-25 21l-14 11l-17 12l-11 6h-26l-15 -20l-22 -22l-23 -21l-26 -20l-28 -19l-30 -17l-32 -15l-5 8l50 47l42 45l34 45l14 22l12 24l10 23
l10 30l58 -30l11 -15l-21 -4l-18 -33l-5 -7h193l54 54l64 -54v-21h-255l27 -10l17 -7l15 -8l14 -8l13 -10l12 -10l10 -11l3 -25l-14 -20l-25 -3l-19 15l-4 8z" />
  </g>

</svg>
