<?xml version="1.0" standalone="no"?>
<!DOCTYPE svg PUBLIC "-//W3C//DTD SVG 1.1//EN" "http://www.w3.org/Graphics/SVG/1.1/DTD/svg11.dtd" >
<svg xmlns="http://www.w3.org/2000/svg" xmlns:xlink="http://www.w3.org/1999/xlink" version="1.1" viewBox="0 -144 1024 1024">
  <g transform="matrix(1 0 0 -1 0 880)">
   <path fill="currentColor"
d="M313 115h71l5 1l3 1l2 1h1l1 1l1 5l2 5v7v75h-220v-129l-65 -32v401l65 -32h220l32 27l59 -49l-26 -21v-240l-1 -14l-3 -13l-4 -13l-7 -13l-9 -10l-10 -9l-13 -6l-13 -5l-13 -2l-13 -1v32l-65 16v17zM958 208h11l-11 -91l16 -11l11 -16l-11 -16l-16 -11h-301l-13 1l-13 1
l-13 4l-11 6l-11 8l-9 10l-7 11l-5 13l-3 13l-1 14v359l65 -32h225v90h-225v-16l-65 -33v244l65 -11l16 -11l-16 -9v-51h215l53 53l65 -53v-22h-333v-70h225l33 27l59 -48l-27 -22v-89l-57 -29l46 -42v-21h-279v-62h203l33 37l43 -37v-22h-279v-62h181l44 49l54 -49v-21
h-279v-47l-1 -7l1 -5v-3l1 -5l1 -1l2 -2l4 -2l6 -1l7 -1h274zM179 302v-70h220v70h-220zM179 397v-73h220v73h-220zM636 450v-71h181l44 49v22h-225zM446 608l10 -17l-24 -2l-23 -28l-36 -36l-13 -11l-13 -11h89l44 48l54 -48v-22h-484v22h280l5 7l22 48l7 14l17 40l4 13
l4 12l3 6zM173 554l-8 21l-5 11l-19 33l-10 9l6 8l12 -7l13 -6l12 -7l11 -8l11 -8l11 -10l18 -21l8 -11l8 -12l-2 -24l-17 -17l-25 1l-17 18l-1 10zM60 666h199v90l65 -11l16 -11l-16 -9v-59h80l54 53l65 -53v-22h-463v22zM334 788l-7 11l-8 11l-10 11l-24 23l-15 13l-16 12
l-12 7h-25l-15 -20l-21 -25l-23 -23l-26 -23l-28 -21l-30 -20l-32 -18l-6 8l49 52l43 49l17 25l16 25l14 25l12 26l11 25l7 27l3 8l58 -29l12 -15l-20 -5l-4 -9l-15 -28l-8 -13h195l54 54l64 -54v-21h-262l18 -7l17 -7l17 -8l15 -9l15 -11l13 -10l11 -12l10 -13l2 -25
l-15 -19l-25 -2l-19 16l-3 9zM758 788l-6 11l-8 11l-10 11l-25 23l-14 13l-16 12l-12 7h-28l-12 -16l-22 -23l-23 -22l-26 -20l-28 -20l-30 -16l-32 -15l-5 8l49 46l43 46l34 46l13 23l12 25l10 24l8 26l3 8l58 -29l12 -15l-21 -5l-19 -36l-9 -14h202l54 54l64 -54v-21h-268
l18 -7l18 -7l17 -8l15 -9l14 -11l13 -10l12 -12l10 -13l2 -25l-15 -19l-25 -2l-19 16l-3 9z" />
  </g>

</svg>
