<?xml version="1.0" standalone="no"?>
<!DOCTYPE svg PUBLIC "-//W3C//DTD SVG 1.1//EN" "http://www.w3.org/Graphics/SVG/1.1/DTD/svg11.dtd" >
<svg xmlns="http://www.w3.org/2000/svg" xmlns:xlink="http://www.w3.org/1999/xlink" version="1.1" viewBox="0 -144 1024 1024">
  <g transform="matrix(1 0 0 -1 0 880)">
   <path fill="currentColor"
d="M567 107h86l7 1l5 1l5 1l2 2l1 5l1 5l1 7v153l-16 -19l-59 -59l-62 -52l-22 -16l-3 -2v-22l-18 9l-43 48l54 31l89 55l69 45l11 7v139h-150v21h150v113h-160v22h160v96h-150v22h150v91l64 -10l17 -11l-17 -10v-60h86l32 27l59 -49l-27 -21v-75h16l34 37l43 -37v-22h-93
v-134l-64 -32v32h-78l35 -81l19 -39l20 -35l87 115l10 15l2 2l46 -45l5 -19l-22 4l-25 -22l-46 -36l-34 -23l-12 -7l11 -16l22 -28l23 -24l24 -21l25 -17l52 -29l-61 -47l-30 21l-28 25l-26 28l-23 31l-21 34l-18 38l-16 40l-14 44l-10 47l-3 15v-287l-1 -14l-2 -13l-4 -13
l-7 -13l-9 -10l-10 -9l-13 -7l-13 -4l-13 -2l-14 -1v32l-86 16v16zM490 526l-4 -65l-6 -61l-9 -57l-12 -55l-14 -50l-17 -46l-20 -42l-22 -38l-26 -33l-28 -28l-8 6l20 33l16 36l16 38l13 41l12 46l9 47l7 53l5 54l3 60v62v360l65 -33h185v140l64 -11l17 -10l-17 -10v-109
h125l53 54l65 -54v-21h-492v-307zM323 375l-19 34l-22 34l-23 31v-388l-64 -33v365l-10 -30l-18 -44l-20 -42l-22 -40l-23 -38l-27 -34l-27 -32l-9 6l38 75l17 39l16 40l14 42l13 44l12 45l10 47l9 49l4 35h-124v22h147v381l64 -10l16 -11l-16 -10v-350h26l53 53l65 -53v-22
h-144v-74l15 -10l19 -14l34 -29l15 -15l15 -15l26 -33l12 -16l2 -25l-15 -19l-24 -2l-20 15l-7 16zM559 337l-2 8l-8 18l-12 19l-15 21l-11 9l6 8l12 -7l13 -5l24 -12l20 -13l10 -7l17 -16l7 -9l1 -25l-16 -18l-25 -1l-18 16l-1 7zM739 580v-113h86v113h-86zM739 698v-96h86
v96h-86zM395 883l12 -16l-20 -5l-19 -40l-33 -67l-27 -47l-31 -49l-9 4l23 82l21 73l17 64l4 15h-1l4 14zM113 723l-3 18l-3 19l-9 42l-17 69l-7 25l8 4l28 -43l13 -21l29 -62l8 -19l14 -38l5 -19l-6 -24l-21 -13l-24 6l-13 21l-1 17z" />
  </g>

</svg>
