<?xml version="1.0" standalone="no"?>
<!DOCTYPE svg PUBLIC "-//W3C//DTD SVG 1.1//EN" "http://www.w3.org/Graphics/SVG/1.1/DTD/svg11.dtd" >
<svg xmlns="http://www.w3.org/2000/svg" xmlns:xlink="http://www.w3.org/1999/xlink" version="1.1" viewBox="0 -144 1024 1024">
  <g transform="matrix(1 0 0 -1 0 880)">
   <path fill="currentColor"
d="M341 494l-2 6l-33 -14l-29 -11l-13 -4v-396l-64 -32v408l-43 -11l-73 -15l-9 -20l-13 15l-19 63l42 4l45 4l180 330l22 44l54 -36l9 -17l-20 -1l-60 -96l-76 -111l-54 -71l-28 -35l-5 -4l56 7l91 13l30 3l5 1l-4 13l-7 18l-7 17l-16 34l-9 17l-12 15l7 7l32 -23l16 -14
l13 -16l13 -17l13 -17l11 -19l10 -20l17 -44l-4 -24l-19 -15l-24 4l-15 20l-4 20zM873 97l-26 28l-23 29l-22 32l-19 33l-17 36l-15 38l-12 39l-4 20l-6 -27l-20 -60l-27 -54l-33 -47l-39 -41l-44 -33l-50 -24l-55 -17l-3 9l49 26l42 30l37 34l30 40l26 44l20 50l15 56l8 49
h-164l-7 -42l-12 -54l-15 -51l-18 -46l-22 -42l-24 -39l-28 -34l-31 -29l-7 7l22 35l19 36l18 39l15 42l12 45l10 48l8 51l5 54l2 58v346l64 -32h344l32 27l59 -48l-27 -22v-183l-64 -32v65h-344v-60l-3 -64l-5 -54h163l4 60l-1 69l-1 17l65 -10l17 -11l-18 -10l-1 -58
l-7 -57h115l54 54l65 -54v-21h-236l-3 -10l40 -71l41 -63l22 -28l23 -26l24 -23l25 -21l26 -18l49 -30l-60 -46l-29 22zM170 367l15 -12l-19 -8l-1 -10l-7 -29l-18 -58l-11 -29l-13 -28l-14 -27l-15 -27l-18 -25l-20 -25l-8 5l29 86l8 28l14 55l5 28l4 28l3 27l1 23l2 17z
M338 247l-4 20l-5 20l-6 20l-7 18l-23 54l-11 17l8 6l16 -12l15 -14l15 -16l13 -16l12 -19l12 -20l10 -20l10 -22l8 -23l7 -24l-5 -24l-20 -14l-24 4l-14 21l-3 22zM532 758v-151h344v151h-344zM131 688l-6 16l-17 32l-9 15l-37 45l-15 14l5 8l39 -18l17 -12l17 -12l3 -3
l32 78l54 126l5 11l55 -34l10 -17l-20 -2l-41 -64l-43 -60l-32 -38l-9 -9l17 -17l13 -16l12 -17l11 -18l10 -20l-1 -24l-18 -17l-25 2l-16 17l-5 18zM979 913v-21h-549v21h430l54 54z" />
  </g>

</svg>
