<?xml version="1.0" standalone="no"?>
<!DOCTYPE svg PUBLIC "-//W3C//DTD SVG 1.1//EN" "http://www.w3.org/Graphics/SVG/1.1/DTD/svg11.dtd" >
<svg xmlns="http://www.w3.org/2000/svg" xmlns:xlink="http://www.w3.org/1999/xlink" version="1.1" viewBox="0 -144 1024 1024">
  <g transform="matrix(1 0 0 -1 0 880)">
   <path fill="currentColor"
d="M354 494l-2 7l-36 -15l-29 -11l-14 -5v-395l-65 -32v409l-46 -12l-76 -16l-9 -19l-13 15l-19 63l43 4l47 4l187 330l23 45l54 -37l8 -18h-19l-88 -134l-80 -109l-28 -35l-34 -39l58 7l93 13l32 3l6 1l-4 13l-15 35l-18 34l-9 17l-12 15l7 7l33 -23l16 -14l14 -15l14 -17
l12 -18l11 -19l11 -20l9 -21l8 -22l-3 -25l-19 -15l-25 4l-15 19l-4 21zM175 367l15 -12l-19 -9l-1 -9l-7 -29l-9 -30l-10 -28l-12 -29l-12 -28l-14 -27l-17 -27l-18 -25l-20 -25l-8 5l30 86l9 28l7 28l7 28l5 27l5 28l3 27l2 23l1 17zM868 92l-10 -7l-11 -7l-11 -6l-12 -5
l-11 -3l-13 -3l-13 -2h-13v32l-108 16v16h108l8 1l14 2l7 2l7 3l6 3l6 4l6 4l11 11l6 11l8 25l8 38l7 51l7 61l5 73l4 85l3 96l2 106v107h-347l-26 -50l-19 -32l-40 -59l-22 -26l-24 -24l-8 6l58 122l28 67l26 73l28 87l58 -29l12 -15l-20 -4l-24 -60l-16 -35h336l33 27
l59 -48l-27 -16l-1 -92l-1 -107l-3 -97l-5 -85l-5 -75l-7 -65l-7 -53l-10 -44l-11 -34l-17 -28zM568 166l-59 -29v309l59 -11l15 -11l-15 -9v-163h59v242h-152v22h152v134h-61l-19 -27l-12 -18l-14 -16l-29 -28l-7 6l8 17l28 76l14 41l7 22l11 44l3 9l59 -28l12 -15l-21 -5
l-12 -26l-10 -21l-6 -9h135l44 48l54 -48v-22h-125v-134h50l54 53l64 -53v-22h-168v-102h48l34 38l43 -38v-21h-125v-119h50l54 54l64 -54v-21h-286v-65zM351 246l-5 21l-5 20l-6 20l-7 18l-7 19l-18 35l-10 17l7 7l32 -27l15 -15l14 -17l24 -38l11 -21l10 -22l8 -23l8 -24
l-5 -24l-20 -14l-24 4l-14 21l-3 22zM137 688l-7 16l-8 15l-9 16l-10 16l-38 45l-16 14l5 8l39 -18l19 -11l17 -13l4 -3l83 187l9 22l3 6l55 -34l10 -17l-21 -2l-28 -44l-43 -61l-31 -39l-26 -27l16 -16l14 -16l13 -17l11 -19l10 -19l-1 -25l-18 -17l-24 2l-17 17l-5 17z
" />
  </g>

</svg>
