<?xml version="1.0" standalone="no"?>
<!DOCTYPE svg PUBLIC "-//W3C//DTD SVG 1.1//EN" "http://www.w3.org/Graphics/SVG/1.1/DTD/svg11.dtd" >
<svg xmlns="http://www.w3.org/2000/svg" xmlns:xlink="http://www.w3.org/1999/xlink" version="1.1" viewBox="0 -144 1024 1024">
  <g transform="matrix(1 0 0 -1 0 880)">
   <path fill="currentColor"
d="M175 919h136l32 27l59 -49l-27 -21v-742l-1 -13l-2 -14l-4 -13l-7 -12l-9 -11l-10 -9l-13 -7l-13 -4l-13 -2l-14 -1v32l-86 16v16h86l7 1l5 1l5 2l2 2l1 5l1 5l1 6v763h-136v-387l1 1l16 -9l17 -9l29 -19l27 -21l12 -12l20 -23l10 -13l1 -25l-16 -18l-25 -2l-18 16l-8 24
l-5 12l-7 12l-15 26l-10 13l-20 28l-9 8v-10l-3 -60l-5 -58l-7 -54l-9 -51l-11 -47l-13 -44l-17 -39l-18 -36l-21 -33l-25 -27l-7 6l14 32l13 33l11 37l10 39l8 42l7 46l5 48l3 52l1 56l-1 58v462zM860 95l-32 24l-30 26l-26 27l-22 30l-19 32l-14 33l-9 35l-2 12l-4 -17
l-17 -43l-25 -40l-30 -36l-36 -32l-42 -28l-47 -24l-53 -19l-58 -15l-2 9l53 25l47 26l41 27l34 30l29 31l22 33l18 35l11 37l3 22h-247v21h250l1 39v102h-200v21h346l54 54l64 -54v-21h-199v-102l-4 -39h137l54 54l64 -54v-21h-254l30 -54l19 -27l20 -24l23 -23l25 -21
l28 -19l31 -17l34 -15l72 -29l-62 -52l-39 20zM540 913h292l33 27l59 -48l-27 -22v-241l-65 -33v54h-292v-38l-64 -32v366zM249 611l-13 31l-6 11l-7 12l-35 52l-13 12l6 8l15 -10l16 -8l15 -9l26 -18l12 -9l11 -10l10 -9l10 -11l9 -10l3 -25l-15 -20l-25 -2zM540 892v-220
h292v220h-292z" />
  </g>

</svg>
