<?xml version="1.0" standalone="no"?>
<!DOCTYPE svg PUBLIC "-//W3C//DTD SVG 1.1//EN" "http://www.w3.org/Graphics/SVG/1.1/DTD/svg11.dtd" >
<svg xmlns="http://www.w3.org/2000/svg" xmlns:xlink="http://www.w3.org/1999/xlink" version="1.1" viewBox="0 -144 1024 1024">
  <g transform="matrix(1 0 0 -1 0 880)">
   <path fill="currentColor"
d="M852 88l-35 22l-32 26l-29 27l-26 30l-24 32l-20 35l-16 37l-10 36h-81v-187l98 18l29 4l31 3l2 -9l-27 -14l-56 -24l-86 -31l-88 -28l-8 -3l-8 -19l-14 13l-25 60l10 2l78 15v200h-67l-2 -19l-6 -46l-9 -42l-11 -40l-13 -36l-16 -33l-18 -30l-20 -26l-23 -21l-8 6l14 27
l12 28l11 30l9 32l7 35l7 37l4 40l3 44l1 46l-1 49v145l65 -33h419l44 49l54 -49v-21h-517v-91l-3 -52l-1 -8h423l44 49l54 -49v-21h-299l41 -56l24 -28l26 -26l15 -13l62 64l21 23l9 12l5 7h-1l6 6l44 -48l4 -19l-23 6l-20 -14l-47 -28l-35 -17l-10 -4l25 -19l31 -18
l32 -16l34 -14l77 -24l-62 -55l-41 17zM147 940h107l33 27l59 -48l-27 -22v-758l-1 -13l-2 -14l-5 -12l-6 -13l-9 -11l-11 -8l-12 -7l-13 -4l-14 -3l-13 -1v33l-86 16v16h86h6l5 1l5 2l2 2l1 2l1 3l1 5v6v307h-107v-22l-3 -57l-3 -53l-6 -50l-7 -45l-8 -40l-11 -37l-11 -32
l-14 -27l-17 -22l-17 -16l-8 6l8 21l7 23l7 27l6 30l5 35l4 39l2 43l2 47l1 52l-2 56v549zM917 440v-21h-436v21h338l44 49zM147 688v-221h107v221h-107zM413 569v339l65 -32h85v107l64 -10l16 -11l-16 -10v-76h84v107l65 -10l16 -11l-16 -10v-76h79l32 27l59 -49l-26 -21
v-231l-65 -33v33h-377zM478 736v-113h85v113h-85zM627 736v-113h84v113h-84zM776 736v-113h79v113h-79zM147 919v-210h107v210h-107zM478 854v-96h85v96h-85zM627 854v-96h84v96h-84zM776 854v-96h79v96h-79z" />
  </g>

</svg>
