<?xml version="1.0" standalone="no"?>
<!DOCTYPE svg PUBLIC "-//W3C//DTD SVG 1.1//EN" "http://www.w3.org/Graphics/SVG/1.1/DTD/svg11.dtd" >
<svg xmlns="http://www.w3.org/2000/svg" xmlns:xlink="http://www.w3.org/1999/xlink" version="1.1" viewBox="0 -144 1024 1024">
  <g transform="matrix(1 0 0 -1 0 880)">
   <path fill="currentColor"
d="M892 75l-11 -8l-10 -6l-12 -6l-12 -4l-12 -4l-13 -2l-12 -2h-13v32l-108 16v16h108l8 1l15 2l6 2l7 3l13 6l12 10l6 6l2 3l4 11l5 17l4 24l3 29l4 34l1 40l1 45l1 50v2h-1v43h-45l-23 -57l-26 -53l-28 -50l-30 -46l-33 -41l-35 -38l-36 -34l-39 -29l-41 -24l-43 -19l-5 8
l36 28l35 30l33 32l30 35l29 38l27 42l25 45l23 48l21 52l11 33h-60l-20 -39l-21 -35l-22 -32l-24 -32l-26 -30l-28 -27l-29 -26l-31 -23l-34 -21l-35 -18l-5 8l55 53l49 55l43 59l20 31l17 32l16 34l5 11h-65l-29 -37l-27 -27l-27 -26l-28 -24l-30 -21l-31 -19l-6 8l47 52
l45 56l40 60l19 32l36 69l12 28h-50v-38l-65 -32v446l65 -32h289l33 27l59 -49l-27 -21v-322l-65 -33v54h-208l31 -19l10 -16l-20 -2l-31 -55l-23 -33l-3 -4h293l33 26l59 -48l-27 -16v-29v-51l-1 -46l-2 -41l-3 -37l-4 -33l-5 -27l-7 -24l-8 -21l-12 -17zM389 953l31 -33
v-18l-20 8l-22 -11l-33 -15l-34 -14l-35 -12l-3 -1v-207h53l54 54l64 -54v-21h-171v-205h64l32 27l59 -48l-27 -22v-269l-64 -32v65h-195v-65l-65 -32v409l65 -33h67v205h-171v21h171v188l-44 -11l-38 -7l-40 -5l-41 -3l-2 10l112 39l68 28l65 30l60 34l29 18zM142 166h195
v237h-195v-237zM550 752v-144h289v144h-289zM550 908v-135h289v135h-289z" />
  </g>

</svg>
