<?xml version="1.0" standalone="no"?>
<!DOCTYPE svg PUBLIC "-//W3C//DTD SVG 1.1//EN" "http://www.w3.org/Graphics/SVG/1.1/DTD/svg11.dtd" >
<svg xmlns="http://www.w3.org/2000/svg" xmlns:xlink="http://www.w3.org/1999/xlink" version="1.1" viewBox="0 -144 1024 1024">
  <g transform="matrix(1 0 0 -1 0 880)">
   <path fill="currentColor"
d="M426 919h215l32 27l59 -49l-26 -21v-742l-2 -13l-2 -14l-4 -13l-7 -12l-9 -11l-10 -9l-13 -7l-13 -4l-13 -2l-13 -1v32l-108 16v16h108l6 1l5 1l5 2l2 2l1 5l1 5l1 6v763h-215v-360l-4 -70l-9 -67l-13 -62l-18 -58l-23 -53l-27 -48l-32 -43l-37 -39l-42 -32l-46 -26l-4 8
l37 34l34 36l29 40l25 43l21 46l18 50l12 54l9 58l5 63v66v414zM556 372l-17 25l-22 26l-25 28l-31 28l-17 14l5 8l21 -9l20 -8l19 -9l18 -9l17 -11l16 -10l29 -23l26 -25l5 -24l-13 -21l-24 -5l-21 13zM545 633l-17 23l-22 25l-40 41l-17 13l5 8l20 -9l37 -16l33 -18
l15 -10l27 -19l23 -20l5 -25l-12 -21l-24 -5l-21 11z" />
  </g>

</svg>
