<?xml version="1.0" standalone="no"?>
<!DOCTYPE svg PUBLIC "-//W3C//DTD SVG 1.1//EN" "http://www.w3.org/Graphics/SVG/1.1/DTD/svg11.dtd" >
<svg xmlns="http://www.w3.org/2000/svg" xmlns:xlink="http://www.w3.org/1999/xlink" version="1.1" viewBox="0 -144 1024 1024">
  <g transform="matrix(1 0 0 -1 0 880)">
   <path fill="currentColor"
d="M795 854l4 5v-1l28 23l59 -48l-27 -16l-15 -7l-44 -59l-26 -31l-13 -15l-15 -15l-2 -2h137l32 27l59 -49l-27 -21v-258l-64 -33v65h-252v-253l1 -6v-5l1 -3l1 -2l1 -1l1 -1l2 -1l3 -1l5 -1h7h275l32 134h11l-11 -134l20 -13l12 -20l-12 -19l-20 -13h-307l-14 1l-14 2
l-13 5l-11 7l-12 8l-8 11l-7 12l-4 13l-3 14v13v501l-35 -51l-28 -38l-9 5l74 168l47 118l25 77l11 37l3 8l58 -28l13 -15l-20 -5l-23 -56l-15 -33h129zM346 78l-54 -27v384h-56l-6 -69l-10 -59l-13 -54l-17 -49l-20 -43l-24 -38l-26 -31l-31 -25l-33 -17l-5 8l26 24l23 27
l20 32l16 36l15 41l11 46l9 51l6 56l3 62v2h-66l-7 -67l-67 -25l35 326l56 -35h49v161h-127v22h127v166l59 -10l15 -11l-15 -10v-135h53v166l54 -10l13 -11l-13 -9v-136h64l30 27l56 -49l-26 -19v-196l-60 -29v61h-64v-155h97l32 26l60 -48l-27 -16h-1v-5l-4 -57l-3 -49
l-2 -21l-3 -19l-2 -17l-6 -29l-4 -14l-5 -12l-7 -11l-9 -11l-10 -9l-11 -7l-12 -6l-13 -4l-14 -2l-13 -1v32l-43 16v-115zM629 666v-226h94v226h-94zM787 666v-226h94v226h-94zM292 457v155h-53v-112l-2 -43h55zM239 795v-161h53v161h-53zM346 795v-161h64v161h-64zM656 833
l-52 -101l-15 -24l40 -20h98l6 11l23 56l8 18l7 17l15 35l3 8h-133zM389 209l7 1l5 1l5 1l4 2l3 2l5 5l5 10l4 17l2 13l2 15l3 18l2 20l1 23l2 24l1 26l2 29l1 19h-97v-226h43zM134 612l-17 -155h63v155h-46z" />
  </g>

</svg>
