<?xml version="1.0" standalone="no"?>
<!DOCTYPE svg PUBLIC "-//W3C//DTD SVG 1.1//EN" "http://www.w3.org/Graphics/SVG/1.1/DTD/svg11.dtd" >
<svg xmlns="http://www.w3.org/2000/svg" xmlns:xlink="http://www.w3.org/1999/xlink" version="1.1" viewBox="0 -144 1024 1024">
  <g transform="matrix(1 0 0 -1 0 880)">
   <path fill="currentColor"
d="M259 607h226v154l65 -11l16 -11l-16 -9v-123h220l32 27l59 -48l-26 -22v-215l-65 -32v64h-511v-1l-3 -45l-7 -44l-11 -41l-15 -39l-17 -36l-22 -32l-25 -31l-29 -27l-31 -24l-36 -20l-6 8l28 27l25 29l21 29l19 30l15 32l12 33l9 35l6 37l3 38v300zM259 403h511v183h-511
v-183zM734 981l16 -11l-16 -10v-88h122l54 54l64 -54v-21h-240v-93l-64 -32v125h-129v21h129v119zM349 981l16 -11l-16 -10v-88h30l44 48l54 -48v-21h-128v-93l-65 -32v125h-240v21h240v119z" />
  </g>

</svg>
