<?xml version="1.0" standalone="no"?>
<!DOCTYPE svg PUBLIC "-//W3C//DTD SVG 1.1//EN" "http://www.w3.org/Graphics/SVG/1.1/DTD/svg11.dtd" >
<svg xmlns="http://www.w3.org/2000/svg" xmlns:xlink="http://www.w3.org/1999/xlink" version="1.1" viewBox="0 -144 1024 1024">
  <g transform="matrix(1 0 0 -1 0 880)">
   <path fill="currentColor"
d="M660 171h82l5 1l3 1l2 1l1 1l1 1l2 5l1 5v7v171h-279v-282l-65 -32v314h-226v21h570l32 27l60 -48l-27 -22v-149l-1 -14l-3 -14l-4 -13l-7 -12l-8 -11l-11 -8l-13 -7l-12 -5l-14 -2h-13v32l-76 16v16zM827 466l-47 24l-45 27l-43 29l-43 31l-40 34l-38 37l-36 39l-12 15
l-18 -21l-42 -42l-45 -40l-47 -37l-50 -33l-52 -32l-55 -28l-57 -25l-60 -22l-62 -18l-4 9l58 28l56 29l53 30l50 32l47 34l45 36l42 38l40 40l37 42l37 46l48 -43l7 -18l-7 1l89 -66l42 -28l87 -49l45 -21l46 -20l47 -16l88 -28l-63 -55l-50 20zM689 508v-22h-371v22h253
l54 53zM695 977l16 -11l-16 -9v-95h166l54 54l65 -54v-22h-285v-99l-65 -32v131h-236v-99l-65 -32v131h-285v22h285v126l65 -11l16 -11l-16 -9v-95h236v126z" />
  </g>

</svg>
