<?xml version="1.0" standalone="no"?>
<!DOCTYPE svg PUBLIC "-//W3C//DTD SVG 1.1//EN" "http://www.w3.org/Graphics/SVG/1.1/DTD/svg11.dtd" >
<svg xmlns="http://www.w3.org/2000/svg" xmlns:xlink="http://www.w3.org/1999/xlink" version="1.1" viewBox="0 -144 1024 1024">
  <g transform="matrix(1 0 0 -1 0 880)">
   <path fill="currentColor"
d="M656 62l-113 13l-98 20l-81 29l-69 38l-37 31l-21 -25l-39 -36l-45 -32l-48 -27l-54 -23l-3 9l46 31l43 33l37 35l32 37l21 30l-28 38l-31 63l-10 37l-6 -24l-5 -18l-6 -18l-7 -16l-7 -14l-8 -14l-2 -3l2 -27l-18 6l-49 44l8 7l8 3l9 6l18 17l20 25l11 14l22 34l2 5l-1 6
l6 3l3 5l9 -2l-4 -14l26 -53l36 -54l21 -23l10 18l18 45l14 48l9 51l4 41h-119l-8 -15l-72 5l146 246h-193v22h204l33 27l59 -49l-27 -16l-18 -7l-111 -192h107l33 27l59 -48l-27 -16l-5 -2l-4 -33l-14 -56l-19 -52l-24 -49l-19 -27l38 -26l62 -29l77 -22l92 -15l108 -9
l128 -1l148 5l61 2l-58 -73l-151 -1zM382 235h264v223h-212v21h212v175l-82 -11l-51 -6l-54 -4l-55 -2l-2 9l156 37l95 25l89 26l81 29l39 15l4 -10l47 -40l1 -17l-22 9l-49 -15l-43 -12l-89 -21v-187h93l54 54l65 -54v-21h-212v-223h145l54 54l64 -54v-21h-592v21zM695 981
l16 -11l-16 -10v-76h166l54 54l65 -54v-22h-285v-82l-65 -32v114h-236v-82l-65 -32v114h-285v22h285v107l65 -10l16 -11l-16 -10v-76h236v107z" />
  </g>

</svg>
