<?xml version="1.0" standalone="no"?>
<!DOCTYPE svg PUBLIC "-//W3C//DTD SVG 1.1//EN" "http://www.w3.org/Graphics/SVG/1.1/DTD/svg11.dtd" >
<svg xmlns="http://www.w3.org/2000/svg" xmlns:xlink="http://www.w3.org/1999/xlink" version="1.1" viewBox="0 -144 1024 1024">
  <g transform="matrix(1 0 0 -1 0 880)">
   <path fill="currentColor"
d="M909 575l16 -10l-16 -10v-466l-64 -32v53h-666v-37l-64 -33v546l64 -11l16 -10l-16 -10v-423h666v454zM383 224h75h7l5 1l3 1l1 1l1 1l2 1v2l1 3l1 5l1 6v324l61 -10l191 139h-554v21h582l20 17l2 -3l17 13l59 -48l-27 -16l-57 -24l-178 -94l-39 -18l-13 -8v-293l-1 -14
l-2 -13l-4 -13l-7 -12l-9 -11l-11 -9l-12 -6l-13 -5l-13 -2l-14 -1v33l-75 16v16zM205 267l68 32l173 87l6 -8l-45 -42l-44 -37l-62 -46l-37 -25l-2 -22l-17 9zM727 235l-25 30l-29 29l-51 43l-40 30l5 9l48 -17l22 -9l22 -10l39 -23l19 -13l34 -28l16 -14l7 -24l-11 -22
l-24 -7l-22 12zM782 498l1 -19l-20 8l-50 -29l-59 -32l-67 -31l-5 7l87 81l75 67zM342 434l-10 11l-21 23l-40 34l-15 12l-18 10l4 9l19 -5l20 -5l19 -6l17 -7l34 -16l29 -20l27 -22l7 -23l-12 -22l-24 -7l-21 11l-7 12zM734 986l16 -11l-16 -9v-78h122l54 54l64 -54v-21
h-240v-83l-64 -32v115h-129v21h129v109zM349 986l16 -11l-16 -9v-78h30l44 49l54 -49v-21h-128v-83l-65 -32v115h-240v21h240v109z" />
  </g>

</svg>
