<?xml version="1.0" standalone="no"?>
<!DOCTYPE svg PUBLIC "-//W3C//DTD SVG 1.1//EN" "http://www.w3.org/Graphics/SVG/1.1/DTD/svg11.dtd" >
<svg xmlns="http://www.w3.org/2000/svg" xmlns:xlink="http://www.w3.org/1999/xlink" version="1.1" viewBox="0 -144 1024 1024">
  <g transform="matrix(1 0 0 -1 0 880)">
   <path fill="currentColor"
d="M727 247v97h-430v-70l-3 -27h433zM347 643l43 -30l47 -26l52 -25l18 -7l51 29l52 35l47 38l7 8h-343zM734 986l16 -11l-16 -9v-77h122l54 54l64 -54v-21h-240v-82l-64 -33v115h-129v21h129v108zM349 986l16 -11l-16 -9v-77h30l44 49l54 -49v-21h-128v-82l-65 -33v115
h-240v21h240v108zM181 593l23 11l25 15l69 46h-221v21h403v107l64 -11l16 -10l-16 -10v-76h285l54 54l64 -54v-21h-190l-61 -55l-52 -38l-59 -35l-10 -5l35 -10l70 -17l75 -12l81 -11l145 -13l-64 -65l-89 11l-84 15l-78 18l-71 21l-66 25l-18 8l-57 -22l-73 -23l-78 -19
l-65 -12l59 -10l16 -11l-16 -9v-31h430v62l65 -11l16 -11l-16 -9v-321l-65 -32v182h-437l-6 -23l-14 -32l-19 -29l-24 -25l-27 -22l-32 -18l-36 -14l-39 -10l-42 -6l-3 9l39 17l34 17l29 18l24 20l20 20l15 22l12 24l7 25l4 27v29v151l-12 -2l-88 -11l-93 -6l-1 10l91 16
l86 19l79 21l75 24l69 26l17 8l-38 23l-46 35l-39 38l-22 31l-19 -32l-21 -28l-32 -37l-3 -3v-25l-18 7l-45 48z" />
  </g>

</svg>
