<?xml version="1.0" standalone="no"?>
<!DOCTYPE svg PUBLIC "-//W3C//DTD SVG 1.1//EN" "http://www.w3.org/Graphics/SVG/1.1/DTD/svg11.dtd" >
<svg xmlns="http://www.w3.org/2000/svg" xmlns:xlink="http://www.w3.org/1999/xlink" version="1.1" viewBox="0 -144 1024 1024">
  <g transform="matrix(1 0 0 -1 0 880)">
   <path fill="currentColor"
d="M173 610h424l-15 116l-1 11l65 -5l18 -9l-15 -11l12 -101l1 -1h162l54 54l64 -54v-22h-277l15 -85l23 -95l27 -82l8 -17l34 53l30 59l27 62l3 7l57 -31l11 -16l-20 -4l-23 -46l-35 -61l-40 -55l-19 -22l32 -50l36 -41l39 -28l42 -16l16 -2l30 130h11l-10 -134l22 -10
l9 -22l-9 -23l-23 -9l-62 7l-57 23l-51 36l-45 50l-25 41l-26 -25l-50 -39l-54 -33l-58 -28l-60 -22l-64 -15l-3 10l60 25l54 28l52 32l48 36l44 40l33 35l-24 52l-29 87l-24 99l-17 99h-427v-216l-3 -46l-5 -44l-7 -41l-9 -38l-12 -35l-14 -33l-16 -30l-20 -26l-21 -22
l-24 -18l-7 7l15 24l13 25l12 27l10 29l8 30l7 34l5 35l3 38l1 41v43v270zM383 566l16 -11l-16 -9v-81h111l44 48l54 -48v-22h-209v-127h105l32 27l59 -48l-27 -22v-137l-64 -32v32h-225v-38l-64 -32v282l64 -32h55v261zM263 158h225v137h-225v-137zM780 662l-5 6l-7 7
l-18 15l-26 18l-14 9l-17 7l3 9l18 -4l18 -3l31 -5l14 -3l12 -3l23 -8l10 -5l9 -6l8 -23l-10 -22l-23 -8l-23 10v4zM739 988l17 -11l-17 -10v-73h127l54 54l64 -54v-21h-245v-79l-64 -32v111h-131v21h131v104zM349 988l16 -11l-16 -10v-73h12l54 54l64 -54v-21h-130v-79
l-65 -32v111h-245v21h245v104z" />
  </g>

</svg>
