<?xml version="1.0" standalone="no"?>
<!DOCTYPE svg PUBLIC "-//W3C//DTD SVG 1.1//EN" "http://www.w3.org/Graphics/SVG/1.1/DTD/svg11.dtd" >
<svg xmlns="http://www.w3.org/2000/svg" xmlns:xlink="http://www.w3.org/1999/xlink" version="1.1" viewBox="0 -144 1024 1024">
  <g transform="matrix(1 0 0 -1 0 880)">
   <path fill="currentColor"
d="M176 651h421l-15 125l-1 12l65 -6l18 -9l-15 -11l12 -110l1 -1h177l44 48l54 -48v-22h-272l15 -93l23 -101l27 -88l22 -53l26 54l18 51l15 54l11 52l3 14l62 -22l13 -14l-19 -6l-10 -40l-20 -57l-24 -54l-28 -50l-22 -31l16 -28l37 -44l38 -30l40 -17l15 -2l30 130h11
l-11 -134l22 -10l10 -22l-10 -23l-22 -10l-61 9l-57 24l-50 39l-45 53l-6 11l-44 -43l-44 -34l-48 -31l-52 -25l-4 9l45 34l41 35l38 38l34 40l11 16l-9 16l-33 80l-29 92l-23 106l-17 105h-424v-231l-3 -49l-5 -46l-7 -44l-9 -41l-11 -37l-14 -35l-16 -31l-19 -28l-21 -25
l-24 -19l-6 5l15 26l14 27l11 28l11 30l9 34l6 35l6 38l3 42l1 43v329zM502 123l-18 21l-23 21l-44 33l-17 11l3 9l20 -6l20 -5l18 -5l18 -7l16 -7l16 -7l15 -8l26 -18l12 -10l8 -24l-12 -22l-23 -7l-22 11l-6 10zM349 187l5 -18l-23 3l-9 -7l-31 -21l-36 -18l-19 -9l-21 -7
l-44 -15l-4 9l19 13l34 27l29 25l24 25l10 11l9 12l4 7v1l5 6zM276 575h189l32 27l60 -48l-27 -22v-288l-65 -33v33h-189l-59 -30v391zM276 352v-87h189v87h-189zM276 453v-80h189v80h-189zM276 554v-80h189v80h-189zM774 709l-4 7l-15 15l-9 8l-37 27l-16 8l3 9l17 -6
l17 -2l30 -6l26 -8l22 -8l10 -6l9 -6l7 -23l-11 -22l-23 -8l-22 12l-1 4zM739 990l17 -11l-17 -10v-58h127l54 54l64 -54v-22h-245v-64l-64 -32v96h-131v22h131v90zM349 990l16 -11l-16 -10v-58h12l54 54l64 -54v-22h-130v-64l-65 -32v96h-245v22h245v90z" />
  </g>

</svg>
