<?xml version="1.0" standalone="no"?>
<!DOCTYPE svg PUBLIC "-//W3C//DTD SVG 1.1//EN" "http://www.w3.org/Graphics/SVG/1.1/DTD/svg11.dtd" >
<svg xmlns="http://www.w3.org/2000/svg" xmlns:xlink="http://www.w3.org/1999/xlink" version="1.1" viewBox="0 -144 1024 1024">
  <g transform="matrix(1 0 0 -1 0 880)">
   <path fill="currentColor"
d="M163 787h225l33 27l59 -49l-27 -21v-200l-65 -33v33h-225v-470l-65 -32v777zM732 108h114l5 1l3 1l2 1l1 1l1 1l2 5l1 5v7v414h-225l-65 -33v308l65 -32h225l33 27l59 -49l-27 -21v-614l-1 -14l-2 -14l-5 -13l-7 -12l-8 -11l-11 -8l-12 -7l-13 -5l-14 -2h-13v32l-108 16
v16zM520 139h114l5 1l3 1l2 1l1 1v1l1 1l1 3l2 5v94h-258l-2 -10l-5 -23l-9 -22l-11 -21l-13 -19l-16 -17l-18 -16l-21 -12l-22 -11l-23 -10l-5 8l20 16l15 16l14 17l11 16l9 16l6 17l5 16l2 18l1 18l-1 18v241l65 -32h256l32 26l59 -48l-27 -21v-268v-14l-3 -13l-4 -13
l-7 -12l-9 -11l-10 -9l-13 -6l-13 -5l-13 -2l-14 -1v33l-107 16v16zM393 347v-79h256v79h-256zM393 449v-81h256v81h-256zM636 657v-92h225v92h-225zM163 657v-92h225v92h-225zM636 765v-87h225v87h-225zM163 765v-87h225v87h-225zM734 994l16 -11l-16 -10v-51h122l54 53
l64 -53v-22h-240v-58l-64 -32v90h-129v22h129v82zM349 994l16 -11l-16 -10v-51h30l44 48l54 -48v-22h-128v-58l-65 -32v90h-240v22h240v82z" />
  </g>

</svg>
