<?xml version="1.0" standalone="no"?>
<!DOCTYPE svg PUBLIC "-//W3C//DTD SVG 1.1//EN" "http://www.w3.org/Graphics/SVG/1.1/DTD/svg11.dtd" >
<svg xmlns="http://www.w3.org/2000/svg" xmlns:xlink="http://www.w3.org/1999/xlink" version="1.1" viewBox="0 -144 1024 1024">
  <g transform="matrix(1 0 0 -1 0 880)">
   <path fill="currentColor"
d="M77 66l2 24l19 16l15 4l15 4l12 5l12 7l10 8l10 9l9 11l8 13l7 14l4 17h10v-37l-3 -18l-5 -18l-8 -16l-10 -16l-14 -14l-15 -13l-18 -12l-19 -9l-25 2zM883 90l-7 11l-9 11l-11 12l-13 13l-34 28l-20 15l-22 14l4 8l50 -16l22 -9l20 -10l18 -9l17 -11l15 -10l13 -12
l12 -13l10 -13l1 -25l-17 -18l-24 -1l-19 17l-2 8zM628 101l-2 8l-4 9l-7 11l-8 11l-11 12l-26 27l-18 11l5 9l19 -9l19 -7l18 -8l16 -8l14 -9l13 -10l11 -10l11 -12l8 -14l6 -14l-6 -24l-21 -13l-24 6l-13 21l1 6zM407 61l-21 13l-6 24l3 5l2 6l1 7v8l-2 9l-4 11l-5 10
l-7 12l-9 13l-13 11l6 8l15 -9l14 -8l14 -8l12 -9l10 -10l10 -11l7 -12l5 -14l4 -14l1 -15l-13 -21zM60 244h420v61h-323v22h323v75h-231l-65 -33v262l65 -33h231v55h-409v21h409v43l-60 -3l-67 -3l-68 -1l-71 -1l-73 1v10l210 27l193 23l120 17l112 18l1 -6l61 -51l2 -16
l-24 13l-31 -4l-56 -6l-118 -10l-62 -4h-5v-47h285l54 54l64 -54v-21h-403v-55h231l33 27l59 -48l-27 -22v-153l-65 -33v33h-231v-75h247l44 48l53 -48v-22h-344v-61h316l44 49l54 -49v-21h-898v21zM249 577v-154h231v154h-231zM544 577v-154h22l62 80l40 59l9 15h-133z
M681 577l47 -41l5 -18l-22 3l-38 -34l-48 -38l-40 -26h190v154h-94zM368 464l-5 9l-6 9l-16 22l-21 25l-12 12l-15 12l6 8l16 -8l17 -7l31 -15l13 -8l13 -8l11 -8l11 -9l10 -8l8 -9l3 -25l-14 -20l-25 -3l-19 15l-2 7zM739 994l17 -11l-17 -10v-62h127l54 54l64 -54v-21
h-245v-68l-64 -33v101h-131v21h131v93zM349 994l16 -11l-16 -10v-62h12l54 54l64 -54v-21h-130v-68l-65 -33v101h-245v21h245v93z" />
  </g>

</svg>
