<?xml version="1.0" standalone="no"?>
<!DOCTYPE svg PUBLIC "-//W3C//DTD SVG 1.1//EN" "http://www.w3.org/Graphics/SVG/1.1/DTD/svg11.dtd" >
<svg xmlns="http://www.w3.org/2000/svg" xmlns:xlink="http://www.w3.org/1999/xlink" version="1.1" viewBox="0 -144 1024 1024">
  <g transform="matrix(1 0 0 -1 0 880)">
   <path fill="currentColor"
d="M967 276h11l-11 -134l19 -13l14 -20l-14 -19l-19 -13h-138l-14 1l-13 2l-13 5l-13 6l-10 9l-9 10l-7 13l-4 13l-2 13l-1 14v247h-88l37 -12l15 -12l-19 -9l-7 -30l-15 -48l-21 -44l-25 -41l-30 -36l-34 -33l-39 -29l-43 -24l-48 -20l-51 -15l-4 9l47 24l41 27l37 28
l32 30l28 32l22 34l19 38l14 39l11 43l6 46l1 3h-68v-65l-65 -32v419l65 -32h80l8 8l10 17l29 42l14 22l9 19l1 3h-2l6 8l50 -40l7 -19l-25 2l-31 -23l-27 -20l-31 -19h207l33 26l59 -48l-27 -21v-279l-65 -33v65h-58v-254l1 -5l1 -5l1 -1h2l1 -1l3 -1l5 -1h113zM367 94
l-8 -10l-10 -9l-11 -7l-11 -7l-12 -4l-13 -4l-13 -1l-14 -1v32l-86 16v16h86l7 1l7 1l11 3l9 5l4 4l8 10l21 43l12 36l7 31l-43 -29l-33 -19l-35 -19l-37 -17l-39 -15l-40 -14l-43 -13l-46 -10l-2 9l117 60l68 40l30 21l29 21l51 44l22 23l4 -4v4l-6 40l-6 23l-56 -40
l-60 -34l-64 -30l-34 -13l-35 -11l-36 -10l-3 9l121 75l54 39l50 40l23 21l18 17l-20 40l-5 10l-49 -31l-41 -23l-42 -21l-42 -18l-42 -16l-43 -12l-4 9l114 69l75 51l73 57l71 64l36 35l43 -48l4 -19l-19 5l-62 -51l-40 -29l-17 -11l8 -9l29 -42l23 -43l17 -43l12 -43
l7 -44v-45l-6 -44l-11 -45l-17 -43l-7 -12zM561 544v-113h305v113h-305zM177 562l-1 7l-3 9l-3 9l-6 10l-15 21l-10 12l-12 9l5 8l14 -7l15 -6l14 -5l12 -8l12 -8l10 -9l10 -9l9 -12l7 -11l5 -13l-6 -24l-21 -13l-24 6l-13 20l1 6v8zM561 678v-112h305v112h-305zM275 627
l-3 9l-4 10l-5 9l-15 20l-10 11l-6 6l-44 -17l-32 -11l-34 -10l-35 -7l-36 -6l-3 10l124 61l29 16l82 51l45 34h1v68h-285v22h285v96l65 -11l16 -11l-16 -9v-65h236v96l65 -11l16 -11l-16 -9v-65h166l54 54l65 -54v-22h-285v-63l-65 -32v95h-236v-63l-46 -23l16 -23l7 -8
l1 -19l-19 8l-40 -23l-58 -29l9 -3l14 -7l13 -7l11 -9l12 -10l9 -12l9 -12l7 -14l-3 -24l-19 -16l-24 3l-16 19v9z" />
  </g>

</svg>
