<?xml version="1.0" standalone="no"?>
<!DOCTYPE svg PUBLIC "-//W3C//DTD SVG 1.1//EN" "http://www.w3.org/Graphics/SVG/1.1/DTD/svg11.dtd" >
<svg xmlns="http://www.w3.org/2000/svg" xmlns:xlink="http://www.w3.org/1999/xlink" version="1.1" viewBox="0 -144 1024 1024">
  <g transform="matrix(1 0 0 -1 0 880)">
   <path fill="currentColor"
d="M824 129l-45 39l-40 43l-9 12l-33 -37l-52 -46l-58 -38l-64 -31l-70 -23l-3 9l64 33l57 36l51 42l46 46l35 46l-28 50l-24 55l-18 59l-12 63l-4 37l-20 -27l-27 -31l-29 -28l-7 6l58 104l33 73l28 77l12 40l11 42l9 42l3 10l60 -25l13 -14l-19 -6l-22 -67l-17 -41
l-17 -40l-13 -24h188l54 53l65 -53v-22h-96l-14 -78l-23 -78l-27 -73l-35 -66l-22 -31l17 -20l39 -35l42 -32l47 -27l82 -38l-61 -50l-55 29zM315 368l9 -17l-20 -3l-20 -38h169l54 54l65 -54v-21h-106l-22 -45l-27 -40l-18 -21l19 -8l25 -11l24 -14l13 -21l-5 -24l-21 -13
l-24 5l-19 14l-19 13l-22 12l-12 7l-44 -31l-42 -22l-45 -16l-49 -13l-53 -7l-56 -2l-1 10l53 12l49 15l44 18l40 20l35 23l18 15l-37 14l-48 14l-23 -44l-72 2l73 138h-147v21h158l47 89h-89l-65 -32v170l65 -33h103v58h-87l-65 -32v116h-72v21h72v116l65 -32h87v74l57 -9
v72h-285v21h285v81l65 -10l16 -11l-16 -10v-50h236v81l65 -10l16 -11l-16 -10v-50h166l54 54l65 -54v-21h-285v-50l-65 -32v82h-236v-50l-53 -26l12 -8l-16 -10v-43h87l33 27l59 -48l-27 -22v-41h17l33 38l43 -38v-21h-93v-84l-65 -32v32h-87v-58h103l32 27l59 -48l-27 -22
v-62l-64 -32v32h-166zM273 289l-38 -72l11 -1l31 -3l31 -5l29 -6l6 -1l27 36l19 36l7 16h-123zM661 593l-16 -28l-17 -25l14 -48l21 -58l24 -53l27 -49l18 -26l10 17l28 62l23 68l17 75l10 65h-159zM169 483v-62h103v62h-103zM337 483v-62h103v62h-103zM185 646v-63h87v63
h-87zM337 646v-63h87v63h-87zM185 730v-63h87v63h-87zM337 730v-63h87v63h-87z" />
  </g>

</svg>
