<?xml version="1.0" standalone="no"?>
<!DOCTYPE svg PUBLIC "-//W3C//DTD SVG 1.1//EN" "http://www.w3.org/Graphics/SVG/1.1/DTD/svg11.dtd" >
<svg xmlns="http://www.w3.org/2000/svg" xmlns:xlink="http://www.w3.org/1999/xlink" version="1.1" viewBox="0 -144 1024 1024">
  <g transform="matrix(1 0 0 -1 0 880)">
   <path fill="currentColor"
d="M364 88l-65 -33v307l-22 -16l-28 -18l-30 -18l-32 -15l-5 8l72 70l41 44l4 5v34l20 -10l27 39l14 23l10 18l5 10l13 -10v26h-225v-476l-65 -32v747l65 -32h225l33 27l59 -49l-27 -21v-164l-60 -29l35 -25l8 -17h-21l-22 -30l-21 -23l-4 -4h163l6 6l40 52l22 31l6 13h-1
l6 7l48 -43l6 -18l-26 3l-34 -23l-42 -24l-8 -4h139l44 48l53 -48v-22h-208v-70h84l44 49l54 -49v-21h-182v-68h84l44 48l54 -48v-21h-182v-75h117l53 54l65 -54v-22h-453v-37zM732 109h108l6 1l5 1l5 1l2 3l2 4l1 5v7v421h-225l-65 -32v271l65 -32h225l33 27l59 -49
l-27 -21v-585l-1 -14l-2 -13l-5 -13l-7 -12l-8 -11l-11 -9l-12 -7l-13 -4l-14 -2l-13 -1v32l-108 16v16zM364 222v-75h153v75h-153zM364 311v-68h153v68h-153zM364 402v-70h153v70h-153zM636 647v-73h225v73h-225zM163 647v-73h225v73h-225zM636 737v-69h225v69h-225z
M163 737v-69h225v69h-225zM734 988l16 -11l-16 -10v-63h122l54 54l64 -54v-22h-240v-69l-64 -32v101h-129v22h129v94zM349 988l16 -11l-16 -10v-63h30l44 48l54 -48v-22h-128v-69l-65 -32v101h-240v22h240v94z" />
  </g>

</svg>
