<?xml version="1.0" standalone="no"?>
<!DOCTYPE svg PUBLIC "-//W3C//DTD SVG 1.1//EN" "http://www.w3.org/Graphics/SVG/1.1/DTD/svg11.dtd" >
<svg xmlns="http://www.w3.org/2000/svg" xmlns:xlink="http://www.w3.org/1999/xlink" version="1.1" viewBox="0 -144 1024 1024">
  <g transform="matrix(1 0 0 -1 0 880)">
   <path fill="currentColor"
d="M666 118h108h6l5 1l3 2h2l1 1l1 1l1 2l1 3l1 5v6v335l-44 -73l-41 -58l-43 -55l-45 -51l-48 -47l-50 -43l-52 -39l-55 -34l-57 -30l-4 8l50 38l48 41l47 43l45 45l42 49l40 51l38 55l36 58l34 61l19 39h-303v21h105v382l65 -32h213l53 54l65 -54v-22h-93v-328h12l54 54
l64 -54v-21h-130v-393l-1 -13l-2 -14l-5 -12l-6 -13l-9 -11l-11 -8l-12 -7l-13 -4l-14 -3l-13 -1v33l-108 16v16zM402 207l-3 21l-5 21l-2 7l-17 -12l-62 -38l-32 -17l-102 -47l-70 -29l-15 -6l-6 -19l-15 12l-30 58l153 45l33 12v242h-87v-65l-64 -32v446l64 -32h87v215
l64 -11l16 -11l-16 -9v-184h87l33 27l59 -49l-27 -21v-285l-65 -32v43h-87v-221l39 15l56 18l-8 23l-9 22l-23 43l-14 23l7 6l21 -17l19 -18l18 -20l15 -21l14 -21l11 -22l11 -24l8 -24l7 -25l5 -25l-9 -23l-22 -11l-23 7l-11 22l-1 22zM142 752v-274h87v274h-87zM293 752
v-274h87v274h-87zM622 881v-328h173v328h-173z" />
  </g>

</svg>
