<?xml version="1.0" standalone="no"?>
<!DOCTYPE svg PUBLIC "-//W3C//DTD SVG 1.1//EN" "http://www.w3.org/Graphics/SVG/1.1/DTD/svg11.dtd" >
<svg xmlns="http://www.w3.org/2000/svg" xmlns:xlink="http://www.w3.org/1999/xlink" version="1.1" viewBox="0 -144 1024 1024">
  <g transform="matrix(1 0 0 -1 0 880)">
   <path fill="currentColor"
d="M868 180l-26 27l-25 28l-23 29l-20 30l-18 31l-16 33l-12 33v-316l-65 -32v286l-23 -33l-30 -38l-32 -35l-35 -34l-37 -31l-40 -28l-43 -26l-45 -22l-5 8l39 31l70 64l33 33l29 35l27 36l25 37l22 39l20 41l7 18h-95v-64l-64 -32v424l64 -32h113v102h-228v22h228v145
l65 -11l16 -11l-16 -9v-114h129l54 53l64 -53v-22h-247v-102h117l32 27l59 -49l-27 -21v-285l-64 -32v64h-113l35 -50l21 -28l45 -50l49 -46l27 -21l77 -51l-60 -46l-30 23zM364 208l-4 21l-3 21l-2 4l-40 -30l-57 -35l-60 -32l-62 -29l-32 -14l-12 -5l-5 -21l-16 12l-31 58
l107 34l60 21v244h-72v-65l-65 -32v446l65 -32h72v215l64 -11l16 -11l-16 -9v-184h72l32 27l60 -49l-27 -21v-274l-65 -33v33h-72v-219l61 24l19 6l-7 25l-8 21l-20 44l-12 22l8 6l37 -36l30 -40l13 -22l10 -22l10 -23l8 -25l5 -24l5 -25l-8 -24l-22 -10l-23 8l-11 21l-1 22
zM550 559v-113h113v113h-113zM728 559v-113h117v113h-117zM135 752v-274h72v274h-72zM271 752v-274h72v274h-72zM550 698v-118h113v118h-113zM728 698v-118h117v118h-117z" />
  </g>

</svg>
