<?xml version="1.0" standalone="no"?>
<!DOCTYPE svg PUBLIC "-//W3C//DTD SVG 1.1//EN" "http://www.w3.org/Graphics/SVG/1.1/DTD/svg11.dtd" >
<svg xmlns="http://www.w3.org/2000/svg" xmlns:xlink="http://www.w3.org/1999/xlink" version="1.1" viewBox="0 -144 1024 1024">
  <g transform="matrix(1 0 0 -1 0 880)">
   <path fill="currentColor"
d="M861 101l-14 18l-17 18l-14 13l-49 -9l-70 -11l-70 -11l-73 -9l-150 -15l-76 -7l-79 -7l-79 -6l-60 -4l-10 -17l-12 16l-13 65h11l160 4l155 5l76 3l3 1v130h-231v-38l-65 -32v259l65 -33h231v80l64 -11l16 -10l-16 -10v-49h231l33 27l59 -48l-27 -22v-113l-65 -33v33
h-231v-127l79 3l72 4l70 3l37 2l-34 26l-81 54l3 9l34 -9l32 -11l30 -12l53 -28l24 -17l22 -17l20 -19l18 -19l16 -21l4 -24l-14 -21l-25 -3l-19 14l-11 18zM249 413v-114h231v114h-231zM544 413v-114h231v114h-231zM402 551l-24 20l-22 22l-18 23l-15 25l-11 26l-7 28
l-2 17l-12 -35l-20 -38l-24 -35l-29 -33l-33 -29l-39 -26l-42 -23l-47 -19l-4 9l41 28l36 28l31 29l27 30l21 32l18 32l13 34l9 35l2 16h-169v21h171l1 38v102h-183v22h317l54 53l65 -53v-22h-189v-102l-3 -38h63l53 54l65 -54v-21h-180l7 -20l12 -22l12 -21l14 -19l16 -18
l17 -16l20 -14l22 -13l25 -13l61 -25l-62 -50l-30 16zM871 525l-26 23l-23 25l-20 27l-17 27l-14 30l-11 30l-5 23l-10 -27l-17 -33l-22 -29l-25 -27l-30 -23l-33 -20l-37 -16l-41 -13l-3 9l35 22l30 22l27 23l22 25l19 25l14 26l10 28l8 29l1 16h-164v21h166l1 27v113h-178
v22h323l53 53l65 -53v-22h-199v-113l-3 -27h73l54 54l64 -54v-21h-194v-1l10 -20l15 -26l15 -25l18 -23l18 -21l21 -19l23 -18l24 -17l27 -16l57 -28l-61 -49l-31 20z" />
  </g>

</svg>
