<?xml version="1.0" standalone="no"?>
<!DOCTYPE svg PUBLIC "-//W3C//DTD SVG 1.1//EN" "http://www.w3.org/Graphics/SVG/1.1/DTD/svg11.dtd" >
<svg xmlns="http://www.w3.org/2000/svg" xmlns:xlink="http://www.w3.org/1999/xlink" version="1.1" viewBox="0 -144 1024 1024">
  <g transform="matrix(1 0 0 -1 0 880)">
   <path fill="currentColor"
d="M803 107h64h7l5 1l3 1l2 1h1l2 4l1 3l1 5v113l-28 -28l-42 -35l-23 -17l-51 -30l-28 -13l-29 -11l-5 8l87 78l36 37l16 20l14 18l27 43l26 -20v81l-13 -1l-15 -18l-15 -17l-16 -16l-17 -16l-38 -28l-21 -13l-45 -23l-5 7l49 53l28 35l23 33l11 18l9 17l7 17l4 5l53 -36
l1 -1v42h-200l-26 -22v-274l-1 -14l-2 -13l-4 -13l-7 -12l-9 -11l-11 -9l-12 -6l-13 -5l-14 -2l-13 -1v32l-108 16v17h108h7l4 1l4 1l1 1h1l1 1l1 3l1 3l1 5v116l-29 -31l-41 -35l-48 -32l-26 -15l-27 -13l-30 -11l-4 8l66 59l38 37l17 19l29 38l12 19l13 23l30 -22v84
l-13 -1l-30 -35l-34 -32l-19 -15l-20 -14l-21 -12l-46 -24l-5 8l35 36l31 34l26 35l12 17l19 34l6 13h-1l6 9l53 -36l1 -1v42h-203v21h203l32 27l56 -45v18h203l32 27l59 -48l-27 -22v-274v-14l-3 -13l-4 -13l-7 -12l-8 -11l-11 -9l-12 -6l-13 -5l-14 -2l-14 -1v32l-64 16
v17zM305 208l-2 22l-3 20l-27 -25l-22 -18l-48 -33l-49 -31l-51 -28l-7 -4l-3 -20l-16 10l-36 56l10 4l53 20l52 21l26 12v243h-55v-65l-60 -30v441l60 -29h55v215l54 -11l13 -11l-13 -9v-184h57l27 27l54 -49l-27 -16v-279l-54 -27v27h-57v-218l61 28l-6 27l-6 21l-14 43
l-10 22l9 5l31 -37l14 -19l12 -21l10 -21l10 -23l7 -23l7 -24l6 -24l4 -25l-9 -23l-22 -10l-23 8l-11 22v22zM127 752v-274h55v274h-55zM236 752v-274h57v274h-57zM866 510l-28 16l-25 20l-2 1l-18 -14l-32 -18l-34 -14l-37 -10l-38 -5l-2 10l33 15l32 17l28 18l25 20l14 14
l-10 14l-15 28l-11 29l-7 32l-1 29h-30v21h156l32 27l60 -48l-27 -16l-11 -5l-6 -16l-18 -35l-22 -32l-18 -22l14 -9l24 -10l26 -8l77 -16l-64 -59l-34 11zM480 884v16l1 10l63 -20l14 -13l-21 -8l-4 -13l-4 -10h37l34 38l43 -38v-21h-54v-85h25l24 32l33 -32v-22h-84l-1 -7
l-4 -17l5 -1l12 -6l11 -7l11 -8l10 -10l11 -10l9 -11l9 -12l9 -13l1 -25l-8 -7l33 -30v-21h-245v-16l-59 -30v486l59 -30h131l44 48l54 -48v-21h-229v-182h75v85h-6l-17 -29l-21 -24l-11 -11l-11 -10l-7 6l6 12l12 42l5 28l3 15zM607 602l-7 23l-5 11l-9 21l-6 10l-4 7
l-4 -10l-11 -22l-12 -19l-15 -16l-18 -15l-19 -11l-20 -9l-22 -7l-4 9l17 12l15 14l12 15l9 15l9 15l5 17l4 17l3 19l1 20h-76v-164h147l24 26l-11 10zM750 712l11 -22l14 -26l16 -23l17 -19l5 -6l15 22l15 29l12 31l4 14h-109zM783 949h56l30 27l56 -49l-26 -18v-71l-1 -7
v-6l1 -3v-4l1 -2l2 -2l2 -3l5 -2l6 -2l8 -1h5l21 48h11l-11 -48l13 -9l9 -13l-9 -12l-13 -9h-39l-13 1l-11 3l-12 6l-10 7l-8 9l-7 11l-5 12l-4 13l-1 13v89h-56v-56l-3 -18l-5 -17l-7 -17l-8 -16l-10 -14l-12 -13l-13 -12l-14 -11l-33 -20l-5 7l13 13l11 14l9 14l7 14l5 13
l4 12l2 13l1 13v12l-1 13v108z" />
  </g>

</svg>
