<?xml version="1.0" standalone="no"?>
<!DOCTYPE svg PUBLIC "-//W3C//DTD SVG 1.1//EN" "http://www.w3.org/Graphics/SVG/1.1/DTD/svg11.dtd" >
<svg xmlns="http://www.w3.org/2000/svg" xmlns:xlink="http://www.w3.org/1999/xlink" version="1.1" viewBox="0 -144 1024 1024">
  <g transform="matrix(1 0 0 -1 0 880)">
   <path fill="currentColor"
d="M407 212l151 36v660h-94v22h385l54 53l64 -53v-22h-88v-590l82 14l3 -9l-85 -31v-212l-65 -32v223l-359 -112l-6 -19l-15 13zM39 204l49 12l1 593l59 -30h65l2 5l6 20l28 74l28 73v-1l3 6l55 -35l9 -17l-21 -1l-32 -48l-49 -64l-11 -12h151l27 27l54 -48l-27 -17v-449
l49 9l3 -10l-91 -35l-212 -73l-97 -31l-7 -20l-14 13zM148 758v-528l40 10v518h-40zM242 758v-506l46 11v495h-46zM622 473v-210l192 42v168h-192zM336 758v-485l46 9v476h-46zM622 704v-210h192v210h-192zM622 908v-183h192v183h-192z" />
  </g>

</svg>
