<?xml version="1.0" standalone="no"?>
<!DOCTYPE svg PUBLIC "-//W3C//DTD SVG 1.1//EN" "http://www.w3.org/Graphics/SVG/1.1/DTD/svg11.dtd" >
<svg xmlns="http://www.w3.org/2000/svg" xmlns:xlink="http://www.w3.org/1999/xlink" version="1.1" viewBox="0 -144 1024 1024">
  <g transform="matrix(1 0 0 -1 0 880)">
   <path fill="currentColor"
d="M816 130l-46 32l-45 37l-40 40l-39 44l-35 47l-32 51l-29 55l-18 44l-43 -35l-98 -70l-35 -20v-200l209 39l101 16l3 -9l-48 -19l-97 -31l-194 -56l-124 -31l-7 -19l-14 14l-24 60l131 24v174l-68 -34l-60 -28l-63 -25l-66 -23l-4 9l120 65l110 66l52 35l49 35l47 36
l44 37l42 38l40 40l44 -47l3 -20l-19 5l-21 -18l28 -41l35 -48l37 -45l38 -41l119 163l25 38l49 -42l6 -19l-21 3l-49 -49l-58 -54l-44 -36l-18 -13l31 -29l40 -34l44 -30l45 -26l46 -24l85 -34l-62 -52l-52 26zM73 866h407v125l64 -10l16 -11l-16 -10v-94h288l54 53l65 -53
v-22h-878v22z" />
  </g>

</svg>
