<?xml version="1.0" standalone="no"?>
<!DOCTYPE svg PUBLIC "-//W3C//DTD SVG 1.1//EN" "http://www.w3.org/Graphics/SVG/1.1/DTD/svg11.dtd" >
<svg xmlns="http://www.w3.org/2000/svg" xmlns:xlink="http://www.w3.org/1999/xlink" version="1.1" viewBox="0 -144 1024 1024">
  <g transform="matrix(1 0 0 -1 0 880)">
   <path fill="currentColor"
d="M801 167l-56 55l-13 16l-43 -44l-62 -50l-67 -43l-73 -35l-78 -28l-3 9l72 37l67 41l61 47l54 52l44 49l-8 9l-41 65l-34 69l-26 74l-20 78l-5 40l-13 -94l-21 -103l-26 -91l-29 -80l-34 -68l-39 -56l-43 -43l-48 -29l-5 8l39 36l34 45l31 56l27 66l24 78l20 89l16 100
l13 112l8 124l4 123h-126v22h374l32 27l59 -49l-27 -16l-12 -5l-61 -205h107l33 27l59 -48l-27 -16l-8 -3l-20 -68l-33 -83l-39 -78l-44 -70l-25 -33l18 -20l54 -48l60 -43l66 -39l26 -14l-61 -48l-69 45zM336 348l-9 16l-20 31l-41 49l-8 7v-376l-64 -32v427l-26 -26
l-41 -39l-45 -36l-47 -34l-6 7l78 84l36 42l51 67v2h1l42 61l51 90l22 46l10 24h-266v21h140v215l64 -11l16 -10l-16 -10v-184h69l2 2l30 25l59 -48l-26 -17l-13 -5l-41 -76l-29 -46l-31 -45l-26 -32h6v-63l23 -11l11 -6l3 5l46 81l6 12l5 11l4 10l1 4l-1 1l5 10l54 -36
l9 -17l-25 -1l-33 -34l-27 -24l-33 -26l-3 -3l34 -25l32 -30l13 -15l13 -17l12 -17l1 -25l-16 -18l-25 -2l-18 16l-6 16zM593 881l-7 -127l-6 -60l7 -41l20 -78l24 -72l31 -67l36 -63l39 -53l16 23l39 68l33 75l28 80l18 68h-110l-21 -70l-72 -12l103 329h-178z" />
  </g>

</svg>
