<?xml version="1.0" standalone="no"?>
<!DOCTYPE svg PUBLIC "-//W3C//DTD SVG 1.1//EN" "http://www.w3.org/Graphics/SVG/1.1/DTD/svg11.dtd" >
<svg xmlns="http://www.w3.org/2000/svg" xmlns:xlink="http://www.w3.org/1999/xlink" version="1.1" viewBox="0 -144 1024 1024">
  <g transform="matrix(1 0 0 -1 0 880)">
   <path fill="currentColor"
d="M361 581l6 10l54 -36l9 -17l-25 -1l-21 -22l-25 -24l-46 -38l-3 -3l17 -12l17 -13l16 -15l15 -15l14 -16l12 -16l12 -17l1 -25l-17 -19l-24 -1l-19 16l-5 16l-7 15l-8 16l-10 16l-11 15l-12 16l-28 33l-7 7v-376l-65 -32v426l-24 -25l-41 -38l-44 -37l-47 -34l-6 7l77 84
l35 42l50 67v2h2l41 61l26 45l24 45l22 46l10 24h-262v21h137v215l65 -11l16 -10l-16 -10v-184h67l32 27l59 -48l-27 -17l-12 -5l-14 -28l-26 -48l-29 -46l-31 -45l-25 -32h6v-63l22 -11l11 -6l33 57l15 28l11 24l3 10l1 4zM776 317h61l5 1l3 1l1 1l1 1l1 1l1 1l1 3l1 5v250
l-111 -44v-306l-64 -33v314l-98 -38v-323l1 -5l1 -3l1 -3l2 -1l2 -1l3 -1l5 -1h7h320l32 134h11l-11 -134l20 -13l13 -20l-13 -19l-20 -13h-352l-14 1l-14 2l-13 5l-12 6l-11 9l-8 11l-7 12l-5 13l-2 14v13v292l-77 -31l-8 20l85 33v213l64 -10l16 -11l-16 -10v-156l98 38
v219l64 -10l17 -11l-17 -10v-163l111 44v12l32 27l60 -49l-27 -21v-235l-1 -14l-2 -13l-5 -13l-6 -12l-9 -11l-11 -9l-12 -6l-13 -5l-13 -2l-14 -1v33l-54 16v16zM637 966l13 -14l-20 -6l-7 -24l-15 -42l-17 -41l-18 -39l-5 -9h276l53 54l65 -54v-21h-405l-26 -44l-23 -35
l-25 -32l-27 -31l-30 -28l-7 7l40 68l36 70l17 37l15 37l14 39l12 40l12 41l12 52z" />
  </g>

</svg>
