<?xml version="1.0" standalone="no"?>
<!DOCTYPE svg PUBLIC "-//W3C//DTD SVG 1.1//EN" "http://www.w3.org/Graphics/SVG/1.1/DTD/svg11.dtd" >
<svg xmlns="http://www.w3.org/2000/svg" xmlns:xlink="http://www.w3.org/1999/xlink" version="1.1" viewBox="0 -144 1024 1024">
  <g transform="matrix(1 0 0 -1 0 880)">
   <path fill="currentColor"
d="M286 350l-14 31l-9 16l-21 31l-13 17v-370l-65 -32v419l-50 -55l-39 -37l-41 -35l-6 7l64 83l59 85l13 21v6h4l34 59l22 45l21 45l19 46l9 26h-224v21h115v215l65 -11l16 -10l-16 -10v-184h49l32 27l60 -48l-27 -17l-11 -4l-35 -75l-25 -46l-50 -79h7v-65l16 -10l8 -5
l3 4l23 51l13 29l4 12l4 12l4 13l-1 1l5 11l56 -33l10 -17l-26 -3l-8 -10l-32 -34l-42 -40l-3 -3l17 -13l15 -14l28 -29l12 -16l11 -17l10 -17v-24l-17 -18h-25l-17 17l-5 16zM790 123h64l7 1l5 1l3 1h2l1 2l1 1l1 1l1 3v5l1 7v102l-23 -24l-10 17l-15 32l-12 32l-10 34
l-9 34l-5 26l-12 -38l-15 -38l-19 -34l-19 -29l-24 -24l-7 -6v-143l-65 -33v188l-23 -23l-9 17l-15 31l-12 32l-11 34l-8 34l-5 28l-12 -39l-16 -38l-18 -34l-20 -29l-23 -24l-3 -3v-152l-65 -32v725l65 -32h175v140h-277v21h512l54 54l65 -54v-21h-289v-140h180l32 27
l59 -48l-27 -22v-548l-1 -14l-2 -13l-4 -13l-7 -12l-9 -11l-10 -9l-13 -7l-13 -4l-13 -2l-14 -1v32l-64 16v16zM696 715v-452l6 12l13 29l12 33l10 36l8 41l7 44l5 48l3 52l1 44h-59v21h59l33 27l59 -48l-27 -16l-2 -1l-3 -32l-4 -30l7 -39l7 -33l9 -33l10 -31l11 -30
l13 -29l2 -3v390h-180zM456 715v-450l15 34l11 32l10 37l9 40l6 44l5 49l4 52l1 43h-59v22h59l32 27l59 -49l-27 -16l-2 -1l-2 -31l-4 -30l7 -39l7 -34l9 -33l10 -31l11 -30l13 -28l1 -2v394h-175z" />
  </g>

</svg>
