<?xml version="1.0" standalone="no"?>
<!DOCTYPE svg PUBLIC "-//W3C//DTD SVG 1.1//EN" "http://www.w3.org/Graphics/SVG/1.1/DTD/svg11.dtd" >
<svg xmlns="http://www.w3.org/2000/svg" xmlns:xlink="http://www.w3.org/1999/xlink" version="1.1" viewBox="0 -144 1024 1024">
  <g transform="matrix(1 0 0 -1 0 880)">
   <path fill="currentColor"
d="M307 349l-7 16l-19 31l-11 16l-30 37v-374l-65 -32v423l-19 -21l-39 -39l-41 -37l-44 -34l-7 7l71 84l64 84l15 23v4h3l38 60l24 44l23 46l20 46l9 25h-243v21h126v215l65 -11l16 -10l-16 -10v-184h59l32 27l59 -48l-27 -17l-11 -4l-13 -29l-25 -47l-27 -46l-53 -78h6
v-64l19 -11l9 -5l31 56l14 28l9 25l3 10l1 3l-1 1l5 10l55 -34l10 -17l-25 -2l-43 -45l-28 -26l-17 -13l-3 -3l34 -26l29 -29l25 -33l11 -17v-24l-17 -19h-24l-18 16l-5 16zM809 346l4 4h1l39 -51l1 -19l-22 8l-32 -16l-30 -13l-34 -13l-18 -6l-2 -1v-105l-1 -13l-2 -14
l-4 -13l-7 -12l-9 -11l-11 -9l-12 -7l-13 -4l-13 -2l-14 -1v32l-86 16v16h86l7 1l5 1l4 2l3 2l1 5l1 5l1 6v263l64 -10l16 -11l-16 -10v-109l69 64l19 19zM394 145l47 12l47 12l99 27l51 13l4 -9l-45 -29l-45 -26l-46 -22l-70 -30l-1 -1l-6 -20l-15 11l-30 59zM871 112
l-28 24l-32 22l-17 11l-38 20l-20 9l2 10l23 -3l22 -2l23 -5l21 -5l40 -16l20 -10l19 -11l17 -12l17 -13l9 -23l-9 -23l-23 -9l-23 9zM939 230l-46 50l-30 37l-28 41l-14 22l-23 44h-250l37 -26l9 -17h-20l-28 -40l-13 -15l11 -2l14 -3l14 -4l24 -12l12 -7l10 -8l10 -9
l8 -10l1 -25l-15 -18l-25 -2l-19 16l-1 7l-2 8l-3 7l-5 8l-13 17l-9 8l-20 18l-21 -22l-22 -21l-22 -19l-23 -16l-24 -14l-24 -11l-25 -7l-4 9l55 50l34 39l33 46l32 52l12 23h-124v22h162v91h-147v22h147v96l64 -10l16 -11l-16 -10v-65h100v102l65 -11l16 -11l-16 -9v-71
h64l44 48l53 -48v-22h-161v-91h72l54 54l64 -54v-22h-168l101 -88l35 -27l33 -23l14 -12zM628 537v-91h100v91h-100zM508 930h341l32 27l59 -49l-26 -21v-232l-65 -32v54h-341v-38l-65 -32v355zM508 795v-97h341v97h-341zM508 908v-91h341v91h-341z" />
  </g>

</svg>
