<?xml version="1.0" standalone="no"?>
<!DOCTYPE svg PUBLIC "-//W3C//DTD SVG 1.1//EN" "http://www.w3.org/Graphics/SVG/1.1/DTD/svg11.dtd" >
<svg xmlns="http://www.w3.org/2000/svg" xmlns:xlink="http://www.w3.org/1999/xlink" version="1.1" viewBox="0 -144 1024 1024">
  <g transform="matrix(1 0 0 -1 0 880)">
   <path fill="currentColor"
d="M727 372l14 -12l-19 -9l-6 -31l-15 -49l-21 -45l-24 -40l-29 -35l-34 -32l-37 -26l-42 -22l-46 -17l-49 -10l-3 9l45 21l39 22l35 26l31 28l26 30l22 34l18 36l14 40l10 43l7 47l1 11zM44 642h184v172h-135v21h135v156l64 -10l16 -11l-16 -10v-125h26l34 38l40 -35l14 33
l29 80v-1l3 8l57 -30l12 -16l-20 -3l-25 -62l-36 -77l-39 -74l-31 -54h59l53 54l65 -54v-21h-190l-41 -64l-43 -60h144l33 27l59 -49l-27 -21v-333l-65 -32v32h-172v-38l-64 -32v337l-14 -16l-55 -54l-59 -50l-7 7l99 116l36 47v91l48 -24l48 76l23 40h-242v21zM959 279h10
l-10 -134l19 -13l13 -20l-13 -19l-19 -13h-121l-14 1l-13 2l-13 5l-12 7l-11 8l-9 11l-6 12l-4 13l-3 14l-1 13v235h-112v-65l-64 -32v651l64 -32h218l32 27l60 -48l-27 -22v-512l-65 -32v65h-41v-235v-6l1 -5l1 -3l1 -2l1 -1l1 -1l2 -1l3 -1l5 -1h6h88zM231 303v-160h172
v160h-172zM242 475l-11 -13v-137h172v150h-161zM640 575v-153h218v153h-218zM640 738v-142h218v142h-218zM292 814v-172h6l41 78l35 75l8 19h-90zM640 902v-142h218v142h-218z" />
  </g>

</svg>
