<?xml version="1.0" standalone="no"?>
<!DOCTYPE svg PUBLIC "-//W3C//DTD SVG 1.1//EN" "http://www.w3.org/Graphics/SVG/1.1/DTD/svg11.dtd" >
<svg xmlns="http://www.w3.org/2000/svg" xmlns:xlink="http://www.w3.org/1999/xlink" version="1.1" viewBox="0 -144 1024 1024">
  <g transform="matrix(1 0 0 -1 0 880)">
   <path fill="currentColor"
d="M598 876l4 5l1 -1l27 23l59 -49l-26 -16l-18 -7l-22 -29l-27 -31l-14 -16l-32 -30l-6 -5h215l33 27l59 -49l-27 -21v-543l-1 -13l-2 -14l-5 -13l-7 -12l-8 -11l-11 -9l-12 -7l-13 -4l-14 -2l-13 -1v32l-65 16v16h65l6 1l5 1l5 2l2 2l2 5l1 5v6v215h-209v-253l-65 -32v285
h-204v-274l-65 -32v666l-22 -23l-34 -31l-36 -29l-39 -28l-6 7l61 70l28 35l49 68l22 34l19 35l17 35l14 35l12 30h-1l5 13l58 -30l11 -16l-20 -4l-8 -17l-9 -17h261zM281 526v-155h204v155h-204zM550 526v-155h209v155h-209zM281 698v-150h204v150h-204zM550 698v-150h209
v150h-209zM326 854l-22 -34l-24 -35l-26 -34l-11 -12l38 -19h238l42 76l26 51l3 7h-264z" />
  </g>

</svg>
