<?xml version="1.0" standalone="no"?>
<!DOCTYPE svg PUBLIC "-//W3C//DTD SVG 1.1//EN" "http://www.w3.org/Graphics/SVG/1.1/DTD/svg11.dtd" >
<svg xmlns="http://www.w3.org/2000/svg" xmlns:xlink="http://www.w3.org/1999/xlink" version="1.1" viewBox="0 -144 1024 1024">
  <g transform="matrix(1 0 0 -1 0 880)">
   <path fill="currentColor"
d="M936 908v-21h-220v-425h150l54 54l65 -54v-22h-269v-365l-64 -32v397h-268v22h268v425h-220v21h385l54 54zM139 344h165l33 27l59 -49l-27 -21v-205l-65 -32v54h-165v-38l-64 -32v328zM139 322v-183h165v183h-165zM367 478v-21h-290v21h172l54 54zM918 780l12 -16l-20 -4
l-14 -31l-25 -53l-44 -82l-35 -57l-20 -28l-9 3l21 66l50 145l26 86zM520 605l-6 26l-15 51l-17 49l-26 73l8 6l18 -20l17 -21l29 -45l14 -24l23 -52l20 -54l8 -28l-5 -25l-20 -14l-24 5l-14 20l-5 27zM367 618v-22h-290v22h172l54 54zM414 768v-21h-358v21h239l54 54z
M367 908v-21h-290v21h172l54 54z" />
  </g>

</svg>
