<?xml version="1.0" standalone="no"?>
<!DOCTYPE svg PUBLIC "-//W3C//DTD SVG 1.1//EN" "http://www.w3.org/Graphics/SVG/1.1/DTD/svg11.dtd" >
<svg xmlns="http://www.w3.org/2000/svg" xmlns:xlink="http://www.w3.org/1999/xlink" version="1.1" viewBox="0 -144 1024 1024">
  <g transform="matrix(1 0 0 -1 0 880)">
   <path fill="currentColor"
d="M132 344h154l32 27l59 -49l-27 -21v-205l-64 -32v54h-154v-38l-64 -32v328zM386 645h235v172h-176v21h176v156l65 -11l16 -10l-16 -10v-125h15l54 54l65 -54v-3l15 26l39 74l3 5l54 -35l9 -17l-19 -1l-33 -57l-46 -71l-49 -66l-39 -48h113l54 53l64 -53v-22h-249l-48 -51
l-56 -54l-41 -35h231l32 27l59 -48l-27 -22v-343l-64 -32v53h-256v-37l-65 -33v369l-51 -33l-67 -33l-5 8l60 43l58 45l5 5v64l47 -23l56 54l51 56l17 20h-286v22zM132 322v-183h154v183h-154zM566 295v-155h256v155h-256zM566 462v-145h256v145h-256zM347 478v-21h-276v21
h158l53 54zM347 618v-22h-276v22h158l53 54zM686 817v-172h3l61 79l43 66l16 27h-123zM391 768v-21h-339v21h220l54 54zM347 908v-21h-276v21h158l53 54z" />
  </g>

</svg>
