<?xml version="1.0" standalone="no"?>
<!DOCTYPE svg PUBLIC "-//W3C//DTD SVG 1.1//EN" "http://www.w3.org/Graphics/SVG/1.1/DTD/svg11.dtd" >
<svg xmlns="http://www.w3.org/2000/svg" xmlns:xlink="http://www.w3.org/1999/xlink" version="1.1" viewBox="0 -144 1024 1024">
  <g transform="matrix(1 0 0 -1 0 880)">
   <path fill="currentColor"
d="M284 207h477l33 27l59 -48l-27 -22v-73l-65 -32v32h-477l-65 -32v180zM284 186v-74h477v74h-477zM809 278v-21h-573v21h497l33 38zM809 354v-22h-573v22h497l33 37zM981 434v-21h-917v21h841l33 38zM836 501v-22h-626v22h528l44 48zM324 811l16 -11l-16 -10v-37h133
l33 37l44 -37v-22h-239l-13 -31l-9 -17h142l32 27l60 -48l-27 -16l-1 -1l-1 -14l-1 -12l-2 -11l-2 -10l-3 -10l-5 -9l-6 -10l-9 -8l-10 -8l-22 -12l-11 -5l-12 -5l-11 -3l-12 -3l-13 -2l-12 -1h-12v32l-97 16v16h97l16 1l16 3l8 3l7 2l15 8l7 4l5 3l1 4l1 6l2 7l1 10l1 22v3
h-155l-13 -21l-21 -26l-24 -26l-26 -23l-29 -21l-31 -19l-34 -17l-36 -14l-4 9l58 46l48 46l20 24l18 25l15 26l14 25l10 28l2 7h-167v22h199v62h-209v22h209v52h-161v22h161v79l65 -11l16 -11l-16 -9v-48h90l44 48l54 -48v-22h-188v-52h165l34 37l43 -37v-22h-268zM843 557
l-38 22l-34 26l-22 21l-31 -21l-48 -26l-54 -23l-60 -18l-64 -13l-3 9l61 24l54 24l49 28l42 29l24 20l-7 9l-24 36l-19 41l-16 43l-4 20l-10 -17l-17 -25l-20 -25l-21 -22l-23 -20l-7 6l28 53l24 52l10 27l9 27l8 27l6 29l6 30l3 24l2 16l62 -21l14 -14l-19 -7l-2 -11
l-10 -32l-11 -30l-1 -3h181l54 53l65 -53v-22h-87l-14 -50l-20 -47l-27 -43l-32 -39l-11 -11l15 -11l31 -19l34 -15l37 -12l86 -20l-63 -59l-45 15zM670 850l-12 -24l16 -30l23 -37l24 -33l25 -29l6 -5l11 12l24 35l20 38l14 41l6 32h-157z" />
  </g>

</svg>
