<?xml version="1.0" standalone="no"?>
<!DOCTYPE svg PUBLIC "-//W3C//DTD SVG 1.1//EN" "http://www.w3.org/Graphics/SVG/1.1/DTD/svg11.dtd" >
<svg xmlns="http://www.w3.org/2000/svg" xmlns:xlink="http://www.w3.org/1999/xlink" version="1.1" viewBox="0 -144 1024 1024">
  <g transform="matrix(1 0 0 -1 0 880)">
   <path fill="currentColor"
d="M848 70l-24 12l-26 12l-30 12l-69 23l-129 37l2 10l48 -3l44 -4l42 -5l39 -7l36 -7l33 -8l30 -10l28 -9l25 -11l23 -12l13 -20l-5 -25l-20 -13l-25 5l-16 11zM403 183l36 -35v-18l-19 8l-47 -19l-63 -20l-74 -19l-84 -19l-46 -8l-50 -6l-3 9l171 63l69 27l57 27l45 25z
M174 745l-3 15l-3 8l-7 16l-10 17l-8 6l3 5h-107v22h215v65h-172v21h172v77l64 -11l17 -11l-17 -9v-46h65l54 54l64 -54v-21h-183v-65h123l44 48l54 -48v-22h-134l33 -27l6 -18l-26 2l-17 -12l-33 -21l-13 -8h81l44 48l54 -48v-21h-216v-66h75l44 49l53 -49v-21h-172v-65
l-59 -29l16 -8h474l32 27l59 -49l-27 -21v-263l-64 -32v32h-474v-16l-64 -32v386l43 -21v91h-177v21h177v66h-210v21h133l-2 3zM275 307v-73h474v73h-474zM275 402v-73h474v73h-474zM275 496v-73h474v73h-474zM718 676l-14 15l-7 6l-10 -18l-20 -28l-24 -25l-27 -21l-31 -18
l-34 -13l-37 -10l-4 9l32 19l28 20l24 21l20 22l16 23l13 24l10 27l1 3l-26 16l-51 27l-29 13l2 9l32 -4l31 -6l28 -8l20 -7l2 14v79h-124v22h124v110l64 -11l16 -11l-16 -9v-79h86l32 26l59 -48l-26 -16l-2 -1l-1 -28l1 -47l4 -43l7 -36l9 -31l11 -25l12 -19l12 -12l27 118
h11l-10 -133l6 -2l20 -14l4 -24l-14 -20l-24 -5l-31 11l-28 17l-24 24l-18 29l-15 33l-11 39l-8 42l-4 47l-1 52l2 44h-86v-47l-4 -38l-7 -33l22 -15l20 -15l18 -17l17 -18l4 -24l-12 -21l-25 -5l-21 13l-9 16zM157 810l10 -3l11 -4l9 -5l9 -5l10 -6l8 -7l8 -8l7 -9l6 -10
l-1 -24l-1 -1h99l3 3l28 45l15 30l3 6h-228z" />
  </g>

</svg>
