<?xml version="1.0" standalone="no"?>
<!DOCTYPE svg PUBLIC "-//W3C//DTD SVG 1.1//EN" "http://www.w3.org/Graphics/SVG/1.1/DTD/svg11.dtd" >
<svg xmlns="http://www.w3.org/2000/svg" xmlns:xlink="http://www.w3.org/1999/xlink" version="1.1" viewBox="0 -144 1024 1024">
  <g transform="matrix(1 0 0 -1 0 880)">
   <path fill="currentColor"
d="M654 75l-118 11l-103 18l-88 24l-74 31l-59 38l-43 45l-25 51l-1 7l-9 -45l-11 -44l-14 -40l-14 -38l-17 -33l-19 -29l-22 -25l-8 5l12 29l10 32l10 34l10 36l7 40l7 42l5 45l4 49l2 51l2 55v12l64 -15l16 -11l-18 -10l-2 -35l-7 -53l-2 -12l15 -38l30 -40l41 -34l19 -10
v378l64 -10l17 -11l-17 -10v-157h102l44 49l53 -49v-21h-199v-197l41 -14l85 -18l99 -13l114 -7h129l144 5l60 2l-58 -73l-146 -1zM899 493l-41 43l-23 20l-50 36l-28 17l-59 31l-3 1v-448l-65 -32v833l65 -11l16 -10l-16 -10v-302l9 -2l35 -8l33 -10l32 -13l30 -14l30 -17
l28 -19l26 -20l25 -22l24 -25l7 -23l-11 -22l-24 -7l-22 11zM50 618h204v172h-188v21h188v183l64 -11l17 -10l-17 -10v-152h76l53 54l65 -54v-21h-194v-172h86l54 54l65 -54v-22h-473v22z" />
  </g>

</svg>
