<?xml version="1.0" standalone="no"?>
<!DOCTYPE svg PUBLIC "-//W3C//DTD SVG 1.1//EN" "http://www.w3.org/Graphics/SVG/1.1/DTD/svg11.dtd" >
<svg xmlns="http://www.w3.org/2000/svg" xmlns:xlink="http://www.w3.org/1999/xlink" version="1.1" viewBox="0 -144 1024 1024">
  <g transform="matrix(1 0 0 -1 0 880)">
   <path fill="currentColor"
d="M724 117h71l5 1l3 1l2 2h1l1 1l2 5l1 5v7v127h-229v-186l-65 -33v511l-20 -22l-43 -40l-46 -37l-7 7l38 44l70 91l8 13v3h2l21 32l28 49l27 51l23 53l21 55l18 56l16 59l2 9l60 -26l13 -15l-20 -5l-13 -41l-3 -9l33 -58l51 -81l28 -37l28 -35l29 -32l30 -30l31 -28
l47 -36l-59 -44l-33 31l-13 14l-8 -7v-403l-1 -14l-2 -14l-5 -13l-7 -12l-8 -11l-11 -8l-12 -7l-13 -5l-14 -2h-13v32l-65 16v16zM46 147l43 12v357l59 -11l15 -11l-15 -9v-310l63 19v435h-60v-17l-65 -32v360l65 -32h168l32 27l59 -48l-26 -22v-269l-65 -32v65h-48v-199h53
l33 37l43 -37v-22h-129v-195l135 44l4 -9l-63 -40l-66 -34l-67 -31l-69 -29l-48 -18l-6 -20l-16 13zM581 420v-133h229v133h-229zM581 564v-123h229v123h-229zM700 857l-34 -77l-28 -54l-31 -51l-34 -49l-21 -26l29 -15h229l24 20l-27 35l-26 40l-24 42l-22 44l-20 47z
M151 887v-237h168v237h-168zM980 745v-22h-166v22h90l33 37zM581 750v-21h-167v21h91l33 38zM976 883v-21h-188v21h112l33 38zM607 883v-21h-193v21h116l34 38z" />
  </g>

</svg>
