<?xml version="1.0" standalone="no"?>
<!DOCTYPE svg PUBLIC "-//W3C//DTD SVG 1.1//EN" "http://www.w3.org/Graphics/SVG/1.1/DTD/svg11.dtd" >
<svg xmlns="http://www.w3.org/2000/svg" xmlns:xlink="http://www.w3.org/1999/xlink" version="1.1" viewBox="0 -144 1024 1024">
  <g transform="matrix(1 0 0 -1 0 880)">
   <path fill="currentColor"
d="M674 71l-99 6l-81 10l-65 14l-53 19l-42 23l-33 27l-24 31l-12 20l-31 -31l-58 -48l-58 -44l-18 -13l-2 -22l-17 9l-42 50l9 5l161 81v265h-160v21h160l33 27l59 -48l-27 -22v-219l19 -16l29 -22l31 -18l39 -14l48 -12l62 -8l77 -6l96 -1l116 2l200 8l-58 -73l-141 -3z
M466 917h395l33 27l59 -48l-27 -22v-181l-65 -33v65h-395v-91l-3 -55l-4 -53l-6 -51l-9 -47l-10 -45l-12 -42l-14 -39l-17 -37l-19 -33l-21 -29l-8 5l13 32l11 35l10 37l9 38l7 41l6 44l4 46l3 49l1 51v53v313zM920 404h10l-10 -135l19 -12l13 -20l-13 -19l-19 -13h-310
l-14 1l-14 3l-12 5l-12 6l-11 9l-8 11l-6 12l-4 13l-2 13v415l59 -11l14 -11l-14 -9v-189l106 38l100 40l91 45l5 2l6 -12l40 -38l1 -17l-21 8l-68 -27l-71 -22l-36 -10l-36 -8l-36 -7l-36 -6l-37 -4h-8v-164v-6l1 -6l3 -5l1 -1l2 -1l2 -1h3l5 -1l7 -1h277zM179 644l-25 27
l-27 26l-31 25l-16 12l-17 12l3 9l42 -11l39 -16l19 -10l35 -21l17 -13l32 -27l8 -24l-11 -22l-24 -7l-22 11zM466 896v-150h395v150h-395zM231 833l-22 28l-25 27l-45 39l-18 12l4 9l41 -14l20 -8l37 -18l17 -12l32 -24l15 -14l14 -14l5 -24l-12 -22l-24 -5l-21 12z" />
  </g>

</svg>
