<?xml version="1.0" standalone="no"?>
<!DOCTYPE svg PUBLIC "-//W3C//DTD SVG 1.1//EN" "http://www.w3.org/Graphics/SVG/1.1/DTD/svg11.dtd" >
<svg xmlns="http://www.w3.org/2000/svg" xmlns:xlink="http://www.w3.org/1999/xlink" version="1.1" viewBox="0 -144 1024 1024">
  <g transform="matrix(1 0 0 -1 0 880)">
   <path fill="currentColor"
d="M394 509v-15l-2 -48l-3 -43l-5 -41l-6 -36l-7 -33l-9 -30l-5 -13h98h6l5 1l4 1l1 1l2 2l2 5l1 5l1 6v238h-83zM394 706v-175h83v175h-83zM394 895v-168h83v168h-83zM222 789l-23 32l-28 32l-33 33l-38 32l5 8l47 -19l22 -11l41 -27l36 -29l16 -17l14 -17l14 -18l3 -24
l-14 -20l-25 -3l-20 14zM890 316l-32 87l-22 52l-29 57l8 -40l6 -51l2 -52l-1 -53l-6 -54l-3 -13l-4 -13l-7 -12l-8 -11l-9 -10l-11 -7l-13 -6l-12 -4l-14 -3l-13 -1v33l-108 16v16h108h6l5 1l5 2l3 1l2 2l2 2l2 3l4 9l10 55l5 49l1 47l-2 42l-20 -31l-22 -31l-24 -29
l-24 -27l-26 -25l-27 -23l-29 -21l-30 -19l-6 8l66 78l40 57l36 60l32 65l15 34l6 -3l-13 52l-2 6l-26 -35l-38 -44l-42 -41l-23 -19l-24 -18l-26 -17l-7 7l71 94l31 46l27 46l24 46l12 -6l-12 28l-14 31l-16 -18l-49 -46l-28 -21l-29 -19l-5 7l80 105l34 53l29 54l12 28
l1 4h-159v13l-19 -16v-602l-1 -13l-2 -14l-4 -13l-7 -12l-9 -11l-11 -9l-12 -6l-13 -5l-14 -2l-13 -1v32l-105 16l-10 -18l-12 -15l28 -18l38 -17l49 -13l60 -9l77 -6l95 -2l116 2l199 8l-58 -73l-140 -3l-118 2l-97 7l-81 10l-66 15l-53 21l-42 25l-33 30l-25 34l-11 22
l-30 -31l-77 -69l-59 -48l1 -21l-18 7l-46 47l9 6l150 88l18 10v324h-164v21h164l29 27l57 -48l-27 -19v-280l22 -22l17 -15l4 13l5 22l5 25l4 28l3 32l2 35l1 38v43l-1 46v452l59 -30h83l32 27l56 -46h264l54 54l64 -54v-21h-158l-33 -60l-38 -54l-19 -23l23 -31l27 -44
l8 -16l3 -2l-1 -2l13 -26l12 -33l53 76l40 56l2 1l45 -45l5 -19l-22 5l-50 -42l-31 -22l-32 -22l-4 -3l1 -1l12 -9l19 -18l18 -19l18 -22l33 -48l16 -27l29 -57l14 -31l-1 -24l-18 -18l-24 2z" />
  </g>

</svg>
