<?xml version="1.0" standalone="no"?>
<!DOCTYPE svg PUBLIC "-//W3C//DTD SVG 1.1//EN" "http://www.w3.org/Graphics/SVG/1.1/DTD/svg11.dtd" >
<svg xmlns="http://www.w3.org/2000/svg" xmlns:xlink="http://www.w3.org/1999/xlink" version="1.1" viewBox="0 -144 1024 1024">
  <g transform="matrix(1 0 0 -1 0 880)">
   <path fill="currentColor"
d="M677 71l-99 6l-81 10l-66 14l-53 19l-42 23l-33 27l-25 31l-12 20l-50 -47l-39 -32l-58 -44l-19 -13l-1 -22l-18 9l-42 50l10 5l162 82v264h-161v21h161l32 27l59 -48l-27 -22v-219l19 -16l18 -13l6 16l13 37l11 39l10 41l8 43l6 46l5 48l3 51l1 55l-1 56v330l65 -33h438
l32 27l59 -48l-26 -22v-123l-65 -32v43h-438v-142l-3 -59l-5 -55l-6 -54l-9 -50l-12 -48l-13 -44l-16 -42l-18 -38l-21 -35l-12 -16l31 -18l39 -14l49 -12l61 -8l78 -6l96 -1l117 2l201 8l-58 -73l-142 -3zM725 524l17 -10l-17 -10v-66h78l44 49l54 -49v-21h-176v-94h126
l54 54l64 -54v-21h-244v-105l-64 -32v137h-238v21h238v94h-129l-14 -20l-14 -16l-15 -15l-34 -27l-7 7l12 17l19 36l7 17l7 18l6 17l4 17l3 18l3 17l1 12h-1l2 16l63 -20l14 -13l-20 -8l-8 -20l-8 -19l-7 -13h116v97zM725 729l17 -11l-17 -9v-127l-64 -32v190zM639 595v-21
h-181v21h104l34 38zM928 595v-21h-181v21h105l33 38zM203 615l-35 42l-26 27l-45 38l-16 12l-18 12l4 9l41 -11l40 -16l37 -20l17 -11l34 -26l15 -14l8 -24l-11 -22l-23 -7zM928 692v-21h-181v21h105l33 38zM639 692v-21h-181v21h104l34 38zM251 805l-29 42l-24 27l-42 40
l-17 13l-17 12l4 9l21 -7l20 -7l39 -16l18 -10l34 -24l15 -12l29 -28l6 -24l-12 -22l-24 -5zM439 911v-113h438v113h-438z" />
  </g>

</svg>
