<?xml version="1.0" standalone="no"?>
<!DOCTYPE svg PUBLIC "-//W3C//DTD SVG 1.1//EN" "http://www.w3.org/Graphics/SVG/1.1/DTD/svg11.dtd" >
<svg xmlns="http://www.w3.org/2000/svg" xmlns:xlink="http://www.w3.org/1999/xlink" version="1.1" viewBox="0 -144 1024 1024">
  <g transform="matrix(1 0 0 -1 0 880)">
   <path fill="currentColor"
d="M507 344v-124h263v124h-263zM909 335l-69 47l-61 54l-37 39l-16 21l-15 23l7 7l111 -69l24 -14l1 2l4 14l9 25l8 24l3 11l2 7h-287l-28 -35l-24 -26l-25 -25l-52 -45l-7 -5l50 -25h263l32 27l59 -48l-26 -22v-134l-65 -33v43h-263v-16l-62 -31l58 -8l77 -6l95 -2l116 2
l199 8l-58 -73l-140 -3l-118 2l-97 7l-81 10l-66 15l-53 21l-42 25l-33 30l-25 34l-11 22l-30 -31l-77 -69l-59 -48l1 -21l-18 7l-46 47l9 6l150 88l15 8v326h-161v21h161l32 27l59 -48l-27 -22v-279l20 -20l29 -25l32 -20l38 -17l48 -13v228l-36 -23l-31 -18l-32 -14
l-33 -12l-5 8l81 64l48 45l43 48l37 48h-129l1 -4l3 -15l2 -16l-1 -16l-3 -16l-5 -17l-7 -16l-20 -14l-24 4l-14 21l4 24l8 8l7 10l5 9l5 9l4 11l2 11l1 13l1 13l-1 14l-4 15l8 4l8 -14l9 -13l4 -8v5h26v355l65 -33h103l3 6l20 41l7 12l31 60l3 2l48 -43l6 -18l-23 3
l-13 -11l-44 -36l-12 -10l-8 -6h223l32 27l59 -48l-26 -22v-279h5l32 27l59 -49l-27 -16l-20 -8l-22 -26l-30 -29l-11 -9l-1 -1l56 -29l50 -26zM469 602v-54h134v54h-134zM668 602v-54h145v54h-145zM469 688v-65h344v65h-344zM469 768v-59h344v59h-344zM222 789l-23 32
l-28 32l-33 33l-38 32l5 8l47 -19l22 -11l41 -27l36 -29l16 -17l14 -17l14 -18l3 -24l-14 -20l-25 -3l-20 14zM469 849v-59h344v59h-344z" />
  </g>

</svg>
