<?xml version="1.0" standalone="no"?>
<!DOCTYPE svg PUBLIC "-//W3C//DTD SVG 1.1//EN" "http://www.w3.org/Graphics/SVG/1.1/DTD/svg11.dtd" >
<svg xmlns="http://www.w3.org/2000/svg" xmlns:xlink="http://www.w3.org/1999/xlink" version="1.1" viewBox="0 -144 1024 1024">
  <g transform="matrix(1 0 0 -1 0 880)">
   <path fill="currentColor"
d="M730 115h75h6l5 1l4 1l2 1v1l1 1l1 2l1 3l1 5v6v97h-269v-154l-64 -32v494l64 -32h269l33 27l59 -49l-27 -21v-330l-1 -13l-2 -14l-5 -13l-6 -12l-9 -11l-11 -9l-12 -6l-13 -5l-14 -2l-13 -1v32l-75 16v17zM436 903v-22h-137v-150h53l30 27l56 -49l-27 -19v-567l-59 -29
v61h-228v-64l-64 -32v704l64 -32h39v150h-125v22h279l54 54zM124 290v-113h228v113h-228zM557 360v-105h269v105h-269zM352 709h-53v-226l1 -7l2 -5l1 -5l4 -4h1l29 110h11l-11 -113l15 -10v260zM124 709v-331l5 11l7 23l7 26l7 30l4 33l5 36l2 40l3 45v47l-1 40h-39z
M557 487v-105h269v105h-269zM797 557l-58 9l-52 14l-45 19l-39 24l-30 29l-22 34l-5 13l-13 -27l-16 -30l-19 -27l-21 -27l-24 -24l-26 -22l-7 6l18 29l30 56l12 28l11 28l9 29l7 30l6 31l3 31l1 32l1 12l64 -17l15 -12l-18 -9l-2 -14l-8 -35l-10 -33l-1 -3l20 -28l22 -23
l29 -20l31 -14v274h-206v21h427l5 4l4 8l3 -2l21 17l59 -48l-27 -16l-45 -19l-53 -34l-11 -10l-7 7l9 12l13 24l20 36h-148v-145h83l44 49l53 -49v-21h-180v-125l25 -5l53 -4h61l127 7l-55 -74l-72 -1zM217 881v-150h34v150h-34zM315 402l-13 2l-11 5l-12 7l-9 8l-9 10
l-5 12l-4 12l-1 13v238h-35l-1 -41l-4 -49l-4 -46l-7 -41l-8 -38l-10 -35l-11 -30l-13 -27l-15 -22l-16 -17l-3 2v-54h228v99l-15 -10h-8z" />
  </g>

</svg>
