<?xml version="1.0" standalone="no"?>
<!DOCTYPE svg PUBLIC "-//W3C//DTD SVG 1.1//EN" "http://www.w3.org/Graphics/SVG/1.1/DTD/svg11.dtd" >
<svg xmlns="http://www.w3.org/2000/svg" xmlns:xlink="http://www.w3.org/1999/xlink" version="1.1" viewBox="0 -144 1024 1024">
  <g transform="matrix(1 0 0 -1 0 880)">
   <path fill="currentColor"
d="M859 138l-27 35l-30 35l-33 33l-18 16l-11 -16l-48 -58l-57 -48l-62 -39l-70 -28l-74 -19l-3 9l70 29l62 35l56 41l47 48l42 56l12 21l-60 45l-43 29l-15 10l-13 -57l-70 -17l80 352h-106v22h111l71 314l61 -26l13 -14l-17 -5l-62 -269h205l54 53l64 -53v-22h-110
l-12 -92l-21 -92l-28 -84l-35 -74l-8 -14l25 -19l38 -32l35 -34l33 -36l30 -38l28 -40l3 -25l-15 -19l-25 -4l-19 15l-22 39zM52 138l130 24l63 13v319h-171v22h171v150h-82v22h165l54 53l64 -53v-22h-136v-150h48l54 53l65 -53v-22h-167v-306l114 24l41 7l3 -9l-77 -34
l-78 -29l-119 -38l-79 -22l-18 -4l-8 -19l-14 13zM138 276l-2 16l-4 16l-4 16l-6 16l-7 17l-19 33l-12 17l7 7l33 -26l15 -14l14 -15l12 -16l10 -17l10 -18l8 -18l6 -20l4 -20l-7 -24l-22 -11l-23 8l-12 21v16zM454 402l11 -16l-21 -3l-17 -29l-22 -32l-24 -31l-13 -16
l-27 -30l-8 5l8 18l13 38l14 35l17 52l8 28l4 12zM660 650l-60 -262l22 -8l48 -22l46 -25l17 -12l5 9l29 71l22 79l16 88l8 82h-153zM402 793l-9 14l-11 13l-28 28l-52 45l-16 10l-35 -73l-24 -43l-26 -41l-28 -39l-29 -39l-31 -38l-34 -35l-37 -34l-7 7l80 120l46 81l41 84
l34 86l14 45l3 7l58 -28l12 -16l-20 -4l-10 -26l-2 -4l42 -14l23 -10l21 -10l19 -12l18 -12l16 -12l15 -14l14 -15l12 -15l3 -25l-14 -19l-25 -3l-19 14l-7 14z" />
  </g>

</svg>
