<?xml version="1.0" standalone="no"?>
<!DOCTYPE svg PUBLIC "-//W3C//DTD SVG 1.1//EN" "http://www.w3.org/Graphics/SVG/1.1/DTD/svg11.dtd" >
<svg xmlns="http://www.w3.org/2000/svg" xmlns:xlink="http://www.w3.org/1999/xlink" version="1.1" viewBox="0 -144 1024 1024">
  <g transform="matrix(1 0 0 -1 0 880)">
   <path fill="currentColor"
d="M915 408l-27 -16l-12 -5l-93 -309l-70 -12l106 342h-318v22h323l32 27zM128 277l-1 16l-4 16l-3 16l-5 16l-14 33l-8 16l-11 17l7 6l31 -26l14 -14l12 -15l21 -33l8 -17l8 -19l6 -20l4 -19l-8 -24l-21 -11l-23 8l-12 21v17zM417 403l12 -15l-22 -5l-16 -28l-19 -32
l-22 -32l-12 -15l-13 -15l-12 -16l-9 5l7 18l6 19l22 71l13 51l4 16l3 8zM864 583l-31 32l-28 36l-27 38l-25 43l-24 45l-22 48l-20 53l-1 4l-38 -91l-26 -52l-27 -50l-30 -48l-32 -45l-34 -43l-36 -41l-39 -37l-7 6l9 13h-138v-305l61 15l73 15l3 -9l-33 -17l-69 -32
l-70 -27l-105 -36l-49 -14l-7 -20l-14 13l-26 61l82 16l70 15l19 5v320h-149v22h149v150h-70v22h155l44 48l54 -48v-22h-118v-150h27l53 53l65 -53v-11l43 65l28 46l50 95l45 101l19 54l18 54l15 57l3 9l59 -27l13 -15l-20 -5l-10 -31l40 -68l27 -44l27 -41l29 -36l28 -33
l29 -30l30 -26l30 -22l52 -33l-60 -46l-33 25zM363 794l-17 28l-23 27l-14 15l-32 29l-11 8l-31 -70l-22 -43l-23 -41l-52 -79l-28 -37l-31 -36l-33 -34l-7 6l69 120l42 81l35 84l16 43l14 43l13 45l2 8l59 -28l12 -15l-19 -4l-9 -26l-3 -6l37 -14l20 -10l18 -10l18 -11
l16 -13l15 -13l14 -14l13 -14l11 -15l2 -25l-16 -19l-24 -1l-20 15l-4 13zM813 591v-22h-253v22h155l44 48z" />
  </g>

</svg>
