<?xml version="1.0" standalone="no"?>
<!DOCTYPE svg PUBLIC "-//W3C//DTD SVG 1.1//EN" "http://www.w3.org/Graphics/SVG/1.1/DTD/svg11.dtd" >
<svg xmlns="http://www.w3.org/2000/svg" xmlns:xlink="http://www.w3.org/1999/xlink" version="1.1" viewBox="0 -144 1024 1024">
  <g transform="matrix(1 0 0 -1 0 880)">
   <path fill="currentColor"
d="M573 330h253l33 27l59 -48l-27 -22v-196l-65 -32v53h-253v-37l-64 -32v319zM44 138l157 31l20 5v320h-155v22h155v150h-73v22h162l44 48l54 -48v-22h-123v-150h32l54 53l65 -53v-22h-151v-305l102 23l38 7l3 -9l-35 -17l-71 -32l-72 -27l-145 -47l-15 -4l-7 -19l-14 13z
M573 309v-175h253v175h-253zM123 276l-2 17l-3 16l-4 16l-6 16l-6 16l-16 33l-11 17l7 7l31 -26l14 -14l13 -15l11 -16l10 -18l9 -17l7 -19l6 -19l5 -20l-8 -24l-22 -11l-23 8l-12 21v16v16zM418 403l12 -16l-22 -4l-16 -28l-20 -32l-22 -32l-38 -46l-9 5l8 18l34 107l4 18
l5 16l4 16l2 8zM421 674l-9 23l9 23l6 3l5 7l7 10l7 14l6 16l6 19l10 47l5 26l2 30l10 1l3 -31l3 -18h177v147l64 -10l17 -11l-17 -10v-116h178l32 26l59 -48l-27 -16l-16 -7l-23 -35l-19 -27l-21 -26l11 -9l1 -16l-22 10l-3 -4l-4 2l-8 -3l-67 -14l-35 -6l-35 -6l-1 -66
l82 23l76 26h-1h1l5 2l3 -8l49 -42l2 -17l-23 10l-54 -16l-43 -10l-44 -9l-43 -8l-10 -2v-73l68 14l50 13l49 14l47 16l2 -8l52 -43l1 -17l-22 10l-64 -17l-52 -11l-53 -9l-53 -8l-25 -3v-53l-64 -33v80l-21 -2l-57 -2l-57 -1l-58 2l-60 5v10l59 6l58 6l111 15l25 4v76
l-14 -1l-44 -4l-45 -2l-44 1l-44 3l-1 9l129 24l42 9l21 5v75l-46 -4l-38 -2l-40 1l-40 1l-1 10l165 37v93l64 -11l17 -10l-17 -10v-46l89 26l30 10l3 -7l28 -24l3 10l9 34l11 43l3 12v1h-415l1 -13v-25v-22l-2 -20l-4 -19l-5 -18l-6 -16l-10 -14l-23 -10zM365 794l-8 14
l-10 13l-24 28l-31 29l-17 15l-12 9l-33 -72l-45 -83l-53 -79l-30 -37l-31 -36l-34 -34l-7 6l72 121l42 81l37 83l17 43l14 44l16 52l59 -28l12 -15l-20 -4l-9 -26l-3 -5l38 -15l21 -9l19 -11l18 -11l17 -12l15 -13l14 -14l13 -14l12 -16l2 -24l-15 -20l-25 -2l-19 16l-5 13
z" />
  </g>

</svg>
