<?xml version="1.0" standalone="no"?>
<!DOCTYPE svg PUBLIC "-//W3C//DTD SVG 1.1//EN" "http://www.w3.org/Graphics/SVG/1.1/DTD/svg11.dtd" >
<svg xmlns="http://www.w3.org/2000/svg" xmlns:xlink="http://www.w3.org/1999/xlink" version="1.1" viewBox="0 -144 1024 1024">
  <g transform="matrix(1 0 0 -1 0 880)">
   <path fill="currentColor"
d="M897 317l-6 19l-4 10l-88 -18l-51 -10l-16 -2v-239l-64 -32v261l-60 -10l-120 -16l-14 -1l-10 -18l-12 15l-14 64h11l72 3l40 1l87 4l16 1l114 218l13 28l54 -36l9 -18h-20l-33 -48l-33 -46l-58 -71l-22 -24l-1 -1l57 3l106 4l32 1l-6 15l-17 36l-21 37l-12 19l7 6
l35 -27l16 -16l15 -16l27 -35l12 -19l21 -41l9 -21l-3 -24l-19 -16l-24 3l-16 19l-4 19zM624 231l10 -16l-21 -3l-28 -41l-31 -38l-17 -18l-37 -33l-42 -31l-7 7l43 62l24 39l22 39l18 40l5 15l5 11zM871 102l-14 38l-18 38l-32 56l-26 38l7 7l37 -28l18 -15l32 -34l27 -36
l13 -20l22 -41l-1 -25l-18 -16h-24l-17 18zM49 137l78 17l68 15l16 5v320h-141v22h141v150h-65v22h145l44 48l53 -48v-22h-112v-150h19l54 53l65 -53v-22h-138v-305l92 23l35 7l4 -9l-32 -17l-66 -32l-100 -39l-101 -34l-12 -4l-8 -20l-14 14zM121 277l-1 16l-3 16l-4 16
l-5 16l-6 17l-14 33l-10 16l8 6l29 -26l13 -14l12 -15l11 -16l9 -17l9 -18l6 -18l6 -20l5 -19l-8 -24l-22 -11l-23 8l-12 22l1 16zM400 403l12 -15l-22 -4l-24 -45l-31 -48l-36 -46l-8 5l6 18l5 19l11 36l10 35l13 50l3 17l3 7zM596 431l-7 17l-7 17l-8 16l-18 33l-22 31
l-13 15l6 8l35 -22l17 -12l15 -13l13 -14l25 69l25 66l3 11l5 12l56 -34l9 -17l-22 -2l-28 -41l-34 -45l-13 -15l-13 -14l-2 -2l17 -22l12 -18l10 -19l10 -20l-2 -25l-18 -16l-24 2l-17 18l-5 18zM423 550l-8 23l9 23l5 2l7 6l6 8l6 12l6 15l6 16l5 20l5 22l5 25l2 27h10
l5 -43h176v123h-231v21h231v138l64 -11l17 -11l-17 -9v-107h113l54 54l64 -54v-21h-231v-123h176l32 27l59 -49l-27 -16l-17 -7l-41 -54l-23 -26l-10 -14l-8 4l7 17l4 16l5 16l4 15l4 14l9 35h-412l1 -11l1 -22l-1 -21l-2 -19l-3 -17l-5 -17l-7 -15l-10 -14l-23 -8zM346 795
l-8 13l-8 14l-22 28l-44 43l-10 8l-10 -27l-40 -85l-46 -81l-26 -39l-27 -38l-30 -36l-31 -34l-8 6l45 80l42 80l19 41l33 84l28 86l13 44l2 9l60 -27l12 -15l-20 -5l-9 -25l-2 -7l34 -14l20 -10l18 -11l17 -11l16 -12l14 -13l14 -14l11 -14l11 -16l2 -24l-16 -19l-25 -1
l-18 16l-5 13z" />
  </g>

</svg>
