<?xml version="1.0" standalone="no"?>
<!DOCTYPE svg PUBLIC "-//W3C//DTD SVG 1.1//EN" "http://www.w3.org/Graphics/SVG/1.1/DTD/svg11.dtd" >
<svg xmlns="http://www.w3.org/2000/svg" xmlns:xlink="http://www.w3.org/1999/xlink" version="1.1" viewBox="0 -144 1024 1024">
  <g transform="matrix(1 0 0 -1 0 880)">
   <path fill="currentColor"
d="M797 105h83h5l3 1l4 2l2 2l1 2l1 4v6l1 7v512h-394v-566l-59 -29v646l59 -30h260l-1 1l6 20l3 20l8 36l6 33l5 29l3 14l1 6l-1 1l1 4l3 9l59 -27l12 -15l-23 -6l-24 -46l-19 -31l-21 -33l-8 -15h124l29 27l57 -48l-27 -19v-493v-13l-3 -12l-3 -12l-5 -12l-8 -11l-9 -8
l-12 -7l-12 -4l-12 -3l-12 -1v29l-83 15v15zM48 137l110 24l50 13v320h-139v22h139v150h-64v22h142l44 48l54 -48v-22h-111v-150h17l54 53l64 -53v-22h-135v-305l90 23l35 7l4 -9l-32 -17l-65 -32l-98 -39l-100 -34l-12 -4l-7 -20l-15 14zM732 612l17 -10l-17 -10v-82h23
l54 54l64 -54v-21h-141v-115h54l30 27l56 -48l-27 -19v-182l-59 -29v62h-172v-65l-60 -30v314l60 -30h54v115h-141v21h141v113zM614 353v-147h172v147h-172zM119 277l-2 16l-2 16l-4 16l-4 16l-13 33l-7 17l-10 16l7 6l30 -26l13 -14l11 -15l11 -17l10 -16l8 -18l7 -18
l5 -20l5 -19l-9 -24l-21 -11l-23 8l-12 22l1 16zM395 404l12 -16l-22 -4l-14 -29l-19 -32l-21 -32l-24 -30l-12 -16l-8 5l6 18l5 19l16 53l4 18l5 17l4 16l4 17l2 11h-1l5 13zM341 795l-16 27l-22 28l-42 43l-10 8l-29 -70l-20 -42l-46 -81l-25 -39l-27 -38l-29 -36l-32 -34
l-7 6l65 120l38 81l18 42l30 85l24 82l4 14l59 -27l13 -14l-19 -6l-9 -25l-3 -7l33 -14l20 -10l35 -22l15 -12l15 -13l13 -14l12 -15l10 -15l1 -24l-16 -19l-24 -1l-19 16l-4 13zM581 739l-4 28l-3 13l-7 26l-2 13l-6 12l8 6l9 -11l10 -9l19 -23l16 -25l15 -28l12 -30
l-5 -24l-20 -15l-24 5l-14 20l-1 14zM417 866h251v122l64 -11l17 -11l-17 -9v-91h133l54 53l64 -53v-22h-566v22z" />
  </g>

</svg>
