<?xml version="1.0" standalone="no"?>
<!DOCTYPE svg PUBLIC "-//W3C//DTD SVG 1.1//EN" "http://www.w3.org/Graphics/SVG/1.1/DTD/svg11.dtd" >
<svg xmlns="http://www.w3.org/2000/svg" xmlns:xlink="http://www.w3.org/1999/xlink" version="1.1" viewBox="0 -144 1024 1024">
  <g transform="matrix(1 0 0 -1 0 880)">
   <path fill="currentColor"
d="M835 64l-22 10l-55 21l-67 20l-123 32l2 10l45 -1l43 -3l40 -3l37 -5l35 -6l31 -7l29 -7l26 -7l24 -9l21 -9l15 -20l-3 -24l-20 -14l-25 2l-15 10zM406 168l41 -37l1 -17l-20 8l-25 -9l-54 -17l-65 -15l-76 -15l-42 -7l-45 -6l-47 -5l-2 10l164 54l66 24l55 23l23 10
l21 11zM816 493l-40 29l-3 1l-37 -6l-72 -9l-139 -16l-136 -12l-131 -11l-23 -1l51 -26h452l32 27l59 -48l-27 -22v-214l-64 -32v32h-452l-64 -32v314l-28 -2l-41 -2l-11 -18l-11 16l-13 64l11 1l127 1l65 1l66 80l23 30l10 15l9 15l2 3l49 -42l6 -19l-21 3l-28 -25l-32 -27
l-35 -24l-13 -8l235 5l71 3l71 1h16l-44 26l-83 43l3 9l32 -5l31 -7l30 -8l55 -20l51 -23l23 -13l43 -28l11 -22l-7 -24l-22 -11l-23 7zM286 264v-57h452v57h-452zM286 342v-57h452v57h-452zM286 421v-57h452v57h-452zM46 743l-2 24l15 20l11 3l9 5l9 7l8 8l8 10l7 13l7 14
l6 18l5 18l2 22h10l3 -31h336v60h-323v22h634l44 48l53 -48v-22h-344v-60h360l4 3l2 5l2 -2l25 21l59 -48l-27 -16l-28 -12l-25 -20l-9 -7l-22 -14l-11 -6l-9 -8l-7 7l7 10l11 22l11 21l10 23h-353v-176l-64 -32v208h-334v-11l-1 -19l-3 -19l-6 -17l-8 -17l-11 -15l-13 -14
l-15 -11l-24 -3zM878 710v-21h-280v21h182l44 49zM426 710v-21h-280v21h182l44 49zM840 788v-21h-242v21h144l44 49zM426 788v-21h-253v21h155l44 49z" />
  </g>

</svg>
