<?xml version="1.0" standalone="no"?>
<!DOCTYPE svg PUBLIC "-//W3C//DTD SVG 1.1//EN" "http://www.w3.org/Graphics/SVG/1.1/DTD/svg11.dtd" >
<svg xmlns="http://www.w3.org/2000/svg" xmlns:xlink="http://www.w3.org/1999/xlink" version="1.1" viewBox="0 -144 1024 1024">
  <g transform="matrix(1 0 0 -1 0 880)">
   <path fill="currentColor"
d="M790 58l-76 8l-74 24l-66 48l-56 77l-41 109l-28 148l-10 125l-19 -11v-215l-54 -27v27h-47v-161l57 11l33 5l-9 19l-20 36l-14 18l7 7l18 -15l18 -13l15 -15l15 -15l13 -15l12 -16l10 -16l8 -16l8 -18l6 -17l-6 -24l-20 -13l-25 5l-13 21l-1 13l-2 14l-2 14l-5 15l-5 13
l-33 -15l-60 -23l-56 -20l-79 -27l-7 -21l-14 13l-27 60l10 3l125 24v169h-53v-65l-43 -21v360l43 -22h53v129l-32 -5l-25 -2l-26 -1l-27 -1l-2 9l49 19l89 33l70 29l5 2l3 -8l49 -43l1 -16l-21 9l-11 -3l-40 -9l-40 -7l12 -11l-11 -8v-116h47l27 27l45 -41l-4 58v236h-274
v-366l-3 -56l-5 -55l-7 -52l-7 -52l-10 -50l-11 -48l-14 -47l-14 -46l-17 -43l-20 -41l-7 3l21 88l18 93l7 48l5 49l5 51l3 51l2 53v55v413l54 -27h275l32 27l59 -48l-27 -16v-218l14 -189l26 -139l36 -96l25 -35l48 23l31 18l29 19l28 21l27 24l26 26l25 28l43 59l6 8
l50 -41l7 -18l-21 2l-42 -49l-31 -28l-31 -26l-32 -22l-34 -19l-35 -16l-35 -13l-37 -9l-11 -1l8 -12l50 -36l58 -18l67 -8l75 -1l49 -2l31 133h10l-10 -134h2l21 -11l9 -23l-12 -22l-23 -8l-78 2zM850 467l7 -19l-21 2l-30 -34l-23 -22l-24 -21l-24 -18l-26 -16l-27 -14
l-27 -12l-27 -9l-29 -5l-4 9l47 31l22 16l42 35l38 41l36 47l17 25l3 4zM223 602v-210h53v210h-53zM319 602v-210h47v210h-47zM792 543l8 -18l-21 1l-20 -23l-17 -17l-19 -17l-19 -15l-39 -25l-22 -11l-21 -8l-23 -8l-4 9l18 14l47 46l29 32l13 18l25 37l9 15h-1l6 9z
M881 485l-21 18l-20 20l-19 22l-19 22l-16 24l-16 27l-14 27v1l-19 -27l-22 -28l-22 -26l-25 -24l-25 -22l-26 -19l-28 -18l-29 -14l-30 -11l-4 9l46 40l22 21l41 45l19 25l35 54l15 29l7 12l-35 -17v58l-10 -15l-16 -19l-17 -18l-35 -32l-19 -13l-41 -22l-5 8l28 33l26 35
l23 37l21 40l21 50l24 -15v84l-8 -2l-12 -21l-26 -37l-13 -17l-30 -30l-15 -13l-33 -23l-7 7l12 15l37 68l16 36l15 39l6 20h1v1h-79v21h136l32 27l48 -39v12h135l32 27l59 -48l-26 -22v-255l-65 -32v115l-27 -30l-14 -13l-14 -12l-15 -11l-33 -18l-6 7l12 14l29 43l16 30
l13 31l6 17l6 16l3 7l24 -14v84l-8 -2l-25 -40l-28 -35l-15 -16l-15 -14l-17 -14l-34 -22l-6 7l11 16l32 50l18 35l16 37l13 40h1v1h-67l-27 -22v-200l-2 -1l39 -25l9 -17l-17 -1l46 -47l41 -36l20 -15l41 -28l21 -11l22 -10l27 -15l-61 -48l-23 15zM848 929l43 -24v24h-43z
M633 929l43 -24v24h-43z" />
  </g>

</svg>
