<?xml version="1.0" standalone="no"?>
<!DOCTYPE svg PUBLIC "-//W3C//DTD SVG 1.1//EN" "http://www.w3.org/Graphics/SVG/1.1/DTD/svg11.dtd" >
<svg xmlns="http://www.w3.org/2000/svg" xmlns:xlink="http://www.w3.org/1999/xlink" version="1.1" viewBox="0 -144 1024 1024">
  <g transform="matrix(1 0 0 -1 0 880)">
   <path fill="currentColor"
d="M567 74l-64 -32v314l-27 -32l-22 -23l-23 -21l-8 6l57 107l23 48v9l4 -1l17 44l20 56l57 -30l12 -15l-20 -4l-16 -31l-14 -25l-2 -4l6 -1l12 -7h115v1l2 11l4 11l2 11l7 21l4 11l3 12l4 11l3 11l3 5l53 -36l9 -18h-24l-25 -26l-17 -17l-11 -8h139l44 48l53 -48v-22h-199
v-83h64l44 48l53 -48v-22h-161v-88h64l44 49l53 -49v-21h-161v-84h113l54 54l64 -54v-22h-412v-16zM567 196v-84h116v84h-116zM343 100l-9 -11l-10 -8l-10 -8l-12 -6l-12 -5l-13 -3l-13 -2h-13v32l-86 16v16h86l7 1l7 1l5 1l5 2l5 3l5 2l4 4l7 10l4 7l8 17l7 20l6 25l6 26
l4 31l4 34l2 36l1 40v37h-1v43h-194l-64 -32v515l64 -32h142l54 54l64 -54v-22h-122v-125h20l44 49l54 -49v-21h-118v-120h20l44 48l54 -48v-22h-118v-120h56l32 27l59 -48l-26 -16v-20v-44l-1 -42l-2 -39l-4 -36l-4 -34l-7 -31l-7 -28l-9 -26l-10 -23l-7 -12zM53 135
l-11 22l8 23l7 6l7 10l7 13l6 16l6 21l5 23l5 26l7 62l2 36h9l7 -35l5 -33l3 -31l1 -28v-27l-2 -23l-4 -23l-5 -20l-8 -19l-10 -17l-22 -10zM168 173l-20 13l-7 23l4 13l5 28l2 15l1 34l-1 18l-2 38l-4 21l10 3l8 -19l9 -19l8 -18l13 -36l4 -18l3 -17l2 -18l2 -17v-17
l-13 -21zM567 305v-88h116v88h-116zM213 276v14l-1 13l-2 14l-2 14l-6 30l-4 15l-7 15l8 5l22 -25l10 -13l10 -14l8 -14l7 -14l6 -15l5 -16l5 -16l3 -16l-8 -23l-22 -11l-23 9l-11 22l1 13zM268 335l-2 11l-5 21l-9 22l-11 24l-9 10l6 7l12 -8l12 -7l11 -8l11 -9l10 -10
l9 -10l9 -12l8 -13l7 -13l5 -14l-4 -24l-20 -14l-24 5l-15 19v12zM567 410v-83h116v83h-116zM143 602v-120h73v120h-73zM516 724h104l29 27l57 -49l-27 -19v-115l-59 -30v41h-104v-17l-64 -32v226zM780 724h103l33 27l59 -49l-27 -21v-113l-65 -32v43h-103l-59 -30v204z
M780 702v-102h103v102h-103zM516 702v-102h104v102h-104zM143 744v-120h73v120h-73zM808 981l16 -11l-16 -10v-77h70l44 48l54 -48v-22h-168v-82l-64 -33v245zM656 981l16 -11l-16 -10v-181l-64 -33v115h-168v22h168v108zM143 890v-125h73v125h-73z" />
  </g>

</svg>
