<?xml version="1.0" standalone="no"?>
<!DOCTYPE svg PUBLIC "-//W3C//DTD SVG 1.1//EN" "http://www.w3.org/Graphics/SVG/1.1/DTD/svg11.dtd" >
<svg xmlns="http://www.w3.org/2000/svg" xmlns:xlink="http://www.w3.org/1999/xlink" version="1.1" viewBox="0 -144 1024 1024">
  <g transform="matrix(1 0 0 -1 0 880)">
   <path fill="currentColor"
d="M690 134l78 103l35 53l30 54l14 25l11 27l3 6l35 -22v154h-179l-27 -21v-375v-4zM49 45l-14 21l4 24l9 11l7 12l8 15l7 17l13 39l6 23l11 50l3 28h10l7 -56l1 -26v-24l-2 -24l-3 -22l-3 -21l-5 -20l-7 -19l-7 -18l-21 -13zM267 153l-1 15l-2 14l-4 14l-9 28l-11 29l-9 14
l7 6l12 -11l14 -10l12 -13l11 -12l10 -14l9 -15l8 -15l7 -16l7 -17l4 -17l-6 -24l-22 -12l-23 6l-13 21v15zM191 75l-21 12l-7 23l2 13l2 13l2 13l1 15l1 15l-1 16l-1 17l-2 18l-2 18l-4 19l9 4l9 -18l10 -16l15 -34l7 -17l5 -16l4 -17l3 -16l2 -16l2 -17l-12 -22zM367 178
l-4 14l-10 25l-12 25l-14 25l-11 11l6 8l13 -8l14 -8l14 -9l12 -10l22 -23l11 -13l9 -14l9 -15l8 -16l-3 -24l-18 -16l-25 2l-16 19l-2 14zM87 319v385l-21 -27l-21 -24l-8 5l61 150l23 65l21 68l8 31l1 3l3 11l60 -28l11 -15l-19 -5l-20 -51l-3 -6h100l32 27l59 -48
l-27 -16l-13 -6l-11 -18l-22 -30l-28 -32l-43 -43h102l29 26l57 -48l-27 -19v-325l-59 -30v30h-186zM873 500l10 -16l-21 -3l-25 -36l-14 -19l-31 -36l-36 -36l-42 -35l-7 7l53 87l22 40l10 19l16 37l5 13l4 11zM146 521v-150h67v150h-67zM266 521v-150h66v150h-66zM146 693
v-150h67v150h-67zM266 693v-150h66v150h-66zM565 932h301l33 27l59 -49l-27 -21v-259l-65 -32v312h-301v-280l-65 -32v366zM833 699v-22h-236v22h139l44 48zM174 860l-35 -71l-32 -55l39 -19h70l12 19l20 41l17 37l6 16l9 29l1 3h-107zM833 815v-21h-236v21h139l44 49z
M561 524l5 10l55 -34l4 -9v43h-180v22h180l33 27l58 -48v21h180l33 27l59 -49l-27 -21v-375l-1 -14l-2 -13l-5 -13l-7 -12l-8 -11l-11 -9l-12 -6l-13 -5l-14 -2l-13 -1v33l-65 16v16h71l5 1l3 1l2 1l1 1l1 1l2 4l1 5v7v197l-32 -48l-20 -26l-45 -50l-50 -49l-59 -44l-2 2
l-1 -9l-5 -13l-7 -12l-8 -11l-11 -9l-12 -6l-13 -5l-14 -2l-13 -1v33l-108 16v16h114l5 1l3 1l2 1l1 1l1 1l2 4l1 5v7v177l-25 -41l-43 -56l-25 -28l-54 -52l-31 -24l-33 -22l-6 6l72 90l40 57l34 57l14 29l13 29l11 28l3 7l30 -17v104l-15 -1l-16 -22l-31 -39l-35 -37
l-40 -33l-45 -31l-6 7l61 83l26 40l21 40l10 20z" />
  </g>

</svg>
