<?xml version="1.0" standalone="no"?>
<!DOCTYPE svg PUBLIC "-//W3C//DTD SVG 1.1//EN" "http://www.w3.org/Graphics/SVG/1.1/DTD/svg11.dtd" >
<svg xmlns="http://www.w3.org/2000/svg" xmlns:xlink="http://www.w3.org/1999/xlink" version="1.1" viewBox="0 -144 1024 1024">
  <g transform="matrix(1 0 0 -1 0 880)">
   <path fill="currentColor"
d="M383 228l-20 30l-23 29l-40 43l-4 2v-263l-64 -32v242l-25 -48l-22 -37l-25 -34l-25 -29l-28 -26l-29 -22l-30 -17l-6 8l45 51l20 28l20 30l18 34l18 36l31 82l14 45l8 28h-67v-64l-65 -33v452l65 -32h83v91h-187v22h187v145l64 -11l17 -11l-17 -9v-114h81l53 53l65 -53
v-22h-199v-91h84l32 27l59 -49l-27 -21v-291l-64 -32v43h-84v-61l32 -12l18 -10l18 -10l33 -25l16 -14l15 -15l14 -15l12 -17l4 -24l-14 -20l-24 -4l-20 15zM900 86l-10 -9l-10 -8l-11 -6l-12 -5l-12 -5l-13 -2l-13 -2l-13 -1v32l-107 16v16h107l8 1l7 1l12 3l6 3l5 3l6 4
l4 4l5 6l5 6l4 8l5 11l5 17l3 21l4 24l2 29l2 32l1 35l1 29h-1v43h-303l-64 -32v537l64 -32h83l2 4l3 14l3 14l3 13l2 13l4 14l5 26l2 13l2 8h-1l5 13l58 -29l12 -15l-24 -5l-10 -17l-16 -24l-17 -23l-10 -10l-8 -9h147l33 27l59 -48l-27 -22v-226l-65 -32v43h-245v-86h286
l44 48l54 -48v-21h-384v-86h303l33 26l59 -48l-27 -16l1 -16l-1 -41l-1 -37l-2 -35l-3 -30l-4 -28l-5 -24l-6 -22l-8 -20l-9 -17l-8 -11zM480 123l-8 23l9 23l8 5l8 8l7 10l7 12l7 15l5 17l5 19l4 23l3 23l1 27h9l11 -50l3 -24l1 -22l-1 -21l-2 -20l-5 -19l-6 -18l-9 -17
l-12 -15l-22 -8zM623 146l-19 15l-3 25l4 6l3 8l3 9l2 11l1 12l1 13l-1 15l-3 33l-5 17l9 4l8 -17l9 -15l9 -15l7 -14l5 -15l5 -14l3 -14l2 -15l1 -14l-1 -14l-16 -19zM705 235v20l-1 10l-2 10l-3 10l-4 11l-5 11l-8 8l6 8l10 -8l12 -6l11 -8l9 -9l9 -11l8 -11l6 -12l6 -14
l4 -14l3 -15l-9 -23l-23 -10l-23 10l-9 23l1 10zM796 258l2 13l-1 7l-1 7l-3 8l-4 8l-6 8l-15 17l-12 6l4 9l13 -4l13 -3l12 -4l12 -5l11 -6l10 -8l9 -9l8 -10l7 -11l5 -13l-6 -24l-21 -13l-24 6zM149 559v-129h83v129h-83zM296 559v-129h84v129h-84zM149 709v-129h83v129
h-83zM296 709v-129h84v129h-84zM587 725v-96h245v96h-245zM587 844v-97h245v97h-245z" />
  </g>

</svg>
