<?xml version="1.0" standalone="no"?>
<!DOCTYPE svg PUBLIC "-//W3C//DTD SVG 1.1//EN" "http://www.w3.org/Graphics/SVG/1.1/DTD/svg11.dtd" >
<svg xmlns="http://www.w3.org/2000/svg" xmlns:xlink="http://www.w3.org/1999/xlink" version="1.1" viewBox="0 -144 1024 1024">
  <g transform="matrix(1 0 0 -1 0 880)">
   <path fill="currentColor"
d="M294 123l30 33l32 41l29 44l12 23l12 24l12 26l10 27l3 6l29 -16v85l-13 -1l-10 -16l-13 -17l-13 -15l-30 -29l-17 -13l-17 -12l-39 -22l-5 9l15 15l36 48l10 16l17 31l7 16l5 17l8 23l57 -32l2 -2v46h-141l-27 -21v-328zM387 112h54l6 1l5 1l5 2l2 2l2 5l1 5l1 6v131
l-19 -29l-19 -24l-18 -22l-20 -20l-22 -19l-22 -16l-24 -14l-25 -12l-1 1l-1 -8l-5 -13l-7 -13l-8 -10l-11 -9l-12 -7l-13 -4l-14 -2l-13 -1v32l-75 16v16h75l6 1l5 1l5 1l2 2l2 5l1 5v7v131l-14 -22l-17 -25l-20 -23l-21 -22l-23 -20l-24 -18l-26 -18l-29 -14l-6 8l60 67
l17 22l30 46l13 24l11 24l9 25l11 33l29 -15v82h-11l-15 -20l-14 -16l-15 -17l-32 -27l-18 -11l-18 -11l-18 -8l-19 -7l-5 8l15 13l25 28l12 15l21 30l10 17l17 35l6 13v1l5 10l54 -35v46h-148v22h148l33 26l54 -44v18h146l32 26l59 -48l-27 -21v-323l-1 -13l-2 -14l-4 -13
l-7 -12l-9 -11l-11 -9l-12 -7l-13 -4l-14 -2l-13 -1v32l-54 16v16zM922 89l-9 -10l-11 -8l-10 -7l-12 -6l-13 -4l-12 -3l-13 -2l-14 -1v32l-75 16v16h75l8 1l7 1l11 3l5 3l5 3l5 4l4 4l5 6l4 6l3 7l4 12l4 17l3 21l3 24l2 28l1 33l1 35v29v43h-246l-64 -32v537l64 -32h64
l2 4l3 27l6 40l2 12l2 13l3 21h-1l4 14l59 -27l13 -15l-23 -5l-9 -17l-22 -36l-8 -11l-9 -11l-8 -9h119l32 27l59 -48l-27 -22v-226l-64 -32v43h-197v-86h221l44 48l54 -48v-21h-319v-86h246l32 26l59 -48l-26 -16v-16v-41l-1 -37l-2 -34l-2 -30l-3 -27l-4 -24l-5 -21
l-6 -19l-8 -17l-7 -11zM561 122l-11 23l8 23l7 5l7 8l7 10l6 13l5 15l5 17l5 19l7 46l1 27h10l4 -26l5 -24l3 -24l2 -22v-20l-2 -20l-3 -18l-5 -17l-7 -17l-9 -15l-22 -10zM682 145l-19 15l-4 25l4 7l3 8l2 9l3 11l1 12v14v14l-1 33l-4 17l9 4l7 -17l9 -15l8 -15l6 -15
l9 -28l3 -14l3 -14l1 -14l-1 -13l-15 -19zM746 225l2 21v10l-1 10l-1 10l-2 10l-2 10l-4 11l-7 8l7 7l9 -7l11 -7l9 -8l9 -10l7 -10l7 -11l6 -12l5 -13l4 -14l3 -15l-9 -23l-23 -10l-23 10l-9 23zM823 259l2 14v6v8l-2 7l-3 7l-4 8l-5 9l-7 8l-9 6l4 8l11 -4l12 -3l10 -4
l11 -5l10 -7l8 -7l9 -9l7 -11l6 -11l4 -12l-6 -23l-22 -13l-23 7zM408 613l-11 26l-77 -25l-169 -47l-8 -20l-14 14l-24 61l11 2l50 7l28 4h3l41 111l16 47l12 41l5 13l58 -30l11 -16l-21 -4l-24 -49l-25 -45l-28 -46l-12 -18l52 7l31 3l33 3l34 2h10l-23 46l-20 34l-12 17
l7 7l33 -25l31 -29l14 -15l14 -16l24 -34l22 -36v-25l-17 -18h-24l-18 17l-6 18zM657 725v-96h197v96h-197zM231 879l13 -15l-21 -6l-16 -40l-15 -28l-17 -27l-17 -26l-20 -23l-21 -23l-23 -20l-26 -19l-26 -16l-6 7l54 71l16 24l14 24l12 25l21 53l8 27l10 37zM464 710
l-19 23l-17 25l-14 25l-12 27l-10 27l-7 28l-4 29l-1 25h-179v21h106l44 49l53 -49v-21h-11l22 -43l13 -23l14 -22l31 -41l17 -18l19 -18l57 -44l-59 -44l-22 21zM657 844v-97h197v97h-197z" />
  </g>

</svg>
