<?xml version="1.0" standalone="no"?>
<!DOCTYPE svg PUBLIC "-//W3C//DTD SVG 1.1//EN" "http://www.w3.org/Graphics/SVG/1.1/DTD/svg11.dtd" >
<svg xmlns="http://www.w3.org/2000/svg" xmlns:xlink="http://www.w3.org/1999/xlink" version="1.1" viewBox="0 -144 1024 1024">
  <g transform="matrix(1 0 0 -1 0 880)">
   <path fill="currentColor"
d="M700 118h65h6l5 1l5 2l2 2l2 5l1 5v6v420h-242v-484l-64 -32v516h-253v-490l-64 -32v517l-27 -18l-28 -18l-30 -15l-32 -13l-4 8l72 66l43 43l19 22l34 45l29 48h1l2 3h-182v22h312v86h-123v-16l-65 -33v199l65 -10l16 -11l-16 -10v-98h123v140l65 -11l16 -10l-16 -10
v-216h150v247l65 -11l16 -10l-16 -10v-109h123v124l65 -11l16 -10l-16 -10v-125l-65 -32v43h-123v-86h214l44 48l54 -48v-22h-420v-145h242l32 27l60 -48l-27 -22v-398l-1 -13l-3 -14l-4 -12l-7 -13l-8 -11l-11 -8l-13 -7l-12 -4l-14 -3l-13 -1v33l-65 16v16zM383 457
l16 -11l-16 -10v-98l-3 -27l-5 -25l-7 -25l-9 -22l-10 -21l-13 -18l-15 -17l-17 -15l-18 -11l-19 -11l-6 8l14 15l21 33l7 16l6 18l5 18l3 19l2 21l1 22l-2 22v129zM695 462l16 -11l-16 -10v-216l-65 -32v280zM877 576l-32 31l-40 30l-74 49l-28 17l4 9l32 -8l31 -9l29 -11
l26 -12l26 -12l23 -13l22 -14l20 -15l19 -15l16 -16l7 -24l-11 -22l-24 -7l-22 12l-11 14zM294 688l8 -18h-21l-25 -31l-44 -45l-5 -4l20 -10h253v145h-236z" />
  </g>

</svg>
