<?xml version="1.0" standalone="no"?>
<!DOCTYPE svg PUBLIC "-//W3C//DTD SVG 1.1//EN" "http://www.w3.org/Graphics/SVG/1.1/DTD/svg11.dtd" >
<svg xmlns="http://www.w3.org/2000/svg" xmlns:xlink="http://www.w3.org/1999/xlink" version="1.1" viewBox="0 -144 1024 1024">
  <g transform="matrix(1 0 0 -1 0 880)">
   <path fill="currentColor"
d="M227 634l16 -11l-16 -9v-18h565v49l64 -11l16 -11l-16 -9v-534l-64 -32v452h-565v-129l-3 -48l-6 -44l-8 -42l-11 -38l-14 -35l-17 -32l-19 -28l-22 -25l-26 -20l-27 -15l-6 8l19 22l17 24l15 25l13 27l10 30l9 32l6 35l4 39l2 40v319zM700 78l-12 9l-14 10l-34 19
l-42 20l-24 10l-27 9l3 10l54 -6l25 -4l24 -4l21 -5l20 -6l19 -7l17 -7l15 -8l15 -10l10 -22l-9 -23l-22 -10l-23 8l-7 8zM470 132v-20l-20 9l-32 -14l-20 -8l-45 -15l-25 -7l-26 -6l-58 -12l-3 9l97 51l39 24l16 10l28 21l10 10zM386 444h252l33 27l59 -48l-27 -22v-209
l-65 -32v32h-252l-65 -32v316zM386 269v-55h252v55h-252zM386 346v-56h252v56h-252zM386 423v-56h252v56h-252zM227 575v-54h565v54h-565zM879 651l-20 16l-16 18l-15 19l-3 5l-35 -13l-24 -9l-48 -15l-72 -20l-26 -6l-9 -20l-12 14l-22 62l11 2l48 5l12 1v115l-17 4
l-28 -17l-26 -14l-26 -12l9 -6l-16 -10v-110l-64 -33v159l-20 -5l-22 12l-6 15l-4 8l-11 16l-21 27l-8 10l-10 7l3 5h-308v22h407v87l64 -10l16 -11l-16 -10v-56h288l54 54l64 -54v-22h-59l1 -5l57 -47l2 -17l-24 12l-23 -5l-19 -2l-20 -2l-42 -4l-16 -1l17 -28l13 -18
l13 -16l14 -13l15 -12l16 -11l16 -8l18 -7l19 -6l37 -14l-62 -53l-23 13zM357 670l-10 -9l-10 -7l-12 -7l-11 -6l-13 -3l-12 -4l-13 -1l-13 -1v33l-86 16v13l-9 -5l-26 -14l-31 -12l-33 -10l-37 -7l-3 9l33 16l29 17l24 16l21 17l16 17l12 16l8 17l5 17l1 17v8h-99v21h234
l32 27l60 -48l-27 -16h-1v-11v-17l-1 -28l-1 -11l-2 -11l-1 -9l-2 -8l-6 -12zM277 698l7 2l6 2l11 5l5 4l4 5l5 5l3 3l2 12v9l1 12v14l1 16v17v9h-72l-2 -16l-7 -26l-13 -25l-16 -21l-20 -20l-12 -8h90zM778 808l-23 -1l-24 -1h-18v-90l72 7l31 1l-10 23l-8 23l-4 25l-2 14z
M394 879l13 -4l12 -3l11 -5l22 -10l9 -5l19 -13l9 -7l6 -23l-4 -9l38 -7l61 75l7 10l3 3h-211zM614 881l34 -36v8l59 -29l20 7l66 21l21 6l72 23h-272z" />
  </g>

</svg>
