<?xml version="1.0" standalone="no"?>
<!DOCTYPE svg PUBLIC "-//W3C//DTD SVG 1.1//EN" "http://www.w3.org/Graphics/SVG/1.1/DTD/svg11.dtd" >
<svg xmlns="http://www.w3.org/2000/svg" xmlns:xlink="http://www.w3.org/1999/xlink" version="1.1" viewBox="0 0 2048 2048">
  <g transform="matrix(1 0 0 -1 0 2048)">
   <path fill="currentColor"
d="M294 1555l-36 88q97 -23 230 -23h1043l90 109l129 -96q23 -18 31 -29q15 -22 -7 -36q-7 -5 -21 -5h-1265q-111 0 -194 -8zM102 385l-38 88q98 -23 230 -23h1441l96 113l139 -110q17 -13 20 -28q8 -32 -33 -32h-1663q-117 0 -192 -8z" />
  </g>

</svg>
