<?xml version="1.0" standalone="no"?>
<!DOCTYPE svg PUBLIC "-//W3C//DTD SVG 1.1//EN" "http://www.w3.org/Graphics/SVG/1.1/DTD/svg11.dtd" >
<svg xmlns="http://www.w3.org/2000/svg" xmlns:xlink="http://www.w3.org/1999/xlink" version="1.1" viewBox="0 -205 1024 1024">
  <g transform="matrix(1 0 0 -1 0 819)">
   <path fill="currentColor"
d="M578 813l40 -48h189l35 41l52 -49q7 -6 5 -10q-1 -5 -11 -7l-18 -9v-388l4 -36q7 -40 -50 -44v60h-197v-15q2 -37 -53 -46q5 39 7 159v334q-4 24 -18 46zM154 817l37 -42h190l35 41l52 -49q7 -6 5 -10q-1 -5 -11 -7l-18 -9v-394l4 -36q7 -40 -50 -44v68h-195v-35
q2 -37 -53 -46q5 39 7 163v342q-4 24 -18 46zM824 543h-197v-200h197v200zM398 543h-195v-188h195v188zM203 561h195v194h-195v-194zM627 561h197v184h-197v-184zM23 126h844l41 48l74 -56q11 -7 8 -10q-2 -3 -19 -2h-869q-27 1 -45 -13zM55 937h808l41 50l74 -58
q11 -7 8 -10q-2 -3 -19 -2h-833q-27 1 -45 -13z" />
  </g>

</svg>
