<?xml version="1.0" standalone="no"?>
<!DOCTYPE svg PUBLIC "-//W3C//DTD SVG 1.1//EN" "http://www.w3.org/Graphics/SVG/1.1/DTD/svg11.dtd" >
<svg xmlns="http://www.w3.org/2000/svg" xmlns:xlink="http://www.w3.org/1999/xlink" version="1.1" viewBox="0 -205 1024 1024">
  <g transform="matrix(1 0 0 -1 0 819)">
   <path fill="currentColor"
d="M678 337q7 -9 -5 -14l-19 -14v-137q5 -50 18 -64q14 -14 126 -14q113 0 123 11q11 10 15 39q5 26 8 135h17q7 -103 7 -129q0 -25 26 -38q-23 -41 -52 -48q-28 -8 -153 -8q-123 0 -150 14q-26 14 -29 71v186h-234q-1 -114 -36 -170q-36 -57 -103 -93t-191 -48l-4 14
q195 48 255 139q35 52 35 166q-6 17 -18 36l14 12l36 -36h236l27 33zM702 816l89 -28q14 -5 6 -11q-21 -7 -30 -21v-69h102l25 38l68 -46q11 -7 8 -10q-2 -3 -19 -2h-184v-154h122l35 46l72 -53q11 -7 10 -10q-1 -4 -14 -3h-225v-70l2 -57q3 -35 -53 -44q5 37 7 148v23h-138
l-28 -38l-53 42q24 17 30 33l26 55q1 24 -14 37l8 10l67 -27q9 -3 11 -7q1 -3 -4 -8q-20 -3 -26 -17l-28 -60h149v154h-123q-27 1 -45 -13l-34 33h202v79q2 16 -30 38zM496 670q-11 -1 -20 -6q-8 -5 -19 -44q-10 -39 -54 -108q-43 -69 -147 -131t-206 -92l-6 18
q244 109 319 221q41 62 65 147h-179q-60 -97 -147 -174l-10 12q94 122 127 187t33 76t-13 26l6 10l75 -34q6 -5 4 -9q-3 -3 -14 -4q-14 -4 -22 -18q-13 -27 -27 -52h156l31 32l49 -41q7 -7 7 -11q-1 -4 -8 -5zM21 855h862l39 46l66 -54q11 -7 8 -10q-2 -3 -19 -2h-877
q-27 1 -45 -13zM408 988l6 13q80 -16 114 -57q37 -58 -9 -72q-17 1 -22 23q-5 23 -23 43q-16 20 -66 50zM200 590l6 13q87 -22 103 -63q17 -43 -15 -50q-16 -1 -20 20q-4 22 -18 38q-14 17 -56 42z" />
  </g>

</svg>
