<?xml version="1.0" standalone="no"?>
<!DOCTYPE svg PUBLIC "-//W3C//DTD SVG 1.1//EN" "http://www.w3.org/Graphics/SVG/1.1/DTD/svg11.dtd" >
<svg xmlns="http://www.w3.org/2000/svg" xmlns:xlink="http://www.w3.org/1999/xlink" version="1.1" viewBox="0 -205 1024 1024">
  <g transform="matrix(1 0 0 -1 0 819)">
   <path fill="currentColor"
d="M49 478h268v156h-125q-34 -76 -84 -133l-14 8q83 164 89 237q-2 6 -10 20q7 -11 -1 2l8 9l68 -32q17 -11 7 -17q-21 -5 -33 -19q-10 -29 -21 -55h116v125q2 17 -25 42l8 11l82 -34q14 -5 6 -11q-16 -4 -27 -18v-115h80l32 42l72 -50q8 -6 7 -9q-2 -3 -13 -3h-178v-156
h128l23 30l54 -36q11 -7 8 -10q-3 -4 -19 -4h-119v-275q-4 -89 77 -90q41 -5 176 -3q135 0 168 2q79 3 84 36q11 38 15 166h15q4 -103 4 -128q2 -25 25 -41q-13 -54 -64 -64q-24 -9 -181 -11q-93 -1 -144 0q-54 0 -86 2q-73 4 -104 25t-29 96v285h-114q-1 -106 -19 -181
q-19 -80 -83 -151q-64 -74 -154 -116l-10 14q165 112 203 256q19 74 19 178h-106q-27 1 -45 -13zM690 834l82 -34q14 -5 6 -11q-16 -4 -27 -18v-87h100l32 42l72 -50q8 -6 7 -9q-2 -3 -13 -3h-198v-127h78l26 33l51 -40q14 -15 0 -18q-4 -1 -7 -2q-15 5 -33 -42
q-12 -28 -43 -93q-10 -19 -24 -39q22 -19 40 -42q39 -47 42 -85q4 -38 -17 -44q-20 -7 -31 26t-40 75q-10 17 -24 32q-27 -31 -65 -63q-84 -70 -200 -104l-6 16q120 59 188 123q31 30 55 58l-15 12q-37 31 -153 106l4 12q125 -54 174 -86q3 -1 8 -5q6 -3 8 -5q11 15 18 30
q31 58 52 125h-222q-25 1 -36 -14l-31 34h159v244q2 17 -25 42zM35 870h830l37 46l68 -52q11 -7 8 -10q-3 -4 -19 -4h-845q-27 1 -45 -13zM412 995l4 13q97 -25 115 -69q16 -45 -20 -52q-17 -1 -23 24q-6 26 -20 42q-14 17 -56 42z" />
  </g>

</svg>
