<?xml version="1.0" standalone="no"?>
<!DOCTYPE svg PUBLIC "-//W3C//DTD SVG 1.1//EN" "http://www.w3.org/Graphics/SVG/1.1/DTD/svg11.dtd" >
<svg xmlns="http://www.w3.org/2000/svg" xmlns:xlink="http://www.w3.org/1999/xlink" version="1.1" viewBox="0 -205 1024 1024">
  <g transform="matrix(1 0 0 -1 0 819)">
   <path fill="currentColor"
d="M435 412l25 -17h333l35 27l38 -35q7 -6 5 -10q-1 -5 -11 -7l-6 -9v-226l5 -54q3 -27 -49 -36v75h-333v-55q3 -36 -51 -44q5 37 7 88v270q-3 24 -10 22zM477 140h333v235h-333v-235zM271 995l88 -43q11 -9 1 -13q-18 -1 -37 -13q-38 -97 -80 -179v-583l2 -95
q2 -37 -53 -46q5 39 7 187v458q-81 -136 -175 -218l-12 7q129 167 196 315t68 173q2 26 -13 42zM1005 446v-16q-34 2 -47 -3q-12 -3 -28 -25q-142 59 -228 177q-34 47 -60 93q-75 -112 -156 -185q-82 -75 -207 -127l-6 14q192 113 293 270q38 59 39 71q2 13 -12 28l9 12
l83 -39q12 -5 13 -9q0 -4 -11 -7q-16 -2 -30 -11q28 -37 53 -65q126 -163 295 -178zM595 984l79 -35q9 -5 11 -9q1 -5 -6 -7q-16 1 -32 -7q-8 -11 -17 -22q98 -25 167 -60q88 -41 124 -88q38 -53 4 -78q-17 -7 -52 42t-95 89q-55 36 -161 78q-39 -49 -93 -103
q-76 -77 -229 -154l-7 13q96 64 172 136t107 119t31 55t-12 22z" />
  </g>

</svg>
