<?xml version="1.0" standalone="no"?>
<!DOCTYPE svg PUBLIC "-//W3C//DTD SVG 1.1//EN" "http://www.w3.org/Graphics/SVG/1.1/DTD/svg11.dtd" >
<svg xmlns="http://www.w3.org/2000/svg" xmlns:xlink="http://www.w3.org/1999/xlink" version="1.1" viewBox="0 0 2048 2048">
  <g transform="matrix(1 0 0 -1 0 2048)">
   <path fill="currentColor"
d="M1346 1653q100 123 183 285l104 -57q49 -27 39 -46q-9 -16 -104 -23q-62 -69 -163 -159h278l99 102l120 -107q21 -18 16 -33q-6 -19 -26 -19l-614 -1v-196h318l99 101l120 -107q21 -18 16 -33q-6 -19 -26 -19l-527 2v-184h494l99 102l120 -107q21 -18 16 -34
q-6 -18 -26 -18l-1214 -1q-70 0 -149 -11l-39 86q127 -18 188 -18l410 1v184h-268q-67 0 -149 -11l-39 86q124 -19 188 -19h268v196h-341q-70 0 -149 -11l-39 86q124 -18 188 -18zM1483 796q12 91 14 178l91 -20q99 -20 84 -53q-6 -12 -31 -19l-41 -11q-5 -45 -10 -75h171
l98 102l121 -107q20 -18 15 -33q-6 -19 -25 -19h-390q-53 -210 -209 -353q140 -44 257 -92q222 -92 237 -177q4 -23 -12 -41q-13 -16 -35 -16q-30 0 -103 56q-124 94 -392 205l-20 8q-138 -97 -296 -157q-167 -63 -427 -104l-7 41q388 76 634 257q-157 57 -449 120
q68 82 162 253h-182q-69 -1 -149 -11l-39 86q122 -18 188 -18h206q57 112 96 271l121 -47q53 -21 51 -46q-2 -24 -47 -28l-45 -4q-25 -57 -71 -146h434zM1474 739h-455q-86 -122 -160 -219q240 -54 409 -104q165 145 206 323zM861 1916q248 -96 256 -206q4 -49 -42 -57
q-42 -6 -72 57q-45 93 -165 174zM482 1955l147 -58q26 -10 35 -24q19 -33 -38 -42l-59 -8q-89 -255 -165 -403l92 -33q25 -9 25 -32q0 -17 -20 -25l-50 -19v-1035q0 -77 8 -147q1 -16 1 -30q0 -43 -64 -43q-42 0 -42 46v1234q-21 -34 -32 -51q-112 -180 -230 -306l-26 27
q182 258 274 484q115 286 144 465z" />
  </g>

</svg>
