<?xml version="1.0" standalone="no"?>
<!DOCTYPE svg PUBLIC "-//W3C//DTD SVG 1.1//EN" "http://www.w3.org/Graphics/SVG/1.1/DTD/svg11.dtd" >
<svg xmlns="http://www.w3.org/2000/svg" xmlns:xlink="http://www.w3.org/1999/xlink" version="1.1" viewBox="0 0 2048 2048">
  <g transform="matrix(1 0 0 -1 0 2048)">
   <path fill="currentColor"
d="M435 1403l108 -65h959l61 72l72 -49q37 -25 42 -44q4 -20 -25 -37q-6 -4 -13 -7q-9 -4 -26 -14v-425q0 -47 7 -104q3 -25 3 -43q0 -42 -60 -49q-49 -7 -48 24l1 50h-981v-41q0 -27 -44 -30q-65 -5 -60 50l4 42q7 98 7 104v358q0 115 -7 208zM535 1153h981v131h-981v-131z
M535 1099v-132h981v132h-981zM535 914v-145h981v145h-981zM362 616l131 -70h1070l62 73l71 -50q37 -25 41 -43q5 -20 -25 -38l-12 -6l-27 -15v-256l47 -35q8 -6 10 -14q5 -17 -7 -29q-4 -4 -9 -4h-1247v-38q0 -27 -46 -30q-66 -4 -61 51l4 41q6 98 6 105v187q-2 95 -8 171z
M467 188h1108v302h-1108v-302zM966 1950l124 -27q68 -15 68 -38q0 -22 -30 -26l-44 -6q165 -136 424 -252q214 -97 484 -134v-36q-52 -1 -72 -13q-22 -13 -40 -52q-260 67 -541 240q-121 75 -306 234q-19 -17 -95 -88q-294 -270 -857 -421l-9 38q310 109 545 253
q225 138 349 328zM1153 1520l80 81l114 -86q21 -16 16 -33q-6 -19 -26 -19h-456q-69 0 -149 -11l-39 86q120 -18 188 -18h272z" />
  </g>

</svg>
