<?xml version="1.0" standalone="no"?>
<!DOCTYPE svg PUBLIC "-//W3C//DTD SVG 1.1//EN" "http://www.w3.org/Graphics/SVG/1.1/DTD/svg11.dtd" >
<svg xmlns="http://www.w3.org/2000/svg" xmlns:xlink="http://www.w3.org/1999/xlink" version="1.1" viewBox="0 -205 1024 1024">
  <g transform="matrix(1 0 0 -1 0 819)">
   <path fill="currentColor"
d="M729 741l76 -34q14 -5 6 -11q-18 -6 -27 -18v-73h52l21 37l61 -39q11 -8 8 -13q-3 -4 -19 -5h-123v-142h82l25 38l67 -44q11 -8 8 -12q-3 -3 -19 -2h-278q15 -48 43 -97q18 -36 44 -69q56 40 84 64q30 27 36 37q6 11 -1 20l8 7l61 -52q7 -6 7 -9q0 -4 -7 -5
q-28 6 -72 -21q-40 -25 -104 -58q8 -9 17 -18q43 -50 88 -76q45 -28 129 -46l-1 -18q-12 3 -43 -2q-30 -4 -44 -25q-78 42 -133 103q-56 61 -89 130q-34 68 -48 135h-92v-306q46 34 155 101l10 -18q-56 -43 -113 -93q-42 -33 -49 -45q-7 -11 -15 -33l-60 52q18 9 30 25v317
h-89q-7 -79 -25 -139q-48 -149 -152 -241l-10 10q98 123 126 249q29 109 28 398v214q0 23 -22 48l10 8l49 -45h425l37 39l51 -47q7 -6 5 -10q-1 -5 -11 -7l-19 -10v-99l6 -42q-1 -18 -13 -24t-37 -12v41h-437v-66q0 -154 -9 -245h142v142h-37q-27 0 -53 -13l-26 33h116v83
q2 15 -25 42l8 11l80 -34q14 -5 6 -11q-21 -6 -31 -18v-73h143v83q2 15 -25 42zM869 905h-437v-131h437v131zM234 1008l90 -39q16 -12 7 -15q-22 0 -39 -15q-36 -103 -73 -185v-598l2 -96q0 -21 -15 -31q-14 -9 -38 -15q4 39 7 189v464q-61 -111 -135 -176l-12 7
q94 130 161 291q65 160 57 178q-7 18 -18 33zM603 585v-142h143v142h-143z" />
  </g>

</svg>
