<?xml version="1.0" standalone="no"?>
<!DOCTYPE svg PUBLIC "-//W3C//DTD SVG 1.1//EN" "http://www.w3.org/Graphics/SVG/1.1/DTD/svg11.dtd" >
<svg xmlns="http://www.w3.org/2000/svg" xmlns:xlink="http://www.w3.org/1999/xlink" version="1.1" viewBox="0 -205 1024 1024">
  <g transform="matrix(1 0 0 -1 0 819)">
   <path fill="currentColor"
d="M566 1003l87 -36q14 -5 6 -11q-21 -7 -30 -21v-66h244l31 40l62 -42q11 -8 8 -11q-2 -4 -19 -3h-326v-75h166l33 33l56 -41q7 -6 5 -10q-1 -5 -11 -7l-18 -9v-160l3 -86q-2 -33 -51 -45l4 71l1 38h-188l3 -39q-1 -49 -52 -44q5 37 7 80v3h-176v-42l5 -41q2 -37 -54 -46
q5 39 7 154v184q-7 21 -21 35l16 12l39 -40h184v75h-217q-27 1 -45 -13l-34 29h296v76q2 16 -30 46zM826 240v-44q-4 -96 -54 -135q-26 -23 -94 -37q3 41 -116 72l4 16q90 -23 110 -24q20 -3 45 1q26 4 42 28q17 24 21 99v35h-259q-8 -37 -20 -65q-29 -67 -100 -113
t-131 -58l-2 14q58 26 115 73q57 46 79 102q21 55 27 152h-157q-27 1 -45 -13l-34 33h628l39 42l60 -48q11 -8 8 -11q-2 -4 -19 -3h-435q-3 -49 -10 -89h240l32 35l42 -30q9 -6 9 -11q0 -4 -9 -8zM237 999l82 -43q11 -9 1 -13q-13 -1 -33 -13q-37 -105 -80 -192v-578l2 -95
q2 -36 -51 -46q5 39 7 187v454q-59 -99 -127 -168l-12 7q104 162 159 291q56 130 57 155q2 26 -13 42zM629 672h189v90h-189v-90zM587 762h-176v-90h176v90zM629 576h189v82h-189v-82zM587 658h-176v-82h176v82zM702 977l5 15q86 -23 96 -54q20 -43 -15 -47q-15 2 -18 16
q-2 15 -22 36t-46 34zM519 451l2 15q80 0 103 -32q21 -36 -7 -41q-13 0 -24 16q-23 34 -74 42z" />
  </g>

</svg>
