<?xml version="1.0" standalone="no"?>
<!DOCTYPE svg PUBLIC "-//W3C//DTD SVG 1.1//EN" "http://www.w3.org/Graphics/SVG/1.1/DTD/svg11.dtd" >
<svg xmlns="http://www.w3.org/2000/svg" xmlns:xlink="http://www.w3.org/1999/xlink" version="1.1" viewBox="0 0 2048 2048">
  <g transform="matrix(1 0 0 -1 0 2048)">
   <path fill="currentColor"
d="M1417 1257q223 151 351 311l102 -73q31 -21 31 -44q0 -25 -27 -22l-73 5q-192 -131 -371 -223q5 -23 8 -44q156 -77 288 -169q178 -125 199 -215q8 -31 -9 -55q-14 -19 -38 -19q-32 0 -55 38q-109 172 -368 357l-9 6q8 -83 8 -204q0 -138 -30 -234q-34 -109 -209 -137
q-4 49 -22 68q-20 21 -102 42q-51 12 -98 26l8 40q124 -28 207 -37q68 -8 96 14q50 39 50 331q0 32 -4 94q-112 -113 -291 -217q-174 -101 -426 -163l-16 38q261 81 456 225q161 119 258 243q-18 69 -51 142q-130 -130 -263 -209q-163 -96 -405 -157l-13 41q216 73 371 177
q114 77 261 231q-22 35 -65 95q-236 -179 -522 -258l-12 39q201 83 325 167q97 66 229 202h-274l-117 -5l-73 -3l-40 88q94 -22 230 -22h779l94 96l127 -102q18 -15 17 -33.5t-20 -18.5h-559q-76 -65 -147 -122q155 -153 214 -330zM1362 479q127 -100 176 -205
q30 -64 17 -121q-7 -29 -31 -46q-18 -13 -37 -7q-34 9 -41 99q-10 126 -113 254zM1077 509q109 -142 123 -296q5 -48 -19 -73q-17 -18 -40 -16q-28 1 -37 33q-3 13 -7 105q-6 116 -52 228zM811 496l41 -17q-17 -102 -68 -213q-84 -183 -186 -161q-33 8 -42 38q-12 42 61 82
q134 75 194 271zM1662 491q95 -72 139 -113q106 -99 112 -176q5 -72 -48 -80q-39 -6 -53 60q-24 123 -178 284zM400 1395l83 -31q31 -11 23 -38q-4 -14 -17 -19l-52 -21l1 -1004v-64l2 -36l2 -36q6 -54 1 -71q-9 -31 -62 -28q-28 2 -35 17q-7 14 -7 96v1113
q-116 -215 -224 -334l-30 34q300 453 384 969l145 -52q50 -18 42 -46q-5 -20 -43 -24l-61 -7q-71 -253 -152 -418z" />
  </g>

</svg>
