<?xml version="1.0" standalone="no"?>
<!DOCTYPE svg PUBLIC "-//W3C//DTD SVG 1.1//EN" "http://www.w3.org/Graphics/SVG/1.1/DTD/svg11.dtd" >
<svg xmlns="http://www.w3.org/2000/svg" xmlns:xlink="http://www.w3.org/1999/xlink" version="1.1" viewBox="0 -205 1024 1024">
  <g transform="matrix(1 0 0 -1 0 819)">
   <path fill="currentColor"
d="M253 995l80 -39q11 -9 1 -13q-13 -1 -33 -13q-36 -103 -78 -189v-577l2 -95q2 -36 -51 -46q5 39 7 187v451q-64 -111 -140 -186l-12 7q113 168 169 302q57 134 58 159q2 26 -13 42zM631 887h216l32 40l68 -50q8 -5 7 -8q-2 -2 -13 -2h-149q1 -79 -7 -146h90l32 40l68 -50
q8 -5 7 -8q-2 -2 -13 -2h-159q19 -61 34 -93q40 -81 73 -113q29 -29 79 -38v-18q-34 4 -45 0q-13 -4 -29 -22q-71 62 -108 176q-15 44 -27 108h-4l-4 -27q-27 -185 -189 -266l-10 14q78 62 113 124t46 145l1 10h-38q-27 1 -45 -13l-34 33h119q7 67 8 146h-40q-27 1 -45 -13z
M291 715h151q5 69 4 154h-34q-27 1 -45 -13l-34 33h186l32 36l62 -46q8 -5 7 -8q-2 -2 -13 -2h-119q2 -84 -4 -154h35l32 40l68 -50q8 -5 7 -8q-2 -2 -13 -2h-131l-3 -22q0 -3 -2 -10q-1 -6 -2 -10l59 -39q60 -54 66 -92t-16 -47t-27 23t-23 62q-16 27 -63 74
q-16 -65 -53 -115q-48 -64 -132 -117l-10 12q153 121 164 277v4h-70q-27 1 -45 -13zM520 327q7 -8 -1 -13q-16 -4 -33 -15v-148q0 -26 11 -38q11 -13 97 -13q86 -2 154 3q38 2 42 34q5 38 4 99h17l4 -59q3 -51 27 -66q-18 -37 -59 -43q-5 -1 -8 -1q-23 -4 -124 -4
q-100 -1 -159 2q-55 14 -48 85v162q-3 23 -24 42l8 10zM834 313l8 11q95 -49 121 -109q20 -58 -20 -65q-16 0 -20 28t-27 64q-22 36 -62 71zM363 301q-1 -34 -7 -81q-6 -46 -22 -68q-43 -48 -69 -15q-11 18 14 32q25 15 41 39q16 26 26 93h17zM545 386l6 13q61 -24 85 -43
t35 -42q20 -52 -18 -62q-16 0 -21 22q-4 23 -20 48q-16 27 -67 64z" />
  </g>

</svg>
