<?xml version="1.0" standalone="no"?>
<!DOCTYPE svg PUBLIC "-//W3C//DTD SVG 1.1//EN" "http://www.w3.org/Graphics/SVG/1.1/DTD/svg11.dtd" >
<svg xmlns="http://www.w3.org/2000/svg" xmlns:xlink="http://www.w3.org/1999/xlink" version="1.1" viewBox="0 -205 1024 1024">
  <g transform="matrix(1 0 0 -1 0 819)">
   <path fill="currentColor"
d="M716 998l95 -39q3 -4 2 -6q-2 -2 -7 -3q-20 -7 -29 -20v-62h106l32 32l56 -42q8 -5 7 -8q-2 -2 -13 -2h-188v-59l4 -53q0 -30 -44 -42v25h-92v-74h178l37 41l44 -45q7 -6 5 -10q-1 -5 -11 -7l-18 -9v-64l6 -57q-3 -21 -44 -23v24h-197v-91h174l32 36l56 -42q8 -5 7 -8
q-2 -2 -13 -2h-256v-96h250l32 32l56 -42q8 -5 7 -8q-2 -2 -13 -2h-635q-27 1 -45 -13l-34 33h342v96h-179q-27 1 -45 -13l-34 29h258v91h-188q-1 -20 -11 -29t-36 -14q1 6 2 17q3 20 5 47v116q-3 22 -17 38l14 11l34 -36h197v74h-89q-2 -13 -10 -20q-10 -10 -36 -15
q5 37 7 100v64h-103q-27 1 -45 -13l-34 33h182v76q2 16 -30 46l9 12l85 -36q14 -5 6 -11q-21 -7 -30 -21v-66h220v72q2 16 -30 46zM226 995l78 -43q11 -9 1 -13q-18 -1 -33 -13q-32 -94 -67 -172v-594l2 -95q1 -34 -49 -46q5 39 7 187v467q-61 -114 -135 -186l-12 7
q101 156 155 290q55 134 56 159q2 26 -13 42zM737 848h-220v-113h220v113zM645 511h197v118h-197v-118zM605 629h-188v-118h188v118zM811 215l8 10q138 -73 139 -135q4 -35 -17 -40t-26 22t-22 57q-12 23 -82 86zM398 219q7 -89 -22 -141q-13 -24 -39 -34q-25 -10 -36 8
t17 37q29 19 45 47q17 26 19 83h16zM657 217l10 8q93 -63 96 -132q1 -34 -22 -38q-23 -5 -25 27q-2 31 -11 62q-7 29 -48 73zM490 211l10 8q81 -64 84 -132q1 -34 -22 -38q-23 -5 -25 27q-1 31 -9 62q-7 29 -38 73z" />
  </g>

</svg>
