<?xml version="1.0" standalone="no"?>
<!DOCTYPE svg PUBLIC "-//W3C//DTD SVG 1.1//EN" "http://www.w3.org/Graphics/SVG/1.1/DTD/svg11.dtd" >
<svg xmlns="http://www.w3.org/2000/svg" xmlns:xlink="http://www.w3.org/1999/xlink" version="1.1" viewBox="0 -205 1024 1024">
  <g transform="matrix(1 0 0 -1 0 819)">
   <path fill="currentColor"
d="M649 790l32 -33h42l54 143h-103q-27 1 -45 -13l-34 33h308l32 32l56 -42q8 -5 7 -8q-2 -2 -13 -2h-161l-76 -143h133l35 35l46 -43q7 -6 5 -10q-1 -5 -11 -7l-18 -9v-370l4 -71q-1 -30 -42 -31v56h-205v-19q4 -37 -45 -44q5 37 7 140v357q-3 19 -17 41zM210 995l78 -39
q11 -9 1 -13q-18 -1 -33 -13q-32 -110 -71 -200v-562l2 -95q1 -33 -47 -46q5 39 7 187v439q-53 -99 -118 -167l-12 7q102 164 149 295q48 132 49 157q2 26 -13 42zM357 817v-185h78v307q2 17 -25 42l8 11l76 -34q14 -5 6 -11q-16 -4 -27 -18v-117h46l32 32l56 -42q8 -5 7 -8
q-2 -2 -13 -2h-128v-160h70l32 32l56 -42q8 -5 7 -8q-2 -2 -13 -2h-327q-27 1 -45 -13l-34 33h102v195q2 16 -21 38l8 11l70 -30q14 -5 6 -11q-16 -4 -27 -18zM695 607h205v130h-205v-130zM900 455h-205v-128h205v128zM900 591h-205v-120h205v120zM617 445q5 -12 -5 -12
q-15 -1 -27 -17q-17 -129 -95 -220q-77 -89 -250 -169l-4 12q261 162 297 318q18 74 11 84q-6 11 -18 27l6 8zM473 546v-182l2 -57q4 -37 -47 -44q5 37 7 148v145q2 16 -21 38l8 11l72 -30q14 -5 6 -11q-16 -4 -27 -18zM322 493l68 -32q8 -9 -3 -13q-19 -1 -27 -11
q-40 -121 -115 -225l-14 8q43 81 68 154t23 86t-8 25zM718 252l52 -40q17 -11 7 -14q-16 -1 -33 -11q-79 -95 -190 -153l-10 11q124 100 168 166q8 15 -2 36zM834 223l8 14q124 -66 146 -131q17 -54 -16 -61q-14 -2 -23 30q-7 31 -33 70q-24 36 -82 78z" />
  </g>

</svg>
