<?xml version="1.0" standalone="no"?>
<!DOCTYPE svg PUBLIC "-//W3C//DTD SVG 1.1//EN" "http://www.w3.org/Graphics/SVG/1.1/DTD/svg11.dtd" >
<svg xmlns="http://www.w3.org/2000/svg" xmlns:xlink="http://www.w3.org/1999/xlink" version="1.1" viewBox="0 -200 1000 1000">
  <g transform="matrix(1 0 0 -1 0 800)">
   <path fill="currentColor"
d="M441 370h49v-47h-49v47zM394 323h-51v47h51v-47zM394 253h-51v49h51v-49zM441 302h49v-49h-49v49zM506 168h-65v63h49v-44q9 2 23.5 8t23.5 15l1 140l25 33l-42 49l-37 -41h-43v65h123l-46 60l-29 -39h-48v17l18 40l-65 31v-88h-115l15 -34l39 13h61v-65h-39l-61 35v-239
q20 8 35 14.5t15 10.5q0 2 -1 3l3 16h48v-63h-147l15 -34l40 13h92v-149q16 3 30.5 9.5t16.5 17.5v122h162l-53 58zM832 378h50v-47h-50v47zM784 331h-52v47h52v-47zM784 259h-52v52h52v-52zM832 311h50v-52h-50v52zM903 175h-71v65h50v-45q9 2 22.5 7.5t21.5 16.5l1 139
l27 28l-36 49l-43 -36h-43v65h122l-45 58l-30 -39h-47v19l18 39l-66 31v-89h-115l14 -32l40 13h61v-65h-41l-60 35v-239q20 8 35 14.5t15 11.5q0 2 -1 3l3 16h49v-65h-147l14 -34l41 14h92v-148q16 2 31.5 8.5t16.5 16.5v123h160l-48 58zM628 810h89v-50h-89v50zM580 760
h-92v50h92v-50zM580 693h-92v47h92v-47zM628 740h89v-47h-89v47zM769 611h-141v62h89v-44q11 2 26.5 7.5t25.5 15.5v140l28 29l-50 45l-38 -35h-81v64h194l-59 59l-43 -39h-92v16l19 44l-67 26v-86h-199l27 -34l49 14h123v-64h-78q-26 16 -45 25t-21 9v-236q22 8 37.5 15
t15.5 10q0 1 -1 2l4 17h88v-62h-237l17 -30l55 11h165v-101q17 2 32 8t16 16v77h249l-62 61zM235 40q-13 -13 -22 -20t-29 -15v636q-38 -67 -75.5 -119.5t-73.5 -91.5l-8 13q29 48 54.5 93.5t47.5 90.5q25 54 43 96t33 83.5t29 87.5t30 108l78 -48l-30 -30
q-32 -73 -53.5 -125.5t-34.5 -84.5l29 -31l-18 -57v-586z" />
  </g>

</svg>
