<?xml version="1.0" standalone="no"?>
<!DOCTYPE svg PUBLIC "-//W3C//DTD SVG 1.1//EN" "http://www.w3.org/Graphics/SVG/1.1/DTD/svg11.dtd" >
<svg xmlns="http://www.w3.org/2000/svg" xmlns:xlink="http://www.w3.org/1999/xlink" version="1.1" viewBox="0 -205 1024 1024">
  <g transform="matrix(1 0 0 -1 0 819)">
   <path fill="currentColor"
d="M582 667q4 -3 3 -5q0 -2 -4 -4q-17 -2 -35 -17v-465q0 -45 15 -59q13 -15 60 -13q41 0 73 -1h6q22 1 64 5q50 4 54 40q5 46 6 139h15l8 -86q1 -65 31 -79q-16 -26 -30 -33q-12 -7 -43 -14t-99 -8h-68q-29 0 -56 1q-90 6 -82 106v476q-3 23 -30 46l8 10zM368 808l18 -10
q-114 -310 -156 -384t-54 -115t1 -139q13 -97 -28 -100t-26 98q15 102 0 123t-97 29l2 20q54 -3 74 0t35 10t50 70t181 398zM798 568l10 11q147 -101 165 -199q8 -44 -8 -59q-15 -15 -29 -6q-13 9 -20 55q-6 47 -36 97t-82 101zM390 506q4 -175 -42 -234q-47 -50 -74 -17
q-13 20 13 36q26 17 52 56t34 159h17zM535 938l5 15q129 -34 176 -104q42 -75 -7 -89q-22 -1 -34 40q-19 73 -140 138zM60 891l4 15q144 -36 166 -127q8 -43 -14 -52q-24 -11 -36 31q-11 41 -39 72q-25 28 -81 61z" />
  </g>

</svg>
