<?xml version="1.0" standalone="no"?>
<!DOCTYPE svg PUBLIC "-//W3C//DTD SVG 1.1//EN" "http://www.w3.org/Graphics/SVG/1.1/DTD/svg11.dtd" >
<svg xmlns="http://www.w3.org/2000/svg" xmlns:xlink="http://www.w3.org/1999/xlink" version="1.1" viewBox="0 0 2048 2048">
  <g transform="matrix(1 0 0 -1 0 2048)">
   <path fill="currentColor"
d="M1573 1763l-1201 -1l1 -445q1 -535 -52 -768q-63 -276 -238 -490l-25 20q125 204 174 468q50 274 50 717v407q0 124 -17 229l119 -81l1175 1l71 77l83 -68q40 -32 39 -52q-2 -25 -86 -63q-12 -230 -12 -493q0 -474 70 -704q26 -83 83 -195q28 -56 51 -49q15 4 59 173
l42 168l29 -10q-36 -246 -40 -308q-5 -101 14 -159q9 -29 6 -41q-6 -23 -37 -23q-54 0 -139 100q-115 134 -181 428q-51 229 -51 648q0 186 13 514zM1162 1683l106 -78q44 -32 24 -51q-10 -10 -37 -10l-61 1q-154 -127 -286 -198q-173 -92 -402 -144l-11 29q219 78 370 178
q138 93 297 273zM1424 608q-170 -147 -225 -189q-320 -239 -823 -324l-10 33q335 85 578 228q246 145 448 394l90 -68q51 -38 49 -56q-4 -24 -44 -22zM1277 1217l106 -78q43 -32 24 -51q-11 -11 -38 -10l-60 1q-189 -159 -349 -245q-217 -117 -493 -179l-10 33
q270 90 457 208q198 126 363 321z" />
  </g>

</svg>
