<?xml version="1.0" standalone="no"?>
<!DOCTYPE svg PUBLIC "-//W3C//DTD SVG 1.1//EN" "http://www.w3.org/Graphics/SVG/1.1/DTD/svg11.dtd" >
<svg xmlns="http://www.w3.org/2000/svg" xmlns:xlink="http://www.w3.org/1999/xlink" version="1.1" viewBox="0 0 2048 2048">
  <g transform="matrix(1 0 0 -1 0 2048)">
   <path fill="currentColor"
d="M846 419q98 -82 217 -127q158 -59 477 -59q207 0 457 43l7 -39q-62 -16 -83 -38q-20 -21 -25 -69l-376 1q-349 1 -519 79q-122 56 -213 148q-205 -178 -495 -253l-10 34q301 119 448 286q-70 95 -124 219q-12 30 -24 55q-6 -8 -21 -29q-70 -95 -201 -201l-25 27
q219 239 320 604l100 -36q62 -22 64 -46t-35 -28l-52 -5q-26 -54 -52 -118l241 1l81 70l89 -70q28 -23 25 -38q-5 -22 -82 -55q-85 -227 -189 -356zM616 749q71 -153 164 -263q97 142 156 326h-283zM1133 1390l267 1l98 91l118 -92q27 -21 22 -40q-6 -18 -26 -18h-480
l-1 -154h431l108 113l131 -113q28 -23 22 -40q-6 -18 -26 -18h-1104q-117 0 -192 -8l-38 88q91 -22 230 -22h344v154h-227q-116 0 -192 -8l-38 88q92 -22 230 -22h227v150h-693v-360q0 -483 -60 -734q-53 -221 -179 -378l-31 20q96 180 131 401q38 241 38 679v336
q0 24 -6 173l116 -76h684v174h-371q-120 0 -192 -8l-38 88q94 -22 230 -22h877l108 113l131 -113q27 -23 22 -40q-6 -18 -26 -18h-643l-1 -174h662l62 68l79 -53q58 -40 55 -62q-2 -24 -87 -43q-67 -75 -154 -151l-32 21q36 57 77 159h-662zM1202 988l126 -87h168l61 72
l73 -50q37 -25 41 -43q5 -20 -25 -38q-6 -3 -13 -6l-27 -15v-296q0 -36 18 -48q18 -13 72 -10q64 4 75 10q26 13 44 87l27 109l38 -6l-11 -123q-4 -36 19 -57l28 -25q14 -13 15 -29q2 -28 -53.5 -40.5t-183.5 -12.5q-120 0 -152 23q-27 18 -27 70v369h-209
q-14 -206 -54 -295q-49 -108 -200 -215l-23 29q100 94 139 212q39 120 39 298q0 74 -5 117z" />
  </g>

</svg>
