<?xml version="1.0" standalone="no"?>
<!DOCTYPE svg PUBLIC "-//W3C//DTD SVG 1.1//EN" "http://www.w3.org/Graphics/SVG/1.1/DTD/svg11.dtd" >
<svg xmlns="http://www.w3.org/2000/svg" xmlns:xlink="http://www.w3.org/1999/xlink" version="1.1" viewBox="0 -205 1024 1024">
  <g transform="matrix(1 0 0 -1 0 819)">
   <path fill="currentColor"
d="M884 927q-2 22 -26 46l8 11l87 -38q10 -5 11 -8q2 -3 -4 -6q-18 -6 -31 -16v-813q-2 -34 -17 -52q-18 -18 -75 -30q-10 29 -34 38q-12 5 -60 18q-18 5 -28 8l4 18l42 -8q66 -16 94 -10q27 6 29 51v791zM338 476q-5 26 -28 46l8 11l88 -38q9 -4 11 -7q2 -4 -4 -7
q-18 -5 -31 -16v-75h156l35 42l66 -48q11 -8 8 -11q-2 -3 -19 -3h-246q2 -173 3 -252q-3 -73 -105 -88q0 31 -24 39q-9 3 -40 14q-30 10 -49 17l4 16q115 -24 140 -16q25 7 27 50v220h-209q-27 1 -45 -13l-34 33h288v86zM131 938q134 -24 231 -61q1 0 1 -1q2 -1 4 -1
q93 75 98 89q5 15 -3 30l8 7l66 -42q10 -12 1 -15q-22 -1 -39 -13q-57 -52 -86 -74q61 -27 101 -55q53 -39 60 -63q6 -25 -12 -31q-20 -6 -65 45q-40 43 -118 79q-142 -104 -286 -146l-6 16q136 58 250 148q-96 38 -213 73zM167 671q94 -16 187 -50q75 62 86 80q12 21 8 40
l10 7l58 -46q10 -12 1 -15q-24 -1 -39 -13q-39 -38 -79 -70q81 -32 118 -56q42 -30 50 -54q7 -25 -11 -31t-57 35q-38 40 -134 82q-134 -99 -287 -139l-6 16q153 61 252 140q-81 33 -164 59zM683 863l89 -36q14 -5 6 -11q-21 -9 -30 -21v-435l2 -57q0 -21 -13 -30
q-15 -9 -40 -14q4 36 7 149v397q2 16 -30 46zM183 334l78 -42q3 -10 -5 -15q-18 3 -33 -9q-81 -127 -181 -197l-12 11q67 71 124 153q35 50 30 63q0 11 -8 26zM459 319l8 12q97 -56 139 -126q44 -81 -1 -105q-25 -8 -33 38q-7 43 -41 95q-24 41 -72 86z" />
  </g>

</svg>
