<?xml version="1.0" standalone="no"?>
<!DOCTYPE svg PUBLIC "-//W3C//DTD SVG 1.1//EN" "http://www.w3.org/Graphics/SVG/1.1/DTD/svg11.dtd" >
<svg xmlns="http://www.w3.org/2000/svg" xmlns:xlink="http://www.w3.org/1999/xlink" version="1.1" viewBox="0 -205 1024 1024">
  <g transform="matrix(1 0 0 -1 0 819)">
   <path fill="currentColor"
d="M396 604h114v106q2 16 -30 46l9 12l85 -36q14 -5 6 -11q-21 -9 -30 -21v-96h32l26 28l55 -38q7 -5 6 -8q-1 -2 -12 -2h-107v-55q31 -21 60 -47q35 -33 47 -60q9 -28 3 -50q-7 -21 -23 -21q-16 -2 -22 34q-6 33 -27 68q-14 23 -38 50v-332l2 -92q0 -21 -11 -31
q-12 -9 -38 -15q4 39 7 177v241q-48 -141 -140 -254l-12 12q114 177 145 375h-42q-17 0 -35 -13zM155 604h113v117q2 16 -30 46l9 12l85 -36q14 -5 6 -11q-21 -9 -30 -21v-107h9l26 28l55 -38q7 -5 6 -8q-1 -2 -12 -2h-84v-79q24 -12 43 -24q31 -20 46 -41t10 -42
q-6 -22 -19 -21q-17 0 -20 23q-6 21 -27 47q-8 9 -30 29q17 -14 -3 3v-315l2 -84q0 -21 -12 -31q-13 -9 -37 -15q4 39 7 177v253q-46 -123 -126 -228l-10 10q105 186 127 338h-27q-31 0 -43 -13zM897 923q-3 22 -27 46l8 11l85 -38q10 -5 11 -8q2 -3 -4 -6q-18 -6 -31 -16
v-807q-2 -34 -17 -52q-18 -18 -75 -30q-10 29 -34 38q-12 5 -60 18q-18 5 -28 8l4 18l42 -8q68 -16 96 -10q27 6 30 51v785zM101 855l37 -38h421l32 40l69 -48q8 -6 6 -9q-1 -3 -12 -3h-502q0 -243 -4 -393q-4 -112 -36 -210t-80 -149l-10 12q36 63 59 161q21 99 25 203
q3 101 3 360q0 36 -22 60zM705 855l87 -36q14 -5 6 -11q-21 -9 -30 -21v-439l2 -57q0 -21 -12 -30q-13 -9 -39 -14q4 36 7 149v401q2 16 -30 46zM283 981q57 -14 87 -35q30 -22 38 -43q7 -24 1 -39q-7 -16 -22 -16q-16 0 -22 25q-6 24 -22 45q-18 20 -66 50z" />
  </g>

</svg>
