<?xml version="1.0" standalone="no"?>
<!DOCTYPE svg PUBLIC "-//W3C//DTD SVG 1.1//EN" "http://www.w3.org/Graphics/SVG/1.1/DTD/svg11.dtd" >
<svg xmlns="http://www.w3.org/2000/svg" xmlns:xlink="http://www.w3.org/1999/xlink" version="1.1" viewBox="0 0 2048 2048">
  <g transform="matrix(1 0 0 -1 0 2048)">
   <path fill="currentColor"
d="M988 401q260 -97 270 -186q6 -55 -42 -60q-22 -3 -37 15q-6 6 -30 46q-25 43 -115 112q-31 24 -65 40q-99 -153 -270 -279l-26 31q141 133 211 271q45 90 80 217h-98v-18q0 -27 -45 -30q-66 -6 -61 50l4 42q7 98 7 104l-1 232l101 -54h202l61 71l72 -49q37 -25 41 -44
q5 -19 -25 -37q-25 -15 -36 -24v-163q18 -14 28 -19q38 -22 34 -42q-3 -19 -30 -19h-197l62 -23q34 -13 34 -34q0 -24 -34 -27l-35 -2q-24 -61 -60 -121zM1097 874h-231v-208h231v208zM450 402q232 -105 232 -181q0 -42 -38 -48q-30 -5 -53 34q-39 69 -87 109q-19 15 -71 54
q-102 -178 -254 -282l-22 28q70 62 138 174q87 145 119 318h-91v-21q0 -26 -43 -30q-66 -7 -60 51l4 41q6 96 6 105l1 228l95 -48h208l61 71l72 -49q37 -26 41 -44q7 -27 -63 -54l1 -168q17 -18 27 -26q17 -15 21 -26q3 -10 -5 -20t-20 -10h-183l63 -21q34 -11 29 -31
q-5 -18 -36 -23q-5 -1 -10 -1q-10 -1 -31 -5q-28 -82 -51 -125zM557 666v208h-234v-208h234zM762 1436l40 -15q112 -42 142 -53q275 -100 333 -197q18 -29 8.5 -61t-36.5 -34q-32 -3 -90 55q-152 150 -342 233q-36 16 -89 41q-142 -140 -241 -198q-158 -92 -380 -160l-14 36
q424 171 613 478l138 -51q19 -7 25 -24q8 -29 -35 -34l-64 -7zM330 1677q-78 -178 -180 -317l-35 24q133 264 198 578l137 -48q56 -20 38 -48q-10 -16 -48 -21l-48 -6q-19 -59 -38 -106h195l79 87l120 -92q11 -8 14 -20q8 -30 -22 -30zM918 1677q-69 -114 -98 -146l-35 24
q88 181 129 407l138 -48q56 -20 38 -48q-10 -16 -48 -21l-48 -6q-22 -61 -45 -106h202l79 87l120 -92q11 -8 14 -20q8 -30 -22 -30zM1755 1924l110 -24q82 -18 85 -43q3 -29 -49 -44l-40 -11v-1580q0 -142 -155 -170q-12 70 -47 92q-33 21 -160 44l8 46q140 -23 190 -27
q68 -6 68 57l1 1494q0 106 -11 166zM993 1667q98 -71 127 -107q33 -44 36 -83q3 -31 -11 -54q-14 -21 -39 -19q-25 1 -34 42q-25 107 -102 194zM1404 1657l109 -24q82 -18 85 -43q4 -29 -49 -44l-40 -11v-800q0 -108 11 -209q3 -29 3 -54q0 -39 -49 -42q-62 -4 -62 42v1026
q0 113 -8 159zM856 1141l80 81l114 -86q21 -16 16 -34q-6 -18 -26 -18h-399q-116 0 -191 -8l-39 88q93 -23 230 -23h215zM391 1667q99 -71 127 -107q33 -44 36 -83q3 -31 -11 -54q-14 -21 -39 -19q-24 1 -34 42q-25 109 -102 194z" />
  </g>

</svg>
