<?xml version="1.0" standalone="no"?>
<!DOCTYPE svg PUBLIC "-//W3C//DTD SVG 1.1//EN" "http://www.w3.org/Graphics/SVG/1.1/DTD/svg11.dtd" >
<svg xmlns="http://www.w3.org/2000/svg" xmlns:xlink="http://www.w3.org/1999/xlink" version="1.1" viewBox="0 -205 1024 1024">
  <g transform="matrix(1 0 0 -1 0 819)">
   <path fill="currentColor"
d="M208 971l73 -27q7 -5 7 -9q-1 -3 -10 -5q-12 -3 -18 -8t-42 -86h274l32 39l46 -38q9 -6 9 -11q0 -4 -9 -8l-20 -13v-65q-4 -145 -16 -195q-12 -49 -37 -74t-87 -37q-2 27 -23 34q-21 8 -69 24l6 14q3 -1 9 -2q51 -12 69 -14q18 -1 41 3t41 47q18 44 22 178v98h-73
q-17 -107 -55 -182q23 -24 30 -48q12 -37 -7 -45q-19 -7 -33 27q-6 14 -14 26q-10 -16 -21 -29q-76 -91 -206 -150l-10 12q125 77 189 165q12 15 21 32l-4 4q-19 15 -65 39q-13 -22 -28 -41q-59 -69 -161 -116l-10 12q93 59 142 127q12 17 22 36l-18 9q-14 7 -21 11l6 14
q24 -6 44 -12q21 48 30 109h-55q-42 -87 -128 -154l-8 12q86 109 114 184q29 75 27 84t-14 19zM696 991l94 -37q14 -6 6 -12q-16 -4 -36 -15v-190h139l41 40l46 -49q7 -6 5 -10q-1 -5 -11 -7l-22 -10v-172q-1 -267 -33 -359q-27 -68 -64 -93q-37 -26 -101 -33q8 41 -110 76
l4 16q82 -24 124 -28q78 -10 109 97q19 60 25 342v170h-153q-5 -294 -67 -444q-70 -167 -220 -251l-4 16q130 103 188 262q54 150 58 417h-68q-22 1 -39 -13l-33 33h140v204q-7 26 -27 37zM250 350q7 -8 -1 -13q-16 -4 -21 -15v-156q-8 -55 66 -51q44 -2 92 3q37 2 42 32
q5 40 4 101h17l4 -59q3 -44 25 -58q-25 -51 -65 -52q-57 -8 -179 -2q-55 14 -48 92v163q-3 11 -24 30l8 10zM306 816q-11 -69 -34 -121q48 -16 74 -34q31 67 43 155h-83zM440 352l8 11q95 -49 121 -109q20 -59 -20 -67q-16 1 -20 29q-4 29 -27 65q-22 36 -62 71zM268 410
l6 13q54 -31 71 -53q17 -21 26 -49q15 -60 -20 -64q-13 1 -17 29q-11 73 -66 124zM132 333q-1 -34 -7 -87q-6 -52 -22 -72q-39 -45 -61 -17q-11 17 14 32q25 14 37 39q12 26 22 105h17z" />
  </g>

</svg>
