<?xml version="1.0" standalone="no"?>
<!DOCTYPE svg PUBLIC "-//W3C//DTD SVG 1.1//EN" "http://www.w3.org/Graphics/SVG/1.1/DTD/svg11.dtd" >
<svg xmlns="http://www.w3.org/2000/svg" xmlns:xlink="http://www.w3.org/1999/xlink" version="1.1" viewBox="0 -200 1000 1000">
  <g transform="matrix(1 0 0 -1 0 800)">
   <path fill="currentColor"
d="M213 751q0 78 -1 140t-3 110l81 -36l-19 -61v-153h150l37 44l54 -49l-33 -38q-2 -264 -17.5 -411t-38.5 -181q-23 -33 -47.5 -45t-57.5 -19q-2 15 -4 26t-10.5 21t-26.5 20.5t-52 24.5l4 10q45 -11 71.5 -16t42.5 -5q13 0 21 3q14 5 24.5 35t16.5 75q8 45 13.5 163
t5.5 320h-153q-2 -73 -5.5 -133t-8.5 -111q-8 -69 -27.5 -139t-50 -134.5t-71.5 -120.5t-93 -98l-9 6q76 98 117 185.5t60.5 173.5t23.5 176.5t6 194.5h-74l-74 -13l-29 35h177zM565 191q16 2 32.5 9t21.5 16v23h244v-34q19 5 34 14t21 21v376l35 42l-66 48l-39 -42h-224
l-59 31v-504zM606 696q14 2 27.5 10.5t23.5 22.5v19h225v143l36 31l-56 51l-41 -37h-164l-51 33v-273zM657 770v144h173v-144h-173zM863 387h-244v114h244v-114zM619 525v116h237l7 -2v-114h-244zM863 260h-244v103h244v-103zM426 15q83 26 145.5 62t113.5 70l44 10l-47 76
q-13 -18 -42 -45.5t-65 -57.5t-76 -59t-75 -50q-2 -2 -2 -3t2 -1h5l-1 -1q-1 0 -1 -0.5t-1 -0.5zM779 212q30 -11 52 -43t38.5 -65.5t27.5 -59.5t19 -26q6 0 13 4t14 10t11.5 14.5t4.5 17.5q0 18 -15.5 40t-40 43t-56 39t-64.5 29z" />
  </g>

</svg>
