<?xml version="1.0" standalone="no"?>
<!DOCTYPE svg PUBLIC "-//W3C//DTD SVG 1.1//EN" "http://www.w3.org/Graphics/SVG/1.1/DTD/svg11.dtd" >
<svg xmlns="http://www.w3.org/2000/svg" xmlns:xlink="http://www.w3.org/1999/xlink" version="1.1" viewBox="0 0 2048 2048">
  <g transform="matrix(1 0 0 -1 0 2048)">
   <path fill="currentColor"
d="M448 974l-161 -1v-16q0 -31 -44 -31q-62 0 -57 44q7 71 8 113v360l100 -62h401l61 72l72 -51q43 -29 45 -45q2 -21 -68 -55v-248q65 -32 58 -61q-5 -20 -35 -20l-285 1v-247h186l80 82l114 -86q21 -16 15 -33q-5 -19 -25 -19h-370v-401q-1 -82 7 -156q6 -61 -53 -61
q-49 0 -49 39l2 579h-202q-64 0 -149 -11l-39 86q116 -19 188 -19h202zM287 1029h424v298h-424v-298zM1342 1224h434l98 99l112 -99q18 -17 15 -34q-3 -16 -22 -16h-396q100 -123 200 -181q79 -46 219 -88l-5 -36q-60 1 -85 -9q-22 -10 -48 -45q-124 78 -204 168
q-35 39 -128 191h-218q-68 -110 -144 -197q-78 -88 -213 -193l-25 31q154 148 285 359h-45q-146 -3 -192 -8l-42 84q95 -26 234 -26h74q42 73 86 207h-101q-121 -2 -189 -8l-42 80q84 -24 231 -24h115q4 18 14 62q43 180 53 395l110 -27q58 -14 65 -33q8 -28 -38 -38
l-42 -10q-34 -222 -66 -349h245l89 95l115 -84q29 -21 26 -40t-30 -19h-458q-39 -118 -87 -207zM1273 766q12 106 12 188q0 18 -6 75l111 -22q77 -16 68 -49q-6 -19 -30 -26l-42 -12q-10 -105 -18 -154h285l52 71l91 -56q33 -20 35 -44q1 -22 -65 -59l-4 -41
q-20 -231 -28 -281q-42 -261 -255 -291q2 47 -30 74q-37 33 -164 73l15 44q59 -17 88 -26q95 -28 129 -28q73 0 105 104q23 76 39 261q2 29 5 95q1 20 3 50h-310q-43 -220 -126 -354q-99 -159 -346 -299l-23 34q341 227 402 619h-89q-87 0 -139 -9l-30 78q79 -15 178 -15h87
zM1747 1863l110 -51q31 -15 36 -32q8 -32 -42 -36l-50 -5q-105 -107 -214 -173l-28 30q116 117 188 267zM1060 1861q202 -141 208 -221q3 -37 -25 -59q-13 -9 -30 -9q-26 0 -39 21q-3 5 -16 51q-20 67 -124 187zM76 1574q208 131 332 360l114 -72q29 -18 30 -38
q3 -25 -26 -22l-69 6q-116 -109 -174 -152q-33 -25 -122 -82q210 8 632 41q-34 65 -127 168l24 23q116 -92 153 -130q43 -45 55 -60q27 -34 27 -73q0 -69 -53 -64q-35 3 -42 30q-13 51 -21 69q-222 -46 -457 -72q-114 -13 -183 -27q-6 -43 -19 -50q-28 -16 -39 23zM636 581
q228 -180 255 -306q14 -64 -29 -83q-31 -15 -57 18q-10 13 -31 79q-32 99 -99 185q-43 56 -61 84zM91 146l-27 23q74 100 137 272q6 16 41 145l69 -27q70 -28 68 -52q-1 -27 -45 -27h-26q-86 -204 -217 -334z" />
  </g>

</svg>
