<?xml version="1.0" standalone="no"?>
<!DOCTYPE svg PUBLIC "-//W3C//DTD SVG 1.1//EN" "http://www.w3.org/Graphics/SVG/1.1/DTD/svg11.dtd" >
<svg xmlns="http://www.w3.org/2000/svg" xmlns:xlink="http://www.w3.org/1999/xlink" version="1.1" viewBox="0 0 2048 2048">
  <g transform="matrix(1 0 0 -1 0 2048)">
   <path fill="currentColor"
d="M396 1576q87 -87 138 -153q73 -95 68 -170q-4 -72 -62 -66q-35 3 -41 68q-16 145 -130 297zM218 895q-23 -3 -46 -7l-17 -49q-8 -23 -24 -21q-17 3 -30 35l-50 128q95 3 172 9l1 18v627q-7 174 -14 216l118 -76h331l61 72l72 -49q37 -26 42 -44q5 -20 -25 -37
q-6 -4 -12 -7q-9 -4 -26 -14v-651q43 6 161 24l7 -41q-93 -26 -168 -42v-734q0 -142 -154 -171q-11 70 -47 93q-33 21 -160 44l8 46q139 -23 190 -27q68 -6 68 57v673q-63 -14 -296 -49l-64 -9q-13 -224 -37 -363q-41 -232 -195 -456l-36 20q104 193 139 418q21 131 31 367z
M676 1032v686h-356v-720q244 19 356 34zM1763 1554l68 76l83 -55q40 -25 40 -48q0 -18 -10 -26t-69 -38q-2 -78 -11 -338q-16 -530 -60 -754q-31 -161 -94 -226q-43 -44 -112 -67q-10 -4 -47 -12q-12 -2 -35 -8q-9 67 -60 95t-247 72l10 48q291 -72 336 -72q91 0 132 125
q38 119 63 480q27 412 27 694h-645q-108 -199 -257 -363l-34 27q249 340 335 785l116 -41q74 -27 68 -57q-3 -22 -32 -26l-65 -9q-67 -173 -108 -263zM1023 1162q92 -22 232 -22h143l87 100l126 -98q13 -10 16 -22q3 -13 -4.5 -23.5t-19.5 -10.5h-348q-118 0 -195 -8z
M963 701q98 -24 235 -24h244l98 96l140 -108q2 -2 2 -10q3 -34 -21 -34h-463q-117 0 -192 -8z" />
  </g>

</svg>
