<?xml version="1.0" standalone="no"?>
<!DOCTYPE svg PUBLIC "-//W3C//DTD SVG 1.1//EN" "http://www.w3.org/Graphics/SVG/1.1/DTD/svg11.dtd" >
<svg xmlns="http://www.w3.org/2000/svg" xmlns:xlink="http://www.w3.org/1999/xlink" version="1.1" viewBox="0 -205 1024 1024">
  <g transform="matrix(1 0 0 -1 0 819)">
   <path fill="currentColor"
d="M100 401l-5 14q206 104 326 258h-156q-27 1 -45 -13l-34 33h534l32 40l68 -50q8 -5 7 -8q-2 -2 -13 -2h-335q-28 -38 -58 -70q63 -54 110 -106q18 -23 33 -49q11 9 32 25q51 39 83 66q35 31 41 44t-1 31l12 5l63 -52q7 -8 3 -11q-3 -4 -18 -3q-18 2 -56 -27
q-36 -27 -148 -98l9 -21q105 -32 151 -58q50 -28 73 -69q23 -40 3 -58q-19 -18 -42 20q-22 38 -58 71q-31 28 -118 70q15 -49 15 -116q0 -78 -31 -131q-30 -57 -130 -74q1 24 -16 36q-13 10 -113 45l4 14q11 -3 32 -7q162 -54 186 18q18 33 19 83q2 51 -3 77q-4 24 -13 58
q-43 -58 -98 -103q-139 -111 -340 -173l-4 16q89 37 167 84q87 53 143 99q52 46 113 127q-6 14 -14 27q-10 16 -32 41q-48 -58 -93 -97q-2 -1 -5 -4q-8 -6 -20 -16q8 -6 13 -14q15 -22 15 -39q0 -20 -19 -25q-16 -4 -24 18q-4 17 -19 34q-22 -16 -48 -31q-57 -33 -169 -78
l-8 14q111 60 154 91q21 15 42 32q-22 17 -54 34l6 12q45 -7 76 -24q3 3 9 8q6 6 9 8q43 36 103 110l-45 47q-120 -119 -301 -183zM934 812v-346q0 -254 -22 -316q-21 -66 -59 -95q-36 -29 -102 -39q2 38 -93 66q-16 6 -25 9l4 16q73 -18 109 -24q37 -7 67 8t50 66
q21 52 25 283v383h-634q-16 -31 -37 -66q-65 -107 -171 -189l-10 10q76 85 133 179q57 92 77 153t17 68t-12 22l8 8l82 -38q8 -11 -10 -13q-16 0 -28 -16q-12 -44 -39 -98h608l33 41l50 -40q9 -6 9 -11q0 -4 -9 -8z" />
  </g>

</svg>
