<?xml version="1.0" standalone="no"?>
<!DOCTYPE svg PUBLIC "-//W3C//DTD SVG 1.1//EN" "http://www.w3.org/Graphics/SVG/1.1/DTD/svg11.dtd" >
<svg xmlns="http://www.w3.org/2000/svg" xmlns:xlink="http://www.w3.org/1999/xlink" version="1.1" viewBox="0 0 2048 2048">
  <g transform="matrix(1 0 0 -1 0 2048)">
   <path fill="currentColor"
d="M700 1326q-184 6 -255 45q-70 38 -70 179v236q0 115 -9 160l109 -24q82 -18 86 -44q3 -28 -50 -43l-39 -12v-121h978l99 101l119 -107q22 -18 17 -33q-6 -19 -26 -19h-1187v-69q0 -98 35 -124q38 -29 227 -38q152 -8 508 -8q350 0 511 35q42 9 65 -22q16 -21 14 -41
q-3 -35 -69 -39q-10 -1 -50 -6q-111 -14 -445 -14l48 -11q83 -18 85 -44q4 -29 -49 -43l-42 -11l2 -206h388l61 72l71 -50q37 -25 42 -43q5 -20 -26 -38q-7 -3 -13 -7q-10 -4 -28 -14v-392q15 -15 23 -22q16 -15 19 -31q4 -19 -17 -19h-504v-155q0 -79 7 -139q4 -43 3 -68
q-2 -39 -55 -42q-52 -3 -52 32l2 492l119 -62h358v429h-389q-35 -20 -64 -20q-43 0 -43 40v205q0 76 -5 147q-185 0 -458 6h-22l79 -17q83 -18 86 -44q3 -29 -50 -43l-41 -11v-199q30 -26 34 -36q4 -9 -2.5 -18.5t-17.5 -9.5h-488v-429h364l61 72l72 -50q37 -25 42 -43
q4 -20 -26 -38l-12 -6q-10 -5 -27 -15v-133q0 -79 7 -139q4 -44 3 -68q-2 -39 -55 -42q-52 -3 -52 32l1 372h-378q-23 -22 -46 -23q-37 -3 -46 14q-3 6 -3 28v592l123 -67h350v168q0 118 -7 155zM471 683l-39 86q124 -18 188 -18h713l99 101l120 -106q21 -19 16 -34
q-6 -19 -26 -19h-922q-70 0 -149 -10z" />
  </g>

</svg>
