<?xml version="1.0" standalone="no"?>
<!DOCTYPE svg PUBLIC "-//W3C//DTD SVG 1.1//EN" "http://www.w3.org/Graphics/SVG/1.1/DTD/svg11.dtd" >
<svg xmlns="http://www.w3.org/2000/svg" xmlns:xlink="http://www.w3.org/1999/xlink" version="1.1" viewBox="0 -205 1024 1024">
  <g transform="matrix(1 0 0 -1 0 819)">
   <path fill="currentColor"
d="M186 917l40 -31h154q51 70 47 90q0 11 -7 24l8 7l64 -34q6 -4 6 -9q0 -3 -5 -6q-27 -2 -70 -53q-11 -14 -16 -19h345l32 44l59 -44q7 -6 7 -10q0 -2 -12 -8q-23 -11 -26 -18v-329h57l35 36l64 -49q1 -2 1 -4q0 -5 -8 -5h-3q-2 0 -5 -1q-21 12 -101 -95l-16 6l44 92h-759
v-18q-8 -82 -59 -91q-25 3 -27 24q0 11 15 20q48 27 50 135h16q2 -14 3 -38q1 -8 1 -12h75v343q0 20 -20 39zM241 521h525v345h-525v-345zM818 379l62 -58q3 -5 3 -7q0 -3 -6 -6q-20 5 -31 5q-111 -42 -232 -68v-83q-2 -82 47 -77h39h129h24q22 -1 35 6q1 0 3 1
q22 -20 23 151h14q2 -20 4 -53q0 -78 30 -86q-15 -35 -28 -39q-5 -2 -11 -5q-14 -13 -128 -12h-81q-12 0 -35 -1q-118 -21 -111 101v273q-1 16 -22 40l8 10l90 -29q5 -5 5 -7q0 -1 -11 -7q-18 -10 -24 -16v-144q176 58 198 87q0 6 -6 17zM75 325h290v87q0 15 -30 44l9 12
l91 -36q9 -3 9 -7q0 -1 -12 -9q-18 -12 -21 -16v-260l3 -71q2 -36 -56 -46q6 52 7 143v8q-67 -21 -151 -45q-116 -28 -122 -59l-50 52l323 72v111h-215q-22 0 -41 -13zM303 786l4 16q114 -28 214 -81q115 81 100 95q0 7 -4 14l10 7l57 -42q6 -6 6 -10t-10 -5q-25 -2 -81 -48
q-26 -22 -40 -32q112 -65 110 -113q-2 -24 -19 -25q-11 0 -41 34q-47 54 -86 80l-27 -18q-101 -64 -208 -104l-4 16q129 74 205 127l-9 6q-91 50 -177 83z" />
  </g>

</svg>
