<?xml version="1.0" standalone="no"?>
<!DOCTYPE svg PUBLIC "-//W3C//DTD SVG 1.1//EN" "http://www.w3.org/Graphics/SVG/1.1/DTD/svg11.dtd" >
<svg xmlns="http://www.w3.org/2000/svg" xmlns:xlink="http://www.w3.org/1999/xlink" version="1.1" viewBox="0 -205 1024 1024">
  <g transform="matrix(1 0 0 -1 0 819)">
   <path fill="currentColor"
d="M386 849l66 -30q26 -14 13 -23q-19 -1 -33 -15q-17 -33 -35 -63h342l38 50l74 -58q8 -6 7 -9q-2 -3 -13 -3h-250v-172h266l38 50l72 -60q8 -5 7 -8q-2 -2 -13 -2h-370v-270h184v168q2 16 -30 46l9 12l89 -36q14 -5 6 -11q-21 -7 -30 -21v-95l4 -97q1 -32 -48 -45v59h-400
l-29 -39l-52 37q26 24 30 44v159q-2 16 -23 37l9 11l83 -34q8 -2 10 -5t-3 -7q-20 -6 -32 -20v-163h179v270h-297q-27 1 -45 -13l-34 33h376v172h-166q-54 -82 -122 -147l-14 12q74 100 108 170q35 70 32 82t-13 23zM96 889q0 18 -19 46l13 12l42 -41h684l43 55l84 -60
q10 -8 7 -11q-4 -4 -20 -4h-788v-798h711l44 54l75 -58q12 -9 12 -13t-12 -3h-816l-36 -43l-54 42q26 22 30 42v780z" />
  </g>

</svg>
