<?xml version="1.0" standalone="no"?>
<!DOCTYPE svg PUBLIC "-//W3C//DTD SVG 1.1//EN" "http://www.w3.org/Graphics/SVG/1.1/DTD/svg11.dtd" >
<svg xmlns="http://www.w3.org/2000/svg" xmlns:xlink="http://www.w3.org/1999/xlink" version="1.1" viewBox="0 0 2048 2048">
  <g transform="matrix(1 0 0 -1 0 2048)">
   <path fill="currentColor"
d="M969 1656h-577q-115 0 -192 -8l-38 87q94 -20 230 -20h577v78q0 135 -6 168l116 -21q82 -16 86 -45q4 -31 -49 -45l-45 -11v-124h528l111 119l141 -119q15 -13 18 -26q8 -33 -30 -33h-768v-1145h634l110 124l142 -124q16 -14 19 -26q3 -15 -10 -27q-7 -7 -20 -7h-875
v-107q0 -71 11 -181q4 -37 4 -70q0 -49 -64 -54q-53 -4 -53 51v361h-664q-106 0 -192 -8l-38 88q94 -20 219 -20h675v1145zM436 1258v143q0 109 -9 160l101 -24q67 -16 71 -43q2 -25 -47 -44l-28 -11v-181h127v156q-3 120 -7 140l97 -24q71 -18 74 -44q4 -25 -46 -44
l-28 -10v-174h17l79 81l98 -86q20 -18 15 -34q-6 -18 -25 -18h-184v-228l21 -19q16 -15 13 -29q-2 -13 -19 -13h-232v-21q0 -38 -46 -38q-42 0 -42 31v317h-118v-462h409l79 81l93 -86l11 -11q10 -12 4 -25.5t-21 -13.5h-575q-35 -15 -54 -13q-36 3 -36 36v493
q-70 -4 -114 -10l-39 86q71 -10 86 -12q53 -4 67 -6v125q-2 76 -6 110l99 -24q69 -17 72 -43q3 -23 -46 -43l-29 -12v-113h118zM651 1201h-127v-232h127v232zM1441 1258v143q0 114 -9 160l101 -24q67 -16 70 -43q3 -26 -46 -44l-28 -11v-181h126v156q0 102 -7 140l97 -24
q71 -18 74 -44q3 -25 -46 -44l-28 -10v-174h33l78 81l97 -86q20 -18 15 -34q-6 -18 -25 -18h-198v-228l21 -19q16 -15 13 -29q-2 -13 -18 -13h-232v-21q0 -38 -45 -38q-43 0 -43 31v317h-117v-462h407l79 81l93 -86q8 -8 10 -11q9 -12 3.5 -25.5t-19.5 -13.5h-573
q-35 -15 -54 -13q-36 3 -36 36v492q-62 -3 -106 -9l-38 86l39 -6q32 -5 46 -6q47 -3 59 -6v125q-1 76 -6 110l99 -24q69 -16 72 -43q2 -24 -46 -43l-29 -12v-113h117zM1655 1201h-126v-232h126v232z" />
  </g>

</svg>
