<?xml version="1.0" standalone="no"?>
<!DOCTYPE svg PUBLIC "-//W3C//DTD SVG 1.1//EN" "http://www.w3.org/Graphics/SVG/1.1/DTD/svg11.dtd" >
<svg xmlns="http://www.w3.org/2000/svg" xmlns:xlink="http://www.w3.org/1999/xlink" version="1.1" viewBox="0 -205 1024 1024">
  <g transform="matrix(1 0 0 -1 0 819)">
   <path fill="currentColor"
d="M221 990l87 -36q14 -5 6 -11q-21 -7 -30 -21v-137h131l23 30l56 -38q11 -7 8 -10q-2 -3 -19 -2h-199v-103h108l32 39l42 -41q9 -6 9 -11q0 -4 -9 -8l-20 -13v-468q2 -59 -10 -85q-12 -25 -72 -37q-1 33 -21 42q-2 1 -5 2q-14 6 -42 15l2 16q62 -15 86 -13q24 1 24 48v205
h-124v-165l2 -55q3 -36 -52 -44q7 58 8 145v119h-127v-179l5 -95q1 -35 -50 -46q5 39 7 187v428q-7 21 -21 35l16 12l29 -33h141v103h-146q-27 1 -45 -13l-34 33h225v147q2 16 -30 46zM690 989l46 -26q30 -16 19 -25q-20 -1 -31 -13q-33 -43 -62 -78h201l39 39l46 -47
q7 -6 5 -10q-1 -5 -11 -7l-18 -9v-248l3 -47q8 -43 -45 -41v32h-170q-15 -28 -36 -55q-64 -83 -144 -119l-4 12q71 48 126 129q11 17 20 33h-91q-1 -20 -12 -29t-37 -14q5 37 7 148v214q2 16 -19 37l12 16l34 -34h67q50 85 54 101q5 17 -7 34zM726 478l79 -28q14 -5 6 -11
q-21 -7 -30 -21v-101h104l41 50l74 -58q11 -7 8 -10q-2 -3 -19 -2h-208v-183l3 -57q3 -36 -52 -44q5 37 7 140v144h-201q-27 1 -45 -13l-34 33h280v111q2 16 -22 38zM753 677q-1 -9 -2 -27q-2 -15 -2 -23q-4 -50 -27 -98h160v148h-129zM583 529h101q27 57 30 119l1 29h-132
v-148zM583 693h133v134h-133v-134zM754 693h128v134h-128v-134zM284 511h124v131h-124v-131zM408 495h-124v-126h124v126zM242 642h-127v-131h127v131zM242 495h-127v-126h127v126zM335 927l8 9q61 -17 81 -52q22 -43 -13 -46q-16 2 -17 15q0 14 -15 32q-14 18 -44 42z" />
  </g>

</svg>
