<?xml version="1.0" standalone="no"?>
<!DOCTYPE svg PUBLIC "-//W3C//DTD SVG 1.1//EN" "http://www.w3.org/Graphics/SVG/1.1/DTD/svg11.dtd" >
<svg xmlns="http://www.w3.org/2000/svg" xmlns:xlink="http://www.w3.org/1999/xlink" version="1.1" viewBox="0 -205 1024 1024">
  <g transform="matrix(1 0 0 -1 0 819)">
   <path fill="currentColor"
d="M433 873l85 -32q10 -7 -2 -15q-16 -3 -26 -13q-18 -52 -46 -111h341l38 50l76 -58q8 -6 7 -9q-2 -3 -13 -3h-248v-284h228l36 48l78 -58q8 -5 7 -8q-2 -2 -13 -2h-336v-259l2 -56q2 -36 -55 -46q5 39 7 147v214h-297q-27 1 -45 -13l-34 33h376v284h-165q-10 -24 -24 -48
q-52 -99 -122 -168l-10 8l50 83q65 116 90 192q26 76 24 88t-16 25zM156 975l37 -40h672l41 50l74 -56q11 -8 8 -11q-2 -4 -19 -3h-765v-250q2 -188 -16 -305t-68 -200q-50 -82 -100 -124l-8 10q105 133 133 314q15 99 13 299v266q-4 22 -19 37z" />
  </g>

</svg>
