<?xml version="1.0" standalone="no"?>
<!DOCTYPE svg PUBLIC "-//W3C//DTD SVG 1.1//EN" "http://www.w3.org/Graphics/SVG/1.1/DTD/svg11.dtd" >
<svg xmlns="http://www.w3.org/2000/svg" xmlns:xlink="http://www.w3.org/1999/xlink" version="1.1" viewBox="0 0 2048 2048">
  <g transform="matrix(1 0 0 -1 0 2048)">
   <path fill="currentColor"
d="M1100 546h-548q-17 -8 -42 -8q-42 0 -42 50v316q0 100 -8 162l104 -22q80 -17 80 -52q0 -23 -30 -33l-50 -15v-341l1132 1v285q0 103 -8 162l104 -23q93 -20 91 -54q-2 -19 -27 -26l-64 -19v-259q0 -36 7 -120q1 -9 1 -23q0 -46 -66 -42q-38 3 -38 51v10h-500l-2 -337
q0 -142 -154 -170q-12 70 -47 92q-33 21 -160 44l8 46q140 -23 190 -27q68 -5 68 57zM1575 1602l63 71l84 -54q40 -26 40 -49q0 -26 -74 -60v-175q0 -81 6 -140q5 -43 4 -68q-2 -39 -55 -42q-54 -3 -55 34v19h-879l2 -8q4 -19 -18 -31q-19 -12 -51 -9q-42 4 -39 53l4 55
q8 128 8 142l2 210q0 56 -13 136l118 -84h853zM709 1193h879v153h-879v-153zM709 1404h879v142h-879v-142zM1774 1934l133 -106q34 -27 35 -40q3 -30 -32 -30h-1554l-1 -684q0 -406 -59 -629q-49 -188 -204 -388l-32 24q118 203 152 382q47 245 47 609v643q0 62 -8 169
l113 -68h1306zM846 982h523l60 68l81 -46q40 -23 40 -49q0 -27 -78 -61l1 -85l51 -34q23 -15 23 -34t-18 -19h-691v-23q0 -29 -43 -29q-61 0 -61 51q0 6 6 99l3 47l1 171zM838 778h540v146h-540v-146z" />
  </g>

</svg>
