<?xml version="1.0" standalone="no"?>
<!DOCTYPE svg PUBLIC "-//W3C//DTD SVG 1.1//EN" "http://www.w3.org/Graphics/SVG/1.1/DTD/svg11.dtd" >
<svg xmlns="http://www.w3.org/2000/svg" xmlns:xlink="http://www.w3.org/1999/xlink" version="1.1" viewBox="0 -205 1024 1024">
  <g transform="matrix(1 0 0 -1 0 819)">
   <path fill="currentColor"
d="M1002 117v-14q-42 0 -58 -2t-30 -28q-101 55 -173 135q-36 41 -70 90q-41 -51 -85 -88q-61 -51 -111 -83q-40 -27 -130 -75l-8 18q111 73 175 128q65 56 130 140l2 2q-22 39 -45 83q-64 129 -117 399h-23q-16 1 -38 -16l-37 36h440l36 34l51 -46q7 -4 7 -8q0 -3 -6 -5
q-19 -4 -29 -15q-10 -9 -23 -73q-12 -64 -46 -168q-34 -103 -96 -198q-3 -4 -9 -13q-6 -8 -9 -13l10 -14q104 -140 202 -179q38 -15 90 -27zM597 541q38 -94 75 -161q47 70 83 157q47 116 75 285h-319q32 -145 86 -281zM300 976l85 -26q16 -5 8 -11q-17 -8 -31 -16v-62
q3 -244 -16 -420q26 9 83 30q54 20 83 30l10 -18l-180 -72l-6 -42q-28 -195 -257 -332l-10 12q203 151 225 338q1 2 1 5l-49 -19q-70 -28 -86 -41t-36 -35l-46 54q20 8 30 25v443q-1 24 -24 43l7 11l82 -31q18 -5 10 -13q-16 -4 -29 -16v-436q62 20 145 48q19 176 19 416v88
q-5 20 -28 34z" />
  </g>

</svg>
