<?xml version="1.0" standalone="no"?>
<!DOCTYPE svg PUBLIC "-//W3C//DTD SVG 1.1//EN" "http://www.w3.org/Graphics/SVG/1.1/DTD/svg11.dtd" >
<svg xmlns="http://www.w3.org/2000/svg" xmlns:xlink="http://www.w3.org/1999/xlink" version="1.1" viewBox="0 0 2048 2048">
  <g transform="matrix(1 0 0 -1 0 2048)">
   <path fill="currentColor"
d="M394 1205l-39 86q118 -17 188 -17h344l78 81l114 -86q21 -16 16 -34q-6 -18 -26 -18h-542l-55 -5q-38 -2 -78 -7zM545 916v83q0 118 -8 160l101 -24q70 -17 74 -44q4 -26 -45 -40l-26 -8l-1 -127h165v83q0 118 -7 160l100 -24q70 -17 74 -44q4 -26 -44 -40l-27 -8
l-1 -127h43l80 80l107 -86q20 -16 15 -33q-5 -18 -25 -18h-220v-258h78l80 80l114 -86q20 -15 15 -33q-5 -19 -33 -19h-254l1 -180q0 -66 10 -157q3 -31 3 -60q0 -50 -59 -54q-50 -2 -50 35v416h-167q-30 -185 -110 -287q-55 -72 -206 -169l-20 32q218 189 236 424h-45
q-52 0 -137 -11l-39 86q117 -17 176 -17h51v12q1 22 1 25v221h-38q-48 0 -134 -11l-39 86q124 -18 173 -18h38zM805 601v258h-165l-1 -258h166zM305 1440l2 -557q1 -311 -40 -466q-48 -185 -180 -352l-31 18q96 172 130 372q26 157 26 432v526q0 20 -9 156l109 -72h297v289
q0 118 -8 160l101 -24q70 -17 74 -44q4 -26 -45 -40l-26 -8l-2 -116h193l80 80l114 -86q21 -16 15 -33q-5 -19 -25 -19l-377 -1v-158l353 -1l53 59l72 -59q39 -32 34 -51q-3 -15 -45 -23l-21 -5q-54 -45 -116 -91l-23 19q25 49 46 95h-751zM1473 601q-86 190 -136 438
q-40 197 -57 367q-18 180 -29 270q-9 -2 -71 -7l-40 89q86 -18 199 -19l410 -1l67 80l78 -55q48 -33 48 -54q0 -26 -89 -65q-43 -357 -103 -591q-63 -245 -176 -454q197 -287 423 -391v-34q-53 -3 -75 -18q-19 -13 -43 -61q-181 140 -358 420q-162 -258 -453 -423l-22 34
q273 218 427 475zM1523 691q178 349 234 989h-446q8 -64 31 -258q24 -192 88 -449q19 -76 93 -282z" />
  </g>

</svg>
