<?xml version="1.0" standalone="no"?>
<!DOCTYPE svg PUBLIC "-//W3C//DTD SVG 1.1//EN" "http://www.w3.org/Graphics/SVG/1.1/DTD/svg11.dtd" >
<svg xmlns="http://www.w3.org/2000/svg" xmlns:xlink="http://www.w3.org/1999/xlink" version="1.1" viewBox="0 -205 1024 1024">
  <g transform="matrix(1 0 0 -1 0 819)">
   <path fill="currentColor"
d="M70 899l41 -48h136l35 41l52 -49q7 -6 5 -10q-1 -5 -11 -7l-18 -9v-372l4 -102q7 -40 -50 -44v56h-145v-91q2 -37 -53 -46q5 39 7 195v432q-4 24 -18 42zM334 785h538l31 46l74 -54q11 -7 8 -10q-2 -3 -19 -2h-300q-7 -32 -18 -62q33 -172 65 -257q3 -10 7 -20
q76 71 109 107q38 40 39 52q2 12 -4 28l10 8l64 -45q7 -5 7 -8q1 -4 -5 -7q-12 0 -22 -4t-46 -39q-35 -34 -142 -115q28 -63 64 -115q73 -105 148 -137q22 -7 59 -14v-20q-5 0 -15 1q-55 5 -76 -22q-166 117 -236 340q-29 93 -41 222q-24 -66 -52 -114q-26 -43 -55 -87v-325
q52 32 151 97q22 15 33 22l10 -18q-39 -33 -106 -84q-72 -55 -80 -67q-14 -18 -28 -44l-56 52q20 8 30 25v280l-15 -19q-65 -81 -175 -145l-8 16q100 80 154 158q9 13 27 40q11 17 17 25v33q-4 24 -24 43l14 15l42 -39l18 30q5 9 8 13q47 80 80 200h-205q-27 1 -45 -13z
M119 375h145v456h-145v-456zM555 966l6 13q122 -42 135 -100q14 -53 -25 -58q-17 0 -23 29q-5 29 -22 54q-16 25 -71 62z" />
  </g>

</svg>
