<?xml version="1.0" standalone="no"?>
<!DOCTYPE svg PUBLIC "-//W3C//DTD SVG 1.1//EN" "http://www.w3.org/Graphics/SVG/1.1/DTD/svg11.dtd" >
<svg xmlns="http://www.w3.org/2000/svg" xmlns:xlink="http://www.w3.org/1999/xlink" version="1.1" viewBox="0 -204 1024 1024">
  <g transform="matrix(1 0 0 -1 0 820)">
   <path fill="currentColor"
d="M422 936l63 -30h371l35 33q51 -36 51 -50q0 -10 -30 -25v-295q0 -23 1 -30q1 -8 1 -16q0 -21 -34 -27q-16 0 -16 10v28h-392v-24q0 -10 -12 -16q-15 -6 -25 -6q-13 0 -13 14q0 4 1 14q1 23 1 42v310q0 49 -2 68zM472 562h172v140h-172v-140zM692 702v-140h172v140h-172z
M472 730h172v148h-172v-148zM692 878v-148h172v148h-172zM368 406q40 -8 115 -8h121q4 26 4 47q0 33 -3 51q52 -8 91 -22q11 -5 11 -13q0 -6 -14 -10q-16 -5 -30 -7q-2 -25 -5 -46h221l-1 4l32 33q33 -16 53 -36q8 -9 8 -17q0 -15 -40 -29q0 -74 -12 -159q-13 -84 -31 -113
q-9 -18 -24 -26q-10 -7 -27 -12q-25 -7 -57 -7q-2 14 -8 23q-3 7 -15 14q-26 11 -89 27l6 24q112 -26 129 -26q15 0 25 4q10 5 16 13q7 9 14 28q10 28 18 89q6 61 7 138h-229q-4 -24 -10 -43q-15 -50 -42 -92q-26 -44 -65 -78q-43 -45 -96 -69q-55 -32 -116 -48l-9 23
q77 32 119 59q40 25 76 65q31 31 54 76q19 36 30 89l4 18h-116q-80 0 -97 -7zM64 889l61 -43h138l33 41q37 -23 55 -43q7 -7 7 -13q0 -9 -39 -32v-484q11 -8 20 -15q5 -3 5 -7q0 -14 -9 -14h-219v-30q0 -12 -16 -12q-9 0 -24 6q-12 9 -12 24q0 18 3 47q4 22 4 97v407
q0 41 -7 71zM116 307h156v511h-156v-511z" />
  </g>

</svg>
