<?xml version="1.0" standalone="no"?>
<!DOCTYPE svg PUBLIC "-//W3C//DTD SVG 1.1//EN" "http://www.w3.org/Graphics/SVG/1.1/DTD/svg11.dtd" >
<svg xmlns="http://www.w3.org/2000/svg" xmlns:xlink="http://www.w3.org/1999/xlink" version="1.1" viewBox="0 0 2048 2048">
  <g transform="matrix(1 0 0 -1 0 2048)">
   <path fill="currentColor"
d="M1662 888v217h-705q-121 0 -192 -10l-42 88q98 -24 234 -24h705v214h-642q-105 0 -194 -10l-30 80q86 -16 224 -16h160v349q0 118 -8 159l109 -24q83 -18 86 -43q3 -27 -50 -44l-33 -11v-127h363l98 113l141 -110q15 -12 17 -24q3 -32 -31 -32h-588v-206h370l68 76
l83 -55q40 -26 40 -48q0 -29 -84 -64v-177h25l82 95l106 -87q19 -15 23 -30q3 -11 -4 -21.5t-18 -10.5h-214v-177l58 -42q12 -8 14 -22q6 -30 -16 -30h-484v-232l338 1l83 99l119 -90q28 -22 33 -37q4 -12 -8 -23q-8 -8 -23 -8h-542v-308q207 -25 363 -25q147 0 294 16v-38
q-82 -24 -97 -96q-237 8 -510 43q-321 41 -525 273q-61 -120 -134 -202q-64 -73 -179 -156l-22 34q150 134 217 270q68 138 101 388l100 -27q73 -19 68 -50q-2 -17 -22 -23l-57 -15q-13 -49 -21 -73q-19 -56 -25 -84q85 -94 190 -150q59 -31 156 -61l-1 574h-190l-130 -6
q-42 -2 -64 -4l-38 88q93 -24 232 -24h623zM514 1623l72 81l80 -55q40 -27 40 -48q0 -27 -78 -62v-835l47 -30q9 -6 12 -20q6 -29 -16 -29h-398v-89q-4 -28 -50 -25q-56 3 -56 55q0 32 3 105q5 68 5 183v722q-2 79 -16 135l122 -88h233zM273 682h256v886h-256v-886z" />
  </g>

</svg>
