<?xml version="1.0" standalone="no"?>
<!DOCTYPE svg PUBLIC "-//W3C//DTD SVG 1.1//EN" "http://www.w3.org/Graphics/SVG/1.1/DTD/svg11.dtd" >
<svg xmlns="http://www.w3.org/2000/svg" xmlns:xlink="http://www.w3.org/1999/xlink" version="1.1" viewBox="0 -205 1024 1024">
  <g transform="matrix(1 0 0 -1 0 819)">
   <path fill="currentColor"
d="M59 896l42 -37h132l35 39l50 -47q7 -6 5 -10q-1 -5 -11 -7l-18 -9v-357l5 -162q2 -31 -49 -36v93h-139v-99q3 -36 -51 -44q5 37 7 148v477q-3 24 -20 40zM467 368l36 -33h336l27 27l54 -35q7 -6 5 -10q-1 -5 -11 -7l-14 -9v-134l5 -84q3 -27 -49 -36v63h-339v-35
q3 -36 -51 -44q5 37 7 146v140q-3 24 -18 40zM383 965l38 -38h436l31 42l66 -50q11 -7 8 -10q-2 -3 -19 -2h-507v-182l1 -28h432l31 42l66 -50q11 -7 8 -10q-2 -3 -19 -2h-285q18 -43 41 -81q20 -31 42 -57q7 5 19 15q24 20 46 36q26 19 30 28q6 9 -1 27l12 6l56 -46
q6 -6 5 -10q-1 -3 -9 -4q-18 2 -26 -3t-40 -23q-27 -16 -76 -41l1 -1q56 -54 127 -79q31 -11 94 -17v-18q-45 2 -58 -3t-23 -23q-142 47 -217 175q-33 56 -49 119h-84v-237q62 33 118 65l10 -16q-25 -19 -66 -50q-60 -44 -63 -50q-4 -5 -14 -22q-2 -3 -3 -5l-50 50
q19 4 28 17v248h-16q-27 1 -45 -13l-22 28q2 -180 -26 -337q-31 -169 -177 -317l-12 12q124 150 149 319q26 170 21 346v198q-4 17 -22 39zM517 130h339v185h-339v-185zM111 383h139v456h-139v-456zM471 813h332l27 34l62 -38q11 -7 8 -10q-2 -3 -19 -2h-331q-27 1 -45 -13z
" />
  </g>

</svg>
