<?xml version="1.0" standalone="no"?>
<!DOCTYPE svg PUBLIC "-//W3C//DTD SVG 1.1//EN" "http://www.w3.org/Graphics/SVG/1.1/DTD/svg11.dtd" >
<svg xmlns="http://www.w3.org/2000/svg" xmlns:xlink="http://www.w3.org/1999/xlink" version="1.1" viewBox="0 -205 1024 1024">
  <g transform="matrix(1 0 0 -1 0 819)">
   <path fill="currentColor"
d="M53 866l42 -37h136l35 39l50 -47q7 -6 5 -10q-1 -5 -11 -7l-18 -9v-357l5 -162q3 -27 -49 -36v93h-143v-99q3 -35 -51 -43q5 36 7 147v477q-3 24 -20 40zM696 1001l82 -28q8 -5 9 -8q0 -4 -7 -7q-16 -4 -27 -18v-66v-83h140l29 32l58 -40q11 -7 8 -10q-2 -3 -19 -2h-216
q0 -23 1 -47q2 -155 19 -278q8 -55 25 -113q36 74 56 149q31 114 29 123t-11 19l8 11l66 -37q7 -5 7 -9t-7 -6q-13 -2 -21 -8q-40 -175 -109 -296q12 -33 28 -60q26 -47 57 -79q16 -17 27 -15t16 24l23 109l17 -4q-18 -106 -19 -137q0 -32 17 -48q18 -17 14 -27
q-60 -23 -163 104q-25 32 -48 84q-86 -122 -254 -211l-6 14q165 117 230 224q7 10 13 20l-1 1q-28 86 -39 174q-10 90 -15 158q-4 66 -4 161h-311q-27 1 -45 -13l-34 33h390q2 89 0 163q-7 25 -22 38zM105 353h143v456h-143v-456zM321 449h163v184h-58q-27 1 -45 -13l-34 29
h218l27 34l58 -38q11 -7 8 -10q-2 -3 -19 -2h-115v-184h77l27 34l58 -38q11 -7 11 -10q1 -3 -10 -2h-287q-27 1 -45 -13zM413 377l65 -28q7 -5 6 -9q0 -4 -8 -6q-13 2 -19 -9q-66 -140 -167 -220l-12 10q78 94 119 185q17 37 17 43q2 10 -8 21zM533 358l10 10q51 -31 74 -54
q24 -23 42 -56q33 -64 -9 -75q-19 -1 -27 36q-7 39 -33 72q-25 34 -57 67zM816 964l7 13q80 -44 96 -94q8 -37 -27 -40q-17 1 -19 28q-1 27 -12 42q-10 15 -45 51z" />
  </g>

</svg>
