<?xml version="1.0" standalone="no"?>
<!DOCTYPE svg PUBLIC "-//W3C//DTD SVG 1.1//EN" "http://www.w3.org/Graphics/SVG/1.1/DTD/svg11.dtd" >
<svg xmlns="http://www.w3.org/2000/svg" xmlns:xlink="http://www.w3.org/1999/xlink" version="1.1" viewBox="0 -200 1000 1000">
  <g transform="matrix(1 0 0 -1 0 800)">
   <path fill="currentColor"
d="M173 319q45 -18 79.5 -33.5t51.5 -26.5q9 12 20 31t22.5 42.5t22.5 48.5t20 49h-195l-81 -14l-25 36h298l39 47l58 -59l-43 -32q-10 -23 -22.5 -48t-25 -49t-24.5 -44t-20 -32l3 -9q61 -42 93.5 -81.5t32.5 -63.5v-4q-4 -22 -12.5 -29t-17.5 -7q-17 0 -18 7
q-13 14 -20 26t-16.5 28t-26.5 37.5t-51 54.5q-49 -66 -108 -113t-137 -83l-10 11q40 30 72.5 57t59.5 53.5t49 52.5t41 54q-23 23 -55 42.5t-63 39.5zM114 668q1 7 3 7q0 -1 1 -2t1.5 -2.5t2.5 -3.5zM125 667v-53h178q25 45 44.5 78.5t34 62.5t24 56.5t14.5 60.5l65 -64
q-15 -8 -52.5 -57t-112.5 -137h92l36 44q11 -7 23.5 -15.5t23.5 -17.5t18 -18t7 -18q0 -7 -6 -13q-7 -7 -20 -7q-5 0 -10 0.5t-10 0.5q-14 0 -31 -9.5t-37 -45.5q-1 1 -5 1h-5t-2 -0.5t-3 -0.5h-2q9 17 17.5 36t8.5 42l-286 -1v-11q0 -45 -17.5 -67.5t-37.5 -22.5
q-9 0 -14 8.5t-5 19.5q0 12 5 20q19 35 34 67.5t18 61.5zM432 927q-13 -1 -38.5 -5t-59.5 -21q-32 -17 -89.5 -45t-148.5 -65l-12 11q85 51 156.5 96t126.5 102zM169 789q42 -25 73 -47t31 -47q0 -1 -0.5 -3.5l-1.5 -7.5q-5 -11 -15 -21.5t-16 -10.5q-5 0 -12.5 15t-17 35
t-21.5 41.5t-26 34.5zM255 846q19 -7 38 -15.5t33.5 -18.5t23.5 -21.5t9 -23.5q0 -6 -3 -12.5t-7.5 -12t-9 -9t-6.5 -3.5q-7 0 -13 10t-14.5 25.5t-21.5 34.5t-35 37zM479 408q24 30 43 64t33.5 69.5t25 70t18.5 64.5q13 45 22.5 100t24.5 128h-46l-57 -16l-19 39h326l41 44
l57 -57l-32 -36q-6 -45 -10 -88.5t-10.5 -84t-16.5 -76.5t-28 -65q-35 -56 -102 -78q-1 -1 -5 -1q-8 0 -11 8.5t-9 21t-19.5 27t-41.5 26.5l4 12q22 -8 43 -15.5t38 -7.5q2 0 5.5 0.5t8.5 1.5q31 7 48.5 38t27.5 78t16 106t15 123h-171l-6 -31q-14 -60 -23 -107t-21 -85
q-33 -103 -71.5 -177t-84.5 -105zM827 114v298h-211l-12 -40v-258h223zM604 28q-11 -15 -20.5 -22.5t-21.5 -7.5h-3t-6 1v480l67 -40h192l29 43l64 -54l-28 -38v-301h-273v-61z" />
  </g>

</svg>
