<?xml version="1.0" standalone="no"?>
<!DOCTYPE svg PUBLIC "-//W3C//DTD SVG 1.1//EN" "http://www.w3.org/Graphics/SVG/1.1/DTD/svg11.dtd" >
<svg xmlns="http://www.w3.org/2000/svg" xmlns:xlink="http://www.w3.org/1999/xlink" version="1.1" viewBox="0 -200 1002 1000">
  <g transform="matrix(1 0 0 -1 0 800)">
   <path fill="currentColor"
d="M656 115h215v213h-28l-52 -12l-20 35h100v207h-50l-48 -15l-19 37h108l31 48l57 -48l-28 -40v-506q-5 -11 -19.5 -20.5t-31.5 -12.5v89h-215v-54q-11 -17 -27.5 -23t-23.5 -6v609l62 -37l56 89l34 -60l-32 -11l-69 -40v-206h27l40 44l54 -67h-121v-213zM99 857h89l39 49
l54 -56l-32 -38v-248h-161v-62q0 -9 -5.5 -15t-13.5 -10t-17 -6.5t-16 -3.5v435zM775 956l-21 -54l-31 -54h132l34 54l60 -64l-54 -36l-122 -145l-10 1l86 166h-132q-17 -36 -37 -69.5t-39.5 -61t-37 -46.5t-29.5 -25l-2 8q29 49 50.5 91t37.5 85t28 90.5t23 107.5zM88 821
v-235h111v246h-100zM365 34q-5 -13 -18 -23t-31 -10v917l54 -35h80l41 50l62 -51l-35 -39l-63 -195q22 -21 43.5 -46t38.5 -55t27.5 -66t10.5 -79v-8q0 -62 -24 -104.5t-76 -77.5v3q-11 17 -34.5 36t-75.5 26v16q3 -1 10.5 -2t15.5 -1.5t15 -0.5h10q43 0 73 33t30 99
q0 34 -8.5 69t-21 66t-26.5 56t-25 40l33 207h-94l-12 -27v-798z" />
  </g>

</svg>
