<?xml version="1.0" standalone="no"?>
<!DOCTYPE svg PUBLIC "-//W3C//DTD SVG 1.1//EN" "http://www.w3.org/Graphics/SVG/1.1/DTD/svg11.dtd" >
<svg xmlns="http://www.w3.org/2000/svg" xmlns:xlink="http://www.w3.org/1999/xlink" version="1.1" viewBox="0 -200 1002 1000">
  <g transform="matrix(1 0 0 -1 0 800)">
   <path fill="currentColor"
d="M144 265h251l30 39l61 -46l-28 -34v-143h-321v-53q-9 -9 -26 -16t-31 -9v303zM408 934l-82 -91l-5 -1h65l52 45l68 -68h-212v-112h45l49 44l61 -67h-155v-111h86l57 44l64 -68h-367l-63 -11l-17 35h187v111h-81l-53 -12l-18 35h152v112h-110l-60 -15l-18 38h258
q7 20 17 41t19.5 43t17 43.5t9.5 42.5l57 -57zM137 106h294l-31 134h-254l-9 -36v-98zM122 1000q17 -13 34.5 -22.5t32 -20t24.5 -23.5t13 -32q-5 -32 -13 -43.5t-16 -11.5t-12.5 12t-11.5 32.5t-18.5 48.5t-32.5 60zM786 498l-18 -58v-115h78l50 45l72 -68h-200v-263
q-9 -13 -24.5 -22t-29.5 -11v296h-131l-44 -14l-19 37h194v211zM796 977l-21 -69v-42h71l52 44l63 -66h-349l-51 -15l-18 37h181v38l-12 106zM515 538q24 29 42 59t32.5 64t26.5 73t24 86l66 -58l-31 -34l-36 -63q64 -44 74 -90v-8q0 -20 -12.5 -30t-23.5 -10
q-12 0 -15.5 13t-5.5 32.5t-5.5 41t-16.5 38.5q-22 -32 -54 -63.5t-63 -58.5zM853 648q-9 -9 -20.5 -23.5t-25.5 -29.5t-30 -29t-33 -22l1 8q40 54 67.5 116t43.5 149l63 -53l-57 -101q38 -23 62.5 -46t26.5 -52q-5 -19 -16 -28t-19 -9q-12 0 -13.5 7.5t-4 22.5t-11 37.5
t-34.5 52.5zM744 544v-3v3zM426 477l-83 -79h-7h88l47 43l61 -65h-425l-48 -10l-19 32h286q20 27 39 63.5t24 66.5l62 -37zM122 524q42 -16 70.5 -38t35.5 -49q-5 -22 -13 -29t-17 -7t-14 11.5t-12.5 29.5t-20 40t-35.5 42h6z" />
  </g>

</svg>
