<?xml version="1.0" standalone="no"?>
<!DOCTYPE svg PUBLIC "-//W3C//DTD SVG 1.1//EN" "http://www.w3.org/Graphics/SVG/1.1/DTD/svg11.dtd" >
<svg xmlns="http://www.w3.org/2000/svg" xmlns:xlink="http://www.w3.org/1999/xlink" version="1.1" viewBox="0 0 2048 2048">
  <g transform="matrix(1 0 0 -1 0 2048)">
   <path fill="currentColor"
d="M711 1258l61 72l72 -49q37 -26 42 -44q5 -20 -25 -37q-7 -4 -13 -7q-9 -4 -26 -14v-368l5 -55l2 -50q8 -51 6 -60q-7 -27 -60 -33q-46 -4 -47 25l-3 37h-180v-192h170l80 80l114 -86q21 -15 16 -34q-5 -18 -24 -18h-356v-59q0 -113 12 -219q3 -29 3 -54q0 -39 -49 -41
q-62 -4 -62 41v332h-182q-67 0 -149 -11l-39 86q118 -17 188 -17h182v192h-171v-24q0 -38 -53 -38q-59 0 -55 52q10 107 10 146v509l109 -62h422zM725 1201h-180v-206h180v206zM278 729h171v212h-171v-212zM545 941v-212h180v212h-180zM278 995h171v206h-171v-206zM770 1821
l63 72l72 -50q37 -25 42 -44q5 -20 -26 -37q-6 -4 -13 -7q-9 -4 -26 -14v-243l38 -31q23 -18 16 -38q-5 -12 -19 -12h-261v-9q0 -27 -44 -30q-66 -5 -61 51l4 41q6 104 6 105v310l107 -64h102zM787 1763h-131v-287h131v287zM338 1821l61 72l72 -50q37 -25 41 -44
q5 -20 -25 -37q-7 -4 -13 -7q-9 -4 -27 -14v-243l39 -31q23 -18 15 -38q-4 -12 -19 -12h-251v-9l-4 -13q-8 -26 -40 -30q-66 -8 -61 51l4 42q6 97 6 104v323l107 -64h95zM353 1763h-122v-287h122v287zM1687 343h-526v-21q0 -37 -48 -37q-60 0 -55 60l4 57l3 80l4 76v159
q0 76 -10 154l114 -68h494l68 76l84 -55q40 -26 40 -48q0 -27 -77 -62v-142q0 -23 3 -85q2 -34 4 -80q2 -40 4 -59q5 -53 -63 -58q-43 -3 -43 25v28zM1161 546v-147h526v147h-526zM1161 603h526v143h-526v-143zM1418 1709q-22 16 -29 44q-21 94 -109 191l20 24
q200 -126 188 -213q-4 -29 -34 -46h331l80 81l114 -86q21 -16 16 -34q-6 -18 -26 -18l-854 -1q-69 0 -148 -11l-39 86q124 -17 187 -17h303zM1207 1408l104 -62h234l61 71l72 -49q37 -25 42 -44q5 -20 -26 -37q-6 -4 -13 -7q-9 -4 -27 -14v-91l21 -20q12 -11 12 -23
q0 -17 -18 -17h-367v-19q0 -15 -25 -25q-23 -8 -48 -4q-22 4 -22 35v306zM1302 1169h255v119h-255v-119zM1767 1514l68 76l84 -55q40 -26 40 -48q0 -30 -74 -58v-302q0 -48 7 -115q4 -39 4 -61q0 -54 -72 -46q-35 4 -35 27v19h-679v-38q0 -27 -45 -31q-66 -5 -60 51l4 42
q6 95 6 104v385q0 70 -14 138l116 -88h650zM1789 1456h-679v-445h679v445zM1752 199l98 102l121 -107q20 -18 15 -33q-6 -19 -26 -19h-922q-70 0 -149 -11l-39 86q125 -18 188 -18h714z" />
  </g>

</svg>
