<?xml version="1.0" standalone="no"?>
<!DOCTYPE svg PUBLIC "-//W3C//DTD SVG 1.1//EN" "http://www.w3.org/Graphics/SVG/1.1/DTD/svg11.dtd" >
<svg xmlns="http://www.w3.org/2000/svg" xmlns:xlink="http://www.w3.org/1999/xlink" version="1.1" viewBox="0 -140 1000 1000">
  <g transform="matrix(1 0 0 -1 0 860)">
   <path fill="currentColor"
d="M173 856v-728h624v728h-624zM861 86l-8 -14l-46 -15l-10 11v38h-624v-29l-8 -14l-46 -15l-10 11v846l64 -27h609l33 35h17l59 -58v-15l-30 -18v-736zM682 404l56 -64v-16h-483v23h192v265h-170v22h313l46 47h15l51 -54v-15h-190v-265h110l43 57h17z" />
  </g>

</svg>
