<?xml version="1.0" standalone="no"?>
<!DOCTYPE svg PUBLIC "-//W3C//DTD SVG 1.1//EN" "http://www.w3.org/Graphics/SVG/1.1/DTD/svg11.dtd" >
<svg xmlns="http://www.w3.org/2000/svg" xmlns:xlink="http://www.w3.org/1999/xlink" version="1.1" viewBox="0 0 2048 2048">
  <g transform="matrix(1 0 0 -1 0 2048)">
   <path fill="currentColor"
d="M1440 1951l108 -76q35 -24 27 -45t-51 -15l-50 7q-114 -104 -266 -171l-16 31q173 143 248 269zM511 1933q140 -43 206 -84q136 -85 114 -156q-8 -25 -29 -36q-44 -22 -81 40q-74 124 -226 203zM1062 1045q-43 20 -96 42q-166 69 -193 81q-142 -119 -285 -186l-20 33
q294 183 418 493l78 -34q84 -35 84 -61t-66 -26h-30l-27 -42l-22 -34h389l69 72l70 -51q51 -39 49 -62q-2 -19 -32 -32q-8 -4 -16 -7l-39 -15q-88 -97 -164 -161q138 -56 222 -98q160 -79 160 -153q0 -33 -15 -49q-20 -22 -51 -12q-23 8 -47 29q-140 121 -343 227
q-202 -133 -458 -193l83 -51h549l63 68l72 -51q33 -23 35 -46q2 -26 -69 -56v-215l31 -26q26 -20 24 -33q-2 -20 -17 -20h-691v-27q0 -35 -49 -38q-59 -3 -53 52l4 42q6 97 6 104l-2 166q-1 32 -5 86q-1 8 -2 40l-21 -6q-119 -29 -179 -39l-13 40q224 61 361 119
q118 49 238 130zM1130 1094q79 63 162 160h-431q-32 -33 -55 -55q159 -46 324 -105zM777 433h558v265h-558v-265zM1732 163h-1400v-44q0 -60 -70 -54q-44 4 -42 50q1 18 4 45q12 107 12 209v1157l-4 76q-2 59 -6 90l122 -89h1363l69 77l83 -55q40 -26 40 -48q0 -28 -78 -62
l1 -1169q0 -15 4 -76q2 -25 4 -72q2 -48 4 -72q4 -54 -42 -61q-65 -9 -64 35v63zM1732 226v1320h-1400v-1320h1400z" />
  </g>

</svg>
