<?xml version="1.0" standalone="no"?>
<!DOCTYPE svg PUBLIC "-//W3C//DTD SVG 1.1//EN" "http://www.w3.org/Graphics/SVG/1.1/DTD/svg11.dtd" >
<svg xmlns="http://www.w3.org/2000/svg" xmlns:xlink="http://www.w3.org/1999/xlink" version="1.1" viewBox="0 0 2048 2048">
  <g transform="matrix(1 0 0 -1 0 2048)">
   <path fill="currentColor"
d="M1250 1474v-170h154l83 92l113 -96q17 -14 16 -33t-19 -19l-994 -2q-68 -1 -148 -11l-40 86q118 -19 188 -19l172 1v170h-81q-67 0 -149 -11l-39 86q118 -19 188 -19l81 1v41q0 103 -8 145l101 -24q70 -17 74 -44q4 -26 -51 -42l-23 -7v-69l289 1v41q0 105 -8 144
l101 -24q70 -17 74 -43q4 -27 -51 -43l-23 -6v-69h48l83 92l113 -96q17 -14 16 -33t-19 -19zM1157 1474l-289 -1v-170l289 1v170zM677 1082l560 2l83 92l113 -96q17 -14 16 -33t-19 -19l-753 -2l1 -52q1 -43 34 -55q26 -9 93 -10q50 -1 164 -3q353 -7 467 26q28 8 43 7
q21 -1 39 -24q20 -25 18 -42q-2 -32 -64 -38q-29 -3 -175 -12h-324l-207 -1q-110 0 -152 36q-32 27 -32 95l1 118q1 115 -7 159l100 -24q70 -16 74 -43t-51 -43l-23 -6zM1374 692l61 72l72 -49q37 -25 42 -44q5 -20 -25 -37q-6 -4 -13 -7q-9 -4 -27 -14v-150l42 -34
q21 -18 15 -35q-4 -13 -17 -13h-859l1 -34q1 -45 -69 -39q-42 3 -39 52l3 55q9 133 9 142l2 198l119 -63h683zM665 439h721v197h-721v-197zM1715 1824l68 76l83 -54q40 -26 40 -48q0 -28 -78 -62l2 -1330q1 -141 5 -208q3 -45 3 -80q0 -56 -73 -56q-38 0 -38 24v72h-1422
v-72q0 -34 -63 -23q-45 8 -45 55q0 12 3 80q2 29 5 208v1327q0 115 -14 180l118 -89h1406zM305 214h1422v1552h-1422v-1552z" />
  </g>

</svg>
