<?xml version="1.0" standalone="no"?>
<!DOCTYPE svg PUBLIC "-//W3C//DTD SVG 1.1//EN" "http://www.w3.org/Graphics/SVG/1.1/DTD/svg11.dtd" >
<svg xmlns="http://www.w3.org/2000/svg" xmlns:xlink="http://www.w3.org/1999/xlink" version="1.1" viewBox="0 -205 1024 1024">
  <g transform="matrix(1 0 0 -1 0 819)">
   <path fill="currentColor"
d="M27 673h177v240q2 15 -27 42l8 11l88 -34q14 -5 6 -11q-17 -6 -29 -18v-230h82l31 44l61 -48q11 -8 8 -12t-19 -4h-163v-375l177 74l8 -16l-191 -96q-99 -48 -124 -65q-27 -18 -43 -52l-46 65l173 71v394h-98q-27 0 -45 -13zM636 983l80 -26q7 -1 9 -4t-3 -7
q-15 -3 -25 -20q-13 -97 -31 -179h212l36 44l70 -52q11 -8 8 -11q-3 -2 -19 -1h-311q-79 -359 -310 -561l-10 10q206 223 271 551h-129q-27 0 -45 -13l-34 33h212q18 91 31 197q-3 18 -20 28zM803 301l10 12q57 -52 89 -94q31 -42 43 -78q12 -39 8 -67q-6 -27 -27 -27
q-22 2 -24 47q-2 28 -10 50l-258 -35q-89 -12 -116 -42l-40 54q32 6 48 29q155 207 210 391q4 18 -9 38l7 8l88 -36q5 -6 4 -9q0 -3 -6 -4q-28 0 -35 -14q-121 -248 -237 -388q48 5 180 16q103 9 156 14q-1 2 -2 5q-2 8 -8 20q-26 51 -71 110z" />
  </g>

</svg>
