<?xml version="1.0" standalone="no"?>
<!DOCTYPE svg PUBLIC "-//W3C//DTD SVG 1.1//EN" "http://www.w3.org/Graphics/SVG/1.1/DTD/svg11.dtd" >
<svg xmlns="http://www.w3.org/2000/svg" xmlns:xlink="http://www.w3.org/1999/xlink" version="1.1" viewBox="0 -205 1024 1024">
  <g transform="matrix(1 0 0 -1 0 819)">
   <path fill="currentColor"
d="M872 878v-191h18l33 40l62 -48q11 -7 8 -10q-2 -3 -19 -2h-102v-234h20l31 46l74 -54q11 -7 8 -10q-2 -3 -19 -2h-114v-263q2 -62 -12 -90t-70 -40q-2 33 -34 44q-31 10 -90 27l2 16q110 -23 134 -21t24 50v277h-321v-287l4 -61q2 -36 -57 -46q5 39 7 152v242h-44
q-27 1 -45 -13l-34 33h123v234q-27 1 -45 -13l-34 33h79v220q0 22 -16 35l19 13l36 -43h312l30 41l52 -43q9 -6 9 -11q0 -4 -9 -8zM826 667h-321v-234h321v234zM505 687h321v205h-321v-205zM152 980l88 -34q14 -5 6 -11q-17 -4 -29 -18v-244h68l33 42l66 -50q11 -7 8 -10
q-2 -3 -19 -2h-156v-400l197 72l6 -20q-202 -85 -255 -108q53 23 -7 -3t-70 -38q-10 -10 -22 -26l-52 50l157 57v416h-81q-27 1 -45 -13l-34 33h160v254q2 17 -27 42z" />
  </g>

</svg>
