<?xml version="1.0" standalone="no"?>
<!DOCTYPE svg PUBLIC "-//W3C//DTD SVG 1.1//EN" "http://www.w3.org/Graphics/SVG/1.1/DTD/svg11.dtd" >
<svg xmlns="http://www.w3.org/2000/svg" xmlns:xlink="http://www.w3.org/1999/xlink" version="1.1" viewBox="0 0 2048 2048">
  <g transform="matrix(1 0 0 -1 0 2048)">
   <path fill="currentColor"
d="M1215 1182q-20 -10 -55 -24q-128 -57 -227 -87q-25 -7 -143 -41q-28 -8 -60 -18l-7 -32q-9 -43 -30 -42q-21 2 -42 50l-37 84q-28 -120 -99 -205q-35 -42 -176 -126l-18 29q117 104 154 170q62 112 62 365v103q0 20 -3 76q-2 24 -4 72l110 -65l558 -2l68 76l84 -55
q40 -26 40 -48q0 -32 -80 -61v-458q0 -143 -158 -172q-2 67 -43 94q-32 21 -160 44l8 46q140 -23 190 -27q68 -6 68 57v197zM635 1329q-9 -175 -18 -244q312 41 598 133v214l-579 2l-1 -72q26 -1 155 -6q273 -10 273 -103q0 -47 -45 -51q-18 -1 -74 40q-63 46 -309 87z
M969 538v47q0 120 -8 160l109 -24q82 -18 85 -43q4 -29 -49 -44l-40 -11v-85h483l98 101l121 -107q20 -18 15 -33q-6 -19 -26 -19h-691v-273h618l111 105l131 -110q21 -17 16 -33q-6 -19 -26 -19h-1645q-69 0 -149 -11l-39 86q124 -18 188 -18h698v273h-507q-63 0 -148 -10
l-40 86q127 -18 188 -18h507zM1624 1663l-1071 1q-143 -205 -373 -337l-25 32q159 135 247 253q110 147 177 342l99 -37q73 -27 73 -53q0 -27 -51 -36l-44 -8q-30 -49 -66 -102h1020l68 76l83 -55q41 -26 41 -48t-30 -39l-12 -6q-12 -6 -35 -19q-5 -75 -11 -239
q-21 -529 -88 -637q-59 -95 -181 -119q-2 61 -37 83q-23 14 -87 42l9 40q22 -5 68 -13q64 -12 85 -12q62 0 87 105q42 180 54 786z" />
  </g>

</svg>
