<?xml version="1.0" standalone="no"?>
<!DOCTYPE svg PUBLIC "-//W3C//DTD SVG 1.1//EN" "http://www.w3.org/Graphics/SVG/1.1/DTD/svg11.dtd" >
<svg xmlns="http://www.w3.org/2000/svg" xmlns:xlink="http://www.w3.org/1999/xlink" version="1.1" viewBox="0 0 2048 2048">
  <g transform="matrix(1 0 0 -1 0 2048)">
   <path fill="currentColor"
d="M1070 865h662l69 76l79 -48q53 -32 51 -57q-3 -24 -85 -61q-16 -295 -25 -382q-14 -137 -54 -203q-61 -102 -212 -117q-4 42 -19 59q-17 20 -70 36q-12 3 -83 26l-69 21l8 39q30 -6 124 -27q73 -16 137 -16q87 0 120 101q31 93 47 493h-710q-90 -169 -274 -323l-24 32
q144 161 211 310q47 103 83 276l144 -42q27 -8 27 -27q0 -23 -25 -29l-64 -13q-21 -63 -48 -124zM1142 1725h602l68 76l80 -49q53 -32 50 -57q-2 -23 -84 -60q-2 -41 -11 -179q-10 -181 -27 -252q-45 -186 -234 -206q-5 64 -68 89q-33 13 -161 49l7 38q32 -6 88 -21
q112 -28 166 -25q79 6 106 103q28 100 38 434h-649q-89 -158 -225 -276l-28 28q193 229 247 538l144 -43q27 -8 27 -27q0 -23 -25 -28l-65 -13q-19 -56 -46 -119zM342 1911l109 -24q82 -18 86 -43q3 -29 -50 -44l-42 -11v-439h102l99 101l120 -104q21 -19 16 -36
q-6 -19 -27 -19h-310v-648q126 48 299 129l22 -39q-270 -187 -546 -300l-10 -52q-5 -26 -18 -30q-22 -7 -48 48l-57 122q129 25 263 82v688h-104q-69 0 -149 -11l-39 86q123 -17 188 -17h104v402q0 119 -8 159zM1172 1539q139 -53 183 -80q106 -64 101 -134q-2 -45 -44 -50
q-37 -6 -57 29q-5 8 -22 45q-29 62 -178 165zM1137 668q159 -57 209 -86q121 -69 118 -145q-3 -51 -45 -60q-42 -10 -67 32q-4 7 -26 50q-33 68 -210 180z" />
  </g>

</svg>
