<?xml version="1.0" standalone="no"?>
<!DOCTYPE svg PUBLIC "-//W3C//DTD SVG 1.1//EN" "http://www.w3.org/Graphics/SVG/1.1/DTD/svg11.dtd" >
<svg xmlns="http://www.w3.org/2000/svg" xmlns:xlink="http://www.w3.org/1999/xlink" version="1.1" viewBox="0 -205 1024 1024">
  <g transform="matrix(1 0 0 -1 0 819)">
   <path fill="currentColor"
d="M30 713h183q4 82 2 178h-68q-27 1 -45 -13l-34 33h410l31 46l74 -54q11 -7 8 -10q-2 -3 -19 -2h-127v-178h69l31 46l74 -54q11 -7 8 -10q-2 -3 -19 -2h-163v-173l2 -56q2 -36 -55 -46q5 39 7 149v126h-142q-1 -20 -3 -37q-15 -165 -200 -263l-8 16q65 53 111 111
q48 59 54 159l1 14h-103q-27 1 -45 -13zM106 296h363v83q2 17 -27 42l8 11l88 -34q14 -5 6 -11q-17 -4 -29 -18v-73h255l31 46l74 -54q11 -6 8 -9q-2 -3 -19 -3h-349v-171h361l31 45l74 -53q10 -6 7 -9q-2 -3 -18 -3h-867q-27 1 -45 -13l-34 33h445v171h-284q-27 1 -45 -13z
M262 891q2 -107 -3 -178h140v178h-137zM984 615q5 -12 -5 -12q-13 1 -27 -1q-138 -133 -394 -184l-6 18q128 44 199 83t119 77t49 48q2 10 -4 19l12 6zM952 770q5 -12 -5 -12q-15 1 -29 -1q-140 -104 -344 -154l-6 18q163 59 285 145q47 33 28 47l10 6zM928 932
q5 -12 -5 -12q-15 1 -29 -1q-141 -105 -318 -140l-6 18q166 62 258 132q30 24 32 32q3 8 -1 21l12 6z" />
  </g>

</svg>
