<?xml version="1.0" standalone="no"?>
<!DOCTYPE svg PUBLIC "-//W3C//DTD SVG 1.1//EN" "http://www.w3.org/Graphics/SVG/1.1/DTD/svg11.dtd" >
<svg xmlns="http://www.w3.org/2000/svg" xmlns:xlink="http://www.w3.org/1999/xlink" version="1.1" viewBox="0 0 2048 2048">
  <g transform="matrix(1 0 0 -1 0 2048)">
   <path fill="currentColor"
d="M916 1337h592l80 81l114 -86q21 -16 16 -33q-6 -19 -26 -19h-818q-87 -111 -191 -185l-24 30q156 171 241 409l112 -48q38 -16 39 -37q2 -31 -39 -33l-48 -2q-19 -37 -48 -77zM1806 1594h-931q-85 -95 -207 -169l-23 31q212 182 312 472l113 -46q63 -25 56 -49
q-6 -23 -48 -25l-49 -2q-47 -72 -110 -157h874l68 77l83 -55q40 -26 40 -48q0 -28 -78 -62q-16 -884 -73 -1168q-41 -202 -125 -273q-51 -43 -166 -68q-3 55 -59 76q-67 26 -139 41l14 43q129 -24 172 -28q106 -9 153 73q72 126 95 551q25 454 28 786zM335 1395l-1 377
q-1 117 -8 160l109 -24q82 -18 85 -44q3 -29 -49 -43l-42 -11l1 -415h38l84 103l110 -103q13 -12 17 -25q8 -30 -25 -30h-224v-666q75 28 200 88l23 -40q-252 -173 -457 -246l-8 -39q-7 -33 -23 -35q-20 -3 -34 27l-61 135q143 29 264 72v704h-92q-69 0 -149 -11l-39 86
q109 -17 188 -19zM1076 1058q94 -32 157 -61q111 -52 99 -119q-3 -21 -21 -33q-17 -11 -36 -5q-17 5 -51 54q-52 72 -164 130zM1062 746q260 -82 246 -165q-4 -21 -21.5 -32.5t-35.5 -5.5q-16 5 -49 49q-52 70 -156 120zM889 1201l94 -62h444l61 71l72 -49q37 -25 42 -44
q5 -20 -26 -37q-6 -4 -12 -7q-9 -4 -27 -14q-7 -122 -14 -236h15l74 74l100 -78q21 -17 16 -34q-6 -18 -26 -18l-185 -1q-11 -171 -20 -246h35l70 77l97 -86q20 -18 16 -33q-5 -18 -33 -17l-195 1q-32 -128 -97 -180q-44 -35 -145 -56q-13 52 -26 66q-29 32 -160 71l12 42
q138 -40 194 -44q88 -5 119 101l-532 -1q-29 -12 -49 -12q-36 0 -41 27q-3 12 3 33q27 88 55 258h-26q-15 -1 -86 -8l-14 -1l-38 88q95 -24 151 -23l22 1l37 204q2 10 23 173zM923 823l503 1q7 121 11 257h-466zM1419 767h-506l-49 -246h534q2 18 21 246z" />
  </g>

</svg>
