<?xml version="1.0" standalone="no"?>
<!DOCTYPE svg PUBLIC "-//W3C//DTD SVG 1.1//EN" "http://www.w3.org/Graphics/SVG/1.1/DTD/svg11.dtd" >
<svg xmlns="http://www.w3.org/2000/svg" xmlns:xlink="http://www.w3.org/1999/xlink" version="1.1" viewBox="0 0 2048 2048">
  <g transform="matrix(1 0 0 -1 0 2048)">
   <path fill="currentColor"
d="M673 1014q160 41 291 85l17 -37q-291 -137 -725 -238l-12 -34q-12 -37 -28 -35q-14 2 -23 23l-60 145q104 6 294 37q-33 35 -37 94q-11 173 -40 274q-32 106 -114 262l25 17h-6l-22 -3q-69 -2 -92 -6l-40 88q94 -22 200 -22h257q-18 10 -22 34q-11 59 -34 102
q-20 38 -87 120l27 27q200 -134 195 -222q-2 -37 -36 -61h204l80 81l114 -86q21 -16 16 -34q-6 -18 -26 -18h-196l73 -35q65 -31 60 -56q-5 -27 -64 -27h-27q-60 -241 -162 -475zM616 999q80 253 128 608l-467 1q217 -334 236 -527q7 -69 -35 -112q73 13 138 30zM1030 815
l-32 23q91 137 119 306q27 160 27 391v266q0 61 -6 141l110 -84h479l61 73l72 -49q37 -25 41 -44q5 -20 -25 -37q-6 -4 -13 -7q-11 -5 -34 -17v-200l42 -38q8 -7 10 -15q5 -25 -16 -25h-625q-10 -223 -21 -295q-32 -209 -189 -389zM1240 1555h496v245h-496v-245zM1434 1157
l-1 -188q0 -55 30 -65q22 -7 180 -7q141 0 166 15q29 17 36 72l19 138l42 -4l-6 -119q-2 -39 14 -60q3 -5 30 -26q16 -12 19 -27q15 -65 -159 -79q-79 -7 -257 -4q-129 2 -171 34q-34 25 -34 76v411q0 121 -5 159l101 -24q83 -19 86 -45q4 -31 -68 -48l-22 -5v-147h214
l83 83l100 -78q31 -24 31 -39q-2 -23 -26 -23h-402zM970 726l107 -24q85 -19 87 -44q4 -29 -49 -43l-38 -11v-106h479l85 98l131 -104q19 -15 16 -31q-5 -21 -35 -21h-676v-246h680l85 98l131 -104q19 -15 16 -31q-5 -20 -35 -20h-1633q-109 0 -188 -11l-39 86
q114 -18 227 -18h657v246h-464q-109 0 -187 -10l-40 86q112 -18 227 -18h464v69q0 111 -8 159z" />
  </g>

</svg>
