<?xml version="1.0" standalone="no"?>
<!DOCTYPE svg PUBLIC "-//W3C//DTD SVG 1.1//EN" "http://www.w3.org/Graphics/SVG/1.1/DTD/svg11.dtd" >
<svg xmlns="http://www.w3.org/2000/svg" xmlns:xlink="http://www.w3.org/1999/xlink" version="1.1" viewBox="0 -200 1000 1000">
  <g transform="matrix(1 0 0 -1 0 800)">
   <path fill="currentColor"
d="M161 705v297l66 -29l-19 -60v-208h47l40 46l52 -67h-139v-315l139 49l2 -11q-126 -64 -191 -108t-81 -67l-37 70q30 10 60 23t61 24v335h-66l-43 -10l-16 31h125zM527 517v-158h67v158h-67zM488 709q20 48 32 82.5t16 49.5h-101q-13 -41 -22.5 -64t-16.5 -40l35 -28h57z
M416 338q-2 -41 -11 -88.5t-25.5 -93.5t-40 -87t-53.5 -69l-11 2q32 52 51.5 109.5t28.5 114.5q8 48 12 134.5t4 220.5q0 27 -0.5 55.5t-0.5 59.5q-13 -26 -26 -46.5t-24 -34.5l-8 5q19 39 36.5 86t32.5 97t26.5 100.5t17.5 95.5l66 -41l-24 -36q-5 -13 -12 -27.5t-13 -31.5
h94l22 33l57 -51l-30 -19q-17 -15 -36.5 -46.5t-41.5 -70.5h80l26 38l54 -47l-27 -25v-576q-5 -65 -59 -90q-5 41 -74 69v16q23 -6 37.5 -8t23.5 -2h6q8 1 13 11t7 25v218h-178zM420 517v-158h63v158h-63zM431 687l-11 -34v-114h63v148h-52zM527 687v-148h67v148h-67z
M669 892q54 -35 80.5 -64.5t26.5 -58.5q0 -17 -9 -34t-20 -17q-6 0 -11 7t-10 24q-7 29 -23 62.5t-40 71.5zM685 644q70 -64 86 -98q4 -7 4 -22q0 -11 -2 -22t-5.5 -21t-8.5 -16t-10 -6q-6 0 -12 9t-11 31q-8 35 -20.5 69t-32.5 68zM984 406l-108 -34v-332
q-4 -12 -15.5 -23.5t-30.5 -16.5v360l-119 -38l-30 -31l-33 34l182 56v618l64 -38l-18 -52v-515l22 9l27 47z" />
  </g>

</svg>
