<?xml version="1.0" standalone="no"?>
<!DOCTYPE svg PUBLIC "-//W3C//DTD SVG 1.1//EN" "http://www.w3.org/Graphics/SVG/1.1/DTD/svg11.dtd" >
<svg xmlns="http://www.w3.org/2000/svg" xmlns:xlink="http://www.w3.org/1999/xlink" version="1.1" viewBox="0 -204 1024 1024">
  <g transform="matrix(1 0 0 -1 0 820)">
   <path fill="currentColor"
d="M36 678q44 -12 117 -12h15v203q0 53 -6 80q58 -7 96 -24q13 -4 13 -13q0 -10 -13 -13q-18 -11 -43 -13v-220h33l44 49q36 -26 67 -52q9 -4 9 -10q0 -14 -16 -14h-137v-335q10 4 18 8q52 21 118 60l4 -21q-52 -43 -93 -68q-43 -27 -83 -49q-36 -20 -77 -36
q-11 -37 -17 -37q-8 0 -49 84q57 12 103 29q15 3 29 8v357h-15q-71 -3 -98 -8zM896 908q36 -28 68 -52q8 -6 8 -12q0 -14 -16 -14h-521v-250q0 -86 -8 -161q-3 -65 -20 -134q-13 -55 -33 -102q-20 -43 -49 -82q-26 -34 -71 -69l-14 12q29 28 53 64q21 33 37 68q16 40 29 92
q14 60 19 124q9 84 9 188q1 199 -3 317l56 -38h223q-1 3 -1 5q-7 15 -17 32q-9 15 -21 28q-13 15 -32 31l17 13q25 -11 42 -23q22 -12 33 -22q14 -9 21 -17q3 -8 3 -16q0 -20 -7 -31h151zM492 727q39 -9 114 -9h56v25q0 52 -7 74q53 -7 93 -25q10 -3 10 -9q0 -9 -13 -13
q-19 -7 -39 -10v-42h117l35 33q51 -36 51 -49q0 -10 -29 -26v-73l38 41q32 -26 63 -50q6 -4 6 -10q0 -13 -13 -13h-94v-82q11 -7 18 -13q5 -3 5 -7q0 -15 -9 -15h-188v-352q0 -33 -12 -47q-10 -16 -27 -25q-16 -10 -27 -10q-5 24 -16 35q-8 8 -25 15q-25 10 -55 12v24
q48 -12 87 -12q18 0 24 5q7 5 7 24v331h-62q-71 -2 -96 -7l-21 47q44 -11 117 -11h62v88h-102q-71 -2 -96 -7l-21 47q44 -12 117 -12h102v92h-56q-80 0 -96 -7zM706 691v-92h124v92h-124zM706 571v-88h117l7 6v82h-124zM494 416q26 -15 48 -31q20 -16 32 -26q13 -11 19 -18
q4 -8 5 -14q3 -6 3 -11q-1 -36 -27 -36q-3 0 -7 3q-3 4 -15 29q-13 23 -29 44q-15 19 -44 45zM617 265l7 -22q-29 -30 -60 -56q-29 -28 -70 -56q0 -45 -9 -45q-7 0 -65 74q32 10 68 27q32 14 64 34q28 15 65 44zM890 350q-18 -15 -38 -28q-19 -10 -40 -20q-18 -10 -38 -18
l-10 15q19 15 35 27q14 12 26 29q13 13 23 29q8 15 14 28q76 -45 76 -56q0 -10 -18 -10q-12 0 -30 4zM761 265q46 -23 81 -45q36 -22 55 -36q21 -14 31 -25q8 -10 11 -18q4 -7 4 -17q-1 -31 -23 -31q-8 0 -15 4q-6 5 -28 37q-24 30 -52 56q-27 27 -77 59z" />
  </g>

</svg>
