<?xml version="1.0" standalone="no"?>
<!DOCTYPE svg PUBLIC "-//W3C//DTD SVG 1.1//EN" "http://www.w3.org/Graphics/SVG/1.1/DTD/svg11.dtd" >
<svg xmlns="http://www.w3.org/2000/svg" xmlns:xlink="http://www.w3.org/1999/xlink" version="1.1" viewBox="0 -200 1000 1000">
  <g transform="matrix(1 0 0 -1 0 800)">
   <path fill="currentColor"
d="M162 654v297l67 -29l-19 -60v-208h45l41 46l50 -67h-136v-317l136 51l3 -11q-126 -64 -190.5 -108t-80.5 -67l-36 68q30 10 59.5 23t60.5 24v337h-66l-41 -10l-17 31h124zM607 722v-138l-43 -13v25h-58v-25q37 -15 57.5 -25.5t31.5 -22.5q15 -17 15 -43q0 -5 -0.5 -9.5
t-1.5 -9.5q-3 -24 -16 -24q-12 0 -22 22q-9 21 -23 45.5t-41 47.5v-162q-10 -7 -17.5 -15t-27.5 -12v163q-17 -30 -34.5 -53t-38 -41.5t-45 -34.5t-55.5 -32l1 12q57 42 91.5 95.5t62.5 123.5h-41v-21l-43 -27v235l53 -27h49v76h-79l-52 -11l-20 32h151v142l68 -27l-23 -55
v-60h51l45 42l58 -63h-154v-76h47l29 39l50 -45zM412 734l-10 -26v-90h59v116h-49zM506 734v-116h58v116h-58zM724 809q11 -72 25.5 -127t35.5 -94q21 46 32.5 100.5t16.5 120.5h-110zM722 999l58 -47l-19 -21q-2 -6 -5.5 -17t-8 -25t-9 -29.5t-8.5 -29.5h117l46 43l60 -64
h-72q-3 -75 -22.5 -139.5t-47.5 -121.5q31 -38 71.5 -60.5t76.5 -22.5h6v-11q-36 -8 -58 -51q-36 17 -66 45t-56 66q-20 -25 -41 -47t-46 -41t-55 -35t-67 -28l-3 14q58 32 105 76.5t84 98.5q-23 61 -33.5 119.5t-12.5 119.5q-17 -51 -34.5 -93.5t-42.5 -75.5l-8 9
q24 67 47.5 156t43.5 212zM448 60v222l64 -35l-18 -54v-133h105v260h-174l-54 -12l-24 34h414l50 46l69 -68h-235v-117h88l44 43l60 -65h-192v-121h190l48 47l70 -68h-587l-56 -12l-21 33h159z" />
  </g>

</svg>
