<?xml version="1.0" standalone="no"?>
<!DOCTYPE svg PUBLIC "-//W3C//DTD SVG 1.1//EN" "http://www.w3.org/Graphics/SVG/1.1/DTD/svg11.dtd" >
<svg xmlns="http://www.w3.org/2000/svg" xmlns:xlink="http://www.w3.org/1999/xlink" version="1.1" viewBox="0 -205 1024 1024">
  <g transform="matrix(1 0 0 -1 0 819)">
   <path fill="currentColor"
d="M615 961l63 -31q8 -4 10 -8q1 -4 -5 -8q-18 0 -32 -22q-7 -19 -21 -55q-5 -12 -7 -18h287l26 33l57 -44q5 -4 3 -5q-2 -2 -11 -2h-189v-116h81l27 33l57 -44q5 -4 3 -5q-2 -2 -11 -2h-157v-121h81l27 33l57 -44q5 -4 3 -5q-2 -2 -11 -2h-157v-120h128l26 33l57 -44
q5 -4 3 -5q-2 -2 -11 -2h-385l1 -25q0 -21 -10 -30q-12 -9 -37 -14q4 28 7 149v252q-44 -74 -93 -117l-9 9q57 83 100 189q42 105 44 120q0 13 -9 28zM68 626l33 -32h323l23 29l46 -37q7 -5 5 -10q-1 -4 -11 -7l-14 -9v-46l6 -47q-1 -18 -12 -24t-32 -7v24h-327v-29
q1 -31 9 -43q10 -16 37 -16q27 -2 53 -2h57q30 0 63 1q94 0 121 3q24 3 33 14q7 9 10 38q2 27 3 71h15l2 -59q0 -35 27 -44q-13 -32 -28 -41q-17 -11 -44 -14q-28 -6 -129 -4q-37 0 -101 1h-63q-66 -1 -84 18q-19 20 -18 69v163q-3 12 -16 27zM109 202h384v53q2 15 -25 42
l8 11l76 -34q14 -5 6 -11q-18 -6 -27 -18v-43h269l26 34l60 -42q8 -4 6 -7q-1 -3 -12 -3h-349v-131h355l27 34l60 -42q8 -5 6 -7q-2 -3 -12 -3h-857q-27 2 -45 -13l-30 31h458v131h-308q-27 2 -45 -13zM123 791l26 -30h241l17 21l42 -29q7 -5 5 -10q-1 -4 -11 -7l-14 -9v-38
l6 -35q-1 -18 -12 -25q-11 -6 -32 -7v31h-233q-2 -15 -8 -22q-10 -9 -37 -14q2 14 4 39q2 17 3 24v66q-6 30 -13 36zM758 667h-145v-121h145v121zM758 528h-145v-105v-15h145v120zM615 801q-2 -3 -2 -5v-111h145v116h-143zM159 671h232v72h-232v-72zM259 576h-151v-98h151
v98zM297 478h138v98h-138v-98zM272 992l59 -28q3 -4 2 -6t-6 -3q-12 0 -19 -3q-9 -4 -26 -22q-8 -9 -31 -31l-22 -22q46 -14 66 -30q21 -17 22 -37q0 -22 -15 -24q-17 -4 -23 15q-8 18 -25 35q-17 16 -59 37q45 50 60 69q14 19 17 29q0 7 -8 15zM135 994l59 -28q6 -7 -4 -10
q-12 1 -19 -2q-9 -4 -26 -23l-26 -26q-17 -16 -27 -26q45 -13 66 -30t22 -37q0 -22 -15 -24q-17 -4 -23 15q-7 18 -25 35q-17 16 -59 37q45 50 60 69q15 18 17 29q0 7 -7 15zM426 992l67 -29q4 -4 3 -6t-7 -3q-13 0 -22 -4q-10 -4 -30 -22q-10 -12 -44 -41q-10 -9 -16 -14
q51 -14 75 -32q24 -17 25 -38q1 -23 -17 -25q-18 -5 -26 16q-10 21 -27 36q-33 22 -69 38q12 12 32 33q19 20 38 39q16 22 18 30q1 7 -8 16zM690 1004q62 -32 90 -62q27 -31 27 -63q-2 -32 -20 -35q-19 -4 -22 23t-21 59q-18 30 -60 65z" />
  </g>

</svg>
