<?xml version="1.0" standalone="no"?>
<!DOCTYPE svg PUBLIC "-//W3C//DTD SVG 1.1//EN" "http://www.w3.org/Graphics/SVG/1.1/DTD/svg11.dtd" >
<svg xmlns="http://www.w3.org/2000/svg" xmlns:xlink="http://www.w3.org/1999/xlink" version="1.1" viewBox="0 -205 1024 1024">
  <g transform="matrix(1 0 0 -1 0 819)">
   <path fill="currentColor"
d="M734 570l91 -36q14 -5 6 -11q-21 -7 -30 -21v-139l4 -74q1 -32 -50 -45v78h-246q-28 -109 -120 -173q-108 -81 -314 -113l-4 16q194 48 288 124q74 60 102 146h-190l-35 -43l-52 43q26 18 30 42v149q1 20 -19 39l9 11l81 -34q16 -5 7 -16q-20 -4 -32 -16v-155h207
q3 14 6 29q20 119 15 264q-4 20 -21 34l9 12l81 -26q16 -4 8 -15q-17 -4 -31 -20q4 -114 -16 -254q-2 -12 -5 -24h242v170q2 16 -30 46zM58 847h361q22 37 31 64q17 47 13 57q-3 11 -16 22l6 9l85 -20q5 -12 -4 -15q-10 2 -25 -12q-13 -52 -40 -105h383l35 46l70 -54
q11 -7 8 -10q-2 -3 -19 -2h-347q66 -81 105 -114q89 -75 160 -97q38 -12 60 -14q23 -1 66 -3v-19q-43 0 -56 -6q-17 -7 -30 -28q-119 29 -222 126q-48 44 -112 155h-112q-14 -25 -31 -49q-61 -85 -139 -144q-78 -57 -229 -112l-4 16q237 116 327 252q7 10 20 30q3 5 4 7
h-269q-27 1 -45 -13z" />
  </g>

</svg>
