<?xml version="1.0" standalone="no"?>
<!DOCTYPE svg PUBLIC "-//W3C//DTD SVG 1.1//EN" "http://www.w3.org/Graphics/SVG/1.1/DTD/svg11.dtd" >
<svg xmlns="http://www.w3.org/2000/svg" xmlns:xlink="http://www.w3.org/1999/xlink" version="1.1" viewBox="0 0 2048 2048">
  <g transform="matrix(1 0 0 -1 0 2048)">
   <path fill="currentColor"
d="M403 1166q-123 -77 -317 -153l-12 37q275 141 440 278q157 130 275 299h-476q-108 0 -191 -8l-39 88q96 -23 230 -23h515q77 127 139 284l132 -52q48 -19 39 -47q-6 -20 -43 -24l-57 -6q-71 -120 -93 -155h713l104 120l154 -124q16 -13 11 -33t-24 -20h-687
q141 -169 387 -303q198 -109 383 -143v-36q-91 -4 -120 -73q-231 100 -407 245q-141 116 -207 195q-33 40 -89 114l-255 1q-104 -147 -230 -261q-93 -83 -257 -189q94 -13 163 -13h811l99 102l121 -107q21 -19 15 -33q-8 -21 -30 -21h-876l-54 -245h756l57 66l83 -54
q40 -26 40 -49q0 -32 -79 -61l-84 -563h254l99 102l120 -107q20 -17 16 -32q-5 -19 -26 -19h-1550q-75 0 -149 -10l-39 82q122 -16 188 -16h990l42 247h-826q-22 -11 -45 -11q-41 0 -41 23q0 9 7 41l144 606h-43q-56 0 -149 -10zM580 503h815l39 300h-779z" />
  </g>

</svg>
