<?xml version="1.0" standalone="no"?>
<!DOCTYPE svg PUBLIC "-//W3C//DTD SVG 1.1//EN" "http://www.w3.org/Graphics/SVG/1.1/DTD/svg11.dtd" >
<svg xmlns="http://www.w3.org/2000/svg" xmlns:xlink="http://www.w3.org/1999/xlink" version="1.1" viewBox="0 -205 1024 1024">
  <g transform="matrix(1 0 0 -1 0 819)">
   <path fill="currentColor"
d="M546 429v-80q0 -54 -4 -78q-4 -28 -16 -50q-14 -25 -70 -39q-2 22 -13 30q-7 8 -49 21l3 16q31 -7 73 -12q23 5 31 28q4 10 6 28q1 15 1 49v103h-123v-315l2 -57q4 -37 -47 -44q5 37 7 146v270h-94q-11 -116 -44 -206q-42 -119 -184 -215l-10 14q112 94 157 216
q31 84 43 191h-80l-29 -42l-53 45q20 11 27 34l14 150q-1 23 -12 40l13 11l35 -44h92q0 26 1 75q0 51 1 75h-103q-18 2 -38 -14l-35 34h176v139q-4 20 -24 34l4 12l75 -24q16 -5 8 -11q-17 -8 -25 -16v-134h85v131q2 17 -22 36l9 12l75 -26q14 -5 6 -11q-21 -7 -30 -21v-121
h83l19 27l47 -35q7 -6 6 -10t-10 -6l-20 -8v-106l6 -57q0 -31 -44 -33v38h-87v-154h113l27 26l49 -41q5 -9 -6 -11zM676 998l81 -24q16 -5 8 -11q-17 -8 -25 -16v-70q0 -94 -5 -189h144l32 40l68 -50q8 -5 7 -8q-2 -2 -13 -2h-194q18 -142 34 -233q59 -345 181 -353v-16
q-4 0 -11 1q-46 11 -70 -18q-84 88 -126 294q-22 101 -36 325h-17q-4 -70 -12 -141q-18 -172 -73 -298q-54 -122 -188 -205l-10 14q196 150 228 504q4 40 9 117q-3 -52 1 9h-79q-27 1 -45 -13l-34 33h159q6 89 6 168v96q-4 20 -24 34zM124 465h93q3 41 4 85q0 35 1 69h-87z
M260 619l-2 -84q-1 -36 -3 -70h92v154h-87zM385 639h87v150h-87v-150zM262 789v-87q0 -34 -1 -63h86v150h-85z" />
  </g>

</svg>
