<?xml version="1.0" standalone="no"?>
<!DOCTYPE svg PUBLIC "-//W3C//DTD SVG 1.1//EN" "http://www.w3.org/Graphics/SVG/1.1/DTD/svg11.dtd" >
<svg xmlns="http://www.w3.org/2000/svg" xmlns:xlink="http://www.w3.org/1999/xlink" version="1.1" viewBox="0 0 2048 2048">
  <g transform="matrix(1 0 0 -1 0 2048)">
   <path fill="currentColor"
d="M1228 1664q123 -121 255 -210q254 -170 494 -203v-34q-40 -9 -62 -18q-32 -12 -73 -62q-401 175 -668 527h-252q-129 -172 -298 -308q-217 -174 -531 -288l-12 32q496 249 722 564l-447 1q-117 0 -192 -9l-38 89q96 -23 230 -23h484q75 124 128 260l138 -55
q37 -15 36 -35q-1 -25 -39 -29l-57 -6q-52 -91 -83 -135h680l104 120l154 -124q17 -14 13.5 -29.5t-26.5 -24.5h-660zM977 961v376q0 114 -8 160l109 -24q82 -18 85 -44q4 -26 -50 -43l-42 -14v-411h555l68 76l84 -55q40 -26 40 -48q0 -28 -78 -62l3 -650q1 -142 -154 -170
q-12 69 -47 92q-33 21 -160 44l8 46q140 -23 190 -27q68 -6 68 57v643h-577v-517q0 -111 12 -219q3 -28 3 -54q0 -39 -48 -41q-61 -4 -61 42v789h-566v-796q0 -59 -69 -53q-45 4 -42 49q0 17 4 46q11 102 11 209v652l118 -53h544zM1407 1282l108 -52q42 -21 36 -45
q-4 -17 -33 -20l-45 -7q-97 -99 -203 -171l-20 27q94 102 157 268zM740 806l94 -38q74 -30 76 -53q3 -27 -34 -30l-51 -5q-70 -112 -121 -176q-73 -91 -198 -190l-28 30q118 127 180 247q34 66 82 215zM1182 802q312 -209 327 -340q4 -32 -10 -57q-20 -34 -51 -23
q-22 9 -47 63q-47 106 -105 182q-44 58 -137 146zM552 1262q251 -99 259 -197q2 -23 -11 -43.5t-31 -22.5q-30 -4 -54 50q-28 62 -81 112q-21 20 -97 73z" />
  </g>

</svg>
