<?xml version="1.0" standalone="no"?>
<!DOCTYPE svg PUBLIC "-//W3C//DTD SVG 1.1//EN" "http://www.w3.org/Graphics/SVG/1.1/DTD/svg11.dtd" >
<svg xmlns="http://www.w3.org/2000/svg" xmlns:xlink="http://www.w3.org/1999/xlink" version="1.1" viewBox="0 -205 1024 1024">
  <g transform="matrix(1 0 0 -1 0 819)">
   <path fill="currentColor"
d="M652 991l84 -35q7 -12 -4 -15q-29 -5 -32 -24q-24 -100 -60 -227h247l31 46l74 -54q11 -7 8 -10q-2 -3 -19 -2h-123q-4 -83 -43 -221q-22 -80 -63 -149q45 -31 91 -75q124 -112 83 -157q-20 -19 -43 22q-23 40 -74 95q-36 40 -81 77q-23 -34 -52 -66q-97 -107 -264 -162
l-6 18q175 83 252 185q10 14 29 42q4 7 6 10l-3 2q-68 50 -176 102q48 145 82 277h-86q-27 1 -45 -13l-34 33h170q11 42 20 83q39 179 37 186q-1 9 -14 23zM251 989l88 -34q14 -5 6 -11q-19 -4 -29 -18v-142h107l31 46l74 -54q11 -7 8 -10q-2 -3 -19 -2h-201v-165h70l27 31
l48 -43q11 -10 -6 -17q-11 -1 -17 -7q-5 -4 -20 -75q-15 -70 -61 -170t-149 -182q-103 -84 -191 -106l-6 18q78 32 166 106q88 76 137 173q49 98 77 252h-202q-10 -52 -28 -101q37 -17 65 -37q40 -28 48 -69q4 -52 -28 -48q-15 3 -21 31q-5 29 -23 54q-15 21 -48 51l-11 -25
q-46 -101 -106 -160l-10 12q98 166 120 308q10 66 8 78q-1 12 -13 21l7 11l71 -26q7 -4 6 -8q-1 -5 -9 -9q-13 -3 -18 -15q-1 -24 -6 -48h77v337q2 17 -27 42zM548 405q105 -43 166 -80q38 68 59 143q33 120 40 202h-179q-19 -67 -42 -141z" />
  </g>

</svg>
