<?xml version="1.0" standalone="no"?>
<!DOCTYPE svg PUBLIC "-//W3C//DTD SVG 1.1//EN" "http://www.w3.org/Graphics/SVG/1.1/DTD/svg11.dtd" >
<svg xmlns="http://www.w3.org/2000/svg" xmlns:xlink="http://www.w3.org/1999/xlink" version="1.1" viewBox="0 -205 1024 1024">
  <g transform="matrix(1 0 0 -1 0 819)">
   <path fill="currentColor"
d="M31 850h337q9 13 18 25q56 80 55 87q0 9 -9 23l8 9l72 -35q7 -8 -4 -13q-18 -2 -23 -7q-5 -4 -61 -81q-4 -4 -7 -8h446l31 46l74 -54q11 -7 8 -10q-2 -3 -19 -2h-232q-51 -96 -136 -167q55 -14 103 -29q180 -60 156 -118q-13 -28 -54 7q-40 35 -122 69q-55 22 -123 41
q-86 -60 -190 -86q-123 -31 -295 -39v20q140 14 259 45q94 24 172 74l-18 4q-112 26 -225 45q56 72 101 134h-243q-27 1 -45 -13zM149 394l39 -43h182l46 107h-306q-27 1 -45 -13l-34 31h836l35 44l70 -50q11 -7 8 -10q-2 -3 -19 -2h-492l-66 -107h384l26 39l52 -41
q9 -5 9 -9t-9 -8l-20 -13v-176q2 -66 -13 -86t-51 -24q-3 33 -87 51q-8 3 -13 4l4 18q78 -15 97 -13q19 1 17 48v192h-175v-171l2 -54q2 -37 -53 -46q5 39 7 125v146h-170v-175l2 -54q2 -37 -53 -46q5 39 7 135v140h-170v-186l4 -73q2 -36 -57 -46q5 39 7 156v158
q-4 26 -16 39zM401 830q-70 -85 -107 -118q90 -10 201 -30q7 -1 20 -4q13 -2 19 -4q87 68 135 156h-268z" />
  </g>

</svg>
