<?xml version="1.0" standalone="no"?>
<!DOCTYPE svg PUBLIC "-//W3C//DTD SVG 1.1//EN" "http://www.w3.org/Graphics/SVG/1.1/DTD/svg11.dtd" >
<svg xmlns="http://www.w3.org/2000/svg" xmlns:xlink="http://www.w3.org/1999/xlink" version="1.1" viewBox="0 -205 1024 1024">
  <g transform="matrix(1 0 0 -1 0 819)">
   <path fill="currentColor"
d="M367 723q-15 -5 -17 -17q-9 -72 -30 -179q-20 -103 -52 -182q19 -13 35 -26q34 -28 49 -66q15 -37 -5 -51q-19 -14 -33 17q-13 31 -32 56q-11 14 -31 32q-31 -63 -79 -116q-59 -64 -149 -116l-6 16q62 46 114 106q53 58 87 137l-1 1q-46 35 -134 73q36 176 68 318h-70
q-20 2 -32 -12l-32 32h138l6 24q3 11 4 17q38 165 34 173q-3 9 -12 21l6 9l78 -27q5 -4 4 -7q-2 -4 -8 -6q-14 -6 -19 -11q-5 -4 -20 -63l-33 -130h105l25 31l45 -36q11 -10 -3 -18zM716 962l41 -40h158l31 33l46 -41q7 -6 5 -10q-1 -5 -11 -7l-18 -9v-220l4 -76
q6 -40 -46 -44v50h-159q-2 -177 -28 -302q-33 -152 -155 -265l-16 12q100 113 131 258q31 147 25 377v234q-10 24 -21 37zM416 960l37 -36h152l31 33l46 -41q7 -6 5 -10q-1 -5 -11 -7l-18 -9v-220l4 -76q7 -41 -46 -44v50h-149q-1 -180 -28 -306q-32 -150 -147 -257l-12 12
q88 105 119 250q31 147 25 377v234q-10 24 -21 37zM767 618h159v284h-160v-218q1 -34 1 -66zM190 726l-42 -168l-33 -138q54 -20 104 -46q6 -4 12 -7q27 74 46 165q24 112 30 194h-117zM467 620h149v284h-150v-222q1 -32 1 -62z" />
  </g>

</svg>
