<?xml version="1.0" standalone="no"?>
<!DOCTYPE svg PUBLIC "-//W3C//DTD SVG 1.1//EN" "http://www.w3.org/Graphics/SVG/1.1/DTD/svg11.dtd" >
<svg xmlns="http://www.w3.org/2000/svg" xmlns:xlink="http://www.w3.org/1999/xlink" version="1.1" viewBox="0 0 2048 2048">
  <g transform="matrix(1 0 0 -1 0 2048)">
   <path fill="currentColor"
d="M669 709h-364q-69 0 -149 -11l-39 86q125 -17 188 -17l398 -1q78 136 131 313l129 -49q32 -12 38 -26q12 -29 -38 -34l-50 -6q-42 -81 -117 -198h524q22 92 20 180l135 -25q65 -13 65 -42q0 -19 -42 -31l-46 -13q-12 -39 -21 -69h295l99 101l120 -107q21 -18 16 -33
q-6 -19 -26 -19l-524 1q-76 -207 -236 -337q175 -47 319 -95q156 -53 196 -85q50 -39 46 -80q-5 -53 -59 -48q-19 2 -44 15q-275 152 -540 236q-285 -175 -907 -231l-8 38q67 11 100 17q286 46 521 131q118 43 184 80q-19 6 -82 25q-89 27 -166 46q-154 38 -232 65
q92 106 166 223zM756 709q-76 -110 -163 -196q248 -47 434 -99l41 -12q173 126 236 307h-548zM1076 1555h673l80 87l91 -80q42 -37 34 -61q-6 -17 -34 -22l-61 -12q-75 -97 -149 -159l-34 26q52 87 84 164h-1431q-29 -285 -147 -279q-48 3 -48 47q0 32 23 56l52 56
q76 83 82 283l41 -1v-105h644v247q0 118 -7 159l113 -24q82 -17 85 -43q3 -20 -15 -28l-34 -16l-43 -22zM439 1892q252 -106 272 -222q12 -69 -41 -74q-35 -2 -68 61q-52 100 -183 202zM1534 1915l124 -60q34 -17 34 -38q0 -26 -38 -26h-53q-117 -117 -287 -202l-21 33
q164 132 241 293zM1063 1208q-6 10 -23 49q-29 67 -157 170l23 29q76 -41 102 -54q150 -77 142 -155q-2 -21 -17 -39l517 1l59 65l89 -69q34 -27 36 -44q2 -21 -37 -29l-49 -10q-50 -65 -124 -140l-27 17q37 80 53 154h-1235q-22 -207 -124 -207q-26 0 -42 21q-12 16 -10 36
q4 24 37 48q97 70 100 237h34l5 -79z" />
  </g>

</svg>
