<?xml version="1.0" standalone="no"?>
<!DOCTYPE svg PUBLIC "-//W3C//DTD SVG 1.1//EN" "http://www.w3.org/Graphics/SVG/1.1/DTD/svg11.dtd" >
<svg xmlns="http://www.w3.org/2000/svg" xmlns:xlink="http://www.w3.org/1999/xlink" version="1.1" viewBox="0 -205 1024 1024">
  <g transform="matrix(1 0 0 -1 0 819)">
   <path fill="currentColor"
d="M443 557l35 -44h393l28 31l48 -37q7 -6 5 -10q-1 -5 -11 -7l-19 -9v-357l5 -40q8 -42 -45 -44v60h-398v-21q3 -46 -47 -54q5 46 7 134v350q-5 24 -16 36zM749 479l56 -26q9 -6 -2 -14q-6 0 -20 -6q-27 -41 -58 -79h51l21 31l54 -35q10 -6 7 -9q-2 -3 -18 -3h-137v-72h98
l23 32l50 -36q8 -5 8 -8v241h-398v-377h398v135q-3 -3 -19 -3h-160v-14l2 -56q2 -33 -45 -42q4 32 7 112h-94q-27 1 -45 -13l-34 29h173v72h-70q-27 1 -45 -13l-34 29h185q52 96 48 101q0 8 -8 16zM193 976l70 -31q5 -4 4 -7q-2 -4 -8 -6q-14 -6 -19 -11t-20 -62l-32 -135
h108l21 35l53 -40q11 -10 -3 -18q-21 -5 -23 -17q-25 -215 -77 -353q-1 -2 -3 -8q-2 -5 -3 -8q15 -12 29 -26q41 -37 60 -81t-1 -58q-19 -17 -36 21q-16 39 -47 78q-10 14 -22 27q-31 -61 -74 -111q-61 -69 -144 -115l-8 16q63 45 118 108q46 53 80 129q-2 2 -7 6
q-3 3 -13 11q-39 31 -114 80q38 163 68 304h-58q-20 2 -32 -12l-32 32h126q2 8 5 23q4 16 5 23q34 162 33 174q-1 9 -10 19zM305 704h-122l-31 -136l-42 -156q34 -19 92 -55q-38 25 5 -3q6 -4 18 -13q3 -2 5 -3q34 93 50 185q17 97 25 181zM1011 747l-1 -20q-58 8 -77 -23
q-112 39 -198 135q-32 37 -65 99q-57 -98 -131 -161q-76 -65 -163 -103l-8 16q154 96 229 209q42 60 40 71q-1 11 -9 21l7 8l67 -23q8 -2 8 -6q1 -4 -6 -9q-8 0 -16 -5q38 -52 71 -87q66 -67 146 -101q38 -16 106 -21zM573 623l4 16q57 -15 102 -32q17 -6 27 -12l82 78h-259
q-19 2 -35 -12l-33 30h336l21 23l49 -36q5 -6 2 -10q-3 -3 -13 -3q-8 1 -32 -11q-47 -37 -98 -72q5 -4 8 -9q15 -23 0 -40q-17 -12 -33 10q-23 40 -128 80zM603 808l6 13q82 -24 101 -55q18 -39 -12 -49q-14 -2 -20 16q-6 19 -22 34q-15 16 -53 41zM558 459l8 10
q84 -34 91 -79q0 -21 -18 -23q-16 -2 -21 17q-5 33 -60 75z" />
  </g>

</svg>
