<?xml version="1.0" standalone="no"?>
<!DOCTYPE svg PUBLIC "-//W3C//DTD SVG 1.1//EN" "http://www.w3.org/Graphics/SVG/1.1/DTD/svg11.dtd" >
<svg xmlns="http://www.w3.org/2000/svg" xmlns:xlink="http://www.w3.org/1999/xlink" version="1.1" viewBox="0 -200 1005 1000">
  <g transform="matrix(1 0 0 -1 0 800)">
   <path fill="currentColor"
d="M671 335h7q26 17 57 37.5t58 46.5h-122v-84zM820 153v65h-247v-65h247zM573 70h247v63h-247v-63zM985 313h-251q-51 -29 -83.5 -48.5t-54.5 -25.5h209l41 42l67 -42l-32 -31v-196q-19 -7 -32.5 -9.5t-20.5 -2.5t-8 1v47h-247v-38q-15 -5 -30.5 -8.5t-32.5 -3.5v197
q-11 -6 -34 -12t-46 -11.5t-41.5 -8.5t-20.5 -3l-3 3q80 35 113 52t33 22l-1 1v30l45 -15q12 7 26.5 17t27.5 19.5t22.5 16.5t10.5 8h-168l-58 -13l-39 34h236v84h-74l-57 -11l-34 32h165v109l78 -30l-20 -51v-28h62l48 41l38 -39l51 52l54 -52l-27 -11q-9 -6 -22.5 -17
t-30.5 -24t-36.5 -27.5t-40.5 -27.5h91l56 45zM168 -3q-38 6 -38 34q8 7 16 24t8 39t-13 44.5t-47 37.5q27 -6 43 -6q24 0 33 7t17 10q39 45 97 133.5t130 209.5h20q-30 -50 -60.5 -108.5t-57 -112t-46 -95t-27.5 -57.5l-26 -52q1 -12 1.5 -23t0.5 -20q0 -33 -10 -47.5
t-41 -17.5zM35 404q69 -22 110 -46.5t41 -49.5q0 -11 -9 -21q-13 -16 -27 -16q-24 0 -28 40q-4 8 -9 17.5t-14.5 21t-24.5 25t-39 29.5zM141 537q140 -39 140 -87q0 -18 -19 -37q-9 -9 -18.5 -14t-15.5 -5q-12 0 -12 19v6.5t1 7.5q0 25 -18 56.5t-57 54.5zM771 755h82l55 50
l71 -71h-208v-135h61l54 49l76 -71h-342l-47 -8l-21 30h161v135h-105l-60 -14l-29 35h194v125q-54 -8 -93.5 -10.5t-62.5 -2.5l-1 4q126 30 200.5 57t115.5 55l40 -73l-48 -1q-11 -2 -19 -4t-17.5 -4.5t-22.5 -6t-34 -7.5v-132zM189 753q27 -10 54.5 -20.5t62.5 -24.5
q19 17 39.5 56.5t33.5 85.5l78 -30l-35 -32q-4 -6 -12 -21.5t-18 -32.5t-21 -32.5t-21 -22.5q29 -14 59 -29t53 -33q13 -10 23 -18.5t10 -22.5q0 -1 -0.5 -3.5l-1.5 -7.5q-2 -15 -11 -22t-21 -7q-20 0 -36 13q-22 41 -47.5 62t-54.5 40q-22 -19 -40.5 -35.5t-45.5 -30.5
t-68.5 -26.5t-108.5 -23.5l-26 -1q66 24 104.5 42t63.5 33.5t43.5 32t43.5 37.5q-6 6 -17.5 14t-25.5 16t-29 16t-28 14q-3 -3 -13.5 -7.5t-11.5 -7.5l-35 14q17 23 32 50t30 59h-61l-59 -11l-25 39h155q17 36 29 67t18 60l86 -45l-32 -25l-40 -58h161l55 47l79 -73h-309
q-16 -23 -29.5 -46t-29.5 -44v-5z" />
  </g>

</svg>
