<?xml version="1.0" standalone="no"?>
<!DOCTYPE svg PUBLIC "-//W3C//DTD SVG 1.1//EN" "http://www.w3.org/Graphics/SVG/1.1/DTD/svg11.dtd" >
<svg xmlns="http://www.w3.org/2000/svg" xmlns:xlink="http://www.w3.org/1999/xlink" version="1.1" viewBox="0 -204 1024 1024">
  <g transform="matrix(1 0 0 -1 0 820)">
   <path fill="currentColor"
d="M64 874q44 -12 117 -12h75v10q0 53 -6 80q46 -9 75 -18q11 -4 11 -11q0 -5 -7 -9q-11 -6 -25 -10v-42h104l38 41q31 -24 59 -45q7 -5 7 -10q0 -14 -13 -14h-195v-80h76l37 38q30 -22 56 -43q7 -4 7 -9q0 -14 -12 -14h-239q-71 -2 -97 -7l-20 47q44 -12 117 -12h27v80h-75
q-71 -2 -97 -7zM104 688l16 -3q3 -13 3 -23h323l28 28q32 -23 57 -49q3 -3 3 -6q0 -7 -18 -11l-29 -6q-12 -12 -28 -25q-16 -14 -34 -25l-15 12q15 15 23 28q9 14 14 26h-325q0 -17 -3 -31q-3 -22 -11 -37q-5 -12 -13 -20t-15 -11q-6 -3 -12 -3q-30 0 -30 21q0 6 10 15
q22 22 32 38q10 14 17 33q5 18 7 49zM124 562q44 -12 117 -12h87l38 41q31 -24 59 -45q7 -5 7 -10q0 -14 -13 -14h-178q-71 -2 -97 -7zM118 500l55 -26h207l31 29q51 -36 51 -50q0 -10 -30 -25v-72q15 -11 27 -21q5 -3 5 -7q0 -14 -10 -14h-76q28 -9 50 -20q6 -5 6 -10
q0 -10 -12 -14q-21 -6 -38 -6q-7 -20 -15 -38q-9 -19 -20 -39q-8 -16 -17 -27q6 1 10 2q70 14 162 38l4 -22q-77 -29 -137 -46q-64 -19 -122 -33q-54 -15 -114 -25q-11 -37 -18 -37q-8 0 -49 84q73 6 131 15q-3 8 -6 23q-9 48 -19 77q-9 26 -23 52q-12 -4 -20 -4
q-13 0 -13 14q0 4 1 14q1 23 1 42v78q0 49 -2 68zM346 314h-178v-6q23 -27 37 -55q15 -26 23 -53q5 -19 5 -37q0 -15 -4 -22q31 4 65 11q10 16 16 32q10 25 19 53q8 28 14 57zM168 342h216v100l-1 4h-213l-2 -4v-100zM662 700l6 -19q-24 -33 -49 -61q-25 -29 -59 -60
q0 -41 -8 -41q-6 0 -60 69q28 10 59 28q28 16 54 36q24 18 57 48zM701 952q49 -14 88 -33q7 -6 7 -11q0 -10 -13 -15q-23 -6 -42 -6q-4 -14 -9 -25h141l30 31q35 -25 63 -54q3 -3 3 -6q0 -7 -19 -11q-16 -4 -31 -7q-14 -30 -34 -61q-19 -35 -40 -62l-17 13q19 35 29 68
q12 32 18 61h-154q-8 -22 -19 -43q-11 -22 -23 -39q-10 -17 -28 -36l-19 14q15 24 25 52q12 30 22 64q11 35 18 69q3 18 4 37zM727 780q48 -7 85 -20q10 -5 10 -12q0 -6 -13 -9q-15 -5 -28 -7q-2 -38 -8 -62q46 -27 92 -61q37 -26 56 -50q14 -15 22 -35q3 -11 3 -20
q0 -30 -26 -30q-6 0 -13 3q-10 6 -20 24q-20 38 -41 63q-20 27 -42 49q-18 20 -38 34q-8 -29 -23 -53q-16 -30 -40 -53q-27 -29 -59 -45q-34 -22 -72 -32l-8 21q44 21 67 39q23 15 44 41q17 21 30 50q11 23 18 58t7 60q0 30 -3 47zM580 244l-4 3q24 53 38 94q2 5 3 9h-28
q-71 -2 -97 -7l-20 47q44 -12 117 -12h38q8 21 13 39q9 39 15 75q91 -39 91 -57q0 -13 -50 -15q-9 -21 -21 -42h107v4q0 48 -9 78q51 -7 83 -16q17 -5 17 -13q0 -9 -13 -15q-12 -7 -27 -12q0 -14 -1 -26h28l43 47q35 -26 65 -50q8 -5 8 -11q0 -14 -14 -14h-133
q-5 -45 -15 -77q-13 -53 -36 -85q44 -18 77 -40q47 -27 64 -43q14 -10 19 -25q6 -12 6 -26q0 -22 -20 -22q-8 0 -29 20q-18 21 -79 63q-32 23 -62 40q-20 -24 -44 -42q-42 -33 -96 -53q-58 -24 -132 -36l-6 21q76 15 124 40q46 23 84 57q18 16 31 33q-8 4 -16 7
q-61 32 -131 48zM736 204q5 7 8 12q19 40 28 85q6 26 8 49h-120q-6 -10 -11 -19q-23 -43 -50 -82q79 -17 137 -45zM534 916q23 -18 41 -38q18 -17 28 -30q10 -11 15 -20l6 -15q2 -7 2 -14q-1 -35 -26 -35q-3 0 -6 3q-3 4 -14 32t-24 50t-36 51z" />
  </g>

</svg>
