<?xml version="1.0" standalone="no"?>
<!DOCTYPE svg PUBLIC "-//W3C//DTD SVG 1.1//EN" "http://www.w3.org/Graphics/SVG/1.1/DTD/svg11.dtd" >
<svg xmlns="http://www.w3.org/2000/svg" xmlns:xlink="http://www.w3.org/1999/xlink" version="1.1" viewBox="0 -204 1024 1024">
  <g transform="matrix(1 0 0 -1 0 820)">
   <path fill="currentColor"
d="M385 960q70 -30 70 -44q0 -10 -39 -11q-14 -17 -37 -36q-14 -14 -32 -28q13 1 29 3q26 1 54 7q8 17 13 33q70 -30 70 -44q0 -10 -39 -11q-23 -28 -60 -60q-28 -27 -60 -51q21 1 47 4q35 2 76 11q-1 3 -2 5q-7 12 -19 26l16 12q14 -10 26 -21q12 -10 20 -19t11 -16t3 -13
q0 -18 -5 -27q-8 -12 -19 -12q-4 0 -6 3q-3 2 -5 14q-3 14 -8 25q-50 -21 -112 -34q-15 -34 -20 -34t-9 8q-12 28 -22 66h3q35 37 55 64q17 20 28 38q-22 -8 -46 -14q-14 -30 -18 -30q-5 0 -8 7q-11 25 -20 59h3l30 45q12 20 20 38q8 19 12 37zM518 878q40 -11 103 -12v2
q-3 14 -8 27q-5 14 -11 25q-6 12 -16 26l18 14q13 -9 23 -19q12 -9 18 -17q8 -8 11 -14q2 -6 2 -12q0 -21 -6 -32h36l25 22q20 -15 38 -30q5 -3 5 -6q0 -14 -8 -14h-113q-71 -2 -97 -7zM548 810q44 -12 117 -12h3l23 20q19 -15 37 -28q4 -3 4 -6q0 -14 -8 -14h-59
q-71 -2 -97 -7zM552 746q44 -12 116 -12l23 20q19 -15 37 -28q4 -3 4 -6q0 -14 -8 -14h-55q-71 -2 -97 -7zM554 685l48 -19h70l28 25q43 -29 43 -41q0 -8 -25 -22v-43q11 -9 20 -15q4 -3 4 -6q0 -14 -8 -14h-144q-5 -4 -7 -5q-12 -5 -19 -5q-10 0 -10 11q0 3 1 11q1 17 1 31
v41q0 36 -2 51zM592 578h86v60h-86v-60zM825 960q70 -30 70 -44q0 -10 -39 -11q-13 -17 -34 -36q-14 -15 -29 -27l30 3q30 2 64 11q11 21 18 40q70 -30 70 -44q0 -10 -39 -11q-26 -30 -69 -64q-32 -30 -71 -58l41 3q37 2 82 11q-3 7 -7 14q-7 13 -20 28l17 13q16 -11 28 -22
q14 -11 22 -21q9 -10 12 -17t3 -14q0 -19 -5 -30q-9 -12 -21 -12q-4 0 -6 3q-4 3 -6 15q-2 11 -7 22q-48 -21 -110 -34q-15 -34 -20 -34t-9 8q-12 28 -22 66h3q41 39 65 67q17 20 30 37q-26 -11 -54 -18q-14 -30 -18 -30q-5 0 -8 7q-11 25 -20 59h3q16 26 27 45q11 20 18 38
q7 19 11 37zM516 538q77 -17 77 -31q0 -12 -42 -15q-8 -7 -17 -12h253l32 29q47 -33 47 -46q0 -9 -28 -23v-67q0 -21 1 -28q1 -6 1 -14q0 -19 -32 -25q-14 0 -14 10v8h-350v-36h412l37 38q30 -22 56 -43q7 -4 7 -9q0 -14 -12 -14h-500v-38h446l33 29q35 -21 54 -39
q8 -10 8 -14q0 -12 -38 -27q-6 -43 -18 -72q-14 -31 -26 -45q-14 -13 -30 -19q-17 -7 -37 -11q-17 -4 -28 -4q0 14 -7 22q-8 11 -93 37l5 21q78 -13 104 -13q12 0 22 2q7 0 14 4l18 15q9 10 16 30q8 20 12 52l-2 4h-453v-8q0 -10 -12 -16q-15 -6 -25 -6q-13 0 -13 14
q0 4 1 14q1 23 1 42v206q0 49 -2 68l59 -28h42q9 11 13 23q5 13 8 35zM444 352h350v36h-350v-36zM444 416h350v36h-349l-1 -2v-34zM358 204l14 -4q-7 -46 -15 -73q-8 -25 -18 -42q-9 -18 -20 -28q-11 -9 -20 -13q-8 -4 -15 -4q-26 0 -26 24q0 6 3 12q4 6 27 23q29 24 37 34
q9 12 18 30q10 17 15 41zM457 168q22 -11 39 -25q18 -15 24 -27q7 -13 7 -24q0 -15 -4 -27q-4 -10 -12 -14q-7 -3 -11 -3q-17 0 -17 18q-2 4 -3 13q-2 13 -11 31q-9 22 -29 54zM601 180q19 -10 33 -21q16 -10 26 -19q11 -10 14 -17q4 -6 4 -13q0 -19 -5 -30q-9 -12 -21 -12
q-5 0 -8 3q-4 2 -6 14q-4 15 -12 29t-17 26t-25 27zM742 180q28 -10 44 -21q15 -8 22 -16q5 -6 5 -12q0 -35 -25 -35q-4 0 -7 2t-7 10q-8 18 -18 29q-10 12 -28 25zM462 672q14 -9 25 -18q12 -9 20 -17q7 -8 10 -14q3 -5 3 -11q0 -16 -5 -25q-7 -11 -17 -11q-4 0 -6 3
q-2 2 -4 12q-3 12 -9 24t-13 23q-6 10 -18 23zM908 672q15 -11 28 -23q13 -11 21 -21q9 -11 12 -19q3 -7 3 -14q0 -18 -5 -27q-8 -12 -19 -12q-4 0 -6 3q-4 3 -6 15q-3 15 -10 30q-6 15 -14 28q-7 13 -20 28zM70 376l-10 3q22 90 42 198q5 32 11 65l-25 -6q-16 -37 -22 -37
t-10 8q-13 32 -24 73q23 0 88 8l17 114q15 109 17 154q54 -9 93 -29q11 -6 11 -14t-18 -13q-19 -7 -35 -9q-19 -106 -40 -198q30 5 62 14q0 68 -4 101q45 -5 85 -11q13 -3 13 -10q0 -9 -13 -15q-14 -6 -27 -12q-2 -124 -10 -207q-9 -87 -23 -161q-12 -52 -26 -95
q15 -14 27 -26q22 -21 40 -44q7 -9 13 -22q5 -11 8 -23q3 -9 3 -22q0 -24 -17 -24q-2 0 -7 7q-9 18 -28 44q-16 27 -46 61q-4 4 -7 8q-24 -61 -57 -108q-39 -61 -105 -124l-14 20q43 46 72 92q25 44 48 98q12 27 21 58l-29 27q-39 37 -74 57zM156 654q-4 -23 -9 -42
q-26 -118 -54 -219q45 -28 82 -59q6 -4 9 -7l8 35q16 67 26 160q8 80 9 157q-33 -14 -71 -25zM333 630q13 -12 23 -24q11 -12 18 -22q7 -11 10 -19q2 -7 2 -15q0 -19 -5 -30q-9 -12 -21 -12q-3 0 -5 3t-4 16q-3 16 -8 31q-5 16 -11 29q-6 14 -16 30zM760 628q16 -10 29 -21
q14 -10 23 -19q10 -9 13 -16t3 -13q0 -18 -5 -27q-8 -12 -19 -12q-4 0 -7 3q-3 2 -6 14q-3 14 -10 27q-7 14 -15 26t-22 26zM832 648q17 -11 31 -22q15 -10 24 -20q10 -10 14 -17q3 -7 3 -14q0 -18 -5 -27q-8 -12 -19 -12q-5 0 -7 3q-4 3 -6 14q-4 15 -12 29q-7 14 -16 27
q-8 12 -23 27zM397 652q14 -10 25 -20q11 -9 19 -18t10 -16q3 -6 3 -12q0 -19 -5 -30q-9 -12 -21 -12q-3 0 -6 3q-2 2 -4 13q-3 14 -8 28q-6 13 -12 25q-7 12 -18 26z" />
  </g>

</svg>
