<?xml version="1.0" standalone="no"?>
<!DOCTYPE svg PUBLIC "-//W3C//DTD SVG 1.1//EN" "http://www.w3.org/Graphics/SVG/1.1/DTD/svg11.dtd" >
<svg xmlns="http://www.w3.org/2000/svg" xmlns:xlink="http://www.w3.org/1999/xlink" version="1.1" viewBox="0 0 2048 2048">
  <g transform="matrix(1 0 0 -1 0 2048)">
   <path fill="currentColor"
d="M1127 705l24 -7q24 -6 21 -32t-29 -33l-59 -16v-30h628l109 114l130 -114q26 -22 22 -39q-4 -18 -26 -18h-863v-308q0 -141 -154 -170q-12 70 -48 93q-32 21 -159 43l8 46q140 -23 190 -27q68 -5 68 57v266h-711q-64 0 -149 -12l-39 86q115 -17 188 -17h711v18l-7 140
l87 -24q135 107 244 214h-646q-64 0 -148 -11l-39 86q125 -18 187 -18h654l80 72l75 -64q55 -47 34 -76q-10 -13 -99 -30q-140 -87 -284 -189zM1581 1598l99 106l120 -106q21 -18 16 -34q-5 -19 -26 -19h-526v-263q0 -60 41 -73q53 -15 152 -15h171q101 0 132 31
q36 34 62 224l45 -4l-11 -148q-3 -42 43 -69q38 -22 32 -49q-15 -72 -261 -72h-232q-127 0 -172 12q-52 13 -78 53q-20 30 -20 59v548q0 117 -8 160l106 -22q86 -18 89 -46q2 -26 -47 -41l-44 -14v-218h317zM614 1946l113 -25q79 -18 82 -42q3 -30 -49 -44l-44 -11v-226h170
l98 106l121 -106q20 -17 14 -35t-24 -18h-379v-279q211 51 386 110l15 -46q-144 -67 -420 -151q-263 -81 -446 -120q-4 -64 -29 -70q-29 -7 -64 76l-35 80q106 15 192 30v452q0 118 -7 159l109 -24q82 -18 85 -43q4 -30 -49 -44l-42 -11v-470q109 22 211 45v547
q0 120 -8 160z" />
  </g>

</svg>
