<?xml version="1.0" standalone="no"?>
<!DOCTYPE svg PUBLIC "-//W3C//DTD SVG 1.1//EN" "http://www.w3.org/Graphics/SVG/1.1/DTD/svg11.dtd" >
<svg xmlns="http://www.w3.org/2000/svg" xmlns:xlink="http://www.w3.org/1999/xlink" version="1.1" viewBox="0 -205 1024 1024">
  <g transform="matrix(1 0 0 -1 0 819)">
   <path fill="currentColor"
d="M235 469l35 -34h464l35 41l52 -49q7 -6 5 -10q-1 -5 -11 -7l-18 -9v-206l4 -111q1 -23 -11 -32t-39 -12v68h-467v-39q0 -21 -14 -31q-13 -9 -39 -15q4 39 7 150v242q-6 24 -18 42zM284 265v-137h467v137h-467zM751 415h-467v-134h467v134zM697 808l8 11l47 -22q9 9 30 28
q48 44 81 78h-271q-19 -3 -33 -15l-34 35h337l33 30l50 -54q3 -12 -10 -10q-25 -3 -46 -18q-12 -9 -38 -26q-49 -35 -78 -57l16 -7q10 -5 11 -8q2 -3 -4 -6q-18 -6 -31 -16v-38h143l32 40l68 -50q7 -5 6 -8q-1 -2 -12 -2h-237v-137q-1 -35 -16 -53t-82 -34q-3 30 -26 40
q-25 11 -88 26l4 18l42 -10q67 -13 95 -6q27 9 29 52v104h-190q-27 0 -45 -13l-34 33h269v49q-2 22 -26 46zM255 805l8 11l39 -18q6 5 19 17q54 47 93 87h-271q-20 -4 -34 -15l-34 35h338l33 30l49 -54q3 -12 -10 -10q-25 -3 -45 -18q-12 -9 -39 -27q-49 -33 -77 -55l23 -10
q10 -5 11 -8q2 -3 -4 -6q-18 -6 -31 -16v-20l178 41l5 -11l-183 -53v-147q-1 -35 -16 -53t-82 -34q-3 32 -26 41q-24 9 -82 23l4 18l37 -8q66 -13 94 -6q27 9 29 52v102q-90 -24 -145 -45q-47 -19 -53 -42l-49 56l247 56v41q-2 22 -26 46z" />
  </g>

</svg>
