<?xml version="1.0" standalone="no"?>
<!DOCTYPE svg PUBLIC "-//W3C//DTD SVG 1.1//EN" "http://www.w3.org/Graphics/SVG/1.1/DTD/svg11.dtd" >
<svg xmlns="http://www.w3.org/2000/svg" xmlns:xlink="http://www.w3.org/1999/xlink" version="1.1" viewBox="0 0 2048 2048">
  <g transform="matrix(1 0 0 -1 0 2048)">
   <path fill="currentColor"
d="M1697 1323h75l78 93l123 -97q20 -15 12.5 -33.5t-32.5 -18.5h-302q-119 -136 -220 -214h265l74 65l67 -68q54 -54 49 -73q-4 -17 -26 -19q-9 -1 -23 0l-47 5q-153 -110 -246 -161q77 -25 80 -48q3 -19 -40 -33l-48 -16v-106h219l98 101l121 -107q20 -18 16 -33
q-6 -19 -26 -19h-428v-332q0 -81 -42 -115q-30 -24 -116 -47q0 55 -43 84q-31 20 -160 43l8 46q135 -22 190 -27q68 -5 68 57v291h-169q-119 0 -192 -8l-39 88q95 -22 231 -22h169v68q-5 145 -7 160l51 -13h10q111 93 190 184l-331 -1q-23 -14 -91 -54q-50 -30 -178 -96
l-20 36q144 86 275 193q66 54 192 190l-284 1q-107 0 -188 -10l-39 86q111 -20 227 -20h164v297l-58 2q-58 2 -162 -12l-39 86q100 -16 198 -18l61 -1v97q0 118 -8 160l109 -24q82 -18 85 -43q4 -31 -49 -44l-44 -11v-135h108l74 80l95 -89q15 40 40 110l108 -46
q54 -24 54 -45q0 -25 -50 -31l-33 -4q-29 -51 -43 -76q-88 -157 -161 -253zM1578 1323q76 101 106 155q62 111 80 142h-259v-297h73zM825 937l78 89l121 -99q5 -4 7 -10q12 -34 -31 -34h-550l-46 -162h453l61 73l72 -50q37 -25 42 -43q5 -25 -63 -56q-19 -269 -74 -403
q-59 -145 -231 -181q-12 56 -38 74q-21 15 -110 40l6 36q65 -6 120 -13q31 -4 65 -4q98 0 133 193q24 129 32 277h-494q-9 -2 -14 -3q-22 -4 -35 -6q-28 -3 -30 19q0 9 3 23l110 410q-77 -2 -113 -10l-35 62v-137q0 -330 -37 -539q-38 -212 -145 -404l-29 17q81 232 101 463
q16 190 16 643v401q0 7 -4 118q-1 25 -2 73l106 -72h330q-12 14 -32 88q-21 76 -84 147l28 21q100 -70 138 -122q36 -49 24 -98q-4 -20 -27 -36h219l78 96l122 -96q13 -11 16 -23q6 -31 -22 -31h-304v-196h110l59 71l71 -49q37 -26 42 -44q5 -23 -67 -57v-194l44 -29
q22 -15 28 -21q8 -11 3.5 -27t-14.5 -16l-518 1l-49 -171zM664 1472v196h-119v-196h119zM454 1472v196h-190v-188q51 -9 190 -8zM264 1472v-298q53 -11 190 -11v253q-117 1 -159 -11zM545 1416v-253h119v253h-119zM879 1163v253h-123v-253h123zM644 598l20 19
q129 -109 139 -187q8 -59 -40 -61q-32 -2 -37 39q-12 97 -82 190zM388 581l26 14q111 -149 99 -237q-6 -53 -51 -49q-36 3 -35 65q2 99 -39 207zM318 599h33q-6 -171 -14 -217q-22 -115 -91 -111q-45 3 -39 47q2 24 40 61q45 45 56 98q7 30 15 122zM505 590l24 18
q138 -121 145 -208q6 -71 -49 -67q-35 3 -41 62q-8 89 -79 195z" />
  </g>

</svg>
