<?xml version="1.0" standalone="no"?>
<!DOCTYPE svg PUBLIC "-//W3C//DTD SVG 1.1//EN" "http://www.w3.org/Graphics/SVG/1.1/DTD/svg11.dtd" >
<svg xmlns="http://www.w3.org/2000/svg" xmlns:xlink="http://www.w3.org/1999/xlink" version="1.1" viewBox="0 0 2048 2048">
  <g transform="matrix(1 0 0 -1 0 2048)">
   <path fill="currentColor"
d="M894 1236q-94 -91 -173 -155q-59 -47 -222 -153q424 11 798 30l72 4l72 3q-59 51 -226 167l15 26q251 -101 370 -201q72 -60 59 -117q-5 -26 -26 -38q-23 -13 -45 -4q-19 8 -62 69q-16 22 -44 55q-307 -39 -942 -96l-4 -26q-7 -46 -31 -49q-20 -4 -40 41l-62 127
q128 64 348 317h-303q-68 0 -149 -11l-39 86q124 -18 188 -18h581q-17 16 -23 43q-21 102 -107 197l21 21q88 -60 126 -97q65 -63 58 -121q-4 -26 -29 -43h449l98 102l121 -107q20 -18 16 -34q-6 -18 -26 -18h-839zM942 1962q99 -56 137 -87q65 -55 68 -110q2 -40 -25 -69
h676l60 69l91 -74q35 -29 33 -46q-2 -19 -37 -26l-50 -10q-55 -74 -185 -185l-24 20q70 98 112 197h-1482q-12 -106 -43 -167q-46 -90 -113 -96q-32 -3 -50 19q-15 18 -9 43q7 29 51 61q60 44 91 110q28 59 32 175h35q4 -46 6 -90l746 1q-13 18 -25 65q-20 75 -119 175z
M981 557v100q0 115 -8 160l107 -24q84 -19 87 -44q4 -24 -50 -43l-37 -14v-135h619l98 101l121 -107q20 -18 16 -33q-6 -19 -26 -19h-828v-197q0 -76 7 -140q5 -42 4 -68q-2 -39 -57 -42q-53 -2 -53 33v414h-683q-63 0 -149 -10l-39 86q125 -18 188 -18h683z" />
  </g>

</svg>
