<?xml version="1.0" standalone="no"?>
<!DOCTYPE svg PUBLIC "-//W3C//DTD SVG 1.1//EN" "http://www.w3.org/Graphics/SVG/1.1/DTD/svg11.dtd" >
<svg xmlns="http://www.w3.org/2000/svg" xmlns:xlink="http://www.w3.org/1999/xlink" version="1.1" viewBox="0 0 2048 2048">
  <g transform="matrix(1 0 0 -1 0 2048)">
   <path fill="currentColor"
d="M1089 511v-294q0 -142 -155 -171q-12 76 -61 98q-39 17 -153 38l7 46q149 -23 198 -26q69 -6 69 56v253h-722q-66 0 -149 -11l-39 86q119 -17 188 -17h114v389l122 -63h1040l61 72l72 -49q37 -26 42 -44q5 -20 -25 -38q-6 -3 -13 -6q-9 -5 -27 -14v-247h57l98 101
l121 -106q20 -18 15 -34q-5 -19 -25 -19h-835zM1267 569h296v268h-296v-268zM1172 569v268h-300v-268h300zM775 569v268h-291v-268h291zM867 1949q195 -91 205 -174q4 -36 -28 -61h725l59 66l88 -69q35 -28 37 -45q1 -21 -37 -29l-50 -9q-72 -88 -147 -167l-25 17
q49 91 84 180h-1484q-14 -112 -38 -161q-34 -69 -98 -72q-27 -1 -43 19q-13 17 -8 38q5 17 53 61q92 83 95 251h39v-80h690q-16 25 -26 58q-23 81 -110 153zM1264 1245q326 -113 352 -191q22 -65 -41 -65q-34 0 -106 54q-75 56 -303 155q-409 -160 -956 -187l-2 43
q237 29 433 69q172 34 423 119q-68 27 -232 81l-163 54q-133 38 -188 56l-80 -4l-42 88q20 -5 78 -12q99 -12 108 -12l924 -2l79 68l95 -73q42 -33 27 -57q-7 -12 -95 -27q-159 -88 -311 -157zM609 1436q106 -28 160 -41q142 -36 246 -66q84 -24 147 -41q29 14 44 21
q156 72 252 127h-849z" />
  </g>

</svg>
