<?xml version="1.0" standalone="no"?>
<!DOCTYPE svg PUBLIC "-//W3C//DTD SVG 1.1//EN" "http://www.w3.org/Graphics/SVG/1.1/DTD/svg11.dtd" >
<svg xmlns="http://www.w3.org/2000/svg" xmlns:xlink="http://www.w3.org/1999/xlink" version="1.1" viewBox="0 -205 1024 1024">
  <g transform="matrix(1 0 0 -1 0 819)">
   <path fill="currentColor"
d="M559 686l66 -37q9 -5 -3 -14q-14 1 -32 -13q-61 -79 -128 -147h65l32 40l64 -50q8 -5 7 -8q-2 -2 -13 -2h-176q-50 -49 -104 -90q-30 -23 -61 -44v-86q48 17 97 33q63 22 109 41t38 41l12 6l47 -50q8 -8 7 -13q-1 -4 -11 -5q-16 2 -33 0q-174 -58 -266 -76v-57
q0 -64 14 -74q15 -11 280 -11h289q9 1 25 1q54 -4 58 30q3 18 5 38q2 17 -1 105h20q5 -81 9 -108q5 -30 25 -41q-26 -50 -61 -57q-15 -5 -52 -5h-313q-275 -2 -298 6q-48 8 -44 98v157q-94 -54 -200 -88l-7 16q116 52 207 115v7q2 24 -12 52l14 10l34 -43l24 18q3 3 5 4
q47 36 84 70h-261q-27 1 -45 -13l-34 33h264v154h-107q-27 1 -45 -13l-34 29h186v101q2 17 -25 42l8 11l82 -34q14 -5 6 -11q-16 -4 -27 -18v-91h80l22 34l60 -40q8 -5 7 -8q-2 -2 -13 -2h-156v-154h54q44 40 76 77q67 77 74 96q8 20 -2 29zM696 775l66 -26q13 -3 14 -7
q2 -5 -8 -11q-10 -4 -20 -14q2 -147 -21 -260q88 -75 122 -125q45 -66 53 -120q6 -61 -27 -61q-17 3 -23 45t-36 105q-26 56 -94 131q-9 -45 -23 -84q-51 -145 -225 -236l-11 14q151 103 196 241q45 139 45 362q0 20 -16 34zM967 844q9 -11 -5 -17q-5 -1 -12 -2
q-10 19 -90 -95l-17 8l42 92h-727q-1 -28 -6 -48q-18 -73 -65 -77q-19 0 -27 17t19 34q29 18 39 39q12 23 22 93h17q1 -21 1 -38h724l27 37zM428 977l6 13q100 -25 121 -70q15 -44 -21 -50q-16 0 -21 21t-25 42q-19 21 -60 44z" />
  </g>

</svg>
