<?xml version="1.0" standalone="no"?>
<!DOCTYPE svg PUBLIC "-//W3C//DTD SVG 1.1//EN" "http://www.w3.org/Graphics/SVG/1.1/DTD/svg11.dtd" >
<svg xmlns="http://www.w3.org/2000/svg" xmlns:xlink="http://www.w3.org/1999/xlink" version="1.1" viewBox="0 -205 1024 1024">
  <g transform="matrix(1 0 0 -1 0 819)">
   <path fill="currentColor"
d="M229 494l12 -6h501l25 23l54 -27q7 -6 5 -10q-1 -5 -11 -7l-18 -9v-122l3 -67q-2 -29 -45 -31v26h-217v-85h233l28 37l68 -45q8 -5 7 -8q-2 -2 -13 -2h-323v-98h339l22 34l74 -42q8 -4 7 -7q-2 -2 -13 -3h-837q-27 1 -45 -13l-34 31h443v98h-250q-25 1 -45 -11l-34 29
h329v85h-230v-17q-5 -16 -51 -26q5 31 7 92v158q0 14 -5 19zM345 823l55 -17q18 -8 8 -16q-16 1 -31 -16q-3 -3 -9 -10q-4 -5 -17 -19h319l29 32l55 -37q11 -9 -9 -16q-16 -1 -30 -12q-68 -61 -148 -106q72 -21 155 -37q100 -19 149 -19q50 2 106 0v-19q-60 4 -79 -28
q-186 16 -365 77q-1 1 -5 2q-3 1 -5 1q-92 -43 -202 -69q-118 -27 -274 -41l-2 18q154 22 262 50q91 24 169 62q-76 35 -168 97q-84 -81 -166 -112l-6 12q102 70 177 155q26 32 29 39q4 8 -5 20zM950 848q9 -11 -5 -17q-25 -1 -36 -13q-11 -9 -58 -72l-17 8l34 80h-728
q-2 -18 -5 -32q-18 -73 -65 -77q-19 0 -27 17t19 34q29 18 39 39q12 23 22 93h17v-3q2 -27 1 -51h724l27 37zM494 370h-230v-90h230v90zM324 716q119 -64 193 -92q86 47 152 105h-332q-6 -7 -13 -13zM494 472h-230v-88h230v88zM755 370h-217v-90h217v90zM538 384h217v88
h-217v-88zM405 977l6 13q100 -25 121 -70q15 -44 -21 -50q-16 0 -21 21t-25 42q-19 21 -60 44z" />
  </g>

</svg>
