<?xml version="1.0" standalone="no"?>
<!DOCTYPE svg PUBLIC "-//W3C//DTD SVG 1.1//EN" "http://www.w3.org/Graphics/SVG/1.1/DTD/svg11.dtd" >
<svg xmlns="http://www.w3.org/2000/svg" xmlns:xlink="http://www.w3.org/1999/xlink" version="1.1" viewBox="0 -205 1024 1024">
  <g transform="matrix(1 0 0 -1 0 819)">
   <path fill="currentColor"
d="M478 394l30 -30h265l25 29l42 -37q8 -5 7 -9q-2 -4 -13 -8l-14 -5v-231l4 -34q5 -27 -42 -32v52h-267v-17q2 -39 -45 -48q5 47 7 113v219q-3 12 -14 28zM432 670l30 -30h359l25 29l44 -33q7 -6 5 -10q-1 -5 -11 -7l-18 -9v-50l4 -38q7 -36 -40 -40v26h-363q-1 -10 -9 -14
q-10 -6 -32 -11q5 35 7 67v86q-5 24 -16 24zM278 845l81 -36q14 -5 6 -11q-21 -7 -30 -21v-618l2 -95q3 -39 -45 -46q5 39 7 187v173h-99q4 -137 -31 -217q-37 -82 -111 -138l-10 12q60 64 90 141q29 75 24 202h-32q-27 1 -45 -13l-34 31h248v149h-118l-29 -34l-40 36
q18 12 20 32v125q3 22 -17 37l7 11l65 -22q16 -9 7 -16q-14 -4 -26 -14v-137h131v224q2 16 -30 46zM967 876q9 -10 -5 -15q-25 5 -88 -79l-13 8l32 76h-757q-1 -18 -4 -33q-8 -43 -34 -63q-30 -20 -44 5q-6 14 13 28q20 15 33 38q14 24 22 79h15q2 -19 0 -36h755l19 29z
M363 750h174v41q2 16 -30 46l9 12l79 -36q14 -5 6 -11q-21 -7 -30 -21v-31h156v41q2 17 -30 42l9 12l79 -32q14 -5 6 -11q-21 -7 -30 -21v-31h101l23 32l52 -36q8 -5 7 -8q-2 -2 -13 -2h-170l2 -35q2 -31 -43 -40q5 33 7 74v1h-156l2 -35q4 -38 -43 -44q5 36 7 79h-95
q-27 1 -45 -13zM515 274h267v76h-267v-76zM782 262h-267v-75h267v75zM782 175h-267v-72h267v72zM429 464q2 -13 3 -24h448l23 34l47 -38q6 -14 -14 -14l-18 -8q-26 -22 -50 -50l-13 8l28 54h-450q0 -10 -1 -18q-7 -52 -37 -67q-18 -9 -27 5t8 26q17 14 27 33q11 20 12 62z
M569 626h-100v-104h100v104zM733 522h97v104h-97v-104zM699 626h-96v-104h96v104zM433 991l6 13q91 -22 106 -60q16 -41 -16 -48q-14 0 -20 20t-20 35q-13 15 -56 40z" />
  </g>

</svg>
