<?xml version="1.0" standalone="no"?>
<!DOCTYPE svg PUBLIC "-//W3C//DTD SVG 1.1//EN" "http://www.w3.org/Graphics/SVG/1.1/DTD/svg11.dtd" >
<svg xmlns="http://www.w3.org/2000/svg" xmlns:xlink="http://www.w3.org/1999/xlink" version="1.1" viewBox="0 0 2048 2048">
  <g transform="matrix(1 0 0 -1 0 2048)">
   <path fill="currentColor"
d="M1340 1461q-37 -53 -82 -101h388l61 72l72 -50q37 -25 42 -43q5 -20 -25 -38q-7 -3 -13 -6l-27 -15l-1 -267q0 -53 8 -120q2 -17 2 -28q0 -41 -57 -49q-50 -7 -50 24v27h-684v-27q0 -26 -44 -30q-65 -5 -60 51q9 109 9 146v415l118 -62h194q25 53 40 101h-372
q-69 0 -149 -11l-39 86q120 -18 188 -18h871l81 81l113 -86q21 -16 16 -34q-6 -18 -26 -18h-574zM974 925h684v86h-684v-86zM1658 1164h-684v-96h684v96zM974 1220h684v80h-684v-80zM1452 1746l18 19q86 86 141 203l98 -66q31 -21 22 -39q-7 -12 -40 -11l-36 1
q-106 -81 -154 -107q204 -78 208 -152q2 -21 -11 -37.5t-31 -16.5t-46 43q-25 39 -63 73q-9 8 -37 32q-23 19 -69 58zM806 1746l19 19q85 86 141 203l98 -66q31 -21 21 -39q-6 -12 -39 -11l-37 1q-105 -81 -153 -107q203 -79 208 -152q1 -21 -12 -37.5t-31 -16.5t-45 43
q-26 39 -63 73q-9 8 -37 32q-24 19 -70 58zM1172 1746q103 103 159 222l98 -66q31 -21 22 -39q-7 -12 -40 -11l-36 1q-106 -81 -154 -107q204 -78 208 -152q2 -21 -11 -37.5t-31 -16.5t-46 43q-25 39 -63 73q-9 8 -37 32q-23 19 -69 58zM269 1927q181 -98 191 -175
q8 -64 -49 -64q-27 0 -38 18q-5 9 -16 42q-23 75 -109 147zM1453 625l108 -24q65 -15 62 -42q-3 -17 -36 -31l-34 -15v-25h205l81 81l114 -86q21 -16 15 -34t-26 -18l-389 -1v-220q0 -142 -155 -170q-7 66 -47 93q-32 20 -159 43l8 46q137 -22 190 -27q66 -5 66 57v178
h-1177q-67 0 -149 -11l-39 90q141 -21 194 -21h1171v43q0 12 -2 59q-1 12 -1 35zM578 386q139 -61 187 -98q57 -44 61 -88q4 -51 -39 -59q-35 -6 -62 49q-41 81 -163 169zM460 879q117 -71 201 -95q163 -47 573 -47q324 0 734 29v-38q-53 -14 -70 -29q-19 -16 -32 -64h-60
q-589 0 -842 15q-215 13 -344 62q-88 33 -176 99q-32 24 -49 26q-32 3 -190 -103q-7 -58 -26 -64q-22 -7 -53 42l-47 73q283 116 337 119q99 142 141 284h-186q-13 -9 -38 -9q-38 1 -47 24q-6 13 9 42l137 254h-143q-69 0 -149 -10l-39 86q120 -19 188 -19h133l62 73l73 -50
q35 -23 40 -43t-25 -38q-6 -3 -13 -6q-9 -5 -26 -15l-135 -232h154l60 71l73 -49q36 -25 41 -44q5 -20 -25 -37q-6 -4 -13 -7q-9 -4 -27 -14q-92 -173 -201 -286z" />
  </g>

</svg>
