<?xml version="1.0" standalone="no"?>
<!DOCTYPE svg PUBLIC "-//W3C//DTD SVG 1.1//EN" "http://www.w3.org/Graphics/SVG/1.1/DTD/svg11.dtd" >
<svg xmlns="http://www.w3.org/2000/svg" xmlns:xlink="http://www.w3.org/1999/xlink" version="1.1" viewBox="0 -200 1000 1000">
  <g transform="matrix(1 0 0 -1 0 800)">
   <path fill="currentColor"
d="M227 463h159v73h-159v-73zM227 363h159v75h-159v-75zM227 271h159v68h-159v-68zM500 67q-5 -20 -13.5 -29t-16.5 -9q-15 0 -23 18.5t-19.5 47t-31.5 61.5t-59 63v2q82 -36 121.5 -77t41.5 -77zM280 168l-31 -19q-14 -12 -39 -31t-56 -40t-66.5 -41t-70.5 -33l-5 5
q28 19 59.5 45t60.5 55t53 59.5t38 59.5zM386 678l72 -33l-18 -55v-29h-12l54 45l67 -70h-109v-265h16l51 45l70 -71h-444l-46 -10l-24 36h110v265h-24l-47 -11l-24 35h95v118l75 -32l-21 -58v-28h159v118zM749 664l-40 -39l-38 -101h167l50 36q7 -15 19 -30t23 -27.5
t19.5 -22.5t8.5 -16q0 -2 -2 -4q-11 -8 -28 -12t-36.5 -11.5t-40 -22.5t-37.5 -44l-4 -1v1q0 4 8.5 18.5t19 31.5t19 32.5t8.5 23.5q0 13 -15 21h-187q-8 -15 -19 -35.5t-24 -42.5t-28 -43t-30 -35l-9 -1q21 37 39.5 85.5t33.5 101t26 103.5t18 93zM483 17q58 32 98 66
t65.5 80.5t38.5 110.5t18 156v10v11t-1 12l82 -24l-17 -57q0 -10 2 -34t9 -55.5t21.5 -66.5t40 -66.5t63.5 -56.5t92 -36l-15 -4q-21 0 -53 -7.5t-54 -23.5q-29 25 -51 48.5t-37 55t-24 75.5t-12 109q-6 -67 -22.5 -118t-47 -88t-76.5 -62t-112 -40zM51 676q40 24 82 56
t80.5 66.5t70.5 68t53 61.5l61 -60l-51 -22q-72 -54 -145 -100t-145 -70h-6zM601 964l-22 -64v-164q-2 -11 -9 -24.5t-19 -26t-29.5 -22t-39.5 -12.5q-2 13 -6.5 24t-15 21.5t-29.5 22t-49 24.5l-2 6q29 -8 60.5 -15.5t48.5 -7.5q22 0 27 10t5 19v243zM677 899
q136 -41 198 -72t64 -67v-2q0 -17 -9.5 -28t-23.5 -11q-6 0 -12 1.5t-11 7.5q-32 52 -81.5 92.5t-124.5 78.5z" />
  </g>

</svg>
