<?xml version="1.0" standalone="no"?>
<!DOCTYPE svg PUBLIC "-//W3C//DTD SVG 1.1//EN" "http://www.w3.org/Graphics/SVG/1.1/DTD/svg11.dtd" >
<svg xmlns="http://www.w3.org/2000/svg" xmlns:xlink="http://www.w3.org/1999/xlink" version="1.1" viewBox="0 -205 1024 1024">
  <g transform="matrix(1 0 0 -1 0 819)">
   <path fill="currentColor"
d="M66 37l-35 66l66 7v244q3 22 -17 43l11 9l33 -26h343l35 35l37 -43q8 -7 7 -11q-1 -5 -10 -7l-16 -9v-194l66 6l-1 -17q-414 -55 -469 -70q-30 -9 -50 -33zM64 952l10 7l42 -32h171l23 32l56 -42q7 -5 5 -8q-1 -2 -11 -2h-127v-127h39l27 28l34 -35q7 -4 5 -8
q-2 -3 -14 -6l-3 -9v-52l4 -78q-3 -15 -15 -24q-10 -6 -26 -7v34h-49v-131h62l21 31l49 -35q11 -9 11 -13t-11 -3h-236l-26 -29l-43 32q22 17 27 31v406q-9 22 -25 40zM728 993l89 -36q14 -5 6 -11q-21 -9 -30 -21v-465l3 -71q0 -23 -14 -32q-15 -10 -40 -15q4 40 7 160v433
q2 16 -30 46zM478 25l-5 15q351 152 421 412q-3 18 -6 29l9 6l91 -53v-5q2 -8 -4 -9q-14 3 -34 -10q-3 -1 -4 -2q-136 -292 -468 -383zM137 360v-246l90 9v237h-90zM263 360v-234l89 10v224h-89zM480 360h-91v-220l91 9v211zM284 765h-157v-125h157v125zM359 603l-11 7
q50 139 65 272q7 57 5 81q-2 3 -7 12q-5 8 -8 12l7 6l76 -25q3 -5 2 -7t-6 -3q-18 0 -23 -26q-11 -77 -26 -140h85l25 37l58 -47q8 -5 7 -8q-1 -2 -10 -3h-168q-3 -4 -5 -14q-1 -3 -2 -5q-18 -70 -64 -149zM646 755l73 -27q17 -11 8 -14q-19 -4 -31 -16q-36 -144 -109 -263
l-17 7q49 120 67 196q12 54 11 80q-3 18 -11 29zM837 739l6 12q102 -70 137 -143q19 -37 13 -60t-25 -20q-25 6 -30 42q-18 80 -101 169zM127 623v-131h71v131h-71zM127 907v-127h68v127h-68zM438 714l9 7q95 -80 108 -119q10 -22 5 -41q-6 -19 -18 -18q-17 0 -24 26
q-11 59 -80 145zM383 607l10 6q66 -71 85 -124q8 -22 1 -41q-6 -17 -20 -16q-18 2 -21 27q-2 59 -55 148z" />
  </g>

</svg>
