<?xml version="1.0" standalone="no"?>
<!DOCTYPE svg PUBLIC "-//W3C//DTD SVG 1.1//EN" "http://www.w3.org/Graphics/SVG/1.1/DTD/svg11.dtd" >
<svg xmlns="http://www.w3.org/2000/svg" xmlns:xlink="http://www.w3.org/1999/xlink" version="1.1" viewBox="0 -205 1024 1024">
  <g transform="matrix(1 0 0 -1 0 819)">
   <path fill="currentColor"
d="M794 991l61 -46q9 -7 9 -11t-9 -5q-34 6 -123 -10q-16 -3 -47 -8q-10 -1 -14 -2v-91h152l32 40l68 -46q8 -5 7 -8q-2 -2 -13 -2h-246v-85h114l31 31l50 -35q7 -6 5 -10q-1 -5 -11 -7l-18 -9v-92l3 -131q0 -33 -41 -33v32h-133v-107h122l24 32l64 -38q8 -5 7 -8
q-2 -2 -13 -2h-204v-112h182l24 32l60 -38q8 -5 7 -8q-2 -2 -13 -2h-485q-27 2 -45 -12l-34 28h262v112h-117q-27 1 -45 -13l-34 29h196v107h-130q-1 -27 -12 -35q-10 -9 -33 -14q5 38 7 168v120q2 17 -19 33l12 16l34 -34h141v85h-159q-27 1 -45 -13l-34 29h238v86
q-112 -15 -197 -13v14l112 16q158 22 195 32t43 14t7 22zM17 886h320l26 34l62 -44q8 -5 7 -8q-2 -2 -13 -2h-97v-672q0 -56 17 -68q17 -13 77 -17q60 -5 300 -6q137 1 180 7q48 8 52 46q8 44 12 153h15q3 -106 3 -135q0 -27 32 -42q-19 -30 -34 -40q-14 -10 -43 -17
t-205 -8q-298 0 -362 9q-95 12 -86 116v674h-117v-285q5 -202 -26 -319q-31 -114 -117 -226l-8 12q62 109 87 221q26 114 23 292v305h-34q-19 1 -37 -13zM804 585h-133v-106h133v106zM629 585h-130v-106h130v106zM671 599h133v102h-133v-102zM629 701h-130v-102h130v102z
" />
  </g>

</svg>
