<?xml version="1.0" standalone="no"?>
<!DOCTYPE svg PUBLIC "-//W3C//DTD SVG 1.1//EN" "http://www.w3.org/Graphics/SVG/1.1/DTD/svg11.dtd" >
<svg xmlns="http://www.w3.org/2000/svg" xmlns:xlink="http://www.w3.org/1999/xlink" version="1.1" viewBox="0 -205 1024 1024">
  <g transform="matrix(1 0 0 -1 0 819)">
   <path fill="currentColor"
d="M781 992l67 -34q17 -10 7 -15q-25 -4 -33 -14q-16 -21 -45 -58q-27 -34 -38 -49h122l32 40l60 -46q8 -5 7 -8q-2 -2 -13 -2h-198v-95h75l27 33l41 -37q7 -3 6 -7q-1 -3 -10 -7l-10 -8v-89h33l26 34l62 -40q8 -5 7 -8q-2 -2 -13 -2h-115v-35l6 -103q0 -30 -44 -31v46h-91
v-38q69 -33 105 -61q46 -33 63 -76q16 -53 -15 -54q-16 3 -22 26t-35 62q-25 35 -96 84v-143l2 -90q-1 -41 -45 -52q5 45 7 189v153h-94v-204l2 -96q1 -44 -45 -52q5 45 7 195v157h-17q-13 -77 -31 -122q-46 -111 -153 -177l-6 12q56 53 79 89t44 87q19 48 28 111h-17
q-7 1 -25 -13l-34 27h132v109h-125q-27 1 -45 -13l-34 29h204v101h-58q-18 2 -38 -14l-35 28h131v95h-83q-27 1 -45 -13l-34 29h295l28 47q41 74 40 87q-1 15 -11 29zM366 642q4 -3 3 -5q0 -2 -4 -4q-17 -2 -35 -17v-442q0 -56 17 -68q17 -13 60 -17q44 -5 309 -6
q132 1 176 7q48 7 52 48q8 38 12 151h15q3 -109 3 -139q0 -31 32 -38q-19 -30 -34 -39q-14 -9 -43 -16t-205 -8q-282 0 -346 9q-97 10 -88 114v453q-3 23 -30 46l8 10zM127 682l85 -32q4 -2 4 -4t-4 -4q-16 -1 -31 -12v-79q5 -204 -24 -320q-28 -112 -125 -209l-8 10
q78 112 99 217q21 108 18 286v106q-3 14 -20 33zM144 931l66 -30q17 -10 7 -15q-18 -3 -32 -12q-67 -159 -154 -247l-10 9q77 115 102 182q25 68 22 78q-2 12 -10 27zM713 580h-94v-109h94v109zM840 580h-91v-109h91v109zM713 697h-94v-101h94v101zM250 921l8 12
q72 -46 106 -81t53 -74q30 -75 -10 -86q-15 3 -23 46q-8 44 -41 87q-33 44 -93 96zM749 596h91v101h-91v-101zM713 806h-94v-95h94v95zM496 975l10 12q92 -52 106 -95q17 -52 -18 -59q-16 0 -19 28t-18 53t-61 61z" />
  </g>

</svg>
