<?xml version="1.0" standalone="no"?>
<!DOCTYPE svg PUBLIC "-//W3C//DTD SVG 1.1//EN" "http://www.w3.org/Graphics/SVG/1.1/DTD/svg11.dtd" >
<svg xmlns="http://www.w3.org/2000/svg" xmlns:xlink="http://www.w3.org/1999/xlink" version="1.1" viewBox="0 0 2048 2048">
  <g transform="matrix(1 0 0 -1 0 2048)">
   <path fill="currentColor"
d="M91 43l-31 29q127 204 171 476q40 254 40 656v486l-2 68q-2 83 -6 126l112 -73h1281l68 76l83 -54q40 -26 40 -49q0 -27 -77 -61v-203l50 -35q12 -9 12 -23q0 -22 -34 -22h-1431v-259q-3 -254 -17 -414q-27 -309 -112 -497q-49 -109 -147 -227zM367 1754v-257h1307v257
h-1307zM504 1167l-39 86q116 -19 188 -19h935l97 101l122 -107q20 -18 15 -32q-6 -19 -26 -19h-462v-249h225l68 77l83 -55q41 -26 41 -48q0 -26 -77 -62l-4 -270l50 -39q11 -8 10 -24q-1 -21 -20 -21h-376v-250h351l98 102l121 -107q20 -18 16 -33q-6 -18 -26 -18h-1359
q-75 0 -149 -11l-39 86q123 -19 188 -19h358v250h-233v-12q0 -10 -41 -19q-40 -8 -50 15q-3 6 -3 61v461l120 -64h207v249h-240q-70 0 -149 -10zM990 236h248v372l122 -64h216v329h-250q-30 -12 -53 -10q-38 3 -37 16l2 20v278h-251v-230q48 -25 56 -45q11 -29 -27 -29h-356
v-329h215l68 77l84 -55q40 -26 40 -48q0 -26 -77 -62v-220z" />
  </g>

</svg>
