<?xml version="1.0" standalone="no"?>
<!DOCTYPE svg PUBLIC "-//W3C//DTD SVG 1.1//EN" "http://www.w3.org/Graphics/SVG/1.1/DTD/svg11.dtd" >
<svg xmlns="http://www.w3.org/2000/svg" xmlns:xlink="http://www.w3.org/1999/xlink" version="1.1" viewBox="0 0 2048 2048">
  <g transform="matrix(1 0 0 -1 0 2048)">
   <path fill="currentColor"
d="M1716 947h-381q-33 -206 -88 -320q-54 -110 -153 -230l-30 27q91 132 136 307q46 180 46 477v467q0 102 -11 191l124 -72h339l68 76l84 -54q40 -26 40 -49q0 -27 -78 -61v-1156q-1 -83 -52 -122q-32 -23 -103 -46q-12 73 -53 94q-21 11 -153 42l8 46q134 -23 190 -27
q67 -6 67 53v357zM1339 1002h377v348l-374 -1v-151l2 -82q-5 -79 -5 -114zM1342 1406l374 -2v331h-374v-329zM706 1141l1 -229l121 21l67 103l129 -77q19 -10 21 -26q3 -24 -25 -29l-313 -57v-237l197 36l60 102l130 -86q8 -5 9 -20q2 -23 -23 -28l-373 -69v-225
q0 -56 32 -71q24 -10 135 -13h804q116 0 141 36q16 22 24 81l24 175l36 -5v-135q0 -73 20 -101q5 -7 43 -36q17 -13 17 -29q0 -40 -77 -58q-72 -18 -187 -18h-859q-128 0 -175 17q-73 25 -73 111v254l-168 -26l-84 -21l-52 68l124 18l180 28v241l-137 -21l-89 -21l-49 66
l114 16l161 21v212q-147 -36 -268 -53l-7 38q198 57 309 110q130 63 232 148l99 -83q17 -15 15 -30q-3 -23 -30 -20l-65 7q-69 -33 -191 -85zM897 1829l68 76l84 -54q40 -26 40 -49q0 -27 -78 -61v-257l50 -35q13 -9 12 -24q-1 -21 -24 -21h-738v-254l-2 -80
q-6 -320 -45 -553q-40 -236 -164 -426l-35 10q86 202 116 435q34 255 34 629v560q0 58 -8 176l112 -72h578zM311 1775v-314h603v314h-603z" />
  </g>

</svg>
