<?xml version="1.0" standalone="no"?>
<!DOCTYPE svg PUBLIC "-//W3C//DTD SVG 1.1//EN" "http://www.w3.org/Graphics/SVG/1.1/DTD/svg11.dtd" >
<svg xmlns="http://www.w3.org/2000/svg" xmlns:xlink="http://www.w3.org/1999/xlink" version="1.1" viewBox="0 -200 1000 1000">
  <g transform="matrix(1 0 0 -1 0 800)">
   <path fill="currentColor"
d="M775 888v-137h77v137h-77zM489 677v264l55 -31h296l31 39l50 -46l-23 -31v-170l-46 -17v42h-316v-29q-10 -11 -22 -15t-25 -6zM544 888l-8 -35v-102h76v137h-68zM659 888v-137h71v137h-71zM663 552q-1 16 -31 69l8 4q25 -23 40.5 -38t24.5 -26.5t12 -20t3 -18.5v-7.5
t-1 -8.5q-5 -13 -12.5 -22t-11.5 -10q-1 -1 -5 -1q-9 0 -11.5 12.5t-10.5 46.5q-55 -8 -96.5 -17t-70.5 -29l-27 66l35 -1q15 27 30.5 65t31.5 89l49 -43q-14 -7 -25 -19.5t-21.5 -28t-21.5 -33t-26 -33.5zM495 -1v484l56 -33h89l21 34l45 -41l-20 -30v-307v-9
q0 -68 -60 -96q-5 46 -51 69l-8 11q17 -3 30 -5t23 -3h1q11 0 15.5 9t4.5 24v82h-98v-165q-23 -20 -48 -24zM551 430l-8 -36v-61h98v97h-90zM543 311v-102h98v102h-98zM745 689l59 -31l-13 -55v-43q36 25 59.5 51t40.5 48l35 -64q-2 0 -3 0.5t-3 0.5q-16 0 -55 -18
q-23 -11 -40 -20.5t-34 -21.5v-43q0 -43 21 -43h65q28 0 30 24q1 12 2 31.5t1 46.5h9q0 -57 7 -70q2 -8 9.5 -16.5t16.5 -19.5v-3q0 -15 -17.5 -24.5t-32.5 -9.5h-103q-25 0 -39.5 17t-14.5 51v9v203zM752 391l59 -32l-15 -52v-77q36 38 61.5 66t44.5 60l32 -59
q-12 0 -46.5 -25t-91.5 -67v-78v-7q0 -41 31 -41h53q11 0 15.5 10t6.5 30q3 21 3.5 47t1.5 55h8q0 -29 1.5 -51.5t3.5 -38.5q3 -19 9 -28t12 -13.5t10.5 -7t4.5 -9.5q-8 -25 -21 -29.5t-33 -4.5h-114q-20 0 -28 10.5t-8 33.5v308zM152 244l102 16v132l-36 -13l-33 -16
l-17 36l86 19v122q-18 -7 -41.5 -13t-47.5 -8l-4 13q26 9 53.5 24.5t54.5 33.5t52 37.5t46 36.5l32 -68l-35 -8q-6 -1 -11.5 -3t-12 -5.5t-16.5 -9t-26 -14.5v-130l37 9l32 45l51 -60l-119 -20v-131l66 11l28 51l58 -60l-152 -28v-100q0 -22 2 -34t6 -17.5t8.5 -6.5t10.5 -1
h48q11 2 16.5 10t8 26t3.5 46.5t3 72.5l9 1q3 -72 4.5 -111t16.5 -49q8 -11 8 -20q0 -11 -10.5 -19.5t-41.5 -8.5h-81q-16 0 -25.5 2t-14.5 8t-8.5 16.5t-7.5 27.5v149l-54 -9l-28 -17zM45 1q13 35 22.5 76.5t16.5 94.5t12 119.5t8 152t4.5 193.5t2.5 243l-39 -14l-22 38
h302l35 38l52 -51l-28 -33v-142h-249q-1 -151 -7 -265.5t-18.5 -200.5t-31.5 -147t-46 -104zM167 738h194v143h-194v-143z" />
  </g>

</svg>
