<?xml version="1.0" standalone="no"?>
<!DOCTYPE svg PUBLIC "-//W3C//DTD SVG 1.1//EN" "http://www.w3.org/Graphics/SVG/1.1/DTD/svg11.dtd" >
<svg xmlns="http://www.w3.org/2000/svg" xmlns:xlink="http://www.w3.org/1999/xlink" version="1.1" viewBox="0 0 2048 2048">
  <g transform="matrix(1 0 0 -1 0 2048)">
   <path fill="currentColor"
d="M974 1319l-268 -1q-85 -1 -192 -6l-38 87q93 -26 230 -26h634l80 81l114 -86q21 -16 16 -32q-6 -18 -26 -18l-451 1l-2 -693h575v323q-3 134 -7 159l113 -20q82 -15 85 -44q4 -30 -49 -44l-42 -11v-309q0 -47 4 -72q6 -39 4 -70q-3 -46 -70 -42q-38 3 -38 50v22h-575
v-218q0 -108 13 -219q3 -27 3 -54q0 -38 -49 -41q-62 -5 -62 41v491h-606q-16 -8 -42 -8q-42 0 -42 50v334q-4 135 -8 160l113 -20q82 -15 86 -44q3 -29 -50 -44l-41 -11v-359h590zM1019 1814l-10 -9q-322 -291 -938 -445l-9 36q704 232 899 559l113 -45q69 -28 63 -53
q-4 -19 -45 -26l-26 -4q148 -117 352 -204q289 -124 573 -152l1 -32q-54 -15 -73 -28q-25 -18 -36 -67q-243 56 -484 185q-179 96 -380 285zM1383 1153l127 -55q38 -17 36 -38q-2 -26 -48 -28l-48 -4q-89 -186 -258 -307l-22 27q136 163 213 405zM514 1142q21 -14 72 -45
q252 -150 241 -280q-2 -23 -17.5 -41t-33.5 -18q-44 0 -68 77q-30 90 -91 162q-30 35 -124 116z" />
  </g>

</svg>
