<?xml version="1.0" standalone="no"?>
<!DOCTYPE svg PUBLIC "-//W3C//DTD SVG 1.1//EN" "http://www.w3.org/Graphics/SVG/1.1/DTD/svg11.dtd" >
<svg xmlns="http://www.w3.org/2000/svg" xmlns:xlink="http://www.w3.org/1999/xlink" version="1.1" viewBox="0 -205 1024 1024">
  <g transform="matrix(1 0 0 -1 0 819)">
   <path fill="currentColor"
d="M505 877l-35 34h373l37 40l50 -47q7 -6 6 -11t-10 -6l-21 -8v-262l7 -133q0 -18 -17 -25q-15 -8 -36 -8v63h-301v-329q0 -58 17 -69q16 -12 58 -17q42 -4 110 -4q92 -1 132 5q53 8 57 41q6 46 12 160h15l2 -112q0 -51 33 -67q-19 -32 -34 -42q-15 -9 -43 -17
q-30 -6 -162 -6q-88 -1 -167 8q-82 14 -76 118v510q2 15 -25 42l8 11l80 -34q14 -5 6 -11q-14 -4 -23 -18v-149h301v357h-316q-18 1 -38 -14zM353 791l86 -36q14 -5 6 -11q-21 -9 -31 -21v-367l5 -101q0 -21 -13 -31q-12 -10 -32 -15v92q-78 -24 -172 -50q-49 -11 -66 -21
q-15 -9 -34 -30l-40 46q18 7 30 25v467q-3 24 -24 43l7 11l77 -31q11 -3 13 -6q3 -3 -3 -7q-16 -4 -30 -16v-460q28 5 86 16q11 3 17 4v636q2 15 -27 42l8 11l86 -34q14 -5 6 -11q-20 -6 -29 -18v-617q22 4 66 14q19 4 29 6v412q2 16 -30 46z" />
  </g>

</svg>
