<?xml version="1.0" standalone="no"?>
<!DOCTYPE svg PUBLIC "-//W3C//DTD SVG 1.1//EN" "http://www.w3.org/Graphics/SVG/1.1/DTD/svg11.dtd" >
<svg xmlns="http://www.w3.org/2000/svg" xmlns:xlink="http://www.w3.org/1999/xlink" version="1.1" viewBox="0 -205 1024 1024">
  <g transform="matrix(1 0 0 -1 0 819)">
   <path fill="currentColor"
d="M341 793l86 -36q14 -5 6 -11q-21 -9 -31 -21v-367l5 -101q0 -21 -13 -31q-10 -8 -36 -15v94q-82 -26 -181 -53q-53 -12 -66 -20q-13 -9 -33 -30l-40 46q18 7 30 25v467q0 21 -24 43l7 11l76 -31q12 -3 14 -6q3 -3 -3 -7q-14 -3 -26 -16v-460q51 9 101 19v636q2 15 -27 42
l8 11l86 -34q14 -5 6 -11q-20 -6 -29 -18v-617q10 2 30 7q18 4 71 15v411q0 21 -26 46zM844 627l-18 -11v-495q-2 -39 72 -37q36 1 44 12q16 17 19 74l4 75h13l2 -72q2 -60 30 -72q-22 -33 -46 -41q-36 -14 -112 -9q-73 4 -72 58v521h-158q2 -428 -261 -598l-10 13
q231 185 225 585h-72q-27 1 -40 -11l-29 31h142v26v127q-12 23 -36 37l7 10l105 -22q7 -1 8 -4q2 -2 -2 -5q-7 -2 -24 -15l-12 -9v-84q0 -31 -1 -61h141l34 39l56 -50q6 -9 -9 -12zM401 904h447l32 41l69 -50q7 -6 6 -8q-1 -3 -12 -3h-463q-27 0 -45 -13z" />
  </g>

</svg>
