<?xml version="1.0" standalone="no"?>
<!DOCTYPE svg PUBLIC "-//W3C//DTD SVG 1.1//EN" "http://www.w3.org/Graphics/SVG/1.1/DTD/svg11.dtd" >
<svg xmlns="http://www.w3.org/2000/svg" xmlns:xlink="http://www.w3.org/1999/xlink" version="1.1" viewBox="0 0 2048 2048">
  <g transform="matrix(1 0 0 -1 0 2048)">
   <path fill="currentColor"
d="M1308 1072v421h-140q-108 0 -192 -8l-38 88q95 -22 230 -22h140v241q0 114 -8 160l109 -24q82 -18 85 -43q4 -29 -49 -44l-40 -11v-279h257l98 101l121 -107q20 -18 15 -33q-5 -19 -25 -19h-466v-421h333l98 102l121 -107q20 -18 15 -34q-5 -18 -25 -18h-499
q216 -548 558 -653l-6 -30q-52 -2 -77 -14q-31 -14 -55 -60q-167 120 -278 303q-91 152 -186 427v-665q0 -105 12 -209q3 -28 3 -54q0 -39 -49 -42q-62 -4 -62 42v835q-109 -228 -215 -367q-127 -165 -322 -320l-22 26q364 376 489 781h-176q-117 0 -192 -8l-39 88
q97 -23 231 -23h246zM254 533h149v1182q0 118 -8 160l109 -24q83 -18 86 -44q3 -29 -50 -44l-40 -11v-1219h155v889q0 120 -8 160l109 -24q82 -18 86 -44q3 -29 -50 -44l-41 -11v-760q0 -110 11 -210q3 -28 3 -54q0 -38 -48 -41q-62 -4 -62 41v42h-405q-19 -13 -40 -14
q-54 -3 -54 50v909q0 118 -8 160l109 -24q83 -18 86 -44q3 -30 -50 -44l-43 -11z" />
  </g>

</svg>
