<?xml version="1.0" standalone="no"?>
<!DOCTYPE svg PUBLIC "-//W3C//DTD SVG 1.1//EN" "http://www.w3.org/Graphics/SVG/1.1/DTD/svg11.dtd" >
<svg xmlns="http://www.w3.org/2000/svg" xmlns:xlink="http://www.w3.org/1999/xlink" version="1.1" viewBox="0 0 2048 2048">
  <g transform="matrix(1 0 0 -1 0 2048)">
   <path fill="currentColor"
d="M1109 1092q43 -322 193 -553q163 151 320 423l104 -65q61 -38 57 -59q-3 -20 -53 -20h-53q-149 -198 -323 -352q64 -83 138 -140q76 -59 183 -101q58 -23 85 -23q28 0 46 29q5 8 30 103q30 108 38 148l38 -8q-6 -62 -24 -194q-4 -27 -3 -52q2 -35 34 -67q30 -31 22 -55
q-9 -30 -60 -33q-188 -11 -394 125q-117 77 -214 200q-271 -210 -635 -316l-13 38q211 88 341 168q111 69 256 183q-77 119 -122 237q-55 147 -90 384h-640l-1 -292q-1 -246 -52 -406q-58 -185 -204 -346l-34 26q116 189 156 360q35 152 35 373v273q0 13 -8 142l112 -72h629
q-7 61 -12 116q-12 146 -15 176l120 -16q62 -8 67 -26q5 -23 -46 -47l-34 -15q9 -100 20 -188h553l98 93l122 -99q20 -17 15 -33q-6 -19 -26 -19h-756zM1633 1868l113 -24q83 -17 86 -43q3 -29 -50 -43l-41 -12l-1 -90q-1 -55 7 -163q4 -55 -46 -60q-29 -3 -45 9
q-15 13 -15 25v32h-1227q-22 -14 -45 -14q-26 0 -41 8q-13 7 -13 42v185q0 118 -8 160l113 -24q82 -17 86 -44q3 -29 -50 -43l-42 -11v-199h562v225q0 120 -7 160l110 -24q83 -18 86 -43q3 -30 -50 -44l-41 -11v-263h567v154q-1 115 -8 155zM1306 1442q323 -82 287 -191
q-5 -15 -23.5 -26t-32.5 -8q-23 4 -67 63q-44 60 -93 89q-23 13 -86 43z" />
  </g>

</svg>
