<?xml version="1.0" standalone="no"?>
<!DOCTYPE svg PUBLIC "-//W3C//DTD SVG 1.1//EN" "http://www.w3.org/Graphics/SVG/1.1/DTD/svg11.dtd" >
<svg xmlns="http://www.w3.org/2000/svg" xmlns:xlink="http://www.w3.org/1999/xlink" version="1.1" viewBox="0 0 2048 2048">
  <g transform="matrix(1 0 0 -1 0 2048)">
   <path fill="currentColor"
d="M213 394l-13 43q189 82 309 170q-29 27 -59 58l27 26q41 -31 72 -56q186 138 278 306l115 -58q42 -21 41 -43q-1 -27 -53 -29l-41 -2q-61 -63 -102 -98h556l68 76l84 -54q40 -26 40 -48t-81 -56q-166 -211 -325 -314q365 -131 853 -133l2 -37q-91 -14 -130 -90
q-270 36 -465 84q-156 39 -355 121q-191 -89 -374 -133q-235 -56 -585 -89l-1 43q567 90 854 228q-155 81 -352 241q-194 -105 -363 -156zM621 580l21 -14q175 -121 377 -207q173 107 315 295h-614q-35 -29 -99 -74zM677 1099h-380q-118 0 -192 -8l-38 88q97 -23 230 -23
h676v163h-414q-117 0 -192 -8l-38 88q96 -23 230 -23h414v26q0 117 -8 160l109 -24q83 -18 86 -43q3 -26 -50 -44l-41 -14v-61h398l108 98l111 -103q20 -18 15 -33q-5 -19 -25 -19h-607v-163h668l98 102l121 -107q20 -18 15 -34q-5 -18 -26 -18h-660v-104q0 -59 62 -69
q49 -9 183 -9q228 0 316 26q19 6 22 6q25 4 50 -17q23 -18 23 -41q0 -44 -77 -51q-226 -22 -450 -16q-119 4 -169 25q-57 24 -57 91v159h-379q-110 -136 -227 -206q-192 -115 -505 -177l-9 44q223 66 349 129q168 85 260 210zM1752 1741l1 -89q1 -31 4 -53q9 -65 -29 -80
q-34 -13 -56 -6q-18 5 -18 23v39h-1257q-20 -13 -41 -14q-55 -3 -55 39l1 128q0 116 -8 160l113 -24q82 -18 85 -44q4 -29 -49 -44l-42 -11v-136l573 2v180q0 120 -7 159l112 -24q83 -17 86 -43q3 -30 -50 -44l-41 -11l1 -219l579 2v78q0 107 -8 155l109 -24q82 -19 85 -44
q4 -29 -49 -44z" />
  </g>

</svg>
