<?xml version="1.0" standalone="no"?>
<!DOCTYPE svg PUBLIC "-//W3C//DTD SVG 1.1//EN" "http://www.w3.org/Graphics/SVG/1.1/DTD/svg11.dtd" >
<svg xmlns="http://www.w3.org/2000/svg" xmlns:xlink="http://www.w3.org/1999/xlink" version="1.1" viewBox="0 -205 1024 1024">
  <g transform="matrix(1 0 0 -1 0 819)">
   <path fill="currentColor"
d="M315 99h120v213q-1 23 -19 47l14 12l32 -30h384l31 34l45 -42q7 -6 6 -10q-1 -5 -10 -7l-20 -9v-208h23l28 32l56 -42q8 -5 7 -8q-2 -2 -13 -2h-605q-27 1 -45 -13zM286 736l77 -34q14 -5 6 -11q-21 -7 -30 -21v-351l4 -97q1 -35 -42 -45v82q-73 -28 -126 -46
q-63 -21 -84 -34t-31 -33l-44 47q26 15 30 35v465q-2 16 -23 37l9 11l79 -32q18 -7 9 -14q-24 -7 -36 -18v-455l91 25v678q2 17 -27 42l8 11l84 -34q14 -5 6 -11q-19 -4 -29 -18v-657l84 24v402q2 16 -24 40zM461 875q-22 -2 -36 -14l-33 34h342l32 31l54 -46q8 -10 -3 -12
q-39 -4 -49 -51q-12 -34 -24 -62h142l29 33l46 -47q5 -5 4 -9t-8 -6q-13 -5 -26 -17l1 -94q-4 -108 -28 -146t-58 -55q-33 -17 -72 -25q0 22 -17 29q-10 4 -69 23l-18 6l3 15q89 -20 129 -17q42 4 65 46t23 152l-1 92h-141l-36 -26l-40 46q26 4 42 34l18 46l12 40h-192
q-4 -121 -21 -210q-33 -196 -178 -297l-6 14q102 104 136 254q18 81 25 239h-47zM585 321h-108v-222h108v222zM542 591l6 12q71 -10 106 -21l24 -9q26 32 52 76h-130q-17 2 -32 -12l-27 30h185l23 25l47 -30q7 -5 7 -9q0 -3 -7 -5q-15 -4 -21 -9t-24 -31q-8 -11 -34 -43
q-4 -5 -6 -8q4 -1 10 -6q3 -1 4 -2q64 -43 32 -75q-15 -8 -32 17q-15 23 -39 38q-35 -37 -89 -67q-61 -34 -130 -52l-4 14q108 42 182 113l5 5q4 3 5 4q-15 8 -32 15q-31 14 -81 30zM721 321h-100v-222h100v222zM757 99h99v222h-99v-222z" />
  </g>

</svg>
