<?xml version="1.0" standalone="no"?>
<!DOCTYPE svg PUBLIC "-//W3C//DTD SVG 1.1//EN" "http://www.w3.org/Graphics/SVG/1.1/DTD/svg11.dtd" >
<svg xmlns="http://www.w3.org/2000/svg" xmlns:xlink="http://www.w3.org/1999/xlink" version="1.1" viewBox="0 -205 1024 1024">
  <g transform="matrix(1 0 0 -1 0 819)">
   <path fill="currentColor"
d="M460 469l38 -42h315l31 33l50 -39q7 -6 5 -10q-1 -5 -11 -7l-18 -9v-281l4 -36q7 -41 -46 -44v64h-323v-23q3 -47 -49 -54q5 47 7 97v305q-4 18 -18 32zM359 548h212v350h-113q-31 2 -49 -15l-34 33h484l32 40l68 -48q8 -5 7 -8q-2 -2 -13 -2h-190v-350h136l32 40l68 -50
q8 -5 7 -8q-2 -2 -13 -2h-555q-27 1 -45 -13zM290 756l77 -34q14 -5 6 -11q-21 -7 -30 -21v-363l4 -97q1 -32 -42 -45v82q-73 -28 -129 -46q-66 -21 -82 -34t-30 -35l-44 49q26 15 30 35v477q-2 16 -23 37l9 11l79 -32q14 -7 5 -14q-20 -7 -32 -18v-467l91 25v678
q2 17 -27 42l8 11l84 -34q14 -5 6 -11q-19 -4 -29 -18v-657l84 24v414q2 16 -24 40zM828 255h-323v-139h323v139zM505 271h323v138h-323v-138zM723 898h-112v-350h112v350zM868 846l68 -36q17 -10 7 -15q-18 -3 -31 -11q-58 -112 -112 -184l-18 6l38 78q54 117 51 130
q-3 14 -11 25zM398 810l11 11q68 -50 91 -83q24 -33 30 -61q10 -60 -24 -61q-16 2 -20 33q-3 31 -18 65q-15 35 -70 96z" />
  </g>

</svg>
