<?xml version="1.0" standalone="no"?>
<!DOCTYPE svg PUBLIC "-//W3C//DTD SVG 1.1//EN" "http://www.w3.org/Graphics/SVG/1.1/DTD/svg11.dtd" >
<svg xmlns="http://www.w3.org/2000/svg" xmlns:xlink="http://www.w3.org/1999/xlink" version="1.1" viewBox="0 -205 1024 1024">
  <g transform="matrix(1 0 0 -1 0 819)">
   <path fill="currentColor"
d="M266 771l60 -32q17 -10 7 -15q-19 -3 -31 -11q-22 -33 -43 -61h566l32 34l56 -42q8 -5 7 -8q-2 -2 -13 -2h-332v-80h214l32 32l56 -38q8 -5 7 -8q-2 -2 -13 -2h-296v-84h214l32 36l56 -42q8 -5 7 -8q-2 -2 -13 -2h-296v-86h258l26 34l62 -42q8 -5 7 -8q-2 -2 -13 -2h-665
l1 -18q3 -36 -51 -44q5 37 7 160v153q-72 -85 -132 -119l-8 12q88 89 145 173q58 84 56 93t-10 18zM477 1004l84 -34q14 -5 6 -11q-19 -4 -29 -18v-135h288v96q2 16 -24 38l9 12l81 -32q14 -5 6 -13q-21 -6 -30 -19v-43l4 -65q1 -34 -46 -46v54h-604l-29 -34l-56 32
q26 24 30 44v77q-2 16 -23 37l9 11l83 -30q12 -7 3 -14q-18 -6 -30 -16v-89h287v145q2 17 -27 42zM484 324l83 -26q14 -5 6 -11q-21 -7 -30 -21v-48h356l32 42l68 -50q8 -4 7 -7q-2 -2 -13 -2h-450v-85l3 -57q3 -36 -52 -44q1 8 3 22q2 15 4 38v126h-359q-27 0 -45 -13
l-34 30h438v58q2 17 -26 36zM533 438h-284v-67v-19h284v86zM533 538h-284v-84h284v84zM533 634h-284v-80h284v80zM450 762l6 13q98 -19 115 -55q20 -40 -15 -47q-16 0 -21 17q-5 18 -22 34q-16 17 -63 38z" />
  </g>

</svg>
