<?xml version="1.0" standalone="no"?>
<!DOCTYPE svg PUBLIC "-//W3C//DTD SVG 1.1//EN" "http://www.w3.org/Graphics/SVG/1.1/DTD/svg11.dtd" >
<svg xmlns="http://www.w3.org/2000/svg" xmlns:xlink="http://www.w3.org/1999/xlink" version="1.1" viewBox="0 -205 1024 1024">
  <g transform="matrix(1 0 0 -1 0 819)">
   <path fill="currentColor"
d="M474 831l74 -28q14 -5 6 -11q-19 -4 -29 -18l-12 -59h318l32 40l68 -50q8 -4 7 -6q-2 -2 -13 -2h-415l-18 -89h224l31 36l53 -40q7 -6 6 -10q-1 -5 -10 -7l-20 -9v-335h113l26 36l62 -44q8 -5 7 -8q-2 -2 -13 -2h-861q-27 1 -45 -13l-34 31h220v336q3 21 -20 43l11 14
l41 -28h169l16 89h-296q-27 1 -45 -13l-34 31h378l12 69q2 17 -17 36zM732 410h-437v-80h437v80zM732 502h-437v-78h437v78zM295 516h437v76h-437v-76zM491 1012l84 -34q14 -5 6 -11q-20 -6 -29 -18v-96h279v69q2 15 -24 38l9 12l79 -32q15 -6 7 -13q-22 -6 -31 -19v-16
l4 -45q0 -15 -13 -25q-15 -10 -31 -15v28h-594l-19 -32l-52 32q21 19 26 40v52q-2 16 -23 37l9 11l81 -30q12 -8 3 -14q-18 -6 -30 -16v-62h278v106q2 15 -27 42zM732 316h-437v-73h437v73zM373 208l56 -44q5 -7 4 -10q-2 -3 -10 -4q-12 4 -28 1q-151 -92 -314 -128l-4 11
q204 85 282 147q9 11 3 24zM591 187l7 11q302 -49 292 -161q-20 -20 -44 14t-75 69q-51 33 -180 67z" />
  </g>

</svg>
