<?xml version="1.0" standalone="no"?>
<!DOCTYPE svg PUBLIC "-//W3C//DTD SVG 1.1//EN" "http://www.w3.org/Graphics/SVG/1.1/DTD/svg11.dtd" >
<svg xmlns="http://www.w3.org/2000/svg" xmlns:xlink="http://www.w3.org/1999/xlink" version="1.1" viewBox="0 -205 1024 1024">
  <g transform="matrix(1 0 0 -1 0 819)">
   <path fill="currentColor"
d="M432 511l8 7q43 -34 79 -78q55 45 115 117q-16 35 -35 65q-27 -21 -58 -41q-53 -31 -137 -60l-5 14q83 45 123 73q41 29 72 61q26 27 56 65h-144q-27 1 -45 -13l-34 31h439l28 34l65 -42q8 -5 7 -8q-2 -2 -13 -2h-251q-38 -52 -69 -81q-9 -8 -18 -17q110 -112 128 -366
q7 -93 -22 -153q-32 -69 -119 -91q-2 25 -25 39q-23 13 -89 39l4 16q4 -1 11 -4q119 -44 148 -17q22 15 37 51q30 79 4 223q-65 -91 -148 -147q-97 -66 -191 -86l-4 12q67 26 159 89q21 14 53 42q-11 5 -17 27q-13 47 -34 87q-58 -36 -132 -65l-6 14q74 39 124 76
q-25 43 -64 89zM291 778l77 -34q14 -5 6 -11q-21 -7 -30 -21v-361l4 -81q1 -35 -42 -46v67q-73 -28 -126 -46q-63 -22 -85 -35q-21 -12 -31 -34l-44 48q26 17 30 36v475q-2 16 -23 37l9 11l79 -32q14 -7 5 -14q-20 -7 -32 -18v-465l92 25v657q2 17 -27 42l8 11l84 -34
q14 -5 6 -11q-19 -4 -29 -18v-636l84 24v412q2 16 -24 40zM718 567q18 -45 36 -84q59 40 88 63q43 38 43 47q1 10 -5 23l12 6l62 -45q7 -6 5 -9q-3 -3 -16 -4q-13 3 -75 -40q-32 -23 -103 -63q97 -205 183 -258q34 -17 70 -23v-14q-35 1 -47 -4q-15 -5 -25 -18
q-140 98 -242 415zM482 920h442l29 42l58 -47q6 -7 2 -11q-3 -3 -16 -2q-20 -1 -31 -16q-4 -5 -27 -31l-35 -40l-16 8l41 77h-446q0 -13 -1 -23q-6 -46 -36 -76q-30 -26 -48 -1q-11 17 14 33q26 17 36 45q11 30 13 84h18q2 -22 3 -42zM652 517q-53 -58 -115 -102
q31 -43 49 -90q0 -1 1 -3q1 -6 1 -12q45 48 93 117q-12 47 -29 90z" />
  </g>

</svg>
