<?xml version="1.0" standalone="no"?>
<!DOCTYPE svg PUBLIC "-//W3C//DTD SVG 1.1//EN" "http://www.w3.org/Graphics/SVG/1.1/DTD/svg11.dtd" >
<svg xmlns="http://www.w3.org/2000/svg" xmlns:xlink="http://www.w3.org/1999/xlink" version="1.1" viewBox="0 -200 1000 1000">
  <g transform="matrix(1 0 0 -1 0 800)">
   <path fill="currentColor"
d="M485 691l67 -36h267l39 43l71 -54l-38 -41v-378q-8 -13 -21.5 -23t-33.5 -15v37h-297v-26q-5 -9 -21 -17t-33 -10v520zM527 991l56 -36h205l43 42l64 -55l-43 -34v-159h-269v-22q-24 -31 -56 -36v300zM797 771v162h-214v-162h214zM836 495h-297v-118h297v118zM836 516
v112l-8 5h-289v-117h297zM836 354h-297v-108h297v108zM295 1q52 25 102.5 52.5t93 56t74.5 56t47 52.5l52 -66l-35 -11q-29 -19 -72.5 -42t-90.5 -44t-92.5 -37.5t-77.5 -22.5zM744 190q35 -12 71 -29t65 -37t47.5 -41t18.5 -42q0 -19 -9 -32.5t-21 -13.5q-8 0 -16 8t-16 28
q-7 21 -23 44.5t-36.5 45.5t-42.5 39.5t-41 25.5zM172 687l-24 -64v-390h77v672l78 -33l-25 -71v-568h72v490l76 -34l-24 -65v-456q-13 -10 -26 -15t-26 -12v69h-188l-38 -51l-61 53l34 34v483z" />
  </g>

</svg>
