<?xml version="1.0" standalone="no"?>
<!DOCTYPE svg PUBLIC "-//W3C//DTD SVG 1.1//EN" "http://www.w3.org/Graphics/SVG/1.1/DTD/svg11.dtd" >
<svg xmlns="http://www.w3.org/2000/svg" xmlns:xlink="http://www.w3.org/1999/xlink" version="1.1" viewBox="0 -205 1024 1024">
  <g transform="matrix(1 0 0 -1 0 819)">
   <path fill="currentColor"
d="M137 745h312q21 53 37 111q-136 -12 -358 -13v20q210 14 335 28t210 31t94 27t8 28l13 2l53 -58q9 -9 9 -14t-9 -6q-21 8 -51 4q-109 -26 -252 -43q-1 0 -2 -1q-13 -58 -36 -116h269l35 46l70 -54q11 -7 8 -10q-2 -3 -19 -2h-371q-18 -40 -39 -80q-9 -16 -18 -30h432
l35 46l70 -54q11 -7 8 -10q-2 -3 -19 -2h-539q-57 -85 -144 -150q-112 -84 -220 -118l-8 16q98 44 198 125q71 58 121 127h-255q-27 1 -45 -13l-34 33h348q3 5 8 14q10 15 14 23q20 35 36 73h-225q-27 1 -45 -13zM464 538l73 -32q6 -4 7 -7q0 -3 -5 -6q-14 2 -31 -12
q-16 -42 -38 -86h365l35 46l70 -54q11 -7 8 -10q-2 -3 -19 -2h-469q-18 -32 -38 -64q-121 -187 -330 -263l-6 16q186 88 298 263q16 24 29 48h-113q-27 1 -45 -13l-34 33h203q29 56 42 108q1 14 -10 26zM399 263h360l19 38l70 -42q11 -7 8 -10q-2 -3 -19 -2h-198v-171h216
l35 34l66 -38q11 -5 8 -8q-2 -3 -19 -4h-601q-27 -3 -45 -17l-34 33h328v171h-115q-27 1 -45 -13z" />
  </g>

</svg>
