<?xml version="1.0" standalone="no"?>
<!DOCTYPE svg PUBLIC "-//W3C//DTD SVG 1.1//EN" "http://www.w3.org/Graphics/SVG/1.1/DTD/svg11.dtd" >
<svg xmlns="http://www.w3.org/2000/svg" xmlns:xlink="http://www.w3.org/1999/xlink" version="1.1" viewBox="0 0 2048 2048">
  <g transform="matrix(1 0 0 -1 0 2048)">
   <path fill="currentColor"
d="M758 1324v257q0 116 -8 160l110 -24q83 -18 85 -43q4 -31 -49 -44l-43 -11v-229q0 -12 5 -86q1 -20 1 -32q0 -41 -48 -47q-53 -7 -53 29v12h-456q-17 -22 -52 -16q-35 5 -35 40v307q0 108 -7 159l109 -24q82 -18 85 -43q4 -31 -49 -44l-46 -11v-310h171v447q0 118 -8 160
l113 -24q82 -17 86 -43q3 -31 -50 -44l-45 -11v-485h184zM1711 1324v257q0 121 -7 160l109 -24q83 -18 86 -43q3 -31 -50 -44l-42 -11v-260q0 -9 4 -85q1 -24 1 -32q0 -41 -47 -48q-57 -8 -55 41l1 31h-482q-18 -20 -53 -15t-35 39v307q0 108 -7 159l109 -24q83 -18 86 -43
q3 -31 -50 -44l-45 -11v-310h178v447q0 118 -9 160l117 -22q78 -14 83 -45q4 -31 -50 -44l-45 -11v-485h203zM441 860q-159 -64 -365 -114l-13 38q663 216 880 555l98 -51q46 -24 50 -40q6 -25 -31 -28l-43 -4q269 -166 488 -233q208 -65 470 -93v-30q-95 -1 -133 -81
q-264 58 -510 188q-147 79 -354 237q-230 -218 -519 -336l92 -54h834l61 72l72 -49q39 -26 42 -44q4 -20 -25 -37q-6 -4 -13 -7q-8 -4 -24 -13v-209l29 -20q31 -22 27 -42q-3 -20 -17 -20h-1000v-93q0 -80 41 -105q57 -33 172 -33h682q235 0 296 41q31 21 42 113q2 19 8 70
q3 28 6 53l6 46h36l1 -57q1 -5 -4 -76q-4 -68 18 -96q9 -11 51 -32q11 -6 13 -17q8 -36 -59 -69q-104 -52 -393 -52h-703q-147 0 -221 31q-40 16 -65 51q-24 36 -24 65l1 61v514zM537 503h866v256h-866v-256z" />
  </g>

</svg>
