<?xml version="1.0" standalone="no"?>
<!DOCTYPE svg PUBLIC "-//W3C//DTD SVG 1.1//EN" "http://www.w3.org/Graphics/SVG/1.1/DTD/svg11.dtd" >
<svg xmlns="http://www.w3.org/2000/svg" xmlns:xlink="http://www.w3.org/1999/xlink" version="1.1" viewBox="0 -200 1000 1000">
  <g transform="matrix(1 0 0 -1 0 800)">
   <path fill="currentColor"
d="M786 498l56 51l76 -73h-458q-13 -23 -24 -39t-20.5 -28t-18.5 -22t-19 -22l4 -6h146v99l72 -32l-13 -46v-21h176l42 47l66 -49l-40 -42v-196q-16 -26 -43.5 -40t-56.5 -20q-2 8 -2.5 19t-7 21.5t-22 19t-47.5 11.5v4q18 -2 30 -3t21 -1.5t17 -0.5h19q15 0 24 5t9 16v189
h-185v-312q0 -8 -17.5 -17.5t-41.5 -9.5v339h-146l-27 -27v-218q-12 -6 -28.5 -10.5t-26.5 -4.5q-2 0 -3 0.5t-3 0.5v215q-23 -17 -54 -37t-65 -37.5t-67.5 -30.5t-61.5 -16l-1 1q63 32 120.5 73t104 83t79.5 80t47 65h-147l-80 -9l-26 30h269q19 32 33.5 61t19.5 58l91 -20
l-27 -27l-52 -71h309zM68 581q121 22 224.5 48t188.5 63q-43 9 -129 22t-227 36v11q112 -11 214 -24t190 -26q33 15 55 25.5t40 19.5t34.5 18.5t37.5 22.5l118 -35l-53 -13q-26 -6 -43.5 -12t-33.5 -12t-34 -12.5t-46 -14.5q142 -32 216 -51.5t83 -35.5q7 -10 7 -19
q0 -8 -6.5 -12t-15.5 -6t-19 -2.5t-17 -0.5q-1 0 -25.5 10.5t-66 26.5t-97 34t-117.5 32q-64 -21 -120 -38t-111.5 -30t-113 -21.5t-124.5 -12.5zM66 782q121 22 224.5 46.5t188.5 60.5q-44 9 -129.5 21.5t-226.5 37.5v10q112 -11 214 -24.5t190 -24.5q34 13 57.5 24
t42 21.5t35.5 21t38 23.5l112 -39l-52 -13q-27 -6 -44.5 -12t-33.5 -12t-34.5 -13t-46.5 -15q142 -31 216.5 -50.5t84.5 -35.5q7 -10 7 -19q0 -8 -6.5 -13t-15.5 -7t-19.5 -2.5t-18.5 -0.5q-1 0 -25.5 11t-66 27t-96.5 34.5t-116 32.5q-65 -21 -121.5 -37.5t-112 -29
t-113 -20.5t-123.5 -12z" />
  </g>

</svg>
