<?xml version="1.0" standalone="no"?>
<!DOCTYPE svg PUBLIC "-//W3C//DTD SVG 1.1//EN" "http://www.w3.org/Graphics/SVG/1.1/DTD/svg11.dtd" >
<svg xmlns="http://www.w3.org/2000/svg" xmlns:xlink="http://www.w3.org/1999/xlink" version="1.1" viewBox="0 0 2048 2048">
  <g transform="matrix(1 0 0 -1 0 2048)">
   <path fill="currentColor"
d="M1189 1399q51 143 84 340h-269q-66 0 -140 -10l-37 86q119 -18 177 -18l742 1l92 101l113 -107q20 -18 15 -33q-6 -19 -24 -19l-560 -1q-67 -213 -144 -340l509 1l58 71l68 -49q35 -26 39 -44q5 -19 -24 -37q-6 -4 -12 -7q-9 -4 -26 -14v-1028q0 -46 7 -104q3 -27 3 -43
q0 -41 -49 -49q-48 -9 -48 24l-1 117h-751v-110q0 -24 -37 -30q-35 -6 -54 17q-9 11 -7 33l4 42q7 98 7 104l-3 1056q-4 72 -10 134l115 -83zM1011 293h182v1048h-182v-1048zM1280 293h199v339h-199v-339zM1568 293h194v1048h-194v-1048zM1280 688h199v318h-199v-318z
M1280 1060h199v281h-199v-281zM642 1539l57 75l73 -51q51 -34 49 -53q-1 -16 -45 -42l-28 -16v-768q0 -159 -146 -171q0 47 -11 67q-16 29 -69 38l6 45q50 -6 70 -6q59 0 59 57v768h-162v-1088q0 -45 7 -163q7 -110 7 -125q0 -49 -55 -53q-49 -4 -49 36v1393h-146v-982
q-17 -34 -53 -29q-47 6 -47 59l8 288v675q-2 80 -16 135l122 -89h132v240q0 118 -7 160l109 -24q82 -18 85 -43q4 -24 -49 -44l-48 -19v-270h147z" />
  </g>

</svg>
