<?xml version="1.0" standalone="no"?>
<!DOCTYPE svg PUBLIC "-//W3C//DTD SVG 1.1//EN" "http://www.w3.org/Graphics/SVG/1.1/DTD/svg11.dtd" >
<svg xmlns="http://www.w3.org/2000/svg" xmlns:xlink="http://www.w3.org/1999/xlink" version="1.1" viewBox="0 0 2048 2048">
  <g transform="matrix(1 0 0 -1 0 2048)">
   <path fill="currentColor"
d="M1066 1582h421q-26 167 -144 296l29 31q92 -69 133 -112q75 -78 75 -152q0 -46 -34 -63h128l98 102l121 -107q20 -18 15 -34q-5 -19 -25 -19h-444v-244h178l87 96l122 -96q20 -15 19 -36q-2 -20 -24 -20h-382v-250h206l88 90l97 -82q27 -24 26 -42q-1 -23 -30 -23h-387
v-256h275l99 101l120 -107q20 -18 16 -33q-6 -18 -26 -18h-871v-53q0 -27 -45 -30q-66 -6 -60 51l4 41q6 98 6 105l-2 688q-32 -44 -86 -106q-61 -70 -90 -97l-31 30q241 306 346 704l143 -59q31 -12 35 -36q3 -25 -24 -28l-73 -7q-80 -172 -109 -225zM1343 1280v244h-291
v-244h291zM1343 974v250h-291v-250h291zM1052 661h291v256h-291v-256zM1702 471q93 -57 167 -135q100 -102 105 -179q4 -62 -44 -70q-42 -6 -72 87q-49 156 -182 263zM1437 471q151 -185 151 -313q0 -65 -47 -73q-54 -8 -57 82q-5 142 -80 279zM1168 454q80 -174 80 -290
q0 -93 -65 -86q-37 4 -42 40q-2 19 4 51q6 31 6 91q0 75 -19 183zM907 479l45 -12q-20 -149 -70 -261q-54 -121 -128 -130q-28 -3 -47 12q-20 15 -18 41q4 30 57 70q114 85 161 280zM627 1539l57 75l73 -51q51 -34 49 -53q-1 -16 -45 -42l-28 -16v-768q0 -159 -146 -171
q0 47 -11 67q-16 29 -69 38l6 45q50 -6 70 -6q59 0 59 57v768h-162v-1091q0 -44 7 -161q7 -110 7 -124q0 -49 -55 -53q-49 -4 -49 36v1393h-146v-971q0 -44 -65 -39q-42 3 -38 52l3 55q9 134 9 142l-1 772q-2 80 -16 135l122 -89h132v240q0 118 -7 160l109 -24
q82 -18 85 -43q4 -24 -49 -44l-48 -19v-270h147z" />
  </g>

</svg>
