<?xml version="1.0" standalone="no"?>
<!DOCTYPE svg PUBLIC "-//W3C//DTD SVG 1.1//EN" "http://www.w3.org/Graphics/SVG/1.1/DTD/svg11.dtd" >
<svg xmlns="http://www.w3.org/2000/svg" xmlns:xlink="http://www.w3.org/1999/xlink" version="1.1" viewBox="0 0 2048 2048">
  <g transform="matrix(1 0 0 -1 0 2048)">
   <path fill="currentColor"
d="M778 1759l-38 86q118 -17 179 -17l422 -1l78 82l114 -91q12 -10 11 -25q-2 -22 -24 -22h-247v-216h103l65 76l80 -55q38 -25 38 -48q0 -22 -28 -39q-5 -3 -45 -23v-195q3 -68 4 -73q4 -34 4 -41q0 -39 -53 -44q-53 -4 -48 27l2 17h-537v-29q0 -27 -41 -31q-61 -6 -56 44
l3 34l2 31l2 48l1 364l112 -63h95v216l-57 -1q-71 -1 -141 -11zM858 1210h118v290h-118v-290zM1063 1210h123v290h-123v-290zM1273 1210h122v290h-122v-290zM1186 1555v216h-123v-216h123zM833 928l-37 86q115 -18 179 -18l276 -1l77 81l105 -82q16 -12 17 -29
q2 -27 -24 -27h-451q-65 0 -142 -10zM725 706l-37 86q118 -18 178 -18l479 -1l81 85l109 -87q20 -16 20 -33q0 -22 -22 -22h-358v-381l2 -44l2 -48l4 -51q3 -67 3 -68q0 -53 -61 -53q-42 0 -42 32l1 613h-218q-58 0 -141 -10zM1583 1698l103 -24q79 -18 82 -43
q3 -30 -47 -44l-40 -11v-772l2 -43l2 -48l4 -51l2 -38q2 -30 2 -31q0 -53 -62 -53q-42 0 -42 33v966q-3 144 -6 159zM838 610l116 -55q26 -13 27 -32q2 -23 -25 -27l-54 -8q-102 -178 -240 -284l-23 24q137 164 199 382zM1819 1916l105 -24q78 -18 81 -44q3 -29 -48 -43
l-39 -11v-1559q0 -141 -147 -171q-12 71 -45 93q-32 22 -152 44l8 46q134 -23 181 -27q65 -5 65 57l-1 1479q0 117 -8 160zM1253 553l18 31q229 -139 242 -259q7 -63 -41 -69q-35 -4 -51 48q-42 141 -168 249zM541 1551l54 75l67 -51q48 -35 46 -53q-2 -17 -43 -42l-25 -16
v-768q0 -160 -136 -171q0 47 -8 69q-10 29 -47 39l1 45q31 -9 51 -9q54 0 54 56v768h-125v-1087q0 -43 7 -163q7 -118 7 -125q0 -49 -52 -54q-45 -3 -45 37v1392h-113v-982q0 -43 -62 -39q-42 3 -39 52l4 55q8 129 8 142l3 784q-2 84 -15 134l114 -88h100v240q0 118 -7 160
l101 -24q76 -18 79 -44q4 -23 -45 -43l-45 -19v-270h111z" />
  </g>

</svg>
