<?xml version="1.0" standalone="no"?>
<!DOCTYPE svg PUBLIC "-//W3C//DTD SVG 1.1//EN" "http://www.w3.org/Graphics/SVG/1.1/DTD/svg11.dtd" >
<svg xmlns="http://www.w3.org/2000/svg" xmlns:xlink="http://www.w3.org/1999/xlink" version="1.1" viewBox="0 -205 1024 1024">
  <g transform="matrix(1 0 0 -1 0 819)">
   <path fill="currentColor"
d="M462 337l29 -26h378l21 25l48 -29q7 -6 5 -10q-1 -5 -11 -7l-14 -9v-173l4 -40q7 -36 -44 -40v44h-379v-3q3 -42 -47 -50q5 43 7 95v197q-1 8 -10 14zM540 764l59 -13q7 -5 7 -9q-1 -3 -10 -5q-12 -1 -18 -6q-5 -4 -38 -57h261l22 32l62 -40q8 -4 7 -6q-2 -2 -13 -2h-164
v-82h88l22 32l56 -36q8 -5 7 -8q-2 -2 -13 -2h-160v-74h94l24 32l56 -36q8 -5 7 -8q-2 -2 -13 -2h-168v-80h124l26 34l58 -40q8 -5 7 -8q-2 -2 -13 -2h-398q-2 -13 -10 -19q-10 -9 -36 -14q5 37 7 104v139q-40 -45 -96 -88l-10 12q74 81 119 154t44 79t-7 12zM352 720v-337
q4 -61 -8 -83q-12 -24 -52 -29q2 33 -50 39l4 16q38 -7 56 -5t14 48v365h-83v-582l3 -95q3 -38 -50 -46q5 39 7 188v535h-92v-341l4 -85q3 -38 -47 -46q5 39 7 130v345q-4 29 -16 45l15 11l27 -39h102v180q2 17 -26 42l9 12l81 -32q14 -5 6 -11q-21 -7 -30 -21v-170h67
l22 41l50 -43q8 -6 8 -11q0 -4 -8 -8zM611 999l76 -27q5 -5 4 -8t-9 -4q-10 -3 -28 -19q-12 -30 -32 -61h261l32 32l56 -42q8 -5 7 -8q-2 -2 -13 -2h-212q42 -50 65 -73q58 -54 116 -70q24 -4 61 -9v-16q-44 1 -54 -4q-15 -4 -22 -20q-53 29 -82 54t-58 61q-25 32 -51 77
h-120q-28 -42 -72 -86q-86 -89 -170 -127l-9 13q93 65 159 143q26 32 45 57h-119q-27 1 -45 -13l-34 33h212q18 25 26 44q19 43 17 47q-1 4 -12 19zM671 188h-172v-100h172v100zM878 188h-171v-100h171v100zM671 295h-172v-94h172v94zM707 201h171v94h-171v-94zM530 658
q-2 -4 -5 -9l-7 -11v-62h159v82h-147zM677 474h-159v-76v-4h159v80zM677 562h-159v-74h159v74zM615 799l6 9q80 -25 93 -67q10 -36 -20 -41q-13 0 -18 23q-4 23 -16 36q-12 14 -45 40z" />
  </g>

</svg>
