<?xml version="1.0" standalone="no"?>
<!DOCTYPE svg PUBLIC "-//W3C//DTD SVG 1.1//EN" "http://www.w3.org/Graphics/SVG/1.1/DTD/svg11.dtd" >
<svg xmlns="http://www.w3.org/2000/svg" xmlns:xlink="http://www.w3.org/1999/xlink" version="1.1" viewBox="0 -205 1024 1024">
  <g transform="matrix(1 0 0 -1 0 819)">
   <path fill="currentColor"
d="M250 735v-338q2 -61 -5 -81q-8 -21 -37 -30q0 18 -10 24q-8 5 -22 9v-154l2 -96q0 -21 -10 -31q-8 -8 -30 -15q5 39 6 189v537h-42v-385l4 -37q0 -21 -10 -31q-11 -10 -32 -15q3 22 5 106q1 16 1 25v344q-3 17 -15 33l10 9l24 -28h55v167q2 16 -28 46l7 12l76 -36
q14 -5 6 -11q-20 -9 -29 -21v-157h35l23 33l35 -39q11 -11 -3 -18zM465 480v-336q2 -64 -5 -81q-8 -20 -44 -30q0 18 -14 26q-12 8 -39 13l2 16q38 -6 54 -6q15 1 14 48v108h-103v-133l5 -37q0 -21 -10 -31q-13 -10 -33 -15q3 39 6 129v355q-3 17 -15 33l9 9l31 -34h102
l23 33l37 -39q12 -11 -4 -17zM651 566v-420q1 -58 -5 -81q-10 -20 -46 -30q0 18 -13 26q-15 9 -31 13l2 16q29 -6 45 -6q17 1 15 48v156h-67v-167l4 -37q0 -18 -9 -31q-12 -9 -34 -15q4 39 7 129v419q-3 17 -12 35l10 9l25 -30h68l25 29l36 -35q10 -11 -4 -17zM926 944
q-1 22 -21 37l8 11l63 -29q9 -5 10 -8q2 -3 -4 -6q-11 -6 -23 -16v-822q0 -27 -5 -39q-4 -12 -18 -23q-15 -11 -36 -15q-7 18 -15 25q-10 8 -54 18l2 15l37 -6q29 -4 40 -1q15 3 16 48v811zM767 602q-1 20 -21 38l8 11l62 -30q10 -5 11 -8q2 -3 -4 -6q-11 -6 -23 -16v-484
q0 -27 -5 -39q-6 -12 -18 -23q-16 -11 -37 -15q-6 18 -13 25q-10 8 -54 18l2 15l36 -6q25 -4 40 -1q14 3 16 48v473zM833 800l67 -28q14 -5 6 -11q-18 -4 -28 -17v-431l2 -57q0 -16 -9 -30q-9 -9 -32 -14q4 37 7 148v394q2 16 -22 34zM632 999l55 -30q16 -12 7 -15
q-12 -2 -25 -8l-15 -39q33 -16 84 -48q46 -33 64 -70q16 -39 -1 -51q-19 -13 -35 26q-20 42 -39 62q-21 21 -81 63q-69 -157 -156 -237l-8 9q66 93 111 192q43 100 41 115q-3 14 -11 23zM176 749v-413q26 -6 35 -3t7 50v366h-42zM682 568l57 -20q14 -5 6 -11q-4 -3 -11 -7
t-9 -6v-242l1 -57q0 -21 -7 -30q-9 -8 -33 -14q4 37 7 76v277q2 8 -16 24zM330 383h103v111h-103v-111zM433 364h-103v-108h103v108zM433 806l58 -32q4 -5 3 -8t-7 -4q-9 0 -21 -8q-14 -32 -62 -125h35l19 24l38 -35q4 -5 2 -7q-2 -1 -10 0h-156q-26 0 -43 -13l-31 31h124
q5 12 13 32q24 63 29 78q10 30 10 39q-1 8 -9 20zM618 441h-67v-135h67v135zM551 459h67v121h-67v-121zM258 850h181l19 27l49 -38q5 -5 3 -7q-2 -1 -11 0h-167q-26 0 -43 -13zM306 991q53 -20 75 -47t22 -52q-2 -25 -17 -27q-17 -3 -20 19q-3 21 -18 46q-12 22 -48 48z
M563 714h142l20 27l49 -38q4 -5 2 -7q-2 -1 -10 0h-129q-26 0 -43 -13zM282 802q36 -23 57 -50q18 -29 21 -59q2 -32 -16 -35q-17 -4 -19 24q-3 27 -11 54q-12 25 -38 58z" />
  </g>

</svg>
