<?xml version="1.0" standalone="no"?>
<!DOCTYPE svg PUBLIC "-//W3C//DTD SVG 1.1//EN" "http://www.w3.org/Graphics/SVG/1.1/DTD/svg11.dtd" >
<svg xmlns="http://www.w3.org/2000/svg" xmlns:xlink="http://www.w3.org/1999/xlink" version="1.1" viewBox="0 0 2048 2048">
  <g transform="matrix(1 0 0 -1 0 2048)">
   <path fill="currentColor"
d="M1331 628h408l108 114l131 -112q26 -23 21 -41t-25 -18h-893v-286q0 -83 7 -140q5 -44 4 -68q-2 -39 -56 -42q-52 -3 -52 32l2 504h-733q-64 0 -149 -11l-39 86q126 -18 188 -18h412q-30 12 -51 74q-33 94 -91 162q-31 37 -124 117l21 28q21 -14 73 -45
q252 -151 241 -280q-3 -34 -38 -56h290l1 486h-491q-69 0 -149 -11l-39 86q124 -17 188 -17h1064l80 80l114 -86q21 -16 16 -33q-6 -19 -26 -19h-663v-486h189q131 164 205 396l127 -55q38 -17 36 -38q-3 -26 -48 -29l-48 -3q-70 -144 -211 -271zM1137 1782q-27 -24 -59 -49
v-68q280 -56 459 -111q116 -37 194 -74q93 -45 105 -105q5 -27 -10 -47q-18 -26 -49 -20q-30 6 -171 109q-144 105 -528 211v-155q0 -81 7 -140q5 -43 4 -68q-2 -39 -56 -42q-52 -2 -52 32l3 412q-417 -278 -909 -369l-5 39q560 157 914 445h-652q-117 0 -192 -8l-39 89
q96 -23 231 -23h1375l108 114l131 -112q27 -23 22 -41q-6 -19 -26 -19h-805z" />
  </g>

</svg>
