<?xml version="1.0" standalone="no"?>
<!DOCTYPE svg PUBLIC "-//W3C//DTD SVG 1.1//EN" "http://www.w3.org/Graphics/SVG/1.1/DTD/svg11.dtd" >
<svg xmlns="http://www.w3.org/2000/svg" xmlns:xlink="http://www.w3.org/1999/xlink" version="1.1" viewBox="0 -205 1024 1024">
  <g transform="matrix(1 0 0 -1 0 819)">
   <path fill="currentColor"
d="M222 681l30 -23h504l17 21l42 -25q14 -10 0 -17l-14 -9v-77l5 -66q5 -29 -45 -36v31h-499q-2 -13 -11 -21q-10 -9 -36 -14q5 37 7 88v113q1 14 -10 26zM240 349l29 -19h469l13 21l52 -25q7 -6 5 -10q-1 -5 -11 -7l-12 -9v-47l5 -38q5 -23 -45 -31v26h-219v-120
q5 -59 -75 -78q6 27 -24 36q-30 7 -77 21l4 17l29 -6q53 -11 77 -10q25 0 28 38v102h-208v-9q0 -22 -47 -31q5 25 7 71v77q-1 14 -14 26zM280 226h465v88h-465v-88zM382 799l6 10q107 -32 110 -82q4 -25 -14 -30q-18 -4 -23 16q0 2 -2 6q-1 4 -2 6q-118 -9 -186 -15
q-72 -7 -95 -13t-44 -21l-24 50q20 0 43 9q38 12 108 57q33 21 71 50q-58 -4 -89 -6q-86 -3 -108 -24l-26 45q23 0 30 5q8 5 29 20t54 42t49 45q7 12 -2 23l8 8l54 -34q5 -4 5 -7q0 -4 -5 -6q-19 2 -33 -8q-52 -44 -120 -86l180 4l15 12q14 12 46 40q16 18 5 29l10 8l50 -39
q5 -4 5 -7q0 -4 -5 -6q-19 3 -31 -9q-102 -84 -230 -154l224 8l-3 3q-1 3 -2 4q-16 19 -58 47zM262 574h499v68h-499v-68zM663 1000l73 -20q6 -2 7 -5q0 -3 -5 -6q-14 -5 -22 -14q2 -21 -6 -56h176l22 25l38 -26q9 -6 9 -11q0 -4 -9 -8l-10 -9q-1 -21 -7 -58t-24 -65
q-27 -49 -118 -58q0 23 -59 44q-22 7 -34 12l4 14q10 -3 27 -7q80 -24 102 -17q23 4 39 26q28 35 30 120h-190l-6 -24q-32 -122 -207 -190l-6 12q76 48 115 86t58 94q5 11 6 22h-73q-28 1 -40 -14l-36 32h153q7 35 4 68q0 12 -17 24zM761 560h-499v-64h499v64zM39 409h850
l26 40l57 -44q11 -7 8 -10q-2 -3 -19 -2h-843q-27 1 -45 -17zM608 163l5 16q326 -52 308 -138q-12 -19 -49 13q-36 31 -95 56q-58 25 -169 53zM322 187l50 -30q9 -2 10 -6q2 -2 -3 -7q-10 1 -27 -3q-116 -69 -286 -105l-5 13q229 83 253 114q3 12 -1 19zM422 467l4 11
q76 -7 98 -29q22 -27 -4 -38q-13 -2 -23 13q-9 15 -24 21q-4 2 -15 6q-21 9 -36 16z" />
  </g>

</svg>
