<?xml version="1.0" standalone="no"?>
<!DOCTYPE svg PUBLIC "-//W3C//DTD SVG 1.1//EN" "http://www.w3.org/Graphics/SVG/1.1/DTD/svg11.dtd" >
<svg xmlns="http://www.w3.org/2000/svg" xmlns:xlink="http://www.w3.org/1999/xlink" version="1.1" viewBox="0 0 2048 2048">
  <g transform="matrix(1 0 0 -1 0 2048)">
   <path fill="currentColor"
d="M812 1314h778l91 99l126 -98q16 -13 18 -24q3 -32 -26 -32h-562v-378h477l97 108l134 -99q26 -19 24 -39q-3 -24 -28 -24h-704v-612h454q1 438 -6 502l120 -27q58 -13 62 -47q3 -27 -45 -39l-35 -9v-301q0 -35 3 -68q6 -60 5 -76q-1 -20 -17 -29q-36 -21 -64 -13
q-21 5 -21 19v30l-1022 1q-16 -8 -42 -8q-42 0 -42 50v363q-1 103 -6 162l121 -31q58 -15 61 -43q2 -27 -45 -39l-35 -9v-269q1 -59 4 -74q4 -23 4 -45h446v612h-435q-136 0 -192 -6l-38 84q91 -24 230 -24h435v378h-363q-119 -146 -275 -238l-22 35q129 111 208 228
q90 133 139 317l130 -36q57 -16 47 -48q-7 -22 -47 -28l-46 -8q-49 -98 -96 -167zM913 1958q216 -84 228 -171q6 -40 -29 -89h582l108 114l131 -112q27 -23 22 -40q-6 -19 -26 -19l-1566 1v-554q0 -320 -40 -541q-32 -175 -96 -302q-38 -77 -127 -190l-32 25q85 142 119 256
q81 274 81 778l-1 405q0 64 -6 251l110 -72h686q-11 23 -34 77q-22 55 -132 152z" />
  </g>

</svg>
