<?xml version="1.0" standalone="no"?>
<!DOCTYPE svg PUBLIC "-//W3C//DTD SVG 1.1//EN" "http://www.w3.org/Graphics/SVG/1.1/DTD/svg11.dtd" >
<svg xmlns="http://www.w3.org/2000/svg" xmlns:xlink="http://www.w3.org/1999/xlink" version="1.1" viewBox="0 0 2048 2048">
  <g transform="matrix(1 0 0 -1 0 2048)">
   <path fill="currentColor"
d="M638 395v-37q0 -46 -69 -39q-42 3 -39 52l4 55q8 129 8 142l1 285l117 -64h443v199h-404v-37q0 -45 -69 -40q-42 3 -39 53l4 54q8 135 8 143v253l118 -63h382v71q0 114 -8 160l109 -24q83 -18 86 -44t-50 -43l-41 -13v-107h394l61 71l72 -49q37 -25 42 -44q5 -20 -25 -37
q-7 -4 -13 -7q-9 -4 -27 -14v-228q21 4 31 0q15 -5 23 -25q5 -13 3 -20q-3 -10 -17 -10h-544v-199h478l61 72l72 -50q37 -25 41 -43q5 -20 -25 -38l-12 -6q-9 -5 -26 -15v-238q66 -43 57 -66q-5 -10 -27 -10h-619v-99q0 -80 6 -140q5 -42 4 -67q-2 -39 -55 -42t-53 32l2 316
h-465zM638 731v-279h465v279h-465zM699 1292v-248h404v248h-404zM1199 1292v-248h408v248h-408zM1199 731v-279h493v279h-493zM961 1950q170 -93 196 -158q27 -66 -28 -108h558l108 113l131 -113q27 -23 22 -40q-5 -18 -26 -18h-1555v-737q0 -264 -68 -498
q-56 -191 -200 -355l-33 31q123 180 164 389q43 221 43 533v452q0 196 -11 326l125 -83h696q-10 20 -22 63q-19 72 -126 172z" />
  </g>

</svg>
