<?xml version="1.0" standalone="no"?>
<!DOCTYPE svg PUBLIC "-//W3C//DTD SVG 1.1//EN" "http://www.w3.org/Graphics/SVG/1.1/DTD/svg11.dtd" >
<svg xmlns="http://www.w3.org/2000/svg" xmlns:xlink="http://www.w3.org/1999/xlink" version="1.1" viewBox="0 0 2048 2048">
  <g transform="matrix(1 0 0 -1 0 2048)">
   <path fill="currentColor"
d="M1220 1208h-114q-108 0 -192 -8l-38 88q96 -23 230 -23h186v170q0 115 -8 160l109 -24q82 -18 86 -44q3 -22 -52 -41l-39 -14v-207h254l99 102l120 -107q21 -18 16 -34q-6 -18 -26 -18h-463v-25q438 -214 459 -353q5 -30 -12.5 -51t-43.5 -17q-34 5 -80 72
q-99 143 -323 298l1 -279q0 -92 12 -193q3 -29 3 -54q0 -39 -50 -42q-62 -4 -62 42v515q-74 -117 -165 -209q-69 -71 -257 -195l-22 34q134 115 223 231q54 68 149 226zM631 1216q-54 -73 -231 -213l-21 29q222 234 358 580l139 -83q29 -17 24 -39q-5 -23 -39 -24l-63 -1
q-26 -40 -38 -60q-30 -49 -54 -82l62 -27q27 -12 30 -26q5 -21 -26 -35l-45 -20v-381q0 -73 7 -201q3 -51 -7 -64q-12 -15 -47 -15q-24 0 -37 8q-12 8 -12 42v612zM970 1961q36 -21 54 -31q173 -95 177 -182q2 -37 -35 -66h534l108 114l131 -112q27 -23 22 -40
q-6 -19 -26 -19h-1568l1 -500q0 -385 -65 -637q-66 -253 -230 -441l-28 21q134 217 177 438q51 266 51 597v460q0 39 -7 191l114 -72h744q-18 11 -25 32q-26 76 -63 123q-8 11 -89 94zM594 540l37 -11q-32 -199 -81 -295q-78 -153 -162 -153q-29 0 -45 20q-15 20 -7 47
q7 27 27 42l57 39q117 82 174 311zM907 533q99 -186 99 -330q0 -93 -53 -106q-55 -14 -55 48q0 17 7 91q2 21 2 77q0 66 -34 211zM1260 536q212 -246 196 -379q-3 -21 -19 -37q-17 -18 -38 -16q-35 2 -51 52q-4 11 -18 107q-5 41 -51 157q-16 39 -49 96zM1629 544
q292 -216 309 -376q8 -73 -45 -79q-49 -7 -69 72q-47 185 -220 353z" />
  </g>

</svg>
