<?xml version="1.0" standalone="no"?>
<!DOCTYPE svg PUBLIC "-//W3C//DTD SVG 1.1//EN" "http://www.w3.org/Graphics/SVG/1.1/DTD/svg11.dtd" >
<svg xmlns="http://www.w3.org/2000/svg" xmlns:xlink="http://www.w3.org/1999/xlink" version="1.1" viewBox="0 -205 1024 1024">
  <g transform="matrix(1 0 0 -1 0 819)">
   <path fill="currentColor"
d="M564 964l30 -36h299l39 39l44 -47q7 -6 5 -10q-1 -5 -11 -7l-18 -9v-684l3 -128q-1 -32 -43 -33v82h-305l2 -43q2 -37 -51 -46q5 39 7 187v688q-3 19 -17 34zM606 150h306v758h-307v-725zM256 474v-151q2 -127 -11 -159q-13 -29 -40 -52q-27 -22 -81 -32q0 18 -22 36
q-28 19 -66 26l2 12q66 -14 102 -15q35 -1 58 22q24 25 22 140v184h-101l-22 -33l-44 31q19 12 23 36l8 173q-3 26 -23 51l13 13l37 -44h115v200h-103q-18 2 -38 -14l-35 34h166l25 33l45 -35q7 -6 5 -10t-13 -6l-16 -14v-154l5 -65q1 -29 -41 -33v44h-107l-7 -187h98l30 35
l40 -34q11 -12 0 -19zM504 460v-163q2 -107 -13 -143q-15 -34 -42 -56t-81 -32q0 18 -22 36q-28 19 -66 26l2 14q66 -16 102 -17q35 -2 60 26q26 29 24 124v196h-105l-22 -33l-44 31q19 12 23 36l8 173q-3 26 -23 51l13 13l35 -34h103v202h-73q-18 2 -38 -14l-35 34h136
l25 33l41 -35q7 -6 6 -10t-10 -6l-16 -14v-154l5 -65q2 -30 -41 -33v42h-93l-7 -197h102l30 35l36 -34q11 -6 11 -11q0 -4 -11 -8zM802 510q4 -4 3 -6t-6 -2q-13 -1 -27 -13q-9 -31 -20 -60q69 -48 99 -93q31 -45 37 -83q5 -39 -18 -45q-20 -4 -25 34t-32 86q-23 41 -67 84
q-15 -38 -32 -73q-34 -68 -88 -130l-8 10q68 112 104 237q14 51 11 60q-1 9 -12 24l11 5zM810 842q4 -4 3 -6t-6 -2q-13 -1 -27 -13q-11 -38 -25 -74q65 -35 92 -70q29 -37 36 -72q5 -36 -17 -41q-20 -4 -26 32t-32 73q-21 29 -60 60q-12 -30 -26 -58q-34 -68 -88 -130
l-8 10q68 112 104 237q14 51 11 60q-1 9 -12 24l11 5z" />
  </g>

</svg>
