<?xml version="1.0" standalone="no"?>
<!DOCTYPE svg PUBLIC "-//W3C//DTD SVG 1.1//EN" "http://www.w3.org/Graphics/SVG/1.1/DTD/svg11.dtd" >
<svg xmlns="http://www.w3.org/2000/svg" xmlns:xlink="http://www.w3.org/1999/xlink" version="1.1" viewBox="0 0 2048 2048">
  <g transform="matrix(1 0 0 -1 0 2048)">
   <path fill="currentColor"
d="M1144 283q-170 -32 -403 -58l-6 -18q-6 -19 -20 -20q-20 -2 -32 28l-39 95q74 37 154 115q69 67 101 132l113 -54q22 -10 28 -28q7 -24 -81 -25q-87 -71 -174 -121q-33 -20 -44 -25q220 7 302 15q32 3 77 6q-35 45 -84 84l22 28q21 -13 32 -19q96 -54 120 -80
q36 -39 36 -74q0 -21 -19 -36q-13 -10 -29 -9q-24 3 -41 39q-6 13 -13 25zM1053 1778v-148h216l71 72l90 -69q32 -24 30 -40q-1 -19 -22 -19h-385v-444h224l70 72l91 -69q31 -24 30 -40q-1 -19 -23 -19h-392v-226h201v65q-4 101 -5 110l-2 13l115 -17q56 -9 55 -35
q-1 -21 -42 -32l-29 -7l1 -154q0 -29 -50 -29q-47 0 -43 37l-511 1q-23 -8 -41 -12q-55 -11 -55 44v79q-4 101 -5 109l-2 14l114 -18q57 -8 55 -34q-1 -21 -41 -32l-29 -7l1 -94l220 -1v226h-233q-80 1 -133 -4q-10 -1 -17 -1l-30 76q78 -15 167 -15h246v444h-195
q-80 1 -133 -4q-10 -1 -17 -1l-29 76q78 -15 167 -15h207v137q-23 -2 -53 -5q-23 -2 -71 -6q-79 -7 -146 -9l-8 45q159 20 252 40q137 31 276 97l59 -41q57 -40 61 -62q6 -31 -42 -24l-54 8q-90 -18 -181 -32zM509 874q-6 -69 -15 -192q-26 -385 -99 -499q-53 -81 -146 -97
q-9 50 -55 86q-38 28 -112 58l12 38q123 -52 168 -52q42 0 63 30q58 84 78 420q4 62 16 238h-231q-24 -11 -59 -11q-29 0 -30 18q-1 15 3 44l18 105q33 193 41 402l103 -69h157v390h-100q-70 0 -157 -11l-42 90q102 -22 219 -23h66l61 71l73 -50q42 -29 44 -45
q2 -22 -68 -56l-1 -348q13 -9 20 -13q36 -23 34 -44q-1 -17 -24 -17h-301q-19 -168 -50 -379h208l61 65l61 -41q51 -35 47 -57q-4 -23 -63 -51zM731 775l108 -34q60 -19 50 -44q-4 -12 -49 -19l-29 -4l-30 -44h539l60 65l73 -47q47 -31 43 -54q-3 -23 -43 -36l-29 -9
q-4 -41 -15 -152q-20 -155 -27 -184q-27 -102 -82 -129q-31 -15 -83 -23q-5 53 -34 70q-20 11 -108 31l7 37q24 -2 35 -4q113 -16 132 -11q46 14 67 243q2 29 14 146h-589q-81 -92 -181 -167l-25 29q141 159 196 340zM866 1427l67 -68q14 -13 11 -30q-3 -18 -22 -18h-157
v-100q0 -27 -46 -30q-38 -2 -38 24v106h-92v58l92 -1v36q0 18 -2 65l-2 36q0 5 -1 7l-1 14l105 -18q53 -8 53 -34q0 -20 -40 -31l-28 -8v-67h36zM1073 1316v57h111v26q-3 96 -5 110l-1 14l109 -18q52 -9 51 -35q-1 -21 -38 -32l-27 -7v-58h26l62 64l82 -70q10 -9 13 -20
q7 -32 -24 -32h-159l2 -106q1 -27 -53 -30q-38 -2 -38 27v110h-111zM1448 1776l-41 90q101 -23 219 -22h127l61 72l73 -51q42 -29 44 -45q2 -21 -68 -55v-345l25 -17q33 -22 35 -42q2 -21 -17 -21l-306 1l-23 -386h205l61 71l73 -50q42 -29 44 -46q2 -21 -68 -55
q-36 -449 -74 -577q-54 -181 -205 -220q-5 50 -53 80q-32 19 -122 49l11 40q21 -5 71 -17q71 -18 98 -18q84 0 122 171q39 176 57 518h-221q-37 -9 -57 -9q-38 0 -38 33q0 12 4 49q10 80 19 320l6 172l104 -70h158v391h-166q-71 0 -158 -11z" />
  </g>

</svg>
