<?xml version="1.0" standalone="no"?>
<!DOCTYPE svg PUBLIC "-//W3C//DTD SVG 1.1//EN" "http://www.w3.org/Graphics/SVG/1.1/DTD/svg11.dtd" >
<svg xmlns="http://www.w3.org/2000/svg" xmlns:xlink="http://www.w3.org/1999/xlink" version="1.1" viewBox="0 0 2048 2048">
  <g transform="matrix(1 0 0 -1 0 2048)">
   <path fill="currentColor"
d="M1277 1486q158 -52 164 -133q3 -33 -25 -42q-30 -9 -58 40q-30 53 -102 100q-51 -76 -130 -159l-23 22q98 166 137 322l105 -44q29 -12 27 -29t-31 -22l-37 -6q-13 -24 -27 -49zM806 1471q111 -42 116 -111q3 -33 -24 -41t-50 36q-21 41 -67 77q-49 -72 -124 -151l-24 21
q97 164 137 323l105 -45q30 -12 27 -29q-2 -17 -30 -21l-38 -7l-22 -40zM1017 1187l63 -31q51 -25 48 -46q-5 -28 -68 -23q-9 0 -27 1q-94 -81 -234 -179q43 0 201 3q21 1 83 2q72 76 126 165l83 -52q50 -31 44 -53q-4 -17 -25 -19q-13 -2 -32 2q-11 1 -34 3
q-182 -175 -468 -320q252 4 511 25q-49 96 -105 155l26 24q91 -76 135 -122q84 -85 84 -146q0 -65 -57 -61q-36 3 -48 48q-11 44 -20 66q-70 -18 -213 -38v-379q0 -68 -39 -104q-36 -32 -114 -53q1 13 2 23q3 56 -70 80q-45 14 -115 25v41q20 -4 88 -11q89 -12 115 -12
q40 0 40 42v335l-57 -9l-57 -8l-90 -13q-3 -16 -5 -23q-6 -38 -25 -36t-32 49l-30 111q199 95 340 226l-22 -4q-133 -21 -205 -32q-8 -53 -23 -59q-24 -9 -38 43l-25 89q103 82 170 169q22 29 76 106h-181q-67 0 -148 -10l-40 85q123 -17 188 -17l186 -1v432h-125
q-62 0 -148 -11l-40 86q125 -17 188 -18h125v64q0 115 -8 160l106 -24q82 -19 85 -44q4 -26 -50 -44l-41 -13v-99l107 -1l80 81l114 -86q21 -16 16 -34q-6 -18 -26 -18l-291 1v-432l149 -1l80 81l114 -86q21 -16 15 -33q-5 -19 -25 -19zM773 486l84 -47q47 -26 41 -44
q-4 -13 -83 -25q-118 -125 -241 -199l-23 29q157 134 222 286zM1190 493q28 -19 42 -29q163 -111 170 -200q3 -37 -21 -56q-22 -17 -45 -8q-19 7 -46 88q-27 78 -121 177zM1779 973l64 78l83 -55q40 -26 40 -48q0 -28 -77 -62q-12 -458 -65 -637q-34 -115 -122 -149
q-36 -14 -128 -23q1 12 1 24q0 56 -134 113l10 40q67 -21 91 -29q75 -24 107 -20q66 9 96 119q39 148 47 593h-213q-18 -11 -36 -15q-51 -12 -58 19q-2 9 16 70q29 102 49 269q13 112 14 187l105 -66h105v393h-158q-68 0 -148 -11l-40 86q119 -18 188 -18h145l61 74l71 -49
q38 -26 43 -44q5 -20 -26 -37q-6 -4 -13 -7q-9 -4 -26 -14v-346q18 -15 27 -21q25 -18 27 -30q7 -29 -17 -29h-259q-38 -247 -60 -355h190zM464 973l65 78l83 -55q40 -26 40 -48q0 -28 -77 -62q-13 -462 -66 -637q-34 -115 -121 -149q-36 -14 -129 -23q1 12 1 24
q0 58 -172 121l10 40q34 -10 110 -33q92 -28 124 -26q67 6 98 121q36 136 47 593h-201q-20 -11 -36 -15q-47 -9 -57 17q-4 11 15 72q23 73 49 272q12 97 14 184l105 -66l118 1v391l-189 1q-69 0 -149 -11l-39 86q118 -18 188 -18h174l60 74l72 -49q38 -26 43 -44
q5 -20 -26 -37q-6 -4 -13 -7q-9 -4 -26 -14v-346q18 -15 27 -21q25 -18 27 -30q7 -29 -17 -29h-266q-41 -256 -62 -355h176z" />
  </g>

</svg>
