<?xml version="1.0" standalone="no"?>
<!DOCTYPE svg PUBLIC "-//W3C//DTD SVG 1.1//EN" "http://www.w3.org/Graphics/SVG/1.1/DTD/svg11.dtd" >
<svg xmlns="http://www.w3.org/2000/svg" xmlns:xlink="http://www.w3.org/1999/xlink" version="1.1" viewBox="0 -205 1024 1024">
  <g transform="matrix(1 0 0 -1 0 819)">
   <path fill="currentColor"
d="M188 607l43 -52h546l29 29l52 -35q7 -6 5 -10q-1 -5 -11 -7l-18 -9v-192l4 -88q7 -40 -50 -44v58h-253v-118l2 -56q2 -36 -55 -46q5 39 7 147v73h-252v-23q4 -47 -53 -54q5 39 7 83v290q-4 24 -18 42zM987 663q7 -5 6 -8q-1 -2 -12 -2h-842q-28 0 -46 -13l-34 33h672v110
h-427q-27 0 -45 -13l-34 31h506v110h-494q-18 2 -36 -12l-32 32h547l35 39l50 -47q7 -6 6 -10q-1 -5 -10 -6l-20 -8v-226h109l33 41zM535 413h253v124h-253v-124zM489 537h-252v-124h252v124zM788 397h-253v-122h253v122zM489 397h-252v-122h252v122z" />
  </g>

</svg>
