<?xml version="1.0" standalone="no"?>
<!DOCTYPE svg PUBLIC "-//W3C//DTD SVG 1.1//EN" "http://www.w3.org/Graphics/SVG/1.1/DTD/svg11.dtd" >
<svg xmlns="http://www.w3.org/2000/svg" xmlns:xlink="http://www.w3.org/1999/xlink" version="1.1" viewBox="0 -205 1024 1024">
  <g transform="matrix(1 0 0 -1 0 819)">
   <path fill="currentColor"
d="M684 839q4 -3 3 -5q0 -2 -4 -4q-17 -2 -35 -17v-199l93 46v271q2 16 -30 46l9 12l85 -36q14 -5 6 -11q-21 -7 -30 -21v-241l91 45l36 43l48 -47q6 -4 5 -8q-2 -4 -11 -8l-20 -17q1 -97 0 -145q0 -53 -1 -89q-3 -73 -11 -100q-10 -31 -64 -42q7 30 -54 37q-10 2 -16 3
l2 16q86 -13 92 17q6 17 8 87q2 72 0 235l-105 -51v-356l2 -57q1 -36 -49 -43q5 36 7 147v289l-93 -45v-402q0 -71 14 -80q15 -9 36 -11t108 -2h75q21 0 28 1q17 1 27 5q12 4 16 24q5 19 7 40q2 22 3 110h14q5 -81 6 -110q2 -28 28 -39q-21 -51 -56 -57q-16 -5 -118 -6
t-142 2q-39 2 -53 8q-13 6 -27 27q-13 21 -12 68v399l-38 -18q-28 -13 -31 -30l-35 21l104 51v230q-1 17 -22 40l8 10zM372 977l80 -34q14 -5 6 -11q-16 -4 -27 -18v-251h48l32 32l56 -42q8 -5 7 -8q-2 -2 -13 -2h-130v-369l139 56l8 -18l-246 -119q-40 -24 -50 -52l-36 60
l143 57v385h-51q-27 1 -45 -13l-28 33h124v261q2 17 -25 42zM223 748l62 -32q7 -5 6 -8q0 -4 -8 -5q-13 -1 -25 -13q-20 -54 -65 -128v-381l2 -103q4 -39 -53 -46q5 39 7 187v278q-51 -64 -126 -115l-8 10q117 127 173 245q33 68 32 78q0 11 -6 24zM215 969l56 -38
q7 -5 6 -8q0 -4 -8 -5q-13 -1 -23 -9q-24 -30 -90 -99q-66 -67 -134 -102l-6 12q106 96 159 166q34 45 34 55q1 11 -5 24z" />
  </g>

</svg>
