<?xml version="1.0" standalone="no"?>
<!DOCTYPE svg PUBLIC "-//W3C//DTD SVG 1.1//EN" "http://www.w3.org/Graphics/SVG/1.1/DTD/svg11.dtd" >
<svg xmlns="http://www.w3.org/2000/svg" xmlns:xlink="http://www.w3.org/1999/xlink" version="1.1" viewBox="0 -205 1024 1024">
  <g transform="matrix(1 0 0 -1 0 819)">
   <path fill="currentColor"
d="M671 948q3 -10 -7 -10q-18 3 -27 -13q-24 -89 -55 -166h296l29 36l61 -45q6 -13 -7 -16q-11 -1 -17 -7q-5 -5 -14 -43q-8 -38 -61 -169q-96 -254 -314 -380q-112 -69 -250 -109l-4 18q140 63 218 110q78 50 158 138q80 89 134 211t82 236h-320q-17 -42 -37 -80
q-10 -22 -24 -43q62 -39 109 -93q53 -59 57 -110q5 -51 -24 -57q-28 -6 -31 36q-2 43 -38 101q-32 53 -83 106q-51 -82 -119 -154l-12 10q81 116 124 207q44 91 72 191q30 100 25 109q-4 9 -14 24l11 5zM183 996l91 -36q14 -5 6 -11q-21 -7 -30 -21v-762l2 -95
q2 -36 -55 -46q5 39 7 187v726q2 16 -30 46zM135 736q18 -156 -29 -199q-25 -25 -46 -9q-21 17 4 42t38 58q14 33 18 108h15zM269 768l4 14q83 -34 110 -89q25 -59 -15 -68q-17 -1 -25 31t-28 61q-19 30 -46 51z" />
  </g>

</svg>
