<?xml version="1.0" standalone="no"?>
<!DOCTYPE svg PUBLIC "-//W3C//DTD SVG 1.1//EN" "http://www.w3.org/Graphics/SVG/1.1/DTD/svg11.dtd" >
<svg xmlns="http://www.w3.org/2000/svg" xmlns:xlink="http://www.w3.org/1999/xlink" version="1.1" viewBox="0 0 2048 2048">
  <g transform="matrix(1 0 0 -1 0 2048)">
   <path fill="currentColor"
d="M1450 1311l1 30l1 55v384q1 113 -8 159l110 -24q82 -19 85 -44q3 -27 -50 -44l-43 -13v-436q0 -35 -1 -67h240v308q0 116 -8 161l109 -26q82 -19 85 -43q3 -27 -50 -44l-41 -13v-218q0 -80 7 -140q5 -43 4 -68q-2 -39 -53 -42q-53 -4 -53 32v36h-244q-18 -185 -93 -292
q-66 -95 -161 -161l-20 26q166 179 180 427h-243q-33 -14 -56 -11q-39 4 -39 54v330q0 117 -8 160l109 -24q82 -18 85 -44t-50 -43l-41 -14v-351h246zM602 1316h208v334q0 118 -7 160l109 -24q82 -19 85 -44q4 -26 -50 -44l-41 -13v-255q0 -80 7 -139q5 -44 3 -69
q-2 -39 -54 -42q-52 -2 -52 33v46h-212q-20 -194 -149 -317q-100 -95 -255 -168l-14 30q165 104 244 224q64 97 77 231h-220q-28 -9 -45 -9q-49 0 -49 58v338q-2 121 -8 160l109 -26q82 -19 85 -42q4 -27 -50 -44l-42 -13v-365h225q1 34 3 80l1 384q0 112 -9 159l110 -24
q82 -19 85 -44q3 -27 -50 -44l-43 -13v-436q0 -34 -1 -62zM348 722l41 -6q-6 -173 -43 -282q-60 -172 -178 -187q-78 -10 -73 57q3 35 62 70q161 94 191 348zM909 960q328 -133 339 -259q4 -48 -38 -63q-37 -13 -62 15q-7 8 -35 59q-59 104 -222 212zM1616 760
q137 -96 202 -158q121 -119 121 -222q0 -39 -20 -57q-24 -23 -54 -14q-32 10 -49 75q-27 102 -88 191q-45 65 -142 155zM1492 558l42 -8q-3 -108 -3 -136q0 -78 14 -110q4 -10 49 -41q20 -14 19 -34q-6 -64 -179 -86q-121 -16 -422 -16q-299 0 -369 36q-56 30 -56 128
l-1 331q0 121 -8 160l110 -24q82 -18 85 -44q3 -29 -49 -43l-42 -11v-333q0 -76 72 -90q72 -15 298 -15q239 0 314 16q68 14 85 66q16 46 41 254z" />
  </g>

</svg>
