<?xml version="1.0" standalone="no"?>
<!DOCTYPE svg PUBLIC "-//W3C//DTD SVG 1.1//EN" "http://www.w3.org/Graphics/SVG/1.1/DTD/svg11.dtd" >
<svg xmlns="http://www.w3.org/2000/svg" xmlns:xlink="http://www.w3.org/1999/xlink" version="1.1" viewBox="0 0 2048 2048">
  <g transform="matrix(1 0 0 -1 0 2048)">
   <path fill="currentColor"
d="M1334 1047v-217h342l99 101l120 -107q21 -18 16 -33q-6 -19 -26 -19h-551v-238h441l98 101l121 -107q20 -18 15 -33q-5 -19 -25 -19h-650v-107q0 -106 12 -219q3 -28 3 -53q0 -39 -49 -42q-62 -4 -62 42v379h-371q-117 0 -192 -8l-38 88q95 -22 230 -22h371v238h-295
q-118 0 -192 -8l-38 88q99 -22 230 -22h295v217h-180q-108 0 -192 -8l-38 88q94 -23 230 -23h180v246h-291q-117 0 -192 -8l-38 88q95 -23 230 -23h291v219h-197q-118 0 -192 -8l-39 88q97 -23 231 -23h197v100q0 118 -8 160l109 -24q82 -18 85 -43q4 -27 -50 -44l-40 -13
v-136h330l63 68l72 -51q32 -23 34 -46q2 -26 -68 -56v-191h3l98 102l121 -107q20 -18 15 -33q-6 -19 -26 -19h-211v-225l30 -26q26 -20 25 -33q-2 -19 -18 -19h-468zM1334 1104l340 -1v247h-340v-246zM1334 1407h340v219h-340v-219zM222 1596l43 -4q0 -212 -20 -314
q-33 -162 -126 -182q-24 -6 -42 11q-15 14 -15 38q0 31 49 91q68 82 91 193q10 48 20 167zM449 1569q213 -146 213 -283q0 -69 -54 -72q-29 -2 -48 34q-6 11 -27 98q-18 77 -84 150v-1134q0 -107 12 -209q3 -27 3 -54q0 -38 -49 -42q-61 -4 -61 42v1687q0 113 -7 160
l113 -21q77 -15 82 -47q4 -29 -50 -43l-43 -12v-254z" />
  </g>

</svg>
