<?xml version="1.0" standalone="no"?>
<!DOCTYPE svg PUBLIC "-//W3C//DTD SVG 1.1//EN" "http://www.w3.org/Graphics/SVG/1.1/DTD/svg11.dtd" >
<svg xmlns="http://www.w3.org/2000/svg" xmlns:xlink="http://www.w3.org/1999/xlink" version="1.1" viewBox="0 -205 1024 1024">
  <g transform="matrix(1 0 0 -1 0 819)">
   <path fill="currentColor"
d="M472 994l88 -34q14 -5 6 -11q-17 -4 -29 -18v-64h230l35 42l68 -50q11 -7 8 -10q-2 -3 -19 -2h-322v-96h343l37 39l59 -61q2 -5 -1 -7q-2 -2 -9 0q-35 -3 -55 -19q-4 -3 -6 -5q-14 -10 -67 -63l-13 8l58 88h-741v-1q-9 -80 -52 -97q-21 -9 -33 7t9 32q21 17 38 42
q17 26 27 93h15q0 -16 -2 -53q2 27 0 -3h347v96h-259q-27 1 -45 -13l-30 33h334v74q2 17 -27 42zM719 615q-86 -31 -170 -67l12 -4q9 -4 11 -7q2 -4 -4 -7q-18 -5 -31 -16v-13h304l35 42l68 -50q11 -7 8 -10q-2 -3 -19 -2h-396v-87q3 -56 -84 -69q5 31 -105 56l4 16l32 -6
q68 -14 87 -8t20 40v58h-347q-27 1 -45 -13l-30 33h422v18q-1 23 -26 42l8 11l49 -16q63 39 160 82h-420q-16 -2 -33 -14l-34 32h506l37 26l45 -52q4 -10 -10 -9q-21 5 -54 -6zM340 272q4 -3 3 -5q0 -2 -4 -4q-17 -2 -35 -17v-92q1 -56 17 -67q17 -11 47 -12q30 -3 102 -4
q156 1 200 7q50 8 54 40q1 13 4 38q4 49 6 75h15l2 -59q3 -57 33 -66q-19 -36 -34 -46q-14 -10 -43 -17q-28 -7 -225 -8q-88 1 -127 4q-100 1 -97 93v123q-3 23 -30 46l8 10zM772 297l6 14q114 -45 145 -107q31 -63 -9 -77q-20 -3 -28 24q-7 29 -35 71q-28 44 -79 75z
M161 246q7 -129 -57 -174q-31 -23 -47 0q-16 22 11 40t47 42q20 26 29 92h17zM409 315l4 12q90 -22 127 -69q41 -58 -2 -76q-21 -4 -28 24q-7 29 -37 59t-64 50z" />
  </g>

</svg>
