<?xml version="1.0" standalone="no"?>
<!DOCTYPE svg PUBLIC "-//W3C//DTD SVG 1.1//EN" "http://www.w3.org/Graphics/SVG/1.1/DTD/svg11.dtd" >
<svg xmlns="http://www.w3.org/2000/svg" xmlns:xlink="http://www.w3.org/1999/xlink" version="1.1" viewBox="0 0 2048 2048">
  <g transform="matrix(1 0 0 -1 0 2048)">
   <path fill="currentColor"
d="M1242 1314l-299 1v-23q0 -35 -48 -38q-60 -4 -58 45l3 56q1 45 3 65q6 83 6 107l-2 236q-1 65 -10 130l113 -84h773l68 76l83 -54q40 -26 40 -49q0 -27 -77 -61l-1 -320l27 -18q50 -33 46 -53q-3 -17 -26 -17l-575 1l42 -13q63 -19 63 -42q0 -21 -39 -28l-23 -4
q92 -93 259 -181q180 -95 413 -140l-5 -33q-91 -6 -128 -75q-266 85 -560 385l-20 19q-253 -307 -657 -463l-19 32q237 121 407 281q142 135 201 262zM943 1371h798v384h-798v-384zM1466 825l109 -24q83 -18 86 -43q3 -30 -50 -44l-42 -11v-343q0 -107 12 -210q3 -28 3 -54
q0 -38 -49 -41q-63 -5 -63 41l1 333l1 236q0 116 -8 160zM234 1592l43 -4q0 -212 -20 -314q-33 -163 -126 -183q-24 -5 -42 12q-15 14 -15 38q0 31 49 91q68 82 91 193q10 48 20 167zM1016 844l139 -32q53 -12 55 -36q3 -30 -49 -44l-42 -11q1 -26 1 -35q0 -245 -88 -380
q-69 -104 -177 -170q-57 -35 -159 -84l-19 43q206 106 282 246q64 120 64 343q0 98 -7 160zM503 1573q224 -149 224 -291q0 -69 -53 -73q-29 -1 -49 36q-5 10 -27 88q-27 97 -95 172v-1147q0 -104 12 -209q3 -28 3 -54q0 -38 -49 -42q-62 -4 -62 42l1 1687q0 120 -7 160
l109 -24q82 -18 85 -44q4 -30 -49 -43l-42 -12z" />
  </g>

</svg>
