<?xml version="1.0" standalone="no"?>
<!DOCTYPE svg PUBLIC "-//W3C//DTD SVG 1.1//EN" "http://www.w3.org/Graphics/SVG/1.1/DTD/svg11.dtd" >
<svg xmlns="http://www.w3.org/2000/svg" xmlns:xlink="http://www.w3.org/1999/xlink" version="1.1" viewBox="0 -205 1024 1024">
  <g transform="matrix(1 0 0 -1 0 819)">
   <path fill="currentColor"
d="M748 984l66 -52q8 -11 4 -15t-20 -1q-13 4 -60 -4q-122 -20 -209 -29v-112h290l32 40l68 -48q6 -5 4 -8q-3 -2 -14 -2h-170v-136h144l32 40l68 -50q8 -5 7 -8q-2 -2 -13 -2h-238v-122h106l32 40l68 -48q8 -5 7 -8q-2 -2 -13 -2h-410v-102h246l32 40l68 -48q8 -5 7 -8
q-2 -2 -13 -2h-643q-27 1 -45 -13l-34 31h338v102h-297q-27 1 -45 -13l-34 31h166v122h-145q-27 1 -45 -13l-34 33h224v136h-85q-27 1 -45 -13l-34 31h374v107h-11q-102 -7 -322 -12v18q182 12 285 23q104 11 192 25q89 14 100 23t8 27zM350 245q4 -3 3 -5q0 -2 -4 -4
q-17 -2 -35 -17v-64q-1 -75 62 -75q28 -3 124 -4q137 1 180 3q50 8 54 44q5 46 2 109h15l10 -59q3 -61 31 -66q-19 -36 -33 -45q-13 -9 -42 -16t-205 -8q-112 1 -147 4q-98 2 -95 91v95q-3 23 -30 46l8 10zM699 753h-170v-136h170v136zM485 753h-170v-136h170v136zM699 597
h-170v-122h170v122zM485 597h-170v-122h170v122zM802 250l6 14q115 -45 145 -106q31 -64 -9 -78q-20 -3 -28 27q-7 30 -35 70q-28 41 -79 73zM143 239q7 -129 -56 -173q-30 -21 -46 -1t10 38t46 45q20 25 29 91h17zM415 292l4 12q84 -25 124 -69q42 -53 2 -73q-20 -5 -29 25
q-9 29 -38 58q-28 29 -63 47z" />
  </g>

</svg>
