<?xml version="1.0" standalone="no"?>
<!DOCTYPE svg PUBLIC "-//W3C//DTD SVG 1.1//EN" "http://www.w3.org/Graphics/SVG/1.1/DTD/svg11.dtd" >
<svg xmlns="http://www.w3.org/2000/svg" xmlns:xlink="http://www.w3.org/1999/xlink" version="1.1" viewBox="0 -205 1024 1024">
  <g transform="matrix(1 0 0 -1 0 819)">
   <path fill="currentColor"
d="M388 902h481l33 41l70 -51q8 -5 7 -8q-2 -2 -13 -2h-201v-143h88l29 33l53 -41q7 -6 5 -10q-1 -5 -11 -7l-18 -9v-204l5 -62q2 -30 -50 -32v37h-378v-3q-1 -35 -50 -42q6 39 6 76v246q-3 24 -20 40l12 11l37 -33h115v143h-121q-27 1 -45 -13zM346 262v-108q1 -54 17 -64
q17 -11 46 -12q28 -3 100 -4q151 1 189 7q50 7 54 49q5 38 10 117h15l2 -77q3 -56 33 -65q-19 -36 -34 -45q-14 -9 -43 -16q-28 -7 -214 -8q-88 1 -123 4q-99 2 -96 92v139q-3 23 -30 46l8 10l102 -39q4 -3 4 -5t-5 -4q-17 -2 -35 -17zM190 987l91 -36q14 -5 6 -11
q-21 -7 -30 -21v-405l2 -97q1 -37 -55 -47q5 40 7 191v368q2 16 -30 46zM765 464h101v255h-101v-255zM488 719v-255h100v255h-100zM727 719h-101v-255h101v255zM727 882h-101v-143h101v143zM816 287l6 14q113 -55 137 -114q29 -67 -10 -79q-20 -4 -28 29q-7 29 -32 70
q-24 42 -73 80zM166 282h17q12 -151 -58 -199q-33 -24 -50 -2q-16 22 12 42q29 21 51 51q21 32 28 108zM440 359l4 12q105 -30 140 -90q32 -62 -9 -76q-21 -4 -28 26t-35 67t-72 61zM122 802h16q18 -156 -30 -200q-25 -25 -46 -9q-21 17 4 42q25 27 38 59q14 33 18 108z
M272 818l4 14q79 -31 109 -89q24 -59 -15 -67q-16 0 -22 31t-28 62q-21 32 -48 49z" />
  </g>

</svg>
