<?xml version="1.0" standalone="no"?>
<!DOCTYPE svg PUBLIC "-//W3C//DTD SVG 1.1//EN" "http://www.w3.org/Graphics/SVG/1.1/DTD/svg11.dtd" >
<svg xmlns="http://www.w3.org/2000/svg" xmlns:xlink="http://www.w3.org/1999/xlink" version="1.1" viewBox="0 -205 1024 1024">
  <g transform="matrix(1 0 0 -1 0 819)">
   <path fill="currentColor"
d="M1004 828q2 -5 -1 -7q-2 -2 -9 0q-4 -1 -11 -3q-16 14 -78 -95l-15 4l30 98h-264q-46 -110 -113 -211q-2 -2 -5 -7q-1 -2 -2 -3h327l32 40l68 -50q8 -6 7 -8q-2 -3 -13 -2h-214v-138h120l28 36l64 -44q6 -5 5 -8q-2 -2 -11 -2h-206v-134h114l30 38l66 -46q8 -6 7 -8
q-2 -3 -13 -2h-204v-145h148l32 38l68 -48q8 -6 7 -8q-2 -3 -13 -2h-463l1 -32q2 -36 -55 -46q5 39 7 187v304q-76 -88 -171 -153l-10 12q107 98 181 202v15q-4 23 -21 36l16 15l28 -32q3 6 10 16l6 9q65 108 95 181h-167v-2q1 -76 -42 -94q-20 -10 -31 5t7 32t29 39t21 92
h17q-1 -23 -1 -52h175l6 15q27 81 23 94q-3 14 -14 27l8 8l92 -32q9 -12 0 -13q-19 3 -38 -15q-13 -43 -30 -84h250l33 31zM160 996l89 -36q14 -5 6 -11q-21 -7 -30 -21v-762l2 -95q2 -37 -53 -46q5 39 7 187v726q2 16 -30 46zM519 276v-102l2 -43h178v145h-180zM699 584
h-177q-1 -2 -3 -5v-133h180v138zM699 428h-180v-134h180v134zM112 740q18 -156 -29 -199q-25 -25 -46 -9q-21 17 4 42t38 58q14 33 18 108h15zM238 772l4 14q83 -34 110 -89q25 -59 -15 -68q-17 -1 -25 31t-28 61q-19 30 -46 51zM652 777l8 12q86 -47 104 -95
q18 -52 -21 -60q-19 0 -20 23t-13 48q-11 26 -58 72z" />
  </g>

</svg>
