<?xml version="1.0" standalone="no"?>
<!DOCTYPE svg PUBLIC "-//W3C//DTD SVG 1.1//EN" "http://www.w3.org/Graphics/SVG/1.1/DTD/svg11.dtd" >
<svg xmlns="http://www.w3.org/2000/svg" xmlns:xlink="http://www.w3.org/1999/xlink" version="1.1" viewBox="0 0 2048 2048">
  <g transform="matrix(1 0 0 -1 0 2048)">
   <path fill="currentColor"
d="M1020 1730q-18 12 -25 35q-17 55 -42 87q-24 29 -74 72l16 28q208 -100 198 -178q-4 -27 -30 -44h645l98 102l121 -107q20 -18 15 -33q-6 -19 -26 -19h-611v-240q0 -16 3 -73q2 -20 4 -71q2 -42 4 -65q5 -51 -47 -55q-61 -4 -61 42v462h-325q-13 -162 -36 -243.5
t-75 -141.5q-92 -109 -261 -159l-19 35q139 74 194 146q90 119 91 363h-382q-118 0 -193 -8l-38 88q96 -23 231 -23h625zM1427 1524l12 32q21 -8 96 -37q128 -49 259 -141q126 -89 94 -163q-11 -28 -39 -28q-27 0 -63 52q-103 145 -359 285zM523 1578l85 -66q46 -35 40 -57
q-4 -15 -24 -17q-13 -2 -29 1l-43 6q-188 -160 -406 -216l-10 30q140 73 230 146q74 60 157 173zM1281 594l109 -24q83 -18 86 -43q3 -26 -51 -44l-39 -13v-205q0 -57 49 -66q42 -8 136 -8q107 0 129 35q15 25 34 126l35 -7v-48q0 -44 15 -64q4 -5 37 -35q10 -9 12 -24
q11 -75 -267 -75q-159 0 -200 12q-77 23 -77 119v204q0 114 -8 160zM658 1146l109 -24q82 -18 85 -44q4 -26 -50 -43l-40 -14v-148q0 -70 30 -81q40 -15 290 -15q201 0 249 7q46 6 59 38q20 46 35 146l37 -7l-3 -56q-4 -55 16 -80q4 -5 37 -34q16 -14 17 -28q4 -49 -109 -65
q-91 -12 -338 -12q-292 0 -339 14q-77 23 -77 121l-1 180q0 104 -7 145zM1535 1106q267 -144 274 -269q1 -23 -13 -43q-12 -19 -28 -23q-32 -7 -53 32q-2 6 -19 53q-34 96 -183 222zM1181 459h37q-6 -171 -22 -222q-25 -78 -86 -84q-27 -3 -44 10q-21 16 -16 45q4 23 45 54
q41 30 58 67q16 34 28 130zM332 613l109 -22q82 -17 85 -44t-50 -45l-39 -13v-220q0 -57 48 -66q43 -8 120 -8q107 0 128 35q16 26 35 126l34 -7v-48q0 -44 16 -64q4 -5 36 -34q11 -10 13 -25q10 -75 -267 -75q-143 0 -184 12q-76 24 -76 119v220q0 114 -8 159zM206 481h37
q-5 -170 -21 -222q-25 -77 -86 -83q-28 -3 -44 10q-21 16 -16 44q4 24 45 54q41 31 58 68q16 33 27 129zM431 1091l39 -11q-4 -161 -49 -260q-40 -89 -108 -89q-28 0 -47 22q-16 19 -9 41q6 22 57 60q92 68 117 237zM928 1217q211 -132 225 -232q4 -28 -10.5 -48.5
t-36.5 -18.5q-38 4 -62 82q-31 100 -142 191zM1777 487q218 -175 198 -271q-4 -23 -22 -39q-17 -17 -35 -14q-31 4 -41 64q-12 74 -49 136q-15 26 -76 100zM1460 650q177 -100 188 -178q5 -31 -13 -51q-14 -17 -34 -15q-29 3 -49 65q-26 82 -112 153zM837 475
q195 -109 191 -182q-1 -24 -16 -42q-16 -19 -33 -19q-24 0 -39 47q-17 54 -53 99q-5 7 -71 71zM541 678q166 -115 170 -195q1 -27 -15.5 -46t-38.5 -15q-29 6 -42 70q-16 81 -96 162z" />
  </g>

</svg>
