<?xml version="1.0" standalone="no"?>
<!DOCTYPE svg PUBLIC "-//W3C//DTD SVG 1.1//EN" "http://www.w3.org/Graphics/SVG/1.1/DTD/svg11.dtd" >
<svg xmlns="http://www.w3.org/2000/svg" xmlns:xlink="http://www.w3.org/1999/xlink" version="1.1" viewBox="0 -205 1024 1024">
  <g transform="matrix(1 0 0 -1 0 819)">
   <path fill="currentColor"
d="M386 417h230v71h-153v-5q2 -20 -45 -30q5 23 7 86v115q-3 18 -17 28l14 11l30 -26h349l21 25l46 -27q7 -6 5 -10q-1 -5 -11 -7l-14 -12v-100l2 -45q-3 -21 -40 -23v20h-153v-71h157l24 28l56 -34q9 -5 8 -8q-2 -2 -14 -2h-231v-73h221l21 32l64 -38q8 -5 7 -8
q-2 -2 -13 -2h-551q-27 1 -46 -13l-34 29h290v73h-151q-27 1 -45 -13zM167 987l85 -36q14 -5 6 -11q-21 -7 -30 -21v-100q104 -29 106 -112q-5 -17 -22 -19t-23 25t-23 51q-15 23 -38 39v-432l2 -57q3 -36 -49 -44q5 37 7 149v510q2 16 -30 46zM329 201v-63q-1 -73 63 -74
q29 -3 126 -4q137 1 181 7q50 7 54 48q1 7 2 21q6 48 8 81h15l2 -59q1 -58 23 -67q-21 -51 -69 -55q-27 -5 -204 -6q-112 1 -145 4q-97 2 -96 83v92q-3 23 -30 46l8 10l98 -39q4 -3 3 -5q0 -2 -4 -4q-17 -2 -35 -16zM342 732h347l19 28q33 54 33 60q0 8 -10 18l8 7l62 -24
q17 -10 7 -15q-18 2 -36 -12q-23 -29 -53 -62h143l30 38l67 -44q8 -5 7 -8q-2 -2 -13 -2h-533q-27 1 -46 -13zM463 651v-69h153v69h-153zM657 582h153v69h-153v-69zM387 870h413l24 39l66 -45q9 -5 8 -8q-2 -2 -14 -2h-418q-27 1 -47 -17zM616 568h-153v-64h153v64zM810 568
h-153v-64h153v64zM813 241l6 14q116 -47 143 -105q28 -58 -8 -70q-18 -3 -26 25q-9 32 -36 67q-28 39 -79 69zM125 796h16q18 -131 -29 -176q-24 -26 -44 -10q-19 16 3 40q23 23 36 53q14 30 18 93zM155 228h17q5 -126 -56 -171q-27 -18 -41 1q-13 19 9 35q24 18 42 45
q21 26 29 90zM443 277l4 12q88 -22 121 -67q39 -55 2 -72q-19 -3 -30 26q-10 29 -36 56q-25 27 -61 45zM542 979l4 13q69 -18 96 -51q29 -41 -6 -58q-18 -4 -23 18q-5 21 -23 42t-48 36zM477 833l6 10q53 -11 82 -47q28 -42 -2 -56q-19 -4 -23 15q-4 20 -17 36
q-12 17 -46 42z" />
  </g>

</svg>
