<?xml version="1.0" standalone="no"?>
<!DOCTYPE svg PUBLIC "-//W3C//DTD SVG 1.1//EN" "http://www.w3.org/Graphics/SVG/1.1/DTD/svg11.dtd" >
<svg xmlns="http://www.w3.org/2000/svg" xmlns:xlink="http://www.w3.org/1999/xlink" version="1.1" viewBox="0 -205 1024 1024">
  <g transform="matrix(1 0 0 -1 0 819)">
   <path fill="currentColor"
d="M420 298l31 -34h368l31 31l48 -37q7 -6 5 -10q-1 -5 -11 -7l-18 -9v-119l2 -45q-1 -26 -40 -27v46h-375v-17q4 -37 -45 -44q5 37 7 98v125q-3 22 -17 38zM453 526l30 -30h293l27 31l52 -37q7 -6 5 -10q-1 -5 -11 -7l-18 -9v-82l2 -45q-6 -17 -40 -19v26h-299v-1
q0 -23 -45 -32q5 25 7 88v82q-3 20 -17 34zM461 105h375v141h-375v-141zM157 995l83 -36q14 -5 6 -11q-21 -7 -30 -21v-762l2 -93q2 -37 -47 -46q5 39 7 185v726q2 16 -30 46zM494 362h299v116h-299v-116zM771 991l71 -24q18 -7 8 -13q-13 1 -24 -14q3 -63 -7 -123
q37 31 59 52q27 27 29 33t-6 19l8 7l46 -38q20 -16 9 -21q-17 5 -37 -5q-66 -46 -113 -75v-1q60 -24 91 -56q65 -76 24 -103q-19 -7 -27 19q-7 27 -31 61q-20 30 -62 60q-3 -13 -8 -27q-29 -94 -136 -138l-4 12q90 60 110 146t17 186q-10 18 -25 32zM627 926l46 -40
q11 -7 5 -13q-21 3 -33 -5q-64 -46 -103 -67l-3 -12l34 -19q84 -60 78 -104q0 -24 -18 -28q-16 -4 -24 22q-7 26 -25 55q-14 24 -49 54q-5 -18 -11 -34q-29 -72 -119 -123l-6 14q79 65 97 146q19 81 16 168q-10 18 -25 32l8 11l71 -24q10 -4 12 -7t-4 -6q-13 1 -24 -14
q1 -61 -5 -109l28 24q48 49 50 55t-4 17zM389 629q3 -18 4 -34h529l20 22l50 -43q2 -5 -1 -7q-2 -2 -9 0q-37 -1 -75 -64l-15 6l28 66h-527q0 -9 -1 -17q-7 -59 -45 -75q-19 -8 -28 7t8 28t32 40t17 71h13zM121 755q18 -154 -29 -198q-25 -27 -44 -10t6 42q26 25 36 58
q11 33 16 108h15zM235 787l6 14q80 -36 106 -90q24 -58 -14 -67q-16 -1 -24 32t-28 61q-19 29 -46 50zM442 896q13 -72 -5 -126q-8 -20 -28 -31t-31 5t5 29q16 14 29 39q13 26 17 84h13zM732 908q5 -31 2 -72q-3 -40 -15 -60q-29 -41 -53 -14q-9 14 7 28t28 35t16 83h15z
" />
  </g>

</svg>
