<?xml version="1.0" standalone="no"?>
<!DOCTYPE svg PUBLIC "-//W3C//DTD SVG 1.1//EN" "http://www.w3.org/Graphics/SVG/1.1/DTD/svg11.dtd" >
<svg xmlns="http://www.w3.org/2000/svg" xmlns:xlink="http://www.w3.org/1999/xlink" version="1.1" viewBox="0 -205 1024 1024">
  <g transform="matrix(1 0 0 -1 0 819)">
   <path fill="currentColor"
d="M127 882l48 -45h537v107q-5 29 -26 42l8 10l88 -33q9 -5 10 -8t-6 -5q-18 -4 -34 -18v-95h160l24 32l56 -40q8 -6 7 -9q-2 -3 -13 -3h-234q1 -73 4 -136q10 -216 39 -345q5 -24 11 -45q40 96 59 189q23 111 23 123q1 12 -14 27l6 9l70 -22q6 -2 8 -6q1 -3 -4 -7
q-13 -1 -26 -12q-28 -198 -99 -344l-5 -10q3 -7 7 -15q42 -91 86 -120q23 -14 30 18q8 30 24 127l16 -2q-10 -98 -13 -132q-2 -35 11 -45q15 -10 11 -20q-5 -9 -25 -9q-94 4 -163 136l-9 18q-65 -104 -170 -168l-8 10q107 100 160 202q-9 26 -16 54q-18 66 -32 175
q-13 109 -21 329v21h-531v-81q4 -276 -20 -435q-24 -156 -134 -274l-10 10q84 120 106 265q23 146 18 446v78q-12 32 -28 44zM263 720q-4 20 -21 40l13 10l32 -27h273l32 32l56 -38q8 -5 7 -8q-2 -2 -13 -2h-180v-77h92l19 25l42 -27q7 -6 5 -11q-1 -4 -11 -8l-10 -9v-36
l4 -40q4 -26 -40 -32v24h-101v-68h110l26 30l45 -32q12 -6 12 -10q0 -3 -12 -4h-330l-30 -31l-44 38q20 12 24 32v229zM631 311v-154q2 -60 -10 -84t-66 -34q2 29 -27 38q-6 2 -21 6q-39 10 -66 17l4 16q102 -19 125 -17t23 50v176h-135q-2 -16 -7 -33q39 -19 61 -41
q34 -31 43 -62q7 -34 -18 -35q-13 1 -26 31q-10 23 -18 37q-13 23 -48 52q-4 -16 -12 -32q-30 -61 -108 -113l-10 12q60 56 84 109q16 38 22 75h-127v-166l4 -75q3 -38 -49 -46q5 39 7 138v160q-8 22 -20 35l15 11l36 -41h137v19v38q-2 16 -19 26l8 11l69 -20q6 -2 7 -5
q0 -3 -5 -6q-13 -5 -23 -14v-26q0 -12 -1 -23h115l30 31l44 -31q9 -6 9 -11q0 -4 -9 -8zM299 550h264v86h-264v-86zM428 727h-129v-77h129v77zM428 536h-129v-68h129v68zM804 976l6 11q88 -30 100 -72q11 -44 -20 -50q-15 0 -20 22q-4 22 -18 43q-13 21 -48 46z" />
  </g>

</svg>
