<?xml version="1.0" standalone="no"?>
<!DOCTYPE svg PUBLIC "-//W3C//DTD SVG 1.1//EN" "http://www.w3.org/Graphics/SVG/1.1/DTD/svg11.dtd" >
<svg xmlns="http://www.w3.org/2000/svg" xmlns:xlink="http://www.w3.org/1999/xlink" version="1.1" viewBox="0 0 2048 2048">
  <g transform="matrix(1 0 0 -1 0 2048)">
   <path fill="currentColor"
d="M375 1692h166l79 87l120 -92q11 -8 14 -20q8 -30 -22 -30h-391q-106 -156 -202 -231l-20 24q93 128 144 231q55 112 105 275l124 -51q38 -16 38 -37q0 -26 -47 -30l-48 -4q-23 -51 -55 -111zM906 1686h201l85 91l121 -91q10 -8 13 -20q8 -31 -21 -31h-434
q-67 -88 -122 -133l-20 24q114 179 179 410l124 -51q37 -16 37 -37q0 -26 -47 -30l-48 -4q-37 -76 -68 -128zM1440 1267q-5 188 -5 517q0 118 -7 160l109 -24q82 -18 85 -44q4 -29 -49 -43l-42 -11q-3 -179 -3 -255q0 -131 5 -285l208 31l71 108l137 -76q24 -14 22 -34
q-2 -21 -30 -26l-406 -63q12 -268 20 -345q11 -121 51 -278q116 233 181 529l129 -52q49 -21 46 -48q-2 -23 -59 -29l-38 -3q-67 -217 -202 -461q-12 -24 -24 -42q31 -80 62 -139q21 -40 41 -64q43 -51 69 -46q28 6 48 82q3 11 23 95l19 83l15 60l33 -11q-4 -51 -20 -176
q-6 -44 -6 -77q0 -86 19 -159q6 -22 8 -40q5 -46 -37 -46q-125 0 -254 182q-48 68 -85 160q-104 -154 -318 -299l-19 32q190 179 306 355q-52 163 -73 310q-15 107 -28 412l-76 -12q-55 -8 -107 -26l-49 77q89 0 166 12zM840 574l61 72l72 -50q37 -25 42 -43q5 -20 -25 -38
q-7 -3 -13 -6q-9 -5 -27 -14l-2 -104l23 -15q37 -24 34 -41q-2 -18 -16 -18h-442v-38q0 -28 -63 -28q-28 0 -28 21v359l114 -57h270zM858 517h-311v-143h311v143zM932 1145l61 72l72 -50q37 -25 41 -43q5 -21 -25 -38q-1 0 -24 -12q-8 -4 -17 -8v-101q23 -19 34 -28
q14 -11 20 -23q11 -26 -12 -26l-634 -1v-11q0 -26 -41 -30q-65 -7 -60 51l4 41q6 99 6 105l-1 166l122 -64h454zM949 1088h-501v-145h501v145zM710 1339h356l87 88l98 -78q41 -34 32 -54q-6 -14 -18 -14h-919q-116 0 -191 -8l-35 87q106 -21 226 -21h337q-19 11 -35 74
q-13 47 -83 103l14 22q163 -78 163 -140q0 -41 -32 -59zM1643 1770q86 -49 124 -77q79 -55 83 -124q3 -61 -43 -64q-28 -2 -44 42q-38 107 -140 194zM1089 757l61 72l72 -50q37 -25 42 -43q5 -20 -25 -38q-7 -3 -13 -6q-9 -5 -27 -14l1 -499q0 -111 -146 -144q-10 62 -45 85
q-29 19 -138 44l4 44q28 -4 41 -6q115 -20 147 -20q46 0 46 66v452h-806v-631q0 -59 -65 -54q-45 4 -42 50q0 18 4 45q12 107 12 210v503l117 -66h760zM986 1627q88 -57 112 -92q27 -37 16 -76q-10 -41 -40 -41q-25 0 -36 49q-13 65 -73 138zM383 1631q89 -58 113 -92
q26 -36 16 -76q-10 -41 -41 -41q-25 0 -35 49q-14 65 -73 138z" />
  </g>

</svg>
