<?xml version="1.0" standalone="no"?>
<!DOCTYPE svg PUBLIC "-//W3C//DTD SVG 1.1//EN" "http://www.w3.org/Graphics/SVG/1.1/DTD/svg11.dtd" >
<svg xmlns="http://www.w3.org/2000/svg" xmlns:xlink="http://www.w3.org/1999/xlink" version="1.1" viewBox="0 -205 1024 1024">
  <g transform="matrix(1 0 0 -1 0 819)">
   <path fill="currentColor"
d="M79 747h192v190q-1 23 -26 46l8 11l88 -38q9 -4 11 -7q2 -4 -4 -7q-18 -5 -31 -16v-179h74l39 42l54 -50q11 -7 8 -10q-2 -3 -19 -2h-156v-207l139 73l9 -19q-40 -25 -108 -66q-28 -17 -40 -25v-359q-1 -36 -18 -57q-16 -21 -78 -37q-1 29 -25 41q-24 11 -94 29l4 18
l42 -8q73 -14 96 -4q27 8 27 46v302q-46 -28 -60 -36q-68 -38 -78 -78l-48 58l186 98v231h-113q-27 1 -45 -13zM818 811l-113 -114l26 -11q9 -4 11 -7q2 -4 -4 -7q-18 -5 -31 -16v-144h182l32 42l68 -50q8 -6 7 -9q-2 -3 -13 -3h-276v-364q-1 -36 -18 -57q-16 -21 -78 -37
q-4 29 -30 41q-25 11 -89 29l6 20l40 -10q73 -14 97 -4q27 8 26 46v511q-1 23 -26 46l8 11l40 -18l152 190h-346q-21 -1 -33 -11l-32 31h411l27 35l66 -44q9 -8 -2 -17l-15 -3q-10 -1 -14 -2q-10 -2 -79 -74z" />
  </g>

</svg>
