<?xml version="1.0" standalone="no"?>
<!DOCTYPE svg PUBLIC "-//W3C//DTD SVG 1.1//EN" "http://www.w3.org/Graphics/SVG/1.1/DTD/svg11.dtd" >
<svg xmlns="http://www.w3.org/2000/svg" xmlns:xlink="http://www.w3.org/1999/xlink" version="1.1" viewBox="0 0 2048 2048">
  <g transform="matrix(1 0 0 -1 0 2048)">
   <path fill="currentColor"
d="M1714 1218v-981q0 -142 -155 -171q-12 70 -47 93q-33 21 -159 44l7 45q141 -22 190 -26q68 -6 68 57v939h-208q-116 0 -192 -8l-38 89q96 -23 230 -23h354l98 101l121 -106q20 -18 15 -34q-5 -19 -25 -19h-259zM1684 1804l99 101l120 -106q21 -19 16 -34q-6 -19 -26 -19
h-418q-119 0 -192 -7l-38 88q98 -23 230 -23h209zM992 1941l97 -40q69 -27 69 -47q0 -26 -55 -29l-35 -1q-7 -17 -11 -25q-121 -278 -349 -462l-26 27q128 131 219 315q73 146 91 262zM1036 1495l97 -40q69 -27 69 -47q0 -26 -56 -29l-34 -2q-79 -171 -164 -282l30 -7
q82 -17 85 -43q4 -30 -49 -44l-42 -11l1 -621q0 -107 12 -210q3 -28 3 -54q0 -38 -49 -41q-62 -5 -62 41v848q-1 38 -1 54q-123 -134 -220 -207l-20 26q150 144 263 334q110 184 137 335zM326 865q-96 -38 -148 -55l-11 -43q-7 -30 -25 -31q-11 -1 -28 31l-70 130
q117 19 282 60v505h-46q-117 0 -192 -8l-38 88q96 -23 230 -23h46v267q0 118 -7 159l109 -24q82 -18 85 -43q4 -30 -49 -44l-42 -11v-304h62l99 102l120 -107q21 -18 16 -33q-6 -19 -26 -19h-271v-480q98 27 268 94l11 -36q-132 -83 -279 -138v-682q0 -142 -154 -171
q-12 70 -48 93q-32 21 -159 44l8 45q139 -22 189 -26q68 -6 68 57v603z" />
  </g>

</svg>
