<?xml version="1.0" standalone="no"?>
<!DOCTYPE svg PUBLIC "-//W3C//DTD SVG 1.1//EN" "http://www.w3.org/Graphics/SVG/1.1/DTD/svg11.dtd" >
<svg xmlns="http://www.w3.org/2000/svg" xmlns:xlink="http://www.w3.org/1999/xlink" version="1.1" viewBox="0 -200 1000 1000">
  <g transform="matrix(1 0 0 -1 0 800)">
   <path fill="currentColor"
d="M559 874q12 -18 27.5 -37t31 -40.5t28 -46t18.5 -52.5q0 -45 -8 -62.5t-18 -17.5q-11 0 -21 17.5t-10 37.5q-4 37 -8.5 64.5t-10.5 50t-13.5 42t-17.5 42.5zM934 808l-26 -16q-13 -21 -28.5 -46.5t-32 -50t-33.5 -46t-33 -35.5l1 4q30 51 54.5 118.5t41.5 136.5z
M706 1007l72 -58l-28 -69v-268h102l38 46l54 -68h-194v-193h131l37 50l63 -73h-231v-343q-11 -13 -21 -21t-23 -11v375h-122l-64 -17l-17 40h203v193h-97l-58 -18l-16 40h171v395zM576 936l-38 -52q-15 -38 -25 -62t-17.5 -40.5t-14 -29t-13.5 -26.5l31 -35l-25 -72v-587
q-5 -11 -14.5 -18.5t-25.5 -16.5v659q-15 -23 -34 -51.5t-39 -55.5t-38.5 -49.5t-32.5 -33.5h-6q36 55 71 118.5t65.5 132.5t56 143t43.5 150zM258 493v-378q0 -43 -17 -69t-60 -44q-5 15 -11.5 27.5t-17.5 23t-28 19t-44 14.5v15q30 -8 52.5 -11t36.5 -3q12 0 13 1
q26 5 26 41v328l-113 -85l-49 58l162 78v210h-61l-56 -14l-24 35h141v269l72 -29l-22 -63v-177h26l44 43l66 -64h-136v-190l108 57l8 -9z" />
  </g>

</svg>
