<?xml version="1.0" standalone="no"?>
<!DOCTYPE svg PUBLIC "-//W3C//DTD SVG 1.1//EN" "http://www.w3.org/Graphics/SVG/1.1/DTD/svg11.dtd" >
<svg xmlns="http://www.w3.org/2000/svg" xmlns:xlink="http://www.w3.org/1999/xlink" version="1.1" viewBox="0 -205 1024 1024">
  <g transform="matrix(1 0 0 -1 0 819)">
   <path fill="currentColor"
d="M740 555l61 -46q9 -9 9 -14t-9 -6q-37 8 -61 0q-109 -24 -207 -35v-85h257l33 46l72 -54q11 -7 8 -10q-2 -3 -19 -2h-351v-94h345l33 46l72 -54q11 -7 8 -10q-2 -3 -19 -2h-439v-125q-1 -36 -18 -57q-16 -21 -80 -35q-1 27 -27 39q-26 11 -94 29l4 16l46 -8q73 -16 96 -7
q27 9 27 51v97h-388q-27 1 -45 -13l-34 33h467v94h-304q-27 1 -45 -13l-34 33h383v81q-19 -1 -37 -3q-132 -7 -310 -6v18q22 1 64 4q106 6 196 13q90 8 201 24q111 17 118 26t10 27zM474 744l-2 -42q-6 -83 -13 -106q-7 -22 -19 -36q-12 -13 -29 -24q-16 -11 -75 -23
q-2 30 -23 38q-11 4 -60 24q-16 7 -25 11l4 16q68 -21 130 -27q36 2 50 29q14 29 16 108l2 50h-258l-32 -36l-45 45q18 10 29 23l44 162q-3 18 -16 30l7 11l67 -28q15 -4 8 -12q-17 -4 -28 -17l-17 -58h214l26 36l66 -44q8 -5 7 -8q-2 -2 -13 -2h-305l-24 -82h263l33 33
l42 -42q7 -7 6 -11t-9 -5zM938 744l-2 -42q-6 -67 -14 -90q-8 -22 -20 -36q-19 -26 -104 -41q-2 30 -23 37q-21 8 -85 30l4 14q68 -16 132 -27q44 4 53 31q9 28 13 92l2 50h-268l-34 -36l-43 45q18 10 29 23l44 166q-3 18 -16 30l7 11l67 -28q15 -4 8 -12q-17 -4 -28 -17
l-18 -62h235l26 36l66 -44q8 -5 7 -8q-2 -2 -13 -2h-326l-23 -82h273l31 33l44 -42q7 -7 6 -11t-9 -5zM39 674h260l32 34l56 -42q8 -5 7 -8q-2 -2 -13 -2h-263q-27 1 -45 -13zM503 674h260l32 32l56 -40q9 -5 8 -8q-2 -2 -14 -2h-263q-27 1 -45 -13z" />
  </g>

</svg>
