<?xml version="1.0" standalone="no"?>
<!DOCTYPE svg PUBLIC "-//W3C//DTD SVG 1.1//EN" "http://www.w3.org/Graphics/SVG/1.1/DTD/svg11.dtd" >
<svg xmlns="http://www.w3.org/2000/svg" xmlns:xlink="http://www.w3.org/1999/xlink" version="1.1" viewBox="0 -200 1000 1000">
  <g transform="matrix(1 0 0 -1 0 800)">
   <path fill="currentColor"
d="M282 490v-376q0 -43 -18.5 -69t-66.5 -44q-6 15 -13.5 27.5t-19.5 23t-31 19t-48 14.5v15q34 -8 58 -11t40 -3q14 0 15 1q14 2 21.5 13t7.5 27v327l-125 -84l-55 57l180 77v209h-68l-61 -14l-28 35h157v268l75 -29l-20 -63v-176h29l49 44l73 -65h-151v-189l120 57l9 -9z
M513 384v-255q0 -25 11 -34.5t31 -9.5q3 0 4 0.5t4 0.5h219q26 0 44.5 2t30 11t16.5 28t5 54q0 23 -1 51.5t-3 66.5l16 -2q1 -58 3 -95.5t6 -60.5t11 -35.5t18 -19.5q17 0 17 -12q0 -10 -19.5 -23t-64.5 -16l-343 -1q-35 0 -47 26t-12 65v623l67 -48h275l37 48l57 -57
l-34 -40v-267h-348zM404 829l-23 36h161v130l70 -31l-19 -58v-41h136v132l66 -30l-17 -60v-42h51l46 44l62 -67h-159v-77q-9 -9 -19 -18t-30 -12v107h-136v-81q-20 -24 -51 -28v109h-85zM513 640v-232h125v269h-110zM691 677v-269h116v269h-116z" />
  </g>

</svg>
