<?xml version="1.0" standalone="no"?>
<!DOCTYPE svg PUBLIC "-//W3C//DTD SVG 1.1//EN" "http://www.w3.org/Graphics/SVG/1.1/DTD/svg11.dtd" >
<svg xmlns="http://www.w3.org/2000/svg" xmlns:xlink="http://www.w3.org/1999/xlink" version="1.1" viewBox="0 -204 1024 1024">
  <g transform="matrix(1 0 0 -1 0 820)">
   <path fill="currentColor"
d="M40 746q44 -11 117 -11h11v145q0 58 -6 80q55 -6 98 -26q11 -4 11 -11q0 -9 -13 -13q-19 -6 -43 -10v-165h25l41 45q33 -26 63 -49q7 -4 7 -11q0 -14 -13 -14h-123v-198q47 22 109 57l4 -23q-47 -39 -83 -61q-17 -10 -30 -20v-348q0 -35 -13 -51q-12 -17 -33 -27
q-18 -11 -34 -11q-5 27 -14 38q-7 9 -24 17q-23 12 -54 14v25q45 -14 83 -14q26 0 33 5q9 5 9 29v296q-32 -19 -66 -31q-11 -38 -17 -38q-8 0 -49 84q52 10 94 26q20 6 38 13v218h-11q-72 -2 -98 -6zM343 850q41 -8 116 -8h2q5 40 5 77q0 22 -2 38q44 -7 77 -18
q11 -4 11 -13q0 -7 -15 -14q-18 -8 -26 -11q-2 -31 -5 -59h84l37 33q35 -20 54 -39q7 -9 7 -13q0 -12 -38 -28q-6 -84 -16 -142q-12 -61 -24 -88q-13 -27 -26 -38q-17 -14 -34 -24q-16 -7 -27 -7q0 17 -5 26q-6 12 -69 42l4 20q59 -20 81 -20q9 0 18 4q5 2 10 11q8 10 17 36
q8 25 14 74q6 48 9 126h-100q-4 -24 -8 -42q-16 -70 -37 -121q-27 -58 -51 -92q-29 -42 -74 -79l-17 22q43 42 69 86q22 37 41 93q18 53 31 123q1 7 1 10q-78 0 -96 -8zM299 418q44 -12 118 -12h190v31q0 52 -6 80q51 -9 84 -24q12 -5 12 -14q0 -10 -10 -14q-13 -11 -32 -12
v-47h197l46 53q39 -28 73 -55q9 -5 9 -11q0 -15 -16 -15h-288q26 -41 57 -70q35 -36 79 -70q45 -31 90 -52q42 -22 81 -31l-2 -16q-49 0 -66 -31q-42 20 -75 46q-39 30 -68 62q-31 29 -60 65q-28 34 -57 80v-248q0 -26 2 -36v-34q0 -23 -29 -23q-25 0 -25 28q0 12 3 31
q1 20 1 34v234q-15 -25 -34 -43q-34 -41 -78 -75q-37 -33 -86 -65q-50 -29 -119 -63l-15 19q67 36 114 70q45 33 83 71q35 31 62 67q19 28 30 50h-147q-72 -2 -99 -7zM697 909l64 -31h110l35 34q51 -37 51 -50q0 -12 -29 -26v-252q11 -9 22 -16q5 -3 5 -7q0 -15 -10 -15
h-197v-12q0 -9 -13 -15q-14 -6 -24 -6q-14 0 -14 14q0 4 1 13q1 24 1 42v258q0 49 -2 69zM748 574h128l4 4v272h-132v-276z" />
  </g>

</svg>
