<?xml version="1.0" standalone="no"?>
<!DOCTYPE svg PUBLIC "-//W3C//DTD SVG 1.1//EN" "http://www.w3.org/Graphics/SVG/1.1/DTD/svg11.dtd" >
<svg xmlns="http://www.w3.org/2000/svg" xmlns:xlink="http://www.w3.org/1999/xlink" version="1.1" viewBox="0 -200 1000 1000">
  <g transform="matrix(1 0 0 -1 0 800)">
   <path fill="currentColor"
d="M237 488v-375q0 -43 -15.5 -69t-53.5 -44q-5 15 -10.5 27.5t-15.5 23t-25 19t-39 14.5v15q28 -8 46 -11t30 -3q10 0 11 1q12 2 18 13t6 27v326l-100 -84l-43 57l143 77v209h-51l-52 -14l-20 35h123v267l69 -29l-21 -63v-175h25l39 43l59 -64h-123v-189l99 57l7 -9z
M946 748q-14 -8 -24.5 -20.5t-18.5 -23.5q-12 9 -25 30t-26 48.5t-24.5 60t-19.5 63.5h-88l38 -38l-27 -25q-7 -13 -20 -30.5t-29.5 -37t-36 -38.5t-39.5 -35l-10 9q34 49 65.5 95t44.5 100l-42 -14l-13 34h142l23 46l38 -37l-32 -30q15 -39 31 -65t31.5 -42.5t30 -26
t25.5 -14.5zM701 454h118v249h-118v-249zM911 211q1 -60 7 -86t12.5 -34.5t11.5 -9.5t5 -12q-5 -14 -16.5 -24.5t-43.5 -10.5h-66q-21 2 -29.5 17t-8.5 34v345h-38l29 -31l-17 -43q-15 -72 -37.5 -129t-48.5 -100t-55 -72t-57 -44l-8 11q23 22 49.5 57t49.5 84.5t40 115.5
t22 151h-11v-34q-17 -27 -31 -27h-9t-8 1v388l52 -32h111l21 39l46 -44l-18 -34v-257h-72l47 -25l-11 -57v-188q-2 -8 -2 -16v-12q0 -19 4.5 -34.5t15.5 -15.5h17q27 0 33 18t6 60v22.5t-1 25.5zM423 899v-210h93v213l-7 -2zM418 668v-198h98v198h-98zM291 8q9 25 17.5 58.5
t17 71.5t15.5 79t13 81q1 31 2.5 63.5t3.5 71.5t3.5 87.5t3.5 112.5t3.5 146t2.5 188l61 -43h72l31 46l57 -51l-29 -41v-728q-2 -35 -22 -56t-46 -32q-3 35 -25 57t-52 31v13q13 -5 28 -7.5t25 -2.5q18 0 30 7t13 22v261h-107q-6 -61 -10.5 -107.5t-11.5 -82.5
q-9 -41 -16 -72t-15 -59t-19.5 -56t-30.5 -62z" />
  </g>

</svg>
