<?xml version="1.0" standalone="no"?>
<!DOCTYPE svg PUBLIC "-//W3C//DTD SVG 1.1//EN" "http://www.w3.org/Graphics/SVG/1.1/DTD/svg11.dtd" >
<svg xmlns="http://www.w3.org/2000/svg" xmlns:xlink="http://www.w3.org/1999/xlink" version="1.1" viewBox="0 -200 1001 1000">
  <g transform="matrix(1 0 0 -1 0 800)">
   <path fill="currentColor"
d="M703 393q-22 -19 -59 -25v225q-57 -94 -122.5 -155.5t-132.5 -101.5l-20 -8q78 72 138.5 152.5t92.5 153.5h-143l-55 -11l-23 26h265v247l78 -42l-19 -43v-162h138l51 35l71 -50h-260v-241zM889 930h-52q-75 -9 -136.5 -17t-113.5 -14.5t-96.5 -11t-85.5 -5.5l-23 3
q174 23 287 52t176 58zM837 451q-5 9 -9.5 23t-16 33t-32.5 41t-60 47v3q44 -14 78.5 -33t58 -39t36 -38.5t13.5 -32.5v-7q0 -16 -8.5 -27t-21.5 -11q-24 0 -35 35zM912 812l-37 -16q-26 -32 -53 -64.5t-60 -64.5l-15 -3q13 19 26 43t25 50.5t23.5 54t21.5 53.5zM600 675
q-7 -10 -14 -14t-13 -4q-17 0 -20 15.5t-8.5 40.5t-23 55.5t-63.5 60.5l-2 4q30 -12 57.5 -25.5t48 -29.5t33 -34t12.5 -39v-8q-1 -6 -2 -11.5t-5 -10.5zM628 282q-13 28 -43.5 48.5t-65.5 28.5l-1 3q60 -3 92.5 -11t48.5 -17.5t19 -20t3 -17.5q0 -14 -9 -20.5t-18 -6.5
q-14 0 -26 13zM353 41q-27 0 -27 13q0 8 12 21t27.5 35t30.5 55.5t21 83.5h1q7 -27 7 -65q0 -21 -4 -46t-13 -46t-22.5 -35.5t-32.5 -15.5zM551 87q2 -9 10.5 -13t19.5 -5h99q29 0 49.5 11t20.5 30q0 10 -3.5 29.5t-9 42t-12 45.5t-13.5 41l6 2q11 -30 22 -61.5t23.5 -60
t27 -51t33.5 -33.5q15 -5 15 -12q0 -9 -25.5 -16t-63.5 -7h-209q-20 0 -30 15.5t-10 29.5v221l67 -38l-17 -49v-121zM902 92q0 15 -6 36.5t-17.5 44t-29 43.5t-41.5 35l2 1q38 -13 67 -31.5t48 -38.5t28.5 -39.5t9.5 -34.5q0 -21 -13.5 -32.5t-21.5 -11.5q-12 0 -26 23v5z
M270 488v-377q0 -43 -18 -69t-66 -44q-5 15 -12 27.5t-19.5 23t-31.5 19t-47 14.5v15q33 -8 57 -11t40 -3q13 0 14 1q14 2 21.5 13t7.5 27v328l-124 -84l-54 57l178 78v209h-67l-61 -14l-27 35h155v269l74 -29l-20 -63v-177h29l49 44l72 -65h-150v-189l119 57l9 -9z" />
  </g>

</svg>
