<?xml version="1.0" standalone="no"?>
<!DOCTYPE svg PUBLIC "-//W3C//DTD SVG 1.1//EN" "http://www.w3.org/Graphics/SVG/1.1/DTD/svg11.dtd" >
<svg xmlns="http://www.w3.org/2000/svg" xmlns:xlink="http://www.w3.org/1999/xlink" version="1.1" viewBox="0 0 2048 2048">
  <g transform="matrix(1 0 0 -1 0 2048)">
   <path fill="currentColor"
d="M1236 1960l128 -64q26 -13 20 -31q-4 -16 -32 -18l-61 -3q-78 -74 -201 -158q82 2 399 18l129 6q-21 31 -91 104l30 23q204 -115 219 -205q3 -24 -10 -44q-16 -26 -45 -25q-30 2 -51 51q-17 38 -28 59q-226 -44 -527 -69l-21 -41q-9 -18 -28 -20q-20 -2 -29 17l-51 116
q43 22 100 81q90 92 150 203zM949 1560l110 -57q31 -16 23 -33q-5 -12 -23 -16l-47 -12q-87 -92 -144 -141q214 17 345 35q-33 61 -79 105l26 28q182 -112 172 -203q-6 -48 -53 -46q-32 2 -40 37q-8 37 -9 41q-155 -49 -341 -88l-15 -39q-8 -19 -23 -22q-18 -3 -27 18
l-44 115q106 96 169 278zM1537 1574l127 -56q25 -11 25 -25q0 -19 -31 -22l-46 -5q-51 -68 -131 -139q73 2 331 19q-26 51 -60 90l26 22q148 -115 165 -197q9 -48 -30 -66q-29 -13 -49 8q-8 8 -15 52q-4 23 -17 52q-143 -33 -325 -58l-8 -30q-8 -28 -27 -25q-17 3 -28 25
l-45 96q89 95 138 259zM1719 687q-50 54 -133 113l21 25q321 -152 308 -267q-2 -20 -18 -36t-34 -17q-42 -3 -67 63q-14 36 -44 80q-62 -11 -158 -24q-123 -16 -201 -28v-390q0 -124 -155 -163q-12 69 -52 91q-36 19 -154 39l8 44q152 -22 189 -25q68 -5 68 54v337
q-250 -24 -382 -41l-12 -40q-5 -18 -19 -18q-20 0 -34 35l-41 109q88 18 232 81q191 84 355 189q-19 -3 -412 -59l-16 -48q-6 -18 -20 -18q-16 0 -33 35l-53 110q83 26 163 75q153 94 254 216l80 -65q47 -36 39 -51q-7 -13 -51 -13h-38q-123 -82 -303 -154q244 15 292 18
q101 4 156 12q63 56 101 106l93 -59q50 -29 43 -48q-4 -15 -52 -15h-38q-167 -118 -253 -163q-169 -88 -347 -146l276 18q303 21 425 36zM475 981l32 12l120 45l83 33l35 14l12 -38q-126 -76 -282 -153v-652q0 -141 -155 -171q-11 70 -47 93q-33 22 -159 44l8 46
q135 -23 189 -27q68 -6 68 57v565q-33 -15 -77 -34q-30 -14 -66 -31l-8 -49q-5 -33 -21 -33t-39 33l-82 122q187 51 293 88v453h-64q-127 0 -193 -9l-36 92q100 -21 229 -21h64v325q0 120 -8 160l109 -24q83 -19 86 -44q3 -30 -50 -44l-41 -11v-362h87l80 80l115 -90
q20 -15 15 -33q-6 -19 -27 -19h-270v-417zM1004 496l113 -59q28 -14 28 -32q0 -29 -41 -29h-54q-161 -170 -368 -252l-20 32q120 69 202 154q66 69 140 186zM1564 470q149 -57 248 -124q122 -84 118 -152q-3 -50 -44 -54q-31 -4 -71 59q-69 108 -263 241z" />
  </g>

</svg>
