<?xml version="1.0" standalone="no"?>
<!DOCTYPE svg PUBLIC "-//W3C//DTD SVG 1.1//EN" "http://www.w3.org/Graphics/SVG/1.1/DTD/svg11.dtd" >
<svg xmlns="http://www.w3.org/2000/svg" xmlns:xlink="http://www.w3.org/1999/xlink" version="1.1" viewBox="0 -205 1024 1024">
  <g transform="matrix(1 0 0 -1 0 819)">
   <path fill="currentColor"
d="M707 800q17 -9 6 -15q-26 0 -38 -14q-12 -33 -26 -63h199l18 32l70 -42q8 -5 7 -8q-2 -2 -13 -2h-214q30 -57 68 -97q10 -10 19 -21q26 23 44 42q42 42 26 53l8 6l52 -37q7 -5 7 -9q0 -3 -7 -5q-20 5 -49 -18q-24 -19 -67 -46q23 -21 42 -35q51 -41 136 -54l1 -15
q-56 3 -71 -21q-37 18 -72 44v-112l4 -61q-1 -26 -38 -27v24h-134v-201q3 -69 -85 -76q6 36 -97 55l2 15l29 -6q55 -11 82 -11t31 39v185h-136q-1 -13 -9 -21q-9 -9 -31 -14q5 37 7 98v124q-97 -82 -173 -105l-4 12q92 47 173 129q-1 2 -2 6q-3 8 -5 12l9 8l12 -11
q73 79 107 151h-118q-27 1 -45 -13l-34 33h206q33 77 35 87q3 11 -13 24l7 8zM186 933q-1 23 -26 46l8 11l80 -38q9 -4 11 -7q2 -4 -4 -7q-18 -5 -31 -16v-188h46l28 36l64 -46q8 -5 7 -8q-2 -2 -13 -2h-132v-208l143 65l8 -10l-151 -80v-371q-1 -36 -15 -52
q-13 -17 -79 -30q-3 31 -26 39q-4 1 -15 5q-7 2 -60 20l4 16l30 -10q71 -16 96 -6q27 10 27 52v316q-13 -8 -34 -20q-34 -20 -52 -32q-19 -13 -25 -39l-52 46l163 74v225h-87q-27 1 -45 -13l-30 33h162v199zM819 405h-307v-90h307v90zM819 504l-3 3h-304v-88h307v85z
M639 688q-48 -93 -121 -165h282q-22 22 -43 49q-37 44 -65 116h-53zM449 905v-46h472l27 29l53 -54q4 -9 -10 -7q-25 3 -47 -20l-5 -5q-6 -6 -25 -26q-14 -14 -22 -23l-17 2l48 84h-474q-1 -8 -1 -14q-7 -72 -45 -91q-21 -10 -32 7q-10 17 9 33q20 17 34 42q14 26 20 89h15z
M509 251l50 -39q7 -5 7 -9q0 -3 -7 -4q-16 2 -27 -5q-3 -2 -13 -10q-29 -22 -53 -38q-55 -42 -149 -86l-6 12q163 112 193 153q5 11 -3 20zM736 227l4 12q83 -29 140 -67q56 -34 65 -68q8 -32 -11 -37t-31 21q-11 25 -53 63q-40 39 -114 76zM590 988l4 11q62 -22 83 -37
q23 -13 30 -33q17 -42 -17 -49q-16 -2 -21 19q-4 23 -22 42q-18 20 -57 47zM378 659l4 10q66 -14 96 -47q31 -41 -4 -59q-19 -6 -22 16t-21 41q-18 20 -53 39z" />
  </g>

</svg>
