<?xml version="1.0" standalone="no"?>
<!DOCTYPE svg PUBLIC "-//W3C//DTD SVG 1.1//EN" "http://www.w3.org/Graphics/SVG/1.1/DTD/svg11.dtd" >
<svg xmlns="http://www.w3.org/2000/svg" xmlns:xlink="http://www.w3.org/1999/xlink" version="1.1" viewBox="0 0 2048 2048">
  <g transform="matrix(1 0 0 -1 0 2048)">
   <path fill="currentColor"
d="M925 1621q127 -78 147 -145q7 -24 -3.5 -44t-30.5 -22q-35 -3 -54 33q-2 4 -26 70q-10 27 -61 83zM1215 1336l1 -397q1 -142 -154 -170q-9 65 -36 87q-25 20 -121 41l8 46q96 -15 140 -19q68 -5 68 57l-1 336q-156 -31 -260 -48v-58q0 -140 -50 -262q-53 -130 -146 -197
l-29 30q80 119 104 223q21 92 22 249l-22 -4l-67 -11q-16 -62 -45 -64q-18 -1 -29 42l-30 111l170 9l22 2v279q0 2 -7 171l115 -69h32q63 106 111 218l98 -37q57 -20 49 -42q-8 -23 -91 -27q-48 -58 -107 -112h146l61 72l72 -50q37 -25 41 -43q5 -20 -25 -38q-6 -3 -13 -6
q-9 -5 -26 -15v-259l23 3l32 4v-41q-26 -5 -56 -11zM860 1345q93 6 260 24l-1 296h-259v-320zM1402 1881l122 -85h123l63 70l80 -63q37 -29 26 -50q-6 -14 -60 -43v-172q0 -47 57 -51q24 -2 95 11q70 12 70 -49q0 -47 -139 -49q-91 -2 -125 14q-53 24 -53 91v237h-152
q-12 -196 -63 -284q-42 -71 -124 -129l-27 29q115 117 115 409q0 66 -8 114zM812 676l120 -67h174l61 176l91 -33q58 -20 49 -42q-8 -23 -90 -27q-20 -35 -51 -74h469l64 74q17 -11 26 -16q86 -51 86 -79q0 -29 -68 -59v-327h26l80 80l114 -86q21 -16 16 -33q-6 -19 -26 -19
l-1175 -1q-70 0 -149 -10l-39 85q134 -19 188 -17l34 1v474zM908 202h189v351h-189v-351zM1193 202h175v351h-175v-351zM1466 202h177v351h-177v-351zM923 1243q116 -72 142 -119q23 -42 16 -74q-8 -39 -45 -39q-32 0 -43 28q-2 7 -12 44q-14 54 -84 135zM1251 1277
q76 -12 174 -12h315l69 65l72 -56q42 -34 38 -57q-3 -21 -89 -47q-48 -83 -98 -162q67 -50 117 -95q70 -64 57 -114q-8 -31 -30 -38q-36 -12 -80 53q-41 62 -125 137q-93 -73 -168 -109q-77 -38 -207 -74l-13 42q173 57 324 192q-62 56 -271 209q-28 -3 -56 -8zM1410 1211
q120 -66 247 -150q48 71 82 150h-329zM330 841q-84 -29 -150 -53l-9 -45q-6 -28 -20 -32q-16 -5 -38 35l-69 127q117 17 286 56v477h-70q-70 0 -149 -11l-39 86q27 -4 41 -6q86 -12 147 -12h70v307q0 122 -7 160l109 -25q82 -18 85 -43q3 -30 -49 -44l-43 -11v-344h54l80 80
l114 -86q21 -15 16 -33q-6 -18 -26 -18h-238v-453q33 8 200 58l10 -37q-68 -39 -210 -99v-643q0 -142 -155 -171q-12 70 -48 93q-32 21 -159 44l8 45q141 -22 191 -26q68 -6 68 57v567z" />
  </g>

</svg>
