<?xml version="1.0" standalone="no"?>
<!DOCTYPE svg PUBLIC "-//W3C//DTD SVG 1.1//EN" "http://www.w3.org/Graphics/SVG/1.1/DTD/svg11.dtd" >
<svg xmlns="http://www.w3.org/2000/svg" xmlns:xlink="http://www.w3.org/1999/xlink" version="1.1" viewBox="0 -205 1024 1024">
  <g transform="matrix(1 0 0 -1 0 819)">
   <path fill="currentColor"
d="M208 943q-1 21 -28 44l8 11l78 -38q9 -4 11 -7q2 -4 -4 -7q-18 -5 -31 -16v-177h35l31 40l62 -46q11 -8 9 -11q-2 -4 -18 -3h-119v-224l127 69l9 -14l-108 -68q-4 -2 -11 -7q-11 -7 -17 -10v-355q-1 -36 -16 -51q-14 -15 -58 -33q0 28 -34 40q-33 12 -73 24l2 16l47 -8
q61 -12 77 -3q21 9 21 47v303q-84 -51 -94 -60q-14 -12 -22 -32l-62 28l178 96v242h-102q-27 1 -45 -13l-34 33h181v190zM421 474l32 -33h128l23 27l44 -31q6 -6 4 -10q-2 -5 -12 -7l-14 -11v-74l4 -49q-1 -30 -38 -31v38h-133v-13q5 -39 -41 -44q5 37 7 80v117
q-3 17 -13 33zM683 480l34 -35h124l23 29l46 -33q7 -6 5 -10q-1 -5 -11 -7l-16 -11v-72l4 -51q1 -23 -38 -31v38h-131v-13q1 -24 -41 -32q0 4 1 12q4 25 6 56v117q-3 17 -15 33zM690 734q10 -12 -4 -16q-4 0 -9 -1q41 -49 77 -80q62 -54 133 -82q35 -16 105 -22v-15
q-54 3 -56 -27q-108 33 -190 108q-39 36 -86 109q-52 -80 -143 -151q-90 -70 -189 -105l-4 14q92 48 165 109q74 62 105 108q32 47 31 55q0 9 -9 20l7 8zM526 954q5 -6 4 -9q0 -3 -5 -3q-13 -1 -27 -13q-10 -39 -24 -74h135l26 34l56 -42q8 -6 7 -9q-2 -3 -13 -3h-166
q30 -29 40 -50q26 -61 -10 -74q-19 -3 -19 18t-4 45q-4 21 -29 61h-31q-9 -19 -19 -39q-33 -61 -79 -107l-10 8q69 104 94 206q11 42 6 50q-3 8 -9 19l7 9zM816 950q4 -4 3 -6t-6 -2q-16 -3 -27 -15q-12 -36 -29 -72h142l26 34l56 -42q8 -6 7 -9q-2 -3 -13 -3h-164
q32 -31 42 -53q27 -66 -11 -76q-20 -2 -19 19t-5 45q-6 21 -30 65h-41l-5 -9q-27 -49 -58 -75l-10 8q17 26 38 73q21 48 29 78q9 32 6 39q-2 8 -8 21l7 7zM760 267l66 -26q9 -9 -1 -13q-12 -3 -22 -8l-6 -12l-11 -22q42 -21 71 -36q47 -25 67 -61q18 -37 -9 -46
q-17 -5 -31 25t-44 56q-18 16 -64 45q-55 -95 -135 -145l-6 13q66 68 98 126q33 60 31 74q-1 15 -9 22zM459 311h133v112h-133v-112zM723 315h131v112h-131v-112zM492 269l64 -24q9 -9 -1 -13q-18 -1 -24 -6q-12 -22 -24 -42q38 -10 66 -24q38 -15 54 -44q15 -31 -8 -43
q-15 -5 -25 16q-9 21 -37 45q-21 17 -60 35q-64 -93 -146 -143l-6 13q78 72 114 132q38 62 36 70q0 9 -8 22zM511 535h193l24 31l55 -42q5 -5 3 -6q-1 -2 -11 -1h-185q-27 1 -45 -13z" />
  </g>

</svg>
