<?xml version="1.0" standalone="no"?>
<!DOCTYPE svg PUBLIC "-//W3C//DTD SVG 1.1//EN" "http://www.w3.org/Graphics/SVG/1.1/DTD/svg11.dtd" >
<svg xmlns="http://www.w3.org/2000/svg" xmlns:xlink="http://www.w3.org/1999/xlink" version="1.1" viewBox="0 -205 1024 1024">
  <g transform="matrix(1 0 0 -1 0 819)">
   <path fill="currentColor"
d="M995 91v-17q-62 13 -80 -13q-63 43 -128 134q-20 28 -37 59q-3 -5 -10 -16q-7 -10 -11 -16q-75 -105 -237 -173l-6 14q130 75 206 180q19 28 35 55q-24 51 -43 107q-33 101 -46 234q-39 -87 -89 -145l-12 11q72 140 111 278t36 150t-17 29l6 9l80 -27q8 -7 -3 -12
q-14 -3 -25 -15q-20 -97 -47 -176h217l29 43l63 -49q10 -7 7 -10q-3 -4 -18 -4h-116q-5 -157 -29 -271q-17 -78 -56 -152q22 -39 44 -69q47 -63 72 -81q25 -20 41 -30q17 -11 63 -27zM546 938q8 -8 -10 -10q-12 2 -22 -16q-22 -49 -71 -121q15 -25 25 -51q65 -157 62 -359
q0 -73 -12 -160q-12 -85 -47 -122q-35 -38 -97 -50q4 41 -96 68l2 16q68 -17 103 -21q35 -5 59 22q24 25 36 95q12 71 11 151q-1 68 -6 135q-28 -51 -68 -98q-49 -61 -129 -113l-6 12q64 64 113 133q43 60 82 138q-12 65 -40 138q-2 6 -7 17q-5 12 -8 17q-51 -68 -124 -124
l-10 12q71 79 117 148q-37 73 -95 155l8 14q65 -72 107 -138q1 1 1 2l1 2q51 85 53 104t-7 32l8 6zM286 938q8 -8 -10 -10q-12 2 -22 -14q-22 -51 -72 -122q15 -27 26 -52q65 -157 62 -359q0 -73 -12 -160q-12 -85 -47 -122q-35 -38 -97 -50q4 41 -96 68l2 16
q68 -17 103 -21q35 -5 59 22q24 25 36 95q12 71 11 151q-1 68 -6 135q-28 -51 -68 -98q-49 -61 -129 -113l-6 12q64 64 113 133q43 60 82 138q-12 65 -40 138q-2 3 -5 10q-2 7 -11 25q-52 -69 -123 -125l-10 12q70 78 116 147q-39 74 -106 156l8 14q73 -73 118 -140l3 6
q51 85 53 104t-7 32l8 6zM671 721q-6 -18 -12 -34q30 -190 71 -291q5 -13 16 -37q4 -10 6 -14q27 59 40 119q23 109 27 257h-148z" />
  </g>

</svg>
