<?xml version="1.0" standalone="no"?>
<!DOCTYPE svg PUBLIC "-//W3C//DTD SVG 1.1//EN" "http://www.w3.org/Graphics/SVG/1.1/DTD/svg11.dtd" >
<svg xmlns="http://www.w3.org/2000/svg" xmlns:xlink="http://www.w3.org/1999/xlink" version="1.1" viewBox="0 -205 1024 1024">
  <g transform="matrix(1 0 0 -1 0 819)">
   <path fill="currentColor"
d="M110 969l41 -50h266l35 41l50 -49q7 -6 5 -10q-1 -5 -11 -7l-18 -9v-388l4 -40q7 -41 -48 -44v40h-48v-268q-4 -85 69 -83q35 -3 215 -3t202 2q23 2 45 7q23 5 28 26q0 2 1 7q5 20 6 31q3 20 4 114h16l6 -78q-4 -58 22 -69q-15 -44 -28 -52q-12 -8 -41 -15q-28 -7 -75 -8
q-34 -1 -93 -1q-58 -1 -128 0q-175 0 -209 3q-34 1 -58 18q-24 15 -26 89v280h-94q-3 -110 -16 -187q-23 -161 -202 -235l-6 14q123 82 157 193q21 68 24 215h-48q-1 -25 -14 -34q-13 -10 -37 -15q5 47 7 99v412q-4 24 -18 42zM670 990l86 -34q14 -5 6 -11q-19 -4 -29 -18
v-124h132l33 42l64 -50q11 -7 8 -10q-2 -3 -19 -2h-218v-165h93l32 37l44 -42q7 -6 6 -10q0 -4 -7 -6q-16 -3 -21 -10q-3 -3 -20 -46q-4 -11 -6 -17q-22 -57 -71 -132l-7 -11q63 -64 88 -117q26 -55 7 -78t-47 40q-25 56 -76 118q-38 -48 -88 -91q-74 -63 -178 -101l-4 14
q100 59 155 112q44 42 87 100q-61 65 -168 144l8 13q117 -67 183 -124q56 78 93 187h-252q-25 1 -38 -10l-33 30h176v319q2 17 -27 42zM434 607h-277v-134h277v134zM157 769h277v130h-277v-130zM434 751h-277v-126h277v126z" />
  </g>

</svg>
