<?xml version="1.0" standalone="no"?>
<!DOCTYPE svg PUBLIC "-//W3C//DTD SVG 1.1//EN" "http://www.w3.org/Graphics/SVG/1.1/DTD/svg11.dtd" >
<svg xmlns="http://www.w3.org/2000/svg" xmlns:xlink="http://www.w3.org/1999/xlink" version="1.1" viewBox="0 0 2048 2048">
  <g transform="matrix(1 0 0 -1 0 2048)">
   <path fill="currentColor"
d="M747 1231h107l95 95l125 -99q26 -21 16 -34l-14 -16l33 -3h-799v-240q-8 -369 -45 -516q-44 -177 -200 -352l-27 25q102 147 133 274q43 169 43 435q0 376 -9 501l113 -70h152q-15 9 -21 19q-8 15 -20 95q-17 110 -112 266l24 20q-83 -3 -142 -11l-39 86q120 -18 186 -18
h303q-9 15 -24 58q-26 75 -120 167l25 25q172 -116 188 -183q9 -37 -13 -67h160l96 95l125 -99q20 -17 15 -34q-5 -19 -26 -19h-251l112 -34q56 -17 53 -47q-3 -23 -45 -27l-61 -5q-58 -169 -136 -287zM694 1231q57 121 110 400h-460q67 -72 112 -131q83 -109 78 -199
q-3 -50 -43 -70h203zM353 909q210 -148 210 -244q0 -28 -14.5 -47.5t-34.5 -19.5q-28 0 -38 43q-31 122 -144 240zM720 690q143 119 218 256l112 -72q33 -21 26 -42q-4 -14 -21 -15q-8 0 -28 2l-45 5q-18 -15 -265 -183l-5 -45q134 -81 188 -120q146 -106 153 -202
q5 -67 -53 -72q-39 -4 -62 48q-60 132 -135 215q-33 36 -103 91q-51 -180 -141 -284q-86 -100 -251 -194l-21 33q215 144 293 337q66 163 66 525q0 104 -12 137l140 -21q46 -7 42 -32q-3 -24 -37 -33l-39 -10q-1 -61 -20 -324zM1521 1151h208l79 79l79 -61q20 -16 28 -30
q13 -23 -16 -41q-14 -9 -58 -29q-7 -26 -36 -150q-69 -292 -219 -486q153 -175 414 -251v-32q-123 -2 -150 -80q-200 126 -329 289q-181 -182 -451 -299l-13 36q250 141 416 332q-168 260 -256 665q-12 -1 -41 -3q-4 0 -51 -7l-37 86q27 -4 40 -6q86 -12 145 -12h150v612
q0 117 -8 162l116 -27q64 -14 86 -26q16 -8 15 -26q-3 -33 -72 -45l-39 -7v-245h224l96 96l125 -100q21 -17 15 -34q-5 -19 -25 -19h-435v-341zM1265 1093q109 -372 265 -591q62 89 97 167q74 160 116 424h-478z" />
  </g>

</svg>
