<?xml version="1.0" standalone="no"?>
<!DOCTYPE svg PUBLIC "-//W3C//DTD SVG 1.1//EN" "http://www.w3.org/Graphics/SVG/1.1/DTD/svg11.dtd" >
<svg xmlns="http://www.w3.org/2000/svg" xmlns:xlink="http://www.w3.org/1999/xlink" version="1.1" viewBox="0 0 2048 2048">
  <g transform="matrix(1 0 0 -1 0 2048)">
   <path fill="currentColor"
d="M469 1263h-179v-46q0 -28 -45 -31q-60 -4 -56 44q6 73 6 113v287l121 -66h229v154h-191q-115 0 -193 -8l-38 89q91 -24 231 -24h191v24q0 113 -8 161l105 -24q70 -16 73 -44q3 -25 -47 -44l-29 -10v-63h227l99 102l120 -107q21 -18 16 -33q-6 -19 -25 -19h-437v-154h251
l56 66l88 -60q15 -11 18 -28q4 -32 -57 -57v-146l44 -34q17 -14 17 -25q0 -17 -22 -17h-395v-47q313 -107 321 -209q2 -21 -11 -38t-31 -17q-27 0 -57 35q-82 96 -222 177l-1 -84l4 -53l4 -64q5 -72 4 -83q-3 -31 -42 -38q-63 -11 -63 48v292q-114 -121 -234 -198
q-87 -55 -227 -121l-19 34q255 147 404 366zM545 1510h-255v-194h255v194zM639 1510v-194h261v194h-261zM233 715l-38 89q93 -23 231 -23h1144l98 102l121 -107q20 -18 15 -34q-5 -18 -25 -18h-722v-223h387l99 102l120 -107q21 -18 16 -33q-6 -18 -26 -18h-596v-239h689
l98 101l121 -107q20 -18 15 -33q-5 -18 -26 -18h-1654q-123 0 -193 -8l-38 89q94 -24 231 -24h189v265q0 114 -8 160l109 -24q83 -18 86 -43q3 -29 -50 -44l-39 -11v-303h374v518h-535q-115 0 -193 -9zM1569 1112q163 -98 423 -169v-35q-62 -4 -87 -12q-36 -12 -51 -56
q-193 86 -363 209q-109 -79 -227 -127q-102 -41 -277 -80l-7 40q252 71 445 221q-124 116 -230 299l-12 19q-28 -3 -56 -8l-43 88q116 -18 191 -18h121v287q0 120 -8 170l103 -26q84 -20 86 -46q2 -19 -43 -37l-43 -17v-124h230l95 96l118 -99q19 -16 22 -30q7 -28 -34 -28
h-431v-146h218l62 63l75 -57q33 -25 35 -26q7 -9 3 -27q-6 -27 -79 -41q-86 -154 -236 -283zM1248 1421q89 -145 247 -260q119 105 207 260h-454z" />
  </g>

</svg>
