<?xml version="1.0" standalone="no"?>
<!DOCTYPE svg PUBLIC "-//W3C//DTD SVG 1.1//EN" "http://www.w3.org/Graphics/SVG/1.1/DTD/svg11.dtd" >
<svg xmlns="http://www.w3.org/2000/svg" xmlns:xlink="http://www.w3.org/1999/xlink" version="1.1" viewBox="0 0 2048 2048">
  <g transform="matrix(1 0 0 -1 0 2048)">
   <path fill="currentColor"
d="M695 529q135 -99 334 -180q191 107 339 284h-710q-146 -168 -354 -269l-16 32q295 199 385 452l102 -41q49 -20 52 -40q5 -32 -50 -34l-40 -2q-16 -21 -32 -40l815 -1l99 101l121 -107q20 -18 15 -33q-6 -19 -26 -19l-243 1q-140 -189 -363 -318q333 -105 843 -145
l-7 -40q-52 1 -76 -8q-32 -11 -53 -61q-519 74 -806 202q-126 -58 -324 -110q-193 -50 -557 -99l-13 40q521 88 809 209q-133 67 -276 190zM1638 1242q22 -16 51 -34q261 -167 261 -284q0 -53 -43 -59q-26 -3 -42 20q-6 8 -28 54q-70 146 -209 260q-28 -113 -81 -195
q-56 -88 -119 -142q-29 -25 -97 -76l-25 32q170 160 221 343q31 115 31 320v277q-1 119 -13 171l105 -18q94 -16 98 -41q4 -27 -65 -46l-29 -8v-354q89 93 117 134q28 43 59 125l93 -60q46 -29 57 -49q14 -25 -11 -35q-9 -3 -35 0l-54 7q-66 -76 -227 -180q-3 -63 -15 -162z
M408 1245q268 -176 295 -292q9 -45 -15 -70q-20 -21 -46 -12t-49 66q-59 142 -193 260q-29 -118 -86 -213q-66 -109 -217 -232l-27 30q155 153 207 300q51 142 51 406v278q-2 119 -14 170l106 -18q92 -15 97 -41q5 -20 -45 -43l-50 -21l2 -343q102 129 141 216l93 -59
q43 -27 48 -49q8 -35 -53 -30l-44 3q-55 -53 -186 -140q-8 -115 -15 -166zM783 1428l-39 85q127 -18 188 -17l181 2l70 70l109 -81q9 -7 12 -15q4 -16 -9 -28q-7 -6 -15 -6h-348q-69 0 -149 -10zM791 1252l-39 86q121 -18 187 -18l171 -1l73 73l101 -77q17 -13 20 -19
q5 -10 -3.5 -22t-20.5 -12h-341q-69 0 -148 -10zM890 1938q186 -121 182 -205q-2 -36 -38 -60h118l70 79l116 -85q11 -8 14 -19q4 -15 -9 -28q-6 -6 -17 -6h-458q-70 0 -149 -11l-39 86q127 -18 188 -17l128 1q-14 16 -34 87q-14 49 -98 152zM748 1209l120 -65h294l56 65
l74 -53q41 -30 27 -53q-8 -14 -51 -39v-130l24 -22q14 -12 12 -26q-3 -14 -20 -14h-440v-16q1 -25 -46 -31q-50 -6 -50 25v359zM844 930h328v158h-328v-158zM1355 1588q97 -85 123 -124q37 -55 33 -101q-3 -36 -26 -53q-16 -12 -31 -9q-22 5 -38 78q-16 72 -94 183zM87 1656
q181 -159 195 -257q12 -83 -50 -88q-36 -2 -49 38q-3 8 -15 84q-9 56 -111 197z" />
  </g>

</svg>
