<?xml version="1.0" standalone="no"?>
<!DOCTYPE svg PUBLIC "-//W3C//DTD SVG 1.1//EN" "http://www.w3.org/Graphics/SVG/1.1/DTD/svg11.dtd" >
<svg xmlns="http://www.w3.org/2000/svg" xmlns:xlink="http://www.w3.org/1999/xlink" version="1.1" viewBox="0 0 2048 2048">
  <g transform="matrix(1 0 0 -1 0 2048)">
   <path fill="currentColor"
d="M493 1517q-204 -29 -364 -35l-6 44q216 26 370 63v185q0 120 -8 160l112 -24q82 -18 85 -44q4 -29 -49 -43l-42 -11v-194q162 55 255 116l69 -71q48 -42 39 -62q-6 -11 -23 -11q-13 0 -32 6q-15 4 -46 11q-200 -57 -262 -71v-381h134l99 102l120 -107q21 -18 16 -34
q-6 -18 -26 -18h-343v-398h199l98 101l121 -107q20 -18 15 -32q-6 -19 -26 -19h-407v-254q0 -105 10 -218q3 -36 1 -61q-2 -49 -64 -49q-45 0 -45 38v544h-184q-117 0 -192 -8l-35 87q105 -22 227 -22h184v398h-124q-118 0 -192 -8l-35 87q106 -22 227 -22h124v362z
M1662 785l87 21l71 118l144 -74q22 -11 22 -29t-22 -24l-302 -75v-375q0 -108 11 -209q3 -29 3 -54q0 -39 -49 -42q-62 -4 -62 42v614l-267 -69q-132 -33 -186 -49l-50 61q56 12 178 42l325 78v1014q0 117 -8 160l109 -24q86 -19 86 -51q0 -23 -50 -36l-40 -12v-1027z
M1110 1247q25 -15 37 -22q233 -140 245 -236q3 -25 -13.5 -44t-39.5 -16q-30 3 -60 63q-53 109 -192 227zM1140 1734q74 -38 182 -118q115 -87 104 -153q-6 -38 -45 -42t-68 58q-46 99 -195 226z" />
  </g>

</svg>
