<?xml version="1.0" standalone="no"?>
<!DOCTYPE svg PUBLIC "-//W3C//DTD SVG 1.1//EN" "http://www.w3.org/Graphics/SVG/1.1/DTD/svg11.dtd" >
<svg xmlns="http://www.w3.org/2000/svg" xmlns:xlink="http://www.w3.org/1999/xlink" version="1.1" viewBox="0 0 2048 2048">
  <g transform="matrix(1 0 0 -1 0 2048)">
   <path fill="currentColor"
d="M356 1360l592 1l72 87l76 -61q51 -41 45 -64q-5 -24 -68 -42q-9 -642 -53 -915q-20 -125 -57 -179q-48 -69 -172 -103q-1 55 -49 84q-11 6 -52 17q-21 5 -46 13l4 38q169 -33 209 -10q49 28 75 210q38 269 46 871l-656 -1q-97 -145 -238 -263l-27 25q145 176 216 326
q38 78 70 183l110 -57q44 -22 52 -42q9 -24 -40 -34q-12 -2 -23 -3q-15 -2 -42 -8q-23 -39 -44 -73zM457 810h233l53 72l68 -54q53 -41 45 -64q-6 -18 -66 -38q-10 -80 -16 -154q-16 -181 -93 -253q-43 -39 -142 -51q-1 61 -42 89q-11 7 -115 42l8 42q166 -47 199 -43
q75 10 91 152q2 17 9 122q3 33 7 82h-249q-38 -204 -104 -325q-75 -139 -214 -239l-22 32q98 110 129 163q82 139 119 359q11 66 26 233l-55 1l-101 -5q-27 0 -49 -5l-42 88q95 -24 192 -24h164q-17 19 -32 82q-12 48 -97 132l25 31q184 -109 178 -186q-2 -25 -33 -59h169
l72 93l111 -91q16 -13 19 -26q3 -10 -4 -20t-17 -10h-402q-10 -80 -22 -168zM603 1644q-20 12 -26 26q-2 4 -18 51q-30 91 -124 184l23 32q195 -127 211 -210q11 -59 -51 -83h286l85 96l125 -100q20 -16 15 -34q-5 -19 -25 -19h-833q-66 0 -149 -11l-36 86q119 -18 185 -18
h332zM1212 1754q307 -174 285 -303q-7 -42 -46 -44q-31 -2 -50 33q-3 6 -20 52q-36 97 -191 229zM1205 1267q106 -55 172 -103q111 -81 103 -166q-5 -48 -44 -48q-35 0 -66 68q-48 103 -100 149q-10 9 -60 46q-14 11 -27 21zM1621 739l-313 -22q-62 -5 -147 -24l-48 81
q73 -3 84 -3q60 0 107 3l317 21v977q0 121 -8 164l130 -29q61 -13 61 -41q0 -25 -37 -38l-49 -17v-1007l46 5l73 91l121 -77q22 -15 18 -33q-3 -19 -24 -21l-234 -22v-388q0 -71 10 -181q3 -33 3 -70q0 -49 -62 -53q-48 -3 -48 50v634z" />
  </g>

</svg>
