<?xml version="1.0" standalone="no"?>
<!DOCTYPE svg PUBLIC "-//W3C//DTD SVG 1.1//EN" "http://www.w3.org/Graphics/SVG/1.1/DTD/svg11.dtd" >
<svg xmlns="http://www.w3.org/2000/svg" xmlns:xlink="http://www.w3.org/1999/xlink" version="1.1" viewBox="0 -205 1024 1024">
  <g transform="matrix(1 0 0 -1 0 819)">
   <path fill="currentColor"
d="M546 914l50 -44q102 21 162 38q82 22 103 34q22 9 15 29l9 4l57 -52q12 -10 13 -16q0 -5 -11 -6q-27 11 -81 -3q-119 -28 -260 -49v-169v-46h273l29 38l62 -44q11 -8 8 -11q-2 -4 -19 -3h-138v-425l2 -95q1 -36 -53 -46q5 39 7 148v418h-171q-1 -181 -28 -306
q-31 -145 -168 -262l-8 13q110 127 137 260q27 135 24 371v167q-4 21 -26 41zM35 661h388l32 40l68 -50q8 -5 7 -8q-2 -2 -13 -2h-133v-442l2 -87q3 -35 -53 -44q5 37 7 126v447h-129v-81q12 -371 -166 -504l-6 14q79 98 104 221q26 126 24 264v86h-53q-27 1 -45 -13z
M71 905h300l32 40l68 -50q8 -5 7 -8q-2 -2 -13 -2h-315q-27 1 -45 -13z" />
  </g>

</svg>
