<?xml version="1.0" standalone="no"?>
<!DOCTYPE svg PUBLIC "-//W3C//DTD SVG 1.1//EN" "http://www.w3.org/Graphics/SVG/1.1/DTD/svg11.dtd" >
<svg xmlns="http://www.w3.org/2000/svg" xmlns:xlink="http://www.w3.org/1999/xlink" version="1.1" viewBox="0 0 2048 2048">
  <g transform="matrix(1 0 0 -1 0 2048)">
   <path fill="currentColor"
d="M1268 1186q0 -526 -92 -758q-86 -214 -272 -364l-24 23q188 224 241 461q50 226 51 649l1 340l-2 83q-2 94 -6 156l103 -68q352 81 500 221l92 -70q54 -42 40 -68q-6 -11 -26 -13q-15 -2 -31 2l-45 10q-168 -65 -295 -92q-50 -11 -235 -41v-414h483l98 102l121 -107
q20 -18 15 -33q-5 -19 -26 -19h-258v-824q0 -108 11 -209q3 -28 3 -54q0 -39 -49 -42q-62 -4 -62 42l-1 1087h-335zM400 1942q217 -118 231 -217q5 -36 -30 -81h237l61 73l72 -49q37 -25 41 -43q5 -19 -22 -36q-25 -17 -40 -30v-392q1 -59 5 -116q3 -45 3 -79q0 -33 -12 -43
q-17 -15 -45 -17q-47 -3 -47 26v34h-563l1 -705q259 82 417 155l17 -40q-177 -107 -430 -230q1 -88 -34 -72q-10 5 -47 61l-57 87l34 9l2 1280l-8 110q-3 55 -10 90l120 -72l256 -1q-16 19 -31 70q-21 75 -146 203zM291 1587v-248h563v248h-563zM291 1282v-256h563v256h-563
zM752 616q112 -84 164 -134q88 -84 72 -148q-5 -21 -26 -31.5t-41 -2.5q-22 9 -54 58q-73 112 -168 197q-96 86 -265 209l14 31q115 -52 272 -153q111 88 218 234l95 -67q37 -25 33 -40q-6 -21 -48 -15l-38 6q-116 -80 -228 -144z" />
  </g>

</svg>
