<?xml version="1.0" standalone="no"?>
<!DOCTYPE svg PUBLIC "-//W3C//DTD SVG 1.1//EN" "http://www.w3.org/Graphics/SVG/1.1/DTD/svg11.dtd" >
<svg xmlns="http://www.w3.org/2000/svg" xmlns:xlink="http://www.w3.org/1999/xlink" version="1.1" viewBox="0 -205 1024 1024">
  <g transform="matrix(1 0 0 -1 0 819)">
   <path fill="currentColor"
d="M590 917l47 -43q98 20 151 37q85 27 100 36q20 10 12 27l9 4l57 -52q12 -10 13 -16q0 -5 -11 -6q-27 11 -81 -3q-105 -27 -242 -48v-170q0 -24 1 -46h250l29 38l62 -44q11 -8 8 -11q-2 -4 -19 -3h-124v-441l2 -87q2 -36 -51 -46q5 39 7 132v442h-164q0 -179 -28 -304
q-33 -147 -167 -264l-8 13q110 127 137 260q27 135 24 371v167q-4 21 -26 41zM248 642l80 -34q14 -5 6 -11q-16 -4 -27 -18v-153h126v86q2 16 -30 46l9 12l83 -36q14 -5 6 -11q-21 -7 -30 -21v-53l4 -46q0 -27 -42 -41v44h-126v-231l134 11v86q2 16 -30 46l9 12l83 -36
q14 -5 6 -11q-21 -7 -30 -21v-68l4 -34q1 -33 -42 -43v50l-306 -30l-29 -34l-44 40q22 16 26 36v100q3 22 -25 41l7 11l81 -32q8 -2 10 -5t-3 -7q-20 -4 -32 -18v-108l139 11v234h-118l-25 -32l-48 30q26 24 30 44v83q3 22 -25 41l7 11l81 -34q8 -2 10 -5t-3 -7
q-20 -4 -32 -18v-93h123v163q2 17 -25 42zM260 978l80 -34q14 -5 6 -11q-16 -4 -27 -18v-91h86l32 40l68 -48q8 -6 7 -9q-2 -3 -13 -3h-180v-132h132l32 40l68 -50q8 -5 7 -8q-2 -2 -13 -2h-451q-27 1 -45 -13l-34 33h110v157q2 17 -25 42l8 11l76 -34q14 -5 6 -11
q-16 -4 -27 -18v-147h114v253q2 17 -25 42z" />
  </g>

</svg>
