<?xml version="1.0" standalone="no"?>
<!DOCTYPE svg PUBLIC "-//W3C//DTD SVG 1.1//EN" "http://www.w3.org/Graphics/SVG/1.1/DTD/svg11.dtd" >
<svg xmlns="http://www.w3.org/2000/svg" xmlns:xlink="http://www.w3.org/1999/xlink" version="1.1" viewBox="0 0 2048 2048">
  <g transform="matrix(1 0 0 -1 0 2048)">
   <path fill="currentColor"
d="M1095 1550q-92 -146 -223 -270l-27 26q220 259 289 622l146 -54q28 -10 29 -29q2 -26 -35 -33l-58 -10q-45 -118 -87 -195h601l98 102l121 -107q20 -18 15 -34q-6 -18 -26 -18h-843zM1034 1368l120 -89h529l68 77l84 -55q37 -24 40 -48q4 -26 -78 -62l1 -781
q0 -118 2 -145q7 -90 7 -124q0 -55 -65 -55q-39 0 -39 27v100h-557v-111q0 -25 -39 -25q-64 0 -64 53l8 271v829q-3 83 -17 138zM1146 267h557v467h-557v-467zM1146 788h557v434h-557v-434zM458 1596q-21 8 -28 20q-7 15 -14 71q-13 103 -109 247l29 22q191 -199 191 -299
q0 -43 -35 -61h193l98 102l121 -107q20 -18 15 -33q-6 -19 -26 -19h-476q-1 -79 -5 -175q-4 -77 -6 -135l260 -1l68 76l84 -54q40 -26 40 -48q0 -28 -78 -62l-6 -101q-26 -452 -44 -594q-19 -153 -49 -217q-52 -113 -197 -123q-2 55 -27 80q-20 20 -125 81l17 33l64 -31
q88 -42 122 -42q63 0 93 161q19 103 34 295q20 261 22 489h-281q-22 -298 -42 -419q-33 -199 -131 -396q-49 -97 -158 -248l-28 23q164 261 217 572q28 164 41 387q8 150 9 265q2 134 4 184h-44q-118 0 -193 -8l-38 88q97 -23 231 -23h187z" />
  </g>

</svg>
