<?xml version="1.0" standalone="no"?>
<!DOCTYPE svg PUBLIC "-//W3C//DTD SVG 1.1//EN" "http://www.w3.org/Graphics/SVG/1.1/DTD/svg11.dtd" >
<svg xmlns="http://www.w3.org/2000/svg" xmlns:xlink="http://www.w3.org/1999/xlink" version="1.1" viewBox="0 0 2048 2048">
  <g transform="matrix(1 0 0 -1 0 2048)">
   <path fill="currentColor"
d="M484 482h-224v-78q0 -37 -52 -37q-59 0 -55 59l4 57l3 80l4 76v951q0 85 -13 176l118 -90h195l68 76l84 -54q40 -27 40 -49q0 -27 -78 -61v-934q0 -22 4 -84q2 -32 4 -80q2 -40 4 -59q5 -53 -63 -59q-43 -3 -43 26v84zM484 1123v496h-31v0h-193v-496h224zM484 1067h-224
v-529h224v529zM1082 726q50 11 75 17q42 10 237 66l8 -38q-112 -53 -320 -121v-402q0 -142 -158 -172q-2 67 -43 94q-33 21 -160 44l8 45q135 -22 190 -26q68 -6 68 57v331q-125 -36 -215 -59q-10 -68 -32 -74q-20 -6 -38 33l-60 129q143 16 345 55v142q0 73 -9 129l100 -26
q74 81 138 180h-332q-69 0 -148 -10l-40 86q116 -18 188 -18h339l65 66l79 -66q38 -31 35 -52q-3 -17 -36 -27q-7 -2 -14 -3q-17 -4 -50 -14q-111 -107 -178 -159q35 -11 38 -27q3 -17 -25 -29q-6 -3 -13 -5q-15 -5 -43 -15zM1289 1788q-259 -78 -592 -83l-8 40
q390 39 586 174l88 -74q41 -34 34 -56q-4 -14 -23 -15q-15 -2 -37 3zM1271 1671l107 -34q51 -16 46 -44q-2 -14 -42 -24l-38 -12q-56 -163 -178 -303l-28 23q60 132 75 174q31 83 58 220zM948 1655q54 -60 107 -148q52 -87 52 -147q0 -33 -21 -55q-23 -25 -50 -12
q-19 9 -23 29q-3 15 -8 61q-11 118 -86 251zM721 1615q55 -48 107 -115q106 -134 86 -212q-5 -19 -23 -30q-22 -14 -41 -4q-23 13 -35 69q-36 164 -120 268zM1478 1916l109 -24q82 -18 85 -44q4 -30 -49 -44l-42 -11l2 -1519q0 -55 36 -65q31 -8 115 -7q76 1 100 45
q15 27 31 159q13 97 13 141h38v-243q0 -44 15 -63q4 -5 36 -32q17 -14 15 -30q-8 -70 -293 -70q-132 0 -168 32q-36 31 -36 93v1522q0 120 -7 160z" />
  </g>

</svg>
