<?xml version="1.0" standalone="no"?>
<!DOCTYPE svg PUBLIC "-//W3C//DTD SVG 1.1//EN" "http://www.w3.org/Graphics/SVG/1.1/DTD/svg11.dtd" >
<svg xmlns="http://www.w3.org/2000/svg" xmlns:xlink="http://www.w3.org/1999/xlink" version="1.1" viewBox="0 0 2048 2048">
  <g transform="matrix(1 0 0 -1 0 2048)">
   <path fill="currentColor"
d="M473 482h-224v-78q0 -37 -52 -37q-59 0 -55 59l4 57l3 80l4 76v951q0 85 -13 176l118 -90h195l68 74l84 -52q40 -26 40 -49q0 -27 -78 -61v-934q0 -22 4 -84q2 -32 4 -80q2 -40 4 -59q5 -53 -63 -59q-43 -3 -43 26v84zM473 1123v496h-224v-496h224zM473 1067h-224v-529
h224v529zM1680 1421l69 77l84 -55q40 -26 40 -48q0 -27 -70 -57v-611q0 -86 7 -140q4 -43 3 -68q-2 -40 -55 -42q-50 -3 -53 32l-2 34h-372v-81q0 -44 -70 -39q-42 3 -38 52q13 193 13 197v666q-3 120 -15 170l126 -87h333zM1331 601h372v365h-372v-365zM1331 1024h372v345
h-372v-345zM1376 1693h-42q-63 0 -149 -11l-39 86q121 -18 188 -18h42l313 -4l99 102l120 -107q21 -18 16 -33q-6 -19 -26 -19zM1094 146l-39 86q126 -18 188 -18h492l99 100l120 -107q21 -18 16 -32q-6 -18 -26 -18h-701q-64 0 -149 -11zM1115 1365q-39 -45 -175 -131
l-2 -58q-10 -288 -35 -451q232 -168 232 -272q0 -65 -53 -65q-27 0 -41 25q-2 5 -25 71q-33 95 -122 185q-33 -167 -87 -287q-69 -151 -195 -298l-31 25q150 215 207 486q55 258 55 598v510q0 107 -15 192l121 -17q76 -11 79 -41q1 -19 -24 -30l-64 -26v-497q82 94 133 191
l92 -54q50 -24 43 -45q-7 -20 -48 -16zM632 1466q175 -202 175 -366q0 -63 -47 -70q-27 -5 -41 24q-5 13 -13 96q-15 159 -103 296z" />
  </g>

</svg>
