<?xml version="1.0" standalone="no"?>
<!DOCTYPE svg PUBLIC "-//W3C//DTD SVG 1.1//EN" "http://www.w3.org/Graphics/SVG/1.1/DTD/svg11.dtd" >
<svg xmlns="http://www.w3.org/2000/svg" xmlns:xlink="http://www.w3.org/1999/xlink" version="1.1" viewBox="0 0 2048 2048">
  <g transform="matrix(1 0 0 -1 0 2048)">
   <path fill="currentColor"
d="M542 485h-285v-74q0 -37 -52 -37q-59 0 -55 60l4 57l3 80l4 76v1007q0 85 -13 177l118 -91h260l68 76l83 -54q40 -26 40 -48q0 -27 -77 -62v-990q0 -24 3 -85q3 -37 5 -79q1 -41 3 -59q5 -52 -63 -59q-46 -4 -46 26v79zM542 1149v534h-285v-534h285zM542 1093h-285v-552
h285v552zM1447 1184v-274h214l99 102l120 -107q21 -18 16 -33q-6 -19 -26 -19h-423v-277h199l98 102l121 -107q21 -18 16 -33q-6 -19 -26 -19h-408v-278h293l99 102l120 -107q21 -18 16 -33q-6 -19 -26 -19h-943v-76q0 -45 -46 -47q-49 -3 -49 50v995q-69 -56 -210 -150
l-21 30q323 263 467 644h-223q0 -87 -24 -145q-37 -86 -112 -98q-31 -5 -50 19q-15 18 -9 43q6 29 51 61q66 48 85 117q17 62 19 149h35q5 -45 5 -88h242q25 78 62 254l118 -35q58 -17 61 -40q3 -28 -46 -38l-47 -9q-19 -68 -41 -132h528l54 63l64 -45q64 -45 57 -67
q-7 -20 -46 -30q-33 -8 -44 -11q-84 -109 -161 -177l-30 25q60 85 103 184h-545q-89 -222 -217 -389h375q-10 9 -20 51q-23 91 -114 184l22 26q218 -124 198 -221q-4 -18 -30 -40h228l98 101l121 -107q20 -18 16 -33q-6 -18 -26 -18h-457zM1006 1184v-274h346v274h-346z
M1006 853v-277h346v277h-346zM1006 241h346v278h-346v-278z" />
  </g>

</svg>
