<?xml version="1.0" standalone="no"?>
<!DOCTYPE svg PUBLIC "-//W3C//DTD SVG 1.1//EN" "http://www.w3.org/Graphics/SVG/1.1/DTD/svg11.dtd" >
<svg xmlns="http://www.w3.org/2000/svg" xmlns:xlink="http://www.w3.org/1999/xlink" version="1.1" viewBox="0 -200 1001 1000">
  <g transform="matrix(1 0 0 -1 0 800)">
   <path fill="currentColor"
d="M406 355v-216h104v235h-93zM356 441l61 -43h82l37 45l56 -55l-29 -36v-235h-157v-82q-8 -14 -19.5 -22.5t-24.5 -8.5q-6 0 -7 1zM567 907l56 -71h-245l-46 -16l-20 39h126v49l-10 92l79 -36l-17 -62v-44h35zM534 762l64 -67h-191l-45 -12l-16 35h145zM533 610l63 -68
h-188l-42 -14l-17 36h142zM688 920l-51 -15l-16 37h186l36 51l60 -51l-34 -42v-336h-160v-401q0 -55 29 -55h110q15 0 22.5 13.5t11.5 40.5t5.5 66.5t4.5 90.5l6 -5v-29q0 -56 3 -88.5t8 -49.5t11.5 -22.5t13.5 -7.5t13 -3.5t11 -11.5q-3 -13 -12.5 -21t-22.5 -13t-26.5 -8
t-24.5 -6h-168q-22 0 -37.5 21.5t-15.5 50.5v497l64 -35h102v332h-129zM106 859h107l35 41l58 -51l-32 -38v-584q-5 -5 -16.5 -15.5t-36.5 -15.5v114h-127v-87q-4 -6 -18 -17.5t-34 -16.5v709zM93 334h128v233h-128v-233zM93 820v-229h129v245h-115z" />
  </g>

</svg>
