<?xml version="1.0" standalone="no"?>
<!DOCTYPE svg PUBLIC "-//W3C//DTD SVG 1.1//EN" "http://www.w3.org/Graphics/SVG/1.1/DTD/svg11.dtd" >
<svg xmlns="http://www.w3.org/2000/svg" xmlns:xlink="http://www.w3.org/1999/xlink" version="1.1" viewBox="0 -205 1024 1024">
  <g transform="matrix(1 0 0 -1 0 819)">
   <path fill="currentColor"
d="M145 328l36 -38h639l23 29l48 -35q8 -6 6 -10q-2 -5 -12 -7l-18 -9v-150l4 -40q4 -26 -46 -32v54h-637v-21q1 -32 -49 -42q5 35 7 85v174q-3 10 -16 28zM227 599l35 -44h466l35 35l48 -41q7 -6 5 -10q-1 -5 -11 -7l-18 -9v-112l4 -41q7 -41 -46 -44v34h-478
q-1 -20 -12 -28q-12 -10 -36 -15q5 47 7 100v134q-5 24 -14 36zM188 195h637v79h-637v-79zM825 181h-637v-75h637v75zM268 463h477v76h-477v-76zM745 449h-477v-73h477v73zM690 999l66 -22q11 -7 5 -15q-12 -1 -26 -6q-16 -26 -36 -49q78 -22 114 -39q57 -25 83 -61
q26 -41 -6 -49q-16 -1 -33 24q-17 27 -62 55q-39 26 -111 51q-83 -96 -191 -151l-5 16q95 71 150 138q57 71 55 78q0 9 -10 20zM939 620l2 -14q-2 0 -6 -1q-27 -2 -34 -7q-12 -3 -24 -24q-109 38 -198 135q-71 -82 -184 -133l-7 12q80 49 138 116q44 49 54 81q0 9 -12 21
l7 10l70 -25q7 -3 8 -7t-5 -5q-12 -2 -25 -8q-11 -21 -26 -40q79 -82 158 -98q4 -1 11 -2q20 -5 31 -6q7 0 20 -2q14 -2 22 -3zM266 810l66 -22q11 -7 5 -15q-12 -1 -26 -6l-27 -39q63 -17 97 -35q54 -26 78 -62q24 -41 -6 -48q-16 -2 -35 26q-23 33 -58 56q-31 23 -89 47
q-85 -108 -202 -168l-5 16q95 71 151 141q56 71 54 79q0 9 -10 20zM266 999l64 -26q11 -7 5 -15q-12 -1 -26 -6q-3 -4 -9 -13q-7 -10 -23 -30q71 -18 105 -37q52 -27 76 -63q23 -37 -5 -45q-16 -2 -35 26q-19 29 -58 55q-33 24 -96 46q-87 -102 -195 -162l-5 16
q95 76 151 145q56 72 54 79q0 9 -10 20z" />
  </g>

</svg>
