<?xml version="1.0" standalone="no"?>
<!DOCTYPE svg PUBLIC "-//W3C//DTD SVG 1.1//EN" "http://www.w3.org/Graphics/SVG/1.1/DTD/svg11.dtd" >
<svg xmlns="http://www.w3.org/2000/svg" xmlns:xlink="http://www.w3.org/1999/xlink" version="1.1" viewBox="0 0 2048 2048">
  <g transform="matrix(1 0 0 -1 0 2048)">
   <path fill="currentColor"
d="M800 1325l-39 86q121 -19 188 -19h826l57 68l76 -57q47 -35 45 -50q-4 -31 -91 -46q-60 -56 -121 -109l-28 22q35 61 62 115h-826q-68 0 -149 -10zM800 1696l-39 86q27 -4 41 -6q86 -12 147 -12h296v34q0 15 -4 68q-2 23 -5 67l124 -25q67 -13 71 -42q4 -27 -50 -44
l-40 -12v-46h341l80 80l112 -80q29 -21 19 -45q-6 -12 -25 -12h-527v-140h233l88 87l113 -87q23 -18 19 -39q-3 -17 -24 -17h-724q-69 0 -149 -11l-39 86q129 -19 188 -19h199v140h-296q-69 0 -149 -11zM739 788l-40 86q128 -18 187 -18h865l87 83l100 -79q33 -27 23 -51
q-5 -10 -19 -10h-1056q-67 0 -147 -11zM790 704l118 -64h206l61 71l70 -49q39 -28 43 -44q5 -20 -25 -37q-6 -4 -13 -7q-9 -4 -27 -14v-224q18 -17 28 -24q30 -23 30 -38q0 -21 -21 -21h-374v-61q0 -45 -69 -40q-42 3 -39 53l4 54q8 130 8 142v303zM886 308h240v278h-240
v-278zM1341 514l-38 87q121 -20 188 -20h162v50q0 15 -4 57q-1 26 -4 76l106 -18q78 -14 78 -42q0 -30 -81 -49v-74l39 -1l68 76l91 -78q27 -23 23 -38q-5 -15 -20 -15h-201v-296q0 -142 -155 -171q-11 70 -47 93q-33 21 -159 43l8 46q140 -23 190 -26q68 -6 68 58v253h-162
q-69 0 -150 -11zM1380 475q158 -61 162 -136q3 -45 -38 -49q-31 -4 -51 45q-23 55 -92 110zM941 1164l-40 86q121 -17 188 -17h371l87 79l102 -79q27 -21 20 -43q-5 -15 -20 -15h-308v-142h279l91 85l106 -85q19 -16 19 -35q0 -23 -19 -23h-876q-69 0 -151 -10l-37 86
q124 -18 188 -18h304v142h-156q-70 0 -148 -11zM540 486h-273v-67q0 -37 -52 -37q-59 0 -55 60l4 57l3 80l4 76v950q0 85 -13 177l118 -91h244l68 76l84 -54q40 -26 40 -48q0 -27 -77 -62v-933q0 -24 3 -85q3 -38 4 -79q2 -41 4 -59q5 -53 -63 -59q-43 -3 -43 25v73z
M540 1134v500h-107v0h-166v-500h273zM540 1079h-273v-537h273v537z" />
  </g>

</svg>
