<?xml version="1.0" standalone="no"?>
<!DOCTYPE svg PUBLIC "-//W3C//DTD SVG 1.1//EN" "http://www.w3.org/Graphics/SVG/1.1/DTD/svg11.dtd" >
<svg xmlns="http://www.w3.org/2000/svg" xmlns:xlink="http://www.w3.org/1999/xlink" version="1.1" viewBox="0 0 2048 2048">
  <g transform="matrix(1 0 0 -1 0 2048)">
   <path fill="currentColor"
d="M638 549q-78 -27 -288 -76l-6 39q278 81 409 166q-26 8 -35 18q-6 6 -43 58q-34 48 -115 97l17 33q221 -72 221 -156q0 -7 -2 -19q157 123 256 318l110 -45q35 -15 30 -38q-4 -15 -30 -19l-53 -7l-13 -18q146 -105 282 -170q16 13 24 20q63 51 141 150l111 -72
q18 -12 15 -29q-4 -21 -31 -19l-63 6q-88 -54 -145 -80q235 -99 522 -95v-37q-57 -8 -78 -20q-26 -14 -35 -57q-156 22 -276 65l23 -15q40 -26 40 -49q0 -26 -77 -61v-148q0 -68 11 -177q6 -54 -63 -59q-42 -3 -42 24v39h-715v-31q0 -38 -52 -38q-55 0 -55 60q0 20 4 57
q7 69 7 103v172q0 17 -6 110zM686 568l63 -43h685l59 65q-184 81 -420 279q-157 -208 -387 -301zM1455 347v121h-715v-121h715zM1455 291h-715v-119h715v119zM1326 1729v-130h369l62 72l70 -49q38 -27 42 -44q5 -20 -25 -37q-6 -4 -12 -7q-9 -4 -27 -14v-170q0 -38 -55 -43
q-39 -4 -39 20v23h-524l79 -17q82 -17 86 -43q3 -27 -48 -44l-46 -15v-33h306l80 81l113 -86q22 -17 16 -33t-28 -16h-487v-30q0 -57 31 -71q55 -24 250 -24q139 0 205 11q71 11 83 72l23 122l43 -5l-6 -98q-3 -44 18 -62q4 -4 31 -22q15 -10 15 -26q0 -76 -371 -76
q-247 0 -320 18q-95 24 -95 134v111q0 99 -6 152h-669l40 -9q92 -22 92 -48q0 -17 -55 -40l-37 -15v-51h300l80 80l114 -86q21 -16 16 -33q-4 -15 -28 -15h-482v-117q43 6 133 14t357 47l12 -38q-157 -45 -271 -74q-32 -9 -141 -32q-34 -7 -80 -19l-4 -26q-4 -32 -21 -34
q-19 -3 -34 26l-63 125h17v200q0 88 -4 122q-2 12 -2 21q-17 -1 -48 -4q-21 -1 -31 -2l-34 79v-342q0 -387 -46 -589q-46 -205 -185 -388l-32 23q108 190 138 420q30 231 30 516v611q0 57 -13 186l118 -72h665q-11 10 -16 29q-20 70 -91 140l19 25q162 -83 158 -148
q-2 -27 -29 -46h666l99 102l120 -107q20 -18 16 -34q-6 -18 -26 -18h-581zM1326 1409h385v132h-385v-132zM1235 1729h-394v-130h394v130zM841 1409h394v132h-394v-132zM316 1429q98 -20 226 -20h205v132h-218q-109 0 -192 -8l-21 48v-152zM316 1617q80 -18 213 -18h218v130
h-431v-112z" />
  </g>

</svg>
