<?xml version="1.0" standalone="no"?>
<!DOCTYPE svg PUBLIC "-//W3C//DTD SVG 1.1//EN" "http://www.w3.org/Graphics/SVG/1.1/DTD/svg11.dtd" >
<svg xmlns="http://www.w3.org/2000/svg" xmlns:xlink="http://www.w3.org/1999/xlink" version="1.1" viewBox="0 0 2048 2048">
  <g transform="matrix(1 0 0 -1 0 2048)">
   <path fill="currentColor"
d="M1141 563q-18 0 -113 -9l-32 84q94 -19 226 -19h468l61 67l74 -48q42 -28 46 -48q4 -24 -80 -51q-120 -157 -248 -253q178 -85 431 -99v-41q-90 -10 -116 -75q-254 66 -401 159q-224 -128 -575 -163l-5 37q289 46 509 177q-124 102 -245 282zM1459 331q128 101 215 232
h-488q10 -11 48 -52q83 -90 225 -180zM1146 1381h333q-6 9 -18 49q-16 53 -79 108l18 28q151 -65 160 -125q5 -36 -26 -60h208l80 81l114 -86q21 -16 16 -33q-6 -18 -26 -18h-402v-134h178l80 81l114 -89q21 -16 16 -31q-7 -17 -26 -17h-362v-137h167l80 80l114 -86
q21 -16 15 -33q-6 -18 -26 -18h-350v-141h258l80 81l114 -86q21 -16 15 -34q-5 -18 -25 -18h-833v-38q0 -27 -44 -30q-66 -6 -61 50l4 42q7 98 7 104l-1 368q-66 -73 -162 -150l-28 25q189 195 255 443l123 -40q42 -14 42 -38q0 -23 -44 -30l-42 -7q-17 -31 -36 -61z
M1430 1325h-297v-134h297v134zM1133 1135v-137h297v137h-297zM1133 941v-141h297v141h-297zM151 1928l127 -88h416l68 76l84 -55q40 -26 40 -48q0 -30 -74 -58v-272q0 -120 8 -205q3 -30 2 -50q-4 -49 -66 -45q-42 3 -42 25v24h-454v-24q0 -21 -44 -23q-36 -2 -51 14
q-8 9 -8 41l1 29q7 135 7 257v264q-3 87 -14 138zM260 1286h454v224h-454v-224zM260 1568h454v214h-454v-214zM693 1034l80 81l114 -86q21 -16 15 -34q-5 -19 -25 -19h-165v-232h32l80 81l114 -86q21 -16 16 -34q-6 -19 -26 -19h-216v-467q0 -141 -154 -170q-13 72 -49 92
q-40 22 -179 50l8 46q159 -29 209 -33q68 -5 68 57v425h-378q-69 0 -149 -11l-39 86q116 -17 188 -17h378v232h-320q-69 0 -149 -10l-39 85q119 -17 188 -17h398zM212 615q90 -59 127 -89q80 -67 84 -122q2 -28 -19.5 -47t-43.5 -9q-18 7 -38 62q-32 87 -128 181zM1640 1747
h133l80 81l114 -86q22 -16 16 -33q-6 -18 -26 -18h-317v-91q0 -47 -37 -54q-55 -10 -55 34v206q0 118 -8 159l105 -24q83 -18 86 -43q3 -30 -50 -44l-41 -11v-76zM929 1682l-38 88q94 -23 230 -23h67v39q0 117 -7 159l109 -24q82 -18 85 -43q4 -30 -49 -44l-42 -11l-1 -239
q0 -38 -62 -38q-33 0 -33 34v111h-67q-88 0 -192 -9z" />
  </g>

</svg>
