<?xml version="1.0" standalone="no"?>
<!DOCTYPE svg PUBLIC "-//W3C//DTD SVG 1.1//EN" "http://www.w3.org/Graphics/SVG/1.1/DTD/svg11.dtd" >
<svg xmlns="http://www.w3.org/2000/svg" xmlns:xlink="http://www.w3.org/1999/xlink" version="1.1" viewBox="0 -200 1000 1000">
  <g transform="matrix(1 0 0 -1 0 800)">
   <path fill="currentColor"
d="M825 538h-120v317q23 8 53 18t69 20l62 4l-57 72q-18 -16 -58.5 -35t-93 -39.5t-112 -41.5t-114.5 -40l10 -4q48 4 93 13t93 20v-306h-222l27 -36l60 14h135v-408h-224l26 -35l63 13h419l-76 66l-54 -44h-99v408h242l-72 70zM47 276q27 53 54.5 112.5t50.5 119.5t39 118
t21 108h-69l-70 -15l-19 37h162v245l76 -32l-21 -67v-146h54l50 47l62 -69h-166v-119q22 -15 44 -30.5t40.5 -31t33 -30.5t21.5 -28q9 -15 9 -33t-10 -32t-29 -14q-7 0 -12.5 10.5t-12.5 27.5q-8 16 -14.5 29.5t-15.5 28.5t-21.5 34t-32.5 46v-564q-10 -12 -21 -17t-35 -12
l1 536q-31 -63 -67 -131.5t-90 -135.5z" />
  </g>

</svg>
