<?xml version="1.0" standalone="no"?>
<!DOCTYPE svg PUBLIC "-//W3C//DTD SVG 1.1//EN" "http://www.w3.org/Graphics/SVG/1.1/DTD/svg11.dtd" >
<svg xmlns="http://www.w3.org/2000/svg" xmlns:xlink="http://www.w3.org/1999/xlink" version="1.1" viewBox="0 0 2048 2048">
  <g transform="matrix(1 0 0 -1 0 2048)">
   <path fill="currentColor"
d="M1386 1798q146 -233 291 -350q98 -79 193 -115q56 -22 122 -42l-2 -30q-58 -6 -86 -21q-24 -13 -45 -47q-150 91 -212 150q-148 140 -289 397q-58 -118 -169 -247q-156 -181 -383 -298l-19 34q191 124 342 328q134 181 172 372l125 -53q49 -20 47 -41q-2 -22 -32 -26
l-54 -7zM1012 1121l119 -38q63 -21 59 -48q-3 -22 -51 -28l-45 -6q-69 -248 -121 -359q-81 -174 -199 -314l-31 23q120 192 183 390q48 149 86 380zM1557 1097q152 -166 241 -320q144 -247 128 -369q-6 -44 -40 -60q-40 -19 -65 36q-7 16 -31 139q-52 272 -266 547z
M371 1481v294q0 114 -8 160l110 -22q78 -15 84 -46q5 -28 -49 -44l-40 -11v-331h106l98 101l121 -107q17 -15 15 -33q-2 -19 -26 -19h-314v-172q249 -182 255 -287q2 -34 -19 -55q-12 -12 -26 -12q-35 0 -69 78q-40 91 -141 203l-1 -796q0 -104 12 -209q3 -29 3 -54
q0 -39 -49 -42q-62 -4 -62 42v1066q-106 -359 -300 -622l-33 25q132 237 200 449q52 164 88 386h-41q-117 0 -192 -8l-38 88q95 -22 230 -22h86zM1298 1316l109 -25q82 -18 85 -43q3 -30 -49 -44l-42 -11v-972q0 -88 -70 -136q-24 -16 -91 -32q-8 71 -68 93q-64 24 -173 37
v46q119 -23 226 -30q49 -3 68 16q13 14 13 56v885q0 114 -8 160z" />
  </g>

</svg>
