<?xml version="1.0" standalone="no"?>
<!DOCTYPE svg PUBLIC "-//W3C//DTD SVG 1.1//EN" "http://www.w3.org/Graphics/SVG/1.1/DTD/svg11.dtd" >
<svg xmlns="http://www.w3.org/2000/svg" xmlns:xlink="http://www.w3.org/1999/xlink" version="1.1" viewBox="0 0 2048 2048">
  <g transform="matrix(1 0 0 -1 0 2048)">
   <path fill="currentColor"
d="M1218 1078q46 127 89 296l119 -56q31 -15 28 -32q-2 -18 -30 -22l-42 -6q-23 -58 -34 -88q-8 -21 -67 -161q181 -220 159 -321q-6 -24 -24 -36.5t-38 -6.5q-35 9 -58 91q-25 89 -79 194q-67 -124 -214 -318l-28 21q114 189 193 377q-21 28 -31 43q-39 54 -113 146l21 24
q86 -78 149 -145zM1048 1594h746l68 76l84 -54q40 -26 40 -49q0 -27 -78 -61l-27 -524q-28 -525 -74 -670q-47 -148 -163 -201q-42 -19 -116 -31q-8 73 -70 108q-34 19 -196 67l11 41q235 -58 287 -64q86 -10 129 71q58 109 87 542l11 163l23 527h-808q-107 -131 -231 -223
l-23 25q220 221 336 581l127 -49q44 -17 44 -38q0 -25 -44 -30l-46 -6q-56 -107 -117 -201zM946 561h575v570q0 113 -7 160l101 -24q70 -17 74 -44q4 -26 -51 -42l-23 -7v-501q0 -71 10 -165q7 -66 -66 -66q-38 0 -38 28v31h-570q-44 -14 -64 -11q-30 3 -30 45v612
q0 120 -8 160l102 -24q69 -17 73 -44t-51 -42l-27 -7v-629zM354 1477v317q0 117 -8 160l109 -24q82 -18 85 -44q4 -28 -49 -43l-40 -12v-354h87l99 102l121 -107q20 -18 15 -34q-6 -18 -26 -18h-296v-123q249 -182 256 -287q2 -34 -20 -55q-12 -12 -25 -12q-35 0 -70 78
q-46 104 -141 206l-1 -864q0 -106 12 -210q3 -28 3 -53q0 -39 -49 -42q-62 -4 -62 42v1033q-98 -309 -284 -569l-32 23q206 360 281 833h-32q-117 0 -192 -8l-38 88q96 -23 230 -23h41l1 2l2 -2h23z" />
  </g>

</svg>
