<?xml version="1.0" standalone="no"?>
<!DOCTYPE svg PUBLIC "-//W3C//DTD SVG 1.1//EN" "http://www.w3.org/Graphics/SVG/1.1/DTD/svg11.dtd" >
<svg xmlns="http://www.w3.org/2000/svg" xmlns:xlink="http://www.w3.org/1999/xlink" version="1.1" viewBox="0 0 2048 2048">
  <g transform="matrix(1 0 0 -1 0 2048)">
   <path fill="currentColor"
d="M421 1507l40 -31h264l68 76l84 -54q40 -26 40 -48q0 -28 -78 -62v-302l49 -39q22 -18 13 -38q-4 -10 -24 -10h-438v-27q0 -45 -69 -39q-42 3 -39 52l4 55q8 134 8 142v229q-98 -104 -220 -193l-31 35q260 221 352 496h-181q-64 0 -149 -11l-39 86q117 -18 188 -18h530
l80 81l114 -86q21 -16 15 -34q-5 -18 -25 -18h-426q-52 -127 -130 -242zM439 1056h308v364h-308v-364zM635 621l131 -88q24 -16 21 -32q-3 -22 -38 -23l-61 -2q-131 -126 -257 -210q-122 -81 -295 -151l-16 35q344 186 515 471zM1308 581q304 -120 406 -179
q190 -109 201 -208q2 -19 -7 -36q-13 -28 -39 -28q-37 0 -66 32q-14 14 -57 64q-93 108 -237 194q-73 45 -217 125zM1477 1904q31 -13 46 -19q90 -34 119 -58q37 -30 44 -69q4 -23 -9 -42q-14 -20 -37 -18q-23 1 -33 20l-21 44q-21 42 -123 106zM1077 747h667l99 102
l120 -107q20 -18 16 -33q-6 -19 -26 -19h-876l1 -363q0 -108 9 -189q3 -28 3 -54q0 -39 -49 -42q-62 -4 -62 42v606h-695q-66 0 -149 -11l-39 86q121 -18 188 -18h695v86q0 114 -8 160l109 -24q82 -18 85 -44q4 -29 -49 -44l-40 -11zM1478 1312q136 89 224 211l113 -88
q24 -19 18 -37q-8 -20 -42 -15l-51 8q-89 -77 -193 -146q105 -87 219 -113q70 -16 92 21q18 31 65 211l36 -15q-20 -107 -25 -151q-8 -61 25 -100q25 -28 25 -47q0 -44 -87 -44q-230 0 -441 186q-223 -105 -452 -122l-10 38q228 46 400 150q-74 94 -141 268l-145 -18
l-106 -23l-55 72l139 12l148 19q-33 108 -66 319l116 -15q68 -9 73 -32q5 -26 -27 -40l-44 -20q15 -109 41 -201l369 44l66 106l125 -78q32 -20 28 -38q-5 -25 -28 -28l-541 -66q47 -126 132 -228z" />
  </g>

</svg>
