<?xml version="1.0" standalone="no"?>
<!DOCTYPE svg PUBLIC "-//W3C//DTD SVG 1.1//EN" "http://www.w3.org/Graphics/SVG/1.1/DTD/svg11.dtd" >
<svg xmlns="http://www.w3.org/2000/svg" xmlns:xlink="http://www.w3.org/1999/xlink" version="1.1" viewBox="0 0 2048 2048">
  <g transform="matrix(1 0 0 -1 0 2048)">
   <path fill="currentColor"
d="M635 872v-499q0 -109 12 -219q4 -28 4 -54q0 -39 -49 -42q-63 -4 -63 42l1 657q-136 -203 -245 -311q-85 -84 -208 -168l-20 30q152 134 271 305q100 144 202 394l-1 571h-208q-108 0 -192 -8l-38 88q96 -23 230 -23h208v152q0 115 -8 160l109 -24q83 -18 86 -44t-51 -44
l-40 -13v-187h203l98 102l121 -107q20 -18 15 -34q-6 -18 -26 -18h-411v-654q87 -55 217 -169q157 -138 175 -241q12 -65 -40 -77q-43 -9 -81 72q-88 187 -271 363zM873 1185q231 -159 216 -268q-3 -24 -24 -38q-29 -20 -52 -6q-12 7 -37 85q-30 92 -120 191
q-70 -131 -156 -240l-28 24q121 224 186 547l129 -40q36 -12 36 -33q0 -22 -39 -32l-46 -12q-31 -97 -65 -178zM283 1205q227 -144 213 -246q-2 -21 -18 -37q-17 -17 -36 -16q-37 2 -57 65q-30 95 -119 186q-82 -206 -172 -325l-28 25q119 215 187 627l130 -40
q36 -11 36 -33q0 -21 -39 -32l-44 -12q-12 -35 -27 -83q-12 -38 -26 -79zM1269 862l479 1l68 76l83 -55q41 -26 41 -48q0 -27 -78 -61v-522l52 -34q22 -15 22 -34t-18 -19h-657v-69q0 -29 -44 -29q-60 0 -60 52l9 161v498q0 1 -9 167zM1261 222h507v583h-507v-583z
M1821 1177q-91 -13 -278 -40q-82 -12 -345 -42l-10 -37q-7 -27 -25 -25q-13 2 -28 33l-59 119q61 48 125 144q204 307 306 595l135 -65q34 -16 32 -36q-2 -28 -48 -30l-46 -2q-212 -374 -411 -589h81q50 0 550 19q-44 83 -92 154q-7 11 -106 136l24 26q351 -321 351 -482
q0 -77 -57 -69q-35 5 -52 62q-18 60 -47 129z" />
  </g>

</svg>
