<?xml version="1.0" standalone="no"?>
<!DOCTYPE svg PUBLIC "-//W3C//DTD SVG 1.1//EN" "http://www.w3.org/Graphics/SVG/1.1/DTD/svg11.dtd" >
<svg xmlns="http://www.w3.org/2000/svg" xmlns:xlink="http://www.w3.org/1999/xlink" version="1.1" viewBox="0 -205 1024 1024">
  <g transform="matrix(1 0 0 -1 0 819)">
   <path fill="currentColor"
d="M950 520q10 -12 -2 -18q-12 0 -22 -13q-27 -104 -71 -192q-17 -33 -38 -64q23 -36 55 -70q42 -43 73 -60q30 -15 68 -20v-19q-27 5 -47 -1q-21 -6 -30 -20q-53 32 -101 92q-24 27 -45 64q-28 -33 -62 -62q-84 -73 -189 -109l-6 16q88 46 162 111q41 37 74 80
q-7 12 -18 38q-4 9 -6 14q-41 91 -64 220q-25 -2 -33 -14l-32 34h262l23 29zM33 740h173v201q2 16 -30 46l9 12l89 -36q14 -5 6 -11q-21 -9 -30 -21v-191h64l31 40l61 -48q11 -8 8 -11q-3 -2 -19 -1h-145v-117q29 -16 50 -34q33 -30 47 -60q13 -33 7 -55q-8 -24 -26 -25
q-19 -1 -22 33q-3 33 -23 69q-12 20 -33 41v-401l2 -96q0 -21 -13 -31q-15 -9 -40 -15q4 39 7 189v346q-51 -166 -179 -299l-12 12q136 196 184 443h-87q-27 0 -45 -13zM602 633l50 -40q8 -9 7 -14q0 -5 -9 -6q-19 4 -38 -2q-83 -33 -170 -56v-211q9 3 28 8q62 17 98 27
q3 32 2 67v63q-5 19 -23 34l9 12l81 -28q7 -3 7 -6t-5 -7q-17 -8 -26 -14v-52q9 -146 -75 -239q-85 -93 -201 -135l-6 16q100 54 173 138q45 52 60 128q-67 -24 -92 -35q-30 -13 -38 -22q-3 -3 -12 -13q-6 -8 -10 -12l-43 48q17 6 29 23v218q-2 24 -17 37l12 13l41 -37
q47 17 95 39q57 26 61 33q3 6 2 21zM459 922l82 -35q14 -5 6 -11q-18 -6 -27 -18v-186h143v267q2 15 -26 42l9 11l82 -34q14 -5 6 -11q-18 -6 -27 -18v-101h131l31 42l67 -50q11 -8 8 -11q-3 -2 -19 -1h-218v-136h192l31 42l66 -50q11 -8 8 -11q-3 -2 -19 -1h-567
q-27 0 -46 -13l-34 33h138v196q2 15 -25 43zM748 380q22 -62 46 -107q12 19 23 40q45 90 67 194h-178q15 -60 42 -127z" />
  </g>

</svg>
