<?xml version="1.0" standalone="no"?>
<!DOCTYPE svg PUBLIC "-//W3C//DTD SVG 1.1//EN" "http://www.w3.org/Graphics/SVG/1.1/DTD/svg11.dtd" >
<svg xmlns="http://www.w3.org/2000/svg" xmlns:xlink="http://www.w3.org/1999/xlink" version="1.1" viewBox="0 -205 1024 1024">
  <g transform="matrix(1 0 0 -1 0 819)">
   <path fill="currentColor"
d="M41 681h129q3 78 2 187q-5 21 -26 42l9 10l49 -40h46q6 14 16 38q10 23 14 32q12 30 9 38t-11 17l5 6l65 -27q15 -9 5 -15q-13 0 -25 -7q-36 -55 -57 -82h123l28 36l46 -39q9 -6 9 -11t-9 -8l-14 -9v-369q0 -27 -12 -45q-12 -19 -57 -28q-5 30 -23 38q-18 9 -59 13l2 16
q65 -7 77 -7q14 0 21 6t7 72v116h-199q-5 -79 -17 -125q-27 -98 -145 -167l-4 15q92 72 112 166q8 43 12 111h-49q-27 0 -45 -13zM469 430l91 -24q14 -5 6 -11q-21 -9 -30 -22v-33h333l32 37l68 -44q10 -8 7 -11q-4 -3 -20 -2h-384q147 -181 433 -195v-18q-48 -1 -64 -7
q-17 -5 -35 -30q-243 64 -358 250h-12v-221l2 -43q0 -21 -15 -31q-15 -9 -40 -15q4 39 7 137v173h-2q-155 -194 -448 -278l-4 16q243 94 395 262h-302q-28 0 -48 -13l-32 33h441v44q2 16 -30 34zM216 860q0 -104 -4 -179h198v179h-194zM486 796h161q7 69 7 149q0 21 -29 33
l8 12l91 -24q15 -7 7 -14q-13 1 -23 -14q-4 -79 -14 -142h169l25 37l63 -48q7 -6 5 -9q-1 -2 -10 -1h-255q-36 -243 -209 -343l-10 12q139 98 173 331h-90q-24 1 -39 -14zM695 668l10 14q114 -66 150 -99q47 -44 57 -84q9 -39 -17 -50q-22 -9 -31 29q-6 26 -49 83
q-34 45 -120 107zM260 631l6 12q44 -23 60 -53q15 -30 9 -55q-7 -26 -22 -23q-15 2 -13 23t-6 45q-9 24 -34 51zM761 938l1 10q42 -15 65 -31q21 -13 33 -36q9 -19 5 -37q-7 -18 -18 -15q-12 0 -16 20q-5 22 -20 43q-15 25 -50 46zM254 818l6 11q50 -27 66 -49
q15 -23 14 -47q-2 -24 -17 -27t-16 14t-10 41t-43 57z" />
  </g>

</svg>
