<?xml version="1.0" standalone="no"?>
<!DOCTYPE svg PUBLIC "-//W3C//DTD SVG 1.1//EN" "http://www.w3.org/Graphics/SVG/1.1/DTD/svg11.dtd" >
<svg xmlns="http://www.w3.org/2000/svg" xmlns:xlink="http://www.w3.org/1999/xlink" version="1.1" viewBox="0 -205 1024 1024">
  <g transform="matrix(1 0 0 -1 0 819)">
   <path fill="currentColor"
d="M474 699l41 -46h367l40 39l46 -47q7 -7 5 -11q-1 -5 -11 -7l-18 -9v-291l3 -77q-1 -18 -12 -25q-12 -8 -33 -8v46h-379v-25q0 -21 -11 -30q-12 -8 -38 -14q4 37 7 148v304q2 16 -19 37zM522 992l40 -40h268l39 39l47 -47q7 -6 5 -10q-1 -5 -11 -7l-19 -9v-97l3 -69
q-1 -18 -12 -25q-12 -8 -33 -8v34h-278v-9q0 -21 -11 -30q-12 -9 -38 -14q4 36 7 102v137q2 16 -19 37zM213 997l87 -36q14 -5 6 -11q-21 -9 -30 -21v-183h78l33 40l66 -50q7 -5 6 -8q-1 -2 -12 -2h-171v-86q45 -24 77 -49q42 -38 54 -70q12 -36 5 -54q-9 -20 -24 -17
q-17 0 -23 36q-6 33 -36 77q-21 29 -53 53v-447l2 -96q0 -21 -13 -31q-14 -9 -38 -15q4 39 7 189v371q-52 -180 -199 -338l-10 8q151 206 199 469h-102q-27 0 -45 -13l-34 33h191v193q2 16 -30 46zM571 773h278v159h-278v-159zM902 510h-379v-106h379v106zM523 530h379v102
h-379v-102zM902 384h-379v-101h379v101zM584 235l59 -51q7 -5 7 -9q0 -3 -7 -5q-17 4 -32 -5q-15 -7 -82 -49t-178 -82l-6 12q100 54 166 103q62 44 69 59q3 12 -4 21zM762 221q74 -24 117 -45q57 -25 87 -53q32 -28 35 -55q3 -26 -14 -32q-18 -6 -37 28q-21 33 -72 74
q-51 38 -120 70z" />
  </g>

</svg>
