<?xml version="1.0" standalone="no"?>
<!DOCTYPE svg PUBLIC "-//W3C//DTD SVG 1.1//EN" "http://www.w3.org/Graphics/SVG/1.1/DTD/svg11.dtd" >
<svg xmlns="http://www.w3.org/2000/svg" xmlns:xlink="http://www.w3.org/1999/xlink" version="1.1" viewBox="0 0 2048 2048">
  <g transform="matrix(1 0 0 -1 0 2048)">
   <path fill="currentColor"
d="M1198 1202h-277v-25q0 -26 -44 -30q-66 -5 -61 51l4 42q6 101 6 104v293l121 -65h188v195h-164q-117 0 -192 -8l-38 88q96 -23 230 -23h771l99 102l120 -107q21 -18 16 -33q-6 -19 -26 -19h-412v-195h194l68 78l84 -54q40 -26 40 -49q0 -28 -77 -62v-136q0 -49 6 -104
q4 -27 4 -44q0 -41 -57 -49q-48 -7 -48 25v25h-520l85 -42q31 -16 34 -38q3 -29 -31 -31l-58 -2l-59 -81h538l98 101l121 -107q21 -18 16 -32q-6 -19 -26 -19h-357q172 -221 409 -270l-2 -37q-65 -4 -84 -11q-37 -13 -58 -54q-191 128 -333 372h-364q-75 -87 -169 -168
l83 -59h422l60 66l72 -51q39 -28 44 -49q4 -20 -25 -34l-10 -4q-9 -3 -26 -11q-12 -187 -40 -230q-40 -63 -163 -91q3 22 1 35q-8 62 -163 94l8 41q91 -18 156 -23q71 -6 87 43q8 27 16 157h-443l1 -370q1 -62 32 -74q39 -14 278 -14q242 0 287 11q47 11 62 100l23 133
l46 -4l-9 -122q-4 -53 11 -72q8 -10 37 -34q10 -8 13 -15q19 -37 -39 -60q-78 -30 -416 -30q-297 0 -344 14q-76 24 -76 121v518q-121 -102 -341 -218l-20 33q274 184 432 367h-116q-114 0 -192 -9l-38 89q97 -23 230 -23l154 1q68 103 111 193zM921 1256h214v258h-214v-258
zM1753 1256v258h-214v-258h214zM1441 1256v258h-212v-258h212zM1441 1767h-212v-195h212v195zM357 1485v282q0 114 -8 160l109 -24q83 -18 86 -44q3 -28 -50 -43l-40 -11v-320h97l92 98l105 -93q29 -26 24 -44q-5 -19 -24 -19h-294v-152q116 -98 150 -134q84 -91 90 -158
q2 -29 -11 -49q-16 -26 -48 -21q-31 4 -60 80q-39 105 -121 211v-868q0 -110 11 -209q3 -28 3 -54q0 -39 -49 -42q-62 -4 -62 42v1028q-109 -343 -271 -565l-33 20q192 362 271 871h-45q-117 0 -193 -8l-37 88q96 -22 230 -22h78z" />
  </g>

</svg>
