<?xml version="1.0" standalone="no"?>
<!DOCTYPE svg PUBLIC "-//W3C//DTD SVG 1.1//EN" "http://www.w3.org/Graphics/SVG/1.1/DTD/svg11.dtd" >
<svg xmlns="http://www.w3.org/2000/svg" xmlns:xlink="http://www.w3.org/1999/xlink" version="1.1" viewBox="0 0 2048 2048">
  <g transform="matrix(1 0 0 -1 0 2048)">
   <path fill="currentColor"
d="M1584 1223l4 -21q61 -316 95 -437q71 -250 169 -411q50 -83 158 -174l-11 -31q-20 7 -30 8q-57 8 -114 -46q-142 237 -211 504q-52 202 -85 440q-22 -264 -72 -466q-57 -227 -149 -372q-47 -75 -128 -163l-31 23q156 215 226 537q56 261 69 609h-24q-102 0 -162 -6
l-38 86q94 -22 200 -22h24q0 20 4 142v179q0 59 -9 338l115 -17q68 -10 73 -30q6 -22 -38 -42l-41 -19q0 -380 -6 -551h154l98 102l121 -109q20 -18 15 -32q-6 -19 -26 -19h-350zM1120 547q-15 -8 -22 -11q-83 -41 -187 -81l-7 -46q-6 -33 -27 -33q-20 0 -38 37l-36 78
q-30 -265 -193 -432l-27 22q66 105 99 224q40 145 40 406v270l-3 47q-2 71 -8 116l124 -61h265l68 77l83 -55q41 -26 41 -48q0 -28 -78 -62v-713q0 -142 -154 -171q-12 70 -47 93q-34 21 -160 43l8 46q141 -22 190 -26q69 -6 69 56v224zM808 543q106 9 312 56v426h-304v-132
q101 -21 168 -45q93 -33 106 -83q14 -50 -22 -67q-28 -13 -65 30q-65 75 -187 121v-149q0 -44 -6 -133zM1632 1722q92 -42 157 -91q105 -80 96 -145q-6 -51 -49 -49q-36 2 -61 65q-38 97 -159 187zM444 1287q205 -158 211 -275q3 -65 -50 -68q-29 -1 -41 26q-7 15 -18 60
q-22 92 -102 187v-894l2 -44l2 -48l4 -51l2 -38q2 -29 2 -30q0 -53 -65 -53q-44 0 -44 32v1045q-83 -267 -244 -554l-31 21q173 367 241 826h-43q-69 0 -149 -10l-39 86q119 -18 188 -18h77v305q0 119 -7 160l110 -24q83 -18 86 -44q3 -32 -48 -44l-44 -10v-343h44l88 85
l111 -91q19 -15 15 -32q-4 -20 -26 -20h-232v-142zM1092 1840l68 76l84 -54q40 -26 40 -49q0 -27 -78 -61v-316q0 -47 7 -104q3 -26 3 -43q0 -41 -58 -49q-48 -7 -48 24v32h-279v-47q0 -27 -45 -30q-66 -5 -60 51l4 41q5 104 5 105v488l118 -64h239zM831 1603h279v179h-279
v-179zM831 1549v-195h279v195h-279z" />
  </g>

</svg>
