<?xml version="1.0" standalone="no"?>
<!DOCTYPE svg PUBLIC "-//W3C//DTD SVG 1.1//EN" "http://www.w3.org/Graphics/SVG/1.1/DTD/svg11.dtd" >
<svg xmlns="http://www.w3.org/2000/svg" xmlns:xlink="http://www.w3.org/1999/xlink" version="1.1" viewBox="0 0 2048 2048">
  <g transform="matrix(1 0 0 -1 0 2048)">
   <path fill="currentColor"
d="M1676 883h-307l1 -55l7 -109q0 -45 -58 -42q-42 3 -42 36v170h-324v-164q0 -42 -56 -42q-49 0 -49 42q0 26 3 54q13 109 12 209v303l94 -42h319v92h-276q-120 0 -193 -10l-38 88q93 -21 237 -21h270q0 106 -7 154l109 -27q70 -17 70 -44q0 -24 -36 -37l-43 -17v-29h330
l81 81l114 -85q20 -16 15 -34q-5 -19 -26 -19h-514v-92h297l61 73l87 -62q22 -16 27 -31q6 -20 -28 -39q-39 -23 -41 -24v-369q0 -62 -50 -95q-20 -13 -87 -34q-1 55 -29 77q-21 16 -98 35l5 41q82 -20 118 -20q45 0 45 63v25zM1276 937v101l-322 1l-1 -102h323zM1369 937
h307v100l-307 1v-101zM1676 1185h-307v-92h307v92zM1276 1185h-323v-92h323v92zM765 474l-37 89q90 -22 236 -22h575q2 33 2 43l-6 57q-2 27 -4 38l119 -29q58 -14 58 -37q0 -22 -41 -36l-32 -11v-25h102l80 82l114 -86q21 -16 16 -34q-6 -19 -26 -19h-286v-270
q0 -83 -64 -124q-26 -17 -87 -35q-5 67 -37 86q-26 16 -123 32l4 41q115 -15 140 -15q41 0 56 12q15 11 15 45v228l-624 1q-68 0 -150 -11zM926 432l22 34q119 -67 149 -90q61 -45 49 -101q-7 -32 -36 -37q-30 -6 -48 23q-5 7 -23 45q-33 70 -113 126zM1070 1722h49l76 78
l106 -82q21 -16 16 -34q-6 -19 -26 -19h-217l9 -90l5 -48q0 -28 -40 -36q-36 -7 -46 13q-3 5 -6 35l-9 126l-88 -3q-75 -3 -134 -11l-38 87q104 -21 168 -19l88 3l-15 194l81 -12q71 -11 77 -35q6 -25 -34 -38l-31 -10zM1631 1722h114l77 78l106 -82q21 -16 15 -34
q-4 -17 -35 -17l-283 -1l-9 -103q-4 -44 -12 -52q-16 -17 -55 -10q-27 4 -25 21l4 32l10 112h-40q-49 0 -126 -11l-38 87q76 -17 164 -19l45 -1l9 106q4 43 3 95l124 -33q49 -14 49 -36q0 -26 -44 -33l-46 -8zM1725 1610q95 -33 125 -49q71 -39 73 -82q1 -21 -13 -36
t-32 -13q-20 2 -53 56q-27 44 -113 92zM469 1268q257 -190 257 -313q0 -70 -53 -70q-28 0 -41 21q-6 10 -18 63q-24 106 -123 219q-12 14 -22 26v-906l3 -44l1 -48l5 -51l2 -38q1 -29 1 -31q0 -53 -65 -53q-43 0 -43 33v1043q-106 -274 -288 -550l-31 21q204 362 287 824
h-72q-69 0 -149 -10l-39 85q119 -17 188 -17h104v305q0 120 -8 160l111 -24q82 -18 85 -44q4 -30 -49 -43l-43 -11v-343h84l86 85l112 -91q18 -15 15 -33q-4 -19 -27 -19h-270v-146z" />
  </g>

</svg>
