<?xml version="1.0" standalone="no"?>
<!DOCTYPE svg PUBLIC "-//W3C//DTD SVG 1.1//EN" "http://www.w3.org/Graphics/SVG/1.1/DTD/svg11.dtd" >
<svg xmlns="http://www.w3.org/2000/svg" xmlns:xlink="http://www.w3.org/1999/xlink" version="1.1" viewBox="0 -205 1024 1024">
  <g transform="matrix(1 0 0 -1 0 819)">
   <path fill="currentColor"
d="M1013 440v-16q-30 1 -45 -2q-15 -2 -31 -20q-54 33 -89 60q-12 9 -24 20v-147l3 -47q-1 -18 -13 -24q-14 -7 -32 -7v25h-275v-183q37 12 140 46q42 13 65 21l6 -16q-66 -34 -135 -62q-57 -24 -72 -35q-17 -10 -32 -40l-52 60q24 9 38 25v381q-68 -64 -173 -114l-6 14
q96 61 159 124q51 51 86 112h-122q-27 0 -46 -13l-34 33h213q1 1 2 4l3 6q18 36 29 79h-93q-27 0 -45 -13l-34 29h177q9 40 15 88h-159q-27 0 -45 -13l-35 33h335l25 40q39 67 39 79q-1 12 -9 27l7 8l68 -40q16 -12 7 -15q-23 0 -32 -4q-59 -76 -78 -95h126l30 36l65 -46
q8 -6 6 -9q-2 -2 -12 -1h-296q-4 -48 -13 -88h172l28 40l66 -50q8 -4 7 -6q-2 -1 -13 0h-264q-11 -41 -33 -89h295l31 41l66 -51q8 -6 6 -9q-2 -2 -12 -1h-216q25 -38 49 -62q24 -27 45 -42q20 -15 42 -28t46 -24q22 -12 73 -19zM46 243l-13 10q135 232 162 481h-100
q-27 0 -45 -13l-34 33h190v189q0 21 -26 49l6 9l85 -36q12 -5 5 -11q-20 -9 -28 -21v-179h31l29 34l54 -40q11 -8 8 -12q-3 -3 -19 -2h-103v-126q45 -23 65 -41q24 -21 40 -49q14 -29 8 -53q-7 -24 -25 -24t-21 33q-2 33 -23 65q-17 26 -44 50v-437l4 -96q-3 -21 -16 -31
q-12 -9 -37 -15q4 39 7 189v366q-39 -163 -160 -322zM577 615q-36 -60 -93 -117l5 -4h323q-15 17 -30 36q-30 37 -50 85h-155zM782 478h-275v-85h275v85zM507 378v-80h275v80h-275zM610 235l9 12q81 -20 151 -50q50 32 75 53q29 23 33 36q5 14 0 23l10 3l53 -46q9 -7 9 -12
q0 -4 -9 -6q-26 5 -65 -18q-39 -24 -81 -44q2 -1 5 -3q5 -3 8 -4q88 -44 117 -80q30 -37 13 -58q-18 -20 -43 15q-26 35 -95 86q-70 47 -190 93zM457 987l8 10q32 -15 57 -27q24 -13 42 -36q16 -23 16 -48q-2 -24 -20 -26q-19 -3 -21 18q-2 20 -20 50q-18 29 -62 59z
M599 597l6 9q51 -14 69 -38q18 -25 14 -42q-5 -18 -20 -18q-16 -1 -18 17t-11 32q-9 13 -40 40z" />
  </g>

</svg>
