<?xml version="1.0" standalone="no"?>
<!DOCTYPE svg PUBLIC "-//W3C//DTD SVG 1.1//EN" "http://www.w3.org/Graphics/SVG/1.1/DTD/svg11.dtd" >
<svg xmlns="http://www.w3.org/2000/svg" xmlns:xlink="http://www.w3.org/1999/xlink" version="1.1" viewBox="0 -204 1024 1024">
  <g transform="matrix(1 0 0 -1 0 820)">
   <path fill="currentColor"
d="M44 734q44 -12 117 -12h23v154q0 54 -6 80q59 -7 97 -23q13 -4 13 -14t-13 -13q-19 -10 -43 -12v-172h24l44 49q36 -27 68 -52q8 -5 8 -11q0 -14 -15 -14h-129v-61q37 -30 60 -60q26 -30 38 -60q9 -21 9 -41q0 -32 -23 -32q-7 0 -14 6q-6 6 -12 28q-17 53 -36 85
q-10 17 -22 34v-475q0 -23 1 -31v-29q0 -34 -30 -34q-26 0 -26 18q0 20 3 54q4 34 4 60v374q-12 -39 -27 -72q-19 -48 -44 -97q-24 -45 -60 -97l-13 18q29 57 50 110q20 49 36 110q16 49 27 106q10 46 15 86h-7q-71 -2 -97 -7zM643 964q48 -7 85 -20q10 -5 10 -12
q0 -6 -13 -9q-15 -5 -28 -7q-4 -29 -11 -49q15 4 27 8q29 10 53 21t43 22t30 22q75 -45 75 -57q0 -10 -18 -10q-11 0 -30 4q-31 -8 -70 -15l-71 -12q-25 -5 -50 -7q-6 -11 -13 -19q51 -9 100 -21q62 -16 94 -27q31 -12 41 -20q13 -8 21 -16q4 -7 4 -14q0 -26 -22 -26
q-7 0 -17 5q-11 4 -26 13q-26 14 -47 24q-28 12 -68 25q-37 15 -101 34q-23 -22 -53 -39q-38 -23 -83 -37q-48 -17 -101 -25l-8 21q66 16 102 30q34 13 65 33q26 17 46 40q16 18 26 45q11 28 11 48q0 30 -3 47zM471 703q45 -7 79 -19q9 -4 9 -11q0 -5 -12 -9q-14 -4 -26 -6
q-2 -40 -7 -65q4 2 7 4q15 9 27 20q12 10 22 20q9 11 15 21q61 -37 61 -47q0 -8 -15 -8q-9 0 -25 4q-16 -9 -37 -17q-18 -7 -37 -13q-12 -4 -24 -7q-3 -15 -7 -25q40 -14 65 -28q28 -14 42 -28q9 -10 9 -20q0 -29 -21 -29q-8 0 -15 3t-14 14q-18 27 -39 43q-15 12 -36 24
l-3 -7q-13 -31 -34 -54q-23 -30 -50 -47q-29 -21 -61 -32l-8 20q37 21 56 40q19 16 36 42q15 22 26 51q9 24 14 60q6 36 6 62q0 28 -3 44zM771 716q48 -7 85 -20q10 -5 10 -12q0 -6 -13 -9q-15 -5 -28 -7q-2 -36 -7 -59q3 1 5 2q18 8 33 18t26 20q12 9 19 19q68 -41 68 -52
q0 -9 -17 -9q-10 0 -27 4q-20 -7 -45 -13l-45 -10l-24 -4q-4 -14 -8 -24q49 -20 79 -41q33 -19 48 -39q11 -14 11 -27q0 -29 -21 -29q-9 0 -18 4q-7 4 -16 19q-21 36 -45 57q-19 18 -48 36q-13 -27 -34 -48q-23 -28 -50 -43q-29 -19 -61 -29l-8 21q36 19 54 35q19 15 35 39
q15 19 25 45q9 22 14 54q6 32 6 55q0 30 -3 47zM312 334q44 -12 117 -12h183v10q0 53 -6 80q51 -8 84 -23q12 -6 12 -15q0 -10 -10 -13q-14 -11 -32 -12v-27h192l47 53l72 -55q9 -6 9 -12q0 -14 -16 -14h-284q26 -29 54 -51q36 -29 82 -56q46 -26 92 -44q44 -17 84 -24
l-3 -19q-52 0 -70 -32q-44 17 -78 39q-40 25 -68 52q-33 26 -63 57q-25 24 -50 58v-157q0 -27 2 -36v-35q0 -22 -30 -22q-24 0 -24 27q0 12 3 32q1 19 1 34v152q-23 -31 -47 -54q-36 -40 -84 -73q-42 -28 -79 -45q-45 -25 -98 -41l-8 16q56 24 92 49q38 22 68 52
q41 32 67 66q20 25 39 55h-133q-71 -2 -97 -7zM457 936q44 -20 69 -41q22 -16 33 -32q8 -12 8 -23q0 -32 -23 -32q-6 0 -12 4q-5 3 -11 16q-14 31 -30 50q-17 20 -47 42zM337 656q33 -17 51 -36q17 -14 25 -28q6 -10 6 -20q0 -32 -23 -32q-4 0 -9 3q-3 3 -7 15
q-11 27 -22 44q-13 18 -34 38zM649 672q33 -18 51 -37q17 -15 25 -30q6 -11 6 -21q0 -32 -23 -32q-4 0 -9 3q-3 3 -7 16q-11 28 -22 46q-13 19 -34 39z" />
  </g>

</svg>
