<?xml version="1.0" standalone="no"?>
<!DOCTYPE svg PUBLIC "-//W3C//DTD SVG 1.1//EN" "http://www.w3.org/Graphics/SVG/1.1/DTD/svg11.dtd" >
<svg xmlns="http://www.w3.org/2000/svg" xmlns:xlink="http://www.w3.org/1999/xlink" version="1.1" viewBox="0 -205 1024 1024">
  <g transform="matrix(1 0 0 -1 0 819)">
   <path fill="currentColor"
d="M224 980l88 -34q14 -5 6 -11q-19 -4 -29 -18v-433h106v274q2 16 -30 46l9 12l87 -36q14 -5 6 -11q-21 -7 -30 -21v-197l4 -97q1 -31 -46 -46v56h-106v-235l205 54l6 -20l-252 -79q-112 -35 -131 -42q-19 -8 -45 -38l-50 56l221 57v247h-108l-31 -44l-54 42q26 24 30 44
v255q-2 16 -23 37l7 9l83 -36q8 -2 10 -5t-3 -7q-20 -4 -32 -18v-257h121v443q2 17 -27 42zM1002 83v-16q-39 4 -57 6t-38 -20q-52 58 -89 116q-36 60 -74 174q-26 78 -43 183q-22 -209 -93 -313q-87 -124 -227 -192l-2 16q141 95 204 216q65 125 80 401q-9 21 -30 35l7 15
l108 -37q5 -4 5 -7t-5 -5q-18 -6 -35 -24q19 -123 41 -194q49 -166 114 -247q66 -86 134 -107zM977 739q4 -10 -14 -9q-22 -1 -36 -6q-13 -4 -32 -34t-63 -92l-14 12q32 64 61 136h-281q-61 -156 -132 -228l-8 11q78 134 121 277q43 144 37 155q-5 12 -16 26l8 13l84 -32
q17 -10 7 -15q-22 2 -37 -15q-27 -96 -56 -172h259l38 44z" />
  </g>

</svg>
