<?xml version="1.0" standalone="no"?>
<!DOCTYPE svg PUBLIC "-//W3C//DTD SVG 1.1//EN" "http://www.w3.org/Graphics/SVG/1.1/DTD/svg11.dtd" >
<svg xmlns="http://www.w3.org/2000/svg" xmlns:xlink="http://www.w3.org/1999/xlink" version="1.1" viewBox="0 -205 1024 1024">
  <g transform="matrix(1 0 0 -1 0 819)">
   <path fill="currentColor"
d="M196 393l84 -34q14 -5 6 -11q-17 -4 -29 -18v-219h231v389h-240v-15q4 -47 -53 -54q5 39 7 87v240q-4 24 -18 42l15 12l43 -50h494l35 41l52 -49q7 -6 5 -10q-1 -5 -11 -7l-18 -9v-216l4 -28q7 -40 -50 -44v60h-219v-173h214l32 48l76 -56q8 -6 7 -9q-2 -3 -13 -3h-316
v-196h320l41 48l74 -56q11 -7 8 -10q-2 -3 -19 -2h-845q-27 1 -45 -13l-34 33h181v229q2 17 -27 42zM248 520h505v222h-505v-222zM66 903h788l32 40l68 -50q8 -5 7 -8q-2 -2 -13 -2h-803q-27 1 -45 -13z" />
  </g>

</svg>
