<?xml version="1.0" standalone="no"?>
<!DOCTYPE svg PUBLIC "-//W3C//DTD SVG 1.1//EN" "http://www.w3.org/Graphics/SVG/1.1/DTD/svg11.dtd" >
<svg xmlns="http://www.w3.org/2000/svg" xmlns:xlink="http://www.w3.org/1999/xlink" version="1.1" viewBox="0 -205 1024 1024">
  <g transform="matrix(1 0 0 -1 0 819)">
   <path fill="currentColor"
d="M697 1001l82 -34q12 -5 6 -11q-16 -4 -27 -18v-148h104l24 32l61 -40q8 -6 7 -9q-2 -3 -13 -3h-183v-201h153l24 32l60 -42q8 -5 7 -8q-2 -2 -13 -2h-477q-27 1 -45 -13l-34 33h128v240q2 17 -25 42l8 11l78 -34q14 -5 6 -11q-16 -4 -27 -18v-230h113v379q2 17 -25 42z
M1008 73v-17q-39 3 -51 -1q-16 -4 -27 -21q-108 80 -185 218q-27 50 -50 141q-35 -145 -114 -230q-96 -103 -247 -140l-4 14q215 94 284 261q38 94 44 135q8 49 4 61t-21 24l12 11l79 -23q9 -3 11 -6q2 -4 -3 -8q-13 -2 -30 -22q-2 -14 -5 -28q38 -105 71 -163
q105 -171 232 -206zM512 638l4 -20l-210 -32q-135 -24 -175 -34q-39 -11 -54 -38l-36 67l112 13v215q2 17 -26 42l9 11l78 -34q14 -5 6 -11q-16 -4 -27 -18v-200l106 12v335q2 17 -25 42l8 11l82 -34q12 -5 6 -11q-16 -4 -27 -18v-128h73l24 32l60 -40q8 -6 7 -9
q-2 -3 -13 -3h-151v-171zM268 538l68 -28q8 -4 9 -7q1 -4 -6 -8q-16 -3 -24 -16q-9 -43 -21 -84q84 -50 114 -81q45 -43 54 -92q7 -58 -27 -57q-17 2 -22 39t-41 85q-31 44 -83 87q-73 -233 -265 -342l-6 12q133 118 177 208q47 95 62 162q15 66 15 81q1 16 -13 31z" />
  </g>

</svg>
