<?xml version="1.0" standalone="no"?>
<!DOCTYPE svg PUBLIC "-//W3C//DTD SVG 1.1//EN" "http://www.w3.org/Graphics/SVG/1.1/DTD/svg11.dtd" >
<svg xmlns="http://www.w3.org/2000/svg" xmlns:xlink="http://www.w3.org/1999/xlink" version="1.1" viewBox="0 0 2048 2048">
  <g transform="matrix(1 0 0 -1 0 2048)">
   <path fill="currentColor"
d="M537 727q-16 -11 -29 -10q-42 3 -72 79q-50 127 -183 246q-64 -121 -170 -260l-29 22q112 185 176 368q78 226 116 530q3 23 6 44h-68q-98 0 -173 -8l-38 88q96 -23 211 -23h396l98 102l121 -107q20 -18 15 -34q-6 -18 -26 -18h-435q-21 -164 -66 -345h300l62 81l92 -72
q22 -17 24 -34q2 -21 -23 -32l-55 -27q-69 -437 -212 -720q-173 -342 -473 -556l-24 31q290 256 459 655zM560 782q96 266 132 562h-321q-49 -156 -98 -263q158 -94 234 -178q45 -50 53 -121zM1243 812q169 -57 286 -116q130 -66 136 -138q1 -21 -11 -38t-31 -17
q-29 0 -61 37q-109 131 -330 240zM1136 469q495 -203 484 -350q-3 -48 -42 -53q-37 -6 -92 73q-114 163 -363 294zM1661 1707l68 76l84 -54q40 -26 40 -49q0 -27 -82 -61q-88 -228 -161 -348q-57 -94 -131 -176q151 -117 293 -172q92 -36 245 -68v-35q-18 1 -26 1
q-85 0 -130 -71q-301 138 -451 278q-186 -168 -553 -306l-13 36q307 144 508 331q-148 172 -250 421q-92 -122 -203 -210l-22 26q144 181 211 332q76 174 96 293l154 -67q34 -15 31 -32q-5 -21 -42 -25l-62 -6q-22 -61 -47 -114h443zM1675 1649h-485q-28 -47 -55 -93
q103 -240 276 -404q103 116 185 297q28 63 79 200z" />
  </g>

</svg>
