<?xml version="1.0" standalone="no"?>
<!DOCTYPE svg PUBLIC "-//W3C//DTD SVG 1.1//EN" "http://www.w3.org/Graphics/SVG/1.1/DTD/svg11.dtd" >
<svg xmlns="http://www.w3.org/2000/svg" xmlns:xlink="http://www.w3.org/1999/xlink" version="1.1" viewBox="0 -205 1024 1024">
  <g transform="matrix(1 0 0 -1 0 819)">
   <path fill="currentColor"
d="M966 908v-744q2 -62 -11 -86q-13 -26 -67 -38q-2 33 -34 43q-31 9 -90 24l4 16q108 -19 132 -17t24 48v511h-143q-1 -25 -11 -34q-10 -10 -34 -15q5 47 7 97v220q-5 24 -16 34l15 12l32 -39h134l30 41l48 -43q9 -5 9 -9t-9 -8zM428 971l36 -34h131l33 37l48 -43
q7 -6 5 -10q-1 -5 -11 -7l-18 -9v-206l4 -38q6 -40 -42 -44v42h-139v-479l5 -95q2 -37 -54 -46q5 39 7 128v759q-7 20 -21 33zM577 587l43 -33h142l18 29l42 -27q9 -6 9 -11q0 -4 -9 -8l-16 -13v-285q2 -51 -11 -68t-53 -27q-4 29 -86 43l4 15q67 -15 94 -10q18 2 14 53v80
h-140q-3 -46 -15 -92q-16 -64 -96 -123l-12 10q63 65 75 130t11 116v173q-8 18 -25 35zM376 642q-2 0 -4 -1q-15 11 -26 -55q-8 -36 -26 -112q-22 -85 -52 -151t-91 -141q-61 -74 -143 -124l-6 14q66 60 111 114q45 55 82 131q65 135 93 328h-142q-9 -29 -19 -55
q-12 -30 -25 -57q46 -22 68 -44q26 -26 31 -56t-14 -40t-28 22t-25 57q-13 20 -41 42q-38 -70 -89 -129l-10 10q66 113 104 225q36 107 56 249h-66q-27 1 -45 -13l-34 33h290l29 34l52 -40q11 -8 8 -11q-2 -4 -19 -3h-173q-18 -115 -44 -204h129l35 34l37 -45q5 -4 5 -7
q-1 -3 -8 -5zM924 801h-143v-118h143v118zM614 793h-139v-116h139v116zM475 809h139v110h-139v-110zM781 817h143v105h-143v-105zM629 433v-94h139v94h-139zM629 447h139v91h-139v-91z" />
  </g>

</svg>
