<?xml version="1.0" standalone="no"?>
<!DOCTYPE svg PUBLIC "-//W3C//DTD SVG 1.1//EN" "http://www.w3.org/Graphics/SVG/1.1/DTD/svg11.dtd" >
<svg xmlns="http://www.w3.org/2000/svg" xmlns:xlink="http://www.w3.org/1999/xlink" version="1.1" viewBox="0 0 2048 2048">
  <g transform="matrix(1 0 0 -1 0 2048)">
   <path fill="currentColor"
d="M482 1334l128 10l89 110l122 -89q29 -21 26 -39q-4 -19 -24 -21l-341 -36v-382l177 14l89 110l122 -89q29 -21 25 -39q-3 -19 -24 -21l-389 -39v-482q0 -59 19 -74q27 -22 183 -22h1001q118 0 149 22q28 20 38 91l25 177h40l-4 -181q-1 -53 46 -91q21 -17 23 -26
q10 -44 -72 -67q-57 -17 -238 -17h-989q-165 0 -204 4.5t-70 26.5q-41 29 -41 113v516l-143 -14q-65 -7 -122 -34l-73 97q147 3 152 3l186 15v379l-124 -13q-66 -7 -121 -34l-74 97q38 1 65 1q71 1 87 2l167 14v369q-156 -38 -313 -57l-6 43q407 80 615 267l115 -96
q15 -13 15 -30q0 -29 -41 -22l-71 13q-147 -67 -220 -91v-388zM1618 734q-215 -60 -438 -96l-19 -3q-16 -75 -34 -72q-21 3 -39 40l-57 120q52 1 108 6q82 6 136 9q28 1 47 3v262h-306v-594q0 -31 -13.5 -42t-50.5 -11q-50 0 -47 49q1 18 3 45q11 114 11 210v343
q-6 -1 -35 -4q-12 -1 -15 -1l-28 80q39 -10 78 -12q-4 39 -15 84l118 -88h300v195h-246v-23q0 -27 -45 -30q-66 -5 -60 50l4 42q6 96 6 105l1 486l118 -66h551l68 76l85 -54q39 -25 39 -48q0 -27 -78 -62v-327q0 -47 6 -104q3 -25 3 -43q0 -41 -56 -49q-47 -7 -48 24v23
h-252v-195h307l68 76l84 -54q40 -26 40 -49q0 -28 -77 -61v-459q0 -142 -154 -170q-11 69 -48 92q-32 21 -159 44l9 46q134 -22 189 -27q68 -6 68 57v446h-327v-252q101 9 183 20q-35 60 -77 114l25 22q191 -160 182 -256q-5 -49 -45 -49q-35 0 -45 49t-23 83zM1670 1765
h-252v-203h252v203zM1322 1765h-246v-203h246v203zM1670 1507h-252v-192h252v192zM1322 1507h-246v-192h246v192z" />
  </g>

</svg>
