<?xml version="1.0" standalone="no"?>
<!DOCTYPE svg PUBLIC "-//W3C//DTD SVG 1.1//EN" "http://www.w3.org/Graphics/SVG/1.1/DTD/svg11.dtd" >
<svg xmlns="http://www.w3.org/2000/svg" xmlns:xlink="http://www.w3.org/1999/xlink" version="1.1" viewBox="0 -205 1024 1024">
  <g transform="matrix(1 0 0 -1 0 819)">
   <path fill="currentColor"
d="M836 970l71 -47q9 -9 9 -14t-9 -6q-26 8 -61 -8q-30 -14 -111 -38v-212l92 12l23 47l77 -40q13 -7 10 -10q-2 -3 -20 -4l-182 -23v-211l124 17l23 49l75 -42q13 -7 10 -10q-2 -3 -20 -4l-212 -28v-213q0 -48 17 -63q17 -16 34 -17q72 -3 127 7q21 7 26 37q8 38 12 123h15
l4 -83q2 -53 31 -58q-12 -33 -34 -45q-14 -8 -40 -12q-24 -5 -73 -6q-54 -1 -88 2q-71 11 -71 121v201l-99 -13q-39 -9 -43 -28l-43 36l185 24v211l-71 -9q-33 -7 -45 -30l-43 36l159 21v205q-93 -25 -168 -32l-4 16q56 15 135 39q80 24 111 38q66 26 56 60zM139 686l30 -32
h231l39 37l42 -45q7 -6 5 -10q-1 -5 -11 -7l-18 -9v-66l3 -37q-1 -31 -43 -31v38h-235v-5q4 -37 -47 -44q5 37 7 80v82q-3 22 -17 38zM268 409v-240q2 -62 -8 -90q-10 -29 -66 -36q2 40 -90 56l3 14q101 -18 111 -11t10 53v107q-75 -51 -98 -68q-25 -21 -30 -44l-44 41
l172 93v137h-110q-27 2 -43 -12l-28 32h169l30 37l40 -35q9 -6 9 -11q0 -4 -9 -8zM500 409v-240q2 -62 -8 -90q-10 -29 -66 -36q2 40 -90 56l3 14q101 -18 111 -11t10 53v105q-31 -23 -68 -52q-6 -5 -8 -7q-25 -20 -30 -44l-44 42l150 85v137h-92q-27 2 -43 -12l-28 32h151
l31 37l39 -35q9 -6 9 -11q0 -4 -9 -8zM340 949q10 -12 -4 -16q-17 0 -26 -10q-2 -3 -7 -11q-5 -7 -8 -11q71 -22 124 -49q122 -61 125 -106q2 -24 -15 -28t-37 23q-19 28 -78 70q-54 39 -130 74q-43 -58 -100 -114q-76 -73 -156 -106l-4 14q69 48 131 114q62 68 89 108
q29 42 27 50q0 9 -9 20l7 8zM182 544h235v90h-235v-90zM161 747h200l30 38l60 -48q8 -5 7 -8q-2 -2 -13 -2h-209q-27 1 -45 -13zM308 386l8 10q50 -20 73 -60q21 -47 -12 -54q-19 -2 -22 19q-2 22 -13 43t-34 42zM68 386l8 10q50 -20 73 -60q21 -47 -12 -54q-19 -2 -22 19
q-2 22 -13 43t-34 42z" />
  </g>

</svg>
