<?xml version="1.0" standalone="no"?>
<!DOCTYPE svg PUBLIC "-//W3C//DTD SVG 1.1//EN" "http://www.w3.org/Graphics/SVG/1.1/DTD/svg11.dtd" >
<svg xmlns="http://www.w3.org/2000/svg" xmlns:xlink="http://www.w3.org/1999/xlink" version="1.1" viewBox="0 -205 1024 1024">
  <g transform="matrix(1 0 0 -1 0 819)">
   <path fill="currentColor"
d="M769 1007l68 -54q5 -8 5 -10q0 -5 -9 -5q-4 0 -13 1q-15 1 -23 1q-19 0 -46 -3q-102 -18 -223 -31q25 -85 41 -99h275l32 40l69 -50q6 -5 6 -8t-6 -3q-1 0 -3 1h-3h-357q15 -22 32 -41q146 -134 286 -136h2q21 0 38 95q7 39 12 57l14 -6q-8 -55 -8 -110q0 -43 17 -59
q5 -5 6 -10q-4 -15 -53 -16q-41 0 -102 18q-196 61 -293 208h-340v-169l129 43q77 25 148 50l14 -16l-179 -74q-39 -16 -83 -33q-12 -4 -17 -6q-35 -12 -42 -38l-47 52q20 8 33 21v269q-3 21 -25 46l10 8l51 -34q132 5 275 24q206 25 251 38q52 11 47 37zM618 206l8 13
q198 -68 205 -159v-7q-5 -21 -23 -21q-16 2 -29 30q-11 24 -21 37q-126 -9 -262 -20q-30 -2 -41 -3q-21 -1 -58 -4q-130 -4 -190 -31l-10 72q18 -3 33 -3q74 11 283 132l21 12q-89 -8 -137 -9q-9 -1 -28 -3q-70 -3 -98 -26l-19 61q2 -1 6 -1h7q26 -10 126 71q2 2 8 6
q60 48 60 62q0 6 -7 16l8 8l73 -31q1 -1 1 -4q0 -6 -14 -9h-4q-16 0 -30 -12q-106 -89 -170 -114l251 6q73 46 71 63q0 8 -6 15l9 8l73 -44l1 -2v-2q0 -6 -7 -7h-4q-11 0 -29 -6q-188 -130 -380 -199l444 19l-6 6q-33 34 -115 80zM34 243v14q227 97 353 238h-236
q-30 0 -46 -13l-34 33h332q36 48 39 65q-1 12 -8 20l14 8l61 -32q11 -6 11 -10q0 -3 -6 -6q-28 0 -51 -33q-5 -8 -8 -12h409l33 40l68 -50q6 -5 6 -7q0 -3 -12 -3h-327q154 -179 361 -183v-16q-3 0 -8 -1q-62 -1 -69 -34q-212 74 -312 234h-166q-150 -181 -404 -252z
M521 807q-19 35 -34 94q-132 -16 -294 -17v-77h328zM484 669l4 11q71 -21 96 -37q26 -17 33 -35q12 -40 -26 -41q-16 4 -19 22t-25 40q-21 22 -63 40z" />
  </g>

</svg>
