<?xml version="1.0" standalone="no"?>
<!DOCTYPE svg PUBLIC "-//W3C//DTD SVG 1.1//EN" "http://www.w3.org/Graphics/SVG/1.1/DTD/svg11.dtd" >
<svg xmlns="http://www.w3.org/2000/svg" xmlns:xlink="http://www.w3.org/1999/xlink" version="1.1" viewBox="0 -205 1024 1024">
  <g transform="matrix(1 0 0 -1 0 819)">
   <path fill="currentColor"
d="M488 490q-1 19 -24 38l8 11l86 -32q8 -1 10 -5t-3 -11q-18 -4 -31 -18q46 -75 98 -137q2 -2 5 -7q1 -2 2 -3q65 40 107 71q49 36 47 42q-1 7 -6 20l10 8l66 -49q5 -7 1 -10t-17 -3l-16 -2q-99 -61 -175 -96q47 -51 92 -82q96 -66 164 -76q29 -5 69 -9v-20q-73 8 -88 -28
q-174 54 -298 228q-36 51 -61 102v-312q-1 -35 -16 -54q-14 -19 -71 -31q-8 33 -34 44q-25 10 -84 30l6 18l34 -8q62 -16 91 -16t28 48v349zM984 713l1 -20q-43 2 -58 -4q-19 -6 -29 -25q-129 30 -264 137q-57 46 -118 127q-89 -97 -206 -171q-121 -76 -263 -113l-4 14
q227 102 357 219q74 67 79 80t-10 31l7 8l82 -26q17 -9 6 -15q-18 0 -34 -12q69 -67 131 -110q127 -87 220 -107q45 -10 103 -13zM431 380q-16 -2 -28 -10q-130 -233 -357 -311l-7 14q212 109 323 314h-220q-20 2 -32 -12l-32 32h279l23 35l47 -40q18 -14 4 -22zM733 620
l-106 -156l-38 19l98 152h-416q-21 -1 -33 -11l-32 31h475l32 37l57 -44q6 -6 7 -9q0 -3 -5 -4q-24 -1 -39 -15zM438 812l6 11q77 -19 110 -60q34 -54 -10 -70q-17 -1 -25 26q-7 29 -24 45q-15 17 -57 48z" />
  </g>

</svg>
