<?xml version="1.0" standalone="no"?>
<!DOCTYPE svg PUBLIC "-//W3C//DTD SVG 1.1//EN" "http://www.w3.org/Graphics/SVG/1.1/DTD/svg11.dtd" >
<svg xmlns="http://www.w3.org/2000/svg" xmlns:xlink="http://www.w3.org/1999/xlink" version="1.1" viewBox="0 0 2048 2048">
  <g transform="matrix(1 0 0 -1 0 2048)">
   <path fill="currentColor"
d="M1275 1554q87 -31 250 -110q191 -92 285 -170q78 -66 61 -126q-8 -30 -31 -38q-41 -14 -114 72q-131 159 -451 323v-201q0 -105 12 -219q4 -29 4 -54q0 -39 -49 -42q-63 -4 -63 42l1 498q-125 -166 -270 -278q-100 -78 -334 -197l-22 42q368 200 546 496l-302 1
q-63 0 -149 -11l-39 86q126 -18 188 -18l382 1v114q0 118 -8 159l120 -24q71 -15 75 -43q4 -30 -50 -44l-42 -11v-151h360l98 110l138 -112q25 -20 19 -41q-5 -15 -29 -15h-586v-39zM215 1900q334 -121 324 -252q-4 -55 -55 -50q-35 4 -70 64q-63 110 -220 203zM94 1402
q324 -123 339 -248q7 -57 -39 -65q-38 -6 -61 25q-13 15 -34 53q-54 92 -227 201zM515 902l33 -22q-124 -333 -315 -668l4 -34q3 -25 3 -37q0 -22 -18 -28q-20 -6 -50 36l-76 107q198 231 419 646zM1269 641v-264q0 -104 12 -219q3 -28 3 -54q0 -39 -49 -42q-62 -4 -62 42
v537h-350q-117 0 -192 -9l-39 89q96 -23 231 -23h350v99q0 117 -8 160l109 -24q82 -19 86 -44q3 -26 -51 -44l-40 -13v-134h430l99 101l120 -106q21 -19 16 -34q-6 -18 -26 -18h-639z" />
  </g>

</svg>
