<?xml version="1.0" standalone="no"?>
<!DOCTYPE svg PUBLIC "-//W3C//DTD SVG 1.1//EN" "http://www.w3.org/Graphics/SVG/1.1/DTD/svg11.dtd" >
<svg xmlns="http://www.w3.org/2000/svg" xmlns:xlink="http://www.w3.org/1999/xlink" version="1.1" viewBox="0 0 2048 2048">
  <g transform="matrix(1 0 0 -1 0 2048)">
   <path fill="currentColor"
d="M1064 1010q139 -100 151 -150q8 -30 -22 -48q-19 -12 -38 -5q-34 13 -144 122l-9 8l-19 18q-119 -71 -302 -141l-15 37q124 61 260 157q-58 56 -182 181l-44 44q-14 -2 -34 -6l-39 86q121 -18 188 -18h342l58 74l72 -50q37 -25 42 -43q5 -20 -25 -37q-7 -4 -13 -7
q-8 -4 -23 -12q-90 -110 -204 -210zM754 1236l8 -6l142 -105q57 -40 89 -64q116 110 165 178l-359 -1q-15 0 -45 -2zM203 1889q334 -122 324 -253q-3 -55 -54 -49q-35 3 -70 64q-64 110 -221 202zM90 1391q141 -58 191 -89q121 -73 145 -142q13 -36 -8 -65q-18 -25 -49 -19
q-29 6 -73 80q-57 95 -224 203zM466 933l37 -20q-31 -104 -134 -364q-76 -190 -148 -341q4 -22 4 -34q3 -55 -15 -65q-17 -9 -49 36l-77 107q177 240 382 681zM1113 797l109 -24q82 -18 85 -43q3 -26 -50 -44l-41 -13l-1 -308q0 -69 14 -170q3 -23 3 -42q0 -38 -49 -41
q-63 -4 -63 41v485q0 114 -7 159zM1653 1911q202 -137 189 -230q-7 -47 -50 -49q-38 -2 -49 51q-21 99 -110 204zM718 803l109 -24q82 -19 86 -44q3 -29 -50 -44l-41 -11q-5 -209 -17 -278q-28 -167 -236 -301l-25 30q99 74 145 189q37 94 37 323q0 121 -8 160zM1591 652
q120 252 196 593l147 -64q31 -13 28 -36q-2 -21 -43 -28l-53 -8q-120 -377 -232 -573q47 -110 94 -188q64 -106 88 -103q30 3 42 81q2 12 17 86q2 10 19 97q4 24 14 71l34 -6q-6 -62 -24 -214q-6 -56 -6 -93q0 -106 19 -160q10 -30 7 -40q-7 -26 -47 -24q-83 3 -194 159
q-67 92 -126 228q-121 -193 -296 -326l-24 26q167 169 280 400q-99 292 -127 551q-15 145 -20 394h-551q-120 0 -192 -8l-38 88q99 -22 230 -22h551q0 75 1 173q2 198 -8 252l109 -24q82 -18 86 -44q3 -29 -50 -43l-40 -11q0 -110 -1 -223l-1 -80h250l105 86l114 -92
q21 -16 16 -33q-6 -19 -26 -19h-459q3 -175 26 -422q18 -191 85 -401z" />
  </g>

</svg>
