<?xml version="1.0" standalone="no"?>
<!DOCTYPE svg PUBLIC "-//W3C//DTD SVG 1.1//EN" "http://www.w3.org/Graphics/SVG/1.1/DTD/svg11.dtd" >
<svg xmlns="http://www.w3.org/2000/svg" xmlns:xlink="http://www.w3.org/1999/xlink" version="1.1" viewBox="0 -205 1024 1024">
  <g transform="matrix(1 0 0 -1 0 819)">
   <path fill="currentColor"
d="M386 972l39 -48h454l35 41l50 -49q7 -6 5 -10q-1 -5 -11 -7l-18 -9v-753l4 -40q7 -41 -48 -44v70h-463v-27q3 -47 -51 -54q5 46 7 99v777q-4 24 -18 42zM433 143h463v761h-463v-761zM544 686l65 -18q7 -5 6 -8q0 -3 -8 -5q-4 -1 -14 -10q-7 -31 -15 -59h73v238
q2 17 -25 42l8 11l78 -34q14 -5 6 -11q-16 -4 -27 -18v-87h84l28 32l56 -40q8 -5 7 -8q-2 -2 -13 -2h-162v-123h85l23 29l49 -35q11 -9 0 -14q-29 -3 -34 -35q-4 -21 -33 -92q-28 -71 -96 -142q-67 -70 -216 -123l-4 14q125 69 183 126q59 57 87 124q30 67 43 130h-205
q-13 -43 -27 -78q-25 -61 -76 -125l-12 8q41 81 58 132q18 51 26 95q9 44 8 52q0 9 -12 23zM332 766l19 -8l-85 -256q-58 -160 -70 -201q-11 -41 7 -145q18 -103 -23 -108q-40 -5 -31 99q10 101 -7 117q-16 16 -96 25v19q80 -4 93 2q14 6 31 43q18 37 44 100t118 313z
M56 721l4 13q76 -19 100 -39q26 -18 36 -37q25 -51 -7 -65q-16 -4 -27 20q-10 25 -29 52q-18 27 -77 56zM138 967l4 13q76 -19 100 -39q26 -18 36 -37q24 -50 -9 -65q-17 -4 -26 20q-9 25 -28 52q-18 27 -77 56zM561 489l4 12q95 -31 105 -93q1 -26 -17 -29t-24 21
q-5 25 -20 44q-13 20 -48 45z" />
  </g>

</svg>
