<?xml version="1.0" standalone="no"?>
<!DOCTYPE svg PUBLIC "-//W3C//DTD SVG 1.1//EN" "http://www.w3.org/Graphics/SVG/1.1/DTD/svg11.dtd" >
<svg xmlns="http://www.w3.org/2000/svg" xmlns:xlink="http://www.w3.org/1999/xlink" version="1.1" viewBox="0 -205 1024 1024">
  <g transform="matrix(1 0 0 -1 0 819)">
   <path fill="currentColor"
d="M980 81v-15q-19 2 -37 -1q-18 -2 -31 -24q-52 35 -97 83q-33 37 -52 70q-46 -57 -101 -99q-59 -43 -140 -70l-4 12q63 39 107 72q48 38 91 90q13 16 25 34q-5 9 -14 30l-6 12q-47 98 -66 238q-13 -2 -21 -8l-33 30h232l28 37l56 -33q10 -11 1 -14q-21 -3 -25 -13
q-6 -10 -16 -57q-12 -48 -39 -124q-23 -60 -48 -99q4 -8 14 -21q1 -2 2 -3q33 -48 66 -74q32 -29 61 -39q27 -11 47 -14zM866 908v-164q0 -53 7 -59q6 -9 55 -7q19 6 25 20h5q15 -13 34 -24q18 -12 8 -14l-34 -12l-28 -2q-34 -1 -59 2q-23 2 -38 15q-15 12 -15 66v196h-116
q0 -91 -9 -177q-11 -90 -125 -157l-10 12q84 75 94 147q9 73 8 179q-3 21 -18 41l13 13l35 -38h122l28 33l45 -41q7 -6 5 -10q-1 -4 -11 -6zM258 495h162v70q-2 22 -26 46l8 11l82 -38q10 -5 11 -8q2 -3 -4 -6q-18 -6 -31 -16v-59h75l18 28l62 -38q8 -6 6 -9q-2 -2 -12 -1
h-149v-356q-2 -33 -17 -53q-17 -19 -51 -27q1 23 -19 33q-22 10 -63 17v17l31 -5q50 -9 62 -2q17 9 17 51v325h-83q-27 0 -45 -13zM279 937l7 13q89 -42 162 -99q1 1 1 2l1 1q59 99 59 112q0 12 -8 24l10 9l66 -34q10 -12 1 -15q-15 1 -31 -5q-33 -64 -70 -118
q72 -61 91 -100q20 -42 0 -57q-21 -15 -42 32q-21 44 -70 94q-75 -101 -163 -157l-10 14q95 92 146 169q-41 36 -150 115zM274 762l17 -6l-76 -257q-56 -161 -65 -202q-12 -41 6 -146q17 -104 -21 -109q-40 -5 -28 100q10 101 -5 118q-18 15 -85 21v19q67 0 79 6t28 43
q7 16 25 60q10 26 16 41q39 105 109 312zM847 515h-171q25 -111 60 -181q15 -34 30 -62q14 25 26 52q30 69 55 191zM314 415l59 -33q18 -11 8 -14q-7 -3 -18 -6q-4 -1 -6 -2q-74 -150 -136 -204l-8 7q66 111 84 159q17 48 18 59q0 12 -7 25zM493 388l4 14q62 -45 90 -89
q29 -45 30 -78q3 -35 -19 -41q-21 -7 -26 33q-7 41 -26 79q-21 39 -53 82zM75 954l4 13q77 -20 101 -38q23 -19 35 -39q11 -19 8 -40t-19 -25t-24 21q-9 24 -27 52q-21 27 -78 56zM21 719l4 13q76 -20 100 -38q24 -20 35 -38q9 -20 8 -41q-3 -21 -18 -25q-16 -4 -25 21
t-27 52q-20 27 -77 56z" />
  </g>

</svg>
