<?xml version="1.0" standalone="no"?>
<!DOCTYPE svg PUBLIC "-//W3C//DTD SVG 1.1//EN" "http://www.w3.org/Graphics/SVG/1.1/DTD/svg11.dtd" >
<svg xmlns="http://www.w3.org/2000/svg" xmlns:xlink="http://www.w3.org/1999/xlink" version="1.1" viewBox="0 -200 1000 1000">
  <g transform="matrix(1 0 0 -1 0 800)">
   <path fill="currentColor"
d="M868 971l56 -64h-268l-55 -13l-19 34h239zM833 875q23 -16 39.5 -27t18.5 -18l-18 -14l-77 -147q40 -38 66 -74t26 -70q0 -7 -2.5 -16.5t-7 -17.5t-10 -14t-10.5 -6q-8 0 -14 19q-7 58 -24 101.5t-40 74.5q12 38 26 90.5t27 118.5zM737 880q20 -12 36.5 -29t21.5 -28
l-20 -13l-79 -139q32 -43 55 -79.5t23 -68.5q0 -12 -3 -22q-3 -11 -5.5 -24.5t-10.5 -13.5t-15.5 23.5t-16 56.5t-18.5 68.5t-23 59.5q22 66 35 117.5t20 91.5zM638 880q18 -12 34.5 -24.5t23.5 -23.5l-16 -13l-79 -157q33 -46 56 -86t23 -70q0 -18 -10 -34t-23 -22
q-7 0 -11 19.5t-9 50t-13.5 67.5t-24.5 72q17 60 29.5 115t19.5 106zM876 429l55 -60h-145l-12 -10v-281h89l44 43l52 -61h-342l-44 -17l-15 35h168v291h-77l-45 -13l-14 34h244zM360 962l54 -37h73l36 34l50 -49l-32 -34v-777q-8 -38 -30 -56t-46 -27q-1 15 -3.5 29
t-9.5 26.5t-19.5 23.5t-33.5 20l2 5q34 -10 58 -10q34 0 34 33v355q-2 -11 -24 -40t-58 -87l-19 39q-3 -59 -13.5 -125t-29.5 -124t-46 -101t-63 -57v2q25 26 44.5 77.5t33 116t21.5 137t11 140.5zM411 901l-7 -22v-99q33 -9 57 -32t32 -55v208h-82zM404 777l-9 -340l48 32
t50 43v146q-11 -24 -23 -24q-11 0 -15 28q-2 24 -6.5 41t-11 30t-15 23t-18.5 21zM144 313q4 5 10 16.5t14 33.5t19 56t25 85q20 69 45.5 171t61.5 249l17 -4l-129 -621q-2 -21 -5.5 -57.5t-3.5 -105.5q0 -47 3 -114q-12 -14 -22 -17.5t-18 -3.5h-9q-14 0 -19 10t-5 19
q0 12 1.5 30t3 37t3 35.5t1.5 24.5q0 15 -1.5 31.5t-8.5 33.5t-20 34t-37 34v15h3q11 -2 19.5 -3.5t14.5 -1.5q12 0 22 3t15 10zM128 537h-2q-10 0 -18.5 18.5t-20 45t-27 55.5t-40.5 50l4 9q60 -22 93.5 -46t38.5 -59q0 -4 0.5 -7.5t0.5 -7.5q0 -27 -9.5 -42t-19.5 -16z
M182 858q-17 78 -76 131v10q69 -18 98.5 -43t29.5 -72q0 -17 -9.5 -33.5t-18.5 -16.5q-17 0 -24 24z" />
  </g>

</svg>
