<?xml version="1.0" standalone="no"?>
<!DOCTYPE svg PUBLIC "-//W3C//DTD SVG 1.1//EN" "http://www.w3.org/Graphics/SVG/1.1/DTD/svg11.dtd" >
<svg xmlns="http://www.w3.org/2000/svg" xmlns:xlink="http://www.w3.org/1999/xlink" version="1.1" viewBox="0 0 2048 2048">
  <g transform="matrix(1 0 0 -1 0 2048)">
   <path fill="currentColor"
d="M1241 1686q-26 17 -33 47q-28 109 -121 204l21 22q97 -62 139 -101q72 -65 64 -127q-3 -29 -34 -45h438l98 94l123 -100q20 -16 19 -35q-1 -14 -22 -14h-1098q-99 0 -195 -9l-37 87q97 -23 232 -23h406zM1720 967h-894v-34q-8 -38 -72 -38q-25 0 -25 22v484l-8 84
l129 -67h857l61 72l72 -49q37 -26 41 -44q4 -16 -4 -23.5t-60 -34.5v-378q0 -42 -64 -47q-33 -2 -33 14v39zM1481 1023h239v339h-239v-339zM1154 1023h231v339h-231v-339zM1058 1023v339h-232v-339h232zM193 1881q338 -118 338 -253q0 -51 -47 -51q-32 0 -49 20
q-13 14 -38 56q-53 92 -226 195zM98 1384q183 -73 274 -156q53 -50 50 -103q-3 -42 -37 -50q-43 -11 -86 69q-38 71 -114 133q-19 16 -105 73zM490 894l33 -19q-45 -122 -149 -344q-82 -173 -168 -323q5 -25 5 -34q0 -56 -14 -65q-17 -10 -49 36l-73 107q119 142 208 283
q69 110 207 359zM1217 656h-417q-109 0 -192 -8l-34 87q103 -22 226 -22h417v79q-8 127 -10 142l135 -33q51 -13 51 -38q0 -24 -37 -37l-46 -17v-96h450l80 80l114 -86q21 -15 16 -33q-6 -19 -26 -19l-634 1v-289q0 -94 6 -195q2 -22 2 -69q0 -54 -53 -54q-22 0 -37 9
q-11 6 -11 42v556zM917 570l91 -54q49 -28 46 -52q-2 -23 -44 -21l-38 2q-147 -123 -215 -166q-81 -52 -233 -117l-15 30q254 141 408 378zM1472 532q42 -17 159 -65q275 -112 301 -225q9 -39 -17 -60q-39 -32 -115 55q-85 97 -178 163q-48 34 -164 99z" />
  </g>

</svg>
