<?xml version="1.0" standalone="no"?>
<!DOCTYPE svg PUBLIC "-//W3C//DTD SVG 1.1//EN" "http://www.w3.org/Graphics/SVG/1.1/DTD/svg11.dtd" >
<svg xmlns="http://www.w3.org/2000/svg" xmlns:xlink="http://www.w3.org/1999/xlink" version="1.1" viewBox="0 0 2048 2048">
  <g transform="matrix(1 0 0 -1 0 2048)">
   <path fill="currentColor"
d="M369 1592h-96q-75 0 -149 -10l-39 86q27 -4 40 -6q86 -13 148 -13h119q46 132 73 289l150 -33q41 -9 42 -34q2 -27 -42 -39l-58 -16l-9 -27q-38 -111 -51 -140h271l81 81l114 -86q21 -16 15 -33q-6 -19 -26 -19h-482q-89 -163 -204 -290q24 1 55 2q153 4 418 26
q-44 58 -122 131l23 26q247 -155 289 -264q14 -37 -1 -71q-12 -28 -42 -31q-33 -2 -58 52q-27 60 -51 102q-137 -22 -248 -36q-129 -17 -263 -37l-10 -32q-10 -35 -27 -36q-23 -2 -38 36l-48 127q107 17 226 295zM118 767l-41 86q27 -4 41 -6q87 -12 148 -12h72l50 60
l89 -60q26 -18 26 -35t-32 -33l-33 -18q-65 -196 -133 -294q-79 -114 -211 -219l-17 28q118 132 177 250q54 107 92 264h-80q-69 0 -148 -11zM1260 1696h450l99 102l120 -107q21 -18 16 -34q-6 -19 -26 -19h-684q-67 -119 -102.5 -167t-122.5 -137l-26 24q163 248 234 566
l149 -49q33 -11 35 -31q4 -25 -35 -30l-65 -8q-23 -56 -42 -110zM620 719q109 -85 189 -164q133 -132 113 -216q-7 -26 -31 -34q-38 -14 -64 49q-51 121 -131 221q-3 4 -86 93v-445q0 -142 -154 -171q-11 70 -43 93q-30 21 -147 44l7 46q131 -23 174 -27q68 -6 68 57v739
q0 87 -8 133l108 -24q83 -18 86 -43q4 -30 -49 -44l-42 -11v-253q114 79 217 219l87 -61q64 -45 49 -68q-9 -15 -53 -12q-24 1 -53 4q-143 -92 -237 -125zM1328 1307q204 -133 208 -219q1 -30 -23 -49q-21 -18 -41 -12q-27 8 -46 75q-28 95 -124 178zM1305 815
q205 -133 205 -227q0 -23 -16.5 -39t-37.5 -14q-27 3 -37 23q-7 12 -15 49q-23 93 -124 182zM1762 917h15l80 81l113 -86q22 -18 17 -34q-6 -18 -26 -18h-202q-5 -58 -17 -242q-4 -57 -21 -188h48l93 90l108 -85q25 -21 25 -36q0 -24 -25 -24h-258q-36 -142 -57 -178
q-68 -114 -238 -140q1 73 -59 99q-19 8 -171 53l9 40q204 -51 280 -51q74 0 102 68q12 29 34 109h-472q-26 -12 -51 -12q-41 0 -41 22q0 3 3 23l11 67l57 363l3 22h-17q-24 0 -80 -9l-40 74q77 -8 110 -8h36l46 398q9 80 10 144l111 -68h368l72 85l85 -57q47 -31 47 -49
q0 -31 -88 -74q-6 -143 -20 -379zM1666 917q16 309 19 417h-415l-48 -417h444zM1663 860h-448l-57 -430h463q26 156 42 430z" />
  </g>

</svg>
