<?xml version="1.0" standalone="no"?>
<!DOCTYPE svg PUBLIC "-//W3C//DTD SVG 1.1//EN" "http://www.w3.org/Graphics/SVG/1.1/DTD/svg11.dtd" >
<svg xmlns="http://www.w3.org/2000/svg" xmlns:xlink="http://www.w3.org/1999/xlink" version="1.1" viewBox="0 0 2048 2048">
  <g transform="matrix(1 0 0 -1 0 2048)">
   <path fill="currentColor"
d="M1161 865h-138l-114 -4q-32 0 -59 -5l-38 92q95 -26 200 -26h175q43 97 82 242l106 -36q46 -16 53 -19q27 -12 23 -34t-45 -25q-6 -1 -12 -1q-15 -1 -46 -4q-23 -61 -52 -124l430 1l99 101l120 -106q21 -18 16 -34q-5 -18 -26 -18h-662q-96 -168 -153 -239l40 -16h529
l58 73l72 -49q37 -26 41 -44q5 -20 -26 -37l-37 -19v-277l33 -23q37 -26 37 -41q0 -23 -33 -23h-689v-46q0 -18 -27 -25l-35 -7q-21 -4 -36 16q-8 12 -2 86q3 48 3 121l2 228q-112 -100 -245 -184l-17 34q272 237 373 472zM1145 227h557v326h-557v-326zM768 1649v-569
q0 -365 -63 -606q-58 -222 -243 -395l-30 25q152 201 196 436q43 225 43 582v520q0 10 -4 80q-1 18 -2 53l110 -72h528q-17 12 -25 34q-20 58 -52 101q-11 15 -88 85l23 31q203 -91 220 -179q7 -38 -26 -72h378l96 103l121 -103q28 -24 24 -38q-4 -16 -24 -16h-1182z
M223 1896q335 -121 324 -252q-5 -55 -55 -50q-35 4 -70 64q-63 110 -220 203zM102 1398q324 -123 339 -248q7 -57 -39 -65q-38 -6 -61 25q-13 15 -34 53q-54 92 -227 201zM523 906l33 -22q-123 -324 -323 -669q4 -22 4 -34q3 -54 -15 -64q-17 -10 -49 36l-77 107
q118 135 216 283q79 120 211 363zM1669 1304l-34 -158q-6 -28 -31 -32q-22 -3 -45 6q-20 7 -15 31l30 153q-62 -3 -130 -11l-39 86q88 -13 180 -18l19 95q16 87 16 121l102 -35q65 -22 64 -44q-1 -24 -56 -32l-28 -4l-21 -101h69l80 81l114 -86q21 -16 16 -34
q-6 -18 -26 -18h-265zM1134 1304l14 -142q4 -43 -50 -47q-37 -3 -40 28l-16 161h-38q-71 0 -141 -11l-39 86q132 -18 165 -18h46l-6 55q-4 37 -12 122q-2 20 -6 37l106 -20q67 -12 72 -35q6 -22 -41 -42l-31 -13l11 -104h26l80 81l114 -86q21 -16 16 -34q-6 -18 -26 -18
h-204z" />
  </g>

</svg>
