<?xml version="1.0" standalone="no"?>
<!DOCTYPE svg PUBLIC "-//W3C//DTD SVG 1.1//EN" "http://www.w3.org/Graphics/SVG/1.1/DTD/svg11.dtd" >
<svg xmlns="http://www.w3.org/2000/svg" xmlns:xlink="http://www.w3.org/1999/xlink" version="1.1" viewBox="0 0 2048 2048">
  <g transform="matrix(1 0 0 -1 0 2048)">
   <path fill="currentColor"
d="M794 1172q-115 -396 -306 -656l-33 28q127 224 206 498q43 150 59 240q13 68 20 105h-45q-70 0 -157 -10l-31 90q35 -6 112 -14l70 -8h105v331q0 118 -8 160l109 -24q83 -19 86 -44q3 -30 -50 -44l-43 -11v-368h59l81 81l114 -86q20 -16 15 -34q-5 -19 -26 -19h-243v-173
q213 -127 236 -221q6 -24 -4.5 -47t-29.5 -29q-27 -9 -51 20q-6 6 -32 63q-36 80 -119 156v-764q0 -41 6 -155q7 -118 7 -125q0 -50 -58 -54q-49 -3 -49 50v1064zM212 1900q315 -122 306 -252q-4 -55 -52 -50q-32 4 -71 71q-64 108 -203 196zM98 1402q305 -124 320 -248
q6 -57 -37 -65q-36 -6 -58 25q-12 16 -32 53q-50 90 -214 202zM496 910l31 -22q-118 -332 -298 -669q2 -22 4 -33q7 -58 -14 -65q-19 -7 -47 36l-72 107q183 226 396 646zM1554 1671h153l80 80l114 -86q21 -15 16 -33q-6 -19 -26 -19h-350q-4 -32 -17 -62q45 -22 167 -78
q105 -49 180 -120q58 -56 42 -102q-10 -28 -38 -31q-35 -3 -99 72q-43 52 -154 139q-57 45 -122 79q-61 -106 -150 -183q-64 -55 -207 -127l-18 34q133 94 194 166q75 90 121 213h-80q-108 0 -192 -8l-38 88q95 -22 230 -22h94q14 90 23 258l100 -24q83 -20 86 -44
q3 -26 -50 -44l-41 -13q-5 -67 -18 -133zM1439 846l61 72l72 -49q37 -25 42 -44q5 -20 -25 -37q-6 -4 -12 -7q-9 -4 -26 -14v-212l38 -24q25 -17 22 -36q-3 -18 -28 -18h-307v-24q0 -27 -44 -30q-64 -5 -59 51q1 13 4 41q4 31 4 56l-1 37v301l120 -63h139zM1276 531h179v260
h-179v-260zM1149 1036l-38 90q90 -22 230 -22h425l80 81l114 -86q22 -16 16 -34q-6 -19 -26 -19h-157v-804q0 -142 -158 -171q-2 66 -43 93q-32 21 -160 44l8 46q140 -23 190 -27q68 -5 68 57v762h-357q-124 0 -192 -10z" />
  </g>

</svg>
