<?xml version="1.0" standalone="no"?>
<!DOCTYPE svg PUBLIC "-//W3C//DTD SVG 1.1//EN" "http://www.w3.org/Graphics/SVG/1.1/DTD/svg11.dtd" >
<svg xmlns="http://www.w3.org/2000/svg" xmlns:xlink="http://www.w3.org/1999/xlink" version="1.1" viewBox="0 0 2048 2048">
  <g transform="matrix(1 0 0 -1 0 2048)">
   <path fill="currentColor"
d="M767 1919l116 -25q71 -15 74 -42q4 -30 -49 -44l-42 -11v-367h80l80 80l114 -86q22 -16 16 -33q-6 -18 -26 -18h-264v-134q235 -168 240 -284q3 -54 -38 -61q-30 -5 -51 27q-7 10 -25 60q-41 112 -126 202v-801l4 -85l4 -102l4 -65q0 -52 -58 -52q-46 0 -46 50v1050
q-118 -356 -317 -584l-30 26q209 308 302 753h-36q-77 0 -148 -8l-38 89q95 -24 192 -24h75v329q0 120 -7 160zM195 1908q291 -123 281 -253q-3 -54 -47 -49q-31 3 -61 64q-53 108 -192 203zM90 1410q282 -126 294 -248q6 -57 -33 -65q-41 -8 -84 77q-45 92 -197 202z
M438 906l30 -22q-112 -357 -252 -661q4 -26 4 -34q0 -57 -14 -64q-13 -8 -45 35l-73 92q166 229 350 654zM1388 1043l76 -26q31 -10 31 -27q0 -20 -26 -26l-58 -13q-47 -65 -79 -102h459l61 72l72 -53q51 -37 45 -64q-3 -17 -70 -47q-9 -63 -29 -225q-33 -280 -126 -376
q-59 -61 -168 -71q-5 56 -71 88l-130 52l11 42q173 -57 224 -54q84 5 121 126q46 155 69 453h-72q-91 -246 -241 -398q-151 -152 -361 -259l-16 28q23 18 34 26q216 160 326 316q81 114 138 287h-96q-109 -193 -179 -261q-90 -87 -245 -157l-18 38q246 155 323 380h-104
q-107 -107 -230 -177l-21 31q200 162 294 397h-51q-69 0 -149 -11l-39 86q123 -18 188 -18h495l80 81l114 -86q21 -16 16 -34q-6 -18 -26 -18h-572zM1748 1268h-435v-24q0 -38 -50 -38q-49 0 -51 37q-1 9 1 23q3 20 4 57q2 60 3 80q3 43 3 52l1 293l-4 75q-3 67 -8 103
l111 -91h405l65 76l82 -54q40 -26 40 -48q0 -28 -76 -61l1 -278l4 -64l3 -69l5 -49q6 -68 -63 -68q-38 0 -40 27zM1748 1578v200h-435v-200h435zM1748 1522h-435v-198h435v198z" />
  </g>

</svg>
