<?xml version="1.0" standalone="no"?>
<!DOCTYPE svg PUBLIC "-//W3C//DTD SVG 1.1//EN" "http://www.w3.org/Graphics/SVG/1.1/DTD/svg11.dtd" >
<svg xmlns="http://www.w3.org/2000/svg" xmlns:xlink="http://www.w3.org/1999/xlink" version="1.1" viewBox="0 0 2048 2048">
  <g transform="matrix(1 0 0 -1 0 2048)">
   <path fill="currentColor"
d="M1144 1341q-90 -87 -231 -178l-22 33q251 197 372 449h-148q-68 0 -149 -10l-39 86q121 -18 188 -18h171q40 113 67 256l109 -27q71 -18 71 -41q0 -24 -56 -35l-37 -8q-24 -72 -50 -145h322l90 97l118 -102q20 -18 16 -34q-6 -19 -26 -19h-400q119 -67 221 -148
q168 -136 175 -232q2 -24 -11.5 -42t-33.5 -18q-31 0 -74 71q-5 9 -27 44q-19 -19 -44 -20l-41 -2q-71 -107 -152 -222l-34 18q74 190 109 327l131 -58q-91 128 -273 271l-14 11h-76q-73 -148 -194 -275q27 -22 40 -32q83 -66 107 -97q32 -41 37 -85q4 -28 -8 -49
q-16 -30 -52 -27q-33 4 -42 43q-13 61 -30 102q-18 41 -80 116zM1280 1058l34 1h380l80 80l119 -90q9 -7 11 -18q4 -30 -26 -30h-409v-185h149l81 84l115 -91q11 -9 14 -18q5 -16 -8 -29q-6 -5 -15 -5h-336v-185h260l88 89l122 -90q13 -10 16 -20q5 -16 -9 -29q-5 -5 -15 -5
h-462v-65q0 -69 8 -160q4 -52 -57 -56q-47 -3 -47 26v255h-230q-140 0 -190 -11l-41 90q93 -24 231 -24h230v185h-88q-117 0 -194 -8l-38 91q92 -24 232 -24h88v185h-183q-90 0 -165 -8l-42 88q86 -20 207 -22zM495 1401q80 -13 163 -13h43l74 63l71 -63q57 -51 20 -75
q-17 -11 -85 -30l-92 -282h100l57 72l82 -58q33 -23 27 -41q-8 -24 -70 -45q-29 -246 -139 -457q87 -112 162 -164q123 -85 353 -100q101 -7 329 -7q134 0 407 24v-32q-41 -19 -58 -32q-23 -18 -30 -56q-409 1 -590 9q-207 9 -314 53q-100 40 -197 151q-36 41 -89 112
q-28 -26 -95 -103q-69 -72 -87 -98q8 -70 -19 -76q-13 -3 -38 30l-57 76q133 97 266 218q76 190 108 470h-124q-24 -11 -60 -11q-17 0 -26 15q-7 13 -3 24l12 31l105 324h-46q-45 0 -130 -9zM205 1893q149 -60 233 -128q58 -46 62 -104q3 -56 -38 -66q-40 -10 -74 60
q-46 97 -203 205zM107 1395q299 -126 312 -249q6 -55 -36 -64q-43 -10 -84 71q-52 102 -212 210zM473 871l37 -17q-40 -130 -129 -330q-100 -222 -147 -312q4 -22 4 -34q3 -54 -14 -65q-17 -10 -48 36l-73 107q112 147 188 273q105 175 129 225q10 22 35 78q6 14 18 39z
M570 1886q108 -58 168 -113q100 -92 100 -156q0 -56 -43 -61q-40 -5 -71 76q-38 102 -178 222z" />
  </g>

</svg>
