<?xml version="1.0" standalone="no"?>
<!DOCTYPE svg PUBLIC "-//W3C//DTD SVG 1.1//EN" "http://www.w3.org/Graphics/SVG/1.1/DTD/svg11.dtd" >
<svg xmlns="http://www.w3.org/2000/svg" xmlns:xlink="http://www.w3.org/1999/xlink" version="1.1" viewBox="0 -205 1024 1024">
  <g transform="matrix(1 0 0 -1 0 819)">
   <path fill="currentColor"
d="M396 979l38 -42h381l35 37l48 -45q7 -4 5 -7q-1 -4 -11 -6l-18 -9v-144l4 -40q7 -41 -46 -44v42h-391q-1 -31 -13 -40q-12 -10 -36 -15q5 51 7 103v164q-4 16 -18 34zM446 565l31 -28h304l23 25l42 -23q8 -12 -2 -15l-14 -9v-72l4 -20q7 -23 -46 -28v24h-303
q-2 -15 -13 -22q-12 -8 -36 -13q2 13 4 32q3 16 3 21v96q-3 18 -12 22zM930 322v-172q2 -56 -11 -82t-67 -38q-2 33 -34 43l-9 3q-22 6 -63 17l4 16q90 -15 114 -13t24 46v194h-501v-220l4 -37q2 -37 -53 -46q5 39 7 92v218q-2 24 -14 37l15 11l32 -37h500l24 33l44 -33
q18 -12 4 -19zM484 303l29 -26h224l19 25l44 -29q7 -6 6 -11q0 -4 -8 -6l-16 -9v-79q11 -25 -36 -32v24h-229q-2 -15 -11 -24q-10 -11 -32 -15q1 14 4 35q2 19 3 26v91q-1 14 -12 22zM441 833h391v88h-391v-88zM832 819h-391v-82h391v82zM318 767l17 -8l-85 -256
q-60 -160 -72 -201q-10 -41 3 -145q14 -103 -25 -108q-38 -5 -25 99q14 101 -3 117q-16 17 -96 21v19q80 0 93 6q14 6 31 43q18 37 44 100t118 313zM485 435h303v86h-303v-86zM517 176h229v85h-229v-85zM299 616h580l30 44l70 -52q8 -5 7 -8q-2 -2 -13 -2h-595
q-27 1 -45 -13zM30 718l4 13q77 -19 99 -39q24 -18 35 -37q25 -50 -6 -65q-16 -4 -26 20q-10 25 -29 52q-18 27 -77 56zM112 964l4 13q77 -19 99 -39q24 -18 35 -37q24 -49 -8 -65q-16 -4 -25 20q-9 25 -28 52q-18 27 -77 56zM550 699l4 12q75 -12 95 -44q19 -38 -12 -42
q-17 0 -22 16q-4 17 -17 27q-13 11 -48 31z" />
  </g>

</svg>
