<?xml version="1.0" standalone="no"?>
<!DOCTYPE svg PUBLIC "-//W3C//DTD SVG 1.1//EN" "http://www.w3.org/Graphics/SVG/1.1/DTD/svg11.dtd" >
<svg xmlns="http://www.w3.org/2000/svg" xmlns:xlink="http://www.w3.org/1999/xlink" version="1.1" viewBox="0 -205 1024 1024">
  <g transform="matrix(1 0 0 -1 0 819)">
   <path fill="currentColor"
d="M520 617l59 -16q8 -10 0 -13q-21 -5 -20 -8q-2 -3 -7 -8q-3 -4 -13 -15h343l32 34l56 -40q8 -5 7 -8q-2 -2 -13 -2h-191q35 -36 72 -62q71 -48 130 -53q19 -3 28 -6v-16h-9q-45 3 -60 -20q-91 44 -149 104q-20 21 -40 53h-221q-35 -37 -70 -69h263l22 27l49 -36
q5 -5 3 -6q-1 -2 -11 -1h-128v-64h101l24 33l53 -40q4 -2 2 -4t-10 -3h-170v-58h119l22 29l53 -36q4 -4 2 -5q-1 -2 -10 -2h-186v-59h203l24 27l36 -26q9 -6 9 -11q0 -4 -9 -8l-16 -13v-30q1 -137 -110 -166q-4 17 -34 28q-8 3 -12 5q-1 0 -3 1q-16 7 -67 24l4 16
q41 -11 81 -20q41 -9 58 -2t32 37t15 102v20h-408q-1 -11 -8 -16q-8 -7 -34 -12q5 27 7 68v172q-83 -66 -166 -94l-6 12q66 34 131 86q5 4 14 11q6 5 24 21q-1 4 -3 9l-1 1l9 8l7 -8q30 27 50 52h-128q-27 1 -45 -13l-34 29h221q25 30 28 37q5 9 -12 13zM401 836l29 -38h368
l33 33l46 -39q7 -6 5 -10q-1 -5 -11 -7l-18 -9v-106l4 -28q8 -39 -42 -42v30h-379q-1 -19 -12 -28q-10 -10 -33 -15q5 39 7 89v128q-4 24 -12 30zM286 903h202v48q2 16 -26 38l9 12l77 -28q14 -5 6 -11q-21 -7 -30 -21v-38h208v44q2 16 -24 34l9 12l75 -24q14 -5 6 -11
q-21 -7 -30 -21v-34h110l32 32l56 -40q8 -5 7 -8q-2 -2 -13 -2h-192v-13l2 -17q2 -35 -45 -44q1 8 3 23t4 37v14h-208v-13l2 -17q2 -35 -45 -44q1 8 3 23t4 37v14h-123q-27 1 -45 -13zM287 730l17 -8l-71 -228q-62 -158 -73 -200q-10 -42 5 -144q15 -105 -18 -110
q-32 -5 -25 99q8 101 -9 117q-16 17 -92 21v19q75 0 89 6t30 41q17 35 43 100t104 287zM436 716h379v66h-379v-66zM815 702h-379v-66h379v66zM616 456h-160v-64h160v64zM616 306h-160v-59h160v59zM616 378h-160v-58h160v58zM27 713l4 13q70 -22 91 -40q23 -16 33 -36
q24 -49 -5 -65q-15 -4 -24 20q-9 26 -28 51q-18 26 -71 57zM91 951l4 13q72 -22 93 -40q23 -16 33 -36q23 -48 -6 -65q-14 -4 -23 20q-9 26 -28 51q-18 26 -73 57zM400 189q1 -65 -27 -105q-41 -47 -62 -16q-6 16 10 24q16 7 35 28q20 21 30 69h14zM717 200l4 11
q60 -21 77 -58q17 -40 -13 -47q-14 0 -17 20t-12 33q-9 15 -39 41zM465 195l9 6q40 -33 50 -71q7 -47 -22 -50q-14 1 -13 25t-5 45q-5 18 -19 45zM595 204l9 7q42 -28 53 -65q10 -46 -20 -48q-15 1 -14 25q1 23 -5 37q-5 16 -23 44z" />
  </g>

</svg>
