<?xml version="1.0" standalone="no"?>
<!DOCTYPE svg PUBLIC "-//W3C//DTD SVG 1.1//EN" "http://www.w3.org/Graphics/SVG/1.1/DTD/svg11.dtd" >
<svg xmlns="http://www.w3.org/2000/svg" xmlns:xlink="http://www.w3.org/1999/xlink" version="1.1" viewBox="0 0 2048 2048">
  <g transform="matrix(1 0 0 -1 0 2048)">
   <path fill="currentColor"
d="M1089 1050h-229q-6 -343 -42 -522q-47 -239 -207 -456l-31 25q116 196 155 475q23 157 31 478h-22q-64 0 -149 -11l-39 86q125 -17 188 -17h22v619q0 82 -9 169l114 -70l201 -1l68 76l84 -54q40 -26 40 -49q0 -31 -80 -60v-631h186v610q0 20 -4 72q-3 46 -6 107l115 -70
l231 -1l68 76l84 -54q40 -26 40 -49q0 -34 -79 -60v-631h16l83 90l80 -75q26 -25 26 -46q0 -26 -31 -26h-174v-800q0 -142 -159 -171q-2 67 -37 90.5t-166 46.5l8 46q135 -22 190 -27q68 -6 68 57v758h-258v-37q0 -339 -51 -542q-55 -220 -191 -387l-31 24q178 287 178 900
v42h-186v-780q0 -143 -158 -172q-2 65 -39 91q-29 21 -144 42l8 46q108 -17 170 -22q68 -7 68 56v739zM1089 1107v661l-228 1v-661zM1465 1107h258v661l-259 1zM81 1500q174 -202 174 -366q0 -63 -46 -70q-28 -4 -41 24q-5 13 -13 96q-15 158 -103 296zM613 1439
q-59 -47 -202 -148q-6 -268 -36 -538q221 -172 232 -281q3 -30 -15 -53q-12 -15 -30 -15q-34 0 -49 28q-10 20 -22 61q-31 104 -127 210q-78 -384 -281 -615l-32 26q159 246 215 536q50 256 49 645v419q-3 142 -16 215l118 -17q78 -12 84 -38q4 -23 -46 -42l-44 -17v-467
q86 96 159 225l111 -79q26 -18 13 -40q-8 -15 -32 -15h-49z" />
  </g>

</svg>
