<?xml version="1.0" standalone="no"?>
<!DOCTYPE svg PUBLIC "-//W3C//DTD SVG 1.1//EN" "http://www.w3.org/Graphics/SVG/1.1/DTD/svg11.dtd" >
<svg xmlns="http://www.w3.org/2000/svg" xmlns:xlink="http://www.w3.org/1999/xlink" version="1.1" viewBox="0 0 2048 2048">
  <g transform="matrix(1 0 0 -1 0 2048)">
   <path fill="currentColor"
d="M1501 747h-157q-117 0 -192 -8l-39 89q96 -23 231 -23h157v76q-3 135 -16 214l12 -4q43 -13 71 -22q65 104 126 209h-256q-128 0 -192 -10l-39 88q91 -21 231 -21h263l80 74l80 -67q54 -45 48 -67q-9 -29 -110 -34q-84 -94 -185 -187q65 -25 65 -51q0 -38 -82 -52v-146
h168l98 101l121 -107q20 -18 15 -33q-6 -19 -25 -19h-377l-1 -515q0 -142 -155 -170q-11 70 -47 93q-32 20 -159 43l8 46q140 -23 190 -27q68 -5 68 57v473zM1114 1617h-84q-120 0 -192 -8l-38 88q99 -22 230 -22h103q48 153 63 271l131 -38q65 -19 61 -46q-4 -26 -61 -38
l-36 -7q-30 -99 -46 -142h493l99 101l120 -107q21 -18 16 -33q-6 -19 -26 -19h-724q-7 -16 -19 -45q-76 -189 -188 -360l44 -10q82 -18 85 -44q4 -26 -50 -43l-40 -14v-716q0 -108 12 -219q3 -27 3 -53q0 -39 -49 -42q-62 -4 -62 42v953q0 16 -1 61q-107 -143 -279 -272
l-24 30q294 275 459 732zM685 1421q-90 -130 -209 -222q2 -44 2 -81q0 -146 -25 -343q109 -80 192 -170q107 -115 103 -188q-2 -57 -49 -59q-30 -2 -46 27q-5 8 -18 52q-44 143 -191 286q-93 -399 -351 -644l-29 25q168 217 241 451q76 246 75 682l-1 479q0 110 -14 202
l106 -19q80 -15 91 -34q15 -27 -37 -47l-49 -19v-536q100 136 160 290l88 -56q58 -37 58 -56q0 -29 -47 -25zM109 1513q185 -231 185 -357q0 -47 -23 -68q-20 -18 -44 -11q-26 8 -31 55q-8 84 -29 155q-17 60 -89 207z" />
  </g>

</svg>
