<?xml version="1.0" standalone="no"?>
<!DOCTYPE svg PUBLIC "-//W3C//DTD SVG 1.1//EN" "http://www.w3.org/Graphics/SVG/1.1/DTD/svg11.dtd" >
<svg xmlns="http://www.w3.org/2000/svg" xmlns:xlink="http://www.w3.org/1999/xlink" version="1.1" viewBox="0 0 2048 2048">
  <g transform="matrix(1 0 0 -1 0 2048)">
   <path fill="currentColor"
d="M1283 918v803q-172 -21 -420 -32l-3 39q636 74 872 211l96 -100q15 -16 13 -29q-2 -11 -15 -13q-12 -2 -30 2l-51 10q-246 -62 -366 -76v-815h364l96 98l121 -107q20 -18 15 -33q-4 -16 -13 -16l-15 1h-716l-108 -232h517l69 71l83 -57q39 -26 35 -49q-4 -20 -84 -55
q-46 -294 -112 -376q-56 -71 -222 -106q4 50 -32 76q-44 31 -242 97l14 42q33 -10 111 -31q149 -42 218 -42q81 0 124 139q19 64 45 233h-542q-53 -19 -80 -15q-36 4 -29 33q6 18 22 43q19 29 38 72l67 157h-178q-118 0 -192 -8l-35 87q105 -22 227 -22h338zM1030 1384
q225 -212 197 -311q-4 -16 -23 -27q-23 -14 -41 -8q-28 10 -36 46l-15 69q-14 64 -95 181l-12 -39q-55 -159 -189 -318l-30 19q169 294 183 640l119 -24q52 -10 55 -32q5 -27 -48 -44l-26 -8q-15 -55 -30 -113zM1682 1399q224 -212 196 -311q-5 -17 -26 -28.5t-38 -6.5
q-28 10 -35 46l-16 70q-14 64 -95 180l-12 -39q-55 -158 -189 -318l-30 19q170 297 183 640l119 -24q52 -10 56 -31q4 -28 -48 -45l-26 -7q-16 -56 -31 -114zM123 1532q208 -231 208 -357q0 -47 -24 -68q-19 -17 -43 -11q-30 8 -36 55q-11 89 -33 156q-23 66 -103 206z
M735 1520q-84 -114 -234 -256q-2 -212 -27 -504q277 -205 277 -319q0 -49 -36 -59q-32 -10 -51 22q-4 7 -32 79q-17 42 -76 126q-39 54 -91 99q-103 -392 -347 -622l-29 26q149 191 214 372q48 134 68 246q34 183 34 515v407q0 175 -15 274l106 -20q80 -14 91 -33
q15 -28 -37 -48l-49 -18v-480q103 138 182 329l89 -56q58 -37 58 -57q0 -26 -47 -24z" />
  </g>

</svg>
