<?xml version="1.0" standalone="no"?>
<!DOCTYPE svg PUBLIC "-//W3C//DTD SVG 1.1//EN" "http://www.w3.org/Graphics/SVG/1.1/DTD/svg11.dtd" >
<svg xmlns="http://www.w3.org/2000/svg" xmlns:xlink="http://www.w3.org/1999/xlink" version="1.1" viewBox="0 0 2048 2048">
  <g transform="matrix(1 0 0 -1 0 2048)">
   <path fill="currentColor"
d="M1084 405q312 -201 881 -237v-29q-47 -10 -69 -25q-26 -17 -33 -65q-357 62 -587 171q-139 67 -292 194q-116 -153 -376 -239q-192 -64 -482 -107l-5 41q428 88 618 207q164 103 209 250q22 70 33 204l103 -22q85 -17 89 -42q2 -19 -9.5 -25.5t-85.5 -28.5
q-31 -132 -65 -193l30 -25q277 92 479 244l74 -63q52 -44 50 -61q-1 -16 -32 -16q-12 0 -26 3l-41 9q-270 -109 -463 -145zM1031 1477l74 -48q58 -37 53 -63q-4 -18 -50 -14l-49 4l-15 -12q158 -38 242 -66q207 -70 220 -141q4 -25 -9 -42t-36 -17q-31 0 -122 68
q-64 47 -205 107q-89 39 -135 54q-180 -144 -438 -219l-14 40q313 131 464 349h-546l-1 -700q0 -44 -56 -41q-46 2 -50 41q-1 17 4 68q7 94 7 110v506q-110 -77 -232 -142l-24 38q232 152 376 318q94 107 187 292l110 -52q55 -26 52 -46q-4 -23 -45 -27l-61 -6
q-25 -34 -49 -72h560l73 72l87 -65q44 -33 42 -53q-3 -19 -35 -27q-2 0 -31 -5q-10 -2 -28 -7q-73 -67 -179 -146h435l68 76l84 -54q40 -26 40 -49q0 -27 -78 -61l1 -490q0 -2 7 -102q6 -75 1 -92q-6 -21 -50 -29q-53 -10 -53 30l-2 715h-594zM1109 1533q80 92 125 176h-592
q-82 -95 -184 -176h651zM1048 1048q157 -37 242 -65q112 -38 163 -70q49 -31 57 -71q4 -25 -9 -42t-36 -17q-31 0 -122 67q-64 48 -205 108q-90 39 -135 53q-180 -143 -438 -218l-14 40q156 66 257 138q119 86 213 219l88 -56q58 -37 53 -63q-4 -18 -50 -15l-49 4zM367 653
q341 -97 356 -202q7 -51 -39 -59q-39 -8 -79 48q-48 68 -116 112q-41 26 -139 70z" />
  </g>

</svg>
