<?xml version="1.0" standalone="no"?>
<!DOCTYPE svg PUBLIC "-//W3C//DTD SVG 1.1//EN" "http://www.w3.org/Graphics/SVG/1.1/DTD/svg11.dtd" >
<svg xmlns="http://www.w3.org/2000/svg" xmlns:xlink="http://www.w3.org/1999/xlink" version="1.1" viewBox="0 0 2048 2048">
  <g transform="matrix(1 0 0 -1 0 2048)">
   <path fill="currentColor"
d="M1457 1472l21 21q134 137 194 237h-340q-117 0 -192 -8l-38 88q100 -23 230 -23h358l74 61l67 -59q46 -41 49 -59q4 -22 -29 -27q-4 -1 -37 -3q-16 -1 -33 -2q-101 -107 -287 -254q79 -71 70 -133q-3 -17 -20 -39h220l50 69l87 -69q40 -31 30 -53q-7 -18 -79 -36
q-60 -82 -182 -199l-32 28q67 77 126 202h-218v-704q0 -142 -155 -170q-11 69 -47 92q-32 21 -159 44l8 46q139 -23 190 -27q68 -5 68 57v662h-135q-117 0 -192 -9l-38 89q98 -22 230 -22h168q-21 15 -43 66q-29 64 -110 132q-9 9 -107 81l20 34q133 -62 213 -113zM775 1894
q202 -193 195 -309q-2 -31 -27 -49q-21 -16 -45 -4q-27 13 -38 80q-20 114 -116 256zM80 1528q185 -221 185 -357q0 -47 -24 -68q-21 -19 -43 -11q-27 11 -34 45q-3 20 -7 68q-8 103 -108 304zM631 1452q-87 -97 -196 -185l-1 -69q-3 -214 -26 -415q128 -92 170 -137
q84 -92 84 -152q0 -49 -36 -60q-32 -8 -51 23q-4 7 -31 79q-29 73 -144 194q-58 -258 -133 -401q-67 -128 -161 -235l-29 21q100 163 142 271q90 235 107 476q13 199 13 379v522q0 61 -15 158l107 -19q80 -14 90 -33q15 -29 -32 -46l-54 -20v-472q102 145 145 248l119 -76
q20 -12 20 -29q0 -27 -48 -24zM688 1301l-39 86q115 -17 188 -18h34l67 59l92 -88q11 -10 12 -22q4 -33 -96 -58l-108 -286h100l54 72l70 -49q36 -25 36 -42q0 -21 -64 -55q-19 -138 -40 -209q-25 -85 -112 -242q119 -145 259 -187q141 -42 458 -42q139 0 375 24v-32
q-61 -22 -88 -88q-78 -3 -115 -3q-259 0 -458 18q-185 17 -300 100q-66 49 -158 168q-62 -78 -81 -105q-51 -73 -67 -95q9 -28 4 -50q-3 -10 -12 -12q-13 -4 -44 30l-53 61q106 91 220 217q67 111 101 287q21 108 23 176h-124q-32 -13 -60 -13q-42 0 -38 25q1 6 9 28
l133 354l-29 1q-51 3 -149 -10z" />
  </g>

</svg>
