<?xml version="1.0" standalone="no"?>
<!DOCTYPE svg PUBLIC "-//W3C//DTD SVG 1.1//EN" "http://www.w3.org/Graphics/SVG/1.1/DTD/svg11.dtd" >
<svg xmlns="http://www.w3.org/2000/svg" xmlns:xlink="http://www.w3.org/1999/xlink" version="1.1" viewBox="0 0 2048 2048">
  <g transform="matrix(1 0 0 -1 0 2048)">
   <path fill="currentColor"
d="M625 1441h152l98 105l121 -111q19 -18 15 -34q-5 -19 -25 -19h-361v-155q259 -116 285 -235q6 -28 -4 -49q-12 -27 -42 -27q-41 0 -78 74q-38 75 -81 120q-17 18 -80 69v-274q0 -108 11 -217q4 -29 4 -56q0 -40 -49 -43q-62 -5 -62 43v556q-118 -196 -213 -303
q-54 -61 -185 -169l-27 32q117 108 224 280q106 172 171 354h-150q-117 0 -192 -8l-37 91q93 -24 229 -24h179l1 269q-141 -13 -365 -18l-3 44l48 5q481 54 644 164l95 -92q21 -20 19 -39q-2 -26 -31 -25q-9 1 -21 4l-43 13q-82 -21 -247 -48v-277zM399 500l37 -8
q-28 -158 -72 -250q-42 -88 -96 -130q-50 -40 -95 -38q-22 1 -36.5 16.5t-13.5 36.5q3 36 70 73q109 60 164 173q16 34 42 127zM733 521q134 -220 134 -329q0 -44 -17 -63q-21 -25 -47 -22q-28 3 -36 43q-2 9 -3 63q-3 101 -22 173q-5 22 -39 121zM1175 549
q249 -224 235 -359q-7 -66 -58 -63q-36 2 -46 69q-16 97 -62 184q-25 46 -95 146zM1630 526q297 -185 318 -341q4 -28 -12 -52q-13 -18 -35 -20q-32 -3 -52 36q-3 7 -30 75q-33 82 -102 163q-62 73 -108 105zM1452 1279q-24 -99 -47 -160l28 -17q452 -269 464 -422
q3 -37 -18.5 -58.5t-51.5 -10.5q-32 12 -66 80q-87 173 -316 344q-33 25 -57 42q-75 -163 -215 -270q-102 -80 -301 -155l-16 42q182 85 280 177q181 171 227 469q25 157 25 411q0 146 -5 173l109 -25q82 -19 85 -45q4 -28 -49 -46l-36 -12q-3 -281 -29 -459
q222 176 297 324l126 -92q32 -23 27 -43q-8 -28 -50 -23l-53 7q-228 -180 -358 -231zM995 1660q103 -81 155 -130q112 -106 120 -204q5 -77 -47 -84q-54 -7 -73 79q-37 162 -182 305z" />
  </g>

</svg>
