<?xml version="1.0" standalone="no"?>
<!DOCTYPE svg PUBLIC "-//W3C//DTD SVG 1.1//EN" "http://www.w3.org/Graphics/SVG/1.1/DTD/svg11.dtd" >
<svg xmlns="http://www.w3.org/2000/svg" xmlns:xlink="http://www.w3.org/1999/xlink" version="1.1" viewBox="0 -200 1000 1000">
  <g transform="matrix(1 0 0 -1 0 800)">
   <path fill="currentColor"
d="M364 305q72 51 131 123t92 154l-71 -1v-20q-9 -10 -19.5 -17t-31.5 -13v432l55 -44h252l32 44l54 -50l-28 -37l1 -311q-16 -27 -50 -34v50l-83 1q16 -35 41 -73t58 -72t74 -59t89 -33l2 -10q-15 -5 -25.5 -7t-19.5 -5t-17.5 -9.5t-20.5 -21.5q-32 19 -60 51t-53.5 71
t-48 82.5t-43.5 85.5q-1 1 -19 1q-10 0 -21 -0.5t-20 -1.5h-10t-6 -2q0 -5 49 -50q-14 -8 -19 -15.5t-13 -11.5q-34 -39 -60.5 -68t-53 -53t-56.5 -45t-72 -43zM767 391l-22 -57v-285q-19 -18 -29.5 -21t-19.5 -6l-1 404zM382 6q55 36 86 76.5t46.5 86.5t20 97.5t6.5 108.5
l-9 42l71 -22l-9 -50q-6 -54 -12 -104t-24.5 -94.5t-57.5 -82t-111 -66.5zM672 743v-137h109v137h-109zM672 898v-132h109v132h-109zM623 604v139h-107v-139h107zM516 898v-132h107v132h-107zM79 0q46 89 71 185t37 195t14 198.5t2 196.5v95t0.5 62.5t1 39.5t1.5 27v-4
l74 -38l-21 -71l-3 -239q38 48 65.5 88.5t37.5 85.5l58 -72l-38 -22q-10 -9 -25 -23t-31.5 -28.5t-34 -28.5t-32.5 -23q-4 -101 -8 -156t-8 -80q25 -17 49.5 -36t44.5 -38.5t32.5 -38t12.5 -34.5q-3 -21 -16 -40t-26 -19q-11 0 -17 20q-6 23 -13 43t-16.5 40t-22 41
t-29.5 46q-9 -65 -25 -123.5t-36 -108t-42 -87.5t-44 -61zM108 675q-9 -66 -22.5 -113.5t-33.5 -77.5q-5 -13 -5 -22q0 -14 7 -24t23 -10q16 4 26 15t16 27t8.5 35.5t2.5 40.5q0 37 -4.5 73t-5.5 58z" />
  </g>

</svg>
