<?xml version="1.0" standalone="no"?>
<!DOCTYPE svg PUBLIC "-//W3C//DTD SVG 1.1//EN" "http://www.w3.org/Graphics/SVG/1.1/DTD/svg11.dtd" >
<svg xmlns="http://www.w3.org/2000/svg" xmlns:xlink="http://www.w3.org/1999/xlink" version="1.1" viewBox="0 0 2048 2048">
  <g transform="matrix(1 0 0 -1 0 2048)">
   <path fill="currentColor"
d="M985 1589q-15 -69 -28 -112h397v220l97 -22q69 -16 69 -40q0 -22 -40 -34l-35 -10v-180q0 -40 -52 -40q-39 0 -39 30v20l-427 1q-126 -104 -320 -141q-116 -23 -379 -42v38q222 27 321 49q144 32 249 96l-245 -1q2 -28 -55 -20q-33 5 -33 38v252l97 -21q69 -15 69 -40
q0 -23 -40 -34l-36 -9v-110l296 1q43 96 38 231l99 -27q84 -22 84 -46q0 -26 -51 -38zM1785 1048h-1389q-65 -71 -106 -104q-125 -99 -211 -140l-21 31q214 149 338 402l125 -49q28 -11 28 -31q0 -27 -39 -30l-53 -3l-14 -18h1327l68 80l94 -65q38 -26 38 -44q0 -26 -86 -57
q-50 -381 -125 -485q-75 -102 -233 -120q-7 71 -52 94q-22 11 -165 61l11 40q40 -12 103 -28q105 -29 151 -29q110 0 156 167q38 136 55 328zM869 1025l109 -24q83 -18 86 -44q3 -29 -50 -44l-41 -11q0 -48 -10 -139h435v247l96 -22q69 -15 69 -40q0 -22 -40 -33l-37 -10
v-210q0 -67 -52 -60q-36 5 -36 32v42l-449 -1q-54 -86 -131 -132q-222 -133 -722 -161l-5 38q617 78 752 256h-343q-16 -21 -58 -19q-27 1 -27 35v295l98 -22q69 -16 69 -40q0 -23 -41 -34l-36 -9v-152h357q13 60 12 178q0 62 -5 84zM1725 1724h-1268q-97 -92 -301 -198
l-19 30q132 93 210 180q86 96 150 213l122 -58q29 -14 29 -31q0 -28 -40 -30l-53 -4l-42 -44h1196l69 80l93 -65q38 -26 38 -43q0 -26 -85 -57q-39 -204 -59 -272q-44 -149 -147 -207q-57 -33 -145 -43q-8 72 -52 94q-21 11 -165 60l11 41q40 -12 103 -29q105 -28 151 -28
q110 0 156 167q30 108 48 244zM1674 382q222 -106 250 -230q11 -46 -15 -71q-20 -18 -38 -16q-30 4 -62 82q-26 63 -78 127q-2 2 -78 80zM1212 411q203 -167 191 -280q-7 -58 -60 -58q-33 0 -44 53q-17 85 -50 149q-15 31 -67 106zM747 409q112 -150 120 -259q2 -29 -9 -50
q-17 -34 -56 -27q-29 4 -34 36q0 5 -3 42q-7 112 -52 245zM346 379l37 -15q-25 -134 -78 -210q-62 -89 -134 -89q-32 0 -50 15q-28 24 -10 57q7 14 71 46q98 49 164 196z" />
  </g>

</svg>
