<?xml version="1.0" standalone="no"?>
<!DOCTYPE svg PUBLIC "-//W3C//DTD SVG 1.1//EN" "http://www.w3.org/Graphics/SVG/1.1/DTD/svg11.dtd" >
<svg xmlns="http://www.w3.org/2000/svg" xmlns:xlink="http://www.w3.org/1999/xlink" version="1.1" viewBox="0 -205 1024 1024">
  <g transform="matrix(1 0 0 -1 0 819)">
   <path fill="currentColor"
d="M230 231l-34 29h216v134h-153q-28 0 -45 -14l-34 29q-6 -96 -15 -160l-4 -16q-31 -116 -130 -205l-12 6q79 102 101 214q12 56 16 133q3 63 3 225v57q0 20 -12 44q-6 12 -10 21l9 11l46 -40h483l-12 8l17 26q50 75 48 82v1l-3 9q-4 10 -7 17l8 7l70 -40q10 -7 10 -12
q0 -2 -18 -4q-17 -3 -18 -4q-38 -42 -88 -90h201l38 48l74 -54q9 -5 9 -8t-10 -3h-4q-4 1 -6 1h-314v-123h140l37 39l49 -47q6 -5 6 -7q0 -4 -10 -5l-21 -8v-122h24l33 44l71 -50q7 -5 6 -8q-1 -2 -12 -2h-122v-116l4 -47q0 -27 -37 -32q104 -56 113 -121v-5q0 -37 -25 -37
q-16 0 -21 27q-19 81 -107 137l6 14l21 -9v39h-530q-27 1 -45 -13zM186 609q0 -115 -6 -199h232v134h-130q-15 0 -35 -14l-35 30h200v123h-226v-74zM805 544h-155v-134h155v134zM650 394v-134h155v134h-155zM458 544v-134h146v134h-146zM458 394v-134h146v134h-146zM458 683
v-123h146v123h-146zM112 866h696l39 52l83 -55q5 -4 5 -9q0 -4 -11 -4h-732q-28 0 -47 -13zM294 199h13v-15q-12 -140 -93 -158q-22 3 -25 25q0 13 21 24q69 35 84 124zM421 996l6 11q123 -28 135 -97q-2 -27 -26 -33h-4q-11 2 -21 25q-25 57 -90 94zM300 826l6 11
q127 -39 129 -103q-2 -25 -25 -26q-13 0 -19 17q-26 59 -91 101zM603 194l7 10q96 -61 96 -123v-4q-3 -31 -24 -34h-4q-17 0 -17 22v3q3 70 -58 126zM430 194l9 8q64 -48 67 -121v-10q-4 -31 -27 -34h-2q-18 0 -18 20q0 6 1 18q1 13 1 21q1 60 -31 98z" />
  </g>

</svg>
