<?xml version="1.0" standalone="no"?>
<!DOCTYPE svg PUBLIC "-//W3C//DTD SVG 1.1//EN" "http://www.w3.org/Graphics/SVG/1.1/DTD/svg11.dtd" >
<svg xmlns="http://www.w3.org/2000/svg" xmlns:xlink="http://www.w3.org/1999/xlink" version="1.1" viewBox="0 -200 999 1000">
  <g transform="matrix(1 0 0 -1 0 800)">
   <path fill="currentColor"
d="M536 423l55 -33h57v112h-103l-34 -11l-16 32h270l42 39l53 -60h-167v-112h63l31 35l42 -44l-22 -31v-174v-2q0 -28 -14 -40t-40 -20q-2 16 -7.5 25t-13 14t-16 7.5t-16.5 5.5v8l55 -4q7 0 7 81v117h-69v-319q-14 -11 -22 -15.5t-23 -9.5v344h-63l-4 -9v-220
q-16 -23 -45 -28v312zM692 561q-9 -25 -18 -25q-7 0 -15 11q-12 26 -35 51.5t-54 40.5l2 1q37 -4 60 -9.5t36 -14.5t18 -22.5t6 -32.5zM749 922h120l32 41l53 -64l-30 -30v-793q-4 -31 -22.5 -52t-42.5 -26q-5 17 -8.5 28.5t-10.5 21t-20.5 18t-38.5 19.5l3 12q2 -4 19 -10
t36 -6q13 0 24.5 5.5t13.5 20.5v583h-175v260zM474 922h104l31 41l57 -64l-31 -36v-173h-168v-648q-10 -17 -18.5 -24.5t-29.5 -9.5v946zM749 902v-83h128v83h-128zM585 902h-118v-83h118v83zM877 800h-128v-89h128v89zM585 711v89h-118v-89h118zM78 0q46 89 71 185
t37 195.5t14 199.5t2 197v95t0.5 62.5t1 39.5t1.5 27v-4l74 -38l-22 -71l-3 -239q38 48 65 88.5t37 85.5l58 -72l-37 -22q-10 -9 -25 -23t-31.5 -28.5t-34 -28.5t-32.5 -23q-4 -102 -8.5 -157.5t-7.5 -80.5q25 -17 50 -36t44.5 -38t31.5 -37.5t12 -35.5q-3 -21 -16 -40
t-26 -19q-11 0 -17 20q-5 23 -12 43t-16.5 40t-22 41t-28.5 46q-9 -65 -25 -123.5t-36 -108t-42 -87.5t-43 -61zM107 677q-8 -66 -21.5 -113.5t-33.5 -79.5q-4 -8 -4 -21q0 -14 7 -24.5t21 -10.5q15 4 25.5 15.5t16.5 27.5t8.5 35.5t2.5 40.5q0 38 -4.5 74t-5.5 58z" />
  </g>

</svg>
