<?xml version="1.0" standalone="no"?>
<!DOCTYPE svg PUBLIC "-//W3C//DTD SVG 1.1//EN" "http://www.w3.org/Graphics/SVG/1.1/DTD/svg11.dtd" >
<svg xmlns="http://www.w3.org/2000/svg" xmlns:xlink="http://www.w3.org/1999/xlink" version="1.1" viewBox="0 0 2048 2048">
  <g transform="matrix(1 0 0 -1 0 2048)">
   <path fill="currentColor"
d="M518 1240q99 -51 146 -81q113 -73 116 -141q1 -18 -9 -32q-15 -22 -40 -19q-27 3 -52 52q-38 78 -161 167v-375q0 -79 8 -182q3 -40 1 -70q-3 -48 -51 -53q-53 -6 -53 36v621q-137 -126 -306 -213l-20 34q295 183 495 554h-300q-68 0 -149 -10l-39 86q121 -18 188 -18
h300l59 70l84 -57q42 -28 37 -54q-2 -19 -84 -48q-96 -161 -170 -246v-21zM1630 1608l61 73l72 -49q37 -26 41 -44q5 -20 -24 -37q-7 -4 -13 -7q-9 -4 -26 -14v-147l35 -27q11 -9 16 -18q6 -10 0.5 -22t-16.5 -12h-706l-1 -47q-1 -31 -43 -36q-69 -8 -60 49q11 64 11 147
v255l119 -64h534zM1070 1362h576v188h-576v-188zM1747 1125l68 76l84 -55q40 -26 40 -48q0 -27 -78 -62v-333q0 -47 7 -104q3 -25 3 -44q0 -40 -57 -48q-48 -7 -48 24v57h-815v-50q0 -26 -44 -30q-66 -5 -60 51l5 42q7 95 7 104v485l123 -65h765zM1399 1068v-172h367v172
h-367zM1399 646h367v191h-367v-191zM951 896h356v172h-356v-172zM951 646h356v191h-356v-191zM859 1763l-38 88q93 -22 237 -22h638l93 95l108 -84q35 -26 32 -46q-4 -22 -27 -22h-850q-121 0 -193 -9zM1639 470q37 -24 55 -36q240 -152 240 -280q0 -34 -18 -55
q-22 -28 -51 -17q-28 11 -53 87q-49 149 -199 266zM1172 470q93 -67 145 -130q91 -110 91 -192q0 -63 -47 -70q-53 -9 -77 100q-34 163 -138 264zM374 473l38 -9q-46 -157 -71 -213q-72 -160 -157 -174q-28 -5 -47 12q-21 17 -18 49q3 35 62 72q123 77 193 263zM723 475
q122 -186 122 -310q0 -51 -24 -73t-49 -15q-26 8 -27 68q-1 117 -57 312zM341 1938q121 -74 150 -98q78 -65 78 -127q0 -32 -18 -51q-22 -24 -52 -13q-21 7 -32 40q-30 86 -60 126q-31 40 -90 93z" />
  </g>

</svg>
