<?xml version="1.0" standalone="no"?>
<!DOCTYPE svg PUBLIC "-//W3C//DTD SVG 1.1//EN" "http://www.w3.org/Graphics/SVG/1.1/DTD/svg11.dtd" >
<svg xmlns="http://www.w3.org/2000/svg" xmlns:xlink="http://www.w3.org/1999/xlink" version="1.1" viewBox="0 -205 1024 1024">
  <g transform="matrix(1 0 0 -1 0 819)">
   <path fill="currentColor"
d="M974 915v-813q0 -30 -11 -48q-10 -18 -66 -29q0 29 -72 46q-10 3 -15 4l4 17q71 -15 90 -13q20 2 27 8q8 6 7 82v538h-175q-2 -16 -10 -23q-9 -9 -33 -14q5 37 7 98v164q-3 22 -17 38l14 11l32 -37h166l30 37l42 -36q9 -5 9 -9t-9 -8zM369 980l37 -36v1h165l25 33l40 -35
q7 -6 5 -10q-1 -5 -11 -7l-14 -13v-130l2 -73q1 -31 -38 -31v28h-165v-535l4 -95q3 -38 -47 -46q5 39 7 187v718q1 17 -20 35zM160 996l88 -35q5 -2 5 -5t-5 -5q-20 -6 -35 -24v-181v-60q41 37 60 58q40 43 21 58l10 7l54 -45q6 -7 5 -11q0 -3 -7 -5q-18 3 -23 1
q-5 -1 -29 -21q-22 -18 -91 -68q-1 -189 -25 -307q43 -22 74 -51q44 -39 57 -81q11 -45 -18 -50q-18 -1 -23 30q-5 30 -32 70q-22 33 -63 62q-8 -33 -17 -61q-52 -143 -151 -215l-6 11q95 110 132 240q38 132 36 438v209q-4 14 -25 28zM534 655l25 -28h206l27 25l38 -29
q7 -6 5 -10q-1 -5 -11 -7l-14 -9v-65l6 -71q-4 -20 -38 -23v29h-213v-8q-1 -20 -39 -28q0 2 1 5q4 28 6 57v123q-3 18 -13 28zM582 237q-56 -26 -70 -34q-14 -7 -26 -27l-42 33l168 62v113h-88q-27 2 -43 -12l-28 28h143l24 31l38 -31q8 -5 8 -10q-1 -4 -10 -9l-12 -11v-151
q2 -61 -9 -81q-11 -23 -58 -33q5 22 -45 31l-38 11l2 10q68 -8 92 -5q24 4 24 53v47zM812 241q-26 -12 -56 -25l-6 -3q-14 -6 -26 -27l-42 31l152 54v113h-84q-27 2 -43 -12l-28 28h145l24 29l32 -27q10 -6 10 -11q0 -4 -10 -8l-14 -13v-143q2 -61 -9 -81q-11 -23 -58 -33
q9 22 -43 31l-40 9l2 12q68 -9 92 -7t24 55v39zM763 831h175v95h-175v-95zM415 831h165v96h-165v-96zM938 815h-175v-90h175v90zM580 815h-165v-90h165v90zM565 554h213v57h-213v-57zM778 540h-213v-57h213v57zM105 723q5 -82 0 -120q-3 -37 -14 -60q-28 -48 -59 -24
q-12 14 10 36t32 52t16 116h15zM464 351l7 9q61 -21 73 -50q8 -30 -16 -33q-9 3 -15 17q-12 32 -49 57zM696 353l7 9q63 -21 73 -48q8 -30 -16 -33q-9 3 -15 17q-12 30 -49 55z" />
  </g>

</svg>
