<?xml version="1.0" standalone="no"?>
<!DOCTYPE svg PUBLIC "-//W3C//DTD SVG 1.1//EN" "http://www.w3.org/Graphics/SVG/1.1/DTD/svg11.dtd" >
<svg xmlns="http://www.w3.org/2000/svg" xmlns:xlink="http://www.w3.org/1999/xlink" version="1.1" viewBox="0 0 2048 2048">
  <g transform="matrix(1 0 0 -1 0 2048)">
   <path fill="currentColor"
d="M1069 594h631l98 102l121 -107q20 -18 16 -33q-6 -19 -26 -19h-840v-312h546l98 102l121 -107q20 -18 15 -33q-5 -19 -25 -19h-1351q-116 0 -192 -8l-38 88q96 -23 230 -23h498v312h-627q-117 0 -192 -8l-38 88q96 -23 230 -23h627v141q0 115 -7 160l109 -24
q82 -18 85 -44q3 -30 -49 -44l-40 -11v-178zM1583 1369l69 79l93 -65q38 -26 36 -45q-3 -26 -83 -55q-12 -55 -26 -145q-29 -192 -118 -275q-73 -69 -200 -83q-6 78 -52 94l-164 60l11 40l181 -45q45 -11 73 -11q110 0 156 166q21 79 40 228h-637q-56 -156 -139 -246
q-192 -209 -589 -301l-8 37q293 90 444 225q127 112 188 285h-376q-109 0 -192 -8l-38 89q99 -24 230 -24h1101zM1619 1809l-42 -4q-596 -59 -1279 -66v54q249 1 638 38q496 46 679 111l87 -87q21 -22 26 -42q4 -18 -11 -27q-20 -11 -53 4zM326 1701q230 -117 230 -222
q0 -61 -50 -58q-26 2 -38 16q-11 15 -26 57q-29 78 -139 173zM872 1722q124 -89 169 -139q38 -44 40 -89q3 -50 -32 -65q-32 -13 -58 20q-6 6 -22 55q-28 82 -127 187zM1563 1760l82 -49q69 -42 53 -72q-9 -17 -34 -15l-55 3q-117 -124 -258 -210l-27 38q160 134 239 305z
" />
  </g>

</svg>
