<?xml version="1.0" standalone="no"?>
<!DOCTYPE svg PUBLIC "-//W3C//DTD SVG 1.1//EN" "http://www.w3.org/Graphics/SVG/1.1/DTD/svg11.dtd" >
<svg xmlns="http://www.w3.org/2000/svg" xmlns:xlink="http://www.w3.org/1999/xlink" version="1.1" viewBox="0 0 2048 2048">
  <g transform="matrix(1 0 0 -1 0 2048)">
   <path fill="currentColor"
d="M585 1586h34q41 -443 80 -593q58 -223 162 -406q144 -252 428 -342q196 -61 649 -62v-28q-70 -20 -92 -90q-198 8 -432 45q-484 77 -689 604q-83 216 -115 521q-16 154 -25 351zM772 1789q-136 -68 -471 -137v-466l-4 -110q-16 -421 -50 -577q-54 -255 -172 -416l-24 17
q74 173 102 301q36 166 52 458q12 203 12 323v399l-7 198l91 -69q152 34 266 89q133 65 191 120l59 -52q30 -26 42 -45q10 -17 -2 -31q-11 -12 -32 -9zM393 1637l97 -23q68 -15 66 -45q-1 -20 -36 -34l-34 -14v-1182q0 -52 4 -135q3 -77 3 -87q0 -49 -56 -49q-35 0 -35 50
v1360q0 100 -9 159zM1295 1542l72 -44h26l34 39l49 -39q17 -14 19 -27q3 -14 -11 -23l-19 -12l2 -102l15 -19q15 -19 11 -30q-4 -12 -26 -12h-108v-32q0 -27 -28 -29q-29 -2 -29 22v217zM1359 1330h47v109h-47v-109zM1001 1561h7l49 50l74 -63q15 -13 13 -27q-4 -17 -25 -17
h-118v-137h11l54 45l69 -58q20 -17 17 -31q-3 -12 -21 -12h-130v-186h175v619l-6 120l92 -59h233l42 59l79 -47q19 -11 17 -27q-1 -9 -13 -20l-28 -26v-619h173v186q-43 -5 -94 -8l-41 78q69 -8 135 -14v133q-46 -2 -97 -10l-41 78q83 -7 138 -7v131l-91 -15l-31 82l106 -8
l46 66l72 -43q39 -23 41 -47q1 -22 -29 -35l-33 -15v-552h11l39 53l74 -50q40 -27 34 -47q-8 -23 -64 -27q-12 -18 -109 -135l-25 16q38 96 47 133h-959q-18 -132 -82 -149q-23 -7 -41 6q-14 10 -12 27q1 20 53 79q43 47 48 149q1 12 0 37l38 -3q0 -43 -4 -89h27v573
q0 4 -8 69q-2 14 -4 43l77 -64q52 38 100 110l57 -51q31 -28 17 -46q-5 -5 -25 -8l-45 -5q-37 -26 -89 -48v-137zM1509 1655v96h-258v-96h258zM1251 1125h258v473h-258v-473zM986 916q216 -76 227 -169q3 -26 -13.5 -43.5t-39.5 -13.5q-28 5 -40 28q-6 9 -22 44
q-26 59 -127 125zM1402 704q371 -128 380 -236q2 -26 -22.5 -41t-48.5 -2q-16 9 -34 29q-66 76 -131 122q-62 44 -179 105q-86 -112 -190 -161q-67 -32 -192 -72l-16 38q245 102 314 237q37 73 53 288l112 -17q60 -10 60 -35q0 -18 -76 -42q-6 -35 -9 -53q-12 -70 -29 -124
q133 47 296 182l68 -58q54 -45 38 -64q-10 -12 -48 -4q-20 4 -43 11q-135 -62 -303 -103z" />
  </g>

</svg>
