<?xml version="1.0" standalone="no"?>
<!DOCTYPE svg PUBLIC "-//W3C//DTD SVG 1.1//EN" "http://www.w3.org/Graphics/SVG/1.1/DTD/svg11.dtd" >
<svg xmlns="http://www.w3.org/2000/svg" xmlns:xlink="http://www.w3.org/1999/xlink" version="1.1" viewBox="0 0 2048 2048">
  <g transform="matrix(1 0 0 -1 0 2048)">
   <path fill="currentColor"
d="M1677 1725h88l80 81l114 -86q21 -16 16 -34q-6 -18 -26 -18h-282l-17 -104q-7 -37 -53 -33q-35 4 -38 25q-1 9 1 22l16 90q-83 0 -168 -11l-39 86q125 -18 217 -18l28 160q2 8 4 33q1 8 4 26l97 -31q62 -20 58 -51q-2 -20 -54 -32l-30 -6zM1075 1668l12 -88
q8 -55 -53 -50q-32 2 -35 26l-16 112h-64q-70 0 -149 -11l-39 86q123 -18 188 -18h57l-3 34l-13 98q-5 36 -8 68l97 -10q80 -9 77 -46q-1 -18 -42 -38l-29 -14l12 -92h56l80 81l114 -86q21 -16 16 -34q-6 -18 -26 -18h-232zM1417 560v-217q0 -131 9 -204q3 -26 4 -44
q2 -43 -41 -47q-65 -7 -65 51v461h-308q-72 0 -149 -11l-39 83q127 -17 188 -17h304v35q0 78 -10 154h-248q-30 -10 -60 -10t-30 30l1 388h-33q-98 -5 -148 -10l-40 82q27 -3 41 -5q94 -12 147 -12h33v94q-1 68 -6 106l101 -22q70 -16 73 -42q3 -24 -47 -42l-30 -10v-84h200
v65q0 103 -9 154l102 -24q69 -15 73 -41q3 -26 -48 -43l-28 -9v-102h234v77q-2 116 -6 134l99 -23q72 -17 75 -42q3 -23 -47 -41l-28 -11v-94h116l81 77l113 -82q22 -16 16 -32q-6 -18 -26 -18h-300v-157l20 -18q13 -12 11 -27q-2 -13 -16 -13h-342v-7q1 -22 -51 -22
q-39 0 -39 27v217h-200v-352h637l79 77l114 -82q21 -16 15 -32q-6 -18 -25 -18l-553 -1l103 -25q70 -17 73 -40q3 -29 -49 -42l-41 -11v-71h346l80 77l114 -83q21 -15 15 -31q-6 -18 -26 -18h-529zM1588 1212h-234v-161h234v161zM300 1817v-501h242v428q0 115 -9 160
l109 -24q83 -19 86 -44q3 -30 -49 -44l-41 -10v-424l53 -39q10 -8 15 -18q8 -20 -8 -34q-9 -8 -23 -8h-375v-66q-1 -133 -8 -253h236l61 72l73 -50q37 -25 41 -43q5 -20 -25 -38q-6 -3 -13 -6l-27 -15v-428q0 -129 5 -207q4 -81 4 -90q0 -40 -63 -47q-38 -4 -38 26v772h-254
q-14 -487 -202 -806l-33 16q77 202 101 355q46 292 46 742v546l-8 138v-1q-2 38 -5 62l109 -24q80 -18 86 -44q5 -22 -26 -32zM1064 492l113 -91q24 -20 18 -37q-7 -24 -46 -16l-62 12q-180 -166 -368 -219l-18 32q133 75 200 135q93 81 163 184zM1573 469q206 -91 279 -134
q135 -79 129 -153q-3 -44 -48 -44q-33 0 -73 56q-72 102 -306 236z" />
  </g>

</svg>
