<?xml version="1.0" standalone="no"?>
<!DOCTYPE svg PUBLIC "-//W3C//DTD SVG 1.1//EN" "http://www.w3.org/Graphics/SVG/1.1/DTD/svg11.dtd" >
<svg xmlns="http://www.w3.org/2000/svg" xmlns:xlink="http://www.w3.org/1999/xlink" version="1.1" viewBox="0 -205 1024 1024">
  <g transform="matrix(1 0 0 -1 0 819)">
   <path fill="currentColor"
d="M384 486h251q14 96 18 233h-129q-36 -105 -92 -170l-14 10q55 121 76 208q21 88 18 101q-2 13 -11 26l6 7l70 -21q10 -3 11 -7q2 -4 -3 -9q-17 -4 -28 -20q-12 -57 -27 -105h123q1 56 1 48v29v40v92q-4 20 -25 34l8 11l87 -30q16 -5 8 -11q-17 -8 -31 -20v-58v-80
q0 -31 -1 -55h116l34 46l70 -54q8 -6 7 -9q-2 -3 -13 -3h-215q-3 -137 -15 -233h198l35 46l64 -54q11 -7 8 -10q-2 -3 -19 -2h-245q27 -92 45 -139q19 -51 52 -105q33 -53 59 -76q26 -25 46 -37t71 -27v-16q-42 4 -54 0q-17 -3 -30 -16q-87 53 -157 198q-35 74 -58 218h-18
q0 -4 -2 -13q-1 -9 -2 -14q-57 -304 -344 -406l-6 14q263 137 304 409q1 5 1 10h-169q-27 1 -45 -13zM211 992l89 -30q14 -5 6 -11q-21 -7 -30 -21v-211h40l32 40l68 -50q8 -5 7 -8q-2 -2 -13 -2h-134v-206l125 56l7 -22l-132 -65v-292l3 -95q1 -35 -54 -46q5 39 7 91v319
q-99 -51 -121 -68q-25 -19 -41 -51l-47 60l209 93v226h-108q-9 -32 -18 -61q-25 -76 -70 -133l-14 8q57 130 81 272q8 42 2 53q-5 11 -13 21l6 9l83 -24q5 -5 4 -9q0 -3 -7 -5q-13 -2 -22 -13q-2 -8 -6 -23q-7 -30 -20 -75h102v221q-12 26 -30 40z" />
  </g>

</svg>
