<?xml version="1.0" standalone="no"?>
<!DOCTYPE svg PUBLIC "-//W3C//DTD SVG 1.1//EN" "http://www.w3.org/Graphics/SVG/1.1/DTD/svg11.dtd" >
<svg xmlns="http://www.w3.org/2000/svg" xmlns:xlink="http://www.w3.org/1999/xlink" version="1.1" viewBox="0 0 2048 2048">
  <g transform="matrix(1 0 0 -1 0 2048)">
   <path fill="currentColor"
d="M1122 1596h660l59 75l74 -48q50 -32 51 -51q4 -36 -74 -62q-26 -686 -51 -853q-29 -201 -121 -270q-66 -50 -178 -64q-4 51 -22 72q-21 22 -87 42l-156 45l11 38l224 -46q63 -12 102 -7q72 10 105 116q40 124 66 751l9 208l-698 -1q-99 -171 -250 -339l-30 29
q207 267 308 719l120 -41q67 -22 60 -54q-4 -18 -45 -26q-29 -6 -46 -10q-45 -121 -91 -223zM774 219q94 -23 234 -23l716 -2l99 114l123 -98q35 -28 28 -50q-7 -20 -35 -20h-931q-108 0 -192 -8zM544 1420l84 1l95 99l104 -91q31 -27 22 -49q-6 -17 -26 -17h-279v-496
q119 39 305 111l19 -41q-152 -77 -322 -148l-2 -448q0 -72 11 -181q3 -37 3 -70q0 -50 -59 -53q-49 -3 -49 50l1 660q-110 -46 -223 -91l-8 -53q-3 -25 -22 -27q-20 -1 -34 27l-68 136q42 11 164 40q23 6 190 58v526h-206q-87 -218 -137 -302l-34 19q104 281 161 681l96 -26
q78 -20 80 -46q2 -23 -45 -32l-41 -8q-30 -128 -61 -229h187v368q0 114 -8 160l109 -24q82 -18 85 -44q3 -30 -49 -44l-43 -11v-405zM1028 1353q136 -79 202 -136q76 -66 82 -133q3 -32 -16 -57q-17 -22 -41 -19q-34 5 -49 42q-3 7 -19 51q-30 85 -182 219zM1588 969
q-186 -123 -334 -202q-58 -30 -250 -125v-43q1 -28 -16 -36q-23 -12 -43 19l-82 125q333 115 702 298z" />
  </g>

</svg>
