<?xml version="1.0" standalone="no"?>
<!DOCTYPE svg PUBLIC "-//W3C//DTD SVG 1.1//EN" "http://www.w3.org/Graphics/SVG/1.1/DTD/svg11.dtd" >
<svg xmlns="http://www.w3.org/2000/svg" xmlns:xlink="http://www.w3.org/1999/xlink" version="1.1" viewBox="0 0 2048 2048">
  <g transform="matrix(1 0 0 -1 0 2048)">
   <path fill="currentColor"
d="M605 1174q-29 119 -45 161q-12 32 -64 138q-173 -132 -386 -231l-19 44q198 103 368 253q-73 123 -222 316l32 22q150 -169 238 -293q164 169 255 355l113 -66q46 -27 40 -46q-5 -18 -51 -22l-50 -4q-126 -162 -264 -283q148 -245 176 -509q24 -227 7 -516
q-16 -252 -90 -337q-59 -67 -184 -94q-5 69 -67 94q-34 15 -151 53l12 42q141 -48 216 -57q112 -13 145 141q26 124 26 452q0 101 -11 260q-80 -130 -226 -271q-139 -134 -321 -232l-20 34q306 217 543 596zM1263 1774v-1408q0 -115 12 -222q3 -28 3 -54q0 -38 -48 -42
q-62 -4 -62 42v1621q0 79 -11 207l115 -85h447l64 82l105 -76q30 -22 26 -46q-4 -31 -89 -49l-14 -29q-99 -198 -297 -511q128 -99 198 -174q191 -204 191 -422q0 -289 -277 -341q-4 58 -60 88q-49 26 -170 57l9 39q164 -42 234 -42q158 0 158 206q0 335 -339 578
q49 84 135 273q92 199 129 308h-459z" />
  </g>

</svg>
