<?xml version="1.0" standalone="no"?>
<!DOCTYPE svg PUBLIC "-//W3C//DTD SVG 1.1//EN" "http://www.w3.org/Graphics/SVG/1.1/DTD/svg11.dtd" >
<svg xmlns="http://www.w3.org/2000/svg" xmlns:xlink="http://www.w3.org/1999/xlink" version="1.1" viewBox="0 -205 1024 1024">
  <g transform="matrix(1 0 0 -1 0 819)">
   <path fill="currentColor"
d="M623 1000l70 -32q17 -10 7 -15q-20 1 -34 -8q-32 -37 -74 -93h248l37 37l44 -45q7 -6 5 -10q-1 -5 -11 -7l-18 -9v-212l6 -93q0 -30 -44 -31v52h-391v-15q-4 -19 -45 -28q5 38 7 132v214q-3 22 -17 38l14 11l31 -34h107l30 46q34 59 32 69q-1 11 -12 26zM468 554h391v278
h-391v-278zM364 894q3 -12 -7 -12q-14 2 -32 -12q-48 -61 -86 -105q31 -50 55 -110q75 -205 25 -465q-16 -77 -57 -116t-85 -53q-3 52 -120 66l2 18q90 -14 127 -13q38 1 63 36q26 34 37 107q11 75 11 142q0 68 -3 111q-1 6 -1 13q-29 -46 -58 -81q-36 -43 -76 -81
q-39 -37 -117 -87l-10 14q120 99 188 195q26 35 62 99q-3 14 -11 44q-1 6 -2 9q-18 66 -52 128q-9 -10 -17 -18q-50 -52 -160 -126l-7 17q105 87 146 135q4 4 11 13q5 7 8 10q-45 72 -121 146l10 14q88 -79 131 -136q7 9 20 25q13 17 19 25q37 50 35 60v1q-1 10 -5 21l8 6z
M883 424l62 -45q7 -5 7 -9q0 -3 -7 -5q-32 8 -121 -45q-34 -19 -91 -40v-111q2 -56 10 -69q9 -13 53 -14q17 -1 37 -1h49q44 0 45 44q2 29 2 117h15l9 -83q3 -48 28 -50q-20 -70 -99 -59q-32 -1 -53 -2q-50 0 -68 3q-67 -6 -66 112v280q-3 19 -22 35l8 10l88 -39q4 -3 3 -5
q0 -2 -4 -4q-17 -2 -35 -13v-131q60 32 101 59q49 34 47 41q-1 7 -8 16zM494 439q18 -5 10 -13q-16 -2 -29 -14v-69h83l32 40l68 -48q8 -6 7 -9q-2 -3 -13 -3h-177v-206q70 29 172 76l10 -16q-36 -21 -96 -52q-18 -10 -26 -14q-46 -26 -60 -38t-22 -34l-46 52q20 8 30 25
v302q-1 24 -24 35l7 11zM529 768l5 14q71 -28 123 -54q5 -2 14 -8l6 -3q23 20 36 36q25 27 26 31q2 5 -8 19l8 9l63 -36q7 -5 6 -8q0 -4 -8 -5q-25 1 -40 -10q-23 -28 -52 -54q20 -12 37 -24q32 -24 43 -51q10 -28 -8 -36q-17 -6 -38 29q-16 29 -60 60q-71 -55 -172 -102
l-6 14q92 62 138 99q6 5 11 9q-61 40 -124 71z" />
  </g>

</svg>
