<?xml version="1.0" standalone="no"?>
<!DOCTYPE svg PUBLIC "-//W3C//DTD SVG 1.1//EN" "http://www.w3.org/Graphics/SVG/1.1/DTD/svg11.dtd" >
<svg xmlns="http://www.w3.org/2000/svg" xmlns:xlink="http://www.w3.org/1999/xlink" version="1.1" viewBox="0 0 2048 2048">
  <g transform="matrix(1 0 0 -1 0 2048)">
   <path fill="currentColor"
d="M1309 1177q-55 -91 -109 -159l-34 25q79 144 120 261q47 140 73 297l110 -29q63 -17 63 -45q0 -22 -50 -32l-40 -9q-27 -85 -54 -149l273 1q-15 20 -26 59q-19 70 -109 173l26 27q169 -125 180 -205q4 -29 -16 -54h35l80 80l112 -86q21 -15 16 -33q-6 -19 -25 -19h-245
v-292h44l79 81l113 -86q20 -16 15 -33q-6 -19 -25 -19h-226v-288h55l79 80l113 -85q21 -16 16 -34q-6 -19 -26 -19l-237 1v-327h66l80 81l113 -86q21 -16 15 -34t-25 -18l-534 1v-80q0 -60 -70 -54q-44 4 -41 50q1 18 4 45q12 107 12 209v804zM1404 1280v-291l191 -1v292
h-191zM1404 932v-289h191v288zM1404 259h191v327h-191v-327zM1294 1706q-17 21 -28 60q-22 74 -115 159l25 26q88 -59 125 -91q53 -46 62 -96q5 -31 -21 -58h372l79 81l114 -86q20 -16 15 -33q-5 -19 -26 -19h-993q-68 0 -148 -11l-39 86q122 -18 187 -18h391zM923 1603
l91 -34q66 -25 62 -53q-3 -20 -34 -23l-60 -5q-99 -212 -213 -362q122 11 249 26q10 22 15 34q17 41 38 101q13 38 22 58l106 -53q32 -16 29 -36q-2 -21 -31 -21h-38q-91 -202 -170 -313q-99 -137 -227 -266q36 7 54 11q104 20 263 63q23 95 31 196l102 -27q58 -15 57 -42
q-1 -19 -45 -30l-30 -8q-6 -26 -22 -101q-88 -420 -499 -624l-17 37q165 101 258 222q93 120 149 313q-25 -10 -117 -52q-114 -41 -153 -56l-5 -34q-7 -45 -34 -24q-9 7 -19 27l-55 113q186 185 310 449q-66 -24 -190 -53l-4 -24q-6 -35 -23 -38q-22 -4 -37 38l-38 102
q156 247 225 489zM363 1502q-137 -107 -303 -198l-18 36q149 92 280 228q-54 92 -186 269l30 22q148 -161 203 -237q86 98 115 138q40 55 101 170l77 -41q71 -38 61 -67q-6 -17 -58 -20l-34 -6q-145 -173 -220 -241q115 -199 155 -368q48 -209 48 -563q0 -152 -29 -319
q-35 -208 -245 -246q-23 62 -45 79q-59 46 -169 68l10 45q48 -11 134 -37q42 -13 78 -19q97 -16 134 100q37 118 37 380q0 224 -14 375q-112 -151 -235 -254q-75 -62 -200 -141l-24 34q148 118 225 202q99 108 209 291q-23 102 -40 149q-17 48 -77 171z" />
  </g>

</svg>
