<?xml version="1.0" standalone="no"?>
<!DOCTYPE svg PUBLIC "-//W3C//DTD SVG 1.1//EN" "http://www.w3.org/Graphics/SVG/1.1/DTD/svg11.dtd" >
<svg xmlns="http://www.w3.org/2000/svg" xmlns:xlink="http://www.w3.org/1999/xlink" version="1.1" viewBox="0 -205 1024 1024">
  <g transform="matrix(1 0 0 -1 0 819)">
   <path fill="currentColor"
d="M652 574v-483q4 -60 -75 -69q6 22 -23 32q-16 5 -58 16l-12 3l4 14q85 -15 100 -15q16 0 23 6q8 6 7 74v148h-15q-42 -84 -121 -141q-84 -59 -172 -94l-6 14q77 40 150 95q69 53 109 126h-135q-27 1 -45 -13l-34 29h84v265q3 17 -25 45l10 13l45 -40h23l10 17
q24 44 23 57t-9 20l8 7l58 -18q11 -10 1 -15q-15 2 -25 -9q-24 -36 -45 -59h95l30 31l36 -30q9 -6 9 -11q0 -4 -9 -8zM351 916q3 -12 -7 -12q-12 2 -30 -12q-42 -63 -79 -108q32 -49 54 -107q49 -123 46 -310q-1 -75 -19 -155q-17 -76 -59 -114q-41 -37 -85 -53
q-3 50 -120 64l2 18q90 -14 128 -15q38 -2 65 36q27 35 38 109q11 75 11 142t-3 107q-1 3 -1 8q-1 6 -1 9q-28 -45 -57 -79q-36 -44 -76 -82q-39 -37 -117 -96l-10 12q129 118 188 201q25 35 61 99q-2 12 -9 39q-3 10 -4 15q-19 68 -52 128q-9 -9 -17 -18q-52 -54 -155 -129
l-7 11q99 91 142 142q4 4 10 12q7 8 10 12l-1 1q-47 73 -125 149l10 14q90 -82 134 -141q20 27 36 52q31 48 29 59v1q-1 10 -5 21l8 6zM948 296q0 -135 -7 -165q-7 -32 -17 -50q-19 -37 -93 -55q-4 23 -31 34q-42 13 -85 23l4 16q50 -11 93 -16q83 -13 92 66q6 32 6 161
h-157l-9 -30l-47 37q14 9 27 24l12 134q-4 17 -20 36l14 9l39 -40h107v132h-107q-18 2 -38 -14l-35 34h164l35 37l43 -45q7 -6 6 -10t-10 -6l-20 -8v-68l4 -69q0 -31 -42 -31v28h-104l-14 -130h142l27 30l45 -43q5 -9 -6 -11zM431 896q-1 -16 -1 -34h494l21 27l51 -44
q6 -9 -8 -11q-16 11 -55 -37q-19 -21 -32 -35l-13 4l42 76h-500v-18q-1 -72 -48 -89q-19 -7 -27 11q-7 18 10 27t30 31q14 22 21 92h15zM618 492h-151v-82h151v82zM618 396h-151v-80h151v80zM467 506h151v77h-151v-77zM543 818l62 -28q7 -5 6 -8q0 -4 -8 -5q-21 1 -40 -16
q-113 -81 -194 -103l-6 10q151 86 176 126q0 5 -3 18zM715 797l4 15q77 -19 113 -33q36 -13 63 -34q45 -41 8 -56q-15 -1 -28 17q-12 20 -50 42q-37 24 -110 49zM585 991l6 11q55 -22 76 -37t32 -31q21 -43 -14 -52q-17 0 -19 17q-1 18 -20 40q-18 23 -61 52z" />
  </g>

</svg>
