<?xml version="1.0" standalone="no"?>
<!DOCTYPE svg PUBLIC "-//W3C//DTD SVG 1.1//EN" "http://www.w3.org/Graphics/SVG/1.1/DTD/svg11.dtd" >
<svg xmlns="http://www.w3.org/2000/svg" xmlns:xlink="http://www.w3.org/1999/xlink" version="1.1" viewBox="0 -205 1024 1024">
  <g transform="matrix(1 0 0 -1 0 819)">
   <path fill="currentColor"
d="M668 73q-210 -18 -246 -22q-36 -5 -50 -24l-40 52l300 17v89h-189v-23q1 -24 -43 -32q6 34 7 89v92q-3 12 -17 26l16 11l29 -26h197v50q3 17 -19 32l6 11l74 -24q6 -2 7 -6q0 -3 -6 -5q-16 -4 -26 -18v-40h167l31 25l42 -29q7 -6 5 -10q-1 -5 -11 -7l-12 -9v-60l6 -54
q-6 -16 -42 -19v26h-186v-87l203 11q-25 18 -72 40l5 10q139 -37 156 -94q5 -26 -12 -30q-16 -6 -27 16q-10 19 -29 40zM504 921l58 -33q7 -5 7 -9q0 -3 -7 -5q-31 -5 -36 -8q-2 -1 -20 -15q-16 -11 -27 -19q-19 -13 -49 -30l6 -4h197v132h-210q-27 1 -45 -13l-34 33h539
l32 40l68 -50q8 -5 7 -8q-2 -2 -13 -2h-308v-132h179l18 25l38 -31q9 -6 9 -11q0 -4 -9 -8l-8 -11v-273q2 -62 -8 -86t-62 -32q-2 33 -35 38q-4 1 -12 2q-21 4 -57 11l2 16q88 -15 112 -13t24 50v307h-191v-283l2 -23q1 -39 -45 -40q5 33 7 110v236h-190v-277l2 -93
q3 -25 -45 -38q5 31 7 118v297q-38 -19 -85 -36l-6 12q103 56 145 91q38 33 39 41q3 9 -4 18zM329 923q3 -12 -7 -12q-12 2 -30 -12q-39 -61 -73 -108q32 -49 54 -107q75 -204 25 -466q-16 -75 -57 -113q-41 -37 -85 -53q-4 47 -110 64l2 18q80 -16 118 -16q80 2 103 146
q11 75 11 142t-3 107q-1 10 -3 22q-29 -47 -52 -79q-28 -39 -61 -77q-32 -37 -104 -90l-10 12q101 91 160 190q11 17 44 77q8 14 12 22q-4 22 -12 49q-19 68 -52 128q-10 -13 -21 -24q-52 -56 -127 -115l-7 11q73 75 115 126q14 15 24 30q-46 70 -127 152l10 14
q91 -84 134 -142q18 25 32 49q31 53 29 63v1q-1 10 -5 21l8 6zM632 306h-189v-106h189v106zM668 200h186v106h-186v-106zM562 595l42 -20q17 -10 7 -15q-12 -1 -19 -5l-24 -33q25 -17 35 -35q12 -21 -3 -30q-14 -8 -28 16q-9 15 -22 27q-40 -48 -84 -82l-8 9q44 54 70 91
q-24 17 -69 39l7 10q45 -13 76 -29q7 11 15 24q1 2 2 3q6 11 -6 22zM732 901l4 15q89 -17 129 -34q41 -16 72 -39q28 -20 37 -45t-9 -32q-16 -5 -33 17q-16 23 -57 54q-41 32 -143 64zM562 759l42 -20q17 -10 7 -15q-12 -1 -19 -5l-24 -33q25 -17 35 -35q12 -21 -3 -30
q-14 -8 -28 16q-9 15 -23 28q-39 -45 -79 -73l-8 9q41 44 66 81q-24 17 -69 39l7 10q45 -13 76 -29q7 11 15 24q1 2 2 3q6 11 -6 22zM790 763l42 -20q17 -10 7 -15q-12 -1 -19 -5q-12 -15 -24 -29q25 -17 35 -35q12 -21 -3 -30q-14 -8 -28 16q-10 16 -24 28q-40 -42 -78 -63
l-8 9q35 35 63 69l2 2q-24 17 -68 39l7 10q45 -13 76 -30q14 18 17 24q6 11 -6 26zM796 603l40 -20q17 -10 7 -15q-12 -1 -19 -5q-4 -4 -14 -13l-14 -14q30 -19 41 -39q12 -21 -3 -30q-14 -8 -28 16q-12 20 -30 35q-43 -37 -82 -58l-8 9q38 33 69 63q-23 15 -62 35l7 10
q42 -12 73 -28q16 17 20 24q6 11 -6 22z" />
  </g>

</svg>
