<?xml version="1.0" standalone="no"?>
<!DOCTYPE svg PUBLIC "-//W3C//DTD SVG 1.1//EN" "http://www.w3.org/Graphics/SVG/1.1/DTD/svg11.dtd" >
<svg xmlns="http://www.w3.org/2000/svg" xmlns:xlink="http://www.w3.org/1999/xlink" version="1.1" viewBox="0 -204 1024 1024">
  <g transform="matrix(1 0 0 -1 0 820)">
   <path fill="currentColor"
d="M51 846q44 -12 118 -12h106l43 49q37 -26 69 -52q8 -4 8 -10q0 -15 -14 -15h-141v-243h35l41 45q34 -26 65 -49q6 -4 6 -11q0 -14 -13 -14h-134v-264q13 4 25 8q53 21 126 54l4 -21q-56 -38 -101 -61q-47 -24 -91 -44q-40 -18 -84 -31q-11 -37 -19 -37t-49 84
q64 9 113 23q13 3 29 10v279h-17q-71 -2 -96 -6l-21 46q44 -11 117 -11h17v243h-24q-72 -2 -97 -7zM456 928l15 -3q3 -22 3 -43h419l30 32q34 -26 62 -54q3 -3 3 -6q0 -8 -18 -12q-17 -4 -32 -7q-16 -38 -41 -77q-24 -44 -48 -76l-19 12q26 44 41 84q16 40 24 77h-421
q-1 -34 -5 -65q-4 -36 -13 -60q-7 -21 -19 -34q-9 -14 -17 -19q-9 -5 -17 -5q-29 0 -29 22q0 9 11 25q29 38 41 67q12 25 20 58q8 31 10 84zM500 685l56 -38h169l27 37q34 -23 54 -42q5 -8 5 -14t-7 -12q-12 -10 -29 -16v-458q0 -14 6 -24q3 -9 17 -14q14 -2 57 -2
q32 0 56 3q11 1 16 11q5 8 8 29q4 28 9 131l20 -3v-114q0 -16 6 -26q8 -13 21 -20q8 -4 8 -13q0 -4 -3 -11q-5 -11 -19 -18q-16 -8 -46 -10q-35 -4 -62 -4q-52 0 -76 4q-25 1 -37 8q-16 6 -23 21q-6 13 -6 22v506h-175v-166q0 -65 -10 -124q-5 -52 -26 -104q-14 -42 -39 -79
q-22 -34 -58 -64q-32 -25 -85 -53l-16 11q39 23 67 51q28 23 46 52q22 30 38 68q15 49 23 98q12 63 12 144q1 146 -4 233z" />
  </g>

</svg>
