<?xml version="1.0" standalone="no"?>
<!DOCTYPE svg PUBLIC "-//W3C//DTD SVG 1.1//EN" "http://www.w3.org/Graphics/SVG/1.1/DTD/svg11.dtd" >
<svg xmlns="http://www.w3.org/2000/svg" xmlns:xlink="http://www.w3.org/1999/xlink" version="1.1" viewBox="0 -205 1024 1024">
  <g transform="matrix(1 0 0 -1 0 819)">
   <path fill="currentColor"
d="M899 697q8 -11 -6 -13q-18 2 -30 -12q-150 -148 -282 -218q-23 -13 -47 -24l7 -8h319l29 35l52 -43q7 -6 5 -10q-1 -5 -11 -7l-18 -9v-213l4 -90q7 -41 -48 -44v68h-325v-21q3 -47 -51 -54q6 60 7 143v239q-92 -41 -181 -62l-4 18q235 81 409 234q93 83 100 96q7 14 4 31
l10 6zM548 129h325v273h-325v-273zM39 894h308l31 42l66 -50q11 -7 8 -10q-2 -3 -19 -2h-178v-300h66l31 42l66 -50q11 -7 8 -10q-2 -3 -19 -2h-152v-316l165 58l8 -18q-164 -74 -230 -101t-81 -37q-15 -11 -31 -33l-46 56l171 60v331h-85q-27 1 -45 -13l-34 33h164v300h-93
q-27 1 -45 -13zM640 987l85 -32q14 -5 6 -11q-21 -10 -30 -21v-223l2 -57q3 -35 -53 -44q5 37 7 124v210q2 17 -26 42zM519 864l66 -32q6 -4 5 -7q0 -4 -7 -8q-9 1 -21 -7q-76 -132 -159 -201l-10 12q105 146 128 211q1 9 -7 23zM790 861l8 15q122 -50 167 -109
q37 -57 -1 -75q-16 -3 -33 32q-16 36 -54 70q-37 35 -87 67z" />
  </g>

</svg>
