<?xml version="1.0" standalone="no"?>
<!DOCTYPE svg PUBLIC "-//W3C//DTD SVG 1.1//EN" "http://www.w3.org/Graphics/SVG/1.1/DTD/svg11.dtd" >
<svg xmlns="http://www.w3.org/2000/svg" xmlns:xlink="http://www.w3.org/1999/xlink" version="1.1" viewBox="0 0 2048 2048">
  <g transform="matrix(1 0 0 -1 0 2048)">
   <path fill="currentColor"
d="M372 454v608h-40q-117 0 -192 -8l-38 88q96 -22 230 -22h40v523h-55q-117 0 -192 -8l-38 88q95 -22 230 -22h262l98 101l121 -107q20 -18 16 -33q-6 -19 -26 -19h-320l1 -523h76l98 101l121 -107q20 -18 15 -33q-6 -19 -26 -19h-284v-582q99 26 272 92l24 -49
q-177 -89 -534 -216l-22 -8l-5 -34q-8 -40 -27 -42q-23 -3 -46 41l-61 120q102 17 302 70zM1111 1660h665l68 76l83 -54q41 -26 41 -49q0 -27 -78 -61l-1 -246q0 -568 -5 -674q-20 -375 -129 -491q-74 -80 -234 -110q-14 66 -56 94q-31 20 -109 45q-37 11 -64 21l11 44
q181 -49 249 -49q134 0 177 136q32 99 52 288q5 47 10 257l4 201q0 60 -4 246q-2 90 -4 270h-712q-77 -113 -146 -184q-91 -95 -114 -111l-33 29q102 110 192 276q88 160 137 337l145 -54q33 -12 30 -36q-2 -24 -37 -30l-52 -9q-53 -108 -86 -162zM1527 723h-208l1 -164
l201 -1l84 84l106 -89q21 -17 16 -33q-6 -19 -26 -19l-381 -1v-49q0 -53 4 -88q3 -25 3 -44q0 -41 -56 -49q-44 -6 -44 27l1 204h-139q-117 0 -192 -8l-38 88q96 -23 230 -23h139v165h-199v-18q0 -27 -44 -31q-66 -5 -61 51l4 42q7 96 7 104l3 205q0 37 -13 143l121 -57h182
v106h-101q-108 0 -192 -8l-38 88q96 -23 230 -23h101q0 150 -9 198l100 -24q72 -17 75 -43q2 -19 -41 -37l-34 -14v-80h176l83 84l106 -89q21 -17 16 -33q-6 -19 -26 -19h-355v-106h199l63 69l72 -51q33 -23 35 -46q2 -26 -69 -56v-203q0 -48 7 -104q3 -26 3 -44
q0 -41 -56 -49q-51 -7 -48 25zM1527 977v128h-208v-128h208zM1527 917h-208v-134h208v134zM1228 1105h-199v-128h199v128zM1228 783v134h-199v-134h199z" />
  </g>

</svg>
