<?xml version="1.0" standalone="no"?>
<!DOCTYPE svg PUBLIC "-//W3C//DTD SVG 1.1//EN" "http://www.w3.org/Graphics/SVG/1.1/DTD/svg11.dtd" >
<svg xmlns="http://www.w3.org/2000/svg" xmlns:xlink="http://www.w3.org/1999/xlink" version="1.1" viewBox="0 0 2048 2048">
  <g transform="matrix(1 0 0 -1 0 2048)">
   <path fill="currentColor"
d="M1464 1294q-23 19 -40 53q-38 74 -155 151l14 27q240 -81 240 -175q0 -43 -39 -58l223 2l108 114l131 -114q27 -23 22 -39q-6 -18 -26 -18h-1664q-69 0 -149 -11l-39 86q126 -18 188 -18h702v246h-520q-69 0 -149 -10l-39 85q125 -17 188 -17h520v200h-608
q-67 0 -148 -10l-40 86q124 -18 188 -18h1288l99 102l120 -107q21 -19 16 -34q-6 -19 -26 -19h-794v-200h425l99 101l121 -107q20 -18 15 -33q-6 -19 -26 -19h-634v-246h389zM1760 284q-154 -42 -270 -63q-99 -19 -480 -79l-58 -10l-16 -43q-10 -30 -26 -27t-30 38l-52 130
q170 1 495 38l1 265h-277v-24q0 -35 -49 -29q-43 5 -43 23v360q0 33 -5 92q-3 39 -5 75l110 -87h269v88q0 118 -8 160l109 -24q83 -18 86 -43q3 -27 -51 -44l-40 -13l-3 -124h266l63 69l74 -51q33 -23 34 -46q3 -27 -68 -56v-247l29 -23q27 -21 26 -36q-1 -20 -18 -20h-406
v-254q179 19 317 43q-34 44 -117 119l22 26q313 -185 290 -318q-4 -18 -20 -33q-19 -16 -39 -14q-40 4 -61 73q-14 45 -49 109zM1324 886h-277v-297h277v297zM1417 886v-297h277v297h-277zM509 785h106l81 80l114 -86q20 -15 15 -33q-6 -19 -26 -19h-290l-1 -418
q167 30 333 78l8 -39q-121 -50 -344 -114q-98 -28 -180 -46q-79 -18 -111 -27q-9 -56 -35 -57q-19 -2 -44 52l-44 92q152 12 321 43v436h-131q-67 0 -148 -11l-39 86q121 -18 187 -18h131v218q0 50 -3 114q-1 20 -4 37l109 -24q83 -18 85 -43q4 -32 -49 -44l-40 -9z" />
  </g>

</svg>
