<?xml version="1.0" standalone="no"?>
<!DOCTYPE svg PUBLIC "-//W3C//DTD SVG 1.1//EN" "http://www.w3.org/Graphics/SVG/1.1/DTD/svg11.dtd" >
<svg xmlns="http://www.w3.org/2000/svg" xmlns:xlink="http://www.w3.org/1999/xlink" version="1.1" viewBox="0 -205 1024 1024">
  <g transform="matrix(1 0 0 -1 0 819)">
   <path fill="currentColor"
d="M943 843l-20 -64q-34 -103 -67 -195q34 -45 61 -90t41 -81q12 -38 11 -76q-3 -38 -15 -65q-13 -27 -31 -40t-57 -29q-11 37 -61 46v-88l4 -96q0 -21 -11 -31q-10 -9 -34 -15q4 39 7 189v678q-3 20 -17 35l16 13l28 -41h110l25 29l40 -46q16 -15 4 -18q-15 -3 -34 -15z
M627 351l9 10q71 -65 90 -110q19 -44 16 -71q-4 -26 -19 -28q-15 -1 -17 27q-3 26 -13 59q-36 -27 -74 -50q-6 -5 -17 -14q-19 -16 -32 -25q-14 -11 -23 -33l-38 50q16 8 26 24v593q-2 20 -16 45l4 8l32 -33h124l24 35l43 -43q7 -6 5 -10q-1 -5 -10 -7l-15 -9v-175l4 -131
q2 -27 -35 -36v39h-128v-275q50 32 118 69q-16 37 -58 91zM913 873h-108v-607q46 -12 68 -7q24 5 39 24q15 18 18 48q3 29 1 44q-3 17 -6 35q-4 18 -15 40q-12 22 -24 46q-7 13 -39 67q-7 12 -11 19q16 61 49 183q18 72 28 108zM287 24l-8 10q67 75 104 155q35 76 51 174
q2 8 2 15l-6 -2q-48 -15 -66 -25q-18 -9 -37 -27l-31 48q19 3 39 24q24 55 51 127q21 62 35 107l-19 -3q-39 -7 -57 -15q-19 -7 -30 -25l-29 48q19 5 31 24q24 59 43 119q2 5 4 15q14 46 27 85q11 41 8 47t-10 15l9 7l66 -38q6 -3 6 -6q1 -3 -4 -5q-24 -3 -34 -16
q-50 -138 -100 -241l95 9q12 43 11 49t-9 16l9 7l58 -38q6 -4 6 -7q1 -2 -4 -4q-19 -3 -28 -15q-60 -163 -118 -272l87 14q8 58 6 67q-2 11 -11 26l8 5l52 -23q21 -6 12 -13q-21 -5 -26 -20q-24 -175 -70 -268q-48 -92 -123 -150zM16 848h208l30 40l65 -50q7 -6 5 -9
q-1 -2 -11 -1h-129v-258h32l23 32l57 -42q7 -6 5 -9q-1 -2 -11 -1h-106v-259l115 56l5 -16l-113 -68q-10 -6 -27 -15q-42 -23 -60 -35q-17 -12 -28 -40l-50 42l118 57v278h-42q-25 0 -42 -13l-33 33h117v258h-57q-22 0 -39 -13zM695 627h-128v-141h128v141zM567 645h128v138
h-128v-138zM543 948l3 13q71 -25 94 -65q12 -22 8 -42q-3 -23 -16 -23q-10 1 -16 23q-15 57 -73 94z" />
  </g>

</svg>
