<?xml version="1.0" standalone="no"?>
<!DOCTYPE svg PUBLIC "-//W3C//DTD SVG 1.1//EN" "http://www.w3.org/Graphics/SVG/1.1/DTD/svg11.dtd" >
<svg xmlns="http://www.w3.org/2000/svg" xmlns:xlink="http://www.w3.org/1999/xlink" version="1.1" viewBox="0 0 2048 2048">
  <g transform="matrix(1 0 0 -1 0 2048)">
   <path fill="currentColor"
d="M1781 541q-31 -26 -69 -53v-262l42 -30q15 -12 19 -25q6 -25 -29 -25h-676v-37q0 -51 -66 -36q-35 8 -38 38q-1 11 4 91q4 72 4 129l-1 265q-157 -86 -254 -119l-19 34q201 99 332 214q158 137 267 331l128 -55q40 -17 43 -36q5 -27 -40 -30l-40 -3q97 -100 206 -170
q151 -98 393 -156l-4 -36q-50 -6 -66 -15q-22 -13 -39 -59q-43 17 -97 45zM1642 624q-90 64 -148 119q-37 36 -151 173q-178 -202 -336 -300l69 -40h528zM1068 203h548v316h-548v-316zM1657 1738h102l80 82l114 -86q21 -16 15 -34q-6 -19 -26 -19h-293l-22 -169
q-3 -27 -38 -30q-62 -8 -57 38l20 161l-17 1l-60 -4q-33 0 -59 -5l-38 86q68 -16 153 -20l28 -1l8 81q9 73 9 119l135 -33q32 -9 36 -31q4 -26 -38 -38l-42 -12zM978 1730l-6 64l-11 144l129 -15q45 -5 46 -26q2 -23 -26 -34l-46 -19l10 -114h51l87 83l103 -87
q20 -17 15 -34q-5 -19 -26 -19h-225l10 -146q3 -36 -53 -41q-39 -4 -42 30l-11 157h-55q-76 0 -146 -9l-38 88q119 -22 176 -22h58zM1351 1349q-14 8 -40 64q-39 86 -122 155l22 29q93 -54 138 -85q78 -54 78 -107q0 -43 -36 -56h404l57 69l93 -74q38 -30 38 -46
q0 -25 -42 -28l-41 -4q-33 -38 -50 -57q-60 -71 -104 -113l-24 21l24 54q32 74 49 124h-883q-4 -241 -104 -253q-31 -4 -51 17q-12 13 -12 30q0 24 25 50q63 67 80 129q17 65 23 176l39 1v-96h439zM1175 1123q-95 -107 -177 -165q-61 -43 -183 -102l-19 35q115 73 194 162
q42 46 129 196l112 -61q29 -16 31 -33q4 -24 -39 -28zM1437 1232q53 -31 80 -46q156 -87 220 -140q79 -66 83 -128q2 -26 -16 -45t-42 -17q-26 1 -48 39q-66 111 -147 184q-51 46 -150 119zM342 565v555h-55q-87 0 -161 -8l-38 88q96 -23 199 -23h55v472h-59l-98 -4
q-36 0 -71 -4l-38 88q95 -23 203 -23h197l98 101l121 -106q20 -18 15 -34q-5 -18 -25 -18h-247v-472h43l99 102l120 -107q20 -18 16 -33q-6 -19 -26 -19h-252v-530q161 47 291 96l19 -36q-198 -110 -534 -224l-10 -42q-8 -30 -25 -32q-11 -1 -29 32l-69 130q134 20 261 51z
" />
  </g>

</svg>
