<?xml version="1.0" standalone="no"?>
<!DOCTYPE svg PUBLIC "-//W3C//DTD SVG 1.1//EN" "http://www.w3.org/Graphics/SVG/1.1/DTD/svg11.dtd" >
<svg xmlns="http://www.w3.org/2000/svg" xmlns:xlink="http://www.w3.org/1999/xlink" version="1.1" viewBox="0 0 2048 2048">
  <g transform="matrix(1 0 0 -1 0 2048)">
   <path fill="currentColor"
d="M1395 728q-19 17 -37 36q-14 15 -27 27q-89 -45 -223 -73l-9 34q106 44 170 88q-67 46 -141 81l14 31q27 -9 40 -13q74 -23 146 -53q34 32 70 84l86 -40q42 -19 42 -40q0 -22 -44 -26l-40 -4l-26 -18q47 -37 47 -67q0 -10 -4 -27q18 -3 27 -4q21 -4 44 -4q46 0 46 56
l-1 482h-503v-326q0 -107 13 -219q3 -28 3 -54q0 -38 -49 -42q-63 -4 -63 42l2 599h-501v-627q0 -60 -69 -54q-45 4 -42 50q0 17 3 45q12 108 12 209l-1 431q-35 -10 -186 -36l-7 38q120 32 197 68q91 43 162 111l30 -20l-37 86q97 -23 230 -23h482l94 79l125 -84
q21 -15 15 -34q-5 -19 -26 -19h-387v-166h490l52 64l72 -50q37 -25 41 -43q7 -28 -55 -51l-2 -508q0 -122 -142 -143q1 61 -39 85q-28 18 -96 32zM580 1491l38 -26q49 -33 44 -53q-7 -26 -50 -20l-39 6q-95 -36 -118 -43l48 -23h475v166h-276h-16q-90 -6 -106 -7zM1070 1860
q150 -93 358 -163q274 -91 546 -104l3 -34q-76 -4 -104 -30q-15 -14 -33 -46q-482 101 -824 356l-8 -6q-321 -242 -899 -361l-11 36q348 82 577 214q215 125 308 251l123 -49q34 -14 31 -36q-4 -19 -59 -25zM1305 1165q41 40 82 104l85 -39q42 -20 42 -40q0 -23 -44 -27
l-40 -4q-20 -16 -41 -32q69 -40 74 -87q3 -20 -9.5 -37t-30.5 -18q-24 -2 -68 47q-13 14 -43 41q-86 -50 -219 -83l-10 34q107 50 168 96q-59 39 -138 77l14 31q28 -9 41 -13q72 -23 137 -50zM817 1132q69 -40 75 -86q2 -20 -10.5 -37t-30.5 -19q-23 -2 -68 48
q-13 14 -43 41q-84 -49 -219 -83l-10 34q104 48 168 95q-58 40 -138 78l15 31q27 -9 41 -13q73 -24 137 -50q41 39 81 104l86 -40q42 -19 42 -40q0 -23 -44 -27l-40 -3q-21 -16 -42 -33zM829 833q69 -40 74 -87q3 -19 -9.5 -36t-30.5 -19q-24 -2 -68 47q-13 15 -43 41
q-87 -49 -220 -82l-9 34q107 49 168 95q-59 40 -138 78l14 31q27 -9 41 -14q65 -20 137 -49q41 38 82 104l85 -40q42 -19 42 -40q0 -23 -44 -27l-40 -3q-20 -17 -41 -33zM1452 199q-8 8 -17 19q-29 39 -54 53l-93 37l7 30q250 -26 230 -115q-2 -9 -12 -24h220l108 114
l131 -112q27 -23 22 -40q-6 -19 -26 -19h-1645q-117 0 -192 -8l-38 88q97 -23 230 -23h660v141h-478q-118 0 -192 -8l-38 88q99 -23 230 -23h478v121h-565q-117 0 -192 -8l-39 88q96 -22 231 -22h1245l99 101l120 -107q21 -18 16 -33q-6 -19 -26 -19h-794v-121h425l99 102
l121 -107q20 -18 15 -34q-6 -18 -26 -18h-634v-141h374zM1449 1491q155 -17 264 -46q117 -30 124 -88q2 -17 -9.5 -32.5t-27.5 -17.5q-20 -1 -97 47q-43 27 -159 69q-63 23 -104 32z" />
  </g>

</svg>
