<?xml version="1.0" standalone="no"?>
<!DOCTYPE svg PUBLIC "-//W3C//DTD SVG 1.1//EN" "http://www.w3.org/Graphics/SVG/1.1/DTD/svg11.dtd" >
<svg xmlns="http://www.w3.org/2000/svg" xmlns:xlink="http://www.w3.org/1999/xlink" version="1.1" viewBox="0 0 2048 2048">
  <g transform="matrix(1 0 0 -1 0 2048)">
   <path fill="currentColor"
d="M551 567l-95 -317q114 11 334 30q43 3 275 37l12 -42q-263 -66 -692 -129q-7 -73 -31 -77q-26 -4 -53 77l-33 97l99 4l179 673h-239q-108 0 -192 -8l-38 88q96 -23 230 -23h1406l108 114l131 -112q27 -23 22 -41q-6 -18 -26 -18h-1296l-50 -174h747l68 76l84 -55
q40 -26 40 -48q0 -27 -78 -61l-34 -360q-6 -65 26 -80q32 -16 187 -16q163 0 187 39q20 31 44 210l6 46l31 -6l-5 -163q-1 -58 16 -81q5 -5 38 -33q16 -14 17 -29q5 -84 -382 -76q-172 4 -213 20q-68 26 -60 115l42 446l-776 2l-26 -91q167 -17 310 -50q230 -54 242 -126
q6 -40 -29 -53q-34 -13 -113 40q-154 103 -420 155zM1556 1570h-485v-327h610v101q0 120 -8 160l110 -24q82 -19 85 -44q3 -30 -49 -43l-43 -12v-81q0 -56 6 -100q3 -24 2 -41q-3 -37 -50 -40q-53 -4 -53 33v35h-1340q-10 -16 -31 -20q-61 -11 -61 43l1 134q0 116 -8 160
l109 -24q83 -19 86 -44q3 -29 -50 -43l-42 -12v-138h627v327h-490q-16 -12 -39 -14q-50 -5 -50 36l1 135q-4 144 -7 160l108 -24q83 -18 86 -44q3 -29 -49 -43l-43 -11v-138h483v169q0 118 -8 160l109 -24q83 -18 86 -44q3 -27 -50 -44l-37 -11l-1 -206h485v93q0 117 -8 160
l110 -24q82 -19 85 -44q3 -30 -49 -44l-42 -11l1 -83l5 -113q0 -47 -55 -47q-47 0 -47 24v32z" />
  </g>

</svg>
