<?xml version="1.0" standalone="no"?>
<!DOCTYPE svg PUBLIC "-//W3C//DTD SVG 1.1//EN" "http://www.w3.org/Graphics/SVG/1.1/DTD/svg11.dtd" >
<svg xmlns="http://www.w3.org/2000/svg" xmlns:xlink="http://www.w3.org/1999/xlink" version="1.1" viewBox="0 -205 1024 1024">
  <g transform="matrix(1 0 0 -1 0 819)">
   <path fill="currentColor"
d="M649 991l92 -43q7 -8 -4 -11q-20 0 -28 -8t-23 -70t-55 -175l-4 -12h277l28 36l64 -46q8 -5 7 -8q-2 -2 -13 -2h-126q-20 -145 -68 -263q-21 -52 -55 -100q38 -29 73 -59q62 -53 93 -103q32 -53 8 -75q-24 -23 -47 30q-22 52 -75 106q-34 35 -75 70q-37 -46 -86 -88
q-114 -98 -263 -133l-1 14q116 45 219 131q57 48 98 103q-2 2 -6 5q-4 4 -6 5q-68 52 -182 124q51 132 85 233h-63q-27 1 -45 -13l-34 33h149q23 72 38 128q36 139 33 152q-1 14 -15 28zM215 982l88 -34q14 -5 6 -11q-19 -4 -29 -18v-214h88l35 46l62 -52q9 -8 6 -11
q-2 -4 -17 -3h-174v-224h58l41 50l74 -56q11 -8 8 -11q-2 -4 -19 -3h-162v-257l215 37l2 -16l-280 -65l-96 -24q-30 -8 -58 -38l-40 64l211 34v265h-101q-27 1 -45 -13l-34 33h180v224h-121q-42 -130 -92 -183l-8 7q50 113 72 222q23 110 19 124q-4 15 -12 30l9 8l80 -36
q17 -10 7 -15q-19 2 -36 -18q-16 -66 -32 -119h114v224q2 17 -27 42zM619 652q-37 -102 -94 -229q88 -44 158 -92l23 -16q21 32 37 66q51 108 68 271h-192z" />
  </g>

</svg>
