<?xml version="1.0" standalone="no"?>
<!DOCTYPE svg PUBLIC "-//W3C//DTD SVG 1.1//EN" "http://www.w3.org/Graphics/SVG/1.1/DTD/svg11.dtd" >
<svg xmlns="http://www.w3.org/2000/svg" xmlns:xlink="http://www.w3.org/1999/xlink" version="1.1" viewBox="0 0 2048 2048">
  <g transform="matrix(1 0 0 -1 0 2048)">
   <path fill="currentColor"
d="M640 1661q-65 -68 -130 -117q-76 -58 -250 -154l-22 36q373 237 474 532l122 -34q52 -14 49 -43q-3 -23 -52 -28l-45 -4q-28 -44 -52 -76h597l66 74l95 -65q95 -65 -51 -101q-135 -166 -305 -287q350 -155 827 -197v-37q-62 -1 -92 -16q-28 -13 -46 -54l-87 21
q-408 95 -678 234q-295 -181 -936 -290l-13 40q67 15 101 23q524 121 767 270q-174 100 -339 273zM666 1690l34 -25q190 -148 350 -229q176 125 294 284l-652 -1q-14 -15 -26 -29zM1473 1026l68 76l84 -54q40 -26 40 -49q0 -27 -78 -61v-717q-1 -142 -155 -171
q-12 70 -48 93q-32 21 -159 43l8 46q140 -22 190 -26q67 -6 68 56l2 173h-417v-147v-36l4 -35q4 -61 4 -64q0 -47 -66 -47q-38 0 -38 30v299l-442 2q-30 -111 -77 -182q-61 -91 -181 -178l-23 30q210 221 208 549l-1 320q0 54 -9 120l115 -70h903zM549 493h431v211h-420v-71
q0 -72 -11 -140zM1076 704v-211h417v211h-417zM560 760h420v208h-420v-208zM1076 968v-208h417v208h-417z" />
  </g>

</svg>
