<?xml version="1.0" standalone="no"?>
<!DOCTYPE svg PUBLIC "-//W3C//DTD SVG 1.1//EN" "http://www.w3.org/Graphics/SVG/1.1/DTD/svg11.dtd" >
<svg xmlns="http://www.w3.org/2000/svg" xmlns:xlink="http://www.w3.org/1999/xlink" version="1.1" viewBox="0 0 2048 2048">
  <g transform="matrix(1 0 0 -1 0 2048)">
   <path fill="currentColor"
d="M1077 1717v-102q766 -207 795 -380q5 -25 -9.5 -43.5t-37.5 -17.5q-33 2 -105 68q-201 181 -643 325v-280q0 -106 13 -219q3 -28 3 -54q0 -38 -49 -41q-62 -4 -62 41l-1 608q-164 -155 -443 -298q-236 -121 -457 -174l-9 35q239 94 443 216q259 155 468 381h-592
q-117 0 -192 -8l-38 89q97 -23 230 -23l1269 1l106 103l126 -102q27 -22 21 -41q-5 -19 -25 -19h-752q-26 -31 -59 -65zM349 993l119 -60h1134l68 76l84 -54q40 -26 40 -49q0 -27 -79 -61v-478q0 -109 12 -219q3 -29 3 -54q0 -39 -49 -42q-62 -4 -62 42v51h-1177v-53
q0 -18 -20 -33q-17 -13 -46 -11q-44 4 -42 50q1 17 4 45q11 103 11 185v665zM1071 875v-298h548v298h-548zM1071 521v-319h548v319h-548zM442 202h533v319h-533v-319zM442 577h533v298h-533v-298z" />
  </g>

</svg>
