<?xml version="1.0" standalone="no"?>
<!DOCTYPE svg PUBLIC "-//W3C//DTD SVG 1.1//EN" "http://www.w3.org/Graphics/SVG/1.1/DTD/svg11.dtd" >
<svg xmlns="http://www.w3.org/2000/svg" xmlns:xlink="http://www.w3.org/1999/xlink" version="1.1" viewBox="0 0 2048 2048">
  <g transform="matrix(1 0 0 -1 0 2048)">
   <path fill="currentColor"
d="M897 1074l70 78l84 -54q40 -26 40 -49q0 -29 -85 -64v-550q0 -45 7 -104q3 -27 3 -44q0 -41 -57 -49q-48 -6 -48 25v64h-527v-88q-3 -26 -45 -24q-58 3 -58 58l8 286v464q-3 86 -16 139l122 -88h502zM602 1019h-218v-278h218v278zM692 1019v-278h219v278h-219zM602 685
h-218v-302h218v302zM692 685v-302h219v302h-219zM1530 1843q317 -140 326 -282q3 -37 -19 -50q-52 -28 -89 50q-70 148 -236 256zM1497 633q161 208 263 473l95 -50q46 -23 61 -36q18 -15 10 -35q-8 -19 -53 -19h-47q-152 -269 -282 -425q49 -77 129 -167q120 -133 152 -129
q38 5 72 127q42 153 54 195l32 -16q-8 -55 -33 -205q-12 -68 -12 -103q0 -74 34 -121q12 -15 16 -26q14 -43 -46 -38q-35 2 -115 42q-101 49 -236 213q-67 81 -113 154q-127 -137 -253 -225q-122 -84 -329 -166l-23 46q318 149 555 425q-71 135 -113 334q-24 113 -39 236
q-10 79 -15 112h-961q-135 0 -192 -8l-38 88q92 -26 230 -26h311v323h-196q-123 0 -195 -7l-37 87q92 -21 232 -21h196v126q-5 138 -9 160l110 -24q82 -18 85 -43q4 -28 -49 -44l-40 -11v-164h184l96 110l144 -110q13 -11 16 -25q8 -34 -30 -34h-410v-323h548q-2 42 -14 211
q-8 121 -7 281q0 102 -6 171l133 -29q87 -20 65 -57q-8 -11 -33 -20l-55 -17q-2 -74 -2 -122q0 -187 19 -418h372l92 114l143 -110q18 -13 19 -28q1 -30 -35 -30h-585q3 -28 13 -125q26 -254 122 -471z" />
  </g>

</svg>
