<?xml version="1.0" standalone="no"?>
<!DOCTYPE svg PUBLIC "-//W3C//DTD SVG 1.1//EN" "http://www.w3.org/Graphics/SVG/1.1/DTD/svg11.dtd" >
<svg xmlns="http://www.w3.org/2000/svg" xmlns:xlink="http://www.w3.org/1999/xlink" version="1.1" viewBox="0 -205 1024 1024">
  <g transform="matrix(1 0 0 -1 0 819)">
   <path fill="currentColor"
d="M528 512l32 -32h303l33 33l42 -39q7 -6 5 -10q-1 -5 -11 -7l-16 -9v-261l6 -77q-1 -25 -44 -27v46h-309v-27q4 -37 -45 -44q5 37 7 132v277q-3 20 -17 34zM90 508l26 -28h279l27 29l40 -35q7 -6 5 -10q-1 -5 -11 -7l-12 -9v-261l6 -77q-1 -25 -44 -27v46h-281v-27
q4 -37 -45 -44q5 37 7 132v277q-3 20 -11 30zM544 958l32 -34h263l33 31l44 -37q7 -6 5 -10q-1 -5 -11 -7l-18 -9v-224l6 -81q-1 -25 -44 -27v38h-269v-19q4 -37 -45 -44q5 37 7 184v192q-3 20 -17 36zM96 958l32 -34h255l29 29l38 -35q7 -6 5 -10q-1 -5 -11 -7l-12 -9v-224
l6 -81q-1 -25 -44 -27v38h-257v-19q2 -27 -45 -36q5 37 7 176v192q-3 20 -17 36zM706 300h-137v-153h137v153zM878 300h-138v-153h138v153zM248 300h-123v-153h123v153zM706 462h-137v-146h137v146zM740 316h138v146h-138v-146zM248 462h-123v-146h123v146zM406 300h-124
v-153h124v153zM282 316h124v146h-124v-146zM702 906h-117v-138h117v138zM702 752h-117v-136h117v136zM736 768h118v138h-118v-138zM248 906h-111v-138h111v138zM854 752h-118v-136h118v136zM248 752h-111v-136h111v136zM282 768h112v138h-112v-138zM394 752h-112v-136h112
v136z" />
  </g>

</svg>
