<?xml version="1.0" standalone="no"?>
<!DOCTYPE svg PUBLIC "-//W3C//DTD SVG 1.1//EN" "http://www.w3.org/Graphics/SVG/1.1/DTD/svg11.dtd" >
<svg xmlns="http://www.w3.org/2000/svg" xmlns:xlink="http://www.w3.org/1999/xlink" version="1.1" viewBox="0 0 2048 2048">
  <g transform="matrix(1 0 0 -1 0 2048)">
   <path fill="currentColor"
d="M878 1366h698l98 101l121 -107q20 -18 15 -33q-5 -19 -26 -19h-943q-120 -160 -261 -269l-26 30q108 108 204 290q64 120 99 253l119 -35q51 -15 51 -42q0 -25 -40 -32l-43 -7q-31 -69 -66 -130zM489 1640l-1 -500q-5 -265 -18 -380q-53 -468 -334 -706l-27 26
q147 172 217 417q47 165 68 492q-7 -8 -215 -234v-46q0 -44 -26 -41q-16 2 -31 23l-86 119q153 64 358 239v433q0 128 -7 292l111 -74h631q-14 26 -22 66q-19 86 -99 176l23 27q90 -63 127 -98q57 -55 57 -109q0 -37 -25 -62h533l109 113l130 -113q27 -23 22 -40
q-5 -19 -26 -19zM1526 796l-708 2q-68 0 -149 -11l-39 86q121 -18 188 -18h697l62 71l72 -49q36 -25 41 -44q5 -20 -25 -37q-6 -4 -13 -7q-9 -4 -27 -14q13 -214 61 -338q42 -109 98 -165q41 -43 61 -36q25 8 98 295l40 -16q-36 -166 -44 -238q-10 -89 8 -139q8 -22 11 -35
q5 -19 -4 -34q-9 -16 -28 -16q-52 0 -144 77q-134 113 -196 292q-37 108 -60 374zM1473 1119l99 102l120 -107q21 -18 16 -34q-6 -18 -26 -18h-749q-69 0 -149 -11l-39 86q125 -18 188 -18h540zM90 1526q269 -178 244 -306q-11 -58 -56 -54q-37 4 -52 74q-18 84 -65 152
q-20 30 -94 111z" />
  </g>

</svg>
