<?xml version="1.0" standalone="no"?>
<!DOCTYPE svg PUBLIC "-//W3C//DTD SVG 1.1//EN" "http://www.w3.org/Graphics/SVG/1.1/DTD/svg11.dtd" >
<svg xmlns="http://www.w3.org/2000/svg" xmlns:xlink="http://www.w3.org/1999/xlink" version="1.1" viewBox="0 -200 1000 1000">
  <g transform="matrix(1 0 0 -1 0 800)">
   <path fill="currentColor"
d="M473 27q-34 -22 -53 -22q-2 0 -3 0.5t-2 0.5v356l63 -31h319l35 45l56 -51l-31 -44v-190h-384v-64zM473 286v-172h325v193h-314zM592 650q-14 -69 -36 -122.5t-55 -92.5t-78 -65t-105 -40l-1 7q64 33 106 76t67 88t35 89t10 80v9h-92l-70 -12l-29 33h499l43 44l54 -55
l-34 -36q-13 -42 -21 -82t-21.5 -73t-38 -56t-69.5 -30q-17 29 -41 47.5t-59 32.5v4q30 -8 56 -15.5t43 -7.5q26 0 42.5 21.5t26 53t14.5 67t8 64.5h-234zM546 914l-14 87l93 -32l-22 -65v-34h222l50 54l82 -78h-703l75 -35l-18 -73q2 -54 3 -100.5t1 -89.5
q0 -97 -5.5 -169.5t-16.5 -126.5t-28 -93t-40.5 -68t-54 -51.5t-67.5 -43.5l-9 4q37 35 65.5 69.5t48.5 81.5t32 112.5t17 162.5l-159 -159l-54 58q15 5 38 17t51 28.5t58.5 35.5t59.5 38l6 -15v417h-19l-70 -17l-18 40h396v45zM182 498q-8 -7 -17.5 -12t-16.5 -5
q-15 2 -20 18.5t-12 42.5t-21.5 58.5t-49.5 66.5l4 6q76 -42 110.5 -75.5t34.5 -68.5v-4q0 -17 -12 -27z" />
  </g>

</svg>
