<?xml version="1.0" standalone="no"?>
<!DOCTYPE svg PUBLIC "-//W3C//DTD SVG 1.1//EN" "http://www.w3.org/Graphics/SVG/1.1/DTD/svg11.dtd" >
<svg xmlns="http://www.w3.org/2000/svg" xmlns:xlink="http://www.w3.org/1999/xlink" version="1.1" viewBox="0 0 2048 2048">
  <g transform="matrix(1 0 0 -1 0 2048)">
   <path fill="currentColor"
d="M118 1510q269 -176 245 -305q-11 -58 -56 -54q-38 4 -53 74q-18 83 -64 152q-22 32 -94 111zM526 1682h631q-14 27 -22 66q-19 87 -99 177l23 27q91 -63 127 -98q57 -56 57 -109q0 -37 -25 -63h533l109 114l130 -112q27 -23 22 -40q-5 -19 -26 -19l-1467 -2l-3 -499
q-4 -432 -67 -634q-88 -285 -285 -453l-27 27q142 166 212 391q53 170 73 517q-4 -5 -215 -234l-1 -46q-1 -44 -25 -41q-16 3 -31 23l-86 119q152 63 358 239l-1 433q0 127 -6 292zM1268 675v-313q0 -108 10 -209q3 -27 3 -54q0 -38 -49 -42q-63 -4 -62 42v538
q-125 -155 -278 -265q-141 -102 -399 -203l-20 36q255 132 390 249q140 121 238 268h-242v-35q0 -60 -69 -54q-45 4 -43 49q1 18 4 46q12 104 12 209v145q-2 64 -11 124l116 -76h302v182h-372q-108 0 -192 -8l-38 89q96 -23 230 -23h372v67q0 114 -9 160l107 -24
q85 -19 88 -44q4 -28 -49 -43l-39 -12v-104h418l99 101l120 -106q21 -18 16 -34q-6 -19 -26 -19h-627v-182h300l68 76l84 -54q40 -26 40 -49q0 -27 -79 -61v-239q57 -43 53 -65q-2 -16 -22 -16h-415q238 -294 680 -405l-4 -34q-68 -2 -97 -20q-25 -15 -42 -58
q-357 159 -566 470zM1268 1074v-297h316v297h-316zM1170 777v297h-311v-297h311z" />
  </g>

</svg>
