<?xml version="1.0" standalone="no"?>
<!DOCTYPE svg PUBLIC "-//W3C//DTD SVG 1.1//EN" "http://www.w3.org/Graphics/SVG/1.1/DTD/svg11.dtd" >
<svg xmlns="http://www.w3.org/2000/svg" xmlns:xlink="http://www.w3.org/1999/xlink" version="1.1" viewBox="0 0 2048 2048">
  <g transform="matrix(1 0 0 -1 0 2048)">
   <path fill="currentColor"
d="M856 1304q-143 -119 -240 -166l-19 33q125 91 205 193q67 88 132 236l129 -53q36 -15 32 -36q-3 -24 -35 -28l-61 -7q-19 -25 -47 -64q-20 -27 -38 -51h636l69 80l76 -53q52 -37 48 -58q-3 -23 -73 -52l-1 -183h79l99 95l108 -100q20 -19 16 -34q-6 -18 -26 -18h-275
v-178q40 -25 47 -30q24 -22 12 -43q-8 -15 -30 -15l-807 1q-69 0 -149 -11l-39 86q124 -18 188 -18l680 1v207h-871q-67 0 -149 -11l-39 86q121 -18 188 -18h872l-1 209h-716zM92 1526q269 -178 244 -306q-11 -58 -56 -54q-38 4 -52 74q-18 83 -65 152q-22 32 -94 111z
M838 667l106 -24q82 -19 85 -43q3 -26 -50 -44l-41 -14l-2 -227q0 -89 54 -98q47 -9 265 -9q163 0 232 7q40 4 54 16q20 17 29 69l36 204l32 -6l-5 -163q-2 -58 16 -81q4 -5 37 -33q16 -14 17 -29q3 -48 -109 -64q-93 -13 -324 -13q-235 0 -308 8q-119 12 -119 128v280
q0 108 -5 136zM668 601l38 -4q-8 -131 -43 -234q-54 -163 -147 -167q-23 -1 -40 16q-14 14 -14 33q0 32 54 70q75 52 114 138q21 46 38 148zM1686 621q28 -23 43 -35q221 -178 213 -309q-3 -61 -51 -63q-32 -2 -45 32q-3 7 -19 73q-20 86 -73 165q-23 34 -93 116zM1147 731
q122 -53 181 -90q106 -67 106 -147q0 -25 -21 -41t-42 -8q-26 9 -65 83q-43 84 -178 177zM500 1699h631q-15 26 -24 66q-22 89 -109 177l23 23q91 -57 135 -97q61 -54 61 -106q0 -37 -25 -63l530 -2l99 99l128 -95q28 -20 22 -41q-5 -18 -26 -18l-1457 -2l-2 -507l2 -107
q0 -674 -350 -972l-27 26q146 167 217 417q48 164 68 492q-4 -5 -215 -234l-1 -46q-1 -45 -25 -41q-16 2 -31 23l-86 119q152 62 358 239l-1 539q0 89 -7 178z" />
  </g>

</svg>
