<?xml version="1.0" standalone="no"?>
<!DOCTYPE svg PUBLIC "-//W3C//DTD SVG 1.1//EN" "http://www.w3.org/Graphics/SVG/1.1/DTD/svg11.dtd" >
<svg xmlns="http://www.w3.org/2000/svg" xmlns:xlink="http://www.w3.org/1999/xlink" version="1.1" viewBox="0 -205 1024 1024">
  <g transform="matrix(1 0 0 -1 0 819)">
   <path fill="currentColor"
d="M722 830l72 -34q8 -4 9 -7q0 -4 -7 -7q-12 0 -28 -4q-8 -11 -34 -43q-32 -41 -55 -70h157l32 40l68 -50q8 -5 7 -8q-2 -2 -13 -2h-242v-127h120l39 39l46 -47q7 -6 5 -10q-1 -5 -11 -7l-18 -9v-344l3 -69q0 -32 -45 -33v45h-453v-22q3 -36 -49 -44q5 37 7 92v392
q2 16 -19 37l12 16l36 -36h140q2 58 0 127h-162q-27 1 -45 -13l-34 33h395q84 139 71 137q-2 8 -10 18zM537 498v-10q-4 -76 -41 -122q-35 -43 -122 -75v-63h453v91q-21 -3 -50 -4q-45 0 -89 7q-34 4 -36 56v120h-115zM182 906l35 -34h673l32 40l68 -50q8 -6 7 -8
q-2 -3 -13 -2h-750v-258q4 -229 -25 -348q-28 -114 -144 -227l-12 10q91 107 119 226q20 89 21 239q-46 -36 -63 -51q-42 -34 -53 -66l-58 32l174 113v50q0 20 -1 38v236q0 24 -22 48zM827 212h-453v-109h453v109zM752 351l75 4v143h-139v-93q-1 -39 6 -45q8 -6 58 -9z
M374 498v-189q61 32 91 70q32 41 35 113v6h-126zM541 645q0 -68 -3 -127h114v127h-111zM32 752l8 10q124 -61 117 -139q-4 -31 -24 -31q-19 0 -19 26q1 65 -82 134zM412 825q106 -39 118 -104q4 -29 -20 -32q-22 -4 -28 22q-4 27 -26 55q-24 29 -54 50zM477 990l2 13
q102 -27 125 -71q21 -45 -16 -49q-16 1 -21 19q-3 18 -22 39t-68 49z" />
  </g>

</svg>
