<?xml version="1.0" standalone="no"?>
<!DOCTYPE svg PUBLIC "-//W3C//DTD SVG 1.1//EN" "http://www.w3.org/Graphics/SVG/1.1/DTD/svg11.dtd" >
<svg xmlns="http://www.w3.org/2000/svg" xmlns:xlink="http://www.w3.org/1999/xlink" version="1.1" viewBox="0 0 2048 2048">
  <g transform="matrix(1 0 0 -1 0 2048)">
   <path fill="currentColor"
d="M462 1706h666q-12 23 -23 67q-22 90 -99 176l23 27q92 -64 127 -98q57 -55 57 -109q0 -36 -25 -62h534l108 114l131 -112q27 -24 21 -41q-5 -19 -25 -19l-1502 -2l-4 -499q-4 -264 -17 -380q-51 -450 -334 -707l-27 27q144 165 214 406q35 121 56 290q3 25 10 135
q2 31 5 66l-177 -205l-4 -49q-3 -49 -34 -40q-14 4 -22 17l-81 116q142 70 318 221l-1 445q0 121 -6 291zM86 1538q99 -77 129 -109q90 -93 90 -166q0 -61 -46 -66q-29 -3 -44 33q-3 7 -15 60q-22 93 -137 226zM1126 634v15q0 115 -8 160l109 -24q82 -18 85 -43
q4 -26 -50 -44l-40 -13v-51h497l98 102l112 -98q29 -25 25 -42q-5 -18 -25 -18h-707v-276q0 -12 9 -139q3 -53 3 -70q0 -50 -59 -54q-49 -2 -49 51v488h-431q-117 0 -191 -8l-39 88q91 -24 230 -24h431zM1436 467q242 -102 321 -151q149 -92 159 -178q2 -19 -6 -36
q-13 -28 -39 -28q-28 0 -51 27q-13 14 -45 55q-71 91 -191 175q-17 11 -96 58q-29 18 -68 42zM818 511l120 -86q23 -17 19 -33q-5 -25 -47 -23l-53 3q-115 -101 -233 -172q-116 -70 -263 -118l-14 35q186 88 343 239q69 68 128 155zM1798 949q-219 -62 -379 -89l-10 -44
q-7 -26 -25 -29q-18 -2 -28 21l-59 127q63 35 148 135q20 23 75 96q22 30 55 71q-61 -16 -142 -34q-43 -10 -80 -20l-11 -42q-7 -24 -23 -28q-20 -5 -30 21l-53 130q61 40 146 173q58 91 98 197l127 -54q32 -13 32 -33q0 -25 -36 -27l-62 -3q-89 -127 -216 -244
q196 10 284 18q30 44 95 168l127 -68q24 -13 21 -31q-3 -22 -93 -28q-157 -207 -358 -382q235 15 380 41q-37 65 -85 128l26 22q190 -155 206 -270q12 -87 -54 -87q-30 0 -41 29q-4 10 -12 58q-6 41 -23 78zM1066 936q-226 -67 -376 -96l-10 -41q-7 -27 -27 -27
q-16 0 -27 23l-64 140q91 52 279 268l15 17q-94 -22 -198 -44l-9 -39q-6 -28 -24 -28q-17 0 -29 27l-55 123q53 43 135 183q60 102 92 195l116 -52q57 -27 42 -54q-10 -16 -77 -16h-21q-119 -155 -225 -255l69 4l85 6l91 6l55 3q50 66 110 177l95 -50q60 -31 45 -55
q-12 -20 -98 -19q-88 -114 -158 -184q-62 -64 -252 -211q212 14 405 41q-31 69 -88 135l28 27q188 -141 194 -250q1 -28 -14 -47.5t-38 -19.5q-36 0 -47 37q-5 16 -12 45q-2 10 -7 31z" />
  </g>

</svg>
