<?xml version="1.0" standalone="no"?>
<!DOCTYPE svg PUBLIC "-//W3C//DTD SVG 1.1//EN" "http://www.w3.org/Graphics/SVG/1.1/DTD/svg11.dtd" >
<svg xmlns="http://www.w3.org/2000/svg" xmlns:xlink="http://www.w3.org/1999/xlink" version="1.1" viewBox="0 0 2048 2048">
  <g transform="matrix(1 0 0 -1 0 2048)">
   <path fill="currentColor"
d="M1122 1722q-17 20 -24 64q-12 73 -98 163l23 27q86 -54 126 -89q57 -50 57 -99q0 -38 -30 -66h546l108 114l131 -112q27 -24 21 -41q-5 -18 -25 -18l-1502 -3l-4 -514q-4 -264 -17 -380q-51 -450 -334 -707l-27 27q144 165 214 406q35 121 56 290q3 25 10 135q2 31 5 66
l-177 -205l-4 -49q-3 -49 -34 -40q-14 4 -22 17l-81 116q142 70 318 221l-1 460q0 121 -6 291l111 -74h660zM822 1356l102 -49l464 1l61 72l72 -49q36 -25 41 -44q5 -20 -25 -37q-6 -4 -13 -7q-9 -4 -26 -14v-139l27 -22q10 -8 12 -19q3 -23 -16 -23h-604q-28 -26 -54 -30
q-25 -3 -38 9q-3 3 -3 29v322zM917 1084h487v170h-487v-170zM579 1577l120 -61h981l61 72l72 -50q37 -25 42 -43q5 -21 -25 -38q-6 -3 -13 -7q-9 -4 -26 -14v-401q0 -82 7 -140q5 -44 4 -68q-2 -39 -55 -42q-51 -3 -51 33v39h-1021v-39q0 -46 -70 -40q-42 4 -39 53
q3 47 6 92q7 96 7 104v550zM675 911h1021v550h-1021v-550zM86 1538q99 -77 129 -109q90 -93 90 -166q0 -61 -46 -66q-29 -3 -44 33q-3 7 -15 60q-22 93 -137 226zM1386 490q261 -107 350 -160q162 -98 172 -188q2 -19 -6 -36q-13 -28 -39 -28q-31 0 -56 28q-13 14 -48 59
q-77 94 -210 183q-18 12 -104 62q-33 19 -75 44zM1088 634v38q0 118 -8 160l109 -24q82 -18 86 -44q3 -26 -51 -43l-40 -14v-73h497l98 102l112 -98q29 -25 25 -42q-5 -18 -25 -18h-707v-276q0 -7 9 -139q3 -56 3 -70q0 -50 -59 -54q-49 -2 -49 51v488h-393q-117 0 -191 -8
l-39 88q91 -24 230 -24h393zM837 530l119 -86q23 -17 20 -34q-6 -24 -47 -22l-53 2q-122 -108 -244 -182q-118 -73 -275 -127l-14 36q196 93 359 250q75 72 135 163z" />
  </g>

</svg>
