<?xml version="1.0" standalone="no"?>
<!DOCTYPE svg PUBLIC "-//W3C//DTD SVG 1.1//EN" "http://www.w3.org/Graphics/SVG/1.1/DTD/svg11.dtd" >
<svg xmlns="http://www.w3.org/2000/svg" xmlns:xlink="http://www.w3.org/1999/xlink" version="1.1" viewBox="0 -205 1024 1024">
  <g transform="matrix(1 0 0 -1 0 819)">
   <path fill="currentColor"
d="M913 545q5 -67 -12 -79q-8 -9 -40 -19q-2 17 -15 24q-11 6 -57 12l4 16q75 -16 81 -6q5 6 6 13q2 7 0 50h-178v-7l2 -57q2 -35 -45 -44q5 30 6 108h-163q-12 -27 -28 -47q-31 -37 -98 -71l4 -1h414l23 21l38 -29q7 -6 5 -10q-1 -5 -11 -7l-8 -9v-172l6 -60q0 -29 -46 -29
v22h-407q-2 -16 -11 -23q-10 -9 -36 -14q5 35 7 74v227q-45 -19 -103 -39l-6 16q128 56 188 108q19 16 32 43h-93l-26 -31l-38 36q17 11 24 24l8 64q-4 24 -18 44l12 8l36 -38h124q2 23 3 50v22h-147q-18 2 -38 -14l-35 30h220v50q-5 22 -22 34l8 11l75 -28q6 -2 7 -5
q0 -3 -5 -6q-15 -5 -27 -14v-42h133v41q2 16 -26 38l9 12l77 -28q14 -5 6 -11q-21 -7 -30 -21v-31h115l25 29l35 -25q7 -6 6 -10t-10 -6l-14 -14v-38l6 -39q1 -32 -42 -31v30h-121v-75h175l16 27l32 -24q9 -6 9 -11q0 -4 -9 -8zM172 916l38 -38h680l32 40l68 -46q8 -6 7 -8
q-2 -3 -13 -2h-762v-242q4 -230 -28 -364q-30 -129 -145 -231l-8 14q89 91 119 226q22 102 23 257q-4 -3 -11 -9q-40 -34 -53 -45q-40 -30 -48 -63l-52 30l164 112v51q0 20 -1 38v220q0 24 -22 48zM801 253h-407v-73h407v73zM394 349h407v72h-407v-72zM801 335h-407v-68h407
v68zM509 572h156q1 11 1 24v51h-139q-6 -42 -18 -75zM533 735v-14q-1 -31 -4 -58h137v72h-133zM473 160l62 -37q6 -5 5 -9q0 -3 -7 -5q-28 7 -52 -7q-22 -15 -81 -37q-57 -22 -160 -46v18q96 30 162 63q67 32 67 41q2 8 -6 13zM702 663h121v72h-121v-72zM364 572h109
q13 32 19 75h-120zM657 138l4 12q291 -60 250 -131q-14 -9 -34 13q-19 22 -74 50q-54 27 -146 56zM26 776l8 10q60 -32 85 -74t19 -67t-23 -25t-19 24q-1 24 -12 56q-10 32 -58 76zM471 996l4 13q104 -31 125 -71q18 -43 -20 -45q-13 4 -22 23q-24 46 -87 80z" />
  </g>

</svg>
