<?xml version="1.0" standalone="no"?>
<!DOCTYPE svg PUBLIC "-//W3C//DTD SVG 1.1//EN" "http://www.w3.org/Graphics/SVG/1.1/DTD/svg11.dtd" >
<svg xmlns="http://www.w3.org/2000/svg" xmlns:xlink="http://www.w3.org/1999/xlink" version="1.1" viewBox="0 -200 1000 1000">
  <g transform="matrix(1 0 0 -1 0 800)">
   <path fill="currentColor"
d="M534 760l38 42l64 -67h-123v-98h21l40 39l57 -63h-118v-102h15l38 39l58 -63h-111v-104h66l27 33l59 -49l-30 -34q0 -93 -9 -155.5t-26 -101t-40.5 -57.5t-53.5 -25l1 5q0 27 -19 47.5t-58 28.5v3q57 -15 81 -15q25 0 39.5 24t22.5 65t10.5 94t2.5 112h-213v435l51 -33
h110zM417 613l7 -102h47v102h-54zM417 487v-104h54v104h-54zM426 735l-9 -7v-93h54v100h-45zM344 292h1q3 -36 8.5 -63t6.5 -46v-4q0 -9 -4 -19t-11 -19t-16.5 -15t-20.5 -6q-15 7 -15 16q0 6 8 18t17.5 30t17.5 41t8 52v15zM449 295q57 -71 57 -115q0 -18 -12.5 -28
t-17.5 -10q-13 0 -14 30q1 5 1 12v13v27q0 14 -2.5 31t-10.5 37zM559 172q-3 -5 -10.5 -8t-10.5 -3t-6 16.5t-7.5 39t-10.5 45.5t-14 35l-1 2q24 -22 37 -36t19.5 -24t7.5 -18.5t1 -19.5v-3q0 -9 -5 -26zM392 165q2 14 7 27.5t5 27.5q0 10 1 19.5t1 19.5q0 11 -3 22v3
q11 -23 18 -40t10.5 -30.5t5 -24.5t1.5 -21q0 -16 -6.5 -26.5t-17.5 -10.5q-10 6 -14 10.5t-5 8.5t-1 7.5t-2 7.5zM778 353q11 43 20.5 81t17 74t13 72t8.5 77h-111q4 -55 8.5 -98.5t10.5 -80t14 -67t19 -58.5zM805 292q17 -35 33.5 -56.5t34.5 -35t39.5 -21.5t48.5 -17
q-6 -2 -18.5 -8t-26 -13.5t-26 -15.5t-18.5 -14q-27 29 -49 66.5t-37 69.5q-13 -30 -31 -60t-39 -57t-44.5 -49t-47.5 -35l-5 3q21 25 42 57.5t40 67t34.5 67.5t25.5 59q-20 72 -33.5 158t-20.5 198h-10l-43 -10l-22 35h202l32 41l47 -49l-26 -36q-14 -103 -38 -189.5
t-44 -155.5zM549 913l-16 89l92 -34l-19 -65v-40h219l52 49l77 -73h-724l75 -36l-17 -72q2 -20 2 -38v-35v-44v-103q0 -133 -12 -219t-37 -142.5t-63.5 -90.5t-92.5 -63l-8 12q36 35 64 68t47.5 78t31.5 109t16 161l-148 -158l-45 66q12 5 32.5 16t46 25.5t53.5 32t57 36.5
l1 -15v412h-19l-69 -18l-19 42h423v50zM176 504q-8 -8 -15 -14t-14 -6q-12 0 -18 12t-14.5 35t-23.5 55.5t-45 73.5l5 8q57 -34 92.5 -64.5t38.5 -65.5l1 -5v-5q0 -14 -7 -24z" />
  </g>

</svg>
