<?xml version="1.0" standalone="no"?>
<!DOCTYPE svg PUBLIC "-//W3C//DTD SVG 1.1//EN" "http://www.w3.org/Graphics/SVG/1.1/DTD/svg11.dtd" >
<svg xmlns="http://www.w3.org/2000/svg" xmlns:xlink="http://www.w3.org/1999/xlink" version="1.1" viewBox="0 0 2048 2048">
  <g transform="matrix(1 0 0 -1 0 2048)">
   <path fill="currentColor"
d="M317 1551q83 147 137 357l113 -40q48 -16 49 -37q2 -23 -44 -31l-40 -6q-97 -166 -161 -243h214l68 76l84 -54q40 -26 40 -49q0 -27 -78 -61v-904q0 -107 13 -219q3 -29 3 -54q0 -39 -49 -42q-63 -4 -62 42l1 80h-348v-76q0 -59 -65 -53q-44 3 -42 49q1 18 4 46
q11 103 12 209l1 964q-2 81 -16 133l114 -87h52zM257 1494v-472h348v472h-348zM605 422v542h-348v-542h348zM1309 1776h-334q-21 -207 -124 -207q-26 0 -42 21q-13 16 -10 36q4 25 36 48q98 70 101 237h34l5 -80h849l54 67l84 -64q38 -28 35 -46q-5 -22 -85 -42
q-51 -76 -113 -148l-30 24q10 26 15 38q29 73 40 116h-486l79 -17q83 -18 86 -44t-51 -43l-40 -14v-156h247l98 101l121 -106q20 -19 16 -34q-6 -18 -26 -18h-456v-186h288l61 71l72 -48q37 -25 42 -44q5 -20 -26 -37q-6 -4 -13 -7q-9 -4 -26 -14v-324q0 -42 7 -114
q4 -40 4 -61q0 -53 -72 -45q-34 3 -34 27v38h-303v-222h343l89 92l114 -95q25 -21 19 -38q-5 -15 -22 -15h-543v-92q0 -70 12 -186q3 -27 3 -53q0 -39 -49 -42q-62 -4 -62 42v331h-340q-67 0 -149 -11l-39 86q116 -19 188 -19h341v222h-305v-35q0 -22 -22 -34
q-17 -10 -42 -8q-40 4 -40 40q0 21 3 53q7 56 7 143v350q0 58 -7 120l110 -71h295v186h-219q-108 0 -192 -8l-38 88q96 -23 230 -23h219v120q0 109 -7 154zM1412 1015h303v187h-303v-187zM1412 757h303v200h-303v-200zM1012 1015h305v187h-305v-187zM1317 757v200h-305v-200
h305z" />
  </g>

</svg>
