<?xml version="1.0" standalone="no"?>
<!DOCTYPE svg PUBLIC "-//W3C//DTD SVG 1.1//EN" "http://www.w3.org/Graphics/SVG/1.1/DTD/svg11.dtd" >
<svg xmlns="http://www.w3.org/2000/svg" xmlns:xlink="http://www.w3.org/1999/xlink" version="1.1" viewBox="0 0 2048 2048">
  <g transform="matrix(1 0 0 -1 0 2048)">
   <path fill="currentColor"
d="M1638 762l68 76l84 -55q40 -26 40 -48t-29 -39q-1 0 -26 -13q-11 -6 -21 -11v-300q0 -107 13 -219q3 -28 3 -54q0 -39 -49 -42q-61 -3 -62 42l-3 63h-584v-54q0 -59 -69 -53q-44 4 -42 49q1 18 4 46q12 105 12 209v324q0 93 -8 153l128 -74h541zM1072 490h584v218h-584
v-218zM1072 214h584v224h-584v-224zM1577 1417l123 -47q37 -14 37 -33q0 -25 -41 -28l-42 -4q-72 -112 -153 -198l-33 24q65 121 109 286zM1052 1413q208 -145 194 -242q-6 -49 -49 -49q-40 0 -51 53q-22 103 -114 214zM839 1633l117 -88h801l68 76l84 -54q40 -26 40 -49
q0 -27 -77 -61v-344q4 -132 4 -135q2 -21 2 -36q0 -49 -66 -49q-38 0 -38 20v58h-820v-36q0 -45 -59 -42q-50 2 -48 42l2 38l2 70l3 97l1 357q0 55 -16 136zM1408 1023h366v468h-366v-468zM953 1491v-468h358v468h-358zM981 1924q86 -47 156 -99q109 -80 114 -158
q3 -32 -19 -51q-20 -19 -45 -13q-29 7 -52 67q-41 111 -179 222zM1679 1926l135 -66q39 -19 33 -40q-5 -16 -53 -19l-42 -3q-39 -47 -101 -109q-15 -14 -65 -57q-27 -22 -57 -50l-29 31q97 119 179 313zM331 1562q84 153 137 357l112 -39q48 -17 50 -38q2 -23 -44 -31
l-41 -6q-90 -154 -161 -243h188l68 76l84 -54q40 -26 40 -49q0 -27 -78 -61v-847q0 -107 13 -219q3 -29 3 -54q0 -39 -49 -42q-63 -4 -62 42v80h-328v-76q0 -58 -65 -53q-44 4 -42 49q1 18 4 46q11 104 12 209l1 907q-2 81 -16 133l114 -87h60zM263 1505v-472h328v472h-328z
M591 490v485h-328v-485h328z" />
  </g>

</svg>
