<?xml version="1.0" standalone="no"?>
<!DOCTYPE svg PUBLIC "-//W3C//DTD SVG 1.1//EN" "http://www.w3.org/Graphics/SVG/1.1/DTD/svg11.dtd" >
<svg xmlns="http://www.w3.org/2000/svg" xmlns:xlink="http://www.w3.org/1999/xlink" version="1.1" viewBox="0 -205 1024 1024">
  <g transform="matrix(1 0 0 -1 0 819)">
   <path fill="currentColor"
d="M167 460l40 -38h282v60q2 16 -25 38l8 11l76 -22q14 -5 6 -11q-16 -4 -27 -18v-58h301l24 32l52 -49q2 -5 -1 -7q-2 -2 -9 0q-24 -6 -41 -27q-5 -5 -24 -30q-9 -11 -14 -17l-13 8l28 70h-303v-95h174l29 29l46 -46q7 -5 7 -9q0 -3 -7 -5q-26 -4 -50 -25q-23 -21 -103 -72
q-28 -18 -63 -34q8 -3 22 -8q15 -5 22 -7q151 -46 319 -44l1 -17q-52 -2 -70 -30q-116 11 -215 40q-65 19 -125 45q-47 -20 -103 -39q-132 -44 -283 -56l-2 16q132 20 246 61q52 19 97 39q-7 4 -15 6q-82 42 -170 136h-19q-25 1 -36 -16l-17 19q-10 -86 -46 -145
q-48 -82 -116 -116l-8 12q50 38 91 115q41 78 45 184v70q-4 21 -24 37zM978 550q2 -5 -1 -7q-2 -2 -9 0q-28 -2 -47 -29q-10 -12 -37 -46l-15 4l30 76h-760q0 -2 -1 -6q0 -3 -1 -5q-8 -70 -42 -83q-17 -7 -28 6q-10 14 3 27q14 14 30 45q17 32 21 90h17q3 -28 2 -54h68
l-21 325q3 21 -18 43l15 12l31 -31q27 12 48 26q49 29 31 43l8 6l54 -41q7 -5 7 -9q0 -3 -7 -5q-20 5 -50 -8q-25 -10 -81 -30l6 -86h74l28 32l52 -40q8 -6 7 -9q-2 -3 -13 -3h-146l6 -96h76l28 32l54 -40q8 -6 7 -9q-2 -3 -13 -3h-150l7 -109h546l8 108h-68q-27 1 -45 -13
l-34 33h149l8 104h-68q-27 1 -45 -13l-34 33h148l7 88h-95q-18 2 -36 -12l-32 32h148l35 35l42 -43q7 -6 6 -10t-10 -6l-20 -8l-25 -328h63l27 29zM453 191q32 -16 60 -28q15 7 42 22l12 6q80 47 134 96h-386q65 -58 138 -96zM216 402v-52q0 -7 -1 -21q0 -15 -1 -22h275v95
h-273zM578 786l48 -37q7 -5 7 -9q0 -3 -7 -5q-16 3 -24 -1q-7 -3 -44 -36q38 -24 52 -42q23 -27 11 -48q-18 -18 -36 13q-11 22 -53 55q-51 -44 -124 -80l-6 12q60 44 107 85q-39 27 -92 54l4 15q64 -22 110 -48q39 37 42 46q5 11 -3 20zM584 984l44 -37q7 -5 7 -9
q0 -3 -7 -5q-16 3 -24 -1q-4 -3 -36 -30q-7 -6 -11 -9q34 -23 52 -38q21 -19 21 -34q-1 -19 -16 -21q-13 0 -26 19q-15 21 -54 52q-52 -45 -118 -75l-6 12q57 39 102 80q-40 26 -97 49l4 15q71 -18 114 -44q43 41 46 50q5 11 -3 20z" />
  </g>

</svg>
