<?xml version="1.0" standalone="no"?>
<!DOCTYPE svg PUBLIC "-//W3C//DTD SVG 1.1//EN" "http://www.w3.org/Graphics/SVG/1.1/DTD/svg11.dtd" >
<svg xmlns="http://www.w3.org/2000/svg" xmlns:xlink="http://www.w3.org/1999/xlink" version="1.1" viewBox="0 -205 1024 1024">
  <g transform="matrix(1 0 0 -1 0 819)">
   <path fill="currentColor"
d="M83 945l39 -48h158l35 41l50 -49q7 -6 5 -10q-1 -5 -11 -7l-18 -9v-596l4 -99q6 -38 -48 -42v85h-167v-86q2 -36 -51 -46q6 51 7 164v648q-4 24 -18 42zM711 250l8 10q90 -63 95 -142q0 -32 -22 -36q-22 -5 -24 28q-2 30 -11 59q-34 -22 -73 -50q-35 -25 -52 -58l-48 50
q20 8 30 25v702q-52 -6 -119 -9v-212q5 -252 -39 -382q-43 -127 -150 -205l-6 12q104 113 129 243q25 132 22 322v229q-6 23 -27 48l10 10l50 -48q122 16 192 35q16 4 46 12q119 30 118 36q8 8 6 26l9 2l71 -54q9 -9 9 -14t-9 -6q-31 10 -78 -1q-16 -4 -33 -6
q7 -194 19 -308q12 -117 23 -181t29 -123q39 -129 108 -154v-14q-50 9 -76 -14q-87 119 -113 401q-15 143 -17 387q-20 -4 -57 -11q-44 -8 -63 -12q-1 0 -5 -1q-3 0 -5 -1v-704q32 15 91 48q-12 28 -38 61zM297 663h-167v-208h167v208zM297 439h-167v-208h167v208zM130 679
h167v198h-167v-198z" />
  </g>

</svg>
