<?xml version="1.0" standalone="no"?>
<!DOCTYPE svg PUBLIC "-//W3C//DTD SVG 1.1//EN" "http://www.w3.org/Graphics/SVG/1.1/DTD/svg11.dtd" >
<svg xmlns="http://www.w3.org/2000/svg" xmlns:xlink="http://www.w3.org/1999/xlink" version="1.1" viewBox="0 0 2048 2048">
  <g transform="matrix(1 0 0 -1 0 2048)">
   <path fill="currentColor"
d="M1108 1651l656 -1l68 77l84 -54q40 -26 40 -49q0 -28 -78 -61l-11 -282q-12 -284 -32 -419q-34 -232 -150 -302q-50 -30 -144 -45q-6 67 -55 98q-15 9 -130 50l11 42q144 -34 197 -41q88 -13 121 41q72 118 85 558l10 329h-698q-90 -184 -260 -365l-31 27
q121 156 193 329q62 147 102 377l119 -36q52 -16 55 -36q2 -13 -15 -27q-14 -11 -32 -15l-38 -7q-43 -130 -67 -188zM260 1726h338l68 76l92 -63q31 -21 30 -38q-2 -24 -77 -63v-1107q0 -89 7 -181q4 -42 2 -69q-2 -49 -54 -53q-50 -4 -50 51v56h-362v-49q0 -54 -60 -54
q-46 0 -46 50q0 5 3 45q1 16 2 71q1 26 3 58q2 60 2 83l2 1117q0 10 -4 64q-3 29 -4 87zM254 1668v-368h362v368h-362zM254 1244v-393h362v393h-362zM254 796v-404h362v404h-362zM1086 830v-539q0 -49 27 -64q34 -18 108 -18h153h110q315 0 358 30q28 20 42 118
q15 107 20 152l34 -7l-4 -183q-1 -39 15 -60q4 -5 36 -35q10 -9 12 -24q9 -58 -145 -69q-81 -5 -413 -5q-79 0 -166 -1q-158 0 -205 19q-76 32 -76 122l-1 372v581q0 2 -10 167l112 -87h344l63 69l72 -52q32 -23 34 -46q2 -26 -69 -56v-305l31 -26q26 -20 25 -34
q-2 -19 -18 -19h-489zM1086 886l357 1v356l-357 -1v-356z" />
  </g>

</svg>
