<?xml version="1.0" standalone="no"?>
<!DOCTYPE svg PUBLIC "-//W3C//DTD SVG 1.1//EN" "http://www.w3.org/Graphics/SVG/1.1/DTD/svg11.dtd" >
<svg xmlns="http://www.w3.org/2000/svg" xmlns:xlink="http://www.w3.org/1999/xlink" version="1.1" viewBox="0 -205 1024 1024">
  <g transform="matrix(1 0 0 -1 0 819)">
   <path fill="currentColor"
d="M149 982l41 -50h660l35 41l51 -49q7 -6 5 -10q-1 -5 -11 -7l-19 -9v-173l5 -64q2 -24 -10 -33t-39 -12v49h-671v-27q0 -23 -13 -32q-12 -10 -38 -15q4 39 7 132v205q-6 24 -18 42zM718 100l4 14q39 -12 76 -17q27 -4 34 -3q8 0 18 8q38 29 43 143l11 298h-99
q6 -344 -188 -501l-11 5q166 184 156 495q-17 -3 -25 -13l-36 34h182l35 41l45 -40q9 -6 9 -11t-9 -8l-18 -13q-6 -237 -13 -337q-11 -94 -55 -131q-28 -27 -65 -30q-5 20 -14 29t-29 17q-11 4 -39 15q-8 3 -12 5zM121 110l4 14q27 -9 67 -15q46 -9 59 5q40 33 45 143l9 276
h-93q6 -337 -176 -501l-11 5q148 181 144 496h-18q-29 1 -41 -14l-36 34h211l34 41l45 -40q9 -6 9 -11t-9 -8l-18 -13q-5 -197 -14 -315q-11 -94 -54 -131q-29 -28 -70 -31q-4 22 -12 29q-24 22 -75 36zM421 118l4 15q31 -11 74 -18q44 -9 56 5q39 31 44 143l9 276h-104
q6 -344 -188 -501l-11 5q166 184 156 496h-6q-27 1 -38 -14l-36 34h207l33 41l44 -40q9 -6 9 -11t-9 -8l-17 -13q-4 -151 -14 -315q-11 -93 -52 -131q-28 -27 -70 -30q-5 20 -13 29q-9 9 -28 17q-9 3 -30 12q-13 5 -20 8zM867 912h-199v-227h199v227zM430 912v-227h196v227
h-196zM196 912v-227h192v227h-192z" />
  </g>

</svg>
