<?xml version="1.0" standalone="no"?>
<!DOCTYPE svg PUBLIC "-//W3C//DTD SVG 1.1//EN" "http://www.w3.org/Graphics/SVG/1.1/DTD/svg11.dtd" >
<svg xmlns="http://www.w3.org/2000/svg" xmlns:xlink="http://www.w3.org/1999/xlink" version="1.1" viewBox="0 -205 1024 1024">
  <g transform="matrix(1 0 0 -1 0 819)">
   <path fill="currentColor"
d="M71 917l36 -48h147l29 35l46 -43q7 -6 5 -10q-1 -5 -11 -7l-18 -9v-596l4 -97q7 -41 -44 -44v86h-151v-87q1 -36 -47 -46q5 39 7 164v648q-4 24 -18 42zM498 990l85 -36q14 -5 6 -11q-21 -7 -30 -21v-140h52l32 40l68 -48q8 -6 7 -9q-2 -3 -13 -3h-146v-138h92l32 40
l68 -50q4 -5 2 -8q-1 -2 -8 -2h-186v-112h91l24 33l38 -32q9 -6 9 -11q0 -4 -9 -8l-16 -13v-223q0 -21 -9 -34q-9 -12 -54 -23q2 28 -55 36v16q3 0 10 -1q35 -4 46 -4q12 0 20 6q9 6 8 72v166h-103v-324l2 -73q2 -37 -49 -46q5 39 7 118v325h-104v-205l4 -49q3 -38 -45 -45
q5 38 7 101v212q1 9 -13 24l14 13l25 -31h112v112h-113q-27 1 -45 -13l-34 33h192v138h-97q-28 -68 -62 -109l-12 10q30 54 50 127q20 74 18 86q-2 14 -10 24l6 5l62 -24q15 -9 5 -15q-14 2 -23 -9q-12 -40 -26 -75h89v150q2 16 -30 46zM901 919q-1 23 -26 46l8 11l82 -38
q9 -4 11 -7q2 -4 -4 -7q-18 -5 -31 -16v-778q-1 -36 -15 -53q-13 -17 -69 -29q-3 28 -26 39q-22 9 -87 27l4 16l42 -10q66 -14 88 -7q22 8 23 49v757zM265 635h-151v-208h151v208zM265 411h-151v-208h151v208zM114 651h151v198h-151v-198zM760 826l77 -34q14 -5 6 -11
q-21 -7 -30 -21v-391l2 -57q3 -36 -45 -44q5 37 7 148v354q2 16 -26 44z" />
  </g>

</svg>
