<?xml version="1.0" standalone="no"?>
<!DOCTYPE svg PUBLIC "-//W3C//DTD SVG 1.1//EN" "http://www.w3.org/Graphics/SVG/1.1/DTD/svg11.dtd" >
<svg xmlns="http://www.w3.org/2000/svg" xmlns:xlink="http://www.w3.org/1999/xlink" version="1.1" viewBox="0 0 2048 2048">
  <g transform="matrix(1 0 0 -1 0 2048)">
   <path fill="currentColor"
d="M1119 1525q54 115 92 242h-278q-67 0 -148 -11l-39 86q121 -18 187 -18h797l98 101l119 -107q20 -18 16 -33q-5 -18 -26 -18h-600q-83 -157 -149 -242h561l67 76l83 -54q40 -26 40 -49q0 -27 -77 -61v-460q0 -131 -159 -156q-2 61 -31 84q-17 13 -85 32v46
q89 -20 139 -20q42 0 42 56v450h-228v-372q0 -47 7 -105q3 -26 3 -43q0 -41 -53 -49q-47 -8 -48 24l-1 545h-223v-377q0 -48 7 -104q3 -26 3 -44q0 -40 -53 -49q-47 -7 -47 25l-1 549h-207v-614q0 -51 -56 -44q-40 5 -41 41q-1 23 1 56q8 89 8 196v373q0 73 -16 135l119 -87
h177zM1358 644h404l98 101l119 -107q20 -18 15 -33q-5 -19 -25 -19l-625 -1q-49 -188 -205 -311q-145 -116 -395 -189l-10 42q418 157 504 458l-283 1q-97 0 -190 -9l-38 88q88 -21 228 -21h295q16 105 18 224l137 -28q56 -12 51 -36q-5 -31 -80 -43q-6 -59 -18 -117z
M1399 517l48 -22q219 -102 337 -181q153 -102 153 -192q0 -33 -27 -49q-14 -8 -30 -4q-33 10 -94 91q-126 167 -408 322zM257 1726h268l68 76l84 -54q49 -32 46 -51q-3 -23 -86 -59v-1115q0 -2 5 -138q5 -82 5 -107q0 -55 -59 -58q-21 -1 -38 8q-9 6 -9 43v53h-284v-57
q0 -52 -52 -55q-54 -2 -54 50q0 6 2 46q2 16 3 70q1 26 2 58q3 59 3 83v1161q-3 83 -16 132zM257 1669v-380h284v380h-284zM257 1232v-396h284v396h-284zM257 780v-399h284v399h-284z" />
  </g>

</svg>
