<?xml version="1.0" standalone="no"?>
<!DOCTYPE svg PUBLIC "-//W3C//DTD SVG 1.1//EN" "http://www.w3.org/Graphics/SVG/1.1/DTD/svg11.dtd" >
<svg xmlns="http://www.w3.org/2000/svg" xmlns:xlink="http://www.w3.org/1999/xlink" version="1.1" viewBox="0 0 2048 2048">
  <g transform="matrix(1 0 0 -1 0 2048)">
   <path fill="currentColor"
d="M1056 1375v233h-154q-68 0 -148 -11l-40 86q121 -18 188 -18h154v111q0 114 -8 160l109 -24q82 -19 85 -44q4 -26 -50 -44l-40 -13v-146h135l81 81l114 -86q21 -16 15 -33q-6 -19 -26 -19h-319v-233h170l63 69l72 -51q32 -23 34 -46q3 -26 -68 -56v-287l31 -26
q25 -20 24 -34q-2 -19 -18 -19h-308v-91q298 -202 298 -326q0 -62 -45 -62q-48 0 -73 69q-32 90 -78 146q-32 39 -102 110v-394q0 -106 12 -219q3 -28 3 -53q0 -39 -49 -42q-62 -4 -62 42v623q-124 -234 -338 -415l-21 28q223 238 333 584h-150v-46q0 -27 -40 -24
q-60 4 -60 51l9 161v228q0 6 -9 167l108 -87h168zM1056 981v337h-176v-337h176zM1152 1318v-337h180v337h-180zM1726 70q-11 70 -47 93q-33 21 -159 43l4 42q134 -18 193 -22q69 -6 69 57v1484q0 115 -8 160l105 -24q82 -19 85 -43t-49 -44l-38 -14v-1561q0 -141 -155 -171z
M1549 1715l109 -24q83 -18 86 -43q3 -26 -51 -44l-40 -13v-750q0 -108 12 -220q4 -28 4 -53q0 -39 -49 -42q-63 -4 -63 42v988q0 115 -8 159zM263 1726h251l64 77l84 -55q48 -31 46 -51q-3 -23 -86 -59v-1111q0 -89 8 -180q3 -42 2 -70q-2 -53 -59 -53q-46 0 -46 51v49h-271
v-41q0 -55 -59 -55q-46 0 -46 50q0 6 2 46q2 16 3 70q1 26 2 58q3 59 3 83v1145q-3 84 -16 134zM256 1669v-380h271v380h-271zM256 1233v-393h271v393h-271zM256 784v-403h271v403h-271z" />
  </g>

</svg>
