<?xml version="1.0" standalone="no"?>
<!DOCTYPE svg PUBLIC "-//W3C//DTD SVG 1.1//EN" "http://www.w3.org/Graphics/SVG/1.1/DTD/svg11.dtd" >
<svg xmlns="http://www.w3.org/2000/svg" xmlns:xlink="http://www.w3.org/1999/xlink" version="1.1" viewBox="0 -200 1000 1000">
  <g transform="matrix(1 0 0 -1 0 800)">
   <path fill="currentColor"
d="M623 862v-145h80v162h-62zM751 717h77v162h-77v-162zM623 532h80v163h-80v-163zM751 532h77v163h-77v-163zM578 949q10 -8 23 -20t33 -27h183l42 47l52 -56l-32 -40v-364q-8 -14 -22 -21.5t-29 -9.5v52h-77v-195h64l39 46l58 -69h-161v-240h112l43 43l59 -65h-371
l-50 -13l-24 35h183v240h-78l-44 -13l-21 36h143v195h-77v-29q-14 -13 -29.5 -19.5t-26.5 -9.5v497h8zM546 930l-31 -55q-14 -32 -24 -55t-18 -40t-14 -31l-12 -28l31 -38l-24 -69v-584q-5 -11 -17.5 -18.5t-28.5 -17.5v647q-23 -46 -50.5 -83.5t-54.5 -56.5l-3 -3
q21 36 47.5 91t53.5 122t51.5 142t41.5 150zM112 859v-204h117v223h-104zM112 416h117v216h-117v-216zM112 160h117v232h-117v-232zM125 902h93l38 45l60 -53l-35 -37v-753q-15 -17 -24.5 -21.5t-27.5 -7.5v63h-117l1 -58q-10 -14 -22 -20t-31 -8v897z" />
  </g>

</svg>
