<?xml version="1.0" standalone="no"?>
<!DOCTYPE svg PUBLIC "-//W3C//DTD SVG 1.1//EN" "http://www.w3.org/Graphics/SVG/1.1/DTD/svg11.dtd" >
<svg xmlns="http://www.w3.org/2000/svg" xmlns:xlink="http://www.w3.org/1999/xlink" version="1.1" viewBox="0 -205 1024 1024">
  <g transform="matrix(1 0 0 -1 0 819)">
   <path fill="currentColor"
d="M67 941l38 -48h151l35 41l48 -49q7 -6 6 -10q-1 -5 -10 -7l-20 -9v-596l4 -99q6 -38 -46 -42v85h-161v-86q1 -35 -49 -46q6 51 7 164v648q-4 24 -18 42zM732 986l77 -28q14 -5 6 -11q-21 -7 -30 -21v-64h86l34 40l70 -50q8 -5 7 -8q-2 -2 -13 -2h-184v-11l3 -57
q2 -35 -50 -44q5 37 7 98v14h-200v-11l3 -57q3 -36 -50 -44q5 37 7 98v14h-85q-27 1 -45 -13l-34 33h164v74q2 16 -24 40l11 10l77 -28q14 -5 6 -11q-21 -7 -30 -21v-64h200v74q2 16 -24 40zM273 435h-161v-208h161v208zM273 659h-161v-208h161v208zM339 656h518l34 42
l70 -52q8 -5 7 -8q-2 -2 -13 -2h-441v-143h287l38 40l59 -44q12 -9 12 -13t-12 -3h-376l-32 -33l-44 40q22 10 26 34v122h-54q-27 1 -45 -13zM112 675h161v198h-161v-198zM866 389q4 -3 3 -5q0 -2 -4 -4q-17 -2 -35 -17v-238q0 -29 5 -39q5 -12 44 -13q47 -2 54 2
q12 4 18 23q5 38 7 130h15l2 -85q2 -52 27 -52q-11 -29 -37 -42q-2 -1 -3 -2q-10 -5 -56 -6q-45 -2 -79 3q-39 9 -37 80v255q-3 23 -22 39l8 10zM462 419l73 -28q11 -4 13 -7q2 -4 -5 -8q-12 -5 -24 -14v-44q-13 -150 -72 -212q-58 -63 -153 -85l-4 14q84 34 132 96
q48 60 55 201v42q-4 20 -23 34zM614 411l81 -28q14 -5 6 -11q-21 -7 -30 -21v-206l2 -57q3 -36 -49 -44q5 37 7 146v171q2 16 -26 38zM576 792q100 -24 112 -84q4 -27 -16 -34q-19 -7 -27 18q-7 25 -23 46q-15 22 -49 41z" />
  </g>

</svg>
