<?xml version="1.0" standalone="no"?>
<!DOCTYPE svg PUBLIC "-//W3C//DTD SVG 1.1//EN" "http://www.w3.org/Graphics/SVG/1.1/DTD/svg11.dtd" >
<svg xmlns="http://www.w3.org/2000/svg" xmlns:xlink="http://www.w3.org/1999/xlink" version="1.1" viewBox="0 -205 1024 1024">
  <g transform="matrix(1 0 0 -1 0 819)">
   <path fill="currentColor"
d="M726 923l29 -34h150l37 37l42 -45q7 -6 5 -10q-1 -5 -11 -7l-18 -9v-659l6 -73q0 -31 -42 -31v94h-159v-63q4 -38 -43 -44q5 37 7 151v644q-3 22 -17 38zM57 937l34 -48h131l29 41l48 -49q7 -6 5 -10q-1 -5 -11 -7l-18 -9v-608l4 -97q5 -38 -40 -44v86h-143v-87
q2 -37 -43 -46q5 39 7 164v660q-4 24 -18 42zM586 949l74 -30q10 -5 11 -9t-7 -7q-12 0 -30 -10q-3 -5 -13 -20q-9 -15 -78 -119h70l32 40l68 -50q8 -5 7 -8q-2 -2 -13 -2h-201q-32 -58 -55 -90q-5 -7 -11 -15q36 -34 71 -81q18 -25 32 -56l41 45q50 62 53 77t-5 26l10 7
l56 -38q17 -10 7 -15q-29 -1 -35 -7q-58 -61 -117 -111q57 -32 86 -62q67 -70 65 -122q0 -29 -20 -31q-19 -2 -24 32q-4 34 -31 80q-22 36 -69 77q9 -28 16 -61q20 -98 6 -202q-14 -103 -134 -127q0 28 -114 60l4 14q84 -17 115 -18q31 -2 56 16q27 19 36 84q8 65 -5 151
l-1 6q-48 -68 -103 -121q-64 -60 -129 -95l-4 14q63 54 124 120q56 62 102 132q-15 57 -39 99q-39 -50 -61 -74q-61 -66 -130 -118l-4 16q47 51 95 107q42 49 77 104q-20 29 -41 55q-18 -20 -40 -41q-40 -37 -83 -69l-9 11q50 52 90 101q37 45 73 120h-85q-27 1 -45 -13
l-34 33h227q45 86 59 121q15 36 13 43t-14 19zM924 419h-159v-214h159v214zM765 657h159v212h-159v-212zM924 641h-159v-206h159v206zM239 651h-143v-216h143v216zM239 419h-143v-208h143v208zM96 667h143v202h-143v-202zM356 941q99 -57 102 -112q4 -32 -16 -38t-25 25
t-20 56q-15 26 -49 57z" />
  </g>

</svg>
