<?xml version="1.0" standalone="no"?>
<!DOCTYPE svg PUBLIC "-//W3C//DTD SVG 1.1//EN" "http://www.w3.org/Graphics/SVG/1.1/DTD/svg11.dtd" >
<svg xmlns="http://www.w3.org/2000/svg" xmlns:xlink="http://www.w3.org/1999/xlink" version="1.1" viewBox="0 -205 1024 1024">
  <g transform="matrix(1 0 0 -1 0 819)">
   <path fill="currentColor"
d="M73 945l31 -48h132l27 41l44 -49q7 -6 5 -10q-1 -5 -11 -7l-14 -9v-608l4 -99q6 -38 -38 -42v86h-143v-87q2 -38 -41 -46q5 39 7 164v660q-4 24 -18 42zM558 607l31 -27h252l31 29l38 -33q7 -6 5 -10q-1 -5 -11 -7l-14 -9v-154l2 -107q1 -29 -36 -27v34h-260v-1
q5 -39 -41 -44q5 37 7 140v181q-3 20 -13 27zM474 669h233v89h-114v-9q1 -24 -41 -32q5 31 7 70v87q-3 20 -13 27l9 12l32 -31h120v64q2 17 -25 42l8 11l72 -34q14 -5 6 -11q-16 -4 -27 -18v-54h97l29 27l42 -31q7 -6 5 -10q-1 -5 -11 -7l-14 -9v-80l2 -21q1 -24 -36 -23v30
h-114v-89h149l20 34l66 -40q6 -5 5 -8q-2 -2 -11 -2h-417q-27 1 -45 -17zM323 51l-42 42q44 28 95 51q11 5 30 10q2 1 3 1v347h-21q-42 2 -60 -12l-32 32h102l29 25l38 -33q7 -6 6 -10t-10 -6l-18 -8v-330q1 0 3 -1q2 0 3 -1q17 -5 45 -21q25 -15 43 -24q32 -16 82 -26
l60 -4q57 -2 300 13l2 -16q-49 -6 -50 -26l-2 -4l-300 1q-84 13 -147 64q-27 22 -41 20q-55 -8 -118 -84zM253 659h-143v-216h143v216zM253 427h-143v-208h143v208zM110 675h143v202h-143v-202zM856 390h-260v-78h260v78zM596 490h260v74h-260v-74zM856 476h-260v-72h260v72
zM707 866h-114v-92h114v92zM741 774h114v92h-114v-92zM643 284l64 -34q8 -9 -3 -13q-19 -1 -33 -9q-80 -76 -148 -103l-6 9q83 64 120 114q6 8 -2 25zM746 262l5 13q133 -59 143 -113q10 -31 -13 -37t-31 22q-8 26 -37 57q-28 31 -67 58zM337 862l6 10q91 -42 109 -89
q18 -50 -18 -56q-15 2 -18 27q-3 26 -23 52t-56 56z" />
  </g>

</svg>
