<?xml version="1.0" standalone="no"?>
<!DOCTYPE svg PUBLIC "-//W3C//DTD SVG 1.1//EN" "http://www.w3.org/Graphics/SVG/1.1/DTD/svg11.dtd" >
<svg xmlns="http://www.w3.org/2000/svg" xmlns:xlink="http://www.w3.org/1999/xlink" version="1.1" viewBox="0 -205 1024 1024">
  <g transform="matrix(1 0 0 -1 0 819)">
   <path fill="currentColor"
d="M1002 101v-19q-69 2 -79 -31q-73 26 -151 85q-36 23 -76 68q-44 -42 -100 -74q-115 -72 -227 -94v16q117 42 214 112q47 35 84 75q-19 26 -37 55q-61 98 -90 216q-24 0 -34 -14l-31 34h341l30 31l55 -48q5 -5 5 -9q-1 -4 -7 -5q-29 -2 -44 -49q-14 -46 -79 -149
q-21 -34 -49 -65q38 -38 84 -68q62 -38 104 -50q42 -13 87 -17zM470 648q2 -5 -1 -7q-2 -2 -9 0q-30 -7 -64 -58q-19 -25 -33 -42l-15 6l44 96h-87v-499q-1 -36 -17 -52q-15 -17 -73 -30q-3 31 -26 40q-22 7 -87 24l4 16l42 -8q66 -14 88 -7q22 8 23 49v467h-11
q-32 -148 -79 -252q-49 -108 -137 -195l-8 11q80 110 117 216q35 101 59 220h-105q-19 2 -38 -13l-33 33h365l27 32zM546 977l52 -38h173l26 35l51 -33q6 -5 4 -10q-1 -4 -10 -6l-17 -17v-191q2 -56 13 -62q11 -4 64 -6q29 6 41 22h5q15 -13 34 -27q19 -13 8 -15l-46 -10
l-44 -6q-54 2 -70 3q-15 3 -33 19q-18 17 -18 69v215h-170v-60q13 -227 -164 -311l-6 16q68 57 96 119t28 170v72q-4 21 -26 41zM619 386q34 -62 77 -115q24 29 43 61q60 96 85 178h-259q20 -62 54 -124zM459 924q4 -5 1 -8q-2 -2 -12 -1q-24 -7 -36 -18q-12 -10 -43 -44
q-26 -29 -76 -86q13 -18 19 -39q10 -39 -11 -46t-29 14q-7 21 -27 56q-18 36 -87 83l6 12q62 -22 100 -51q8 -7 15 -13l97 140h-243q-19 2 -38 -13l-33 33h305l39 38z" />
  </g>

</svg>
