<?xml version="1.0" standalone="no"?>
<!DOCTYPE svg PUBLIC "-//W3C//DTD SVG 1.1//EN" "http://www.w3.org/Graphics/SVG/1.1/DTD/svg11.dtd" >
<svg xmlns="http://www.w3.org/2000/svg" xmlns:xlink="http://www.w3.org/1999/xlink" version="1.1" viewBox="0 -205 1024 1024">
  <g transform="matrix(1 0 0 -1 0 819)">
   <path fill="currentColor"
d="M865 830q2 -5 -1 -7q-2 -2 -9 0q-22 -2 -31 -7q-9 -4 -34 -40q-23 -32 -67 -88h183l28 36l64 -44q8 -6 7 -9q-2 -3 -13 -3h-455v-203q0 -100 -31 -225q-31 -122 -149 -219l-12 16q104 106 126 226q22 122 22 223v183q0 2 -1 4q0 3 -1 4q-26 -31 -50 -50l-8 10
q50 70 80 125t57 125q27 71 23 82q-3 11 -13 26l8 6l85 -33q3 -12 -7 -12q-18 -1 -31 -21q-15 -43 -33 -82h174l31 29zM881 526v-147q2 -62 -11 -89t-71 -39q6 49 -106 61l2 16q94 -15 118 -13t24 50v175h-180v-369q0 -48 13 -60q14 -13 54 -14q41 -2 109 -1q24 1 64 7
q36 8 40 40q8 38 12 141h15l2 -93q2 -51 33 -66q-25 -49 -69 -57q-21 -7 -85 -8q-88 -2 -166 2q-72 11 -66 115v365q-3 32 -19 48l11 8l40 -38h176l32 39l48 -41q9 -6 9 -11q0 -4 -9 -8zM437 600q2 -5 -1 -7q-2 -2 -9 0q-7 -7 -15 -12q-7 -4 -26 -30q-19 -25 -48 -84l-15 4
l42 124h-71v-475q-1 -36 -17 -52q-15 -17 -71 -30q-3 31 -26 40q-22 7 -87 24l4 16l42 -8q66 -14 88 -7q22 8 23 49v443h-16q-25 -161 -74 -256q-51 -98 -135 -167l-10 14q78 87 120 187q41 96 51 222h-94q-19 2 -38 -13l-33 33h335l27 34zM593 833q-24 -48 -51 -88
q-16 -22 -30 -42l19 -15h169q50 91 77 145h-184zM434 892q4 -5 1 -8q-2 -2 -12 -1q-29 -5 -72 -58l-9 -12q-23 -29 -62 -74q27 -24 33 -51q8 -39 -15 -46q-22 -7 -30 20q-7 27 -34 60t-103 73l4 12q65 -16 117 -48q3 -2 7 -5q3 -1 4 -2l87 137h-236q-19 2 -38 -13l-33 33
h297l39 38z" />
  </g>

</svg>
