<?xml version="1.0" standalone="no"?>
<!DOCTYPE svg PUBLIC "-//W3C//DTD SVG 1.1//EN" "http://www.w3.org/Graphics/SVG/1.1/DTD/svg11.dtd" >
<svg xmlns="http://www.w3.org/2000/svg" xmlns:xlink="http://www.w3.org/1999/xlink" version="1.1" viewBox="0 0 2048 2048">
  <g transform="matrix(1 0 0 -1 0 2048)">
   <path fill="currentColor"
d="M1094 1165h650l68 75l80 -48q52 -32 50 -57q-2 -24 -84 -60q-4 -94 -10 -285q-13 -402 -85 -566q-59 -132 -223 -150q-6 64 -68 89q-33 13 -162 49l8 38q32 -6 87 -20q114 -30 166 -25q83 6 117 103q57 161 74 800h-698q-103 -176 -273 -326l-25 27q201 224 300 570
l129 -52q40 -15 40 -37q0 -25 -48 -31l-44 -5q-26 -46 -49 -89zM152 1744l-40 86q118 -17 188 -17h368l69 74l75 -68q47 -41 38 -61q-7 -17 -98 -38q-152 -152 -268 -249q76 -73 80 -118q3 -30 -30 -61h197l55 61l77 -53q55 -38 49 -61t-96 -37q-74 -118 -172 -232l-31 22
q72 126 115 243h-162v-988q0 -142 -155 -171q-11 70 -47 93q-33 21 -159 44l8 45q136 -22 189 -26q68 -6 68 57v764q-101 -212 -182 -324q-94 -128 -201 -224l-23 28q132 152 220 326q56 112 102 254q28 84 42 122h-168q-69 0 -149 -10l-39 85q125 -18 188 -18h228
q-21 18 -40 67q-43 114 -208 230l20 26q113 -52 198 -114q111 122 195 253l-353 1q-62 0 -148 -11zM1118 868q309 -154 303 -272q-3 -61 -51 -61q-40 0 -66 65q-30 79 -90 142q-30 32 -118 98zM1063 1665l-28 264l150 -23q23 -3 23 -22q0 -15 -17 -24l-52 -26l19 -169h17
l80 79l101 -86q20 -18 15 -32q-6 -18 -26 -18h-180l16 -144q3 -29 -8 -40q-25 -26 -62 -20q-22 3 -25 37l-18 167h-57q-73 0 -149 -11l-39 86q120 -18 188 -18h52zM1704 1661h92l80 79l101 -86q20 -17 16 -31q-6 -18 -26 -18h-271l-20 -154q-4 -26 -17 -34q-11 -7 -43 -9
q-39 -3 -44 12q-2 7 2 31l23 154q-25 0 -71 -3q-51 -4 -78 -7l-39 85q126 -19 180 -19h16l8 64q10 76 24 202l141 -30q34 -8 30 -33q-3 -17 -30 -26l-54 -17z" />
  </g>

</svg>
