<?xml version="1.0" standalone="no"?>
<!DOCTYPE svg PUBLIC "-//W3C//DTD SVG 1.1//EN" "http://www.w3.org/Graphics/SVG/1.1/DTD/svg11.dtd" >
<svg xmlns="http://www.w3.org/2000/svg" xmlns:xlink="http://www.w3.org/1999/xlink" version="1.1" viewBox="0 0 2048 2048">
  <g transform="matrix(1 0 0 -1 0 2048)">
   <path fill="currentColor"
d="M472 707q273 -165 285 -281q4 -31 -15 -53q-17 -20 -45 -15q-31 6 -49 61q-39 121 -185 243q-78 -220 -168 -345q-82 -113 -205 -225l-24 27q166 199 235 357q102 231 122 536h-176q-75 0 -149 -10l-39 86q121 -19 188 -19h176v475h-134q-71 -161 -211 -317l-26 24
q109 178 172 353q44 121 68 243l14 78q4 18 7 36l117 -44q59 -22 59 -48q0 -22 -51 -28l-45 -5q-36 -131 -80 -235h306l92 95l109 -84q33 -25 31 -46q-2 -22 -26 -22h-307v-475h150l93 95l108 -84q35 -26 32 -46q-4 -22 -27 -22h-356q-8 -115 -17 -164q-1 -4 -19 -91
q-3 -17 -10 -50zM1362 1616l69 -30q53 -23 57 -42q8 -30 -49 -42l-54 -11q-130 -229 -182 -304q-94 -136 -206 -256q356 28 518 55q86 158 136 300l123 -47q62 -24 59 -52q-2 -26 -61 -34l-38 -4q-106 -185 -173 -277q-201 -278 -527 -548q322 23 749 106q-34 66 -62 114
q-13 21 -60 88q-13 18 -28 41l23 21q312 -298 312 -481q0 -28 -16 -48q-17 -23 -44 -17q-34 6 -47 62q-21 90 -57 173q-398 -105 -728 -164q-13 -24 -18 -38q-14 -43 -38 -24q-12 10 -33 50l-58 109q62 17 213 180q237 256 346 441q-258 -69 -457 -97q-17 -61 -38 -62
q-18 -1 -32 37l-45 121q36 12 63 49q162 220 267 463q43 99 61 167l-203 1q-114 0 -192 -8l-38 88q96 -23 230 -23h291q-27 18 -34 52q-23 108 -118 215l25 26q210 -142 197 -243q-5 -32 -39 -50h313l98 102l121 -107q20 -18 16 -34q-6 -18 -26 -18h-586z" />
  </g>

</svg>
