<?xml version="1.0" standalone="no"?>
<!DOCTYPE svg PUBLIC "-//W3C//DTD SVG 1.1//EN" "http://www.w3.org/Graphics/SVG/1.1/DTD/svg11.dtd" >
<svg xmlns="http://www.w3.org/2000/svg" xmlns:xlink="http://www.w3.org/1999/xlink" version="1.1" viewBox="0 0 2048 2048">
  <g transform="matrix(1 0 0 -1 0 2048)">
   <path fill="currentColor"
d="M1288 1951q189 -100 212 -178q14 -43 -26 -84h268l93 95l114 -91q26 -20 26 -41q0 -22 -23 -22h-929v-493l-3 -108q-14 -460 -85 -644q-72 -186 -201 -319l-28 25q120 173 166 374q39 174 51 570l5 109v379q0 25 -4 95q-4 57 -6 142l114 -71h383q-56 149 -145 232z
M313 1175l61 -34h235l61 73l72 -49q39 -27 39 -48q0 -25 -69 -58v-703l30 -21q25 -17 24 -39q-1 -19 -24 -19h-390v-46q0 -22 -18 -31q-22 -13 -51 -9q-34 5 -37 37q-1 13 4 80q6 67 6 133l1 598q-74 -144 -157 -257l-30 21q222 415 285 878h-25q-120 0 -193 -9l-37 88
q92 -22 236 -22h247l97 102l116 -92q34 -28 31 -45q-3 -22 -26 -22h-338q-79 -322 -150 -506zM352 335h267v750h-267v-750zM1125 1163l-39 86q123 -18 187 -18h451l98 102l121 -107q20 -17 15 -33q-5 -18 -26 -18h-391v-942q0 -142 -155 -171q-11 70 -47 93q-32 21 -159 43
l8 46q139 -22 190 -26q68 -6 68 56v901h-165q-73 0 -156 -12z" />
  </g>

</svg>
