<?xml version="1.0" standalone="no"?>
<!DOCTYPE svg PUBLIC "-//W3C//DTD SVG 1.1//EN" "http://www.w3.org/Graphics/SVG/1.1/DTD/svg11.dtd" >
<svg xmlns="http://www.w3.org/2000/svg" xmlns:xlink="http://www.w3.org/1999/xlink" version="1.1" viewBox="0 -200 1000 1000">
  <g transform="matrix(1 0 0 -1 0 800)">
   <path fill="currentColor"
d="M799 781v-259h33l28 44l51 -53l-33 -42q-11 -76 -30.5 -147t-45.5 -120q12 -26 31 -50t41 -43.5t44.5 -34.5t42.5 -23v-8q-17 -6 -38 -19t-27 -27q-32 29 -61.5 73t-49.5 96q-16 -32 -35.5 -60t-39.5 -49.5t-40 -37t-36 -22.5v9q43 42 77 95.5t55 110.5q-17 60 -33 130.5
t-27 155.5h-16q-3 -124 -15 -209.5t-28 -143.5t-34 -92t-34 -55h-11q20 49 33.5 102t22 112.5t12.5 128t6 148.5v27q0 54 -1.5 113.5t-1.5 128.5v21l-36 -9l-16 32h171v194l60 -35l-19 -71v-88h55l26 43q12 -16 26 -25t25.5 -16t19.5 -14.5t8 -19.5q0 -10 -4.5 -11.5
t-12.5 -2t-18 -1.5t-21 -9t-21.5 -25t-19.5 -50h-11q1 9 3 21.5l4 25t3.5 24t1.5 18.5q0 8 -3 13.5t-14 5.5h-47zM531 29q-9 -14 -22 -21.5t-26 -9.5v461q-11 -18 -27.5 -41.5t-35.5 -47.5t-38 -44.5t-35 -31.5l-1 8q33 48 63 104t55.5 113t44.5 110.5t30 95.5l59 -61
l-19 -20q-4 -7 -11.5 -21t-15.5 -29t-15.5 -29t-12.5 -21l24 -36l-17 -45v-434zM721 500q10 -66 23.5 -126t36.5 -129q14 43 29.5 103.5t28.5 151.5h-118zM561 913l-29 -26q-13 -30 -30.5 -65.5t-38.5 -69t-44.5 -63t-47.5 -47.5l-13 1q62 91 95 178t57 165zM758 522v259
h-100l45 -27l-13 -66q0 -30 1 -60t1 -61v-22.5t-1 -22.5h67zM242 716q-17 -60 -29.5 -102.5t-23.5 -81.5h103l33 41l51 -49l-28 -37v-355h-137v-105q-5 -14 -20 -20t-29 -9v472q-22 -51 -52 -103.5t-68 -97.5l-6 3q30 60 56.5 126t48 134t38 136.5t26.5 134.5h-57l-51 -11
l-18 33h219l47 44l59 -66h-139zM297 510h-86v-356h86v356z" />
  </g>

</svg>
