<?xml version="1.0" standalone="no"?>
<!DOCTYPE svg PUBLIC "-//W3C//DTD SVG 1.1//EN" "http://www.w3.org/Graphics/SVG/1.1/DTD/svg11.dtd" >
<svg xmlns="http://www.w3.org/2000/svg" xmlns:xlink="http://www.w3.org/1999/xlink" version="1.1" viewBox="0 -120 1000 1000">
  <g transform="matrix(1 0 0 -1 0 880)">
   <path fill="currentColor"
d="M289 938l74 -62v-20h-144q-22 -119 -51 -218l25 -16h64l20 35l62 -41q12 -8 12 -14q0 -7 -14 -11l-17 -5v-382l-59 -12v66h-78v-125l-58 -4v390q-30 -68 -71 -132l-15 12q82 197 111 457h-88l-12 27h196zM183 285h78v310h-78v-310zM386 844l76 -7q18 -2 18 -11t-14 -14
l-21 -7v-212q56 65 94 118l59 -49q7 -6 7 -12q0 -9 -14 -9h-33l-113 -89v-216q0 -20 23 -19h20q26 -1 35 28l27 97h12v-102q1 -19 27 -31q-9 -48 -85 -47h-66q-53 2 -52 59v523zM718 954l72 -12q18 -3 18 -13t-13 -13l-18 -5l-39 -59h86l19 39l60 -41q14 -9 14 -16t-14 -12
l-17 -5v-246l-58 -12v31h-153v-86h168l40 47l74 -54v-20h-282v-82h176l28 47l69 -51q9 -7 9 -13q0 -8 -11 -11l-20 -7v-118q0 -76 -26 -127q-16 -31 -42 -43q-28 -13 -44 -13q-11 0 -12 15q-1 26 -21 30l-74 14v15h124q37 41 36 123v112h-192v-39l-58 -12v570l67 -35h21z
M675 617h153v91h-153v-91zM675 735h153v90h-153v-90zM589 278h16q12 -53 12 -91q0 -40 -13 -64q-15 -29 -44 -29q-15 0 -23 12q-6 9 -6 19q0 12 19 31q39 32 39 122zM636 286l12 3q51 -71 51 -111q0 -33 -27 -33q-13 0 -18 9q-2 5 -2 29q-2 53 -16 103zM695 297l12 12
q26 -21 41 -35q29 -30 29 -55q0 -35 -24 -35q-11 0 -17 11q-4 7 -9 29q-12 47 -32 73zM765 325l12 11q70 -47 70 -79q0 -12 -7 -22q-6 -8 -17 -8q-17 0 -24 28q-12 45 -34 70z" />
  </g>

</svg>
