<?xml version="1.0" standalone="no"?>
<!DOCTYPE svg PUBLIC "-//W3C//DTD SVG 1.1//EN" "http://www.w3.org/Graphics/SVG/1.1/DTD/svg11.dtd" >
<svg xmlns="http://www.w3.org/2000/svg" xmlns:xlink="http://www.w3.org/1999/xlink" version="1.1" viewBox="0 0 2048 2048">
  <g transform="matrix(1 0 0 -1 0 2048)">
   <path fill="currentColor"
d="M490 1115q119 -54 160 -80q108 -69 108 -137q0 -18 -13 -34q-16 -20 -40 -20q-23 0 -36 18q-12 15 -35 57q-52 93 -161 152v-721q0 -19 3 -64q2 -46 2 -74q1 -52 1 -60q2 -29 2 -59q0 -27 -24 -39q-21 -10 -44 -6q-35 5 -35 49v886q-122 -125 -303 -249l-22 35
q399 326 559 741h-311q-132 0 -192 -12l-38 93q93 -24 237 -24h304l59 72l83 -58q44 -30 38 -54q-5 -19 -84 -48q-98 -205 -218 -364zM284 1956q233 -129 249 -228q9 -60 -42 -74q-38 -10 -57 21q-7 11 -21 53q-31 93 -153 198zM1456 449q34 -14 51 -22q398 -167 398 -300
q0 -21 -13 -38q-17 -23 -39 -24q-35 -2 -83 70q-104 157 -327 278zM1055 1835h593l68 76l84 -53q40 -25 40 -49q0 -21 -30 -39q-6 -3 -12 -7q-12 -6 -36 -20v-224l52 -33q22 -14 22 -33t-18 -19h-770v-38q0 -28 -44 -28q-61 0 -61 51l10 161v171q0 6 -10 167zM1048 1490h620
v288h-620v-288zM1182 474l72 -44q25 -15 26 -34q2 -26 -39 -26h-53q-184 -203 -446 -312l-18 34q237 135 397 382h-144v-59q0 -37 -52 -37q-60 0 -56 60l5 57l3 80l4 76v518q0 88 -14 176l122 -91h743l68 77l84 -55q40 -26 40 -48q0 -27 -78 -62v-500q0 -23 4 -85
q2 -34 4 -79q2 -40 3 -59q6 -54 -66 -59q-43 -3 -43 25v65h-566zM977 723v-189h771v189h-771zM1748 781v184h-771v-184h771zM1748 1019v179h-771v-179h771z" />
  </g>

</svg>
