<?xml version="1.0" standalone="no"?>
<!DOCTYPE svg PUBLIC "-//W3C//DTD SVG 1.1//EN" "http://www.w3.org/Graphics/SVG/1.1/DTD/svg11.dtd" >
<svg xmlns="http://www.w3.org/2000/svg" xmlns:xlink="http://www.w3.org/1999/xlink" version="1.1" viewBox="0 0 2048 2048">
  <g transform="matrix(1 0 0 -1 0 2048)">
   <path fill="currentColor"
d="M485 1105q23 -18 78 -62q126 -100 118 -175q-3 -26 -25 -40q-19 -12 -41 -4q-26 10 -37 58q-18 77 -93 161v-671q0 -81 8 -182q2 -31 2 -69q0 -49 -51 -53q-28 -1 -42 8q-12 7 -12 42v877q-146 -167 -277 -268l-18 30q177 190 256 318q109 178 193 422h-200
q-130 0 -192 -13l-38 95q93 -24 237 -24h193l59 70l84 -58q42 -29 38 -54q-3 -18 -84 -47q-65 -170 -156 -331v-30zM291 1933q188 -156 183 -256q-1 -23 -17 -40q-21 -23 -49 -18t-34 48q-12 80 -35 126q-28 57 -72 114zM1022 1369v257h-105q-63 0 -148 -10l-40 86
q121 -18 188 -18h105v101q0 111 -8 157l100 -24q72 -17 74 -43q3 -19 -40 -37l-34 -15v-139h136l80 80l114 -86q21 -16 16 -33q-6 -19 -26 -19h-320v-257h98l80 80l114 -86q21 -16 16 -33q-6 -19 -26 -19h-448q-69 0 -149 -11l-39 86q125 -17 188 -17h74zM840 727
q-46 8 -46 24v309q0 32 -5 91q-3 38 -5 75l108 -87h351l61 72l72 -51q37 -26 41 -43q5 -20 -25 -37q-6 -3 -13 -6q-9 -5 -27 -14v-220l30 -26q29 -23 27 -37q-2 -15 -21 -15h-168l103 -30q31 -9 31 -25q0 -19 -27 -26l-41 -12q-40 -150 -125 -316l-16 -32q162 37 304 82
l11 -33q-185 -97 -578 -201l-39 -10l-10 -39q-8 -29 -25 -30q-11 -1 -27 28l-69 123q105 13 254 41q-13 13 -21 67q-28 195 -105 378zM884 818h377v264h-377v-264zM879 739q165 -288 165 -402q0 -22 -10 -42l38 9l27 6l10 30q52 167 85 422h-310q0 -12 -5 -23zM1832 1879
l123 -59q28 -14 28 -31q0 -27 -39 -30l-54 -4q-152 -227 -419 -372l-21 31q144 103 237 223q70 90 145 242zM1841 1316l123 -58q29 -14 29 -31q0 -28 -40 -30l-54 -4q-148 -221 -418 -372l-21 31q130 93 231 214q79 94 150 250zM1902 623q-118 -209 -296 -343
q-133 -100 -357 -206l-20 34q275 158 408 303q100 109 146 204q16 34 61 134l129 -62q32 -15 32 -30q0 -26 -40 -29z" />
  </g>

</svg>
