<?xml version="1.0" standalone="no"?>
<!DOCTYPE svg PUBLIC "-//W3C//DTD SVG 1.1//EN" "http://www.w3.org/Graphics/SVG/1.1/DTD/svg11.dtd" >
<svg xmlns="http://www.w3.org/2000/svg" xmlns:xlink="http://www.w3.org/1999/xlink" version="1.1" viewBox="0 -205 1024 1024">
  <g transform="matrix(1 0 0 -1 0 819)">
   <path fill="currentColor"
d="M400 542l35 -33h475l30 38l64 -44q8 -5 6 -9q-2 -3 -12 -3h-323l70 -22q9 -5 9 -7q0 -1 -8 -6q-17 -13 -22 -20l-4 -21h134l30 38l68 -46q7 -5 6 -8q-2 -2 -12 -2h-229l-10 -65h106l35 36l43 -42q7 -6 7 -9q0 -5 -11 -8l-20 -9v-227h37l30 38l66 -46q7 -4 7 -7t-13 -3
h-501q-25 0 -39 -13l-34 31h116v241q0 17 -17 36l12 11l33 -29h105l9 65h-131q-28 0 -45 -13l-34 31h213l5 37q0 11 -27 30l5 9h-215v-59q7 -310 -132 -402l-8 12q103 120 102 356v98q-4 17 -24 33zM442 770l31 -34h384l27 31l44 -35q6 -4 6 -9t-12 -8l-17 -11l3 -129
q-3 -32 -42 -31v34h-383q3 -39 -45 -43q2 13 4 39q2 24 3 37v110q-2 11 -7 29l-3 9zM482 984l31 -34h296l27 31l42 -35q6 -4 6 -9t-12 -8l-16 -11l2 -129q-2 -33 -40 -31v34h-295q3 -39 -45 -43q2 13 4 39q2 24 3 37v110q-2 12 -10 32q-1 4 -2 6zM199 627l29 -21
q37 50 91 165h-220q-25 0 -36 -14l-31 32h275l30 41l62 -45q1 -1 2 -3q3 -4 3 -6q1 -3 -28 -12l-9 -3q-6 -3 -32 -51q-50 -91 -87 -141v-31q139 -66 131 -127v-4q-3 -17 -18 -20h-4q-11 0 -24 27q-30 64 -85 101v-350l4 -97q2 -35 -49 -46q0 7 1 26q6 83 6 164v309
q-77 -90 -184 -156l-6 12q96 79 188 200q-7 23 -20 39zM866 649h-383v-53h383v53zM483 667h383v51h-383v-51zM829 144h-255v-71h255v71zM829 228h-255v-68h255v68zM574 246h255v68h-255v-68zM523 879h295v53h-295v-53zM818 861h-295v-51h295v51zM148 979l4 13
q147 -49 142 -112q0 -27 -21 -29h-4q-10 0 -20 22q-30 65 -101 106z" />
  </g>

</svg>
