<?xml version="1.0" standalone="no"?>
<!DOCTYPE svg PUBLIC "-//W3C//DTD SVG 1.1//EN" "http://www.w3.org/Graphics/SVG/1.1/DTD/svg11.dtd" >
<svg xmlns="http://www.w3.org/2000/svg" xmlns:xlink="http://www.w3.org/1999/xlink" version="1.1" viewBox="0 -205 1024 1024">
  <g transform="matrix(1 0 0 -1 0 819)">
   <path fill="currentColor"
d="M506 875l52 -37q6 -5 5 -8t-9 -4q-18 1 -28 -7q-10 -7 -60 -45q-8 -6 -17 -12l3 -4h189v134h-199q-27 1 -45 -13l-34 33h520l30 38l66 -48q8 -5 7 -8q-2 -2 -13 -2h-294v-134h185l15 19l33 -22q9 -6 9 -11q0 -4 -9 -8l-4 -5v-339q0 -25 -10 -40t-58 -21q15 24 -84 43
l4 15q80 -13 87 -13q9 0 17 6q9 6 8 74v282h-193v-307l2 -49q4 -37 -47 -44q5 37 7 92v308h-184v-337l4 -33q2 -37 -47 -46q5 39 7 100v321q-31 -19 -69 -36l-6 12q141 101 156 135q0 8 -5 15zM181 634l25 -20q10 16 19 31q34 55 68 127h-194q-25 1 -36 -14l-31 34h249
l30 41l60 -47q7 -5 7 -9q0 -3 -7 -5q-22 -4 -30 -10t-31 -49t-58 -97q-12 -19 -26 -39v-31q50 -23 77 -44q37 -28 48 -61q9 -36 -16 -43q-16 -3 -24 19q-8 23 -29 53q-17 25 -56 52v-359l4 -95q1 -35 -49 -46q5 39 7 187v316l-21 -27q-49 -63 -141 -120l-6 12q67 60 119 130
q5 6 14 19q12 15 33 45q-6 23 -20 39zM623 324l76 -22q14 -5 6 -11q-16 -4 -27 -18v-35h151l30 38l66 -48q8 -5 7 -8q-2 -2 -13 -2h-241v-121h223l30 38l66 -48q8 -5 7 -8q-2 -2 -13 -2h-579q-27 1 -45 -13l-34 33h307v121h-156q-27 1 -45 -13l-34 33h235v41q2 17 -25 36z
M475 677l5 10q32 -9 70 -31q18 26 17 33q-1 8 -9 18l8 8l44 -26q17 -10 7 -15q-16 1 -27 -11q-8 -12 -17 -23q23 -16 34 -36q15 -27 -1 -35t-28 16q-8 17 -23 33q-33 -37 -73 -67l-8 10q37 41 62 75q-24 19 -61 41zM475 517l5 10q33 -9 70 -31q18 26 17 30q-1 5 -9 15l8 8
l42 -22q17 -10 7 -15q-13 1 -27 -11q-2 -3 -7 -10q-5 -6 -8 -10q21 -17 32 -35q15 -27 0 -38t-27 14q-7 18 -24 35q-31 -36 -72 -66l-8 10q36 41 61 74q-22 21 -60 42zM705 679l5 10q29 -9 66 -31q18 26 17 33q-1 8 -9 18l8 8l44 -26q17 -10 7 -15q-16 1 -27 -11
q-8 -12 -17 -23q23 -16 33 -33q14 -24 -1 -32t-27 13q-8 15 -23 30q-33 -37 -73 -67l-8 10q37 41 62 75q-24 20 -57 41zM705 515l5 10q31 -10 65 -29q20 27 18 32q-1 5 -9 15l8 8l42 -22q17 -10 7 -15q-13 1 -27 -11q-2 -3 -8 -11q-5 -7 -8 -11q23 -16 33 -34q15 -26 0 -35
t-27 14q-7 17 -24 33q-31 -36 -72 -66l-8 10q36 41 61 74q-22 18 -56 38zM767 851l5 11q213 -45 196 -125q-16 -12 -35 14t-55 48t-111 52zM126 974l4 13q70 -22 95 -42q26 -19 37 -38q24 -47 -11 -59q-17 -2 -22 17q-4 20 -27 50q-21 30 -76 59z" />
  </g>

</svg>
