<?xml version="1.0" standalone="no"?>
<!DOCTYPE svg PUBLIC "-//W3C//DTD SVG 1.1//EN" "http://www.w3.org/Graphics/SVG/1.1/DTD/svg11.dtd" >
<svg xmlns="http://www.w3.org/2000/svg" xmlns:xlink="http://www.w3.org/1999/xlink" version="1.1" viewBox="0 -205 1024 1024">
  <g transform="matrix(1 0 0 -1 0 819)">
   <path fill="currentColor"
d="M340 265q50 1 331 23q-24 32 -77 66l6 12q90 -34 119 -73q30 -39 29 -70q-2 -33 -20 -37q-19 -3 -25 30q-5 27 -20 54l-294 -35q-79 -9 -97 -36l-32 66q31 -3 52 14q56 66 113 152h-240v-270l4 -82q0 -21 -15 -31q-16 -9 -42 -15q4 39 7 147v265q-3 31 -15 43l16 11
l38 -48h260q29 46 51 88q2 12 -7 28l7 4l67 -38q7 -4 8 -7t-4 -5q-19 3 -37 -12q-3 -4 -9 -14q-9 -13 -30 -44h321l30 41l52 -43q10 -6 10 -11t-10 -8l-20 -13v-253q2 -71 -12 -99q-15 -28 -70 -40q-3 33 -34 45q-33 11 -90 26l2 16q110 -23 134 -21q24 3 24 59v281h-351
q-63 -87 -130 -166zM251 693l3 12q-1 -1 -4 -2q-3 -2 -5 -3q-110 -63 -206 -93l-4 14q114 61 183 105q87 56 147 113q58 57 85 93q24 35 27 44q0 9 -12 20l8 11l85 -34q5 -10 -4 -13q-15 2 -28 -12q38 -48 86 -89q59 -51 131 -92q72 -42 122 -55q49 -15 124 -24v-17
q-34 0 -58 -4q-24 -6 -34 -27q-61 18 -147 64q-85 47 -158 119q-52 52 -83 104q-44 -56 -97 -107q-64 -59 -156 -114q45 -15 85 -42q40 -31 54 -61q12 -31 5 -49q-8 -18 -26 -17q-19 1 -27 37q-9 34 -36 67q-28 30 -60 52zM691 729l64 -48q16 -8 7 -17q-25 3 -33 -7
q-36 -41 -131 -135l-22 6q73 93 96 132q17 30 17 39q0 8 -6 23z" />
  </g>

</svg>
