<?xml version="1.0" standalone="no"?>
<!DOCTYPE svg PUBLIC "-//W3C//DTD SVG 1.1//EN" "http://www.w3.org/Graphics/SVG/1.1/DTD/svg11.dtd" >
<svg xmlns="http://www.w3.org/2000/svg" xmlns:xlink="http://www.w3.org/1999/xlink" version="1.1" viewBox="0 -205 1024 1024">
  <g transform="matrix(1 0 0 -1 0 819)">
   <path fill="currentColor"
d="M519 937l43 -37h292l39 39l51 -48q7 -6 5 -10q-1 -5 -11 -7l-18 -9v-201l5 -67q-1 -18 -12 -24q-12 -6 -40 -12v55h-300v-170h301l40 39l50 -47q7 -6 5 -10q-1 -5 -11 -7l-18 -9v-220l5 -81q-1 -18 -12 -24q-12 -6 -40 -12v76h-320v-66q0 -21 -10 -30q-12 -9 -43 -14
q4 37 7 119v725q-3 25 -20 41zM396 983l56 -50q15 -15 3 -19q-24 9 -73 1q-37 -11 -75 -20v-202h81l32 40l68 -50q8 -6 6 -9q-2 -2 -12 -1h-175v-112q55 -25 86 -48q33 -27 47 -52q12 -27 8 -46q-6 -19 -22 -21q-17 -3 -29 30q-10 27 -38 65q-21 26 -52 51v-354l2 -96
q0 -21 -15 -31q-16 -9 -40 -15q4 30 7 189v302q-64 -158 -199 -281l-12 10q146 179 205 409h-123q-28 0 -46 -13l-34 33h209v191q-79 -15 -166 -21l-2 13q120 28 173 43q52 15 76 24q23 9 33 15q11 6 11 24zM573 171h320v255h-320v-255zM573 636h300v243h-300v-243z" />
  </g>

</svg>
