<?xml version="1.0" standalone="no"?>
<!DOCTYPE svg PUBLIC "-//W3C//DTD SVG 1.1//EN" "http://www.w3.org/Graphics/SVG/1.1/DTD/svg11.dtd" >
<svg xmlns="http://www.w3.org/2000/svg" xmlns:xlink="http://www.w3.org/1999/xlink" version="1.1" viewBox="0 -205 1024 1024">
  <g transform="matrix(1 0 0 -1 0 819)">
   <path fill="currentColor"
d="M361 969l57 -48q15 -15 3 -19q-24 9 -73 1q-6 -2 -19 -5q-37 -11 -56 -15v-202h64l32 40l69 -50q8 -6 6 -9q-2 -2 -12 -1h-159v-112q47 -20 75 -41q34 -25 49 -51q14 -27 8 -45t-23 -20t-26 28q-10 30 -33 60q-14 18 -50 48v-354l2 -96q0 -21 -14 -31q-15 -9 -39 -15
q4 39 7 189v307q-56 -152 -185 -286l-12 10q129 168 190 409h-117q-27 0 -45 -13l-34 33h203v193q-85 -16 -168 -23l-2 13q102 20 173 42q52 16 76 25q3 1 9 4q14 5 24 10q10 3 10 23zM893 646q16 -9 7 -16q-34 1 -43 -14q-87 -119 -178 -200q-95 -83 -254 -146l-4 14
q148 80 226 154q58 56 100 105q-56 -5 -127 -11q-16 -1 -22 -2q-22 -2 -57 -6q-5 -1 -7 -1q-27 -6 -48 -27l-36 56q39 9 51 19q10 9 25 25q14 15 42 49q27 31 68 94q8 25 -2 37l9 8l75 -44q5 -3 5 -6t-5 -5q-21 1 -39 -8q-68 -80 -155 -161l241 5q1 2 3 4q2 3 3 4
q48 63 51 77q1 12 -8 29l7 8zM952 433q15 -9 6 -15q-33 1 -42 -14q-75 -87 -155 -157q64 -28 104 -57q49 -34 69 -62q19 -30 19 -56q-2 -26 -23 -27q-22 -1 -31 29q-10 30 -42 70q-35 39 -113 89q-15 -14 -47 -38q-13 -9 -19 -14q-129 -92 -286 -143l-4 14q124 57 235 136
q108 78 183 159q71 79 74 92q1 12 -8 29l7 8zM401 810h485l33 40l68 -50q7 -5 6 -8q-1 -2 -12 -2h-501q-27 0 -45 -13zM566 993q75 -27 114 -49q36 -23 48 -44q10 -22 7 -39q-4 -18 -22 -18q-18 -2 -23 22q-6 23 -37 55q-31 31 -91 61z" />
  </g>

</svg>
