<?xml version="1.0" standalone="no"?>
<!DOCTYPE svg PUBLIC "-//W3C//DTD SVG 1.1//EN" "http://www.w3.org/Graphics/SVG/1.1/DTD/svg11.dtd" >
<svg xmlns="http://www.w3.org/2000/svg" xmlns:xlink="http://www.w3.org/1999/xlink" version="1.1" viewBox="0 -205 1024 1024">
  <g transform="matrix(1 0 0 -1 0 819)">
   <path fill="currentColor"
d="M457 736l38 -34h123q5 54 4 120v72h-114q-27 0 -45 -14l-34 34h461l33 40l68 -50q7 -5 6 -8q-1 -2 -12 -2h-195v-192h90l36 39l52 -47q7 -6 5 -10q-1 -5 -11 -7l-18 -9v-452l3 -106q-1 -18 -13 -25q-13 -6 -34 -8v75h-392v-44q0 -21 -12 -31q-13 -9 -39 -15q4 31 7 151
v472q2 15 -21 36zM354 981l57 -48q15 -15 3 -19q-24 9 -73 1q-37 -11 -75 -19v-203h64l32 40l69 -50q8 -6 6 -9q-2 -2 -12 -1h-159v-112q46 -20 76 -41q32 -25 48 -51q14 -27 8 -46q-6 -20 -23 -20q-16 -1 -28 30q-12 30 -33 60q-18 23 -48 47v-354l2 -96q0 -21 -14 -31
q-15 -9 -39 -15q4 30 7 189v300q-59 -152 -189 -287l-12 10q143 191 196 417h-107q-27 0 -45 -13l-34 33h191v193q-85 -16 -168 -23l-2 13q102 20 173 42q52 16 76 25q3 1 9 4q14 5 24 10q10 3 10 23zM900 452q-19 -3 -35 -3q-25 -2 -81 4q-34 6 -36 60v169h-88
q-6 -78 -24 -129q-28 -85 -128 -156v-59h392v114zM900 318h-392v-146h392v146zM860 490l40 4v188h-110v-140q0 -39 8 -45t62 -7zM508 682v-258q67 72 89 144q14 50 20 114h-109zM665 894v-59q2 -73 -3 -133h86v192h-83z" />
  </g>

</svg>
