<?xml version="1.0" standalone="no"?>
<!DOCTYPE svg PUBLIC "-//W3C//DTD SVG 1.1//EN" "http://www.w3.org/Graphics/SVG/1.1/DTD/svg11.dtd" >
<svg xmlns="http://www.w3.org/2000/svg" xmlns:xlink="http://www.w3.org/1999/xlink" version="1.1" viewBox="0 0 2048 2048">
  <g transform="matrix(1 0 0 -1 0 2048)">
   <path fill="currentColor"
d="M878 1694l-38 86q26 -3 40 -5q83 -12 145 -12h289v52q0 118 -8 160l108 -24q81 -18 84 -44q3 -32 -49 -44l-41 -11v-89h269l98 100l118 -109q22 -19 16 -34q-6 -14 -42 -14h-459v-29q0 -11 6 -93q6 -74 -63 -74q-37 0 -37 26v170h-289q-58 0 -147 -12zM926 1236l128 -65
h650l67 76l82 -54q40 -27 40 -49q0 -21 -29 -39q-1 0 -44 -22v-498l4 -85q3 -99 3 -103q0 -25 -20 -37q-25 -16 -52 -14q-32 2 -32 28v36h-529l102 -67q22 -15 18 -30q-5 -23 -95 -17q-137 -105 -243 -159q-96 -49 -290 -109l-16 38q359 158 491 344h-133v-44q0 -26 -44 -30
q-66 -5 -60 51l4 42q6 97 6 104l-1 574q0 78 -7 129zM1028 464h695v186h-695v-186zM1028 708h695v176h-695v-176zM1028 938h695v174h-695v-174zM831 1372l-38 88q94 -22 200 -22h51v37q0 118 -8 160l108 -24q82 -18 84 -44q3 -31 -43 -42l-47 -12v-75h435v37q0 118 -8 160
l108 -24q81 -18 84 -43q3 -28 -49 -43l-40 -12v-75h119l97 101l119 -106q20 -18 15 -34q-6 -18 -25 -18h-325v-46q0 -6 2 -36q2 -24 2 -33q0 -42 -62 -40q-37 2 -37 32v123h-435v-36v-30l4 -39q4 -47 -50 -53q-48 -5 -48 35v123h-51q-76 0 -162 -9zM1506 364
q198 -59 289 -97q157 -65 174 -153q5 -26 -11 -47q-12 -15 -30 -15q-22 0 -75 54q-100 105 -367 223zM468 1140q280 -132 280 -262q0 -59 -43 -59q-28 0 -49 30q-4 5 -35 68q-43 86 -153 174v-731q0 -108 11 -209q4 -29 4 -54q0 -38 -49 -42q-63 -3 -63 42v911
q-114 -263 -301 -472l-30 24q139 214 214 431q42 122 74 271h-90q-69 0 -149 -11l-39 86q126 -18 188 -18l133 1v393q-148 -23 -301 -34l-3 37q430 92 590 203l99 -90q19 -17 17 -34q-2 -23 -36 -17l-67 12q-110 -37 -202 -58v-412h123l91 91l114 -91q24 -19 21 -40
q-3 -18 -28 -18h-321v-122z" />
  </g>

</svg>
