<?xml version="1.0" standalone="no"?>
<!DOCTYPE svg PUBLIC "-//W3C//DTD SVG 1.1//EN" "http://www.w3.org/Graphics/SVG/1.1/DTD/svg11.dtd" >
<svg xmlns="http://www.w3.org/2000/svg" xmlns:xlink="http://www.w3.org/1999/xlink" version="1.1" viewBox="0 0 2048 2048">
  <g transform="matrix(1 0 0 -1 0 2048)">
   <path fill="currentColor"
d="M1446 1279v437q-144 -31 -352 -46l-6 39q392 60 698 223l75 -86l28 -32q7 -12 -3 -24t-25 -12q-12 0 -32 5l-48 14q-131 -37 -240 -61v-457h174l98 101l121 -107q21 -18 16 -33q-6 -19 -26 -19h-343q61 -243 173 -454q115 -216 245 -323l-4 -29q-18 2 -31 3
q-63 5 -104 -45q-97 141 -158 287q-76 182 -162 511l1 -782q0 -106 12 -209q3 -28 3 -54q0 -38 -49 -42q-62 -4 -62 42v998q-61 -217 -137 -379q-85 -179 -240 -371l-30 28q227 378 324 818l-93 1q-107 1 -192 -8l-38 88q95 -22 230 -22h177zM539 1411q-193 -218 -449 -336
l-17 30q244 160 392 383l-116 -1q-126 -1 -190 -7l-41 87q95 -25 231 -25h189v181q-63 -10 -248 -21q-61 -4 -89 -5l-4 41q15 2 85 9q131 12 281 56q149 43 249 116l97 -77q30 -23 27 -45q-3 -21 -33 -18q-23 1 -35 3l-42 8q-76 -27 -193 -52v-196h196l90 87l114 -93
q21 -16 16 -33q-5 -16 -13 -16l-37 2l-366 -2v-34q63 -26 94 -39q201 -83 209 -163q5 -53 -37 -61q-41 -7 -83 64q-30 51 -76 88q-11 9 -49 34q-20 13 -58 40v-69q10 -175 10 -180q4 -39 4 -70q0 -50 -60 -54q-21 -1 -37 9q-11 6 -11 42v317zM540 751v63q0 96 -7 135l95 -20
q71 -16 74 -37q3 -24 -43 -37l-34 -10v-94l67 -1l69 64l90 -68q18 -13 13 -28q-4 -16 -22 -16h-218v-49q183 -132 187 -198q2 -21 -14.5 -34.5t-37.5 -9.5q-20 3 -28 26q-27 72 -107 163v-57q-1 -79 10 -177q3 -23 3 -45q0 -36 -43 -36q-55 0 -55 33v241q-81 -123 -213 -208
l-23 27q138 144 201 324h-39q-40 0 -121 -6l-33 74q82 -19 154 -19h75zM864 1032l68 76l83 -54q41 -26 41 -48q0 -27 -78 -62v-575q0 -24 4 -84q2 -36 4 -80q2 -40 3 -59q6 -58 -63 -58q-42 0 -42 25v83h-601v-66q0 -40 -52 -37q-55 3 -51 60l4 56l3 80l4 76v581
q0 76 -9 161l116 -76zM884 975h-601v-723h601v723z" />
  </g>

</svg>
