<?xml version="1.0" standalone="no"?>
<!DOCTYPE svg PUBLIC "-//W3C//DTD SVG 1.1//EN" "http://www.w3.org/Graphics/SVG/1.1/DTD/svg11.dtd" >
<svg xmlns="http://www.w3.org/2000/svg" xmlns:xlink="http://www.w3.org/1999/xlink" version="1.1" viewBox="0 -205 1024 1024">
  <g transform="matrix(1 0 0 -1 0 819)">
   <path fill="currentColor"
d="M374 784l66 -51q7 -5 7 -9q0 -3 -7 -5q-28 9 -60 -10q-12 -8 -49 -31q-31 -19 -49 -30q-24 -15 -54 -30l38 -43h507l22 27l40 -26q9 -6 9 -11q0 -4 -9 -8l-8 -13v-429q0 -26 -12 -48t-75 -31q-4 30 -46 46q-42 15 -82 23l2 14q114 -17 133 -17q20 0 27 6q8 9 7 71v84
h-236v-118l2 -57q2 -37 -53 -46q5 39 7 112v109h-243q-7 -43 -21 -78q-40 -107 -163 -170l-6 14q171 121 159 426v104q-2 19 -17 50q-50 -22 -116 -45l-2 14q196 104 272 177q6 9 -1 18zM781 414h-236v-135h236v135zM261 279h240v135h-228q-1 -75 -12 -135zM545 430h236v125
h-236v-125zM864 703l-13 10l44 94h-726q-1 -4 -1 -8q-8 -86 -50 -105q-21 -10 -34 9t7 35t36 41q18 26 28 94h16q0 -21 -1 -46h721l36 41l59 -58q2 -5 -1 -7q-2 -2 -9 0q-29 -6 -47 -25l-9 -9q-14 -12 -56 -66zM273 555v-125h228v125h-228zM609 746l5 13q175 -40 252 -106
q56 -55 16 -77q-17 -4 -43 27q-26 33 -77 68t-153 75zM409 983l4 13q108 -26 135 -73q23 -48 -12 -61q-19 -4 -26 19q-7 26 -30 51q-22 26 -71 51z" />
  </g>

</svg>
