<?xml version="1.0" standalone="no"?>
<!DOCTYPE svg PUBLIC "-//W3C//DTD SVG 1.1//EN" "http://www.w3.org/Graphics/SVG/1.1/DTD/svg11.dtd" >
<svg xmlns="http://www.w3.org/2000/svg" xmlns:xlink="http://www.w3.org/1999/xlink" version="1.1" viewBox="0 -205 1024 1024">
  <g transform="matrix(1 0 0 -1 0 819)">
   <path fill="currentColor"
d="M665 516l73 -36q18 -7 8 -13q-14 1 -26 -14v-34q34 -142 86 -225q29 -44 79 -79q46 -31 103 -40l-1 -14q-34 2 -48 -1q-13 -4 -30 -22q-64 38 -105 95q-60 82 -93 219q-14 -61 -44 -126q-69 -132 -249 -201l-6 10q176 102 225 224q49 123 43 212q-5 19 -23 34zM73 331
h370l26 34l58 -44q7 -5 6 -8q-1 -2 -12 -2h-190v-197q-2 -35 -17 -53t-57 -28q-3 27 -23 37q-21 9 -84 27l4 18l42 -12q51 -12 71 -6q18 6 20 51v163h-134q-27 0 -46 -13zM848 789l-13 10l49 58h-710q0 -2 -1 -6v-4q-3 -33 -16 -59q-13 -27 -34 -36q-21 -10 -31 6
q-12 15 8 35l37 36q17 18 24 83h14v-35h706l39 42l54 -63q2 -6 -1 -8q-2 -1 -9 1q-26 -3 -38 -7q-12 -5 -27 -14q-16 -9 -51 -39zM391 690l39 -38q9 -12 9 -17t-9 -4q-24 8 -76 -4q-109 -23 -182 -26q0 -33 4 -52q4 -21 79 -22q111 0 138 1q39 2 51 26q6 48 5 75h13l2 -22
q1 -52 25 -60q-9 -18 -18 -25q-8 -8 -20 -14q-7 -3 -27 -6q-4 -1 -6 -1q-8 -1 -38 -2h-35h-55q-62 0 -83 1q-27 2 -40 7q-33 12 -34 85v73q3 11 -9 23l9 10l70 -23q6 -6 -1 -9q-17 -2 -29 -17v-33l53 9q40 9 94 24q6 1 9 2q33 9 43 14q9 5 11 23zM514 393l-8 10
q45 78 72 142q26 63 35 101q9 36 6 43t-12 22l11 5l71 -35q2 -4 1 -6t-6 -2q-12 1 -25 -17q-11 -38 -37 -95h226l32 39l61 -58q2 -6 -1 -8q-2 -1 -9 1q-22 -4 -38 -10q-14 -6 -29 -18t-57 -58l-13 4l55 88h-236q-1 -1 -2 -4l-3 -6q-39 -81 -94 -138zM569 790l5 14
q149 -6 218 -23q70 -17 100 -35q31 -20 36 -40q5 -21 -9 -31q-16 -9 -44 18q-30 28 -90 53q-60 26 -216 44zM383 842l69 -51q7 -5 7 -8q0 -4 -7 -5q-40 7 -57 -2q-131 -64 -328 -84l-2 14q213 45 303 103q13 12 7 25zM169 283l57 -34q16 -12 7 -17q-20 -1 -35 -13
q-59 -83 -121 -132l-8 12q38 47 65 86q27 45 32 58q4 13 -5 31zM129 430h254l27 34l58 -40q7 -5 6 -8q-1 -2 -12 -2h-254q-27 0 -45 -13zM388 269l4 11q48 -30 68 -50q19 -18 31 -46q11 -28 8 -44q-4 -18 -19 -20q-15 -5 -22 29q-6 29 -16 52q-15 25 -54 68zM403 985l4 13
q75 -11 101 -23t39 -28q14 -17 11 -32q-3 -17 -21 -20q-18 -4 -25 17q-9 21 -25 36q-18 16 -84 37z" />
  </g>

</svg>
