<?xml version="1.0" standalone="no"?>
<!DOCTYPE svg PUBLIC "-//W3C//DTD SVG 1.1//EN" "http://www.w3.org/Graphics/SVG/1.1/DTD/svg11.dtd" >
<svg xmlns="http://www.w3.org/2000/svg" xmlns:xlink="http://www.w3.org/1999/xlink" version="1.1" viewBox="0 0 2048 2048">
  <g transform="matrix(1 0 0 -1 0 2048)">
   <path fill="currentColor"
d="M522 482h-284q-67 0 -149 -11l-39 86q122 -18 188 -18h178v111h-37q-93 -3 -148 -10l-39 86q128 -19 187 -18h37v35q0 118 -8 160l109 -24q83 -18 86 -44q3 -30 -49 -43l-42 -12v-72h64l80 80l107 -80q18 23 78 106l113 -67q27 -16 27 -33q0 -29 -44 -27l-45 2
q-107 -105 -163 -150h60l80 80l114 -86q21 -16 16 -33q-6 -19 -26 -19h-316q-98 -71 -196 -122v-18h151l80 82l102 -85q14 -12 19 -24q4 -11 -4 -21q-8 -8 -20 -8h-328l1 -38q1 -26 18 -35.5t67 -12.5q228 -13 271 28q24 22 49 179l34 -7l-1 -93q0 -40 13 -60q3 -5 29 -35
q9 -9 10 -24q6 -50 -102 -65q-80 -11 -306 -11q-181 0 -181 117v84q-121 -50 -256 -93l-10 45q235 82 425 218zM595 539q63 54 117 111h-200v-111h83zM1323 867l-28 1q-376 4 -438 19q-111 27 -111 129v49q-198 -47 -553 -72l-4 38q318 42 494 83q176 42 354 110h-670
q-68 0 -148 -11l-39 86q123 -18 187 -18h550v107h-258q-68 0 -148 -11l-39 86q123 -18 187 -18h258v39q0 123 -9 160l109 -24q83 -18 86 -44q3 -29 -49 -43l-41 -12v-76h137l80 81l114 -86q21 -16 15 -34q-5 -18 -25 -18h-321v-107h155q230 114 336 231q-42 2 -64 3
q-122 5 -171 25q-77 32 -77 131v80h-469l79 -47q42 -25 40 -44q-2 -29 -49 -25l-52 4q-151 -72 -282 -106q-130 -34 -329 -57l-2 34q144 28 318 92q168 61 258 149h-462q-23 -205 -124 -205q-26 0 -42 21q-12 16 -9 36q4 25 36 48q98 70 101 237h34l4 -79h799
q-27 79 -101 145l17 23q72 -29 106 -49q49 -28 51 -67q2 -30 -28 -52h711l59 72l65 -50q62 -48 66 -61q7 -26 -38 -32l-46 -6q-57 -43 -116 -89l-27 20q9 18 22 42q11 23 24 46h-520l1 -76q1 -59 64 -68q84 -12 163 -12q166 0 243 19q45 11 53 12q32 2 57 -25q12 -14 11 -29
q-5 -44 -176 -54q-142 -9 -184 -7l84 -52q56 -36 40 -61q-4 -7 -11 -8q-4 0 -33 1l-50 1q-35 -20 -110 -67q-28 -18 -77 -44h294l81 81l114 -86q21 -16 15 -34t-26 -18h-589q-156 -67 -355 -124h529l80 80l114 -86q21 -16 16 -33q-6 -19 -26 -19h-767l1 -26q3 -50 74 -57
q23 -2 205 -8l144 1l80 -2l83 1q270 0 297 27q19 19 42 135l39 -6l-4 -57q-2 -30 14 -53q4 -6 32 -38q9 -11 11 -19q10 -45 -78 -61q-70 -13 -240 -13l-121 2h-26l36 -8q82 -19 85 -44q4 -30 -49 -44l-42 -11v-65h65l80 81l80 -61q27 34 74 98l110 -67q34 -21 30 -41
q-3 -17 -15 -19q-4 -1 -29 0l-45 2q-98 -94 -170 -150h136l80 80l114 -86q21 -16 15 -33q-5 -19 -25 -19l-396 1q-96 -68 -201 -120v-21h251l80 82l101 -85q14 -12 19 -24q12 -29 -33 -29h-418l2 -23q2 -47 72 -60q78 -15 185 -15q222 0 251 35q19 24 43 173l34 -7v-93
q0 -39 12 -59q3 -6 30 -35q8 -10 10 -25q4 -38 -76 -59q-57 -15 -244 -15q-219 0 -295 16q-64 14 -93 58q-24 35 -24 67v76q-76 -31 -265 -92l-11 35q247 98 437 220h-195q-67 0 -149 -11l-39 86q122 -18 188 -18h128v100h-36q-95 -4 -149 -11l-39 86q127 -19 188 -18l36 1
v27q0 69 -5 143zM1470 539q52 43 110 100h-156v-100h46z" />
  </g>

</svg>
