<?xml version="1.0" standalone="no"?>
<!DOCTYPE svg PUBLIC "-//W3C//DTD SVG 1.1//EN" "http://www.w3.org/Graphics/SVG/1.1/DTD/svg11.dtd" >
<svg xmlns="http://www.w3.org/2000/svg" xmlns:xlink="http://www.w3.org/1999/xlink" version="1.1" viewBox="0 -205 1024 1024">
  <g transform="matrix(1 0 0 -1 0 819)">
   <path fill="currentColor"
d="M412 514h368v137q-1 23 -26 46l8 11l86 -38q9 -4 11 -7q2 -4 -4 -7q-18 -5 -31 -16v-126h70l32 40l68 -50q8 -5 7 -8q-2 -2 -13 -2h-164v-385q-1 -31 -17 -50q-15 -19 -83 -35q-3 31 -26 42q-22 10 -87 26l4 18l42 -10q128 -31 123 38v356h-289q-27 1 -45 -13zM313 660
l76 -30q17 -10 7 -15q-25 -1 -35 -23q-61 -221 -96 -332l181 42l6 -18l-244 -71q-89 -25 -107 -36q-17 -12 -25 -27l-48 56l211 48l20 89q64 265 59 280q-4 15 -15 28zM516 843q0 -19 1 -42h396l37 37l57 -54q2 -5 -1 -7q-2 -2 -9 0q-26 -1 -43 -24q-12 -13 -42 -60l-13 4
l28 84h-410v-7q-4 -88 -42 -110q-18 -7 -31 9t6 32q19 17 29 42q11 26 18 96h19zM82 630l10 10q42 -36 76 -118q35 -82 30 -139q-4 -56 -32 -56t-20 49q8 50 -13 130q-19 81 -51 124zM22 751h308l32 40l68 -50q8 -5 7 -8q-2 -2 -13 -2h-323q-27 1 -45 -13zM128 961l6 10
q121 -57 128 -148q0 -36 -23 -38q-23 -1 -25 30q-1 33 -21 69q-18 36 -65 77zM505 411l10 12q86 -65 108 -121q22 -63 -16 -70q-18 2 -19 30q-1 29 -26 72t-57 77zM618 988l4 13q107 -41 130 -86q23 -53 -15 -62q-18 0 -25 26q-6 27 -25 49q-18 23 -69 60z" />
  </g>

</svg>
