<?xml version="1.0" standalone="no"?>
<!DOCTYPE svg PUBLIC "-//W3C//DTD SVG 1.1//EN" "http://www.w3.org/Graphics/SVG/1.1/DTD/svg11.dtd" >
<svg xmlns="http://www.w3.org/2000/svg" xmlns:xlink="http://www.w3.org/1999/xlink" version="1.1" viewBox="0 0 2048 2048">
  <g transform="matrix(1 0 0 -1 0 2048)">
   <path fill="currentColor"
d="M609 1509l75 -23q76 -23 76 -48q0 -23 -53 -36l-42 -9q-78 -503 -180 -843q91 29 283 97l13 -36q-79 -47 -244 -124q-42 -20 -181 -75q-76 -30 -176 -73l-9 -35q-7 -32 -27 -32q-22 0 -39 37l-57 125q120 18 203 42q-39 28 -32 77q2 15 8 43q17 80 17 194q0 204 -67 680
l-5 36q-33 -2 -73 -8l-39 86q123 -17 187 -17h170q-18 25 -24 58q-16 91 -59 169q-21 41 -88 135l26 24l50 -45q185 -163 173 -286q-2 -29 -31 -55h171l80 80l114 -86q21 -16 16 -33q-6 -19 -26 -19h-210zM577 1509h-330q-15 0 -36 -1l6 -30q122 -598 122 -830
q0 -113 -39 -157q54 17 130 43q78 331 126 770q19 171 21 205zM886 1572l-38 89q93 -24 230 -24h267v168q0 120 -8 160l109 -24q83 -19 86 -44q3 -30 -49 -44l-44 -11v-205h313l88 88l120 -93q15 -11 17 -24q4 -28 -25 -28h-513v-238h314l68 76l84 -54q40 -26 40 -49
q0 -27 -78 -61v-1032q0 -121 -143 -143q1 63 -45 88q-35 19 -112 32l7 42q101 -23 153 -23q44 0 44 61v300h-332v-163q0 -108 11 -209q3 -29 3 -54q0 -42 -49 -42q-59 0 -59 42v426h-321v-449q0 -59 -69 -53q-45 4 -42 49q1 18 4 46q12 111 12 209v913q0 9 -4 84
q-1 15 -2 44l108 -80h314v238h-267q-117 0 -192 -8zM1024 987h321v299h-321v-299zM1439 1286v-299h332v299h-332zM1439 931v-296h332v296h-332zM1024 635h321v296h-321v-296zM1616 1960q92 -57 137 -92q62 -49 56 -102q-2 -19 -15 -33q-19 -21 -44 -14q-24 7 -44 64
q-24 65 -112 147z" />
  </g>

</svg>
