<?xml version="1.0" standalone="no"?>
<!DOCTYPE svg PUBLIC "-//W3C//DTD SVG 1.1//EN" "http://www.w3.org/Graphics/SVG/1.1/DTD/svg11.dtd" >
<svg xmlns="http://www.w3.org/2000/svg" xmlns:xlink="http://www.w3.org/1999/xlink" version="1.1" viewBox="0 0 2048 2048">
  <g transform="matrix(1 0 0 -1 0 2048)">
   <path fill="currentColor"
d="M1682 576h68l99 101l120 -107q21 -18 16 -33q-6 -19 -26 -19h-941q-68 0 -149 -11l-39 86q120 -17 188 -17h52v934q-98 -5 -145 -12l-39 86q102 -14 184 -17v189q0 118 -8 160l109 -24q83 -19 86 -44q3 -30 -50 -44l-42 -11v-226h421v193q0 117 -8 160l109 -24
q83 -19 86 -44q3 -29 -50 -44l-42 -11v-230h39l99 102l120 -107q20 -18 16 -34q-6 -18 -26 -18h-248zM1586 576v293h-421v-293h421zM1165 1508v-261h421v261h-421zM1165 923h421v268h-421v-268zM1543 430q359 -179 368 -300q2 -22 -11 -38q-15 -19 -37 -19t-39 21
q-3 4 -56 80q-75 110 -245 222zM1165 476l115 -62q30 -16 33 -34q5 -26 -41 -29l-49 -3q-17 -14 -79 -72q-130 -121 -365 -206l-15 36q301 159 401 370zM646 1486l75 -24q77 -23 77 -47t-54 -36l-42 -10q-81 -514 -179 -842q88 28 282 97l14 -36q-78 -47 -244 -125
q-43 -19 -193 -80q-84 -34 -180 -75l-6 -32q-6 -34 -30 -35q-21 -2 -39 37l-57 124q89 14 218 51q-38 27 -35 77q1 18 8 55q19 109 19 243q0 186 -61 569l-13 86q-53 -1 -108 -8l-39 86q121 -18 188 -18h207q-18 25 -24 58q-16 93 -58 170q-21 38 -89 135l27 23q9 -9 49 -44
q186 -164 174 -287q-3 -28 -31 -55h148l80 81l114 -86q21 -16 15 -34q-5 -18 -25 -18h-188zM614 1486h-329h-39q25 -125 41 -200q93 -432 93 -680q0 -107 -42 -139q50 16 129 43q83 350 142 917q4 39 5 59z" />
  </g>

</svg>
