<?xml version="1.0" standalone="no"?>
<!DOCTYPE svg PUBLIC "-//W3C//DTD SVG 1.1//EN" "http://www.w3.org/Graphics/SVG/1.1/DTD/svg11.dtd" >
<svg xmlns="http://www.w3.org/2000/svg" xmlns:xlink="http://www.w3.org/1999/xlink" version="1.1" viewBox="0 0 2048 2048">
  <g transform="matrix(1 0 0 -1 0 2048)">
   <path fill="currentColor"
d="M1109 724q-2 60 -3 103q-1 21 -4 38l106 -28q66 -17 69 -40q2 -22 -47 -39l-30 -11v-155q0 -41 -53 -41q-38 0 -38 31v88h-156q-60 0 -149 -12l-39 86q120 -20 188 -20h156zM1529 670v-78q0 -41 -52 -41q-38 0 -38 31v123q-5 144 -7 160l105 -28q66 -17 69 -40
q2 -22 -47 -39l-30 -11v-23h139l80 84l114 -84q21 -16 16 -35q-6 -19 -26 -19h-323zM610 1509l72 -23q73 -23 73 -48q0 -23 -51 -36l-41 -9q-71 -489 -172 -843q74 25 188 67l52 19l13 -36q-70 -44 -222 -119q-46 -23 -164 -72q-72 -29 -162 -70l-7 -35q-7 -32 -27 -32
q-22 0 -37 36l-55 126q115 18 195 42q-37 29 -31 77q2 16 8 44q16 79 16 193q0 212 -64 680l-5 36q-28 -2 -71 -8l-37 86q117 -17 180 -17h164q-17 24 -23 58q-15 92 -56 169q-22 41 -85 136l24 23q10 -9 48 -44q179 -163 167 -287q-2 -28 -30 -55h165l77 80l109 -86
q21 -16 15 -34t-24 -18h-202zM579 1509h-318h-19h-15l5 -31q117 -599 117 -830q0 -114 -36 -157q51 17 124 43q78 343 142 975zM1008 1634l105 -61h449l61 73l72 -49q38 -26 42 -44q5 -20 -26 -38l-12 -6q-10 -5 -27 -14v-85l30 -18q26 -16 22 -34q-5 -17 -22 -17h-600v-9
q-9 -42 -66 -39q-28 1 -28 23v318zM1102 1397h476v119h-476v-119zM1326 1731q-9 15 -22 52q-23 65 -100 142l25 24q143 -90 157 -142q12 -42 -19 -76h401l83 91l112 -91q20 -16 15 -36t-26 -20h-1027q-59 0 -149 -11l-39 86q114 -19 188 -19h401zM1673 527l80 80l113 -84
q22 -16 17 -33q-6 -19 -26 -19h-466v-144h355l80 81l114 -81q22 -15 16 -35q-6 -21 -26 -21h-539v-72q3 -67 4 -72q3 -34 3 -41q0 -41 -58 -44q-48 -2 -48 27l-1 202h-393q-71 0 -149 -10l-39 86q118 -20 188 -20h393v144h-292q-71 0 -149 -11l-39 90q119 -23 188 -23h674z
M1771 963l31 -27q17 -15 15 -30q-3 -15 -23 -15h-822v-31q-8 -42 -70 -42q-25 0 -25 24v462l127 -65h657l61 73l72 -50q37 -25 41 -44q5 -20 -25 -37q-6 -4 -12 -7q-9 -4 -27 -14v-197zM1677 1037h-705v-89h705v89zM972 1093h705v89h-705v-89z" />
  </g>

</svg>
