<?xml version="1.0" standalone="no"?>
<!DOCTYPE svg PUBLIC "-//W3C//DTD SVG 1.1//EN" "http://www.w3.org/Graphics/SVG/1.1/DTD/svg11.dtd" >
<svg xmlns="http://www.w3.org/2000/svg" xmlns:xlink="http://www.w3.org/1999/xlink" version="1.1" viewBox="0 0 2048 2048">
  <g transform="matrix(1 0 0 -1 0 2048)">
   <path fill="currentColor"
d="M1269 1730l471 -1l99 101l120 -107q20 -17 16 -33q-5 -17 -36 -17l-715 -1q-100 -120 -301 -244l-18 30q120 94 204 200q88 112 172 308l104 -39q56 -21 56 -41q0 -25 -44 -30l-43 -5q-25 -42 -85 -121zM643 165l-1 44q228 -38 266 -34q39 5 39 55v368h-468
q-63 0 -148 -10l-40 86q126 -18 188 -18h468v278h-680q-67 0 -148 -11l-40 86q122 -18 188 -18l680 1v260h-462q-69 0 -149 -10l-39 86q27 -4 40 -6q86 -13 148 -13h1074l60 71l73 -49q37 -25 42 -44q5 -20 -25 -37q-7 -4 -13 -7q-10 -4 -27 -14v-237h79l98 98l121 -107
q20 -17 16 -32q-6 -17 -26 -17h-288v-230l79 -61q8 -6 9 -15q4 -30 -16 -30h-700v-402q0 -147 -156 -178q-15 84 -77 108q-11 5 -165 39zM1041 1252v-260h540v260h-540zM1041 934v-278h540v278h-540zM516 1632q100 -43 135 -64q114 -67 114 -132q0 -25 -18 -40t-41 -9
q-26 7 -47 49q-35 69 -80 108q-28 25 -81 61zM397 1673q-139 -129 -319 -221l-19 31q266 178 421 475l123 -59q28 -14 28 -31q0 -28 -39 -30l-53 -4q-51 -64 -87 -105h392l98 102l121 -107q20 -18 15 -34q-5 -18 -25 -18zM1368 1631q249 -108 249 -197q0 -25 -18 -40
q-18 -14 -41 -8q-26 7 -47 48q-47 93 -161 170z" />
  </g>

</svg>
