<?xml version="1.0" standalone="no"?>
<!DOCTYPE svg PUBLIC "-//W3C//DTD SVG 1.1//EN" "http://www.w3.org/Graphics/SVG/1.1/DTD/svg11.dtd" >
<svg xmlns="http://www.w3.org/2000/svg" xmlns:xlink="http://www.w3.org/1999/xlink" version="1.1" viewBox="0 0 2048 2048">
  <g transform="matrix(1 0 0 -1 0 2048)">
   <path fill="currentColor"
d="M1672 1382l80 -44q66 -36 61 -56q-5 -21 -51 -21h-47q-250 -182 -588 -276l-10 38q394 160 555 359zM1854 650l97 -63q55 -35 44 -60q-9 -20 -42 -15l-44 7q-226 -177 -425 -274q-171 -82 -442 -154l-11 43q531 164 823 516zM1794 1023l100 -65q47 -30 36 -55
q-9 -20 -42 -15l-44 7q-168 -121 -293 -182q-128 -63 -261 -103q-32 -9 -143 -41l-14 35q233 88 369 171q159 95 292 248zM945 1249q-144 -44 -270 -73v-380h262l98 101l121 -106q20 -18 16 -34q-6 -18 -26 -18h-472v-472q0 -52 7 -122q2 -11 3 -32q3 -65 -65 -65
q-24 0 -34 10q-5 4 -5 30l-1 651l-270 -1q-121 0 -192 -8l-38 88q98 -23 230 -23l269 1l-1 361q-244 -39 -407 -45l-4 39q502 72 747 226l86 -72q35 -30 38 -44q4 -27 -34 -22q-27 2 -58 10zM1216 1669q-6 -7 -17 -20q-82 -100 -236 -195l-23 28q219 188 316 461l108 -47
q49 -22 49 -43q0 -22 -47 -29l-42 -5q-31 -48 -64 -94h473l99 102l120 -107q20 -18 16 -34q-5 -17 -33 -17h-719zM1407 1645q99 -43 135 -64q114 -67 114 -132q0 -26 -18 -40q-18 -15 -41 -9q-26 7 -47 49q-36 69 -80 108q-28 25 -82 61zM414 1664q-135 -186 -324 -318
l-24 32q251 210 381 571l106 -48q45 -20 45 -43q0 -25 -45 -29l-34 -2q-30 -47 -69 -106h362l98 102l121 -107q20 -18 15 -34q-4 -17 -32 -17zM543 1626q100 -43 135 -64q114 -67 114 -132q0 -26 -18 -41q-18 -14 -41 -8q-26 7 -47 49q-35 69 -80 108q-28 25 -81 61z" />
  </g>

</svg>
