<?xml version="1.0" standalone="no"?>
<!DOCTYPE svg PUBLIC "-//W3C//DTD SVG 1.1//EN" "http://www.w3.org/Graphics/SVG/1.1/DTD/svg11.dtd" >
<svg xmlns="http://www.w3.org/2000/svg" xmlns:xlink="http://www.w3.org/1999/xlink" version="1.1" viewBox="0 -205 1024 1024">
  <g transform="matrix(1 0 0 -1 0 819)">
   <path fill="currentColor"
d="M45 375h620v59q-1 23 -26 46l8 11l86 -38q9 -4 11 -7q2 -4 -4 -7q-18 -5 -31 -16v-48h154l32 40l68 -50q8 -5 7 -8q-2 -2 -13 -2h-248v-251q-1 -35 -17 -54q-15 -19 -83 -35q-3 31 -26 42q-22 10 -87 26l4 18l42 -10q71 -16 96 -6q27 10 27 52v218h-541q-27 1 -45 -13z
M180 1002l86 -50q4 -4 3 -6q0 -3 -5 -5q-19 1 -36 -8q-3 -7 -8 -21q-8 -20 -12 -29h223l32 40l68 -50q8 -6 7 -8q-2 -3 -13 -2h-225q26 -13 42 -27q44 -41 39 -84q-3 -21 -22 -20q-19 2 -22 21q-1 20 -12 43q-10 23 -23 37q-10 12 -36 30h-67q-59 -132 -128 -196l-13 11
q60 88 96 179q38 92 33 107q-3 15 -15 29zM593 1006l90 -51q4 -4 3 -6q0 -3 -5 -5q-22 1 -38 -8q-5 -13 -16 -37q-4 -10 -6 -14h236l36 46l70 -56q8 -6 7 -8q-2 -3 -13 -2h-230q21 -13 37 -28q44 -40 37 -81q-3 -21 -23 -19q-19 2 -22 21q-1 20 -9 37q-7 17 -21 36
q-11 15 -31 34h-84q-53 -109 -110 -165l-18 6q51 75 86 160q36 85 32 100q-3 15 -14 29zM820 739l57 -52q9 -8 9 -13q0 -4 -9 -5q-25 10 -63 4q-189 -30 -376 -38q-186 -8 -332 4v14l184 8q364 19 511 54q10 6 11 20zM151 594l6 11q101 -29 128 -96q19 -58 -25 -61
q-17 2 -19 28q-1 27 -25 58q-23 32 -65 60zM796 659l66 -36q17 -10 7 -15q-28 1 -45 -13q-68 -76 -118 -110l-12 8l40 48q60 78 61 87t-7 24zM276 308l6 14q137 -61 127 -135q-3 -24 -24 -24q-21 -1 -21 24q-3 57 -88 121zM411 612l7 9q91 -33 116 -93q14 -56 -26 -58
q-18 2 -18 25q1 24 -19 56q-19 32 -60 61z" />
  </g>

</svg>
