<?xml version="1.0" standalone="no"?>
<!DOCTYPE svg PUBLIC "-//W3C//DTD SVG 1.1//EN" "http://www.w3.org/Graphics/SVG/1.1/DTD/svg11.dtd" >
<svg xmlns="http://www.w3.org/2000/svg" xmlns:xlink="http://www.w3.org/1999/xlink" version="1.1" viewBox="0 0 2048 2048">
  <g transform="matrix(1 0 0 -1 0 2048)">
   <path fill="currentColor"
d="M1091 1117q140 95 235 202l101 -81q31 -26 28 -42q-6 -31 -46 -25l-62 10q-19 -12 -82 -57q-27 -19 -69 -45q270 -112 292 -177q6 -19 -3 -38q-12 -28 -33 -32q-24 -3 -113 59q-103 72 -236 133q-245 -132 -576 -193l-7 40q254 58 489 194q-178 74 -417 145l11 37
q264 -54 488 -130zM1304 539q275 -117 392 -193q152 -98 158 -182q2 -20 -7 -36q-14 -27 -40 -27q-32 0 -60 32q-14 16 -50 62q-118 149 -412 314zM601 553l118 -68q34 -20 34 -36q0 -27 -45 -27h-51q-158 -138 -235 -184q-112 -66 -276 -117l-14 33q303 140 469 399z
M1613 1345l-1169 -1l2 -529q0 -39 -69 -39q-46 0 -43 52l4 55q8 128 8 142l2 320q0 33 -12 133l116 -75l1142 -2l68 76l83 -54q40 -26 40 -49q0 -29 -79 -61l1 -225q0 -110 13 -219q3 -29 3 -54q0 -39 -49 -42q-63 -5 -63 42zM1228 1706q-98 -115 -238 -202l-23 29
q181 158 293 436l108 -47q49 -22 49 -44q0 -21 -47 -28l-42 -6q-28 -42 -56 -81h461l99 101l120 -107q20 -17 16 -33q-5 -18 -33 -18h-707zM1073 590v-233q0 -107 12 -219q4 -28 4 -54q0 -39 -49 -42q-63 -4 -63 42v506h-688q-63 0 -148 -11l-39 86q125 -18 187 -18h688v45
q0 117 -8 160l109 -24q83 -18 86 -44t-50 -43l-41 -14v-80h634l108 114l131 -112q27 -23 22 -40q-5 -19 -26 -19h-869zM1368 1664q224 -93 224 -172q0 -22 -17 -35q-16 -13 -37 -8q-23 6 -42 43q-41 80 -145 148zM366 1699q-6 -7 -17 -20q-84 -102 -236 -196l-23 29
q209 180 309 452l109 -47q49 -22 49 -44t-48 -28l-41 -6q-29 -44 -58 -84h408l99 101l120 -106q20 -18 16 -34q-5 -17 -33 -17h-654zM514 1664q19 -8 28 -12q207 -84 207 -165q0 -22 -17 -36q-18 -13 -39 -8q-24 7 -44 44q-45 85 -153 153z" />
  </g>

</svg>
