<?xml version="1.0" standalone="no"?>
<!DOCTYPE svg PUBLIC "-//W3C//DTD SVG 1.1//EN" "http://www.w3.org/Graphics/SVG/1.1/DTD/svg11.dtd" >
<svg xmlns="http://www.w3.org/2000/svg" xmlns:xlink="http://www.w3.org/1999/xlink" version="1.1" viewBox="0 0 2048 2048">
  <g transform="matrix(1 0 0 -1 0 2048)">
   <path fill="currentColor"
d="M342 561l40 -6q-12 -143 -43 -222q-23 -60 -76 -104q-43 -37 -91 -42q-29 -3 -49 9t-20 33q0 30 67 65q94 49 132 132q16 32 40 135zM1573 590q119 -74 180 -122q123 -96 132 -191q4 -31 -14 -55q-12 -17 -32 -19q-50 -6 -75 68q-56 173 -217 287zM1418 506l-5 -164
q-2 -57 16 -80q4 -5 37 -34q16 -13 17 -28q4 -48 -109 -64q-94 -14 -311 -14q-360 0 -430 9q-104 14 -104 128v196q-4 144 -7 160l109 -24q83 -18 86 -43q3 -30 -50 -44l-41 -11v-181q0 -70 31 -82q35 -13 246 -14l150 -1q185 0 234 12q46 10 60 59q14 46 36 225zM1309 881
q-34 40 -175 158l20 24q351 -206 364 -316q6 -53 -37 -65q-21 -6 -42 15q-10 11 -40 62q-22 38 -49 70l-15 19q-317 -60 -769 -106l-6 -23q-9 -35 -25 -37q-21 -2 -44 50l-37 85q157 77 270 202q66 73 140 199l111 -60q38 -21 34 -41q-4 -24 -50 -24h-37
q-110 -121 -343 -261q66 8 177 12q360 13 553 37zM1212 1687q-96 -113 -238 -202l-23 29q180 157 292 436l109 -47q49 -22 49 -44q0 -21 -48 -28l-41 -6q-28 -42 -56 -82h461l99 102l120 -107q20 -18 16 -33q-5 -18 -33 -18h-707zM509 1645q19 -8 28 -12q207 -85 207 -165
q0 -22 -17 -36q-18 -13 -39 -8q-24 7 -44 44q-46 85 -153 153zM865 648q125 -47 163 -66q128 -64 153 -141q11 -35 -8 -63q-14 -22 -44 -22q-36 0 -75 70q-55 101 -208 190zM653 1398l112 -62q38 -21 35 -42q-4 -28 -54 -28h-41q-237 -233 -561 -347l-14 34q398 196 523 445
zM1029 1386l151 1l64 71l90 -64q19 -13 19 -29q0 -15 -19 -25l-42 -23q117 -139 325 -228q126 -53 204 -66q66 -11 85 -14l-2 -31q-90 -3 -124 -74q-166 50 -329 181q-155 123 -223 247h-199v54zM361 1680q-6 -7 -17 -20q-84 -102 -236 -196l-23 29q209 180 309 452l109 -48
q49 -21 49 -43t-48 -28l-41 -6q-29 -44 -58 -84h408l99 101l120 -107q20 -17 16 -33q-5 -17 -33 -17h-654zM1416 1645q224 -95 224 -172q0 -22 -17 -35q-16 -13 -37 -8q-23 6 -42 43q-41 79 -145 148z" />
  </g>

</svg>
