<?xml version="1.0" standalone="no"?>
<!DOCTYPE svg PUBLIC "-//W3C//DTD SVG 1.1//EN" "http://www.w3.org/Graphics/SVG/1.1/DTD/svg11.dtd" >
<svg xmlns="http://www.w3.org/2000/svg" xmlns:xlink="http://www.w3.org/1999/xlink" version="1.1" viewBox="0 -200 999 1000">
  <g transform="matrix(1 0 0 -1 0 800)">
   <path fill="currentColor"
d="M359 650l-15 -5q16 -46 44.5 -95t67 -93t86.5 -78t103 -50q-32 -6 -48.5 -15t-39.5 -19q-35 23 -68.5 58t-62.5 78t-53 92t-40 100q-26 -57 -57 -115t-66.5 -109t-74.5 -91.5t-80 -62.5l-10 -2q40 36 81 93t76 121t60 127t32 110zM248 375l-19 32h123l24 38l49 -60h-146z
M262 281h119l41 47l57 -60l-31 -38v-170h-198v-38q-5 -9 -13 -14t-16 -7.5t-15.5 -3t-10.5 -0.5v311zM250 81h144v178h-144v-178zM245 957l5 -19q-31 -16 -41.5 -34.5t-18.5 -38.5h77l44 38l47 -60h-171q24 -20 38.5 -33.5t23 -25.5t12 -25.5t5.5 -33.5q-4 -20 -10 -27.5
t-13 -7.5q-15 0 -19 12.5t-7 33.5t-8.5 48.5t-23.5 57.5h-2q-14 -31 -26.5 -59.5t-27.5 -53.5t-33 -45.5t-42 -35.5v2q44 66 72 157.5t50 194.5zM481 957l-22 -18q-8 -20 -14.5 -39t-15.5 -36h101l42 39l46 -61h-194q30 -22 47 -35t26.5 -23t13.5 -20t7 -26q0 -17 -8 -28.5
t-18 -11.5q-8 0 -15 15t-14.5 37.5t-16.5 47t-22 44.5h-3q-5 -18 -15 -38.5t-24 -41.5t-32 -39.5t-39 -31.5h-4q24 37 40.5 72.5t29 73t23 78t21.5 87.5zM701 901h-85l-58 -13l-22 34h299l46 42l65 -63h-194v-234l2 2q37 -18 70 -42t58 -48.5t40 -47t15 -37.5
q0 -27 -9.5 -41.5t-22.5 -14.5q-11 0 -21 14.5t-18 39.5q-18 42 -47.5 87t-66.5 79v-625q-6 -11 -20.5 -21t-30.5 -10v899z" />
  </g>

</svg>
