<?xml version="1.0" standalone="no"?>
<!DOCTYPE svg PUBLIC "-//W3C//DTD SVG 1.1//EN" "http://www.w3.org/Graphics/SVG/1.1/DTD/svg11.dtd" >
<svg xmlns="http://www.w3.org/2000/svg" xmlns:xlink="http://www.w3.org/1999/xlink" version="1.1" viewBox="0 -205 1024 1024">
  <g transform="matrix(1 0 0 -1 0 819)">
   <path fill="currentColor"
d="M956 66l2 -16q-45 -3 -55 -8q-14 -4 -20 -18q-81 6 -189 28q-89 18 -167 45q-37 -15 -84 -29q-103 -30 -186 -39q-82 -9 -195 -15v18q126 8 201 23t153 39q31 10 61 22q-84 35 -189 133h-4l-44 -2l-18 -14l-40 32h525l33 24l51 -39q5 -4 5 -7q-1 -3 -8 -5h-3
q-31 1 -72 -36q-31 -26 -99 -64q-8 -5 -25 -13q-8 -5 -12 -7q32 -9 64 -17q125 -30 248 -32q44 -1 67 -3zM511 737l36 -26h201l16 27l50 -33q7 -9 -10 -12l-14 -12v-148q2 -39 24 -40q80 -2 92 10q14 12 15 52l5 66h13l4 -56q3 -49 23 -58q-19 -50 -87 -46q-37 -1 -62 -1
q-67 5 -67 66v169h-192q2 -25 0 -48l5 10q50 -12 87 -39q38 -27 42 -51t-14 -28t-26 17q-7 21 -33 49q-25 27 -61 40q-6 -79 -47 -118q-55 -52 -151 -66l-4 12q76 26 122 66t40 158q0 15 -16 27zM700 408q-4 -63 17 -70q21 -6 105 -5q47 5 66 18h5q15 -13 34 -26
q19 -12 8 -14l-46 -8l-48 -4q-103 -1 -129 1q-24 3 -38 16q-14 14 -14 66v39h-323q-7 -94 -93 -130q-91 -38 -198 -38l-4 12q102 14 177 48q75 35 81 114q-4 21 -20 37l11 9l42 -36h321l22 27l43 -27q6 -5 4 -10q-1 -4 -10 -6zM488 147q17 -6 35 -12q5 2 15 7q20 9 30 13
q74 39 134 94h-388q102 -78 174 -102zM209 1007l78 -44q4 -4 3 -6q0 -3 -5 -5q-19 1 -32 -8q-17 -30 -34 -56h216l32 40l68 -50q8 -6 7 -8q-2 -3 -13 -2h-228q29 -17 43 -29q42 -36 35 -71q-4 -20 -22 -23q-17 -2 -22 23q-4 25 -12 41q-7 16 -19 29q-9 11 -32 30h-66
q-73 -109 -146 -160l-13 11q75 74 123 157q48 84 45 96q-2 12 -14 26zM607 1001l78 -42q4 -4 3 -6q0 -3 -5 -5q-15 1 -34 -10q-12 -26 -26 -50h238l36 46l70 -56q8 -6 7 -8q-2 -3 -13 -2h-278q32 -17 48 -32q57 -63 11 -83q-14 -2 -20 17q-6 20 -15 36q-8 17 -20 29
q-10 11 -35 33h-41q-40 -65 -91 -116l-13 11q93 141 104 204q0 11 -12 25zM285 525q-12 -3 -33 -8q-33 -8 -66 -17q-31 -9 -51 -32l-37 51l169 30v133h-83q-27 1 -45 -13l-34 29h288l26 34l58 -40q8 -5 7 -8q-2 -2 -13 -2h-166v-126l178 32l3 -13z" />
  </g>

</svg>
