<?xml version="1.0" standalone="no"?>
<!DOCTYPE svg PUBLIC "-//W3C//DTD SVG 1.1//EN" "http://www.w3.org/Graphics/SVG/1.1/DTD/svg11.dtd" >
<svg xmlns="http://www.w3.org/2000/svg" xmlns:xlink="http://www.w3.org/1999/xlink" version="1.1" viewBox="0 0 2048 2048">
  <g transform="matrix(1 0 0 -1 0 2048)">
   <path fill="currentColor"
d="M1768 702q-9 11 -14 16q-14 17 -136 142l23 31q161 -114 204 -153q106 -95 114 -162q3 -26 -14 -48q-14 -17 -35 -20q-37 -5 -59 50q-14 33 -55 103q-144 -24 -322 -48v-300q0 -80 7 -140q5 -44 3 -68q-2 -38 -55 -42q-53 -3 -53 39l3 498q-99 -12 -314 -35l-46 -5
l-7 -30q-9 -38 -25 -36q-13 1 -38 53l-47 97q71 16 243 120q173 105 304 201q-341 -68 -408 -80l-6 -29q-7 -33 -29 -36q-17 -2 -32 42l-37 100q117 46 280 156q160 108 251 214l78 -63q47 -37 50 -56q6 -30 -32 -26q-9 1 -59 15q-261 -148 -457 -235q320 32 469 57
q104 86 167 153l87 -63q59 -42 42 -64q-8 -12 -30 -12q-18 0 -61 8q-230 -164 -460 -285q-74 -38 -231 -115q355 18 699 52zM532 645v-435q0 -142 -155 -170q-11 70 -47 93q-32 20 -159 43l8 46q140 -23 189 -27q69 -5 69 57v360q-106 -38 -214 -68q-4 -13 -5 -19
q-11 -52 -28 -52q-18 0 -44 55l-49 104q189 24 340 65v212q0 115 -8 160l64 -15q139 137 234 282h-384q-68 0 -149 -11l-39 86q124 -18 188 -18l392 1l58 65l68 -50q56 -41 53 -60q-3 -16 -91 -47q-150 -167 -276 -260q67 -17 72 -41q5 -23 -49 -43l-38 -15v-218
q159 41 348 114l12 -42q-182 -91 -360 -152zM1575 508q360 -174 377 -314q3 -25 -11 -46q-13 -19 -34 -23q-34 -6 -60 31q-4 6 -40 70q-67 119 -251 248zM1390 1519l74 -48q62 -40 68 -66q7 -31 -46 -23q-19 3 -53 8q-186 -117 -292 -170q-108 -54 -246 -98l-15 30
q183 91 291 167q133 92 219 200zM1111 518l97 -64q40 -26 40 -42q0 -22 -46 -19l-38 3q-175 -171 -393 -272l-21 35q251 164 361 359zM390 1693q-139 -169 -302 -269l-24 28q221 193 351 490l122 -55q40 -18 40 -40q0 -24 -46 -27l-51 -3q-25 -36 -46 -67h376l98 102
l121 -107q20 -18 15 -33q-5 -19 -25 -19h-629zM1209 1693q-144 -135 -232 -175l-24 31q193 164 302 400l116 -53q43 -19 43 -41q0 -24 -39 -27l-55 -4q-28 -40 -56 -74h468l99 102l120 -107q20 -18 16 -33q-5 -19 -26 -19h-732zM1434 1678q88 -41 111 -53q83 -46 92 -97
q4 -26 -11 -45t-39 -16q-25 3 -47 48q-34 67 -126 132zM537 1660q20 -10 75 -34q111 -50 116 -111q2 -20 -12 -37q-15 -18 -38 -17q-22 2 -45 50q-25 51 -115 120z" />
  </g>

</svg>
