<?xml version="1.0" standalone="no"?>
<!DOCTYPE svg PUBLIC "-//W3C//DTD SVG 1.1//EN" "http://www.w3.org/Graphics/SVG/1.1/DTD/svg11.dtd" >
<svg xmlns="http://www.w3.org/2000/svg" xmlns:xlink="http://www.w3.org/1999/xlink" version="1.1" viewBox="0 0 2048 2048">
  <g transform="matrix(1 0 0 -1 0 2048)">
   <path fill="currentColor"
d="M394 1699q-137 -153 -303 -273l-24 29q221 196 355 503l122 -55q40 -18 40 -40q0 -24 -46 -27l-51 -4q-27 -41 -50 -76h382l98 102l121 -107q20 -18 16 -33q-6 -19 -26 -19h-634zM1215 1699q-66 -68 -231 -175l-24 31q114 98 186 200q57 81 112 199l116 -53
q43 -20 43 -42q0 -24 -39 -27l-55 -4q-29 -38 -58 -72h480l99 102l121 -107q20 -18 15 -33q-5 -19 -26 -19h-739zM1632 1393l61 72l72 -50q37 -25 41 -43q5 -21 -25 -38l-40 -21v-163q0 -42 4 -72q3 -30 3 -42q0 -39 -53 -43q-48 -4 -48 27v36h-1239v-68q0 -28 -44 -30
q-61 -4 -57 43l3 34l1 31l3 49v342l120 -64h1198zM408 1114h343v225h-343v-225zM847 1114h349v225h-349v-225zM1290 1114h357v225h-357v-225zM337 897l120 -66h589q-6 48 -20 123q-7 41 -10 61l130 -19q62 -8 67 -31q4 -21 -48 -44l-34 -16l9 -74h529l95 101l124 -107
q21 -17 16 -33q-6 -19 -26 -19h-724q50 -183 137 -305q160 116 266 259l99 -61q43 -27 35 -45q-8 -20 -56 -20h-39q-121 -116 -252 -212q67 -69 171 -134q136 -86 228 -79q37 2 49 34q11 30 64 258l43 -13q-19 -142 -23 -200q-6 -65 13 -93q4 -7 36 -39q21 -21 -7 -45
q-22 -19 -95 -19q-285 0 -559 277q-186 -114 -380 -177q-119 -38 -339 -91l-10 47q202 56 363 121q169 68 314 174q-91 142 -153 363h-612q-8 -329 -78 -471q-63 -128 -222 -240l-26 35q112 101 154 194q62 135 70 390q3 111 -8 216zM1394 1661q84 -39 110 -54
q84 -45 93 -96q4 -26 -11 -45t-39 -16q-26 3 -48 48q-33 67 -125 131zM565 1666q21 -10 78 -35q115 -50 121 -113q2 -21 -12 -37q-16 -19 -38 -17t-48 51q-27 53 -120 122zM1364 1031q76 -28 106 -42q80 -36 92 -82q6 -26 -8 -46t-38 -18q-24 1 -47 41q-35 60 -123 114z" />
  </g>

</svg>
