<?xml version="1.0" standalone="no"?>
<!DOCTYPE svg PUBLIC "-//W3C//DTD SVG 1.1//EN" "http://www.w3.org/Graphics/SVG/1.1/DTD/svg11.dtd" >
<svg xmlns="http://www.w3.org/2000/svg" xmlns:xlink="http://www.w3.org/1999/xlink" version="1.1" viewBox="0 0 2048 2048">
  <g transform="matrix(1 0 0 -1 0 2048)">
   <path fill="currentColor"
d="M1217 1653q-96 -123 -232 -215l-23 28q190 187 285 462l109 -47q50 -22 49 -44q-1 -21 -49 -28l-40 -6q-36 -59 -59 -93h456l99 101l120 -106q20 -17 16 -34q-5 -18 -33 -18h-698zM1320 1107h413l96 98l130 -101q24 -18 12 -41q-5 -11 -20 -11h-207l-2 -23
q-44 -368 -202 -592q180 -174 453 -244v-40q-102 -9 -144 -71q-194 99 -366 284q-107 -122 -235 -201q-81 -51 -239 -115l-12 39q298 168 431 350q-119 180 -184 449l42 16q79 -248 190 -393q120 197 164 541h-341q-72 -175 -203 -347l-33 25q174 298 229 686l139 -45
q44 -15 42 -39q-2 -27 -44 -33l-44 -6q-24 -71 -58 -165zM520 1622q248 -108 248 -197q0 -24 -18 -40q-18 -14 -41 -8q-25 7 -46 48q-36 70 -81 109q-29 26 -81 61zM279 960h230v293q0 117 -8 160l109 -24q83 -18 86 -44t-50 -43l-41 -14l-3 -100h199l89 94l114 -94
q24 -20 23 -38q-2 -18 -28 -18h-397v-172h265l64 76l84 -54q40 -26 40 -49q0 -27 -78 -61v-666q0 -120 -138 -143q0 61 -39 85q-28 18 -96 32l7 42q90 -20 130 -20q47 0 47 69v304h-157v-56q0 -86 12 -186q4 -26 4 -54q0 -38 -45 -42q-63 -6 -63 42v296h-128v-60
q0 -87 12 -186q3 -26 3 -54q0 -38 -45 -42q-62 -6 -62 42v300h-136v-455q0 -58 -66 -53q-45 4 -43 49q1 18 4 46q12 105 12 209l1 520q0 2 -8 156zM283 902v-269h136v269h-136zM511 902v-269h128v269h-128zM731 902v-269h157v269h-157zM1387 1621q249 -108 249 -196
q0 -25 -18 -40t-41 -9q-26 7 -47 49q-47 92 -161 170zM417 1649q-135 -187 -324 -318l-24 31q250 209 381 571l106 -47q45 -21 45 -44q0 -25 -45 -28l-34 -3q-30 -46 -69 -106h350l99 102l120 -107q20 -18 16 -34q-5 -17 -33 -17h-588z" />
  </g>

</svg>
