<?xml version="1.0" standalone="no"?>
<!DOCTYPE svg PUBLIC "-//W3C//DTD SVG 1.1//EN" "http://www.w3.org/Graphics/SVG/1.1/DTD/svg11.dtd" >
<svg xmlns="http://www.w3.org/2000/svg" xmlns:xlink="http://www.w3.org/1999/xlink" version="1.1" viewBox="0 0 2048 2048">
  <g transform="matrix(1 0 0 -1 0 2048)">
   <path fill="currentColor"
d="M1597 1076q108 -80 122 -90q55 -44 67 -88q7 -28 -12 -49.5t-45 -14.5q-23 6 -48 30q-113 104 -169 152q-134 -85 -389 -144l-11 37q189 73 338 175q-94 94 -261 250q-18 0 -42 -6l-39 86q120 -17 188 -17h403l68 76l99 -75q24 -19 22 -42q-1 -18 -22 -26l-54 -20
q-97 -135 -215 -234zM1252 1338q148 -117 268 -204q104 89 185 205zM478 846q-24 13 -50 49q-67 92 -225 182q-54 -39 -114 -70l-23 29q190 154 296 352l109 -51q34 -16 33 -34q-1 -21 -43 -25l-43 -4q-20 -21 -38 -41h174v187q0 121 -8 160l109 -24q69 -15 73 -43t-50 -43
l-27 -7v-58h173l80 81l114 -86q17 -13 14 -32q-2 -19 -15 -19l-366 -2v-114l181 -1l60 75l85 -52q39 -23 40 -50q2 -25 -77 -60q-112 -158 -234 -247q-214 -155 -616 -247l-12 38q225 66 400 157zM234 1099q296 -116 296 -204q0 -6 -3 -20q13 9 37 24q142 91 268 277h-505
q-39 -37 -93 -77zM978 483h-642q-116 0 -192 -8l-38 89q96 -23 230 -23h642v137q0 114 -8 160l127 -27q65 -13 68 -41q2 -26 -51 -43l-40 -13v-173h626l108 114l131 -114q27 -24 22 -39q-6 -19 -26 -19h-861v-164q0 -73 12 -187q4 -29 4 -54q0 -38 -49 -42q-63 -4 -63 42
v405zM384 1714q-104 -125 -287 -257l-24 28q106 92 211 242q59 83 125 236l121 -54q44 -19 40 -41q-3 -24 -45 -27l-52 -3l-39 -57l-6 -10h395l99 102l120 -107q21 -18 16 -33q-6 -19 -26 -19h-648zM626 1663l19 33q59 -24 96 -40q98 -44 113 -95q9 -30 -10 -54
q-15 -19 -39 -17q-23 2 -53 52q-35 59 -126 121zM1423 1667l20 32q91 -42 130 -65q71 -41 76 -91q2 -22 -14 -40q-16 -17 -39 -15q-25 2 -47 47q-34 68 -126 132zM565 475l128 -81q24 -14 21 -32q-3 -22 -38 -23l-60 -2q-119 -103 -220 -152q-77 -37 -233 -89l-12 35
q101 45 203 121t211 223zM1340 446q241 -83 332 -130q167 -86 167 -172q0 -18 -11 -32q-20 -24 -52 -20q-35 4 -75 49q-91 100 -169 150q-87 57 -206 118zM1217 1714q-71 -72 -109 -100q-8 -6 -77 -52q-11 -7 -34 -23l-24 31q191 173 276 389l115 -53q44 -20 44 -42
q0 -24 -40 -27l-54 -4q-25 -35 -45 -62h435l98 102l121 -107q21 -18 20 -31q-2 -23 -35 -22zM535 784q107 -33 139 -46q115 -44 131 -118q5 -24 -7.5 -43.5t-33.5 -20.5q-30 -2 -66 51q-58 83 -177 142zM1497 842l113 -69q36 -22 32 -42q-5 -26 -51 -23l-48 3
q-111 -95 -262 -152l-18 32q153 109 234 251z" />
  </g>

</svg>
