<?xml version="1.0" standalone="no"?>
<!DOCTYPE svg PUBLIC "-//W3C//DTD SVG 1.1//EN" "http://www.w3.org/Graphics/SVG/1.1/DTD/svg11.dtd" >
<svg xmlns="http://www.w3.org/2000/svg" xmlns:xlink="http://www.w3.org/1999/xlink" version="1.1" viewBox="0 -205 1024 1024">
  <g transform="matrix(1 0 0 -1 0 819)">
   <path fill="currentColor"
d="M671 693q2 -5 -1 -7q-2 -2 -9 0q-30 -2 -51 -21q-13 -10 -65 -47h263l23 31l40 -29q7 -6 5 -10q-1 -5 -11 -7l-12 -9v-110l4 -31q-1 -30 -42 -31v10h-569q-2 -10 -8 -15q-9 -9 -35 -12q1 10 4 26q2 20 3 26v127q-70 -40 -145 -66l-2 12q77 35 147 85q-2 11 -13 26l9 8
l22 -20q71 51 117 97q50 50 50 57q1 7 -7 20l11 5l58 -35q2 -4 1 -6t-6 -2q-18 5 -33 -13q-21 -22 -45 -44h220l29 29zM258 319l36 -37h452l21 29l38 -31q7 -6 5 -10q-1 -5 -11 -7l-10 -9v-135l4 -45q-1 -30 -42 -31v32h-451v-7q4 -37 -45 -44q1 5 2 13q3 24 5 53v184
q-3 19 -13 37zM751 175h-451v-86h451v86zM300 187h451v81h-451v-81zM224 1002l76 -38q4 -4 3 -6q0 -3 -5 -5q-17 1 -32 -8q-18 -36 -36 -68h204l32 40l68 -48q8 -6 7 -8q-2 -3 -13 -2h-228q21 -10 32 -21q51 -68 4 -88q-17 -2 -20 19q-3 22 -11 38q-7 17 -16 28q-6 8 -23 24
h-47q-56 -92 -116 -142l-9 11q63 79 99 155t33 88q-2 12 -10 22zM616 998l80 -42q4 -4 3 -6q0 -3 -5 -5q-15 1 -34 -10q-13 -31 -30 -58h218l30 42l68 -50q8 -6 7 -8q-2 -3 -13 -2h-219q18 -9 29 -19q28 -23 35 -56q4 -30 -21 -36q-17 -1 -22 21q-4 24 -15 40q-9 17 -19 28
l-4 4q-3 4 -19 18h-65q-43 -70 -97 -120l-11 11q102 151 108 214q-1 13 -12 25zM548 526h267v78h-267v-78zM510 604h-262v-78h262v78zM815 514h-267v-68h267v68zM248 514v-67v-1h262v68h-262zM261 618h250l78 74h-233q-43 -38 -95 -74zM189 400q3 -72 -30 -118
q-16 -22 -39 -29t-31 12t16 29q25 11 44 37q19 27 26 69h14zM789 390l4 10q73 -16 119 -60q53 -57 19 -74q-18 -6 -27 17q-7 23 -36 53q-28 30 -79 54zM327 406l8 8q77 -32 83 -88q3 -26 -16 -28q-19 -1 -22 18q-2 21 -11 41q-9 21 -42 49zM547 406l8 10q75 -33 80 -87
q5 -25 -15 -28q-19 -3 -22 18q-2 21 -13 42q-10 23 -38 45z" />
  </g>

</svg>
