<?xml version="1.0" standalone="no"?>
<!DOCTYPE svg PUBLIC "-//W3C//DTD SVG 1.1//EN" "http://www.w3.org/Graphics/SVG/1.1/DTD/svg11.dtd" >
<svg xmlns="http://www.w3.org/2000/svg" xmlns:xlink="http://www.w3.org/1999/xlink" version="1.1" viewBox="0 0 2048 2048">
  <g transform="matrix(1 0 0 -1 0 2048)">
   <path fill="currentColor"
d="M602 677q-67 -50 -137 -86l-24 23q118 115 179 248l109 -42q34 -13 29 -37q-4 -19 -41 -24l-43 -6l-17 -19h308v27q0 118 -7 160l119 -26q72 -16 75 -42q4 -29 -56 -46l-34 -9v-64h237l80 81l114 -86q22 -16 16 -34t-26 -18h-421v-126h545l81 81l113 -86q21 -16 15 -34
t-26 -18h-1317q-119 0 -193 -8l-39 88q96 -23 232 -23h492v126h-363zM1677 1013h43l98 102l121 -107q20 -19 16 -34q-6 -18 -26 -18h-519q133 -98 251 -141q97 -36 300 -70l-4 -36q-76 -4 -107 -80q-303 102 -505 327h-647q-130 -129 -260 -200t-333 -130l-9 34
q171 76 247 121q102 60 224 175h-283q-67 0 -148 -11l-40 86q120 -18 188 -18h104v310q0 44 -12 128l117 -76h285v54q0 86 -7 126l105 -24q83 -19 85 -44q4 -28 -49 -43l-40 -11v-58h314v35q0 101 -7 141l109 -24q83 -18 85 -44q3 -30 -49 -43l-42 -11v-54h281l69 76l83 -55
q40 -25 40 -48q0 -29 -79 -61zM1585 1013v126h-303v-126h303zM1186 1013v126h-314v-126h314zM778 1013v126h-294v-126h294zM484 1197h294v122h-294v-122zM872 1319v-122h314v122h-314zM1282 1319v-122h303v122h-303zM1263 1770h430l99 101l120 -106q20 -18 16 -35
q-5 -17 -33 -17h-684q-73 -74 -186 -137l-19 33q155 130 247 345l123 -58q28 -14 28 -31q0 -28 -40 -30l-53 -4q-23 -31 -48 -61zM586 385l843 -1l61 78l84 -53q40 -26 40 -49q0 -22 -30 -39q-6 -4 -12 -7q-12 -6 -36 -20v-88l38 -29q32 -26 30 -41q-3 -19 -34 -19h-992v-24
q0 -28 -47 -28q-52 0 -57 31q-1 10 4 68q4 37 4 91v64q0 34 -3 74q-3 44 -5 75zM578 177h864v151h-864v-151zM403 1713q-144 -146 -305 -230l-19 31q232 167 364 440l123 -58q29 -14 29 -31q0 -28 -40 -30l-54 -4q-28 -36 -49 -61h326l97 101l121 -107q20 -18 15 -33
q-6 -18 -26 -18h-582zM1356 1696q235 -100 235 -185q0 -26 -22 -40t-46 -5q-20 9 -53 69q-34 62 -135 133zM488 1693q95 -45 149 -79q80 -50 72 -108q-8 -49 -51 -45q-28 4 -48 47q-33 71 -147 155z" />
  </g>

</svg>
