<?xml version="1.0" standalone="no"?>
<!DOCTYPE svg PUBLIC "-//W3C//DTD SVG 1.1//EN" "http://www.w3.org/Graphics/SVG/1.1/DTD/svg11.dtd" >
<svg xmlns="http://www.w3.org/2000/svg" xmlns:xlink="http://www.w3.org/1999/xlink" version="1.1" viewBox="0 0 2048 2048">
  <g transform="matrix(1 0 0 -1 0 2048)">
   <path fill="currentColor"
d="M904 1456l108 -38q38 -13 38 -34q0 -20 -36 -28l-39 -9q-21 -33 -47 -68h184l58 64l89 -66q31 -22 31 -44t-38 -28l-49 -8q-100 -88 -139 -127h145l61 70l72 -49q37 -26 41 -44q5 -20 -25 -37q-6 -4 -12 -7q-9 -5 -26 -14v-335l5 -54l2 -50q8 -51 6 -60q-7 -28 -59 -33
q-50 -5 -48 25l2 20h-417v-7q0 -34 -50 -38q-60 -5 -54 51l4 42q6 96 6 104l-1 392q-16 -9 -44 -30q-33 -24 -67 -46l-20 29q211 178 319 457zM882 1222q-34 -41 -105 -116l55 -36h158l113 152h-221zM1228 811v199h-171v-199h171zM1228 753h-171v-193h171v193zM969 560v193
h-158v-193h158zM811 811h158v199h-158v-199zM709 388l38 -6q-6 -102 -31 -168q-41 -111 -127 -105q-28 2 -44 27q-10 15 -6 32q5 20 53 44q87 43 117 176zM863 391q93 -126 98 -190q3 -29 -15 -52q-13 -18 -36 -19q-28 -1 -36 28q-2 9 -6 58q-6 92 -39 159zM1049 394
q117 -116 117 -192q0 -24 -15 -42q-15 -17 -37 -15q-24 2 -31 29q-2 6 -8 64q-6 52 -55 134zM393 1692q-106 -129 -294 -271l-24 28q220 200 347 505l122 -55q40 -18 40 -40q0 -24 -46 -27l-51 -3q-29 -47 -51 -80h388l97 101l121 -107q20 -18 15 -33q-5 -18 -25 -18h-639z
M1213 1692q-74 -72 -225 -173l-25 30q115 99 187 201q54 77 112 200l115 -53q44 -20 44 -42q0 -24 -39 -27l-55 -4q-27 -36 -61 -75h479l99 101l120 -107q20 -18 16 -33q-6 -18 -26 -18h-741zM462 1165l123 -59q29 -13 29 -30q0 -28 -40 -31l-54 -3q-81 -115 -146 -183
l18 -4q71 -15 75 -44q2 -18 -41 -36l-34 -15v-397q0 -119 10 -213q4 -28 4 -45q3 -47 -45 -50q-65 -4 -65 54v610v46v23q-9 -7 -72 -57q-62 -49 -130 -85l-21 32q136 101 236 225q72 90 153 262zM1451 1263q-4 91 -16 138l122 -88h221l68 76l84 -54q40 -26 40 -48
q0 -27 -77 -62v-779q0 -142 -155 -171q-10 69 -38 91q-27 20 -132 42l9 46q103 -18 152 -23q68 -7 68 57v767h-253l3 -904q0 -126 10 -213q3 -28 4 -45q2 -47 -45 -50q-66 -4 -66 54zM1424 1653q20 -9 30 -13q68 -33 100 -51q65 -38 73 -86q5 -25 -11 -45q-15 -19 -39 -16
q-25 3 -47 48q-33 67 -126 132zM520 1654q22 -11 79 -36q119 -53 124 -120q1 -20 -12 -37q-16 -18 -39 -16q-23 1 -48 53q-27 54 -124 128zM455 1465l122 -59q29 -13 29 -30q0 -28 -40 -31l-53 -3q-185 -200 -408 -285l-20 31q250 145 370 377zM1219 421q64 -45 97 -72
q58 -48 63 -96q6 -54 -42 -57q-32 -2 -49 47q-23 69 -96 151z" />
  </g>

</svg>
