<?xml version="1.0" standalone="no"?>
<!DOCTYPE svg PUBLIC "-//W3C//DTD SVG 1.1//EN" "http://www.w3.org/Graphics/SVG/1.1/DTD/svg11.dtd" >
<svg xmlns="http://www.w3.org/2000/svg" xmlns:xlink="http://www.w3.org/1999/xlink" version="1.1" viewBox="0 -205 1024 1024">
  <g transform="matrix(1 0 0 -1 0 819)">
   <path fill="currentColor"
d="M573 1007l78 -42q4 -4 3 -6q0 -3 -5 -5q-15 1 -34 -10q-9 -18 -19 -34h269l30 38l68 -46q8 -6 7 -8q-2 -3 -13 -2h-249q17 -9 28 -19q30 -29 36 -60q5 -27 -20 -32q-16 -1 -20 21q-4 24 -14 40q-9 17 -20 28q-7 8 -24 22h-88q-45 -73 -105 -135h332l22 33l60 -40
q8 -5 7 -8q-2 -2 -13 -2h-172v-221l148 3l24 37l58 -37q11 -7 8 -10q-2 -3 -18 -4l-220 -5l2 -45q4 -37 -45 -44q5 32 6 88l-519 -11q-33 -5 -43 -14l-31 30l198 4v229h-101q-27 1 -45 -11l-26 28h358l-6 6q113 168 112 210q-1 13 -12 25zM463 146l96 3v241h-5
q-27 1 -45 -13l-32 29h402l22 30l48 -36q8 -5 7 -8q-2 -2 -13 -2h-100v-234l62 1l22 33l50 -35q13 -4 10 -6q-3 -3 -20 -4l-124 -3v-22l2 -65q3 -36 -41 -44q5 37 7 118v12l-290 -9q-19 -7 -27 -14zM262 140q-132 -17 -163 -21q-31 -5 -45 -23l-26 46l103 8v240h-31
q-27 1 -45 -13l-32 29h372l20 30l50 -36q8 -5 7 -8q-2 -2 -13 -2h-56v-220l77 6l4 -14l-81 -8v-32l2 -57q3 -36 -41 -44q4 34 7 129zM681 583h-360v-72l360 7v65zM681 740h-360v-65h360v65zM681 661h-360v-64h360v64zM169 1011l74 -38q4 -4 3 -6q0 -3 -5 -5q-17 1 -32 -8
q-12 -23 -24 -44h230l32 40l68 -48q8 -6 7 -8q-2 -3 -13 -2h-212q19 -10 32 -21q28 -22 34 -55q5 -31 -19 -37q-16 -1 -20 21q-4 24 -14 40q-9 17 -19 28q-7 8 -26 24h-91q-60 -101 -122 -154l-9 11q59 75 95 147t33 84q-2 12 -10 22zM811 309h-220v-72h220v72zM811 223
h-220v-73l220 5v68zM371 390h-208v-71h208v71zM811 390h-220v-67h220v67zM371 305h-208v-68h208v68zM371 223h-208v-72l208 16v56z" />
  </g>

</svg>
