<?xml version="1.0" standalone="no"?>
<!DOCTYPE svg PUBLIC "-//W3C//DTD SVG 1.1//EN" "http://www.w3.org/Graphics/SVG/1.1/DTD/svg11.dtd" >
<svg xmlns="http://www.w3.org/2000/svg" xmlns:xlink="http://www.w3.org/1999/xlink" version="1.1" viewBox="0 -205 1024 1024">
  <g transform="matrix(1 0 0 -1 0 819)">
   <path fill="currentColor"
d="M146 473q18 -5 10 -13q-16 -4 -29 -16v-114h327v107q2 16 -26 38l7 10l71 -26q14 -5 6 -11q-13 -7 -22 -21v-240l4 -93q1 -36 -40 -46v54q-110 -17 -205 -33q-102 -16 -115 -22t-27 -28l-42 40q19 7 26 21v370q-1 24 -24 37l7 11zM127 314v-233q140 16 327 40v193h-327z
M600 425l-30 33h237l26 28l51 -43q4 -5 2 -8q-2 -2 -10 -2q-28 -1 -51 -25q-88 -74 -119 -110t-64 -76q-31 -39 -33 -68q-2 -54 60 -65q32 -6 180 0q63 -2 76 40q2 26 6 74q3 34 4 50h16q-4 -115 32 -128q-16 -52 -63 -68q-28 -11 -149 -11h-53q-85 4 -107 23q-29 19 -37 54
q-13 38 25 97q22 36 77 97q56 62 126 123h-170q-21 2 -32 -15zM281 761l66 -26q14 -5 6 -11q-16 -4 -27 -18v-49h76l20 28l50 -32q8 -5 7 -8q-2 -2 -13 -2h-140v-82h134l22 32l54 -38q8 -5 7 -8q-2 -2 -13 -2h-419q-27 1 -45 -13l-28 29h118v95q2 16 -21 34l8 11l66 -26
q14 -5 6 -11q-16 -4 -27 -18v-85h104v155q2 16 -19 34zM172 1004l74 -38q4 -4 3 -6q0 -3 -5 -5q-17 1 -32 -8q-13 -28 -27 -52h237l32 40l68 -48q8 -6 7 -8q-2 -3 -13 -2h-240q19 -10 32 -21q28 -22 34 -55q5 -31 -19 -37q-16 -1 -20 21q-4 24 -14 40q-9 17 -19 28
q-7 8 -26 24h-70q-59 -103 -119 -154l-9 11q59 75 95 151t33 88q-2 12 -10 22zM604 1000l78 -42q4 -4 3 -6q0 -3 -5 -5q-15 1 -34 -10q-10 -22 -22 -42h256l30 42l68 -50q8 -6 7 -8q-2 -3 -13 -2h-265q17 -9 28 -19q30 -29 36 -60q5 -27 -20 -32q-16 -1 -20 21q-4 24 -14 40
q-9 17 -20 28q-7 8 -24 22h-59q-46 -79 -107 -140l-11 11q109 164 112 218q-1 13 -12 25zM709 721q2 -4 1 -6t-6 -2q-18 2 -25 -21q-12 -37 -33 -81h224l26 36l64 -44q8 -5 7 -8q-2 -2 -13 -2h-317q-7 -14 -15 -29q-39 -72 -89 -126l-10 6q48 78 78 151t34 94q7 33 -11 53
l6 8zM401 503q2 -3 1 -5t-6 -3q-12 3 -25 -19q-1 -3 -4 -10q-6 -12 -9 -19q29 -13 41 -24q21 -16 24 -41q1 -28 -17 -28q-8 1 -14 22q-3 14 -6 22q-5 15 -34 36q0 -1 -2 -5q-1 -3 -2 -5q-15 -34 -59 -86l-10 6q50 82 64 141q0 2 1 7q6 15 -6 28l8 6zM403 277q2 -3 1 -5
t-6 -3q-12 3 -25 -19q-1 -3 -4 -10q-6 -12 -9 -19q29 -13 41 -23q21 -16 24 -41q1 -26 -17 -25q-8 0 -13 20q-4 13 -7 21q-5 16 -34 35q0 -1 -2 -4q-1 -3 -2 -5q-12 -29 -59 -84l-10 6q51 80 64 138q0 2 1 7q6 15 -6 28l8 6zM263 505q2 -3 1 -5t-6 -3q-12 3 -25 -19
q-2 -3 -5 -11l-3 -9q5 -3 14 -8t19 -12q21 -14 27 -41q4 -26 -14 -25q-8 1 -14 20q-4 14 -8 23q-6 13 -29 32q-1 -3 -5 -9l-6 -12q-16 -31 -50 -72l-8 6q41 70 55 123q1 3 2 8q6 16 -6 29l8 6zM263 273q2 -3 1 -5t-6 -3q-12 3 -25 -19l-3 -9q-1 -3 -2 -4q22 -12 32 -19
q21 -14 27 -39q4 -25 -14 -25q-8 0 -14 19q-4 15 -8 23q-6 12 -28 31l-9 -18q-3 -7 -5 -10q-16 -32 -50 -70l-8 6q42 68 55 120q1 3 1 7q7 19 -5 32l8 6z" />
  </g>

</svg>
