<?xml version="1.0" standalone="no"?>
<!DOCTYPE svg PUBLIC "-//W3C//DTD SVG 1.1//EN" "http://www.w3.org/Graphics/SVG/1.1/DTD/svg11.dtd" >
<svg xmlns="http://www.w3.org/2000/svg" xmlns:xlink="http://www.w3.org/1999/xlink" version="1.1" viewBox="0 -205 1024 1024">
  <g transform="matrix(1 0 0 -1 0 819)">
   <path fill="currentColor"
d="M211 997l91 -36q14 -5 6 -11q-21 -9 -30 -21v-295h100l42 51l74 -59q11 -8 8 -11q-3 -2 -19 -1h-205v-98q52 -22 85 -47q39 -30 55 -56q15 -27 9 -48t-23 -22q-18 -3 -30 32t-33 65q-15 20 -63 55v-326l3 -96q0 -21 -15 -31q-15 -9 -41 -15q4 39 7 189v286
q-19 -54 -43 -94q-48 -83 -84 -125t-79 -87l-12 10q54 68 98 144q48 83 68 135q21 54 40 129h-112q-27 0 -45 -13l-34 33h203v305q2 16 -30 46zM638 706l22 -9q33 79 55 153h-179q-27 0 -45 -13l-34 33h442l32 41l68 -51q7 -5 6 -8q-1 -2 -12 -2h-226q-25 -83 -64 -167
l-1 -2l28 -11q14 -5 6 -11q-21 -9 -30 -21v-383l3 -71q0 -21 -15 -31q-15 -7 -41 -13q4 37 7 157v298q-17 -33 -57 -92q-57 -87 -182 -189l-9 14q87 86 147 180q57 88 91 164q-4 5 -15 16l-6 6zM372 109h514l33 41l68 -51q8 -5 6 -7q-2 -3 -12 -3h-529q-27 2 -45 -13z
M750 609q72 -32 125 -77q52 -47 73 -77q20 -32 17 -59q-3 -29 -24 -32t-33 42q-11 40 -59 96q-46 52 -106 94zM385 870l77 -45q4 -4 3 -7q-1 -2 -6 -3q-14 0 -32 -6q-48 -81 -98 -138l-16 8l38 66q37 84 37 93q-3 9 -12 25zM76 861q52 -38 79 -71q27 -35 29 -65
q0 -32 -22 -38q-24 -6 -27 28q-6 33 -16 62q-12 27 -55 72z" />
  </g>

</svg>
