<?xml version="1.0" standalone="no"?>
<!DOCTYPE svg PUBLIC "-//W3C//DTD SVG 1.1//EN" "http://www.w3.org/Graphics/SVG/1.1/DTD/svg11.dtd" >
<svg xmlns="http://www.w3.org/2000/svg" xmlns:xlink="http://www.w3.org/1999/xlink" version="1.1" viewBox="0 -205 1024 1024">
  <g transform="matrix(1 0 0 -1 0 819)">
   <path fill="currentColor"
d="M394 881h480l32 40l68 -50q8 -5 7 -8q-2 -2 -13 -2h-181v-682q0 -56 14 -64q15 -9 36 -11h6q15 -2 29 -2h8q60 -3 65 26q5 15 6 32q1 8 1 57q1 35 1 57h16q5 -81 6 -110q2 -28 28 -39q-21 -51 -56 -57q-16 -5 -45 -5q-16 0 -57 2h-12q-39 1 -53 7q-40 18 -39 95v694h-142
v-187q6 -248 -34 -394q-40 -143 -232 -245l-8 16q128 85 180 192q53 109 48 425v193h-80q-27 1 -45 -13zM309 501l10 10q117 -65 110 -129q-1 -27 -24 -30q-22 -3 -23 21q-1 18 -8 40q-88 -12 -133 -22q-3 -1 -10 -2q-93 -14 -124 -45l-40 64q26 6 52 14q80 90 151 185
q4 5 11 16q6 7 8 10q-26 -2 -68 -8q-10 -1 -15 -2q-103 -10 -119 -46l-42 65q27 10 36 19q11 9 33 39q23 30 66 92q44 62 81 144q-3 23 -12 33l8 8l81 -52q5 -4 5 -7q0 -4 -5 -6q-22 2 -39 -8q-79 -127 -192 -258l197 8q38 56 43 79q-1 19 -12 28l10 10l81 -57q5 -2 5 -5
t-5 -8q-25 3 -43 -9q-60 -94 -237 -278l222 18q-13 29 -59 69zM126 263q11 -115 -18 -168q-15 -26 -39 -35q-24 -8 -34 9t18 41t41 48q14 26 15 105h17zM196 288l14 6q50 -48 62 -104q10 -62 -27 -67q-21 2 -18 31q3 32 -2 63q-5 33 -29 71zM307 313l10 10q62 -33 84 -82
q22 -59 -16 -72q-21 -3 -22 22q-1 26 -10 54q-9 29 -46 68z" />
  </g>

</svg>
