<?xml version="1.0" standalone="no"?>
<!DOCTYPE svg PUBLIC "-//W3C//DTD SVG 1.1//EN" "http://www.w3.org/Graphics/SVG/1.1/DTD/svg11.dtd" >
<svg xmlns="http://www.w3.org/2000/svg" xmlns:xlink="http://www.w3.org/1999/xlink" version="1.1" viewBox="0 0 2048 2048">
  <g transform="matrix(1 0 0 -1 0 2048)">
   <path fill="currentColor"
d="M1159 1173l-38 89q82 -23 196 -23h185l66 63l107 -93q19 -17 20 -31q3 -25 -39 -32l-59 -9q-56 -85 -154 -208q18 -5 27 -7q48 -12 50 -35q3 -26 -50 -44l-40 -13l1 -57v-49h303l98 101l121 -107q20 -18 15 -33q-6 -19 -25 -19h-512v-451q0 -142 -155 -171q-12 70 -47 93
q-33 21 -160 43l8 46q138 -22 189 -27q68 -5 68 57v410h-258q-116 0 -191 -8l-39 89q97 -23 230 -23h258v71q-2 127 -8 159l76 -16q10 22 31 77q45 119 62 166h-178q-74 0 -158 -8zM838 885l-22 29q138 164 208 365q54 158 85 477h-105q-69 0 -149 -10l-39 85
q124 -17 188 -17h508l69 80l93 -65q38 -26 38 -43q0 -26 -85 -57q-19 -99 -53 -249h210l61 71l73 -49q37 -25 41 -44q4 -16 -6 -24.5t-63 -33.5q-9 -68 -21 -248q-14 -186 -73 -249q-45 -50 -129 -61q2 16 1 25q-5 52 -99 84l13 37q27 -6 40 -9q35 -10 53 -13q62 -10 77 65
q7 37 25 204q9 131 16 186h-237q-24 -10 -47 -10q-40 0 -42 23q0 5 46 226q5 22 16 96h-330q-6 -48 -12 -112q-51 -504 -349 -759zM368 594q268 -194 246 -309q-11 -59 -56 -54q-37 4 -52 73q-18 82 -65 153q-19 29 -97 113zM588 674q284 -167 273 -287q-6 -59 -52 -59
q-37 0 -58 69q-25 80 -78 146q-26 32 -107 104zM163 516q80 -80 136 -154q73 -95 68 -171q-4 -72 -62 -66q-35 4 -41 68q-15 144 -130 298zM486 1269q-54 -20 -79 -30q-89 -32 -139 -52l-6 -30q-7 -36 -22 -38q-21 -3 -40 33l-60 114q62 71 148 286q102 257 137 391l121 -57
q57 -26 58 -45q1 -29 -59 -33l-37 -3q-111 -230 -302 -524q37 5 119 19q176 28 195 31q57 105 109 258l115 -56q46 -22 49 -45q2 -29 -52 -30l-39 -2q-100 -187 -206 -332q-136 -185 -277 -321q109 19 458 98q-45 84 -101 160l25 24q214 -186 223 -313q4 -62 -46 -66
q-35 -2 -55 62q-23 80 -27 89q-62 -26 -348 -128l-84 -30l-7 -32q-8 -39 -29 -37q-20 2 -36 39l-52 117q10 8 14 12q58 48 183 230q97 142 149 241z" />
  </g>

</svg>
