<?xml version="1.0" standalone="no"?>
<!DOCTYPE svg PUBLIC "-//W3C//DTD SVG 1.1//EN" "http://www.w3.org/Graphics/SVG/1.1/DTD/svg11.dtd" >
<svg xmlns="http://www.w3.org/2000/svg" xmlns:xlink="http://www.w3.org/1999/xlink" version="1.1" viewBox="0 0 2048 2048">
  <g transform="matrix(1 0 0 -1 0 2048)">
   <path fill="currentColor"
d="M1739 1706l68 77l84 -55q40 -26 40 -48q0 -27 -78 -62v-292q0 -109 11 -209q3 -28 3 -54q0 -38 -49 -41q-61 -4 -61 39v14h-729q-9 -41 -18 -46q-18 -10 -51 -8q-45 4 -43 50q1 17 4 45q13 111 13 210v336q-2 69 -11 128l118 -84h299v89q0 119 -8 160l109 -24
q83 -18 86 -43q3 -30 -50 -44l-42 -11v-127h305zM1028 1131h311v234h-311v-234zM1434 1365v-234h323v234h-323zM1028 1421h311v231h-311v-231zM1434 1652v-231h323v231h-323zM1690 614v-247q0 -98 13 -210q3 -28 3 -53q0 -39 -49 -42q-62 -4 -62 42v510l-401 -1
q-7 -137 -32 -210q-64 -185 -325 -345l-22 32q155 116 224 249q55 106 60 275h-81q-116 0 -191 -8l-39 88q96 -23 230 -23h81v162q0 122 -7 160l109 -24q82 -18 85 -44q4 -30 -49 -44l-42 -11l-1 -198l401 -1v170q0 117 -9 160l104 -24q84 -20 87 -44q3 -28 -49 -44l-38 -11
v-207h92l98 102l121 -107q20 -18 16 -33q-6 -19 -26 -19h-301zM648 894q-35 74 -95 163l26 23q212 -196 212 -320q0 -62 -49 -65q-34 -1 -52 64q-23 88 -24 90q-31 -11 -441 -144l-8 -32q-10 -39 -31 -36q-19 3 -34 40l-49 119q48 34 137 146q134 167 232 334
q-51 -16 -118 -35t-142 -43l-8 -30q-9 -35 -25 -36q-21 -2 -38 36l-52 117q61 61 169 276q111 223 163 380l117 -65q54 -30 54 -49q0 -29 -61 -29h-37q-102 -181 -324 -484l-14 -18q38 2 120 11q175 14 226 20q57 84 131 275l113 -60q47 -25 47 -47q0 -28 -53 -28h-39
q-211 -376 -518 -657q102 14 354 62zM108 509q80 -79 136 -153q73 -96 68 -171q-4 -73 -62 -67q-35 4 -41 68q-15 144 -130 298zM332 588q267 -195 246 -309q-11 -59 -56 -54q-38 4 -53 73q-17 82 -64 152q-20 30 -97 114zM562 677q249 -156 238 -263q-6 -58 -51 -58
q-33 0 -50 63q-20 72 -67 135q-23 30 -92 96z" />
  </g>

</svg>
