<?xml version="1.0" standalone="no"?>
<!DOCTYPE svg PUBLIC "-//W3C//DTD SVG 1.1//EN" "http://www.w3.org/Graphics/SVG/1.1/DTD/svg11.dtd" >
<svg xmlns="http://www.w3.org/2000/svg" xmlns:xlink="http://www.w3.org/1999/xlink" version="1.1" viewBox="0 0 2048 2048">
  <g transform="matrix(1 0 0 -1 0 2048)">
   <path fill="currentColor"
d="M1230 1704q58 96 98 241l125 -48q35 -13 32 -32q-3 -18 -40 -24l-44 -8q-54 -79 -103 -129h402l68 76l83 -54q41 -27 41 -49q0 -27 -78 -62v-254q0 -106 12 -209q3 -29 3 -54q0 -39 -49 -42q-63 -4 -63 42v21h-631v-39q0 -37 -69 -31q-44 4 -41 54l2 41q12 156 12 209
v303q-3 62 -12 123l117 -75h135zM1717 1648h-631v-204h631v204zM1086 1173h631v213h-631v-213zM1101 628l35 -12h576l63 73l71 -50q36 -25 40 -43q5 -21 -28 -40q-7 -4 -14 -7q-9 -4 -25 -13v-310l27 -21q25 -19 21 -37q-3 -18 -16 -18h-715v-39q0 -28 -49 -31
q-65 -3 -60 51l4 42q7 96 6 104v304q-95 -63 -216 -121l-15 34q42 29 64 44q188 126 329 333h-186q-69 0 -149 -11l-39 86q121 -17 188 -17h748l97 94l122 -99q21 -17 16 -34q-6 -19 -26 -19h-640q-100 -139 -229 -243zM1136 205h585v351h-585v-351zM677 893q-35 74 -94 163
l25 23q212 -196 212 -320q0 -62 -48 -65q-35 -1 -52 64q-21 80 -24 90q-115 -41 -158 -53q-253 -76 -321 -99l-8 -32q-10 -38 -31 -36q-20 3 -35 41l-48 118q117 85 374 483q-6 -2 -235 -76l-8 -30q-10 -36 -25 -37q-21 -1 -38 36l-52 118q59 58 168 276q111 220 164 380
l117 -66q54 -29 54 -48q0 -30 -61 -30h-37q-107 -188 -338 -502q37 3 120 11q145 10 195 16q98 153 151 290l112 -59q46 -25 47 -47q2 -25 -53 -29l-35 -2q-281 -431 -540 -670q111 16 282 49q65 13 220 43zM353 579q267 -194 246 -309q-11 -59 -56 -54q-38 4 -53 73
q-17 82 -64 153q-20 29 -97 113zM550 653q285 -168 272 -287q-6 -59 -51 -59q-37 0 -58 69q-25 80 -78 146q-25 30 -107 104zM136 493q81 -81 137 -154q73 -96 68 -171q-5 -72 -63 -66q-34 4 -41 68q-15 147 -130 297z" />
  </g>

</svg>
