<?xml version="1.0" standalone="no"?>
<!DOCTYPE svg PUBLIC "-//W3C//DTD SVG 1.1//EN" "http://www.w3.org/Graphics/SVG/1.1/DTD/svg11.dtd" >
<svg xmlns="http://www.w3.org/2000/svg" xmlns:xlink="http://www.w3.org/1999/xlink" version="1.1" viewBox="0 -200 1000 1000">
  <g transform="matrix(1 0 0 -1 0 800)">
   <path fill="currentColor"
d="M530 455l-2 -6t-1 -6h293v92l70 -34l-17 -55v-410q-8 -13 -23.5 -20t-29.5 -9v325h-122l-9 -15v-259q-9 -20 -20 -24.5t-24 -5.5v304h-126q-3 -41 -13 -87.5t-27 -90.5t-42 -82.5t-58 -63.5h-8q19 34 37 71.5t32.5 94.5t23.5 141t9 211v10l70 -38zM525 420v-10
q0 -14 -1.5 -25.5t-1.5 -22.5v-8h298v66h-295zM604 223q-14 -25 -38.5 -46.5t-56.5 -43.5l-12 -8q14 21 27 40t24.5 38.5t21 41t17.5 47.5l46 -59zM710 272q40 -18 64.5 -40.5t30.5 -39.5v-2q0 -23 -9 -35t-20 -12q-6 0 -13.5 13.5t-16 33t-18 41t-19.5 38.5zM635 1007
l76 -22l-18 -52v-36h159l42 45l66 -67h-154l28 -39l-43 -27q-17 -33 -39.5 -65.5t-46.5 -60.5q48 -42 114 -65.5t163 -29.5q-14 -8 -25.5 -14t-22.5 -13t-22.5 -16t-25.5 -22q-37 12 -66 25.5t-54.5 28.5t-48.5 33t-47 39q-36 -30 -70.5 -54t-70.5 -42t-75 -30t-83 -18h-13
q93 36 159 83.5t121 96.5q-27 29 -50 67.5t-46 89.5h-1q-2 0 -10 -6t-18.5 -14.5t-21.5 -17.5t-18 -14l-10 30l83 46q31 -51 59 -90.5t60 -64.5q28 32 51.5 72t39.5 92h-296l-48 -11l-16 33h250v33zM296 923l-33 -38q-6 -6 -22.5 -30.5t-35.5 -55.5t-38 -62.5t-31 -51.5
l148 3q22 35 41.5 69.5t31.5 69.5l62 -67l-36 -23q-24 -34 -55 -76.5t-64 -86t-66 -85t-62 -74.5l211 35q-5 25 -12.5 49t-17.5 50l7 6q42 -45 64.5 -79t30.5 -55q3 -11 3 -21q0 -22 -10.5 -41t-30.5 -19q-6 0 -7 1q-16 6 -23 88q-27 -6 -60 -15t-63.5 -19t-55.5 -19.5
t-37 -16.5l-49 -30l-44 78l67 12q28 38 53.5 74t46.5 67.5t36.5 58t24.5 44.5q-27 -2 -53.5 -4.5t-50.5 -8.5t-44.5 -15.5t-34.5 -24.5l-33 70l47 6q42 64 74.5 140.5t58.5 152.5zM71 110q24 35 37 73t18 83h7q3 -18 6.5 -42.5t3.5 -41.5q0 -26 -3 -51.5t-12 -47t-26 -35.5
t-45 -16q-14 14 -14 26t8.5 24.5t19.5 27.5zM332 325q14 -15 28 -36t25.5 -42.5t18.5 -42t7 -35.5q0 -14 -5 -27t-12.5 -22.5t-15 -15.5t-13.5 -6q-12 3 -16 13t-4 24t2 28.5t2 24.5v6q0 11 -1.5 28.5t-4 36t-7 35.5t-10.5 27zM219 286h7q5 -12 13.5 -30.5t16.5 -38.5
t14 -40t6 -36v-5q0 -34 -15.5 -50.5t-32.5 -22.5q-10 5 -13.5 13.5t-3.5 19.5t3 24t6 25.5t6 23.5t3 20q0 2 -0.5 4t-0.5 4q0 17 -1.5 38.5t-6.5 44.5z" />
  </g>

</svg>
