<?xml version="1.0" standalone="no"?>
<!DOCTYPE svg PUBLIC "-//W3C//DTD SVG 1.1//EN" "http://www.w3.org/Graphics/SVG/1.1/DTD/svg11.dtd" >
<svg xmlns="http://www.w3.org/2000/svg" xmlns:xlink="http://www.w3.org/1999/xlink" version="1.1" viewBox="0 -205 1024 1024">
  <g transform="matrix(1 0 0 -1 0 819)">
   <path fill="currentColor"
d="M482 539h146q7 58 10 110h-53q-27 1 -45 -13l-34 33h354l32 40l68 -50q8 -5 7 -8q-2 -2 -13 -2h-274q-4 -55 -11 -110h229l32 40l68 -50q8 -5 7 -8q-2 -2 -13 -2h-325q-4 -22 -7 -43q0 -2 -1 -8q-3 -15 -9 -39h208l21 27l51 -41q5 -2 5 -5q-1 -3 -8 -7q-4 -1 -10 -4
q-7 -2 -10 -3q-6 -2 -28 -55t-61 -113q-13 -19 -29 -37l6 -6q92 -85 189 -90v-16q-57 7 -68 -30q-55 28 -120 81l-3 3q-16 13 -33 28q-25 -23 -58 -47q-76 -57 -175 -93l-4 14q85 46 155 104q25 18 57 50q-25 29 -46 62q-31 53 -54 120q-13 -46 -31 -94q-39 -106 -115 -190
l-10 12q104 160 141 387q3 17 5 33h-64q-27 1 -45 -13zM372 372l7 11q43 -24 66 -64q25 -45 10 -67q-11 -10 -21 -5q-9 5 -10 23v3q-1 8 -4 20q-38 -2 -99 -6q-25 -1 -36 -2v-178q-1 -40 -15 -53q-13 -14 -55 -26q-1 25 -18 32q-16 7 -65 23l5 14l41 -9q36 -6 55 -3
q20 2 19 58v141q-29 -1 -43 -3q-107 -6 -126 -27l-24 50q45 -4 93 30q17 11 87 58q10 7 15 10q2 2 6 4q4 3 6 4q-33 -1 -51 -3q-3 0 -10 -1q-82 -4 -104 -28l-29 47q44 1 70 27q44 33 77 69q2 16 -6 23l8 8l55 -39q5 -3 5 -6t-5 -5q-17 2 -37 -8q-49 -40 -97 -71l148 4
q45 33 69 55q5 12 -4 23l8 8l59 -42q6 -4 6 -6q0 -3 -4 -5q-11 2 -31 -4q-176 -118 -254 -156l276 9l-4 9q-12 26 -39 54zM419 990l47 -42q10 -7 10 -12q1 -5 -8 -8q-21 4 -55 -4q-53 -16 -131 -30v-246l2 -57q3 -45 -41 -44q5 27 7 138v204q-94 -14 -219 -23l2 16
q176 24 257 44t100 30t19 28zM715 275q22 -31 46 -57q14 17 25 35q38 59 77 156h-216q33 -86 68 -134zM897 1000l57 -49q12 -11 13 -16q0 -5 -11 -4q-35 5 -76 -2q-88 -22 -162 -33q-73 -10 -231 -17v17q139 17 211 30q73 14 122 27q50 14 62 21q13 8 7 24zM113 864l54 -21
q7 -5 7 -9q0 -3 -7 -5q-12 2 -19 -9q-3 -3 -11 -16q7 11 -2 -4q26 -13 39 -22q27 -16 38 -46q9 -29 -12 -31q-13 -1 -18 16q-4 18 -18 35q-11 15 -37 35q-6 -10 -13 -22q-27 -45 -89 -89l-6 10q52 54 76 98t21 51q-2 8 -11 21zM379 882l52 -25q7 -5 7 -9q0 -3 -7 -5
q-12 1 -17 -8q-2 -3 -9 -15q-5 -8 -8 -13q28 -13 44 -23q27 -15 39 -45q9 -29 -11 -32q-9 -1 -20 21q-10 20 -18 30q-13 16 -41 37q-1 -2 -4 -7q-3 -4 -5 -7q-28 -45 -70 -89l-8 8q36 56 59 101t20 52q-2 8 -11 21zM107 712l54 -25q7 -5 7 -9q0 -3 -7 -5q-12 1 -19 -8
q-1 -2 -6 -8q-4 -5 -6 -8q25 -12 40 -21q27 -17 37 -46q9 -27 -10 -32q-12 -2 -18 16q-5 20 -20 36q-12 15 -37 34q-4 -5 -12 -18q-2 -5 -4 -8q-28 -46 -81 -88l-6 10q46 52 70 98t21 53q-2 8 -11 21zM381 706l46 -19q7 -5 7 -9q0 -3 -7 -5q-7 2 -15 -9q-1 -1 -2 -4
q-5 -7 -8 -12q29 -14 45 -26q27 -17 38 -44q8 -26 -11 -32q-10 -2 -20 21q-9 20 -17 30q-13 18 -43 39q-2 -3 -5 -9l-9 -15q-25 -42 -81 -82l-6 10q47 50 69 92q23 42 21 48q-1 7 -10 20zM895 902l60 -42q17 -10 7 -15q-20 2 -37 -9q-24 -40 -100 -144l-18 6l24 40
q68 123 66 134q-2 12 -10 23zM149 240l50 -24q17 -10 7 -15q-16 0 -30 -9q-67 -101 -143 -143l-4 12q48 47 80 91q33 45 36 55t-6 23zM518 855l7 9q108 -66 111 -136q1 -31 -20 -36q-21 -4 -23 23t-16 57t-59 83zM654 873l7 9q96 -58 100 -140q0 -34 -21 -37t-21 28t-10 61
t-55 79zM331 230l6 10q69 -35 100 -84q33 -61 -1 -77q-16 -2 -20 24q-4 24 -23 56q-19 34 -62 71z" />
  </g>

</svg>
