<?xml version="1.0" standalone="no"?>
<!DOCTYPE svg PUBLIC "-//W3C//DTD SVG 1.1//EN" "http://www.w3.org/Graphics/SVG/1.1/DTD/svg11.dtd" >
<svg xmlns="http://www.w3.org/2000/svg" xmlns:xlink="http://www.w3.org/1999/xlink" version="1.1" viewBox="0 -200 1000 1000">
  <g transform="matrix(1 0 0 -1 0 800)">
   <path fill="currentColor"
d="M850 1003l63 -46l-29 -39v-240q0 -6 -9.5 -13t-24 -12.5t-32 -9t-33.5 -3.5h-8q-4 6 -7 12t-12 13t-29 15.5t-58 19.5l-6 5q34 -3 63.5 -6.5t52.5 -3.5q22 0 34.5 5.5t12.5 22.5v205h-636l-21 -29l2 -232q-14 -4 -27 -12t-31 -9v349l70 -40h626zM207 869q48 -14 80 -23
t50 -18q12 14 26 27t27 33l84 -21l-38 -13q-18 -16 -31 -24.5t-28 -22.5q18 -7 34.5 -13t29 -12t20.5 -12t8 -12q0 -4 -3 -10t-8 -12t-12 -10t-15 -4q-10 0 -19 7t-18.5 17.5t-20 21.5t-23.5 19q-25 -16 -43.5 -26.5t-34.5 -17.5t-31 -12.5t-34 -11.5l-24 -5q34 19 72 44.5
t63 48.5q-8 12 -107 59zM756 871l-26 -20q-13 -17 -27.5 -25t-33.5 -25q78 -39 78 -60q0 -9 -12.5 -14.5t-23.5 -5.5q-8 0 -16.5 6t-17.5 14.5t-18.5 18t-19.5 16.5q-42 -26 -87.5 -40t-93.5 -28l-13 -2q52 23 94 46.5t68 48.5q-17 14 -47 31.5t-72 36.5l-1 1
q43 -14 80 -27.5t62 -24.5q18 17 32 36t22 41zM633 700l68 -33l-19 -62v-40h138l32 44q10 -12 26.5 -18.5t32.5 -12t27.5 -12.5t11.5 -19v-2q-2 -15 -11 -15.5t-25.5 -5t-40 -24t-53.5 -71.5h-6q5 7 7.5 18.5t4 25t2 26t0.5 21.5v12q0 5 -4 9h-142v-170h85l25 40l68 -45
l-36 -31q-20 -54 -49.5 -102.5t-58.5 -82.5q18 -19 46.5 -31.5t60 -20t62.5 -10.5t54 -3q-13 -4 -29.5 -12.5t-32.5 -18.5t-29.5 -19.5t-19.5 -15.5q-40 20 -76.5 45t-64.5 60q-29 -24 -62 -44.5t-65.5 -35.5t-63 -24.5t-54.5 -11.5l-4 -1q69 29 127.5 69t92.5 82
q-26 42 -49.5 86t-39.5 104h-34q-8 -84 -29.5 -147t-48.5 -106t-56 -67t-52 -31l-2 -1q38 45 65 95t44.5 111.5t25.5 137t8 170.5v31l-71 -11l-19 35h233v135zM579 348q14 -46 39 -86.5t61 -82.5q22 29 44.5 67t41.5 102h-186zM633 371v170h-121l50 -24l-21 -59v-31
q0 -13 -0.5 -24.5t-2.5 -31.5h95zM89 443q42 40 70 72.5t47.5 63t33 61.5t25.5 68l61 -65l-27 -20q-26 -35 -50 -63t-49 -50t-51.5 -39t-57.5 -30zM14 194q51 36 97 78.5t86 89t73 95t58 96.5l56 -52l-25 -20q-5 -6 -15.5 -20.5t-23.5 -31.5t-26.5 -33.5t-23.5 -26.5v-351
q-7 -7 -24.5 -12t-28.5 -8v315q-48 -47 -102.5 -75.5t-97.5 -42.5l-3 2v-3z" />
  </g>

</svg>
