<?xml version="1.0" standalone="no"?>
<!DOCTYPE svg PUBLIC "-//W3C//DTD SVG 1.1//EN" "http://www.w3.org/Graphics/SVG/1.1/DTD/svg11.dtd" >
<svg xmlns="http://www.w3.org/2000/svg" xmlns:xlink="http://www.w3.org/1999/xlink" version="1.1" viewBox="0 0 2048 2048">
  <g transform="matrix(1 0 0 -1 0 2048)">
   <path fill="currentColor"
d="M1238 1564q-121 55 -205 84l11 33q108 -23 249 -68q77 73 139 160l88 -63q36 -26 33 -48q-4 -33 -55 -22l-37 7q-29 -25 -43 -38q-17 -15 -32 -28q172 -70 172 -134q0 -40 -37 -46q-34 -5 -92 44q-36 30 -117 81q-119 -80 -308 -140l-12 37q138 57 246 141zM630 1540
q-108 62 -211 106l18 31q42 -14 122 -45q22 -9 89 -33q17 -6 37 -13q77 71 150 172l88 -63q36 -26 34 -47q-5 -34 -56 -23l-37 7q-29 -25 -43 -39q-29 -27 -51 -45q46 -24 83 -49q73 -48 69 -94q-4 -41 -40 -44t-87 51q-30 31 -100 84q-109 -71 -296 -132l-11 36
q133 57 242 140zM712 520q-136 -67 -443 -168l-44 -15l-9 -46q-6 -30 -22 -30t-36 34l-69 121q298 48 627 151q3 48 3 69v113h-321q-111 -1 -192 -8l-39 88q96 -23 231 -23h321v229l-367 -1q-120 0 -192 -8l-39 88q97 -23 231 -23h367v59l-5 122q-1 27 -2 38l105 -24
q85 -19 88 -44q3 -28 -50 -43l-38 -11v-540q1 -292 -122 -412q-113 -111 -424 -189l-13 36q35 12 53 19q212 75 302 172q82 88 99 246zM1239 1085h427l98 101l121 -107q20 -18 15 -33q-6 -19 -26 -19h-635v-242h389l98 101l121 -107q20 -18 15 -33q-6 -19 -26 -19h-597v-246
h503l98 101l121 -107q20 -18 15 -33q-6 -19 -26 -19h-711v-54q0 -106 13 -219q3 -28 3 -54q0 -38 -49 -41q-62 -5 -62 41v1045q0 117 -8 160l109 -24q82 -18 85 -44q3 -25 -50 -43l-41 -13v-92zM1616 1207q-9 69 -81 91q-29 9 -109 25l8 39q143 -20 200 -20q53 0 53 53
l1 392h-1345v-551q0 -27 -45 -30q-66 -5 -60 51l4 42q6 93 6 104v502l114 -65h1310l68 77l84 -55q40 -26 40 -48q0 -27 -78 -62v-376q0 -143 -170 -169z" />
  </g>

</svg>
