<?xml version="1.0" standalone="no"?>
<!DOCTYPE svg PUBLIC "-//W3C//DTD SVG 1.1//EN" "http://www.w3.org/Graphics/SVG/1.1/DTD/svg11.dtd" >
<svg xmlns="http://www.w3.org/2000/svg" xmlns:xlink="http://www.w3.org/1999/xlink" version="1.1" viewBox="0 0 2048 2048">
  <g transform="matrix(1 0 0 -1 0 2048)">
   <path fill="currentColor"
d="M1479 622q130 -159 130 -246q0 -22 -14 -42q-22 -30 -50 -26q-42 5 -69 89q-22 69 -56 138q-114 -143 -260 -246l-23 28q138 121 239 296q-76 133 -179 250l-10 -2l-39 86q113 -16 188 -17l133 -4l62 66l74 -54q36 -25 36 -41q0 -22 -64 -47q-60 -165 -98 -228zM1246 868
q96 -85 171 -174q26 58 60 178h-141q-25 0 -90 -4zM1125 1035q106 71 251 212h-773q-64 0 -149 -10l-39 86q119 -18 188 -18h790l73 70l97 -83q41 -36 30 -57q-12 -25 -99 -25q-183 -119 -326 -200q4 -35 -48 -52l-41 -13v-535q0 -142 -155 -171q-11 70 -47 93
q-33 21 -160 44l9 46q134 -22 189 -27q68 -6 68 57v457q0 114 -8 160l109 -24zM1715 1832l68 77l84 -54q40 -26 40 -49q0 -26 -78 -61v-304q0 -42 -47 -50q-52 -9 -52 23v23h-1399v-15q0 -25 -45 -32q-51 -8 -51 43v470l104 -71h1376zM331 1496h386v278h-386v-278zM813 1496
h416v278h-416v-278zM1325 1496h405v278h-405v-278zM1699 199v786q0 108 -9 160l113 -24q82 -18 86 -44q3 -27 -51 -44l-41 -13v-631q0 -111 12 -220q3 -28 3 -53q0 -38 -53 -43q-37 -3 -50 7q-10 7 -10 43v18h-1361q-24 -18 -46 -18q-61 0 -61 42l12 178v642q0 112 -9 160
l109 -24q83 -19 86 -44q3 -26 -51 -44l-40 -13v-821h1361zM566 968h144l62 69l72 -51q32 -23 34 -46q2 -27 -69 -56v-298l31 -26q26 -20 25 -34q-2 -19 -18 -19h-288v-38q0 -27 -38 -27q-44 0 -53 13q-12 19 -8 74q8 117 8 128v232q0 43 -8 138zM559 563h160v348h-160v-348z
" />
  </g>

</svg>
