<?xml version="1.0" standalone="no"?>
<!DOCTYPE svg PUBLIC "-//W3C//DTD SVG 1.1//EN" "http://www.w3.org/Graphics/SVG/1.1/DTD/svg11.dtd" >
<svg xmlns="http://www.w3.org/2000/svg" xmlns:xlink="http://www.w3.org/1999/xlink" version="1.1" viewBox="0 0 2048 2048">
  <g transform="matrix(1 0 0 -1 0 2048)">
   <path fill="currentColor"
d="M1825 1048l-5 -35q-47 -336 -165 -569q138 -186 324 -280l-4 -38q-51 0 -78 -10q-25 -10 -51 -42q-132 130 -243 283q-154 -192 -373 -306l-20 32q197 129 345 361q-59 120 -83 222q-13 55 -36 225l46 8q48 -251 114 -370q101 235 125 519l-263 -1q-71 -172 -169 -299
l-32 23q146 254 184 648l151 -44q41 -12 41 -40q0 -20 -36 -28q-8 -1 -15 -2q-14 -2 -42 -8q-35 -120 -60 -191h300l93 95l102 -96q14 -13 19 -25q4 -12 -3 -22t-19 -10h-147zM1015 950q13 21 28 42q67 93 130 220h-284q-69 0 -149 -11l-39 86q121 -17 188 -18l286 -1l68 76
l99 -76q47 -36 30 -65q-7 -11 -49 -22l-50 -13q-11 -13 -61 -71q-92 -97 -157 -155q87 -21 90 -45q3 -29 -50 -44l-40 -11l1 -583q1 -103 -47 -145q-44 -38 -136 -51q-7 59 -33 77q-32 21 -135 44l10 43q124 -26 175 -26q36 0 54 14q14 11 14 59v531q0 117 -8 160zM365 1856
h1353l68 77l79 -55q40 -27 40 -48q0 -27 -77 -62v-86q0 -10 4 -54q1 -21 4 -80q1 -37 3 -59q6 -59 -67 -59q-38 0 -38 26v13h-1381v-14q0 -37 -50 -37q-55 0 -55 60l12 183v110q0 73 -11 154zM1315 1800v-275h419v275h-419zM1219 1800h-387v-275h387v275zM736 1800h-383
v-275h383v275zM529 204h-254v-78q0 -37 -52 -37q-59 0 -55 60l4 57l3 80l4 76v779q0 85 -13 177l118 -91h225l68 77l84 -55q40 -26 40 -48q0 -27 -77 -62v-762q0 -24 3 -85q2 -37 4 -79q2 -41 4 -59q5 -53 -63 -59q-43 -3 -43 26v83zM529 769v401h-254v-401h254zM529 713
h-254v-453h254v453z" />
  </g>

</svg>
