<?xml version="1.0" standalone="no"?>
<!DOCTYPE svg PUBLIC "-//W3C//DTD SVG 1.1//EN" "http://www.w3.org/Graphics/SVG/1.1/DTD/svg11.dtd" >
<svg xmlns="http://www.w3.org/2000/svg" xmlns:xlink="http://www.w3.org/1999/xlink" version="1.1" viewBox="0 -205 1024 1024">
  <g transform="matrix(1 0 0 -1 0 819)">
   <path fill="currentColor"
d="M926 722v-134v-75q0 -37 -1 -76t-15 -75t-80 -52q-4 38 -64 54l2 14q70 -17 89 -4q20 14 22 98q3 84 1 254l-129 -59v-313l3 -71q2 -36 -56 -46q5 39 7 159v250l-115 -52v-406q0 -48 17 -60q17 -13 58 -17q41 -5 109 -4q70 -1 110 5q51 7 56 38q8 40 12 161h15l2 -111
q2 -51 33 -66q-26 -53 -77 -59q-29 -8 -139 -6q-88 -2 -152 8q-90 -3 -90 117v379l-50 -22q-25 -14 -30 -34l-46 24l126 58v237q-2 24 -29 44l7 12l102 -40q4 -3 3 -5q0 -2 -4 -4q-16 -4 -33 -17v-206l115 53v258q2 16 -30 46l9 12l91 -36q14 -5 6 -11q-21 -7 -30 -21v-227
l109 50l26 49l72 -41q6 -7 -7 -14zM374 994l70 -46q17 -10 7 -15q-24 3 -39 -11q-59 -82 -110 -147h71l32 40l68 -50q8 -5 7 -8q-2 -2 -13 -2h-189v-168h59l32 40l68 -50q8 -5 7 -8q-2 -2 -13 -2h-153q3 -97 -5 -176h96l32 40l68 -50q8 -5 7 -8q-2 -2 -13 -2h-193
q-10 -85 -34 -149q-50 -129 -202 -195l-8 10q126 77 170 199q20 57 30 135h-124q-27 1 -45 -13l-34 33h205q8 78 6 176h-82q-27 1 -45 -13l-34 33h161v168h-108q-27 1 -45 -13l-34 33h231l42 73q54 97 54 110q0 14 -8 29zM97 975l10 11q53 -42 76 -68t37 -55q24 -65 -19 -77
q-19 0 -22 29q-2 30 -16 64q-13 35 -66 96z" />
  </g>

</svg>
