<?xml version="1.0" standalone="no"?>
<!DOCTYPE svg PUBLIC "-//W3C//DTD SVG 1.1//EN" "http://www.w3.org/Graphics/SVG/1.1/DTD/svg11.dtd" >
<svg xmlns="http://www.w3.org/2000/svg" xmlns:xlink="http://www.w3.org/1999/xlink" version="1.1" viewBox="0 -205 1024 1024">
  <g transform="matrix(1 0 0 -1 0 819)">
   <path fill="currentColor"
d="M510 396l-51 32l199 43v209q-94 -32 -211 -51l-3 16q88 21 214 71v231q-1 24 -30 44l7 12l103 -40q4 -3 3 -5q0 -2 -4 -4q-16 -4 -33 -17v-202q131 60 153 91q6 9 0 25l8 3l64 -49q7 -7 6 -12q-1 -4 -9 -6q-12 6 -33 1q-101 -58 -189 -91v-216l164 36l20 45l77 -37
q13 -7 10 -10q-2 -3 -20 -4l-251 -53v-290q0 -48 17 -61t40 -14q40 -2 71 -1q28 -2 73 3q46 7 50 43q8 38 12 159h15l2 -111q3 -57 29 -67q-21 -53 -72 -59q-30 -7 -97 -4q-48 -2 -102 0q-88 11 -84 118v274l-109 -22q-33 -13 -39 -30zM372 995l71 -46q17 -10 7 -15
q-24 3 -39 -11q-70 -97 -114 -152h82l33 40l68 -50q8 -5 7 -8q-2 -2 -13 -2h-198v-169h71l32 40l69 -50q8 -5 7 -8q-2 -2 -13 -2h-166q2 -100 -7 -177h106l33 41l68 -51q8 -5 7 -8q-2 -2 -13 -2h-203q-11 -85 -34 -149q-51 -131 -202 -196l-8 10q126 78 170 200
q20 57 29 135h-127q-27 1 -45 -13l-34 33h209q8 80 7 177h-86q-28 1 -46 -13l-34 33h166v169h-113q-27 1 -45 -13l-34 33h234l44 77q56 101 54 111q0 14 -8 29zM86 976l10 11q54 -42 77 -68q22 -26 37 -56q24 -65 -19 -77q-19 0 -22 29q-2 30 -16 64q-14 36 -67 97z" />
  </g>

</svg>
