<?xml version="1.0" standalone="no"?>
<!DOCTYPE svg PUBLIC "-//W3C//DTD SVG 1.1//EN" "http://www.w3.org/Graphics/SVG/1.1/DTD/svg11.dtd" >
<svg xmlns="http://www.w3.org/2000/svg" xmlns:xlink="http://www.w3.org/1999/xlink" version="1.1" viewBox="0 -205 1024 1024">
  <g transform="matrix(1 0 0 -1 0 819)">
   <path fill="currentColor"
d="M203 230l34 -29h511l29 34l46 -40q7 -4 6 -8q-1 -3 -10 -7l-18 -9v-44l4 -48q7 -41 -46 -44v44h-513v-7q3 -38 -49 -46q0 2 1 4q4 35 6 71v96q-3 11 -16 21zM652 995l68 -44q9 -10 -1 -15q-15 3 -31 -1q-35 -42 -89 -97h234l34 42l70 -50q8 -5 7 -8q-2 -2 -13 -2h-406
v-102h232l34 42l70 -50q8 -5 7 -8q-2 -2 -13 -2h-330v-102h332l36 42l68 -50q8 -5 7 -8q-2 -2 -13 -2h-831q-27 1 -45 -13l-34 31h438v102h-257q-27 1 -45 -13l-34 31h336v102h-325q-27 1 -45 -13l-34 31h490q39 53 58 81q21 29 23 41q3 11 -8 27zM246 95h513v90h-513v-90z
M36 443h862l24 34l58 -42q8 -5 7 -8q-2 -2 -13 -2h-859q-27 1 -45 -13zM168 367h570l24 34l62 -40q8 -5 7 -8q-2 -2 -13 -2h-579q-19 1 -37 -13zM172 287h566l24 34l62 -40q8 -5 7 -8q-2 -2 -13 -2h-575q-19 1 -37 -13zM274 975l6 14q122 -41 134 -104q6 -30 -14 -37t-28 24
t-31 55t-67 48zM400 551l2 11q81 -8 110 -40q30 -41 -7 -56q-16 -1 -21 15q-4 17 -21 34q-15 18 -63 36z" />
  </g>

</svg>
