<?xml version="1.0" standalone="no"?>
<!DOCTYPE svg PUBLIC "-//W3C//DTD SVG 1.1//EN" "http://www.w3.org/Graphics/SVG/1.1/DTD/svg11.dtd" >
<svg xmlns="http://www.w3.org/2000/svg" xmlns:xlink="http://www.w3.org/1999/xlink" version="1.1" viewBox="0 0 2048 2048">
  <g transform="matrix(1 0 0 -1 0 2048)">
   <path fill="currentColor"
d="M741 613q4 -18 14 -54q24 -89 76 -191q29 -58 52 -52q19 5 32 76q2 14 16 71q4 18 30 141l31 -12q-6 -62 -19 -171q-8 -62 -8 -88q0 -84 17 -140q9 -29 5 -44q-6 -24 -31 -23q-38 2 -104 72q-98 102 -172 312q-145 -228 -313 -373l-26 27q140 150 296 436l11 20
q-29 114 -44 245q-13 116 -26 560l-1 32h-317q-67 0 -149 -11l-39 86q121 -18 188 -18h316q-1 50 0 133q1 257 -8 302l103 -24q74 -17 77 -42q3 -30 -45 -43l-37 -11q-2 -92 -2 -164l1 -119v-32h120l98 102l121 -107q20 -18 16 -33q-6 -19 -26 -19h-329q-1 -495 43 -705
l9 20q70 171 91 268q31 139 38 202l158 -56q28 -10 26 -33q-2 -18 -38 -26l-57 -14q-85 -292 -194 -500zM805 1861q88 -40 126 -64q76 -48 73 -110q-3 -41 -36 -47q-34 -7 -56 50q-27 69 -125 145zM1742 67q-2 67 -37 90.5t-166 46.5l8 46q135 -22 190 -27q68 -6 68 57v1479
h-97q-63 0 -148 -10l-39 86q126 -18 187 -18h80l68 76l79 -54q41 -27 41 -49q0 -28 -79 -62v-1490q0 -142 -155 -171zM263 1242h120l63 69l72 -51q33 -23 35 -46q2 -26 -69 -56v-267l31 -27q26 -19 24 -33q-2 -19 -17 -19h-266v-74q0 -28 -40 -25q-61 5 -61 51l10 161v238
q0 1 -10 167zM256 870h137v316h-137v-316zM1495 1536q83 -55 149 -111q104 -88 104 -176q0 -21 -14.5 -40.5t-31.5 -22.5q-32 -5 -49 36q-3 5 -15 53q-27 103 -165 236zM1051 1528q252 -168 252 -287q0 -21 -14 -40t-31 -22q-32 -5 -49 35q-3 6 -16 54q-27 102 -164 236z
M1285 1026l27 -19q-53 -119 -133 -246q-32 -52 -52 -80q13 -68 -4 -78q-19 -11 -45 21l-80 101q83 59 164 149q40 45 85 105q21 28 38 47zM1739 1004l29 -19q-42 -103 -133 -249q-32 -51 -52 -79q13 -69 -4 -78q-19 -12 -45 21l-80 100q142 101 285 304zM562 672l13 -36
q-90 -61 -383 -200l-6 -46q-4 -32 -20 -32q-21 0 -38 32l-58 111q190 47 492 171zM1263 67q-2 66 -43 93q-32 21 -159 44l8 46q134 -22 189 -27q68 -6 68 57v1479h-108q-117 0 -192 -8l-38 88q85 -22 203 -22h118l68 76l80 -54q40 -27 40 -49q0 -28 -78 -62v-1490
q0 -142 -156 -171z" />
  </g>

</svg>
