<?xml version="1.0" standalone="no"?>
<!DOCTYPE svg PUBLIC "-//W3C//DTD SVG 1.1//EN" "http://www.w3.org/Graphics/SVG/1.1/DTD/svg11.dtd" >
<svg xmlns="http://www.w3.org/2000/svg" xmlns:xlink="http://www.w3.org/1999/xlink" version="1.1" viewBox="0 0 2048 2048">
  <g transform="matrix(1 0 0 -1 0 2048)">
   <path fill="currentColor"
d="M1238 1368q14 31 21 46q46 100 104 249h-197q-71 0 -148 -11l-40 86q124 -17 188 -17h530l101 101l120 -107q21 -18 16 -34q-6 -18 -26 -18h-420q-34 -60 -109 -169q-18 -27 -51 -77q-19 -28 -34 -49h410l61 72l72 -47q36 -24 41 -45q6 -20 -24 -38l-39 -21v-734
q0 -78 -51 -109q-28 -17 -91 -34q0 55 -22 75q-17 16 -63 31l7 42q18 -8 50 -8q42 0 52 5q22 13 22 56v702h-155v-472q0 -105 11 -209q3 -28 3 -54q0 -39 -49 -42q-62 -3 -62 40v737h-135v-480q0 -102 12 -209q3 -27 3 -54q0 -38 -49 -41q-62 -4 -62 41v743h-138v-848
q0 -60 -69 -54q-45 4 -42 50q0 18 4 45q13 109 13 210v561q0 12 -8 156l122 -67h121zM356 1061q267 -137 292 -241q6 -28 -6.5 -50.5t-35.5 -25.5q-38 -5 -66 53q-44 89 -103 151q-23 24 -86 66l-110 -692q109 17 358 83l11 -38q-121 -56 -365 -141q-40 -15 -63 -20l-4 -27
q-3 -23 -10 -34q-15 -24 -35 -8q-13 11 -29 42l-56 112q59 5 103 13l219 1441h-30q-117 0 -192 -8l-39 88q92 -22 231 -22h404l98 97l120 -107q21 -18 16 -33q-5 -19 -25 -19l-495 4l-58 -391h344l68 76l84 -54q40 -26 40 -49q0 -27 -78 -61l-81 -987q-3 -45 27 -60
q28 -13 126 -13h708q132 0 162 28q33 32 82 302l35 -7l-13 -218q-3 -37 15 -60q4 -5 36 -34q10 -10 12 -25q7 -45 -103 -63q-48 -7 -203 -11h-758q-117 0 -140 6q-92 21 -84 120l85 1054h-372z" />
  </g>

</svg>
