<?xml version="1.0" standalone="no"?>
<!DOCTYPE svg PUBLIC "-//W3C//DTD SVG 1.1//EN" "http://www.w3.org/Graphics/SVG/1.1/DTD/svg11.dtd" >
<svg xmlns="http://www.w3.org/2000/svg" xmlns:xlink="http://www.w3.org/1999/xlink" version="1.1" viewBox="0 0 2048 2048">
  <g transform="matrix(1 0 0 -1 0 2048)">
   <path fill="currentColor"
d="M1034 1717l-9 222l126 -21q39 -6 48 -22q17 -28 -30 -42l-41 -13l4 -124h13l79 80l117 -88q10 -7 12 -19q7 -33 -26 -33h-192l5 -142q2 -46 -65 -41q-31 2 -33 44l-5 139h-56q-64 0 -149 -9l-39 86q115 -17 188 -17h53zM1546 1657q-55 -1 -106 -9l-39 86q83 -14 150 -17
q0 12 8 148l4 65l123 -31q54 -13 55 -36q2 -25 -49 -34l-34 -6l-7 -106h78l96 95l135 -106q11 -9 11 -23q0 -26 -24 -26h-300l-10 -142q-3 -46 -61 -43q-44 3 -42 32l10 121zM953 757l122 -64h552l68 76l83 -54q41 -27 41 -49q0 -27 -78 -62v-344l63 -45q14 -10 11 -25
q-2 -17 -20 -17h-747v-57q0 -27 -44 -31q-66 -5 -61 51l4 42q6 98 6 104v475zM1048 230h596v409h-596v-409zM1060 899l-38 86q122 -18 187 -18h252l96 96l135 -106q11 -9 11 -23q0 -25 -24 -25h-470q-69 0 -149 -10zM1384 1430q107 -121 156 -164q190 -170 469 -229l-5 -36
q-60 2 -88 -10q-26 -11 -47 -50q-180 79 -339 230q-83 78 -183 238q-118 -198 -237 -308q-117 -108 -281 -196l-18 33q156 108 269 236q130 148 217 377l123 -48q41 -17 44 -41q3 -27 -38 -30zM730 1763v-1403q0 -111 12 -219q3 -28 3 -53q0 -39 -49 -42q-62 -4 -62 42v524
q-95 -43 -433 -157l-10 -44q-6 -29 -23 -30q-19 -2 -35 30l-64 128q72 9 144 28v1196q-72 -3 -112 -9l-38 89q96 -23 230 -23h377l98 101l121 -106q20 -19 15 -34q-6 -18 -25 -18h-149zM634 1763h-326v-311h325zM633 1394h-325v-326h325v326zM633 1010h-325l-1 -430
q139 25 325 82z" />
  </g>

</svg>
