<?xml version="1.0" standalone="no"?>
<!DOCTYPE svg PUBLIC "-//W3C//DTD SVG 1.1//EN" "http://www.w3.org/Graphics/SVG/1.1/DTD/svg11.dtd" >
<svg xmlns="http://www.w3.org/2000/svg" xmlns:xlink="http://www.w3.org/1999/xlink" version="1.1" viewBox="0 0 2048 2048">
  <g transform="matrix(1 0 0 -1 0 2048)">
   <path fill="currentColor"
d="M1409 1667l4 -22q93 -516 127 -641q76 -282 221 -527q101 -172 229 -258l-8 -38q-28 4 -49 4q-50 0 -104 -44q-147 194 -250 452q-122 306 -187 846q-41 -521 -194 -870q-115 -264 -338 -500l-28 27q179 229 289 521q80 215 118 411q29 153 60 469q16 158 22 268h-191v58
h172l69 90l84 -52q45 -28 45 -50q0 -24 -85 -65q-3 -41 -6 -79zM708 1006q-117 -95 -309 -215l6 -42q4 -32 -25 -30q-21 2 -42 30l-62 82q-1 -16 -3 -88q-11 -359 -170 -683l-36 14q114 337 114 809v852q0 83 -13 173l108 -78h412l69 78l81 -56q42 -29 42 -49q0 -31 -77 -58
v-1499q0 -78 -41 -116q-34 -31 -117 -54q-2 66 -43 92q-33 21 -160 44l8 42q135 -23 190 -27q68 -6 68 57v722zM708 1057v188q-16 -43 -54 -37q-22 3 -51 30q-92 84 -327 152v-540q273 115 432 207zM708 1286v485h-432v-339q12 -3 29 -6q14 -3 70 -12q111 -17 213 -45
q99 -26 120 -83z" />
  </g>

</svg>
