<?xml version="1.0" standalone="no"?>
<!DOCTYPE svg PUBLIC "-//W3C//DTD SVG 1.1//EN" "http://www.w3.org/Graphics/SVG/1.1/DTD/svg11.dtd" >
<svg xmlns="http://www.w3.org/2000/svg" xmlns:xlink="http://www.w3.org/1999/xlink" version="1.1" viewBox="0 -205 1024 1024">
  <g transform="matrix(1 0 0 -1 0 819)">
   <path fill="currentColor"
d="M401 580l38 -49h365l30 43l50 -42q10 -6 10 -11t-10 -8l-20 -19v-396q0 -26 -11 -45q-11 -18 -74 -32q-6 34 -40 43q-6 2 -18 5q-16 3 -57 15l2 16q97 -17 118 -17t29 6q7 6 7 73v83h-372v-90l4 -88q0 -21 -15 -31q-15 -9 -40 -15q4 39 7 167v334q-4 28 -21 49zM426 633
l426 22q-21 15 -88 53q-22 12 -34 19l8 11q73 -24 122 -47q51 -24 75 -48q23 -26 18 -50q-3 -23 -20 -26q-18 0 -23 22q-9 19 -30 41l-84 -6q-367 -21 -375 -25q-4 -2 -25 -10q-20 -8 -30 -13l-28 64q46 1 69 14q93 47 237 129q5 2 9 5l-90 -5q-109 -8 -153 -14
q-28 -4 -47 -12l-27 56q57 5 73 21q61 39 110 80q48 39 58 53q8 15 -2 31l9 7l90 -59q12 -8 9 -14t-17 -4h-24q-21 1 -30 -4q-126 -83 -200 -121l276 5q55 34 84 58q22 19 25 28q4 9 -7 27l8 8l91 -59q6 -4 6 -11q-2 -7 -9 -7q-49 3 -74 -9q-193 -118 -386 -210zM820 511
h-372v-122h372v122zM448 373v-112h372v112h-372zM174 969l99 -42q4 -2 4 -4t-4 -4q-16 -3 -34 -19v-374q-1 -323 -213 -506l-6 14q175 211 175 498v386q-9 28 -27 43z" />
  </g>

</svg>
