<?xml version="1.0" standalone="no"?>
<!DOCTYPE svg PUBLIC "-//W3C//DTD SVG 1.1//EN" "http://www.w3.org/Graphics/SVG/1.1/DTD/svg11.dtd" >
<svg xmlns="http://www.w3.org/2000/svg" xmlns:xlink="http://www.w3.org/1999/xlink" version="1.1" viewBox="0 -205 1024 1024">
  <g transform="matrix(1 0 0 -1 0 819)">
   <path fill="currentColor"
d="M101 966l43 -48h155l30 41l44 -43q9 -6 9 -11q0 -4 -9 -8l-20 -13v-718q2 -61 -10 -86q-12 -26 -68 -34q1 40 -90 49l2 18q74 -11 99 -9t25 48v299h-160q-6 -115 -25 -210q-29 -137 -103 -213l-10 10q54 95 76 218q22 125 22 337v312q-6 24 -25 49zM774 671l71 -42
q8 -9 -4 -13q-15 4 -30 -4q-28 -46 -75 -105h114l34 42l70 -52q8 -5 7 -8q-2 -2 -13 -2h-246v-110h112l34 42l70 -52q8 -5 7 -8q-2 -2 -13 -2h-210v-108h162l34 42l70 -52q8 -5 7 -8q-2 -2 -13 -2h-260v-100l2 -57q3 -36 -51 -44q5 37 7 100v101h-171q-27 1 -45 -13l-34 33
h250v108h-117q-27 1 -45 -13l-34 33h196v110h-151q-27 1 -45 -13l-34 33h282q26 50 45 86q20 39 19 49q-1 11 -10 21zM707 960q6 -5 5 -9q-1 -3 -9 -5q-21 -6 -28 -20q-17 -49 -40 -93h251l32 40l68 -50q8 -5 7 -8q-2 -2 -13 -2h-207q17 -28 42 -60q92 -119 196 -124l-1 -14
q-47 0 -67 -27q-97 49 -157 150q-24 38 -38 75h-123q-31 -58 -72 -108q-78 -97 -170 -145l-6 14q84 65 146 152q33 47 56 87h-108q-27 1 -45 -13l-34 33h197q14 26 23 48q27 69 25 79q-1 11 -14 26l7 8zM153 677v-112q0 -49 -2 -96h160v208h-158zM153 695h158v203h-158v-203
zM537 660q97 -45 105 -107q3 -29 -19 -35t-26 24t-18 52q-14 23 -50 54z" />
  </g>

</svg>
