<?xml version="1.0" standalone="no"?>
<!DOCTYPE svg PUBLIC "-//W3C//DTD SVG 1.1//EN" "http://www.w3.org/Graphics/SVG/1.1/DTD/svg11.dtd" >
<svg xmlns="http://www.w3.org/2000/svg" xmlns:xlink="http://www.w3.org/1999/xlink" version="1.1" viewBox="0 -205 1024 1024">
  <g transform="matrix(1 0 0 -1 0 819)">
   <path fill="currentColor"
d="M786 404v-262q2 -62 -11 -88t-67 -34q0 42 -94 57l2 16q78 -15 103 -14t25 49v87h-473v-75l4 -73q1 -36 -53 -46q5 39 7 140v272q0 22 -16 35l15 11l36 -41h468l28 35l40 -35q9 -6 9 -11q0 -4 -9 -8zM744 317h-473v-86h473v86zM271 333h473v85h-473v-85zM188 905
q3 22 -21 43l9 9l75 -38q8 -2 10 -5t-3 -7q-20 -4 -32 -18v-91h267v151q2 17 -25 42l8 11l80 -34q14 -5 6 -11q-16 -4 -27 -18v-141h260v94q2 17 -26 42l9 12l79 -32q14 -5 6 -11q-21 -7 -30 -21v-71l4 -25q1 -35 -42 -46v38h-564l-27 -32l-46 36q26 18 30 38v85zM94 649
q3 14 -21 35l9 9l69 -30q8 -2 10 -5t-3 -7q-16 -4 -28 -18v-85l127 9v136q2 17 -25 42l8 11l78 -34q14 -5 6 -11q-16 -4 -27 -18v-123l120 9v69q2 17 -24 36l9 12l73 -26q14 -5 6 -11q-19 -7 -28 -21v-83l4 -21q-2 -17 -40 -32v61l-276 -40l-27 -27l-46 44q22 14 26 34v85z
M560 649q3 17 -21 33l9 9l73 -28q8 -2 10 -5t-3 -7q-20 -4 -32 -18v-95h127v155q2 17 -25 42l8 11l78 -34q14 -5 6 -11q-16 -4 -27 -18v-145h120v96q2 16 -22 32l9 12l73 -22q14 -5 6 -11q-21 -7 -30 -21v-75l4 -25q1 -32 -40 -42v40h-276l-29 -32l-42 40q23 11 24 30v89z
" />
  </g>

</svg>
