<?xml version="1.0" standalone="no"?>
<!DOCTYPE svg PUBLIC "-//W3C//DTD SVG 1.1//EN" "http://www.w3.org/Graphics/SVG/1.1/DTD/svg11.dtd" >
<svg xmlns="http://www.w3.org/2000/svg" xmlns:xlink="http://www.w3.org/1999/xlink" version="1.1" viewBox="0 -205 1024 1024">
  <g transform="matrix(1 0 0 -1 0 819)">
   <path fill="currentColor"
d="M95 982l43 -52v4h131l30 35l40 -37q9 -6 9 -11q0 -4 -9 -8l-20 -13v-718q1 -60 -9 -86q-11 -26 -61 -34q-2 36 -74 49l2 18q59 -11 81 -9q23 2 23 48v299h-140q-5 -116 -22 -212q-25 -137 -94 -215l-8 12q50 95 69 218q19 128 19 339v312q-6 24 -25 49zM722 183
q-19 41 -107 55l2 16q13 -2 36 -5q115 -28 129 50q18 56 19 151q0 29 -5 72q-1 5 -1 9q-27 -49 -83 -114q-68 -79 -169 -131l-8 12q83 61 141 131q56 67 104 164q-1 4 -4 12l-9 27q-2 4 -5 12q-5 12 -8 18q-30 -42 -72 -90q-52 -58 -143 -106l-8 10q72 56 118 111
q42 51 82 118q-1 2 -4 7q-12 19 -33 48q-28 -33 -59 -60q-45 -40 -104 -66l-6 14q86 58 164 169q30 41 45 72h-127q-27 1 -45 -13l-30 33h364l32 38l64 -48q8 -5 7 -8q-2 -2 -13 -2h-203q-29 -52 -64 -99q-1 -2 -5 -6q-3 -4 -5 -6q59 -63 89 -132q6 -13 11 -27q36 35 71 76
q39 45 42 56q5 12 -3 21l8 6l50 -41q7 -5 7 -9q0 -3 -7 -5q-20 -1 -25 -6q-4 -5 -33 -32q-28 -27 -102 -88q6 -20 11 -38q51 -28 98 -78q44 -48 59 -92q13 -45 -12 -57q-24 -10 -32 28q-7 39 -39 89q-27 42 -67 81l3 -27q4 -43 5 -72q1 -31 -2 -58q-5 -54 -24 -103
q-22 -58 -95 -87zM396 540q-18 2 -36 -12l-32 32h112l25 31l46 -37q7 -6 6 -10t-10 -6l-16 -10v-331q19 -4 40 -20q31 -22 61 -36q31 -16 107 -20h94q74 2 215 11v-14q-54 -8 -60 -40l-147 1q-160 -2 -203 18t-73 49q-30 27 -50 24q-32 0 -90 -95l-42 38q45 42 76 64
q17 12 32 17v346h-55zM143 697v-116v-56q0 -22 -1 -40h139v212h-138zM143 715h138v199h-138v-199zM376 920l6 12q110 -60 122 -140q3 -34 -18 -36q-21 -1 -25 27q-4 29 -25 67t-60 70z" />
  </g>

</svg>
