<?xml version="1.0" standalone="no"?>
<!DOCTYPE svg PUBLIC "-//W3C//DTD SVG 1.1//EN" "http://www.w3.org/Graphics/SVG/1.1/DTD/svg11.dtd" >
<svg xmlns="http://www.w3.org/2000/svg" xmlns:xlink="http://www.w3.org/1999/xlink" version="1.1" viewBox="0 -200 1000 1000">
  <g transform="matrix(1 0 0 -1 0 800)">
   <path fill="currentColor"
d="M585 560q19 19 42.5 45t46.5 58t42 69t29 79l64 -59l-34 -30q-30 -49 -67.5 -96t-86.5 -89h108q14 4 22 10t12 17t5.5 29t2.5 45l4 -1q0 -39 4.5 -68t24.5 -34q3 -4 4.5 -7t1.5 -8q0 -12 -15.5 -20.5t-49.5 -8.5h-161q-3 0 -3.5 -0.5t-2.5 -0.5t-4.5 0.5t-6.5 1.5
q-20 -14 -45 -29.5t-51 -28.5t-51 -22t-46 -11l-2 3q37 23 77 51.5t85 64.5v243l64 -32l-16 -56v-117zM590 830q33 -19 60.5 -41.5t27.5 -46.5q0 -13 -13.5 -26t-25.5 -13q-8 0 -10.5 12t-6 31t-10 41t-22.5 43zM834 705q35 -24 60.5 -56.5t25.5 -64.5q0 -8 -1 -11
l-15.5 -15.5t-16.5 -7.5q-1 0 -7 2q-17 8 -17 26q-1 18 -3 32t-6 27t-10 27t-15 33zM469 699q1 -14 2.5 -33t1.5 -39q0 -29 -5.5 -51.5t-22.5 -26.5q-2 0 -4.5 -0.5t-5.5 -0.5q-9 0 -21.5 3.5t-12.5 11.5q0 7 7 18t16.5 27t20 38t17.5 53h7zM857 922q15 -7 32 -13.5t32 -14
t25 -16t10 -19.5q0 -6 -6 -16q-2 -5 -4 -5.5t-4 -0.5h-5q-6 0 -13.5 -1t-19 -9.5t-27.5 -28.5t-39 -57l-10 6q5 12 14 30t9 41q0 19 -13 28h-368v-8q0 -42 -12.5 -70t-43.5 -28h-4q-22 3 -22 23q0 12 9 33q11 9 21.5 24.5t18.5 32.5t13 34t5 29h11l7 -45h171v48l-14 82
l78 -30l-15 -59v-41h145zM687 348h151v40l55 -45l-24 -28v-115h-182v-113l161 15l2 -9l-63 -14t-101 -22.5t-116 -27t-109 -28.5l-36 57l213 25v117h-134v-39q-11 -8 -27 -13.5t-26 -7.5v242l64 -34h123v121l64 -27l-15 -55v-39zM512 324l-8 -12v-88h134v100h-126zM687 324
v-100h129v100h-129zM862 50q-11 28 -17.5 40.5t-13 20.5t-15 17.5t-23.5 30.5q14 -6 34 -14.5t39.5 -20t35 -27t21.5 -36.5v-8q0 -11 -4 -19t-9.5 -13t-11 -7t-8.5 -2q-4 0 -8.5 4.5t-8.5 11t-7 13t-4 9.5zM132 746v210l61 -42h100l33 42l50 -55l-30 -34l-1 -748
q-3 -12 -6 -24.5t-9.5 -25.5t-19.5 -25t-36 -23q-3 21 -9 34t-17.5 22t-28.5 16t-41 15l2 13q23 -4 39.5 -6t27.5 -2q25 0 35.5 8t15.5 26v274h-126q-5 -66 -14.5 -129t-24.5 -118.5t-35.5 -100.5t-47.5 -74l-12 2q20 50 33.5 95.5t23.5 94t16.5 103t12.5 122.5
q5 92 6.5 170.5t1.5 159.5zM175 444h123v210h-116zM181 846v-170h117v214h-106z" />
  </g>

</svg>
