<?xml version="1.0" standalone="no"?>
<!DOCTYPE svg PUBLIC "-//W3C//DTD SVG 1.1//EN" "http://www.w3.org/Graphics/SVG/1.1/DTD/svg11.dtd" >
<svg xmlns="http://www.w3.org/2000/svg" xmlns:xlink="http://www.w3.org/1999/xlink" version="1.1" viewBox="0 -205 1024 1024">
  <g transform="matrix(1 0 0 -1 0 819)">
   <path fill="currentColor"
d="M107 988l38 -48h148l30 35l38 -37q9 -6 9 -11q0 -4 -9 -8l-20 -13v-730q2 -50 -10 -81q-12 -32 -62 -39q-5 30 -67 43q-7 1 -11 2l2 18q62 -11 87 -9t25 48v315h-152q-4 -117 -26 -218q-31 -143 -106 -221l-8 12q58 93 83 224q26 134 21 345v312q-6 24 -25 49zM457 981
l32 -37h344l43 35l40 -43q7 -4 5 -7q-1 -4 -11 -6l-18 -9v-172l4 -15q-6 -17 -40 -19v26h-361v-1q5 -36 -43 -42q5 35 7 80v165q-3 19 -17 35zM736 721l74 -30q14 -5 6 -11q-16 -4 -27 -18v-49h64l30 40l68 -48q8 -5 7 -8q-2 -2 -13 -2h-156v-102h108l32 36l66 -44
q8 -5 7 -8q-2 -2 -13 -2h-203q41 -40 66 -61q46 -37 97 -61q20 -8 59 -14v-14q-50 3 -54 -20q-36 15 -60 33t-63 51q-35 29 -74 86h-163q-30 -51 -62 -83q-34 -34 -83 -68q-49 -33 -89 -46l-8 12q65 42 90 64q26 22 54 50q26 27 52 71h-98q-27 1 -45 -13l-34 31h180v102h-73
q-27 -1 -45 -15l-34 33h152v59q2 17 -25 42l8 11l74 -34q14 -5 6 -11q-16 -4 -27 -18v-49h166v59q2 16 -25 38zM594 208q-97 -45 -108 -53q-10 -6 -18 -28l-46 42l235 87v148q1 11 -23 33l8 11l75 -25q9 -4 11 -7q2 -4 -4 -7q-18 -5 -31 -16v-132q9 -2 24 -6q4 -1 6 -1
l32 47q31 46 31 59q0 14 -6 15l9 6l49 -33q15 -7 5 -15q-13 5 -27 -3q-12 -13 -42 -48q-19 -22 -30 -34q50 -13 79 -30q82 -41 78 -72q1 -17 -13 -22t-29 15q-15 18 -62 51q-40 27 -104 53v-119q2 -58 -36 -70q-12 -5 -42 -12q2 25 -21 33q-22 8 -76 22l2 16l42 -8
q50 -8 74 -4q24 5 21 58v78zM153 699v-114q2 -48 0 -94h152v208h-152zM153 717h152v203h-152v-203zM495 846h361v82h-361v-82zM856 832h-361v-82h361v82zM753 595h-166v-102h166v102zM508 350l4 10q75 -18 89 -53q16 -33 -12 -42q-13 0 -19 17q-15 40 -62 68z" />
  </g>

</svg>
