<?xml version="1.0" standalone="no"?>
<!DOCTYPE svg PUBLIC "-//W3C//DTD SVG 1.1//EN" "http://www.w3.org/Graphics/SVG/1.1/DTD/svg11.dtd" >
<svg xmlns="http://www.w3.org/2000/svg" xmlns:xlink="http://www.w3.org/1999/xlink" version="1.1" viewBox="0 -205 1024 1024">
  <g transform="matrix(1 0 0 -1 0 819)">
   <path fill="currentColor"
d="M94 961l38 -48h132l30 35l38 -37q9 -6 9 -11q0 -4 -9 -8l-20 -13v-718q2 -58 -9 -83t-61 -35q0 37 -82 47l2 18q66 -11 90 -9t24 50v297h-136q-4 -116 -23 -214q-29 -141 -97 -213l-8 12q51 92 73 215q23 131 19 342v312q-6 24 -25 49zM703 812l81 -36q14 -5 6 -11
q-21 -7 -30 -21v-34h148l22 34l50 -40q8 -5 7 -8q-2 -2 -13 -2h-214v-81h108l21 27l44 -31q7 -6 5 -10q-1 -5 -11 -7l-14 -9v-156l3 -36q0 -22 -43 -27l4 55v2h-117v-36l2 -29q4 -37 -45 -44q5 36 7 109h-114v-20l4 -37q2 -38 -45 -46q0 4 1 13q4 26 6 57v224q-3 18 -14 33
l12 8l32 -40h118v81h-143q-27 1 -45 -13l-34 29h222v44q2 16 -30 46zM761 998l81 -36q14 -5 6 -11q-21 -7 -30 -21v-48h78l32 40l68 -50q8 -5 7 -8q-2 -2 -13 -2h-172l2 -16q2 -30 -45 -38q3 20 5 54h-188v-27l2 -29q4 -37 -45 -44q4 35 7 100h-117q-27 1 -45 -13l-34 33
h196v62q2 16 -30 46l9 12l81 -36q14 -5 6 -11q-21 -7 -30 -21v-52h189q0 8 1 18v40q2 16 -30 46zM140 676v-116q1 -19 1 -41v-55h135v212h-136zM140 694h136v199h-136v-199zM817 325q-1 29 -16 37l8 12l62 -25q11 -5 13 -10q1 -4 -7 -7q-16 -2 -24 -13v-39h55l28 36l58 -42
q8 -5 7 -8q-2 -2 -13 -2h-135v-156q3 -61 -81 -78q-3 33 -86 58q-8 3 -12 4l4 14l19 -5q62 -12 89 -12t31 35v140h-254q-27 1 -45 -13l-34 29h333v45zM517 581h14l-30 -138q-42 -148 -51 -174q-9 -25 2 -113q11 -86 -19 -88t-20 82q11 83 -3 95q-13 14 -49 18l4 18
q38 -10 51 10q14 20 30 63q17 43 71 227zM879 511h-119v-76h119v76zM724 511h-114v-76h114v76zM760 525h119v72h-119v-72zM724 597h-114v-72h114v72zM341 597l10 8q74 -32 95 -79q19 -49 -16 -55q-15 0 -19 26t-22 50t-48 50zM387 741l10 12q83 -31 96 -66q17 -45 -17 -50
q-15 0 -17 21t-22 43t-50 40zM594 230l4 13q84 -21 108 -49q24 -40 -8 -48q-15 -1 -22 16q-7 18 -26 33q-19 14 -56 35zM818 802l5 10q51 -16 64 -42q21 -36 -6 -43q-13 -2 -22 22q-5 14 -9 20q-9 14 -32 33z" />
  </g>

</svg>
