<?xml version="1.0" standalone="no"?>
<!DOCTYPE svg PUBLIC "-//W3C//DTD SVG 1.1//EN" "http://www.w3.org/Graphics/SVG/1.1/DTD/svg11.dtd" >
<svg xmlns="http://www.w3.org/2000/svg" xmlns:xlink="http://www.w3.org/1999/xlink" version="1.1" viewBox="0 0 2048 2048">
  <g transform="matrix(1 0 0 -1 0 2048)">
   <path fill="currentColor"
d="M1256 970v-722q0 -47 7 -104q3 -27 3 -43q0 -42 -56 -49q-48 -7 -48 24v275q-80 -35 -299 -105l-39 -13l-13 -45q-9 -30 -24 -28q-21 3 -33 36l-46 125q34 3 139 16v633q-31 -9 -59 -12l-39 86q118 -17 188 -17h228l80 81l112 -85h412l80 80l114 -85q21 -16 16 -33
q-6 -19 -26 -19h-146v-596h26l64 56l85 -61q21 -16 16 -34q-6 -19 -26 -19h-165v-65q0 -47 7 -104q3 -27 3 -43q0 -41 -56 -49q-48 -7 -48 24v237h-257q-69 0 -149 -10l-39 86q51 -8 112 -15v597h-124zM1162 970h-220v-153h220v153zM1162 759h-220v-163h220v163zM1162 538
h-220v-188q84 13 220 43v145zM1475 966v-153h238v153h-238zM1475 755v-159h238v159h-238zM1475 538v-168h238v168h-238zM1032 1274v501h-47q-70 0 -149 -11l-39 86q123 -18 188 -18h795l80 81l114 -86q21 -16 16 -33q-6 -19 -26 -19h-271v-501h46l80 81l114 -86
q21 -16 15 -34t-26 -18h-229v-114q0 -26 -45 -31q-53 -5 -53 31v114h-614q-69 0 -149 -11l-39 86q124 -18 188 -18h51zM1131 1775v-126h464v126h-464zM1131 1591v-129h464v129h-464zM1131 1405v-131h464v131h-464zM589 967q-90 -82 -219 -166q-3 -70 -24 -76q-17 -5 -42 39
l-45 78l-1 -38q-23 -469 -171 -731l-31 13q66 199 89 369q36 262 36 586v577q0 69 -7 279l104 -72l290 3l68 76l84 -54q40 -26 40 -49q0 -27 -78 -61v-1531q0 -118 -142 -143q1 61 -39 85q-29 18 -96 32l8 42q88 -19 129 -19q47 0 47 68v693zM272 1406q265 -43 317 -125v490
h-317v-365zM589 1211q-18 -20 -36 -18q-23 3 -58 40q-64 67 -136 100q-22 10 -87 35v-109q-1 -185 -9 -344q-1 -25 -2 -49q169 55 328 154v191z" />
  </g>

</svg>
