<?xml version="1.0" standalone="no"?>
<!DOCTYPE svg PUBLIC "-//W3C//DTD SVG 1.1//EN" "http://www.w3.org/Graphics/SVG/1.1/DTD/svg11.dtd" >
<svg xmlns="http://www.w3.org/2000/svg" xmlns:xlink="http://www.w3.org/1999/xlink" version="1.1" viewBox="0 -200 1000 1000">
  <g transform="matrix(1 0 0 -1 0 800)">
   <path fill="currentColor"
d="M129 863h14l41 131l45 -41l-75 -90h98l30 37l53 -49l-29 -33v-362q-11 -9 -25 -12t-21 -3v73h-141v-63q-8 -6 -24 -11t-24 -6v456zM149 318q1 10 1.5 20t0.5 20q0 15 -0.5 29.5t-0.5 30.5v14l57 -27l-13 -41q-2 -11 -1.5 -23t-1.5 -23h54l36 37l51 -58h-142
q-3 -17 -5 -33t-4 -25q23 -12 45 -29t38.5 -36t26.5 -38t10 -35q0 -6 -1.5 -14.5t-4.5 -15.5t-7.5 -12t-9.5 -5h-6t-6.5 4t-7 12.5t-6.5 26.5q-12 55 -33.5 84t-40.5 48q-8 -36 -22.5 -73t-32.5 -69t-37.5 -55.5t-36.5 -31.5l-10 4q21 30 38 60.5t30 66t22.5 76t16.5 90.5
h-36l-51 -8l-20 29h110zM119 625v-90h141v90h-141zM119 646h141v89h-141v-89zM119 828v-72h141v86h-131zM269 364q-2 -6 -7.5 -11.5t-12.5 -5.5q-10 0 -14 15q-7 26 -14.5 45.5t-20.5 32.5l6 6q10 -3 21.5 -9t21.5 -14.5t16.5 -18t6.5 -18.5q0 -6 -1 -7zM382 790l-39 -10
l-23 32h85v183l61 -34l-17 -62v-87h99v183l59 -32l-16 -55v-96h10l41 39l51 -60h-102v-407h18l38 44l55 -65h-286v-249q41 69 58 206l53 -49l-27 -34q-15 -36 -33 -75t-55 -88h128l43 43l60 -66h-213l-37 -37l-52 45l31 30v274l-37 -14l-15 35h85v406h-23zM449 673h99v117
h-99v-117zM449 534h99v116h-99v-116zM449 384h99v129h-99v-129zM663 194q5 -5 5 -13q0 -14 -16.5 -16.5t-34.5 -2.5h-20q-19 0 -30 1.5t-16.5 9.5t-7 24.5t-1.5 46.5v56v29.5t-1 24.5l51 -31l-17 -49q-3 -12 -3 -31q0 -14 1 -24.5t3 -10.5l2 2v-1q0 -2 4.5 -3t9.5 -1
q3 0 6 -0.5t7 -0.5q10 0 20 5t18 25q4 -14 9 -23.5t11 -16.5zM911 759l49 -50l-27 -33q0 -102 -2 -180.5t-5 -138.5t-7 -103t-8 -73q-5 -55 -21.5 -89.5t-48.5 -48.5q0 52 -75 81l2 12q14 -4 31.5 -7.5t28.5 -3.5q9 0 14.5 2t8.5 6.5t5.5 11t6.5 15.5q4 19 9 54t9 89t7 128
t3 170q0 23 -0.5 46.5t-0.5 48.5h-94q-1 -85 -7.5 -182.5t-24 -192t-49.5 -178t-84 -140.5l-6 7q23 48 42 98.5t33 101.5q29 112 39 220t10 211v55h-28l-46 -16l-16 40h90v280l58 -32l-15 -69v-179h91z" />
  </g>

</svg>
