<?xml version="1.0" standalone="no"?>
<!DOCTYPE svg PUBLIC "-//W3C//DTD SVG 1.1//EN" "http://www.w3.org/Graphics/SVG/1.1/DTD/svg11.dtd" >
<svg xmlns="http://www.w3.org/2000/svg" xmlns:xlink="http://www.w3.org/1999/xlink" version="1.1" viewBox="0 -205 1024 1024">
  <g transform="matrix(1 0 0 -1 0 819)">
   <path fill="currentColor"
d="M268 998l76 -28q9 -3 9 -7q0 -1 -8 -6q-17 -9 -22 -16v-53h104l32 40l68 -48q7 -4 7 -7t-9 -3h-202v-93h66l29 31l45 -44q5 -5 5 -7q0 -3 -8 -5q-18 -2 -34 -34q-34 -63 -86 -130q-60 -79 -178 -134h647l32 42l68 -50q7 -4 7 -7t-13 -4h-498l66 -22q6 -2 5 -9
q-2 -7 -7 -5q-23 0 -30 -7q-72 -66 -114 -92q17 3 386 8q-18 30 -85 78l6 11q148 -63 142 -131q0 -26 -21 -26q-14 0 -20 22q-5 18 -11 29l-337 -19q-103 -3 -122 -26l-24 56q32 5 60 12q73 49 102 99q0 5 -7 15l5 7h-175q-24 0 -41 -12l-30 27q-58 -25 -111 -35l-4 14
q265 92 360 330h-198q-9 -19 -24 -54l-1 -1q94 -36 101 -95q0 -16 -16 -21h-4q-8 0 -22 25q-28 50 -65 77q-34 -67 -95 -123l-8 10q91 136 111 229v1q-1 11 -11 18l6 12l61 -27q8 -5 8 -8q0 -1 -7 -5q-20 -10 -26 -20h75v176q0 17 -23 34zM478 262l80 -26q9 -3 9 -7
q0 -1 -8 -6q-17 -9 -22 -16v-28h224l26 43l68 -49q7 -5 5 -7q-1 -3 -11 -3h-312v-110h334l32 42l68 -50q6 -5 4 -7q-1 -3 -10 -3h-833q-22 0 -41 -13l-34 31h438v110h-253q-22 0 -41 -13l-34 29h328v40q0 15 -25 32zM980 780v-17q-60 -1 -64 -26q-123 40 -214 194
q-112 -154 -227 -208l-6 13q176 147 204 234v3q0 11 -11 19l6 8l72 -27q11 -6 11 -11q0 -3 -4 -4h-4q-17 0 -28 -11q129 -176 265 -167zM853 663l58 -40q5 -4 4 -9t-6 -4q-24 4 -39 -5q-184 -112 -406 -134l-2 14q324 76 388 164q0 4 -4 7zM767 747l53 -40q6 -4 5 -9
q-1 -4 -7 -4q-14 3 -29 0q-131 -101 -277 -122l-2 14q151 45 256 140q0 5 -6 15zM703 817l49 -36q8 -5 5 -9q-5 -5 -14 -3q-8 0 -20 -3q-118 -91 -211 -104l-2 14q117 53 188 120q0 5 -2 11l-2 4z" />
  </g>

</svg>
