<?xml version="1.0" standalone="no"?>
<!DOCTYPE svg PUBLIC "-//W3C//DTD SVG 1.1//EN" "http://www.w3.org/Graphics/SVG/1.1/DTD/svg11.dtd" >
<svg xmlns="http://www.w3.org/2000/svg" xmlns:xlink="http://www.w3.org/1999/xlink" version="1.1" viewBox="0 0 2048 2048">
  <g transform="matrix(1 0 0 -1 0 2048)">
   <path fill="currentColor"
d="M1653 1696l80 80l114 -86q21 -16 16 -33q-6 -19 -26 -19h-776v-113h441l80 80l114 -86q21 -15 15 -33q-6 -19 -26 -19h-624v-124h441l80 80l114 -86q21 -15 15 -33q-6 -19 -26 -19h-624v-106h649l80 81l114 -86q21 -16 16 -34q-6 -18 -26 -18h-1643q-69 0 -149 -11
l-39 86q124 -18 188 -18h712v106h-449q-70 0 -149 -10l-39 85q125 -17 188 -17h449v124h-449q-68 0 -149 -10l-39 86q121 -18 188 -18h449v113h-651q-64 0 -149 -10l-39 86q125 -18 188 -18h1341zM1293 1713l-23 30q111 108 200 239l98 -52q48 -25 43 -43q-5 -15 -58 -15
h-41q-61 -57 -101 -85q-11 -7 -57 -35q-20 -13 -61 -39zM1759 1005l59 66l88 -70q35 -27 37 -44q2 -21 -38 -29l-49 -10q-50 -66 -124 -140l-27 17q37 79 54 154h-1507q-22 -207 -124 -207q-26 0 -42 21q-13 17 -10 36q5 23 71 76q63 51 66 209h34l5 -79h1507zM942 795
q-168 -101 -202 -116q-143 -63 -189 -84q334 15 637 33q197 10 254 15q-66 53 -165 105l15 31q361 -125 395 -256q6 -25 -8 -49q-12 -20 -34 -23q-27 -3 -53 25q-6 6 -44 61q-24 36 -62 69q-181 -25 -394 -46l-104 -10l79 -18q79 -17 85 -43q6 -28 -49 -44l-41 -11l2 -64
l418 -1l95 86l116 -90q21 -17 16 -34q-6 -19 -26 -19h-619v-129h702l95 91l116 -96q21 -17 16 -33q-6 -19 -26 -19h-1663q-99 0 -174 -8l-38 88q96 -23 190 -23h684v129l-442 -1q-102 0 -166 -7l-39 89q103 -25 198 -24l449 1l1 40q-6 128 -8 137q-24 -3 -181 -14
q-148 -11 -257 -21l-13 -36q-7 -20 -25 -20q-19 0 -29 25l-39 107q189 68 374 207h-274q-64 0 -149 -11l-39 86q121 -18 188 -18h936l80 81l114 -86q21 -16 15 -33q-5 -19 -25 -19h-693zM551 1957q20 -7 30 -11q226 -85 231 -161q3 -45 -38 -57q-26 -8 -48 16q-5 5 -39 52
q-51 69 -152 129z" />
  </g>

</svg>
