<?xml version="1.0" standalone="no"?>
<!DOCTYPE svg PUBLIC "-//W3C//DTD SVG 1.1//EN" "http://www.w3.org/Graphics/SVG/1.1/DTD/svg11.dtd" >
<svg xmlns="http://www.w3.org/2000/svg" xmlns:xlink="http://www.w3.org/1999/xlink" version="1.1" viewBox="0 0 2048 2048">
  <g transform="matrix(1 0 0 -1 0 2048)">
   <path fill="currentColor"
d="M486 1716l-1 -12v-164l286 2l72 91l110 -93q13 -11 16 -23q7 -31 -24 -31h-460v-228h1087v236h-240q-68 0 -148 -9q-20 -2 -46 -3l-32 80q87 -14 226 -14h240v206h-256q-128 0 -189 -10l-35 81q77 -16 224 -16h237l68 76l83 -54q40 -26 40 -49q0 -28 -77 -61l1 -274
q1 -149 4 -194q4 -53 4 -92q0 -54 -66 -58q-41 -1 -40 30v69l-1082 -1l-1 -52q-1 -45 -58 -42q-50 2 -50 54q0 68 4 105q4 47 4 181v262q-2 81 -16 138l110 -83q27 8 41 12q219 65 342 177l84 -77q32 -30 23 -50q-9 -19 -44 -12l-47 9q-218 -77 -394 -107zM1574 188
q-12 70 -47 93q-33 21 -160 43l8 46q140 -22 190 -26q68 -6 68 56v225h-561v-240q0 -108 12 -219q3 -26 3 -53q0 -38 -49 -42q-62 -6 -62 42v512h-550v-382q0 -23 -18 -35q-23 -16 -59 -10q-38 7 -38 45q0 15 4 51q12 107 12 209v130q-3 90 -15 138l118 -88h546v209h-623
q-117 0 -192 -8l-38 88q94 -23 230 -23h623v80q0 69 -8 114l109 -24q82 -18 86 -43q4 -26 -51 -44l-40 -14v-69l627 -1l88 103l120 -107q21 -18 16 -33q-6 -19 -26 -19h-825v-209h543l68 76l84 -54q40 -26 40 -49q0 -26 -78 -61v-236q0 -142 -155 -171z" />
  </g>

</svg>
