<?xml version="1.0" standalone="no"?>
<!DOCTYPE svg PUBLIC "-//W3C//DTD SVG 1.1//EN" "http://www.w3.org/Graphics/SVG/1.1/DTD/svg11.dtd" >
<svg xmlns="http://www.w3.org/2000/svg" xmlns:xlink="http://www.w3.org/1999/xlink" version="1.1" viewBox="0 -205 1024 1024">
  <g transform="matrix(1 0 0 -1 0 819)">
   <path fill="currentColor"
d="M351 779h228l26 34l46 -40q8 -6 6 -10q-2 -3 -12 -2h-148l-42 -119h112l18 32l53 -39q5 -8 -5 -10l-16 -10q-3 -33 -11 -79q-6 -46 -22 -87q-15 -40 -35 -58q-10 -9 -47 -29q-9 -5 -14 -8q-3 29 -22 45q-29 14 -56 23l2 14q10 -2 30 -7q22 -6 35 -9q36 -13 56 16
q18 25 31 87q10 60 13 101h-115l-26 -28l-40 37q13 11 23 25l38 103h-26q-27 0 -45 -13zM134 643l42 -38q92 31 107 53q3 8 -1 17l9 6l52 -50q4 -4 2 -7t-9 -4q-13 2 -33 -2q-4 -1 -6 -1q-48 -18 -113 -29v-68h100l24 36l51 -42q8 -6 6 -10q-2 -3 -12 -2h-169v-86h111l24 36
l51 -42q8 -6 6 -10q-2 -3 -12 -2h-180v-10q0 -23 -13 -32q-14 -11 -36 -15q4 40 7 160v96q-6 24 -20 34zM129 948l42 -37q90 32 102 50q3 6 -1 15l9 8l49 -48q4 -4 3 -7q-2 -3 -9 -4q-13 2 -31 -2q-5 -1 -7 -1q-47 -17 -107 -28v-71h91l24 36l51 -42q8 -6 6 -10
q-2 -3 -12 -2h-160v-86h106l24 36l51 -42q8 -6 6 -10q-2 -3 -12 -2h-175q-2 -22 -13 -29q-14 -11 -36 -15q4 39 7 159v87q-5 21 -20 34zM671 532h171v84h-119q-18 1 -38 -14l-35 32h176l37 40l46 -46q7 -6 6 -10q-1 -5 -10 -6l-21 -8v-155l4 -53q-1 -18 -13 -25
q-14 -7 -33 -12v51h-93q-27 2 -45 -13l-34 31h172v86h-92q-27 0 -45 -13zM662 844h175v82h-122q-18 1 -38 -14l-35 32h179l37 39l46 -45q7 -6 6 -10q-1 -5 -10 -6l-21 -8v-141l4 -53q-1 -18 -13 -24q-14 -7 -33 -12v46h-96q-27 2 -45 -13l-34 31h175v78h-96q-27 0 -45 -13z
M36 326h863l32 40l68 -50q7 -5 6 -8q-1 -2 -12 -2h-878q-27 0 -45 -13zM632 265l4 13q127 -43 196 -93q69 -48 92 -93q22 -44 -2 -59q-25 -15 -42 24t-77 97q-57 57 -171 111zM323 287l63 -48q16 -12 7 -15q-24 3 -40 -5q-141 -125 -290 -199l-6 13q92 63 180 139
q72 65 79 78q6 12 -1 30zM379 919h148l26 34l45 -40q8 -6 6 -10q-2 -3 -12 -2h-133q-27 1 -45 -14z" />
  </g>

</svg>
