<?xml version="1.0" standalone="no"?>
<!DOCTYPE svg PUBLIC "-//W3C//DTD SVG 1.1//EN" "http://www.w3.org/Graphics/SVG/1.1/DTD/svg11.dtd" >
<svg xmlns="http://www.w3.org/2000/svg" xmlns:xlink="http://www.w3.org/1999/xlink" version="1.1" viewBox="0 0 2048 2048">
  <g transform="matrix(1 0 0 -1 0 2048)">
   <path fill="currentColor"
d="M583 304q-24 1 -51 45q-41 65 -153 153q-82 -72 -248 -162l-17 33q241 171 336 408l123 -59q30 -14 30 -32t-42 -25l-48 -7l-25 -35h328l60 72l96 -68q21 -15 23 -34q2 -23 -23 -31l-41 -13q-126 -197 -276 -297q-209 -141 -515 -209l-11 39q297 99 454 222zM621 331
q116 90 194 235l-372 1q-18 -20 -35 -37q228 -102 220 -178q-1 -7 -7 -21zM1046 1739l-5 -52q77 -143 174 -225q84 -71 214 -118v175q-81 -2 -137 -10l-38 79q95 -12 175 -16v30q0 79 -6 119l96 -22q67 -16 71 -41q3 -24 -49 -38l-22 -7v-41h168v30q-4 105 -7 119l96 -22
q68 -16 71 -41q3 -23 -50 -38l-21 -7v-41h21l75 75l87 -75q26 -21 23 -38q-3 -15 -29 -15h-177v-99l28 -24q20 -12 19 -25q-2 -16 -26 -16h-278l1 -35q163 -46 439 -57v-42q-100 -1 -116 -66q-341 57 -465 107q-144 59 -239 171q-45 53 -115 178q-32 -111 -94 -186
q-109 -129 -433 -215q-106 -28 -353 -66l-7 41q365 70 559 169q140 73 199 188q35 69 48 197h-594q-116 0 -191 -8l-39 88q96 -22 230 -22h601q4 81 -2 168l142 -28q38 -8 38 -29q0 -18 -32 -32l-39 -17l-5 -62h673l98 101l121 -107q20 -18 15 -33q-6 -19 -25 -19h-888z
M1519 1410h168v109h-168v-109zM1426 296h-326q-21 -9 -38 -11q-50 -7 -61 15q-5 11 4 30l89 203l-36 79q125 -18 188 -18h180v50q0 80 -8 125l109 -24q82 -18 85 -43q3 -26 -50 -44l-41 -14v-50h160l80 81l114 -87q21 -15 15 -33q-5 -19 -25 -19h-344v-185h234l88 89
l109 -81q25 -19 27 -38q3 -25 -24 -25h-434v-34q0 -53 6 -104q3 -26 3 -44q0 -41 -56 -49q-48 -7 -48 25v206zM1426 351v185h-236l-83 -185h319zM334 1344v-11q0 -26 -42 -29q-59 -4 -53 48l3 31l-1 32l3 31v66h-3q-61 0 -135 -10l-37 79q95 -12 175 -16v30q0 85 -6 125
l96 -23q67 -15 71 -40q3 -24 -49 -39l-22 -6v-47h167v30q-4 111 -6 125l96 -23q67 -15 71 -40q3 -23 -50 -39l-21 -6v-47l55 -1l69 62l91 -70q15 -11 15 -28t-15 -17l-215 1v-103l27 -24q21 -12 20 -25q-2 -16 -26 -16h-278zM334 1399h167v113h-167v-113zM1409 1026v-32
q185 -39 269 -71q128 -50 123 -117q-4 -47 -42 -42q-22 3 -111 70q-74 55 -239 116v-172q0 -38 -57 -38q-38 0 -38 25v187q-146 -126 -330 -204l-17 36q170 98 294 242h-78q-69 0 -148 -11l-39 87q118 -20 187 -20h131v20q0 61 -9 114l104 -22q61 -13 60 -35q-1 -19 -26 -28
l-34 -11v-38h218l80 81l114 -86q21 -16 16 -33q-6 -18 -26 -18h-402zM477 1026h-89q-75 0 -149 -10l-39 86q118 -20 188 -20h172v20q0 67 -10 114l105 -20q63 -12 63 -36q0 -13 -41 -31l-22 -9v-38h119l82 78l94 -78q27 -19 23 -37q-4 -19 -35 -19h-283v-40q124 -36 163 -52
q102 -43 98 -105q-2 -25 -19 -34q-26 -13 -76 34q-65 62 -166 109v-156q0 -29 -42 -36q-53 -9 -53 21v211q-157 -144 -415 -243l-20 38q227 103 352 253z" />
  </g>

</svg>
