<?xml version="1.0" standalone="no"?>
<!DOCTYPE svg PUBLIC "-//W3C//DTD SVG 1.1//EN" "http://www.w3.org/Graphics/SVG/1.1/DTD/svg11.dtd" >
<svg xmlns="http://www.w3.org/2000/svg" xmlns:xlink="http://www.w3.org/1999/xlink" version="1.1" viewBox="0 -200 1000 1000">
  <g transform="matrix(1 0 0 -1 0 800)">
   <path fill="currentColor"
d="M484 248q24 22 51.5 55.5t54 73t51.5 83.5t44.5 88.5t33 86.5t17.5 78h-108l-68 -15l-21 38h217v265l76 -33l-22 -66v-166h32l47 46l61 -69h-140v-607q-18 -57 -44 -79t-55 -28q0 2 0.5 4.5t0.5 4.5q0 27 -22.5 47t-81.5 38l-1 8q30 -5 52 -8t39 -3q26 0 40 9t18 32v453
q-6 -19 -27.5 -62.5t-55.5 -95t-79.5 -103t-98.5 -86.5zM57 -1q43 34 73 78.5t49 105.5t29 141.5t13 187.5h167v-369q-2 -17 -13 -22.5t-29 -8.5q-2 -1 -10 -1q-15 0 -35.5 4.5t-44.5 4.5v-14q45 -5 71 -26.5t27 -54.5q19 4 35 15t27 25t17.5 29t7.5 27v391h128l-65 67
l-41 -41h-22v270l35 38l-61 54l-40 -49l-123 1q8 7 22.5 22.5t48.5 53.5l37 17l-75 48q-4 -19 -11 -39.5t-15 -39t-16 -34t-14 -24.5l-60 38v-358h-124l20 -40l64 16h36q0 -122 -10.5 -206t-27.5 -141.5t-37.5 -94t-40.5 -63.5zM246 829h142v-293h-167q1 36 1 69v66
t0.5 67.5t1.5 72.5zM266 740q16 -39 22 -66t9 -44t7 -25t15 -8q14 0 23.5 19.5t9.5 37.5v7q-8 17 -16 28t-17.5 19.5t-20.5 17t-25 20.5zM254 405q14 -22 22.5 -42.5t14.5 -40.5q1 -6 3 -17t5 -21.5t8 -18.5t12 -8q3 0 7 2q14 8 20.5 20.5t6.5 25.5q0 9 -1 12q-5 16 -12 28
t-17.5 22.5t-24.5 22t-33 26.5z" />
  </g>

</svg>
