<?xml version="1.0" standalone="no"?>
<!DOCTYPE svg PUBLIC "-//W3C//DTD SVG 1.1//EN" "http://www.w3.org/Graphics/SVG/1.1/DTD/svg11.dtd" >
<svg xmlns="http://www.w3.org/2000/svg" xmlns:xlink="http://www.w3.org/1999/xlink" version="1.1" viewBox="0 -205 1024 1024">
  <g transform="matrix(1 0 0 -1 0 819)">
   <path fill="currentColor"
d="M337 789v-651q0 -26 -11 -46t-58 -27q-1 28 -39 41q-37 12 -76 20l2 14q101 -15 115 -15q15 0 22 6q8 5 7 58v318h-153q-4 -154 -22 -246q-27 -132 -103 -229l-10 12q73 143 86 269q9 83 11 194h-19q-23 1 -41 -13l-34 33h94q2 54 0 116v165q-2 23 -23 48l10 8l44 -44h22
q22 48 34 81q13 36 13 45q0 10 -14 23l10 9l72 -34q5 -4 5 -7q0 -4 -6 -6q-16 -1 -26 -8q-36 -62 -62 -103h102l28 41l40 -36q8 -6 8 -11q-1 -4 -10 -8zM1000 650v-15q-50 -2 -75 -33q-64 21 -126 57q-19 13 -39 25q-1 -1 -5 -4q-3 -2 -5 -4q-79 -70 -207 -114l-4 12
q114 62 174 116q10 8 19 17q-18 15 -33 32q-32 35 -55 70q-46 -63 -94 -98l-6 9q63 75 100 149q38 74 36 86q0 13 -8 26l9 4l62 -24q17 -10 7 -15q-25 -3 -30 -12q-19 -38 -39 -70h169l23 24l39 -45q5 -4 5 -7q-1 -3 -8 -5q-16 -1 -34 -24q-23 -29 -46 -56q-18 -20 -40 -41
q33 -22 63 -33q33 -13 61 -20q29 -7 87 -7zM414 506q-18 2 -36 -12l-32 32h112l35 35l42 -43q7 -6 6 -10t-10 -6l-20 -8v-314q26 -6 66 -30q18 -12 27 -17q23 -14 103 -27l98 -2q80 2 209 13v-16q-53 -4 -62 -38l-131 -1q-148 4 -186 20q-37 16 -72 44q-32 26 -56 27
q-22 1 -43 -10q-21 -14 -67 -81l-44 42q54 40 92 60q15 9 28 14v328h-59zM146 800v-141q2 -70 0 -132h153v273h-153zM731 634l75 -24q14 -5 6 -11q-21 -7 -30 -21v-52h74l24 32l58 -38q8 -6 7 -8q-2 -3 -13 -2h-150v-98h56l24 34l50 -40q8 -6 7 -8q-2 -3 -13 -2h-124v-102
h104l24 34l56 -40q8 -6 7 -8q-2 -3 -13 -2h-178v-53l2 -44q3 -34 -47 -42q5 35 7 103v36h-105q-27 1 -45 -13l-34 29h184v102h-59q-27 1 -45 -13l-34 29h138v98h-81q-27 1 -45 -13l-34 29h160v62q2 16 -22 34zM668 844l-10 -15q17 -22 47 -51q27 -25 54 -46l27 30
q37 40 61 82h-179zM407 866l6 12q114 -71 113 -142q-1 -30 -21 -32t-23 26t-16 59t-59 77zM182 447l6 10q50 -28 70 -88q20 -74 -17 -78q-19 0 -18 29q2 29 -6 63t-35 64zM174 745l6 10q50 -25 70 -85q20 -75 -17 -79q-19 0 -18 29q2 29 -6 63t-35 62z" />
  </g>

</svg>
