<?xml version="1.0" standalone="no"?>
<!DOCTYPE svg PUBLIC "-//W3C//DTD SVG 1.1//EN" "http://www.w3.org/Graphics/SVG/1.1/DTD/svg11.dtd" >
<svg xmlns="http://www.w3.org/2000/svg" xmlns:xlink="http://www.w3.org/1999/xlink" version="1.1" viewBox="0 0 2048 2048">
  <g transform="matrix(1 0 0 -1 0 2048)">
   <path fill="currentColor"
d="M420 1566h-108q-117 0 -192 -8l-38 88q94 -24 230 -24h122q24 110 45 278l111 -26q61 -14 65 -38q3 -22 -19 -28l-36 -9l-26 -8q-9 -44 -13 -66q-13 -68 -23 -103h203l98 101l120 -107q21 -17 16 -33q-5 -17 -31 -17h-420l-4 -15l-12 -39q436 -216 402 -349
q-7 -27 -32 -33q-34 -8 -69 40q-120 164 -319 292q-107 -254 -380 -453l-28 34q265 244 338 523zM545 563q438 -213 402 -350q-6 -27 -32 -34q-33 -8 -68 40q-132 181 -320 294q-58 -138 -131 -221q-116 -133 -298 -206l-14 25q147 97 217 180q149 176 186 443
q17 123 19 397l103 -24q74 -18 81 -34q11 -29 -51 -50l-34 -11q-14 -235 -35 -341q181 116 283 278l116 -78q25 -18 23 -34q-4 -20 -31 -16l-58 9q-94 -86 -211 -153q-20 -11 -133 -61q-7 -27 -14 -53v0zM151 921q39 -28 59 -41q175 -121 198 -205q8 -30 -4 -57
q-11 -25 -38 -30q-31 -5 -45 19q-9 15 -21 57q-22 78 -168 232zM1172 722v-442q0 -57 49 -66q53 -10 283 -10q239 0 277 10q46 13 58 56q13 43 36 229h33l-4 -191q0 -39 15 -60q4 -5 37 -34q10 -10 12 -25q7 -47 -106 -64q-62 -10 -353 -10q-318 0 -358 12q-77 23 -77 118
l-1 1055q-54 -50 -104 -87l-24 28q257 272 348 672l142 -47q30 -10 33 -28q2 -24 -35 -29l-53 -6q-24 -59 -49 -121l283 -1l66 72l103 -83q22 -18 22 -32q0 -17 -26 -25l-69 -20q-26 -41 -94 -152q-36 -60 -120 -168h240l68 77l84 -53q40 -26 40 -49q0 -22 -29 -39
q-7 -4 -13 -7q-12 -6 -36 -20v-375l52 -32q22 -14 22 -34q0 -19 -18 -19h-734zM1167 1273l273 -1q98 166 174 355h-308q-85 -172 -210 -306zM1171 1216v-437h245v437h-245zM1511 1216v-437h245v437h-245z" />
  </g>

</svg>
