<?xml version="1.0" standalone="no"?>
<!DOCTYPE svg PUBLIC "-//W3C//DTD SVG 1.1//EN" "http://www.w3.org/Graphics/SVG/1.1/DTD/svg11.dtd" >
<svg xmlns="http://www.w3.org/2000/svg" xmlns:xlink="http://www.w3.org/1999/xlink" version="1.1" viewBox="0 0 2048 2048">
  <g transform="matrix(1 0 0 -1 0 2048)">
   <path fill="currentColor"
d="M943 968l104 -28q41 -11 45 -34q5 -23 -26 -34l-47 -16l1 -529q0 -100 10 -181q2 -24 3 -38q3 -47 -45 -50q-61 -3 -61 54v850q-198 -76 -536 -144l-11 42q305 81 504 171q281 127 491 338l107 -88q26 -21 27 -42q1 -26 -27 -22l-73 8q-273 -182 -466 -257zM1452 1630
l-28 -200l-91 3l27 197h-101q-70 0 -149 -10l-39 85q125 -17 188 -17h109l12 85q8 80 14 164l118 -34q52 -15 50 -41q-2 -30 -53 -36l-30 -3l-19 -135h247l99 101l120 -107q20 -18 16 -33q-6 -19 -26 -19h-464zM615 1688h135l98 101l121 -107q20 -18 16 -33q-6 -19 -26 -19
h-338l23 -199q5 -42 -46 -47q-39 -3 -42 26l-24 219l-253 1q-68 0 -149 -10l-39 85q122 -17 188 -17l245 -2l-15 129q-12 99 -24 139l108 -14q68 -9 74 -31t-42 -45l-29 -14z" />
  </g>

</svg>
