<?xml version="1.0" standalone="no"?>
<!DOCTYPE svg PUBLIC "-//W3C//DTD SVG 1.1//EN" "http://www.w3.org/Graphics/SVG/1.1/DTD/svg11.dtd" >
<svg xmlns="http://www.w3.org/2000/svg" xmlns:xlink="http://www.w3.org/1999/xlink" version="1.1" viewBox="0 0 2048 2048">
  <g transform="matrix(1 0 0 -1 0 2048)">
   <path fill="currentColor"
d="M865 1113l-448 1q-115 0 -192 -8l-38 88q96 -23 230 -23h454l8 202q4 97 -8 160l109 -24q83 -18 86 -44q3 -27 -51 -44l-38 -12l-11 -238h703l99 102l120 -107q21 -18 16 -33q-6 -19 -26 -19l-915 -1q-29 -229 -77 -360q-93 -250 -327 -456q-156 -137 -371 -227l-18 38
q321 178 500 438q159 228 195 567zM1111 957l109 -24q82 -18 85 -44q3 -25 -50 -43l-41 -14l1 -522q0 -65 21 -78q33 -20 148 -20h285q79 0 108 14q39 19 53 90q5 24 21 147l6 46l40 -5l-8 -164q-3 -57 16 -81q4 -5 37 -33q16 -14 17 -29q3 -38 -82 -59q-67 -16 -188 -16
l-300 1q-170 0 -211 18q-59 26 -59 115v522v0v19q0 115 -8 160zM1483 1653l-29 -192l-91 2l29 190h-141q-67 0 -149 -11l-39 86q121 -18 188 -18h149l17 110q9 73 11 143l118 -33q52 -16 50 -41q-2 -30 -53 -36l-30 -4l-21 -139h226l98 102l121 -107q20 -18 16 -33
q-6 -19 -26 -19h-444zM626 1653l22 -179q5 -42 -47 -47q-38 -3 -42 26l-24 200h-222q-67 0 -149 -11l-39 86q121 -18 188 -18h215l-9 75q-21 142 -26 158l108 -14q67 -9 73 -31t-42 -45l-28 -14l15 -129h131l98 102l121 -107q20 -18 15 -33q-5 -19 -26 -19h-332z" />
  </g>

</svg>
