<?xml version="1.0" standalone="no"?>
<!DOCTYPE svg PUBLIC "-//W3C//DTD SVG 1.1//EN" "http://www.w3.org/Graphics/SVG/1.1/DTD/svg11.dtd" >
<svg xmlns="http://www.w3.org/2000/svg" xmlns:xlink="http://www.w3.org/1999/xlink" version="1.1" viewBox="0 0 2048 2048">
  <g transform="matrix(1 0 0 -1 0 2048)">
   <path fill="currentColor"
d="M1293 1067l76 79l79 -70q37 -33 37 -53q0 -23 -26 -30l-66 -17q-108 -151 -250 -287q93 -68 185 -145q97 -82 100 -134q2 -27 -16.5 -43t-43.5 -10q-27 7 -91 72q-18 18 -149 141l-58 55q-183 -152 -528 -276l-15 41q295 136 475 298q-53 48 -109 95q-143 121 -252 222
l-53 -8l-39 86q127 -18 188 -18zM1293 1008h-588q259 -189 360 -261q114 110 228 261zM1436 1649l-13 -143q-5 -52 -54 -52q-42 0 -46 35q-1 8 0 21l14 139q-130 1 -210 -8l-38 89q100 -24 253 -23l8 77q12 124 8 157l107 -32q80 -24 82 -49q2 -30 -52 -41l-43 -8l-10 -104
h287l98 101l121 -106q20 -19 16 -34q-6 -19 -26 -19h-502zM650 1649l13 -135q5 -50 -52 -50q-43 0 -47 46l-12 139h-239q-119 0 -192 -8l-38 88q99 -23 230 -23h234l-6 70q-11 126 -19 158l110 -16q84 -12 89 -37q5 -29 -46 -47l-41 -15l10 -113h91l98 102l121 -107
q20 -18 15 -33q-5 -19 -25 -19h-294zM1619 81q-12 70 -47 93q-33 21 -160 43l8 46q143 -23 190 -27q68 -5 68 57v1030h-1305v-1197q0 -59 -69 -53q-45 4 -42 49q0 18 4 46q12 107 12 209l-1 958q-2 63 -11 124l115 -78h1278l68 76l84 -54q40 -26 40 -49q0 -27 -78 -61
l1 -1041q0 -142 -155 -171z" />
  </g>

</svg>
