<?xml version="1.0" standalone="no"?>
<!DOCTYPE svg PUBLIC "-//W3C//DTD SVG 1.1//EN" "http://www.w3.org/Graphics/SVG/1.1/DTD/svg11.dtd" >
<svg xmlns="http://www.w3.org/2000/svg" xmlns:xlink="http://www.w3.org/1999/xlink" version="1.1" viewBox="0 -205 1024 1024">
  <g transform="matrix(1 0 0 -1 0 819)">
   <path fill="currentColor"
d="M866 641v-533q0 -26 -12 -48t-75 -31q-4 30 -46 46q-42 15 -81 23l2 14q113 -17 132 -17q20 0 27 6q8 6 7 74v477h-607v-496l4 -83q2 -36 -57 -46q5 39 7 175v461q-4 28 -20 41l15 11l40 -43h602l30 43l52 -42q9 -6 9 -11q0 -4 -9 -8zM333 439l4 16q117 -33 207 -87l3 3
q59 59 108 147h-298q-25 1 -36 -14l-31 34h355l34 35l53 -48q7 -5 7 -9q0 -3 -7 -5q-23 -3 -62 -61q-9 -14 -14 -22q-24 -36 -73 -84q70 -46 97 -77q54 -66 14 -88q-16 -7 -45 37t-71 78l-27 21q-48 -42 -111 -74q-78 -40 -170 -65l-4 16q78 32 150 76q53 33 98 72l-33 21
q-56 35 -148 78zM614 986l91 -36q14 -5 6 -11q-21 -7 -30 -21v-68h186l36 44l72 -54q8 -5 7 -8q-2 -2 -13 -2h-288v-17l2 -57q3 -35 -55 -44q5 36 7 118h-254v-17l2 -57q3 -36 -55 -44q5 36 7 118h-223q-27 1 -45 -13l-34 33h302v86q2 16 -30 46l9 12l91 -36q14 -5 6 -11
q-21 -7 -30 -21v-76h254v78q2 16 -30 46z" />
  </g>

</svg>
