<?xml version="1.0" standalone="no"?>
<!DOCTYPE svg PUBLIC "-//W3C//DTD SVG 1.1//EN" "http://www.w3.org/Graphics/SVG/1.1/DTD/svg11.dtd" >
<svg xmlns="http://www.w3.org/2000/svg" xmlns:xlink="http://www.w3.org/1999/xlink" version="1.1" viewBox="0 0 2048 2048">
  <g transform="matrix(1 0 0 -1 0 2048)">
   <path fill="currentColor"
d="M1022 1426l80 -18q60 -14 63 -35q2 -24 -52 -37l-33 -9q-50 -187 -91 -257l74 -14q399 181 525 325l116 -86q30 -22 29 -39q-3 -27 -43 -23q-12 1 -30 6l-27 6q-163 -92 -501 -203q28 -6 175 -34q64 -12 276 -68q174 -46 242 -85q61 -35 61 -85q0 -32 -22 -52
q-15 -13 -32 -13q-26 0 -125 61q-142 87 -468 192q-166 54 -274 78q-99 -117 -322 -202q-231 -88 -507 -123l-10 40q505 113 706 291q109 97 136 301q7 55 10 83h-600q-63 0 -148 -10l-40 86q127 -18 188 -18h1210l98 101l121 -107q20 -18 16 -33q-6 -19 -26 -19h-775z
M1412 1722l-16 -103q-6 -38 -18 -45q-19 -12 -47 -9q-44 4 -38 36l23 121h-44q-64 0 -149 -11l-39 86q126 -18 188 -18h52l25 174l139 -29q40 -9 37 -32q-3 -21 -37 -31l-56 -15l-11 -67h322l95 98l120 -103q20 -18 16 -34q-6 -18 -26 -18h-536zM585 1779l-23 179l98 -13
q80 -11 84 -34q5 -23 -34 -36l-44 -15l12 -81h82l83 87l120 -92q21 -16 17 -32q-5 -20 -27 -20h-267l12 -111q5 -49 -56 -46q-30 2 -34 34l-15 123h-316q-64 0 -149 -11l-39 86q126 -18 188 -18h308zM399 1351q291 -147 291 -267q0 -23 -14 -42q-13 -19 -32 -20
q-38 -2 -64 64q-31 78 -88 140q-22 24 -113 97zM1130 320q258 -81 469 -111q67 -9 346 -26v-40q-59 -5 -88 -19q-27 -14 -53 -53q-368 63 -489 99q-93 28 -275 101q-207 -98 -457 -153q-178 -39 -480 -67l-8 45q571 87 844 219q-8 5 -74 47q-96 62 -206 167q-48 47 -93 106
q-35 -5 -87 -11l-42 87q64 -18 209 -18h787l75 70l74 -59q35 -28 34 -49q-1 -24 -45 -36l-36 -10q-120 -110 -274 -210q-91 -59 -131 -79zM1027 360q212 112 379 275h-779q109 -116 377 -262z" />
  </g>

</svg>
