<?xml version="1.0" standalone="no"?>
<!DOCTYPE svg PUBLIC "-//W3C//DTD SVG 1.1//EN" "http://www.w3.org/Graphics/SVG/1.1/DTD/svg11.dtd" >
<svg xmlns="http://www.w3.org/2000/svg" xmlns:xlink="http://www.w3.org/1999/xlink" version="1.1" viewBox="0 -205 1024 1024">
  <g transform="matrix(1 0 0 -1 0 819)">
   <path fill="currentColor"
d="M392 327q-10 -98 -18 -145q-7 -43 -31 -77q-33 -48 -126 -64q9 23 -21 40q-34 13 -71 23l2 14q7 -1 20 -3q33 -4 71 -11q77 -8 98 36q22 33 32 201h-185l-31 -38l-47 41q20 13 27 34l22 130q-1 25 -18 40l16 11l33 -38h181v142h-181q-18 2 -38 -14l-35 34h238l37 37
l43 -45q7 -6 6 -10t-10 -6l-20 -8v-104l6 -47q0 -31 -46 -31v32h-171l-25 -140h182l33 36l55 -49q5 -9 -6 -11zM626 998l89 -36q14 -5 6 -11q-21 -7 -30 -21v-60h186l36 44l72 -54q8 -5 7 -8q-2 -2 -13 -2h-288l2 -54q3 -35 -53 -44q5 33 6 98h-273l2 -54q3 -36 -53 -44
q5 33 6 98h-222q-27 1 -45 -13l-34 33h302v74q2 16 -30 46l9 12l89 -36q14 -5 6 -11q-21 -7 -30 -21v-64h274v70q2 16 -30 46zM683 491q-1 23 -26 46l8 11l86 -38q9 -4 11 -7q2 -4 -4 -7q-18 -5 -31 -16v-367q-1 -35 -17 -54q-15 -19 -83 -35q-3 31 -26 42q-22 10 -87 26
l4 18l42 -10q71 -16 96 -6q27 10 27 52v345zM547 761l76 -25q9 -6 5 -10q-19 -7 -31 -14q-13 -49 -33 -93h312l27 33l61 -50q2 -5 -1 -7q-2 -2 -9 0q-32 4 -62 -52q-21 -31 -37 -54l-17 4l46 106h-330q-37 -81 -96 -143l-10 9q71 120 87 185q18 65 15 78q-3 14 -11 25z
M544 420l70 -36q17 -10 7 -15q-28 3 -51 -31q-76 -123 -156 -181l-10 10q117 150 139 218q1 13 -7 28zM769 391l8 12q118 -69 161 -148q33 -65 -10 -75q-21 -2 -28 29t-38 79q-30 49 -93 103z" />
  </g>

</svg>
