<?xml version="1.0" standalone="no"?>
<!DOCTYPE svg PUBLIC "-//W3C//DTD SVG 1.1//EN" "http://www.w3.org/Graphics/SVG/1.1/DTD/svg11.dtd" >
<svg xmlns="http://www.w3.org/2000/svg" xmlns:xlink="http://www.w3.org/1999/xlink" version="1.1" viewBox="0 -205 1024 1024">
  <g transform="matrix(1 0 0 -1 0 819)">
   <path fill="currentColor"
d="M49 554h215v128q2 16 -30 46l9 12l89 -36q14 -5 6 -11q-21 -9 -30 -21v-118h89l31 40l60 -46q5 -8 3 -11q-2 -2 -10 -1h-173v-85q42 -15 74 -30q38 -19 56 -48q18 -28 14 -48t-22 -20t-27 30t-36 58q-22 21 -59 40v-260l2 -96q0 -21 -13 -31q-15 -9 -40 -15q4 39 7 183
v234q-58 -171 -200 -305l-12 8q146 171 190 385h-113q-28 0 -46 -13zM638 532l76 -24q21 -7 12 -13q-14 1 -26 -14l-3 -33q27 -98 48 -150q26 -69 57 -108q31 -40 55 -58q22 -21 49 -34q24 -12 60 -23v-14q-30 0 -48 -4q-19 -4 -35 -22q-42 38 -86 89q-44 52 -71 124
q-22 54 -37 137q-17 -107 -65 -188q-66 -116 -232 -180l-6 16q138 74 198 182q58 108 70 272q-4 19 -24 34zM616 991l90 -36q14 -5 6 -11q-21 -9 -30 -21v-73h186l37 45l72 -55q7 -5 6 -8q-1 -2 -12 -2h-289v-17l2 -37q0 -21 -13 -30q-14 -9 -41 -14q4 26 7 98h-267v-1
l2 -57q0 -21 -12 -30q-14 -9 -41 -14q3 18 5 80q1 14 1 22h-223q-27 0 -45 -13l-34 33h303v87q2 16 -30 46l9 12l90 -36q14 -5 6 -11q-21 -9 -31 -21v-77h267v83q2 16 -30 46zM675 713q4 -10 -5 -10q-14 3 -29 -13q-1 -3 -3 -8q-20 -62 -34 -91h253l27 35l64 -44q2 -6 -1 -8
q-2 -1 -9 1q-21 -4 -31 -16q-11 -12 -23 -33q-2 -3 -6 -11q-6 -10 -36 -62l-17 2l42 118h-271q-11 -24 -23 -46q-42 -74 -99 -134l-12 10q42 60 73 126t46 122q15 54 12 65q-5 9 -14 23l9 7z" />
  </g>

</svg>
