<?xml version="1.0" standalone="no"?>
<!DOCTYPE svg PUBLIC "-//W3C//DTD SVG 1.1//EN" "http://www.w3.org/Graphics/SVG/1.1/DTD/svg11.dtd" >
<svg xmlns="http://www.w3.org/2000/svg" xmlns:xlink="http://www.w3.org/1999/xlink" version="1.1" viewBox="0 -205 1024 1024">
  <g transform="matrix(1 0 0 -1 0 819)">
   <path fill="currentColor"
d="M590 782l77 -28q11 -4 13 -7q2 -4 -5 -8q-14 -5 -26 -14v-57h196l32 40l68 -46q8 -5 7 -8q-2 -2 -13 -2h-290v-85h169l31 35l45 -35q7 -6 6 -10t-10 -6l-16 -14v-52l4 -41q3 -27 -48 -36v33h-183q-4 -42 -12 -94h231l23 38l49 -33q5 -9 -6 -11l-14 -12q-1 -31 -4 -67v-6
q-1 -21 -12 -37q-22 -35 -73 -48q-3 19 -29 32q-18 12 -57 18l2 14q35 -6 69 -10q57 -6 58 44q0 8 1 32q1 18 1 30h-203q13 -36 36 -84q41 -77 113 -131q62 -45 126 -44v-16q-40 -2 -53 -9q-13 -8 -29 -21q-103 56 -173 180q-29 55 -44 125h-15q-12 -50 -36 -100
q-64 -130 -268 -211l-6 16q191 104 241 231q14 37 22 64h-150l-27 -32l-47 33q20 9 27 34l16 88q-2 30 -14 38l12 13l41 -48h161q1 27 1 94h-164q-18 2 -38 -14l-31 30h233v85h-193q-27 1 -45 -13l-34 29h272v69q-4 20 -23 34zM622 998l89 -36q14 -5 6 -11q-21 -7 -30 -21
v-52h180l36 44l72 -54q8 -5 7 -8q-2 -2 -13 -2h-282l2 -38q3 -35 -53 -44q5 32 6 82h-269v-5l2 -57q3 -36 -53 -44q4 35 7 106h-217q-27 1 -45 -13l-34 33h296v66q2 16 -30 46l9 12l89 -36q14 -5 6 -11q-21 -7 -30 -21v-56h270v62q2 16 -30 46zM336 607l14 -10l-88 -238
q-34 -90 -41 -114t5 -106q12 -85 -28 -86q-40 -2 -24 84q16 82 -4 95q-19 13 -84 17v20q80 -6 94 6t32 46t124 286zM430 347h158q11 49 15 94h-157zM830 551h-181v-58q0 -19 -1 -36h182v94zM140 731q121 -29 143 -93q14 -33 -9 -47q-22 -14 -34 17q-12 32 -33 57
q-21 26 -73 54zM60 555q121 -29 143 -93q14 -33 -9 -47q-22 -14 -34 17q-12 32 -33 57q-21 26 -73 54z" />
  </g>

</svg>
