<?xml version="1.0" standalone="no"?>
<!DOCTYPE svg PUBLIC "-//W3C//DTD SVG 1.1//EN" "http://www.w3.org/Graphics/SVG/1.1/DTD/svg11.dtd" >
<svg xmlns="http://www.w3.org/2000/svg" xmlns:xlink="http://www.w3.org/1999/xlink" version="1.1" viewBox="0 0 2048 2048">
  <g transform="matrix(1 0 0 -1 0 2048)">
   <path fill="currentColor"
d="M1441 1649l-12 -122q-5 -52 -54 -52q-42 0 -46 35q-1 8 0 22l11 117h-34q-116 0 -192 -8l-38 89q97 -23 230 -23h40l6 64q11 125 8 157l107 -32q81 -24 82 -49q1 -30 -52 -40l-43 -9l-8 -91h285l99 101l120 -106q21 -19 16 -34q-6 -19 -26 -19h-499zM659 1649l12 -120
q5 -50 -52 -50q-44 0 -47 47l-10 123h-243q-117 0 -192 -8l-38 89q97 -23 230 -23h238l-4 58q-9 117 -19 158l110 -16q83 -12 88 -38q6 -29 -46 -46l-40 -15l8 -101h109l99 101l120 -106q20 -18 16 -34q-6 -19 -26 -19h-313zM725 852q-103 -104 -273 -188l-19 30
q131 91 214 182q79 85 157 216h-136q-93 -1 -162 -7l-46 80q83 -19 200 -20l168 -2q44 85 74 195l103 -31q57 -17 57 -41q0 -20 -43 -27l-48 -7l-41 -89h420l98 104l129 -102q14 -12 17 -20q4 -12 -4 -22.5t-20 -10.5h-664q-47 -79 -91 -136l13 -8h465l65 75l84 -54
q40 -26 40 -48q0 -27 -79 -62l-1 -419q0 -84 -56 -127q-34 -26 -98 -45q-9 67 -43 90q-36 24 -129 39l5 40q30 -3 121 -12q74 -5 79 -3q28 8 27 60l-1 76h-488q-6 -95 -39 -159q-36 -71 -124 -136l-26 26q56 72 74 136q21 72 21 178v249zM819 611l488 1v115h-487zM820 781
h487v113h-487v-113zM1677 163h-1325v-44q0 -59 -65 -54q-45 4 -43 50q1 18 4 45q12 107 12 209v968l-3 76q-3 59 -7 90l118 -89h1288l68 77l84 -55q40 -26 40 -48q0 -18 -9.5 -26t-64.5 -36v-995q0 -8 12 -173q3 -43 3 -53q0 -39 -49 -42q-60 -4 -61 40zM1677 225v1131
h-1325v-1129z" />
  </g>

</svg>
