<?xml version="1.0" standalone="no"?>
<!DOCTYPE svg PUBLIC "-//W3C//DTD SVG 1.1//EN" "http://www.w3.org/Graphics/SVG/1.1/DTD/svg11.dtd" >
<svg xmlns="http://www.w3.org/2000/svg" xmlns:xlink="http://www.w3.org/1999/xlink" version="1.1" viewBox="0 -205 1024 1024">
  <g transform="matrix(1 0 0 -1 0 819)">
   <path fill="currentColor"
d="M229 442l37 -33h475l37 39l50 -47q7 -6 5 -10q-1 -5 -11 -7l-18 -9v-264l5 -38q3 -27 -49 -36v53h-479v-31q2 -31 -51 -40q5 33 7 80v292q-3 24 -20 40zM474 830l82 -34q14 -5 6 -11q-16 -4 -27 -18v-51h284l32 40l68 -46q8 -5 7 -8q-2 -2 -13 -2h-378v-84h242l32 40
l68 -44q8 -5 7 -8q-2 -2 -13 -2h-336v-98h344l32 40l68 -46q8 -5 7 -8q-2 -2 -13 -2h-835q-19 1 -37 -13l-34 29h424v98h-221q-27 1 -45 -13l-34 27h300v84h-293q-27 1 -45 -13l-34 29h372v61q2 17 -25 42zM281 303h479v90h-479v-90zM760 289h-479v-86h479v86zM760 190h-479
v-84h479v84zM618 1006l89 -36q14 -5 6 -11q-21 -7 -30 -21v-56h194l36 44l72 -52q8 -5 7 -8q-2 -2 -13 -2h-296v-3l2 -53q0 -25 -53 -36q4 34 7 92h-258v-3l2 -45q3 -36 -53 -44q4 34 7 92h-231q-27 1 -45 -13l-34 31h310v70q2 16 -30 46l9 12l89 -36q14 -5 6 -11
q-21 -7 -30 -21v-60h258v66q2 16 -30 46z" />
  </g>

</svg>
