<?xml version="1.0" standalone="no"?>
<!DOCTYPE svg PUBLIC "-//W3C//DTD SVG 1.1//EN" "http://www.w3.org/Graphics/SVG/1.1/DTD/svg11.dtd" >
<svg xmlns="http://www.w3.org/2000/svg" xmlns:xlink="http://www.w3.org/1999/xlink" version="1.1" viewBox="0 0 2048 2048">
  <g transform="matrix(1 0 0 -1 0 2048)">
   <path fill="currentColor"
d="M540 969q253 -135 272 -251q5 -30 -9.5 -51.5t-39.5 -21.5q-37 0 -60 64q-37 103 -163 213v-550q0 -88 10 -254q1 -29 -4 -43q-6 -15 -39 -18q-63 -5 -63 42v773q-139 -327 -337 -500l-27 27q92 113 176 282q97 195 146 399h-64q-118 0 -192 -8l-38 88q96 -23 230 -23
h106v206q0 118 -8 162l109 -24q83 -18 86 -43q3 -26 -51 -44l-40 -13v-244h75l98 102l121 -107q20 -18 15 -34q-6 -18 -25 -18h-284v-111zM1440 1684l-23 -127q-9 -56 -58 -50q-40 4 -44 34q-1 8 0 16l22 127q-120 -3 -175 -8l-40 88q85 -20 225 -23l13 74q0 1 21 147
l117 -28q52 -12 59 -31q9 -29 -50 -44l-38 -10l-20 -108h313l98 102l121 -107q21 -18 16 -34q-6 -18 -26 -18h-531zM693 1684l10 -130q4 -50 -44 -56q-53 -6 -56 37l-9 149h-253q-116 0 -192 -8l-38 88q96 -23 230 -23h249l-14 220l122 -22q63 -11 65 -35q3 -22 -41 -40
l-41 -16l7 -107h83l98 102l121 -107q20 -18 15 -34q-6 -18 -26 -18h-286zM920 1007l-40 90q70 -11 88 -12q63 -5 97 -9v236q0 114 -8 159l102 -22q91 -21 93 -46q1 -19 -58 -41l-35 -13v-273h480v224q0 118 -7 160l109 -22q82 -17 85 -45q3 -22 -54 -42l-38 -13v-262h20
l87 91l111 -97q23 -20 14 -38q-8 -15 -24 -15h-208v-655q0 -92 12 -195q3 -29 3 -54q0 -38 -48 -42q-62 -4 -62 42v53h-480v-28q0 -59 -66 -53q-42 4 -42 49q0 11 4 46q10 106 10 209v628q-93 -4 -145 -10zM1159 225h480v377h-480v-377zM1159 665h480v352h-480v-352z" />
  </g>

</svg>
