<?xml version="1.0" standalone="no"?>
<!DOCTYPE svg PUBLIC "-//W3C//DTD SVG 1.1//EN" "http://www.w3.org/Graphics/SVG/1.1/DTD/svg11.dtd" >
<svg xmlns="http://www.w3.org/2000/svg" xmlns:xlink="http://www.w3.org/1999/xlink" version="1.1" viewBox="0 0 2048 2048">
  <g transform="matrix(1 0 0 -1 0 2048)">
   <path fill="currentColor"
d="M1469 31q-11 71 -47 93q-32 21 -159 44l8 46q139 -23 190 -27q69 -6 69 57v123h-1002q-25 -124 -96 -204q-53 -59 -168 -128l-22 32q133 104 176 246q30 99 30 417q0 71 -6 168l114 -68h955l68 76l84 -54q40 -26 40 -49q0 -26 -79 -61v-540q0 -142 -155 -171zM1526 426
v144h-982q-2 -76 -9 -144h991zM1526 631v141h-982v-141h982zM697 1754h84l76 104l121 -107q20 -18 15 -33q-5 -19 -25 -19l-268 1l8 -74q4 -34 1 -46q-5 -23 -42 -29q-53 -7 -56 37l-6 111h-300q-80 0 -164 -8l-38 88q108 -25 213 -25l285 -1l-17 188l113 -17q81 -13 85 -44
q4 -29 -49 -43l-41 -11zM1461 1754h255l95 104l120 -107q21 -18 16 -33q-6 -19 -26 -19l-467 1l-21 -101q-11 -56 -58 -51q-40 5 -44 35q-1 8 0 16l20 100h-58q-80 0 -164 -8l-38 88q97 -23 202 -23h68l10 73q11 68 15 107l92 -18q82 -17 85 -44q4 -30 -49 -43l-39 -10z
M1291 1304l-123 -58q205 -53 232 -125q8 -21 -2.5 -39.5t-31.5 -21.5q-30 -4 -102 42q-101 63 -213 103q-220 -78 -518 -134l-8 37q39 12 133 36q104 28 286 97q-153 52 -328 98l13 37q32 -8 167 -38q182 -46 239 -60q125 57 236 143l82 -58q46 -32 35 -55q-7 -12 -22 -13
q-12 -2 -31 2zM1598 1490l68 76l83 -54q40 -26 40 -48q0 -27 -77 -62v-174q0 -112 12 -222q4 -29 4 -54q0 -39 -49 -42q-63 -4 -63 42v22h-1196v-21q-1 -38 -66 -32q-44 4 -42 49q1 18 4 46q13 112 12 209l-1 329l117 -64h1154zM420 1030h1196v406h-1196v-406z" />
  </g>

</svg>
