<?xml version="1.0" standalone="no"?>
<!DOCTYPE svg PUBLIC "-//W3C//DTD SVG 1.1//EN" "http://www.w3.org/Graphics/SVG/1.1/DTD/svg11.dtd" >
<svg xmlns="http://www.w3.org/2000/svg" xmlns:xlink="http://www.w3.org/1999/xlink" version="1.1" viewBox="0 -200 1000 1000">
  <g transform="matrix(1 0 0 -1 0 800)">
   <path fill="currentColor"
d="M610 864h-203v-68q-10 -12 -27 -21t-28 -9v98h-171l-77 -12l-23 33h271v117l77 -32l-22 -60v-25h203v109l77 -29l-22 -58v-22h138l53 45l72 -66h-263v-60q-8 -9 -23 -17t-32 -11v88zM447 454q75 -5 116.5 -18t47.5 -36q1 -3 1 -6.5v-5.5q0 -16 -6.5 -25.5t-16.5 -9.5
t-17.5 9.5t-21.5 24t-37.5 31t-65.5 30.5v6zM506 567q42 24 69.5 45.5t50.5 50.5h-241q24 -31 51.5 -52t69.5 -44zM550 543q61 -33 125 -45.5t136 -12.5q32 0 65.5 2t69.5 5v1q-32 -14 -61 -35.5t-49 -39.5q-61 6 -110 16.5t-88.5 24t-70 28.5t-55.5 30q-40 -23 -95.5 -43.5
t-116 -35.5t-121 -24t-110.5 -9h-17v2q132 28 233 59.5t180 80.5q-23 18 -37 32t-24 27t-17 25t-15 24q-19 -14 -47.5 -30.5t-61.5 -31.5t-68 -27t-66 -16l-4 3q39 19 83.5 46.5t83.5 57.5t67.5 59t34.5 50l78 -41l-40 -20l-35 -19h236l40 30l70 -58l-55 -19
q-18 -15 -33 -28t-31 -25t-33.5 -22.5t-40.5 -20.5zM420 376q81 -24 122 -45.5t46 -48.5v-5q0 -15 -11 -23.5t-25 -8.5q-12 0 -17.5 10.5t-15 27.5t-27.5 39t-55 45zM398 301l-26 -44v-55h290v122l79 -23l-19 -59v-41h117l57 36l71 -58h-245v-148q-11 -6 -23.5 -11t-26.5 -5
q-9 0 -10 1v163h-288q-5 -49 -27 -81.5t-60.5 -53t-93 -31t-123.5 -14.5l12 6q55 17 97.5 32t71.5 33.5t43.5 44t14.5 64.5h-142l-70 -12l-30 35h243v123z" />
  </g>

</svg>
