<?xml version="1.0" standalone="no"?>
<!DOCTYPE svg PUBLIC "-//W3C//DTD SVG 1.1//EN" "http://www.w3.org/Graphics/SVG/1.1/DTD/svg11.dtd" >
<svg xmlns="http://www.w3.org/2000/svg" xmlns:xlink="http://www.w3.org/1999/xlink" version="1.1" viewBox="0 -205 1024 1024">
  <g transform="matrix(1 0 0 -1 0 819)">
   <path fill="currentColor"
d="M205 777l34 -36h499l29 41l46 -45q7 -6 5 -10q-1 -5 -11 -7l-18 -9v-142l2 -45q0 -31 -42 -31v30h-501q-2 -16 -11 -23q-10 -9 -36 -14q5 37 7 100v142q-3 22 -17 38zM704 469l72 -44q9 -10 -1 -15q-19 3 -35 -3q-40 -42 -96 -93h199l32 40l68 -50q8 -5 7 -8
q-2 -2 -13 -2h-303v-161q0 -26 12 -36q12 -11 69 -13h9q48 -2 88 -1h38q42 10 46 40q9 46 12 129h15l2 -81q1 -51 25 -66q-19 -43 -64 -51q-22 -6 -104 -6t-140 8q-52 15 -50 85v153h-178q-2 -40 -22 -94q-21 -58 -93 -110q-71 -54 -221 -72l-4 14q202 44 266 162
q24 48 29 100h-235q-27 1 -45 -13l-34 33h422v141q2 17 -25 42l8 11l80 -34q14 -5 6 -11q-16 -4 -27 -18v-131h95q42 48 63 79q23 32 25 41t-8 27zM749 625h-501v-86h501v86zM248 639h501v86h-501v-86zM612 996l87 -36q14 -5 6 -11q-21 -7 -30 -21v-48h182l36 44l72 -54
q8 -5 7 -8q-2 -2 -13 -2h-284v-13l2 -33q2 -35 -51 -44q5 38 7 90h-254v-13l2 -33q3 -36 -51 -44q5 38 7 90h-215q-27 1 -45 -13l-34 33h294v66q2 16 -30 46l9 12l87 -36q14 -5 6 -11q-21 -7 -30 -21v-56h254v58q2 16 -30 46zM232 449l6 14q123 -35 143 -100q7 -30 -13 -37
t-31 24q-10 31 -39 55q-28 24 -66 44z" />
  </g>

</svg>
