<?xml version="1.0" standalone="no"?>
<!DOCTYPE svg PUBLIC "-//W3C//DTD SVG 1.1//EN" "http://www.w3.org/Graphics/SVG/1.1/DTD/svg11.dtd" >
<svg xmlns="http://www.w3.org/2000/svg" xmlns:xlink="http://www.w3.org/1999/xlink" version="1.1" viewBox="0 -205 1024 1024">
  <g transform="matrix(1 0 0 -1 0 819)">
   <path fill="currentColor"
d="M707 305l10 10q61 -49 82 -97t23 -80q2 -34 -22 -38t-25 28q-2 30 -8 59q-30 -28 -49 -41q-31 -32 -42 -44q-10 -12 -20 -30l-52 52q20 8 30 25v497q-42 -3 -88 -6v-117q6 -204 -39 -306q-45 -100 -169 -185l-10 14q102 88 141 188q39 101 35 255v158q-4 17 -24 33l13 13
l37 -33q108 14 191 33q87 20 108 30t17 32l10 6l65 -60q9 -9 9 -14t-9 -6q-31 10 -69 2q-5 -1 -16 -4q-14 -4 -22 -6q17 -211 32 -279q51 -236 142 -271l1 -16q-46 6 -75 -15q-60 81 -102 270q-16 78 -24 306q-51 -10 -112 -17v-495q49 29 86 53q-12 38 -55 96zM624 986
l87 -36q14 -5 6 -11q-21 -7 -30 -21v-56h186l36 44l72 -54q8 -5 7 -8q-2 -2 -13 -2h-288v-13l2 -45q2 -35 -51 -44q5 37 7 98v4h-270v-17l2 -45q3 -36 -51 -44q5 37 7 98v8h-227q-27 1 -45 -13l-34 33h306v70q2 16 -30 46l9 12l87 -36q14 -5 6 -11q-21 -7 -30 -21v-60h270
v66q2 16 -30 46zM334 221q-136 -47 -175 -64q-39 -15 -52 -48l-53 61l225 61l17 82q37 173 35 188q-2 17 -16 30l8 9l81 -29q12 -9 12 -14t-12 -6q-19 -1 -30 -18q-51 -176 -71 -236l164 45l3 -11zM102 517l10 10q129 -114 115 -231q-6 -25 -27 -29t-21 45q2 104 -77 205z
M47 592h320l32 40l68 -50q8 -5 7 -8q-2 -2 -13 -2h-335q-27 1 -45 -13zM165 745l4 12q111 -36 120 -97q5 -29 -18 -35q-22 -6 -27 15t-19 46q-13 25 -60 59z" />
  </g>

</svg>
