<?xml version="1.0" standalone="no"?>
<!DOCTYPE svg PUBLIC "-//W3C//DTD SVG 1.1//EN" "http://www.w3.org/Graphics/SVG/1.1/DTD/svg11.dtd" >
<svg xmlns="http://www.w3.org/2000/svg" xmlns:xlink="http://www.w3.org/1999/xlink" version="1.1" viewBox="0 -205 1024 1024">
  <g transform="matrix(1 0 0 -1 0 819)">
   <path fill="currentColor"
d="M214 799l36 -38h501l39 37l44 -45q7 -4 5 -7q-1 -4 -11 -6l-18 -9v-132l2 -65q1 -32 -42 -31v30h-513v-1q4 -37 -47 -44q5 38 7 102v160q-3 22 -17 38zM494 484q17 -9 6 -15q-25 8 -42 -12q-11 -12 -23 -23h430l32 40l68 -50q8 -5 7 -8q-2 -2 -13 -2h-307q26 -26 57 -50
q67 -53 154 -83q35 -12 65 -18t84 -7v-17q-45 0 -59 -5q-16 -6 -27 -27q-144 45 -226 121q-38 35 -70 86h-217q-57 -52 -134 -107q-109 -78 -259 -115l-4 13q148 58 238 127q64 49 101 82h-227q-27 1 -45 -13l-34 33h328l5 5q38 38 40 48q3 11 -7 24l7 8zM257 651h513v94
h-513v-94zM770 637h-513v-88h513v88zM724 256l81 -28q14 -5 6 -11q-21 -8 -30 -20v-67l4 -71q0 -26 -36 -39q-3 -1 -4 -1v46h-462l-31 -42l-48 40q26 24 30 44v120q3 22 -11 31l5 7l67 -24q8 -2 10 -5t-3 -7q-20 -4 -32 -18v-126h217v212q2 17 -25 42l8 11l78 -34
q14 -5 6 -11q-16 -4 -27 -18v-202h218v121q2 16 -26 38zM614 996l85 -36q14 -5 6 -11q-21 -7 -30 -21v-41h196l37 46l70 -54q11 -7 8 -10q-2 -3 -19 -2h-292v-18l2 -25q3 -36 -49 -44q0 3 1 8q4 29 6 62v17h-250v-14l2 -29q2 -35 -49 -44q5 38 7 78v9h-221q-27 1 -45 -13
l-34 33h300v49q2 16 -30 46l9 12l85 -36q14 -5 6 -11q-21 -7 -30 -21v-39h250v51q2 16 -30 46z" />
  </g>

</svg>
