<?xml version="1.0" standalone="no"?>
<!DOCTYPE svg PUBLIC "-//W3C//DTD SVG 1.1//EN" "http://www.w3.org/Graphics/SVG/1.1/DTD/svg11.dtd" >
<svg xmlns="http://www.w3.org/2000/svg" xmlns:xlink="http://www.w3.org/1999/xlink" version="1.1" viewBox="0 -205 1024 1024">
  <g transform="matrix(1 0 0 -1 0 819)">
   <path fill="currentColor"
d="M193 793l43 -45h529l37 37l56 -51q7 -6 5 -10q-1 -5 -11 -7l-26 -15v-122l7 -62q0 -17 -12 -23q-12 -7 -37 -13v31h-248v-88h257l28 32l62 -39q11 -8 8 -11t-19 -2h-336v-109h332l35 44l68 -51q8 -6 5 -9t-16 -4h-813q-29 0 -47 -13l-33 33h427v109h-305q-19 1 -34 -10
l-31 30h370v88h-251v-11q0 -21 -11 -28t-38 -12q4 37 7 100v178q-5 20 -20 42zM243 728v-195h251v195h-251zM784 728h-248v-195h248v195zM311 1009l90 -36q14 -5 6 -11q-21 -9 -31 -21v-63h245v73q2 16 -30 46l9 12l90 -36q14 -5 6 -11q-21 -9 -31 -21v-63h215l33 41l68 -51
q7 -5 6 -8q-1 -2 -12 -2h-310v-11l3 -33q0 -21 -14 -30t-40 -14q4 36 7 72v16h-245v-11l2 -33q0 -21 -14 -30q-13 -9 -39 -14q4 36 7 74v14h-226q-27 0 -45 -13l-34 33h305v73q2 16 -30 46zM778 233l6 14q74 -26 117 -62q42 -35 57 -67q15 -35 9 -56q-7 -24 -24 -24
q-18 -2 -29 42q-12 42 -43 78t-93 75zM175 249h14q0 -36 -6 -75q-7 -40 -22 -75q-16 -38 -48 -59q-33 -25 -47 1q-15 24 20 46t57 63q21 39 32 99zM537 235l8 12q57 -21 97 -58q38 -37 43 -71q4 -36 -17 -45q-22 -10 -32 29q-9 40 -31 67q-17 22 -68 66zM312 240l7 13
q51 -40 71 -76q21 -37 22 -75q0 -38 -19 -42q-21 -4 -22 28q-2 35 -13 70q-10 39 -46 82zM672 706l72 -40q9 -12 -1 -15q-22 0 -31 -1q-9 -3 -31 -31q-28 -34 -72 -72l-16 6q36 45 59 78q22 33 22 42t-10 23zM296 692l8 12q69 -35 92 -62q21 -30 18 -57q-3 -29 -21 -29
q-19 -1 -21 27q-3 27 -21 57q-19 28 -55 52z" />
  </g>

</svg>
