<?xml version="1.0" standalone="no"?>
<!DOCTYPE svg PUBLIC "-//W3C//DTD SVG 1.1//EN" "http://www.w3.org/Graphics/SVG/1.1/DTD/svg11.dtd" >
<svg xmlns="http://www.w3.org/2000/svg" xmlns:xlink="http://www.w3.org/1999/xlink" version="1.1" viewBox="0 0 2048 2048">
  <g transform="matrix(1 0 0 -1 0 2048)">
   <path fill="currentColor"
d="M951 1675l114 -24q82 -18 85 -44q4 -29 -49 -44l-41 -11v-138h622l61 70l73 -50q41 -29 42 -48q1 -21 -60 -52v-1087q0 -106 -52 -146q-37 -29 -109 -45q-12 81 -65 103q-31 13 -141 34l5 47l69 -12q95 -16 124 -16q69 0 69 57v1087h-638v-992q0 -80 7 -140q5 -43 3 -68
q-2 -39 -55 -42q-52 -3 -52 32l-4 1210h-625v-1247q0 -47 -73 -40q-42 4 -39 52l4 55q8 130 8 142l1 1157l122 -61h602v101q0 117 -8 160zM1479 1076q115 -81 123 -146q3 -23 -12 -42t-34 -19q-25 0 -42 23l-44 58q-15 21 -54 59q-121 -93 -263 -157l-19 32q130 88 222 178
q-78 67 -207 142l23 34q139 -54 235 -113q51 62 98 157l120 -63q20 -10 15 -26q-6 -20 -43 -23l-36 -2q-24 -27 -36 -40q-30 -36 -46 -52zM742 1093q116 -82 123 -146q3 -23 -11 -42t-34 -19q-26 0 -43 23l-43 58q-15 20 -54 59q-120 -93 -263 -157l-19 32q129 88 221 178
q-81 69 -206 142l22 33q140 -53 236 -112q53 64 98 157l119 -63q20 -10 15 -26q-6 -20 -42 -23l-36 -2q-25 -27 -36 -40q-30 -37 -47 -52zM742 576q116 -81 123 -146q3 -23 -12 -42q-14 -19 -33 -19q-26 0 -43 23l-43 58q-15 20 -54 59q-120 -93 -263 -157l-19 33
q129 87 221 177q-79 68 -206 142l22 34q140 -54 236 -113q52 64 98 157l119 -63q20 -10 15 -26q-6 -20 -42 -23l-36 -2q-25 -27 -36 -40q-30 -36 -47 -52zM1479 567q116 -81 123 -146q3 -23 -12 -42t-34 -19q-24 0 -42 23q-3 2 -44 58q-15 21 -54 59q-121 -94 -263 -157
l-19 32q130 88 222 178q-78 67 -207 141l23 34q139 -53 235 -112q52 63 98 157l120 -63q20 -10 15 -26q-6 -20 -43 -23l-36 -3q-24 -26 -36 -40q-29 -35 -46 -51zM1459 1710l-19 -118q-6 -37 -18 -45q-18 -12 -46 -9q-44 5 -38 37l25 135h-84q-69 0 -149 -10l-39 86
q126 -18 188 -18h93l27 191l140 -29q40 -8 37 -32q-3 -21 -37 -30l-56 -16l-15 -84h286l95 98l120 -103q20 -18 15 -34q-5 -19 -26 -19h-499zM625 1768h111l83 87l120 -92q21 -17 17 -33q-5 -20 -27 -20h-297l20 -119q9 -57 -49 -57q-43 0 -48 38l-16 138h-286
q-69 0 -149 -10l-39 86q126 -18 188 -18h276l-27 196l102 -10q79 -7 85 -33q4 -22 -35 -37l-40 -15z" />
  </g>

</svg>
