<?xml version="1.0" standalone="no"?>
<!DOCTYPE svg PUBLIC "-//W3C//DTD SVG 1.1//EN" "http://www.w3.org/Graphics/SVG/1.1/DTD/svg11.dtd" >
<svg xmlns="http://www.w3.org/2000/svg" xmlns:xlink="http://www.w3.org/1999/xlink" version="1.1" viewBox="0 0 2048 2048">
  <g transform="matrix(1 0 0 -1 0 2048)">
   <path fill="currentColor"
d="M814 926l-9 42q289 55 486 143q-111 52 -235 135q-74 -55 -183 -114l-20 35q197 124 328 387l103 -34q48 -15 48 -34t-34 -26l-46 -10q-24 -26 -45 -54l409 1l87 70l100 -71q31 -22 23 -44q-5 -14 -28 -19l-57 -13q-155 -129 -253 -194q17 -4 92 -22q141 -34 373 -39v-35
q-95 -14 -125 -77q-265 53 -440 118q-211 -96 -574 -145zM1377 1156q107 62 224 183h-441q-39 -37 -70 -65q127 -65 287 -118zM1223 998l99 -47q32 -15 34 -30q3 -22 -36 -24l-49 -1q-44 -20 -120 -55q-40 -19 -108 -44q164 2 317 12q113 90 179 167l104 -72q26 -18 24 -33
q-3 -21 -40 -19l-53 4q-172 -139 -482 -294q93 8 290 22q132 9 342 32q-27 34 -118 114l23 32q261 -138 261 -251q0 -20 -11 -37q-18 -28 -49 -25q-32 2 -48 55q-8 27 -31 71q-130 -26 -233 -43q-38 -6 -73 -13v-321q0 -120 -144 -143q1 61 -46 85q-34 18 -115 32l7 42
q107 -20 156 -20q45 0 45 61v249q-19 -2 -69 -9q-77 -10 -273 -30l-13 -36q-10 -29 -25 -29q-12 0 -24 29l-47 113q109 37 190 83q69 40 195 126q-36 -4 -185 -21l-57 -7l-15 -46q-6 -18 -17 -18q-18 0 -31 34l-38 99q179 96 284 206zM1455 1683l-15 -106q-5 -36 -18 -45
q-19 -12 -46 -9q-40 5 -35 36l19 124h-63q-69 0 -149 -10l-39 85q126 -18 188 -18h71l22 212l138 -32q42 -10 38 -32q-5 -24 -89 -46l-14 -102h313l95 99l120 -102q20 -18 15 -35q-5 -19 -25 -19h-526zM622 1740l-22 210l97 -14q80 -10 85 -33q5 -25 -78 -52l12 -111h78
l83 87l120 -92q21 -16 17 -32q-5 -20 -27 -20h-265l11 -114q5 -49 -57 -46q-31 2 -35 34l-15 126h-327q-67 0 -148 -11l-39 86q121 -18 187 -18h323zM479 1547l104 -39q52 -19 63 -26q24 -13 15 -34q-10 -25 -97 -30q-48 -110 -127 -251l42 -23q67 -35 -38 -76v-699
q0 -107 13 -220q3 -28 3 -53q0 -39 -49 -42q-62 -4 -62 42v939q-112 -140 -233 -239l-25 33q118 116 237 321q119 202 154 397zM617 1322l105 -24q71 -16 74 -44q2 -18 -41 -37l-33 -14v-592q0 -103 12 -219q3 -28 3 -54q0 -39 -49 -42q-62 -4 -62 42l1 837q0 89 -10 147z
M1556 450q159 -67 232 -109q111 -64 108 -132q-2 -26 -23.5 -40.5t-45.5 -4.5q-22 9 -67 73q-59 82 -225 180zM1108 453l111 -59q28 -15 29 -31q1 -27 -40 -30l-53 -4q-106 -100 -317 -197l-13 31q186 121 283 290z" />
  </g>

</svg>
