<?xml version="1.0" standalone="no"?>
<!DOCTYPE svg PUBLIC "-//W3C//DTD SVG 1.1//EN" "http://www.w3.org/Graphics/SVG/1.1/DTD/svg11.dtd" >
<svg xmlns="http://www.w3.org/2000/svg" xmlns:xlink="http://www.w3.org/1999/xlink" version="1.1" viewBox="0 0 2048 2048">
  <g transform="matrix(1 0 0 -1 0 2048)">
   <path fill="currentColor"
d="M1435 1127q469 -160 478 -280q2 -22 -12 -39t-32 -16q-30 1 -81 49q-156 150 -411 266q-113 -237 -531 -337l-14 38q293 95 405 238q98 126 98 370q0 14 -4 49l124 -18q63 -9 65 -31q2 -21 -31 -31l-51 -15q-21 -135 -42 -209q230 106 351 211l86 -57l21 -14
q34 -22 21 -43q-9 -16 -41 -11l-60 8q-138 -61 -339 -128zM1376 511q-43 -130 -155 -238q-125 -120 -404 -197l-13 39q321 118 435 320q83 146 83 379q0 14 -4 49l121 -18q61 -9 63 -31q2 -21 -30 -31l-49 -15q-22 -150 -32 -195l7 -7q203 96 326 205l82 -55q65 -43 44 -65
q-11 -11 -42 -6l-58 8q-156 -70 -323 -125q109 -131 215 -204q129 -90 331 -145l-4 -38q-50 -5 -66 -18q-23 -20 -34 -51q-193 97 -318 221q-75 75 -175 218zM1419 1673l-17 -118q-5 -37 -17 -45q-19 -12 -47 -9q-43 4 -38 36l24 136h-60q-69 0 -149 -11l-39 86
q125 -18 188 -18h68l27 216l140 -29q40 -9 37 -33q-3 -20 -37 -30l-56 -15l-16 -109h308l95 98l120 -103q21 -18 16 -34q-6 -18 -26 -18h-521zM679 1730h65l83 87l120 -92q21 -16 17 -32q-5 -20 -27 -20h-252l14 -126q5 -49 -58 -46q-32 2 -35 34l-15 138h-330
q-69 0 -149 -11l-39 86q126 -18 188 -18h324l-24 217l98 -14q80 -10 85 -33q5 -24 -33 -36l-45 -16zM628 1357l68 76l80 -54q40 -27 40 -48q0 -28 -79 -62l2 -848q0 -48 6 -174v-42q0 -48 -55 -55q-46 -6 -46 29v53l-353 -1l1 -90q1 -37 -48 -34q-54 4 -54 58q0 6 5 64
q2 19 3 154l1 929q-4 71 -12 132l116 -87h325zM644 1300h-353v-294h353v294zM291 289h353v315h-353v-315zM291 658h353v294h-353v-294zM926 739q270 -88 280 -184q2 -24 -11 -44q-12 -20 -31 -24q-32 -5 -61 46q-60 107 -197 172zM929 1340q276 -86 286 -183q3 -24 -9.5 -44
t-31.5 -24q-34 -6 -64 46q-61 107 -202 172z" />
  </g>

</svg>
