<?xml version="1.0" standalone="no"?>
<!DOCTYPE svg PUBLIC "-//W3C//DTD SVG 1.1//EN" "http://www.w3.org/Graphics/SVG/1.1/DTD/svg11.dtd" >
<svg xmlns="http://www.w3.org/2000/svg" xmlns:xlink="http://www.w3.org/1999/xlink" version="1.1" viewBox="0 0 2048 2048">
  <g transform="matrix(1 0 0 -1 0 2048)">
   <path fill="currentColor"
d="M336 1214q-71 -151 -217 -325l-30 24q111 183 163 323q50 134 89 319l131 -38q51 -15 53 -34q3 -28 -42 -38l-53 -12l-67 -162h351l99 101l120 -106q21 -18 16 -34q-6 -18 -26 -18h-336v-433h180l98 101l121 -107q21 -18 16 -33q-6 -19 -26 -19h-389v-354q0 -110 12 -222
q3 -29 3 -54q0 -39 -49 -42q-62 -4 -62 42v630h-218q-64 0 -149 -10l-39 86q125 -18 188 -18h218v433h-155zM1568 382q222 -71 283 -106q138 -78 115 -153q-10 -36 -40 -37q-27 -2 -58 37q-111 135 -316 225zM671 1760h77l83 87l120 -92q21 -16 17 -32q-5 -20 -27 -20h-263
l17 -145q6 -49 -58 -46q-30 1 -34 34l-19 157h-319q-64 0 -149 -11l-39 86q126 -18 188 -18h313l-21 171l98 -13q80 -11 85 -34q5 -22 -34 -36l-44 -15zM1428 1703l-22 -145q-5 -37 -17 -45q-19 -12 -47 -9q-44 5 -38 36l29 163h-65q-64 0 -149 -11l-39 86q126 -18 188 -18
h73l22 174l140 -29q40 -8 37 -32q-3 -21 -37 -30l-56 -16l-10 -67h302l95 98l120 -103q21 -18 16 -33q-6 -19 -26 -19h-516zM1271 1205q47 75 92 194h-209q-121 0 -192 -7l-39 88q98 -23 231 -23h541l99 100l120 -107q21 -18 16 -32q-6 -19 -26 -19h-428q-81 -123 -153 -194
h387l69 76l83 -54q40 -27 40 -49q0 -27 -77 -62v-531q0 -47 7 -105q3 -25 3 -43q0 -42 -60 -49q-48 -6 -48 24v33h-429l75 -40q59 -32 53 -56q-6 -21 -44 -20l-49 1q-100 -92 -213 -160q-80 -48 -239 -113l-19 38q199 111 304 215q62 62 113 135h-149v-20q0 -27 -44 -31
q-66 -5 -60 51l4 42q6 98 6 104l-2 676l120 -62h117zM1130 503h597v174h-597v-174zM1130 734h597v181h-597v-181zM1130 974h597v173h-597v-173z" />
  </g>

</svg>
