<?xml version="1.0" standalone="no"?>
<!DOCTYPE svg PUBLIC "-//W3C//DTD SVG 1.1//EN" "http://www.w3.org/Graphics/SVG/1.1/DTD/svg11.dtd" >
<svg xmlns="http://www.w3.org/2000/svg" xmlns:xlink="http://www.w3.org/1999/xlink" version="1.1" viewBox="0 -200 1000 1000">
  <g transform="matrix(1 0 0 -1 0 800)">
   <path fill="currentColor"
d="M763 452h-28l-49 -19q0 3 -3 9t-6.5 12t-6.5 11.5t-3 8.5h148l41 40l55 -53l-30 -31v-409q-11 -11 -27 -19t-28 -10v72h-315v-43q-4 -8 -22 -18.5t-33 -10.5v513l69 -31l52 45l36 32q0 -2 6 -9.5t13.5 -16.5t14 -17t6.5 -11l-130 -45l-12 -14v-150h70l32 36q0 -3 6 -12
t13.5 -18.5t14 -17.5t6.5 -11h-142v-178h315v178h-86h10l-63 -17q0 3 -3 8.5t-6 11.5t-6 11.5t-3 8.5h157v164h-63zM47 -9q87 70 129.5 204.5t42.5 340.5v31.5t-1 32.5v8q0 29 2.5 58.5t2.5 61.5q0 7 -0.5 13.5t-0.5 13.5l72 -46l-22 -78l-3 -152q33 42 60 88.5t55 114.5
l54 -71l-32 -17q-20 -21 -35.5 -38.5t-30.5 -34t-32 -32.5t-39 -34l-5 -104q16 -13 38.5 -32.5t43.5 -43.5t36 -50.5t15 -53.5v-9q-2 -38 -13.5 -53.5t-22.5 -15.5q-13 0 -16 34q-2 29 -6 52.5t-13 47t-24 49.5t-38 59q-10 -61 -30.5 -119t-48 -105t-62 -79t-72.5 -41h-4z
M45 871h259v122l73 -39l-18 -60v-23h248v122l72 -41l-17 -56v-25h159l49 47l69 -70h-277v-66q-7 -7 -20 -19t-35 -17v102h-248v-77q-11 -11 -24.5 -19t-30.5 -10v106h-164l-67 -16zM781 728q-30 -5 -49.5 -8.5t-34.5 -5.5t-29.5 -3.5t-35 -2.5t-50 -2.5t-75.5 -3.5l-23 3
q64 10 104.5 18t70.5 16.5t57 18.5t65 24l53 -52zM142 538q5 -25 8 -49t3 -48q0 -27 -4 -52.5t-12.5 -45.5t-21 -32.5t-29.5 -12.5q-5 0 -14.5 5t-9.5 13q0 11 11.5 25t25.5 38t26.5 61.5t14.5 97.5h2zM604 655q-17 -18 -35 -38.5t-36.5 -39.5t-37.5 -35t-37 -24l-15 -8
q6 7 20.5 25t30 43.5t30 57t20.5 66.5zM764 712q16 -8 44 -19.5t55 -26.5t47 -34t20 -42q0 -11 -12.5 -17.5t-20.5 -6.5q-14 0 -18.5 9t-13 26.5t-29.5 44t-68 61.5zM645 673q18 -6 39 -15t39.5 -20t30.5 -23t12 -23t-9 -20t-20 -9q-9 0 -15 8t-15 22.5t-23 34.5t-39 45z
" />
  </g>

</svg>
