<?xml version="1.0" standalone="no"?>
<!DOCTYPE svg PUBLIC "-//W3C//DTD SVG 1.1//EN" "http://www.w3.org/Graphics/SVG/1.1/DTD/svg11.dtd" >
<svg xmlns="http://www.w3.org/2000/svg" xmlns:xlink="http://www.w3.org/1999/xlink" version="1.1" viewBox="0 0 2048 2048">
  <g transform="matrix(1 0 0 -1 0 2048)">
   <path fill="currentColor"
d="M499 1137h85l83 101l121 -107q20 -18 15 -33q-5 -19 -25 -19h-279v-267q149 66 265 126l20 -37q-139 -97 -285 -176v-490q0 -142 -154 -171q-12 70 -47 93q-32 21 -159 43l8 46q140 -23 188 -27q68 -5 68 57v406l-52 -23q-76 -34 -128 -57l-6 -36q-5 -33 -22 -33
q-18 0 -40 41l-60 116q174 33 308 85v304h-59q-118 0 -192 -8l-39 88q97 -22 231 -22h59v206q0 116 -8 160l109 -24q83 -19 86 -44q3 -30 -50 -44l-41 -11v-243zM1441 1672l-11 -106q-6 -51 -54 -51q-42 0 -45 34q-1 9 0 22l10 101h-14q-117 0 -192 -8l-38 88
q95 -22 230 -22h20l6 61q12 125 8 157l107 -31q81 -24 82 -50q1 -29 -52 -40l-43 -8l-8 -89h275l98 101l121 -107q20 -18 15 -33q-5 -19 -25 -19h-490zM644 1672l11 -124q4 -50 -52 -50q-44 0 -48 47l-9 127h-229q-117 0 -192 -8l-38 88q96 -22 230 -22h224l-4 53
q-11 126 -20 159l112 -16q82 -12 87 -38q6 -29 -46 -47l-41 -14l10 -97h122l99 101l121 -107q20 -18 15 -33q-6 -19 -26 -19h-326zM1389 491v-183l5 -67l3 -64l4 -74q0 -49 -58 -52q-52 -4 -52 40v400h-299q-118 0 -192 -8l-35 87q110 -22 227 -22l298 2v19q0 95 -5 128
l109 -24q88 -19 81 -50q-4 -18 -53 -34l-34 -12v-29l325 1l96 97l120 -103q20 -17 15 -33q-5 -19 -25 -19h-530zM1565 1440l55 74l72 -49q37 -25 42 -44q5 -20 -25 -37q-6 -4 -13 -7q-10 -5 -29 -17l-2 -132q66 -37 62 -64q-2 -15 -18 -15h-618l-1 -28q-1 -26 -44 -30
q-66 -5 -61 51l4 42q6 95 6 104v215l122 -64zM1571 1385l-480 -2l-1 -178h481v180zM1726 1028l61 72l72 -49q37 -26 42 -44q5 -20 -25 -37q-6 -4 -13 -7q-9 -4 -27 -14l1 -142q59 -37 59 -60q0 -18 -19 -18h-368l1 -16q2 -26 -42 -29q-66 -4 -61 51l4 42q6 97 6 104l-2 210
l118 -64zM1511 788h230v181h-230v-181zM1120 320q-27 -19 -98 -73q-82 -62 -220 -106l-16 36q175 101 300 260l112 -76q19 -13 17 -29q-2 -23 -23 -20l-36 4zM1484 414q164 -42 266 -83q118 -48 109 -114q-4 -26 -23 -38q-15 -10 -30 -4q-17 7 -40 27q-90 80 -297 178z
M1177 1028l61 72l72 -50q37 -25 42 -43q5 -21 -25 -38q-6 -3 -13 -7q-9 -4 -27 -14l1 -141q59 -38 59 -61q0 -18 -19 -18h-367v-15q1 -33 -42 -33q-66 0 -61 51l4 42q6 98 6 104l-2 213l118 -64zM962 788h230v180h-230v-180z" />
  </g>

</svg>
