<?xml version="1.0" standalone="no"?>
<!DOCTYPE svg PUBLIC "-//W3C//DTD SVG 1.1//EN" "http://www.w3.org/Graphics/SVG/1.1/DTD/svg11.dtd" >
<svg xmlns="http://www.w3.org/2000/svg" xmlns:xlink="http://www.w3.org/1999/xlink" version="1.1" viewBox="0 -449 2048 2048">
  <g transform="matrix(1 0 0 -1 0 1599)">
   <path fill="currentColor"
d="M450 622q292 -205 313 -338q5 -32 -11 -57q-15 -22 -42 -19q-24 4 -43 48q-38 92 -103 180q-14 18 -30 42q-23 33 -100 111q-123 -236 -315 -429l-22 25q133 181 210 332q83 164 144 389l127 -62q28 -14 31 -28q3 -27 -38 -33l-53 -8q-42 -101 -68 -153zM477 1327
q233 -171 251 -286q5 -31 -11 -56q-16 -23 -42 -19q-22 3 -38 43q-31 80 -90 165q-12 16 -27 38q-15 23 -63 76q-102 -189 -291 -365l-21 26q123 160 192 292q77 145 134 342l126 -61q29 -14 31 -29q4 -27 -38 -33l-53 -8q-31 -69 -60 -125zM653 1791h111l84 87l120 -93
q21 -16 15 -33q-5 -19 -25 -19h-299l13 -90q7 -50 -46 -53q-43 -2 -47 42l-10 101h-249q-109 0 -192 -8l-35 88q103 -22 227 -22h240l-20 171l97 -13q54 -8 68 -13q24 -10 14 -31q-4 -10 -73 -45zM1447 1791h286l95 98l120 -104q20 -17 15 -33q-5 -19 -25 -19h-499l-14 -88
q-7 -39 -18 -46q-15 -8 -44 -7q-47 3 -45 30q1 5 6 29l18 82h-42q-110 0 -192 -8l-36 88q104 -22 228 -22h50q8 42 26 173l113 -22q56 -11 59 -33q4 -23 -36 -36l-52 -15zM983 735v188q-80 -3 -142 -11l-39 86q118 -17 188 -18l106 -1l66 69l99 -73q21 -16 16 -34
q-6 -18 -26 -18h-173v-174q85 13 206 44l9 -29q-121 -55 -391 -129l-5 -28q-6 -27 -21 -27q-20 0 -39 34l-53 98l43 5q110 11 156 18zM1322 1042l100 -63l292 1l62 71l72 -49q36 -25 41 -44q5 -20 -25 -37q-6 -4 -13 -7q-9 -4 -27 -14v-128l32 -27q21 -19 19 -33
q-3 -16 -21 -16l-432 2q0 -33 -72 -33q-30 0 -27 35l3 26v209zM1422 754h306v168h-306v-168zM973 427q118 -40 158 -62q94 -53 94 -117q0 -45 -36 -53q-30 -8 -48 22q-4 6 -22 42q-28 57 -159 140zM1713 1355l80 81l114 -86q21 -16 15 -34q-5 -18 -25 -18h-184l-1 -104
l51 -40q16 -14 16 -30q0 -18 -20 -18h-634q-70 0 -149 -11l-39 86q123 -17 188 -17h491v134h-604q-67 0 -148 -11l-40 86q121 -18 188 -18h604v126h-476q-67 0 -149 -10l-39 86q123 -18 188 -18h472l60 73l64 -49q38 -29 42 -44q4 -20 -25 -38q-7 -3 -13 -6l-27 -15v-105z
M1664 444v-221q0 -88 -66 -133q-40 -28 -89 -37q-11 70 -47 92q-32 21 -159 44l8 45q139 -23 190 -26q68 -6 68 56v180h-634q-68 0 -148 -11l-39 86q124 -18 187 -18h634v15q0 118 -8 160l109 -24q83 -18 86 -44q3 -29 -50 -44l-42 -11v-52h101l80 81l114 -86q21 -16 16 -34
q-6 -18 -26 -18h-285z" />
  </g>

</svg>
