<?xml version="1.0" standalone="no"?>
<!DOCTYPE svg PUBLIC "-//W3C//DTD SVG 1.1//EN" "http://www.w3.org/Graphics/SVG/1.1/DTD/svg11.dtd" >
<svg xmlns="http://www.w3.org/2000/svg" xmlns:xlink="http://www.w3.org/1999/xlink" version="1.1" viewBox="0 0 2048 2048">
  <g transform="matrix(1 0 0 -1 0 2048)">
   <path fill="currentColor"
d="M741 348q-25 -126 -139 -201q-119 -77 -393 -119l-12 37q226 58 316 108q109 60 134 175h-337q-69 0 -148 -11l-40 86q124 -18 188 -18h342v57q0 19 -4 73q-2 20 -4 60l114 -20q74 -14 76 -35q2 -26 -61 -44l-27 -7v-84l542 1v17q0 115 -8 160l109 -24q81 -18 85 -44
q4 -28 -42 -42l-48 -15v-52h366l99 101l120 -107q21 -18 16 -33q-6 -19 -26 -19h-575v-114q0 -48 6 -105q3 -25 3 -43q0 -41 -56 -49q-48 -7 -48 24l-1 287h-547zM362 1226q-23 -318 -65 -446q-48 -145 -158 -286l-31 20q63 113 101 246q64 223 64 569q0 121 -8 251l112 -70
h592q-39 91 -124 162l24 26q171 -59 177 -133q3 -30 -22 -55h573l98 102l121 -107q20 -18 16 -33q-6 -19 -26 -19l-530 -1v-80h155v0h134l60 72l73 -49q36 -25 41 -44q5 -20 -25 -37q-6 -4 -13 -7q-9 -4 -27 -14l1 -135q0 -22 -26 -32q-25 -9 -46 -5t-21 20l-1 12h-855
l-35 -114h955l88 88l108 -83q36 -28 31 -47q-5 -16 -27 -16h-1172l-24 -84h915v1l120 -1l74 73l72 -50q37 -25 41 -44q5 -20 -26 -37q-6 -4 -13 -7q-11 -4 -31 -15q-23 -161 -60 -234q-42 -82 -176 -116q-1 49 -27 68q-25 19 -96 51l11 37q19 -3 64 -11q67 -9 79 -9
q79 0 102 238l-1059 -1q-44 -11 -68 -8q-38 5 -31 27l13 39l72 255h-77q-68 0 -149 -10zM362 1229q106 -19 187 -18l202 1v104h-206q-67 0 -149 -11l-28 63v-47q0 -25 -6 -92zM368 1389q101 -15 177 -16l206 -1v79l-382 -1q0 -29 -1 -61zM848 1451v-79h332v80zM848 1212h332
v104h-332v-104zM1276 1212h305l1 104h-306v-104zM1396 1725l-17 -102q-6 -38 -18 -45q-19 -13 -46 -9q-40 5 -35 36l21 120h-50q-69 0 -149 -11l-39 86q120 -18 188 -18h58l20 178l138 -32q42 -10 38 -32q-5 -24 -89 -46l-11 -68h324l95 98l120 -101q21 -18 16 -35
q-6 -19 -26 -19h-538zM666 1786h93l83 87l120 -91q21 -15 17 -32q-4 -21 -27 -21h-279l14 -118q5 -46 -57 -46q-31 0 -35 34l-15 130h-327q-67 0 -149 -11l-39 86q121 -18 188 -18h320l-20 168l98 -13q80 -11 85 -34q5 -25 -78 -51zM1325 829q148 -62 156 -124
q3 -25 -11 -42.5t-35 -14.5q-20 3 -34 42q-21 58 -95 119zM1010 810q149 -62 156 -124q4 -26 -10 -43t-35 -14q-20 3 -34 41q-22 59 -95 120zM723 795q148 -62 156 -124q3 -26 -11 -43.5t-35 -13.5q-20 3 -34 41q-21 58 -95 119zM516 820l29 -3v-38q0 -83 -22 -132
q-15 -34 -45 -58q-28 -24 -53 -24q-13 0 -25 12q-17 16 -13 38q4 20 40 42q79 49 89 163z" />
  </g>

</svg>
