<?xml version="1.0" standalone="no"?>
<!DOCTYPE svg PUBLIC "-//W3C//DTD SVG 1.1//EN" "http://www.w3.org/Graphics/SVG/1.1/DTD/svg11.dtd" >
<svg xmlns="http://www.w3.org/2000/svg" xmlns:xlink="http://www.w3.org/1999/xlink" version="1.1" viewBox="0 0 2048 2048">
  <g transform="matrix(1 0 0 -1 0 2048)">
   <path fill="currentColor"
d="M303 1606l131 -51q21 -8 29 -20q7 -10 -1 -22t-24 -14l-61 -8l-28 -43l-36 -57h313l81 80l114 -86q21 -16 15 -33q-6 -19 -26 -19l-291 2v-191h165l80 81l114 -86q21 -16 16 -34q-6 -19 -26 -18l-349 2v-353h171v148q0 53 -8 119l115 -26q80 -18 80 -41q0 -25 -44 -40
l-46 -15v-95q3 -67 3 -72q4 -35 4 -41q0 -41 -53 -44q-49 -3 -50 27l-1 24h-440q-14 -16 -56 -16q-30 0 -38 17q-1 4 -1 33v141q0 117 -8 159l109 -24q83 -18 86 -43q2 -30 -49 -44l-43 -11l-1 -156h174v353h-153q-67 0 -149 -11l-39 86q114 -17 188 -18l153 -2v191h-146
q-65 -80 -151 -155l-25 31q156 205 202 395zM1293 1708h-58q-70 1 -149 -10l-39 86q111 -18 188 -18h67l6 63q8 85 10 136l130 -38q36 -10 38 -27q4 -21 -30 -28l-46 -9l-16 -97h338l80 82l114 -86q21 -16 15 -35t-26 -19h-528l-15 -103q-7 -46 -55 -42q-46 4 -40 47z
M663 1766h74l80 82l114 -86q21 -16 15 -35t-26 -19h-243l15 -95q10 -59 -52 -56q-34 2 -43 56l-15 96l-305 -1q-75 0 -149 -10l-39 86q112 -18 188 -18h293l-37 197l121 -15q39 -5 49 -19q9 -12 2 -26.5t-24 -19.5l-36 -10zM1044 1171q-57 -67 -124 -124l-31 26q36 53 54 79
q66 91 130 237q48 109 67 178l129 -59q27 -12 31 -32q4 -24 -23 -26l-65 -4q-28 -49 -53 -90h324q-20 8 -38 52q-20 47 -100 110l20 34q154 -60 174 -119q17 -51 -31 -77h197l80 79l114 -83q20 -14 16 -32q-5 -19 -26 -19h-381v-133h140l80 79l114 -82q21 -16 15 -34
q-5 -19 -25 -19h-324v-141h148l80 80l114 -83q20 -15 15 -34t-26 -19h-331v-133h220l80 79l114 -83q21 -15 16 -33q-6 -19 -26 -19h-773l1 -13q2 -27 -44 -31q-66 -5 -61 51l4 42q7 98 7 104zM1409 1168v133h-270v-133h270zM1409 971v141h-270v-141h270zM1409 782v133h-270
v-133h270zM1284 419q157 -39 329 -97q183 -61 198 -144q11 -59 -42 -66q-32 -4 -85 45q-70 66 -194 132q-35 18 -221 90zM662 322q-141 -104 -247 -148q-117 -48 -225 -74l-14 39q174 73 259 131q112 76 181 177l97 -59q50 -31 43 -55q-6 -22 -50 -17zM1067 220q0 -36 3 -67
q4 -42 2 -70q-3 -53 -59 -53q-20 0 -34 8q-11 7 -11 42v386h-668q-69 0 -150 -11l-39 86q116 -17 189 -17h668v40q0 65 -9 114l113 -24q82 -17 86 -43q3 -30 -50 -44l-41 -11v-32l647 1l95 95l128 -96q22 -17 17 -38q-5 -20 -35 -20h-852v-246z" />
  </g>

</svg>
