<?xml version="1.0" standalone="no"?>
<!DOCTYPE svg PUBLIC "-//W3C//DTD SVG 1.1//EN" "http://www.w3.org/Graphics/SVG/1.1/DTD/svg11.dtd" >
<svg xmlns="http://www.w3.org/2000/svg" xmlns:xlink="http://www.w3.org/1999/xlink" version="1.1" viewBox="0 -205 1024 1024">
  <g transform="matrix(1 0 0 -1 0 819)">
   <path fill="currentColor"
d="M220 469l29 -34h500l21 23l38 -29q7 -5 6 -9q0 -4 -8 -8l-10 -9v-180l2 -58q2 -30 -38 -29v26h-501q-2 -14 -11 -21q-10 -9 -32 -14q5 35 7 93v200q-3 22 -17 38zM700 820l74 -34q14 -5 6 -11q-16 -4 -27 -18v-43h84l22 32l48 -34q11 -5 10 -8q-2 -3 -16 -4h-148v-76h116
l24 30l48 -34q8 -5 7 -8q-2 -2 -13 -2h-125v-91q-4 -45 59 -43q44 -1 58 7q18 8 23 30q3 18 6 77h13q2 -51 3 -69q2 -18 14 -28q-16 -42 -80 -42h-43q-20 0 -39 1q-46 17 -44 71v87h-93q-11 -53 -46 -86q-70 -66 -207 -75l-3 12q114 18 174 74q32 29 42 75h-43
q-27 1 -45 -13l-32 27h190v76h-111q-22 -34 -50 -61l-10 6q20 30 35 65q15 36 16 46q2 11 -9 24l8 7l54 -24q17 -10 7 -15q-20 1 -31 -13l-12 -21h103v53q2 17 -25 42zM272 806l68 -28q14 -5 6 -11q-16 -4 -27 -18v-35h66l24 32l52 -34q8 -6 7 -9q-2 -3 -13 -3h-136v-82h102
l24 30l54 -34q8 -5 7 -8q-2 -2 -13 -2h-110v-85q44 9 138 40l4 -12q-35 -15 -123 -52l-15 -6q-16 -13 -26 -30l-34 42q17 5 24 16v87h-94q-14 -53 -41 -88q-57 -75 -190 -103l-3 12q113 38 160 102q23 30 34 77h-67q-27 1 -45 -13l-32 27h214v82h-107q-25 -40 -56 -65l-8 6
q20 30 38 66q18 37 21 49q3 13 -7 26l8 7l46 -24q17 -10 7 -15q-18 -1 -31 -19l-9 -17h98v45q2 17 -23 36zM259 347h501v74h-501v-74zM760 335h-501v-74h501v74zM760 249h-501v-73h501v73zM620 1000l81 -36q14 -5 6 -11q-21 -7 -30 -21v-30h210l32 40l68 -48q8 -5 7 -8
q-2 -2 -13 -2h-304v-9l2 -25q2 -34 -45 -44q5 35 7 78h-254v-9l2 -25q2 -34 -45 -44q5 35 7 78h-231q-27 1 -45 -13l-34 31h310v40q2 16 -30 46l9 12l81 -36q14 -5 6 -11q-21 -7 -30 -21v-30h254v40q2 16 -30 46zM370 158l64 -43q7 -5 7 -9q0 -3 -7 -5q-30 5 -58 -7
t-103 -34q-75 -23 -203 -36l-4 12q234 54 297 99q6 10 -1 17zM578 128l2 12q295 -21 324 -100q-3 -46 -58 -2q-32 26 -92 47t-176 43z" />
  </g>

</svg>
