<?xml version="1.0" standalone="no"?>
<!DOCTYPE svg PUBLIC "-//W3C//DTD SVG 1.1//EN" "http://www.w3.org/Graphics/SVG/1.1/DTD/svg11.dtd" >
<svg xmlns="http://www.w3.org/2000/svg" xmlns:xlink="http://www.w3.org/1999/xlink" version="1.1" viewBox="0 -205 1024 1024">
  <g transform="matrix(1 0 0 -1 0 819)">
   <path fill="currentColor"
d="M411 658l62 -38q15 -11 6 -14q-19 0 -36 -13q-6 -6 -10 -12h228l38 36l51 -47q6 -6 5 -8q-1 -3 -8 -3q-34 3 -113 -59h174l37 39l42 -43q12 -11 -2 -17l-18 -9v-44l5 -53q-1 -18 -13 -24q-11 -6 -32 -12v18h-447q-14 -19 -45 -20q4 35 7 94v61q-2 5 -2 8
q-47 -31 -123 -68l-10 14q166 107 205 181q-2 11 -8 27zM358 271l34 -32h408l37 31l46 -39q7 -6 5 -10q-1 -5 -11 -7l-18 -9v-65l5 -67q-2 -18 -11 -24t-34 -12v38h-422v-13q1 -19 -12 -31q-7 -5 -25 -9q-7 -2 -10 -3q4 33 7 104v110q-5 24 -14 26zM480 1017l82 -34
q14 -5 6 -11q-18 -6 -27 -18v-28h258l32 40l69 -48q8 -6 6 -9t-13 -3h-352v-75h323l31 29l54 -52q2 -5 -1 -6q-2 -1 -9 1q-15 0 -28 -6q-14 -6 -26 -16t-48 -46l-13 6l44 70h-679v-269q2 -189 -19 -300q-21 -113 -124 -226l-12 14q84 126 100 246q14 113 11 290v243
q-4 21 -27 41l12 12l45 -31h322v133q2 15 -25 42zM225 714l260 20v34q-3 14 -22 28l8 10l94 -29q3 -2 3 -4q0 -3 -4 -4q-17 -3 -35 -15v-17l178 14l28 37l60 -37q12 -7 10 -10q-3 -4 -20 -4l-256 -19v-15q0 -32 9 -35q9 -6 35 -7q25 -1 34 -1h29h49h56q12 0 31 1q39 3 47 19
q8 15 9 53h9q0 -45 32 -53q-11 -25 -28 -34q-15 -6 -42 -11q-15 -3 -29 -3q-16 -1 -61 -1q-106 0 -154 3q-63 0 -70 52v28l-172 -12q-36 -5 -45 -20zM397 150v-59h422v59h-422zM819 223h-422v-59h422v59zM827 484h-204v-113h204v113zM382 484v-113h203v113h-203zM415 561
q-26 -27 -55 -48l11 -13h229l55 61h-240zM815 328l6 10q40 -12 61 -24q24 -13 35 -31q10 -18 4 -33t-22 -13t-21 21q-5 18 -20 36q-15 16 -43 34zM328 332l10 -1q-2 -32 -7 -47q-6 -21 -17 -33q-10 -14 -32 -16q-22 -4 -30 10q-9 16 12 21q24 10 35 21q15 15 29 45zM728 481
l53 -37q6 -9 -1 -11q-17 2 -31 -2q-26 -24 -69 -52q-5 -3 -8 -5l-9 12q60 50 62 73q1 3 -3 12q-1 3 -2 4zM429 467l4 10q40 -12 60 -25q19 -12 32 -30q14 -30 0 -44q-21 -11 -30 19q0 15 -17 34q-15 17 -49 36zM634 343l9 6q36 -18 52 -31q16 -16 19 -31q3 -16 -5 -26
q-9 -10 -19 -9q-13 0 -15 18t-8 32q-6 16 -33 41zM467 344l8 6q27 -24 39 -41q11 -19 11 -30q0 -12 -7 -24q-7 -10 -21 -9q-14 3 -11 17q3 15 0 34q-3 18 -19 47z" />
  </g>

</svg>
