<?xml version="1.0" standalone="no"?>
<!DOCTYPE svg PUBLIC "-//W3C//DTD SVG 1.1//EN" "http://www.w3.org/Graphics/SVG/1.1/DTD/svg11.dtd" >
<svg xmlns="http://www.w3.org/2000/svg" xmlns:xlink="http://www.w3.org/1999/xlink" version="1.1" viewBox="0 -205 1024 1024">
  <g transform="matrix(1 0 0 -1 0 819)">
   <path fill="currentColor"
d="M77 804l37 -50h90v200q2 15 -27 42l8 11l86 -34q14 -5 6 -11q-17 -6 -29 -18v-190h65l35 41l48 -49q7 -6 5 -10q-1 -5 -11 -7l-20 -9v-200l4 -70q2 -23 -10 -32q-13 -9 -34 -12v34h-82v-238l88 21q-2 6 -7 18q-2 8 -4 12q-21 48 -42 75l10 16q32 -30 56 -62t33 -65
q12 -33 0 -49q-9 -15 -21 -14q-12 3 -14 26q-1 4 -3 15q-1 4 -2 6l-105 -31q-114 -37 -131 -50q-27 -14 -33 -32l-50 62l181 42v248h-84v-19q0 -21 -10 -31q-15 -13 -37 -17q4 35 7 121v256q-6 24 -18 42zM691 1004l90 -39q8 -4 9 -8q1 -3 -5 -5q-18 -6 -31 -18
q-2 -66 1 -151q0 -24 1 -46h143l34 42l66 -48q11 -8 8 -12q-3 -3 -19 -2h-231q2 -53 6 -110q6 -87 16 -159q6 -48 17 -94q1 2 4 7l3 6q48 93 63 148q15 57 17 68q0 10 -13 31l8 7l83 -40q6 -6 5 -9t-9 -5q-21 -2 -30 -11q-19 -74 -78 -194q-18 -33 -37 -63q19 -54 52 -106
q30 -48 63 -77q24 -18 40 54l19 84l17 -2q-11 -60 -17 -112q-8 -57 7 -77q14 -21 6 -30t-29 -5t-44 19q-24 15 -64 61q-41 51 -72 117q-6 12 -11 25q-30 -39 -65 -75q-84 -84 -184 -126l-3 16q74 50 158 135q42 47 77 99q-13 46 -22 106q-17 99 -23 237q-2 27 -4 75h-206
v-179v-21q59 -38 92 -68q30 -36 44 -61q12 -23 9 -48q-5 -23 -21 -22q-18 -1 -26 32q-7 33 -30 68q-19 31 -68 77q-2 -146 -39 -278q-45 -121 -151 -206l-12 12q104 110 131 233q27 125 27 325v140q-3 27 -24 47l11 13l46 -44h217q-3 93 -3 209q-3 28 -25 46zM120 734v-274
h84v274h-84zM330 734h-82v-274h82v274zM805 925l4 12q40 -10 73 -34q34 -25 45 -48q9 -23 5 -35q-5 -13 -20 -13q-17 -1 -23 21q-6 21 -26 48q-21 28 -58 49z" />
  </g>

</svg>
