<?xml version="1.0" standalone="no"?>
<!DOCTYPE svg PUBLIC "-//W3C//DTD SVG 1.1//EN" "http://www.w3.org/Graphics/SVG/1.1/DTD/svg11.dtd" >
<svg xmlns="http://www.w3.org/2000/svg" xmlns:xlink="http://www.w3.org/1999/xlink" version="1.1" viewBox="0 -205 1024 1024">
  <g transform="matrix(1 0 0 -1 0 819)">
   <path fill="currentColor"
d="M557 253q-85 -34 -114 -48q-28 -13 -32 -35l-34 47l55 19v626h-35q-27 1 -45 -13l-34 33h546l36 42l66 -52q8 -5 7 -8q-2 -2 -13 -2h-308v-550l71 25l6 -14l-77 -32v-117l2 -95q2 -37 -47 -46q5 39 7 164v79zM63 803l34 -50h81v182q2 17 -27 42l8 11l82 -34q14 -5 6 -11
q-17 -4 -29 -18v-172h67l27 33l42 -41q7 -6 5 -10q-1 -5 -11 -7l-18 -9v-198l4 -70q6 -40 -40 -44v34h-76v-230l86 21q-4 13 -9 28q-16 45 -46 83l10 12q62 -57 90 -131q14 -36 5 -56q-11 -20 -26 -17q-13 6 -15 33q-1 12 -4 25l-110 -31q-122 -40 -126 -72l-50 58l155 37
v240h-76v-19q2 -37 -43 -46q5 39 7 119v254q-4 24 -18 42zM833 776q4 -3 3 -5q0 -2 -4 -4q-17 -2 -35 -17v-549q0 -53 18 -62q20 -11 36 -9q31 1 60 7q25 5 30 44q1 3 1 5q2 15 3 107h14q5 -72 6 -99q2 -27 24 -38q-15 -32 -27 -39q-11 -8 -26 -12q-15 -5 -55 -6
q-40 -2 -52 0q-29 0 -54 30q-15 17 -16 71v563q-1 17 -26 40l8 10zM614 479h-144v-230l144 50v180zM614 677h-144v-180h144v180zM614 862h-144v-167h144v167zM218 461h76v272h-76v-272zM178 733h-76v-272h76v272z" />
  </g>

</svg>
