<?xml version="1.0" standalone="no"?>
<!DOCTYPE svg PUBLIC "-//W3C//DTD SVG 1.1//EN" "http://www.w3.org/Graphics/SVG/1.1/DTD/svg11.dtd" >
<svg xmlns="http://www.w3.org/2000/svg" xmlns:xlink="http://www.w3.org/1999/xlink" version="1.1" viewBox="0 0 2048 2048">
  <g transform="matrix(1 0 0 -1 0 2048)">
   <path fill="currentColor"
d="M1313 1681q-14 17 -23 46q-26 90 -146 203l20 29q95 -57 140 -91q87 -66 91 -121q2 -33 -28 -66h359l98 102l116 -105q22 -20 20 -36q-2 -18 -26 -18h-943q-117 0 -192 -8l-39 88q97 -23 231 -23h322zM969 1150l36 -9q57 -13 63 -32q8 -25 -39 -44l-33 -13v-659
q0 -106 12 -219q4 -29 4 -54q0 -38 -45 -42q-62 -6 -62 42v945q-72 -66 -153 -136l-23 22q116 136 186 263q87 157 140 370l125 -53q40 -17 46 -34q9 -31 -50 -38l-43 -5q-78 -172 -164 -304zM1442 433q-95 137 -137 253q-48 135 -78 288q-78 -103 -135 -163l-27 27
q252 351 332 738l139 -47q45 -15 37 -40q-7 -23 -47 -27l-43 -3q-16 -32 -46 -103q-13 -30 -32 -70l334 -1l72 72l72 -62q38 -33 36 -56q-1 -17 -27 -29l-46 -21q-14 -50 -55 -214q-80 -313 -241 -538q129 -117 237 -164q80 -35 217 -68l-4 -32q-54 -4 -83 -17
q-30 -14 -50 -53q-230 105 -374 265q-197 -186 -429 -277l-15 36q247 135 393 306zM1643 812q-23 -28 -48 -20q-24 9 -66 84q-75 132 -219 232q-23 -41 -47 -80q52 -204 93 -300q40 -93 137 -227q90 139 150 311zM1655 846q60 201 92 385h-369q-21 -44 -47 -86
q143 -84 224 -152q97 -82 100 -147zM479 796v-428l107 34l79 26q-29 86 -92 181l29 22q192 -186 183 -306q-6 -72 -61 -68q-31 2 -36 35q-2 10 -3 31q-1 22 -10 66q-133 -73 -261 -122q-22 -9 -116 -44q-25 -9 -56 -20l-9 -46q-6 -30 -22 -30t-36 34l-69 120q96 18 281 63
v452h-138v-33q0 -27 -44 -31q-66 -5 -60 51l4 42q6 97 6 104v594l119 -62h113v300q0 121 -8 160l105 -24q82 -19 85 -44q3 -29 -49 -44l-41 -11v-337h112l61 71l76 -49q36 -24 41 -44t-25 -37q-6 -4 -12 -7q-10 -4 -27 -14v-491l33 -28q34 -29 31 -47q-2 -19 -45 -19h-245z
M387 1403h-138v-549h138v549zM479 1403v-549h133v549h-133z" />
  </g>

</svg>
