<?xml version="1.0" standalone="no"?>
<!DOCTYPE svg PUBLIC "-//W3C//DTD SVG 1.1//EN" "http://www.w3.org/Graphics/SVG/1.1/DTD/svg11.dtd" >
<svg xmlns="http://www.w3.org/2000/svg" xmlns:xlink="http://www.w3.org/1999/xlink" version="1.1" viewBox="0 -140 1000 1000">
  <g transform="matrix(1 0 0 -1 0 860)">
   <path fill="currentColor"
d="M460 931l10 17q133 -70 133 -135q0 -33 -26 -33q-19 0 -28 24q-18 47 -34.5 71t-54.5 56zM706 770l56 180l45 -18q33 -14 33 -24q0 -13 -37 -19l-68 -119h104q17 29 21.5 35t9.5 6t26 -18l36 -31l-8 -14h-230v-120h103q22 42 28 42q9 0 29 -17l36 -30l-8 -17h-188v-139
h154q18 33 23 40.5t10 7.5q10 0 33 -22l37 -33l-6 -15h-532v22h217v139h-173v22h173v120h-203v22h279zM253 704v-266h50v266h-50zM189 438v266h-48v-266h48zM189 918l101 -16v-18l-37 -17v-141h36l32 32h16l61 -47v-17l-31 -19v-267l-8 -14l-46 -15l-10 11v26h-50v-186
l67 15q-24 47 -45 66l17 14q115 -77 115 -151q0 -41 -27 -44q-23 0 -32 23q-9 50 -17 71l-227 -81l-5 -29l-19 -7l-36 80l145 33v196h-48v-16l-8 -13l-45 -15l-11 11v370l67 -27h45v192zM598 358v-191q0 -20 6 -28t20 -8q8 0 13 1h105q15 -2 25.5 9t15.5 34l19 80l26 -7
l-6 -87q0 -20 11 -25h-1q15 -6 15 -12q0 -32 -101 -32h-120q-52 0 -70.5 15.5t-18.5 59.5l-1 234l50 -13q34 -7 34 -15q0 -5 -29 -16zM475 333l29 9q1 -10 1 -40q0 -86 -20 -133.5t-46 -47.5q-23 0 -23 34q0 21 21 47t28 50t10 81zM824 316l15 12q103 -100 103 -160
q0 -16 -11 -28.5t-22 -12.5q-19 0 -22 22q-15 93 -63 167zM635 381l12 9q124 -58 124 -113q0 -27 -22 -27q-19 0 -26 18q-24 50 -39 69.5t-49 43.5z" />
  </g>

</svg>
