<?xml version="1.0" standalone="no"?>
<!DOCTYPE svg PUBLIC "-//W3C//DTD SVG 1.1//EN" "http://www.w3.org/Graphics/SVG/1.1/DTD/svg11.dtd" >
<svg xmlns="http://www.w3.org/2000/svg" xmlns:xlink="http://www.w3.org/1999/xlink" version="1.1" viewBox="0 -205 1024 1024">
  <g transform="matrix(1 0 0 -1 0 819)">
   <path fill="currentColor"
d="M240 192q-104 -36 -124 -42q-20 -4 -46 -34l-52 48l175 40v227h-84v-21q3 -38 -43 -46q5 39 7 119v258q-1 14 -16 32l15 12l30 -38h91v190q2 17 -21 36l8 11l76 -28q14 -5 6 -11q-17 -4 -29 -18v-180h72l25 35l42 -39q7 -6 5 -10q-1 -5 -11 -7l-16 -13v-202l4 -70
q7 -41 -40 -44v34h-81v-218l95 22q-1 1 -1 4q-1 2 -1 3q-12 35 -48 87l10 8q78 -72 86 -123q13 -56 -20 -56q-18 0 -17 25q0 15 -4 33zM448 885q-4 24 -23 48l15 12l39 -43h378l32 40l68 -50q8 -6 7 -8q-2 -3 -13 -2h-463v-467h403l32 38l55 -42q12 -9 12 -13t-12 -3h-476
l-36 -43l-48 42q26 23 30 42v449zM612 859l63 -27q7 -5 7 -9q-1 -3 -10 -5q-10 -3 -18 -7t-31 -53h190l24 36l60 -42q8 -6 7 -8q-2 -3 -13 -2h-149q1 -52 -4 -111v-1h133l24 36l60 -42q8 -5 7 -8q-2 -2 -13 -2h-213q-1 -6 -4 -16q-1 -3 -1 -4q63 -22 97 -42q47 -25 65 -58
q17 -37 -12 -45q-17 -3 -26 21q-9 26 -41 51q-29 23 -89 56q-13 -32 -38 -58q-45 -48 -157 -86l-6 14q102 50 139 96q29 35 36 71h-101q-27 1 -45 -13l-30 29h178q1 3 1 6q2 43 2 106h-88q-22 -45 -60 -83l-10 10q32 54 51 105t17 60t-10 17zM610 282q4 -3 3 -5q0 -2 -4 -4
q-17 -2 -35 -17v-98q0 -64 8 -73q9 -10 36 -11q11 -1 28 -1h51h27q118 -6 110 26q5 15 7 36q2 19 3 80h14q5 -55 6 -80q2 -29 28 -39q-21 -51 -56 -54q-16 -4 -51 -4h-60q-29 0 -60 1q-84 0 -101 9q-31 9 -30 92v125q-1 17 -22 40l8 10zM193 727h-84v-276h84v276zM233 451
h81v276h-81v-276zM860 285l10 12q58 -36 83 -59t37 -53q21 -63 -18 -68q-18 1 -22 33t-25 64q-21 33 -65 71zM469 285q1 -28 -5 -76q-6 -47 -20 -72q-36 -54 -64 -25q-8 16 10 30q18 12 34 40q16 27 28 103h17zM628 337l10 12q91 -51 106 -95q18 -59 -18 -66q-18 0 -20 28
q-2 29 -20 59t-58 62z" />
  </g>

</svg>
