<?xml version="1.0" standalone="no"?>
<!DOCTYPE svg PUBLIC "-//W3C//DTD SVG 1.1//EN" "http://www.w3.org/Graphics/SVG/1.1/DTD/svg11.dtd" >
<svg xmlns="http://www.w3.org/2000/svg" xmlns:xlink="http://www.w3.org/1999/xlink" version="1.1" viewBox="0 0 2048 2048">
  <g transform="matrix(1 0 0 -1 0 2048)">
   <path fill="currentColor"
d="M661 423q-159 -78 -460 -172l-7 -42q-4 -28 -28 -32q-16 -3 -34 38l-57 125q67 7 106 15q135 27 180 34v443h-122v-37q0 -27 -44 -31q-66 -5 -61 51l4 42l2 33q1 15 3 42q2 26 2 29v596l120 -59h96v266q0 118 -8 160l109 -24q83 -19 86 -44q3 -29 -50 -44l-41 -11v-303
h101l69 76l83 -55q35 -22 35 -47q0 -24 -26 -40q-1 -1 -24 -13q-10 -5 -19 -10v-497l38 -27q18 -12 18 -30q0 -23 -18 -23h-257v-418q85 20 189 53q-32 85 -95 198l37 17q101 -130 132 -183q54 -93 54 -158q0 -54 -37 -66q-47 -15 -56 39q-15 87 -20 109zM239 890h122v549
h-122v-549zM457 1439v-549h123v549h-123zM920 1916l117 -68h639l68 75l83 -54q40 -26 40 -49q0 -27 -77 -61v-307q0 -47 7 -104q3 -26 3 -43q0 -41 -57 -49q-48 -6 -48 25v43h-680v-39q0 -27 -45 -31q-66 -5 -60 52l4 42q6 100 6 104v464zM1015 1381h680v176h-680v-176z
M1015 1615h680v176h-680v-176zM1244 1307q173 -60 178 -132q2 -34 -26 -57l329 -1l98 101l121 -106q20 -18 15 -33q-5 -19 -26 -19l-950 1l-106 -3q-32 0 -59 -6l-38 88q150 -22 192 -22h378q-15 10 -19 15q-1 2 -15 42q-17 47 -92 102zM936 976l117 -64l615 1l69 73l68 -50
q47 -31 47 -50q0 -27 -77 -62v-142q3 -68 3 -72q4 -34 4 -42q0 -39 -54 -43q-49 -4 -49 26v21h-274v-389q0 -109 -166 -132q3 61 -34 78q-16 9 -164 39l4 42q67 -8 179 -19q85 -9 85 52v329h-278v-16q0 -29 -45 -31q-61 -3 -57 43l3 34l1 31l3 49v294zM1031 628h648v230
h-648v-230zM1075 373q-11 -9 -16 -13q-148 -126 -312 -197l-17 36q200 133 301 307l120 -80q25 -16 19 -34q-5 -19 -34 -19h-61zM1579 479q44 -23 67 -35q125 -64 185 -106q83 -57 80 -114q-2 -21 -19 -35.5t-38 -12.5q-23 2 -49 41q-47 67 -247 229z" />
  </g>

</svg>
