<?xml version="1.0" standalone="no"?>
<!DOCTYPE svg PUBLIC "-//W3C//DTD SVG 1.1//EN" "http://www.w3.org/Graphics/SVG/1.1/DTD/svg11.dtd" >
<svg xmlns="http://www.w3.org/2000/svg" xmlns:xlink="http://www.w3.org/1999/xlink" version="1.1" viewBox="0 0 2048 2048">
  <g transform="matrix(1 0 0 -1 0 2048)">
   <path fill="currentColor"
d="M1640 211q-17 -2 -70 -9q-240 -34 -988 -67l-154 -9l-82 -4l-8 -26q-12 -42 -34 -46t-38 42l-47 137q142 -9 271 -9l133 2q239 2 350 7v195h-474v-34q0 -33 -62 -37q-38 -2 -38 31v405l118 -62h456l-2 24q-2 129 -6 150l111 -24q80 -17 86 -44q6 -28 -51 -45l-40 -11v-50
h442l68 76l83 -52q38 -24 41 -51q2 -26 -79 -61v-125l46 -40q13 -11 15 -25q2 -24 -23 -24l-593 -1v-191q93 4 139 5q290 8 390 18l-25 24q-50 49 -98 85l20 28q90 -49 182 -110q138 -90 144 -172q3 -48 -38 -55q-41 -6 -77 55q-34 58 -68 100zM1071 668v-186h464v186h-464z
M499 482h474v186h-474v-186zM1271 1378q-21 18 -47 39q-169 -86 -394 -135l-7 40q195 51 373 167h-208q-108 0 -192 -7l-38 84q99 -24 230 -24h411l50 93h-369q-33 -6 -52 -6q-37 0 -39 21q0 8 18 40l110 198q17 30 42 89l138 -47q27 -9 23 -29q-3 -19 -34 -22l-63 -8
l-20 -25h332l70 61l80 -67q22 -19 22 -39q0 -22 -26 -31l-58 -20l-127 -208h218l98 107l121 -107q20 -17 15 -33q-5 -20 -26 -20h-577q-49 -32 -74 -46q134 -92 188 -165q173 61 344 181l83 -84q11 -11 16 -23q10 -27 -25 -27q-10 0 -19 2l-48 12q-151 -60 -293 -94
q113 -71 233 -118q37 -15 232 -64l-4 -31q-59 -7 -75 -16q-21 -11 -44 -54q-71 32 -164 96q-129 83 -194 152q27 -77 23 -145q-11 -188 -227 -230q0 49 -23 65q-29 21 -136 43l9 38q154 -18 189 -14q50 5 71 50q19 40 19 74q0 27 -9 76q-182 -112 -322 -158
q-150 -50 -302 -76l-3 41q383 99 591 275q-20 32 -46 65q-89 -68 -114 -82q-135 -80 -362 -123l-9 37q252 71 421 232zM1171 1791l-68 -104h376l56 104h-364zM547 1685h92l91 93l108 -93q26 -23 21 -41t-26 -18h-286v-259l13 2q152 26 265 51l7 -37q-98 -37 -285 -87v-267
q0 -74 -28 -105q-39 -43 -142 -67q4 75 -66 103q-46 18 -107 29l7 46q69 -19 169 -28q45 -4 60 17q11 16 11 55v194q-33 -7 -84 -19q-78 -19 -167 -36l-4 -33q-3 -32 -26 -28q-15 3 -32 36l-56 106q169 16 369 52v275h-105q-109 0 -192 -8l-35 87q101 -20 227 -20h105v112
q0 118 -8 160l109 -24q83 -19 86 -44q3 -28 -50 -43l-41 -12v-149z" />
  </g>

</svg>
