<?xml version="1.0" standalone="no"?>
<!DOCTYPE svg PUBLIC "-//W3C//DTD SVG 1.1//EN" "http://www.w3.org/Graphics/SVG/1.1/DTD/svg11.dtd" >
<svg xmlns="http://www.w3.org/2000/svg" xmlns:xlink="http://www.w3.org/1999/xlink" version="1.1" viewBox="0 0 2048 2048">
  <g transform="matrix(1 0 0 -1 0 2048)">
   <path fill="currentColor"
d="M1067 1225q17 5 57 16q59 15 174 54l15 -32q-182 -106 -454 -187l-5 -28q-7 -34 -27 -34q-18 0 -42 64l-32 85q139 21 224 40v262h-34q-64 0 -143 -11l-37 86q114 -17 180 -17h34v242h-38q-66 0 -142 -11l-38 86q118 -17 180 -17h193l77 80l109 -86q20 -16 15 -33
q-6 -19 -25 -19h-241v-242h51l77 80l108 -86q20 -16 15 -33q-6 -19 -24 -19h-227v-240zM1059 981h627l68 76l84 -54q40 -26 40 -49q0 -27 -78 -61v-214l44 -34q23 -18 22 -34q-1 -19 -17 -19h-798v-275q0 -63 29 -79q50 -30 378 -30q337 0 372 30q26 22 40 112q3 20 18 151
l6 54l38 -6l-4 -213q-2 -58 16 -80q4 -5 37 -33q16 -14 17 -29q3 -48 -110 -64q-89 -13 -407 -13q-346 0 -422 18q-105 24 -105 124l2 638q1 33 -2 88q-2 37 -3 71zM1051 648h279v276h-279v-276zM1424 648h278v276h-278v-276zM642 407q-159 -87 -431 -185l-9 -46
q-6 -30 -21 -30t-34 34l-68 120q118 22 278 62v454h-126v-25q0 -27 -45 -31q-66 -5 -60 51l4 42q6 95 6 104v583l119 -62h102v281q0 124 -8 159l106 -24q80 -18 83 -43q4 -29 -48 -44l-40 -12v-317h110l59 71l74 -49q36 -24 40 -44q5 -20 -24 -37q-6 -4 -12 -7
q-9 -4 -26 -14v-488l32 -28q33 -28 30 -46q-2 -20 -45 -20h-238v-429q93 29 182 59q-29 87 -92 181l29 22q69 -68 120 -138q65 -89 65 -201q0 -36 -23 -56q-17 -14 -36 -12q-36 2 -38 67q-2 44 -15 98zM450 1420v-545h130v545h-130zM357 875v545h-126v-545h126zM1668 1207
h123l76 81l110 -86q19 -16 14 -33q-5 -19 -25 -19h-474q-64 0 -141 -11l-37 86q118 -18 178 -18h86v258h-24q-63 0 -142 -11l-37 86q114 -17 179 -17h24v242h-53q-64 0 -142 -11l-37 86q114 -17 179 -17h263l76 80l109 -86q20 -15 15 -33q-5 -19 -25 -19h-295v-242h62l76 80
l109 -86q19 -15 14 -33q-5 -19 -24 -19h-237v-258z" />
  </g>

</svg>
