<?xml version="1.0" standalone="no"?>
<!DOCTYPE svg PUBLIC "-//W3C//DTD SVG 1.1//EN" "http://www.w3.org/Graphics/SVG/1.1/DTD/svg11.dtd" >
<svg xmlns="http://www.w3.org/2000/svg" xmlns:xlink="http://www.w3.org/1999/xlink" version="1.1" viewBox="0 -205 1024 1024">
  <g transform="matrix(1 0 0 -1 0 819)">
   <path fill="currentColor"
d="M199 994l34 -38h525l37 37l44 -41q7 -6 5 -10q-1 -5 -11 -7l-18 -9v-128l6 -73q0 -30 -44 -31v40h-537v-19q3 -32 -45 -40q5 38 7 150v120q-3 22 -17 38zM397 722l72 -35q7 -8 -4 -11q-16 0 -29 -3q-10 -1 -38 -24h484l32 42l68 -50q8 -5 7 -8q-2 -2 -13 -2h-261
q-43 -64 -108 -107q78 -16 142 -35q96 -28 104 -51q8 -22 -7 -28t-61 21q-46 28 -185 61q-5 1 -15 4q-13 2 -19 4l-21 -9q-114 -50 -204 -61t-224 -13v16q131 7 219 23q85 17 175 57q-70 17 -107 21q-57 9 -155 24q45 42 79 73h-223q-27 1 -45 -13l-34 31h321q6 5 11 9
q41 38 39 43q-1 6 -10 10zM740 63q-110 -17 -140 -24q-30 -8 -42 -24l-40 46l175 21v107h-120v-1q6 -39 -41 -42q1 7 3 20q2 15 4 37v125q-3 19 -17 31l9 8l33 -29h129v54q2 17 -25 42l8 11l76 -34q14 -5 6 -11q-16 -4 -27 -18v-44h120l27 27l34 -35q7 -4 7 -7q0 -4 -7 -6
l-18 -9v-32l6 -82q-2 -25 -40 -27v22h-129v-102l128 15q-24 24 -64 48l6 13q67 -26 95 -45q29 -19 42 -43q26 -54 -12 -62q-18 0 -23 23q-4 21 -27 48zM254 61q-106 -16 -136 -22t-46 -26l-42 48l231 26v94h-128q-1 -18 -9 -27q-8 -7 -32 -12q1 7 2 18q3 17 5 40v124
q-1 19 -15 31l9 8l31 -29h137v26q2 16 -17 34l8 11l68 -26q14 -5 6 -11q-16 -4 -27 -18v-16h104l31 29l38 -37q7 -4 5 -7q-1 -4 -11 -6l-14 -9v-60l6 -54q-1 -26 -40 -27v18h-119v-90l116 13q-24 21 -62 40l6 11q139 -41 141 -115q0 -19 -17 -20t-22 19q-5 19 -28 47z
M777 842h-537v-92h537v92zM240 856h537v84h-537v-84zM375 631l-2 -2l-76 -59q98 -7 227 -30q15 -3 30 -5q65 38 110 96h-289zM261 318h-128v-121h128v121zM731 204h129v118h-129v-118zM299 197h119v121h-119v-121zM693 322h-120v-118h120v118z" />
  </g>

</svg>
