<?xml version="1.0" standalone="no"?>
<!DOCTYPE svg PUBLIC "-//W3C//DTD SVG 1.1//EN" "http://www.w3.org/Graphics/SVG/1.1/DTD/svg11.dtd" >
<svg xmlns="http://www.w3.org/2000/svg" xmlns:xlink="http://www.w3.org/1999/xlink" version="1.1" viewBox="0 0 2048 2048">
  <g transform="matrix(1 0 0 -1 0 2048)">
   <path fill="currentColor"
d="M1774 993l65 74l89 -68q20 -15 17 -38q-2 -18 -18 -25l-58 -23q-63 -326 -173 -500q130 -163 286 -212l-2 -34q-75 1 -110 -61q-122 89 -227 231q-47 -56 -101 -103q-103 -87 -281 -158l-12 35q223 121 347 301q-94 160 -172 524l-31 -3l-32 78q66 -15 222 -16zM1770 941
l-297 -1q46 -195 89 -296q30 -70 79 -151q101 212 129 448zM606 395q-80 -45 -126 -68q-73 -37 -248 -99l-9 -48q-6 -31 -29 -31q-17 0 -26 22l-56 137q90 14 227 53l-1 440h-117v-33q0 -27 -43 -30q-63 -5 -58 50q10 105 10 146v611l117 -64h91v264q-5 145 -8 159l101 -24
q79 -18 81 -43q4 -30 -47 -43l-40 -12v-301h97l57 72l68 -50q42 -30 42 -47q0 -18 -62 -54v-526l34 -31q15 -13 8 -26q-9 -17 -42 -17l-202 -1v-418q71 22 170 58q-12 62 -66 167l30 22q157 -192 148 -303q-2 -28 -23 -46q-15 -13 -34 -7q-21 6 -31 68q0 1 -13 53zM221 858
h117v565h-117v-565zM425 1423v-565h114v565h-114zM1068 877v-174h102l80 80l94 -80q20 -17 16 -33q-6 -17 -26 -17h-266v-381h139v192q0 50 -8 93l121 -25q39 -8 42 -25q4 -22 -21 -31l-46 -15v-251q0 -49 -69 -33q-19 5 -19 17v27h-352q-32 -14 -56 -13q-32 2 -32 29l1 249
q0 31 -6 79l122 -27q33 -8 35 -28q1 -20 -34 -33l-31 -11l1 -194h123v381h-98q-63 0 -149 -11l-38 78q119 -17 187 -17h98v174h-128v-64q0 -25 -40 -30q-63 -6 -58 50l4 41q6 101 6 102l2 570l111 -63h106v153h-57q-59 0 -184 -7l-37 86q90 -23 221 -23h57v74q0 109 -7 157
l104 -24q80 -18 82 -43q3 -30 -47 -42l-42 -11v-111h98l68 93l116 -97q20 -17 15 -33q-6 -19 -25 -19h-272v-153h123l59 70l69 -48q35 -24 39 -43q5 -19 -24 -36q-6 -4 -12 -7q-9 -4 -26 -14l2 -415q0 -47 6 -102q3 -26 3 -42q0 -41 -55 -48q-46 -6 -46 24v55h-141zM850 930
h131v219h-131v-219zM1071 1149v-219h138v219h-138zM850 1206h131v224h-131v-224zM1071 1430v-224h138v224h-138zM1440 1926l129 -75l136 -1l60 78l68 -53q30 -24 35 -43q4 -20 -21 -33l-21 -10q-10 -5 -19 -9v-483q0 -30 9 -39q14 -14 59 -10q33 3 68 11q26 6 40 2
q36 -10 30 -59q-6 -53 -106 -53h-76q-114 0 -114 112v536h-180q-3 -216 -20 -371q-17 -146 -71 -250q-17 -34 -62 -115l-35 22q68 176 83 343q15 178 15 351q0 76 -7 149z" />
  </g>

</svg>
