<?xml version="1.0" standalone="no"?>
<!DOCTYPE svg PUBLIC "-//W3C//DTD SVG 1.1//EN" "http://www.w3.org/Graphics/SVG/1.1/DTD/svg11.dtd" >
<svg xmlns="http://www.w3.org/2000/svg" xmlns:xlink="http://www.w3.org/1999/xlink" version="1.1" viewBox="0 -200 1000 1000">
  <g transform="matrix(1 0 0 -1 0 800)">
   <path fill="currentColor"
d="M732 672l53 38l75 -61h-452l48 -18l-47 -12q-11 -7 -15.5 -10t-15.5 -9l28 -9h304l29 34l69 -32l-29 -28v-128h-394v-19q-18 -8 -32 -12t-31 -4v165q-22 -10 -53 -22.5t-67 -24.5t-76 -22t-79 -16l-1 5q51 14 102 34.5t95 43.5t77.5 45t48.5 39h-119l-67 -18l-27 41h576z
M385 455h338v116h-322l-16 -5v-111zM395 967l66 -56h-155l-15 -11v-63h57l48 31l65 -49h-170v-73l161 19l3 -11q-61 -13 -110 -25t-89.5 -23t-73 -20t-59.5 -15l-50 46l164 21v81h-69l-51 -15l-30 33h150v74h-88l-48 -16l-25 35h272zM788 957l-32 -27l-58 -19h136l29 32
l66 -42l-24 -24v-155q-14 -5 -24 -12t-31 -8v35h-225v-19q-8 -8 -19.5 -13t-33.5 -6v228l61 -16h37q7 9 15.5 20t17 23t15 24.5t9.5 24.5zM625 886v-51h225v60h-210zM625 756h225v62h-225v-7v-55zM729 142q24 -7 57 -18.5t63.5 -24.5t53 -27t26.5 -27v-4q0 -21 -11.5 -31
t-25.5 -10t-26 12t-16 26q-6 8 -12 13.5t-11 10.5q-25 -2 -73.5 -5t-110.5 -7t-132.5 -9t-139.5 -11t-130.5 -13t-106.5 -15l-38 50h377v116h-228v-27q-15 -6 -28 -10.5t-29 -5.5v215l73 -27h212v120l77 -20l-20 -50v-50h212l35 37l65 -46l-31 -27v-109h-281v-100l285 9
q-17 14 -37 25t-55 33zM257 292l-12 -13v-90h228v103h-216zM530 292v-103h224v103h-224z" />
  </g>

</svg>
