<?xml version="1.0" standalone="no"?>
<!DOCTYPE svg PUBLIC "-//W3C//DTD SVG 1.1//EN" "http://www.w3.org/Graphics/SVG/1.1/DTD/svg11.dtd" >
<svg xmlns="http://www.w3.org/2000/svg" xmlns:xlink="http://www.w3.org/1999/xlink" version="1.1" viewBox="0 -205 1024 1024">
  <g transform="matrix(1 0 0 -1 0 819)">
   <path fill="currentColor"
d="M249 174q-86 -33 -133 -56q-27 -14 -37 -34l-50 36l149 51v224h-78v-9q3 -39 -35 -46q5 39 7 107v258q-1 14 -16 32l15 12l23 -38h84v206q2 17 -21 36l8 11l66 -28q14 -5 6 -11q-16 -4 -27 -18v-196h66l27 33l36 -37q7 -6 5 -10q-1 -5 -11 -7l-16 -13v-230l4 -46
q4 -36 -32 -44v38h-79v-212l82 29q-15 29 -53 81l8 8q118 -91 101 -162q-5 -15 -23 -13t-17 24q2 21 -9 46zM556 589l29 -27h257l35 35l40 -43q7 -6 5 -10q-1 -5 -11 -7l-18 -9v-190l2 -71q2 -29 -34 -27v34h-269v-1q6 -39 -39 -44q5 37 7 140v185q-3 20 -13 27zM476 651
h236v85h-126v-9q6 -39 -39 -44q5 37 7 82v91q-3 20 -13 27l9 8l29 -27h133v76q2 17 -25 42l8 11l70 -34q14 -5 6 -11q-16 -4 -27 -18v-66h114l27 27l36 -35q7 -4 5 -7q-1 -4 -11 -6l-14 -9v-84l2 -27q1 -28 -34 -27v40h-125v-85h154l24 34l62 -44q8 -5 7 -8q-2 -2 -13 -2
h-423q-27 1 -45 -13zM327 33l-26 38q40 20 86 47q24 15 42 19v364h-21q-30 2 -48 -12l-32 32h90l29 25l36 -33q7 -6 6 -10t-10 -6l-18 -8v-353q18 -6 33 -17q4 -2 12 -7l9 -6l-4 6q93 71 121 116q5 10 -3 23l8 9l62 -30q8 -9 -3 -13q-19 -1 -33 -9q-77 -75 -145 -104l12 -6
q9 -5 13 -7q32 -16 82 -26l60 -4q70 -2 325 13l2 -16q-40 -6 -49 -25q-2 -3 -3 -5l-325 1q-84 15 -148 65q-26 21 -40 20q-42 -4 -120 -81zM210 415h79v276h-79v-276zM178 691h-78v-276h78v276zM592 468h269v74h-269v-74zM861 452h-269v-72h269v72zM861 364h-269v-70h269v70
zM712 848h-126v-96h126v96zM744 752h125v96h-125v-96zM349 913l6 10q47 -27 66 -44q20 -16 37 -47q33 -64 -5 -78q-18 -1 -21 24q-3 26 -22 61q-19 36 -61 74zM770 241l5 13q133 -59 141 -111q8 -33 -13 -39t-26 22q-4 24 -37 59q-31 33 -70 56z" />
  </g>

</svg>
