<?xml version="1.0" standalone="no"?>
<!DOCTYPE svg PUBLIC "-//W3C//DTD SVG 1.1//EN" "http://www.w3.org/Graphics/SVG/1.1/DTD/svg11.dtd" >
<svg xmlns="http://www.w3.org/2000/svg" xmlns:xlink="http://www.w3.org/1999/xlink" version="1.1" viewBox="0 0 2048 2048">
  <g transform="matrix(1 0 0 -1 0 2048)">
   <path fill="currentColor"
d="M1600 1593l56 -39q27 -19 22 -36q-6 -18 -41 -15l-42 4l-113 -49q90 -16 133 -48q32 -23 30 -57q-1 -29 -26 -38q-38 -13 -70 41q-21 35 -136 102q78 60 127 135h-428l56 -39q27 -18 21 -36q-5 -18 -40 -15l-42 4l-113 -49q90 -16 133 -48q31 -23 29 -57q-1 -29 -26 -38
q-37 -13 -70 41q-21 35 -136 102q78 59 127 135h-447l69 -48q27 -19 22 -36q-6 -19 -41 -15l-41 4l-113 -50q89 -15 133 -47q31 -23 29 -58q-1 -28 -26 -37q-38 -14 -70 40q-21 36 -136 102q84 64 133 145h-247q-64 0 -149 -11l-39 86q27 -3 41 -5q86 -12 147 -12l394 1
l38 103h-219q-75 0 -148 -10l-40 86q118 -17 188 -17l238 1l12 35q4 13 17 66q3 15 11 44l96 -32q65 -22 67 -38q2 -26 -59 -34l-30 -3l-16 -38l578 -1l61 70l72 -50q37 -25 41 -43q5 -20 -24 -37q-6 -4 -13 -7q-9 -4 -26 -14v-82h148l81 80l105 -87q26 -20 24 -32
q-3 -19 -26 -19h-286zM805 1652l652 -1v104h-610zM975 1022q-18 -1 -380 -21l-10 -22q-6 -14 -19 -16q-21 -4 -43 40l-40 78q141 53 272 162h-477q-25 -208 -124 -208q-28 0 -42 21q-15 21 -4 43q8 17 26 34q75 71 90 128q9 37 15 116h39v-79h1471l59 66l88 -69
q35 -28 37 -45q2 -21 -37 -29l-49 -11q-51 -66 -125 -140l-26 19q26 67 60 154h-951l56 -41q34 -25 27 -43q-6 -17 -23 -15l-26 4l-46 4q-33 -14 -94 -38q-69 -27 -116 -40q220 7 817 37q-65 45 -104 64l16 32q118 -41 167 -66q115 -58 93 -123q-10 -27 -40 -29
q-33 -2 -55 38q-14 27 -34 41q-33 -5 -372 -38v-89h487l80 81l114 -86q21 -16 15 -33q-5 -19 -25 -19h-671v-88h651l80 80l114 -85q20 -16 15 -33q-5 -18 -26 -18h-834v-67q0 -49 -56 -49q-40 0 -40 33v83h-623q-28 -11 -51 -11q-39 0 -41 22q-1 6 1 12l49 117q-36 0 -86 -7
l-39 86q121 -18 188 -18h602v81zM407 884l-43 -88h611v88h-568zM1442 574v17q0 84 -9 126l109 -24q83 -18 85 -44q3 -30 -49 -43l-42 -11v-21h99v0h147l61 72l72 -51q37 -25 42 -43q5 -20 -25 -37q-7 -3 -13 -6q-10 -5 -27 -15l-3 -49l37 -32q17 -13 15 -32q-1 -18 -19 -18
h-386v-120q54 4 132 13q60 6 111 11q-15 13 -22 19q-22 21 -39 33l24 30q120 -70 152 -96q72 -59 72 -115q0 -58 -47 -58q-35 0 -59 61q-15 38 -51 88q-138 -41 -644 -113l-9 -45q-6 -25 -23 -26q-18 -2 -32 26l-66 133q107 5 407 30v129h-235v-18q-7 -31 -58 -36
q-39 -4 -39 22v310l118 -67h214zM1536 519v-101h258v101h-258zM1207 418h235v101h-235v-101zM504 574v17q0 80 -8 126l109 -24q82 -18 85 -44q3 -30 -49 -43l-40 -11v-21h228l61 72l72 -51q37 -25 41 -43q6 -19 -24 -37q-7 -3 -13 -6q-9 -5 -26 -15v-58l43 -28
q14 -10 12 -26q-1 -19 -17 -19h-377v-130q116 10 235 26q-32 31 -70 61l24 31q198 -95 211 -185q4 -24 -13 -44q-14 -17 -34 -17q-34 0 -59 56q-7 16 -31 56q-229 -61 -638 -113l-11 -46q-5 -20 -19 -25q-20 -6 -30 17l-65 144q209 8 403 28v141h-229v-15q0 -13 -13 -22
q-25 -16 -57 -16q-26 0 -26 25v306l120 -67h205zM601 519v-101h243v101h-243zM275 418h229v101h-229v-101z" />
  </g>

</svg>
