<?xml version="1.0" standalone="no"?>
<!DOCTYPE svg PUBLIC "-//W3C//DTD SVG 1.1//EN" "http://www.w3.org/Graphics/SVG/1.1/DTD/svg11.dtd" >
<svg xmlns="http://www.w3.org/2000/svg" xmlns:xlink="http://www.w3.org/1999/xlink" version="1.1" viewBox="0 0 2048 2048">
  <g transform="matrix(1 0 0 -1 0 2048)">
   <path fill="currentColor"
d="M751 1522h88l80 81l114 -86q21 -16 15 -34q-5 -18 -25 -18h-718q-69 0 -149 -11l-39 86q124 -18 188 -18h123q-11 15 -16 44q-11 64 -72 144l16 15q-73 -1 -146 -11l-40 86q126 -17 188 -17h247q-17 11 -22 32q-14 62 -76 127l18 22q136 -65 140 -125q2 -34 -28 -56h170
l80 80l114 -86q21 -16 15 -33q-5 -19 -26 -19h-191l82 -33q32 -14 31 -35q-2 -18 -34 -21q-22 -2 -35 -5q-42 -56 -92 -109zM699 1522q51 85 79 203h-404q134 -106 126 -169q-3 -21 -22 -34h221zM782 575q40 93 52 186l100 -37q36 -13 37 -29q1 -21 -29 -25l-41 -6
q-33 -55 -59 -89h775l72 77l84 -54q40 -26 40 -49q0 -28 -77 -61v-260h5l108 114l131 -114q27 -23 22 -40q-6 -18 -26 -18h-1698q-113 0 -192 -8l-38 88q94 -22 230 -22h38v260q0 114 -17 175l121 -88h362zM411 228h349v291h-349v-291zM856 228h350v291h-350v-291zM1301 228
h339v291h-339v-291zM561 997h-156v-16q0 -28 -45 -31q-62 -3 -57 44l4 34l1 31l3 49l1 211l-8 91l109 -61l383 -1l61 72l72 -49q37 -26 41 -44q5 -20 -25 -37q-6 -4 -13 -7q-9 -4 -27 -14l1 -173q3 -68 4 -73q3 -34 3 -41q0 -39 -52 -44q-46 -4 -49 27l-2 32h-152v-139
l211 2l81 80l114 -86q21 -16 15 -33q-6 -19 -26 -19h-395q0 -68 8 -137q8 -64 -63 -64q-42 0 -42 32v169h-156q-118 0 -192 -8l-39 88q91 -21 231 -22l156 -2v139zM810 1200v92h-405v-92h405zM810 1146h-405v-93h405v93zM1194 1654q-72 -74 -124 -109l-24 27
q144 146 222 386l126 -53q28 -11 30 -28q2 -28 -38 -33l-53 -6q-23 -36 -45 -69h377l76 70l68 -53q40 -31 40 -53q0 -19 -37 -29q-7 -1 -14 -3q-16 -3 -45 -12q-102 -110 -196 -183q183 -57 434 -81v-40q-105 -3 -126 -64q-224 45 -394 127q-190 -107 -459 -159l-10 34
q26 9 101 34q167 57 293 132q-108 68 -202 165zM1219 1681q110 -85 251 -144q109 78 177 176h-400q-15 -18 -28 -32zM1507 1123v-205h142l80 80l114 -85q21 -16 16 -34q-6 -19 -26 -19l-320 4l3 -57q2 -40 3 -54q5 -45 4 -68q-2 -39 -55 -42q-52 -3 -53 32l-2 189l-229 -1
q-11 -17 -36 -19q-58 -4 -56 29q1 7 4 23l49 224q-36 -2 -64 -5l-38 88q94 -22 230 -22h140l-1 66q-1 73 -7 113l109 -24q82 -19 85 -44q3 -26 -50 -44l-41 -13l-1 -54h134l80 81l114 -86q21 -16 15 -34t-26 -18zM1413 1123h-164l-46 -205h210v205z" />
  </g>

</svg>
