<?xml version="1.0" standalone="no"?>
<!DOCTYPE svg PUBLIC "-//W3C//DTD SVG 1.1//EN" "http://www.w3.org/Graphics/SVG/1.1/DTD/svg11.dtd" >
<svg xmlns="http://www.w3.org/2000/svg" xmlns:xlink="http://www.w3.org/1999/xlink" version="1.1" viewBox="0 0 2048 2048">
  <g transform="matrix(1 0 0 -1 0 2048)">
   <path fill="currentColor"
d="M935 379v313h-104q-71 0 -148 -10l-40 86q122 -19 188 -19h104v261h-134q-73 0 -148 -10l-40 86q121 -19 188 -19h359l81 80l114 -86q21 -15 15 -33t-26 -18h-314v-261h108l80 80l114 -86q21 -15 15 -33q-5 -18 -25 -18h-292v-297l22 4q197 36 333 69l9 -40
q-48 -20 -157 -52q-161 -47 -397 -101q-79 -19 -136 -32l-11 -44q-7 -27 -23 -30q-21 -5 -34 26l-58 141q49 6 203 22q80 8 154 21zM453 1932l130 -58q27 -12 31 -30q4 -27 -46 -34l-50 -8q-183 -311 -421 -459l-22 34q140 129 230 268q70 108 148 287zM1031 1347h161v290
q0 120 -8 160l110 -24q82 -18 85 -44q4 -29 -49 -44l-41 -11v-247q0 -55 7 -130q5 -59 -59 -53q-46 5 -45 35v14h-401q-32 -18 -55 -20q-51 -5 -51 43v317q0 112 -6 160l109 -24q82 -19 85 -44q4 -29 -49 -44l-40 -11v-323h151v409q0 118 -8 160l109 -24q83 -19 86 -44
q3 -30 -50 -44l-41 -11v-446zM325 989q-117 -122 -231 -206l-23 31q281 280 397 684l131 -45q40 -14 38 -35q-2 -25 -47 -35l-42 -10q-76 -164 -139 -267l40 -22q28 -14 31 -30q4 -18 -19 -30l-43 -22v-658q0 -80 9 -165q3 -37 3 -70q0 -48 -52 -54q-53 -6 -53 51v883z
M1632 1153h-43q-119 0 -192 -8l-38 88q99 -23 230 -23h186l98 102l121 -107q20 -18 16 -33q-6 -19 -26 -19h-253v-935q0 -87 -66 -133q-42 -29 -93 -37q-10 66 -42 87q-29 19 -145 42l8 45q113 -15 171 -19q68 -4 68 57v893zM1729 1781l99 101l120 -107q21 -18 16 -33
q-6 -19 -26 -19h-326q-117 0 -192 -8l-38 88q96 -22 230 -22h117z" />
  </g>

</svg>
