<?xml version="1.0" standalone="no"?>
<!DOCTYPE svg PUBLIC "-//W3C//DTD SVG 1.1//EN" "http://www.w3.org/Graphics/SVG/1.1/DTD/svg11.dtd" >
<svg xmlns="http://www.w3.org/2000/svg" xmlns:xlink="http://www.w3.org/1999/xlink" version="1.1" viewBox="0 0 2048 2048">
  <g transform="matrix(1 0 0 -1 0 2048)">
   <path fill="currentColor"
d="M744 1463l814 -1l69 80l93 -65q38 -26 38 -44q0 -25 -85 -56q-29 -227 -117 -310q-73 -69 -200 -84q-7 73 -52 95q-21 10 -164 60l10 40q40 -11 103 -28q105 -29 152 -29q76 0 120 75q29 49 52 206l-850 1q-54 -150 -155 -245q-112 -104 -355 -199l-14 34
q265 138 361 281q91 135 111 398h-308q-118 0 -193 -8l-38 88q93 -22 231 -22h675q-22 16 -29 51q-8 36 -61 106q-27 35 -65 69l19 27q110 -61 159 -103q61 -54 58 -111q-2 -28 -19 -39h574l98 101l121 -107q20 -18 15 -34q-6 -18 -25 -18h-1113q-10 -123 -30 -209z
M1042 882q-18 10 -26 18q-8 7 -15 40q-7 37 -60 106q-27 35 -66 69l19 27q110 -60 159 -103q62 -54 58 -110q-2 -32 -30 -47h617l98 102l121 -107q20 -18 15 -33q-5 -19 -26 -19h-905q-12 -9 -37 -31q-150 -124 -345 -224v-352q283 49 507 116l15 -39q-149 -65 -505 -182
l-5 -31q-5 -35 -22 -36q-23 -2 -43 41l-52 109l12 2v326q-265 -93 -424 -131l-12 48q228 64 452 178q183 94 306 206h-516q-118 0 -192 -8l-38 88q98 -23 230 -23h710zM1624 639q-34 -25 -132 -78q-123 -67 -179 -93q138 -125 285 -190q144 -63 349 -91v-34q-62 -2 -90 -12
q-37 -12 -65 -64q-299 108 -466 276q-133 135 -216 356l34 13q63 -116 139 -216q214 141 296 263l108 -72q39 -26 33 -44q-9 -25 -61 -19z" />
  </g>

</svg>
