<?xml version="1.0" standalone="no"?>
<!DOCTYPE svg PUBLIC "-//W3C//DTD SVG 1.1//EN" "http://www.w3.org/Graphics/SVG/1.1/DTD/svg11.dtd" >
<svg xmlns="http://www.w3.org/2000/svg" xmlns:xlink="http://www.w3.org/1999/xlink" version="1.1" viewBox="0 -205 1024 1024">
  <g transform="matrix(1 0 0 -1 0 819)">
   <path fill="currentColor"
d="M190 659l36 -42q16 25 28 47q26 47 51 110h-200q-25 1 -36 -14l-31 34h261l31 37l50 -50q7 -5 7 -9q0 -3 -7 -5q-22 -4 -30 -10q-7 -6 -27 -43q-19 -37 -46 -82q-9 -16 -34 -52l-6 -9v-60q28 -9 50 -18l27 37q37 54 37 68t-8 29l7 7l70 -47q6 -5 6 -8t-5 -4q-18 2 -39 -9
q-32 -36 -77 -80q32 -14 45 -26q39 -29 51 -65q11 -35 -16 -41q-16 -2 -24 20q-8 23 -32 56q-22 30 -92 65v-311l4 -95q2 -37 -53 -46q5 39 7 187v286q-47 -55 -157 -147l-10 10q107 107 153 172q3 4 7 10q5 7 7 10v36q-4 28 -20 41zM548 535l67 -28q7 -5 6 -8q0 -4 -8 -5
q-9 -1 -25 -9q-14 -18 -29 -35h347l30 39l50 -38q9 -6 9 -11q0 -4 -9 -8l-20 -13v-81q-4 -150 -24 -206q-20 -58 -53 -79q-33 -22 -91 -35q2 19 -24 33q-40 13 -84 24l2 16q86 -14 138 -13q42 8 63 50q21 40 29 188v114h-381q-77 -84 -167 -133l-10 10q86 66 134 126t50 74
t-8 20zM544 1007l77 -32q7 -5 6 -8q0 -4 -8 -5q-17 -1 -31 -9q-20 -40 -41 -75h349l30 39l50 -38q9 -6 9 -11q0 -4 -9 -8l-20 -13v-61q0 -131 -11 -179q-10 -48 -42 -76q-31 -27 -87 -37q-4 18 -26 32q-41 15 -82 26l2 14q86 -14 136 -11q40 5 52 45q12 42 16 164v94h-379
q-61 -98 -125 -151l-10 10q71 86 108 165q38 80 36 90q-2 11 -10 27zM622 392l67 -26q6 -2 7 -5q0 -3 -5 -6q-8 -1 -23 -12q2 -69 -7 -117h118v84q2 16 -22 34l9 12l83 -27q3 -4 2 -6q-2 -2 -7 -3q-20 -7 -29 -20v-87l4 -18q0 -29 -40 -40v55h-121q-6 -24 -15 -41
q-29 -55 -98 -97t-157 -58l-4 16q113 34 168 88q50 47 64 92h-91l-31 -33l-36 33q20 18 24 34v71q3 18 -14 24l6 12l61 -20q8 -2 10 -5t-3 -7q-16 -4 -28 -18v-75h106q12 51 9 127q2 20 -13 28zM628 828l69 -26q6 -2 7 -5q0 -3 -5 -6q-8 -1 -23 -12q3 -69 -19 -119h118v80
q2 16 -22 26l9 12l77 -19q3 -4 2 -6q-2 -2 -7 -3q-18 -7 -27 -16v-69l4 -19q2 -38 -36 -46v44h-126q-27 -50 -78 -85q-53 -38 -163 -64l-4 12q124 47 170 98q18 20 31 39h-60l-29 -34l-44 42q26 10 32 28v63q3 14 -11 29l5 7l53 -18q8 -2 10 -5t-3 -7q-10 -2 -22 -16v-73h78
q11 20 16 38q10 42 7 91q2 20 -15 28zM126 978l4 13q84 -24 109 -44q26 -19 37 -39q22 -45 -12 -60q-16 -4 -22 19q-6 24 -27 51q-20 27 -89 60z" />
  </g>

</svg>
