<?xml version="1.0" standalone="no"?>
<!DOCTYPE svg PUBLIC "-//W3C//DTD SVG 1.1//EN" "http://www.w3.org/Graphics/SVG/1.1/DTD/svg11.dtd" >
<svg xmlns="http://www.w3.org/2000/svg" xmlns:xlink="http://www.w3.org/1999/xlink" version="1.1" viewBox="0 -200 998 1000">
  <g transform="matrix(1 0 0 -1 0 800)">
   <path fill="currentColor"
d="M37 255q37 61 70 123t64 132q29 66 48 128.5t27 107.5h-118l-45 -10l-13 34h175l31 54l52 -56l-31 -43q-7 -22 -16 -52t-19.5 -61.5t-21.5 -60.5t-22 -49l-1 -34q11 -5 12.5 -9.5t6.5 -9.5q11 15 22.5 39t22 49t18.5 47.5t12 35.5l53 -63l-35 -24l-83 -95
q43 -34 63.5 -67t20.5 -64q0 -19 -6 -33t-37 -20h-1q-3 0 -3.5 17.5t-5.5 44.5t-19 61t-45 67v-408q-8 -14 -15 -23t-27 -14v415l-21 -31.5t-29 -42t-34.5 -47t-37.5 -46.5zM268 966l52 -64h-191l-44 -8l-15 31h156zM661 299l51 -64h-168v-209q-20 -23 -42 -27v236h-101
l-47 -14l-17 36h165v126h-61v-22q-12 -18 -44 -32v442l53 -37h149l24 36l46 -48l-22 -29v-327q-8 -11 -17.5 -19.5t-26.5 -13.5v50h-59v-126h81zM649 71q20 27 41 65.5t52 95.5q8 19 18 40t17 41q-11 75 -17 155.5t-8 179.5l-22 -7l-27 -17l-24 27l73 18q-3 30 -3 58v56v69
v77.5t-1 70.5l61 -29l-15 -48v-246l66 17l28 47l54 -47l-148 -38q0 -67 3 -134.5t11 -140.5q34 92 51 145.5t20 84.5l52 -47l-24 -32q-14 -48 -36 -100t-47 -118q14 -60 31 -114.5t49 -99.5h1q6 0 12.5 14t12 34t10 41t7.5 36l11 -3q-6 -32 -12 -67.5t-6 -62.5q0 -21 5 -34
q10 -15 13.5 -25t3.5 -16q0 -13 -10 -13q-1 0 -1.5 0.5t-1.5 0.5q-36 13 -63.5 45.5t-49.5 83.5q-11 24 -22 56t-19 64q-32 -64 -66.5 -111t-71.5 -82zM544 567h59v143h-59v-143zM544 407h59v137h-59v-137zM441 567h61v143h-50l-11 -40v-103zM441 407h61v137h-61v-137z
M552 784q12 44 20.5 75.5t15 54.5t10.5 40t7 32l60 -56q-8 -5 -17.5 -13.5t-21 -25t-26 -43t-32.5 -66.5zM399 976l32 -32t29 -32.5t22 -33.5t11 -35v-3q-2 -8 -5 -17t-7 -17t-8.5 -13.5t-10.5 -5.5q-5 0 -10.5 8.5t-9.5 30.5q-5 29 -16.5 66.5t-31.5 75.5zM830 939
q43 -36 59 -61.5t16 -49.5q0 -22 -6.5 -35t-14.5 -15q-1 0 -1 -0.5t-1 -0.5q-12 0 -21 43q-6 50 -34 112z" />
  </g>

</svg>
