<?xml version="1.0" standalone="no"?>
<!DOCTYPE svg PUBLIC "-//W3C//DTD SVG 1.1//EN" "http://www.w3.org/Graphics/SVG/1.1/DTD/svg11.dtd" >
<svg xmlns="http://www.w3.org/2000/svg" xmlns:xlink="http://www.w3.org/1999/xlink" version="1.1" viewBox="0 -205 1024 1024">
  <g transform="matrix(1 0 0 -1 0 819)">
   <path fill="currentColor"
d="M377 783q7 -5 7 -9q0 -3 -7 -5q-22 -4 -29 -10t-24 -42t-43 -83q-18 -33 -47 -78v-48q26 -10 45 -21l22 31q41 60 41 72t-8 23l9 7l60 -41q6 -5 6 -8t-5 -4q-18 1 -31 -7q-35 -43 -76 -83q2 -1 5 -3q7 -4 16 -11q37 -27 50 -64q10 -37 -16 -43q-16 -1 -24 21
q-8 24 -31 54q-19 25 -63 56v-317l4 -95q3 -38 -49 -46q5 39 7 164v310q-52 -63 -165 -134l-8 12q104 84 156 162q2 4 7 11q7 9 10 14v41q-4 28 -20 41l15 11l35 -45q3 5 7 13q10 17 22 40q24 48 49 107h-192q-25 1 -36 -14l-31 34h253l31 37zM488 423h373v78h-351
q-18 2 -38 -14l-35 30h418l27 27l39 -33q7 -6 6 -10t-10 -6l-18 -10v-136l4 -31q-1 -30 -42 -31v26h-338q-27 1 -45 -13l-34 29h417v80h-294q-27 1 -45 -13zM409 599h260v94h-143q-27 1 -45 -13l-30 29h394l24 28l50 -34q8 -5 7 -8q-2 -2 -13 -2h-206v-94h190l20 26l50 -32
q8 -5 7 -8q-2 -2 -13 -2h-477q-27 1 -45 -13zM587 232q9 -6 1 -13q-17 -2 -29 -17v-68q-2 -56 49 -56q27 -2 105 -2q40 0 76 2q32 6 36 32q6 42 8 103h15l3 -61q2 -45 24 -60q-18 -29 -43 -38q-19 -8 -85 -9q-118 -3 -176 5q-49 18 -48 78v81q-3 23 -24 42l8 10zM869 985
l61 -46q9 -8 9 -13q0 -4 -9 -5q-25 11 -63 0q-127 -28 -225 -37q-97 -9 -227 -9v14l126 8q197 26 249 39q53 14 62 22q10 9 7 23zM856 245l6 12q101 -51 123 -96q27 -55 -6 -65q-16 -2 -24 28q-7 29 -32 59q-24 30 -67 62zM135 980l4 13q64 -22 88 -41q26 -18 36 -38
q24 -49 -11 -61q-17 -3 -23 20q-6 24 -26 50q-19 26 -68 57zM463 226q-13 -137 -73 -156q-29 -8 -34 11q-4 19 18 27q23 8 41 34q18 24 31 84h17zM853 891l56 -34q17 -10 7 -15q-28 1 -41 -13q-43 -54 -90 -98l-12 8l34 48q46 65 47 75q2 11 -9 22zM609 285l4 10
q87 -30 111 -77q21 -47 -13 -54q-16 0 -21 24q-5 23 -25 49t-56 48zM460 842l6 11q57 -19 80 -61q24 -55 -13 -62q-13 2 -15 21q-1 20 -12 42q-10 22 -46 49zM628 860l7 7q45 -24 64 -70q17 -55 -16 -59q-14 0 -16 25q-1 26 -10 48q-8 22 -29 49z" />
  </g>

</svg>
