<?xml version="1.0" standalone="no"?>
<!DOCTYPE svg PUBLIC "-//W3C//DTD SVG 1.1//EN" "http://www.w3.org/Graphics/SVG/1.1/DTD/svg11.dtd" >
<svg xmlns="http://www.w3.org/2000/svg" xmlns:xlink="http://www.w3.org/1999/xlink" version="1.1" viewBox="0 0 2048 2048">
  <g transform="matrix(1 0 0 -1 0 2048)">
   <path fill="currentColor"
d="M389 995v-616q0 -107 12 -219q3 -28 3 -54q0 -38 -49 -42q-62 -3 -62 42v913q-83 -92 -210 -168l-23 29q287 245 423 607h-218q-68 0 -149 -11l-39 87q121 -18 188 -18h218l61 69l80 -51q52 -34 45 -57q-7 -26 -88 -48q-61 -135 -192 -333v-76q24 -14 49 -30q9 15 27 50
q47 82 79 170l105 -55q39 -21 34 -40q-6 -23 -48 -23h-32q-27 -28 -87 -88q-27 -27 -40 -38q149 -103 149 -188q0 -56 -41 -64q-35 -6 -56 36q-4 8 -18 52q-15 48 -78 120q-23 27 -43 44zM249 1939q202 -137 189 -229q-7 -48 -50 -50q-38 -2 -49 51q-21 101 -110 204z
M1009 1452h190l64 74l72 -49q42 -29 43 -48t-67 -58q-79 -177 -132 -247q-86 -115 -225 -199q-59 -35 -227 -104l-16 40q250 106 412 329h-7q-23 -1 -60 35q-52 52 -136 91q-74 -83 -159 -141l-24 32q95 92 156 203q46 83 84 230l119 -44q28 -10 29 -28q1 -22 -29 -27
l-45 -7q-18 -39 -42 -82zM978 1403q-15 -23 -34 -48q20 -8 83 -27q122 -39 116 -107q35 66 76 183zM1324 1726q-10 17 -34 63q-31 59 -118 122l24 30q136 -56 174 -94q39 -38 34 -83q-2 -20 -18 -38h401l56 70l86 -66q33 -25 37 -42q5 -23 -37 -32l-53 -11q-17 -25 -50 -61
q-31 -34 -44 -47l-32 19l17 55l20 63h-902q-6 -90 -15 -122q-20 -62 -62 -78q-28 -11 -52 4q-15 9 -19 29q-5 28 29 63q41 42 63 119q10 32 14 85q3 24 6 47h40v-95h435zM1716 1471l56 59l68 -44q45 -30 41 -53q-3 -17 -35 -35q-33 -18 -41 -22q-40 -66 -185 -239
q36 -45 114 -97q112 -75 249 -106v-36q-107 -2 -132 -61q-339 168 -446 578l36 10q58 -141 145 -250q81 117 136 243h-95q-54 0 -113 -11l-30 76q65 -12 139 -12h93zM1389 600v-288q0 -13 4 -61q0 -11 4 -68q1 -27 3 -57q4 -51 -16 -63q-22 -13 -65 -10q-27 3 -27 48v499
h-283q-92 0 -178 -9l-14 -1l-40 88q94 -24 232 -24h707l88 88l121 -92q10 -8 13 -20q8 -30 -22 -30h-527zM1040 1180l7 -37q-56 -37 -211 -94l-15 -45q-6 -18 -19 -19q-16 -1 -38 54l-32 82q168 19 308 59zM1032 937q99 -23 198 -24h241l65 88l113 -88q11 -9 14 -19
q3 -11 -4.5 -20t-19.5 -9h-409q-81 0 -156 -8zM1008 534l93 -56q57 -34 46 -55q-6 -13 -37 -15l-52 -3q-129 -153 -301 -253l-21 33q171 139 272 349zM1527 524q351 -222 351 -313q0 -26 -16 -43q-16 -18 -38 -15q-30 4 -83 87q-72 112 -235 257z" />
  </g>

</svg>
