<?xml version="1.0" standalone="no"?>
<!DOCTYPE svg PUBLIC "-//W3C//DTD SVG 1.1//EN" "http://www.w3.org/Graphics/SVG/1.1/DTD/svg11.dtd" >
<svg xmlns="http://www.w3.org/2000/svg" xmlns:xlink="http://www.w3.org/1999/xlink" version="1.1" viewBox="0 -205 1024 1024">
  <g transform="matrix(1 0 0 -1 0 819)">
   <path fill="currentColor"
d="M737 612l72 -22q14 -5 6 -11q-16 -4 -27 -18v-23h96l24 30l52 -36q8 -5 7 -8q-2 -2 -13 -2h-166v-78h72l22 30l52 -34q8 -5 7 -8q-2 -2 -13 -2h-140v-80h124l22 26l48 -32q8 -5 7 -8q-2 -2 -13 -2h-303q26 -46 61 -90q3 -5 11 -13q3 -4 5 -6q5 3 15 10q11 6 42 27
q44 30 44 38q1 8 -4 15l12 8l52 -43q7 -5 7 -9q0 -3 -7 -5q-31 8 -86 -24q-10 -6 -16 -9q-8 -5 -28 -14l-18 -9q24 -25 50 -45q76 -56 125 -66q19 -3 55 -3v-17q-50 3 -66 -29q-142 59 -216 173q-41 62 -58 111h-45q-28 -41 -57 -73v-172q33 13 131 54q20 7 31 12l6 -8
q-68 -40 -100 -56q-48 -28 -62 -40t-28 -34l-46 44q19 8 32 25v141q-43 -37 -92 -66q-55 -30 -117 -54l-4 12q126 68 195 137q3 3 7 8l7 7q-5 14 -20 33l9 8l27 -23q17 20 35 45h-133q-27 1 -45 -13l-34 29h188v80h-63q-27 1 -45 -13l-34 27h142v78h-89q-27 1 -45 -13
l-30 29h164v41q2 16 -25 34l8 11l74 -26q14 -5 6 -11q-16 -4 -27 -18v-31h178v33q2 17 -23 30zM353 781q7 -5 7 -9q0 -3 -7 -5q-22 -4 -29 -10t-24 -42t-43 -83q-18 -33 -47 -78v-51q21 -9 37 -18l22 31q41 60 41 72t-8 23l9 7l60 -41q6 -5 6 -8t-5 -4q-18 1 -31 -7
q-35 -43 -76 -83q2 -1 5 -3q7 -4 16 -11q37 -27 50 -64q10 -37 -16 -43q-16 -1 -24 21q-8 24 -31 54q-17 23 -55 50v-311l4 -95q3 -38 -49 -46q5 39 7 164v310q-51 -63 -153 -130l-8 12q92 80 144 158q2 4 7 11q7 9 10 14v41q-4 28 -20 41l15 11l35 -45q3 5 7 13
q10 17 22 40q24 48 49 107h-180q-25 1 -36 -14l-31 34h241l31 37zM424 818l23 -29h147l15 23l32 -21q7 -6 5 -10q-1 -5 -11 -7l-8 -7v-68l6 -35q1 -32 -36 -31v18h-143q-1 -16 -6 -23q-5 -9 -31 -14q1 9 3 25q2 12 4 33v107q-3 19 -13 31zM714 818l23 -29h147l15 23l32 -21
q7 -6 5 -10q-1 -5 -11 -7l-8 -7v-68l6 -35q1 -32 -36 -31v18h-144q-1 -11 -5 -17q-5 -9 -31 -14q1 9 3 25q2 12 4 33v101q-3 19 -13 31zM744 665h143v110h-143v-110zM454 665h143v110h-143v-110zM752 430h-178v-80h178v80zM752 522h-178v-78h178v78zM344 870h566l24 34
l56 -40q8 -5 7 -8q-2 -2 -13 -2h-565q-27 1 -45 -13zM111 978l4 13q64 -22 88 -41q26 -18 36 -38q24 -49 -11 -61q-17 -3 -23 20q-6 24 -26 50q-19 26 -68 57zM560 992l4 11q122 -26 127 -94q0 -22 -18 -23t-22 19q-13 53 -91 87z" />
  </g>

</svg>
