<?xml version="1.0" standalone="no"?>
<!DOCTYPE svg PUBLIC "-//W3C//DTD SVG 1.1//EN" "http://www.w3.org/Graphics/SVG/1.1/DTD/svg11.dtd" >
<svg xmlns="http://www.w3.org/2000/svg" xmlns:xlink="http://www.w3.org/1999/xlink" version="1.1" viewBox="0 0 2048 2048">
  <g transform="matrix(1 0 0 -1 0 2048)">
   <path fill="currentColor"
d="M460 1496h-203q-67 0 -148 -10l-40 86q122 -18 188 -18h83q-13 13 -18 33q-13 63 -30 88q-13 19 -48 60q-48 -2 -91 -8l-39 86q126 -18 188 -18h190q-26 89 -85 158l20 20q141 -69 145 -129q1 -26 -20 -49h146l78 82l116 -86q21 -16 15 -34q-5 -19 -25 -19h-208l89 -29
q56 -19 53 -42t-57 -23l-42 -4l-63 -86h112l79 82l114 -82q21 -16 15 -37q-5 -21 -26 -21h-392v-532q0 -35 28 -46q26 -9 103 -9q17 0 102 -2q77 -2 104 23q22 19 34 83l16 75l35 -3l-2 -89q-1 -39 19 -60q5 -5 37 -23q17 -10 12 -31q-14 -59 -199 -67q-221 -10 -296 6
q-89 19 -89 118v557zM379 1554h210q45 92 64 184h-360q114 -70 114 -139q0 -21 -28 -45zM1499 1496v-551q0 -35 28 -46q25 -9 103 -9q17 0 102 -2q77 -2 104 22q21 20 34 84l15 75l35 -3l-2 -89q0 -39 20 -60q5 -5 37 -24q17 -9 12 -30q-15 -59 -199 -67q-221 -10 -297 6
q-89 19 -89 118v576h-198q-67 0 -149 -10l-39 86q121 -18 188 -18h83q-14 13 -18 33q-13 62 -30 88q-13 19 -49 60q-54 -1 -102 -8l-39 86q125 -18 188 -18h202q-26 90 -86 158l21 20q141 -68 144 -129q2 -26 -20 -49h176l78 82l117 -86q21 -16 15 -34q-6 -19 -26 -19h-237
l88 -29q56 -19 53 -42t-56 -23l-42 -4l-63 -86h142l78 82l114 -82q22 -16 16 -37q-5 -21 -26 -21h-426zM1326 1554h209q46 94 64 184h-360q114 -70 114 -139q0 -21 -27 -45zM217 1007v-11q1 -10 -15 -17q-18 -9 -38 -8q-38 2 -38 30v413l99 -39q78 45 128 83l70 -66
q20 -18 10 -32q-7 -10 -30 -6l-29 5l-157 -39v-95h82l54 53l61 -61q17 -16 17 -31q0 -17 -19 -17h-195v-105h85l57 55l61 -53q25 -22 23 -40q-3 -19 -29 -19h-197zM624 993l-34 81q106 -13 139 -13h54l1 109h-55l-37 -4q-45 -4 -64 -6l-39 86q99 -17 143 -17h51l1 115h-51
l-35 -4q-58 -4 -77 -7l-40 86q95 -14 152 -15l41 -2l53 57l72 -46q29 -18 34 -37q6 -22 -19 -35l-38 -18v-250l29 -25q15 -13 13 -26q-3 -18 -26 -18h-163q-1 0 -27 -3q-2 0 -27 -2q-14 -1 -51 -6zM596 415l-1 -200q201 33 456 104l13 -36q-140 -75 -452 -181q-6 -19 -8 -29
q-8 -35 -26 -35q-17 0 -31 26l-63 121l14 4v195q-183 -57 -441 -93l-8 38q433 100 768 283h-455q-118 0 -191 -8l-39 88q99 -23 230 -23h708q-40 69 -129 112l18 38q26 -7 40 -11q158 -43 161 -98q1 -21 -21 -40l552 -1l98 95l117 -100q21 -17 16 -33q-6 -19 -26 -19h-901
q-165 -112 -399 -197zM1681 450q-75 -16 -170 -38q-111 -26 -199 -47q142 -84 300 -124q134 -34 352 -54v-38q-62 -2 -92 -20q-28 -16 -48 -60q-312 81 -464 179q-154 99 -274 290l29 20q105 -117 158 -162q271 98 374 178l98 -63q46 -29 40 -51q-4 -18 -28 -19
q-12 -1 -30 2zM1152 1007v-11q1 -10 -15 -17q-18 -9 -38 -8q-38 2 -38 30l-1 417l98 -42q82 45 130 82l70 -66q20 -18 10 -32q-7 -10 -30 -6l-29 5l-157 -39v-95h82l54 53l61 -61q17 -16 17 -31q0 -17 -19 -17h-195v-105h91l57 55l61 -53q25 -22 22 -40q-3 -19 -28 -19h-203
zM1567 993l-35 81q107 -13 140 -13h54v109h-54l-37 -4q-46 -4 -64 -6l-39 86q98 -17 142 -17h52v115h-50l-35 -4q-58 -4 -78 -7l-39 86q95 -14 152 -15l40 -2l53 57l72 -46q30 -18 35 -37q5 -22 -19 -35l-38 -18v-250l28 -25q16 -13 14 -26q-3 -18 -27 -18h-162q-1 0 -28 -3
q-1 0 -27 -2q-13 -1 -50 -6z" />
  </g>

</svg>
