<?xml version="1.0" standalone="no"?>
<!DOCTYPE svg PUBLIC "-//W3C//DTD SVG 1.1//EN" "http://www.w3.org/Graphics/SVG/1.1/DTD/svg11.dtd" >
<svg xmlns="http://www.w3.org/2000/svg" xmlns:xlink="http://www.w3.org/1999/xlink" version="1.1" viewBox="0 0 2048 2048">
  <g transform="matrix(1 0 0 -1 0 2048)">
   <path fill="currentColor"
d="M440 1062h312l68 76l84 -54q40 -26 40 -49q0 -27 -78 -61q-136 -391 -311 -595q-148 -171 -412 -303l-22 43q294 186 443 416q-15 -2 -26 -1q-24 2 -50 57q-48 106 -151 180q-45 34 -69 56q-79 -77 -152 -129l-23 25q21 21 31 32q119 124 189 257q78 149 104 273l142 -54
q42 -16 36 -38q-6 -20 -38 -24l-64 -6q-31 -60 -53 -101zM406 1006q-60 -96 -114 -154q303 -132 303 -256q0 -3 -1 -13q101 175 181 423h-369zM119 1337l-38 88q96 -22 230 -22h184v341h-115q-105 0 -192 -6l-38 86q96 -22 230 -22h326l98 101l121 -106q21 -18 16 -34
q-6 -19 -26 -19h-325v-341h188l99 101l120 -107q21 -18 16 -33q-6 -19 -26 -19h-676q-117 0 -192 -8zM1624 772v-484q0 -51 35 -63q59 -18 142 -1q49 10 62 54q14 47 36 228l34 -6l-5 -184q-1 -39 15 -60q4 -5 36 -34q11 -10 13 -25q4 -28 -39 -46q-65 -26 -148 -26h-53h-55
q-95 0 -132 27q-39 31 -39 101v519h-115q-31 -186 -65 -272q-114 -282 -491 -453l-15 38q228 141 328 281q101 142 139 406h-108v-23q0 -45 -70 -40q-44 4 -42 50q1 17 4 45q11 102 11 210v722q0 116 -17 175l122 -88h513l68 77l84 -55q40 -26 40 -48q0 -27 -78 -61v-716
q0 -103 13 -219q3 -27 3 -54q0 -39 -49 -42q-62 -3 -62 44v23h-115zM1199 1508h540v257h-540v-257zM1199 1180h540v273h-540v-273zM1199 828h540v297h-540v-297z" />
  </g>

</svg>
