<?xml version="1.0" standalone="no"?>
<!DOCTYPE svg PUBLIC "-//W3C//DTD SVG 1.1//EN" "http://www.w3.org/Graphics/SVG/1.1/DTD/svg11.dtd" >
<svg xmlns="http://www.w3.org/2000/svg" xmlns:xlink="http://www.w3.org/1999/xlink" version="1.1" viewBox="0 0 2048 2048">
  <g transform="matrix(1 0 0 -1 0 2048)">
   <path fill="currentColor"
d="M1701 1816l61 72l72 -49q37 -26 41 -44q5 -20 -25 -37q-6 -4 -13 -7q-9 -4 -25 -14v-615q0 -82 6 -140q5 -43 4 -68q-2 -39 -56 -42q-52 -3 -52 32v30h-85v-430q0 -37 25 -50q17 -9 77 -9q51 0 68 10q21 12 27 63l23 180l41 -3l-1 -132q0 -57 20 -79q5 -5 40 -29
q11 -7 12 -23q6 -82 -249 -78q-179 3 -179 112v468h-123q-28 -194 -83 -302q-99 -199 -321 -296l-22 31q140 96 207 198q82 128 117 369h-77v-19q0 -45 -73 -39q-42 3 -38 52l3 55q9 129 9 142l1 758l122 -67h446zM1714 1758h-483v-228h483v228zM1231 992h483v213h-483v-213
zM1231 1263h483v209h-483v-209zM768 1813l61 71l72 -49q37 -25 41 -44q5 -20 -25 -37q-6 -4 -12 -7q-10 -4 -27 -14v-375q0 -48 6 -104q4 -27 4 -44q0 -41 -59 -49q-48 -6 -47 25v47h-463v-43q0 -27 -44 -31q-66 -5 -61 51l4 42q6 98 6 104v406q0 74 -14 138l125 -87h433z
M782 1756h-463v-210h463v210zM319 1288h463v204h-463v-204zM115 956l-39 86q123 -18 188 -18l547 -1l98 95l103 -91q23 -20 19 -42q-4 -19 -26 -19h-394v-275h158l95 90l99 -95q20 -18 16 -33q-5 -16 -29 -16l-339 -1l-1 -302q210 -79 399 -107q206 -31 622 -31
q166 0 320 14l5 -45q-102 -18 -107 -83q-570 -1 -862 47q-318 52 -521 195q-96 68 -181 182q-35 -150 -76 -234q-45 -91 -121 -195l-32 22q90 162 125 338q36 183 36 374q0 9 -1 36l118 -23q49 -10 57 -32q6 -21 -47 -40l-34 -12q-3 -75 -13 -166q87 -124 223 -187l-1 579
h-255q-69 0 -149 -10z" />
  </g>

</svg>
