<?xml version="1.0" standalone="no"?>
<!DOCTYPE svg PUBLIC "-//W3C//DTD SVG 1.1//EN" "http://www.w3.org/Graphics/SVG/1.1/DTD/svg11.dtd" >
<svg xmlns="http://www.w3.org/2000/svg" xmlns:xlink="http://www.w3.org/1999/xlink" version="1.1" viewBox="0 -205 1024 1024">
  <g transform="matrix(1 0 0 -1 0 819)">
   <path fill="currentColor"
d="M493 657v-484q2 -60 -11 -87t-69 -39q0 51 -90 63l2 16q76 -17 100 -15t24 48v185h-103v-62l2 -69q3 -37 -49 -45q5 38 7 123v53h-106q-7 -96 -40 -166q-42 -89 -104 -139l-8 14q42 56 73 127q32 72 37 210v276q0 12 -6 21q-37 -40 -85 -78l-8 10q78 86 113 144t63 122
q29 65 24 75q-4 11 -14 26l8 6l88 -37q2 -4 1 -6t-6 -2q-18 -1 -33 -21l-21 -39q-9 -17 -13 -25h115l29 28l56 -49q4 -7 2 -9q-1 -2 -8 0q-26 8 -71 -58l-6 -9q-10 -14 -56 -74h103l32 39l48 -41q9 -6 9 -11q0 -4 -9 -8zM943 388q1 -194 -30 -257q-16 -36 -44 -62t-94 -40
q1 47 -138 76l3 16q83 -20 147 -26q56 -2 79 48q23 49 28 113q5 66 3 148h-273l-29 -36l-53 39q20 11 31 34l26 212q-2 23 -16 42l11 9l39 -46h244v204h-249q-18 2 -38 -14l-35 34h306l37 39l47 -47q7 -6 6 -10t-10 -6l-20 -8v-126l6 -91q0 -31 -50 -33v38h-235l-29 -214
h268l33 40l57 -55q5 -9 -6 -11zM184 691h119q57 94 84 151h-129q-27 -49 -55 -91q-16 -22 -34 -45zM202 514v-116q0 -20 -1 -38h105v154h-104zM449 514h-103v-154h103v154zM306 671h-104v-141h104v141zM346 530h103v141h-103v-141z" />
  </g>

</svg>
