<?xml version="1.0" standalone="no"?>
<!DOCTYPE svg PUBLIC "-//W3C//DTD SVG 1.1//EN" "http://www.w3.org/Graphics/SVG/1.1/DTD/svg11.dtd" >
<svg xmlns="http://www.w3.org/2000/svg" xmlns:xlink="http://www.w3.org/1999/xlink" version="1.1" viewBox="0 0 2048 2048">
  <g transform="matrix(1 0 0 -1 0 2048)">
   <path fill="currentColor"
d="M1272 1601q160 -149 318 -243q184 -108 397 -153v-34q-44 -2 -61 -11q-25 -14 -52 -72q-386 169 -664 513h-312q-315 -393 -799 -558l-13 37q270 135 431 262q138 108 261 259h-400q-119 0 -191 -8l-39 88q99 -22 230 -22h432q72 116 129 275l143 -51q41 -15 36 -38
t-65 -29l-36 -4q-19 -34 -28 -51q-33 -61 -59 -102h748l103 120l154 -124q17 -14 13 -31q-6 -23 -34 -23h-642zM1070 1103h410l98 101l121 -107q20 -18 15 -34q-5 -18 -26 -18h-1114q-118 0 -192 -8l-38 88q97 -22 230 -22h460q-16 8 -24 35q-26 86 -149 197l23 31
q96 -52 145 -88q81 -60 81 -119q0 -38 -40 -56zM1375 708l80 80l114 -86q21 -15 16 -33q-6 -19 -26 -19h-858q-108 0 -192 -8l-38 88q96 -22 230 -22h674zM1371 890l80 81l114 -87q20 -15 15 -33q-6 -19 -26 -19h-861q-117 0 -192 -8l-38 89q95 -23 230 -23h678zM468 550
l109 -58h888l61 72l72 -49q37 -26 41 -44q5 -20 -24 -37q-7 -4 -13 -7q-9 -5 -26 -14l-2 -162l30 -19q29 -18 33 -40t-20 -22h-1053v-32q0 -21 -17 -31q-23 -13 -52 -8q-34 5 -36 36q-1 10 2 93q7 78 7 120v202zM564 230h916v204h-916v-204z" />
  </g>

</svg>
