<?xml version="1.0" standalone="no"?>
<!DOCTYPE svg PUBLIC "-//W3C//DTD SVG 1.1//EN" "http://www.w3.org/Graphics/SVG/1.1/DTD/svg11.dtd" >
<svg xmlns="http://www.w3.org/2000/svg" xmlns:xlink="http://www.w3.org/1999/xlink" version="1.1" viewBox="0 -205 1024 1024">
  <g transform="matrix(1 0 0 -1 0 819)">
   <path fill="currentColor"
d="M545 572l46 -39h286l39 39l50 -47q7 -6 5 -10q-1 -5 -11 -7l-18 -9v-279l5 -111q4 -28 -51 -36v83h-297v-63q3 -35 -53 -44q5 37 7 183v291q-3 22 -20 38zM599 176h297v337h-297v-337zM121 408l39 -46h198l31 35l48 -41q7 -6 6 -11q-1 -4 -10 -8l-18 -9v-183l4 -52
q8 -41 -50 -44v88h-199v-57q2 -37 -53 -46q5 39 7 103v217q-4 24 -18 42zM170 155h199v187h-199v-187zM890 957l73 -50q7 -5 6 -8q0 -4 -8 -5q-21 3 -33 -2t-116 -85q-103 -80 -297 -139l-8 14q185 79 279 155q95 76 96 86q2 10 -3 28zM44 785h382l24 34l58 -44q8 -5 7 -8
q-2 -2 -13 -2h-379q-27 1 -45 -13zM94 643h262l24 34l62 -44q8 -5 7 -8q-2 -2 -13 -2h-271q-19 1 -37 -13zM94 507h262l24 34l62 -44q8 -5 7 -8q-2 -2 -13 -2h-271q-19 1 -37 -13zM175 975l4 12q121 -50 125 -129q0 -33 -22 -37t-26 28q-11 77 -81 126z" />
  </g>

</svg>
