<?xml version="1.0" standalone="no"?>
<!DOCTYPE svg PUBLIC "-//W3C//DTD SVG 1.1//EN" "http://www.w3.org/Graphics/SVG/1.1/DTD/svg11.dtd" >
<svg xmlns="http://www.w3.org/2000/svg" xmlns:xlink="http://www.w3.org/1999/xlink" version="1.1" viewBox="0 -205 1024 1024">
  <g transform="matrix(1 0 0 -1 0 819)">
   <path fill="currentColor"
d="M968 512q7 -12 -2 -15q-19 4 -42 -13q-50 -129 -115 -222q2 -3 5 -11q4 -7 5 -11q46 -97 88 -125q19 -14 25 2q16 50 40 149l14 -6q-4 -27 -10 -70q-4 -27 -9 -65q-5 -41 4 -54q10 -16 4 -25q-5 -9 -23 -6q-24 2 -73 37q-27 17 -58 62q-24 31 -45 80q-15 -18 -30 -34
q-106 -110 -208 -142l-2 16q110 66 189 159q18 23 34 45q-24 69 -32 163q-7 79 -9 168v109h-200v-173q2 -44 0 -85h61l32 40l68 -50q8 -6 7 -8q-2 -3 -13 -2h-155q-4 -95 -23 -182q-28 -129 -131 -224l-10 14q68 95 96 199q29 106 24 292v190q-10 24 -25 39l17 13l41 -43
h211v229q-3 24 -22 41l7 9l91 -31q11 -9 4 -13q-20 -4 -39 -18v-217h138l32 40l68 -50q8 -6 7 -8q-2 -3 -13 -2h-232q1 -27 1 -45q2 -85 3 -150q3 -64 15 -135q5 -33 14 -63q33 51 56 103q44 99 43 114q0 15 -7 24l10 7zM89 413l38 -46h175l31 35l46 -41q7 -6 6 -11
q-1 -4 -10 -8l-18 -9v-173l4 -14q2 -47 -9 -56q-10 -9 -39 -12v64h-177v-57q2 -37 -51 -46q5 39 7 103v217q-4 24 -18 42zM136 160h177v187h-177v-187zM12 790h350l24 34l58 -44q8 -5 7 -8q-2 -2 -13 -2h-347q-27 1 -45 -13zM62 512h230l24 34l62 -44q8 -5 7 -8
q-2 -2 -13 -2h-239q-19 1 -37 -13zM62 648h230l24 34l62 -44q8 -5 7 -8q-2 -2 -13 -2h-239q-19 1 -37 -13zM131 980l4 12q121 -50 125 -129q0 -33 -22 -37t-26 28q-11 77 -81 126zM797 909l8 13q63 -34 84 -55t26 -41q12 -50 -23 -49q-20 1 -22 26t-16 47q-13 22 -57 59z
" />
  </g>

</svg>
