<?xml version="1.0" standalone="no"?>
<!DOCTYPE svg PUBLIC "-//W3C//DTD SVG 1.1//EN" "http://www.w3.org/Graphics/SVG/1.1/DTD/svg11.dtd" >
<svg xmlns="http://www.w3.org/2000/svg" xmlns:xlink="http://www.w3.org/1999/xlink" version="1.1" viewBox="0 0 2048 2048">
  <g transform="matrix(1 0 0 -1 0 2048)">
   <path fill="currentColor"
d="M965 1066l-39 88q96 -22 194 -22h48l57 285h-109q-114 0 -192 -8l-38 88q99 -23 230 -23h120l53 266h-89q-117 0 -192 -8l-38 88q96 -23 230 -23h428l68 77l84 -54q40 -26 40 -49q0 -28 -78 -61l-37 -236h43l95 91l113 -91q21 -16 18 -37q-3 -20 -37 -20h-242l-45 -285
h31l90 100l116 -100q25 -21 19 -39.5t-37 -18.5h-228v0h-97v0h-424q-80 0 -155 -8zM1334 1474h269l40 266h-256zM1323 1417l-57 -285h286l43 285h-272zM1203 512h-139l-123 -4q-35 0 -69 -5l-39 89q95 -23 231 -23h150l50 253h-100q-117 0 -192 -8l-38 88q95 -23 230 -23
h446l68 77l84 -54q40 -26 40 -49q0 -27 -78 -61l-34 -223h68l102 94l106 -94q22 -20 17 -37q-6 -20 -36 -20h-266l-44 -287l50 -1l103 110l124 -109q22 -19 17 -37q-5 -21 -35 -21h-831q-89 0 -161 -8l-39 88q100 -22 200 -22h81zM1301 512l-56 -287h295l41 287h-280z
M1312 569h277l36 253h-263zM472 1618h172l80 81l114 -86q21 -16 16 -33q-6 -19 -26 -19h-604q-69 0 -149 -10l-39 86q126 -19 188 -19h202q-21 10 -28 67q-12 92 -118 236l31 24q86 -77 119 -112q80 -85 80 -150q0 -46 -38 -65zM539 1318l78 81l116 -86q21 -16 15 -34
q-5 -18 -26 -18h-410q-69 0 -149 -11l-39 86q125 -18 188 -18h227zM155 762l119 -73h329l61 71l72 -49q37 -25 42 -44q5 -20 -25 -37q-7 -4 -13 -7q-9 -4 -27 -14v-346l33 -23q27 -19 28 -34q3 -22 -19 -22h-495v-36q0 -45 -69 -39q-42 3 -39 52l3 55l4 63q7 83 7 93v250
q0 15 -6 76q-2 21 -5 64zM260 240h357v391h-357v-391zM539 1018l78 81l116 -86q21 -16 15 -34q-5 -18 -26 -18h-387q-73 0 -149 -9l-39 84q124 -18 188 -18h204z" />
  </g>

</svg>
