<?xml version="1.0" standalone="no"?>
<!DOCTYPE svg PUBLIC "-//W3C//DTD SVG 1.1//EN" "http://www.w3.org/Graphics/SVG/1.1/DTD/svg11.dtd" >
<svg xmlns="http://www.w3.org/2000/svg" xmlns:xlink="http://www.w3.org/1999/xlink" version="1.1" viewBox="0 -204 1024 1024">
  <g transform="matrix(1 0 0 -1 0 820)">
   <path fill="currentColor"
d="M539 949q48 -17 82 -33q6 -5 6 -11q0 -10 -19 -14t-28 -4q-14 -31 -28 -60h326l36 33q35 -22 55 -39q8 -10 8 -15q0 -12 -39 -26q-7 -115 -20 -193q-19 -82 -33 -121q-19 -32 -37 -49q-22 -18 -45 -31q-23 -10 -35 -10q0 18 -5 27q-7 13 -72 44l5 22q61 -25 80 -25
q18 0 31 5q10 3 19 16q13 15 26 52q12 34 21 103q13 68 18 178h-81q-23 -80 -41 -132q-16 -41 -45 -92q-22 -36 -47 -63q-24 -29 -51 -54q-32 -25 -85 -60l-18 16q43 29 69 52q28 28 49 57q23 27 43 61q21 37 41 89q17 48 33 126h-77q-11 -40 -26 -70q-15 -34 -38 -72
q-20 -37 -51 -74q-28 -32 -58 -61q-33 -28 -83 -61l-13 22q45 31 76 63q32 33 62 76q31 47 50 95q16 42 28 82h-90q-1 -3 -3 -6q-24 -44 -51 -78q-27 -32 -67 -69l-18 11q33 41 58 78q17 33 36 70q17 39 29 73q12 33 17 72zM449 313l15 -3q2 -26 2 -48q0 -34 -5 -67
q-5 -30 -16 -50q-7 -17 -18 -30q-9 -11 -19 -14q-10 -4 -17 -4q-27 0 -27 19q0 8 12 23q30 32 43 53q12 23 20 50q7 27 10 71zM511 360q53 -7 92 -17q11 -5 11 -15q1 -9 -13 -14q-18 -9 -34 -11v-172q0 -8 4 -15q3 -7 13 -11q7 -3 22 -6q28 -4 75 -4h13q51 0 75 2q17 3 32 5
q15 3 19 9q8 6 10 19q12 29 22 102l19 -8q-5 -29 -7 -71q0 -29 8 -35q31 -10 31 -29q0 -8 -5 -14q-4 -6 -20 -12q-21 -7 -54 -11q-37 -3 -130 -3h-13q-65 0 -93 7q-27 3 -42 11q-15 10 -21 23q-5 14 -5 24v189q0 28 -9 57zM656 380q41 -28 65 -59q20 -23 31 -47q7 -17 7 -34
q0 -32 -24 -32q-6 0 -10 6q-5 5 -10 22q-14 43 -29 70t-43 58zM856 336q49 -35 77 -72q24 -30 38 -60q8 -19 8 -40q0 -31 -24 -31q-7 0 -13 6q-5 6 -11 27q-17 52 -35 83q-19 34 -52 71zM32 775q44 -13 118 -13h37q-3 10 -3 17q-5 58 -14 89q-9 32 -31 75l15 10
q32 -37 52 -74q15 -23 26 -53q8 -21 8 -38q0 -12 -8 -26h60l41 45q34 -24 63 -49q7 -4 7 -10q0 -13 -14 -13h-239q-72 -2 -99 -7zM72 639q44 -13 116 -13h56l38 41q30 -23 59 -45q6 -5 6 -9q0 -14 -12 -14h-147q-70 -2 -97 -8zM72 490q44 -11 116 -11h48l37 41
q31 -25 60 -45q7 -5 7 -11q0 -14 -13 -14h-139q-70 -2 -97 -6zM74 364l62 -30h145l29 29q51 -36 51 -49q0 -10 -29 -26v-174q8 -5 14 -10q5 -3 5 -7q0 -15 -9 -15h-218v-27q0 -10 -12 -17q-16 -6 -26 -6q-12 0 -12 15q0 4 1 14q1 21 1 42v192q0 51 -2 69zM124 110h156l4 4
v189l-1 4h-159v-197z" />
  </g>

</svg>
