<?xml version="1.0" standalone="no"?>
<!DOCTYPE svg PUBLIC "-//W3C//DTD SVG 1.1//EN" "http://www.w3.org/Graphics/SVG/1.1/DTD/svg11.dtd" >
<svg xmlns="http://www.w3.org/2000/svg" xmlns:xlink="http://www.w3.org/1999/xlink" version="1.1" viewBox="0 -205 1024 1024">
  <g transform="matrix(1 0 0 -1 0 819)">
   <path fill="currentColor"
d="M990 76l-1 -18q-28 0 -40 -5t-29 -24q-99 43 -192 135q-87 -85 -256 -143l-6 16q147 70 234 157q-93 108 -133 222q-38 -244 -221 -377l-8 16q210 189 208 595h-59q-17 -2 -29 -11l-31 31h351l31 38l52 -46q8 -8 8 -11q0 -2 -22 -11q-17 -8 -23 -11l-61 -145h87l32 34
l42 -48q8 -6 8 -10t-18 -11q-13 -6 -18 -9q-49 -161 -136 -245q120 -115 228 -119h2zM662 313q35 -50 68 -86q76 89 126 237h-92l-28 -30l-42 38q27 17 31 30l61 148h-198q-1 -79 -12 -169q34 -96 86 -168zM87 419l36 -46h157l29 35l46 -41q6 -4 6 -9t-10 -10l-18 -9v-161
l4 -58q3 -33 -46 -36v64h-159v-57q2 -37 -49 -46q6 52 7 103v217q-4 24 -18 42zM132 166h159v187h-159v-187zM829 966q3 -3 3 -5l-5 -2q-21 -8 -30 -16q-13 -51 -25 -78h138l26 34l56 -42q7 -4 7 -8t-13 -4h-149q57 -40 59 -90q0 -27 -20 -32h-5q-10 0 -19 33q-15 56 -39 89
h-50q-44 -92 -108 -148l-10 8q90 128 114 260q0 10 -13 29l11 5zM577 962q3 -3 3 -5q0 -3 -6 -3q-29 -6 -50 -71q-5 -17 -8 -24h102l26 34l56 -42q7 -4 7 -8t-13 -4h-119q50 -39 53 -86q0 -27 -20 -32h-5q-10 0 -17 32q-14 55 -38 86h-42q-28 -73 -103 -142l-10 8
q80 119 113 257v4q-1 9 -12 24l11 5zM16 796h314l24 34l58 -44q7 -4 7 -7t-13 -3h-315q-22 0 -41 -13zM62 518h214l24 34l62 -44q7 -4 7 -7t-13 -3h-226q-15 0 -34 -13zM62 654h214l24 34l62 -44q7 -4 7 -7t-13 -3h-226q-15 0 -34 -13zM113 983l4 12q118 -51 124 -129v-4
q-1 -33 -26 -34q-16 0 -21 29q-13 79 -81 126z" />
  </g>

</svg>
