<?xml version="1.0" standalone="no"?>
<!DOCTYPE svg PUBLIC "-//W3C//DTD SVG 1.1//EN" "http://www.w3.org/Graphics/SVG/1.1/DTD/svg11.dtd" >
<svg xmlns="http://www.w3.org/2000/svg" xmlns:xlink="http://www.w3.org/1999/xlink" version="1.1" viewBox="0 -205 1024 1024">
  <g transform="matrix(1 0 0 -1 0 819)">
   <path fill="currentColor"
d="M91 399l36 -48h175l29 35l44 -39q7 -6 6 -11q-1 -4 -10 -8l-18 -9v-183l4 -52q8 -42 -44 -44v88h-179v-57q1 -36 -47 -46q5 39 7 103v217q-4 24 -18 42zM458 195h216v90q-10 0 -26 -1q-19 0 -27 -1q-62 -6 -77 -11q-15 -4 -27 -15l-32 48q26 2 44 14q33 26 76 85h-60
q-27 1 -45 -13l-34 29h382l18 26l54 -32q8 -5 7 -8q-2 -2 -13 -2h-257q-49 -55 -100 -99q21 0 75 1q122 3 205 4q-1 3 -5 8q-3 5 -5 7q-17 21 -47 43l6 13q101 -41 105 -108q0 -16 -17 -20q-16 -4 -24 23q-2 9 -5 18q-33 -2 -91 -5q-27 -1 -40 -2v-92h146l22 29l54 -35
q8 -5 7 -8q-2 -2 -13 -2h-216v-97h196l22 32l62 -40q8 -5 7 -8q-2 -2 -13 -2h-507q-27 1 -45 -13l-34 31h272v97h-137q-27 1 -45 -13zM496 722l31 -27h327l23 27l42 -29q7 -6 5 -10q-1 -5 -11 -7l-12 -11v-52l4 -23q-1 -29 -42 -31v20h-329q-2 -8 -7 -13q-7 -9 -36 -14
q1 10 4 28q2 20 3 28v77q-3 19 -11 29zM134 146h179v187h-179v-187zM661 996l78 -34q14 -5 6 -11q-16 -4 -27 -18v-69h166l20 34l62 -42q8 -5 7 -8q-2 -2 -13 -2h-242v-72h124l20 34l64 -40q8 -5 7 -8q-2 -2 -13 -2h-367q-27 1 -45 -13l-34 29h204v72h-173q-27 1 -45 -13
l-34 31h252v79q2 17 -25 42zM536 595h327v84h-327v-84zM457 563q4 -28 4 -50h474l23 25l45 -38q2 -5 -1 -7q-2 -2 -9 0q-24 -8 -46 -34q-11 -14 -19 -22l-13 8l20 50h-475q-1 -22 -9 -42q-24 -48 -54 -28q-12 12 1 25q36 34 44 113h15zM14 774h346l24 36l58 -44q8 -5 7 -8
q-2 -2 -13 -2h-343q-27 1 -45 -13zM68 496h222l24 34l62 -42q8 -5 7 -8q-2 -2 -13 -2h-231q-19 1 -37 -13zM68 632h222l24 34l62 -42q8 -5 7 -8q-2 -2 -13 -2h-231q-19 1 -37 -13zM117 961l4 12q118 -51 124 -129q1 -33 -20 -37t-25 28t-24 66q-20 35 -59 60z" />
  </g>

</svg>
