<?xml version="1.0" standalone="no"?>
<!DOCTYPE svg PUBLIC "-//W3C//DTD SVG 1.1//EN" "http://www.w3.org/Graphics/SVG/1.1/DTD/svg11.dtd" >
<svg xmlns="http://www.w3.org/2000/svg" xmlns:xlink="http://www.w3.org/1999/xlink" version="1.1" viewBox="0 0 2048 2048">
  <g transform="matrix(1 0 0 -1 0 2048)">
   <path fill="currentColor"
d="M1732 1638v118q0 88 -8 133l109 -24q83 -18 86 -43q3 -30 -50 -44l-41 -11v-94q0 -47 8 -97q3 -19 3 -25q0 -52 -69 -42q-38 6 -38 38v35h-737q-4 0 -11 -8q-9 -10 -45 -8q-40 3 -40 46v144q0 82 -7 133l109 -24q82 -18 85 -43q3 -30 -48 -44l-43 -11v-129h300v168
q0 90 -8 133l109 -24q82 -18 85 -44q4 -30 -49 -44l-41 -11v-178h341zM1014 1342h388q-17 10 -33 64q-10 33 -77 96l26 30q67 -37 96 -57q58 -42 54 -95q-3 -24 -28 -38h239l80 80l103 -76q23 -18 26 -35q6 -27 -24 -27h-420v-94h213l72 72l95 -68q22 -16 27 -34
q5 -26 -27 -26h-380v-102h220l72 72l91 -69q22 -17 29 -31q5 -10 -3 -20t-21 -10h-388v-104h281l81 80l101 -75q20 -15 27 -31q5 -12 -2 -21.5t-21 -9.5h-903l-1 -10q-1 -34 -41 -38q-67 -6 -61 49q2 17 4 42q3 51 4 61q3 39 3 49v278q-78 -57 -156 -113l-22 32
q256 228 293 399l102 -37q59 -22 64 -42q7 -27 -45 -31l-53 -4q-39 -57 -85 -106zM1348 870v104h-340v-104h340zM1348 1032v102h-340v-102h340zM1348 1190v94h-340v-94h340zM887 732l113 -78h167l68 76l84 -54q40 -26 40 -49q0 -27 -77 -61v-143h190v295l120 -64h152l68 76
l84 -54q40 -26 40 -49q0 -27 -78 -61l-1 -327q-1 -142 -155 -171q-11 71 -47 93q-33 21 -159 44l8 45q159 -23 193 -26q69 -6 69 57v319l-198 -1l-2 -227q0 -39 -60 -39q-34 0 -34 21v15h-190q-29 -9 -46 -11q-50 -5 -50 19v223h-198v-500q0 -30 -51 -33q-50 -3 -48 44
q1 5 3 34q1 16 3 112l2 76v273q-1 65 -10 126zM426 1653q-26 18 -33 49q-20 100 -109 204l20 24q201 -136 188 -229q-4 -31 -38 -48h140l80 81l114 -86q21 -16 15 -33q-5 -19 -25 -19h-507q-64 0 -149 -11l-39 86q126 -18 188 -18h155zM512 1366l80 81l114 -86
q21 -16 15 -33q-5 -19 -25 -19h-355q-67 0 -149 -11l-39 86q121 -18 188 -18h171zM519 1055l81 81l113 -86q21 -16 16 -34q-6 -18 -26 -18h-376q-68 0 -146 -11l-41 86q123 -18 187 -18h192zM565 738l61 72l72 -49q37 -26 42 -44q5 -20 -25 -37q-7 -4 -13 -7q-9 -4 -26 -14
v-397l25 -18q28 -19 27 -39t-20 -20h-421v-35q0 -26 -44 -30q-66 -5 -61 51l4 42q6 95 6 104v486l118 -65h255zM287 244h291v437h-291v-437z" />
  </g>

</svg>
