<?xml version="1.0" standalone="no"?>
<!DOCTYPE svg PUBLIC "-//W3C//DTD SVG 1.1//EN" "http://www.w3.org/Graphics/SVG/1.1/DTD/svg11.dtd" >
<svg xmlns="http://www.w3.org/2000/svg" xmlns:xlink="http://www.w3.org/1999/xlink" version="1.1" viewBox="0 -205 1024 1024">
  <g transform="matrix(1 0 0 -1 0 819)">
   <path fill="currentColor"
d="M199 410l37 -36h498l37 37l50 -45q7 -6 5 -10q-1 -5 -11 -7l-18 -9v-100l2 -46q4 -38 -46 -35v49h-507v-12q3 -36 -51 -44q5 38 7 99v110q-3 22 -17 38zM246 228h507v126h-507v-126zM867 846q-4 -92 -13 -124t-30 -49t-75 -29q-2 24 -18 33q-13 9 -66 17l4 16q5 -1 15 -2
q84 -13 104 -3q38 11 37 152h-218v-190q0 -58 13 -73q13 -14 58 -17q34 -1 53 -1q21 -1 40 0q65 -2 114 5q46 8 50 40q5 48 10 128h15l2 -78q3 -53 31 -68q-19 -28 -32 -38q-12 -9 -41 -17q-29 -7 -137 -6q-68 -1 -155 4q-71 7 -65 119v190q-3 32 -25 64l11 8l44 -50h220
l30 37l44 -36q9 -6 9 -11q0 -4 -9 -8zM527 844q-37 -8 -46 -36q-6 -19 -35 -71q-110 -184 -383 -245l-2 16q69 26 113 45q45 21 89 51t89 77q46 47 97 167h-205q-26 -36 -53 -67q27 -6 54 -17q75 -31 68 -79q-1 -22 -18 -22q-16 0 -26 25t-36 44q-21 15 -57 33
q-52 -54 -107 -87l-8 11q98 89 148 173q50 85 49 95t-9 25l10 9l66 -32q17 -10 7 -15q-16 -3 -32 -10q-21 -34 -42 -66h192l29 30l53 -41q6 -14 -5 -13zM22 64h542l25 31q48 63 51 75q3 11 -5 26l8 6l68 -35q17 -10 7 -15q-22 2 -45 -9q-48 -48 -81 -79h294l32 40l68 -50
q8 -5 7 -8q-2 -2 -13 -2h-879q-27 1 -45 -13zM78 475h754l32 40l68 -50q8 -5 7 -8q-2 -2 -13 -2h-773q-23 1 -41 -13zM291 189l5 11q104 -33 122 -73q19 -46 -16 -54q-15 0 -22 24t-23 43q-16 17 -66 49z" />
  </g>

</svg>
