<?xml version="1.0" standalone="no"?>
<!DOCTYPE svg PUBLIC "-//W3C//DTD SVG 1.1//EN" "http://www.w3.org/Graphics/SVG/1.1/DTD/svg11.dtd" >
<svg xmlns="http://www.w3.org/2000/svg" xmlns:xlink="http://www.w3.org/1999/xlink" version="1.1" viewBox="0 0 2048 2048">
  <g transform="matrix(1 0 0 -1 0 2048)">
   <path fill="currentColor"
d="M573 1368q-33 13 -42 34q-2 5 -14 48q-30 105 -141 198q-125 -52 -259 -85l-9 33q170 60 310 156q97 66 204 192l99 -63q39 -25 31 -43q-8 -21 -46 -17l-45 5q-131 -105 -246 -160q208 -134 208 -233q0 -7 -1 -16q71 80 127 181l94 -48q44 -23 39 -46t-50 -23h-37
q-123 -150 -268 -241q231 -303 231 -681q0 -284 -79 -397q-58 -83 -200 -104q0 70 -44 94q-48 27 -124 44l10 38q189 -45 227 -40q75 12 99 139q19 96 19 226q0 101 -13 181q-226 -300 -550 -437l-20 35q188 115 315 239q84 82 140 161q14 19 89 138q-18 71 -42 136
q-198 -228 -496 -363l-19 32q310 189 471 436q-31 62 -52 101q-156 -85 -396 -156l-10 40q274 96 472 252zM183 1538q201 -137 188 -230q-7 -48 -50 -50q-38 -1 -49 52q-21 100 -109 204zM1725 200l108 113l131 -113q27 -24 22 -40q-6 -19 -26 -19h-950q-117 0 -192 -8
l-38 89q92 -22 230 -22h715zM1150 1278l108 -53h226l62 71l72 -49q36 -25 41 -44q5 -20 -25 -37q-6 -4 -13 -7q-9 -4 -27 -14l3 -207l22 -18q9 -8 12 -18q7 -21 -12 -21h-371v-185q0 -70 40 -82t163 -12q81 0 152 17q29 7 45 8q48 2 57 -50q8 -51 -83 -59q-92 -9 -171 -9
q-172 0 -238 26q-37 14 -51 45q-12 24 -12 84v614zM1248 935h252v231h-252v-231zM1026 1448v-1019q0 -46 -69 -40q-42 4 -39 53q11 192 11 196v734q0 151 -18 218l122 -88h695l68 76l84 -55q40 -26 40 -48q0 -28 -78 -62v-762q-1 -80 6 -140q5 -43 4 -68q-2 -39 -56 -42
q-52 -3 -52 32v1015h-718zM1679 1828l109 113l131 -113q27 -24 21 -40q-5 -18 -25 -18h-813q-117 0 -192 -8l-39 88q92 -22 231 -22h577z" />
  </g>

</svg>
