<?xml version="1.0" standalone="no"?>
<!DOCTYPE svg PUBLIC "-//W3C//DTD SVG 1.1//EN" "http://www.w3.org/Graphics/SVG/1.1/DTD/svg11.dtd" >
<svg xmlns="http://www.w3.org/2000/svg" xmlns:xlink="http://www.w3.org/1999/xlink" version="1.1" viewBox="0 0 2048 2048">
  <g transform="matrix(1 0 0 -1 0 2048)">
   <path fill="currentColor"
d="M588 1349q-33 13 -42 34q-2 5 -14 48q-30 104 -141 197q-118 -50 -259 -84l-9 33q171 61 310 156q97 66 204 192l99 -63q39 -25 31 -43q-8 -21 -46 -17l-45 5q-133 -107 -246 -160q208 -134 208 -234q0 -6 -1 -15q74 82 132 189l94 -49q45 -22 40 -46q-5 -22 -50 -22h-37
q-128 -159 -274 -249q95 -118 156 -272q78 -199 78 -481q0 -248 -108 -344q-61 -54 -170 -70q0 70 -44 94q-49 27 -124 44l10 38q189 -45 227 -40q76 12 100 139q13 69 13 260q0 51 -12 132q-226 -300 -550 -437l-20 35q159 87 315 239q84 82 140 160q16 23 89 139
q-18 71 -42 136q-198 -228 -496 -363l-19 32q310 188 471 437q-31 61 -52 100q-156 -86 -396 -157l-10 41q277 97 472 252zM198 1518q202 -136 188 -229q-7 -48 -50 -50q-38 -1 -49 52q-21 100 -109 203zM1701 1791l68 76l78 -52q46 -30 46 -51q0 -27 -79 -61v-419
q0 -115 11 -221q4 -29 4 -54q0 -43 -49 -43q-61 0 -61 35v25h-644v-19q0 -12 -18 -26q-16 -11 -51 -8q-44 3 -42 49q1 18 4 45q12 113 12 210v411q0 41 -11 176l117 -73h615zM1430 1734v-295h289v295h-289zM1075 1439h261v295h-261v-295zM1075 1084h261v300h-261v-300z
M1430 1084h289v300h-289v-300zM1568 734h-344q-8 -172 -17 -230q-32 -209 -167 -334q-55 -51 -186 -123l-18 35q168 115 230 266q52 126 59 387l-27 -1q-136 -2 -192 -8l-38 89q95 -23 230 -23h641l108 114l131 -112q27 -23 21 -41q-5 -19 -25 -19h-310v-373q0 -106 12 -219
q3 -28 3 -53q0 -39 -49 -42q-62 -5 -62 42v645z" />
  </g>

</svg>
