<?xml version="1.0" standalone="no"?>
<!DOCTYPE svg PUBLIC "-//W3C//DTD SVG 1.1//EN" "http://www.w3.org/Graphics/SVG/1.1/DTD/svg11.dtd" >
<svg xmlns="http://www.w3.org/2000/svg" xmlns:xlink="http://www.w3.org/1999/xlink" version="1.1" viewBox="0 0 2048 2048">
  <g transform="matrix(1 0 0 -1 0 2048)">
   <path fill="currentColor"
d="M645 1633h-242q-67 0 -149 -11l-39 86q122 -19 188 -19h42h200v100q0 116 -8 159l111 -24q82 -18 85 -43q4 -30 -49 -44l-41 -11v-137h548v100q0 114 -8 159l113 -24q82 -17 86 -43q3 -30 -50 -44l-40 -11l-3 -137h203l98 100l121 -106q21 -18 16 -32q-6 -18 -26 -18
h-412v-259h346l99 102l120 -107q20 -18 16 -33q-5 -18 -26 -18h-1696q-75 0 -149 -11l-39 86q123 -19 188 -19h42h355v259zM743 1374h548v259h-548v-259zM1239 348q217 -33 388 -88q197 -64 201 -149q3 -41 -29 -51q-31 -11 -61 10q-17 11 -53 40q-158 128 -452 201z
M732 412l72 -43q47 -27 47 -51q0 -26 -40 -23l-68 7q-149 -90 -263 -135q-148 -59 -337 -104l-11 38q375 117 560 311h-172v-13q0 -60 -69 -54q-45 4 -42 50q0 17 4 45q11 100 11 210v345l-4 105q-3 94 -7 134l113 -71h961l68 77l83 -54q40 -26 40 -49q0 -26 -78 -61v-409
q0 -109 12 -219q3 -29 3 -54q0 -39 -49 -42q-64 -3 -64 43v17h-770zM520 473h982v167h-982v-167zM520 701h982v168h-982v-168zM520 928h982v175h-982v-175z" />
  </g>

</svg>
