<?xml version="1.0" standalone="no"?>
<!DOCTYPE svg PUBLIC "-//W3C//DTD SVG 1.1//EN" "http://www.w3.org/Graphics/SVG/1.1/DTD/svg11.dtd" >
<svg xmlns="http://www.w3.org/2000/svg" xmlns:xlink="http://www.w3.org/1999/xlink" version="1.1" viewBox="0 0 2048 2048">
  <g transform="matrix(1 0 0 -1 0 2048)">
   <path fill="currentColor"
d="M401 1132q-104 -42 -289 -91l-10 42q290 104 472 221q-37 7 -58 64q-42 112 -154 206q-107 -85 -246 -154l-18 38q175 121 277 247q82 102 143 264l116 -30q54 -14 58 -32q5 -28 -58 -40l-41 -7l-57 -93h395l61 72l73 -49q37 -26 41 -44q6 -25 -68 -58
q-110 -197 -236 -314q-147 -136 -367 -229l74 -56h1028l68 76l84 -53q40 -26 40 -48q0 -26 -78 -60v-353q0 -109 12 -214q3 -28 3 -53q0 -39 -49 -41q-65 -4 -65 42v16h-781l83 -48q39 -23 29 -43q-9 -20 -55 -17l-51 4q-134 -85 -264 -141q-132 -57 -335 -107l-14 36
q178 57 312 132q166 93 246 184h-220v-12q0 -58 -69 -53q-44 4 -42 49q1 17 4 44q12 105 12 205v354q0 58 -6 144zM622 1338q206 160 311 372h-438q-49 -56 -98 -106q242 -147 230 -248q-1 -5 -5 -18zM502 885h1050v146h-1050v-146zM502 677h1050v150h-1050v-150zM502 461
h1050v156h-1050v-156zM1360 1679q518 -143 518 -279q0 -65 -53 -58q-24 3 -66 45q-145 143 -399 249v-271q0 -4 4 -72l3 -53q3 -48 4 -53q2 -17 2 -24q0 -49 -66 -49q-42 0 -42 29v644q0 118 -7 159l109 -24q82 -18 85 -43q4 -28 -49 -44l-43 -13v-143zM1246 356
q612 -90 624 -238q3 -46 -43 -51q-35 -4 -108 52q-161 124 -479 200z" />
  </g>

</svg>
