<?xml version="1.0" standalone="no"?>
<!DOCTYPE svg PUBLIC "-//W3C//DTD SVG 1.1//EN" "http://www.w3.org/Graphics/SVG/1.1/DTD/svg11.dtd" >
<svg xmlns="http://www.w3.org/2000/svg" xmlns:xlink="http://www.w3.org/1999/xlink" version="1.1" viewBox="0 0 2048 2048">
  <g transform="matrix(1 0 0 -1 0 2048)">
   <path fill="currentColor"
d="M1238 1736q-71 -5 -77 -6l-40 86q124 -18 188 -18h410l71 73l91 -63q44 -31 41 -55q-3 -23 -53 -38l-42 -12q-140 -264 -247 -390q186 -150 420 -194l-3 -36q-89 -4 -107 -66q-228 92 -371 230q-146 -139 -431 -263l-16 36q250 136 390 288q-137 158 -224 428zM1282 1739
q88 -222 232 -368q127 168 215 369h-420zM1536 925l68 77l84 -54q40 -26 40 -49q0 -26 -78 -61v-239q0 -107 12 -219q3 -28 3 -54q0 -39 -49 -42q-31 -2 -47 11q-18 14 -18 25v20h-774l84 -49q38 -23 28 -44q-9 -20 -53 -17l-53 3q-18 -8 -91 -45q-193 -95 -530 -163l-14 36
q400 115 580 279h-200v-10q0 -50 -69 -45q-45 4 -42 50q0 16 4 45q11 102 11 209v396l102 -60h1002zM528 401h1023v110h-1023v-110zM528 572h1023v115h-1023v-115zM528 746h1023v119h-1023v-119zM1246 301q592 -77 611 -207q7 -45 -31 -59q-36 -14 -118 46
q-163 118 -469 182zM579 1619v103h-282q-68 0 -149 -11l-39 87q114 -19 188 -19h282v19q0 115 -8 159l110 -24q81 -18 84 -43q4 -29 -49 -44l-40 -11v-56h201l80 81l114 -86q21 -16 15 -33q-5 -19 -26 -19h-384v-103h221l68 76l83 -54q37 -22 40 -37q7 -33 -28 -47
q-1 0 -27 -8q-10 -3 -21 -7v-44q0 -24 4 -84q2 -38 4 -80q2 -40 4 -59q5 -53 -64 -58q-43 -4 -43 24v13h-241l5 -109h251l80 81l116 -86q21 -16 15 -33q-6 -19 -26 -19h-436q2 -36 5 -61q4 -28 4 -53q0 -39 -49 -42q-62 -4 -62 42v114h-271q-69 0 -148 -11l-39 86
q125 -18 187 -18h271v109h-232v-13q0 -38 -52 -38q-59 0 -55 60l4 57l3 80l4 76v57q0 65 -4 156l110 -70h222zM579 1562h-232v-101h232v101zM676 1562v-101h241v101h-241zM917 1405h-241v-95h241v95zM347 1405v-95h232v95h-232z" />
  </g>

</svg>
