<?xml version="1.0" standalone="no"?>
<!DOCTYPE svg PUBLIC "-//W3C//DTD SVG 1.1//EN" "http://www.w3.org/Graphics/SVG/1.1/DTD/svg11.dtd" >
<svg xmlns="http://www.w3.org/2000/svg" xmlns:xlink="http://www.w3.org/1999/xlink" version="1.1" viewBox="0 -205 1024 1024">
  <g transform="matrix(1 0 0 -1 0 819)">
   <path fill="currentColor"
d="M239 421l24 -21h492l15 23l44 -29q7 -6 5 -10q-1 -5 -11 -7l-8 -9v-143l5 -47q0 -15 -9 -22q-6 -5 -36 -10v27h-489q-1 -18 -11 -25q-10 -9 -36 -14q0 3 1 10q4 25 6 54v190q-1 18 -4 22zM128 879l33 -32h166v116q2 16 -21 34l8 11l74 -26q14 -5 6 -11q-16 -4 -27 -18
v-29h112l22 34l62 -36q8 -6 7 -10q-2 -3 -13 -4h-190v-61h179l19 21l47 -36q2 -5 -1 -7q-2 -2 -9 0q-29 -5 -63 -50l-13 4l20 50h-370v-96q-4 -156 -40 -223t-94 -109l-8 14q40 48 70 107t32 223v88q-10 16 -22 32zM257 643l39 -38h140l17 20l43 -28q7 -6 6 -10
q-1 -5 -10 -7l-16 -10v-14q1 -47 11 -60q9 -14 145 -14q47 1 90 1h82q11 0 30 1q83 -2 95 30q8 17 9 40q3 23 4 83h16l2 -54q0 -48 22 -60q-13 -61 -66 -63q-28 -4 -72 -6h-81q-40 0 -83 -1q-120 0 -163 2q-43 3 -59 20q-18 15 -18 69v43h-138q2 -80 -46 -127
q-52 -51 -140 -73l-2 14q64 26 110 71t40 123q-4 21 -20 35zM271 328h489v54h-489v-54zM760 312h-489v-54h489v54zM760 242h-489v-51h489v51zM388 802q4 -3 3 -5q0 -2 -4 -4q-7 -2 -25 -17v-28l65 6l18 29l44 -25q13 -5 11 -9q-2 -3 -18 -4l-120 -12v-24q-5 -37 48 -38
q27 -1 38 -1h23q45 0 48 52q0 16 1 41h14q0 -6 1 -17q0 -56 25 -59q-18 -47 -75 -42q-17 -1 -27 -2h-32q-111 -15 -100 66v20l-67 -6q-29 -7 -35 -22l-37 30l139 13v41q-1 17 -20 22l6 10zM879 743l61 -48q7 -5 6 -8q0 -4 -8 -5q-19 5 -43 -2q-144 -117 -321 -146l-2 12
q176 57 302 170q2 4 -4 20zM354 155l64 -47q7 -5 7 -9q0 -3 -7 -5q-26 5 -50 -7q-24 -14 -103 -30q-78 -18 -200 -31l-2 16q109 22 199 50q90 27 89 38q0 10 -7 19zM606 131l4 17q120 -15 179 -32t86 -30q23 -12 31 -33q7 -22 -7 -33q-13 -8 -40 16t-82 46q-55 21 -171 49z
M857 863l59 -48q7 -5 6 -8q0 -4 -8 -5q-19 5 -43 -2q-129 -98 -269 -130l-2 10q181 83 252 156q2 4 -4 20zM842 995l66 -40q8 -5 8 -8t-8 -5q-19 1 -41 -5q-121 -93 -228 -121l-3 9q75 40 103 58q27 16 66 49q38 32 37 39q2 7 -6 16z" />
  </g>

</svg>
