<?xml version="1.0" standalone="no"?>
<!DOCTYPE svg PUBLIC "-//W3C//DTD SVG 1.1//EN" "http://www.w3.org/Graphics/SVG/1.1/DTD/svg11.dtd" >
<svg xmlns="http://www.w3.org/2000/svg" xmlns:xlink="http://www.w3.org/1999/xlink" version="1.1" viewBox="0 0 2048 2048">
  <g transform="matrix(1 0 0 -1 0 2048)">
   <path fill="currentColor"
d="M1542 1543l217 -1l87 95l111 -99q20 -18 15 -33q-5 -19 -25 -19h-423q-60 -140 -116 -219l-33 18q103 282 153 629l144 -53q39 -14 39 -34q0 -25 -44 -36l-16 -4q-14 -2 -42 -8q-21 -92 -67 -236zM1469 984l-39 86q126 -17 185 -17l114 1l87 91l113 -96q21 -18 16 -35
q-6 -18 -26 -18h-304q-69 0 -146 -12zM881 804l117 -71h669l67 76l82 -54q40 -26 40 -49q0 -20 -27 -36q-6 -3 -13 -6q-12 -6 -36 -19v-438l81 70l105 -94q22 -19 21 -33q-2 -22 -21 -21l-1052 1q-138 -5 -158 -7l-36 84q94 -21 145 -21h27v481q0 15 -4 50q-3 35 -7 87z
M992 186h156v489h-156v-489zM1242 186h165v489h-165v-489zM1502 186h183v489h-183v-489zM1206 1810l78 80l112 -86q20 -15 15 -34q-4 -16 -28 -16h-224v-227h55l60 72l71 -49q35 -25 40 -44q5 -20 -24 -37q-6 -4 -13 -7q-9 -4 -26 -14v-167q59 -48 60 -61q3 -21 -20 -21
h-206v-233h63l78 80l112 -86q21 -16 16 -33q-6 -19 -26 -19h-494q-39 -5 -55 -6q-37 -1 -37 27v795q0 21 -5 88q-1 21 -4 61l123 -63h279zM905 966h154v233h-154v-233zM905 1255h324v218h-324v-218zM905 1527h157v227h-157v-227zM332 629l84 -45q46 -25 48 -41
q3 -24 -40 -29l-38 -5q-119 -247 -283 -410l-26 26q63 86 116 187q75 141 116 317h-41v-8q0 -60 -69 -54q-44 5 -42 50q1 17 4 45q12 106 12 210l-1 841q0 7 -11 151l116 -73h276l61 72l72 -49q37 -26 41 -44q5 -20 -25 -37q-6 -4 -12 -7q-10 -4 -27 -14v-831
q0 -103 11 -248q2 -33 -5 -49q-8 -16 -39 -18q-61 -3 -61 39v24h-237zM268 1430h301v303h-301v-303zM268 692h301v316h-301v-316zM268 1070h301v301h-301v-301zM515 554q103 -80 146 -129q74 -85 63 -156q-7 -49 -49 -49q-45 0 -57 62q-22 121 -125 248z" />
  </g>

</svg>
