<?xml version="1.0" standalone="no"?>
<!DOCTYPE svg PUBLIC "-//W3C//DTD SVG 1.1//EN" "http://www.w3.org/Graphics/SVG/1.1/DTD/svg11.dtd" >
<svg xmlns="http://www.w3.org/2000/svg" xmlns:xlink="http://www.w3.org/1999/xlink" version="1.1" viewBox="0 0 2048 2048">
  <g transform="matrix(1 0 0 -1 0 2048)">
   <path fill="currentColor"
d="M471 62q-3 70 -42 95q-17 12 -96 30v41q93 -15 149 -11q38 2 38 64v935h-107v-240q0 -371 -84 -582q-59 -148 -182 -298l-25 30q89 129 142 306q58 195 58 544v240h-46q-78 0 -150 -8l-33 87q103 -25 194 -25h129v314h-55q-110 0 -182 -8l-32 88q99 -24 214 -24h55v139
q0 120 -8 160l104 -24q77 -18 80 -44q3 -29 -46 -43l-39 -11v-177h68l93 101l114 -106q20 -18 15 -33q-4 -18 -32 -18h-258v-314h108l93 101l114 -104q20 -18 15 -35q-4 -16 -13 -16h-16h-197v-984q0 -75 -42 -115q-32 -30 -98 -55zM142 1047l112 -27q38 -9 38 -30
q0 -19 -30 -29l-27 -8q-27 -207 -49 -290q-27 -105 -69 -199l-32 18q56 224 57 565zM630 1012l29 19q182 -233 182 -392q0 -29 -18.5 -47.5t-44.5 -14.5q-29 6 -38 43q-2 10 -6 47q-16 151 -104 345zM989 584q13 5 115 34q4 1 165 63l11 -36q-89 -60 -216 -113
q-47 -19 -75 -34v-131q0 -27 11 -184q2 -34 2 -54q0 -38 -46 -42q-39 -3 -53 16q-9 13 -9 55v302l-28 -11l-7 -45q-5 -32 -21 -32q-17 0 -34 32l-63 118q46 11 98 23q32 7 58 13v1136q0 14 -5 72q-2 22 -4 67l97 -80q134 51 229 156l66 -60q46 -41 46 -62q0 -17 -18 -21
q-14 -2 -41 5l-40 10q-101 -53 -238 -87v-323h69l77 80l110 -86q20 -15 14 -33q-5 -19 -23 -19h-247v-326h69l77 81l101 -86q21 -18 16 -33q-6 -19 -25 -19h-238v-346zM1614 436q84 -94 174 -147q75 -44 195 -83l-5 -31q-51 -4 -69 -17q-13 -10 -41 -55q-176 100 -308 262
q-82 -96 -220 -180q-87 -53 -149 -79q-45 -19 -74 -32l-13 34q130 75 208 134q103 75 197 190q-71 146 -105 283q-23 91 -46 238q-25 -5 -49 -8l-37 85q97 -18 186 -18h254l65 76l80 -54q38 -26 38 -49q0 -27 -75 -61q-84 -299 -206 -488zM1402 957q8 -31 11 -47
q63 -259 147 -402q105 186 165 449h-323zM1403 1894l105 -72h152l65 76l80 -54q39 -26 39 -49q0 -26 -75 -61v-357q0 -54 3 -63q8 -20 31 -22q26 -2 103 15q29 7 41 2q3 -2 16 -18q15 -17 15 -37q0 -57 -171 -57q-84 0 -111 50q-15 28 -15 100v417h-181v-91q0 -190 -62 -318
q-49 -104 -174 -214l-28 30q94 115 125 203q48 131 48 290v86q0 65 -6 144z" />
  </g>

</svg>
