<?xml version="1.0" standalone="no"?>
<!DOCTYPE svg PUBLIC "-//W3C//DTD SVG 1.1//EN" "http://www.w3.org/Graphics/SVG/1.1/DTD/svg11.dtd" >
<svg xmlns="http://www.w3.org/2000/svg" xmlns:xlink="http://www.w3.org/1999/xlink" version="1.1" viewBox="0 0 2048 2048">
  <g transform="matrix(1 0 0 -1 0 2048)">
   <path fill="currentColor"
d="M1212 1339l208 56v367q0 117 -8 160l109 -24q82 -18 85 -43q4 -29 -49 -44l-41 -11v-379l219 61l64 74l116 -90q14 -11 15 -27q2 -21 -41 -30l-58 -13q-32 -138 -77 -298q-55 -201 -84 -291l-39 13q76 323 102 600l-217 -63v-356q0 -113 11 -210q3 -28 3 -53
q0 -40 -48 -42q-62 -4 -62 42v591l-208 -56v-671q0 -70 30 -82q42 -15 265 -15q217 0 250 24q27 19 41 96q3 17 18 130l7 46l31 -6l-5 -163q-2 -58 16 -80q4 -5 37 -34q11 -9 14 -24q9 -48 -91 -69q-74 -15 -299 -15h-125q-195 10 -224 24q-60 26 -60 114v699
q-46 -13 -98 -34l-65 60q84 18 163 39v193q0 117 -8 160l108 -24q82 -19 85 -44q4 -29 -49 -43l-41 -11v-204zM576 372q116 -78 274 -112q223 -47 495 -47q166 0 367 11q138 8 278 22v-37q-83 -13 -102 -88q-165 -7 -372 -7q-485 0 -723 67q-220 61 -336 199
q-72 85 -175 280q-11 -46 -31 -141q-48 -222 -162 -421l-33 23q138 334 152 853l114 -26q60 -14 64 -34q5 -21 -40 -34l-34 -11q-7 -57 -15 -119q76 -155 182 -295v676h-189q-102 0 -192 -6l-35 85q105 -23 227 -23h212v337h-125q-119 0 -192 -8l-35 87q107 -24 227 -24h125
v191q0 118 -8 160l109 -24q82 -18 85 -43q4 -29 -49 -44l-40 -11v-229h106l95 104l120 -107q21 -18 16 -33q-5 -19 -26 -19h-311v-337h183l98 101l121 -107q20 -18 15 -34q-4 -16 -27 -16h-413v-323h152l99 102l121 -107q20 -18 15 -34q-5 -19 -24 -19h-363v-378z" />
  </g>

</svg>
