<?xml version="1.0" standalone="no"?>
<!DOCTYPE svg PUBLIC "-//W3C//DTD SVG 1.1//EN" "http://www.w3.org/Graphics/SVG/1.1/DTD/svg11.dtd" >
<svg xmlns="http://www.w3.org/2000/svg" xmlns:xlink="http://www.w3.org/1999/xlink" version="1.1" viewBox="0 -205 1024 1024">
  <g transform="matrix(1 0 0 -1 0 819)">
   <path fill="currentColor"
d="M237 564l84 -34q14 -5 6 -11q-17 -4 -29 -18v-117h46l30 38l66 -46q8 -6 7 -9q-2 -3 -13 -3h-136v-215l1 -1q80 -53 183 -57q103 -5 211 -5h178h75q28 0 50 -1v-16q-52 -3 -69 -10q-16 -8 -24 -21q-354 1 -424 9q-70 7 -119 22t-109 63q-49 38 -99 140q-7 -37 -17 -68
q-27 -83 -101 -175l-10 10q57 105 76 179q19 77 23 148q4 72 1 84q-1 12 -15 27l6 7l76 -24q17 -9 8 -13q-21 -1 -32 -18q-1 -67 -9 -121q48 -81 98 -128v331q2 17 -27 42zM625 495v-91h106v216h-110q-27 1 -45 -13l-34 33h239q34 62 46 88q21 39 -2 51l-2 2l6 10l74 -38
q7 -5 7 -9t-7 -7q-10 2 -30 -4l-27 -36q-26 -34 -43 -57h81l24 32l60 -42q8 -5 7 -8q-2 -2 -13 -2h-189v-216h95v100q2 17 -26 42l9 12l77 -32q14 -5 6 -11q-21 -7 -30 -21v-95l4 -31q1 -31 -40 -46v62h-97q-16 -234 -265 -261l-2 14q217 51 225 247h-91l-27 -34l-50 38
q24 18 28 34v85q3 22 -21 43l9 9l73 -34q8 -2 10 -5t-3 -7q-20 -4 -32 -18zM476 863l38 -33h374l32 40l68 -48q8 -6 7 -9q-2 -3 -13 -3h-450v-73q4 -247 -29 -379q-32 -131 -139 -213l-10 10q93 102 115 233q23 132 21 333v96q-7 19 -24 35zM102 784h154v145q2 17 -27 42
l8 11l84 -34q14 -5 6 -11q-17 -4 -29 -18v-135h46l30 38l66 -48q8 -5 7 -8q-2 -2 -13 -2h-136v-166h76l30 38l66 -48q8 -5 7 -8q-2 -2 -13 -2h-315q-27 1 -45 -13l-34 33h186v166h-75q-27 1 -45 -13zM631 985q113 -41 123 -101q5 -27 -16 -33t-27 20q-6 27 -24 51t-62 51z
M613 783q53 -17 82 -65q30 -58 -3 -69q-19 -4 -22 22t-19 52t-46 50z" />
  </g>

</svg>
