<?xml version="1.0" standalone="no"?>
<!DOCTYPE svg PUBLIC "-//W3C//DTD SVG 1.1//EN" "http://www.w3.org/Graphics/SVG/1.1/DTD/svg11.dtd" >
<svg xmlns="http://www.w3.org/2000/svg" xmlns:xlink="http://www.w3.org/1999/xlink" version="1.1" viewBox="0 0 2048 2048">
  <g transform="matrix(1 0 0 -1 0 2048)">
   <path fill="currentColor"
d="M1370 1059q-185 -170 -495 -258l-14 39q167 67 298 166q102 77 180 198l121 -43q30 -11 36 -28q10 -29 -48 -35l-43 -4q29 -10 70 -20q232 -55 369 -124q113 -57 117 -117q5 -53 -43 -53q-27 0 -89 49q-108 83 -227 138q-43 21 -155 62q-46 17 -77 30zM962 1282
q27 2 109 12q115 14 215 33l-15 24q-5 9 -63 84l27 25q156 -106 166 -180q3 -28 -14 -50q-14 -18 -37 -16q-24 2 -33 33q-7 25 -16 44q-137 -56 -332 -106l-12 -45q-6 -24 -26 -23q-16 1 -27 30l-46 115q62 59 97 115q37 59 77 169l100 -46q41 -19 45 -38q6 -27 -45 -32
l-36 -4q-63 -75 -134 -144zM1518 1323q184 11 316 26q-11 16 -74 98l26 25q97 -76 129 -112q49 -55 56 -103q4 -26 -10.5 -47t-37.5 -21q-33 0 -43 40q-13 47 -29 82q-118 -36 -280 -73l-29 -7l-7 -36q-5 -28 -22 -30q-22 -3 -36 30l-53 118q94 93 159 267l91 -41
q47 -22 51 -40q4 -27 -44 -31l-38 -4q-59 -73 -125 -141zM1324 944l139 -30q70 -15 70 -43q0 -23 -47 -37l-58 -17l1 -387q1 -142 -163 -172q-3 68 -45 87q-49 21 -135 35l6 44l39 -3q55 -5 69 -7q54 -7 68 -9q40 -4 53 12q10 12 10 62v303q0 76 -7 162zM1510 762
q31 -32 84 -98q121 -148 112 -221q-3 -24 -23 -40q-17 -14 -38 -11q-38 6 -47 76q-15 111 -114 270zM1716 786q107 -120 142 -171q56 -79 56 -138q0 -30 -19 -49t-44 -13q-30 7 -40 59q-22 119 -124 289zM1166 759q-46 -196 -72 -251q-57 -118 -123 -100q-24 7 -32 29
q-14 35 34 75q63 54 95 114q16 31 59 145zM1659 1699q-31 42 -95 103l22 29q24 -15 36 -23q167 -104 188 -187q9 -35 -15 -59q-13 -13 -36 -13q-33 0 -47 40t-29 73q-119 -18 -528 -72l-13 -41q-10 -27 -25 -26q-15 2 -30 36l-52 121q150 57 274 280l106 -59q33 -19 30 -40
q-4 -20 -36 -21l-44 -1q-80 -76 -212 -159q60 0 178 5q243 8 328 14zM502 421q234 -198 783 -198q240 0 438 11q136 7 272 22v-38q-53 -10 -72 -28q-17 -18 -28 -59q-306 -14 -645 -4q-492 15 -701 157q-87 59 -162 168q-29 43 -124 218q-33 -178 -79 -318
q-33 -101 -106 -243l-36 22q61 144 100 365q46 258 48 490l111 -28q59 -16 64 -35q5 -20 -39 -36l-33 -11q-8 -56 -15 -117q46 -95 129 -226v645h-106q-115 0 -189 -8l-34 87q103 -23 223 -23h118v303h-64q-117 0 -187 -8l-34 88q103 -26 221 -26h64v181q0 110 -7 160
l106 -24q80 -19 83 -44q4 -26 -48 -44l-39 -13v-216h72l85 95l117 -95q20 -17 15 -35q-5 -19 -23 -19h-266v-303h108l97 100l118 -106q20 -17 15 -34q-5 -16 -27 -16h-323v-330h86l98 102l116 -107q21 -19 16 -35q-5 -19 -25 -19h-291v-368z" />
  </g>

</svg>
