<?xml version="1.0" standalone="no"?>
<!DOCTYPE svg PUBLIC "-//W3C//DTD SVG 1.1//EN" "http://www.w3.org/Graphics/SVG/1.1/DTD/svg11.dtd" >
<svg xmlns="http://www.w3.org/2000/svg" xmlns:xlink="http://www.w3.org/1999/xlink" version="1.1" viewBox="0 -205 1024 1024">
  <g transform="matrix(1 0 0 -1 0 819)">
   <path fill="currentColor"
d="M116 962l39 -46h184l35 41l52 -49q7 -6 5 -10q-1 -5 -11 -7l-18 -9v-176l4 -60q7 -40 -50 -44v50h-71v-201h86l32 40l68 -48q8 -6 7 -9q-2 -3 -13 -3h-180v-226l169 53l8 -16l-254 -95q-94 -38 -113 -50t-31 -38l-56 60l93 30v321q2 17 -27 42l8 11l84 -34q14 -5 6 -11
q-17 -4 -29 -18v-300l96 31v461h-74v-21q2 -37 -53 -46q5 39 7 135v188q-4 24 -18 42zM821 293l8 14q125 -89 132 -196q1 -45 -23 -48t-28 38q-2 21 -8 45l-201 -17q-109 -8 -132 -15q-22 -8 -39 -24l-48 62q26 4 46 19q82 90 158 202q9 13 26 39q18 27 51 78l-121 -9
q-54 -4 -71 -7t-41 -21l-38 58q33 2 50 26q65 90 150 285q-1 15 -12 23l8 8l77 -43q7 -8 -4 -13q-17 2 -31 -6q-103 -198 -165 -281l213 2q14 24 26 44q42 71 42 78t-10 23l9 7l74 -46q11 -12 0 -15q-25 3 -34 -9q-177 -279 -329 -440l340 10q-2 5 -5 14q-2 7 -3 11
q-18 48 -67 104zM165 672h191v224h-191v-224zM471 884h430l32 40l68 -50q8 -5 7 -8q-2 -2 -13 -2h-445q-27 1 -45 -13z" />
  </g>

</svg>
