<?xml version="1.0" standalone="no"?>
<!DOCTYPE svg PUBLIC "-//W3C//DTD SVG 1.1//EN" "http://www.w3.org/Graphics/SVG/1.1/DTD/svg11.dtd" >
<svg xmlns="http://www.w3.org/2000/svg" xmlns:xlink="http://www.w3.org/1999/xlink" version="1.1" viewBox="0 -204 1024 1024">
  <g transform="matrix(1 0 0 -1 0 820)">
   <path fill="currentColor"
d="M51 922q44 -11 118 -11h683l44 48l68 -51q8 -5 8 -11q0 -15 -16 -15h-539q-28 -35 -58 -60q-22 -23 -47 -38l9 -5h447l31 28q51 -35 51 -50q0 -10 -31 -24v-93q8 -9 16 -13q5 -3 5 -7q0 -13 -10 -13h-508q2 -14 2 -25q0 -16 -37 -21q-17 0 -17 13q0 19 1 33v131l-1 15
q-40 -24 -88 -51q-53 -25 -128 -53l-14 20q72 31 122 60q49 25 89 58q37 27 63 56q22 22 33 39h-178q-72 -2 -97 -7zM318 634h450l3 6v106l-1 4h-452v-116zM213 548l65 -29h474l34 32q52 -35 52 -50q0 -10 -30 -24v-107l14 -10q5 -3 5 -7q0 -15 -9 -15h-282v-100h228l44 49
q36 -26 68 -52q8 -4 8 -10q0 -15 -16 -15h-332v-102q45 -4 104 -6q85 -4 194 -4q78 0 149 7v-16q-26 -8 -37 -16q-11 -9 -12 -28q-110 0 -206 3q-100 4 -167 9q-52 5 -107 17q-48 13 -99 31q-54 22 -82 43q-12 9 -17 15q-10 -15 -23 -28q-17 -22 -34 -36q-19 -17 -39 -28
q-20 -13 -44 -23q-25 -13 -57 -24l-16 20q38 16 61 32q24 15 43 31q15 13 28 30q12 15 26 36q12 19 21 40q10 21 15 36t5 27q44 -11 67 -24q15 -5 15 -14q0 -8 -10 -11q-15 -6 -29 -9q-10 -20 -18 -34q14 -9 29 -17q33 -17 90 -30q48 -14 101 -22v223h-224v-20q0 -9 -11 -15
q-15 -8 -26 -8q-13 0 -13 16q0 4 1 13q1 24 1 42v115q0 49 -2 67zM263 366h493l4 4v120h-497v-124z" />
  </g>

</svg>
