<?xml version="1.0" standalone="no"?>
<!DOCTYPE svg PUBLIC "-//W3C//DTD SVG 1.1//EN" "http://www.w3.org/Graphics/SVG/1.1/DTD/svg11.dtd" >
<svg xmlns="http://www.w3.org/2000/svg" xmlns:xlink="http://www.w3.org/1999/xlink" version="1.1" viewBox="0 -205 1024 1024">
  <g transform="matrix(1 0 0 -1 0 819)">
   <path fill="currentColor"
d="M640 984l80 -34q14 -5 6 -11q-16 -4 -27 -18v-108h172l24 40l68 -50q8 -5 7 -8q-2 -2 -13 -2h-258v-125h105l33 38l47 -46q7 -6 6 -10q-1 -5 -10 -7l-20 -9v-540h63l14 34l60 -44q8 -5 7 -8q-2 -2 -13 -2h-571q-27 1 -45 -13l-34 33h154v547q-1 23 -19 41l12 14l33 -28
h136v125h-177q-27 1 -45 -13l-34 33h256v118q2 17 -25 42zM56 487l80 -34q14 -5 6 -11q-17 -4 -29 -18v-302l100 28v478h-82v-21q2 -37 -49 -46q5 39 7 135v188q-4 24 -18 42l15 12l36 -46h171l35 41l52 -49q7 -6 5 -10q-1 -5 -11 -7l-18 -9v-176l4 -52q6 -39 -46 -44v42
h-59v-201h70l32 40l68 -48q8 -6 7 -9q-2 -3 -13 -3h-164v-245l145 44l8 -15l-228 -80q-90 -30 -102 -42t-22 -30l-44 52l63 19v324q2 17 -27 42zM131 648h183v224h-183v-224zM820 368h-285v-140h285v140zM820 514h-285v-130h285v130zM820 212h-285v-118h285v118zM535 530
h285v118h-285v-118z" />
  </g>

</svg>
