<?xml version="1.0" standalone="no"?>
<!DOCTYPE svg PUBLIC "-//W3C//DTD SVG 1.1//EN" "http://www.w3.org/Graphics/SVG/1.1/DTD/svg11.dtd" >
<svg xmlns="http://www.w3.org/2000/svg" xmlns:xlink="http://www.w3.org/1999/xlink" version="1.1" viewBox="0 -205 1024 1024">
  <g transform="matrix(1 0 0 -1 0 819)">
   <path fill="currentColor"
d="M842 855l-47 -204h100l32 40l68 -50q8 -5 7 -8q-2 -2 -13 -2h-286q-51 -52 -101 -86q71 -65 99 -113q58 41 107 81q54 45 62 58t-2 31l6 10l68 -53q7 -5 7 -9q0 -3 -7 -5q-23 2 -36 -5q-15 -6 -44 -30q-22 -19 -99 -63q38 -73 55 -99q41 -62 83 -93q28 -22 103 -47v-13
q-55 5 -76 -24q-52 41 -77 71t-51 74q-25 41 -53 121q-18 -10 -37 -21q29 -55 39 -100q11 -48 7 -118t-35 -110q-31 -41 -101 -53q0 28 -35 40t-83 26l4 14q22 -4 58 -10q33 -5 43 -7q29 -5 58 3t39 49q23 96 -2 186q-1 2 -1 3q-54 -63 -147 -120q-108 -64 -192 -84l-6 15
q106 46 193 106q82 57 136 130q-8 20 -17 37q-1 1 -2 3q-5 9 -18 27l-62 -45q-138 -84 -228 -102l-8 14q54 20 130 64q71 41 142 104q-16 21 -37 46q-62 -37 -175 -74l-6 14q101 48 147 80q41 28 95 77h-170q-27 1 -45 -13l-34 33h357l17 76h-218l-31 -34l-44 42
q18 14 32 34l48 173q3 23 -16 36l9 9l72 -31q8 -2 10 -5t-3 -7q-20 -4 -32 -18l-12 -35h202l38 32l45 -38q13 -12 2 -14q-24 0 -31 -16zM67 527l78 -34q14 -5 6 -11q-17 -4 -29 -18v-309l82 38v455h-70v-21q1 -36 -47 -46q5 39 7 135v188q-4 24 -18 42l15 12l34 -46h175
l35 41l50 -49q7 -6 5 -10q-1 -5 -11 -7l-18 -9v-176l4 -52q6 -40 -44 -44v42h-77v-201h60l32 40l68 -48q8 -6 7 -9q-2 -3 -13 -3h-154v-216l143 65l8 -16l-194 -104q-96 -49 -113 -64t-23 -35l-52 50l73 34v333q2 17 -27 42zM134 668h187v224h-187v-224zM540 747h236l28 124
h-224z" />
  </g>

</svg>
