<?xml version="1.0" standalone="no"?>
<!DOCTYPE svg PUBLIC "-//W3C//DTD SVG 1.1//EN" "http://www.w3.org/Graphics/SVG/1.1/DTD/svg11.dtd" >
<svg xmlns="http://www.w3.org/2000/svg" xmlns:xlink="http://www.w3.org/1999/xlink" version="1.1" viewBox="0 -200 1000 1000">
  <g transform="matrix(1 0 0 -1 0 800)">
   <path fill="currentColor"
d="M626 956l-18 -64v-304q-7 -11 -18.5 -19.5t-31.5 -10.5l1 430zM482 596q-5 -10 -19.5 -16t-28.5 -7v383l68 -34l-20 -66v-260zM433 484l49 -37h314l35 42l64 -50l-38 -41v-347h12l44 43l70 -66h-563l-68 -16l-29 39h110v433zM731 51h76v373h-76v-373zM681 51v373h-71
v-373h71zM562 51v373h-75v-373h75zM160 622v-39q-7 -9 -21.5 -15t-26.5 -11v401l60 -47h106l33 46l58 -51l-34 -50v-234h-82v-209h23l36 46l56 -71h-115v-257l113 43l2 -5q-81 -47 -150.5 -88t-140.5 -84l-57 50l80 31v426l69 -29l-20 -81v-299l55 22v505h-44zM160 643h128
v245h-128v-11v-234zM724 899l-2 -22l-32 15l-6 33h175l21 45l43 -71l-30 -33q-5 -16 -12 -35.5t-16 -39.5t-19.5 -39t-21.5 -34l-2 -2q17 -29 33 -47t32 -27.5t31 -13t29 -3.5v-7q-15 -13 -32 -28t-20 -30q-22 10 -47 37.5t-51 78.5q-17 -29 -38.5 -49t-45 -34.5t-48 -25
t-46.5 -18.5v6q42 34 83.5 71.5t75.5 95.5q-17 37 -30 80t-25 94zM728 899l11 -31q14 -36 28.5 -67.5t26.5 -52.5q25 45 37.5 85.5t21.5 65.5h-125z" />
  </g>

</svg>
