<?xml version="1.0" standalone="no"?>
<!DOCTYPE svg PUBLIC "-//W3C//DTD SVG 1.1//EN" "http://www.w3.org/Graphics/SVG/1.1/DTD/svg11.dtd" >
<svg xmlns="http://www.w3.org/2000/svg" xmlns:xlink="http://www.w3.org/1999/xlink" version="1.1" viewBox="0 -205 1024 1024">
  <g transform="matrix(1 0 0 -1 0 819)">
   <path fill="currentColor"
d="M643 983l72 -26q11 -10 1 -15q-15 1 -31 -13q-9 -13 -43 -70q-6 -12 -10 -18h214l41 37l42 -45q7 -6 5 -10q-1 -5 -11 -7l-18 -9v-326l6 -63q1 -32 -46 -31v50h-323v-21q1 -35 -47 -44q5 39 7 120v336q-1 23 -18 36l15 13l33 -36h76l9 24q30 78 28 87t-10 24zM88 500
l78 -34q14 -5 6 -11q-17 -4 -29 -18v-303l94 32v471h-78v-21q2 -37 -49 -46q5 39 7 135v188q-4 24 -18 42l15 12l36 -46h183l35 41l50 -49q7 -6 5 -10q-1 -5 -11 -7l-18 -9v-176l4 -52q6 -40 -44 -44v42h-77v-201h76l32 40l68 -48q8 -6 7 -9q-2 -3 -13 -3h-170v-235l139 50
l8 -16l-202 -87q-92 -41 -112 -51q-20 -11 -38 -39l-44 54l79 29v326q2 17 -27 42zM159 657h195v224h-195v-224zM865 571h-323v-114h323v114zM542 711h323v110h-323v-110zM865 695h-323v-108h323v108zM623 302q4 -3 3 -5q0 -2 -4 -4q-17 -2 -35 -17v-132q0 -42 8 -51
q9 -10 36 -11q11 -1 28 -1h51q22 1 55 1q79 -5 78 25q5 15 7 36q1 16 3 80h14q5 -55 6 -80q2 -29 28 -39q-21 -51 -56 -54q-16 -4 -41 -4h-56q-30 0 -62 1q-92 0 -109 9q-31 9 -30 92v137q-1 17 -22 40l8 10zM873 315l10 12q94 -72 107 -137q14 -70 -27 -67q-22 3 -19 31
q3 30 -12 68q-15 39 -59 93zM482 285q1 -28 -5 -84q-6 -51 -20 -80q-13 -25 -36 -33t-32 8q-8 16 10 30t36 40q18 28 30 119h17zM633 381l10 12q84 -46 107 -107q18 -62 -21 -67q-20 0 -20 29q-2 69 -76 133z" />
  </g>

</svg>
