<?xml version="1.0" standalone="no"?>
<!DOCTYPE svg PUBLIC "-//W3C//DTD SVG 1.1//EN" "http://www.w3.org/Graphics/SVG/1.1/DTD/svg11.dtd" >
<svg xmlns="http://www.w3.org/2000/svg" xmlns:xlink="http://www.w3.org/1999/xlink" version="1.1" viewBox="0 -200 1000 1000">
  <g transform="matrix(1 0 0 -1 0 800)">
   <path fill="currentColor"
d="M196 581v-40q-4 -5 -12.5 -10t-17 -9t-15.5 -6t-8 -2v402l64 -35h120l39 43l60 -52l-35 -34v-257h-96v-201h43l41 45l61 -70h-145v-210l131 49l2 -11l-332 -181l-56 58l90 31v347l72 -39l-23 -62v-230l65 23v451h-48zM339 604v254h-143v-254h143zM811 521l34 38l58 -48
l-31 -35v-286q-6 -13 -23.5 -20.5t-26.5 -7.5q-2 0 -2.5 0.5t-2.5 0.5v46h-121v-91q0 -38 40 -38h148q9 0 13 11.5t5.5 34t2 56t2.5 78.5h10q-1 -1 -1 -14q0 -9 1 -17.5t1 -16.5q0 -61 7.5 -88t17 -37.5t17 -12t7.5 -10.5q0 -6 -7.5 -12t-19 -10.5t-24 -7.5t-22.5 -3h-184
q-32 0 -49.5 17t-17.5 55v106h-122v-35q-3 -6 -10 -11t-15.5 -9t-16.5 -6.5t-13 -3.5v413l59 -36h286zM643 869v43l-15 93l84 -29l-18 -66v-41h66l49 45l73 -68h-137l71 -46q-13 -7 -26.5 -26.5t-26.5 -44.5t-24.5 -53t-20.5 -52h62l56 47l73 -71h-405l-55 -12l-21 36h266
q16 52 26.5 105.5t20.5 117.5h-217l-52 -11l-17 33h188zM696 232h121v114h-121v-114zM696 369h121v127h-121v-127zM521 232h122v114h-122v-114zM521 482v-113h122v127h-112zM584 631q-8 2 -12 20t-8.5 46.5t-12.5 65t-24 75.5h9q43 -45 66 -89t23 -79q0 -7 -4.5 -14
t-10.5 -13t-12.5 -9.5t-10.5 -3.5q-2 0 -3 1z" />
  </g>

</svg>
