<?xml version="1.0" standalone="no"?>
<!DOCTYPE svg PUBLIC "-//W3C//DTD SVG 1.1//EN" "http://www.w3.org/Graphics/SVG/1.1/DTD/svg11.dtd" >
<svg xmlns="http://www.w3.org/2000/svg" xmlns:xlink="http://www.w3.org/1999/xlink" version="1.1" viewBox="0 -205 1024 1024">
  <g transform="matrix(1 0 0 -1 0 819)">
   <path fill="currentColor"
d="M52 536l76 -34q14 -5 6 -11q-17 -4 -29 -18v-315l92 42v457h-60v-21q2 -36 -45 -46q5 39 7 135v188q-4 24 -18 42l15 12l33 -46h144l35 41l48 -49q7 -6 5 -10q-1 -5 -11 -7l-18 -9v-176l4 -52q6 -40 -42 -44v42h-59v-201h46l28 38l56 -46q8 -6 7 -9q-2 -3 -13 -3h-124
v-220l133 61l8 -16l-178 -94q-96 -49 -113 -64t-23 -35l-52 48l61 28v339q2 17 -27 42zM685 953l32 -31h173l26 32l60 -38q8 -6 7 -10q-2 -3 -13 -4h-244v-114h132l20 28l52 -30q8 -6 7 -10q-2 -3 -13 -4h-198v-124h148l22 30l50 -34q8 -5 7 -8q-2 -3 -13 -4h-214v-134h180
l26 32l62 -42q8 -5 7 -8q-2 -2 -13 -2h-188q8 -67 26 -126q5 -13 9 -25q2 1 5 4q24 18 47 39q30 27 32 37t-6 22l10 4l52 -42q11 -10 1 -15q-20 1 -28 -1q-7 -2 -40 -26q-25 -19 -66 -42q13 -32 28 -53q41 -61 89 -92q12 -7 48 -23q3 -1 5 -2v-16q-35 5 -44 1
q-12 -3 -19 -18q-103 82 -140 200q-19 60 -31 174h-63v-350q68 34 120 64l8 -14q-34 -25 -72 -50q-43 -30 -54 -41q-10 -11 -24 -33l-46 50q20 6 30 23v351q-26 0 -43 -13l-34 33h88v400q3 21 -18 43zM593 431q-4 -115 -10 -171q-6 -54 -19 -100q-16 -70 -114 -87
q-3 23 -23 37q-22 10 -71 24l2 16q38 -5 101 -15q5 -1 8 -1q38 0 53 24q14 19 23 97q8 62 10 190h-109l-29 -36l-43 41q18 11 27 32l22 196q-1 25 -18 44l16 11l30 -42h106v200h-113q-18 2 -38 -14l-31 34h176l25 31l43 -39q7 -6 6 -10t-10 -6l-20 -8v-174l6 -43
q0 -30 -44 -31v40h-97l-23 -206h102l33 36l51 -49q5 -9 -6 -11zM137 677h157v224h-157v-224z" />
  </g>

</svg>
