<?xml version="1.0" standalone="no"?>
<!DOCTYPE svg PUBLIC "-//W3C//DTD SVG 1.1//EN" "http://www.w3.org/Graphics/SVG/1.1/DTD/svg11.dtd" >
<svg xmlns="http://www.w3.org/2000/svg" xmlns:xlink="http://www.w3.org/1999/xlink" version="1.1" viewBox="0 -205 1024 1024">
  <g transform="matrix(1 0 0 -1 0 819)">
   <path fill="currentColor"
d="M580 921h314l24 32l62 -42q8 -5 7 -8q-2 -2 -13 -2h-157l-70 -153h107l33 35l46 -43q7 -6 5 -10q-1 -5 -11 -7l-18 -9v-328l4 -87q-1 -29 -40 -31v37h-187v-5q4 -38 -43 -44q0 2 1 5q4 33 6 67v406q-3 22 -17 38l14 11l30 -35h45l52 153h-115q-27 1 -45 -13zM64 531
l74 -34q14 -5 6 -11q-17 -4 -29 -18v-304l74 37v459h-56v-21q1 -36 -43 -46q5 39 7 135v188q-4 24 -18 42l15 12l31 -46h132l35 41l46 -49q7 -6 5 -10q-1 -5 -11 -7l-18 -9v-176l4 -52q7 -41 -40 -44v42h-53v-201h72l24 36l58 -44q8 -6 7 -9q-2 -3 -13 -3h-148v-220l135 69
l8 -16l-178 -102q-80 -49 -97 -64t-23 -35l-52 46l65 33v328q2 17 -27 42zM449 987l74 -34q14 -5 6 -11q-16 -4 -27 -18v-163h44l24 30l54 -40q8 -5 7 -8q-2 -2 -13 -2h-116v-150h42l26 27l43 -38q7 -5 7 -9q0 -3 -7 -5q-23 -6 -26 -21q-2 -15 -31 -107q-13 -41 -33 -80
q29 -41 41 -70q35 -89 -6 -92q-19 2 -27 48q-6 31 -28 76q-18 -30 -39 -59q-63 -84 -171 -154l-8 10q92 83 143 154q32 44 54 87l-4 7q-45 75 -110 144l8 12q53 -40 111 -114q6 -7 11 -15q1 3 3 8q1 2 5 11q27 69 46 160h-140q-25 1 -36 -14l-31 34h121v150h-61
q-27 1 -45 -13l-30 33h136v173q2 17 -25 42zM133 680h145v224h-145v-224zM873 457h-187v-132h187v132zM686 607h187v121h-187v-121zM873 591h-187v-118h187v118zM707 276l62 -38q17 -10 7 -15q-25 1 -41 -17q-70 -105 -164 -171l-10 10q56 50 102 120q46 71 46 80t-8 24z
M823 241l6 11q103 -66 125 -153q9 -36 -13 -44t-30 26t-26 71q-18 39 -62 89z" />
  </g>

</svg>
