<?xml version="1.0" standalone="no"?>
<!DOCTYPE svg PUBLIC "-//W3C//DTD SVG 1.1//EN" "http://www.w3.org/Graphics/SVG/1.1/DTD/svg11.dtd" >
<svg xmlns="http://www.w3.org/2000/svg" xmlns:xlink="http://www.w3.org/1999/xlink" version="1.1" viewBox="0 -200 1000 1000">
  <g transform="matrix(1 0 0 -1 0 800)">
   <path fill="currentColor"
d="M899 932l60 -73h-188v-68q-10 -11 -24 -19.5t-25 -8.5v96h-102v-67q-11 -16 -26 -22.5t-24 -11.5v101h-91l-49 -17l-16 40h156v118l69 -33l-19 -59v-26h102v113l66 -29l-17 -59v-25h80zM695 624h108v86h-97l-11 -21v-65zM695 516h108v84h-108v-84zM538 624h105v86h-93
l-12 -15v-71zM538 516h105v84h-105v-84zM851 401l41 42l64 -67l-40 -32v-250q-3 -47 -23.5 -67.5t-49.5 -29.5q-5 33 -33.5 49.5t-73.5 30.5l-1 11q24 -4 43 -6t33 -2q34 0 44.5 10t10.5 27q0 2 -0.5 5t-0.5 6v248h-170v-130l90 20q-3 23 -8 41.5t-13 31.5v2
q17 -16 32.5 -35t27 -38.5t18.5 -37.5t7 -32q0 -12 -7.5 -23t-21.5 -11t-23.5 25t-9.5 61q-91 -33 -146.5 -62.5t-92.5 -50.5l-38 73q21 3 42.5 6.5t39.5 6.5t31.5 6t19.5 5v142h-137l-9 -21v-327q-8 -14 -25 -22t-28 -10v434l57 -29h142v89h-105v-23q-11 -14 -27.5 -22.5
t-24.5 -8.5v330l64 -32h240l39 41l60 -55l-34 -37v-203q-11 -11 -26.5 -18.5t-25.5 -12.5v41h-108v-89h156zM160 628v-40q-4 -5 -12.5 -9.5t-17.5 -8.5q-5 -2 -11 -4t-11 -4l1 396l73 -51h112l37 54l57 -58l-32 -46v-229h-99v-208h56l41 46l61 -70h-158v-244l139 43l1 -6
q-88 -45 -166 -85t-153 -83l-57 56l70 22v411l74 -48l-23 -60v-287l64 18v495h-46zM160 651h144v232h-144v-16v-216z" />
  </g>

</svg>
