<?xml version="1.0" standalone="no"?>
<!DOCTYPE svg PUBLIC "-//W3C//DTD SVG 1.1//EN" "http://www.w3.org/Graphics/SVG/1.1/DTD/svg11.dtd" >
<svg xmlns="http://www.w3.org/2000/svg" xmlns:xlink="http://www.w3.org/1999/xlink" version="1.1" viewBox="0 0 2048 2048">
  <g transform="matrix(1 0 0 -1 0 2048)">
   <path fill="currentColor"
d="M1454 893q-18 17 -36 98q-30 132 -99 273q-39 -3 -54 -6l-36 88q91 -22 228 -22h87q-34 91 -54 120q-31 44 -84 85l16 26q81 -40 131 -74q77 -53 77 -106q0 -23 -21 -51h140l87 88l95 -72q42 -33 40 -55q-2 -18 -33 -18h-156l75 -33q29 -13 30 -29q2 -24 -40 -29
q-34 -4 -39 -5q-84 -176 -151 -278h111l80 80l114 -86q20 -15 15 -32q-5 -18 -26 -18h-328v-282h86l80 80l114 -86q20 -15 15 -32q-5 -18 -25 -18h-270v-204q0 -93 7 -158q4 -28 2 -46q-3 -38 -55 -38q-49 0 -49 31v415h-59q-117 0 -192 -9l-35 88q105 -23 227 -23h59v282
h-106q-118 0 -193 -8l-34 87q107 -23 227 -23h32zM1367 1267q150 -206 161 -306q5 -40 -23 -68h94q74 175 115 374h-283h-64zM374 339v905h-129v-23q0 -27 -44 -31q-66 -5 -61 51l4 42q6 95 6 104v487l117 -63h229l60 72l72 -52q38 -27 42 -42q4 -20 -26 -37l-12 -6
q-10 -5 -27 -14v-412q58 -41 53 -58q-4 -18 -24 -18h-166v-319h28l82 80l114 -86q21 -16 15 -33q-5 -19 -25 -19h-214v-495q90 32 190 81l18 -32q-242 -160 -471 -247l-10 -42q-9 -41 -29 -41q-19 0 -38 41l-67 142q46 4 105 14v554q0 117 -8 160l101 -24q71 -17 74 -43
q3 -22 -51 -42l-23 -8v-578q43 10 115 32zM245 1301h270v453h-270v-453zM1088 1748h78l63 63l91 -69q21 -16 16 -33q-6 -19 -26 -19h-212l13 -79q7 -42 -45 -48q-38 -5 -43 24l-17 103h-114q-69 0 -149 -11l-39 86q122 -17 188 -17h104l-5 27q-21 128 -31 156l109 -10
q68 -7 74 -30q6 -22 -40 -45l-29 -16zM1635 1748h174l65 63l90 -69q21 -16 15 -33q-5 -19 -25 -19h-329l-20 -107q-7 -40 -57 -32q-39 5 -33 36l18 103q-82 -4 -135 -11l-39 86q126 -18 185 -17l10 55q3 17 20 142l97 -26q63 -17 63 -51q0 -22 -52 -31l-32 -6zM875 1376
v-993q0 -114 11 -222q3 -31 3 -54q0 -38 -45 -42q-58 -4 -58 42v1249q-4 107 -14 165l109 -88h186l59 74l73 -63q33 -29 35 -54t-80 -57q-77 -180 -149 -314q205 -169 205 -377q0 -111 -74 -181q-47 -45 -122 -61q-4 39 -24 65q-11 16 -79 49l8 37q14 -3 21 -5
q47 -10 67 -10q113 0 113 121q0 207 -161 354q78 219 116 365h-200z" />
  </g>

</svg>
