<?xml version="1.0" standalone="no"?>
<!DOCTYPE svg PUBLIC "-//W3C//DTD SVG 1.1//EN" "http://www.w3.org/Graphics/SVG/1.1/DTD/svg11.dtd" >
<svg xmlns="http://www.w3.org/2000/svg" xmlns:xlink="http://www.w3.org/1999/xlink" version="1.1" viewBox="0 -200 1000 1000">
  <g transform="matrix(1 0 0 -1 0 800)">
   <path fill="currentColor"
d="M157 626v-42q-4 -5 -12 -10t-16 -9t-15 -6.5t-8 -2.5v406l61 -36h107l38 41l57 -62l-33 -31v-248h-85v-209h50l40 43l58 -69h-148v-209l148 52l2 -8q-29 -20 -72 -42t-90 -45t-94.5 -46t-85.5 -45l-52 61l86 24v369l69 -47l-23 -64v-242l63 17v460h-45zM285 650v251h-128
v-251h128zM529 915l-19 -50v-104h126v250l72 -34l-20 -65v-153h123v193l75 -34l-22 -51v-158q-6 -8 -18 -13t-35 -12v55h-298l-19 -33l-66 35l30 27v181zM708 681l-28 -26l-18 -32h176l42 36q28 -31 43.5 -43t15.5 -13l-1 -1q-1 0 -1 0.5t-1 0.5h-239q5 -15 14.5 -28.5
t20 -25.5t20.5 -22l17 -17q4 7 17.5 22.5t37.5 52.5l40 -46q-16 0 -34 -8t-49 -29q91 -73 211 -89l-4 -2q-23 -6 -45 -21t-36 -24q-20 8 -48 25t-51 39v-173q-12 -6 -28 -13t-30 -13v33h-64v-200q-6 -35 -23.5 -48t-60.5 -16q-1 12 -8 20t-19 14t-28.5 10.5t-35.5 10.5v12
q25 -4 43 -6.5t32 -2.5q23 0 33.5 10t12.5 37v159h-66l-5 2l-3 -21q-11 -11 -26.5 -16t-25.5 -5v194q-32 -30 -74.5 -52t-87.5 -42h-8q39 29 84.5 64t83.5 85q-6 2 -11.5 10.5t-9 19t-6 20.5t-3.5 16q-6 14 -16 25.5t-22 24.5q16 -7 32 -16t29 -19.5t20.5 -23t7.5 -26.5v-5
q20 22 35 44t32 60h-130l-67 -14l-19 34h223q12 19 21.5 44t21.5 73zM753 477q-23 31 -40.5 60t-34.5 67h-24q-25 -40 -46.5 -72t-40.5 -55h186zM750 375v81h-174l-15 -12v-69h189zM561 284h189l1 1v71h-190v-72zM366 19q51 43 102 89.5t86 105.5l45 -61l-38 -15
q-18 -18 -37 -34t-41.5 -31t-49 -30t-60.5 -31zM723 208q138 -80 150 -123q1 -5 1.5 -8.5t0.5 -5.5q0 -12 -6 -24.5t-17 -21.5q-7 -2 -10 -3.5t-5 -1.5q-4 0 -4.5 5t-6.5 17q-11 46 -36 90.5t-67 75.5z" />
  </g>

</svg>
