<?xml version="1.0" standalone="no"?>
<!DOCTYPE svg PUBLIC "-//W3C//DTD SVG 1.1//EN" "http://www.w3.org/Graphics/SVG/1.1/DTD/svg11.dtd" >
<svg xmlns="http://www.w3.org/2000/svg" xmlns:xlink="http://www.w3.org/1999/xlink" version="1.1" viewBox="0 0 2048 2048">
  <g transform="matrix(1 0 0 -1 0 2048)">
   <path fill="currentColor"
d="M1152 1529h-240v-451q0 -458 -87 -688q-65 -171 -211 -312l-25 26q113 146 166 333q62 213 62 641v374q0 131 -12 213l115 -77h276v236q0 78 -8 122l109 -24q82 -18 85 -42q4 -29 -48 -44l-43 -12v-68h271l81 80l114 -85q21 -16 15 -34t-26 -18h-455v-111h491l62 61
l78 -61q47 -37 42 -56q-4 -17 -30 -19l-54 -4q-121 -115 -129 -121l-31 24q29 44 66 117h-611l83 -19q69 -15 73 -43q5 -25 -46 -40l-32 -9v-28l220 17l54 86l118 -75q30 -19 21 -39q-7 -14 -27 -15l-386 -35q1 -39 14 -55q33 -39 200 -39q125 0 180 13q41 10 50 11
q30 5 60 -18q24 -18 27 -35q5 -31 -86 -44q-77 -11 -259 -11q-207 0 -254 62q-28 36 -26 108l-42 -4q-54 -4 -111 -22l-64 72l217 16v28q-5 106 -7 118zM1009 1110l104 -61h526l61 72l72 -50q39 -27 42 -44q2 -20 -62 -58v-209q0 -20 1 -49q3 -36 3 -69q0 -54 -71 -47
q-30 3 -30 22v18h-550l-2 -30q-1 -27 -44 -31q-66 -5 -61 51l4 42q7 97 7 104v339zM1420 994v-121h235v121h-235zM1105 873h222v121h-222v-121zM1105 693h222v122h-222v-122zM1420 693h235v122h-235v-122zM939 556l102 -64h655l61 72l72 -50q37 -25 42 -43q5 -21 -26 -38
q-6 -4 -12 -7q-9 -4 -27 -14v-225l65 64l91 -83q16 -14 19 -27q9 -28 -25 -28h-989q-58 0 -143 -8l-40 88q67 -15 155 -23v386zM1559 170h149v264h-149v-264zM1295 170h172v264h-172v-264zM1032 170h171v264h-171v-264zM386 365v899h-129v-23q-9 -43 -69 -39q-27 2 -27 23
v635l118 -63h262l61 72l72 -52q38 -27 42 -42q4 -20 -25 -37q-7 -4 -13 -7q-9 -4 -27 -13v-377q58 -41 53 -59q-4 -18 -24 -18h-200v-354h34l80 81l114 -86q21 -16 15 -33q-5 -19 -26 -19h-217v-461q129 42 236 90l16 -38q-70 -46 -215 -112q-189 -85 -306 -124l-10 -41
q-9 -42 -29 -42t-38 40l-67 143q44 4 99 12v561q0 118 -7 159l100 -24q70 -16 74 -43t-51 -42l-23 -7v-589q46 10 127 30zM257 1321h304v418h-304v-418z" />
  </g>

</svg>
