<?xml version="1.0" standalone="no"?>
<!DOCTYPE svg PUBLIC "-//W3C//DTD SVG 1.1//EN" "http://www.w3.org/Graphics/SVG/1.1/DTD/svg11.dtd" >
<svg xmlns="http://www.w3.org/2000/svg" xmlns:xlink="http://www.w3.org/1999/xlink" version="1.1" viewBox="0 0 2048 2048">
  <g transform="matrix(1 0 0 -1 0 2048)">
   <path fill="currentColor"
d="M370 360v892h-122v-23q0 -26 -42 -31q-65 -6 -60 51l3 42q6 96 6 104v469l109 -60l220 -1l53 73l77 -52q34 -22 39 -42t-23 -37q-6 -4 -12 -7q-9 -4 -25 -13v-397q53 -41 49 -58q-4 -18 -22 -18h-150v-316h9l75 81l106 -86q20 -16 15 -34q-6 -18 -25 -18h-180v-491
q48 18 184 82l15 -38q-39 -21 -113 -64q-163 -97 -373 -172l-9 -41q-9 -42 -27 -42t-36 40l-62 143q39 4 113 16v534q0 120 -7 160l105 -24q65 -15 69 -44q4 -26 -47 -42l-22 -7v-560q19 6 58 16q29 8 52 15zM248 1309h249v437h-249v-437zM679 1290l-37 86q71 -11 129 -16
l22 -1l54 1l61 57l72 -68q30 -29 26 -53q-2 -14 -34 -26l-50 -20l-123 -325l104 1l52 73l88 -68q17 -13 17 -27q0 -22 -25 -33l-37 -17q-34 -174 -66 -261q-32 -86 -114 -205q68 -95 219 -132q140 -34 397 -34q293 0 514 19l6 -33q-84 -18 -90 -92q-597 1 -744 27
q-208 37 -300 166q-19 27 -30 28q-10 0 -48 -42l-56 -63v-36q0 -31 -14 -35q-13 -3 -29 22l-69 112q68 31 202 114q102 190 131 462l-122 1q-24 -12 -46 -12q-35 0 -39 20q-2 8 3 22l146 399h-56l-42 -3q-26 -2 -72 -8zM769 1901q187 -200 199 -306q6 -44 -22 -72
q-17 -16 -43 -11q-36 7 -37 60q-3 134 -122 306zM1518 769q-17 8 -26 30q-24 56 -98 101l17 33q80 -29 118 -50q62 -34 53 -79q-4 -18 -26 -35h176l76 81l109 -86q20 -16 15 -34q-6 -18 -25 -18l-473 1q-10 -57 -21 -110h254l59 72l69 -50q34 -25 39 -43q5 -20 -24 -37
q-30 -19 -39 -25q-22 -152 -77 -212q-34 -38 -86 -51q-13 -3 -70 -13q3 20 2 33q-4 39 -49 61q-23 11 -99 34l12 39q83 -17 128 -27q27 -7 46 -8q55 -4 74 61q17 59 24 108l-276 1q-62 -111 -120 -161q-65 -57 -191 -107l-22 33q132 80 193 171q47 70 63 162q1 6 10 68h-56
q-60 0 -142 -11l-37 86q120 -18 179 -18h241zM1697 1072v-67q0 -36 31 -46q15 -5 63 -5q27 0 76 10q11 2 20 2q16 -1 27 -16q14 -17 11 -36q-7 -39 -156 -39q-167 0 -167 88v109h-145q-37 -97 -111 -148q-51 -36 -189 -72l-10 35q161 61 203 185h-153q-7 -37 -9 -56
q-15 -105 -82 -105q-55 0 -49 52q3 22 29 43q41 33 57 81q8 21 16 119l38 -1q-1 -45 0 -78h317q-17 37 -21 44q-19 33 -70 71l13 20h-136v-16q0 -27 -44 -31q-66 -5 -61 51l4 42q7 97 7 104l1 410l118 -64h22q66 101 91 182l87 -46q36 -18 42 -23q16 -11 11 -30
q-6 -18 -22 -18h-34h-26q-9 -9 -91 -65h310l52 71l68 -49q35 -25 40 -44q5 -20 -24 -37q-6 -4 -12 -7q-9 -4 -26 -14l-1 -280q0 -45 7 -104q3 -27 3 -43q0 -42 -57 -49q-48 -7 -47 24l1 36h-248q30 -8 66 -31q50 -32 56 -56q6 -25 -22 -48l234 -1l53 56l78 -58
q33 -25 35 -45q2 -21 -36 -29l-46 -10q-15 -13 -34 -25q-30 -17 -54 -33l-15 22q4 13 13 29q12 21 21 40zM1300 1317h419v88h-419v-88zM1300 1464h419v87h-419v-87zM1300 1608h419v96h-419v-96z" />
  </g>

</svg>
