<?xml version="1.0" standalone="no"?>
<!DOCTYPE svg PUBLIC "-//W3C//DTD SVG 1.1//EN" "http://www.w3.org/Graphics/SVG/1.1/DTD/svg11.dtd" >
<svg xmlns="http://www.w3.org/2000/svg" xmlns:xlink="http://www.w3.org/1999/xlink" version="1.1" viewBox="0 -205 1024 1024">
  <g transform="matrix(1 0 0 -1 0 819)">
   <path fill="currentColor"
d="M394 222l122 7v414h-29q-27 1 -45 -13l-34 33h456l32 40l68 -50q8 -5 7 -8q-2 -2 -13 -2h-106v-393l54 3l26 41l64 -43q13 -7 10 -10q-2 -3 -20 -4l-134 -8v-106l2 -57q3 -36 -49 -44q5 37 7 112v92l-330 -20q-34 -6 -45 -19zM359 812v-702q0 -23 -13 -44t-68 -28
q-4 28 -40 38q-36 9 -75 17l2 18q101 -17 120 -17q20 0 27 6q8 6 7 70v228h-18q-19 -49 -57 -107q-40 -63 -100 -119q-58 -54 -120 -81l-6 14q110 71 183 189q37 60 52 104h-170q-27 1 -45 -13l-34 33h86v407q-1 23 -19 41l12 14l38 -37h48l12 30q32 77 30 91t-10 29l8 7
l72 -38q11 -10 1 -15q-15 2 -31 -9q-28 -52 -55 -95h107l30 43l46 -42q9 -6 9 -11q0 -4 -9 -8zM751 989l85 -36q14 -5 6 -11q-21 -7 -30 -21v-74h66l32 40l68 -50q8 -5 7 -8q-2 -2 -13 -2h-160v-51l2 -21q3 -36 -49 -44q5 37 7 86v30h-182v-55l2 -21q3 -36 -49 -44
q5 37 7 86v34h-73q-27 1 -45 -13l-34 33h152v84q2 16 -30 46l9 12l85 -36q14 -5 6 -11q-21 -7 -30 -21v-74h182v84q2 16 -30 46zM812 370h-256v-138l256 15v123zM812 510h-256v-124h256v124zM812 643h-256v-117h256v117zM319 546h-189v-128h189v128zM319 686h-189v-124h189
v124zM130 702h189v121h-189v-121z" />
  </g>

</svg>
