<?xml version="1.0" standalone="no"?>
<!DOCTYPE svg PUBLIC "-//W3C//DTD SVG 1.1//EN" "http://www.w3.org/Graphics/SVG/1.1/DTD/svg11.dtd" >
<svg xmlns="http://www.w3.org/2000/svg" xmlns:xlink="http://www.w3.org/1999/xlink" version="1.1" viewBox="0 -205 1024 1024">
  <g transform="matrix(1 0 0 -1 0 819)">
   <path fill="currentColor"
d="M381 817v-702q0 -23 -10 -44t-69 -30q-4 30 -40 40q-36 9 -75 17l2 18q101 -17 120 -17q20 0 27 6q8 6 7 70v228h-18q-19 -49 -60 -111q-42 -64 -107 -123q-64 -56 -126 -82l-6 12q117 76 197 196q42 63 57 108h-187q-27 1 -45 -13l-34 33h102v407q-1 23 -19 41l12 14
l36 -37h25l31 56q26 51 26 65t-8 29l8 7l78 -40q11 -10 1 -15q-15 2 -39 -9l-27 -36q-27 -34 -44 -57h131l30 43l44 -42q9 -6 9 -11q0 -4 -9 -8zM875 860q2 -5 -1 -7q-2 -2 -9 0q-22 -4 -31 -14t-30 -37q-3 -4 -9 -11q-9 -12 -33 -41h138l30 38l64 -48q8 -5 7 -8
q-2 -2 -13 -2h-465v-217q11 -344 -146 -497l-10 12q66 100 91 197q26 101 27 270v217q-25 -23 -54 -43l-8 12q61 62 109 131t72 111q25 42 25 50q2 8 -9 23l11 5l64 -41q2 -4 1 -6t-6 -2q-14 3 -31 -15q-18 -28 -37 -56h178l27 25zM591 271l30 -34h253l25 33l42 -31
q7 -6 5 -10q-1 -5 -11 -7l-14 -13v-105l2 -37q1 -32 -40 -31v42h-259v-11q3 -36 -45 -44q5 37 7 88v119q-1 17 -9 30zM624 94h259v127h-259v-127zM343 551h-189v-128h189v128zM343 691h-189v-124h189v124zM154 707h189v121h-189v-121zM522 750h214l65 111h-193
q-24 -34 -51 -69q-16 -22 -35 -42zM534 520h368l26 36l64 -46q8 -5 7 -8q-2 -2 -13 -2h-375q-27 2 -45 -15zM568 336h276l26 36l64 -42q8 -5 7 -8q-2 -2 -13 -2h-283q-27 2 -45 -15zM568 428h276l26 36l64 -42q8 -5 7 -8q-2 -2 -13 -2h-283q-27 2 -45 -15zM640 720l51 -28
q17 -10 7 -15q-19 2 -28 -5q-52 -66 -126 -117l-8 9q75 75 100 129q2 8 -4 22zM788 697l8 10q104 -45 121 -101q8 -25 -10 -33t-28 17q-10 26 -35 54q-25 29 -56 53zM690 641l6 10q79 -29 84 -82q1 -26 -16 -29t-22 20t-17 42q-12 20 -35 39z" />
  </g>

</svg>
