<?xml version="1.0" standalone="no"?>
<!DOCTYPE svg PUBLIC "-//W3C//DTD SVG 1.1//EN" "http://www.w3.org/Graphics/SVG/1.1/DTD/svg11.dtd" >
<svg xmlns="http://www.w3.org/2000/svg" xmlns:xlink="http://www.w3.org/1999/xlink" version="1.1" viewBox="0 0 2048 2048">
  <g transform="matrix(1 0 0 -1 0 2048)">
   <path fill="currentColor"
d="M1068 436q-66 -227 -229 -400l-27 29q119 167 165 385q30 142 42 285q1 18 10 164q0 9 3 49l139 -31q43 -10 38 -35q-5 -21 -35 -30l-45 -15q-14 -181 -43 -325q85 -155 284 -254v687q0 120 -8 160l109 -24q82 -18 86 -44q3 -24 -49 -43l-45 -16l2 -229l173 2l98 101
l121 -107q20 -18 16 -33q-6 -19 -26 -19l-382 -1v-463q147 -39 283 -39q150 0 243 11v-36q-50 -8 -68 -31q-11 -13 -19 -52q-350 -1 -546 82q-115 49 -205 153q-65 74 -85 119zM1150 1584q243 -155 243 -257q0 -28 -15 -47t-37 -18q-23 1 -36 24q-9 13 -29 58
q-42 91 -143 183q-64 -206 -238 -402l-29 31q121 174 182 395q38 138 61 369l124 -32q60 -16 57 -40t-51 -32l-38 -7q-28 -144 -51 -225zM1679 1547q273 -198 267 -308q-4 -67 -57 -62q-34 4 -59 74q-47 127 -173 246q-86 -183 -282 -352l-29 30q257 267 332 751l142 -40
q39 -11 35 -32q-5 -22 -46 -30l-44 -8q-43 -167 -86 -269zM678 750h-159v-236h126l98 102l121 -107q20 -18 15 -34q-6 -18 -26 -18h-334v-73q0 -108 13 -219q3 -28 3 -54q0 -38 -49 -42q-63 -4 -63 42v346h-120q-117 0 -192 -8l-38 88q97 -23 230 -23h120v236h-159v-28
q0 -37 -52 -37q-59 0 -55 60l4 57l3 79l4 77v320l-4 74q-4 67 -10 102l122 -90h147v216h-105q-108 0 -192 -8l-38 89q96 -23 230 -23h105v141q0 114 -8 159l110 -24q82 -18 85 -43q3 -26 -50 -44l-41 -13v-176h115l98 101l121 -106q20 -18 16 -34q-6 -19 -26 -19h-324v-216
h139l68 76l83 -55q40 -26 40 -48q0 -27 -77 -61v-311q0 -23 4 -84q2 -35 4 -80q1 -40 3 -59q5 -54 -63 -59q-42 -3 -42 26v41zM423 1095v212h-159v-212h159zM678 1095v212h-159v-212h159zM678 810v225h-159v-225h159zM423 810v225h-159v-225h159z" />
  </g>

</svg>
