<?xml version="1.0" standalone="no"?>
<!DOCTYPE svg PUBLIC "-//W3C//DTD SVG 1.1//EN" "http://www.w3.org/Graphics/SVG/1.1/DTD/svg11.dtd" >
<svg xmlns="http://www.w3.org/2000/svg" xmlns:xlink="http://www.w3.org/1999/xlink" version="1.1" viewBox="0 0 2048 2048">
  <g transform="matrix(1 0 0 -1 0 2048)">
   <path fill="currentColor"
d="M791 750h-216v-248h218l98 102l121 -107q20 -18 15 -34q-5 -18 -25 -18h-427v-69q0 -103 13 -219q3 -27 3 -53q0 -39 -49 -42q-62 -4 -62 42v341h-170q-105 0 -192 -9l-38 89q96 -23 230 -23h170v248h-213v-36q0 -36 -52 -36q-59 0 -55 59l4 57l3 80l4 76v339
q0 88 -14 177l122 -90h201v205h-158q-117 0 -192 -8l-38 88q95 -23 230 -23h158v145q0 115 -8 160l109 -24q82 -18 85 -44q4 -26 -50 -44l-41 -13v-180h161l98 102l121 -107q20 -18 15 -33q-5 -19 -25 -19h-370v-205h196l68 76l83 -55q40 -25 40 -48q0 -27 -77 -60v-319
q0 -23 4 -85q1 -34 4 -80q1 -40 3 -59q5 -53 -63 -59q-42 -3 -42 27v36zM791 810v225h-216v-225h216zM791 1096v223h-216v-223h216zM480 810v225h-213v-225h213zM480 1096v223h-213v-223h213zM1529 1704h202l109 114l130 -114q27 -23 22 -39q-6 -19 -26 -19h-733v-160
q0 -70 8 -97q16 -49 99 -63q81 -15 178 -15q186 0 316 29q42 9 65 -22q17 -22 15 -43q-3 -33 -70 -37q-11 -1 -50 -6q-81 -10 -167 -10q-331 0 -421 49q-70 38 -70 178v197q-25 -2 -64 -5q-12 0 -51 -5l-39 86q116 -18 211 -18h279q-19 15 -38 76q-20 66 -114 139l23 30
q178 -86 203 -163q14 -44 -17 -82zM1776 153h-561v-42q0 -36 -45 -45q-57 -12 -57 50q0 3 3 45q0 11 2 70q0 23 2 58q3 58 3 82v610q0 8 -8 79q-3 20 -5 60l119 -77h529l69 77l83 -55q49 -33 47 -51q-3 -23 -86 -59v-589l2 -64q4 -102 10 -168q5 -58 -49 -65q-58 -7 -58 35
v49zM1215 763h561v222h-561v-222zM1215 490h561v219h-561v-219zM1215 210h561v226h-561v-226z" />
  </g>

</svg>
