<?xml version="1.0" standalone="no"?>
<!DOCTYPE svg PUBLIC "-//W3C//DTD SVG 1.1//EN" "http://www.w3.org/Graphics/SVG/1.1/DTD/svg11.dtd" >
<svg xmlns="http://www.w3.org/2000/svg" xmlns:xlink="http://www.w3.org/1999/xlink" version="1.1" viewBox="0 -205 1024 1024">
  <g transform="matrix(1 0 0 -1 0 819)">
   <path fill="currentColor"
d="M467 598l83 -30q14 -5 6 -11q-21 -7 -30 -21v-18h336l26 32l58 -40q8 -5 7 -8q-2 -2 -13 -2h-414v-65h218l41 37l38 -45q7 -6 5 -10q-1 -5 -11 -7l-18 -9v-92l6 -57q2 -30 -42 -31v32h-237v-66h374l26 33l60 -41q8 -5 7 -8q-2 -2 -13 -2h-454v-35l2 -65q3 -38 -47 -46
q6 49 7 146h-365q-27 1 -45 -13l-34 31h444v66h-236q-2 -16 -10 -23q-9 -9 -33 -14q5 37 7 112v94q-3 22 -17 38l14 11l32 -36h243v65h-325q-27 1 -45 -13l-34 31h404v28q2 16 -30 40zM932 609v-18q-5 0 -13 1q-46 7 -51 -29q-62 24 -125 71q-15 11 -29 23q-16 -13 -34 -27
q-64 -47 -121 -59l-8 10q49 24 104 67q18 15 35 31q-26 26 -46 54q-30 44 -51 93q-41 -69 -91 -113l-8 10q75 108 107 209q16 41 -6 61l8 6l79 -24q2 -6 1 -8q-1 -3 -6 -2q-16 -1 -27 -21q-7 -22 -22 -54h228l30 40l68 -48q8 -6 7 -9q-2 -3 -13 -3h-100q-19 -70 -60 -129
q-21 -31 -47 -58q22 -17 50 -32q61 -32 141 -42zM525 796q2 -4 0 -6q-3 -1 -10 1q-28 -3 -69 -56q-19 -24 -29 -34l-12 6l46 86h-80v-174q7 -58 -66 -80q-7 33 -78 57q-7 2 -10 3l4 14l36 -6q51 -15 64 -5q16 8 13 49v142h-26q-45 -66 -74 -96q-81 -81 -189 -118l-4 14
q93 50 155 113q30 30 65 87h-113q-19 2 -38 -13l-33 33h365l30 32zM618 870q-6 -10 -12 -22q27 -50 56 -85q28 -34 52 -57q20 24 38 52q39 60 50 112h-184zM763 339h-237v-70h237v70zM226 892l4 13q55 -4 83 -13q26 -9 44 -19l66 66h-231q-19 2 -38 -13l-33 33h299l32 26
l57 -41q3 -5 1 -7t-9 0q-32 -3 -91 -48q-6 -4 -21 -16q-11 -8 -17 -12q8 -9 9 -19q1 -18 -15 -23q-16 -1 -27 16q-18 36 -113 57zM488 339h-236v-70h236v70zM526 353h237v66h-237v-66zM488 419h-236v-66h236v66z" />
  </g>

</svg>
