<?xml version="1.0" standalone="no"?>
<!DOCTYPE svg PUBLIC "-//W3C//DTD SVG 1.1//EN" "http://www.w3.org/Graphics/SVG/1.1/DTD/svg11.dtd" >
<svg xmlns="http://www.w3.org/2000/svg" xmlns:xlink="http://www.w3.org/1999/xlink" version="1.1" viewBox="0 -205 1024 1024">
  <g transform="matrix(1 0 0 -1 0 819)">
   <path fill="currentColor"
d="M482 574l79 -26q14 -5 6 -11q-21 -7 -28 -21v-15h304l26 32l58 -38q8 -5 7 -8q-2 -2 -13 -2h-382v-73h232l25 29l42 -31q7 -6 5 -10q-1 -5 -11 -7l-14 -13v-102l6 -51q2 -29 -44 -31v30h-241v-74h356l26 34l62 -38q8 -5 7 -8q-2 -2 -13 -2h-438v-11l2 -61q4 -39 -47 -46
q4 28 7 118h-357q-27 1 -45 -13l-34 27h436v74h-241q5 -36 -45 -42q5 36 7 71v146q-3 22 -11 28l14 11l29 -28h247v73h-303q-27 2 -45 -15l-34 31h382v25q2 17 -28 36zM134 919q-4 24 -23 42l13 10l36 -39h257l26 32l56 -38q8 -6 7 -9q-2 -3 -13 -3h-168v-93h90l29 31
l34 -37q7 -6 5 -10q-1 -5 -11 -7l-10 -9v-60l2 -31q2 -33 -36 -31v30h-103v-94h100l30 34l45 -34q12 -10 12 -14q0 -5 -12 -4h-328l-24 -31l-38 38q18 12 24 32v295zM572 787l27 -26h272l19 25l40 -27q7 -6 5 -10q-1 -5 -11 -7l-12 -13v-72l6 -53q0 -31 -40 -31v24h-269
q-1 -15 -8 -23q-7 -9 -33 -14q1 7 2 20q3 17 5 42v126q-3 22 -13 28zM168 713h260v92h-260v-92zM598 1011l69 -35q7 -5 7 -9q-1 -3 -10 -5q-12 -3 -20 -8q-6 -4 -26 -42h271l30 36l52 -42q8 -6 7 -9q-2 -3 -13 -3h-356q-3 -7 -7 -15q-34 -70 -98 -146l-12 8q58 96 86 164
q29 68 27 77q-1 9 -13 19zM501 312h-241v-70h241v70zM501 396h-241v-70h241v70zM780 312h-241v-70h241v70zM539 326h241v70h-241v-70zM291 697h-123v-94h123v94zM291 914h-123v-93h123v93zM679 745h-70v-132h70v132zM779 745h-68v-132h68v132zM811 613h67v132h-67v-132z
M669 866l2 13q112 -23 117 -81q0 -19 -16 -21t-21 17q-14 43 -82 72z" />
  </g>

</svg>
