<?xml version="1.0" standalone="no"?>
<!DOCTYPE svg PUBLIC "-//W3C//DTD SVG 1.1//EN" "http://www.w3.org/Graphics/SVG/1.1/DTD/svg11.dtd" >
<svg xmlns="http://www.w3.org/2000/svg" xmlns:xlink="http://www.w3.org/1999/xlink" version="1.1" viewBox="0 -205 1024 1024">
  <g transform="matrix(1 0 0 -1 0 819)">
   <path fill="currentColor"
d="M227 992l31 -37h481l23 29l38 -27q7 -6 5 -10q-1 -5 -11 -7l-10 -11v-110l4 -43q-1 -30 -38 -31v30h-485q-2 -16 -8 -23q-7 -9 -33 -14q5 37 7 86v121q-3 20 -15 39zM155 493l38 -37h632l18 26l62 -32q8 -6 7 -9q-2 -3 -13 -3h-697v-61q0 -41 -3 -77h622l16 26l64 -30
q8 -6 7 -9q-2 -3 -13 -3h-387q49 -60 104 -95q11 -8 22 -14q75 33 102 49q28 17 29 22q2 5 0 11q0 1 -1 2q0 2 -1 2l9 4l48 -38q7 -7 6 -11q0 -5 -8 -7q-18 8 -40 4q-64 -30 -125 -49q34 -18 65 -31q103 -44 170 -47q32 -2 80 -3v-15q-65 -2 -78 -30q-166 37 -284 113
q-64 41 -125 133h-141v-184q90 30 190 60l4 -12q-60 -24 -140 -62q-43 -23 -54 -30q-10 -8 -20 -26l-46 44q20 8 30 25v185h-107q-8 -73 -31 -121q-36 -74 -102 -133l-8 14q107 129 110 311v92q-4 17 -24 33zM563 742l27 -31h269l17 25l38 -23q7 -6 5 -10q-1 -5 -11 -7
l-10 -11v-116l4 -43q-1 -30 -36 -31v26h-269q-1 -17 -9 -25q-7 -9 -30 -14q5 37 7 86v133q-3 20 -13 33zM101 742l27 -31h269l17 25l38 -23q7 -6 5 -10q-1 -5 -11 -7l-10 -11v-116l4 -43q-1 -30 -36 -31v26h-269q-1 -17 -9 -25q-7 -9 -30 -14q5 37 7 86v133q-3 20 -13 33z
M750 861h-231v-70h231v70zM489 861h-224v-70h224v70zM519 875h231v64h-231v-64zM489 939h-224v-64h224v64zM241 378h514l20 28l60 -34q8 -5 7 -8q-2 -2 -13 -2h-509q-27 1 -45 -13zM257 613h-122v-78h122v78zM719 613h-122v-78h122v78zM404 613h-119v-78h119v78zM866 613
h-119v-78h119v78zM257 697h-122v-72h122v72zM719 697h-122v-72h122v72zM747 625h119v72h-119v-72zM285 625h119v72h-119v-72z" />
  </g>

</svg>
