<?xml version="1.0" standalone="no"?>
<!DOCTYPE svg PUBLIC "-//W3C//DTD SVG 1.1//EN" "http://www.w3.org/Graphics/SVG/1.1/DTD/svg11.dtd" >
<svg xmlns="http://www.w3.org/2000/svg" xmlns:xlink="http://www.w3.org/1999/xlink" version="1.1" viewBox="0 -205 1024 1024">
  <g transform="matrix(1 0 0 -1 0 819)">
   <path fill="currentColor"
d="M315 924h552l32 40l68 -50q8 -5 7 -8q-2 -2 -13 -2h-224v-111h104l27 31l48 -39q7 -6 5 -10q-1 -5 -11 -7l-18 -9v-92l3 -51q1 -34 -43 -33v28h-427q-1 -20 -12 -29t-35 -14q5 37 7 100v112q2 16 -19 37l12 16l38 -40h127v111h-149q-27 1 -45 -13zM93 67l-44 52
q64 35 103 51q32 14 61 19v345h-107q-18 2 -36 -12l-32 32h156l39 43l46 -51q7 -6 6 -10t-10 -6l-20 -8v-335q18 -6 37 -21q33 -25 74 -38t131 -17l162 -2q158 -2 327 9v-16q-64 -2 -79 -45h-252q-209 0 -274 24q-64 23 -91 46q-24 20 -51 29q-62 13 -146 -89zM718 580
l87 -36q14 -5 6 -11q-21 -7 -30 -21v-114h88l32 40l68 -50q8 -5 7 -8q-2 -2 -13 -2h-182v-139l3 -56q3 -34 -52 -42q5 35 7 97v140h-187q-10 -73 -42 -121q-48 -71 -160 -111l-6 12q82 47 124 105q30 41 40 115h-120q-27 1 -45 -13l-34 33h202q2 21 3 45v60
q-57 -13 -148 -28l-2 16q134 34 186 56q53 22 57 29q5 8 3 21l8 4l64 -49q5 -5 4 -9q-1 -3 -8 -5q-8 1 -20 2q-10 2 -14 2q-10 1 -64 -20q-5 -2 -15 -5l-9 -3v-59q0 -30 -3 -57h186v124q2 16 -30 46zM701 773h-122v-142h122v142zM543 773h-118v-142h118v142zM737 631h115
v142h-115v-142zM701 904h-122v-111h122v111zM93 946l4 12q119 -43 149 -101q30 -62 -17 -76q-19 -1 -25 33q-6 35 -34 68q-28 34 -77 64z" />
  </g>

</svg>
