<?xml version="1.0" standalone="no"?>
<!DOCTYPE svg PUBLIC "-//W3C//DTD SVG 1.1//EN" "http://www.w3.org/Graphics/SVG/1.1/DTD/svg11.dtd" >
<svg xmlns="http://www.w3.org/2000/svg" xmlns:xlink="http://www.w3.org/1999/xlink" version="1.1" viewBox="0 0 2048 2048">
  <g transform="matrix(1 0 0 -1 0 2048)">
   <path fill="currentColor"
d="M1396 769q2 30 2 122v159q0 78 -4 117l144 -23q34 -5 37 -26q2 -20 -29 -31l-50 -18l-2 -189q-2 -213 -59 -328q-48 -95 -129 -166q-43 -37 -135 -98l-17 33q105 99 145 156q61 89 89 232q-21 -11 -112 -50l-18 -8l-12 -45q-9 -30 -25 -28q-17 2 -32 36l-49 110l23 4v189
q0 118 -7 159l100 -24q71 -17 74 -43q3 -27 -51 -42l-23 -7l2 -217q73 12 138 26zM1831 684q44 -72 62 -103q61 -105 65 -171q5 -69 -47 -73q-45 -4 -62 58q-20 75 -71 198q-61 -87 -138 -149q-57 -46 -195 -127l-23 29q221 145 314 339q-111 228 -142 271l-12 -1l-41 85
q131 -17 197 -17h64l61 73l77 -49q38 -25 43 -44q6 -20 -26 -37q-7 -4 -14 -7q-10 -4 -28 -14q-39 -170 -84 -261zM1650 961q89 -129 123 -185q31 90 47 190h-82q-15 0 -88 -5zM578 1160l2 -352l79 1l91 101l112 -106q18 -18 14 -33q-5 -19 -24 -19l-272 -1v-398
q102 -79 263 -109q65 -13 212 -21q170 -9 215 -9q409 0 701 33v-38q-77 -13 -94 -87q-154 -7 -448 -7q-388 0 -571 36q-253 51 -390 202q-54 61 -190 288q-55 -303 -187 -543l-32 19q83 240 112 416q35 205 40 440l105 -27q57 -14 60 -34q3 -17 -29 -33l-38 -18
q-9 -74 -18 -153q37 -58 109 -158q62 -86 87 -117v696q-187 -52 -342 -77l-9 42q269 73 366 119q145 67 254 169l88 -83q40 -36 28 -57q-7 -12 -25 -12q-9 0 -28 5l-55 11q-88 -42 -186 -86zM650 1776q-211 -134 -510 -190l-11 39q167 45 294 119q138 80 219 168l88 -83
q40 -36 28 -57q-7 -11 -25 -11q-9 0 -28 4zM724 1538q-233 -145 -566 -206l-9 39q205 63 303 112q148 74 264 191l88 -84q40 -35 28 -56q-7 -12 -25 -12q-8 0 -28 4zM1622 1540q145 92 221 201l96 -67q28 -20 21 -42q-6 -17 -31 -16l-52 2q-186 -102 -268 -140
q110 -67 183 -121q149 -110 134 -189q-5 -28 -34 -39q-14 -5 -28 0q-23 7 -55 73q-48 98 -213 231q-58 -121 -155 -190q-85 -60 -249 -130l-18 40q262 133 324 297q49 129 46 443l144 -31q33 -7 32 -29q-1 -16 -31 -30l-39 -19q-5 -46 -7 -69q-13 -119 -21 -175zM1058 1409
l41 -18q28 -13 32 -31q4 -23 -25 -38l-40 -20v-757q0 -73 11 -176q3 -28 3 -54q0 -38 -45 -42q-61 -4 -61 61v928q-15 -18 -47 -63q-19 -26 -88 -107l-24 28q226 341 315 803l128 -50q21 -8 27 -18q14 -28 -42 -46l-38 -12q-111 -310 -147 -388zM1262 1691q78 -45 118 -74
q86 -66 86 -126q0 -50 -45 -57q-38 -5 -53 46q-30 95 -125 187z" />
  </g>

</svg>
