<?xml version="1.0" standalone="no"?>
<!DOCTYPE svg PUBLIC "-//W3C//DTD SVG 1.1//EN" "http://www.w3.org/Graphics/SVG/1.1/DTD/svg11.dtd" >
<svg xmlns="http://www.w3.org/2000/svg" xmlns:xlink="http://www.w3.org/1999/xlink" version="1.1" viewBox="0 0 2048 2048">
  <g transform="matrix(1 0 0 -1 0 2048)">
   <path fill="currentColor"
d="M1425 1704q226 78 364 187l79 -65q61 -49 46 -72q-11 -16 -57 -8q-23 4 -49 12q-180 -59 -234 -72q-92 -23 -145 -39v-55v-54q0 -527 -22 -745q-26 -272 -123 -512l-39 11q58 244 72 463q16 262 17 620q0 265 -12 387zM896 1729h175l56 66l101 -84q17 -15 11 -31
q-5 -12 -26 -19l-57 -20q-21 -31 -32 -46q-79 -119 -118 -170h106l59 73l70 -50q36 -26 41 -44q6 -28 -65 -55v-909q0 -75 -62 -124q-36 -28 -88 -38q-3 66 -43 93q-31 21 -155 44l8 46q135 -23 184 -27q66 -6 66 57v230h-343q-28 -231 -151 -418l-31 23q70 167 92 347
q21 175 21 427q0 226 -6 317q-2 23 -1 39q-20 -23 -65 -61l-23 26q87 117 125 189q58 112 118 318l121 -47q38 -14 38 -35q0 -24 -44 -31l-44 -8zM731 1482l83 -57h140q82 155 117 248h-205q-58 -101 -135 -191zM1010 779h117v277h-117v-277zM923 779v277h-117
q1 -135 -14 -277h131zM1010 1115h117v257h-117v-257zM923 1115v257h-117v-257h117zM224 1908q274 -161 274 -283q0 -25 -19 -45q-13 -14 -34 -15q-35 -2 -58 66q-30 86 -78 146q-26 32 -107 105zM1837 1584q7 -539 45 -855q27 -219 105 -357l-25 -19q-22 10 -34 12
q-38 6 -89 -23q-59 249 -59 731q0 96 10 511h47zM1538 1580l101 -24q83 -20 86 -44q3 -30 -49 -43l-42 -11l1 -950l122 91l25 -35l-123 -161l-5 -46q-2 -23 -15 -26q-17 -5 -34 22l-81 129l20 4l2 934q0 118 -8 160zM285 417q78 114 114 204q40 102 58 270h-236
q-24 -7 -48 -7q-44 0 -43 21q0 5 38 56q158 204 244 366h-161q-63 0 -149 -11l-39 86q125 -18 188 -18h161l69 67l95 -82q19 -16 15 -34q-3 -18 -26 -25l-51 -15q-29 -40 -88 -129q-10 -16 -161 -220h188l63 66l90 -66q21 -15 21 -33t-21 -26l-51 -19q-34 -166 -73 -247
q-56 -118 -146 -209q17 -10 52 -44q84 -83 246 -122q192 -47 712 -47l167 2q269 3 458 13v-34q-91 -14 -105 -82q-62 0 -217 2q-129 2 -265 2q-537 -1 -739 57q-153 44 -258 142q-54 51 -77 53q-30 4 -81 -43q-20 -18 -59 -48v-36q0 -36 -17 -36q-18 0 -36 23l-62 82
q97 53 135 75q68 39 95 46z" />
  </g>

</svg>
