<?xml version="1.0" standalone="no"?>
<!DOCTYPE svg PUBLIC "-//W3C//DTD SVG 1.1//EN" "http://www.w3.org/Graphics/SVG/1.1/DTD/svg11.dtd" >
<svg xmlns="http://www.w3.org/2000/svg" xmlns:xlink="http://www.w3.org/1999/xlink" version="1.1" viewBox="0 -205 1024 1024">
  <g transform="matrix(1 0 0 -1 0 819)">
   <path fill="currentColor"
d="M738 996l76 -38q6 -3 7 -7q0 -6 -6 -7q-2 0 -5 -1q-26 -3 -40 -7q-37 -31 -81 -66h104l36 38l68 -41q10 -6 8 -10q-2 -3 -16 -3h-274q-37 -48 -66 -84h205l28 25l46 -30q6 -4 5 -7q0 -4 -7 -7l-18 -8v-202l6 -66q1 -23 -12 -30q-19 -9 -38 -11v43h-296v-10
q-1 -20 -13 -27q-19 -9 -38 -10q0 6 2 24q4 42 5 73v235q-1 12 -20 32l11 9l46 -33h60l43 84h-153q-27 0 -42 -11l-38 27h329l33 35q44 48 46 72q-4 8 -9 14zM120 347l-48 41q10 5 32 15q83 41 129 46v237h-80q-18 0 -35 -10l-34 28h130l33 27l54 -37q7 -5 6 -6q0 -2 -9 -6
l-21 -9v-223q24 -3 48 -15q71 -39 206 -39h51q121 0 338 10q21 1 31 1v-15q-33 0 -53 -12q-24 -12 -27 -27h-149q-124 0 -171 1q-58 2 -97 7q-80 10 -131 42q-60 36 -108 15q-41 -18 -95 -71zM764 754h-296v-79h296v79zM468 661v-78h296v78h-296zM468 569v-76h296v76h-296z
M432 332l8 11l83 -33q10 -5 11 -8q2 -3 -4 -6q-10 -3 -27 -18l-3 -3v-179q-2 -39 -17 -56t-69 -27q-6 27 -27 38q-45 18 -95 32l2 18l52 -14q58 -15 89 -6q21 8 23 53v152q-2 22 -26 46zM747 282l5 12q141 -60 172 -141q10 -43 -16 -55q-26 -8 -35 33q-19 73 -126 151z
M238 262l19 -4q-16 -122 -83 -166q-21 -15 -48 -13q-21 3 -26 19q-6 15 18 23q100 39 120 141zM584 260l8 13q6 -4 19 -13q89 -55 106 -104q9 -25 3 -46q-6 -19 -28 -20q-17 0 -20 31q-3 61 -88 139zM131 939l5 12q104 -15 149 -69q16 -18 10 -38q-8 -18 -21 -18
q-13 -1 -25 25q-32 66 -118 88zM407 980l8 13q103 -26 128 -74q8 -27 -13 -36q-21 -5 -28 15q-20 56 -95 82z" />
  </g>

</svg>
