<?xml version="1.0" standalone="no"?>
<!DOCTYPE svg PUBLIC "-//W3C//DTD SVG 1.1//EN" "http://www.w3.org/Graphics/SVG/1.1/DTD/svg11.dtd" >
<svg xmlns="http://www.w3.org/2000/svg" xmlns:xlink="http://www.w3.org/1999/xlink" version="1.1" viewBox="0 0 2048 2048">
  <g transform="matrix(1 0 0 -1 0 2048)">
   <path fill="currentColor"
d="M1530 574q121 104 195 210l123 -83q23 -16 18 -35q-5 -23 -54 -21l-45 3l-31 -19q-104 -62 -149 -85q236 -134 219 -219q-7 -34 -38 -40q-33 -7 -64 30q-197 231 -458 350l19 29q140 -55 265 -120zM885 523q-83 -40 -236 -93l-17 36q311 137 451 318h-181v-17
q0 -12 -15 -23q-19 -14 -43 -14q-35 0 -35 37v345l115 -62h574l68 76l84 -54q42 -28 40 -49q-2 -17 -22 -29l-58 -36v-94l36 -26q25 -19 23 -34q-2 -20 -31 -20h-416q-98 -121 -239 -206v-141q147 31 325 103l17 -35q-39 -28 -165 -95q-132 -69 -169 -85q-10 -60 -23 -63
q-23 -7 -49 49l-46 98l12 7v107zM902 838h614v154h-614v-154zM1275 1353v-117l364 1l79 90l125 -96q21 -16 16 -33q-6 -19 -26 -19h-986q-64 0 -149 -11l-39 86q119 -18 188 -18h332v117h-237q-69 0 -149 -10l-39 86q119 -18 188 -18h237v23q0 117 -8 160l105 -24
q86 -20 82 -57q-2 -25 -46 -34l-37 -7v-61l270 -1l79 104l120 -108q21 -18 16 -34q-6 -18 -26 -18zM298 410q78 113 114 203q40 103 58 270h-236q-24 -6 -48 -6q-44 0 -43 21q0 5 38 55q158 204 244 366h-161q-63 0 -149 -11l-39 86q125 -17 188 -17h161l69 66l95 -82
q19 -16 15 -34q-3 -18 -26 -24l-51 -16q-29 -40 -88 -128q-10 -17 -161 -220h188l63 66l90 -66q21 -16 21 -33q0 -19 -21 -27l-51 -19q-34 -165 -73 -247q-56 -117 -146 -208q17 -10 52 -45q84 -82 246 -122q192 -47 689 -47l167 2q270 3 458 13v-33q-90 -15 -105 -83
q-62 0 -216 2q-126 2 -266 2q-515 0 -716 57q-153 44 -258 142q-54 51 -77 54q-30 3 -81 -43q-20 -19 -59 -49v-36q0 -36 -17 -36q-18 0 -36 23l-62 83q97 52 135 74q68 40 95 47zM237 1901q274 -162 274 -283q0 -25 -19 -45q-13 -14 -34 -16q-35 -2 -58 67q-30 86 -78 146
q-26 32 -107 104zM1572 1743h135l78 81l110 -86q20 -16 15 -34t-25 -18h-320l-10 -102q-1 -8 -8 -16q-19 -20 -48 -19q-29 2 -35 16q-3 5 0 26l10 95q-92 -5 -141 -11l-38 86q94 -15 186 -18l20 188l110 -27q54 -13 54 -41q0 -26 -48 -39l-40 -11zM996 1747l31 -4l78 81
l110 -86q21 -16 15 -34q-5 -18 -24 -18h-202l6 -101q2 -38 -58 -38q-32 0 -33 30l-6 109h-111q-65 0 -144 -11l-38 86q119 -18 182 -18h107l-16 190l78 -10q85 -10 92 -34q8 -24 -40 -45l-33 -16z" />
  </g>

</svg>
