<?xml version="1.0" standalone="no"?>
<!DOCTYPE svg PUBLIC "-//W3C//DTD SVG 1.1//EN" "http://www.w3.org/Graphics/SVG/1.1/DTD/svg11.dtd" >
<svg xmlns="http://www.w3.org/2000/svg" xmlns:xlink="http://www.w3.org/1999/xlink" version="1.1" viewBox="0 -204 1024 1024">
  <g transform="matrix(1 0 0 -1 0 820)">
   <path fill="currentColor"
d="M72 762q44 -12 116 -12h127q-2 8 -4 24q-4 30 -13 61q-8 31 -18 56q-11 27 -28 60l17 13q22 -26 37 -54q19 -27 30 -50q11 -25 15 -43t4 -34q0 -22 -6 -33h111l45 51q37 -27 69 -54q10 -4 10 -10q0 -15 -17 -15h-75q21 -7 39 -15q10 -5 10 -11q0 -7 -16 -11
q-15 -7 -29 -9q-33 -153 -70 -281q-32 -119 -65 -218q21 3 38 6q88 14 204 42l4 -23q-99 -30 -178 -50q-83 -19 -159 -35q-69 -15 -147 -26q-11 -37 -19 -37t-49 84q86 6 156 15q-4 8 -4 22q0 135 -8 208q-5 77 -22 156q-13 84 -43 181q-29 -2 -43 -5zM256 159q39 5 80 13
q25 86 48 184t46 223q16 97 21 143h-263q-20 -1 -35 -1q41 -119 60 -214q25 -103 34 -186q11 -89 11 -135q0 -19 -2 -27zM867 907l30 35q38 -27 60 -45q8 -11 8 -18q0 -5 -17 -11q-14 -9 -36 -15q-53 -136 -116 -263q65 -50 101 -98q35 -43 55 -98q20 -46 20 -100
q0 -48 -11 -76q-11 -27 -32 -42q-17 -16 -62 -28q-16 27 -42 38q-25 14 -82 22l6 21q55 -15 99 -15q30 0 44 9t21 26q11 21 11 59q0 46 -16 89q-12 45 -43 91q-26 43 -90 96q63 172 94 294h-174v-846q0 -12 -15 -12q-9 0 -25 6q-12 9 -12 25q0 17 3 47q4 21 4 96v684
q0 41 -7 72l62 -43h162z" />
  </g>

</svg>
