<?xml version="1.0" standalone="no"?>
<!DOCTYPE svg PUBLIC "-//W3C//DTD SVG 1.1//EN" "http://www.w3.org/Graphics/SVG/1.1/DTD/svg11.dtd" >
<svg xmlns="http://www.w3.org/2000/svg" xmlns:xlink="http://www.w3.org/1999/xlink" version="1.1" viewBox="0 -205 1024 1024">
  <g transform="matrix(1 0 0 -1 0 819)">
   <path fill="currentColor"
d="M125 443l7 -7q19 66 31 130h-25q-27 1 -45 -13l-34 33h108q1 2 1 6q1 4 1 6q9 54 16 127h-75q-27 1 -45 -13l-34 33h156q5 63 8 139h-56q-18 2 -38 -14l-35 34h304l37 37l47 -45q7 -6 6 -10t-10 -6l-20 -8v-127h9l32 40l68 -50q8 -5 7 -8q-2 -2 -13 -2h-103v-125l4 -59
q3 -27 -48 -36v61h-180q-15 -74 -41 -158h208l37 39l50 -47q7 -6 5 -10q-1 -5 -11 -7l-18 -9v-167l5 -75q3 -27 -49 -36v54h-206v-46q3 -36 -50 -44q5 37 6 98v194q-42 -87 -122 -176l-8 16q75 112 114 222q-5 11 -13 18zM520 631l44 -50h311l33 35l46 -43q11 -12 -6 -17
l-18 -9v-126l4 -71q3 -29 -44 -36v49h-322v-188q0 -48 17 -60q17 -13 58 -17q41 -5 117 -4q76 -1 128 5t56 40q7 38 10 157h15l4 -111q3 -51 29 -66q-29 -53 -78 -56q-28 -4 -152 -5q-96 -2 -160 8q-94 15 -84 113v379q-3 32 -21 60zM576 965l41 -52h210l29 35l48 -43
q7 -6 5 -10q-1 -5 -11 -7l-18 -9v-90l4 -95q2 -28 -44 -36v45h-217v-23q1 -35 -47 -46q5 39 7 127v152q-7 20 -23 38zM186 169h206v219h-206v-219zM623 723h217v170h-217v-170zM745 383h145v178h-145v-178zM709 561h-141v-178h141v178zM228 725q-5 -53 -11 -97q0 -2 -1 -6
q-2 -13 -6 -36h176v139h-158zM230 745h156v139h-149q-3 -76 -7 -139z" />
  </g>

</svg>
