<?xml version="1.0" standalone="no"?>
<!DOCTYPE svg PUBLIC "-//W3C//DTD SVG 1.1//EN" "http://www.w3.org/Graphics/SVG/1.1/DTD/svg11.dtd" >
<svg xmlns="http://www.w3.org/2000/svg" xmlns:xlink="http://www.w3.org/1999/xlink" version="1.1" viewBox="0 -204 1024 1024">
  <g transform="matrix(1 0 0 -1 0 820)">
   <path fill="currentColor"
d="M286 957q58 -7 97 -24q12 -4 12 -14q0 -9 -12 -12q-19 -10 -43 -12v-53h143l44 49q36 -26 69 -52q7 -5 7 -10q0 -14 -14 -14h-249v-113h137l35 42q37 -23 54 -42q7 -7 7 -13q0 -10 -37 -32v-274q0 -74 3 -99q1 -27 1 -46q0 -15 -12 -23q-14 -7 -23 -7q-18 0 -18 14v28
h-204q27 -17 50 -31q4 -3 4 -12q0 -10 -21 -10q-14 0 -32 2q-34 -44 -72 -72q-37 -34 -73 -57q-43 -31 -86 -46l-13 25q63 37 105 73q44 36 70 68q22 30 37 60h-92v-46q0 -12 -17 -12q-9 0 -23 6q-12 9 -12 25q0 17 3 47q4 21 4 96v308q0 41 -7 71l61 -43h123v174
q0 54 -6 81zM160 278h327v113h-327v-113zM160 418h327v116h-327v-116zM160 563h327v111h-327v-111zM383 208q44 -15 88 -36q44 -25 67 -41q22 -20 29 -31q10 -13 16 -26q3 -10 3 -20q0 -22 -19 -22q-5 0 -12 7q-7 8 -17 21q-20 20 -34 36q-21 16 -48 37q-30 23 -84 57z
M867 886l32 39q40 -27 66 -49q8 -9 8 -17q0 -5 -18 -14q-17 -9 -37 -15q-54 -126 -117 -243q64 -44 100 -87q34 -38 54 -86q19 -41 19 -88q0 -53 -13 -85q-11 -28 -34 -47q-19 -16 -68 -30q-15 27 -41 38q-23 17 -79 25l5 21q52 -14 94 -14q32 0 49 10q15 12 23 31
q12 23 12 66q0 38 -16 76q-11 39 -41 79q-25 37 -87 84q61 164 91 279h-178v-823q0 -12 -15 -12q-9 0 -25 6q-11 9 -11 25q0 17 2 47q4 21 4 96v661q0 41 -6 70l60 -43h167z" />
  </g>

</svg>
