<?xml version="1.0" standalone="no"?>
<!DOCTYPE svg PUBLIC "-//W3C//DTD SVG 1.1//EN" "http://www.w3.org/Graphics/SVG/1.1/DTD/svg11.dtd" >
<svg xmlns="http://www.w3.org/2000/svg" xmlns:xlink="http://www.w3.org/1999/xlink" version="1.1" viewBox="0 0 2048 2048">
  <g transform="matrix(1 0 0 -1 0 2048)">
   <path fill="currentColor"
d="M336 1705q-138 -22 -270 -30l-4 37q362 82 503 188l99 -90q19 -17 17 -34q-2 -23 -36 -17l-66 12q-83 -29 -146 -44v-418h51l91 91l114 -91q24 -20 21 -40q-3 -17 -28 -18h-249v-138q231 -114 231 -222q0 -23 -15 -42q-16 -19 -40 -19t-40 26q-3 4 -25 59
q-27 68 -111 149v-703q0 -109 11 -210q4 -28 4 -54q0 -38 -49 -41q-63 -5 -63 41v924q-97 -268 -265 -486l-30 22q92 171 139 295q57 153 105 382l3 17h-62q-68 0 -149 -11l-39 86q73 -10 138 -15l23 -3l137 1v396zM1553 1760v-1409q0 -68 10 -181q4 -36 4 -69
q0 -50 -60 -54q-49 -3 -49 50v1599q0 84 -11 207l115 -85h242l64 82l105 -76q31 -23 27 -46q-5 -24 -90 -49q-82 -198 -194 -430q-32 -67 -47 -97q111 -97 168 -166q151 -183 160 -371q10 -198 -129 -289q-50 -32 -129 -48q-3 53 -43 79q-36 24 -126 53l9 39
q122 -29 174 -29q138 0 138 203q0 161 -99 319q-69 110 -178 201q93 218 193 566zM860 199v-73q0 -39 -52 -37q-55 3 -51 60l4 57l4 80l4 76v408q0 87 -14 176l115 -90h298l68 76l84 -54q40 -26 40 -49q0 -27 -78 -62v-398q0 -24 4 -84q2 -39 4 -80t4 -59q5 -53 -63 -58
q-43 -4 -43 25v86h-328zM860 255h328v251h-328v-251zM860 799v-237h328v237h-328zM847 1580v179q0 114 -9 160l110 -24q82 -18 85 -44q3 -29 -49 -44l-41 -11v-216h153v179q0 117 -8 160l109 -24q83 -18 86 -44q3 -29 -50 -44l-40 -11v-216h10l73 80l114 -86q21 -16 15 -33
q-6 -19 -26 -19h-186v-354h30l84 88l110 -93q21 -18 15 -34q-5 -19 -25 -19h-560q-114 0 -193 -8l-38 88q91 -22 189 -22h42v354q-48 6 -78 -3q-4 -1 -27 -2q-12 0 -50 -5l-40 86q29 -4 41 -6q28 -5 47 -6l51 -4l-8 -2h64zM1096 1522h-153v-354h153v354z" />
  </g>

</svg>
