<?xml version="1.0" standalone="no"?>
<!DOCTYPE svg PUBLIC "-//W3C//DTD SVG 1.1//EN" "http://www.w3.org/Graphics/SVG/1.1/DTD/svg11.dtd" >
<svg xmlns="http://www.w3.org/2000/svg" xmlns:xlink="http://www.w3.org/1999/xlink" version="1.1" viewBox="0 0 2048 2048">
  <g transform="matrix(1 0 0 -1 0 2048)">
   <path fill="currentColor"
d="M705 225q177 10 426 32l5 -41q-35 -5 -161 -26q-1 -1 -664 -82l-19 -51q-6 -17 -17 -19q-17 -3 -28 21l-64 142l56 2l127 6l130 5l93 4l22 1v153h-199q-64 0 -149 -11l-39 87q123 -19 188 -19h199v135h-219q-20 -32 -72 -32q-24 0 -24 24v325l112 -54h484l63 71l70 -49
q38 -27 42 -44q5 -20 -25 -37q-6 -4 -12 -7q-10 -4 -27 -14v-105l29 -26q24 -21 20 -37q-4 -15 -27 -15h-320v-135h199l80 81l115 -86q20 -16 15 -33q-6 -19 -26 -19h-383v-147zM392 620h516v149h-516v-149zM344 1298v-28q0 -28 -45 -31t-45 42v330l97 -45h598l63 68l72 -51
q33 -23 35 -46q2 -26 -69 -56v-105l31 -26q26 -20 24 -33q-2 -19 -18 -19h-743zM344 1354h615v155h-615v-155zM629 1738q-14 13 -20 35q-23 79 -102 153l23 28q95 -53 123 -74q57 -45 57 -89q0 -31 -34 -53h318l99 101l120 -106q21 -18 16 -34q-6 -19 -26 -19h-881
q-109 0 -192 -7l-39 90q95 -25 231 -25h307zM1403 1763v-1408q0 -76 10 -181q3 -37 3 -70q0 -50 -59 -53q-49 -3 -49 50v1599q0 80 -12 207l115 -86h341l64 82l105 -76q31 -22 27 -45q-5 -25 -90 -50q-129 -251 -281 -498q120 -98 188 -174q182 -205 182 -426
q0 -284 -258 -337q-3 56 -54 85q-43 26 -153 56l9 39q148 -38 211 -38q139 0 139 203q0 340 -319 583q117 216 233 538h-352zM705 1013h370l59 66l88 -69q36 -28 37 -45q2 -21 -37 -29l-37 -7q-51 -50 -117 -97l-27 24l42 97h-840q-27 -161 -109 -161q-26 0 -42 22
q-13 17 -9 39q4 21 29 38q88 60 92 201h34l5 -79h368v132q0 95 -8 139l102 -24q68 -16 72 -44q4 -26 -51 -42l-21 -7v-154zM969 1137q-64 -49 -136 -94l-30 27q59 75 121 185l85 -46q58 -32 50 -56q-6 -20 -33 -18l-26 2h-31zM325 1225q177 -53 180 -123q2 -48 -38 -58
q-31 -8 -50 23l-18 36q-24 47 -89 88z" />
  </g>

</svg>
