<?xml version="1.0" standalone="no"?>
<!DOCTYPE svg PUBLIC "-//W3C//DTD SVG 1.1//EN" "http://www.w3.org/Graphics/SVG/1.1/DTD/svg11.dtd" >
<svg xmlns="http://www.w3.org/2000/svg" xmlns:xlink="http://www.w3.org/1999/xlink" version="1.1" viewBox="0 -205 1024 1024">
  <g transform="matrix(1 0 0 -1 0 819)">
   <path fill="currentColor"
d="M43 741l34 -34h59q1 52 1 93q1 43 0 86h-48q-27 1 -45 -13l-34 33h284l28 36l62 -46q8 -5 7 -8q-2 -2 -13 -2h-126v-179h58l21 25l36 -29q8 -6 7 -10q-1 -5 -11 -9l-14 -11v-468l3 -56q0 -33 -39 -33v32h-227v-49q4 -38 -43 -44q5 38 7 130v509q2 16 -19 37zM756 603
q4 -3 3 -5q0 -2 -4 -4q-17 -2 -35 -17v-66l71 26v160q2 16 -30 38l9 12l79 -28q14 -5 6 -11q-21 -7 -30 -21v-137l66 25l24 33l48 -36q6 -4 5 -8q-2 -4 -11 -8l-16 -11q2 -130 0 -185q0 -54 -9 -84q-9 -29 -47 -41q-7 24 -42 26v16h34q18 1 23 20t5 62q2 44 0 197l-80 -29
v-239l2 -57q2 -34 -43 -43q5 36 7 147v179l-71 -24v-331q-6 -69 68 -64q26 -1 74 -1h15q70 -5 75 30q5 15 7 34q2 20 3 82h14q5 -55 6 -82q2 -26 28 -37q-22 -53 -56 -56q-16 -4 -62 -4q-67 0 -104 1q-51 0 -65 6t-26 21t-13 74v313l-12 -4q-28 -13 -31 -26l-37 20l80 31v89
q-1 17 -22 40l8 10zM585 574v-283q0 -103 -11 -133q-11 -29 -34 -51q-23 -23 -55 -30q-1 19 -24 30q-26 7 -50 9l4 16q54 -6 86 -5q26 12 36 39q12 29 12 103v316h-76v-3q0 -104 -22 -259q-22 -154 -128 -276l-14 6q80 114 103 259q23 146 23 254v204h-22q-27 1 -45 -13
l-34 33h238l26 32l56 -42q3 -11 -6 -10h-175v-165h60l36 37l36 -36q9 -6 9 -11q0 -4 -9 -8zM166 687q0 -20 -1 -37q-4 -91 -28 -150q-19 -48 -51 -84v-103h227v131h-6q-15 0 -55 3q-28 14 -30 58v182h-56zM313 297h-227v-131h227v131zM701 975l68 -22q17 -9 9 -13
q-16 -7 -28 -16q-13 -64 -33 -118h189l26 36l64 -46q8 -6 7 -8q-2 -3 -13 -2h-280q-30 -75 -71 -129l-16 5q48 100 67 182q20 82 17 97q-3 16 -11 23zM290 474l23 3v210h-61v-175q2 -40 38 -38zM222 886h-55q2 -104 0 -179h55v179zM86 687v-241q14 26 25 58q18 53 23 129
q1 8 1 27q1 17 1 27h-50zM422 960l4 13q69 -36 93 -82q23 -57 -15 -64q-19 0 -23 29t-17 53t-42 51z" />
  </g>

</svg>
