<?xml version="1.0" standalone="no"?>
<!DOCTYPE svg PUBLIC "-//W3C//DTD SVG 1.1//EN" "http://www.w3.org/Graphics/SVG/1.1/DTD/svg11.dtd" >
<svg xmlns="http://www.w3.org/2000/svg" xmlns:xlink="http://www.w3.org/1999/xlink" version="1.1" viewBox="0 0 2048 2048">
  <g transform="matrix(1 0 0 -1 0 2048)">
   <path fill="currentColor"
d="M1202 1474v-163q0 -38 7 -149q5 -86 -1 -99q-13 -27 -60 -24q-42 2 -42 50v385h-132q-34 -269 -258 -439l-18 30q168 184 181 409h-23l-44 -4q-38 -2 -77 -8l-40 86q111 -16 169 -17h20q7 105 7 129l-1 138q-20 -1 -59 -6q-33 -3 -51 -6l-39 86q122 -17 188 -17h221
l80 82l114 -86q21 -16 16 -34q-6 -19 -26 -19h-133l1 -267h24l74 80l105 -84q21 -17 16 -34q-6 -19 -26 -19h-193zM977 1531h129v267h-126l2 -146q-6 -87 -5 -121zM1450 1800l106 -24q82 -19 85 -44q3 -29 -49 -43l-41 -12l-1 -138q0 -15 4 -65q1 -18 3 -53q3 -38 4 -57
q3 -31 -4 -45q-8 -14 -46 -18q-53 -5 -53 51v288q0 120 -8 160zM1718 1930l109 -25q82 -18 85 -43q3 -29 -49 -44l-42 -11v-596q0 -142 -154 -171q-12 70 -47 93q-33 21 -160 43l8 46q142 -23 190 -27q68 -5 68 57v518q0 113 -8 160zM554 1337l-247 1q-26 -102 -82 -193
q-31 -50 -107 -119l-25 25q84 115 115 235q35 136 35 313l-1 90v116q0 82 -11 137l116 -76h191l62 69l78 -49q37 -23 37 -44q0 -24 -69 -54v-621q0 -123 -146 -153q-9 62 -33 81q-23 19 -113 38l8 41q118 -18 146 -18q46 0 46 49v132zM554 1626v189h-222v-189h222zM554 1391
v182h-222q-4 -125 -14 -182h236zM1281 363l84 80l107 -85q21 -17 15 -34q-5 -18 -25 -18h-618q-119 0 -191 -8l-39 88q102 -23 230 -23h437zM1624 159h-1186v-41q0 -37 -48 -37q-59 0 -55 60l4 57l3 80l4 76v292q0 91 -14 177l118 -90h364q12 56 15 171h-501q-117 0 -192 -8
l-40 88q96 -23 232 -23h1398l98 102l121 -107q20 -18 15 -34q-6 -18 -26 -18h-710v-171h380l68 75l85 -54q39 -25 39 -48q0 -24 -73 -60v-263q0 -23 3 -85q2 -34 4 -80q2 -39 4 -58q5 -52 -63 -59q-47 -5 -47 25v33zM1624 217l1 254q-77 -16 -271 -16q-87 0 -152 19
q-70 20 -70 93v108h-227q-53 -120 -186 -186q-99 -50 -271 -91l-10 29v-210h1186zM799 675h-361v-239q149 52 224 101q87 56 137 138zM925 904q-3 -123 -13 -171h220v171h-207zM1224 675v-61q0 -39 23 -53q30 -18 100 -18q98 0 278 18l-1 114h-400z" />
  </g>

</svg>
