<?xml version="1.0" standalone="no"?>
<!DOCTYPE svg PUBLIC "-//W3C//DTD SVG 1.1//EN" "http://www.w3.org/Graphics/SVG/1.1/DTD/svg11.dtd" >
<svg xmlns="http://www.w3.org/2000/svg" xmlns:xlink="http://www.w3.org/1999/xlink" version="1.1" viewBox="0 -205 1024 1024">
  <g transform="matrix(1 0 0 -1 0 819)">
   <path fill="currentColor"
d="M29 512h850l32 40l68 -50q8 -5 7 -8q-2 -2 -13 -2h-366v-85h178l31 37l42 -43q7 -6 5 -11q-1 -4 -11 -8l-16 -7v-144l3 -150q-1 -32 -41 -33v46h-579v-23q6 -39 -45 -44q5 37 7 168v201q2 16 -19 37l12 8l37 -34h186q9 35 7 85h-296q-27 1 -45 -13zM124 915q-4 24 -23 48
l15 12l42 -47h265l24 32l60 -38q8 -6 7 -9q-2 -3 -13 -3h-176v-95h94l19 29l40 -29q7 -6 5 -10q-1 -5 -11 -7l-14 -13v-56l6 -25q3 -28 -42 -35v28h-97v-104h110l28 38l55 -40q12 -9 12 -13t-12 -3h-346l-34 -41l-44 44q26 17 30 36v301zM428 389q-5 -15 -11 -26
q-25 -46 -81 -79q-51 -30 -117 -39v-34h579v68q-23 -1 -70 -3q-77 0 -121 3q-32 6 -34 60v50h-145zM798 195h-579v-83h579v83zM164 713h258v86h-258v-86zM696 964q2 -4 1 -6t-6 -2q-16 2 -31 -21q-7 -18 -22 -52l-6 -15h233l32 40l68 -48q8 -6 7 -9q-2 -3 -13 -3h-336
q-14 -31 -29 -56q-34 -58 -88 -117l-12 8q71 110 108 215q20 58 17 67q-1 9 -12 24l8 6zM671 304l127 2v83h-191v-47q2 -25 10 -31t54 -7zM219 389v-130q53 18 97 45q50 31 71 74q2 5 5 11h-173zM289 697h-125v-104h125v104zM289 910h-125v-95h125v95zM573 492h-135
q2 -50 -6 -85h141v85zM563 610h296l32 40l68 -50q8 -5 7 -8q-2 -2 -13 -2h-311q-27 1 -45 -13zM596 738h231l24 34l64 -42q8 -5 7 -8q-2 -2 -13 -2h-233q-27 1 -45 -13z" />
  </g>

</svg>
