<?xml version="1.0" standalone="no"?>
<!DOCTYPE svg PUBLIC "-//W3C//DTD SVG 1.1//EN" "http://www.w3.org/Graphics/SVG/1.1/DTD/svg11.dtd" >
<svg xmlns="http://www.w3.org/2000/svg" xmlns:xlink="http://www.w3.org/1999/xlink" version="1.1" viewBox="0 -205 1024 1024">
  <g transform="matrix(1 0 0 -1 0 819)">
   <path fill="currentColor"
d="M127 652h228l24 32l54 -42q8 -5 7 -8q-2 -2 -13 -2h-136v-160h102l28 36l58 -46q8 -5 7 -8q-2 -2 -13 -2h-182v-203l45 52q56 71 53 82q-3 12 -11 27l6 9l74 -50q15 -9 5 -15q-20 2 -41 -9q-51 -58 -131 -124v-48l202 57l4 -16q-191 -70 -257 -92q-64 -23 -96 -36
q-30 -14 -51 -49l-41 69l197 55v291h-105q-27 1 -45 -13l-34 33h184v160h-43q-27 1 -45 -13zM752 976l91 -36q14 -5 6 -11q-21 -7 -30 -21v-332h90l32 40l68 -50q8 -6 7 -8q-2 -3 -13 -2h-184v-384l3 -95q2 -36 -56 -46q5 39 7 187v700q2 16 -30 46zM577 960l91 -37
q14 -5 6 -11q-21 -9 -30 -21v-720l3 -95q0 -22 -13 -31q-12 -9 -43 -15q4 39 7 189v336h-86q-27 1 -45 -13l-34 33h165v326q2 16 -30 46zM331 960q6 -4 5 -8q0 -3 -7 -5q-21 -1 -37 -18q-7 -18 -15 -35q60 -18 104 -43q59 -30 82 -74q22 -53 -15 -60q-18 -1 -31 32
q-13 34 -45 67q-30 31 -102 64q-42 -90 -88 -153q-58 -78 -149 -150l-8 10q134 141 197 289q32 74 28 85t-15 26l6 8zM78 379l10 8q97 -64 96 -133q0 -34 -22 -39q-22 -4 -22 23t-9 60t-53 81z" />
  </g>

</svg>
