<?xml version="1.0" standalone="no"?>
<!DOCTYPE svg PUBLIC "-//W3C//DTD SVG 1.1//EN" "http://www.w3.org/Graphics/SVG/1.1/DTD/svg11.dtd" >
<svg xmlns="http://www.w3.org/2000/svg" xmlns:xlink="http://www.w3.org/1999/xlink" version="1.1" viewBox="0 -205 1024 1024">
  <g transform="matrix(1 0 0 -1 0 819)">
   <path fill="currentColor"
d="M383 83h399l25 241h-236l-34 -41l-52 43q21 12 30 33l89 497h-102q-27 1 -45 -13l-34 33h466l34 42l70 -52q8 -5 7 -8q-2 -2 -13 -2h-331l-40 -208h206l40 47l61 -53q13 -12 2 -14q-24 0 -41 -16l-53 -529h66l36 44l72 -54q8 -5 7 -8q-2 -2 -13 -2h-537q-27 1 -45 -13z
M558 344h251l29 284h-226zM115 648h224l24 32l54 -42q8 -5 7 -8q-2 -2 -13 -2h-132v-164h98l28 36l58 -46q8 -5 7 -8q-2 -2 -13 -2h-178v-203l45 52q56 71 53 82q-3 12 -11 27l6 9l74 -50q15 -9 5 -15q-20 2 -41 -9q-51 -58 -131 -124v-48l202 57l4 -16q-191 -70 -257 -92
q-64 -23 -96 -36q-30 -14 -51 -49l-41 69l197 55v291h-105q-27 1 -45 -13l-34 33h184v164h-43q-27 1 -45 -13zM315 952q6 -4 5 -8q0 -3 -7 -5q-21 -1 -37 -18q-7 -15 -13 -30q61 -18 106 -44q59 -30 82 -74q22 -53 -15 -60q-18 -1 -31 32q-13 34 -45 67q-31 31 -104 65
q-40 -83 -86 -146q-58 -78 -149 -150l-8 10q61 63 113 139q53 77 82 144q30 68 26 79t-15 26l6 8zM66 371l10 8q97 -64 96 -133q0 -34 -22 -39q-22 -4 -22 23t-9 60t-53 81z" />
  </g>

</svg>
