<?xml version="1.0" standalone="no"?>
<!DOCTYPE svg PUBLIC "-//W3C//DTD SVG 1.1//EN" "http://www.w3.org/Graphics/SVG/1.1/DTD/svg11.dtd" >
<svg xmlns="http://www.w3.org/2000/svg" xmlns:xlink="http://www.w3.org/1999/xlink" version="1.1" viewBox="0 -204 1024 1024">
  <g transform="matrix(1 0 0 -1 0 820)">
   <path fill="currentColor"
d="M228 957q51 -10 85 -25q9 -3 9 -11q0 -7 -19 -11q-19 -5 -37 -5q34 -24 63 -46q36 -28 55 -47q19 -20 30 -32q8 -12 12 -25q3 -10 3 -20q-1 -31 -21 -31q-8 0 -15 5q-6 6 -28 46q-24 40 -52 73q-21 26 -56 54q-7 -24 -17 -46q-19 -35 -39 -68q-26 -36 -46 -63
q-22 -27 -44 -48q43 -10 105 -10h83l39 41q31 -25 58 -45q7 -4 7 -11q0 -14 -13 -14h-127v-131h61l37 41q31 -25 60 -45q6 -5 6 -10q0 -15 -12 -15h-152v-296q21 4 40 11q63 15 146 40l3 -23q-68 -30 -119 -47q-55 -21 -108 -35q-47 -15 -98 -26q-11 -36 -18 -36
q-9 0 -50 84q71 7 127 17q16 3 29 5v306h-35q-70 -2 -96 -7l-22 47q46 -11 118 -11h35v131q-70 -2 -95 -6l-18 39q-24 -28 -52 -46l-18 21q35 29 61 60q25 30 49 66q25 39 43 76q18 34 28 64q9 28 15 65zM92 385q35 -33 54 -67q18 -24 28 -50q7 -20 7 -35q0 -11 -6 -25
q-10 -12 -19 -12q-10 0 -17 5q-9 9 -9 24q-5 53 -16 82q-11 28 -34 68zM348 408q45 -19 75 -38q5 -4 5 -10q0 -7 -9 -10q-18 -6 -32 -7q-6 -19 -14 -36q-8 -19 -19 -33q-8 -15 -20 -33q-11 -14 -25 -28l-13 14q11 25 19 48q10 23 16 46q8 27 11 47q4 23 6 40zM460 903
q44 -13 117 -13h246l44 50q36 -27 69 -53q7 -5 7 -11q0 -13 -14 -13h-224v-417h150l47 53q38 -28 73 -54q8 -6 8 -12q0 -15 -15 -15h-263v-356q0 -34 -30 -34q-27 0 -27 19t3 54q4 34 4 59v258h-106q-72 -2 -97 -7l-21 47q44 -12 118 -12h106v417h-78q-71 -2 -98 -7z
M477 769q30 -32 52 -65q23 -30 35 -51q14 -22 20 -36q5 -13 7 -27q3 -10 3 -22q-1 -36 -27 -36q-4 0 -8 5q-4 7 -17 52q-15 44 -31 80q-17 37 -47 83zM864 788q45 -19 74 -38q6 -4 6 -9q0 -8 -9 -11q-17 -8 -32 -8q-9 -27 -20 -54q-14 -27 -28 -51q-12 -23 -30 -47
q-16 -24 -35 -45l-15 13q21 36 35 68q13 30 26 63q12 35 18 65q7 29 10 54z" />
  </g>

</svg>
