<?xml version="1.0" standalone="no"?>
<!DOCTYPE svg PUBLIC "-//W3C//DTD SVG 1.1//EN" "http://www.w3.org/Graphics/SVG/1.1/DTD/svg11.dtd" >
<svg xmlns="http://www.w3.org/2000/svg" xmlns:xlink="http://www.w3.org/1999/xlink" version="1.1" viewBox="0 0 2048 2048">
  <g transform="matrix(1 0 0 -1 0 2048)">
   <path fill="currentColor"
d="M1580 1096v-821q0 -49 61 -57q28 -4 97 -4q80 0 100 19q34 32 50 292l42 -4v-178q0 -58 38 -91q39 -36 29 -61q-29 -68 -273 -68q-133 0 -179 18q-59 24 -59 93v844l-262 -45l-12 -173q-21 -311 -125 -492q-100 -175 -299 -295l-23 31q157 134 215 234q80 138 106 315
q23 160 33 362l-71 -11q-10 -73 -42 -76q-22 -3 -30 19l-16 38l-41 103q85 54 184 170q133 156 200 300l86 -38q73 -32 63 -64q-4 -15 -47 -18q-32 -2 -49 -5q-157 -208 -331 -337q346 24 632 65q-17 23 -119 143l28 26q263 -181 263 -296q0 -62 -46 -64q-34 -2 -57 49
q-4 9 -26 57q-7 14 -20 41q-58 -13 -100 -21zM1374 1882h103l61 71l61 -45q49 -37 46 -57q-3 -15 -61 -46q129 -263 408 -374l-10 -36q-41 2 -64 -15q-15 -11 -39 -45q-108 64 -207 196q-75 99 -156 293h-142v58zM1147 1900l95 -45q71 -35 61 -61q-8 -20 -99 -27
q-120 -235 -338 -421l-27 26q135 167 180 240q48 81 128 288zM503 1842q376 -251 337 -377q-10 -35 -43 -36q-29 -2 -51 25q-10 12 -34 63q-63 138 -225 286q-58 -139 -103 -215q-113 -190 -310 -337l-24 28q197 184 291 409q47 113 80 260l119 -33q49 -14 52 -32
q4 -26 -39 -32l-49 -7zM512 906v-595q195 47 325 88l13 -39q-165 -78 -576 -203l-42 -13l-11 -41q-8 -34 -25 -33q-13 1 -28 31l-70 131q155 23 318 57v617h-88q-117 0 -192 -8l-38 88q96 -23 230 -23h88v302h-24q-63 0 -149 -11l-39 86q126 -18 188 -18h167l86 90l124 -95
q21 -16 15 -34t-26 -18h-246v-302h118l86 90l123 -95q21 -16 16 -33q-6 -19 -26 -19h-317zM155 818q188 -185 200 -297q5 -49 -19 -72q-25 -25 -50 -19q-37 8 -40 80q-5 81 -41 160q-14 32 -78 128zM676 820l137 -47q31 -10 31 -27q0 -20 -26 -26l-58 -13
q-103 -169 -181 -260l-33 18q83 167 130 355z" />
  </g>

</svg>
