<?xml version="1.0" standalone="no"?>
<!DOCTYPE svg PUBLIC "-//W3C//DTD SVG 1.1//EN" "http://www.w3.org/Graphics/SVG/1.1/DTD/svg11.dtd" >
<svg xmlns="http://www.w3.org/2000/svg" xmlns:xlink="http://www.w3.org/1999/xlink" version="1.1" viewBox="0 -205 1024 1024">
  <g transform="matrix(1 0 0 -1 0 819)">
   <path fill="currentColor"
d="M661 203l62 -38q15 -9 5 -15q-21 3 -33 -5q-38 -53 -65 -81h222l32 42l67 -52q8 -5 6 -7q-2 -3 -12 -3h-790q-27 2 -46 -13l-34 33h410v149h-226q-27 0 -45 -13l-34 33h305v98h-132q-27 0 -45 -13l-34 33h376l30 37l64 -47q7 -5 6 -8q-1 -2 -12 -2h-209v-98h225l34 40
l64 -50q7 -5 6 -8q-1 -2 -12 -2h-317v-149h73l19 30q42 73 40 81q-3 10 -6 19zM402 678q-3 -57 -10 -86q-9 -30 -23 -48q-15 -19 -34 -34q-21 -15 -75 -28q0 17 -25 33q-38 18 -77 26l2 18q75 -17 101 -20q39 2 60 18q20 15 27 44q6 28 9 79h-221l-26 -32l-41 35q20 9 27 34
l16 85q-2 30 -14 38l12 13l36 -41h199v96h-205q-19 1 -39 -14l-31 32h263l31 35l46 -35q7 -6 6 -10q-1 -5 -10 -6l-16 -14v-53l4 -41q-1 -18 -14 -24q-12 -6 -35 -12v28h-192l-18 -94h214l23 30l48 -29q5 -9 -6 -11zM555 536q18 -11 8 -17q-21 0 -36 -8q54 -40 119 -66
q71 -30 126 -43q54 -14 95 -20q39 -9 66 -9q24 -1 71 0v-15q-30 -3 -45 -10q-15 -9 -25 -24q-74 12 -140 29q-68 17 -143 52q-69 28 -141 94q-94 -80 -218 -133q-121 -52 -260 -74l-2 14q124 30 238 86q113 54 164 98q50 42 51 54q0 10 -6 19l10 4zM648 934q2 -4 1 -6t-6 -2
q-19 5 -34 -13q-2 -4 -5 -12q-10 -21 -16 -31h300l27 35l54 -50q2 -6 -1 -8q-2 -1 -9 1q-15 -4 -26 -10q-12 -6 -24 -21q-14 -15 -46 -59l-13 4l38 88h-311q-8 -14 -25 -40q-5 -7 -7 -11q-39 -56 -88 -89l-8 10q36 38 66 87q29 48 44 92q14 42 11 50q-1 2 -5 8q-5 9 -9 15
l11 5zM688 764q-2 22 -26 46l8 11l84 -38q10 -5 11 -8q2 -3 -4 -6q-18 -6 -31 -16v-176q-1 -29 -13 -44q-13 -16 -58 -28q-3 30 -22 38q-19 6 -61 18l-1 14l32 -5q30 -5 59 -5q19 0 22 38v161zM793 749q66 -39 96 -70q31 -36 41 -61q10 -28 7 -51q-5 -22 -20 -22
q-16 0 -27 35q-11 36 -32 74q-21 35 -71 83zM565 755l60 -32q16 -12 7 -15q-20 -2 -35 -11q-66 -97 -151 -143l-8 7q57 57 87 102q5 8 14 22q13 20 21 33q6 12 -3 30zM284 204q60 -19 85 -49q25 -27 23 -54q-3 -26 -21 -29t-22 22q-4 26 -22 53q-18 25 -49 45z" />
  </g>

</svg>
