<?xml version="1.0" standalone="no"?>
<!DOCTYPE svg PUBLIC "-//W3C//DTD SVG 1.1//EN" "http://www.w3.org/Graphics/SVG/1.1/DTD/svg11.dtd" >
<svg xmlns="http://www.w3.org/2000/svg" xmlns:xlink="http://www.w3.org/1999/xlink" version="1.1" viewBox="0 0 2048 2048">
  <g transform="matrix(1 0 0 -1 0 2048)">
   <path fill="currentColor"
d="M1366 898v73q0 118 -7 160l100 -24q70 -17 74 -44q4 -26 -51 -42l-23 -7v-116h297l55 73l80 -58q33 -24 36 -44q2 -19 -27 -33q-27 -12 -42 -23v-197l30 -24q26 -22 25 -36q-1 -19 -17 -19h-437v-246q43 4 64 5q152 13 271 33q-39 53 -116 124l22 26q273 -172 263 -291
q-5 -64 -51 -59q-36 5 -54 67q-12 40 -38 88q-136 -34 -366 -69q-159 -24 -322 -39q-84 -8 -134 -16l-16 -44q-11 -30 -26 -27q-18 4 -30 38l-46 128q204 -3 486 26v256h-288l-1 -17q-3 -38 -46 -38q-44 0 -51 34q-4 16 2 91q4 43 4 95v116q0 29 -5 92q-3 38 -5 75l110 -87
h280zM1366 841h-288v-248h288v248zM1459 841v-248h303v248h-303zM1141 1580v-231q0 -48 38 -60q41 -13 412 -12q176 1 233 18q18 5 23 5q22 3 42 -21q22 -24 18 -43q-9 -42 -171 -46q-20 -1 -413 0q-145 1 -205 19q-71 22 -71 96v275q-93 -2 -147 -8l-39 89q96 -23 230 -23
h288q-17 12 -19 33q-7 80 -36 145q-16 38 -64 102l27 24q75 -69 115 -115q61 -71 57 -129q-2 -38 -33 -60h307l98 101l121 -106q21 -18 16 -34q-6 -19 -26 -19h-801zM526 1830q362 -248 325 -381q-10 -35 -41 -36q-41 -3 -80 88q-59 136 -228 300q-77 -191 -143 -293
q-90 -140 -250 -270l-25 27q265 259 349 667l113 -33q46 -13 49 -32q3 -26 -38 -32zM178 814q177 -184 189 -297q5 -49 -18 -73q-24 -24 -47 -19q-35 8 -39 81q-3 79 -38 160q-12 28 -74 127zM443 276v614h-98q-112 0 -181 -8l-37 88q93 -23 218 -23h98v301h-45
q-63 0 -140 -10l-37 86q115 -18 177 -18h194l81 89l117 -95q20 -15 15 -33q-5 -19 -25 -19h-247v-301h123l81 90l117 -95q19 -16 15 -33q-5 -19 -25 -19h-311v-592q221 58 339 97l12 -40q-166 -82 -586 -213l-44 -14l-10 -41q-7 -33 -24 -33q-11 0 -27 31l-66 131
q158 24 272 51q25 6 44 9zM689 808l128 -47q30 -11 30 -27q0 -20 -25 -26l-55 -13q-99 -172 -171 -260l-30 18q79 166 123 355z" />
  </g>

</svg>
