<?xml version="1.0" standalone="no"?>
<!DOCTYPE svg PUBLIC "-//W3C//DTD SVG 1.1//EN" "http://www.w3.org/Graphics/SVG/1.1/DTD/svg11.dtd" >
<svg xmlns="http://www.w3.org/2000/svg" xmlns:xlink="http://www.w3.org/1999/xlink" version="1.1" viewBox="0 -205 1024 1024">
  <g transform="matrix(1 0 0 -1 0 819)">
   <path fill="currentColor"
d="M638 549l30 -28h210l27 35l44 -34q9 -6 9 -11t-9 -8l-21 -13v-398q1 -21 -9 -40q-12 -16 -60 -25q-3 22 -21 31q-19 9 -58 19l2 15q65 -15 80 -15t23 6q7 6 7 71v107h-213v-118l4 -74q0 -21 -12 -31q-13 -10 -36 -15q5 39 8 107v381l-9 15t-8 14zM361 971l36 -37h99
l29 33l48 -41q11 -8 0 -14q-17 -1 -26 -12l-16 -57l-6 -18q-30 -92 -52 -167q38 -58 49 -81q12 -27 23 -56q9 -30 14 -60q3 -31 2 -51q-3 -23 -7 -39q-6 -18 -15 -32q-10 -15 -25 -25q-15 -12 -43 -15q-3 29 -56 48l2 14q38 -15 57 -13q19 1 31 19q12 19 15 40t2 48
q-2 27 -11 66q-11 39 -26 70q-8 15 -27 48q-6 11 -9 16q34 121 58 259h-102v-745l5 -96q0 -21 -10 -31q-8 -8 -38 -15q4 39 7 169v729q-5 25 -20 37zM63 78l-42 54l156 38v297h-65q-27 0 -45 -13l-34 33h144v134h-16q-27 0 -46 -13l-34 33h165l24 31l54 -41q7 -5 6 -8
q-1 -2 -12 -2h-105v-134h60l24 30l54 -40q7 -5 6 -8q-1 -2 -12 -2h-132v-207l25 37q39 63 35 72q-3 4 -8 16q-3 7 -5 10l8 7l72 -37q15 -9 5 -15q-18 0 -39 -9q-39 -51 -93 -107v-55l136 35l4 -14q-123 -39 -175 -56t-75 -28q-21 -7 -40 -38zM554 880h142q2 5 6 16q2 5 3 8
q21 56 20 66q0 11 -11 24l7 6l65 -28q8 -5 8 -8q1 -4 -6 -7q-14 0 -26 -9q-12 -35 -27 -68h160l31 37l64 -47q7 -5 6 -8q-1 -2 -12 -2h-259q-24 -49 -55 -94q-58 -82 -133 -132l-8 11q60 58 107 130q31 45 50 85h-53q-27 0 -45 -13zM892 501h-213v-106h213v106zM679 379
v-102h213v102h-213zM17 566l-8 10q38 54 85 141q41 78 65 147q22 70 19 82q-4 11 -15 26l6 8l83 -31q6 -4 5 -7q0 -2 -7 -4q-21 -4 -35 -18q-4 -14 -10 -31q38 -14 69 -32q36 -21 56 -49q21 -28 15 -49t-20 -21q-15 0 -22 28q-8 29 -35 60q-24 27 -68 48q-27 -82 -64 -147
q-47 -83 -119 -161zM667 760h188l20 32l61 -38q7 -5 6 -8q-1 -2 -12 -2h-133v-119h125l20 35l60 -41q7 -5 6 -8q-1 -2 -12 -2h-350q-28 0 -46 -13l-34 29h195v119h-23q-27 0 -45 -13zM33 379l10 9q45 -32 68 -65q23 -34 23 -69t-18 -39q-17 -4 -17 23t-9 60t-57 81z" />
  </g>

</svg>
