<?xml version="1.0" standalone="no"?>
<!DOCTYPE svg PUBLIC "-//W3C//DTD SVG 1.1//EN" "http://www.w3.org/Graphics/SVG/1.1/DTD/svg11.dtd" >
<svg xmlns="http://www.w3.org/2000/svg" xmlns:xlink="http://www.w3.org/1999/xlink" version="1.1" viewBox="0 -205 1024 1024">
  <g transform="matrix(1 0 0 -1 0 819)">
   <path fill="currentColor"
d="M109 978l49 -34h706l29 38l59 -44q11 -8 8 -12q-3 -3 -19 -2h-768v-274q5 -461 -143 -619l-12 10q116 174 113 577v310q-10 18 -31 39zM723 711l69 -31q8 -3 8 -6q1 -4 -5 -8q-13 -2 -27 -11q-10 -41 -24 -74q72 -24 118 -49q57 -30 76 -67q21 -36 2 -52q-18 -17 -37 19
q-23 35 -66 71q-48 38 -100 64q-45 -99 -143 -133q41 -34 75 -51q50 -28 99 -44q50 -17 94 -23q43 -6 68 -6q21 0 63 3v-13q-30 -6 -43 -13q-14 -8 -22 -23q-81 7 -138 28q-60 20 -118 53q-51 29 -112 92q-92 -83 -201 -129q-110 -47 -201 -61l-2 16q90 20 175 65
q82 39 144 90q54 45 55 52q0 8 -7 17l9 8l56 -25q10 -7 5 -10q-1 0 -2 -1q-5 0 -10 -5q-3 -3 -5 -4l3 -3l2 -2q134 81 146 228q0 21 -16 29zM336 289h361l20 28l49 -38q7 -3 5 -4q-1 -2 -11 -2h-191v-77h232l26 39l52 -45q7 -5 5 -7q-1 -3 -11 -3h-304v-129h84l15 23
q38 63 39 77l-3 9q-3 5 -4 8l9 3l55 -25q15 -9 6 -15q-15 3 -24 -4q-22 -28 -54 -63q-8 -9 -12 -13h201l26 36l56 -46q7 -4 5 -7q-1 -3 -10 -3h-742q-26 2 -41 -13l-31 33h385v129h-229q-25 2 -41 -13l-31 29h301v77h-121q-25 0 -41 -13zM492 898l46 -33q16 -12 7 -15
q-21 -2 -33 -11q-29 -34 -65 -73h74l20 30l56 -40q8 -6 6 -9q-2 -2 -12 -1h-173q1 -93 -8 -155h95v65q2 15 -22 30l9 12l71 -20q14 -5 6 -11q-21 -9 -30 -21v-54l4 -29q0 -14 -12 -23q-11 -10 -26 -15v46h-102q-54 -141 -219 -182l-3 14q142 55 184 168h-77l-31 -30l-46 40
q26 12 30 32v62q-6 13 -23 25l9 9l69 -20q9 -3 11 -6q1 -3 -4 -6q-16 -4 -28 -18v-68h97q7 49 7 155h-98q-27 0 -45 -13l-34 33h224l28 43q2 4 7 12q23 42 27 48q3 6 -4 21zM590 641l-10 10q38 56 56 99q19 42 31 80q12 37 9 46q-3 8 -12 24l8 6l73 -30q4 -10 -5 -12
q-18 -1 -25 -19q-1 -1 -2 -4q-17 -45 -31 -74h189l24 28l59 -57q2 -12 -12 -7q-25 -4 -33 -9q-9 -6 -26 -19q-17 -15 -59 -58l-11 8l58 94h-198q-25 -53 -83 -106zM337 160l2 10q47 -9 76 -30q30 -21 30 -52q-1 -27 -20 -30q-20 -2 -20 21q-1 24 -22 49q-18 21 -46 32z
M259 885l6 10q39 -15 62 -39t21 -50q-1 -25 -18 -28t-20 21q-2 24 -14 45t-37 41z" />
  </g>

</svg>
