<?xml version="1.0" standalone="no"?>
<!DOCTYPE svg PUBLIC "-//W3C//DTD SVG 1.1//EN" "http://www.w3.org/Graphics/SVG/1.1/DTD/svg11.dtd" >
<svg xmlns="http://www.w3.org/2000/svg" xmlns:xlink="http://www.w3.org/1999/xlink" version="1.1" viewBox="0 0 2048 2048">
  <g transform="matrix(1 0 0 -1 0 2048)">
   <path fill="currentColor"
d="M449 1792q214 -164 226 -239q6 -32 -11 -54q-14 -21 -35 -21q-30 0 -57 67q-39 98 -139 205q-82 -174 -162 -277q-46 -58 -194 -188l-24 27q239 259 317 599l122 -32q48 -13 51 -32q4 -26 -39 -32l-49 -8zM332 298v630h-81q-64 0 -149 -10l-39 85q125 -17 188 -17h81v289
q-30 -2 -45 -2q-43 -2 -89 -8l-32 85q114 -17 200 -17h95l80 82l114 -86q21 -15 16 -34q-6 -19 -26 -19h-218v-290h57l81 82l114 -86q21 -16 15 -35t-26 -19h-241v-605q145 41 244 78l14 -40q-119 -72 -436 -190l-33 -12l-11 -42q-7 -33 -25 -32q-12 1 -28 30l-70 131
q114 19 250 52zM119 807q157 -183 166 -293q5 -51 -18 -73q-26 -25 -55 -15q-28 10 -27 76q1 103 -93 284zM568 818l98 -40q45 -18 46 -36q1 -20 -29 -28l-42 -12q-79 -160 -144 -253l-33 16q47 116 104 353zM717 1608l-39 86q122 -19 188 -19h97v104q0 118 -7 159l105 -24
q83 -19 85 -43q4 -30 -49 -44l-42 -11l1 -141h95l77 80l117 -86q21 -15 16 -32q-6 -18 -26 -18h-279v-201h114l68 77l84 -55q40 -26 40 -48q0 -27 -78 -62v-477q3 -67 3 -72q4 -34 4 -41q0 -38 -49 -44q-48 -5 -48 27v58h-138v-241l119 -1l84 90l120 -94q21 -16 15 -34
q-5 -18 -25 -18h-313v-115q0 -105 11 -209q3 -28 3 -54q0 -40 -49 -42q-58 -3 -58 42v378h-117q-67 0 -149 -11l-39 86q118 -18 188 -18h117v241h-130v-58q0 -26 -41 -30q-62 -6 -56 43l3 34l1 31l3 49v634l122 -66h98v201h-97q-69 0 -149 -11zM833 836h130v239h-130v-239z
M1056 1075v-239h138v239h-138zM833 1133h130v230h-130v-230zM1056 1363v-230h138v230h-138zM1855 1621l118 -65q16 -8 19 -22q7 -32 -43 -31l-24 1q-65 -126 -156 -245q81 -89 127 -145q67 -79 79 -138q8 -41 -20 -73q-22 -24 -45 -13q-20 10 -46 87q-44 132 -154 289
q90 149 145 355zM1480 1634l122 -55q19 -9 23 -27q5 -27 -37 -32l-37 -4q-55 -120 -156 -269q154 -186 178 -283q11 -43 -4 -74q-18 -42 -60 -29q-28 10 -41 87q-20 121 -124 302q53 111 77 180q1 6 59 204zM1770 709l75 91l118 -99q21 -17 16 -33t-28 -16l-265 -1v-457h111
l86 94l119 -99q20 -17 15 -33q-6 -19 -25 -19l-557 1q-63 0 -149 -11l-39 86q124 -17 188 -18l154 -1v457h-58q-67 0 -149 -10l-39 86q122 -19 188 -18h239zM1667 1625l111 -60q21 -11 24 -22q8 -29 -42 -32l-29 -2q-58 -141 -146 -260l33 -45q136 -188 141 -263
q1 -29 -18.5 -49t-44.5 -15q-29 5 -38 54q-24 136 -125 320q73 134 134 374zM1744 1777l86 95l121 -100q21 -17 16 -33q-6 -19 -26 -19h-410q-68 0 -149 -11l-39 86q122 -18 188 -18h213z" />
  </g>

</svg>
