<?xml version="1.0" standalone="no"?>
<!DOCTYPE svg PUBLIC "-//W3C//DTD SVG 1.1//EN" "http://www.w3.org/Graphics/SVG/1.1/DTD/svg11.dtd" >
<svg xmlns="http://www.w3.org/2000/svg" xmlns:xlink="http://www.w3.org/1999/xlink" version="1.1" viewBox="0 0 2048 2048">
  <g transform="matrix(1 0 0 -1 0 2048)">
   <path fill="currentColor"
d="M979 1021q110 -17 180 -17h115l76 70l91 -72q24 -19 18 -41q-4 -14 -22 -14h-278q-68 0 -148 -11l-32 69v-121q0 -291 -54 -494q-51 -187 -189 -343l-33 26q105 146 139 301q44 202 43 562l-1 232q0 53 -12 159l117 -77h484q-2 75 -13 223l114 -21q67 -12 72 -38
q5 -28 -38 -42l-49 -15v-107h214l80 79l114 -84q21 -15 16 -33q-6 -18 -26 -18h-394q1 -112 27 -342q13 -121 29 -191q61 154 121 385l101 -38q53 -20 53 -46q0 -24 -38 -30l-49 -8q-16 -39 -71 -194q-18 -50 -82 -195q27 -77 67 -152q56 -104 84 -104q23 0 36 37l97 277
l37 -11l-66 -288q-9 -40 -7 -69q2 -37 13 -68q9 -26 12 -38q4 -21 -10 -32.5t-36 -5.5q-48 13 -114 76q-86 82 -167 272q-125 -192 -316 -356l-30 31q110 109 189 220q43 61 120 207l-6 22q-65 264 -81 641h-497v-173zM112 757q188 -184 200 -297q6 -49 -19 -72
q-25 -25 -49 -19q-37 8 -41 80q-4 81 -41 160q-15 34 -78 128zM1019 1691h202l73 71l96 -74q26 -20 17 -42q-4 -9 -17 -9h-392q-61 -140 -162 -276l-34 23q74 136 116 273q26 81 60 271l110 -33q51 -15 49 -42q-3 -23 -40 -30l-39 -6l-20 -65zM1643 1619q26 -11 90 -31
q44 -15 76 -48q26 -28 22 -62q-2 -19 -17 -32t-32 -10q-25 4 -64 63q-25 38 -94 85zM1046 830l103 -58h163l49 57l42 -26q51 -32 53 -54q1 -16 -15 -27l-34 -22v-226l27 -25q19 -18 14 -34q-3 -10 -16 -10h-295v-32q0 -27 -45 -30q-62 -4 -57 51l4 42q7 97 7 104v290z
M1137 460h184v256h-184v-256zM468 1817q360 -243 322 -367q-11 -35 -43 -37q-29 -1 -51 26q-11 12 -34 63q-60 131 -212 274q-69 -166 -127 -255q-88 -136 -280 -285l-24 27q166 156 262 349q81 165 107 320l121 -32q49 -13 52 -32q4 -26 -39 -33l-49 -7zM634 782l136 -47
q31 -10 31 -27q0 -20 -26 -26l-58 -13q-90 -148 -181 -260l-32 18q85 148 130 355zM1678 1445q141 -48 141 -105q0 -25 -20 -39q-13 -9 -27 -5q-15 5 -38 46q-17 29 -75 72zM1079 1612q57 -26 93 -47q71 -42 71 -98q0 -16 -11 -30q-15 -20 -37 -16q-20 3 -46 57
q-16 35 -90 106zM370 1253h-12q-69 0 -149 -11l-39 86q125 -17 188 -17h142l86 89l124 -95q20 -16 15 -33q-6 -19 -26 -19h-233v-279h107l85 90l124 -95q21 -16 16 -33q-6 -19 -26 -19h-306v-592q163 42 261 74l13 -39q-141 -72 -495 -189l-37 -12l-10 -41q-8 -34 -25 -33
q-13 1 -29 31l-70 131q148 23 296 56v614h-92q-69 0 -149 -11l-39 86q125 -18 188 -18h92v279zM1549 1691h248l73 71l99 -71q14 -11 18 -25q7 -29 -22 -29h-439q-66 -151 -181 -284l-34 23q158 248 202 552l94 -27q68 -20 66 -48q-1 -22 -50 -31l-30 -5q-22 -65 -44 -126z
" />
  </g>

</svg>
