<?xml version="1.0" standalone="no"?>
<!DOCTYPE svg PUBLIC "-//W3C//DTD SVG 1.1//EN" "http://www.w3.org/Graphics/SVG/1.1/DTD/svg11.dtd" >
<svg xmlns="http://www.w3.org/2000/svg" xmlns:xlink="http://www.w3.org/1999/xlink" version="1.1" viewBox="0 -205 1024 1024">
  <g transform="matrix(1 0 0 -1 0 819)">
   <path fill="currentColor"
d="M699 350q-15 6 -40 -35q-2 -5 -4 -7q-19 -30 -49 -71l-21 -27q-3 -5 -5 -7q26 -25 45 -54q22 -46 1 -71q-25 -14 -40 38q-14 34 -33 58q0 -1 -2 -3q-1 -2 -2 -3q-78 -86 -224 -149l-6 12q79 46 112 76q37 31 63 54q19 19 37 40q-34 41 -114 84q-2 -2 -7 -5
q-47 -39 -82 -60l-8 12q90 74 136 152q25 39 22 54q-1 7 -9 25l4 6l81 -36q6 -9 -5 -13q-20 1 -31 -13q-6 -8 -17 -22q-8 -12 -13 -18h128l32 35l53 -39q6 -5 5 -8q0 -4 -7 -5zM72 638h185l24 31l54 -41q8 -5 7 -8q-2 -2 -13 -2h-118v-146h66l24 30l54 -40q8 -5 7 -8
q-2 -2 -13 -2h-138v-195l24 37q36 63 34 75q-2 14 -10 29l6 9l68 -39q15 -9 5 -15q-18 2 -37 -9q-33 -52 -90 -117v-45l123 34l4 -14q-85 -33 -164 -58q-3 -1 -5 -2q-35 -12 -64 -27q-23 -12 -37 -42l-43 53l152 45v281h-70q-27 1 -41 -13l-34 33h145v146h-29q-27 1 -46 -13
zM505 988l81 -30q14 -5 6 -11q-21 -7 -30 -21v-75h89l20 32l64 -42q8 -5 7 -8q-2 -2 -13 -2h-167v-219q51 -18 84 -38q48 -31 67 -63q18 -36 -8 -43q-14 -2 -28 22q-13 25 -45 53q-22 21 -70 48v-38l3 -45q4 -37 -46 -44q5 29 6 123q-22 -32 -52 -67q-48 -57 -130 -107
l-5 13q80 71 117 121q29 40 71 110v174h-103q-27 1 -46 -13l-34 33h183v85q2 16 -30 40zM938 527l61 -40q8 -5 7 -8q0 -4 -9 -5q-13 -1 -16 -4q0 1 -23 -54q-104 -258 -341 -395l-11 12q222 158 310 400q19 52 17 61q-1 11 -6 27zM810 977l82 -36q14 -5 6 -11
q-22 -7 -31 -21v-423l2 -57q4 -37 -45 -44q5 37 7 148v386q2 16 -30 46zM254 954q6 -4 5 -6q0 -3 -7 -5q-17 -4 -31 -18q-2 -7 -7 -22q-4 -14 -7 -22q37 -13 67 -31q77 -47 71 -97q-5 -22 -19 -22q-13 0 -24 28q-10 29 -36 60q-22 27 -64 47q-27 -73 -60 -129
q-48 -77 -124 -154l-8 10q38 48 89 134q45 75 68 143q24 71 20 81q-4 11 -15 26l6 8zM472 345q-10 -12 -28 -32q-9 -10 -13 -15q81 -35 122 -70l1 2q34 42 73 115h-155zM425 810l50 -28q17 -9 7 -13q-6 1 -28 -10q-2 -4 -6 -14q-4 -9 -6 -14q14 -7 24 -15q25 -20 32 -52
q5 -31 -16 -31q-13 1 -17 22q-3 21 -12 39q-6 11 -18 22q-39 -83 -85 -121l-8 7q56 90 69 130q14 41 13 48q-1 9 -7 22zM620 806l57 -26q9 -6 3 -13q-7 1 -24 -8q-7 -19 -15 -35q17 -8 32 -19q28 -21 37 -52q8 -29 -14 -30q-13 0 -18 22q-3 21 -17 39q-10 14 -27 27
q-26 -53 -53 -80l-12 5q21 39 39 83q19 45 17 56q-2 12 -10 23zM754 785l60 -27q7 -5 6 -8q0 -3 -8 -4q-10 1 -21 -18q-27 -105 -83 -183l-12 8q44 104 59 177q14 37 -10 47zM886 767l6 10q91 -60 113 -120q21 -62 -12 -67q-18 0 -20 28q-2 30 -23 67q-21 38 -64 82zM31 370
l10 8q80 -65 83 -133q2 -33 -18 -35q-19 -2 -19 23q3 68 -56 137z" />
  </g>

</svg>
