<?xml version="1.0" standalone="no"?>
<!DOCTYPE svg PUBLIC "-//W3C//DTD SVG 1.1//EN" "http://www.w3.org/Graphics/SVG/1.1/DTD/svg11.dtd" >
<svg xmlns="http://www.w3.org/2000/svg" xmlns:xlink="http://www.w3.org/1999/xlink" version="1.1" viewBox="0 -205 1024 1024">
  <g transform="matrix(1 0 0 -1 0 819)">
   <path fill="currentColor"
d="M66 485h154v150h-25q-27 1 -45 -13l-30 29q-45 -61 -96 -104l-8 10q38 47 93 138q56 93 79 169q24 77 21 88t-14 26l6 6l83 -29q6 -4 5 -6q0 -3 -7 -5q-21 -3 -27 -19q-2 -5 -6 -17q-4 -11 -6 -17q49 -15 88 -40q87 -56 81 -106q-4 -20 -21 -22q-16 -1 -27 30
q-11 33 -43 68q-28 32 -84 55q-36 -94 -83 -172q-15 -26 -32 -49h176l24 30l58 -40q8 -5 7 -8q-2 -2 -13 -2h-118v-150h90l24 30l46 -40q8 -5 7 -8q-2 -2 -13 -2h-154v-230l46 57q54 63 51 74q-3 12 -11 27l6 7l66 -40q15 -9 5 -15q-18 3 -31 -7q-55 -57 -132 -126v-30
l138 33l4 -14q-63 -21 -152 -49q-34 -10 -47 -14q-59 -20 -82 -29t-41 -39l-49 59l193 45v291h-75q-27 1 -45 -13zM497 690l31 -34h330l21 29l40 -35q7 -6 5 -10q-1 -5 -11 -7l-14 -11v-74l6 -41q0 -30 -44 -31v30h-323v-3q2 -27 -45 -36v4q5 33 7 70v100q-3 22 -17 38z
M663 999l76 -34q14 -5 6 -11q-16 -4 -27 -18v-71h118l28 32l60 -40q8 -6 7 -8q-2 -3 -13 -2h-200v-98h194l26 32l58 -42q8 -5 7 -8q-2 -2 -13 -2h-493q-27 1 -45 -13l-34 33h262v98h-142q-19 -36 -51 -75l-14 2q49 96 58 160q0 10 -12 20l6 12l69 -23q7 -5 7 -9
q-1 -3 -10 -5q-12 -5 -19 -11t-25 -51l-1 -2h134v81q2 17 -25 42zM538 524h323v114h-323v-114zM736 484l79 -30q14 -5 6 -11q-21 -7 -30 -21v-27h113l14 28l58 -36q8 -6 7 -8q-2 -3 -13 -2h-179v-84h103l18 26l48 -34q8 -6 7 -8q-2 -3 -13 -2h-163v-85h121l18 29l58 -37
q8 -6 7 -8q-2 -3 -13 -2h-191v-44l2 -49q2 -39 -45 -48q5 37 7 134v267q2 16 -28 40zM446 294h159v80h-94q-27 1 -45 -13l-34 31h173v40q2 16 -30 40l9 12l81 -30q14 -5 6 -11q-21 -7 -30 -21v-298l2 -57q4 -37 -45 -44v4q5 33 7 70v74h-106q-27 1 -45 -13l-34 31h185v87
h-80q-27 1 -45 -13zM61 380l10 8q95 -63 94 -133q0 -34 -19 -39q-19 -4 -19 23t-9 60t-57 81z" />
  </g>

</svg>
