<?xml version="1.0" standalone="no"?>
<!DOCTYPE svg PUBLIC "-//W3C//DTD SVG 1.1//EN" "http://www.w3.org/Graphics/SVG/1.1/DTD/svg11.dtd" >
<svg xmlns="http://www.w3.org/2000/svg" xmlns:xlink="http://www.w3.org/1999/xlink" version="1.1" viewBox="0 -205 1024 1024">
  <g transform="matrix(1 0 0 -1 0 819)">
   <path fill="currentColor"
d="M877 998l65 -60q9 -9 9 -14t-9 -6q-31 8 -67 0q-117 -35 -252 -53l76 -27q11 -4 13 -7q2 -4 -5 -8q-14 -5 -26 -14q0 -2 -1 -7q-6 -54 -16 -119h233l31 42l60 -44q11 -8 9 -13q-2 -4 -16 -5h-320l-16 -99q0 -2 -1 -7q-3 -19 -6 -28h205l29 30l55 -47q5 -4 5 -7
q-1 -3 -8 -5q-25 4 -37 -44q-1 -2 -2 -8q-26 -92 -82 -187q-1 -2 -4 -6q-6 -11 -19 -28q50 -60 96 -92q50 -37 108 -46l1 -14q-53 7 -77 -27q-75 47 -136 118l-21 27q-31 -36 -75 -69q-86 -70 -182 -100l-2 14q80 44 143 98q54 44 92 91q-31 48 -57 101q-31 63 -50 133
q-22 -75 -57 -149q-59 -124 -167 -218l-8 12q172 201 219 487q1 3 2 10q4 26 9 60h-98q-27 1 -45 -13l-34 33h179q11 74 15 138q-4 20 -23 34l7 9q-79 -10 -165 -14v16q144 18 261 49q118 31 136 43t14 34zM117 943l36 -31h215l24 32l60 -40q8 -6 7 -9q-2 -3 -13 -3h-278
v-134h166l24 32l60 -36q8 -6 7 -9q-2 -3 -13 -3h-244v-142h160l24 32l60 -36q8 -6 7 -9q-2 -3 -13 -3h-238v-148h214l24 32l60 -42q8 -5 7 -8q-2 -2 -13 -2h-278l50 -22q5 -5 5 -8q-1 -3 -7 -5q-17 0 -25 -14q-28 -50 -106 -166q24 2 126 11q91 9 150 14q-1 4 -5 12
q-3 8 -5 12q-16 33 -53 69l6 10q111 -61 114 -134q3 -35 -18 -40t-27 29q-2 11 -5 22l-219 -30q-72 -12 -86 -30l-40 52q26 0 44 25q54 84 84 158q7 15 -2 35h-74q-27 1 -45 -13l-34 33h114v448q3 21 -19 45zM686 378q29 -63 67 -116q32 48 55 105q28 70 46 142h-221v-3
q19 -55 53 -128z" />
  </g>

</svg>
