<?xml version="1.0" standalone="no"?>
<!DOCTYPE svg PUBLIC "-//W3C//DTD SVG 1.1//EN" "http://www.w3.org/Graphics/SVG/1.1/DTD/svg11.dtd" >
<svg xmlns="http://www.w3.org/2000/svg" xmlns:xlink="http://www.w3.org/1999/xlink" version="1.1" viewBox="0 -205 1024 1024">
  <g transform="matrix(1 0 0 -1 0 819)">
   <path fill="currentColor"
d="M114 936l36 -31h215l24 32l60 -40q8 -6 7 -9q-2 -3 -13 -3h-278v-138h162l24 32l60 -36q8 -6 7 -9q-2 -3 -13 -3h-240v-134h160l24 32l60 -36q8 -6 7 -9q-2 -3 -13 -3h-238v-144h210l24 32l60 -42q8 -5 7 -8q-2 -2 -13 -2h-258l50 -22q5 -5 5 -8q-1 -3 -7 -5
q-17 0 -25 -14q-28 -49 -118 -177q60 6 294 21l-9 21l-5 10q-18 33 -59 73l6 10q120 -68 122 -138q3 -36 -18 -38q-21 -5 -27 27l-3 15l-237 -27q-72 -12 -86 -30l-40 52q26 0 44 25q66 96 96 170q7 15 -2 35h-86q-27 1 -45 -13l-34 33h110v440q3 21 -19 45zM552 730l46 -42
h175l25 31l51 -37q5 -9 -11 -14l-15 -14v-477q1 -48 50 -38q85 -17 87 54l7 125h17l3 -110q2 -42 26 -53q-16 -40 -48 -51q-31 -11 -132 -5q-52 14 -54 71v498h-170v-164q0 -184 -67 -292q-67 -105 -161 -153l-4 16q86 67 137 168q51 103 51 275v158q-4 21 -26 45zM533 962
q2 -25 3 -46h375l29 31l60 -54q2 -5 -1 -7q-2 -2 -9 0q-29 -5 -51 -32q-2 -3 -4 -5q-13 -15 -46 -69l-15 6l40 110h-378q0 -13 -1 -24q-3 -50 -34 -84q-32 -32 -51 -6q-12 17 11 36q23 20 38 52t17 92h17z" />
  </g>

</svg>
