<?xml version="1.0" standalone="no"?>
<!DOCTYPE svg PUBLIC "-//W3C//DTD SVG 1.1//EN" "http://www.w3.org/Graphics/SVG/1.1/DTD/svg11.dtd" >
<svg xmlns="http://www.w3.org/2000/svg" xmlns:xlink="http://www.w3.org/1999/xlink" version="1.1" viewBox="0 0 2048 2048">
  <g transform="matrix(1 0 0 -1 0 2048)">
   <path fill="currentColor"
d="M1149 1943l109 -24q82 -18 85 -44t-50 -44l-41 -13v-234h42l80 81l114 -86q21 -16 15 -34q-5 -19 -25 -19l-226 1v-269q47 9 201 58l18 -35q-161 -78 -388 -150q-65 -24 -106 -37l-6 -15q-12 -39 -29 -40q-18 -2 -29 20l-61 122l111 16l2 417q0 115 -8 160l94 -24
q83 -21 85 -44q2 -19 -16 -27l-34 -16l-26 -14l-1 -436l98 19v551q-1 115 -8 160zM1692 391h-600v-51q0 -37 -52 -37q-59 0 -55 60l4 57l3 79l4 77v305q0 72 -10 158l115 -73h571l68 77l87 -57q37 -25 37 -47q0 -28 -77 -61v-287q0 -23 3 -85q2 -34 4 -80q2 -40 4 -58
q5 -55 -63 -59q-43 -3 -43 25v57zM1692 451v210h-600v-210h600zM1692 909h-600v-192h600v192zM1748 196l98 101l121 -107q20 -18 15 -33q-5 -19 -25 -19h-912q-118 0 -192 -8l-38 88q96 -22 230 -22h703zM1519 1935l109 -22q81 -16 85 -46q4 -29 -49 -44l-41 -11v-203h134
l80 80l114 -86q21 -15 15 -33q-5 -18 -25 -19h-318v-271q0 -55 38 -68q33 -10 83 -10q48 0 77 14q33 16 45 88l26 156l43 -3l-6 -120q-3 -69 8 -91q5 -9 41 -38q13 -9 14 -26q5 -69 -245 -69q-107 0 -153 17q-68 25 -68 111v534q0 118 -7 160zM631 1798l98 101l121 -107
q20 -18 15 -33q-5 -18 -25 -18h-483v-240h219l99 102l121 -107q20 -18 15 -33q-5 -18 -26 -18h-428v-237h219l99 101l121 -107q20 -17 15 -33q-5 -18 -26 -18h-428v-257h315l99 101l120 -107q21 -18 16 -32q-6 -19 -26 -19h-443q-106 -268 -251 -490q199 30 501 99
q-46 119 -112 212l25 23q136 -134 192 -247q40 -80 29 -133q-13 -63 -65 -53q-35 7 -38 65q-2 27 -16 87q-65 -20 -98 -31q-119 -37 -225 -68q-78 -23 -147 -46q-10 -65 -35 -72q-22 -6 -41 38l-46 114q137 220 210 502h-73q-69 0 -149 -10l-39 85q120 -18 188 -18h14v857
q-2 81 -14 137l118 -90h265z" />
  </g>

</svg>
