<?xml version="1.0" standalone="no"?>
<!DOCTYPE svg PUBLIC "-//W3C//DTD SVG 1.1//EN" "http://www.w3.org/Graphics/SVG/1.1/DTD/svg11.dtd" >
<svg xmlns="http://www.w3.org/2000/svg" xmlns:xlink="http://www.w3.org/1999/xlink" version="1.1" viewBox="0 0 2048 2048">
  <g transform="matrix(1 0 0 -1 0 2048)">
   <path fill="currentColor"
d="M243 1344l118 -88h394l68 76l80 -54q40 -27 40 -48q0 -30 -77 -61v-297l5 -54l2 -51q8 -50 6 -59q-7 -28 -59 -33q-46 -5 -48 24l-1 22h-418v-617q0 -14 -13 -24q-22 -16 -51 -11q-40 8 -44 49q-1 17 6 84q7 141 7 143v847q0 84 -15 152zM353 777h418v188h-418v-188z
M353 1023h418v176h-418v-176zM1164 1320l116 -64h408l68 76l83 -54q40 -26 40 -48q0 -32 -79 -61v-927q0 -139 -156 -171q-5 19 -7 29q-15 58 -59 74q-24 9 -140 33l8 46q134 -22 189 -26q69 -6 69 56v438h-448v-8q0 -36 -49 -38q-60 -3 -54 52l4 41q6 96 6 105zM1256 777
h448v185h-448v-185zM1256 1020h448v179h-448v-179zM1688 1824l98 101l121 -107q20 -18 15 -33q-6 -19 -26 -19h-1585q-64 0 -149 -11l-39 86q123 -17 188 -17h1377zM1597 1551l98 102l121 -107q20 -18 15 -34q-5 -18 -25 -18l-1370 -1q-69 0 -149 -10l-39 85
q123 -17 188 -17h1161z" />
  </g>

</svg>
