<?xml version="1.0" standalone="no"?>
<!DOCTYPE svg PUBLIC "-//W3C//DTD SVG 1.1//EN" "http://www.w3.org/Graphics/SVG/1.1/DTD/svg11.dtd" >
<svg xmlns="http://www.w3.org/2000/svg" xmlns:xlink="http://www.w3.org/1999/xlink" version="1.1" viewBox="0 -205 1024 1024">
  <g transform="matrix(1 0 0 -1 0 819)">
   <path fill="currentColor"
d="M583 987l37 -49h223l28 43l52 -42q9 -6 9 -11q0 -4 -9 -8l-20 -13v-805q0 -26 -12 -48t-73 -31q-4 30 -46 46q-42 15 -81 23l2 14q113 -17 132 -17q20 0 27 6q8 6 7 70v531h-234q-1 -13 -12 -21q-12 -10 -34 -15q1 8 3 23q2 16 4 40v210q-4 24 -18 42zM99 983l39 -44h238
l23 35l42 -39q7 -6 5 -10q-1 -5 -11 -7l-14 -13v-172l4 -24q6 -40 -44 -44v32h-233v-537l4 -95q1 -35 -55 -46q5 39 7 187v725q-4 28 -20 41zM569 634l65 -24q17 -10 7 -15q-17 0 -26 -7q-33 -54 -56 -95h120l37 39l46 -47q7 -6 5 -10q-1 -5 -11 -7l-18 -9v-234l3 -50
q-1 -30 -43 -31v54h-205v-31q3 -34 -47 -42q5 36 7 133v222q2 16 -19 37l12 16l38 -40h47l19 42q26 63 24 71q-1 9 -13 23zM440 606q2 -4 1 -6t-6 -2q-18 5 -33 -13q-28 -45 -55 -84v-290l2 -56q3 -34 -49 -42q5 37 7 145v189l-2 -2q-48 -62 -111 -104l-6 8q94 104 152 210
q30 54 26 62q-3 8 -13 23l11 5zM698 343h-205v-128h205v128zM493 359h205v116h-205v-116zM148 826h233v95h-233v-95zM381 810h-233v-95h233v95zM859 809h-233v-95h233v95zM626 825h233v95h-233v-95z" />
  </g>

</svg>
