<?xml version="1.0" standalone="no"?>
<!DOCTYPE svg PUBLIC "-//W3C//DTD SVG 1.1//EN" "http://www.w3.org/Graphics/SVG/1.1/DTD/svg11.dtd" >
<svg xmlns="http://www.w3.org/2000/svg" xmlns:xlink="http://www.w3.org/1999/xlink" version="1.1" viewBox="0 -205 1024 1024">
  <g transform="matrix(1 0 0 -1 0 819)">
   <path fill="currentColor"
d="M585 993l33 -45h227l28 43l50 -42q9 -6 9 -11q0 -4 -9 -8l-20 -13v-823q0 -26 -12 -48t-65 -31q-4 30 -43 45q-39 14 -78 22l2 14q107 -15 123 -15q17 0 24 6q8 6 7 70v549h-238q-2 -13 -11 -21q-10 -10 -33 -15q1 8 3 23q2 16 4 40v210q-5 24 -16 40zM99 993l37 -44h242
l21 35l42 -39q7 -6 5 -10q-1 -5 -11 -7l-14 -13v-172l4 -41q5 -39 -42 -44v49h-237v-549l4 -95q1 -36 -53 -46q5 39 7 187v737q-4 28 -20 41zM519 644l38 -39h151l20 31l36 -30q9 -6 9 -11q0 -4 -9 -8l-14 -11v-395q0 -24 -9 -39q-9 -17 -64 -26q-2 35 -111 53v14
q99 -17 116 -17q18 0 25 6q8 6 7 71v93h-159q-10 -49 -29 -89q-44 -91 -172 -162l-6 12q102 78 143 160q41 83 35 229v111q-4 19 -20 37zM237 626l32 -36h137l23 29l40 -33q7 -6 5 -10q-1 -5 -11 -7l-16 -11v-238l2 -45q2 -32 -38 -31v47h-135v-24q4 -38 -43 -44q5 37 7 116
v240q-3 20 -17 36zM861 819h-237v-95h237v95zM624 835h237v95h-237v-95zM146 836h237v95h-237v-95zM383 820h-237v-95h237v95zM564 468q2 -63 -7 -116h157v116h-150zM564 484h150v103h-150v-103zM411 435h-135v-126h135v126zM276 451h135v121h-135v-121z" />
  </g>

</svg>
