<?xml version="1.0" standalone="no"?>
<!DOCTYPE svg PUBLIC "-//W3C//DTD SVG 1.1//EN" "http://www.w3.org/Graphics/SVG/1.1/DTD/svg11.dtd" >
<svg xmlns="http://www.w3.org/2000/svg" xmlns:xlink="http://www.w3.org/1999/xlink" version="1.1" viewBox="0 -205 1024 1024">
  <g transform="matrix(1 0 0 -1 0 819)">
   <path fill="currentColor"
d="M585 993l32 -44h242l20 31l38 -28q9 -6 9 -11q0 -4 -9 -8l-14 -13v-805q0 -26 -12 -48t-69 -31q-4 30 -46 46q-42 15 -81 23l2 14q113 -17 132 -17q20 0 27 6q8 6 7 70v555h-243q-2 -10 -10 -16q-11 -10 -31 -15q1 9 3 25q2 14 4 36v180q-5 24 -16 38zM99 993l37 -44h244
l21 35l40 -39q7 -5 5 -9q-1 -4 -11 -6l-14 -13v-150l4 -22q6 -40 -40 -44v32h-241v-561l4 -95q2 -36 -51 -46q5 39 7 187v725q-4 26 -20 39zM473 393v-209q0 -22 -9 -35q-9 -15 -56 -24q0 31 -75 46l2 13q61 -13 74 -13q14 0 21 6q8 6 7 55v25h-157v-46l4 -48q3 -36 -47 -44
q5 38 7 103v192q-1 19 -8 23l12 9l24 -24h159l14 23l38 -26q9 -6 9 -11q0 -4 -9 -8zM537 349l3 12q71 -26 123 -58q28 42 56 96h-122q-25 1 -36 -14l-31 30h185l24 25l43 -36q7 -7 7 -11t-7 -5q-14 3 -22 -5q-7 -5 -27 -39q-7 -10 -24 -36l-16 -24l5 -4q124 -91 90 -130
q-17 -14 -41 21q-22 37 -69 80q-3 2 -5 5q-27 -34 -64 -61q-45 -35 -107 -60l-6 12q58 32 94 66q30 29 56 64q-42 33 -109 72zM622 848h241v85h-241v-85zM144 848h241v85h-241v-85zM385 834h-241v-85h241v85zM863 834h-241v-85h241v85zM564 666l33 -28h88l20 25l45 -31
q6 -5 4 -10q-1 -4 -10 -6l-13 -11v-67q-2 -53 39 -46q19 4 37 20h5q15 -13 31 -20q8 -3 9 -5q1 -3 -4 -5l-44 -12l-24 -4q-35 -1 -47 2q-13 3 -26 15q-14 14 -14 66v73h-84v-30q2 -126 -106 -166l-4 10q36 30 53 62t19 100v29q-4 19 -16 29zM226 573h217v58h-163
q-18 2 -38 -14l-33 30h232l19 25l37 -29q7 -6 6 -10t-10 -6l-14 -10v-80l4 -41q0 -30 -40 -31v18h-158q-27 1 -45 -13l-32 29h235v60h-140q-27 1 -45 -13zM437 335h-157v-64h157v64zM280 349h157v57h-157v-57z" />
  </g>

</svg>
