<?xml version="1.0" standalone="no"?>
<!DOCTYPE svg PUBLIC "-//W3C//DTD SVG 1.1//EN" "http://www.w3.org/Graphics/SVG/1.1/DTD/svg11.dtd" >
<svg xmlns="http://www.w3.org/2000/svg" xmlns:xlink="http://www.w3.org/1999/xlink" version="1.1" viewBox="0 -205 1024 1024">
  <g transform="matrix(1 0 0 -1 0 819)">
   <path fill="currentColor"
d="M596 986l32 -47h229l30 43l49 -40q9 -6 9 -11t-9 -8l-21 -11v-808q1 -25 -11 -46q-13 -20 -72 -29q-4 30 -46 44q-7 2 -19 6q-23 7 -46 15l2 14q96 -17 116 -17t27 6t7 71v192q-41 2 -54 0q-15 -3 -24 -21q-36 18 -88 55q-56 38 -96 100q-43 63 -72 190l16 7
q11 -31 21 -58h143l39 27l47 -44q2 -5 -1 -7q-2 -1 -9 1q-21 -3 -28 -9q-3 -4 -19 -20q-11 -12 -18 -19q-27 -29 -70 -77q13 -15 28 -26q36 -30 66 -47q28 -17 55 -23q5 -1 17 -4q28 -7 47 -11v342h-236v-1q-1 -10 -10 -18q-10 -10 -36 -15q4 28 8 87v163q-5 24 -20 42z
M110 986l42 -48h226l32 41l48 -47q7 -6 5 -10q-1 -5 -11 -7l-18 -9v-143l4 -43q2 -19 -10 -28q-11 -9 -32 -12v36h-239v-535l5 -96q0 -21 -15 -31q-15 -9 -39 -15q4 30 7 189v706q-5 27 -20 41zM170 279l-8 7q55 33 121 86q59 53 95 99q41 53 87 144h-121q-13 -21 -28 -40
q27 -6 48 -21q22 -17 23 -35q0 -20 -17 -22q-15 -1 -18 17t-14 30q-11 10 -29 22q-59 -77 -131 -128l-9 7q93 92 143 179q19 35 18 48q-3 11 -10 25l8 6l69 -25q9 -3 10 -5q2 -2 -3 -5q-23 -1 -37 -14q-6 -10 -12 -21h95l25 31l52 -43q4 -4 4 -7q-1 -3 -7 -4q-10 0 -16 -6
q-5 -4 -32 -51q-27 -45 -71 -100q-46 -54 -107 -101q-62 -48 -128 -73zM247 311h451l24 26l76 -34q8 -5 6 -7t-12 -1h-252v-186q-1 -26 -16 -39q-16 -11 -69 -24q-3 20 -27 29q-19 7 -75 20l2 13l33 -6q66 -12 88 -7q22 9 23 43v157h-172q-28 0 -46 -10zM157 820v-86h239v86
h-239zM637 820v-86h236v86h-236zM873 921h-236v-85h236v85zM396 920h-239v-84h239v84zM619 544q15 -26 31 -47l83 118h-149q17 -41 35 -71zM361 270l66 -34q12 -11 3 -14q-20 3 -48 -11q-97 -69 -183 -107l-8 9q51 33 109 78q50 41 56 50q4 6 -5 23zM600 251l4 10
q128 -43 165 -85q20 -24 17 -40q-3 -19 -18 -19q-14 -1 -29 26q-38 57 -139 108zM377 414h196l24 32l61 -37q8 -5 6 -8q-2 -2 -12 -1h-207q-19 0 -37 -12zM246 493l7 3q33 -12 47 -31q14 -20 9 -37q-6 -19 -19 -17q-13 1 -12 19q0 18 -7 32q-7 15 -25 31z" />
  </g>

</svg>
