<?xml version="1.0" standalone="no"?>
<!DOCTYPE svg PUBLIC "-//W3C//DTD SVG 1.1//EN" "http://www.w3.org/Graphics/SVG/1.1/DTD/svg11.dtd" >
<svg xmlns="http://www.w3.org/2000/svg" xmlns:xlink="http://www.w3.org/1999/xlink" version="1.1" viewBox="0 -205 1024 1024">
  <g transform="matrix(1 0 0 -1 0 819)">
   <path fill="currentColor"
d="M906 921v-827q0 -26 -12 -45t-69 -28q-4 30 -46 43q-42 12 -81 20l2 14q113 -17 132 -17q20 0 27 6q8 6 7 70v592h-248q-1 -16 -12 -24q-12 -10 -30 -15q5 39 7 111v124q-5 20 -16 30l15 10l30 -37h238l30 39l46 -34q9 -6 9 -11q0 -4 -9 -8zM96 995l37 -46h246l25 33
l40 -35q7 -5 5 -9q-1 -4 -11 -6l-14 -13v-98l4 -58q8 -42 -40 -44v30h-247v-587l4 -95q1 -35 -51 -46q5 39 7 187v735q-4 28 -20 41zM456 742l74 -28q14 -5 6 -11q-16 -4 -27 -18v-24h148l21 27l36 -23q8 -5 9 -9q0 -3 -6 -7l-15 -12v-35h54l16 29l51 -33q6 -4 4 -7
q-3 -3 -12 -3h-113v-25l4 -20q-4 -26 -40 -28v14h-157v-53h151l16 23l45 -28q5 -5 3 -6q-1 -2 -11 -1h-204v-53h213l14 23l49 -30q5 -5 3 -6q-1 -2 -11 -1h-501q-27 1 -45 -13l-28 27h270v53h-125q-27 1 -45 -13l-32 25h202v53h-137q-27 1 -45 -13l-32 25h214v47h-211
q-24 1 -45 -14l-32 28h288v47h-140q-18 2 -38 -14l-31 26h209v34q2 17 -25 36zM299 366l26 -19h326l13 19l40 -19q7 -6 5 -10q-1 -5 -11 -7l-8 -11v-86l4 -34q-2 -23 -40 -25v26h-321q-1 -10 -9 -19t-34 -14q5 29 7 61v103q1 20 -7 27zM141 855h247v80h-247v-80zM866 843
h-247v-80h247v80zM388 843h-247v-80h247v80zM619 855h247v79h-247v-79zM198 146h528l20 27l51 -34q5 -5 3 -6q-1 -2 -11 -1h-514q-27 1 -45 -13zM507 279h147v54h-147v-54zM475 333h-142v-54h142v54zM509 602h157v47h-157v-47zM654 267h-147v-54h147v54zM475 267h-142v-54
h142v54zM666 588h-157v-47h157v47z" />
  </g>

</svg>
