<?xml version="1.0" standalone="no"?>
<!DOCTYPE svg PUBLIC "-//W3C//DTD SVG 1.1//EN" "http://www.w3.org/Graphics/SVG/1.1/DTD/svg11.dtd" >
<svg xmlns="http://www.w3.org/2000/svg" xmlns:xlink="http://www.w3.org/1999/xlink" version="1.1" viewBox="0 0 2048 2048">
  <g transform="matrix(1 0 0 -1 0 2048)">
   <path fill="currentColor"
d="M643 1386l131 -46q47 -17 47 -35q0 -26 -38 -30l-61 -8l-34 -49h667l98 102l121 -107q20 -18 16 -34q-6 -18 -26 -18h-914q-110 -112 -235 -180l-22 31q161 120 250 374zM650 875v87q0 114 -8 160l106 -24q80 -18 84 -43q3 -28 -48 -44l-40 -12v-124h126v80q0 118 -8 160
l107 -24q81 -19 84 -44q2 -29 -49 -44l-40 -11v-117h126v80q0 117 -8 160l107 -24q80 -19 83 -44q3 -29 -48 -44l-40 -11v-117h131v76q0 114 -8 160l106 -24q81 -18 84 -44q4 -29 -48 -44l-40 -11v-113l46 1l75 87l108 -93q20 -18 15 -34q-6 -19 -25 -19h-219v-196h51
l96 102l117 -107q21 -19 16 -34q-6 -19 -26 -19h-1054q-111 0 -188 -8l-37 88q88 -22 225 -22h41v196h-31q-72 0 -151 -8l-37 88q89 -22 188 -22h31zM744 621h126v196h-126v-196zM964 621h126v196h-126v-196zM1184 621h131v196h-131v-196zM633 514l39 -8q-16 -116 -56 -195
q-54 -104 -120 -116q-35 -6 -56 17q-14 16 -8 38q8 27 56 58q70 44 99 89q26 41 46 117zM851 506q14 -24 50 -82q44 -72 44 -148q0 -66 -51 -77q-32 -7 -48 18q-12 18 -9 50q10 91 3 132q-6 40 -22 87zM1097 485q145 -125 157 -197q5 -33 -11 -55q-25 -33 -63 -19
q-26 10 -32 59q-10 81 -78 187zM1370 496q27 -22 41 -32q125 -95 125 -161q0 -45 -34 -59q-45 -17 -63 48q-24 92 -94 176zM163 1923l114 -76h470l68 76l80 -55q42 -28 40 -48q-2 -23 -77 -61v-236q3 -68 4 -72q4 -35 4 -42q0 -38 -53 -43q-45 -5 -49 27l-1 17h-494v-1329
q0 -35 -50 -32q-60 3 -56 60l5 57l3 79l4 76l-1 1461q0 34 -11 141zM269 1658h494v131h-494v-131zM269 1466h494v136h-494v-136zM1154 1909l110 -61l476 -1l68 76l84 -55q40 -26 40 -48q0 -32 -80 -61v-1533q0 -82 -63 -132q-21 -17 -92 -38q-9 55 -22 70q-36 43 -174 54
l4 46q76 -11 169 -16q83 -5 83 58v1142h-509v-20q0 -28 -44 -30q-62 -4 -57 43l4 34l1 31l3 49zM1248 1658h509v131h-509v-131zM1248 1466h509v136h-509v-136z" />
  </g>

</svg>
