<?xml version="1.0" standalone="no"?>
<!DOCTYPE svg PUBLIC "-//W3C//DTD SVG 1.1//EN" "http://www.w3.org/Graphics/SVG/1.1/DTD/svg11.dtd" >
<svg xmlns="http://www.w3.org/2000/svg" xmlns:xlink="http://www.w3.org/1999/xlink" version="1.1" viewBox="0 -205 1024 1024">
  <g transform="matrix(1 0 0 -1 0 819)">
   <path fill="currentColor"
d="M469 983l32 -32h335l29 35l46 -43q7 -6 5 -10q-1 -5 -11 -7l-16 -9v-194l2 -45q1 -31 -44 -31v42h-333v-11q3 -36 -49 -44q5 37 7 100v200q-3 22 -17 38zM595 505l68 -33q7 -8 -4 -11q-16 -2 -21 -7t-41 -65l-6 -9h303l28 36l64 -46q8 -5 7 -8q-2 -2 -13 -2h-131
q-17 -51 -61 -116q-18 -28 -44 -53q34 -16 68 -34q134 -72 98 -118q-16 -15 -42 15q-25 30 -91 70q-31 20 -67 36q-31 -25 -72 -51q-100 -65 -273 -85l-4 16q146 30 231 85q42 26 77 55q-19 8 -39 17q-81 34 -163 56q41 62 68 107h-84q-27 1 -45 -13l-34 33h175q8 14 20 36
q1 2 2 3q29 54 27 61q0 8 -9 18zM325 882l-36 -88q-34 -76 -66 -132q98 -82 121 -156q13 -36 11 -77q-10 -121 -140 -141q10 41 -94 66l4 16q68 -17 96 -18q32 -1 50 11q42 30 38 92q-2 45 -26 89q-24 51 -84 110q44 116 84 248h-169v-765l3 -73q1 -34 -54 -46q5 39 7 126
v763q-6 29 -24 48l12 11l45 -44h167l35 44l54 -46q13 -10 2 -15q-19 -5 -36 -23zM847 815h-333v-106h333v106zM514 831h333v100h-333v-100zM577 360q-40 -58 -70 -93q68 -12 148 -41q23 -8 45 -17q17 17 31 35q48 61 66 116h-220zM439 593q2 -16 4 -45v-3h475l25 26l50 -41
q6 -7 5 -11q-2 -3 -11 -2q-33 0 -83 -74l-19 4l36 78h-478q0 -31 -11 -54q-12 -32 -41 -29q-32 11 -8 38q36 34 40 113h16zM601 677q90 -26 98 -79q5 -27 -15 -32q-19 -5 -24 17t-23 46t-40 36z" />
  </g>

</svg>
