<?xml version="1.0" standalone="no"?>
<!DOCTYPE svg PUBLIC "-//W3C//DTD SVG 1.1//EN" "http://www.w3.org/Graphics/SVG/1.1/DTD/svg11.dtd" >
<svg xmlns="http://www.w3.org/2000/svg" xmlns:xlink="http://www.w3.org/1999/xlink" version="1.1" viewBox="0 0 2048 2048">
  <g transform="matrix(1 0 0 -1 0 2048)">
   <path fill="currentColor"
d="M1660 1771v-761h104l68 76l83 -54q40 -26 40 -49q0 -27 -77 -61v-695q0 -143 -154 -171q-11 70 -47 93q-33 21 -159 43l8 46q138 -22 186 -27q68 -6 68 57v688h-856v-844q0 -54 -62 -54q-56 0 -53 49q0 18 4 45q12 106 12 208v604q-4 69 -10 126l112 -80h99v761h-16
q-117 0 -192 -8l-38 89q96 -23 230 -23h682l98 101l121 -107q20 -18 16 -33q-6 -19 -26 -19h-241zM1564 1771h-442v-207h442v207zM1122 1010h442v229h-442v-229zM1564 1508h-442v-213h442v213zM1187 763h289l68 76l84 -55q40 -26 40 -48q0 -27 -78 -62v-197l40 -31
q24 -18 23 -36q-1 -20 -18 -20h-455v-38q0 -29 -44 -29q-60 0 -60 51l9 162v142q0 2 -9 167zM1180 446h316v259h-316v-259zM280 1760v-1394q0 -111 13 -219q3 -28 3 -54q0 -38 -49 -41q-63 -5 -63 41v1667q0 54 -13 146l118 -88h260l72 83l68 -54q54 -42 50 -68
q-3 -19 -50 -38l-29 -11q-128 -296 -225 -471q133 -130 194 -225q104 -160 86 -337q-13 -132 -83 -190q-51 -42 -144 -57q-6 55 -37 76q-23 15 -123 50l8 42q129 -29 178 -32q99 -7 99 148q0 164 -69 289q-63 115 -162 225q111 295 175 512h-277z" />
  </g>

</svg>
