<?xml version="1.0" standalone="no"?>
<!DOCTYPE svg PUBLIC "-//W3C//DTD SVG 1.1//EN" "http://www.w3.org/Graphics/SVG/1.1/DTD/svg11.dtd" >
<svg xmlns="http://www.w3.org/2000/svg" xmlns:xlink="http://www.w3.org/1999/xlink" version="1.1" viewBox="0 -205 1024 1024">
  <g transform="matrix(1 0 0 -1 0 819)">
   <path fill="currentColor"
d="M465 500l39 -43h343l23 29l50 -35q7 -6 5 -10q-1 -5 -11 -7l-16 -11v-301l4 -51q-1 -30 -44 -31v76h-347v-45q4 -37 -47 -44q5 37 7 100v322q-3 19 -17 41zM325 883l-38 -88q-32 -74 -62 -124q99 -82 120 -157q12 -37 10 -77q-9 -109 -134 -140q10 36 -86 58l4 16
q108 -23 134 0q42 29 38 93q-2 45 -26 89q-24 51 -84 110q44 108 84 240h-161v-767l3 -73q1 -33 -52 -46q5 39 7 126v765q-6 29 -24 48l12 11l44 -44h158l35 44l50 -48q13 -10 2 -15q-19 -3 -34 -21zM740 923l31 -38h136l39 37l40 -45q7 -6 5 -10q-1 -5 -11 -7l-18 -9v-242
l2 -45q0 -31 -38 -31v52h-147v-23q4 -38 -43 -44q5 38 7 114v240q-3 22 -17 40zM858 285h-347v-149h347v149zM511 301h347v136h-347v-136zM436 975l73 -29q7 -5 7 -9q-1 -3 -10 -5q-12 -3 -19 -8q-6 -4 -28 -50h144l20 32l64 -40q8 -6 7 -9q-2 -3 -13 -3h-117
q-1 -58 -8 -118q0 -2 -1 -8q-1 -5 -2 -8h92l20 28l54 -38q8 -5 7 -8q-2 -2 -13 -2h-164l-5 -18q53 -19 84 -45q68 -53 62 -93q-2 -21 -19 -24t-25 21q-7 24 -39 63q-26 32 -70 58q-10 -28 -26 -57q-37 -66 -145 -124l-6 14q78 60 107 108q25 42 40 97h-81q-27 1 -45 -13
l-34 33h165q13 57 14 134h-76q-29 -63 -74 -99l-14 6q46 71 64 123q18 53 16 62q-1 9 -12 17zM779 605h147v260h-147v-260z" />
  </g>

</svg>
