<?xml version="1.0" standalone="no"?>
<!DOCTYPE svg PUBLIC "-//W3C//DTD SVG 1.1//EN" "http://www.w3.org/Graphics/SVG/1.1/DTD/svg11.dtd" >
<svg xmlns="http://www.w3.org/2000/svg" xmlns:xlink="http://www.w3.org/1999/xlink" version="1.1" viewBox="0 0 2048 2048">
  <g transform="matrix(1 0 0 -1 0 2048)">
   <path fill="currentColor"
d="M1236 1357l79 81l115 -86q21 -16 16 -34q-6 -18 -26 -18h-579q-67 0 -148 -11l-39 86q119 -18 187 -18h395zM931 1484v-12q0 -27 -45 -30q-68 -5 -60 51q10 74 10 104l1 74h-19q-54 0 -140 -11l-39 86q27 -4 40 -6q60 -8 158 -12v30q-4 143 -7 160l101 -25q70 -16 74 -43
t-51 -43l-23 -6v-73h213v30q-4 145 -7 160l101 -25q70 -16 74 -43q4 -26 -52 -43l-22 -6v-73h33l79 81l91 -81q27 -23 24 -41q-3 -16 -30 -16h-197v-116l29 -26q21 -13 20 -27q-2 -18 -27 -18h-329zM931 1544h213v127h-213v-127zM242 553h221l61 72l72 -49q37 -26 42 -44
q5 -20 -25 -37q-7 -4 -13 -7q-9 -5 -27 -14l-3 -244l41 -32q18 -15 15 -31q-4 -18 -17 -18h-367v-34q0 -59 -65 -53q-44 4 -42 49q1 18 4 46q11 104 12 209l1 1223q0 1 -10 159l104 -79l30 -1q79 147 113 275l118 -40q36 -13 38 -29q3 -26 -36 -30l-42 -4q-33 -45 -76 -93
q-36 -40 -68 -79l122 1l61 71l72 -49q37 -25 42 -44q5 -20 -25 -37q-6 -4 -13 -7q-9 -4 -27 -14l2 -227l31 -27q25 -19 24 -33q-1 -19 -17 -19h-353v-177h214l63 68l72 -51q33 -23 35 -46q2 -26 -69 -56v-226l30 -26q20 -17 19 -33q-1 -19 -19 -19h-345v-164zM242 1339h225
v272h-225v-272zM242 773h225v276h-225v-276zM242 495v-290h233v290h-233zM762 1275l129 -35q35 -9 29 -34q-4 -13 -28 -17l-45 -8l-23 -24q71 -29 96 -41q59 -29 74 -70q12 -32 -6 -56q-11 -14 -31 -14q-27 0 -54 56q-23 46 -101 96q-62 -87 -187 -168l-21 24q14 15 21 23
q105 106 147 268zM756 1017l110 -25q37 -8 40 -28q3 -21 -31 -37l-28 -13v-92q0 -4 4 -53q2 -26 2 -40q0 -38 -54 -38q-37 0 -37 28l1 146q0 88 -7 152zM1186 1271l129 -35q35 -9 29 -34q-4 -13 -27 -17l-45 -8l-24 -24q77 -28 107 -40q65 -28 83 -69q10 -24 0 -46.5
t-32 -23.5q-27 -2 -42 20q-2 2 -21 35q-26 44 -116 96q-64 -88 -188 -169l-21 24q14 15 22 23q104 105 146 268zM1180 1013l110 -25q37 -8 40 -28q3 -21 -30 -37l-28 -13v-92q0 -4 3 -53q2 -25 2 -40q0 -38 -54 -38q-37 0 -37 28l1 145q0 91 -7 153zM769 671l129 -35
q36 -10 29 -34q-4 -13 -27 -17l-45 -9l-23 -24q71 -28 96 -41q58 -28 74 -69q12 -32 -6 -56q-11 -14 -31 -14q-28 0 -55 55q-23 48 -100 97q-63 -87 -187 -168l-22 24l22 22q104 105 146 269zM764 413l110 -25q36 -8 39 -28q3 -21 -30 -37l-28 -13v-92q0 -4 3 -53
q2 -25 2 -40q0 -38 -54 -38q-37 0 -37 28l1 145q1 94 -6 153zM1194 667l128 -35q36 -10 29 -34q-3 -13 -27 -18l-45 -7l-23 -25q77 -27 107 -40q64 -28 82 -69q13 -30 -6 -55q-9 -13 -25 -15q-28 -2 -43 20q-2 3 -21 36q-25 44 -116 95q-62 -86 -187 -168l-22 24
q59 60 105 132q39 60 64 159zM1188 409l110 -25q37 -8 40 -28q3 -21 -31 -37l-28 -13v-92q0 -6 4 -53q2 -23 2 -40q0 -38 -54 -38q-38 0 -37 28l1 145q0 89 -7 153zM1782 1637h10l65 73l72 -50q37 -25 42 -44q5 -20 -25 -37q-1 0 -24 -12q-8 -4 -17 -9l1 -1196
q0 -108 11 -209q3 -29 4 -46q3 -46 -42 -49q-65 -5 -65 53v34h-226q-32 -17 -42 -19q-21 -6 -45 3q-19 8 -19 16v480l111 -76h221v164h-226q-40 -13 -64 -12q-38 2 -38 34v417l106 -50h222v150l-224 1q-26 -11 -47 -13q-53 -5 -53 29l-1 440l110 -71l135 -1q-35 42 -69 80
q-41 46 -75 93l-42 4q-39 4 -36 30q2 16 38 28l117 41q31 -118 115 -276zM1814 1308v272h-228v-272h228zM1814 769v276h-232v-276h232zM1814 491h-232v-290h232v290z" />
  </g>

</svg>
