<?xml version="1.0" standalone="no"?>
<!DOCTYPE svg PUBLIC "-//W3C//DTD SVG 1.1//EN" "http://www.w3.org/Graphics/SVG/1.1/DTD/svg11.dtd" >
<svg xmlns="http://www.w3.org/2000/svg" xmlns:xlink="http://www.w3.org/1999/xlink" version="1.1" viewBox="0 0 2048 2048">
  <g transform="matrix(1 0 0 -1 0 2048)">
   <path fill="currentColor"
d="M689 1295q66 83 96 136q11 21 42 88q11 24 34 72l107 -71q32 -21 27 -42q-4 -22 -35 -19l-53 4q-78 -104 -220 -239l1 -171q273 -166 273 -279q0 -61 -49 -65q-37 -3 -69 82q-29 77 -67 126q-25 31 -88 87v-632q143 82 250 179l26 -32q-85 -113 -241 -246v-26
q0 -56 -19 -65q-24 -10 -61 42l-64 91l17 15v1402q-7 140 -10 155l110 -24q82 -18 85 -44q3 -29 -49 -43l-42 -11zM364 1888l109 -24q83 -19 86 -44q3 -30 -50 -44l-41 -11l1 -841q0 -318 -79 -511q-82 -197 -268 -349l-26 28q151 179 213 364t62 420v37q-80 -86 -167 -163
v-26q0 -58 -19 -64q-15 -5 -61 53l-62 79q191 91 310 190v746q0 117 -8 160zM102 1527q107 -84 171 -159q65 -76 55 -144q-8 -53 -48 -57q-44 -4 -57 57q-19 87 -49 140q-36 62 -100 136zM910 1212q224 304 338 717l125 -46q48 -17 46 -42q-2 -21 -46 -30l-45 -9
q-16 -35 -66 -150q-30 -68 -61 -125l359 -1q-20 14 -25 51q-9 68 -43 117q-38 54 -65 88l26 26q82 -63 115 -93q66 -60 71 -117q5 -54 -51 -72l117 1l99 101l120 -106q18 -17 16 -34q-3 -17 -22 -17h-357v-342h125l99 101l120 -106q21 -19 16 -34q-6 -19 -26 -19h-334v-368
h144l99 101l120 -107q21 -18 16 -33q-6 -19 -26 -19l-352 -1l-1 -393h206l98 101l121 -106q20 -18 15 -34q-5 -19 -25 -19l-781 1v-114q0 -26 -44 -30q-67 -5 -61 51l4 42q6 95 6 104v1113q-75 -90 -165 -175zM1194 251h271l-1 393h-269zM1465 703v368h-271v-368h271z
M1465 1129v342h-271v-342h271z" />
  </g>

</svg>
