<?xml version="1.0" standalone="no"?>
<!DOCTYPE svg PUBLIC "-//W3C//DTD SVG 1.1//EN" "http://www.w3.org/Graphics/SVG/1.1/DTD/svg11.dtd" >
<svg xmlns="http://www.w3.org/2000/svg" xmlns:xlink="http://www.w3.org/1999/xlink" version="1.1" viewBox="0 -120 1000 1000">
  <g transform="matrix(1 0 0 -1 0 880)">
   <path fill="currentColor"
d="M578 954l79 -33q15 -6 15 -14q0 -11 -21 -13l-19 -3q-27 -77 -62 -147l25 -9h122q30 90 52 203l76 -27q18 -6 18 -15t-16 -13l-23 -7q-44 -89 -82 -141h74l43 51l74 -59v-19h-172v-165h43l39 47l71 -54v-20h-153v-156h43l39 51l71 -59v-19h-153v-172h67l43 54l82 -62v-19
h-360v-67l-58 -12v621q-37 -63 -86 -130l-15 11q85 147 144 397zM593 161h110v172h-110v-172zM703 360v156h-110v-156h110zM703 543v165h-110v-165h110zM50 816q237 57 358 133l45 -26q46 -28 46 -40q0 -11 -13 -11q-3 0 -14 1l-26 3q-150 -41 -389 -84zM49 74
q166 82 175 273h-155l-17 28h175q3 55 4 106h-132l-15 28h147v88l64 -9q22 -3 22 -14q0 -9 -10 -13l-16 -6v-46h67l45 51l69 -60v-19h-181q-2 -54 -5 -106h103l44 50l61 -58v-20h-209l-6 -41q64 -32 93 -60q62 -57 62 -105q0 -21 -15 -30q-7 -5 -15 -5q-13 0 -21 9
q-5 7 -35 77q-16 38 -73 94q-25 -104 -102 -169q-61 -46 -116 -57zM88 764q46 -23 75 -55q40 -42 40 -79q0 -17 -12 -30q-10 -9 -22 -9t-19 13q-3 6 -12 37q-16 53 -60 114zM212 805q50 -22 79 -53q38 -41 38 -72q0 -17 -12 -28q-8 -8 -18 -8q-11 0 -18 8q-4 4 -30 73
q-13 31 -48 69zM340 587q26 64 45 125q20 68 31 121l69 -37q16 -9 16 -18q0 -12 -20 -16l-12 -2q-14 -29 -54 -92q-38 -62 -59 -90z" />
  </g>

</svg>
