<?xml version="1.0" standalone="no"?>
<!DOCTYPE svg PUBLIC "-//W3C//DTD SVG 1.1//EN" "http://www.w3.org/Graphics/SVG/1.1/DTD/svg11.dtd" >
<svg xmlns="http://www.w3.org/2000/svg" xmlns:xlink="http://www.w3.org/1999/xlink" version="1.1" viewBox="0 -205 1024 1024">
  <g transform="matrix(1 0 0 -1 0 819)">
   <path fill="currentColor"
d="M684 940q5 -5 5 -8t-5 -5q-19 0 -28 -14q-18 -66 -43 -129h270l32 40l68 -48q8 -6 7 -9q-2 -3 -13 -3h-176v-184h76l32 40l68 -44q8 -6 7 -9q-2 -3 -13 -3h-170v-182h76l32 40l68 -44q8 -6 7 -9q-2 -3 -13 -3h-170v-191h98l32 39l68 -47q8 -6 7 -9q-2 -3 -13 -3h-382v-7
l5 -59q6 -40 -52 -46q5 39 7 112v537q-24 -42 -51 -74l-10 8q26 58 54 134q29 77 39 122q10 46 10 56q1 10 -8 29l8 5zM126 957l36 -38h249l21 29l46 -31q7 -6 5 -10q-1 -5 -11 -7l-14 -13v-114l6 -73q0 -31 -46 -31v40h-249v-11q2 -29 -47 -38q5 31 7 106v142q-3 22 -17 38
zM100 655l38 -35h295l24 32l60 -40q8 -6 7 -8q-2 -3 -13 -2h-367v-83q-1 -58 -4 -107h309l22 30l66 -38q8 -6 7 -8q-2 -3 -13 -2h-289v-260q70 32 130 58l8 -16q-5 -3 -14 -8q-55 -30 -82 -48q-36 -24 -44 -33t-22 -31l-46 52q20 8 30 25v261h-63q-7 -119 -28 -190
q-31 -101 -89 -166l-12 8q47 88 67 168q23 89 27 317v78q-10 26 -18 34zM761 366h-150v-191h150v191zM761 764h-150v-184h150v184zM761 564h-150v-182h150v182zM418 809h-249v-82h249v82zM169 825h249v76h-249v-76zM278 315l6 16q68 -34 108 -61l32 27q40 42 44 49
q4 8 -4 18l8 7l60 -44q3 -7 -7 -11q-15 2 -37 -3q-2 -1 -6 -4q-37 -28 -73 -51q2 -2 7 -5q2 -1 3 -2q84 -67 86 -111q3 -28 -17 -32t-29 28q-10 31 -56 80q-47 51 -125 99zM149 512h240l22 30l60 -36q8 -5 7 -8q-2 -2 -13 -2h-237q-27 1 -45 -13zM713 972l8 11
q80 -49 99 -99q17 -56 -18 -59q-16 2 -20 25q-3 24 -19 55q-15 32 -50 67z" />
  </g>

</svg>
