<?xml version="1.0" standalone="no"?>
<!DOCTYPE svg PUBLIC "-//W3C//DTD SVG 1.1//EN" "http://www.w3.org/Graphics/SVG/1.1/DTD/svg11.dtd" >
<svg xmlns="http://www.w3.org/2000/svg" xmlns:xlink="http://www.w3.org/1999/xlink" version="1.1" viewBox="0 -205 1024 1024">
  <g transform="matrix(1 0 0 -1 0 819)">
   <path fill="currentColor"
d="M309 434q17 -9 8 -13q-23 0 -38 -14q-15 -25 -31 -48h554l32 41l69 -47q8 -6 6 -9q-1 -3 -12 -3h-340v-78h211l32 40l68 -46q8 -6 6 -9q-1 -3 -12 -3h-305v-72h215l32 40l68 -46q8 -6 6 -9q-1 -3 -12 -3h-309v-77h285l32 40l69 -46q8 -6 6 -9q-1 -3 -12 -3h-702l2 -10
q0 -21 -13 -31q-13 -9 -37 -15q4 39 7 106v183q-3 -2 -7 -7l-3 -3q-54 -54 -124 -97l-8 10q60 51 104 102q42 48 66 90q4 7 10 18q12 21 18 30q4 9 -5 28l8 5zM508 987l31 -34h265l37 37l44 -45q7 -6 5 -10q-1 -5 -11 -7l-18 -9v-73l6 -59q-1 -18 -13 -24t-31 -7v30h-275
q-2 -15 -8 -21q-10 -9 -36 -14q4 36 7 74v113q-3 21 -17 38zM908 627l-2 -19q-4 -37 -17 -72q-12 -36 -36 -60t-78 -38q0 24 -21 30q-39 14 -63 18l2 14q44 -6 86 -7q34 0 55 24q18 23 29 74l4 52h-88q-44 -95 -110 -137q-73 -46 -124 -54l-4 14q48 21 104 62q50 36 86 115
h-78q-49 -75 -111 -114q-72 -47 -126 -53l-4 14q51 24 107 62q48 32 81 91h-65q-22 -26 -57 -51q-54 -38 -99 -49l-6 12q45 24 79 52q33 28 52 55q18 26 21 32q2 6 -3 19l6 4h-50q-27 0 -45 -13l-34 31h495l33 40l68 -48q7 -5 6 -8q-1 -2 -12 -2h-457l52 -22q17 -9 8 -13
q-21 0 -32 -8q-4 -7 -10 -13h299l28 37l47 -36q9 -4 9 -9t-9 -10zM193 1000l83 -32q14 -5 6 -11q-21 -9 -30 -21v-101h80l32 40l69 -48q7 -5 6 -8q-1 -2 -12 -2h-175v-54q62 -22 94 -50q30 -29 40 -59q7 -32 -14 -38q-21 -7 -28 17q-9 26 -26 54q-18 26 -66 58v-176l2 -57
q0 -21 -10 -30q-12 -9 -37 -14q4 36 7 128v155q-68 -132 -196 -226l-8 10q132 130 184 282h-88q-27 0 -45 -13l-34 31h187v107q2 16 -30 46zM235 341l-3 -3v-75h287v78h-284zM519 155h-287v-66l1 -11h286v77zM519 245h-287v-72h287v72zM549 876h274v59h-274v-59zM823 858
h-274v-54h274v54zM479 469q35 -10 56 -22t32 -30q10 -18 7 -33q-4 -16 -19 -18q-15 -3 -19 18q-5 18 -17 35q-14 16 -44 37z" />
  </g>

</svg>
