<?xml version="1.0" standalone="no"?>
<!DOCTYPE svg PUBLIC "-//W3C//DTD SVG 1.1//EN" "http://www.w3.org/Graphics/SVG/1.1/DTD/svg11.dtd" >
<svg xmlns="http://www.w3.org/2000/svg" xmlns:xlink="http://www.w3.org/1999/xlink" version="1.1" viewBox="0 -205 1024 1024">
  <g transform="matrix(1 0 0 -1 0 819)">
   <path fill="currentColor"
d="M703 936q5 -5 5 -8t-5 -5q-19 0 -30 -16q-18 -66 -42 -129h239l32 40l68 -46q8 -6 7 -9q-2 -3 -13 -3h-166v-182h66l32 40l68 -42q8 -6 7 -9q-2 -3 -13 -3h-160v-184h66l32 40l68 -42q8 -6 7 -9q-2 -3 -13 -3h-160v-197h84l32 39l68 -45q8 -6 7 -9q-2 -3 -13 -3h-350v-7
l5 -59q4 -39 -48 -46q5 39 7 111v529q-34 -68 -81 -112l-10 8q47 65 81 156q35 91 47 143q12 53 12 63q1 10 -8 29l8 5zM96 502l30 -31h332l19 27l38 -27q7 -6 5 -10q-1 -5 -11 -7l-10 -11v-88l4 -43q-1 -29 -40 -31v22h-331v-12q-1 -18 -43 -29q5 37 7 76v129q-3 17 -11 27
zM144 659l24 -27h240l17 23l40 -27q7 -6 5 -10q-1 -5 -11 -7l-10 -11v-36l4 -21q-1 -29 -36 -31v16h-245q-1 -7 -6 -11q-7 -9 -31 -14q1 9 3 25q2 12 4 33v63q-3 20 -9 27zM762 366h-136v-197h136v197zM762 564h-136v-184h136v184zM762 760h-136v-182h136v182zM261 287
l70 -24q14 -5 6 -11q-16 -4 -27 -18v-29h114l22 30l56 -36q8 -4 7 -7q-2 -2 -13 -2h-186v-71l207 16l2 -14l-268 -30q-151 -14 -152 -46l-38 54l215 17v74h-113q-27 1 -45 -13l-32 28h190v39q2 16 -21 34zM371 982l71 -24q14 -5 6 -11q-19 -7 -28 -21v-36h74l24 32l60 -38
q8 -5 7 -8q-2 -2 -13 -2h-152v-19l4 -30q-5 -26 -45 -33q1 7 2 20q3 17 5 42v20h-176v-19l4 -35q-5 -24 -45 -36q0 3 1 8q4 29 6 62v20h-65q-27 1 -45 -13l-32 29h142v46q2 16 -24 34l9 12l71 -24q14 -5 6 -11q-19 -7 -28 -21v-36h176v46q2 16 -24 34zM174 618v-71v-5h243
v76h-243zM269 853l59 -32q7 -5 6 -8q0 -4 -8 -5q-21 4 -33 -10q63 -13 114 -31q61 -21 93 -51q31 -33 8 -48q-13 -7 -37 19q-23 27 -65 49q-39 22 -123 49q-58 -46 -117 -81q-58 -35 -146 -68l-2 14q121 61 196 124q41 32 50 55q2 9 -3 17zM279 381h-147v-64h147v64z
M279 457h-147v-64h147v64zM463 381h-148v-64h148v64zM315 393h148v64h-148v-64zM710 970l8 11q79 -42 104 -101q21 -57 -16 -65q-16 0 -21 26q-3 27 -19 60q-15 35 -56 69zM178 701h174l20 24l50 -28q8 -5 7 -8q-2 -2 -13 -2h-167q-27 1 -45 -13z" />
  </g>

</svg>
