<?xml version="1.0" standalone="no"?>
<!DOCTYPE svg PUBLIC "-//W3C//DTD SVG 1.1//EN" "http://www.w3.org/Graphics/SVG/1.1/DTD/svg11.dtd" >
<svg xmlns="http://www.w3.org/2000/svg" xmlns:xlink="http://www.w3.org/1999/xlink" version="1.1" viewBox="0 -205 1024 1024">
  <g transform="matrix(1 0 0 -1 0 819)">
   <path fill="currentColor"
d="M658 609l89 -36q14 -5 6 -11q-21 -7 -30 -21v-92h136l32 40l68 -50q8 -5 7 -8q-2 -2 -13 -2h-199q88 -201 205 -238v-17q-26 4 -43 0q-18 -4 -25 -21q-107 93 -157 276h-11v-287l2 -65q3 -35 -53 -44q5 37 7 108v288h-17q-57 -221 -224 -307l-10 10q152 114 186 297h-70
q-27 1 -45 -13l-34 33h214v102q2 16 -30 46zM989 819q2 -5 -1 -7q-2 -2 -9 0q-24 2 -53 -27q-3 -3 -14 -13l-44 -44l-13 10l50 84h-369v-127l2 -56q2 -37 -53 -46q5 39 7 149v80h-357q0 -11 -1 -23q-6 -78 -49 -99q-19 -10 -30 6q-10 16 9 34q20 18 33 43q14 25 22 91h17
v-32h356v89h-247q-27 1 -45 -13l-34 33h602l32 40l68 -50q8 -5 7 -8q-2 -2 -13 -2h-326v-89h357l37 41zM340 613l89 -36q14 -5 6 -11q-21 -7 -30 -21v-415l2 -57q3 -35 -53 -44q5 37 7 100v171h-134q-15 -119 -61 -177q-48 -62 -128 -94l-6 14q66 42 105 102q37 55 46 155
h-69q-7 1 -25 -13l-34 33h306v89h-172l-27 -32l-44 38q22 17 26 36v71q3 22 -25 41l7 11l83 -30q10 -2 12 -5t-5 -7q-20 -4 -32 -18v-85h177v126q2 16 -30 46zM201 654h206v-16h-206v16zM621 650h206v-16h-206v16zM201 746h206v-16h-206v16zM621 742h206v-16h-206v16z" />
  </g>

</svg>
