<?xml version="1.0" standalone="no"?>
<!DOCTYPE svg PUBLIC "-//W3C//DTD SVG 1.1//EN" "http://www.w3.org/Graphics/SVG/1.1/DTD/svg11.dtd" >
<svg xmlns="http://www.w3.org/2000/svg" xmlns:xlink="http://www.w3.org/1999/xlink" version="1.1" viewBox="0 -205 1024 1024">
  <g transform="matrix(1 0 0 -1 0 819)">
   <path fill="currentColor"
d="M567 600l35 -33h230l22 33l42 -26q9 -6 9 -11q0 -4 -9 -8l-14 -19v-418q0 -23 -12 -44t-71 -30q-4 34 -42 44q-38 9 -77 17l2 14q105 -17 124 -17q20 0 27 6q8 6 7 70v116h-235q-11 -73 -37 -119q-50 -86 -154 -146l-8 14q90 74 129 153q39 80 35 216v146q-4 17 -16 29z
M982 825q2 -5 -1 -7q-2 -2 -9 0q-24 2 -53 -27q-3 -3 -14 -13l-44 -44l-13 10l50 84h-371v-111l2 -56q2 -37 -51 -46q5 39 7 149v64h-357q0 -11 -1 -23q-6 -78 -49 -99q-19 -10 -30 6q-10 16 9 34q20 18 33 43q14 25 22 91h17v-32h356v89h-247q-27 1 -45 -13l-34 33h602
l32 40l68 -50q8 -5 7 -8q-2 -2 -13 -2h-328v-89h359l37 41zM380 626l66 -30q8 -5 8 -9t-8 -7q-12 2 -26 -6q-25 -33 -62 -80l-3 -3h70l24 34l64 -42q8 -5 7 -8q-2 -2 -13 -2h-193q2 -43 0 -82h95l24 34l62 -40q8 -5 7 -8q-2 -2 -13 -2h-176q-3 -50 -9 -92h129l24 32l62 -40
q8 -5 7 -8q-2 -2 -13 -2h-213q-17 -90 -80 -151q-64 -63 -160 -89l-4 16q170 76 201 219q0 2 1 5h-134q-31 1 -49 -13l-34 31h220q6 38 8 92h-95q-27 1 -45 -13l-34 29h175q2 37 2 82h-126q-21 0 -39 -14l-30 32h255q27 49 39 74q20 40 3 51zM612 428q1 -66 -5 -118h233v118
h-228zM612 444h228v103h-228v-103zM174 622q76 -31 84 -88q4 -30 -17 -34t-23 23q-2 29 -17 51q-15 24 -33 38zM194 660h206v-16h-206v16zM614 660h206v-16h-206v16zM194 752h206v-16h-206v16zM614 752h206v-16h-206v16z" />
  </g>

</svg>
