<?xml version="1.0" standalone="no"?>
<!DOCTYPE svg PUBLIC "-//W3C//DTD SVG 1.1//EN" "http://www.w3.org/Graphics/SVG/1.1/DTD/svg11.dtd" >
<svg xmlns="http://www.w3.org/2000/svg" xmlns:xlink="http://www.w3.org/1999/xlink" version="1.1" viewBox="0 0 2048 2048">
  <g transform="matrix(1 0 0 -1 0 2048)">
   <path fill="currentColor"
d="M456 936q35 146 43 264l120 -35q76 -22 73 -48q-2 -16 -32 -29q-18 -7 -37 -7h-36q-44 -95 -74 -145h264l65 73l65 -41q59 -39 57 -65q-3 -20 -46 -42l-27 -13v-485q0 -13 2 -44q3 -33 4 -72q2 -43 4 -61q7 -64 -69 -64q-38 0 -38 24v72h-446v-77q0 -48 -50 -50
q-46 -1 -50 37q-2 17 5 100q1 17 1 129v496q0 61 -10 156l116 -73h96zM348 276h446v280h-446v-280zM348 614h446v266h-446v-266zM1368 1235l102 -21q69 -15 73 -44t-51 -43l-22 -5v-140h202l99 103l120 -108q21 -18 16 -33q-6 -19 -26 -19h-411v-183h232l68 76l84 -55
q40 -25 40 -48q0 -30 -79 -61v-369l36 -26q25 -19 22 -35q-3 -18 -19 -18h-618v-39q0 -26 -44 -30q-67 -5 -61 51l4 42q6 95 6 104l1 472l122 -64h112v342q0 111 -8 151zM1236 262h485v425h-485v-425zM1069 1614v-204l4 -50l4 -71q5 -82 2 -93q-7 -29 -48 -33q-57 -5 -57 42
v409h-704q2 -75 -19 -132q-36 -99 -106 -99q-54 0 -54 46q0 31 41 61q59 45 78 114q19 68 21 147h39v-79h704v124h-499q-63 0 -149 -11l-39 86q123 -18 188 -18h1061l99 102l120 -107q20 -18 16 -33q-6 -19 -25 -19h-677v-124h719l57 66l88 -69q36 -28 37 -45q2 -21 -37 -29
l-49 -10q-28 -43 -138 -151l-25 18q29 54 71 162h-723zM386 1546q217 -6 276 -14q142 -19 153 -77q6 -29 -11 -44t-45 -8q-20 4 -91 41q-79 41 -282 67v35zM853 1345l6 -35q-181 -45 -426 -81q-16 -64 -45 -64q-26 0 -43 59l-22 80q273 12 530 41zM1559 1584l72 -65
q45 -42 34 -63q-6 -12 -19 -12q-17 0 -38 8l-34 13q-22 -5 -115 -29q-78 -19 -252 -33l-5 34q225 53 357 147zM1191 1341q52 2 61 2q186 0 307 -17q126 -18 142 -79q12 -46 -23 -57q-24 -8 -84 22q-142 70 -403 95v34z" />
  </g>

</svg>
