<?xml version="1.0" standalone="no"?>
<!DOCTYPE svg PUBLIC "-//W3C//DTD SVG 1.1//EN" "http://www.w3.org/Graphics/SVG/1.1/DTD/svg11.dtd" >
<svg xmlns="http://www.w3.org/2000/svg" xmlns:xlink="http://www.w3.org/1999/xlink" version="1.1" viewBox="0 0 2048 2048">
  <g transform="matrix(1 0 0 -1 0 2048)">
   <path fill="currentColor"
d="M807 789v-245l19 2l91 87l91 -92q20 -21 15 -39q-4 -16 -26 -16h-190v-263l40 -32q18 -15 11 -30q-4 -10 -19 -10h-457q-117 0 -192 -8l-38 88q100 -24 230 -23l329 3v275h-419q-117 0 -192 -8l-38 89q94 -23 230 -23h419v267h-335q-116 0 -192 -8l-38 88q94 -22 230 -22
h321l61 71l72 -49q37 -26 42 -44q5 -20 -25 -37q-7 -4 -13 -7q-9 -4 -27 -14zM1054 787q-22 -1 -59 -4q-18 -1 -45 -2l-43 86q95 -22 170 -22h79v751h-26q-52 0 -134 -11l-39 86q142 -21 173 -18l26 2v114q0 118 -7 160l109 -24q82 -18 85 -44q4 -29 -49 -43l-42 -11l1 -152
h393v114q0 118 -7 160l109 -24q83 -18 86 -44q3 -29 -50 -43l-42 -11v-152h12l91 88l98 -75q30 -22 35 -42q7 -30 -27 -30h-209v-751h27l95 95l110 -88q23 -19 23 -38q0 -27 -23 -27h-323v-204q0 -58 44 -70q23 -6 78 -6q42 0 76 8q20 5 28 6q26 2 49 -20q21 -21 19 -43
q-4 -45 -205 -45q-184 0 -184 129l-1 245h-149q-9 -174 -52 -267q-44 -91 -165 -159l-21 33q76 80 105 159q28 78 31 234h-155v-440q0 -42 20 -63q20 -22 123 -37t234 -15q247 0 338 27q25 8 34 8q28 0 57 -31q23 -25 23 -41q0 -25 -50 -34q-138 -24 -346 -24
q-252 0 -356 17q-172 28 -172 158v475zM1253 1596v-209h393v209h-393zM1253 1329v-205h393v205h-393zM1253 1069v-224h393v224h-393zM185 1762l-39 86q121 -18 188 -18h343l91 91l105 -87q31 -24 27 -42q-3 -19 -27 -19h-317v-186h272l55 58l79 -57q32 -23 31 -41
q-1 -19 -30 -27l-36 -11q-45 -46 -103 -97l-24 16q22 53 36 105h-280v-381l6 -54l1 -51q8 -50 6 -59q-6 -28 -59 -33q-48 -5 -48 24l-1 554h-273v-33q0 -159 -87 -159q-20 0 -34 11q-20 16 -17 40q3 23 45 62q39 35 52 197h33l4 -64h277v186h-127q-68 0 -149 -11zM218 1424
q93 -8 151 -36q76 -37 54 -96q-7 -20 -27 -27q-30 -10 -60 34q-40 59 -125 95zM411 1181l13 -26q-84 -59 -177 -106l-4 -32q-4 -29 -25 -29q-18 0 -32 29l-49 103q149 22 274 61zM756 1329q-74 -35 -161 -62l-13 31q86 61 159 149l95 -82q18 -16 11 -32q-8 -17 -34 -13z
M631 1185q128 -28 170 -51q67 -37 63 -89q-4 -45 -46 -45q-24 0 -42 25q-39 54 -65 75q-29 22 -93 51z" />
  </g>

</svg>
