<?xml version="1.0" standalone="no"?>
<!DOCTYPE svg PUBLIC "-//W3C//DTD SVG 1.1//EN" "http://www.w3.org/Graphics/SVG/1.1/DTD/svg11.dtd" >
<svg xmlns="http://www.w3.org/2000/svg" xmlns:xlink="http://www.w3.org/1999/xlink" version="1.1" viewBox="0 -205 1024 1024">
  <g transform="matrix(1 0 0 -1 0 819)">
   <path fill="currentColor"
d="M10 928h404l28 34l62 -44q8 -5 7 -8q-2 -2 -13 -2h-213l-82 -155h195l37 39l44 -47q7 -6 5 -10q-1 -5 -11 -7l-18 -9v-451l5 -131q4 -29 -43 -36v79h-319v-77q4 -37 -45 -44q5 37 7 189v481q-3 24 -20 40l12 11l32 -27h89l57 155h-141q-27 1 -45 -13zM902 877l-26 -728
h22l32 38l68 -48q8 -5 7 -8q-2 -2 -13 -2h-423q-27 1 -45 -13l-34 33h111l32 398h-38q-27 1 -45 -13l-34 33h118l27 331h-77q-21 -1 -33 -11l-30 31h329l30 35l43 -40q15 -10 4 -17q-22 -5 -25 -19zM847 547h-170l-32 -398h190zM678 567h170l10 331h-153zM332 200h85v533
h-85v-533zM178 733h-80v-533h80v533zM298 381h-86v-181h86v181zM298 557h-86v-160h86v160zM298 733h-86v-160h86v160z" />
  </g>

</svg>
