<?xml version="1.0" standalone="no"?>
<!DOCTYPE svg PUBLIC "-//W3C//DTD SVG 1.1//EN" "http://www.w3.org/Graphics/SVG/1.1/DTD/svg11.dtd" >
<svg xmlns="http://www.w3.org/2000/svg" xmlns:xlink="http://www.w3.org/1999/xlink" version="1.1" viewBox="0 0 2048 2048">
  <g transform="matrix(1 0 0 -1 0 2048)">
   <path fill="currentColor"
d="M1033 1576l-38 89q93 -24 230 -24h188v153q0 118 -7 160l109 -24q83 -19 85 -44q4 -30 -49 -44l-44 -11v-190h241l88 88l120 -92q15 -12 17 -25q5 -28 -25 -28h-441v-238h265l68 76l84 -54q40 -26 40 -49q0 -27 -78 -61v-1032q0 -122 -143 -143q1 60 -38 85
q-28 17 -97 31l8 42q90 -19 130 -19q44 0 44 61v287h-283v-150q0 -105 12 -209q3 -28 3 -54q0 -42 -50 -42q-59 0 -59 42v413h-283v-436q0 -59 -69 -53q-45 4 -42 49q0 18 3 46q13 111 13 209v913q0 70 -16 135l118 -87h276v238h-188q-117 0 -192 -8zM1507 929v-304h283v304
h-283zM1507 1290v-305h283v305h-283zM1130 985h283v305h-283v-305zM1130 625h283v304h-283v-304zM1673 1947q103 -37 138 -52q84 -37 92 -96q3 -19 -8 -36q-14 -24 -40 -23q-24 2 -56 53q-36 58 -141 120zM105 1629l-39 86q74 -9 139 -14l41 -3h14v71q-3 143 -6 160l101 -24
q69 -17 74 -44q4 -26 -51 -42l-23 -7v-114h285v71q-4 144 -7 160l101 -24q70 -17 73 -44q4 -25 -52 -42l-21 -7v-114h36l79 81l91 -81q28 -23 24 -41q-3 -16 -30 -16h-200v-200l29 -26q21 -13 19 -27q-1 -18 -27 -18h-202v-201h202l60 71l73 -49q36 -25 41 -44
q4 -20 -26 -37q-6 -4 -12 -7q-10 -4 -27 -14v-255l32 -27q26 -20 23 -36q-3 -14 -23 -14h-343v-240h217l79 80l115 -86q21 -15 15 -33q-6 -19 -26 -19h-400v-130q0 -33 10 -173q2 -26 4 -60q2 -42 -47 -45q-63 -4 -63 42v366h-227q-68 0 -148 -11l-39 86q123 -17 187 -17
h227v240h-211v-14q0 -26 -44 -30q-67 -5 -61 51l4 42q6 96 6 104l-1 325l123 -66h184v201h-102v-10q0 -26 -45 -30q-66 -5 -60 51l4 42q6 97 6 104v114h-19q-54 0 -136 -12zM355 1430h285v211h-285v-211zM246 817h211v294h-211v-294zM553 1111v-294h213v294h-213z" />
  </g>

</svg>
