<?xml version="1.0" standalone="no"?>
<!DOCTYPE svg PUBLIC "-//W3C//DTD SVG 1.1//EN" "http://www.w3.org/Graphics/SVG/1.1/DTD/svg11.dtd" >
<svg xmlns="http://www.w3.org/2000/svg" xmlns:xlink="http://www.w3.org/1999/xlink" version="1.1" viewBox="0 0 2048 2048">
  <g transform="matrix(1 0 0 -1 0 2048)">
   <path fill="currentColor"
d="M1624 482q-134 -204 -410 -385l-20 32q257 197 390 444q-89 231 -146 531q-31 -80 -86 -196l-30 17q55 148 74 222q10 39 20 76q-18 86 -30 178l34 10q7 -32 14 -67l6 -25q69 281 106 601l124 -28q25 -6 44 -23q19 -16 19 -29q0 -25 -56 -32l-44 -5l-8 -35
q-35 -155 -54 -233h191l69 77l83 -55q40 -26 40 -48q0 -29 -79 -61q-47 -400 -87 -567q-41 -167 -112 -309q142 -261 339 -363l-12 -36q-18 2 -28 2q-49 0 -111 -59q-134 135 -240 366zM1468 1191q56 -267 162 -521q57 145 92 321q28 137 67 489h-232q-30 -105 -89 -289z
M1106 385q143 48 264 101l13 -36q-160 -97 -268 -147q-45 -21 -148 -63q-52 -21 -96 -40q-12 -67 -33 -64q-17 1 -27 26q-3 6 -4 12q-14 44 -44 129q182 33 254 54v404h-46q-65 0 -138 -11l-36 86q111 -17 174 -17h46v218q0 44 -4 140q-38 -12 -115 -33l-2 -29
q-4 -34 -25 -34q-14 0 -33 38l-51 102q33 36 84 129q92 166 160 353h-60q-63 0 -139 -11l-35 86q112 -18 174 -18h256l74 81l106 -86q20 -17 14 -34q-6 -18 -23 -18h-245q-103 -184 -157 -262q-105 -151 -137 -197q204 23 386 58q-18 39 -81 131l25 23q87 -90 122 -137
q58 -79 58 -134q0 -66 -48 -61q-31 4 -38 51q-4 26 -24 91q-168 -63 -212 -77l64 -16q76 -18 79 -44q4 -29 -45 -43l-39 -11v-256h64l74 80l106 -86q19 -15 14 -33q-4 -19 -24 -19h-234v-376zM77 1622l-38 86q88 -12 177 -18v90q-4 146 -6 160l97 -24q68 -17 72 -44
q4 -26 -50 -42l-22 -7v-133h206v90q0 114 -7 160l98 -24q67 -17 71 -44q4 -25 -50 -42l-21 -7v-133h13l76 81l88 -81q27 -23 23 -41q-3 -16 -28 -16h-172v-200l29 -23q20 -16 18 -30q-4 -17 -26 -17h-159v-175h139l59 71l71 -49q35 -24 39 -44q5 -20 -24 -37q-6 -4 -12 -7
q-9 -4 -26 -14v-255l24 -19q32 -25 29 -44q-3 -14 -23 -14h-276v-241h126l76 81l110 -86q21 -16 16 -34q-6 -19 -25 -19h-303v-133q0 -46 10 -161l3 -57q2 -14 2 -18q0 -39 -48 -42q-60 -4 -60 42v369h-131q-66 0 -143 -10l-38 86q119 -18 181 -18h131v241h-152v-14
q0 -25 -41 -30q-66 -8 -60 51l4 42q6 96 6 104l-2 325l119 -66h126v175h-66v-12q0 -28 -44 -31q-62 -3 -57 51l4 42q6 98 6 104v116h-15q-47 0 -124 -11zM466 1130v-294h151v294h-151zM221 836h152v294h-152v-294zM307 1422h206v211h-206v-211z" />
  </g>

</svg>
