<?xml version="1.0" standalone="no"?>
<!DOCTYPE svg PUBLIC "-//W3C//DTD SVG 1.1//EN" "http://www.w3.org/Graphics/SVG/1.1/DTD/svg11.dtd" >
<svg xmlns="http://www.w3.org/2000/svg" xmlns:xlink="http://www.w3.org/1999/xlink" version="1.1" viewBox="0 0 2048 2048">
  <g transform="matrix(1 0 0 -1 0 2048)">
   <path fill="currentColor"
d="M1354 912q-138 -19 -255 -33l-7 -41q-5 -25 -23 -26q-16 -1 -25 19l-62 136q106 48 280 308l20 29h-138q-67 0 -148 -10l-40 86q122 -18 188 -18h482l81 80l114 -86q21 -15 15 -33q-6 -19 -26 -19h-400q-158 -193 -331 -331q69 4 337 23l146 10l146 10q-67 103 -128 155
l21 28q253 -176 274 -305q4 -30 -13 -52.5t-43 -20.5q-30 3 -46 64q-9 38 -41 94q-140 -32 -315 -57q-6 -1 -28 -4l72 -17q83 -18 86 -43q3 -30 -50 -44l-43 -11v-180h172l98 114l129 -101q29 -23 29 -41q0 -26 -29 -26h-399v-350h285l102 110l131 -101q30 -23 30 -42
q0 -24 -31 -24h-881q-116 0 -191 -9l-39 89q95 -23 230 -23h270v350h-158q-117 0 -192 -8l-38 89q101 -25 219 -25l169 -2v143q0 103 -6 146zM1052 1591q-4 -70 -26 -118q-42 -88 -107 -82q-20 2 -32 17q-17 22 -6 49q7 18 42 45q57 43 75 102q15 55 18 148h32q4 -50 5 -105
h362q-14 23 -27 77q-22 95 -126 207l24 26q103 -70 143 -109q67 -64 71 -134q2 -39 -23 -67h349l56 73l74 -57q42 -31 41 -51q-1 -17 -41 -28l-31 -10l-67 -79l-53 -61l-34 20l27 67l28 70h-774zM93 1633l-39 85q27 -4 41 -5q36 -5 97 -9l27 -2h18v70q-4 144 -6 160l100 -24
q70 -17 74 -43q4 -27 -50 -43l-24 -6v-114h267v70q-5 146 -8 160l101 -24q70 -17 74 -43t-52 -43l-22 -6v-114h33l79 80l91 -80q28 -23 24 -41q-3 -17 -30 -17h-197v-200l29 -25q21 -14 20 -27q-1 -18 -27 -18h-195v-202h190l61 72l74 -50q34 -22 39 -43q5 -20 -25 -38
l-12 -6q-10 -5 -27 -15v-255l25 -17q32 -21 30 -45q-2 -15 -23 -15h-332v-240h187l79 81l115 -86q21 -16 15 -34q-6 -19 -26 -19h-370v-130q0 -2 13 -182q3 -46 3 -54q0 -38 -49 -42q-63 -4 -63 42v366h-181q-68 0 -148 -10l-39 86q123 -18 187 -18h181v240h-195v-32
q0 -27 -45 -30q-66 -6 -60 50l4 42q6 98 6 104l-1 345l122 -67h169v202h-91v-12q0 -27 -44 -30q-66 -6 -61 50l4 42q7 97 7 104v116h-3q-54 0 -141 -11zM331 1433h267v211h-267v-211zM227 820h195v294h-195v-294zM518 1114v-294h202v294h-202z" />
  </g>

</svg>
