<?xml version="1.0" standalone="no"?>
<!DOCTYPE svg PUBLIC "-//W3C//DTD SVG 1.1//EN" "http://www.w3.org/Graphics/SVG/1.1/DTD/svg11.dtd" >
<svg xmlns="http://www.w3.org/2000/svg" xmlns:xlink="http://www.w3.org/1999/xlink" version="1.1" viewBox="0 0 2048 2048">
  <g transform="matrix(1 0 0 -1 0 2048)">
   <path fill="currentColor"
d="M1411 1579h38l98 104l121 -109q11 -10 16 -17l4 10q69 144 104 253l121 -50q53 -22 48 -44q-4 -18 -54 -24l-43 -6q-140 -287 -289 -468h151l98 101l121 -107q20 -18 16 -33q-6 -19 -25 -19l-398 1q-129 -141 -313 -274h465l61 72l73 -49q36 -25 41 -44q5 -20 -25 -37
q-6 -4 -13 -7q-9 -4 -27 -14v-490v-42l4 -61l3 -64q2 -17 2 -24q0 -27 -19 -40q-23 -15 -50 -13q-35 4 -35 31v76h-480v-61q0 -47 -46 -50q-62 -2 -61 52q0 22 5 98q6 90 6 108v495q-80 -50 -177 -97l-19 37q324 203 492 397h-286q-74 0 -149 -10l-38 86q121 -18 187 -18
h177v295h-91q-73 0 -148 -12l-39 90q27 -4 40 -6q33 -5 98 -10l41 -6h99v179q0 118 -7 159l116 -24q75 -17 78 -43q4 -30 -49 -44l-43 -11v-216zM1411 1523v-295h58q107 132 197 296l-8 -1h-247zM1225 248h480v268h-480v-268zM1225 573h480v269h-480v-269zM142 1614l-39 86
q74 -10 138 -14l34 -3h26v90q0 118 -6 160l100 -25q70 -16 74 -43q4 -26 -51 -42l-23 -7v-133h255v90q-4 144 -7 160l100 -25q71 -17 75 -43t-52 -42l-23 -7v-133h49l79 80l91 -80q27 -23 24 -41q-3 -17 -29 -17h-214v-200l31 -23q21 -15 19 -29q-3 -18 -27 -18h-195v-175
h172l60 72l74 -50q35 -23 40 -43q4 -20 -26 -38l-12 -6q-10 -5 -27 -15v-255l25 -17q33 -23 30 -45q-3 -15 -23 -15h-313v-240h203l78 80l115 -85q21 -16 15 -34q-5 -19 -25 -19h-386v-134q0 -97 10 -218q5 -55 -43 -60q-63 -6 -63 42v370h-196q-68 0 -148 -11l-39 86
q123 -17 190 -17h193v240h-188v-13q0 -47 -45 -50q-61 -3 -60 52q0 19 5 98q6 93 6 108v151q0 11 -4 42q-4 32 -7 91l119 -67h174v175h-80v-4q0 -38 -53 -38q-59 0 -54 51l4 42q6 95 7 104l2 115h-30q-49 0 -129 -11zM395 1414h255v211h-255v-211zM287 828h188v294h-188
v-294zM571 1122v-294h183v294h-183z" />
  </g>

</svg>
