<?xml version="1.0" standalone="no"?>
<!DOCTYPE svg PUBLIC "-//W3C//DTD SVG 1.1//EN" "http://www.w3.org/Graphics/SVG/1.1/DTD/svg11.dtd" >
<svg xmlns="http://www.w3.org/2000/svg" xmlns:xlink="http://www.w3.org/1999/xlink" version="1.1" viewBox="0 -205 1024 1024">
  <g transform="matrix(1 0 0 -1 0 819)">
   <path fill="currentColor"
d="M247 973l75 -28q14 -5 6 -11q-21 -7 -30 -21v-80h18l20 26l54 -36q8 -5 7 -8q-2 -2 -13 -2h-86v-75l4 -41q1 -34 -38 -46v37h-44v-114h95l19 25l32 -29q7 -6 5 -10q-1 -5 -11 -7l-8 -13v-136l2 -21q2 -33 -36 -31v28h-98v-105h94l22 28l56 -38q8 -5 7 -8q-2 -2 -13 -2
h-166v-138l2 -49q3 -36 -47 -44q5 37 7 92v139h-89q-27 1 -45 -13l-34 33h168v105h-98q5 -37 -41 -43q5 37 7 76v152q-3 18 -17 34l14 11l29 -36h106v114h-44v-1q4 -40 -41 -46q5 38 7 84v88h-7q-27 1 -45 -13l-34 33h86v94q2 16 -22 40l9 12l71 -30q14 -5 6 -11
q-21 -7 -30 -21v-84h126v90q2 16 -26 38zM769 761q4 -4 3 -6t-6 -2q-16 -1 -29 -15q-19 -50 -45 -100h224l22 28l48 -34q8 -6 7 -9q-2 -3 -13 -3h-142v-140h66l24 28l46 -32q8 -6 7 -9q-2 -3 -13 -3h-130v-160h66l24 28l46 -32q8 -6 7 -9q-2 -3 -13 -3h-130v-161h86l22 26
l48 -32q8 -6 7 -9q-2 -3 -13 -3h-300l2 -40q4 -37 -45 -44q5 37 7 88v455q-28 -40 -65 -78l-8 8q72 110 110 213q16 43 16 52q2 9 -9 24l11 5zM627 455q4 -4 3 -6q0 -2 -5 -3q-11 -1 -28 -13q-18 -168 -123 -288q-58 -72 -149 -116l-6 11q95 66 144 138q50 74 69 132
q5 16 13 46q3 9 4 13l-34 -4q-83 -4 -100 -26l-28 50q20 -2 38 10q58 83 107 179l-17 -1q-54 -7 -68 -12q-13 -4 -30 -16l-28 42q22 0 40 21q47 85 72 160q2 14 -6 21l10 6l51 -29q5 -3 5 -6t-5 -7q-16 2 -27 -12q-33 -67 -81 -153l92 2q7 13 19 40l6 12q2 9 -6 23l10 4
l51 -31q5 -4 5 -7q0 -4 -5 -6q-15 2 -27 -10q-79 -139 -149 -237l109 4q0 2 1 5q2 7 4 17q8 39 3 48q-3 9 -14 22l6 6zM802 288h-114v-161h114v161zM802 464h-114v-160h114v160zM802 620h-114v-140h114v140zM220 396h98v162h-98v-162zM182 558h-98v-162h98v162zM264 813
h-126v-105h126v105zM394 832h512l22 32l66 -42q8 -5 7 -8q-2 -2 -13 -2h-515q-27 1 -45 -13zM590 979l6 10q76 -30 97 -54q22 -24 22 -48t-18 -28t-23 21q-8 56 -84 99zM774 779l6 10q57 -26 77 -64q21 -48 -11 -62q-17 -2 -19 22q-1 24 -12 46q-10 23 -41 48z" />
  </g>

</svg>
