<?xml version="1.0" standalone="no"?>
<!DOCTYPE svg PUBLIC "-//W3C//DTD SVG 1.1//EN" "http://www.w3.org/Graphics/SVG/1.1/DTD/svg11.dtd" >
<svg xmlns="http://www.w3.org/2000/svg" xmlns:xlink="http://www.w3.org/1999/xlink" version="1.1" viewBox="0 0 2048 2048">
  <g transform="matrix(1 0 0 -1 0 2048)">
   <path fill="currentColor"
d="M1694 534h-498v-47q0 -37 -52 -37q-60 0 -55 60l4 57l3 80l4 76v631q0 85 -13 177l118 -91h469l68 76l83 -54q40 -26 40 -48q0 -27 -77 -62v-610q0 -23 4 -85q2 -34 4 -80q1 -40 3 -58q5 -54 -63 -59q-42 -3 -42 25v49zM1694 590v373h-498v-373h498zM1694 1020v363h-453
v-1l-45 1v-363h498zM1691 1760l99 93l120 -99q21 -16 16 -33q-6 -19 -26 -19h-681q-116 0 -191 -8l-39 89q96 -23 230 -23h472zM1744 244l99 102l120 -107q21 -18 16 -33q-6 -19 -26 -19h-775q-118 0 -192 -8l-39 88q96 -23 231 -23h566zM346 1731l11 64q7 43 18 150l98 -20
q84 -18 84 -39q0 -22 -57 -34l-37 -8l-20 -113h237l61 72l72 -49q37 -26 42 -44q5 -20 -25 -37q-6 -4 -13 -7q-9 -4 -26 -14v-174l54 72l114 -86q20 -16 15 -34t-26 -18h-707q-65 0 -149 -11l-39 85q121 -17 188 -17h58l37 205h-44q-69 0 -149 -11l-39 86q124 -18 188 -18
h54zM397 1469h298v205h-261zM183 1318l122 -64h410l60 72l73 -50q36 -24 41 -43q5 -20 -25 -38q-6 -3 -13 -6q-9 -5 -26 -15l1 -158l22 -14q27 -16 27 -35t-22 -19h-262v-194h108l80 80l114 -86q21 -15 16 -33q-6 -18 -26 -18h-292v-252h154l78 81l116 -86q21 -16 15 -34
q-6 -19 -26 -19h-337v-76l4 -61l5 -97l4 -46q0 -47 -45 -50q-62 -3 -62 42v288h-281q-26 -12 -56 -12q-38 0 -30 46l48 273q-21 -5 -40 -4l-43 88q88 -24 201 -24h201v194h-217v-20q0 -27 -45 -31q-66 -5 -60 51l4 42q6 96 6 104zM497 445v252h-217l-49 -252h266zM280 1002
h450v198h-450v-198z" />
  </g>

</svg>
