<?xml version="1.0" standalone="no"?>
<!DOCTYPE svg PUBLIC "-//W3C//DTD SVG 1.1//EN" "http://www.w3.org/Graphics/SVG/1.1/DTD/svg11.dtd" >
<svg xmlns="http://www.w3.org/2000/svg" xmlns:xlink="http://www.w3.org/1999/xlink" version="1.1" viewBox="0 0 2048 2048">
  <g transform="matrix(1 0 0 -1 0 2048)">
   <path fill="currentColor"
d="M1249 1486l-138 -1q-70 0 -147 -11l-38 86q120 -16 185 -16h149q43 205 64 418l130 -27q31 -6 38 -22q11 -27 -24 -40l-57 -21q-34 -195 -57 -308h280l60 72l71 -49q36 -26 41 -44q5 -20 -25 -37q-6 -4 -12 -7q-10 -5 -27 -14l-68 -270h54l60 72l71 -50q36 -25 40 -44
q5 -19 -24 -37q-6 -3 -13 -7q-9 -4 -26 -14l-62 -259h69l60 71l71 -49q37 -26 41 -44q5 -20 -25 -37q-6 -4 -12 -7q-9 -4 -27 -14q-38 -417 -97 -554q-61 -139 -251 -164q-8 64 -41 87q-27 20 -105 38l4 42q177 -29 218 -22q65 9 93 87q49 140 77 506h-763
q-83 -142 -244 -327l-32 29q162 209 272 473q89 212 126 357q35 138 41 158zM1341 1485q-41 -175 -84 -291l326 1l73 290h-315zM1239 1137q-54 -150 -121 -281h564l67 281h-510zM1564 734q166 -143 183 -248q4 -28 -9 -52t-40 -24q-42 0 -63 104q-15 74 -97 193zM187 993
l115 -79h334l68 76l84 -54q40 -26 40 -48q0 -30 -80 -61l-1 -458l4 -61l2 -67q8 -83 2 -103q-8 -34 -65 -34q-38 0 -38 26v97h-360l1 -90q0 -38 -61 -30q-46 7 -42 68q8 114 8 224v454q0 46 -11 140zM292 608h360v249h-360v-249zM292 280h360v270h-359zM1000 1912
q87 -59 127 -96q85 -78 76 -146q-2 -15 -12 -28q-18 -23 -45 -18q-29 5 -52 81q-22 73 -116 175zM113 1126l-39 86q116 -17 188 -18l84 -2q-19 18 -24 44q-2 9 -11 75q-22 167 -103 314l20 13q-69 -2 -92 -6l-40 88q101 -23 200 -22h203q-17 11 -21 34q-12 71 -30 106
q-20 37 -91 116l26 28q186 -121 197 -201q8 -53 -37 -83h165l81 81l113 -86q22 -16 16 -33q-6 -19 -26 -19h-183l72 -34q65 -32 60 -57q-5 -27 -64 -27h-27q-68 -189 -155 -329l122 -2l80 81q71 -57 110 -83q25 -17 20 -37q-4 -16 -33 -16h-632q-65 -1 -149 -11zM386 1192
h152q104 229 125 449h-412q142 -200 171 -303q19 -67 3 -104q-9 -19 -39 -42zM1061 633l34 -7q-22 -379 -141 -435q-24 -11 -49 4q-21 12 -22 34q-2 27 57 102q80 101 121 302zM1223 644q77 -179 90 -293q9 -72 -17 -104q-19 -23 -43 -21q-44 2 -44 60q0 32 3 69q4 41 4 87
q0 67 -29 191zM1399 670q71 -96 96 -137q57 -94 48 -164q-6 -53 -55 -53q-33 0 -43 35q-2 7 -6 68q-7 100 -73 227z" />
  </g>

</svg>
