<?xml version="1.0" standalone="no"?>
<!DOCTYPE svg PUBLIC "-//W3C//DTD SVG 1.1//EN" "http://www.w3.org/Graphics/SVG/1.1/DTD/svg11.dtd" >
<svg xmlns="http://www.w3.org/2000/svg" xmlns:xlink="http://www.w3.org/1999/xlink" version="1.1" viewBox="0 -120 1000 1000">
  <g transform="matrix(1 0 0 -1 0 880)">
   <path fill="currentColor"
d="M54 622l87 9q18 46 38 123q15 62 19 100h-143l-14 28h305l44 59l77 -64v-23h-185q-46 -113 -109 -220l232 24q-25 49 -68 89l9 12q58 -27 94 -60q53 -49 53 -89q0 -27 -21 -40q-10 -6 -18 -6t-14 12q-5 10 -25 61l-301 -80l-3 -11q-3 -12 -10 -12t-13 15zM504 203
q-115 -45 -377 -108l-4 -11q-4 -14 -12 -14q-5 0 -14 12l-52 72q118 10 191 21v183h-145l-12 28h157v159l72 -10q20 -2 20 -11q0 -8 -14 -16l-17 -9v-113h71l47 54l71 -63v-19h-189v-173q101 14 203 35zM388 65q112 53 210 183l33 -20q43 -27 43 -38q0 -12 -8 -12h-30
q-45 -36 -112 -73q-68 -37 -128 -57zM497 856l-14 28h339l51 56l82 -66v-18h-220l-76 -126h158l23 40l59 -34q24 -13 24 -22q0 -8 -18 -15l-19 -7v-438l-62 -6v37h-247v-35l-59 -9v537l65 -48h49l29 126h-164zM577 313h247v118h-247v-118zM577 567v-108h247v108h-247z
M577 702v-107h247v107h-247zM728 251q96 -25 155 -71q61 -47 61 -92q0 -15 -9 -22q-9 -8 -20 -8q-15 0 -28 16q-4 4 -18 27q-27 43 -68 78q-21 19 -80 57z" />
  </g>

</svg>
