<?xml version="1.0" standalone="no"?>
<!DOCTYPE svg PUBLIC "-//W3C//DTD SVG 1.1//EN" "http://www.w3.org/Graphics/SVG/1.1/DTD/svg11.dtd" >
<svg xmlns="http://www.w3.org/2000/svg" xmlns:xlink="http://www.w3.org/1999/xlink" version="1.1" viewBox="0 -205 1024 1024">
  <g transform="matrix(1 0 0 -1 0 819)">
   <path fill="currentColor"
d="M489 927h405l29 34l62 -44q7 -5 6 -8q-1 -2 -12 -2h-216l-64 -152h151l31 41l51 -49q7 -6 5 -10q-1 -5 -11 -7l-19 -9v-317l5 -125q2 -23 -9 -32q-13 -9 -36 -12v54h-250v-5q-6 -27 -13 -34q-9 -7 -34 -12q4 39 7 108v399q-3 24 -19 44l16 12l36 -46h60l44 152h-146
q-27 0 -45 -13zM249 1008l62 -28q16 -12 7 -15q-12 1 -28 -8q-27 -39 -61 -82h174l31 42l50 -48q7 -6 5 -10q-1 -5 -11 -7l-18 -9v-202l4 -57q2 -11 -9 -20q-12 -9 -35 -12v22h-269q-5 -16 -10 -21q-9 -7 -35 -12q4 39 7 86v240q-3 22 -19 43l16 12l38 -47h57l20 39
q25 51 25 62q-1 10 -9 25zM29 237h237v135l-43 -21q-72 -34 -89 -45q-19 -12 -28 -31l-42 40l202 77v130q1 16 -26 40l9 10l77 -28q14 -5 6 -11q-21 -9 -28 -21v-121q29 -5 77 -17q7 -1 11 -2q38 -12 62 -28q24 -17 25 -35t-14 -22q-15 -5 -29 16q-15 20 -55 42
q-42 21 -77 30v-138h157l20 26l58 -36q7 -5 6 -8q-1 -2 -12 -2h-229v-118l2 -29q0 -21 -11 -30q-10 -9 -36 -14q4 37 7 96v95h-158q-27 0 -45 -13zM617 592v-136h250v136h-250zM617 440v-131h250v131h-250zM867 735h-250v-127h250v127zM420 857h-267v-78h267v78zM153 763
v-78h267v78h-267zM153 669v-77h267v77h-267zM636 245l65 -41q7 -6 7 -10q0 -3 -7 -4q-26 3 -35 -7q-9 -9 -73 -69q-63 -60 -131 -100l-8 10q78 70 126 125q48 51 52 66q3 15 -4 24zM777 215l6 14q71 -42 100 -66q35 -25 54 -55q19 -28 19 -52t-16 -29t-30 34q-15 39 -44 73
q-29 31 -89 81zM86 496l4 13q48 -12 68 -22q24 -12 41 -33t15 -38t-17 -20t-20 16q-6 18 -25 41q-21 22 -66 43zM428 516l54 -31q7 -6 7 -9q1 -3 -6 -5q-26 -3 -33 -8q-14 -7 -35 -21q-13 -10 -60 -39l-9 -6l-9 11q59 52 69 63q17 17 20 23q0 5 -7 15z" />
  </g>

</svg>
