<?xml version="1.0" standalone="no"?>
<!DOCTYPE svg PUBLIC "-//W3C//DTD SVG 1.1//EN" "http://www.w3.org/Graphics/SVG/1.1/DTD/svg11.dtd" >
<svg xmlns="http://www.w3.org/2000/svg" xmlns:xlink="http://www.w3.org/1999/xlink" version="1.1" viewBox="0 0 2048 2048">
  <g transform="matrix(1 0 0 -1 0 2048)">
   <path fill="currentColor"
d="M1597 429q-154 -45 -392 -92l-24 -5l-11 -42q-8 -30 -25 -32q-11 -1 -29 32l-69 130q162 8 289 23v321h-94v-47q0 -24 -35 -30q-33 -7 -54 17q-9 11 -7 34l5 41q6 96 6 105v277q0 19 -11 167l117 -87h73v236h-30q-69 0 -149 -10l-39 86q124 -18 188 -18h135l79 80
l115 -85q21 -16 16 -34q-6 -19 -26 -19h-205v-236h79l61 72l72 -50q37 -25 41 -43q5 -21 -25 -38q-6 -3 -13 -6l-27 -15v-318l30 -27q25 -19 24 -33q-2 -19 -18 -19h-224v-311l160 19q-36 72 -75 128l28 25q71 -73 121 -143q65 -89 60 -159q-5 -72 -62 -66q-27 3 -32 34
q-2 10 -8 77q-3 27 -15 61zM1336 1182h-94v-362h94v362zM1420 1182v-362h100v362h-100zM436 416v283h-154q-69 0 -148 -10l-40 85q124 -17 188 -17h154v80q0 114 -8 159l110 -24q82 -18 85 -43q3 -26 -50 -44l-41 -13v-115h148l80 80l114 -86q21 -15 15 -33q-6 -19 -26 -19
h-331v-264q188 42 327 84l12 -38q-67 -32 -298 -108q-162 -54 -385 -106l-4 -35q-5 -35 -29 -37q-21 -2 -57 79l-36 82q238 32 374 60zM713 1794l80 80l114 -86q21 -16 16 -33q-6 -18 -26 -18h-249v-234h95l61 72l72 -49q37 -26 42 -44q5 -20 -25 -37q-7 -4 -13 -7
q-9 -5 -27 -14v-253q0 -53 6 -105q3 -26 3 -43q0 -41 -55 -49q-47 -7 -47 24v39h-507v-22q0 -45 -69 -39q-41 3 -38 52q1 28 3 55q2 49 3 63q5 64 5 79v342l120 -64h79v234h-83q-69 0 -149 -11l-39 86q27 -4 40 -6q87 -12 148 -12h440zM253 1095h507v350h-112v-167
q0 -26 25 -26q8 0 21 3q11 2 17 2q32 -3 39 -48q3 -20 -8 -26q-12 -6 -52 -6q-86 0 -111 20q-23 20 -23 63v185h-104v-34q0 -119 -39 -170q-37 -49 -134 -85l-14 29q64 42 81 92q10 31 10 132v36h-103v-350zM556 1503v234h-104v-234h104zM1795 1726v-701q0 -241 13 -443
q14 -207 31 -208q10 -1 26 42l78 203l36 -12l-49 -237q-14 -64 -16 -83q-6 -68 16 -136q9 -27 8 -42q-1 -11 -15 -19.5t-27 -5.5q-97 23 -151 301q-40 210 -40 628v756h-628v-510q0 -480 -43 -686q-58 -281 -266 -473l-21 28q158 212 200 455q38 217 38 622v473
q0 121 -17 229l119 -80h599l68 80l86 -66q41 -31 40 -51q-2 -27 -85 -64z" />
  </g>

</svg>
