<?xml version="1.0" standalone="no"?>
<!DOCTYPE svg PUBLIC "-//W3C//DTD SVG 1.1//EN" "http://www.w3.org/Graphics/SVG/1.1/DTD/svg11.dtd" >
<svg xmlns="http://www.w3.org/2000/svg" xmlns:xlink="http://www.w3.org/1999/xlink" version="1.1" viewBox="0 -200 1000 1000">
  <g transform="matrix(1 0 0 -1 0 800)">
   <path fill="currentColor"
d="M352 934l-21 -18l-15 -26q85 -26 136 -54.5t51 -70.5q0 -25 -7.5 -29.5t-18.5 -4.5q-8 0 -16 10.5t-24.5 30.5t-46 48t-80.5 63q-26 -51 -56.5 -105.5t-65.5 -108.5l51 -47h134l30 39l63 -48l-24 -32v-269q-10 -8 -23.5 -16t-30.5 -13v43h-156v-220l148 72
q-5 14 -21.5 36t-47.5 48l-1 3q89 -34 128 -68t39 -76q0 -19 -7 -27t-17 -8q-13 0 -26 12.5t-20 33.5l-19 32q-24 -16 -53.5 -36.5t-60 -42t-60 -44t-53.5 -42.5l-74 41l95 43v573q-12 -18 -27.5 -39t-32 -39.5t-34 -33.5t-34.5 -22l-9 2q43 46 81.5 108t70 127t55 127.5
t37.5 110.5zM370 690q-13 -43 -29 -43q-6 0 -10.5 13.5t-10.5 34t-15 45t-24 46.5v-1q42 -23 65.5 -45t23.5 -50zM232 489h157v109h-142l-15 -13v-96zM232 467v-119h156v119h-156zM704 710q-6 -26 -13 -62t-17 -78.5t-24 -90.5t-33 -97q14 -8 32.5 -18t36.5 -20t32.5 -19
t21.5 -15q12 15 24 50t22 83.5t16.5 106.5t6.5 119v22.5t-1 22.5l86 -36l-26 -69q-7 -106 -28.5 -186.5t-52.5 -143.5q33 -27 60 -55.5t47.5 -56t33.5 -53.5t17 -48q0 -10 -4.5 -20t-11.5 -18t-14 -13t-13 -5q-11 12 -24 39.5t-29.5 60.5t-37.5 67.5t-48 62.5
q-30 -51 -65.5 -90.5t-71.5 -69t-69.5 -49.5t-58.5 -32l-7 4q30 25 61.5 53t62 61.5t59.5 73.5t53 88q-7 8 -22.5 20t-33 24t-34.5 24t-27 20q1 0 1 -2t-3.5 -9t-13.5 -23l-40 11q37 88 60.5 184.5t34.5 184.5h-69l-55 -8l-21 31h149q4 22 8.5 55t8.5 69.5t7 73.5t5 67
l76 -38l-26 -56l-25 -171h153l38 40l64 -63h-255z" />
  </g>

</svg>
