<?xml version="1.0" standalone="no"?>
<!DOCTYPE svg PUBLIC "-//W3C//DTD SVG 1.1//EN" "http://www.w3.org/Graphics/SVG/1.1/DTD/svg11.dtd" >
<svg xmlns="http://www.w3.org/2000/svg" xmlns:xlink="http://www.w3.org/1999/xlink" version="1.1" viewBox="0 -205 1024 1024">
  <g transform="matrix(1 0 0 -1 0 819)">
   <path fill="currentColor"
d="M291 274l6 12q95 -48 123 -114q14 -32 8 -53q-6 -22 -24 -23t-21 35q-1 20 -11 48q-24 -12 -65 -32q-41 -21 -83 -42q-60 -26 -74 -66l-50 47q17 6 28 25v495q-3 17 -16 42q-42 -49 -90 -89l-8 10q52 60 106 138q54 79 90 152q36 74 32 85t-15 26l6 8l83 -32q6 -4 5 -8
q0 -3 -7 -5q-21 -3 -34 -18q-1 -2 -3 -7q-3 -7 -5 -10q66 -24 99 -50q46 -37 61 -76q13 -42 -16 -50q-16 -3 -26 29q-10 33 -38 70q-25 33 -87 62q-47 -94 -101 -171q-21 -29 -43 -55l41 -38h184l33 39l50 -47q7 -6 5 -10q-1 -5 -11 -7l-18 -9v-155l5 -86q3 -26 -45 -36v39
h-193v-229q92 33 192 79l-2 4q-18 35 -71 73zM564 518q-24 0 -40 -13l-33 33h321l33 43l50 -43q7 -7 7 -12q-1 -5 -9 -7l-22 -14v-73q0 -133 19 -201q20 -66 45 -105q13 -20 21 -16q8 5 12 35l17 113l18 -2q-11 -99 -12 -135q-1 -40 12 -61q13 -19 4 -28q-10 -7 -35 1
q-51 17 -92 96q-22 42 -36 99q-13 58 -17 206v84h-263zM680 944q3 -10 -7 -10q-14 -1 -31 -25q-15 -47 -31 -89h248l32 40l68 -50q8 -6 7 -8q-2 -3 -13 -2h-351q-22 -51 -47 -95q-51 -88 -107 -142l-8 10q36 53 76 131q41 78 63 153q22 76 17 86q-4 10 -14 25l8 6zM365 479
h-193v-114h193v114zM172 495h193v106h-193v-106zM553 680h266l32 40l68 -50q8 -5 7 -8q-2 -2 -13 -2h-281q-27 1 -45 -13zM219 765l6 11q33 -16 48 -28q17 -11 30 -38q24 -56 -14 -64q-15 2 -17 26t-13 47q-10 23 -40 46z" />
  </g>

</svg>
