<?xml version="1.0" standalone="no"?>
<!DOCTYPE svg PUBLIC "-//W3C//DTD SVG 1.1//EN" "http://www.w3.org/Graphics/SVG/1.1/DTD/svg11.dtd" >
<svg xmlns="http://www.w3.org/2000/svg" xmlns:xlink="http://www.w3.org/1999/xlink" version="1.1" viewBox="0 -205 1024 1024">
  <g transform="matrix(1 0 0 -1 0 819)">
   <path fill="currentColor"
d="M282 288l6 12q138 -66 147 -149q-1 -32 -26 -36h-1q-14 0 -24 39q-8 34 -17 49q-16 -11 -44 -29q-163 -99 -159 -133l-52 53q14 9 26 25v497q-3 23 -16 45l9 8l35 -31h185l33 41l48 -47q6 -4 6 -9t-12 -8l-18 -9v-191l5 -64q3 -28 -43 -36v41h-190v-230q98 47 176 94
q-23 32 -74 68zM1010 167l-1 -14q-48 3 -69 -22q-135 100 -197 286v-309q-1 -42 -18 -56q-16 -16 -72 -29q4 45 -87 58q-16 4 -26 6l4 18l42 -10q42 -9 67 -9q50 -3 48 55v204l-101 -65q-75 -47 -93 -65q-21 -17 -19 -38l-58 45l271 143v232h-185q-22 0 -41 -13l-34 33h373
l1 137h-227q-22 0 -41 -13l-34 33h303v120h-269q-16 0 -32 -12l-32 32h318l31 37l50 -45q6 -4 6 -9q0 -4 -10 -7l-20 -8l-16 -265h67l30 40l64 -50q7 -4 7 -7t-9 -3h-258v-95q22 -69 54 -141q110 127 105 143q0 6 -4 10l10 6l50 -37q7 -7 7 -9q0 -3 -7 -5h-4q-19 0 -49 -30
q-47 -47 -99 -93q98 -164 204 -179zM213 783l-3 -7q-34 -51 -85 -106q-48 -49 -108 -90l-8 10q177 175 241 372q0 8 -16 29l6 8l83 -32q5 -5 5 -7q0 -1 -9 -6q-28 -15 -35 -31q159 -69 164 -147q0 -22 -18 -27h-3q-14 0 -26 29q-28 77 -124 127q-27 -62 -54 -107
q90 -40 92 -108q-1 -32 -21 -34h-3q-10 1 -18 29q-16 64 -60 98zM370 494h-190v-120h190v120zM180 510h190v110h-190v-110zM479 524l6 10q103 -47 115 -130q0 -30 -21 -33h-4q-18 0 -19 27q-8 78 -77 126z" />
  </g>

</svg>
