<?xml version="1.0" standalone="no"?>
<!DOCTYPE svg PUBLIC "-//W3C//DTD SVG 1.1//EN" "http://www.w3.org/Graphics/SVG/1.1/DTD/svg11.dtd" >
<svg xmlns="http://www.w3.org/2000/svg" xmlns:xlink="http://www.w3.org/1999/xlink" version="1.1" viewBox="0 -205 1024 1024">
  <g transform="matrix(1 0 0 -1 0 819)">
   <path fill="currentColor"
d="M253 296l6 12q155 -75 145 -162q-6 -22 -24 -23t-23 31q-3 25 -16 50q-32 -21 -81 -53q-30 -19 -41 -26q-42 -28 -53 -43t-23 -37l-52 53q11 6 26 25v497q-3 20 -16 45l9 8l35 -31h185l33 41l48 -47q7 -6 5 -10q-1 -5 -11 -7l-18 -9v-187l5 -68q-1 -23 -39 -35
q-3 -1 -4 -1v41h-190v-230q95 47 172 92q-22 35 -78 74zM901 393q-11 -1 -22 -6q-10 -4 -32 -51q-21 -45 -65 -103q-17 -21 -35 -39q11 -9 20 -17q68 -51 113 -66q51 -18 128 -18v-16q-48 -4 -62 -10q-18 -7 -30 -26q-68 22 -131 66q-35 25 -68 57q-16 -13 -33 -24
q-122 -92 -293 -121l-6 14q147 44 263 129q22 16 41 34q-3 3 -8 10q-10 12 -15 19q-49 66 -81 143q-64 -88 -153 -152l-6 14q100 99 158 211q34 55 6 74l11 6l73 -36q7 -5 6 -8q0 -4 -8 -5q-19 -3 -31 -15q-11 -21 -23 -40h207l25 30l53 -41q7 -12 -2 -13zM673 989l84 -34
q14 -5 6 -11q-17 -4 -29 -18v-102h124l31 40l64 -46q11 -8 8 -11q-2 -4 -19 -3h-208v-144h170l35 40l60 -46q11 -8 8 -11q-2 -4 -19 -3h-467q-27 1 -45 -13l-34 33h250v144h-127q-27 1 -45 -13l-34 33h206v112q2 17 -27 42zM302 971q6 -4 5 -8q0 -3 -7 -5q-19 -5 -32 -20
l-5 -11q62 -26 96 -50q47 -33 63 -72q16 -43 -13 -52q-15 -3 -29 29q-14 33 -41 65q-24 29 -84 63q-44 -91 -95 -165q-58 -84 -148 -153l-8 10q118 124 195 286q33 71 29 81q-4 11 -15 26l6 8zM349 498h-190v-120h190v120zM605 397q0 -1 -2 -3q-1 -2 -2 -3q44 -85 84 -132
l3 -3q13 -16 29 -33q14 15 28 33q44 56 83 141h-223zM159 514h190v110h-190v-110zM586 637l65 -41q4 -4 4 -7q-1 -3 -6 -4q-4 0 -13 -2q-9 -1 -14 -2q-51 -59 -89 -95q-37 -35 -108 -77l-9 13q73 59 118 114t48 67t-7 26zM780 610l5 14q231 -84 200 -179q-19 -18 -37 15
q-18 34 -55 71q-36 37 -113 79zM192 787l6 11q74 -32 91 -77q16 -55 -19 -61q-15 2 -17 26q-1 24 -15 49q-12 25 -46 52z" />
  </g>

</svg>
