<?xml version="1.0" standalone="no"?>
<!DOCTYPE svg PUBLIC "-//W3C//DTD SVG 1.1//EN" "http://www.w3.org/Graphics/SVG/1.1/DTD/svg11.dtd" >
<svg xmlns="http://www.w3.org/2000/svg" xmlns:xlink="http://www.w3.org/1999/xlink" version="1.1" viewBox="0 0 2048 2048">
  <g transform="matrix(1 0 0 -1 0 2048)">
   <path fill="currentColor"
d="M1190 1817l63 83l70 -45q48 -31 45 -61q-2 -19 -29 -35q-6 -4 -13 -7q-12 -6 -35 -20v-169l39 -27q36 -24 35 -42q-2 -19 -32 -19l-258 2l-48 -233l197 -1l53 76l65 -38q60 -35 53 -64q-5 -20 -65 -53q-46 -236 -75 -290q-32 -61 -105 -86q-29 -10 -87 -20q-3 58 -47 86
q-29 17 -100 44l6 41q135 -32 175 -34q59 -2 87 62q15 35 49 223h-218q-40 -19 -68 -15q-36 5 -31 38q3 21 11 49q21 69 76 343l102 -72h94v226l-105 1q-150 -5 -168 -8l-35 79q77 -14 173 -14h126zM1732 1815l66 82l76 -53q51 -37 42 -69q-6 -18 -70 -43v-169
q69 -45 72 -69q2 -19 -30 -19l-270 2l-48 -233l209 -1l57 84l64 -42q54 -34 54 -64q0 -28 -65 -54q-46 -227 -81 -292q-30 -58 -101 -84q-25 -9 -89 -23q-2 54 -46 81q-36 22 -113 48l7 46q164 -39 199 -38q46 2 73 71q15 35 50 214h-235q-25 -19 -53 -19q-31 0 -37 19
q-4 9 1 27q3 14 15 68q3 13 27 118q21 91 41 201l105 -71h98v226l-111 1q-158 -5 -177 -8l-35 79q67 -12 207 -14zM1567 507q462 -226 420 -381q-8 -32 -37 -38q-43 -10 -82 73q-61 127 -324 310zM1213 552l126 -70q35 -19 32 -40q-4 -22 -41 -24l-64 -2
q-107 -120 -207 -197q-84 -65 -250 -146l-20 35q287 175 424 444zM310 1484q88 -15 154 -15h99l79 81l111 -87q20 -16 15 -33q-5 -18 -24 -18h-280q-62 0 -146 -11l-27 62q-90 -96 -179 -172l-26 31q181 216 254 346q65 115 112 277l126 -49q43 -16 43 -37q0 -26 -43 -31
l-39 -4q293 -140 327 -261q10 -37 -12 -64q-15 -19 -39 -15q-28 4 -54 51q-71 135 -249 256q-96 -178 -202 -307zM861 713q94 -21 200 -21l667 -1l104 104l140 -104q19 -14 17 -38q-2 -20 -34 -20l-891 -1l-122 -6q-23 0 -37 -2zM642 692h-372v-461q52 14 197 63
q103 33 188 72q-34 68 -114 181l28 25q246 -219 232 -355q-6 -65 -57 -62q-36 3 -47 68q-8 50 -26 101q-105 -70 -167 -103q-29 -15 -217 -102q-5 -22 -7 -32q-7 -39 -25 -39q-15 0 -32 33l-63 121l14 4v946q-7 122 -8 154l116 -68h345l61 71l72 -49q37 -25 42 -44
q5 -20 -25 -37q-6 -4 -13 -7q-9 -4 -27 -14v-311l6 -54l2 -50q7 -51 5 -60q-6 -27 -59 -33q-44 -4 -48 25zM642 752v186h-372v-186h372zM642 1180h-372v-181h372v181z" />
  </g>

</svg>
