<?xml version="1.0" standalone="no"?>
<!DOCTYPE svg PUBLIC "-//W3C//DTD SVG 1.1//EN" "http://www.w3.org/Graphics/SVG/1.1/DTD/svg11.dtd" >
<svg xmlns="http://www.w3.org/2000/svg" xmlns:xlink="http://www.w3.org/1999/xlink" version="1.1" viewBox="0 0 2048 2048">
  <g transform="matrix(1 0 0 -1 0 2048)">
   <path fill="currentColor"
d="M1523 233q48 41 138 177l109 -78q24 -16 18 -37q-7 -26 -42 -18l-34 7q-32 -20 -68 -42q-21 -13 -47 -30q161 -50 176 -121q10 -45 -27 -64q-31 -16 -64 8q-8 5 -50 41q-74 62 -299 126q-132 38 -320 69l6 33q296 -21 504 -71zM1093 1029l30 -15q194 -96 401 -147
q260 -63 450 -60l4 -38q-75 3 -121 -85q-280 55 -480 138q-141 58 -334 178q-20 -11 -43 -26q-160 -97 -306 -151q-260 -95 -588 -151l-5 40q657 141 957 454l119 -87q26 -19 24 -35q-4 -25 -45 -20l-59 7zM1278 1541q-23 7 -39 25q-62 69 -220 133q-104 -27 -168 -38l-7 36
q305 87 450 263l114 -48q37 -15 34 -36q-4 -21 -34 -22l-56 -2q-52 -36 -101 -65h414l74 63l89 -59q37 -24 38 -40q1 -23 -32 -32l-55 -15q-258 -159 -530 -233q-166 -45 -443 -75l-4 35q302 48 476 110zM1306 1551q186 69 350 183h-519l-68 -20q99 -22 165 -46
q102 -37 82 -99q-3 -6 -10 -18zM1095 1613l4 -34q-7 -2 -222 -53l-7 -30q-7 -31 -26 -19q-7 4 -12 17l-45 108q26 -2 65 -2q22 0 120 6q90 6 123 7zM1020 1267q144 -34 190 -62q44 -27 47 -68q3 -32 -19 -44q-29 -16 -59 22q-56 74 -168 125zM485 741l117 -63h835l61 72
l72 -50q37 -25 42 -44q5 -20 -25 -37q-7 -3 -13 -6l-27 -15v-136q0 -47 7 -104q3 -26 3 -43q0 -41 -57 -49q-46 -7 -47 24l-2 28h-860v-121q230 18 433 49l14 -37q-155 -57 -371 -110l-59 -15q-5 -21 -7 -32q-8 -38 -25 -38q-16 0 -32 33l-63 120l14 4v421q0 20 -10 149z
M1451 621h-861v-92h861v92zM1451 469h-861v-91h861v91zM771 739l-39 86q120 -17 187 -18h219l84 69l92 -74q21 -16 15 -33q-5 -19 -25 -19h-385q-68 0 -148 -11zM1538 1281h-574q-69 0 -149 -11l-39 86q125 -18 188 -18h574v21q0 114 -8 160l105 -24q82 -19 85 -44
q4 -23 -49 -43l-38 -15v-55h101l80 81l114 -86q21 -16 16 -34q-6 -18 -26 -18h-285v-154q0 -142 -155 -170q-11 70 -47 92q-33 22 -159 44l8 46q135 -22 190 -27q68 -6 68 57v112zM617 1369v142h-267q-44 -13 -65 -11q-30 3 -30 45v186q0 108 -7 160l108 -24q82 -18 85 -44
q3 -29 -49 -43l-42 -11v-201h267v194q0 117 -9 160l110 -24q82 -18 85 -44t-50 -43l-41 -14l1 -697q0 -17 4 -59q5 -54 -38 -59q-62 -7 -62 42v287h-214q-23 -237 -220 -337l-23 33q69 49 104 116q35 68 47 188q-18 -1 -43 -4q-39 -2 -78 -7l-39 86q122 -18 188 -18z" />
  </g>

</svg>
