<?xml version="1.0" standalone="no"?>
<!DOCTYPE svg PUBLIC "-//W3C//DTD SVG 1.1//EN" "http://www.w3.org/Graphics/SVG/1.1/DTD/svg11.dtd" >
<svg xmlns="http://www.w3.org/2000/svg" xmlns:xlink="http://www.w3.org/1999/xlink" version="1.1" viewBox="0 -205 1024 1024">
  <g transform="matrix(1 0 0 -1 0 819)">
   <path fill="currentColor"
d="M463 893l45 -41h403l18 32l62 -42q8 -5 7 -8q-2 -2 -13 -2h-467v-202h197v81h-98q-18 2 -38 -14l-33 30h169v45q2 16 -26 40l9 10l77 -28q14 -5 6 -11q-21 -7 -30 -21v-35h123l19 25l35 -27q7 -6 6 -10t-10 -6l-12 -12v-67h29l16 26l48 -34q8 -5 7 -8q-2 -2 -13 -2h-87
v-57l4 -35q-1 -32 -40 -33v32h-125v-81h129l16 27l34 -24q9 -6 9 -11q0 -4 -9 -8l-12 -13v-312q1 -57 -59 -68q-6 28 -24 34q-4 1 -13 4q-23 6 -38 9v14q61 -9 74 -9q14 0 19 6q6 6 5 70v58h-131v-91l3 -45q3 -36 -46 -44q5 37 7 110v70h-122v-91l5 -53q2 -37 -48 -46
q5 39 7 96v311q-7 21 -21 35l16 12l35 -41h128v81h-91q-27 1 -45 -13l-32 29h168v77h-123q-27 1 -45 -13l-29 28v-56q17 -406 -144 -545l-8 10q71 101 93 218q23 121 21 299v289q-4 21 -26 41zM268 299l6 12q143 -69 139 -161q-4 -21 -22 -22t-23 31q-2 20 -11 40
q-46 -30 -109 -71q-15 -10 -22 -14q-42 -28 -53 -41t-23 -35l-52 49q11 6 26 25v497q-3 20 -16 45l9 8l36 -31h178l31 35l44 -41q7 -6 5 -10q-1 -5 -11 -7l-18 -9v-187l5 -68q2 -26 -39 -36v41h-186v-234q104 54 186 102q-1 2 -3 5q-2 4 -3 5q-22 35 -74 72zM307 960
q6 -4 5 -8q0 -3 -7 -5q-19 -5 -32 -20q-2 -5 -5 -10q64 -26 98 -52q46 -31 61 -67q16 -42 -11 -54q-15 -3 -28 27q-13 31 -41 64q-25 31 -87 65q-43 -96 -96 -174q-60 -88 -153 -161l-8 10q124 134 202 299q35 74 30 84q-4 11 -15 26l6 8zM348 487h-186v-120h186v120z
M162 503h186v110h-186v-110zM882 321h-131v-90h131v90zM715 321h-122v-90h122v90zM751 337h131v83h-131v-83zM715 420h-122v-83h122v83zM751 630h125v81h-125v-81zM876 612h-125v-77h125v77zM639 985l6 12q109 -44 109 -105q0 -27 -20 -29t-23 22q-6 56 -72 100zM199 776
l6 11q71 -31 89 -76q17 -53 -17 -61q-15 1 -17 25q-1 24 -15 49q-12 25 -46 52z" />
  </g>

</svg>
