<?xml version="1.0" standalone="no"?>
<!DOCTYPE svg PUBLIC "-//W3C//DTD SVG 1.1//EN" "http://www.w3.org/Graphics/SVG/1.1/DTD/svg11.dtd" >
<svg xmlns="http://www.w3.org/2000/svg" xmlns:xlink="http://www.w3.org/1999/xlink" version="1.1" viewBox="0 0 2048 2048">
  <g transform="matrix(1 0 0 -1 0 2048)">
   <path fill="currentColor"
d="M1399 479q-66 -196 -284 -309q-141 -73 -274 -101l-10 40q166 57 286 141q129 90 189 249h-269q-73 0 -146 -7l-38 84q133 -18 193 -18h274q13 68 20 184q-134 -12 -359 -19l-5 40q483 46 740 163l77 -73q29 -27 26 -42q-2 -12 -13 -16q-13 -4 -31 3l-42 15
q-104 -31 -294 -60q-6 -96 -23 -195h327l96 94l126 -96q16 -13 18 -30q2 -26 -26 -26l-518 1q186 -277 530 -334l-5 -37q-88 6 -123 -69q-174 80 -273 175q-98 95 -169 243zM1164 1046q67 11 234 47l8 -38q-175 -71 -368 -117q-52 -12 -77 -20q-9 -60 -37 -61q-21 -2 -45 57
l-38 91q112 10 207 23l23 4v198h-58q-35 0 -105 -6l-40 80q48 -5 72 -8q58 -8 73 -8h58v55l-2 48q-2 83 -6 103l124 -27q62 -14 65 -41q3 -31 -47 -44l-41 -10v-84h46l76 81l97 -86q19 -17 14 -34q-5 -19 -24 -19l-209 2v-186zM1690 1723h68l80 80l114 -85q21 -16 16 -34
q-6 -19 -26 -19h-259l-12 -98q-3 -44 -17 -51q-18 -9 -57 -4q-31 4 -26 42l14 111q-41 -5 -67 -5q-21 0 -58 -6l-39 86q95 -13 172 -17l17 200l135 -34q32 -8 36 -30q4 -27 -38 -38l-42 -12zM1065 1723l-18 208l130 -15q47 -6 49 -31q1 -16 -37 -37l-34 -20l6 -105h20l81 80
l113 -85q21 -16 16 -34q-5 -19 -26 -19h-199l11 -95q9 -73 -61 -65q-31 3 -34 39l-11 121h-49l-71 -4q-42 -2 -79 -9l-38 87q118 -16 188 -16h43zM1518 1080q195 16 308 38q-30 45 -70 84l26 30q83 -58 118 -91q62 -58 62 -118q0 -41 -34 -56q-30 -14 -50 10q-8 9 -15 50
q-3 20 -16 49q-43 -15 -65 -22q-43 -16 -228 -63l-12 -45q-9 -31 -25 -29q-19 3 -32 36l-47 120q116 152 182 412l132 -54q34 -13 31 -36q-3 -21 -36 -25l-48 -5q-65 -129 -181 -285zM192 1309l116 -68h323l61 72l72 -49q37 -26 42 -44q5 -20 -26 -38l-12 -6q-9 -5 -27 -14
v-321l5 -54l2 -51q8 -50 6 -59q-7 -29 -59 -33q-52 -5 -51 27l1 21h-349v-430q198 57 384 147q-28 55 -106 165l28 25q247 -217 233 -355q-7 -65 -58 -62q-35 2 -46 68q-10 60 -33 119q-113 -80 -175 -114q-48 -26 -210 -106q-5 -21 -7 -32q-7 -38 -25 -38q-15 0 -32 32
l-63 121l14 4v919q-7 123 -8 154zM645 1184h-349v-186h349v186zM645 938h-349v-186h349v186zM288 1492q87 -13 151 -13h78l76 81l109 -86q20 -16 15 -34q-5 -19 -25 -19h-253q-65 0 -142 -10l-27 61q-24 -26 -37 -39q-42 -45 -138 -132l-24 27q152 177 246 348
q62 112 111 278l124 -48q41 -16 41 -38q0 -25 -41 -30l-38 -4q269 -131 297 -246q9 -37 -11 -64q-14 -19 -38 -15q-27 4 -53 51q-49 93 -107 150q-39 38 -115 91q-98 -185 -199 -309z" />
  </g>

</svg>
