<?xml version="1.0" standalone="no"?>
<!DOCTYPE svg PUBLIC "-//W3C//DTD SVG 1.1//EN" "http://www.w3.org/Graphics/SVG/1.1/DTD/svg11.dtd" >
<svg xmlns="http://www.w3.org/2000/svg" xmlns:xlink="http://www.w3.org/1999/xlink" version="1.1" viewBox="0 0 2048 2048">
  <g transform="matrix(1 0 0 -1 0 2048)">
   <path fill="currentColor"
d="M757 1317l60 72l72 -50q38 -26 42 -44q4 -20 -25 -37q-6 -4 -13 -7q-9 -4 -26 -14v-854q0 -29 6 -98q6 -61 4 -68q-5 -27 -57 -31q-48 -5 -48 24v76h-519v-72q0 -37 -49 -40q-61 -5 -55 51l5 42q7 99 7 104v1011l114 -65h168v462q0 115 -8 160l109 -24q83 -18 86 -44
t-51 -43l-41 -14v-193h172l81 81l114 -85q21 -15 15 -33q-6 -19 -26 -19h-356v-248h219zM253 1260v-261h519v261h-519zM253 942v-276h519v276h-519zM253 609v-264h519v264h-519zM1245 1217q57 111 102 280h-208q-68 0 -149 -11l-39 86q27 -3 41 -5q86 -13 147 -13h615l95 95
l130 -100q16 -11 14 -30q-3 -22 -23 -22h-505q-84 -172 -167 -280h413l68 77l85 -55q39 -25 39 -48q0 -28 -78 -62v-761l4 -68q2 -75 4 -100q1 -23 0 -41q-2 -53 -59 -56q-43 -2 -43 26v91h-570v-97q0 -31 -58 -24q-47 5 -44 54q3 33 4 82q1 20 7 103v61v772q-3 80 -18 134
l122 -88h71zM1161 275h570v262h-570v-262zM1161 595h570v257h-570v-257zM1161 908h570v254h-570v-254zM1682 1919l117 -53q33 -15 31 -36q-3 -21 -36 -25l-49 -5q-16 -23 -53 -82q-60 -95 -130 -146l-24 23q95 142 144 324zM1133 1915q210 -164 210 -260q0 -61 -47 -66
q-37 -4 -52 79q-14 76 -135 223z" />
  </g>

</svg>
