<?xml version="1.0" standalone="no"?>
<!DOCTYPE svg PUBLIC "-//W3C//DTD SVG 1.1//EN" "http://www.w3.org/Graphics/SVG/1.1/DTD/svg11.dtd" >
<svg xmlns="http://www.w3.org/2000/svg" xmlns:xlink="http://www.w3.org/1999/xlink" version="1.1" viewBox="0 -205 1024 1024">
  <g transform="matrix(1 0 0 -1 0 819)">
   <path fill="currentColor"
d="M71 936l39 -41h280l26 36l66 -44q8 -6 7 -9q-2 -3 -13 -3h-188v-124h80l26 34l60 -38q8 -6 7 -9q-2 -3 -13 -3h-160v-122h82l26 32l58 -36q8 -6 7 -9q-2 -3 -13 -3h-160v-130h103l24 37l50 -34q9 -6 9 -11q0 -4 -9 -8l-18 -15v-169q-1 -97 -21 -138q-19 -44 -50 -66
q-31 -23 -85 -33q0 16 -22 30q-27 15 -86 26l2 18q90 -18 128 -19q27 -2 57 29q31 29 37 131v202h-289v-6q4 -37 -47 -44q5 38 7 120v366q2 16 -19 37zM510 483l-33 33h311l33 43l52 -43q7 -7 7 -12q-1 -5 -9 -7l-22 -14v-92q1 -126 19 -180q17 -53 41 -79q25 -27 41 -30
q15 -3 26 38l24 108l14 -4l-10 -112q-3 -51 8 -72q9 -21 -13 -22q-24 0 -45 7q-22 8 -50 26q-27 18 -50 57q-23 36 -35 87t-16 172v109h-250q-27 0 -43 -13zM685 938q4 -3 3 -5q-1 -3 -6 -5q-18 3 -33 -11q-18 -46 -39 -89h258l32 40l68 -48q8 -6 7 -9q-2 -3 -13 -3h-362
q-17 -33 -35 -63q-48 -78 -104 -124l-8 10q44 55 80 125q36 71 57 127t16 67q-4 11 -14 26l11 5zM248 597h-130v-130h130v130zM248 875h-130v-124h130v124zM248 735h-130v-122h130v122zM526 674h288l32 40l68 -50q8 -5 7 -8q-2 -2 -13 -2h-303q-27 1 -45 -13zM101 331
q5 -107 -20 -149q-33 -46 -63 -18q-8 16 16 29q25 13 37 49t15 89h15zM142 340l10 6q61 -71 48 -135q-6 -23 -23 -20q-17 2 -13 26q6 40 -4 75q-3 14 -18 48zM300 393l6 8q78 -46 81 -110q1 -28 -16 -30t-19 22t-10 46q-7 23 -42 64zM224 357l8 8q39 -26 58 -80
q16 -60 -12 -65q-16 -2 -18 23q0 26 -6 51q-4 26 -30 63z" />
  </g>

</svg>
