<?xml version="1.0" standalone="no"?>
<!DOCTYPE svg PUBLIC "-//W3C//DTD SVG 1.1//EN" "http://www.w3.org/Graphics/SVG/1.1/DTD/svg11.dtd" >
<svg xmlns="http://www.w3.org/2000/svg" xmlns:xlink="http://www.w3.org/1999/xlink" version="1.1" viewBox="0 0 2048 2048">
  <g transform="matrix(1 0 0 -1 0 2048)">
   <path fill="currentColor"
d="M542 806q121 -102 133 -173q4 -28 -8 -48t-34 -19q-26 1 -38 73q-11 64 -73 146zM314 743q60 -159 55 -245q-5 -85 -63 -85q-39 0 -37 40q2 16 8 36q19 60 19 108t-18 135zM148 724h38q1 -123 -9 -209q-15 -125 -80 -141q-14 -4 -28 1q-25 8 -27 32q-2 21 35 64
q45 52 59 135q7 40 12 118zM1590 1619l1 -478q1 -51 97 -56q60 -3 142 3q90 6 83 -49q-5 -42 -68 -46q-163 -9 -238 4q-110 20 -110 121v501h-253l78 -20q46 -11 46 -34q0 -17 -46 -30l-26 -8q-13 -235 -68 -348q-65 -133 -231 -239l-19 27q124 120 170 236q30 78 44 205
q11 97 10 137l-1 74h-144q-14 -229 -129 -239q-31 -3 -49 18q-13 15 -9 36q3 25 36 48q108 78 112 272h40l-1 -80h338q-16 27 -27 68q-22 90 -114 183l23 26q101 -66 140 -101q63 -58 63 -113q0 -37 -25 -63h341l59 66l88 -69q35 -28 37 -45q2 -21 -37 -29l-49 -9
q-59 -91 -140 -186l-26 18q49 116 68 198zM1037 710l-39 85q122 -17 188 -17l462 -2l98 102l121 -107q20 -18 15 -33q-5 -19 -25 -19l-403 1l1 -488h307l96 104l120 -107q21 -18 16 -33q-6 -19 -26 -19l-931 -1q-67 0 -148 -10l-39 86q119 -18 187 -18l323 -2v489l-174 -1
q-71 0 -149 -10zM430 772q97 -143 103 -231q3 -35 -13 -56t-41 -16q-33 6 -33 58q0 82 -8 119q-9 46 -36 109zM679 1837l80 81l114 -87q22 -16 16 -33q-6 -19 -27 -19h-297v-225h87l80 81l114 -86q21 -16 16 -34q-6 -19 -26 -19h-271v-244h90l81 80l114 -85q21 -16 15 -34
q-6 -19 -26 -19h-274v-261h180l71 72l51 -38q59 -42 59 -64q0 -25 -31 -38l-42 -19q-41 -472 -82 -587q-61 -169 -242 -188q-5 62 -57 86q-42 19 -138 49l12 37l31 -8q148 -37 184 -33q106 9 141 160q34 149 59 515h-498v-31q0 -32 -28 -38q-16 -4 -37 -4q-45 0 -40 49l4 50
l7 171v687q0 60 -17 164l121 -88h406zM263 933h211v261h-211v-261zM474 1252v244h-211v-244h211zM474 1554v225h-211v-225h211z" />
  </g>

</svg>
