<?xml version="1.0" standalone="no"?>
<!DOCTYPE svg PUBLIC "-//W3C//DTD SVG 1.1//EN" "http://www.w3.org/Graphics/SVG/1.1/DTD/svg11.dtd" >
<svg xmlns="http://www.w3.org/2000/svg" xmlns:xlink="http://www.w3.org/1999/xlink" version="1.1" viewBox="0 0 2048 2048">
  <g transform="matrix(1 0 0 -1 0 2048)">
   <path fill="currentColor"
d="M269 1209q-103 -119 -208 -195l-20 30q226 209 314 574l109 -35q67 -21 62 -52q-4 -21 -57 -29l-36 -6q-18 -41 -38 -78h314l67 71l79 -64q37 -30 29 -50q-7 -18 -70 -40q-75 -154 -147 -251q30 -19 105 -61q199 -109 193 -196q-2 -36 -30 -46q-30 -10 -95 61
q-58 63 -226 174q-147 -139 -322 -234l52 -35h396l61 71l72 -49q37 -25 42 -44q4 -20 -26 -37q-6 -4 -12 -7q-10 -4 -27 -14l-1 -336l29 -27q25 -19 23 -34q-3 -19 -38 -19h-525l-1 -64q-1 -29 -45 -31q-62 -3 -57 43l4 34l1 31l3 49l-1 443q-43 -20 -181 -66l-12 37
q303 139 481 339q-115 73 -261 143zM293 1242q54 -19 132 -52q89 -37 155 -63q68 103 126 236l-334 1q-32 -55 -79 -122zM338 308l418 -1v382l-418 1v-382zM458 1951q90 -65 116 -89q52 -48 52 -99q0 -37 -26 -63h258l59 66l89 -69q35 -28 36 -45q2 -21 -37 -29l-49 -10
q-44 -59 -124 -139l-27 17q41 87 58 154h-608q-2 -70 -25 -126q-35 -82 -102 -79q-56 3 -48 55q3 24 36 47q55 41 79 101q11 29 20 138h42v-80l283 -1q-12 25 -20 61q-17 81 -86 163zM1772 1859l121 -89q29 -21 23 -44q-4 -15 -26 -15h-371v-245h108l88 93l115 -98
q23 -19 14 -40q-6 -13 -23 -13h-302v-241h108l88 92l114 -92q21 -17 16 -37q-3 -17 -24 -17h-302v-248h276l68 67l65 -42q49 -32 53 -53q4 -24 -26 -38l-53 -24q-6 -56 -18 -198q-20 -228 -60 -322q-71 -169 -276 -204q-2 75 -55 101q-50 26 -165 58l16 45q52 -14 132 -37
q71 -20 119 -24q99 -8 145 145q26 85 47 298q10 103 15 172h-630v-26q0 -59 -69 -53q-45 4 -43 49q1 18 5 46q11 101 11 209l1 635q0 112 -17 186l120 -89h500zM1423 1473v238h-251v-238h251zM1423 1167v248h-251v-248h251zM1172 865h251v248h-251v-248zM1085 647h43
q-4 -200 -9 -245q-15 -126 -86 -138q-36 -6 -56 22q-9 12 -6 26q3 19 41 69q38 49 57 139q6 29 16 127zM1286 658q86 -182 76 -269q-8 -64 -61 -61q-38 1 -38 34q0 16 3 39q3 20 3 45q0 103 -21 201zM1415 693q157 -130 157 -231q0 -29 -19 -50q-18 -19 -43 -12
q-25 6 -31 50q-14 88 -93 216zM1586 723q163 -107 167 -179q2 -32 -19 -53q-16 -17 -34 -12q-21 6 -44 70q-27 77 -100 143z" />
  </g>

</svg>
