<?xml version="1.0" standalone="no"?>
<!DOCTYPE svg PUBLIC "-//W3C//DTD SVG 1.1//EN" "http://www.w3.org/Graphics/SVG/1.1/DTD/svg11.dtd" >
<svg xmlns="http://www.w3.org/2000/svg" xmlns:xlink="http://www.w3.org/1999/xlink" version="1.1" viewBox="0 -205 1024 1024">
  <g transform="matrix(1 0 0 -1 0 819)">
   <path fill="currentColor"
d="M57 923l34 -41h195l24 32l68 -40q8 -6 7 -9q-2 -3 -13 -3h-150v-120h40l26 30l58 -34q8 -6 7 -9q-2 -3 -13 -3h-118v-118h36l26 34l58 -38q8 -6 7 -9q-2 -3 -13 -3h-114v-126h65l30 29l40 -28q9 -6 9 -11q0 -4 -9 -8l-20 -13v-169q-1 -97 -21 -138q-19 -44 -47 -63
t-70 -34q0 16 -22 28q-27 13 -74 24l2 18q78 -16 116 -17q15 0 44 30q30 28 38 130v202h-205v-16q2 -35 -41 -44q5 38 7 90v394q2 16 -19 37zM831 953q4 -4 3 -6t-6 -2q-16 -3 -29 -17q-10 -38 -24 -76h109l25 25l44 -38q7 -5 7 -9q0 -3 -7 -5q-23 -1 -38 -49
q-10 -26 -47 -91q-15 -26 -34 -53q13 -18 25 -31q63 -64 103 -86q21 -10 57 -14v-16q-46 2 -66 -22q-61 45 -101 89q-21 23 -40 51q-19 -25 -42 -50q-60 -68 -157 -116l-4 14q87 62 141 132q22 29 40 54q-1 3 -5 9q-3 6 -5 9q-26 47 -43 110q-31 -58 -80 -111l-10 10
q72 108 105 238q11 46 8 56q-1 10 -12 25l11 5zM672 607q13 -13 4 -14h-2q-6 -1 -14 -4t-20 -19q-11 -16 -41 -89l-16 1l26 116h-55v-470q-1 -33 -14 -50q-12 -17 -66 -29q-3 31 -22 39q-19 7 -73 19l4 18l32 -8q58 -14 79 -8t22 48v441h-20q-7 -118 -45 -230
q-37 -115 -100 -171l-8 11q47 68 80 186q31 114 32 204h-34q-19 2 -35 -12l-33 32h251l25 28zM833 495q4 -4 3 -6q0 -2 -5 -3q-16 -5 -28 -13q1 -33 -1 -67h80l30 39l46 -38q9 -6 9 -11q0 -4 -9 -8l-18 -13q-10 -166 -22 -215q-11 -49 -36 -74q-25 -26 -73 -32q-8 22 -22 31
q-13 9 -72 31l4 16q48 -17 96 -24q46 -1 61 58q16 61 22 220h-98q-6 -48 -20 -96q-55 -186 -199 -257l-4 15q130 101 167 258q11 44 16 80h-51q-25 -3 -36 -15l-33 35h123q1 5 1 13q1 9 1 13q2 51 -2 60q-3 9 -14 22l8 8zM438 800l6 14q53 -27 85 -62q2 -1 5 -5q3 -3 4 -5
l57 139h-138q-16 -2 -33 -14l-34 34h202l31 30l47 -48q4 -10 -10 -9q-15 -2 -31 -20q-41 -62 -77 -134q11 -19 13 -39q5 -37 -18 -43q-22 -6 -27 26q-10 73 -82 136zM799 687q6 -11 11 -20q15 23 26 43q32 55 54 122h-122q-3 -8 -10 -22l-6 -15q19 -60 47 -108zM188 592h-90
v-126h90v126zM188 862h-90v-120h90v120zM188 726h-90v-118h90v118zM71 329q5 -87 -10 -122q-20 -39 -43 -23q-10 10 4 23q15 14 24 45q9 32 12 77h13zM224 377l6 8q49 -36 58 -102q2 -28 -14 -30t-16 20q1 54 -34 104zM104 332l8 6q41 -57 31 -117q-5 -19 -20 -18
q-15 3 -11 24q0 5 1 13q8 48 -9 92zM162 355l6 8q30 -25 46 -79q12 -52 -12 -53q-15 -1 -15 21q1 23 -4 48q-4 26 -21 55z" />
  </g>

</svg>
