<?xml version="1.0" standalone="no"?>
<!DOCTYPE svg PUBLIC "-//W3C//DTD SVG 1.1//EN" "http://www.w3.org/Graphics/SVG/1.1/DTD/svg11.dtd" >
<svg xmlns="http://www.w3.org/2000/svg" xmlns:xlink="http://www.w3.org/1999/xlink" version="1.1" viewBox="0 -205 1024 1024">
  <g transform="matrix(1 0 0 -1 0 819)">
   <path fill="currentColor"
d="M63 943l32 -41h253l24 28l56 -36q8 -6 7 -9q-2 -3 -13 -3h-160v-120h70l22 30l62 -34q8 -6 7 -9q-2 -3 -13 -3h-148v-122h74l22 30l58 -34q8 -6 7 -9q-2 -3 -13 -3h-148v-130h105l22 31l32 -32q9 -6 9 -11q0 -4 -9 -8l-12 -11v-169q-1 -97 -21 -137q-19 -43 -49 -64
t-76 -34q-1 16 -24 26q-29 13 -86 24l2 16q90 -18 128 -17q29 0 58 32q30 30 36 132v202h-275v-20q3 -37 -39 -44q5 38 7 90v406q2 16 -19 37zM750 653q7 -5 7 -9q0 -3 -7 -5q-22 -4 -37 -36q-15 -31 -48 -75q-70 -94 -213 -135l-2 14q174 66 243 237h-120q-1 -1 -3 -4
q-2 -4 -7 -13l-3 -6l-2 -2q21 -15 32 -34q30 -50 0 -62q-13 -4 -15 17q-1 21 -10 39q-5 12 -17 24q-36 -50 -90 -92l-12 10q52 54 85 110q29 50 44 99h-45q-27 1 -45 -13l-34 33h470l18 28l60 -38q8 -5 7 -8q-2 -2 -13 -2h-189v-145q48 30 72 48q30 23 30 32q1 9 -4 18l10 8
l60 -37q7 -5 7 -9q0 -3 -7 -5q-27 7 -72 -21q-16 -11 -25 -16q-26 -15 -71 -39v-52q-2 -44 47 -45q17 -1 37 0q16 -1 46 3q26 6 32 38q5 20 6 70h13l2 -40q3 -35 23 -44q-17 -42 -58 -49q-22 -5 -88 -4q-4 -2 -42 2q-50 1 -50 71v216h-158q-11 -32 -32 -70h109l25 29z
M790 426l79 -30q14 -5 6 -11q-21 -7 -30 -21v-62h68l26 36l64 -46q8 -5 7 -8q-2 -2 -13 -2h-152v-164l2 -49q4 -37 -45 -44q5 37 7 116v141h-181q-12 -101 -57 -160q-52 -69 -129 -98l-6 10q72 43 114 111q32 50 41 137h-85q-27 1 -45 -13l-34 33h166q1 6 1 17q1 12 1 18v44
q-4 20 -23 28l8 13l69 -24q11 -4 13 -7q2 -4 -5 -8q-14 -5 -26 -14v-58l-1 -9h179v72q2 16 -28 40zM787 980l77 -30q14 -5 6 -11q-21 -7 -30 -21v-38h58l28 36l64 -46q8 -5 7 -8q-2 -2 -13 -2h-144l2 -42q4 -37 -45 -44v4q5 33 7 70v12h-174v-1l2 -43q3 -36 -45 -44v4
q5 33 7 70v14h-65q-27 1 -45 -13l-34 33h144v50q2 16 -26 40l9 12l77 -30q14 -5 6 -11q-21 -7 -30 -21v-40h174v48q2 16 -26 40zM230 608h-128v-130h128v130zM230 746h-128v-122h128v122zM230 882h-128v-120h128v120zM93 327q6 -92 -20 -127q-29 -45 -50 -21q-9 14 9 27
q19 14 32 41q14 27 18 80h11zM276 401l6 8q65 -53 67 -106q2 -28 -15 -30q-16 -2 -18 22t-8 44q-5 21 -32 62zM136 346l10 4q47 -63 36 -125q-4 -22 -20 -20q-16 3 -12 25q6 39 -1 70q-2 14 -13 46zM204 365l8 8q34 -22 50 -75q15 -59 -10 -62q-15 -1 -16 21q0 24 -6 50
q-5 27 -26 58z" />
  </g>

</svg>
