<?xml version="1.0" standalone="no"?>
<!DOCTYPE svg PUBLIC "-//W3C//DTD SVG 1.1//EN" "http://www.w3.org/Graphics/SVG/1.1/DTD/svg11.dtd" >
<svg xmlns="http://www.w3.org/2000/svg" xmlns:xlink="http://www.w3.org/1999/xlink" version="1.1" viewBox="0 0 2048 2048">
  <g transform="matrix(1 0 0 -1 0 2048)">
   <path fill="currentColor"
d="M719 1908l103 -76q26 -19 23 -42q-3 -20 -26 -20h-266v-225h53l83 78l95 -78q21 -17 16 -40q-4 -18 -21 -18h-226v-244h49l82 80l95 -72q31 -23 31 -42q0 -24 -31 -24h-226v-261h174l64 72l61 -45q38 -28 39 -50q2 -21 -24 -38l-41 -26q-41 -461 -78 -578
q-52 -163 -224 -193q-5 53 -38 75q-31 22 -110 54l-65 27l12 37l69 -22q16 -6 49 -15q25 -8 38 -12q54 -18 79 -15q67 6 99 103q41 125 74 570h-465v-31q0 -47 -65 -42q-41 3 -41 42q0 23 4 57q7 72 7 171v714q0 67 -15 137l117 -88h367zM458 1545v225h-192v-225h192z
M458 1243v244h-192v-244h192zM266 924h192v261h-192v-261zM553 786q127 -115 127 -186q0 -26 -16 -40q-22 -19 -43 -7q-13 7 -22 60q-11 64 -77 151zM427 764q94 -135 102 -224q4 -40 -17 -64q-18 -19 -40 -15q-28 5 -30 74q-3 123 -47 210zM308 734q51 -141 51 -258
q0 -39 -23 -61q-18 -18 -40 -15q-31 5 -28 42q0 4 4 34q14 115 -2 247zM163 715h38q-1 -46 -1 -69q-1 -118 -16 -186q-18 -89 -78 -95q-23 -2 -37 17q-11 15 -6 31q5 15 19 34q66 84 81 268zM947 1714l-38 86q93 -22 230 -22h253v26q0 82 -9 134l109 -24q82 -18 85 -43
t-50 -44l-38 -13v-36h281l80 80l114 -86q20 -15 15 -33t-26 -18h-464v-141h160l80 81l114 -86q22 -16 16 -34q-5 -15 -33 -15h-593q-117 0 -192 -8l-39 84q95 -22 231 -22h159v141h-253q-122 0 -192 -7zM945 1470l101 -59h756l64 70l74 -51q34 -24 37 -39q4 -21 -25 -38
l-40 -21v-119q0 -48 7 -105q3 -26 3 -43q0 -41 -53 -49q-46 -8 -45 30l2 43h-794v-29q0 -25 -37 -31q-34 -5 -53 18q-9 10 -7 33l4 42q6 98 6 104v244zM1032 1144h194v208h-194v-208zM1322 1144h214v208h-214v-208zM1632 1144h194v208h-194v-208zM1546 364
q391 -119 391 -231q0 -32 -27 -46q-14 -7 -29 -3q-26 6 -64 50q-78 93 -288 195zM1059 1035l103 -64h538l61 72l72 -49q37 -26 42 -44q4 -20 -26 -37q-32 -19 -42 -26l2 -344v-51q0 -21 4 -51q3 -25 3 -44q0 -42 -57 -49q-44 -6 -45 28v25h-445l88 -50q36 -21 34 -42
q-2 -25 -40 -23l-51 4q-87 -82 -161 -127q-88 -52 -238 -108l-15 36q141 76 213 140q82 74 142 170h-89v-14q0 -27 -45 -30q-65 -5 -60 51l4 41q6 98 6 105zM1152 455h562v121h-562v-121zM1152 630h562v115h-562v-115zM1152 804h562v109h-562v-109z" />
  </g>

</svg>
