<?xml version="1.0" standalone="no"?>
<!DOCTYPE svg PUBLIC "-//W3C//DTD SVG 1.1//EN" "http://www.w3.org/Graphics/SVG/1.1/DTD/svg11.dtd" >
<svg xmlns="http://www.w3.org/2000/svg" xmlns:xlink="http://www.w3.org/1999/xlink" version="1.1" viewBox="0 -205 1024 1024">
  <g transform="matrix(1 0 0 -1 0 819)">
   <path fill="currentColor"
d="M137 568l27 -27h195l18 29l36 -27q14 -10 8 -13l-18 -15v-356q2 -61 -10 -86q-12 -26 -58 -36q-2 28 -20 36q-18 6 -76 21l2 16q90 -15 106 -13t16 50v119h-187v-129l4 -65q2 -37 -51 -46q1 11 4 30q2 21 3 28v439q3 11 -13 34zM509 647q2 -5 -1 -7q-2 -2 -9 0
q-18 0 -55 -49q-13 -18 -22 -29l-11 8l26 68h-342v-2q2 -67 -30 -86q-18 -12 -31 3t4 30t26 35t17 84h15q-1 -23 -1 -44h37v247q3 21 -12 49l11 10l28 -32h202l21 26l37 -28q9 -6 9 -10q0 -5 -9 -7l-16 -9v-246h32l27 31zM1006 82v-14q-56 5 -80 -24q-114 96 -178 257
q-15 41 -27 96q-7 -54 -22 -102q-34 -108 -120 -173q-86 -68 -155 -90l-6 12q218 116 253 299q20 102 15 184v42q-11 22 -22 35l8 8l86 -31q8 -4 7 -7q-2 -4 -13 -8q-12 -5 -24 -23q2 -31 0 -63q15 -76 32 -123q73 69 95 93q39 40 21 57l10 5l58 -44q7 -5 7 -9q0 -3 -7 -5
q-24 5 -75 -37q-21 -18 -34 -28l-30 -24q-25 -20 -37 -29q20 -48 44 -84q71 -109 125 -143q33 -21 69 -27zM865 899l58 -37q7 -7 7 -10q-1 -3 -8 -4q-19 -1 -27 -7t-47 -52q-31 -36 -61 -63q32 -13 62 -28q66 -32 97 -70q31 -39 12 -64q-16 -21 -39 17q-22 38 -79 79
q-49 36 -135 74l-1 -1q-27 -78 -97 -131q-69 -53 -139 -77l-6 12q121 70 169 140t53 173q6 104 -2 114q-7 11 -18 24l8 8l88 -27q9 -8 -3 -14q-17 -7 -29 -22q3 -107 -17 -181q28 -7 55 -18q36 44 63 82q33 47 32 57q0 11 -4 20zM281 658h84v254h-195v-106h75l23 24l25 -24
q18 -16 8 -21l-20 -9v-118zM176 410h187v113h-187v-113zM363 394h-187v-112h187v112zM170 658h79v132h-79v-132zM604 489q10 -90 -20 -151q-39 -67 -74 -33q-12 16 11 31t42 48q20 35 24 105h17zM588 883q6 -110 -22 -152q-40 -49 -67 -19q-11 18 10 29q21 12 41 45t23 97
h15z" />
  </g>

</svg>
