<?xml version="1.0" standalone="no"?>
<!DOCTYPE svg PUBLIC "-//W3C//DTD SVG 1.1//EN" "http://www.w3.org/Graphics/SVG/1.1/DTD/svg11.dtd" >
<svg xmlns="http://www.w3.org/2000/svg" xmlns:xlink="http://www.w3.org/1999/xlink" version="1.1" viewBox="0 -205 1024 1024">
  <g transform="matrix(1 0 0 -1 0 819)">
   <path fill="currentColor"
d="M751 878l72 -28q14 -5 6 -11q-19 -4 -29 -18l-6 -97h106l26 34l62 -44q8 -6 7 -8q-2 -3 -13 -2h-189l-7 -125h92l23 31l50 -35q7 -6 5 -10q-1 -5 -11 -7l-16 -13v-332l3 -108q3 -50 -43 -45v70h-219v-53q4 -37 -47 -44q5 37 7 144v385q2 16 -19 37l12 16l34 -36h91l6 125
h-105q-27 1 -45 -13l-34 33h185l5 107q2 17 -17 36zM129 576l26 -27h202l16 29l36 -27q14 -10 8 -13l-18 -15v-356q2 -61 -10 -86q-12 -26 -58 -36q-2 28 -20 36q-18 6 -76 21l2 16q92 -15 108 -13t16 48v121h-195v-129l4 -65q3 -38 -49 -46q1 11 4 30q2 21 3 28v439
q3 11 -13 34zM505 655q2 -5 -1 -7q-2 -2 -9 0q-18 0 -55 -49q-13 -18 -22 -29l-11 8l26 68h-346v-2q2 -67 -30 -86q-18 -12 -31 3t4 30t26 35t17 84h15q-1 -23 -1 -44h37v247q3 21 -12 49l11 10l27 -32h209l21 26l35 -28q9 -6 9 -10q0 -5 -9 -7l-16 -9v-246h32l27 31z
M892 993l65 -58q9 -9 9 -14t-9 -6q-34 14 -75 5q-69 -14 -132 -23q-58 -8 -188 -20v-196q7 -295 -26 -429q-33 -131 -105 -222l-8 10q63 110 83 233q21 128 16 392v209q-2 23 -23 48l10 8l46 -36q131 18 195 33q68 17 89 24q21 8 33 15q12 8 13 22zM275 666h88v254h-203
v-106h81l23 24l23 -24q18 -16 8 -21l-20 -9v-118zM889 283h-219v-133h219v133zM889 425h-219v-126h219v126zM670 441h219v118h-219v-118zM166 418h195v113h-195v-113zM361 402h-195v-112h195v112zM160 666h85v132h-85v-132z" />
  </g>

</svg>
