<?xml version="1.0" standalone="no"?>
<!DOCTYPE svg PUBLIC "-//W3C//DTD SVG 1.1//EN" "http://www.w3.org/Graphics/SVG/1.1/DTD/svg11.dtd" >
<svg xmlns="http://www.w3.org/2000/svg" xmlns:xlink="http://www.w3.org/1999/xlink" version="1.1" viewBox="0 0 2048 2048">
  <g transform="matrix(1 0 0 -1 0 2048)">
   <path fill="currentColor"
d="M1017 488h500l69 77l84 -54q40 -26 40 -49q0 -26 -71 -58v-146l74 -52q10 -7 14 -24q7 -30 -16 -30h-1182v-62q0 -46 -69 -40q-42 4 -39 53l4 54q8 135 8 142v139l-8 113q-157 -36 -297 -62l-9 44q380 88 605 197q102 49 244 150h-616q-68 0 -150 -12l-38 85
q123 -17 188 -17h1325l98 104l120 -107q20 -18 17 -35q-3 -18 -27 -18h-765q-42 -35 -74 -60v-84q0 -80 6 -140q5 -44 4 -68q-2 -27 -39 -40zM981 488q-35 13 -35 43l1 221q-204 -117 -502 -195l93 -69h443zM529 210h1010v220h-1010v-220zM1619 1934l111 -63q32 -17 27 -41
q-5 -21 -34 -19l-61 4q-174 -129 -316 -187q-83 -34 -251 -78l-17 40q378 137 541 344zM1180 791l12 36q287 -67 417 -109q135 -44 204 -83q73 -42 80 -92q4 -27 -15 -46q-18 -18 -42 -11q-18 5 -42 22q-125 95 -291 167q-98 42 -323 116zM898 1129q-39 -6 -190 -34
q-34 -6 -365 -54l-87 -12q-1 -55 -33 -59q-19 -2 -33 31l-42 102q86 77 164 182h-71q-92 0 -160 -7l-38 88q18 -5 74 -12q93 -12 102 -12h42v463q0 74 -16 134l119 -88h469l80 81l114 -86q22 -16 16 -34q-6 -19 -26 -19l-662 -1v-106h391l79 81l115 -86q21 -16 15 -33
q-5 -19 -26 -19h-574v-113l391 -1l79 81l115 -86q20 -16 15 -33q-5 -18 -26 -18h-574v-117h543l81 80l114 -86q21 -15 15 -33q-5 -18 -25 -18h-639q-94 -87 -194 -162l98 7q376 26 519 41q-29 35 -65 68l23 25q204 -109 210 -196q2 -35 -26 -55q-15 -11 -32 -5q-19 6 -44 61
q-16 35 -35 60zM1728 1689l86 -52q49 -30 49 -49q0 -29 -34 -27l-60 4q-169 -110 -295 -158q-166 -65 -315 -92l-11 38q193 61 358 156q93 54 154 113q14 13 68 67zM1816 1433l107 -65q32 -19 30 -42q-1 -27 -33 -23l-61 8q-267 -193 -723 -293l-4 45q207 57 374 143
q147 77 216 132q41 34 94 95z" />
  </g>

</svg>
