<?xml version="1.0" standalone="no"?>
<!DOCTYPE svg PUBLIC "-//W3C//DTD SVG 1.1//EN" "http://www.w3.org/Graphics/SVG/1.1/DTD/svg11.dtd" >
<svg xmlns="http://www.w3.org/2000/svg" xmlns:xlink="http://www.w3.org/1999/xlink" version="1.1" viewBox="0 -205 1024 1024">
  <g transform="matrix(1 0 0 -1 0 819)">
   <path fill="currentColor"
d="M230 319l41 -40h484l39 39l46 -43q7 -6 5 -10q-1 -5 -11 -7l-18 -9v-119l3 -67q0 -32 -45 -33v52h-495v-17q3 -36 -49 -44q5 37 7 118v131q2 14 -19 33zM648 560l78 -34q14 -5 6 -11q-16 -4 -27 -18v-31h118l26 36l64 -42q8 -5 7 -8q-2 -2 -13 -2h-202v-88h208l26 36
l64 -44q8 -5 7 -8q-2 -2 -13 -2h-861q-27 1 -45 -13l-32 31h294v88h-111q-27 1 -45 -13l-32 29h188v43q2 17 -25 42l8 11l78 -30q14 -5 6 -11q-16 -4 -27 -18v-37h272v41q2 17 -25 42zM151 992l42 -35h255l22 28l58 -30q8 -6 7 -9q-2 -3 -13 -3h-320v-74h210l18 28l58 -30
q8 -6 7 -9q-2 -3 -13 -3h-280v-70h210l18 28l58 -30q8 -6 7 -9q-2 -3 -13 -3h-280v-74h270l18 28l62 -34q8 -5 7 -8q-2 -2 -13 -2h-244q-52 -44 -120 -94q123 7 288 19l-2 3q-17 17 -53 35l4 12q114 -36 110 -93q-4 -17 -19 -17q-12 2 -18 22q-3 9 -8 18q-34 -3 -91 -7
q-62 -5 -127 -10q-68 -6 -95 -13t-39 -25l-36 56q30 2 48 8q51 36 103 86h-136q-27 1 -45 -17l-34 33h128v238q3 21 -20 43zM279 186h495v77h-495v-77zM774 172h-495v-74h495v74zM665 450h-272v-88h272v88zM932 741l54 -50q7 -5 6 -8q0 -4 -8 -5q-21 5 -51 -6
q-148 -78 -366 -100l-2 14q134 26 204 50t112 48t43 31q2 8 -1 21zM848 995l62 -52q7 -5 6 -8q0 -4 -8 -5q-19 5 -47 -1q-122 -76 -290 -109l-2 14q68 19 134 49t103 53t38 30q2 8 -5 21zM882 871l59 -50q7 -5 6 -8q0 -4 -8 -5q-19 5 -43 0q-128 -74 -314 -107l-2 14
q165 41 257 98q39 24 40 31q2 8 -4 21z" />
  </g>

</svg>
