<?xml version="1.0" standalone="no"?>
<!DOCTYPE svg PUBLIC "-//W3C//DTD SVG 1.1//EN" "http://www.w3.org/Graphics/SVG/1.1/DTD/svg11.dtd" >
<svg xmlns="http://www.w3.org/2000/svg" xmlns:xlink="http://www.w3.org/1999/xlink" version="1.1" viewBox="0 0 2048 2048">
  <g transform="matrix(1 0 0 -1 0 2048)">
   <path fill="currentColor"
d="M481 739l12 27q25 -11 38 -15q107 -38 92 -99q-3 -14 -28 -24h256l80 80l114 -86q21 -16 16 -34q-6 -18 -26 -18h-552q-4 -58 -15 -113h362l69 72l65 -47q46 -34 46 -53q0 -26 -38 -46l-29 -15q-9 -42 -13 -63q-19 -104 -47 -142q-43 -60 -154 -83q-1 65 -54 90
q-9 5 -89 26q-25 7 -55 18l10 41q36 -11 105 -22q34 -5 77 -15q37 -10 56 -5q54 14 67 190h-392q-39 -112 -126 -197q-55 -53 -178 -123l-18 35q133 109 183 193q55 93 68 259h-56q-108 0 -192 -8l-37 88q94 -22 229 -22h247q-17 6 -40 53q-8 15 -53 58zM206 767l-38 88
q92 -22 230 -22h116v96h-198q-118 0 -192 -8l-38 89q93 -23 230 -23h198l2 36q-8 111 -11 122l109 -24q83 -18 86 -43q3 -29 -49 -44l-41 -11v-36h257l80 81l114 -86q21 -16 16 -34q-6 -19 -26 -19h-441v-96h190l80 80l114 -86q21 -16 16 -33q-6 -19 -26 -19h-586
q-114 0 -192 -8zM1317 896l386 -1l98 99l121 -105q20 -17 15 -33q-6 -18 -26 -18h-133q-65 -312 -213 -471q93 -78 216 -135q57 -27 198 -60l-4 -35q-90 -4 -128 -71q-224 106 -348 238q-195 -157 -494 -235l-10 38q31 14 47 20q274 115 405 241q-81 109 -176 296l31 26
q122 -179 198 -261q120 154 176 409h-379q-57 -115 -81 -155q-38 -64 -108 -143l-30 25q145 225 194 595l86 -19q77 -16 86 -41q10 -31 -90 -55q-20 -91 -37 -149zM1634 1953l73 -36q64 -36 65 -50q3 -30 -31 -25l-62 8q-143 -99 -227 -138q-152 -70 -337 -108l-11 36
q370 137 530 313zM954 1938l101 -76q20 -15 19 -31q-2 -19 -26 -19h-665v-91h409l74 72l96 -67q29 -21 28 -39q-1 -20 -28 -20h-579v-89h409l74 73l101 -81q16 -13 14 -31t-19 -18h-579v-95h532l80 80l109 -85q19 -14 19 -30q0 -23 -24 -23h-680q-71 -71 -156 -133
q82 7 303 19q125 7 324 27q-34 22 -56 34l16 34q48 -16 97 -31q111 -34 111 -87q0 -43 -34 -49q-24 -4 -69 45q-7 7 -17 16q-125 -28 -662 -87l-7 -38q-4 -24 -19 -27q-28 -6 -46 42l-36 95q76 59 138 140h-43q-87 -2 -143 -11l-38 92q17 -5 69 -11q96 -12 102 -12h35v394
q0 74 -16 134l111 -84h501zM1741 1763l64 -34q29 -14 34 -17q55 -27 33 -55q-10 -11 -31 -8l-53 9q-178 -120 -325 -178q-137 -53 -296 -84l-14 40q175 46 355 148q134 76 233 179zM1828 1559l75 -38q70 -37 62 -63q-6 -16 -26 -13l-62 8q-190 -119 -316 -167
q-154 -59 -402 -108l-14 40q440 105 683 341z" />
  </g>

</svg>
