<?xml version="1.0" standalone="no"?>
<!DOCTYPE svg PUBLIC "-//W3C//DTD SVG 1.1//EN" "http://www.w3.org/Graphics/SVG/1.1/DTD/svg11.dtd" >
<svg xmlns="http://www.w3.org/2000/svg" xmlns:xlink="http://www.w3.org/1999/xlink" version="1.1" viewBox="0 0 2048 2048">
  <g transform="matrix(1 0 0 -1 0 2048)">
   <path fill="currentColor"
d="M548 703l61 -28h786l62 68l84 -53q40 -25 40 -46q0 -31 -72 -52l1 -201q0 -7 11 -103q4 -36 4 -37q0 -35 -46 -42q-33 -4 -57 13q-11 8 -11 19v15h-593l89 -54q17 -11 15 -27q-3 -24 -30 -19l-45 9q-189 -80 -551 -131l-8 35q337 82 491 187h-176l1 -20q3 -31 -60 -27
q-54 4 -50 50l5 46l3 41l4 45l-1 297q-120 -39 -270 -63l-5 37q42 12 64 18q212 59 332 144h-211q-28 -7 -46 -6q-38 2 -45 28q-3 12 19 72l76 204l88 -75h247q0 8 7 99h-224q-105 0 -191 -9l-39 85q90 -22 230 -22h226q1 28 1 34q-4 76 -4 103l121 -26q37 -8 41 -23
q3 -11 -6.5 -23t-22.5 -15l-35 -7l-1 -43h325v31q0 64 -10 108l110 -24q60 -13 64 -37q4 -25 -37 -35l-31 -8v-35h249l68 76l84 -54q40 -26 40 -49q0 -27 -78 -61v-120q0 -38 -49 -48q-48 -10 -48 13v31h-266v-107h408l60 76l84 -56q40 -26 40 -48q0 -25 -70 -60
q-14 -89 -48 -128q-36 -41 -106 -53q-7 43 -29 61q-23 19 -85 44l8 26q42 -9 77 -16q42 -9 54 10q21 35 24 86l-417 1q2 -12 4 -48l4 -41q0 -37 -55 -44q-49 -5 -49 27v106h-436q-73 -73 -198 -121zM689 881q36 45 53 107h-266l-41 -107h254zM856 1146q-3 -22 -5 -55
q-2 -22 -5 -44h336v99h-326zM837 988q-16 -59 -45 -107h390v107h-345zM1278 1047h266v99h-266v-99zM603 428h808v67h-808v-67zM603 311h808v59h-808v-59zM603 551h808v66h-808v-66zM453 1497q-90 -65 -174 -115q131 6 308 17q138 8 242 12q-23 19 -71 45l14 23
q90 -29 121 -44q73 -34 80 -75q5 -21 -11 -38q-15 -17 -33 -15q-20 3 -40 34q-7 11 -30 40q-256 -41 -499 -66l-56 -6l-10 -25q-8 -39 -29 -35q-22 4 -40 46l-37 87q66 42 139 115h-79q-58 0 -141 -11l-36 82q81 -19 153 -19h55v303q0 14 -13 122l116 -75h476l74 65l84 -65
q26 -20 22 -36q-3 -15 -22 -15h-650v-68h425l57 51l73 -51q29 -21 26 -34q-4 -15 -19 -15h-562v-64h416l58 47l72 -47q22 -14 20 -31q-3 -16 -20 -16h-546v-71h562l68 62l84 -62q26 -19 27 -32q1 -20 -19 -20h-635zM1123 223q46 -5 140 -17q192 -23 266 -44q71 -20 101 -36
q46 -25 46 -62q0 -35 -34 -40q-25 -4 -107 37q-155 77 -418 122zM1693 1849q-250 -115 -533 -126l-3 38q44 9 156 30q200 36 360 163l66 -41q68 -43 56 -67q-6 -13 -26 -11q-5 1 -38 7zM1854 1502q-163 -72 -311 -105q-175 -38 -429 -48l-7 35q56 9 84 13q265 40 411 96
q116 43 216 115l64 -39q65 -40 58 -63q-5 -18 -29 -14zM1767 1680q-140 -66 -288 -94q-189 -37 -303 -41l-9 39q360 46 575 201l57 -42q59 -41 56 -58q-4 -16 -27 -13z" />
  </g>

</svg>
