<?xml version="1.0" standalone="no"?>
<!DOCTYPE svg PUBLIC "-//W3C//DTD SVG 1.1//EN" "http://www.w3.org/Graphics/SVG/1.1/DTD/svg11.dtd" >
<svg xmlns="http://www.w3.org/2000/svg" xmlns:xlink="http://www.w3.org/1999/xlink" version="1.1" viewBox="0 0 2048 2048">
  <g transform="matrix(1 0 0 -1 0 2048)">
   <path fill="currentColor"
d="M1529 877q-7 -1 -13 -1q-25 0 -52 36q-8 10 -51 90q-63 119 -263 265q-73 -103 -151 -179l-28 23q140 203 222 408q81 202 131 420l160 -57q31 -11 29 -35q-2 -22 -32 -28l-67 -14q-63 -166 -110 -266h391l57 76l105 -64q33 -20 28 -44q-3 -13 -28 -30l-49 -34
q-67 -290 -131 -455q-170 -436 -544 -713l-25 29q134 113 272 311q70 100 149 262zM1568 965q104 267 139 518h-430q-52 -105 -104 -183q134 -64 216 -120q142 -96 179 -215zM794 867l88 -28q72 -22 71 -45q-2 -17 -51 -28l-34 -7q-48 -150 -112 -253l188 23q-17 53 -62 125
l28 20q49 -40 85 -88q57 -74 57 -121q0 -30 -20 -49q-14 -14 -35 -12q-28 3 -32 32q-3 27 -9 47q-81 -28 -162 -49l-7 -34q-9 -37 -27 -38q-22 -1 -38 57l-23 79q66 161 95 369zM788 1660l62 72l71 -50q38 -26 42 -43q5 -20 -25 -37q-33 -20 -36 -22v-466q0 -47 7 -104
q3 -26 3 -43q0 -42 -58 -49q-48 -7 -48 24v23h-141v-657q0 -67 48 -81q36 -11 137 -11h862q89 0 120 14q32 16 48 89l34 163l39 -3l-10 -160q-2 -43 30 -69q38 -31 33 -57q-14 -64 -294 -64h-888q-110 0 -166 14q-87 22 -87 131v691h-117q-5 -224 -19 -345
q-29 -250 -163 -400q-74 -83 -179 -151l-20 27q166 153 223 326q40 121 51 320q7 116 10 223h-111v-35q0 -27 -45 -31q-66 -5 -60 51l4 42q6 98 6 104v628l115 -64h87q48 114 64 278l112 -24q74 -16 68 -46q-4 -19 -30 -23l-59 -9q-21 -40 -32 -59q-36 -69 -66 -117h378z
M806 1602h-232v-260h232v260zM246 1342h233v260h-233v-260zM246 1022h233v264h-233v-264zM574 1022h232v264h-232v-264z" />
  </g>

</svg>
