<?xml version="1.0" standalone="no"?>
<!DOCTYPE svg PUBLIC "-//W3C//DTD SVG 1.1//EN" "http://www.w3.org/Graphics/SVG/1.1/DTD/svg11.dtd" >
<svg xmlns="http://www.w3.org/2000/svg" xmlns:xlink="http://www.w3.org/1999/xlink" version="1.1" viewBox="0 -205 1024 1024">
  <g transform="matrix(1 0 0 -1 0 819)">
   <path fill="currentColor"
d="M110 733l1 -1q11 15 20 29q41 65 71 132q30 69 26 78q-3 9 -13 24l8 6l79 -37q4 -4 3 -6t-6 -2q-13 -1 -33 -17q-16 -37 -34 -70h123l31 33l56 -50q4 -11 -10 -11q-20 -1 -31 -9q-11 -7 -44 -51q-5 -7 -16 -20q-12 -18 -36 -48h115l23 23l40 -27q14 -12 4 -21l-18 -7
v-272l3 -45q-4 -21 -45 -23v20h-276v-11q0 -24 -49 -34q1 5 2 14q3 24 5 52v302q-35 -40 -73 -71l-8 10q41 50 73 93q-1 1 -3 1zM941 702v-261q-7 -226 -27 -279q-20 -52 -62 -81q-41 -29 -115 -49q-3 41 -43 53q-22 8 -89 25l4 16q114 -20 137 -24q24 -4 53 5t62 51
q34 44 34 261v294h-167q0 -139 -29 -281q-31 -153 -104 -242q-73 -88 -227 -171l-8 12q128 87 203 181q75 97 95 244t24 233v24h-104q-28 1 -40 -14l-36 34h180v198q-11 29 -37 47l7 10l104 -25q8 -2 10 -5q1 -3 -4 -7q-16 -4 -34 -20v-198h151l34 41l48 -40q9 -6 9 -11
q0 -4 -9 -8zM223 851q-30 -55 -63 -102q-12 -18 -25 -34l3 -2h140q41 59 84 138h-139zM269 529h-118v-150h118v150zM269 695h-118v-150h118v150zM427 529h-118v-150h118v150zM309 545h118v150h-118v-150zM120 264q5 -84 -3 -115q-7 -33 -24 -50q-35 -29 -45 2q0 10 16 29
q15 19 22 31q12 23 20 104zM311 294l10 9q52 -52 63 -113q3 -47 -25 -49q-15 1 -14 23q1 24 -4 55q-4 32 -30 75zM208 275l10 6q31 -43 34 -104q-2 -68 -30 -63q-24 5 -7 50q5 16 5 44q0 29 -12 67zM420 309l8 10q92 -73 76 -127q-5 -17 -22 -16q-16 0 -16 24q-1 46 -46 109
z" />
  </g>

</svg>
