<?xml version="1.0" standalone="no"?>
<!DOCTYPE svg PUBLIC "-//W3C//DTD SVG 1.1//EN" "http://www.w3.org/Graphics/SVG/1.1/DTD/svg11.dtd" >
<svg xmlns="http://www.w3.org/2000/svg" xmlns:xlink="http://www.w3.org/1999/xlink" version="1.1" viewBox="0 -205 1024 1024">
  <g transform="matrix(1 0 0 -1 0 819)">
   <path fill="currentColor"
d="M396 832q4 -11 -10 -11q-20 -1 -28 -9q-7 -7 -30 -40q-21 -31 -57 -95h113l23 23l38 -27q14 -12 4 -21l-18 -7v-272l3 -45q-4 -21 -43 -23v20h-246v-11q0 -25 -47 -34q1 5 2 14q3 24 5 52v318q2 9 -3 13q-39 -51 -80 -84l-10 10q99 116 158 275q26 74 22 83q-3 9 -13 24
l8 6l77 -37q4 -4 3 -6t-6 -2q-14 -3 -31 -17q-16 -44 -33 -82h112l33 33zM859 989l55 -50q9 -9 9 -14t-9 -6q-36 8 -60 -2q-61 -16 -117 -30v-391h162l32 40l68 -50q8 -5 7 -8q-2 -2 -13 -2h-256v-353q-1 -31 -17 -50q-15 -19 -83 -35q-3 33 -27 43q-24 9 -86 25l4 18
l42 -10q128 -31 123 36v326h-169q-27 1 -45 -13l-34 33h248v381l-18 -3q-85 -17 -213 -23v17q116 15 187 31q71 17 125 33q54 18 63 27q11 10 15 28zM189 829q-28 -60 -57 -107q-1 -2 -4 -6q-6 -10 -16 -24l21 -15h115q9 19 26 58q30 63 44 94h-129zM287 509h104v150h-104
v-150zM249 493h-104v-150h104v150zM249 659h-104v-150h104v150zM391 493h-104v-150h104v150zM870 817l68 -36q17 -10 7 -15q-18 2 -32 -12q-79 -148 -139 -231l-16 4q101 189 112 250q2 15 -9 32zM489 773l9 8q120 -98 115 -179q-3 -41 -27 -41t-22 34t-13 74t-62 104z
M112 232q5 -90 -3 -123q-7 -33 -24 -50q-35 -29 -45 2q0 9 16 29q15 19 22 33q12 22 20 110zM380 257l8 10q71 -56 79 -100q6 -21 1 -37q-5 -17 -22 -16q-16 0 -16 24q-2 53 -50 119zM283 246l10 9q52 -52 63 -111q3 -49 -25 -51q-13 1 -15 40q-1 25 -3 39q-4 31 -30 74z
M184 231l10 6q31 -43 34 -103q-2 -69 -30 -64q-24 5 -7 52q5 17 5 43q0 29 -12 66z" />
  </g>

</svg>
