<?xml version="1.0" standalone="no"?>
<!DOCTYPE svg PUBLIC "-//W3C//DTD SVG 1.1//EN" "http://www.w3.org/Graphics/SVG/1.1/DTD/svg11.dtd" >
<svg xmlns="http://www.w3.org/2000/svg" xmlns:xlink="http://www.w3.org/1999/xlink" version="1.1" viewBox="0 -205 1024 1024">
  <g transform="matrix(1 0 0 -1 0 819)">
   <path fill="currentColor"
d="M388 824q4 -11 -10 -11q-20 -1 -28 -9q-7 -7 -30 -40q-21 -31 -57 -95h113l23 23l38 -27q14 -12 4 -21l-18 -7v-272l3 -45q-4 -21 -43 -23v20h-246v-11q0 -25 -47 -34q1 5 2 14q3 24 5 52v318q1 7 -1 11q-37 -50 -78 -82l-10 10q99 116 158 275q26 74 22 83q-3 9 -13 24
l8 6l77 -37q4 -4 3 -6t-6 -2q-14 -3 -31 -17q-16 -44 -33 -82h108l33 33zM793 527q-1 23 -26 46l8 11l86 -38q9 -4 11 -7q2 -4 -4 -7q-18 -5 -31 -16v-100h62l32 40l68 -50q8 -5 7 -8q-2 -2 -13 -2h-156v-275q-1 -35 -17 -54q-15 -19 -83 -35q-3 31 -26 42q-22 10 -87 26
l4 18l42 -10q71 -16 96 -6q27 9 27 50v244h-249q-27 1 -45 -13l-34 33h328v111zM660 1002l82 -34q14 -5 6 -11q-16 -4 -27 -18v-131h102l32 40l68 -50q8 -5 7 -8q-2 -2 -13 -2h-196v-180h174l32 40l68 -50q8 -5 7 -8q-2 -2 -13 -2h-461q-27 1 -45 -13l-34 33h228v180h-125
q-27 1 -45 -13l-34 33h204v141q2 17 -25 42zM185 821q-28 -60 -57 -107q-10 -17 -21 -32l17 -13h116q9 19 26 58q30 63 44 94h-125zM279 501h104v150h-104v-150zM241 485h-104v-150h104v150zM241 651h-104v-150h104v150zM383 485h-104v-150h104v150zM540 349l10 12
q92 -52 106 -95q18 -53 -20 -59q-18 0 -21 28t-18 53t-57 61zM112 224q5 -90 -3 -123q-7 -33 -24 -50q-35 -29 -45 2q0 9 16 29q15 19 22 33q12 22 20 110zM364 245l8 10q71 -56 79 -100q6 -20 1 -37t-22 -16q-16 0 -16 24q-2 53 -50 119zM271 238l10 9q52 -52 63 -111
q3 -49 -25 -51q-13 1 -15 40q-1 25 -3 39q-4 32 -30 74zM180 223l10 6q31 -42 34 -102q-2 -70 -30 -65q-24 5 -7 52q5 17 5 43q0 29 -12 66z" />
  </g>

</svg>
