<?xml version="1.0" standalone="no"?>
<!DOCTYPE svg PUBLIC "-//W3C//DTD SVG 1.1//EN" "http://www.w3.org/Graphics/SVG/1.1/DTD/svg11.dtd" >
<svg xmlns="http://www.w3.org/2000/svg" xmlns:xlink="http://www.w3.org/1999/xlink" version="1.1" viewBox="0 -205 1024 1024">
  <g transform="matrix(1 0 0 -1 0 819)">
   <path fill="currentColor"
d="M398 856q2 -5 -1 -7q-2 -2 -9 0q-22 -6 -32 -19q-10 -12 -34 -53q-11 -18 -35 -60q-9 -16 -14 -24h91l21 29l46 -33q7 -6 5 -10q-1 -5 -11 -7l-16 -11v-245l5 -66q4 -29 -43 -36v29h-224v-9q4 -37 -45 -44q5 37 7 128v267q0 1 -1 3q0 2 -1 3q-40 -51 -86 -87l-8 10
q113 128 173 280q26 66 22 76q-3 11 -11 21l8 6l73 -35q2 -4 1 -6t-6 -2q-18 1 -31 -19q-12 -34 -28 -68h103l27 29zM488 867l47 -41h347l32 40l68 -48q8 -6 7 -9q-2 -3 -13 -3h-430v-143q1 -106 -4 -198q34 50 64 105q32 56 53 108t18 59q-1 7 -12 22l11 5l74 -41
q2 -4 1 -6t-6 -2q-16 3 -31 -13q-28 -61 -61 -116v-461l2 -57q2 -34 -45 -44q5 37 7 146v361q-31 -44 -69 -79l-6 8q-6 -100 -20 -184q-27 -161 -140 -267l-6 12q95 129 113 296q18 170 15 332v158q-4 29 -26 49zM847 692q-1 23 -26 46l8 11l78 -38q9 -4 11 -7q2 -4 -4 -7
q-18 -5 -31 -16v-126h26l26 36l62 -46q8 -5 7 -8q-2 -2 -13 -2h-108v-436q-1 -36 -13 -53q-11 -17 -65 -29q-3 29 -26 38q-23 8 -91 26l4 16l46 -10q66 -14 87 -6t22 52v402h-109q-27 1 -45 -13l-34 33h188v137zM142 693h107q41 84 71 156h-114q-24 -49 -55 -98
q-6 -9 -18 -26q-7 -9 -10 -14zM277 526h94v149h-94v-149zM241 510h-94v-149h94v149zM241 675h-94v-149h94v149zM371 510h-94v-149h94v149zM632 1001l6 12q132 -67 127 -137q-2 -29 -23 -31t-23 26t-19 59t-68 71zM707 439l8 11q71 -73 78 -134q4 -58 -28 -58q-13 1 -13 35
q0 85 -45 146zM112 244q5 -82 -3 -113q-7 -33 -24 -50q-35 -29 -45 2q0 9 16 29q15 19 22 33q12 20 20 100zM180 247l10 6q20 -33 27 -75q7 -41 -2 -63q-9 -23 -25 -21q-24 3 -7 48q5 13 5 41t-8 64zM259 264l8 9q55 -48 59 -93q7 -50 -21 -51q-15 1 -14 21q2 22 -3 49
q-4 26 -29 65zM346 277l8 10q58 -41 65 -79q13 -47 -15 -48q-12 0 -18 34q-5 22 -9 34q-9 25 -31 49z" />
  </g>

</svg>
