<?xml version="1.0" standalone="no"?>
<!DOCTYPE svg PUBLIC "-//W3C//DTD SVG 1.1//EN" "http://www.w3.org/Graphics/SVG/1.1/DTD/svg11.dtd" >
<svg xmlns="http://www.w3.org/2000/svg" xmlns:xlink="http://www.w3.org/1999/xlink" version="1.1" viewBox="0 -205 1024 1024">
  <g transform="matrix(1 0 0 -1 0 819)">
   <path fill="currentColor"
d="M269 947q2 -4 1 -6t-6 -2q-18 1 -31 -19q-14 -35 -29 -68h98l29 33l48 -46q2 -5 -1 -7q-2 -2 -9 0q-22 -6 -30 -16q-8 -9 -35 -54q-25 -40 -51 -84h81l19 27l38 -31q7 -6 5 -10q-1 -5 -11 -7l-12 -11v-254l5 -49q3 -28 -39 -36v19h-198v-1q5 -39 -41 -44q5 37 7 122v267
q-2 8 -5 14q-35 -43 -76 -75l-6 8q54 62 96 136q42 75 65 134q24 60 20 70q-3 11 -11 21l8 6zM525 962l68 -31q7 -5 7 -9q0 -3 -7 -5q-14 -3 -22 -6t-26 -47q-16 -37 -37 -78h90l25 27l38 -31q7 -6 5 -10q-1 -5 -11 -7l-14 -13v-443l5 -78q3 -28 -41 -35v50h-123v-58
q2 -36 -43 -42q5 35 7 121v509q-13 30 -17 30l10 12l35 -32h9q13 35 32 91q1 3 2 4q14 44 11 51q-2 9 -11 22zM765 985l72 -27q5 -2 5 -5t-5 -5q-14 -2 -23 -16q2 -145 -1 -280h89l30 38l60 -48q8 -5 7 -8q-2 -2 -13 -2h-138q11 -139 26 -237q25 -159 68 -248q24 -47 63 -59
v-12q-52 3 -68 -12q-31 45 -53 110q-21 68 -38 186q-16 116 -18 272h-16q0 -25 -1 -50q-6 -167 -54 -305q-48 -135 -197 -241l-8 11q143 130 186 293q31 119 37 292h-42q-27 1 -45 -13l-32 33h119q1 41 1 67q1 28 0 52v177q-6 16 -19 28zM605 522h-123v-256h123v256z
M482 540h123v226h-123v-226zM136 678h93q42 80 78 156h-112q-23 -47 -50 -91q-13 -23 -30 -43zM339 494h-83v-150h83v150zM256 510h83v150h-83v-150zM224 494h-83v-150h83v150zM224 660h-83v-150h83v150zM850 867l6 12q65 -31 91 -79q28 -61 -9 -75q-19 -1 -20 21
q-1 23 -14 55t-54 66zM129 241q1 -100 -32 -141q-37 -43 -58 -13q-5 15 14 27q20 11 38 39q18 30 25 88h13zM176 247l8 7q35 -45 37 -108q-2 -54 -29 -49q-15 4 -9 24q17 57 -7 126zM252 261l6 7q38 -29 50 -84q10 -67 -19 -66q-11 -1 -11 36q0 72 -26 107zM333 278l6 8
q45 -35 61 -79q17 -53 -12 -59q-15 -2 -16 23q0 25 -9 50q-7 26 -30 57z" />
  </g>

</svg>
