<?xml version="1.0" standalone="no"?>
<!DOCTYPE svg PUBLIC "-//W3C//DTD SVG 1.1//EN" "http://www.w3.org/Graphics/SVG/1.1/DTD/svg11.dtd" >
<svg xmlns="http://www.w3.org/2000/svg" xmlns:xlink="http://www.w3.org/1999/xlink" version="1.1" viewBox="0 -205 1024 1024">
  <g transform="matrix(1 0 0 -1 0 819)">
   <path fill="currentColor"
d="M953 476l-4 -135q2 -114 -13 -170q-15 -53 -50 -85t-97 -42q0 19 -25 39q-44 23 -91 35l4 16q74 -21 132 -29q101 9 98 214l4 172h-368q-55 -65 -107 -100l-6 11q55 60 100 127q46 68 52 78q6 11 0 30l2 1h-15v-3q4 -37 -47 -44q5 37 7 82v250q2 16 -19 37l14 12l34 -34
h289l23 31l52 -35q7 -6 5 -10q-1 -5 -11 -7l-18 -13v-202l3 -59q1 -34 -43 -33v28h-259l49 -27q7 -4 6 -8t-9 -8q-16 3 -29 -9q-29 -40 -56 -75h335l30 39l48 -38q9 -6 9 -11q0 -4 -9 -8zM404 856q2 -5 -1 -7q-2 -2 -9 0q-22 -6 -32 -19q-10 -12 -33 -53q-21 -37 -48 -84h91
l21 29l44 -33q7 -6 5 -10q-1 -5 -11 -7l-16 -11v-253l5 -66q4 -29 -41 -36v37h-242v-9q3 -37 -43 -44q5 37 7 128v267q0 1 -1 2q-39 -49 -83 -83l-8 10q57 64 102 139q46 77 70 141q25 66 22 76q-2 11 -10 21l8 6l71 -35q2 -4 1 -6t-6 -2q-18 1 -31 -19q-12 -34 -27 -68h116
l27 29zM858 784h-289v-126h289v126zM569 800h289v118h-289v-118zM132 693h125q41 84 71 156h-127q-24 -49 -55 -99l-21 -30q-5 -8 -8 -12zM506 384q1 24 -20 33l8 10l67 -19q16 -10 7 -13q-18 -5 -28 -19v-172h251l25 29l50 -32q10 -7 8 -10q-1 -3 -14 -2h-307l-28 -32
l-37 38q14 5 18 24v165zM379 510h-104v-149h104v149zM275 526h104v149h-104v-149zM241 510h-104v-149h104v149zM241 675h-104v-149h104v149zM686 482l53 -33q4 -4 4 -7q-1 -2 -6 -4q-13 1 -25 -10l-6 -12q-5 -12 -8 -17q47 -16 81 -42q34 -24 47 -53q13 -31 -6 -43
q-17 -9 -28 17q-10 26 -36 55q-22 26 -65 54q-19 -31 -41 -60q-35 -43 -89 -78l-5 9q77 82 113 159q15 33 17 41t-7 21zM100 248q5 -86 -3 -117q-7 -33 -24 -50q-35 -29 -45 2q0 9 16 29q15 19 22 33q12 21 20 104zM174 251l10 6q29 -42 30 -103q-1 -67 -28 -64q-24 2 -7 52
q5 16 5 45q0 28 -10 64zM267 264l8 9q50 -53 58 -108q6 -49 -22 -50q-15 1 -14 25q2 22 -3 54q-4 31 -27 70zM362 277l8 10q78 -65 70 -135q-3 -15 -19 -14q-15 0 -15 22q-2 67 -44 117z" />
  </g>

</svg>
