<?xml version="1.0" standalone="no"?>
<!DOCTYPE svg PUBLIC "-//W3C//DTD SVG 1.1//EN" "http://www.w3.org/Graphics/SVG/1.1/DTD/svg11.dtd" >
<svg xmlns="http://www.w3.org/2000/svg" xmlns:xlink="http://www.w3.org/1999/xlink" version="1.1" viewBox="0 -205 1024 1024">
  <g transform="matrix(1 0 0 -1 0 819)">
   <path fill="currentColor"
d="M372 844q2 -5 -1 -7q-2 -2 -9 0q-22 -6 -31 -19q-9 -12 -32 -53q-21 -37 -48 -84h93l21 29l40 -33q7 -6 5 -10q-1 -5 -11 -7l-16 -11v-245l5 -66q2 -27 -37 -36v29h-230v-9q3 -37 -39 -44q5 37 7 128v267q-1 3 -1 5q-35 -45 -67 -70l-8 10q39 47 84 120q46 75 71 140
q26 66 22 76q-3 11 -11 21l8 6l71 -31q2 -4 1 -6t-6 -2q-18 1 -31 -19q-12 -34 -28 -68h103l27 29zM458 893l36 -45h383l32 42l68 -50q8 -5 7 -8q-2 -2 -13 -2h-182v-113h102l23 25l38 -31q7 -5 6 -9t-10 -8l-12 -7v-74l4 -51q0 -30 -40 -31v32h-398q-1 -192 -26 -300
q-30 -134 -146 -237l-10 12q98 109 123 230q26 123 23 413v152q2 22 -20 46zM896 501l58 -41q7 -7 7 -10t-7 -4q-16 2 -28 0q-12 -1 -43 -22q-28 -20 -99 -52v-5q0 -66 14 -77q15 -10 32 -10h41h11q70 -4 71 26q5 17 6 35q0 3 1 10q1 9 4 58h14q3 -46 4 -59q1 -18 0 -26
q0 -18 20 -21q-18 -61 -64 -51q-20 0 -34 -1q-101 0 -119 4q-36 9 -35 92v150q-1 25 -22 40l8 10l84 -33q4 -3 3 -5q0 -2 -4 -4q-17 -2 -35 -17v-95q59 36 77 51q47 37 25 49zM116 681h113q41 84 71 156h-114q-24 -49 -55 -98l-21 -30q-5 -8 -8 -12zM611 510q18 -5 10 -13
q-16 -4 -29 -16v-63h47l24 28l50 -34q10 -5 10 -8q0 -2 -10 -2h-121v-113q48 23 120 42l6 -14q-52 -26 -94 -44q-34 -18 -42 -27t-20 -21l-36 46q21 0 32 17v199q-1 24 -24 43l7 11zM221 498h-100v-149h100v149zM221 663h-100v-149h100v149zM351 498h-100v-149h100v149z
M251 514h100v149h-100v-149zM502 701v-36q2 -46 0 -86h113v122h-113zM789 579h111v122h-111v-122zM757 701h-110v-122h110v122zM615 830h-113v-113h113v113zM757 830h-110v-113h110v113zM866 203l6 10q106 -63 110 -134q2 -33 -18 -36t-22 23t-19 62q-16 34 -57 75zM569 188
q8 -76 -30 -128q-17 -20 -41 -23t-29 15t14 25t38 24q18 14 35 89zM616 985l6 10q91 -25 114 -69q21 -52 -18 -56q-18 3 -20 26q-1 23 -21 45q-19 22 -61 44zM748 196l6 9q30 -15 55 -50q25 -31 25 -65q0 -32 -20 -34t-19 23q-1 62 -47 117zM94 232q1 -128 -30 -161
q-33 -32 -43 0q2 13 15 25q14 12 27 45q13 31 19 92zM632 186l10 8q51 -42 60 -86q7 -57 -26 -53q-18 3 -13 28t-6 56q-11 29 -25 47zM160 239l10 4q18 -31 24 -73q6 -40 -2 -63t-23 -21q-23 3 -6 48q5 13 5 41t-8 64zM239 264l6 9q54 -51 59 -95q8 -49 -18 -49
q-12 1 -14 34q-1 23 -3 36q-4 26 -30 65zM324 279l6 8q53 -39 64 -79q14 -48 -14 -50q-13 0 -15 25q-1 24 -10 47t-31 49z" />
  </g>

</svg>
