<?xml version="1.0" standalone="no"?>
<!DOCTYPE svg PUBLIC "-//W3C//DTD SVG 1.1//EN" "http://www.w3.org/Graphics/SVG/1.1/DTD/svg11.dtd" >
<svg xmlns="http://www.w3.org/2000/svg" xmlns:xlink="http://www.w3.org/1999/xlink" version="1.1" viewBox="0 0 2048 2048">
  <g transform="matrix(1 0 0 -1 0 2048)">
   <path fill="currentColor"
d="M645 1635q209 -134 226 -209q6 -26 -11 -51q-13 -19 -31 -22q-27 -4 -62 28q-7 7 -59 65q-43 47 -136 117q-181 -168 -470 -273l-15 39q249 126 412 288q-150 105 -343 201l20 41q181 -69 385 -175q121 136 208 282l114 -51q40 -18 45 -41q6 -29 -42 -30l-55 -2
q-86 -108 -186 -207zM696 840q227 -218 217 -356q-2 -29 -23 -49q-14 -14 -32 -13q-34 3 -43 68q-14 98 -55 176q-20 38 -91 149zM117 291l-26 22q133 271 178 546l132 -55q34 -15 34 -29q0 -23 -32 -29l-54 -9q-102 -263 -232 -446zM1672 1705l61 72l73 -50q36 -25 41 -43
q5 -20 -25 -38q-6 -3 -13 -6l-27 -15v-314q0 -48 7 -105q3 -26 3 -43q0 -41 -56 -49q-48 -7 -48 24l1 64l-536 -2v-172h574l80 81l114 -86q21 -16 16 -33q-6 -19 -26 -19l-759 1l1 -174h661l61 70l72 -49q37 -26 41 -44q5 -20 -25 -37q-6 -4 -12 -7q-10 -5 -27 -14
q-8 -63 -12 -95q-29 -248 -57 -330q-72 -214 -279 -239q-1 67 -67 95q-85 36 -149 53l12 42l72 -21q163 -46 193 -42q93 10 139 194q24 94 50 367h-686q-21 -16 -45 -15q-38 2 -38 37v843q0 83 -15 167l121 -68h72q40 146 50 247l109 -26q69 -17 69 -44q0 -22 -45 -30
l-42 -8q-45 -74 -91 -139h387zM1153 1256h533v174h-533v-174zM1686 1648h-533v-162h533v162zM1572 670q170 -126 176 -208q2 -28 -15 -49q-17 -23 -45 -19t-36 52q-8 41 -29 90q-12 27 -77 112zM490 962h-148q-117 0 -192 -8l-39 88q95 -22 231 -23h149l-1 149q0 117 -8 160
l109 -24q83 -18 86 -44q3 -29 -49 -43l-42 -12l1 -185h157l79 84l112 -85q21 -16 23 -34q2 -23 -22 -23h-349l-1 -547q-1 -122 10 -229q4 -37 4 -70q0 -50 -60 -54q-49 -3 -49 51zM1405 628q62 -56 103 -104q57 -67 57 -130q0 -28 -20 -46t-45 -11q-26 8 -32 59
q-12 102 -92 211zM1251 603q83 -180 83 -251q0 -28 -19 -50q-18 -20 -46 -19q-42 2 -39 49q0 7 2 19q7 45 7 64q0 80 -22 176zM1053 594h40q-2 -154 -18 -241q-22 -120 -98 -126q-22 -1 -37 8q-25 15 -20 44q4 22 48 66q52 52 68 122q10 47 17 127z" />
  </g>

</svg>
