<?xml version="1.0" standalone="no"?>
<!DOCTYPE svg PUBLIC "-//W3C//DTD SVG 1.1//EN" "http://www.w3.org/Graphics/SVG/1.1/DTD/svg11.dtd" >
<svg xmlns="http://www.w3.org/2000/svg" xmlns:xlink="http://www.w3.org/1999/xlink" version="1.1" viewBox="0 -205 1024 1024">
  <g transform="matrix(1 0 0 -1 0 819)">
   <path fill="currentColor"
d="M668 975l70 -28q17 -10 7 -15q-20 -3 -28 -12q-22 -33 -63 -83h184l31 39l50 -43q7 -6 5 -10q-1 -5 -11 -7l-18 -9v-143l5 -46q0 -29 -43 -36v25h-281v-93h328l22 32l58 -36q8 -6 7 -9q-2 -3 -13 -3h-402v-84h335l22 33l42 -28q9 -6 9 -11q0 -4 -9 -8l-16 -17v-61
q0 -132 -19 -180q-19 -51 -53 -75t-94 -32q-4 20 -26 32q-39 21 -100 36l2 14q104 -24 144 -25q49 0 77 42q29 38 29 166v98h-343v-10q2 -34 -47 -44q5 37 7 106v377q-3 24 -20 40l12 11l43 -41h55l24 42q28 53 25 63q-3 11 -13 22zM243 547q-1 23 -26 46l8 11l84 -38
q9 -4 11 -7q2 -4 -4 -7q-18 -5 -31 -16v-68h106l32 40l68 -50q8 -5 7 -8q-2 -2 -13 -2h-200v-320q-1 -34 -16 -53q-14 -19 -80 -35q-3 31 -26 42q-22 10 -81 22l4 18l34 -8q71 -16 96 -6q27 9 27 50v290h-141q-27 1 -45 -13l-34 33h220v79zM93 807l7 14q100 -36 173 -75
q8 9 15 17q39 48 81 113h-252q-25 1 -36 -14l-31 34h317l24 31l53 -40q7 -5 7 -9q0 -5 -7 -7q-25 0 -75 -68q-23 -32 -37 -50q-11 -13 -23 -27q71 -42 104 -74q29 -29 33 -54q4 -27 -19 -29q-19 0 -39 33q-19 34 -83 85q-1 1 -3 2q-6 6 -17 14q-31 -28 -71 -56
q-76 -52 -189 -88l-4 14q108 54 168 98q35 26 63 53q-61 38 -159 83zM857 715h-281v-92h281v92zM576 729h281v92h-281v-92zM136 403l57 -36q7 -5 6 -8q0 -4 -8 -5q-11 1 -26 -11q-72 -132 -150 -193l-8 7q77 101 107 173q2 4 5 11q20 40 6 51zM324 379l6 14q83 -48 113 -104
q32 -67 -8 -82q-19 -2 -24 31q-4 33 -30 74q-25 41 -57 67zM531 276q6 -111 -47 -151q-25 -17 -37 0t11 31q23 16 40 44q17 27 21 76h12zM668 315l6 8q50 -33 66 -75q16 -52 -15 -59q-16 -1 -17 21q-1 23 -7 48q-6 26 -33 57zM576 295l8 6q57 -58 50 -121q-3 -26 -22 -25
t-15 25q4 23 2 50t-23 65zM764 339l6 8q80 -43 84 -99q2 -25 -15 -27q-14 -2 -22 29q-6 21 -12 33q-12 26 -41 56z" />
  </g>

</svg>
