<?xml version="1.0" standalone="no"?>
<!DOCTYPE svg PUBLIC "-//W3C//DTD SVG 1.1//EN" "http://www.w3.org/Graphics/SVG/1.1/DTD/svg11.dtd" >
<svg xmlns="http://www.w3.org/2000/svg" xmlns:xlink="http://www.w3.org/1999/xlink" version="1.1" viewBox="0 -205 1024 1024">
  <g transform="matrix(1 0 0 -1 0 819)">
   <path fill="currentColor"
d="M323 655l64 -24q5 -4 5 -8t-4 -5h-1q-1 1 -3 1q-16 0 -47 -39q-9 -11 -14 -17h413l21 25l48 -27q6 -4 6 -9t-12 -8l-10 -11v-93l5 -38q2 -27 -47 -32v27h-479v-59h610l22 32l58 -36q7 -4 7 -8t-13 -4h-684v-58h569l22 33l46 -32q9 -6 9 -11t-9 -8l-14 -13v-54
q-1 -94 -75 -142q-35 -21 -131 -28q-10 41 -130 62l2 14q86 -19 146 -25h16q129 1 130 121v67h-581q-3 -34 -49 -40q5 34 7 86v261q0 14 -6 34l12 7l28 -33h34l21 38q10 20 10 27q0 6 -10 22zM409 804h208v110h-167q-22 0 -41 -13l-34 29h462l24 34l64 -40q7 -4 7 -7t-13 -3
h-260v-110h144l24 34l62 -40q7 -4 7 -7t-13 -3h-224v-114h214l24 36l64 -42q7 -4 7 -7t-13 -3h-533q-22 0 -41 -13l-34 29h270v114h-133q-22 0 -41 -13zM268 485h479v62h-479v-62zM747 471h-479v-58h479v58zM354 900l14 -12l-98 -125q-16 -21 -38 -47q-30 -31 -26 -52
q0 -7 4 -33q5 -31 5 -42q0 -33 -23 -35h-3q-22 0 -22 33q0 8 3 28q2 20 2 27q1 35 -17 45q-15 12 -75 15l2 18q17 -2 31 -2h26q28 0 38 4q11 3 34 20q21 17 143 158zM65 886l4 13q148 -21 145 -83q-1 -23 -19 -24h-2q-8 0 -21 18q-37 54 -107 76zM157 990l4 13
q131 -26 131 -88q-1 -25 -20 -26q-18 0 -23 20q-15 48 -92 81zM199 185q-12 -123 -96 -137q-19 2 -21 21q0 6 24 22q67 43 81 94h12zM442 203l8 8q72 -40 73 -88v-6q-2 -19 -19 -20h-3q-11 0 -14 22q-9 48 -45 84zM616 221l4 8q75 -28 82 -86q-1 -22 -18 -23q-16 0 -18 19
q-5 45 -50 82zM292 188l8 6q57 -41 58 -86q-1 -31 -21 -33h-3q-14 3 -13 21v15q2 42 -29 77z" />
  </g>

</svg>
