<?xml version="1.0" standalone="no"?>
<!DOCTYPE svg PUBLIC "-//W3C//DTD SVG 1.1//EN" "http://www.w3.org/Graphics/SVG/1.1/DTD/svg11.dtd" >
<svg xmlns="http://www.w3.org/2000/svg" xmlns:xlink="http://www.w3.org/1999/xlink" version="1.1" viewBox="0 0 2048 2048">
  <g transform="matrix(1 0 0 -1 0 2048)">
   <path fill="currentColor"
d="M1431 1470l139 -29q43 -8 46 -28q4 -29 -48 -43l-40 -11v-71q0 -35 29 -50q21 -10 83 -10q105 0 135 12q34 14 44 75l22 137l38 -7l-7 -111q-4 -56 36 -83q33 -22 35 -34q7 -76 -265 -76q-147 0 -197 23q-53 24 -53 98v59l-2 52q-2 54 -3 67q-67 -139 -196 -231
q-74 -53 -256 -113l-13 34q167 71 255 155q90 87 136 230l-225 -1q-27 -10 -51 -10q-41 0 -41 22q0 6 1 12l78 247q-46 0 -81 -5l-39 86q125 -18 187 -18h470l80 81l114 -86q21 -16 15 -34q-5 -18 -25 -18h-365q-4 -137 -12 -221l236 1l93 90l107 -85q26 -20 27 -37
q1 -25 -27 -25l-445 1q-4 -25 -15 -45zM1358 1570q10 89 14 221h-170l-73 -220zM774 1458h-490v-234q237 44 418 96q-25 22 -36 34q-29 28 -52 43l20 28q246 -120 242 -204q-3 -47 -44 -49q-34 -2 -56 43q-14 30 -48 67q-252 -101 -435 -164q-9 -65 -25 -71q-17 -6 -40 40
l-58 114l21 3v576l-4 74q-3 67 -8 102l114 -90h462l62 71l72 -49q36 -25 41 -44q5 -20 -25 -37q-6 -4 -13 -7q-9 -4 -26 -14v-133q3 -159 6 -178q3 -25 2 -42q-2 -34 -57 -38q-43 -4 -43 25v38zM774 1689v120h-297v0h-193v-120h490zM774 1632h-490v-118h490v118zM1489 675
h-949v-72h1055l88 84l108 -77q32 -23 30 -46q-1 -19 -25 -19h-1256v-76h1234l61 71l72 -49q37 -25 42 -44q5 -20 -25 -37q-7 -4 -13 -7q-9 -4 -27 -14q-32 -216 -87 -276q-48 -52 -159 -70q1 49 -18 71q-21 25 -85 47l-43 15l15 42l71 -23q79 -24 99 -24q55 0 78 93
q14 56 26 147h-1246q-22 -10 -52 -10q-38 0 -38 23v655l111 -60h130q39 76 60 159l92 -22q68 -17 72 -41q3 -22 -38 -28l-47 -8q-36 -30 -79 -60h727l61 71l72 -49q37 -26 41 -44q5 -20 -25 -37q-6 -4 -12 -7q-10 -4 -27 -14l-2 -142q3 -67 4 -72q4 -35 4 -41q0 -39 -53 -44
q-52 -4 -48 27zM1489 877v84h-949v-84h949zM540 734h949v88h-949v-88zM1276 367q152 -68 175 -123q13 -30 -4 -57q-14 -22 -39 -21q-27 2 -43 42q-26 64 -110 131zM931 365q66 -47 90 -66q54 -45 64 -93q5 -29 -12 -53q-20 -28 -50 -23q-29 6 -37 61q-11 68 -78 152z
M581 356q132 -128 123 -207q-2 -19 -15 -34q-20 -23 -43 -19q-32 5 -36 80q-4 60 -56 163zM312 384l36 -7q-20 -151 -46 -210q-42 -97 -119 -97q-25 0 -40.5 20.5t-8.5 43.5q6 18 58 52q58 37 86 98q16 35 34 100z" />
  </g>

</svg>
