<?xml version="1.0" standalone="no"?>
<!DOCTYPE svg PUBLIC "-//W3C//DTD SVG 1.1//EN" "http://www.w3.org/Graphics/SVG/1.1/DTD/svg11.dtd" >
<svg xmlns="http://www.w3.org/2000/svg" xmlns:xlink="http://www.w3.org/1999/xlink" version="1.1" viewBox="0 -205 1024 1024">
  <g transform="matrix(1 0 0 -1 0 819)">
   <path fill="currentColor"
d="M702 979l62 -24q17 -10 7 -15q-20 -3 -28 -12q-22 -25 -58 -75h181l21 33l46 -35q7 -6 5 -10q-1 -5 -11 -7l-14 -11v-147l5 -46q0 -29 -41 -36v25h-261v-97h292l22 32l58 -36q8 -6 7 -9q-2 -3 -13 -3h-366v-96h303l22 33l42 -28q9 -6 9 -11q0 -4 -9 -8l-16 -17v-61
q2 -132 -18 -180q-19 -51 -54 -75q-34 -24 -86 -32q-4 20 -26 32q-39 21 -100 36l2 14q104 -24 136 -25q50 0 78 42q30 38 28 166v98h-311q-1 -20 -12 -28q-10 -9 -33 -14q5 37 7 106v385q-3 24 -20 36l12 15l41 -41h48l23 42q28 45 26 54q-1 10 -12 19zM96 464l41 -37h277
l15 21l48 -27q7 -6 5 -10q-1 -5 -11 -7l-18 -9v-229l6 -81q0 -30 -44 -31v70h-269v-51q4 -37 -45 -44q5 37 7 146v242q-3 20 -17 39zM65 801q3 16 -14 31l8 10l57 -25q11 -4 13 -7q2 -4 -6 -6q-14 -4 -26 -15l-12 -64h64q13 66 19 169h-69q-27 1 -45 -13l-34 31h204l18 32
l50 -40q8 -5 7 -8q-2 -2 -13 -2h-82q-9 -98 -22 -169h20l23 27l44 -32q10 -7 8 -10q-1 -4 -14 -3h-41v-171q42 35 101 75l7 -15q-14 -12 -41 -37q-29 -27 -44 -40q-25 -19 -33 -51l-45 33q16 12 23 29v177h-11q-15 -78 -63 -151q-49 -75 -99 -103l-6 12q36 29 77 96
q41 68 57 141q0 2 1 5h-54l-20 -28l-41 28q18 9 26 37zM309 797q3 16 -14 31l8 10l55 -19q9 -4 11 -7q1 -4 -4 -6q-13 -5 -24 -13l-10 -68h51q13 72 20 171h-23q-27 1 -45 -13l-34 31h166l22 30l61 -39q7 -4 5 -7q-3 -2 -14 -2h-103q-8 -93 -22 -171h77l19 29l44 -34
q10 -7 8 -10q-1 -4 -14 -3h-92v-168q42 35 101 75l7 -15q-14 -12 -41 -37q-29 -27 -44 -40q-25 -19 -33 -51l-45 33q16 12 23 29v174h-14v-3q-36 -170 -154 -245l-8 14q32 26 71 82t57 142q1 2 1 5q1 4 1 5h-43l-20 -26l-33 34q12 2 18 21zM415 271h-269v-129h269v129z
M146 287h269v122h-269v-122zM877 731h-261v-96h261v96zM616 745h261v92h-261v-92zM590 292q6 -110 -22 -142q-31 -39 -51 -11q-5 11 12 23t29 40q13 29 19 90h13zM636 303l8 6q53 -68 46 -125q-3 -26 -22 -25t-15 25q4 23 2 50t-19 69zM716 323l6 8q46 -40 61 -82
q14 -51 -15 -57q-15 0 -16 22q-1 23 -7 48t-29 61zM804 351l6 8q46 -25 68 -68q22 -51 -4 -62q-13 -2 -21 29q-6 23 -12 36q-12 27 -37 57z" />
  </g>

</svg>
