<?xml version="1.0" standalone="no"?>
<!DOCTYPE svg PUBLIC "-//W3C//DTD SVG 1.1//EN" "http://www.w3.org/Graphics/SVG/1.1/DTD/svg11.dtd" >
<svg xmlns="http://www.w3.org/2000/svg" xmlns:xlink="http://www.w3.org/1999/xlink" version="1.1" viewBox="0 0 2048 2048">
  <g transform="matrix(1 0 0 -1 0 2048)">
   <path fill="currentColor"
d="M1696 1703l61 72l72 -49q38 -27 42 -44q5 -20 -25 -37q-6 -4 -12 -7q-9 -4 -26 -14v-267q0 -47 7 -104q3 -26 3 -44q0 -41 -57 -49q-48 -7 -48 25v12h-473v-171h468l88 84l117 -91q20 -15 18 -30q-2 -17 -23 -17h-668v-178h571l69 65l58 -40q50 -35 53 -54q3 -21 -42 -43
l-31 -15q-24 -213 -38 -297q-38 -230 -159 -309q-61 -40 -150 -50q-1 70 -78 101q-33 14 -137 46l12 42q53 -14 116 -33q112 -32 148 -29q93 7 139 194q20 80 52 366h-583q-22 -21 -56 -19q-37 2 -37 41v843q0 84 -15 168l117 -68h72q41 146 50 246l102 -23q77 -17 77 -46
q0 -23 -45 -30l-43 -8q-44 -74 -91 -139h325zM1713 1646h-473v-162h473v162zM1240 1256h473v172h-473v-172zM1575 678q168 -125 175 -212q2 -30 -16 -50t-44 -14q-28 7 -44 80q-15 68 -97 174zM1411 630q161 -147 161 -234q0 -28 -21 -46t-45 -11q-26 8 -32 59
q-12 101 -92 211zM1283 605q86 -175 83 -250q-2 -29 -19 -51t-45 -19q-40 5 -40 49q0 13 3 36q8 48 4 100q-2 45 -19 123zM1127 596h40q-2 -175 -17 -240q-28 -124 -101 -128q-20 -2 -36 9q-23 17 -19 44q4 23 48 66q49 49 66 119q13 52 19 130zM878 1581l61 72l72 -50
q37 -25 42 -43q5 -20 -25 -38q-7 -3 -13 -6l-27 -15v-132q0 -46 6 -104q4 -27 4 -44q0 -41 -57 -49q-48 -7 -48 25l1 36h-670v-27q0 -26 -45 -30q-66 -5 -60 51l4 42q6 97 6 104l1 120q0 20 -4 61q-4 46 -7 94l122 -67h141v178h-81q-108 0 -192 -8l-38 88q97 -22 230 -22
l562 1l80 80l114 -86q21 -15 16 -33q-6 -20 -42 -20h-299v-178h146zM894 1523h-162v-233h162v233zM476 1290h162v233h-162v-233zM638 1581v178h-162v-178h162zM224 1290h158v233h-158v-233zM436 417l92 -51q32 -18 26 -39q-5 -18 -38 -19l-49 -3q-135 -142 -352 -262l-24 38
q219 151 317 336h-114v-47q0 -27 -45 -31q-66 -5 -60 51l4 42q6 98 6 104l-1 415q0 88 -15 182l125 -65h497l61 72l73 -49q36 -25 41 -44q5 -20 -25 -37q-7 -4 -13 -7q-9 -5 -27 -14v-461q0 -47 7 -104q3 -26 3 -44q0 -41 -57 -49q-47 -6 -47 25l-1 61h-384zM294 475h526
v142h-526v-142zM294 675h526v145h-526v-145zM820 1011h-526v-138h526v138zM650 357q278 -120 293 -207q6 -38 -17 -63q-15 -16 -40 -14q-25 3 -42 34q-65 120 -214 217z" />
  </g>

</svg>
