<?xml version="1.0" standalone="no"?>
<!DOCTYPE svg PUBLIC "-//W3C//DTD SVG 1.1//EN" "http://www.w3.org/Graphics/SVG/1.1/DTD/svg11.dtd" >
<svg xmlns="http://www.w3.org/2000/svg" xmlns:xlink="http://www.w3.org/1999/xlink" version="1.1" viewBox="0 -204 1024 1024">
  <g transform="matrix(1 0 0 -1 0 820)">
   <path fill="currentColor"
d="M76 906q44 -12 117 -12h85q0 47 -6 70q42 -8 69 -16q10 -3 10 -10q0 -5 -7 -8q-9 -6 -22 -10v-26h114l34 34l52 -40q6 -3 6 -8q0 -14 -12 -14h-194v-56h78l34 34l52 -40q6 -3 6 -8q0 -14 -12 -14h-243q-71 -2 -97 -7l-20 47q44 -12 117 -12h41v56h-85q-71 -2 -97 -7z
M412 730l35 33q51 -36 51 -50q0 -10 -30 -25v-61l15 -12q5 -3 5 -7q0 -14 -9 -14h-330q-5 -25 -12 -43q-10 -30 -24 -47q-16 -25 -52 -56l-17 16q22 23 34 48q12 24 19 52q9 28 13 70q4 40 5 75q-1 33 -6 59l61 -38h242zM154 622h120v80h-115q0 -46 -5 -80zM318 622h98l4 4
v76h-102v-80zM621 940q41 -12 73 -28q6 -5 6 -9q0 -8 -11 -12q-19 -5 -35 -5q-10 -14 -23 -26q-13 -14 -29 -27q-13 -12 -29 -21q-14 -10 -37 -20l-16 12q22 15 37 32q18 19 32 39q16 21 26 43q4 10 6 22zM800 932q60 -19 93 -39q31 -15 46 -31q10 -11 10 -21q0 -29 -21 -29
q-9 0 -17 4q-7 3 -15 15q-20 29 -43 46q-24 19 -65 40zM723 874q46 -9 78 -22q7 -3 7 -10q0 -8 -16 -11q-9 -3 -18 -4l22 -12q26 -14 59 -26t66 -21q32 -8 61 -11l-2 -16q-47 0 -63 -29q-30 9 -54 21q-27 13 -47 28q-23 14 -44 30q-13 11 -26 24q-8 -8 -16 -15
q-19 -13 -42 -26q-26 -14 -49 -24t-49 -19q-29 -11 -61 -19l-17 20q38 12 66 25q26 14 53 29q26 17 46 32q18 15 29 28q10 13 17 28zM596 710l55 -26h154l33 31q51 -36 51 -50q0 -10 -30 -25v-53q8 -6 14 -11q5 -3 5 -7q0 -14 -9 -14h-225q-4 -6 -10 -9q-15 -6 -25 -6
q-13 0 -13 14q0 4 1 14q1 23 1 42v32q0 49 -2 68zM646 583h160l5 5v66l-1 2h-162l-2 -4v-69zM474 580q85 -19 85 -34q0 -14 -47 -17q-14 -14 -31 -27h243l35 33q51 -36 51 -50q0 -10 -30 -25v-59q0 -23 1 -30q1 -8 1 -16q0 -21 -34 -27q-16 0 -16 10v8h-464v-40h560l41 45
q34 -25 64 -49q7 -4 7 -10q0 -14 -14 -14h-658v-44h602l33 29q33 -20 50 -36q8 -9 8 -13q0 -11 -36 -25q-7 -50 -21 -85q-16 -35 -30 -52q-16 -15 -34 -22q-21 -8 -43 -14q-21 -4 -33 -4q0 14 -7 23q-7 11 -85 37l5 20q72 -19 96 -19q16 0 29 2q10 1 18 6q12 6 24 19t21 40
q11 25 16 66h-613v-12q0 -10 -12 -16q-15 -6 -25 -6q-13 0 -13 14q0 4 1 14q1 23 1 42v222q0 49 -2 68l63 -30h165q13 17 19 33q5 17 9 45zM268 374h464v36h-464v-36zM268 438h464v36h-464v-36zM163 188l13 -4q-8 -42 -17 -65t-20 -38q-11 -16 -23 -25q-13 -9 -23 -13
q-9 -3 -17 -3q-24 0 -24 22q0 6 4 11t30 20q32 22 40 31q11 11 21 28q10 15 16 36zM298 176q21 -11 36 -25q16 -15 22 -27q6 -13 6 -24q0 -17 -5 -29q-4 -11 -13 -16q-7 -3 -12 -3q-19 0 -19 20q-1 4 -2 13q-1 13 -8 31q-6 23 -23 56zM469 180q22 -11 40 -22q19 -11 31 -21
q13 -10 18 -17q4 -7 4 -14q0 -19 -5 -30q-9 -12 -21 -12q-6 0 -10 3t-8 15q-4 15 -14 30q-10 14 -21 27t-31 28zM649 188q38 -12 59 -25q19 -11 29 -21q6 -7 6 -14q0 -32 -23 -32q-5 0 -10 3q-4 2 -9 11q-12 21 -26 33q-14 14 -39 29z" />
  </g>

</svg>
