<?xml version="1.0" standalone="no"?>
<!DOCTYPE svg PUBLIC "-//W3C//DTD SVG 1.1//EN" "http://www.w3.org/Graphics/SVG/1.1/DTD/svg11.dtd" >
<svg xmlns="http://www.w3.org/2000/svg" xmlns:xlink="http://www.w3.org/1999/xlink" version="1.1" viewBox="0 0 2048 2048">
  <g transform="matrix(1 0 0 -1 0 2048)">
   <path fill="currentColor"
d="M1452 611l226 1l90 88l104 -86q29 -23 26 -37q-3 -22 -25 -23h-432q-58 -197 -201 -307q-87 -67 -308 -152l-10 35q180 88 261 162q114 104 159 262h-119q-113 1 -192 -7l-39 88q99 -23 231 -23h128q13 83 18 220l-78 -1q-71 -1 -139 -8l-35 84q150 -19 180 -19h201
l91 89l113 -101q20 -18 15 -31q-6 -13 -23 -13h-223q-8 -137 -19 -221zM1275 1170l481 1l91 87l115 -93q21 -17 14 -36q-5 -17 -24 -17h-334q28 -29 42 -43q150 -158 348 -216l-3 -38q-43 1 -65 -8t-50 -45q-62 31 -154 118q-74 70 -170 232l-319 2q-97 -141 -162 -208
q-70 -70 -183 -156l-23 30q163 160 265 332h-28q-93 0 -177 -8l-38 89q96 -23 215 -23h59q57 117 87 209l-60 1l-102 -4q-34 0 -65 -5l-39 88q96 -23 194 -23h90q11 27 47 174h-159l-110 -3q-38 0 -73 -5l-38 88q96 -23 206 -23h185q24 120 35 252l129 -30q68 -16 64 -50
q-3 -25 -42 -34l-57 -13q-11 -63 -22 -124h243l91 88l115 -94q25 -20 14 -39q-7 -13 -24 -13h-451q-23 -87 -48 -174l219 1l91 87l115 -93q21 -17 15 -35q-5 -17 -25 -17l-430 -1q-67 -159 -95 -208zM1490 490q184 -86 273 -140q156 -95 170 -181q3 -20 -5 -40
q-12 -28 -37 -30q-27 -3 -71 57q-105 146 -345 298zM382 1274q141 -117 125 -187q-10 -43 -48 -38q-30 4 -35 51q-9 78 -64 157zM532 815q77 -108 102 -149q49 -81 53 -145q2 -39 -17 -57q-17 -16 -39 -7t-34 57q-29 110 -97 231q-79 -167 -199 -308l-27 23q100 143 185 351
q-52 86 -81 124q-65 89 -90 126l28 23q27 -32 42 -48q20 -23 127 -159q5 14 7 20q70 189 96 366l116 -47q26 -11 26 -30q0 -18 -26 -23l-47 -8q-67 -219 -125 -340zM272 918q120 -111 108 -172q-8 -39 -41 -34q-26 3 -31 46q-9 75 -56 143zM625 928q119 -112 107 -172
q-7 -39 -41 -35q-26 4 -31 47q-9 75 -56 143zM458 560q140 -117 125 -187q-10 -43 -48 -38q-30 4 -36 51q-9 79 -64 158zM418 1947l109 -24q82 -18 86 -44q3 -26 -51 -44l-41 -13v-169h183l79 80l114 -85q21 -16 16 -33q-7 -20 -33 -20h-359v-203h220l61 72l72 -49
q37 -26 42 -44q5 -20 -25 -37q-7 -4 -13 -7q-9 -4 -27 -14l-1 -884q0 -19 4 -72q2 -38 3 -72q3 -66 4 -79q4 -56 -44 -60q-60 -5 -60 40v34h-520v-38q0 -34 -15 -41q-19 -10 -46 -8q-49 4 -42 69q2 20 4 68q1 43 4 72q4 58 4 72v893q0 13 -4 61q-1 9 -4 49q-1 18 -4 53
l121 -78h171v395q0 117 -8 160zM237 278h520v1057h-520v-1057z" />
  </g>

</svg>
