<?xml version="1.0" standalone="no"?>
<!DOCTYPE svg PUBLIC "-//W3C//DTD SVG 1.1//EN" "http://www.w3.org/Graphics/SVG/1.1/DTD/svg11.dtd" >
<svg xmlns="http://www.w3.org/2000/svg" xmlns:xlink="http://www.w3.org/1999/xlink" version="1.1" viewBox="0 -205 1024 1024">
  <g transform="matrix(1 0 0 -1 0 819)">
   <path fill="currentColor"
d="M156 927l37 -39h668l32 38l68 -44q8 -6 7 -9q-2 -3 -13 -3h-288v-85h180l29 27l46 -37q7 -4 5 -7q-1 -4 -11 -6l-18 -9v-49l5 -24q2 -21 -45 -32v21h-212v-93q0 -7 -1 -15q60 18 111 33q62 20 62 30q2 11 -6 18l10 10l58 -49q7 -5 5 -10q-1 -4 -11 -6q-18 9 -80 -9
q-27 -7 -44 -12q-46 -12 -105 -23q-2 -58 6 -68q12 -13 142 -13q70 0 86 3t28 7q23 8 24 55q0 20 1 66h14q5 -52 4 -73q0 -20 24 -31q-20 -47 -47 -50q-2 -1 -3 -1q-16 -5 -101 -5q-97 0 -130 2q-38 1 -53 7q-35 8 -32 85v142h-282v-83h155l22 30l48 -34q8 -6 7 -9
q-2 -3 -13 -3h-219v-95q76 14 232 24l6 -14q-13 -2 -39 -7q-49 -9 -129 -25q-61 -10 -72 -19q-10 -9 -22 -17l-44 36q20 8 30 25v191h-82v-109q-2 -175 -29 -307q-27 -129 -125 -229l-8 14q88 128 104 255q17 128 18 289v287q0 22 -22 46zM826 344v-202q2 -62 -11 -89
t-69 -39q0 33 -32 44q-31 10 -90 25l2 16q110 -23 134 -21t24 50v56h-431v-32l4 -95q2 -37 -53 -46q5 39 7 164v191q1 5 -13 20l14 11l30 -25h430l20 25l46 -29q9 -6 9 -11q0 -4 -9 -8zM784 273h-431v-75h431v75zM353 287h431v69h-431v-69zM631 870h-200v-85h200v85z
M631 769h-200v-84h200v84zM395 870h-189v-85h189v85zM667 685h191v84h-191v-84zM206 769v-84h189v84h-189zM413 998l4 13q90 -17 123 -57q26 -43 -11 -53q-17 0 -25 20t-25 37q-16 17 -66 40z" />
  </g>

</svg>
