<?xml version="1.0" standalone="no"?>
<!DOCTYPE svg PUBLIC "-//W3C//DTD SVG 1.1//EN" "http://www.w3.org/Graphics/SVG/1.1/DTD/svg11.dtd" >
<svg xmlns="http://www.w3.org/2000/svg" xmlns:xlink="http://www.w3.org/1999/xlink" version="1.1" viewBox="0 -205 1024 1024">
  <g transform="matrix(1 0 0 -1 0 819)">
   <path fill="currentColor"
d="M144 941l41 -43h684l32 40l68 -44q8 -6 7 -9q-2 -3 -13 -3h-294v-69h196l15 23l42 -25q14 -12 -2 -21l-12 -7v-17l5 -36q2 -24 -43 -34v15h-678v-145q-2 -183 -29 -297q-27 -112 -113 -213l-8 14q78 124 94 236q17 113 18 282v313q0 4 -22 28zM530 531l83 -26
q14 -5 6 -11q-21 -8 -28 -17v-38h272l26 30l64 -34q8 -5 7 -8q-2 -2 -13 -2h-356v-56h194l25 23l42 -31q7 -4 7 -7q0 -4 -7 -6l-18 -9v-115l5 -31q-1 -17 -31 -25l-12 -3v25h-205v-59h322l26 36l64 -42q8 -5 7 -8q-2 -2 -13 -2h-406l3 -56q3 -36 -52 -44q5 29 6 100h-304
q-27 1 -45 -13l-32 29h381q0 15 1 30v29h-206q-1 -8 -10 -17t-35 -14q5 26 7 63v140q2 12 -11 19l12 14l29 -26h214v56h-247q-27 1 -45 -17l-32 31h324v48q2 12 -28 32zM826 671l58 -37q7 -5 7 -9q0 -3 -7 -5q-32 3 -110 -16q-19 -5 -30 -7q-1 0 -4 -1q-30 -7 -77 -15
q2 -37 9 -43q5 -12 104 -10h19h55q18 0 25 -1q18 -1 29 6q24 12 23 50q0 21 3 80h14q5 -52 3 -76q-1 -23 25 -34q-17 -32 -26 -37q-7 -5 -24 -10q-16 -5 -94 -5h-62q-108 -2 -118 6q-15 6 -19 23q-4 16 -3 67v56q-1 25 -22 34l8 10l74 -27q20 -6 9 -9q-16 -2 -33 -17v-27
v-17q50 11 101 27q65 21 62 24q-1 3 -9 12zM343 682q20 -7 16 -15q-16 -4 -31 -16v-23h147l24 30l50 -32q8 -6 7 -9q-2 -3 -13 -3h-215v-75q70 14 238 36l6 -14q-100 -18 -200 -40q-46 -9 -66 -32l-36 36q14 5 24 15v117q-1 24 -24 35l7 11zM635 799h-214v-74h214v74z
M669 725h201v74h-201v-74zM549 275h-206v-72h206v72zM635 882h-214v-69h214v69zM796 275h-205v-72h205v72zM192 799v-74h195v74h-195zM549 355h-206v-68h206v68zM591 287h205v68h-205v-68zM387 882h-195v-69h195v69zM437 992l4 13q91 -19 120 -49q21 -32 -10 -40
q-15 -1 -22 15t-26 29t-66 32z" />
  </g>

</svg>
