<?xml version="1.0" standalone="no"?>
<!DOCTYPE svg PUBLIC "-//W3C//DTD SVG 1.1//EN" "http://www.w3.org/Graphics/SVG/1.1/DTD/svg11.dtd" >
<svg xmlns="http://www.w3.org/2000/svg" xmlns:xlink="http://www.w3.org/1999/xlink" version="1.1" viewBox="0 0 2048 2048">
  <g transform="matrix(1 0 0 -1 0 2048)">
   <path fill="currentColor"
d="M576 1262l87 -41q10 -5 11 -15q4 -20 -16 -23l-33 -4q71 -27 184 -69q208 -77 180 -156q-14 -38 -50 -30q-26 6 -58 38q-123 121 -310 195q-120 -122 -250 -195q-106 -61 -256 -104l-12 38q178 84 282 164q95 74 195 212l-5 14v363h-179q-114 0 -199 -8l-40 88
q102 -23 239 -23h179v67q0 115 -8 160l106 -24q86 -20 89 -44q3 -26 -53 -43l-42 -14v-102h204l84 81l118 -86q22 -17 17 -34q-7 -18 -28 -18h-395v-191q0 -43 6 -104q2 -26 2 -44q0 -36 -49 -48zM656 352q237 -126 734 -126q143 0 264 11q197 17 348 38l4 -42
q-114 -26 -124 -107q-227 -7 -279 -7q-433 0 -680 46q-184 34 -329 129q-187 -155 -526 -236l-13 37q302 105 469 252q-122 114 -197 255q-83 -74 -225 -151l-19 35q137 101 213 188q-18 53 -41 134l44 10q20 -55 35 -94q99 142 140 286l142 -37q36 -9 36 -30q0 -25 -41 -30
l-54 -7q-20 -38 -46 -79q-11 -19 -16 -28h271l67 68l67 -45q58 -39 51 -64q-4 -18 -43 -34l-32 -13q-69 -165 -131 -252q-35 -49 -89 -107zM578 401q133 147 195 341h-319q-39 -54 -83 -98q75 -142 207 -243zM295 1434q179 -53 179 -129q0 -48 -41 -48q-25 0 -49 36
q-47 71 -108 104q-69 -98 -179 -184l-31 29q138 156 194 367l104 -28q59 -17 63 -36q5 -26 -45 -34l-49 -8q-17 -32 -38 -69zM839 1438q94 -34 121 -49q58 -34 58 -80q0 -48 -41 -48q-26 0 -51 40q-35 57 -108 100q-75 -99 -153 -159l-27 29q116 148 166 342l104 -28
q59 -16 63 -36q5 -26 -45 -34l-50 -8q-16 -32 -37 -69zM1718 1503l64 72l84 -55q40 -26 40 -48q0 -26 -67 -57q-23 -728 -68 -895q-23 -83 -89 -134q-41 -32 -128 -55q0 46 -17 67q-24 31 -206 89l8 46q125 -39 205 -53q95 -16 134 88q40 108 54 470q10 243 13 409h-285
q-8 -262 -28 -397q-38 -256 -162 -441q-106 -156 -274 -289l-24 29q258 265 335 549q47 177 58 549h-60q-139 0 -190 -8l-32 80q83 -16 222 -16h60q0 41 1 105q3 172 -4 324l101 -16q83 -13 81 -46q-1 -22 -26 -30l-53 -20q0 -22 -5 -317h258z" />
  </g>

</svg>
