<?xml version="1.0" standalone="no"?>
<!DOCTYPE svg PUBLIC "-//W3C//DTD SVG 1.1//EN" "http://www.w3.org/Graphics/SVG/1.1/DTD/svg11.dtd" >
<svg xmlns="http://www.w3.org/2000/svg" xmlns:xlink="http://www.w3.org/1999/xlink" version="1.1" viewBox="0 -205 1024 1024">
  <g transform="matrix(1 0 0 -1 0 819)">
   <path fill="currentColor"
d="M141 940l47 -39h690l28 40l68 -42q7 -4 7 -8t-13 -4h-314v-61h180l15 23l42 -27q4 -4 4 -8q0 -6 -12 -9l-8 -9v-29l5 -14q0 -27 -25 -33q-7 -2 -12 -3v23h-654q-2 -328 -33 -455q-34 -156 -121 -248l-14 12q73 105 103 265q30 151 29 428v140q0 24 -22 46zM534 319
l-17 -43h66l12 26l48 -26q7 -4 7 -8t-13 -4h-62v-162l2 -47q3 -36 -41 -44q6 44 7 92l-81 -11q-15 -2 -40 -6q-54 -7 -74 -11q-25 -6 -48 -24l-30 44l91 8v161q-20 -2 -34 -13l-29 25h184l21 55h-83q-15 0 -34 -9l-31 24h138l29 30l44 -36q8 -8 -9 -11q-12 -4 -23 -10z
M696 381l63 -21q6 -2 6 -7t-9 -7q-18 -1 -25 -19l-20 -35h194l20 30l60 -30q7 -4 7 -8t-13 -4h-83q-21 -101 -72 -157q56 -51 155 -63q10 -2 16 -3l-2 -14h-27q-26 2 -34 -22q-89 32 -134 77q-62 -60 -194 -84l-6 12q102 35 173 94l1 2q-55 56 -82 135q-31 -49 -60 -69
l-14 6q58 69 84 155q0 13 -10 20zM647 568l33 -23h177l21 21l38 -25q6 -4 6 -9t-12 -8l-12 -9v-27l5 -32q2 -20 -39 -30v33h-175q-3 -27 -39 -33q-1 4 3 26q4 19 4 26v49q-1 20 -19 33zM311 554l20 -7h182l23 25l38 -25q6 -4 6 -9t-12 -8l-12 -13l5 -53q3 -25 -39 -34v33
h-179q-2 -32 -39 -37q1 8 3 23t4 37v45q-2 14 -7 14h-2zM240 431l32 -25h641l22 32l60 -34q7 -4 7 -8t-13 -4h-704v-45q2 -136 -30 -202q-31 -74 -113 -125l-6 14q75 60 95 124q22 59 21 215v22q-8 17 -22 27zM799 714l54 -31q7 -7 7 -9q0 -3 -7 -5q-4 0 -9 1h-7
q-21 0 -86 -12q-68 -12 -114 -19q0 -18 17 -23q13 -6 71 -5h67q105 -1 121 16q13 10 12 53v15v25h14q4 -35 4 -53v-7q0 -18 18 -28q-16 -35 -38 -41q-11 -6 -74 -6h-159q-92 -6 -81 45q-1 8 -2 12v56q-1 14 -20 24l6 8l72 -21q3 -3 3 -5q0 -1 -12 -7q-15 -6 -19 -10v-35
q46 12 105 26q58 12 52 19q0 5 -5 9zM312 715q17 -3 17 -10q0 -1 -12 -8q-14 -9 -18 -13v-9h153l20 26l44 -26q7 -4 7 -8t-13 -4h-211v-55q69 11 246 34l4 -14q-113 -19 -227 -41q-22 -1 -33 -29l-38 28q15 8 20 25v75q0 2 1 3v3q0 13 -19 23l7 11zM189 814v-62h217v62h-217
zM406 887h-217v-61h217v61zM790 150q5 -2 7 -4q44 49 57 134h-151q43 -89 87 -130zM626 814h-192v-62h192v62zM654 752h189v62h-189v-62zM626 887h-192v-61h192v61zM689 471h175v62h-175v-62zM343 475h179v60h-179v-60zM393 264v-47h150v47h-150zM393 205v-42h150v42h-150z
M393 151v-45l150 13v32h-150zM448 995l4 13q127 -30 125 -78q-2 -21 -20 -22q-9 0 -21 18q-32 44 -88 69z" />
  </g>

</svg>
