<?xml version="1.0" standalone="no"?>
<!DOCTYPE svg PUBLIC "-//W3C//DTD SVG 1.1//EN" "http://www.w3.org/Graphics/SVG/1.1/DTD/svg11.dtd" >
<svg xmlns="http://www.w3.org/2000/svg" xmlns:xlink="http://www.w3.org/1999/xlink" version="1.1" viewBox="0 0 2048 2048">
  <g transform="matrix(1 0 0 -1 0 2048)">
   <path fill="currentColor"
d="M465 799h258l65 68l64 -45q56 -39 50 -64q-5 -18 -42 -34l-31 -13q-89 -222 -211 -359q103 -57 233 -87q171 -39 472 -39q320 0 665 49l3 -42q-108 -27 -118 -107q-228 -7 -345 -7q-416 0 -653 46q-177 34 -317 129q-183 -155 -505 -236l-13 37q288 104 451 252
q-112 106 -183 242q-81 -77 -194 -153l-20 34q110 94 183 189q-12 35 -45 149l43 10q23 -65 38 -107q91 144 128 302l139 -30q35 -7 36 -28q1 -25 -38 -32l-51 -10q-31 -61 -62 -114zM430 742q-35 -53 -81 -108q76 -140 194 -233q125 146 188 341h-301zM1507 1471l190 -1
l72 76l68 -41q46 -28 49 -50q5 -24 -70 -64v-474q0 -58 5 -117q7 -86 7 -102q1 -36 1 -41q4 -52 -47 -55q-63 -4 -63 42v27h-400l88 -51q48 -29 46 -50q-3 -30 -56 -25l-33 4q-106 -105 -156 -144q-89 -70 -217 -138l-19 38q123 96 188 169q73 84 134 197h-104v-19
q0 -57 -67 -53q-42 2 -36 54q4 39 5 143l4 107v559q-49 -48 -103 -90l-24 27q89 101 123 156q113 183 185 404l128 -51q23 -8 32 -21q13 -17 -2 -31q-10 -10 -30 -11l-49 -4q-30 -59 -61 -116h247l65 87l107 -72q28 -19 28 -40q0 -22 -26 -32l-65 -23q-48 -63 -144 -174z
M1446 1470q61 106 98 200h-284q-48 -75 -124 -168l71 -32h239zM1190 1208h529v208h-529v-208zM1190 961h529v192h-529v-192zM1190 729h529v178h-529v-178zM1589 622q33 -21 50 -32q103 -63 167 -119q76 -65 65 -134q-5 -28 -26 -42.5t-45 -6.5q-27 10 -48 64
q-45 117 -184 240zM563 1258l73 -37q10 -5 11 -15q3 -20 -16 -23l-31 -4q67 -26 176 -69q201 -77 174 -156q-14 -38 -48 -30q-26 6 -57 38q-117 121 -297 195q-114 -121 -240 -195q-101 -60 -247 -104l-11 38q372 184 448 373l-1 27v353h-165q-108 0 -192 -8l-38 88
q94 -22 230 -23h165v67q0 114 -8 160l109 -24q82 -18 85 -44q4 -25 -50 -43l-40 -14l-1 -102h196l80 81l114 -86q21 -16 16 -34q-6 -18 -26 -18h-381q-3 -219 4 -285q5 -44 4 -68q-2 -27 -36 -38zM805 1438q90 -33 117 -49q56 -34 56 -80q0 -48 -40 -48q-25 0 -49 40
q-35 57 -104 100q-72 -99 -147 -159l-26 29q111 146 160 342l100 -28q56 -16 60 -36q5 -26 -43 -34l-48 -8q-15 -32 -36 -69zM283 1434q172 -53 172 -129q0 -48 -40 -48q-24 0 -47 36q-45 71 -104 104q-66 -99 -171 -184l-30 29q135 160 186 367l100 -28q57 -16 61 -36
q5 -26 -44 -34l-47 -8q-16 -32 -36 -69z" />
  </g>

</svg>
