<?xml version="1.0" standalone="no"?>
<!DOCTYPE svg PUBLIC "-//W3C//DTD SVG 1.1//EN" "http://www.w3.org/Graphics/SVG/1.1/DTD/svg11.dtd" >
<svg xmlns="http://www.w3.org/2000/svg" xmlns:xlink="http://www.w3.org/1999/xlink" version="1.1" viewBox="0 0 2048 2048">
  <g transform="matrix(1 0 0 -1 0 2048)">
   <path fill="currentColor"
d="M282 1434q172 -53 172 -129q0 -48 -40 -48q-23 0 -47 36q-44 71 -104 104q-66 -99 -171 -184l-30 29q133 157 186 367l100 -28q57 -16 61 -36q5 -26 -44 -34l-47 -8q-16 -32 -36 -69zM1848 990q-92 -93 -243 -180l-24 28q143 130 207 262l100 -53q38 -21 34 -39
q-5 -23 -40 -21zM1573 776q347 -142 347 -256q0 -20 -13 -36q-15 -19 -34 -19q-24 0 -69 62q-81 112 -248 219zM1056 1071q137 -56 174 -79q73 -47 76 -102q4 -56 -44 -56q-29 0 -58 47q-52 84 -163 160zM1330 795l21 -28q-124 -123 -295 -235q-5 -71 -25 -77q-15 -4 -41 40
l-62 102q191 63 402 198zM805 1438q91 -34 116 -49q56 -34 56 -80q0 -48 -40 -48q-25 0 -49 40q-34 57 -103 100q-73 -99 -148 -159l-25 29q111 148 159 342l100 -28q57 -16 60 -36q6 -26 -43 -34l-47 -8q-16 -32 -36 -69zM1552 1217l40 154h-404q-26 -12 -50 -12
q-41 0 -41 23q0 5 2 11l97 332q11 38 29 148l120 -47q34 -13 37 -32q2 -26 -42 -34l-40 -8l-24 -80h362l67 75l83 -53q41 -26 41 -49q0 -35 -82 -61l-109 -367h118l98 101l121 -107q20 -18 16 -33q-6 -19 -26 -19h-449v-676q0 -142 -154 -171q-11 70 -47 93q-32 20 -159 43
l8 46q139 -23 189 -27q68 -5 68 57v635h-272q-68 0 -149 -10l-39 85q123 -17 188 -17h403zM1256 1614l-62 -188h412l52 188h-402zM556 1261l53 -26q34 -16 34 -33q0 -15 -21 -19l-23 -4q66 -26 176 -69q201 -77 173 -156q-13 -38 -47 -30q-26 6 -57 38q-117 121 -297 195
q-114 -121 -240 -195q-101 -60 -247 -104l-11 38q172 85 271 164q105 85 181 209l-5 14v366h-165q-108 0 -192 -8l-38 88q94 -22 230 -23h165v67q0 114 -8 160l109 -24q82 -18 85 -44q3 -25 -50 -43l-41 -14l-1 -102h197l80 81l114 -86q21 -16 16 -34q-6 -18 -26 -18h-381
v-194q0 -45 7 -104q3 -28 3 -44q0 -34 -44 -46zM630 354q213 -128 704 -128q320 0 665 49l4 -42q-109 -27 -119 -107q-228 -7 -345 -7q-415 0 -653 46q-172 33 -317 128q-197 -160 -505 -235l-13 37q286 102 449 254q-113 106 -185 248q-78 -73 -208 -156l-23 33
q113 83 201 193q-19 58 -42 141l43 10q19 -57 36 -100q86 124 132 292l137 -37q32 -9 32 -30q0 -25 -37 -30l-52 -7q-22 -41 -48 -88l-11 -19h259l65 68l64 -45q56 -39 50 -64q-5 -18 -42 -34l-30 -13q-56 -137 -92 -199q-41 -71 -119 -158zM553 402q107 124 189 340h-301
q-41 -53 -82 -108q68 -131 194 -232z" />
  </g>

</svg>
