<?xml version="1.0" standalone="no"?>
<!DOCTYPE svg PUBLIC "-//W3C//DTD SVG 1.1//EN" "http://www.w3.org/Graphics/SVG/1.1/DTD/svg11.dtd" >
<svg xmlns="http://www.w3.org/2000/svg" xmlns:xlink="http://www.w3.org/1999/xlink" version="1.1" viewBox="0 0 2048 2048">
  <g transform="matrix(1 0 0 -1 0 2048)">
   <path fill="currentColor"
d="M378 777h189l58 67l83 -67q29 -23 28 -48q-1 -20 -25 -27l-49 -13q-55 -191 -116 -300q44 -55 44 -103q0 -55 -38 -57q-35 -2 -70 63q-123 -156 -384 -249l-10 37q212 105 346 290q-83 109 -183 194q-70 -81 -157 -151l-21 26q71 77 130 164q-9 8 -19 15q-21 17 -40 31
l16 29l45 -26l20 -12q69 125 125 349l121 -39q29 -9 29 -30q0 -25 -33 -30l-44 -7q-25 -61 -45 -106zM350 719q-40 -74 -69 -115q140 -95 202 -148q57 119 91 263h-224zM1693 931q58 -165 138 -317q77 -145 124 -189q34 -31 55 -53l-15 -26q-27 7 -45 7q-38 2 -83 -34
q-54 106 -112 268q-33 93 -62 186l-1 -450l6 -70q10 -149 10 -157q0 -42 -48 -42q-54 0 -54 42l-1 625q-124 -262 -292 -441l-24 29q222 328 317 703v541h-14q-90 0 -189 -10l-44 94q95 -25 233 -25h14v163q0 117 -8 160l101 -24q83 -20 86 -44q3 -26 -51 -44l-41 -13v-198
h90l81 80l98 -86q21 -18 16 -34q-6 -19 -26 -19h-259v-622zM1490 1250q17 -20 26 -30q69 -76 69 -135q0 -50 -44 -46q-28 2 -33 36q-11 78 -35 119q-37 -110 -105 -253l-31 15q6 20 30 97q34 109 73 399l111 -36q33 -11 36 -31q3 -24 -36 -30l-32 -5q-17 -57 -29 -100z
M1839 1239q17 -22 21 -27q93 -119 89 -191q-2 -45 -44 -43q-33 1 -39 46q-12 97 -43 156q-28 -97 -88 -239l-30 15q4 21 24 97q30 114 60 399l110 -36q33 -11 36 -31q4 -24 -36 -30l-32 -5q-16 -67 -28 -111zM904 1253q11 -14 21 -24q77 -84 77 -144q0 -20 -19 -37
q-11 -9 -25 -9q-28 0 -33 36q-12 78 -38 124q-37 -113 -106 -258l-31 15q6 20 30 97q34 109 73 399l111 -36q33 -11 36 -31q3 -24 -36 -30l-32 -5l-22 -76zM1261 1243q8 -9 13 -14q77 -87 77 -144q0 -17 -13.5 -31.5t-30.5 -14.5q-28 0 -33 36q-10 71 -29 108
q-35 -114 -89 -242l-31 15q5 21 25 97q29 114 60 399l110 -36q33 -11 36 -31q3 -24 -36 -30l-32 -5l-21 -85zM768 1637q95 -25 234 -25h13v163q0 117 -8 160l102 -24q82 -20 85 -44q3 -26 -50 -44l-42 -13v-198h52l81 80l98 -86q21 -18 16 -34q-6 -19 -26 -19h-221v-614
q242 -263 242 -393q0 -80 -61 -72q-35 5 -45 76q-12 90 -72 205q-12 24 -40 69q-11 17 -24 40l-1 -541l6 -70q10 -149 10 -157q0 -42 -48 -42q-54 0 -54 42v625q-125 -262 -292 -441l-25 29q220 322 317 703v541h-13q-91 0 -190 -10zM428 1266l78 -43q18 -9 20 -22
q4 -19 -18 -23l-43 -8q145 -75 187 -106q75 -55 75 -107q0 -49 -43 -47q-28 2 -53 42q-70 112 -198 193q-116 -161 -357 -288l-20 35q152 99 238 205q54 66 107 176q-11 7 -11 22v354h-108q-78 0 -166 -10l-35 90q99 -23 201 -23h108v67q-4 139 -9 158l91 -22q76 -19 82 -42
q7 -26 -43 -40l-39 -11v-110h140l74 76l95 -81q18 -16 13 -34q-4 -18 -22 -18h-300l1 -216q0 -44 4 -77q8 -63 -4 -75q-11 -11 -45 -15zM231 1437q25 -14 37 -21q102 -56 106 -109q5 -46 -37 -46q-27 0 -42 35q-22 51 -77 103q-54 -99 -126 -190l-25 21q93 166 130 379
l85 -28q47 -16 51 -36q5 -26 -37 -34l-40 -8zM650 1439q141 -85 145 -146q3 -43 -35 -45q-35 -3 -49 40q-19 64 -74 113q-70 -118 -113 -167l-27 17q87 162 119 360l85 -28q47 -16 51 -36q5 -26 -37 -34l-40 -8z" />
  </g>

</svg>
