<?xml version="1.0" standalone="no"?>
<!DOCTYPE svg PUBLIC "-//W3C//DTD SVG 1.1//EN" "http://www.w3.org/Graphics/SVG/1.1/DTD/svg11.dtd" >
<svg xmlns="http://www.w3.org/2000/svg" xmlns:xlink="http://www.w3.org/1999/xlink" version="1.1" viewBox="0 -205 1024 1024">
  <g transform="matrix(1 0 0 -1 0 819)">
   <path fill="currentColor"
d="M142 939l45 -45h690l32 40l68 -48q8 -6 7 -9q-2 -3 -13 -3h-778v-222q-1 -111 -4 -170q-5 -111 -29 -227q-23 -112 -138 -237l-8 10q90 129 113 253q23 126 25 223v375q0 24 -22 48zM698 472l77 -24q14 -5 6 -11q-21 -7 -30 -21v-60h102l24 32l54 -38q8 -5 7 -8
q-2 -2 -13 -2h-153q108 -185 196 -234v-14q-54 8 -66 -18q-71 96 -151 253v-205l2 -57q3 -36 -47 -44q7 56 8 100v158q-64 -123 -204 -237l-12 10q147 146 206 288h-62q-27 1 -45 -13l-34 29h151v70q1 16 -25 34zM356 474l77 -22q14 -5 6 -11q-17 -7 -26 -21v-64h46l26 32
l58 -38q8 -5 7 -8q-2 -2 -13 -2h-124v-32q42 -15 68 -29q71 -44 72 -87q-3 -20 -20 -22t-26 25q-9 26 -40 54q-25 22 -54 41v-164l2 -59q5 -38 -51 -44q5 37 7 102v156q-73 -112 -217 -217l-6 14q152 133 214 262h-92q-27 1 -45 -13l-34 29h180v74q2 16 -24 32zM696 858
l83 -36q14 -5 6 -11q-21 -7 -30 -21v-44h100l22 34l58 -40q8 -5 7 -8q-2 -2 -13 -2h-174v-44q80 -22 120 -45q50 -29 66 -63q15 -41 -17 -46q-16 0 -26 23t-39 51q-26 25 -104 62v-81l2 -47q0 -39 -47 -40q5 33 7 98v73q-58 -94 -170 -173l-8 10q116 101 169 222h-72
q-31 1 -49 -13l-34 29h164v54q2 16 -30 46zM356 850l83 -36q14 -5 6 -11q-21 -7 -30 -21v-42h50l24 34l60 -40q8 -5 7 -8q-2 -2 -13 -2h-128v-30q33 -13 58 -27q39 -18 54 -56q14 -42 -14 -47q-17 -1 -22 24t-31 50q-19 19 -45 37v-100l2 -33q3 -36 -47 -44q5 37 7 92v83
q-43 -80 -146 -164l-9 10q107 109 144 205h-68q-27 1 -45 -13l-34 29h158v52q2 16 -30 46zM441 1000l4 13q103 -20 125 -48q33 -43 2 -59q-16 -3 -26 17t-32 38t-73 39z" />
  </g>

</svg>
