<?xml version="1.0" standalone="no"?>
<!DOCTYPE svg PUBLIC "-//W3C//DTD SVG 1.1//EN" "http://www.w3.org/Graphics/SVG/1.1/DTD/svg11.dtd" >
<svg xmlns="http://www.w3.org/2000/svg" xmlns:xlink="http://www.w3.org/1999/xlink" version="1.1" viewBox="0 -205 1024 1024">
  <g transform="matrix(1 0 0 -1 0 819)">
   <path fill="currentColor"
d="M362 630l66 -24q14 -5 6 -11q-17 -4 -23 -18v-25h34l20 32l50 -38q8 -5 7 -8q-2 -2 -13 -2h-98v-76h68l20 28l50 -34q8 -5 7 -8q-2 -2 -13 -2h-220v-63h114l27 27l40 -31q7 -6 5 -10q-1 -5 -11 -7l-14 -9v-118l4 -24q7 -40 -42 -43v32h-289q-1 -19 -12 -28
q-10 -10 -33 -15q0 3 1 9q4 30 6 63v144q-4 8 -18 26l15 12l31 -28h134v63h-173q-27 1 -45 -13l-34 29h160v76h-51q-27 1 -45 -13l-34 29h130v37q2 16 -19 32l8 11l66 -24q14 -5 6 -11q-17 -4 -23 -18v-27h146v35q2 16 -19 32zM1006 79v-16q-68 12 -82 -22q-61 41 -126 95
q-28 21 -53 51q-53 -54 -121 -96q-79 -50 -147 -69l-4 14q125 68 206 142q20 19 41 43q-19 27 -35 58q-48 91 -71 223q-14 -1 -22 -9l-33 30h283l34 33l56 -45q7 -6 7 -10q0 -3 -6 -4q-24 -1 -34 -34q-3 -10 -5 -15q-8 -24 -41 -100q-30 -69 -81 -132q11 -13 23 -22
q78 -64 133 -84q2 -1 8 -3q18 -8 70 -28zM873 880v-197q-1 -54 14 -59q15 -4 29 -6q15 0 16 1q17 5 34 21h5q15 -13 34 -26t8 -15l-31 -7l-45 -5q-31 -1 -68 4q-33 16 -36 56v248h-149q2 -54 -9 -171q-11 -125 -137 -187l-8 10q98 72 105 180t7 172q-4 21 -26 41l13 13
l42 -38h143l37 42l53 -48q6 -5 4 -10q-1 -4 -10 -6zM700 329q21 -45 44 -77q15 21 30 46q47 75 82 205h-218q19 -85 62 -174zM268 992l78 -34q14 -5 6 -11q-16 -4 -27 -18v-51h132l24 32l68 -38q8 -5 7 -8q-2 -2 -13 -2h-218v-54h112l16 28l60 -30q8 -7 7 -10q-2 -4 -13 -4
h-325q-27 1 -45 -13l-34 29h182v54h-147q-27 1 -45 -13l-26 29h218v61q2 17 -25 42zM119 777q0 -5 -1 -15q0 -10 -1 -15h389l25 27l57 -46q2 -5 -1 -7q-2 -2 -9 0q-2 -1 -6 -2q-24 1 -79 -60l-13 4l32 68h-397q0 -2 -1 -7q0 -5 -1 -8q-17 -65 -60 -66q-19 3 -18 18
q2 15 18 20q17 5 30 25t19 64h17zM373 536h-146v-76h146v76zM281 365h-124v-70h124v70zM323 295h123v70h-123v-70zM281 281h-124v-68h124v68zM446 281h-123v-68h123v68zM190 184l58 -28q17 -8 7 -13q-20 -1 -26 -8q-95 -92 -176 -123l-6 13q59 45 100 83t42 45q1 9 -7 24z
M129 670h254l22 28l54 -34q8 -5 7 -8q-2 -2 -13 -2h-253q-27 1 -45 -13zM343 171l4 13q98 -32 123 -69q34 -51 -3 -61q-17 -2 -29 26t-39 50q-13 11 -41 30q-10 7 -15 11z" />
  </g>

</svg>
