<?xml version="1.0" standalone="no"?>
<!DOCTYPE svg PUBLIC "-//W3C//DTD SVG 1.1//EN" "http://www.w3.org/Graphics/SVG/1.1/DTD/svg11.dtd" >
<svg xmlns="http://www.w3.org/2000/svg" xmlns:xlink="http://www.w3.org/1999/xlink" version="1.1" viewBox="0 0 2048 2048">
  <g transform="matrix(1 0 0 -1 0 2048)">
   <path fill="currentColor"
d="M1407 1770h-270q-21 -207 -120 -207q-25 0 -40 21q-13 17 -10 36q4 24 37 48q54 41 75 97q16 43 25 140h33q1 -27 1 -46q0 -8 -1 -33h673l57 66l86 -70q35 -28 36 -44q1 -23 -36 -29l-48 -8q-59 -77 -114 -130l-26 17q34 86 45 142h-364l69 -15q79 -17 82 -43
q4 -26 -48 -44l-39 -13v-146h177l78 81l111 -86q20 -16 15 -34t-24 -18h-357v-202h223l65 76l81 -54q39 -26 39 -48q0 -28 -75 -61v-270q0 -21 4 -84q2 -33 4 -80q2 -40 4 -59q5 -54 -66 -58q-41 -3 -41 24v57h-238v-217h247l96 101l117 -107q20 -18 15 -33q-5 -19 -25 -19
h-450v-61q0 -85 11 -192q3 -29 3 -54q0 -38 -47 -42q-64 -5 -64 42v307h-266q-108 0 -187 -8l-37 89q95 -23 224 -23h266v217h-233v-57q0 -38 -51 -38q-58 0 -53 60l4 57l3 80l4 76v292q0 89 -14 177l118 -90h222v202h-122q-120 0 -187 -10l-36 90q91 -23 223 -23h122v111
q0 102 -6 150zM1180 1012h233v181h-233v-181zM1180 952v-198h233v198h-233zM1748 754v198h-238v-198h238zM1748 1012v181h-238v-181h238zM597 1941l107 -24q79 -18 82 -44q3 -27 -48 -44l-40 -13v-102h50l77 81l110 -86q21 -16 16 -34q-6 -19 -25 -19h-228v-158l54 -38
q14 -10 12 -28t-21 -18h-340v-12q0 -26 -42 -30q-66 -6 -60 51l4 42q6 95 6 104v87q-73 -2 -178 -10l-39 95q51 -12 217 -27v76q0 116 -8 160l105 -24q79 -18 83 -43q3 -27 -49 -44l-39 -13v-112h204v76q0 112 -10 151zM607 1471v185h-204v-185h204zM114 1194l-37 88
q90 -22 222 -22h467l77 80l110 -86q20 -15 15 -33q-6 -19 -25 -19h-644q-109 0 -185 -8zM178 1091l118 -61h444l59 71l69 -49q35 -26 40 -44q5 -20 -24 -37q-6 -4 -13 -7q-9 -4 -25 -14v-386q0 -49 7 -104q3 -27 3 -44q0 -41 -56 -49q-48 -6 -48 25v46h-478v-42
q0 -27 -45 -31q-66 -5 -60 51l4 42q6 98 6 104zM274 494h191v215h-191v-215zM561 494h191v215h-191v-215zM274 763h191v208h-191v-208zM561 971v-208h191v208h-191zM598 351q155 -65 201 -93q97 -59 116 -111q14 -39 -10 -68q-13 -16 -31 -16q-23 0 -47 37q-81 125 -246 218
zM352 384l118 -59q25 -13 27 -31q3 -27 -38 -30l-52 -4q-120 -129 -306 -218l-22 32q105 78 164 146q51 57 109 164z" />
  </g>

</svg>
