<?xml version="1.0" standalone="no"?>
<!DOCTYPE svg PUBLIC "-//W3C//DTD SVG 1.1//EN" "http://www.w3.org/Graphics/SVG/1.1/DTD/svg11.dtd" >
<svg xmlns="http://www.w3.org/2000/svg" xmlns:xlink="http://www.w3.org/1999/xlink" version="1.1" viewBox="0 -205 1024 1024">
  <g transform="matrix(1 0 0 -1 0 819)">
   <path fill="currentColor"
d="M856 994l65 -52q9 -9 9 -13q0 -5 -9 -5q-15 3 -32 3q-34 0 -110 -21q-31 -9 -45 -12v-119h152l30 36l64 -46q6 -5 6 -7q0 -3 -12 -3h-240v-106h132l25 30l46 -33q6 -6 6 -11q0 -7 -10 -10l-17 -11v-198l5 -60q3 -37 -46 -38v44h-141v-121h118l30 38l66 -48q6 -5 6 -7
q0 -3 -12 -3h-208v-124h174l30 40l64 -50q7 -4 7 -7t-13 -3h-499q-25 0 -39 -13l-34 33h270v124h-121q-28 0 -45 -13l-34 33h200v121h-140v-17q2 -38 -47 -44q0 8 2 27q5 54 5 95v217q0 17 -19 36l12 16l40 -43h147v106h-159q-28 0 -45 -13l-34 33h238v112q-62 -11 -221 -17
l-2 15q114 12 216 34q170 26 162 73zM370 992l61 -44q8 -6 9 -14q0 -9 -9 -6q-5 2 -11 2h-10q-23 0 -92 -18l-28 -7v-102h92l26 36l64 -46q6 -5 6 -7q0 -3 -12 -3h-176v-34q168 -53 168 -119q0 -27 -18 -27q-12 0 -27 25q-30 58 -123 100l2 -61q0 -42 -44 -42h-5q2 16 4 51
q2 28 3 44v31q-93 -148 -229 -211l-8 10q158 119 207 233h-109q-28 0 -45 -13l-34 33h218v95q-60 -13 -157 -22q-12 -1 -18 -2v15q25 6 80 17q96 19 139 34l24 8q47 9 45 42zM230 466l8 11l82 -32q11 -6 11 -10q0 -2 -14 -8q-17 -8 -21 -12v-140q2 0 2 -1h2q87 101 87 110
q-2 2 -8 12q-1 3 -2 4l10 8l58 -41q7 -7 7 -9q0 -3 -7 -5q-2 0 -6 1h-4q-16 0 -59 -39q-36 -32 -58 -48q144 -61 141 -118q-3 -25 -17 -27q-11 0 -26 28q-29 56 -120 106v-140q-6 -55 -18 -67q-10 -16 -52 -21q2 37 -73 47q-25 5 -40 9l4 16l42 -8q42 -9 64 -9q34 -4 33 57
v94l-47 -26q-18 -10 -47 -24q-74 -33 -75 -62l-44 46l213 85v167q-2 22 -26 46zM230 618l74 -28q5 -2 6 -5t-4 -4q-20 -3 -32 -16l-2 -2q189 -48 206 -121v-7q-1 -20 -18 -21q-13 0 -30 25q-40 58 -168 109q-100 -128 -244 -200l-4 12q72 55 123 103q92 95 99 127q0 2 -6 10
q-6 9 -7 12zM875 496h-141v-113h141v113zM694 496h-140v-113h140v113zM734 516h141v112h-141v-112zM694 628h-140v-112h140v112zM104 375l4 11q110 -33 109 -92v-4q-3 -23 -22 -23q-11 0 -16 20q-11 47 -75 88z" />
  </g>

</svg>
