<?xml version="1.0" standalone="no"?>
<!DOCTYPE svg PUBLIC "-//W3C//DTD SVG 1.1//EN" "http://www.w3.org/Graphics/SVG/1.1/DTD/svg11.dtd" >
<svg xmlns="http://www.w3.org/2000/svg" xmlns:xlink="http://www.w3.org/1999/xlink" version="1.1" viewBox="0 0 2048 2048">
  <g transform="matrix(1 0 0 -1 0 2048)">
   <path fill="currentColor"
d="M487 1213l72 -34q44 -19 44 -35q0 -20 -39 -27l-41 -7q68 -24 182 -77q116 -53 131 -115q8 -34 -16 -52q-19 -14 -36 -9q-15 5 -35 26q-70 72 -116 108q-21 15 -156 98q-149 -167 -417 -279l-14 38q154 96 228 161q76 67 175 208q-24 5 -25 22v230q-116 -140 -338 -241
l-19 34q177 106 289 274h-91q-4 0 -23 -4q-5 -1 -69 -4q-14 0 -41 -4l-42 89q21 -5 106 -13l94 -8h134v165q-32 -2 -126 -13q-3 0 -85 -6q-26 -2 -78 -7l-4 43q352 53 565 170l60 -65q50 -49 34 -68q-8 -11 -37 -8q-16 2 -31 8l-25 9q-124 -36 -174 -47v-181h121l88 84
l104 -88q20 -18 19 -34q-2 -18 -25 -18h-307v-29q101 -35 164 -65q107 -50 107 -109q0 -29 -16 -45q-14 -15 -33 -10q-23 5 -64 54q-60 74 -158 133l-1 -67q-1 -40 11 -140q3 -31 -46 -45zM1807 879q-92 -59 -188 -117q-9 -70 -30 -76q-19 -4 -38 38l-26 62
q-33 -239 -103 -372q-104 -195 -330 -337l-24 31q146 126 217 228q101 147 136 366q34 213 34 492v459q0 52 -9 228l114 -72h232l61 72l72 -50q37 -25 41 -43q5 -20 -25 -37l-39 -21v-1471q0 -141 -154 -170q-12 70 -54 90q-38 18 -153 46l8 42q135 -22 190 -27q68 -5 68 57
v582zM1807 921v830h-256v-332q104 -25 135 -35q86 -28 96 -69q5 -19 -5 -35t-28 -18q-25 -3 -69 34q-49 41 -129 76v-189q0 -156 -21 -346q135 37 277 84zM1305 543l23 -20q21 -18 19 -34q-2 -20 -17 -20h-361v-27q0 -28 -46 -31q-66 -4 -61 51l5 42q6 95 6 104v331
q0 22 -8 130l128 -62h56v373h-33q-62 0 -149 -11l-39 86q27 -4 40 -5q86 -12 148 -12h33v318q0 120 -8 160l110 -24q82 -18 85 -43q4 -29 -49 -44l-42 -11v-356h48l87 94l115 -99q9 -7 13 -14q11 -18 -5 -33q-7 -6 -17 -6h-241v-373h52l61 71l72 -49q37 -26 41 -43
q5 -20 -25 -37q-6 -4 -12 -7q-10 -4 -27 -14zM969 951v-425h241v425h-241zM421 921l107 -24q85 -19 88 -44q3 -26 -50 -43l-41 -14v-563q0 -142 -155 -170q-8 61 -30 81q-20 19 -103 40l8 46l45 -5q53 -6 71 -7q68 -4 68 57v486q0 114 -8 160zM139 793q96 -29 136 -48
q82 -39 86 -92q2 -23 -11 -42q-15 -21 -38 -19q-18 2 -36 29q-37 56 -78 89q-4 3 -79 54zM363 522l20 -35q-110 -117 -201 -184l6 -35q3 -23 -12 -30q-19 -9 -51 29l-73 88q148 63 311 167zM767 708q-90 -79 -179 -129l-21 32q89 96 138 207l77 -32q78 -32 73 -57
q-3 -19 -46 -20zM570 531q131 -73 182 -115q85 -68 77 -121q-4 -28 -24.5 -41.5t-41.5 -2.5q-20 10 -51 66q-49 89 -166 183z" />
  </g>

</svg>
