<?xml version="1.0" standalone="no"?>
<!DOCTYPE svg PUBLIC "-//W3C//DTD SVG 1.1//EN" "http://www.w3.org/Graphics/SVG/1.1/DTD/svg11.dtd" >
<svg xmlns="http://www.w3.org/2000/svg" xmlns:xlink="http://www.w3.org/1999/xlink" version="1.1" viewBox="0 0 2048 2048">
  <g transform="matrix(1 0 0 -1 0 2048)">
   <path fill="currentColor"
d="M1512 913q21 -35 66 -120q107 -198 196 -292q73 -78 198 -149l-5 -37q-60 1 -90 -12q-24 -10 -44 -41q-108 104 -185 231q-55 92 -146 316v-436q0 -107 12 -219q3 -28 3 -54q0 -39 -49 -42q-62 -4 -62 42v689q-95 -203 -166 -303q-97 -136 -260 -267l-17 32
q128 140 205 274q77 135 157 354l12 34h-125q-117 0 -192 -8l-38 88q95 -22 230 -22h194v132q0 115 -8 160l109 -24q82 -18 86 -44q3 -26 -51 -43l-40 -14v-167h253l88 90l116 -96q21 -17 16 -33q-6 -19 -26 -19h-437zM1618 1577q256 -145 256 -251q0 -20 -13 -36.5
t-30 -18.5q-32 -3 -56 24l-63 70q-43 48 -171 140q-226 -196 -540 -280l-10 36q294 132 473 299q-131 92 -413 241l17 37q260 -102 463 -212q137 155 200 319l137 -77q25 -14 26 -29q1 -27 -43 -30l-56 -4q-19 -25 -79 -112q-33 -47 -98 -116zM289 1630q145 -146 158 -240
q6 -45 -20 -73q-21 -25 -50 -15q-21 7 -28 35q-2 7 -8 59q-12 104 -80 212zM657 1652l89 -39q44 -18 44 -38q0 -16 -33 -24l-29 -7q-63 -160 -121 -251l-31 13q7 25 11 37q41 136 70 309zM157 1867l108 -64h517l62 71l71 -49q37 -26 42 -44q5 -20 -25 -37q-7 -4 -13 -7
q-9 -4 -27 -14v-415q0 -47 7 -104q3 -27 3 -44q0 -41 -57 -49q-48 -7 -47 25l1 33h-235v-231h148l81 81l114 -86q20 -16 15 -33q-5 -19 -34 -19h-324v-228h196l80 80l115 -86q21 -16 15 -34t-26 -18h-645q-114 0 -192 -9l-38 88q92 -21 230 -21h171v228h-117q-117 0 -192 -9
l-38 89q94 -23 230 -23h117v231h-219v-24q0 -27 -44 -31q-66 -5 -61 51l4 42q6 95 6 104zM564 1745v-521h235v521h-235zM251 1224h219v521h-219v-521zM208 505l40 -3v-16q0 -370 -143 -393q-25 -4 -42.5 10.5t-17.5 38.5q0 28 41 61q70 55 92 127q14 45 30 175zM365 509
q111 -184 118 -272q3 -42 -16 -70q-18 -26 -50 -25q-50 3 -44 61q1 9 4 26q2 16 3 29q5 80 -47 240zM571 518q154 -183 154 -285q0 -67 -55 -70q-46 -2 -49 64q-4 126 -80 272zM768 527q173 -137 173 -218q0 -31 -18 -51q-17 -19 -37 -13q-25 6 -36 57q-19 88 -106 204z" />
  </g>

</svg>
