<?xml version="1.0" standalone="no"?>
<!DOCTYPE svg PUBLIC "-//W3C//DTD SVG 1.1//EN" "http://www.w3.org/Graphics/SVG/1.1/DTD/svg11.dtd" >
<svg xmlns="http://www.w3.org/2000/svg" xmlns:xlink="http://www.w3.org/1999/xlink" version="1.1" viewBox="0 -205 1024 1024">
  <g transform="matrix(1 0 0 -1 0 819)">
   <path fill="currentColor"
d="M568 787l32 -34h58q43 83 70 147h-152q-27 1 -45 -13l-34 33h418l28 38l60 -48q8 -5 7 -8q-2 -2 -13 -2h-220q-54 -88 -90 -147h186l39 37l44 -45q7 -6 5 -10q-1 -5 -11 -7l-18 -9v-316l6 -121q0 -31 -46 -31v52h-281v-23q4 -37 -47 -44q5 37 7 152v350q-3 22 -17 38z
M361 891q-18 2 -38 -14l-35 32h136l17 27l43 -27q7 -6 6 -10t-10 -6l-12 -16v-200l4 -53q1 -30 -44 -36v31h-311q-1 -17 -12 -25q-11 -9 -35 -14q5 38 7 102v201q-3 24 -20 40l12 11l40 -39q43 24 65 39q48 29 30 41l8 6l48 -39q7 -5 7 -9q0 -3 -7 -5q-20 5 -50 -9
q-27 -13 -93 -42v-109h76l20 30l44 -34q9 -6 8 -9q-2 -3 -14 -3h-134v-115h311v120h-60q-27 1 -45 -13l-34 29h139v118h-67zM892 451h-281v-128h281v128zM892 595h-281v-128h281v128zM611 611h281v122h-281v-122zM299 544q18 -5 10 -13q-16 -4 -29 -16v-391q2 1 7 4
q31 15 103 54l4 -12q-23 -18 -70 -50q-5 -4 -8 -6q-30 -24 -41 -35t-19 -35l-42 42q21 6 32 25v410q-1 24 -24 43l7 11zM135 526q18 -5 10 -13q-16 -4 -29 -16v-381q38 18 114 56l4 -12q-40 -26 -72 -50q-37 -22 -48 -37q-10 -15 -18 -33l-40 42q15 10 26 29v392
q-1 24 -24 43l7 11zM382 548l5 12q67 -27 76 -33q9 -5 5 -8q-1 -1 -6 -2q-14 -4 -26 -14v-42q0 -94 4 -129q4 -34 10 -66q6 -31 17 -59q11 -27 20 -17t17 29q8 20 30 74l12 -6q-24 -86 -29 -109q-5 -24 -2 -39q3 -17 -5 -20q-14 -5 -49 30q-18 16 -37 72q-2 5 -3 8
q-19 58 -19 216v66q-2 26 -20 37zM658 258l62 -41q7 -7 7 -10t-7 -4q-25 3 -39 -8q-2 -1 -6 -6q-7 -6 -67 -57q-60 -53 -148 -103l-8 12q159 127 199 189q6 13 -1 22zM808 228l6 12q76 -39 112 -67q36 -27 56 -55q37 -60 2 -80q-16 -5 -32 33t-48 74q-31 34 -96 83zM297 469
l4 8q45 -15 65 -46q20 -38 -4 -54q-14 -4 -17 16t-15 40t-33 36zM311 323l4 8q68 -29 69 -74q0 -22 -14 -25t-16 17q-4 37 -43 74zM131 461l4 8q41 -10 60 -42q19 -41 -7 -52q-14 -4 -16 19t-13 39t-28 28zM141 321l4 8q39 -15 58 -47q18 -38 -5 -49q-14 -4 -16 14
q-1 18 -12 37q-10 19 -29 37z" />
  </g>

</svg>
