<?xml version="1.0" standalone="no"?>
<!DOCTYPE svg PUBLIC "-//W3C//DTD SVG 1.1//EN" "http://www.w3.org/Graphics/SVG/1.1/DTD/svg11.dtd" >
<svg xmlns="http://www.w3.org/2000/svg" xmlns:xlink="http://www.w3.org/1999/xlink" version="1.1" viewBox="0 0 2048 2048">
  <g transform="matrix(1 0 0 -1 0 2048)">
   <path fill="currentColor"
d="M149 1114l109 -24q88 -19 86 -48q-1 -27 -50 -39l-45 -11v-121h78l51 50l73 -62q17 -14 16 -30q-1 -14 -16 -14h-202v-200h75l60 54l67 -54q23 -18 20 -40q-2 -16 -20 -16h-202v-305q91 30 191 81l19 -32q-98 -83 -212 -158v-24q0 -45 -27 -42q-21 3 -42 47l-44 94l22 7
v727q0 118 -7 160zM499 1110l102 -19q52 -10 57 -12q25 -6 27 -26q3 -25 -51 -42l-30 -9v-131h76l51 50l73 -62q17 -14 16 -30q-1 -14 -16 -14h-200v-200h73l60 54l67 -54q23 -18 20 -40q-2 -16 -20 -16h-200v-303q174 63 258 109l18 -29q-84 -70 -164 -120
q-74 -47 -108 -68l-4 -27q-5 -36 -27 -42q-23 -6 -46 47l-43 101l21 7v743q0 66 -10 133zM1421 1133h-205q-13 -2 -19 -4q-20 -3 -33 -4q-41 -4 -41 33v343q-6 116 -10 133l110 -24q52 -11 60 -33q11 -28 -27 -38l-42 -11v-338h522v303q0 66 -9 134l107 -24q53 -12 61 -33
q10 -27 -27 -39l-39 -12v-235q0 -47 7 -104q3 -27 3 -43q0 -42 -56 -49q-49 -7 -48 24l1 20h-203l-48 -148h279l62 73l71 -50q38 -27 42 -44q6 -25 -64 -54v-407q0 -121 -142 -143q0 60 -39 85q-29 18 -96 31l7 42q89 -19 130 -19q43 0 44 61l3 370h-312q-41 -130 -91 -248
q109 11 223 32q-37 65 -76 120l27 24q179 -150 174 -235q-2 -43 -34 -53q-50 -16 -61 38q-8 42 -15 60l-102 -30q-102 -31 -178 -49l-8 -38q-5 -25 -26 -23q-22 2 -30 30l-34 114l87 7q38 128 59 251h-195l-1 -477q0 -26 -40 -30q-66 -8 -61 50l4 42q6 97 6 104l2 305
l-41 -4l-30 79l71 -7v66l103 -73h194zM1337 1955q172 -77 193 -159q8 -32 -22 -65l235 2l83 87l105 -89q25 -20 24 -32q-1 -20 -26 -20h-713q-68 0 -148 -11l-40 86q30 -4 88 -12q74 -11 100 -11h239q-18 22 -35 68q-24 67 -103 128zM1552 1645l81 -34q57 -24 57 -53
q0 -20 -27 -23l-46 -4q-32 -55 -68 -106q123 -86 129 -133q2 -21 -11.5 -38t-33.5 -19q-31 -2 -61 53q-13 23 -69 84q-105 -90 -224 -152l-23 31q91 61 187 166q-95 73 -149 107l16 29q83 -35 167 -82q33 48 75 174zM1920 431l39 -12l-31 -144q-6 -31 -7 -50q-2 -28 14 -42
l27 -26q16 -15 18 -31q9 -64 -200 -64t-427 77q-373 132 -473 468q-30 101 -57 347q-10 87 -18 153l98 -19q76 -15 84 -38q9 -27 -45 -50l-28 -11q6 -49 8 -74q35 -361 165 -501q184 -201 604 -248q106 -12 134 9q18 13 48 110zM437 1803q-84 -46 -193 -80v-192h103l74 72
l98 -72q24 -18 19 -38q-4 -16 -23 -16h-271v-184h593v184h-43q-69 0 -148 -11l-38 86q121 -17 186 -17h43v199h-47q-66 0 -149 -11l-36 86q119 -18 185 -18h39l56 65l53 -31q54 -31 57 -53q4 -31 -30 -46l-34 -13v-345q0 -48 7 -104q3 -27 3 -44q0 -41 -56 -49
q-48 -6 -48 25v39h-593l1 -18q1 -35 -45 -35q-65 0 -61 51l4 42q7 93 7 104v288q0 89 -15 189l123 -73q64 41 84 58q10 10 38 42q10 12 30 34l61 -39q67 -42 65 -61q-3 -21 -34 -21q-10 0 -38 4z" />
  </g>

</svg>
