<?xml version="1.0" standalone="no"?>
<!DOCTYPE svg PUBLIC "-//W3C//DTD SVG 1.1//EN" "http://www.w3.org/Graphics/SVG/1.1/DTD/svg11.dtd" >
<svg xmlns="http://www.w3.org/2000/svg" xmlns:xlink="http://www.w3.org/1999/xlink" version="1.1" viewBox="0 -205 1024 1024">
  <g transform="matrix(1 0 0 -1 0 819)">
   <path fill="currentColor"
d="M70 607q3 22 -21 43l9 9l77 -38q8 -2 10 -5t-3 -7q-20 -4 -32 -18v-144h327v143q2 16 -34 46l13 12l85 -36q14 -5 6 -11q-21 -7 -30 -21v-380l4 -65q1 -35 -44 -46v73l-316 -79l-29 -38l-48 42q24 14 26 34v486zM437 431h-327v-318l327 70v248zM866 879q8 -9 -9 -14
l-19 -14v-697q-4 -51 18 -57q23 -8 66 -3q18 -2 25 9q7 10 10 75l7 84h15l3 -76q-4 -68 28 -73q-25 -45 -58 -49q-31 -4 -75 -4q-81 -6 -83 78v731h-155v-337q-1 -185 -49 -307q-48 -119 -160 -211l-12 8q114 126 145 242q32 119 33 290v319q0 24 -22 48l12 12l45 -44h141
l35 41zM260 1006l82 -34q12 -5 6 -11q-16 -4 -27 -18v-67h88l24 32l60 -36q8 -6 7 -9q-2 -3 -13 -3h-166v-122h140l24 32l60 -42q8 -5 7 -8q-2 -2 -13 -2h-439q-27 1 -45 -13l-34 33h106v147q2 17 -25 42l8 11l78 -34q14 -5 6 -11q-16 -4 -27 -18v-137h110v215q2 17 -25 42z
M319 669l62 -14q8 -9 -3 -13q-12 1 -24 -13q-6 -23 -13 -44q20 -10 37 -21q27 -14 36 -46q8 -38 -14 -37q-8 2 -17 25q-8 25 -17 36q-12 15 -30 30q-26 -72 -68 -115l-10 5q69 126 68 183q-4 10 -10 17zM319 397l62 -14q8 -9 -3 -13q-12 1 -24 -13q-6 -25 -14 -47
q19 -9 34 -18q26 -15 35 -46q8 -38 -13 -37q-8 2 -17 25q-8 25 -17 36q-10 13 -27 26q-26 -68 -67 -110l-10 5q69 125 68 182q-4 10 -10 17zM179 673l56 -12q17 -9 7 -13q-8 -3 -22 -14q-2 -5 -5 -15q-2 -7 -9 -27q14 -6 27 -16q23 -13 29 -39q3 -31 -16 -32q-10 2 -13 22
q-2 20 -13 33q-7 10 -19 19q-28 -72 -71 -122l-8 5q76 147 67 186q-6 10 -12 19zM179 401l56 -12q17 -9 7 -13q-8 -3 -22 -14q-2 -5 -5 -15q-2 -7 -9 -27q14 -6 27 -16q23 -13 29 -39q3 -31 -16 -32q-10 2 -13 22q-2 20 -13 33q-7 10 -19 19q-28 -72 -71 -121l-8 5
q76 145 67 185q-6 10 -12 19z" />
  </g>

</svg>
