<?xml version="1.0" standalone="no"?>
<!DOCTYPE svg PUBLIC "-//W3C//DTD SVG 1.1//EN" "http://www.w3.org/Graphics/SVG/1.1/DTD/svg11.dtd" >
<svg xmlns="http://www.w3.org/2000/svg" xmlns:xlink="http://www.w3.org/1999/xlink" version="1.1" viewBox="0 0 2048 2048">
  <g transform="matrix(1 0 0 -1 0 2048)">
   <path fill="currentColor"
d="M722 1372l77 -17q45 -10 42 -38q-3 -19 -33 -22l-42 -4q-11 -49 -27 -109l-5 -22q155 -109 146 -196q-2 -19 -16 -31.5t-29 -10.5q-28 5 -46 73q-16 59 -39 87q-22 27 -28 37q-35 -91 -123 -223l-36 23q102 170 131 453h-204l59 -12q46 -9 42 -38q-3 -20 -34 -23l-42 -4
q-14 -65 -30 -121q98 -66 114 -126q8 -33 -15 -57q-17 -18 -35 -12q-16 6 -37 80q-6 20 -43 64q-29 -84 -121 -223l-33 19q106 216 127 453h-159q-57 0 -148 -12l-39 87q103 -15 214 -19v216q0 118 -7 160l100 -24q70 -17 74 -44q4 -26 -51 -42l-23 -7v-258l206 -1v362
q0 120 -7 160l99 -24q72 -18 75 -44q4 -27 -51 -42l-24 -7v-139h137l80 81l114 -86q21 -16 15 -33q-5 -19 -25 -19h-321v-209h255l80 80l114 -86q21 -15 16 -32q-6 -18 -26 -18h-418zM734 508q64 -48 88 -70q62 -53 62 -112q0 -21 -12 -38q-16 -23 -42 -20q-30 3 -38 61
q-4 37 -70 137q-35 -91 -123 -223l-36 23q109 182 131 459l105 -23q46 -10 42 -37q-3 -18 -33 -22l-42 -5q-21 -93 -32 -130zM494 539q97 -65 113 -125q8 -33 -16 -57q-15 -17 -34 -12q-19 6 -31 48q-9 35 -48 93q-49 -138 -126 -239l-34 17q97 179 122 465l113 -23
q45 -9 42 -39q-2 -24 -34 -24h-42q-12 -57 -25 -104zM363 767l-39 86q27 -4 40 -6q87 -12 148 -12h159l80 80l114 -86q21 -16 16 -34q-5 -16 -33 -16h-336q-58 0 -149 -12zM1534 1012v-616q0 -110 13 -222q3 -28 3 -54q0 -39 -49 -42q-63 -4 -63 42v892h-170q-69 0 -148 -11
l-40 86q124 -18 188 -18h170v555h-127q-68 0 -149 -11l-39 86q120 -18 188 -18h376l98 102l121 -107q20 -18 15 -34q-5 -18 -25 -18h-362v-555h214l98 102l121 -107q20 -18 15 -33q-6 -19 -25 -19h-423zM188 1265l99 -24q71 -17 75 -44q4 -26 -51 -42l-24 -7v-951h631v900
q0 120 -7 160l100 -24q70 -16 74 -43q4 -25 -50 -42l-24 -7v-888q0 -62 4 -95q7 -64 0 -79q-13 -28 -53 -28q-44 0 -44 46v42h-631q-18 -22 -52 -18q-40 4 -40 48v936q0 118 -7 160z" />
  </g>

</svg>
