<?xml version="1.0" standalone="no"?>
<!DOCTYPE svg PUBLIC "-//W3C//DTD SVG 1.1//EN" "http://www.w3.org/Graphics/SVG/1.1/DTD/svg11.dtd" >
<svg xmlns="http://www.w3.org/2000/svg" xmlns:xlink="http://www.w3.org/1999/xlink" version="1.1" viewBox="0 0 2048 2048">
  <g transform="matrix(1 0 0 -1 0 2048)">
   <path fill="currentColor"
d="M1296 829l44 -13q48 -14 50 -37q1 -22 -31 -24l-50 -5l-20 -22q27 -9 59 -18q95 -27 117 -55t5.5 -55t-47.5 -15q-11 5 -55 42q-47 39 -113 70q-97 -77 -238 -125l-15 35q177 95 239 222h-495l66 -21q48 -15 50 -36q1 -22 -31 -25l-49 -4l-18 -15q41 -12 77 -25
q106 -39 98 -93q-7 -41 -44 -38q-19 2 -43 31q-40 47 -127 91q-111 -80 -255 -122l-15 35q180 86 261 222h-454q-63 0 -149 -11l-39 87q118 -19 188 -19h241v88q0 8 -10 140l98 -19q81 -16 83 -42q1 -21 -55 -42l-21 -7v-118h386v158q0 64 -12 158l106 -18q43 -8 53 -11
q23 -8 23 -30q0 -19 -45 -35l-31 -11v-35h461l80 81l114 -86q21 -16 16 -34q-6 -19 -26 -19h-645v-118h677l80 80l114 -86q20 -16 15 -34q-4 -17 -21 -17h-647zM635 1523q171 19 343 50l6 -35q-227 -60 -349 -80v-149q0 -141 -155 -170q-9 68 -39 90q-27 20 -133 42l8 46
q101 -17 156 -23q68 -7 68 57v91l-84 -13q-105 -18 -176 -30l-17 -50q-7 -19 -20 -19t-33 38l-59 118q190 7 389 26v156h-156q-117 0 -192 -8l-38 88q93 -22 230 -22h156v75q0 113 -8 160l103 -25q84 -19 87 -43q4 -25 -48 -44l-39 -14v-109h170l80 80l112 -85
q20 -15 14 -32q-7 -21 -27 -21h-349v-145zM1499 1553h-314q-20 -119 -53 -181q-46 -86 -152 -148l-22 29q70 60 95 126q38 107 38 250q0 162 -8 250l116 -73q334 25 547 129l100 -73q27 -19 27 -35q0 -24 -38 -19l-57 8q-278 -47 -591 -56v-148h552l98 102l121 -107
q20 -18 16 -35q-6 -19 -26 -19h-352v-207q0 -13 3 -58q3 -37 2 -71q-3 -56 -62 -51q-40 3 -40 32v355zM1632 764l96 -15q71 -11 83 -34q15 -28 -39 -48l-33 -12v-417q0 -25 4 -54t4 -35l-1 -31l1 -22q0 -45 -58 -42q-45 2 -45 42v35h-1272q-27 -13 -43 -13q-40 0 -40 43v437
l-5 67q-4 63 -7 92l101 -18q41 -7 53 -11q23 -7 27 -31q4 -25 -46 -42l-29 -11v-457h1261v418q0 25 -12 159zM1307 357q31 -10 86 -21q117 -24 133 -84q5 -20 -8 -36q-13 -17 -30 -14q-11 2 -28 15q-70 55 -188 109q-114 -82 -247 -119l-15 35q105 54 148 90q53 44 105 136
l92 -29q48 -15 50 -37q1 -22 -31 -25l-49 -4zM1427 539l67 60l77 -60q30 -23 23 -42q-5 -15 -39 -15h-936q-69 0 -149 -10l-39 86q125 -19 188 -19h808zM753 357q10 -4 40 -13q131 -40 137 -91q2 -19 -11 -32q-11 -11 -24 -8q-11 3 -26 15q-48 39 -155 95q-94 -73 -255 -124
l-15 36q122 60 177 111q45 41 87 122l93 -29q48 -15 49 -37q2 -22 -31 -25l-49 -4z" />
  </g>

</svg>
