<?xml version="1.0" standalone="no"?>
<!DOCTYPE svg PUBLIC "-//W3C//DTD SVG 1.1//EN" "http://www.w3.org/Graphics/SVG/1.1/DTD/svg11.dtd" >
<svg xmlns="http://www.w3.org/2000/svg" xmlns:xlink="http://www.w3.org/1999/xlink" version="1.1" viewBox="0 0 2048 2048">
  <g transform="matrix(1 0 0 -1 0 2048)">
   <path fill="currentColor"
d="M412 1531q-13 13 -17 34q-13 62 -31 88q-13 20 -50 63q-84 -3 -134 -11l-39 85q125 -16 187 -16h237q-26 95 -86 168l21 20q144 -77 144 -139q0 -28 -20 -49h188l78 80l116 -86q21 -15 16 -33q-6 -19 -26 -19h-250l89 -30q50 -17 46 -37q-5 -23 -49 -27l-42 -4l-68 -87
h142l79 82l112 -82q23 -17 18 -37q-6 -21 -26 -21h-763q-63 0 -149 -11l-39 87q124 -18 188 -18h128zM456 1531h205q45 92 64 185h-356q114 -73 114 -139q0 -21 -27 -46zM810 1067q-153 -61 -358 -123q-9 -52 -21 -61q-25 -18 -54 40l-37 75q-25 -105 -69 -161
q-42 -54 -122 -111l-24 28q85 92 110 176q23 77 23 255v106q0 18 -5 84q-1 24 -4 72l112 -71h427l61 71l72 -49q37 -25 41 -43q5 -20 -24 -38q-7 -3 -13 -6q-9 -5 -26 -15v-377q0 -139 -150 -165q-9 62 -34 82q-22 18 -114 39l8 38q94 -14 133 -17q68 -5 68 57v114z
M810 1105v210h-459v-64q67 -2 178 -13q174 -16 182 -82q5 -44 -34 -42q-22 1 -50 16q-96 49 -276 83l-3 -87q-1 -65 -7 -107q103 10 469 86zM1674 1579h-435q-5 -28 -53 -36q-44 -8 -44 20v218q0 114 -8 160l108 -24q83 -19 86 -44q4 -28 -49 -43l-40 -11v-45h451l80 80
l114 -86q21 -15 16 -33q-6 -19 -26 -19h-635v-83h427l60 72l72 -49q37 -26 42 -44q4 -20 -26 -37q-6 -4 -12 -7q-10 -4 -27 -14v-72q68 -41 64 -61q-4 -16 -23 -16h-574v-85h314l68 64l92 -69q21 -16 16 -33q-6 -19 -26 -19h-464v-77h356l68 65l92 -68q22 -16 16 -34
q-6 -20 -27 -20h-505v-75h356l68 64l92 -68q21 -15 16 -34q-6 -19 -27 -19h-505v-11q0 -71 30 -82q38 -15 370 -15q122 0 152 19q29 17 38 72q5 26 12 74q4 25 12 74l35 -3q-5 -62 -5 -80q0 -72 17 -103q5 -9 37 -36q19 -16 21 -32q10 -73 -313 -73l-103 1l-128 -1
q-179 0 -220 23q-53 30 -53 108v599l122 -69h408v117zM980 601h-509v-396q1 -32 -53 -27q-50 4 -50 54l8 193v130q-5 152 -16 188l126 -87h494v22q0 114 -9 161l109 -24q82 -18 86 -44q3 -23 -50 -43l-41 -16v-56h556l68 76l84 -54q40 -25 40 -49q0 -25 -76 -62v-211
q0 -141 -155 -171q-12 70 -47 93q-34 21 -160 43l8 46q134 -22 190 -27q68 -5 68 57v204h-576v-262q0 -105 11 -209q3 -28 3 -54q0 -39 -48 -42q-61 -4 -61 42v525z" />
  </g>

</svg>
