<?xml version="1.0" standalone="no"?>
<!DOCTYPE svg PUBLIC "-//W3C//DTD SVG 1.1//EN" "http://www.w3.org/Graphics/SVG/1.1/DTD/svg11.dtd" >
<svg xmlns="http://www.w3.org/2000/svg" xmlns:xlink="http://www.w3.org/1999/xlink" version="1.1" viewBox="0 0 2048 2048">
  <g transform="matrix(1 0 0 -1 0 2048)">
   <path fill="currentColor"
d="M431 442q112 35 242 83l13 -36q-151 -85 -443 -199l-42 -17l-5 -46q-4 -32 -21 -32q-16 0 -37 32l-78 115q133 29 276 69v532h-38q-117 0 -192 -8l-38 88q96 -22 230 -22h38v474h-65q-118 0 -192 -8l-38 88q99 -22 230 -22h112q-25 20 -32 60q-23 133 -143 295l27 25
q225 -194 225 -317q0 -36 -34 -63h70l98 101l121 -107q20 -18 16 -33q-6 -19 -26 -19h-274v-474h34l99 101l120 -107q21 -18 16 -33q-6 -19 -26 -19h-243v-501zM1356 1538h337l63 72l68 -50q40 -29 43 -43q4 -21 -27 -38q-6 -3 -13 -6l-27 -15v-134l32 -21q25 -17 21 -34
q-5 -22 -29 -22h-332v-251h278l63 72l71 -49q39 -28 43 -44q5 -20 -26 -38q-6 -3 -13 -6q-9 -5 -27 -14v-509q0 -29 -25 -39q-30 -11 -43 -11q-27 0 -27 19v15h-504v-141q0 -43 46.5 -57.5t187.5 -14.5h130q96 0 159 15q50 12 67 84l20 82l42 -7l-1 -73q0 -39 30 -66
q34 -32 35 -44q4 -41 -65 -58q-77 -20 -271 -20h-179q-161 0 -216 23q-77 32 -77 120v157h-98v-114l34 -27q13 -10 16 -19q2 -7 -3.5 -15.5t-12.5 -8.5h-183l-40 -3q-36 -3 -81 -8l-41 86q128 -17 184 -17h36v126h-106q-66 0 -155 -10l-40 87q126 -18 195 -18h106v116h-83
l-40 -3q-47 -3 -80 -8l-41 86q77 -10 91 -11q50 -4 53 -4q14 -2 17 -2h64l61 71l72 -49q37 -25 41 -44q5 -20 -25 -37q-6 -4 -13 -7q-9 -4 -26 -14v-94h98v488h-98v-99l34 -26q13 -10 16 -19q2 -7 -3.5 -16t-12.5 -9h-184l-40 -3q-42 -3 -81 -8l-41 86q75 -10 144 -15l18 -2
h59v111h-85q-77 0 -154 -12l-41 86q28 -3 42 -5q89 -12 153 -12h85v99h-67l-40 -3q-39 -2 -81 -8l-40 86q76 -10 90 -11q50 -4 53 -4q14 -2 18 -2h48l61 71l72 -49q37 -26 41 -44q5 -20 -25 -37q-6 -4 -13 -7q-9 -4 -26 -14v-77h98v251h-217q-14 -29 -66 -29q-31 0 -31 22
v312q-45 -20 -105 -44l-14 30q246 145 389 414l141 -53q31 -12 26 -35q-4 -20 -34 -24l-56 -9q-46 -51 -69 -73h296l71 59l91 -69q32 -24 27 -46q-4 -20 -39 -26l-47 -7q-100 -58 -197 -131zM1282 1538q90 90 155 161h-345q-83 -74 -176 -127l57 -34h309zM1492 496v-45h294
v488h-294v-386q55 65 97 163q-38 51 -86 104l17 30l21 -15q29 -20 75 -58q10 22 19 46q16 44 33 87l78 -49q27 -17 29 -35t-19 -21l-37 -6q-22 -42 -41 -80q85 -93 89 -147q4 -66 -46 -56q-27 6 -50 67q-10 28 -34 68q-80 -103 -145 -155zM1282 451h118v488h-118v-488z
M1282 996h118v486h-118v-486zM1492 1482v-179h215v179h-215zM1190 1303v179h-217v-179h217z" />
  </g>

</svg>
