<?xml version="1.0" standalone="no"?>
<!DOCTYPE svg PUBLIC "-//W3C//DTD SVG 1.1//EN" "http://www.w3.org/Graphics/SVG/1.1/DTD/svg11.dtd" >
<svg xmlns="http://www.w3.org/2000/svg" xmlns:xlink="http://www.w3.org/1999/xlink" version="1.1" viewBox="0 -200 1000 1000">
  <g transform="matrix(1 0 0 -1 0 800)">
   <path fill="currentColor"
d="M238 495q17 0 34 -8.5t37 -23.5h380l32 42q17 -6 32.5 -17.5t21.5 -24.5l-28 -29v-264q0 -18 -22 -32.5t-49 -14.5q0 9 -44 28t-122 36l6 6q29 -7 55 -9.5t48 -2.5q37 0 58.5 4.5t21.5 8.5v91h-413v-144q-24 -24 -48 -24v378zM286 377h413v75h-390l-23 -15v-60zM457 795
q14 0 28.5 -6.5t30.5 -17.5l124 84h-326l-17 -5l-12 17h350l31 41q32 -29 41 -46t9 -30q-9 -1 -33 -8.5t-53.5 -17t-59 -20t-50.5 -18.5l15 -11l-30 -20v-210q0 -17 -17 -32t-37 -15q0 9 -21.5 33t-63.5 48l6 6q22 -14 39 -18.5t28 -4.5q18 0 18 7v244zM286 296h413v69h-413
v-69zM602 740q8 -10 18.5 -20t24.5 -21q29 9 56.5 21.5t51.5 28t42.5 33.5t30.5 39q18 -7 35 -20t25 -27h-24q-28 -28 -84.5 -48t-125.5 -32q46 -32 110.5 -55.5t137.5 -28.5v-6q-20 -5 -35.5 -14.5t-29.5 -24.5q-79 22 -143.5 65.5t-95.5 106.5zM141 745l-17 -4l-12 16h197
l31 42q17 -11 33 -32t22 -44l-29 -17q-17 -23 -44.5 -43t-62 -37t-74.5 -30t-82 -21l-3 3q34 11 66.5 27.5t61 37.5t51 47t35.5 55h-173zM493 757l-6 -6l13 9q-5 -3 -7 -3z" />
  </g>

</svg>
