<?xml version="1.0" standalone="no"?>
<!DOCTYPE svg PUBLIC "-//W3C//DTD SVG 1.1//EN" "http://www.w3.org/Graphics/SVG/1.1/DTD/svg11.dtd" >
<svg xmlns="http://www.w3.org/2000/svg" xmlns:xlink="http://www.w3.org/1999/xlink" version="1.1" viewBox="0 -120 1000 1000">
  <g transform="matrix(1 0 0 -1 0 880)">
   <path fill="currentColor"
d="M486 66v816l84 -46h263l29 43l62 -47q13 -9 13 -18q0 -10 -16 -14l-20 -6v-680l-64 -13v79h-287v-104zM550 208h287v602h-287v-602zM43 302q134 232 160 397h-137l-14 28h157v218l86 -10q18 -2 18 -13q0 -10 -11 -14l-25 -9v-172h43l44 56l86 -65v-19h-173v-133
q87 -33 126 -68q40 -36 40 -72q0 -25 -20 -37q-9 -5 -19 -5q-11 0 -21 12q-2 3 -35 67q-24 44 -71 80v-479l-68 -11v451q-84 -132 -154 -213z" />
  </g>

</svg>
