<?xml version="1.0" standalone="no"?>
<!DOCTYPE svg PUBLIC "-//W3C//DTD SVG 1.1//EN" "http://www.w3.org/Graphics/SVG/1.1/DTD/svg11.dtd" >
<svg xmlns="http://www.w3.org/2000/svg" xmlns:xlink="http://www.w3.org/1999/xlink" version="1.1" viewBox="0 -140 1000 1000">
  <g transform="matrix(1 0 0 -1 0 860)">
   <path fill="currentColor"
d="M296 77l-42 1q289 53 326 228h-241v16h250l16 90q3 1 6 1q47 -6 72 -32q-34 -8 -30 -55h170q2 1 12 13t21 25.5t14 16.5q36 -30 63 -75h-274q6 -25 39 -58q91 -105 266 -139q-30 -19 -47 -31q-3 -3 -17 -13.5t-18 -10.5q-65 9 -184 155q-2 4 -14 23t-25.5 40.5
t-14.5 22.5q-38 -77 -55 -94q-115 -124 -293 -124zM35 240l101 24v238h-93v23h93v234h-93v16h172l39 50q44 -37 54 -66h-125v-227q20 0 26 -1q3 -1 8 -1q16 0 25 20l12 18l62 -66h-133v-222h10q3 0 59.5 15.5t63.5 15.5t8 -1l-11 -6q-11 -7 -13 -9l-187 -102
q-4 -2 -16 -19.5t-15 -19.5q-29 48 -47 86zM486 824l56 1q13 31 32 133l78 -39q-45 -23 -86 -94h218l31 24q12 0 47 -39l-23 -24v-390q-25 -6 -55 -15v421h-335v-421h-47v468q25 -25 84 -25zM488 451h-8q1 1 5.5 7t8.5 10q63 68 62 104h-92v23h117v113h-109q22 15 79 35
q60 21 77 34q12 9 15 9q12 0 55 -46l-85 -16q1 0 4 -3.5t3 -4.5q16 -9 24 -15q1 -10 -8 -16v-86q10 7 17.5 25.5t29.5 83.5q0 1 4 1t29 -17t29 -23q-38 -8 -78 -70l14 -1q24 0 41 32l54 -58h-135q0 -2 -2.5 -10t-2.5 -9q0 -6 44 -23q82 -30 82 -59q0 -11 -8.5 -16t-16.5 -5
l-7 1q-5 5 -8 9q-58 67 -90 66v-99q-13 -6 -35 -7q-11 2 -16 7v94q-22 -21 -78 -62q-3 -3 -15 -8zM486 687q57 -9 65 -53q-1 -19 -28 -20q-11 0 -12 1q-21 53 -25 72z" />
  </g>

</svg>
