<?xml version="1.0" standalone="no"?>
<!DOCTYPE svg PUBLIC "-//W3C//DTD SVG 1.1//EN" "http://www.w3.org/Graphics/SVG/1.1/DTD/svg11.dtd" >
<svg xmlns="http://www.w3.org/2000/svg" xmlns:xlink="http://www.w3.org/1999/xlink" version="1.1" viewBox="0 -200 1000 1000">
  <g transform="matrix(1 0 0 -1 0 800)">
   <path fill="currentColor"
d="M235 853q20 -5 38 -13.5t26 -18.5l-25 -16q-17 -97 -54.5 -168t-80.5 -106l109 12v-11l-98 -35l-23 -11l-31 40q20 0 41.5 27t40 72.5t34 104.5t23.5 123zM269 645q20 -5 38.5 -13t25.5 -18l-25 -17q-22 -85 -68.5 -146t-100.5 -92l179 58v-12l-191 -92l-31 40
q6 0 14.5 5.5t16.5 11.5q45 35 84.5 106.5t57.5 168.5zM323 261v-12l-196 -132q-1 1 -4.5 3.5t-8 9t-9.5 18t-9 31.5l15 -5zM375 647l-17 -5l-12 16h168l29 40q25 -11 40.5 -27t21.5 -24h-230zM456 891q17 0 35 -10t40 -27l-29 -19v-701q-23 -23 -46 -23v780zM479 653v-39
q-18 -131 -57 -225t-84 -142l-3 3q33 52 62 156t43 247h39zM468 615q38 -37 63 -65.5t40 -49.5t21 -35.5t6 -24.5q0 -17 -13 -27t-20 -10q-16 0 -19 32q-1 13 -8 32.5t-18.5 43t-26 50t-30.5 52.5zM629 658l-18 -4l-11 16h190l30 39q25 -10 40 -26.5t22 -24.5h-253zM709 891
q17 0 35 -10t41 -27l-30 -19v-701q-23 -23 -46 -23v780zM732 664v-39q-19 -147 -59.5 -253t-86.5 -160l-3 3q35 58 65.5 174t44.5 275h39zM744 664q10 -74 26.5 -141t37.5 -121t45 -90.5t50 -48.5v-6q-20 -5 -34.5 -14.5t-28.5 -23.5q-34 57 -61 168.5t-41 273.5z" />
  </g>

</svg>
