<?xml version="1.0" standalone="no"?>
<!DOCTYPE svg PUBLIC "-//W3C//DTD SVG 1.1//EN" "http://www.w3.org/Graphics/SVG/1.1/DTD/svg11.dtd" >
<svg xmlns="http://www.w3.org/2000/svg" xmlns:xlink="http://www.w3.org/1999/xlink" version="1.1" viewBox="0 -410 2048 2048">
  <g transform="matrix(1 0 0 -1 0 1638)">
   <path fill="currentColor"
d="M1294 775v-149h469l80 81l114 -86q17 -12 17 -26q0 -16 -7.5 -20t-34.5 -4h-606q114 -131 337 -249q129 -68 304 -111l-3 -37q-16 1 -24 1q-74 0 -111 -68q-26 11 -152 87q-169 102 -277 209q-50 48 -106 126v-258q0 -102 4 -141q4 -37 4 -51q0 -49 -65 -49q-39 0 -39 32
v491q-213 -289 -601 -436l-14 40q169 97 301 202q78 63 147 141q52 60 62 71h-280q-120 0 -192 -9l-38 88q108 -24 205 -24h410v149h-377v-22q0 -31 -52 -31q-53 0 -53 43q0 5 4 50q6 97 6 104v464l121 -66h820l60 56l65 -45q42 -30 42 -51q0 -23 -61 -40v-318q0 -41 7 -104
q3 -29 3 -45q0 -48 -66 -48q-41 0 -39 25l3 28h-387zM821 1074h377v187h-377v-187zM821 833h377v187h-377v-187zM1294 1261v-187h387v187h-387zM1294 1020v-187h387v187h-387zM1511 1635q241 -108 241 -199q0 -51 -48 -51q-24 0 -51 47q-31 55 -99 115q-9 8 -53 43
q-21 16 -54 45q161 128 251 284l103 -73q26 -18 26 -32q0 -21 -45 -21h-39q-130 -104 -232 -158zM463 1920l148 -58q39 -15 39 -34q0 -26 -43 -32l-59 -9q-87 -253 -164 -403l92 -33q26 -9 26 -30q0 -19 -22 -27l-49 -19v-1034q0 -70 7 -147q2 -17 2 -30q0 -43 -68 -43
q-38 0 -38 46v1234l-32 -51q-82 -130 -115 -174q-28 -36 -114 -134l-27 31q171 228 273 481q117 287 144 466zM749 1630q22 -14 33 -20q188 -113 188 -204q0 -56 -48 -56q-30 0 -49 48q-26 67 -68 116q-39 46 -117 121q118 106 209 279l107 -64q29 -17 29 -33q0 -24 -44 -24
h-39q-117 -108 -201 -163zM1117 1626q94 -48 153 -86q96 -61 96 -126q0 -52 -47 -52q-26 0 -56 53q-52 92 -213 211q151 123 243 291l98 -62q35 -21 35 -40q0 -22 -44 -22h-38q-101 -88 -227 -167z" />
  </g>

</svg>
