<?xml version="1.0" standalone="no"?>
<!DOCTYPE svg PUBLIC "-//W3C//DTD SVG 1.1//EN" "http://www.w3.org/Graphics/SVG/1.1/DTD/svg11.dtd" >
<svg xmlns="http://www.w3.org/2000/svg" xmlns:xlink="http://www.w3.org/1999/xlink" version="1.1" viewBox="0 -120 1000 1000">
  <g transform="matrix(1 0 0 -1 0 880)">
   <path fill="currentColor"
d="M183 943l77 -34q13 -5 13 -13q0 -9 -17 -12l-18 -4q-13 -26 -39 -74h215l47 59l82 -67v-19h-359q-60 -95 -130 -168l-15 12q85 121 144 320zM425 736l75 -59v-20h-340l-12 28h234zM402 603l65 -40q13 -9 13 -17q0 -12 -20 -14l-23 -2q-17 -24 -121 -154
q-93 -114 -123 -159q-17 -25 -17 -37q0 -19 30 -19h180q15 0 24 6q8 5 16 24l50 130h12l-8 -121l-1 -2q-4 -13 13 -30q7 -7 27 -18q-15 -21 -31 -33q-20 -14 -63 -14h-223q-94 0 -94 62q0 20 12 43q15 28 77 106q21 26 147 190l23 29h-254l-13 27h271zM855 685h-125
q-3 -272 -57 -410q-42 -105 -111 -172q-28 -26 -75 -57l-11 14q104 98 145 234q43 142 47 391h-110l-15 27h125v231l76 -9q18 -2 18 -11q0 -8 -15 -15l-17 -8v-188h110l27 51l70 -53q12 -9 12 -15q0 -9 -15 -15l-16 -7v-237q0 -215 -64 -317q-25 -40 -71 -58q-12 -5 -22 -5
q-6 0 -9 3q-2 2 -4 20q-2 16 -7 23q-4 4 -17 8l-68 16v16h134q65 98 65 284v259z" />
  </g>

</svg>
