<?xml version="1.0" standalone="no"?>
<!DOCTYPE svg PUBLIC "-//W3C//DTD SVG 1.1//EN" "http://www.w3.org/Graphics/SVG/1.1/DTD/svg11.dtd" >
<svg xmlns="http://www.w3.org/2000/svg" xmlns:xlink="http://www.w3.org/1999/xlink" version="1.1" viewBox="0 -410 2048 2048">
  <g transform="matrix(1 0 0 -1 0 1638)">
   <path fill="currentColor"
d="M1188 1605l61 74l72 -50q42 -29 42 -50q0 -12 -8 -19q-10 -8 -35 -21q-7 -4 -20 -12v-45v-57q13 -10 21 -15q14 -10 14 -20q0 -23 -18 -23h-212v-168h87l73 72l102 -77q17 -12 17 -26q0 -25 -27 -25h-509q1 -3 1 -6q0 -23 -53 -23q-42 0 -42 33v732l121 -64h293l69 72
l103 -77q17 -13 17 -26q0 -26 -27 -26h-225v-153h83zM1207 1550h-359v-125h359v125zM1012 1199v168h-164v-168h164zM848 1605h164v153h-164v-153zM1063 408h-119v-45q0 -30 -52 -30q-54 0 -54 43q0 5 4 49q6 95 6 104v550l122 -62h683l61 73l72 -49q43 -29 43 -44
q0 -21 -72 -68v-411q0 -41 7 -104q3 -29 3 -45q0 -48 -68 -48q-38 0 -38 25v62h-559l75 -37q38 -19 38 -36q0 -29 -47 -29h-39q-131 -112 -190 -151q-86 -59 -221 -119l-16 32q207 117 361 340zM944 834h717v127h-717v-127zM1661 776h-717v-128h717v128zM1661 592h-717v-126
h717v126zM1695 1332q116 -121 262 -173l-5 -36q-18 2 -31 2q-52 0 -83 -51q-125 99 -201 184q-141 -142 -292 -208l-19 29q171 119 268 242q-67 111 -99 204q-17 48 -68 232q-13 -4 -20 -4l-32 79q76 -14 178 -14h208l60 58l76 -58q35 -27 35 -45q0 -24 -82 -59
q-74 -251 -155 -382zM1642 1396q67 124 120 364h-278q57 -218 158 -364zM1462 347q441 -130 441 -236q0 -57 -55 -57q-24 0 -62 37q-53 51 -171 124q-102 62 -171 95zM512 1598l68 77l84 -55q40 -26 40 -48q0 -27 -79 -63v-864l39 -34q16 -14 16 -26q0 -24 -16 -24h-405v-79
q0 -54 -57 -54q-54 0 -54 45q0 18 4 50q11 96 11 209v777q0 105 -16 177l122 -88h243zM259 617h271v928h-271v-928z" />
  </g>

</svg>
