<?xml version="1.0" standalone="no"?>
<!DOCTYPE svg PUBLIC "-//W3C//DTD SVG 1.1//EN" "http://www.w3.org/Graphics/SVG/1.1/DTD/svg11.dtd" >
<svg xmlns="http://www.w3.org/2000/svg" xmlns:xlink="http://www.w3.org/1999/xlink" version="1.1" viewBox="0 -410 2048 2048">
  <g transform="matrix(1 0 0 -1 0 1638)">
   <path fill="currentColor"
d="M1484 1172q-64 -98 -166 -217l-28 22q125 200 197 476l129 -48q31 -12 31 -31q0 -23 -31 -28l-50 -7q-22 -50 -55 -114h223l88 84l122 -87q17 -12 17 -27q0 -23 -25 -23h-452zM1038 771h74l88 87l96 -83q23 -20 23 -36q0 -19 -32 -19h-520q-20 -18 -64 -18q-23 0 -23 25
v751l118 -59h298l84 81l100 -84q21 -18 21 -29q0 -22 -21 -22h-242v-161h74l56 61l73 -45q36 -22 36 -46q0 -18 -39 -35l-23 -10v-114l26 -19q28 -19 28 -34q0 -20 -37 -20h-194v-171zM944 771v171h-170v-171h170zM944 1365h-170v-161h170v161zM774 996h346v153h-346v-153z
M760 170v465l118 -64h764l59 67l70 -50q37 -26 37 -47q0 -25 -60 -50v-321h36l84 88l103 -91q18 -16 18 -27q0 -23 -22 -23h-1207l-109 -2q-49 0 -83 -7l-42 88q27 -8 71 -14q90 -12 105 -12h58zM1058 170v343h-204v-343h204zM1154 170h198v343h-198v-343zM1448 170h202v343
h-202v-343zM1385 877q88 -22 191 -22h116l87 84l115 -88q20 -15 20 -26q0 -24 -27 -24h-289q-20 0 -83 -4q-29 -1 -87 -4zM1535 1893l96 -19q70 -14 70 -35q0 -26 -47 -37l-29 -6l-12 -79h132l85 85l99 -85q24 -21 24 -35q0 -22 -24 -22h-326l-24 -115q-7 -36 -18 -43
q-15 -9 -46 -9q-42 0 -42 23v3l30 141h-41q-14 0 -72 -4q-21 -1 -62 -3l-40 88q92 -24 181 -24h46l7 54q13 80 13 122zM617 1741q92 -24 200 -24h75l-25 184l100 -10q52 -2 61 -9q10 -7 10 -20q0 -21 -35 -38l-31 -15l13 -92h60l78 80l103 -85q20 -16 20 -31q0 -21 -25 -21
h-226l18 -115q1 -4 1 -11q0 -11 -4 -16q-21 -25 -66 -25q-19 0 -21 18l-20 149h-80q-15 0 -166 -7zM432 1636l69 76l83 -54q40 -26 40 -48q0 -28 -73 -60v-867l44 -35q14 -10 14 -27q0 -22 -20 -22h-352v-102q0 -26 -38 -26q-65 0 -65 63q0 42 9 139v76v774q0 23 -4 97
q-1 27 -3 80l111 -64h185zM237 656h218v922h-218v-922z" />
  </g>

</svg>
