<?xml version="1.0" standalone="no"?>
<!DOCTYPE svg PUBLIC "-//W3C//DTD SVG 1.1//EN" "http://www.w3.org/Graphics/SVG/1.1/DTD/svg11.dtd" >
<svg xmlns="http://www.w3.org/2000/svg" xmlns:xlink="http://www.w3.org/1999/xlink" version="1.1" viewBox="0 -410 2048 2048">
  <g transform="matrix(1 0 0 -1 0 1638)">
   <path fill="currentColor"
d="M1652 956q81 186 136 445l141 -60q43 -19 43 -39q0 -24 -36 -28l-66 -9q-74 -215 -137 -326q-31 -56 -65 -110q39 -243 115 -407q67 -146 100 -146q10 0 18 19q7 14 38 156l22 99l15 71l26 -11q-4 -62 -20 -213q-6 -55 -6 -115q0 -82 19 -137q8 -23 8 -36q0 -29 -34 -29
q-54 0 -149 100q-148 157 -225 547q-48 -55 -144 -142l-31 36q92 87 159 195l-3 22q-40 268 -45 741v24h-684v-154q115 -17 186 -17h260l80 81l114 -86q17 -13 17 -26q0 -26 -27 -26h-444q-70 0 -149 -11l-37 81v-188q0 -368 -48 -597q-48 -225 -231 -436l-31 29
q144 190 185 457q28 188 28 553q0 375 -9 468l109 -71h681v84q0 120 -8 160l109 -24q86 -19 86 -45q0 -29 -50 -42l-43 -11v-63v-59h154l80 80l114 -85q17 -13 17 -26q0 -26 -42 -26h-323q0 -394 27 -647zM1018 1188h278l68 76l68 -47q46 -32 46 -54q0 -30 -72 -63v-204
l52 -34q22 -14 22 -34q0 -19 -18 -19h-444v-38q0 -29 -44 -29q-54 0 -54 32l1 26l-1 37l7 118v149q0 49 -5 160zM1018 865h298v265h-298v-265zM956 671l110 -24q86 -19 86 -45q0 -29 -50 -43l-42 -11v-267q0 -64 31 -76q33 -13 158 -13q66 0 91 44q18 32 43 248l34 -7
l-4 -184q-1 -24 6 -42q5 -15 45 -52q13 -12 13 -28q0 -71 -260 -71q-151 0 -193 18q-60 26 -60 112v281q0 118 -8 160zM859 567h34q1 -25 1 -38q0 -148 -29 -225q-47 -123 -129 -123q-54 0 -54 49q0 27 45 57q80 54 110 147q17 53 22 133zM1162 731q174 -122 174 -200
q0 -30 -20 -49q-14 -13 -32 -13q-34 0 -44 48q-20 95 -102 192zM1468 555q177 -150 177 -248q0 -30 -21 -53q-15 -17 -31 -17q-31 0 -43 81q-15 98 -109 215zM1705 1918q97 -32 124 -51q45 -29 45 -65q0 -46 -41 -46q-26 0 -41 35q-22 53 -101 98zM304 1879l109 -24
q86 -19 86 -44q0 -29 -50 -43l-43 -11v-443h69l98 101l121 -105q17 -14 17 -27q0 -27 -28 -27h-277v-636q135 48 288 118l21 -39q-157 -103 -263 -160q-49 -26 -262 -121l-10 -53q-6 -30 -22 -30q-21 0 -44 49l-58 121q95 19 256 78v673h-81q-63 0 -149 -11l-39 86
q123 -17 188 -17h81v406q0 117 -8 159z" />
  </g>

</svg>
