<?xml version="1.0" standalone="no"?>
<!DOCTYPE svg PUBLIC "-//W3C//DTD SVG 1.1//EN" "http://www.w3.org/Graphics/SVG/1.1/DTD/svg11.dtd" >
<svg xmlns="http://www.w3.org/2000/svg" xmlns:xlink="http://www.w3.org/1999/xlink" version="1.1" viewBox="0 -204 1024 1024">
  <g transform="matrix(1 0 0 -1 0 820)">
   <path fill="currentColor"
d="M864 896q-75 -15 -156 -26v-110h152l44 49q36 -27 68 -52q8 -5 8 -11q0 -14 -15 -14h-257v-15q60 -25 106 -49q53 -26 81 -44q30 -18 44 -30q11 -11 17 -22q6 -9 6 -20q-1 -30 -22 -30q-11 0 -20 5q-10 5 -44 43t-76 68q-35 26 -92 57v-154q0 -19 1 -24q2 -5 2 -34
q0 -5 -2 -7h71v2l38 32q29 -26 50 -49q5 -6 5 -12q0 -12 -16 -20q-17 -6 -33 -9q-9 -48 -22 -98h80l37 33q35 -21 54 -39q8 -10 8 -14q0 -12 -38 -27q-7 -63 -21 -106q-16 -46 -31 -67q-16 -19 -34 -27q-21 -11 -44 -18q-21 -5 -33 -5q0 19 -7 30q-9 14 -97 49l5 21
q81 -33 108 -33q15 0 28 3q10 1 18 8q11 7 24 25q12 17 21 51q10 33 15 88h-114q-7 -2 -13 -2q-26 0 -26 13q0 2 1 7q3 6 5 12q22 67 35 124h-182q-7 -58 -19 -103q-12 -51 -37 -90q-22 -47 -52 -81q-29 -36 -72 -65q-46 -31 -109 -57l-16 20q66 33 103 65q38 32 64 65
q23 32 42 67q17 36 29 85q9 38 15 94q-75 0 -91 -7l-18 43q40 -8 115 -8h106v2q0 16 1 25q2 4 2 38v185q-26 -42 -55 -71q-40 -41 -85 -76q-44 -32 -115 -65l-13 18q61 37 98 67q32 27 61 62q26 31 49 71h-55q-71 -2 -97 -7l-20 47q44 -12 117 -12h115v105l-19 -2
q-85 -11 -188 -15l-9 20q141 15 265 45q81 21 120 47q53 -27 83 -49q8 -5 8 -11q0 -12 -15 -14q-5 0 -18 5q-9 5 -27 5zM203 972q56 -20 98 -38q6 -8 6 -14q0 -12 -20 -17q-24 -4 -35 -4q-14 -98 -33 -187q-1 -7 -2 -11q58 6 107 13q2 31 2 58q0 22 -2 40q48 -7 84 -19
q12 -3 12 -13q0 -7 -17 -16q-18 -9 -28 -12q-7 -122 -28 -216q-23 -107 -56 -189q23 -19 39 -38q35 -36 48 -57q11 -14 15 -33q4 -17 4 -35q0 -24 -21 -24q-6 0 -22 27q-14 27 -59 83q-13 16 -25 29q-36 -73 -69 -122q-49 -71 -123 -133l-18 25q77 72 121 145q31 50 58 118
q-18 17 -33 29q-45 42 -98 63l6 8l-2 1q22 76 37 143q7 34 13 70l-54 -12q-15 -37 -22 -37q-3 0 -7 7q-24 40 -43 87q69 0 135 6q1 6 2 10q11 72 19 134q7 59 11 131zM255 376q32 89 53 204q10 57 14 109q-42 -15 -86 -25q-15 -4 -29 -7q-12 -55 -25 -99q-17 -57 -40 -116
q56 -22 100 -57z" />
  </g>

</svg>
