<?xml version="1.0" standalone="no"?>
<!DOCTYPE svg PUBLIC "-//W3C//DTD SVG 1.1//EN" "http://www.w3.org/Graphics/SVG/1.1/DTD/svg11.dtd" >
<svg xmlns="http://www.w3.org/2000/svg" xmlns:xlink="http://www.w3.org/1999/xlink" version="1.1" viewBox="0 -410 2048 2048">
  <g transform="matrix(1 0 0 -1 0 1638)">
   <path fill="currentColor"
d="M1479 1128l108 -24q83 -18 83 -45q0 -29 -48 -42l-41 -11v-261h150l95 102l118 -107q16 -15 16 -26q0 -26 -26 -26h-353v-452q112 -30 279 -30q39 0 132 6l4 -34q-58 -14 -79 -31q-22 -18 -30 -64q-231 12 -340 54q-129 49 -207 172q-38 59 -87 178q-31 -140 -83 -231
q-49 -87 -157 -191l-28 29q125 158 167 330q35 140 35 457q0 48 -4 118l140 -26q32 -6 32 -27q0 -22 -32 -35l-34 -13q-7 -68 -12 -171q-3 -62 -9 -137q42 -103 91 -184q50 -81 127 -134v696q0 124 -7 160zM1739 1583q80 -62 127 -116q110 -126 110 -217q0 -60 -50 -60
q-40 0 -61 88q-32 133 -142 259q-9 -20 -24 -60q-56 -144 -205 -324l-35 25q191 271 245 733l146 -38q28 -7 28 -28q0 -20 -44 -30l-37 -7q-8 -31 -28 -119q-11 -46 -30 -106zM978 1906l133 -59q28 -13 28 -30q0 -22 -41 -28l-47 -8q-73 -150 -115 -214q-60 -90 -154 -184
l-26 26q165 236 222 497zM1357 1619q90 -76 124 -117q42 -52 42 -99q0 -57 -43 -57q-32 0 -48 62q-18 73 -92 157q-80 -236 -227 -413l-36 23q135 236 188 448q43 175 48 284l132 -38q38 -11 38 -33q0 -20 -30 -28l-45 -13q-24 -95 -51 -176zM477 541q144 -114 144 -194
q0 -29 -20 -48q-13 -13 -30 -13q-32 0 -70 74q-21 42 -64 88q-173 -276 -342 -406l-26 27q181 188 299 447q-96 102 -259 172q84 288 118 558l-46 -5q-5 -71 -35 -71q-24 0 -51 64l-42 99q96 3 186 8q36 185 61 570l125 -31q69 -17 69 -49q0 -26 -54 -35l-45 -7
q-5 -48 -8 -72q-12 -132 -49 -373q98 4 199 10q0 56 -4 139l146 -29q45 -9 45 -33q0 -22 -35 -33l-49 -15l-6 -23l114 7l8 -42q-59 -12 -122 -26q-28 -459 -157 -758zM403 600q61 170 89 328q25 135 40 359q-101 -11 -206 -26q-54 -257 -151 -541q100 -41 228 -120z
M971 1469l133 -55q28 -12 28 -31q0 -20 -37 -26l-45 -8q-52 -126 -136 -287l52 -21q29 -12 29 -36q0 -22 -33 -36l-30 -13v-593q0 -108 11 -209q3 -33 3 -51q0 -45 -54 -45t-54 42v846q-121 -142 -170 -191l-34 33q241 295 337 681z" />
  </g>

</svg>
