<?xml version="1.0" standalone="no"?>
<!DOCTYPE svg PUBLIC "-//W3C//DTD SVG 1.1//EN" "http://www.w3.org/Graphics/SVG/1.1/DTD/svg11.dtd" >
<svg xmlns="http://www.w3.org/2000/svg" xmlns:xlink="http://www.w3.org/1999/xlink" version="1.1" viewBox="0 -120 1000 1000">
  <g transform="matrix(1 0 0 -1 0 880)">
   <path fill="currentColor"
d="M402 908l78 -71q8 -8 8 -14q0 -8 -16 -8l-27 -1l-163 -120l15 -4q11 -3 11 -12t-11 -14l-16 -7v-143l129 46l4 -20l-133 -74v-344q0 -33 -39 -59q-29 -19 -54 -19q-7 0 -9 3t-3 23q0 14 -3 18.5t-12 6.5l-76 15v16h129v303l-101 -57l-2 -16q-2 -15 -12 -15q-8 0 -14 10
l-46 76l175 63v222l39 -10l125 139h-308l-12 27h320zM621 943l89 -31q16 -5 16 -12q0 -8 -16 -12l-29 -7q52 -86 111 -134q57 -45 169 -90l-3 -20q-51 -7 -72 -46q-65 42 -91 67q-53 50 -89 115q-17 29 -42 87q-65 -114 -133 -180q-54 -52 -149 -104l-9 14q84 62 147 150
q59 82 101 203zM496 607l80 -9q14 -2 14 -10q0 -9 -13 -15l-19 -9v-114q0 -191 -68 -291q-47 -69 -142 -115l-9 16q80 58 112 129q45 99 45 261v157zM726 607l84 -12q14 -2 14 -12q0 -9 -13 -13l-22 -6v-512l-63 -8v563z" />
  </g>

</svg>
