<?xml version="1.0" standalone="no"?>
<!DOCTYPE svg PUBLIC "-//W3C//DTD SVG 1.1//EN" "http://www.w3.org/Graphics/SVG/1.1/DTD/svg11.dtd" >
<svg xmlns="http://www.w3.org/2000/svg" xmlns:xlink="http://www.w3.org/1999/xlink" version="1.1" viewBox="0 -140 998 1000">
  <g transform="matrix(1 0 0 -1 0 860)">
   <path fill="currentColor"
d="M142 596v22h325v92l-5 55l63 -15q38 -9 38 -19q0 -13 -41 -28l6 1v-86h184q34 34 46 34q10 0 26 -14l32 -30q23 -23 23 -29q0 -11 -40 -15q-11 0 -24 -4h5q-109 -105 -226 -174.5t-276 -123.5q79 -126 201 -150q33 -5 95 -5h30q154 0 349 38l4 -15q-39 -14 -39 -45
q0 -6 1 -8q0 -6 -13 -9l-16 -1q-17 -1 -36.5 -2.5t-23.5 -1.5l-66 -3l-48 -1q-159 0 -239.5 14.5t-130.5 53t-101 124.5l-99 -129q0 -4 1 -7q0 -13 -1 -18.5t-5.5 -10.5t-14.5 -5q-12 0 -27 13.5t-24 26.5t-9 15q0 4 30 30q42 35 110 109q2 2 24 28q17 20 27 20t17 -8
q12 -11 12 -12q0 -3 -11 -12h1q-1 -1 -1 -2q137 48 243.5 121t199.5 186h-576zM842 817l17 17h-1q10 12 21 12q13 0 17 -6h-1l12 -11l27 -30q16 -15 16 -19q0 -15 -45 -15l-85 -100l-20 21l47 110h-676q-6 -87 -43 -125q-19 -22 -35 -22q-28 0 -28 33q0 19 6 30t30 35
q22 22 26.5 40t4.5 70h31q6 -18 6 -40h298v81l-5 54l66 -15q33 -7 33 -20t-40 -23l7 1v-78h314z" />
  </g>

</svg>
