<?xml version="1.0" standalone="no"?>
<!DOCTYPE svg PUBLIC "-//W3C//DTD SVG 1.1//EN" "http://www.w3.org/Graphics/SVG/1.1/DTD/svg11.dtd" >
<svg xmlns="http://www.w3.org/2000/svg" xmlns:xlink="http://www.w3.org/1999/xlink" version="1.1" viewBox="0 -140 1000 1000">
  <g transform="matrix(1 0 0 -1 0 860)">
   <path fill="currentColor"
d="M510 332l48 -27q27 -15 27 -27q0 -13 -41 -18q-58 -82 -149 -155l-14 13q77 83 129 214zM746 294l14 17q69 -36 113 -79t44 -74q0 -39 -28 -39q-20 0 -31 26q-30 76 -112 149zM634 744v-144h72v144h-72zM502 744v-144h72v144h-72zM766 744v-144h72v144h-72zM634 867v-101
h72v101h-72zM502 578v-17q0 -9 -17 -17t-32 -8t-15 13v198l-2 48l64 -29h74v101h-161v22h425l21 30q13 19 19 19q4 0 24 -18l42 -38l-9 -15h-169v-101h64q31 40 36 40q7 0 23 -16l23 -23q16 -16 16 -24q0 -11 -26 -19v-129q0 -4 1 -9v-23q0 -8 -17.5 -17t-30.5 -9
q-12 0 -14.5 8t-2.5 33h-336zM777 487l19 27q12 17 20 17t25 -16l37 -34l-7 -16h-407v22h313zM638 363h-224v22h423l19 27q12 17 20 17t25 -16l37 -34l-7 -16h-229v-217q0 -42 -5.5 -52.5t-35.5 -24.5q-34 -17 -49 -17q-16 0 -16 15l1 20v-4q-2 11 -12 14l-78 23l3 13l87 -9
q7 -1 16 -1q16 0 20.5 9t4.5 37v194zM328 266v21h-174v-45q0 -15 -4.5 -19t-25.5 -9q-15 -4 -24 -4q-11 0 -11 15l1 39l-3 476l60 -8q38 -5 38 -20q0 -14 -31 -30v-373h55l-4 637l54 -6q45 -4 45 -21q0 -14 -31 -29v-581h55v379l-4 52l58 -8q40 -4 40 -20q0 -12 -30 -26
v-406q0 -3 1 -15.5t1 -14.5q0 -10 -20 -16t-32 -6q-16 0 -16 14q0 2 1 12.5t1 11.5z" />
  </g>

</svg>
