<?xml version="1.0" standalone="no"?>
<!DOCTYPE svg PUBLIC "-//W3C//DTD SVG 1.1//EN" "http://www.w3.org/Graphics/SVG/1.1/DTD/svg11.dtd" >
<svg xmlns="http://www.w3.org/2000/svg" xmlns:xlink="http://www.w3.org/1999/xlink" version="1.1" viewBox="0 -410 2048 2048">
  <g transform="matrix(1 0 0 -1 0 1638)">
   <path fill="currentColor"
d="M253 467h133v1203q0 119 -8 160l109 -24q86 -18 86 -44q0 -30 -50 -43l-42 -11v-1241h149v913q0 117 -8 158l109 -22q86 -18 86 -45q0 -29 -50 -42l-42 -11v-786q0 -21 2 -64q2 -47 3 -74q1 -31 2 -43q2 -44 2 -63q0 -60 -59 -60q-45 0 -45 51v32h-377q-22 -14 -45 -14
q-21 0 -37 8q-13 7 -13 42v928q0 118 -8 160l109 -24q86 -19 86 -45q0 -30 -50 -43l-42 -11v-945zM1191 877h-76q-57 0 -149 -11l-39 86q27 -4 40 -5q86 -12 148 -12h370l80 81l114 -86q18 -13 18 -27q0 -26 -28 -26h-319l-93 -68q89 -87 155 -191q207 85 331 196l87 -68
q33 -25 33 -44q0 -21 -36 -21q-18 0 -61 8q-146 -61 -325 -108q88 -96 242 -188q146 -88 311 -130l-3 -34q-44 0 -62 -5q-37 -10 -69 -61q-252 137 -401 323q13 -120 13 -193q0 -160 -84 -226q-54 -44 -167 -56q1 58 -20 75t-147 63l8 38q162 -45 223 -45q51 0 73 49
q17 38 17 149q0 39 -12 115q-181 -152 -349 -217q-110 -43 -238 -75l-14 40q185 68 299 138q136 86 274 220q-17 45 -41 80q-122 -112 -266 -177q-87 -40 -246 -78l-11 40q166 57 262 121q112 74 214 177l-43 53q-200 -105 -412 -141l-10 41q245 72 409 200zM909 1142h890
l55 65l79 -56q53 -37 53 -58q0 -24 -47 -31l-48 -7q-40 -49 -127 -132l-31 20q26 50 66 143h-890q-11 -97 -26 -134q-32 -78 -95 -78q-51 0 -51 49q0 24 46 68q73 68 90 239h36v-88zM957 1603l122 -64h515l68 76l85 -54q39 -25 39 -49q0 -28 -77 -60v-100l38 -31
q15 -12 15 -25q0 -23 -30 -23h-677v-25q0 -29 -70 -29q-28 0 -28 24v360zM1055 1485v-156h559v156h-559zM1194 1944q116 -57 153 -88q41 -35 41 -73q0 -29 -30 -56h354l99 102l121 -107q18 -16 18 -26q0 -26 -29 -26h-910q-118 0 -192 -8l-37 88q97 -23 229 -23h299
q-11 15 -24 50q-24 60 -114 136z" />
  </g>

</svg>
