<?xml version="1.0" standalone="no"?>
<!DOCTYPE svg PUBLIC "-//W3C//DTD SVG 1.1//EN" "http://www.w3.org/Graphics/SVG/1.1/DTD/svg11.dtd" >
<svg xmlns="http://www.w3.org/2000/svg" xmlns:xlink="http://www.w3.org/1999/xlink" version="1.1" viewBox="0 -410 2048 2048">
  <g transform="matrix(1 0 0 -1 0 1638)">
   <path fill="currentColor"
d="M766 421q-185 -87 -565 -187l-6 -52q-4 -27 -22 -27t-31 30l-59 137l24 3q77 73 227 296q122 182 199 355q-41 -12 -341 -86l-6 -40q-5 -31 -24 -31t-32 28l-64 132q72 41 173 259q169 365 211 655l158 -54q31 -11 31 -34q0 -24 -46 -31l-53 -8q-146 -487 -381 -777
q189 14 402 53q77 190 123 370l138 -64q38 -17 38 -35q0 -26 -31 -29l-69 -6q-25 -63 -36 -94q-192 -505 -523 -845q298 48 548 135q-47 123 -122 232l35 31q244 -278 244 -451q0 -72 -54 -72q-31 0 -49 72q-18 76 -37 135zM1144 1206l130 -46q32 -11 32 -29q0 -25 -45 -32
l-44 -6q-29 -43 -58 -87h618l76 87l95 -76q29 -23 29 -40q0 -18 -82 -62q-26 -394 -51 -581q-25 -189 -125 -240q-58 -31 -142 -32q1 9 1 16q0 49 -77 79q-31 12 -158 52l12 42q43 -10 65 -16q164 -42 219 -42t82 53q28 54 52 351q23 275 23 351h-674q-118 -135 -283 -227
l-21 32q124 102 189 194q75 106 126 259h-64v-44q0 -36 -49 -36q-63 0 -59 54l4 62l4 80l4 76v339q0 85 -13 176l118 -90h598l68 76l83 -54q40 -26 40 -49q0 -27 -77 -61v-326q0 -57 11 -223q1 -8 1 -13q0 -46 -70 -46q-36 0 -36 26v53h-552zM1696 1535v231h-627v-231h627z
M1696 1479h-627v-217h627v217zM1397 753q283 -129 283 -225q0 -47 -46 -47q-26 0 -51 37q-70 105 -207 198q-89 -142 -257 -242l-25 34q119 100 184 222q39 72 76 191l128 -38q37 -11 37 -30q0 -24 -88 -38q-18 -34 -34 -62zM958 739l111 -28q64 -16 64 -40q0 -18 -41 -36
l-30 -14v-134q0 -51 12 -67q31 -38 197 -38q210 0 302 27q33 10 41 10q25 0 45 -20q19 -18 19 -40q0 -66 -318 -66q-186 0 -279 18q-114 22 -114 123v146q0 75 -9 159z" />
  </g>

</svg>
