<?xml version="1.0" standalone="no"?>
<!DOCTYPE svg PUBLIC "-//W3C//DTD SVG 1.1//EN" "http://www.w3.org/Graphics/SVG/1.1/DTD/svg11.dtd" >
<svg xmlns="http://www.w3.org/2000/svg" xmlns:xlink="http://www.w3.org/1999/xlink" version="1.1" viewBox="0 -410 2048 2048">
  <g transform="matrix(1 0 0 -1 0 1638)">
   <path fill="currentColor"
d="M1039 1341q-3 11 -7 31q-3 21 -5 40l-17 129q-4 22 -6 30l-7 23l111 -10q52 -5 70 -12q17 -7 20 -21q2 -14 -10 -27q-12 -12 -34 -22l-36 -16q9 -89 14 -123l3 -22h518l69 76l84 -54q20 -13 30 -25q10 -11 10 -24q-1 -14 -12 -26q-10 -11 -30 -19l-36 -16v-360
q0 -23 3 -75q3 -51 5 -92q1 -41 2 -56q2 -15 1 -20q-3 -13 -17 -26q-15 -12 -45 -13q-18 -2 -28 3q-10 4 -12 10l-3 12l-19 42h-368q5 -14 13 -36q9 -21 44 -92q34 -72 58 -104l17 -24q12 7 42 26t69 49q40 30 76 64l43 40l114 -87q11 -9 19 -18t8 -22q-1 -13 -14 -18
q-12 -5 -50 2l-51 8q-67 -45 -103 -67q-35 -22 -69 -39l-20 -11q10 -11 21 -21q12 -10 56 -44q44 -35 84 -57l84 -42q50 -26 72 -19q21 6 32 27l10 33l59 189l36 -8l-23 -176q-4 -28 2 -58q5 -30 19 -48l26 -32q7 -11 8 -26t-13 -29q-14 -13 -56 -9q-43 3 -82 12t-100 37
q-61 27 -124 66q-62 38 -111 78t-73 67l-15 16q-14 -7 -41 -19q-28 -12 -98 -40q-70 -29 -184 -64q-115 -35 -244 -62q-128 -26 -260 -45l-99 -15l-11 41q73 15 152 33t194 48q116 30 222 66q107 36 170 64l113 51l27 13q-13 17 -32 47t-54 105q-36 75 -57 130l-8 20h-536
v-36q0 -17 -5 -24q-5 -6 -18 -10q-14 -4 -30 -3q-21 0 -32 7q-12 7 -18 20q-5 12 -6 26q0 15 5 64l4 80q4 70 4 76v377q0 12 -4 71q-4 58 -4 61l-6 44l119 -90h381zM1266 734h408v256h-480l6 -29q3 -14 23 -92t35 -114zM1164 734q-5 13 -12 33q-6 20 -22 76t-28 125l-4 22
h-449v-256h515zM1182 1050h492v234h-531q1 -12 3 -29t16 -98q13 -81 15 -86zM1086 1050q-3 13 -9 44q-6 32 -11 68l-9 61l-10 61h-398v-234h437zM973 1948l77 -38q34 -17 58 -34q25 -18 42 -40q17 -23 16 -52q-2 -32 -15 -38l-22 -14h605l96 110l127 -96q16 -13 23 -25
q8 -12 7 -24q-2 -14 -10 -19t-17 -5h-1616l-1 -656q-1 -49 -3 -96l-11 -141l-9 -150q-7 -74 -25 -158q-18 -83 -46 -152q-28 -70 -63 -126t-65 -96l-36 -48l-29 26l38 67q20 35 42 82q21 47 38 109q18 61 31 136t19 126q5 52 12 160l9 160q3 52 3 127v517q0 61 -4 141
l-5 102l110 -71h733q-15 34 -23 50t-27 48q-18 31 -46 57l-35 32zM1323 1613l93 -26q39 -11 78 -25q40 -14 71 -30q31 -17 52 -42q21 -26 12 -58q-9 -33 -32 -39t-46 11q-11 7 -29 30q-19 24 -34 38q-16 15 -41 32t-51 32l-48 28l-38 19z" />
  </g>

</svg>
