<?xml version="1.0" standalone="no"?>
<!DOCTYPE svg PUBLIC "-//W3C//DTD SVG 1.1//EN" "http://www.w3.org/Graphics/SVG/1.1/DTD/svg11.dtd" >
<svg xmlns="http://www.w3.org/2000/svg" xmlns:xlink="http://www.w3.org/1999/xlink" version="1.1" viewBox="0 -410 2048 2048">
  <g transform="matrix(1 0 0 -1 0 1638)">
   <path fill="currentColor"
d="M1316 1895l109 -24q86 -19 86 -45q0 -25 -51 -42l-40 -14v-487h231l98 101l121 -106q17 -16 17 -26q0 -25 -28 -25h-439v-665h292l98 102l121 -107q17 -15 17 -26q0 -26 -27 -26h-1017q-113 0 -192 -8l-38 87q98 -22 230 -22h38v780q0 116 -7 160l116 -25q71 -15 71 -45
q0 -25 -45 -39l-38 -11v-820h285v1173q0 116 -8 160zM520 1789l68 76l91 -76q25 -21 25 -41q0 -14 -21 -28q-26 -18 -68 -22q-131 -301 -282 -553h237l66 84l87 -58q37 -25 37 -47q0 -26 -73 -59q-41 -269 -102 -431q-38 -103 -115 -231q86 -90 256 -144q173 -56 539 -66
l143 -4q341 0 586 47l5 -38q-48 -12 -70 -31q-23 -21 -26 -72q-144 0 -248 -3q-142 -5 -175 -5q-258 0 -472 18q-379 31 -583 226q-124 -159 -314 -288l-28 33q165 135 280 316q-115 140 -210 410l38 20q15 -38 94 -188q56 -106 123 -171q129 213 184 625h-283
q-28 -8 -45 -8q-58 0 -58 28q0 10 10 25q149 229 304 597h-201q-118 0 -192 -8l-39 88q96 -21 231 -21h201z" />
  </g>

</svg>
