<?xml version="1.0" standalone="no"?>
<!DOCTYPE svg PUBLIC "-//W3C//DTD SVG 1.1//EN" "http://www.w3.org/Graphics/SVG/1.1/DTD/svg11.dtd" >
<svg xmlns="http://www.w3.org/2000/svg" xmlns:xlink="http://www.w3.org/1999/xlink" version="1.1" viewBox="0 -410 2048 2048">
  <g transform="matrix(1 0 0 -1 0 1638)">
   <path fill="currentColor"
d="M1377 1202h275l108 114l131 -114q23 -20 23 -32q0 -25 -27 -25h-510v-183q0 -102 13 -219q3 -31 3 -50q0 -46 -56 -46t-56 41v457h-525q-69 -189 -248 -294q-135 -79 -395 -163l-18 42q469 158 559 415h-294q-116 0 -192 -8l-38 88q96 -23 230 -23h307q10 56 15 185v161
h-246q-117 0 -192 -8l-38 88q91 -22 230 -22h1137l107 113l131 -113q23 -20 23 -33q0 -25 -27 -25h-430v-346zM1281 1202v346h-501v-161q-2 -130 -11 -185h512zM1609 615q153 -108 215 -169q111 -108 111 -187q0 -76 -59 -76q-51 0 -73 78q-49 176 -221 326zM323 581l41 -7
q-5 -43 -7 -65q-23 -208 -86 -297q-64 -92 -142 -92q-57 0 -57 48q0 35 70 78q92 57 137 164q22 53 44 171zM1476 1808q-86 -98 -237 -185l-23 29q121 110 209 273l110 -61q27 -16 27 -32q0 -27 -29 -27q-1 0 -12 1zM544 1926q253 -125 253 -230q0 -25 -14 -43
q-16 -19 -37 -19q-35 0 -55 57q-25 70 -71 122q-25 27 -97 87zM873 726q338 -133 338 -260q0 -25 -15 -45q-16 -23 -42 -23q-39 0 -74 73q-37 78 -113 148q-23 21 -110 79zM1437 522l42 -7q-5 -83 -5 -125q0 -93 18 -125q4 -7 47 -38q19 -13 19 -30q0 -48 -100 -76
q-82 -23 -315 -31l-128 -4q-302 19 -340 35q-72 29 -72 118v276q0 117 -8 159l110 -24q85 -18 85 -45q0 -29 -49 -42l-42 -11v-260q0 -69 57 -87q58 -18 280 -18q202 0 281 16q65 14 86 96q12 44 34 223z" />
  </g>

</svg>
