<?xml version="1.0" standalone="no"?>
<!DOCTYPE svg PUBLIC "-//W3C//DTD SVG 1.1//EN" "http://www.w3.org/Graphics/SVG/1.1/DTD/svg11.dtd" >
<svg xmlns="http://www.w3.org/2000/svg" xmlns:xlink="http://www.w3.org/1999/xlink" version="1.1" viewBox="0 -410 2048 2048">
  <g transform="matrix(1 0 0 -1 0 1638)">
   <path fill="currentColor"
d="M1397 385q251 -155 575 -231l-7 -34q-46 -2 -68 -10q-34 -12 -59 -63q-270 98 -506 283q-225 -174 -668 -291l-16 41q467 159 621 305q-140 128 -231 275q-49 80 -112 212q-40 -5 -75 -9l-34 82q78 -16 226 -16h541l80 70l107 -91q22 -19 22 -37t-45 -27l-55 -12
q-130 -288 -296 -447zM985 872q10 -18 23 -44q116 -228 320 -390q175 178 269 434h-612zM847 1182q-37 -238 -146 -238q-51 0 -51 49q0 33 46 71q48 37 74 91q33 66 38 194h39l3 -113h964l68 70l98 -79q23 -19 23 -37q0 -22 -33 -29l-51 -10q-77 -103 -145 -180l-35 20
q37 81 79 191h-971zM1664 1785q-255 -69 -417 -90q-170 -23 -431 -36l-3 40q609 61 834 222l98 -102q13 -13 13 -26q0 -17 -20 -17q-7 0 -25 2zM847 1586q206 -127 206 -224q0 -27 -18 -44q-14 -13 -30 -13q-37 0 -59 76q-24 80 -121 180zM1764 1703l134 -68q26 -13 26 -29
q0 -22 -29 -24l-59 -5q-101 -143 -248 -270l-29 23q163 226 205 373zM1230 1620q195 -132 195 -223q0 -30 -21 -49q-14 -14 -33 -14q-37 0 -49 52q-23 104 -112 210zM460 1527q239 -133 239 -250q0 -35 -23 -55q-15 -14 -35 -14q-44 0 -65 88q-23 91 -116 170v-1142
q0 -96 12 -210q3 -31 3 -50q0 -46 -56 -46q-53 0 -53 44v1693q0 117 -8 160l109 -24q85 -19 85 -46q0 -29 -49 -42l-43 -11v-265zM213 1549l43 -4v-52v-24q0 -209 -39 -307q-45 -112 -119 -112q-47 0 -47 49q0 30 59 98q52 60 76 151q16 60 27 201z" />
  </g>

</svg>
