<?xml version="1.0" standalone="no"?>
<!DOCTYPE svg PUBLIC "-//W3C//DTD SVG 1.1//EN" "http://www.w3.org/Graphics/SVG/1.1/DTD/svg11.dtd" >
<svg xmlns="http://www.w3.org/2000/svg" xmlns:xlink="http://www.w3.org/1999/xlink" version="1.1" viewBox="0 -410 2048 2048">
  <g transform="matrix(1 0 0 -1 0 1638)">
   <path fill="currentColor"
d="M1476 1808q246 -413 519 -491v-33q-11 1 -17 1q-74 0 -119 -68q-153 121 -249 261q-77 111 -165 296q-4 -11 -11 -25q-103 -220 -229 -361q-88 -99 -227 -211l-20 24q179 195 265 337q88 146 162 393l143 -59q28 -12 28 -30q0 -21 -39 -28zM670 1391v-553
q0 -120 -142 -143q0 48 -17 67q-26 31 -117 50l6 42q91 -20 127 -20q46 0 46 61v424l-27 -47q-140 -242 -382 -377l-19 32q116 91 191 190q90 119 165 274h-194q-60 0 -149 -11l-39 85q122 -16 188 -16h306q-17 7 -54 60q-32 47 -63 72q-28 23 -108 74l16 31q97 -34 160 -64
q117 77 202 149h-332q-71 0 -148 -12l-39 86q122 -17 187 -17h339l76 60l80 -67q37 -31 37 -57q0 -23 -37 -25l-58 -4q-134 -80 -261 -139q74 -56 74 -109q0 -19 -20 -38h185l64 58l84 -63q38 -29 38 -50q0 -24 -31 -26l-53 -4q-72 -84 -144 -163l-34 23q40 83 76 167h-179z
M1229 1364q87 -25 179 -25h49l89 81l94 -81q20 -17 20 -33q0 -22 -26 -22h-226q-115 -5 -142 -8zM1093 1102q84 -16 219 -16h330l48 73l93 -65q31 -22 31 -40q0 -24 -82 -56q-130 -235 -287 -396l-24 22q130 191 214 405h-323q-108 -1 -190 -8zM1606 589q122 -80 183 -130
q138 -113 138 -210q0 -29 -18 -51q-17 -21 -40 -21q-45 0 -68 75q-38 118 -109 199q-35 39 -114 107zM934 686q103 -36 198 -94q131 -80 131 -168q0 -61 -54 -61q-43 0 -74 72q-33 78 -91 129q-44 39 -131 85zM306 587l39 -7q-15 -215 -65 -308q-68 -124 -164 -124
q-60 0 -60 46q0 30 71 75q94 59 139 152q16 34 40 166zM1469 494l42 -8l-6 -146v-6q0 -44 23 -71q6 -6 44 -30q19 -12 19 -32q0 -61 -137 -84q-95 -15 -273 -18q-108 -1 -128 -1q-224 0 -331 16q-144 21 -144 145v246q0 120 -8 159l110 -24q85 -18 85 -44q0 -30 -49 -43
l-42 -11v-256q0 -46 31 -63q58 -31 348 -31q219 0 280 12q50 10 73 37q25 29 38 105z" />
  </g>

</svg>
