<?xml version="1.0" standalone="no"?>
<!DOCTYPE svg PUBLIC "-//W3C//DTD SVG 1.1//EN" "http://www.w3.org/Graphics/SVG/1.1/DTD/svg11.dtd" >
<svg xmlns="http://www.w3.org/2000/svg" xmlns:xlink="http://www.w3.org/1999/xlink" version="1.1" viewBox="0 -410 2048 2048">
  <g transform="matrix(1 0 0 -1 0 1638)">
   <path fill="currentColor"
d="M1590 1191q16 -15 34 -33q130 -127 221 -260q103 -151 103 -243q0 -70 -55 -70q-43 0 -62 69q-67 246 -252 492q-52 -208 -147 -345q-94 -137 -254 -245l-25 43q176 152 257 325q83 175 104 399h-47q-4 0 -21 -2q-7 0 -27 -2q-24 -1 -51 -6l-34 82q119 -14 122 -14h64
q13 157 13 299q0 46 -4 203l139 -17q34 -4 34 -26q0 -23 -24 -33l-46 -19q-4 -282 -15 -407h120l99 101l120 -107q17 -14 17 -25q0 -27 -27 -27h-336q-6 -67 -20 -132zM736 554l-25 35q181 140 314 349q60 93 131 266q-15 -8 -29 -8q-22 0 -51 49q-37 61 -171 155
q-93 -139 -207 -222l-27 32q121 123 194 287q87 197 113 389l122 -30q45 -11 45 -32q0 -26 -37 -35l-48 -11q-15 -63 -52 -177h232l52 65l94 -65q16 -12 16 -28q0 -23 -23 -29l-39 -11q-61 -291 -137 -450q-157 -327 -467 -529zM1170 1245q46 144 69 304h-253
q-34 -74 -64 -122q12 -5 51 -21q96 -40 152 -81q40 -29 45 -80zM1048 1176l15 -27q-114 -112 -231 -195l-4 -32q-3 -29 -18 -29t-34 27l-61 85q183 73 333 171zM1702 1799q199 -131 199 -226q0 -55 -43 -55q-36 0 -59 76q-28 95 -123 178zM799 507h42q1 -39 1 -58
q0 -160 -35 -258q-23 -66 -69 -106q-38 -34 -77 -34q-56 0 -56 54q0 24 20 45q4 5 53 40q108 77 121 317zM1109 505q109 -224 109 -347q0 -83 -62 -83q-41 0 -41 62q0 14 1 44v24q0 89 -10 158q-4 27 -17 82q-6 24 -11 48zM1712 529q109 -98 179 -180q89 -105 89 -188
q0 -82 -62 -82q-49 0 -58 82q-18 165 -179 340zM1430 507q74 -100 116 -172q58 -102 58 -179q0 -80 -57 -80q-31 0 -39 28q-3 9 -6 48q-5 89 -36 186q-10 33 -63 146zM446 1552q59 -38 130 -108q75 -75 75 -154q0 -71 -50 -71q-45 0 -72 111q-19 83 -83 157v-1148
q0 -105 12 -209q3 -31 3 -50q0 -46 -57 -46q-54 0 -54 41v1687q0 114 -7 160l116 -21q79 -15 79 -49q0 -25 -49 -40l-43 -12v-248zM222 1550h42q4 -104 4 -148q0 -125 -24 -221q-35 -135 -119 -135q-48 0 -48 47q0 35 46 94q98 124 99 363z" />
  </g>

</svg>
