<?xml version="1.0" standalone="no"?>
<!DOCTYPE svg PUBLIC "-//W3C//DTD SVG 1.1//EN" "http://www.w3.org/Graphics/SVG/1.1/DTD/svg11.dtd" >
<svg xmlns="http://www.w3.org/2000/svg" xmlns:xlink="http://www.w3.org/1999/xlink" version="1.1" viewBox="0 -410 2048 2048">
  <g transform="matrix(1 0 0 -1 0 1638)">
   <path fill="currentColor"
d="M436 1550q231 -153 231 -297q0 -72 -55 -72q-29 0 -47 35q-5 11 -27 101q-23 93 -102 167v-1150q0 -101 12 -209q3 -31 3 -50q0 -46 -56 -46q-55 0 -55 42v1687q0 117 -7 160l110 -24q85 -19 85 -46t-49 -41l-43 -13v-244zM212 1564l43 -4v-51q0 -217 -36 -322
q-27 -77 -76 -109q-25 -16 -44 -16q-47 0 -47 48q0 34 49 93q68 83 91 194q10 48 20 167zM1460 367q481 -137 481 -262q0 -51 -49 -51q-31 0 -68 38q-128 134 -378 243zM1169 417l93 -58q32 -19 32 -33q0 -29 -40 -27l-58 3q-14 -11 -88 -70q-127 -102 -380 -191l-13 36
q311 156 426 340h-148v-24q0 -12 -17 -23q-24 -15 -54 -15q-27 0 -27 22v762l122 -66h652l61 72l72 -50q43 -29 43 -49q0 -16 -66 -52v-601q0 -39 -63 -39q-35 0 -35 15v48h-512zM993 473h688v149h-688v-149zM993 680h688v142h-688v-142zM993 878h688v139h-688v-139z
M1415 1651q-23 -46 -70 -117l-38 18q52 146 75 322l111 -33q30 -9 30 -28t-22 -25l-37 -11l-13 -37l-9 -26l-3 -7h139v38q0 117 -7 160l105 -24q85 -20 85 -45q0 -30 -49 -43l-44 -11v-75h100l72 70l99 -73q21 -15 21 -32q0 -21 -24 -21h-268v-153h140l72 74l101 -76
q19 -14 19 -32q0 -23 -24 -23h-257v-159q0 -19 7 -26q14 -11 59 -11q59 0 76 10q16 8 27 48l22 86l34 -8v-81q0 -37 31 -65q19 -16 19 -30q0 -32 -53 -42q-47 -8 -177 -8q-140 0 -140 73v213h-56q-29 -159 -118 -236q-50 -43 -177 -97l-17 37q94 50 143 114q49 65 69 182
h-330v-182q89 32 179 86l18 -26q-63 -74 -192 -160l-8 -40q-4 -23 -20 -23q-17 0 -27 21l-49 109l11 5v210h-83q-29 -205 -119 -301q-67 -72 -188 -128l-19 34q105 67 153 151q59 101 73 244q-34 -2 -84 -5q-26 -1 -45 -3l-40 89q85 -24 185 -24h91v153h-159
q-23 -47 -70 -117l-38 18q51 143 75 322l113 -33q24 -7 24 -30q0 -18 -18 -23l-37 -11l-12 -37l-12 -33h134v38q0 116 -7 160l105 -24q85 -20 85 -45q0 -29 -49 -43l-42 -11v-75h54l72 62l81 -62q23 -18 23 -35q0 -21 -23 -21h-207v-153h81l71 66l82 -66h278v153h-163z" />
  </g>

</svg>
