<?xml version="1.0" standalone="no"?>
<!DOCTYPE svg PUBLIC "-//W3C//DTD SVG 1.1//EN" "http://www.w3.org/Graphics/SVG/1.1/DTD/svg11.dtd" >
<svg xmlns="http://www.w3.org/2000/svg" xmlns:xlink="http://www.w3.org/1999/xlink" version="1.1" viewBox="0 -204 1024 1024">
  <g transform="matrix(1 0 0 -1 0 820)">
   <path fill="currentColor"
d="M376 966l60 -43h442l33 42q37 -24 56 -43q7 -7 7 -14q0 -9 -38 -31v-659q0 -74 2 -97q1 -29 1 -46t-10 -25q-15 -6 -25 -6q-16 0 -16 13v62h-461v-63q0 -12 -15 -12q-10 0 -25 6q-11 9 -11 25q0 17 3 47q4 21 4 96v676q0 41 -7 72zM427 147h461v747h-461v-747zM460 663
q44 -13 117 -13h43q4 55 4 104q0 55 -3 83q42 -4 78 -11q13 -3 13 -10q0 -9 -13 -13q-13 -6 -24 -11q-1 -83 -7 -142h63l44 49q36 -26 69 -52q8 -5 8 -11q0 -13 -15 -13h-172q-6 -34 -11 -65q43 -41 77 -82q40 -44 63 -76q22 -29 33 -52q10 -19 14 -40q5 -14 5 -33
q-1 -30 -23 -30q-8 0 -15 7q-7 9 -34 74q-25 63 -57 113q-27 42 -68 93q-2 -13 -4 -22q-14 -56 -34 -101q-20 -48 -51 -85q-34 -46 -91 -96l-13 20q37 36 61 71q23 33 42 74q20 42 35 100q13 52 21 121q0 6 1 9h-39q-71 -2 -98 -9zM36 782q44 -12 117 -12h22v126q0 57 -5 81
q55 -7 98 -27q12 -4 12 -11q0 -9 -14 -13q-19 -6 -43 -10v-146h33l42 47q36 -25 66 -50q8 -4 8 -10q0 -15 -15 -15h-134v-237l18 6q53 25 123 66l4 -23q-57 -45 -100 -71q-23 -15 -45 -26v-324q0 -35 -13 -51q-13 -17 -37 -27q-18 -11 -34 -11q-5 27 -15 38q-7 9 -25 17
q-24 12 -56 14v25q47 -14 86 -14q29 0 38 5q8 5 8 29v271q-38 -20 -77 -35q-11 -37 -17 -37q-8 0 -49 84q60 12 108 29q19 5 35 12v260h-22q-71 -2 -98 -7z" />
  </g>

</svg>
