<?xml version="1.0" standalone="no"?>
<!DOCTYPE svg PUBLIC "-//W3C//DTD SVG 1.1//EN" "http://www.w3.org/Graphics/SVG/1.1/DTD/svg11.dtd" >
<svg xmlns="http://www.w3.org/2000/svg" xmlns:xlink="http://www.w3.org/1999/xlink" version="1.1" viewBox="0 -410 2048 2048">
  <g transform="matrix(1 0 0 -1 0 1638)">
   <path fill="currentColor"
d="M455 874v-674q0 -141 -155 -170q-11 70 -47 93q-33 21 -159 43l6 46q170 -27 202 -27q57 0 57 57v585q-26 -13 -60 -29q-54 -25 -103 -49v-46q0 -32 -19 -32t-39 28l-86 117q99 28 307 104v471h-68q-126 0 -191 -9l-39 92q100 -22 230 -22h68v303q0 118 -7 160l109 -24
q85 -19 85 -45q0 -30 -49 -43l-42 -11v-340h114l80 81l114 -90q16 -13 16 -26q0 -26 -27 -26h-297v-435q92 36 244 104l16 -43q-53 -36 -234 -130zM1702 1878l108 -24q87 -20 87 -45q0 -29 -49 -43l-38 -10v-126l10 -98q0 -48 -58 -48q-46 0 -46 37q0 7 1 20h-822
q-29 -11 -48 -11q-45 0 -45 41v173q0 61 -11 126l109 -24q85 -19 85 -46q0 -28 -49 -41l-41 -11v-150h360v146q0 112 -8 160l109 -24q85 -18 85 -45q0 -29 -49 -42l-41 -11v-184h363v142q0 74 -12 138zM1032 1523l110 -45q43 -17 43 -38q0 -29 -65 -29h-18q-33 -38 -84 -96
h342q-4 89 -90 176l24 26q164 -86 164 -145q0 -29 -30 -57h220l78 80l116 -84q14 -10 14 -24q0 -26 -24 -26h-421v-98h211l74 72l106 -78q12 -9 12 -22q0 -26 -24 -26h-379v-104h211l74 70l90 -72q24 -20 24 -39q0 -17 -20 -17h-379v-102h285l80 80l109 -85q20 -16 20 -26
q0 -27 -27 -27h-902v-14q-5 -42 -69 -42q-27 0 -27 34v430q-95 -56 -196 -92l-13 39q113 70 186 138q93 86 175 243zM1313 1163v98h-337v-98h337zM1313 1005v104h-337v-104h337zM1313 845v102h-337v-102h337zM1530 662l62 60l72 -60q35 -29 36 -46q1 -20 -85 -52l-63 -98
h189l49 70l88 -60q38 -23 38 -41q0 -13 -76 -56q-48 -208 -90 -261q-68 -86 -216 -102q-1 56 -54 86q-46 27 -178 82l11 39q218 -82 279 -82q78 0 110 87q17 47 39 180h-220q-28 -12 -42 -12q-59 0 -59 35q0 9 18 38l83 136h-415q-26 -159 -47 -220q-86 -259 -359 -388
l-23 33q107 73 152 124q103 119 141 252q24 83 30 199h-79l-108 -5q-32 0 -58 -2l-32 86q46 -10 117 -15l91 -7h599z" />
  </g>

</svg>
