<?xml version="1.0" standalone="no"?>
<!DOCTYPE svg PUBLIC "-//W3C//DTD SVG 1.1//EN" "http://www.w3.org/Graphics/SVG/1.1/DTD/svg11.dtd" >
<svg xmlns="http://www.w3.org/2000/svg" xmlns:xlink="http://www.w3.org/1999/xlink" version="1.1" viewBox="0 -200 1000 1000">
  <g transform="matrix(1 0 0 -1 0 800)">
   <path fill="currentColor"
d="M491 176l-18 34h177v132h-132v-49q-9 -10 -20 -13.5t-30 -9.5v400l62 -36h120v116h-155l-46 -13l-17 37h218v124l65 -23l-15 -86v-15h154l36 38l55 -62h-245v-116h112l31 40l61 -49l-33 -34v-275q-5 -8 -18.5 -14.5t-31.5 -6.5v47h-121v-132h104l34 47l56 -70h-194v-124
h156l37 47l56 -72h-477l-50 -14l-23 39h251v124h-120zM518 366h132v113h-132v-113zM650 503v109h-127l-5 -20v-89h132zM821 366v113h-121v-113h121zM821 503v109h-121v-109h121zM795 932q-72 -16 -144.5 -30.5t-150.5 -16.5l-3 4q100 26 179 55t136 58l34 -70h-51zM52 276
q25 53 50.5 112.5t47 119.5t36.5 118t19 108h-63l-66 -15l-17 37h149v245l72 -32l-20 -67v-146h41l47 47l66 -69h-154v-115q21 -14 41 -30.5t37.5 -32.5t30 -30.5t18.5 -24.5q9 -15 9 -35t-9 -35t-26 -15q-13 0 -26 36q-7 16 -13 30t-13.5 29.5t-19 34.5t-29.5 46v-564
q-10 -12 -20 -17t-33 -12l1 530q-28 -63 -61 -128.5t-84 -132.5z" />
  </g>

</svg>
