<?xml version="1.0" standalone="no"?>
<!DOCTYPE svg PUBLIC "-//W3C//DTD SVG 1.1//EN" "http://www.w3.org/Graphics/SVG/1.1/DTD/svg11.dtd" >
<svg xmlns="http://www.w3.org/2000/svg" xmlns:xlink="http://www.w3.org/1999/xlink" version="1.1" viewBox="0 -120 1000 1000">
  <g transform="matrix(1 0 0 -1 0 880)">
   <path fill="currentColor"
d="M300 763l71 -63v-19h-133v-121q52 -23 71 -44q30 -31 30 -76q0 -33 -24 -33q-8 0 -15 7q-6 6 -19 45q-13 35 -43 68v-475l-63 -8v420q-51 -108 -125 -217l-15 16q48 91 79 185q32 98 58 233h-110l-12 27h125v235l76 -11q18 -2 18 -15q0 -11 -17 -19l-14 -6v-184h23z
M847 868l79 -66v-19h-286v-28q258 -72 258 -159q0 -32 -27 -32q-18 0 -40 23q-47 50 -79 75q-45 35 -112 71v-108l25 -9q18 -6 18 -15q0 -12 -19 -14l-17 -3q76 -76 148 -121t162 -75v-16q-32 -8 -44 -19q-10 -10 -23 -32q-159 107 -266 249q-99 -104 -173 -160
q-57 -43 -147 -89l-8 16q170 106 282 281v110q-118 -121 -250 -188l-8 16q133 94 224 227h-185l-12 27h231v133l83 -13q18 -3 18 -13q0 -11 -18 -16l-21 -5v-86h164zM578 470l69 -9q24 -3 24 -10q0 -8 -20 -16l-11 -4v-130q55 51 98 106l57 -45q13 -10 13 -17q0 -8 -15 -8
h-36q-53 -30 -117 -62v-153q0 -37 -26 -56q-12 -9 -30 -16q-17 -6 -21 -6q-6 0 -10 14q-6 25 -26 31l-47 14v19h98v348zM433 376l12 12q99 -44 99 -81q0 -13 -8.5 -22t-19.5 -9q-16 0 -25 22q-18 41 -58 78zM554 263l4 -16l-164 -129l-2 -11q-3 -15 -11 -15t-24 26l-25 43z
M664 247l8 16q122 -35 171 -65q56 -35 56 -69q0 -16 -9 -28q-8 -10 -20 -10q-10 0 -22 11q-4 3 -26 28q-51 61 -158 117z" />
  </g>

</svg>
