<?xml version="1.0" standalone="no"?>
<!DOCTYPE svg PUBLIC "-//W3C//DTD SVG 1.1//EN" "http://www.w3.org/Graphics/SVG/1.1/DTD/svg11.dtd" >
<svg xmlns="http://www.w3.org/2000/svg" xmlns:xlink="http://www.w3.org/1999/xlink" version="1.1" viewBox="0 -410 2048 2048">
  <g transform="matrix(1 0 0 -1 0 1638)">
   <path fill="currentColor"
d="M1283 1432h-404v-11q0 -31 -51 -31q-53 0 -53 43q0 5 5 50q6 100 6 105v283l120 -64h857l52 66l64 -42q46 -30 46 -49q0 -26 -57 -55v-151q0 -41 6 -104q3 -28 3 -44q0 -49 -65 -49q-41 0 -41 26v27h-466l80 -27q62 -20 62 -42q0 -21 -81 -36l-13 -89h418l68 89l121 -89
q21 -16 21 -32q0 -25 -30 -25h-605l-24 -157h344l53 69l69 -44q43 -27 43 -49q0 -26 -60 -57v-477q0 -40 5 -105q3 -29 3 -45q0 -48 -70 -48q-31 0 -31 23v65h-593v-53q0 -38 -50 -38q-59 0 -55 43l4 50q6 101 6 104v503q0 14 -4 64q-1 23 -4 69l113 -74h132l26 157h-300
q-65 0 -149 -9l-40 84q124 -18 189 -18h307zM1533 1490h238v261h-238v-261zM1203 1490h234v261h-234v-261zM879 1490h230v261h-230v-261zM1085 823h593v147h-593v-147zM1085 767v-146h593v146h-593zM1085 563v-153h593v153h-593zM743 1012l109 -24q86 -18 86 -46
q0 -23 -50 -41l-42 -15v-711h900l99 102l120 -107q17 -15 17 -26q0 -26 -27 -26h-1113q-32 -7 -47 -7q-43 0 -43 33v709q0 122 -9 159zM466 1251q90 -59 121 -83q127 -101 127 -190q0 -55 -48 -55q-20 0 -34 14q-11 11 -36 81q-30 88 -130 175v-936q0 -20 4 -58
q9 -98 9 -126q0 -49 -65 -49q-43 0 -43 35v1029q-64 -188 -115 -294q-57 -118 -158 -261l-29 26q209 380 279 839h-75q-65 0 -149 -10l-40 85q129 -17 189 -17h98v295q0 107 -9 158l121 -25q74 -15 74 -45q0 -27 -51 -41l-40 -11v-331h44l70 88l122 -91q17 -13 17 -29
q0 -26 -27 -26h-226v-147z" />
  </g>

</svg>
