<?xml version="1.0" standalone="no"?>
<!DOCTYPE svg PUBLIC "-//W3C//DTD SVG 1.1//EN" "http://www.w3.org/Graphics/SVG/1.1/DTD/svg11.dtd" >
<svg xmlns="http://www.w3.org/2000/svg" xmlns:xlink="http://www.w3.org/1999/xlink" version="1.1" viewBox="0 -140 1000 1000">
  <g transform="matrix(1 0 0 -1 0 860)">
   <path fill="currentColor"
d="M851 875l27 -26q17 -17 17 -22q0 -9 -36 -12h2q-1 -1 -10 -1l-5 -1h6q-156 -160 -292 -318q-4 -5 -29.5 -34.5t-35.5 -42t-32.5 -41t-33.5 -46t-24.5 -41t-19.5 -42.5t-6 -36v-3q0 -52 126 -52h267q38 0 53.5 14.5t27.5 60.5l38 145l27 -11l-19 -134q-1 -5 -1 -18
q0 -26 15 -37q19 -13 19 -24q0 -13 -37 -25q-23 -4 -130 -4h-275q-124 0 -149 34q-18 22 -18 47q0 63 72 166q60 86 278 330l116 131h-359v22h360q32 31 39 32q11 0 22 -11zM375 906l30 -10l-163 -437q-31 -81 -31 -143q0 -23 14 -76q13 -45 13 -73q0 -55 -38 -55
q-28 0 -36 27.5t-8 96.5q0 99 -13 132t-72 53l7 17q35 -8 53 -8q41 0 62 49zM166 904l12 15q79 -31 99 -50h-1q32 -26 32 -54q0 -25 -25 -25q-21 0 -32 21q-27 49 -37 60.5t-48 32.5zM73 707l11 18q3 -2 10.5 -6.5l12.5 -7.5q42 -14 75.5 -38t33.5 -53q0 -25 -24 -25
q-16 0 -30 20l1 -1q-25 40 -41.5 57t-48.5 36z" />
  </g>

</svg>
