<?xml version="1.0" standalone="no"?>
<!DOCTYPE svg PUBLIC "-//W3C//DTD SVG 1.1//EN" "http://www.w3.org/Graphics/SVG/1.1/DTD/svg11.dtd" >
<svg xmlns="http://www.w3.org/2000/svg" xmlns:xlink="http://www.w3.org/1999/xlink" version="1.1" viewBox="0 -120 1000 1000">
  <g transform="matrix(1 0 0 -1 0 880)">
   <path fill="currentColor"
d="M132 892l4 16q81 -21 113 -43q40 -28 40 -71q0 -21 -12 -31q-8 -8 -20 -8q-19 0 -29 26q-25 62 -96 111zM50 661l4 16q79 -19 110 -42q39 -27 39 -68q0 -15 -7 -25q-9 -13 -24 -13q-19 0 -29 24q-15 37 -36 61q-20 22 -57 47zM347 771l16 -8l-138 -445q-11 -36 -11 -53
q0 -31 18 -109q6 -27 6 -46q0 -20 -12 -38q-13 -20 -30 -20q-19 0 -34 17q-14 14 -14 36q0 13 7 45q9 38 9 68q0 54 -39 78q-23 14 -75 25v20h114zM750 861l66 -39q20 -12 20 -22q0 -12 -24 -18l-28 -8q-27 -43 -98 -151l-73 -110q-152 -227 -166 -253q-26 -46 -26 -75
q0 -10 6 -15q7 -5 34 -5h337q26 0 35 10q6 8 14 36l47 157h12l-8 -164q-1 -12 6 -22q6 -9 34 -19q-16 -33 -37 -44q-22 -12 -58 -12h-404q-40 0 -63 18q-21 17 -21 44q0 34 19 80q12 29 52 90q46 71 152 241q51 80 133 210h-297l-12 28h315z" />
  </g>

</svg>
