<?xml version="1.0" standalone="no"?>
<!DOCTYPE svg PUBLIC "-//W3C//DTD SVG 1.1//EN" "http://www.w3.org/Graphics/SVG/1.1/DTD/svg11.dtd" >
<svg xmlns="http://www.w3.org/2000/svg" xmlns:xlink="http://www.w3.org/1999/xlink" version="1.1" viewBox="0 -410 2048 2048">
  <g transform="matrix(1 0 0 -1 0 1638)">
   <path fill="currentColor"
d="M1390 724h-283v-46q-9 -42 -71 -42q-27 0 -27 26v865l122 -61h259v285q0 120 -8 160l120 -25q75 -16 75 -45t-50 -42l-43 -11v-322h278l61 72l83 -60q27 -19 27 -40q0 -23 -65 -53v-567q23 -19 34 -28q34 -27 34 -45q0 -21 -19 -21h-433v-428q0 -75 4 -129q4 -57 4 -82
t-4 -32q-11 -18 -50 -18q-48 0 -48 37v652zM1107 779h283v627h-283v-627zM1484 1406v-627h288v627h-288zM219 1865q129 -46 228 -115q84 -59 84 -119q0 -54 -50 -54q-33 0 -70 61q-48 79 -109 126q-35 27 -103 67zM102 1371q323 -123 323 -242q0 -54 -54 -54q-35 0 -69 59
q-48 83 -110 131q-26 20 -111 74zM486 890l34 -22q-51 -158 -125 -336q-88 -217 -149 -344q4 -27 4 -40q0 -60 -21 -60q-16 0 -51 47l-74 97q180 229 382 658zM851 1918l147 -58q38 -15 38 -37q0 -23 -41 -29l-59 -9q-90 -256 -165 -402l92 -34q25 -9 25 -29t-21 -28
l-49 -19v-1034q0 -74 7 -147q2 -18 2 -30q0 -43 -68 -43q-38 0 -38 46v1234q-19 -30 -70 -111q-54 -87 -154 -193l-26 26q165 244 249 458q106 273 131 439z" />
  </g>

</svg>
