<?xml version="1.0" standalone="no"?>
<!DOCTYPE svg PUBLIC "-//W3C//DTD SVG 1.1//EN" "http://www.w3.org/Graphics/SVG/1.1/DTD/svg11.dtd" >
<svg xmlns="http://www.w3.org/2000/svg" xmlns:xlink="http://www.w3.org/1999/xlink" version="1.1" viewBox="0 -200 1000 1000">
  <g transform="matrix(1 0 0 -1 0 800)">
   <path fill="currentColor"
d="M191 321q4 5 9.5 16.5t13 33.5t18.5 56t27 85q21 69 51 171t71 248l13 -4l-144 -620q-3 -18 -6 -51t-3 -94q0 -26 1 -58.5t3 -72.5q-14 -14 -21.5 -17.5t-14.5 -3.5h-8q-17 0 -22 10t-5 19q0 12 1.5 30t3.5 37t3.5 35.5t1.5 24.5q0 15 -2 31.5t-9.5 33t-22.5 33.5t-42 34
v15h4q11 -2 20.5 -3.5t17.5 -1.5q29 0 41 13zM168 537h-2q-12 0 -21.5 18.5t-21.5 44.5t-30 55t-47 50l5 9q60 -21 98.5 -45t43.5 -59q1 -6 1.5 -11t0.5 -10q0 -24 -8.5 -37.5t-18.5 -14.5zM236 825q-8 38 -31 71t-55 59v10q30 -10 56 -20.5t46 -24t31.5 -30.5t11.5 -40
q0 -8 -3 -16.5t-8 -16t-10.5 -12t-11.5 -4.5q-19 0 -26 24zM824 967l63 -67h-200l-17 -24v-149h103l43 45l61 -68h-207v-169h147l44 46l63 -67h-453l-64 -19l-16 40h227v169h-99l-61 -16l-17 39h177v173h-108l-61 -15l-20 38h350zM580 443l-15 -66v-44h170v152l68 -33
l-17 -54v-65h60l43 44l66 -68h-169v-235q-9 -12 -19.5 -20.5t-23.5 -8.5q-7 0 -8 1v263h-170q-8 -75 -23.5 -119t-29.5 -59q-7 -13 -22 -30.5t-37.5 -36t-53 -36t-68.5 -30.5l-7 9q35 28 73 60.5t63 70.5q23 35 35 74.5t17 96.5h-79l-58 -14l-21 38h159v143z" />
  </g>

</svg>
