<?xml version="1.0" standalone="no"?>
<!DOCTYPE svg PUBLIC "-//W3C//DTD SVG 1.1//EN" "http://www.w3.org/Graphics/SVG/1.1/DTD/svg11.dtd" >
<svg xmlns="http://www.w3.org/2000/svg" xmlns:xlink="http://www.w3.org/1999/xlink" version="1.1" viewBox="0 -140 1000 1000">
  <g transform="matrix(1 0 0 -1 0 860)">
   <path fill="currentColor"
d="M435 900l68 -38h299q23 32 37 32t39.5 -24t25.5 -36q0 -10 -29 -19v-280q0 -20 -6.5 -25.5t-40.5 -9.5h-2q-6 0 -9.5 4t-4 10.5t-1.5 21.5h-307v-341q0 -24 4 -37.5t15 -19.5t19.5 -7t27.5 -1h213q41 0 61 10t26 41l29 132l23 -2q-1 -46 -6 -149v-3q0 -15 17 -23
q18 -8 18 -23q0 -27 -135 -27h-251q-77 0 -101 19.5t-24 89.5v641q0 9 -5 64zM686 840v-282h125v282h-125zM504 840v-282h118v282h-118zM434 472l-130 -58v-329q0 -15 -14.5 -25t-30.5 -10q-19 0 -19 19v320l-86 -42q-1 -12 -9.5 -24t-17.5 -12q-13 0 -44 69l157 52v242h-88
q-27 -90 -61 -154l-16 8q40 141 40 327q83 -24 83 -36q0 -8 -20 -19q-9 -58 -20 -104h82v199l-3 47q52 -10 73 -15.5t21 -13.5q0 -7 -27 -21v-196h14q10 11 23 28q18 18 29 18q13 0 58 -55l-5 -13h-119v-226l122 42z" />
  </g>

</svg>
