<?xml version="1.0" standalone="no"?>
<!DOCTYPE svg PUBLIC "-//W3C//DTD SVG 1.1//EN" "http://www.w3.org/Graphics/SVG/1.1/DTD/svg11.dtd" >
<svg xmlns="http://www.w3.org/2000/svg" xmlns:xlink="http://www.w3.org/1999/xlink" version="1.1" viewBox="0 -120 1000 1000">
  <g transform="matrix(1 0 0 -1 0 880)">
   <path fill="currentColor"
d="M351 908l65 -46q13 -9 13 -17t-22 -8h-25q-56 -66 -121 -128q71 -132 71 -336q0 -115 -32 -207q-25 -73 -74 -106q-27 -17 -47 -17q-8 0 -12 4q-4 3 -7 23q-2 15 -19 20l-52 17v15h128q54 108 54 257q0 30 -4 85q-86 -105 -217 -193l-11 11q90 84 123 127q48 63 92 159
q-8 49 -32 106q-71 -58 -168 -110l-8 19q89 67 156 137q-27 58 -54 95q-21 28 -59 69l12 16q74 -64 132 -146q63 70 118 154zM414 779l73 -36h142v200l79 -13q23 -3 22 -14q-1 -10 -18 -15l-21 -5v-153h156l24 47l66 -46q16 -11 16 -20q0 -8 -21 -15l-18 -5v-633l-63 -11v66
h-375v-66l-62 -16v735zM476 153h153v278h-153v-278zM691 153h160v278h-160v-278zM476 458h153v258h-153v-258zM691 716v-258h160v258h-160z" />
  </g>

</svg>
