<?xml version="1.0" standalone="no"?>
<!DOCTYPE svg PUBLIC "-//W3C//DTD SVG 1.1//EN" "http://www.w3.org/Graphics/SVG/1.1/DTD/svg11.dtd" >
<svg xmlns="http://www.w3.org/2000/svg" xmlns:xlink="http://www.w3.org/1999/xlink" version="1.1" viewBox="0 -410 2048 2048">
  <g transform="matrix(1 0 0 -1 0 1638)">
   <path fill="currentColor"
d="M1702 1296l68 75l84 -54q40 -26 40 -48q0 -28 -78 -62v-1074l2 -32q-1 -5 -8 -11q-23 -20 -58 -20q-32 0 -32 18v97h-759v-89q-2 -26 -37 -26q-66 0 -66 64q0 27 4 84q4 54 4 196v837q0 73 -16 134l129 -89h143q76 216 105 393h-263q-111 0 -190 -8l-42 90
q106 -25 220 -25h757l92 111l141 -108q18 -14 18 -29q0 -31 -30 -31h-578q-96 -238 -171 -393h521zM961 249h759v475h-759v-475zM961 785h759v454h-759v-454zM505 1043q-155 -224 -415 -391l-21 33q260 237 407 500q-44 167 -119 294q-84 -76 -255 -174l-24 34
q150 113 241 206l-30 45q-70 105 -160 221l24 25q129 -125 215 -235q132 150 209 301l96 -55q53 -31 53 -50q0 -26 -47 -26h-44q-24 -27 -36 -41q-109 -126 -184 -201q94 -158 138 -294q67 -203 67 -548q0 -365 -54 -492q-31 -73 -97 -113q-45 -27 -129 -49q-18 63 -59 87
q-48 28 -159 61l11 41q171 -58 238 -58q85 0 119 119q34 121 34 438q0 163 -19 322z" />
  </g>

</svg>
