<?xml version="1.0" standalone="no"?>
<!DOCTYPE svg PUBLIC "-//W3C//DTD SVG 1.1//EN" "http://www.w3.org/Graphics/SVG/1.1/DTD/svg11.dtd" >
<svg xmlns="http://www.w3.org/2000/svg" xmlns:xlink="http://www.w3.org/1999/xlink" version="1.1" viewBox="0 -140 1000 1000">
  <g transform="matrix(1 0 0 -1 0 860)">
   <path fill="currentColor"
d="M693 460l-82 22l3 16q64 -9 111 -9q25 0 44 8t31.5 27t20.5 41.5t12.5 59.5t6 73.5t2.5 90.5h-58q-36 -124 -114 -202.5t-217 -153.5l-10 13q212 137 273 343h-74q-60 -166 -289 -275l-9 15q177 103 230 260h-91q-70 -73 -145 -119l-10 13q114 97 172 256l52 -22
q29 -14 29 -21q0 -11 -34 -11q-25 -47 -47 -74h338q18 26 34 26q11 0 38 -22.5t27 -32.5q0 -13 -31 -23q0 -139 -19 -208.5t-74 -101.5q-47 -27 -79 -27q-20 0 -24 18q-5 17 -17 20zM546 326v-151q0 -22 4.5 -29t22.5 -7h159q18 0 25 6.5t14 28.5l33 98l22 -5
q-12 -111 -12 -115q0 -13 14 -18q13 -4 13 -10q0 -31 -102 -31h-183q-41 0 -57.5 16t-16.5 55v213q91 -15 91 -30q0 -11 -27 -21zM418 304h24q2 -40 2 -45q0 -65 -24.5 -117t-68.5 -52q-26 0 -26 26q0 5 1.5 9.5l2.5 7.5t5 7.5t5.5 6l7 7l6.5 6.5q35 37 48.5 66t16.5 78z
M823 320l16 10q100 -109 100 -183q0 -19 -10.5 -35t-26.5 -16q-22 0 -25 33q-6 78 -14 107t-40 84zM601 370l12 13q69 -41 96.5 -67t27.5 -62q0 -31 -30 -31q-15 0 -21 8t-16 34q-24 67 -69 105zM154 108l-87 31l1 10q93 -19 116 -19q54 0 80 75t26 178q0 63 -9 123
q-79 -126 -211 -233l-11 16q120 123 197 308q-11 51 -43 116q-76 -64 -145 -99l-8 17q79 58 132 124q-53 90 -100 145l17 15q61 -58 114 -124q45 60 80 138q72 -37 72 -45q0 -11 -35 -14q-45 -75 -89 -124q54 -110 78 -193.5t24 -177.5q0 -129 -42.5 -219.5t-125.5 -90.5
q-24 0 -24 18q0 22 -7 25z" />
  </g>

</svg>
