<?xml version="1.0" standalone="no"?>
<!DOCTYPE svg PUBLIC "-//W3C//DTD SVG 1.1//EN" "http://www.w3.org/Graphics/SVG/1.1/DTD/svg11.dtd" >
<svg xmlns="http://www.w3.org/2000/svg" xmlns:xlink="http://www.w3.org/1999/xlink" version="1.1" viewBox="0 -410 2048 2048">
  <g transform="matrix(1 0 0 -1 0 1638)">
   <path fill="currentColor"
d="M958 776q251 -146 251 -265q0 -41 -27 -61q-12 -9 -24 -9q-37 0 -58 69q-38 122 -142 214v-371q0 -98 13 -219q3 -31 3 -50q0 -46 -55 -46q-28 0 -41 11q-10 7 -10 47v534q-132 -190 -191 -250q-75 -76 -160 -137l-24 29q254 257 375 599v368h-123v-512q0 -31 -50 -31
q-51 0 -51 42q0 5 4 51q7 92 7 105v466l90 -64h123v213h-24q-106 0 -189 -8l-37 88q95 -22 226 -22h24v183q0 113 -8 160l108 -24q83 -18 83 -45q0 -26 -50 -42l-41 -13v-219h67l97 101l117 -107q18 -15 18 -26q0 -26 -27 -26h-274v-213h133l67 76l83 -54q39 -26 39 -49
q0 -28 -76 -61v-319q0 -80 -69 -119q-35 -20 -67 -24q0 60 -28 83q-21 17 -72 30l9 41q78 -16 101 -16q34 0 34 62v293h-154v-463zM1514 1509h-28q-108 0 -189 -8l-37 88q94 -22 226 -22h28v184q0 121 -8 160l108 -24q85 -19 85 -45q0 -27 -51 -43l-41 -13v-219h130l96 101
l119 -107q17 -15 17 -25q0 -27 -27 -27h-335v-213h153l67 76l82 -54q39 -26 39 -49q0 -28 -75 -61v-308q0 -121 -140 -144q0 46 -12 66q-19 29 -87 48l8 42q80 -18 104 -18q33 0 33 63v282h-172v-403q86 -185 173 -289q92 -113 215 -168v-38q-46 -2 -62 -7q-27 -9 -56 -49
q-83 66 -144 159q-44 67 -126 258v-361q0 -103 12 -218q3 -31 3 -50q0 -46 -54 -46t-54 42v611q-88 -143 -176 -241q-86 -96 -242 -215l-24 33q292 286 442 650v332h-123v-483q0 -31 -52 -31q-53 0 -53 42q0 5 5 51q6 63 6 104v434l98 -60h119v213zM384 1617v-487h18l80 81
l114 -86q17 -13 17 -26q0 -26 -27 -26h-202v-555q134 63 243 121l20 -40q-107 -81 -260 -168q-148 -85 -208 -113l-3 -35q-3 -38 -23 -38q-23 0 -47 48l-52 102q140 41 244 87v591h-20q-105 0 -172 -8l-35 88q86 -23 207 -23h20v487h-26q-106 0 -173 -8l-35 88
q86 -23 208 -23h174l80 81l114 -86q17 -12 17 -26q0 -26 -25 -26h-248z" />
  </g>

</svg>
