<?xml version="1.0" standalone="no"?>
<!DOCTYPE svg PUBLIC "-//W3C//DTD SVG 1.1//EN" "http://www.w3.org/Graphics/SVG/1.1/DTD/svg11.dtd" >
<svg xmlns="http://www.w3.org/2000/svg" xmlns:xlink="http://www.w3.org/1999/xlink" version="1.1" viewBox="0 -410 2048 2048">
  <g transform="matrix(1 0 0 -1 0 1638)">
   <path fill="currentColor"
d="M396 1026v489q0 4 -9 273l114 -71h634q-17 54 -36 87q-30 52 -100 115l23 31q41 -24 62 -36q91 -51 114 -79q19 -24 19 -56q0 -36 -39 -62h534l108 113l131 -113q23 -20 23 -34q0 -25 -27 -25h-1456v-572q0 -393 -44 -637q-41 -223 -166 -426l-37 24q82 173 110 341
q36 212 40 504q1 39 2 65q-37 -43 -68 -75q-81 -83 -129 -135v-41q0 -45 -22 -45q-18 0 -34 23l-86 119q146 60 319 206zM767 876l-92 -5l-32 84q60 -14 226 -18h271v316h-347q-103 0 -192 -8l-39 88q97 -21 231 -21h347v139q0 114 -7 152l109 -24q86 -19 86 -44
q0 -30 -49 -43l-42 -11v-169h409l108 113l131 -113q23 -20 23 -33q0 -26 -27 -26h-644v-316h321l84 76l107 -87q19 -16 19 -34q0 -22 -23 -31q-2 0 -68 -15q-96 -180 -160 -267q-92 -125 -195 -217q256 -143 624 -187v-39q-64 -2 -93 -18q-29 -17 -44 -69q-344 103 -567 249
q-278 -202 -706 -254l-8 42q244 58 396 126q122 54 238 142q-82 59 -165 153q-60 68 -113 154q-12 20 -102 187zM803 881q123 -201 234 -310q82 -81 197 -157q107 96 221 257q69 98 111 210h-763zM86 1496q247 -177 247 -284q0 -36 -23 -60q-14 -15 -31 -15q-40 0 -57 73
q-34 150 -161 263z" />
  </g>

</svg>
