<?xml version="1.0" standalone="no"?>
<!DOCTYPE svg PUBLIC "-//W3C//DTD SVG 1.1//EN" "http://www.w3.org/Graphics/SVG/1.1/DTD/svg11.dtd" >
<svg xmlns="http://www.w3.org/2000/svg" xmlns:xlink="http://www.w3.org/1999/xlink" version="1.1" viewBox="0 -410 2048 2048">
  <g transform="matrix(1 0 0 -1 0 1638)">
   <path fill="currentColor"
d="M920 1658l-39 86q120 -17 188 -17h635l99 102l120 -107q17 -15 17 -26q0 -27 -27 -27h-248v-584h85l98 101l121 -106q17 -16 17 -26q0 -25 -28 -25h-293v-658q0 -103 13 -222q3 -31 3 -50q0 -46 -57 -46q-55 0 -55 42v934h-355q-19 -227 -37 -307q-88 -405 -442 -658
l-23 26q137 136 208 237q142 201 178 464q3 20 15 188q1 12 5 51h-99q-69 0 -149 -10l-39 82q103 -17 185 -17h102v584h-49q-69 0 -149 -11zM1569 1085v584h-355v-584h355zM620 387h-362v-52q0 -54 -58 -54q-48 0 -48 46q0 15 3 50q1 17 2 70q1 27 2 58q3 61 3 82v1069
q-3 84 -16 134l118 -88h338l68 76l84 -54q47 -30 47 -46q0 -27 -86 -62v-1029l2 -64q3 -85 5 -117q3 -34 3 -56q0 -66 -59 -66q-46 0 -46 51v52zM258 1278h362v366h-362v-366zM258 861h362v363h-362v-363zM258 443h362v364h-362v-364z" />
  </g>

</svg>
