<?xml version="1.0" standalone="no"?>
<!DOCTYPE svg PUBLIC "-//W3C//DTD SVG 1.1//EN" "http://www.w3.org/Graphics/SVG/1.1/DTD/svg11.dtd" >
<svg xmlns="http://www.w3.org/2000/svg" xmlns:xlink="http://www.w3.org/1999/xlink" version="1.1" viewBox="0 -410 2048 2048">
  <g transform="matrix(1 0 0 -1 0 1638)">
   <path fill="currentColor"
d="M1460 1206q278 -153 507 -178v-34h-18q-76 0 -122 -74q-282 116 -435 228q-159 -103 -271 -149q-113 -46 -280 -86l-13 41q323 108 488 252q-177 147 -272 264l31 23q25 -22 106 -97q71 -64 195 -141q147 136 230 352h-531q-81 -117 -240 -249l-26 30q207 235 311 527
l146 -66q25 -12 25 -33q0 -24 -70 -34l-32 -5l-74 -113h609l95 102l132 -106q13 -11 13 -26q0 -27 -24 -27h-221q-91 -250 -259 -401zM432 1914l138 -60q31 -13 31 -32q0 -26 -35 -28l-60 -4q-79 -143 -133 -212l59 -26q26 -11 26 -28q0 -23 -32 -36l-34 -14v-326
q0 -67 9 -157v-11q0 -56 -67 -56q-40 0 -40 37v527q-104 -91 -201 -155l-22 33q258 234 361 548zM592 1638l121 -29q71 -16 71 -40q0 -23 -33 -35l-56 -21v-263q0 -37 5 -126q1 -9 1 -18q0 -54 -56 -54q-46 0 -46 45v371q0 111 -7 170zM1547 844l68 76l84 -54q47 -30 47 -47
q0 -26 -86 -63v-422q0 -75 7 -177q3 -36 3 -58q0 -65 -59 -65q-46 0 -46 50v37h-1053v-28q0 -54 -53 -54t-53 45q0 15 2 49q2 18 3 69q1 30 2 57q3 63 3 82v457q-3 61 -12 122l118 -76h1025zM512 398h1053v163h-1053v-163zM512 619h1053v167h-1053v-167zM512 177h1053v164
h-1053v-164z" />
  </g>

</svg>
