<?xml version="1.0" standalone="no"?>
<!DOCTYPE svg PUBLIC "-//W3C//DTD SVG 1.1//EN" "http://www.w3.org/Graphics/SVG/1.1/DTD/svg11.dtd" >
<svg xmlns="http://www.w3.org/2000/svg" xmlns:xlink="http://www.w3.org/1999/xlink" version="1.1" viewBox="0 -200 1000 1000">
  <g transform="matrix(1 0 0 -1 0 800)">
   <path fill="currentColor"
d="M413 696q54 -14 81.5 -35t34.5 -50q-6 -22 -12 -34.5t-14 -12.5q-13 0 -20 14.5t-16 35.5t-22.5 43.5t-38.5 38.5h7zM188 552h514l51 47l77 -72h-302v-210h151l48 50l76 -73h-275v-228h221l53 48l79 -74h-646l-70 -13l-22 39h323v228h-158l-74 -12l-18 35h250v210h-182
l-76 -16zM350 959l-37 -22q-8 -17 -19 -32.5t-25 -34.5h150l44 42l64 -65h-244q29 -14 46 -26t25.5 -22.5t10.5 -20t2 -19.5q0 -4 -0.5 -7.5t-0.5 -7.5q0 -2 0.5 -3.5t0.5 -3.5q-6 -18 -14 -25.5t-16 -7.5q-17 0 -20 11t-5.5 30.5t-11.5 46t-39 57.5h-4q-21 -29 -40 -55
t-41 -49t-49.5 -43t-66.5 -38l-11 3q39 34 75 80t64 93t46.5 89t22.5 68zM744 955l-34 -18q-8 -10 -13.5 -18.5t-11 -16.5t-12.5 -16.5t-17 -18.5h178l49 44l65 -67h-275q36 -14 54.5 -26t27 -23.5t10 -23t3.5 -23.5q0 -15 -9 -25t-20 -10q-8 0 -14.5 12.5t-15.5 32
t-23 42.5t-38 45h-3q-15 -17 -32 -37t-38.5 -39.5t-49 -36t-62.5 -26.5l-5 -1q33 28 63 62.5t55 72.5t45 78t34 79z" />
  </g>

</svg>
