<?xml version="1.0" standalone="no"?>
<!DOCTYPE svg PUBLIC "-//W3C//DTD SVG 1.1//EN" "http://www.w3.org/Graphics/SVG/1.1/DTD/svg11.dtd" >
<svg xmlns="http://www.w3.org/2000/svg" xmlns:xlink="http://www.w3.org/1999/xlink" version="1.1" viewBox="0 -410 2048 2048">
  <g transform="matrix(1 0 0 -1 0 1638)">
   <path fill="currentColor"
d="M1262 403q186 89 306 187l118 -94q27 -21 27 -39q0 -23 -35 -23q-6 0 -12 1l-72 10q-131 -67 -244 -115q98 -71 181 -107q140 -59 212 -59q61 0 93 69l88 194l38 -15l-64 -190q-4 -13 -4 -45q0 -36 12 -54q5 -5 32 -30q12 -11 12 -26q0 -37 -93 -37q-169 0 -375 95
q-133 61 -245 158q-187 -71 -376 -110q-253 -52 -636 -77l-5 43q569 65 940 219q-95 98 -187 288h-600v-52q0 -37 -49 -37q-63 0 -59 54l4 63l4 79l4 77v311q0 85 -13 176l118 -90h500v84q0 90 -7 136l112 -21q84 -14 84 -37q0 -26 -48 -37l-42 -9v-116h633l68 76l83 -54
q40 -26 40 -49q0 -27 -77 -61v-271q0 -59 11 -224q1 -8 1 -13q0 -46 -71 -46q-35 0 -35 26v35h-554q65 -128 182 -243zM1059 699h575v216h-629q15 -118 54 -216zM953 700q-33 110 -47 215h-533v-215h580zM998 971h636v199h-653q1 -20 5 -102q1 -40 12 -97zM898 971
q-10 71 -13 199h-512v-199h525zM1226 1679q-5 -6 -16 -19q-77 -94 -224 -185l-23 29q203 176 291 426l109 -47q49 -21 49 -41q0 -25 -49 -31l-42 -4q-28 -40 -51 -72h461l99 101l120 -105q17 -15 17 -26q0 -26 -33 -26h-708zM1406 1609q248 -108 248 -198q0 -49 -48 -49
q-32 0 -58 50q-47 93 -161 170zM538 1609q100 -43 135 -64q114 -67 114 -133q0 -49 -47 -49q-34 0 -59 50q-35 69 -80 109q-29 25 -82 61zM435 1674q-128 -177 -301 -297l-24 31q229 195 346 528l106 -47q47 -21 47 -45t-47 -27l-34 -3q-29 -49 -56 -83h349l99 102l120 -107
q17 -15 17 -26q0 -26 -33 -26h-589z" />
  </g>

</svg>
