<?xml version="1.0" standalone="no"?>
<!DOCTYPE svg PUBLIC "-//W3C//DTD SVG 1.1//EN" "http://www.w3.org/Graphics/SVG/1.1/DTD/svg11.dtd" >
<svg xmlns="http://www.w3.org/2000/svg" xmlns:xlink="http://www.w3.org/1999/xlink" version="1.1" viewBox="0 -410 2048 2048">
  <g transform="matrix(1 0 0 -1 0 1638)">
   <path fill="currentColor"
d="M1031 570q-29 7 -42 22q-10 12 -30 52q-31 64 -93 121q-25 23 -120 89q-117 -76 -237 -128l-18 34q144 85 281 215q130 125 204 272l112 -50q47 -20 47 -39q0 -31 -60 -34l-40 -2q-37 -45 -75 -85h416l68 76l101 -73q31 -22 31 -39q0 -24 -31 -32l-61 -15
q-141 -221 -240 -319q-161 -161 -427 -271q-111 -45 -308 -95l-7 43q297 90 529 258zM1080 610q162 137 285 372h-458l-57 -48q-46 -38 -65 -53q19 -9 29 -13q270 -123 270 -229q0 -10 -4 -29zM348 1324h1337l68 76l84 -54q40 -26 40 -49q0 -28 -78 -61v-863q0 -139 8 -194
q1 -10 1 -52q0 -12 1 -27v-6q0 -65 -74 -65q-40 0 -40 24v96h-1353v-112q0 -22 -38 -22q-69 0 -69 67q0 10 1 28v38q0 11 2 26q5 41 5 185v858q0 132 -16 195zM342 213h1353v1053h-1353v-1053zM399 1645q-111 -132 -301 -265l-24 28q218 187 351 485l122 -54q40 -18 40 -39
q0 -25 -46 -28l-51 -4q-25 -35 -47 -66h381l98 102l121 -107q16 -15 16 -26q0 -26 -26 -26h-634zM1212 1645q-80 -76 -223 -171l-25 30q119 105 186 202q59 83 111 199l116 -53q43 -20 43 -42q0 -24 -39 -27l-55 -3q-35 -49 -59 -78h479l99 102l120 -107q17 -15 17 -26
q0 -26 -27 -26h-743zM1390 1599q104 -50 143 -73q81 -48 81 -106q0 -51 -46 -51q-31 0 -58 53q-38 74 -139 145zM525 1599q22 -10 83 -39q131 -60 131 -130q0 -51 -48 -51q-17 0 -30 13q-4 4 -25 43q-30 58 -131 136z" />
  </g>

</svg>
