<?xml version="1.0" standalone="no"?>
<!DOCTYPE svg PUBLIC "-//W3C//DTD SVG 1.1//EN" "http://www.w3.org/Graphics/SVG/1.1/DTD/svg11.dtd" >
<svg xmlns="http://www.w3.org/2000/svg" xmlns:xlink="http://www.w3.org/1999/xlink" version="1.1" viewBox="0 -410 2048 2048">
  <g transform="matrix(1 0 0 -1 0 1638)">
   <path fill="currentColor"
d="M1200 1437l109 -24q86 -19 86 -45q0 -25 -51 -42l-40 -13v-101h407l98 101l121 -107q16 -14 16 -25q0 -26 -27 -26h-615v-175h365l68 76l83 -54q40 -26 40 -48q0 -28 -77 -62v-674q0 -141 -154 -170q-10 70 -41 91.5t-154 44.5l8 46q158 -27 190 -27q56 0 56 57v153h-384
v-48q0 -99 13 -219q3 -31 3 -50q0 -46 -56 -46t-56 42v321h-359v-333q0 -54 -57 -54q-55 0 -55 45q0 17 4 50q12 92 12 201v608q-2 81 -16 137l120 -87h351v175h-348q-117 0 -192 -8l-39 89q100 -24 231 -24h348v66q0 116 -8 159zM849 471h359v194h-359v-194zM1304 471h384
v194h-384v-194zM849 723h359v199h-359v-199zM1304 723h384v199h-384v-199zM259 1378q126 -50 183 -80q133 -72 133 -145q0 -54 -47 -54q-31 0 -65 48q-53 73 -103 113q-27 22 -121 81zM133 1033q142 -66 186 -91q130 -76 130 -153q0 -59 -48 -59q-28 0 -61 54
q-61 98 -138 154q-31 22 -90 60zM601 676l29 -24q-123 -203 -354 -493q-2 -15 -2 -23q-7 -79 -25 -79q-15 0 -63 64l-63 87q268 204 478 468zM1461 1420q121 -37 151 -51q72 -35 72 -77q0 -47 -43 -47q-26 0 -75 60q-35 43 -117 85zM403 1671q-115 -132 -304 -265l-24 28
q226 192 363 497l121 -55q40 -18 40 -39q0 -24 -45 -28l-52 -3q-30 -43 -54 -78h364l99 102l120 -107q17 -15 17 -26q0 -26 -27 -26h-618zM1200 1671q-87 -81 -227 -171l-24 30q193 165 302 401l116 -53q43 -20 43 -41q0 -25 -39 -28l-55 -4q-35 -49 -60 -77h479l98 102
l121 -107q17 -15 17 -26q0 -26 -27 -26h-744zM1364 1631q21 -9 31 -13q97 -40 132 -62q54 -34 54 -77q0 -19 -14 -33q-15 -16 -36 -16q-27 0 -53 46q-38 68 -132 128zM547 1622q21 -10 75 -34q117 -53 117 -115q0 -50 -48 -50q-15 0 -27 11q-2 2 -21 39q-26 52 -115 120z
" />
  </g>

</svg>
