<?xml version="1.0" standalone="no"?>
<!DOCTYPE svg PUBLIC "-//W3C//DTD SVG 1.1//EN" "http://www.w3.org/Graphics/SVG/1.1/DTD/svg11.dtd" >
<svg xmlns="http://www.w3.org/2000/svg" xmlns:xlink="http://www.w3.org/1999/xlink" version="1.1" viewBox="0 -410 2048 2048">
  <g transform="matrix(1 0 0 -1 0 1638)">
   <path fill="currentColor"
d="M791 783l68 76l83 -54q40 -26 40 -48q0 -27 -77 -62v-492q0 -94 -72 -140q-31 -19 -95 -36q-2 45 -19 65q-47 58 -200 73l8 43q169 -31 251 -31q33 0 33 70v479h-479q-68 0 -148 -11l-40 86q121 -18 188 -18h459zM1725 783l68 76l83 -54q40 -26 40 -48q0 -28 -77 -62
v-497q0 -68 -26 -99q-57 -68 -140 -72q1 44 -16 64q-47 59 -194 70l4 44q32 -3 121 -15q58 -8 100 -8q24 0 38 7q19 10 19 55v482h-478q-67 0 -148 -11l-40 86q121 -18 188 -18h458zM617 1446l86 -46q67 -35 67 -57t-44 -22h-42q-38 -25 -57 -37q-170 -111 -334 -169
q-88 -31 -191 -61l-11 34q369 151 526 358zM1103 1436h151l61 72l73 -50q42 -29 42 -50q0 -16 -66 -52q127 -104 315 -166q154 -50 277 -63v-38q-48 1 -79 -9q-25 -8 -55 -49q-336 107 -538 350h-183zM256 661q336 -25 336 -131q0 -45 -39 -45q-20 0 -85 47q-85 60 -217 87z
M736 451l8 -38q-237 -145 -488 -226l-5 -16q-17 -57 -34 -57q-12 0 -42 60l-49 101q275 44 610 176zM1164 653q140 -10 234 -31q122 -28 122 -94q0 -44 -39 -44q-22 0 -92 44q-91 58 -233 83zM1633 457l15 -37q-238 -145 -488 -225l-5 -17q-16 -56 -29 -56q-17 0 -47 60
l-49 101q281 43 603 174zM870 1334l101 -51q41 -21 41 -36q0 -23 -43 -27l-42 -4q-98 -79 -161 -124q-80 -57 -170 -90q442 8 715 32q-89 84 -171 139l25 36q328 -175 328 -279q0 -22 -16 -39t-36 -17q-25 0 -53 49q-20 35 -51 75q-243 -39 -748 -88l-3 -15q-10 -47 -31 -47
q-16 0 -37 44l-47 102q242 88 399 340zM1244 1677q-89 -86 -237 -163l-19 31q112 84 185 177q61 79 125 210l124 -59q28 -13 28 -30q0 -28 -39 -31l-54 -3q-37 -49 -59 -75h447l98 102l121 -107q17 -15 17 -26q0 -26 -34 -26h-703zM1423 1655q19 -8 29 -12q212 -87 212 -171
q0 -45 -46 -45q-32 0 -57 46q-34 65 -77 101q-27 22 -80 56zM421 1677q-144 -145 -347 -248l-19 31q266 178 421 474l123 -59q28 -13 28 -29q0 -29 -39 -32l-53 -3q-39 -50 -62 -77h356l98 102l121 -107q17 -16 17 -26q0 -26 -27 -26h-617zM578 1651q220 -94 220 -169
q0 -47 -44 -47q-30 0 -53 42q-43 80 -144 142z" />
  </g>

</svg>
