<?xml version="1.0" standalone="no"?>
<!DOCTYPE svg PUBLIC "-//W3C//DTD SVG 1.1//EN" "http://www.w3.org/Graphics/SVG/1.1/DTD/svg11.dtd" >
<svg xmlns="http://www.w3.org/2000/svg" xmlns:xlink="http://www.w3.org/1999/xlink" version="1.1" viewBox="0 -410 2048 2048">
  <g transform="matrix(1 0 0 -1 0 1638)">
   <path fill="currentColor"
d="M1244 1724q-75 -82 -206 -160l-22 32q155 125 219 345l132 -38q48 -14 48 -37q0 -25 -48 -31l-45 -5l-17 -25l-17 -24h434l95 96l117 -88q31 -23 31 -39q0 -26 -26 -26h-695zM399 1728q-62 -73 -114 -116q-64 -53 -186 -120l-21 33q121 96 182 173q81 105 125 241
l134 -36q49 -14 49 -38q0 -25 -49 -31l-46 -4q-14 -22 -33 -45h375l87 95l123 -95q23 -17 23 -34q0 -23 -23 -23h-626zM584 1687l12 35q44 -13 82 -23q129 -32 129 -90q0 -46 -44 -46q-26 0 -53 37q-24 33 -126 87zM1065 1325v-90l3 -50l4 -72q4 -66 4 -74q0 -52 -59 -52
q-47 0 -47 50v288h-697v-21q-1 -59 -20 -111q-35 -99 -108 -99q-51 0 -51 50q0 27 41 58q45 34 63 70q20 39 36 159h39v-49h697v98h-397q-56 0 -148 -11l-39 86q122 -17 187 -17h846l87 85l126 -91q16 -12 16 -26q0 -26 -27 -26h-556v-98h713l59 67l88 -70q38 -30 38 -47
q0 -18 -38 -26l-49 -10q-29 -46 -136 -151l-27 17q31 60 71 163h-719zM1550 1311l68 -64q35 -33 35 -47q0 -21 -22 -21q-12 0 -29 5l-43 11l-32 -4q-191 -23 -341 -26l-3 30q229 39 367 116zM1182 1112q37 0 187 4q141 3 239 -22q75 -20 75 -68q0 -45 -45 -45q-19 0 -67 20
q-158 64 -392 78zM399 1276q210 1 305 -14q121 -18 121 -77q0 -37 -41 -37q-24 0 -106 36q-83 38 -279 61v31zM879 1114l6 -33q-160 -35 -431 -66q-19 -56 -44 -56q-30 0 -43 56l-20 84q268 1 532 15zM247 964l112 -54h201l61 72l72 -50q42 -28 42 -49q0 -16 -64 -53v-119
q18 -16 28 -21q15 -7 15 -20q0 -24 -16 -24h-356v-7q0 -49 -60 -49q-35 0 -35 25v349zM342 699h235v152h-235v-152zM803 964l112 -54h208l61 72l72 -50q43 -29 43 -49q0 -17 -65 -53v-119q20 -17 29 -21q14 -8 14 -22q0 -22 -16 -22h-363v-15q0 -49 -61 -49q-34 0 -34 25
v357zM898 699h242v152h-242v-152zM1364 964l112 -54h209l59 72l74 -50q42 -28 42 -50q0 -16 -65 -52v-119q19 -16 29 -21q14 -8 14 -21q0 -23 -16 -23h-363v-26q0 -34 -56 -34q-39 0 -39 25v353zM1459 699h242v152h-242v-152zM205 483l-39 86q122 -19 188 -19h1296l95 83
l120 -89q16 -11 16 -25q0 -26 -26 -26h-785v-338h675l99 102l120 -107q17 -15 17 -26q0 -26 -27 -26h-1711q-66 0 -149 -11l-39 85q123 -17 188 -17h727v338h-616q-61 0 -149 -10zM1426 354q60 -18 124 -38q147 -47 147 -105q0 -39 -40 -39q-25 0 -67 38q-58 53 -189 116
q-62 -59 -115 -91q-20 -12 -139 -71l-22 27q174 124 261 287l124 -45q23 -8 23 -28q0 -21 -23 -23l-58 -3zM565 348q17 -4 44 -10q127 -30 181 -56t54 -67q0 -42 -44 -42q-24 0 -67 36q-58 50 -196 110q-58 -46 -120 -77q-36 -18 -166 -70l-19 26l33 21q117 70 186 138
q36 35 93 117l118 -48q18 -7 18 -22q0 -23 -34 -25l-46 -4zM1487 1685l13 35q43 -13 81 -23q129 -31 129 -90q0 -46 -44 -46q-27 0 -53 37q-24 33 -126 87z" />
  </g>

</svg>
