<?xml version="1.0" standalone="no"?>
<!DOCTYPE svg PUBLIC "-//W3C//DTD SVG 1.1//EN" "http://www.w3.org/Graphics/SVG/1.1/DTD/svg11.dtd" >
<svg xmlns="http://www.w3.org/2000/svg" xmlns:xlink="http://www.w3.org/1999/xlink" version="1.1" viewBox="0 -204 1024 1024">
  <g transform="matrix(1 0 0 -1 0 820)">
   <path fill="currentColor"
d="M96 969q20 -20 35 -40q19 -19 28 -36q11 -16 14 -31q4 -12 4 -23q0 -20 -5 -31q-8 -11 -20 -11q-6 0 -9 5q-4 4 -7 22q-4 24 -12 45q-8 23 -19 42q-9 21 -25 44zM310 965q48 -17 82 -32q6 -6 6 -12q0 -11 -17 -14q-21 -4 -30 -4q-11 -22 -26 -43q-16 -19 -31 -36
q-16 -16 -41 -31l-17 11q18 22 30 43q9 17 20 39q9 20 15 40q6 16 9 39zM36 787q44 -13 117 -13h158l41 45q34 -24 65 -49q7 -4 7 -9q0 -14 -14 -14h-174v-149h52l38 41q30 -25 58 -45q7 -4 7 -9q0 -15 -12 -15h-143v-86q0 -45 -5 -81h68l42 45q34 -25 65 -50q6 -4 6 -10
q0 -13 -15 -13h-168l-2 -22q-9 -58 -27 -109q-21 -59 -48 -100q-33 -49 -91 -100l-18 21q48 49 75 92q22 39 38 78q13 36 22 96q3 19 5 44h-33q-72 -2 -99 -7l-19 47q44 -12 118 -12h35q2 35 2 81v86h-15q-71 -2 -96 -7l-21 47q44 -12 117 -12h15v149h-34q-71 -2 -98 -8z
M568 944q53 -7 88 -18q15 -2 15 -15q0 -7 -15 -15q-15 -6 -28 -11v-304q0 -115 -12 -182q-11 -69 -31 -123q-20 -55 -50 -94q-40 -51 -78 -81q-46 -31 -100 -49l-14 20q74 36 112 76q34 34 60 82q23 39 39 100q12 48 18 116q1 6 1 11q-5 -7 -10 -15q-19 -27 -39 -48
q-16 -21 -36 -36q-10 -32 -16 -32t-45 77q33 11 58 26q25 13 54 38q17 14 39 36q2 38 2 78v193q0 105 -12 170zM453 776q39 -34 60 -69q21 -28 31 -56q7 -19 7 -39q0 -31 -24 -31q-6 0 -11 6q-4 5 -8 25q-13 51 -28 80q-14 33 -41 69zM712 948q56 -12 92 -29q6 -4 6 -13
q0 -6 -10 -11q-17 -7 -36 -12v-256q15 14 29 26q22 24 42 51q18 23 31 50q17 25 25 51q88 -52 88 -68q0 -12 -22 -12q-13 0 -35 5q-26 -31 -57 -58q-27 -26 -56 -45q-23 -18 -45 -32v-73q46 -23 81 -47q40 -26 59 -48q24 -18 33 -32q8 -10 11 -20t3 -18q0 -24 -19 -24
q-6 0 -12 4q-8 3 -24 21q-18 30 -43 55q-23 24 -50 50q-20 14 -39 30v-332q0 -24 3 -31q7 -12 23 -15q20 -2 51 -2q40 0 55 5q15 3 22 24q11 34 20 151l17 -5l-8 -131q0 -17 14 -28q22 -14 22 -24q0 -12 -9 -17q-11 -7 -42 -11q-37 -8 -97 -8q-41 0 -73 4q-27 2 -37 17
q-9 12 -9 43v748q0 35 -4 67z" />
  </g>

</svg>
