<?xml version="1.0" standalone="no"?>
<!DOCTYPE svg PUBLIC "-//W3C//DTD SVG 1.1//EN" "http://www.w3.org/Graphics/SVG/1.1/DTD/svg11.dtd" >
<svg xmlns="http://www.w3.org/2000/svg" xmlns:xlink="http://www.w3.org/1999/xlink" version="1.1" viewBox="0 -410 2048 2048">
  <g transform="matrix(1 0 0 -1 0 1638)">
   <path fill="currentColor"
d="M418 1043v244h-59q-113 0 -192 -8l-38 90q91 -24 230 -24h59v233q-124 -17 -305 -23l-3 38q172 22 308 52v129q0 115 -8 160l109 -24q86 -19 86 -46q0 -25 -51 -41l-40 -14v-138q172 64 253 118l91 -92q16 -16 16 -30q0 -20 -26 -20q-10 0 -17 2l-51 10
q-120 -35 -266 -66v-248h90l98 101l121 -106q17 -14 17 -26q0 -27 -28 -27h-298v-244h147l98 100l121 -107q17 -14 17 -24q0 -26 -27 -26h-356v-100q331 -161 331 -277q0 -57 -46 -57q-31 0 -60 57q-65 126 -225 231v-495q0 -102 12 -219q4 -30 4 -50q0 -46 -57 -46
q-55 0 -55 42v698q-61 -141 -168 -288q-96 -133 -179 -209l-26 29q124 144 224 359q80 171 115 325h-86q-116 0 -192 -8l-38 88q92 -23 230 -23h120zM1509 849l62 72l72 -50q43 -29 43 -49q0 -19 -65 -51v-260l38 -30q19 -15 19 -30q0 -18 -19 -18h-428v-50q0 -40 -54 -40
q-48 0 -48 45q0 20 3 69q5 53 5 122v333l113 -63h259zM1231 488h295v303h-295v-303zM1729 1816l68 76l84 -54q41 -27 41 -49q0 -27 -78 -61v-254l37 -28q28 -21 28 -32q0 -22 -25 -22h-835v-240h751l63 70l84 -53q40 -25 40 -49q0 -28 -76 -61q-34 -604 -71 -778
q-29 -141 -114 -188q-63 -35 -151 -47q-2 71 -46 93q-6 3 -196 57l6 42q50 -11 157 -31q114 -22 145 -22q64 0 90 80q54 168 86 829h-768q-10 -369 -50 -557q-51 -246 -213 -433l-25 31q117 173 157 440q37 245 37 594v577q0 40 -11 142l111 -72h674zM1049 1762v-316h699
v316h-699z" />
  </g>

</svg>
