<?xml version="1.0" standalone="no"?>
<!DOCTYPE svg PUBLIC "-//W3C//DTD SVG 1.1//EN" "http://www.w3.org/Graphics/SVG/1.1/DTD/svg11.dtd" >
<svg xmlns="http://www.w3.org/2000/svg" xmlns:xlink="http://www.w3.org/1999/xlink" version="1.1" viewBox="0 -410 2048 2048">
  <g transform="matrix(1 0 0 -1 0 1638)">
   <path fill="currentColor"
d="M1465 857l62 72l72 -50q43 -29 43 -49t-66 -51v-234q22 -19 35 -28q22 -15 22 -30q0 -24 -17 -24h-431v-50q0 -40 -55 -40q-45 0 -45 43l12 207v288l113 -54h255zM1185 519h299v280h-299v-280zM594 1833l68 77l81 -55q43 -29 43 -49q0 -32 -77 -59v-1498
q0 -145 -158 -171q-3 67 -44 93q-33 21 -159 43l9 42q164 -27 200 -27q57 0 57 57v673q-118 -86 -245 -165l6 -42q1 -1 1 -5q0 -25 -23 -25q-21 0 -45 30l-46 58l-2 -34q-10 -211 -44 -360q-35 -154 -123 -338l-36 14q54 159 74 284q22 134 32 317q8 144 8 207v837
q0 84 -13 173l108 -77h328zM614 1213q-17 -14 -36 -14q-26 0 -54 29q-83 84 -258 137v-340q0 -89 -3 -166q176 65 351 156v198zM614 1774h-348v-363l28 -5q117 -21 195 -41q94 -25 125 -64v473zM1677 1823l68 76l84 -54q41 -26 41 -49q0 -28 -78 -61v-254q23 -21 37 -31
q20 -15 20 -26q0 -25 -17 -25h-835v-239h789l63 70l84 -54q40 -26 40 -48q0 -28 -76 -61l-5 -87q-35 -591 -76 -731q-34 -116 -128 -158q-57 -26 -127 -36q-1 52 -46 79q-58 35 -234 78l6 42q78 -15 177 -36q85 -19 124 -19q93 0 126 75q40 90 65 403q20 254 20 425h-802
q-10 -387 -49 -589q-49 -257 -214 -458l-28 28q99 156 138 346q45 216 53 571q1 55 2 113q2 50 2 73v462q0 184 -8 247l109 -72h675zM997 1765v-312h699v312h-699z" />
  </g>

</svg>
