<?xml version="1.0" standalone="no"?>
<!DOCTYPE svg PUBLIC "-//W3C//DTD SVG 1.1//EN" "http://www.w3.org/Graphics/SVG/1.1/DTD/svg11.dtd" >
<svg xmlns="http://www.w3.org/2000/svg" xmlns:xlink="http://www.w3.org/1999/xlink" version="1.1" viewBox="0 -410 2048 2048">
  <g transform="matrix(1 0 0 -1 0 1638)">
   <path fill="currentColor"
d="M1066 1913q234 -159 234 -265q0 -54 -47 -54q-26 0 -39 17q-8 11 -21 64q-25 94 -148 214zM1678 1915l126 -53q29 -13 29 -29q0 -21 -29 -25l-59 -8q-78 -121 -196 -229l-27 23q97 145 156 321zM1736 1560l68 75l84 -54q40 -26 40 -48q0 -28 -78 -62v-226l34 -24
q29 -20 29 -36q0 -22 -21 -22h-441v-282h342l69 76l83 -54q41 -27 41 -49q0 -28 -78 -62q-6 -36 -22 -168q-27 -224 -108 -305q-50 -50 -147 -73q-4 56 -28 76q-39 32 -139 60l8 40q152 -40 187 -40q74 0 105 114q33 123 43 325h-356v-487q0 -62 10 -181q4 -40 4 -63
q0 -60 -65 -60q-21 0 -35 8q-12 7 -12 43v663q-95 -199 -236 -349q-77 -82 -168 -143q-76 -52 -103 -71l-24 35q308 240 452 605h-249q-16 -20 -46 -20q-44 0 -44 34q0 5 15 71q9 36 22 129q21 136 38 245l97 -59h246v282h-208q-63 0 -149 -11l-39 86q123 -18 188 -18h591z
M1451 1503v-282h302v282h-302zM1353 881v282h-263l-26 -149l-23 -133h312zM381 1471q88 -58 143 -106q93 -81 93 -157q0 -61 -52 -61q-22 0 -33 15q-9 12 -27 76q-25 92 -146 209zM334 940q-1 -18 -2 -58q-9 -272 -20 -352q-25 -194 -98 -334q-29 -56 -91 -143l-31 20
q98 194 124 408q19 157 23 417l1 27q-32 -4 -71 -12l-10 -40q-9 -32 -26 -32q-19 0 -28 32l-39 134q128 6 174 11v566q0 72 -8 125l102 -61q56 101 103 274l121 -51q37 -15 37 -36q0 -31 -48 -31h-42q-22 -31 -33 -46q-54 -76 -94 -116h286l68 76l77 -48q48 -31 48 -54
q0 -28 -77 -62v-470q42 7 131 21l11 -35q-75 -18 -142 -41v-805q0 -142 -154 -171q-11 71 -47 93q-34 22 -159 44l8 46q167 -27 201 -27q56 0 56 57v741q-39 -4 -99 -18q-112 -25 -252 -49zM334 1028q20 3 138 14q27 2 213 27v515h-33h-318v-556zM389 852q236 -155 236 -263
q0 -25 -16.5 -45t-36.5 -20q-17 0 -29 13q-12 14 -37 98q-25 81 -139 192z" />
  </g>

</svg>
