<?xml version="1.0" standalone="no"?>
<!DOCTYPE svg PUBLIC "-//W3C//DTD SVG 1.1//EN" "http://www.w3.org/Graphics/SVG/1.1/DTD/svg11.dtd" >
<svg xmlns="http://www.w3.org/2000/svg" xmlns:xlink="http://www.w3.org/1999/xlink" version="1.1" viewBox="0 -410 2048 2048">
  <g transform="matrix(1 0 0 -1 0 1638)">
   <path fill="currentColor"
d="M1072 1235v-355q0 -103 -148 -139q0 74 -61 97q-10 4 -77 18q-26 5 -60 14v42q34 -6 122 -23q42 -9 91 -9q39 0 39 46v465q0 118 -9 160l108 -24q86 -19 86 -45q0 -29 -50 -42l-41 -11v-123q42 -41 77 -71q244 125 422 264l64 -54q53 -42 53 -58q0 -23 -41 -23
q-20 0 -71 9q-149 -79 -387 -173q164 -123 310 -181q140 -56 469 -107l-3 -39q-20 1 -32 1q-70 0 -97 -67q-322 74 -545 231q-109 77 -219 197zM1535 694l68 76l84 -54q40 -26 40 -49q0 -27 -77 -61v-296q0 -66 3 -110q5 -57 5 -71q0 -20 -5 -34q-8 -26 -47 -26
q-55 0 -55 42v32h-1067v-22q0 -51 -58 -51q-48 0 -48 50q0 10 4 80q4 67 4 68q4 68 4 72v292q0 42 -11 136l111 -74h1045zM484 202h1067v192h-1067v-192zM484 450h1067v184h-1067v-184zM1397 1645l-22 -126q-9 -51 -47 -51q-56 0 -56 40q0 6 1 11l22 126h-30q-86 0 -148 -8
l-38 88q90 -23 182 -23h43l13 73q3 21 22 148l117 -28q59 -14 59 -38t-50 -37l-39 -10l-19 -108h312l99 102l120 -107q17 -15 17 -26q0 -26 -27 -26h-531zM665 1645l11 -130q1 -10 1 -12q0 -45 -57 -45q-42 0 -44 38l-9 149h-253q-118 0 -192 -8l-38 88q97 -23 230 -23h249
l-14 220l122 -22q65 -11 65 -36q0 -23 -42 -39l-41 -16l8 -107h82l99 102l120 -107q17 -15 17 -26q0 -26 -27 -26h-287zM758 1359l56 67l72 -50q42 -29 42 -49q0 -21 -81 -62q-133 -202 -279 -293q-145 -89 -455 -179l-13 38q286 113 407 198q156 110 246 272h-328
q-44 1 -64 1q-90 0 -127 -9l-34 83q81 -17 225 -17h333z" />
  </g>

</svg>
