<?xml version="1.0" standalone="no"?>
<!DOCTYPE svg PUBLIC "-//W3C//DTD SVG 1.1//EN" "http://www.w3.org/Graphics/SVG/1.1/DTD/svg11.dtd" >
<svg xmlns="http://www.w3.org/2000/svg" xmlns:xlink="http://www.w3.org/1999/xlink" version="1.1" viewBox="0 -410 2048 2048">
  <g transform="matrix(1 0 0 -1 0 1638)">
   <path fill="currentColor"
d="M723 1045q-76 -70 -149 -118l-25 28q123 103 220 246q114 168 155 343l119 -32q52 -15 52 -35q0 -28 -64 -33q66 -45 114 -76q241 -159 241 -253q0 -26 -23 -42q-11 -7 -24 -7q-36 0 -83 80q-76 132 -256 275q-104 -211 -252 -353q85 -15 192 -15h169l86 90l123 -95
q18 -14 18 -26q0 -26 -28 -26h-255v-221h148l86 89l123 -95q17 -12 17 -26q0 -26 -27 -26h-347v-438q37 9 141 37q121 34 165 48l14 -40q-163 -77 -577 -203l-43 -12l-9 -39q-8 -35 -25 -35q-14 0 -30 30l-70 131q194 29 338 62v459h-115q-119 0 -192 -8l-38 88
q98 -22 230 -22h115v221h-17q-118 0 -192 -8zM1617 39q-12 70 -47 92q-33 21 -159 44l7 46q164 -27 205 -27q53 0 53 57v68v647h-46q-117 0 -192 -8l-35 87q106 -22 227 -22h129l85 89l112 -89q24 -19 24 -33q0 -24 -24 -24h-185v-757q0 -142 -154 -170zM297 839
q-75 -67 -213 -155l-23 33q127 107 211 212q85 105 213 348l114 -46q39 -15 39 -35q0 -24 -85 -35q-92 -141 -174 -240l49 -26q25 -13 25 -31q0 -16 -15 -25q-8 -5 -31 -15q-5 -2 -14 -7v-489q0 -79 10 -199q3 -28 3 -45q0 -58 -63 -58q-46 0 -46 39v774zM399 1571l125 -53
q30 -13 30 -31q0 -14 -17 -22q-8 -4 -73 -10q-105 -136 -166 -189q-93 -80 -203 -135l-21 34q198 152 325 406zM1458 1331l-35 87q106 -22 226 -22h81l88 89l115 -84q24 -18 24 -35q0 -27 -24 -27h-284q-117 0 -191 -8zM1465 1732h285l95 98l121 -103q17 -15 17 -26
q0 -26 -27 -26h-501l-20 -108q-7 -37 -14 -43q-12 -10 -37 -10q-53 0 -53 30q0 3 4 20l25 111h-43q-108 0 -192 -8l-34 87q105 -22 226 -22h52q22 137 28 189l120 -25q54 -11 54 -33q0 -16 -16 -24q-5 -3 -73 -25zM670 1732h112l83 87l121 -92q17 -13 17 -26q0 -26 -27 -26
h-299l13 -97q1 -8 1 -12q2 -33 -58 -33q-35 0 -38 41l-8 101h-250q-108 0 -191 -8l-35 87q105 -22 226 -22h241l-21 183l98 -13q85 -12 85 -35q0 -20 -75 -55zM1247 667l136 -46q32 -11 32 -27q0 -21 -27 -27l-58 -13q-72 -123 -151 -210l-32 18q67 153 100 305zM665 635
q175 -174 175 -279q0 -45 -33 -66q-15 -10 -30 -10q-36 0 -41 74q-5 77 -34 145q-13 32 -65 116z" />
  </g>

</svg>
