<?xml version="1.0" standalone="no"?>
<!DOCTYPE svg PUBLIC "-//W3C//DTD SVG 1.1//EN" "http://www.w3.org/Graphics/SVG/1.1/DTD/svg11.dtd" >
<svg xmlns="http://www.w3.org/2000/svg" xmlns:xlink="http://www.w3.org/1999/xlink" version="1.1" viewBox="0 -204 1024 1024">
  <g transform="matrix(1 0 0 -1 0 820)">
   <path fill="currentColor"
d="M48 898q44 -12 117 -12h131l-12 102q45 -6 80 -12q11 -3 11 -9q0 -5 -12 -12q-14 -8 -26 -11l7 -58h44l38 41q31 -24 59 -45q7 -5 7 -10q0 -14 -13 -14h-132l7 -57q0 -10 -10 -14q-12 -7 -24 -7q-11 0 -13 10l-8 68h-134q-71 -2 -97 -7zM693 984q46 -5 84 -21q6 -3 6 -9
q0 -8 -16 -13l-31 -6l-4 -53h132l45 51l71 -54q8 -5 8 -11q0 -14 -16 -14h-242l-6 -67q-3 -19 -28 -19q-22 0 -22 12l1 11q2 10 4 29l4 34h-18q-71 -2 -97 -7l-20 47q44 -12 117 -12h20q6 60 8 102zM242 780q50 -10 85 -24q8 -3 8 -11t-18 -12q-20 -5 -38 -5l-3 -6
q43 -21 75 -42q42 -24 65 -41q23 -16 35 -27q8 -11 13 -22q5 -8 5 -18q-1 -30 -22 -30q-9 0 -16 4q-8 6 -34 41q-27 36 -60 64q-26 23 -69 51q-8 -19 -16 -34q-18 -31 -41 -61q-26 -31 -48 -54q-22 -25 -48 -46q-28 -25 -60 -43l-19 22q37 25 64 53q26 27 52 59q26 35 45 67
q18 30 28 58q10 25 17 57zM174 530q44 -12 117 -12h25l37 38q30 -22 56 -43q7 -4 7 -9q0 -14 -12 -14h-113q-71 -2 -97 -7zM100 398q40 -8 115 -8h151l33 35q37 -27 67 -58q4 -3 4 -7q0 -8 -21 -12q-17 -3 -33 -7q-27 -44 -64 -90q-34 -46 -70 -83q11 -8 18 -14
q22 -16 33 -28q8 -11 12 -21q5 -9 5 -19q-1 -30 -22 -30q-8 0 -15 4q-7 6 -32 42t-56 65q-31 30 -85 67l12 14q50 -25 88 -52q12 -8 22 -14q41 47 64 91q28 46 42 89h-153q-80 0 -97 -7zM460 742q44 -12 117 -12h287l41 45q34 -25 64 -49q7 -4 7 -10q0 -14 -14 -14h-229
q-10 -23 -21 -41q-12 -23 -30 -47h164l34 42q37 -23 55 -43q7 -7 7 -13q0 -9 -38 -32v-202q0 -74 3 -98q1 -28 1 -46q0 -16 -11 -24q-14 -6 -24 -6q-17 0 -17 13v13h-213q29 -17 50 -32q4 -3 4 -10q0 -10 -18 -10q-13 0 -31 2q-35 -31 -72 -52q-36 -24 -72 -40
q-44 -20 -87 -32l-13 22q65 28 107 56q45 26 71 50q21 22 36 46h-58v-14q0 -12 -16 -12q-9 0 -24 6q-12 9 -12 24q0 18 3 47q4 22 4 97v220q0 41 -7 71l61 -43h77q10 24 16 49q6 21 8 39h-93q-71 -2 -97 -7zM560 246h296v96h-296v-96zM560 370h296v92h-296v-92zM560 490h296
v96h-296v-96zM768 192q47 -12 93 -29q46 -20 69 -33q24 -14 32 -24q9 -10 15 -20q3 -7 3 -16q0 -22 -20 -22q-5 0 -13 6q-8 5 -19 15q-19 17 -35 29q-21 13 -49 28q-32 20 -88 46z" />
  </g>

</svg>
