<?xml version="1.0" standalone="no"?>
<!DOCTYPE svg PUBLIC "-//W3C//DTD SVG 1.1//EN" "http://www.w3.org/Graphics/SVG/1.1/DTD/svg11.dtd" >
<svg xmlns="http://www.w3.org/2000/svg" xmlns:xlink="http://www.w3.org/1999/xlink" version="1.1" viewBox="0 -410 2048 2048">
  <g transform="matrix(1 0 0 -1 0 1638)">
   <path fill="currentColor"
d="M224 752v-24q0 -37 -52 -37q-50 0 -50 43q0 15 4 67q4 51 4 133v626l120 -63h94v244q0 122 -8 160l109 -24q86 -19 86 -45q0 -29 -50 -42l-41 -11v-282h96l68 76l84 -54q40 -26 40 -48q0 -17 -12 -27q-9 -8 -63 -36v-562l53 -36q27 -17 27 -33q0 -25 -45 -25h-248v-422
q41 13 61 18q55 14 95 32q-29 73 -78 145l30 24q202 -228 202 -338q0 -29 -18 -47q-21 -22 -46 -22q-38 0 -50 90l-8 39q-7 38 -14 63q-251 -124 -394 -171q-8 -72 -29 -72q-17 0 -38 42l-58 119q122 16 249 50v450h-120zM224 810h120v629h-120v-629zM557 1439h-117v-629
h117v629zM1228 380q-56 -34 -158 -74q-23 -9 -98 -41q-24 -11 -72 -31l-5 -34q-7 -46 -28 -46t-40 41l-58 119q136 260 213 610h-64q-70 0 -149 -9l-39 85q119 -17 188 -17h84v431h-45q-69 0 -149 -11l-39 86q116 -17 188 -17h45v289q0 114 -7 146l109 -24q85 -19 85 -45
q0 -31 -48 -42l-45 -11v-313h40l80 81l114 -86q17 -13 17 -26q0 -27 -28 -27h-223v-431h86l80 81l110 -88q20 -16 20 -30q0 -22 -26 -22h-278q-80 -224 -96 -265q-49 -127 -151 -326q196 36 373 83q-41 108 -95 182l22 26q219 -211 219 -343q0 -35 -22 -55q-14 -13 -31 -13
q-26 0 -42 32q-6 10 -15 54q-9 38 -22 81zM1432 1830l118 -89h242l68 76l84 -54q40 -26 40 -48q0 -29 -80 -61v-1215q0 -142 -155 -170q-10 68 -37 90q-26 20 -128 42l8 46q38 -7 57 -10q73 -13 103 -13q56 0 56 57v1203h-265v-1362q0 -70 11 -220q1 -9 1 -15q0 -43 -57 -43
q-50 0 -50 50v1598q0 75 -16 138z" />
  </g>

</svg>
