<?xml version="1.0" standalone="no"?>
<!DOCTYPE svg PUBLIC "-//W3C//DTD SVG 1.1//EN" "http://www.w3.org/Graphics/SVG/1.1/DTD/svg11.dtd" >
<svg xmlns="http://www.w3.org/2000/svg" xmlns:xlink="http://www.w3.org/1999/xlink" version="1.1" viewBox="0 -410 2048 2048">
  <g transform="matrix(1 0 0 -1 0 1638)">
   <path fill="currentColor"
d="M1482 1520h270l99 101l120 -106q17 -15 17 -25q0 -27 -27 -27h-479q18 -415 102 -730q102 184 198 525l112 -51q52 -23 52 -45q0 -10 -11 -19q-19 -16 -48 -16h-30q-23 -51 -119 -279q-30 -72 -116 -221q69 -218 139 -327q31 -49 52 -49q17 0 38 57l92 249l38 -22
l-64 -242q-15 -55 -15 -96q0 -30 26 -95q3 -7 3 -16q0 -27 -33 -27q-68 0 -148 84q-90 94 -200 370q-123 -177 -239 -272q-132 -108 -216 -149l-21 29q146 115 231 210q105 117 210 288q-114 372 -127 844h-281q-117 0 -192 -8l-38 88q95 -23 230 -23h281l-7 265
q-4 139 -8 160l109 -24q86 -19 86 -45q0 -30 -49 -43l-42 -11zM1051 884h-34q-69 0 -149 -11l-39 86q123 -18 188 -18h38q2 55 2 106q0 211 -9 263l109 -24q86 -19 86 -45q0 -30 -50 -43l-43 -11v-246h62l80 81l114 -86q17 -12 17 -26q0 -26 -27 -26h-249
q-16 -289 -112 -465q-83 -153 -232 -268l-26 28q248 240 274 705zM1638 1875q206 -110 206 -201q0 -36 -29 -52q-10 -6 -21 -6q-32 0 -47 45q-32 98 -126 188zM476 1085q55 -37 102 -66q74 106 129 218l91 -61q41 -27 41 -46q0 -25 -40 -25q-8 0 -18 1l-31 3
q-95 -83 -139 -114q132 -104 132 -183q0 -40 -28 -60q-11 -9 -24 -9q-37 0 -59 69q-38 116 -144 213v-648q0 -104 12 -218q3 -31 3 -50q0 -46 -57 -46q-54 0 -54 42v887q-105 -102 -310 -215l-19 35q333 214 541 654h-289q-108 0 -192 -8l-38 88q93 -22 230 -22h276l68 76
l84 -54q40 -26 40 -49q0 -28 -78 -61q-104 -194 -229 -351zM315 1919q210 -143 210 -242q0 -64 -54 -64q-40 0 -53 57q-26 112 -125 225z" />
  </g>

</svg>
