<?xml version="1.0" standalone="no"?>
<!DOCTYPE svg PUBLIC "-//W3C//DTD SVG 1.1//EN" "http://www.w3.org/Graphics/SVG/1.1/DTD/svg11.dtd" >
<svg xmlns="http://www.w3.org/2000/svg" xmlns:xlink="http://www.w3.org/1999/xlink" version="1.1" viewBox="0 -410 2048 2048">
  <g transform="matrix(1 0 0 -1 0 1638)">
   <path fill="currentColor"
d="M1535 418q188 -175 469 -237l-4 -32q-55 -4 -85 -18q-32 -14 -51 -52q-249 112 -392 266q-174 -173 -438 -274l-11 36q167 95 229 143q103 80 170 158q-151 207 -217 542q-83 -116 -161 -193l-28 23q277 367 364 772l144 -47q38 -13 38 -34q0 -29 -50 -33l-44 -3
q-16 -32 -47 -104q-13 -30 -32 -70h343l74 72l70 -62q37 -33 37 -55q0 -17 -28 -30l-48 -22q-12 -45 -56 -212q-85 -323 -246 -534zM1242 1002q83 -345 235 -523q89 127 157 308q-20 -21 -37 -21q-18 0 -36 16q-10 9 -45 69q-77 134 -225 233q-26 -44 -49 -82zM1646 822
q56 171 94 385h-380q-21 -45 -47 -86q147 -85 229 -152q101 -83 104 -147zM1302 1657q-17 19 -27 51q-23 70 -87 142q-9 10 -86 79l20 29q109 -64 158 -101q103 -76 103 -141q0 -29 -28 -59h375l98 102l116 -105q20 -18 20 -34q0 -20 -25 -20h-968q-108 0 -191 -8l-39 88
q96 -23 230 -23h331zM923 1126l32 -13q54 -21 54 -41q0 -25 -31 -35l-28 -10v-659q0 -97 13 -219q3 -31 3 -50q0 -46 -53 -46q-54 0 -54 43v945q-84 -91 -163 -159l-28 26q148 158 244 369q73 160 95 283l127 -53q47 -20 47 -41q0 -25 -51 -31l-43 -5q-78 -171 -164 -304z
M277 1926q198 -142 198 -230q0 -31 -21 -51q-15 -14 -34 -14q-37 0 -49 54q-24 108 -119 218zM394 1062v-21q18 -12 47 -30q18 -11 27 -17q75 85 131 204l86 -57q40 -27 40 -45q0 -25 -43 -25h-14l-32 3q-94 -79 -134 -104q150 -109 150 -196q0 -41 -28 -61q-11 -9 -23 -9
q-37 0 -60 69q-38 118 -147 216v-641q0 -101 13 -219q3 -31 3 -50q0 -46 -56 -46q-55 0 -55 42v863q-88 -101 -222 -202l-24 28q308 290 446 720h-214q-112 0 -191 -8l-39 87q94 -22 230 -22h203l68 76l83 -54q40 -25 40 -48q0 -27 -80 -60q-98 -228 -205 -393z" />
  </g>

</svg>
