<?xml version="1.0" standalone="no"?>
<!DOCTYPE svg PUBLIC "-//W3C//DTD SVG 1.1//EN" "http://www.w3.org/Graphics/SVG/1.1/DTD/svg11.dtd" >
<svg xmlns="http://www.w3.org/2000/svg" xmlns:xlink="http://www.w3.org/1999/xlink" version="1.1" viewBox="0 -410 2048 2048">
  <g transform="matrix(1 0 0 -1 0 1638)">
   <path fill="currentColor"
d="M725 1192v-984q0 -78 -48 -120q-27 -24 -100 -50q0 56 -25 79q-36 34 -161 54v50q130 -28 180 -28q63 0 63 76v923h-138v-240q-15 -370 -89 -556q-67 -166 -278 -362l-28 30q166 179 234 396q65 206 65 492v240h-72q-119 0 -192 -8l-35 87q129 -25 227 -25h191v314h-131
q-110 0 -192 -8l-35 87q105 -23 227 -23h131v139q0 114 -8 160l116 -26q78 -17 78 -43q0 -29 -49 -42l-41 -12v-176h125l88 95l113 -82q34 -24 34 -43q0 -26 -25 -26h-335v-314h164l96 96l119 -89q25 -19 25 -34q0 -27 -25 -27h-269zM787 1033q74 -91 114 -166
q68 -131 68 -207q0 -27 -14.5 -47t-33.5 -20q-52 0 -56 83q-7 136 -109 338zM209 1034l125 -36q27 -8 27 -23q0 -22 -37 -32l-28 -9q-56 -204 -88 -285q-34 -88 -98 -191l-31 24q78 188 130 552zM1613 748v-504q0 -43 21 -56q23 -14 95 -14q87 0 117 20q28 18 42 117
q15 107 20 152l34 -7l-4 -184q-1 -23 6 -42q5 -15 45 -52q13 -11 13 -27q0 -70 -252 -70q-137 0 -176 17q-59 25 -59 111v539h-119q-27 -292 -140 -445q-114 -153 -335 -254l-15 38q195 130 274 256q100 158 114 405h-87v-11q0 -54 -56 -54q-55 0 -55 45q0 17 4 50
q11 92 11 210v723q0 48 -9 164l114 -76h492l69 76l83 -54q40 -25 40 -48q0 -28 -77 -62v-714q0 -104 13 -220q3 -31 3 -51q0 -45 -57 -45q-55 0 -55 47v20h-114zM1207 804h520v297h-520v-297zM1207 1157h520v271h-520v-271zM1207 1484h520v256h-520v-256z" />
  </g>

</svg>
