<?xml version="1.0" standalone="no"?>
<!DOCTYPE svg PUBLIC "-//W3C//DTD SVG 1.1//EN" "http://www.w3.org/Graphics/SVG/1.1/DTD/svg11.dtd" >
<svg xmlns="http://www.w3.org/2000/svg" xmlns:xlink="http://www.w3.org/1999/xlink" version="1.1" viewBox="0 -140 1000 1000">
  <g transform="matrix(1 0 0 -1 0 860)">
   <path fill="currentColor"
d="M850 847v-422q0 -3 1 -15.5t1 -14.5q0 -25 -48 -25q-12 0 -14.5 4.5t-2.5 24.5h-21v-232q0 -26 5 -34t24 -8h51q20 0 31 39l26 101l29 -12l-11 -87l-1 -14q0 -10 3 -14t20 -17q2 -4 2 -6q0 -25 -90 -25h-65q-49 0 -67.5 15.5t-18.5 55.5v238h-27q-8 -130 -68 -211.5
t-166 -141.5l-11 14q174 124 180 339h-21l1 -22q0 -25 -45 -25q-18 0 -18 20l1 41l-1 521l63 -40h189q15 21 26 21q7 0 24 -12l30 -26q11 -11 11 -15q0 -8 -29 -16zM396 549l20 23q4 4 14 4q11 0 35 -20t24 -24t-21 -18q2 0 -6 -6l4 1v-177q0 -11 1 -18h-1l2 -10
q0 -9 -14 -15.5t-32 -6.5q-13 0 -15.5 4.5t-2.5 24.5h-89v-77h119q19 24 26 35q1 1 13 1q13 0 31 -20l30 -26l-5 -12h-214v-79q0 -24 1 -35q2 -6 2 -12q0 -13 -16 -20.5t-30 -7.5q-21 0 -21 19q0 5 1 28t1 27v80h-190v22h190v77h-82q1 -3 1 -11h-1l2 -8q0 -6 -16 -13t-30 -7
t-17 6t-3 24l1 25v205l-5 51l66 -34h227zM591 723v-141h196v141h-196zM591 559v-137h196v137h-196zM591 872v-127h196v127h-196zM172 527v-91h233v91h-233zM172 414v-80h233v80h-233zM431 888l29 41h13l51 -49v-15l-142 1v-88h56l22 26h12l49 -38v-11l-16 -17v-125l-5 -8
l-44 -12l-14 5l1 35h-308v-22l-7 -13l-49 -12l-8 4v226l68 -38h58v88h-149v22h383zM382 656h60v100h-60v-100zM259 778h61v88h-61v-88zM259 656h61v100h-61v-100zM135 656h61v100h-61v-100z" />
  </g>

</svg>
