<?xml version="1.0" standalone="no"?>
<!DOCTYPE svg PUBLIC "-//W3C//DTD SVG 1.1//EN" "http://www.w3.org/Graphics/SVG/1.1/DTD/svg11.dtd" >
<svg xmlns="http://www.w3.org/2000/svg" xmlns:xlink="http://www.w3.org/1999/xlink" version="1.1" viewBox="0 -410 2048 2048">
  <g transform="matrix(1 0 0 -1 0 1638)">
   <path fill="currentColor"
d="M1652 1053q117 89 166 166l86 -64q37 -28 37 -42q0 -23 -26 -23q-12 0 -30 4l-34 8q-32 -14 -76 -38q-38 -20 -89 -39q146 -114 280 -145l-4 -37q-12 1 -18 1q-49 0 -81 -61q-139 82 -221 167q-67 70 -198 256l33 21q62 -76 175 -174zM336 624l79 -46q49 -26 49 -43
q0 -27 -41 -27h-34q-91 -186 -132 -250q-79 -121 -146 -183l-26 26q175 270 222 523h-56v-20q0 -54 -59 -54q-52 0 -52 45q0 17 4 50q12 95 12 210v771q0 84 -12 256l116 -87h337l60 76l84 -55q40 -25 40 -48q0 -28 -77 -62v-842q0 -30 3 -85q3 -70 4 -90q2 -63 3 -80
q1 -9 1 -15q0 -43 -56 -43q-50 0 -50 37v36h-273zM251 1459h358v277h-358v-277zM251 682h358v336h-358v-336zM251 1073h358v327h-358v-327zM520 558q229 -202 229 -337q0 -58 -53 -58q-40 0 -49 66q-17 126 -151 309zM1731 1778l98 101l121 -106q17 -15 17 -26
q0 -27 -27 -27h-991v-138q92 -20 218 -20h474l98 102l121 -107q17 -15 17 -26q0 -27 -27 -27h-683q-110 0 -192 -9l-26 54v-199q93 -20 192 -20h574l98 102l121 -107q17 -15 17 -26q0 -26 -27 -26h-730v-381q164 39 304 84l17 -32q-96 -66 -318 -155l-3 -24q-5 -45 -29 -45
q-23 0 -43 49l-37 95l12 4v405q-29 -3 -94 -5q-14 -1 -28 -3l-26 53v-83q0 -187 -20 -310q-29 -180 -151 -335l-30 24q12 26 18 38q52 113 65 195q25 148 25 411v408q0 25 -4 76q-4 50 -7 111l112 -75h774zM932 696l119 -63h696l61 75l83 -54q40 -26 40 -48q0 -28 -78 -62
v-313l29 -28q28 -23 28 -35q0 -24 -33 -24h-851v-32q0 -40 -56 -40q-50 0 -50 44l12 206v374zM1026 203h732v372h-732v-372z" />
  </g>

</svg>
