<?xml version="1.0" standalone="no"?>
<!DOCTYPE svg PUBLIC "-//W3C//DTD SVG 1.1//EN" "http://www.w3.org/Graphics/SVG/1.1/DTD/svg11.dtd" >
<svg xmlns="http://www.w3.org/2000/svg" xmlns:xlink="http://www.w3.org/1999/xlink" version="1.1" viewBox="0 -140 1000 1000">
  <g transform="matrix(1 0 0 -1 0 860)">
   <path fill="currentColor"
d="M828 733l21 36v-1l4 6l-2 -1q2 5 14 5q11 0 21 -9l52 -46l-7 -13h-233q8 -213 37 -344q59 112 96 264l46 -21q35 -17 35 -24t-42 -17l9 1q-46 -150 -124 -269l1 1q16 -44 47.5 -102t40.5 -58q10 0 23 40l34 98l29 -13l-26 -97q-5 -22 -5 -41q0 -23 11 -47q7 -13 7 -18
q0 -16 -27 -16q-29 0 -66.5 32t-64.5 80q-32 57 -44 85q-97 -110 -240 -198l-12 19q143 101 232 231l-2 -1l-6 21l-267 -155q-3 -33 -23 -33q-19 0 -32 18l-21 37l85 37l-6 -1v493l-7 52l67 -31h152q-2 131 -2 208l56 -14q37 -9 37 -19q0 -9 -34 -19l7 1q-1 -18 -1 -157h130
zM300 868l20 25h-1q5 6 16 6q15 0 25 -10l28 -26q18 -17 18 -19q0 -4 -37 -19l6 1v-185q0 -2 1 -13t1 -13q0 -36 -49 -36q-11 0 -13.5 4t-2.5 16q1 4 1 18h-28q0 -5 1 -6q0 -9 -13 -16h1q-4 -3 -4 -11l-1 -137h35l27 40q4 7 16 7q11 0 24 -12l45 -40l-9 -17h-138v-217
l135 41l4 -18l-284 -115q-6 -26 -27 -26t-28 22l-17 37l49 14l-7 -1v294l-3 42l54 -10q35 -6 35 -17q0 -9 -31 -22l6 1v-274l58 16l-7 -1v426h-46q1 -9 1 -23t-13 -23.5t-32 -9.5q-14 0 -16.5 6t-2.5 33l1 29v223l-5 49l66 -33h141zM635 710h-150v-466l198 87
q-34 127 -48 379zM160 846v-207h153v207h-153zM735 884l8 12q71 -32 95.5 -51t24.5 -46q0 -23 -23 -23q-20 0 -31 20q-22 45 -74 88z" />
  </g>

</svg>
