<?xml version="1.0" standalone="no"?>
<!DOCTYPE svg PUBLIC "-//W3C//DTD SVG 1.1//EN" "http://www.w3.org/Graphics/SVG/1.1/DTD/svg11.dtd" >
<svg xmlns="http://www.w3.org/2000/svg" xmlns:xlink="http://www.w3.org/1999/xlink" version="1.1" viewBox="0 -204 1024 1024">
  <g transform="matrix(1 0 0 -1 0 820)">
   <path fill="currentColor"
d="M906 955q31 -24 59 -45q7 -5 7 -10q0 -14 -13 -14h-410l-1 -8v-132h276l40 43q32 -24 61 -47q7 -5 7 -10q0 -14 -14 -14h-370q0 -81 -4 -152h328l38 41q31 -24 59 -45q7 -5 7 -10q0 -14 -13 -14h-327v-401q2 0 3 1q30 9 65 27q35 16 81 43l3 -18q-34 -31 -60 -49
q-28 -21 -54 -36q-24 -15 -50 -26q-9 -31 -15 -31q-7 0 -41 70q11 2 20 4v416h-45q-1 -6 -1 -10q-4 -81 -17 -164q-9 -67 -25 -125q-15 -52 -38 -99q-20 -42 -56 -84l-14 11q22 36 39 80q16 38 27 82q12 49 21 112q10 75 14 152q7 103 7 231q0 138 -4 220l45 -30h327z
M922 425q-20 -18 -45 -33q-22 -15 -45 -26q-19 -11 -39 -19q14 -39 30 -69q18 -37 51 -78q30 -40 60 -60q26 -23 54 -33v-12q-56 0 -67 -35q-37 31 -60 68q-32 40 -56 93q-27 56 -46 121q-20 68 -35 152l24 11q18 -84 36 -134l2 -6q19 14 32 25q18 15 33 32q14 16 25 33
q12 17 19 33q75 -45 75 -57q0 -10 -18 -10q-11 0 -30 4zM102 944l63 -30h187l35 33q51 -36 51 -50q0 -10 -30 -25v-178q19 -14 35 -27q5 -3 5 -7q0 -14 -10 -14h-142v-176h48l35 36q29 -21 55 -41q6 -4 6 -9q0 -14 -12 -14h-132v-224q1 1 2 1q63 21 146 57l4 -22
q-68 -40 -121 -64q-56 -26 -108 -46q-47 -20 -100 -34q-11 -37 -18 -37q-8 0 -49 84q28 4 52 9v294q0 53 -6 80q46 -9 75 -18q11 -4 11 -11q0 -5 -7 -9q-11 -6 -25 -10v-316q16 3 29 7q32 7 67 19v444h-96v-28q0 -10 -12 -16q-15 -6 -25 -6q-13 0 -13 14q0 4 1 14q1 23 1 42
v210q0 49 -2 68zM152 674h208v212h-208v-212z" />
  </g>

</svg>
