<?xml version="1.0" standalone="no"?>
<!DOCTYPE svg PUBLIC "-//W3C//DTD SVG 1.1//EN" "http://www.w3.org/Graphics/SVG/1.1/DTD/svg11.dtd" >
<svg xmlns="http://www.w3.org/2000/svg" xmlns:xlink="http://www.w3.org/1999/xlink" version="1.1" viewBox="0 -410 2048 2048">
  <g transform="matrix(1 0 0 -1 0 1638)">
   <path fill="currentColor"
d="M1680 1809l68 75l84 -54q40 -27 40 -49q0 -28 -78 -62v-546q0 -62 10 -181q4 -42 4 -63q0 -60 -63 -60q-47 0 -47 35v29h-350v-368h289l109 114l131 -114q23 -20 23 -32q0 -25 -27 -25h-525v-373h375l109 113l131 -113q23 -20 23 -33q0 -25 -27 -25h-1091
q-116 -1 -191 -9l-43 88q92 -21 234 -21h386v373h-277q-116 0 -192 -8l-42 88q91 -23 234 -23h277v368h-337v-18q0 -43 -54 -43q-52 0 -52 46q0 7 8 88q6 55 6 171v566q0 12 -6 73q-2 21 -4 65l115 -72h750zM1698 991v355h-350v-355h350zM917 991h337v355h-337v-355z
M1348 1751v-351h350v351h-350zM917 1400h337v351h-337v-351zM249 1751v-1413q0 -62 10 -181q4 -42 4 -63q0 -60 -62 -60q-46 0 -46 51v1639q0 36 -10 164l112 -79h284l71 83l82 -61q34 -26 34 -53q0 -26 -73 -50l-36 -79q-143 -308 -193 -399q135 -133 195 -227
q90 -141 90 -297q0 -249 -232 -285q-2 53 -36 77q-20 14 -113 47l7 39q88 -25 152 -25q44 0 70 18q46 31 46 144q0 154 -73 292q-15 28 -159 206q113 301 176 512h-300z" />
  </g>

</svg>
