<?xml version="1.0" standalone="no"?>
<!DOCTYPE svg PUBLIC "-//W3C//DTD SVG 1.1//EN" "http://www.w3.org/Graphics/SVG/1.1/DTD/svg11.dtd" >
<svg xmlns="http://www.w3.org/2000/svg" xmlns:xlink="http://www.w3.org/1999/xlink" version="1.1" viewBox="0 -204 1024 1024">
  <g transform="matrix(1 0 0 -1 0 820)">
   <path fill="currentColor"
d="M888 908q-64 -16 -130 -29q-83 -16 -168 -24q-72 -6 -179 -10l-8 22q59 3 122 12q63 7 119 18q63 12 106 25q43 12 71 24q24 12 43 23q39 -24 70 -47q4 -4 4 -7q0 -14 -14 -14q-15 0 -36 7zM877 856q52 -17 90 -35q6 -7 6 -13q0 -10 -20 -14q-21 -4 -31 -4
q-14 -30 -30 -59q-19 -26 -36 -48q-18 -20 -46 -43l-18 12q19 29 34 55q12 22 23 50q9 26 17 50q6 23 11 49zM590 820q43 -28 68 -58q23 -20 36 -43q11 -17 11 -31q0 -12 -9 -26q-11 -14 -20 -14t-19 5q-9 11 -9 26q-8 46 -24 72q-14 24 -50 59zM409 789q24 -19 45 -36
t35 -32q15 -16 20 -29q4 -11 4 -21q0 -20 -4 -31q-9 -11 -22 -11q-7 0 -11 5q-5 2 -8 19q-6 23 -17 43q-12 21 -25 39q-12 19 -35 40zM567 545q-32 -31 -70 -46q-22 -14 -45 -20v-141h84l41 45q33 -25 63 -48q7 -4 7 -10q0 -15 -13 -15h-182v-195h424v195h-66q-80 0 -96 -7
l-19 43q40 -8 115 -8h66v176h-46q-79 0 -97 -6l-17 43q40 -8 114 -8h35l34 42q38 -24 55 -43q8 -7 8 -14q0 -9 -38 -31v-279q0 -74 3 -97q1 -29 1 -46t-10 -25q-16 -6 -25 -6q-17 0 -17 13v29h-424v-30q0 -12 -17 -12q-9 0 -23 6q-13 9 -13 25q0 17 3 47q5 21 5 96v268
q0 41 -8 71l62 -43q21 18 42 37q22 26 34 57q53 -26 83 -49q8 -5 8 -10q0 -12 -16 -14q-5 0 -17 5q-9 5 -28 5zM280 927l29 35q37 -27 61 -45q7 -11 7 -18q0 -5 -17 -11q-15 -9 -35 -15q-52 -132 -113 -254q50 -37 79 -73q25 -33 43 -74q13 -35 13 -74q0 -54 -11 -85
q-9 -28 -32 -47q-15 -16 -60 -29q-15 22 -35 31q-23 14 -70 21l5 19q44 -7 79 -7q31 0 44 10q16 13 23 32q9 24 9 69q0 34 -10 63q-9 33 -32 68q-19 31 -64 69q58 167 89 286h-166v-842q0 -12 -17 -12q-9 0 -23 6q-14 9 -14 25q0 17 5 47q4 21 4 96v680q0 41 -9 72l63 -43
h155z" />
  </g>

</svg>
