<?xml version="1.0" standalone="no"?>
<!DOCTYPE svg PUBLIC "-//W3C//DTD SVG 1.1//EN" "http://www.w3.org/Graphics/SVG/1.1/DTD/svg11.dtd" >
<svg xmlns="http://www.w3.org/2000/svg" xmlns:xlink="http://www.w3.org/1999/xlink" version="1.1" viewBox="0 -120 1000 1000">
  <g transform="matrix(1 0 0 -1 0 880)">
   <path fill="currentColor"
d="M754 935l82 -55v-19h-309v-63h297l31 35l81 -60q13 -10 13 -17q0 -9 -27 -9h-28l-70 -54l-16 8l24 70h-305v-164l-59 -12v176h-315q-5 -57 -16 -81q-14 -29 -39 -29q-13 0 -22 5q-15 10 -15 28q0 11 8 19q2 2 17 14q36 29 54 102h16q-1 -16 -1 -31h313v63h-293l-11 27
h543zM375 740l58 -40v-19h-230l-12 27h148zM371 661l62 -43v-19h-258l-11 27h172zM738 747l59 -47v-19h-223l-12 27h141zM769 661l67 -43v-19h-262l-12 27h168zM859 575l90 -66v-19h-546q-20 -27 -48 -63h360l35 35l56 -41q11 -8 11 -18t-11 -15l-17 -8v-289q0 -22 -31 -35
q-29 -12 -46 -12q-9 0 -15 27q-4 21 -32 25l-48 7v19h114v90h-383v-156l-59 -12v312q-99 -86 -223 -148l-8 12q92 65 149 119q66 63 122 151h-267l-12 27h294q23 41 39 78l86 -26q12 -3 12 -11q0 -10 -20 -14l-23 -4q-9 -12 -16 -23h390zM348 239h383v67h-383v-67zM348 333
h383v67h-383v-67z" />
  </g>

</svg>
