<?xml version="1.0" standalone="no"?>
<!DOCTYPE svg PUBLIC "-//W3C//DTD SVG 1.1//EN" "http://www.w3.org/Graphics/SVG/1.1/DTD/svg11.dtd" >
<svg xmlns="http://www.w3.org/2000/svg" xmlns:xlink="http://www.w3.org/1999/xlink" version="1.1" viewBox="0 -410 2048 2048">
  <g transform="matrix(1 0 0 -1 0 1638)">
   <path fill="currentColor"
d="M742 757q5 38 5 91q0 18 -2 55l83 -11q94 -11 94 -35q0 -23 -37 -33l-40 -10q-3 -28 -6 -49q57 5 205 19l4 -35q-122 -24 -216 -37q-34 -215 -138 -360q101 -44 129 -62q68 -43 68 -94q0 -48 -42 -48q-23 0 -57 29q-91 76 -157 106q-155 -157 -517 -261l-11 39
q310 108 452 263q-100 49 -297 100q58 116 98 233q-110 -9 -207 -22l-8 -39q-8 -37 -24 -37q-22 0 -37 52l-32 114q58 2 168 5q88 1 165 5q40 138 50 236l98 -33q71 -24 71 -53q0 -25 -48 -30l-40 -4q-24 -69 -41 -111q60 3 253 16zM735 699q-50 -7 -267 -31l-22 -2
q-41 -96 -112 -210q209 -53 274 -74q97 131 127 317zM1625 356q163 -78 216 -114q137 -91 137 -166q0 -57 -48 -57q-27 0 -57 51q-51 87 -139 163q-30 25 -125 88zM815 1739q-79 -30 -220 -68v-202h232l80 81l114 -86q17 -13 17 -26q0 -27 -27 -27h-416v-51
q140 -59 221 -111q105 -67 105 -131q0 -49 -41 -49q-27 0 -67 55q-60 85 -218 187v-133q0 -77 4 -106q4 -36 4 -56q0 -53 -62 -53q-40 0 -40 35v321q-72 -96 -186 -186q-48 -38 -227 -142l-22 35q28 21 41 31q139 103 214 183q63 67 127 171h-205q-66 0 -148 -11l-40 86
q125 -17 188 -17h258v186q-226 -31 -357 -41l-3 41q248 40 349 68q176 50 298 138l74 -56q52 -40 52 -57q0 -20 -26 -20h-5zM1087 1685l-39 86q117 -17 188 -17h532l98 101l121 -106q17 -16 17 -26q0 -27 -27 -27h-393q-59 -144 -143 -252h331l69 76l79 -54q40 -27 40 -49
q0 -26 -75 -61v-724q0 -11 7 -164l4 -63q0 -55 -66 -55q-26 0 -34 8q-4 3 -4 24v46h-389l57 -42q49 -37 49 -57q0 -23 -61 -23h-42q-171 -185 -381 -284l-15 35q252 169 348 371h-134v-42q0 -38 -50 -38q-54 0 -54 39q0 5 1 14q9 166 9 219v770q0 54 -12 128l126 -74h140
q57 118 86 252h-234q-70 0 -149 -11zM1224 1129h568v257h-568v-257zM1224 817h568v259h-568v-259zM1224 485h568v275h-568v-275z" />
  </g>

</svg>
