<?xml version="1.0" standalone="no"?>
<!DOCTYPE svg PUBLIC "-//W3C//DTD SVG 1.1//EN" "http://www.w3.org/Graphics/SVG/1.1/DTD/svg11.dtd" >
<svg xmlns="http://www.w3.org/2000/svg" xmlns:xlink="http://www.w3.org/1999/xlink" version="1.1" viewBox="0 -120 1000 1000">
  <g transform="matrix(1 0 0 -1 0 880)">
   <path fill="currentColor"
d="M261 947l83 -33q15 -6 15 -14q0 -11 -18 -13l-25 -3l-3 -5q175 -59 175 -131q0 -36 -25 -36q-12 0 -23 12q-2 2 -21 27q-43 58 -117 110q-61 -94 -123 -164h160l36 43l62 -51v-19h-254l-9 21q-57 -62 -116 -112l-13 14q138 151 216 354zM136 626l68 -35h184l22 35l63 -40
q11 -8 11 -13q0 -8 -15 -12l-16 -5v-207l-59 -12v24h-199v-86h164l35 46l67 -54v-19h-266v-91h152l39 47l75 -54v-20h-266v-70l-59 -12v578zM195 388h199v74h-199v-74zM195 489h199v75h-199v-75zM851 884l73 -53q9 -7 9 -14q0 -9 -13 -15l-18 -8v-288q0 -113 -13 -218
q-13 -111 -41 -164q-25 -49 -63 -64q-11 -4 -17 -4q-11 0 -15 24q-4 21 -32 28l-68 18v16h129q58 116 58 354v310h-153v-137q0 -83 -11 -204q-15 -165 -94 -275q-61 -83 -162 -141l-10 15q124 102 171 237q44 125 44 368v137h-106l-15 27h320z" />
  </g>

</svg>
