<?xml version="1.0" standalone="no"?>
<!DOCTYPE svg PUBLIC "-//W3C//DTD SVG 1.1//EN" "http://www.w3.org/Graphics/SVG/1.1/DTD/svg11.dtd" >
<svg xmlns="http://www.w3.org/2000/svg" xmlns:xlink="http://www.w3.org/1999/xlink" version="1.1" viewBox="0 -410 2048 2048">
  <g transform="matrix(1 0 0 -1 0 1638)">
   <path fill="currentColor"
d="M1208 1521h499l99 102l120 -107q19 -17 19 -31q0 -21 -29 -21h-733q-95 -178 -211 -334l-34 27q123 207 184 383q52 150 96 369l156 -59q32 -11 32 -32q0 -26 -37 -31l-51 -6q-36 -101 -110 -260zM1057 1071l-39 89q96 -23 230 -23h359l91 82l80 -76q33 -32 33 -47
q0 -22 -17 -35l-96 -17q-165 -206 -307 -390q-144 -187 -172 -230q-52 -78 -52 -132q0 -92 179 -92h137h132q73 0 158 22q40 11 55 35q9 14 21 134l20 191h45l-3 -151v-73q0 -37 9 -55q6 -13 45 -46q25 -22 25 -44q0 -101 -412 -101q-32 0 -99 1h-160q-147 0 -201 47
q-52 46 -52 105q0 88 98 238q20 30 161 218l101 136q111 147 165 222h-343q-118 0 -191 -8zM183 1322q-55 -56 -109 -102l-29 29q106 126 137 172q87 129 132 255q28 79 56 230l117 -27q53 -13 53 -37q0 -26 -49 -33l-32 -4l-38 -119h204l64 64l76 -56q43 -32 43 -54
q0 -19 -55 -35l-28 -9q-110 -183 -152 -247h177l61 72l72 -50q42 -28 42 -49q0 -16 -65 -52v-510q0 -40 7 -105q3 -30 3 -45q0 -48 -68 -48q-37 0 -37 25v41h-488v-32q0 -31 -52 -31q-53 0 -53 43q0 5 4 50q7 102 7 105v559zM236 1380l54 -31h221q51 110 114 280h-228
q-66 -135 -161 -249zM277 1021h202v271h-202v-271zM573 1292v-271h192v271h-192zM277 965v-281h202v281h-202zM765 965h-192v-281h192v281zM203 482h38q-3 -219 -35 -305q-38 -104 -110 -104q-49 0 -49 44q0 21 48 69q88 88 108 296zM392 493q74 -196 74 -306q0 -73 -58 -73
q-42 0 -42 39q0 9 5 39q7 46 7 92q0 69 -24 198zM562 509q144 -182 144 -284q0 -67 -53 -67q-43 0 -45 62q-5 111 -78 268zM753 539q81 -73 128 -128q56 -65 56 -118q0 -33 -25 -51q-14 -10 -29 -10q-35 0 -45 46q-21 103 -115 238z" />
  </g>

</svg>
