<?xml version="1.0" standalone="no"?>
<!DOCTYPE svg PUBLIC "-//W3C//DTD SVG 1.1//EN" "http://www.w3.org/Graphics/SVG/1.1/DTD/svg11.dtd" >
<svg xmlns="http://www.w3.org/2000/svg" xmlns:xlink="http://www.w3.org/1999/xlink" version="1.1" viewBox="0 -410 2048 2048">
  <g transform="matrix(1 0 0 -1 0 1638)">
   <path fill="currentColor"
d="M187 1333q-31 -38 -79 -88l-28 23q117 176 175 317q50 121 90 337l122 -28q55 -12 55 -36q0 -25 -51 -34l-33 -5l-40 -118h188l67 64l79 -56q45 -32 45 -52q0 -22 -56 -37l-31 -9q-111 -177 -169 -262h158l64 71l75 -49q44 -28 44 -50q0 -17 -68 -53v-656q0 -46 -69 -46
q-30 0 -30 22v40h-410v-32q0 -38 -70 -38q-28 0 -28 22v753zM228 1388l70 -39h162q53 101 127 295h-211q-57 -136 -148 -256zM285 965v-281h155v281h-155zM285 1021h155v270h-155v-270zM539 1291v-270h156v270h-156zM695 965h-156v-281h156v281zM231 500h40
q-3 -208 -24 -288q-37 -143 -121 -143q-50 0 -50 44q0 22 48 73q86 92 107 314zM380 509q78 -193 78 -306q0 -73 -61 -73q-43 0 -43 39q0 8 5 39q7 48 7 96q0 85 -20 196zM523 516q150 -182 150 -284q0 -66 -56 -66q-44 0 -46 63q-4 113 -80 268zM1648 1501q28 -15 41 -23
q234 -126 234 -216q0 -55 -48 -55q-22 0 -36 18q-3 4 -30 55q-42 81 -174 180q-64 -161 -260 -279l-24 35q181 132 215 308q21 109 21 319q0 36 -4 89l118 -25q62 -13 62 -41q0 -27 -44 -38l-40 -9q-1 -67 -11 -184q110 74 180 149l71 -79q25 -28 25 -45q0 -20 -23 -20
q-10 0 -21 4l-37 13q-97 -48 -199 -77q-6 -38 -16 -79zM894 1775q153 -112 153 -187q0 -54 -46 -54q-30 0 -47 67q-15 55 -84 146zM699 550q89 -86 124 -128q53 -65 53 -117q0 -25 -16 -43q-17 -19 -41 -19q-33 0 -42 46q-20 109 -107 240zM982 1196h37v-88h781l56 66
l71 -58q43 -35 43 -56q0 -25 -43 -30l-38 -4q-66 -75 -135 -150l-33 26q42 74 79 150h-785q-11 -108 -46 -167q-38 -64 -84 -64q-45 0 -45 47q0 26 44 69q83 80 98 259zM1405 1790q154 -109 154 -188q0 -53 -46 -53q-30 0 -47 67q-14 53 -85 146zM1259 752q5 90 5 149
q0 52 -5 117l106 -26q80 -19 80 -45q0 -28 -47 -42l-38 -11q-3 -65 -7 -142h306l63 76l78 -53q37 -25 37 -50q0 -28 -72 -61q-6 -82 -15 -242q-8 -152 -28 -208q-46 -130 -217 -160q-2 47 -12 67q-14 29 -103 64l-69 27l12 40l78 -23q96 -29 140 -29q84 0 98 150
q19 197 23 346h-324q-29 -209 -122 -347q-116 -174 -370 -288l-19 33q234 143 326 312q71 130 92 290h-138q-63 0 -138 -12l-36 87q110 -19 174 -19h142zM1188 1665q38 36 105 143l86 -66q30 -23 30 -41q0 -24 -31 -24q-7 0 -11 1l-39 7q-70 -49 -144 -93q-4 -32 -11 -66
q47 -24 99 -57q92 -58 92 -131q0 -57 -47 -57q-29 0 -56 68q-24 61 -100 135q-26 -86 -78 -150q-57 -71 -172 -146l-25 35q111 95 155 168q43 71 53 163q3 28 8 141q4 104 4 127q0 29 -3 108l111 -21q67 -12 67 -44q0 -26 -44 -37l-40 -9q-1 -42 -5 -95q-3 -34 -4 -59z" />
  </g>

</svg>
