<?xml version="1.0" standalone="no"?>
<!DOCTYPE svg PUBLIC "-//W3C//DTD SVG 1.1//EN" "http://www.w3.org/Graphics/SVG/1.1/DTD/svg11.dtd" >
<svg xmlns="http://www.w3.org/2000/svg" xmlns:xlink="http://www.w3.org/1999/xlink" version="1.1" viewBox="0 -246 2048 2048">
  <g transform="matrix(1 0 0 -1 0 1802)">
   <path fill="currentColor"
d="M488 789q-144 -281 -381 -495l-33 37q261 282 395 675h-319l-21 51h359v322q201 -7 201 -52q0 -26 -86 -57v-213h137l88 133q64 -74 111 -147l-23 -37h-313v-137q138 -73 223 -151q82 -74 82 -128q0 -63 -62 -63q-35 0 -57 43q-64 127 -186 235v-712h-115v696zM1131 1069
h256q50 143 85 311q162 -45 162 -86q0 -21 -70 -30q-48 -97 -120 -195h231l96 125q74 -71 129 -141l-20 -35h-389v-203h141l88 107q74 -65 121 -123l-19 -35h-331v-213h143l86 109q78 -71 121 -125l-21 -35h-329v-238h217l102 127q66 -63 127 -141l-18 -37h-788v-118h-106
v798q-70 -101 -140 -176l-36 37q112 162 180 314q63 144 112 335q166 -52 166 -88q0 -28 -82 -37q-48 -120 -94 -207zM1131 551h254v213h-254v-213zM1385 500h-254v-238h254v238zM1131 815h254v203h-254v-203zM453 1538h506v399q191 0 191 -45q0 -24 -78 -55v-299h518v340
q188 -6 188 -55q0 -28 -78 -56v-358h-110v78h-1137v-86h-111v479q197 0 197 -47q0 -27 -86 -57v-238z" />
  </g>

</svg>
