<?xml version="1.0" standalone="no"?>
<!DOCTYPE svg PUBLIC "-//W3C//DTD SVG 1.1//EN" "http://www.w3.org/Graphics/SVG/1.1/DTD/svg11.dtd" >
<svg xmlns="http://www.w3.org/2000/svg" xmlns:xlink="http://www.w3.org/1999/xlink" version="1.1" viewBox="0 -144 1024 1024">
  <g transform="matrix(1 0 0 -1 0 880)">
   <path fill="currentColor"
d="M63 62l-7 13l-8 13l-1 3l-1 1l-10 18l-4 7l162 82v264h-161v21h161l32 27l59 -48l-27 -22v-219l19 -16l29 -21l32 -19l39 -14l49 -12l61 -8l78 -6l96 -1l117 2l140 6l3 -71l-142 -3l-119 2l-99 6l-81 10l-66 14l-53 19l-42 23l-33 27l-25 31l-12 20l-50 -47l-39 -32
l-58 -44l-19 -13l-1 -22zM32 117l31 -55l-41 50zM920 92l-1 18v2v13l-1 1v7l61 2l-58 -73v5l-1 8v2v11v4zM436 187l-23 39h-9v17l-1 1h1v493l64 -32v-443l136 32l39 8l87 15l3 -9l-82 -34l-157 -61l-38 -16l-5 -21zM915 720l8 -15l36 -35v-18l-19 8l-117 -49l-82 -31
l-80 -28v-1l31 -53l34 -51l36 -47l40 -43l43 -41l46 -37l67 -47l-59 -46l-51 41l-47 43l-43 46l-39 50l-35 54l-31 56l-27 59l-2 5l-90 -28l-4 9l85 43l-12 33l-18 65l-13 69l10 2l24 -64l26 -61l15 -29l156 78l89 49zM186 605l-23 29l-24 27l-14 13l-45 38l-16 12l-18 12
l4 9l41 -11l40 -16l37 -20l17 -11l34 -26l15 -14l8 -24l-11 -22l-23 -7zM829 959l3 -8l50 -42l1 -17l-22 10l-12 -4l-180 -54l-297 -96l-69 -21l-4 9l129 60l272 114l124 48zM234 795l-19 28l-10 14l-24 27l-42 40l-17 13l-17 12l4 9l21 -7l20 -7l39 -16l18 -10l34 -24
l15 -12l29 -28l6 -24l-12 -22l-24 -5zM421 226l1 -1z" />
  </g>

</svg>
