<?xml version="1.0" standalone="no"?>
<!DOCTYPE svg PUBLIC "-//W3C//DTD SVG 1.1//EN" "http://www.w3.org/Graphics/SVG/1.1/DTD/svg11.dtd" >
<svg xmlns="http://www.w3.org/2000/svg" xmlns:xlink="http://www.w3.org/1999/xlink" version="1.1" viewBox="0 -410 2048 2048">
  <g transform="matrix(1 0 0 -1 0 1638)">
   <path fill="currentColor"
d="M780 1102q254 -149 254 -265q0 -28 -15.5 -49t-35.5 -21q-37 0 -60 69q-39 121 -152 221q-36 -173 -130 -323q-86 -139 -252 -277l-28 29q173 182 258 388q58 138 88 458h-365v-1200q0 -54 -57 -54q-54 0 -54 45q0 17 4 50q13 107 13 210v958q-1 89 -15 134l128 -88h350
q10 137 10 379h-360q-117 0 -192 -8l-38 88q94 -23 230 -23h1324l98 101l121 -106q17 -15 17 -26q0 -26 -27 -26h-569v-224l1 -114q0 -8 -1 -41h345l76 88l85 -58q48 -32 48 -52q0 -19 -10.5 -27.5t-66.5 -36.5v-1065q0 -142 -154 -170q-12 70 -47 93q-33 20 -160 43l8 46
q168 -27 202 -27q56 0 56 57v1054h-385q-2 -60 -19 -221q109 -99 204 -216q64 -79 94 -125q42 -65 42 -124q0 -64 -49 -64q-42 0 -68 76q-26 75 -63 150q-16 30 -104 171q-57 70 -66 82q-47 -222 -143 -372q-97 -151 -279 -292l-28 32q157 151 232 285q126 224 149 618h-419
q-9 -122 -25 -230zM1226 1387v22v80v277h-407l-6 -264l-4 -103l-1 -12h418z" />
  </g>

</svg>
