<?xml version="1.0" standalone="no"?>
<!DOCTYPE svg PUBLIC "-//W3C//DTD SVG 1.1//EN" "http://www.w3.org/Graphics/SVG/1.1/DTD/svg11.dtd" >
<svg xmlns="http://www.w3.org/2000/svg" xmlns:xlink="http://www.w3.org/1999/xlink" version="1.1" viewBox="0 -140 1000 1000">
  <g transform="matrix(1 0 0 -1 0 860)">
   <path fill="currentColor"
d="M602 919l3 11l40 -3q130 -7 130 -60q0 -30 -20 -30q-9 0 -22 9q-61 45 -131 73zM151 770l68 -32h241v68h-405v22h405v117l103 -16v-13l-35 -20v-68l302 1l46 51h13l58 -57v-17h-419v-68h251l34 33h15l54 -49v-15l-26 -14v-226l-5 -13l-52 -17l-12 6l1 100h-260v-117
l-7 -12l-51 -12l-10 6v135h-243v-97l-6 -10l-50 -15l-11 8zM144 373v23h520l43 29h15l47 -74l-12 -11l-37 4l-46 -16q-221 -77 -418 -156q-57 -23 -57 -43q0 -27 100 -27h476q51 0 71.5 8.5t33.5 42.5l22 55l12 -3v-88l25 -23v-15q-52 -29 -117 -29l-542 1q-145 0 -145 70
q0 16 8 30.5t29.5 29.5t39 25.5t56.5 26t61 24t72 26.5q15 5 22 8l220 82h-499zM527 651h260v64h-260v-64zM527 565h260v64h-260v-64zM217 651h243v64h-243v-64zM217 565h243v64h-243v-64z" />
  </g>

</svg>
