<?xml version="1.0" standalone="no"?>
<!DOCTYPE svg PUBLIC "-//W3C//DTD SVG 1.1//EN" "http://www.w3.org/Graphics/SVG/1.1/DTD/svg11.dtd" >
<svg xmlns="http://www.w3.org/2000/svg" xmlns:xlink="http://www.w3.org/1999/xlink" version="1.1" viewBox="0 -410 2048 2048">
  <g transform="matrix(1 0 0 -1 0 1638)">
   <path fill="currentColor"
d="M277 1715l-38 88q94 -23 230 -23h1058l87 113l141 -117q17 -15 17 -32q0 -21 -31 -21h-1272q-116 0 -192 -8zM104 1172l-38 88q95 -23 230 -23h1456l83 117l141 -114q19 -15 19 -30q0 -30 -32 -30h-565v-886l2 -63l1 -36q5 -51 5 -64q0 -64 -63 -64q-41 0 -41 35v1078
h-587v-255q0 -224 -53 -367q-79 -211 -247 -355q-82 -71 -204 -148l-28 35q125 93 177 144q144 140 211 330q47 135 47 365v251h-322q-117 0 -192 -8z" />
  </g>

</svg>
