<?xml version="1.0" standalone="no"?>
<!DOCTYPE svg PUBLIC "-//W3C//DTD SVG 1.1//EN" "http://www.w3.org/Graphics/SVG/1.1/DTD/svg11.dtd" >
<svg xmlns="http://www.w3.org/2000/svg" xmlns:xlink="http://www.w3.org/1999/xlink" version="1.1" viewBox="0 -204 1024 1024">
  <g transform="matrix(1 0 0 -1 0 820)">
   <path fill="currentColor"
d="M256 960q48 -16 85 -35q5 -6 5 -11q0 -9 -18 -12q-24 -4 -32 -4q-33 -91 -71 -172q-12 -27 -23 -51q46 -18 46 -29t-34 -26v-508q0 -32 5 -48q3 -12 3 -22q0 -30 -36 -32q-18 0 -18 14v592q-10 -16 -22 -32q-43 -61 -104 -128l-14 14q55 68 92 131q30 53 58 117
q30 67 49 123t29 119zM274 610q44 -12 116 -12h194v274q0 54 -4 82q57 -7 94 -23q12 -6 12 -15q0 -7 -12 -11q-20 -9 -42 -13v-294h220l50 60q40 -32 77 -59q7 -7 7 -15q0 -14 -14 -14h-340v-462h190l54 62q38 -30 73 -61q9 -5 9 -11q0 -18 -16 -18h-534q-71 -1 -98 -4
l-18 44q43 -12 116 -12h176v462h-194q-69 -1 -94 -4z" />
  </g>

</svg>
