<?xml version="1.0" standalone="no"?>
<!DOCTYPE svg PUBLIC "-//W3C//DTD SVG 1.1//EN" "http://www.w3.org/Graphics/SVG/1.1/DTD/svg11.dtd" >
<svg xmlns="http://www.w3.org/2000/svg" xmlns:xlink="http://www.w3.org/1999/xlink" version="1.1" viewBox="0 -120 1000 1000">
  <g transform="matrix(1 0 0 -1 0 880)">
   <path fill="currentColor"
d="M59 434q95 162 145 321q34 107 48 200l88 -33q12 -4 12 -12t-12 -11l-29 -9q-32 -107 -75 -211l29 -5q19 -3 19 -12q0 -7 -12 -12l-22 -9v-571l-61 -9v521q-69 -108 -111 -157zM283 554q82 81 152 178q79 112 134 228l71 -25q16 -6 16 -15q0 -11 -14 -15l-22 -6
q39 -58 113 -124q106 -94 233 -155l-4 -13q-29 -7 -40 -15q-9 -6 -22 -25q-180 112 -291 311l-24 -33q-134 -186 -293 -304zM316 67q84 69 119 161q30 80 31 274v125l76 -11q17 -3 17 -13q0 -8 -11 -12l-21 -8v-123q-2 -141 -21 -194q-13 -46 -51 -98q-30 -42 -84 -84
q-26 -20 -47 -30zM709 67v561l75 -10q15 -2 15 -13q0 -9 -9 -12l-19 -7v-508z" />
  </g>

</svg>
