<?xml version="1.0" standalone="no"?>
<!DOCTYPE svg PUBLIC "-//W3C//DTD SVG 1.1//EN" "http://www.w3.org/Graphics/SVG/1.1/DTD/svg11.dtd" >
<svg xmlns="http://www.w3.org/2000/svg" xmlns:xlink="http://www.w3.org/1999/xlink" version="1.1" viewBox="0 -410 2048 2048">
  <g transform="matrix(1 0 0 -1 0 1638)">
   <path fill="currentColor"
d="M688 1803q91 -24 232 -24h741l79 107l130 -103q26 -20 26 -40t-32 -20h-561v-856h423l104 122l133 -106q36 -29 36 -44q0 -26 -31 -26h-665v-518v-77l2 -21q2 -30 4 -54q1 -11 1 -17q0 -67 -62 -67q-42 0 -42 32v722h-416q-115 0 -190 -8l-40 88q134 -26 230 -26h416v856
h-286q-118 0 -192 -8zM691 1537q89 -67 174 -153q158 -157 158 -260q0 -64 -53 -64q-37 0 -57 65q-65 211 -246 386zM1700 1536l149 -72q26 -13 28 -32q3 -27 -42 -27h-59q-142 -225 -303 -341l-28 27q165 192 255 445zM457 1958l147 -58q38 -15 38 -37q0 -23 -41 -29
l-59 -9q-89 -254 -165 -402l92 -34q25 -9 25 -29t-21 -28l-49 -19v-1034q0 -73 7 -147q2 -18 2 -30q0 -43 -67 -43q-39 0 -39 46v1234q-21 -34 -32 -51q-112 -180 -230 -306l-26 26q183 261 274 485q115 286 144 465z" />
  </g>

</svg>
