<?xml version="1.0" standalone="no"?>
<!DOCTYPE svg PUBLIC "-//W3C//DTD SVG 1.1//EN" "http://www.w3.org/Graphics/SVG/1.1/DTD/svg11.dtd" >
<svg xmlns="http://www.w3.org/2000/svg" xmlns:xlink="http://www.w3.org/1999/xlink" version="1.1" viewBox="0 -120 1000 1000">
  <g transform="matrix(1 0 0 -1 0 880)">
   <path fill="currentColor"
d="M39 416q63 107 105 229q39 110 81 306l71 -20q23 -6 23 -15q0 -8 -15 -13l-13 -4q-24 -80 -68 -198l13 -6q13 -7 13 -14q0 -9 -10 -13l-18 -7v-597l-62 -12v513q-44 -83 -104 -160zM273 362l-9 28h296v433h-232l-10 27h463l52 65l85 -71v-21h-291l-3 -433h188l55 65
l85 -73l-1 -19h-326l-1 -305l-64 -10v314h-287zM308 453q82 150 110 315l83 -31q14 -5 14 -12q0 -3 -3 -7q-5 -8 -12 -10l-20 -4q-10 -19 -47 -93q-50 -99 -111 -169zM705 758q49 -32 81 -61q50 -45 85 -104q21 -34 21 -61q0 -22 -19 -34q-9 -6 -19 -6q-9 0 -15 6
q-5 4 -44 99q-29 71 -101 147z" />
  </g>

</svg>
