<?xml version="1.0" standalone="no"?>
<!DOCTYPE svg PUBLIC "-//W3C//DTD SVG 1.1//EN" "http://www.w3.org/Graphics/SVG/1.1/DTD/svg11.dtd" >
<svg xmlns="http://www.w3.org/2000/svg" xmlns:xlink="http://www.w3.org/1999/xlink" version="1.1" viewBox="0 -204 1024 1024">
  <g transform="matrix(1 0 0 -1 0 820)">
   <path fill="currentColor"
d="M280 964q49 -16 85 -35q7 -6 7 -13t-21 -10q-21 -4 -33 -4q-31 -90 -73 -173q-16 -29 -30 -56q41 -17 41 -27q0 -11 -34 -26v-508q0 -32 5 -48q3 -12 3 -22q0 -30 -34 -32q-22 0 -22 14v585q-6 -12 -14 -24q-47 -61 -114 -129l-14 14q58 68 99 132q34 54 66 118
q30 67 53 124q17 56 30 120zM598 950q50 -19 86 -35q6 -7 6 -13q0 -11 -18 -14q-24 -4 -32 -4q-36 -65 -79 -129q-41 -58 -87 -105q-40 -39 -91 -78q81 2 145 7q80 5 174 14q82 9 189 21q-19 26 -37 46q-36 45 -98 100l8 14q57 -39 101 -81q46 -37 73 -66q25 -24 38 -44
q7 -16 13 -33q5 -14 5 -28q-1 -26 -18 -26q-10 0 -19 7q-9 9 -36 63q-10 14 -18 26q-96 -17 -172 -26q-89 -15 -171 -24q-75 -10 -158 -16q-10 -38 -16 -38t-46 82h7q61 50 99 96q34 42 67 93q34 53 55 98q21 42 30 93zM408 456l60 -44h384l32 44q36 -20 52 -42q6 -8 6 -12
q0 -10 -40 -34v-216q22 -13 38 -28q6 -3 6 -8q0 -14 -8 -14h-478v-16q0 -14 -22 -14q-8 0 -20 6q-10 10 -10 24q0 16 2 45q6 24 6 97v146q0 39 -8 66zM460 130h398v256h-398v-256z" />
  </g>

</svg>
