<?xml version="1.0" standalone="no"?>
<!DOCTYPE svg PUBLIC "-//W3C//DTD SVG 1.1//EN" "http://www.w3.org/Graphics/SVG/1.1/DTD/svg11.dtd" >
<svg xmlns="http://www.w3.org/2000/svg" xmlns:xlink="http://www.w3.org/1999/xlink" version="1.1" viewBox="0 -140 1000 1000">
  <g transform="matrix(1 0 0 -1 0 860)">
   <path fill="currentColor"
d="M662 518v-365q0 -49 -17.5 -65.5t-92.5 -37.5l-12 9v29l-109 35l2 14l115 -7q29 -2 39.5 7.5t10.5 37.5v343h-317v21l549 -1l50 53h11l58 -56v-17h-287zM373 826h15l4 -37h195v145l97 -17v-13l-33 -20v-95h189l39 37h16l51 -65l-5 -15l-35 -6l-84 -111l-12 7l39 132h-457
q-3 -70 -19 -114t-39 -44q-13 0 -22 14t-9 34q0 21 25 52q40 49 45 116zM69 414l-11 10q67 131 105 234t77 256l93 -37l-3 -14l-33 -7q-26 -84 -58 -165l-15 -38l38 -15v-13l-25 -13l-5 -535l-51 -12l-8 6v495q-51 -90 -104 -152z" />
  </g>

</svg>
