<?xml version="1.0" standalone="no"?>
<!DOCTYPE svg PUBLIC "-//W3C//DTD SVG 1.1//EN" "http://www.w3.org/Graphics/SVG/1.1/DTD/svg11.dtd" >
<svg xmlns="http://www.w3.org/2000/svg" xmlns:xlink="http://www.w3.org/1999/xlink" version="1.1" viewBox="0 -204 1024 1024">
  <g transform="matrix(1 0 0 -1 0 820)">
   <path fill="currentColor"
d="M252 964q48 -16 85 -35q5 -6 5 -13t-18 -10q-24 -4 -32 -4q-32 -89 -69 -172q-9 -22 -17 -39q42 -21 42 -31q0 -8 -34 -24v-520q0 -31 5 -48q3 -12 3 -22q0 -30 -36 -32q-18 0 -18 14v592q-10 -16 -21 -32q-42 -61 -101 -128l-14 14q53 68 89 131q29 53 56 117
q29 66 47 123q18 56 28 119zM512 946q55 -37 88 -76q31 -32 44 -63q10 -20 10 -43q0 -16 -6 -22h166l52 58q40 -28 75 -57q9 -6 9 -13q0 -18 -14 -18h-290v-266h140l54 58q40 -28 73 -58q11 -5 11 -12q0 -18 -18 -18h-260v-308h202l50 62q40 -30 77 -61q7 -5 7 -11
q0 -18 -14 -18h-582q-70 -1 -94 -4l-22 44q44 -12 116 -12h212v308h-134q-72 -1 -96 -4l-22 44q44 -10 118 -10h134v266h-168q-70 -1 -94 -4l-22 44q44 -10 116 -10h183q-7 8 -13 27q-17 54 -40 87q-21 34 -60 72z" />
  </g>

</svg>
