<?xml version="1.0" standalone="no"?>
<!DOCTYPE svg PUBLIC "-//W3C//DTD SVG 1.1//EN" "http://www.w3.org/Graphics/SVG/1.1/DTD/svg11.dtd" >
<svg xmlns="http://www.w3.org/2000/svg" xmlns:xlink="http://www.w3.org/1999/xlink" version="1.1" viewBox="0 -410 2048 2048">
  <g transform="matrix(1 0 0 -1 0 1638)">
   <path fill="currentColor"
d="M591 1415l-39 88q119 -27 227 -27h249q81 232 106 489l114 -27q67 -16 67 -45q0 -28 -46 -33l-43 -5q-44 -194 -106 -379h628l87 106l121 -89q35 -26 35 -43q0 -27 -30 -27h-857q-79 -217 -196 -424l92 -50h676l68 75l84 -55q40 -25 40 -48q0 -27 -77 -61v-589l67 -49
q6 -4 6 -20q0 -27 -16 -27h-874v-48q0 -40 -58 -40q-50 0 -50 45q0 5 5 59q1 14 3 67l4 79v612q-81 -131 -184 -249q-62 -71 -198 -204l-26 30q225 244 353 476q120 217 187 421h-227q-117 0 -192 -8zM974 235h722v657h-722v-657zM461 1965l147 -58q38 -14 38 -37
q0 -22 -41 -28l-59 -9q-89 -255 -165 -403l92 -33q25 -9 25 -30q0 -19 -21 -27l-49 -19v-1035q0 -73 7 -146q2 -18 2 -30q0 -43 -67 -43q-39 0 -39 45v1235q-21 -35 -32 -52q-111 -179 -230 -306l-26 27q182 258 274 484q115 285 144 465z" />
  </g>

</svg>
