<?xml version="1.0" standalone="no"?>
<!DOCTYPE svg PUBLIC "-//W3C//DTD SVG 1.1//EN" "http://www.w3.org/Graphics/SVG/1.1/DTD/svg11.dtd" >
<svg xmlns="http://www.w3.org/2000/svg" xmlns:xlink="http://www.w3.org/1999/xlink" version="1.1" viewBox="0 -204 1024 1024">
  <g transform="matrix(1 0 0 -1 0 820)">
   <path fill="currentColor"
d="M244 960q49 -16 85 -35q7 -6 7 -11q0 -9 -21 -12q-21 -4 -31 -4q-30 -91 -68 -172q-11 -27 -22 -52q42 -18 42 -28q0 -11 -32 -26v-500q0 -31 5 -48q3 -12 3 -22q0 -31 -38 -32q-18 0 -18 14v575q-9 -14 -15 -23q-41 -61 -99 -128l-14 14q52 68 87 131q27 53 55 117
q29 67 47 123q16 56 27 119zM306 796q39 -8 114 -8h80v28q0 97 -8 138q50 -6 90 -19q10 -2 10 -11t-12 -14q-16 -8 -32 -12v-110h128v84q0 54 -4 82q48 -7 80 -23q12 -6 12 -15q0 -7 -10 -11q-15 -9 -30 -13v-104h128l28 34q52 -33 52 -44t-30 -30v-109q16 -13 28 -23
q6 -2 6 -6q0 -18 -8 -18h-204v-154h168l36 32q33 -21 52 -36q6 -8 6 -14q0 -12 -40 -26q-5 -74 -14 -122q-12 -52 -24 -78q-12 -20 -24 -32q-17 -12 -32 -18t-26 -6q0 13 -6 21q-8 13 -82 37l4 22q69 -18 94 -18q9 0 17 4q4 1 9 11q7 8 16 28q7 22 12 63q6 39 8 102h-174
v-362q0 -22 -30 -22q-22 0 -22 26q0 12 2 30q2 22 2 36v292h-138q-2 -16 -7 -32q-16 -78 -42 -138q-25 -57 -71 -111q-47 -56 -120 -103l-14 18q67 53 104 102t61 104q20 50 36 130q2 18 4 30h-154q-8 -4 -21 -4q-18 0 -18 8q0 4 1 8l4 24q7 32 13 75q4 35 10 73q3 34 4 62
l52 -34h120v140h-80q-80 0 -96 -4zM676 438v154h-128v-30q0 -69 -6 -124h134zM548 760v-140h128v140h-128zM724 760v-140h130v140h-130zM494 438q6 60 6 124v30h-132q-7 -55 -11 -86q-4 -30 -11 -65v-3h148z" />
  </g>

</svg>
