<?xml version="1.0" standalone="no"?>
<!DOCTYPE svg PUBLIC "-//W3C//DTD SVG 1.1//EN" "http://www.w3.org/Graphics/SVG/1.1/DTD/svg11.dtd" >
<svg xmlns="http://www.w3.org/2000/svg" xmlns:xlink="http://www.w3.org/1999/xlink" version="1.1" viewBox="0 -204 1024 1024">
  <g transform="matrix(1 0 0 -1 0 820)">
   <path fill="currentColor"
d="M244 964q49 -16 85 -35q7 -6 7 -13t-21 -10q-21 -4 -31 -4q-30 -88 -68 -169q-10 -27 -22 -48q46 -22 46 -31q0 -10 -32 -26v-498q0 -33 5 -50q1 -14 1 -22q0 -32 -36 -34q-18 0 -18 18v579q-8 -13 -19 -28q-41 -60 -99 -123l-14 12q52 67 87 129q27 51 55 117
q29 63 47 119q16 55 27 117zM354 888l62 -44h442l34 44q36 -20 51 -42q7 -8 7 -14q0 -8 -36 -32v-570q0 -76 4 -98q2 -29 2 -46q0 -16 -12 -24q-12 -4 -20 -4q-22 0 -22 10v36h-458v-40q0 -10 -22 -10q-7 0 -20 5q-12 7 -12 21q0 19 3 48q7 22 7 98v596q0 39 -10 66z
M408 134h458v684h-458v-684zM512 668l58 -32h138l26 32q52 -29 52 -44q0 -9 -26 -26v-215q11 -11 21 -19q5 -4 5 -6q0 -16 -8 -16h-220v-22q0 -7 -10 -13q-17 -5 -26 -5q-10 0 -10 12v354zM558 368h154v242h-154v-242z" />
  </g>

</svg>
