<?xml version="1.0" standalone="no"?>
<!DOCTYPE svg PUBLIC "-//W3C//DTD SVG 1.1//EN" "http://www.w3.org/Graphics/SVG/1.1/DTD/svg11.dtd" >
<svg xmlns="http://www.w3.org/2000/svg" xmlns:xlink="http://www.w3.org/1999/xlink" version="1.1" viewBox="0 -410 2048 2048">
  <g transform="matrix(1 0 0 -1 0 1638)">
   <path fill="currentColor"
d="M1231 1958q161 -127 161 -197q0 -26 -31 -51h351l96 114l144 -114q16 -13 16 -26q0 -28 -30 -28h-1155v-592q-4 -437 -51 -665q-35 -175 -136 -323l-27 18q76 182 98 429q22 250 22 606q0 328 -8 653l110 -72h516q-20 83 -42 125q-11 22 -66 101zM1700 1456
q-205 -69 -389 -106v-428h394l96 111l144 -111q16 -13 16 -27q0 -29 -30 -29h-620v-573q0 -53 78 -62q37 -5 213 -5q154 0 184 23q29 22 43 97q14 72 28 203h40q1 -29 3 -103q1 -26 2 -79q1 -52 5 -71q6 -29 32 -47q34 -24 34 -41q0 -77 -339 -77h-133q-150 0 -183 9
q-103 25 -103 120v606h-160q-115 0 -192 -8l-38 88q83 -24 230 -24h160v410q-28 -4 -177 -32q-21 -4 -147 -18l-4 41q294 55 484 115q186 58 306 148l91 -76q26 -22 26 -41q0 -21 -29 -21q-14 0 -65 8zM459 1969l147 -57q38 -15 38 -37q0 -23 -41 -29l-59 -9
q-89 -255 -165 -403l92 -33q25 -9 25 -30q0 -19 -21 -27l-49 -19v-1034q0 -73 7 -147q2 -18 2 -30q0 -43 -67 -43q-39 0 -39 45v1235q-21 -35 -32 -52q-112 -179 -230 -305l-26 26q183 260 274 484q115 286 144 465z" />
  </g>

</svg>
