<?xml version="1.0" standalone="no"?>
<!DOCTYPE svg PUBLIC "-//W3C//DTD SVG 1.1//EN" "http://www.w3.org/Graphics/SVG/1.1/DTD/svg11.dtd" >
<svg xmlns="http://www.w3.org/2000/svg" xmlns:xlink="http://www.w3.org/1999/xlink" version="1.1" viewBox="0 -140 1000 1000">
  <g transform="matrix(1 0 0 -1 0 860)">
   <path fill="currentColor"
d="M71 481l-13 8q58 97 93 182t80 243l94 -42l-5 -15l-36 -4l-68 -169l20 -10v-13l-27 -12v-568l-6 -13l-52 -15l-6 7v506q-33 -44 -74 -85zM234 388v23h221l69 109l81 -48l-6 -15h-32l-36 -46h304l47 50h14l54 -58v-15h-162q-51 -97 -114 -166q182 -48 210 -76
q21 -20 21 -48q0 -22 -16 -22q-11 0 -45 19q-84 47 -207 89q-158 -118 -396 -140l-5 14q122 25 196.5 56.5t146.5 89.5q-79 19 -173 31l-23 -30l-10 -3l-56 6l-5 9l130 171h-208zM518 388l-100 -134l52 -4l142 -13q51 55 104 151h-198zM552 777v155l92 -23v-14l-28 -15v-103
h188l43 46h14l58 -52v-15h-496v-118q0 -28 12 -39.5t43 -11.5h279q5 0 32.5 3.5t31.5 3.5q19 0 36 -13.5t17 -28.5q0 -14 -31 -15l-33 -1h-347q-57 0 -80 24t-23 81v115h-85v21h277z" />
  </g>

</svg>
