<?xml version="1.0" standalone="no"?>
<!DOCTYPE svg PUBLIC "-//W3C//DTD SVG 1.1//EN" "http://www.w3.org/Graphics/SVG/1.1/DTD/svg11.dtd" >
<svg xmlns="http://www.w3.org/2000/svg" xmlns:xlink="http://www.w3.org/1999/xlink" version="1.1" viewBox="0 -410 2048 2048">
  <g transform="matrix(1 0 0 -1 0 1638)">
   <path fill="currentColor"
d="M832 1160h949l68 76l84 -54q40 -26 40 -48q0 -28 -78 -62q-20 -543 -68 -744q-31 -128 -105 -189q-52 -44 -145 -61q-15 60 -62.5 85t-209.5 59l8 48q200 -59 279 -59q61 0 100 55q55 75 69 210q35 333 38 622h-967q-6 -324 -60 -517q-51 -180 -230 -419l-33 27
q135 211 181 433q44 207 44 599v509q0 95 -14 176l120 -77h827l69 77l83 -55q40 -26 40 -48q0 -27 -76 -62v-250l41 -30q18 -13 18 -29q0 -23 -18 -23h-992v-185v-44v-20zM832 1465h860v306h-860v-306zM985 938l118 -63h314l69 77l83 -55q41 -26 41 -48q0 -27 -78 -62v-237
q39 -30 39 -46q0 -24 -17 -24h-473v-16q0 -32 -58 -32q-46 0 -46 46l8 204v256zM1081 534h355v282h-355v-282zM460 1958l147 -58q38 -15 38 -37q0 -23 -41 -29l-59 -9q-89 -254 -165 -402l92 -34q25 -9 25 -29t-21 -28l-49 -19v-1034q0 -73 7 -147q2 -18 2 -30
q0 -43 -67 -43q-39 0 -39 46v1234q-21 -34 -32 -51q-112 -180 -230 -306l-26 26q183 261 274 485q115 286 144 465z" />
  </g>

</svg>
