<?xml version="1.0" standalone="no"?>
<!DOCTYPE svg PUBLIC "-//W3C//DTD SVG 1.1//EN" "http://www.w3.org/Graphics/SVG/1.1/DTD/svg11.dtd" >
<svg xmlns="http://www.w3.org/2000/svg" xmlns:xlink="http://www.w3.org/1999/xlink" version="1.1" viewBox="0 -204 1024 1024">
  <g transform="matrix(1 0 0 -1 0 820)">
   <path fill="currentColor"
d="M224 964q54 -17 90 -35q7 -7 7 -13q0 -10 -20 -14q-21 -4 -32 -4q-26 -88 -60 -169q-13 -31 -27 -59q48 -21 48 -31q0 -11 -31 -23v-487q0 -32 4 -48q1 -14 1 -22q0 -33 -39 -35q-18 0 -18 19q0 28 3 36q1 17 1 35v480q0 4 -1 13q-7 -9 -11 -18q-39 -60 -93 -125l-18 13
q47 68 80 130q25 52 52 118q23 64 42 121q14 54 22 118zM280 834q44 -11 116 -11h178v53q0 54 -5 81q60 -7 98 -24q13 -4 13 -14q0 -9 -13 -12q-20 -10 -43 -12v-72h206l49 52q39 -29 71 -54q11 -6 11 -14q0 -13 -18 -13h-319v-107h191l36 32q50 -35 50 -50q0 -10 -30 -24
v-259q0 -24 1 -30q1 -8 1 -18q0 -20 -33 -25q-17 0 -17 9v33h-199v-124h235l48 54q40 -29 75 -56q9 -5 9 -12q0 -15 -15 -15h-352v-88q0 -22 1 -32v-27q0 -35 -30 -35q-27 0 -27 18q0 21 3 55t3 59v50h-222q-70 -2 -96 -7l-20 47q44 -11 116 -11h222v124h-187v-33
q0 -9 -11 -15q-16 -6 -26 -6q-12 0 -12 14q0 3 1 13q1 24 1 42v279q0 49 -2 67l62 -29h174v107h-178q-70 -2 -97 -7zM387 383h187v123h-187v-123zM624 506v-123h199v123h-199zM387 534h187v125h-187v-125zM624 659v-125h199v125h-199z" />
  </g>

</svg>
