<?xml version="1.0" standalone="no"?>
<!DOCTYPE svg PUBLIC "-//W3C//DTD SVG 1.1//EN" "http://www.w3.org/Graphics/SVG/1.1/DTD/svg11.dtd" >
<svg xmlns="http://www.w3.org/2000/svg" xmlns:xlink="http://www.w3.org/1999/xlink" version="1.1" viewBox="0 -410 2048 2048">
  <g transform="matrix(1 0 0 -1 0 1638)">
   <path fill="currentColor"
d="M1175 1807q-155 -76 -406 -112v-353h304l81 80l114 -85q16 -13 16 -26q0 -25 -27 -25h-196v-846q0 -116 12 -210q4 -32 4 -50q0 -45 -52 -45q-58 0 -58 54v1097h-198q-1 -117 -1 -176q0 -322 -42 -517q-35 -160 -90 -269q-47 -94 -153 -210l-29 25q140 194 184 460
q33 203 33 552v447q0 50 -7 218l114 -72q240 60 363 181l110 -75q24 -17 24 -33q0 -20 -23 -20q-7 0 -25 3zM1415 1924l163 -51q26 -8 26 -29q0 -23 -102 -39q-48 -222 -66 -291h373l60 62l107 -83q22 -17 22 -31q0 -13 -39 -22l-51 -12q-101 -221 -167 -328l-33 17
q68 176 101 339h-388q-75 -227 -170 -416l-35 13q145 365 199 871zM1502 1363l128 -29q48 -11 48 -30q0 -22 -39 -33l-35 -9q-5 -103 -8 -215q27 -328 134 -559q72 -156 143 -225q44 -43 108 -74l-13 -30q-37 8 -51 8q-51 0 -105 -39q-162 196 -242 710q-38 -298 -172 -504
q-91 -140 -260 -267l-24 29q162 158 230 286q162 301 162 838q0 56 -4 143zM439 1962l142 -55q34 -13 34 -36q0 -25 -38 -30l-60 -8q-15 -40 -59 -176q-17 -51 -96 -230q31 -11 46 -16q66 -20 66 -47q0 -23 -35 -37l-36 -13v-1067q1 -34 6 -71l2 -23q3 -32 3 -38
q0 -52 -56 -52q-44 0 -44 46v1218q-20 -33 -30 -50q-118 -200 -221 -302l-24 26q115 173 171 284q172 337 229 677z" />
  </g>

</svg>
