<?xml version="1.0" standalone="no"?>
<!DOCTYPE svg PUBLIC "-//W3C//DTD SVG 1.1//EN" "http://www.w3.org/Graphics/SVG/1.1/DTD/svg11.dtd" >
<svg xmlns="http://www.w3.org/2000/svg" xmlns:xlink="http://www.w3.org/1999/xlink" version="1.1" viewBox="0 -140 1000 1000">
  <g transform="matrix(1 0 0 -1 0 860)">
   <path fill="currentColor"
d="M586 791v131l100 -22v-12l-36 -15v-82l188 -1l35 35h15l65 -68l-7 -13l-32 -3l-79 -84l-13 7l24 103h-451q0 -66 -19.5 -110.5t-44.5 -44.5q-12 0 -20 13t-8 35q0 21 13 35q34 40 44 63.5t14 72.5h12l9 -40h191zM754 632l33 30h15l54 -46v-15l-26 -20v-142l-12 -13
l-46 -9l-7 13v28h-290v-127h317l28 37h14l61 -50v-16l-26 -17v-177l-6 -13l-43 -13l-15 7v41h-330l1 -48l-9 -14l-46 -14l-10 4v600l68 -27zM765 609h-290v-129h290v129zM805 309h-330v-157h330v157zM156 58v524q-52 -76 -89 -115l-14 12q124 196 184 454l92 -35l-5 -14
l-27 -6q-35 -107 -82 -211l36 -12v-12l-31 -16v-550l-8 -13l-45 -13z" />
  </g>

</svg>
