<?xml version="1.0" standalone="no"?>
<!DOCTYPE svg PUBLIC "-//W3C//DTD SVG 1.1//EN" "http://www.w3.org/Graphics/SVG/1.1/DTD/svg11.dtd" >
<svg xmlns="http://www.w3.org/2000/svg" xmlns:xlink="http://www.w3.org/1999/xlink" version="1.1" viewBox="0 -200 1000 1000">
  <g transform="matrix(1 0 0 -1 0 800)">
   <path fill="currentColor"
d="M410 807l-57 -15l-15 38h116v44l-11 99l87 -32l-18 -67v-44h44l42 45l55 -68h-178v-190h63l34 45l64 -56l-32 -44q-2 -33 -2.5 -63.5t-1.5 -59.5h-1v-24q-6 -155 -12 -234.5t-10 -85.5q-1 -9 -7.5 -23t-18 -27t-27.5 -22t-36 -9q-9 0 -19 3q-5 17 -7 25t-9.5 15t-24 15.5
t-49.5 26.5q-20 -45 -43.5 -77.5t-60.5 -52.5l-9 2q35 33 62.5 111.5t46.5 187.5t29 242t10 275v20h-4zM781 902l-20 -55q-5 -24 -8 -40t-6 -30t-6 -28.5t-8 -34.5h123l44 43l59 -64h-75v-16q0 -83 -8 -150.5t-19.5 -121.5t-25 -95t-24.5 -71q37 -81 81 -134.5t92 -74.5v-8
q-25 -3 -47.5 -9t-43.5 -23q-27 29 -57 83.5t-53 117.5q-16 -34 -39.5 -66.5t-52 -62t-60 -53.5t-63.5 -41l-5 2q56 52 109.5 123.5t88.5 163.5q-14 45 -24 85t-17 78.5t-11 78t-7 84.5q-15 -39 -37.5 -77.5t-43.5 -66.5h-5q42 115 67.5 242.5t30.5 277.5zM463 594
q-11 -165 -29 -284t-52 -204q35 -20 73 -20q27 0 45 12q4 3 9 6.5t10 17t10 42.5t9 83t7 138.5t4 208.5h-86zM712 624q9 -71 19 -123t19 -89t17 -61t13 -38q17 53 35 134t18 194q0 13 -0.5 26t-0.5 26h-102zM230 6q-14 -13 -23 -20t-31 -15v636q-83 -134 -160 -211l-8 13
q31 48 58.5 93.5t50.5 90.5q27 53 46.5 95.5t36 84t31 87.5t31.5 108l83 -48l-32 -30q-34 -73 -57 -125.5t-37 -84.5l31 -31l-20 -57v-586z" />
  </g>

</svg>
