<?xml version="1.0" standalone="no"?>
<!DOCTYPE svg PUBLIC "-//W3C//DTD SVG 1.1//EN" "http://www.w3.org/Graphics/SVG/1.1/DTD/svg11.dtd" >
<svg xmlns="http://www.w3.org/2000/svg" xmlns:xlink="http://www.w3.org/1999/xlink" version="1.1" viewBox="0 -410 2048 2048">
  <g transform="matrix(1 0 0 -1 0 1638)">
   <path fill="currentColor"
d="M1079 1828l65 78l71 -50q44 -30 44 -49q0 -20 -39 -38q-14 -7 -35 -19v-320l53 -43q11 -8 11 -22q0 -26 -17 -26h-497v-353h261l97 96l129 -96q15 -11 15 -27q0 -28 -22 -28h-480v-357h287l96 97l126 -97q16 -12 16 -29q0 -24 -22 -24h-503v-380q0 -51 -3 -57
q-6 -14 -40 -14q-62 0 -62 53q0 12 2 41q9 111 9 250v1368q0 17 -12 124l111 -78h339zM735 1400h358v374h-358v-374zM1749 1832l68 74l84 -52q40 -25 40 -49q0 -27 -77 -61v-375l46 -35q16 -12 16 -25q0 -24 -20 -24h-380q-121 0 -194 -10l-38 90q93 -26 232 -26h239v439
h-256l-118 -4h-20l-49 -3l-32 77q83 -16 223 -16h236zM1249 1068q87 -16 224 -16h296l68 76l83 -54q41 -26 41 -49q0 -27 -78 -61q-46 -170 -99 -296q-47 -114 -148 -233q153 -166 364 -241v-34q-40 -5 -56 -11q-28 -12 -57 -56q-32 24 -49 35q-101 71 -160 128
q-25 24 -106 108q-126 -114 -240 -173q-105 -54 -249 -105l-15 40q274 117 454 309q-142 204 -184 563q-4 0 -7 -1q-38 -2 -39 -2q-9 -3 -13 -3zM1392 998q58 -300 186 -498q86 127 133 250q12 31 74 248h-393zM338 1415l83 -32q24 -9 24 -29t-18 -27l-53 -21v-1056
q0 -46 8 -123q1 -7 1 -15q0 -46 -59 -46q-32 0 -40 18q-6 13 -6 95v1114q-103 -193 -202 -304l-30 38q285 442 361 934l144 -52q45 -16 45 -38q0 -27 -45 -32l-61 -7q-72 -254 -152 -417z" />
  </g>

</svg>
