<?xml version="1.0" standalone="no"?>
<!DOCTYPE svg PUBLIC "-//W3C//DTD SVG 1.1//EN" "http://www.w3.org/Graphics/SVG/1.1/DTD/svg11.dtd" >
<svg xmlns="http://www.w3.org/2000/svg" xmlns:xlink="http://www.w3.org/1999/xlink" version="1.1" viewBox="0 -200 1000 1000">
  <g transform="matrix(1 0 0 -1 0 800)">
   <path fill="currentColor"
d="M449 956l74 -49h282l48 45l65 -71h-235v-130h83l44 47l65 -71h-193v-149h84l44 48l68 -70h-196v-154h138l34 47l70 -62l-37 -46q-2 -88 -3 -147t-11 -99t-34 -66.5t-72 -48.5q-3 22 -8.5 36t-19.5 24t-39 18.5t-67 20.5v7q48 -13 96 -13q32 0 51 7.5t26 19.5q7 6 12 20.5
t8.5 45t5.5 81.5t3 130h-386v579zM504 556v-154h125v154h-125zM504 726v-148h125v148h-125zM513 881l-9 -15v-115h125v130h-116zM490 286l1 9q29 -42 44 -75.5t15 -63.5v-11q-1 -7 -3 -16t-6.5 -17t-11 -13.5t-16.5 -5.5q-19 0 -19 35q0 20 6 37.5t6 36.5q0 36 -16 84z
M423 293h1q2 -30 3 -55t1 -46q0 -64 -10.5 -91t-41.5 -27q-13 0 -17 5.5t-4 15.5q0 11 10 28.5t22 42t23 56.5t13 71zM580 300l2 4q27 -24 43.5 -44.5t25 -37.5t11.5 -30.5t3 -22.5q0 -17 -7.5 -32t-23.5 -15q-8 0 -14.5 8.5t-8.5 32.5q3 10 3 25q0 24 -7.5 55.5t-26.5 57.5
v-1zM680 302l-2 10q16 -15 33 -32t30.5 -33t22 -31.5t8.5 -27.5q0 -18 -10.5 -30t-21.5 -12q-12 0 -16 14t-8 36.5t-11 50.5t-25 55zM579 298l1 3v-1zM292 8q-14 -13 -23 -20t-31 -15v636q-83 -134 -160 -211l-8 13q31 48 58.5 93.5t50.5 90.5q27 53 46.5 95.5t36 84
t31 87.5t31.5 108l83 -48l-32 -30q-34 -73 -57 -125.5t-37 -84.5l31 -31l-20 -57v-586z" />
  </g>

</svg>
