<?xml version="1.0" standalone="no"?>
<!DOCTYPE svg PUBLIC "-//W3C//DTD SVG 1.1//EN" "http://www.w3.org/Graphics/SVG/1.1/DTD/svg11.dtd" >
<svg xmlns="http://www.w3.org/2000/svg" xmlns:xlink="http://www.w3.org/1999/xlink" version="1.1" viewBox="0 -200 1000 1000">
  <g transform="matrix(1 0 0 -1 0 800)">
   <path fill="currentColor"
d="M346 566q17 16 28.5 27.5t19.5 23.5t14.5 27.5t13.5 39.5l14 -1l6 -39h87q-15 2 -18.5 13t-6.5 32.5t-11.5 54.5t-32.5 80h-33l-70 -14l-25 35h268v38l-11 88l84 -22l-15 -63v-41h145l51 49l70 -70h-160l73 -44l1 -10q-18 -3 -50 -36t-71 -90h94l37 42q19 -15 36.5 -24
t31 -16t21.5 -14t8 -18q0 -8 -4 -10.5t-12 -2.5q-4 0 -8 0.5t-9 0.5q-9 0 -20.5 -2.5t-23 -10.5t-23.5 -23.5t-23 -41.5l-14 -4q1 9 3.5 20.5t5 23.5t4.5 22.5t2 16.5q0 8 -5 14t-20 6h-356q-2 -32 -7 -52t-14.5 -31.5t-23.5 -16t-33 -6.5q-27 6 -27 22q0 10 11 27h-2z
M591 583l86 -27l-20 -58v-31h177l50 49l71 -71h-451l65 -27l-22 -50l-5 -36h248l35 46l65 -46l-41 -33q-2 -96 -15.5 -156t-39 -94t-63.5 -48t-89 -18q-2 21 -24.5 41t-70.5 31q-2 0 -2 2t1 5.5t2 2.5q18 -4 31 -6t24 -3.5t22 -2t23 -0.5q40 0 66.5 11t42.5 39.5t23.5 78.5
t9.5 128h-250q-2 -24 -8.5 -54t-11.5 -53q-12 -42 -29 -78t-42 -66t-60 -52.5t-84 -36.5l-1 10q57 41 91.5 88.5t53.5 104t27 124t13 148.5h-101l-74 -13l-25 35h313v33zM476 824q48 -46 71 -83.5t25 -49.5q0 -12 -4 -28t-10 -19h136q29 63 46.5 105.5t17.5 72.5v2h-282z
M240 9q-14 -13 -23 -20t-31 -15v636q-83 -134 -160 -211l-8 13q31 48 58.5 93.5t50.5 90.5q27 53 46.5 95.5t36 84t31 87.5t31.5 108l83 -48l-32 -30q-34 -73 -57 -125.5t-37 -84.5l31 -31l-20 -57v-586z" />
  </g>

</svg>
