<?xml version="1.0" standalone="no"?>
<!DOCTYPE svg PUBLIC "-//W3C//DTD SVG 1.1//EN" "http://www.w3.org/Graphics/SVG/1.1/DTD/svg11.dtd" >
<svg xmlns="http://www.w3.org/2000/svg" xmlns:xlink="http://www.w3.org/1999/xlink" version="1.1" viewBox="0 -120 1000 1000">
  <g transform="matrix(1 0 0 -1 0 880)">
   <path fill="currentColor"
d="M34 448q103 201 159 506l83 -23q23 -6 23 -16q0 -11 -19 -14l-20 -3q-30 -104 -67 -197l19 -4q14 -3 14 -14q0 -9 -13 -15l-11 -6v-596l-65 -15v527q-43 -77 -88 -140zM373 485q-12 -156 -52 -253q-31 -75 -84 -141l-15 8q38 71 51 110q40 116 40 392v299l69 -22
q163 10 392 63l59 -52q6 -5 6 -9q0 -5 -22 -7h-4l-38 1q-132 -17 -398 -22v-76h411l25 36l61 -39q12 -7 12 -16q0 -7 -10 -11l-16 -5v-149l-59 -11l-1 31h-423l-2 -99h160l25 36l60 -41q10 -7 10 -16q0 -8 -11 -13l-11 -4v-357q0 -34 -28 -49q-35 -18 -57 -18q-5 0 -7 3
q-1 2 -2 30q0 10 -19 15l-47 13v16l102 1v143q-121 -106 -244 -165l-9 14q71 47 152 123q65 60 101 110v68q-101 -87 -181 -131l-9 13q111 89 175 183zM377 639h424l1 111h-425v-111zM840 275q-114 -90 -213 -134l-7 17q119 74 220 192v80q-112 -92 -205 -142l-9 17
q131 98 193 182l-164 1l-11 25h190l24 34l63 -40q12 -8 12 -15q0 -6 -16 -11l-16 -5l1 -347q0 -33 -11 -46q-10 -10 -37 -19q-26 -8 -37 -8q-7 0 -10 4q0 1 -3 26q-2 10 -20 16l-43 14v15h99v144z" />
  </g>

</svg>
