<?xml version="1.0" standalone="no"?>
<!DOCTYPE svg PUBLIC "-//W3C//DTD SVG 1.1//EN" "http://www.w3.org/Graphics/SVG/1.1/DTD/svg11.dtd" >
<svg xmlns="http://www.w3.org/2000/svg" xmlns:xlink="http://www.w3.org/1999/xlink" version="1.1" viewBox="0 -140 1000 1000">
  <g transform="matrix(1 0 0 -1 0 860)">
   <path fill="currentColor"
d="M425 776l7 8q89 -53 89 -88q0 -14 -18 -39h160l48 130l73 -24l-4 -15l-24 -7l-71 -84h141l47 58h14l65 -66v-15h-666v23h196q-18 9 -21 38q-5 36 -36 81zM746 564l31 36h14l56 -48v-14l-23 -13v-211l-8 -10l-49 -9l-6 6v26h-65v-185q0 -26 29 -26h84q32 0 44 5.5t21 28.5
l39 100l13 -4l-9 -122l29 -21v-15q-26 -20 -44.5 -25t-59.5 -5h-92q-79 0 -96.5 13t-17.5 72v184h-83q-3 -59 -17.5 -101.5t-48 -78t-90.5 -59.5t-142 -38l-5 15q127 35 184 92.5t58 169.5h-63v-23l-7 -8l-47 -8l-9 5v300l69 -29h311zM761 540h-332v-86h332v86zM761 432
h-332v-84h332v84zM571 814v115l99 -20v-13l-34 -18v-64h151l47 59h14l65 -66v-15h-585v22h243zM155 55v523q-47 -69 -95 -117l-12 9q66 99 104.5 195t83.5 264l92 -35l-5 -14l-27 -7q-20 -57 -82 -210l36 -11v-13l-36 -16v-549l-9 -11l-40 -14z" />
  </g>

</svg>
