<?xml version="1.0" standalone="no"?>
<!DOCTYPE svg PUBLIC "-//W3C//DTD SVG 1.1//EN" "http://www.w3.org/Graphics/SVG/1.1/DTD/svg11.dtd" >
<svg xmlns="http://www.w3.org/2000/svg" xmlns:xlink="http://www.w3.org/1999/xlink" version="1.1" viewBox="0 -120 1000 1000">
  <g transform="matrix(1 0 0 -1 0 880)">
   <path fill="currentColor"
d="M31 428q5 9 29 52q44 77 91 234q27 93 54 234l74 -16q23 -5 23 -15q0 -12 -13 -16l-16 -4q-27 -90 -66 -202l10 -3q14 -5 14 -13t-17 -14l-16 -7l3 -597l-61 -13l-3 501q-60 -96 -91 -134zM231 448q5 9 31 56q54 97 90 255l71 -19q13 -4 13 -13t-12 -14l-15 -6l-15 -32
l445 1l25 34l65 -44q11 -7 11 -16q0 -8 -14 -12l-20 -5l-4 -317q-2 -140 -7 -169q-11 -52 -53 -79q-30 -19 -56 -19q-10 0 -10 6l1 24q0 9 -16 14l-44 13q-39 -29 -62 -29q-7 0 -9 5q-1 1 -3 24q-1 6 -12 9l-37 10v16h66v122h-111v-174l-56 -11v185h-108v-174l-58 -10l1 467
q-44 -69 -83 -110zM349 583l38 -23h262l24 36l52 -32q21 -13 21 -22q0 -7 -11 -9l-16 -3l3 -403h99q22 53 22 172l2 350h-464q-14 -33 -32 -66zM385 399v-111h108v111h-108zM385 535v-111h108v111h-108zM549 399v-111h111v111h-111zM549 535v-111h111v111h-111zM288 798
l-11 27h184v116l66 -6q24 -2 24 -11q0 -8 -13 -15l-19 -9v-75h145l-1 114l68 -5q24 -1 24 -12q0 -9 -13 -15l-17 -8v-74h84l40 52l87 -63v-16h-211v-80l-61 -9v89h-145v-87l-58 -8v95h-173z" />
  </g>

</svg>
