<?xml version="1.0" standalone="no"?>
<!DOCTYPE svg PUBLIC "-//W3C//DTD SVG 1.1//EN" "http://www.w3.org/Graphics/SVG/1.1/DTD/svg11.dtd" >
<svg xmlns="http://www.w3.org/2000/svg" xmlns:xlink="http://www.w3.org/1999/xlink" version="1.1" viewBox="0 -410 2048 2048">
  <g transform="matrix(1 0 0 -1 0 1638)">
   <path fill="currentColor"
d="M655 1848q91 -27 230 -27h840l96 99l130 -99q17 -13 17 -27q0 -26 -25 -26h-440v-202h244l68 76l84 -55q40 -26 40 -48q0 -28 -79 -62v-166q0 -76 6 -140q4 -43 4 -58q0 -52 -61 -52q-50 0 -50 32v41h-957v-26q0 -40 -58 -40q-50 0 -50 46q0 14 3 62q5 63 5 140v314
l121 -64h230v202h-168q-112 0 -192 -8zM802 1188h251v324h-251v-324zM1149 1188h256v324h-256v-324zM1503 1188h256v324h-256v-324zM1405 1566v202h-256v-202h256zM752 969q91 -22 232 -22h543l96 103l128 -98q17 -13 17 -29q0 -27 -27 -27h-757q-120 0 -194 -8zM550 721
q95 -24 232 -24h952l98 116l142 -110q16 -12 16 -28q0 -30 -30 -30h-632v-386q0 -17 4 -60q4 -45 4 -57q0 -67 -65 -67q-39 0 -39 34v536h-450q-111 0 -177 -7l-14 -1zM914 593l118 -57q39 -19 39 -40q0 -24 -50 -24h-45q-139 -158 -465 -312l-15 37q300 195 418 396z
M1512 579q87 -43 271 -155t184 -200q0 -62 -47 -62q-17 0 -34 13q-12 9 -54 70q-97 143 -339 301zM446 1965l145 -52q44 -15 44 -38q0 -27 -44 -32l-62 -7q-50 -165 -159 -417l87 -36q24 -9 24 -29t-19 -27l-52 -21v-1040l2 -51l1 -43q5 -50 5 -59q0 -46 -61 -46
q-27 0 -36 14q-8 12 -8 98v1132q-120 -229 -241 -354l-36 32q334 492 410 976z" />
  </g>

</svg>
