<?xml version="1.0" standalone="no"?>
<!DOCTYPE svg PUBLIC "-//W3C//DTD SVG 1.1//EN" "http://www.w3.org/Graphics/SVG/1.1/DTD/svg11.dtd" >
<svg xmlns="http://www.w3.org/2000/svg" xmlns:xlink="http://www.w3.org/1999/xlink" version="1.1" viewBox="0 -200 1000 1000">
  <g transform="matrix(1 0 0 -1 0 800)">
   <path fill="currentColor"
d="M445 663q23 0 49 20v23h121v-65h-254l20 -35l46 15h517l-55 61l-36 -41h-189v65h168v100l32 34l-51 47l-37 -40h-112v25l20 55l-69 39v-119h-105l-65 30v-214zM494 727v79l8 19h113v-98h-121zM664 727v98h115v-98h-115zM459 584v-408q13 0 25.5 4t25.5 16v32h259l3 -40
q14 0 25 5t26 15v298l31 29l-49 49l-40 -39h-249zM510 329h259v-78h-259v78zM565 190q-21 -37 -56.5 -71t-76 -62t-81 -48.5t-70.5 -30.5l9 -2q32 5 71.5 18t78 30.5t72 38.5t54.5 41l39 21zM712 157q38 -23 65 -51.5t45 -53.5t28.5 -42t15.5 -17q7 0 12 8t6 27v4
q0 13 -3 26t-19.5 27.5t-51.5 32t-98 39.5zM769 350h-259v76h259v-76zM769 524v-75h-259v65l14 10h245zM265 6q-14 -13 -23 -20t-31 -15v636q-83 -134 -160 -211l-8 13q31 48 58.5 93.5t50.5 90.5q27 53 46.5 95.5t36 84t31 87.5t31.5 108l83 -48l-32 -30
q-34 -73 -57 -125.5t-37 -84.5l31 -31l-20 -57v-586z" />
  </g>

</svg>
