<?xml version="1.0" standalone="no"?>
<!DOCTYPE svg PUBLIC "-//W3C//DTD SVG 1.1//EN" "http://www.w3.org/Graphics/SVG/1.1/DTD/svg11.dtd" >
<svg xmlns="http://www.w3.org/2000/svg" xmlns:xlink="http://www.w3.org/1999/xlink" version="1.1" viewBox="0 -410 2048 2048">
  <g transform="matrix(1 0 0 -1 0 1638)">
   <path fill="currentColor"
d="M1478 1451q-41 -134 -142 -336l-34 21q53 139 91 312q60 278 72 498l145 -48q34 -11 34 -37q0 -19 -30 -26l-54 -12q-14 -71 -29 -147q-20 -105 -38 -173h249l86 100l101 -86q32 -27 32 -41q0 -25 -24 -25h-74q-7 -46 -17 -143q-47 -448 -198 -765q60 -114 150 -216
q49 -55 113 -99q55 -39 69 -49l-8 -30q-39 0 -52 -3q-32 -7 -66 -46q-167 170 -257 360q-159 -227 -384 -379l-17 34q116 99 204 206q62 74 152 225q-64 193 -88 366q-15 106 -29 290l41 9q39 -354 125 -566l8 22q120 315 155 784h-286zM379 1407l74 -31q23 -10 23 -29
q0 -21 -18 -28l-51 -21v-986q0 -37 4 -118l2 -36q4 -36 4 -45q0 -54 -59 -54q-31 0 -39 17q-6 14 -6 96v1100q-103 -190 -221 -313l-25 23q140 214 244 494q89 238 128 478l140 -52q42 -16 42 -39q0 -26 -42 -31l-60 -7q-67 -257 -140 -418zM754 1094l109 -63h62l59 71
l64 -44q47 -32 47 -55q0 -16 -63 -52v-359l25 -17q26 -18 26 -34q0 -24 -35 -24h-197v-72q0 -38 -75 -38q-22 0 -22 22v665zM851 575h88v401h-88v-401zM591 1798q201 -210 201 -297q0 -47 -28 -68q-13 -10 -28 -10q-40 0 -47 71q-10 87 -120 281zM861 1958l112 -25
q76 -17 76 -46q0 -27 -48 -41l-39 -11v-507h161l68 76l85 -54q39 -25 39 -49q0 -16 -12 -26q-9 -9 -69 -39v-958q0 -127 -139 -151q-11 70 -44 87q-22 12 -116 34l7 42q38 -6 112 -20q20 -4 37 -4q50 0 50 50v956h-479v-1095q0 -54 -59 -54q-50 0 -50 45q0 18 4 50
q12 98 12 209v855q-4 88 -16 134l115 -88h200v470q0 117 -7 160zM1147 1809l130 -60q27 -13 27 -29q0 -21 -27 -25l-57 -8q-82 -147 -182 -265l-30 21q86 174 139 366z" />
  </g>

</svg>
