<?xml version="1.0" standalone="no"?>
<!DOCTYPE svg PUBLIC "-//W3C//DTD SVG 1.1//EN" "http://www.w3.org/Graphics/SVG/1.1/DTD/svg11.dtd" >
<svg xmlns="http://www.w3.org/2000/svg" xmlns:xlink="http://www.w3.org/1999/xlink" version="1.1" viewBox="0 -204 1024 1024">
  <g transform="matrix(1 0 0 -1 0 820)">
   <path fill="currentColor"
d="M237 972q52 -17 90 -34q6 -8 6 -14q0 -10 -20 -14q-21 -4 -31 -4q-28 -92 -65 -175q-4 -14 -10 -25q48 -20 48 -32q0 -10 -33 -22v-536q0 -31 4 -47q1 -13 1 -22q0 -32 -39 -34q-17 0 -17 17q0 30 1 37q2 15 2 36v537q-14 -28 -30 -54q-41 -63 -98 -130l-18 13
q50 70 85 134q27 55 55 122q26 66 45 125q14 56 24 122zM590 964q16 -9 30 -20q15 -11 23 -20q9 -9 13 -16q3 -6 3 -13q0 -22 -6 -32h214l44 49q36 -28 69 -52q7 -5 7 -12q0 -14 -14 -14h-556q-72 -2 -99 -6l-19 46q44 -11 118 -11h203q-3 2 -3 4q-2 14 -9 29q-7 14 -14 26
q-8 13 -23 29zM429 813l64 -30h294l35 33q51 -36 51 -49q0 -12 -29 -26v-58q10 -10 18 -16q5 -3 5 -7q0 -13 -9 -13h-379v-13q0 -10 -11 -16q-15 -5 -26 -5q-13 0 -13 13q0 4 1 15q1 22 1 42v61q0 49 -2 69zM479 674h317v80h-317v-80zM354 620l14 -2q2 -16 2 -32h526l31 31
q35 -25 62 -53q3 -3 3 -6q0 -8 -18 -12q-17 -4 -32 -7q-10 -11 -24 -24q-18 -16 -33 -27l-18 13q13 17 20 30q8 14 11 28h-529q-1 -19 -3 -33q-6 -26 -15 -42q-6 -14 -15 -24t-18 -13q-8 -2 -15 -2q-23 0 -23 16q0 8 11 19q25 25 37 44q12 16 18 40q6 20 8 56zM387 511
q44 -13 118 -13h259l41 45q34 -24 63 -49q8 -4 8 -9q0 -14 -15 -14h-221q-33 -29 -61 -50q46 -35 71 -70q16 -20 26 -36q25 11 46 22q27 14 48 30q23 16 39 31q17 15 28 31q81 -50 81 -63q0 -10 -20 -10q-11 0 -33 4q-28 -14 -63 -28q-33 -12 -67 -21q-23 -8 -49 -13
q10 -15 20 -23q24 -27 53 -46q23 -20 67 -39q40 -20 80 -31q35 -11 74 -15v-13q-61 0 -74 -38q-52 16 -84 37q-45 21 -77 51q-21 16 -38 36q1 -12 1 -21q0 -49 -13 -86q-9 -33 -24 -53q-16 -20 -43 -30q-25 -10 -48 -10q0 26 -7 32q-6 8 -17 13q-22 13 -69 23l6 19
q90 -22 116 -22q11 0 21 7q8 6 13 17q8 11 12 39q4 26 4 51q0 21 -2 36q-43 -37 -87 -62q-52 -32 -117 -56q-71 -26 -143 -42l-11 21q90 25 146 52q57 26 102 57q40 29 97 83q-8 24 -21 43q-44 -37 -88 -63q-46 -27 -100 -45q-60 -23 -121 -35l-11 19q77 23 123 45
q47 24 86 52q34 22 82 69q-16 20 -37 37q-32 -19 -68 -37q-44 -18 -80 -32q-48 -15 -101 -25l-9 17q57 17 93 31q37 14 69 35q41 19 66 42q21 15 35 33h-57q-72 -2 -97 -8z" />
  </g>

</svg>
