<?xml version="1.0" standalone="no"?>
<!DOCTYPE svg PUBLIC "-//W3C//DTD SVG 1.1//EN" "http://www.w3.org/Graphics/SVG/1.1/DTD/svg11.dtd" >
<svg xmlns="http://www.w3.org/2000/svg" xmlns:xlink="http://www.w3.org/1999/xlink" version="1.1" viewBox="0 -140 1000 1000">
  <g transform="matrix(1 0 0 -1 0 860)">
   <path fill="currentColor"
d="M224 795h59v127l87 -17v-12l-23 -13v-85h91v127l88 -17v-12l-23 -13v-85h32l33 34h13l41 -41v-16h-120v-104l-8 -12l-46 -10l-10 6v14h-12v-70h61l27 25h13l49 -38v-13l-21 -15v-111l-8 -15l-47 -8l-10 3v26h-62q0 -32 -4 -81l74 1l34 36h12l42 -46v-14h-163
q-2 -25 -12 -77h101l38 40h13l43 -48l-1 -15l-199 -1l-3 -14q93 -38 128.5 -65t35.5 -60q0 -40 -18 -40t-45 46q-28 47 -108 100q-33 -60 -73 -94.5t-114 -66.5l-8 11q121 78 146 183h-132l-1 24h138q8 41 9 78h-140v23h141l2 42q0 26 -1 38h-56v-21l-7 -10l-48 -9l-10 6
l1 203l63 -23h59v70h-18q0 -11 -6 -20l-48 -9l-10 8v127h-59v23zM306 472h57v102h-56zM347 690h91v82h-91v-82zM428 472h63l-1 102h-62v-102zM682 717h79l40 183l81 -33l-2 -14l-27 -5l-66 -131h58l34 42h12l51 -51v-13h-129v-162h36l34 38h13l46 -46v-15h-128l-1 -158h34
l36 38h11l48 -47v-14h-128l-1 -186h34l38 40h10l50 -48l1 -16h-263v-43l-5 -8l-46 -15l-13 5v512q-19 -40 -46 -80l-13 7q70 182 103 436l89 -29l-2 -13l-27 -12q-8 -37 -41 -162zM683 533h67v162h-67v-162zM683 352h67v158h-67v-158zM683 143h67v186h-67v-186zM128 50v502
q-12 -25 -62 -95l-12 7q84 186 124 474l85 -30v-12l-27 -13q-28 -117 -51 -197l28 -13v-13l-21 -12l1 -578l-14 -13l-41 -14z" />
  </g>

</svg>
