<?xml version="1.0" standalone="no"?>
<!DOCTYPE svg PUBLIC "-//W3C//DTD SVG 1.1//EN" "http://www.w3.org/Graphics/SVG/1.1/DTD/svg11.dtd" >
<svg xmlns="http://www.w3.org/2000/svg" xmlns:xlink="http://www.w3.org/1999/xlink" version="1.1" viewBox="0 -204 1024 1024">
  <g transform="matrix(1 0 0 -1 0 820)">
   <path fill="currentColor"
d="M28 838q44 -12 117 -12h83v50q0 54 -6 80q59 -7 97 -23q13 -4 13 -14t-13 -13q-19 -10 -43 -12v-68h72l47 53l72 -55q9 -6 9 -12q0 -14 -16 -14h-184v-132h84l35 33q51 -36 51 -50q0 -10 -30 -25v-163l23 -18q5 -3 5 -7q0 -14 -10 -14h-98v-297q0 -8 4 -15q3 -6 12 -10
q7 -4 23 -7q27 -4 74 -4h334q52 0 75 1q17 3 31 4q15 3 20 8q8 5 11 14q10 23 20 80l20 -9q-5 -15 -7 -38q0 -29 8 -35q31 -10 31 -30q0 -8 -5 -13q-4 -5 -21 -12q-19 -8 -53 -12q-37 -3 -130 -3h-334q-64 0 -94 7q-26 2 -42 12q-14 9 -20 22q-5 14 -5 25v312h-57
q-4 -58 -12 -104q-8 -53 -25 -94q-15 -47 -34 -83q-20 -36 -49 -66q-30 -33 -72 -59l-15 19q41 35 65 68q24 32 40 66q15 34 26 70q11 37 19 87q5 40 9 96h-51q0 -10 -12 -16q-15 -6 -25 -6q-13 0 -13 14q0 4 1 14q1 23 1 42v158q0 49 -2 68l63 -30h83v132h-83
q-71 -2 -97 -7zM132 450h236v188h-236v-188zM909 955q34 -25 64 -49q7 -4 7 -10q0 -14 -14 -14h-426v-226q0 -76 -6 -143q-4 -59 -17 -120q-9 -49 -25 -91q-15 -38 -38 -73q-20 -30 -56 -61l-14 11q22 26 39 58q16 28 27 60q12 35 21 81q10 54 14 111q7 74 7 167
q0 183 -4 292l57 -38h323zM596 825l58 -27h209l32 29q47 -33 47 -46q0 -9 -28 -23v-235q0 -21 1 -28q1 -6 1 -14q0 -19 -32 -25q-14 0 -14 10v32h-92v-120h66l38 41q31 -24 59 -45q7 -5 7 -10q0 -14 -13 -14h-157v-120h102l41 45q34 -25 64 -49q7 -4 7 -10q0 -14 -14 -14
h-333q-71 -2 -97 -7l-20 47q44 -12 117 -12h89v120h-41q-71 -2 -97 -7l-20 47q44 -12 117 -12h41v120h-92v-21q0 -10 -11 -15q-14 -6 -23 -6q-12 0 -12 13q0 3 1 13q1 22 1 39v241q0 45 -2 63zM642 526h92v104h-92v-104zM778 630v-104h92v104h-92zM642 658h92v112h-92v-112z
M778 770v-112h92v112h-92z" />
  </g>

</svg>
