<?xml version="1.0" standalone="no"?>
<!DOCTYPE svg PUBLIC "-//W3C//DTD SVG 1.1//EN" "http://www.w3.org/Graphics/SVG/1.1/DTD/svg11.dtd" >
<svg xmlns="http://www.w3.org/2000/svg" xmlns:xlink="http://www.w3.org/1999/xlink" version="1.1" viewBox="0 -120 1000 1000">
  <g transform="matrix(1 0 0 -1 0 880)">
   <path fill="currentColor"
d="M498 139q26 39 26 111q0 23 -3 63q-135 -85 -245 -134q-99 -45 -216 -78l-7 21q139 52 267 128q73 44 169 119q13 9 25 20q-8 24 -20 47q-10 -6 -86 -51q-155 -92 -320 -133l-5 17q224 89 374 218l-35 35q-151 -94 -330 -137l-4 17q118 46 194 91q66 38 135 94l-318 1
l-9 26h696l49 64l93 -72v-19l-343 -1q14 -48 22 -70q17 -42 54 -102q79 84 124 150l65 -39q18 -11 18 -21q0 -11 -18 -12h-24l-150 -101q49 -60 106 -105q73 -59 167 -109l-4 -13q-23 -1 -36 -7q-20 -10 -35 -39q-121 76 -213 214q-76 114 -104 255h-31q-35 -25 -75 -48
q67 -51 91 -93q43 -72 43 -204q0 -122 -53 -159q-18 -13 -55 -23q-16 -5 -22 -5q-8 0 -9 13q0 15 -10 26q-8 7 -33 14l-50 13v17zM200 849q-4 -58 -20 -94q-25 -54 -66 -54q-14 0 -24 11q-10 10 -10 24q0 11 8 24q2 2 43 40q41 37 43 109h21l4 -33h619l31 42l70 -56
q22 -17 22 -29q0 -8 -6 -13q-2 -2 -20 -4h-2h-39l-83 -74l-14 11l41 96h-618zM229 714l-7 25h406l47 59l94 -68l1 -19z" />
  </g>

</svg>
