<?xml version="1.0" standalone="no"?>
<!DOCTYPE svg PUBLIC "-//W3C//DTD SVG 1.1//EN" "http://www.w3.org/Graphics/SVG/1.1/DTD/svg11.dtd" >
<svg xmlns="http://www.w3.org/2000/svg" xmlns:xlink="http://www.w3.org/1999/xlink" version="1.1" viewBox="0 -204 1024 1024">
  <g transform="matrix(1 0 0 -1 0 820)">
   <path fill="currentColor"
d="M108 938l60 -46h288l30 46q36 -23 54 -43q8 -9 8 -15q0 -8 -40 -32v-191q12 -10 26 -21q6 -4 6 -8q0 -14 -10 -14h-256v-38q0 -47 -3 -88h221l30 34q32 -16 49 -34q9 -7 9 -14q0 -16 -40 -28q0 -98 -14 -210q-14 -109 -32 -148q-11 -24 -26 -34q-11 -8 -30 -16
q-25 -10 -58 -10q-2 17 -9 26q-3 8 -17 13q-25 12 -92 31l4 22q116 -30 132 -30q19 0 29 6q12 6 18 16q10 11 18 38q10 39 18 120q8 84 11 190h-223q-3 -23 -6 -47q-9 -72 -36 -138q-25 -74 -62 -125q-42 -59 -119 -126l-14 22q64 61 99 115q32 52 51 101q19 46 32 121
q12 69 12 193v38h-66v-26q0 -12 -22 -12q-8 0 -20 6q-10 8 -10 24t2 46q6 22 6 96v122q0 39 -8 68zM160 642h304v224h-304v-224zM672 858q55 -9 94 -23q12 -5 12 -13q0 -9 -12 -12q-18 -12 -42 -14v-420q0 -21 1 -29q1 -19 1 -29q0 -34 -32 -34q-22 0 -22 18q0 20 2 54
q2 35 2 60v362q0 52 -4 80zM884 954q54 -7 97 -27q9 -4 9 -11q0 -8 -12 -13q-22 -6 -42 -11v-772q0 -32 -18 -51q-16 -15 -41 -25q-24 -12 -41 -12l-1 15q-5 13 -14 18q-13 13 -50 24q-39 10 -89 13v22q81 -16 144 -16q37 0 47 7q15 6 15 31v726q0 58 -4 82z" />
  </g>

</svg>
