<?xml version="1.0" standalone="no"?>
<!DOCTYPE svg PUBLIC "-//W3C//DTD SVG 1.1//EN" "http://www.w3.org/Graphics/SVG/1.1/DTD/svg11.dtd" >
<svg xmlns="http://www.w3.org/2000/svg" xmlns:xlink="http://www.w3.org/1999/xlink" version="1.1" viewBox="0 -140 1000 1000">
  <g transform="matrix(1 0 0 -1 0 860)">
   <path fill="currentColor"
d="M556 867l33 29h13l48 -43v-15l-22 -18v-74l-5 -11l-45 -10l-10 6v26h-412v-311q0 -124 -9 -178q76 70 113 181l75 -23l-1 -12l-26 -6q-5 -6 -22 -29h287l26 29h15l46 -50l-4 -14l-22 -3q0 -103 -5 -150.5t-24 -83.5q-24 -46 -81 -62l-14 5v22l-76 36l5 10l76 -10
q15 -2 26 6t17.5 25t11 35.5t6.5 46.5t2.5 48t0.5 49v39h-201l36 -9v-11l-25 -9v-26h72l25 22h13l50 -40v-13l-18 -10v-57l-7 -10l-47 -3q-5 6 -6 21h-82l1 -58l76 10q-18 15 -41 29l4 8q101 -27 101 -64q0 -19 -14 -19q-15 0 -38 35q-112 -32 -304 -81l-8 -23l-15 -2
l-17 74q117 12 200 26v65h-80v-21l-7 -10l-47 -8l-7 6l1 92q-23 -16 -51 -28q-33 -114 -85 -192l-13 5q31 92 40.5 158t9.5 206l1 473l66 -26h394zM568 844h-412v-65h412v65zM440 733v-15l-29 -15l1 -108l-7 -11l-45 -5l-9 4v164zM178 699h92l19 25h13l19 -29l-1 -18h-142
v22zM538 567l26 30l14 1l52 -41v-14l-17 -11l-1 -97l-7 -8l-42 -8l-10 3v32h-304q0 -17 -5 -26l-51 -13l-5 9l1 164l63 -21h286zM553 544h-63v-67h63v67zM435 544h-69v-67h69v67zM311 544h-62v-67h62v67zM334 357h-61q-17 -23 -39 -46l13 -9h87v55zM334 279h-80v-45h80v45z
M471 279h-82v-45h82v45zM698 840l95 -18v-15l-35 -18l-4 -520l-48 -8l-8 5v574zM848 922l95 -20v-16l-35 -14v-714q0 -61 -20 -80.5t-90 -28.5l-13 8l-1 27l-88 37l3 14l101 -11q5 0 9 -1q27 0 33 10t6 51v738zM178 639h92l19 25h13l19 -29l-1 -18h-142v22zM443 699h92
l19 25h13l19 -29l-1 -18h-142v22zM443 639h92l19 25h13l19 -29l-1 -18h-142v22z" />
  </g>

</svg>
