<?xml version="1.0" standalone="no"?>
<!DOCTYPE svg PUBLIC "-//W3C//DTD SVG 1.1//EN" "http://www.w3.org/Graphics/SVG/1.1/DTD/svg11.dtd" >
<svg xmlns="http://www.w3.org/2000/svg" xmlns:xlink="http://www.w3.org/1999/xlink" version="1.1" viewBox="0 -140 1000 1000">
  <g transform="matrix(1 0 0 -1 0 860)">
   <path fill="currentColor"
d="M468 794l46 59h14l65 -66v-15h-372q-30 -57 -58 -89.5t-82 -71.5l-11 10q57 60 88 129t51 181l93 -28l-5 -12l-31 -8q-3 -6 -17.5 -44t-17.5 -45h237zM259 592l9 11q101 -47 101 -100q0 -29 -15 -29q-19 0 -41 46q-23 45 -54 72zM253 394l5 12q62 -29 87.5 -54.5
t25.5 -57.5q0 -31 -18 -31q-13 0 -27 26q-28 55 -39 70.5t-34 34.5zM212 459h216q5 103 5 166h-196zM181 244h223q14 81 23 193h-219zM424 648l33 31h15l55 -53l-4 -16l-31 -11l-6 -140h13l34 39l14 1l49 -50v-12h-112q-5 -86 -22 -193h14l35 40h12l49 -51v-11l-113 -1
q-15 -83 -27 -104q-19 -39 -79 -63l-14 3l-1 24l-68 31l1 16l64 -5q28 -2 40.5 16t25.5 82l-224 1l-9 -50l-10 -7l-46 -5l-5 9l41 268h-80v22h84l34 228l58 -39h180zM828 703l31 36h14l59 -49v-15l-28 -19v-211q0 -96 -6 -155.5t-24 -113t-54 -82.5t-94 -42l-10 5l-10 31
l-76 49l3 11l76 -13q18 -3 31 -3q33 0 55 26t31.5 75.5t13 96.5t3.5 113v238h-116q-6 -102 -12.5 -164.5t-22.5 -133.5t-42.5 -121t-70 -103.5t-107.5 -105.5l-11 14q97 91 142.5 204t57.5 293l6 117h-136v22h136v227l96 -16v-14l-36 -18q1 -45 1 -118q0 -45 -1 -61h101z
" />
  </g>

</svg>
