<?xml version="1.0" standalone="no"?>
<!DOCTYPE svg PUBLIC "-//W3C//DTD SVG 1.1//EN" "http://www.w3.org/Graphics/SVG/1.1/DTD/svg11.dtd" >
<svg xmlns="http://www.w3.org/2000/svg" xmlns:xlink="http://www.w3.org/1999/xlink" version="1.1" viewBox="0 -120 1000 1000">
  <g transform="matrix(1 0 0 -1 0 880)">
   <path fill="currentColor"
d="M36 185q72 37 145 97q50 43 89 91l-208 1l-10 24l177 2v68h-114l-10 27h124v56h-137l-12 25h149v54l53 -5q26 -3 26 -14q0 -6 -11 -11l-12 -6v-18h106v49l61 -4q18 -1 18 -11q0 -7 -15 -14l-9 -5v-15h74l36 38l62 -47v-17h-172v-55l50 -1l35 39l66 -52l-1 -15l-150 1v-68
l88 1l33 42l70 -56l-1 -13h-308l20 -12q7 -4 7 -9q0 -7 -12 -10l-25 -6q-23 -22 -52 -45v-121q82 28 147 55q-39 36 -89 70l7 14q49 -15 106 -43q32 36 73 100l46 -37q14 -11 14 -15q0 -10 -18 -11h-2h-16l-79 -51q78 -57 78 -102q0 -13 -9 -22q-7 -8 -17 -8q-9 0 -16 8
q-2 2 -16 24q-22 32 -44 55q-137 -77 -263 -134l-13 -22q-5 -7 -10 -7q-8 0 -15 15l-30 65q57 12 111 28l1 100q-89 -53 -166 -82zM285 468v-68h106v68h-106zM285 495h106v56h-106v-56zM54 831l-9 26l255 2l-1 97l78 -7q14 -1 14 -12q0 -8 -10 -13l-16 -9v-56l143 1l43 50
l72 -58l-1 -21h-568zM98 630v176l63 -30h91l25 36l51 -34q7 -5 7 -11q0 -8 -7 -11l-13 -6v-100l-48 -8v19h-116v-22zM151 754v-71h116v71h-116zM367 633v169l59 -26h83l21 31l45 -28q17 -11 17 -19q0 -7 -9 -11l-12 -6l1 -97l-54 -10v26l-100 -1v-20zM418 754v-71h100v71
h-100zM515 71q70 93 108 176q68 150 71 422h-85l-10 28h94v248l81 -12q16 -2 16 -13q0 -9 -8 -12l-23 -10l-3 -201h94l25 38l60 -37q14 -9 14 -22q0 -9 -10 -10l-16 -3q-5 -382 -41 -508q-15 -56 -45 -73q-39 -22 -72 -22q-5 0 -7 4q-1 1 -4 26q-1 12 -20 18l-51 17l1 14
h125q18 33 26 85q21 145 25 294q0 17 1 96v56l-107 -1q-8 -182 -24 -255q-29 -134 -97 -235q-50 -75 -106 -120z" />
  </g>

</svg>
