<?xml version="1.0" standalone="no"?>
<!DOCTYPE svg PUBLIC "-//W3C//DTD SVG 1.1//EN" "http://www.w3.org/Graphics/SVG/1.1/DTD/svg11.dtd" >
<svg xmlns="http://www.w3.org/2000/svg" xmlns:xlink="http://www.w3.org/1999/xlink" version="1.1" viewBox="0 -140 1000 1000">
  <g transform="matrix(1 0 0 -1 0 860)">
   <path fill="currentColor"
d="M829 787l34 30h16l58 -55l-3 -13l-33 -10l-1 -421q-3 -86 -12 -132.5t-38 -80.5q-35 -41 -116 -56l-13 5l-5 32l-90 48l5 13l79 -15q16 -3 37 -3q43 0 61.5 23.5t25.5 88.5q6 54 6 197l-1 326h-558q-101 -145 -223 -220l-8 11q164 146 233 372l92 -27l-3 -14l-31 -10
l-49 -90zM520 723v-15l-34 -19v-214h59l107 228l82 -44l-4 -14l-33 -4l-127 -166h123l47 59h14l65 -67v-15h-333l1 -45q116 -53 177.5 -100.5t61.5 -101.5q0 -37 -20 -37q-22 0 -49 52q-55 104 -171 166v-320l-10 -9l-48 -11l-6 8v298q-76 -104 -153.5 -164.5t-198.5 -108.5
l-6 13q127 70 207 152.5t143 207.5h-340v23h348v265zM219 657l8 8q74 -48 100.5 -78.5t26.5 -63.5q0 -37 -23 -37q-24 0 -38 44q-15 45 -28 68t-46 59z" />
  </g>

</svg>
