<?xml version="1.0" standalone="no"?>
<!DOCTYPE svg PUBLIC "-//W3C//DTD SVG 1.1//EN" "http://www.w3.org/Graphics/SVG/1.1/DTD/svg11.dtd" >
<svg xmlns="http://www.w3.org/2000/svg" xmlns:xlink="http://www.w3.org/1999/xlink" version="1.1" viewBox="0 -200 997 1000">
  <g transform="matrix(1 0 0 -1 0 800)">
   <path fill="currentColor"
d="M826 537l75 -70h-378q-11 -17 -28.5 -40t-44.5 -50h270l29 41l71 -51l-31 -34v-164h-343v-29q-15 -11 -28.5 -20.5t-26.5 -9.5v218q-43 -40 -87.5 -71.5t-107.5 -55.5h-8q48 33 86 66.5t69.5 66.5t58.5 66.5t52 66.5h-119l-71 -18l-21 41h227q7 11 17.5 28t22 36.5t22 41
t17.5 42.5l64 -58l-42 -41l-33 -49h240zM819 728l73 -68h-190v-108q-29 -23 -54 -23v131h-165v-112q-11 -8 -24.5 -13t-28.5 -10v135h-88l-56 -10l-21 34h165v141l79 -28l-26 -56v-57h165v132l76 -28l-22 -60v-44h72zM446 193h285v160h-285v-160zM198 896l-15 -19v-839h576
l63 50l75 -75h-710l-49 -46l-60 64l45 33v689v216l71 -49h565l58 47l71 -71h-690z" />
  </g>

</svg>
