<?xml version="1.0" standalone="no"?>
<!DOCTYPE svg PUBLIC "-//W3C//DTD SVG 1.1//EN" "http://www.w3.org/Graphics/SVG/1.1/DTD/svg11.dtd" >
<svg xmlns="http://www.w3.org/2000/svg" xmlns:xlink="http://www.w3.org/1999/xlink" version="1.1" viewBox="0 -204 1024 1024">
  <g transform="matrix(1 0 0 -1 0 820)">
   <path fill="currentColor"
d="M32 576q43 -10 114 -10h340v314q0 54 -4 80q59 -5 96 -20q14 -7 14 -16t-14 -11q-20 -9 -42 -11v-336h308l54 62q42 -30 80 -61q8 -6 8 -13q0 -18 -14 -18h-436v-428q0 -21 2 -30q2 -16 2 -28q0 -32 -32 -32q-26 0 -26 14q0 23 2 56q2 34 2 60v388h-340q-69 -1 -96 -4z
" />
  </g>

</svg>
