<?xml version="1.0" standalone="no"?>
<!DOCTYPE svg PUBLIC "-//W3C//DTD SVG 1.1//EN" "http://www.w3.org/Graphics/SVG/1.1/DTD/svg11.dtd" >
<svg xmlns="http://www.w3.org/2000/svg" xmlns:xlink="http://www.w3.org/1999/xlink" version="1.1" viewBox="0 -410 2048 2048">
  <g transform="matrix(1 0 0 -1 0 1638)">
   <path fill="currentColor"
d="M1076 701v-312q0 -17 10 -182q4 -55 4 -68q0 -55 -69 -55q-21 0 -35 8q-12 8 -12 43v566h-630q-109 0 -192 -8l-42 92q95 -26 234 -26h630v441h-486q-124 0 -194 -6l-34 83q90 -23 232 -23h482v538q0 108 -8 162l123 -22q86 -15 86 -47q0 -28 -42 -42l-57 -18v-571h488
l98 115l129 -97q33 -25 33 -41q0 -31 -33 -31h-715v-441h640l104 118l135 -106q34 -27 34 -44q0 -26 -34 -26h-879zM1615 1871l146 -58q34 -14 34 -36q0 -29 -41 -29h-58q-86 -129 -187 -221q-92 -84 -249 -173l-33 34q280 210 388 483zM355 1836q371 -227 371 -386
q0 -60 -51 -60q-39 0 -72 73q-36 79 -99 158q-43 53 -180 187z" />
  </g>

</svg>
