<?xml version="1.0" standalone="no"?>
<!DOCTYPE svg PUBLIC "-//W3C//DTD SVG 1.1//EN" "http://www.w3.org/Graphics/SVG/1.1/DTD/svg11.dtd" >
<svg xmlns="http://www.w3.org/2000/svg" xmlns:xlink="http://www.w3.org/1999/xlink" version="1.1" viewBox="0 -140 1000 1000">
  <g transform="matrix(1 0 0 -1 0 860)">
   <path fill="currentColor"
d="M65 74l-11 8q59 154 57 422l-4 411l70 -29l651 1l46 48h15l56 -56l-1 -15h-773q0 -310 -1 -351q-3 -117 -26 -231.5t-62 -179.5q-10 -15 -17 -28zM149 53l-8 14q105 74 188 177l69 -55l-7 -12h-31q-101 -79 -211 -124zM273 793l72 -28h144l28 31h15l54 -48v-13l-26 -18
v-445l-7 -16l-41 -13l-16 7v22h-159q0 -14 -7 -24l-48 -13l-9 9v549zM496 428h-159v-132h159v132zM496 589h-159v-138h159v138zM496 612v131h-159v-131h159zM443 231l8 12q79 -37 111 -64.5t32 -59.5q0 -46 -27 -46q-13 0 -42 57q-23 47 -82 101zM728 685l-1 -431l-5 -13
l-48 -13l-10 5v506l97 -25v-12zM842 827l95 -19v-15l-31 -16l-1 -612q0 -52 -19 -71.5t-84 -33.5l-12 6v30l-82 33l3 15l82 -7q32 -3 40 8.5t8 49.5z" />
  </g>

</svg>
