<?xml version="1.0" standalone="no"?>
<!DOCTYPE svg PUBLIC "-//W3C//DTD SVG 1.1//EN" "http://www.w3.org/Graphics/SVG/1.1/DTD/svg11.dtd" >
<svg xmlns="http://www.w3.org/2000/svg" xmlns:xlink="http://www.w3.org/1999/xlink" version="1.1" viewBox="0 -140 1000 1000">
  <g transform="matrix(1 0 0 -1 0 860)">
   <path fill="currentColor"
d="M174 856v-214q0 -216 -23 -353.5t-85 -233.5l-14 7q34 97 47 199t12 269l-1 382l68 -33h651l46 51h13l59 -59v-15h-773zM179 185l233 42q39 130 52 180l80 -37v-14l-33 -6l-74 -118q66 14 177 39l4 -17q-203 -72 -376 -123l-4 -28l-14 -3zM197 742v23h307l32 37h14
l51 -45v-15h-404zM459 650l26 26h16l53 -38v-13l-22 -16v-170l-6 -13l-45 -13l-14 5v21h-173l-1 -23l-7 -11l-46 -12l-11 10v273l65 -26h165zM468 462v165h-175v-165h175zM247 376l10 7q83 -75 83 -117q0 -14 -9.5 -31.5t-21.5 -17.5q-21 0 -31 61q-7 49 -31 98zM548 602
h216v231l96 -22v-13l-31 -15l1 -181h18l39 41h12l48 -49v-15h-118v-404q0 -58 -14.5 -73t-94.5 -40l-11 8v31l-98 41l5 15l111 -10q13 0 19 1t12 9.5t6 24.5v397h-216v23zM580 495l9 10q125 -81 125 -134q0 -18 -10 -35.5t-21 -17.5q-15 0 -33 57q-12 39 -70 120z" />
  </g>

</svg>
