<?xml version="1.0" standalone="no"?>
<!DOCTYPE svg PUBLIC "-//W3C//DTD SVG 1.1//EN" "http://www.w3.org/Graphics/SVG/1.1/DTD/svg11.dtd" >
<svg xmlns="http://www.w3.org/2000/svg" xmlns:xlink="http://www.w3.org/1999/xlink" version="1.1" viewBox="0 -410 2048 2048">
  <g transform="matrix(1 0 0 -1 0 1638)">
   <path fill="currentColor"
d="M539 787q7 20 10 31l9 43l8 39h-329v-178q0 -69 -3 -140q-2 -70 -7 -126q-5 -55 -15 -115q-11 -60 -24 -101q-14 -41 -38 -86q-24 -46 -40 -68l-28 -39l-36 19q18 33 30 58q11 26 26 84q16 59 24 122q8 64 12 140q3 76 4 108v136v65q-1 100 -3 153t-2 56l-4 38l114 -72
l556 1l102 83l115 -85q11 -9 16 -17q5 -9 2 -18q-2 -7 -10 -12q-8 -6 -22 -6h-400l60 -20q26 -9 32 -15q7 -6 6 -15q-2 -9 -10 -13q-9 -4 -31 -8l-35 -6q-10 -12 -11 -13l-21 -23l245 1l53 72l76 -49q17 -12 29 -23q12 -10 13 -22q0 -12 -9 -23q-3 -3 -27 -19l-27 -17v-274
q0 -13 -11 -25q-10 -11 -28 -17q-17 -6 -35 -4q-22 1 -24 7t-2 9v34h-178v-242q0 -31 -9 -55q-10 -24 -30 -43t-50 -24l-40 -9q-3 17 -6 30q-4 14 -15 28q-11 15 -37 24q-25 9 -46 14l-45 9l8 41l84 -13q40 -7 57 -6q16 1 22 11t7 54l1 181h-171v-8q-3 -10 -7 -17
q-3 -8 -22 -16t-43 -6q-10 0 -15 2q-6 3 -8 7q-3 4 -3 16v436l122 -64h114zM849 733h-448v-90h448v90zM401 491h448v93h-448v-93zM1557 907l71 -28q22 -9 22 -19q1 -11 -11 -19q-9 -6 -20 -6l-36 -2q-15 -17 -17 -19l-23 -23l247 1l54 72l75 -49q21 -15 31 -24t10 -21
q1 -12 -8 -23q-5 -6 -26 -19l-28 -17v-270q-5 -18 -12 -27q-6 -10 -26 -16q-20 -5 -35 -3q-19 1 -23 7t-4 9v30h-185v-246q0 -31 -10.5 -58t-34.5 -45t-46 -21l-38 -7q-3 17 -6 31q-4 14 -13 25q-9 12 -26 19t-35 12l-69 18l8 41l84 -13q40 -7 57 -6q16 1 22 11t7 54l1 185
h-163v-16q-2 -10 -6 -17t-25 -16q-21 -8 -41 -6q-11 0 -16 3t-7 7q-3 5 -3 15v444l121 -64h114l12 37q8 22 10 33l8 47l-331 -1v-178q0 -80 -1 -139q-2 -59 -6 -116q-4 -56 -11 -104q-7 -47 -25 -104q-17 -57 -37 -96t-35 -59l-41 -57l-33 19q17 36 28 61q10 25 20 58
q10 34 19 76q9 41 15 86q5 46 8 120t4 130v76q-1 55 0 112v83q-1 65 -4 102l-2 18l-4 39l114 -70l561 -1l95 87l121 -89q9 -8 15 -18t4 -18q-2 -6 -10 -11q-8 -6 -23 -6zM1798 737h-447v-89h447v89zM1351 495h447v95h-447v-95zM127 1030l-25 30q34 28 56 51t53 76t45 109
q15 56 22 121q6 65 7 99t1 92q-1 59 0 144q0 85 -4 129l-5 56l114 -71h1304v-1l25 -1l94 95l129 -94q10 -8 15 -17q6 -9 3 -18q-2 -7 -10 -12q-8 -6 -22 -6h-854l46 -21q9 -5 11 -14q1 -9 -13 -18q-8 -5 -36 -8l-29 -3l-33 -33h527l58 70l72 -49q49 -34 47 -48t-13 -24
q-12 -11 -24 -17l-25 -13v-277q-2 -11 -5 -17t-18 -17q-14 -11 -46 -12q-17 -1 -23 3t-7 7q-2 3 -2 6v26h-388l1 -179q0 -33 -9 -58q-10 -25 -36 -44q-26 -20 -45 -22l-39 -7q-3 17 -6 31q-4 15 -12 25t-28 19q-21 9 -34 13l-68 17l7 42l84 -14q34 -6 54 -5t27 11q6 11 6 53
l-1 118h-387q-1 -9 -3 -13.5t-9 -10.5t-14 -9q-6 -3 -24 -6q-19 -3 -22 -3q-10 -1 -14 2q-5 3 -8 8q-2 5 -2 12v445l114 -63h240q6 13 14 33q8 19 12 32l10 32l-601 -1v-155q0 -82 -1 -126q-2 -45 -9 -110q-7 -66 -38 -150q-31 -85 -75 -130q-43 -46 -72 -68
q-30 -23 -33 -25zM688 1560h874v100h-874v-100zM1562 1504h-874v-97h874v97zM1297 1290l59 -12q18 -3 91 -19t105 -23q31 -8 61 -20t56 -31t36 -43q10 -25 -7 -44q-16 -20 -45 -13q-16 3 -40 23q-24 21 -39 30t-48 26q-34 18 -79 38t-85 31l-78 22zM794 1328l83 -63
q8 -7 18 -19q10 -11 9 -22q0 -12 -12 -17q-13 -5 -36 -1l-44 6q-38 -22 -64 -35t-80 -35t-91 -36q-37 -13 -107 -35l-40 -13l-13 38l47 16q25 9 54 24q30 16 84 48q55 32 90 56q34 24 60 49zM732 370q16 -11 25 -15l72 -42q46 -28 72 -47q26 -18 47 -40q22 -23 30 -42
q9 -19 7 -37q-3 -19 -15 -31q-11 -11 -34 -12q-23 0 -42 25q-3 2 -18 35q-15 32 -40 62q-24 29 -38 42q-14 12 -64 52l-26 20zM390 395l104 -57q26 -15 26 -26q1 -12 -10 -18q-10 -7 -24 -7l-45 -2l-58 -51q-26 -23 -66 -52q-40 -30 -68 -47l-64 -39l-20 30q34 29 57 51
q24 22 54 55q31 32 56 66q25 35 43 69zM1680 371l62 -28q28 -12 60 -29q31 -16 68 -40q36 -23 55 -44t25.5 -43.5t-2.5 -44.5q-10 -23 -34 -24q-25 0 -45 22q-6 6 -30 44t-59 72q-35 33 -60 48l-59 35zM1343 391l94 -47q20 -11 28 -20q8 -10 3 -23q-6 -13 -33 -14l-45 -2
q-19 -21 -36 -37q-16 -17 -52 -46q-37 -30 -59 -45t-40 -25l-50 -29l-18 30q32 26 59 50q26 24 54 57q28 34 51 75z" />
  </g>

</svg>
