<?xml version="1.0" standalone="no"?>
<!DOCTYPE svg PUBLIC "-//W3C//DTD SVG 1.1//EN" "http://www.w3.org/Graphics/SVG/1.1/DTD/svg11.dtd" >
<svg xmlns="http://www.w3.org/2000/svg" xmlns:xlink="http://www.w3.org/1999/xlink" version="1.1" viewBox="0 -410 2048 2048">
  <g transform="matrix(1 0 0 -1 0 1638)">
   <path fill="currentColor"
d="M1464 1761l70 81l86 -57q47 -32 47 -53q0 -27 -44 -47q-20 -9 -43 -22q-6 -17 -29 -81q-198 -564 -473 -888q357 -329 883 -461l-3 -34q-92 -7 -128 -77q-279 110 -463 221q-174 105 -359 278q-379 -370 -936 -542l-17 43q246 100 396 188q167 99 285 191q86 68 205 189
q-369 446 -453 1015q-68 0 -106 -8l-30 80q76 -16 222 -16h890zM543 1705q115 -578 465 -946q135 163 242 381q154 313 212 565h-919z" />
  </g>

</svg>
