<?xml version="1.0" standalone="no"?>
<!DOCTYPE svg PUBLIC "-//W3C//DTD SVG 1.1//EN" "http://www.w3.org/Graphics/SVG/1.1/DTD/svg11.dtd" >
<svg xmlns="http://www.w3.org/2000/svg" xmlns:xlink="http://www.w3.org/1999/xlink" version="1.1" viewBox="0 -120 1000 1000">
  <g transform="matrix(1 0 0 -1 0 880)">
   <path fill="currentColor"
d="M77 210v628l64 -39h111l24 42l67 -42q10 -6 10 -14t-14 -13l-16 -6v-474l-58 -13l-1 74h-125v-129zM139 380h127v391l-127 1v-392zM632 192l-298 -119l-9 -15q-9 -12 -14 -12q-7 0 -12 12l-32 80q122 21 150 27v763l82 -8q17 -2 17 -14q0 -8 -16 -17l-18 -10l-1 -273h54
l40 74l56 -77v-19l-149 -3l-1 -403q78 15 151 34v-20zM930 289l-8 -93q-1 -10 -1 -26q0 -11 4 -17q5 -8 28 -15q-8 -34 -26 -46q-22 -16 -110 -16h-64q-73 0 -91 14q-14 10 -14 47v789l82 -7q18 -1 18 -14q0 -11 -15 -17l-22 -9v-377q35 41 83 118q46 75 78 145l65 -58
q11 -10 11 -17q0 -9 -23 -11l-10 -1q-119 -136 -204 -207v-307q0 -19 4 -23q2 -2 29 -4h55q33 0 48 7q19 9 39 70l26 75h18z" />
  </g>

</svg>
