<?xml version="1.0" standalone="no"?>
<!DOCTYPE svg PUBLIC "-//W3C//DTD SVG 1.1//EN" "http://www.w3.org/Graphics/SVG/1.1/DTD/svg11.dtd" >
<svg xmlns="http://www.w3.org/2000/svg" xmlns:xlink="http://www.w3.org/1999/xlink" version="1.1" viewBox="0 -410 2048 2048">
  <g transform="matrix(1 0 0 -1 0 1638)">
   <path fill="currentColor"
d="M962 1966l100 -25q80 -20 80 -48q0 -18 -29 -27q-17 -6 -35 -12q143 -174 402 -336q195 -122 349 -179q60 -22 169 -49v-37q-109 -3 -138 -68q-279 130 -467 276q-189 148 -363 380q-123 -190 -364 -381q-162 -129 -340 -211q-45 -21 -250 -98l-13 46q386 169 614 388
q204 195 285 381zM660 1426q89 -21 230 -21h264l94 99l130 -99q17 -13 17 -27q0 -28 -25 -28h-480q-114 0 -192 -8zM369 1152q87 -16 222 -16h810l67 84l106 -75q36 -26 36 -43q0 -29 -87 -53q-32 -33 -108 -120q-24 -27 -205 -198h295l73 82l93 -68q24 -18 24 -40
q0 -25 -71 -62v-357l86 -64q10 -8 10 -25q0 -27 -16 -27h-1163v-72q-3 -24 -45 -24q-66 0 -66 65q0 34 4 85q4 53 4 194v263q0 71 -14 138l117 -88h593q191 225 267 352h-810q-159 0 -192 -7zM541 226h976v447h-976v-447z" />
  </g>

</svg>
