<?xml version="1.0" standalone="no"?>
<!DOCTYPE svg PUBLIC "-//W3C//DTD SVG 1.1//EN" "http://www.w3.org/Graphics/SVG/1.1/DTD/svg11.dtd" >
<svg xmlns="http://www.w3.org/2000/svg" xmlns:xlink="http://www.w3.org/1999/xlink" version="1.1" viewBox="0 -204 1024 1024">
  <g transform="matrix(1 0 0 -1 0 820)">
   <path fill="currentColor"
d="M496 964q55 -6 97 -23q9 -6 9 -13q0 -9 -12 -13q-22 -6 -42 -9v-60q40 -62 89 -110q7 -8 15 -18q39 21 70 36q36 20 64 41q29 23 53 43q22 23 37 42q74 -47 74 -58q0 -12 -18 -12q-12 0 -34 4q-37 -26 -82 -46q-41 -22 -84 -36q-34 -16 -65 -26q35 -35 81 -65
q62 -43 124 -74q62 -30 114 -41v-18q-52 0 -72 -30q-61 24 -110 60q-56 39 -96 82q-46 40 -91 89q-32 38 -69 92v-297q0 -32 -17 -51q-13 -15 -35 -25q-22 -12 -36 -12l-2 16q-2 12 -9 17q-13 13 -41 24q-32 10 -72 13v22q62 -16 116 -16q27 0 36 7q12 6 12 31v354
q0 59 -4 80zM76 814q39 -10 110 -10h160l34 36q36 -23 56 -49q6 -4 6 -13q0 -5 -15 -10q-27 -8 -37 -8q-42 -71 -76 -112q-34 -43 -72 -74q-44 -37 -99 -67q-49 -23 -101 -37l-10 18q61 24 104 52q43 29 82 65q38 36 66 72q28 40 56 101h-154q-78 0 -96 -4zM200 442l58 -44
h516l34 44q36 -24 51 -43q7 -7 7 -13q0 -11 -40 -32v-240q20 -12 35 -25q5 -3 5 -9q0 -16 -8 -16h-606v-28q0 -12 -22 -12q-8 0 -20 6q-10 8 -10 24t2 46q6 22 6 96v176q0 39 -8 70zM252 94h530v274h-530v-274z" />
  </g>

</svg>
