<?xml version="1.0" standalone="no"?>
<!DOCTYPE svg PUBLIC "-//W3C//DTD SVG 1.1//EN" "http://www.w3.org/Graphics/SVG/1.1/DTD/svg11.dtd" >
<svg xmlns="http://www.w3.org/2000/svg" xmlns:xlink="http://www.w3.org/1999/xlink" version="1.1" viewBox="0 -204 1024 1024">
  <g transform="matrix(1 0 0 -1 0 820)">
   <path fill="currentColor"
d="M256 968q48 -16 85 -35q5 -6 5 -13t-18 -10q-24 -4 -32 -4q-15 -36 -34 -70h168l38 34q37 -23 56 -42q6 -4 6 -10q0 -8 -13 -17q-12 -8 -31 -13q-50 -112 -86 -168q-26 -40 -57 -73q34 -26 74 -47q48 -22 105 -31q66 -13 162 -13q82 0 160 9q76 10 128 21v-26
q-37 -6 -52 -52q-83 -4 -170 -4q-106 0 -188 9t-137 38q-56 23 -95 65q-5 4 -9 8l-4 -2q-50 -50 -104 -83q-60 -38 -151 -75l-12 16q91 49 136 81q43 27 82 65q14 12 26 28q-28 30 -47 72q-27 47 -41 114q-20 -29 -37 -50q-39 -43 -89 -88l-18 12q48 49 78 93q27 39 50 86
q24 48 42 89q15 39 24 86zM219 761q21 -77 46 -119q24 -40 47 -67q13 14 24 31q34 47 60 96q27 51 42 108h-190q-6 -14 -12 -23q-9 -13 -17 -26zM724 950q48 -19 85 -35q5 -7 5 -13q0 -11 -18 -14q-24 -4 -32 -4q-23 -53 -47 -101q49 -32 88 -64q46 -32 72 -58
q24 -22 37 -40q10 -14 16 -30q6 -12 6 -25q-1 -30 -22 -30q-10 0 -18 6q-7 8 -39 59q-30 49 -66 89q-32 35 -83 74q-3 -8 -9 -15q-33 -61 -71 -110q-40 -51 -98 -103l-16 12q50 58 85 108q29 44 54 96q27 53 45 101q17 44 26 97zM208 390l58 -44h482l30 44q36 -24 52 -43
q10 -9 10 -15q0 -9 -40 -30v-178q19 -14 38 -26q6 -4 6 -8q0 -18 -8 -18h-578v-36q0 -12 -18 -12q-10 0 -24 6q-8 8 -8 24t2 46q4 22 4 96v124q0 40 -6 70zM258 102h498v216h-498v-216z" />
  </g>

</svg>
