<?xml version="1.0" standalone="no"?>
<!DOCTYPE svg PUBLIC "-//W3C//DTD SVG 1.1//EN" "http://www.w3.org/Graphics/SVG/1.1/DTD/svg11.dtd" >
<svg xmlns="http://www.w3.org/2000/svg" xmlns:xlink="http://www.w3.org/1999/xlink" version="1.1" viewBox="0 -140 1000 1000">
  <g transform="matrix(1 0 0 -1 0 860)">
   <path fill="currentColor"
d="M647 554h140v107h-137v-40zM247 799l33 36h15l53 -49v-15l-25 -18v-511l-9 -17l-46 -13l-10 10v59h-97v-70l-9 -17l-46 -11l-10 8v637l65 -29h86zM258 777h-97v-474h97v474zM681 892l-31 -18v-66h161l45 53h15l60 -59v-15h-281v-105h127l28 32h15l55 -44v-13l-24 -18
v-119l-6 -15l-45 -13l-13 6v35h-140q-3 -33 -17 -106h197l32 33h13l53 -56l-4 -15l-26 -9q-9 -86 -26.5 -111t-76.5 -36l-9 5l-4 28l-70 37l2 12l63 -8q5 -1 15 -1q15 0 24 7.5t13 23.5t5 30.5t1 38.5h-197q48 -130 116 -196t197 -107l-2 -15q-47 -9 -74 -38
q-111 61 -165 141t-88 205q-52 -132 -137 -211.5t-228 -131.5l-8 15q228 107 313 338h-120l-7 -34l-8 -5l-50 -7l-7 5l15 66l30 156l50 -33h120l4 57v50h-188v21h188v105h-230v21h230v120l95 -23v-13zM443 427h123q7 31 16 106h-118z" />
  </g>

</svg>
