<?xml version="1.0" standalone="no"?>
<!DOCTYPE svg PUBLIC "-//W3C//DTD SVG 1.1//EN" "http://www.w3.org/Graphics/SVG/1.1/DTD/svg11.dtd" >
<svg xmlns="http://www.w3.org/2000/svg" xmlns:xlink="http://www.w3.org/1999/xlink" version="1.1" viewBox="0 -120 1000 1000">
  <g transform="matrix(1 0 0 -1 0 880)">
   <path fill="currentColor"
d="M79 225v627l70 -43h95l24 37l61 -38q11 -7 11 -14q0 -6 -10 -10l-19 -6l1 -474l-60 -13v73h-114v-128zM138 389h115l-3 393h-112v-393zM312 69q108 72 152 144q31 53 44 126q6 40 7 66v44q-84 -79 -127 -129l-5 -20q-3 -12 -13 -12q-7 0 -12 11l-33 75q92 41 190 103
l-2 459l78 -9q13 -2 13 -12q0 -11 -8 -14l-19 -10l-2 -432q0 -117 -20 -179q-47 -145 -233 -225zM385 785q38 -47 55 -83q31 -68 31 -112q0 -35 -21 -57q-8 -9 -20 -9q-24 0 -24 35q0 62 -2 92q-4 44 -11 71q-6 20 -22 54zM915 265l-1 -73v-7q0 -31 12 -39q2 -1 28 -11
q-8 -29 -28 -42q-22 -15 -66 -15h-126q-41 0 -56 8q-19 11 -19 49v801l80 -10q15 -2 15 -11t-10 -13l-23 -10l-1 -304q65 92 115 217l76 -45q11 -6 11 -13q0 -6 -12 -10l-24 -7q-86 -99 -164 -164v-35q77 -43 130 -88q63 -54 63 -93q0 -18 -13 -33q-9 -10 -18 -10
q-12 0 -25 16q-3 4 -39 70q-28 51 -100 115v-339q0 -22 6 -28q3 -5 16 -5h78q37 0 50 40l29 88z" />
  </g>

</svg>
