<?xml version="1.0" standalone="no"?>
<!DOCTYPE svg PUBLIC "-//W3C//DTD SVG 1.1//EN" "http://www.w3.org/Graphics/SVG/1.1/DTD/svg11.dtd" >
<svg xmlns="http://www.w3.org/2000/svg" xmlns:xlink="http://www.w3.org/1999/xlink" version="1.1" viewBox="0 -410 2048 2048">
  <g transform="matrix(1 0 0 -1 0 1638)">
   <path fill="currentColor"
d="M1230 694q-3 -56 -5 -100q-13 -157 -49 -238q-61 -137 -199 -208q-59 -30 -188 -64l-9 38q183 58 265 183q85 128 85 370q0 93 -9 140l109 -24q86 -19 86 -43q0 -28 -43 -41zM1460 655q-2 112 -8 145l108 -24q86 -19 86 -46q0 -21 -49 -41l-37 -15v-339q0 -81 23 -99
q27 -22 98 -22q109 0 144 29q28 24 50 258l35 -5l-8 -193q5 -42 37 -65q35 -26 35 -45q0 -29 -79 -47q-105 -24 -233 -24q-99 0 -144 16q-58 21 -58 115v402zM1190 1970l116 -24q86 -18 86 -45q0 -29 -50 -42l-41 -11v-90h355l96 97l130 -97q17 -13 17 -29q0 -26 -25 -26
h-573v-185h504l51 66l96 -78q28 -22 28 -37q0 -19 -87 -38q-24 -21 -71 -65q-37 -35 -78 -64l-32 26q53 71 93 142h-556l105 -29q28 -8 28 -32q0 -20 -34 -33l-39 -15v-149l256 24l64 108l140 -94q11 -16 11 -24q0 -18 -23 -28l-448 -44v-58l-1 -39q0 -52 59 -67
q80 -19 238 -19q116 0 203 25q37 11 54 11q71 0 71 -65q0 -29 -56 -39q-103 -17 -274 -17q-251 0 -310 31q-80 43 -80 145v80l-174 -16l-58 -16l-58 70l290 24v266h-313v-398q-6 -439 -88 -668q-66 -183 -225 -314l-28 24q127 158 172 304q73 234 73 720q0 251 -8 462
l117 -82h285v231v61q0 116 -8 160zM506 1655l71 80l84 -55q40 -26 40 -48q0 -34 -76 -64v-821l54 -40q11 -8 11 -23q0 -25 -15 -25h-408v-96q-3 -23 -40 -23q-64 0 -64 68q0 60 3 92q5 47 5 185v721q-2 82 -16 139l122 -90h229zM267 717h263v883h-263v-883z" />
  </g>

</svg>
