<?xml version="1.0" standalone="no"?>
<!DOCTYPE svg PUBLIC "-//W3C//DTD SVG 1.1//EN" "http://www.w3.org/Graphics/SVG/1.1/DTD/svg11.dtd" >
<svg xmlns="http://www.w3.org/2000/svg" xmlns:xlink="http://www.w3.org/1999/xlink" version="1.1" viewBox="0 -120 1000 1000">
  <g transform="matrix(1 0 0 -1 0 880)">
   <path fill="currentColor"
d="M75 234v607l75 -43h86l24 40l56 -39q15 -10 15 -16q0 -7 -13 -12l-13 -5l-3 -453l-58 -14v54h-108v-106zM136 776v-399l108 -1v400h-108zM284 63q51 37 86 68q67 61 109 140q-13 9 -16 14q-5 7 -8 30q-11 70 -41 111q-47 -86 -93 -145l-14 8q99 167 129 394l71 -21
q17 -5 17 -13t-11 -13l-18 -7q-13 -42 -28 -80h90l20 31l55 -45q10 -9 10 -18q0 -6 -12 -9l-11 -3q-37 -149 -79 -226q-85 -156 -245 -228zM459 525q-16 -38 -35 -79q45 -33 64 -62q9 -12 22 -45q33 97 48 187zM413 752v-11q0 -45 -17 -82q-14 -33 -44 -33q-14 0 -24 10
q-8 9 -8 19q0 11 22 38q24 30 33 61q5 19 8 58l19 1l7 -36l182 -1v177l77 -9q24 -2 24 -17q0 -10 -14 -15l-22 -8v-127l177 -1l30 47l81 -63q13 -11 13 -19q0 -10 -20 -13l-35 -6l-64 -81l-13 4l22 106zM918 246v-72q0 -28 34 -44q-9 -52 -77 -52h-177q-45 0 -45 51l3 494
l73 -38h89l24 37l56 -34q16 -10 16 -17t-11 -11l-18 -6v-227q0 -34 -21 -49q-27 -19 -58 -19q-6 0 -5 13q1 23 -18 30l-32 12v14l76 1l2 232h-116v-406q0 -27 17 -24h3l89 2q22 1 38 18q15 16 32 63l12 33z" />
  </g>

</svg>
