<?xml version="1.0" standalone="no"?>
<!DOCTYPE svg PUBLIC "-//W3C//DTD SVG 1.1//EN" "http://www.w3.org/Graphics/SVG/1.1/DTD/svg11.dtd" >
<svg xmlns="http://www.w3.org/2000/svg" xmlns:xlink="http://www.w3.org/1999/xlink" version="1.1" viewBox="0 -200 1000 1000">
  <g transform="matrix(1 0 0 -1 0 800)">
   <path fill="currentColor"
d="M361 669l-6 23q0 22 -17.5 53.5t-47.5 67.5h11q33 -17 55 -30.5t34.5 -25.5t17.5 -23t5 -23q0 -20 -21 -42h187q24 48 41 91t17 65h-394l-71 -15l-21 36h320v40l-13 83l85 -24l-20 -65v-34h196l55 50l74 -71h-202l60 -54l-38 -25q-13 -12 -31 -31t-39 -46h205l37 47
q8 -15 24.5 -25t33 -18t29 -15.5t12.5 -17.5q-1 -1 -1 -2t-0.5 -2t-0.5 -3q-4 -11 -15.5 -10t-29 -3.5t-39 -23t-45.5 -68.5h-18q9 11 18 32.5t9 42.5q0 28 -19 40h-268l-4 -4v-93h163l32 40l59 -51l-31 -32v-119q-4 -12 -8.5 -24.5t-12 -24t-20 -21t-31.5 -15.5
q-8 26 -23 42t-53 34v9q22 -5 36.5 -8t24.5 -3q17 0 22.5 7.5t11.5 18.5v124h-170v-198q0 -11 -8 -17.5t-18 -10.5t-18.5 -5.5t-9.5 -2.5v233h-153l-18 -21v-163q-9 -12 -18 -17t-28 -5h-6v266l66 -36h157v97h-278q3 -13 4 -24.5t1 -22.5q0 -33 -13.5 -53t-42.5 -22
q-27 10 -27 30q0 10 7.5 24t16.5 33t16.5 43.5t7.5 55.5v7h11q5 -15 7.5 -25.5t5.5 -19.5h173zM791 37h-526v-44q-23 -24 -54 -24v322l73 -42h438l40 46l59 -49l-30 -37v-172zM265 191v-131h472v167h-458z" />
  </g>

</svg>
