<?xml version="1.0" standalone="no"?>
<!DOCTYPE svg PUBLIC "-//W3C//DTD SVG 1.1//EN" "http://www.w3.org/Graphics/SVG/1.1/DTD/svg11.dtd" >
<svg xmlns="http://www.w3.org/2000/svg" xmlns:xlink="http://www.w3.org/1999/xlink" version="1.1" viewBox="0 -204 1024 1024">
  <g transform="matrix(1 0 0 -1 0 820)">
   <path fill="currentColor"
d="M50 872l62 -42h110l34 42q36 -22 51 -42q7 -6 7 -12q0 -11 -40 -32v-414q16 -10 27 -19q5 -3 5 -7q0 -18 -8 -18h-196v-48q0 -10 -18 -10q-9 0 -24 5q-10 7 -10 23q0 17 3 46q5 22 5 98v362q0 39 -8 68zM102 358h128v442h-128v-442zM412 954l58 -44h384l34 44
q36 -24 51 -43q7 -7 7 -13q0 -11 -36 -32v-150q0 -73 3 -97q1 -29 1 -45q0 -14 -10 -24q-12 -6 -20 -6q-22 0 -22 14v18h-398v-18q0 -14 -22 -14q-8 0 -20 6q-10 10 -10 24q0 16 2 45q6 24 6 97v168q0 39 -8 70zM464 606h176v124h-176v-124zM686 606h176v124h-176v-124z
M464 756h176v124h-176v-124zM686 880v-124h176v124h-176zM314 482q44 -12 116 -12h450l44 48q34 -27 66 -49q8 -7 8 -13q0 -14 -12 -14h-504v-321q16 3 29 9q39 9 85 26q44 18 102 44l4 -18q-46 -34 -79 -51q-38 -23 -72 -37q-34 -18 -69 -30q-10 -36 -14 -36q-8 0 -48 80
q7 1 14 3v331h-4q-70 -1 -94 -4zM906 342q-24 -19 -56 -33q-29 -16 -57 -27q-25 -9 -48 -16q17 -24 31 -40q25 -30 67 -61q39 -30 78 -47q32 -17 69 -24v-14q-59 0 -70 -34q-51 23 -81 54q-43 33 -74 75q-39 45 -64 97q-25 53 -47 122l26 8q22 -66 45 -103q4 -11 10 -19
q26 14 43 27q26 14 44 34q22 17 35 33q16 19 27 34q74 -47 74 -58q0 -14 -20 -14q-10 0 -32 6z" />
  </g>

</svg>
