<?xml version="1.0" standalone="no"?>
<!DOCTYPE svg PUBLIC "-//W3C//DTD SVG 1.1//EN" "http://www.w3.org/Graphics/SVG/1.1/DTD/svg11.dtd" >
<svg xmlns="http://www.w3.org/2000/svg" xmlns:xlink="http://www.w3.org/1999/xlink" version="1.1" viewBox="0 -120 1000 1000">
  <g transform="matrix(1 0 0 -1 0 880)">
   <path fill="currentColor"
d="M76 215l-1 651l67 -45h85l23 39l60 -36q12 -7 12 -16q0 -8 -8 -12l-17 -7v-475l-59 -13v77h-101v-150zM135 797l2 -395l101 -1v396h-103zM306 424q56 38 88 69q34 33 86 103q-37 55 -65 140q-50 -73 -94 -124l-11 12q87 142 133 336l78 -24q16 -5 16 -13q0 -7 -13 -11
l-24 -8l-18 -40l-15 -30h109l21 33l67 -42q14 -8 14 -14q0 -7 -14 -12l-26 -9q-50 -125 -102 -202q34 -35 78 -52q63 -26 120 -22h8l227 5l2 -14q-38 -23 -46 -53h-187q-84 0 -145 32q-43 23 -84 72q-51 -55 -96 -88q-33 -24 -99 -60zM456 810l-24 -47q29 -71 69 -132
q48 82 76 178zM418 51l-1 373l68 -34h307l22 32l63 -38q15 -9 15 -14t-12 -10l-13 -6v-272l-63 -12v31h-326v-39zM479 240v-112h325v112h-325zM478 364v-97h326v97h-326zM711 536v416l78 -9q18 -2 18 -14q0 -7 -13 -13l-21 -11v-138h68l39 64l73 -70v-19h-180v-196z" />
  </g>

</svg>
