<?xml version="1.0" standalone="no"?>
<!DOCTYPE svg PUBLIC "-//W3C//DTD SVG 1.1//EN" "http://www.w3.org/Graphics/SVG/1.1/DTD/svg11.dtd" >
<svg xmlns="http://www.w3.org/2000/svg" xmlns:xlink="http://www.w3.org/1999/xlink" version="1.1" viewBox="0 -140 1000 1000">
  <g transform="matrix(1 0 0 -1 0 860)">
   <path fill="currentColor"
d="M637 830v104l101 -21v-12l-37 -15v-56h146l38 51h17l57 -60v-14h-515v-130h92v116l103 -22v-17l-41 -14v-63h149v107l103 -23v-16l-38 -18v-50h35l38 46h17l52 -53v-16h-142v-148l-8 -12l-46 -14l-11 7v31h-149v-27l-9 -11l-43 -8l-10 8v174h-92l-3 -123
q-5 -166 -44.5 -277t-158.5 -220l-12 9q97 127 126.5 241.5t29.5 362.5v217l65 -34h190zM888 376l-28 -3q-68 -107 -151 -181q54 -36 105 -56t144 -40v-13q-25 -8 -35.5 -17t-22.5 -32q-70 19 -118 43.5t-119 77.5q-84 -46 -154.5 -69t-175.5 -38l-3 15q179 40 299 133
q-66 79 -104 205h-61v22h337l33 30h16l45 -64zM294 861l50 -52v-14l-28 -17v-494l-7 -13l-44 -11l-11 6v77h-110v-112l-7 -10l-45 -11l-10 6v645l62 -31h104l31 31h15zM598 541h148v114h-148v-114zM798 402h-251q48 -101 122 -173q71 71 129 173zM144 365h110v442h-110v-442
z" />
  </g>

</svg>
