<?xml version="1.0" standalone="no"?>
<!DOCTYPE svg PUBLIC "-//W3C//DTD SVG 1.1//EN" "http://www.w3.org/Graphics/SVG/1.1/DTD/svg11.dtd" >
<svg xmlns="http://www.w3.org/2000/svg" xmlns:xlink="http://www.w3.org/1999/xlink" version="1.1" viewBox="0 -120 1000 1000">
  <g transform="matrix(1 0 0 -1 0 880)">
   <path fill="currentColor"
d="M72 255v589l68 -33h76l19 33l68 -43q11 -7 11 -13q0 -9 -11 -12l-22 -6v-456l-57 -9v57h-95v-93zM129 389h95v396h-95v-396zM279 175q4 7 37 53q86 124 127 306l73 -30q11 -5 11 -12q0 -8 -14 -11l-22 -4l-46 -104q35 -22 56 -45q49 -52 49 -98q0 -19 -12 -30
q-10 -8 -20 -8q-22 0 -29 39q-6 38 -25 79q-13 29 -28 46q-57 -103 -144 -194zM298 97l-17 25h291v436h-225l-17 27h467l44 54l97 -62v-19h-305v-436h184l41 53l94 -60v-18h-654zM298 670q93 131 127 284l69 -29q12 -5 12 -13q0 -9 -16 -12l-17 -3l-30 -60h97l30 42l66 -50
v-19h-174q81 -75 81 -127q0 -19 -12 -30q-9 -8 -20 -8q-12 0 -21 13q-7 9 -15 63q-7 46 -36 89h-11q-50 -87 -116 -149zM570 671q48 70 72 117q28 58 60 164l69 -27q13 -5 13 -14t-17 -13l-19 -5l-27 -56h124l35 48l72 -58v-17h-196q21 -20 24 -23q58 -52 58 -94
q0 -18 -12 -29q-8 -8 -18 -8q-14 0 -23 13q-5 7 -12 39q-11 49 -49 102h-19q-50 -79 -119 -149zM648 193q81 127 130 339l66 -24q11 -4 11 -11q0 -8 -15 -13l-15 -4q-9 -21 -19 -46q-13 -34 -21 -51q42 -26 59 -40q27 -22 46 -54q14 -26 14 -46q0 -17 -11 -28q-7 -7 -17 -7
q-9 0 -19 8q-6 5 -26 63q-6 20 -35 64q-10 14 -20 25q-22 -54 -54 -104q-31 -47 -63 -83z" />
  </g>

</svg>
