<?xml version="1.0" standalone="no"?>
<!DOCTYPE svg PUBLIC "-//W3C//DTD SVG 1.1//EN" "http://www.w3.org/Graphics/SVG/1.1/DTD/svg11.dtd" >
<svg xmlns="http://www.w3.org/2000/svg" xmlns:xlink="http://www.w3.org/1999/xlink" version="1.1" viewBox="0 -120 1000 1000">
  <g transform="matrix(1 0 0 -1 0 880)">
   <path fill="currentColor"
d="M59 239v625l63 -32h73l21 32l50 -25q18 -10 18 -17t-8 -12l-12 -7v-489l-59 -11v56h-87v-108zM118 804v-418h87v418h-87zM212 133q139 135 194 272h-103l-12 28h119v119h-119l-11 28h253l41 58l60 -60v-26h-165v-119h47l39 56l67 -64v-20h-153v-56q120 -28 120 -94
q0 -8 -5 -14q-11 -12 -24 -12q-8 0 -15 8q-2 2 -28 43q-16 23 -48 45v-256l-59 -13v231q-93 -112 -185 -167zM301 780l-11 28h118v146l66 -6q25 -2 25 -12q0 -7 -15 -16l-15 -8v-104h49l37 49l57 -55v-22h-311zM330 762q31 -20 50 -43q32 -38 32 -73q0 -19 -12 -31
q-7 -7 -15 -7q-11 0 -17 9t-20 77q-5 23 -29 58zM458 601q27 84 42 173l67 -27q18 -8 18 -16q0 -9 -18 -12l-17 -3l-73 -122zM517 76q67 85 97 173q32 91 32 238v405l59 -31q100 47 159 82l48 -44q16 -14 16 -18q0 -10 -12 -8l-4 1l-36 5q-119 -29 -171 -39v-208h130l54 63
l69 -70v-21h-89v-526l-65 -17v543h-99q0 -108 -2 -150q-8 -253 -173 -393z" />
  </g>

</svg>
