<?xml version="1.0" standalone="no"?>
<!DOCTYPE svg PUBLIC "-//W3C//DTD SVG 1.1//EN" "http://www.w3.org/Graphics/SVG/1.1/DTD/svg11.dtd" >
<svg xmlns="http://www.w3.org/2000/svg" xmlns:xlink="http://www.w3.org/1999/xlink" version="1.1" viewBox="0 -410 2048 2048">
  <g transform="matrix(1 0 0 -1 0 1638)">
   <path fill="currentColor"
d="M526 1557q86 -15 226 -15h584l72 90l103 -90q33 -29 33 -55q0 -32 -103 -33q-188 -172 -321 -273q45 -18 45 -41q0 -22 -40 -30l-53 -11v-92h374l114 112l141 -107q16 -12 16 -31q0 -25 -31 -25h-614v-484q0 -97 -77 -146q-42 -27 -83 -30q-6 66 -66 89q-89 34 -186 41
v46q138 -24 238 -24q45 0 62 14q17 13 17 60v434h-401q-121 0 -192 -8l-42 82q98 -23 234 -23h401v76q0 57 -9 151l114 -35q150 163 246 294h-576q-95 0 -187 -17zM1756 1833l68 76l84 -54q40 -26 40 -49q0 -28 -78 -62v-1342q0 -139 5 -208q3 -48 3 -72q0 -65 -72 -65
q-36 0 -36 24v111h-1491v-111q0 -23 -44 -23q-64 0 -64 61t3 98q6 57 6 185v1342q0 110 -17 176l116 -87h1477zM279 247h1491v1530h-1491v-1530z" />
  </g>

</svg>
