<?xml version="1.0" standalone="no"?>
<!DOCTYPE svg PUBLIC "-//W3C//DTD SVG 1.1//EN" "http://www.w3.org/Graphics/SVG/1.1/DTD/svg11.dtd" >
<svg xmlns="http://www.w3.org/2000/svg" xmlns:xlink="http://www.w3.org/1999/xlink" version="1.1" viewBox="0 -140 1000 1000">
  <g transform="matrix(1 0 0 -1 0 860)">
   <path fill="currentColor"
d="M592 617h14l61 -51v-15l-27 -17v-232q0 -43 9.5 -52t56.5 -9q23 0 29 35l13 84l12 -1l14 -109l26 -17l-1 -16q-31 -31 -73 -31h-68q-44 0 -61 23.5t-17 83.5v267h-183v-110q0 -109 -51.5 -183.5t-139.5 -109.5l-4 9q56 35 84 85q51 89 51 203v154l63 -28h157zM831 903h14
l61 -50v-15l-27 -18l-7 -757l-49 -6l-8 10v41h-630v-40l-5 -14l-51 -7l-8 11v838l68 -29h607zM185 844v-713h630v713h-630zM459 695v129l99 -20v-14l-35 -17v-78h156l47 59h14l65 -67v-15h-610v23h264z" />
  </g>

</svg>
