<?xml version="1.0" standalone="no"?>
<!DOCTYPE svg PUBLIC "-//W3C//DTD SVG 1.1//EN" "http://www.w3.org/Graphics/SVG/1.1/DTD/svg11.dtd" >
<svg xmlns="http://www.w3.org/2000/svg" xmlns:xlink="http://www.w3.org/1999/xlink" version="1.1" viewBox="0 -410 2048 2048">
  <g transform="matrix(1 0 0 -1 0 1638)">
   <path fill="currentColor"
d="M854 1345h315v163q0 115 -7 160l109 -24q86 -19 86 -45t-51 -42l-40 -14v-198h67l99 101l121 -106q17 -15 17 -26q0 -26 -28 -26h-276v-333h189l98 102l121 -107q16 -15 16 -25q0 -27 -26 -27h-398v-218q0 -106 12 -219q4 -31 4 -51q0 -45 -58 -45q-55 0 -55 42v491h-329
q-25 -184 -90 -286q-79 -125 -290 -257l-22 32q149 108 219 226q64 106 85 285h-97q-108 0 -192 -8l-38 88q95 -23 230 -23h103q7 92 7 158q0 11 -1 134v41h-45q-116 0 -192 -8l-38 88q96 -23 230 -23h45l-3 169q-2 123 -9 159l112 -24q83 -18 83 -45q0 -25 -49 -42l-34 -11
v-206zM854 1288v-78q0 -167 -8 -255h323v333h-315zM1742 1851l69 76l84 -54q39 -26 39 -48q0 -28 -77 -62v-1359q0 -119 3 -172q5 -55 5 -86q0 -64 -72 -64q-38 0 -38 27v119h-1469v-127q0 -26 -40 -26q-64 0 -64 64q0 27 5 99q4 44 4 166v1321q0 146 -17 214l120 -88h1448z
M286 284h1469v1511h-1469v-1511z" />
  </g>

</svg>
