<?xml version="1.0" standalone="no"?>
<!DOCTYPE svg PUBLIC "-//W3C//DTD SVG 1.1//EN" "http://www.w3.org/Graphics/SVG/1.1/DTD/svg11.dtd" >
<svg xmlns="http://www.w3.org/2000/svg" xmlns:xlink="http://www.w3.org/1999/xlink" version="1.1" viewBox="0 -120 1000 1000">
  <g transform="matrix(1 0 0 -1 0 880)">
   <path fill="currentColor"
d="M444 388l-324 -118l-2 -18q-3 -14 -11 -13q-5 1 -10 7l-50 76l148 32v329h-126l-14 28h140v215l90 -12q21 -3 21 -16q0 -11 -19 -19l-25 -11v-157h61l44 54l77 -59v-23h-182v-316l178 39zM207 107q308 217 351 558l73 -18q-6 60 -9 188h-211l-13 28h203l35 49l72 -52
q13 -10 13 -19q0 -10 -20 -14l-55 -12q1 -116 29 -235q53 -236 272 -421l-10 -14h-6q-35 0 -63 -32q-84 84 -145 203q-64 126 -87 300l-14 -5q-35 -107 -54 -151q-107 -238 -348 -366z" />
  </g>

</svg>
