<?xml version="1.0" standalone="no"?>
<!DOCTYPE svg PUBLIC "-//W3C//DTD SVG 1.1//EN" "http://www.w3.org/Graphics/SVG/1.1/DTD/svg11.dtd" >
<svg xmlns="http://www.w3.org/2000/svg" xmlns:xlink="http://www.w3.org/1999/xlink" version="1.1" viewBox="0 -200 1000 1000">
  <g transform="matrix(1 0 0 -1 0 800)">
   <path fill="currentColor"
d="M188 673v296l73 -29l-21 -60v-207h53l46 46l59 -67h-158v-318l158 53l3 -11q-142 -64 -218 -108t-93 -67l-43 66q35 10 70.5 23t70.5 24v338h-78l-49 -10l-18 31h145zM698 630v-536q-1 -6 -1 -11v-10q0 -36 12 -52.5t41 -16.5q11 0 12 1h87q14 0 29.5 1t30 5.5t27 13.5
t20.5 25v3q0 12 -8.5 14t-19.5 6t-21.5 15.5t-14.5 43.5q-3 20 -3.5 48.5t-0.5 65.5h-13q-1 -57 -3.5 -93t-7.5 -54q-5 -19 -15 -30t-23 -11h-39q-1 -1 -8 -1q-29 0 -29 54q0 4 0.5 7t0.5 7v488l32 40l-59 49l-36 -49h-177l-66 41q1 -17 1 -36v-40q0 -32 -0.5 -69t-0.5 -79
q-1 -69 -6.5 -131t-21.5 -119q-28 -115 -169 -233l4 -14q88 51 141 107.5t73 125.5q18 61 27.5 150t9.5 215v28l11 31h184zM321 825l21 -35l71 13h475l-77 76l-48 -54h-137v41l19 74l-84 25l14 -94v-46h-254z" />
  </g>

</svg>
