<?xml version="1.0" standalone="no"?>
<!DOCTYPE svg PUBLIC "-//W3C//DTD SVG 1.1//EN" "http://www.w3.org/Graphics/SVG/1.1/DTD/svg11.dtd" >
<svg xmlns="http://www.w3.org/2000/svg" xmlns:xlink="http://www.w3.org/1999/xlink" version="1.1" viewBox="0 -410 2048 2048">
  <g transform="matrix(1 0 0 -1 0 1638)">
   <path fill="currentColor"
d="M1751 1814l67 75l84 -54q40 -26 40 -49q0 -28 -74 -59v-1464q0 -83 -43 -125q-29 -28 -112 -56q-12 72 -41.5 91.5t-165.5 45.5l5 47q45 -7 126 -21q40 -7 73 -7q63 0 63 57v128v1337h-929v-1658q0 -24 -47 -24q-59 0 -59 40v12q2 34 4 98q6 64 6 195v1295q0 125 -16 187
l118 -91h901zM1444 1403l58 68l73 -48q42 -29 42 -49q0 -22 -60 -52v-563l44 -30q16 -10 16 -27q0 -23 -16 -23h-471v-54q0 -31 -52 -31q-53 0 -53 44q0 4 4 49q12 133 13 784l114 -68h288zM1130 737h333v615h-333v-615zM315 1362v412q0 118 -8 158l107 -24q88 -20 88 -44
q0 -32 -50 -44l-38 -9v-446h80l84 99l125 -108q14 -12 14 -22q0 -26 -29 -26h-274v-691q106 37 277 120l19 -38q-26 -16 -40 -25q-99 -62 -253 -144q-52 -29 -181 -88q-38 -18 -76 -37q-19 -68 -31 -68q-18 0 -30 26l-57 129q71 18 273 86v726h-43q-133 0 -192 -8l-38 88
q92 -22 230 -22h43z" />
  </g>

</svg>
