<?xml version="1.0" standalone="no"?>
<!DOCTYPE svg PUBLIC "-//W3C//DTD SVG 1.1//EN" "http://www.w3.org/Graphics/SVG/1.1/DTD/svg11.dtd" >
<svg xmlns="http://www.w3.org/2000/svg" xmlns:xlink="http://www.w3.org/1999/xlink" version="1.1" viewBox="0 -410 2048 2048">
  <g transform="matrix(1 0 0 -1 0 1638)">
   <path fill="currentColor"
d="M967 877l109 -24q85 -19 85 -44q0 -32 -49 -43l-40 -10v-122h433l96 104l128 -94q25 -18 25 -42t-35 -24h-647v-345h657l105 119l140 -107q28 -22 28 -42q0 -28 -28 -28h-1692q-106 0 -192 -8l-38 88q94 -22 230 -22h692v345h-424q-114 0 -192 -8l-38 88q94 -24 230 -24
h424v99q0 105 -7 144zM785 1289h-293v-34q0 -300 -320 -500l-24 32q248 192 248 468v34h-75q-119 0 -191 -11l-43 90q98 -26 234 -26h75v408h-38q-113 0 -171 -9l-39 93q95 -26 210 -26h554l99 102l120 -107q17 -15 17 -26q0 -27 -27 -27h-243v-408h80l96 96l116 -87
q31 -23 31 -38q0 -24 -25 -24h-298v-195q0 -6 1 -22q2 -22 6 -93q1 -34 3 -55q4 -41 4 -62q0 -61 -61 -61q-46 0 -46 42v446zM785 1342v408h-293v-408h293zM1272 1863l106 -25q80 -19 80 -47q0 -18 -27 -27l-53 -18v-457q0 -59 4 -136l3 -58q1 -25 1 -31q0 -49 -62 -49
q-42 0 -42 50v639q0 105 -10 159zM1703 1947l138 -31q74 -16 74 -41q0 -22 -51 -38l-58 -19v-863q0 -142 -161 -173q-2 64 -40 87q-47 28 -159 46v48q146 -33 202 -33q62 0 62 73v781q0 78 -7 163z" />
  </g>

</svg>
