<?xml version="1.0" standalone="no"?>
<!DOCTYPE svg PUBLIC "-//W3C//DTD SVG 1.1//EN" "http://www.w3.org/Graphics/SVG/1.1/DTD/svg11.dtd" >
<svg xmlns="http://www.w3.org/2000/svg" xmlns:xlink="http://www.w3.org/1999/xlink" version="1.1" viewBox="0 -120 1000 1000">
  <g transform="matrix(1 0 0 -1 0 880)">
   <path fill="currentColor"
d="M121 271l-10 -30q-6 -16 -14 -16t-15 13l-47 78l136 33v319h-112l-11 28h123v241l81 -10q22 -3 22 -15q0 -10 -16 -17l-22 -11v-188h39l42 58l76 -63v-23h-157v-304l167 44l6 -17zM272 75q71 76 106 139q34 63 51 126q9 36 23 104l78 -40q17 -9 17 -18t-18 -15l-17 -6
q-20 -47 -40 -93q23 -34 59 -64q45 -37 85 -48v336h-270l-13 28h486l46 56l73 -62v-22h-259v-135h99l42 52l77 -55v-25h-218v-186q22 -5 57 -5h214v-20q-58 -5 -61 -43h-134q-91 1 -134 20q-95 45 -160 148q-54 -82 -93 -117q-37 -34 -86 -66zM446 564v387l69 -41h242l33 43
l64 -51q9 -7 9 -14t-11 -11l-16 -6v-279l-64 -8v21h-262v-33zM510 633h262v117h-262v-117zM510 882v-104h262v104h-262z" />
  </g>

</svg>
