<?xml version="1.0" standalone="no"?>
<!DOCTYPE svg PUBLIC "-//W3C//DTD SVG 1.1//EN" "http://www.w3.org/Graphics/SVG/1.1/DTD/svg11.dtd" >
<svg xmlns="http://www.w3.org/2000/svg" xmlns:xlink="http://www.w3.org/1999/xlink" version="1.1" viewBox="0 -140 1000 1000">
  <g transform="matrix(1 0 0 -1 0 860)">
   <path fill="currentColor"
d="M489 419h69q25 59 46 131l72 -38l-3 -12l-28 -5q-10 -12 -14 -19q-21 -32 -45 -57h219l36 33l17 1l55 -47l1 -14l-30 -20v-292l-5 -15l-51 -11l-9 9l1 55h-336l-1 -45l-6 -13l-43 -8l-10 10v376zM820 397h-336v-119h336v119zM820 256h-336v-115h336v115zM511 910v-12
l-36 -18v-130h61l48 59h14l52 -69v-13h-175v-156l181 55l4 -15l-231 -115l-4 -26l-12 -3l-52 70l54 17v374zM771 909v-13l-35 -23v-137q77 37 148 102l51 -52l-3 -10l-25 1q-102 -52 -171 -70v-108q0 -25 10.5 -35t38.5 -10q29 0 44 1.5t32.5 12.5t25.5 33l35 90l11 -4
l-9 -121l29 -22v-15q-52 -32 -117 -32h-78q-82 0 -82 92v339zM163 930l100 -18v-13l-36 -19v-210h47l31 42h10l50 -50v-15h-138l1 -290q66 24 137 61l2 -13q-60 -60 -254 -163l-5 -32l-14 -2l-49 84l118 40v315h-97v23h97v260z" />
  </g>

</svg>
