<?xml version="1.0" standalone="no"?>
<!DOCTYPE svg PUBLIC "-//W3C//DTD SVG 1.1//EN" "http://www.w3.org/Graphics/SVG/1.1/DTD/svg11.dtd" >
<svg xmlns="http://www.w3.org/2000/svg" xmlns:xlink="http://www.w3.org/1999/xlink" version="1.1" viewBox="0 -410 2048 2048">
  <g transform="matrix(1 0 0 -1 0 1638)">
   <path fill="currentColor"
d="M1320 1407q358 -334 683 -382v-35q-40 -1 -60 -9q-34 -12 -64 -64q-183 76 -326 190q-89 70 -290 281q-259 -326 -669 -503l-22 35q237 137 394 288q137 133 240 326l149 -70q29 -14 29 -30q0 -24 -64 -27zM1626 1712h124l80 82l114 -86q17 -12 17 -26q0 -27 -27 -27
h-318l-19 -152q-7 -50 -14 -60q-12 -15 -43 -15q-48 0 -48 29q0 2 8 41l21 157h-40q-58 0 -130 -10l-38 88q89 -21 168 -21h47l12 101q3 27 9 130l137 -34q36 -9 36 -32q0 -26 -40 -37l-42 -11zM890 1712l-9 87q-10 86 -15 136l131 -18q40 -5 40 -28q0 -21 -27 -36l-34 -20
l10 -121h77l80 82l114 -86q17 -13 17 -26q0 -27 -27 -27h-256l10 -93l9 -86q0 -42 -63 -42q-21 0 -30 17q-2 3 -6 50l-15 154h-62q-87 0 -159 -10l-38 88q91 -21 197 -21h56zM834 784l122 -64h640l68 76l84 -54q40 -26 40 -49q0 -28 -77 -61v-376l24 -19q22 -18 22 -36
q0 -24 -38 -24h-787v-35q0 -57 -69 -57q-37 0 -37 40l8 150v509zM932 666v-433h684v433h-684zM945 925l-38 88q96 -23 230 -23h264l103 98l125 -102q17 -13 17 -26q0 -27 -27 -27h-482q-109 0 -192 -8zM316 1920l109 -24q86 -19 86 -44q0 -31 -50 -44l-43 -11v-443h80
l99 101l120 -105q17 -14 17 -26q0 -28 -27 -28h-289v-637q87 31 289 119l20 -39q-279 -184 -525 -281l-10 -53q-6 -30 -22 -30q-21 0 -44 49l-58 121q95 19 256 78v673h-81q-63 0 -149 -11l-39 86q123 -17 188 -17h81v406q0 118 -8 160z" />
  </g>

</svg>
