<?xml version="1.0" standalone="no"?>
<!DOCTYPE svg PUBLIC "-//W3C//DTD SVG 1.1//EN" "http://www.w3.org/Graphics/SVG/1.1/DTD/svg11.dtd" >
<svg xmlns="http://www.w3.org/2000/svg" xmlns:xlink="http://www.w3.org/1999/xlink" version="1.1" viewBox="0 -204 1024 1024">
  <g transform="matrix(1 0 0 -1 0 820)">
   <path fill="currentColor"
d="M36 670q44 -11 117 -11h7v217q0 54 -6 81q59 -7 97 -24q12 -4 12 -14q0 -9 -12 -12q-20 -10 -43 -12v-236h28l44 48q35 -25 67 -51q8 -5 8 -11q0 -15 -14 -15h-133v-313q9 3 19 7q51 20 116 52l4 -21q-50 -37 -91 -60q-43 -23 -82 -40q-36 -20 -76 -32q-11 -37 -17 -37
q-8 0 -49 84q56 8 101 22q13 3 27 9v329h-7q-71 -2 -98 -7zM476 957q49 -14 88 -34q7 -6 7 -10q0 -10 -13 -15q-22 -7 -42 -7q-9 -21 -19 -41h307l47 54q38 -30 72 -56q9 -6 9 -12q0 -13 -17 -13h-436q-12 -23 -26 -41q-18 -25 -37 -44q-18 -21 -45 -41l-20 13q28 28 46 59
q23 32 40 70q20 38 32 77q5 19 7 41zM469 781l65 -31h249l35 34q51 -37 51 -50q0 -12 -29 -26v-134q0 -24 1 -31q1 -8 1 -15q0 -22 -34 -28q-16 0 -16 11v27h-273v-15q0 -10 -11 -17q-15 -6 -26 -6q-13 0 -13 15q0 4 1 14q1 22 1 42v141q0 49 -2 69zM519 567h273v63h-273
v-63zM519 659h273v63h-273v-63zM328 475q44 -13 116 -13h408l46 54q39 -29 73 -56q9 -6 9 -12q0 -13 -16 -13h-435q-17 -37 -40 -67q-6 -8 -11 -13h402l30 29q35 -22 55 -39q8 -11 8 -15q0 -12 -38 -26q-7 -79 -21 -133q-14 -58 -27 -83q-16 -25 -33 -35q-18 -14 -41 -22
q-18 -7 -30 -7q0 15 -6 25q-8 11 -82 39l5 20q69 -16 93 -16q14 0 24 4q9 2 17 9q10 10 20 34q10 22 18 67q11 44 15 116l-2 4h-101q-22 -56 -44 -94q-18 -33 -54 -72q-24 -26 -54 -50q-28 -20 -60 -39q-36 -19 -99 -47l-17 19q50 20 80 39q32 21 59 41q26 22 49 48
q25 27 48 67q21 35 37 88h-104q-13 -26 -27 -48q-17 -26 -42 -53q-26 -28 -60 -55q-32 -25 -68 -49q-37 -19 -94 -45l-16 24q54 22 91 47q36 25 69 55q36 35 61 71q16 28 27 53h-110q-12 -10 -20 -18q-25 -26 -58 -51q-34 -25 -81 -53l-13 19q43 28 72 55t54 57q21 25 39 55
q14 23 21 45h-26q-70 -2 -97 -7z" />
  </g>

</svg>
