<?xml version="1.0" standalone="no"?>
<!DOCTYPE svg PUBLIC "-//W3C//DTD SVG 1.1//EN" "http://www.w3.org/Graphics/SVG/1.1/DTD/svg11.dtd" >
<svg xmlns="http://www.w3.org/2000/svg" xmlns:xlink="http://www.w3.org/1999/xlink" version="1.1" viewBox="0 -204 1024 1024">
  <g transform="matrix(1 0 0 -1 0 820)">
   <path fill="currentColor"
d="M114 816l14 -3q2 -23 2 -43q0 -30 -4 -58q-5 -27 -14 -45q-6 -16 -16 -26q-9 -10 -17 -14q-8 -3 -15 -3q-26 0 -26 18q0 7 11 19q26 29 38 49q11 19 19 43q6 24 8 63zM178 948q59 -7 97 -23q13 -4 13 -14t-13 -13q-19 -10 -43 -12v-68q24 -15 43 -29q22 -14 36 -27
q15 -14 20 -24t5 -19q0 -18 -5 -27q-8 -12 -19 -12q-7 0 -12 4q-5 3 -9 18q-6 19 -17 37q-12 18 -25 34q-8 9 -17 17v-408q0 -23 1 -31v-29q0 -34 -30 -34q-26 0 -26 18q0 20 3 54q4 34 4 60v448q0 54 -6 80zM152 238q44 -12 117 -12h199v10q0 53 -6 80q46 -9 75 -18
q11 -4 11 -11q0 -5 -7 -9q-11 -6 -25 -10v-42h232l44 49q36 -27 68 -52q8 -5 8 -11q0 -14 -15 -14h-337v-112h328l47 53l72 -55q9 -6 9 -12q0 -14 -16 -14h-791q-71 -2 -97 -7l-20 47q44 -12 117 -12h303v112h-199q-71 -2 -97 -7zM356 878q44 -12 117 -12h39q7 10 11 18
q14 29 27 68q98 -20 98 -36q0 -15 -55 -18l-19 -32h274l44 49q36 -27 68 -52q8 -5 8 -11q0 -14 -15 -14h-399q-13 -17 -27 -30q-9 -11 -18 -19q38 -7 92 -7h167l37 38q30 -22 56 -43q7 -4 7 -9q0 -14 -12 -14h-156v-76h136l38 41q31 -24 59 -45q7 -5 7 -10q0 -14 -13 -14
h-390q-71 -2 -97 -7l-20 47q44 -12 117 -12h115v76h-51q-71 -2 -97 -7l-11 25q-18 -17 -39 -32q-42 -31 -86 -52l-12 21q44 30 69 51t53 58l16 20h-21q-71 -2 -97 -7zM809 602l25 32q58 -38 58 -52q0 -13 -28 -21v-196q0 -18 -10 -31q-10 -16 -26 -25q-18 -11 -40 -17
q-1 28 -10 39q-6 9 -20 13q-31 12 -70 19v20q56 -20 100 -20q17 0 22 7q6 6 6 21v31h-300v-72q0 -10 -12 -16q-15 -6 -25 -6q-13 0 -13 14q0 4 1 14q1 23 1 42v166q0 49 -2 68l63 -30h280zM516 450h300v44h-300v-44zM516 522h300v52h-300v-52z" />
  </g>

</svg>
