<?xml version="1.0" standalone="no"?>
<!DOCTYPE svg PUBLIC "-//W3C//DTD SVG 1.1//EN" "http://www.w3.org/Graphics/SVG/1.1/DTD/svg11.dtd" >
<svg xmlns="http://www.w3.org/2000/svg" xmlns:xlink="http://www.w3.org/1999/xlink" version="1.1" viewBox="0 -140 1000 1000">
  <g transform="matrix(1 0 0 -1 0 860)">
   <path fill="currentColor"
d="M152 293v324h-95v23h95v262l98 -19v-14l-34 -15v-214h35l35 44h13l51 -51v-16h-134v-308l136 47l7 -14l-242 -128v-33l-15 -7l-51 83zM946 73h-657v21h553l39 45h13l52 -51v-15zM306 790v21h288v121l92 -18v-13l-28 -15v-75h184l33 45h15l56 -52v-14h-640zM497 664
l67 -25h138l26 25h14l47 -41v-11l-18 -16v-64l-6 -13l-47 -17l-10 7v29h-147v-29l-7 -9l-48 -12l-9 6v170zM561 559h147v58h-147v-58zM434 718h393l30 30h14l54 -44v-13l-24 -20v-221l-6 -11l-45 -15l-13 7v26h-409v-18l-8 -8l-48 -13l-8 6v324zM428 698v-219h409v219h-409z
M770 382l28 31h14l52 -49v-14l-22 -14v-191l-5 -12l-48 -15l-11 5v35h-291v-25l-7 -10l-49 -15l-8 6v299l70 -31h277zM778 180v87h-291v-87h291zM778 289v71h-291v-71h291z" />
  </g>

</svg>
