<?xml version="1.0" standalone="no"?>
<!DOCTYPE svg PUBLIC "-//W3C//DTD SVG 1.1//EN" "http://www.w3.org/Graphics/SVG/1.1/DTD/svg11.dtd" >
<svg xmlns="http://www.w3.org/2000/svg" xmlns:xlink="http://www.w3.org/1999/xlink" version="1.1" viewBox="0 -120 1000 1000">
  <g transform="matrix(1 0 0 -1 0 880)">
   <path fill="currentColor"
d="M144 546q-48 -25 -96 -42l-8 17q92 41 158 99q95 82 156 180h-280l-8 25h305q41 63 67 119l82 -14q18 -3 18 -14q0 -10 -15 -14l-26 -6l-21 -32l-26 -39h330l51 63l91 -72v-16h-331q101 -115 351 -186l-5 -15q-27 -2 -41 -13q-13 -9 -22 -29q-71 25 -154 83
q-87 60 -153 160h-137q-56 -73 -104 -122q-59 -58 -135 -106h261v116l70 -7q21 -2 21 -12q0 -8 -13 -14l-19 -9l1 -74h121l50 58l88 -66l-1 -16l-309 -2q-55 -58 -128 -123q28 -17 38 -33q8 -11 16 -36q86 77 155 167l65 -23q17 -6 17 -15t-14 -13l-23 -8q-73 -74 -126 -116
q-124 -99 -249 -153q-46 -20 -116 -39l-5 16q64 28 96 45q56 30 158 103q-25 42 -55 67q-34 27 -89 52l4 14q58 -3 105 -19l68 114h-234zM944 111q-25 -2 -37 -15q-5 -6 -22 -35q-112 34 -187 81q-46 29 -78 61q-19 19 -49 59q-178 -157 -456 -210l-5 19q139 38 250 104
q99 59 193 152q33 34 89 101l71 -26q13 -5 13 -13t-12 -12l-29 -9q-60 -58 -99 -93q140 -112 362 -149z" />
  </g>

</svg>
