<?xml version="1.0" standalone="no"?>
<!DOCTYPE svg PUBLIC "-//W3C//DTD SVG 1.1//EN" "http://www.w3.org/Graphics/SVG/1.1/DTD/svg11.dtd" >
<svg xmlns="http://www.w3.org/2000/svg" xmlns:xlink="http://www.w3.org/1999/xlink" version="1.1" viewBox="0 -410 2048 2048">
  <g transform="matrix(1 0 0 -1 0 1638)">
   <path fill="currentColor"
d="M1190 1503q-122 -294 -326 -573l-32 25q177 320 267 576q59 168 109 371l141 -53q32 -12 32 -31q0 -20 -32 -29l-61 -17q-37 -111 -75 -210h293l69 76l81 -54q45 -30 45 -51q0 -26 -26 -36l-61 -22q-74 -302 -135 -479q76 -238 132 -359q96 -208 218 -321q57 -53 153 -99
l-4 -41q-40 0 -54 -3q-29 -6 -69 -56q-149 128 -256 351q-61 127 -150 443q-82 -195 -146 -296q-137 -216 -330 -371q-75 -60 -256 -170l-22 35q237 166 374 332q198 240 311 568q66 193 132 494h-322zM776 1407l122 11l8 -39q-67 -19 -134 -30q-37 -425 -167 -676
q213 -158 213 -270q0 -62 -51 -62q-20 0 -35 13q-13 12 -86 123q-22 32 -91 105q-162 -276 -453 -461l-26 35q281 222 413 489q-140 121 -317 194q77 205 129 455q-65 -6 -121 -12l-13 -41q-10 -31 -24 -31q-17 0 -47 66l-44 97q135 1 266 6q44 228 58 341q7 50 19 227
l129 -34q73 -19 73 -49q0 -28 -46 -35l-57 -8q-24 -181 -79 -437q146 10 262 16l1 26v45l-1 112l145 -29q39 -7 39 -31q0 -28 -34 -37l-46 -11zM528 726q116 235 146 609q-46 -9 -280 -33q-84 -277 -153 -438q18 -9 138 -61q75 -33 149 -77z" />
  </g>

</svg>
