<?xml version="1.0" standalone="no"?>
<!DOCTYPE svg PUBLIC "-//W3C//DTD SVG 1.1//EN" "http://www.w3.org/Graphics/SVG/1.1/DTD/svg11.dtd" >
<svg xmlns="http://www.w3.org/2000/svg" xmlns:xlink="http://www.w3.org/1999/xlink" version="1.1" viewBox="0 -120 1000 1000">
  <g transform="matrix(1 0 0 -1 0 880)">
   <path fill="currentColor"
d="M54 686l-15 27h118l40 233l77 -17q20 -4 20 -16q0 -9 -20 -16l-19 -7l-31 -177h108l31 42l58 -49q11 -8 11 -16q0 -7 -14 -13l-14 -6q-18 -257 -66 -354q41 -33 54 -51q17 -24 17 -50q0 -38 -31 -38q-15 0 -28 22q-21 33 -41 58q-43 -65 -89 -104q-51 -43 -122 -83
l-13 16q69 44 124 119q41 55 58 101q-19 19 -52 42q-33 22 -56 33l-15 -72l-63 13q43 194 73 363h-100zM220 686l-56 -279q37 -9 122 -53q19 53 36 160q12 76 19 172h-121zM354 70q84 78 126 176q36 90 42 211q2 32 2 63h-105l-14 28h119v299h-105l-12 28h392l47 57l78 -66
v-19h-135v-299h31l49 60l85 -65v-23h-165v-440l-65 -12v452h-137q-3 -126 -19 -186q-29 -108 -107 -194q-44 -50 -98 -84zM587 847v-299h137v299h-137z" />
  </g>

</svg>
