<?xml version="1.0" standalone="no"?>
<!DOCTYPE svg PUBLIC "-//W3C//DTD SVG 1.1//EN" "http://www.w3.org/Graphics/SVG/1.1/DTD/svg11.dtd" >
<svg xmlns="http://www.w3.org/2000/svg" xmlns:xlink="http://www.w3.org/1999/xlink" version="1.1" viewBox="0 -204 1024 1024">
  <g transform="matrix(1 0 0 -1 0 820)">
   <path fill="currentColor"
d="M218 958q54 -19 93 -39q7 -6 7 -13q0 -11 -19 -17q-21 -5 -33 -5q-17 -100 -43 -193q-3 -14 -6 -26q69 4 124 9q1 29 1 56v40q45 -9 82 -20q10 -3 10 -12q0 -7 -15 -18q-19 -9 -29 -12q-6 -114 -30 -203q-25 -108 -65 -192q-1 -1 0 -1l38 -34q39 -36 52 -54
q12 -16 16 -34q7 -14 7 -34q0 -18 -22 -18q-5 0 -25 24q-14 28 -64 81q-12 16 -26 28q-32 -63 -65 -105q-51 -67 -130 -124l-18 22q82 69 129 138q30 42 56 97q-23 18 -43 31q-53 41 -110 64l2 3l-2 1q33 79 52 147q12 37 21 76q-27 -4 -51 -7q-15 -34 -22 -34q-3 0 -5 7
q-23 33 -39 73q65 0 126 3q2 9 4 19q17 73 29 140q8 60 13 136zM259 335q3 9 5 14q36 85 61 198q10 57 15 108q-46 -11 -92 -20q-22 -4 -40 -7q-18 -54 -33 -97q-22 -60 -53 -124q63 -21 111 -55q15 -8 26 -17zM430 938l62 -46h396l32 46q34 -23 52 -43q8 -9 8 -15
q0 -8 -42 -32v-728q0 -32 -13 -51q-14 -15 -35 -25q-21 -12 -36 -12q0 25 -9 33q-12 13 -41 24q-33 10 -74 13v22q75 -16 132 -16q21 0 27 6q7 5 7 28v724h-414v-824q0 -14 -18 -14q-9 0 -24 6q-10 10 -10 24q0 16 3 46q5 23 5 96v670q0 39 -8 68zM512 730q42 -14 116 -14
h98l44 48q38 -23 69 -49q9 -5 9 -11q0 -14 -12 -14h-208q-72 -1 -98 -4zM554 598l60 -32h128l28 32q52 -32 52 -44t-26 -28v-172q12 -9 21 -18q5 -4 5 -8q0 -14 -8 -14h-212v-30q0 -9 -10 -13q-15 -5 -26 -5q-12 0 -12 10v322zM602 342h146v194h-146v-194z" />
  </g>

</svg>
