<?xml version="1.0" standalone="no"?>
<!DOCTYPE svg PUBLIC "-//W3C//DTD SVG 1.1//EN" "http://www.w3.org/Graphics/SVG/1.1/DTD/svg11.dtd" >
<svg xmlns="http://www.w3.org/2000/svg" xmlns:xlink="http://www.w3.org/1999/xlink" version="1.1" viewBox="0 -204 1024 1024">
  <g transform="matrix(1 0 0 -1 0 820)">
   <path fill="currentColor"
d="M190 954q55 -21 95 -39q7 -6 7 -13q0 -13 -21 -17q-21 -5 -31 -5q-17 -100 -33 -193q-3 -14 -5 -24h4q69 9 128 23q2 26 2 52q0 19 -4 36q43 -6 77 -18q11 -3 11 -12q0 -5 -18 -14q-18 -11 -26 -14q-8 -116 -31 -209q-27 -112 -62 -196q15 -13 28 -28q36 -34 48 -51
q12 -13 16 -32q5 -13 5 -30q0 -22 -22 -22q-6 0 -20 26q-14 24 -59 75q-11 13 -18 20q-35 -67 -66 -112q-52 -68 -127 -129l-18 22q82 68 129 141q31 45 58 102q-24 23 -47 37q-44 39 -96 60l4 5q24 79 37 146q7 36 16 75q-26 -5 -53 -10q-13 -32 -18 -32q-3 0 -7 5
q-22 35 -37 75q60 0 122 5q2 9 3 18q10 74 18 141q7 60 11 136zM253 332q2 4 3 11q37 89 59 205q14 62 18 117q-47 -15 -97 -26q-23 -8 -42 -13q-14 -55 -25 -99q-17 -62 -41 -124q54 -23 95 -51q18 -9 30 -20zM390 840q44 -10 118 -10h90q8 23 15 42q17 47 23 88
q46 -5 71 -16q13 -3 13 -12q0 -7 -15 -12q-18 -5 -29 -6q-17 -49 -30 -84h216l44 46q36 -23 69 -47q7 -5 7 -11q0 -18 -10 -18h-232q23 -32 46 -58q29 -33 67 -63q37 -27 74 -48q37 -17 67 -25v-18q-51 0 -66 -26q-34 16 -63 42q-29 24 -52 55q-26 27 -47 58q-25 33 -50 83
h-81q-2 -3 -3 -6q-27 -54 -64 -103q-37 -50 -71 -83q-39 -34 -99 -76l-12 22q48 37 81 69q29 30 54 68q27 35 51 83q9 13 15 26h-79q-72 -1 -96 -4zM544 632q43 -12 114 -12h44l40 40q31 -20 59 -42q7 -3 7 -8q0 -18 -12 -18h-138q-69 -1 -96 -4zM390 488q44 -10 118 -10
h332l44 44q30 -25 59 -46q7 -5 7 -12q0 -16 -12 -16h-327l-49 -120h260l36 32q35 -17 52 -36q10 -6 10 -10q0 -13 -40 -30q-9 -75 -24 -127q-15 -53 -32 -80q-15 -21 -34 -32q-22 -14 -46 -22q-19 -5 -32 -5q0 19 -12 32q-11 14 -126 52l6 18q104 -40 140 -40q15 0 29 5
q11 2 19 11q10 8 25 31q13 21 20 63q12 42 17 112h-283l-1 -1q-18 -9 -28 -9q-18 0 -18 10q0 3 2 6q9 14 26 64l28 76h-48q-72 -1 -96 -2z" />
  </g>

</svg>
