<?xml version="1.0" standalone="no"?>
<!DOCTYPE svg PUBLIC "-//W3C//DTD SVG 1.1//EN" "http://www.w3.org/Graphics/SVG/1.1/DTD/svg11.dtd" >
<svg xmlns="http://www.w3.org/2000/svg" xmlns:xlink="http://www.w3.org/1999/xlink" version="1.1" viewBox="0 -410 2048 2048">
  <g transform="matrix(1 0 0 -1 0 1638)">
   <path fill="currentColor"
d="M1574 1596l98 -41q20 -8 20 -29q0 -22 -39 -32l-51 -13q-166 -397 -260 -554q224 17 308 29q65 163 114 352l84 -30q92 -33 92 -55t-61 -33l-39 -6q-14 -31 -63 -160q-175 -457 -473 -765q48 8 260 42q105 17 247 51q-55 139 -115 237l31 24q240 -293 240 -453
q0 -65 -50 -65q-38 0 -51 64q-18 93 -41 155q-169 -69 -475 -154l-16 -49q-6 -20 -22 -20q-17 0 -29 26l-62 134q56 31 162 195q116 181 244 457q-102 -29 -236 -61l-19 -50q-7 -19 -18 -19q-19 0 -31 27l-52 118q41 26 103 198q77 217 136 480h-91q-68 0 -148 -11l-39 86
q125 -17 187 -17h166q-20 9 -26 41q-28 142 -140 260l22 23q211 -158 211 -267q0 -38 -32 -57h163l80 80l114 -86q17 -13 17 -26q0 -26 -27 -26h-393zM846 90q-4 59 -55 82q-33 14 -132 44l7 39q36 -7 73 -16q82 -19 126 -19q110 0 151 173q33 137 53 470h-262
q-33 -4 -41 -4q-41 0 -41 27q0 10 8 56q51 240 74 498l105 -65h164v414h-160q-67 0 -149 -11l-39 86q121 -17 188 -17h145l65 70l79 -49q40 -25 40 -49q0 -27 -78 -61v-360q20 -16 31 -23q28 -19 28 -32q0 -21 -36 -21h-300q-27 -201 -68 -403h231l68 76l84 -54
q40 -26 40 -49q0 -27 -78 -61q-28 -338 -50 -453q-52 -265 -271 -288zM550 1409q2 22 2 58l-2 141l144 -29q45 -9 45 -32t-35 -34l-49 -15q-3 -44 -6 -82l74 6l6 -39l-84 -18q-20 -229 -44 -358q-32 -178 -104 -359q225 -143 225 -239q0 -57 -46 -57q-25 0 -52 24
q-5 5 -71 88q-24 32 -95 96q-104 -188 -193 -291q-85 -99 -189 -180l-26 35q212 213 336 493q-103 73 -276 139q75 236 84 267q17 60 68 280l-92 -12l-8 -32q-10 -39 -30 -39q-16 0 -46 66l-44 97q139 3 238 8q61 368 67 540l130 -34q73 -19 73 -48q0 -26 -53 -38l-49 -12
q-29 -188 -74 -403l87 6zM550 1347q-113 -19 -194 -31q-69 -269 -184 -532q142 -43 245 -90q67 193 92 336q18 97 41 317z" />
  </g>

</svg>
