<?xml version="1.0" standalone="no"?>
<!DOCTYPE svg PUBLIC "-//W3C//DTD SVG 1.1//EN" "http://www.w3.org/Graphics/SVG/1.1/DTD/svg11.dtd" >
<svg xmlns="http://www.w3.org/2000/svg" xmlns:xlink="http://www.w3.org/1999/xlink" version="1.1" viewBox="0 -204 1024 1024">
  <g transform="matrix(1 0 0 -1 0 820)">
   <path fill="currentColor"
d="M182 954q55 -21 93 -39q9 -6 9 -13q0 -13 -21 -17q-21 -5 -33 -5q-15 -100 -31 -193q-3 -16 -5 -27q7 0 14 1q67 7 126 15q2 28 2 54q0 19 -4 34q43 -6 77 -16q11 -3 11 -10t-18 -18q-18 -9 -26 -12q-8 -117 -30 -208q-25 -111 -62 -194q16 -15 29 -29q37 -36 51 -54
q11 -15 15 -33q5 -14 5 -34q0 -18 -20 -18q-8 0 -23 24q-14 28 -60 80q-12 13 -19 22q-34 -66 -65 -111q-51 -68 -125 -129l-18 22q81 68 127 142q31 44 57 100q-25 25 -48 39q-47 41 -100 63l2 3l-2 1q24 79 38 147q6 34 13 73q-20 -4 -43 -8q-13 -32 -18 -32q-3 0 -7 5
q-22 35 -37 75q56 0 114 4q2 10 3 19q11 74 18 141q7 60 11 136zM254 327l3 9q37 90 58 205q14 62 18 117q-47 -13 -95 -25q-26 -6 -54 -12q-12 -51 -23 -94q-19 -62 -41 -124q58 -23 102 -54q19 -12 32 -22zM854 898q-52 -16 -110 -26q-68 -13 -142 -22q-59 -6 -150 -10
l-6 22q50 3 105 10q50 6 98 17q52 13 88 25q36 9 62 21q18 12 37 23q34 -24 61 -44q5 -4 5 -8q0 -14 -10 -14q-14 0 -38 6zM456 788q23 -21 44 -46q21 -23 35 -42q15 -22 19 -38q4 -13 4 -30q0 -16 -4 -26q-7 -14 -18 -14q-9 0 -13 8q-5 4 -9 24q-4 29 -15 53q-13 26 -26 51
q-11 21 -35 50zM628 800q30 -29 51 -60q14 -23 23 -46q10 -19 10 -34q0 -10 -6 -21q-11 -15 -20 -15q-7 0 -14 5q-8 11 -8 25q-8 49 -18 77q-8 24 -32 61zM870 844q42 -17 70 -38q6 -4 6 -10t-8 -9q-16 -4 -32 -5q-8 -23 -16 -43q-11 -23 -24 -40q-11 -20 -24 -39
q-16 -17 -32 -36l-10 12q14 30 26 57q12 25 22 52q8 31 14 54q6 26 8 45zM862 532q-84 -18 -176 -33v-175h110l52 62q40 -30 75 -61q9 -5 9 -11q0 -16 -18 -16h-228v-200h162l48 54q38 -28 71 -54q9 -5 9 -12q0 -18 -18 -18h-462q-71 -1 -98 -4l-18 44q43 -10 116 -10h144
v200h-104q-71 -3 -98 -6l-18 44q43 -12 116 -12h104v169q-5 -1 -9 -1q-90 -13 -201 -18l-6 18q149 19 283 52q87 24 129 54q50 -27 78 -50q10 -5 10 -12q0 -9 -14 -10q-5 0 -17 4q-11 2 -31 2z" />
  </g>

</svg>
