<?xml version="1.0" standalone="no"?>
<!DOCTYPE svg PUBLIC "-//W3C//DTD SVG 1.1//EN" "http://www.w3.org/Graphics/SVG/1.1/DTD/svg11.dtd" >
<svg xmlns="http://www.w3.org/2000/svg" xmlns:xlink="http://www.w3.org/1999/xlink" version="1.1" viewBox="0 -410 2048 2048">
  <g transform="matrix(1 0 0 -1 0 1638)">
   <path fill="currentColor"
d="M264 1256q-49 -5 -104 -12q-3 -11 -5 -16q-15 -55 -33 -55t-47 65l-43 97q136 2 249 7q73 368 83 590l138 -37q65 -18 65 -43q0 -28 -65 -39l-40 -7q-34 -270 -84 -458q127 8 252 17q4 70 4 98q0 46 -4 120l134 -27q56 -11 56 -34t-35 -34l-49 -15l-9 -100l77 6l6 -37
l-88 -24q-22 -228 -52 -354q-47 -197 -122 -346q236 -177 236 -274q0 -55 -49 -55q-24 0 -47 19q-11 10 -45 63q-44 68 -141 168q-93 -147 -194 -253q-70 -72 -207 -173l-26 35q105 90 211 228q97 124 152 224q-132 119 -298 219q86 261 124 437zM201 834q31 -19 90 -52
q94 -51 182 -111q111 249 152 631q-123 -18 -269 -36q-92 -287 -155 -432zM1006 1407q-59 -164 -211 -325l-28 28q113 156 153 328q28 116 36 280l122 -26q49 -11 49 -36q0 -22 -45 -33l-33 -7q-9 -79 -28 -164q30 -37 125 -86q93 -47 179 -62v494h-286q-109 0 -192 -8
l-38 88q94 -22 230 -22h744l54 64l107 -76q20 -15 20 -30q0 -19 -92 -46q-40 -41 -138 -123l-30 24q46 63 79 129h-362v-247h268l80 81l114 -86q17 -13 17 -25q0 -26 -28 -26h-451v-202q98 -15 271 -15q174 0 303 15v-37q-30 -8 -52 -19q-38 -19 -44 -61q-358 0 -523 32
q-214 40 -370 199zM1709 595q-152 -59 -540 -154q-19 -74 -41 -74q-20 0 -45 57q-27 62 -44 99q-19 -141 -63 -232q-55 -112 -164 -206l-27 24q88 106 125 234q46 153 46 476q0 126 -8 314l110 -72h632l67 76l84 -54q40 -26 40 -48q0 -28 -78 -62v-724q0 -141 -154 -171
q-12 70 -47 93q-34 21 -160 43l8 46q169 -27 202 -27q57 0 57 58v304zM1039 534q298 29 670 107v362h-660v-123q491 -39 491 -161q0 -44 -44 -44q-20 0 -63 27q-139 89 -384 138v-97q0 -118 -10 -209z" />
  </g>

</svg>
