<?xml version="1.0" standalone="no"?>
<!DOCTYPE svg PUBLIC "-//W3C//DTD SVG 1.1//EN" "http://www.w3.org/Graphics/SVG/1.1/DTD/svg11.dtd" >
<svg xmlns="http://www.w3.org/2000/svg" xmlns:xlink="http://www.w3.org/1999/xlink" version="1.1" viewBox="0 -140 1000 1000">
  <g transform="matrix(1 0 0 -1 0 860)">
   <path fill="currentColor"
d="M309 44l-10 10q36 44 57.5 81.5t44 103t33 164.5t10.5 238v273l70 -29h331l31 29h15l50 -44v-14l-20 -19v-163l-7 -10l-47 -16l-9 8v30l-351 -1v-79q0 -209 -46 -341t-152 -221zM507 707h141v156h-141v-156zM711 707h147v156h-147v-156zM857 151h-251v-57l-10 -13
l-46 -16l-8 6l-1 531l74 -32h233l29 27h18l47 -39v-16l-22 -21v-417l-8 -9l-43 -15l-12 8v63zM605 173h252v119h-252v-119zM605 313h252v111h-252v-111zM605 445h252v104h-252v-104zM67 708h86l46 223l91 -28l-3 -14l-31 -7l-39 -174h68l32 33h17l55 -52l-3 -12l-25 -15
q-12 -141 -25 -211.5t-44 -156.5q46 -36 61 -56.5t15 -48.5q0 -43 -19 -43q-20 0 -45 47q-16 27 -36 52q-46 -65 -85.5 -103t-111.5 -86l-9 10q61 61 93.5 105t67.5 115q-31 30 -85 53l-8 -33l-8 -8l-47 -1l-8 12l81 377h-81v22zM212 686l-69 -326q72 -26 96 -37
q28 89 40 163.5t17 199.5h-84z" />
  </g>

</svg>
