<?xml version="1.0" standalone="no"?>
<!DOCTYPE svg PUBLIC "-//W3C//DTD SVG 1.1//EN" "http://www.w3.org/Graphics/SVG/1.1/DTD/svg11.dtd" >
<svg xmlns="http://www.w3.org/2000/svg" xmlns:xlink="http://www.w3.org/1999/xlink" version="1.1" viewBox="0 -204 1024 1024">
  <g transform="matrix(1 0 0 -1 0 820)">
   <path fill="currentColor"
d="M190 954q55 -21 95 -39q7 -6 7 -13q0 -13 -21 -17q-21 -5 -31 -5q-21 -101 -42 -196q65 5 118 11q2 21 2 43v40q47 -7 81 -20q13 -3 13 -14q0 -5 -18 -14q-16 -11 -26 -14q-9 -117 -30 -210q-29 -112 -69 -199q-7 -17 -13 -31q25 -14 42 -33q42 -33 55 -51q13 -11 18 -29
q5 -14 5 -29q0 -22 -22 -22q-7 0 -23 26q-17 23 -68 71q-14 17 -30 28q-26 -47 -54 -83q-51 -69 -133 -130l-14 26q83 68 130 141q21 33 42 72q-21 14 -38 25q-44 31 -90 48l-2 1q-9 6 -20 9l2 3l-2 1q33 85 57 161q15 56 29 121q-19 -4 -42 -8q-15 -36 -22 -36q-3 0 -8 9
q-24 35 -40 79q61 0 124 6q13 65 22 124q10 66 16 148zM220 299q10 20 21 44q34 89 58 205q12 67 16 126q-44 -13 -89 -21q-18 -5 -39 -9q-21 -83 -45 -150q-23 -64 -57 -134q67 -22 115 -50q12 -6 20 -11zM632 958q55 -7 93 -23q13 -6 13 -15q0 -7 -13 -11q-17 -9 -43 -11
v-50h188l44 50q36 -26 68 -51q8 -5 8 -11q0 -14 -10 -14h-298v-110h187l29 40q38 -20 53 -42q7 -8 7 -12q0 -10 -34 -34v-284q0 -73 2 -97q2 -28 2 -47q0 -12 -13 -21q-13 -7 -19 -7q-20 0 -20 14v30h-277q31 -17 51 -30q4 -4 4 -14q0 -8 -18 -8h-34q-34 -43 -71 -69
q-34 -34 -70 -58q-43 -27 -85 -45l-12 26q62 36 104 73q44 33 69 65q19 29 35 60h-86v-30q0 -14 -18 -14q-9 0 -24 7q-10 9 -10 21q0 19 3 47q5 24 5 97v306q0 39 -8 66l55 -40h147v164q0 54 -4 82zM486 280h390v118h-390v-118zM486 426h390v114h-390v-114zM486 570h390v112
l-3 4h-386l-1 -4v-112zM738 218q52 -17 103 -41q51 -27 74 -44q26 -22 35 -33q12 -15 18 -29q4 -9 4 -21q0 -22 -18 -22q-5 0 -14 9q-7 8 -19 23q-23 21 -39 39q-24 17 -56 40q-33 25 -96 61z" />
  </g>

</svg>
