<?xml version="1.0" standalone="no"?>
<!DOCTYPE svg PUBLIC "-//W3C//DTD SVG 1.1//EN" "http://www.w3.org/Graphics/SVG/1.1/DTD/svg11.dtd" >
<svg xmlns="http://www.w3.org/2000/svg" xmlns:xlink="http://www.w3.org/1999/xlink" version="1.1" viewBox="0 -204 1024 1024">
  <g transform="matrix(1 0 0 -1 0 820)">
   <path fill="currentColor"
d="M182 954q55 -21 93 -39q9 -6 9 -13q0 -13 -21 -17q-21 -5 -33 -5q-15 -100 -31 -193q-3 -16 -5 -27q64 6 118 13q2 28 2 53q0 19 -4 34q43 -6 77 -16q11 -1 11 -10q0 -7 -15 -18q-17 -9 -29 -12q-7 -116 -25 -207q-23 -98 -54 -176q16 -9 26 -20q36 -29 47 -45
q10 -13 13 -26q7 -13 7 -30q0 -18 -22 -18q-5 0 -19 20q-15 23 -59 67q-6 6 -11 10q-34 -76 -69 -127q-47 -67 -116 -128l-18 22q75 68 118 141q33 49 59 118q-23 20 -47 33q-34 27 -73 42q-12 7 -21 10l2 3l-2 1q24 79 38 147q6 34 13 73q-20 -4 -43 -8q-13 -32 -18 -32
q-3 0 -7 5q-22 35 -37 75q56 0 114 4q2 10 3 19q11 74 18 141q7 60 11 136zM247 343q31 86 51 196q9 61 13 117q-44 -13 -90 -25q-17 -5 -37 -8q-12 -53 -23 -96q-19 -62 -41 -123q54 -17 96 -44q15 -8 31 -17zM442 914q50 -7 81 -23q13 -6 13 -15q0 -7 -11 -11
q-13 -9 -29 -11v-98h162v120q0 54 -4 82q45 -8 74 -17q10 -6 10 -13q0 -5 -7 -8q-10 -6 -23 -10v-154h171q1 16 1 26v50q0 54 -4 82q48 -7 79 -23q13 -6 13 -15q0 -7 -11 -11q-14 -9 -29 -11v-146q0 -18 -30 -18q-22 0 -22 22q0 7 1 18h-169v-106h162l44 48q36 -23 68 -49
q8 -5 8 -9q0 -16 -10 -16h-466q-70 -1 -94 -6l-22 44q44 -12 116 -12h144v106h-173q-6 -4 -17 -4q-26 0 -26 22q0 13 2 34q2 19 2 36v14q0 54 -4 82zM446 492l54 -28h150v32q0 54 -4 80q45 -6 75 -15q9 -4 9 -13q0 -5 -6 -8q-11 -7 -26 -10v-66h172l26 28q50 -31 50 -44
q0 -9 -26 -28v-111q14 -10 25 -21q5 -4 5 -8q0 -14 -8 -14h-244v-147h2q80 5 185 17l-28 38q-22 29 -49 52l10 10q45 -29 91 -71q32 -25 48 -51q14 -15 20 -36q3 -12 3 -20q0 -30 -26 -30q-5 0 -10 4q-8 6 -16 26q-17 34 -31 56q-93 -14 -169 -22q-85 -13 -163 -21
q-70 -9 -149 -13q-13 -38 -18 -38q-8 0 -48 82q104 2 184 6q55 3 116 7v151h-154v-18q0 -9 -14 -14q-13 -4 -22 -4q-14 0 -14 10v252zM496 292h154v146h-152l-2 -4v-142zM698 438v-146h172v142l-1 4h-171z" />
  </g>

</svg>
