<?xml version="1.0" standalone="no"?>
<!DOCTYPE svg PUBLIC "-//W3C//DTD SVG 1.1//EN" "http://www.w3.org/Graphics/SVG/1.1/DTD/svg11.dtd" >
<svg xmlns="http://www.w3.org/2000/svg" xmlns:xlink="http://www.w3.org/1999/xlink" version="1.1" viewBox="0 -120 1000 1000">
  <g transform="matrix(1 0 0 -1 0 880)">
   <path fill="currentColor"
d="M49 683l-14 27h84l29 236l72 -17q23 -5 23 -16t-17 -14l-23 -5l-25 -184h86l29 44l49 -38q15 -13 15 -24q0 -9 -12 -13l-17 -8q-14 -223 -53 -334q79 -46 79 -94q0 -14 -9 -24.5t-20 -10.5t-16 8l-35 47q-4 5 -20 19q-69 -131 -188 -214l-11 12q103 93 156 246
q-22 18 -81 54l-11 -67l-60 13q19 93 57 357h-67zM135 405q40 -16 90 -39q28 117 43 317h-93zM235 99q90 65 160 142q30 32 66 80q19 24 34 41l47 -36q5 76 7 210h-127l-7 -78l-57 3q17 125 27 296l61 -30h96v134h-191l-15 27h201l23 43l55 -43q15 -12 15 -18q0 -10 -19 -13
l-13 -2v-213l-56 -10v67h-105l-13 -136h120l24 37l54 -39q13 -9 13 -16t-11 -10l-17 -5q-1 -43 -3 -141q-3 -119 -17 -215q-9 -61 -19 -76q-13 -18 -45 -28q-29 -9 -38 -9q-8 0 -10 15q-2 17 -8 21q-5 4 -14 6l-59 14v15h125q16 47 22 162l-21 2q-156 -153 -276 -212z
M500 462q-25 -35 -63 -77q-51 -54 -88 -84l-10 14q34 41 79 115q9 15 33 61q7 13 19 35l47 -34q15 -12 15 -17q0 -6 -15 -9zM594 128q121 98 235 252l47 -42q1 32 4 96q0 16 1 102h-151l-7 -73l-55 2l21 291l63 -29h115v134h-216l-13 27h221l20 40l56 -40q14 -10 14 -15
q0 -7 -12 -12l-15 -6v-203l-55 -9v56h-125l-10 -136h147l26 41l48 -38q15 -12 15 -18q0 -8 -14 -12l-12 -4q-8 -277 -21 -360q-10 -66 -27 -84q-21 -20 -58 -25q-16 -2 -17 -3q-6 -1 -9 -1q-5 0 -6 11q0 19 -7 25q-4 8 -25 11l-54 10v18h134q15 40 22 181l-15 4
q-13 -12 -79 -73q-83 -75 -177 -130zM631 320q34 31 92 102q13 17 57 79l20 26l47 -36q15 -11 15 -18q0 -8 -15 -10l-20 -3q-12 -11 -63 -60q-51 -48 -123 -93z" />
  </g>

</svg>
