<?xml version="1.0" standalone="no"?>
<!DOCTYPE svg PUBLIC "-//W3C//DTD SVG 1.1//EN" "http://www.w3.org/Graphics/SVG/1.1/DTD/svg11.dtd" >
<svg xmlns="http://www.w3.org/2000/svg" xmlns:xlink="http://www.w3.org/1999/xlink" version="1.1" viewBox="0 -410 2048 2048">
  <g transform="matrix(1 0 0 -1 0 1638)">
   <path fill="currentColor"
d="M552 1322l3 97l3 129l100 -15q84 -13 84 -43q0 -23 -35 -33l-49 -15l-8 -110l84 8l3 -42l-92 -24q-29 -352 -125 -616q199 -164 199 -250q0 -65 -50 -65q-34 0 -88 95q-41 71 -98 130q-143 -299 -388 -486l-26 31q223 223 341 517q-95 78 -269 166q71 294 90 413
q-24 -4 -50 -8q-3 -10 -5 -16q-14 -55 -39 -55q-22 0 -42 53l-42 110q36 -1 50 -1q56 0 143 6q53 333 73 630l127 -30q72 -17 72 -50q0 -28 -46 -34l-57 -9q-38 -290 -81 -500q112 6 218 17zM547 1255q-111 -16 -231 -35q-54 -232 -108 -394q41 -18 61 -28q88 -39 172 -85
q36 95 60 219q15 74 46 323zM1382 1153q253 -191 612 -258l-3 -41q-76 -1 -102 -68q-144 49 -267 120q-113 65 -282 209q-281 -264 -635 -353l-14 41q397 136 646 464l105 -50q39 -19 39 -30q0 -34 -99 -34zM1449 1350q-7 -65 -36 -65q-19 0 -32 27l-52 107q192 50 378 110
l19 -35q-137 -79 -277 -144zM1146 1538l16 -36q-57 -40 -268 -156q-3 -15 -4 -22q-10 -53 -28 -53q-22 0 -41 41l-50 104q197 46 375 122zM803 1709q26 -4 122 -17q158 -21 158 -93q0 -48 -41 -48q-19 0 -62 35q-45 37 -186 85zM1380 1703q154 -18 212 -41q65 -26 65 -79
q0 -39 -36 -39q-27 0 -68 33q-52 43 -180 89zM1766 571l57 -49q57 -46 57 -65q0 -25 -100 -26q-196 -141 -378 -224q-201 -92 -502 -152l-6 42q292 84 466 175q233 121 406 299zM1736 1196q0 49 -17 68q-28 31 -118 49l8 42q94 -19 127 -19q47 0 47 60v381h-215
q-66 0 -149 -11l-39 86q123 -18 188 -18h197l61 71l72 -49q40 -27 40 -51q0 -11 -6 -17q-2 -2 -56 -34v-426q0 -108 -140 -132zM1189 1777h-254q-67 0 -149 -11l-39 86q123 -18 188 -18h239l61 71l72 -49q43 -29 43 -50q0 -15 -66 -52v-419q0 -109 -141 -131q0 48 -17 67
q-27 31 -118 50l7 41q91 -19 127 -19q47 0 47 61v373zM1398 967l72 -50q49 -33 49 -55q0 -21 -78 -21h-28q-174 -123 -256 -163q-123 -58 -291 -107l-15 39q212 89 314 157q131 86 233 200zM1529 756l74 -44q58 -35 58 -59q0 -15 -22 -20q-11 -2 -85 -4q-199 -145 -376 -217
q-120 -48 -281 -92l-12 43q209 72 350 155q146 87 294 238z" />
  </g>

</svg>
