<?xml version="1.0" standalone="no"?>
<!DOCTYPE svg PUBLIC "-//W3C//DTD SVG 1.1//EN" "http://www.w3.org/Graphics/SVG/1.1/DTD/svg11.dtd" >
<svg xmlns="http://www.w3.org/2000/svg" xmlns:xlink="http://www.w3.org/1999/xlink" version="1.1" viewBox="0 -204 1024 1024">
  <g transform="matrix(1 0 0 -1 0 820)">
   <path fill="currentColor"
d="M160 954q53 -21 93 -39q5 -6 5 -13q0 -13 -18 -17q-24 -5 -32 -5q-13 -100 -30 -193q-4 -28 -8 -52q6 0 13 1q65 7 116 15q3 28 3 57q0 22 -4 36q43 -4 79 -15q9 -2 9 -13q0 -7 -15 -14q-19 -9 -29 -12q-5 -116 -27 -204q-20 -94 -50 -168q20 -13 33 -29q38 -30 49 -50
q11 -11 14 -26q7 -16 7 -31q0 -22 -22 -22q-5 0 -20 25q-16 23 -62 72q-8 10 -16 18q-35 -78 -72 -128q-47 -69 -118 -127l-16 22q77 66 119 138q34 52 60 120q-21 19 -45 33q-46 37 -96 57l4 5q16 79 30 146q4 24 7 45q-17 -3 -31 -6q-12 -32 -18 -32q-3 0 -7 8
q-22 32 -37 72q50 0 100 4q2 24 5 45q9 74 18 141q5 60 9 136zM237 338q28 82 49 189q10 53 12 102q-42 -13 -85 -20q-27 -7 -51 -15q-7 -35 -17 -67q-15 -62 -34 -124q56 -18 99 -48q14 -8 27 -17zM456 938l52 -28h284l26 32q52 -32 52 -44t-26 -28v-118q0 -17 -34 -22
q-14 0 -14 8v10h-292v-14q0 -9 -12 -16q-17 -6 -24 -6q-12 0 -12 14v212zM504 778h62v102h-60l-2 -4v-98zM614 778h66v102h-66v-102zM726 778h70v102h-70v-102zM892 914q51 -6 87 -19q11 -7 11 -15t-11 -11q-17 -9 -41 -11v-160q13 -9 25 -19q5 -3 5 -7q0 -14 -10 -14h-514
l-2 -4v-296h416l40 40q32 -23 57 -43q9 -4 9 -9q0 -18 -14 -18h-508v-8q0 -7 -10 -13q-12 -5 -20 -5q-14 0 -14 12v394l48 -22h450v154q0 49 -4 74zM492 614l45 -26h302l23 28q52 -31 52 -42t-26 -30v-110q0 -20 -34 -26q-14 0 -14 8v18h-300v-18q0 -9 -14 -13
q-14 -5 -22 -5q-12 0 -12 10v206zM540 460h70v102h-66l-4 -8v-94zM658 460h66v102h-66v-102zM770 460h70v98l-1 4h-69v-102zM376 258q43 -14 116 -14h135q5 20 5 32q0 31 -4 44q46 -5 81 -18q11 -4 11 -14q0 -5 -13 -9q-16 -4 -27 -5l-4 -30h204l44 44q30 -22 59 -46
q7 -4 7 -10q0 -14 -10 -14h-311q-3 -11 -6 -17q-15 -30 -37 -55q-25 -29 -59 -48q-39 -29 -86 -43q-49 -21 -101 -31l-8 22q67 18 104 35q36 16 69 39q26 20 48 46q15 22 24 52h-125q-71 -1 -98 -4zM724 182q59 -21 105 -40q48 -20 73 -33q28 -11 39 -20q10 -10 15 -18
q8 -7 8 -13q-1 -34 -26 -34q-8 0 -16 4q-11 4 -39 34q-31 30 -70 52q-37 26 -101 56z" />
  </g>

</svg>
