<?xml version="1.0" standalone="no"?>
<!DOCTYPE svg PUBLIC "-//W3C//DTD SVG 1.1//EN" "http://www.w3.org/Graphics/SVG/1.1/DTD/svg11.dtd" >
<svg xmlns="http://www.w3.org/2000/svg" xmlns:xlink="http://www.w3.org/1999/xlink" version="1.1" viewBox="0 -204 1024 1024">
  <g transform="matrix(1 0 0 -1 0 820)">
   <path fill="currentColor"
d="M98 910q39 -8 114 -8h596l40 36q35 -31 58 -62q4 -4 4 -10t-16 -10q-33 -2 -40 -2q-78 -54 -161 -97q-57 -32 -107 -55q10 -5 10 -12q0 -8 -13 -14q-18 -6 -31 -12v-267q90 -33 202 -51q107 -22 228 -22v-22q-44 -7 -62 -50q-151 24 -246 55q-66 18 -122 43v-242
q0 -34 -14 -50t-33 -27q-21 -11 -35 -11l-1 12q-2 16 -10 23q-14 11 -45 20q-37 12 -82 15v22q71 -14 132 -14q22 0 31 6q9 5 9 30v235q-15 6 -26 11q-86 41 -153 94q-69 46 -139 118l26 14q61 -67 143 -115q64 -40 149 -76v213q0 56 -8 110q43 -13 71 -28q66 36 115 68
q56 40 122 94h-592q-81 0 -96 -2z" />
  </g>

</svg>
