<?xml version="1.0" standalone="no"?>
<!DOCTYPE svg PUBLIC "-//W3C//DTD SVG 1.1//EN" "http://www.w3.org/Graphics/SVG/1.1/DTD/svg11.dtd" >
<svg xmlns="http://www.w3.org/2000/svg" xmlns:xlink="http://www.w3.org/1999/xlink" version="1.1" viewBox="0 -140 1000 1000">
  <g transform="matrix(1 0 0 -1 0 860)">
   <path fill="currentColor"
d="M471 783l96 -21v-13l-32 -20v-203h177l25 29h15l54 -46v-15l-23 -15v-305q0 -69 -16.5 -88t-91.5 -38l-11 6v27l-81 38l2 14l79 -7q7 -1 18 -1q23 0 30 11.5t7 41.5v82h-426v-182l-10 -10l-44 -13l-10 5v491l67 -25h175v257zM719 281v103h-426v-103h426zM719 406v98h-426
v-98h426zM164 872h15l5 -49h287v111l95 -21v-15l-31 -14v-61h286l28 31h14l61 -63l-8 -13h-29l-90 -81l-11 7l41 97h-643q-14 -167 -66 -167q-11 0 -21.5 17t-10.5 33q0 18 27 44q47 44 51 144zM347 742l72 -57l-6 -13l-33 3q-99 -93 -208 -147l-9 11q103 81 184 203z
M599 710l6 11q213 -60 213 -129q0 -41 -19 -41q-14 0 -35 24q-76 85 -165 135z" />
  </g>

</svg>
