<?xml version="1.0" standalone="no"?>
<!DOCTYPE svg PUBLIC "-//W3C//DTD SVG 1.1//EN" "http://www.w3.org/Graphics/SVG/1.1/DTD/svg11.dtd" >
<svg xmlns="http://www.w3.org/2000/svg" xmlns:xlink="http://www.w3.org/1999/xlink" version="1.1" viewBox="0 -140 1000 1000">
  <g transform="matrix(1 0 0 -1 0 860)">
   <path fill="currentColor"
d="M217 264v283q-48 -22 -109 -45l-7 13q115 66 193 132.5t150 161.5l77 -47l-6 -13h-33l-49 -46l132 1l35 31h14l64 -68l-6 -15h-37l-125 -84h210l35 36h14l61 -49v-15l-27 -18v-258h20l51 59h14l65 -65v-14h-904v20h168zM280 264h459v282h-150v-107q0 -22 10.5 -26.5
t44.5 -4.5q28 0 36 23l18 53l13 -3l-6 -72l21 -16v-12q-26 -26 -67 -26h-46q-84 0 -84 74v117l-80 -1q-14 -79 -48 -130t-100 -90l-12 8q45 51 66.5 98t31.5 115h-107v-282zM571 680h-161q-65 -56 -134 -99l13 -13h195zM451 185l-7 -13l-38 2q-75 -57 -142 -85t-166 -44
l-7 13q100 35 163 74.5t128 107.5zM583 208l4 15q160 -37 241 -69q71 -29 71 -77q0 -28 -19 -28q-7 0 -87 52q-78 54 -210 107zM845 837l31 28h14l63 -67l-6 -15h-36l-108 -80l-12 9l55 102h-703q0 -37 -5.5 -65.5t-13.5 -44.5t-17.5 -26.5t-16.5 -13.5t-13 -3q-28 0 -28 34
q0 22 29 54t37.5 53.5t11.5 75.5h16v-41h335v95l99 -20v-14l-35 -17v-44h303z" />
  </g>

</svg>
