<?xml version="1.0" standalone="no"?>
<!DOCTYPE svg PUBLIC "-//W3C//DTD SVG 1.1//EN" "http://www.w3.org/Graphics/SVG/1.1/DTD/svg11.dtd" >
<svg xmlns="http://www.w3.org/2000/svg" xmlns:xlink="http://www.w3.org/1999/xlink" version="1.1" viewBox="0 -410 2048 2048">
  <g transform="matrix(1 0 0 -1 0 1638)">
   <path fill="currentColor"
d="M584 727q-197 -320 -453 -512l-21 28q212 209 344 434q151 256 273 642h-326q-67 0 -149 -11l-39 86q120 -18 188 -18h344q8 32 11 47q29 120 47 242l111 -30q65 -19 65 -38q0 -26 -88 -38q-13 -46 -19 -69q-19 -75 -32 -114h486l61 72l72 -50q42 -28 42 -49
q0 -16 -65 -52l-89 -205h195l61 72l72 -50q42 -29 42 -49q0 -17 -65 -53l-101 -227h218l61 71l72 -49q42 -29 42 -50q0 -16 -65 -52q-6 -43 -28 -213q-24 -187 -75 -273q-69 -115 -219 -137q-6 66 -48 97q-44 31 -150 74l15 42q51 -18 76 -27q100 -37 142 -37q93 0 128 109
q30 93 44 218q14 122 21 169h-1201zM614 785h831l111 250h-826l-19 -42q-70 -154 -97 -208zM749 1092h500l86 227h-511q-34 -109 -75 -227zM1395 643q203 -123 203 -224q0 -31 -23 -49q-14 -11 -31 -11q-32 0 -51 64q-29 99 -122 191zM638 598l38 -7q-20 -164 -73 -256
q-61 -108 -135 -108q-48 0 -48 44q0 16 13 34q3 5 77 61q59 45 96 138q10 26 32 94zM1100 611q60 -46 109 -108q62 -77 62 -133q0 -61 -55 -61q-39 0 -50 71q-15 101 -94 207zM851 591q98 -163 98 -262q0 -46 -27 -68q-14 -12 -32 -12q-44 0 -44 55q0 8 1 17q5 89 5 94
q0 40 -31 159zM433 1634q70 -33 113 -59q80 -49 80 -108q0 -52 -47 -52q-35 0 -56 53q-19 51 -110 137zM911 1988q69 -44 112 -82q55 -48 55 -99q0 -33 -28 -54h725l58 66l89 -69q37 -30 37 -47q0 -19 -37 -26l-50 -10q-72 -88 -147 -167l-25 18q51 91 88 179h-1507
q-30 -233 -138 -233q-50 0 -50 47q0 22 54 71q94 85 95 250h39v-79h709q-12 23 -19 58q-16 76 -83 154z" />
  </g>

</svg>
