<?xml version="1.0" standalone="no"?>
<!DOCTYPE svg PUBLIC "-//W3C//DTD SVG 1.1//EN" "http://www.w3.org/Graphics/SVG/1.1/DTD/svg11.dtd" >
<svg xmlns="http://www.w3.org/2000/svg" xmlns:xlink="http://www.w3.org/1999/xlink" version="1.1" viewBox="0 -120 1000 1000">
  <g transform="matrix(1 0 0 -1 0 880)">
   <path fill="currentColor"
d="M64 263l-16 28h635v79h-204q-88 0 -122 8q-35 7 -83 42q-24 18 -49 47l-114 -102l-3 -19q-2 -16 -10 -16q-6 0 -15 15l-32 56l136 66v170h-111l-12 28h119l22 33l58 -35q20 -12 20 -19t-17 -13l-16 -7v-140q53 -63 171 -65h521v-16q-39 -7 -47 -35h-169l29 -7
q17 -4 17 -15q0 -9 -17 -16l-10 -4v-35h85l40 48l79 -54v-22h-204v-136q0 -36 -25 -49q-26 -14 -54 -14q-7 0 -10 3q-3 2 -5 15q-3 18 -17 20l-69 12v17h118v132h-619zM96 927q144 -41 144 -106q0 -21 -14 -33q-10 -9 -21 -9q-6 0 -11 4q-7 4 -27 45q-29 52 -81 85zM307 247
q35 -13 69 -44q39 -35 39 -67q0 -24 -14 -35q-11 -9 -21 -9q-11 0 -23 12q-6 6 -20 54q-8 29 -43 79zM297 813l-17 28h173q-11 13 -32 57q-12 25 -52 50l9 16q52 -15 86 -38q45 -31 45 -60q0 -9 -8 -25h130l74 128l63 -41q15 -10 15 -16q0 -10 -23 -10h-15l-82 -61h146
l42 49l74 -59v-18h-301l-59 -80h195l19 32l60 -36q22 -13 22 -22q0 -8 -20 -15l-13 -4v-228l-62 -7v34h-332v-30l-59 -6v319l69 -37h89l17 80h-253zM434 564v-49h332v49h-332zM434 592h332v43h-332v-43zM434 705v-42h332v42h-332z" />
  </g>

</svg>
