<?xml version="1.0" standalone="no"?>
<!DOCTYPE svg PUBLIC "-//W3C//DTD SVG 1.1//EN" "http://www.w3.org/Graphics/SVG/1.1/DTD/svg11.dtd" >
<svg xmlns="http://www.w3.org/2000/svg" xmlns:xlink="http://www.w3.org/1999/xlink" version="1.1" viewBox="0 -120 1000 1000">
  <g transform="matrix(1 0 0 -1 0 880)">
   <path fill="currentColor"
d="M957 136q-34 -16 -40 -52h-356q-214 0 -290 67q-59 51 -97 125q-19 -59 -56 -126q-25 -45 -77 -98l-15 13q51 70 77 157q23 76 32 193l77 -17q19 -4 19 -13q0 -6 -14 -12l-16 -7q-9 -34 -18 -61q39 -57 79 -93v264h-198l-9 27h364l40 51l83 -61v-17h-219l-1 -132l81 1
l43 57l76 -67l1 -14h-200v-146q89 -28 179 -28h456zM129 550v386l64 -32h187l27 41l63 -41q7 -5 7 -13q0 -10 -12 -14l-12 -4v-295l-62 -12l-1 36l-200 -1v-40zM190 746v-121h201v121h-201zM190 880v-110h201v110h-201zM447 176q88 44 135 81q139 109 244 307l66 -50
q13 -9 13 -16q0 -6 -12 -8h-1l-27 1q-73 -100 -124 -156q-104 -112 -288 -175zM484 559q46 101 68 265l79 -24q14 -4 14 -13t-15 -12l-16 -4q-6 -16 -35 -88q-21 -53 -81 -141zM671 490l2 452l79 -9q18 -1 18 -11q0 -9 -13 -15l-23 -9v-409q0 -46 -45 -65q-6 -2 -31 -9
q-12 -3 -14 -3q-6 0 -8 10q-3 19 -5 23q-6 10 -26 15l-43 11l-1 19h110zM792 830q153 -111 153 -204q0 -31 -16 -46q-8 -9 -20 -9q-10 0 -16 7q-6 9 -24 80q-16 65 -93 160z" />
  </g>

</svg>
