<?xml version="1.0" standalone="no"?>
<!DOCTYPE svg PUBLIC "-//W3C//DTD SVG 1.1//EN" "http://www.w3.org/Graphics/SVG/1.1/DTD/svg11.dtd" >
<svg xmlns="http://www.w3.org/2000/svg" xmlns:xlink="http://www.w3.org/1999/xlink" version="1.1" viewBox="0 -120 1000 1000">
  <g transform="matrix(1 0 0 -1 0 880)">
   <path fill="currentColor"
d="M50 65q86 88 129 200q43 108 45 272v155h-166l-15 28h181v243l84 -8q16 -2 16 -16q0 -9 -15 -14l-23 -6v-199h148l44 54l73 -64v-18h-265q-1 -178 -9 -244q-14 -112 -38 -167q-39 -91 -109 -165q-41 -43 -70 -64zM324 908q113 -50 113 -105q0 -16 -11 -26q-9 -8 -21 -8
q-15 0 -24 25q-14 35 -24 51q-11 18 -42 50zM936 289l-14 -87q-2 -10 -2 -15q0 -26 11 -36q5 -6 25 -10q-4 -58 -109 -60h-471q-46 1 -47 56v528l75 -10q20 -2 20 -15q0 -10 -14 -15l-18 -7v-454q0 -18 5 -23q6 -6 26 -6l395 3q32 1 57 53l38 98h23zM433 189q131 45 259 135
q68 50 189 159l52 -47q13 -12 13 -19q0 -14 -13 -14q-6 0 -10 1l-19 7q-23 -16 -76 -56q-97 -73 -231 -131q-80 -34 -159 -54zM450 410q212 96 395 293l56 -52q11 -10 11 -17q0 -5 -5 -9t-10 -3l-3 1l-19 5q-102 -79 -249 -160q-119 -61 -170 -74zM855 867
q-201 -193 -374 -263l-8 17q173 100 351 323l54 -46q14 -12 14 -22q0 -15 -16 -12z" />
  </g>

</svg>
