<?xml version="1.0" standalone="no"?>
<!DOCTYPE svg PUBLIC "-//W3C//DTD SVG 1.1//EN" "http://www.w3.org/Graphics/SVG/1.1/DTD/svg11.dtd" >
<svg xmlns="http://www.w3.org/2000/svg" xmlns:xlink="http://www.w3.org/1999/xlink" version="1.1" viewBox="0 -410 2048 2048">
  <g transform="matrix(1 0 0 -1 0 1638)">
   <path fill="currentColor"
d="M1633 1844l68 76l84 -54q40 -26 40 -48q0 -28 -78 -62v-165l50 -35q13 -9 13 -22q0 -24 -35 -24h-1389q-1 -634 -34 -861q-36 -245 -125 -406q-38 -69 -113 -160l-31 29q125 200 167 465q40 246 40 640v506l-2 68q-2 82 -6 126l112 -73h1239zM386 1787v-219h1268v219
h-1268zM1127 861l95 -22q62 -14 62 -42q0 -26 -50 -42l-42 -13v-82h522l98 101l121 -107q17 -15 17 -25q0 -26 -27 -26h-731v-227q0 -102 12 -219q3 -31 3 -50q0 -46 -58 -46q-57 0 -57 42v500h-456l-102 -3q-29 0 -62 -5l-39 88q96 -23 195 -23h464v47q0 116 -4 154h-317
v-26q0 -30 -57 -30q-46 0 -46 35q0 8 3 29l4 49l3 53v247h-45q-116 0 -192 -8l-38 88q101 -24 218 -24h57v69q0 113 -9 159l110 -25q81 -19 81 -46q0 -22 -51 -40l-38 -15v-102h225v61q0 115 -8 160l104 -24q86 -20 86 -46q0 -23 -51 -42l-39 -14v-95h307v69q0 112 -6 138
l105 -26q86 -21 86 -45q0 -22 -52 -41l-40 -15v-80h144l98 102l121 -107q17 -15 17 -25q0 -26 -27 -26h-353v-122l37 -25q27 -18 27 -35q0 -23 -19 -23h-441q-26 -17 -56 -17q-40 0 -40 33v189h-225v-301h892l98 100l121 -106q17 -15 17 -25q0 -25 -28 -25h-744zM1088 1071
h307v147h-307v-147zM861 553l112 -69q38 -24 38 -43q0 -24 -46 -24h-51q-21 -16 -99 -78q-161 -130 -448 -210l-12 38q172 64 314 177q130 103 192 209zM1322 510q550 -170 550 -319q0 -33 -25 -52q-11 -8 -24 -8q-35 0 -96 70q-76 86 -234 182q-17 10 -187 94z" />
  </g>

</svg>
