<?xml version="1.0" standalone="no"?>
<!DOCTYPE svg PUBLIC "-//W3C//DTD SVG 1.1//EN" "http://www.w3.org/Graphics/SVG/1.1/DTD/svg11.dtd" >
<svg xmlns="http://www.w3.org/2000/svg" xmlns:xlink="http://www.w3.org/1999/xlink" version="1.1" viewBox="0 -140 1000 1000">
  <g transform="matrix(1 0 0 -1 0 860)">
   <path fill="currentColor"
d="M555 720l96 -18v-16l-33 -14v-501h74v749l99 -21v-12l-36 -19v-697h81v563l94 -21v-15l-32 -15v-602l-7 -10l-47 -12l-8 7v81h-218v-76l-7 -9l-44 -16l-11 8zM105 720l96 -18v-16l-33 -14v-501h77v749l98 -21v-12l-35 -19v-697h77v563l95 -21v-15l-33 -15v-602l-7 -10
l-47 -12l-8 7v81h-217v-76l-7 -9l-44 -16l-11 8z" />
  </g>

</svg>
