<?xml version="1.0" standalone="no"?>
<!DOCTYPE svg PUBLIC "-//W3C//DTD SVG 1.1//EN" "http://www.w3.org/Graphics/SVG/1.1/DTD/svg11.dtd" >
<svg xmlns="http://www.w3.org/2000/svg" xmlns:xlink="http://www.w3.org/1999/xlink" version="1.1" viewBox="0 -140 1000 1000">
  <g transform="matrix(1 0 0 -1 0 860)">
   <path fill="currentColor"
d="M624 927l100 -22v-12l-36 -15v-92h145l33 34h14l52 -63l-4 -13l-34 -6l-72 -109l-15 7l29 127h-367q-1 -56 -9.5 -86t-27.5 -54q-20 -23 -33 -23q-9 0 -16 11.5t-7 27.5q0 29 35 70q24 27 30 50.5t5 74.5l19 4q0 -3 2.5 -20.5l4.5 -31.5h152v141zM513 600l99 -20v-13
l-35 -17q-13 -203 -66 -304t-187 -183l-10 10q79 66 119.5 130t59 155.5t20.5 241.5zM158 744v-15l-34 -17v-435h49v655l100 -19v-15l-36 -19v-602h56v477l99 -18v-15l-35 -14v-491l-5 -11l-49 -12l-10 7v54h-169v-97l-6 -9l-49 -14l-9 7v622zM526 651v23h175l29 35h12
l51 -47l-5 -14l-37 -9q17 -227 87 -377q30 -64 49.5 -91.5t66.5 -76.5l-5 -9q-5 1 -18 1q-23 0 -52 -22q-86 122 -119 262.5t-41 324.5h-193z" />
  </g>

</svg>
