<?xml version="1.0" standalone="no"?>
<!DOCTYPE svg PUBLIC "-//W3C//DTD SVG 1.1//EN" "http://www.w3.org/Graphics/SVG/1.1/DTD/svg11.dtd" >
<svg xmlns="http://www.w3.org/2000/svg" xmlns:xlink="http://www.w3.org/1999/xlink" version="1.1" viewBox="0 -204 1024 1024">
  <g transform="matrix(1 0 0 -1 0 820)">
   <path fill="currentColor"
d="M164 928q55 -7 93 -20q13 -5 13 -16q0 -9 -13 -12q-17 -8 -43 -10v-626h73q1 16 1 26v420q0 53 -4 80q48 -9 80 -23q12 -4 12 -13t-10 -14q-15 -10 -30 -12v-512q0 -18 -30 -18q-22 0 -22 22q0 7 1 18h-193q-5 -14 -24 -14q-26 0 -26 26q0 11 2 32q2 19 2 36v392
q0 53 -4 80q49 -9 82 -23q10 -4 10 -13t-8 -14q-13 -10 -32 -12v-464h74v604q0 55 -4 80zM640 892q-37 -20 -74 -30v-202h155q-5 84 -5 172q0 95 -8 122q106 -20 106 -34q0 -16 -50 -32q0 -130 4 -228h90l48 56q38 -27 73 -56q7 -3 7 -10q0 -18 -14 -18h-202q3 -56 8 -101
q15 -130 41 -220q2 -6 3 -10q5 11 11 21q16 40 26 81q12 43 19 73q6 27 6 54q43 -11 65 -24q15 -5 15 -14q0 -6 -11 -10q-15 -5 -29 -8q-14 -46 -25 -86q-15 -47 -38 -98q-10 -23 -20 -44q19 -56 47 -98q11 -24 18 -24q4 0 7 10q33 79 55 154l18 -12q-28 -163 -28 -172
q0 -10 5 -24q9 -19 9 -34q0 -22 -22 -22q-13 0 -37 21q-28 24 -65 82q-22 33 -38 71q-15 -25 -37 -47q-21 -30 -50 -51q-31 -28 -69 -50l-14 14q44 35 74 67q29 28 53 60q13 25 29 47q-10 24 -17 45q-34 109 -48 245q-6 51 -8 104h-157v-171q45 23 102 57l4 -22
q-49 -41 -87 -63q-12 -7 -19 -13v-308q0 -34 -12 -50t-35 -27q-17 -11 -33 -11l-2 22q-2 9 -6 13q-9 11 -32 20q-23 12 -56 15v22q49 -14 88 -14q26 0 33 5q7 6 7 31v254q-6 -4 -11 -7q-35 -22 -73 -35q-9 -36 -14 -36q-8 0 -48 80q54 9 97 26q24 9 49 20v192h-40
q-69 -1 -94 -4l-20 44q43 -12 114 -12h40v182q-12 -5 -26 -9q-46 -12 -90 -19l-12 18q68 23 112 42q46 21 71 39q26 17 47 41q36 -24 63 -41q3 -4 3 -11q0 -10 -18 -10h-28zM862 914q28 -16 46 -34q25 -14 37 -30q16 -14 21 -24q6 -10 6 -22q0 -17 -5 -26q-10 -14 -21 -14
q-7 0 -10 6q-6 3 -10 18q-5 22 -18 41q-12 17 -24 36q-15 15 -36 37z" />
  </g>

</svg>
