<?xml version="1.0" standalone="no"?>
<!DOCTYPE svg PUBLIC "-//W3C//DTD SVG 1.1//EN" "http://www.w3.org/Graphics/SVG/1.1/DTD/svg11.dtd" >
<svg xmlns="http://www.w3.org/2000/svg" xmlns:xlink="http://www.w3.org/1999/xlink" version="1.1" viewBox="0 -410 2048 2048">
  <g transform="matrix(1 0 0 -1 0 1638)">
   <path fill="currentColor"
d="M415 1384h1205l69 69l72 -50q42 -29 42 -50q0 -16 -65 -52v-209l29 -21q23 -16 23 -29q0 -27 -15 -27h-1360q-1 -379 -67 -574q-73 -216 -265 -356l-25 27q159 158 210 378q50 220 50 521v296q-9 96 -9 113v33zM415 1071h1224v251h-1224v-251zM1089 209v370h-386
q-26 -17 -49 -17q-44 0 -44 37v166q0 118 -7 160l109 -24q86 -20 86 -45q0 -27 -50 -42l-42 -12v-169h383v181q0 119 -8 161l110 -24q85 -19 85 -45q0 -30 -49 -43l-42 -11v-219h390v125q0 118 -7 159l109 -24q85 -18 85 -44q0 -30 -49 -43l-43 -11v-162q0 -4 4 -34
q2 -10 2 -20q0 -39 -49 -39q-52 0 -52 31v8h-390v-370h485v150q0 120 -7 159l109 -24q86 -19 86 -45q0 -29 -50 -42l-41 -11v-171q9 -58 9 -67q0 -59 -56 -59q-50 0 -50 31v23h-1050q-26 -15 -42 -15q-60 0 -60 37v188q0 120 -8 159l110 -24q85 -18 85 -45q0 -29 -50 -42
l-41 -11l-4 -191h479zM1611 1635v121q-4 146 -7 160l109 -24q86 -19 86 -45q0 -29 -50 -42l-41 -11v-66l4 -49q8 -125 8 -127q0 -43 -61 -43q-48 0 -48 33v36h-1158q-15 -16 -45 -16q-43 0 -43 39v163q0 118 -7 160l109 -24q85 -19 85 -45q0 -29 -49 -42l-43 -12v-166h521
v186q0 118 -7 160l109 -24q85 -19 85 -45q0 -30 -49 -42l-42 -12v-223h534z" />
  </g>

</svg>
