<?xml version="1.0" standalone="no"?>
<!DOCTYPE svg PUBLIC "-//W3C//DTD SVG 1.1//EN" "http://www.w3.org/Graphics/SVG/1.1/DTD/svg11.dtd" >
<svg xmlns="http://www.w3.org/2000/svg" xmlns:xlink="http://www.w3.org/1999/xlink" version="1.1" viewBox="0 -204 1024 1024">
  <g transform="matrix(1 0 0 -1 0 820)">
   <path fill="currentColor"
d="M174 954q57 -7 95 -23q15 -6 15 -15q0 -7 -15 -11q-17 -9 -43 -13v-670h72v482q0 54 -2 82q47 -7 80 -23q10 -6 10 -15q0 -7 -8 -11q-13 -9 -32 -11v-574q0 -18 -28 -18q-22 0 -22 22q0 14 2 34v2h-214q-26 0 -26 26q0 12 2 30q2 22 2 36v420q0 54 -4 82q50 -7 81 -23
q13 -6 13 -15q0 -7 -11 -11q-13 -9 -29 -11v-504h66v650q0 54 -4 82zM470 942q33 -19 55 -37q29 -18 43 -33q20 -15 26 -29q4 -11 4 -21q0 -18 -3 -27q-8 -9 -21 -9q-8 0 -14 3t-9 22q-6 20 -21 42q-14 19 -28 36q-17 20 -42 39zM796 950q42 -21 68 -38q6 -4 6 -10t-10 -11
q-14 -5 -30 -7q-10 -14 -21 -30q-13 -18 -30 -30q-11 -13 -30 -29q-19 -12 -37 -25l-14 12q23 22 37 45q16 19 29 43q11 22 20 43q9 18 12 37zM402 770q44 -14 116 -14h352l40 40q31 -20 59 -42q7 -4 7 -10q0 -14 -12 -14h-216v-132h114l34 44q36 -24 51 -43q7 -9 7 -15
q0 -9 -34 -30v-354q0 -73 2 -96q2 -30 2 -46q0 -14 -12 -24q-14 -6 -20 -6q-22 0 -22 14v34h-392v-34q0 -14 -18 -14q-9 0 -24 6q-10 10 -10 24q0 16 3 46q5 23 5 96v374q0 39 -8 68l60 -44h97q1 8 2 17q3 42 3 115h-70q-69 -1 -94 -4zM478 104h392v263q-3 -2 -6 -2
q-19 -5 -70 -5q-52 0 -70 11q-22 12 -26 33v166h-71q-6 -45 -20 -81q-13 -43 -33 -72q-20 -32 -44 -57q-20 -19 -52 -40v-216zM748 570v-150q2 -18 46 -18q16 0 68 2q6 0 8 -1v167h-122zM698 598v132h-62q-1 -83 -6 -132h68zM478 348q18 14 29 27q13 20 28 41q13 27 23 57
q10 26 16 61q5 16 7 36h-103v-222zM514 252q44 -12 118 -12h92l44 48q36 -23 67 -49q9 -5 9 -9q0 -16 -14 -16h-198q-72 -1 -96 -6z" />
  </g>

</svg>
