<?xml version="1.0" standalone="no"?>
<!DOCTYPE svg PUBLIC "-//W3C//DTD SVG 1.1//EN" "http://www.w3.org/Graphics/SVG/1.1/DTD/svg11.dtd" >
<svg xmlns="http://www.w3.org/2000/svg" xmlns:xlink="http://www.w3.org/1999/xlink" version="1.1" viewBox="0 -204 1024 1024">
  <g transform="matrix(1 0 0 -1 0 820)">
   <path fill="currentColor"
d="M164 954q55 -7 93 -23q13 -6 13 -15q0 -7 -13 -11q-17 -9 -43 -13v-656h82v462q0 52 -4 80q48 -7 80 -23q12 -6 12 -13q0 -9 -10 -13q-15 -11 -32 -13v-538q0 -22 -28 -22q-22 0 -22 26q0 10 2 26h-211q-9 -8 -25 -8q-22 0 -22 26q0 11 2 32q2 19 2 34v412q0 54 -4 82
q48 -7 80 -23q12 -6 12 -15q0 -7 -10 -11q-15 -9 -32 -11v-490h82v636q0 54 -4 82zM368 832q34 -8 91 -10q1 20 1 45q0 58 -4 87q42 -5 73 -16q11 -5 11 -14q0 -4 -17 -9q-10 -3 -19 -5v-88h66v58q0 49 -4 74q47 -8 77 -16q11 -7 11 -14q0 -5 -8 -8q-11 -6 -26 -10v-84h70
v44q0 52 -4 80q45 -8 75 -18q9 -5 9 -12q0 -4 -6 -7q-11 -7 -26 -11v-76h70v132q41 -10 62 -15q18 -5 18 -15q0 -9 -18 -16q-16 -5 -16 -16v-70h26l40 44q30 -25 60 -46q6 -5 6 -10q0 -18 -10 -18h-122v-102q0 -18 43 -18q22 0 53 4q28 -1 30 -22q-2 -15 -22 -20
q-26 -6 -61 -6q-50 0 -69 14q-20 16 -20 40v110h-70v-101q15 -12 24 -19q6 -4 6 -8q0 -14 -8 -14h-136v-8q0 -32 -32 -32q-26 0 -26 14q0 15 2 35q2 23 2 39v94h-68q-1 -17 -5 -38q-8 -36 -21 -62q-14 -30 -32 -48q-18 -25 -60 -56l-12 18q29 27 46 58q13 24 22 53
q11 27 15 54q2 9 3 21q-50 -2 -72 -4zM690 676v116h-70v-90q0 -17 1 -26h69zM426 606h12v-48h458l28 30q32 -21 59 -50q3 -2 3 -6q0 -6 -17 -11q-17 -3 -31 -7q-10 -18 -27 -34q-15 -21 -31 -34l-18 10q14 22 22 38q8 20 12 36h-210v-126h137l29 38q36 -24 51 -43
q7 -7 7 -13q0 -11 -40 -32v-172q0 -35 -12 -52q-8 -18 -28 -26q-16 -10 -26 -10q0 21 -7 33q-6 13 -25 20q-17 11 -42 13v26q44 -16 80 -16q10 0 13 5q3 6 3 25v168l-2 8h-138v-260q0 -21 2 -29q2 -19 2 -29q0 -34 -32 -34q-22 0 -22 18q0 20 2 54q2 35 2 60v220h-130l-2 -8
v-270q0 -12 -22 -12q-8 0 -20 5q-10 9 -10 21q0 19 2 47q6 24 6 99v114q0 39 -8 70l50 -38h134v126h-203q-1 -14 -3 -30q-4 -26 -11 -47q-6 -15 -16 -25q-10 -12 -19 -16q-6 -4 -12 -4q-26 0 -26 18q0 8 11 20q26 29 38 49q13 21 20 45q7 25 7 66z" />
  </g>

</svg>
