<?xml version="1.0" standalone="no"?>
<!DOCTYPE svg PUBLIC "-//W3C//DTD SVG 1.1//EN" "http://www.w3.org/Graphics/SVG/1.1/DTD/svg11.dtd" >
<svg xmlns="http://www.w3.org/2000/svg" xmlns:xlink="http://www.w3.org/1999/xlink" version="1.1" viewBox="0 -410 2048 2048">
  <g transform="matrix(1 0 0 -1 0 1638)">
   <path fill="currentColor"
d="M1228 1181q125 42 203 75q113 47 240 143l79 -64q49 -40 49 -61q0 -27 -33 -27q-13 0 -42 8l-42 12q-65 -22 -97 -33q-127 -45 -263 -77l-37 -9q149 -82 339 -118q149 -29 358 -44v-38q-51 -5 -66 -15q-17 -11 -37 -57q-251 57 -351 93q-170 61 -334 169q25 -99 25 -150
q0 -127 -68 -184q-38 -32 -178 -60q-9 69 -42 89q-24 16 -134 39l6 40q32 -5 129 -20q64 -10 102 -10q45 0 66 32q19 28 19 106q0 30 -8 84q-256 -129 -459 -186q-214 -60 -455 -86l-11 37q579 113 893 323q-21 47 -54 90q-196 -118 -388 -178q-153 -48 -410 -88l-6 39
l60 15q259 63 418 132q127 54 270 152q-29 31 -64 62q-284 -169 -702 -232l-13 37q137 29 288 83q170 61 273 129h-378q-68 0 -149 -12l-38 86q125 -17 187 -17h1238l101 99l123 -99q14 -12 14 -27q0 -30 -31 -30h-859q138 -94 206 -212q32 -21 63 -40zM439 844l109 -24
q85 -19 85 -46q0 -26 -49 -42l-42 -13v-130h168l88 98l130 -98q15 -12 15 -27q0 -27 -24 -27h-377v-243q158 27 377 78l9 -40q-101 -37 -270 -84q-47 -13 -120 -33q-82 -24 -226 -57q-81 -20 -123 -29q-11 -57 -35 -57q-19 0 -45 57l-45 99q57 5 140 15q64 8 106 13
q80 10 136 18v263h-118q-108 0 -192 -8l-43 88q100 -26 235 -26h118v104q0 109 -7 151zM1375 602v70q0 118 -10 172l109 -24q86 -19 86 -46t-45 -37l-44 -10v-125h169l79 89l102 -79q28 -22 28 -38q0 -27 -22 -27h-356v-323h252l91 100l129 -100q16 -12 16 -27
q0 -27 -30 -27h-769q-116 0 -191 -8l-41 88q92 -26 232 -26h215v323h-119q-115 0 -190 -8l-40 88q97 -25 230 -25h119zM1633 1928l109 -24q86 -19 86 -46q0 -23 -50 -41l-39 -14v-52v-45l3 -59q0 -48 -54 -48q-47 0 -47 28v2h-1239q-21 -14 -44 -14q-50 0 -50 50v109
q0 112 -8 158l106 -24q88 -20 88 -44q0 -28 -48 -42l-40 -12v-125h567v137q0 116 -8 160l109 -24q85 -18 85 -46q0 -23 -49 -41l-39 -14v-172h570v89q0 114 -8 154z" />
  </g>

</svg>
