<?xml version="1.0" standalone="no"?>
<!DOCTYPE svg PUBLIC "-//W3C//DTD SVG 1.1//EN" "http://www.w3.org/Graphics/SVG/1.1/DTD/svg11.dtd" >
<svg xmlns="http://www.w3.org/2000/svg" xmlns:xlink="http://www.w3.org/1999/xlink" version="1.1" viewBox="0 -140 1000 1000">
  <g transform="matrix(1 0 0 -1 0 860)">
   <path fill="currentColor"
d="M888 890l58 -54v-13h-182v-72l-8 -17l-45 -6l-11 6v89h-117v-79l-6 -12l-43 -11l-14 11v91h-131v22h131v98l96 -13v-15l-33 -16v-54h117v95l99 -15v-15l-35 -20v-45h80l31 45h13zM870 734l56 -40v-18l-25 -22v-97l-5 -12l-48 -12l-9 5v27h-89v-22l-7 -10l-49 -9l-9 6v202
l59 -24h87l26 26h13zM616 734l53 -38v-16l-23 -26v-116l-7 -11l-46 -12l-10 6v44h-101v-35l-6 -15l-46 -18l-10 9v235l58 -33h101l24 26h13zM507 544l82 -41l-4 -13l-33 -3q-8 -15 -29 -61h142l19 98l77 -29l-1 -13l-33 -6l-31 -50h148l33 40h11l46 -47v-16h-214v-84h90
l26 41h15l48 -48v-15h-179v-83h92l32 43h16l51 -52v-13h-191v-83h137l39 44h12l52 -51v-15h-437l1 -19l-7 -11l-47 -11l-9 5v275q-31 -36 -72 -74l-8 10q84 146 126 282zM750 588h89v97h-89v-97zM482 588h101v97h-101v-97zM524 319h133v84h-134zM524 215h133v82h-133v-82z
M524 109h133v83h-133v-83zM133 287h57v645l100 -20v-15l-36 -18v-592h49v467l99 -19v-15l-35 -13v-481l-5 -11l-49 -12l-10 7v54h-170v-97l-5 -9l-49 -14l-9 7v609l98 -20v-15l-35 -18v-420z" />
  </g>

</svg>
