<?xml version="1.0" standalone="no"?>
<!DOCTYPE svg PUBLIC "-//W3C//DTD SVG 1.1//EN" "http://www.w3.org/Graphics/SVG/1.1/DTD/svg11.dtd" >
<svg xmlns="http://www.w3.org/2000/svg" xmlns:xlink="http://www.w3.org/1999/xlink" version="1.1" viewBox="0 -204 1024 1024">
  <g transform="matrix(1 0 0 -1 0 820)">
   <path fill="currentColor"
d="M169 940q77 -33 77 -48q0 -11 -42 -12q-24 -31 -63 -66q-28 -29 -62 -56q20 1 48 4q44 2 95 15l5 7q25 43 40 84q77 -33 77 -48q0 -11 -42 -12q-39 -51 -102 -108q-50 -53 -111 -102q31 2 82 8q58 3 129 23q-4 11 -10 21q-9 17 -26 37l17 13q19 -16 35 -32q17 -15 27 -29
q11 -14 15 -25q4 -10 4 -20q0 -19 -5 -30q-9 -12 -21 -12q-5 0 -8 4q-4 3 -7 19t-10 32q-85 -34 -195 -55q-16 -37 -22 -37t-10 8q-13 32 -24 71v2h2q62 59 99 103q20 22 36 43q-45 -16 -98 -26q-15 -34 -20 -34t-9 8q-12 28 -22 66h4q35 40 56 69q23 31 38 58q15 29 23 57z
M69 484q20 -18 37 -36q17 -16 28 -32q12 -16 16 -28q4 -11 4 -22q0 -19 -5 -30q-9 -12 -21 -12q-5 0 -9 5q-4 3 -7 20q-4 22 -13 43q-9 20 -19 39q-10 18 -28 40zM177 504q21 -15 38 -31q19 -14 30 -28q13 -13 17 -24q4 -9 4 -19q0 -19 -5 -30q-9 -12 -21 -12q-6 0 -9 4
q-5 3 -8 19q-4 19 -14 37q-9 19 -20 35q-10 16 -29 36zM276 532q20 -14 36 -28q18 -13 28 -26q12 -12 16 -22q4 -8 4 -17q0 -18 -5 -27q-8 -12 -19 -12q-5 0 -9 4q-4 3 -7 17q-4 17 -13 34t-19 32t-28 33zM462 960q19 -11 34 -22q16 -11 26 -21q11 -10 14 -17q4 -7 4 -14
q0 -21 -6 -32h54l35 36q29 -21 55 -41q6 -4 6 -9q0 -14 -12 -14h-203q-71 -2 -97 -7l-20 47q44 -12 117 -12h30q-1 2 -1 4q-4 16 -12 31t-17 28t-25 29zM384 770q44 -12 117 -12h51l35 36q29 -21 55 -41q6 -4 6 -9q0 -14 -12 -14h-135q-71 -2 -97 -7zM392 674
q44 -12 117 -12h35l35 36q29 -21 55 -41q6 -4 6 -9q0 -14 -12 -14h-119q-71 -2 -97 -7zM390 580l63 -30h107l35 33q51 -36 51 -50q0 -10 -30 -25v-90l16 -12q4 -3 4 -6q0 -14 -8 -14h-188q0 -10 -12 -16q-15 -6 -25 -6q-13 0 -13 14q0 4 1 14q1 23 1 42v78q0 49 -2 68z
M440 414h128v108h-128v-108zM779 952q77 -33 77 -48q0 -11 -42 -12q-24 -34 -62 -74q-29 -34 -63 -65l55 5q41 2 90 13l7 9q27 43 42 84q77 -33 77 -48q0 -11 -42 -12q-41 -51 -106 -108q-53 -53 -116 -102q31 2 80 8q61 4 134 26l-10 18q-10 17 -28 37l17 13q20 -16 37 -32
q17 -15 28 -29q12 -14 16 -25q4 -10 4 -20q0 -19 -5 -30q-9 -12 -21 -12q-5 0 -9 4q-4 3 -7 19q-4 19 -11 35q-89 -36 -201 -58q-16 -37 -22 -37t-10 8q-13 32 -24 73h4q65 59 103 103q20 21 36 41q-44 -15 -94 -24q-15 -34 -20 -34t-9 8q-12 28 -22 64v2h2q34 43 55 75
q23 33 37 63q15 32 23 62zM681 488q19 -17 35 -35q17 -16 27 -31q11 -15 15 -27q4 -10 4 -21q0 -19 -5 -30q-9 -12 -21 -12q-5 0 -8 4q-4 4 -7 21q-4 21 -13 41q-8 20 -18 38q-9 18 -26 39zM785 508q21 -16 38 -32q19 -15 30 -29q13 -14 17 -25q4 -10 4 -20q0 -19 -5 -30
q-9 -12 -21 -12q-6 0 -9 4q-5 3 -8 19q-4 20 -14 39q-9 19 -20 36q-10 17 -29 37zM881 532q23 -15 42 -30q20 -14 32 -27q14 -13 19 -23q4 -9 4 -18q0 -19 -5 -30q-9 -12 -21 -12q-6 0 -10 4q-5 3 -8 18q-6 19 -16 37q-10 17 -22 33t-32 35zM478 324q59 -7 97 -23
q13 -4 13 -14t-13 -13q-19 -10 -43 -12v-184h282q1 2 1 5q1 19 1 34v87q0 53 -6 80q51 -8 84 -23q12 -6 12 -15q0 -10 -10 -13q-14 -11 -32 -12v-104q0 -27 2 -36v-35q0 -22 -30 -22q-24 0 -24 26h-617q-8 -6 -23 -6q-24 0 -24 27q0 12 3 32q1 19 1 34v79q0 53 -6 80
q51 -8 84 -23q12 -6 12 -15q0 -10 -10 -13q-14 -11 -32 -12v-96q0 -27 2 -36v-23h282v166q0 54 -6 80z" />
  </g>

</svg>
