<?xml version="1.0" standalone="no"?>
<!DOCTYPE svg PUBLIC "-//W3C//DTD SVG 1.1//EN" "http://www.w3.org/Graphics/SVG/1.1/DTD/svg11.dtd" >
<svg xmlns="http://www.w3.org/2000/svg" xmlns:xlink="http://www.w3.org/1999/xlink" version="1.1" viewBox="0 -204 1024 1024">
  <g transform="matrix(1 0 0 -1 0 820)">
   <path fill="currentColor"
d="M54 786l62 -44h80v138q0 54 -6 80q59 -5 96 -20q12 -7 12 -16t-12 -11q-20 -9 -42 -11v-160h84l30 44q36 -24 54 -43q8 -7 8 -13q0 -11 -40 -32v-380q0 -36 -12 -52q-12 -18 -28 -27t-30 -9q0 21 -7 33t-28 20q-15 8 -31 11v-190q0 -23 2 -30q2 -16 2 -28q0 -32 -34 -32
q-24 0 -24 14q0 23 4 57q2 33 2 61v566h-88v-476q0 -10 -22 -10q-7 0 -20 5q-12 7 -12 21q0 19 3 48q5 22 5 98v318q0 39 -8 70zM244 712v-395q42 -11 74 -11q11 0 14 5q4 6 4 25v376h-92zM464 756l58 -30h314l26 30q52 -30 52 -44q0 -10 -26 -26v-209q13 -12 25 -21
q7 -4 7 -8q0 -14 -10 -14h-136v-304q0 -16 5 -25q3 -8 16 -12q13 -3 50 -3q24 0 47 3q7 2 11 10q4 5 6 24q5 22 11 109l16 -4q2 -42 2 -86q0 -17 6 -28q8 -13 24 -18q8 -4 8 -14q0 -5 -3 -12q-5 -9 -19 -14q-15 -8 -42 -10q-30 -4 -55 -4q-47 0 -71 4q-21 1 -33 9
q-15 4 -21 18q-6 15 -6 25v332h-87q-6 -79 -15 -123q-12 -41 -27 -79q-19 -45 -44 -80q-27 -32 -67 -64q-41 -32 -100 -64l-6 22q50 30 82 61q30 26 51 59q23 32 39 69q11 39 19 80q11 45 16 119h-75v-14q0 -9 -12 -14q-17 -4 -26 -4q-10 0 -10 10v344zM512 460h328v238
h-328v-238zM814 954q42 -21 72 -39q6 -3 6 -9t-10 -10q-18 -6 -30 -8q-11 -19 -26 -41q-14 -20 -28 -37q-16 -20 -34 -38q-20 -19 -40 -34l-12 10q22 31 39 55q17 27 28 54q16 27 25 52q7 23 10 45zM512 954q29 -29 50 -56q24 -27 35 -45q13 -20 19 -31q6 -12 9 -25
q3 -10 3 -19q-1 -34 -26 -34q-4 0 -7 5q-4 6 -17 46q-16 40 -31 73q-19 33 -47 74z" />
  </g>

</svg>
