<?xml version="1.0" standalone="no"?>
<!DOCTYPE svg PUBLIC "-//W3C//DTD SVG 1.1//EN" "http://www.w3.org/Graphics/SVG/1.1/DTD/svg11.dtd" >
<svg xmlns="http://www.w3.org/2000/svg" xmlns:xlink="http://www.w3.org/1999/xlink" version="1.1" viewBox="0 -120 1000 1000">
  <g transform="matrix(1 0 0 -1 0 880)">
   <path fill="currentColor"
d="M32 536h212v299h-172l-14 27h314l40 53l82 -65v-15h-184v-299h70l51 56l75 -59v-24h-196v-440l-66 -10v450h-200zM547 509l-13 27h126v301h-110l-13 26h273l43 54l77 -62v-18h-203v-301h111l50 60l74 -65v-22h-235v-434l-67 -9v443h-113z" />
  </g>

</svg>
