<?xml version="1.0" standalone="no"?>
<!DOCTYPE svg PUBLIC "-//W3C//DTD SVG 1.1//EN" "http://www.w3.org/Graphics/SVG/1.1/DTD/svg11.dtd" >
<svg xmlns="http://www.w3.org/2000/svg" xmlns:xlink="http://www.w3.org/1999/xlink" version="1.1" viewBox="0 -200 1000 1000">
  <g transform="matrix(1 0 0 -1 0 800)">
   <path fill="currentColor"
d="M349 714l67 -48q45 9 96 20t100.5 24t94.5 28.5t79 33.5l46 -78h-54l-146 -24q-2 -38 -2.5 -66.5t-0.5 -49.5q0 -32 1.5 -52.5t3.5 -37.5l166 16l43 46l75 -62l-281 -28q9 -74 31 -131.5t48.5 -99t52 -68t41.5 -38.5q7 -6 15 -6q16 0 32.5 19t31 42t24 44t10.5 24l9 1
q-23 -60 -32 -96t-9 -58q0 -20 5 -30t12 -17.5t13 -15t8 -20.5q0 -4 -5 -4q-3 0 -8 0.5t-13 0.5q-53 13 -102.5 44.5t-91.5 85.5t-74.5 132t-50.5 183l-180 -16v-304q40 13 69.5 22t54 16t46.5 14t48 16l6 -7q-54 -28 -98.5 -50t-81 -40.5t-67.5 -36t-58 -37.5l-59 54l85 34
v621zM404 617v-177l175 17q-2 42 -4 83.5t-2 80.5v21.5t1 21.5l-156 -13zM649 -15q-16 -22 -28 -22q-13 0 -15.5 12.5t-6 34t-14 49t-38.5 57.5h3q31 -15 51 -29t31 -27.5t15.5 -26t4.5 -24.5q0 -14 -3 -24zM263 723l-9 -296q-8 -93 -18.5 -162.5t-30.5 -123t-52.5 -95
t-84.5 -78.5l-5 12q44 44 69.5 101t39 123t18 138.5t6.5 147.5l7 326h-1l-57 -12l-19 34h411v44l-13 87l92 -32l-21 -65v-34h220l53 48l78 -70h-700l41 -30z" />
  </g>

</svg>
