<?xml version="1.0" standalone="no"?>
<!DOCTYPE svg PUBLIC "-//W3C//DTD SVG 1.1//EN" "http://www.w3.org/Graphics/SVG/1.1/DTD/svg11.dtd" >
<svg xmlns="http://www.w3.org/2000/svg" xmlns:xlink="http://www.w3.org/1999/xlink" version="1.1" viewBox="0 -410 2048 2048">
  <g transform="matrix(1 0 0 -1 0 1638)">
   <path fill="currentColor"
d="M1268 1019h332l96 109l134 -102q26 -20 26 -39q0 -27 -34 -27h-540q58 -272 163 -425q94 -135 191 -200q66 -45 100 -45q25 0 41 36q19 41 119 336l40 -17q-84 -331 -84 -376q0 -30 33 -71q9 -11 9 -24t-12 -24q-17 -16 -42 -16q-154 0 -336 168q-257 239 -324 658h-532
v-611q313 80 501 168l16 -34q-142 -93 -240 -138q-80 -36 -263 -98l-9 -47q-9 -45 -27 -45q-12 0 -30 40l-59 130l13 4v941l-3 69q-3 68 -10 121l120 -80q230 9 493 64q282 60 450 150l88 -88q27 -28 27 -52t-30 -24q-5 0 -11 2l-68 19q-31 -9 -46 -13q-146 -40 -318 -68
q1 -28 5 -145q2 -66 21 -206zM1166 1019q-21 160 -23 339q-131 -18 -495 -37v-302h518zM792 135l-38 88q94 -22 230 -22h314l88 96l113 -92q32 -26 32 -41q0 -21 -27 -21h-520q-108 0 -192 -8zM919 1987q100 -58 138 -91q65 -56 65 -103q0 -44 -38 -70h603l109 114l131 -114
q23 -20 23 -33q0 -25 -27 -25h-1573v-561q0 -212 -30 -454q-31 -252 -102 -396q-43 -87 -126 -184l-36 26q78 116 108 215q91 296 91 819v398q0 92 -7 267l118 -72h664q-13 26 -26 72q-15 53 -58 102q-3 4 -32 35l-22 24z" />
  </g>

</svg>
