<?xml version="1.0" standalone="no"?>
<!DOCTYPE svg PUBLIC "-//W3C//DTD SVG 1.1//EN" "http://www.w3.org/Graphics/SVG/1.1/DTD/svg11.dtd" >
<svg xmlns="http://www.w3.org/2000/svg" xmlns:xlink="http://www.w3.org/1999/xlink" version="1.1" viewBox="0 -120 1000 1000">
  <g transform="matrix(1 0 0 -1 0 880)">
   <path fill="currentColor"
d="M39 66q84 121 84 340v443l69 -38h280v151l86 -10q22 -3 22 -14q0 -9 -15 -17l-28 -15v-95h275l46 58l90 -65v-21h-761v-387q0 -105 -47 -210q-33 -69 -87 -134zM211 401q64 80 107 156q68 123 84 203l82 -35q15 -7 15 -19q0 -11 -22 -16l-27 -7q-9 -16 -18 -30
q-37 -66 -63 -100l29 -11q13 -5 13 -13q0 -7 -9 -12l-16 -10v-442l-60 -8v434q-6 -7 -13 -14q-61 -67 -90 -91zM431 586h301v169l86 -10q16 -2 16 -14q0 -9 -10 -16l-25 -17v-112h30l43 53l81 -61v-20h-154v-424q0 -24 -16 -45q-10 -12 -41 -21q-24 -7 -38 -7q-11 0 -11 15
q-2 31 -25 34l-69 11v22h133v415h-288zM480 464q71 -25 99 -45q29 -22 47 -52q15 -25 15 -48q0 -22 -15 -36q-10 -9 -22 -9q-7 0 -14 5q-10 7 -24 44q-18 47 -57 96q-14 18 -37 34z" />
  </g>

</svg>
