<?xml version="1.0" standalone="no"?>
<!DOCTYPE svg PUBLIC "-//W3C//DTD SVG 1.1//EN" "http://www.w3.org/Graphics/SVG/1.1/DTD/svg11.dtd" >
<svg xmlns="http://www.w3.org/2000/svg" xmlns:xlink="http://www.w3.org/1999/xlink" version="1.1" viewBox="0 -410 2048 2048">
  <g transform="matrix(1 0 0 -1 0 1638)">
   <path fill="currentColor"
d="M985 1989q128 -60 159 -90q35 -34 35 -72q0 -35 -41 -66h582l108 114l131 -114q23 -20 23 -33q0 -25 -27 -25h-1661v-584q0 -387 -51 -630q-42 -201 -162 -385l-33 18q93 206 121 411q29 219 29 628v406q0 18 -7 159q-2 36 -4 107l117 -72h791q-13 20 -25 56
q-19 65 -111 141zM1345 548l71 76l101 -79q20 -16 20 -32q0 -23 -31 -23h-547q-117 0 -191 -8l-39 88q97 -22 230 -22h386zM1676 1473l113 116l131 -113q23 -20 23 -33q0 -27 -32 -27h-583v-272h327l68 76l83 -54q40 -26 40 -49q0 -27 -78 -62v-674q0 -71 7 -210
q1 -10 1 -21q0 -64 -65 -64q-38 0 -38 26v84h-1098v-89q-5 -34 -48 -34q-51 0 -51 51l8 282v613q-3 109 -12 214l115 -89h325v272h-320q-115 0 -192 -8l-39 88q96 -23 231 -23h1084zM575 254h1098v480q-131 -10 -224 -10q-147 0 -186 32q-31 25 -31 89v244h-224
q-13 -116 -31 -160q-75 -191 -391 -312l-11 26v-389zM1328 1089v-194q0 -51 20 -63q24 -16 113 -16q119 0 212 6v267h-345zM1232 1144v272h-224v-272h224zM575 662q202 99 275 214q46 74 58 213h-333v-427z" />
  </g>

</svg>
