<?xml version="1.0" standalone="no"?>
<!DOCTYPE svg PUBLIC "-//W3C//DTD SVG 1.1//EN" "http://www.w3.org/Graphics/SVG/1.1/DTD/svg11.dtd" >
<svg xmlns="http://www.w3.org/2000/svg" xmlns:xlink="http://www.w3.org/1999/xlink" version="1.1" viewBox="0 -410 2048 2048">
  <g transform="matrix(1 0 0 -1 0 1638)">
   <path fill="currentColor"
d="M982 1977l54 -30q178 -98 178 -187q0 -34 -36 -61h534l108 114l131 -114q23 -20 23 -33q0 -26 -27 -26h-1567v-500q0 -386 -65 -636q-66 -254 -230 -442l-28 22q134 218 177 438q51 266 51 598v459q0 39 -7 192l114 -72h736q-14 24 -32 73q-20 55 -137 175zM789 1251v156
q0 117 -8 160l109 -24q86 -19 86 -45q0 -29 -50 -42l-41 -11v-194h527v147q0 113 -8 159l109 -21q89 -17 89 -49q0 -25 -49 -42l-45 -15v-179h196l108 114l131 -114q23 -20 23 -31q0 -25 -27 -25h-431v-384q82 -52 82 -80q0 -22 -24 -22h-681v-27q0 -38 -63 -38
q-41 0 -41 43l1 27q7 156 7 195v286h-142q-116 0 -191 -8l-39 88q97 -24 230 -24h142zM885 767h527v428h-527v-428zM606 556l37 -11q-32 -199 -81 -295q-78 -153 -164 -153q-53 0 -53 52q0 21 16 42q6 9 71 54q118 83 174 311zM919 549q99 -186 99 -334q0 -104 -68 -104
q-40 0 -40 48q0 14 7 93q2 26 2 56q0 86 -34 232zM1272 552q197 -227 197 -363q0 -44 -30 -63q-13 -7 -26 -7q-22 0 -36 19q-19 25 -35 141q-6 44 -46 143q-22 56 -56 108zM1641 560q310 -229 310 -387q0 -69 -52 -69q-43 0 -63 72q-51 190 -220 354z" />
  </g>

</svg>
