<?xml version="1.0" standalone="no"?>
<!DOCTYPE svg PUBLIC "-//W3C//DTD SVG 1.1//EN" "http://www.w3.org/Graphics/SVG/1.1/DTD/svg11.dtd" >
<svg xmlns="http://www.w3.org/2000/svg" xmlns:xlink="http://www.w3.org/1999/xlink" version="1.1" viewBox="0 -120 1000 1000">
  <g transform="matrix(1 0 0 -1 0 880)">
   <path fill="currentColor"
d="M40 73q100 165 96 407v388l78 -34h259v124l75 -7q27 -3 27 -16q0 -10 -21 -16l-17 -5v-80h286l49 58l80 -65v-21h-430l45 -17q13 -5 13 -11q0 -5 -9 -9l-11 -4v-53h158l25 43l54 -39q16 -12 16 -22q0 -9 -12 -16l-13 -7v-74h33l49 57l85 -67v-18h-167v-142l-63 -10v27
h-134q45 -78 104 -137q69 53 139 125l61 -54q10 -8 10 -17t-12 -9q-5 0 -10 1l-26 6q-59 -32 -145 -67q67 -60 95 -77q47 -30 142 -65l-4 -16q-9 1 -15 1q-41 0 -58 -43q-99 55 -173 133q-79 88 -139 217v-312q0 -35 -33 -51q-35 -18 -49 -18q-12 0 -15 17q-2 18 -9.5 24
t-33.5 10l-48 8v22h125v302h-224l-12 28h236v97h-295q0 -121 -5 -176q-10 -121 -60 -209q-50 -92 -79 -119zM202 597h295v87h-223l-13 28h236v94h-295v-209zM560 569v-97h165v97h-165zM560 684v-87h165v87h-165zM477 283q-107 -73 -227 -137v-16q0 -15 -10 -15q-4 0 -11 8
l-49 62q132 44 289 116zM279 416q63 -14 100 -42q28 -22 28 -49q0 -15 -11 -26q-7 -7 -16 -7q-13 0 -25 12q-4 4 -24 36q-27 36 -61 59z" />
  </g>

</svg>
