<?xml version="1.0" standalone="no"?>
<!DOCTYPE svg PUBLIC "-//W3C//DTD SVG 1.1//EN" "http://www.w3.org/Graphics/SVG/1.1/DTD/svg11.dtd" >
<svg xmlns="http://www.w3.org/2000/svg" xmlns:xlink="http://www.w3.org/1999/xlink" version="1.1" viewBox="0 -410 2048 2048">
  <g transform="matrix(1 0 0 -1 0 1638)">
   <path fill="currentColor"
d="M454 1449q-2 81 -16 138l122 -88h211l67 81l91 -76q36 -29 36 -45q0 -32 -89 -53q-31 -63 -181 -322q61 -41 129 -126q91 -113 91 -272q0 -115 -74 -186q-51 -49 -135 -63q-3 52 -22 74q-26 31 -100 55l8 34q96 -30 130 -30q95 0 95 142q0 207 -175 366q51 104 137 363
h-233v-1066q0 -61 10 -181q4 -42 4 -62q0 -61 -60 -61q-46 0 -46 50v1328zM974 1977q116 -61 150 -92q39 -37 39 -77q0 -33 -35 -63h592l102 111l125 -107q27 -23 27 -38q0 -24 -30 -24h-1612v-568q0 -131 -23 -383q-24 -247 -75 -395q-38 -108 -86 -179q-20 -31 -69 -95
l-31 26q109 176 148 456q38 269 38 597v401q0 65 -6 270l111 -72h739q-7 17 -10 26q-21 63 -41 92q-25 35 -75 84zM1323 1654l150 -45q34 -11 34 -28q0 -18 -23 -25l-45 -14q114 -141 289 -252q134 -85 263 -110v-40q-20 2 -32 2q-59 0 -95 -68q-154 83 -263 190
q-98 97 -208 266q-92 -158 -206 -264q116 -14 142 -14h68l79 72l84 -72q24 -21 24 -32q0 -23 -36 -23h-247l-79 -8q-20 -1 -31 -3l-25 59q-140 -119 -304 -190l-17 34q19 13 28 19q351 238 450 546zM1757 582l95 103l121 -107q17 -16 17 -26q0 -27 -28 -27h-585
q-79 -96 -160 -176q0 -1 -127 -111q54 7 283 28q49 4 310 42q-66 79 -123 134l27 31q65 -44 149 -110q132 -104 132 -194q0 -65 -50 -65q-17 0 -30 11q-14 13 -39 79q-12 33 -43 80q-283 -69 -610 -124l-11 -42q-5 -19 -22 -19t-31 27l-58 113q47 14 120 98q87 101 148 198
h-100q-108 0 -192 -8l-38 88q96 -23 230 -23h615zM1541 1042l61 69l95 -77q27 -21 27 -37q0 -21 -31 -27l-61 -11q-15 -18 -134 -150h148l96 101l120 -107q17 -15 17 -25q0 -27 -27 -27h-653q-118 0 -192 -8l-38 88q99 -22 230 -22h231q49 75 103 176h-261q-116 0 -192 -8
l-38 88q96 -23 230 -23h269z" />
  </g>

</svg>
