<?xml version="1.0" standalone="no"?>
<!DOCTYPE svg PUBLIC "-//W3C//DTD SVG 1.1//EN" "http://www.w3.org/Graphics/SVG/1.1/DTD/svg11.dtd" >
<svg xmlns="http://www.w3.org/2000/svg" xmlns:xlink="http://www.w3.org/1999/xlink" version="1.1" viewBox="0 -140 1000 1000">
  <g transform="matrix(1 0 0 -1 0 860)">
   <path fill="currentColor"
d="M74 62l-12 7q40 89 56.5 206t16.5 333q0 130 -4 273l76 -32h293v86l93 -17v-13l-30 -20v-36h261l44 47h13l60 -54v-14h-744q1 -41 1 -141q0 -127 -3.5 -204t-24.5 -182t-61 -184q-7 -12 -35 -55zM194 266l-4 13q120 40 197 90t158 142l74 -37l-8 -16l-29 -1
q83 -59 157.5 -84t201.5 -37v-14q-26 -9 -37.5 -18.5t-23.5 -32.5q-108 34 -171.5 69t-140.5 105q-89 -76 -168.5 -114t-205.5 -65zM630 328h-37q-87 -52 -160.5 -77.5t-192.5 -44.5l-5 12q122 33 186 65.5t142 100.5l69 -46zM735 262l-45 -3q-113 -64 -208.5 -91.5
t-241.5 -38.5l-8 13q153 25 248 64t191 116l69 -48zM229 48l-6 15q186 12 319.5 51.5t280.5 125.5l82 -47l-8 -13h-49q-22 -12 -66.5 -30t-121 -43.5t-179.5 -42.5t-204 -17q-34 0 -48 1zM763 755l35 35h14l61 -50v-15l-27 -16v-207l-10 -8l-44 -10l-10 5v97
q-67 -59 -174 -97l-8 11q109 55 182 147v48q-73 -64 -206 -108l-6 14q67 26 106.5 54.5t75.5 75.5h-182v24h193zM424 755l35 35h14l61 -50v-15l-27 -16v-207l-10 -8l-44 -10l-10 6v96q-65 -60 -189 -114l-8 13q127 71 197 162v48q-39 -36 -76 -57t-121 -57l-5 13
q73 41 103 65t69 72h-167v24h178z" />
  </g>

</svg>
