<?xml version="1.0" standalone="no"?>
<!DOCTYPE svg PUBLIC "-//W3C//DTD SVG 1.1//EN" "http://www.w3.org/Graphics/SVG/1.1/DTD/svg11.dtd" >
<svg xmlns="http://www.w3.org/2000/svg" xmlns:xlink="http://www.w3.org/1999/xlink" version="1.1" viewBox="0 -410 2048 2048">
  <g transform="matrix(1 0 0 -1 0 1638)">
   <path fill="currentColor"
d="M1299 1544v241q0 123 -8 160l109 -24q86 -19 86 -46t-50 -42l-41 -11v-278h306l68 76l83 -54q41 -27 41 -48q0 -28 -78 -62v-724q0 -80 12 -214q1 -6 1 -14q0 -54 -71 -54q-36 0 -36 26v75h-744v-75q0 -36 -49 -36q-63 0 -59 55l4 62l4 79l4 76v746l-4 74q-5 67 -10 102
l122 -90h310zM1395 1088h326v399h-326v-399zM1395 1032v-421h326v421h-326zM1299 1088v399h-322v-399h322zM1299 1032h-322v-421h322v421zM511 1829l68 76l91 -76q25 -21 25 -41q0 -14 -21 -28q-26 -18 -68 -22q-131 -301 -282 -553h237l66 84l87 -58q37 -25 37 -47
q0 -26 -73 -59q-41 -269 -102 -431q-38 -103 -115 -231q86 -90 256 -144q173 -56 539 -66l143 -4q341 0 586 47l5 -38q-48 -12 -70 -31q-23 -21 -26 -72q-144 0 -248 -3q-142 -5 -175 -5q-258 0 -472 18q-379 31 -583 226q-124 -159 -314 -288l-28 33q165 135 280 316
q-115 140 -210 410l38 20q15 -38 94 -188q56 -106 123 -171q129 213 184 625h-283q-28 -8 -45 -8q-58 0 -58 28q0 10 10 25q149 229 304 597h-201q-118 0 -192 -8l-39 88q96 -21 231 -21h201z" />
  </g>

</svg>
