<?xml version="1.0" standalone="no"?>
<!DOCTYPE svg PUBLIC "-//W3C//DTD SVG 1.1//EN" "http://www.w3.org/Graphics/SVG/1.1/DTD/svg11.dtd" >
<svg xmlns="http://www.w3.org/2000/svg" xmlns:xlink="http://www.w3.org/1999/xlink" version="1.1" viewBox="0 -140 1000 1000">
  <g transform="matrix(1 0 0 -1 0 860)">
   <path fill="currentColor"
d="M628 583v260l-194 1v23h373l47 58h14l65 -66v-15h-241v-261h139l42 54h17l62 -61v-15h-260v-423q0 -46 -15 -58t-98 -33l-10 6v32l-87 41l2 11l95 -9q49 -4 49 36v397h-230v22h230zM279 867l32 37h16l57 -51v-17l-28 -17v-204l-4 -12l-51 -13l-8 6l-1 28h-143l-25 -156
h160l36 39h18l50 -54v-18l-32 -10q-6 -218 -25 -280q-25 -84 -134 -95l-10 5l-7 30l-88 44l3 12l90 -11q22 -2 33 -2q34 0 48 28t18 107l2 34q5 84 6 148h-170l-12 -38l-13 -6l-35 -3l-8 6l41 282l65 -39h132v197h-198v23h185z" />
  </g>

</svg>
