<?xml version="1.0" standalone="no"?>
<!DOCTYPE svg PUBLIC "-//W3C//DTD SVG 1.1//EN" "http://www.w3.org/Graphics/SVG/1.1/DTD/svg11.dtd" >
<svg xmlns="http://www.w3.org/2000/svg" xmlns:xlink="http://www.w3.org/1999/xlink" version="1.1" viewBox="0 -140 1000 1000">
  <g transform="matrix(1 0 0 -1 0 860)">
   <path fill="currentColor"
d="M60 591v21h519l28 94h-304l-15 -37l-15 -10l-47 -6l-7 7l113 273l86 -29l-5 -14l-35 -11l-12 -21h276l33 29h16l54 -50l-4 -15l-40 -17l-57 -193h183l45 47h16l60 -53v-15h-396q32 -92 77 -169q73 36 115 65t100 83l71 -58l-5 -12l-41 1q-98 -50 -232 -98
q65 -95 130.5 -151t174.5 -111l-4 -14q-34 -2 -50 -9.5t-34 -28.5q-131 103 -207.5 221t-116.5 281h-55l-50 -49q101 -86 142 -155t41 -153q0 -161 -182 -184l-11 5l-6 33l-87 39l5 12l73 -11q24 -4 52 -4q92 0 92 131q0 35 -12 75q-100 -88 -198 -138.5t-250 -92.5l-6 11
q149 60 245 125t186 165q-9 14 -29 40q-102 -86 -187.5 -133t-207.5 -83l-8 11q125 54 202 109t161 151l-31 33q-81 -66 -146 -102t-170 -72l-8 11q103 48 165.5 96t131.5 130h-322zM312 728h300l34 109h-288z" />
  </g>

</svg>
