<?xml version="1.0" standalone="no"?>
<!DOCTYPE svg PUBLIC "-//W3C//DTD SVG 1.1//EN" "http://www.w3.org/Graphics/SVG/1.1/DTD/svg11.dtd" >
<svg xmlns="http://www.w3.org/2000/svg" xmlns:xlink="http://www.w3.org/1999/xlink" version="1.1" viewBox="0 -204 1024 1024">
  <g transform="matrix(1 0 0 -1 0 820)">
   <path fill="currentColor"
d="M54 848q44 -12 116 -12h74v40q0 49 -4 74q46 -6 75 -21q13 -5 13 -13q0 -7 -11 -11q-14 -9 -29 -13v-56h80l44 44q30 -22 59 -46q7 -4 7 -8q0 -16 -10 -16h-180v-102h76l38 44q32 -22 62 -46q6 -4 6 -8q0 -16 -10 -16h-172v-108h92l44 42q32 -23 59 -44q9 -5 9 -10
q0 -18 -14 -18h-190v-70q0 -22 -26 -22q-18 0 -18 26v66h-80q-72 -1 -96 -4l-22 44q44 -10 118 -10h80v108h-58q-69 -3 -96 -6l-18 44q43 -12 114 -12h58v102h-74q-70 -3 -94 -6zM518 848q44 -12 118 -12h54v34q0 52 -4 80q49 -7 82 -23q10 -6 10 -13q0 -9 -9 -13
q-12 -11 -31 -13v-52h102l44 44q30 -22 59 -46q7 -4 7 -8q0 -16 -12 -16h-200v-102h80l40 44q34 -22 62 -46q8 -4 8 -8q0 -16 -14 -16h-176v-108h110l44 42q32 -23 59 -44q7 -5 7 -10q0 -18 -12 -18h-208v-70q0 -22 -26 -22t-26 26q0 11 2 30q2 22 2 36h-58q-72 -1 -96 -4
l-22 44q44 -10 118 -10h58v108h-54q-72 -3 -96 -6l-22 44q44 -12 118 -12h54v102h-54q-72 -3 -96 -6zM160 412q39 -8 110 -8h478l26 34q52 -33 52 -44t-26 -30v-112h54l48 58q38 -30 73 -58q7 -5 7 -12q0 -14 -14 -14h-168v-114l38 -26q6 -5 6 -10q0 -14 -8 -14h-584
q-72 -1 -96 -4l-22 44q44 -12 118 -12h500v136h-596q-71 -1 -98 -4l-18 44q43 -14 116 -14h596v124h-482q-80 0 -96 -4z" />
  </g>

</svg>
