<?xml version="1.0" standalone="no"?>
<!DOCTYPE svg PUBLIC "-//W3C//DTD SVG 1.1//EN" "http://www.w3.org/Graphics/SVG/1.1/DTD/svg11.dtd" >
<svg xmlns="http://www.w3.org/2000/svg" xmlns:xlink="http://www.w3.org/1999/xlink" version="1.1" viewBox="0 -120 1000 1000">
  <g transform="matrix(1 0 0 -1 0 880)">
   <path fill="currentColor"
d="M39 387q167 172 242 377l66 -32q16 -7 16 -17t-16 -15l-16 -4q-43 -71 -76 -118l11 -4q17 -7 17 -14q0 -11 -24 -20l-16 -5v-462l-60 -10v428q-11 -10 -54 -50q-27 -25 -78 -66zM41 657q131 123 208 295l74 -28q18 -8 18 -17q0 -11 -20 -15l-25 -4q-8 -10 -61 -77
q-79 -94 -184 -166zM519 283v436l61 -43h112l29 43l56 -43q20 -15 20 -26q0 -9 -20 -14l-17 -4v-313l-56 -8v64h-128v-82zM704 650h-128v-248h128v248zM377 64v836l61 -36h404l27 42l63 -40q17 -11 17 -22t-20 -18l-19 -6v-721l-59 -13v76h-415v-88zM436 190h415v646h-415
v-646z" />
  </g>

</svg>
