<?xml version="1.0" standalone="no"?>
<!DOCTYPE svg PUBLIC "-//W3C//DTD SVG 1.1//EN" "http://www.w3.org/Graphics/SVG/1.1/DTD/svg11.dtd" >
<svg xmlns="http://www.w3.org/2000/svg" xmlns:xlink="http://www.w3.org/1999/xlink" version="1.1" viewBox="0 -410 2048 2048">
  <g transform="matrix(1 0 0 -1 0 1638)">
   <path fill="currentColor"
d="M994 1645v148q0 120 -8 160l109 -24q86 -19 86 -45q0 -29 -50 -42l-41 -11v-186h355v148q0 118 -8 160l110 -24q85 -19 85 -45q0 -29 -49 -42l-42 -11v-186h122l98 101l121 -106q17 -15 17 -25q0 -28 -39 -28h-319v-369h192l98 101l121 -106q17 -16 17 -26q0 -27 -27 -27
h-1067q-103 0 -192 -8l-39 88q98 -22 231 -22h119v369h-58q-117 0 -192 -8l-38 88q96 -22 230 -22h58zM1090 1218h355v369h-355v-369zM840 1003l118 -88h613l69 76l83 -54q41 -27 41 -48q0 -29 -78 -62v-422q0 -101 12 -210q3 -31 3 -50q0 -46 -57 -46q-55 0 -55 42v48h-639
v-44q0 -54 -57 -54q-55 0 -55 45q0 17 4 50q12 97 12 210v442q-3 55 -4 83q-2 51 -10 82zM950 249h639v292h-639v-292zM950 595h639v264h-639v-264zM511 1963l125 -51q34 -14 34 -31q0 -26 -45 -32l-50 -7q-130 -188 -244 -292q-69 -62 -219 -154l-20 35q279 215 419 532z
M374 1050q-157 -141 -274 -209l-19 27q196 177 289 307q130 181 215 402l125 -45q38 -14 38 -36q0 -23 -40 -32l-49 -11q-132 -223 -202 -312l54 -25q21 -10 21 -27t-21 -27l-42 -20v-667q0 -103 12 -210q3 -31 3 -50q0 -46 -56 -46q-54 0 -54 46v935z" />
  </g>

</svg>
