<?xml version="1.0" standalone="no"?>
<!DOCTYPE svg PUBLIC "-//W3C//DTD SVG 1.1//EN" "http://www.w3.org/Graphics/SVG/1.1/DTD/svg11.dtd" >
<svg xmlns="http://www.w3.org/2000/svg" xmlns:xlink="http://www.w3.org/1999/xlink" version="1.1" viewBox="0 -204 1024 1024">
  <g transform="matrix(1 0 0 -1 0 820)">
   <path fill="currentColor"
d="M426 960q57 -5 95 -20q15 -7 15 -16t-15 -11q-17 -9 -43 -11v-124h264l50 54q36 -28 70 -54q8 -5 8 -14q0 -16 -16 -16h-376v-212h374l50 62q40 -30 77 -61q7 -5 7 -11q0 -18 -14 -18h-808q-72 -1 -96 -4l-22 44q44 -12 118 -12h266v344q0 54 -4 80zM178 302h18
q0 -66 -16 -108q-8 -32 -23 -54q-14 -23 -32 -36q-11 -9 -26 -13q-9 -5 -19 -5q-26 0 -26 22q0 5 8 11q36 27 58 48q25 25 38 55t20 80zM302 354q49 -9 82 -21q10 -3 10 -13q0 -7 -10 -9q-12 -6 -30 -9v-160q0 -19 13 -26q15 -9 49 -12q40 -6 129 -6q67 0 109 2q32 3 53 7
q18 5 24 24q14 23 29 121l18 -4v-92q0 -13 6 -18q3 -6 18 -14q16 -9 16 -22q0 -10 -14 -17q-22 -14 -53 -18q-39 -6 -93 -9q-59 -4 -113 -4q-82 0 -124 4q-56 5 -76 13q-18 7 -30 24q-9 13 -9 29v160q0 42 -4 70zM416 420q76 -22 120 -48q38 -19 58 -40q12 -14 12 -26
q0 -32 -18 -32q-14 0 -24 3q-9 4 -18 21q-28 34 -58 58q-30 23 -86 48zM800 332q68 -29 108 -60q36 -27 55 -51q13 -19 13 -35q0 -34 -22 -34q-10 0 -18 6q-9 5 -21 25q-22 45 -50 73t-79 62z" />
  </g>

</svg>
