<?xml version="1.0" standalone="no"?>
<!DOCTYPE svg PUBLIC "-//W3C//DTD SVG 1.1//EN" "http://www.w3.org/Graphics/SVG/1.1/DTD/svg11.dtd" >
<svg xmlns="http://www.w3.org/2000/svg" xmlns:xlink="http://www.w3.org/1999/xlink" version="1.1" viewBox="0 -120 1000 1000">
  <g transform="matrix(1 0 0 -1 0 880)">
   <path fill="currentColor"
d="M207 350q3 -32 3 -52q0 -78 -25 -125q-13 -25 -41 -42q-20 -11 -39 -11q-21 0 -31 13q-7 9 -7 20q0 18 26 35q66 45 85 105q6 20 11 58zM73 598q81 58 137 114q25 26 103 123l80 -27q17 -6 17 -13q0 -8 -12 -11l-32 -7q-19 -16 -72 -60q-78 -66 -211 -132zM562 662
q105 -28 157 -62q79 -49 79 -102q0 -22 -14 -35q-7 -6 -15 -6q-13 0 -25 17q-34 42 -45 55q-265 -39 -458 -61l-11 -19q-6 -11 -15 -11q-8 0 -13 9l-40 86l152 2q84 116 147 237l78 -22q21 -6 21 -16q0 -9 -17 -12l-27 -6l-163 -178h35q11 0 293 15q-42 43 -126 95zM723 287
l-4 -70q-1 -15 -1 -22q0 -25 15 -38q7 -6 23 -14q-14 -36 -43 -48q-24 -11 -86 -11l-264 -1q-39 0 -53 19q-10 15 -9 46v269l83 -9q14 -2 14 -13q0 -10 -10 -13l-25 -8v-201q0 -32 27 -32l185 3q62 0 80 16q15 12 26 47l27 81zM332 862l-10 26h295l26 43l58 -34
q13 -8 13 -15q0 -9 -14 -15l-30 -11q44 -75 134 -127q40 -23 133 -57v-13q-38 -4 -54 -15q-14 -10 -27 -34q-58 39 -88 63q-82 67 -129 189h-307zM434 434q150 -43 150 -120q0 -23 -15 -37q-10 -9 -23 -9q-6 0 -12 3q-10 6 -29 58q-16 41 -77 94zM729 379q64 -22 108 -48
q101 -61 101 -132q0 -22 -14 -36q-10 -9 -20 -9q-16 0 -33 36q-49 103 -149 174z" />
  </g>

</svg>
