<?xml version="1.0" standalone="no"?>
<!DOCTYPE svg PUBLIC "-//W3C//DTD SVG 1.1//EN" "http://www.w3.org/Graphics/SVG/1.1/DTD/svg11.dtd" >
<svg xmlns="http://www.w3.org/2000/svg" xmlns:xlink="http://www.w3.org/1999/xlink" version="1.1" viewBox="0 -140 1000 1000">
  <g transform="matrix(1 0 0 -1 0 860)">
   <path fill="currentColor"
d="M171 550l146 7q77 101 134 229l86 -42l-4 -16l-31 -3q-95 -111 -161 -168l351 24q-43 47 -91 91l7 8q103 -52 144 -85.5t41 -73.5t-23 -40q-10 0 -30 32q-13 21 -36 49l-478 -68l-6 -31l-15 -2zM649 887l33 39h13l50 -46v-15l-46 -17q31 -76 86.5 -117t151.5 -59l-1 -14
q-30 -2 -44.5 -11.5t-29.5 -36.5q-82 48 -125.5 104t-69.5 151h-320v23zM75 613l-8 11q81 50 128 98.5t101 137.5l79 -48l-7 -13h-28q-66 -71 -120.5 -109.5t-144.5 -76.5zM198 350l15 -1q4 -25 4 -56q0 -83 -37 -126q-30 -35 -49 -35q-11 0 -19.5 12.5t-8.5 29.5
q0 21 6.5 30.5t36.5 31.5q38 28 52 114zM729 264l13 -2l-10 -109l34 -20v-15q-44 -32 -122 -32l-242 -1q-49 0 -66.5 17.5t-17.5 67.5v275l98 -18v-13l-34 -20v-220q0 -32 34 -32h204q56 0 80 55zM438 475l2 10q83 -9 121.5 -30.5t38.5 -61.5q0 -37 -23 -37q-10 0 -22 15
q-37 44 -54.5 59.5t-62.5 44.5zM740 362l8 9q177 -61 177 -147q0 -42 -26 -42q-15 0 -40 45q-43 74 -119 135z" />
  </g>

</svg>
