<?xml version="1.0" standalone="no"?>
<!DOCTYPE svg PUBLIC "-//W3C//DTD SVG 1.1//EN" "http://www.w3.org/Graphics/SVG/1.1/DTD/svg11.dtd" >
<svg xmlns="http://www.w3.org/2000/svg" xmlns:xlink="http://www.w3.org/1999/xlink" version="1.1" viewBox="0 -140 1000 1000">
  <g transform="matrix(1 0 0 -1 0 860)">
   <path fill="currentColor"
d="M551 925l97 -44l-1 -14l-40 -7l-7 -21q80 -122 156.5 -195t185.5 -130l-4 -12q-25 -1 -38 -7.5t-31 -29.5q-96 79 -157 153t-124 191q-59 -131 -126.5 -214t-182.5 -166l-10 11q113 111 177 221t105 264zM779 451l60 -59l-4 -15l-30 -7l-82 -302l-10 -9h-55l-4 9l86 324
h-363v23h356l33 36h13zM107 747l18 4q13 -68 13 -118q0 -52 -12.5 -92t-27.5 -56.5t-27 -16.5q-22 0 -22 47q0 29 20 61q23 39 29.5 66.5t8.5 104.5zM248 888v-75q45 -29 66.5 -44.5t42.5 -40.5t21 -48q0 -16 -8 -29.5t-18 -13.5q-17 0 -36 46q-22 53 -68 108l-7 -739
l-47 -9l-8 7v886l92 -13v-17zM441 525v21h217l39 47h14l51 -53v-15h-321z" />
  </g>

</svg>
