<?xml version="1.0" standalone="no"?>
<!DOCTYPE svg PUBLIC "-//W3C//DTD SVG 1.1//EN" "http://www.w3.org/Graphics/SVG/1.1/DTD/svg11.dtd" >
<svg xmlns="http://www.w3.org/2000/svg" xmlns:xlink="http://www.w3.org/1999/xlink" version="1.1" viewBox="0 -410 2048 2048">
  <g transform="matrix(1 0 0 -1 0 1638)">
   <path fill="currentColor"
d="M909 1691l-39 86q115 -18 187 -18h520l98 102l121 -107q17 -15 17 -25q0 -27 -27 -27h-729q-61 0 -148 -11zM771 1123l-39 85q121 -17 188 -17h802l98 102l121 -107q17 -15 17 -26q0 -26 -28 -26h-615q-202 -524 -391 -815q315 30 793 113q-72 162 -209 349l31 27
q124 -130 228 -281q129 -189 129 -291q0 -74 -52 -74q-49 0 -66 95q-9 51 -42 125l-98 -22q-306 -70 -559 -122l-110 -23q-13 -68 -36 -68q-22 0 -48 60l-44 102q50 39 142 252q140 324 217 573h-280q-62 0 -149 -11zM221 1605l43 -4v-51q0 -226 -36 -323
q-46 -123 -121 -123q-46 0 -46 48q0 34 49 93q71 85 92 198q10 48 19 162zM471 1589q118 -72 158 -110q97 -93 97 -170q0 -39 -28 -60q-12 -9 -26 -9q-12 0 -21 6q-24 17 -57 110q-35 95 -123 175v-1155q0 -60 10 -181q4 -42 4 -65q0 -59 -63 -59q-46 0 -46 51v1677
q0 115 -8 160l117 -24q85 -18 85 -48q0 -38 -50 -49l-49 -12v-237z" />
  </g>

</svg>
