<?xml version="1.0" standalone="no"?>
<!DOCTYPE svg PUBLIC "-//W3C//DTD SVG 1.1//EN" "http://www.w3.org/Graphics/SVG/1.1/DTD/svg11.dtd" >
<svg xmlns="http://www.w3.org/2000/svg" xmlns:xlink="http://www.w3.org/1999/xlink" version="1.1" viewBox="0 -204 1024 1024">
  <g transform="matrix(1 0 0 -1 0 820)">
   <path fill="currentColor"
d="M68 876q43 -10 114 -10h113l-11 88q44 -5 76 -12q12 -3 12 -10q0 -5 -14 -12q-12 -7 -22 -10l5 -44h53l40 40q32 -23 59 -43q7 -4 7 -9q0 -18 -14 -18h-143l7 -62q0 -12 -9 -15q-10 -7 -23 -7q-10 0 -12 8l-8 76h-116q-69 -1 -96 -4zM672 954q42 -4 78 -21q6 -3 6 -9
q0 -8 -17 -11q-14 -5 -27 -7q-2 -22 -5 -40h141l44 48q36 -27 66 -49q10 -5 10 -11q0 -18 -14 -18h-253q-4 -32 -11 -66q-3 -18 -26 -18q-22 0 -22 12l1 12q4 9 7 25q3 20 5 35q-60 -1 -85 -4l-18 44q41 -9 107 -10q10 50 13 88zM58 704q44 -10 116 -10h211q5 7 7 11
q23 45 32 83q45 -5 71 -16q13 -3 13 -12q0 -7 -15 -12q-18 -4 -29 -6q-11 -28 -25 -48h401l48 54q38 -28 70 -54q10 -5 10 -12q0 -18 -18 -18h-525q-10 -17 -22 -34q-22 -31 -52 -61l3 -3h413l25 26q52 -30 52 -44q0 -10 -30 -26v-113l28 -20q6 -3 6 -9q0 -16 -8 -16h-484
v-1q2 -10 2 -27q0 -15 -34 -18q-18 0 -18 10v197q-45 -39 -90 -68q-52 -29 -132 -67l-12 18q67 38 111 67q41 26 78 61q37 34 75 79q18 25 35 49h-197q-70 -1 -94 -4zM354 394h414v138l-1 4h-413v-142zM190 284h18q0 -61 -14 -102q-9 -33 -24 -55q-11 -23 -32 -35
q-10 -10 -22 -15q-11 -5 -22 -5q-22 0 -22 22q0 4 7 10q35 26 54 47q27 27 37 54q13 31 20 79zM306 302q49 -11 82 -21q10 -3 10 -11q0 -9 -10 -11q-12 -8 -30 -11v-124q0 -17 12 -23q13 -8 42 -11q34 -10 111 -10q60 0 94 5q28 2 45 9q17 5 21 22q12 28 25 132l18 -4v-102
q0 -15 6 -21q3 -7 18 -13q18 -7 18 -22q0 -11 -14 -19q-20 -10 -47 -15q-34 -7 -81 -10q-54 -6 -103 -6q-72 0 -110 6q-52 7 -68 15q-16 5 -27 21q-8 16 -8 30v124q0 43 -4 70zM452 324q57 -20 90 -45q28 -17 43 -37q11 -11 11 -24q0 -32 -22 -32q-8 0 -16 4q-5 2 -13 17
q-21 34 -42 56q-25 21 -65 47zM810 284q63 -32 100 -64q33 -28 48 -55q14 -18 14 -35q0 -32 -22 -32q-9 0 -16 5q-8 4 -19 26q-20 47 -46 74q-24 32 -69 67z" />
  </g>

</svg>
