<?xml version="1.0" standalone="no"?>
<!DOCTYPE svg PUBLIC "-//W3C//DTD SVG 1.1//EN" "http://www.w3.org/Graphics/SVG/1.1/DTD/svg11.dtd" >
<svg xmlns="http://www.w3.org/2000/svg" xmlns:xlink="http://www.w3.org/1999/xlink" version="1.1" viewBox="0 -140 1000 1000">
  <g transform="matrix(1 0 0 -1 0 860)">
   <path fill="currentColor"
d="M226 869v-104q117 -73 117 -139q0 -19 -11 -37t-24 -18q-21 0 -27 53q-8 60 -55 119l-3 -671l-55 -19l-7 9v859l95 -20v-11zM567 876l25 25h14l46 -35v-13l-17 -17v-500l-7 -15l-45 -14l-12 5v29h-152v-26l-8 -11l-44 -13l-12 6v604l67 -25h145zM571 364v154h-152v-154
h152zM571 539v151h-152v-151h152zM571 712v143h-152v-143h152zM711 289l-1 541l97 -21v-13l-32 -18l-4 -482l-51 -15zM715 130l4 14l86 -6q31 0 39.5 14.5t8.5 66.5v698l98 -24v-13l-34 -17v-651q0 -88 -13 -108.5t-86 -44.5l-17 8v30zM274 83l-8 10q86 82 142 192l80 -49
l-5 -11h-27q-83 -86 -182 -142zM529 250l10 13q164 -69 164 -127q0 -42 -27 -42q-9 0 -16.5 7.5t-22.5 31.5q-7 12 -12 19q-30 48 -96 98zM110 737h16q9 -59 9 -95q0 -66 -19 -108.5t-43 -42.5q-11 0 -19 16.5t-8 37.5q0 16 4.5 24.5t25.5 33.5q33 40 34 134z" />
  </g>

</svg>
