<?xml version="1.0" standalone="no"?>
<!DOCTYPE svg PUBLIC "-//W3C//DTD SVG 1.1//EN" "http://www.w3.org/Graphics/SVG/1.1/DTD/svg11.dtd" >
<svg xmlns="http://www.w3.org/2000/svg" xmlns:xlink="http://www.w3.org/1999/xlink" version="1.1" viewBox="0 -200 1000 1000">
  <g transform="matrix(1 0 0 -1 0 800)">
   <path fill="currentColor"
d="M211 322l-65 -10l-25 33h625v76h-455l-61 -12l-28 35h544v72h-493l-68 -14l-31 37h579l44 40l59 -57l-35 -30v-170h-590zM696 828v141l73 -27l-23 -55v-59h78l43 43l60 -65h-181v-77h42l42 41l61 -62h-145v-79h95l47 43l64 -65h-340l-55 -14l-33 36h172v78h-48l-58 -7
l-24 28h130v78h-89l-43 -13l-29 35h161zM331 940l-24 -56v-58h93l44 43l68 -64h-205v-77h60l42 39l62 -61h-164v-78h102l43 42l61 -65h-373l-55 -12l-23 35h191v78h-63l-58 -12l-28 34h149v77h-105l-59 -12l-24 35h188v138zM402 294q18 -1 34 -3t30 -4q25 -7 48 -15
t39.5 -18t26.5 -23t10 -30v-5q0 -15 -7 -22.5t-17 -7.5q-17 0 -27 16q-38 45 -73.5 69t-64.5 32zM814 228q22 -12 44 -30t39 -38t27.5 -39.5t10.5 -34.5q1 -3 1 -11q0 -20 -12.5 -35t-26.5 -15q-8 0 -15.5 7.5t-12.5 26.5q-3 22 -5 38.5t-7.5 33.5t-17 37.5t-32.5 50.5z
M639 195q25 -55 50 -91t57 -44q12 -8 12 -15q0 -5 -4.5 -12.5t-13.5 -15.5t-24 -13.5t-36 -5.5q-8 0 -16.5 0.5t-17.5 0.5h-301q-23 6 -35 25.5t-12 48.5v207l76 -30l-17 -55v-93q0 -18 10 -33t33 -15h220q43 0 43 32q0 1 -0.5 4t-1.5 8q-5 16 -14 41t-20 53zM198 220
q-2 -97 -22.5 -145.5t-76.5 -50.5q-26 5 -26 28q0 20 21 35q34 30 55.5 63.5t34.5 76.5z" />
  </g>

</svg>
