<?xml version="1.0" standalone="no"?>
<!DOCTYPE svg PUBLIC "-//W3C//DTD SVG 1.1//EN" "http://www.w3.org/Graphics/SVG/1.1/DTD/svg11.dtd" >
<svg xmlns="http://www.w3.org/2000/svg" xmlns:xlink="http://www.w3.org/1999/xlink" version="1.1" viewBox="0 -120 1000 1000">
  <g transform="matrix(1 0 0 -1 0 880)">
   <path fill="currentColor"
d="M134 756q14 -87 14 -123q0 -55 -21 -92q-18 -31 -45 -31q-16 0 -26 10q-8 9 -8 22q0 10 8 26q2 5 30 52q26 41 30 136h18zM185 62v902l85 -10q21 -2 21 -15q0 -11 -18 -17l-28 -9v-841zM270 827q42 -40 56 -63q18 -31 18 -59q0 -31 -21 -44q-6 -4 -13 -4q-11 0 -18 7
q-6 5 -11 44q-9 67 -23 112zM460 331q-82 -103 -168 -157l-11 12q103 103 166 242h-129l-13 26h539l47 52l77 -61v-17h-444q-16 -30 -43 -70h367l25 39l56 -44q17 -13 17 -21q0 -10 -17 -14l-17 -4q-13 -144 -40 -189q-20 -33 -62 -51t-75 -18q-8 0 -10 3q-1 1 -3 35
q0 4 -22 13l-49 19v12h154q26 39 37 98q11 54 10 95h-97q-122 -206 -274 -291l-10 13q115 85 209 278h-77q-113 -182 -274 -270l-8 15q76 64 133 140q53 70 74 115h-68zM332 649q104 118 169 299l82 -32q18 -7 18 -16t-18 -12l-26 -6l-37 -55h281l47 53l81 -63v-15h-428
l-31 -40l40 -24h259l17 32l54 -29q22 -12 22 -21t-17 -14l-18 -5v-215l-62 -11v39h-255v-36l-61 -10v268q-16 -16 -33 -32q-38 -39 -71 -66zM510 614v-73h255v73h-255zM510 712v-71h255v71h-255z" />
  </g>

</svg>
