<?xml version="1.0" standalone="no"?>
<!DOCTYPE svg PUBLIC "-//W3C//DTD SVG 1.1//EN" "http://www.w3.org/Graphics/SVG/1.1/DTD/svg11.dtd" >
<svg xmlns="http://www.w3.org/2000/svg" xmlns:xlink="http://www.w3.org/1999/xlink" version="1.1" viewBox="0 -204 1024 1024">
  <g transform="matrix(1 0 0 -1 0 820)">
   <path fill="currentColor"
d="M112 756h22q0 -67 -7 -112q-5 -35 -16 -62q-8 -22 -21 -38q-5 -10 -14 -13q-5 -5 -14 -5q-26 0 -26 22q0 7 4 13q21 26 35 52q15 28 22 57q8 34 15 86zM170 954q57 -7 95 -23q15 -6 15 -15q0 -7 -15 -11q-17 -9 -43 -13v-136q23 -17 37 -38q23 -20 36 -41q13 -19 18 -35
q5 -15 5 -28q0 -16 -5 -27q-8 -11 -17 -11q-7 0 -11 6q-5 4 -10 26q-5 25 -16 51q-9 25 -22 45q-7 11 -15 24v-616q0 -21 2 -30q2 -18 2 -28q0 -34 -30 -34q-26 0 -26 16q0 23 2 56q2 35 2 60v720q0 54 -4 82zM596 958l34 -20q15 -12 25 -21q13 -7 17 -14t4 -15
q0 -18 -6 -29l-1 -1h179l44 48q36 -27 66 -49q10 -7 10 -13q0 -14 -14 -14h-568v-276q0 -81 -4 -151q-3 -62 -13 -128q-9 -52 -23 -96q-10 -40 -31 -77q-16 -33 -45 -66l-12 10q17 26 30 60q10 31 19 65q9 36 17 87q7 58 11 116q5 79 5 180q0 213 -4 338l54 -34h245
q-1 2 -2 5q-4 14 -12 28q-9 15 -18 26q-8 13 -23 29zM438 748q39 -6 114 -6h84q0 47 -4 72q46 -10 77 -18q11 -5 11 -10q0 -6 -9 -9q-14 -7 -29 -13v-22h144v2l28 34q52 -33 52 -44q0 -12 -26 -30v-62h4l40 40q29 -23 57 -43q5 -5 5 -11q0 -14 -10 -14h-96v-100
q0 -20 -32 -26q-18 0 -18 8v18h-148v-62h166l32 44q34 -20 52 -42q6 -8 6 -12q0 -10 -40 -34v-296q0 -34 -11 -50t-31 -27q-16 -11 -30 -11l-2 22q-2 9 -6 13q-8 11 -27 20q-23 12 -53 15v22q44 -14 80 -14q23 0 30 5q6 6 6 31v62h-172v-70q0 -25 2 -31q2 -19 2 -31
q0 -32 -32 -32q-22 0 -22 18q0 12 2 34q2 20 2 36v76h-158v-146q0 -9 -10 -16q-15 -6 -26 -6q-12 0 -12 14v440l62 -34h144v62h-84q-81 0 -96 -6l-18 40q39 -8 114 -8h84v74h-122q-70 -1 -94 -4l-22 44q44 -12 116 -12h122v70h-84q-81 0 -96 -4zM682 540h148v74h-148v-74z
M830 642v70h-148v-70h148zM478 426v-84h158v84h-158zM478 314v-84h158v84h-158zM682 426v-84h172v84h-172zM682 314v-84h172v84h-172z" />
  </g>

</svg>
