<?xml version="1.0" standalone="no"?>
<!DOCTYPE svg PUBLIC "-//W3C//DTD SVG 1.1//EN" "http://www.w3.org/Graphics/SVG/1.1/DTD/svg11.dtd" >
<svg xmlns="http://www.w3.org/2000/svg" xmlns:xlink="http://www.w3.org/1999/xlink" version="1.1" viewBox="0 -140 1000 1000">
  <g transform="matrix(1 0 0 -1 0 860)">
   <path fill="currentColor"
d="M235 878v-141q69 -53 88 -74.5t19 -49.5q0 -17 -9.5 -29.5t-22.5 -12.5q-24 0 -37 64q-9 43 -38 81l-6 -655l-46 -13l-11 8l-1 875l100 -22v-13zM819 792h-384v-355h384v355zM800 814l35 35h14l61 -50v-15l-28 -17l1 -377l-6 -8l-48 -11l-10 6v37h-383v-30l-6 -9l-51 -12
l-7 6v475l69 -31l112 1q28 67 44 115l72 -30l-7 -14l-22 -2l-61 -69h221zM716 719l35 28h13l48 -50l-6 -16l-35 -4q-27 -51 -70 -90q87 -49 87 -89q0 -26 -16 -26q-12 0 -43 28q-25 26 -63 57q-72 -58 -203 -105l-6 13q99 46 172 117q-41 26 -87 52q-39 -39 -91 -69l-9 10
q35 27 79 81.5t72 128.5l76 -30l-6 -13l-25 -3l-15 -20h93zM714 696h-110q-19 -24 -43 -45q32 -12 96 -40q30 30 57 85zM122 710h12q11 -55 11 -87q0 -62 -21 -106.5t-50 -44.5q-11 0 -20.5 17.5t-9.5 36.5q0 16 23 37q46 42 55 147zM355 325l15 -1q3 -33 3 -50
q0 -59 -17 -103.5t-35.5 -62.5t-32.5 -18q-11 0 -20 16t-9 37q0 17 8 28t39 37q25 21 35 45t14 72zM473 298v-138q0 -33 34 -33h146q48 0 71.5 12t36.5 43l25 59l15 -5l-8 -98l34 -20v-15q-50 -32 -161 -32h-173q-50 0 -67 17.5t-17 67.5v193l95 -22v-14zM519 387l5 12
q103 -19 136.5 -35t33.5 -46q0 -40 -19 -40t-54 38q-33 36 -102 71zM779 296l9 11q84 -40 129 -77q40 -33 40 -75q0 -17 -8 -30.5t-18 -13.5q-8 0 -16 7t-12 14t-11 21q-29 57 -50 83.5t-63 59.5z" />
  </g>

</svg>
