<?xml version="1.0" standalone="no"?>
<!DOCTYPE svg PUBLIC "-//W3C//DTD SVG 1.1//EN" "http://www.w3.org/Graphics/SVG/1.1/DTD/svg11.dtd" >
<svg xmlns="http://www.w3.org/2000/svg" xmlns:xlink="http://www.w3.org/1999/xlink" version="1.1" viewBox="0 -200 1001 1000">
  <g transform="matrix(1 0 0 -1 0 800)">
   <path fill="currentColor"
d="M659 603v50h-321v-50h321zM659 675v52h-321v-52h321zM392 468q0 -2 -0.5 -3.5t-0.5 -3.5q0 -7 1.5 -14t7 -13t17 -10t31.5 -4h130q15 3 24 7t9 17q0 5 -1 14.5t-2.5 20t-2.5 20.5t-1 18q0 5 -1 9t-1 9v3h9q0 -27 12.5 -50.5t27 -42t27 -30.5t12.5 -15q0 -6 -12 -11
t-31.5 -9t-44 -6t-49.5 -2h-157q-5 -1 -9 -1h-9q-22 0 -33 18.5t-11 48.5l-3 130l88 -33l-27 -45v-22zM419 566q63 -11 97.5 -23.5t38.5 -29.5q1 -1 1 -11q0 -14 -6 -22.5t-14 -10.5q-1 0 -1.5 -0.5t-1.5 -0.5q-8 0 -16 11.5t-20.5 27.5t-30.5 31.5t-45 23.5zM114 483
q-21 4 -34 10t-13 15q0 10 17 24q28 16 42 46.5t26 67.5l8 -3l3 -40h118v246l69 -31h62l25 76h-190l-81 -11l-25 30h605l59 55l76 -74h-371l-70 -76h205l38 43l65 -45l-31 -37v-176h96l45 55q12 -15 26.5 -28t28.5 -23.5t25.5 -18t16.5 -11.5v-10q0 -4 -1.5 -6t-9.5 -3
q-29 -3 -49 -7t-36.5 -10.5t-32 -16.5t-35.5 -26l-13 3q5 4 12.5 13.5t14 20.5t11.5 21.5t5 16.5t-5 9h-653v-5q0 -44 -10 -65t-39 -29zM347 799l-9 -28v-24h321v52h-312zM678 542q161 -53 161 -100q0 -7 -4 -15t-10 -15t-13.5 -12t-14.5 -5q-9 0 -16 15.5t-19 37.5
t-31.5 46.5t-53.5 43.5zM270 529q-9 -139 -82 -139q-21 0 -34.5 8t-13.5 13q0 8 14 17t33.5 22t40 33t34.5 51zM507 134q22 10 44.5 24t42 29t34.5 29.5t24 26.5h-255l-28 -11q-1 0 -1 -2q0 -3 15 -14.5t37 -26t45.5 -29.5t41.5 -26zM555 104q30 -14 68 -28t81.5 -25.5
t92 -19t98.5 -7.5h13l5 -3q-22 -7 -44.5 -12.5t-42.5 -10.5t-37 -10.5t-27 -12.5q-45 10 -78 22.5t-61 26t-53.5 29t-54.5 31.5q-48 -26 -108 -46.5t-121.5 -34.5t-117.5 -21.5t-95 -7.5h-10v2q67 10 124 24t106.5 31.5t93.5 38.5t85 44q-25 19 -42 32.5t-30 25t-24.5 22
t-24.5 22.5q-23 -10 -50.5 -23.5t-57.5 -26t-60 -22t-58 -11.5l-3 4q49 18 97 46t88 59.5t70 62.5t44 55l68 -46l-40 -22l-34 -27h247l44 40l87 -51l-66 -28q-18 -19 -40.5 -37t-45.5 -34t-45.5 -29t-40.5 -22z" />
  </g>

</svg>
