<?xml version="1.0" standalone="no"?>
<!DOCTYPE svg PUBLIC "-//W3C//DTD SVG 1.1//EN" "http://www.w3.org/Graphics/SVG/1.1/DTD/svg11.dtd" >
<svg xmlns="http://www.w3.org/2000/svg" xmlns:xlink="http://www.w3.org/1999/xlink" version="1.1" viewBox="0 -410 2048 2048">
  <g transform="matrix(1 0 0 -1 0 1638)">
   <path fill="currentColor"
d="M1593 1278l-36 -31v-142l42 -28q10 -7 10 -21q0 -25 -16 -25h-530v-17q0 -31 -53 -31t-53 37q0 3 4 41l2 31l3 48v148q-183 -163 -384 -245l-20 37q318 175 473 436h-173q-117 0 -192 -8l-38 88q97 -24 230 -24h201q33 62 76 177q-258 -21 -403 -27l-3 47q632 59 923 196
l99 -86q29 -25 29 -46q0 -26 -35 -26q-18 0 -42 8l-34 11q-201 -47 -416 -65q-46 -114 -83 -189h561l94 103l121 -106q16 -15 16 -26q0 -27 -27 -27h-478q97 -117 234 -203q147 -92 297 -119v-34q-94 -18 -128 -70q-148 71 -271 188zM1499 1378q-40 47 -98 138h-255
q-60 -95 -115 -159l51 -26h375zM1063 1085h398v188h-398v-188zM444 1578q243 -155 243 -304q0 -72 -55 -72q-29 0 -47 35q-6 10 -26 97q-20 84 -115 182v-1142q0 -95 12 -209q3 -32 3 -50q0 -46 -55 -46q-56 0 -56 42v1687q0 113 -7 160l110 -24q85 -19 85 -46
q0 -29 -49 -41l-43 -12v-257zM977 754l121 -64h343l61 72l72 -50q42 -28 42 -49q0 -17 -66 -53v-148l30 -23q26 -20 26 -35q0 -24 -21 -24h-511v-13q0 -31 -52 -31q-53 0 -53 37q0 4 4 41l1 31l3 49v260zM1074 434h383v198h-383v-198zM212 1585l43 -4v-53q0 -215 -36 -320
q-27 -77 -76 -109q-25 -16 -45 -16q-46 0 -46 48q0 34 49 93q68 82 91 194q10 48 20 167zM710 987l122 -88h887l67 76l84 -54q40 -26 40 -48q0 -28 -77 -62v-550q0 -142 -153 -170q-12 70 -44 91.5t-163 44.5l8 46q169 -27 201 -27q57 0 57 57v538h-918v-699q0 -54 -59 -54
q-54 0 -54 47q0 15 4 48q13 100 13 210v456q-2 79 -15 138z" />
  </g>

</svg>
