<?xml version="1.0" standalone="no"?>
<!DOCTYPE svg PUBLIC "-//W3C//DTD SVG 1.1//EN" "http://www.w3.org/Graphics/SVG/1.1/DTD/svg11.dtd" >
<svg xmlns="http://www.w3.org/2000/svg" xmlns:xlink="http://www.w3.org/1999/xlink" version="1.1" viewBox="0 -204 1024 1024">
  <g transform="matrix(1 0 0 -1 0 820)">
   <path fill="currentColor"
d="M102 764h26q0 -65 -9 -108q-5 -35 -17 -58q-7 -24 -18 -37q-7 -11 -16 -15q-7 -6 -14 -6q-26 0 -26 26q0 5 4 9q21 28 35 50q16 28 22 58q9 31 13 81zM168 958q55 -7 93 -23q13 -6 13 -15q0 -7 -13 -11q-17 -9 -43 -11v-137l4 3q26 -17 43 -35q23 -18 34 -32
q14 -18 18 -30q7 -10 7 -21q0 -19 -7 -30q-8 -10 -19 -10q-5 0 -9 5q-5 3 -9 19q-6 23 -17 43q-9 22 -22 39q-10 15 -23 29v-633q0 -21 2 -30q2 -16 2 -28q0 -32 -32 -32q-22 0 -22 14q0 23 2 56v60v728q0 54 -2 82zM928 884q29 -20 55 -42q7 -4 7 -10q0 -14 -10 -14h-212
q2 -172 15 -280q3 -25 8 -50q8 17 17 37q21 46 36 90q11 33 22 83q45 -22 74 -39q10 -8 10 -13q0 -6 -15 -12q-23 -6 -39 -6q-29 -71 -49 -111q-25 -44 -48 -76l-1 -1q12 -70 29 -122q26 -94 71 -162q13 -22 22 -22q3 0 6 7q27 66 46 133l18 -12q-18 -142 -18 -150
q0 -10 3 -23q7 -22 7 -35q0 -22 -18 -22q-17 0 -39 21q-30 24 -70 82q-42 65 -70 156q-15 50 -25 103q-10 -11 -21 -21q-33 -29 -63 -45l-8 18q39 27 57 49q14 15 28 34q-12 51 -18 105q-14 129 -15 284h-330v-256q0 -71 -6 -130q-1 -55 -12 -111q-11 -45 -25 -83
q-11 -35 -33 -65q-16 -27 -48 -57l-10 8q16 24 31 55q11 24 21 53q10 34 18 76q9 50 12 99q4 70 4 155q1 198 -2 318l54 -36h326q0 94 -8 116q106 -16 106 -32t-50 -30v-54h120zM416 734q43 -14 114 -14h50l40 40q29 -20 57 -42q5 -4 5 -10q0 -14 -10 -14h-142
q-69 -1 -96 -4zM438 642l62 -32h102l30 32q50 -32 50 -44t-28 -28v-104q15 -10 24 -18q4 -2 4 -6q0 -16 -6 -16h-190q0 -11 -12 -16q-13 -6 -22 -6q-14 0 -14 12v226zM486 452h120v128h-120v-128zM416 284h14q0 -57 -7 -96q-6 -32 -17 -52q-9 -22 -22 -33q-6 -8 -15 -12
q-8 -5 -15 -5q-22 0 -22 22q0 5 5 10q23 25 38 44q17 25 25 51q11 27 16 71zM464 336q48 -9 77 -18q11 -3 11 -12q0 -8 -13 -13t-25 -9v-176q0 -8 8 -14q13 -4 42 -4q18 0 36 1q24 2 31 8q13 11 45 97l14 -4q-8 -51 -8 -76q2 -20 15 -22q19 -9 19 -26q0 -6 -7 -7
q-16 -6 -31 -8q-16 -3 -43 -4q-38 -3 -70 -3q-43 0 -60 2q-13 3 -28 14q-9 7 -9 24v190q0 26 -4 60zM554 368q38 -20 58 -43q20 -17 28 -36q6 -12 6 -23q0 -34 -18 -34q-6 0 -12 4q-4 4 -9 20q-11 31 -24 53q-16 20 -39 45zM702 280q33 -28 54 -55q16 -25 24 -47
q6 -18 6 -32q0 -34 -18 -34q-5 0 -9 5t-9 24q-12 42 -24 66q-12 28 -36 59zM844 958q21 -3 39 -13q14 -7 22 -19q5 -8 5 -16q0 -22 -22 -22q-7 0 -11 7q-6 2 -11 13q-4 8 -11 15q-5 8 -19 19z" />
  </g>

</svg>
