<?xml version="1.0" standalone="no"?>
<!DOCTYPE svg PUBLIC "-//W3C//DTD SVG 1.1//EN" "http://www.w3.org/Graphics/SVG/1.1/DTD/svg11.dtd" >
<svg xmlns="http://www.w3.org/2000/svg" xmlns:xlink="http://www.w3.org/1999/xlink" version="1.1" viewBox="0 -140 1000 1000">
  <g transform="matrix(1 0 0 -1 0 860)">
   <path fill="currentColor"
d="M175 456l198 -1l35 35h14l61 -50v-14l-27 -18v-307l-7 -8l-46 -13l-10 9l-1 35h-225v-40l-7 -9l-46 -12l-10 7l-1 414zM392 433h-225v-129h225v129zM392 282h-225v-135h225v135zM343 907v-14l-36 -17v-88h110l47 59h14l65 -66v-15l-121 -1l43 -31l-7 -14l-25 -2l-94 -144
h102l51 59h14l64 -66v-15h-521v22h143q-12 16 -14.5 24t-5.5 42q-4 46 -48 105l10 8q39 -31 55 -45t30.5 -36.5t14.5 -44.5q0 -21 -16 -53h101l59 191l-304 1v22h169v140zM809 672l34 48l14 3l64 -43l2 -16l-229 -27q15 -148 54 -262q59 110 75 202l83 -42l-8 -16l-25 -2
q-53 -119 -105 -198q21 -53 57.5 -102t54.5 -49q8 0 24 30l38 71l12 -5l-30 -145l20 -43l-8 -14q-113 7 -208 202q-114 -148 -252 -210l-9 11q133 87 240 244q-54 146 -73 319l-68 -10l-5 21l72 9q-9 81 -9 183q0 32 3 101l85 -22v-13l-26 -7q-1 -16 -1 -55q0 -113 8 -180z
M724 857l9 11q80 -24 113 -45.5t33 -56.5q0 -32 -14 -32q-13 0 -34 31q-32 47 -107 92z" />
  </g>

</svg>
