<?xml version="1.0" standalone="no"?>
<!DOCTYPE svg PUBLIC "-//W3C//DTD SVG 1.1//EN" "http://www.w3.org/Graphics/SVG/1.1/DTD/svg11.dtd" >
<svg xmlns="http://www.w3.org/2000/svg" xmlns:xlink="http://www.w3.org/1999/xlink" version="1.1" viewBox="0 -410 2048 2048">
  <g transform="matrix(1 0 0 -1 0 1638)">
   <path fill="currentColor"
d="M1686 1078l42 -30q27 -19 27 -34q0 -23 -25 -23h-1259q-16 -353 -101 -549q-93 -215 -268 -344l-23 30q60 52 139 194q158 282 158 748v394q0 10 -4 56q-2 27 -4 80l110 -72h1094l68 76l83 -54q40 -26 40 -48q0 -28 -77 -62v-362zM1590 1048v426h-1119v-426h1119z
M838 1968q299 -184 299 -321q0 -62 -50 -62q-22 0 -35 16q-10 13 -40 87q-29 73 -94 149q-60 70 -101 98z" />
  </g>

</svg>
