<?xml version="1.0" standalone="no"?>
<!DOCTYPE svg PUBLIC "-//W3C//DTD SVG 1.1//EN" "http://www.w3.org/Graphics/SVG/1.1/DTD/svg11.dtd" >
<svg xmlns="http://www.w3.org/2000/svg" xmlns:xlink="http://www.w3.org/1999/xlink" version="1.1" viewBox="0 -200 1000 1000">
  <g transform="matrix(1 0 0 -1 0 800)">
   <path fill="currentColor"
d="M844 149l3 -5q-26 -10 -65 -23t-91.5 -33t-119.5 -48.5t-148 -69.5l-61 88l111 24q32 66 65.5 166t65.5 218t61 246.5t51 252.5l88 -75l-47 -86q-40 -142 -71.5 -246t-60 -186t-56 -150.5t-59.5 -138.5zM836 105q-10 39 -21 71.5t-24.5 63t-31.5 62.5t-43 71l-2 5
q94 -94 145 -167t58 -133q0 -4 0.5 -7.5t0.5 -8.5q0 -15 -3 -30t-7.5 -27.5t-10.5 -21t-12 -9.5q-6 0 -10.5 5.5t-10 20.5t-12 40.5t-16.5 64.5zM316 457v-377q0 -43 -18 -69t-66 -44q-5 15 -12 27.5t-19.5 23t-31.5 19t-47 14.5v15q33 -8 57 -11t40 -3q13 0 14 1
q14 2 21.5 13t7.5 27v328l-124 -84l-54 57l178 78v209h-67l-61 -14l-27 35h155v269l74 -29l-20 -63v-177h29l49 44l72 -65h-150v-189l119 57l9 -9z" />
  </g>

</svg>
