<?xml version="1.0" standalone="no"?>
<!DOCTYPE svg PUBLIC "-//W3C//DTD SVG 1.1//EN" "http://www.w3.org/Graphics/SVG/1.1/DTD/svg11.dtd" >
<svg xmlns="http://www.w3.org/2000/svg" xmlns:xlink="http://www.w3.org/1999/xlink" version="1.1" viewBox="0 -410 2048 2048">
  <g transform="matrix(1 0 0 -1 0 1638)">
   <path fill="currentColor"
d="M468 1533h119l99 101l120 -107q17 -15 17 -25q0 -27 -27 -27h-328v-530q166 44 348 117l11 -36q-115 -70 -359 -162v-597q0 -141 -155 -170q-12 70 -47 92q-34 22 -160 44l8 46q166 -27 201 -27q57 0 57 57v522q-173 -58 -189 -62l-11 -43q-8 -31 -26 -31q-11 0 -28 31
l-69 130q155 23 323 64v555h-62q-116 0 -192 -8l-38 88q96 -22 230 -22h62v266q0 118 -8 160l110 -25q85 -18 85 -45q0 -29 -49 -42l-42 -11v-303zM1046 1514q-11 -15 -49 -71q-61 -90 -198 -217l-23 26q184 241 262 441q40 99 76 267l134 -60q32 -14 32 -31q0 -23 -46 -31
l-42 -8q-38 -103 -114 -259h659l99 100l121 -107q17 -15 17 -25q0 -25 -28 -25h-900zM941 1105l-38 88q93 -22 230 -22h344l72 81l91 -74q34 -28 34 -44t-38 -29l-61 -25q-346 -361 -443 -479q-177 -213 -177 -285q0 -41 42 -61q51 -24 397 -24q277 0 356 19q47 11 60 63
q15 54 36 242h39l-9 -191v-15q0 -44 14 -65q4 -5 34 -34q15 -15 15 -28q0 -49 -107 -64q-88 -13 -321 -13q-423 0 -523 16q-130 21 -130 130q0 123 223 378l396 444h-344q-82 0 -192 -8z" />
  </g>

</svg>
