<?xml version="1.0" standalone="no"?>
<!DOCTYPE svg PUBLIC "-//W3C//DTD SVG 1.1//EN" "http://www.w3.org/Graphics/SVG/1.1/DTD/svg11.dtd" >
<svg xmlns="http://www.w3.org/2000/svg" xmlns:xlink="http://www.w3.org/1999/xlink" version="1.1" viewBox="0 -410 2048 2048">
  <g transform="matrix(1 0 0 -1 0 1638)">
   <path fill="currentColor"
d="M1057 1737h636l68 76l84 -54q40 -27 40 -49q0 -28 -77 -60v-624l51 -35q22 -15 22 -33q0 -20 -18 -20h-813v-38q0 -29 -48 -29q-56 0 -56 52l9 160v570q0 30 -9 167zM1050 994h663v685h-663v-685zM1124 765l91 -38q88 -37 88 -61q0 -19 -19 -26q-6 -2 -86 -12
q-74 -150 -148 -249q-96 -131 -257 -262l-24 30q142 145 225 299q73 135 130 319zM1534 745q181 -152 264 -251q154 -182 154 -284q0 -78 -53 -78q-42 0 -67 79q-48 152 -153 297q-35 50 -167 208zM543 1005q73 32 275 132l14 -34q-101 -72 -289 -178v-681q0 -81 -50 -122
q-33 -27 -105 -49q-12 70 -47 93q-33 21 -159 43l8 46q165 -27 201 -27q56 0 56 58v591q-134 -67 -201 -100l-6 -43q-5 -36 -27 -36q-15 0 -38 36l-73 114q184 47 345 120v465h-129q-153 -7 -167 -10l-38 90q93 -23 197 -23h137v297q0 117 -8 160l110 -24q85 -19 85 -46
q0 -29 -49 -42l-42 -11v-334h59l98 102l121 -107q17 -15 17 -25q0 -27 -27 -27h-268v-428z" />
  </g>

</svg>
