<?xml version="1.0" standalone="no"?>
<!DOCTYPE svg PUBLIC "-//W3C//DTD SVG 1.1//EN" "http://www.w3.org/Graphics/SVG/1.1/DTD/svg11.dtd" >
<svg xmlns="http://www.w3.org/2000/svg" xmlns:xlink="http://www.w3.org/1999/xlink" version="1.1" viewBox="0 -140 1000 1000">
  <g transform="matrix(1 0 0 -1 0 860)">
   <path fill="currentColor"
d="M892 707l57 -60l-4 -15l-44 -4l-75 -91l-15 8l40 112h-424q-7 -66 -25 -103q-9 -18 -26.5 -34.5t-27.5 -16.5t-19 14t-9 29q0 19 32 51q48 48 47 129l15 5q1 -4 6 -26.5t5 -25.5h171v127h-235v22h235v109l100 -18v-15l-35 -18l-1 -58h144l30 42h15l51 -48v-16h-240v-127
h192l25 28h15zM890 383l56 -56v-13h-296v-159q0 -63 -19.5 -84.5t-83.5 -28.5l-11 8v30l-91 28l1 18l78 -7q40 0 51 5t11 28v162h-300v23h300v101l49 -15l82 86h-315v23h327l33 32h16l61 -65l-6 -14l-57 -4l-123 -65l30 -8v-12l-33 -11v-48h189l36 46h15zM368 716v-15h-116
v-232l82 26l3 -17l-85 -47v-287q0 -51 -15 -66.5t-73 -27.5l-11 8v28l-74 27l3 14l62 -1q31 0 38 6t7 33v236l-83 -40l-2 -29l-13 -8l-47 81l145 45v251h-139l-1 23h140v214l107 -18v-15l-44 -18v-163h24l36 45h12z" />
  </g>

</svg>
