<?xml version="1.0" standalone="no"?>
<!DOCTYPE svg PUBLIC "-//W3C//DTD SVG 1.1//EN" "http://www.w3.org/Graphics/SVG/1.1/DTD/svg11.dtd" >
<svg xmlns="http://www.w3.org/2000/svg" xmlns:xlink="http://www.w3.org/1999/xlink" version="1.1" viewBox="0 -204 1024 1024">
  <g transform="matrix(1 0 0 -1 0 820)">
   <path fill="currentColor"
d="M36 730q43 -14 116 -14h34v160q0 58 -4 82q57 -7 99 -27q11 -4 11 -11q0 -8 -14 -13q-22 -6 -42 -9v-182h38l44 48q34 -23 66 -49q6 -5 6 -11q0 -14 -10 -14h-144v-221q8 3 15 5q52 16 125 48l4 -22q-58 -34 -102 -54q-23 -9 -42 -18v-316q0 -34 -18 -50q-13 -16 -40 -27
q-21 -11 -40 -11l-2 20q-2 10 -7 15q-7 11 -32 20q-25 12 -57 15v22q49 -14 90 -14q36 0 44 5q12 6 12 31v268q-40 -16 -84 -30q-10 -34 -16 -34t-46 78q60 11 110 24q18 3 36 8v238h-34q-71 -1 -98 -4zM434 946l62 -44h330l32 44q38 -24 53 -43q9 -7 9 -15q0 -9 -36 -30
v-358q0 -73 2 -97q2 -29 2 -45q0 -14 -11 -24q-15 -6 -23 -6q-18 0 -18 14v34h-98v-242q0 -16 6 -25q6 -8 20 -12q16 -3 65 -3q36 0 67 3q11 2 17 8q7 7 10 25q7 23 13 110l14 -4q4 -44 4 -88q0 -15 8 -26q8 -13 20 -18q8 -4 8 -14q0 -3 -3 -12q-6 -9 -20 -15q-20 -7 -54 -9
q-37 -4 -66 -4q-57 0 -84 4q-28 1 -41 8q-16 5 -25 19q-7 15 -7 23v272h-64q-9 -64 -20 -102q-11 -39 -34 -72q-22 -42 -56 -69q-32 -30 -82 -61q-51 -28 -128 -54l-8 18q71 28 111 58q37 20 68 52q30 28 50 60q18 34 28 70q12 40 17 100h-86v-34q0 -14 -18 -14q-9 0 -24 6
q-10 10 -10 24q0 16 3 45q5 24 5 97v376q0 39 -8 70zM486 404h350v140h-350v-140zM486 574h350v138h-350v-138zM486 742h350v130h-350v-130z" />
  </g>

</svg>
