<?xml version="1.0" standalone="no"?>
<!DOCTYPE svg PUBLIC "-//W3C//DTD SVG 1.1//EN" "http://www.w3.org/Graphics/SVG/1.1/DTD/svg11.dtd" >
<svg xmlns="http://www.w3.org/2000/svg" xmlns:xlink="http://www.w3.org/1999/xlink" version="1.1" viewBox="0 -120 1000 1000">
  <g transform="matrix(1 0 0 -1 0 880)">
   <path fill="currentColor"
d="M168 408q-32 -18 -66 -33l-7 -19q-4 -10 -11 -10t-12 14l-26 73l122 35v216h-113l-9 26h121v239l79 -9q18 -2 18 -13q0 -9 -15 -18l-17 -9v-190h21l38 50l62 -59v-17h-121v-197l131 43l4 -17q-72 -41 -135 -72v-317q0 -35 -41 -54q-31 -15 -48 -15q-4 0 -6 2q-2 3 -5 33
q0 8 -13 13l-46 18v14h95v273zM257 194q146 114 226 314h-82l-7 27h97q17 57 30 149h-144l-11 26h158q10 75 11 139h-129l-11 27h369l27 43l67 -49q8 -6 8 -13q0 -8 -13 -11l-17 -4v-132h25l39 60l63 -65v-21h-127v-216l-63 -13v53h-229q-23 -63 -58 -124l12 -10h299l26 37
l64 -39q14 -9 14 -17t-15 -12l-14 -3v-263l-66 -13v37l-308 -1v-41l-65 -12v272q-58 -63 -92 -91q-27 -23 -73 -51zM498 126h308v222h-308v-222zM585 684q-10 -74 -31 -149h219v149h-188zM590 710h183v139h-170q-10 -110 -13 -139z" />
  </g>

</svg>
