<?xml version="1.0" standalone="no"?>
<!DOCTYPE svg PUBLIC "-//W3C//DTD SVG 1.1//EN" "http://www.w3.org/Graphics/SVG/1.1/DTD/svg11.dtd" >
<svg xmlns="http://www.w3.org/2000/svg" xmlns:xlink="http://www.w3.org/1999/xlink" version="1.1" viewBox="0 -410 2048 2048">
  <g transform="matrix(1 0 0 -1 0 1638)">
   <path fill="currentColor"
d="M1165 1081q-48 -131 -138 -248l53 -39h609l68 76l84 -54q40 -26 40 -49q0 -27 -78 -61v-419l52 -31q22 -13 22 -36q0 -20 -17 -20h-787v-38q0 -29 -43 -29q-61 0 -61 51l8 162v364l1 35q0 11 -1 30q-142 -140 -348 -250l-15 36q206 137 310 268q83 104 144 252h-27
q-117 0 -192 -9l-38 89q100 -24 230 -24h47q22 73 57 294h-176q-116 0 -191 -8l-39 86q94 -21 230 -21h182q1 27 5 80q5 59 8 162l1 44h-104q-116 0 -191 -8l-39 87q96 -22 230 -22h586l68 76l84 -54q40 -25 40 -48q0 -28 -78 -62v-255h7l98 102l121 -107q17 -16 17 -26
q0 -26 -27 -26h-216v-263l52 -31q22 -13 22 -36q0 -20 -18 -20h-652zM1184 1137h487v294h-430q-19 -156 -57 -294zM1247 1488h424v286h-409q-1 -26 -2 -66q-3 -123 -13 -220zM1073 256h636v480h-636v-480zM342 868q-125 -48 -164 -61l-11 -42q-7 -32 -26 -32q-10 0 -27 32
l-69 130q126 20 242 49q26 7 55 14v493h-66q-117 0 -192 -8l-39 88q96 -22 231 -22h66v308q0 117 -8 159l109 -24q85 -18 85 -45q0 -28 -49 -42l-42 -12v-344h59l98 101l121 -107q17 -15 17 -25q0 -27 -27 -27h-268v-468q90 26 252 90l11 -36q-104 -70 -263 -132v-624
q0 -141 -154 -171q-12 70 -48 93q-33 22 -159 44l8 46q167 -28 201 -28q57 0 57 58v545z" />
  </g>

</svg>
