<?xml version="1.0" standalone="no"?>
<!DOCTYPE svg PUBLIC "-//W3C//DTD SVG 1.1//EN" "http://www.w3.org/Graphics/SVG/1.1/DTD/svg11.dtd" >
<svg xmlns="http://www.w3.org/2000/svg" xmlns:xlink="http://www.w3.org/1999/xlink" version="1.1" viewBox="0 -204 1024 1024">
  <g transform="matrix(1 0 0 -1 0 820)">
   <path fill="currentColor"
d="M304 896q-33 -15 -68 -26q-9 -3 -16 -4v-204h12l41 45q34 -25 64 -49q7 -4 7 -10q0 -14 -14 -14h-110v-192h40l41 45q34 -25 64 -49q7 -4 7 -10q0 -14 -14 -14h-138v-309q0 -35 -13 -52q-11 -17 -32 -26q-17 -11 -31 -11q-4 22 -14 36q-5 10 -24 19q-24 11 -54 13v26
q45 -15 82 -15q23 0 30 6q8 5 8 28v285h-27q-71 -2 -97 -7l-20 47q44 -12 117 -12h27v192h-11q-71 -2 -98 -7l-19 47q44 -12 117 -12h11v193q-12 -3 -24 -5q-37 -6 -93 -10l-7 23q29 3 62 10q31 7 60 18q31 10 53 22q22 10 36 24q12 8 22 19q38 -23 69 -47q5 -4 5 -8
q0 -12 -15 -12q-14 0 -36 7zM422 908q98 -20 98 -36q0 -15 -55 -18q-19 -87 -44 -147q-21 -62 -48 -109q-28 -51 -57 -86l-12 21q27 46 42 79q15 32 32 89q15 43 28 102q8 44 16 105zM358 550q40 -8 115 -8h76l35 37q36 -17 57 -39q9 -9 9 -18q0 -17 -44 -32
q0 -108 -10 -231q-11 -123 -27 -166q-9 -26 -22 -38q-9 -9 -23 -16q-22 -11 -50 -11q-1 16 -5 25q-2 8 -10 15q-17 12 -57 30l6 26q79 -29 91 -29q10 0 17 6q7 7 11 20q5 14 10 43q7 42 12 134q5 95 5 216h-73q-5 -71 -15 -128q-9 -63 -29 -112q-18 -57 -41 -100t-57 -80
q-36 -38 -86 -70l-15 19q51 42 80 83q29 38 49 80q18 40 32 83q13 46 23 106q6 48 11 119q-45 -2 -57 -7zM920 900q-35 -14 -71 -24q-5 -2 -9 -2v-200h28l41 45q34 -25 64 -49q7 -4 7 -10q0 -14 -14 -14h-126v-200h36l42 45q33 -25 63 -49q7 -4 7 -10q0 -14 -14 -14h-134
v-309q0 -35 -14 -52q-13 -18 -36 -26q-19 -11 -34 -11q-4 22 -15 36q-6 10 -27 19q-25 11 -58 13v26q50 -15 90 -15q28 0 37 6q9 5 9 28v285h-23q-71 -2 -97 -7l-20 47q44 -12 117 -12h23v200q-68 -2 -93 -7l-20 47q43 -12 113 -12v189q-19 -4 -35 -6q-39 -7 -98 -9l-7 23
q31 3 65 10q33 6 63 17q33 10 56 21q23 10 38 22q12 9 23 19q39 -23 69 -47q5 -4 5 -8q0 -11 -15 -11q-14 0 -36 6zM556 912q34 -53 61 -109q30 -50 48 -97q19 -47 27 -84q6 -33 6 -67q0 -18 -5 -27q-8 -12 -19 -12q-10 0 -16 12q-7 9 -12 54q-8 57 -23 111t-34 102
q-18 48 -49 105z" />
  </g>

</svg>
