<?xml version="1.0" standalone="no"?>
<!DOCTYPE svg PUBLIC "-//W3C//DTD SVG 1.1//EN" "http://www.w3.org/Graphics/SVG/1.1/DTD/svg11.dtd" >
<svg xmlns="http://www.w3.org/2000/svg" xmlns:xlink="http://www.w3.org/1999/xlink" version="1.1" viewBox="0 -410 2048 2048">
  <g transform="matrix(1 0 0 -1 0 1638)">
   <path fill="currentColor"
d="M352 1487v314q0 118 -7 160l109 -24q85 -19 85 -46q0 -29 -49 -42l-42 -11v-351h106l80 81l114 -90q17 -13 17 -26q0 -26 -27 -26h-290v-441q78 25 252 92l13 -36q-108 -62 -265 -132v-670q0 -142 -155 -170q-11 70 -47 92q-32 21 -159 44l6 46q168 -27 202 -27
q57 0 57 57v588q-100 -38 -163 -63l-6 -47q-4 -32 -20 -32t-38 32l-77 115q164 36 304 80v472h-68q-128 0 -191 -11l-39 94q99 -22 230 -22h68zM1566 1292l125 -59q27 -12 27 -29q0 -23 -33 -27l-53 -7q-96 -148 -186 -231l-26 27q101 148 146 326zM1014 1290
q185 -150 185 -244q0 -39 -26 -64q-14 -13 -31 -13q-35 0 -44 65q-16 110 -110 234zM766 1626l-38 88q92 -22 230 -22h322v102q0 120 -8 160l109 -24q86 -19 86 -46q0 -28 -50 -42l-41 -11v-139h374l98 102l120 -107q17 -15 17 -26q0 -27 -27 -27h-582v-218h358l60 76
l84 -54q40 -26 40 -49q0 -27 -78 -61v-231q0 -110 6 -208q2 -60 2 -70q0 -66 -64 -66q-34 0 -34 24v58h-328q124 -241 298 -395q133 -119 256 -159v-32q-49 -1 -76 -9q-37 -11 -70 -55q-111 76 -228 226q-101 128 -226 402v-431q0 -96 12 -209q3 -32 3 -50q0 -46 -55 -46
q-56 0 -56 42v664q-134 -223 -275 -353q-149 -137 -375 -269l-23 35q253 162 426 382q102 130 161 257h-266v-58q-2 -24 -37 -24q-57 0 -57 47l1 13l1 57l4 99v401q-1 65 -11 125l115 -79h336v218h-322q-114 0 -192 -8zM928 891h352v471h-352v-471zM1376 1362v-471h374v471
h-374z" />
  </g>

</svg>
