<?xml version="1.0" standalone="no"?>
<!DOCTYPE svg PUBLIC "-//W3C//DTD SVG 1.1//EN" "http://www.w3.org/Graphics/SVG/1.1/DTD/svg11.dtd" >
<svg xmlns="http://www.w3.org/2000/svg" xmlns:xlink="http://www.w3.org/1999/xlink" version="1.1" viewBox="0 -200 1000 1000">
  <g transform="matrix(1 0 0 -1 0 800)">
   <path fill="currentColor"
d="M434 647q-11 -15 -27.5 -33t-43.5 -38l-6 12q36 50 65.5 102t52.5 101.5t38.5 95t23.5 82.5l71 -52l-26 -25q-8 -10 -13 -23t-14 -26h148l38 43l58 -68l-38 -21q-6 -7 -15.5 -19t-21 -27t-23.5 -32.5t-23 -34.5h135l36 47l55 -56l-28 -41v-278l-24.5 -17.5t-24.5 -10.5
v333h-327l-15 -36v-275q-14 -9 -25.5 -15.5t-25.5 -8.5v321zM680 345q-3 -14 -4.5 -30t-5.5 -34h173l48 52l73 -73h-255q30 -56 61.5 -95t64.5 -65t68 -39.5t71 -17.5v-11q-35 -7 -56 -22.5t-23 -32.5q-73 44 -124 110.5t-82 172.5h-23q-38 -132 -119.5 -202.5t-211.5 -91.5
v16q114 43 180.5 109.5t95.5 168.5h-130l-55 -14l-26 35h215q4 22 6 40t2 34q0 30 -4 43l74 -29l-16 -39zM545 822q-14 -23 -28.5 -51.5t-36.5 -66.5l18 -20h157l57 136h-167v2zM663 530q-15 -10 -28.5 -20.5t-24.5 -24.5q-11 -13 -33 -38t-64 -70l-13 8q42 70 65.5 119
t27.5 78zM695 573q38 -29 63.5 -50.5t36.5 -37.5q13 -13 13 -34q0 -16 -10 -35q-8 -18 -17 -18q-10 0 -18 29q-8 25 -27 60.5t-49 74.5zM262 456v-377q0 -43 -18 -69t-63 -44q-5 15 -11.5 27.5t-18 23t-30 19t-46.5 14.5v15q32 -8 55.5 -11t38.5 -3q12 0 13 1q14 2 21 13
t7 27v328l-119 -84l-52 57l171 78v209h-64l-59 -14l-26 35h149v269l71 -29l-19 -63v-177h29l47 44l69 -65h-145v-189l115 57l9 -9z" />
  </g>

</svg>
