<?xml version="1.0" standalone="no"?>
<!DOCTYPE svg PUBLIC "-//W3C//DTD SVG 1.1//EN" "http://www.w3.org/Graphics/SVG/1.1/DTD/svg11.dtd" >
<svg xmlns="http://www.w3.org/2000/svg" xmlns:xlink="http://www.w3.org/1999/xlink" version="1.1" viewBox="0 -204 1024 1024">
  <g transform="matrix(1 0 0 -1 0 820)">
   <path fill="currentColor"
d="M32 750q44 -11 118 -11h10v137q0 57 -6 81q56 -7 99 -27q10 -4 10 -11q0 -9 -12 -13q-21 -6 -43 -10v-157h19l41 45q34 -26 65 -49q7 -4 7 -10q0 -15 -14 -15h-118v-235q6 4 12 7q48 24 112 66l4 -21q-49 -46 -87 -74q-23 -14 -41 -27v-324q0 -36 -14 -52
q-12 -18 -33 -27q-19 -10 -33 -10q-5 25 -16 38q-8 9 -25 16q-25 11 -55 13v26q47 -14 86 -14q25 0 33 6q9 5 9 29v268q-31 -20 -62 -33q-11 -37 -17 -37q-8 0 -49 84q54 12 98 31q15 6 30 11v259h-10q-72 -2 -99 -7zM601 953q25 -13 42 -27q22 -11 34 -23q13 -12 18 -21
q4 -8 4 -15q0 -22 -6 -33h184l29 32q35 -26 64 -54q3 -5 3 -7q0 -7 -20 -11q-15 -4 -30 -7q-16 -19 -35 -41q-22 -24 -43 -42l-18 13q21 25 32 47q13 23 20 42h-134v-62q0 -40 3 -49q3 -11 11 -18q13 -7 35 -11q26 -5 57 -5q16 0 40 4q12 2 20 10q7 4 9 4q18 0 27 -8
q14 -8 14 -20q0 -8 -4 -10q-2 -5 -11 -9q-12 -4 -41 -8q-32 -4 -51 -4q-41 0 -81 8q-38 4 -49 15q-9 5 -14 16q-5 9 -8 28q-1 15 -1 57v62h-99q0 -26 -4 -48q-4 -30 -15 -50q-11 -24 -28 -45q-18 -20 -40 -37q-26 -16 -59 -32q-31 -12 -72 -21l-12 18q55 17 83 32
q25 16 47 35q20 19 32 43q12 19 18 47q3 23 3 58h-119q-1 -18 -3 -33q-4 -29 -12 -47q-5 -17 -15 -27q-9 -11 -17 -14q-7 -3 -13 -3q-25 0 -25 16q0 7 10 19q25 30 36 52q11 19 18 46q6 24 8 65l12 -2q2 -23 2 -44h218l-2 6q-6 19 -15 34q-10 17 -23 33q-12 13 -31 32z
M827 536q-94 -18 -201 -30q-72 -9 -157 -13l-1 -6v-94q0 -57 -7 -106q-3 -44 -18 -89q-10 -36 -26 -66q-16 -29 -40 -55q-22 -21 -60 -45l-14 12q25 18 42 42q16 20 30 44q12 25 22 60q11 39 16 80q7 54 7 123q1 99 -4 158l54 -35q117 14 216 40q75 19 111 45q53 -27 83 -50
q8 -5 8 -11q0 -11 -16 -13q-5 0 -18 4q-8 5 -27 5zM596 464q50 -7 84 -18q8 -2 8 -11q0 -7 -14 -13q-18 -5 -32 -7q-2 -77 -7 -158q-4 -72 -9 -140q27 5 58 15q29 7 60 18q-18 32 -49 65l15 17q48 -33 74 -67q25 -25 36 -53q8 -18 8 -37q0 -36 -24 -36q-7 0 -13 8
q-6 5 -13 24q-10 33 -20 57q-26 -17 -45 -27q-26 -14 -49 -25q-22 -11 -47 -17q-10 -38 -17 -38t-48 84q12 1 26 3q8 108 13 187q4 96 5 169zM830 460q0 -75 13 -135q11 -60 29 -99q18 -43 50 -77q29 -34 82 -62l-7 -11q-36 0 -54 -27q-43 33 -67 72q-25 41 -37 85
q-17 49 -25 108q-6 49 -6 138z" />
  </g>

</svg>
