<?xml version="1.0" standalone="no"?>
<!DOCTYPE svg PUBLIC "-//W3C//DTD SVG 1.1//EN" "http://www.w3.org/Graphics/SVG/1.1/DTD/svg11.dtd" >
<svg xmlns="http://www.w3.org/2000/svg" xmlns:xlink="http://www.w3.org/1999/xlink" version="1.1" viewBox="0 -204 1024 1024">
  <g transform="matrix(1 0 0 -1 0 820)">
   <path fill="currentColor"
d="M36 756q42 -12 110 -12v136q0 59 -4 80q57 -5 99 -25q11 -4 11 -11q0 -9 -14 -13q-22 -6 -42 -9v-158h30l40 42q30 -23 55 -43q7 -4 7 -9q0 -18 -14 -18h-118v-217q3 2 6 3q42 23 96 60l4 -22q-42 -40 -75 -62q-16 -15 -31 -25v-341q0 -34 -15 -50q-11 -16 -30 -27
t-31 -11l-2 22q-2 9 -6 13q-9 11 -27 20q-23 12 -49 15v22q42 -14 76 -14q20 0 26 5q8 6 8 31v284q-22 -15 -48 -24q-10 -38 -14 -38q-8 0 -48 82q48 9 86 27q12 4 24 9v238q-66 -1 -92 -4zM328 774q36 -12 91 -13q1 19 1 35q0 122 -4 162q49 -4 77 -11q16 -4 15 -15
q1 -9 -13 -14q-13 -4 -27 -12q0 -82 -1 -146h19l40 40q31 -20 59 -42q7 -4 7 -10q0 -14 -12 -14h-113q-2 -99 -6 -154h35l40 40q29 -20 57 -42q5 -4 5 -8q0 -16 -10 -16h-130q-7 -74 -18 -127q46 -36 74 -73q30 -36 42 -71q10 -22 10 -47q0 -28 -18 -28q-8 0 -17 9
q-6 6 -14 30q-17 61 -39 97q-15 29 -42 60q-14 -77 -39 -132q-22 -58 -59 -102q-39 -53 -86 -84l-12 18q49 44 75 92q28 44 49 105q18 48 30 122q12 58 16 131q-61 -3 -82 -6l-22 44q41 -11 106 -12q6 69 7 154q-51 -2 -73 -4zM610 950l62 -44h190l34 44q36 -24 51 -43
q7 -7 7 -15q0 -9 -34 -30v-354q0 -73 2 -97q2 -28 2 -47q0 -12 -12 -21q-14 -7 -20 -7q-22 0 -22 14v26h-44v-230q0 -14 3 -25q4 -9 11 -13q9 -4 33 -4q17 0 28 4q6 1 8 8q2 6 4 22q2 20 7 98l16 -4q2 -36 2 -72q0 -15 6 -25q8 -14 24 -20q8 -5 8 -13q0 -3 -3 -10
q-3 -11 -15 -17q-11 -8 -31 -10q-25 -3 -42 -3q-39 0 -58 2q-17 1 -27 9q-13 6 -17 22q-5 12 -5 21v260h-25q-9 -47 -20 -85q-11 -45 -38 -78q-23 -41 -55 -72q-31 -33 -76 -56q-47 -29 -112 -53l-18 22q71 28 110 56q40 29 66 57q27 28 44 60q20 32 31 74q9 31 15 75h-36
v-26q0 -14 -22 -14q-7 0 -20 7q-12 9 -12 21q0 19 3 47q7 24 7 97v372q0 39 -10 70zM664 404h206v150h-206v-150zM664 580h206v136h-206v-136zM664 744h206v132h-206v-132z" />
  </g>

</svg>
