<?xml version="1.0" standalone="no"?>
<!DOCTYPE svg PUBLIC "-//W3C//DTD SVG 1.1//EN" "http://www.w3.org/Graphics/SVG/1.1/DTD/svg11.dtd" >
<svg xmlns="http://www.w3.org/2000/svg" xmlns:xlink="http://www.w3.org/1999/xlink" version="1.1" viewBox="0 -120 1000 1000">
  <g transform="matrix(1 0 0 -1 0 880)">
   <path fill="currentColor"
d="M92 358l-5 -15q-4 -12 -11 -12q-6 0 -11 12l-29 68l102 35v244l-95 -1l-9 25l104 1v238l69 -7q24 -3 24 -16q0 -6 -11 -13l-21 -13v-189h26l31 57l50 -65l-1 187l79 -44h442l44 62l83 -67v-19h-587l1 -197l163 -1q17 52 40 181l73 -28q7 -2 7 -10t-7 -10l-17 -6l-68 -127
h48l31 52l51 -56v-20h-143l1 -271h40v214l61 -4q15 -1 15 -12q0 -6 -8 -10l-18 -10l1 -247l-51 -13v58h-43q-10 -102 -52 -164q-40 -57 -102 -92l-8 13q105 97 108 245h-38v-66l-51 -12v316l61 -5q13 -1 13 -13q0 -6 -10 -13l-13 -9l1 -176h38l1 271h-123l-2 -50
q-3 -150 -13 -224q-22 -157 -133 -275l-13 8q62 101 82 209q14 75 18 216l-108 -67l1 -295q0 -31 -19 -47q-17 -14 -43 -21q-12 -3 -18 -3q-4 0 -7 2q-4 2 -4 24q0 15 -23 23l-37 13v17h91v250zM199 690l1 -222l107 43l-1 179h-107zM413 795q85 -50 85 -107q0 -21 -13 -33
q-9 -8 -20 -8q-8 0 -14 5q-9 7 -15 50q-4 26 -30 84zM577 61q79 74 114 148q26 53 37 108q14 72 14 216v33q-35 -83 -75 -156l-14 7q41 119 57 203q18 90 26 181l79 -22q9 -2 9 -11q0 -7 -7 -10l-19 -8l-39 -132l109 -1l18 38l71 -57q6 -5 6 -10q0 -7 -11 -10l-21 -4
q-11 -23 -41 -88q-20 -45 -35 -71l-15 5q20 93 32 173h-77v-89q0 -147 76 -276q43 -73 88 -119l-6 -11q-8 1 -12 1q-18 0 -29 -9q-8 -7 -18 -27q-67 106 -106 286q-14 -96 -65 -170q-55 -81 -137 -129z" />
  </g>

</svg>
