<?xml version="1.0" standalone="no"?>
<!DOCTYPE svg PUBLIC "-//W3C//DTD SVG 1.1//EN" "http://www.w3.org/Graphics/SVG/1.1/DTD/svg11.dtd" >
<svg xmlns="http://www.w3.org/2000/svg" xmlns:xlink="http://www.w3.org/1999/xlink" version="1.1" viewBox="0 -200 1000 1000">
  <g transform="matrix(1 0 0 -1 0 800)">
   <path fill="currentColor"
d="M384 539l-8 9l-112 -57v189h141l-68 64l-46 -43h-27v176l23 63l-75 29v-268h-146l25 -35l58 14h63v-209l-168 -78l51 -57l117 84v-327q0 -16 -6.5 -27t-20.5 -13q-1 -1 -13 -1q-15 0 -37.5 3t-54.5 11v-15q27 -6 45 -14.5t29.5 -19t18 -23t11.5 -27.5q45 18 62.5 44
t17.5 69v376zM443 939q87 -58 100 -88q4 -7 4 -24q0 -11 -2 -22t-5.5 -21t-8 -16t-9.5 -6t-11 6.5t-11 23.5q-6 29 -22.5 65t-44.5 74zM604 970l62 -26l-14 -55v-149h29q40 75 62 126.5t28 81.5l69 -60q-37 -7 -138 -148h91l52 45l66 -67h-230q57 -60 114.5 -94.5
t120.5 -39.5v-12q-22 -3 -35.5 -16.5t-33.5 -36.5q-60 39 -105 87.5t-76 111.5h-14v-180q-12 -8 -20.5 -15t-27.5 -12v199q-15 -33 -43.5 -67.5t-62.5 -65t-69 -55t-62 -38.5l-8 13q66 57 110.5 109t76.5 112h-72q-22 0 -39 -3t-34 -10l-25 35h228v230zM321 -16
q73 66 135.5 167t104.5 245h-90q-8 -14 -19 -30.5t-21 -33.5q33 -27 50.5 -45t17.5 -39q0 -13 -6 -28q-11 -24 -21 -24q-9 0 -13 18q-3 9 -6 22.5t-7 28.5t-9.5 29.5t-12.5 25.5q-22 -36 -76 -81l-10 11q57 88 91.5 161t44.5 133l68 -44l-25 -24q-8 -11 -18 -25t-21 -34h84
l30 29l53 -59l-34 -25q-25 -57 -53.5 -115.5t-63 -111t-76 -96t-92.5 -71.5zM709 319l-27 -33l-26 -64h93v174h-16q-22 0 -39.5 -4t-32.5 -10l-28 35h116v136l63 -25l-15 -44v-67h35l35 38l60 -59h-130v-174h50l40 43l64 -65h-154l1 -201q-11 -11 -24.5 -16t-24.5 -8v225
h-95l-28 -23l-37 53q6 4 14.5 6t13.5 10l41 109z" />
  </g>

</svg>
