<?xml version="1.0" standalone="no"?>
<!DOCTYPE svg PUBLIC "-//W3C//DTD SVG 1.1//EN" "http://www.w3.org/Graphics/SVG/1.1/DTD/svg11.dtd" >
<svg xmlns="http://www.w3.org/2000/svg" xmlns:xlink="http://www.w3.org/1999/xlink" version="1.1" viewBox="0 -120 1000 1000">
  <g transform="matrix(1 0 0 -1 0 880)">
   <path fill="currentColor"
d="M96 364v-10q0 -16 -12 -16q-8 0 -22 26l-27 52l116 46v245h-94l-12 28h106v224l57 -9q33 -5 35 -9q3 -3 3 -8q0 -9 -12 -16l-23 -12v-170h27l40 51l67 -54v-25h-134v-217l90 43l8 -15l-98 -71v-314q0 -29 -15 -41q-34 -30 -63 -30q-10 0 -13 5q-4 6 -5 25q-2 18 -5 18
q-3 3 -14 5l-45 8v21h100v260zM472 449l54 -26q23 -11 23 -20t-13 -14l-14 -6q-10 -43 -38 -105q-39 -90 -139 -167q-47 -35 -91 -56l-4 16q73 58 121 117q62 77 87 189l-117 -63v-11q0 -14 -11 -14q-10 0 -25 28l-23 45l56 15q28 50 61 127q36 85 56 148l61 -29
q14 -7 14 -14q0 -9 -14 -11l-11 -2q-67 -116 -142 -214l102 27zM376 615q23 -22 23 -47q0 -40 -24 -40q-7 0 -12 4q-4 3 -27 47q-19 32 -54 57l8 12q28 -5 61 -22q47 109 61 150l46 -29q22 -14 22 -21q0 -9 -13 -8h-3l-13 2zM351 797l-15 28h242v138l73 -10q22 -3 22 -13
q0 -7 -19 -18l-13 -9v-88h187l44 50l76 -58v-20h-597zM574 545l-64 -73l-17 12q41 53 75 133q24 53 40 103t18 57l56 -27q24 -11 24 -18q0 -10 -15 -13l-11 -2l-59 -104h103q21 48 46 153l61 -26q21 -9 21 -17q0 -7 -15 -10l-12 -3l-75 -97h75l34 45l66 -50v-22h-148v-119
h34l34 44l65 -50l-1 -20h-132v-122h39l35 45l64 -50v-23h-138v-129h57l40 53l74 -59v-22h-318v-56l-56 -13v480zM630 162h93v129h-93v-129zM630 441v-122h93v122h-93zM630 467h93v119h-93v-119z" />
  </g>

</svg>
