<?xml version="1.0" standalone="no"?>
<!DOCTYPE svg PUBLIC "-//W3C//DTD SVG 1.1//EN" "http://www.w3.org/Graphics/SVG/1.1/DTD/svg11.dtd" >
<svg xmlns="http://www.w3.org/2000/svg" xmlns:xlink="http://www.w3.org/1999/xlink" version="1.1" viewBox="0 -410 2048 2048">
  <g transform="matrix(1 0 0 -1 0 1638)">
   <path fill="currentColor"
d="M1591 974l104 -46q29 -13 29 -30q0 -20 -34 -24l-53 -6q-72 -107 -127 -161h172l80 81l113 -86q18 -14 18 -26q0 -26 -27 -26h-495v-189h398l80 80l114 -85q17 -13 17 -26q0 -26 -27 -26h-582v-46q0 -99 11 -208q4 -32 4 -50q0 -46 -55 -46q-57 0 -57 41v309h-394
q-68 0 -147 -11l-39 86q124 -18 186 -18h394v189h-308q-68 0 -149 -11l-39 86q121 -18 188 -18h169q-27 10 -37 26q-5 10 -17 50q-25 91 -124 180l12 11h-61q-66 0 -148 -11l-39 86q125 -18 187 -18h370v182h-263q-68 0 -149 -11l-39 86q125 -18 188 -18h263v149h-398v-26
q-9 -37 -71 -37q-34 0 -34 28l9 74v424l120 -64h858l62 72l72 -50q43 -29 43 -50q0 -16 -64 -52v-269q0 -16 3 -38q2 -19 2 -30q0 -47 -59 -47q-46 0 -46 36v29h-399v-149h226l80 80l114 -85q17 -13 17 -26q0 -26 -27 -26h-410v-182h378l80 81l114 -86q17 -13 17 -26
q0 -26 -27 -26h-347zM1446 707q89 155 115 267h-550q178 -119 178 -210q0 -46 -39 -57h296zM880 1473h224v287h-224v-287zM1200 1473h232v287h-232v-287zM1528 1473h247v287h-247v-287zM349 864q-84 -29 -150 -52l-9 -45q-7 -34 -27 -34q-12 0 -32 37l-68 128q101 14 286 54
v477h-70q-73 0 -148 -9l-40 85q27 -4 40 -6q86 -12 148 -12h70v306q0 123 -7 160l108 -24q86 -19 86 -45q0 -29 -49 -42l-43 -11v-344h54l80 80l114 -86q17 -13 17 -26q0 -26 -27 -26h-238v-455q72 19 234 72l10 -37q-105 -58 -244 -111v-650q0 -142 -155 -171
q-12 70 -48 93q-32 21 -159 44l9 46q168 -28 201 -28q57 0 57 58v574z" />
  </g>

</svg>
