<?xml version="1.0" standalone="no"?>
<!DOCTYPE svg PUBLIC "-//W3C//DTD SVG 1.1//EN" "http://www.w3.org/Graphics/SVG/1.1/DTD/svg11.dtd" >
<svg xmlns="http://www.w3.org/2000/svg" xmlns:xlink="http://www.w3.org/1999/xlink" version="1.1" viewBox="0 -140 1000 1000">
  <g transform="matrix(1 0 0 -1 0 860)">
   <path fill="currentColor"
d="M574 874l-5 -15h-30l-35 -51h129l53 131l69 -44l-4 -14h-30l-66 -73h148l47 59h12l66 -66v-15h-259v-94h105l48 60h14l65 -66v-17h-232v-75h105l48 59h14l65 -66v-15h-232v-77h158l48 59h13l65 -67v-15h-502q0 -20 -5 -30l-48 -13l-8 7v224q-21 -29 -70 -78l-12 10
q95 127 181 330zM609 786h-118l-40 -53v-41h158v94zM609 669h-158v-75h158v75zM609 572h-158v-77h158v77zM517 394l31 36h14l57 -50v-15l-27 -18v-88h84v165l68 -30h99l35 36h14l61 -50v-15l-27 -18v-172q0 -68 -17 -87t-93 -34l-13 6v27l-86 39l2 13l103 -9q21 -3 30.5 5.5
t9.5 39.5v197h-126v-157l-6 -9l-44 -12l-10 6v36h-84v-25l-6 -9l-44 -13l-10 7v176h-117v-296l-8 -10l-45 -12l-8 8v362l67 -30h96zM167 703v224l99 -20v-14l-35 -17v-173h21l46 56h13l48 -60v-16h-128v-177l99 61l5 -19l-104 -85v-279q0 -75 -15 -95t-79 -31l-12 7l-1 28
l-75 30l2 14l76 -9q5 -1 17 -1q15 0 19 7.5t4 28.5v256l-54 -47l2 -25l-12 -13l-59 75l123 68v206h-118v20h118z" />
  </g>

</svg>
