<?xml version="1.0" standalone="no"?>
<!DOCTYPE svg PUBLIC "-//W3C//DTD SVG 1.1//EN" "http://www.w3.org/Graphics/SVG/1.1/DTD/svg11.dtd" >
<svg xmlns="http://www.w3.org/2000/svg" xmlns:xlink="http://www.w3.org/1999/xlink" version="1.1" viewBox="0 -204 1024 1024">
  <g transform="matrix(1 0 0 -1 0 820)">
   <path fill="currentColor"
d="M32 734q44 -12 117 -12h19v154q0 57 -6 80q56 -7 99 -26q11 -4 11 -11q0 -10 -13 -14q-20 -6 -43 -10v-173h16l38 41q31 -24 59 -45q7 -5 7 -10q0 -14 -13 -14h-107v-198q3 2 6 3q47 22 110 61l4 -22q-48 -43 -86 -67q-18 -13 -34 -23v-335q0 -35 -14 -52
q-13 -17 -36 -26q-19 -11 -34 -11q-5 26 -16 38q-7 9 -24 17q-25 11 -56 13v26q47 -15 86 -15q28 0 37 6q9 5 9 28v282q-31 -19 -65 -33q-11 -37 -18 -37q-8 0 -49 84q54 11 97 28q18 6 35 13v220h-19q-71 -2 -97 -7zM350 944l63 -30h139l35 33q51 -36 51 -50q0 -10 -30 -25
v-147q0 -23 1 -30q1 -8 1 -16q0 -21 -34 -27q-16 0 -16 10v8h-162q-4 -5 -10 -8q-15 -6 -25 -6q-13 0 -13 14q0 4 1 14q1 23 1 42v150q0 49 -2 68zM400 698h160v44h-160v-44zM400 770h160v44h-160v-44zM400 842h160v44h-160v-44zM686 944l63 -30h147l35 33q51 -36 51 -50
q0 -10 -30 -25v-155q0 -23 1 -30q1 -8 1 -16q0 -21 -34 -27q-16 0 -16 10v16h-170q-4 -5 -10 -8q-15 -6 -25 -6q-13 0 -13 14q0 4 1 14q1 23 1 42v150q0 49 -2 68zM736 698h168v44h-168v-44zM736 770h168v44h-168v-44zM736 842h168v44h-168v-44zM431 651q45 -13 81 -30
q6 -5 6 -10q0 -10 -12 -14q-21 -6 -38 -6q-4 -9 -10 -16h204v1q-3 11 -8 22q-6 11 -12 21l-18 21l18 14q14 -7 25 -14q12 -6 20 -13q7 -6 10 -10q3 -5 3 -9q0 -21 -6 -32l-1 -1h143l37 38q30 -22 56 -43q7 -4 7 -9q0 -14 -12 -14h-244v-49h132l34 34l52 -40q6 -3 6 -8
q0 -14 -12 -14h-212v-49h140l34 34l52 -40q6 -3 6 -8q0 -14 -12 -14h-220v-49h180l37 38q30 -22 56 -43q7 -4 7 -9q0 -14 -12 -14h-485q-2 -28 -27 -28t-25 16q0 19 3 50q4 31 4 55v110q-7 -9 -14 -17q-17 -20 -37 -37q-17 -16 -46 -33l-17 13q28 23 47 48q22 28 40 60
q19 32 32 64q6 16 8 34zM463 344h169v49h-170v-19q0 -21 1 -29v-1zM632 421v49h-170v-49h170zM632 498v49h-170v-49h170zM404 276q40 -8 115 -8h274l39 32q29 -14 49 -39q7 -8 7 -16q0 -10 -16 -17q-18 -3 -31 -6q-57 -55 -129 -91l37 -10q64 -18 128 -27q55 -11 115 -15
v-13q-61 0 -73 -38q-87 15 -142 34q-70 19 -122 43q-60 -24 -130 -41q-103 -25 -255 -36l-14 25q157 14 242 36q60 16 112 38q-41 20 -71 42q-44 33 -76 70q-31 -2 -41 -6zM501 240q30 -26 57 -42q39 -24 83 -42q9 -4 18 -7q63 34 126 91h-284z" />
  </g>

</svg>
