<?xml version="1.0" standalone="no"?>
<!DOCTYPE svg PUBLIC "-//W3C//DTD SVG 1.1//EN" "http://www.w3.org/Graphics/SVG/1.1/DTD/svg11.dtd" >
<svg xmlns="http://www.w3.org/2000/svg" xmlns:xlink="http://www.w3.org/1999/xlink" version="1.1" viewBox="0 -120 1000 1000">
  <g transform="matrix(1 0 0 -1 0 880)">
   <path fill="currentColor"
d="M37 81q37 91 52 186q6 35 11 141q4 89 3 115q-1 11 -1 13l-4 385l81 -44h249l42 56l83 -63v-17h-389l2 -297h263l41 57l80 -64q65 189 87 395l93 -23q12 -3 12 -12q0 -7 -10 -11l-27 -10q-26 -94 -61 -190h186l42 63l80 -70v-19l-122 1l54 -20q11 -4 11 -10t-10 -10
l-22 -11q-36 -189 -98 -323q70 -89 199 -180l-6 -9q-26 -4 -38 -11q-10 -6 -27 -23q-81 62 -164 175q-61 -71 -141 -125q-75 -50 -141 -74l-7 17q81 41 140 94q64 57 120 142q-43 84 -58 126q-22 59 -40 159q-37 -78 -62 -118l-14 7l19 53h-259v-325q66 26 134 58
q-39 80 -107 153l8 9q63 -38 110 -87q48 63 85 122l62 -44q9 -6 9 -12q0 -9 -13 -9l-18 1l-112 -71q68 -86 68 -137q0 -22 -14 -34q-10 -9 -20 -9q-13 0 -20 14q-2 3 -16 48q-7 18 -13 36l-225 -148l-7 -20q-3 -10 -10 -10q-6 0 -11 9l-41 78l94 31v347h-64q-2 -44 -3 -65
q-5 -94 -12.5 -141.5t-26.5 -105.5q-23 -69 -71 -151zM633 672l-16 -41q20 -100 56 -181q24 -51 54 -97q54 123 74 320zM504 701h-291l-11 25h187l45 52l70 -57v-20z" />
  </g>

</svg>
