<?xml version="1.0" standalone="no"?>
<!DOCTYPE svg PUBLIC "-//W3C//DTD SVG 1.1//EN" "http://www.w3.org/Graphics/SVG/1.1/DTD/svg11.dtd" >
<svg xmlns="http://www.w3.org/2000/svg" xmlns:xlink="http://www.w3.org/1999/xlink" version="1.1" viewBox="0 -204 1024 1024">
  <g transform="matrix(1 0 0 -1 0 820)">
   <path fill="currentColor"
d="M436 968q24 -10 44 -21q21 -10 34 -19t18 -16t5 -13q0 -19 -5 -29h269l50 57q41 -30 77 -59q9 -5 9 -12q0 -14 -17 -14h-150q-62 -67 -118 -106q-46 -33 -99 -60q11 -4 21 -7q90 -26 202 -41q98 -14 208 -14v-22q-39 -5 -55 -41q-135 18 -224 39q-93 23 -176 54l-22 9
l-28 -12q-105 -42 -201 -66q-91 -22 -221 -35l-8 23q118 12 206 37q95 27 195 73l6 3q-36 18 -67 36q-62 33 -125 88l20 11q58 -45 131 -80q38 -19 82 -35q66 33 108 62q44 33 90 84h-505q-71 -2 -97 -7l-20 47q44 -12 117 -12h300q-5 15 -16 30q-10 14 -23 26
q-12 13 -33 28zM48 498q44 -12 117 -12h671l47 53q38 -29 72 -55q9 -6 9 -12q0 -14 -16 -14h-416q-13 -28 -30 -53q-15 -25 -36 -51h371l31 38q37 -23 55 -43q7 -7 7 -13q0 -9 -39 -32v-192q0 -35 -14 -52q-13 -16 -35 -25q-20 -11 -34 -11q-3 22 -12 35q-11 15 -23 20
q-22 11 -49 13v26q52 -15 94 -15q16 0 20 5q6 6 6 26v188l-1 4h-187v-192q0 -23 1 -31v-29q0 -35 -30 -35q-26 0 -26 19q0 20 3 54q4 34 4 60v154h-188v-192q0 -23 1 -31v-29q0 -35 -30 -35q-26 0 -26 19q0 20 3 54q4 34 4 60v154h-173l-3 -8v-282q0 -12 -16 -12q-9 0 -24 6
q-12 9 -12 24q0 18 3 47q4 22 4 97v120q0 41 -7 71l50 -35h236q14 26 24 54q11 27 16 50h-305q-71 -2 -97 -7z" />
  </g>

</svg>
