<?xml version="1.0" standalone="no"?>
<!DOCTYPE svg PUBLIC "-//W3C//DTD SVG 1.1//EN" "http://www.w3.org/Graphics/SVG/1.1/DTD/svg11.dtd" >
<svg xmlns="http://www.w3.org/2000/svg" xmlns:xlink="http://www.w3.org/1999/xlink" version="1.1" viewBox="0 -200 1000 1000">
  <g transform="matrix(1 0 0 -1 0 800)">
   <path fill="currentColor"
d="M746 964l72 -47l-22 -69v-462l44 11l29 56l91 -53l-164 -45v-351q-13 -37 -50 -37v376l-224 -61l-50 -35l-56 34l330 91v592zM622 445q0 -12 -12 -25t-23 -13q-4 0 -12.5 25t-20 60t-25 72.5t-27.5 63.5l-2 7q54 -47 90 -86t36 -77q0 -16 -4 -23v-4zM531 874
q66 -45 101.5 -82.5t35.5 -75.5q0 -14 -5 -24.5t-11.5 -18.5t-13 -12t-9.5 -4q-1 0 -10 25t-23.5 59.5t-32 70.5t-35.5 58l3 3v1zM746 964l-1 1h1v-1zM276 510q24 -14 49 -31.5t46 -36t35.5 -37t16.5 -33.5q1 -5 1 -8.5v-7.5q0 -20 -8.5 -31t-19.5 -11t-20.5 10t-11.5 33
q-18 48 -40.5 79t-47.5 59v-500q-9 -13 -20 -19.5t-28 -6.5h-6v487q-13 -37 -29 -75.5t-36 -75t-44 -70t-53 -60.5l-11 7q57 88 92 184.5t52 202.5h-71l-49 -13l-21 37h170v377l78 -31l-24 -61v-213q45 63 68 111.5t28 76.5l71 -48l-31 -20l-132 -144l-4 -48h76l51 46
l69 -70h-196v-59zM76 845q29 -21 47.5 -41.5t29.5 -37.5t16 -28.5t6 -14.5q1 -1 1 -15q0 -23 -10.5 -36.5t-23.5 -13.5q-10 0 -18 9.5t-10 31.5q-2 24 -11 58t-35 83z" />
  </g>

</svg>
