<?xml version="1.0" standalone="no"?>
<!DOCTYPE svg PUBLIC "-//W3C//DTD SVG 1.1//EN" "http://www.w3.org/Graphics/SVG/1.1/DTD/svg11.dtd" >
<svg xmlns="http://www.w3.org/2000/svg" xmlns:xlink="http://www.w3.org/1999/xlink" version="1.1" viewBox="0 -410 2048 2048">
  <g transform="matrix(1 0 0 -1 0 1638)">
   <path fill="currentColor"
d="M655 728q144 -122 234 -223q108 -120 155 -191q58 -89 58 -155q0 -62 -56 -62q-20 0 -34 10q-17 12 -42 87q-57 172 -331 479q-70 -238 -207 -384q-144 -154 -335 -225l-17 37q425 222 489 738h-293v-42q-9 -24 -37 -24q-61 0 -61 77l8 267v493q-3 91 -16 135l98 -73
q98 82 156 163l88 -78q31 -27 31 -42q0 -19 -30 -19q-3 0 -7 1l-57 9q-55 -35 -173 -82v-311h105l65 61l84 -67q17 -13 17 -25q0 -26 -27 -26h-244v-361h299q9 129 9 197v526q-2 205 -15 338l108 -20q82 -16 82 -44q0 -24 -38 -40l-44 -17v-743q0 -90 -5 -197h309v361h-71
q-68 0 -148 -11l-38 86q122 -18 186 -18h71v352h-71q-69 0 -148 -10l-41 86q128 -17 189 -17h55l68 77l84 -56q40 -26 40 -48q0 -27 -79 -61v-561q0 -85 4 -166q3 -57 3 -71q0 -65 -67 -65q-37 0 -37 24v42h-313q-3 -27 -4 -41q-4 -36 -9 -70zM1747 741l31 4l85 113l133 -92
q20 -13 20 -25q0 -24 -24 -27l-245 -30v-312q0 -98 11 -209q3 -32 3 -50q0 -46 -55 -46q-56 0 -56 42v564l-407 -52q-137 -17 -190 -31l-49 83q41 -7 69 -7q60 0 163 13l414 51v1070q0 114 -8 160l109 -24q86 -19 86 -46t-50 -41l-40 -11v-1097zM1237 1757q28 -13 41 -19
q103 -47 182 -96q108 -66 108 -131q0 -26 -20 -42q-11 -9 -24 -9q-26 0 -68 59q-72 102 -238 207zM1175 1240q27 -15 41 -23q272 -149 272 -240q0 -54 -44 -54q-28 0 -66 64q-65 107 -223 223z" />
  </g>

</svg>
