<?xml version="1.0" standalone="no"?>
<!DOCTYPE svg PUBLIC "-//W3C//DTD SVG 1.1//EN" "http://www.w3.org/Graphics/SVG/1.1/DTD/svg11.dtd" >
<svg xmlns="http://www.w3.org/2000/svg" xmlns:xlink="http://www.w3.org/1999/xlink" version="1.1" viewBox="0 -410 2048 2048">
  <g transform="matrix(1 0 0 -1 0 1638)">
   <path fill="currentColor"
d="M469 1691v116q0 114 -8 160l109 -24q85 -19 85 -46q0 -28 -49 -42l-40 -11v-153h182l98 102l121 -106q17 -16 17 -26q0 -27 -28 -27h-390v-215h192l61 72l72 -50q42 -28 42 -49q0 -17 -66 -53v-442q0 -42 7 -105q3 -28 3 -45q0 -48 -68 -48q-39 0 -39 25v51h-204v-238
h147l98 102l120 -107q17 -14 17 -25q0 -27 -27 -27h-355v-105q0 -102 11 -209q3 -33 3 -50q0 -46 -55 -46q-56 0 -56 42v368h-172q-115 0 -193 -8l-38 88q96 -23 231 -23h172v238h-191v-66q0 -30 -53 -30q-58 0 -54 44l4 49q7 93 7 104v605l118 -62h169v215h-137
q-117 0 -194 -8l-38 88q94 -23 232 -23h137zM278 831h492v242h-492v-242zM278 1127h492v234h-492v-234zM1629 641l116 12l68 97l133 -87q15 -10 15 -26q0 -21 -24 -24l-308 -34v-193q0 -100 11 -209q3 -32 3 -50q0 -46 -54 -46q-57 0 -57 42v446l-399 -43q-59 -6 -129 -27
l-61 80h38q41 0 114 8l437 45v620q0 117 -8 160l109 -24q86 -19 86 -46q0 -28 -50 -42l-40 -11v-648zM1372 1969l136 -45q48 -16 48 -32q0 -17 -28 -25l-44 -12q111 -179 257 -300q134 -111 264 -147l-7 -35q-72 -1 -116 -65q-110 77 -148 114q-108 104 -188 235
q-51 85 -103 184q-84 -193 -193 -317q-131 -148 -302 -257l-28 35q194 167 286 305q107 159 166 362zM1132 1338q173 -68 216 -94q80 -49 80 -105q0 -49 -40 -49q-26 0 -59 47q-53 77 -212 173zM1011 1025q175 -87 224 -124q75 -56 75 -111q0 -57 -45 -57q-32 0 -63 57
q-44 81 -210 208z" />
  </g>

</svg>
