<?xml version="1.0" standalone="no"?>
<!DOCTYPE svg PUBLIC "-//W3C//DTD SVG 1.1//EN" "http://www.w3.org/Graphics/SVG/1.1/DTD/svg11.dtd" >
<svg xmlns="http://www.w3.org/2000/svg" xmlns:xlink="http://www.w3.org/1999/xlink" version="1.1" viewBox="0 -140 1000 1000">
  <g transform="matrix(1 0 0 -1 0 860)">
   <path fill="currentColor"
d="M246 810v118l100 -22v-12l-36 -15v-69h114l42 46h10l59 -56v-12h-271q-6 -34 -11 -89h142l24 32h15l52 -53v-13l-28 -19v-42q0 -89 -24.5 -129t-85.5 -49l-11 4l-7 29l-77 41l2 16l57 -9q20 -3 35 -3q48 0 48 113v60h-146q-24 -105 -62 -161t-119 -103l-3 14
q67 57 95.5 134.5t34.5 225.5h-141v23h192zM769 892l-26 -19q39 -74 85.5 -114t122.5 -66l-3 -18q-18 -1 -27.5 -7t-30.5 -30q-106 68 -167 213q-47 -82 -91 -123t-128 -83l-9 13q77 50 118.5 111t72.5 169l84 -30zM614 691l4 16q118 -23 161.5 -45.5t43.5 -59.5
q0 -38 -18 -38t-60 39q-51 48 -131 88zM594 558l11 -2q44 -6 126 -23q104 -30 104 -94q0 -35 -23 -35q-8 0 -24 15q-102 97 -197 123zM887 232l23 -119l33 -18v-17q-37 -30 -108 -30h-196q-53 0 -73.5 17.5t-20.5 62.5v278l100 -21v-13l-37 -22v-100q74 20 122 45t104 73
l62 -64l-5 -13l-42 3q-107 -46 -241 -71v-71q0 -26 11 -35t39 -9h137q40 0 50 7.5t16 40.5l13 77zM426 394h15l56 -46v-13l-28 -22v-251l-9 -13l-44 -10l-10 10v41l-214 1l-1 -26l-8 -13l-44 -13l-10 10v352l59 -34h212zM192 113h213v231h-213v-231z" />
  </g>

</svg>
