<?xml version="1.0" standalone="no"?>
<!DOCTYPE svg PUBLIC "-//W3C//DTD SVG 1.1//EN" "http://www.w3.org/Graphics/SVG/1.1/DTD/svg11.dtd" >
<svg xmlns="http://www.w3.org/2000/svg" xmlns:xlink="http://www.w3.org/1999/xlink" version="1.1" viewBox="0 -204 1024 1024">
  <g transform="matrix(1 0 0 -1 0 820)">
   <path fill="currentColor"
d="M158 948q21 -18 37 -36q18 -16 29 -32q12 -16 16 -28q4 -11 4 -22q0 -21 -6 -32q-2 -4 -3 -4h77l43 47q35 -26 65 -50q8 -5 8 -11q0 -14 -14 -14h-230v-180h130l32 33q33 -16 53 -36q8 -9 8 -17q0 -15 -40 -29q0 -121 -12 -259q-12 -137 -30 -185q-9 -29 -23 -43
q-10 -10 -27 -18q-24 -12 -55 -12q-2 15 -6 25q-3 7 -12 14q-21 12 -70 29l6 24q91 -30 105 -30t24 7q10 8 15 23q7 15 14 48q9 48 16 153q6 107 7 245h-136q-1 -65 -5 -117q-7 -77 -23 -144q-15 -77 -38 -130q-25 -64 -71 -131l-18 20q36 65 56 122q17 51 28 103
q10 49 17 127q7 74 7 204v154q-70 -2 -96 -7l-20 47q44 -12 117 -12h67q-2 7 -4 16q-4 22 -13 43t-19 40t-28 41zM557 964q52 -18 90 -35q6 -7 6 -13q0 -11 -19 -15q-22 -4 -32 -4q-19 -38 -42 -71h292l45 51l71 -54q8 -5 8 -11q0 -14 -16 -14h-419q-28 -39 -58 -70
q-35 -33 -84 -68l-19 12q43 41 72 78q23 32 46 70q22 39 38 73q14 32 21 71zM872 712q-52 -12 -106 -21q-23 -4 -44 -6v-131h162l40 43q32 -24 61 -47q7 -5 7 -10q0 -14 -14 -14h-256v-20q54 -13 106 -31q65 -25 97 -41q32 -19 44 -31q13 -13 21 -25q4 -10 4 -21
q0 -21 -18 -21q-7 0 -18 7t-27 20q-27 21 -49 36q-30 17 -70 37q-35 19 -90 43v-48q0 -19 1 -24q2 -5 2 -34q0 -18 -36 -21q-14 0 -14 16t1 25q2 4 2 38v80q-15 -23 -32 -42q-28 -32 -63 -59q-30 -26 -69 -51q-6 -4 -12 -7l47 -22h307l35 33q51 -36 51 -50q0 -10 -30 -25
v-187q0 -23 1 -30q1 -8 1 -16q0 -21 -34 -27q-16 0 -16 10v24h-328v-12q0 -10 -12 -16q-15 -6 -25 -6q-13 0 -13 14q0 4 1 14q1 23 1 42v194q0 34 -1 51q-32 -17 -69 -35l-14 20q52 28 88 55q35 24 63 54q27 25 47 53q14 19 22 36h-83q-71 -2 -97 -7l-20 47q44 -12 117 -12
h137v126q-25 -3 -49 -5q-58 -4 -146 -7l-7 23q47 3 99 9q50 5 96 15q50 9 85 20q35 9 58 19q19 9 35 18q39 -23 69 -47q5 -4 5 -8q0 -12 -15 -12q-14 0 -36 7zM529 652q33 -11 51 -22q17 -9 25 -18q6 -6 6 -12q0 -32 -23 -32q-4 0 -9 2q-3 2 -7 10q-11 19 -22 30
q-13 13 -34 26zM835 684q41 -18 68 -35q5 -3 5 -9q0 -7 -9 -10q-15 -5 -28 -6q-8 -7 -17 -14q-10 -7 -21 -14q-10 -6 -24 -12q-13 -6 -28 -12l-13 13l26 26q10 13 19 26q9 14 15 25q5 12 7 22zM536 90h142v96h-142v-96zM722 90h142v96h-142v-96zM536 214h142v88h-142v-88z
M722 302v-88h142v88h-142z" />
  </g>

</svg>
