<?xml version="1.0" standalone="no"?>
<!DOCTYPE svg PUBLIC "-//W3C//DTD SVG 1.1//EN" "http://www.w3.org/Graphics/SVG/1.1/DTD/svg11.dtd" >
<svg xmlns="http://www.w3.org/2000/svg" xmlns:xlink="http://www.w3.org/1999/xlink" version="1.1" viewBox="0 -410 2048 2048">
  <g transform="matrix(1 0 0 -1 0 1638)">
   <path fill="currentColor"
d="M1549 221h-1041v-112q0 -37 -49 -37q-63 0 -59 54l4 63l4 80l4 75v465q0 85 -14 176l119 -90h1012l68 76l83 -54q40 -26 40 -48q0 -28 -77 -62v-447q0 -56 11 -223q1 -8 1 -13q0 -46 -71 -46q-35 0 -35 25v118zM1549 584v254h-1041v-254h1041zM1549 528h-1041v-251h1041
v251zM763 1192v585h-347q-108 0 -192 -8l-38 88q95 -23 230 -23h1212l99 101l120 -106q17 -15 17 -26q0 -26 -27 -26h-543v-585h459l99 101l120 -106q17 -15 17 -26q0 -26 -27 -26h-1645q-117 0 -192 -8l-38 88q96 -23 230 -23h446zM860 1192h333v585h-333v-585zM1584 1673
l127 -70q29 -16 29 -28q0 -21 -29 -25l-59 -8q-131 -176 -268 -300l-30 28q106 146 150 229q30 57 80 174zM327 1644q103 -64 178 -123q116 -93 116 -182q0 -39 -31 -58q-10 -7 -21 -7q-24 0 -41 20q-11 14 -29 75q-30 107 -194 250z" />
  </g>

</svg>
