<?xml version="1.0" standalone="no"?>
<!DOCTYPE svg PUBLIC "-//W3C//DTD SVG 1.1//EN" "http://www.w3.org/Graphics/SVG/1.1/DTD/svg11.dtd" >
<svg xmlns="http://www.w3.org/2000/svg" xmlns:xlink="http://www.w3.org/1999/xlink" version="1.1" viewBox="0 -410 2048 2048">
  <g transform="matrix(1 0 0 -1 0 1638)">
   <path fill="currentColor"
d="M1026 1090h-109q-117 0 -192 -8l-38 88q96 -23 230 -23h140q46 92 91 227h-115q-69 0 -147 -11l-39 86q123 -18 186 -18h134q10 31 25 96q17 79 23 116h-260q-68 0 -148 -11l-40 86q124 -18 188 -18h269q4 30 14 84q2 13 10 77q2 23 9 70l139 -38q54 -14 54 -40
q0 -23 -48 -32l-47 -8q-15 -63 -25 -113h364l80 80l114 -85q17 -13 17 -26q0 -26 -27 -26h-560q-5 -21 -22 -96q-6 -28 -30 -116h341l80 80l114 -85q17 -13 17 -26q0 -26 -27 -26h-540q-38 -130 -93 -227h598l99 102l120 -107q17 -15 17 -26q0 -26 -27 -26h-393
q148 -264 414 -359v-31q-62 -2 -91 -15q-26 -12 -49 -49q-95 87 -130 125q-21 -10 -42 -18v-376q0 -56 11 -223q1 -8 1 -13q0 -46 -70 -46q-36 0 -36 25v80h-547v-70q0 -37 -49 -37q-63 0 -59 58l4 59l4 79l4 76v388q0 27 -4 75l-2 28q-85 -101 -240 -222l-23 29
q37 40 56 59q211 217 302 378zM969 883l73 -53h518l56 62q-59 95 -105 198h-384q-99 -146 -158 -207zM1580 773h-547v-231h547v231zM1580 486h-547v-240h547v240zM531 532h-258v-59q0 -37 -49 -37q-63 0 -59 56l4 61l4 80l4 76v949q0 81 -13 177l118 -90h229l68 76l83 -54
q40 -26 40 -48q0 -27 -77 -61v-934q0 -54 11 -223q1 -8 1 -13q0 -46 -70 -46q-36 0 -36 25v65zM531 1192v496h-258v-496h258zM531 1136h-258v-548h258v548z" />
  </g>

</svg>
