<?xml version="1.0" standalone="no"?>
<!DOCTYPE svg PUBLIC "-//W3C//DTD SVG 1.1//EN" "http://www.w3.org/Graphics/SVG/1.1/DTD/svg11.dtd" >
<svg xmlns="http://www.w3.org/2000/svg" xmlns:xlink="http://www.w3.org/1999/xlink" version="1.1" viewBox="0 -204 1024 1024">
  <g transform="matrix(1 0 0 -1 0 820)">
   <path fill="currentColor"
d="M76 893l61 -43h121l34 42q37 -23 55 -43q7 -7 7 -13q0 -9 -38 -32v-418q0 -74 3 -98q1 -28 1 -46q0 -16 -11 -24q-14 -6 -24 -6q-17 0 -17 13v65h-140v-70q0 -12 -16 -12q-9 0 -24 6q-12 9 -12 24q0 18 3 47q4 22 4 97v440q0 41 -7 71zM128 318h140v248h-140v-248z
M128 594h140v228h-140v-228zM572 964q92 -20 92 -37q0 -14 -50 -18q-21 -29 -49 -55h269l34 42q37 -23 55 -43q7 -7 7 -13q0 -9 -38 -32v-100q0 -74 3 -98q1 -28 1 -46q0 -16 -11 -24q-14 -6 -24 -6q-17 0 -17 13v27h-372v-22q0 -10 -12 -16q-15 -6 -25 -6q-13 0 -13 14
q0 4 1 14q1 23 1 42v216q0 49 -2 68l63 -30h48q19 24 27 48q7 24 12 62zM472 602h372v96h-372v-96zM472 726h372v100h-372v-100zM344 250q44 -12 117 -12h157v242q0 53 -6 80q51 -8 84 -23q12 -6 12 -15q0 -10 -10 -13q-14 -11 -32 -12v-259h198l44 49q36 -27 68 -52
q8 -5 8 -11q0 -14 -15 -14h-303v-97q0 -27 2 -36v-35q0 -22 -30 -22q-24 0 -24 27q0 12 3 32q1 19 1 34v97h-157q-71 -2 -97 -7zM415 504q59 -14 93 -28q30 -11 45 -22q10 -8 10 -16q0 -32 -23 -32q-9 0 -16 3q-8 2 -15 12q-20 22 -43 36q-23 15 -64 31zM578 392l6 -19
q-32 -17 -65 -32t-79 -31q0 -41 -8 -41q-6 0 -60 69q34 5 71 14q35 7 66 17q30 9 69 23zM852 449q-21 -10 -46 -19q-23 -8 -47 -14q-23 -7 -46 -12l-11 14q25 13 43 23q19 11 34 23t27 24t19 24q75 -45 75 -57q0 -10 -18 -10q-11 0 -30 4zM714 386q43 -12 76 -24t51 -20
q19 -8 28 -13q7 -5 11 -10q4 -4 4 -9q-1 -30 -22 -30q-7 0 -13 2q-6 3 -27 22q-21 18 -47 33q-27 16 -73 35z" />
  </g>

</svg>
