<?xml version="1.0" standalone="no"?>
<!DOCTYPE svg PUBLIC "-//W3C//DTD SVG 1.1//EN" "http://www.w3.org/Graphics/SVG/1.1/DTD/svg11.dtd" >
<svg xmlns="http://www.w3.org/2000/svg" xmlns:xlink="http://www.w3.org/1999/xlink" version="1.1" viewBox="0 -120 1000 1000">
  <g transform="matrix(1 0 0 -1 0 880)">
   <path fill="currentColor"
d="M76 158l1 712l75 -40h88l23 37l63 -44q12 -8 12 -15q0 -10 -13 -13l-15 -3l-1 -584l-59 -9l-1 63h-114v-92zM135 287l115 -1v261h-115v-260zM136 574l114 -1v231h-115zM262 64q79 37 113 57q57 32 142 98l64 -47q9 -6 9 -13q0 -12 -11 -10h-3l-26 4q-161 -70 -281 -105z
M336 589l-9 24h496l44 56l84 -64v-17h-293q13 -7 13 -14q0 -6 -9 -10l-15 -8v-56h141l22 37l64 -42q11 -7 11 -15q0 -6 -9 -8l-20 -5v-244l-63 -11v31h-346l-1 -32l-61 -9l2 331l75 -33h127v89h-253zM447 370v-101l140 -1l1 102h-141zM447 394h141l1 82h-141zM646 370v-103
l147 1v103zM646 394h148l-2 83h-146v-83zM361 824h130v124l73 -7q19 -1 19 -13q0 -9 -14 -15l-19 -8v-80h148v126l76 -7q16 -2 16 -14q0 -8 -9 -12l-23 -10v-82h63l40 47l75 -56v-17h-178l-1 -141l-61 -11l1 40h-147v-32l-59 -10v154l-122 2zM550 800v-86h148v86h-148z
M653 197q11 1 15 1q87 0 168 -26q45 -14 74 -38q28 -23 28 -46q0 -13 -9 -22q-8 -8 -17 -8q-12 0 -79 45q-76 51 -180 80v14z" />
  </g>

</svg>
