<?xml version="1.0" standalone="no"?>
<!DOCTYPE svg PUBLIC "-//W3C//DTD SVG 1.1//EN" "http://www.w3.org/Graphics/SVG/1.1/DTD/svg11.dtd" >
<svg xmlns="http://www.w3.org/2000/svg" xmlns:xlink="http://www.w3.org/1999/xlink" version="1.1" viewBox="0 -120 1000 1000">
  <g transform="matrix(1 0 0 -1 0 880)">
   <path fill="currentColor"
d="M297 671q39 -15 68 -40q42 -37 42 -69q0 -18 -11 -29q-8 -7 -18 -7q-19 0 -30 34q-13 43 -60 99zM579 521q36 77 58 149l66 -32q16 -7 16 -15q0 -11 -12 -13l-28 -6q-35 -43 -85 -89zM50 642q145 95 254 277l73 -40q12 -7 12 -15q0 -14 -18 -14h-27q-60 -68 -116 -117
l23 -18h499l16 18q-55 51 -100 112q-26 37 -32 57h-244l-15 28h255l18 38l51 -35q21 -14 21 -24q0 -12 -27 -15l-26 -2q33 -56 144 -121q75 -43 153 -68l-5 -18q-48 -1 -71 -42l-66 44l-20 -15v-217l-59 -14v31h-494v-22l-59 -12v265q-69 -47 -130 -74zM249 687v-187h218
v187h-218zM524 687v-187h219v187h-219zM284 72l-61 -9v371l83 -31h401l21 39l64 -37q20 -11 20 -24q0 -11 -20 -19l-19 -6v-269l-64 -10v48h-425v-53zM284 251v-98h425v98h-425zM284 375v-96h425v96h-425z" />
  </g>

</svg>
