<?xml version="1.0" standalone="no"?>
<!DOCTYPE svg PUBLIC "-//W3C//DTD SVG 1.1//EN" "http://www.w3.org/Graphics/SVG/1.1/DTD/svg11.dtd" >
<svg xmlns="http://www.w3.org/2000/svg" xmlns:xlink="http://www.w3.org/1999/xlink" version="1.1" viewBox="0 -200 1000 1000">
  <g transform="matrix(1 0 0 -1 0 800)">
   <path fill="currentColor"
d="M773 510l39 45l62 -66l-38 -41q0 -148 -5 -230t-10 -105q-2 -22 -15.5 -41t-33 -33t-42.5 -23t-44 -10q1 5 1 8.5v7.5q0 35 -13 54.5t-48 30.5v13q32 -16 51.5 -24.5t36.5 -8.5q20 0 35 13.5t17 22.5q7 2 12.5 92.5t6.5 269.5h-169l46 -43l-29 -47q-10 -65 -28 -127.5
t-47 -118t-71.5 -101.5t-100.5 -77l-9 1q44 40 81.5 98t65.5 126.5t44 142.5t18 146h-26l-51 -13l-17 38h281zM748 914q8 -69 27 -121t50 -92.5t73 -73t96 -62.5q-36 -6 -55 -17.5t-38 -24.5q-40 37 -72 80t-55.5 96.5t-39 120.5t-22.5 153l58 -26zM636 878
q-22 -70 -52 -132t-65 -114t-73.5 -92t-76.5 -65l-4 5q47 54 85 117t66 127.5t46 127t25 115.5l73 -57zM297 -3q-10 -11 -19 -17t-35 -12l1 550q-38 -88 -85.5 -163.5t-104.5 -135.5l-8 13q67 109 117.5 224.5t80.5 248.5h-80l-75 -15l-20 38h175v245l78 -36l-25 -67v-142
h47l52 47l75 -70h-174v-113q31 -17 53 -33t38 -30.5t27 -26.5t19 -21q10 -13 10 -35q0 -21 -9.5 -40.5t-22.5 -19.5q-16 0 -30 35q-6 16 -12 31.5t-15 33t-23 38.5t-35 47v-574z" />
  </g>

</svg>
