<?xml version="1.0" standalone="no"?>
<!DOCTYPE svg PUBLIC "-//W3C//DTD SVG 1.1//EN" "http://www.w3.org/Graphics/SVG/1.1/DTD/svg11.dtd" >
<svg xmlns="http://www.w3.org/2000/svg" xmlns:xlink="http://www.w3.org/1999/xlink" version="1.1" viewBox="0 -204 1024 1024">
  <g transform="matrix(1 0 0 -1 0 820)">
   <path fill="currentColor"
d="M32 746q44 -12 118 -12h34v142q0 54 -6 80q59 -7 97 -23q13 -4 13 -14t-13 -13q-19 -10 -43 -12v-160h36l43 47q35 -26 65 -50q8 -5 8 -11q0 -14 -14 -14h-138v-101q43 -26 68 -52q26 -24 38 -48q9 -17 9 -33q0 -32 -23 -32q-7 0 -14 5q-6 5 -12 23q-17 43 -36 69
q-12 18 -30 35v-458q0 -23 1 -32v-28q0 -34 -30 -34q-26 0 -26 18q0 20 3 54q4 34 4 60v398q-14 -39 -31 -73q-21 -47 -49 -95q-27 -44 -67 -94l-13 18q34 55 58 107q23 48 42 107q17 48 30 103q11 44 17 83h-21q-72 -2 -98 -7zM449 937l60 -43h361l34 43q37 -24 55 -43
q7 -8 7 -14q0 -9 -39 -32v-203l28 -22q6 -3 6 -7q0 -14 -11 -14h-450v-34q0 -12 -16 -12q-9 0 -24 6q-11 9 -11 24q0 18 2 47q4 22 4 97v136q0 41 -6 71zM500 630h380v236h-380v-236zM376 442q40 -8 114 -8h99q11 57 11 99q0 33 -3 51q52 -8 91 -22q11 -5 11 -13
q0 -6 -14 -10q-16 -5 -30 -7q-4 -57 -11 -98h234l37 32q35 -20 54 -38q8 -10 8 -14q0 -12 -38 -27q-8 -103 -24 -173q-18 -74 -34 -108q-19 -31 -39 -45q-23 -17 -49 -28q-23 -9 -37 -9q0 19 -10 30q-10 14 -118 49l5 21q99 -33 132 -33q18 0 34 5q11 3 21 14q13 13 28 45
q14 32 25 93q12 60 18 158h-253q-2 -10 -4 -17q-17 -63 -46 -113q-29 -54 -72 -97q-48 -53 -106 -85q-62 -39 -129 -58l-9 23q87 39 134 74q44 30 84 79q36 40 62 95q19 41 32 99h-94q-79 0 -96 -7z" />
  </g>

</svg>
