<?xml version="1.0" standalone="no"?>
<!DOCTYPE svg PUBLIC "-//W3C//DTD SVG 1.1//EN" "http://www.w3.org/Graphics/SVG/1.1/DTD/svg11.dtd" >
<svg xmlns="http://www.w3.org/2000/svg" xmlns:xlink="http://www.w3.org/1999/xlink" version="1.1" viewBox="0 -200 1000 1000">
  <g transform="matrix(1 0 0 -1 0 800)">
   <path fill="currentColor"
d="M285 -1q-11 -11 -21 -17t-35 -12l1 539q-36 -88 -79 -159t-95 -131l-8 13q125 219 182 471h-71l-70 -15l-19 37h160v244l78 -36l-23 -67v-141h44l50 47l70 -69h-164v-113q58 -33 86 -62.5t43 -47.5q10 -13 10 -35q0 -21 -9 -40t-22 -19q-7 0 -14 7.5t-14 26.5
q-5 16 -10.5 31.5t-14.5 33.5t-22 38.5t-33 46.5v-571zM897 866l-56 -11q-8 -5 -13 -8.5t-11.5 -8t-16 -10.5t-25.5 -16v-341h90l44 43l58 -66h-192v-408h65l43 42l55 -63h-270l-62 -15l-29 36h144v407h-91l-60 -12l-21 36h172v315q-37 -14 -71 -24.5t-63 -14.5l-6 1
q46 21 91 49.5t82 56.5t63.5 51t35.5 33zM399 496q52 97 93 213t63 243l65 -79l-34 -53q-14 -38 -22 -62.5t-13.5 -41.5t-10 -30t-10.5 -28l31 -30l-26 -77v-539q0 -6 -6 -11.5t-15 -10.5t-19 -9t-17 -6v587q-16 -28 -30.5 -44.5t-33.5 -35.5z" />
  </g>

</svg>
