<?xml version="1.0" standalone="no"?>
<!DOCTYPE svg PUBLIC "-//W3C//DTD SVG 1.1//EN" "http://www.w3.org/Graphics/SVG/1.1/DTD/svg11.dtd" >
<svg xmlns="http://www.w3.org/2000/svg" xmlns:xlink="http://www.w3.org/1999/xlink" version="1.1" viewBox="0 -140 1000 1000">
  <g transform="matrix(1 0 0 -1 0 860)">
   <path fill="currentColor"
d="M838 719l32 30h13l57 -68l-6 -15h-38l-76 -84l-14 6l32 108h-87q0 -57 -4 -162q18 -73 22 -90q58 -233 178 -351l-5 -8l-20 2q-23 0 -45 -22q-58 80 -87 170.5t-53 225.5q-17 -127 -71.5 -225t-183.5 -184l-10 12q35 32 64 66.5t50 65t37 68.5t27 66t18 70.5t11 69.5
t5.5 74t2 73.5t0.5 78.5h-43q-34 -86 -90 -159l-15 7q29 61 49.5 133.5t40.5 211.5l5 35l95 -27l-3 -13l-33 -11q-29 -116 -41 -154h186zM178 700v224l99 -20v-14l-35 -16v-174h44l35 45h12l54 -53v-15h-145v-122q117 -55 117 -116q0 -18 -9 -31.5t-20 -13.5q-17 0 -32 46
q-17 54 -56 90v-453l-8 -10l-46 -11l-10 6v409q-38 -95 -105 -180l-10 11q74 136 113 375h-103v23h105zM356 849l6 12l37 -18q94 -46 94 -90q0 -19 -8 -33t-18 -14q-14 0 -37 47q-26 55 -74 96zM586 770l-131 -406q-22 -66 -22 -104q0 -30 11 -81q10 -46 10 -54
q0 -26 -11 -44.5t-27 -18.5t-27 17t-11 42q0 1 7 53.5t7 63.5q0 55 -44 64l-35 7v13l35 4q23 3 35 18t29 55l158 376z" />
  </g>

</svg>
