<?xml version="1.0" standalone="no"?>
<!DOCTYPE svg PUBLIC "-//W3C//DTD SVG 1.1//EN" "http://www.w3.org/Graphics/SVG/1.1/DTD/svg11.dtd" >
<svg xmlns="http://www.w3.org/2000/svg" xmlns:xlink="http://www.w3.org/1999/xlink" version="1.1" viewBox="0 -120 1000 1000">
  <g transform="matrix(1 0 0 -1 0 880)">
   <path fill="currentColor"
d="M35 267q51 96 85 195q31 89 49 182q7 31 13 62h-133l-16 28h156v227l82 -9q16 -2 16 -13q0 -9 -11 -14l-22 -9v-182h40l40 50l74 -57v-21h-154v-128q49 -11 102 -40q58 -32 58 -76q0 -15 -11 -25q-9 -8 -20 -8q-10 0 -18 6q-5 4 -17 28q-19 37 -94 94v-482l-65 -11v422
q-75 -162 -137 -228zM306 89q123 47 269 172q121 102 245 265l62 -42q13 -9 13 -16t-13 -9l-32 -6q-51 -56 -135 -142l12 -6q88 -42 112 -59q93 -65 93 -118q0 -22 -14 -35q-11 -12 -25 -12q-16 0 -31 32q-55 109 -166 182q-88 -81 -183 -137q-96 -56 -199 -89zM323 290
q251 110 466 395l56 -43q13 -10 13 -15q0 -6 -10 -8l-30 -5l-8 -9q-244 -271 -481 -331zM398 755l-16 28h219v178l81 -9q20 -2 20 -16q0 -9 -12 -13l-23 -9v-131h158l51 62l82 -71v-19h-284l16 -11q5 -4 5 -10q0 -10 -18 -12l-24 -2q-8 -9 -52 -64q-15 -19 -54 -58
q43 -36 43 -73q0 -27 -21 -39q-5 -3 -11 -3q-10 0 -17 6q-5 4 -18 36q-11 30 -58 76q-18 17 -42 35l7 15q33 -6 101 -42q37 70 64 146h-197z" />
  </g>

</svg>
