<?xml version="1.0" standalone="no"?>
<!DOCTYPE svg PUBLIC "-//W3C//DTD SVG 1.1//EN" "http://www.w3.org/Graphics/SVG/1.1/DTD/svg11.dtd" >
<svg xmlns="http://www.w3.org/2000/svg" xmlns:xlink="http://www.w3.org/1999/xlink" version="1.1" viewBox="0 -410 2048 2048">
  <g transform="matrix(1 0 0 -1 0 1638)">
   <path fill="currentColor"
d="M946 1499h626l98 101l121 -106q17 -15 17 -25q0 -27 -27 -27h-861q-61 -125 -153 -257h932l98 102l121 -107q17 -15 17 -26q0 -26 -27 -26h-502q125 -120 307 -208q140 -68 281 -93v-34q-41 0 -58 -5q-48 -12 -81 -61q-323 150 -519 401h-611q-111 -141 -262 -259
q-130 -102 -349 -207l-16 36q304 158 522 430h-327q-117 0 -192 -8l-38 88q96 -23 230 -23h370q92 128 151 257h-452q-70 0 -149 -11l-39 86q125 -18 188 -18h477q81 190 133 462l143 -44q41 -12 41 -33q0 -29 -41 -33l-50 -6q-61 -209 -119 -346zM1498 1755
q-103 -120 -220 -192l-19 24q120 145 178 289l112 -59q33 -18 33 -37q0 -21 -36 -23zM1311 595l53 -23q472 -196 472 -302q0 -31 -22 -49q-15 -12 -31 -12q-24 0 -99 81q-110 117 -390 269zM706 495q-197 -182 -486 -287l-15 34q152 86 255 170q110 91 197 211l135 -75
q19 -11 19 -25q0 -28 -40 -28h-65zM972 764v97q0 114 -8 160l109 -24q85 -19 85 -45t-50 -42l-41 -14v-132h324l96 97l97 -73q42 -32 42 -54q0 -27 -29 -27h-530v-374l3 -74l3 -68q5 -63 5 -73q0 -49 -58 -49q-28 0 -39 11q-9 9 -9 40v587h-356q-69 0 -148 -11l-40 87
q119 -19 188 -19h356zM449 1861q28 -18 42 -26q125 -80 163 -126q31 -38 31 -75q0 -59 -52 -59q-32 0 -52 49q-54 129 -159 204z" />
  </g>

</svg>
