<?xml version="1.0" standalone="no"?>
<!DOCTYPE svg PUBLIC "-//W3C//DTD SVG 1.1//EN" "http://www.w3.org/Graphics/SVG/1.1/DTD/svg11.dtd" >
<svg xmlns="http://www.w3.org/2000/svg" xmlns:xlink="http://www.w3.org/1999/xlink" version="1.1" viewBox="0 -120 1000 1000">
  <g transform="matrix(1 0 0 -1 0 880)">
   <path fill="currentColor"
d="M30 297q7 12 33 53q60 90 99 237q18 69 22 125h-126l-15 28h157v219l82 -11q22 -3 22 -14q0 -10 -18 -16l-20 -8v-170h33l33 49l71 -59v-18h-137v-118q35 -7 57 -16q41 -17 62 -54q8 -13 8 -29q0 -18 -14 -29q-8 -6 -18 -6q-17 0 -43 51q-21 39 -52 57v-491l-66 -12v422
q-39 -71 -83 -126q-44 -54 -74 -78zM356 109q62 15 146 54q91 44 163 100q-37 71 -62 164l-226 -9l-14 26l233 10q-13 69 -22 138l-134 -7l-15 27l146 8q-6 66 -9 135l-141 -7l-15 27l152 6l-9 181l86 -6q23 -2 23 -14q0 -7 -12 -12l-27 -13l6 -133l171 7l40 60l84 -65v-18
l-295 -13l10 -132l161 6l38 58l88 -62v-19l-282 -10q10 -81 22 -138l167 8l37 58l84 -61v-19l-280 -13q20 -72 47 -124q36 34 82 100l56 -41q13 -10 13 -18q0 -10 -15 -10q-5 0 -9 1l-15 3q-23 -24 -50 -53q-4 -5 -33 -31q34 -43 70 -69q19 -13 43 -26l76 121l15 -10
l-25 -88q-4 -13 -4 -25q0 -35 30 -63q-24 -30 -45 -30q-31 0 -105 50q-56 37 -107 101q-139 -90 -331 -133zM677 930q35 0 62 -6q38 -9 58 -34q8 -10 8 -24q0 -17 -12 -28q-7 -7 -17 -7q-9 0 -18 7q-3 3 -25 30q-29 35 -64 46z" />
  </g>

</svg>
