<?xml version="1.0" standalone="no"?>
<!DOCTYPE svg PUBLIC "-//W3C//DTD SVG 1.1//EN" "http://www.w3.org/Graphics/SVG/1.1/DTD/svg11.dtd" >
<svg xmlns="http://www.w3.org/2000/svg" xmlns:xlink="http://www.w3.org/1999/xlink" version="1.1" viewBox="0 -204 1024 1024">
  <g transform="matrix(1 0 0 -1 0 820)">
   <path fill="currentColor"
d="M130 942q51 -19 82 -35q26 -16 39 -31q7 -8 7 -18q0 -32 -22 -32q-9 0 -16 3q-5 2 -11 13q-19 29 -37 45q-18 19 -52 37zM76 796q49 -15 77 -33q24 -14 36 -26q11 -10 11 -21q0 -30 -26 -30q-5 0 -12 3q-5 3 -12 13q-18 27 -34 42q-21 18 -54 38zM324 730l8 -18
q-38 -48 -86 -101q-48 -56 -104 -111q-5 -48 -12 -48q-6 0 -58 74q63 37 137 97q72 62 115 107zM342 916q41 -6 114 -6h318l36 32q35 -21 52 -36q8 -8 8 -14q0 -12 -40 -26q-3 -47 -7 -86q32 -22 58 -43q29 -25 48 -42q15 -18 24 -30q5 -10 11 -20q4 -10 4 -21
q-1 -32 -26 -32q-5 0 -10 6t-26 43q-18 36 -43 66q-16 24 -42 48q-5 -46 -11 -81q-13 -81 -29 -117q-13 -35 -30 -52q-21 -17 -41 -30q-20 -11 -30 -11q0 19 -7 27q-8 12 -89 41l4 22q75 -24 98 -24q14 0 27 4q9 3 15 16q10 16 23 51q11 35 17 103q10 68 14 176h-178
q-7 -58 -19 -106q-14 -56 -40 -99q-26 -50 -59 -88q-31 -38 -78 -67q-52 -35 -120 -64l-14 18q73 37 115 70q43 34 73 72q12 16 23 35q-4 1 -5 2q-5 5 -19 34q-18 28 -37 52q-22 23 -56 53l8 12q34 -19 59 -42q28 -18 41 -32q16 -15 24 -25q5 -7 8 -16q19 40 34 93
q10 41 14 98h-100q-80 0 -98 -4zM54 372q44 -12 116 -12h326v44q0 54 -4 82q48 -7 79 -23q13 -6 13 -15q0 -7 -11 -11q-14 -9 -29 -11v-66h304l48 56q38 -27 71 -56q9 -3 9 -10q0 -18 -18 -18h-397q36 -40 79 -68q47 -36 110 -71q61 -32 123 -53q61 -22 113 -32v-14
q-49 0 -66 -30q-63 21 -111 47q-55 30 -95 63q-46 28 -88 65q-39 34 -82 82v-285q0 -18 -30 -18q-22 0 -22 24q0 12 2 30q2 22 2 36v204q-26 -28 -54 -49q-48 -39 -105 -73q-51 -32 -118 -62q-64 -29 -161 -64l-12 22q94 34 161 67q63 32 117 69q49 30 84 65q26 26 44 45
h-282q-70 -1 -94 -4z" />
  </g>

</svg>
