<?xml version="1.0" standalone="no"?>
<!DOCTYPE svg PUBLIC "-//W3C//DTD SVG 1.1//EN" "http://www.w3.org/Graphics/SVG/1.1/DTD/svg11.dtd" >
<svg xmlns="http://www.w3.org/2000/svg" xmlns:xlink="http://www.w3.org/1999/xlink" version="1.1" viewBox="0 -410 2048 2048">
  <g transform="matrix(1 0 0 -1 0 1638)">
   <path fill="currentColor"
d="M1550 583h185l81 81l114 -86q16 -12 16 -26q0 -26 -27 -26h-619q-63 0 -148 -11l-40 86q127 -18 188 -18h156v600h-95q-63 0 -148 -13l-40 88q126 -18 188 -18h95v458q-124 -24 -293 -34l-5 34q383 52 556 212l93 -61q43 -29 43 -45q0 -20 -31 -20q-15 0 -29 2l-36 4
q-124 -49 -204 -70v-480h125l79 81l115 -86q17 -13 17 -26q0 -26 -27 -26h-309v-600zM335 1500v301q0 118 -8 161l109 -24q86 -19 86 -46t-50 -41l-40 -11v-340h57l98 102l121 -107q17 -15 17 -26q0 -26 -27 -26h-266v-183q237 -184 237 -278q0 -31 -20 -50q-12 -11 -26 -11
q-35 0 -69 78q-43 97 -122 184v-812q0 -99 11 -209q3 -32 3 -50q0 -46 -55 -46q-56 0 -56 42v1040q-101 -319 -285 -572l-31 23q208 369 283 844h-57q-82 0 -157 -8l-38 88q95 -23 195 -23h90zM861 467q81 -100 164 -144q135 -71 442 -71q213 0 347 16q23 2 106 16
q26 4 55 8l3 -36q-94 -19 -112 -96q-28 -1 -138 -6q-39 -2 -108 -2q-314 0 -485 44q-186 48 -310 212q-89 -136 -229 -274l-28 26q126 145 216 310q-68 122 -126 322l44 16q48 -155 113 -273q124 277 159 635h-181q-23 -16 -50 -16q-47 0 -47 27q0 5 6 19q2 5 5 10
q5 11 17 37l196 474h-142q-114 -4 -157 -9l-39 89q95 -23 196 -23h142l61 72l72 -49q43 -29 43 -50q0 -11 -9 -19q-7 -6 -71 -40l-201 -468h151l61 72l72 -49q43 -28 43 -50q0 -16 -66 -53q-54 -298 -96 -421q-41 -119 -119 -256z" />
  </g>

</svg>
