<?xml version="1.0" standalone="no"?>
<!DOCTYPE svg PUBLIC "-//W3C//DTD SVG 1.1//EN" "http://www.w3.org/Graphics/SVG/1.1/DTD/svg11.dtd" >
<svg xmlns="http://www.w3.org/2000/svg" xmlns:xlink="http://www.w3.org/1999/xlink" version="1.1" viewBox="0 -120 1000 1000">
  <g transform="matrix(1 0 0 -1 0 880)">
   <path fill="currentColor"
d="M36 287q100 191 150 400l-133 -1l-9 27l141 1v237l82 -9q20 -2 20 -15q0 -10 -12 -14l-25 -9v-190h40l40 57l68 -66v-17l-148 -1l2 -114q119 -63 119 -132q0 -18 -12 -30q-10 -8 -21 -8t-19 9q-7 9 -21 58t-46 81v-495l-66 -10v438q-64 -119 -138 -205zM371 784l-10 26
l248 1l1 143l86 -8q19 -2 19 -14q0 -10 -11 -15l-28 -13v-93h147l45 59l84 -66v-20h-581zM392 443l-10 27h456l32 25l75 -57q7 -5 7 -11q0 -13 -21 -12h-36l-192 -70q-11 -10 -18 -12l-10 -2v-200q0 -46 -40 -65q-34 -16 -57 -16q-8 0 -9 12q-3 25 -6 29q-4 7 -20 12l-64 18
v16h128v243l86 -13q56 28 120 78zM434 503v240l70 -41h283l23 40l72 -40q12 -7 12 -14q0 -8 -14 -12l-21 -6v-136l-63 -11v27h-300v-37zM496 676v-101l300 2l1 99h-301z" />
  </g>

</svg>
