<?xml version="1.0" standalone="no"?>
<!DOCTYPE svg PUBLIC "-//W3C//DTD SVG 1.1//EN" "http://www.w3.org/Graphics/SVG/1.1/DTD/svg11.dtd" >
<svg xmlns="http://www.w3.org/2000/svg" xmlns:xlink="http://www.w3.org/1999/xlink" version="1.1" viewBox="0 -410 2048 2048">
  <g transform="matrix(1 0 0 -1 0 1638)">
   <path fill="currentColor"
d="M797 1686h-473q-110 0 -192 -8l-38 88q96 -23 230 -23h473v50q0 113 -8 160l110 -24q85 -19 85 -45q0 -28 -49 -42l-40 -11v-347q0 -288 -157 -409q-153 -118 -422 -185l-13 36q173 63 254 111q168 97 209 215q-147 -47 -287 -84q-31 -9 -177 -42q-41 -9 -90 -21l-11 -43
q-8 -31 -25 -31q-10 0 -27 31l-71 130q331 35 677 115l28 6q13 70 14 134h-416q-114 0 -192 -8l-40 88q95 -23 232 -23h416v182zM1256 1690v-186h416l99 102l121 -107q16 -15 16 -29q0 -23 -27 -23h-625v-206h511l99 102l120 -107q16 -14 16 -29q0 -23 -26 -23h-720
q2 -72 9 -137q4 -31 4 -50q0 -46 -54 -46q-57 0 -57 42v798q0 114 -8 160l109 -24q85 -19 85 -45q0 -28 -49 -42l-39 -11v-82h466l98 102l121 -106q16 -13 16 -29q0 -24 -26 -24h-675zM1067 786h663l98 102l121 -107q16 -14 16 -29q0 -23 -26 -23h-872v-382q0 -101 10 -189
q3 -32 3 -49q0 -47 -55 -47q-57 0 -57 42v625h-656q-118 0 -192 -8l-38 87q99 -22 230 -22h656v22q0 114 -8 159l107 -24q88 -20 88 -45q0 -28 -50 -43l-38 -11v-58zM669 616l117 -85q21 -15 21 -30q0 -24 -44 -24q-3 0 -11 1l-43 6q-192 -127 -340 -193q-111 -49 -265 -96
l-16 36q341 137 581 385zM1252 571q368 -89 475 -139q175 -83 175 -170q0 -53 -49 -53q-21 0 -44 13q-13 7 -79 63q-154 133 -489 247z" />
  </g>

</svg>
