<?xml version="1.0" standalone="no"?>
<!DOCTYPE svg PUBLIC "-//W3C//DTD SVG 1.1//EN" "http://www.w3.org/Graphics/SVG/1.1/DTD/svg11.dtd" >
<svg xmlns="http://www.w3.org/2000/svg" xmlns:xlink="http://www.w3.org/1999/xlink" version="1.1" viewBox="0 -120 1000 1000">
  <g transform="matrix(1 0 0 -1 0 880)">
   <path fill="currentColor"
d="M463 306q-76 -63 -168 -118q-96 -56 -236 -110l-9 17q125 66 180 104q126 87 206 179h-371l-10 27h408v111l71 -3q21 -1 21 -15q0 -9 -13 -14l-14 -7v-72h291l43 58l89 -68v-17h-410q50 -54 128 -99q76 -43 163 -73q42 -15 122 -37l-3 -14q-45 -15 -61 -50
q-84 30 -134 60q-103 60 -181 140q-24 24 -47 58v-296l-65 -10v249zM146 543l-9 -13q-9 -14 -14 -14q-9 0 -14 13l-31 73q163 10 292 26q5 39 6 75h-216l-10 27h225v93h-267l-10 27h277v108l70 -7q21 -2 21 -14q0 -8 -13 -14l-15 -6l-1 -147q0 -112 -7 -149
q-16 -79 -95 -134q-58 -40 -185 -73l-5 18q81 29 136 69q32 23 48.5 43.5t34.5 58.5zM577 442l-1 512l70 -6q22 -3 22 -15q0 -8 -14 -15l-16 -8v-59h164l41 54l82 -63v-18l-287 -1v-93l131 -1l37 55l78 -61v-21h-246v-100h181l40 59l84 -66v-19h-305v-126z" />
  </g>

</svg>
