<?xml version="1.0" standalone="no"?>
<!DOCTYPE svg PUBLIC "-//W3C//DTD SVG 1.1//EN" "http://www.w3.org/Graphics/SVG/1.1/DTD/svg11.dtd" >
<svg xmlns="http://www.w3.org/2000/svg" xmlns:xlink="http://www.w3.org/1999/xlink" version="1.1" viewBox="0 -120 1000 1000">
  <g transform="matrix(1 0 0 -1 0 880)">
   <path fill="currentColor"
d="M46 326q40 61 85 174q52 131 60 214h-121l-11 27h140v226l81 -10q22 -3 22 -16q0 -11 -15 -16l-31 -9v-175h35l37 48l81 -56v-19h-153v-125q47 -14 76 -36q48 -37 48 -70q0 -16 -12 -28q-7 -7 -17 -7t-18 8q-6 6 -28 56q-19 39 -49 53v-491l-57 -10v463q-12 -19 -49 -88
q-39 -68 -91 -126zM330 80q69 18 121 38q62 24 105 53q24 17 61 52q-13 4 -62 21q-36 12 -67 18l-10 -18h-67q36 61 80 154h-106l-10 28h131l5 14q33 80 43 108h-172l-15 28h299l86 208h-356l-14 28h217v156l45 -6q48 -6 52 -10q3 -2 3 -5q0 -14 -24 -20l-12 -3v-112h120
l42 55l90 -64v-19h-141l51 -23q10 -4 10 -11q0 -10 -13 -12l-21 -3l-100 -159h108l47 56l88 -63v-21h-349l24 -10q18 -7 18 -15q0 -12 -20 -16l-11 -3l-37 -78h240l40 50l87 -60v-18h-117q9 -8 9 -14q0 -7 -13 -10l-21 -6q-36 -72 -88 -133q64 -22 121 -50q93 -46 93 -83
q0 -13 -10 -22q-8 -8 -18 -8t-18 6q-6 4 -35 29q-93 63 -164 93q-58 -56 -168 -98q-73 -26 -170 -41zM554 398l-55 -114q58 -9 147 -32q26 31 47 67q27 48 39 79h-178zM458 775q115 -66 115 -136q0 -16 -12 -28q-10 -9 -20 -9q-11 0 -23 14q-3 4 -20 68q-10 37 -51 81z" />
  </g>

</svg>
