<?xml version="1.0" standalone="no"?>
<!DOCTYPE svg PUBLIC "-//W3C//DTD SVG 1.1//EN" "http://www.w3.org/Graphics/SVG/1.1/DTD/svg11.dtd" >
<svg xmlns="http://www.w3.org/2000/svg" xmlns:xlink="http://www.w3.org/1999/xlink" version="1.1" viewBox="0 -120 1000 1000">
  <g transform="matrix(1 0 0 -1 0 880)">
   <path fill="currentColor"
d="M41 317q124 187 156 393h-134l-13 27h147v220l86 -12q18 -2 18 -12q0 -8 -12 -14l-25 -13v-169h11l40 51l69 -60v-18h-120v-115q50 -15 82 -42q31 -27 31 -57q0 -29 -26 -29q-13 0 -23 9q-5 4 -31 55q-13 24 -33 41v-496l-67 -12v439q-29 -50 -47 -77q-28 -42 -94 -122z
M341 98l-13 27h292v223h-213l-15 28h387l40 48l71 -59v-17h-206v-223h139l46 54l85 -61v-20h-613zM450 758q1 -24 1 -39q0 -36 -13 -59q-18 -31 -49 -31q-13 0 -22 9q-9 10 -9 23q0 11 4 18q3 4 25 29q37 43 35 110h16q3 -14 6 -32h176v162l75 -7q18 -1 18 -12
q0 -10 -14 -14l-15 -5v-124h147l31 38l61 -49q23 -18 23 -27q0 -11 -28 -13l-24 -1l-88 -73l-12 10l47 87h-93v-216q0 -8 5 -12q6 -3 30 -3h52q29 -2 42 56l13 63h22l-5 -70q2 -21 9 -29q6 -7 31 -20q-15 -46 -57 -53h-147q-34 1 -48 23q-11 16 -11 58v203h-78q1 -13 1 -20
q0 -111 -41 -184q-39 -69 -191 -133l-9 18q9 6 51 29q82 50 109 135q16 51 17 87q2 63 2 68h-95z" />
  </g>

</svg>
