<?xml version="1.0" standalone="no"?>
<!DOCTYPE svg PUBLIC "-//W3C//DTD SVG 1.1//EN" "http://www.w3.org/Graphics/SVG/1.1/DTD/svg11.dtd" >
<svg xmlns="http://www.w3.org/2000/svg" xmlns:xlink="http://www.w3.org/1999/xlink" version="1.1" viewBox="0 -204 1024 1024">
  <g transform="matrix(1 0 0 -1 0 820)">
   <path fill="currentColor"
d="M28 730q43 -14 114 -14h18v164q0 54 -4 80q48 -5 80 -20q12 -7 12 -16t-10 -11q-15 -9 -30 -11v-186h40l40 40q29 -20 55 -42q7 -4 7 -10q0 -14 -10 -14h-132v-74q38 -32 59 -61q25 -29 35 -59q8 -18 8 -40q0 -30 -18 -30q-7 0 -13 6q-7 5 -13 26q-15 50 -33 81
q-11 22 -25 40v-533q0 -22 -30 -22q-22 0 -22 26q0 12 2 30q2 22 2 36v423q-15 -53 -30 -99q-15 -51 -37 -104q-19 -48 -51 -104l-10 16q22 63 41 118q15 53 29 119q14 52 23 114q7 49 11 91q-64 -1 -90 -4zM554 888q-42 -15 -89 -22q-27 -7 -55 -10l-2 -8v-162h78l40 40
q31 -23 59 -43q7 -5 7 -11q0 -14 -12 -14h-172v-198h70l40 40q32 -20 59 -42q7 -4 7 -10q0 -14 -14 -14h-162v-171l65 13q56 12 129 34l4 -22q-58 -24 -104 -40q-50 -16 -94 -28v-184q0 -12 -22 -12q-7 0 -20 6q-12 8 -12 24t3 46q7 22 7 96v10q-23 -6 -46 -10
q-10 -36 -16 -36t-46 80q59 6 108 16v598q0 37 -10 66l59 -42q36 11 67 29q32 16 46 39q46 -25 73 -42q7 -5 7 -12q0 -10 -10 -12q-5 0 -16 4q-10 4 -26 4zM642 938l50 -32h118l30 26q48 -27 48 -40q0 -9 -30 -22v-220q3 -22 44 -22q16 0 66 4q21 0 22 -18q-2 -15 -19 -21
q-21 -5 -69 -5q-46 0 -63 12q-21 11 -25 32v244h-119l-1 -4v-68q0 -36 -6 -69q-3 -32 -12 -62q-9 -23 -25 -46q-11 -17 -31 -36q-19 -15 -50 -29l-12 8q20 11 33 29q11 13 21 28q11 19 18 40q9 28 11 55q5 36 5 82q1 83 -4 134zM592 532q39 -6 110 -6h152l44 40
q38 -29 60 -49q10 -6 10 -17q0 -7 -18 -14q-15 -11 -40 -16q-37 -109 -69 -167q-31 -60 -59 -90q9 -10 14 -15q31 -33 74 -62q45 -28 106 -46v-18q-42 -4 -62 -36q-53 30 -93 64q-38 29 -65 70q-4 4 -6 8q-22 -22 -41 -36q-42 -35 -85 -57q-46 -26 -106 -43l-6 16
q71 31 101 53q32 23 79 60q19 17 35 36q-14 25 -28 54q-28 57 -47 126q-15 55 -19 108q-20 -1 -27 -3zM653 496q12 -59 30 -111q23 -65 49 -110q11 -17 25 -33q5 5 8 10q26 42 50 105q29 57 47 139h-209z" />
  </g>

</svg>
