<?xml version="1.0" standalone="no"?>
<!DOCTYPE svg PUBLIC "-//W3C//DTD SVG 1.1//EN" "http://www.w3.org/Graphics/SVG/1.1/DTD/svg11.dtd" >
<svg xmlns="http://www.w3.org/2000/svg" xmlns:xlink="http://www.w3.org/1999/xlink" version="1.1" viewBox="0 -120 1000 1000">
  <g transform="matrix(1 0 0 -1 0 880)">
   <path fill="currentColor"
d="M39 286q105 238 122 403h-110l-10 27h122v239l68 -8q29 -3 29 -16q0 -10 -17 -18l-18 -9v-188h52l42 54l65 -63v-17l-159 -1v-115q56 -26 85 -55q39 -38 39 -72q0 -41 -33 -41q-19 0 -28 26q-16 48 -26 66q-11 21 -37 52v-484l-61 -13v397q-78 -127 -114 -171zM259 185
q91 80 152 160q57 76 116 197h-195l-8 25h213q25 56 45 135l67 -20q30 -9 30 -19q0 -9 -17 -14l-19 -6q-15 -40 -31 -76h215l47 60l82 -70v-17h-356q-38 -71 -91 -149h281l27 43l61 -36q18 -11 18 -20t-17 -14l-16 -5v-280l-64 -11l1 49h-271v-44l-64 -12v279
q-79 -83 -131 -123q-25 -19 -66 -45zM529 143h270l1 224h-271v-224zM351 778l-11 26h144l-1 138l76 -9q16 -1 16 -13q0 -10 -14 -15l-17 -6v-95h171v135l72 -5q24 -2 24 -15q0 -10 -11 -14l-22 -7v-94h61l41 51l73 -59v-18h-175v-102l-63 -13v115h-171l-1 -108l-60 -9v117
h-132z" />
  </g>

</svg>
