<?xml version="1.0" standalone="no"?>
<!DOCTYPE svg PUBLIC "-//W3C//DTD SVG 1.1//EN" "http://www.w3.org/Graphics/SVG/1.1/DTD/svg11.dtd" >
<svg xmlns="http://www.w3.org/2000/svg" xmlns:xlink="http://www.w3.org/1999/xlink" version="1.1" viewBox="0 -204 1024 1024">
  <g transform="matrix(1 0 0 -1 0 820)">
   <path fill="currentColor"
d="M32 730q43 -14 114 -14h28v168q0 55 -4 80q57 -6 95 -20q15 -5 15 -16q0 -9 -15 -12q-17 -8 -43 -10v-190h58l38 44q32 -22 62 -46q6 -4 6 -10q0 -14 -10 -14h-154v-70q45 -33 75 -66q28 -31 41 -63q8 -20 8 -43q0 -32 -18 -32q-10 0 -17 7q-6 7 -13 29q-18 53 -40 86
q-13 26 -36 49v-479q0 -21 2 -30q2 -16 2 -28q0 -32 -30 -32q-26 0 -26 14q0 23 2 56q2 34 2 60v400q-13 -50 -32 -93q-17 -49 -42 -96q-22 -45 -58 -97l-10 14q26 57 47 112q18 50 35 109q14 50 24 109q8 45 16 84h-8q-69 -1 -96 -4zM598 958q24 -11 41 -23q18 -11 31 -20
q12 -8 16 -16t4 -15q0 -18 -6 -29q0 -1 -1 -1h165l44 48q36 -27 66 -49q10 -7 10 -13q0 -14 -14 -14h-117q-39 -40 -77 -67q-21 -14 -41 -25q24 -9 45 -19q46 -17 61 -27q16 -9 21 -18q6 -8 6 -16q0 -22 -16 -22q-10 0 -29 15q-20 13 -80 42q-26 13 -49 21q-8 -4 -15 -8
q-50 -23 -93 -38q-51 -17 -110 -32l-8 22q62 17 103 37q42 15 75 38q-9 3 -19 5q-59 20 -129 30l18 22q85 -12 147 -33q9 -2 19 -5q25 16 45 34q23 18 46 44h-249q-72 -1 -96 -4l-22 44q44 -12 118 -12h139l-2 6q-4 14 -12 28q-9 17 -22 28q-10 13 -27 30zM906 654
q36 -27 69 -49q7 -5 7 -13q0 -16 -10 -16h-530q0 -103 -8 -182q-8 -87 -23 -150q-16 -64 -35 -104q-25 -54 -78 -122l-14 14q33 47 53 99q18 48 31 103q13 58 18 143q7 82 8 153q-1 67 -4 120l66 -44h406zM782 554q44 -14 70 -24q6 -3 6 -12q0 -18 -50 -18q-47 -28 -103 -55
q-50 -25 -106 -42q-57 -18 -103 -27l-18 22q68 13 121 40q55 19 102 51q47 31 81 65zM830 416q43 -12 68 -22q8 -3 8 -14q0 -16 -52 -16q-53 -37 -121 -71q-56 -28 -123 -52q-68 -22 -124 -33l-16 22q80 16 143 47q67 26 121 65q53 33 96 74zM896 266q42 -14 68 -26
q8 -3 8 -10q0 -16 -52 -16q-73 -47 -161 -86q-77 -36 -164 -64q-91 -29 -165 -40l-14 22q103 19 189 57q87 29 163 74q71 41 128 89z" />
  </g>

</svg>
