<?xml version="1.0" standalone="no"?>
<!DOCTYPE svg PUBLIC "-//W3C//DTD SVG 1.1//EN" "http://www.w3.org/Graphics/SVG/1.1/DTD/svg11.dtd" >
<svg xmlns="http://www.w3.org/2000/svg" xmlns:xlink="http://www.w3.org/1999/xlink" version="1.1" viewBox="0 -120 1000 1000">
  <g transform="matrix(1 0 0 -1 0 880)">
   <path fill="currentColor"
d="M35 291q49 102 76 174q41 112 58 222h-117l-12 26h135v241l79 -11q21 -2 21 -14q0 -8 -12 -12l-23 -10v-194h30l35 56l55 -62v-20h-120v-129q40 -15 74 -43q47 -40 47 -77q0 -20 -14 -34q-9 -9 -19 -9q-5 0 -10 3q-10 7 -31 64q-15 41 -47 73v-475l-65 -9v429
q-55 -99 -127 -198zM343 254h268v98l-133 -1v-42l-61 -10v337l64 -34h130v71h-221l-11 28h232v116l78 -9q18 -2 18 -13t-12 -15l-20 -7v-72h142l38 51l75 -60v-19h-255v-71h131l23 39l60 -35q19 -11 19 -21q0 -8 -11 -11l-22 -5l-1 -245l-61 -10v38h-138v-98h160l45 55
l77 -61l-1 -20h-281l1 -160l-66 -12l1 172h-255zM478 468v-92h133v92h-133zM478 493h133v83h-133v-83zM675 468v-92h138v92h-138zM675 576v-83h138v83h-138zM453 848q1 -14 1 -22q0 -41 -17 -67q-17 -27 -44 -27q-13 0 -23 10q-8 9 -8 22t12 24q36 33 46 74q4 18 5 54h19
l7 -41h395l20 35l73 -54q14 -10 14 -20q0 -11 -24 -15l-26 -4l-80 -67l-11 7l34 91h-393z" />
  </g>

</svg>
