<?xml version="1.0" standalone="no"?>
<!DOCTYPE svg PUBLIC "-//W3C//DTD SVG 1.1//EN" "http://www.w3.org/Graphics/SVG/1.1/DTD/svg11.dtd" >
<svg xmlns="http://www.w3.org/2000/svg" xmlns:xlink="http://www.w3.org/1999/xlink" version="1.1" viewBox="0 -120 1000 1000">
  <g transform="matrix(1 0 0 -1 0 880)">
   <path fill="currentColor"
d="M32 297q39 91 72 211q28 100 36 181h-97l-9 27h109v239l75 -11q20 -3 20 -16q0 -7 -12 -13l-19 -10l-2 -189h31l38 51l60 -61v-17h-129v-98q45 -32 67 -56q31 -32 31 -66q0 -17 -12 -29q-9 -8 -20 -8q-6 0 -11 3q-10 7 -21 60q-6 26 -34 75l-1 -498l-64 -14l2 388
q-59 -101 -96 -157zM222 72q94 86 156 187q-24 45 -48 124l-37 -107v-25q0 -14 -6 -14q-3 0 -12 9l-39 41q20 26 41 61q42 67 46 85l6 29l43 -19l-26 -30q11 -53 46 -110q22 56 37 139q11 64 11 96l-68 1l-11 -41l-55 4l87 325l-127 -1l-11 26h138l21 37l55 -35
q15 -9 15 -19q0 -8 -15 -12l-20 -6l-71 -255h59l20 35l41 -29h141v107l-177 2l-9 26h186l1 99h-120l-10 26h129l2 128l72 -9q22 -3 22 -13q0 -9 -16 -14l-21 -8v-84h88l27 45l58 -40q19 -12 19 -20q0 -7 -17 -11l-18 -5v-94h25l34 52l56 -59v-21h-115v-157l-59 -10v32h-98
v-88l101 -1l38 48l66 -54v-19l-205 -1v-96h118l40 52l80 -59v-19l-238 -1v-121l-60 -12v135h-153l-9 25h162v98l-115 -1l-8 25l123 1l1 88h-114q-3 -10 -11 -12l-10 -4q-16 -88 -29 -137q-16 -61 -47 -135q41 -58 99 -81q57 -24 190 -23h245v-14q-19 -11 -24 -16
q-11 -10 -17 -38l-192 3q-111 2 -172 18q-60 16 -108 62q-19 18 -45 52q-52 -65 -94 -99q-42 -36 -79 -59zM698 568h98v107h-98v-107zM698 703h98v99h-98v-99z" />
  </g>

</svg>
