<?xml version="1.0" standalone="no"?>
<!DOCTYPE svg PUBLIC "-//W3C//DTD SVG 1.1//EN" "http://www.w3.org/Graphics/SVG/1.1/DTD/svg11.dtd" >
<svg xmlns="http://www.w3.org/2000/svg" xmlns:xlink="http://www.w3.org/1999/xlink" version="1.1" viewBox="0 -204 1024 1024">
  <g transform="matrix(1 0 0 -1 0 820)">
   <path fill="currentColor"
d="M32 750q44 -12 118 -12h30v138q0 54 -6 80q59 -7 97 -23q13 -4 13 -14t-13 -13q-19 -10 -43 -12v-156h16l41 45q34 -25 64 -49q7 -4 7 -10q0 -14 -14 -14h-114v-81q45 -28 70 -56q27 -25 40 -50q9 -18 9 -35q0 -32 -23 -32q-8 0 -14 5t-13 24q-17 45 -37 73
q-13 19 -32 38v-490q0 -24 1 -31v-29q0 -34 -30 -34q-26 0 -26 18q0 20 3 54q4 34 4 60v403q-14 -43 -30 -79q-20 -50 -46 -100q-26 -47 -63 -100l-13 18q31 58 53 113q21 51 39 113q16 51 28 109q10 48 16 89h-14q-72 -2 -98 -7zM332 862q44 -12 117 -12h16l-13 106
q45 -6 80 -12q11 -3 11 -9q0 -5 -12 -12q-14 -8 -26 -11l8 -62h23l38 41q31 -24 59 -45q7 -5 7 -10q0 -14 -13 -14h-111l10 -81q0 -10 -10 -14q-12 -7 -24 -7q-11 0 -13 10l-11 92h-19q-71 -2 -97 -7zM656 862q42 -10 108 -12q7 62 9 106q46 -5 84 -21q6 -3 6 -9
q0 -8 -16 -13l-31 -6q-1 -30 -4 -57h56l41 45q34 -25 64 -49q7 -4 7 -10q0 -14 -14 -14h-157q-3 -38 -9 -79q-3 -19 -28 -19q-22 0 -22 12l1 12q3 10 5 31q3 22 5 43q-61 -2 -85 -7zM364 705l61 -43h113l34 42q37 -23 55 -43q7 -7 7 -13q0 -9 -38 -32v-262q0 -74 3 -98
q1 -28 1 -46q0 -16 -11 -24q-14 -6 -24 -6q-17 0 -17 13v33h-132v-34q0 -12 -16 -12q-9 0 -24 6q-12 9 -12 24q0 18 3 47q4 22 4 97v280q0 41 -7 71zM416 254h132v188h-132v-188zM416 470h132v164h-132v-164zM878 678l34 42q37 -23 55 -43q7 -7 7 -13q0 -9 -39 -32v-524
q0 -35 -14 -52q-13 -17 -35 -25q-20 -11 -34 -11q-2 22 -9 35q-9 15 -19 20q-18 11 -40 13v26q43 -15 78 -15q16 0 20 5q6 6 6 26v180h-169l-3 -29q-2 -44 -14 -89q-8 -37 -22 -68q-13 -29 -33 -54q-18 -23 -49 -46l-14 11q18 19 32 43q14 21 23 44q10 26 18 60q8 41 11 82
q6 55 6 124q1 205 -4 328l57 -38h151zM722 650v-140h166v140h-166zM722 482v-94q0 -26 -1 -50h167v144h-166z" />
  </g>

</svg>
