<?xml version="1.0" standalone="no"?>
<!DOCTYPE svg PUBLIC "-//W3C//DTD SVG 1.1//EN" "http://www.w3.org/Graphics/SVG/1.1/DTD/svg11.dtd" >
<svg xmlns="http://www.w3.org/2000/svg" xmlns:xlink="http://www.w3.org/1999/xlink" version="1.1" viewBox="0 -410 2048 2048">
  <g transform="matrix(1 0 0 -1 0 1638)">
   <path fill="currentColor"
d="M442 1314q15 -12 37 -29q208 -158 208 -275q0 -67 -55 -67q-26 0 -37 20q-6 11 -17 62q-20 92 -117 211q-7 8 -19 24v-933q0 -3 3 -91l4 -51l2 -38q2 -30 2 -32q0 -52 -61 -52q-43 0 -43 33v1022q-108 -264 -269 -510l-31 21q195 354 276 805h-84q-67 0 -149 -11l-39 86
q115 -17 188 -17h108v305q0 117 -8 160l109 -24q86 -19 86 -45q0 -27 -50 -41l-43 -13v-342h104l86 84l112 -92q16 -13 16 -27q0 -23 -28 -23h-291v-120zM1589 1730h75l99 102l120 -107q18 -16 18 -26q0 -27 -28 -27h-284v-162l43 -30q25 -17 25 -30q0 -23 -35 -23h-515v-40
q0 -31 -51 -31q-50 0 -50 37q0 4 3 41l1 31l2 48v159h-67q-69 0 -149 -11l-39 86q116 -17 188 -17h67v116q-3 91 -8 123l109 -24q85 -19 85 -46q0 -28 -49 -41l-42 -12v-116h387v95q0 92 -8 133l109 -24q86 -19 86 -44q0 -34 -49 -44l-43 -8v-108zM1494 1484v188h-387v-188
h387zM1694 1069l61 72l72 -50q43 -29 43 -49q0 -17 -65 -53v-376q0 -38 7 -105q3 -28 3 -44q0 -49 -67 -49q-37 0 -37 25v47h-781v-47q0 -31 -55 -31q-54 0 -54 44q0 4 4 49q7 97 7 104v395q0 65 -7 133l126 -65h743zM1366 1015v-210h345v210h-345zM930 805h340v210h-340
v-210zM930 541h340v210h-340v-210zM1366 541h345v210h-345v-210zM1476 397q468 -127 468 -254q0 -50 -44 -50q-26 0 -68 42q-66 67 -188 137q-20 11 -181 93zM1107 291q-115 -79 -226 -125q-78 -32 -260 -80l-18 38q182 75 263 125q114 70 222 174l70 -56q48 -39 48 -55
q0 -21 -48 -21h-51zM741 1207l-39 85q126 -18 188 -18h874l98 101l121 -107q17 -15 17 -25q0 -26 -28 -26h-1082q-74 0 -149 -10z" />
  </g>

</svg>
