<?xml version="1.0" standalone="no"?>
<!DOCTYPE svg PUBLIC "-//W3C//DTD SVG 1.1//EN" "http://www.w3.org/Graphics/SVG/1.1/DTD/svg11.dtd" >
<svg xmlns="http://www.w3.org/2000/svg" xmlns:xlink="http://www.w3.org/1999/xlink" version="1.1" viewBox="0 -140 1000 1000">
  <g transform="matrix(1 0 0 -1 0 860)">
   <path fill="currentColor"
d="M609 324v47q-80 -2 -120 -2q-49 0 -113 4l2 17q148 7 249.5 24t204.5 54l48 -74l-12 -8l-27 15q-3 -1 -10 -1.5t-10 -0.5l-148 -24l-1 -51h174l40 51h13l52 -58v-15h-274q43 -59 103.5 -101t169.5 -88l-1 -15q-26 -3 -35 -7t-24 -20l-2 -3l-4 -4q-122 65 -212 212l1 -191
l-6 -15l-51 -12l-7 9v210q-108 -138 -301 -205l-7 11q80 38 135.5 89.5t107.5 129.5h-215v22h280zM602 844v82l103 -13l-1 -12l-38 -21v-36h183l38 49h14l51 -56v-16l-611 1v22h261zM820 751l34 33l14 -1l51 -50v-14l-26 -22v-207l-10 -10l-40 -16l-15 8l1 22h-371v-24
l-6 -11l-48 -15l-10 7v330l68 -30h358zM829 728h-371v-211h371v211zM702 678l27 25h16l44 -40l1 -11l-21 -19v-75l-5 -11l-46 -19l-10 9v24h-131v-14l-8 -10l-43 -10l-9 7v173l60 -29h125zM708 656h-131v-73h131v73zM201 710v220l102 -10l-1 -13l-37 -21v-176h19l31 49h16
l46 -55l-1 -17h-111v-116q55 -27 76 -48.5t21 -52.5q0 -20 -7 -31.5t-18 -11.5q-27 0 -38 56q-7 37 -34 67v-466l-9 -13l-44 -14l-10 9l-1 439q-42 -107 -134 -208l-10 8q97 152 142 382h-136v23h138z" />
  </g>

</svg>
