<?xml version="1.0" standalone="no"?>
<!DOCTYPE svg PUBLIC "-//W3C//DTD SVG 1.1//EN" "http://www.w3.org/Graphics/SVG/1.1/DTD/svg11.dtd" >
<svg xmlns="http://www.w3.org/2000/svg" xmlns:xlink="http://www.w3.org/1999/xlink" version="1.1" viewBox="0 -120 1000 1000">
  <g transform="matrix(1 0 0 -1 0 880)">
   <path fill="currentColor"
d="M24 294q40 92 60 145q46 124 64 246h-106l-11 28h117v239l81 -10q16 -3 16 -13q0 -8 -12 -13l-23 -11v-192h33l31 59l58 -67l-2 210l74 -37h425l44 57l80 -63v-22h-562v-123h120v103l72 -6q15 -2 15 -12q0 -7 -11 -12l-19 -8v-65h55l34 47l62 -54v-18h-151v-102h31l32 44
l56 -51v-17h-272l-9 24h105v102h-121l-2 -184q-1 -160 -44 -281q-27 -75 -84 -168l-15 11q39 84 54 142q33 126 33 356v107h-122v-117q31 -21 52 -38q47 -38 47 -76q0 -37 -28 -37q-23 0 -31 40q-9 40 -40 91v-486l-62 -10v416q-51 -103 -111 -181zM369 138q59 6 180 25
q10 63 20 153l72 -19q11 -3 11 -11t-15 -11l-13 -3l-49 -106l145 24l6 -17l-299 -89l-11 -15q-5 -8 -9 -8q-6 0 -10 10zM424 317l3 213l58 -30h101l21 32l53 -40q10 -7 10 -13q0 -7 -10 -9l-15 -3v-131l-53 -7v23h-116v-25zM476 475v-99h117v99h-117zM462 310q56 -44 56 -89
q0 -25 -14 -40q-8 -10 -21 -10q-21 0 -21 24l1 28q0 38 -14 77zM680 526q23 -20 42 -47q39 -56 39 -103q0 -33 -15 -48q-9 -8 -19 -8q-17 0 -24 20q-3 7 -3 36q0 24 -1 37q-4 43 -30 105zM686 629h123v200l69 -8q24 -2 24 -13q0 -7 -12 -13l-21 -10v-156h17l31 57l54 -62
v-22h-102v-478q0 -34 -26 -51q-33 -22 -63 -22q-6 0 -8 3q-2 2 -3 27q0 8 -2 11q-2 4 -17 8l-47 13v18h106v471h-113z" />
  </g>

</svg>
