<?xml version="1.0" standalone="no"?>
<!DOCTYPE svg PUBLIC "-//W3C//DTD SVG 1.1//EN" "http://www.w3.org/Graphics/SVG/1.1/DTD/svg11.dtd" >
<svg xmlns="http://www.w3.org/2000/svg" xmlns:xlink="http://www.w3.org/1999/xlink" version="1.1" viewBox="0 -410 2048 2048">
  <g transform="matrix(1 0 0 -1 0 1638)">
   <path fill="currentColor"
d="M1434 1151l7 -35q74 -348 196 -569q94 -170 207 -258q49 -38 132 -75v-33q-47 0 -68 -6q-47 -13 -77 -64q-172 175 -268 396q-81 184 -137 448l-4 22q-48 -389 -230 -625q-117 -152 -323 -271l-22 33q208 153 295 293q201 319 201 877q0 31 -5 78l142 -23q35 -6 35 -30
q0 -23 -35 -34l-43 -13l-3 -82v-29zM1256 1529h530l50 71l102 -85q21 -18 21 -32q0 -23 -40 -30l-45 -9q-141 -211 -232 -299l-32 24l24 39q90 141 142 267h-539q-83 -205 -217 -362l-29 24q199 305 261 826l105 -36q72 -25 72 -47q0 -20 -44 -29l-47 -10q-12 -47 -35 -147
q-12 -52 -47 -165zM588 1814q84 -73 179 -190q187 -228 187 -333q0 -40 -27 -57q-10 -7 -21 -7q-35 0 -65 93q-69 211 -275 457q-9 -18 -18 -40q-185 -436 -455 -651l-24 29q169 184 284 417q75 152 156 402l104 -43q67 -29 67 -51q0 -26 -49 -26h-43zM293 856h439l68 76
l84 -54q40 -26 40 -49q0 -28 -77 -61v-444l51 -30q22 -13 22 -36q0 -20 -17 -20h-618v-38q0 -29 -43 -29q-61 0 -61 51l9 162v388q0 2 -9 167zM285 294h467v504h-403h-64v-504zM593 1160l99 102l121 -107q16 -14 16 -26q0 -26 -27 -26h-307q-117 0 -192 -8l-38 88
q95 -23 230 -23h98z" />
  </g>

</svg>
