<?xml version="1.0" standalone="no"?>
<!DOCTYPE svg PUBLIC "-//W3C//DTD SVG 1.1//EN" "http://www.w3.org/Graphics/SVG/1.1/DTD/svg11.dtd" >
<svg xmlns="http://www.w3.org/2000/svg" xmlns:xlink="http://www.w3.org/1999/xlink" version="1.1" viewBox="0 -204 1024 1024">
  <g transform="matrix(1 0 0 -1 0 820)">
   <path fill="currentColor"
d="M208 946l58 -36h512l36 36q32 -19 51 -34q11 -9 11 -14q0 -12 -36 -36q-4 -165 -13 -288h35l48 54q38 -27 72 -54q8 -5 8 -12q0 -18 -14 -18h-150q-4 -73 -9 -133q-8 -136 -20 -203h13l52 62q40 -32 76 -61q8 -5 8 -13q0 -14 -14 -14h-140q-15 -59 -30 -80
q-12 -24 -38 -37q-24 -18 -78 -33q-6 23 -17 31q-14 11 -41 16q-25 9 -110 19l4 22q129 -22 164 -22q23 0 39 8q20 9 34 35q9 16 16 41h-583q-24 0 -24 8q0 10 2 24q3 11 14 69q19 102 31 238q1 12 2 23h-31q-69 -1 -96 -4l-18 44q43 -10 114 -10h34q7 86 18 179
q8 110 10 193zM184 208h559q2 7 5 12q13 55 25 226q4 49 7 98h-553q-1 -3 -1 -6q-13 -128 -32 -265q-6 -45 -10 -65zM229 574h552q11 154 11 306h-540q-12 -189 -23 -306zM398 826q75 -35 118 -71q38 -26 57 -55q15 -18 15 -40q0 -28 -22 -28q-11 0 -19 8q-9 5 -21 25
q-24 49 -53 79q-31 35 -83 70zM384 496q78 -33 122 -67q41 -28 58 -58q16 -18 16 -39q0 -26 -22 -26q-10 0 -20 6q-11 5 -22 25q-27 51 -54 79q-33 33 -86 70z" />
  </g>

</svg>
