<?xml version="1.0" standalone="no"?>
<!DOCTYPE svg PUBLIC "-//W3C//DTD SVG 1.1//EN" "http://www.w3.org/Graphics/SVG/1.1/DTD/svg11.dtd" >
<svg xmlns="http://www.w3.org/2000/svg" xmlns:xlink="http://www.w3.org/1999/xlink" version="1.1" viewBox="0 -140 1000 1000">
  <g transform="matrix(1 0 0 -1 0 860)">
   <path fill="currentColor"
d="M629 798v141l100 -22v-12l-36 -15v-92h124l39 40h15l58 -50v-13h-517v23h217zM192 344l-146 -25l-3 19l148 29v196l-136 -24l-5 21l141 25v188q-47 -14 -142 -36l-3 15q103 37 171 78t145 113l69 -57l-9 -11l-36 2q-70 -46 -134 -79l38 -11v-13l-37 -16v-164l78 13l30 45
l17 5l59 -35l2 -17l-186 -31v-197l108 17l30 45l18 3l53 -33l3 -18l-212 -36v-155q0 -47 16 -60.5t71 -13.5h450q59 0 76 10.5t28 54.5l16 63l13 -2l8 -117l28 -13v-14q-32 -22 -62.5 -28t-122.5 -6h-440q-30 0 -45 1t-37 7t-32.5 18t-19 35.5t-8.5 58.5v150zM900 617
l57 -43v-18h-576v23h336l58 175l83 -35l-3 -13l-31 -5l-87 -122h113l36 38h14zM487 745l11 9q98 -77 98 -117q0 -20 -9.5 -35.5t-21.5 -15.5q-17 0 -30 57q-17 61 -48 102zM485 488l70 -30h230l31 30h17l50 -46v-15l-28 -20v-214l-7 -11l-44 -12l-11 5v38h-244v-31l-8 -10
l-45 -11l-11 6v321zM549 235h244v201h-244v-201z" />
  </g>

</svg>
