<?xml version="1.0" standalone="no"?>
<!DOCTYPE svg PUBLIC "-//W3C//DTD SVG 1.1//EN" "http://www.w3.org/Graphics/SVG/1.1/DTD/svg11.dtd" >
<svg xmlns="http://www.w3.org/2000/svg" xmlns:xlink="http://www.w3.org/1999/xlink" version="1.1" viewBox="0 -410 2048 2048">
  <g transform="matrix(1 0 0 -1 0 1638)">
   <path fill="currentColor"
d="M1095 1694q6 -352 35 -502h402l99 101l120 -106q17 -15 17 -26q0 -26 -27 -26h-601q75 -374 269 -570q106 -108 208 -168q67 -40 104 -40q44 0 77 95l90 252l35 -12l-60 -252q-13 -56 -13 -91q0 -39 20 -80q12 -22 12 -37q0 -29 -46 -29q-110 0 -271 103
q-225 143 -362 366q-108 176 -159 463h-669v-669q289 70 538 179l19 -38q-135 -82 -264 -140q-28 -13 -276 -113l-5 -38q-4 -33 -24 -33q-19 0 -35 33l-60 124h11v1296l96 -67q342 34 591 80q315 58 532 172l97 -104q14 -15 14 -26q0 -17 -26 -17q-11 0 -20 3l-49 13
q-259 -73 -419 -96zM1000 1680q-205 -29 -536 -50q-45 -3 -89 -6v-432h660q-18 131 -31 412zM1224 246l98 101l121 -106q17 -15 17 -26q0 -26 -27 -26h-714q-117 0 -192 -8l-39 88q96 -23 231 -23h505z" />
  </g>

</svg>
