<?xml version="1.0" standalone="no"?>
<!DOCTYPE svg PUBLIC "-//W3C//DTD SVG 1.1//EN" "http://www.w3.org/Graphics/SVG/1.1/DTD/svg11.dtd" >
<svg xmlns="http://www.w3.org/2000/svg" xmlns:xlink="http://www.w3.org/1999/xlink" version="1.1" viewBox="0 -204 1024 1024">
  <g transform="matrix(1 0 0 -1 0 820)">
   <path fill="currentColor"
d="M252 960q48 -16 85 -35q5 -6 5 -11q0 -9 -18 -12q-24 -4 -32 -4q-14 -31 -31 -62h539l52 62q40 -30 75 -61q9 -5 9 -11q0 -16 -16 -16h-673q-11 -22 -24 -40q-36 -61 -76 -107q-42 -46 -101 -93l-14 10q53 54 89 103q29 42 56 92q29 50 47 95q18 42 28 90zM222 712
q44 -10 118 -10h346l48 54q38 -27 73 -54q7 -5 7 -12q0 -18 -14 -18h-460q-72 -1 -96 -4zM102 574q39 -8 112 -8h520l34 48q77 -53 76 -66q1 -12 -52 -34q0 -131 13 -195q11 -61 32 -102q17 -47 48 -81q14 -24 21 -24q6 0 14 19q16 33 56 183l14 -12q-40 -161 -40 -198
q0 -15 12 -30q10 -12 10 -28q0 -22 -22 -22q-15 0 -43 18q-34 20 -63 62q-34 48 -53 100q-23 58 -33 128q-14 76 -16 204h-528q-79 0 -94 -4z" />
  </g>

</svg>
