<?xml version="1.0" standalone="no"?>
<!DOCTYPE svg PUBLIC "-//W3C//DTD SVG 1.1//EN" "http://www.w3.org/Graphics/SVG/1.1/DTD/svg11.dtd" >
<svg xmlns="http://www.w3.org/2000/svg" xmlns:xlink="http://www.w3.org/1999/xlink" version="1.1" viewBox="0 -410 2048 2048">
  <g transform="matrix(1 0 0 -1 0 1638)">
   <path fill="currentColor"
d="M332 195v-49q0 -40 -58 -40q-53 0 -50 46l4 62q8 136 8 142v512l115 -64h236v201h-262q-63 0 -149 -10l-40 85q123 -18 189 -18h884l99 101l121 -107q17 -15 17 -25q0 -26 -27 -26h-454v-201h241l64 76l84 -54q40 -26 40 -48q0 -28 -78 -62v-350q0 -75 6 -140
q4 -41 4 -58q0 -52 -60 -52q-45 0 -45 41v38h-889zM965 746v-201q0 -50 50 -50q45 0 96 8q23 4 32 4q42 0 42 -45q0 -32 -34.5 -45t-118.5 -13q-94 0 -129 31q-33 27 -33 95v216h-186q-3 -114 -50 -201q-54 -103 -199 -198l-23 31q77 76 99 106q72 96 76 262h-255v-493h889
v493h-256zM684 804h186v201h-186v-201zM552 1766h996l108 114l131 -114q23 -20 23 -32q0 -23 -27 -23h-1261q-181 -245 -423 -403l-23 31q343 288 435 619l112 -38q66 -23 66 -45q0 -24 -37 -31l-62 -10q-17 -31 -38 -68zM543 1468l-39 86q126 -18 188 -18h644l105 115
l131 -112q23 -19 23 -34q0 -26 -27 -26h-876q-68 0 -149 -11zM280 1235l-39 86q121 -17 188 -17h1069l69 76l83 -54q40 -25 40 -48q0 -28 -77 -62q3 -509 110 -757q58 -133 116 -175q9 -7 14 -7q11 0 20 25q6 16 45 201l15 71l38 -7q-15 -144 -20 -187q-8 -74 -8 -121
q0 -36 24 -103q6 -17 6 -35q0 -35 -39 -35q-67 0 -168 112q-175 194 -227 562q-25 178 -25 486h-1085q-67 0 -149 -11z" />
  </g>

</svg>
