<?xml version="1.0" standalone="no"?>
<!DOCTYPE svg PUBLIC "-//W3C//DTD SVG 1.1//EN" "http://www.w3.org/Graphics/SVG/1.1/DTD/svg11.dtd" >
<svg xmlns="http://www.w3.org/2000/svg" xmlns:xlink="http://www.w3.org/1999/xlink" version="1.1" viewBox="0 -410 2048 2048">
  <g transform="matrix(1 0 0 -1 0 1638)">
   <path fill="currentColor"
d="M1660 1794q-211 -80 -390 -122v-557h448l98 101l121 -106q17 -16 17 -27q0 -25 -44 -25h-640v-771q0 -50 8 -121q2 -20 2 -43q0 -55 -66 -55q-41 0 -41 31v959h-397q-120 0 -192 -9l-38 88q95 -22 230 -22h397v537q-137 -26 -315 -45q-105 -12 -160 -15l-4 41
q305 44 440 80q305 83 499 204l81 -61q47 -35 47 -48q0 -25 -33 -25q-14 0 -68 11zM537 940l38 -22q-136 -317 -369 -669l13 -60q1 -5 1 -9q0 -26 -22 -26q-18 0 -63 52l-71 83q246 235 473 651zM91 1416q357 -153 357 -268q0 -21 -15 -39q-13 -15 -33 -15q-36 0 -83 66
q-64 89 -119 133q-35 28 -129 88zM207 1908q352 -136 352 -261q0 -26 -20 -42q-13 -10 -29 -10q-23 0 -43 17q-11 9 -46 61q-57 85 -230 201z" />
  </g>

</svg>
