<?xml version="1.0" standalone="no"?>
<!DOCTYPE svg PUBLIC "-//W3C//DTD SVG 1.1//EN" "http://www.w3.org/Graphics/SVG/1.1/DTD/svg11.dtd" >
<svg xmlns="http://www.w3.org/2000/svg" xmlns:xlink="http://www.w3.org/1999/xlink" version="1.1" viewBox="0 -120 1000 1000">
  <g transform="matrix(1 0 0 -1 0 880)">
   <path fill="currentColor"
d="M39 354v23h85l203 449l21 -7l-152 -401q-16 -43 -16 -93q0 -42 12 -123q10 -65 10 -80q0 -29 -17 -42q-15 -13 -34 -13q-18 0 -30 12q-9 8 -9 23q0 19 11 86q4 28 4 54q0 64 -26 89q-17 16 -62 23zM41 696l6 17q63 -9 106 -37q42 -27 42 -56q0 -21 -14 -35q-9 -8 -19 -8
q-19 0 -35 29q-12 23 -25 38q-16 17 -61 52zM117 916l5 12q44 0 102 -26q27 -12 40 -34q12 -18 12 -34q0 -19 -15 -33q-9 -9 -22 -9q-12 0 -20 8q-6 6 -17 29q-24 47 -85 87zM216 157q64 61 104 121q24 35 60 106q25 50 55 139h-132l-16 28h141l29 42l71 -63q5 -5 5 -11
q0 -8 -7 -10l-28 -7q-44 -121 -122 -220q-81 -102 -150 -142zM359 723h196l29 40l78 -48q9 -5 9 -15q0 -8 -9 -11l-30 -13q4 -24 16 -62q17 -51 35 -91q24 16 81 71q49 47 110 116l66 -58q9 -9 9 -17q0 -14 -19 -14h-39l-197 -122q77 -161 271 -266l-6 -20q-45 -1 -62 -45
q-68 57 -109 109q-78 100 -116 192q-21 50 -42 134v-468q0 -33 -15 -44q-17 -13 -48 -21q-15 -4 -22 -4q-6 0 -9 4q-2 3 -6 29q-3 15 -28 20l-58 10v18h126v548h-196zM447 937l2 17q90 -5 153 -35q35 -17 52 -41q13 -21 13 -38q0 -19 -14 -33q-9 -9 -19 -9q-15 0 -29 13
q-2 2 -36 47q-35 45 -122 79z" />
  </g>

</svg>
