<?xml version="1.0" standalone="no"?>
<!DOCTYPE svg PUBLIC "-//W3C//DTD SVG 1.1//EN" "http://www.w3.org/Graphics/SVG/1.1/DTD/svg11.dtd" >
<svg xmlns="http://www.w3.org/2000/svg" xmlns:xlink="http://www.w3.org/1999/xlink" version="1.1" viewBox="0 -140 1000 1000">
  <g transform="matrix(1 0 0 -1 0 860)">
   <path fill="currentColor"
d="M530 773l52 156l77 -30l-3 -14l-28 -5l-78 -107l243 -1l34 35h17l51 -49v-14l-23 -16v-621l-8 -11l-47 -15l-8 7l-1 47h-365v-33l-7 -13l-44 -13l-13 5v726l80 -35zM808 749h-365v-165h365v165zM808 562h-365v-178h365v178zM808 362h-365v-203h365v203zM193 408l171 484
l15 -6l-156 -572q-8 -30 -8 -56q0 -39 19 -93q12 -35 12 -59q0 -20 -14 -34.5t-33 -14.5q-16 0 -27.5 17.5t-11.5 40.5q0 8 4 47t4 45q0 28 -6 46.5t-20.5 29t-26 15t-35.5 10.5l3 17q3 0 16 -1t15 -1q30 0 45.5 16.5t33.5 68.5zM66 653l5 13q22 -9 56 -18q93 -28 93 -85
q0 -14 -8 -26t-18 -12q-15 0 -42 41q-26 40 -86 87zM126 905l6 11q33 -10 52.5 -17t44 -19.5t36.5 -29.5t12 -39q0 -40 -22 -40t-45 44q-21 41 -84 90z" />
  </g>

</svg>
