<?xml version="1.0" standalone="no"?>
<!DOCTYPE svg PUBLIC "-//W3C//DTD SVG 1.1//EN" "http://www.w3.org/Graphics/SVG/1.1/DTD/svg11.dtd" >
<svg xmlns="http://www.w3.org/2000/svg" xmlns:xlink="http://www.w3.org/1999/xlink" version="1.1" viewBox="0 -204 1024 1024">
  <g transform="matrix(1 0 0 -1 0 820)">
   <path fill="currentColor"
d="M124 938q60 -26 96 -54q33 -20 47 -42q13 -13 13 -28q0 -32 -24 -32q-9 0 -17 4q-9 3 -18 20q-19 38 -43 63q-24 26 -66 51zM50 694q67 -27 104 -52q32 -23 50 -43q10 -16 10 -29q0 -34 -24 -34q-9 0 -18 5q-6 4 -15 22q-23 38 -46 60q-26 28 -71 53zM266 460l8 -14
q-31 -78 -73 -162q-42 -89 -89 -172q-7 -48 -14 -48t-58 74q57 58 124 155q64 97 102 167zM402 938l62 -46h322l28 32q52 -29 52 -44q0 -9 -26 -26v-124q12 -11 21 -18q5 -4 5 -8q0 -14 -8 -14h-402v-32q0 -12 -22 -12q-8 0 -20 5q-12 8 -12 21q0 19 4 47q6 24 6 99v52
q0 39 -10 68zM456 716h336v150h-336v-150zM390 562v-172h212v172h-212zM390 360v-204q0 -15 11 -28q20 -17 78 -24q73 -6 183 -6q100 0 161 6q43 3 66 8q19 6 29 19q12 12 28 149h18l-10 -98q2 -31 9 -35q3 -11 20 -17q11 -7 11 -22q0 -6 -10 -13q-16 -13 -56 -21
q-46 -9 -110 -12q-75 -4 -146 -4q-123 0 -199 7q-75 6 -103 26q-28 19 -28 65v472l66 -40h446l34 44q36 -20 51 -42q7 -8 7 -14q0 -8 -40 -32v-139q16 -10 28 -20q4 -5 4 -9q0 -16 -6 -16h-542zM650 390h212v172h-212v-172z" />
  </g>

</svg>
