<?xml version="1.0" standalone="no"?>
<!DOCTYPE svg PUBLIC "-//W3C//DTD SVG 1.1//EN" "http://www.w3.org/Graphics/SVG/1.1/DTD/svg11.dtd" >
<svg xmlns="http://www.w3.org/2000/svg" xmlns:xlink="http://www.w3.org/1999/xlink" version="1.1" viewBox="0 -410 2048 2048">
  <g transform="matrix(1 0 0 -1 0 1638)">
   <path fill="currentColor"
d="M1129 902h380q9 64 14 166l143 -27q34 -6 34 -30q0 -21 -34 -34l-44 -17q-3 -32 -11 -58h127l91 102l118 -102q23 -20 23 -38q0 -19 -28 -19h-343q-37 -157 -83 -246q-47 -89 -103 -161q264 -98 379 -168q98 -61 98 -120q0 -53 -50 -53q-25 0 -72 37q-151 120 -412 238
q-114 -96 -285 -169q-167 -71 -421 -121l-8 41q402 106 616 284q-152 59 -436 130q117 162 183 308h-137q-136 0 -194 -8l-38 88q93 -23 232 -23h161l8 21q56 147 92 301l142 -46q31 -10 31 -30q0 -22 -31 -29l-58 -13q-35 -97 -84 -204zM1099 845q-43 -83 -64 -115
q-20 -32 -120 -161l61 -13q255 -53 346 -83q63 68 113 173q47 100 63 199h-399zM1761 1818q-421 -95 -1060 -114l-5 40q357 32 559 66q338 57 513 137l89 -92q23 -24 23 -38q0 -23 -34 -23q-27 0 -85 24zM721 1608q240 -173 240 -278q0 -33 -22 -53q-15 -14 -32 -14
q-18 0 -32 15q-10 11 -28 69q-39 125 -152 237zM1154 1672q214 -200 214 -316q0 -36 -26 -54q-13 -9 -27 -9q-39 0 -54 80q-20 107 -137 275zM1753 1686l101 -47q61 -28 61 -52q0 -25 -93 -29q-125 -196 -265 -306l-28 26q151 196 224 408zM230 1897q114 -40 203 -95
q130 -82 130 -150q0 -57 -53 -57q-35 0 -75 64q-51 82 -117 132q-38 29 -110 71zM106 1403q349 -132 349 -257q0 -59 -58 -59q-37 0 -75 63q-54 91 -119 140q-43 34 -120 79zM560 907l34 -22q-59 -144 -158 -330q-111 -214 -188 -339q4 -27 4 -39q0 -61 -21 -61
q-16 0 -51 47l-74 98q217 229 454 646z" />
  </g>

</svg>
