<?xml version="1.0" standalone="no"?>
<!DOCTYPE svg PUBLIC "-//W3C//DTD SVG 1.1//EN" "http://www.w3.org/Graphics/SVG/1.1/DTD/svg11.dtd" >
<svg xmlns="http://www.w3.org/2000/svg" xmlns:xlink="http://www.w3.org/1999/xlink" version="1.1" viewBox="0 -410 2048 2048">
  <g transform="matrix(1 0 0 -1 0 1638)">
   <path fill="currentColor"
d="M913 658h-187q-158 -3 -192 -8l-38 88q111 -22 230 -22h217q46 94 73 198l116 -42q52 -18 52 -43q0 -24 -56 -32l-35 -6q-23 -43 -43 -75h407q16 69 20 161l140 -32q44 -10 44 -34q0 -25 -33 -34l-51 -16l-5 -23l-5 -22h178l96 104l126 -101q25 -20 25 -38q0 -23 -25 -23
h-416q-63 -178 -168 -281q196 -56 347 -120q149 -63 149 -130q0 -46 -45 -46q-29 0 -149 72q-115 69 -377 162q-239 -160 -744 -233l-8 37q441 105 647 233q-23 9 -192 59q-144 42 -216 60q56 74 118 187zM1012 658q-62 -94 -123 -159q77 -20 281 -66q35 -7 106 -26
q115 103 164 251h-428zM1688 1266h73l88 96l118 -99q21 -18 21 -34q0 -19 -21 -19h-279v-153l40 -30q22 -17 22 -32q0 -22 -22 -22h-488v-41q0 -37 -54 -37q-44 0 -44 37v41h-294q-97 0 -161 -5q-17 -2 -23 -2q-8 0 -19 1l-31 87q93 -23 218 -23h310v179h-385
q-123 0 -193 -8l-37 88q91 -24 230 -24h385v176h-272q-46 0 -190 -8l-31 80q86 -14 221 -14h272v187h-396q-120 0 -192 -8l-42 92q87 -26 234 -26h396v49q0 117 -7 160l119 -25q75 -16 75 -45q0 -28 -49 -42l-40 -11v-86h464l96 110l136 -110q25 -19 25 -30q0 -28 -35 -28
h-686v-187h344l60 74l91 -68q27 -20 27 -36q0 -30 -74 -50v-154zM1240 1266h352v176h-352v-176zM1240 1210v-179h352v179h-352zM196 1895q113 -43 202 -112q88 -68 88 -132q0 -56 -50 -56q-34 0 -67 63q-66 123 -199 201zM81 1411q108 -42 187 -93q126 -82 126 -147
q0 -31 -22 -49q-15 -12 -33 -12q-33 0 -74 69q-49 82 -112 133q-20 16 -97 64zM465 920l35 -21l-14 -35q-136 -346 -261 -614q2 -43 2 -57q0 -38 -18 -38t-51 41l-75 95q147 192 246 372q68 122 136 257z" />
  </g>

</svg>
