<?xml version="1.0" standalone="no"?>
<!DOCTYPE svg PUBLIC "-//W3C//DTD SVG 1.1//EN" "http://www.w3.org/Graphics/SVG/1.1/DTD/svg11.dtd" >
<svg xmlns="http://www.w3.org/2000/svg" xmlns:xlink="http://www.w3.org/1999/xlink" version="1.1" viewBox="0 -140 1000 1000">
  <g transform="matrix(1 0 0 -1 0 860)">
   <path fill="currentColor"
d="M375 529v22h228v138l100 -22v-12l-36 -15v-89h150l41 45h14l56 -50v-17h-327q-2 -35 -14 -122h180l31 29h12l58 -51v-18l-31 -14q-15 -185 -46 -241.5t-129 -62.5l-14 6l-5 32l-74 45l6 14l61 -12q32 -6 49 -6q44 0 61.5 50.5t24.5 205.5h-188q-38 -127 -96.5 -197.5
t-183.5 -138.5l-11 12q129 96 182.5 200t58.5 269h-158zM75 315v14h36q31 0 54 53l157 377l15 -5l-123 -410q-18 -60 -18 -93t13 -91q9 -42 9 -59q0 -57 -43 -57q-44 0 -44 59q0 1 10 59t10 69q0 57 -37 70zM57 670l6 12q81 -18 111 -36t30 -59q0 -36 -24 -36q-11 0 -35 35
q-35 49 -88 84zM119 916l7 10q81 -21 109.5 -39t28.5 -51q0 -44 -20 -44q-19 0 -46 44q-25 39 -79 80zM897 857l46 -48v-16h-135v-87l-10 -10l-44 -10l-11 6v101h-51v23h51v111l94 -19v-14l-29 -14v-64h41l37 41h11zM351 793v23h142v110l94 -20v-13l-29 -14v-63h34l34 39h12
l43 -46v-16h-123v-90l-10 -10l-44 -9l-11 5v104h-142z" />
  </g>

</svg>
