<?xml version="1.0" standalone="no"?>
<!DOCTYPE svg PUBLIC "-//W3C//DTD SVG 1.1//EN" "http://www.w3.org/Graphics/SVG/1.1/DTD/svg11.dtd" >
<svg xmlns="http://www.w3.org/2000/svg" xmlns:xlink="http://www.w3.org/1999/xlink" version="1.1" viewBox="0 -200 1000 1000">
  <g transform="matrix(1 0 0 -1 0 800)">
   <path fill="currentColor"
d="M661 458q37 -92 71.5 -149.5t71.5 -94t79 -58.5t95 -44q-35 -7 -66 -14.5t-53 -18.5q-32 27 -59.5 55t-52 64.5t-46 85.5t-40.5 117v-395q-11 -26 -55 -32v343q-15 -26 -47 -65.5t-73.5 -80t-89 -76t-94.5 -54.5l-10 1q5 0 25.5 16t49.5 45t63 70.5t67.5 91.5t62 108.5
t46.5 121.5v250h-154l-57 -15l-26 40h237v197l76 -30l-21 -63v-104h126l42 41l68 -66h-236v-287zM483 553q45 -15 65 -44t20 -58q0 -15 -1 -16q0 -8 -6.5 -17t-16.5 -9q-14 0 -20 17.5t-11.5 40.5t-12 45.5t-21.5 33.5q-8 -24 -21.5 -51.5t-29.5 -54.5t-32.5 -51t-31.5 -42
l-13 4q15 28 33 68.5t35 88t31.5 99.5t22.5 104l69 -51l-25 -30zM783 546q-5 -10 -15.5 -28.5t-24 -39t-28.5 -38.5t-28 -27l-6 5q14 26 30 63t30 77t25 79.5t15 71.5l73 -52l-27 -26q-10 -16 -18.5 -31.5t-17.5 -36.5q22 -9 42.5 -22.5t35.5 -29.5t24 -33t9 -32
q0 -11 -4 -18q-2 -14 -5 -22t-7 -11.5t-9 -4t-10 -0.5q-11 2 -18.5 23.5t-15.5 48t-19.5 51.5t-30.5 33zM172 291q5 5 10.5 16.5t13.5 33.5t20 56l30 85q23 69 55 170t77 248l14 -4l-156 -619q-3 -19 -6 -51.5t-3 -92.5q0 -26 1 -58.5t3 -72.5q-14 -14 -22.5 -17.5
t-16.5 -3.5h-9q-18 0 -24 10t-6 19q0 12 2 30t4 37t4 35.5t2 24.5q0 15 -2 31t-10.5 32.5t-25 33.5t-45.5 34v15h4q11 -2 21 -3.5t20 -1.5q14 0 26 3t19 10zM147 507h-2q-13 0 -23 18t-23 44.5t-32.5 55.5t-51.5 50l5 9q66 -21 107.5 -45t46.5 -59q1 -6 1.5 -11.5t0.5 -10.5
q0 -24 -8.5 -37t-20.5 -14zM220 794q-8 38 -33 71t-60 59v10q32 -10 60.5 -20.5t50 -24t34 -30.5t12.5 -40q0 -8 -3.5 -16.5t-8.5 -16t-11 -12t-12 -4.5q-19 0 -29 24z" />
  </g>

</svg>
