<?xml version="1.0" standalone="no"?>
<!DOCTYPE svg PUBLIC "-//W3C//DTD SVG 1.1//EN" "http://www.w3.org/Graphics/SVG/1.1/DTD/svg11.dtd" >
<svg xmlns="http://www.w3.org/2000/svg" xmlns:xlink="http://www.w3.org/1999/xlink" version="1.1" viewBox="0 -410 2048 2048">
  <g transform="matrix(1 0 0 -1 0 1638)">
   <path fill="currentColor"
d="M566 914l35 -22q-143 -338 -356 -668q4 -27 4 -43q0 -57 -23 -57q-18 0 -46 37l-81 107q213 221 467 646zM105 1411q340 -130 340 -259q0 -55 -50 -55q-22 0 -42 16q-10 8 -43 62q-57 94 -227 202zM226 1909q324 -118 324 -248q0 -55 -52 -55q-19 0 -36 13q-11 9 -43 62
q-62 102 -214 192zM1192 1003h-367v-15q0 -54 -58 -54q-54 0 -54 45q0 17 4 50q12 93 12 210v429q-2 33 -9 130l121 -88h198q42 96 79 257l134 -51q38 -14 38 -36q0 -24 -47 -32l-51 -8q-57 -82 -96 -130h652l68 76l84 -54q40 -26 40 -48q0 -33 -77 -60v-380q0 -96 13 -220
q3 -30 3 -50q0 -46 -56 -46q-55 0 -55 43v32h-472q-52 -139 -190 -238q-94 -66 -225 -109q-28 -9 -108 -34h609v200q0 114 -8 160l109 -24q86 -19 86 -46q0 -25 -51 -42l-40 -13v-235h244l106 114l142 -114q16 -13 16 -29q0 -29 -30 -29h-478v-190q0 -100 13 -218
q3 -31 3 -50q0 -46 -57 -46q-55 0 -55 41v463h-591q-106 0 -192 -8l-38 92q67 -23 174 -26l-10 32q34 13 51 19q187 68 291 155q77 66 125 175zM1336 1336q-10 -203 -25 -276h457v276h-432zM1336 1652v-262h432v262h-432zM1240 1652h-415v-262h415v262zM1240 1336h-415v-276
h383q25 86 32 276z" />
  </g>

</svg>
