<?xml version="1.0" standalone="no"?>
<!DOCTYPE svg PUBLIC "-//W3C//DTD SVG 1.1//EN" "http://www.w3.org/Graphics/SVG/1.1/DTD/svg11.dtd" >
<svg xmlns="http://www.w3.org/2000/svg" xmlns:xlink="http://www.w3.org/1999/xlink" version="1.1" viewBox="0 -140 1000 1000">
  <g transform="matrix(1 0 0 -1 0 860)">
   <path fill="currentColor"
d="M937 653h-149v-152l-6 -11l-49 -13l-9 8v33h-125q0 -21 -6 -34l-51 -14l-7 7v176h-113q-3 -216 -46.5 -339t-161.5 -257l-11 11q97 160 126 283.5t29 375.5q0 88 -1 126l74 -29h195v114l92 -14v-15l-27 -16v-69h140l42 45h16l56 -50v-19h-523v-124h113v114l98 -21v-16
l-34 -16v-61h125v104l95 -18v-16l-31 -20v-50h41l39 45h15l54 -52v-16zM599 540h125v113h-125v-113zM270 51l-3 15q129 29 199.5 59.5t149.5 91.5q-34 44 -52.5 79t-48.5 113h-74l1 23h335l32 31h13l57 -58l-4 -16l-30 -9q-66 -106 -142 -173q71 -48 120.5 -68t125.5 -32
v-11q-25 -9 -35.5 -19t-20.5 -34q-76 23 -123.5 49t-113.5 80q-93 -54 -173 -79t-213 -42zM777 409h-239q62 -110 119 -164q75 69 120 164zM324 859l13 -5l-142 -481q-27 -91 -27 -124q0 -40 14 -88q16 -51 16 -72q0 -18 -13 -32.5t-29 -14.5q-19 0 -32 16t-13 40
q0 11 10 69t10 68q0 30 -12.5 52.5t-31.5 26.5l-25 5v16q24 2 36.5 5t26.5 17t24 42zM103 919l5 9q74 -17 101.5 -32t27.5 -46q0 -48 -27 -48q-13 0 -43 48q-20 31 -64 69zM64 673l6 10q74 -14 106 -46q17 -19 17 -47q0 -15 -9 -28.5t-19 -13.5q-4 0 -7.5 1t-6.5 4t-5 5.5
t-5.5 8t-5.5 9.5t-6.5 12.5t-7.5 14.5q-19 36 -57 70z" />
  </g>

</svg>
