<?xml version="1.0" standalone="no"?>
<!DOCTYPE svg PUBLIC "-//W3C//DTD SVG 1.1//EN" "http://www.w3.org/Graphics/SVG/1.1/DTD/svg11.dtd" >
<svg xmlns="http://www.w3.org/2000/svg" xmlns:xlink="http://www.w3.org/1999/xlink" version="1.1" viewBox="0 -410 2048 2048">
  <g transform="matrix(1 0 0 -1 0 1638)">
   <path fill="currentColor"
d="M1208 1042v249h-242q-137 -2 -197 -8l-40 88q95 -24 237 -24h242v234h-335q-107 0 -195 -8l-39 88q92 -26 234 -26h810l97 98l122 -98q21 -17 21 -35q0 -19 -21 -19h-594v-234h262l97 96l120 -96q27 -22 27 -39t-23 -17h-483v-249h408l99 107l132 -115q15 -13 15 -24
q0 -22 -27 -22h-701l109 -27q38 -10 38 -32q0 -24 -27 -31l-55 -15q-18 -118 -31 -170h448l99 112l138 -112q21 -17 21 -37q0 -19 -27 -19h-690q-57 -190 -172 -305q-188 -188 -505 -278l-14 40q254 101 410 252q116 112 176 291h-321q-113 0 -182 -7l-14 -1l-43 88
q99 -24 239 -24h332q24 106 28 275h-356q-138 -2 -196 -8l-36 89q113 -27 232 -27h373zM882 1954q122 -38 189 -93q74 -60 74 -117t-49 -57q-34 0 -63 58q-48 96 -165 174zM1533 1958l119 -53q41 -18 41 -38q0 -25 -107 -31q-77 -87 -192 -161l-30 24q110 113 169 259z
M1365 549q235 -98 404 -216q171 -119 171 -191q0 -50 -47 -50q-17 0 -34 9q-19 9 -70 76q-77 101 -258 223q-102 70 -186 116zM225 1908q329 -120 329 -247q0 -55 -52 -55q-37 0 -74 64q-64 110 -224 203zM99 1410q348 -129 348 -257q0 -57 -52 -57q-21 0 -42 16
q-11 9 -45 63q-59 95 -232 201zM533 918l35 -22q-44 -115 -156 -344q-85 -174 -176 -325q5 -26 5 -38q0 -62 -22 -62q-18 0 -46 37l-80 108q218 247 440 646z" />
  </g>

</svg>
