<?xml version="1.0" standalone="no"?>
<!DOCTYPE svg PUBLIC "-//W3C//DTD SVG 1.1//EN" "http://www.w3.org/Graphics/SVG/1.1/DTD/svg11.dtd" >
<svg xmlns="http://www.w3.org/2000/svg" xmlns:xlink="http://www.w3.org/1999/xlink" version="1.1" viewBox="0 -204 1024 1024">
  <g transform="matrix(1 0 0 -1 0 820)">
   <path fill="currentColor"
d="M114 936q62 -24 97 -50q32 -20 47 -39q11 -15 11 -28q0 -35 -25 -35q-9 0 -17 4t-16 20q-20 37 -44 59q-24 25 -67 51zM58 692q65 -25 102 -51q34 -21 50 -42q11 -14 11 -28q0 -35 -25 -35q-10 0 -18 5q-8 4 -17 20q-21 38 -46 61q-26 25 -71 52zM287 460l9 -19
q-36 -76 -81 -159q-46 -87 -98 -169q-5 -50 -13 -50q-7 0 -60 73q63 59 133 157q69 94 110 167zM618 952q59 -7 97 -23q13 -4 13 -14t-13 -13q-19 -10 -43 -12v-152h190q1 2 1 5q1 19 1 34v55q0 53 -6 80q51 -8 84 -23q12 -6 12 -15q0 -10 -10 -13q-14 -11 -32 -12v-72
q0 -27 2 -36v-35q0 -22 -30 -22q-24 0 -24 26h-433q-8 -6 -23 -6q-24 0 -24 27q0 12 3 32q1 19 1 34v35q0 53 -6 80q51 -8 84 -23q12 -6 12 -15q0 -10 -10 -13q-14 -11 -32 -12v-52q0 -27 2 -36v-23h190v134q0 54 -6 80zM903 675l72 -55q9 -6 9 -12q0 -14 -16 -14h-560v-114
q0 -71 -7 -132q-4 -55 -19 -112q-11 -45 -29 -84q-17 -35 -43 -68q-24 -27 -64 -56l-14 11q26 24 46 54q19 25 32 55q15 32 25 75q12 50 17 102q8 69 8 155q0 113 -4 180l57 -38h443zM466 456q23 -22 41 -44q18 -20 28 -35q10 -14 15 -24l6 -18q2 -7 2 -16q-1 -35 -26 -35
q-3 0 -6 4t-14 36t-24 57q-13 26 -36 59zM630 552q55 -8 90 -17q18 -5 18 -14q0 -10 -14 -16q-13 -8 -29 -13q-2 -77 -12 -131q6 -38 18 -69q1 -3 2 -4q23 18 41 34q24 22 44 47q19 23 34 47q16 24 25 48q88 -52 88 -67q0 -12 -21 -12q-13 0 -36 5q-26 -29 -59 -54
q-29 -23 -59 -41q-24 -16 -47 -29q13 -26 33 -48q26 -35 64 -62q34 -26 87 -51q43 -21 95 -26l-1 -15q-50 0 -73 -36q-73 32 -115 69q-45 37 -74 80q-33 45 -49 87q-6 18 -10 36q-11 -47 -28 -77q-23 -50 -61 -86q-38 -40 -88 -65q-54 -29 -122 -44l-7 23q69 18 112 49
q41 29 76 71q34 42 54 92q17 49 25 104q9 55 9 101q0 52 -10 84z" />
  </g>

</svg>
