<?xml version="1.0" standalone="no"?>
<!DOCTYPE svg PUBLIC "-//W3C//DTD SVG 1.1//EN" "http://www.w3.org/Graphics/SVG/1.1/DTD/svg11.dtd" >
<svg xmlns="http://www.w3.org/2000/svg" xmlns:xlink="http://www.w3.org/1999/xlink" version="1.1" viewBox="0 -120 1000 1000">
  <g transform="matrix(1 0 0 -1 0 880)">
   <path fill="currentColor"
d="M327 770l-127 -440q-15 -51 -15 -70q0 -17 25 -124q1 -6 1 -15q0 -21 -12 -40q-13 -21 -38 -21q-16 0 -24 10q-15 17 -15 43q0 22 8 68q4 27 4 49q0 37 -18 58q-15 19 -66 26v22h88l172 440zM61 694q67 -23 87 -37q42 -30 42 -70q0 -13 -9 -23q-12 -14 -24 -14
q-13 0 -27 28q-30 60 -45 73q-11 11 -33 24zM148 920q127 -42 127 -97q0 -19 -14 -33q-8 -8 -17 -8q-19 0 -44 45q-27 50 -61 77zM459 357q-4 -87 -44 -159q-47 -83 -127 -131l-12 15q57 45 85 104q35 70 38 182v250l62 -33h308l23 36l60 -38q13 -8 13 -15q0 -5 -13 -11
l-19 -10v-211l-60 -8v29h-314zM459 385h314v74h-314v-74zM459 486h314v71h-314v-71zM946 655q-13 2 -21 2q-17 0 -32 -16q-2 -2 -16 -20q-172 115 -250 277q-86 -141 -176 -216q-80 -63 -136 -97l-10 16q4 3 51 42q88 76 145 167q28 46 78 149l74 -27q17 -6 17 -13
q0 -9 -11 -11l-8 -2q87 -147 303 -233zM468 58v264l64 -35h253l21 35l58 -38q16 -10 16 -18q0 -9 -14 -12l-18 -4v-169l-59 -10v35h-264v-39zM525 259v-126h264v126h-264zM473 685h179l42 49l64 -54v-22h-272z" />
  </g>

</svg>
