<?xml version="1.0" standalone="no"?>
<!DOCTYPE svg PUBLIC "-//W3C//DTD SVG 1.1//EN" "http://www.w3.org/Graphics/SVG/1.1/DTD/svg11.dtd" >
<svg xmlns="http://www.w3.org/2000/svg" xmlns:xlink="http://www.w3.org/1999/xlink" version="1.1" viewBox="0 -204 1024 1024">
  <g transform="matrix(1 0 0 -1 0 820)">
   <path fill="currentColor"
d="M124 938q57 -26 91 -54q32 -20 45 -42q10 -13 10 -28q0 -32 -22 -32q-9 0 -18 4q-7 3 -15 20q-18 38 -41 63q-22 26 -62 51zM50 694q65 -27 102 -52q31 -23 48 -43q12 -16 12 -29q0 -34 -26 -34q-9 0 -16 5q-7 4 -16 22q-23 38 -45 60q-26 28 -69 53zM230 464l10 -16
q-27 -77 -60 -162q-33 -90 -68 -174q-7 -48 -14 -48t-58 74q48 59 103 157q56 98 87 169zM296 832q40 -9 101 -10q1 20 1 45q0 58 -4 87q42 -5 75 -16q9 -5 9 -14q0 -4 -14 -9q-9 -3 -22 -5v-88h80v58q0 49 -4 74q47 -8 79 -16q9 -7 9 -14q0 -5 -8 -8q-11 -6 -28 -10v-84h94
v44q0 52 -6 80q59 -7 96 -23q14 -6 14 -13q0 -9 -14 -13q-20 -11 -42 -13v-62h80v132q45 -9 74 -22q10 -4 10 -12q0 -7 -12 -12q-10 -5 -24 -10v-76h36l44 48q32 -27 62 -49q8 -5 8 -11q0 -18 -10 -18h-140v-50q0 -32 2 -45q2 -10 6 -18q4 -7 15 -10q15 -5 30 -5q14 0 29 4
q11 2 17 10q7 8 11 8q16 0 27 -9q7 -8 9 -23q0 -5 -2 -8q-2 -5 -5 -7q-10 -8 -27 -10q-25 -5 -52 -5q-34 0 -56 5q-18 3 -26 10q-8 6 -14 15q-7 11 -10 29q-2 16 -2 43v66h-80v-102q12 -11 21 -18q5 -4 5 -8q0 -14 -8 -14h-157q-2 -30 -29 -30q-26 0 -26 16q0 15 2 34
q2 23 2 38v84h-82q-1 -17 -5 -38q-8 -36 -21 -62q-19 -30 -36 -48q-22 -25 -72 -56l-10 18q36 27 53 58q18 24 29 53q10 27 14 54q2 9 3 21q-57 -1 -81 -4zM664 676v116h-94v-80q0 -21 2 -29v-7h92zM354 602h14v-44h528l28 30q32 -21 59 -50q3 -2 3 -6q0 -6 -17 -11
q-17 -3 -31 -7q-10 -18 -27 -34q-15 -21 -31 -34l-18 10q14 22 22 38q8 20 12 36h-246v-126h160l34 44q36 -20 52 -42q6 -6 6 -12q0 -10 -40 -34v-178q0 -35 -11 -52q-11 -18 -31 -26q-16 -10 -28 -10q0 21 -10 33q-8 13 -27 20q-24 11 -53 13v26q55 -16 98 -16q10 0 14 5
q4 6 4 25v176h-168v-260q0 -21 2 -29q2 -19 2 -29q0 -34 -30 -34q-26 0 -26 18q0 20 2 54q2 35 2 60v220h-156v-278q0 -12 -20 -12q-7 0 -20 5q-12 9 -12 21q0 19 3 47q5 24 5 99v122q0 39 -8 68l62 -44h146v126h-235q-1 -16 -6 -32q-5 -26 -14 -46q-6 -14 -17 -25
q-9 -12 -20 -15q-9 -4 -14 -4q-26 0 -26 18q0 8 14 19q27 29 41 48q13 21 20 44q7 25 9 65z" />
  </g>

</svg>
