<?xml version="1.0" standalone="no"?>
<!DOCTYPE svg PUBLIC "-//W3C//DTD SVG 1.1//EN" "http://www.w3.org/Graphics/SVG/1.1/DTD/svg11.dtd" >
<svg xmlns="http://www.w3.org/2000/svg" xmlns:xlink="http://www.w3.org/1999/xlink" version="1.1" viewBox="0 -120 1000 1000">
  <g transform="matrix(1 0 0 -1 0 880)">
   <path fill="currentColor"
d="M317 757l-128 -434q-12 -42 -12 -56q0 -11 4 -29q20 -85 20 -112q0 -26 -17 -39q-16 -13 -32 -13q-13 0 -24 12q-15 14 -14 22l12 139q1 7 -14 31q-10 17 -23 24q-12 7 -36 12v20h76l170 431zM67 710q42 -16 77 -42q39 -30 39 -68q0 -20 -13 -31q-9 -9 -20 -9
q-23 0 -35 43q-16 57 -57 92zM132 927q64 -23 87 -40q40 -28 40 -63q0 -18 -11 -27q-10 -9 -23 -9q-16 0 -24 18q-20 42 -32 59q-17 26 -47 45zM270 202q136 66 265 191h-70v-22l-58 -9v230q-59 -36 -126 -71l-10 14q96 77 171 167l67 -25q22 -9 22 -14q0 -11 -22 -12
l-21 -2l-62 -44l47 -26h282l22 31l62 -44q14 -9 14 -16t-15 -11l-16 -4v-155l-60 -7v20h-114q35 -59 86 -114q58 40 130 119l54 -42q12 -10 12 -16q0 -9 -11 -8q-4 0 -10 1l-15 3l-142 -71q36 -36 93 -71q51 -30 106 -52l-8 -17h-13q-28 0 -53 -32q-27 13 -87 65
q-57 50 -98 108q-48 67 -71 127q-29 -28 -91 -75v-157l179 19l3 -19l-278 -70l-4 -11q-6 -14 -14 -14q-7 0 -13 9l-45 71l111 10v123q-84 -53 -188 -91zM465 417h297v138h-297v-138zM331 811l-11 25h270v124l70 -9q27 -4 27 -15q0 -9 -16 -17l-18 -9v-74h168l44 54l88 -62
v-17h-622zM712 750l25 33l49 -36q15 -10 15 -15q0 -9 -19 -12l-29 -4q68 -67 217 -128l-2 -12q-26 -9 -37 -17q-9 -8 -16 -26q-80 49 -118 88q-46 46 -78 104h-243l-12 25h248z" />
  </g>

</svg>
