<?xml version="1.0" standalone="no"?>
<!DOCTYPE svg PUBLIC "-//W3C//DTD SVG 1.1//EN" "http://www.w3.org/Graphics/SVG/1.1/DTD/svg11.dtd" >
<svg xmlns="http://www.w3.org/2000/svg" xmlns:xlink="http://www.w3.org/1999/xlink" version="1.1" viewBox="0 -204 1024 1024">
  <g transform="matrix(1 0 0 -1 0 820)">
   <path fill="currentColor"
d="M112 938q60 -25 97 -52q32 -19 47 -41q10 -14 10 -27q0 -32 -22 -32q-11 0 -19 3q-7 4 -14 21q-22 36 -44 60q-26 25 -69 50zM50 694q67 -27 104 -52q32 -23 50 -43q10 -16 10 -29q0 -34 -24 -34q-9 0 -18 5q-6 4 -15 22q-23 38 -46 60q-26 28 -71 53zM258 474l8 -18
q-30 -79 -69 -166q-40 -92 -85 -178q-7 -48 -14 -48t-58 74q55 60 120 163q61 98 98 173zM376 902l58 -32h172v14q0 55 -4 80q49 -6 81 -20q11 -5 11 -16q0 -9 -9 -12q-12 -8 -31 -10v-36h176l28 32q52 -32 52 -44t-26 -28v-92q12 -9 21 -18q5 -4 5 -8q0 -14 -8 -14h-248
v-84h226l26 32q52 -32 52 -44t-26 -28v-103q8 -8 17 -15q5 -4 5 -8q0 -14 -8 -14h-292v-70q0 -18 -26 -18t-26 22q0 15 2 34q2 16 2 32h-222v-30q0 -7 -12 -13q-17 -5 -26 -5q-10 0 -10 12v248l58 -32h212v84h-182v-22q0 -9 -12 -14q-17 -4 -26 -4q-10 0 -10 10v234z
M424 726h182v114h-182v-114zM654 840v-114h182v114h-182zM384 460h222v124h-222v-124zM654 584v-124h226l4 4v120h-230zM364 292h16q0 -63 -12 -106q-8 -34 -22 -57q-8 -24 -25 -36q-10 -11 -22 -15q-6 -6 -15 -6q-26 0 -26 22q0 5 7 10q31 27 47 49q24 28 32 57
q12 32 20 82zM456 318q51 -6 89 -16q9 -3 9 -14q1 -9 -11 -14q-19 -9 -31 -12v-146q0 -7 2 -12q3 -7 12 -11q8 -4 24 -7q27 -6 74 -6h52q49 0 72 5q17 2 29 4q16 4 21 10q7 5 11 16q8 32 17 107l22 -8v-72q0 -30 5 -36q31 -9 31 -30q0 -7 -5 -12q-7 -4 -23 -11
q-18 -8 -50 -11q-38 -6 -130 -6h-52q-64 0 -93 8q-23 3 -39 12q-15 8 -21 20q-3 15 -3 26v160q0 26 -12 56zM598 336q53 -22 84 -48q27 -19 40 -40q8 -14 8 -26q0 -32 -18 -32q-10 0 -17 3q-6 4 -13 21q-17 34 -38 58q-20 23 -56 48zM840 310q57 -30 92 -61q31 -22 45 -48
q9 -15 9 -31q0 -32 -18 -32q-11 0 -18 5q-8 4 -14 22q-22 42 -43 68q-25 31 -67 59z" />
  </g>

</svg>
