<?xml version="1.0" standalone="no"?>
<!DOCTYPE svg PUBLIC "-//W3C//DTD SVG 1.1//EN" "http://www.w3.org/Graphics/SVG/1.1/DTD/svg11.dtd" >
<svg xmlns="http://www.w3.org/2000/svg" xmlns:xlink="http://www.w3.org/1999/xlink" version="1.1" viewBox="0 -410 2048 2048">
  <g transform="matrix(1 0 0 -1 0 1638)">
   <path fill="currentColor"
d="M1029 1185q41 73 64 162h-244q-113 -178 -260 -290l-26 29q118 132 177 250q56 115 86 241l141 -46q30 -10 30 -30q0 -27 -38 -31l-53 -5q-14 -32 -31 -61h870l68 72l80 -61q35 -26 35 -42q0 -26 -80 -57q-28 -323 -68 -464q-43 -148 -215 -185q-2 48 -35 72
q-48 35 -179 86l8 40q192 -65 236 -65q90 0 115 162q27 173 48 385h-230q-55 -174 -121 -283q153 -69 153 -124q0 -45 -44 -45q-23 0 -76 38q-32 22 -89 54q-124 -142 -343 -254l-23 37q186 117 292 255q-98 44 -195 82q-123 -150 -362 -269l-17 36q196 123 297 262
q-87 24 -167 44l8 38q87 -13 188 -33zM1112 1163q105 -30 214 -66q76 134 98 250h-230q-45 -120 -82 -184zM707 625l42 -4q-6 -227 -68 -319q-40 -60 -92 -60t-52 50q0 24 89 96q54 44 81 237zM894 689l120 -25q75 -15 75 -45q0 -28 -50 -41l-41 -11v-257q0 -49 37 -62
q39 -14 179 -14h159q110 0 140 27q32 28 42 114q14 121 19 143l37 -5l-3 -170q0 -13 1 -27q3 -24 33 -40q42 -23 42 -44q0 -64 -228 -77l-64 -5h-178q-153 0 -209 13q-103 24 -103 116v250q0 120 -8 160zM1187 735q237 -138 237 -244q0 -58 -51 -58q-19 0 -33 14
q-11 11 -38 79q-32 80 -139 178zM1746 617q79 -63 154 -151q80 -96 80 -163q0 -62 -49 -62q-25 0 -41 23q-11 16 -41 106q-36 107 -130 217zM1486 1937l102 -18q65 -10 65 -41q0 -19 -38 -29l-43 -11l-14 -100h184l80 87l131 -87q14 -10 14 -26q0 -30 -31 -30h-386l-19 -119
q-1 -4 -4 -28q-5 -42 -65 -42q-34 0 -34 23q0 7 10 66l16 100q-59 -1 -118 -5l-42 84q27 -8 170 -23zM632 1757q103 -19 231 -19h85l-20 205l110 -11q57 -6 57 -28q0 -21 -62 -49l9 -117h31l79 72l95 -72q19 -15 19 -38q0 -18 -26 -18h-192l9 -73q1 -5 1 -11q0 -41 -66 -41
q-25 0 -26 16l-12 109h-106q-36 0 -186 -8zM193 1916q324 -125 324 -258q0 -49 -48 -49q-20 0 -37 13q-11 8 -43 63q-59 103 -217 195zM90 1418q327 -132 327 -256q0 -58 -50 -58q-35 0 -76 72q-56 99 -222 208zM487 937l34 -19q-111 -323 -297 -675q4 -26 4 -38
q0 -62 -21 -62q-16 0 -41 37l-74 108q103 133 152 210q90 140 226 405z" />
  </g>

</svg>
