<?xml version="1.0" standalone="no"?>
<!DOCTYPE svg PUBLIC "-//W3C//DTD SVG 1.1//EN" "http://www.w3.org/Graphics/SVG/1.1/DTD/svg11.dtd" >
<svg xmlns="http://www.w3.org/2000/svg" xmlns:xlink="http://www.w3.org/1999/xlink" version="1.1" viewBox="0 -410 2048 2048">
  <g transform="matrix(1 0 0 -1 0 1638)">
   <path fill="currentColor"
d="M1409 1013q-2 -91 -10 -176h243l77 88l105 -92q20 -17 20 -30q0 -24 -20 -24h-430q-11 -83 -30 -175h383l84 87l109 -87q22 -18 22 -32q0 -24 -22 -24h-590q-77 -183 -216 -291q-111 -86 -286 -162l-17 36q339 183 421 417h-210q-98 -2 -183 -8l-37 88q86 -24 220 -24
h225q19 72 31 175h-161q-98 -1 -183 -8l-37 88q89 -22 220 -22h167q7 86 8 176h-239q-99 -4 -184 -8l-37 92q89 -26 221 -26h95q-22 8 -33 55q-29 128 -125 252l11 10q-56 -1 -147 -10l-36 89q114 -22 220 -22h127v330q0 101 -8 151l121 -25q69 -14 69 -46q0 -25 -48 -41
l-39 -12v-357h167v327q0 110 -8 150l120 -25q69 -14 69 -45q0 -26 -48 -41l-38 -12v-354h183l88 91l108 -95q21 -18 21 -32q0 -21 -25 -21h-275l80 -38q28 -14 28 -31q0 -27 -89 -37q-91 -151 -141 -211h205l88 93l112 -98q15 -14 15 -31q0 -22 -26 -22h-505zM1589 1388
h-528q179 -168 179 -267q0 -35 -32 -50h251q89 162 130 317zM193 1907q99 -33 187 -89q115 -74 115 -141q0 -54 -46 -54q-33 0 -71 57q-78 116 -211 194zM97 1433q109 -43 196 -115q82 -67 82 -121q0 -18 -12 -33q-17 -20 -40 -20q-31 0 -70 69q-49 88 -182 186zM477 859
l33 -22q-58 -155 -125 -296q-38 -80 -155 -289q8 -50 8 -71q0 -40 -24 -40q-21 0 -49 39l-78 107q100 109 171 210q51 75 184 302zM782 1929l103 -32q74 -23 74 -52q0 -11 -8 -19t-62 -20l-34 -8q-14 -55 -73 -212q-51 -137 -80 -198q27 -10 41 -15q59 -20 59 -41
q0 -29 -74 -53v-958q0 -7 5 -110l3 -66q0 -30 -22 -37q-20 -6 -58 -6q-23 0 -23 30v1137q-88 -150 -198 -256l-31 29q283 386 378 887zM944 1784q183 -108 183 -203q0 -56 -49 -56q-33 0 -53 68q-27 90 -105 159zM1733 1847l110 -45q46 -18 46 -37q0 -31 -62 -31
q-13 0 -29 1q-71 -124 -163 -217l-34 26q75 125 132 303zM1441 501q463 -203 463 -337q0 -26 -17 -43q-13 -13 -28 -13q-27 0 -76 61q-136 169 -357 292z" />
  </g>

</svg>
