<?xml version="1.0" standalone="no"?>
<!DOCTYPE svg PUBLIC "-//W3C//DTD SVG 1.1//EN" "http://www.w3.org/Graphics/SVG/1.1/DTD/svg11.dtd" >
<svg xmlns="http://www.w3.org/2000/svg" xmlns:xlink="http://www.w3.org/1999/xlink" version="1.1" viewBox="0 -140 1000 1000">
  <g transform="matrix(1 0 0 -1 0 860)">
   <path fill="currentColor"
d="M594 855h108q12 36 22 83l82 -31l-3 -14l-27 -6l-14 -32h71l30 38h14l52 -41v-20h-176q-13 -30 -47 -89l113 1l27 29h15l41 -36v-16h-99v-75h45l29 31h11l47 -36v-18h-297v23h104v75h-52q-45 -50 -98 -86l-10 9q70 79 112 188h-100v23zM708 561h128l27 26h14l50 -42v-16
l-22 -17v-270q0 -35 -12 -45.5t-70 -24.5l-10 4v25l-61 34l4 12l49 -4q26 0 32 4.5t6 26.5v75h-139v-142l-6 -14l-48 -12l-10 4v403zM418 896h14l48 -53l-3 -13l-25 -9l-70 -200q55 -63 73.5 -103.5t18.5 -100.5q0 -54 -20.5 -83t-67.5 -42l-11 4l-7 26l-36 22l3 14l37 -3
q23 -2 34 17t11 58q0 96 -39 150q-22 32 -24 42l3 21l36 208h-64v-792l-8 -12l-44 -15l-10 9v858l66 -25h57zM704 464h139v74h-139v-74zM704 372h139v70h-139v-70zM99 914l4 12q132 -28 132 -83q0 -14 -8 -26.5t-18 -12.5q-15 0 -51 55q-17 27 -59 55zM43 660l5 13
q78 -19 102.5 -34t24.5 -42q0 -34 -23 -34q-12 0 -54 53q-16 21 -55 44zM243 770l18 -7l-92 -447q-12 -58 -12 -75q0 -30 17 -109q7 -29 7 -49q0 -21 -12 -35.5t-30 -14.5q-40 0 -40 55q0 30 8 76q7 36 7 69q0 34 -14 50.5t-58 33.5v15q6 0 13.5 -0.5t11.5 -1t6 -0.5
q24 0 34.5 11.5t21.5 48.5zM950 133l1 -11q-28 -22 -30 -58q-59 -4 -87 -4q-104 0 -163.5 29.5t-119.5 108.5l-84 -106l5 -35l-12 -8l-61 59l120 102v213h-39v22h37l29 29h13l49 -45v-12l-24 -15v-202q39 -46 80.5 -63.5t115.5 -17.5q76 0 170 14zM453 669l7 11q9 -4 28 -9
q88 -28 88 -68q0 -41 -22 -41q-8 0 -31 36q-22 36 -70 71zM464 867l7 11q116 -33 116 -78q0 -41 -22 -41q-9 0 -31 36q-21 33 -70 72z" />
  </g>

</svg>
