<?xml version="1.0" standalone="no"?>
<!DOCTYPE svg PUBLIC "-//W3C//DTD SVG 1.1//EN" "http://www.w3.org/Graphics/SVG/1.1/DTD/svg11.dtd" >
<svg xmlns="http://www.w3.org/2000/svg" xmlns:xlink="http://www.w3.org/1999/xlink" version="1.1" viewBox="0 -140 1000 1000">
  <g transform="matrix(1 0 0 -1 0 860)">
   <path fill="currentColor"
d="M364 199v-58h137l32 39h15l43 -41v-19h-227v-47l-4 -11l-50 -14l-9 8v449l57 -24h138l25 30h16l53 -48v-16l-25 -14v-143l-6 -14l-47 -14l-10 6v20h-138v-68h137l32 39h15l43 -41v-19h-227zM732 842l8 10q51 -17 83.5 -33.5t44.5 -31t15 -22.5t3 -19q0 -32 -23 -32
q-11 0 -42 42q-35 46 -89 86zM57 309h37q22 0 32.5 11t19.5 43l129 441l14 -3l-97 -480q-13 -62 -13 -77q0 -34 15 -75q21 -55 21 -74q0 -22 -12.5 -37.5t-30.5 -15.5q-17 0 -30.5 15.5t-13.5 35.5q0 13 10 52q5 25 5 45q0 76 -53 94l-35 12zM51 650l6 11q69 -14 99.5 -31
t30.5 -56q0 -40 -20 -40q-14 0 -26 19q-30 45 -43.5 59.5t-46.5 37.5zM86 910l7 10q73 -19 100.5 -38.5t27.5 -53.5q0 -17 -7.5 -29.5t-17.5 -12.5q-12 0 -34 40q-20 35 -76 84zM364 310h138v63h-138v-63zM364 395h138v63h-138v-63zM380 578h104v105h-104v-105zM545 578h98
v105h-98v-105zM706 578h95v105h-95v-105zM612 319l11 10q96 -73 96 -117q0 -40 -24 -40q-25 0 -35 39q-20 71 -48 108zM778 379h-204v21h204v102l94 -20v-13l-32 -19v-50h19l32 42h15l43 -44v-19h-109v-245q0 -42 -17 -57.5t-81 -30.5l-9 5v31l-87 33l3 15l94 -8q17 -2 26 7
t9 28v222zM518 825l8 9q44 -19 67.5 -37t27 -26.5t3.5 -18.5q0 -17 -8 -29.5t-18 -12.5q-13 0 -28 39q-15 37 -52 76zM317 698l-29 -24l-11 8q42 54 61.5 95.5t41.5 120.5l50 -37l71 8q152 18 256 51q9 4 44 15l52 -62l-9 -11l-35 11q-177 -34 -381 -35q-42 -71 -86 -118
l39 -14h416l25 22h12l53 -45v-12l-22 -17v-117l-6 -11l-47 -18l-11 7v41h-421q0 -28 -4 -39l-50 -14l-9 8v187z" />
  </g>

</svg>
