<?xml version="1.0" standalone="no"?>
<!DOCTYPE svg PUBLIC "-//W3C//DTD SVG 1.1//EN" "http://www.w3.org/Graphics/SVG/1.1/DTD/svg11.dtd" >
<svg xmlns="http://www.w3.org/2000/svg" xmlns:xlink="http://www.w3.org/1999/xlink" version="1.1" viewBox="0 -140 1000 1000">
  <g transform="matrix(1 0 0 -1 0 860)">
   <path fill="currentColor"
d="M674 99h159l43 53h15l56 -58l1 -18h-624v23h286v679h-219v23l432 -1l39 42h14l55 -47l-1 -17h-256v-679zM351 777l74 -57l-8 -14l-29 2l-127 -102q-5 -146 -23 -250q83 -57 109 -86.5t26 -60.5q0 -20 -8 -35.5t-19 -15.5q-18 0 -37 55q-22 59 -76 123
q-28 -101 -59 -160.5t-87 -116.5l-11 10q73 106 100 234.5t27 367.5q0 104 -8 262l100 -18v-14l-32 -19q0 -38 1 -63q0 -137 -1 -176zM111 721l16 5q18 -78 18 -139q0 -64 -16.5 -105.5t-37.5 -41.5q-13 0 -24 18t-11 39q0 19 21 53q34 55 34 171z" />
  </g>

</svg>
