<?xml version="1.0" standalone="no"?>
<!DOCTYPE svg PUBLIC "-//W3C//DTD SVG 1.1//EN" "http://www.w3.org/Graphics/SVG/1.1/DTD/svg11.dtd" >
<svg xmlns="http://www.w3.org/2000/svg" xmlns:xlink="http://www.w3.org/1999/xlink" version="1.1" viewBox="0 -200 1000 1000">
  <g transform="matrix(1 0 0 -1 0 800)">
   <path fill="currentColor"
d="M556 803l-21 -80v-178h145v426l75 -39l-22 -75v-312h138v290l74 -33l-22 -77v-245q-15 -11 -27.5 -18t-24.5 -9v69h-138v-452h137v329l77 -34l-20 -66v-299q-9 -11 -23 -19t-34 -10v74h-313l-45 -60l-65 61l38 31v326l78 -32l-22 -66v-235h139v452h-123l-45 -58l-69 56
l40 36v283zM98 -30q42 87 65.5 183t35 195.5t14 200.5t2.5 198v95.5t0.5 63.5t1 40t1.5 25l77 -42l-23 -71l-3 -239q42 48 69.5 88.5t37.5 85.5l61 -72l-39 -22q-10 -9 -25.5 -23t-33 -28.5t-36 -28.5t-34.5 -23q-4 -102 -8.5 -157.5t-7.5 -80.5q26 -17 52 -36t46.5 -38
t33 -37.5t12.5 -35.5q-3 -22 -16 -40t-26 -18t-20 19q-5 23 -12 43t-17.5 40t-23.5 41t-30 46q-10 -65 -24 -119t-31 -100t-38.5 -85.5t-46.5 -75.5zM115 647q-17 -132 -57 -193q-5 -13 -5 -23q0 -14 7 -23.5t23 -9.5q16 4 27 15.5t17 27t8.5 35t2.5 40.5q0 38 -4.5 74.5
t-5.5 58.5z" />
  </g>

</svg>
