<?xml version="1.0" standalone="no"?>
<!DOCTYPE svg PUBLIC "-//W3C//DTD SVG 1.1//EN" "http://www.w3.org/Graphics/SVG/1.1/DTD/svg11.dtd" >
<svg xmlns="http://www.w3.org/2000/svg" xmlns:xlink="http://www.w3.org/1999/xlink" version="1.1" viewBox="0 -205 1000 1024">
  <g transform="matrix(1 0 0 -1 0 819)">
   <path fill="currentColor"
d="M782 358h-287v-108h287v108zM495 480v-100h287v100h-287zM105 690l16 5q22 -67 22 -134q0 -54 -16.5 -98.5t-36.5 -44.5q-11 0 -22 17.5t-11 34.5t24.5 71t24.5 112q0 23 -1 37zM396 647l-29 5q-52 -51 -121 -99q-2 -23 -5 -58q-9 -104 -19 -155q-1 -2 -6 -25
q85 -41 123.5 -80.5t38.5 -76.5q0 -19 -9.5 -37t-19.5 -18q-18 0 -39 54q-33 84 -101 144q-16 -69 -41.5 -121t-94.5 -155l-13 7q75 145 99 272q17 90 21 210q2 44 2 211v171l92 -15v-15l-28 -20v-257q48 59 89 137l69 -66zM499 502h269l30 34h17l60 -51v-16l-30 -20v-288
q0 -75 -17.5 -99t-82.5 -37l-12 7l2 28l-85 34l3 14l90 -3q30 -1 36 20q3 8 3 48v52h-288v-170l-6 -13l-46 -17l-10 7v499zM608 777v115l107 -21v-13l-42 -20v-61h151l45 56h11l63 -61v-17h-306l-170 -138l328 26q-38 35 -83 68l7 10q14 -6 41 -17q81 -32 121 -64
q28 -22 28 -63q0 -42 -23 -44q-15 -1 -38 38q-17 29 -38 50l-374 -66l-15 -25l-46 76q51 5 84 49l75 100h-167v22h241z" />
  </g>

</svg>
