<?xml version="1.0" standalone="no"?>
<!DOCTYPE svg PUBLIC "-//W3C//DTD SVG 1.1//EN" "http://www.w3.org/Graphics/SVG/1.1/DTD/svg11.dtd" >
<svg xmlns="http://www.w3.org/2000/svg" xmlns:xlink="http://www.w3.org/1999/xlink" version="1.1" viewBox="0 -410 2048 2048">
  <g transform="matrix(1 0 0 -1 0 1638)">
   <path fill="currentColor"
d="M1760 1833l68 76l84 -54q40 -26 40 -49q0 -28 -77 -61v-1485q0 -143 -159 -171q-2 67 -36 90t-167 47l8 46q168 -28 202 -28q57 0 57 58v1473h-851v-1678q0 -30 -48 -30q-56 0 -56 45q0 3 2 58q6 162 6 240v1373q-6 99 -16 138l122 -88h821zM1083 1674q183 -166 183 -250
q0 -46 -41 -75h136q82 154 137 347l151 -61q25 -10 25 -29q0 -24 -52 -28l-45 -4q-45 -62 -101 -141q-33 -46 -60 -84h113l80 80l115 -86q17 -13 17 -26q0 -27 -28 -27h-318v-701h142v344q0 116 -8 159l111 -24q84 -17 84 -44q0 -30 -49 -43l-42 -11v-341q1 -32 2 -48
q6 -69 6 -86q0 -53 -61 -53q-43 0 -43 35v57h-380q-46 -12 -68 -12q-43 0 -43 49q0 6 1 20v364q0 114 -8 160l106 -23q85 -19 85 -45q0 -31 -49 -44l-42 -11v-279q1 -66 6 -124h151v701h-131q-68 0 -149 -11l-40 86q112 -16 165 -16h45q-19 16 -27 72q-15 98 -99 229z
M113 1533q185 -233 185 -359q0 -79 -55 -79q-37 0 -43 57q-10 91 -29 155q-20 67 -89 206zM693 1437q-107 -131 -213 -218q-1 -48 -24 -424q39 -33 121 -98q67 -54 135 -149q41 -58 41 -109q0 -63 -48 -63q-15 0 -25 8q-16 13 -58 123q-34 90 -175 236q-92 -401 -350 -644
l-29 25q150 195 214 373q48 133 68 245q34 184 34 515v407q0 175 -15 274l106 -19q93 -17 93 -44q0 -22 -39 -37l-49 -19v-537q95 152 159 291l89 -56q58 -37 58 -54q0 -26 -47 -26h-46z" />
  </g>

</svg>
