<?xml version="1.0" standalone="no"?>
<!DOCTYPE svg PUBLIC "-//W3C//DTD SVG 1.1//EN" "http://www.w3.org/Graphics/SVG/1.1/DTD/svg11.dtd" >
<svg xmlns="http://www.w3.org/2000/svg" xmlns:xlink="http://www.w3.org/1999/xlink" version="1.1" viewBox="0 -410 2048 2048">
  <g transform="matrix(1 0 0 -1 0 1638)">
   <path fill="currentColor"
d="M786 966l118 -81h222q51 128 93 249h-321q-67 0 -149 -11l-39 86q121 -18 188 -18h824l95 102l132 -105q16 -13 16 -30q0 -24 -24 -24h-602q-74 -128 -151 -249h578l61 72l72 -50q42 -28 42 -49q0 -17 -65 -53v-555q0 -89 -65 -134q-22 -15 -89 -37q-9 65 -30 84
q-12 11 -120 48l7 45q98 -19 152 -19q34 0 43 19q6 13 6 44v527h-248v-377q0 -60 10 -181q4 -43 4 -63q0 -60 -63 -60q-45 0 -45 50v631h-233v-385q0 -75 5 -156q4 -72 4 -99q0 -49 -57 -49q-46 0 -46 51v638h-220v-699q0 -54 -57 -54q-53 0 -53 47q0 15 4 48q11 94 11 227
v365q0 112 -10 205zM1377 1832v-365h365v170v62q0 115 -10 159l115 -26q80 -18 80 -45q0 -22 -38 -36l-49 -19v-193v-36q9 -77 9 -102q0 -47 -55 -47q-52 0 -52 38v20h-817q-41 -8 -56 -8q-35 0 -35 46v269q0 94 -9 143l105 -21q89 -17 89 -47q0 -29 -49 -43l-40 -11v-273
h352v328q0 114 -8 158l107 -21q87 -18 87 -46q0 -33 -50 -45zM123 1559q185 -230 185 -358q0 -79 -55 -79q-37 0 -43 57q-10 89 -29 155q-20 67 -89 206zM687 1482q-109 -143 -209 -230v-96q0 -146 -27 -368q31 -24 47 -35q204 -144 204 -261q0 -55 -45 -55q-15 0 -24 8
q-13 10 -46 88q-38 92 -145 202q-54 -203 -125 -338q-83 -159 -222 -283l-29 25q183 239 254 501q62 234 62 632v407q0 175 -15 274l107 -19q93 -17 93 -44q0 -21 -40 -37l-49 -21v-508q76 110 160 291l89 -56q57 -37 57 -55q0 -30 -47 -26z" />
  </g>

</svg>
