<?xml version="1.0" standalone="no"?>
<!DOCTYPE svg PUBLIC "-//W3C//DTD SVG 1.1//EN" "http://www.w3.org/Graphics/SVG/1.1/DTD/svg11.dtd" >
<svg xmlns="http://www.w3.org/2000/svg" xmlns:xlink="http://www.w3.org/1999/xlink" version="1.1" viewBox="0 -140 1000 1000">
  <g transform="matrix(1 0 0 -1 0 860)">
   <path fill="currentColor"
d="M847 893l37 39l14 1l53 -50v-12h-267l-85 -124h229l32 32h15l60 -47v-17l-31 -18v-168q0 -51 -8 -65t-44 -26q-5 -1 -22 -9l-11 6v19l-63 20l2 11l57 1q17 0 21 10.5t4 37.5v190h-91v-243l-7 -9l-46 -12l-7 5v259h-85l-1 -256l-7 -5l-42 -11l-10 2v270h-88l-1 -277l-8 -8
l-43 -14l-12 4v344l66 -26l113 1l39 124l-268 -1v22h505zM351 348h249q4 24 6 69l1 39l104 -15l-2 -18l-35 -14q-3 -27 -12 -61h187l40 54h11l55 -61v-15h-283q58 -79 121 -124t162 -77l-5 -13q-61 -13 -79 -40q-121 71 -215 243q-34 -106 -105.5 -161t-222.5 -92l-6 10
q227 72 274 254h-245v22zM112 703l15 5q26 -98 26 -153q0 -46 -17 -74.5t-45 -28.5q-34 0 -34 42q0 18 26 53q32 44 32 97q0 26 -3 59zM297 908v-18l-36 -16l2 -83q0 -103 -7 -174q36 49 72 110l60 -55l-9 -15l-29 6q-39 -33 -98 -74q-9 -139 -37 -249q86 -30 118.5 -57.5
t32.5 -66.5q0 -21 -8.5 -36t-20.5 -15q-25 0 -40 46q-13 40 -30.5 61.5t-56.5 46.5q-44 -145 -132 -255l-11 8q73 130 103.5 264.5t30.5 324.5q0 77 -11 258z" />
  </g>

</svg>
