<?xml version="1.0" standalone="no"?>
<!DOCTYPE svg PUBLIC "-//W3C//DTD SVG 1.1//EN" "http://www.w3.org/Graphics/SVG/1.1/DTD/svg11.dtd" >
<svg xmlns="http://www.w3.org/2000/svg" xmlns:xlink="http://www.w3.org/1999/xlink" version="1.1" viewBox="0 -410 2048 2048">
  <g transform="matrix(1 0 0 -1 0 1638)">
   <path fill="currentColor"
d="M1210 648h301q10 84 10 135q0 7 -1 29l121 -29q48 -11 48 -32q0 -23 -31 -32l-35 -12q-6 -29 -12 -59h160l84 79l103 -79q33 -25 33 -32q0 -25 -38 -25h-354q-36 -131 -148 -253q208 -50 337 -108q101 -44 101 -97q0 -46 -40 -46q-18 0 -158 73q-131 69 -302 119
q-207 -129 -679 -195l-8 40q402 77 588 189q-49 13 -358 76q99 120 144 202h-190q-64 0 -149 -11l-39 87q126 -19 188 -19h220q52 105 72 197h-258v-22q0 -31 -51 -31t-51 37q0 4 3 41l2 30l2 49v264l121 -62h318v158h-288v-12q0 -30 -52 -30t-52 44q0 13 4 49q3 31 3 52
l-1 44v59h-22q-63 0 -112 -8l-42 88q94 -26 154 -26h22v274l122 -66h264v21q0 110 -8 151l112 -26q83 -18 83 -43q0 -29 -50 -42l-41 -12v-49h278l55 66l73 -49q42 -29 42 -49q0 -22 -65 -54v-122h40l72 72l98 -72q22 -16 22 -35t-22 -19h-210v-88q3 -68 4 -72q4 -34 4 -42
q0 -25 -25 -41q-17 -11 -37 -11q-43 0 -44 48h-285v-158h324l59 70l72 -49q43 -30 43 -49q0 -22 -63 -54v-153l45 -35q8 -5 8 -16q0 -20 -14 -20h-616l78 -33q48 -20 48 -46q0 -24 -34 -28l-54 -6l-19 -36l-14 -25zM1174 591q-80 -116 -140 -173q215 -33 318 -58
q113 102 148 231h-326zM976 1365h288v150h-288v-150zM1360 1515v-150h285v150h-285zM976 1569h288v152h-288v-152zM1360 1721v-152h285v152h-285zM920 899h344v196h-344v-196zM1360 1095v-196h338v196h-338zM94 1529q52 -57 115 -161q70 -117 70 -198q0 -79 -55 -79
q-38 0 -43 57q-14 152 -118 361zM643 1421q-22 -24 -78 -86q-34 -38 -116 -105q-3 -170 -28 -473q255 -178 255 -291q0 -59 -49 -59q-14 0 -23 8q-14 11 -47 95q-31 78 -144 194q-101 -380 -324 -609l-29 29q165 222 229 461q64 243 64 656v407q0 171 -15 274l106 -19
q93 -17 93 -44q0 -22 -39 -37l-49 -19v-509q91 145 144 260l89 -57q58 -36 58 -54q0 -27 -39 -27h-8z" />
  </g>

</svg>
