<?xml version="1.0" standalone="no"?>
<!DOCTYPE svg PUBLIC "-//W3C//DTD SVG 1.1//EN" "http://www.w3.org/Graphics/SVG/1.1/DTD/svg11.dtd" >
<svg xmlns="http://www.w3.org/2000/svg" xmlns:xlink="http://www.w3.org/1999/xlink" version="1.1" viewBox="0 -204 1024 1024">
  <g transform="matrix(1 0 0 -1 0 820)">
   <path fill="currentColor"
d="M50 720q25 -27 41 -58q22 -27 34 -51q12 -27 17 -45q4 -20 4 -36q0 -18 -5 -30q-8 -12 -17 -12q-7 0 -11 7q-5 6 -10 33q-4 32 -15 62q-8 31 -20 60q-13 26 -32 58zM332 704q-19 -30 -38 -56q-20 -27 -38 -45q-12 -16 -27 -27q-2 -80 -10 -147q-3 -29 -7 -54
q45 -31 73 -65q26 -32 41 -63q10 -20 10 -43q0 -30 -22 -30q-8 0 -15 6q-5 6 -12 28q-20 55 -39 86q-18 27 -41 55q-7 -39 -19 -72q-18 -62 -54 -123q-35 -58 -88 -108l-14 16q48 56 73 111t41 114q17 55 27 143q9 93 9 198v188q0 94 -8 134q50 -6 91 -19q9 -2 9 -11
q0 -8 -12 -14q-12 -8 -32 -14v-282q8 8 13 15q13 23 26 48q14 26 23 52q9 23 14 49q78 -47 78 -62q0 -10 -20 -10q-13 0 -32 2zM354 902q44 -14 116 -14h366l48 58q38 -30 70 -58q10 -5 10 -12q0 -14 -18 -14h-190v-84h98l30 32q52 -32 52 -46q0 -10 -30 -26v-136
q0 -20 -30 -26q-18 0 -18 8v26h-406v-12q0 -11 -14 -16q-13 -6 -22 -6q-14 0 -14 12v222l62 -32h94v84h-88q-70 -1 -94 -4zM452 636h106v112h-106v-112zM606 636h102v112h-102v-112zM756 636h102v112h-102v-112zM708 778v84h-102v-84h102zM456 570l58 -34h290l26 34
q54 -33 54 -44t-30 -30v-190q0 -20 -32 -26q-14 0 -14 8v26h-128v-84h178l44 46q36 -25 69 -47q9 -5 9 -11q0 -18 -12 -18h-288v-154q0 -19 -38 -22q-10 0 -10 18v158h-158q-71 -1 -94 -4l-22 44q44 -10 116 -10h158v84h-128v-16q0 -11 -12 -16q-17 -6 -24 -6q-12 0 -12 12
v282zM504 342h304v70h-304v-70zM504 442h304v66h-304v-66z" />
  </g>

</svg>
