<?xml version="1.0" standalone="no"?>
<!DOCTYPE svg PUBLIC "-//W3C//DTD SVG 1.1//EN" "http://www.w3.org/Graphics/SVG/1.1/DTD/svg11.dtd" >
<svg xmlns="http://www.w3.org/2000/svg" xmlns:xlink="http://www.w3.org/1999/xlink" version="1.1" viewBox="0 -410 2048 2048">
  <g transform="matrix(1 0 0 -1 0 1638)">
   <path fill="currentColor"
d="M1002 1943l104 -34q77 -26 77 -58q0 -26 -35 -30l-64 -8q-46 -116 -100 -230h424q-12 15 -35 98q-25 87 -121 196l30 24q212 -155 212 -250q0 -40 -40 -68h229l95 98l118 -103q15 -14 15 -29q0 -24 -20 -24h-463v-239h214l89 88l124 -88q12 -9 12 -26q0 -28 -26 -28h-413
v-249h214l89 88l120 -93q16 -13 16 -27q0 -26 -26 -26h-413v-248h286l96 96l135 -99q12 -9 12 -25q0 -28 -25 -28h-930v-65q0 -30 -55 -30q-56 0 -56 44q0 4 5 48q6 96 6 104v708q-130 -166 -196 -232l-34 34q131 168 207 334q93 203 123 377zM996 677h336v248h-336v-248z
M1332 983v249h-336v-249h336zM1332 1286v239h-336v-239h336zM113 1544q185 -220 185 -359q0 -79 -55 -79q-35 0 -42 62q-17 150 -119 357zM669 1466q-35 -47 -85 -97q-56 -59 -116 -105v-7q-6 -325 -28 -481q128 -91 170 -137q85 -91 85 -154q0 -59 -49 -59q-14 0 -23 8
q-14 11 -47 95q-29 75 -143 194q-63 -348 -325 -612l-29 26q164 212 225 437q68 248 68 683v406q0 171 -15 274l106 -19q93 -16 93 -43q0 -24 -34 -36l-54 -21v-491q80 126 152 272l88 -56q58 -37 58 -55q0 -31 -39 -27l-8 1zM1710 452q138 -83 189 -136q70 -73 70 -136
q0 -66 -53 -66q-20 0 -38 27q-6 10 -38 85q-40 97 -151 192zM1423 452q64 -54 124 -137q57 -78 57 -136q0 -74 -52 -74q-20 0 -34 16q-13 14 -27 83q-24 112 -103 227zM1100 447q125 -166 125 -269q0 -56 -38 -77q-11 -6 -24 -6q-37 0 -38 61q-4 135 -59 275zM888 469
l36 -12q-54 -179 -93 -247q-64 -112 -138 -112q-50 0 -50 51q0 20 10 36q6 11 69 50q99 63 166 234z" />
  </g>

</svg>
