<?xml version="1.0" standalone="no"?>
<!DOCTYPE svg PUBLIC "-//W3C//DTD SVG 1.1//EN" "http://www.w3.org/Graphics/SVG/1.1/DTD/svg11.dtd" >
<svg xmlns="http://www.w3.org/2000/svg" xmlns:xlink="http://www.w3.org/1999/xlink" version="1.1" viewBox="0 -204 1024 1024">
  <g transform="matrix(1 0 0 -1 0 820)">
   <path fill="currentColor"
d="M54 726q27 -30 45 -64q23 -28 35 -54q16 -29 21 -48q5 -20 5 -38q0 -21 -6 -33q-11 -11 -24 -11q-5 0 -9 7q-5 4 -9 34q-7 35 -17 66q-10 33 -22 64q-13 28 -33 63zM342 738q-16 -25 -39 -45q-17 -21 -38 -34q-12 -11 -25 -20v-11q0 -108 -14 -199q-2 -17 -5 -31
q50 -32 79 -64q31 -28 44 -58q10 -18 10 -40q0 -32 -18 -32q-9 0 -18 6q-7 7 -15 28q-18 50 -41 81q-17 28 -45 52q-8 -52 -20 -94q-22 -62 -57 -123q-36 -58 -90 -108l-14 16q49 56 76 111q24 55 43 114q15 55 25 143q10 93 10 198v188q0 94 -8 134q50 -6 91 -19
q11 -2 11 -11q0 -8 -14 -14q-14 -8 -30 -14v-226q7 8 12 16q14 19 29 39q13 22 21 42q10 22 16 41q76 -47 76 -60q0 -10 -18 -10q-12 0 -34 4zM438 916q39 -6 114 -6h244l34 32q34 -27 57 -55q5 -5 5 -11q0 -4 -19 -8q-27 -2 -33 -2q-40 -25 -81 -42q-27 -13 -50 -24l2 -1
q6 -5 9 -10q4 -2 4 -7q0 -11 -3 -18h175l28 32q32 -21 59 -50q3 -2 3 -4q0 -8 -17 -13q-17 -3 -31 -9q-20 -22 -51 -50q-32 -26 -65 -50l-14 12q35 29 53 56q24 25 35 50h-162v-150q0 -16 -9 -29q-9 -17 -28 -26q-15 -9 -39 -15q-1 25 -7 37q-6 9 -16 12q-26 11 -55 17v22
q45 -22 78 -22q19 0 24 8q4 7 4 22v115q-17 -19 -40 -32q-36 -28 -81 -49q-39 -22 -89 -41q-50 -20 -122 -41l-12 18q69 24 116 44q47 21 85 43q35 21 59 42q18 15 27 25h-117q-81 0 -96 -4l-18 40q39 -10 114 -10h170q-5 7 -11 14q-20 17 -40 33q-23 16 -61 33l14 14
q33 -13 60 -26q29 -10 43 -18q5 -2 8 -4q26 15 44 27q26 19 53 43h-240q-81 0 -96 -4zM386 558l60 -44h430l30 44q36 -24 52 -43q10 -9 10 -15q0 -9 -40 -30v-362q0 -34 -16 -50q-12 -16 -31 -27q-21 -11 -33 -11q0 25 -9 35q-12 11 -35 20q-28 12 -62 15v22q64 -14 112 -14
q17 0 24 5q6 4 6 27v356h-154v-74q3 -18 40 -18q14 0 60 4q26 0 28 -22q-2 -16 -19 -21q-21 -5 -69 -5q-45 0 -63 11q-21 12 -25 41v84h-74q-3 -24 -8 -41q-4 -27 -16 -46q-12 -24 -26 -40q-13 -18 -35 -34q-21 -14 -53 -27l-10 16q25 15 42 32q14 14 24 30q12 17 19 32
q7 19 11 41q3 15 5 37h-123v-444q0 -14 -18 -14q-9 0 -24 6q-10 10 -10 24q0 16 3 46q5 23 5 96v288q0 41 -8 70zM544 332l58 -30h114l26 30q54 -30 54 -44q0 -10 -28 -26v-71q10 -6 18 -12q6 -2 6 -5q0 -18 -6 -18h-194v-8q0 -7 -12 -13q-17 -5 -26 -5q-10 0 -10 12v190z
M592 186h128v88h-128v-88z" />
  </g>

</svg>
