<?xml version="1.0" standalone="no"?>
<!DOCTYPE svg PUBLIC "-//W3C//DTD SVG 1.1//EN" "http://www.w3.org/Graphics/SVG/1.1/DTD/svg11.dtd" >
<svg xmlns="http://www.w3.org/2000/svg" xmlns:xlink="http://www.w3.org/1999/xlink" version="1.1" viewBox="0 -410 2048 2048">
  <g transform="matrix(1 0 0 -1 0 1638)">
   <path fill="currentColor"
d="M1269 1750q-13 14 -18 36q-20 86 -98 172l20 24q172 -108 172 -180q0 -27 -27 -52h397l98 101l121 -107q17 -15 17 -25q0 -26 -27 -26h-988q-177 -5 -192 -7l-38 88q101 -24 230 -24h333zM1328 614h391l98 101l121 -106q16 -15 16 -25q0 -26 -27 -26h-599v-180
q0 -102 11 -209q3 -31 3 -50q0 -46 -56 -46q-54 0 -54 42v443h-326q-109 0 -192 -8l-39 88q95 -24 231 -24h326v142q-132 -15 -414 -19v41q558 63 772 165l83 -62q40 -30 40 -53q0 -27 -29 -27q-12 0 -36 6l-42 10q-154 -33 -278 -50v-153zM1517 477q371 -140 371 -285
q0 -27 -16 -45q-15 -17 -35 -17q-35 0 -86 80q-62 99 -129 151q-64 49 -124 82zM951 500l103 -66q42 -27 42 -46q0 -24 -33 -24h-5l-56 6q-100 -91 -158 -134q-44 -32 -174 -113l-23 27q211 182 304 350zM1049 1461l104 -62h261l61 72l72 -50q42 -28 42 -50q0 -16 -66 -52
v-103l24 -23q11 -10 11 -23q0 -17 -17 -17h-397v-13q0 -38 -64 -38q-31 0 -31 38v321zM1144 1207h285v134h-285v-134zM1662 1575l68 76l83 -54q40 -26 40 -49q0 -27 -78 -61v-253q0 -108 11 -209q3 -31 3 -50q0 -46 -56 -46q-53 0 -53 38v27h-767v-20q0 -54 -57 -54
q-55 0 -55 46q0 18 4 49q13 96 13 210v300l-5 66q-4 48 -9 73l118 -89h740zM1680 1517h-767v-463h767v463zM659 1463q-77 -114 -209 -222q-3 -190 -28 -472q266 -192 266 -316q0 -61 -49 -61q-14 0 -23 8q-15 12 -47 95q-46 118 -156 221q-100 -389 -346 -621l-29 25
q149 194 214 373q48 133 68 245q34 183 34 515v407q0 175 -15 274l106 -19q93 -17 93 -44q0 -22 -39 -37l-49 -19v-510q95 153 159 291l89 -56q58 -37 58 -55q0 -27 -36 -27q-4 0 -11 1zM95 1540q185 -230 185 -359q0 -78 -54 -78q-38 0 -44 57q-10 89 -29 155
q-20 67 -89 206z" />
  </g>

</svg>
