<?xml version="1.0" standalone="no"?>
<!DOCTYPE svg PUBLIC "-//W3C//DTD SVG 1.1//EN" "http://www.w3.org/Graphics/SVG/1.1/DTD/svg11.dtd" >
<svg xmlns="http://www.w3.org/2000/svg" xmlns:xlink="http://www.w3.org/1999/xlink" version="1.1" viewBox="0 -140 1000 1000">
  <g transform="matrix(1 0 0 -1 0 860)">
   <path fill="currentColor"
d="M802 367l40 36h13l58 -66l-5 -14l-38 -11q-132 -132 -273.5 -187t-333.5 -71l-75 -6l-1 17q143 16 235 42.5t187 77.5q-12 5 -20 20q-21 37 -75 70q-60 -33 -105.5 -50t-136.5 -40l-4 15q135 47 215 104.5t169 171.5l73 -50l-6 -14l-37 -1q-6 -7 -43 -44h163zM807 345
h-192q-45 -36 -85 -60q57 -15 82.5 -27.5t30 -22t4.5 -29.5q92 59 160 139zM598 570l32 31h18l50 -58l-6 -14l-29 -8q-101 -113 -217.5 -173t-274.5 -88q-8 -1 -38 -5.5t-53 -8.5l-2 15q227 53 359 141q-12 9 -22 26q-22 40 -62 63q-99 -55 -231 -96l-6 14
q113 49 178.5 96.5t149.5 141.5l61 -42l-6 -12l-26 -2l-21 -21h146zM597 547h-170q-39 -32 -60 -47q100 -19 100 -67l-2 -12q75 54 132 126zM395 878l-6 -10h-35q-120 -85 -280 -133l-6 12q96 48 146.5 85t111.5 103zM640 897l7 12l50 -13q175 -46 175 -107q0 -31 -18 -31
q-15 0 -40 23q-64 61 -174 116zM70 539l-4 15q144 38 229 73.5t182 96.5q-9 8 -69 68q-1 1 -6 6.5t-9 9.5q-44 -42 -76 -94q-4 -7 -9 -7q-9 0 -20.5 22t-11.5 31q0 8 23 17q23 8 51.5 29.5t41.5 39.5q12 18 16 18q6 0 15 -10t9 -15q0 -7 -21 -17q36 -36 97 -78
q68 52 124 114l68 -56l-8 -11l-33 2q-22 -22 -85 -68l-16 -12q85 -49 166 -74.5t208 -42.5v-14q-19 -6 -28 -15t-21 -33q-115 26 -192 59t-172 97q-104 -63 -206 -94.5t-243 -56.5z" />
  </g>

</svg>
