<?xml version="1.0" standalone="no"?>
<!DOCTYPE svg PUBLIC "-//W3C//DTD SVG 1.1//EN" "http://www.w3.org/Graphics/SVG/1.1/DTD/svg11.dtd" >
<svg xmlns="http://www.w3.org/2000/svg" xmlns:xlink="http://www.w3.org/1999/xlink" version="1.1" viewBox="0 -410 2048 2048">
  <g transform="matrix(1 0 0 -1 0 1638)">
   <path fill="currentColor"
d="M1468 91q-12 70 -52 93q-36 21 -174 43l9 46q181 -27 220 -27q62 0 62 57v566h-531q-121 0 -192 -8l-42 88q91 -23 234 -23h531v102q0 114 -8 159l109 -24q86 -19 86 -45q0 -28 -50 -42l-41 -11v-139h113l109 113l130 -113q23 -19 23 -32q0 -25 -26 -25h-349v-600
q0 -150 -161 -178zM1375 1669h288l108 114l131 -114q23 -20 23 -31q0 -25 -27 -25h-523v-315h189l108 113l131 -113q23 -20 23 -33q0 -24 -27 -24h-668q-120 0 -192 -8l-42 88q93 -23 234 -23h148v315h-247q-117 0 -192 -8l-42 88q92 -24 234 -24h247v118q0 114 -8 160
l109 -24q86 -19 86 -46q0 -28 -50 -42l-41 -11v-155zM944 777q14 -13 60 -46q80 -57 139 -119q64 -67 64 -127q0 -63 -48 -63q-33 0 -52 55q-52 155 -190 273zM203 1426q-63 -151 -122 -261l-32 15q104 317 138 614l127 -38q40 -12 40 -32t-48 -33l-28 -7q-36 -135 -56 -200
h198v315q0 114 -8 160l109 -24q86 -19 86 -44q0 -30 -50 -43l-42 -11v-353h26l108 113l131 -113q23 -20 23 -32q0 -26 -27 -26h-261v-430q206 79 269 109l19 -35q-98 -62 -288 -151v-536l7 -125l3 -56q4 -54 4 -63q0 -60 -63 -60q-46 0 -46 51v750q-140 -65 -233 -113
q-12 -73 -30 -73q-22 0 -45 50l-51 110q135 30 359 110v462h-217z" />
  </g>

</svg>
