<?xml version="1.0" standalone="no"?>
<!DOCTYPE svg PUBLIC "-//W3C//DTD SVG 1.1//EN" "http://www.w3.org/Graphics/SVG/1.1/DTD/svg11.dtd" >
<svg xmlns="http://www.w3.org/2000/svg" xmlns:xlink="http://www.w3.org/1999/xlink" version="1.1" viewBox="0 -140 1000 1000">
  <g transform="matrix(1 0 0 -1 0 860)">
   <path fill="currentColor"
d="M426 710h121q1 17 1 56q0 30 -5 160l100 -10v-16l-36 -21q1 -29 1 -86l-1 -83h226l41 59h13l57 -68v-14h-337q-7 -79 -14.5 -133t-21 -113.5t-33 -103.5t-49 -90.5t-71 -88t-97.5 -82.5l-9 9q61 54 105 122t67 124.5t38 133t18.5 116.5t7.5 106h-122v23zM688 878l4 11
q36 -6 49 -8q120 -17 120 -65q0 -36 -15 -36q-14 0 -43 26q-56 50 -115 72zM603 613l90 -9v-19l-30 -20v-376q0 -34 7 -49.5t15.5 -18t29.5 -2.5h103q37 0 45.5 4.5t17.5 29.5l35 99l13 -4l-14 -135l18 -14v-15q-19 -15 -73 -15h-186q-43 0 -57 20.5t-14 84.5v439zM928 628
l-9 -11l-28 2q-62 -73 -195 -127l-5 12q105 68 172 176zM937 488l-8 -14l-31 8q-39 -54 -83.5 -86t-122.5 -62l-8 13q105 67 187 193zM957 349l-6 -11l-29 2q-66 -62 -102.5 -86t-125.5 -63l-8 12q74 45 113.5 83t96.5 117zM319 911v-15l-34 -20v-173l21 1l41 54h12l52 -62
v-15h-126v-181l130 63l10 -15l-140 -96l-1 -367l-7 -10l-47 -12l-9 8v342l-100 -60l1 -26l-15 -7l-49 72l163 78v211h-85q-30 -113 -64 -163l-14 7q38 150 38 289q0 33 -1 47l100 -13l-2 -17l-33 -18q-9 -68 -19 -110h80l-1 219z" />
  </g>

</svg>
