<?xml version="1.0" standalone="no"?>
<!DOCTYPE svg PUBLIC "-//W3C//DTD SVG 1.1//EN" "http://www.w3.org/Graphics/SVG/1.1/DTD/svg11.dtd" >
<svg xmlns="http://www.w3.org/2000/svg" xmlns:xlink="http://www.w3.org/1999/xlink" version="1.1" viewBox="0 -120 1000 1000">
  <g transform="matrix(1 0 0 -1 0 880)">
   <path fill="currentColor"
d="M42 302q79 125 112 265l71 -22q19 -6 19 -19q0 -14 -19 -16l-20 -2l-34 -64h93v153l79 -9q22 -2 22 -14q0 -11 -16 -16l-23 -7v-107h64l41 48l55 -58v-15h-160v-111l146 34l7 -18l-153 -52v-203l-62 -9v190l-130 -42l-5 -16q-4 -16 -13 -16q-7 0 -14 13l-41 70
q48 5 121 18q55 10 82 17v125h-110q-51 -81 -100 -125zM68 661l-13 27h417v126h-186q-53 -77 -96 -120l-15 14q42 66 73 137q13 36 38 109l75 -29q14 -6 14 -15q0 -11 -18 -13l-25 -4q-20 -36 -30 -52h170v115l77 -5q28 -2 28 -15q0 -10 -20 -17l-21 -7v-71h185l40 52
l71 -58v-21h-296v-126h275l46 56l87 -64v-19h-408v-115l-64 -10v125h-404zM464 265l-14 25h237v129h-110q-26 -45 -72 -106l-16 11q46 81 76 230l73 -23q16 -5 16 -14q0 -12 -16 -15l-22 -4l-27 -54h98v154l81 -6q24 -2 24 -15q0 -12 -18 -18l-24 -8v-107h70l41 47l61 -54
v-18h-172v-129h93l47 57l65 -63v-19h-205v-189l-63 -11v200h-223z" />
  </g>

</svg>
