<?xml version="1.0" standalone="no"?>
<!DOCTYPE svg PUBLIC "-//W3C//DTD SVG 1.1//EN" "http://www.w3.org/Graphics/SVG/1.1/DTD/svg11.dtd" >
<svg xmlns="http://www.w3.org/2000/svg" xmlns:xlink="http://www.w3.org/1999/xlink" version="1.1" viewBox="0 -410 2048 2048">
  <g transform="matrix(1 0 0 -1 0 1638)">
   <path fill="currentColor"
d="M469 978q104 55 213 117l26 -38q-131 -95 -239 -164v-522l7 -125l3 -56q4 -53 4 -63q0 -60 -63 -60q-46 0 -46 50v715q-32 -19 -103 -60q-44 -25 -73 -45l-4 -27q-6 -46 -22 -46q-21 0 -50 46l-65 102q28 11 41 16q152 58 276 116v499h-187q-38 -113 -110 -254l-40 19
q132 400 135 615l98 -26q76 -20 76 -45q0 -27 -37 -38l-46 -15q-29 -108 -56 -198h167v300q0 116 -8 161l109 -24q86 -19 86 -45q0 -33 -50 -44l-42 -10v-338h35l99 101l120 -107q17 -14 17 -25q0 -27 -27 -27h-244v-455zM1779 104q-2 56 -25 78t-118 40v41q40 -4 102 -16
q19 -3 36 -3q51 0 51 70v354h-347v-199l171 25q-35 55 -84 108l24 24q191 -122 191 -211q0 -56 -43 -56q-23 0 -37 18q-3 4 -13 36q-6 18 -16 39q-228 -65 -417 -92l-7 -31q-8 -39 -25 -39q-16 0 -31 32l-61 125q160 6 256 15v206h-306v-537q0 -30 -52 -30q-53 0 -53 44
q0 4 4 49q6 101 6 104v370h-21q-30 0 -44 -4l-30 80q14 -3 21 -5q25 -5 53 -7h18q-4 48 -12 83l118 -87h298v141h-233v-24q0 -40 -58 -40q-50 0 -50 46l12 204v223q0 32 -11 129l118 -56h546l61 72l72 -49q43 -29 43 -50q0 -16 -66 -52v-222q0 -67 7 -140q4 -41 4 -58
q0 -51 -58 -51q-47 0 -47 32v36h-248v-141h331l61 71l73 -49q42 -28 42 -49q0 -17 -65 -53v-407q0 -102 -141 -137zM1153 925h233v158h-233v-158zM1478 1083v-158h248v158h-248zM1153 1141h233v153h-233v-153zM1478 1294v-153h248v153h-248zM1848 1935l115 -87
q28 -22 28 -39q0 -26 -23 -26h-1065v-486q0 -435 -67 -708q-69 -280 -234 -455l-31 27q141 226 186 479q50 284 50 645v422q0 71 -9 202l114 -70h848zM936 1615q59 -15 161 -25h8l-28 162l103 -18q64 -11 64 -30q0 -23 -31 -34l-33 -11l15 -69h18l81 80l114 -86
q17 -13 17 -25q0 -26 -27 -26h-196l15 -57q5 -20 5 -31q0 -37 -71 -37q-18 0 -21 16l-17 109h-8q-115 -4 -127 -6zM1623 1757l95 -26q65 -18 65 -38q0 -18 -48 -31l-26 -7l-11 -65h59l80 80l114 -86q17 -13 17 -26q0 -25 -27 -25h-256l-10 -95q-4 -41 -46 -41q-48 0 -48 38
q0 5 1 11l15 87h-34q-41 -2 -62 -5q-8 -1 -15 -1l-40 88q76 -19 160 -20l7 56q9 66 10 106z" />
  </g>

</svg>
