<?xml version="1.0" standalone="no"?>
<!DOCTYPE svg PUBLIC "-//W3C//DTD SVG 1.1//EN" "http://www.w3.org/Graphics/SVG/1.1/DTD/svg11.dtd" >
<svg xmlns="http://www.w3.org/2000/svg" xmlns:xlink="http://www.w3.org/1999/xlink" version="1.1" viewBox="0 -140 1000 1000">
  <g transform="matrix(1 0 0 -1 0 860)">
   <path fill="currentColor"
d="M835 865l44 50h12l64 -59v-14h-209q-22 -62 -78 -164l22 -14v-15l-35 -11l1 -471l-6 -10l-47 -14l-10 7v422q-86 -109 -225 -194l-9 12q222 173 317 452h-256v23h415zM685 592l7 10l61 -34q135 -74 166 -119q17 -26 17 -56q0 -49 -27 -49q-13 0 -26.5 18.5t-45.5 81.5
q-44 65 -152 148zM407 859l-10 -14l-35 5q-63 -77 -120 -125q59 -99 83 -177.5t24 -171.5q0 -288 -190 -311l-13 10v24l-87 45l6 11l106 -15q55 0 86 61.5t31 168.5q0 42 -14 143q-87 -136 -220 -235l-12 10q142 142 212 309q-22 67 -39 105q-91 -73 -155 -110l-10 15
q75 52 145 125q-43 69 -106 141l13 14q69 -68 117 -130q69 82 112 161zM353 92v22h458l47 59h14l65 -66v-15h-584z" />
  </g>

</svg>
