<?xml version="1.0" standalone="no"?>
<!DOCTYPE svg PUBLIC "-//W3C//DTD SVG 1.1//EN" "http://www.w3.org/Graphics/SVG/1.1/DTD/svg11.dtd" >
<svg xmlns="http://www.w3.org/2000/svg" xmlns:xlink="http://www.w3.org/1999/xlink" version="1.1" viewBox="0 -204 1024 1024">
  <g transform="matrix(1 0 0 -1 0 820)">
   <path fill="currentColor"
d="M296 954q42 -21 70 -39q6 -3 6 -9t-12 -10q-16 -6 -28 -8q-26 -33 -53 -66q-31 -35 -66 -64q33 -60 48 -122q21 -59 28 -135q7 -62 7 -147q0 -112 -14 -194q-7 -40 -20 -59q-11 -24 -37 -41q-23 -18 -61 -28q0 25 -9 32q-9 12 -27 21q-25 9 -66 9l10 22q50 -14 92 -14
q33 0 45 12q16 16 24 65q15 79 15 175q0 90 -4 146q-24 -39 -43 -62q-30 -35 -62 -65q-31 -27 -89 -67l-10 14q55 51 88 88q29 34 60 81q25 39 45 88q-8 44 -18 82q-10 39 -29 77q-21 -21 -48 -38q-41 -30 -88 -56l-10 12q56 42 96 80q20 16 36 35q-2 4 -3 8q-31 53 -89 139
l18 12q65 -86 97 -137q9 10 16 20q35 42 55 76q22 35 30 67zM408 910q37 -8 110 -8h290l40 36q35 -31 58 -62q4 -4 4 -10t-16 -10q-33 -2 -40 -2q-48 -41 -100 -75q-27 -20 -49 -33q5 -2 9 -3q10 -6 10 -13q0 -9 -13 -14q-18 -6 -31 -12v-28h178l44 50q36 -25 69 -51
q9 -5 9 -11q0 -14 -12 -14h-288v-162q0 -34 -15 -50q-14 -18 -35 -27t-34 -9l-1 13q-3 14 -10 20q-13 11 -41 20q-32 11 -74 15v22q66 -14 118 -14q25 0 34 6q10 5 10 30v136h-198q-69 -1 -94 -4l-22 44q43 -14 116 -14h198q-1 52 -8 102q33 -10 60 -23q28 23 49 41
q34 33 71 76h-286q-79 0 -94 -2zM368 416l58 -44h396l32 44q38 -20 53 -42q7 -8 7 -14q0 -8 -38 -32v-233l34 39q36 -27 69 -49q7 -7 7 -13q0 -14 -10 -14h-590q-70 -1 -94 -4l-22 44q41 -11 106 -12v264q0 39 -8 66zM420 86h102v260h-102v-260zM570 86h102v260h-102v-260z
M720 86h110v260h-110v-260z" />
  </g>

</svg>
