<?xml version="1.0" standalone="no"?>
<!DOCTYPE svg PUBLIC "-//W3C//DTD SVG 1.1//EN" "http://www.w3.org/Graphics/SVG/1.1/DTD/svg11.dtd" >
<svg xmlns="http://www.w3.org/2000/svg" xmlns:xlink="http://www.w3.org/1999/xlink" version="1.1" viewBox="0 -410 2048 2048">
  <g transform="matrix(1 0 0 -1 0 1638)">
   <path fill="currentColor"
d="M1223 112l-26 34q231 185 351 411q-110 269 -124 646l46 16q37 -402 127 -578q80 161 126 371q30 135 52 385h-311q-62 -150 -127 -252l-38 20q141 341 195 767l95 -31q95 -32 95 -60q0 -25 -48 -30l-56 -5q-38 -180 -100 -355h295l88 101l113 -101q14 -12 14 -29
q0 -25 -22 -25h-92q-33 -330 -97 -537q-57 -186 -133 -321q141 -241 346 -354l-10 -30q-45 -1 -67 -9q-23 -9 -48 -42q-170 161 -270 350q-102 -131 -163 -187q-86 -79 -211 -155zM913 1684v114q0 117 -8 160l119 -24q101 -21 101 -51q0 -35 -72 -48l-42 -7v-144h108l81 81
l106 -91q18 -16 18 -30q0 -18 -26 -18h-287v-256h68l78 88l93 -81q31 -27 31 -35q0 -26 -25 -26h-372q-117 0 -193 -10l-39 90q91 -26 226 -26h35v256h-85q-115 0 -188 -8l-42 88q93 -22 230 -22h85zM900 1274q31 -20 97 -81q63 -58 63 -107q0 -29 -26 -60h122l81 88
l100 -92q14 -13 14 -25q0 -25 -22 -25h-406q-6 -52 -8 -78q-6 -68 -12 -108h224l60 74l81 -53q43 -28 43 -50q0 -25 -74 -59q-29 -330 -72 -425q-51 -113 -190 -130q-1 61 -43 91q-29 20 -130 54l13 40q31 -10 103 -30q63 -17 87 -17q72 0 99 128q21 104 37 323h-248
q-56 -408 -329 -618l-23 29q270 273 288 829h-71q-109 -6 -129 -10l-38 88q93 -24 229 -24h155q0 2 -2 12q-15 66 -40 117q-2 3 -63 97zM336 1538q-121 -104 -266 -180l-16 38q143 103 248 214q-31 57 -142 241l28 27q61 -61 161 -220q123 147 194 284l86 -46q57 -31 57 -56
q0 -22 -52 -27l-43 -4q-100 -121 -200 -224q95 -187 132 -345q42 -179 42 -453q0 -414 -56 -542q-54 -121 -223 -156v7q0 94 -199 130l11 42q37 -8 91 -23q86 -24 116 -24q105 0 136 150q32 155 32 465q0 13 -7 176q-2 23 -3 69q-107 -163 -217 -268q-33 -30 -170 -132
l-22 34q99 78 199 206q99 126 180 338q-31 135 -97 279z" />
  </g>

</svg>
