<?xml version="1.0" standalone="no"?>
<!DOCTYPE svg PUBLIC "-//W3C//DTD SVG 1.1//EN" "http://www.w3.org/Graphics/SVG/1.1/DTD/svg11.dtd" >
<svg xmlns="http://www.w3.org/2000/svg" xmlns:xlink="http://www.w3.org/1999/xlink" version="1.1" viewBox="0 -204 1024 1024">
  <g transform="matrix(1 0 0 -1 0 820)">
   <path fill="currentColor"
d="M236 950q42 -21 68 -38q6 -4 6 -10t-10 -11q-14 -5 -30 -7q-18 -37 -42 -70q-17 -28 -38 -53q6 -7 8 -12q27 -59 44 -123q16 -57 23 -134q5 -61 5 -146q0 -112 -14 -194q-4 -40 -18 -59q-14 -24 -38 -41q-27 -20 -66 -28q0 23 -6 31q-6 10 -23 16q-20 9 -55 9l8 24
q42 -10 76 -10q36 0 48 12q20 14 28 65q12 77 12 175q0 119 -6 183q-19 -46 -39 -75q-23 -38 -50 -66q-29 -31 -77 -74l-14 18q49 55 77 94q23 34 52 86q20 42 40 97q-4 20 -9 41q-13 40 -29 83q-23 -27 -49 -51q-33 -31 -72 -62l-10 12q45 45 76 84q20 28 39 56
q-26 51 -75 134l18 10q47 -70 76 -117q27 44 43 80q15 37 23 71zM452 960q43 -11 76 -30q8 -5 8 -10q0 -7 -13 -12q-19 -6 -37 -6q-4 -15 -9 -26q-4 -11 -9 -23q-5 -13 -10 -21h96l30 34q52 -33 52 -44t-30 -30v-244q0 -17 -32 -22q-16 0 -16 6v26h-164v-14q0 -9 -10 -13
q-15 -5 -26 -5q-12 0 -12 10v326l52 -30h30q4 11 7 26q4 17 8 39q3 20 7 43zM394 584h164v98h-164v-98zM394 708h164v96h-164v-96zM426 536q18 -11 34 -25q15 -14 24 -24q12 -12 16 -22q4 -8 4 -17q0 -18 -5 -28h59l44 50q38 -25 69 -51q9 -5 9 -11q0 -14 -12 -14h-242v-76
h122l36 32q32 -21 52 -36q6 -8 6 -12q0 -14 -40 -28q-5 -70 -13 -118q-10 -49 -22 -71q-10 -22 -21 -30q-15 -12 -30 -21q-12 -6 -20 -6q0 19 -7 28q-7 11 -69 42l4 18q58 -22 80 -22q7 0 12 3q5 2 9 8q5 7 13 29q6 18 10 56q5 39 6 98h-130q-1 -11 -2 -19q-7 -50 -22 -85
q-14 -38 -31 -66q-23 -28 -42 -50q-23 -18 -53 -36l-12 18q23 15 38 32q15 19 29 37q12 24 22 51q10 22 18 54q5 31 8 69q3 36 3 101q-55 -1 -78 -4l-18 44q43 -14 114 -14h65q-1 3 -1 7q-3 17 -11 33q-9 18 -17 32q-8 15 -22 34zM724 942q48 -19 85 -35q5 -7 5 -15
q0 -9 -18 -12q-24 -4 -32 -4q-16 -78 -37 -148q-2 -11 -4 -20h157l44 44q30 -22 59 -46q7 -4 7 -8q0 -16 -10 -16h-70q-1 -88 -8 -153q-6 -85 -22 -137q-17 -70 -42 -122q-13 -24 -23 -41q3 -5 7 -11q24 -42 64 -77q40 -40 94 -77l-4 -10q-43 0 -56 -26q-48 38 -74 73
q-29 39 -54 85q-1 1 -1 2q-9 -10 -15 -18q-39 -49 -92 -85q-45 -37 -110 -65l-12 22q90 46 134 92q42 41 74 97q-11 30 -22 61q-22 58 -31 115q-17 72 -19 155l26 8q4 -85 18 -155q14 -56 34 -109q7 -19 17 -35q18 40 30 84q20 54 30 136q5 70 5 191h-143q-14 -42 -28 -77
q-20 -56 -51 -113l-16 12q23 63 42 116q14 48 25 107q13 58 24 108q8 48 13 107z" />
  </g>

</svg>
