<?xml version="1.0" standalone="no"?>
<!DOCTYPE svg PUBLIC "-//W3C//DTD SVG 1.1//EN" "http://www.w3.org/Graphics/SVG/1.1/DTD/svg11.dtd" >
<svg xmlns="http://www.w3.org/2000/svg" xmlns:xlink="http://www.w3.org/1999/xlink" version="1.1" viewBox="0 -410 2048 2048">
  <g transform="matrix(1 0 0 -1 0 1638)">
   <path fill="currentColor"
d="M904 1955l104 -35q65 -21 65 -47q0 -8 -8 -15q-19 -19 -53 -19h-31l-65 -140h204l68 77l84 -54q40 -27 40 -49q0 -27 -42 -46q-21 -9 -38 -19v-327q0 -47 5 -105q3 -31 3 -45q0 -47 -63 -47q-38 0 -38 28v36h-368v-33q0 -31 -50 -31q-54 0 -54 44q0 4 4 49q7 98 7 104
v483l110 -65h62q45 137 54 256zM771 1202h368v198h-368v-198zM771 1454h368v188h-368v-188zM850 1126q73 -43 105 -68q57 -44 57 -97q0 -35 -36 -63h141l80 79l114 -85q16 -13 16 -26q0 -25 -27 -25h-450q-1 -84 -6 -163h248l68 76l84 -54q40 -26 40 -48q0 -27 -42 -46
q-20 -9 -37 -20q-24 -297 -68 -390q-40 -84 -153 -106q-5 64 -57 92q-31 18 -99 37l12 41q24 -9 86.5 -23.5t77.5 -14.5q40 0 59 57q13 43 33 190q14 108 16 153h-272q-15 -170 -64 -278q-48 -105 -140 -176q-32 -24 -103 -67l-17 32q159 124 206 319q28 119 33 389h-13
q-67 0 -149 -11l-39 87q119 -19 188 -19h198q-19 15 -23 46q-9 68 -95 155zM1456 1947l132 -46q57 -20 57 -45q0 -27 -48 -35l-49 -7q-61 -246 -85 -334h278l88 98l125 -103q17 -14 17 -26q0 -26 -27 -26h-123q-5 -383 -43 -571q-40 -202 -139 -375q64 -101 153 -175
q74 -62 211 -117l-8 -38h-24q-71 0 -110 -58q-162 132 -279 308q-189 -218 -432 -322l-18 34q136 84 207 148q114 103 193 232q-64 132 -97 255q-46 169 -60 421l45 4q24 -208 60 -347q28 -111 102 -257q60 127 82 222q55 227 55 586q0 16 -1 50h-269q-16 -42 -56 -150
q-33 -89 -106 -224l-32 24q62 154 114 376q79 334 87 498zM310 1642q126 163 175 286l99 -53q46 -25 46 -44q0 -26 -46 -26h-45q-97 -135 -191 -233q86 -179 124 -348q36 -157 36 -466q0 -454 -84 -570q-59 -82 -194 -110q-4 52 -37 80q-23 20 -126 49l5 42q126 -35 186 -35
q78 0 106 82q50 144 50 524q0 72 -12 207q-152 -233 -330 -354l-20 36q82 78 174 208q108 153 153 285q-12 126 -87 318q-70 -60 -206 -151l-19 38q127 105 197 181q-62 138 -167 287l31 22q68 -77 182 -255z" />
  </g>

</svg>
