<?xml version="1.0" standalone="no"?>
<!DOCTYPE svg PUBLIC "-//W3C//DTD SVG 1.1//EN" "http://www.w3.org/Graphics/SVG/1.1/DTD/svg11.dtd" >
<svg xmlns="http://www.w3.org/2000/svg" xmlns:xlink="http://www.w3.org/1999/xlink" version="1.1" viewBox="0 -204 1024 1024">
  <g transform="matrix(1 0 0 -1 0 820)">
   <path fill="currentColor"
d="M281 948q45 -20 74 -38q6 -4 6 -10q0 -8 -10 -11q-17 -6 -31 -7q-23 -34 -50 -66q-25 -30 -52 -54l6 -12q31 -62 48 -127q18 -60 26 -138q6 -65 6 -153q0 -105 -13 -183q-5 -38 -18 -57q-12 -22 -36 -39q-24 -18 -61 -25q-3 19 -11 27q-6 8 -22 14q-24 9 -63 9l8 26
q48 -9 88 -9q32 0 43 13q17 13 25 59q12 74 12 165q0 107 -4 170q-24 -41 -45 -66q-29 -36 -62 -65q-35 -30 -93 -71l-16 19q61 51 94 89q31 34 65 82q25 37 46 87q-7 37 -15 70q-13 44 -34 91q-25 -21 -55 -43q-38 -28 -83 -55l-14 14q54 41 92 78q23 22 42 44
q-29 53 -82 135l20 13q53 -74 83 -123q4 4 6 7q33 41 54 76q18 34 26 64zM340 878q44 -12 117 -12h27l-20 86q45 -6 80 -12q11 -3 11 -9q0 -5 -12 -12q-14 -8 -26 -11l11 -42h36l35 36q29 -21 55 -41q6 -4 6 -9q0 -14 -12 -14h-112l14 -49q0 -10 -10 -14q-12 -7 -24 -7
q-11 0 -13 10l-13 60h-33q-71 -2 -97 -7zM775 952q42 -5 77 -20q5 -2 5 -8q0 -7 -15 -12q-14 -3 -28 -5q-3 -21 -9 -41h75l35 36q29 -21 55 -41q6 -4 6 -9q0 -14 -12 -14h-167q-7 -26 -19 -53q-3 -17 -26 -17q-20 0 -20 11l2 10q5 8 10 24q4 13 7 24q-47 -2 -67 -6l-20 47
q37 -10 95 -12q12 51 16 86zM422 780l63 -30h327l35 33q51 -36 51 -50q0 -10 -30 -25v-155q0 -23 1 -30q1 -8 1 -16q0 -21 -34 -27q-16 0 -16 10v12h-250q34 -11 34 -20q0 -15 -55 -18q-14 -22 -29 -38h362l32 33q33 -16 53 -36q8 -9 8 -17q0 -15 -40 -29q0 -84 -12 -179
q-13 -94 -32 -128q-10 -20 -25 -29q-11 -7 -28 -13q-26 -8 -58 -8q-2 13 -9 20q-4 7 -18 12q-29 10 -101 24l6 24q125 -18 145 -18q15 0 27 5q10 5 16 15q7 10 15 32q11 32 18 101q7 71 8 163h-395l-4 -4q-30 -29 -68 -52q-40 -24 -80 -40l-12 21q41 24 64 41q22 17 48 46
q22 23 41 53q10 17 19 39h-28v-4q0 -10 -12 -16q-15 -6 -25 -6q-13 0 -13 14q0 4 1 14q1 23 1 42v166q0 49 -2 68zM472 530h348v192h-348v-80h199l40 44q35 -25 64 -49q6 -6 6 -9q0 -6 -5 -9q-3 -5 -9 -5h-295v-84zM631 372q87 -12 87 -26q0 -15 -44 -18q-7 -11 -13 -18
q25 -7 47 -14q36 -13 54 -22t24 -15l12 -14q2 -5 2 -11q0 -22 -20 -22q-4 0 -10 4q-6 3 -14 10q-15 12 -27 20q-16 9 -38 19q-19 10 -49 23l-8 -8q-17 -16 -46 -35q-25 -19 -67 -35l-15 21q35 20 58 41q25 23 41 46q19 26 26 54zM417 324q48 -9 80 -20q8 -4 8 -12
q0 -10 -11 -15q-10 -6 -27 -11v-25q0 -29 5 -42q5 -11 17 -17q9 -7 40 -9q32 -5 68 -5q38 0 73 3q28 3 48 11q18 6 28 6q16 0 26 -8t12 -25q0 -6 -4 -8q-3 -6 -12 -8q-21 -6 -51 -8q-53 -5 -104 -5q-60 0 -101 5q-29 2 -43 9q-17 5 -26 14q-14 12 -18 29q-5 16 -5 43v40
q0 34 -3 58z" />
  </g>

</svg>
