<?xml version="1.0" standalone="no"?>
<!DOCTYPE svg PUBLIC "-//W3C//DTD SVG 1.1//EN" "http://www.w3.org/Graphics/SVG/1.1/DTD/svg11.dtd" >
<svg xmlns="http://www.w3.org/2000/svg" xmlns:xlink="http://www.w3.org/1999/xlink" version="1.1" viewBox="0 -204 1024 1024">
  <g transform="matrix(1 0 0 -1 0 820)">
   <path fill="currentColor"
d="M40 870q43 -12 116 -12h114l44 48q34 -27 66 -49q6 -7 6 -13q0 -14 -10 -14h-158v-286h34l44 44q32 -22 59 -46q9 -4 9 -10q0 -14 -14 -14h-132v-279q20 7 36 13q55 23 130 58l2 -22q-58 -39 -104 -60q-51 -28 -96 -45q-42 -21 -88 -35q-10 -36 -14 -36q-8 0 -48 80
q62 10 114 27q11 3 20 6v293h-14q-71 -1 -98 -4l-18 44q43 -14 116 -14h14v286h-14q-71 -1 -98 -4zM544 916q45 -14 78 -32q6 -6 6 -12q0 -7 -18 -10q-18 -4 -26 -4q-26 -67 -57 -127q-28 -59 -61 -105q-36 -45 -82 -94l-16 8q42 53 70 102q24 41 46 91q23 50 37 94
q15 41 23 89zM742 932q24 -66 51 -119q25 -51 59 -98q33 -45 67 -75q30 -29 61 -42v-22q-57 0 -78 -32q-29 28 -50 65q-28 40 -45 84q-23 41 -41 91q-24 51 -46 136zM420 526q39 -8 110 -8h288l36 36q32 -19 51 -34q9 -9 9 -16q0 -10 -34 -34q-9 -152 -21 -239
q-10 -88 -23 -123q-14 -31 -27 -43q-12 -11 -37 -18q-19 -12 -70 -19q-5 24 -13 34q-7 11 -26 16q-19 9 -75 20l4 22q88 -26 110 -26q21 0 35 5q18 4 30 15q14 17 26 40q12 30 22 116q15 109 15 218h-233q-7 -62 -19 -116q-13 -59 -37 -106q-25 -56 -55 -96q-29 -42 -74 -76
q-47 -38 -114 -70l-10 18q66 39 105 77t68 79q23 38 43 80q17 44 31 105q9 44 15 105h-20q-78 0 -96 -2z" />
  </g>

</svg>
