<?xml version="1.0" standalone="no"?>
<!DOCTYPE svg PUBLIC "-//W3C//DTD SVG 1.1//EN" "http://www.w3.org/Graphics/SVG/1.1/DTD/svg11.dtd" >
<svg xmlns="http://www.w3.org/2000/svg" xmlns:xlink="http://www.w3.org/1999/xlink" version="1.1" viewBox="0 -410 2048 2048">
  <g transform="matrix(1 0 0 -1 0 1638)">
   <path fill="currentColor"
d="M1352 394q172 220 345 508h-611q-110 0 -192 -9l-38 88q92 -22 230 -22h621l68 76l84 -54q49 -32 49 -52q0 -26 -91 -58q-67 -83 -100 -126q-144 -186 -330 -381q151 -129 151 -224q0 -66 -51 -66q-18 0 -36 14q-19 15 -66 98q-91 161 -365 381l23 30q195 -114 309 -203z
M1469 1270l80 81l114 -86q17 -13 17 -26q0 -26 -28 -26h-387q-69 0 -149 -11l-39 86q125 -18 188 -18h204zM1387 1851q100 -182 264 -344q157 -157 362 -237l-4 -37q-99 -3 -134 -54q-88 52 -193 159q-181 184 -330 482q-99 -229 -214 -385q-123 -166 -320 -301l-25 34
q373 305 485 790l122 -30q59 -14 59 -40q0 -23 -44 -32zM354 537v601h-32q-118 0 -192 -8l-38 88q99 -23 230 -23h32v491h-59q-116 0 -192 -8l-38 88q96 -23 230 -23h306l98 101l121 -106q17 -15 17 -26q0 -26 -27 -26h-360v-491h88l99 102l120 -107q17 -15 17 -25
q0 -27 -27 -27h-297v-573q137 40 337 124l18 -36q-166 -96 -354 -173q-16 -7 -270 -97l-11 -43q-8 -31 -26 -31q-10 0 -27 31l-70 130q168 28 307 67z" />
  </g>

</svg>
