<?xml version="1.0" standalone="no"?>
<!DOCTYPE svg PUBLIC "-//W3C//DTD SVG 1.1//EN" "http://www.w3.org/Graphics/SVG/1.1/DTD/svg11.dtd" >
<svg xmlns="http://www.w3.org/2000/svg" xmlns:xlink="http://www.w3.org/1999/xlink" version="1.1" viewBox="0 -140 1000 1000">
  <g transform="matrix(1 0 0 -1 0 860)">
   <path fill="currentColor"
d="M835 569h-347v-124h347v124zM835 422h-347v-124h347v124zM604 820l-4 -13l-28 -1q-43 -71 -83 -114.5t-112 -96.5l-10 8q61 66 92 119t61 143zM723 903v-16l-34 -18v-277h130l32 35l14 1l59 -50v-13l-25 -15v-405q0 -47 -18.5 -62.5t-93.5 -31.5l-8 5v33l-74 33l2 12
l98 -4q31 0 31 40l-1 106h-347v-202l-7 -13l-49 -12l-8 7v563l72 -27h129v326zM295 819l41 46l15 -1l54 -51v-16h-155v-255h41l41 47h14l55 -53v-17h-151l-1 -250l157 53l5 -15l-300 -145l-2 -23l-13 -7l-46 83l136 39v265h-116v23h116v253h-130v23zM733 835l7 9
q79 -38 131.5 -86t52.5 -90q0 -17 -7 -29t-18 -12q-15 0 -31 34q-46 95 -135 174z" />
  </g>

</svg>
