<?xml version="1.0" standalone="no"?>
<!DOCTYPE svg PUBLIC "-//W3C//DTD SVG 1.1//EN" "http://www.w3.org/Graphics/SVG/1.1/DTD/svg11.dtd" >
<svg xmlns="http://www.w3.org/2000/svg" xmlns:xlink="http://www.w3.org/1999/xlink" version="1.1" viewBox="0 -140 1000 1000">
  <g transform="matrix(1 0 0 -1 0 860)">
   <path fill="currentColor"
d="M930 831l-26 -8q-2 -31 -6 -69q-21 -221 -76 -379q-5 -9 -14 -36q59 -154 150 -272l-5 -9q-5 1 -18 1q-20 0 -48 -17q-52 73 -116 237q-66 -98 -116 -150t-119 -95l-10 11q73 64 119.5 127.5t98.5 169.5q-26 117 -37 220t-16 286h-47v23h194l32 34h17l48 -58zM474 591
v352l100 -19v-17l-38 -16v-126h33l30 43h13l48 -48v-17h-124v-152h50l32 47h17l49 -53v-17h-341v23h131zM552 458l12 8q111 -104 111 -174q0 -19 -10.5 -36.5t-21.5 -17.5q-22 0 -35 83q-7 50 -56 137zM378 475l87 -34l-3 -14l-25 -5q-27 -83 -49.5 -131t-66.5 -112l-13 8
q29 68 42.5 123.5t27.5 164.5zM845 849h-131q18 -243 66 -434q52 188 65 434zM324 126l3 14l104 -11q15 0 22 1t14 10t7 26v387l97 -17v-17l-35 -11v-383q0 -46 -65 -66l-40 -12l-10 7v33zM220 821v-285h33l32 42h16l45 -46v-19h-126v-241l110 32l3 -14l-235 -120l1 -34
l-13 -3l-43 88l114 35v257h-98v23h98v285h-102v22h205l41 50h14l49 -55v-17h-144z" />
  </g>

</svg>
