<?xml version="1.0" standalone="no"?>
<!DOCTYPE svg PUBLIC "-//W3C//DTD SVG 1.1//EN" "http://www.w3.org/Graphics/SVG/1.1/DTD/svg11.dtd" >
<svg xmlns="http://www.w3.org/2000/svg" xmlns:xlink="http://www.w3.org/1999/xlink" version="1.1" viewBox="0 -410 2048 2048">
  <g transform="matrix(1 0 0 -1 0 1638)">
   <path fill="currentColor"
d="M1650 1829l98 102l121 -107q17 -15 17 -26q0 -27 -27 -27h-593v-181h350l68 76l83 -54q41 -27 41 -48q0 -28 -78 -62v-163l37 -31q10 -8 10 -20q0 -25 -24 -25h-467v-194h433l98 101l121 -106q17 -16 17 -26q0 -27 -28 -27h-1635q-113 0 -192 -8l-38 88q96 -22 230 -22
h437v194h-318q-23 -8 -34 -12q-25 -9 -37 -9q-39 0 -39 30v383l130 -65h298v181h-334q-107 0 -192 -8l-38 88q94 -22 230 -22h1255zM825 1069h365v318l120 -64h325v210h-357q-37 -12 -55 -12q-27 0 -43 11q-8 5 -8 31v208h-347v-164l30 -21q19 -13 19 -28q0 -25 -19 -25
h-460v-210h316l68 76l84 -54q40 -26 40 -49q0 -28 -78 -62v-165zM1066 503v-246h663l109 114l131 -114q23 -20 23 -33q0 -25 -27 -25h-1671q-70 0 -149 -11l-39 87q127 -18 188 -18h678v246h-410q-68 0 -148 -11l-39 86q123 -18 187 -18h410v205h-565q-67 0 -149 -11l-39 86
q121 -18 188 -18h1166l99 102l120 -107q17 -15 17 -26q0 -26 -27 -26h-716v-205h416l98 102l121 -107q17 -15 17 -26q0 -26 -27 -26h-625zM1300 482q152 -51 196 -86q45 -35 45 -71q0 -58 -48 -58q-27 0 -57 46q-41 63 -156 138z" />
  </g>

</svg>
