<?xml version="1.0" standalone="no"?>
<!DOCTYPE svg PUBLIC "-//W3C//DTD SVG 1.1//EN" "http://www.w3.org/Graphics/SVG/1.1/DTD/svg11.dtd" >
<svg xmlns="http://www.w3.org/2000/svg" xmlns:xlink="http://www.w3.org/1999/xlink" version="1.1" viewBox="0 -204 1024 1024">
  <g transform="matrix(1 0 0 -1 0 820)">
   <path fill="currentColor"
d="M40 880q43 -10 116 -10h58l44 46q36 -25 66 -47q8 -5 8 -11q0 -18 -14 -18h-118v-252h14l42 44q32 -22 59 -46q9 -4 9 -10q0 -14 -14 -14h-110v-262q7 3 13 6q43 18 101 52l4 -22q-45 -35 -78 -58q-37 -23 -71 -42q-32 -17 -67 -32q-10 -34 -16 -34t-46 78q49 11 89 26
q10 2 23 5v283q-66 -1 -90 -4l-20 44q43 -13 110 -14v252q-68 -1 -94 -4zM430 954q25 -15 41 -33q22 -13 34 -29q12 -13 17 -23q4 -9 4 -21q0 -18 -6 -29q-2 -3 -4 -5h54l28 30q52 -30 52 -44q0 -10 -26 -26v-296q0 -20 -32 -26q-18 0 -18 8v14h-184v-281l24 6q32 8 71 26
q32 12 72 33q-7 13 -15 23q-29 39 -74 87l10 12q44 -32 77 -67q35 -34 52 -56q20 -23 30 -37q5 -17 9 -30q4 -11 4 -26q-1 -26 -18 -26q-8 0 -15 5q-6 6 -26 53q-10 24 -23 41q-30 -24 -56 -40q-31 -19 -58 -35q-27 -15 -56 -24q-10 -36 -14 -36q-8 0 -48 80q6 1 10 2v604
q0 41 -6 70l58 -44h87q-2 5 -5 15q-4 19 -13 40q-9 17 -22 36q-11 15 -29 37zM390 786v-128h184v128h-184zM390 628v-128h184v128h-184zM734 832v-808q0 -10 -18 -10q-9 0 -24 5q-10 7 -10 23q0 17 3 46q5 22 5 98v650q0 39 -8 70l60 -44h146l32 36q34 -26 56 -44
q6 -10 6 -18q0 -5 -14 -11q-17 -9 -36 -15q-53 -120 -118 -234q59 -45 91 -88q31 -39 48 -88q19 -42 19 -90q0 -51 -16 -82q-9 -29 -30 -45q-20 -18 -68 -31l-4 15q-6 17 -18 23q-24 13 -76 24l4 18q42 -14 76 -14q31 0 48 10q15 9 23 30q13 20 13 62t-15 83q-11 43 -37 85
q-22 40 -76 88q61 152 96 256h-158z" />
  </g>

</svg>
