<?xml version="1.0" standalone="no"?>
<!DOCTYPE svg PUBLIC "-//W3C//DTD SVG 1.1//EN" "http://www.w3.org/Graphics/SVG/1.1/DTD/svg11.dtd" >
<svg xmlns="http://www.w3.org/2000/svg" xmlns:xlink="http://www.w3.org/1999/xlink" version="1.1" viewBox="0 -204 1024 1024">
  <g transform="matrix(1 0 0 -1 0 820)">
   <path fill="currentColor"
d="M36 870q43 -12 116 -12h56l44 44q32 -25 59 -46q7 -6 7 -12q0 -14 -12 -14h-102v-260h18l40 40q32 -23 59 -43q7 -4 7 -9q0 -18 -14 -18h-110v-273q6 2 11 5q46 18 109 52l4 -18q-48 -38 -84 -62q-39 -24 -75 -43q-34 -18 -71 -31q-10 -36 -14 -36q-8 0 -48 80
q51 10 93 23q13 4 27 8v295q-71 -1 -98 -4l-18 44q43 -10 116 -10v260h-4q-71 -1 -98 -4zM452 964q14 -8 24 -18q12 -8 21 -19q9 -8 12 -13q3 -6 3 -12q0 -21 -6 -31q-2 -3 -4 -5h34l38 44q32 -25 62 -46q6 -5 6 -10q0 -18 -10 -18h-73q31 -8 53 -20q8 -6 8 -12
q0 -9 -13 -13q-19 -5 -37 -5q-5 -22 -12 -40q-5 -17 -13 -38q-7 -16 -16 -31q-4 -9 -10 -17h35l42 44q32 -22 59 -45q9 -4 9 -9q0 -18 -14 -18h-216q-69 -1 -94 -4l-22 44q39 -11 103 -12q-2 7 -4 24q-2 25 -8 51q-7 23 -13 47q-7 20 -16 48l6 4q-17 -1 -28 -2l-18 44
q43 -10 116 -10h18q-1 4 -2 7q-3 14 -7 29q-5 13 -12 24q-8 14 -19 28zM442 660h54q8 22 14 44q6 26 12 53q5 30 9 59q4 10 4 20h-79q-36 -1 -59 -2q14 -18 23 -39q10 -19 17 -40q8 -18 12 -35q3 -14 3 -26q0 -19 -7 -30q-2 -3 -3 -4zM420 522l-4 -14v-106h132v120h-128z
M548 372h-132v-98h132v98zM548 244h-132v-208q0 -12 -22 -12q-8 0 -20 6q-10 8 -10 24t2 46q6 22 6 96v318q0 37 -8 66l44 -32h132l30 44q36 -20 54 -42q8 -8 8 -14q0 -8 -40 -32v-388q0 -34 -11 -51q-10 -15 -26 -26q-13 -11 -25 -11l-3 30q-1 3 -2 4q-6 12 -20 23
q-18 10 -37 13v22q31 -16 54 -16q16 0 20 7q6 6 6 31v102zM676 960q48 -5 80 -20q12 -7 12 -16t-10 -11q-15 -9 -32 -11v-54h100l40 44q32 -22 62 -46q8 -4 8 -10q0 -14 -12 -14h-198v-92h150l26 30q52 -30 52 -44q0 -10 -26 -26v-80q11 -9 21 -18q5 -4 5 -8q0 -14 -8 -14
h-220v-88h82l40 40q30 -23 55 -43q7 -4 7 -9q0 -18 -12 -18h-172v-94h88l40 40q32 -23 57 -43q9 -4 9 -9q0 -18 -14 -18h-180v-96h88l40 44q34 -21 61 -44q9 -5 9 -10q0 -18 -14 -18h-184v-62q0 -12 6 -23q9 -9 27 -14q22 -7 57 -7h6v-44h-8q-21 1 -46 5q-20 2 -40 7
q-17 6 -30 19q-10 8 -14 20q-4 13 -4 33v486l54 -26h146v104h-157q-6 -8 -25 -8q-22 0 -22 22q0 14 2 32q2 22 2 38v94q0 54 -4 80zM938 244l20 -4q-16 -65 -16 -92q0 -17 16 -35q18 -12 18 -23q0 -8 -7 -15q-8 -7 -29 -12q-18 -4 -52 -6q-34 -3 -66 -3h-8v44h2q34 0 62 7
q19 4 26 19q16 28 34 120z" />
  </g>

</svg>
