<?xml version="1.0" standalone="no"?>
<!DOCTYPE svg PUBLIC "-//W3C//DTD SVG 1.1//EN" "http://www.w3.org/Graphics/SVG/1.1/DTD/svg11.dtd" >
<svg xmlns="http://www.w3.org/2000/svg" xmlns:xlink="http://www.w3.org/1999/xlink" version="1.1" viewBox="0 -200 1000 1000">
  <g transform="matrix(1 0 0 -1 0 800)">
   <path fill="currentColor"
d="M241 404q97 22 162.5 62t106.5 88t61.5 99.5t28.5 96.5l81 -46l-34 -39l-17 -34q49 -66 95 -99.5t86 -48t73.5 -16.5t57.5 -5q-26 -4 -54 -16.5t-62 -35.5q-42 14 -72 33t-53 43.5t-42 56t-38 70.5q-20 -42 -48.5 -78.5t-72.5 -64.5t-106.5 -44.5t-150.5 -18.5zM293 595
q42 36 83 87.5t74 104t56 100t29 75.5l75 -55l-30 -27q-3 -3 -9.5 -12.5t-14 -21t-15.5 -23t-14 -19.5h247l41 44q9 -11 22 -21.5t26 -20t24 -18.5t15 -16v-1q0 -8 -3.5 -11t-5.5 -3h-1q-12 3 -24 3q-28 0 -53.5 -13.5t-46.5 -36.5l-8 2q11 13 24 29t13 28q0 10 -13 13h-269
q-54 -69 -108 -116.5t-105 -66.5zM333 816q-26 -33 -56 -69.5t-56 -74t-43.5 -74.5t-17.5 -70q0 -12 3 -25q-4 -26 -12.5 -36.5t-17.5 -10.5t-16.5 9.5t-7.5 23.5q0 12 4 19q-4 28 -5 48t-4.5 33.5t-11.5 23t-26 17.5l5 3q28 -15 49 -15q23 0 42 15.5t41.5 42.5l52.5 63
t75 77h2zM101 919q31 -13 50 -23.5t30.5 -21t18 -22.5t13.5 -28v-4q0 -23 -6.5 -33.5t-15.5 -10.5q-11 0 -20.5 17t-20 40.5t-22.5 47.5t-27 38zM627 379l50 44q26 -25 46 -40.5t24 -23.5h-396l-19 -89h203l38 35l65 -50l-40 -36l-13 -142v-7q3 -8 5 -11.5t5.5 -5.5t11 -3.5
l22.5 -4.5l141 1q17 0 27.5 6.5t16.5 17.5t8 24.5t2 28.5q0 20 -2 39t-2 31h9v-12q0 -59 9 -86.5t20.5 -38t23 -12t16.5 -8.5v-3q0 -14 -24.5 -28t-69.5 -14h-217q-2 0 -4 -0.5t-4 -0.5q-27 0 -40.5 23t-15.5 53l18 184h-214l-58 -202l199 33l-334 -112l-49 54l124 21
q19 62 33.5 116t24 96t14 69t4.5 34h-107l-46 -14l-30 34h525zM346 219q65 -16 91 -38.5t26 -37.5q0 -14 -6 -25.5t-20 -11.5q-5 0 -13 13.5t-19.5 31.5t-26 37t-32.5 31z" />
  </g>

</svg>
