<?xml version="1.0" standalone="no"?>
<!DOCTYPE svg PUBLIC "-//W3C//DTD SVG 1.1//EN" "http://www.w3.org/Graphics/SVG/1.1/DTD/svg11.dtd" >
<svg xmlns="http://www.w3.org/2000/svg" xmlns:xlink="http://www.w3.org/1999/xlink" version="1.1" viewBox="0 -410 2048 2048">
  <g transform="matrix(1 0 0 -1 0 1638)">
   <path fill="currentColor"
d="M1087 1946l112 -83h483l65 72l66 -50q42 -31 42 -50q0 -11 -8 -18q0 -1 -53 -33v-329q0 -13 6 -140q4 -67 4 -72q0 -42 -60 -42q-48 0 -48 28v36h-395l82 -47q41 -24 41 -40q0 -22 -41 -22h-55q-117 -127 -318 -209l-16 30q117 85 165 130q57 54 115 158h-81v-47
q0 -28 -62 -28q-44 0 -44 52q0 17 4 66q4 52 4 109v397q0 40 -8 132zM1193 1805v-120h503v120h-503zM1193 1627v-129h503v129h-503zM1193 1440v-117h503v117h-503zM1534 1218q143 -45 187 -65q107 -49 107 -108q0 -52 -45 -52q-30 0 -81 65q-38 47 -97 80q-21 11 -87 44z
M244 1942l112 -83h451l63 72l66 -50q42 -31 42 -49q0 -12 -8 -19q-10 -9 -30 -20q-8 -4 -23 -13v-329q0 -85 5 -195q1 -11 1 -15q0 -43 -60 -43q-44 0 -44 28v35h-361l82 -47q42 -23 42 -37q0 -21 -42 -21h-54q-120 -129 -319 -212l-16 30q115 83 165 130q58 55 115 157h-81
v-47q0 -27 -62 -27q-44 0 -44 51q0 17 4 66q4 52 4 109v396q0 41 -8 133zM350 1801v-121h469v121h-469zM350 1622v-128h469v128h-469zM350 1436v-117h469v117h-469zM640 1209q142 -53 183 -74q101 -53 101 -110q0 -53 -45 -53q-32 0 -81 69q-34 49 -92 85q-20 13 -84 49z
M577 571l30 -5q251 -38 383 -75q148 -41 148 -106q0 -47 -45 -47q-28 0 -76 32q-165 108 -450 167l-89 -293q263 17 555 54l10 -41q-348 -77 -734 -130l-12 -38q-7 -24 -23 -24q-22 0 -49 62l-45 103q94 1 199 6l182 605h-246q-118 0 -192 -8l-38 88q92 -22 230 -22h1406
l108 113l131 -113q23 -20 23 -32q0 -26 -27 -26h-1296l-49 -164h742l69 75l83 -54q40 -25 40 -50q0 -29 -78 -63l-26 -287v-14q0 -56 31 -67q38 -14 195 -14q107 0 153 13q48 14 64 138l18 143l41 -4l-6 -166l-1 -11q-3 -44 16 -69q4 -5 38 -34q17 -14 17 -29
q0 -75 -348 -75q-201 0 -244 14q-78 23 -78 103v18l30 375h-775z" />
  </g>

</svg>
