<?xml version="1.0" standalone="no"?>
<!DOCTYPE svg PUBLIC "-//W3C//DTD SVG 1.1//EN" "http://www.w3.org/Graphics/SVG/1.1/DTD/svg11.dtd" >
<svg xmlns="http://www.w3.org/2000/svg" xmlns:xlink="http://www.w3.org/1999/xlink" version="1.1" viewBox="0 -204 1024 1024">
  <g transform="matrix(1 0 0 -1 0 820)">
   <path fill="currentColor"
d="M116 902q49 -19 85 -35q7 -7 7 -13q0 -11 -21 -14q-21 -4 -31 -4q-13 -57 -27 -110h107v144q0 52 -6 80q59 -7 96 -23q14 -6 14 -13q0 -9 -14 -13q-20 -11 -42 -13v-162h58l44 44q34 -25 60 -48q10 -4 10 -10q0 -14 -14 -14h-158v-202h56l44 44q32 -22 59 -46q9 -4 9 -8
q0 -16 -14 -16h-154v-212l12 4q64 18 150 52l6 -22q-73 -35 -128 -58q-62 -25 -114 -42q-51 -17 -108 -32q-10 -36 -16 -36t-46 80q74 11 132 26q31 4 64 13v227h-72q-72 -1 -96 -6l-22 44q44 -12 118 -12h72v202h-114q-12 -43 -27 -78q-15 -42 -41 -88l-14 12q16 53 30 97
q10 37 19 86q9 47 16 89q7 39 11 86zM468 946l58 -44h336l34 44q36 -24 51 -43q7 -7 7 -15q0 -9 -34 -30v-164q0 -76 2 -97q2 -30 2 -49q0 -14 -12 -21q-14 -5 -20 -5q-22 0 -22 10v12h-352v-12q0 -10 -18 -10q-11 0 -24 5q-8 7 -8 21q0 19 1 49q5 21 5 97v182q0 39 -6 70z
M518 574h154v138h-154v-138zM720 574h150v138h-150v-138zM518 742h154v130h-154v-130zM720 872v-130h150v130h-150zM408 412q37 -8 110 -8h106q8 46 8 82q0 29 -4 44q46 -7 81 -22q11 -4 11 -12q0 -5 -13 -8q-16 -5 -27 -6q-3 -43 -8 -78h216l36 34q32 -21 52 -36
q6 -8 6 -12q0 -14 -40 -30q-6 -91 -21 -158q-18 -66 -33 -98q-18 -29 -36 -42q-23 -14 -46 -26q-23 -8 -36 -8q0 20 -8 30q-12 11 -126 44l4 18q104 -26 138 -26q19 0 32 4q10 3 19 12q13 11 25 40q14 31 24 84q12 54 18 142h-229q-3 -16 -8 -28q-17 -60 -44 -107
q-26 -51 -66 -90q-45 -50 -100 -80q-60 -36 -121 -53l-10 18q83 37 127 70q42 30 81 77q33 37 59 89q19 42 32 104h-99q-79 0 -94 -4z" />
  </g>

</svg>
