<?xml version="1.0" standalone="no"?>
<!DOCTYPE svg PUBLIC "-//W3C//DTD SVG 1.1//EN" "http://www.w3.org/Graphics/SVG/1.1/DTD/svg11.dtd" >
<svg xmlns="http://www.w3.org/2000/svg" xmlns:xlink="http://www.w3.org/1999/xlink" version="1.1" viewBox="0 -410 2048 2048">
  <g transform="matrix(1 0 0 -1 0 1638)">
   <path fill="currentColor"
d="M976 1510v311q0 117 -6 160l109 -24q86 -19 86 -45t-50 -42l-42 -14v-346h634l68 76l83 -54q40 -26 40 -48q0 -28 -77 -61v-988q0 -57 11 -223q1 -8 1 -13q0 -46 -70 -46q-36 0 -36 27v69h-1383v-69q0 -36 -50 -36q-61 0 -57 58l4 59l3 79l4 76v1007q0 87 -14 177
l122 -90h620zM1073 1453v-523h654v523h-654zM976 1453h-632v-523h632v523zM1727 307v565h-654v-565h654zM976 307v565h-632v-565h632z" />
  </g>

</svg>
