<?xml version="1.0" standalone="no"?>
<!DOCTYPE svg PUBLIC "-//W3C//DTD SVG 1.1//EN" "http://www.w3.org/Graphics/SVG/1.1/DTD/svg11.dtd" >
<svg xmlns="http://www.w3.org/2000/svg" xmlns:xlink="http://www.w3.org/1999/xlink" version="1.1" viewBox="0 -140 1000 1000">
  <g transform="matrix(1 0 0 -1 0 860)">
   <path fill="currentColor"
d="M731 664l29 34h15l53 -38v-15l-20 -20v-395l-10 -12l-49 -11l-5 4v36h-294q0 -22 -4 -36l-53 -11l-7 7v485l72 -28h273zM744 454h-294v-185h294v185zM744 642h-294v-166h294v166zM208 88v22h626l41 52h16l56 -58v-16h-739zM191 849l69 -33h259v115l91 -17v-14l-27 -14
v-70h260l36 45h14l52 -53v-14h-687q1 -47 1 -178q0 -81 -1.5 -128t-9.5 -116t-24 -116.5t-46 -102.5t-74 -101l-11 8q53 87 73.5 176t27.5 208l-85 -82v-32l-12 -5l-44 76l138 70q3 75 3 115q0 115 -1 152zM55 686l8 8q60 -35 81.5 -57.5t21.5 -48.5q0 -20 -10 -36t-23 -16
t-21 26q-24 87 -57 124z" />
  </g>

</svg>
