<?xml version="1.0" standalone="no"?>
<!DOCTYPE svg PUBLIC "-//W3C//DTD SVG 1.1//EN" "http://www.w3.org/Graphics/SVG/1.1/DTD/svg11.dtd" >
<svg xmlns="http://www.w3.org/2000/svg" xmlns:xlink="http://www.w3.org/1999/xlink" version="1.1" viewBox="0 -120 1000 1000">
  <g transform="matrix(1 0 0 -1 0 880)">
   <path fill="currentColor"
d="M56 75q155 159 158 398l-96 -84l-5 -20q-3 -12 -11 -12q-6 0 -12 10l-39 63q12 4 80 32q27 12 83 36v363l70 -36h219v140l78 -7q21 -1 21 -15q0 -12 -15 -17l-17 -6v-95h221l63 68l94 -75v-21h-671v-277q-2 -298 -205 -459zM77 761q28 -16 46 -31q61 -50 61 -102
q0 -24 -17 -41q-8 -8 -17 -8q-7 0 -15 6q-11 8 -16 61q-3 36 -21 64q-10 16 -31 41zM950 117q-2 -2 -21 -7q-15 -4 -29 -26q-10 -15 -13 -21q-87 48 -151 116q-76 81 -137 216q-55 -246 -355 -323l-9 18q250 94 297 305h-228l-13 29h248q7 50 7 170h-108q-59 -86 -122 -144
l-14 14q53 72 84 139q42 95 52 176l87 -24q20 -5 20 -17t-20 -15l-24 -3l-24 -52l-21 -44h294l54 58l78 -65v-23h-268q-1 -96 -11 -170h198l56 61l91 -67v-23h-324q49 -88 149 -167q78 -61 180 -98z" />
  </g>

</svg>
