<?xml version="1.0" standalone="no"?>
<!DOCTYPE svg PUBLIC "-//W3C//DTD SVG 1.1//EN" "http://www.w3.org/Graphics/SVG/1.1/DTD/svg11.dtd" >
<svg xmlns="http://www.w3.org/2000/svg" xmlns:xlink="http://www.w3.org/1999/xlink" version="1.1" viewBox="0 -204 1024 1024">
  <g transform="matrix(1 0 0 -1 0 820)">
   <path fill="currentColor"
d="M504 964q21 -11 41 -25q19 -14 32 -24q14 -12 18 -20q3 -10 3 -19q0 -18 -4 -31q-2 -3 -4 -5h268l48 58q38 -29 73 -58q7 -5 7 -10q0 -16 -14 -16h-736v-306q0 -75 -10 -144q-4 -58 -18 -121q-12 -50 -34 -92q-17 -38 -46 -73q-26 -29 -70 -60l-12 6q30 28 50 61
q22 26 35 60q16 36 29 83q12 54 17 110q5 50 8 103q-8 -6 -15 -12q-27 -22 -62 -43q0 -40 -10 -40q-6 0 -62 70q30 7 62 21q30 9 60 23q13 6 28 16v32q1 232 -4 368l58 -36h317q-2 6 -3 15q-5 17 -15 33q-11 18 -22 32q-10 15 -31 34zM50 742q27 -22 45 -41q23 -19 35 -39
q14 -17 21 -32q5 -13 5 -24q0 -19 -5 -30q-10 -10 -21 -10q-5 0 -10 5q-5 3 -9 22q-6 24 -18 49q-9 21 -22 43q-14 19 -35 45zM306 702q44 -12 118 -12h398l48 52q36 -29 68 -53q8 -5 8 -13q0 -16 -10 -16h-512q-72 -1 -96 -2zM342 584l60 -44h406l32 44q36 -20 52 -42
q6 -8 6 -12q0 -10 -40 -34v-135l28 -20q6 -5 6 -9q0 -14 -8 -14h-94q33 -11 63 -27q5 -6 5 -11q0 -7 -12 -12q-24 -6 -42 -6q-10 -31 -23 -60q-12 -28 -25 -57q-14 -28 -28 -47q-6 -13 -15 -26h135l48 58q40 -29 75 -58q9 -5 9 -10q0 -16 -16 -16h-624q-72 -1 -96 -4l-22 44
q44 -14 118 -14h146q-6 10 -9 33q-7 40 -19 77q-16 36 -32 67q-11 27 -32 56v-3q0 -14 -18 -14q-9 0 -24 6q-10 10 -10 24q0 16 3 45q5 24 5 97v58q0 39 -8 66zM521 72h163q15 27 28 55q13 34 27 74t23 81q4 19 5 36h-354q22 -29 42 -55q25 -32 43 -65q16 -28 22 -53
q6 -23 6 -43q0 -17 -5 -30zM394 346h420v168h-420v-168z" />
  </g>

</svg>
