<?xml version="1.0" standalone="no"?>
<!DOCTYPE svg PUBLIC "-//W3C//DTD SVG 1.1//EN" "http://www.w3.org/Graphics/SVG/1.1/DTD/svg11.dtd" >
<svg xmlns="http://www.w3.org/2000/svg" xmlns:xlink="http://www.w3.org/1999/xlink" version="1.1" viewBox="0 -140 1000 1000">
  <g transform="matrix(1 0 0 -1 0 860)">
   <path fill="currentColor"
d="M291 732l72 -30h386l28 31h14l54 -49l-2 -13l-25 -14v-42q0 -108 12.5 -230t30.5 -164q18 -44 33 -44q8 0 18 30l22 68l14 -4l-19 -138l17 -42l-8 -8q-35 0 -63.5 19t-44.5 43t-29 59t-17 53t-8 38q-23 133 -23 333v51h-397q1 -23 1 -81q0 -162 -12.5 -249.5
t-45.5 -152.5t-106 -149l-11 9q62 88 87.5 196.5t25.5 299.5q0 56 -4 180zM372 583l-2 13q195 26 317 73l48 -51l-9 -10l-28 8q-58 -14 -111 -21v-88h66l26 25h18l39 -39v-13l-14 -13q0 -72 2 -164l-7 -12l-49 -11l-10 4v31h-71v-148l117 12q-29 31 -67 63l6 8
q101 -47 139.5 -78t38.5 -70q0 -34 -20 -34q-17 0 -32 24q-24 34 -52 71l-348 -75l-6 -27l-12 -2l-32 81l206 22v153h-71v-24l-9 -11l-44 -15l-9 5q1 42 1 143q0 81 -1 115l63 -21h70v81q-83 -6 -120 -6q-23 0 -33 1zM454 483v-144h71v144h-71zM587 339h71v144h-71v-144z
M178 865l71 -33h243v102l94 -18v-13l-29 -14v-57h271l46 50h14l54 -58v-15h-696v-141q0 -89 -1 -131t-5 -108t-13.5 -103.5t-27 -87.5t-44.5 -92t-66 -87l-10 8q54 97 74 172t29 212l-70 -92l-4 -25l-10 -6l-42 73l126 76l1 161q0 84 -5 227zM56 680l6 9q60 -35 81 -57.5
t21 -51.5q0 -16 -9.5 -31t-20.5 -15q-18 0 -32 56q-11 42 -46 90z" />
  </g>

</svg>
