<?xml version="1.0" standalone="no"?>
<!DOCTYPE svg PUBLIC "-//W3C//DTD SVG 1.1//EN" "http://www.w3.org/Graphics/SVG/1.1/DTD/svg11.dtd" >
<svg xmlns="http://www.w3.org/2000/svg" xmlns:xlink="http://www.w3.org/1999/xlink" version="1.1" viewBox="0 -120 1000 1000">
  <g transform="matrix(1 0 0 -1 0 880)">
   <path fill="currentColor"
d="M48 413l153 77v383l67 -39h234v124l77 -6q24 -2 24 -16q0 -12 -19 -17l-20 -5v-80h258l51 56l71 -63v-19h-682v-333q2 -223 -165 -407l-13 13q74 95 100 205q14 67 17 181l-88 -93v-21q0 -17 -11 -17q-6 0 -15 15zM59 759q100 -83 100 -146q0 -23 -15 -36
q-11 -10 -24 -10q-28 0 -32 42q-4 48 -14 79q-8 21 -27 61zM224 67q59 81 82 154q23 74 23 167v274l67 -33h140v159l71 -5q22 -2 22 -12q0 -7 -15 -14l-21 -11v-44h159l42 48l72 -57v-18h-273v-46h236l23 26l68 -45q20 -13 20 -22q0 -12 -24 -16l-40 -7l-50 -42l-8 5l17 74
h-448v-190q-1 -117 -38 -201q-20 -49 -55 -93q-16 -21 -56 -62zM406 204l-13 27h82v133l68 -36h196l41 47l68 -53v-21h-313v-70h278l45 48l74 -57v-18h-397v-70h222l36 43l62 -48v-22h-320v-37l-60 -11v145h-69zM431 484l-12 24l119 6v79l60 -3q25 -1 25 -14q0 -10 -16 -15
l-14 -5v-39l109 7l38 51l68 -49l2 -20l-217 -13v-27q0 -18 4 -20q6 -4 23 -4h185q29 0 37 8q10 9 18 31l16 48h18l-2 -48v-18q1 -10 21 -18q-4 -20 -13 -30q-16 -19 -63 -20h-253q-46 1 -46 44v51z" />
  </g>

</svg>
