<?xml version="1.0" standalone="no"?>
<!DOCTYPE svg PUBLIC "-//W3C//DTD SVG 1.1//EN" "http://www.w3.org/Graphics/SVG/1.1/DTD/svg11.dtd" >
<svg xmlns="http://www.w3.org/2000/svg" xmlns:xlink="http://www.w3.org/1999/xlink" version="1.1" viewBox="0 -120 1000 1000">
  <g transform="matrix(1 0 0 -1 0 880)">
   <path fill="currentColor"
d="M46 419l148 71v394l79 -54h227v130l78 -6q25 -2 25 -14t-17 -17l-25 -9v-84h238l53 66l90 -76v-15h-687v-236q2 -199 -49 -321q-29 -67 -87 -137q-18 -22 -45 -47l-11 11q78 102 105 205q23 87 26 189l-87 -88v-16q0 -19 -11 -19q-5 0 -12 11zM53 759q24 -15 44 -34
q55 -55 55 -100q0 -18 -13 -30q-8 -8 -19 -8q-15 0 -23 11q-7 9 -15 63q-6 36 -39 88zM441 174q-49 -31 -85 -50q-53 -26 -140 -57l-6 16q56 28 120 76q55 41 84 73l55 -27q21 -10 21 -19q0 -12 -22 -12h-27zM335 241l-7 -17q-6 -16 -14 -16q-9 0 -16 13l-34 71h267
q62 67 158 183l56 -34q16 -10 16 -19t-12 -9h-24l-159 -121l230 3q-21 23 -79 60l8 15q92 -31 131 -59q42 -29 42 -63q0 -30 -24 -30q-17 0 -35 24q-15 22 -21 29l-209 -14v-184l-59 -11v191zM313 440v333l63 -39h404l24 39l59 -41q17 -12 17 -19q0 -8 -17 -14l-19 -7v-215
l-62 -12v21h-218l22 -13q10 -5 10 -12q0 -8 -17 -10l-24 -2l-87 -58q27 -35 27 -53q0 -12 -7.5 -21.5t-17.5 -9.5q-9 0 -16 8t-32 65q-2 8 -35 47l8 10q30 -13 55 -34l65 83h-145v-33zM370 600v-87h171v87h-171zM370 708v-81h171v81h-171zM598 600v-87h184v87h-184zM598 708
v-81h184v81h-184zM696 228q67 -14 127 -48q70 -40 70 -83q0 -15 -9 -23q-8 -7 -18 -7q-18 0 -37 24q-41 49 -67 71q-20 17 -73 53z" />
  </g>

</svg>
