<?xml version="1.0" standalone="no"?>
<!DOCTYPE svg PUBLIC "-//W3C//DTD SVG 1.1//EN" "http://www.w3.org/Graphics/SVG/1.1/DTD/svg11.dtd" >
<svg xmlns="http://www.w3.org/2000/svg" xmlns:xlink="http://www.w3.org/1999/xlink" version="1.1" viewBox="0 -410 2048 2048">
  <g transform="matrix(1 0 0 -1 0 1638)">
   <path fill="currentColor"
d="M661 819l107 -84h207l68 76l84 -54q41 -27 41 -49q0 -28 -75 -61v-359l28 -25q26 -23 26 -31q0 -23 -20 -23h-375v-47q0 -30 -55 -30q-54 0 -54 44q0 4 4 49q7 102 7 104v423q-24 -184 -84 -310q-60 -127 -167 -238l-27 23q89 129 130 238q81 218 81 769q0 163 -9 299
l113 -71h260l61 71l73 -49q42 -28 42 -50q0 -16 -67 -52v-298l33 -22q20 -13 20 -32q0 -20 -20 -20h-417q-7 -111 -15 -191zM679 1405v-340h290v340h-290zM752 263h248v415h-248v-415zM335 928q-46 -36 -61 -48q-74 -64 -91 -78v-32q0 -47 -19 -47q-20 0 -68 68l-54 70
q160 51 293 133q4 74 4 312q0 263 -8 516l112 -74h664q-12 18 -34 56q-31 55 -125 142l21 30q133 -62 177 -98q45 -36 45 -77q0 -26 -24 -53h562l106 113l142 -113q18 -14 18 -35q0 -22 -33 -22h-1527v-484q-6 -490 -61 -718q-58 -236 -232 -409l-31 27q137 182 181 412
q33 172 43 409zM83 1528q218 -145 218 -245q0 -60 -50 -60q-35 0 -64 84q-33 96 -128 191zM1477 515h-72q-108 0 -191 -8l-40 88q93 -24 231 -24h72v290h-100q-116 0 -192 -8l-39 88q99 -23 231 -23h35q-12 39 -29 124q-30 144 -120 297q-32 -3 -49 -4q-16 -2 -29 -5l-39 88
q93 -22 231 -22h122q-6 21 -9 31q-31 107 -108 195l27 28l33 -27q94 -72 117 -105q20 -28 20 -60q0 -37 -34 -62h180l90 96l106 -78q39 -28 39 -51q0 -24 -24 -24h-224l99 -46q33 -15 33 -35q0 -21 -29 -26l-46 -7q-64 -158 -144 -307h114l91 98l103 -87q27 -23 27 -41
q0 -27 -24 -27h-363v-290h152l94 92l106 -84q24 -18 24 -43q0 -21 -28 -21h-348v-144q0 -61 10 -181q4 -45 4 -62q0 -61 -64 -61q-46 0 -46 50v398zM1477 918h96q83 246 115 421h-367q90 -130 127 -200q49 -90 49 -157q0 -39 -20 -64z" />
  </g>

</svg>
