<?xml version="1.0" standalone="no"?>
<!DOCTYPE svg PUBLIC "-//W3C//DTD SVG 1.1//EN" "http://www.w3.org/Graphics/SVG/1.1/DTD/svg11.dtd" >
<svg xmlns="http://www.w3.org/2000/svg" xmlns:xlink="http://www.w3.org/1999/xlink" version="1.1" viewBox="0 -410 2048 2048">
  <g transform="matrix(1 0 0 -1 0 1638)">
   <path fill="currentColor"
d="M324 1571q83 150 136 357l113 -40q49 -17 49 -38q0 -22 -44 -30l-40 -6q-93 -160 -161 -243h252l69 76l84 -54q40 -26 40 -48q0 -28 -78 -62v-905q0 -96 13 -219q3 -32 3 -49q0 -47 -55 -47q-56 0 -56 42v81h-393v-76q0 -54 -56 -54q-51 0 -51 47q0 14 4 48q12 94 12 209
v965q-2 81 -15 133l114 -87h60zM256 1514v-473h393v473h-393zM649 442v541h-393v-541h393zM1340 386q174 223 345 509h-611q-101 0 -192 -9l-38 88q93 -22 230 -22h621l68 76l84 -54q49 -32 49 -52q0 -26 -91 -58q-67 -83 -100 -126q-148 -191 -330 -381q151 -130 151 -224
q0 -66 -51 -66q-18 0 -36 14q-19 15 -66 98q-91 162 -365 381l23 30q201 -117 309 -204zM1457 1262l80 81l114 -86q16 -12 16 -26q0 -26 -27 -26h-421q-67 0 -149 -11l-39 86q121 -18 188 -18h238zM1375 1843q100 -181 264 -344q155 -154 362 -237l-4 -37q-98 -2 -134 -54
q-86 51 -193 159q-179 183 -330 482q-97 -226 -214 -385q-124 -167 -320 -300l-25 33q373 307 485 790l122 -29q59 -14 59 -40q0 -24 -44 -32z" />
  </g>

</svg>
