<?xml version="1.0" standalone="no"?>
<!DOCTYPE svg PUBLIC "-//W3C//DTD SVG 1.1//EN" "http://www.w3.org/Graphics/SVG/1.1/DTD/svg11.dtd" >
<svg xmlns="http://www.w3.org/2000/svg" xmlns:xlink="http://www.w3.org/1999/xlink" version="1.1" viewBox="0 -120 1000 1000">
  <g transform="matrix(1 0 0 -1 0 880)">
   <path fill="currentColor"
d="M343 252l-11 26h269v273l81 -9q15 -2 15 -10q0 -7 -9 -11l-22 -10v-233h173l48 56l79 -65v-17h-300v-182l-65 -10v192h-258zM364 453l-10 25h140l29 37l53 -48v-14h-212zM361 377h133l31 37l51 -49v-14h-206zM417 523v354l67 -40h105q6 97 7 123l81 -17q15 -3 15 -11
q0 -7 -11 -12l-22 -10l-48 -73h176l26 40l67 -42q14 -9 14 -16q0 -8 -15 -11l-19 -5v-260l-64 -12v34h-318v-30zM478 690v-99h318v99h-318zM478 717h318v94h-318v-94zM710 451l-10 27h140l27 40l61 -51v-16h-218zM926 351h-210l-10 26h134l31 41l55 -51v-16zM72 117v696
l68 -37h17l15 175l80 -19q21 -4 21 -15q0 -10 -24 -17l-19 -5l-45 -119h64l20 37l62 -42q14 -9 14 -16q0 -9 -20 -14l-11 -3v-579l-58 -10v76h-124v-98zM132 252h124v247h-124v-247zM132 526h124v223h-124v-223z" />
  </g>

</svg>
