<?xml version="1.0" standalone="no"?>
<!DOCTYPE svg PUBLIC "-//W3C//DTD SVG 1.1//EN" "http://www.w3.org/Graphics/SVG/1.1/DTD/svg11.dtd" >
<svg xmlns="http://www.w3.org/2000/svg" xmlns:xlink="http://www.w3.org/1999/xlink" version="1.1" viewBox="0 -120 1000 1000">
  <g transform="matrix(1 0 0 -1 0 880)">
   <path fill="currentColor"
d="M69 139l-3 672l56 -35h25q10 78 13 178l84 -18q14 -3 14 -12t-10 -13l-24 -11l-52 -124h53l22 43l62 -41q13 -8 13 -16q0 -10 -14 -13l-19 -3v-550l-57 -9v39h-105v-75zM127 253h105v243h-105v-243zM125 748l1 -226h106l-1 226h-106zM962 121q-24 -9 -34 -20
q-9 -11 -19 -34q-152 26 -276 88q-167 -85 -386 -101l-2 15q225 47 341 122q-36 30 -53 56q-11 16 -27 49q-93 -74 -197 -129l-11 14q157 115 239 243l70 -22q11 -3 11 -10q0 -6 -10 -10l-23 -7l-22 -26h177l24 36l69 -45q13 -8 13 -16q0 -9 -14 -10l-20 -2
q-85 -82 -136 -126q106 -44 284 -50zM537 323l-14 -14q39 -64 97 -96q67 52 111 111zM401 659q-1 -41 -9 -65q-8 -25 -29 -38q-9 -6 -21 -6t-21 9q-8 9 -8 20q0 8 4 14q3 4 26 31q30 34 30 94v7h15l10 -40l318 1q42 72 83 161l75 -38q9 -4 9 -10q0 -8 -12 -10l-28 -2
l-105 -101l106 1l23 36l68 -46q18 -13 18 -24t-21 -13l-31 -2l-57 -46l-11 7l13 60h-445zM445 598v-17q0 -57 -14 -94q-12 -30 -33 -46q-15 -11 -27 -11q-11 0 -21 7q-8 7 -8 19q0 11 6.5 19t34.5 35q24 22 45 88h17zM360 857q346 47 486 85l52 -50q9 -9 9 -17q0 -9 -10 -8
q-2 0 -4 1l-38 9q-241 -31 -491 -37zM415 829q83 -39 83 -88q0 -22 -13 -34q-8 -7 -18 -7q-9 0 -14 6t-10 31q-7 42 -37 82zM772 553v-47q0 -20 27 -28q-8 -44 -70 -44h-190q-34 0 -45 9q-10 10 -10 42v130l73 -7q11 -1 11 -9q0 -7 -9 -10l-18 -7v-82q0 -9 5 -12q4 -2 28 -2
h122q25 0 33 6q4 4 11 21l16 40h16zM567 837q94 -39 94 -90q0 -20 -13 -32q-8 -8 -19 -8q-7 0 -13 5t-17 42q-7 22 -39 73zM584 637q34 -4 67 -21q47 -24 47 -60q0 -13 -9 -21q-8 -7 -18 -7q-14 0 -32 32q-14 25 -58 67zM762 615q40 -10 86 -41q68 -47 68 -85
q0 -14 -8.5 -24t-20.5 -10q-5 0 -10 3q-6 4 -22 32q-31 56 -99 112z" />
  </g>

</svg>
