<?xml version="1.0" standalone="no"?>
<!DOCTYPE svg PUBLIC "-//W3C//DTD SVG 1.1//EN" "http://www.w3.org/Graphics/SVG/1.1/DTD/svg11.dtd" >
<svg xmlns="http://www.w3.org/2000/svg" xmlns:xlink="http://www.w3.org/1999/xlink" version="1.1" viewBox="0 -120 1000 1000">
  <g transform="matrix(1 0 0 -1 0 880)">
   <path fill="currentColor"
d="M55 124h132v320l75 -34h464l22 38l67 -34q13 -7 13 -15q0 -9 -11 -14l-16 -7v-254h26l48 60l78 -64v-24h-883zM250 382v-258h119v258h-119zM429 124h125v258h-125v-258zM613 382v-258h127v258h-127zM465 726q-95 -71 -163 -111q-148 -84 -240 -109l-7 15q288 139 457 338
h-427l-14 28h716l50 61l88 -65v-24h-323l6 -7q5 -6 5 -13q0 -12 -18 -12h-21q-28 -30 -59 -56l27 -4q17 -2 17 -11t-13 -14l-15 -7v-291l-66 -13v295zM579 734q129 -24 247 -85q104 -54 104 -103q0 -15 -10 -23q-9 -8 -20 -8q-17 0 -49 35q-65 69 -277 169z" />
  </g>

</svg>
