<?xml version="1.0" standalone="no"?>
<!DOCTYPE svg PUBLIC "-//W3C//DTD SVG 1.1//EN" "http://www.w3.org/Graphics/SVG/1.1/DTD/svg11.dtd" >
<svg xmlns="http://www.w3.org/2000/svg" xmlns:xlink="http://www.w3.org/1999/xlink" version="1.1" viewBox="0 -200 1000 1000">
  <g transform="matrix(1 0 0 -1 0 800)">
   <path fill="currentColor"
d="M212 371l65 -33h439l42 41l62 -54l-33 -30v-275h48l65 47l61 -69h-817l-64 -21l-24 43h156v351zM609 20h128v296h-128v-296zM556 20v296h-120v-296h120zM382 20v296h-119v-296h119zM651 903l44 41l63 -54l-39 -24l-66 -93h131l40 47l71 -46l-36 -28q0 -100 -7.5 -163.5
t-27 -100.5t-52.5 -52t-84 -18q-1 9 -6 20t-16 22t-30.5 20t-49.5 14v4q38 -3 68.5 -10t59.5 -7h9q28 8 44.5 32t24.5 56t10 67.5t2 66.5v32t1 26h-152l-43 -25l-50 42l36 17q23 33 38 55.5t23 36.5h-320l55 -30q1 -1 1 -3q0 -3 -4 -8t-8.5 -10t-8.5 -10.5t-4 -8.5
q-11 -99 -40.5 -173t-71 -127.5t-91.5 -90t-102 -60.5l-18 -2q66 42 118.5 100.5t82.5 118.5q12 23 25 55.5t23.5 72.5t17.5 84.5t7 91.5h-89l-53 -14l-28 36h502zM608 711l33 26l50 -48l-35 -19q-19 -26 -38.5 -45.5t-39.5 -36.5q22 -11 43.5 -20t38 -17t26.5 -17t10 -21
q0 -9 -8 -12.5t-16 -3.5q-11 0 -24.5 6t-29 15.5t-32 20.5t-34.5 21q-48 -31 -108.5 -56.5t-145.5 -36.5l-18 -1q76 26 135.5 58.5t97.5 59.5q-28 15 -64.5 31t-81.5 32h14q42 -10 77.5 -21.5t74.5 -22.5q30 23 45.5 42.5t29.5 44.5l-173 1l-50 -15l-20 35h243z" />
  </g>

</svg>
