<?xml version="1.0" standalone="no"?>
<!DOCTYPE svg PUBLIC "-//W3C//DTD SVG 1.1//EN" "http://www.w3.org/Graphics/SVG/1.1/DTD/svg11.dtd" >
<svg xmlns="http://www.w3.org/2000/svg" xmlns:xlink="http://www.w3.org/1999/xlink" version="1.1" viewBox="0 -410 2048 2048">
  <g transform="matrix(1 0 0 -1 0 1638)">
   <path fill="currentColor"
d="M1652 846q-11 62 -49 88q-27 19 -171 48l3 43q51 -8 76 -12q103 -16 150 -16q52 0 52 57v175h-568q-50 -155 -108 -227q-71 -88 -200 -172l-20 30q106 106 141 156q114 167 114 513v243q0 48 -8 157l113 -75h525l69 75l84 -53q47 -29 47 -47q0 -14 -12 -25q-8 -8 -83 -43
v-760q0 -76 -66 -119q-24 -16 -89 -36zM1152 1285h561v248h-544v-38q0 -81 -17 -210zM1169 1591h544v205h-544v-205zM352 222v479q-4 71 -9 132l115 -83h1146l58 77l83 -54q47 -30 47 -47q0 -14 -12 -25q-8 -8 -70 -38v-441h29l102 105l133 -105q20 -15 20 -35
q0 -22 -33 -22h-1717q-69 0 -149 -11l-39 86q123 -18 188 -18h108zM446 222h322v471h-322v-471zM863 222h326v471h-326v-471zM1283 222h331v471h-331v-471zM218 1903l121 -65h377l61 72l72 -49q42 -29 42 -51q0 -16 -70 -56v-567q0 -39 7 -152q1 -6 1 -14q0 -73 -62 -73
q-39 0 -39 34v48h-409v-37q0 -42 -53 -42q-52 0 -52 35q0 11 3 56q8 91 8 145v577q0 18 -4 67zM319 1090h409v330h-409v-330zM319 1476h409v303h-409v-303z" />
  </g>

</svg>
