<?xml version="1.0" standalone="no"?>
<!DOCTYPE svg PUBLIC "-//W3C//DTD SVG 1.1//EN" "http://www.w3.org/Graphics/SVG/1.1/DTD/svg11.dtd" >
<svg xmlns="http://www.w3.org/2000/svg" xmlns:xlink="http://www.w3.org/1999/xlink" version="1.1" viewBox="0 -410 2048 2048">
  <g transform="matrix(1 0 0 -1 0 1638)">
   <path fill="currentColor"
d="M1704 544h39l106 113l141 -113q18 -14 18 -31q0 -24 -32 -24h-272v-149l3 -68l2 -40q9 -87 9 -97q0 -69 -63 -69q-46 0 -46 35v388h-661q-63 0 -148 -11l-39 86q125 -20 187 -20h77v1202h-20q-56 0 -150 -8l-41 84q38 -10 84 -12q27 -1 61 -4q33 -4 46 -4h702l100 112
l141 -112q19 -15 19 -34q0 -22 -33 -22h-230v-1202zM1609 544v380h-489v-380h489zM1609 1746h-489v-354h489v354zM1609 1335h-489v-357h489v357zM617 412h-359v-52q0 -54 -59 -54q-48 0 -48 43q0 5 4 75q1 6 1 48q1 19 3 58q3 54 3 82v1137q-4 72 -12 129l114 -83h337l68 76
l84 -54q47 -30 47 -47q0 -25 -86 -62v-1096l2 -64q3 -86 5 -116q3 -37 3 -56q0 -67 -63 -67q-20 0 -35 8q-9 6 -9 38v57zM617 1366v372h-359v-372h359zM617 1309h-359v-385h359v385zM617 867h-359v-398h359v398z" />
  </g>

</svg>
