<?xml version="1.0" standalone="no"?>
<!DOCTYPE svg PUBLIC "-//W3C//DTD SVG 1.1//EN" "http://www.w3.org/Graphics/SVG/1.1/DTD/svg11.dtd" >
<svg xmlns="http://www.w3.org/2000/svg" xmlns:xlink="http://www.w3.org/1999/xlink" version="1.1" viewBox="0 -140 1000 1000">
  <g transform="matrix(1 0 0 -1 0 860)">
   <path fill="currentColor"
d="M491 900l60 -47l-1 -16h-222v-74h76l36 43h13l56 -54v-11h-404v22h158v74h-216v23h216v83l99 -12v-13l-34 -17v-41h115l36 40h12zM923 494l-31 -7q-51 -144 -131 -247q91 -88 196 -127l-2 -11q-29 0 -43 -9t-27 -36q-72 43 -162 144q-86 -87 -204 -148l-10 11
q118 85 185 174q-46 67 -70 125t-46 153h-52v22h297l28 33h16l58 -64zM521 703l49 -57l-3 -15l-33 -3l-61 -51l-10 8l17 71h-350q-13 -83 -37 -110q-14 -17 -25 -17q-23 0 -23 40q0 25 21 40q29 21 39 42t9 62l16 3q3 -26 3 -38h352l21 25h15zM417 607l59 -56v-14h-345v22
h228l45 48h13zM442 483l56 -55v-13l-26 -19l1 -309l-9 -17l-45 -13l-8 8l-1 19h-235q-1 -15 -6 -27l-50 -11l-8 7v437l63 -31h231l24 24h13zM826 515h-219q42 -139 119 -236q71 104 100 236zM175 342h235v95h-235v-95zM175 226h235v93h-235v-93zM175 107h235v96h-235v-96z
M608 921l58 -25h105l29 28h12l50 -38v-14l-27 -20v-167q0 -29 26 -29q33 0 43 27l16 45l16 -3l-3 -69l26 -13v-13q-36 -24 -70 -26l-55 -1q-29 -1 -44 14.5t-15 48.5l-1 208h-105q0 -70 -5 -110.5t-32 -96t-82 -110.5l-11 8q39 59 54.5 118.5t15.5 152.5q0 62 -1 85z" />
  </g>

</svg>
