<?xml version="1.0" standalone="no"?>
<!DOCTYPE svg PUBLIC "-//W3C//DTD SVG 1.1//EN" "http://www.w3.org/Graphics/SVG/1.1/DTD/svg11.dtd" >
<svg xmlns="http://www.w3.org/2000/svg" xmlns:xlink="http://www.w3.org/1999/xlink" version="1.1" viewBox="0 -204 1024 1024">
  <g transform="matrix(1 0 0 -1 0 820)">
   <path fill="currentColor"
d="M174 910q39 -8 114 -8h460l38 36q36 -31 61 -62q5 -4 5 -10t-18 -10q-31 -2 -38 -2q-67 -57 -134 -102q-55 -39 -101 -61q4 -6 7 -12q16 -19 16 -37q0 -16 -5 -22h301l40 38q34 -32 59 -60q3 -8 3 -14t-16 -9q-31 -1 -38 -1q-56 -60 -112 -111q-51 -51 -96 -77l-8 8
q49 49 87 91q36 45 77 107h-296v-480q0 -34 -18 -50q-13 -16 -40 -27q-21 -11 -40 -11l-1 13q-3 16 -11 22q-11 11 -44 20q-35 12 -80 15v22q73 -14 128 -14q36 0 44 5q12 6 12 31v441q-32 -59 -73 -107q-51 -65 -116 -116q-53 -50 -126 -99q-71 -48 -173 -101l-10 22
q100 56 173 110q69 50 127 113q52 49 91 106q33 48 51 85h-314q-80 0 -98 -4l-16 40q39 -8 114 -8h380q-12 9 -20 26q-25 50 -54 80q-33 31 -86 66l6 12q80 -32 124 -67q26 -20 42 -35q52 38 93 72q46 41 97 98h-454q-80 0 -98 -2z" />
  </g>

</svg>
