<?xml version="1.0" standalone="no"?>
<!DOCTYPE svg PUBLIC "-//W3C//DTD SVG 1.1//EN" "http://www.w3.org/Graphics/SVG/1.1/DTD/svg11.dtd" >
<svg xmlns="http://www.w3.org/2000/svg" xmlns:xlink="http://www.w3.org/1999/xlink" version="1.1" viewBox="0 -410 2048 2048">
  <g transform="matrix(1 0 0 -1 0 1638)">
   <path fill="currentColor"
d="M1054 1561q-104 -233 -271 -401l-29 27q220 294 300 744l149 -54q28 -10 28 -28q0 -24 -36 -33l-56 -14q-28 -98 -61 -183h555l99 101l120 -106q17 -15 17 -26q0 -27 -27 -27h-430q1 -311 -40 -588h371l99 101l120 -107q17 -15 17 -25q0 -25 -27 -25h-590
q-55 -284 -193 -482q-108 -153 -256 -259q-67 -48 -187 -114l-21 39q226 140 351 311q151 208 204 505h-231q-117 0 -192 -8l-39 88q93 -24 231 -24h239q37 304 40 588h-254zM1408 739q209 -139 354 -291q180 -188 180 -277q0 -24 -16 -43q-17 -21 -43 -21q-45 0 -82 82
q-111 249 -415 523zM561 1840l69 76l83 -54q40 -25 40 -48q0 -27 -78 -62v-326l38 -34q23 -20 23 -39q0 -18 -17 -18h-421q-24 -163 -63 -383h343l67 80l84 -55q40 -26 40 -48q0 -28 -78 -61q-8 -85 -28 -227q-39 -351 -99 -449q-67 -107 -200 -125q-8 77 -72 107
q-8 4 -175 62l8 42q186 -55 262 -55q74 0 107 74q36 82 64 311q26 220 29 288h-352q-70 -20 -92 -20q-32 0 -32 31q0 12 21 79q35 109 57 296q16 124 15 173l119 -63h258v391h-223q-108 0 -192 -8l-38 87q93 -22 230 -22h203z" />
  </g>

</svg>
