<?xml version="1.0" standalone="no"?>
<!DOCTYPE svg PUBLIC "-//W3C//DTD SVG 1.1//EN" "http://www.w3.org/Graphics/SVG/1.1/DTD/svg11.dtd" >
<svg xmlns="http://www.w3.org/2000/svg" xmlns:xlink="http://www.w3.org/1999/xlink" version="1.1" viewBox="0 -204 1024 1024">
  <g transform="matrix(1 0 0 -1 0 820)">
   <path fill="currentColor"
d="M146 960q51 -16 86 -35q8 -6 8 -11q0 -9 -21 -12q-21 -4 -33 -4q-16 -64 -36 -120q-4 -7 -6 -14h166l44 50q36 -27 69 -51q7 -5 7 -11q0 -14 -10 -14h-154v-208h58l48 50q36 -25 66 -51q8 -5 8 -11q0 -18 -12 -18h-169q-2 -54 -9 -97q-1 -15 -4 -32q33 -23 57 -49
q32 -28 49 -47q19 -18 26 -33q7 -11 10 -22q4 -12 4 -24q-1 -32 -22 -32q-7 0 -12 7q-7 6 -25 48q-22 41 -44 72q-21 27 -49 59q-10 -38 -26 -73q-23 -64 -59 -112q-40 -54 -115 -111l-14 18q61 58 96 106q30 45 47 89q20 41 33 107q8 49 9 126h-71q-69 -1 -96 -4l-18 44
q43 -10 114 -10h72v208h-85q-12 -34 -25 -60q-24 -44 -58 -90l-14 14q25 51 45 96l29 87q14 46 23 88q8 41 13 87zM408 884q43 -12 114 -12h296l52 60q40 -28 75 -59q9 -4 9 -11q0 -18 -16 -18h-416q-69 -1 -96 -4zM470 716l60 -30h284l30 30q52 -30 52 -44q0 -10 -30 -26
v-231q12 -8 20 -14q6 -3 6 -7q0 -18 -8 -18h-51q28 -11 52 -21q7 -7 7 -13q0 -11 -21 -14q-21 -4 -31 -4q-16 -52 -32 -103q-17 -48 -38 -86q-14 -31 -37 -63h125l48 58q38 -29 73 -58q7 -5 7 -10q0 -16 -14 -16h-504q-72 -1 -96 -4l-22 44q44 -14 118 -14h106q-3 9 -7 41
q-4 46 -13 89q-10 44 -24 82q-9 33 -22 67q-15 -5 -26 -5q-12 0 -12 12v358zM605 72h105q19 43 33 81q14 37 25 79q11 43 19 80q8 31 12 64h-281v-4q23 -37 37 -77q22 -38 34 -75t17 -67q4 -25 4 -51q0 -17 -5 -30zM518 404h296l4 4v250h-300v-254z" />
  </g>

</svg>
