<?xml version="1.0" standalone="no"?>
<!DOCTYPE svg PUBLIC "-//W3C//DTD SVG 1.1//EN" "http://www.w3.org/Graphics/SVG/1.1/DTD/svg11.dtd" >
<svg xmlns="http://www.w3.org/2000/svg" xmlns:xlink="http://www.w3.org/1999/xlink" version="1.1" viewBox="0 -204 1024 1024">
  <g transform="matrix(1 0 0 -1 0 820)">
   <path fill="currentColor"
d="M152 946q49 -19 85 -35q7 -7 7 -13q0 -11 -21 -14q-21 -4 -33 -4q-17 -57 -38 -111q-1 -2 -1 -5h145l40 40q30 -20 55 -42q7 -4 7 -10q0 -14 -12 -14h-130v-114q0 -67 -5 -124h51l44 44q34 -22 62 -46q8 -4 8 -10q0 -14 -14 -14h-153q-1 -14 -3 -26q-3 -22 -7 -45
q31 -29 56 -55q31 -33 47 -59q18 -21 28 -38q6 -15 10 -27q4 -14 4 -28q-1 -32 -26 -32q-6 0 -12 8q-5 7 -23 56q-22 47 -44 87q-20 30 -47 62q-9 -42 -20 -77q-25 -79 -57 -136q-38 -64 -109 -136l-18 22q57 66 90 126q26 54 46 106q15 50 29 131q4 29 6 61h-57
q-69 -1 -96 -4l-18 44q43 -14 114 -14h59q3 58 3 124v114h-67q-15 -35 -32 -62q-23 -41 -59 -84l-14 14q27 48 48 90q15 37 32 83q15 45 24 85q9 37 16 82zM372 888q39 -8 110 -8h60l-12 80q44 -3 78 -10q12 -3 12 -8q0 -7 -14 -14q-11 -8 -22 -12l14 -116q0 -10 -8 -13
q-11 -5 -24 -5q-10 0 -12 6l-8 66h-64q-79 0 -96 -6zM896 916q32 -21 59 -44q9 -5 9 -10q0 -18 -14 -18h-188q-3 -21 -6 -48q-4 -14 -30 -14q-18 0 -18 10v9q3 10 5 25q12 81 13 132q43 -4 80 -19q4 -5 4 -11q0 -8 -14 -13q-16 -3 -28 -5q-1 -21 -3 -38h89zM486 792
q42 -17 70 -38q6 -4 6 -10q0 -4 -8 -8q-16 -5 -32 -6l-14 -28h184q-4 5 -9 15q-9 21 -21 35q-14 18 -34 36l12 16q23 -11 40 -22q17 -12 29 -21q10 -8 15 -14q2 -3 4 -8q2 -4 2 -9q-1 -22 -7 -28h113l44 42q30 -23 59 -44q7 -5 7 -10q0 -18 -10 -18h-216v-66h94l40 40
q32 -23 57 -43q9 -4 9 -11q0 -16 -14 -16h-186v-72h98l40 40q32 -20 57 -42q9 -4 9 -10q0 -14 -14 -14h-190v-80h142l44 44q32 -25 62 -46q8 -5 8 -10q0 -18 -12 -18h-456v-10q0 -17 -38 -22q-10 0 -10 18v282l-1 -1q-18 -19 -40 -43q-23 -19 -47 -38l-14 12q29 32 51 59
q18 30 35 60q19 31 28 59q10 27 14 48zM508 398h164v80h-164v-80zM508 504h164v72h-164v-72zM672 606v66h-164v-66h164zM424 310q39 -8 112 -8h286l36 30q30 -13 50 -34q6 -10 6 -18q0 -9 -15 -15q-18 -5 -33 -7q-56 -69 -125 -114q-6 -4 -11 -6q51 -17 110 -28
q70 -12 150 -12v-26q-43 -4 -58 -44q-96 20 -161 40q-48 19 -92 40q-44 -20 -93 -37q-92 -29 -228 -43l-12 26q139 14 214 43q41 13 79 33q-50 27 -91 62q-41 32 -81 81q-22 -1 -29 -3zM495 274q35 -37 79 -64q48 -29 109 -57q7 4 14 9q60 40 117 112h-319z" />
  </g>

</svg>
