<?xml version="1.0" standalone="no"?>
<!DOCTYPE svg PUBLIC "-//W3C//DTD SVG 1.1//EN" "http://www.w3.org/Graphics/SVG/1.1/DTD/svg11.dtd" >
<svg xmlns="http://www.w3.org/2000/svg" xmlns:xlink="http://www.w3.org/1999/xlink" version="1.1" viewBox="0 -120 1000 1000">
  <g transform="matrix(1 0 0 -1 0 880)">
   <path fill="currentColor"
d="M37 368q88 153 123 283q29 100 42 204h-145l-14 28h304l39 54l72 -62v-20h-190q-10 -47 -13 -62q-17 -80 -33 -126q-7 -21 -20 -56h120l22 39l64 -46q14 -9 14 -15t-11 -11l-20 -9v-369l-64 -10v44h-118v-116l-62 -9v381q-6 -9 -49 -76q-10 -17 -45 -56zM209 262h118v321
h-118v-321zM327 72q46 15 106 52q72 44 107 95q45 66 62 183l68 -16q19 -5 19 -14q0 -10 -17 -12l-14 -1q-18 -77 -45 -124q-48 -89 -166 -144q-34 -15 -111 -41zM553 360l-62 -10v604l75 -47h247l30 43l60 -39q16 -10 16 -17t-13 -13l-17 -8v-488l-62 -10v33h-39v-258
q0 -16 5 -18q5 -3 13 -3h41q20 0 26 7q8 7 18 51l22 103h21l-6 -81q-1 -13 -1 -17q0 -27 4 -38q6 -14 30 -23q-8 -61 -77 -59h-96q-43 1 -55 24q-8 15 -8 44v268h-172v-48zM553 576v-140h274v140h-274zM553 604h274v122h-274v-122zM553 754h274v125h-274v-125z" />
  </g>

</svg>
