<?xml version="1.0" standalone="no"?>
<!DOCTYPE svg PUBLIC "-//W3C//DTD SVG 1.1//EN" "http://www.w3.org/Graphics/SVG/1.1/DTD/svg11.dtd" >
<svg xmlns="http://www.w3.org/2000/svg" xmlns:xlink="http://www.w3.org/1999/xlink" version="1.1" viewBox="0 -204 1024 1024">
  <g transform="matrix(1 0 0 -1 0 820)">
   <path fill="currentColor"
d="M40 914q44 -12 117 -12h87l41 45q34 -25 64 -49q7 -4 7 -10q0 -14 -14 -14h-127q-13 -75 -29 -133q-18 -69 -40 -125q-1 -4 -3 -8l30 -14h91l35 33q51 -36 51 -50q0 -10 -30 -25v-311l23 -18q5 -3 5 -7q0 -14 -10 -14h-178v-28q0 -10 -12 -16q-15 -6 -25 -6q-13 0 -13 14
q0 4 1 14q1 23 1 42v313q-6 -13 -11 -25q-25 -50 -61 -106l-12 16q31 62 52 121q21 54 38 121q16 54 28 116q10 52 16 96h-5q-71 -2 -97 -7zM160 230h112v336h-112v-336zM412 874q44 -12 117 -12h107v26q0 54 -6 80q59 -7 97 -23q13 -4 13 -14t-13 -13q-19 -10 -43 -12v-44
h156l41 45q34 -25 64 -49q7 -4 7 -10q0 -14 -14 -14h-254v-84h112l41 45q34 -25 64 -49q7 -4 7 -10q0 -14 -14 -14h-210v-92h180l43 47q35 -26 65 -50q8 -5 8 -11q0 -14 -14 -14h-489q-71 -2 -97 -7l-20 47q44 -12 117 -12h159v92h-71q-71 -2 -97 -7l-20 47q44 -12 117 -12
h71v84h-107q-71 -2 -97 -7zM472 562l61 -36h277l32 33q33 -16 53 -36q8 -9 8 -17q0 -15 -40 -29q0 -60 -3 -125h12l43 47q35 -26 65 -50q8 -5 8 -11q0 -14 -14 -14h-116q-2 -38 -5 -76q-4 -43 -8 -74h11l41 45q34 -25 64 -49q7 -4 7 -10q0 -14 -14 -14h-113q-7 -41 -15 -62
q-8 -25 -21 -37q-9 -9 -24 -16q-22 -11 -49 -11q-1 13 -5 20q-2 7 -10 12q-17 10 -57 24l6 24q77 -18 89 -18q11 0 19 6q7 7 12 20q5 12 9 38h-355q-24 0 -24 11q0 6 3 13q2 6 10 38q11 51 20 115q-49 -2 -69 -6l-20 47q36 -10 92 -11l13 106q6 59 7 103zM800 174
q6 41 10 110l2 40h-311q-8 -60 -20 -123q-2 -18 -4 -27h323zM505 352h308q2 68 2 146h-297q-7 -90 -13 -146zM592 466q34 -6 68 -16t51 -17q18 -8 24 -13l11 -11q2 -4 2 -9q0 -22 -20 -22q-4 0 -9 3q-6 3 -14 9q-14 9 -25 15q-15 7 -37 16q-22 11 -63 25zM576 302
q32 -8 63 -21t47 -23t22 -16q6 -8 10 -15q2 -5 2 -11q0 -22 -20 -22q-3 0 -8 4q-6 4 -13 11q-13 12 -24 20q-13 10 -33 21q-21 13 -58 32z" />
  </g>

</svg>
