<?xml version="1.0" standalone="no"?>
<!DOCTYPE svg PUBLIC "-//W3C//DTD SVG 1.1//EN" "http://www.w3.org/Graphics/SVG/1.1/DTD/svg11.dtd" >
<svg xmlns="http://www.w3.org/2000/svg" xmlns:xlink="http://www.w3.org/1999/xlink" version="1.1" viewBox="0 -204 1024 1024">
  <g transform="matrix(1 0 0 -1 0 820)">
   <path fill="currentColor"
d="M36 874q44 -11 117 -11h131l44 49q36 -28 67 -52q8 -5 8 -12q0 -14 -15 -14h-149q-16 -71 -33 -125q-22 -63 -46 -117q-7 -15 -16 -29l13 -8h114l35 32q51 -36 51 -50q0 -9 -29 -24v-338q12 -12 22 -20q5 -3 5 -7q0 -13 -10 -13h-189v-8q0 -13 2 -19q2 -11 2 -26
q0 -17 -37 -21q-18 0 -18 13q0 20 3 32v384q-28 -46 -68 -97l-12 15q34 58 60 115q26 51 45 112q20 52 34 110q10 48 17 89h-31q-71 -2 -98 -6zM156 162h124v365h-124v-365zM588 964q92 -19 92 -37q0 -13 -50 -17q-24 -26 -52 -47h299l29 28q51 -35 51 -50q0 -10 -29 -24
v-291q0 -24 1 -31t1 -15q0 -22 -34 -28q-16 0 -16 10v25h-393v-12q0 -11 -12 -17q-14 -6 -24 -6q-14 0 -14 14q0 5 1 15q1 22 1 42v302q0 48 -2 67l64 -29h42q20 21 30 44q9 22 15 57zM487 515h393v315l-1 4h-392v-319zM759 800q46 -9 78 -21q7 -3 7 -10q0 -9 -17 -12
q-18 -5 -34 -5q-15 -26 -30 -48q-12 -14 -29 -30q10 -8 19 -14q24 -18 46 -41q7 -7 13 -20q6 -11 8 -22q4 -8 4 -20q0 -25 -16 -25q-2 0 -8 7q-10 17 -32 41q-18 26 -53 59q-6 5 -9 8q-24 -21 -43 -35q-26 -21 -56 -37q-30 -19 -66 -35l-18 21q42 19 74 43q30 22 58 49
q13 9 21 19q-22 18 -41 31q-48 39 -91 57l16 21q61 -29 109 -62q16 -11 30 -19q6 3 9 6q19 26 31 47q13 22 20 47zM426 441q45 -9 75 -19q11 -4 11 -11q0 -5 -7 -8q-11 -6 -26 -10v-86h88l41 45q34 -26 65 -49q7 -4 7 -11q0 -14 -14 -14h-187v-168q16 3 28 6q36 8 79 23
q42 11 97 34l4 -23q-42 -27 -74 -43q-33 -16 -65 -30q-30 -14 -62 -22q-11 -37 -17 -37q-8 0 -49 84q7 1 11 2v256q0 53 -5 81zM699 441q57 -12 93 -31q7 -4 7 -11q0 -6 -12 -11q-16 -9 -35 -14v-63h84l41 45q33 -26 63 -49q7 -4 7 -12q0 -13 -13 -13h-182v-149q0 -24 4 -30
q8 -13 24 -16q22 -2 57 -2q42 0 58 3q15 3 23 17q10 24 20 103l17 -5v-74q0 -17 14 -27q22 -15 22 -26t-10 -15q-12 -8 -45 -12q-40 -10 -106 -10q-43 0 -77 6q-28 2 -39 17q-9 13 -9 43v267q0 35 -6 69z" />
  </g>

</svg>
