<?xml version="1.0" standalone="no"?>
<!DOCTYPE svg PUBLIC "-//W3C//DTD SVG 1.1//EN" "http://www.w3.org/Graphics/SVG/1.1/DTD/svg11.dtd" >
<svg xmlns="http://www.w3.org/2000/svg" xmlns:xlink="http://www.w3.org/1999/xlink" version="1.1" viewBox="0 -200 1001 1000">
  <g transform="matrix(1 0 0 -1 0 800)">
   <path fill="currentColor"
d="M846 286l37 43l58 -55l-31 -37v-173h-259v-64q-10 -10 -24.5 -20.5t-31.5 -10.5v239q-20 -22 -44.5 -47.5t-59.5 -50.5l-2 11q36 44 61.5 82.5t46 74t37.5 69.5t36 70h-92l-49 -14l-12 15h-236l52 -39l-28 -16l-41 -63l4 -17h150l31 37l64 -51l-34 -40v-169h-219v-59
q-11 -11 -26.5 -18t-29.5 -9v236q-13 -17 -30 -38t-37 -41t-43 -36.5t-47 -23.5l-5 6q36 31 70.5 75.5t63 92.5t49.5 94t31 79h-83l-41 -11l-19 33h305l48 48l49 -48h330l48 48l63 -71h-241l29 -34l-38 -25q-7 -9 -14.5 -20t-14 -21t-11 -18.5t-6.5 -12.5h186zM724 912
l50 44l66 -68h-385l55 -39l-33 -21q-8 -13 -15.5 -20.5t-17.5 -19.5l30 -16h196l38 42l64 -63l-34 -31v-173h-283l-1 -39q-14 -15 -25.5 -17.5t-22.5 -2.5h-8v248q-21 -20 -46.5 -44.5t-56 -49t-65.5 -47t-75 -38.5l-11 3q57 45 106 93t86.5 92t62.5 81.5t35 61.5h-118
l-61 -13l-23 37h492zM455 573h225v174h-210l-15 -15v-159zM651 89h202v174h-200l-2 -15v-159zM260 252v-169h163v175h-148z" />
  </g>

</svg>
