<?xml version="1.0" standalone="no"?>
<!DOCTYPE svg PUBLIC "-//W3C//DTD SVG 1.1//EN" "http://www.w3.org/Graphics/SVG/1.1/DTD/svg11.dtd" >
<svg xmlns="http://www.w3.org/2000/svg" xmlns:xlink="http://www.w3.org/1999/xlink" version="1.1" viewBox="0 -120 1000 1000">
  <g transform="matrix(1 0 0 -1 0 880)">
   <path fill="currentColor"
d="M33 343q65 101 100 211q45 139 54 272h-135l-10 25h269l44 52l72 -59v-18h-169q-16 -84 -30 -135q-18 -65 -50 -142h116l21 42l59 -38q12 -8 12 -18q0 -9 -14 -13l-15 -4v-364l-60 -14v65l-109 -1v-112l-57 -14v373q-49 -80 -84 -120zM189 524v-296l108 1v296zM359 79
l-8 25h81v272l56 -24h301l21 37l62 -41q13 -8 13 -14q0 -8 -14 -11l-16 -4v-215h22l35 56l54 -61v-20h-607zM486 328v-224h73v224h-73zM612 328l2 -224h60v224h-62zM729 104h65l-1 224h-65zM380 624l-10 27h243v126h-195l-10 25h205v139l76 -8q18 -2 18 -12q0 -7 -13 -12
l-19 -8v-99h114l39 49l70 -55v-19h-223v-126h151l42 55l76 -60v-20h-271l-116 -154l251 8q-36 35 -58 51q-37 24 -48 32l7 13q95 -29 155 -76q53 -41 53 -82q0 -27 -25 -27q-15 0 -26 17q-26 37 -38 51l-377 -51l-8 -9q-5 -7 -12 -7q-4 0 -7 10l-22 67l129 2l59 153h-210z
" />
  </g>

</svg>
