<?xml version="1.0" standalone="no"?>
<!DOCTYPE svg PUBLIC "-//W3C//DTD SVG 1.1//EN" "http://www.w3.org/Graphics/SVG/1.1/DTD/svg11.dtd" >
<svg xmlns="http://www.w3.org/2000/svg" xmlns:xlink="http://www.w3.org/1999/xlink" version="1.1" viewBox="0 -410 2048 2048">
  <g transform="matrix(1 0 0 -1 0 1638)">
   <path fill="currentColor"
d="M934 1478q-9 -145 -28 -227q-32 -140 -126 -269l-32 23q60 138 78 269q19 142 19 339v121l-2 60q-2 98 -6 139l123 -94h758l97 98l127 -98q19 -14 19 -33q0 -25 -27 -25h-996v-110q105 -16 172 -16h514l94 95l108 -84q32 -25 32 -41q0 -27 -26 -27h-722q-67 0 -150 -11
l-22 51v-34q0 -21 -4 -101q84 -19 176 -19h640l93 95l108 -83q34 -26 34 -43q0 -25 -29 -25h-779v-262q137 26 277 72l12 -35q-5 -2 -285 -137l-8 -37q-6 -32 -24 -32t-29 28l-49 123l12 3v277q-69 0 -123 -11zM1802 1300l-69 -26l-84 -30q83 -46 141 -65q64 -21 194 -41
v-42h-21q-84 0 -113 -69q-287 119 -419 377l35 12q21 -23 31 -36q56 -64 107 -102q90 56 166 138l104 -76q16 -11 16 -27q0 -23 -32 -23q-7 0 -18 2zM982 1020l113 -75h610l69 75l83 -53q41 -26 41 -48q0 -25 -75 -62v-596q0 -140 -155 -170q-11 69 -42.5 91t-144.5 41l8 46
q150 -23 182 -23q57 0 57 57v268q-159 -83 -537 -201l-9 -38q-8 -30 -27 -30t-53 68l-35 69q-36 -139 -86 -212q-48 -69 -153 -153l-24 26q105 122 141 230q44 132 44 356v204q0 12 -6 96q0 11 -1 34zM1069 459q174 23 341 63q207 50 318 91v277h-645v-86q312 -26 437 -59
q111 -28 111 -92q0 -47 -44 -47q-24 0 -65 19q-168 81 -439 128v-91q0 -77 -14 -203zM281 1210l60 -38h217l68 76l84 -54q41 -26 41 -48q0 -28 -78 -62v-703l32 -23q22 -14 22 -29q0 -22 -28 -22h-384l3 -51l1 -2q6 -38 -59 -38q-49 0 -49 46l12 204v596q-62 -150 -151 -279
l-29 17q15 34 23 51q107 238 172 508q7 30 66 364h-63q-69 0 -149 -11l-39 86q126 -18 188 -18h294l96 100l117 -91q32 -25 32 -40q0 -26 -28 -26h-342q-53 -285 -129 -513zM315 365h263v751h-263v-751z" />
  </g>

</svg>
