<?xml version="1.0" standalone="no"?>
<!DOCTYPE svg PUBLIC "-//W3C//DTD SVG 1.1//EN" "http://www.w3.org/Graphics/SVG/1.1/DTD/svg11.dtd" >
<svg xmlns="http://www.w3.org/2000/svg" xmlns:xlink="http://www.w3.org/1999/xlink" version="1.1" viewBox="0 -204 1024 1024">
  <g transform="matrix(1 0 0 -1 0 820)">
   <path fill="currentColor"
d="M32 890q44 -12 118 -12h125l43 49q37 -26 69 -52q8 -4 8 -10q0 -15 -14 -15h-164q-7 -55 -16 -98q-12 -47 -27 -97q-9 -35 -21 -67l16 -10h115l34 34q52 -37 52 -50q0 -11 -30 -26v-323q14 -13 27 -22q5 -2 5 -6q0 -14 -11 -14h-193v-25q0 -11 2 -17q1 -13 1 -26
q0 -17 -37 -23q-15 0 -15 15q0 18 1 32v386q-11 -25 -23 -47q-21 -36 -56 -81l-13 20q28 43 49 89q19 47 38 109q19 64 32 133q11 58 17 114h-14q-72 -2 -99 -7zM168 198h124v352h-124v-352zM634 957q46 -9 75 -18q11 -5 11 -12q0 -5 -7 -9q-12 -5 -26 -9v-166h169
q3 20 3 35v40q0 50 -6 74q48 -8 81 -17q10 -3 10 -10q0 -6 -8 -9q-12 -8 -29 -12v-62q0 -24 1 -31q1 -16 1 -29q0 -33 -30 -33q-26 0 -26 17v8h-392q-6 -2 -15 -2q-25 0 -25 19q0 13 4 32q2 23 2 38v17q0 50 -5 74q47 -8 80 -17q10 -3 10 -10q0 -6 -8 -9q-12 -8 -29 -12v-39
q0 -22 1 -29q1 -18 1 -30v-3h163v133q0 53 -6 81zM637 704q49 -9 85 -22q7 -5 7 -13t-17 -11q-20 -5 -35 -5q28 -30 59 -53q36 -26 81 -50q46 -21 91 -37q44 -16 83 -22l-3 -18q-51 0 -69 -32q-43 14 -77 35q-39 21 -68 46q-32 23 -61 51q-27 25 -55 56q-10 -14 -20 -26
q-26 -27 -55 -52q-34 -25 -64 -45q-31 -20 -65 -37q-37 -22 -79 -36l-20 21q52 22 88 45q35 24 70 51q36 29 61 57q25 25 39 49q15 21 24 48zM500 490q44 -11 116 -11h96l33 36q30 -22 57 -41q6 -4 6 -10q0 -14 -12 -14h-180q-70 -2 -97 -6zM418 401l62 -31h380l26 33
q57 -39 57 -52q0 -14 -28 -22v-235q0 -19 -10 -32q-9 -15 -25 -25q-19 -11 -40 -17q0 29 -5 40q-5 8 -13 12q-16 13 -39 20v19q31 -19 57 -19q16 0 21 7q6 5 6 20v87h-101v-92q0 -20 1 -28v-26q0 -32 -28 -32q-24 0 -24 17q0 18 3 50q4 32 4 54v57h-109v-92q0 -20 1 -28v-26
q0 -32 -26 -32t-26 17q0 18 3 50q4 32 4 54v57h-101v-172q0 -10 -12 -15q-16 -6 -26 -6q-12 0 -12 13q0 4 1 13q1 24 1 43v250q0 51 -2 69zM468 234h101v109h-101v-109zM613 343v-109h109v109h-109zM766 343v-109h101v109h-101z" />
  </g>

</svg>
