<?xml version="1.0" standalone="no"?>
<!DOCTYPE svg PUBLIC "-//W3C//DTD SVG 1.1//EN" "http://www.w3.org/Graphics/SVG/1.1/DTD/svg11.dtd" >
<svg xmlns="http://www.w3.org/2000/svg" xmlns:xlink="http://www.w3.org/1999/xlink" version="1.1" viewBox="0 -204 1024 1024">
  <g transform="matrix(1 0 0 -1 0 820)">
   <path fill="currentColor"
d="M44 882q44 -12 117 -12h143l43 47q35 -26 65 -50q8 -5 8 -11q0 -14 -14 -14h-167q-15 -75 -34 -133q-20 -69 -45 -125q-2 -4 -3 -7l32 -15h107l35 32q51 -35 51 -49q0 -10 -30 -25v-316q14 -9 23 -17q5 -3 5 -7q0 -14 -10 -14h-194v-28q0 -10 -12 -16q-14 -6 -25 -6
q-13 0 -13 14q0 4 1 14q1 23 1 42v329q-9 -20 -18 -37q-28 -50 -69 -106l-13 18q35 62 59 120q24 54 43 121q18 54 31 116q12 51 19 95h-19q-71 -2 -98 -7zM176 194h128v340h-128v-340zM489 940q30 -20 54 -41q26 -19 42 -36q17 -18 23 -32q6 -12 6 -25q0 -19 -5 -30
q-9 -12 -21 -12q-8 0 -13 5q-7 4 -11 23q-7 24 -21 47q-12 23 -29 43q-15 21 -42 45zM809 952q52 -18 90 -35q6 -7 6 -13q0 -10 -19 -15q-22 -4 -32 -4q-13 -25 -29 -49q-16 -22 -34 -40t-45 -36l-18 12q18 25 33 48q11 20 21 43q10 24 18 45q6 20 9 44zM422 772l63 -30h403
l35 33q51 -36 51 -50q0 -10 -30 -25v-190q0 -24 1 -31q1 -8 1 -16q0 -21 -34 -27q-16 0 -16 10v24h-424v-12q0 -10 -12 -16q-15 -6 -25 -6q-13 0 -13 14q0 4 1 14q1 23 1 42v198q0 49 -2 68zM472 498h184v216h-184v-216zM705 498h191v216h-191v-216zM528 672q19 -16 35 -32
q16 -15 26 -29q11 -14 15 -24t4 -20q0 -18 -5 -27q-8 -12 -19 -12q-5 0 -9 4q-3 3 -6 19q-4 19 -13 38q-8 18 -18 35q-9 16 -26 36zM791 681q45 -14 81 -31q6 -5 6 -10q0 -10 -12 -14q-21 -6 -38 -6q-7 -14 -15 -27t-18 -27q-9 -12 -19 -22q-8 -10 -23 -20l-17 13
q12 16 20 33q10 20 18 42t13 44q3 12 4 25zM482 412l63 -30h283l35 33q51 -36 51 -50q0 -10 -30 -25v-239q0 -23 1 -30q1 -8 1 -16q0 -21 -34 -27q-16 0 -16 10v32h-304v-20q0 -11 -12 -16q-15 -6 -25 -6q-13 0 -13 14q0 4 1 14q1 23 1 42v246q0 49 -2 68zM532 98h304v256
h-304v-112h158l40 43q34 -24 62 -48q6 -6 6 -9q0 -6 -5 -9q-3 -5 -9 -5h-252v-116z" />
  </g>

</svg>
