<?xml version="1.0" standalone="no"?>
<!DOCTYPE svg PUBLIC "-//W3C//DTD SVG 1.1//EN" "http://www.w3.org/Graphics/SVG/1.1/DTD/svg11.dtd" >
<svg xmlns="http://www.w3.org/2000/svg" xmlns:xlink="http://www.w3.org/1999/xlink" version="1.1" viewBox="0 -204 1024 1024">
  <g transform="matrix(1 0 0 -1 0 820)">
   <path fill="currentColor"
d="M32 866q43 -12 114 -12h128l44 44q32 -25 62 -48q6 -4 6 -10q0 -14 -10 -14h-175q-13 -66 -28 -117q-14 -59 -36 -110q-4 -14 -9 -24l36 -17h88l28 30q52 -30 52 -44q0 -10 -30 -26v-288l28 -22q6 -4 6 -8q0 -14 -8 -14h-176v-52q0 -11 -14 -16q-13 -6 -22 -6
q-14 0 -14 12v392q-3 -9 -5 -13q-21 -44 -55 -95l-10 18q25 55 45 106q18 48 34 108q14 49 23 104q8 43 16 82h-4q-69 -1 -96 -4zM152 214h104v316h-104v-316zM426 914q44 -12 118 -12h256l44 48q36 -27 66 -49q10 -5 10 -13q0 -16 -14 -16h-224v-68h220l30 32
q33 -21 59 -49q3 -2 3 -5q0 -8 -17 -13q-15 -5 -31 -9q-7 -11 -17 -22q-10 -13 -23 -26l-14 14q4 14 6 26q3 15 4 26h-220v-110q0 -21 2 -29q2 -19 2 -29q0 -34 -32 -34q-22 0 -22 16q0 23 2 56q2 35 2 60v70h-210q0 -23 -3 -41q-4 -30 -12 -49q-8 -18 -18 -29
q-8 -10 -15 -13q-8 -4 -14 -4q-24 0 -24 16q0 7 9 19q28 31 38 54q12 19 20 47q7 24 9 66h10v-40h210v68h-92q-72 0 -98 -2zM464 744q45 0 76 -5t48 -12q17 -8 21 -16q5 -4 5 -9q0 -20 -16 -20q-2 0 -11 3q-33 15 -69 25q-34 11 -58 16zM614 658v-22q-25 -12 -55 -20
q-29 -10 -49 -15q-13 -4 -24 -9q-10 -30 -16 -30q-4 0 -32 70q11 0 36 2q29 2 67 10q37 5 73 14zM844 702q-20 -4 -42 -7t-41 -5q-22 -2 -41 -4l-8 12q21 6 39 13q17 7 29 17q16 7 26 15q10 6 16 13q66 -37 66 -48q0 -10 -18 -10q-10 0 -26 4zM716 654q52 -3 90 -11
q39 -8 56 -18q22 -9 28 -19q6 -7 6 -18q0 -18 -16 -18q-4 0 -16 4q-40 23 -82 39q-40 14 -70 19zM496 562q47 -16 85 -33q7 -6 7 -11q0 -11 -15 -15q-22 -7 -43 -7q-8 -18 -17 -36h182l-2 6q-3 16 -10 29q-5 16 -13 28q-8 11 -24 25l18 14q17 -12 29 -22q17 -9 26 -17
q8 -9 12 -18q3 -6 3 -13q0 -18 -6 -31q0 -1 -1 -1h99l44 44q32 -22 62 -46q6 -4 6 -10q0 -14 -10 -14h-208v-84h90l42 40q30 -23 55 -43q7 -4 7 -11q0 -16 -12 -16h-182v-90h84l44 44q32 -25 59 -46q7 -5 7 -10q0 -18 -12 -18h-182v-98h138l44 44q34 -25 62 -46q8 -5 8 -10
q0 -18 -14 -18h-446v-36q0 -17 -38 -18q-10 0 -10 14v347q-7 -11 -13 -19q-23 -31 -48 -55q-20 -26 -57 -53l-14 14q35 32 58 68q30 40 53 85q26 47 41 94q9 22 12 49zM512 102h160v98h-160v-98zM672 230v90h-160v-90h160zM672 350v84h-160v-84h160z" />
  </g>

</svg>
