<?xml version="1.0" standalone="no"?>
<!DOCTYPE svg PUBLIC "-//W3C//DTD SVG 1.1//EN" "http://www.w3.org/Graphics/SVG/1.1/DTD/svg11.dtd" >
<svg xmlns="http://www.w3.org/2000/svg" xmlns:xlink="http://www.w3.org/1999/xlink" version="1.1" viewBox="0 -204 1024 1024">
  <g transform="matrix(1 0 0 -1 0 820)">
   <path fill="currentColor"
d="M32 880q43 -10 114 -10h128l44 46q34 -25 66 -47q6 -5 6 -11q0 -18 -10 -18h-171q-13 -76 -30 -135q-16 -69 -39 -128q-1 -3 -2 -4l36 -19h100l28 30q52 -30 52 -44q0 -9 -26 -26v-324q12 -9 21 -17q5 -3 5 -9q0 -16 -8 -16h-182v-44q0 -7 -12 -13q-17 -5 -24 -5
q-12 0 -12 12v413q-8 -22 -19 -41q-23 -51 -57 -110l-12 16q27 66 49 124q18 58 36 124q15 58 24 120q9 52 17 96h-8q-69 -1 -96 -4zM164 178h116v348h-116v-348zM434 916q44 -10 118 -10h258l44 48q38 -27 69 -49q9 -5 9 -13q0 -16 -12 -16h-238v-66h216l30 30
q33 -21 59 -50q3 -2 3 -4q0 -8 -17 -13q-17 -3 -31 -9q-5 -12 -15 -24q-9 -15 -21 -28l-14 14q3 15 4 28q1 15 2 28h-216v-202q0 -15 -36 -18q-10 0 -10 14v206h-199q-1 -18 -3 -31q-3 -24 -8 -43q-5 -12 -13 -22q-7 -11 -16 -14q-6 -4 -11 -4q-22 0 -22 18q0 7 9 16
q21 28 30 45q12 17 18 40q5 23 5 57h12v-34h198v66h-84q-72 -1 -96 -4zM460 744q42 0 70 -5q32 -5 48 -12q17 -8 20 -16q4 -4 4 -9q0 -20 -14 -20q-4 0 -14 3q-29 15 -62 25q-33 11 -56 16zM598 654v-22q-27 -10 -55 -16q-31 -8 -54 -13q-13 -3 -21 -5q-10 -32 -16 -32
q-8 0 -32 70q8 0 36 3q27 1 66 6q38 3 76 9zM844 712q-19 -6 -39 -10q-21 -5 -39 -9q-21 -4 -40 -7l-6 8q19 8 36 15q14 8 27 18q15 9 24 17t15 16q62 -33 62 -44q0 -8 -18 -8q-9 0 -22 4zM720 654q51 -2 90 -8q39 -5 56 -14q22 -7 28 -16q4 -3 4 -10q0 -22 -14 -22
q-4 0 -16 4q-40 18 -82 29q-41 12 -70 15zM364 446q42 -12 110 -12v44q0 53 -4 80q49 -9 82 -23q10 -4 10 -13t-8 -14q-13 -10 -32 -12v-62h36l40 40q30 -23 54 -43q6 -4 6 -11q0 -16 -12 -16h-124v-60q39 -21 65 -40q23 -20 36 -37q9 -12 9 -27q0 -32 -22 -32q-7 0 -13 6
q-4 4 -11 18q-18 34 -34 54q-12 16 -30 29v-279q0 -18 -26 -18t-26 24q0 12 2 30q2 22 2 36v167q-6 -15 -14 -32q-18 -35 -39 -68q-23 -32 -53 -71l-14 16q27 40 43 78q19 35 31 77q14 37 25 77q7 27 12 52q-59 -1 -81 -2zM682 548l60 -30h146l26 30q54 -30 54 -44
q0 -10 -30 -26v-424q0 -20 -32 -26q-14 0 -14 8v36h-162v-22q0 -11 -10 -16q-15 -6 -26 -6q-12 0 -12 14v506zM730 102h162v116h-162v-116zM730 244h162v110h-162v-110zM730 380h162v108h-162v-108z" />
  </g>

</svg>
