<?xml version="1.0" standalone="no"?>
<!DOCTYPE svg PUBLIC "-//W3C//DTD SVG 1.1//EN" "http://www.w3.org/Graphics/SVG/1.1/DTD/svg11.dtd" >
<svg xmlns="http://www.w3.org/2000/svg" xmlns:xlink="http://www.w3.org/1999/xlink" version="1.1" viewBox="0 -120 1000 1000">
  <g transform="matrix(1 0 0 -1 0 880)">
   <path fill="currentColor"
d="M52 113q23 56 29 87q13 59 12 134l-1 207l70 -7q14 -1 14 -11q0 -8 -10 -12l-15 -6l1 -134q0 -123 -37 -195q-17 -34 -49 -72zM55 676h304l43 51l76 -61v-17h-197v-581l-59 -9v590h-156zM83 848l-10 27h230l44 51l77 -58v-19zM337 71q88 83 120 131q59 89 81 218
q23 137 25 317l1 113h-102l-10 26h291l32 40l60 -43q13 -9 13 -16q0 -8 -14 -12l-21 -7l-27 -261h67l26 41l59 -39q12 -8 12 -16q0 -9 -17 -15l-15 -6q-8 -192 -18 -267q-18 -151 -63 -183q-14 -11 -43 -18q-24 -6 -31 -6q-6 0 -8 4q-2 2 -3 23q-1 12 -18 17l-62 16v15h130
q54 93 56 407l-74 1l-6 -54l-59 -6l37 359h-130l-5 -133q-6 -200 -29 -314q-44 -224 -244 -346zM348 191v346l67 -6q17 -1 17 -10q0 -7 -12 -12l-15 -6v-302z" />
  </g>

</svg>
