<?xml version="1.0" standalone="no"?>
<!DOCTYPE svg PUBLIC "-//W3C//DTD SVG 1.1//EN" "http://www.w3.org/Graphics/SVG/1.1/DTD/svg11.dtd" >
<svg xmlns="http://www.w3.org/2000/svg" xmlns:xlink="http://www.w3.org/1999/xlink" version="1.1" viewBox="0 -204 1024 1024">
  <g transform="matrix(1 0 0 -1 0 820)">
   <path fill="currentColor"
d="M142 964q28 -15 46 -34q25 -15 37 -29q16 -16 21 -28q6 -9 6 -19q0 -21 -6 -31q-9 -13 -24 -13q-7 0 -10 4q-5 4 -9 19q-5 23 -18 42q-11 22 -22 40q-13 16 -35 39zM40 782q39 -8 112 -8h144l32 30q30 -18 49 -37q7 -7 7 -11q0 -6 -13 -12q-17 -9 -25 -10
q-47 -95 -90 -153q-13 -17 -27 -33q54 -23 84 -49q33 -22 51 -47q12 -14 12 -32q0 -26 -22 -26q-9 0 -16 5q-8 4 -17 21q-23 41 -48 68q-17 18 -43 38v-440q0 -13 2 -19q4 -10 4 -25q0 -17 -36 -22q-18 0 -18 12v466q-9 -9 -17 -16q-50 -46 -123 -88l-14 14q75 53 124 100
q43 46 76 99q32 50 70 137h-146q-80 0 -98 -2zM386 866q44 -12 118 -12h132v22q0 54 -4 82q44 -8 73 -17q11 -6 11 -13q0 -5 -8 -8q-12 -6 -26 -10v-56h162l48 52q36 -29 66 -53q10 -6 10 -13q0 -14 -14 -14h-272v-96h128l34 44q36 -24 52 -43q6 -9 6 -15q0 -9 -40 -30v-446
h14l44 48q32 -23 62 -49q8 -5 8 -9q0 -16 -10 -16h-520q-72 -1 -96 -6l-22 44q44 -12 118 -12h10v462q0 39 -6 68l53 -40h119v96h-132q-72 -1 -96 -4zM514 240h304v88h-304v-88zM514 358h304v94h-304v-94zM514 482h304v92h-304v-92zM514 602h304v100h-303l-1 -4v-96z
M552 134q-37 -28 -76 -43q-37 -22 -73 -34q-45 -19 -89 -29l-12 22q68 23 112 49q46 23 71 45q27 21 45 48q38 -20 66 -41q2 -3 2 -9q0 -8 -18 -8h-28zM738 174q45 -13 89 -30q45 -21 69 -34q22 -14 30 -23q9 -12 13 -22q3 -6 3 -15q0 -22 -14 -22q-5 0 -14 6q-8 5 -18 18
q-18 15 -36 27q-18 16 -48 30q-31 22 -86 47z" />
  </g>

</svg>
