<?xml version="1.0" standalone="no"?>
<!DOCTYPE svg PUBLIC "-//W3C//DTD SVG 1.1//EN" "http://www.w3.org/Graphics/SVG/1.1/DTD/svg11.dtd" >
<svg xmlns="http://www.w3.org/2000/svg" xmlns:xlink="http://www.w3.org/1999/xlink" version="1.1" viewBox="0 -120 1000 1000">
  <g transform="matrix(1 0 0 -1 0 880)">
   <path fill="currentColor"
d="M46 154q22 74 30 135q7 58 7 166v132l68 -6q25 -2 25 -13q0 -10 -10 -15l-21 -9l-1 -127q-1 -68 -29 -160q-20 -66 -55 -112zM61 659l-15 25h242l45 55l72 -60v-20h-147v-583l-64 -11v594h-133zM80 858l-13 28h196l44 53l67 -61v-20h-294zM305 211v377l65 -6
q27 -3 27 -13q0 -7 -16 -16l-19 -11v-319zM371 182q65 57 110 124q65 99 92 178l70 -27q17 -6 17 -16q0 -11 -17 -14l-18 -2l-24 -40h181l20 31l60 -41q14 -9 14 -18q0 -8 -12 -10l-19 -4q-72 -87 -124 -132q120 -64 233 -78l-1 -15q-45 -8 -66 -47q-54 18 -115 49
q-55 29 -91 60q-111 -82 -303 -126l-4 19q154 44 272 142q-56 55 -81 118q-56 -63 -95 -101q-43 -41 -88 -67zM583 360q23 -61 95 -117q22 18 52 57q28 36 42 60h-189zM374 379q57 41 105 104q50 64 78 128h-57v-36l-59 -12v389l69 -41h306l22 33l63 -40q16 -11 16 -20
t-20 -13l-15 -4v-277l-57 -9v30h-50v-114q0 -11 19 -12h65q23 -3 37 45l17 64h16l-2 -66q0 -1 -1 -4q2 -36 40 -46q-20 -47 -73 -45h-138q-43 1 -42 54v124h-124l43 -25q17 -10 17 -18q0 -13 -31 -13h-14q-13 -14 -68 -76q-15 -17 -50 -46.5t-56 -43.5q-36 -23 -45 -29z
M500 753v-115h132v115h-132zM500 886v-106h132v106h-132zM691 753v-115h134v115h-134zM691 886v-106h134v106h-134z" />
  </g>

</svg>
