<?xml version="1.0" standalone="no"?>
<!DOCTYPE svg PUBLIC "-//W3C//DTD SVG 1.1//EN" "http://www.w3.org/Graphics/SVG/1.1/DTD/svg11.dtd" >
<svg xmlns="http://www.w3.org/2000/svg" xmlns:xlink="http://www.w3.org/1999/xlink" version="1.1" viewBox="0 -140 1000 1000">
  <g transform="matrix(1 0 0 -1 0 860)">
   <path fill="currentColor"
d="M70 640v22h204v148q-80 -12 -179 -14l-1 14q128 24 200 48.5t160 73.5l74 -52l-9 -14l-41 5q-79 -31 -140 -50v-159h91l48 52h18l57 -58v-16h-214v-119q31 -12 45.5 -18t39 -18.5t35.5 -22.5t20.5 -26t9.5 -34q0 -49 -20 -49q-22 0 -55 61q-19 36 -75 80v-420l-8 -12
l-44 -19l-12 8v388q-45 -87 -85 -138.5t-109 -111.5l-13 9q83 105 127.5 205.5t69.5 237.5zM701 888l105 -40l-7 -17l-42 -8q-36 -101 -117.5 -321t-124.5 -324q158 16 338 38q-42 94 -119 221l12 9q114 -126 156.5 -190t42.5 -109q0 -27 -10.5 -50t-23.5 -23q-21 0 -35 70
q-4 16 -16 48q-220 -45 -399 -87l-10 -30l-14 -4l-36 101l88 6l13 40q116 362 199 670z" />
  </g>

</svg>
