<?xml version="1.0" standalone="no"?>
<!DOCTYPE svg PUBLIC "-//W3C//DTD SVG 1.1//EN" "http://www.w3.org/Graphics/SVG/1.1/DTD/svg11.dtd" >
<svg xmlns="http://www.w3.org/2000/svg" xmlns:xlink="http://www.w3.org/1999/xlink" version="1.1" viewBox="0 -204 1024 1024">
  <g transform="matrix(1 0 0 -1 0 820)">
   <path fill="currentColor"
d="M336 902q-38 -17 -80 -30h-4v-186h44l44 48q34 -27 62 -49q10 -7 10 -13q0 -14 -14 -14h-146v-87q48 -24 78 -47q28 -24 43 -44q11 -17 11 -32q0 -32 -20 -32q-10 0 -18 5q-5 6 -13 23q-21 39 -42 62q-18 19 -39 36v-434q0 -21 2 -30q2 -16 2 -28q0 -32 -34 -32
q-22 0 -22 14q0 23 2 56q2 34 2 60v372q-20 -46 -39 -85q-24 -46 -53 -92q-29 -43 -72 -95l-12 18q38 53 62 104q28 47 48 106q21 48 34 101q12 43 21 81h-37q-71 -1 -98 -4l-18 44q43 -12 116 -12h48v175q-24 -5 -46 -8q-42 -9 -108 -13l-4 22q35 3 73 10q35 6 67 18
q36 13 63 25q23 10 41 25l24 20q36 -20 65 -44q5 -2 5 -6q0 -12 -12 -12q-16 0 -36 4zM442 778l62 -44h176v146q0 54 -4 80q55 -5 93 -20q13 -7 13 -16t-13 -11q-17 -9 -43 -11v-168h170l32 44q36 -24 52 -43q6 -7 6 -15q0 -9 -40 -30v-252q16 -11 28 -22q6 -4 6 -8
q0 -14 -8 -14h-246v-286q0 -21 2 -30q2 -16 2 -28q0 -32 -32 -32q-22 0 -22 14q0 23 2 56q2 34 2 60v246h-184v-58q0 -12 -22 -12q-7 0 -20 6q-12 8 -12 24t3 46q7 22 7 96v212q0 39 -10 70zM496 420h184v284h-184v-284zM726 420h176v284h-176v-284z" />
  </g>

</svg>
