<?xml version="1.0" standalone="no"?>
<!DOCTYPE svg PUBLIC "-//W3C//DTD SVG 1.1//EN" "http://www.w3.org/Graphics/SVG/1.1/DTD/svg11.dtd" >
<svg xmlns="http://www.w3.org/2000/svg" xmlns:xlink="http://www.w3.org/1999/xlink" version="1.1" viewBox="0 -140 1000 1000">
  <g transform="matrix(1 0 0 -1 0 860)">
   <path fill="currentColor"
d="M220 672v147q-5 0 -19 -2l-56 -7q-42 -5 -53 -5l-19 1l-1 16q195 34 308 106l51 -82l-14 -7l-22 13q-65 -16 -111 -24v-156h72l33 36h14l54 -45v-14h-173v-111q137 -80 137 -149q0 -15 -11 -28t-25 -13q-17 0 -28 30q-30 84 -73 139v-441l-6 -13l-49 -15l-9 10v419
q-53 -108 -159 -239l-9 10q117 201 150 401h-135v23h153zM637 713v215l94 -26v-15l-30 -16v-158h137l35 43h11l59 -49v-16l-508 -1v23h202zM729 573l26 30h14l63 -47v-16l-32 -18v-351q0 -33 8 -39t47 -6q18 0 24.5 6.5t11.5 27.5l18 72h16l5 -99l22 -25v-11
q-19 -25 -76 -25h-70q-42 0 -56 8t-14 38v433h-146q0 -112 -7 -178.5t-30.5 -126.5t-64 -103.5t-111.5 -95.5l-8 14q99 83 128 168.5t29 292.5v82l70 -31h133z" />
  </g>

</svg>
