<?xml version="1.0" standalone="no"?>
<!DOCTYPE svg PUBLIC "-//W3C//DTD SVG 1.1//EN" "http://www.w3.org/Graphics/SVG/1.1/DTD/svg11.dtd" >
<svg xmlns="http://www.w3.org/2000/svg" xmlns:xlink="http://www.w3.org/1999/xlink" version="1.1" viewBox="0 -204 1024 1024">
  <g transform="matrix(1 0 0 -1 0 820)">
   <path fill="currentColor"
d="M332 888q-38 -15 -76 -25v-177h40l44 48q34 -27 62 -49q10 -7 10 -13q0 -14 -14 -14h-142v-103q27 -18 47 -33q28 -20 41 -33q15 -11 24 -20q5 -10 8 -18q4 -5 4 -13q-1 -34 -26 -34q-5 0 -10 4q-3 4 -19 35q-18 29 -37 51q-15 18 -32 34v-420v-30q2 -16 2 -28
q0 -32 -32 -32q-22 0 -22 14q0 23 2 56q2 34 2 60v385q-21 -50 -43 -93q-24 -46 -53 -91q-29 -42 -72 -91l-12 16q38 52 62 102q28 46 48 104q21 47 34 99q12 42 21 79h-51q-69 -1 -96 -4l-18 44q43 -12 114 -12h66v163q-28 -6 -54 -10q-42 -7 -108 -9l-4 18q35 5 73 13
q35 7 67 17q36 12 63 26q23 11 41 23q12 11 24 23q36 -24 65 -44q5 -4 5 -8q0 -14 -12 -14q-16 0 -36 4zM438 938q59 -9 96 -23q14 -4 14 -13q0 -11 -14 -14q-20 -10 -42 -12v-256h66l44 48q36 -23 66 -49q8 -3 8 -9q0 -18 -12 -18h-172v-468q10 5 18 8q31 10 69 28
q35 20 85 48l4 -18q-35 -36 -64 -55q-27 -24 -53 -39q-26 -19 -51 -32q-12 -36 -18 -36q-8 0 -48 80q5 1 8 2v748q0 53 -4 80zM702 938q56 -12 90 -28q8 -4 8 -12q0 -7 -13 -12q-14 -9 -31 -14v-252h80l44 48q34 -23 66 -49q8 -3 8 -9q0 -18 -12 -18h-186v-454q0 -25 3 -32
q8 -12 24 -13q22 -3 56 -3q42 0 57 4t22 23q12 31 20 141l16 -6v-118q0 -17 15 -28q21 -14 21 -26q0 -10 -10 -16q-11 -6 -44 -10q-40 -8 -103 -8q-43 0 -76 3q-29 2 -40 17q-9 13 -9 42v762q0 34 -6 68z" />
  </g>

</svg>
