<?xml version="1.0" standalone="no"?>
<!DOCTYPE svg PUBLIC "-//W3C//DTD SVG 1.1//EN" "http://www.w3.org/Graphics/SVG/1.1/DTD/svg11.dtd" >
<svg xmlns="http://www.w3.org/2000/svg" xmlns:xlink="http://www.w3.org/1999/xlink" version="1.1" viewBox="0 -204 1024 1024">
  <g transform="matrix(1 0 0 -1 0 820)">
   <path fill="currentColor"
d="M336 898q-38 -16 -78 -26v-204h48l44 48q36 -23 69 -49q7 -5 7 -9q0 -16 -10 -16h-158v-106q45 -21 73 -47q27 -23 43 -44q10 -16 10 -33q0 -32 -26 -32q-8 0 -15 7q-5 4 -12 20q-20 41 -39 67q-14 16 -34 32v-398q0 -21 2 -30q2 -16 2 -28q0 -32 -32 -32q-22 0 -22 14
q0 23 2 56q2 34 2 60v385q-1 -2 -2 -5q-22 -62 -47 -112q-24 -47 -52 -94q-29 -43 -71 -92l-12 14q37 57 61 108q27 48 46 105q21 48 35 104q10 44 17 81h-31q-71 -1 -98 -6l-18 46q43 -14 116 -14h56v193l-22 -4q-56 -15 -122 -21l-10 22q93 15 171 51q53 21 77 51
q51 -26 80 -47q8 -5 8 -11q0 -12 -10 -14q-6 0 -19 4q-12 6 -29 6zM384 778q42 -14 116 -14h128v116q0 54 -4 80q57 -5 94 -20q12 -7 12 -16t-12 -11q-20 -9 -42 -11v-138h172l48 58q40 -30 75 -58q9 -5 9 -12q0 -14 -16 -14h-288v-208h138l48 54q38 -27 73 -54q7 -5 7 -12
q0 -18 -14 -18h-241q27 -52 57 -93q34 -45 78 -88q44 -40 88 -69q42 -24 80 -36v-18q-51 0 -66 -26q-42 22 -75 57q-38 36 -65 76q-30 35 -59 82q-25 35 -49 90v-367q0 -21 2 -30q2 -16 2 -28q0 -32 -34 -32q-22 0 -22 14q0 23 2 56q2 34 2 60v296q-14 -23 -26 -41
q-34 -51 -76 -94q-37 -41 -84 -82q-48 -37 -114 -81l-14 14q68 48 112 92q45 42 83 94q35 41 58 89q22 36 33 65h-70q-69 -1 -96 -4l-18 44q43 -10 114 -10h98v208h-128q-72 -1 -98 -4z" />
  </g>

</svg>
