<?xml version="1.0" standalone="no"?>
<!DOCTYPE svg PUBLIC "-//W3C//DTD SVG 1.1//EN" "http://www.w3.org/Graphics/SVG/1.1/DTD/svg11.dtd" >
<svg xmlns="http://www.w3.org/2000/svg" xmlns:xlink="http://www.w3.org/1999/xlink" version="1.1" viewBox="0 -120 1000 1000">
  <g transform="matrix(1 0 0 -1 0 880)">
   <path fill="currentColor"
d="M40 257q37 45 81 130q61 117 85 238h-154l-9 25h172v173q-107 -23 -164 -29l-4 17q145 33 306 129l59 -50q7 -6 7 -11q0 -11 -11 -9l-4 1l-24 2q-48 -16 -104 -34v-189h34l42 49l66 -55v-19h-142v-112q59 -14 87 -34q18 -12 29 -34q9 -16 9 -32q0 -19 -14 -32
q-9 -9 -21 -9t-18 7q-2 2 -21 53q-11 29 -51 60v-430l-61 -10v408q-77 -128 -166 -213zM332 131q106 85 179 190q71 102 94 178h-200l-8 25h231v176h-111q-41 -85 -98 -157l-12 9q42 85 63 155q22 73 34 157l73 -22q10 -3 10 -10q0 -8 -10 -11l-13 -5l-34 -89h98v199l76 -7
q20 -2 20 -12q0 -7 -15 -12l-19 -8v-160h96l39 48l74 -58v-17h-209v-176h136l45 51l79 -60v-16h-244q31 -95 114 -181q70 -73 149 -117l-5 -15q-28 -1 -40 -7q-14 -7 -30 -30q-91 76 -144 170q-39 69 -60 171v-429l-62 -12v338q-138 -186 -287 -269z" />
  </g>

</svg>
