<?xml version="1.0" standalone="no"?>
<!DOCTYPE svg PUBLIC "-//W3C//DTD SVG 1.1//EN" "http://www.w3.org/Graphics/SVG/1.1/DTD/svg11.dtd" >
<svg xmlns="http://www.w3.org/2000/svg" xmlns:xlink="http://www.w3.org/1999/xlink" version="1.1" viewBox="0 -204 1024 1024">
  <g transform="matrix(1 0 0 -1 0 820)">
   <path fill="currentColor"
d="M342 892q-40 -20 -82 -34q-10 -3 -20 -8v-182h52l40 44q32 -22 59 -46q7 -4 7 -8q0 -16 -12 -16h-146v-80q40 -26 61 -49q26 -25 38 -49q7 -16 7 -30q0 -32 -18 -32q-7 0 -15 3q-6 5 -12 24q-15 42 -34 66q-11 19 -27 35v-422q0 -21 2 -30q2 -16 2 -28q0 -32 -32 -32
q-26 0 -26 14q0 23 2 56q2 34 2 60v358q-17 -50 -35 -93q-22 -47 -47 -94q-26 -44 -66 -93l-10 14q30 58 53 109q24 49 42 106q16 49 29 105q11 44 15 82h-25q-69 -1 -96 -6l-18 46q43 -14 114 -14h44v170q-18 -5 -34 -8q-45 -7 -114 -12l-2 18q35 4 75 13q38 10 72 23
q37 13 66 29q26 12 44 26l27 27q34 -24 61 -44q5 -4 5 -8q0 -14 -10 -14q-14 0 -38 4zM364 840q43 -10 114 -10h154v46q0 54 -4 82q44 -8 72 -17q12 -6 12 -13q0 -5 -10 -8q-10 -6 -22 -10v-80h156l48 54q38 -27 70 -54q10 -5 10 -12q0 -18 -18 -18h-266v-114h128l32 44
q36 -24 52 -43q6 -9 6 -15q0 -9 -40 -30v-548h12l44 48q36 -27 68 -49q8 -5 8 -13q0 -16 -10 -16h-556q-72 -1 -96 -2l-22 42q44 -10 118 -10h28v566q0 41 -10 70l62 -44h128v114h-154q-69 -1 -94 -4zM496 94h318v128h-318v-128zM496 248h318v120h-318v-120zM496 398h318
v120h-318v-120zM496 544h318v114h-318v-114z" />
  </g>

</svg>
