<?xml version="1.0" standalone="no"?>
<!DOCTYPE svg PUBLIC "-//W3C//DTD SVG 1.1//EN" "http://www.w3.org/Graphics/SVG/1.1/DTD/svg11.dtd" >
<svg xmlns="http://www.w3.org/2000/svg" xmlns:xlink="http://www.w3.org/1999/xlink" version="1.1" viewBox="0 -140 1000 1000">
  <g transform="matrix(1 0 0 -1 0 860)">
   <path fill="currentColor"
d="M792 416l-1 -186l-3 -6l-52 -13l-8 8v32h-121v-37l-59 -10l-5 4v277l64 -26h112l28 29h15l50 -37v-12zM607 437v-164h121v164h-121zM736 577l40 51h12l55 -59v-14h-335v22h119v143h-104v22h104v131l90 -20v-12l-25 -13v-86h35l35 49h12l55 -56v-15h-137v-143h44zM856 889
h-360v-271q0 -110 -5 -175.5t-24 -138t-58 -132t-104 -122.5l-9 11q86 125 111 223.5t25 316.5l-1 335l69 -25h343l33 28h13l57 -41v-15l-26 -22v-702q0 -47 -17 -64t-87 -39l-12 5v34l-98 41l3 12l89 -10q6 -1 24 -1q34 0 34 41v711zM57 653v22h139v126q-75 -15 -135 -23
l-4 12q88 30 145.5 59t136.5 83l69 -57l-8 -12l-36 3q-72 -33 -103 -46v-145h46l41 44h16l48 -51v-15h-151v-111q82 -39 114 -63t32 -55q0 -53 -31 -53q-13 0 -24 20q-32 61 -42.5 75t-48.5 49v-434l-6 -14l-49 -13l-10 6v384q-50 -99 -132 -186l-11 12q61 99 90.5 183.5
t43.5 199.5h-130z" />
  </g>

</svg>
