<?xml version="1.0" standalone="no"?>
<!DOCTYPE svg PUBLIC "-//W3C//DTD SVG 1.1//EN" "http://www.w3.org/Graphics/SVG/1.1/DTD/svg11.dtd" >
<svg xmlns="http://www.w3.org/2000/svg" xmlns:xlink="http://www.w3.org/1999/xlink" version="1.1" viewBox="0 -200 1000 1000">
  <g transform="matrix(1 0 0 -1 0 800)">
   <path fill="currentColor"
d="M923 432l30 38l-57 46l-31 -46h-369l-67 39v-535q12 5 28.5 12.5t24.5 23.5v384l14 54h375v-336q0 -18 -6.5 -34t-20.5 -17q-1 -1 -9 -1q-14 0 -34.5 4.5t-52.5 12.5v-16q28 -9 45.5 -18.5t28 -20.5t15 -23.5t6.5 -27.5q80 36 80 115v6v340zM820 702l25 34l-59 41
l-25 -40h-174l-63 33v-246q27 0 52 19v34h243zM785 321l34 32l-61 45l-29 -43h-99l-62 35v-294q6 1 14.5 3.5t16.5 6t13.5 8.5t5.5 11v38h167v158zM576 673l12 42h180v-115h-192v73zM618 296l14 37h103v-149h-117v112zM398 836l21 -35l58 14h476l-68 72l-53 -51h-131v45
l14 64l-78 26l13 -90v-45h-252zM272 -1q-8 -12 -20 -18.5t-32 -11.5v515q-42 -97 -82 -164.5t-82 -113.5l-12 6q30 54 56 111.5t47.5 115t38 113t27.5 103.5h-83l-57 -13l-24 34h171v187q-18 -3 -41.5 -7.5t-46.5 -8t-41.5 -6.5t-26.5 -3v12q41 12 83 26t80 29.5t69 32.5
t50 34l53 -75l-46 -4l-83 -21v-196h36l47 48l72 -69h-155v-117q37 -20 62 -37t39 -31.5t20 -28.5t6 -28v-6q-2 -19 -13.5 -35t-24.5 -16q-8 0 -15 10t-10 34q-4 31 -19.5 56t-42.5 58v-515z" />
  </g>

</svg>
