<?xml version="1.0" standalone="no"?>
<!DOCTYPE svg PUBLIC "-//W3C//DTD SVG 1.1//EN" "http://www.w3.org/Graphics/SVG/1.1/DTD/svg11.dtd" >
<svg xmlns="http://www.w3.org/2000/svg" xmlns:xlink="http://www.w3.org/1999/xlink" version="1.1" viewBox="0 -120 1000 1000">
  <g transform="matrix(1 0 0 -1 0 880)">
   <path fill="currentColor"
d="M48 302q52 81 81 152q49 118 60 204h-116l-16 28h137v160l-137 -25l-9 20q176 48 280 121l46 -44q15 -14 15 -21q0 -11 -23 -9l-23 2q-48 -17 -89 -29v-175h31l40 61l77 -77q97 70 136 128l55 -30q14 -8 14 -14q0 -10 -16 -11l-18 -2q-57 -42 -120 -77q-62 -34 -96 -43
l-9 16l36 21h-130v-117q116 -42 116 -105q0 -16 -10 -25q-8 -7 -17 -7q-13 0 -22 12q-2 2 -26 49q-11 22 -41 51v-436l-60 -12v414q-42 -83 -78 -130q-21 -27 -55 -63zM469 247q-55 -30 -171 -84l-7 19q134 69 245 175h-179l-18 28h169v74h-87l-17 28h104v69h-113l-12 28
h125v102l73 -9q19 -2 19 -9q0 -9 -13 -13l-21 -5v-66h115v108l74 -6q21 -2 21 -11t-15 -14l-22 -9v-68h73l45 57l68 -61v-24h-186v-69h55l39 48l60 -57v-19h-154v-74h92l46 53l65 -58v-23h-277q26 -50 37 -63q8 -12 37 -44l96 102l55 -43q13 -10 13 -16q0 -7 -11 -11l-2 1
l-37 2l-93 -51q38 -39 84 -61q39 -20 121 -51l-4 -19q-7 1 -11 1q-27 0 -51 -40q-198 98 -265 293h-9q-46 -39 -99 -74v-120l171 26l2 -16l-250 -86l-5 -15q-3 -12 -11 -12q-7 0 -16 13l-44 69q62 8 96 13v92zM681 459h-115v-74h115v74zM566 487h115v69h-115v-69zM364 810
l-15 28h246v125l69 -6q30 -3 30 -12q0 -7 -9 -10l-26 -9v-88h152l50 61l75 -66v-23h-572zM686 793q86 -16 150 -46q70 -32 70 -75q0 -25 -25 -25q-12 0 -22 6l-45 45q-51 45 -133 77z" />
  </g>

</svg>
