<?xml version="1.0" standalone="no"?>
<!DOCTYPE svg PUBLIC "-//W3C//DTD SVG 1.1//EN" "http://www.w3.org/Graphics/SVG/1.1/DTD/svg11.dtd" >
<svg xmlns="http://www.w3.org/2000/svg" xmlns:xlink="http://www.w3.org/1999/xlink" version="1.1" viewBox="0 -410 2048 2048">
  <g transform="matrix(1 0 0 -1 0 1638)">
   <path fill="currentColor"
d="M368 1065q-113 -284 -301 -502l-26 23q122 195 190 380q44 116 91 316h-87q-63 0 -149 -11l-39 86q120 -17 188 -17h133v389q-17 -2 -51 -7q-113 -17 -257 -27l-3 34q429 94 589 205l99 -89q18 -16 18 -31q0 -21 -29 -21q-3 0 -8 1l-67 11q-96 -32 -194 -56v-409h122
l92 91l114 -91q20 -17 20 -35q0 -23 -27 -23h-321v-92q273 -107 273 -210q0 -54 -48 -54q-26 0 -46 23q-4 5 -34 55q-39 66 -145 137v-765q0 -98 11 -209q3 -32 3 -50q0 -46 -54 -46q-57 0 -57 42v952zM1691 1524h59l80 80l106 -80q16 -12 16 -33q0 -24 -26 -24h-235v-127
l32 -25q17 -14 17 -31q0 -18 -17 -18h-440v-18q0 -31 -53 -31t-53 45q0 3 4 48q7 100 7 104v53h-23q-62 0 -148 -11l-40 85q121 -17 188 -17h23v31q0 119 -8 160l109 -24q86 -19 86 -44q0 -30 -49 -43l-43 -11v-69h313v22q0 118 -7 160l109 -24q85 -19 85 -46q0 -31 -49 -43
l-43 -10v-59zM1283 1467v-143h313v143h-313zM1752 957l60 77l84 -54q40 -26 40 -48q0 -28 -78 -62v-279q0 -40 7 -104q3 -29 3 -45q0 -48 -70 -48q-31 0 -31 28v50h-640v-44q0 -28 -48 -28q-52 0 -49 42l4 48q6 97 6 105v418l100 -56h612zM1127 526h268v161h-268v-161z
M1484 526h283v161h-283v-161zM1127 743h268v157h-268v-157zM1484 900v-157h283v157h-283zM1290 303q-23 -13 -34 -20q-198 -116 -442 -183l-13 38q320 129 455 293l108 -84q18 -14 18 -29q0 -23 -31 -23q-2 0 -6 1zM1547 379q420 -126 420 -234q0 -51 -45 -51q-31 0 -92 63
q-79 80 -300 190zM1776 1141l82 84l107 -84q23 -18 23 -31q0 -27 -28 -27h-812q-69 0 -149 -11l-39 86q125 -17 188 -17h628zM671 117l-29 26q124 171 167 395q40 203 40 508v593l-2 74q-2 101 -5 155l119 -82h435q-33 112 -102 185l23 25q80 -47 114 -75q47 -38 47 -76
q0 -40 -40 -59h330l91 99l121 -99q18 -15 18 -32q0 -24 -26 -24h-1023v-642q0 -373 -59 -581q-63 -221 -219 -390z" />
  </g>

</svg>
