<?xml version="1.0" standalone="no"?>
<!DOCTYPE svg PUBLIC "-//W3C//DTD SVG 1.1//EN" "http://www.w3.org/Graphics/SVG/1.1/DTD/svg11.dtd" >
<svg xmlns="http://www.w3.org/2000/svg" xmlns:xlink="http://www.w3.org/1999/xlink" version="1.1" viewBox="0 -120 1000 1000">
  <g transform="matrix(1 0 0 -1 0 880)">
   <path fill="currentColor"
d="M194 735q-5 -54 -26 -84q-16 -24 -42 -37q-16 -9 -30 -9q-17 0 -31 13q-9 8 -9 23q0 13 8 22q2 3 38 22q47 26 61 87q4 20 4 42h18q6 -16 9 -51h274v181l79 -6q26 -2 26 -15q0 -10 -21 -19l-18 -8v-133h266l28 45l96 -66q21 -14 21 -23q0 -5 -8 -10t-17 -5h-47l-102 -89
l-14 13l45 107h-608zM58 79q196 185 272 545l79 -26q30 -9 30 -19t-23 -17l-19 -6q-46 -134 -79 -200q-51 -101 -131 -185q-67 -70 -118 -108zM609 628q110 -344 337 -486l-6 -13q-10 1 -17 1q-29 0 -61 -42q-114 109 -190 259q-49 105 -82 274z" />
  </g>

</svg>
