<?xml version="1.0" standalone="no"?>
<!DOCTYPE svg PUBLIC "-//W3C//DTD SVG 1.1//EN" "http://www.w3.org/Graphics/SVG/1.1/DTD/svg11.dtd" >
<svg xmlns="http://www.w3.org/2000/svg" xmlns:xlink="http://www.w3.org/1999/xlink" version="1.1" viewBox="0 -204 1024 1024">
  <g transform="matrix(1 0 0 -1 0 820)">
   <path fill="currentColor"
d="M434 964q25 -12 41 -26q22 -14 34 -25q12 -12 17 -23q4 -9 4 -18q0 -18 -6 -31q-2 -3 -4 -5h342l30 34q33 -25 59 -50q3 -3 3 -6q0 -10 -17 -14q-15 -4 -31 -8q-17 -25 -45 -54q-25 -33 -53 -56l-16 12q27 32 45 59q16 31 25 57h-256v-112q0 -43 4 -52q3 -14 17 -20
q19 -8 53 -11q41 -5 87 -5q28 0 63 5q23 1 36 8q10 5 14 5q17 0 29 -8q15 -8 15 -22q0 -9 -3 -13t-17 -8q-18 -3 -59 -6q-46 -5 -74 -5q-55 0 -113 8q-54 4 -69 15q-11 5 -19 19q-7 10 -10 31q-2 16 -2 63v108h-159q25 -9 38 -16q15 -5 15 -12q0 -8 -11 -12q-15 -6 -29 -10
q-17 -26 -31 -51q-24 -26 -50 -55q-29 -29 -57 -48q-27 -21 -61 -35q-31 -17 -70 -33q-39 -14 -89 -30l-14 18q60 19 99 41q42 17 74 39q24 15 45 36q23 19 43 46q24 24 39 50q14 26 24 46q6 12 7 26h-231q-1 -17 -3 -28q-5 -34 -13 -55q-6 -21 -19 -32q-10 -13 -19 -18
q-7 -5 -14 -5q-26 0 -26 18q0 9 12 22q29 36 42 62q14 22 22 54q6 29 8 78h12v-70h347q-3 6 -5 14q-4 20 -14 36q-8 19 -20 33q-12 15 -30 35zM384 610q47 -7 80 -17q14 -4 14 -13q0 -7 -12 -14t-28 -12q-2 -60 -7 -106h217l24 34q34 -22 53 -40q5 -6 5 -12q0 -8 -6 -14
q-13 -9 -30 -14v-254q0 -12 7 -21q7 -11 23 -15q19 -4 78 -4q46 0 84 5q13 1 21 11q7 10 13 29q8 30 16 135l14 -4q-4 -58 -4 -120q0 -17 6 -25q10 -12 24 -20q6 -5 6 -15q0 -1 -2 -8q-7 -10 -26 -17q-19 -8 -58 -10q-43 -5 -77 -5q-62 0 -93 4q-30 1 -45 9q-17 8 -28 22
q-7 12 -7 21v300h-219q-3 -25 -9 -49q-17 -78 -43 -124q-30 -57 -76 -99q-45 -44 -109 -74q-63 -32 -148 -50l-2 22q88 19 141 57q52 34 98 84q44 48 67 105q24 59 35 122q1 4 1 6h-168q-79 0 -94 -4l-18 40q39 -8 112 -8h171q5 46 5 84q0 47 -6 78z" />
  </g>

</svg>
