<?xml version="1.0" standalone="no"?>
<!DOCTYPE svg PUBLIC "-//W3C//DTD SVG 1.1//EN" "http://www.w3.org/Graphics/SVG/1.1/DTD/svg11.dtd" >
<svg xmlns="http://www.w3.org/2000/svg" xmlns:xlink="http://www.w3.org/1999/xlink" version="1.1" viewBox="0 -140 1000 1000">
  <g transform="matrix(1 0 0 -1 0 860)">
   <path fill="currentColor"
d="M80 406h396q-1 1 -23 28q-24 33 -67 64l9 11q20 -6 30 -8q90 -23 90 -63q0 -13 -10 -32h168l36 32l15 1l64 -58l-10 -11l-23 -5q-111 -80 -219.5 -120t-271.5 -60q63 -26 138 -38t214 -12q173 0 320 25v-13q-23 -13 -47 -69q-75 -4 -146 -4q-247 0 -385 43
q-64 19 -132 60q-28 -22 -74 -75q-26 -29 -28 -29q-8 0 -21.5 22.5t-13.5 32.5q0 12 21 19q31 10 82 59q9 9 18 9q7 0 39 -15q142 31 235.5 72t184.5 112h-589v22zM155 516l-2 15q179 9 295 29.5t258 67.5l47 -67l-11 -7l-33 9q-203 -49 -437 -49zM464 936l102 -19v-14
l-38 -15v-71h297l31 31h16l50 -57l-4 -11l-34 -5l-62 -69l-14 6l17 82h-183v-74q0 -23 10.5 -30.5t36.5 -7.5h115q26 0 38.5 7t23.5 29l19 40l14 -3l-4 -66l27 -15v-14q-38 -28 -111 -28h-144q-53 0 -71 15.5t-18 61.5v85h-166q-26 -98 -94.5 -148.5t-219.5 -82.5l-5 15
q121 40 177.5 88.5t73.5 127.5h-173q-1 -40 -17.5 -75.5t-34 -52.5t-27.5 -17q-22 0 -22 50q0 19 12 30q42 37 53.5 57.5t18.5 68.5h17v-38h293v119z" />
  </g>

</svg>
