<?xml version="1.0" standalone="no"?>
<!DOCTYPE svg PUBLIC "-//W3C//DTD SVG 1.1//EN" "http://www.w3.org/Graphics/SVG/1.1/DTD/svg11.dtd" >
<svg xmlns="http://www.w3.org/2000/svg" xmlns:xlink="http://www.w3.org/1999/xlink" version="1.1" viewBox="0 -204 1024 1024">
  <g transform="matrix(1 0 0 -1 0 820)">
   <path fill="currentColor"
d="M470 968q20 -11 35 -22q17 -11 28 -21t15 -17t4 -14q0 -21 -6 -32h343l30 31q35 -25 63 -54q3 -3 3 -6q0 -7 -19 -11q-16 -4 -31 -7q-15 -22 -35 -45q-21 -26 -43 -46l-17 13q20 27 32 51q13 24 19 46h-255v-72q0 -43 4 -54q3 -12 16 -18q20 -8 51 -12q41 -6 86 -6
q28 0 65 5q21 2 35 11q8 5 12 5q19 0 30 -9q13 -9 13 -24q0 -8 -2 -11q-4 -4 -16 -8q-19 -5 -59 -8q-45 -5 -72 -5q-56 0 -112 8q-53 5 -69 16q-12 6 -18 18q-7 11 -10 30q-2 17 -2 64v70h-209q30 -9 47 -18q14 -5 14 -14t-9 -12q-15 -6 -30 -9q-15 -24 -31 -44
q-21 -24 -49 -49q-27 -24 -55 -41t-61 -30q-30 -16 -69 -27q-38 -14 -88 -26l-16 19q61 18 100 36q40 16 71 34q23 15 46 32q20 18 42 40q21 22 36 45q16 24 23 40q7 13 7 24h-208q-1 -21 -5 -41q-6 -32 -18 -54q-9 -18 -23 -31q-12 -12 -23 -16t-20 -4q-26 0 -26 18
q0 9 15 23q34 35 49 59q16 23 25 53q9 28 11 75l14 -3q2 -27 2 -51h360q-1 2 -1 4q-4 16 -13 31q-8 15 -18 28q-9 13 -26 29zM470 616q59 -7 97 -23q13 -4 13 -14t-13 -13q-19 -10 -43 -12v-173h291q1 14 1 24v59q0 53 -6 80q51 -8 84 -23q12 -6 12 -15q0 -10 -10 -13
q-14 -11 -32 -12v-76q0 -27 2 -36v-35q0 -22 -30 -22q-24 0 -24 27q0 7 1 14h-289v-260h339v2q1 19 1 34v63q0 53 -6 80q51 -8 84 -23q12 -6 12 -15q0 -10 -10 -13q-14 -11 -32 -12v-80q0 -27 2 -36v-35q0 -22 -30 -22q-24 0 -24 27v2h-724q-9 -7 -24 -7q-24 0 -24 27
q0 12 3 32q1 19 1 34v41q0 53 -6 80q51 -8 84 -23q12 -6 12 -15q0 -10 -10 -13q-14 -11 -32 -12v-58q0 -27 2 -36v-22h334v260h-292q-9 -7 -24 -7q-24 0 -24 27q0 12 3 32q1 19 1 34v29q0 53 -6 80q51 -8 84 -23q12 -6 12 -15q0 -10 -10 -13q-14 -11 -32 -12v-46
q0 -27 2 -36v-22h286v155q0 54 -6 80z" />
  </g>

</svg>
