<?xml version="1.0" standalone="no"?>
<!DOCTYPE svg PUBLIC "-//W3C//DTD SVG 1.1//EN" "http://www.w3.org/Graphics/SVG/1.1/DTD/svg11.dtd" >
<svg xmlns="http://www.w3.org/2000/svg" xmlns:xlink="http://www.w3.org/1999/xlink" version="1.1" viewBox="0 -204 1024 1024">
  <g transform="matrix(1 0 0 -1 0 820)">
   <path fill="currentColor"
d="M464 964q18 -6 36 -11q16 -7 26 -12q14 -8 18 -12t4 -9q0 -18 -6 -31q-2 -3 -4 -5h354l28 32q32 -21 61 -48q1 -3 1 -6q0 -8 -17 -14q-17 -4 -29 -8q-14 -13 -35 -28q-17 -18 -39 -30l-14 10q16 19 25 35q13 15 19 31h-256v-22q0 -42 3 -50q2 -13 15 -18q21 -10 53 -14
q38 -6 86 -6q26 0 62 5q23 3 36 10q8 7 11 7q21 0 32 -10q12 -9 12 -22q0 -8 -2 -11q-4 -6 -15 -10q-20 -5 -60 -8q-46 -5 -71 -5q-58 0 -114 9q-51 5 -68 17q-12 6 -19 17q-5 11 -8 31q-1 16 -1 62v18h-204q24 -9 38 -16q12 -5 12 -12q0 -8 -8 -12q-15 -5 -32 -8
q-12 -21 -26 -36q-22 -21 -46 -40q-25 -20 -52 -33q-24 -13 -56 -26q-28 -12 -61 -20q-36 -11 -81 -23l-18 18q58 14 91 29q38 15 68 29q19 12 42 28q17 14 38 34q19 17 34 35q14 22 20 34q5 9 6 19h-202q-4 -17 -6 -28q-5 -29 -15 -45q-6 -16 -18 -27q-11 -11 -21 -14
q-8 -2 -15 -2q-26 0 -26 14q0 8 15 21q28 27 43 48q14 17 20 43q8 22 10 60h14v-44h355q-2 3 -3 6q-4 12 -12 23q-10 9 -20 19q-8 11 -26 22zM752 636q-108 -16 -222 -26v-118h350l44 44q30 -22 59 -46q7 -3 7 -8q0 -18 -10 -18h-450v-20q85 -11 168 -31q92 -20 137 -36
q45 -15 61 -24q16 -11 29 -23q7 -8 7 -16q0 -22 -18 -22q-10 0 -24 8q-17 6 -38 17q-40 17 -72 31q-41 14 -98 31q-57 20 -152 43v-86q0 -17 -34 -18q-14 0 -14 14v126q-37 -31 -74 -55q-50 -33 -110 -59q-55 -24 -103 -38q-60 -21 -127 -32l-10 18q75 21 122 39
q51 19 91 40q56 27 89 52q26 20 50 41h-250q-72 -1 -98 -4l-20 44q44 -12 118 -12h322v114q-19 -2 -40 -3q-117 -14 -264 -19l-8 22q204 14 381 47q116 20 173 49q49 -28 80 -49q6 -5 6 -11q0 -12 -10 -14q-6 0 -21 4q-10 4 -27 4zM266 574q26 -2 42 -8q20 -5 28 -12
q9 -9 11 -18q3 -5 3 -10q0 -26 -18 -26q-2 0 -6 4q-18 18 -33 29q-18 12 -31 15zM734 614q41 -15 72 -31q4 -5 4 -9q0 -7 -15 -9q-20 -3 -27 -3q-13 -13 -30 -23q-14 -9 -31 -17q-20 -8 -43 -18l-14 10q22 14 34 25q11 11 24 26q10 12 17 23q5 13 9 26zM208 270l10 -4
q-9 -51 -22 -80q-14 -29 -28 -47q-15 -20 -34 -31q-16 -10 -32 -14q-13 -4 -22 -4q-22 0 -22 18q0 8 4 14q8 8 41 26q43 29 55 41q13 13 26 35q15 18 24 46zM296 284q50 -6 88 -14q10 -3 10 -12q1 -11 -11 -17q-18 -9 -33 -11v-100q0 -9 4 -16q3 -6 13 -10q7 -3 22 -6
q28 -4 75 -4h132q45 0 68 2q16 3 28 5q15 3 19 8q7 6 11 19q7 28 16 102l22 -8q6 -29 8 -70q0 -28 5 -34q31 -10 31 -28q0 -9 -5 -14q-5 -6 -23 -13q-18 -6 -51 -10q-38 -3 -129 -3h-132q-64 0 -92 6q-26 3 -40 10q-15 10 -21 24q-5 13 -5 22v118q0 28 -10 54zM464 288
q71 -17 110 -38q38 -16 57 -30q11 -13 11 -24q0 -32 -22 -32q-12 0 -22 6q-7 3 -17 15q-25 30 -52 47q-28 19 -77 42zM770 276q75 -24 117 -49q38 -22 54 -41q13 -14 13 -30q0 -32 -18 -32q-11 0 -23 6q-9 4 -17 19q-27 39 -54 60q-32 25 -82 53z" />
  </g>

</svg>
