<?xml version="1.0" standalone="no"?>
<!DOCTYPE svg PUBLIC "-//W3C//DTD SVG 1.1//EN" "http://www.w3.org/Graphics/SVG/1.1/DTD/svg11.dtd" >
<svg xmlns="http://www.w3.org/2000/svg" xmlns:xlink="http://www.w3.org/1999/xlink" version="1.1" viewBox="0 -410 2048 2048">
  <g transform="matrix(1 0 0 -1 0 1638)">
   <path fill="currentColor"
d="M635 1509l75 -24q45 -15 60 -25q16 -9 16 -22q-1 -18 -16 -25q-16 -7 -37 -11l-43 -10l-13 -82l-21 -132q-15 -87 -32 -178q-18 -90 -42 -190q-25 -100 -51 -191l-20 -69q80 25 120 40l119 44l66 24l14 -36q-41 -25 -68 -40q-26 -14 -116 -56l-151 -70q-61 -26 -192 -73
l-117 -43l-8 -36q-4 -16 -11 -24t-17 -8q-11 -1 -20 8q-10 8 -19 30l-56 123q17 2 35 5q19 3 76 14q57 12 70 17l22 7q-11 7 -18 14t-12 22q-6 15 -3 40q1 10 6 36q5 27 9 54q4 28 6 68q3 41 3 87q-1 31 -7 138t-9 147q-3 41 -9 98l-18 128l-22 161l-6 36q-23 -1 -31 -1
q-8 -1 -29 -3l-24 -3l-39 86q26 -5 47 -8q20 -3 40 -4q19 -2 50 -4q32 -2 50 -2h189q-12 16 -16 26q-4 9 -11 42q-6 32 -14 59q-7 27 -22 60t-32 61l-34 54l-42 61l26 23q7 -8 12 -11l38 -33l45 -45q31 -31 49 -54q19 -23 42 -61t32 -70t6 -56t-8 -28l-24 -28h174l91 99
l110 -95q6 -6 13 -21t5 -22q-3 -10 -12 -14t-14 -4h-210zM603 1509h-349q-4 0 -20 -1l-16 -1q3 -21 6 -30l32 -158l24 -131q13 -72 25 -147t19 -137q8 -63 15 -139t7 -119q-1 -43 -7 -84t-16 -52l-16 -20q13 4 21 7l72 20l56 16l26 117q13 56 30 162l35 225q18 120 26 184
l15 137q9 85 10 92zM1595 1576l24 27l55 -51q36 -32 80 -76q44 -45 84 -92q40 -48 59 -76q19 -27 39 -62q20 -34 32 -64q12 -31 12 -65q1 -34 -16 -54q-16 -20 -42 -17q-27 2 -40 19t-21 47q-8 29 -23 72l-28 76q-12 32 -34 74q-23 42 -52 82q-28 39 -58 76l-53 62z
M1340 1785q-1 81 -2 110q-2 29 -3 36l-2 13l128 -25q22 -5 43 -17q21 -13 22 -26q2 -13 -12 -26q-14 -12 -36 -17l-42 -11l-2 -816q-1 -37 3 -106q4 -68 8 -102q4 -35 5 -50q0 -14 -4 -23q-6 -13 -18 -19q-11 -5 -27 -5q-22 -1 -34.5 4.5t-19.5 16.5q-7 10 -7 33v1030z
M1015 1607l159 -45q29 -9 30 -30q0 -21 -37 -32l-58 -17l-19 -73q-8 -35 -31 -110t-46 -134q-23 -60 -59 -129t-71 -117l-48 -67l-28 21l35 74q17 35 38 89q20 54 40 116t36 121q15 59 28 126q13 68 19 114zM1839 894q-63 -106 -129 -206q-67 -100 -165 -194t-217 -172
q-120 -79 -246 -130q-127 -51 -230 -75l-142 -35l-5 34l165 55q90 31 197 83q107 53 201 119q93 66 166 139q73 74 124 140q50 65 100 154q49 88 74 148l30 72l134 -68q8 -5 19 -16t11 -18q-1 -12 -14 -18q-14 -6 -29 -7z" />
  </g>

</svg>
