<?xml version="1.0" standalone="no"?>
<!DOCTYPE svg PUBLIC "-//W3C//DTD SVG 1.1//EN" "http://www.w3.org/Graphics/SVG/1.1/DTD/svg11.dtd" >
<svg xmlns="http://www.w3.org/2000/svg" xmlns:xlink="http://www.w3.org/1999/xlink" version="1.1" viewBox="0 -140 1000 1000">
  <g transform="matrix(1 0 0 -1 0 860)">
   <path fill="currentColor"
d="M929 306l-11 -167l34 -18l-1 -17q-43 -25 -105 -25h-250q-47 0 -66 18t-19 64v532l111 -17v-16l-49 -22v-265q137 78 252 174l63 -65l-8 -12l-36 4q-119 -64 -271 -135v-152q0 -32 7.5 -43.5t33.5 -11.5h185q41 0 57.5 15.5t30.5 68.5l25 92zM486 225l6 -19l-338 -118
l-3 -35l-16 -5l-45 92l81 16v522l116 -17v-16l-56 -22v-183h140l36 45h13l52 -53v-14h-241v-251zM893 868l49 -48v-15h-224q40 -26 55 -46t15 -48q0 -41 -22 -41q-18 0 -29 30q-23 66 -59 105h-71q-51 -62 -143 -128l-9 9q107 116 152 245l94 -39l-5 -16l-43 -3
q-12 -21 -31 -46h221l37 41h13zM469 871l50 -51v-15h-206q48 -48 48 -77q0 -15 -7.5 -28.5t-16.5 -13.5q-18 0 -35 53q-8 23 -27 66h-58q-76 -82 -155 -134l-10 10q64 64 98 118t62 134l94 -38l-7 -16l-38 -5q-16 -26 -30 -47h185l38 44h15z" />
  </g>

</svg>
