<?xml version="1.0" standalone="no"?>
<!DOCTYPE svg PUBLIC "-//W3C//DTD SVG 1.1//EN" "http://www.w3.org/Graphics/SVG/1.1/DTD/svg11.dtd" >
<svg xmlns="http://www.w3.org/2000/svg" xmlns:xlink="http://www.w3.org/1999/xlink" version="1.1" viewBox="0 -410 2048 2048">
  <g transform="matrix(1 0 0 -1 0 1638)">
   <path fill="currentColor"
d="M637 986q-50 -4 -73 -5q-17 -1 -31 -3l-38 88q97 -23 230 -23h554l76 72l75 -57q50 -38 50 -58q0 -31 -99 -56q-106 -159 -226 -283l16 -14q180 -157 213 -197q50 -59 50 -105q0 -59 -50 -59q-15 0 -26 7q-22 13 -87 106q-49 70 -175 206q-139 -122 -296 -190
q-139 -61 -343 -106l-10 38q367 119 584 323q-126 120 -316 259l-44 32q-20 14 -34 25zM709 986l26 -17l25 -18q204 -138 322 -229q109 120 199 264h-572zM1694 164h-1344v-44q0 -54 -59 -54q-53 0 -53 47q0 15 4 48q13 100 13 210v827q1 34 1 56q0 21 -12 135l122 -88h1311
l68 76l84 -54q40 -26 40 -49q0 -28 -78 -61v-834q0 -93 12 -219q3 -32 3 -49q0 -47 -54 -47q-58 0 -58 46v54zM1694 228v1015h-1344v-1015h1344zM1231 1654q-104 -147 -259 -266l-26 30q217 196 322 540l108 -44q51 -21 51 -45q0 -26 -48 -33l-41 -6q-35 -63 -70 -120h466
l98 101l121 -105q16 -14 16 -26q0 -26 -33 -26h-705zM1408 1615q98 -43 135 -64q114 -68 114 -133q0 -50 -48 -50q-33 0 -58 50q-47 93 -162 170zM391 1650q-131 -185 -323 -319l-24 32q263 220 394 606l108 -44q51 -20 51 -44q0 -27 -48 -33l-41 -6q-51 -91 -80 -136h369
l99 102l120 -107q17 -15 17 -26q0 -25 -34 -25h-608zM496 1617q249 -108 249 -197q0 -50 -47 -50q-33 0 -59 50q-47 93 -161 170z" />
  </g>

</svg>
