<?xml version="1.0" standalone="no"?>
<!DOCTYPE svg PUBLIC "-//W3C//DTD SVG 1.1//EN" "http://www.w3.org/Graphics/SVG/1.1/DTD/svg11.dtd" >
<svg xmlns="http://www.w3.org/2000/svg" xmlns:xlink="http://www.w3.org/1999/xlink" version="1.1" viewBox="0 -410 2048 2048">
  <g transform="matrix(1 0 0 -1 0 1638)">
   <path fill="currentColor"
d="M1362 584q90 92 166 195q98 131 131 195l96 -64q61 -41 61 -66q0 -21 -43 -21q-21 0 -69 7q-32 -36 -149 -175q-53 -64 -149 -149q79 -125 216 -219q85 -59 119 -59q23 0 41 44q44 109 95 258l39 -13q-9 -45 -37 -165q-22 -107 -22 -110q0 -27 30 -69q22 -30 22 -47
q0 -33 -64 -33q-170 0 -368 183q-83 77 -145 165q-249 -215 -552 -313l-17 35q272 124 525 350q-113 218 -137 609h-747v-239h398l61 72l73 -50q42 -29 42 -49q0 -16 -66 -52q-10 -289 -37 -373q-30 -98 -104 -136q-34 -17 -108 -33q-4 58 -47 83q-21 13 -130 45l3 41
q148 -30 214 -30q74 0 95 146q6 42 13 276h-407q-8 -461 -283 -737l-29 23q119 162 168 356q47 187 47 443v214q0 46 -9 141l125 -88h725q-1 46 -1 82v142l-4 81l99 -24q91 -21 91 -45q0 -21 -24 -31q-10 -4 -34 -10l-33 -12q0 -124 3 -183h425l101 104l108 -94
q28 -24 28 -39q0 -24 -36 -24h-623q20 -337 114 -538zM1416 1435q106 -27 183 -82q53 -39 53 -90q0 -53 -43 -53q-24 0 -44 21q-4 4 -35 55q-19 32 -127 121zM1244 1684q-6 -7 -17 -20q-85 -102 -236 -196l-23 29q216 187 315 461l109 -47q49 -21 49 -42q0 -23 -49 -30
l-40 -6q-27 -41 -53 -77l-11 -16h461l99 102l120 -106q17 -14 17 -26q0 -26 -33 -26h-708zM1443 1649q98 -43 135 -64q114 -68 114 -134q0 -49 -47 -49q-34 0 -59 50q-46 92 -162 170zM423 1680q-134 -186 -324 -318l-24 31q250 209 381 572l106 -48q45 -20 45 -42
q0 -26 -45 -30l-34 -3q-30 -46 -69 -105h350l99 102l120 -107q17 -15 17 -26q0 -26 -34 -26h-588zM556 1634q100 -44 135 -65q114 -67 114 -133q0 -49 -47 -49q-34 0 -59 50q-35 69 -80 109q-29 25 -82 61z" />
  </g>

</svg>
