<?xml version="1.0" standalone="no"?>
<!DOCTYPE svg PUBLIC "-//W3C//DTD SVG 1.1//EN" "http://www.w3.org/Graphics/SVG/1.1/DTD/svg11.dtd" >
<svg xmlns="http://www.w3.org/2000/svg" xmlns:xlink="http://www.w3.org/1999/xlink" version="1.1" viewBox="0 -120 1000 1000">
  <g transform="matrix(1 0 0 -1 0 880)">
   <path fill="currentColor"
d="M52 684q69 79 109 143q31 50 62 122l79 -26q15 -5 15 -14t-15 -11l-27 -4l-23 -31l-19 -25h144l41 49l70 -56v-19l-203 -1q30 -17 43 -27q35 -26 35 -62q0 -20 -15 -34q-9 -9 -21 -9q-10 0 -15 8q-4 6 -11 40q-10 45 -54 84h-35q-67 -81 -149 -141zM76 224l-8 26h483v109
l70 -9q18 -3 18 -13q0 -7 -11 -13l-14 -7v-67h206l48 53l83 -63v-16h-337v-165l-63 -11v176h-475zM169 344v325l81 -38h179l23 81l69 -11q16 -3 16 -12q0 -8 -10 -11l-17 -6l-41 -41h294l24 38l69 -44q11 -7 11 -14q0 -8 -13 -11l-19 -4v-229l-61 -11v29h-278
q-43 -68 -104 -99q-39 -20 -81 -30l-5 14q47 24 73 47q28 22 56 68h-205v-31zM230 411h213q11 33 15 86h-228v-86zM230 524h229v81h-229v-81zM519 497q-4 -52 -15 -86h270v86h-255zM522 605l-2 -81h254v81h-252zM457 732q45 66 62 97q21 36 57 120l79 -23q13 -4 13 -12
q0 -10 -14 -12l-23 -5q-24 -33 -47 -59h222l50 53l83 -61v-17h-294q44 -24 59 -34q35 -25 35 -60q0 -18 -12 -29q-9 -8 -18 -8q-20 0 -31 32q-11 34 -34 60q-13 15 -43 39h-39q-33 -41 -90 -90z" />
  </g>

</svg>
