<?xml version="1.0" standalone="no"?>
<!DOCTYPE svg PUBLIC "-//W3C//DTD SVG 1.1//EN" "http://www.w3.org/Graphics/SVG/1.1/DTD/svg11.dtd" >
<svg xmlns="http://www.w3.org/2000/svg" xmlns:xlink="http://www.w3.org/1999/xlink" version="1.1" viewBox="0 -140 1000 1000">
  <g transform="matrix(1 0 0 -1 0 860)">
   <path fill="currentColor"
d="M289 591h92l44 48h16l47 -57v-13h-262q-5 -95 -7 -116h114l40 34h14l54 -40l-1 -15l-31 -27q-1 -60 -3 -107t-8 -82t-10.5 -59.5t-16 -42t-19.5 -27.5t-25 -17.5t-27.5 -10.5t-33.5 -8l-10 8v34l-82 44l8 11l76 -12q4 -1 13 -1q46 0 59 58q17 76 17 185v53h-132
q-11 -99 -41 -181.5t-96 -198.5l-14 11q56 131 77 238t23 269h-107v22h168v125l100 -21v-13l-36 -15v-76zM715 687l-37 -21q122 -179 270 -284l-4 -13q-40 -6 -64 -34q-102 100 -219 296q-36 -97 -77.5 -160t-130.5 -154l-11 9q74 96 110 178t66 222l99 -24zM610 415l6 12
q42 -25 58 -34.5t41.5 -27.5t34.5 -29t17 -27t8 -33q0 -39 -21 -39q-16 0 -36 36q-44 85 -108 142zM524 212l5 16q281 -71 281 -159q0 -29 -17 -29q-11 0 -67 54q-63 63 -202 118zM884 881l48 -48v-15h-224q40 -26 55 -46t15 -48q0 -17 -8.5 -29t-19.5 -12q-14 0 -26 30
q-25 67 -65 105h-61q-51 -62 -144 -128l-9 9q60 66 91.5 117t56.5 122l95 -39l-5 -16l-43 -3q-24 -34 -29 -40h222l37 41h14zM459 885l50 -52v-15h-206q48 -48 48 -77q0 -15 -7.5 -28.5t-16.5 -13.5q-19 0 -38 60q-8 26 -27 59h-55q-68 -75 -142 -124l-10 10
q56 55 86.5 104.5t57.5 131.5l94 -38l-7 -16l-39 -5q-12 -21 -25 -41h184l38 45h15z" />
  </g>

</svg>
