<?xml version="1.0" standalone="no"?>
<!DOCTYPE svg PUBLIC "-//W3C//DTD SVG 1.1//EN" "http://www.w3.org/Graphics/SVG/1.1/DTD/svg11.dtd" >
<svg xmlns="http://www.w3.org/2000/svg" xmlns:xlink="http://www.w3.org/1999/xlink" version="1.1" viewBox="0 -204 1024 1024">
  <g transform="matrix(1 0 0 -1 0 820)">
   <path fill="currentColor"
d="M196 960q47 -7 78 -20q10 -2 10 -12q0 -9 -20 -13q-19 -5 -38 -5q-9 -22 -18 -38h182l44 44q34 -21 62 -44q8 -5 8 -10q0 -18 -12 -18h-304q-10 -12 -18 -20q-19 -24 -39 -39q-17 -17 -40 -34q-22 -16 -49 -31l-14 22q28 17 52 40q20 19 42 44q20 24 37 49q13 23 21 43
q9 20 16 42zM270 826q35 -14 57 -30q16 -10 25 -22q6 -10 6 -18q0 -30 -22 -30q-5 0 -9 3q-4 2 -10 12q-11 22 -22 37q-13 14 -37 32zM602 960q47 -7 80 -20q8 -2 8 -12q0 -9 -16 -13q-22 -5 -38 -5q-8 -19 -19 -33q-2 -3 -4 -5h241l44 48q38 -23 69 -48q9 -4 9 -10
q0 -18 -12 -18h-373q-18 -16 -31 -27q-13 -15 -32 -26q-16 -11 -36 -21l-18 18q25 15 40 33q16 15 34 35q14 18 26 39q13 17 19 32q5 16 9 33zM702 822q41 -15 66 -29q22 -9 32 -20q8 -9 8 -17q0 -30 -26 -30q-6 0 -11 2q-3 3 -8 12q-14 21 -30 36q-14 13 -43 28zM196 716
l60 -30h130q16 17 25 35q8 22 13 53q90 -21 90 -36q0 -12 -50 -18q-20 -18 -44 -34h348l28 30q52 -30 52 -44q0 -10 -30 -26v-226q0 -17 -32 -22q-16 0 -16 6v22h-526v-18q0 -7 -14 -13q-15 -5 -22 -5q-12 0 -12 12v314zM244 452h526v96h-526v-96zM244 576h526v82h-526v-82z
M94 364q44 -10 118 -10h610l44 48q36 -27 69 -49q7 -5 7 -11q0 -18 -10 -18h-396v-102h202l48 54q38 -28 72 -54q8 -5 8 -14q0 -16 -14 -16h-316v-112h326l48 58q38 -30 72 -58q8 -5 8 -12q0 -14 -14 -14h-830q-69 -1 -96 -4l-18 44q43 -14 114 -14h340v112h-206
q-71 -1 -98 -2l-18 42q43 -10 116 -10h206v102h-274q-72 -1 -96 -4z" />
  </g>

</svg>
