<?xml version="1.0" standalone="no"?>
<!DOCTYPE svg PUBLIC "-//W3C//DTD SVG 1.1//EN" "http://www.w3.org/Graphics/SVG/1.1/DTD/svg11.dtd" >
<svg xmlns="http://www.w3.org/2000/svg" xmlns:xlink="http://www.w3.org/1999/xlink" version="1.1" viewBox="0 -200 1000 1000">
  <g transform="matrix(1 0 0 -1 0 800)">
   <path fill="currentColor"
d="M744 539l-25 -42v-63q-11 -9 -22 -13.5t-31 -5.5v32h-153q-6 -14 -17.5 -29t-32 -28.5t-50.5 -23.5t-72 -13l57 -22l-58 -17h494l44 36l58 -47l-38 -31q-2 -103 -14.5 -159.5t-27.5 -71.5q-25 -35 -58 -47t-75 -20l-4 21q-9 14 -42 27t-75 19l4 11q53 -13 99 -13h11t10 1
q29 3 49 12t33.5 35t20 74.5t8.5 129.5h-527q-15 -15 -41.5 -34.5t-58 -38.5t-66.5 -34t-66 -21l-8 3q67 34 120.5 82t95.5 93q-12 -3 -23.5 -4t-22.5 -1q-22 0 -43.5 2.5t-47.5 2.5h-15l-6 3q55 7 106 16t93 21t71 28t40 38h-101v-7q-24 -18 -53 -19v140l73 -23l-21 -41
v-30h118q15 22 21 50t6 63l89 -18l-25 -34q-7 -15 -12 -31.5t-14 -29.5h147v97zM507 112q-7 -34 -31.5 -58.5t-59.5 -40.5t-76.5 -25.5t-83 -14t-79 -6t-63.5 -1.5q-20 0 -33 3h-12q96 11 160.5 24t107 29.5t67.5 38.5t42 51h-125v-21q-15 -17 -51 -21v170l74 -26l-23 -38
v-44h126q11 51 15 82t4 45l89 -27l-31 -28q-3 -17 -4.5 -27.5t-3 -17.5t-3 -12.5t-4.5 -14.5h163v108l80 -31l-25 -36v-85q-20 -7 -33.5 -11.5t-21.5 -6.5l-2 42h-163zM384 652l-38 -21l-18 -14h494l34 36l66 -46l-36 -32v-5q0 -75 -9 -117.5t-18 -58.5q-14 -17 -43.5 -34
t-84.5 -21q-8 24 -28.5 36t-69.5 21l5 9q27 -5 50 -8t40 -3q35 0 55 12.5t29.5 38t11.5 63.5t2 88h-512q-22 -22 -48 -45.5t-56.5 -46.5t-65.5 -44t-75 -37l-6 3q45 34 82.5 66t67 64t52.5 65t40 70zM352 931l-37 -22q-8 -17 -19 -32.5t-25 -34.5h161l44 42l64 -65h-255
q56 -33 79 -59.5t28 -44.5q-6 -18 -14 -25.5t-16 -7.5q-17 0 -23.5 10t-13.5 28.5t-19.5 44t-42.5 56.5h-4q-21 -29 -40 -55t-41 -49t-49.5 -43t-66.5 -38v3q39 34 75 80t64 93t46.5 89t22.5 68zM745 927l-34 -18q-16 -20 -27.5 -37.5t-26.5 -32.5h190l49 44l65 -67h-287
q36 -14 56.5 -26t31 -23.5t14 -23t5.5 -23.5q0 -15 -9 -25t-20 -10q-8 0 -16.5 12.5t-19.5 32t-27 42.5t-40 45h-3q-15 -17 -30 -37t-34.5 -39.5t-45 -36t-60.5 -26.5l-5 -1q33 28 63 62.5t55 72.5t45 78t34 79z" />
  </g>

</svg>
