<?xml version="1.0" standalone="no"?>
<!DOCTYPE svg PUBLIC "-//W3C//DTD SVG 1.1//EN" "http://www.w3.org/Graphics/SVG/1.1/DTD/svg11.dtd" >
<svg xmlns="http://www.w3.org/2000/svg" xmlns:xlink="http://www.w3.org/1999/xlink" version="1.1" viewBox="0 -204 1024 1024">
  <g transform="matrix(1 0 0 -1 0 820)">
   <path fill="currentColor"
d="M186 964q98 -17 98 -36q0 -13 -58 -14q-10 -27 -21 -48h185l44 48q35 -27 66 -49q8 -5 8 -11q0 -18 -12 -18h-309q-7 -12 -15 -22q-26 -41 -58 -74q-35 -36 -72 -58l-10 20q35 33 54 54q19 24 42 64q19 29 38 70q10 31 20 74zM256 810q43 -19 70 -35q21 -16 32 -31
q10 -8 10 -18q0 -32 -26 -32q-5 0 -10 3t-11 13q-16 29 -31 45q-18 19 -46 37zM596 968q94 -17 94 -36q0 -14 -54 -16q-14 -30 -31 -50h247l44 48q36 -27 67 -49q9 -5 9 -11q0 -18 -14 -18h-374q-20 -22 -40 -43q-29 -22 -58 -41l-12 22q29 23 43 41q17 16 34 46
q13 22 28 54q9 23 17 53zM658 810q44 -18 70 -34q25 -15 36 -29q6 -8 6 -17q0 -32 -22 -32q-8 0 -14 3q-5 1 -9 13q-15 27 -32 42q-16 19 -47 36zM156 704h12v-44h235q4 2 5 4q24 43 34 80q47 -5 71 -16q13 -3 13 -12q0 -7 -14 -12q-16 -4 -30 -6l-19 -38h407l28 34
q35 -25 63 -50q3 -3 3 -8q0 -8 -20 -12q-14 -4 -30 -8q-18 -15 -43 -36q-24 -18 -53 -36l-14 14q25 19 42 40q16 18 24 34h-426q-16 -22 -30 -42q-41 -49 -102 -93q-7 -5 -12 -9h257q-2 5 -3 12q-4 18 -13 32q-11 16 -22 31q-9 13 -27 29l16 14q20 -13 39 -26q18 -10 31 -20
q13 -12 17 -21q3 -7 3 -13q0 -21 -4 -33q-2 -3 -5 -5h241l46 48q34 -23 66 -48q8 -4 8 -10q0 -18 -12 -18h-340v-96h198l44 44q30 -22 59 -46q7 -3 7 -8q0 -18 -10 -18h-298v-104h202l44 44q32 -21 59 -44q7 -5 7 -10q0 -18 -12 -18h-300v-96h256l44 48q38 -23 69 -49
q9 -3 9 -9q0 -18 -12 -18h-704v-2q2 -16 2 -28q0 -32 -32 -32q-22 0 -22 14q0 23 2 56q2 34 2 60v285q-9 -5 -16 -10q-64 -28 -156 -65l-12 18q81 35 133 65q28 14 51 32v1h1q23 14 40 26q44 32 87 75q27 29 46 57h-220q-2 -12 -4 -22q-5 -27 -16 -43q-7 -16 -18 -26
q-10 -10 -20 -12q-10 -3 -18 -3q-22 0 -22 14q0 8 13 20q30 25 43 46q12 16 20 41q9 20 12 57zM258 108h294v96h-294v-96zM552 232v104h-294v-104h294zM552 364v96h-292l-2 -1v-95h294z" />
  </g>

</svg>
