<?xml version="1.0" standalone="no"?>
<!DOCTYPE svg PUBLIC "-//W3C//DTD SVG 1.1//EN" "http://www.w3.org/Graphics/SVG/1.1/DTD/svg11.dtd" >
<svg xmlns="http://www.w3.org/2000/svg" xmlns:xlink="http://www.w3.org/1999/xlink" version="1.1" viewBox="0 -200 1002 1000">
  <g transform="matrix(1 0 0 -1 0 800)">
   <path fill="currentColor"
d="M53 299q51 24 105.5 57t104.5 73t90 85.5t62 95.5h-185l-53 -9l-21 29h260l32 37l67 -40l-42 -34q-24 -52 -69.5 -98.5t-102 -85.5t-119 -69.5t-121.5 -51.5zM380 406l-22 28h201l43 36l59 -54h-214zM946 346l-27 -9t-29 -10.5t-26.5 -10.5t-19.5 -9q-56 22 -106.5 57.5
t-93.5 81t-76.5 99t-55.5 112.5l49 -28q36 9 58 17t37 16.5t26.5 17t26.5 18.5l47 -49q-26 -3 -78 -11t-122 -23q13 -25 27.5 -45.5t28 -36t24 -25t16.5 -13.5q39 29 68 56t55 56l52 -53q-46 -11 -87 -29.5t-80 -40.5q66 -59 140 -88t145 -41zM338 334h320l29 40l62 -37
l-21 -27v-124h-389v-13q-15 -9 -30 -14.5t-28 -5.5v210zM339 206h331v108h-323l-8 -18v-90zM125 -14l-23 32h265q-6 54 -25 89t-33 47l9 5q45 -20 75 -49.5t35 -58.5q0 -2 0.5 -3t0.5 -3q0 -13 -17 -27h164q20 23 41.5 67.5t33.5 92.5l71 -51q-20 -9 -37 -24t-32 -30.5
t-28 -30.5t-24 -24h182l53 49l73 -70h-708zM204 569q57 -24 91.5 -48.5t39.5 -56.5q-22 -22 -37 -22q-8 0 -17.5 7.5t-14.5 22.5q-5 21 -22.5 42.5t-47.5 47.5zM348 947l-32 -31q-9 -13 -18.5 -26t-24.5 -33h156l46 46l64 -69h-255q59 -27 79 -51.5t20 -53.5q-6 -18 -18 -25
t-19 -7q-14 0 -16.5 10.5t-6 29t-15 43.5t-44.5 54h-4q-21 -28 -35 -50t-32.5 -42.5t-46.5 -40.5t-77 -44l-6 8q70 58 117 137t81 173zM744 939l-29 -22q-16 -18 -23.5 -31t-21.5 -29h158l47 46l66 -69h-265q35 -14 53.5 -24.5t27.5 -20.5t12 -19.5t7 -20.5
q0 -16 -12.5 -28.5t-23.5 -12.5q-9 0 -13 8.5t-10 25t-18 40t-37 52.5h-3q-12 -14 -26 -31.5t-34 -37t-48.5 -38.5t-69.5 -36l-6 8q68 55 112.5 124t79.5 152z" />
  </g>

</svg>
