<?xml version="1.0" standalone="no"?>
<!DOCTYPE svg PUBLIC "-//W3C//DTD SVG 1.1//EN" "http://www.w3.org/Graphics/SVG/1.1/DTD/svg11.dtd" >
<svg xmlns="http://www.w3.org/2000/svg" xmlns:xlink="http://www.w3.org/1999/xlink" version="1.1" viewBox="0 -140 1000 1000">
  <g transform="matrix(1 0 0 -1 0 860)">
   <path fill="currentColor"
d="M796 398l43 46h11l59 -53v-15h-339v-78h210l38 41h12l51 -46v-17h-311v-77h207l41 40h12l51 -47v-15h-311v-80h257l45 46h13l55 -50v-18h-683v-17l-7 -8l-47 -9l-7 5v288q-45 -28 -98 -50l-35 -15l-9 13q134 91 224 211l69 -52l-5 -13h-35l-33 -30h242l48 97l67 -40
l-2 -14l-34 -1l-46 -42h247zM795 580v-22h-229v22h229zM803 522v-22h-233v22h233zM938 596h-37l-65 -72l-15 7l27 95h-304v-128l-7 -8l-49 -13l-8 4v145h-323q1 -6 1 -24q0 -32 -9 -57t-22 -38t-24.5 -19.5t-18.5 -6.5q-26 0 -26 48q0 21 27 47q27 24 34.5 41t12.5 66h16
l8 -35h324v51h-362v22h699l38 46h12l53 -53v-15h-376v-51h307l29 30h9l55 -66zM440 580v-22h-244v22h244zM446 522v-22h-253v22h253zM258 298h248v78h-248v-78zM258 199h248v77h-248v-77zM258 97h248v80h-248v-80zM241 858h166l36 42h14l47 -50v-15h-178q56 -35 56 -62
q0 -16 -7.5 -28t-18.5 -12q-13 0 -23 31q-12 37 -40 71h-66q-62 -71 -158 -131l-11 12q57 54 90 100.5t69 122.5l76 -43l-5 -13l-31 -3zM676 835h-83q-49 -53 -120 -105l-13 12q74 84 122 197l77 -39l-5 -13l-27 -4l-20 -25h226l37 42h11l52 -50v-15h-220q29 -17 38.5 -23.5
t16.5 -17t7 -24.5q0 -38 -17 -38t-35 36q-11 25 -47 67z" />
  </g>

</svg>
