<?xml version="1.0" standalone="no"?>
<!DOCTYPE svg PUBLIC "-//W3C//DTD SVG 1.1//EN" "http://www.w3.org/Graphics/SVG/1.1/DTD/svg11.dtd" >
<svg xmlns="http://www.w3.org/2000/svg" xmlns:xlink="http://www.w3.org/1999/xlink" version="1.1" viewBox="0 -120 1000 1000">
  <g transform="matrix(1 0 0 -1 0 880)">
   <path fill="currentColor"
d="M37 187q64 98 92 154q38 76 77 208l-144 1l-11 25l160 -1v374l78 -7q20 -2 20 -11q0 -10 -14 -17l-22 -9l1 -330l60 -1l43 49l67 -55v-17h-170v-85q139 -41 139 -119q0 -21 -12 -32q-9 -8 -19 -8q-7 0 -13 6q-5 5 -16 31q-20 50 -79 100v-376l-61 -12l-1 335
q-92 -148 -162 -212zM92 854q88 -113 88 -178q0 -31 -18 -49q-12 -11 -25 -11q-10 0 -15 7q-8 9 -8 41q-1 32 -6 76q-5 45 -28 102zM291 624q43 141 65 249l76 -22q13 -4 13 -12t-15 -13l-13 -4l-112 -203zM463 60l-1 673l75 -7q20 -2 20 -15q0 -8 -18 -16l-15 -7v-525
l123 2v771l82 -8q19 -2 19 -12q0 -7 -15 -15l-23 -14v-723l139 1v568l77 -5q23 -2 23 -14q0 -10 -18 -16l-21 -9l-1 -608l-60 -9v67h-325v-66z" />
  </g>

</svg>
