<?xml version="1.0" standalone="no"?>
<!DOCTYPE svg PUBLIC "-//W3C//DTD SVG 1.1//EN" "http://www.w3.org/Graphics/SVG/1.1/DTD/svg11.dtd" >
<svg xmlns="http://www.w3.org/2000/svg" xmlns:xlink="http://www.w3.org/1999/xlink" version="1.1" viewBox="0 -204 1024 1024">
  <g transform="matrix(1 0 0 -1 0 820)">
   <path fill="currentColor"
d="M452 752q43 -10 114 -10h201q1 19 1 40q0 131 -8 172q52 -4 83 -11q17 -4 15 -15q2 -10 -11 -15q-12 -6 -29 -15q0 -88 -2 -156h46l48 54q38 -27 72 -54q8 -5 8 -12q0 -18 -14 -18h-161q-3 -106 -10 -166q-19 -109 -49 -186q-22 -52 -48 -96q27 -31 60 -60
q56 -53 115 -80q51 -30 103 -44v-12q-59 0 -72 -36q-76 40 -124 89q-63 50 -106 109q-4 -7 -9 -13q-50 -63 -127 -111q-79 -54 -180 -88l-14 24q114 46 177 98q66 47 109 109q7 11 13 21q-45 62 -75 132q-42 88 -74 200l22 8q36 -113 70 -177q36 -72 75 -124l4 -6
q20 35 38 80q24 68 38 161q13 74 16 168h-201q-69 -1 -96 -4zM62 870q24 -27 43 -52q23 -26 34 -47q15 -25 20 -41q5 -17 5 -32q0 -21 -6 -33q-11 -11 -24 -11q-6 0 -9 5q-5 5 -8 30q-5 29 -17 58q-10 30 -20 54q-12 27 -34 57zM372 876q47 -12 85 -33q7 -6 7 -11
q0 -7 -14 -12q-24 -6 -42 -6q-10 -25 -21 -45q-9 -24 -21 -47q-13 -20 -25 -34q-11 -18 -31 -34l-14 10q15 25 27 50q13 30 23 63q12 33 21 65q3 18 5 34zM36 598q43 -14 116 -14h60v292q0 54 -4 82q55 -7 93 -23q13 -6 13 -15q0 -7 -13 -11q-17 -9 -43 -11v-314h70l48 52
q36 -25 66 -52q10 -5 10 -10q0 -16 -14 -16h-180v-79l4 3q36 -26 63 -50q29 -25 49 -45q19 -23 25 -38q9 -17 9 -31q0 -20 -8 -33q-9 -11 -20 -11q-10 0 -16 5q-9 4 -14 29q-7 27 -21 55q-16 29 -33 52q-15 21 -38 42v-349q0 -21 2 -30q2 -16 2 -28q0 -32 -32 -32
q-22 0 -22 14q0 23 2 56q2 34 2 60v323q-2 -10 -5 -16q-22 -55 -46 -102q-24 -44 -51 -88q-29 -40 -70 -87l-12 14q34 51 59 99q27 45 45 101q21 45 34 96q10 37 16 70h-30q-71 -1 -98 -4z" />
  </g>

</svg>
