<?xml version="1.0" standalone="no"?>
<!DOCTYPE svg PUBLIC "-//W3C//DTD SVG 1.1//EN" "http://www.w3.org/Graphics/SVG/1.1/DTD/svg11.dtd" >
<svg xmlns="http://www.w3.org/2000/svg" xmlns:xlink="http://www.w3.org/1999/xlink" version="1.1" viewBox="0 -140 1000 1000">
  <g transform="matrix(1 0 0 -1 0 860)">
   <path fill="currentColor"
d="M70 151l-10 8q74 104 112 198.5t67 249.5h-179v21h190v309l97 -19v-10l-33 -16v-264h88l38 42h13l53 -48v-15h-192v-131q86 -33 113.5 -56t27.5 -64q0 -37 -26 -37q-11 0 -17 11l-37 60q-4 5 -26 27l-35 34v-380l-8 -11l-44 -14l-11 8l-1 356q-83 -168 -180 -259zM75 871
l8 7q132 -100 132 -157q0 -19 -11.5 -37.5t-23.5 -18.5q-17 0 -35 67q-17 59 -70 139zM438 883l79 -45l-5 -12l-27 -5q-64 -101 -148 -176l-9 9q37 55 98 200zM712 720v-242h102l32 31h14l57 -43v-11l-27 -20l1 -357l-8 -13l-46 -14l-11 6v47h-269v-35l-6 -12l-49 -12l-11 7
v459l80 -34l76 1v455l96 -20v-13l-31 -13v-145h124l38 40h12l54 -49v-13h-228zM826 126v330h-269v-330h269z" />
  </g>

</svg>
