<?xml version="1.0" standalone="no"?>
<!DOCTYPE svg PUBLIC "-//W3C//DTD SVG 1.1//EN" "http://www.w3.org/Graphics/SVG/1.1/DTD/svg11.dtd" >
<svg xmlns="http://www.w3.org/2000/svg" xmlns:xlink="http://www.w3.org/1999/xlink" version="1.1" viewBox="0 -410 2048 2048">
  <g transform="matrix(1 0 0 -1 0 1638)">
   <path fill="currentColor"
d="M422 1288q-38 -15 -79 -30q-71 -26 -139 -52l-5 -30q-6 -39 -27 -39q-18 0 -36 34l-60 113q63 71 148 287q103 259 137 391l120 -57q59 -28 59 -46q0 -34 -59 -34h-37q-111 -233 -302 -525q37 4 119 18q174 28 195 31q60 114 110 258l114 -55q49 -24 49 -48
q0 -29 -52 -29h-39q-99 -185 -206 -332q-137 -187 -277 -322q107 19 458 99q-47 86 -101 160l25 23q223 -193 223 -318q0 -61 -49 -61q-21 0 -32 15q-10 14 -23 62q-13 46 -24 75q-64 -27 -349 -128l-84 -31l-6 -30q-7 -39 -26 -39q-22 0 -39 39l-52 117q10 8 14 12
q57 47 183 231q95 139 149 241zM310 590q248 -180 248 -288q0 -37 -23 -60q-14 -15 -32 -15q-39 0 -56 73q-19 85 -64 153q-20 30 -97 113zM1713 1427v-1170q0 -141 -155 -170q-11 69 -47 93q-33 21 -159 43l8 46q168 -27 200 -27q57 0 57 57v1128h-274q-118 0 -192 -8
l-38 88q91 -24 230 -24h274v319q0 108 -9 160l109 -24q86 -19 86 -46t-50 -41l-40 -11v-357h48l99 103l120 -107q17 -15 17 -26q0 -26 -27 -26h-257zM1223 1170q247 -212 247 -371q0 -33 -16 -55t-40 -22q-39 0 -52 74q-18 106 -66 194q-31 56 -101 155zM979 1438l46 -8
q84 -13 84 -48q0 -25 -54 -41l-35 -10v-956q0 -104 11 -209q3 -32 3 -49q0 -47 -53 -47q-55 0 -55 42v1229q-90 -155 -182 -269l-32 21q138 220 221 452q84 233 102 421l156 -61q32 -13 32 -28q0 -24 -41 -30l-61 -8q-13 -45 -19 -67q-58 -208 -123 -334zM112 502
q205 -203 205 -314q0 -77 -57 -77q-31 0 -40 25q-4 10 -7 43q-15 146 -130 298zM538 664q231 -151 231 -257q0 -41 -28 -62q-11 -8 -22 -8q-32 0 -51 65q-22 79 -64 137q-22 31 -88 98z" />
  </g>

</svg>
