<?xml version="1.0" standalone="no"?>
<!DOCTYPE svg PUBLIC "-//W3C//DTD SVG 1.1//EN" "http://www.w3.org/Graphics/SVG/1.1/DTD/svg11.dtd" >
<svg xmlns="http://www.w3.org/2000/svg" xmlns:xlink="http://www.w3.org/1999/xlink" version="1.1" viewBox="0 -204 1024 1024">
  <g transform="matrix(1 0 0 -1 0 820)">
   <path fill="currentColor"
d="M218 960q80 -35 80 -50q0 -11 -46 -12q-36 -63 -88 -131q-43 -67 -97 -131q52 3 103 8q52 5 95 11q4 5 6 9q35 65 57 124q80 -35 80 -50q0 -11 -50 -12q-52 -80 -134 -171q-65 -86 -148 -166q43 5 78 10q46 5 101 16q45 11 102 26q-2 5 -4 7q-16 35 -47 70l12 14
q46 -33 70 -69q25 -26 36 -56q6 -18 6 -39q0 -32 -22 -32q-8 0 -14 8q-5 5 -10 25q-8 29 -16 49q-51 -18 -86 -29q-49 -17 -92 -28q-38 -11 -82 -19q-12 -36 -18 -36t-48 80q5 0 9 1q82 86 131 150q39 48 69 92q-26 -8 -50 -14q-44 -14 -93 -27q-15 -30 -22 -30q-1 0 -5 6
q-21 33 -36 66l-3 2q1 1 1 2l-1 2h3q52 70 83 122q35 55 56 104q23 51 34 98zM54 240q46 -32 74 -64q24 -28 35 -55q7 -17 7 -35q0 -36 -24 -36q-6 0 -12 5q-5 6 -10 25q-15 50 -33 78q-17 32 -49 68zM186 280q53 -30 80 -60q28 -27 39 -53q9 -17 9 -33q0 -32 -22 -32
q-8 0 -14 4q-7 5 -14 25q-16 45 -36 71q-18 30 -54 64zM314 324q47 -25 75 -54q26 -24 37 -45q8 -17 8 -33q0 -32 -18 -32q-7 0 -15 5q-6 6 -12 24q-15 40 -34 63q-18 28 -53 58zM460 760l58 -44h158v156q0 54 -4 82q55 -7 94 -23q12 -6 12 -15q0 -7 -12 -11q-18 -9 -42 -13
v-176h152l30 44q36 -20 52 -42q10 -8 10 -14q0 -8 -36 -32v-468q0 -73 2 -97q2 -29 2 -45q0 -14 -11 -24q-15 -6 -23 -6q-18 0 -18 14v58h-372v-58q0 -14 -20 -14q-10 0 -23 6q-9 10 -9 24q0 16 2 45q6 24 6 97v490q0 39 -8 66zM512 134h164v278h-164v-278zM724 134h160v278
h-160v-278zM512 442h164v248h-164v-248zM724 690v-248h160v248h-160z" />
  </g>

</svg>
