<?xml version="1.0" standalone="no"?>
<!DOCTYPE svg PUBLIC "-//W3C//DTD SVG 1.1//EN" "http://www.w3.org/Graphics/SVG/1.1/DTD/svg11.dtd" >
<svg xmlns="http://www.w3.org/2000/svg" xmlns:xlink="http://www.w3.org/1999/xlink" version="1.1" viewBox="0 -410 2048 2048">
  <g transform="matrix(1 0 0 -1 0 1638)">
   <path fill="currentColor"
d="M1174 973q-2 -1 -209 -181l-11 -35q-11 -31 -32 -31q-13 0 -33 39l-53 103q175 62 338 170v29v29v72v642q0 118 -8 160l110 -24q85 -19 85 -46q0 -29 -49 -41l-43 -12v-687l1 -171q0 -219 -72 -438q-75 -226 -250 -360q-54 -42 -198 -117l-17 41q162 97 250 211
q89 115 139 298q29 104 45 266q7 72 7 83zM1544 1029q93 -46 195 -113q198 -131 198 -224q0 -54 -47 -54q-30 0 -62 50q-92 142 -284 283v-677q0 -49 28 -60q36 -14 198 -14q80 0 97 60q13 43 36 229l34 -7l-5 -184q0 -25 6 -42q5 -15 45 -52q13 -12 13 -22q0 -28 -39 -49
q-49 -26 -148 -26l-94 2q-174 3 -209 18q-59 26 -59 112v1517q0 119 -6 160l109 -24q85 -19 85 -46q0 -29 -49 -42l-42 -11v-516q201 201 254 363l110 -71q43 -28 43 -46q0 -25 -31 -25q-6 0 -27 2l-38 4q-189 -197 -311 -281v-214zM326 586q224 -177 224 -283
q0 -36 -23 -60q-14 -15 -31 -15q-36 0 -50 73q-16 79 -58 149q-21 36 -86 112zM850 1644q97 -67 162 -139q102 -113 102 -191q0 -56 -45 -56q-29 0 -42 25q-1 2 -35 83q-55 133 -164 245zM100 523q205 -202 205 -313q0 -78 -57 -78q-40 0 -47 68q-14 145 -130 297zM531 682
q243 -151 243 -264q0 -42 -28 -62q-11 -8 -22 -8q-34 0 -53 66q-23 80 -69 141q-26 36 -93 101zM650 906q-38 78 -95 163l26 22q211 -195 211 -322q0 -62 -50 -62q-32 0 -44 43q-6 17 -16 59q-5 24 -14 52q-112 -40 -157 -54q-253 -75 -322 -98l-8 -32q-9 -36 -27 -36
q-22 0 -39 40l-48 119q48 35 137 146q133 168 232 335q-51 -17 -119 -36q-66 -19 -141 -42l-8 -30q-10 -37 -27 -37q-20 0 -36 37l-52 117q60 60 168 276q112 223 164 379l117 -65q54 -29 54 -47q0 -31 -61 -31h-37q-102 -180 -324 -484l-14 -18q37 2 120 11q175 14 226 20
q57 84 131 275l112 -60q47 -24 47 -48q0 -27 -53 -27h-38q-211 -375 -518 -657q109 15 282 49q59 12 221 43z" />
  </g>

</svg>
