<?xml version="1.0" standalone="no"?>
<!DOCTYPE svg PUBLIC "-//W3C//DTD SVG 1.1//EN" "http://www.w3.org/Graphics/SVG/1.1/DTD/svg11.dtd" >
<svg xmlns="http://www.w3.org/2000/svg" xmlns:xlink="http://www.w3.org/1999/xlink" version="1.1" viewBox="0 -204 1024 1024">
  <g transform="matrix(1 0 0 -1 0 820)">
   <path fill="currentColor"
d="M197 960q84 -36 84 -52q0 -12 -46 -14q-31 -61 -81 -131q-39 -63 -88 -124q45 1 89 5q49 5 89 11q2 5 4 8q31 64 49 125q84 -36 84 -52q0 -12 -46 -14q-48 -80 -123 -171q-61 -85 -135 -162q33 4 60 9q42 6 93 18q43 9 97 23l-4 8q-16 32 -43 67l14 18q41 -33 65 -68
q21 -28 31 -55q7 -19 7 -38q0 -35 -25 -35q-6 0 -11 6q-5 5 -10 26q-7 28 -15 48q-44 -20 -78 -31q-42 -16 -80 -27q-36 -12 -75 -20q-11 -37 -18 -37q-8 0 -49 84q8 1 15 1q73 85 116 149q34 47 60 90q-21 -8 -41 -14q-39 -14 -83 -25q-14 -33 -21 -33q-3 0 -7 7
q-21 36 -39 79h7q46 69 73 120q31 53 50 101q20 52 31 100zM47 240q45 -32 70 -65q23 -27 34 -53q8 -18 8 -36q0 -38 -27 -38q-6 0 -12 6q-5 5 -11 25q-14 47 -30 76q-17 31 -47 65zM174 280q48 -30 75 -61q24 -25 36 -50q8 -17 8 -34q0 -35 -25 -35q-7 0 -13 5q-5 5 -12 24
q-15 45 -33 72q-18 29 -50 61zM285 324q47 -28 74 -58q24 -23 36 -46q8 -16 8 -32q0 -32 -23 -32q-7 0 -13 5q-5 5 -12 22q-15 42 -33 67q-18 28 -50 58zM384 878q44 -12 117 -12h323l47 53l72 -55q9 -6 9 -12q0 -14 -16 -14h-270q-50 -75 -110 -145q-47 -59 -98 -113
q98 2 195 13q109 11 200 27q-9 12 -17 22q-27 36 -76 80l12 14q45 -31 79 -62q35 -29 54 -50q20 -20 30 -34q7 -13 11 -26q4 -10 4 -22q-1 -30 -22 -30q-7 0 -13 5q-7 6 -29 49q-10 20 -21 37q-85 -22 -170 -37q23 -6 40 -13q13 -4 13 -14t-13 -13q-19 -10 -43 -12v-168h128
l47 53l72 -55q9 -6 9 -12q0 -14 -16 -14h-240v-228h164l50 57q41 -30 77 -59q9 -5 9 -12q0 -14 -17 -14h-494q-71 -2 -97 -7l-20 47q44 -12 117 -12h163v228h-107q-71 -2 -97 -7l-20 47q44 -12 117 -12h107v150q0 37 -3 60q-86 -17 -178 -30q-14 -33 -21 -33q-3 0 -7 7
q-21 36 -39 79h26q61 69 104 131q41 59 76 128h-101q-71 -2 -97 -7z" />
  </g>

</svg>
