<?xml version="1.0" standalone="no"?>
<!DOCTYPE svg PUBLIC "-//W3C//DTD SVG 1.1//EN" "http://www.w3.org/Graphics/SVG/1.1/DTD/svg11.dtd" >
<svg xmlns="http://www.w3.org/2000/svg" xmlns:xlink="http://www.w3.org/1999/xlink" version="1.1" viewBox="0 -410 2048 2048">
  <g transform="matrix(1 0 0 -1 0 1638)">
   <path fill="currentColor"
d="M1739 1142q-79 -23 -213 -46v-745q0 -73 19 -90q24 -20 130 -20q144 0 166 35q15 22 38 315l35 -5q0 -110 8 -233q4 -53 21 -72q5 -5 34 -24q13 -9 13 -23q0 -85 -283 -85q-165 0 -215 23q-64 29 -64 115v789q-61 -13 -200 -36l-22 -3q-17 -410 -106 -597
q-72 -151 -207 -251q-72 -54 -211 -114l-12 35q155 93 236 190q143 172 180 440q14 104 18 281l-43 -6q-56 -8 -93 -13l-10 -43q-7 -31 -25 -31q-12 0 -30 31l-64 112q67 49 189 220q112 155 186 314h-158q-117 0 -192 -8l-38 88q95 -23 230 -23h182q56 139 84 282l153 -67
q31 -14 31 -28q0 -23 -42 -28l-61 -7q-15 -38 -36 -99q-12 -34 -19 -53h384l98 101l121 -106q17 -16 17 -26q0 -26 -28 -26h-618q-130 -273 -373 -509q19 2 61 5q294 19 707 78q-40 58 -154 170l19 28q165 -103 229 -173q90 -98 90 -172q0 -61 -52 -61q-23 0 -36 17
q-11 13 -42 93q-8 19 -32 61zM344 608q248 -181 248 -289q0 -36 -23 -60q-14 -15 -32 -15q-39 0 -56 74q-19 84 -64 152q-22 33 -97 113zM114 508q205 -203 205 -314q0 -77 -57 -77q-40 0 -47 68q-15 144 -130 297zM581 704q273 -161 273 -276q0 -41 -28 -61q-12 -9 -23 -9
q-37 0 -59 69q-27 82 -78 146q-22 27 -107 104zM695 925q-38 79 -94 163l25 23q212 -195 212 -323q0 -62 -50 -62q-32 0 -44 43q-6 17 -16 59q-5 24 -14 52q-112 -40 -158 -53q-253 -76 -321 -99l-8 -32q-9 -36 -27 -36q-22 0 -39 41l-48 118q42 31 137 146q124 152 232 335
q-53 -17 -119 -36q-70 -20 -141 -42l-8 -30q-10 -37 -27 -37q-20 0 -36 37l-52 117q60 60 168 276q112 224 163 380l118 -65q54 -30 54 -48q0 -31 -62 -31h-37q-105 -186 -337 -502q37 3 120 11q174 14 226 20q57 84 131 275l112 -59q47 -25 47 -48q0 -28 -53 -28h-38
q-213 -377 -518 -657q100 14 392 71z" />
  </g>

</svg>
