<?xml version="1.0" standalone="no"?>
<!DOCTYPE svg PUBLIC "-//W3C//DTD SVG 1.1//EN" "http://www.w3.org/Graphics/SVG/1.1/DTD/svg11.dtd" >
<svg xmlns="http://www.w3.org/2000/svg" xmlns:xlink="http://www.w3.org/1999/xlink" version="1.1" viewBox="0 -140 1000 1000">
  <g transform="matrix(1 0 0 -1 0 860)">
   <path fill="currentColor"
d="M798 866l32 34l16 1l52 -48v-18l-24 -17l-4 -455l-52 -15l-7 7v32h-44v-223q0 -28 4.5 -42t9.5 -16t16 -2h50q27 0 34.5 7.5t14.5 40.5l17 79l16 -2l4 -118l17 -17v-14q-26 -27 -74 -27h-103q-46 0 -58 15.5t-12 66.5v252h-62q-7 -131 -64.5 -204.5t-218.5 -136.5l-6 13
q127 63 174.5 133t50.5 195h-46v-34l-6 -12l-48 -13l-10 8v568l70 -37zM811 844h-280v-126h280v126zM811 696h-280v-133h280v133zM811 541h-280v-131h280v131zM303 879l-9 -16l-30 1l-103 -121q75 -49 75 -94q0 -36 -27 -36q-19 0 -45 51q-17 34 -77 100l7 10q18 -7 49 -22
l75 176zM408 755l-10 -15l-27 2l-170 -235l146 6q-16 52 -31 80l11 7q92 -86 95 -141v-2q0 -14 -11 -28t-23 -14q-26 0 -34 57q0 5 -5 27l-67 -19v-407l-5 -9l-51 -16l-8 9v408l-100 -25l-6 -25l-14 -3l-30 93l108 2l156 303zM324 388l9 5q32 -39 55.5 -88t23.5 -74
q0 -19 -11.5 -34t-26.5 -15q-23 0 -25 44q-2 81 -25 162zM212 358l-5 -16l-26 -5q-47 -139 -99 -232l-10 7q39 146 49 278z" />
  </g>

</svg>
