<?xml version="1.0" standalone="no"?>
<!DOCTYPE svg PUBLIC "-//W3C//DTD SVG 1.1//EN" "http://www.w3.org/Graphics/SVG/1.1/DTD/svg11.dtd" >
<svg xmlns="http://www.w3.org/2000/svg" xmlns:xlink="http://www.w3.org/1999/xlink" version="1.1" viewBox="0 -140 1000 1000">
  <g transform="matrix(1 0 0 -1 0 860)">
   <path fill="currentColor"
d="M789 863l-34 8q-33 -27 -94 -61q106 -28 106 -76q0 -39 -18 -39q-14 0 -41 39q-16 28 -66 63q-26 -17 -117 -63l-30 -15q64 -25 88 -46t24 -48q0 -16 -9 -28.5t-21 -12.5q-21 0 -37 45q-14 41 -63 81q-51 -19 -89 -28l-6 13q203 88 336 238l82 -59zM872 797l72 -62
l-8 -11l-34 8q-93 -78 -173 -127q88 -71 126.5 -141t38.5 -160q0 -129 -67 -196t-171 -67l-11 6l-7 32l-93 46l3 12l81 -15q30 -5 58 -5q47 0 73.5 15t47.5 53q28 50 28 145q-173 -111 -387 -161l-5 13q138 52 221 100t159 120q-7 36 -38 90q-84 -66 -157 -101.5t-205 -73.5
l-6 15q195 77 335 208q-14 17 -44 50q-128 -67 -255 -100l-5 14q136 54 231 120t192 173zM63 114l-13 6q35 91 52 244l5 45l85 -28l-2 -14l-27 -8q-23 -90 -42.5 -137.5t-57.5 -107.5zM207 477l-101 -14l-5 -30l-16 -2l-30 86l92 1q94 170 154 295l80 -44l-5 -14l-34 -4
l-163 -232l156 7q-14 35 -40 76l12 10q104 -98 104 -144q0 -57 -26 -57q-19 0 -27 32l-15 60l-71 -13v-408l-5 -14l-48 -19l-12 7v421zM294 398l10 8q109 -127 109 -193q0 -19 -10.5 -38t-21.5 -19q-20 0 -28 53q-12 85 -59 189zM185 926l72 -43l-3 -12l-31 -6l-82 -120
q40 -26 52.5 -39t12.5 -35q0 -16 -7.5 -29t-15.5 -13q-13 0 -32 34q-32 55 -90 100l6 12q23 -8 49 -19z" />
  </g>

</svg>
