<?xml version="1.0" standalone="no"?>
<!DOCTYPE svg PUBLIC "-//W3C//DTD SVG 1.1//EN" "http://www.w3.org/Graphics/SVG/1.1/DTD/svg11.dtd" >
<svg xmlns="http://www.w3.org/2000/svg" xmlns:xlink="http://www.w3.org/1999/xlink" version="1.1" viewBox="0 -410 2048 2048">
  <g transform="matrix(1 0 0 -1 0 1638)">
   <path fill="currentColor"
d="M1561 516q-149 -219 -387 -412l-28 27q239 241 375 489q-43 227 -59 413q-6 76 -22 462h-470v-354h209l68 76l84 -54q40 -26 40 -49q0 -17 -9 -24.5t-62 -35.5q-2 -106 -11 -312q-11 -316 -58 -390q-34 -54 -115 -80q-23 -8 -41 -8h-14q4 20 4 34q0 35 -35 60
q-30 21 -117 49l12 39q34 -11 105 -24q69 -17 76 -17q59 0 73 144q19 206 21 294q2 69 4 240h-234v-32q0 -328 -57 -552q-42 -166 -124 -283q-54 -77 -126 -151l-29 23q151 201 195 431q44 232 44 535v337q0 31 -4 179l-1 62l119 -79h450q-6 304 -15 421l133 -23
q65 -12 65 -38q0 -22 -35 -34l-52 -19v-92q0 -78 3 -215h194l99 102l120 -107q17 -15 17 -26q0 -27 -27 -27h-403q12 -529 55 -751q116 240 186 501l115 -50q48 -22 48 -42q0 -24 -42 -31l-46 -7q-118 -311 -226 -495q76 -196 155 -300q39 -52 56 -52q26 0 52 104l48 194
l37 -14q-36 -227 -36 -291q0 -42 43 -106q7 -11 7 -30q0 -39 -44 -39q-59 0 -137 58q-131 98 -246 372zM1707 1924q105 -64 137 -89q61 -47 61 -107q0 -57 -50 -57q-17 0 -28 11q-8 9 -29 70q-24 68 -113 142zM650 913q-35 75 -94 164l25 22q212 -195 212 -322
q0 -62 -50 -62q-35 0 -54 78q-11 47 -20 76q-112 -41 -142 -50q-255 -76 -322 -98l-8 -33q-9 -35 -27 -35q-22 0 -39 40l-48 119q48 35 137 146q133 167 232 334q-51 -16 -119 -35q-66 -19 -141 -43l-8 -30q-10 -36 -27 -36q-20 0 -36 36l-52 117q60 59 168 276
q112 223 164 380l117 -65q54 -30 54 -48q0 -30 -61 -30h-37q-101 -179 -324 -484l-14 -18q37 2 120 11q174 14 226 19q57 85 131 276l112 -60q47 -25 47 -48q0 -27 -53 -27h-38q-211 -375 -518 -657q60 8 282 49q124 22 205 38zM104 530q205 -203 205 -314q0 -77 -57 -77
q-40 0 -47 68q-14 145 -129 298zM300 606q248 -181 248 -289q0 -37 -22 -60q-14 -15 -32 -15q-40 0 -57 74q-19 84 -64 152q-21 31 -97 113zM486 711q273 -161 273 -275q0 -41 -28 -61q-11 -9 -23 -9q-37 0 -59 68q-27 83 -78 146q-25 31 -107 105z" />
  </g>

</svg>
