<?xml version="1.0" standalone="no"?>
<!DOCTYPE svg PUBLIC "-//W3C//DTD SVG 1.1//EN" "http://www.w3.org/Graphics/SVG/1.1/DTD/svg11.dtd" >
<svg xmlns="http://www.w3.org/2000/svg" xmlns:xlink="http://www.w3.org/1999/xlink" version="1.1" viewBox="0 -410 2048 2048">
  <g transform="matrix(1 0 0 -1 0 1638)">
   <path fill="currentColor"
d="M1757 807q-204 -96 -563 -206l-41 -13l-7 -41q-6 -32 -23 -32t-31 27l-40 82q-21 -170 -83 -300q-40 -83 -118 -160q-7 -8 -64 -62l-27 28q122 141 168 300q43 152 43 462v374q0 90 -8 177l114 -72h282v466q0 119 -8 159l109 -24q86 -19 86 -45q0 -29 -48 -42l-43 -11
v-503h284l69 76l83 -54q40 -26 40 -48q0 -28 -77 -61v-1019q0 -83 -68 -129q-41 -29 -89 -38q-12 71 -44 92t-162 45l7 46q169 -28 202 -28q57 0 57 58v496zM1757 857v456h-687v-131q203 -38 326 -77q184 -57 184 -134q0 -47 -40 -47q-23 0 -136 69q-118 71 -334 139v-154
q0 -143 -12 -297q448 80 699 176zM333 602q248 -180 248 -290q0 -36 -22 -59q-15 -15 -32 -15q-40 0 -57 74q-19 84 -64 152q-22 33 -97 113zM1804 1877l137 -60q31 -14 31 -34q0 -25 -31 -29l-62 -9q-68 -109 -146 -205q-43 -52 -147 -140l-32 32q141 152 250 445z
M894 1868q105 -65 185 -138q146 -134 146 -229q0 -66 -53 -66q-29 0 -49 29q-7 10 -29 70q-36 98 -106 184q-32 39 -118 118zM105 514q80 -81 136 -154q69 -90 69 -161q0 -77 -58 -77q-40 0 -46 68q-14 144 -130 298zM578 679q246 -148 246 -254q0 -40 -28 -61
q-11 -8 -23 -8q-34 0 -53 64q-24 77 -69 136q-22 28 -95 97zM697 929q-36 75 -95 163l26 22q212 -194 212 -322q0 -62 -50 -62q-36 0 -54 78q-11 46 -21 76q-107 -39 -157 -54q-253 -76 -322 -98l-8 -32q-9 -36 -27 -36q-22 0 -38 40l-48 119q47 34 136 146q131 164 232 334
q-51 -16 -118 -35q-67 -20 -142 -43l-8 -30q-9 -36 -26 -36q-20 0 -36 36l-53 117q59 57 169 276q109 219 163 380l118 -65q54 -30 54 -48q0 -30 -62 -30h-37q-105 -188 -337 -502q37 2 119 11q175 14 226 20q57 84 132 275l112 -60q47 -25 47 -48q0 -27 -53 -27h-39
q-213 -379 -518 -657q101 14 392 70z" />
  </g>

</svg>
