<?xml version="1.0" standalone="no"?>
<!DOCTYPE svg PUBLIC "-//W3C//DTD SVG 1.1//EN" "http://www.w3.org/Graphics/SVG/1.1/DTD/svg11.dtd" >
<svg xmlns="http://www.w3.org/2000/svg" xmlns:xlink="http://www.w3.org/1999/xlink" version="1.1" viewBox="0 -120 1000 1000">
  <g transform="matrix(1 0 0 -1 0 880)">
   <path fill="currentColor"
d="M39 87q43 124 46 331l71 -11q17 -3 17 -14q0 -7 -12 -12l-9 -3q-5 -17 -20 -96q-17 -83 -76 -203zM106 478l-5 -9q-8 -13 -16 -13q-7 0 -15 18l-27 56l85 1q56 84 104 170q15 28 68 125l63 -32q18 -9 18 -17q0 -12 -20 -12l-16 -1q-87 -116 -185 -234l152 7
q-27 44 -54 67l9 12q55 -19 87 -47q37 -32 37 -71q0 -21 -13 -33q-10 -8 -19 -8q-10 0 -16 7q-5 7 -21 50l-63 -11v-438l-64 -10v438zM65 794q30 -9 56 -24q46 85 88 184l65 -30q17 -8 17 -15q0 -11 -19 -14l-16 -3q-14 -16 -20 -24q-72 -86 -91 -116q44 -36 44 -74
q0 -18 -14 -30q-9 -9 -20 -9q-9 0 -15 6q-6 7 -27 63q-16 41 -54 72zM299 420q33 -41 44 -56q49 -74 49 -149q0 -58 -36 -58q-11 0 -18 7q-11 10 -9 54q3 61 -44 192zM391 304h223v78l47 -3q18 11 27 16q48 28 76 47h-337l-8 27h370l38 30l65 -38q18 -11 18 -20t-20 -10h-21
l-176 -61q4 -6 4 -10q0 -7 -6 -10l-13 -5v-41h164l46 52l77 -61v-19h-287v-151q0 -33 -13 -45q-29 -25 -66 -25q-15 0 -15 15q0 27 -36 35l-45 10v19l111 -1v143h-213zM394 815l-9 26h227v109l72 -7q20 -2 20 -11t-14 -14l-12 -5v-72h136l42 51l77 -59v-18h-539zM448 505
l1 259l65 -36h272l23 35l57 -37q13 -9 13 -16q0 -8 -13 -13l-10 -3v-162l-60 -8v26h-287v-35zM509 577h287v124h-287v-124z" />
  </g>

</svg>
