<?xml version="1.0" standalone="no"?>
<!DOCTYPE svg PUBLIC "-//W3C//DTD SVG 1.1//EN" "http://www.w3.org/Graphics/SVG/1.1/DTD/svg11.dtd" >
<svg xmlns="http://www.w3.org/2000/svg" xmlns:xlink="http://www.w3.org/1999/xlink" version="1.1" viewBox="0 -204 1024 1024">
  <g transform="matrix(1 0 0 -1 0 820)">
   <path fill="currentColor"
d="M182 960q92 -40 92 -58q0 -16 -52 -18q-29 -58 -80 -127q-39 -60 -86 -118q43 0 85 5q47 5 86 11q3 5 5 9q29 65 48 124q88 -38 88 -54q0 -12 -50 -14q-45 -77 -116 -166q-60 -88 -132 -164q32 4 60 8q40 5 88 15q42 9 97 26q-3 7 -6 13q-13 35 -39 70l14 14
q38 -33 58 -67q19 -28 31 -58q7 -18 7 -39q0 -30 -26 -30q-5 0 -10 6q-3 5 -8 25q-6 26 -12 43q-44 -18 -78 -29q-40 -17 -76 -27q-35 -10 -72 -18q-10 -36 -14 -36q-8 0 -48 80q6 1 10 1q70 86 112 150q31 48 56 92q-21 -9 -43 -14q-38 -14 -81 -27q-12 -30 -18 -30
q-3 0 -7 6q-22 34 -37 72h7q44 70 69 122q29 55 50 104q17 51 28 98zM54 244q35 -30 57 -64q17 -28 25 -53q6 -20 6 -37q0 -36 -22 -36q-5 0 -9 5q-6 4 -10 27q-11 48 -22 76q-13 32 -37 68zM168 284q43 -29 65 -60q23 -27 33 -51q8 -19 8 -35q0 -34 -22 -34q-6 0 -12 6
q-7 5 -12 25q-14 45 -27 71q-18 30 -45 64zM284 328q43 -25 66 -54q23 -24 34 -45q6 -16 6 -33q0 -32 -18 -32q-7 0 -14 7q-5 4 -11 20q-13 41 -30 67t-47 56zM416 848q43 -12 114 -12h110v44q0 54 -4 80q55 -5 93 -20q13 -7 13 -16t-13 -11q-17 -9 -43 -11v-66h122l44 48
q36 -23 67 -49q9 -5 9 -9q0 -16 -14 -16h-228v-116h184l44 48q36 -27 68 -49q8 -5 8 -11q0 -18 -10 -18h-210v-102q5 -22 76 -22q20 0 92 4q28 0 30 -18q-3 -20 -30 -24q-28 -6 -92 -6q-66 0 -91 15q-27 11 -31 37v116h-139q-4 -30 -12 -51q-8 -32 -22 -54q-15 -28 -35 -48
q-18 -23 -47 -39q-30 -20 -71 -34l-14 18q39 21 60 38q24 20 38 38q16 18 26 40q9 19 17 47q4 21 9 45h-60q-71 -1 -94 -4l-22 44q44 -10 116 -10h166v116h-110q-69 -3 -96 -6zM602 522q96 -21 96 -36q0 -14 -56 -16q-15 -33 -33 -58h191l36 34q36 -23 58 -43q4 -3 4 -9
q0 -9 -12 -17q-14 -8 -32 -13q-60 -89 -105 -132q-29 -28 -64 -51q28 -17 55 -30q45 -20 105 -41q61 -15 141 -30v-16q-39 -2 -54 -32q-78 21 -133 42t-97 46q-27 18 -51 36l-6 -4q-60 -40 -131 -64q-73 -30 -182 -60l-14 18q114 36 171 62q55 23 105 51q14 12 31 24
q-41 39 -67 84q-17 27 -27 54q-14 -13 -28 -27q-43 -32 -87 -58l-14 22q47 31 72 56q26 21 53 60q27 31 47 72q17 33 28 76zM549 337q13 -35 40 -66q27 -39 62 -69q15 12 27 22q42 37 76 77q31 41 54 85h-218q-7 -11 -13 -17q-16 -17 -28 -32z" />
  </g>

</svg>
