<?xml version="1.0" standalone="no"?>
<!DOCTYPE svg PUBLIC "-//W3C//DTD SVG 1.1//EN" "http://www.w3.org/Graphics/SVG/1.1/DTD/svg11.dtd" >
<svg xmlns="http://www.w3.org/2000/svg" xmlns:xlink="http://www.w3.org/1999/xlink" version="1.1" viewBox="0 -410 2048 2048">
  <g transform="matrix(1 0 0 -1 0 1638)">
   <path fill="currentColor"
d="M417 1352q40 76 89 238l116 -52q51 -23 51 -47q0 -30 -51 -30h-39q-69 -144 -118 -225q-58 -97 -193 -266q-89 -111 -137 -161q68 14 216 54q142 38 208 55q-44 76 -106 156l24 25q234 -188 234 -313q0 -59 -48 -59q-34 0 -57 74q-13 43 -26 74q-19 -9 -153 -64
q-177 -78 -243 -104l-6 -33q-7 -38 -26 -38q-21 0 -39 38l-56 115q135 121 333 501q-2 -1 -194 -90l-5 -30q-6 -40 -25 -40q-18 0 -37 32l-66 110q50 63 129 282q76 212 116 398l126 -51q58 -23 58 -43q0 -26 -58 -35l-36 -6q-66 -159 -171 -353q-51 -96 -75 -135
q-14 -23 -23 -39q37 6 117 26l159 33zM793 521v1239q-19 -2 -52 -4q-12 -1 -51 -7l-39 86q122 -18 188 -18h409l80 81l114 -86q16 -12 16 -26q0 -26 -27 -26h-188v-1386q0 -97 12 -210q3 -32 3 -49q0 -47 -55 -47q-57 0 -57 42v465q-94 -60 -175 -96q-17 -8 -89 -38
q-19 -8 -43 -18l-11 -45q-8 -29 -23 -29q-17 0 -34 36l-57 118q38 9 79 18zM889 544q148 41 257 80v331h-257v-411zM889 1359v-348h257v348h-257zM889 1760v-343h257v343h-257zM265 598q249 -180 249 -288q0 -37 -23 -60q-14 -15 -31 -15q-40 0 -57 74q-19 84 -64 152
q-19 28 -98 113zM1394 1597q-33 0 -70 -6l-40 87q126 -20 188 -20h259l68 76l84 -56q40 -27 40 -48q0 -27 -78 -60q-20 -548 -191 -923q156 -300 322 -379v-38q-93 -1 -127 -74q-124 125 -246 369q-78 -136 -132 -205q-49 -63 -133 -145l-26 26q156 195 252 423
q-141 366 -169 948zM1445 1601q2 -24 7 -90q31 -445 159 -768q126 353 138 858h-304zM90 534q206 -202 206 -314q0 -77 -58 -77q-40 0 -46 68q-15 144 -130 298zM468 674q213 -136 213 -234q0 -57 -44 -57q-37 0 -61 80q-32 101 -133 186z" />
  </g>

</svg>
