<?xml version="1.0" standalone="no"?>
<!DOCTYPE svg PUBLIC "-//W3C//DTD SVG 1.1//EN" "http://www.w3.org/Graphics/SVG/1.1/DTD/svg11.dtd" >
<svg xmlns="http://www.w3.org/2000/svg" xmlns:xlink="http://www.w3.org/1999/xlink" version="1.1" viewBox="0 -120 1000 1000">
  <g transform="matrix(1 0 0 -1 0 880)">
   <path fill="currentColor"
d="M35 108q19 84 26 143q6 54 10 166l63 -16q19 -4 19 -11q0 -8 -11 -15l-10 -6q-22 -149 -83 -265zM94 470l-6 -12q-4 -8 -10 -8q-7 0 -12 13l-27 62l113 5q45 102 115 284l64 -24q14 -6 14 -12q0 -8 -11 -12l-17 -6l-137 -229l105 7q-16 31 -42 56l6 12q45 -14 76 -41
q34 -31 34 -64q0 -21 -13 -33q-9 -8 -20 -8t-17 8l-16 48l-66 -15v-432l-61 -11v430zM191 950l73 -28q12 -5 12 -13q0 -11 -13 -13l-17 -3l-98 -164q29 -35 29 -64q0 -21 -14 -34q-9 -9 -21 -9q-9 0 -14 5q-7 5 -20 54q-10 38 -46 83l8 14l57 -31q37 96 64 203zM271 410
q82 -92 82 -176q0 -21 -11 -35.5t-27 -14.5q-10 0 -16 10q-5 7 -6 14q0 3 -7 83q-7 69 -27 111zM331 676l-9 27h130v221l68 -5q18 -2 18 -13q0 -6 -10 -12l-17 -8v-183h32l33 47l62 -53v-21h-127v-112q48 -15 78 -41q32 -29 32 -64q0 -25 -13 -37q-8 -8 -19 -8q-6 0 -12 3
q-8 6 -21 53q-9 34 -45 72v-474l-59 -11l-1 420q-47 -78 -99 -143l-15 13q40 70 73 173q27 84 38 156h-117zM651 58l-2 831l72 -35h140l22 34l58 -39q19 -12 19 -20q0 -7 -18 -12l-18 -5l1 -723l-63 -13v76h-150v-82zM712 385v-206l150 1v205h-150zM712 608v-195h150v195
h-150zM712 636h150v190l-150 1v-191z" />
  </g>

</svg>
