<?xml version="1.0" standalone="no"?>
<!DOCTYPE svg PUBLIC "-//W3C//DTD SVG 1.1//EN" "http://www.w3.org/Graphics/SVG/1.1/DTD/svg11.dtd" >
<svg xmlns="http://www.w3.org/2000/svg" xmlns:xlink="http://www.w3.org/1999/xlink" version="1.1" viewBox="0 -120 1000 1000">
  <g transform="matrix(1 0 0 -1 0 880)">
   <path fill="currentColor"
d="M47 99q43 132 44 310l74 -9q11 -1 11 -11q0 -7 -6 -9l-12 -6q-19 -91 -37 -146q-17 -54 -56 -135zM109 474l-6 -16q-5 -12 -12 -12q-8 0 -11 8l-39 75l112 7q61 103 149 287l60 -34q16 -9 16 -18q0 -14 -16 -14l-16 1l-161 -221l129 9q-15 35 -42 66l15 15q44 -35 62 -54
q38 -40 38 -87q0 -19 -12 -29q-8 -7 -18 -7q-12 0 -17 11q-1 1 -9 33q-3 13 -9 27l-70 -15l3 -444l-65 -10v439zM213 957l67 -29q17 -7 17 -14q0 -8 -13 -10l-17 -3l-100 -144q34 -33 34 -67q0 -26 -13 -38q-8 -8 -19 -8q-8 0 -15 5q-8 5 -19 44q-13 41 -59 85l7 17
q33 -8 62 -22q44 101 68 184zM294 416q83 -115 83 -197q0 -54 -41 -54q-17 0 -19 43q-3 103 -37 199zM355 670q82 116 113 280l76 -12q15 -2 15 -12q0 -8 -11 -11l-16 -5l-25 -54h312l23 36l66 -42q18 -11 18 -18q0 -9 -13 -13l-18 -6q-3 -210 -29 -268q-17 -38 -57 -51
q-15 -5 -27 -5q-8 0 -11 4q-1 1 -5 26q-1 6 -11 9l-62 16l1 19h111q17 33 23 87q4 38 6 179h-217l31 -9q11 -3 11 -10q0 -4 -8 -9l-19 -11l-3 -141l83 1v132l66 -6q17 -2 17 -11q0 -8 -12 -14l-16 -8l-1 -137l-54 -11l-1 30l-86 -1q-13 -37 -31 -58q-15 -17 -49 -41l27 -6
q17 -4 17 -12t-16 -14l-18 -6l-23 -37h311l28 41l58 -38q21 -14 21 -22q0 -11 -19 -16l-14 -4q-7 -170 -13 -222q-11 -82 -35 -107q-13 -14 -45 -23q-20 -5 -38 -5q-8 0 -11 3q0 1 -8 28q-2 7 -27 13l-55 14v18h140q30 82 30 259q0 8 -1 36h-336q-20 -30 -43 -58l32 -5
q16 -3 16 -10q0 -6 -10 -12l-14 -8v-95h85q6 56 6 104q0 25 -2 72l64 -9q21 -3 21 -12t-11 -15l-14 -8q-1 -30 -2 -73q-1 -32 -2 -59h79v136l67 -6q17 -2 17 -10q0 -6 -9 -11l-19 -12v-138l-56 -10v28h-83q-34 -132 -231 -164l-5 17q67 22 114 57q30 22 43 44q9 15 18 46
h-79v-29l-55 -11v155q-27 -29 -55 -54l-15 13q83 114 114 212q-41 -12 -79 -21l-6 17q76 26 104 45q44 32 58 83h-62v-29l-55 -11l-1 173q-31 -48 -79 -98zM468 786l39 -6q18 -2 18 -12q0 -6 -8 -11l-12 -7v-102l66 1q4 52 4 103q0 24 -1 77h-82z" />
  </g>

</svg>
