<?xml version="1.0" standalone="no"?>
<!DOCTYPE svg PUBLIC "-//W3C//DTD SVG 1.1//EN" "http://www.w3.org/Graphics/SVG/1.1/DTD/svg11.dtd" >
<svg xmlns="http://www.w3.org/2000/svg" xmlns:xlink="http://www.w3.org/1999/xlink" version="1.1" viewBox="0 -204 1024 1024">
  <g transform="matrix(1 0 0 -1 0 820)">
   <path fill="currentColor"
d="M197 952q98 -42 98 -61q0 -14 -53 -16q-32 -59 -82 -126q-41 -63 -91 -121q46 0 91 5q43 5 78 11q6 10 11 19q32 62 50 121q91 -39 91 -57q0 -13 -50 -15q-48 -76 -125 -162q-64 -81 -142 -158q33 5 60 11q37 6 81 19q35 9 78 23q-2 6 -5 11q-17 32 -47 66l14 18
q44 -33 70 -67q22 -26 33 -53q8 -19 8 -37q0 -35 -25 -35q-6 0 -12 6q-5 5 -11 25q-7 24 -14 42q-34 -19 -61 -30q-35 -16 -68 -28q-30 -13 -63 -21q-11 -37 -18 -37q-8 0 -49 84q77 86 124 151q30 39 52 74q-16 -6 -31 -11q-41 -14 -86 -25q-13 -30 -19 -30q-2 0 -6 6
q-20 34 -36 72v1h1q46 71 74 124q30 53 50 101q19 52 30 100zM67 240q40 -32 63 -65q20 -27 30 -53q7 -18 7 -36q0 -38 -27 -38q-6 0 -11 6q-4 5 -9 25q-13 47 -27 76q-15 31 -41 65zM182 284q46 -33 72 -67q24 -26 35 -53q8 -19 8 -37q0 -35 -25 -35q-6 0 -12 6
q-6 5 -12 25q-14 48 -32 77q-17 32 -48 66zM289 324q46 -29 71 -59q24 -24 35 -48q8 -17 8 -33q0 -32 -23 -32q-6 0 -12 5t-12 23q-14 43 -32 69q-17 28 -48 59zM585 952q43 -15 75 -29q5 -6 5 -11q0 -9 -16 -13q-19 -3 -27 -3q-10 -13 -22 -25q-13 -12 -26 -21q-3 -2 -7 -4
h293l35 33q51 -36 51 -50q0 -10 -30 -25v-191q0 -23 1 -30q1 -8 1 -16q0 -21 -34 -27q-16 0 -16 10v20h-100v-20q0 -43 2 -54q3 -12 11 -18q13 -8 33 -12q26 -6 55 -6q16 0 37 5q12 2 20 11q5 5 7 5q19 0 30 -9q13 -9 13 -24q0 -8 -2 -11q-2 -4 -10 -8q-14 -5 -41 -8
q-31 -5 -50 -5q-41 0 -81 8q-38 5 -50 16q-9 6 -14 18q-5 11 -7 30q-1 17 -1 64v18h-105q-5 -25 -13 -44q-9 -26 -28 -47q-18 -23 -41 -41t-56 -33q-36 -16 -85 -29l-16 20q49 16 77 32q28 15 48 31q17 16 31 32q13 18 22 42q5 16 10 37h-84v-20q0 -10 -12 -16
q-15 -6 -25 -6q-13 0 -13 14q0 4 1 14q1 23 1 42v210q0 49 -2 68l63 -30h35q12 14 21 25q8 12 16 27q7 15 13 27q4 12 7 27zM868 598v220h-388v-220h388zM721 808q43 -15 75 -29q5 -6 5 -11q0 -9 -16 -13q-19 -3 -27 -3q-21 -22 -46 -41q15 -6 27 -12q27 -12 49 -25
q9 -5 16 -12q6 -7 9 -13q4 -6 4 -13q0 -24 -17 -24q-2 0 -9 4q-11 10 -33 25q-20 16 -58 36q-10 5 -19 10q-29 -21 -60 -37q-40 -21 -97 -42l-16 10q51 27 87 50q24 18 45 38q-14 6 -27 11q-50 23 -97 35l17 20q64 -17 115 -37q10 -3 17 -6q18 18 31 33q16 21 25 46z
M590 452q98 -20 98 -36q0 -15 -55 -18q-14 -25 -29 -44h187l45 39q37 -28 60 -51q9 -6 9 -15q0 -6 -15 -16q-16 -10 -38 -15q-44 -69 -83 -108q-21 -23 -40 -38q21 -10 47 -19q57 -23 113 -34q50 -13 103 -18v-13q-61 0 -73 -38q-76 18 -124 41q-64 23 -109 52
q-35 -20 -73 -36q-51 -22 -102 -37q-54 -17 -123 -28l-8 18q85 20 123 36q38 14 94 38q26 14 53 32q-38 25 -65 53q-35 34 -62 74q-12 -11 -24 -19q-41 -28 -83 -48l-12 21q43 28 67 48q23 19 50 54q23 26 43 61q14 27 26 64zM546 290q31 -40 60 -64q35 -29 74 -52
q3 -2 7 -4q29 27 57 64q33 38 56 92h-219l-12 -12q-12 -14 -23 -24z" />
  </g>

</svg>
