<?xml version="1.0" standalone="no"?>
<!DOCTYPE svg PUBLIC "-//W3C//DTD SVG 1.1//EN" "http://www.w3.org/Graphics/SVG/1.1/DTD/svg11.dtd" >
<svg xmlns="http://www.w3.org/2000/svg" xmlns:xlink="http://www.w3.org/1999/xlink" version="1.1" viewBox="0 -204 1024 1024">
  <g transform="matrix(1 0 0 -1 0 820)">
   <path fill="currentColor"
d="M872 896q-57 -15 -117 -26q-26 -5 -51 -8v-180h164l41 45q34 -25 64 -49q7 -4 7 -10q0 -14 -14 -14h-262v-30q56 -13 111 -33q62 -25 93 -41q31 -19 42 -31q12 -13 20 -25q4 -10 4 -21q0 -21 -18 -21q-7 0 -17 7q-11 7 -26 20q-26 21 -47 36q-28 17 -68 37q-35 20 -94 47
v-101q0 -21 1 -26q2 -6 2 -37q0 -20 -39 -23q-15 0 -15 17q0 18 1 27q2 5 2 42v117q-19 -25 -38 -43q-44 -43 -94 -80q-49 -33 -127 -68l-13 18q68 39 111 70q36 29 68 66q31 32 57 76h-107q-71 -2 -97 -7l-20 47q44 -12 117 -12h143v174q-27 -4 -52 -6q-64 -6 -161 -10
l-7 23q52 3 110 10q55 7 106 18q55 10 94 22q39 10 64 23q21 9 39 20q39 -23 69 -47q5 -4 5 -8q0 -12 -15 -12q-14 0 -36 7zM481 820q44 -18 69 -37q22 -15 33 -30q8 -11 8 -21q0 -32 -23 -32q-6 0 -12 3q-5 3 -11 16q-14 28 -30 46q-17 19 -47 39zM843 852q41 -18 68 -35
q5 -3 5 -9q0 -7 -9 -10q-15 -5 -28 -6q-9 -13 -20 -25q-11 -13 -25 -24q-11 -11 -28 -22q-15 -11 -33 -21l-13 13q19 20 32 37l24 36q11 19 18 36q6 16 9 30zM454 436l63 -30h335l35 33q51 -36 51 -50q0 -10 -30 -25v-263q0 -23 1 -30q1 -8 1 -16q0 -21 -34 -27
q-16 0 -16 10v40h-356v-28q0 -10 -12 -16q-15 -6 -25 -6q-13 0 -13 14q0 4 1 14q1 23 1 42v270q0 49 -2 68zM504 106h152v128h-152v-128zM704 106h156v128h-156v-128zM504 262h152v116h-152v-116zM704 378v-116h156v116h-156zM211 940q91 -39 91 -57q0 -13 -50 -15
q-32 -60 -84 -129q-42 -64 -93 -123q49 0 94 5q44 5 82 12q6 9 10 18q32 62 50 121q91 -39 91 -57q0 -13 -50 -15q-48 -76 -125 -162q-63 -82 -140 -158q33 5 60 11q37 6 82 19q38 9 84 24q-2 5 -4 9q-17 35 -45 71l14 18q43 -35 67 -72q22 -28 33 -57q7 -21 7 -40
q0 -35 -25 -35q-6 0 -11 6t-11 27q-7 29 -15 50q-36 -20 -65 -32q-37 -16 -70 -28q-31 -13 -65 -21q-11 -37 -18 -37q-8 0 -49 84h2q77 86 122 150q30 40 53 75q-17 -6 -35 -11q-42 -14 -89 -25q-13 -30 -19 -30q-2 0 -6 6q-20 34 -36 73h2q48 70 78 123q31 54 51 102
q21 51 32 100zM79 228q38 -32 60 -65q20 -27 29 -53q7 -18 7 -36q0 -38 -27 -38q-5 0 -10 6q-4 5 -9 25q-12 47 -26 76q-14 31 -39 65zM182 272q44 -28 70 -56q22 -23 33 -46q8 -16 8 -31q0 -35 -25 -35q-6 0 -12 5q-5 4 -11 22q-14 41 -30 66q-17 28 -47 57zM293 312
q44 -25 69 -51q22 -20 33 -41q8 -14 8 -28q0 -32 -23 -32q-6 0 -12 5q-5 3 -11 19q-14 38 -30 60q-17 25 -47 52z" />
  </g>

</svg>
