<?xml version="1.0" standalone="no"?>
<!DOCTYPE svg PUBLIC "-//W3C//DTD SVG 1.1//EN" "http://www.w3.org/Graphics/SVG/1.1/DTD/svg11.dtd" >
<svg xmlns="http://www.w3.org/2000/svg" xmlns:xlink="http://www.w3.org/1999/xlink" version="1.1" viewBox="0 -410 2048 2048">
  <g transform="matrix(1 0 0 -1 0 1638)">
   <path fill="currentColor"
d="M1093 983l-39 88q95 -22 229 -22h148l80 80l114 -85q17 -13 17 -27q0 -26 -27 -26h-332q-111 0 -190 -8zM952 792v-30q0 -40 -61 -40q-48 0 -48 47l11 203v559l122 -62h209q9 84 10 168h-171q-123 0 -191 -8l-37 89q98 -23 228 -23h709l81 80l113 -86q17 -13 17 -26
q0 -26 -27 -26h-397v-168h213l68 76l83 -54q40 -26 40 -49q0 -27 -78 -61v-400q0 -67 6 -140q4 -40 4 -58q0 -52 -60 -52q-48 0 -48 31v30h-199l95 -20q84 -18 84 -46q0 -25 -49 -41l-40 -14v-61h135l80 80l114 -86q16 -13 16 -26q0 -26 -27 -26h-318v-302q0 -86 -67 -132
q-47 -33 -87 -38q-14 70 -53 93q-39 22 -159 43l6 46q169 -27 208 -27q54 0 54 57v260h-556q-73 0 -148 -11l-41 87q125 -18 189 -18h556v26q0 114 -6 156h-583zM952 1411v-244q98 48 144 100q51 56 79 144h-223zM952 1159v-309h796v305q-46 -8 -98 -8q-165 0 -202 38
q-26 28 -26 103v123h-155q-21 -89 -78 -155q-65 -75 -219 -127zM1422 1637h-131q-2 -84 -12 -168h143v168zM1520 1411v-113q0 -39 17 -50q24 -15 134 -15q21 0 77 7v171h-228zM971 1928l19 31q94 -49 138 -81q65 -45 65 -99q0 -32 -24 -51q-13 -11 -29 -11q-17 0 -28 11
q-9 8 -29 70q-16 50 -112 130zM1526 1712l-24 33q72 68 103 127q15 28 44 87l112 -50q31 -14 31 -30q0 -23 -24 -25l-54 -6q-87 -76 -188 -136zM968 501q241 -94 241 -196q0 -55 -46 -55q-20 0 -37 18q-4 4 -24 54q-24 57 -150 154zM638 873q-128 -55 -365 -136l-57 -20
l-13 -51q-5 -21 -17 -21q-17 0 -37 32l-69 115q142 115 356 491q-58 -22 -236 -71l-16 -50q-7 -20 -19 -20q-18 0 -36 35l-60 120q43 24 82 95q140 257 231 559l129 -56q39 -17 39 -41q0 -23 -47 -27l-44 -4q-15 -28 -68 -138q-97 -198 -242 -384q200 20 318 39
q69 137 120 283l127 -54q37 -16 37 -35q0 -28 -48 -32l-48 -3q-64 -162 -243 -401q-115 -154 -255 -294l25 5q245 49 443 108q-32 87 -100 184l27 23q203 -215 203 -329q0 -80 -55 -80q-42 0 -48 73q-4 46 -14 85zM359 596q227 -192 227 -307q0 -31 -19 -49q-14 -14 -29 -14
q-17 0 -29 15q-13 15 -31 85q-30 107 -143 244zM127 502q189 -197 189 -308q0 -29 -16 -50t-39 -21q-21 0 -32 17q-10 17 -19 85q-15 103 -109 256zM580 678q200 -159 200 -258q0 -29 -18 -49q-15 -16 -33 -16q-31 0 -52 86q-19 84 -121 212z" />
  </g>

</svg>
