<?xml version="1.0" standalone="no"?>
<!DOCTYPE svg PUBLIC "-//W3C//DTD SVG 1.1//EN" "http://www.w3.org/Graphics/SVG/1.1/DTD/svg11.dtd" >
<svg xmlns="http://www.w3.org/2000/svg" xmlns:xlink="http://www.w3.org/1999/xlink" version="1.1" viewBox="0 -120 1000 1000">
  <g transform="matrix(1 0 0 -1 0 880)">
   <path fill="currentColor"
d="M65 82q121 45 260 154l63 -33q12 -7 12 -11q0 -10 -16 -9h-18q-145 -86 -296 -115zM100 424v257l69 -32l225 -1l24 36l46 -30q19 -12 19 -19q0 -9 -12 -12l-14 -5v-162l-57 -9v20h-241v-35zM159 551v-62h88v62h-88zM159 624v-50h88v50h-88zM304 551v-62h96v62h-96z
M304 625v-51h96v51h-96zM172 245l-9 -13q-8 -13 -15 -13q-5 0 -13 15l-32 68h274q-7 7 -25 32q-22 30 -75 61l5 13q43 -4 89 -23q32 28 60 61l54 -21q25 -9 25 -15q-1 -10 -18 -8h-4l-19 1l-77 -29q26 -31 26 -45q0 -11 -12 -26h71q47 40 139 140l65 -27q14 -6 14 -12
q0 -8 -17 -8h-23l-138 -92l258 4q-41 33 -82 48l5 16q84 -12 131 -38q30 -17 46 -40q12 -19 12 -34q0 -14 -10 -24q-6 -6 -13 -6q-13 0 -33 23q-20 24 -28 32l-275 -20l1 -201l-65 -10l-1 208zM224 677v259l71 -35h421l25 39l55 -36q21 -14 21 -21q0 -8 -18 -11l-14 -4v-169
l-62 -10v26h-437v-29zM286 739h184l1 65l-185 -1v-64zM286 878v-52h185v52h-185zM531 803v-65l192 1v64h-192zM531 879v-53h192v53h-192zM546 432v247l70 -30h222l25 41l57 -37q16 -11 16 -18q0 -9 -11 -12l-15 -4v-168l-61 -10v26h-244v-25zM605 551v-62h88v62h-88z
M605 576h88l-1 50h-87v-50zM751 491h98v61l-98 -1v-60zM751 626v-52h98v52h-98zM607 234q108 -23 173 -52q95 -42 95 -84q0 -13 -10 -22q-8 -7 -18 -7q-13 0 -35 20q-100 90 -209 126z" />
  </g>

</svg>
