<?xml version="1.0" standalone="no"?>
<!DOCTYPE svg PUBLIC "-//W3C//DTD SVG 1.1//EN" "http://www.w3.org/Graphics/SVG/1.1/DTD/svg11.dtd" >
<svg xmlns="http://www.w3.org/2000/svg" xmlns:xlink="http://www.w3.org/1999/xlink" version="1.1" viewBox="0 -120 1000 1000">
  <g transform="matrix(1 0 0 -1 0 880)">
   <path fill="currentColor"
d="M45 136q37 102 47 273l61 -16q19 -6 20 -13q1 -6 -15 -14l-12 -5q-4 -14 -18 -70q-36 -108 -66 -161zM192 62v425l-80 -14l-10 -19q-5 -11 -13 -11q-9 0 -14 15l-25 65h85q91 169 139 294l57 -34q21 -12 21 -20q0 -11 -18 -11h-13q-36 -57 -73 -114q-55 -83 -75 -115
l126 6q-17 37 -37 67l12 10q97 -58 97 -128q0 -18 -11 -29q-10 -8 -21 -8q-15 0 -19 13q0 3 -10 43l-3 12l-53 -10v-428zM64 789q32 -15 58 -34q46 126 70 209l68 -37q17 -9 17 -18q0 -11 -14 -11h-19l-103 -156q36 -35 36 -70q0 -15 -11 -25q-9 -9 -21 -9q-11 0 -17 7
q-4 4 -19 52q-20 47 -55 78zM297 409q74 -67 74 -133q0 -42 -36 -42q-23 0 -25 37q-2 65 -28 128zM333 114q90 106 145 255q-32 37 -83 91l12 13q39 -24 86 -56q18 55 36 134l65 -28q14 -6 14 -13q0 -9 -16 -14l-13 -4q-28 -81 -43 -118q79 -83 79 -139q0 -21 -11 -30
q-7 -7 -16 -7q-11 0 -19 9q-9 9 -30 60q-11 26 -27 51q-43 -84 -84 -134q-23 -27 -77 -80zM362 553q38 78 57 166l63 -31q13 -7 13 -11q0 -5 -13 -11l-25 -11q-49 -76 -80 -111zM380 755l-14 27h93v170l70 -10q25 -3 25 -14q0 -8 -15 -12l-17 -5v-129h15l40 47l67 -55v-19
h-264zM529 711q115 -70 115 -122q0 -16 -12 -27q-10 -10 -21 -10q-7 0 -13 7q-5 5 -22 49q-14 37 -60 93zM548 81q116 77 189 146l45 -40q12 -11 12 -17q0 -8 -20 -8h-25q-90 -55 -191 -94zM651 861l-13 27h205l43 53l74 -63v-17h-115l-60 -123h71l23 34l66 -40
q13 -8 13 -15t-14 -12l-19 -6v-456l-64 -10v31h-136v-31l-59 -8v548l73 -35h18l17 123h-123zM725 409v-120h136v120h-136zM725 561v-124h136v124h-136zM725 711v-123h136v123h-136zM821 230q68 -27 105 -62q41 -38 41 -70q0 -35 -30 -35q-10 0 -18 6q-7 7 -29 55
q-21 43 -81 94z" />
  </g>

</svg>
