<?xml version="1.0" standalone="no"?>
<!DOCTYPE svg PUBLIC "-//W3C//DTD SVG 1.1//EN" "http://www.w3.org/Graphics/SVG/1.1/DTD/svg11.dtd" >
<svg xmlns="http://www.w3.org/2000/svg" xmlns:xlink="http://www.w3.org/1999/xlink" version="1.1" viewBox="0 -410 2048 2048">
  <g transform="matrix(1 0 0 -1 0 1638)">
   <path fill="currentColor"
d="M145 813l17 3q204 36 400 90l15 4q-25 61 -83 154l26 23q97 -103 123 -139q60 -83 60 -156q0 -47 -27 -67q-18 -12 -32 -12q-18 0 -29 19q-7 12 -13 73q-3 24 -13 68q-117 -55 -374 -144l-11 -52q-5 -24 -20 -24t-36 33l-72 115q141 143 305 472q-51 -16 -114 -32
q-39 -11 -66 -19l-17 -50q-7 -21 -19 -21q-18 0 -36 36l-60 122q49 44 81 109q122 251 183 532l121 -55q29 -13 29 -26q0 -18 -29 -25l-46 -11l-10 -24q-94 -219 -136 -298q-50 -93 -117 -197q139 11 267 23q60 131 102 272l118 -53q36 -16 36 -40q0 -23 -36 -27l-48 -6
q-172 -385 -439 -670zM1429 1757q-77 -130 -133 -205l-32 19q98 224 133 395l135 -50q31 -11 31 -27q0 -20 -28 -26l-57 -12l-19 -37h270l80 80l114 -85q16 -13 16 -26q0 -26 -27 -26h-483zM1271 1515l112 -58h425l61 72l72 -50q43 -29 43 -50q0 -16 -66 -52v-242
q0 -37 -59 -37q-29 0 -29 17v33h-471v-10q0 -40 -65 -40q-23 0 -23 24v393zM1359 1202h88v201h-88v-201zM1535 1202h100v201h-100v-201zM1723 1202h107v201h-107v-201zM298 600q105 -92 147 -143q61 -76 61 -139q0 -70 -53 -70q-20 0 -31 15t-24 80q-10 49 -50 126
q-4 7 -75 108zM695 1915l110 -56h256l80 81l114 -86q17 -13 17 -26q0 -27 -27 -27h-238v-152h83l61 72l72 -49q42 -29 42 -50q0 -16 -65 -52v-126l38 -28q10 -7 10 -22q0 -24 -18 -24h-223v-168h70l81 72l80 -72q20 -18 20 -29q0 -25 -28 -25h-447q-23 -9 -43 -9
q-33 0 -42 14q-3 4 -3 26v736zM783 1202h136v168h-136v-168zM783 1428h328v167h-328v-167zM783 1649h136v152h-136v-152zM1673 1610l80 80l114 -86q17 -12 17 -26q0 -26 -27 -26h-286q-64 0 -149 -11l-39 86q126 -17 188 -17h102zM93 526q189 -197 189 -308q0 -29 -16 -50
t-39 -21q-21 0 -32 17t-19 86q-10 94 -109 254zM506 704q104 -83 144 -127q66 -73 66 -138q0 -34 -22 -53q-12 -12 -28 -12q-18 0 -27 12q-12 14 -28 76q-22 84 -128 216zM1464 480v-146q0 -71 30 -82q38 -14 162 -14q115 0 146 7q44 11 59 55q16 51 35 203l34 -6l-3 -133
q-1 -38 7 -64q4 -14 46 -50q17 -15 17 -30q0 -75 -345 -75q-181 0 -225 20q-59 26 -59 115v200h-143q-63 -213 -283 -291q-98 -35 -348 -70l-7 42q36 7 54 11q241 44 336 114q103 75 135 194h-131v-39q0 -31 -53 -31q-54 0 -54 44q0 4 4 49q7 98 7 105v499l123 -66h597
l65 72l72 -50q42 -28 42 -48q0 -31 -63 -46v-377l5 -53q7 -90 7 -96q0 -48 -64 -48q-42 0 -42 23v62h-163zM981 536h646v115h-646v-115zM981 705h646v112h-646v-112zM981 873h646v112h-646v-112z" />
  </g>

</svg>
