<?xml version="1.0" standalone="no"?>
<!DOCTYPE svg PUBLIC "-//W3C//DTD SVG 1.1//EN" "http://www.w3.org/Graphics/SVG/1.1/DTD/svg11.dtd" >
<svg xmlns="http://www.w3.org/2000/svg" xmlns:xlink="http://www.w3.org/1999/xlink" version="1.1" viewBox="0 -120 1000 1000">
  <g transform="matrix(1 0 0 -1 0 880)">
   <path fill="currentColor"
d="M46 599h140v177h-52q-41 -95 -75 -145l-13 4q47 127 69 314l78 -18q14 -4 14 -12t-14 -12l-17 -6q-14 -49 -32 -98h141l36 44l66 -53v-18h-141v-177h55l36 45l69 -56v-16h-160v-331h51v270l72 -6q16 -2 16 -11q0 -7 -12 -12l-16 -7v-298l-60 -9v46h-163v-86l-59 -9v392
l71 -9q14 -1 14 -9q0 -6 -11 -11l-15 -7v-234h52v331h-129zM475 873l70 -18q12 -3 12 -11q0 -7 -12 -9l-11 -2q-19 -17 -61 -57q-71 -65 -145 -102l-10 11q110 105 157 188zM393 287l-10 27h361v57l68 -7q18 -1 18 -11q0 -7 -11 -13l-13 -7v-19h52l38 44l63 -51v-20h-153
v-156q0 -33 -15 -45q-12 -8 -38 -14q-24 -6 -32 -6q-6 0 -8 4q-3 3 -5 21q-1 14 -18 18l-49 13v15h103v150h-351zM427 353v356l66 -34h53v62h-61l-10 27h213l35 38l56 -46v-19h-81v-62h93l20 30l60 -35q13 -7 13 -15t-12 -12l-14 -6v-250l-62 -10v22h-311v-35zM485 426h311
v44h-311v-44zM485 520v-23h311v68q-14 -21 -40 -22h-72q-22 1 -31 11q-7 8 -7 28v66h-53q-5 -35 -12 -50q-19 -43 -96 -78zM485 648v-107q56 45 59 107h-59zM595 737v-62h51v62h-51zM698 648v-55q0 -5 5 -6h28q14 2 18 19l5 21h16v-21q2 -18 26 -20v62h-98zM489 261l9 11
q33 -13 52 -31q35 -31 35 -68q0 -25 -15 -38q-10 -9 -21 -9t-18 9q-5 7 -15 61q-5 24 -27 65zM516 886l-12 27h205l19 28l48 -28q16 -9 16 -18q0 -8 -20 -13l-18 -4q55 -88 202 -158l-7 -14q-3 1 -5 1q-26 2 -48 -30q-60 39 -104 93q-33 40 -68 116h-208z" />
  </g>

</svg>
