<?xml version="1.0" standalone="no"?>
<!DOCTYPE svg PUBLIC "-//W3C//DTD SVG 1.1//EN" "http://www.w3.org/Graphics/SVG/1.1/DTD/svg11.dtd" >
<svg xmlns="http://www.w3.org/2000/svg" xmlns:xlink="http://www.w3.org/1999/xlink" version="1.1" viewBox="0 -204 1024 1024">
  <g transform="matrix(1 0 0 -1 0 820)">
   <path fill="currentColor"
d="M116 950l58 -34h674l28 34q52 -33 52 -44t-30 -30v-128q0 -17 -32 -22q-14 0 -14 8v14h-688v-4q0 -7 -12 -13q-17 -5 -24 -5q-12 0 -12 12v212zM164 778h190v110h-190v-110zM402 778h204v110h-204v-110zM654 778h198v110h-198v-110zM270 742q40 -17 68 -37q4 -3 4 -7
q0 -6 -8 -10q-18 -5 -32 -6q-9 -11 -22 -20q-16 -8 -30 -16q-14 -10 -36 -18q-7 -4 -14 -6q21 -10 41 -20q28 -16 46 -27q14 -9 22 -16q6 -9 9 -15q6 -5 6 -12q0 -15 -8 -24h212l-14 20q-15 22 -38 42q-16 16 -46 36l-1 1q-4 4 -9 7l2 1l-2 1q18 17 33 34q14 13 24 29
q12 19 21 31q7 16 10 28q40 -19 65 -36q7 -3 7 -8q0 -6 -12 -10q-14 -6 -28 -8q-11 -10 -22 -18q-11 -10 -24 -18q-13 -10 -29 -19q-7 -4 -12 -5q22 -10 41 -22q26 -15 43 -24q15 -9 21 -16q5 -8 9 -14q3 -6 3 -10q0 -14 -4 -22h194l26 32q54 -29 54 -44q0 -9 -30 -26v-164
q0 -20 -32 -26q-14 0 -14 8v14h-234v-58h332l44 48q36 -23 69 -49q7 -5 7 -11q0 -14 -10 -14h-408q33 -23 70 -39q47 -24 105 -44q62 -21 121 -34q60 -13 112 -21v-16q-51 0 -70 -28q-58 15 -105 32q-55 21 -92 42q-46 22 -88 45q-39 26 -83 63h-4v-110q0 -21 4 -30
q2 -16 2 -28q0 -32 -32 -32q-26 0 -26 14q0 23 2 56q2 34 2 60v70q-26 -28 -59 -46q-44 -29 -97 -54q-47 -21 -109 -45q-59 -19 -145 -45l-14 22q84 23 144 47q57 20 103 48q44 20 77 45q18 14 34 28h-256q-72 -1 -98 -4l-20 44q44 -14 118 -14h322v58h-238v-4
q0 -11 -14 -16q-15 -6 -22 -6q-12 0 -12 12v252l60 -32h28q-9 10 -20 23q-17 26 -40 44q-21 22 -60 45l2 2l-2 2q22 18 41 33q15 13 31 30q14 15 22 28q9 15 12 27zM244 328h238v66h-238v-66zM530 394v-66h234v66h-234zM244 420h238v62h-238v-62zM530 482v-62h234v62h-234z
M768 738q40 -19 66 -36q6 -3 6 -8q0 -6 -12 -10q-16 -6 -28 -8q-10 -10 -23 -18q-11 -10 -25 -18q-13 -10 -29 -19q-5 -3 -9 -4q23 -5 43 -10q36 -9 55 -17q22 -6 32 -11q7 -4 10 -6q4 -3 4 -7q-1 -34 -22 -34q-9 0 -15 2q-7 3 -28 21q-25 16 -53 27q-27 15 -76 32l12 10
q4 -1 6 -1q17 16 29 27q14 13 24 29q15 19 22 31q8 16 11 28z" />
  </g>

</svg>
