<?xml version="1.0" standalone="no"?>
<!DOCTYPE svg PUBLIC "-//W3C//DTD SVG 1.1//EN" "http://www.w3.org/Graphics/SVG/1.1/DTD/svg11.dtd" >
<svg xmlns="http://www.w3.org/2000/svg" xmlns:xlink="http://www.w3.org/1999/xlink" version="1.1" viewBox="0 -120 1000 1000">
  <g transform="matrix(1 0 0 -1 0 880)">
   <path fill="currentColor"
d="M44 357l153 29q3 31 5 66l2 60h-124l-13 27h137v158h-141l-14 26h192q43 94 68 212l75 -29q14 -5 14 -14q0 -8 -14 -12l-24 -6l-91 -151h52l39 48l70 -53v-21h-166v-158h47l42 46l67 -52v-21h-156q-1 -31 -6 -114l166 30l6 -19l-179 -55q-29 -150 -179 -280l-13 14
q104 109 131 247l-81 -25l-4 -14q-4 -13 -11 -13t-15 14zM83 933q55 -42 75 -69q30 -39 30 -74q0 -34 -31 -34q-15 0 -22 9q-5 7 -8 30q-12 83 -55 123zM335 102l-13 28h319l52 54l84 -62v-20h-442zM403 215l-4 -16q-3 -13 -11 -13t-14 11l-38 67l116 15v593l64 -29
q133 22 281 90l59 -53q12 -10 12 -15q0 -8 -9 -8q-3 0 -12 1l-32 6q-66 -13 -98 -18l2 -111q4 -113 6 -144h88l43 52l81 -60v-19h-209q16 -156 43 -229q20 -56 67 -113q10 -13 24 -26q19 40 35 80l24 58l16 -3l-16 -113q-4 -25 -4 -34q0 -17 30 -44q-20 -29 -46 -29
q-51 0 -121 85q-69 85 -95 219q-12 62 -18 149h-153v-277l175 25l5 -20zM514 821v-230h151q-6 111 -9 245q-81 -11 -142 -15z" />
  </g>

</svg>
