<?xml version="1.0" standalone="no"?>
<!DOCTYPE svg PUBLIC "-//W3C//DTD SVG 1.1//EN" "http://www.w3.org/Graphics/SVG/1.1/DTD/svg11.dtd" >
<svg xmlns="http://www.w3.org/2000/svg" xmlns:xlink="http://www.w3.org/1999/xlink" version="1.1" viewBox="0 -140 1000 1000">
  <g transform="matrix(1 0 0 -1 0 860)">
   <path fill="currentColor"
d="M821 457l41 51h17l59 -53v-21h-467l-24 -47q64 -94 137 -155q69 75 126 182l77 -48l-5 -15l-35 -3q-64 -91 -123 -148q65 -47 133 -69t181 -33v-14q-30 -10 -48 -48q-96 16 -162.5 44t-140.5 84q-94 -61 -169.5 -87t-191.5 -37l-4 14q120 28 193 61t133 86
q-53 58 -113 161q-76 -129 -160.5 -196.5t-208.5 -118.5l-8 15q131 75 206.5 156.5t137.5 215.5h-319v23h329l38 105l97 -40l-5 -14l-41 -13l-19 -38h339zM629 549l6 16q10 -2 25 -3q125 -14 125 -73q0 -26 -16 -26t-45 26q-44 38 -95 60zM407 888l31 31h14l47 -40v-14
l-21 -17l-1 -259l-5 -11l-53 -13l-6 5v122q-108 -70 -265 -121l-6 14q88 41 143.5 78t127.5 103v66q-90 -54 -144.5 -78.5t-140.5 -49.5l-7 13q135 62 238 149h-244v22h292zM825 888l31 31h14l47 -40v-14l-21 -17l-1 -259l-5 -11l-53 -13l-6 5v122q-108 -70 -265 -121l-7 14
q90 41 145.5 78t126.5 103v66q-87 -54 -142.5 -78.5t-142.5 -49.5l-7 13q135 62 238 149h-243v22h291z" />
  </g>

</svg>
