<?xml version="1.0" standalone="no"?>
<!DOCTYPE svg PUBLIC "-//W3C//DTD SVG 1.1//EN" "http://www.w3.org/Graphics/SVG/1.1/DTD/svg11.dtd" >
<svg xmlns="http://www.w3.org/2000/svg" xmlns:xlink="http://www.w3.org/1999/xlink" version="1.1" viewBox="0 -410 2048 2048">
  <g transform="matrix(1 0 0 -1 0 1638)">
   <path fill="currentColor"
d="M407 458l99 -47q28 -13 28 -29q0 -29 -39 -32l-52 -3q-158 -186 -368 -278l-20 31q215 146 322 358h-108v-12q0 -40 -58 -40q-50 0 -50 47l12 203v459q0 57 -11 167l119 -80h182h310l68 76l84 -54q40 -26 40 -48q0 -28 -77 -61v-417q0 -89 10 -191q4 -42 4 -58
q0 -52 -59 -52q-47 0 -47 32v29h-389zM796 518v176h-527v-176h527zM796 750v176h-527v-176h527zM796 982v163h-353h-174v-163h527zM795 1472h18l80 82l114 -87q17 -13 17 -26q0 -26 -27 -26h-202v-17q0 -38 4 -72q4 -39 4 -44q0 -37 -54 -37q-44 0 -44 27v143h-362v-9
q0 -37 4 -72q4 -38 4 -43q0 -41 -59 -41q-43 0 -42 26l3 139q-77 -1 -149 -9l-39 84q110 -16 188 -18v28q-4 144 -7 160l106 -27q69 -18 69 -43q0 -21 -47 -36l-31 -11v-71h362v28q-4 144 -7 160l105 -27q70 -18 70 -43q0 -21 -47 -36l-31 -11v-71zM572 1726v-35
q0 -37 3 -72q4 -38 4 -43q0 -42 -57 -42q-41 0 -41 27v165h-149q-68 0 -148 -11l-40 88q119 -20 188 -20h149v20q-4 145 -7 160l105 -27q70 -18 70 -42q0 -22 -47 -37l-30 -11v-63h165l80 79l114 -84q17 -12 17 -26q0 -26 -27 -26h-349zM1760 1031l29 -19
q-42 -103 -133 -249q-32 -51 -52 -79q7 -34 7 -49q0 -31 -19 -31t-37 23l-80 100q144 103 285 304zM1509 1560q94 -63 153 -115q100 -88 100 -169q0 -25 -15.5 -45.5t-35.5 -20.5q-21 0 -35 19q-9 13 -24 70q-28 104 -165 236zM1023 1554q253 -167 253 -283q0 -33 -24 -54
q-13 -11 -26 -11q-22 0 -36 19q-9 13 -24 71q-27 102 -164 235zM1263 1029l29 -19q-42 -103 -133 -248q-32 -52 -51 -80q6 -34 6 -49q0 -31 -19 -31t-37 23l-80 100q143 102 285 304zM617 422q342 -139 342 -276q0 -29 -21 -48q-11 -11 -26 -11q-20 0 -35 14q-13 13 -43 72
q-56 113 -235 220zM1760 94q-2 67 -44 94q-32 21 -159 43l8 46q167 -27 201 -27q57 0 57 57v1476h-108q-97 0 -181 -8l-38 88q94 -23 219 -23h91l68 76l79 -53q40 -27 40 -50q0 -28 -78 -61v-1486q0 -143 -155 -172zM1247 94q-2 67 -43 94q-33 21 -160 43l8 46
q167 -27 201 -27q57 0 57 57v1476h-108q-63 0 -147 -8l-38 88q94 -23 185 -23h91l68 76l79 -53q40 -27 40 -50q0 -28 -78 -61v-1486q0 -143 -155 -172z" />
  </g>

</svg>
