<?xml version="1.0" standalone="no"?>
<!DOCTYPE svg PUBLIC "-//W3C//DTD SVG 1.1//EN" "http://www.w3.org/Graphics/SVG/1.1/DTD/svg11.dtd" >
<svg xmlns="http://www.w3.org/2000/svg" xmlns:xlink="http://www.w3.org/1999/xlink" version="1.1" viewBox="0 -140 1000 1000">
  <g transform="matrix(1 0 0 -1 0 860)">
   <path fill="currentColor"
d="M835 854l35 30h15l54 -43v-13l-27 -17v-234l-5 -16l-47 -20l-12 5v35h-270v-179h276l34 35h15l47 -45v-15l-18 -15v-252l-5 -19l-44 -17l-15 5v62h-290v-54l-5 -16l-51 -13l-9 6v825l67 -35h255zM578 380v-218h290v218h-290zM578 833v-230h270v230h-270zM217 645v111
q-96 -13 -157 -16l-1 12q111 21 158 38v138l89 -24v-16l-25 -14v-63q58 21 117 49l42 -69l-13 -8l-26 13l-44 -12q-49 -13 -76 -19v-120h52l36 39h10l48 -46v-15h-146v-127h93l34 37h12l48 -47v-13h-187v-52q125 -62 125 -116q0 -18 -9.5 -32.5t-20.5 -14.5q-16 0 -36 51
q-13 36 -59 89v-326l-10 -14l-44 -11l-10 8v284q-71 -106 -142 -157l-8 7q52 70 79.5 129.5t50.5 154.5h-141v23h161v127h-131v22h131z" />
  </g>

</svg>
