<?xml version="1.0" standalone="no"?>
<!DOCTYPE svg PUBLIC "-//W3C//DTD SVG 1.1//EN" "http://www.w3.org/Graphics/SVG/1.1/DTD/svg11.dtd" >
<svg xmlns="http://www.w3.org/2000/svg" xmlns:xlink="http://www.w3.org/1999/xlink" version="1.1" viewBox="0 -204 1024 1024">
  <g transform="matrix(1 0 0 -1 0 820)">
   <path fill="currentColor"
d="M84 954l58 -44h208l34 44q36 -24 51 -43q7 -7 7 -13q0 -11 -34 -32v-56q0 -75 2 -99q2 -28 2 -47q0 -12 -12 -21q-14 -7 -20 -7q-22 0 -22 14v14h-224v-610q0 -12 -18 -12q-11 0 -24 5q-8 9 -8 21q0 19 1 47q5 24 5 99v670q0 39 -6 70zM134 694h224v84h-224v-84zM134 804
h224v76h-224v-76zM570 954l62 -44h244l30 44q36 -24 52 -43q10 -7 10 -13q0 -11 -40 -32v-754q0 -34 -16 -50q-13 -16 -34 -27t-34 -11q0 25 -9 35q-12 11 -35 20q-28 12 -62 15v22q64 -14 114 -14q18 0 25 4q7 5 7 28v530h-260v-18q0 -14 -22 -14q-7 0 -20 7q-12 9 -12 21
q0 18 3 47q7 24 7 97v80q0 39 -10 70zM624 694h260v84h-260v-84zM624 804h260v76h-260v-76zM204 588q43 -12 114 -12h372l44 48q36 -23 69 -49q7 -3 7 -9q0 -18 -10 -18h-128v-322h40l44 48q36 -27 66 -49q8 -5 8 -11q0 -18 -12 -18h-146v-62q0 -23 2 -30q2 -15 2 -28
q0 -26 -30 -26q-22 0 -22 14q0 21 2 49q2 33 2 57v26h-326q-70 -1 -94 -4l-22 44q44 -10 116 -10h22v322h-6q-69 -1 -96 -4zM368 226h260v92h-260v-92zM368 346h260v80h-260v-80zM368 452h260v96h-260v-96z" />
  </g>

</svg>
