<?xml version="1.0" standalone="no"?>
<!DOCTYPE svg PUBLIC "-//W3C//DTD SVG 1.1//EN" "http://www.w3.org/Graphics/SVG/1.1/DTD/svg11.dtd" >
<svg xmlns="http://www.w3.org/2000/svg" xmlns:xlink="http://www.w3.org/1999/xlink" version="1.1" viewBox="0 -120 1000 1000">
  <g transform="matrix(1 0 0 -1 0 880)">
   <path fill="currentColor"
d="M109 236l-5 -12q-5 -13 -14 -13q-7 0 -14 14l-29 63l72 7v562h-50l-16 27h236l41 51l88 -57v-21h-80v-784l-58 -13v233zM179 485v-183l101 12v171h-101zM179 672v-160h101v160h-101zM179 857v-158h101v158h-101zM473 321q2 -31 2 -47q0 -68 -18 -109q-20 -47 -48 -47
q-11 0 -19 9q-9 10 -9 25t5 24q4 6 24 30q24 28 40 82q4 16 7 33h16zM429 380v481l74 -25h67q15 41 34 120l66 -14q20 -4 20 -17q0 -7 -12 -10l-20 -6l-61 -73h219l22 34l66 -39q15 -8 15 -16q0 -9 -16 -13l-20 -4v-388l-59 -12v35h-336v-41zM488 461h336v348h-169l28 -15
q14 -8 14 -13q0 -9 -12 -12l-11 -2l-16 -29h80l19 26l46 -37q9 -7 9 -12q0 -9 -14 -11l-16 -2q-14 -31 -62 -96q50 -37 50 -66q0 -20 -20 -20q-16 0 -27 11q-29 30 -35 36q-52 -55 -120 -93l-11 15q70 58 105 103q-33 27 -72 51q-21 -25 -58 -61l-16 12q34 42 48 64
q-20 11 -46 21l5 16q16 -2 55 -14q44 70 57 128h-147v-348zM641 710q-16 -23 -29 -41q53 -24 77 -40q11 19 46 81h-94zM803 245l-2 -67v-4q-2 -22 12 -33q3 -2 28 -10q-15 -54 -81 -56h-168q-60 -1 -60 51v240l67 -7q22 -2 22 -13q0 -7 -13 -13l-20 -8v-171q1 -23 20 -23
h111q27 0 37 13q7 9 16 51l10 50h21zM635 389q33 -13 64 -41q29 -27 40 -45q8 -12 8 -28q0 -37 -29 -37q-14 0 -23 10q-5 5 -22 57q-13 37 -47 71zM819 339q42 -17 78 -48q58 -50 58 -100q0 -21 -12 -31q-9 -8 -18 -8q-10 0 -16 6q-6 7 -17 37q-35 95 -84 130z" />
  </g>

</svg>
