<?xml version="1.0" standalone="no"?>
<!DOCTYPE svg PUBLIC "-//W3C//DTD SVG 1.1//EN" "http://www.w3.org/Graphics/SVG/1.1/DTD/svg11.dtd" >
<svg xmlns="http://www.w3.org/2000/svg" xmlns:xlink="http://www.w3.org/1999/xlink" version="1.1" viewBox="0 -204 1024 1024">
  <g transform="matrix(1 0 0 -1 0 820)">
   <path fill="currentColor"
d="M146 616q98 -20 98 -36q0 -15 -55 -18q-12 -31 -25 -52h176l41 45q34 -25 64 -49q7 -4 7 -10q0 -14 -14 -14h-154q-1 -84 -6 -136h86l42 45q33 -25 63 -49q7 -4 7 -10q0 -14 -14 -14h-189q-5 -23 -10 -42q34 -19 61 -39q33 -21 51 -37q19 -15 28 -26q7 -10 11 -19
q4 -8 4 -17q-1 -30 -22 -30q-7 0 -13 4q-6 5 -27 38t-47 59q-21 21 -53 46q-6 -21 -15 -38q-24 -47 -54 -80q-35 -36 -70 -62q-36 -23 -85 -43l-12 19q41 21 71 42q27 21 51 45q23 28 44 61q18 30 30 68q6 23 10 51h-85q-71 -2 -97 -7l-20 47q44 -12 117 -12h89q1 5 1 8
q5 45 5 128h-91q-18 -28 -41 -50q-25 -26 -52 -44l-12 21q23 26 38 43q13 18 28 50q14 23 25 56q8 24 15 58zM468 418q44 -12 117 -12h63v108h-30q-79 0 -96 -7l-18 43q40 -8 114 -8h30v120h-71q-71 -2 -97 -7l-20 47q44 -12 117 -12h71v116h-21q-80 0 -97 -7l-18 43
q40 -8 115 -8h21v38q0 54 -6 80q59 -7 97 -23q13 -4 13 -14t-13 -13q-19 -10 -43 -12v-56h109l31 38q34 -22 50 -40q7 -6 7 -12q0 -9 -35 -30v-100h34l32 32q27 -20 50 -38q6 -3 6 -8q0 -14 -11 -14h-111v-18q0 -68 2 -90q1 -26 1 -42q0 -15 -10 -22q-13 -6 -22 -6
q-15 0 -15 12v18h-118v-108h116l43 47q35 -26 65 -50q8 -5 8 -11q0 -14 -14 -14h-218v-112h168l47 53q38 -29 72 -55q9 -6 9 -12q0 -14 -16 -14h-280v-128q0 -23 1 -31v-29q0 -34 -30 -34q-26 0 -26 18q0 20 3 54q4 34 4 60v90h-111q-71 -2 -97 -7l-20 47q44 -12 117 -12
h111v112h-63q-71 -2 -97 -7zM696 542h118v120h-118v-120zM814 690v116h-118v-116h118zM364 875q32 -25 61 -47q7 -5 7 -10q0 -14 -14 -14h-268v-57q0 -27 5 -40q4 -10 14 -15q9 -7 36 -8q29 -5 61 -5q34 0 65 3q25 3 42 10q16 6 25 6q15 0 25 -7q9 -8 11 -23q0 -6 -3 -7
q-3 -6 -12 -9q-18 -5 -45 -7q-48 -5 -93 -5q-55 0 -92 5q-26 1 -39 8q-15 5 -23 14q-13 11 -17 26t-4 41v152q0 32 -3 54q45 -8 76 -19q7 -4 7 -11q0 -9 -10 -14t-26 -10v-54h174z" />
  </g>

</svg>
