<?xml version="1.0" standalone="no"?>
<!DOCTYPE svg PUBLIC "-//W3C//DTD SVG 1.1//EN" "http://www.w3.org/Graphics/SVG/1.1/DTD/svg11.dtd" >
<svg xmlns="http://www.w3.org/2000/svg" xmlns:xlink="http://www.w3.org/1999/xlink" version="1.1" viewBox="0 -410 2048 2048">
  <g transform="matrix(1 0 0 -1 0 1638)">
   <path fill="currentColor"
d="M655 1001q-88 -73 -271 -186l6 -42l1 -5q3 -25 -24 -25q-21 0 -44 30l-47 58l-2 -34q-10 -210 -44 -360q-35 -154 -123 -338l-36 14q54 159 74 284q22 134 32 317q8 144 8 207v837q0 84 -13 173l109 -77h354l68 77l81 -55q43 -30 43 -49q0 -32 -77 -59v-1498
q0 -145 -159 -171q-2 67 -43 93q-32 21 -158 43l7 42q167 -27 201 -27q57 0 57 57v694zM655 1051v211q-15 -28 -42 -28q-25 0 -56 30q-86 87 -276 143v-360q0 -74 -4 -167q199 72 378 171zM655 1324v471h-374v-344q33 -7 70 -13q110 -19 197 -44q79 -22 107 -70zM819 128
l-22 27q146 165 245 355q67 130 88 202q31 108 42 142l154 -67q31 -13 31 -28q0 -24 -42 -29l-62 -6q-74 -167 -188 -329q-111 -158 -246 -267zM1097 1829h607l68 76l84 -54q41 -27 41 -49q0 -27 -78 -61v-662l51 -31q23 -14 23 -36q0 -20 -18 -20h-785v-69q0 -28 -43 -28
q-61 0 -61 51l9 161v638q0 6 -10 167zM1090 1048h635v724h-566h-69v-724zM1559 808q153 -146 252 -296q125 -190 125 -302q0 -53 -33 -78q-17 -12 -37 -12q-39 0 -56 43q-6 17 -24 138q-19 128 -97 258q-62 105 -154 226z" />
  </g>

</svg>
