<?xml version="1.0" standalone="no"?>
<!DOCTYPE svg PUBLIC "-//W3C//DTD SVG 1.1//EN" "http://www.w3.org/Graphics/SVG/1.1/DTD/svg11.dtd" >
<svg xmlns="http://www.w3.org/2000/svg" xmlns:xlink="http://www.w3.org/1999/xlink" version="1.1" viewBox="0 -204 1024 1024">
  <g transform="matrix(1 0 0 -1 0 820)">
   <path fill="currentColor"
d="M86 942l56 -36h138l30 44q36 -24 54 -43q8 -7 8 -15q0 -9 -40 -30v-754q0 -34 -16 -50q-12 -16 -31 -27q-21 -11 -33 -11q0 25 -8 35q-11 11 -31 20q-25 12 -53 15v22q53 -14 98 -14q17 0 24 5q6 4 6 27v339q-15 -16 -25 -23q-20 -20 -42 -36q-17 -13 -39 -24
q-10 -32 -14 -32q-6 0 -31 44q-1 -38 -4 -74q-2 -50 -9 -103q-7 -43 -20 -79q-11 -35 -25 -65q-14 -25 -39 -53l-12 8q13 25 21 53q9 22 18 51q7 30 12 70q6 49 7 98q4 63 4 144q1 308 -4 494zM138 430q26 7 44 15q27 8 57 26l49 28v112q-6 -5 -14 -5q-4 0 -14 6
q-37 27 -77 47q-24 12 -45 19v-248zM138 702q39 -2 68 -9q37 -9 53 -22q22 -12 27 -25q2 -2 2 -4v234h-150v-174zM386 832q44 -10 118 -10h138q-1 82 -6 136q47 -7 82 -18q12 -2 12 -16q0 -7 -12 -13q-13 -8 -28 -13v-76h162l46 54q40 -28 73 -54q9 -5 9 -12q0 -18 -16 -18
h-274v-94q0 -80 -4 -139q6 -55 15 -99q16 -71 44 -132q26 -60 64 -110q34 -45 86 -91q41 -37 91 -47v-12q-48 0 -72 -36q-69 55 -111 116q-43 62 -74 133q-32 77 -47 148q-2 17 -5 32q-12 -86 -37 -149q-20 -70 -57 -119q-47 -64 -91 -100q-56 -42 -116 -65l-12 18
q87 46 131 97q41 46 70 105q28 53 46 128q17 62 25 149q6 81 6 173v94h-138q-72 -1 -96 -4zM478 726q47 -9 73 -19q11 -4 11 -9q0 -7 -13 -13q-18 -7 -31 -9q-10 -57 -21 -92v-1q18 -18 34 -39q21 -21 30 -39q11 -16 18 -25q4 -11 6 -22q3 -8 3 -16q-1 -30 -22 -30
q-4 0 -7 4q-4 6 -14 40q-14 34 -29 62q-10 20 -29 45q-10 -32 -23 -60q-20 -39 -38 -63q-20 -27 -50 -60l-12 22q21 30 35 54q15 24 27 55q11 26 25 64q10 37 18 80q6 38 9 71zM844 726q47 -9 69 -19q15 -4 15 -9q0 -7 -17 -13q-15 -7 -27 -9q-13 -52 -23 -83q-2 -5 -3 -7
q25 -21 43 -46q27 -26 40 -48q14 -18 23 -33q5 -13 8 -23q4 -10 4 -24q-1 -26 -22 -26q-5 0 -10 5q-5 6 -19 48q-18 41 -37 74q-16 23 -37 52q-8 -25 -21 -44q-18 -36 -35 -60q-20 -22 -47 -53l-14 22q23 26 35 51q12 19 25 48q12 26 21 59q10 32 19 72q7 36 10 66z" />
  </g>

</svg>
