<?xml version="1.0" standalone="no"?>
<!DOCTYPE svg PUBLIC "-//W3C//DTD SVG 1.1//EN" "http://www.w3.org/Graphics/SVG/1.1/DTD/svg11.dtd" >
<svg xmlns="http://www.w3.org/2000/svg" xmlns:xlink="http://www.w3.org/1999/xlink" version="1.1" viewBox="0 -120 1000 1000">
  <g transform="matrix(1 0 0 -1 0 880)">
   <path fill="currentColor"
d="M29 65q40 77 55 145q19 91 19 245v458l62 -39h114l21 39l66 -40q13 -8 13 -17t-14 -13l-15 -5v-709q0 -37 -35 -58q-24 -14 -46 -14q-7 0 -9 4q-2 2 -5 31q-1 6 -14 10l-41 13v16l89 -1v283h-126q-4 -105 -26 -184q-27 -98 -93 -175zM164 635v-195h125v195h-125zM164 661
h125v187h-125v-187zM353 65q113 49 172 110q64 66 85 149h-226l-11 26h242q5 50 5 77q0 11 -2 57h-184l-12 28h380l42 48l71 -57l-1 -19h-228q-3 -69 -8 -134h148l48 54l80 -60v-20h-262q82 -134 276 -189l-1 -10q-30 -7 -45 -24q-7 -9 -17 -30q-88 45 -149 110
q-47 50 -83 135q-32 -110 -120 -174q-86 -62 -194 -91zM450 565v355l66 -44h276l23 40l72 -47q12 -9 12 -15q0 -10 -17 -12l-18 -3v-246l-65 -11v32h-289v-37zM510 641h289l1 209l-290 1v-210z" />
  </g>

</svg>
