<?xml version="1.0" standalone="no"?>
<!DOCTYPE svg PUBLIC "-//W3C//DTD SVG 1.1//EN" "http://www.w3.org/Graphics/SVG/1.1/DTD/svg11.dtd" >
<svg xmlns="http://www.w3.org/2000/svg" xmlns:xlink="http://www.w3.org/1999/xlink" version="1.1" viewBox="0 -410 2048 2048">
  <g transform="matrix(1 0 0 -1 0 1638)">
   <path fill="currentColor"
d="M260 815q-9 -199 -33 -330q-35 -190 -135 -399l-36 14q54 162 74 284q21 132 31 317q8 144 8 207v837q0 89 -13 173l108 -77h318l68 77l81 -55q43 -29 43 -49q0 -32 -77 -59v-1498q0 -144 -158 -171q-2 66 -44 93q-31 20 -159 43l8 42q171 -27 201 -27q57 0 57 57v682
q-94 -77 -241 -168l6 -43v-4q0 -25 -23 -25q-21 0 -45 29zM264 1438q122 -21 203 -42q113 -30 135 -83v469h-338v-344zM264 1394v-361l-2 -141q0 -2 2 -16q20 9 70 29q145 58 268 122v235q-14 -33 -44 -33q-25 0 -55 30q-83 84 -239 135zM931 1791h45l6 -88h406
q-10 23 -26 69q-15 44 -57 96q-50 63 -78 87l21 27q58 -37 140 -99q78 -59 78 -115q0 -32 -19 -65h353l70 79l87 -71q34 -27 34 -49q0 -23 -23 -31q-13 -5 -35 -8q-14 -2 -42 -9q-32 -41 -74 -102q-28 -41 -64 -80l-30 21q14 35 21 53q38 92 52 139h-814q-11 -293 -140 -293
q-48 0 -48 49q0 16 9 33q4 9 49 53q77 77 79 304zM1724 1327l64 77l84 -54q40 -26 40 -47q0 -28 -78 -61v-489q0 -120 -155 -155q-7 57 -29 75q-21 16 -100 35l7 45q94 -15 125 -15q59 0 59 59v477h-205v-921q0 -64 21 -77q30 -18 140 -18q94 0 139 13q42 12 58 89
q5 24 21 147l7 45l31 -5l-5 -164q-1 -38 7 -63q5 -15 46 -51q17 -14 17 -29q0 -75 -310 -75q-165 0 -209 20q-59 26 -59 114v1085l110 -57h174zM912 928q-87 -123 -157 -191l-30 23q221 292 320 748l111 -36q55 -18 55 -42q0 -25 -83 -40l-57 -148h166l68 76l84 -54
q40 -26 40 -48q0 -28 -78 -62q-43 -265 -112 -441q-88 -219 -217 -387q-95 -123 -241 -235l-26 25q247 240 373 558q-13 -12 -29 -12q-40 0 -58 65q-30 106 -129 201zM940 965q132 -81 178 -152q25 -38 26 -91q83 231 112 467h-205q-45 -110 -111 -224z" />
  </g>

</svg>
