<?xml version="1.0" standalone="no"?>
<!DOCTYPE svg PUBLIC "-//W3C//DTD SVG 1.1//EN" "http://www.w3.org/Graphics/SVG/1.1/DTD/svg11.dtd" >
<svg xmlns="http://www.w3.org/2000/svg" xmlns:xlink="http://www.w3.org/1999/xlink" version="1.1" viewBox="0 -140 1000 1000">
  <g transform="matrix(1 0 0 -1 0 860)">
   <path fill="currentColor"
d="M276 882l28 25h14l47 -41v-15l-20 -15v-671q0 -38 -2.5 -56t-16 -31.5t-30.5 -18.5t-58 -13l-11 7l-1 27l-77 37l3 12l85 -8q29 0 36.5 6.5t7.5 38.5v241h-113q-7 -125 -27.5 -198.5t-72.5 -153.5l-12 8q50 144 50 296v548l64 -25h106zM281 429v202h-110v-36
q0 -95 -3 -166h113zM281 652v208h-110v-208h110zM364 355l-10 9q34 52 58 111.5t33 95.5t30 133l86 -32l-3 -15l-27 -7l-21 -65h79l25 21h16l44 -51l-2 -13l-21 -8q-36 -169 -105.5 -280t-195.5 -202l-10 10q65 63 102 116t74 135q-29 1 -37 21q-14 39 -21 49.5t-34 34.5
q-27 -34 -60 -63zM587 564h-86q-25 -63 -66 -130q56 -19 76 -33.5t27 -40.5q36 109 49 204zM430 845h15l5 -36h176v130l95 -23v-15l-31 -13v-79h163l22 29h17l54 -58l-4 -15l-35 -4l-76 -85l-11 7l34 105h-404q-15 -148 -61 -148q-11 0 -22 15.5t-11 31.5q0 21 31 52
q38 40 43 106zM843 600l26 28h17l50 -40v-17l-25 -14v-209q0 -36 -15.5 -50t-73.5 -30l-11 5v30l-53 25l3 13l56 -5q22 0 26.5 4.5t4.5 28.5v210h-100l-1 -428q0 -41 37 -41h57q25 0 37 11t20 43l22 85l15 -3l-8 -127l26 -15v-16q-29 -30 -87 -30h-87q-55 0 -73.5 16
t-18.5 63v495l65 -32h91z" />
  </g>

</svg>
