<?xml version="1.0" standalone="no"?>
<!DOCTYPE svg PUBLIC "-//W3C//DTD SVG 1.1//EN" "http://www.w3.org/Graphics/SVG/1.1/DTD/svg11.dtd" >
<svg xmlns="http://www.w3.org/2000/svg" xmlns:xlink="http://www.w3.org/1999/xlink" version="1.1" viewBox="0 -200 1000 1000">
  <g transform="matrix(1 0 0 -1 0 800)">
   <path fill="currentColor"
d="M794 526q5 -38 13 -89t26.5 -103t52 -100t89.5 -81q-9 -2 -35.5 -8t-54.5 -23q-32 55 -52 111t-31.5 108t-16 97.5t-5.5 79.5zM717 899h123l26 38l50 -48l-25 -38v-333q-19 -1 -68 -1t-118 -2v-297l104 63l6 -12q-12 -12 -35 -31.5t-48.5 -42t-50 -46t-39.5 -42.5l-38 65
l55 24v746zM843 542v159h-137v-159h137zM843 724v152h-126l-11 -14v-138h137zM838 330q12 15 24 34t22.5 38t19.5 37t15 31l40 -48l-27 -18q-10 -11 -24 -26t-27 -29t-23 -24t-11 -10v1zM492 859q-5 19 -9.5 32t-10.5 24t-15 21.5t-23 24.5v9q45 -20 75.5 -42t47.5 -55
q0 -36 -8.5 -51.5t-20.5 -15.5q-13 0 -23.5 14t-12.5 39zM487 641q-5 20 -8.5 33t-8.5 24t-14 22.5t-25 28.5v7q22 -12 39 -20.5t31 -18t27 -23.5t28 -38q0 -38 -10 -53.5t-23 -15.5q-14 0 -25 14.5t-11 39.5zM560 165q9 -14 19.5 -27.5t22.5 -24.5q23 -24 107 -35
q11 -2 24.5 -3t27.5 -1q67 0 131 19v-7q-22 -31 -33 -70q-51 1 -88 3t-60 5q-47 5 -86 35q-39 27 -56 57q-16 27 -31 30h-3q-15 0 -39 -27.5t-47 -72.5l-48 59q54 17 109 60v277h-32l-51 -13l-24 36h95l40 43l60 -44l-38 -38v-261zM138 717v209l65 -42h106l35 42l53 -55
l-32 -34l-1 -745q-3 -12 -6 -24.5t-10.5 -25.5t-21 -25t-37.5 -23q-3 21 -9.5 34t-18.5 22t-30 16t-44 15l2 13q23 -4 41.5 -6t29.5 -2q26 0 37.5 8t16.5 26v273h-134q-5 -66 -15 -129.5t-26 -118.5t-38 -99.5t-50 -73.5l-13 2q21 50 35.5 95.5t25 94t17.5 102.5t13 122
q6 91 7.5 169.5t1.5 159.5zM184 416h130v209h-123zM190 816v-169h124v213h-112z" />
  </g>

</svg>
