<?xml version="1.0" standalone="no"?>
<!DOCTYPE svg PUBLIC "-//W3C//DTD SVG 1.1//EN" "http://www.w3.org/Graphics/SVG/1.1/DTD/svg11.dtd" >
<svg xmlns="http://www.w3.org/2000/svg" xmlns:xlink="http://www.w3.org/1999/xlink" version="1.1" viewBox="0 -410 2048 2048">
  <g transform="matrix(1 0 0 -1 0 1638)">
   <path fill="currentColor"
d="M553 990q-19 -16 -53 -44q-53 -45 -120 -91q-5 -77 -27 -77q-17 0 -39 39l-47 83q-13 -279 -40 -423q-40 -215 -134 -381l-31 13q66 199 89 369q36 262 36 586v576q0 70 -7 280l104 -70h248l68 78l84 -55q40 -26 40 -48q0 -28 -77 -62v-1531q0 -118 -143 -143
q0 48 -17 68q-27 30 -118 49l8 42q93 -19 126 -19q50 0 50 68v693zM279 1447q228 -46 274 -114v461h-274v-347zM553 1266q-22 -15 -35 -15q-22 0 -55 37q-53 59 -184 117v-123q-1 -138 -10 -344l-1 -20q149 48 285 130v218zM1024 1641h423q-20 8 -28 24q-4 7 -16 54
q-23 87 -125 185l26 31q86 -55 132 -94q82 -69 82 -140q0 -39 -43 -60h233l99 101l121 -107q17 -15 17 -26q0 -27 -28 -27h-466v-271h192l98 102l121 -107q18 -15 18 -25q0 -26 -28 -26h-401v-257h192l98 101l121 -106q16 -14 16 -26q0 -27 -26 -27h-401v-267h279l98 101
l121 -106q17 -15 17 -26q0 -26 -27 -26h-946v-30q0 -40 -58 -40q-50 0 -50 47l11 203v637q-68 -95 -175 -193l-31 26q126 146 213 329q37 78 125 351l98 -32q81 -26 81 -51q0 -32 -107 -42q-41 -104 -76 -180zM993 673h362v267h-362v-267zM1355 998v257h-362v-257h362z
M1355 1311v271h-362v-271h362zM903 484l42 -9q-28 -208 -97 -308q-54 -78 -102 -78q-57 0 -57 46q0 26 65 83q71 62 107 141q7 17 42 125zM1148 472q88 -180 88 -285q0 -54 -35 -79q-12 -9 -27 -9q-16 0 -29 10q-22 19 -22 47q0 15 7 53q8 35 8 79q0 61 -27 173zM1465 479
q156 -191 156 -308q0 -78 -55 -78q-45 0 -50 57q-15 157 -84 306zM1718 464q264 -187 264 -297q0 -64 -49 -64q-37 0 -66 69q-65 158 -175 258z" />
  </g>

</svg>
