<?xml version="1.0" standalone="no"?>
<!DOCTYPE svg PUBLIC "-//W3C//DTD SVG 1.1//EN" "http://www.w3.org/Graphics/SVG/1.1/DTD/svg11.dtd" >
<svg xmlns="http://www.w3.org/2000/svg" xmlns:xlink="http://www.w3.org/1999/xlink" version="1.1" viewBox="0 -140 1000 1000">
  <g transform="matrix(1 0 0 -1 0 860)">
   <path fill="currentColor"
d="M263 891l26 27h16l55 -45v-13l-30 -18v-699q0 -57 -13.5 -71.5t-82.5 -32.5l-10 7v26l-70 31l5 13l61 -6q11 0 16.5 1t13.5 4t11.5 12t3.5 24v281h-96q-6 -151 -29.5 -235.5t-71.5 -155.5l-13 6q48 149 48 422v453l68 -31h92zM265 453v195h-97v-195h97zM265 670v198h-97
v-198h97zM429 232h14q3 -33 3 -60q0 -53 -21 -92t-49 -39q-26 0 -26 40q0 15 5.5 23.5t28.5 28.5q36 31 45 99zM409 598l68 -32h298l28 32h16l56 -39v-15l-27 -15v-229l-8 -11l-48 -16l-8 4v35h-312v-24l-8 -10l-45 -12l-10 6v326zM472 333h312v95h-312v-95zM472 449h312v96
h-312v-96zM493 276l90 -15v-14l-27 -15v-88q0 -35 12.5 -42.5t50.5 -7.5h55q60 0 76 46l20 58l13 -4l-9 -92l30 -19v-13q-13 -12 -44 -20t-49 -8h-118q-53 0 -76.5 14.5t-23.5 57.5v162zM597 273l4 9l38 -11q82 -22 82 -68q0 -33 -18 -33q-19 0 -51 43q-22 30 -55 60z
M800 229l8 9q118 -66 118 -124q0 -14 -10 -30t-22 -16q-16 1 -31 48q-22 69 -63 113zM594 935l100 -18v-11l-35 -16l-1 -46l153 1l39 47h11l56 -55v-14h-157l69 -34l-5 -14h-24l-83 -123h116l38 50h13l61 -56v-15h-597v21h174q-17 9 -21 37q-12 71 -41 114l9 7
q100 -73 100 -120q0 -16 -15 -38h140l49 171h-351v22h202v90z" />
  </g>

</svg>
