<?xml version="1.0" standalone="no"?>
<!DOCTYPE svg PUBLIC "-//W3C//DTD SVG 1.1//EN" "http://www.w3.org/Graphics/SVG/1.1/DTD/svg11.dtd" >
<svg xmlns="http://www.w3.org/2000/svg" xmlns:xlink="http://www.w3.org/1999/xlink" version="1.1" viewBox="0 -120 1000 1000">
  <g transform="matrix(1 0 0 -1 0 880)">
   <path fill="currentColor"
d="M44 76q60 13 132 43q190 82 254 236h-367l-10 28h385q14 53 20 106h-181v-35l-66 -14v476l73 -50h155q8 54 10 109l90 -17q19 -4 19 -13t-14 -12l-24 -6l-44 -61h225l33 50l64 -52q12 -10 12 -15q0 -6 -14 -11l-20 -7v-359l-68 -18v35h-228l64 -17q14 -4 14 -10
q0 -8 -19 -13l-19 -5l-13 -61h314l45 59l82 -70v-17h-404q121 -176 422 -236l-9 -17h-13q-33 0 -45 -8q-12 -6 -33 -37q-76 24 -168 88q-130 94 -189 210h-10q-82 -246 -450 -294zM277 619v-102h431v102h-431zM277 647h431v88h-431v-88zM277 838v-75h431v75h-431z" />
  </g>

</svg>
