<?xml version="1.0" standalone="no"?>
<!DOCTYPE svg PUBLIC "-//W3C//DTD SVG 1.1//EN" "http://www.w3.org/Graphics/SVG/1.1/DTD/svg11.dtd" >
<svg xmlns="http://www.w3.org/2000/svg" xmlns:xlink="http://www.w3.org/1999/xlink" version="1.1" viewBox="0 -204 1024 1024">
  <g transform="matrix(1 0 0 -1 0 820)">
   <path fill="currentColor"
d="M36 898q43 -14 116 -14h172l44 48q34 -23 66 -49q8 -5 8 -11q0 -14 -12 -14h-186q-36 -72 -77 -141q-35 -58 -73 -113q11 1 23 2q53 4 127 16q62 10 126 28q-6 11 -14 20q-21 36 -60 74l10 16q55 -35 88 -74q30 -31 42 -63q10 -20 10 -43q0 -32 -20 -32q-7 0 -14 8
q-9 6 -16 28q-9 28 -17 46q-56 -19 -117 -32q-10 -5 -19 -7q32 -7 58 -16q13 -4 13 -13q0 -11 -13 -14q-17 -10 -43 -12v-134h66l44 44q30 -25 59 -46q7 -5 7 -10q0 -18 -10 -18h-166v-197q21 5 40 11q63 18 148 50l6 -18q-72 -37 -127 -60q-60 -23 -113 -42
q-49 -17 -104 -30q-12 -36 -18 -36t-48 80q76 9 133 22q20 4 37 8v212h-52q-72 -1 -98 -4l-20 44q44 -10 118 -10h52v116q0 42 -2 64q-35 -8 -60 -13q-29 -7 -52 -11q-12 -36 -18 -36t-34 80h15q41 70 71 134q28 55 49 122h-29q-71 -1 -98 -4zM470 902q44 -14 118 -14h270
l44 50q36 -25 69 -51q9 -5 9 -11q0 -14 -12 -14h-252q-41 -75 -91 -147q-41 -62 -85 -121q15 3 33 4q67 4 160 18q75 7 147 23q-11 19 -21 32q-24 39 -67 81l12 18q60 -41 96 -84q33 -35 47 -70q11 -24 11 -46q0 -34 -20 -34q-8 0 -16 7q-9 7 -18 32q-8 25 -15 42
q-67 -15 -135 -29q-19 -4 -34 -7q29 -6 49 -13q13 -5 13 -14q0 -11 -13 -14q-17 -9 -43 -10v-180h122l44 48q34 -27 62 -49q10 -5 10 -13q0 -16 -14 -16h-224v-240h136l48 54q36 -29 69 -54q7 -5 7 -12q0 -14 -10 -14h-436q-71 -1 -98 -4l-18 44q43 -14 116 -14h140v240h-96
q-72 -1 -98 -2l-18 42q43 -10 116 -10h96v158q0 40 -2 66q-40 -8 -74 -13q-38 -7 -64 -13q-14 -34 -22 -34q-6 0 -32 78h21q48 75 87 142q32 58 58 128h-64q-72 -1 -96 -4z" />
  </g>

</svg>
