<?xml version="1.0" standalone="no"?>
<!DOCTYPE svg PUBLIC "-//W3C//DTD SVG 1.1//EN" "http://www.w3.org/Graphics/SVG/1.1/DTD/svg11.dtd" >
<svg xmlns="http://www.w3.org/2000/svg" xmlns:xlink="http://www.w3.org/1999/xlink" version="1.1" viewBox="0 -120 1000 1000">
  <g transform="matrix(1 0 0 -1 0 880)">
   <path fill="currentColor"
d="M38 602q121 134 222 367l74 -34q12 -6 12 -13q0 -11 -15 -13l-25 -4l-4 -6q191 -84 191 -147q0 -16 -13 -27q-10 -8 -20 -8t-19 9q-5 5 -30 38q-68 90 -119 116q-64 -110 -138 -193h182l43 50l65 -59v-18h-127v-120h85l42 49l72 -60v-16h-199v-123h79l20 33l66 -41
q14 -8 14 -14q0 -8 -14 -13l-22 -9v-255l-60 -10v69h-227v-76l-59 -9v370l76 -45h70v123h-194l-16 27h210v120h-130q-38 -40 -77 -73zM173 364v-186h227v186h-227zM493 571l-15 27h361l32 39l72 -59q13 -10 13 -17q0 -13 -25 -13h-23l-92 -104l-15 7l48 120h-123v-418
q0 -34 -8 -44q-18 -22 -60 -34q-13 -4 -20 -4q-10 0 -12 16q-1 12 -7 20q-7 9 -39 17l-42 10v16h127v421h-172zM495 888l-13 27h320l32 37l73 -62q8 -7 8 -17q0 -13 -18 -12l-9 1l-24 1l-143 -124q3 -4 6 -9q26 -38 26 -58q0 -18 -12 -28q-8 -8 -18 -8q-11 0 -19 7
q-6 6 -31 57q-9 23 -43 58q-18 17 -63 48l11 14q66 -22 124 -66l100 134h-307z" />
  </g>

</svg>
