<?xml version="1.0" standalone="no"?>
<!DOCTYPE svg PUBLIC "-//W3C//DTD SVG 1.1//EN" "http://www.w3.org/Graphics/SVG/1.1/DTD/svg11.dtd" >
<svg xmlns="http://www.w3.org/2000/svg" xmlns:xlink="http://www.w3.org/1999/xlink" version="1.1" viewBox="0 -120 1000 1000">
  <g transform="matrix(1 0 0 -1 0 880)">
   <path fill="currentColor"
d="M237 776q18 -15 36 -38q48 -61 48 -96q0 -20 -11 -30q-7 -7 -17 -7q-8 0 -13 5q-8 7 -15 51q-17 71 -41 102zM102 484l-5 -13q-7 -16 -17 -16q-11 0 -24 34l-19 49l101 3v332l61 -36h45q9 50 18 127l66 -20q23 -7 23 -17q0 -7 -20 -15l-20 -8l-37 -67h72l21 36l53 -33
q23 -14 23 -24q0 -11 -11 -16l-12 -5v-242l97 5l2 -14l-99 -17v-362q0 -35 -5 -45q-6 -14 -42 -31q-25 -11 -37 -11q-10 0 -11 20q-2 26 -35 33l-34 6v18h106v362l-163 -23q-5 -150 -42 -263q-26 -77 -86 -180l-20 11q55 125 70 221q15 88 17 206zM199 809v-264l163 6v258
h-163zM249 231v246l36 -6q41 -6 41 -17q0 -9 -12 -12l-12 -3v-196zM397 74q58 24 128 70q68 48 119 100q-42 58 -64 103t-41 112h-65l-9 28h310l28 43l44 -29q40 -26 40 -37q0 -8 -19 -11l-27 -6q-45 -92 -125 -200q127 -86 242 -119l-3 -12q-55 -5 -72 -45q-97 47 -202 136
q-119 -100 -278 -149zM564 459q31 -99 110 -174q59 83 100 174h-210zM470 581q42 58 54 93q16 46 16 100v151l70 -36h104l20 37l68 -37q18 -9 18 -18q0 -8 -14 -14l-16 -8v-172q0 -18 16 -18h41q16 0 23 8q8 9 21 50l23 77h18l-6 -74q-2 -25 -2 -32q0 -20 17 -28q1 0 13 -5
q4 -1 8 -3q-12 -56 -73 -55h-111q-50 2 -48 55v209h-128v-63q0 -65 -13 -100q-30 -71 -110 -127z" />
  </g>

</svg>
