<?xml version="1.0" standalone="no"?>
<!DOCTYPE svg PUBLIC "-//W3C//DTD SVG 1.1//EN" "http://www.w3.org/Graphics/SVG/1.1/DTD/svg11.dtd" >
<svg xmlns="http://www.w3.org/2000/svg" xmlns:xlink="http://www.w3.org/1999/xlink" version="1.1" viewBox="0 -410 2048 2048">
  <g transform="matrix(1 0 0 -1 0 1638)">
   <path fill="currentColor"
d="M428 892q87 -58 143 -106q93 -81 93 -156q0 -24 -16 -44.5t-35 -20.5q-32 0 -54 83q-26 97 -153 219zM1195 782h513l68 76l83 -54q40 -26 40 -49q0 -27 -77 -61v-439l52 -34q22 -14 22 -33q0 -20 -18 -20h-691v-38q0 -29 -43 -29q-61 0 -61 51l9 162v384q0 2 -9 167z
M1187 224h541v500h-541v-500zM1180 1522h237v250q0 115 -8 160l109 -24q86 -19 86 -45q0 -29 -50 -43l-40 -11v-287h167l98 101l121 -106q16 -15 16 -25q0 -27 -27 -27h-375v-406h239l98 101l121 -106q16 -15 16 -26q0 -26 -27 -26h-770q-117 0 -192 -8l-38 88
q98 -23 230 -23h226v406h-259q-71 -154 -182 -283l-30 23q151 243 206 634l155 -48q31 -9 31 -28q0 -27 -37 -33l-62 -12q-27 -110 -59 -196zM420 1511q236 -154 236 -261q0 -34 -24 -55q-13 -11 -26 -11q-33 0 -55 83q-26 98 -152 220zM720 1068q-223 -51 -374 -74
q-4 -282 -30 -444q-26 -168 -102 -302q-34 -60 -114 -157l-23 29q109 180 142 375q28 171 32 456l1 28q-40 -5 -82 -14l-11 -42q-8 -32 -25 -32q-19 0 -28 32l-39 134q98 6 185 15v564q0 71 -8 127l108 -69q21 12 59 101q28 64 57 167l122 -51q36 -15 36 -35q0 -28 -48 -31
l-48 -4q-51 -91 -121 -159h291l68 76l84 -54q39 -26 39 -49q0 -27 -76 -61v-453q37 6 124 20l10 -36q-56 -17 -134 -35v-826q0 -142 -153 -170q-12 70 -48 93q-33 21 -159 43l8 46q164 -27 201 -27q56 0 56 57v762zM720 1126v498h-55h-319v-543l22 3q203 20 352 42z" />
  </g>

</svg>
