<?xml version="1.0" standalone="no"?>
<!DOCTYPE svg PUBLIC "-//W3C//DTD SVG 1.1//EN" "http://www.w3.org/Graphics/SVG/1.1/DTD/svg11.dtd" >
<svg xmlns="http://www.w3.org/2000/svg" xmlns:xlink="http://www.w3.org/1999/xlink" version="1.1" viewBox="0 -410 2048 2048">
  <g transform="matrix(1 0 0 -1 0 1638)">
   <path fill="currentColor"
d="M359 1504q235 -156 235 -262q0 -33 -24 -55q-13 -11 -26 -11q-33 0 -55 83q-26 97 -152 220zM658 1041q-79 -21 -279 -60l-61 -11q-5 -285 -30 -444q-26 -168 -102 -302q-34 -60 -114 -157l-23 29q109 179 142 375q28 171 32 456l1 28q-41 -6 -82 -14l-11 -42
q-8 -32 -25 -32q-19 0 -28 32l-39 134q104 6 185 14v565q0 73 -8 130l107 -72q58 82 118 284l121 -51q37 -16 37 -35q0 -28 -48 -32l-48 -3q-47 -84 -122 -159h256l69 76l83 -54q40 -26 40 -49q0 -28 -76 -62v-467l65 11l62 12l11 -36q-70 -20 -138 -39v-810
q0 -143 -153 -171q-12 70 -48 93q-32 20 -159 43l8 46q167 -27 200 -27q57 0 57 57v744zM658 1102v513h-21h-319v-557q179 18 340 44zM1449 372q209 -112 548 -162l-4 -38q-43 0 -59 -5q-39 -11 -63 -63q-304 76 -501 211q-134 -87 -275 -140q-129 -48 -290 -86l-12 41
q306 95 511 238q-159 157 -255 386q-59 0 -133 -8l-30 80q76 -16 178 -16h291q-14 19 -14 42v928q0 103 -8 163l104 -26q75 -19 75 -43q0 -21 -75 -44v-844q0 -54 3 -84q3 -51 3 -56q0 -23 -22 -36h211l59 71l72 -49q43 -29 43 -50q0 -15 -66 -52q-126 -218 -291 -358z
M1098 754q10 -17 33 -58q90 -159 241 -275q188 166 268 333h-542zM1015 1656v-230h99l68 70l89 -77q24 -20 24 -30q0 -20 -30 -20h-250v-263h114l67 69l90 -76q24 -21 24 -32q0 -20 -31 -20h-264v-31q0 -39 -51 -39q-50 0 -50 32q0 5 5 68q3 47 3 117v421q0 29 -11 156
l101 -54q82 52 149 127l69 -54q44 -34 44 -53q0 -27 -30 -27q-6 0 -68 12q-94 -44 -161 -66zM1512 1674l-39 85q122 -17 188 -17h106l61 72l72 -50q42 -29 42 -50q0 -18 -71 -54v-484q0 -40 8 -104q3 -30 3 -45q0 -48 -66 -48q-37 0 -37 25v38h-118q-62 0 -149 -11l-39 86
q127 -18 188 -18h118v270h-91q-64 0 -149 -10l-39 85q125 -17 188 -17h91v257h-118q-68 0 -149 -10zM366 884q91 -60 143 -106q93 -81 93 -155q0 -34 -24 -55q-13 -11 -26 -11q-33 0 -55 83q-25 96 -153 220z" />
  </g>

</svg>
