<?xml version="1.0" standalone="no"?>
<!DOCTYPE svg PUBLIC "-//W3C//DTD SVG 1.1//EN" "http://www.w3.org/Graphics/SVG/1.1/DTD/svg11.dtd" >
<svg xmlns="http://www.w3.org/2000/svg" xmlns:xlink="http://www.w3.org/1999/xlink" version="1.1" viewBox="0 -410 2048 2048">
  <g transform="matrix(1 0 0 -1 0 1638)">
   <path fill="currentColor"
d="M1337 1707l8 83q9 105 9 132q0 11 -1 25l107 -32q82 -24 82 -50q0 -29 -52 -39l-43 -9l-10 -110h284l98 101l121 -106q17 -15 17 -26q0 -26 -27 -26h-498l-14 -157q-5 -51 -51 -51q-49 0 -49 42v14l14 152q-112 0 -198 -8l-38 88q95 -23 230 -23h11zM540 1707l-6 77
q-8 118 -19 159l111 -16q88 -13 88 -42q0 -27 -46 -43l-42 -14l11 -121h123l99 101l121 -106q16 -15 16 -26q0 -26 -27 -26h-326l13 -162q1 -6 1 -9q2 -41 -55 -41q-41 0 -45 47l-12 165h-229q-108 0 -192 -8l-38 88q96 -23 230 -23h224zM1579 1365l68 76l84 -54
q40 -26 40 -49q0 -28 -78 -61v-876q0 -96 13 -219q3 -32 3 -50q0 -46 -55 -46q-58 0 -58 42v79h-1164v-57q0 -53 -58 -53q-54 0 -54 47q0 15 4 48q12 101 12 209v917q-3 84 -20 134l124 -87h1139zM1596 571h-1164v-306h1164v306zM432 628h1164v315h-1164v-315zM432 997h1164
v313h-1164v-313z" />
  </g>

</svg>
