<?xml version="1.0" standalone="no"?>
<!DOCTYPE svg PUBLIC "-//W3C//DTD SVG 1.1//EN" "http://www.w3.org/Graphics/SVG/1.1/DTD/svg11.dtd" >
<svg xmlns="http://www.w3.org/2000/svg" xmlns:xlink="http://www.w3.org/1999/xlink" version="1.1" viewBox="0 -204 1024 1024">
  <g transform="matrix(1 0 0 -1 0 820)">
   <path fill="currentColor"
d="M251 732q91 -39 91 -57q0 -13 -50 -15q-38 -56 -98 -119q-50 -59 -110 -114q56 1 110 4q57 3 105 8q15 26 27 49q23 49 33 92q49 -21 81 -41q6 -5 6 -11q0 -8 -11 -12q-18 -6 -33 -8q-29 -51 -62 -100q-36 -51 -78 -95q-36 -42 -87 -88q-37 -34 -80 -65q46 4 82 10
q50 6 110 18q52 9 116 23q-3 7 -6 12q-17 30 -45 63l14 18q43 -31 67 -63q22 -26 33 -51q7 -18 7 -35q0 -35 -25 -35q-6 0 -11 6q-5 4 -11 24q-6 22 -13 38q-54 -20 -97 -31q-52 -16 -100 -27q-44 -12 -93 -20q-11 -37 -18 -37q-8 0 -49 84q68 59 116 113q48 52 87 108
l23 34q-29 -8 -56 -15q-49 -13 -103 -23q-14 -33 -21 -33q-3 0 -7 7q-20 35 -37 75l-2 2l1 1l-1 1h2q58 66 93 115q38 51 62 96q24 48 38 94zM44 870q44 -12 117 -12h135l-12 110q45 -6 80 -12q11 -3 11 -9q0 -5 -12 -12q-14 -8 -26 -11l7 -66h48l38 41q31 -24 59 -45
q7 -5 7 -10q0 -14 -13 -14h-136l7 -69q0 -10 -10 -14q-12 -7 -24 -7q-11 0 -13 10l-8 80h-138q-71 -2 -97 -7zM669 968q46 -5 84 -21q6 -3 6 -9q0 -8 -16 -13l-31 -6q-2 -32 -5 -61h153l45 51l71 -54q8 -5 8 -11q0 -14 -16 -14h-263q-3 -34 -9 -71q-3 -19 -28 -19
q-22 0 -22 12l1 12q3 10 5 30q3 19 4 36q-60 -2 -84 -7l-20 47q41 -11 108 -12q7 64 9 110zM488 550q40 -8 115 -8h51q1 17 1 34q0 94 -9 124q52 -4 79 -11q18 -3 16 -13q2 -10 -12 -16l-26 -13q0 -59 -1 -105h181l35 37q36 -17 57 -39q9 -9 9 -18q0 -17 -44 -32
q0 -109 -13 -233t-32 -167q-10 -26 -26 -39q-11 -9 -29 -16q-26 -11 -60 -11q-2 17 -8 27q-3 8 -15 16q-26 13 -89 31l6 26q113 -33 131 -33q15 0 26 6q11 7 17 21q7 13 14 42q11 43 18 136q7 95 8 218h-187q-1 -74 -6 -115q-10 -78 -27 -131q-19 -59 -46 -103
q-28 -44 -72 -78q-44 -39 -101 -63l-13 23q60 33 94 70q34 34 58 79q22 37 38 94q14 51 20 117q6 47 8 107h-51q-80 0 -97 -7z" />
  </g>

</svg>
