<?xml version="1.0" standalone="no"?>
<!DOCTYPE svg PUBLIC "-//W3C//DTD SVG 1.1//EN" "http://www.w3.org/Graphics/SVG/1.1/DTD/svg11.dtd" >
<svg xmlns="http://www.w3.org/2000/svg" xmlns:xlink="http://www.w3.org/1999/xlink" version="1.1" viewBox="0 -140 1000 1000">
  <g transform="matrix(1 0 0 -1 0 860)">
   <path fill="currentColor"
d="M511 836v-14h-170v-60l-7 -10l-45 -17l-12 7v80h-210v21h210v91l97 -21v-14l-33 -12v-44h48l46 52h13zM944 836v-14h-221v-60l-7 -10l-45 -17l-12 7v80h-109v21h109v91l97 -21v-14l-33 -12v-44h99l46 52h13zM850 400h-132q-7 -44 -16 -78.5t-29 -78.5t-48 -77.5
t-75.5 -67t-108.5 -56.5l-6 11q25 14 43 26.5t47 41t49.5 63t40.5 91t29 125.5h-111v22h314l25 25h15l50 -48l-5 -18l-16 -4l-2 -39q-8 -151 -40.5 -216t-129.5 -82l-11 8l-7 21l-89 44l3 10l83 -10q5 -1 26 -1q46 0 73 58q23 51 28 230zM132 432l-5 12q116 35 183 95
t106 163h-224v21h542l32 27h16l47 -49l-4 -20l-20 -7q-26 -90 -48.5 -133t-50.5 -60.5t-81 -25.5l-13 8l-6 25l-89 30l3 12l80 -6q28 -2 49 5.5t33.5 18.5t23.5 39t17 49t16 66h-249q-17 -46 -23 -56q-88 -164 -335 -214zM227 400h-147v22h354l25 23h15l44 -49l-3 -17
l-16 -9l-5 -45q-23 -205 -89 -257q-27 -21 -73 -30l-15 7l-5 19l-86 50l4 10l69 -10q18 -2 30 -2q14 0 26 6.5t21 21t16 28.5t13 39.5t9.5 43t7.5 50t5.5 49t4.5 50.5h-134q-22 -134 -75.5 -215t-159.5 -142l-8 9q24 20 38.5 33t38.5 43t39.5 63t31 87.5t24.5 121.5z" />
  </g>

</svg>
