<?xml version="1.0" standalone="no"?>
<!DOCTYPE svg PUBLIC "-//W3C//DTD SVG 1.1//EN" "http://www.w3.org/Graphics/SVG/1.1/DTD/svg11.dtd" >
<svg xmlns="http://www.w3.org/2000/svg" xmlns:xlink="http://www.w3.org/1999/xlink" version="1.1" viewBox="0 -410 2048 2048">
  <g transform="matrix(1 0 0 -1 0 1638)">
   <path fill="currentColor"
d="M764 354q-160 100 -278 258l30 22q176 -163 309 -229q82 102 108 169q17 45 38 167h-515v-59q0 -37 -49 -37q-63 0 -59 54l4 63l4 79l4 76v354q0 85 -13 177l118 -90h508v71q-4 144 -7 159l109 -24q85 -19 85 -45q0 -29 -49 -42l-43 -11v-108h496l68 76l83 -54
q40 -26 40 -48q0 -28 -77 -61v-339q0 -57 11 -223q1 -8 1 -13q0 -46 -70 -46q-36 0 -36 26v65h-516q-15 -134 -46 -204q-40 -90 -112 -168q201 -78 479 -113q237 -30 588 -40v-34q-92 -15 -113 -79q-687 44 -1022 207q-261 -183 -728 -236l-6 38q415 75 656 242zM1068 1301
v-215h516v215h-516zM973 1301h-517v-215h517v215zM1068 797h516v229h-516v-229zM973 797v229h-517v-229h517zM1327 1721l8 91q9 106 9 131q0 9 -1 25l107 -31q82 -24 82 -50q0 -29 -52 -40l-43 -8l-11 -118h288l99 101l120 -106q17 -15 17 -26q0 -26 -27 -26h-502l-13 -149
q-5 -51 -51 -51q-49 0 -49 45v11l13 144h-32q-109 0 -192 -8l-38 88q96 -23 230 -23h38zM563 1721l-8 85q-14 138 -19 158l111 -16q88 -13 88 -41t-46 -44l-42 -14l12 -128h87l98 101l121 -106q18 -16 18 -29q0 -23 -28 -23h-287l13 -154v-4v-5q-1 -41 -54 -41q-42 0 -45 46
l-13 158h-229q-109 0 -192 -8l-38 88q96 -23 230 -23h223z" />
  </g>

</svg>
