<?xml version="1.0" standalone="no"?>
<!DOCTYPE svg PUBLIC "-//W3C//DTD SVG 1.1//EN" "http://www.w3.org/Graphics/SVG/1.1/DTD/svg11.dtd" >
<svg xmlns="http://www.w3.org/2000/svg" xmlns:xlink="http://www.w3.org/1999/xlink" version="1.1" viewBox="0 -140 1000 1000">
  <g transform="matrix(1 0 0 -1 0 860)">
   <path fill="currentColor"
d="M507 821v-14h-170v-79l-7 -10l-45 -17l-12 7v99h-200v21h200v106l97 -21v-14l-33 -12v-59h48l46 52h13zM945 821v-14h-226v-79l-7 -10l-45 -17l-12 7v99h-109v21h109v106l97 -21v-14l-33 -12v-59h104l46 52h13zM510 750l-4 -15l-30 -4l-35 -56h355l47 50h18l54 -55v-18
h-299q59 -78 140 -122.5t192 -67.5l-3 -16q-40 -3 -60 -44q-107 43 -171.5 98t-119.5 152h-166q-71 -97 -150.5 -151.5t-219.5 -102.5l-7 13q214 85 314 241h-281v23h292q33 61 45 112zM533 530l42 44h18l46 -49v-18h-290l1 23h183zM652 422l44 43h18l47 -46v-18h-364
l-31 -87h326l34 32h15l51 -50l-4 -17l-27 -12q-4 -62 -9 -86t-20 -51q-37 -66 -133 -77l-9 4l-4 32l-92 43l6 10l104 -19q14 -2 19 -2q44 0 61 40.5t20 130.5h-341l-18 -48l-14 -6l-48 -5l-4 10l54 158h-147v23z" />
  </g>

</svg>
