<?xml version="1.0" standalone="no"?>
<!DOCTYPE svg PUBLIC "-//W3C//DTD SVG 1.1//EN" "http://www.w3.org/Graphics/SVG/1.1/DTD/svg11.dtd" >
<svg xmlns="http://www.w3.org/2000/svg" xmlns:xlink="http://www.w3.org/1999/xlink" version="1.1" viewBox="0 -204 1024 1024">
  <g transform="matrix(1 0 0 -1 0 820)">
   <path fill="currentColor"
d="M40 858q43 -14 116 -14h141l-13 116q44 -3 76 -10q12 -3 12 -8q0 -7 -14 -14q-12 -8 -22 -12l6 -72h52l40 40q32 -20 59 -42q7 -4 7 -10q0 -14 -14 -14h-141l5 -58q0 -10 -9 -13q-10 -5 -23 -5q-10 0 -12 6l-7 70h-143q-71 -1 -98 -4zM676 960q42 -2 78 -17q6 -3 6 -11
t-17 -13q-15 -4 -27 -5q-5 -36 -14 -70h156l48 54q36 -27 69 -54q7 -5 7 -12q0 -14 -10 -14h-275q-6 -31 -15 -66q-2 -14 -28 -14q-18 0 -18 10l1 12q4 12 8 30l6 28q-57 -1 -81 -4l-18 44q40 -13 105 -14q15 70 19 116zM258 730l80 -32q4 -6 4 -12q0 -11 -15 -14
q-20 -4 -29 -4q-31 -34 -69 -65q-36 -31 -77 -57q-43 -22 -106 -50l-14 8q53 32 92 61q30 23 58 53q30 31 49 56q19 26 27 56zM314 592q45 -16 78 -30q6 -6 6 -14q0 -9 -15 -12q-19 -4 -29 -4q-37 -47 -81 -92q37 -18 37 -28q0 -9 -30 -22v-266q0 -31 5 -48q3 -14 3 -22
q0 -32 -36 -34q-22 0 -22 16v364q-27 -26 -59 -45q-52 -37 -129 -75l-14 8q68 43 115 81q38 34 75 75q38 41 64 76q20 34 32 72zM486 686q44 -14 116 -14h216l48 58q38 -29 72 -58q8 -5 8 -12q0 -14 -14 -14h-330q-71 -1 -94 -4zM430 504q44 -12 118 -12h306l52 62
q40 -30 75 -61q9 -5 9 -11q0 -18 -14 -18h-190v-356q0 -34 -16 -50q-12 -16 -38 -27q-20 -11 -38 -11l-1 13q-3 16 -11 22q-12 11 -46 20q-39 12 -84 15v22q75 -14 134 -14q33 0 41 6q11 5 11 30v330h-190q-72 -1 -96 -4z" />
  </g>

</svg>
