<?xml version="1.0" standalone="no"?>
<!DOCTYPE svg PUBLIC "-//W3C//DTD SVG 1.1//EN" "http://www.w3.org/Graphics/SVG/1.1/DTD/svg11.dtd" >
<svg xmlns="http://www.w3.org/2000/svg" xmlns:xlink="http://www.w3.org/1999/xlink" version="1.1" viewBox="0 -410 2048 2048">
  <g transform="matrix(1 0 0 -1 0 1638)">
   <path fill="currentColor"
d="M877 791h-338q-24 -264 -156 -439q-115 -152 -295 -264l-23 33q158 119 262 282q97 152 119 388h-119q-109 0 -193 -8l-38 88q97 -23 231 -23h119v400h-36q-120 0 -192 -8l-39 88q100 -23 231 -23h550l99 102l120 -107q17 -15 17 -26q0 -26 -27 -26h-196v-400h128l98 102
l121 -107q17 -15 17 -26q0 -26 -27 -26h-337v-396q0 -95 12 -219q4 -32 4 -49q0 -47 -56 -47t-56 41v670zM877 848v400h-335v-400h335zM1446 1662l-14 -157q-5 -51 -51 -51q-49 0 -49 42q0 4 1 14l13 152h-32q-118 0 -192 -8l-38 88q96 -23 230 -23h37l8 83q10 109 10 132
q0 10 -2 25l107 -32q82 -24 82 -50q0 -29 -52 -39l-43 -9l-10 -110h288l98 101l121 -106q17 -15 17 -26q0 -26 -27 -26h-502zM668 1662l14 -162q1 -7 1 -9q0 -41 -55 -41q-42 0 -45 47l-13 165h-243q-117 0 -192 -8l-38 88q95 -23 230 -23h239l-6 77q-9 122 -19 159l111 -17
q88 -12 88 -41q0 -27 -46 -43l-42 -14l11 -121h108l98 101l121 -106q17 -15 17 -26q0 -26 -27 -26h-312zM1706 89q-11 71 -43 92t-163 45l8 45q165 -27 200 -27q57 0 57 58v1060q0 117 -10 159l109 -24q86 -19 86 -45q0 -28 -50 -42l-40 -11v-1139q0 -143 -154 -171z
M1379 1368l109 -24q86 -19 86 -46q0 -25 -51 -41l-40 -14v-476q0 -95 12 -219q4 -32 4 -50q0 -46 -55 -46q-57 0 -57 42v714q0 117 -8 160z" />
  </g>

</svg>
