<?xml version="1.0" standalone="no"?>
<!DOCTYPE svg PUBLIC "-//W3C//DTD SVG 1.1//EN" "http://www.w3.org/Graphics/SVG/1.1/DTD/svg11.dtd" >
<svg xmlns="http://www.w3.org/2000/svg" xmlns:xlink="http://www.w3.org/1999/xlink" version="1.1" viewBox="0 -410 2048 2048">
  <g transform="matrix(1 0 0 -1 0 1638)">
   <path fill="currentColor"
d="M521 933v-548q0 -98 13 -219q3 -33 3 -50q0 -46 -55 -46q-57 0 -57 42v763q-151 -272 -345 -442l-23 28q238 281 344 633h-109q-120 0 -192 -8l-38 88q98 -23 230 -23h133v192q0 114 -8 160l109 -24q86 -19 86 -46q0 -25 -51 -41l-40 -14v-227h185l99 102l120 -107
q17 -15 17 -26q0 -26 -27 -26h-394v-117q286 -136 286 -248q0 -54 -46 -54q-30 0 -71 75q-55 100 -169 183zM1646 884v-498q0 -95 13 -219q3 -32 3 -50q0 -46 -55 -46q-56 0 -56 42v771h-449q-12 -216 -27 -287q-41 -206 -146 -342q-52 -68 -150 -146l-25 28
q146 142 205 352q48 172 48 490v246q0 95 -8 160l99 -57q43 7 148 18q336 35 559 146l91 -72q35 -28 35 -47q0 -22 -30 -22q-17 0 -45 8l-25 8q-346 -68 -729 -78v-347h644l98 102l121 -106q17 -15 17 -27q0 -27 -27 -27h-309zM1439 1685l-22 -126q-9 -52 -50 -52
q-53 0 -53 42q0 3 1 10l22 126q-133 -3 -177 -8l-38 88q81 -19 225 -23l12 73q4 21 22 148l117 -28q60 -14 60 -38t-51 -37l-39 -10l-19 -108h313l98 102l121 -107q17 -15 17 -26q0 -26 -27 -26h-532zM692 1685l11 -130q5 -57 -57 -57q-41 0 -43 38l-10 149h-252
q-118 0 -192 -8l-38 88q96 -23 230 -23h248l-13 220l122 -22q65 -11 65 -36q0 -23 -42 -39l-41 -16l8 -107h82l99 102l120 -107q17 -15 17 -26q0 -26 -27 -26h-287z" />
  </g>

</svg>
