<?xml version="1.0" standalone="no"?>
<!DOCTYPE svg PUBLIC "-//W3C//DTD SVG 1.1//EN" "http://www.w3.org/Graphics/SVG/1.1/DTD/svg11.dtd" >
<svg xmlns="http://www.w3.org/2000/svg" xmlns:xlink="http://www.w3.org/1999/xlink" version="1.1" viewBox="0 -140 1000 1000">
  <g transform="matrix(1 0 0 -1 0 860)">
   <path fill="currentColor"
d="M513 833v-14h-170v-64l-7 -10l-45 -17l-12 7v84h-210v21h210v94l97 -21v-14l-33 -12v-47h48l46 52h13zM952 833v-14h-233v-64l-7 -10l-45 -17l-12 7v84h-103v21h103v94l97 -21v-14l-33 -12v-47h111l46 52h13zM520 366h227v91h-227v-91zM520 479h227v90h-227v-90zM952 125
l-3 -14q-24 -15 -31.5 -26t-11.5 -34l-41 -1q-21 -1 -120 -1q-190 0 -291.5 31.5t-186.5 113.5q-53 -63 -97 -95.5t-115 -63.5l-7 11q73 50 122 111.5t105 173.5l82 -55l-7 -15h-30q-19 -20 -37 -46q48 -40 84 -58.5t93 -31.5v219h-300v22h300v91h-408v22h408v90h-293v22
h293v86h-408v22h408v87l97 -20v-16l-37 -19v-32h294l38 48l17 -1l51 -52v-17h-400v-86h218l24 30h16l57 -41v-17l-26 -16v-68h32l40 47h15l53 -52v-17h-140v-114l-3 -14l-51 -16l-8 6v25h-227v-96h230l35 42h16l50 -47v-16h-331v-109q78 -8 151 -8q111 0 281 15z" />
  </g>

</svg>
