<?xml version="1.0" standalone="no"?>
<!DOCTYPE svg PUBLIC "-//W3C//DTD SVG 1.1//EN" "http://www.w3.org/Graphics/SVG/1.1/DTD/svg11.dtd" >
<svg xmlns="http://www.w3.org/2000/svg" xmlns:xlink="http://www.w3.org/1999/xlink" version="1.1" viewBox="0 -204 1024 1024">
  <g transform="matrix(1 0 0 -1 0 820)">
   <path fill="currentColor"
d="M42 876q44 -10 118 -10h131l-11 106q44 -5 76 -11q12 -3 12 -7q0 -6 -14 -13q-12 -9 -22 -13l6 -62h52l40 40q32 -23 57 -43q9 -4 9 -9q0 -18 -14 -18h-141l5 -66q0 -12 -8 -15q-11 -7 -24 -7q-10 0 -12 8l-8 80h-134q-72 -1 -98 -4zM676 972q42 -4 78 -17q6 -3 6 -9
q0 -8 -17 -15q-15 -5 -27 -7q-2 -29 -6 -58h156l48 50l68 -51q8 -5 8 -11q0 -18 -10 -18h-272q-3 -34 -10 -72q-3 -16 -26 -16q-22 0 -22 12l1 14q3 10 6 28q2 20 6 34q-67 -1 -93 -4l-18 44q43 -10 114 -10q8 62 10 106zM456 800l36 -26q17 -14 26 -27q12 -10 18 -20
q4 -10 4 -19q0 -18 -6 -31l-3 -1h365l28 32q32 -21 59 -49q3 -2 3 -5q0 -8 -17 -13t-31 -9q-11 -16 -31 -34q-16 -22 -37 -36l-16 12q16 19 27 40q10 17 15 36h-752q-1 -19 -4 -34q-6 -32 -17 -53q-9 -21 -24 -32q-13 -13 -23 -17q-11 -6 -22 -6q-22 0 -22 18q0 8 13 22
q38 36 52 62q17 22 27 53q8 30 10 79h12v-53q0 -6 -1 -13h353q-1 6 -2 11q-4 17 -14 35q-8 19 -16 33q-10 17 -28 33zM142 522q44 -14 116 -14h516l48 58q38 -30 73 -58q7 -5 7 -12q0 -14 -14 -14h-352v-180h234l44 48q38 -27 69 -49q9 -7 9 -13q0 -14 -12 -14h-344v-158
q47 -12 107 -17q86 -9 197 -9q78 0 146 8v-18q-23 -7 -36 -15q-11 -8 -12 -29q-109 0 -205 8q-100 7 -167 17q-54 9 -108 33q-49 21 -100 57q-54 39 -80 83q-17 24 -25 43q-13 -36 -30 -64q-27 -58 -64 -98q-40 -46 -101 -87l-18 18q45 33 79 73q36 39 54 76q23 42 38 85
q11 41 11 80q0 28 -4 44q45 -7 82 -24q10 -4 10 -12q0 -6 -12 -8q-11 -5 -24 -6q-6 -26 -13 -46q11 -30 38 -59q33 -36 90 -70q46 -29 97 -46v349h-228q-70 -1 -94 -4z" />
  </g>

</svg>
