<?xml version="1.0" standalone="no"?>
<!DOCTYPE svg PUBLIC "-//W3C//DTD SVG 1.1//EN" "http://www.w3.org/Graphics/SVG/1.1/DTD/svg11.dtd" >
<svg xmlns="http://www.w3.org/2000/svg" xmlns:xlink="http://www.w3.org/1999/xlink" version="1.1" viewBox="0 -410 2048 2048">
  <g transform="matrix(1 0 0 -1 0 1638)">
   <path fill="currentColor"
d="M1482 377q180 -130 522 -170v-39q-20 1 -28 1q-83 0 -129 -71q-302 110 -438 222q-94 -61 -183 -99q-161 -68 -477 -132l-13 40q436 106 610 252q-130 140 -218 344l-7 16q-38 -3 -63 -7l-39 87q115 -19 187 -19h436l68 75l72 -56q54 -42 54 -63q0 -27 -48 -35l-44 -8
q-114 -189 -262 -338zM1408 432q134 128 234 312h-436h-23h-12q41 -82 127 -193q56 -73 110 -119zM1461 1669l-17 -106q-6 -36 -14 -43q-14 -12 -42 -12q-44 0 -44 29v8l22 124h-93q-68 0 -148 -11l-40 86q121 -18 188 -18h102l30 238l138 -32q38 -9 38 -28q0 -27 -89 -50
l-21 -128h281l95 98l120 -102q17 -15 17 -26q0 -27 -27 -27h-496zM663 1730h118l83 87l121 -91q17 -13 17 -27q0 -26 -28 -26h-305l10 -106v-10q-2 -36 -56 -36q-32 0 -36 34l-12 118h-303q-67 0 -149 -11l-39 86q121 -18 188 -18h297l-24 232l98 -13q85 -11 85 -37
q0 -24 -78 -48zM894 1327v-251l25 -18q42 -30 42 -45q0 -20 -34 -20h-615v-242h406l99 101l120 -108q17 -15 17 -25q0 -25 -27 -25h-615v-280h424l99 102l120 -107q17 -16 17 -26q0 -27 -27 -27h-633v-16q0 -90 9 -185q3 -34 3 -50q0 -46 -56 -46t-56 42v1257q0 38 -12 139
l120 -81h461l67 75l84 -54q40 -26 40 -48q0 -23 -29 -40q-6 -3 -27 -12q-9 -4 -22 -10zM798 1358h-486v-308h486v308zM1661 1416l68 75l83 -54q40 -26 40 -49q0 -28 -77 -61v-239l49 -33q24 -16 24 -35q0 -22 -20 -22h-611q-75 0 -148 -10l-40 86q116 -19 188 -19h462v307
h-454q-69 0 -148 -11l-40 82q118 -17 188 -17h436z" />
  </g>

</svg>
