<?xml version="1.0" standalone="no"?>
<!DOCTYPE svg PUBLIC "-//W3C//DTD SVG 1.1//EN" "http://www.w3.org/Graphics/SVG/1.1/DTD/svg11.dtd" >
<svg xmlns="http://www.w3.org/2000/svg" xmlns:xlink="http://www.w3.org/1999/xlink" version="1.1" viewBox="0 -204 1024 1024">
  <g transform="matrix(1 0 0 -1 0 820)">
   <path fill="currentColor"
d="M40 886q44 -12 117 -12h141l-14 90q45 -6 80 -12q11 -3 11 -9q0 -5 -12 -12q-14 -8 -26 -11l8 -46h51l38 41q31 -24 59 -45q7 -5 7 -10q0 -14 -13 -14h-137l12 -69q0 -10 -10 -14q-12 -7 -24 -7q-11 0 -13 10l-13 80h-145q-71 -2 -97 -7zM673 964q46 -5 84 -21q6 -3 6 -9
q0 -8 -16 -13l-31 -6q-3 -22 -7 -41h163l41 45q34 -25 64 -49q7 -4 7 -10q0 -14 -14 -14h-268q-6 -32 -18 -67q-3 -19 -28 -19q-22 0 -22 12l2 11q4 9 9 26q4 19 8 36q-58 -2 -81 -6l-20 47q41 -11 107 -12q10 52 14 90zM64 750q44 -12 117 -12h307q0 52 -6 78q46 -9 75 -18
q11 -4 11 -11q0 -5 -7 -9q-11 -6 -25 -10v-30h300l44 49q36 -27 68 -52q8 -5 8 -11q0 -14 -15 -14h-405v-76h206l34 42q37 -23 55 -43q7 -7 7 -13q0 -9 -39 -32v-374h57l47 53l72 -55q9 -6 9 -12q0 -14 -16 -14h-815q-71 -2 -97 -7l-20 47q44 -12 117 -12h83v393q0 39 -8 69
l62 -42h198v76h-307q-71 -2 -97 -7zM280 214h472v72h-472v-72zM280 314h472v76h-472v-76zM280 418h472v80h-472v-80zM280 526h472v80h-472v-80zM368 112q-43 -24 -90 -40q-45 -18 -89 -31q-54 -16 -108 -25l-13 22q81 23 134 46q56 22 88 42q32 21 55 46q40 -22 68 -42
q4 -3 4 -10q0 -10 -18 -10q-13 0 -31 2zM617 156q66 -11 131 -29q66 -19 99 -32q33 -14 44 -23q13 -11 22 -20q4 -8 4 -16q0 -24 -21 -24q-7 0 -18 6q-12 5 -27 15q-28 17 -51 28q-29 13 -71 29q-45 19 -125 45z" />
  </g>

</svg>
