<?xml version="1.0" standalone="no"?>
<!DOCTYPE svg PUBLIC "-//W3C//DTD SVG 1.1//EN" "http://www.w3.org/Graphics/SVG/1.1/DTD/svg11.dtd" >
<svg xmlns="http://www.w3.org/2000/svg" xmlns:xlink="http://www.w3.org/1999/xlink" version="1.1" viewBox="0 -204 1024 1024">
  <g transform="matrix(1 0 0 -1 0 820)">
   <path fill="currentColor"
d="M46 862q44 -14 118 -14h130l-10 116q44 -5 76 -10q12 -3 12 -8q0 -6 -14 -14q-12 -8 -22 -12l5 -72h45l40 40q32 -20 57 -42q9 -4 9 -10q0 -14 -14 -14h-136l4 -66q0 -10 -8 -12q-11 -6 -24 -6q-10 0 -12 6l-6 78h-132q-72 -1 -96 -4zM694 964q43 -4 78 -17q6 -3 6 -9
q0 -10 -14 -15q-15 -5 -30 -7q-2 -35 -5 -68h133l48 54q36 -29 69 -54q7 -5 7 -12q0 -14 -10 -14h-250q-1 -34 -6 -70q-4 -14 -30 -14q-18 0 -18 10l1 12q2 12 5 31q2 15 4 31h-18q-71 -1 -98 -4l-18 44q43 -14 116 -14h20q8 69 10 116zM120 744q55 -22 90 -44
q29 -18 43 -38q9 -11 9 -26q0 -30 -18 -30q-11 0 -18 4t-13 17q-20 34 -43 56q-24 21 -62 47zM42 576q59 -25 93 -50q32 -23 45 -43q10 -14 10 -31q0 -32 -20 -32q-7 0 -15 6q-9 5 -17 20q-18 39 -42 61q-23 26 -64 55zM298 404l8 -18q-32 -66 -73 -137q-39 -73 -87 -145
q-5 -50 -12 -50q-6 0 -62 76q57 51 124 134q64 81 102 140zM548 756q22 -12 42 -24q20 -13 34 -24q14 -10 17 -18q5 -8 5 -18q0 -18 -6 -29v-1h164l32 44q34 -24 52 -43q8 -9 8 -15q0 -9 -38 -30v-90q0 -73 3 -97q1 -28 1 -47q0 -12 -9 -21q-13 -7 -23 -7q-20 0 -20 14v14
h-390v-255q11 2 21 5q36 8 79 25q42 13 100 39l4 -22q-43 -27 -75 -45q-37 -18 -69 -34q-28 -14 -60 -23q-11 -36 -18 -36q-8 0 -48 80q12 2 22 3v515q0 41 -8 70l58 -44h176q-2 5 -3 8q-3 16 -13 33q-12 17 -24 30q-10 16 -32 31zM420 614v-88h390v88h-390zM420 496v-102
h390v102h-390zM910 274q-29 -18 -66 -36q-34 -14 -70 -25q-25 -12 -50 -19q4 -4 8 -6q30 -23 79 -45q47 -24 94 -36q41 -12 85 -17v-14q-59 0 -70 -34q-63 19 -102 40q-52 25 -92 59q-45 35 -77 75q-33 42 -57 94l22 8q29 -48 57 -78q17 -17 37 -34q30 18 55 29q29 16 51 36
q26 16 42 35q21 17 32 36q76 -49 76 -62q0 -10 -22 -10q-10 0 -32 4z" />
  </g>

</svg>
