<?xml version="1.0" standalone="no"?>
<!DOCTYPE svg PUBLIC "-//W3C//DTD SVG 1.1//EN" "http://www.w3.org/Graphics/SVG/1.1/DTD/svg11.dtd" >
<svg xmlns="http://www.w3.org/2000/svg" xmlns:xlink="http://www.w3.org/1999/xlink" version="1.1" viewBox="0 -410 2048 2048">
  <g transform="matrix(1 0 0 -1 0 1638)">
   <path fill="currentColor"
d="M1430 1711l-13 -95q-4 -34 -14 -42q-14 -12 -42 -12q-44 0 -44 28q0 3 1 8l17 113h-58q-69 0 -149 -11l-39 86q125 -18 188 -18h65l21 207l138 -32q38 -9 38 -27q0 -27 -89 -50l-13 -98h292l95 98l120 -102q17 -15 17 -26q0 -27 -27 -27h-504zM672 1764h94l83 87l120 -92
q18 -14 18 -27q0 -25 -28 -25h-280l12 -91v-11q0 -35 -56 -35q-32 0 -36 34l-13 103h-307q-67 0 -148 -11l-40 86q122 -18 188 -18h300l-26 213l98 -13q85 -12 85 -37q0 -24 -78 -48zM1207 1564l102 -29q69 -19 69 -40t-30 -28l-39 -10q151 -148 342 -239q172 -82 317 -109
v-38q-88 -3 -123 -65q-318 114 -579 425q-214 -291 -582 -446l-20 37q218 112 356 257q114 120 187 285zM1318 723h298l98 102l121 -107q17 -15 17 -25q0 -26 -27 -26h-507v-429q0 -141 -155 -170q-11 68 -43 90q-30 20 -147 42l7 46q153 -24 182 -24q56 0 56 58v387h-245
q-118 0 -191 -8l-39 88q93 -24 230 -24h245v231h-125q-103 0 -191 -8l-39 87q94 -22 230 -22h419l80 81l114 -86q17 -13 17 -26q0 -26 -27 -26h-378v-231zM918 574l73 -34q66 -31 66 -55t-39 -24h-45q-77 -99 -165 -171q-68 -55 -208 -135l-24 31q220 154 342 388zM1520 570
q102 -50 199 -116q172 -118 172 -204q0 -18 -13 -34q-16 -20 -40 -20q-33 0 -76 76q-66 115 -266 268zM490 1518l105 -55q38 -20 38 -37q0 -29 -42 -29h-42q-120 -125 -227 -204q-78 -57 -216 -121l-19 38q265 159 403 408zM575 1225l92 -45q49 -23 49 -45t-40 -27l-38 -5
q-80 -109 -188 -213q60 -28 60 -53q0 -21 -64 -41v-408q0 -104 13 -218q3 -31 3 -50q0 -46 -57 -46q-55 0 -55 41v689q-115 -80 -282 -154l-19 37q201 130 287 212q141 133 239 326z" />
  </g>

</svg>
