<?xml version="1.0" standalone="no"?>
<!DOCTYPE svg PUBLIC "-//W3C//DTD SVG 1.1//EN" "http://www.w3.org/Graphics/SVG/1.1/DTD/svg11.dtd" >
<svg xmlns="http://www.w3.org/2000/svg" xmlns:xlink="http://www.w3.org/1999/xlink" version="1.1" viewBox="0 -410 2048 2048">
  <g transform="matrix(1 0 0 -1 0 1638)">
   <path fill="currentColor"
d="M1409 1380q-43 -235 -137 -345q-100 -116 -344 -219l-15 40q218 107 301 244q57 93 92 280h-100q-68 0 -148 -11l-40 88q123 -19 188 -19h493l69 80l93 -61q38 -25 38 -45q0 -28 -85 -59q-33 -196 -53 -269q-44 -161 -154 -211q-39 -18 -122 -29q-3 47 -21 73
q-13 20 -109 58l8 41q136 -38 187 -38q80 0 113 122q18 68 52 280h-306zM353 1390q135 21 253 56q126 37 230 109l68 -72q33 -35 33 -52q0 -24 -27 -24q-9 0 -43 11l-24 8q-200 -59 -476 -84v-349q264 70 458 141q-24 36 -104 121l24 25q97 -67 147 -112q104 -93 104 -171
q0 -30 -22 -48q-15 -12 -34 -12q-22 0 -33 15q-5 9 -22 60q-16 51 -42 85q-110 -68 -467 -210l-5 -22q-7 -34 -24 -34q-16 0 -42 43l-56 94l22 4v347q-4 74 -11 124zM1590 165h-1120v-29q0 -37 -50 -37q-65 0 -61 55l4 62l4 80l4 76v296q0 60 -5 145l116 -59h1088l68 76
l91 -54q40 -24 40 -49q0 -27 -77 -61v-292q0 -21 4 -84q1 -19 4 -80q2 -38 3 -59q1 -8 1 -13q0 -46 -77 -46q-37 0 -37 26v47zM1072 697v-207h518v207h-518zM1072 435v-214h518v214h-518zM976 221v214h-506v-214h506zM976 490v207h-506v-207h506zM1445 1708l-13 -95
q-5 -34 -14 -42q-15 -12 -42 -12q-44 0 -44 29v7l19 113h-78q-70 0 -149 -11l-39 86q125 -18 188 -18h85l24 203l137 -32q39 -9 39 -28q0 -26 -89 -49l-17 -94h280l95 98l120 -102q17 -14 17 -26q0 -27 -27 -27h-492zM663 1768h94l86 87l118 -92q18 -14 18 -27
q0 -25 -28 -25h-281l13 -106v-11q0 -35 -56 -35q-32 0 -36 34l-14 118h-306q-69 0 -149 -11l-39 86q126 -18 188 -18h299l-25 206l98 -14q85 -11 85 -36t-78 -49z" />
  </g>

</svg>
