<?xml version="1.0" standalone="no"?>
<!DOCTYPE svg PUBLIC "-//W3C//DTD SVG 1.1//EN" "http://www.w3.org/Graphics/SVG/1.1/DTD/svg11.dtd" >
<svg xmlns="http://www.w3.org/2000/svg" xmlns:xlink="http://www.w3.org/1999/xlink" version="1.1" viewBox="0 -120 1000 1000">
  <g transform="matrix(1 0 0 -1 0 880)">
   <path fill="currentColor"
d="M50 826l-10 27h275v104l79 -6q14 -1 14 -12q0 -8 -12 -13l-22 -10v-63h238v102l76 -6q16 -2 16 -13q0 -8 -12 -14l-19 -8v-61h150l45 56l83 -66v-17h-278v-79l-61 -12v91h-238v-84l-59 -10v94h-265zM298 623l-74 -225q-38 -116 -38 -166q0 -5 1 -12q12 -101 12 -108
q0 -25 -18 -43q-10 -10 -23 -10q-39 0 -39 47q0 4 10 60q4 25 4 55q0 42 -16 57q-16 16 -60 21v17l79 1l149 312zM63 623q59 -12 96 -38q33 -23 33 -57q0 -18 -12 -29q-8 -7 -18 -7q-8 0 -15 5t-27 43q-17 33 -63 69zM126 774q37 -5 77 -27q52 -29 52 -73q0 -17 -11 -26
q-8 -7 -18 -7t-18 6q-4 4 -27 48q-16 30 -60 65zM284 67q68 46 100 89q36 48 49 103q7 30 9 90l-103 -49l-3 -18q-3 -16 -14 -16q-6 0 -12 11l-36 68l168 53v193h-107l-9 27h94q29 73 55 162l74 -22q16 -5 16 -16q0 -10 -17 -12l-20 -3l-84 -109h88l37 52l64 -52h69
q33 74 64 160l65 -25q18 -7 18 -16q0 -10 -18 -13l-19 -4l-83 -102h107l35 42l71 -51v-18h-154v-182h55l38 52l69 -62v-16h-162v-322l-61 -7v329h-137l-9 26h147v182h-226l-1 -173l142 48l7 -17l-151 -72q-3 -98 -19 -143q-25 -72 -93 -123q-35 -27 -93 -59z" />
  </g>

</svg>
