<?xml version="1.0" standalone="no"?>
<!DOCTYPE svg PUBLIC "-//W3C//DTD SVG 1.1//EN" "http://www.w3.org/Graphics/SVG/1.1/DTD/svg11.dtd" >
<svg xmlns="http://www.w3.org/2000/svg" xmlns:xlink="http://www.w3.org/1999/xlink" version="1.1" viewBox="0 -410 2048 2048">
  <g transform="matrix(1 0 0 -1 0 1638)">
   <path fill="currentColor"
d="M1510 803q-40 27 -87 48l16 31q100 -28 198 -75q137 -64 137 -127q0 -51 -44 -51q-23 0 -65 49q-32 36 -88 81q-177 -28 -401 -52q-489 -51 -856 -59q-5 -55 -30 -55q-22 0 -51 69l-41 97q70 -9 290 -9q249 0 471 12v134h-463v-34q0 -31 -52 -31q-53 0 -53 44q0 4 4 49
q6 97 6 104v373l117 -65h441v113h-606q-124 0 -192 -8l-39 89q101 -24 231 -24h606q-1 131 -8 169l101 -24q74 -18 74 -47q0 -25 -51 -39l-23 -7v-52h643l99 101l121 -107q17 -15 17 -25q0 -26 -28 -26h-852v-113h478l68 77l84 -55q40 -26 40 -49q0 -28 -77 -61v-205
q0 -41 7 -105q3 -29 3 -44q0 -49 -67 -49q-39 0 -39 25v26h-497v-128l29 2q225 14 392 29zM1549 1278h-497v-134h497v134zM959 1086h-463v-132h463v132zM1052 1086v-132h497v132h-497zM959 1278h-463v-134h463v134zM1347 544q-1 131 -8 169l101 -24q74 -18 74 -47
q0 -25 -51 -39l-23 -7v-52h320l98 101l121 -106q17 -15 17 -26q0 -26 -27 -26h-529v-256q0 -143 -169 -171q-13 73 -55 98q-38 23 -182 46l8 46q211 -35 248 -35q57 0 57 57v215h-1053q-114 0 -192 -8l-38 87q95 -22 230 -22h1053zM1413 1727l-16 -110q-6 -36 -14 -43
q-15 -12 -41 -12q-52 0 -48 31q0 1 1 6l23 128h-52q-68 0 -149 -11l-39 86q126 -18 188 -18h60l24 189l139 -29q38 -8 38 -30t-38 -32l-55 -16l-12 -82h315l95 98l120 -103q17 -14 17 -26q0 -26 -27 -26h-529zM589 1784l-22 190l98 -13q85 -12 85 -36q0 -22 -34 -34l-44 -15
l10 -92h64l83 87l120 -92q18 -14 18 -27q0 -25 -28 -25h-251l13 -114q0 -7 1 -11q2 -35 -57 -35q-32 0 -36 34l-14 126h-332q-69 0 -148 -11l-40 86q126 -18 188 -18h326zM550 438q263 -110 263 -222q0 -55 -52 -55q-18 0 -31 12q-6 6 -26 51q-41 94 -178 182z" />
  </g>

</svg>
