<?xml version="1.0" standalone="no"?>
<!DOCTYPE svg PUBLIC "-//W3C//DTD SVG 1.1//EN" "http://www.w3.org/Graphics/SVG/1.1/DTD/svg11.dtd" >
<svg xmlns="http://www.w3.org/2000/svg" xmlns:xlink="http://www.w3.org/1999/xlink" version="1.1" viewBox="0 -410 2048 2048">
  <g transform="matrix(1 0 0 -1 0 1638)">
   <path fill="currentColor"
d="M776 1380v-214q0 -70 30 -82q39 -14 307 -14q121 0 165 9t59 37q16 28 39 186l6 43l31 -5l-5 -144v-11q0 -49 16 -69q4 -6 38 -34q17 -15 17 -30q0 -38 -83 -57q-72 -18 -331 -18q-263 0 -308 14q-77 24 -77 121v233q0 12 -2 60q-1 18 -3 60q0 21 -4 37l109 -24
q86 -19 86 -45q0 -28 -50 -42zM794 451v-120q0 -40 15 -59q4 -6 36 -35q13 -12 13 -29q0 -70 -256 -70q-137 0 -178 18q-59 27 -59 112v377l-2 61q-3 80 -6 98l107 -24q87 -20 87 -46q0 -27 -50 -42l-37 -11v-378q0 -44 27 -58.5t106 -14.5q110 0 129 49q15 40 35 178z
M1745 451v-120q0 -40 15 -59q4 -6 35 -35q13 -12 13 -29q0 -70 -273 -70q-168 0 -210 18q-59 26 -59 112v358l-2 60q-3 81 -7 98l108 -24q87 -19 87 -46q0 -26 -50 -41l-37 -11v-359q0 -50 28 -60q42 -14 130 -14q134 0 153 50q15 39 35 178zM1412 1696l-16 -110
q-5 -35 -14 -43q-15 -12 -41 -12q-50 0 -48 31q0 2 1 6l22 128h-47q-68 0 -149 -11l-39 86q124 -18 188 -18h56l24 189l139 -29q38 -8 38 -30q0 -21 -38 -32l-55 -16l-12 -82h319l95 98l120 -103q17 -15 17 -26q0 -26 -27 -26h-533zM677 1753h71l84 87l120 -92
q18 -14 18 -27q0 -25 -28 -25h-262l16 -118q1 -7 1 -11q2 -35 -56 -35q-33 0 -37 34l-15 130h-323q-68 0 -149 -11l-39 86q123 -18 188 -18h317l-21 186l98 -13q85 -12 85 -37q0 -21 -34 -33l-44 -16zM459 1413l36 -4q-1 -107 -24 -179q-27 -87 -77 -136q-53 -52 -106 -52
q-49 0 -49 36q0 27 83 89q114 84 137 246zM224 648h37q-2 -176 -39 -278q-47 -126 -123 -126q-46 0 -46 43q0 28 65 86q63 57 88 148q8 31 18 127zM1125 633l38 -4q1 -21 1 -29q0 -115 -21 -201q-21 -89 -82 -131q-23 -16 -45 -16q-44 0 -44 40q0 25 55 76q64 58 84 152
q6 26 14 113zM1544 1422q260 -184 260 -315q0 -26 -15.5 -45t-36.5 -19q-22 0 -35 19q-9 14 -25 77q-28 111 -170 258zM943 1535q227 -100 227 -202q0 -57 -46 -57q-21 0 -37 19q-4 5 -22 55q-21 61 -139 159zM1762 645q122 -88 153 -122q72 -79 72 -142q0 -61 -46 -61
q-38 0 -55 59q-43 147 -145 240zM807 671q165 -114 165 -196q0 -58 -43 -58q-30 0 -48 68q-23 86 -99 159zM1413 963q23 -14 80 -46q180 -99 180 -182q0 -51 -49 -51q-31 0 -60 61q-49 105 -175 182zM503 985q253 -117 253 -220q0 -21 -15 -37.5t-35 -16.5q-16 0 -29 11
q-8 7 -36 61q-41 83 -161 173z" />
  </g>

</svg>
