<?xml version="1.0" standalone="no"?>
<!DOCTYPE svg PUBLIC "-//W3C//DTD SVG 1.1//EN" "http://www.w3.org/Graphics/SVG/1.1/DTD/svg11.dtd" >
<svg xmlns="http://www.w3.org/2000/svg" xmlns:xlink="http://www.w3.org/1999/xlink" version="1.1" viewBox="0 -140 1000 1000">
  <g transform="matrix(1 0 0 -1 0 860)">
   <path fill="currentColor"
d="M142 661h-85v22h328l33 40h14l53 -48v-14h-121v-204h15l33 37h13l46 -45v-14h-107v-289q0 -39 -22.5 -56t-89.5 -28l-9 9l-5 28l-86 29l9 18l94 -12l21 -1q19 0 23 8t4 34v192q-57 -78 -106 -124t-126 -94l-9 12q115 111 214 274l-224 -1v21h90v206zM201 661v-204h102
v204h-102zM841 110l38 42h18l51 -50v-14h-383v-22l-9 -9l-40 -7l-13 12v427l-32 -32l-15 12q58 94 114 272l81 -35v-17l-35 -7l-40 -89l124 -1l39 134l75 -32l-2 -14l-27 -4l-54 -84l113 1l32 42h18l50 -48v-16h-191v-133h61l33 36h16l47 -42v-16h-157v-146h66l34 39h17
l47 -46v-15h-164v-138h88zM565 438h124v133h-124v-133zM565 270h124v146h-124v-146zM565 110h124v138h-124v-138zM647 936l101 -22v-15l-40 -16v-36h133l39 43h12l52 -48v-17h-236v-67l-5 -12l-48 -10l-8 6v83h-129v22h129v89zM408 847l36 43h15l48 -46v-19h-162v-69l-5 -11
l-48 -12l-8 4v88h-228v22h228v89l101 -20v-15l-40 -16v-38h63z" />
  </g>

</svg>
