<?xml version="1.0" standalone="no"?>
<!DOCTYPE svg PUBLIC "-//W3C//DTD SVG 1.1//EN" "http://www.w3.org/Graphics/SVG/1.1/DTD/svg11.dtd" >
<svg xmlns="http://www.w3.org/2000/svg" xmlns:xlink="http://www.w3.org/1999/xlink" version="1.1" viewBox="0 -410 2048 2048">
  <g transform="matrix(1 0 0 -1 0 1638)">
   <path fill="currentColor"
d="M278 1266h1514l58 58l85 -64q37 -28 37 -42q0 -10 -16 -19q-4 -2 -75 -21q-84 -79 -155 -128l-26 26q55 69 92 134h-1514q-23 -216 -139 -216q-50 0 -50 45q0 25 58 72q66 54 81 135q6 33 10 92h40v-72zM800 618h576l80 72l80 -63q36 -28 36 -53q0 -27 -102 -44
q-156 -139 -288 -218q151 -39 299 -60q230 -33 366 -33q28 0 64 1v-43q-62 -15 -90 -30q-30 -17 -51 -65q-63 10 -95 15q-224 36 -375 77q-83 23 -236 80q-201 -78 -421 -118q-204 -37 -514 -60l-11 40q265 32 482 78q152 33 346 110q-150 76 -320 195q-190 -94 -404 -147
l-15 37q196 70 351 164q-29 26 -70 65l38 27q45 -33 80 -61q126 97 205 201l114 -57q37 -19 37 -37q0 -29 -54 -29q-28 0 -56 1q-25 -24 -52 -45zM722 560q-22 -14 -42 -28q145 -90 374 -181q160 89 296 209h-628zM480 1457q143 -48 143 -118q0 -43 -43 -43q-26 0 -37 27
q-28 68 -81 106zM912 1466q144 -58 144 -126q0 -47 -44 -47q-18 0 -29 14q-3 4 -20 50q-15 41 -70 82zM623 1162l105 -24q86 -20 86 -45q0 -30 -50 -43l-42 -11v-82q0 -35 35 -52q44 -20 176 -20h239q108 0 147 18q29 14 42 79q4 16 18 91l43 -8q-4 -55 -4 -79q0 -34 17 -51
q5 -6 43 -30q13 -8 13 -25q0 -85 -314 -85h-233q-182 0 -256 34q-57 27 -57 103v70q0 119 -8 160zM1550 1509l81 -41q46 -23 46 -39q0 -26 -41 -26h-24q-7 0 -15 1q-113 -79 -209 -118l-19 30q92 71 181 193zM349 1478v45q809 39 1193 140l102 -82q18 -14 18 -26
q0 -22 -31 -22q-14 0 -65 11l-111 -9l-201 -15l-246 -19l-186 -8q-265 -12 -473 -15zM433 1099h41q-1 -119 -22 -188q-20 -61 -64 -97q-37 -30 -76 -30q-57 0 -57 50q0 24 56 52q107 53 122 213zM925 1178q255 -51 255 -151q0 -51 -45 -51q-24 0 -63 52q-50 65 -160 120z
M1491 1131q125 -58 171 -91q76 -55 76 -103q0 -59 -48 -59q-31 0 -55 48q-49 98 -164 177zM1427 1798h319l95 98l120 -103q17 -14 17 -25q0 -27 -27 -27h-530l-9 -56q-5 -35 -14 -42q-13 -11 -39 -11q-51 0 -51 30q0 3 3 19l11 60h-43q-66 0 -148 -11l-40 86
q122 -18 188 -18h54l10 70q1 12 3 46q1 18 4 54l88 -16q95 -17 95 -45q0 -26 -39 -35l-56 -12zM685 1741l13 -78q1 -5 1 -11q-2 -45 -57 -45q-29 0 -35 18q-3 8 -6 38l-9 78h-278q-117 0 -192 -8l-38 88q31 -8 230 -23h270l-17 166l102 -13q85 -11 85 -37q0 -21 -42 -38
l-38 -15l6 -63h79l83 87l120 -92q19 -14 19 -25q0 -27 -31 -27h-265z" />
  </g>

</svg>
