<?xml version="1.0" standalone="no"?>
<!DOCTYPE svg PUBLIC "-//W3C//DTD SVG 1.1//EN" "http://www.w3.org/Graphics/SVG/1.1/DTD/svg11.dtd" >
<svg xmlns="http://www.w3.org/2000/svg" xmlns:xlink="http://www.w3.org/1999/xlink" version="1.1" viewBox="0 -204 1024 1024">
  <g transform="matrix(1 0 0 -1 0 820)">
   <path fill="currentColor"
d="M42 880q44 -10 118 -10h129l-9 94q44 -5 76 -10q12 -3 12 -8q0 -6 -14 -14q-12 -8 -22 -12l4 -50h54l40 40q32 -23 57 -43q9 -4 9 -9q0 -18 -14 -18h-144l4 -62q0 -10 -8 -15q-11 -7 -24 -7q-10 0 -12 8l-6 76h-132q-72 -1 -98 -4zM654 964q43 -4 78 -17q6 -3 6 -9
q0 -10 -14 -15q-15 -5 -30 -7q-1 -25 -4 -46h164l44 46q38 -25 69 -47q9 -5 9 -11q0 -18 -12 -18h-277q-3 -29 -7 -62q-4 -18 -30 -18q-18 0 -18 14l1 10q2 8 5 27q2 16 3 29q-52 -2 -75 -4l-18 44q38 -9 97 -10q7 55 9 94zM42 694q44 -12 118 -12h198l44 44q32 -24 62 -48
q6 -4 6 -10q0 -14 -10 -14h-208q-16 -55 -37 -99q-7 -22 -15 -37h128l30 40q30 -22 51 -40q7 -7 7 -14q-2 -8 -13 -15q-10 -7 -19 -11q-15 -75 -45 -142q-27 -56 -67 -110q-42 -61 -90 -103q-52 -49 -132 -95l-14 14q65 40 110 87q49 46 82 100q12 13 20 30q-5 1 -7 3
q-8 4 -26 36q-17 29 -42 54q-17 19 -45 44q-7 -10 -14 -21q-31 -38 -74 -83l-12 18q38 48 64 93q28 42 48 91q22 42 35 90q12 37 21 70h-36q-72 -1 -98 -4zM138 411q30 -15 52 -33q29 -18 48 -32q16 -15 23 -25q6 -7 9 -16q1 -1 1 -2q14 24 25 54q31 70 36 131h-148
q-9 -16 -16 -31q-13 -22 -30 -46zM646 742q47 -9 80 -23q8 -3 8 -11q0 -7 -16 -13q-11 -3 -22 -4q25 -31 52 -52q33 -31 76 -60q43 -25 87 -46q42 -15 79 -25v-16q-51 0 -66 -28q-41 19 -74 40q-38 27 -64 54q-29 24 -59 57q-25 28 -51 68q-13 -27 -30 -50q-21 -27 -49 -56
q-31 -30 -56 -49q-28 -24 -60 -42q-32 -24 -69 -40l-18 18q45 24 79 52q33 24 64 56q30 32 55 61q21 28 35 55q13 22 19 54zM720 566q25 -20 48 -36q6 -4 6 -8q0 -18 -6 -18h-202v28h120zM542 430l-2 -4v-46h268v50h-266zM540 354v-52h268v52h-268zM540 274v-166q7 1 14 3
q31 7 69 22q35 12 85 31l4 -18q-35 -27 -64 -42q-27 -16 -53 -30q-26 -12 -51 -20q-13 -36 -18 -36q-8 0 -48 80q6 1 14 2v386l53 -30h259l26 32q54 -31 54 -42t-30 -30v-136q0 -17 -32 -22q-14 0 -14 8v8h-268zM902 204q-15 -10 -37 -18q-17 -9 -38 -15q-7 -5 -11 -6
q36 -21 55 -38q31 -24 43 -40q13 -14 17 -25q5 -11 5 -20q0 -18 -12 -18q-10 0 -18 5q-10 4 -29 29q-27 33 -61 60q-30 29 -67 59q-39 26 -85 53l12 10q64 -26 115 -57l6 -4q11 8 19 13q14 11 28 25q10 12 19 23q10 12 17 26q70 -44 70 -58q0 -8 -14 -8q-12 0 -34 4z" />
  </g>

</svg>
