<?xml version="1.0" standalone="no"?>
<!DOCTYPE svg PUBLIC "-//W3C//DTD SVG 1.1//EN" "http://www.w3.org/Graphics/SVG/1.1/DTD/svg11.dtd" >
<svg xmlns="http://www.w3.org/2000/svg" xmlns:xlink="http://www.w3.org/1999/xlink" version="1.1" viewBox="0 -140 1000 1000">
  <g transform="matrix(1 0 0 -1 0 860)">
   <path fill="currentColor"
d="M616 678h129l26 26h17l59 -51l-3 -16l-29 -7l-1 -370h15l49 54h16l59 -58v-19h-905v23h117v438l65 -27q62 25 116 61l44 -44l-4 -11l-23 2q-105 -25 -135 -31v-105h51l28 39l13 -1l40 -43v-18l-132 -1v-113l51 -1l27 39h15l39 -44v-17h-132l-1 -123h173v214l91 -22v-15
l-27 -13l-1 -164h58v256h-58l1 -15l-6 -7l-51 -6l-6 8l-1 268l91 -20v-17l-28 -13l-1 -62h65l32 34h14l39 -39v-18h-150l1 -89l58 -1l27 23h15l45 -55l-6 -13l-18 -7l-1 -227h169v123h-112v22l112 1v113l-113 1v23h113v112h-136v23zM578 203l6 15q140 -30 216 -61
q85 -34 85 -84q0 -26 -17 -26q-10 0 -21 8q-111 81 -269 148zM83 53l-3 13q101 39 159.5 72t126.5 91l63 -57l-6 -12l-37 4q-75 -42 -131 -62.5t-172 -48.5zM647 840v89l101 -22v-15l-40 -16v-36h133l39 43h12l52 -48v-17h-236v-59l-5 -12l-48 -10l-8 6v75h-129v22h129z
M284 840v89l101 -20v-15l-40 -16v-38h63l36 43h15l48 -46v-19h-162v-55l-5 -12l-48 -12l-8 4v75h-228v22h228z" />
  </g>

</svg>
