<?xml version="1.0" standalone="no"?>
<!DOCTYPE svg PUBLIC "-//W3C//DTD SVG 1.1//EN" "http://www.w3.org/Graphics/SVG/1.1/DTD/svg11.dtd" >
<svg xmlns="http://www.w3.org/2000/svg" xmlns:xlink="http://www.w3.org/1999/xlink" version="1.1" viewBox="0 -204 1024 1024">
  <g transform="matrix(1 0 0 -1 0 820)">
   <path fill="currentColor"
d="M46 880q44 -10 118 -10h118l-16 88q44 -5 78 -12q10 -3 10 -8q0 -7 -12 -14q-11 -8 -24 -10l9 -44h67l40 40q32 -23 59 -43q7 -4 7 -9q0 -18 -14 -18h-154l8 -52q0 -8 -10 -11q-13 -7 -24 -7q-9 0 -10 8l-10 62h-122q-72 -1 -96 -4zM686 958q43 -4 80 -19q4 -5 4 -11
q0 -8 -14 -13q-16 -3 -30 -5q-1 -23 -5 -40h137l44 46q36 -25 69 -47q9 -5 9 -11q0 -18 -12 -18h-252q-5 -25 -14 -54q-3 -16 -26 -16q-22 0 -22 12l2 8q3 8 8 26q3 13 5 24h-1q-71 -1 -98 -4l-18 44q43 -10 116 -10h6q9 50 12 88zM72 738l58 -44h126l32 44q36 -24 52 -43
q6 -7 6 -13q0 -11 -36 -32v-384q0 -76 3 -99q1 -28 1 -47q0 -14 -10 -21q-12 -5 -20 -5q-22 0 -22 10v26h-138v-26q0 -10 -22 -10q-8 0 -20 5q-10 7 -10 21q0 19 2 47q6 23 6 99v402q0 39 -8 70zM124 156h138v164h-138v-164zM124 350h138v150h-138v-150zM124 530h138v134
h-138v-134zM412 726q39 -10 110 -10h48l32 32q34 -18 50 -38q6 -6 6 -8q0 -6 -13 -14q-14 -10 -21 -12q-42 -76 -79 -121q-37 -47 -80 -82q-44 -37 -107 -71l-16 14q67 43 108 81q10 10 19 23q-1 -1 -2 0q-5 3 -21 21q-15 21 -32 35q-20 16 -50 38l12 10q30 -11 51 -24
q25 -13 39 -22q11 -6 18 -12q4 -6 9 -11q2 -5 2 -7q11 16 19 28q29 40 60 114h-52q-79 0 -96 -4zM702 686q15 -24 29 -42q18 12 29 21q14 13 27 30q15 13 23 30q10 14 16 27q72 -44 72 -54q0 -8 -14 -8q-13 0 -32 4q-18 -16 -42 -30q-18 -10 -40 -20q-13 -10 -28 -15
q12 -11 21 -19q18 -22 42 -40l28 12q19 10 33 23q18 11 30 21q11 13 18 24q72 -44 72 -58q0 -8 -14 -8t-34 4q-20 -8 -46 -15q-25 -7 -49 -12q-10 -3 -21 -5q5 -6 11 -9q37 -27 77 -48q38 -17 72 -25v-18q-49 0 -68 -26q-35 16 -64 42q-34 24 -56 55q-27 27 -54 58
q-26 35 -58 91zM470 470q44 -14 118 -14h120l44 44q30 -22 59 -46q7 -4 7 -8q0 -16 -10 -16h-150q-1 -75 -8 -124h190l44 48q36 -27 66 -49q8 -5 8 -13q0 -16 -12 -16h-302q-12 -50 -40 -87q-30 -42 -65 -73q-45 -31 -89 -55q-47 -22 -108 -41l-10 22q51 19 90 36
q35 20 63 41q29 26 58 56q22 25 39 59q7 21 12 42h-134q-72 -1 -96 -2l-22 44q44 -12 118 -12h138l2 8q6 41 6 116h-18q-72 -1 -96 -4zM694 208q68 -20 116 -45q53 -24 83 -45q30 -16 42 -29q11 -11 15 -21q4 -7 4 -14q0 -22 -16 -22q-7 0 -15 4q-11 6 -30 24q-28 27 -59 47
q-31 26 -69 47q-40 23 -85 42z" />
  </g>

</svg>
