<?xml version="1.0" standalone="no"?>
<!DOCTYPE svg PUBLIC "-//W3C//DTD SVG 1.1//EN" "http://www.w3.org/Graphics/SVG/1.1/DTD/svg11.dtd" >
<svg xmlns="http://www.w3.org/2000/svg" xmlns:xlink="http://www.w3.org/1999/xlink" version="1.1" viewBox="0 -410 2048 2048">
  <g transform="matrix(1 0 0 -1 0 1638)">
   <path fill="currentColor"
d="M1163 493l79 -75q23 -22 23 -37q0 -19 -23 -19h-473q-21 -13 -53 -13q-37 0 -37 26v869l122 -66h272l74 75l91 -70q38 -25 38 -38q0 -23 -34 -23h-211v-176h91l61 72l72 -50q42 -29 42 -50q0 -15 -65 -52v-139q55 -40 55 -54q0 -21 -36 -21h-216v-234h54zM936 652h-161
v-234h161v234zM936 1122h-161v-176h161v176zM775 706h362v186h-362v-186zM1453 574q-83 292 -86 753h-809v-381q0 -379 -70 -581q-56 -163 -192 -296l-31 27q84 101 126 225q53 155 67 425h-155q-22 -218 -72 -333q-39 -90 -138 -197l-28 28q67 91 101 216q26 96 37 286
q-52 -3 -94 -6l-30 80q86 -16 224 -16h155v256h-176q-30 -9 -49 -9q-46 0 -44 28l1 19v200q0 118 -7 160l109 -24q85 -19 85 -46q0 -28 -49 -42l-42 -11v-221h172v184l1 54q0 30 -6 106l114 -72h796q-4 120 -12 168l137 -38q52 -14 52 -37q0 -28 -76 -49v-44h261l88 88
l104 -83q31 -25 31 -44q0 -20 -19 -20h-465q-1 -35 -1 -56q0 -263 59 -592q95 146 217 470l131 -62q32 -15 32 -35q0 -19 -17 -24q-15 -4 -47 -5q-10 -1 -29 -3q-121 -262 -250 -453q59 -128 123 -200q69 -78 94 -78q14 0 50 108l70 213l39 -16l-52 -229q-16 -70 -16 -89
q0 -31 25 -75q24 -41 24 -59q0 -35 -45 -35q-92 0 -223 137q-59 62 -156 226q-187 -221 -428 -336l-21 38q127 87 242 195q67 63 168 207zM1536 1657q94 -48 126 -74q57 -44 57 -90q0 -54 -48 -54q-14 0 -23 8q-9 7 -34 62q-26 56 -101 120zM1426 1779h317l97 97l117 -102
q17 -15 17 -25q0 -27 -28 -27h-530l-14 -90q-5 -33 -12 -41q-13 -14 -42 -14q-54 0 -49 29l6 36l12 80h-31q-96 0 -171 -8l-34 87q110 -22 189 -22h55l12 78q5 28 11 107l110 -20q70 -13 70 -39q0 -13 -11 -24q-3 -2 -42 -14l-34 -10zM679 1722l12 -85q4 -24 4 -36
q0 -36 -55 -36q-24 0 -33 12q-4 6 -7 36l-12 109h-279q-116 0 -191 -8l-35 87q109 -22 230 -22h267l-22 180l104 -13q82 -11 82 -39t-41 -40l-36 -10l8 -78h79l84 88l121 -93q18 -14 18 -25q0 -27 -31 -27h-267z" />
  </g>

</svg>
