<?xml version="1.0" standalone="no"?>
<!DOCTYPE svg PUBLIC "-//W3C//DTD SVG 1.1//EN" "http://www.w3.org/Graphics/SVG/1.1/DTD/svg11.dtd" >
<svg xmlns="http://www.w3.org/2000/svg" xmlns:xlink="http://www.w3.org/1999/xlink" version="1.1" viewBox="0 -410 2048 2048">
  <g transform="matrix(1 0 0 -1 0 1638)">
   <path fill="currentColor"
d="M1369 1061l64 -44q37 -26 37 -36q0 -16 -21 -27l-38 -20v-56l34 -26q13 -10 13 -25q0 -21 -19 -21h-726v-12q0 -29 -45 -29q-37 0 -47 17q-4 5 -4 37v232l103 -59h583l60 69h-958v-335q0 -30 -53 -30q-54 0 -54 43q0 6 4 50q7 94 7 105v137l-4 75q-4 67 -9 103l120 -91
h1209l68 76l83 -54q40 -26 40 -48q0 -26 -77 -61v-179q0 -124 -152 -148q-4 56 -26 75q-14 12 -63 27l8 40q67 -9 86 -9q54 0 54 57v167h-277zM713 863h604v71h-604v-71zM975 602q-121 -6 -370 -10l-141 -2l-59 -1l-4 38q758 36 1028 140l94 -93q19 -19 19 -36
q0 -21 -30 -21q-9 0 -19 2l-78 17q-262 -27 -345 -28v-97h662l87 97l105 -73q42 -29 42 -56q0 -25 -29 -25h-867v-132q0 -79 10 -155q4 -34 4 -53q0 -55 -63 -55q-46 0 -46 50v345h-705q-67 0 -149 -11l-39 87q120 -19 188 -19h705v91zM1394 1454l61 -41q43 -29 43 -44
q0 -13 -25 -29l-37 -22v-64l33 -22q15 -11 15 -25q0 -22 -21 -22h-776v-12q0 -29 -44 -29q-52 0 -52 39v255l103 -50h633l58 66h-954q-119 0 -192 -8l-38 88q99 -23 230 -23h588q-16 14 -35 49q-23 42 -63 66q-9 5 -67 36l10 25q222 -57 222 -129q0 -26 -29 -47h526l100 102
l119 -107q17 -15 17 -26q0 -26 -27 -26h-398zM687 1241h654v89h-654v-89zM1181 402q246 -48 419 -101q117 -36 156 -69q29 -23 29 -59q0 -23 -14 -39q-15 -18 -34 -18q-27 0 -109 58q-119 84 -460 194zM736 307q-253 -128 -558 -194l-10 35q368 125 537 295l113 -83
q27 -20 27 -35q0 -24 -29 -24h-4q-2 0 -4 1zM1418 1791h318l96 97l117 -102q17 -15 17 -25q0 -27 -27 -27h-531l-16 -98q-5 -33 -12 -41q-13 -14 -42 -14q-54 0 -49 29l6 36l15 88h-39q-98 0 -171 -8l-36 87q110 -22 191 -22h63l6 63q7 64 10 107l110 -20q71 -13 71 -41
q0 -26 -54 -39l-33 -7zM672 1734l14 -100q3 -18 3 -27q0 -38 -57 -38q-37 0 -41 48l-11 117h-278q-118 0 -192 -8l-35 87q107 -22 230 -22h267l-21 165l103 -14q82 -10 82 -38t-41 -40l-35 -10l7 -63h83l84 88l121 -93q19 -14 19 -25q0 -27 -32 -27h-270z" />
  </g>

</svg>
