<?xml version="1.0" standalone="no"?>
<!DOCTYPE svg PUBLIC "-//W3C//DTD SVG 1.1//EN" "http://www.w3.org/Graphics/SVG/1.1/DTD/svg11.dtd" >
<svg xmlns="http://www.w3.org/2000/svg" xmlns:xlink="http://www.w3.org/1999/xlink" version="1.1" viewBox="0 -120 1000 1000">
  <g transform="matrix(1 0 0 -1 0 880)">
   <path fill="currentColor"
d="M28 74q89 155 88 372l-2 293l73 -36h287l1 91l73 -7q19 -2 19 -13q0 -9 -14 -15l-17 -7l1 -49h277l43 54l81 -63v-18h-761v-188q0 -145 -31 -236q-32 -95 -104 -186zM52 827l-13 25h279v100l79 -8q14 -2 14 -14q0 -7 -10 -12l-21 -10v-56h235v99l75 -7q15 -1 15 -13
q0 -9 -12 -13l-19 -7l1 -59h144l45 56l85 -63v-18h-274v-70l-61 -10l1 80h-235v-70l-62 -10v80h-266zM110 113q52 28 96 59q68 48 140 122h-157l-9 26h659l36 45l75 -54v-17h-512l-68 -59l7 -5h398l27 37l62 -38q14 -8 14 -17t-14 -12l-16 -4l-1 -137l-60 -10v30h-411v-26
l-59 -9l2 154q-105 -66 -201 -101zM376 203v-96h410v96h-410zM197 354q25 25 36 48q14 33 15 91v47l56 -8q16 -2 16 -10q0 -6 -12 -12l-11 -5q-1 -11 -1 -17q-2 -43 -7.5 -60t-22.5 -37q-26 -29 -61 -47zM207 567l-10 24h145v66l65 -8q15 -2 15 -10t-11 -13l-14 -6v-29h52
l30 35l53 -45l-1 -14h-134v-210l-55 -11v221h-135zM436 375l1 165l56 -4q15 -2 15 -12q0 -8 -11 -12l-12 -5v-122zM523 349q43 56 44 121v70l63 -7q14 -1 14 -11q0 -7 -11 -11l-13 -5q-3 -44 -8 -66q-14 -54 -78 -102zM551 566l-9 25h120v66l67 -8q16 -2 16 -9t-11 -12
l-15 -7v-30l108 1l31 43l62 -50v-19h-201v-207l-56 -8v215h-112zM898 480l-1 -43q0 -11 21 -19q-11 -39 -46 -40h-62l-5 -1q-14 -2 -30 7q-12 6 -12 30l-2 128l62 -5q14 -1 14 -12q0 -7 -10 -11l-16 -5v-71q0 -13 12 -13h26q11 0 18 16l17 39h14z" />
  </g>

</svg>
