<?xml version="1.0" standalone="no"?>
<!DOCTYPE svg PUBLIC "-//W3C//DTD SVG 1.1//EN" "http://www.w3.org/Graphics/SVG/1.1/DTD/svg11.dtd" >
<svg xmlns="http://www.w3.org/2000/svg" xmlns:xlink="http://www.w3.org/1999/xlink" version="1.1" viewBox="0 -204 1024 1024">
  <g transform="matrix(1 0 0 -1 0 820)">
   <path fill="currentColor"
d="M50 764l62 -30h92v138q0 54 -4 82q56 -7 94 -23q12 -6 12 -15q0 -7 -12 -11q-20 -9 -42 -13v-158h106l28 30q52 -30 52 -44q0 -10 -26 -26v-267q12 -11 21 -19q5 -4 5 -6q0 -16 -8 -16h-178v-212l12 4q53 16 120 46q-7 15 -14 27q-17 29 -34 51l10 12q33 -30 65 -70
q21 -24 32 -48q10 -15 15 -35q2 -11 2 -19q0 -30 -26 -30q-3 0 -7 3q-5 6 -10 25q-14 39 -25 62q-55 -31 -99 -52q-51 -23 -98 -42q-43 -17 -93 -32q-10 -34 -16 -34t-46 78q64 11 118 26q21 4 46 10v230h-106v-26q0 -7 -12 -13q-13 -5 -24 -5q-12 0 -12 12v410zM98 412h106
v292h-106v-292zM252 704v-292h112v292h-112zM596 960q48 -16 85 -35q5 -6 5 -11q0 -9 -18 -12q-24 -4 -32 -4q-22 -70 -46 -136q-5 -11 -9 -20h315l32 32q28 -16 48 -32q6 -9 6 -16q0 -16 -40 -28q0 -160 -13 -338q-18 -180 -39 -244q-11 -37 -32 -54q-11 -14 -33 -26
q-30 -16 -69 -16q-2 17 -11 28q-4 8 -17 14q-30 12 -100 32l4 22q124 -36 142 -36q24 0 38 12q15 10 25 28q11 21 20 66q15 62 27 202q11 143 12 324h-330q-14 -33 -29 -59q-29 -48 -69 -99l-16 12q33 54 58 104q18 43 38 97q16 53 31 99q10 43 17 94zM548 548
q73 -46 115 -94q36 -39 56 -77q11 -25 11 -53q0 -32 -22 -32q-13 0 -22 9q-7 8 -17 35q-27 67 -54 107q-28 44 -79 89z" />
  </g>

</svg>
