<?xml version="1.0" standalone="no"?>
<!DOCTYPE svg PUBLIC "-//W3C//DTD SVG 1.1//EN" "http://www.w3.org/Graphics/SVG/1.1/DTD/svg11.dtd" >
<svg xmlns="http://www.w3.org/2000/svg" xmlns:xlink="http://www.w3.org/1999/xlink" version="1.1" viewBox="0 -120 1000 1000">
  <g transform="matrix(1 0 0 -1 0 880)">
   <path fill="currentColor"
d="M128 108l-2 -12q-2 -14 -10 -14t-14 10l-45 77l179 20v271h-81v-74l-65 -9v419l73 -50h73v201l72 -12q25 -4 25 -16q0 -11 -14 -16l-19 -7v-150h81l27 38l62 -38q14 -8 14 -17q0 -8 -14 -13l-21 -7v-290l-62 -10v51h-87v-263l115 16q-22 51 -52 97l12 10q36 -22 63 -51
q60 -63 60 -115q0 -19 -12 -30q-9 -8 -19 -8q-23 0 -33 23q-1 3 -8 35q-2 9 -5 19zM155 484h81v235h-81v-235zM300 484h87v235h-87v-235zM433 337l-13 23l339 50v540l74 -11q24 -4 24 -17q0 -10 -13 -14l-22 -7v-483l28 6l38 65l66 -61v-14l-132 -20v-325l-63 -11v325z
M518 635q43 -11 81 -39q56 -41 56 -81q0 -21 -18 -33q-7 -4 -14 -4t-14 4q-11 5 -30 52q-17 38 -72 88zM532 862q69 -19 105 -46q40 -32 40 -60q0 -19 -14 -32q-8 -9 -18 -9q-16 0 -32 30q-18 35 -40 59q-13 14 -52 45z" />
  </g>

</svg>
