<?xml version="1.0" standalone="no"?>
<!DOCTYPE svg PUBLIC "-//W3C//DTD SVG 1.1//EN" "http://www.w3.org/Graphics/SVG/1.1/DTD/svg11.dtd" >
<svg xmlns="http://www.w3.org/2000/svg" xmlns:xlink="http://www.w3.org/1999/xlink" version="1.1" viewBox="0 -120 1000 1000">
  <g transform="matrix(1 0 0 -1 0 880)">
   <path fill="currentColor"
d="M103 164l-10 -17q-6 -10 -12 -10t-10 12l-28 76l151 14v237h-67l1 -75l-58 -12v395l66 -33h57v203l72 -6q21 -2 21 -16q0 -10 -17 -16l-17 -6v-159h60l20 38l60 -38q17 -10 17 -19q0 -7 -18 -12l-14 -4v-283l-57 -12v54l-71 1v-232l82 9q-6 51 -40 111l11 10
q39 -39 59 -64q41 -51 41 -99q0 -27 -11 -41q-8 -11 -19 -11q-21 0 -28 22q-1 4 -5 31q-1 8 -3 17zM127 499l66 -1v230l-65 -1zM250 726v-228h70v228h-70zM353 66q57 99 77 177q29 111 29 253v421l72 -39h307l26 35l62 -41q11 -7 11 -15t-13 -11l-17 -5l-1 -188l-63 -12v37
h-320l-2 -135q-2 -190 -47 -311q-33 -88 -107 -175zM523 853v-151h320v151h-320zM920 295l-2 -99v-4q0 -40 36 -54q-11 -56 -93 -57h-193q-37 0 -50 15q-12 14 -12 57l3 450l78 -10q17 -2 17 -12t-12 -15l-22 -8v-191q106 78 197 182l68 -56q5 -4 5 -9q0 -9 -12 -8h-4l-23 1
q-130 -81 -231 -138l1 -185q0 -15 14 -15l138 -1q44 0 57 60l22 97h18z" />
  </g>

</svg>
