<?xml version="1.0" standalone="no"?>
<!DOCTYPE svg PUBLIC "-//W3C//DTD SVG 1.1//EN" "http://www.w3.org/Graphics/SVG/1.1/DTD/svg11.dtd" >
<svg xmlns="http://www.w3.org/2000/svg" xmlns:xlink="http://www.w3.org/1999/xlink" version="1.1" viewBox="0 -204 1024 1024">
  <g transform="matrix(1 0 0 -1 0 820)">
   <path fill="currentColor"
d="M46 804l63 -30h79v98q0 54 -6 80q59 -7 97 -23q13 -4 13 -14t-13 -13q-19 -10 -43 -12v-116h78l34 42q37 -23 55 -43q7 -7 7 -13q0 -9 -39 -32v-300q16 -11 28 -21q5 -3 5 -7q0 -14 -10 -14h-158v-228l12 4q50 15 113 40q-5 14 -11 26q-9 22 -26 47l17 13q19 -21 35 -43
q17 -20 27 -39q11 -19 15 -33t4 -27q0 -19 -5 -30q-9 -12 -21 -12q-5 0 -8 5q-4 4 -7 25q-4 23 -12 46q-52 -30 -92 -47q-48 -22 -92 -39q-41 -16 -86 -28q-11 -37 -18 -37q-8 0 -49 84q63 8 113 21q21 4 43 10v242h-92v-12q0 -10 -12 -16q-15 -6 -25 -6q-13 0 -13 14
q0 4 1 14q1 23 1 42v314q0 49 -2 68zM96 414h92v332h-92v-332zM236 746v-332h88v332h-88zM626 956q28 -19 51 -40q24 -18 40 -35t22 -31q5 -12 5 -24q0 -21 -6 -32h118l50 57q41 -30 77 -59q9 -5 9 -12q0 -14 -17 -14h-266q-36 -81 -81 -144q-46 -82 -126 -170q69 0 136 7
q65 6 120 13l19 34q26 53 40 118q52 -18 90 -35q6 -7 6 -13q0 -11 -19 -15q-22 -4 -32 -4q-44 -88 -101 -169q-56 -78 -116 -139q-57 -54 -134 -110q57 4 103 9q58 6 129 17q63 9 141 23q-11 21 -22 38q-20 32 -54 70l16 12q38 -34 67 -70q33 -32 53 -62q21 -31 29 -54
q7 -21 7 -43q0 -18 -5 -27q-8 -12 -19 -12t-17 8q-8 6 -14 36q-9 38 -26 74l-2 4q-67 -21 -120 -34q-62 -15 -118 -27q-52 -12 -109 -20q-13 -43 -21 -43q-9 0 -57 98q83 69 140 130q46 53 90 118q21 31 39 61l-72 -18q-63 -16 -134 -29q-14 -33 -21 -33q-3 0 -7 7
q-21 36 -38 76l-1 3h4q74 86 116 176q44 73 57 139h-112q-71 -2 -97 -7l-20 47q44 -12 117 -12h165q-3 6 -5 14q-6 24 -18 47q-13 22 -27 43q-15 20 -40 44z" />
  </g>

</svg>
