<?xml version="1.0" standalone="no"?>
<!DOCTYPE svg PUBLIC "-//W3C//DTD SVG 1.1//EN" "http://www.w3.org/Graphics/SVG/1.1/DTD/svg11.dtd" >
<svg xmlns="http://www.w3.org/2000/svg" xmlns:xlink="http://www.w3.org/1999/xlink" version="1.1" viewBox="0 -140 1000 1000">
  <g transform="matrix(1 0 0 -1 0 860)">
   <path fill="currentColor"
d="M417 697v-311l-7 -12l-51 -11l-7 6v39h-62v-198l87 18q-23 45 -64 98l9 9q134 -95 134 -167q0 -19 -6.5 -30.5t-15.5 -11.5q-15 0 -25 19t-25 65l-258 -99l-4 -30l-15 -5l-40 95l158 29v208h-55v-51l-7 -7l-50 -12l-6 7v424l60 -28h58v183l99 -25v-15l-34 -16v-127h56
l31 28h12l51 -43v-14zM170 430h55v289h-55v-289zM290 430h62v289h-62v-289zM436 553l-9 9q73 87 112 164t74 203l85 -34v-13l-24 -13q52 -102 110.5 -158t162.5 -103l-2 -14q-41 -4 -69 -39q-75 54 -121 115.5t-95 171.5q-55 -109 -100.5 -168t-123.5 -121zM446 408v22h343
l30 27h15l54 -45v-15l-27 -15v-133q0 -37 -8.5 -54.5t-23.5 -25t-58 -20.5l-11 9v24l-76 37v12l78 -7q21 0 27.5 9t6.5 31v144h-144l-1 -342l-5 -13l-51 -10l-8 7v357zM493 569v21h231l38 34h12l42 -40v-15h-323z" />
  </g>

</svg>
