<?xml version="1.0" standalone="no"?>
<!DOCTYPE svg PUBLIC "-//W3C//DTD SVG 1.1//EN" "http://www.w3.org/Graphics/SVG/1.1/DTD/svg11.dtd" >
<svg xmlns="http://www.w3.org/2000/svg" xmlns:xlink="http://www.w3.org/1999/xlink" version="1.1" viewBox="0 -200 1000 1000">
  <g transform="matrix(1 0 0 -1 0 800)">
   <path fill="currentColor"
d="M729 149q24 -8 57 -22.5t63.5 -31.5t53 -35t26.5 -33v-5q0 -27 -11.5 -40t-25.5 -13t-26 15.5t-16 33.5q-6 8 -12 15.5t-11 14.5q-25 -3 -73.5 -7t-110.5 -9t-132.5 -11.5t-139.5 -14t-130.5 -16t-106.5 -18.5l-38 64h377v147h-233v-35q-15 -7 -28 -13.5t-29 -7.5v275
l73 -35h217v154l77 -26l-20 -65v-63h212l42 40l65 -47l-38 -36v-141h-281v-127l285 6q-8 9 -17 17.5t-19.5 17.5t-24 19.5l-31.5 24.5zM252 344l-12 -17v-120h233v137h-221zM530 344v-137h224v137h-224zM474 885l-15 86l83 -23l-16 -71v-45h295l47 45l70 -69h-308v-295
q-19 -17 -51 -34v329h-158v-305q-14 -14 -24 -22.5t-23 -8.5h-5v336h-194l-70 -20l-30 44h399v53zM69 496q31 28 58.5 55t52 55.5t46.5 61t42 71.5l65 -49l-38 -32q-11 -12 -31.5 -33.5t-49 -46.5t-63.5 -50t-75 -43zM698 734q102 -50 158 -98.5t56 -77.5q0 -22 -5 -33
t-11.5 -15.5t-13.5 -5t-11 -1.5q-2 0 -13.5 20.5t-33.5 52.5t-55 71t-77 76z" />
  </g>

</svg>
