<?xml version="1.0" standalone="no"?>
<!DOCTYPE svg PUBLIC "-//W3C//DTD SVG 1.1//EN" "http://www.w3.org/Graphics/SVG/1.1/DTD/svg11.dtd" >
<svg xmlns="http://www.w3.org/2000/svg" xmlns:xlink="http://www.w3.org/1999/xlink" version="1.1" viewBox="0 -410 2048 2048">
  <g transform="matrix(1 0 0 -1 0 1638)">
   <path fill="currentColor"
d="M862 1767l-35 87q108 -21 227 -21h654l98 102l121 -107q17 -15 17 -26q0 -27 -29 -27h-861q-117 0 -192 -8zM1045 1714l108 -45q49 -21 49 -40q0 -14 -14 -21q-11 -5 -71 -12q-99 -167 -217 -298q255 -238 255 -343q0 -63 -58 -63q-42 0 -55 65q-37 177 -195 346
q132 167 198 411zM918 728l-34 87q117 -24 226 -24h543l99 101l120 -107q17 -15 17 -25q0 -24 -35 -24h-451v-522h333l98 102l121 -107q17 -15 17 -26q0 -26 -27 -26h-907q-119 0 -192 -8l-34 87q105 -22 226 -22h266v522h-194q-116 0 -192 -8zM1769 1690l109 -50
q44 -19 44 -39q0 -11 -10 -18q-9 -5 -79 -11q-84 -134 -232 -269q37 -31 107 -86q185 -147 185 -242q0 -62 -58 -62q-38 0 -62 67q-56 154 -239 323q119 115 235 387zM1413 1714l102 -43q51 -22 51 -41q0 -23 -85 -30q-118 -187 -241 -297l47 -43q130 -117 173 -167
q65 -74 65 -132q0 -64 -59 -64q-29 0 -43 24q-6 10 -21 53q-54 155 -221 329q139 154 232 411zM247 819v-28q0 -38 -56 -38q-50 0 -47 46l3 62q8 135 8 142v608l118 -62h119v240q0 118 -8 160l110 -24q85 -19 85 -44q0 -32 -49 -43l-41 -9v-280h122l69 76l83 -54
q40 -26 40 -49q0 -27 -78 -61v-548l45 -36q31 -24 31 -37q0 -21 -46 -21h-266v-426q126 39 210 71q-30 80 -78 146l30 27q193 -196 193 -298q0 -32 -17 -55q-17 -22 -44 -22q-36 0 -48 65q-9 51 -20 91q-60 -27 -90 -41q-215 -99 -386 -157q-3 -72 -27 -72q-17 0 -41 46
l-58 115q117 18 279 56v454h-145zM247 877h145v613h-145v-613zM632 1490h-143v-613h143v613z" />
  </g>

</svg>
