<?xml version="1.0" standalone="no"?>
<!DOCTYPE svg PUBLIC "-//W3C//DTD SVG 1.1//EN" "http://www.w3.org/Graphics/SVG/1.1/DTD/svg11.dtd" >
<svg xmlns="http://www.w3.org/2000/svg" xmlns:xlink="http://www.w3.org/1999/xlink" version="1.1" viewBox="0 -140 1000 1000">
  <g transform="matrix(1 0 0 -1 0 860)">
   <path fill="currentColor"
d="M899 177l23 68l15 -4l-8 -130l17 -32l-6 -10q-20 0 -32.5 2t-35.5 11.5t-48.5 33.5t-54.5 63q-34 47 -52 91q-75 -85 -140.5 -133.5t-165.5 -93.5l-7 14q185 110 291 268q-19 55 -27.5 105.5t-23.5 194.5q-6 60 -7 106h-280v22h280q-1 37 -1 179l103 -18v-13l-43 -22v-42
q0 -30 2 -84l127 -1l48 58h15l59 -64v-15h-249q8 -249 38 -339l1 -3q63 106 97 230l88 -44l-4 -15l-36 -5q-38 -106 -124 -233q18 -47 35 -77t45 -58q29 -29 42 -29t19 19zM738 880l6 9q54 -25 73.5 -41t19.5 -38q0 -10 -6.5 -19t-13.5 -9q-18 0 -34 32q-19 38 -45 66z
M642 312l6 -14l-211 -87l-6 -31l-17 -3l-35 78zM78 755l61 -30h40v201l100 -14l1 -16l-35 -20v-151h31l30 27h13l49 -43l1 -14l-21 -12l-1 -284l-3 -9l-56 -9l-5 6l-1 29h-37v-178l57 17q-15 42 -39 90l9 8q15 -17 30 -32q72 -73 72 -127q0 -19 -7 -31t-16 -12t-15 6
t-11.5 20.5t-7.5 23.5t-7 31l-199 -85l1 -32l-13 -4l-45 82l125 34v189h-40l1 -36l-3 -8l-54 -11l-6 6zM182 703h-43v-265h43v265zM282 703h-42v-265h42v265zM551 622l22 29l15 -1l50 -51v-13l-22 -13v-209l-5 -12l-49 -8l-7 6l1 32h-110v-40l-5 -10l-51 -8l-5 7v320l60 -29
h106zM556 599h-110v-195h110v195z" />
  </g>

</svg>
