<?xml version="1.0" standalone="no"?>
<!DOCTYPE svg PUBLIC "-//W3C//DTD SVG 1.1//EN" "http://www.w3.org/Graphics/SVG/1.1/DTD/svg11.dtd" >
<svg xmlns="http://www.w3.org/2000/svg" xmlns:xlink="http://www.w3.org/1999/xlink" version="1.1" viewBox="0 -204 1024 1024">
  <g transform="matrix(1 0 0 -1 0 820)">
   <path fill="currentColor"
d="M36 756l58 -30h80v140q0 52 -4 80q57 -7 95 -23q15 -6 15 -13q0 -9 -15 -13q-17 -11 -43 -13v-158h84l30 30q50 -30 50 -44q0 -10 -28 -26v-240q12 -7 21 -14q5 -2 5 -6q0 -18 -8 -18h-154v-218q5 1 9 2q47 13 102 35q-11 21 -23 41q-15 30 -36 50l14 10q30 -26 64 -67
q24 -27 35 -48q9 -18 13 -35q2 -12 2 -22q0 -26 -22 -26q-4 0 -8 3q-6 6 -13 22q-10 31 -18 50q-46 -23 -82 -40q-45 -19 -86 -33q-37 -17 -79 -28q-9 -36 -14 -36q-8 0 -48 80q57 8 103 19q21 5 39 10v231h-90v-36q0 -9 -12 -13q-17 -5 -26 -5q-10 0 -10 10v392zM84 438h90
v260h-90v-260zM222 698v-260h88v260h-88zM408 752q43 -10 114 -10h196q-2 48 -2 98q0 95 -8 120q106 -16 106 -32t-50 -30q0 -86 2 -156h96l44 46q36 -25 69 -47q7 -5 7 -11q0 -18 -10 -18h-205q3 -104 11 -179q9 -81 24 -145q14 32 24 65q17 53 25 89q7 35 7 68
q47 -13 75 -27q13 -5 13 -13q0 -10 -8 -14q-17 -7 -36 -12q-14 -56 -32 -104q-22 -57 -52 -121q2 -5 3 -9q27 -97 71 -164q11 -26 18 -26q4 0 9 9q31 74 53 147l18 -10q-26 -157 -26 -164q0 -12 3 -26q9 -19 9 -34q0 -22 -22 -22q-15 0 -36 22q-30 23 -67 81q-39 62 -65 142
q-14 -26 -25 -42q-30 -41 -65 -76q-31 -36 -71 -65q-41 -31 -95 -62l-16 22q66 38 106 78q43 36 74 76q26 35 48 72q15 23 28 52q-27 95 -39 211q-9 85 -12 181h-197q-69 -1 -96 -4zM446 646l62 -32h88l32 44q36 -24 52 -43q6 -7 6 -13q0 -11 -40 -32v-158q19 -12 32 -23
q4 -3 4 -9q0 -16 -6 -16h-180v-14q0 -9 -14 -16q-13 -6 -22 -6q-14 0 -14 14v304zM496 394h106v190h-106v-190zM702 328l6 -18q-45 -36 -80 -58q-37 -23 -72 -39q-31 -20 -64 -31q-12 -36 -18 -36t-48 80q51 7 91 21q37 12 83 31q44 20 102 50zM830 906q35 -15 57 -29
q16 -9 25 -20q8 -9 8 -17q0 -30 -24 -30q-5 0 -9 2q-4 3 -9 12q-12 21 -24 36q-12 13 -36 28z" />
  </g>

</svg>
