<?xml version="1.0" standalone="no"?>
<!DOCTYPE svg PUBLIC "-//W3C//DTD SVG 1.1//EN" "http://www.w3.org/Graphics/SVG/1.1/DTD/svg11.dtd" >
<svg xmlns="http://www.w3.org/2000/svg" xmlns:xlink="http://www.w3.org/1999/xlink" version="1.1" viewBox="0 -140 1000 1000">
  <g transform="matrix(1 0 0 -1 0 860)">
   <path fill="currentColor"
d="M837 167v99q-3 1 -11 1q-13 0 -48 -19q-58 75 -94 187q-33 -75 -70.5 -120.5t-109.5 -96.5l-9 11q67 67 100 126t53 148h-161v-424l-8 -16l-44 -13l-8 10v497l62 -31l169 -1q4 36 9 105l-149 -1v23h127l29 29h15l49 -42v-18l-44 -10q-5 -44 -3 -86l135 1l27 31l17 -1
l59 -52v-15l-28 -21v-350q0 -32 -13.5 -41.5t-79.5 -27.5l-10 9v28l-88 31l3 16l87 -7q19 -2 28 8t9 33zM837 285v218l-138 1q39 -101 68.5 -146.5t69.5 -72.5zM200 732v189l108 -19v-12l-44 -23v-135h48l20 33h13l67 -44v-13l-28 -15l1 -287l-8 -13l-45 -11l-8 7v30h-60
v-190l72 20q-10 32 -41 100l13 5q63 -61 84 -91t21 -63q0 -25 -9 -42t-22 -17q-22 0 -26 28q-4 26 -12 59l-236 -109l-1 -24l-11 -3l-46 87l150 38v202h-64v-26l-8 -10l-43 -13l-9 10v385l60 -33h64zM200 709h-64v-267h64v267zM324 709h-60v-267h60v267zM735 817v102l94 -20
v-13l-29 -14v-55h41l37 41h11l46 -48v-16h-135v-90l-10 -10l-44 -9l-11 5v104h-81v23h81zM477 817v106l94 -20v-13l-29 -14v-59h19l34 39h12l43 -46v-16h-108v-93l-10 -8l-43 -13l-12 9v105h-112v23h112z" />
  </g>

</svg>
