<?xml version="1.0" standalone="no"?>
<!DOCTYPE svg PUBLIC "-//W3C//DTD SVG 1.1//EN" "http://www.w3.org/Graphics/SVG/1.1/DTD/svg11.dtd" >
<svg xmlns="http://www.w3.org/2000/svg" xmlns:xlink="http://www.w3.org/1999/xlink" version="1.1" viewBox="0 -410 2048 2048">
  <g transform="matrix(1 0 0 -1 0 1638)">
   <path fill="currentColor"
d="M1428 1327h331l63 77l74 -55q45 -32 45 -54q0 -21 -78 -64q-35 -289 -65 -436q-28 -134 -89 -282q114 -176 314 -302l-4 -31q-45 -2 -60 -7q-24 -7 -50 -42q-137 112 -254 295q-115 -181 -351 -333l-20 33q183 133 319 382q-58 148 -96 315q-26 118 -34 228
q-11 149 -17 217h-28q-13 -467 -50 -685q-38 -227 -158 -430l-37 15q73 160 104 362q46 301 46 819v327q0 88 -9 187l114 -74h304l88 97l111 -87q31 -24 31 -39q0 -26 -31 -26h-513v-407zM1508 1268q31 -401 142 -660q88 244 117 660h-259zM677 945l39 -26q38 -26 38 -44
q0 -22 -48 -22h-248v-464q69 23 135 50q-28 111 -86 213l33 23q169 -208 169 -324q0 -69 -54 -69q-31 0 -41 34q-2 6 -5 32q-3 18 -8 45q-169 -82 -371 -165l-4 -30q-6 -38 -26 -38q-19 0 -37 38l-59 119q177 30 258 49v487h-118v-24q0 -31 -52 -31q-53 0 -53 44q0 5 4 49
q8 98 8 105v596l118 -63h93v253q0 119 -8 160l109 -24q86 -19 86 -46q0 -25 -50 -42l-41 -13v-288h104l68 76l86 -54q39 -25 39 -48q0 -28 -78 -62v-496zM584 1472h-126v-561h126v561zM244 1472v-561h118v561h-118zM1067 905h-161q-20 -300 -60 -467q-40 -164 -111 -329
l-35 15q61 213 86 409q34 269 34 786v460q0 118 -8 160l109 -24q86 -19 86 -45q0 -29 -50 -43l-41 -11v-473h146v424q0 118 -8 160l108 -24q87 -19 87 -46t-50 -41l-42 -11v-440q58 -38 58 -57q0 -22 -46 -22h-253q0 -35 -2 -89q-1 -52 -2 -102q-1 -72 -6 -131h141l68 76
l84 -55q40 -25 40 -48q0 -28 -77 -61v-502q2 -150 2 -158q4 -53 4 -69q0 -54 -57 -54q-44 0 -44 31v676v105z" />
  </g>

</svg>
