<?xml version="1.0" standalone="no"?>
<!DOCTYPE svg PUBLIC "-//W3C//DTD SVG 1.1//EN" "http://www.w3.org/Graphics/SVG/1.1/DTD/svg11.dtd" >
<svg xmlns="http://www.w3.org/2000/svg" xmlns:xlink="http://www.w3.org/1999/xlink" version="1.1" viewBox="0 -204 1024 1024">
  <g transform="matrix(1 0 0 -1 0 820)">
   <path fill="currentColor"
d="M76 906q39 -8 110 -8h496l38 48q66 -45 66 -62q0 -10 -44 -22q1 -58 16 -106q12 -49 33 -86q18 -36 44 -64q23 -28 48 -41q22 -17 31 -17q5 0 9 7q5 9 35 121l22 -12q-16 -103 -16 -106q0 -18 10 -32q12 -18 12 -30q0 -10 -18 -10q-23 0 -57 13q-34 14 -69 42
q-38 29 -73 75q-29 43 -48 96q-21 60 -27 158h-286v-126h180l44 44q32 -21 59 -44q7 -5 7 -10q0 -18 -12 -18h-278v-190q0 -19 -36 -22q-14 0 -14 18v194h-176q-69 -1 -96 -4l-18 44q43 -12 114 -12h176v126h-172q-78 0 -96 -4zM68 448l52 -28h110v32q0 54 -4 80
q45 -6 74 -15q10 -4 10 -13q0 -5 -7 -8q-10 -7 -23 -10v-66h110l30 32q50 -31 50 -44q0 -9 -28 -28v-86q15 -10 24 -18q4 -2 4 -6q0 -18 -6 -18h-184v-130q51 8 113 18q-14 27 -43 56l14 18q38 -28 62 -59q19 -22 30 -47q8 -14 8 -32q0 -30 -22 -30q-6 0 -11 5q-4 4 -8 21
q-9 28 -20 46q-60 -15 -105 -24q-53 -14 -101 -22q-44 -9 -95 -14q-10 -38 -16 -38t-46 82q65 2 120 7q35 3 70 7v136h-114v-8q0 -9 -14 -13q-15 -5 -22 -5q-12 0 -12 10v212zM116 280h114v114h-112l-2 -4v-110zM280 394v-114h114v114h-114zM536 448l52 -28h106v32
q0 54 -4 80q45 -6 75 -15q9 -4 9 -13q0 -5 -6 -8q-11 -7 -26 -10v-66h120l30 32q50 -31 50 -44q0 -9 -28 -28v-87q14 -9 24 -17q4 -2 4 -6q0 -18 -6 -18h-194v-132q7 0 10 1q58 8 132 18q-22 27 -58 57l14 18q51 -29 80 -61q25 -22 37 -48q11 -15 11 -33q0 -30 -22 -30
q-7 0 -13 5t-13 22q-14 30 -24 48q-67 -14 -118 -23q-58 -14 -112 -22q-52 -9 -108 -14q-9 -38 -14 -38q-8 0 -48 82q73 2 133 7q30 2 65 6v137h-110v-8q0 -9 -14 -13q-15 -5 -22 -5q-12 0 -12 10v212zM584 280h110v114h-108l-2 -4v-110zM742 394v-114h124v114h-124z" />
  </g>

</svg>
