<?xml version="1.0" standalone="no"?>
<!DOCTYPE svg PUBLIC "-//W3C//DTD SVG 1.1//EN" "http://www.w3.org/Graphics/SVG/1.1/DTD/svg11.dtd" >
<svg xmlns="http://www.w3.org/2000/svg" xmlns:xlink="http://www.w3.org/1999/xlink" version="1.1" viewBox="0 -204 1024 1024">
  <g transform="matrix(1 0 0 -1 0 820)">
   <path fill="currentColor"
d="M42 788l63 -30h75v114q0 54 -6 80q59 -7 97 -23q13 -4 13 -14t-13 -13q-19 -10 -43 -12v-132h76l35 33q51 -36 51 -50q0 -10 -30 -25v-251l23 -18q5 -3 5 -7q0 -14 -10 -14h-150v-227q2 1 3 1q45 16 103 42q-8 19 -17 36q-10 21 -29 46l16 12q21 -21 38 -43
q18 -20 30 -38q12 -19 16 -34q4 -13 4 -26q0 -18 -5 -27q-8 -12 -19 -12q-6 0 -9 5q-5 4 -8 24q-3 18 -9 35q-46 -31 -83 -49q-43 -23 -83 -40q-36 -17 -77 -29q-11 -37 -18 -37q-8 0 -49 84q58 8 104 21q22 5 44 13v243h-88v-20q0 -10 -12 -16q-15 -6 -25 -6q-13 0 -13 14
q0 4 1 14q1 23 1 42v266q0 49 -2 68zM92 454h88v276h-88v-276zM228 730v-276h84v276h-84zM360 814q38 -10 96 -12v62q0 53 -6 80q51 -8 84 -23q12 -6 12 -15q0 -10 -10 -13q-14 -11 -32 -12v-79h108v62q0 53 -6 80q51 -8 84 -23q12 -6 12 -15q0 -10 -10 -13q-14 -11 -32 -12
v-79h120v62q0 53 -6 80q46 -9 75 -18q11 -4 11 -11q0 -5 -7 -9q-11 -6 -25 -10v-94h40l41 45q34 -25 64 -49q7 -4 7 -10q0 -14 -14 -14h-138v-109l23 -18q5 -3 5 -7q0 -14 -10 -14h-184v-4q0 -22 -30 -22q-24 0 -24 27q0 12 3 32q1 19 1 34v81h-108v-185q0 -27 2 -36v-27
h358l44 49q36 -27 68 -52q8 -5 8 -11q0 -14 -15 -14h-478q-7 -2 -15 -2q-24 0 -24 27q0 12 3 32q1 19 1 34v184q-54 -2 -76 -6zM662 654h118v120h-120v-81q0 -27 2 -36v-3zM380 374q44 -12 117 -12h151v30q0 53 -6 80q51 -8 84 -23q12 -6 12 -15q0 -10 -10 -13
q-14 -11 -32 -12v-47h168l44 49q36 -27 68 -52q8 -5 8 -11q0 -14 -15 -14h-257q24 -36 51 -64q31 -32 72 -63q40 -29 80 -49q38 -19 73 -27l-3 -17q-49 0 -65 -30q-37 18 -67 43q-34 26 -59 56q-28 28 -54 62q-21 26 -44 65v-201q0 -27 2 -36v-35q0 -22 -30 -22
q-24 0 -24 27q0 12 3 32q1 19 1 34v184q-22 -31 -45 -55q-48 -50 -103 -91q-54 -39 -139 -79l-13 18q76 45 123 82q40 33 77 76q34 38 64 90h-115q-71 -2 -97 -7z" />
  </g>

</svg>
