<?xml version="1.0" standalone="no"?>
<!DOCTYPE svg PUBLIC "-//W3C//DTD SVG 1.1//EN" "http://www.w3.org/Graphics/SVG/1.1/DTD/svg11.dtd" >
<svg xmlns="http://www.w3.org/2000/svg" xmlns:xlink="http://www.w3.org/1999/xlink" version="1.1" viewBox="0 -204 1024 1024">
  <g transform="matrix(1 0 0 -1 0 820)">
   <path fill="currentColor"
d="M46 764l63 -30h63v138q0 54 -6 80q59 -7 97 -23q13 -4 13 -14t-13 -13q-19 -10 -43 -12v-156h64l35 33q51 -36 51 -50q0 -10 -30 -25v-242q11 -8 19 -15q5 -3 5 -7q0 -14 -9 -14h-135v-179q36 12 77 29l-2 4q-14 36 -39 74l14 18q38 -37 59 -75q20 -30 30 -60
q6 -22 6 -42q0 -35 -25 -35q-5 0 -10 6q-4 6 -9 29q-7 33 -16 58q-38 -24 -66 -39q-38 -20 -73 -34q-32 -16 -67 -26q-11 -37 -18 -37q-8 0 -49 84q52 7 93 18q23 5 47 13v194h-76v-28q0 -10 -12 -16q-15 -6 -25 -6q-13 0 -13 14q0 4 1 14q1 23 1 42v262q0 49 -2 68zM96 442
h76v264h-76v-264zM220 706v-264h72v264h-72zM630 956q22 -15 39 -31q19 -14 30 -28q12 -13 17 -24q4 -9 4 -19q0 -18 -4 -28h172l44 49q36 -27 68 -52q8 -5 8 -11q0 -14 -15 -14h-213v-124h96l31 29q51 -36 51 -50q0 -10 -30 -25v-95q0 -23 1 -30q1 -8 1 -16q0 -21 -34 -27
q-16 0 -16 10v8h-416q0 -70 -6 -131q-4 -58 -17 -118q-9 -48 -25 -89q-15 -38 -38 -72q-20 -30 -56 -60l-14 11q22 26 39 57q16 28 27 59q12 34 21 80q10 53 14 108q7 73 7 165q0 235 -4 376l57 -38h207q-1 3 -1 5q-4 20 -14 39q-9 19 -20 35q-10 17 -29 37zM464 506h108
v140h-108v-140zM620 506h112v140h-112v-140zM780 506h100v136l-1 4h-99v-140zM464 674h108v124h-108v-124zM620 674h112v124h-112v-124zM498 456q46 -9 75 -18q11 -4 11 -11q0 -5 -7 -9q-11 -6 -25 -10v-86h56l37 38q30 -22 56 -43q7 -4 7 -9q0 -14 -12 -14h-144v-181
q4 1 6 2q27 6 60 19q32 11 74 30l4 -22q-28 -25 -50 -39q-24 -16 -45 -28q-20 -13 -42 -21q-11 -37 -18 -37q-8 0 -49 84q7 1 12 2v273q0 53 -6 80zM897 360q30 -22 56 -43q7 -4 7 -9q0 -14 -12 -14h-176v-162q0 -23 3 -30q8 -13 23 -16q20 -2 51 -2q39 0 54 4q14 2 20 20
q10 26 19 116l18 -5l-4 -91q0 -16 13 -27q23 -15 23 -25q0 -11 -10 -16q-11 -8 -42 -12q-37 -8 -97 -8q-41 0 -73 4q-26 2 -37 18q-9 13 -9 43v287q0 35 -4 68q56 -12 92 -30q7 -4 7 -12q0 -6 -11 -11q-16 -8 -36 -13v-72h88z" />
  </g>

</svg>
