<?xml version="1.0" standalone="no"?>
<!DOCTYPE svg PUBLIC "-//W3C//DTD SVG 1.1//EN" "http://www.w3.org/Graphics/SVG/1.1/DTD/svg11.dtd" >
<svg xmlns="http://www.w3.org/2000/svg" xmlns:xlink="http://www.w3.org/1999/xlink" version="1.1" viewBox="0 -410 2048 2048">
  <g transform="matrix(1 0 0 -1 0 1638)">
   <path fill="currentColor"
d="M1598 275q-39 35 -104 84l18 30q91 -39 187 -100q57 -36 89 -93q15 -26 15 -43q0 -27 -25 -44q-14 -9 -28 -9q-31 0 -66 66q-13 26 -45 67l-23 -3q-419 -50 -687 -61q-248 -10 -354 -22q-56 -7 -126 -10l-8 -26q-13 -46 -37 -46q-20 0 -35 43l-47 136q154 -9 224 -9
q28 0 100 3q225 2 328 6v173h-406v-34q0 -18 -24 -28q-25 -11 -47 -11q-28 0 -28 23v357l117 -42h388v42q0 117 -8 159l111 -24q86 -19 86 -48q0 -26 -52 -41l-40 -11v-77h420l61 72l72 -50q43 -29 43 -49q0 -12 -9 -19q-4 -4 -57 -33v-96l38 -34q24 -22 24 -38
q0 -18 -18 -18h-574v-168q119 6 342 13q47 2 142 10q19 2 43 3zM1071 624v-149h437v149h-437zM568 475h406v149h-406v-149zM867 1156l66 -24q46 -17 46 -39q0 -24 -46 -30l-47 -5l-1 2v0q8 -10 -30 -32h870l99 101l120 -106q17 -15 17 -26q0 -22 -27 -26h-544
q253 -190 585 -237l-4 -37q-53 -1 -78 -15q-27 -13 -48 -53q-57 18 -209 98q-146 76 -252 170q-22 19 -55 52l-22 22h-502q-103 -100 -258 -187q-132 -73 -259 -118q-53 -19 -211 -64l-12 43q385 137 603 326h-385q-119 0 -194 -8l-38 88q95 -23 232 -23h444q38 41 90 128
h-254v-24q0 -37 -57 -37q-46 0 -46 40q0 14 1 39q8 101 8 179v191q0 66 -15 139l118 -89h918l68 78l84 -56q40 -27 40 -48q0 -28 -78 -62v-209l4 -74q4 -84 4 -85q0 -46 -68 -46q-36 0 -36 19v45h-641zM1508 1404v132h-945v-132h945zM1508 1346h-945v-132h945v132z
M1344 1949l130 -29q35 -7 35 -30q0 -22 -30 -30l-43 -13l-15 -53h288l97 96l117 -88q28 -21 28 -39q0 -26 -23 -26h-523l-13 -66q-9 -45 -60 -45q-38 0 -38 28q0 11 1 17l15 66h-27q-62 0 -149 -11l-39 86q123 -18 188 -18h40q19 119 21 155zM143 1727l-39 86
q118 -19 187 -19h292l-21 150l111 -13q63 -7 63 -30q0 -14 -13 -23q-7 -5 -57 -27l7 -57h116l79 80l108 -77q26 -18 26 -35q0 -25 -29 -25h-290l10 -74l1 -6q0 -4 -6 -11q-16 -20 -57 -20q-28 0 -30 16l-12 95h-298q-69 0 -148 -10z" />
  </g>

</svg>
