<?xml version="1.0" standalone="no"?>
<!DOCTYPE svg PUBLIC "-//W3C//DTD SVG 1.1//EN" "http://www.w3.org/Graphics/SVG/1.1/DTD/svg11.dtd" >
<svg xmlns="http://www.w3.org/2000/svg" xmlns:xlink="http://www.w3.org/1999/xlink" version="1.1" viewBox="0 -204 1024 1024">
  <g transform="matrix(1 0 0 -1 0 820)">
   <path fill="currentColor"
d="M62 756l62 -30h62v144q0 52 -4 80q59 -7 96 -23q14 -6 14 -13q0 -9 -14 -13q-20 -11 -42 -13v-162h74l30 30q50 -30 50 -44q0 -10 -26 -26v-244q12 -9 21 -16q5 -6 5 -10q0 -14 -6 -14h-148v-215q36 9 85 23q-9 21 -17 35q-8 21 -24 43l16 14q17 -21 34 -40
q15 -20 25 -36q13 -19 17 -33q4 -11 4 -23q0 -19 -5 -28q-10 -12 -21 -12q-5 0 -8 5q-3 4 -6 21q-3 19 -8 34q-40 -20 -73 -34q-42 -16 -80 -28q-35 -15 -73 -24q-10 -36 -16 -36t-46 80q53 6 96 15q26 4 50 12v227h-74v-26q0 -9 -14 -14q-13 -4 -22 -4q-14 0 -14 10v388z
M112 430h74v268h-74v-268zM236 698v-268h78v268h-78zM854 892q-53 -11 -112 -20q-17 -2 -34 -3v-183h158l44 44q32 -25 62 -46q8 -6 8 -12q0 -14 -12 -14h-260v-29q50 -12 101 -29q56 -23 86 -37q28 -18 38 -29q10 -10 17 -21q4 -11 4 -21q0 -18 -16 -18q-4 0 -14 7
q-12 5 -26 16q-22 21 -44 34q-26 15 -60 34q-33 17 -86 42v-181q0 -19 -36 -22q-14 0 -14 16v206q-18 -20 -37 -39q-43 -37 -93 -67q-47 -30 -120 -60l-14 18q69 33 110 58q36 26 66 56q30 27 58 66h-92q-71 -1 -98 -4l-18 44q43 -12 116 -12h122v177q-28 -3 -59 -5
q-59 -5 -153 -10l-4 22q51 2 106 8q50 6 99 17q52 10 89 20q37 8 63 19q18 10 37 20q34 -24 61 -44q5 -4 5 -8q0 -14 -10 -14q-14 0 -38 4zM504 830q36 -20 56 -42q20 -15 29 -33q7 -11 7 -21q0 -32 -26 -32q-5 0 -9 2q-4 3 -8 17q-11 30 -25 51q-14 19 -36 42zM836 844
q40 -16 65 -33q5 -5 5 -11t-10 -9q-14 -4 -30 -5l-18 -24q-11 -12 -26 -21q-11 -9 -26 -21q-17 -10 -32 -18l-12 10q17 21 30 36q15 16 26 35q10 17 17 34q8 14 11 27zM464 310h10v-48q0 -34 -5 -67q-4 -30 -14 -49q-9 -17 -20 -30q-9 -12 -19 -14q-9 -4 -18 -4
q-22 0 -22 14q0 9 11 23q32 31 43 55q14 20 24 48q7 28 10 72zM540 346q48 -11 81 -21q11 -3 11 -11q0 -9 -11 -11q-15 -8 -29 -11v-154q0 -19 5 -26q9 -8 32 -10q23 -8 79 -8q36 0 60 2q18 2 30 8q11 2 13 17q8 23 15 109l22 -4v-74q0 -13 5 -18q2 -6 16 -14q19 -9 19 -22
q0 -10 -10 -19q-16 -12 -35 -16q-27 -6 -62 -9q-38 -4 -73 -4q-58 0 -86 4q-39 7 -53 13q-14 7 -19 24q-6 13 -6 29v156q0 42 -4 70zM646 394q46 -30 74 -61q23 -22 35 -48q9 -15 9 -33q0 -30 -22 -30q-7 0 -13 5q-4 5 -10 22q-17 42 -34 69q-17 30 -49 58zM854 324
q51 -33 82 -67q26 -28 39 -58q7 -18 7 -39q0 -30 -18 -30q-9 0 -16 6q-6 5 -12 25q-17 49 -38 79q-19 35 -54 70z" />
  </g>

</svg>
