<?xml version="1.0" standalone="no"?>
<!DOCTYPE svg PUBLIC "-//W3C//DTD SVG 1.1//EN" "http://www.w3.org/Graphics/SVG/1.1/DTD/svg11.dtd" >
<svg xmlns="http://www.w3.org/2000/svg" xmlns:xlink="http://www.w3.org/1999/xlink" version="1.1" viewBox="0 -120 1000 1000">
  <g transform="matrix(1 0 0 -1 0 880)">
   <path fill="currentColor"
d="M46 63q31 61 39 99q6 25 9 59q8 77 5 122v7l-1 171l59 -30h99l15 27l56 -35q12 -7 12 -14t-10 -10l-15 -5v-338q0 -25 -23 -40q-29 -19 -42 -19q-7 0 -11 24q-2 7 -4 10q-5 6 -26 13l-21 7l1 14h70v112l-109 -1q-11 -55 -27 -89q-20 -41 -64 -92zM153 353l-3 -91h109v91
h-106zM153 466v-88h106v88h-106zM189 838l-1 -48q0 -11 8 -16q10 -5 48 -5h503q21 0 39 1q22 2 28 2q20 0 32 -17q14 -19 14 -27t-17 -8l-657 -1q-34 0 -44 7q-15 10 -15 35v135l70 -32h266l-1 95l80 -5q19 -1 19 -13q0 -9 -13 -15l-19 -8l1 -54h270l45 54l79 -57v-23h-735z
M198 524l-1 181l59 -26h486l21 26l57 -34q16 -9 16 -17q0 -10 -15 -12l-14 -2v-100l-60 -11l-1 23h-493v-20zM253 580h493v71h-493v-71zM393 89l-9 -16q-6 -11 -13 -11q-4 0 -9 14l-23 61l115 20v119h-53v-34l-48 -7v221l53 -30h49v103l64 -7q21 -3 21 -13q0 -8 -15 -13
l-18 -7v-62h51l23 28l45 -30q11 -7 11 -13q0 -8 -10 -10l-12 -2l-1 -138l-47 -7l-1 21h-59l1 -108l59 14q-10 23 -31 55l6 9q91 -56 91 -105q0 -14 -10 -22q-9 -8 -19 -8q-9 0 -15 10l-8 24q-2 7 -6 16zM401 401v-100l54 1v99h-54zM507 402v-101h60l-1 101h-59zM606 65
q48 67 65 117q19 57 25 120h-46l-8 25h57v148h-46l-10 27h169l23 28l61 -41q12 -8 12 -14q0 -7 -16 -10l-14 -4v-188q0 -88 10 -122q3 -9 14 -20q7 15 20 64l15 55l13 -3l-5 -75l-1 -11q-2 -28 7 -48q3 -8 16 -17q-8 -20 -16 -28q-10 -9 -29 -9q-99 0 -99 161v257l-68 -1
l-4 -149h6l26 34l30 -39l1 -20h-66q-13 -87 -49 -150q-26 -45 -79 -98z" />
  </g>

</svg>
