<?xml version="1.0" standalone="no"?>
<!DOCTYPE svg PUBLIC "-//W3C//DTD SVG 1.1//EN" "http://www.w3.org/Graphics/SVG/1.1/DTD/svg11.dtd" >
<svg xmlns="http://www.w3.org/2000/svg" xmlns:xlink="http://www.w3.org/1999/xlink" version="1.1" viewBox="0 -120 1000 1000">
  <g transform="matrix(1 0 0 -1 0 880)">
   <path fill="currentColor"
d="M347 196q137 -49 137 -101q0 -28 -21 -28q-9 0 -16 8q-5 5 -28 34q-3 4 -9 11l-301 -36l-3 -10q-4 -10 -11 -10q-5 0 -10 8l-39 62l202 4v76h-99v-30l-53 -8v187l73 -27h79v62l59 -10q18 -2 18 -13q0 -7 -11 -12l-15 -7v-20h87l24 27l53 -27q18 -9 18 -17t-13 -13l-15 -5
v-99l-55 -10v22h-99v-76l90 3q-21 23 -50 40zM149 237h99v76h-99v-76zM299 313v-76h99v76h-99zM49 605q137 48 208 158h-193l-16 23h101v156l57 -28h176l39 47l67 -56v-15h-126q-16 -56 -35 -104h71l42 45l71 -45v-23h-136v-72l169 32l4 -14q-112 -39 -219 -74l-2 -6
q-4 -9 -8 -9q-7 0 -13 13l-23 43l38 7v80h-6q-66 -113 -257 -176zM202 786h69q22 52 32 104h-101v-104zM201 399v233l66 -20h469l21 27l52 -27q20 -10 20 -19q0 -10 -14 -14l-18 -6v-154l-57 -10v19h-478v-17zM262 509v-57h478v57h-478zM262 587v-54h480v54h-480zM499 641
q47 21 96 56q41 31 68 67h-128l-13 22h46v164l57 -36h192l40 50l70 -57v-17h-147q-19 -62 -46 -104h110l40 49l63 -52v-19h-171v-49q0 -15 2 -19q2 -5 21 -6h65q19 0 28 22l13 31h17l-4 -29v-4q1 -15 27 -25q-6 -19 -11 -26q-10 -15 -43 -15h-101q-33 0 -46 7q-18 9 -18 33
v80h-8q-32 -45 -97 -85q-52 -32 -114 -54zM621 786h58q21 32 42 104h-100v-104zM788 201q79 -25 124 -50q43 -25 43 -58q0 -24 -21 -24q-13 0 -28 16q-34 37 -42 45l-286 -40l-3 -14q-3 -10 -10 -10q-6 0 -12 10l-34 59l174 8v71h-90v-27l-55 -10v188l64 -29h81v63l61 -10
q23 -3 23 -12q0 -7 -16 -14l-14 -5v-22h89l28 29l44 -26q18 -11 18 -19q0 -6 -16 -12l-9 -4v-107l-54 -10v27h-100v-69l93 5q-27 21 -59 37zM603 313v-76h90v76h-90zM747 237h100v76h-100v-76z" />
  </g>

</svg>
