<?xml version="1.0" standalone="no"?>
<!DOCTYPE svg PUBLIC "-//W3C//DTD SVG 1.1//EN" "http://www.w3.org/Graphics/SVG/1.1/DTD/svg11.dtd" >
<svg xmlns="http://www.w3.org/2000/svg" xmlns:xlink="http://www.w3.org/1999/xlink" version="1.1" viewBox="0 -120 1000 1000">
  <g transform="matrix(1 0 0 -1 0 880)">
   <path fill="currentColor"
d="M276 156v149q-112 -68 -223 -107l-6 14q112 55 215 140q47 39 87 79q27 27 67 79h-358l-11 27h421v119h-282l-14 28h296v109h-369l-11 28h380v138l84 -9q16 -2 16 -13q0 -9 -11 -13l-26 -11v-92h232l46 59l88 -67v-20h-366v-109h179l47 51l74 -57v-22h-300v-119h286
l48 55l84 -58v-24h-413q41 -101 104 -176q41 35 53 46q25 21 96 101l61 -50q13 -10 13 -16q0 -11 -22 -11h-27l-158 -87q106 -119 295 -208l-5 -14q-12 1 -21 1q-29 0 -54 -33q-257 140 -354 447h-4q-79 -82 -173 -158v-187l300 51l5 -16q-211 -66 -415 -121l-7 -11
q-6 -10 -13 -10t-11 7l-45 76z" />
  </g>

</svg>
