<?xml version="1.0" standalone="no"?>
<!DOCTYPE svg PUBLIC "-//W3C//DTD SVG 1.1//EN" "http://www.w3.org/Graphics/SVG/1.1/DTD/svg11.dtd" >
<svg xmlns="http://www.w3.org/2000/svg" xmlns:xlink="http://www.w3.org/1999/xlink" version="1.1" viewBox="0 -410 2048 2048">
  <g transform="matrix(1 0 0 -1 0 1638)">
   <path fill="currentColor"
d="M1307 476q41 34 61 50q97 78 152 142q10 12 53 65q11 14 34 41l114 -68q45 -27 45 -43q0 -26 -46 -26q-5 0 -14 1l-47 3q-138 -97 -322 -190q126 -95 316 -157q115 -38 299 -61v-37q-119 -9 -142 -72q-263 79 -437 204q-109 78 -176 170q-42 56 -90 146l37 13
q69 -95 92 -119q21 -22 71 -62zM1241 1172q-164 -108 -485 -223q-109 -39 -361 -105q-17 -4 -207 -43q-17 -3 -68 -15l-12 43q643 155 967 346h-581q-50 -12 -70 -12q-41 0 -41 24q0 12 5 24l89 243h-71q-24 0 -102 -9l-39 85q128 -18 188 -18h1024l92 91l113 -91
q20 -16 20 -33q0 -25 -27 -25h-338v-226h289l102 102l118 -95q15 -12 15 -30q0 -30 -27 -30h-497v-238q0 -142 -155 -171q-11 70 -47 93q-32 21 -159 43l8 46q168 -27 200 -27q57 0 57 58v193zM1241 1228v226h-661l-82 -226h743zM701 569v-342q244 51 456 129l17 -36
q-124 -71 -225 -115q-32 -14 -231 -90q-5 -22 -7 -33q-8 -38 -24 -38t-33 33l-63 120l14 4v316l-20 -10q-202 -98 -473 -161l-9 41q291 96 470 202q189 111 334 287l117 -76q27 -17 27 -34q0 -23 -38 -23h-7l-62 6q-158 -128 -243 -180zM1032 1749q-17 13 -23 37
q-23 87 -116 177l20 21q197 -108 197 -189q0 -31 -27 -46h611l109 114l130 -114q23 -20 23 -32q0 -25 -27 -25h-1599q-117 0 -192 -8l-38 88q96 -23 230 -23h702z" />
  </g>

</svg>
