<?xml version="1.0" standalone="no"?>
<!DOCTYPE svg PUBLIC "-//W3C//DTD SVG 1.1//EN" "http://www.w3.org/Graphics/SVG/1.1/DTD/svg11.dtd" >
<svg xmlns="http://www.w3.org/2000/svg" xmlns:xlink="http://www.w3.org/1999/xlink" version="1.1" viewBox="0 -410 2048 2048">
  <g transform="matrix(1 0 0 -1 0 1638)">
   <path fill="currentColor"
d="M454 1089q30 -17 64 -38q67 110 107 220l104 -55q35 -18 35 -36q0 -28 -49 -28h-31l-41 -40q-70 -71 -86 -85q149 -104 149 -187q0 -66 -50 -66q-37 0 -66 88q-26 79 -136 178v-656q0 -96 12 -219q4 -32 4 -50q0 -46 -55 -46q-56 0 -56 42v916q-120 -131 -282 -228
l-24 35q142 101 268 263q142 180 227 395h-299q-69 0 -149 -11l-39 87q124 -18 188 -18h299l61 70l80 -52q47 -30 47 -49q0 -32 -89 -56q-63 -138 -193 -333v-41zM1161 505q-29 -16 -52 -28q-157 -82 -318 -152l-5 -37q-6 -39 -25 -39q-15 0 -38 45l-59 119q51 41 158 214
q84 135 133 244q11 23 90 218q-84 -34 -174 -68q0 -65 -26 -62q-11 1 -39 46l-63 94q50 63 121 284q96 296 129 553l133 -50q44 -16 44 -38q0 -25 -52 -30l-38 -4q-78 -274 -133 -410q-22 -55 -132 -289q124 14 254 42q38 133 57 243l133 -50q63 -23 63 -47q0 -29 -71 -36
l-38 -4q-117 -322 -220 -493q-93 -152 -250 -343q41 11 61 16q122 31 271 80q18 6 74 24q-22 70 -91 191l22 19q188 -191 188 -322q0 -46 -28 -71q-11 -9 -26 -9q-37 0 -42 68q-3 43 -11 82zM1558 1453h225l68 76l84 -55q40 -27 40 -48q0 -28 -78 -61q-24 -641 -54 -873
q-34 -261 -142 -339q-61 -45 -165 -60q0 58 -30 80q-21 16 -136 57l9 38q30 -7 90 -18q87 -17 118 -17q94 0 130 133q65 241 85 1031h-244q-14 -500 -96 -787q-93 -324 -355 -524l-30 29q205 201 286 474q91 309 100 808h-12q-69 0 -149 -10l-39 87q125 -21 188 -21h12v323
q0 115 -7 160l108 -24q86 -19 86 -46q0 -25 -50 -41l-42 -14v-358zM303 1937q190 -128 190 -216q0 -30 -20 -50q-14 -13 -33 -13q-36 0 -47 51q-23 102 -110 204z" />
  </g>

</svg>
