<?xml version="1.0" standalone="no"?>
<!DOCTYPE svg PUBLIC "-//W3C//DTD SVG 1.1//EN" "http://www.w3.org/Graphics/SVG/1.1/DTD/svg11.dtd" >
<svg xmlns="http://www.w3.org/2000/svg" xmlns:xlink="http://www.w3.org/1999/xlink" version="1.1" viewBox="0 -120 1000 1000">
  <g transform="matrix(1 0 0 -1 0 880)">
   <path fill="currentColor"
d="M37 351q160 207 229 373h-215l-12 26h124l1 202l77 -8q20 -2 20 -13q0 -9 -17 -16l-18 -8v-157h45l24 34l63 -48q10 -7 10 -16q0 -8 -16 -12l-16 -3q-58 -98 -108 -169v-33l49 -19l61 129l67 -39q8 -4 8 -12q0 -12 -17 -11h-19l-78 -77q72 -33 72 -80q0 -17 -11 -27
q-8 -7 -16 -7q-12 0 -25 15q-3 3 -29 41q-28 40 -62 59v-410l-65 -11l3 405q-63 -70 -119 -119zM271 131q196 177 296 371h-152l-10 25h188l-1 184h-200l-13 26h214l1 214l82 -7q23 -2 23 -16q0 -12 -20 -18l-19 -6l-1 -167h150l51 64l84 -71v-19h-285v-184h123l47 57
l81 -64v-18h-253q75 -170 305 -312l-6 -12q-29 -2 -45 -15q-9 -7 -20 -22q-96 86 -138 142q-49 64 -94 155v-374l-67 -13v356q-111 -129 -194 -199q-60 -51 -115 -90z" />
  </g>

</svg>
