<?xml version="1.0" standalone="no"?>
<!DOCTYPE svg PUBLIC "-//W3C//DTD SVG 1.1//EN" "http://www.w3.org/Graphics/SVG/1.1/DTD/svg11.dtd" >
<svg xmlns="http://www.w3.org/2000/svg" xmlns:xlink="http://www.w3.org/1999/xlink" version="1.1" viewBox="0 -204 1024 1024">
  <g transform="matrix(1 0 0 -1 0 820)">
   <path fill="currentColor"
d="M166 957q17 -19 32 -39q15 -17 24 -35q10 -15 15 -28q3 -13 3 -25q0 -20 -7 -32q-9 -13 -21 -13q-5 0 -7 4q-4 4 -6 23q-4 23 -13 46q-7 21 -16 42q-7 18 -23 43zM36 775q40 -8 115 -8h147l32 31q34 -21 54 -42q5 -6 5 -10q0 -6 -12 -14q-17 -10 -25 -11
q-47 -102 -90 -161q-14 -22 -30 -38q24 -14 46 -26q9 11 17 22q11 13 20 29q11 16 18 30q8 16 11 32q82 -49 82 -63q0 -11 -19 -11q-13 0 -33 5q-15 -14 -32 -27q-15 -13 -32 -23q-7 -3 -12 -6q18 -13 33 -27q36 -27 53 -56q12 -21 12 -40q0 -29 -20 -29q-10 0 -21 6
q-9 6 -17 26q-25 50 -52 81q-21 25 -50 47v-378q0 -22 1 -32v-27q0 -35 -30 -35q-27 0 -27 18q0 21 3 55q4 34 4 59v320q-9 -12 -18 -22q-49 -48 -122 -93l-15 17q76 58 124 109q44 48 77 105q32 54 70 151h-152q-80 0 -98 -7zM412 771q44 -13 116 -13h100v118q0 54 -6 81
q59 -7 97 -24q12 -4 12 -14q0 -9 -12 -12q-20 -10 -43 -12v-137h160l47 54q38 -29 71 -56q10 -6 10 -12q0 -13 -17 -13h-271v-212h132l46 53q39 -30 73 -55q9 -6 9 -13q0 -14 -16 -14h-228q27 -56 58 -100q33 -48 75 -95q42 -40 85 -71q40 -29 77 -40l-3 -18q-48 0 -64 -29
q-40 24 -72 59q-37 38 -63 80q-29 40 -58 87q-25 42 -51 103v-356q0 -22 1 -31v-28q0 -34 -31 -34q-25 0 -25 17q0 21 3 55q4 33 4 59v311q-21 -40 -41 -70q-34 -54 -76 -99q-38 -41 -85 -83q-47 -37 -117 -83l-13 21q64 47 111 92q44 42 79 93q34 42 60 90q19 38 33 70h-30
q-72 -2 -97 -6l-21 47q44 -12 118 -12h79v212h-100q-70 -2 -97 -9z" />
  </g>

</svg>
