<?xml version="1.0" standalone="no"?>
<!DOCTYPE svg PUBLIC "-//W3C//DTD SVG 1.1//EN" "http://www.w3.org/Graphics/SVG/1.1/DTD/svg11.dtd" >
<svg xmlns="http://www.w3.org/2000/svg" xmlns:xlink="http://www.w3.org/1999/xlink" version="1.1" viewBox="0 -120 1000 1000">
  <g transform="matrix(1 0 0 -1 0 880)">
   <path fill="currentColor"
d="M38 387q12 13 24 25q147 143 230 321h-229l-16 27h139v197l74 -10q21 -3 21 -14q0 -8 -14 -15l-18 -10v-148h44l27 33l59 -41q14 -10 14 -17q0 -12 -24 -15l-15 -1q-11 -15 -20 -30q-39 -59 -85 -119v-103l17 -7q40 59 74 129l58 -41q8 -6 8 -12q0 -9 -19 -9h-16l-86 -75
q42 -20 64 -42q32 -33 32 -55q0 -28 -23 -28q-15 0 -28 12q-9 7 -28 41q-17 25 -53 67v-386l-60 -12v451q-97 -94 -139 -125zM346 624q96 109 150 238l65 -39q9 -6 9 -13q0 -11 -19 -13l-25 -3q-70 -101 -167 -184zM387 412l-16 27h240v173h-164l-14 27h178v322l84 -15
q20 -3 20 -13t-19 -16l-21 -8v-270h73l39 52l82 -59v-20h-194v-173h153l44 57l81 -66v-18h-278v-338l-64 -14v352h-224zM738 841q82 -26 137 -67q67 -50 67 -93q0 -31 -26 -31q-9 0 -19 6q-13 8 -45 57q-45 66 -121 113z" />
  </g>

</svg>
