<?xml version="1.0" standalone="no"?>
<!DOCTYPE svg PUBLIC "-//W3C//DTD SVG 1.1//EN" "http://www.w3.org/Graphics/SVG/1.1/DTD/svg11.dtd" >
<svg xmlns="http://www.w3.org/2000/svg" xmlns:xlink="http://www.w3.org/1999/xlink" version="1.1" viewBox="0 -204 1024 1024">
  <g transform="matrix(1 0 0 -1 0 820)">
   <path fill="currentColor"
d="M116 954q20 -13 39 -28q18 -11 29 -23q15 -13 19 -22q5 -8 5 -15q0 -21 -6 -33q-9 -11 -24 -11q-6 0 -8 4q-4 3 -7 15q-5 19 -16 35q-9 19 -19 33t-30 33zM36 788q39 -6 110 -6h120l32 32q34 -21 50 -39q6 -5 6 -11t-13 -14q-14 -7 -23 -8q-43 -97 -79 -155
q-22 -29 -43 -56q22 -12 37 -26q12 13 19 21q10 14 20 33q12 15 19 32q7 18 11 33q78 -47 78 -58q0 -12 -22 -12q-11 0 -30 4q-16 -18 -31 -31q-15 -14 -32 -26q-7 -5 -12 -10q12 -9 20 -18q31 -28 48 -58q11 -18 11 -39q0 -30 -22 -30q-9 0 -15 6q-8 5 -16 25
q-22 51 -46 79q-14 21 -33 39v-379q0 -21 2 -29q2 -19 2 -29q0 -34 -34 -34q-24 0 -24 18q0 20 4 54q2 35 2 60v327q-47 -45 -106 -85l-14 14q66 54 108 103q38 45 70 98q28 49 60 139h-124q-78 0 -96 -4zM620 960q47 -7 78 -20q10 -2 10 -12q0 -9 -20 -13q-10 -3 -20 -4
q26 -67 60 -119q38 -55 83 -108q47 -52 93 -87q46 -32 86 -49v-16q-51 0 -66 -28q-45 30 -80 70q-40 44 -71 93q-33 45 -62 102q-30 53 -64 132q-14 -53 -34 -91q-23 -54 -56 -104q-34 -53 -62 -91q-31 -41 -68 -78q-38 -41 -81 -73l-14 22q51 41 90 86q36 44 72 95
q34 55 61 109q26 48 41 93q13 41 24 91zM464 554q43 -14 116 -14h154l40 40q32 -20 59 -42q7 -4 7 -8q0 -16 -14 -16h-246q-71 -1 -98 -6zM434 426l62 -46h318l34 46q36 -23 51 -43q7 -9 7 -15q0 -8 -40 -32v-217q18 -12 31 -22q5 -3 5 -7q0 -18 -6 -18h-410v-36
q0 -12 -18 -12q-9 0 -24 6q-10 8 -10 24t3 46q5 22 5 96v162q0 39 -8 68zM486 102h336v252h-336v-252z" />
  </g>

</svg>
