<?xml version="1.0" standalone="no"?>
<!DOCTYPE svg PUBLIC "-//W3C//DTD SVG 1.1//EN" "http://www.w3.org/Graphics/SVG/1.1/DTD/svg11.dtd" >
<svg xmlns="http://www.w3.org/2000/svg" xmlns:xlink="http://www.w3.org/1999/xlink" version="1.1" viewBox="0 -200 1000 1000">
  <g transform="matrix(1 0 0 -1 0 800)">
   <path fill="currentColor"
d="M543 933l-21 -61v-49h234l56 50l79 -73h-369v-28q27 -32 66 -69t88 -68.5t106 -52.5t119 -21h9q-32 -11 -53 -28t-39 -31q-58 19 -105.5 50t-84.5 65.5t-63.5 69t-42.5 61.5v-245q-2 -2 -7.5 -7t-12.5 -10t-15.5 -8.5t-17.5 -3.5v326h-284l-60 -15l-26 38h370v143z
M574 935q54 -5 85.5 -16t41.5 -41q1 -1 1 -9q0 -10 -6.5 -19t-21.5 -14q-3 0 -11 11t-21 26.5t-31 32.5t-42 28zM209 775q20 -7 43.5 -16t43.5 -20t33 -25t13 -30q0 -19 -10.5 -31.5t-23.5 -12.5q-3 0 -11.5 16.5t-21.5 39t-30 45t-38 34.5h2zM99 536q51 16 91.5 30
t78.5 27.5t77.5 29t88.5 34.5l2 -8q-37 -22 -74.5 -41.5t-73.5 -39.5t-69.5 -40.5t-61.5 -43.5zM824 729q-22 -7 -67.5 -29t-115.5 -47v11q57 34 96 67t54 53l61 -49zM950 37q-14 -3 -24 -6.5t-20 -9.5t-21 -14.5t-25 -20.5q-131 45 -216 126.5t-113 207.5h-119l61 -41
l-34 -15l-58 -50v-150l189 79l3 -13q-41 -24 -81.5 -47t-75 -44t-60 -38.5t-35.5 -29.5l-71 45l75 27v135q-29 -21 -62.5 -40t-69 -35.5t-71 -29.5t-67.5 -21l-4 12q48 24 98 53t96 61.5t86.5 68t70.5 73.5h-227l-72 -13l-23 36h392v43l-9 76l81 -28l-18 -55v-36h285l51 45
l69 -68h-380q11 -33 31 -63.5t40 -62.5q31 14 70.5 42.5t77.5 68.5l47 -68l-42 -3l-138 -53q24 -28 57.5 -50.5t74 -39t86.5 -28t94 -17.5z" />
  </g>

</svg>
