<?xml version="1.0" standalone="no"?>
<!DOCTYPE svg PUBLIC "-//W3C//DTD SVG 1.1//EN" "http://www.w3.org/Graphics/SVG/1.1/DTD/svg11.dtd" >
<svg xmlns="http://www.w3.org/2000/svg" xmlns:xlink="http://www.w3.org/1999/xlink" version="1.1" viewBox="0 -200 1000 1000">
  <g transform="matrix(1 0 0 -1 0 800)">
   <path fill="currentColor"
d="M921 933l-18 -61v-366q-8 -50 -74 -63q-5 13 -9.5 23t-14 18.5t-27 14.5t-48.5 11v12q27 -4 47 -6.5t34 -2.5q39 0 42 25v429zM765 867l-20 -65v-221q-9 -9 -50 -19v335zM289 926l-31 -29l-37 -43h104v116l71 -31l-19 -53v-32h87l43 42l64 -65h-194v-92h155l44 42l63 -66
h-262v-66h113l33 39l61 -48l-31 -35v-72q0 -40 -22 -59t-55 -27q-3 11 -5 21t-9 18t-22.5 14t-45.5 10v13q22 -3 40 -6.5t32 -3.5q16 0 24.5 4t8.5 16v94h-122v-174q-7 -6 -19.5 -11t-32.5 -7v192h-103l-16 -35v-117q-23 -20 -45 -20q-1 0 -4.5 0.5t-5.5 0.5v217l73 -24h101
v66h-179l-74 -13l-21 37h274v92h-128q-7 -10 -20.5 -22t-30 -24.5t-34.5 -23.5t-34 -18l-8 8q30 23 55.5 55t45 63.5t32.5 58t18 38.5zM950 31q-14 -3 -24 -6.5t-20 -8.5t-20.5 -13t-25.5 -20q-132 45 -216.5 123.5t-112.5 201.5h-119l61 -42l-34 -13l-58 -49v-146l189 77
l3 -12q-41 -23 -81.5 -45.5t-75 -43t-60 -37.5t-35.5 -29l-71 43l75 28v131q-29 -21 -62.5 -40t-69 -35t-70.5 -28t-68 -19l-4 10q48 24 97.5 52t96 59.5t87 66t70.5 72.5h-227l-72 -14l-23 34h392v42l-9 75l81 -27l-18 -53v-37h285l51 45l69 -65h-380q11 -33 31 -62.5
t40 -60.5q31 13 70.5 41t77.5 65l47 -65h-42l-138 -55q24 -26 58 -47.5t74.5 -37.5t86 -27t93.5 -17z" />
  </g>

</svg>
