<?xml version="1.0" standalone="no"?>
<!DOCTYPE svg PUBLIC "-//W3C//DTD SVG 1.1//EN" "http://www.w3.org/Graphics/SVG/1.1/DTD/svg11.dtd" >
<svg xmlns="http://www.w3.org/2000/svg" xmlns:xlink="http://www.w3.org/1999/xlink" version="1.1" viewBox="0 -120 1000 1000">
  <g transform="matrix(1 0 0 -1 0 880)">
   <path fill="currentColor"
d="M36 323q65 75 120 167q80 131 123 235h-220l-11 26h112v198l78 -7q18 -1 18 -14q0 -9 -16 -15l-20 -8v-154h64l23 32l66 -43q9 -6 9 -13q0 -9 -13 -12l-19 -4q-54 -100 -128 -209v-13l49 -22q52 126 52 127l67 -40q8 -5 8 -10q0 -10 -19 -12l-15 -1l-75 -76
q66 -39 66 -80q0 -32 -26 -32q-12 0 -20 11q-2 2 -24 39q-30 50 -65 73v-406l-59 -10l-1 373l-18 -19q-53 -56 -94 -93zM377 777l-12 25h242v148l83 -7q17 -1 17 -12q0 -9 -14 -15l-22 -9v-104l157 -1l44 54l79 -60v-19h-574zM380 44v402l66 -36h137l18 78h-120v-28l-57 -10
v293l74 -7q16 -2 16 -12q0 -11 -13 -15l-20 -7v-189h326v229l71 -7q15 -1 15 -14q0 -6 -11 -11l-19 -9v-235l-56 -10v32h-153l29 -14q8 -3 8 -10q0 -10 -15 -11l-18 -1l-18 -42h204l19 33l63 -35q13 -7 13 -15q0 -6 -14 -11l-16 -6v-254q-1 -26 -10 -37q-12 -15 -42 -23
q-22 -7 -29 -7q-5 0 -7 4q-2 3 -6 26q-3 12 -15 15l-45 13v16h92v254h-218l-53 -115l150 8q-12 30 -48 71l11 12q37 -21 73 -56q42 -41 42 -82q0 -37 -27 -37q-20 0 -27 27q-4 17 -13 40l-210 -44l-5 -13q-4 -9 -13 -9q-6 0 -11 12l-23 68l74 1l31 117h-141v-328zM510 537
q64 52 114 103q-34 22 -100 55l5 15q63 -14 125 -40q35 39 71 81l58 -33q7 -3 7 -9q0 -10 -12 -10l-19 -1l-61 -52q74 -45 74 -82q0 -10 -7 -17q-6 -5 -14 -5q-12 0 -30 17q-36 37 -63 57q-88 -65 -139 -90z" />
  </g>

</svg>
