<?xml version="1.0" standalone="no"?>
<!DOCTYPE svg PUBLIC "-//W3C//DTD SVG 1.1//EN" "http://www.w3.org/Graphics/SVG/1.1/DTD/svg11.dtd" >
<svg xmlns="http://www.w3.org/2000/svg" xmlns:xlink="http://www.w3.org/1999/xlink" version="1.1" viewBox="0 -140 1000 1000">
  <g transform="matrix(1 0 0 -1 0 860)">
   <path fill="currentColor"
d="M56 693l1 24h113v209l95 -16v-15l-33 -17v-161h26l29 27h11l53 -50l-5 -14l-26 -6q-38 -102 -88 -193v-25l38 -14l52 127l76 -46l-4 -11l-33 -3l-72 -74q79 -34 79 -78q0 -43 -24 -43q-14 0 -35 41q-23 41 -77 82l1 -347l-5 -19l-52 -13l-6 10v335q-69 -69 -107 -94
l-7 11q81 90 125 173t73 200h-198zM335 223v22h283v92h-117q0 -9 -7 -27l-49 -14l-8 8v346l65 -27h292l31 29h14l50 -36v-16l-24 -18l-1 -242l-3 -15l-51 -15l-9 7v20h-122v-92h155l43 45h13l58 -52v-15h-269v-144l-4 -15l-53 -12l-4 11v160h-283zM501 500h117v101h-117
v-101zM501 476v-117h117v117h-117zM679 500h122v101h-122v-101zM679 359h122v117h-122v-117zM386 908l65 -25h80l31 28h12l49 -34v-12l-22 -18v-129l-4 -13l-51 -9l-7 4v20h-90v-20l-6 -10l-50 -11l-7 6v223zM449 862v-120h90v120h-90zM661 696v209l66 -22h91l29 28h12
l48 -38v-13l-20 -19l-1 -123l-4 -12l-48 -10l-10 8v16h-99v-11l-10 -11l-45 -8zM725 862v-120h99v120h-99z" />
  </g>

</svg>
