<?xml version="1.0" standalone="no"?>
<!DOCTYPE svg PUBLIC "-//W3C//DTD SVG 1.1//EN" "http://www.w3.org/Graphics/SVG/1.1/DTD/svg11.dtd" >
<svg xmlns="http://www.w3.org/2000/svg" xmlns:xlink="http://www.w3.org/1999/xlink" version="1.1" viewBox="0 -120 1000 1000">
  <g transform="matrix(1 0 0 -1 0 880)">
   <path fill="currentColor"
d="M166 55v399q-75 -89 -123 -136l-14 13q141 180 232 393h-209l-10 26h122v202l73 -7q21 -2 21 -12q0 -8 -14 -15l-18 -9v-158l38 1l22 33l65 -42q13 -8 13 -16q0 -10 -14 -12l-18 -4q-12 -23 -49 -82q-37 -61 -56 -94v-41l48 -20q26 63 49 125l64 -29q14 -6 14 -13
t-13 -10l-20 -5l-77 -77q67 -41 67 -82q0 -16 -11 -26q-8 -7 -17 -7q-8 0 -14 7q-2 2 -43 64q-13 19 -47 49v-406zM365 478l-9 25h257v73h-193l-11 26h204v83l69 -6q22 -2 22 -13q0 -8 -14 -14l-16 -7v-43h107l37 47l75 -57v-16h-219v-73h164l37 47l72 -57v-15h-212l52 -15
q20 -5 20 -13t-14 -12l-14 -5l-54 -79h96l42 52l73 -61l1 -18h-265v-86h124l41 49l73 -57v-18h-238v-148l-61 -8v156h-196l-9 26h205v86h-230l-9 27h164q-7 13 -8 16l-7 43q-5 27 -37 65h-119zM521 478q27 -20 40 -33q26 -24 26 -52q0 -18 -13 -39h120q18 68 26 124h-199z
M401 666l4 261l65 -37h358l27 39l64 -41q13 -8 13 -17t-15 -12l-19 -3l-2 -171l-57 -9l-1 24h-378v-24zM460 865v-139h89v139h-89zM603 865l1 -139h82v139h-83zM741 865v-139h98v139h-98z" />
  </g>

</svg>
