<?xml version="1.0" standalone="no"?>
<!DOCTYPE svg PUBLIC "-//W3C//DTD SVG 1.1//EN" "http://www.w3.org/Graphics/SVG/1.1/DTD/svg11.dtd" >
<svg xmlns="http://www.w3.org/2000/svg" xmlns:xlink="http://www.w3.org/1999/xlink" version="1.1" viewBox="0 -410 2048 2048">
  <g transform="matrix(1 0 0 -1 0 1638)">
   <path fill="currentColor"
d="M404 1037v-646q0 -100 13 -219q3 -32 3 -50q0 -46 -55 -46q-57 0 -57 42v913q-83 -91 -210 -168l-23 27q289 247 424 609h-219q-69 0 -149 -11l-39 87q124 -18 188 -18h219l60 70l80 -52q47 -30 47 -49q0 -32 -89 -56q-61 -135 -193 -333v-55q50 -27 87 -51
q66 111 106 220l105 -55q35 -18 35 -35q0 -28 -49 -28h-32l-40 -41q-70 -71 -86 -85q149 -104 149 -186q0 -66 -50 -66q-37 0 -65 88q-30 94 -160 194zM264 1948q190 -129 190 -217q0 -39 -29 -56q-11 -7 -24 -7q-35 0 -47 51q-23 103 -110 205zM1566 384q71 -57 134 -93
q111 -66 271 -93l-6 -36h-24q-57 0 -105 -68q-189 91 -290 199q-92 98 -169 266l33 20q53 -86 121 -165q126 111 191 211l106 -72q37 -25 37 -48q0 -21 -44 -21q-20 0 -65 8q-48 -30 -104 -60q-41 -22 -86 -48zM892 738q98 -19 214 -19h628l87 87l118 -97q14 -12 14 -30
q0 -20 -19 -20h-812v-411q34 9 123 30q58 14 161 50l11 -31q-25 -15 -38 -22q-94 -58 -244 -134l-13 -41q-8 -25 -21 -25q-16 0 -25 19l-66 135l16 5v425q-52 -2 -111 -7l-23 57v-30q0 -127 -39 -259q-61 -205 -218 -334l-26 29q92 107 134 228q52 152 52 385v272
q0 30 -10 148l114 -71h823l91 95l121 -95q15 -12 15 -28q0 -27 -25 -27h-1032v-107q86 -18 214 -18h483l98 103l121 -110q16 -14 16 -24q0 -23 -32 -23h-686q-128 0 -191 -8l-23 55v-152zM839 1828l120 -63h163v52q0 84 -9 134l112 -24q82 -17 82 -46q0 -25 -49 -41l-41 -12
v-63h222v52q0 84 -9 134l123 -24q70 -13 70 -45q0 -28 -48 -42l-44 -12v-63h187l68 75l84 -53q40 -26 40 -49q0 -28 -78 -61v-292q0 -42 7 -104q3 -29 3 -44q0 -49 -65 -49q-43 0 -43 22v27h-799v-16q0 -30 -52 -30q-56 0 -54 44q0 3 5 49q5 55 5 114v430zM1531 1706v-168
h203v168h-203zM1531 1482v-191h203v191h-203zM1217 1482v-191h222v191h-222zM1217 1706v-168h222v168h-222zM935 1538h187v168h-187v-168zM935 1291h187v191h-187v-191z" />
  </g>

</svg>
