<?xml version="1.0" standalone="no"?>
<!DOCTYPE svg PUBLIC "-//W3C//DTD SVG 1.1//EN" "http://www.w3.org/Graphics/SVG/1.1/DTD/svg11.dtd" >
<svg xmlns="http://www.w3.org/2000/svg" xmlns:xlink="http://www.w3.org/1999/xlink" version="1.1" viewBox="0 -140 1000 1000">
  <g transform="matrix(1 0 0 -1 0 860)">
   <path fill="currentColor"
d="M833 693l28 28h10l34 -39v-12h-82l-47 -71h30l27 26h13l46 -34v-15l-18 -13v-266l-5 -12l-46 -13l-10 6v44h-54v-27l-6 -12l-45 -11l-9 6v339l61 -18l19 71h-113v22zM813 577h-54v-107h54v107zM813 447h-54v-102h54v102zM492 693l29 28h12l35 -40v-11h-82l-47 -71h28
l23 24h12l48 -40v-15l-14 -17v-253l-6 -13l-45 -12l-10 8l1 41h-56l-1 -34l-6 -10l-41 -11l-12 6v346l60 -20l24 71h-95v22zM476 577h-56v-107h56v107zM476 447h-56v-102h56v102zM168 734v175l100 -19v-14l-36 -17v-125h18l24 31h15l56 -56l-6 -15l-23 -3q-30 -87 -84 -164
v-53q7 0 17 -2q19 33 45 95l62 -38l-15 -15l-16 5l-56 -56q61 -34 61 -82q0 -35 -24 -35q-16 0 -36 59q-11 30 -38 49v-380l-8 -15l-49 -8l-7 6v397q-61 -67 -109 -96l-9 14q156 141 200 340h-185v22h103zM345 789l246 -1q1 5 1 14q0 8 -2 52t-2 53l97 -14v-13l-33 -17
l1 -74h184l39 43h10l48 -49v-16h-281v-30q0 -128 -22 -320q39 -128 113 -202t196 -114l-4 -13q-42 -5 -61 -42q-101 53 -162 132.5t-94 200.5q-17 -65 -43.5 -115.5t-53.5 -82.5t-67 -58.5t-71 -40.5t-78 -32l-7 14q164 73 224 191.5t66 360.5l4 151h-248v22z" />
  </g>

</svg>
