<?xml version="1.0" standalone="no"?>
<!DOCTYPE svg PUBLIC "-//W3C//DTD SVG 1.1//EN" "http://www.w3.org/Graphics/SVG/1.1/DTD/svg11.dtd" >
<svg xmlns="http://www.w3.org/2000/svg" xmlns:xlink="http://www.w3.org/1999/xlink" version="1.1" viewBox="0 -120 1000 1000">
  <g transform="matrix(1 0 0 -1 0 880)">
   <path fill="currentColor"
d="M42 384q137 176 193 355h-177l-11 25h101v200l64 -9q26 -3 26 -13q0 -9 -15 -17l-16 -8v-153h34l20 36l65 -46q7 -5 7 -10q0 -11 -19 -13l-19 -2q-40 -88 -88 -168v-56l18 -10q21 37 60 118l49 -39q10 -8 10 -13q0 -9 -16 -9h-14l-76 -64q35 -24 52 -42q29 -28 29 -59
q0 -19 -13 -31q-8 -8 -17 -8q-17 0 -25 29q-18 59 -57 104v-407l-59 -6v409q-41 -57 -88 -108zM440 589v177h-104l-12 27h116v147l71 -11q17 -2 17 -13q0 -10 -14 -14l-15 -5v-104h29l31 37l64 -48v-16h-124v-177h19l29 38l64 -44v-19h-248l-12 25h89zM370 139v358l52 -34
h94l20 34l53 -38q14 -11 14 -17q0 -8 -17 -12l-13 -3v-243l-54 -6v37h-97v-69zM422 438v-196h97v196h-97zM545 64q45 32 94 82q32 34 54 63l53 -25q12 -6 12 -13q0 -11 -15 -11h-24q-67 -61 -163 -110zM610 889h226l35 44l79 -55v-16h-136l-55 -124h85l21 38l66 -44
q9 -6 9 -12q0 -10 -20 -13l-13 -2v-485l-56 -5v24h-156v-21l-52 -8v562l63 -34h24q14 87 16 124h-124zM695 390v-124h156v124h-156zM695 564v-147h156v147h-156zM695 713v-122h156v122h-156zM807 211q68 -31 88 -47q45 -37 45 -72q0 -17 -14 -27q-9 -6 -17 -6q-9 0 -15 6
t-24 41q-35 63 -70 91z" />
  </g>

</svg>
