<?xml version="1.0" standalone="no"?>
<!DOCTYPE svg PUBLIC "-//W3C//DTD SVG 1.1//EN" "http://www.w3.org/Graphics/SVG/1.1/DTD/svg11.dtd" >
<svg xmlns="http://www.w3.org/2000/svg" xmlns:xlink="http://www.w3.org/1999/xlink" version="1.1" viewBox="0 -140 1000 1000">
  <g transform="matrix(1 0 0 -1 0 860)">
   <path fill="currentColor"
d="M334 853v23h470l33 40h13l50 -46v-17h-142v-224l70 8l29 43l13 1l55 -43l1 -14l-168 -18v-86l-5 -12l-44 -13l-15 9v95l-325 -34l-3 23l80 8v257h-112zM607 459v24h239l34 44h14l42 -52v-16h-83v-225l11 1l25 43l13 2l46 -44l2 -13l-97 -12v-136l-10 -15l-40 -8l-10 8
v145l-210 -23l-3 23l39 5v249h-12zM509 603l185 20v52h-185v-72zM793 459h-114v-65h114v65zM793 372h-114v-65h114v65zM312 483h193l31 37h15l46 -40v-17l-28 -15v-371l-8 -13l-41 -11l-10 7v137q-111 -26 -202 -52l-5 -35l-13 -4l-33 87q41 5 92 11v255h-37v24zM510 459
h-101v-65h101v65zM510 372h-101v-65h101v65zM409 283v-73q13 0 101 9v64h-101zM694 853h-184v-65h184v65zM694 766h-184v-68h184v68zM267 887v-14l-40 -17v-122h21l26 28h13l47 -42l-3 -17l-23 -7q-34 -98 -81 -183v-43l25 -5q16 26 45 106l61 -35l-6 -9l-21 -4
q-5 -6 -13.5 -15t-22.5 -24.5t-25 -27.5q46 -30 46 -70q0 -16 -7 -30.5t-15 -15.5q-10 0 -19 37q-13 53 -48 79v-368l-8 -15l-46 -14l-8 7v383q-43 -56 -94 -87l-8 10q123 131 185 340h-175v22h96v173zM793 282h-114v-67l114 12v55z" />
  </g>

</svg>
