<?xml version="1.0" standalone="no"?>
<!DOCTYPE svg PUBLIC "-//W3C//DTD SVG 1.1//EN" "http://www.w3.org/Graphics/SVG/1.1/DTD/svg11.dtd" >
<svg xmlns="http://www.w3.org/2000/svg" xmlns:xlink="http://www.w3.org/1999/xlink" version="1.1" viewBox="0 -140 1000 1000">
  <g transform="matrix(1 0 0 -1 0 860)">
   <path fill="currentColor"
d="M661 777v152l97 -17v-15l-34 -15v-105h115l38 46h15l53 -51v-18h-221v-124h92l32 44h18l62 -49v-19l-37 -25v-167l-5 -16l-49 -16l-10 10v35h-95q42 -95 84.5 -146t128.5 -111v-14q-3 1 -14 1q-20 0 -67 -32q-93 115 -140 253v-304l-5 -13l-48 -15l-11 10v277
q-81 -119 -209 -206l-9 9q123 108 190 291h-74v-30l-8 -11l-46 -15l-10 5l-1 277l65 -23h103v124h-223v23h223zM661 607h-103v-157h103v157zM827 607h-103v-157h103v157zM285 805l27 37h16l56 -51l-4 -14l-36 -15l-57 -94h66l31 36h18l51 -51v-15l-34 -21v-430
q0 -47 -4 -59.5t-24 -26.5q-24 -16 -77 -25l-10 11v30l-85 30l3 15l87 -8q26 -2 36 5.5t10 30.5l1 129h-181q-21 -134 -104 -259l-12 7q43 96 51.5 168t8.5 282v135q-28 -41 -56 -69l-8 8q80 134 115 337l88 -35l-3 -11l-28 -9q-2 -5 -25 -68h83zM294 782h-102
q-16 -34 -47 -90l48 -24h72zM239 646h-55v-137h55v137zM299 509h57v137h-57v-137zM356 487h-57v-145h57v145zM239 487h-55q-1 -79 -6 -145h61v145z" />
  </g>

</svg>
