<?xml version="1.0" standalone="no"?>
<!DOCTYPE svg PUBLIC "-//W3C//DTD SVG 1.1//EN" "http://www.w3.org/Graphics/SVG/1.1/DTD/svg11.dtd" >
<svg xmlns="http://www.w3.org/2000/svg" xmlns:xlink="http://www.w3.org/1999/xlink" version="1.1" viewBox="0 -410 2048 2048">
  <g transform="matrix(1 0 0 -1 0 1638)">
   <path fill="currentColor"
d="M1892 601l39 -6l-9 -209q-2 -36 7 -63q5 -14 46 -50q17 -15 17 -30q0 -75 -311 -75h-689q-170 0 -214 20q-59 26 -59 115v1119h-239v-183q0 -465 -102 -732q-81 -212 -300 -430l-30 28q151 169 229 362q105 261 105 718v237h-81q-108 0 -192 -8l-38 89q100 -24 230 -24
h81v297q0 113 -8 159l113 -24q85 -18 85 -45q0 -26 -50 -42l-42 -13v-332h224l61 73l72 -49q42 -30 42 -50q0 -17 -64 -51v-1045q0 -65 21 -78q30 -18 165 -18h668q124 0 156 26q33 26 47 150q14 120 20 164zM1400 1620h289l98 102l121 -107q17 -15 17 -26q0 -26 -27 -26
h-830q-70 0 -148 -11l-39 86q125 -18 187 -18h286q-23 7 -31 57q-13 78 -132 202l28 30q93 -64 132 -96q87 -72 87 -132q0 -42 -38 -61zM1524 1149l80 81l113 -86q17 -13 17 -26q0 -26 -27 -26h-467q-67 0 -148 -11l-40 86q124 -18 188 -18h284zM1520 1396l80 83l117 -88
q14 -11 14 -26q0 -26 -27 -26h-467q-69 0 -149 -11l-39 86q125 -18 188 -18h283zM1043 962l104 -62h459l61 72l72 -50q42 -28 42 -50q0 -16 -64 -52v-240l33 -23q29 -21 29 -36q0 -20 -20 -20h-619v-40q0 -30 -54 -30q-59 0 -55 44l4 49l4 55l4 49v334zM1140 557h478v285
h-478v-285z" />
  </g>

</svg>
