<?xml version="1.0" standalone="no"?>
<!DOCTYPE svg PUBLIC "-//W3C//DTD SVG 1.1//EN" "http://www.w3.org/Graphics/SVG/1.1/DTD/svg11.dtd" >
<svg xmlns="http://www.w3.org/2000/svg" xmlns:xlink="http://www.w3.org/1999/xlink" version="1.1" viewBox="0 -120 1000 1000">
  <g transform="matrix(1 0 0 -1 0 880)">
   <path fill="currentColor"
d="M62 414l-10 26h771l50 56l80 -62v-20h-891zM120 544l-9 -13q-8 -13 -15 -13q-6 0 -14 24l-23 64l93 10v250l73 -8q20 -2 20 -13q0 -9 -15 -15l-17 -7v-201l87 10v318l72 -7q23 -2 23 -13q0 -9 -22 -17l-11 -4v-107h69l38 51l69 -60v-19l-176 1v-136l171 20l4 -17
q-210 -51 -417 -98zM200 43l3 207l67 -32h463l22 33l61 -33q18 -9 18 -17q0 -7 -13 -12l-16 -7l-1 -121l-63 -10v28h-479v-25zM262 191v-85h479v85h-479zM213 338l-10 27h505l30 33l64 -43v-17h-589zM205 292l499 2l35 32l64 -43v-18h-586zM218 485l-12 26h480l43 42l69 -49
v-20zM914 730v-56q0 -35 33 -46q-12 -32 -28 -44q-18 -12 -111 -12h-148q-54 0 -73 10q-22 13 -22 59v307l78 -7q17 -2 17 -12q0 -11 -12 -15l-21 -8l1 -141q132 54 222 112l52 -47q14 -12 14 -19q0 -9 -13 -9h-9l-24 4q-127 -37 -243 -69v-91q0 -18 19 -18l170 1
q30 1 45 11q12 9 23 42l15 47z" />
  </g>

</svg>
