<?xml version="1.0" standalone="no"?>
<!DOCTYPE svg PUBLIC "-//W3C//DTD SVG 1.1//EN" "http://www.w3.org/Graphics/SVG/1.1/DTD/svg11.dtd" >
<svg xmlns="http://www.w3.org/2000/svg" xmlns:xlink="http://www.w3.org/1999/xlink" version="1.1" viewBox="0 -120 1000 1000">
  <g transform="matrix(1 0 0 -1 0 880)">
   <path fill="currentColor"
d="M45 751h246l41 52l80 -60v-19l-358 1zM79 625h185l37 47l71 -56v-17h-284zM82 501l181 -2l38 50l71 -57v-18h-281zM90 850l-12 26h184l37 46l70 -55v-17h-279zM94 66v346l63 -35h128l23 36l64 -44q8 -5 8 -12q0 -8 -12 -11l-19 -3v-226l-61 -13v46h-134v-75zM154 351
v-175h134v175h-134zM954 103h-566l-13 26h247v223h-192l-13 26h389l44 53l75 -58v-21h-239l1 -223h142l49 57l76 -61v-22zM414 855l-12 25h416l49 57l79 -63v-19h-532zM438 640q44 -32 71 -65q44 -51 44 -93q0 -24 -13 -36q-9 -8 -20 -8q-16 0 -24 19q-1 4 -10 44
q-7 34 -35 82q-11 20 -40 50q68 117 103 196l70 -32q10 -5 10 -13q0 -10 -15 -11l-20 -2zM719 776l-125 -136q31 -23 60 -54q56 -58 56 -109q0 -18 -11 -29q-8 -9 -19 -9q-10 0 -17 8q-8 8 -27 71q-21 65 -71 119q68 115 111 198l65 -33q10 -5 10 -13q0 -13 -18 -13h-14z
M742 638q11 -9 40 -30q34 -25 62 -63q22 -31 22 -57q0 -24 -16 -37q-9 -7 -18 -7q-16 0 -31 44q-31 90 -88 143q62 95 119 199l69 -38q8 -5 8 -12q0 -11 -17 -11l-17 -1z" />
  </g>

</svg>
