<?xml version="1.0" standalone="no"?>
<!DOCTYPE svg PUBLIC "-//W3C//DTD SVG 1.1//EN" "http://www.w3.org/Graphics/SVG/1.1/DTD/svg11.dtd" >
<svg xmlns="http://www.w3.org/2000/svg" xmlns:xlink="http://www.w3.org/1999/xlink" version="1.1" viewBox="0 -204 1024 1024">
  <g transform="matrix(1 0 0 -1 0 820)">
   <path fill="currentColor"
d="M420 866q43 -12 116 -12h114v22q0 54 -4 82q59 -7 95 -23q15 -6 15 -15q0 -7 -15 -11q-17 -9 -43 -11v-44h138l44 44q30 -25 59 -48q7 -4 7 -10q0 -14 -10 -14h-238v-88h102l44 44q32 -25 59 -46q7 -5 7 -10q0 -18 -12 -18h-200v-94h168l44 44q32 -25 62 -46q8 -5 8 -10
q0 -18 -12 -18h-454q-70 -1 -94 -4l-22 44q44 -10 116 -10h136v94h-70q-71 -1 -98 -4l-18 44q43 -10 116 -10h70v88h-114q-71 -1 -98 -4zM530 478v-92h300v92h-300zM530 358v-92h300v92h-300zM530 236v-194q0 -11 -12 -16q-13 -6 -22 -6q-14 0 -14 12v504l62 -32h278l32 44
q38 -20 53 -42q7 -8 7 -14q0 -8 -38 -32v-344q0 -34 -17 -51q-12 -15 -37 -26q-19 -11 -36 -11l-2 18q-2 11 -8 16q-9 12 -38 23q-28 10 -66 13v22q58 -16 106 -16q32 0 41 7q11 6 11 31v94h-300zM152 954q22 -21 42 -39t33 -37q15 -15 20 -30q5 -12 5 -22q0 -21 -6 -33
q-1 -2 -1 -1h53l44 44q34 -22 61 -46q9 -3 9 -8q0 -18 -14 -18h-238q-72 -1 -98 -4l-20 44q44 -12 118 -12h49q-2 6 -4 18q-5 22 -17 46l-20 42q-12 19 -34 44zM76 650q43 -14 114 -14h72l44 46q34 -24 62 -48q8 -4 8 -10q0 -14 -12 -14h-174q-69 -1 -96 -4zM76 504
q43 -12 114 -12h72l44 44q34 -22 62 -46q8 -3 8 -8q0 -18 -12 -18h-174q-69 -1 -96 -4zM86 368l60 -32h152l30 32q52 -31 52 -44q0 -9 -30 -26v-167q10 -9 21 -16q5 -3 5 -7q0 -14 -8 -14h-234v-30q0 -7 -10 -13q-15 -5 -26 -5q-12 0 -12 12v310zM134 120h168v190h-168v-190
z" />
  </g>

</svg>
