<?xml version="1.0" standalone="no"?>
<!DOCTYPE svg PUBLIC "-//W3C//DTD SVG 1.1//EN" "http://www.w3.org/Graphics/SVG/1.1/DTD/svg11.dtd" >
<svg xmlns="http://www.w3.org/2000/svg" xmlns:xlink="http://www.w3.org/1999/xlink" version="1.1" viewBox="0 -204 1024 1024">
  <g transform="matrix(1 0 0 -1 0 820)">
   <path fill="currentColor"
d="M154 936q23 -18 41 -37q19 -17 31 -33q13 -17 18 -29q4 -12 4 -23q0 -21 -6 -32h34l41 45q34 -25 64 -49q7 -4 7 -10q0 -14 -14 -14h-213q-71 -2 -97 -7l-20 47q44 -12 117 -12h44l-3 13q-4 22 -14 44t-21 41t-31 42zM68 646q44 -12 117 -12h79l38 41q31 -24 59 -45
q7 -5 7 -10q0 -14 -13 -14h-170q-71 -2 -97 -7zM68 506q44 -12 117 -12h83l38 41q31 -24 59 -45q7 -5 7 -10q0 -14 -13 -14h-174q-71 -2 -97 -7zM74 368l63 -30h139l35 33q51 -36 51 -50q0 -10 -30 -25v-154q11 -8 19 -15q5 -3 5 -7q0 -14 -9 -14h-223v-32q0 -10 -12 -16
q-15 -6 -25 -6q-13 0 -13 14q0 4 1 14q1 23 1 42v178q0 49 -2 68zM124 134h160v176h-160v-176zM388 818q32 -9 80 -11v45q0 53 -6 80q51 -8 84 -23q12 -6 12 -15q0 -10 -10 -13q-14 -11 -32 -12v-63h108v58q0 53 -6 80q51 -8 84 -23q12 -6 12 -15q0 -10 -10 -13
q-14 -11 -32 -12v-75h96v58q0 53 -6 80q46 -9 75 -18q11 -4 11 -11q0 -5 -7 -9q-11 -6 -25 -10v-90h48l41 45q34 -25 64 -49q7 -4 7 -10q0 -14 -14 -14h-146v-117l23 -18q5 -3 5 -7q0 -14 -10 -14h-160v-4q0 -22 -30 -22q-24 0 -24 27q0 12 3 32q1 19 1 34v89h-108v-185
q0 -27 2 -36v-17h310l44 49q36 -27 68 -52q8 -5 8 -11q0 -14 -15 -14h-417q-7 -12 -28 -12q-24 0 -24 27q0 12 3 32q1 19 1 34v184q-42 -2 -60 -6zM674 650h94v128h-96v-89q0 -27 2 -36v-3zM400 388q44 -12 117 -12h143v28q0 53 -6 80q51 -8 84 -23q12 -6 12 -15
q0 -10 -10 -13q-14 -11 -32 -12v-45h164l44 49q36 -27 68 -52q8 -5 8 -11q0 -14 -15 -14h-254q23 -37 50 -66q31 -32 70 -63q39 -29 78 -49q37 -19 71 -27l-3 -17q-49 0 -65 -30q-36 18 -65 43q-33 26 -57 56q-27 28 -52 62q-20 26 -42 64v-212q0 -27 2 -36v-35
q0 -22 -30 -22q-24 0 -24 27q0 12 3 32q1 19 1 34v188q-16 -23 -34 -42q-44 -48 -94 -88q-49 -37 -127 -75l-13 18q68 43 111 78q36 31 68 73q32 37 58 87h-112q-71 -2 -97 -7z" />
  </g>

</svg>
