<?xml version="1.0" standalone="no"?>
<!DOCTYPE svg PUBLIC "-//W3C//DTD SVG 1.1//EN" "http://www.w3.org/Graphics/SVG/1.1/DTD/svg11.dtd" >
<svg xmlns="http://www.w3.org/2000/svg" xmlns:xlink="http://www.w3.org/1999/xlink" version="1.1" viewBox="0 -410 2048 2048">
  <g transform="matrix(1 0 0 -1 0 1638)">
   <path fill="currentColor"
d="M1288 854q-18 17 -23 63q-14 140 -128 296q-45 -4 -81 -11l-40 86q121 -17 188 -17h234q-14 13 -17 35q-11 64 -75 157l28 24q134 -98 134 -163q0 -33 -33 -53h237l80 82l114 -87q17 -13 17 -26q0 -27 -29 -27h-244l94 -36q53 -21 53 -44q0 -21 -35 -26l-55 -8
q-51 -103 -138 -245h193l80 79l114 -86q16 -12 16 -25q0 -25 -27 -25h-436v-247h189l81 79l115 -86q14 -10 14 -24q0 -25 -26 -25h-373v-91q0 -95 13 -219q3 -32 3 -50q0 -46 -55 -46q-57 0 -57 42v364h-125q-122 0 -193 -8l-39 88q97 -24 232 -24h125v247h-223
q-68 0 -149 -11l-39 86q120 -18 188 -18h98zM1336 854h182q75 185 113 359h-427h-18q182 -183 182 -288q0 -47 -32 -71zM1762 1845l65 76l84 -54q40 -26 40 -48q0 -28 -77 -62v-161l24 -18q34 -22 34 -39q0 -25 -17 -25h-929v-209q-2 -65 -6 -233q-9 -357 -71 -570
q-59 -206 -193 -379l-32 25q128 216 171 519q35 251 35 638v366q0 110 -6 246l110 -72h768zM986 1787v-215h793v215h-793zM518 1354l80 80l114 -86q17 -13 17 -26q0 -26 -27 -26h-367q-64 0 -148 -11l-40 86q126 -17 188 -17h183zM528 1056l80 81l114 -86q16 -12 16 -26
q0 -26 -26 -26h-373q-68 0 -149 -11l-39 86q126 -18 188 -18h189zM420 1658q-26 18 -32 49q-21 99 -110 204l17 24q193 -126 193 -217q0 -40 -39 -60h147l80 81l114 -86q16 -12 16 -26q0 -26 -26 -26h-513q-67 0 -147 -11l-39 86q120 -18 186 -18h153zM548 754l62 72l73 -50
q41 -27 41 -50q0 -16 -65 -52v-345l24 -18q29 -21 29 -37q0 -21 -21 -21h-425v-39q0 -30 -53 -30q-54 0 -54 44q0 4 5 49q6 99 6 103v439l121 -65h257zM266 311h299v386h-299v-386z" />
  </g>

</svg>
