<?xml version="1.0" standalone="no"?>
<!DOCTYPE svg PUBLIC "-//W3C//DTD SVG 1.1//EN" "http://www.w3.org/Graphics/SVG/1.1/DTD/svg11.dtd" >
<svg xmlns="http://www.w3.org/2000/svg" xmlns:xlink="http://www.w3.org/1999/xlink" version="1.1" viewBox="0 -410 2048 2048">
  <g transform="matrix(1 0 0 -1 0 1638)">
   <path fill="currentColor"
d="M526 767l62 72l72 -49q42 -28 42 -50q0 -15 -65 -52v-378l26 -18q27 -19 27 -37q0 -21 -21 -21h-425v-39q0 -31 -52 -31q-54 0 -54 44q0 5 4 49q7 102 7 104v478l122 -72h255zM244 292h299v417h-299v-417zM471 1351l80 80l114 -89q16 -12 16 -24q0 -24 -27 -24h-347
q-74 0 -149 -12l-39 86q125 -17 188 -17h164zM476 1065l80 81l114 -86q17 -12 17 -26q0 -26 -27 -26h-353q-69 0 -149 -11l-39 86q125 -18 188 -18h169zM380 1646q-26 18 -32 49q-21 100 -110 204l20 24q189 -128 189 -217q0 -40 -38 -60h134l77 81l114 -86q17 -13 17 -26
q0 -26 -27 -26h-476q-64 0 -149 -11l-39 86q121 -18 188 -18h132zM1517 587q402 -204 402 -331q0 -66 -49 -66q-34 0 -81 78q-82 132 -293 285zM772 698l-39 86q27 -4 41 -5q85 -12 147 -12h355v32q0 36 -12 141l107 -23q79 -17 79 -46q0 -30 -48 -41l-31 -8v-55h372l98 101
l121 -106q19 -17 19 -31q0 -22 -29 -22h-581v-388l4 -60l3 -65l4 -53q0 -57 -68 -57q-38 0 -38 41v582h-355q-64 0 -149 -11zM1017 621l80 -38q74 -35 74 -60q0 -31 -61 -31h-28q-100 -127 -177 -197q-73 -67 -188 -138l-21 31q238 194 321 433zM1406 1408l109 -66h253
l61 72l72 -50q42 -28 42 -49q0 -16 -64 -53v-221l30 -19q21 -13 21 -28q0 -19 -32 -19h-396v-14q0 -31 -52 -31q-58 0 -54 45l4 48q6 95 6 104v281zM1502 1033h278v249h-278v-249zM1006 1924l117 -66h427l69 76l83 -54q40 -26 40 -48q0 -27 -76 -62v-211l26 -16
q23 -13 23 -29q0 -21 -33 -21h-581v-24q0 -31 -52 -31q-53 0 -53 44q0 4 4 49q6 97 6 105v288zM1101 1551h469v251h-469v-251zM803 1399l108 -57h249l61 72l71 -50q43 -29 43 -49q0 -16 -66 -53v-221l30 -24q13 -11 13 -22q0 -20 -28 -20h-387v-28q0 -30 -52 -30
q-53 0 -53 44q0 4 4 49q7 98 7 104v285zM897 1033h275v249h-275v-249z" />
  </g>

</svg>
