<?xml version="1.0" standalone="no"?>
<!DOCTYPE svg PUBLIC "-//W3C//DTD SVG 1.1//EN" "http://www.w3.org/Graphics/SVG/1.1/DTD/svg11.dtd" >
<svg xmlns="http://www.w3.org/2000/svg" xmlns:xlink="http://www.w3.org/1999/xlink" version="1.1" viewBox="0 -410 2048 2048">
  <g transform="matrix(1 0 0 -1 0 1638)">
   <path fill="currentColor"
d="M325 1485l113 -57h329l61 72l73 -50q42 -28 42 -50q0 -17 -64 -53v-137q31 -30 31 -43q0 -18 -35 -18h-467v-24q0 -30 -49 -30t-49 37q0 4 4 41l1 30l2 50v186q-42 -188 -176 -337l-32 23q69 113 101 245q37 149 37 408q0 73 -8 154l130 -88h423l60 72l73 -50
q42 -29 42 -49q0 -17 -66 -53v-127q19 -17 30 -24q28 -19 28 -33q0 -25 -15 -25h-611zM343 1786l-6 -175h469v175h-463zM408 1202h375v172h-375v-172zM1145 1722q-73 -4 -115 -11l-40 86q127 -18 188 -18h234q-10 13 -15 27q-19 55 -40 82q-20 26 -63 67l18 24
q174 -88 174 -156q0 -21 -23 -44h238l80 80l114 -86q17 -13 17 -25q0 -26 -27 -26h-208l40 -22q26 -14 26 -30q0 -25 -46 -25h-34q-54 -60 -97 -106h184l80 80l114 -86q17 -13 17 -26q0 -23 -36 -23h-449v-137h187l79 81l114 -87q17 -13 17 -26q0 -25 -27 -25h-370v-84
q3 -69 3 -72q4 -41 4 -44q0 -42 -62 -42q-41 0 -41 44v198h-159q-74 0 -149 -10l-39 86q122 -19 188 -19h159v137h-206q-71 0 -149 -10l-39 86q69 -11 138 -16l50 -5h69q-15 13 -20 28q-25 82 -89 140zM1174 1722q13 -7 19 -11q110 -65 110 -124q0 -24 -26 -48h239
q27 56 72 183h-414zM1523 441l61 72l72 -50q42 -29 42 -50q0 -15 -65 -52v-119l26 -18q27 -19 27 -37q0 -21 -24 -21h-1174v-35q0 -31 -50 -31q-51 0 -51 37q0 4 4 41l1 30l2 49v248l117 -64h1012zM488 224h1051v160h-1051v-160zM1471 795l80 81l112 -86q19 -15 19 -26
q0 -26 -27 -26h-1073q-69 0 -148 -11l-40 86q125 -18 188 -18h889zM1470 628l80 81l113 -86q17 -14 17 -26q0 -26 -27 -26h-1067q-64 0 -149 -11l-39 86q126 -18 188 -18h884zM1048 970q-13 15 -17 30q-18 58 -39 85q-14 19 -59 67l16 20q166 -86 166 -160q0 -22 -22 -42
h634l99 102l120 -107q17 -15 17 -26q0 -26 -27 -26h-1622q-118 0 -192 -8l-38 88q99 -23 230 -23h734z" />
  </g>

</svg>
