<?xml version="1.0" standalone="no"?>
<!DOCTYPE svg PUBLIC "-//W3C//DTD SVG 1.1//EN" "http://www.w3.org/Graphics/SVG/1.1/DTD/svg11.dtd" >
<svg xmlns="http://www.w3.org/2000/svg" xmlns:xlink="http://www.w3.org/1999/xlink" version="1.1" viewBox="0 -204 1024 1024">
  <g transform="matrix(1 0 0 -1 0 820)">
   <path fill="currentColor"
d="M130 956q25 -17 44 -35q21 -16 34 -31q14 -15 19 -27q5 -10 5 -21q0 -21 -6 -32q-3 -5 -7 -8h49l41 45q34 -25 64 -49q7 -4 7 -10q0 -14 -14 -14h-213q-71 -2 -97 -7l-20 47q44 -12 117 -12h39q-5 6 -7 19q-6 22 -16 42q-11 21 -23 39q-13 18 -34 40zM72 658
q44 -12 117 -12h51l38 41q31 -24 59 -45q7 -5 7 -10q0 -14 -13 -14h-142q-71 -2 -97 -7zM72 518q44 -12 117 -12h51l38 41q31 -24 59 -45q7 -5 7 -10q0 -14 -13 -14h-142q-71 -2 -97 -7zM74 384l63 -30h127l35 33q51 -36 51 -50q0 -10 -30 -25v-174l19 -15q5 -3 5 -7
q0 -14 -10 -14h-210v-32q0 -10 -12 -16q-15 -6 -25 -6q-13 0 -13 14q0 4 1 14q1 23 1 42v198q0 49 -2 68zM124 130h144l4 4v192h-148v-196zM908 951q36 -27 68 -52q8 -5 8 -11q0 -14 -15 -14h-513v-270q0 -90 -5 -169q-3 -69 -14 -141q-8 -59 -21 -108q-12 -45 -32 -86
q-16 -35 -46 -72l-14 11q17 31 30 69q13 33 21 70q10 42 17 97q7 64 11 131q5 88 5 198q0 210 -4 336l57 -38h403zM675 794q-24 -10 -49 -17v-99h6l35 36q29 -21 55 -41q6 -4 6 -9q0 -14 -12 -14h-90v-34q32 -12 50 -25q19 -11 29 -23q6 -8 6 -16q0 -32 -23 -32q-5 0 -10 3
q-4 2 -9 12q-12 23 -26 37q-8 9 -17 16v-118q0 -21 1 -29v-26q0 -31 -27 -31q-25 0 -25 16q0 19 3 50q4 31 4 55v70q-9 -19 -20 -35q-15 -24 -34 -48q-19 -22 -47 -48l-13 18q20 27 35 52q13 24 25 52q10 24 18 51q6 17 9 32q-45 -2 -63 -6l-20 47q42 -11 110 -12v87l-9 -2
q-39 -11 -87 -15l-8 18q62 14 116 43q36 19 53 44q48 -25 76 -45q7 -4 7 -10q0 -11 -14 -13q-5 0 -16 5q-9 4 -25 4zM911 790q-20 -8 -41 -14v-98h21l35 36q29 -21 55 -41q6 -4 6 -9q0 -14 -12 -14h-105v-45q27 -15 46 -30q24 -15 36 -26q13 -10 20 -18q5 -7 7 -13
q3 -6 3 -12q-1 -30 -22 -30q-5 0 -9 3t-18 28q-14 23 -32 42q-13 14 -31 30v-109q0 -21 1 -29v-26q0 -31 -27 -31q-25 0 -25 16q0 19 3 50q4 31 4 55v69q-12 -19 -24 -34q-18 -24 -41 -48q-23 -22 -56 -48l-13 18q27 27 45 52q19 24 33 52q14 24 24 51q7 17 11 31
q-37 -2 -54 -5l-20 47q37 -10 95 -12v86l-13 -3q-37 -9 -83 -13l-8 18q59 13 111 41q34 18 50 42q48 -25 76 -45q7 -4 7 -10q0 -11 -14 -13q-5 0 -16 5q-9 4 -25 4zM690 404q46 -9 75 -18q11 -4 11 -11q0 -5 -7 -9q-11 -6 -25 -10v-102h80l43 47q35 -26 65 -50q8 -5 8 -11
q0 -14 -14 -14h-182v-136h124l45 51l71 -54q8 -5 8 -11q0 -14 -16 -14h-443q-71 -2 -97 -7l-20 47q44 -12 117 -12h3v150q0 53 -6 80q46 -9 75 -18q11 -4 11 -11q0 -5 -7 -9q-11 -6 -25 -10v-182h112v234q0 53 -6 80z" />
  </g>

</svg>
