<?xml version="1.0" standalone="no"?>
<!DOCTYPE svg PUBLIC "-//W3C//DTD SVG 1.1//EN" "http://www.w3.org/Graphics/SVG/1.1/DTD/svg11.dtd" >
<svg xmlns="http://www.w3.org/2000/svg" xmlns:xlink="http://www.w3.org/1999/xlink" version="1.1" viewBox="0 -120 1000 1000">
  <g transform="matrix(1 0 0 -1 0 880)">
   <path fill="currentColor"
d="M42 72q49 75 69 161q20 89 20 195v5v3l-3 375l66 -35h244l-2 180l86 -11q15 -2 15 -12q0 -7 -12 -12l-22 -8v-46h179l49 56l82 -63v-19h-310v-65h297l36 42l82 -61q10 -7 10 -17q0 -17 -27 -13l-28 4l-85 -61l-12 5l34 76h-615l-1 -294q0 -159 -42 -254q-31 -69 -99 -143
zM530 124q25 28 29 62q1 8 1 31q-178 -95 -392 -146l-4 14q25 10 103 40q151 59 286 158q-4 16 -10 29q-19 -11 -29 -16q-85 -47 -162 -77q-52 -20 -141 -47l-17 -5l-5 16q180 67 328 178q-9 16 -21 28q-121 -66 -271 -121l-5 16q10 5 61 30q52 25 130 79q41 28 74 57h-253
l-9 27h581l43 51l78 -59v-19h-312q28 -84 83 -150q82 69 129 119l61 -43q8 -6 8 -13q0 -4 -5 -7t-10 -2h-2l-21 1l-78 -39q-34 -18 -66 -33q83 -84 238 -149l-6 -13q-26 0 -40 -11q-9 -7 -26 -27q-104 58 -177 144q-72 85 -111 223q-18 -11 -42 -27q-17 -11 -32 -21
q49 -43 69 -76q31 -49 31 -134q0 -87 -54 -121q-29 -18 -59 -18q-8 0 -10 5q-2 2 -5 26q-2 7 -18 11l-54 13v16h114zM249 601l-10 26l199 20v89l81 -9q17 -2 17 -12q0 -7 -14 -13l-18 -7v-42l123 13l35 57l85 -55l1 -16l-244 -25v-35q0 -9 15 -11q18 -3 93 -3q134 0 162 5
q24 4 31 28l14 43h16l-3 -40v-2q-4 -19 35 -31q-11 -25 -23 -35q-21 -18 -66 -18h-279q-30 0 -44 8q-17 11 -17 44v41z" />
  </g>

</svg>
