<?xml version="1.0" standalone="no"?>
<!DOCTYPE svg PUBLIC "-//W3C//DTD SVG 1.1//EN" "http://www.w3.org/Graphics/SVG/1.1/DTD/svg11.dtd" >
<svg xmlns="http://www.w3.org/2000/svg" xmlns:xlink="http://www.w3.org/1999/xlink" version="1.1" viewBox="0 -200 1000 1000">
  <g transform="matrix(1 0 0 -1 0 800)">
   <path fill="currentColor"
d="M811 773q14 35 24.5 64t15.5 52l64 -63q-6 -3 -9.5 -5t-6.5 -6.5t-8 -13.5l-15 -27q-9 -17 -23 -40.5t-29 -48.5t-30 -48.5t-27 -41.5h72l45 48l65 -70h-192q-23 -34 -46 -67.5t-49 -65.5h143l31 44l52 -50l-25 -37v-397q-8 -11 -22 -21t-28 -10v107h-211v-81
q-10 -10 -24 -18t-28 -8v354q-39 -34 -70.5 -58t-73.5 -44l-7 17q13 10 22.5 18t18.5 16t19 17t25 22q21 21 37 40.5t29 36.5v82l59 -30q22 26 43.5 58.5t50.5 74.5h-180l-58 -14l-17 36h190v165h-64l-47 -13l-18 35h129v185l69 -31l-20 -65v-89h34l39 46zM602 100h211v145
h-211v-145zM602 268h211v147h-169l-42 -46v-101zM687 595h29q24 43 46 84.5t43 80.5h-118v-165zM52 127q29 23 61.5 57t62.5 75t55 88t39 96q0 9 -1 26t-2.5 37t-3.5 40t-5 34q-11 -33 -31.5 -67.5t-46.5 -65.5t-55 -56.5t-57 -40.5l-4 14q24 24 49.5 58.5t48.5 74t42 82
t31 82.5q-5 23 -11.5 36.5t-13.5 24.5q-15 -28 -50.5 -71t-92.5 -80l-6 13q57 69 92.5 137t55.5 140h-91l-54 -12l-19 36h302l48 46l67 -70h-187q-8 -20 -14 -34.5t-11.5 -27.5t-11.5 -25.5t-13 -27.5q23 -30 46.5 -79.5t39.5 -122.5q12 15 28 37.5t31 45t27.5 42t17.5 28.5
l35 -79l-34 -18q-12 -7 -24 -17t-24 -20.5t-25 -21t-28 -18.5q2 -24 5.5 -42t5.5 -32q55 -35 85.5 -57.5t41.5 -50.5q3 -9 3 -23q0 -17 -5.5 -32.5t-18.5 -15.5q-4 0 -10 3q-6 17 -17 38t-24.5 42t-28 40.5t-27.5 32.5q6 -80 6 -156q0 -75 -8 -136t-28 -99q-4 -8 -12.5 -18
t-20.5 -20t-26.5 -17.5t-30.5 -9.5q0 16 -7 28.5t-19 22.5t-28 19t-33 19l2 17q66 -29 87 -29q12 0 20.5 5.5t16.5 16.5q6 8 12 22t11 37.5t8 58.5t3 85v34t-1 37q-32 -72 -91 -131.5t-127 -99.5z" />
  </g>

</svg>
