<?xml version="1.0" standalone="no"?>
<!DOCTYPE svg PUBLIC "-//W3C//DTD SVG 1.1//EN" "http://www.w3.org/Graphics/SVG/1.1/DTD/svg11.dtd" >
<svg xmlns="http://www.w3.org/2000/svg" xmlns:xlink="http://www.w3.org/1999/xlink" version="1.1" viewBox="0 -120 1000 1000">
  <g transform="matrix(1 0 0 -1 0 880)">
   <path fill="currentColor"
d="M61 184l29 19q103 67 168.5 125.5t125.5 137.5q-5 15 -20 49q-86 -81 -151.5 -124.5t-154.5 -77.5l-6 16q99 56 158 109t118 138q-12 16 -26 30q-126 -83 -248 -125l-9 18q107 52 189 118q135 110 189 186l68 -43q8 -5 8 -13q0 -7 -4.5 -8t-26.5 -1q-71 -64 -144 -116
q70 -73 99 -130q44 -88 44 -203q0 -159 -75 -215q-34 -24 -76 -24q-13 0 -16.5 4t-5.5 23q-1 13 -6 18t-19 8l-56 12v21h145q47 56 47 188q0 32 -6 59q-88 -78 -155.5 -122t-174.5 -94zM585 765h248l29 46l76 -53q10 -7 10 -16q0 -7 -4.5 -10.5t-24.5 -12.5v-224
q0 -153 -16 -244.5t-53 -145.5q-35 -54 -110 -54q-8 0 -11 4.5t-11 28.5q-4 14 -11.5 19.5t-26.5 7.5l-57 6v23h159q33 37 48 88q21 75 21 214v295h-278l-16 -34q-43 -84 -65.5 -118.5t-49.5 -56.5l-13 9q53 104 84 193t60 218l90 -34q13 -5 13 -12t-6 -10.5t-35 -13.5z
M731 544l72 -54v-22h-281l-11 28h181zM350 955l63 -44q5 -3 10 -9.5t5 -10.5q0 -10 -14 -10q-7 0 -31 4q-60 -31 -124 -61q45 -21 63.5 -40t18.5 -45q0 -16 -9.5 -27t-22.5 -11q-11 0 -18 9t-15 33q-10 29 -18 41.5t-26 28.5q-79 -32 -174 -57l-8 16q101 47 164 85.5
t136 97.5zM100 731l7 17q60 -16 85 -32q39 -24 39 -62q0 -35 -24 -35q-12 0 -20 9t-27 42q-12 22 -23 33t-37 28z" />
  </g>

</svg>
