<?xml version="1.0" standalone="no"?>
<!DOCTYPE svg PUBLIC "-//W3C//DTD SVG 1.1//EN" "http://www.w3.org/Graphics/SVG/1.1/DTD/svg11.dtd" >
<svg xmlns="http://www.w3.org/2000/svg" xmlns:xlink="http://www.w3.org/1999/xlink" version="1.1" viewBox="0 -410 2048 2048">
  <g transform="matrix(1 0 0 -1 0 1638)">
   <path fill="currentColor"
d="M1456 948l108 -24q85 -19 85 -46q0 -25 -50 -42l-41 -13v-159h139l99 101l121 -107q16 -13 16 -25q0 -27 -27 -27h-348v-306q0 -44 22 -56q27 -16 132 -16q85 0 114 21q29 22 42 118q15 107 21 152l34 -7l-6 -184q0 -25 6 -42q5 -15 46 -52q13 -12 13 -29q0 -70 -267 -70
q-149 0 -192 19q-59 25 -59 111v523q0 113 -8 160zM936 929l107 -24q86 -19 86 -45q0 -25 -50 -42l-41 -13v-141h150l99 101l120 -107q17 -14 17 -25q0 -27 -26 -27h-360v-317q189 50 346 127l14 -38q-102 -75 -167 -112q-20 -11 -111 -57q-30 -16 -63 -33q-5 -21 -7 -32
q-8 -38 -24 -38t-33 32l-65 121l16 4v507q0 115 -8 159zM582 1380q-33 13 -42 34q-2 5 -14 48q-30 104 -141 198q-118 -51 -259 -85l-9 33q316 111 514 348l99 -63q33 -21 33 -37q0 -23 -41 -23h-7l-45 5q-133 -107 -246 -160q73 -48 113 -80q95 -79 95 -153q0 -5 -1 -16
q76 85 132 189l94 -48q40 -21 40 -42q0 -28 -50 -28h-37q-132 -158 -274 -248q231 -286 231 -697q0 -268 -79 -381q-58 -83 -200 -104q0 69 -44 94q-49 27 -124 44l10 38q172 -42 204 -42q87 0 112 97q28 108 28 251q0 119 -12 200q-226 -300 -550 -437l-20 35
q159 87 315 239q85 83 140 161q16 23 89 138q-18 72 -42 138q-199 -228 -496 -362l-19 29q310 189 471 436q-31 62 -52 101q-154 -85 -396 -156l-10 40q277 97 472 252zM192 1550q189 -128 189 -217q0 -63 -53 -63q-35 0 -47 51q-23 104 -109 204zM1343 1352
q-125 87 -235 138l13 33q162 -58 277 -112q71 92 126 208l104 -48q41 -19 41 -39q0 -27 -55 -27h-33q-47 -66 -108 -135q160 -94 160 -167q0 -33 -26 -50q-10 -7 -22 -7q-34 0 -91 70q-34 41 -88 88q-134 -117 -308 -179l-15 36q181 114 260 191zM1715 1707l68 76l83 -54
q40 -26 40 -48q0 -28 -77 -62v-332q0 -99 13 -219q3 -32 3 -50q0 -46 -55 -46q-56 0 -56 42v12h-710v-12q0 -43 -57 -43q-54 0 -54 47q0 14 4 49q11 95 11 198v508l118 -66h133q56 139 85 248l98 -29q64 -18 64 -37q0 -24 -43 -32l-43 -9q-27 -40 -41 -60q-34 -51 -63 -81
h479zM1024 1084h710v569h-710v-569z" />
  </g>

</svg>
