<?xml version="1.0" standalone="no"?>
<!DOCTYPE svg PUBLIC "-//W3C//DTD SVG 1.1//EN" "http://www.w3.org/Graphics/SVG/1.1/DTD/svg11.dtd" >
<svg xmlns="http://www.w3.org/2000/svg" xmlns:xlink="http://www.w3.org/1999/xlink" version="1.1" viewBox="0 -140 1000 1000">
  <g transform="matrix(1 0 0 -1 0 860)">
   <path fill="currentColor"
d="M69 40l-10 8q64 90 104 221l81 -43l-6 -13h-23q-42 -69 -71 -103t-75 -70zM98 919l71 -32h134l32 34h16l57 -45v-11l-27 -19l-5 -573l-46 -14l-13 7v33h-155q0 -14 -4 -26l-54 -16l-6 8v654zM162 321h155v193h-155v-193zM162 536h155v154h-155v-154zM162 712h155v153
h-155v-153zM248 248l8 9q29 -16 60.5 -42t42.5 -41q16 -22 16 -50q0 -14 -8.5 -29.5t-19.5 -15.5q-11 1 -25 34q-32 81 -74 135zM534 893h296l36 40h15l60 -47v-15h-409v-226h276l32 37h15l58 -56v-15l-31 -10q-28 -120 -53.5 -186.5t-73.5 -141.5q82 -97 190 -173l-4 -13
q-3 1 -13 1q-22 0 -50 -39q-45 36 -71.5 64t-92.5 110q-69 -70 -129 -109.5t-153 -74.5l-7 11q90 48 146.5 97.5t111.5 125.5q-45 84 -67 155.5t-39 193.5h-45q0 -210 -39 -342.5t-131 -237.5l-12 8q70 118 94 231t24 330v310zM814 622h-213q27 -109 52.5 -176.5
t63.5 -118.5q65 116 97 295z" />
  </g>

</svg>
