<?xml version="1.0" standalone="no"?>
<!DOCTYPE svg PUBLIC "-//W3C//DTD SVG 1.1//EN" "http://www.w3.org/Graphics/SVG/1.1/DTD/svg11.dtd" >
<svg xmlns="http://www.w3.org/2000/svg" xmlns:xlink="http://www.w3.org/1999/xlink" version="1.1" viewBox="0 -140 1000 1000">
  <g transform="matrix(1 0 0 -1 0 860)">
   <path fill="currentColor"
d="M311 575h397l29 33h16l60 -40v-15l-26 -16v-316l-12 -11l-43 -13l-9 4v24h-416v-16l-7 -8l-47 -14l-10 9v406zM307 332v-85h416v85h-416zM307 443v-89h416v89h-416zM307 553v-88h416v88h-416zM67 42l-5 13q97 33 159.5 67.5t137.5 95.5l77 -53l-8 -13h-40
q-84 -45 -148.5 -67t-172.5 -43zM140 869l68 -24q120 37 211 90l65 -59l-10 -11l-39 4q-113 -32 -231 -47v-150q123 30 178 44q-25 35 -66 74l8 10q59 -22 102.5 -61t43.5 -71q0 -17 -9.5 -32t-19.5 -15q-15 0 -34 45q-3 10 -16 30l-265 -105l-8 -31l-14 -2l-42 85l78 16
v210zM479 589l-9 10q67 53 100.5 111t49.5 146l-118 1v22h339l28 33h15l57 -51l-3 -14l-27 -10q-22 -115 -50.5 -158.5t-100.5 -60.5l-14 5l-5 29l-88 35l3 13l73 -7q27 0 40 3t30 17t27.5 49t19.5 94l-157 1q-24 -102 -69.5 -160t-140.5 -108zM633 185l8 13
q141 -25 203 -52t62 -74q0 -29 -24 -29q-14 0 -40 26q-60 60 -209 116z" />
  </g>

</svg>
