<?xml version="1.0" standalone="no"?>
<!DOCTYPE svg PUBLIC "-//W3C//DTD SVG 1.1//EN" "http://www.w3.org/Graphics/SVG/1.1/DTD/svg11.dtd" >
<svg xmlns="http://www.w3.org/2000/svg" xmlns:xlink="http://www.w3.org/1999/xlink" version="1.1" viewBox="0 -140 1000 1000">
  <g transform="matrix(1 0 0 -1 0 860)">
   <path fill="currentColor"
d="M705 225l-7 -13l-30 2q-98 -102 -235 -164l-9 15q118 67 211 217zM739 264l11 13q14 -10 47 -28q75 -44 102 -71t27 -63q0 -19 -10.5 -33t-24.5 -14q-20 0 -33 37q-15 44 -39 76.5t-80 82.5zM307 265l10 12q92 -56 117.5 -78t25.5 -55q0 -18 -8.5 -31.5t-20.5 -13.5
q-19 0 -26 16q-23 56 -41.5 84t-56.5 66zM289 233l-6 -14l-29 -4q-91 -111 -197 -165l-8 14q85 64 166 219zM612 868h179l32 36h13l66 -48v-13l-38 -31v-510l-6 -13l-45 -11l-13 7v34h-190v-27l-7 -10l-42 -10l-10 7l-1 630zM800 846h-190v-157h190v157zM800 667h-190v-150
h190v150zM800 494h-190v-152h190v152zM194 868h169l31 36h14l61 -48v-13l-37 -31l1 -513l-7 -10l-42 -11l-12 7v34h-180v-27l-15 -12l-38 -8l-11 7v630zM372 846h-180v-157h180v157zM372 667h-180v-150h180v150zM372 494h-180v-152h180v152z" />
  </g>

</svg>
