<?xml version="1.0" standalone="no"?>
<!DOCTYPE svg PUBLIC "-//W3C//DTD SVG 1.1//EN" "http://www.w3.org/Graphics/SVG/1.1/DTD/svg11.dtd" >
<svg xmlns="http://www.w3.org/2000/svg" xmlns:xlink="http://www.w3.org/1999/xlink" version="1.1" viewBox="0 -140 1000 1000">
  <g transform="matrix(1 0 0 -1 0 860)">
   <path fill="currentColor"
d="M135 833h18l6 -38h168q-6 6 -24 39q-16 36 -61 72l7 11q63 -21 93.5 -40.5t30.5 -49.5q0 -15 -10 -32h106v132l97 -17v-11l-32 -15v-89h93q37 77 61 130l82 -47l-4 -13l-33 -4l-75 -66h180l32 38h19l60 -60l-6 -14l-33 -5l-92 -101l-14 6l42 114h-687q1 -7 1 -22
q0 -53 -21.5 -100.5t-45.5 -47.5q-13 0 -22.5 15.5t-9.5 35.5q0 24 15 38q8 7 40 43q20 34 20 78q0 15 -1 20zM94 44l-5 12q107 29 165.5 55.5t129.5 77.5l67 -63l-9 -14l-38 8q-75 -32 -132.5 -46t-177.5 -30zM313 506h381l30 26h15l54 -45v-15l-27 -20v-260l-8 -12l-44 -9
l-12 3v18h-396v-26l-9 -11l-47 -13l-8 8v382zM702 214v77h-396v-77h396zM702 313v71h-396v-71h396zM702 406v78h-396v-78h396zM726 709v-13l-24 -21v-110l-7 -9l-48 -9l-9 6v27h-274v-27l-9 -9l-44 -11l-11 5v210l64 -33h264l33 33h15zM364 602h274v91h-274v-91zM596 160
l3 15q79 -4 209 -31q35 -7 57.5 -27.5t22.5 -45.5q0 -27 -23 -27q-19 0 -49 24q-52 42 -220 92z" />
  </g>

</svg>
