<?xml version="1.0" standalone="no"?>
<!DOCTYPE svg PUBLIC "-//W3C//DTD SVG 1.1//EN" "http://www.w3.org/Graphics/SVG/1.1/DTD/svg11.dtd" >
<svg xmlns="http://www.w3.org/2000/svg" xmlns:xlink="http://www.w3.org/1999/xlink" version="1.1" viewBox="0 -204 1024 1024">
  <g transform="matrix(1 0 0 -1 0 820)">
   <path fill="currentColor"
d="M68 954l60 -44h164l32 44q34 -24 52 -43q8 -7 8 -13q0 -11 -38 -32v-420q0 -76 3 -98q1 -30 1 -46t-9 -24q-13 -4 -23 -4q-20 0 -20 10v22h-129q31 -17 51 -31q6 -3 6 -9t-10 -10q-14 -6 -30 -8q-12 -28 -25 -58q-18 -31 -34 -55q-16 -27 -40 -54q-19 -23 -45 -49l-10 14
q25 36 45 70q18 33 35 70q16 38 25 69q8 26 14 51h-31v-30q0 -10 -22 -10q-8 0 -20 5q-10 7 -10 21q0 19 2 49q6 21 6 97v446q0 39 -8 70zM120 332h178v164h-178v-164zM120 526h178v156h-178v-156zM120 708h178v172h-178v-172zM262 266q40 -31 64 -62q19 -24 29 -50
q9 -15 9 -34q0 -30 -24 -30q-6 0 -11 5q-4 5 -11 22q-13 44 -25 72q-15 30 -41 59zM844 830l32 50l69 -46q5 -4 5 -8q0 -13 -12 -16l-321 -31q20 -50 45 -83q11 -18 23 -31q4 3 8 5q38 28 61 49q19 24 32 45q47 -17 69 -30q11 -5 11 -18q0 -14 -44 -14q-40 -36 -81 -59
q-9 -7 -17 -11q3 -3 6 -5q39 -25 98 -48q30 -9 48 -9q8 0 14 7q6 13 46 105l14 -10q-12 -75 -12 -80q0 -17 11 -26q19 -15 19 -30q0 -22 -54 -22q-35 0 -95 18q-55 15 -104 50q-21 15 -35 30q-12 -6 -23 -10q-51 -22 -120 -41q-68 -22 -147 -31l-14 10q83 21 143 42
q55 23 95 42q20 9 35 20q-9 11 -15 19q-32 42 -56 101q-4 7 -5 11l-136 -14l-43 -9l-26 36l68 6l126 11q-11 34 -16 64q-11 49 -20 91q106 -10 106 -22q0 -14 -48 -28q7 -57 21 -99zM680 950q46 -17 75 -34q23 -11 36 -26q9 -9 9 -18q0 -32 -22 -32q-7 0 -12 3t-12 16
q-18 23 -34 40q-21 16 -52 33zM860 414l32 50l70 -46q6 -4 6 -10q0 -11 -14 -14l-343 -28q5 -16 12 -32q17 -63 46 -105q8 -13 15 -26q10 7 21 16q46 36 69 65q26 32 40 62q45 -19 71 -32q11 -5 11 -16q0 -18 -44 -18q-48 -48 -96 -85q-22 -13 -41 -25q11 -13 21 -21
q39 -31 99 -55q27 -14 45 -14q9 0 15 13q6 14 47 125l16 -10q-16 -99 -16 -104q0 -16 11 -28q19 -13 19 -26q0 -26 -52 -26q-36 0 -96 24q-56 16 -102 56q-26 19 -45 43q-10 -4 -21 -9q-59 -32 -143 -61q-80 -28 -171 -45l-14 14q98 24 171 56q63 28 111 54q22 14 39 25
q-5 7 -9 13q-31 47 -55 115q-11 28 -18 54l-125 -9l-44 -8l-26 34l70 7l117 8q-4 15 -5 31q-11 57 -18 104q104 -12 104 -26q0 -12 -48 -26q4 -45 11 -80zM682 526q45 -14 72 -30q21 -10 32 -22q10 -10 10 -18q0 -30 -22 -30q-6 0 -11 3q-5 2 -11 12q-17 22 -32 37
q-19 14 -48 30z" />
  </g>

</svg>
