<?xml version="1.0" standalone="no"?>
<!DOCTYPE svg PUBLIC "-//W3C//DTD SVG 1.1//EN" "http://www.w3.org/Graphics/SVG/1.1/DTD/svg11.dtd" >
<svg xmlns="http://www.w3.org/2000/svg" xmlns:xlink="http://www.w3.org/1999/xlink" version="1.1" viewBox="0 -410 2048 2048">
  <g transform="matrix(1 0 0 -1 0 1638)">
   <path fill="currentColor"
d="M335 623l98 -46q49 -23 49 -43q0 -21 -41 -27l-38 -5q-161 -317 -319 -447l-26 26q86 114 162 263q79 154 106 279h-56v-20q0 -54 -57 -54q-54 0 -54 45q0 17 4 50q12 92 12 209v770q0 86 -12 256l116 -87h309l68 76l84 -54q40 -26 40 -48q0 -28 -77 -62v-842
q0 -96 12 -218q4 -32 4 -51q0 -45 -51 -45q-60 0 -60 39v36h-273zM270 1457h338v277h-338v-277zM270 1071h338v327h-338v-327zM270 681h338v335h-338v-335zM554 559q203 -154 203 -257q0 -30 -21 -50q-14 -13 -32 -13q-40 0 -52 59q-25 120 -120 236zM1643 565l61 72l73 -50
q41 -27 41 -49q0 -17 -65 -53v-232q21 -16 32 -24q35 -21 35 -41q0 -23 -43 -23h-694v-5q0 -39 -55 -39q-39 0 -39 28v482l108 -66h546zM1083 221h574v288h-574v-288zM1053 1262h607l61 73l72 -50q43 -29 43 -49q0 -15 -66 -52v-375q0 -79 -61 -79q-35 0 -35 19v8h-669
q-35 -220 -94 -364q-61 -151 -163 -260l-28 23q213 319 213 989q0 122 -7 204zM1025 989q-7 -88 -14 -174h663v174h-649zM1031 1205l-4 -158h647v158h-643zM1399 1474l80 81l114 -86q18 -13 18 -26q0 -26 -28 -26h-285q-64 0 -149 -11l-39 86q127 -18 188 -18h101z
M1298 1949l138 -30q36 -8 36 -28q0 -24 -40 -33l-38 -9q277 -351 592 -405v-39q-101 -1 -123 -64q-198 97 -337 257q-93 107 -170 229q-225 -355 -581 -495l-17 33q386 218 540 584z" />
  </g>

</svg>
