<?xml version="1.0" standalone="no"?>
<!DOCTYPE svg PUBLIC "-//W3C//DTD SVG 1.1//EN" "http://www.w3.org/Graphics/SVG/1.1/DTD/svg11.dtd" >
<svg xmlns="http://www.w3.org/2000/svg" xmlns:xlink="http://www.w3.org/1999/xlink" version="1.1" viewBox="0 -120 1000 1000">
  <g transform="matrix(1 0 0 -1 0 880)">
   <path fill="currentColor"
d="M33 67q95 105 134 218l60 -42q7 -5 7 -12q0 -10 -14 -10h-20q-59 -85 -154 -166zM95 263v658l58 -36h121l19 34l60 -35q11 -6 11 -14t-11 -11l-14 -4v-562l-58 -13v31h-130v-36zM151 509v-171h130v171h-130zM151 684v-147h130v147h-130zM151 857v-145h130v145h-130z
M251 283q50 -27 83 -59q53 -54 53 -90q0 -16 -11 -26q-8 -8 -20 -8q-19 0 -28 25q-34 98 -87 146zM394 334l-17 28h345v88l72 -10q12 -2 12 -12q0 -7 -8 -11l-12 -6v-49h55l39 51l79 -62v-17h-173v-188q0 -42 -30 -59q-32 -17 -54 -17q-6 0 -8 4q0 1 -6 22q-1 3 -5 7
q-13 9 -27 12l-57 14v17h123v188h-328zM386 797l-16 27h249v137l69 -10q15 -2 15 -14q0 -9 -15 -15l-11 -5v-93h148l45 50l88 -60v-17h-281v-60h128l20 28l67 -36q10 -5 10 -11q0 -7 -12 -12l-17 -6v-253l-58 -10v95h-138v-103l-58 -9v112h-137v-112l-54 -9v354l61 -28h130
v60h-233zM482 621v-62h137v62h-137zM482 649h137v61h-137v-61zM677 621v-62h138v62h-138zM677 710v-61h138v61h-138zM461 307q46 -19 71 -38q47 -37 47 -71q0 -14 -11 -24q-7 -7 -17 -7q-11 0 -18 7t-38 71q-11 23 -42 50zM736 940q51 -8 79 -29q21 -16 21 -36q0 -11 -9 -19
q-6 -6 -14 -6q-15 0 -27 17l-28 35q-5 7 -27 24z" />
  </g>

</svg>
