<?xml version="1.0" standalone="no"?>
<!DOCTYPE svg PUBLIC "-//W3C//DTD SVG 1.1//EN" "http://www.w3.org/Graphics/SVG/1.1/DTD/svg11.dtd" >
<svg xmlns="http://www.w3.org/2000/svg" xmlns:xlink="http://www.w3.org/1999/xlink" version="1.1" viewBox="0 -140 1000 1000">
  <g transform="matrix(1 0 0 -1 0 860)">
   <path fill="currentColor"
d="M736 919v-13l-32 -17v-42h114l37 44h13l56 -50v-17h-220v-77h87l30 38h17l51 -43v-18h-185v-91h150l31 41h14l53 -46v-17h-527v22h215v91h-167v23h167v77h-200v23h200v86zM320 870l37 43h15l53 -51v-15h-107v-185h23l28 33h13l45 -39v-13l-20 -19v-242l-3 -10l-46 -13
l-12 7l1 41h-29v-203h46l40 47h20l51 -54l-1 -15h-346v-66l-8 -10l-48 -12l-8 12v799l68 -35h188zM128 847v-643h130v255l60 -29h29v209h-29v-19l-9 -7l-39 -11l-11 5l-1 240h-130zM162 685l84 -14v-13l-24 -16v-259l-6 -11l-43 -13l-11 8v318zM558 545h222l23 32h15l60 -43
v-14l-25 -23v-266l-10 -13l-44 -14l-10 8v42h-236v-30l-8 -14l-46 -15l-10 8v370zM789 522h-236v-68h236v68zM789 432h-236v-67h236v67zM789 342h-236v-65h236v65zM664 170l-9 -11l-33 1q-51 -39 -105.5 -61t-159.5 -46l-5 12q94 37 144.5 69.5t102.5 89.5zM722 190l6 10
q132 -34 180 -59q46 -24 46 -60q0 -34 -20 -34q-6 0 -22 14q-68 62 -190 129z" />
  </g>

</svg>
