<?xml version="1.0" standalone="no"?>
<!DOCTYPE svg PUBLIC "-//W3C//DTD SVG 1.1//EN" "http://www.w3.org/Graphics/SVG/1.1/DTD/svg11.dtd" >
<svg xmlns="http://www.w3.org/2000/svg" xmlns:xlink="http://www.w3.org/1999/xlink" version="1.1" viewBox="0 -120 1000 1000">
  <g transform="matrix(1 0 0 -1 0 880)">
   <path fill="currentColor"
d="M46 91q78 89 111 191l60 -38q7 -4 7 -11q0 -10 -14 -10h-16q-59 -86 -134 -144zM93 274v668l66 -43h110l21 33l66 -40q12 -7 12 -17t-12 -11l-19 -3v-551l-60 -14v27h-127v-34zM150 519v-168h127v168h-127zM150 696v-149h127v149h-127zM150 871v-148h127v148h-127z
M236 296q39 -16 77 -47q50 -42 50 -77q0 -16 -11 -27q-8 -8 -19 -8q-13 0 -20 9q-2 4 -23 52q-24 52 -63 86zM332 86l-15 27h97v279l69 -28h300l26 35l62 -40q10 -7 10 -14q0 -8 -12 -11l-20 -6v-215h3l40 57l60 -66v-18h-620zM464 337v-224h77v224h-77zM589 337v-224h74
v224h-74zM713 337v-224h85v224h-85zM459 537q1 -15 1 -22q0 -48 -21 -82t-54 -34q-29 0 -29 28q0 13 9 21q3 3 45 32q18 11 33 57h16zM373 758l-16 28h233v73h-165l-17 27h182v79l57 -7q26 -3 30 -7q2 -3 2 -7q0 -10 -20 -16l-12 -4v-38h118l23 35l56 -35q17 -10 17 -17
t-9 -10l-19 -5v-68h23l34 46l68 -58v-16h-125v-129l-56 -15v45h-130v-74h172l39 47l82 -55v-20h-556l-11 28h217v74h-162l-14 27h176v72h-217zM647 758v-72h130v72h-130zM647 859v-73h130v73h-130zM532 540q15 -9 29 -24q36 -41 36 -76q0 -20 -11 -32q-7 -7 -17 -7
q-16 0 -23 13q-5 8 -5 46q-1 41 -20 70zM650 542q42 -19 69 -43q38 -35 38 -66q0 -33 -31 -33q-12 0 -17 10q-2 3 -22 56q-16 39 -48 62zM783 537q50 -13 98 -49q49 -36 49 -66q0 -28 -27 -28q-19 0 -35 27q-30 49 -55 75q-14 14 -39 28z" />
  </g>

</svg>
