<?xml version="1.0" standalone="no"?>
<!DOCTYPE svg PUBLIC "-//W3C//DTD SVG 1.1//EN" "http://www.w3.org/Graphics/SVG/1.1/DTD/svg11.dtd" >
<svg xmlns="http://www.w3.org/2000/svg" xmlns:xlink="http://www.w3.org/1999/xlink" version="1.1" viewBox="0 -120 1000 1000">
  <g transform="matrix(1 0 0 -1 0 880)">
   <path fill="currentColor"
d="M38 222q19 65 27 113q10 61 14 167l74 -11q11 -2 11 -8t-8 -10l-15 -7q-21 -95 -39 -146q-16 -43 -48 -103zM50 573l-10 25h181v148h-145l-9 26h154v159l81 -6q16 -2 16 -14q0 -8 -12 -14l-20 -8v-117h52l42 52l78 -59v-19h-172v-148h67l45 52l66 -53q38 72 63 145
q26 77 52 189l83 -16q13 -3 13 -10q0 -9 -12 -14l-20 -7q-17 -40 -35 -85h101l26 36l78 -50q10 -7 10 -12q0 -7 -15 -9l-25 -5l-107 -135h136l26 45l67 -46q13 -9 13 -16q0 -9 -14 -13l-17 -5v-234l-62 -12v47h-274l-1 -231q0 -12 8 -17q9 -6 36 -6h217q30 0 43 7
q17 10 27 44l34 112h15l-6 -117l-1 -3q-5 -26 32 -42q-9 -37 -29 -46q-17 -7 -64 -9q-46 -2 -181 -2q-150 0 -170 9q-24 11 -24 46l2 450l-59 -76l-15 11q18 27 34 53h-87v-456q0 -31 -23 -43q-32 -17 -49 -17q-14 0 -14 19q0 14 -4 17q-4 4 -15 7l-49 15l1 13h90v445h-61
v-171q0 -109 -21 -173q-29 -91 -156 -178l-8 15q64 55 89 109q34 72 34 192l-1 206h-125zM596 773q-38 -75 -70 -131l27 -18h98q36 80 62 149h-117zM551 598v-183l100 1l-1 182h-99zM712 416h113v182h-112zM393 500q76 -104 76 -170q0 -23 -14 -35q-9 -8 -19 -8q-8 0 -15 6
q-13 11 -12 69q1 47 -29 130z" />
  </g>

</svg>
