<?xml version="1.0" standalone="no"?>
<!DOCTYPE svg PUBLIC "-//W3C//DTD SVG 1.1//EN" "http://www.w3.org/Graphics/SVG/1.1/DTD/svg11.dtd" >
<svg xmlns="http://www.w3.org/2000/svg" xmlns:xlink="http://www.w3.org/1999/xlink" version="1.1" viewBox="0 -410 2048 2048">
  <g transform="matrix(1 0 0 -1 0 1638)">
   <path fill="currentColor"
d="M1738 1497l68 77l84 -54q40 -26 40 -49q0 -28 -78 -62q-2 -57 -4 -185q-4 -248 -35 -504q-25 -203 -86 -265q-58 -59 -166 -77q1 61 -61 88q-49 22 -170 58l8 46q173 -53 241 -53q84 0 111 91q45 149 65 742l2 91h-306q-21 -303 -47 -405q-63 -240 -230 -427
q-83 -91 -259 -220l-24 31q242 209 352 436q70 145 92 321q14 114 21 264h-55q-119 0 -191 -8l-35 87q118 -23 226 -23h55v273q-6 142 -9 157l109 -24q86 -19 86 -45q0 -29 -50 -42l-41 -11v-308h287zM514 1594v183q0 116 -8 160l109 -24q86 -19 86 -46q0 -28 -49 -41
l-41 -12v-220h143l96 103l120 -107q18 -15 18 -26q0 -26 -27 -26h-350v-318h213l99 101l120 -107q17 -14 17 -25q0 -25 -29 -25h-439v-322h168l99 101l120 -107q17 -15 17 -26q0 -27 -26 -27h-378v-391q132 -82 345 -117q186 -30 502 -30q72 0 285 12q129 7 278 23v-38
q-82 -13 -102 -87q-174 -8 -306 -8q-494 0 -721 47q-272 56 -407 205q-77 85 -187 294q-44 -218 -86 -333q-38 -105 -104 -228l-36 23q140 340 152 853l114 -27q65 -15 65 -38q0 -18 -41 -30l-34 -10q-12 -89 -15 -120q81 -166 202 -318v699h-202q-108 0 -192 -8l-34 87
q105 -23 226 -23h220v318h-148q-118 0 -192 -8l-35 87q108 -23 227 -23h148z" />
  </g>

</svg>
