<?xml version="1.0" standalone="no"?>
<!DOCTYPE svg PUBLIC "-//W3C//DTD SVG 1.1//EN" "http://www.w3.org/Graphics/SVG/1.1/DTD/svg11.dtd" >
<svg xmlns="http://www.w3.org/2000/svg" xmlns:xlink="http://www.w3.org/1999/xlink" version="1.1" viewBox="0 -120 1000 1000">
  <g transform="matrix(1 0 0 -1 0 880)">
   <path fill="currentColor"
d="M449 247l-331 -142v-14q0 -10 -7 -15q-2 -2 -3 -2q-8 0 -15 11l-40 66l47 14v350l69 -12q18 -3 18 -13q0 -8 -13 -13l-16 -7v-289l67 20v432h-67v-45l-58 -18v342l69 -26h147l21 34l61 -45q9 -6 9 -13t-9 -10l-15 -5v-236l-59 -14v36h-40v-168h62l37 51l66 -61v-17h-165
v-220l157 48zM158 858v-198h166v198h-166zM362 74q146 69 271 202q-71 96 -122 257h-56l-15 27h183v173h-201l-15 28h216v199l77 -9q19 -3 19 -13t-13 -15l-23 -9v-153h136l45 56l91 -63v-21h-272v-173h111l22 30l67 -43q8 -4 8 -12q0 -10 -15 -13l-26 -3q-4 -9 -36 -69
q-57 -105 -122 -174q36 -35 131 -93q48 -28 130 -60l-2 -16q-25 -6 -36 -13q-11 -6 -26 -24q-132 68 -230 172q-47 -51 -131 -105q-75 -48 -158 -79zM534 533q27 -74 66 -139q37 -60 61 -84q37 48 75 114q34 59 53 109h-255z" />
  </g>

</svg>
