<?xml version="1.0" standalone="no"?>
<!DOCTYPE svg PUBLIC "-//W3C//DTD SVG 1.1//EN" "http://www.w3.org/Graphics/SVG/1.1/DTD/svg11.dtd" >
<svg xmlns="http://www.w3.org/2000/svg" xmlns:xlink="http://www.w3.org/1999/xlink" version="1.1" viewBox="0 -204 1024 1024">
  <g transform="matrix(1 0 0 -1 0 820)">
   <path fill="currentColor"
d="M62 924l62 -32h190l28 32q52 -29 52 -44q0 -9 -26 -26v-189q12 -8 21 -16q5 -3 5 -7q0 -18 -8 -18h-130v-194h54l40 44q34 -25 62 -46q8 -6 8 -12q0 -14 -12 -14h-152v-248q10 4 22 8q63 25 146 64l2 -22q-69 -42 -122 -65q-55 -30 -107 -49q-50 -23 -103 -36
q-9 -36 -14 -36q-8 0 -48 80l40 6v330q0 53 -4 80q44 -10 72 -18q12 -5 12 -10q0 -6 -9 -9q-11 -7 -23 -13v-351q20 5 40 11q22 8 48 15v485h-96v-36q0 -9 -14 -14q-13 -4 -22 -4q-14 0 -14 10v344zM112 654h206v212h-206v-212zM424 848q43 -12 116 -12h102v30q0 52 -2 80
q55 -7 93 -23q15 -6 15 -13q0 -9 -15 -13q-17 -11 -43 -13v-48h164l44 48q38 -23 69 -49q9 -5 9 -9q0 -16 -12 -16h-274v-102h133l-1 4l30 32q50 -31 50 -42t-26 -30v-92h4l44 44q30 -22 59 -46q7 -4 7 -8q0 -16 -10 -16h-104v-93q12 -9 21 -16q5 -3 5 -7q0 -18 -6 -18h-206
v-128h132l44 50q36 -25 69 -51q7 -5 7 -11q0 -14 -10 -14h-242v-152q18 -4 34 -6q46 -6 106 -6q85 0 160 6v-18q-25 -9 -39 -17q-12 -9 -13 -27q-70 0 -130 5q-66 6 -108 13q-33 9 -68 30q-33 18 -65 50q-33 32 -52 71q-4 10 -8 18q-15 -48 -38 -86q-25 -40 -49 -66
q-30 -29 -74 -57l-14 22q43 29 67 61q24 28 41 67q21 39 32 90q10 43 10 82q0 19 -4 34q43 -6 77 -16q11 -3 11 -10t-15 -18q-17 -9 -29 -12q-2 -31 -7 -54q5 -21 19 -39q18 -31 50 -57q27 -26 58 -40v286h-80q-69 -1 -94 -4l-22 44q43 -12 116 -12h80v106h-124
q-69 -3 -94 -6l-22 44q44 -12 116 -12h124v102h-72q-78 0 -96 -6l-14 40q39 -8 110 -8h72v102h-102q-71 -3 -98 -6zM690 448h132l4 4v102h-136v-106zM826 580v102h-136v-102h136z" />
  </g>

</svg>
