<?xml version="1.0" standalone="no"?>
<!DOCTYPE svg PUBLIC "-//W3C//DTD SVG 1.1//EN" "http://www.w3.org/Graphics/SVG/1.1/DTD/svg11.dtd" >
<svg xmlns="http://www.w3.org/2000/svg" xmlns:xlink="http://www.w3.org/1999/xlink" version="1.1" viewBox="0 -410 2048 2048">
  <g transform="matrix(1 0 0 -1 0 1638)">
   <path fill="currentColor"
d="M1713 1286l61 72l72 -50q43 -29 43 -49q0 -16 -67 -53v-534q0 -83 -46 -127q-33 -33 -116 -53q1 13 1 18q0 50 -37 72q-24 13 -98 28l4 38q97 -15 136 -15q61 0 61 61v539h-227v-921q0 -66 64 -84q48 -13 121 -13q96 0 133 19q39 19 44 78l17 222h39l5 -158q1 -49 19 -75
q4 -6 41 -29q18 -11 18 -30q0 -105 -322 -105q-127 0 -186 21q-87 30 -87 127v936q0 85 -16 145l129 -80h194zM1222 1978q21 -16 83 -65q114 -88 114 -161q0 -38 -24 -62h396l55 70l90 -65q41 -29 41 -44q0 -28 -98 -49q-81 -126 -167 -208l-27 22q48 79 106 218h-841
q-24 -288 -137 -288q-42 0 -42 39q0 21 44 74q74 88 99 357h36v-56v-70h382q-24 89 -57 147q-24 43 -80 114zM1028 1495l124 -29q46 -10 46 -31q0 -14 -12 -22q-7 -5 -68 -28q-7 -27 -10 -40q-21 -86 -40 -140h154l58 72l69 -48q40 -27 40 -41q0 -15 -61 -59
q-77 -395 -208 -624q-145 -257 -388 -432l-26 27q144 142 217 242q115 156 185 335q-35 1 -48 11q-12 9 -30 65q-19 58 -100 123q-63 -99 -183 -216l-31 25q233 291 312 810zM955 917q106 -65 133 -90q30 -29 40 -88q55 143 102 413h-179q-35 -106 -96 -235zM500 382
q95 25 246 81l12 -39q-230 -129 -560 -234l-6 -30q-7 -38 -29 -38q-15 0 -30 30l-63 124q29 2 94 15v642q0 69 -8 112l119 -29q51 -12 51 -33t-32 -34l-42 -16v-622q68 16 152 41v908h-158v-48q0 -30 -52 -30q-54 0 -54 44q0 4 4 49q4 47 5 104l7 311l1 17q0 85 -8 171
l97 -72h328l56 67l72 -49q42 -29 42 -51q0 -19 -38 -39q-3 -1 -17 -9q-5 -2 -14 -7v-376l40 -30q18 -13 18 -29q0 -23 -18 -23h-215v-364h74l88 88l123 -94q16 -13 16 -25q0 -27 -25 -27h-276v-456zM246 1318h337v432h-337v-432z" />
  </g>

</svg>
