<?xml version="1.0" standalone="no"?>
<!DOCTYPE svg PUBLIC "-//W3C//DTD SVG 1.1//EN" "http://www.w3.org/Graphics/SVG/1.1/DTD/svg11.dtd" >
<svg xmlns="http://www.w3.org/2000/svg" xmlns:xlink="http://www.w3.org/1999/xlink" version="1.1" viewBox="0 -410 2048 2048">
  <g transform="matrix(1 0 0 -1 0 1638)">
   <path fill="currentColor"
d="M1190 1489q75 216 104 445l126 -29q65 -15 65 -37q0 -25 -43 -36l-54 -13q-38 -157 -97 -330h375l91 88l116 -93q17 -13 17 -26q0 -27 -27 -27h-593q-44 -117 -106 -236h593l98 101l121 -107q17 -15 17 -26q0 -26 -27 -26h-383q155 -202 406 -253v-37q-54 -2 -83 -15
q-25 -12 -37 -51q-117 64 -188 138q-73 76 -159 218h-391q-152 -258 -384 -441l-23 29q153 145 311 412h-60q-115 0 -193 -8l-35 87q100 -21 228 -21h92q60 114 103 236h-96q-119 0 -192 -8l-35 88q105 -22 227 -22h116zM1517 869l68 76l84 -54q40 -26 40 -49q0 -28 -78 -62
v-181q0 -96 -57 -133q-53 -34 -142 -47q1 12 1 19q0 65 -152 87v43q128 -21 169 -21q84 0 84 92v172h-433v-447q0 -76 32 -97q50 -34 197 -34h129h75q101 0 143 27q31 19 49 91l42 166l40 -7l-18 -125q-4 -30 -4 -46q0 -43 55 -94q10 -10 10 -23q0 -31 -44 -46
q-72 -26 -307 -26h-142q-222 0 -294 47q-56 36 -56 135v595l112 -58h397zM895 1830q99 -54 148 -91q75 -58 75 -120q0 -66 -49 -66q-31 0 -49 48q-40 108 -148 198zM1671 1820l127 -48q42 -16 42 -33q0 -29 -55 -32l-47 -3q-68 -82 -192 -181l-34 25q66 89 159 272zM500 382
q94 24 248 81l11 -39q-230 -129 -561 -234l-6 -30q-7 -38 -29 -38q-15 0 -30 30l-63 124q29 2 94 15v642q0 69 -8 112l119 -29q51 -12 51 -33t-32 -34l-42 -16v-623q68 16 152 42v908h-158v-48q0 -30 -52 -30q-54 0 -54 44q0 4 4 49q4 47 5 104l7 308l1 18q0 86 -8 173
l97 -72h350l57 67l72 -49q42 -29 42 -51q0 -19 -38 -39q-4 -2 -17 -9q-5 -2 -14 -7v-376l41 -30q17 -13 17 -28q0 -24 -17 -24h-239v-364h74l88 88l123 -94q16 -12 16 -25q0 -27 -24 -27h-277v-456zM246 1318h360v432h-360v-432z" />
  </g>

</svg>
