<?xml version="1.0" standalone="no"?>
<!DOCTYPE svg PUBLIC "-//W3C//DTD SVG 1.1//EN" "http://www.w3.org/Graphics/SVG/1.1/DTD/svg11.dtd" >
<svg xmlns="http://www.w3.org/2000/svg" xmlns:xlink="http://www.w3.org/1999/xlink" version="1.1" viewBox="0 -204 1024 1024">
  <g transform="matrix(1 0 0 -1 0 820)">
   <path fill="currentColor"
d="M72 942l58 -32h162l26 32q54 -32 54 -44t-30 -28v-208q13 -9 24 -17q6 -3 6 -9q0 -16 -8 -16h-120v-190h54l42 40q30 -23 55 -43q7 -5 7 -11q0 -14 -12 -14h-146v-241q4 2 8 3q53 23 128 58l4 -22q-59 -39 -105 -60q-50 -28 -94 -45q-42 -21 -87 -33q-10 -38 -14 -38
q-8 0 -48 80q17 3 36 6v332q0 52 -4 80q44 -8 72 -18q12 -5 12 -12q0 -4 -9 -7q-11 -7 -23 -11v-353q14 6 27 10q23 6 49 14v475h-76v-36q0 -9 -12 -13q-17 -5 -24 -5q-12 0 -12 10v366zM120 650h176v230h-176v-230zM474 942l62 -32h294l28 32q52 -32 52 -44t-26 -28v-300
q0 -20 -32 -26q-16 0 -16 10v26h-207q13 -4 25 -8q10 -3 10 -10q0 -11 -20 -16q-19 -6 -38 -6q-10 -25 -24 -48q-8 -8 -13 -14h323l36 30q33 -19 52 -34q6 -10 6 -14q0 -12 -40 -26q-8 -116 -23 -198q-19 -84 -34 -122q-20 -36 -39 -52q-25 -17 -49 -32q-25 -10 -37 -10
q0 17 -7 28q-8 12 -85 42l4 18q72 -22 94 -22q21 0 36 6q10 3 20 15q15 14 28 51q15 37 27 110q13 67 17 180h-53q-32 -78 -59 -128q-25 -43 -70 -94q-33 -36 -72 -67q-35 -26 -77 -52q-49 -26 -129 -61l-14 16q65 28 106 52q43 30 78 58q35 27 68 62q32 39 63 92
q27 45 52 122h-83q-23 -39 -46 -69q-30 -38 -67 -71q-34 -32 -75 -62q-42 -27 -100 -60l-12 14q57 36 96 70q39 31 69 67q30 31 53 66q15 26 25 45h-103l-5 -5q-26 -27 -45 -44q-23 -22 -46 -39q-27 -19 -58 -36l-14 22q35 20 59 45q26 21 49 50q25 29 43 55t27 48
q8 18 13 36h-49v-14q0 -9 -10 -16q-15 -6 -26 -6q-12 0 -12 14v384zM522 610h314v124h-314v-124zM522 760h314v120h-314v-120z" />
  </g>

</svg>
