<?xml version="1.0" standalone="no"?>
<!DOCTYPE svg PUBLIC "-//W3C//DTD SVG 1.1//EN" "http://www.w3.org/Graphics/SVG/1.1/DTD/svg11.dtd" >
<svg xmlns="http://www.w3.org/2000/svg" xmlns:xlink="http://www.w3.org/1999/xlink" version="1.1" viewBox="0 -200 1000 1000">
  <g transform="matrix(1 0 0 -1 0 800)">
   <path fill="currentColor"
d="M518 767l-59 -13l-17 35h113v184l70 -34l-21 -63v-87h130v180l70 -37l-20 -66v-77h39l45 38l51 -59h-135v-415h41l42 38l60 -60h-374v-282q13 18 26 50t24 68t19.5 71.5t12.5 60.5l59 -57l-25 -20q-19 -32 -43.5 -79t-67.5 -107h270l46 37l55 -58h-364l-37 -42l-55 46
l34 33v279l-64 -13l-13 35h125v414h-37zM604 642h130v125h-130v-125zM604 490h130v131h-130v-131zM604 353h130v116h-130v-116zM893 158q7 -7 7 -13q0 -7 -6.5 -10.5t-16.5 -5.5t-22.5 -2.5t-24.5 -0.5h-18q-26 0 -41.5 1t-24 7t-11.5 19.5t-3 37.5q0 21 -0.5 46t-0.5 48
q0 8 0.5 15t0.5 13v7l59 -29l-15 -46l1 -60q0 -4 4.5 -11t13.5 -8h40q9 1 16.5 11t12.5 23q6 -15 12.5 -25t16.5 -17zM403 126q-28 -15 -68 -33.5t-83 -38t-84.5 -39t-71.5 -37.5l-49 56l74 23v389l66 -38l-18 -63v-274l61 22v470h-49v-39q-3 -4 -10 -9t-14.5 -9t-14 -6.5
t-7.5 -2.5v418l56 -34h127l35 38l51 -58l-29 -28v-270h-99v-202h42l38 42l53 -67h-133v-228l122 32zM327 584v274h-134l-12 -48v-226h146z" />
  </g>

</svg>
