<?xml version="1.0" standalone="no"?>
<!DOCTYPE svg PUBLIC "-//W3C//DTD SVG 1.1//EN" "http://www.w3.org/Graphics/SVG/1.1/DTD/svg11.dtd" >
<svg xmlns="http://www.w3.org/2000/svg" xmlns:xlink="http://www.w3.org/1999/xlink" version="1.1" viewBox="0 -140 1000 1000">
  <g transform="matrix(1 0 0 -1 0 860)">
   <path fill="currentColor"
d="M946 463h-364q-27 -89 -46 -135h266l45 49h16l54 -53l-1 -18h-200v-202l118 1l43 46h14l55 -53v-16h-509v22h214v202h-125q-48 -98 -87.5 -151t-107.5 -110l-10 9q78 97 118.5 184.5t71.5 224.5h-121v22h218v121h-182v22h182v123h-213v22h312q36 81 61 151l84 -39l-5 -13
l-28 -5l-85 -94h93l41 49h16l56 -53v-18h-267v-123h113l41 48h13l57 -52v-18h-224v-121h163l41 50h14l56 -56zM293 885l31 31h15l51 -42v-13l-24 -15v-213l-4 -12l-52 -11l-8 5v32h-48v-189h32l43 47h15l46 -53v-16h-136v-203l150 32l3 -13l-294 -111l-6 -33l-14 -4l-41 90
l34 5v346l85 -19v-15l-21 -15v-285l40 9v427h-45v-24l-7 -13l-48 -13l-9 10v309l64 -31h148zM145 863v-194h157v194h-157zM458 912l9 13q41 -20 61 -32t38 -31.5t18 -40.5q0 -15 -9.5 -27.5t-20.5 -12.5q-16 0 -29 37q-15 45 -67 94z" />
  </g>

</svg>
