<?xml version="1.0" standalone="no"?>
<!DOCTYPE svg PUBLIC "-//W3C//DTD SVG 1.1//EN" "http://www.w3.org/Graphics/SVG/1.1/DTD/svg11.dtd" >
<svg xmlns="http://www.w3.org/2000/svg" xmlns:xlink="http://www.w3.org/1999/xlink" version="1.1" viewBox="0 -204 1024 1024">
  <g transform="matrix(1 0 0 -1 0 820)">
   <path fill="currentColor"
d="M902 902q36 -27 69 -49q9 -7 9 -13q0 -14 -12 -14h-294q3 -75 13 -111q13 -47 34 -84l2 2q36 40 57 77q22 30 38 72q45 -22 75 -39q9 -8 9 -13t-15 -12q-23 -6 -39 -6q-43 -58 -77 -93q-13 -13 -27 -25q16 -17 30 -29q36 -30 75 -50q28 -15 35 -15q10 0 14 5
q12 13 60 111l18 -6q-38 -102 -38 -114q0 -19 12 -31q18 -15 18 -27q0 -22 -30 -22q-13 0 -45 15q-39 13 -81 43q-42 24 -74 57q-16 14 -30 35q-7 -5 -12 -8q-41 -30 -92 -57q-52 -23 -100 -37l-8 18q61 23 94 42q37 20 63 45q18 11 33 29q-3 6 -4 10q-23 43 -38 108
q-12 55 -15 110h-467l-2 -4q0 -90 -6 -159q-9 -75 -20 -128q-10 -54 -25 -89q-19 -46 -59 -104l-18 16q23 41 38 85q13 42 20 90q9 51 14 126q7 73 8 132q-2 59 -10 107l67 -44h459v12q0 68 -4 102q92 -19 92 -36q0 -11 -44 -26q0 -30 1 -52h185zM332 818q44 -8 71 -18
q13 -5 13 -12q0 -4 -8 -7q-12 -7 -24 -11v-22h80l36 38q25 -22 50 -41q4 -2 4 -7q0 -18 -6 -18h-164v-56h138l36 38q28 -20 50 -41q6 -2 6 -7q0 -18 -8 -18h-208v-110q0 -20 -10 -32q-7 -14 -23 -24q-18 -12 -37 -18q-1 29 -7 37q-7 9 -17 13q-20 14 -48 20v18
q40 -18 72 -18q13 0 17 7q5 5 5 19v88h-76q-69 -1 -96 -4l-18 44q43 -12 114 -12h62v74q0 52 -4 80zM240 628q34 -13 55 -25q7 -4 7 -15q0 -12 -44 -12q-8 -18 -18 -33q-11 -12 -22 -21q-10 -11 -29 -24q-16 -10 -33 -16l-10 6q20 13 32 28q12 13 23 24q10 17 16 31
q9 15 13 31q7 14 10 26zM442 614q35 -15 57 -32q16 -11 25 -23q6 -10 6 -19q0 -32 -18 -32q-5 0 -10 5q-4 2 -9 13q-13 22 -24 39q-14 14 -39 33zM752 960q27 -3 49 -15q17 -11 26 -26q9 -8 9 -21q0 -22 -22 -22q-8 0 -13 6q-7 4 -15 19q-6 13 -15 20q-7 11 -29 25zM230 474
l62 -32h424l26 32q54 -32 54 -44t-28 -28v-66q12 -10 26 -19q6 -3 6 -7q0 -18 -8 -18h-270v-74h238l44 48q34 -27 62 -49q10 -7 10 -13q0 -14 -14 -14h-340v-93q26 -2 55 -3q57 -4 145 -4q64 0 131 6q68 7 127 16v-18q-44 -8 -52 -44q-80 -4 -156 -4q-137 0 -202 6
q-71 5 -109 12q-35 8 -76 26q-36 14 -68 41q-19 14 -32 29q-13 -12 -25 -22q-19 -20 -42 -34q-20 -12 -47 -25q-24 -12 -51 -20q-32 -11 -70 -23l-14 18q46 14 75 31q30 13 54 27q16 12 35 28q14 14 31 34q18 17 28 35q11 22 19 34q6 15 6 27q43 -11 65 -24q15 -5 15 -14
q0 -6 -11 -10q-14 -5 -29 -8q-12 -19 -22 -32q23 -23 45 -38q28 -15 65 -28q28 -10 62 -13v189h-194q0 -9 -14 -14q-13 -4 -22 -4q-14 0 -14 10v190zM280 320h440v92h-440v-92z" />
  </g>

</svg>
