<?xml version="1.0" standalone="no"?>
<!DOCTYPE svg PUBLIC "-//W3C//DTD SVG 1.1//EN" "http://www.w3.org/Graphics/SVG/1.1/DTD/svg11.dtd" >
<svg xmlns="http://www.w3.org/2000/svg" xmlns:xlink="http://www.w3.org/1999/xlink" version="1.1" viewBox="0 -200 995 1000">
  <g transform="matrix(1 0 0 -1 0 800)">
   <path fill="currentColor"
d="M784 934l-19 -66v-68h70l37 42l64 -62h-171v-101h63l32 40l53 -41l-26 -34v-277q-28 -25 -49 -28v44h-73v-115h84l41 46q22 -26 37.5 -38.5t23.5 -27.5h-186v-156q-3 -15 -15.5 -24t-33.5 -14v195h-94l-39 -15l-26 34h159v115h-60l1 -27l-22.5 -12.5t-27.5 -13.5v380
l60 -31h49v101h-54l-62 -15l-22 35h138v169zM418 933q28 -21 48.5 -36.5t33.5 -28t19 -25t6 -28.5q0 -21 -13 -31t-19 -10q-4 0 -12.5 18.5t-19 44t-22 52.5t-21.5 44zM430 414l-35 -15l-25 35h97l28 39l59 -46l-29 -36l-1 -272q29 -32 52.5 -50t49 -27t55.5 -11t72 -2
q51 0 106.5 3.5t115.5 7.5l8 1q-23 -15 -36.5 -27t-25.5 -21t-25.5 -14t-35.5 -5h-37q-51 0 -95 4t-82 17t-70.5 36t-61.5 61q-3 14 -14 14q-10 0 -41 -27t-76 -81l-51 38q40 23 76.5 43t64.5 48v287h-43zM765 538h73v121h-73v-121zM765 401h73v118h-73v-118zM656 519v-118
h60v118h-60zM667 658l-11 -21v-99h60v120h-49zM456 596q-11 38 -25.5 66t-32.5 48l34 -17t33 -20t25 -24t10 -29v-2q4 -7 4 -23t-6 -26.5t-14 -10.5q-7 0 -14 8.5t-14 29.5zM403 126q-28 -15 -68 -33.5t-83 -38t-84.5 -39t-71.5 -37.5l-49 56l74 23v389l66 -38l-18 -63v-274
l61 22v470h-49v-39q-3 -4 -10 -9t-14.5 -9t-14 -6.5t-7.5 -2.5v418l56 -34h127l35 38l51 -58l-29 -28v-270h-99v-202h42l38 42l53 -67h-133v-228l122 32zM327 584v274h-134l-12 -48v-226h146z" />
  </g>

</svg>
