<?xml version="1.0" standalone="no"?>
<!DOCTYPE svg PUBLIC "-//W3C//DTD SVG 1.1//EN" "http://www.w3.org/Graphics/SVG/1.1/DTD/svg11.dtd" >
<svg xmlns="http://www.w3.org/2000/svg" xmlns:xlink="http://www.w3.org/1999/xlink" version="1.1" viewBox="0 -140 1000 1000">
  <g transform="matrix(1 0 0 -1 0 860)">
   <path fill="currentColor"
d="M655 931l74 -28l-2 -14l-28 -5l-52 -85h35l24 25h12l50 -31v-13l-25 -23v-260l-6 -10l-40 -8l-9 2v35h-61v-18l-9 -7l-40 -9l-6 7v329l47 -19h7zM688 777h-61v-109h61v109zM688 644h-61v-107h61v107zM922 861l-7 -11h-22l-83 -110q41 -29 41 -57q0 -14 -6.5 -23.5
t-16.5 -9.5q-16 0 -28 36q-12 35 -44 65l8 11l26 -14l63 154zM538 705l-104 -168l69 8q-11 18 -24 35l9 10q45 -26 62.5 -42.5t17.5 -40.5q0 -14 -7.5 -25t-17.5 -11t-14.5 9t-16.5 49l-105 -39v-22l-16 -4l-28 68l45 2l88 225l72 -39l-5 -14zM830 385l37 45h14l52 -54v-14
h-240q60 -76 118 -116.5t141 -65.5l-5 -15q-47 -10 -61 -45q-124 94 -193 208l1 -252l-7 -13l-49 -13l-8 7l-1 243q-106 -118 -267 -193l-6 14q134 82 240 241h-194v23h227v86l93 -19v-14l-29 -14v-39h137zM279 868l28 35h15l58 -42v-15l-31 -25v-221l-7 -12l-42 -11l-10 5
l-1 35l-34 -1v-176h13l34 49h16l46 -54v-17h-109v-210l111 29l4 -14l-268 -113l-2 -28l-14 -5l-37 86l34 6v321l96 -20v-15l-32 -14v-258l48 13v421h-48v-32l-8 -9l-47 -12l-10 8l1 329l69 -33h127zM289 846h-142v-206h142v206zM527 856l-5 -12h-25l-84 -110q45 -27 45 -55
q0 -36 -21 -36q-13 0 -33 44q-13 32 -43 61l8 11l26 -15l64 153zM961 714l-5 -14l-30 -3l-104 -161l78 6q-8 14 -26 38l9 10q55 -37 70.5 -51t15.5 -35q0 -38 -23 -38q-10 0 -19.5 17t-12.5 32l-5 10l-113 -39l-4 -22l-12 -1l-28 67l45 3l90 221z" />
  </g>

</svg>
