<?xml version="1.0" standalone="no"?>
<!DOCTYPE svg PUBLIC "-//W3C//DTD SVG 1.1//EN" "http://www.w3.org/Graphics/SVG/1.1/DTD/svg11.dtd" >
<svg xmlns="http://www.w3.org/2000/svg" xmlns:xlink="http://www.w3.org/1999/xlink" version="1.1" viewBox="0 -140 1000 1000">
  <g transform="matrix(1 0 0 -1 0 860)">
   <path fill="currentColor"
d="M898 771h13l41 -48l1 -15h-114v-94q0 -14 6.5 -17t27.5 -3q17 0 26 19l28 62l12 -3l-10 -81l22 -12v-14q-23 -24 -57 -24h-44q-39 0 -55 13t-16 45v109h-41q-17 -80 -45.5 -114.5t-105.5 -68.5l-7 12q49 37 68.5 71.5t27.5 99.5h-32v23h100v75h-68q-20 -28 -44 -54l-11 6
q24 75 40 173l78 -31l-1 -11l-26 -6l-27 -54h59l-1 110l95 -20v-13l-29 -16v-61h41l32 37h13l41 -42v-18h-127v-75l57 -1zM630 664l4 -14l-154 -92v-26l-10 -5l-46 70l57 20v91h-33q-19 -72 -43.5 -106.5t-79.5 -66.5l-9 11q32 30 47 63.5t25 98.5h-61v23h127v75h-63
q-15 -27 -44 -69l-13 6q16 48 29 148l5 36l81 -25l-2 -13l-25 -9l-20 -50l52 -1l-1 108l92 -19v-15l-29 -10v-64h23l29 36h15l40 -41v-18h-107v-75h28l32 37h11l37 -45v-15h-80v-74zM814 509l24 23h13l50 -44v-13l-21 -16v-256l-6 -9l-48 -15l-9 6v28h-354q-1 -19 -7 -28
l-44 -13l-10 7v355l58 -25h354zM671 179l3 13q256 -40 256 -117q0 -31 -19 -32q-5 0 -16 8q-106 82 -224 128zM514 202l56 -67l-9 -10l-28 6q-133 -55 -278 -81l-5 15q150 52 264 137zM463 416h355v71h-355v-71zM463 327h355v66h-355v-66zM463 236h355v69h-355v-69zM80 902
l68 -31l99 1l29 27h15l52 -53v-13l-27 -19l-1 -206l-5 -12l-47 -14l-9 7v26h-20v-195h30l32 40h15l41 -45v-17h-118v-229l115 40l5 -15l-241 -116l-21 -42l-44 82q14 5 19 7.5t9 8.5t4 17v342l87 -20v-16l-27 -16v-298l32 10v462h-31v-32l-7 -10l-45 -15l-9 7v337zM141 637
h113v212h-113v-212z" />
  </g>

</svg>
