<?xml version="1.0" standalone="no"?>
<!DOCTYPE svg PUBLIC "-//W3C//DTD SVG 1.1//EN" "http://www.w3.org/Graphics/SVG/1.1/DTD/svg11.dtd" >
<svg xmlns="http://www.w3.org/2000/svg" xmlns:xlink="http://www.w3.org/1999/xlink" version="1.1" viewBox="0 -410 2048 2048">
  <g transform="matrix(1 0 0 -1 0 1638)">
   <path fill="currentColor"
d="M1436 1468q33 -76 49 -114q145 -339 267 -493q105 -133 249 -223l-5 -35q-17 1 -27 1q-69 0 -116 -45q-163 188 -251 369q-82 167 -180 453v-847h174l80 81l114 -86q17 -13 17 -26q0 -26 -27 -26h-358v-80q0 -100 13 -219q3 -31 3 -50q0 -46 -57 -46q-55 0 -55 42v353
h-162q-69 0 -148 -11l-39 86q125 -18 187 -18h162v696q-168 -419 -466 -687l-26 27q194 226 321 519q65 147 133 379h-147q-115 0 -192 -7l-38 88q96 -23 230 -23h185v266q0 115 -8 160l109 -24q86 -19 86 -46q0 -25 -50 -42l-41 -13v-301h286l98 101l121 -106
q17 -15 17 -26q0 -27 -27 -27h-481zM332 1691h10q60 91 116 244l118 -45q32 -12 32 -30q0 -24 -32 -27l-52 -5q-64 -85 -131 -137h269l68 76l83 -54q40 -26 40 -49q0 -32 -79 -60v-638q18 33 52 101l123 -66q28 -15 28 -33q0 -24 -37 -24h-57q-70 -100 -109 -147v-550
q0 -142 -158 -171q-2 67 -44 94q-32 21 -159 43l8 46q170 -27 202 -27q56 0 56 56v407q-272 -275 -604 -436l-14 29q346 197 618 534v12q-167 -69 -488 -164l-12 -45q-8 -29 -22 -29q-18 0 -35 36l-61 126q52 5 142 19l23 3v826q0 87 -13 176zM515 1634v0h-195v-220h359v220
h-164zM679 1357h-359v-216h359v216zM679 1083h-359v-287q155 31 359 92v195z" />
  </g>

</svg>
