<?xml version="1.0" standalone="no"?>
<!DOCTYPE svg PUBLIC "-//W3C//DTD SVG 1.1//EN" "http://www.w3.org/Graphics/SVG/1.1/DTD/svg11.dtd" >
<svg xmlns="http://www.w3.org/2000/svg" xmlns:xlink="http://www.w3.org/1999/xlink" version="1.1" viewBox="0 -410 2048 2048">
  <g transform="matrix(1 0 0 -1 0 1638)">
   <path fill="currentColor"
d="M498 740v-62q0 -38 -50 -38q-62 0 -58 57l4 60l4 80l4 76v388q0 86 -14 178l122 -91h462v221h-614q-117 0 -192 -8l-38 88q95 -23 230 -23h614v152q0 115 -8 160l109 -25q86 -18 86 -45q0 -25 -51 -42l-40 -13v-187h623l99 101l120 -106q17 -15 17 -26q0 -26 -27 -26
h-832v-221h488l68 76l83 -54q41 -26 41 -48q0 -27 -78 -61v-358q0 -52 11 -223q1 -8 1 -13q0 -46 -70 -46q-36 0 -36 26v53h-508v-245h702l99 102l121 -107q17 -16 17 -26q0 -26 -28 -26h-911v-72q0 -96 12 -219q4 -32 4 -49q0 -47 -55 -47q-57 0 -57 42v345h-675
q-119 0 -192 -8l-38 88q99 -23 230 -23h675v245h-474zM498 1096h474v235h-474v-235zM498 1036v-236h474v236h-474zM1576 800v236h-508v-236h508zM1576 1096v235h-508v-235h508z" />
  </g>

</svg>
