<?xml version="1.0" standalone="no"?>
<!DOCTYPE svg PUBLIC "-//W3C//DTD SVG 1.1//EN" "http://www.w3.org/Graphics/SVG/1.1/DTD/svg11.dtd" >
<svg xmlns="http://www.w3.org/2000/svg" xmlns:xlink="http://www.w3.org/1999/xlink" version="1.1" viewBox="0 -140 1000 1000">
  <g transform="matrix(1 0 0 -1 0 860)">
   <path fill="currentColor"
d="M912 848l-13 -9l-24 14q-5 -1 -24.5 -5.5t-33.5 -8.5q10 -151 17 -233t22 -194.5t39.5 -191t60.5 -136.5l-10 -9q-21 8 -30 8q-14 0 -44 -14q-42 137 -58 269t-23 409l-2 85q-9 -1 -43.5 -7.5t-60.5 -11.5v-613l74 13q-10 20 -34 52l10 9q64 -44 83.5 -65.5t19.5 -48.5
q0 -20 -10.5 -36.5t-23.5 -16.5q-18 0 -26 36q-7 33 -13 51l-238 -85l-5 -24l-13 -5l-38 89l154 23v613q-17 -2 -54.5 -4.5t-46.5 -3.5l4 -127q1 -35 1 -72q0 -203 -30.5 -311.5t-121.5 -231.5l-17 10q60 95 82.5 206.5t22.5 363.5q0 83 -3 218l60 -28q175 14 334 104z
M208 795v136l94 -17v-15l-34 -18v-86h57l34 47h20l61 -52v-18h-172v-102h58l28 39h18l55 -42v-15l-29 -24l1 -276l-11 -10l-37 -11l-13 6v40h-70v-118h52l39 51h15l58 -58v-15h-164l1 -161l-6 -12l-42 -13l-13 5v181h-159v22h159v118h-70v-24l-6 -8l-46 -12l-12 7v363
l67 -33h67v102h-156v23h156zM338 647h-70v-114h70v114zM208 647h-70v-114h70v114zM208 511h-70v-111h70v111zM338 511h-70v-111h70v111z" />
  </g>

</svg>
