<?xml version="1.0" standalone="no"?>
<!DOCTYPE svg PUBLIC "-//W3C//DTD SVG 1.1//EN" "http://www.w3.org/Graphics/SVG/1.1/DTD/svg11.dtd" >
<svg xmlns="http://www.w3.org/2000/svg" xmlns:xlink="http://www.w3.org/1999/xlink" version="1.1" viewBox="0 -204 1024 1024">
  <g transform="matrix(1 0 0 -1 0 820)">
   <path fill="currentColor"
d="M40 822q43 -12 116 -12h52v66q0 54 -4 82q55 -7 94 -23q12 -6 12 -15q0 -7 -12 -11q-18 -9 -42 -11v-88h68l44 44q30 -24 59 -48q7 -4 7 -10q0 -14 -10 -14h-168v-92h98l30 30q50 -30 50 -44q0 -10 -26 -26v-286q0 -17 -32 -22q-18 0 -18 8v36h-102v-120h58l44 44
q32 -25 62 -46q6 -5 6 -12q0 -16 -10 -16h-160v-128v-30q2 -16 2 -28q0 -32 -32 -32q-22 0 -22 14q0 23 2 56q2 34 2 60v88h-62q-69 -1 -96 -4l-18 44q43 -10 114 -10h62v120h-100v-26q0 -7 -14 -13q-13 -5 -22 -5q-14 0 -14 12v366l62 -30h88v92h-52q-71 -1 -98 -4z
M108 412h100v114h-100v-114zM256 526v-114h102v114h-102zM108 554h100v106h-100v-106zM256 660v-106h102v106h-102zM562 470q39 -10 114 -10h134l38 40q66 -49 66 -66q0 -12 -56 -22q-212 -192 -258 -252q-20 -26 -20 -44q0 -6 8 -12q7 -13 34 -23q25 -9 72 -9h70q49 0 90 7
q40 6 48 12q11 5 16 21q12 28 20 106l20 -4v-76q0 -34 17 -43q15 -17 15 -27q0 -14 -39 -23q-75 -17 -187 -17h-70q-63 0 -97 11q-36 10 -51 28q-16 19 -16 49q0 17 24 50q36 53 260 268h-138q-80 0 -96 -4zM474 858l50 -32h186q-1 3 -2 4q-13 39 -26 61q-14 26 -40 55
l12 14q37 -25 59 -50q18 -23 27 -43q8 -14 8 -31q0 -6 -3 -10h147l28 32q52 -32 52 -44t-30 -28v-188q0 -20 -32 -24q-14 0 -14 6v18h-370q-1 -75 -7 -142q-4 -72 -15 -148q-11 -62 -30 -114q-14 -47 -41 -90q-19 -38 -57 -76l-12 8q22 33 39 73q19 36 30 76q13 44 24 101
q11 69 14 137q7 95 7 209q1 142 -4 226zM526 624h370v172h-369l-1 -4v-160v-8z" />
  </g>

</svg>
