<?xml version="1.0" standalone="no"?>
<!DOCTYPE svg PUBLIC "-//W3C//DTD SVG 1.1//EN" "http://www.w3.org/Graphics/SVG/1.1/DTD/svg11.dtd" >
<svg xmlns="http://www.w3.org/2000/svg" xmlns:xlink="http://www.w3.org/1999/xlink" version="1.1" viewBox="0 -140 1000 1000">
  <g transform="matrix(1 0 0 -1 0 860)">
   <path fill="currentColor"
d="M311 729v70h-209v21h209v109l97 -18v-13l-33 -16v-62h116l39 43h14l49 -49v-15h-218v-70h260l-3 205l93 -19v-14l-26 -12q-3 -55 -3 -78t3 -82h136l38 48h15l59 -54v-15h-248q7 -195 46 -342q55 130 90 273l84 -40l-4 -13l-23 -5q-52 -167 -120 -284q64 -132 98 -132
q10 0 22 24l41 80l14 -4l-32 -148l24 -48l-9 -12q-40 7 -65.5 18t-62 52t-77.5 117q-64 -69 -118 -108t-140 -79l-9 12q88 57 137.5 104.5t103.5 126.5q-33 101 -45.5 189t-18.5 219h-581v21h257zM54 212v21h257v78h-119v-14l-8 -9l-47 -15l-10 5v283l65 -26h119v74h-230v21
h230v66l90 -19v-14l-26 -11v-22h135l37 39h13l47 -45v-15h-232v-74h119l30 28h13l49 -39v-15l-23 -20v-192l-8 -11l-45 -13l-11 8v30h-124v-78h149l36 40h14l46 -46v-15h-245v-143l-5 -12l-49 -15l-10 6v164h-257zM192 411v-79h119v79h-119zM192 514v-82h119v82h-119z
M375 332h124v79h-124v-79zM375 432h124v82h-124v-82zM737 887l6 9q119 -39 119 -90q0 -39 -24 -39q-15 0 -36 43q-18 36 -65 77z" />
  </g>

</svg>
