<?xml version="1.0" standalone="no"?>
<!DOCTYPE svg PUBLIC "-//W3C//DTD SVG 1.1//EN" "http://www.w3.org/Graphics/SVG/1.1/DTD/svg11.dtd" >
<svg xmlns="http://www.w3.org/2000/svg" xmlns:xlink="http://www.w3.org/1999/xlink" version="1.1" viewBox="0 -410 2048 2048">
  <g transform="matrix(1 0 0 -1 0 1638)">
   <path fill="currentColor"
d="M1645 826q40 92 80 246q39 147 50 240l109 -35q68 -21 68 -43q0 -30 -33 -33l-49 -3q-79 -251 -105 -317q-38 -93 -91 -192q42 -173 101 -293q53 -109 85 -109q26 0 92 326l42 -10q-7 -45 -20 -141q-25 -154 -25 -194q0 -38 15 -87q16 -48 16 -62q0 -36 -30 -36
q-95 0 -217 192q-63 99 -122 302q-60 -100 -139 -189q-83 -94 -168 -163q-38 -31 -140 -108l-26 36q177 138 295 292q72 93 149 242q-72 287 -95 842h-487v-201q91 -24 182 -24h42l88 98l129 -100q17 -13 17 -26q0 -26 -25 -26h-251q-79 0 -153 -8l-29 70v-277
q0 -387 -72 -604q-68 -209 -222 -346l-28 26q131 168 175 357q51 218 51 539v449l-2 68q-2 89 -6 131l111 -72h476l-2 97q-4 243 -11 283l108 -24q85 -19 85 -45q0 -28 -49 -43l-32 -9v-115v-72v-72h162l96 96l112 -86q29 -22 29 -38q0 -26 -22 -26h-377q5 -343 63 -703z
M1290 1047l68 80l72 -49q42 -29 42 -50q0 -19 -39 -38q-13 -6 -33 -18v-378l33 -30q9 -7 9 -16q0 -22 -21 -22h-257v-62q-9 -42 -70 -42q-22 0 -22 24v675l113 -74h105zM1164 582h141v409h-141v-409zM1699 1904q94 -41 129 -64q64 -41 64 -87q0 -52 -47 -52q-33 0 -62 71
q-21 49 -101 107zM638 785h-153v-271h101l95 96l105 -101q17 -16 17 -26q0 -26 -28 -26h-290v-84q0 -101 12 -219q4 -31 4 -50q0 -46 -57 -46q-55 0 -55 42v357h-106q-108 0 -192 -8l-38 88q96 -23 230 -23h106v271h-156v-51q0 -37 -51 -37q-61 0 -57 55l4 62l4 79l4 76v332
l-5 74q-4 67 -10 102l123 -90h144v232h-102q-108 0 -192 -8l-38 88q95 -22 230 -22h102v117q0 114 -8 160l109 -24q85 -18 85 -45q0 -26 -50 -42l-40 -13v-153h93l91 95l122 -101q17 -14 17 -26q0 -26 -28 -26h-295v-232h133l68 76l83 -54q41 -27 41 -48q0 -28 -78 -62v-322
q0 -57 11 -223q1 -8 1 -13q0 -46 -71 -46q-35 0 -35 26v64zM638 845v217h-153v-217h153zM638 1123v207h-153v-207h153zM389 845v217h-156v-217h156zM389 1123v207h-156v-207h156z" />
  </g>

</svg>
