<?xml version="1.0" standalone="no"?>
<!DOCTYPE svg PUBLIC "-//W3C//DTD SVG 1.1//EN" "http://www.w3.org/Graphics/SVG/1.1/DTD/svg11.dtd" >
<svg xmlns="http://www.w3.org/2000/svg" xmlns:xlink="http://www.w3.org/1999/xlink" version="1.1" viewBox="0 -120 1000 1000">
  <g transform="matrix(1 0 0 -1 0 880)">
   <path fill="currentColor"
d="M42 177q50 94 67 195q21 119 20 203v331l84 -45h149l23 39l67 -39q18 -10 18 -20q0 -9 -15 -15l-16 -7v-210l-62 -10v38h-183q-2 -16 -4 -71q-1 -28 -7 -73l57 -34h114l21 38l64 -38q16 -9 16 -18q0 -8 -13 -14l-12 -6v-279l-63 -9v55h-137v-76l-61 -8v303
q-25 -94 -48 -142q-20 -40 -61 -100zM194 665h183v169h-183v-169zM230 432v-217h137v217h-137zM459 524l-15 27h270l54 201l62 -27q23 -9 23 -19t-14 -13l-20 -6l-77 -136h79l50 57l78 -65v-19h-237v-163h84l43 56l76 -63v-20h-203v-261l-64 -9v270h-166l-13 27h179v163
h-189zM497 772l-15 27h166v159l68 -9q26 -4 26 -16q0 -11 -11 -15l-19 -6v-113h90l49 53l79 -63v-17h-433zM529 752q36 -28 66 -64q38 -47 38 -80q0 -20 -13 -32q-9 -9 -21 -9q-14 0 -23 12q-7 9 -8 15l-9 44q-18 70 -45 103z" />
  </g>

</svg>
