<?xml version="1.0" standalone="no"?>
<!DOCTYPE svg PUBLIC "-//W3C//DTD SVG 1.1//EN" "http://www.w3.org/Graphics/SVG/1.1/DTD/svg11.dtd" >
<svg xmlns="http://www.w3.org/2000/svg" xmlns:xlink="http://www.w3.org/1999/xlink" version="1.1" viewBox="0 -410 2048 2048">
  <g transform="matrix(1 0 0 -1 0 1638)">
   <path fill="currentColor"
d="M1175 1606q-17 0 -67 -5q-19 -2 -29 -3l-36 88q90 -23 216 -23h170q-12 17 -17 42q-26 116 -132 236l19 24q211 -146 211 -253q0 -27 -17 -49h240l92 101l113 -106q16 -15 16 -24q0 -28 -25 -28h-247l104 -32q39 -13 39 -32t-34 -29l-45 -13q-83 -237 -167 -380h196
l92 102l114 -107q16 -15 16 -26q0 -26 -26 -26h-467v-373h204l92 102l114 -107q15 -15 15 -26q0 -26 -25 -26h-400v-251q0 -110 12 -222q3 -32 3 -50q0 -46 -53 -46q-52 0 -52 41v528h-159q-111 0 -180 -8l-36 88q91 -23 216 -23h159v373h-226q-111 0 -180 -8l-36 88
q88 -23 216 -23h98q-14 26 -17 70q-12 166 -94 416zM1216 1606q151 -282 151 -403q0 -51 -35 -83h199q83 198 129 486h-444zM435 915h-177v-65q0 -29 -41 -29q-57 0 -57 51l9 162v232q0 2 -10 167l106 -83h219v212h-185q-113 0 -181 -8l-36 88q90 -22 217 -22h185v190
q0 116 -8 159l103 -24q82 -19 82 -45q0 -25 -48 -42l-38 -13v-225h168l93 101l115 -107q15 -14 15 -26q0 -26 -25 -26h-366v-212h194l64 76l80 -54q38 -26 38 -48q0 -32 -76 -60v-263l51 -33q21 -13 21 -34q0 -19 -17 -19h-355v-107q319 -190 319 -297q0 -56 -44 -56
q-29 0 -55 48q-72 132 -220 256v-369q0 -87 11 -209q3 -30 3 -50q0 -46 -53 -46q-52 0 -52 42v641q-140 -296 -373 -499l-22 26q267 326 346 620zM575 971h213v322h-213v-322zM258 971h226v322h-163h-63v-322z" />
  </g>

</svg>
