<?xml version="1.0" standalone="no"?>
<!DOCTYPE svg PUBLIC "-//W3C//DTD SVG 1.1//EN" "http://www.w3.org/Graphics/SVG/1.1/DTD/svg11.dtd" >
<svg xmlns="http://www.w3.org/2000/svg" xmlns:xlink="http://www.w3.org/1999/xlink" version="1.1" viewBox="0 -204 1024 1024">
  <g transform="matrix(1 0 0 -1 0 820)">
   <path fill="currentColor"
d="M128 958q32 -20 56 -42q29 -17 46 -36q21 -16 26 -31q6 -12 6 -23q0 -21 -6 -33q-7 -11 -20 -11q-11 0 -17 5q-6 2 -10 23q-6 23 -22 48q-15 21 -30 43q-18 19 -45 45zM32 698q39 -8 110 -8h88l36 30q29 -22 47 -44q5 -6 5 -12q0 -10 -16 -17q-15 -6 -32 -11
q-33 -64 -81 -132h81l28 36q29 -17 46 -37q6 -6 6 -11q-2 -5 -10 -11q-9 -7 -22 -11q-6 -44 -18 -84q-8 -33 -26 -68q-16 -36 -34 -59q-15 -21 -31 -37h13q0 -15 15 -30q38 -35 91 -52q47 -22 110 -33q68 -9 215 -9q156 0 337 14v-14q-36 -6 -48 -48q-102 -4 -235 -4
q-127 0 -203 9q-68 9 -122 27q-60 19 -109 52q-51 29 -73 66q-45 -42 -92 -76q0 -38 -10 -38q-13 0 -58 62q34 12 69 32q35 17 65 42h3q21 20 34 44q15 25 29 57q12 31 21 77q11 41 13 78h-104q-1 -3 -2 -4q-11 -14 -30 -14q-22 0 -22 14q0 3 3 9q7 6 12 14q63 89 99 163
h-88q-80 0 -96 -2zM610 964q59 -6 96 -20q14 -5 14 -16q0 -9 -14 -12q-20 -8 -42 -10v-58h180l44 44q32 -22 59 -46q7 -4 7 -10q0 -14 -12 -14h-278v-88h222l24 36q36 -24 54 -43q8 -9 8 -15q0 -9 -36 -30v-332q0 -75 2 -99v-47q0 -14 -9 -21q-15 -5 -23 -5q-18 0 -18 12v32
h-458v-32q0 -12 -18 -12q-10 0 -24 5q-8 7 -8 21q0 19 2 47q4 24 4 99v352q0 39 -6 68l47 -36h187v150q0 55 -4 80zM430 248h458v450l-2 6h-454l-2 -6v-114h290l28 32q52 -31 52 -42t-30 -30v-109q13 -12 24 -19q6 -4 6 -8q0 -14 -8 -14h-362v-146zM430 420h294v138h-294
v-138z" />
  </g>

</svg>
