<?xml version="1.0" standalone="no"?>
<!DOCTYPE svg PUBLIC "-//W3C//DTD SVG 1.1//EN" "http://www.w3.org/Graphics/SVG/1.1/DTD/svg11.dtd" >
<svg xmlns="http://www.w3.org/2000/svg" xmlns:xlink="http://www.w3.org/1999/xlink" version="1.1" viewBox="0 -140 1000 1000">
  <g transform="matrix(1 0 0 -1 0 860)">
   <path fill="currentColor"
d="M589 921l96 -18v-15l-31 -14v-176h99l29 33h14l57 -40v-14l-25 -19v-391q0 -31 -16 -42.5t-81 -33.5l-12 7v27l-80 34l1 12l74 -5q28 -2 38.5 4t10.5 28v124h-265v-206l-7 -12l-49 -15l-9 6v527l68 -24h88v223zM498 553v-109h265v109h-265zM498 677v-102h265v102h-265z
M449 876l84 -43l-5 -14l-26 -2q-39 -54 -78 -90.5t-117 -90.5l-10 10q65 69 95.5 115t56.5 115zM716 839l6 13q68 -15 152 -55q48 -23 48 -75q0 -38 -20 -38q-17 0 -46 38q-46 62 -140 117zM66 409v21h129l31 33h15l52 -39v-15l-27 -20v-184q47 -49 116 -68.5t195 -19.5
q181 0 370 35l-1 -18q-36 -23 -55 -69q-89 -5 -189 -5q-150 0 -236 13t-134 39.5t-91 79.5l-122 -94v-32l-13 -7l-53 78l148 68v204h-135zM128 906l3 13q96 -11 132 -32t36 -59q0 -41 -24 -41q-9 0 -16 6.5t-28 33.5q-27 36 -103 79zM75 670l3 13q96 -11 132 -32t36 -59
q0 -41 -24 -41q-9 0 -16.5 7.5t-27.5 32.5q-30 39 -103 79z" />
  </g>

</svg>
