<?xml version="1.0" standalone="no"?>
<!DOCTYPE svg PUBLIC "-//W3C//DTD SVG 1.1//EN" "http://www.w3.org/Graphics/SVG/1.1/DTD/svg11.dtd" >
<svg xmlns="http://www.w3.org/2000/svg" xmlns:xlink="http://www.w3.org/1999/xlink" version="1.1" viewBox="0 -120 1000 1000">
  <g transform="matrix(1 0 0 -1 0 880)">
   <path fill="currentColor"
d="M956 132q-24 -3 -34 -14q-8 -9 -14 -29h-291q-118 0 -165 7q-71 11 -144 64q-37 28 -73 69l-117 -126v-21q0 -17 -11 -17q-7 0 -16 11l-52 64l145 81v316h-111l-12 27h119l30 40l61 -45q14 -10 14 -18t-14 -10l-21 -3v-279q32 -34 56 -50q52 -35 126 -44q60 -7 137 -7
h387v-16zM81 918q76 -18 117 -45q27 -18 42 -40q16 -24 16 -42q0 -20 -10 -34q-8 -10 -21 -10q-8 0 -14 5q-6 4 -37 55q-40 62 -97 98zM295 446q88 61 150 120q75 72 114 134l-35 35q-77 -49 -125 -75q-41 -21 -110 -49l-8 16q178 100 285 231h-277l-12 28h531l46 58l88 -66
v-20h-276q-60 -55 -122 -107q102 -73 147 -190q64 81 136 199l70 -49q14 -9 14 -18q0 -10 -17 -10h-28l-166 -153l4 -12q83 -29 153 -81q76 -56 76 -108q0 -37 -27 -37q-21 0 -35 30q-63 118 -162 175q7 -55 7 -86q0 -134 -51 -186q-24 -25 -65 -39q-18 -6 -25 -6
q-11 0 -11 24q-1 18 -12 22l-64 20v14h123q40 52 40 152q0 28 -6 77q-94 -83 -181 -143q-82 -56 -146 -86l-7 15q79 52 167 132q81 75 149 157q-6 33 -29 78q-87 -86 -150 -129q-68 -45 -143 -81z" />
  </g>

</svg>
