<?xml version="1.0" standalone="no"?>
<!DOCTYPE svg PUBLIC "-//W3C//DTD SVG 1.1//EN" "http://www.w3.org/Graphics/SVG/1.1/DTD/svg11.dtd" >
<svg xmlns="http://www.w3.org/2000/svg" xmlns:xlink="http://www.w3.org/1999/xlink" version="1.1" viewBox="0 -204 1024 1024">
  <g transform="matrix(1 0 0 -1 0 820)">
   <path fill="currentColor"
d="M328 871q44 -12 116 -12h190q-1 1 -1 2q-4 16 -13 34q-9 16 -19 30q-8 16 -27 33l21 14q19 -12 36 -24q16 -13 27 -24q12 -10 16 -18t4 -17q0 -18 -5 -30h179l46 53q39 -30 73 -55q9 -7 9 -13q0 -14 -16 -14h-339q-39 -43 -84 -84q-29 -27 -58 -49q30 1 59 3q59 2 133 7
q59 4 135 10q-7 10 -14 17q-18 19 -48 43l16 11q34 -18 59 -39q30 -17 47 -35q21 -17 27 -30t6 -25q0 -17 -5 -27q-7 -12 -18 -12q-10 0 -16 5q-7 4 -12 23q-7 22 -24 45q-1 2 -2 3q-67 -13 -121 -21q-66 -10 -126 -16q-56 -7 -116 -12q-11 -37 -19 -37t-49 84q23 1 42 1
q39 36 68 65q25 32 50 70h-111q-70 -1 -97 -6zM808 578l21 29q59 -38 59 -52t-29 -22v-328q0 -17 -10 -30q-10 -17 -28 -26q-18 -10 -42 -16q-1 27 -11 39q-7 9 -24 13q-35 11 -80 18v21q64 -21 115 -21q20 0 26 7t6 22v79h-336v-159q0 -11 -15 -11q-9 0 -25 6q-11 8 -11 24
q0 18 2 47q4 21 4 97v223q0 41 -6 72l44 -32h340zM475 338h336v89h-336v-89zM475 454h336v92l-1 4h-331l-4 -12v-84zM157 949q25 -19 47 -37q22 -17 37 -34q15 -16 19 -29q5 -12 5 -22q0 -20 -5 -31q-8 -11 -20 -11q-8 0 -13 4q-5 3 -9 22q-5 21 -16 44l-26 40
q-13 19 -37 40zM246 710q28 -25 50 -49q4 -5 4 -11q0 -11 -15 -21q-18 -6 -33 -9q-28 -76 -65 -154h74l31 35q26 -18 48 -38q5 -6 5 -11q-2 -7 -10 -14q-10 -8 -22 -12q-6 -41 -17 -78q-10 -32 -27 -64q-16 -33 -36 -56q-12 -18 -26 -32h12q0 -9 14 -19q39 -26 91 -39
q46 -15 108 -22q68 -8 213 -8q156 0 338 20v-19q-39 -5 -51 -47q-102 -5 -232 -5q-126 0 -201 6q-68 8 -121 22q-60 13 -108 37q-52 24 -74 52q-36 -43 -73 -77q0 -42 -9 -42q-14 0 -63 65q31 13 62 32q31 20 57 42q19 24 32 43q16 26 27 55q13 29 24 72q9 39 11 75h-91
q-3 -7 -5 -13q-11 -14 -31 -14q-25 0 -25 14q0 4 3 10q6 9 12 19q52 106 85 196h-45q-81 0 -97 -7l-19 43q40 -9 116 -9h41z" />
  </g>

</svg>
