<?xml version="1.0" standalone="no"?>
<!DOCTYPE svg PUBLIC "-//W3C//DTD SVG 1.1//EN" "http://www.w3.org/Graphics/SVG/1.1/DTD/svg11.dtd" >
<svg xmlns="http://www.w3.org/2000/svg" xmlns:xlink="http://www.w3.org/1999/xlink" version="1.1" viewBox="0 -120 1000 1000">
  <g transform="matrix(1 0 0 -1 0 880)">
   <path fill="currentColor"
d="M103 78l2 -14v-3q1 -11 -9 -11q-5 0 -13 9l-46 59q102 51 151 78v230h-128l-9 26h128l30 40l62 -41q11 -8 11 -16q0 -9 -12 -13l-20 -6v-201q33 -34 67 -50q62 -28 150 -28l497 1v-12q-22 -8 -31 -18q-8 -8 -11 -28h-425q-123 0 -195 51q-33 24 -69 71zM76 695
q60 0 92 -12q61 -24 61 -68q0 -17 -11 -27q-8 -8 -19 -8q-9 0 -19 9q-3 2 -36 41q-16 19 -72 51zM135 912q63 -2 96 -17q56 -24 56 -67q0 -20 -13 -31q-8 -7 -17 -7q-8 0 -16 7q-2 2 -48 55q-11 14 -61 45zM290 303l-9 26h280v106h-129v-52l-66 -10v391l69 -41h124v229
l81 -10q18 -2 18 -12q0 -9 -11 -14l-22 -9v-68h143l45 54l78 -65v-15h-266v-90h159l24 36l67 -45q10 -7 10 -14q0 -8 -12 -12l-19 -6v-278l-65 -9v41h-162v-106h180l46 55l83 -63v-18l-309 -1v-132l-66 -12l-1 144h-270zM432 575v-112h357v112h-357zM432 602h357l1 95h-358
v-95z" />
  </g>

</svg>
