<?xml version="1.0" standalone="no"?>
<!DOCTYPE svg PUBLIC "-//W3C//DTD SVG 1.1//EN" "http://www.w3.org/Graphics/SVG/1.1/DTD/svg11.dtd" >
<svg xmlns="http://www.w3.org/2000/svg" xmlns:xlink="http://www.w3.org/1999/xlink" version="1.1" viewBox="0 -410 2048 2048">
  <g transform="matrix(1 0 0 -1 0 1638)">
   <path fill="currentColor"
d="M1641 1239h65l69 76l84 -54q43 -28 43 -48q0 -32 -77 -59v-652q0 -140 -163 -171q-2 66 -43 93q-33 21 -159 44l8 46q165 -27 201 -27q57 0 57 57v637h-872v-785q0 -42 -57 -42q-55 0 -55 49q0 15 3 47q9 87 9 131v566q0 21 -7 124l-3 51l116 -83h66v540q-1 71 -7 135
l109 -85h499l69 76l84 -54q41 -27 41 -46q0 -22 -30 -38l-50 -26v-502zM1544 1239v278h-230v-278h230zM1216 1239v400l122 -66h206v198h-522v-532h194zM1112 996h328l60 69l72 -52q35 -24 35 -47q0 -26 -69 -55v-203l31 -27q25 -18 25 -29q0 -23 -19 -23h-463v-38
q0 -25 -34 -25q-74 0 -74 51l9 162v139q0 6 -9 165zM1112 685h328v254h-328v-254zM298 445q78 113 114 203q40 103 58 270h-236q-25 -6 -43 -6q-48 0 -48 20q0 6 38 56q158 204 244 366h-152q-62 0 -148 -11l-40 86q126 -18 188 -18h152l69 67l95 -82q16 -13 16 -29
q0 -22 -27 -30l-50 -15q-29 -40 -88 -128q-8 -13 -162 -220h188l62 66l91 -66q21 -15 21 -33q0 -19 -21 -27l-51 -19q-34 -165 -73 -247q-56 -117 -146 -208q17 -10 31 -24q89 -88 206 -126q198 -64 701 -64l216 2q272 3 458 14v-34q-90 -14 -105 -83h-62q-26 0 -154 2
q-111 2 -270 2q-511 -1 -712 57q-154 44 -258 142q-57 54 -84 54q-26 0 -74 -43q-23 -21 -59 -48v-36q0 -36 -17 -36q-18 0 -36 23l-62 82q85 46 135 74q70 41 95 47zM237 1936q274 -162 274 -280q0 -29 -19 -48q-16 -16 -37 -16q-33 0 -56 66q-29 86 -77 147
q-26 32 -107 104z" />
  </g>

</svg>
