<?xml version="1.0" standalone="no"?>
<!DOCTYPE svg PUBLIC "-//W3C//DTD SVG 1.1//EN" "http://www.w3.org/Graphics/SVG/1.1/DTD/svg11.dtd" >
<svg xmlns="http://www.w3.org/2000/svg" xmlns:xlink="http://www.w3.org/1999/xlink" version="1.1" viewBox="0 -204 1024 1024">
  <g transform="matrix(1 0 0 -1 0 820)">
   <path fill="currentColor"
d="M542 964q85 -19 85 -34q0 -14 -47 -17q-16 -14 -39 -27h277l37 37q55 -39 55 -54q0 -11 -32 -28v-150q0 -25 1 -33t1 -17q0 -23 -37 -29q-17 0 -17 11v15h-214q19 -8 30 -16q15 -10 22 -19q5 -6 5 -12q0 -13 -3 -21h230l28 28q32 -23 57 -49q3 -3 3 -6q0 -7 -18 -11
l-29 -6q-8 -11 -19 -23q-11 -13 -23 -23l-15 12q7 14 11 26q4 13 6 24h-178q23 -8 44 -16q38 -18 57 -30q19 -13 25 -21q8 -10 12 -18q3 -7 3 -15q0 -22 -20 -22q-4 0 -10 5q-7 5 -15 14l-29 26q-16 12 -40 26q-25 17 -70 41l6 10h-129l53 -32q3 -3 3 -10q0 -9 -17 -9
q-12 0 -28 2q-23 -20 -47 -34q-24 -15 -48 -26q-29 -13 -57 -21l-12 21q42 20 69 39q29 19 46 37q14 16 24 33h-154l-2 -20q-3 -20 -8 -34q-4 -11 -11 -19q-5 -8 -11 -10q-5 -3 -9 -3q-24 0 -24 17q0 5 7 14q18 21 26 35t12 32q5 17 6 46l13 -2q2 -15 2 -28h244
q-9 19 -18 29q-10 13 -28 27l9 12h-129v-8q0 -10 -12 -16q-15 -6 -25 -6q-13 0 -13 14q0 4 1 14q1 23 1 42v166q0 49 -2 68l55 -26h35q18 17 26 35q7 17 12 43zM464 666h362v44h-362v-44zM464 738h362v44h-362v-44zM464 810h362v48h-360l-2 -4v-44zM602 468q36 -13 57 -26
q19 -10 28 -21q6 -7 6 -14q0 -11 -2 -17h169l38 41q31 -24 59 -45q7 -5 7 -10q0 -14 -13 -14h-381q-4 -28 -11 -50q-1 -4 -2 -6h241l28 27q27 -16 51 -34q6 -7 6 -13q0 -13 -37 -27q-12 -51 -27 -78q-12 -26 -28 -38q-15 -13 -29 -19t-30 -8q-15 -4 -24 -4q0 23 -6 33
q-5 9 -21 14q-25 10 -77 20l4 17q103 -17 120 -17q9 0 15 2q7 1 13 6q6 4 16 17q9 12 16 32q8 19 10 42h-252q-5 -10 -10 -17q-14 -26 -33 -45q-19 -20 -47 -36q-29 -18 -69 -32l-15 19q39 18 62 35q22 17 38 35q14 17 25 36q10 20 17 46q5 19 8 43h-65q-71 -2 -97 -7
l-20 47q44 -12 117 -12h190q-11 19 -22 30q-13 15 -37 30zM122 956q30 -19 54 -40q27 -18 43 -35q17 -17 23 -31q6 -12 6 -24q0 -21 -6 -32q-9 -14 -22 -14q-8 0 -13 5q-7 4 -11 23q-7 24 -21 47q-12 22 -29 43q-15 20 -42 44zM40 698q40 -8 115 -8h29l38 32q29 -26 50 -49
q5 -6 5 -12q0 -12 -16 -20q-17 -6 -33 -9q-25 -66 -59 -134h57l30 35q28 -19 48 -38q6 -6 6 -11q-2 -8 -11 -15q-10 -8 -21 -12q-5 -45 -14 -85q-8 -35 -21 -68q-13 -37 -28 -62q-12 -22 -29 -42h18q0 -12 14 -24q40 -29 91 -45q46 -17 110 -26q68 -9 216 -9q156 0 341 19
v-18q-39 -6 -52 -48q-102 -5 -234 -5q-128 0 -204 8q-67 9 -122 24q-60 15 -108 43q-53 26 -76 58q-36 -45 -73 -81q0 -42 -9 -42q-13 0 -62 66q30 12 61 33q33 22 59 47h1q17 26 27 51q11 28 20 61q8 31 16 77q8 43 9 81h-74q-3 -6 -5 -9q-11 -13 -30 -13q-26 0 -26 13
q0 3 3 9q6 8 11 18q50 94 80 174h-33q-80 0 -97 -7z" />
  </g>

</svg>
