<?xml version="1.0" standalone="no"?>
<!DOCTYPE svg PUBLIC "-//W3C//DTD SVG 1.1//EN" "http://www.w3.org/Graphics/SVG/1.1/DTD/svg11.dtd" >
<svg xmlns="http://www.w3.org/2000/svg" xmlns:xlink="http://www.w3.org/1999/xlink" version="1.1" viewBox="0 -410 2048 2048">
  <g transform="matrix(1 0 0 -1 0 1638)">
   <path fill="currentColor"
d="M179 1667l-67 -7l-40 84q38 -3 67 -6q83 -9 120 -9h533l68 75l92 -68q27 -20 27 -41q0 -22 -27 -35l-55 -26q-100 -334 -160 -482q-45 -112 -108 -227l10 -20q189 -387 189 -508q0 -88 -55 -88q-34 0 -51 44q-8 20 -23 117q-18 118 -119 368q-191 -297 -453 -536l-31 30
q277 307 437 616q-81 188 -261 533l-68 137q-15 30 -25 49zM235 1672q164 -283 341 -639q94 204 222 639h-563zM1257 1790v-1419q0 -61 10 -181q4 -42 4 -64q0 -59 -63 -59q-46 0 -46 50v1610q0 81 -11 207l115 -85h485l64 82l105 -76q27 -20 27 -42q0 -27 -90 -53
q-117 -250 -296 -540q120 -98 188 -174q178 -202 178 -420q0 -276 -258 -328q-4 58 -60 88q-48 26 -170 57l9 39q164 -42 238 -42q135 0 135 206q0 122 -32 202q-87 213 -283 363q108 199 250 579h-499z" />
  </g>

</svg>
