<?xml version="1.0" standalone="no"?>
<!DOCTYPE svg PUBLIC "-//W3C//DTD SVG 1.1//EN" "http://www.w3.org/Graphics/SVG/1.1/DTD/svg11.dtd" >
<svg xmlns="http://www.w3.org/2000/svg" xmlns:xlink="http://www.w3.org/1999/xlink" version="1.1" viewBox="0 -140 1000 1000">
  <g transform="matrix(1 0 0 -1 0 860)">
   <path fill="currentColor"
d="M449 554v-352q0 -15 7 -22t15 -8t24 -1q48 0 62 38l23 66l15 -2l-7 -96l27 -17v-12q-35 -27 -88 -29l-62 -1q-45 -1 -61.5 15.5t-16.5 61.5l-1 377h-169v-72q0 -207 -29.5 -294.5t-126.5 -163.5l-10 9q68 75 86.5 146.5t18.5 253.5v176l61 -32h163l33 32h12l49 -45v-14z
M280 755v162l100 -21v-12l-36 -15v-114h125l43 50h15l54 -56v-17h-516v23h215zM856 871l32 31h13l47 -51v-13l-31 -12l-98 -225q72 -82 102 -139t30 -112q0 -77 -30.5 -119t-98.5 -67l-11 8l-10 31l-59 35v15l66 -10q37 -6 62.5 28.5t25.5 90.5q0 58 -25.5 113.5
t-74.5 125.5l58 248h-143l-5 -795l-51 -15l-10 8v860l70 -36h141z" />
  </g>

</svg>
