<?xml version="1.0" standalone="no"?>
<!DOCTYPE svg PUBLIC "-//W3C//DTD SVG 1.1//EN" "http://www.w3.org/Graphics/SVG/1.1/DTD/svg11.dtd" >
<svg xmlns="http://www.w3.org/2000/svg" xmlns:xlink="http://www.w3.org/1999/xlink" version="1.1" viewBox="0 -410 2048 2048">
  <g transform="matrix(1 0 0 -1 0 1638)">
   <path fill="currentColor"
d="M666 1667q183 52 292 120l96 -103q14 -14 14 -26q0 -17 -25 -17q-11 0 -21 2l-51 12q-195 -51 -305 -68v-338h191l98 102l121 -107q17 -15 17 -26q0 -26 -27 -26h-400v-249q0 -35 -6 -116h242l99 102l120 -107q18 -16 18 -26q0 -26 -28 -26h-454q-13 -180 -107 -343
q-110 -191 -363 -338l-20 28q181 131 272 274q106 167 123 379h-210q-118 0 -192 -8l-38 88q100 -23 230 -23h217q-2 11 -2 12l2 104v249h-183q-118 0 -191 -8l-39 88q97 -23 230 -23h183v324q-190 -22 -388 -31l-4 39l76 10q224 29 316 52v153q-2 125 -7 160l109 -24
q86 -19 86 -45q0 -27 -50 -41l-41 -12v-167zM1333 1787v-1420q0 -63 10 -181q4 -42 4 -62q0 -61 -64 -61q-20 0 -34 8q-11 7 -11 42v1611q0 80 -12 206l115 -85h418l64 82l105 -76q27 -20 27 -41q0 -28 -90 -54q-114 -230 -287 -513q121 -99 188 -174q182 -205 182 -434
q0 -276 -258 -329q-4 58 -60 88q-51 27 -170 57l9 39q163 -42 237 -42q136 0 136 199q0 207 -116 376q-96 140 -207 209q155 316 243 555h-429z" />
  </g>

</svg>
