<?xml version="1.0" standalone="no"?>
<!DOCTYPE svg PUBLIC "-//W3C//DTD SVG 1.1//EN" "http://www.w3.org/Graphics/SVG/1.1/DTD/svg11.dtd" >
<svg xmlns="http://www.w3.org/2000/svg" xmlns:xlink="http://www.w3.org/1999/xlink" version="1.1" viewBox="0 -140 1000 1000">
  <g transform="matrix(1 0 0 -1 0 860)">
   <path fill="currentColor"
d="M860 882l26 33h10l59 -43l-3 -13l-28 -13l-101 -231q78 -121 99 -169t21 -107q0 -133 -131 -168l-15 4l-7 36l-59 26l3 15l56 -8q29 -4 53.5 9t33.5 38q8 22 8 58q0 69 -17.5 125t-65.5 141l59 247h-143l-8 -819l-45 -10l-11 10v884l64 -45h142zM563 617l28 35h12l38 -45
v-13h-92l1 -141l-8 -10l-46 -10l-9 9l1 30h-406v23h214v99h-248v23h248v90h-223v23h223v82h-246v23h246l1 113l98 -13v-15l-38 -13v-72h177l34 41h13l58 -50v-14h-282v-82h121l31 29h15l47 -42v-13l-21 -20l-1 -67h14zM529 340l34 40l15 -1l51 -46v-17l-128 1
q-44 -90 -105 -139q19 -5 32 -8q108 -26 143 -65q23 -26 23 -53q0 -21 -18 -21q-10 0 -54 30q-53 36 -179 81q-127 -76 -294 -99l-10 11q160 34 249 104q-56 21 -161 33q-16 1 -16 10q0 8 11 25l59 91h-140v23h152l62 106l81 -42l-5 -13l-36 -2l-34 -49h268zM357 617h130v91
h-130v-91zM357 495h130v99h-130v-99zM246 317l-44 -63q-1 -2 -8 -11t-12.5 -16.5t-5.5 -9.5q0 -8 28 -8q20 0 129 -17q61 57 93 125h-180z" />
  </g>

</svg>
