<?xml version="1.0" standalone="no"?>
<!DOCTYPE svg PUBLIC "-//W3C//DTD SVG 1.1//EN" "http://www.w3.org/Graphics/SVG/1.1/DTD/svg11.dtd" >
<svg xmlns="http://www.w3.org/2000/svg" xmlns:xlink="http://www.w3.org/1999/xlink" version="1.1" viewBox="0 -410 2048 2048">
  <g transform="matrix(1 0 0 -1 0 1638)">
   <path fill="currentColor"
d="M363 736h-71q-16 -201 -45 -296q-45 -150 -147 -284l-27 17q91 197 114 371q20 159 20 397v163q0 106 -11 174l114 -71h449q-13 10 -23 37q-13 37 -75 88l18 31q98 -41 123 -63q30 -26 30 -59q0 -19 -17 -34h244l79 81l114 -86q17 -13 17 -28q0 -26 -26 -26h-350v-137
h183l62 71l72 -49q41 -28 41 -49q0 -16 -65 -52v-86v-31q5 -55 5 -65q0 -60 -62 -60q-36 0 -36 28v18h-254l61 -18q65 -18 71 -23q14 -10 14 -23q0 -20 -49 -40l-26 -11v-106h117l80 81l114 -86q16 -13 16 -26q0 -27 -24 -27h-303v-203q152 38 321 104l16 -36
q-133 -87 -328 -177l-3 -26q-5 -35 -24 -35q-18 0 -31 25l-63 124l17 5v379q0 78 -6 119h-409l51 -13q69 -18 79 -29q7 -7 7 -16q0 -26 -51 -43l-24 -8v-112h73l82 81l113 -86q16 -13 16 -27q0 -26 -27 -26h-257v-206q92 19 268 78l16 -31q-134 -87 -271 -148l-4 -41
q-3 -25 -23 -25q-23 0 -52 61l-41 85l14 3v388q-4 106 -6 115zM486 793v164h-184l-8 -164h192zM486 1011v137h-184v-137h184zM794 793v164h-215v-164h215zM794 1011v137h-215v-137h215zM893 957v-164h200v164h-200zM220 1792l-39 86q126 -18 188 -18h93l80 81l112 -86
q17 -13 17 -26q0 -26 -27 -26h-275q-69 0 -149 -11zM768 1734l91 -53h239l61 72l73 -50q42 -29 42 -49q0 -16 -64 -52v-238q0 -36 -53 -36q-43 0 -43 36v259h-247v-231q0 -33 -66 -33q-33 0 -33 27v348zM927 1596q159 -126 159 -199q0 -55 -44 -55q-18 0 -31 10
q-15 11 -26 59q-14 64 -87 163zM775 1792l-40 86q126 -18 188 -18h137l77 81l117 -86q16 -12 16 -26q0 -26 -26 -26h-321q-69 0 -148 -11zM188 1734l91 -53h249l61 72l73 -50q42 -29 42 -49q0 -17 -65 -52v-228q0 -21 -6 -25q-19 -13 -57 -13q-34 0 -34 28v259h-255v-284
q0 -32 -66 -32q-33 0 -33 26v401zM350 1596q150 -117 150 -194q0 -52 -46 -52q-18 0 -30 12q-11 11 -30 91q-7 30 -70 121zM1467 1810v-1408q0 -60 10 -181q4 -43 4 -63q0 -60 -64 -60q-45 0 -45 48v1601q0 82 -11 206l115 -85h288l64 82l104 -76q27 -20 27 -41
q0 -27 -89 -54q-79 -190 -195 -429q-31 -67 -46 -97q113 -101 167 -166q161 -195 161 -392q0 -264 -258 -316q-3 52 -44 79q-35 22 -126 52l9 39q126 -29 177 -29q136 0 136 194q0 295 -278 530q94 218 194 566h-300z" />
  </g>

</svg>
