<?xml version="1.0" standalone="no"?>
<!DOCTYPE svg PUBLIC "-//W3C//DTD SVG 1.1//EN" "http://www.w3.org/Graphics/SVG/1.1/DTD/svg11.dtd" >
<svg xmlns="http://www.w3.org/2000/svg" xmlns:xlink="http://www.w3.org/1999/xlink" version="1.1" viewBox="0 -204 1024 1024">
  <g transform="matrix(1 0 0 -1 0 820)">
   <path fill="currentColor"
d="M32 924q43 -10 114 -10h218l44 46q32 -25 62 -47q8 -5 8 -11q0 -18 -10 -18h-154v-150h70l32 44q36 -24 52 -43q6 -7 6 -15q0 -9 -36 -30v-490q0 -73 3 -96q1 -30 1 -46q0 -14 -10 -24q-12 -6 -20 -6q-22 0 -22 14v38h-278v-44q0 -12 -22 -12q-7 0 -20 6q-12 8 -12 24
t3 46q7 22 7 96v512q0 39 -10 70l62 -44h50v150h-24q-69 -1 -96 -4zM112 108h278v333q-17 -3 -46 -3q-39 0 -53 12q-17 13 -21 42v212h-56v-32q0 -55 -4 -97q-5 -43 -20 -82q-12 -43 -29 -74q-20 -32 -49 -64v-247zM314 704v-196q2 -22 30 -22q10 0 42 2h4v216h-76zM270 734
v150h-56v-150h56zM112 396q11 17 17 34q13 28 23 58q8 28 14 71q4 42 4 113v32h-58v-308zM302 332q30 -20 54 -42q8 -4 8 -10q0 -14 -14 -14h-212v26h124zM522 928l62 -30h282l30 30q50 -30 50 -44q0 -10 -26 -26v-197q10 -7 18 -13q4 -2 4 -6q0 -18 -6 -18h-366v-14
q0 -9 -12 -16q-13 -6 -22 -6q-14 0 -14 14v326zM570 654h300v216h-300v-216zM898 496q-52 -8 -108 -15q-28 -3 -56 -5v-170h96l46 48q34 -27 66 -49q8 -5 8 -13q0 -16 -12 -16h-204v-174h136l44 46q36 -25 68 -47q8 -5 8 -11q0 -18 -10 -18h-406q-69 -1 -96 -4l-18 44
q43 -10 114 -10h112v174h-76q-69 -1 -96 -2l-18 44q43 -12 114 -12h76v166q-18 -2 -38 -3q-58 -6 -148 -9l-4 22q48 2 101 7q50 5 98 14q53 10 87 20q36 8 62 17q18 8 36 18q34 -24 61 -44q5 -6 5 -10q0 -12 -10 -12q-14 0 -38 4z" />
  </g>

</svg>
