<?xml version="1.0" standalone="no"?>
<!DOCTYPE svg PUBLIC "-//W3C//DTD SVG 1.1//EN" "http://www.w3.org/Graphics/SVG/1.1/DTD/svg11.dtd" >
<svg xmlns="http://www.w3.org/2000/svg" xmlns:xlink="http://www.w3.org/1999/xlink" version="1.1" viewBox="0 -410 2048 2048">
  <g transform="matrix(1 0 0 -1 0 1638)">
   <path fill="currentColor"
d="M505 617l91 90l110 -96q17 -14 17 -24q0 -26 -27 -26h-243q-66 0 -142 -10l-39 88q96 -22 181 -22h52zM751 187h-489v-72q0 -37 -50 -37q-62 0 -58 56l4 60l4 80l4 76v1060l-5 74q-4 68 -10 104l123 -91h84v263h-42q-119 0 -192 -8l-38 88q99 -23 230 -23h387l99 102
l120 -107q17 -15 17 -26q0 -26 -27 -26h-286v-263h105l68 76l83 -54q40 -26 40 -48q0 -27 -77 -61v-1037q0 -55 11 -223q1 -8 1 -13q0 -46 -70 -46q-36 0 -36 24v72zM751 244v625h-31h-25h-40h-26q-52 0 -75 21q-20 19 -20 99v451h-88v-111q0 -198 -49 -324
q-39 -98 -121 -182l-14 19v-598h489zM358 1440h-96v-560q96 162 96 367v193zM626 1440v-453q0 -36 29 -36h96v489h-125zM534 1497v263h-88v-263h88zM1000 1588l-39 88q94 -24 230 -24h200v153q0 120 -8 160l105 -24q83 -19 83 -46q0 -26 -50 -41l-36 -12v-190h272l88 88
l119 -92q18 -13 18 -27q0 -25 -26 -25h-471v-238h265l68 76l84 -54q40 -26 40 -49q0 -27 -78 -61v-1032q0 -121 -143 -143q0 48 -17 67q-27 31 -118 49l8 42q91 -19 128 -19q47 0 47 61v266h-284v-129q0 -100 11 -209q3 -32 3 -50q0 -46 -54 -46t-54 42v392h-272v-415
q0 -53 -56 -53q-51 0 -51 47q0 15 4 48q12 101 12 209v913q0 69 -16 136l117 -88h262v238h-200q-116 0 -191 -8zM1485 936v-319h284v319h-284zM1119 992h272v310h-272v-310zM1485 1302v-310h284v310h-284zM1119 617h272v319h-272v-319zM1595 1936q106 -38 153 -61
q77 -36 77 -93q0 -53 -46 -53q-25 0 -59 53q-37 58 -141 120z" />
  </g>

</svg>
