<?xml version="1.0" standalone="no"?>
<!DOCTYPE svg PUBLIC "-//W3C//DTD SVG 1.1//EN" "http://www.w3.org/Graphics/SVG/1.1/DTD/svg11.dtd" >
<svg xmlns="http://www.w3.org/2000/svg" xmlns:xlink="http://www.w3.org/1999/xlink" version="1.1" viewBox="0 -140 1000 1000">
  <g transform="matrix(1 0 0 -1 0 860)">
   <path fill="currentColor"
d="M414 482l61 -23h26v184h-93v21h93v270l97 -21v-12l-32 -17v-220h31l30 39h14l42 -46v-14h-117v-184h19l25 24h16l46 -37v-16l-22 -14l-1 -269l-6 -10l-44 -11l-14 5v41h-105v-35l-7 -11l-50 -12l-9 7v361zM480 193h105v244h-105v-244zM860 890l28 25h14l47 -37v-14
l-23 -15v-704q0 -58 -15.5 -73t-94.5 -32l-8 5v27l-75 36l1 13l85 -7q31 0 37.5 5.5t6.5 34.5v233h-101q-11 -126 -40.5 -200t-96.5 -146l-11 9q38 59 55 129q7 29 12 60t8 69t5 65.5t3 75t1.5 70t0.5 78.5v75l-2 245l67 -27h96zM762 408h101v217h-100v-108q0 -76 -1 -109z
M763 647h100v223h-100v-223zM352 879l37 49h13l54 -52v-19h-156v-165h23l23 32h13l48 -40v-16l-14 -22l1 -540l-9 -10l-46 -13l-9 6l-1 32h-207l-1 -30l-8 -11l-46 -12l-8 9v644l64 -29h39q4 71 4 165h-125v23zM223 693l17 -1v165h-12zM122 670v-220q19 47 26.5 87.5
t13.5 132.5h-40zM122 412v-90h207v138h-36q-29 0 -41 15t-12 52v143h-19q-8 -94 -27.5 -145t-71.5 -113zM329 514v156h-29v-123q0 -17 4.5 -25.5t11 -8t13.5 0.5zM122 300v-156h207v156h-207z" />
  </g>

</svg>
