<?xml version="1.0" standalone="no"?>
<!DOCTYPE svg PUBLIC "-//W3C//DTD SVG 1.1//EN" "http://www.w3.org/Graphics/SVG/1.1/DTD/svg11.dtd" >
<svg xmlns="http://www.w3.org/2000/svg" xmlns:xlink="http://www.w3.org/1999/xlink" version="1.1" viewBox="0 -204 1024 1024">
  <g transform="matrix(1 0 0 -1 0 820)">
   <path fill="currentColor"
d="M36 914q43 -12 116 -12h206l44 48q36 -27 68 -49q8 -5 8 -13q0 -16 -10 -16h-154v-146h66l28 30q52 -30 52 -44q0 -10 -30 -26v-622q0 -17 -32 -22q-14 0 -14 8v36h-268v-44q0 -14 -22 -14q-8 0 -20 6q-12 10 -12 24q0 16 4 46q6 23 6 96v502q0 39 -10 68l62 -44h50v146
h-22q-71 0 -98 -2zM116 112h268v304q-17 -4 -44 -4q-38 0 -51 14q-16 12 -19 38v234h-52v-26q0 -50 -5 -89q-4 -39 -16 -75q-14 -38 -30 -66q-20 -33 -51 -66v-264zM314 698v-220q2 -22 26 -22q7 0 40 4h4v238h-70zM270 726v146h-52v-146h52zM116 416q12 20 19 35
q12 28 22 53q8 26 13 66q4 37 4 102v26h-58v-282zM298 302q30 -22 54 -40q6 -3 6 -10q0 -16 -12 -16h-204v30h120zM664 960q20 -9 38 -21q20 -12 30 -22q13 -9 19 -17q5 -8 5 -16q0 -18 -6 -29l-1 -1h147l28 30q32 -21 59 -50q3 -2 3 -4q0 -8 -17 -13q-17 -3 -31 -7
q-11 -21 -31 -40q-16 -24 -37 -40l-16 12q16 21 27 44q10 19 15 40h-104v-150q4 -18 66 -18q22 0 88 2q28 0 30 -18q-3 -20 -29 -24q-25 -4 -89 -4q-60 0 -86 11q-23 14 -30 39v162h-91q27 -12 45 -26q12 -7 12 -12q0 -4 -17 -8q-19 -6 -37 -6q-21 -49 -39 -77
q-19 -31 -38 -51q-23 -27 -50 -46q-26 -22 -53 -30l-6 10q31 23 45 36q18 18 33 40q14 18 34 54q17 34 27 68q8 18 18 48h-82q-1 -16 -3 -31q-4 -24 -13 -43q-5 -12 -14 -22q-6 -11 -13 -14q-7 -4 -14 -4q-22 0 -22 18q0 7 8 16q25 28 35 45q9 19 16 40q5 23 7 57h14v-34
h169q-1 4 -2 7q-5 14 -16 29q-9 17 -18 29q-11 13 -31 31zM624 628q43 -12 76 -28q8 -7 8 -12q0 -9 -13 -13q-19 -5 -37 -5q-15 -33 -33 -62h251l44 46l60 -48q6 -4 6 -10q0 -14 -10 -14h-268v-118h128l44 44q30 -22 59 -46q7 -3 7 -8q0 -18 -10 -18h-228v-106h132l44 46
q36 -25 66 -47q8 -5 8 -11q0 -18 -12 -18h-238v-92q0 -21 2 -30q2 -16 2 -28q0 -32 -32 -32q-26 0 -26 14q0 23 2 56q2 34 2 60v334h-53q-12 -22 -28 -40q-23 -30 -48 -52q-21 -25 -59 -48l-14 12q36 30 60 63q30 38 54 80q26 43 42 86q9 23 12 45z" />
  </g>

</svg>
