<?xml version="1.0" standalone="no"?>
<!DOCTYPE svg PUBLIC "-//W3C//DTD SVG 1.1//EN" "http://www.w3.org/Graphics/SVG/1.1/DTD/svg11.dtd" >
<svg xmlns="http://www.w3.org/2000/svg" xmlns:xlink="http://www.w3.org/1999/xlink" version="1.1" viewBox="0 -410 2048 2048">
  <g transform="matrix(1 0 0 -1 0 1638)">
   <path fill="currentColor"
d="M590 1301v-286h174l87 89l123 -95q17 -13 17 -26q0 -26 -27 -26h-374v-609q231 63 384 127l15 -35q-153 -87 -438 -184q-10 -3 -329 -100l-11 -42q-7 -32 -23 -32q-13 0 -30 32l-70 130q192 27 384 74l22 6v633h-168q-117 0 -192 -8l-38 88q95 -22 230 -22h168v286h-28
q-119 0 -192 -8l-38 88q100 -23 230 -23h212l86 90l123 -95q17 -13 17 -26q0 -26 -27 -26h-287zM598 1852l22 -13q110 -66 217 -154q141 -115 141 -192q0 -60 -49 -60q-40 0 -86 87q-84 158 -272 303q-51 -116 -162 -260q-127 -164 -316 -288l-21 25q331 268 438 659
l133 -43q37 -12 37 -31q0 -21 -47 -28zM1512 1223h251l85 90l124 -95q17 -13 17 -26q0 -26 -27 -26h-450v-768q0 -95 13 -219q3 -32 3 -50q0 -46 -55 -46q-57 0 -57 42v1041h-203q-119 0 -191 -8l-39 88q100 -23 230 -23h203v561q0 114 -8 160l109 -24q86 -19 86 -45
t-50 -42l-41 -13v-597zM171 837q202 -199 202 -307q0 -46 -34 -73q-13 -10 -29 -10q-43 0 -48 82q-6 85 -41 160q-15 34 -78 128zM835 847l132 -59q29 -13 29 -28q0 -21 -29 -25l-58 -8q-28 -38 -41 -57q-56 -78 -163 -186l-30 21q101 165 160 342z" />
  </g>

</svg>
