<?xml version="1.0" standalone="no"?>
<!DOCTYPE svg PUBLIC "-//W3C//DTD SVG 1.1//EN" "http://www.w3.org/Graphics/SVG/1.1/DTD/svg11.dtd" >
<svg xmlns="http://www.w3.org/2000/svg" xmlns:xlink="http://www.w3.org/1999/xlink" version="1.1" viewBox="0 -120 1000 1000">
  <g transform="matrix(1 0 0 -1 0 880)">
   <path fill="currentColor"
d="M192 957l87 -20q16 -4 16 -13q0 -8 -15 -13l-18 -7q81 -35 110 -59q53 -43 53 -83q0 -20 -16 -31q-6 -4 -13 -4q-13 0 -37 38q-59 91 -110 125q-21 -46 -55 -108q-38 -69 -66 -110h178l39 48l68 -58v-17h-150v-135h60l41 49l70 -60v-16h-171v-306l177 24l2 -17
q-156 -50 -332 -95l-6 -15q-6 -14 -14 -14t-15 16l-31 76q78 7 156 17v314h-141l-12 27h153v135h-89q-40 -59 -63 -84l-13 7q108 194 157 389zM57 423l11 13q28 -24 49 -54q42 -60 42 -107q0 -30 -16 -45q-9 -9 -20 -9q-27 0 -27 52q-1 46 -7 75q-7 31 -32 75zM341 440
l75 -27q15 -5 15 -14q0 -8 -15 -11l-20 -5l-82 -166l-15 5zM508 327v-22q0 -16 -10 -16q-5 0 -11 10l-36 60q62 60 88 104l34 69l38 -40l-34 -21q27 -69 90 -147q60 97 95 203l78 -35q11 -5 11 -13q0 -11 -16 -12l-22 -2q-56 -112 -105 -181q35 -36 106 -82q68 -42 148 -74
l-6 -14q-40 -1 -61 -42q-150 88 -219 173q-120 -127 -306 -187l-6 15q11 7 19 10q84 43 137 82q57 44 122 122q-59 102 -79 162q-28 -57 -55 -122zM436 434l-10 10q95 139 141 269l73 -34q12 -6 12 -13q0 -9 -15 -12l-18 -4q-94 -121 -117 -148.5t-66 -67.5zM448 745l-9 27
h198v183l84 -9q19 -2 19 -13q0 -9 -14 -15l-24 -10v-136h129l44 51l80 -61v-17h-507zM717 691l8 14q80 -31 133 -71q77 -60 77 -110q0 -21 -14 -31q-7 -6 -16 -6q-19 0 -38 34q-37 63 -62 93q-33 39 -88 77z" />
  </g>

</svg>
