<?xml version="1.0" standalone="no"?>
<!DOCTYPE svg PUBLIC "-//W3C//DTD SVG 1.1//EN" "http://www.w3.org/Graphics/SVG/1.1/DTD/svg11.dtd" >
<svg xmlns="http://www.w3.org/2000/svg" xmlns:xlink="http://www.w3.org/1999/xlink" version="1.1" viewBox="0 -410 2048 2048">
  <g transform="matrix(1 0 0 -1 0 1638)">
   <path fill="currentColor"
d="M1800 1050q-12 -5 -17 -6t-13 -3l-117 -31q-40 -11 -139 -33l-22 -5v-746q0 -40 -10 -66q-10 -27 -28 -44q-19 -18 -47 -34q-28 -17 -39 -19l-31 -7q-4 17 -8 36q-4 20 -17 36t-44 30q-31 15 -76 23l-61 11l8 46q49 -9 74 -12l53 -7q49 -8 74 -9q26 -1 42 13q15 14 15 45
v685q-15 -4 -29 -7q-13 -3 -76 -13q-62 -10 -169 -31l-66 -13l-8 -39q-5 -21 -11 -29t-19 -5q-7 1 -16 10q-9 10 -16 26l-55 123q20 11 44 25l54 36q32 20 80 56q48 37 106 88q58 50 94 86q35 35 72 76q36 42 43 49l15 17q-9 -3 -28 -8q-18 -6 -62 -18t-128 -31l-98 -22
l-44 -11l-12 -44q-4 -15 -11 -22q-7 -8 -14 -7q-7 0 -15 9q-9 9 -17 27l-55 117l19 8q11 4 47 37q35 33 64 68t76 113q47 77 78 142q30 64 51 125l29 84l154 -67q18 -8 24 -16q7 -7 6 -16q-2 -9 -12 -16q-11 -8 -30 -9l-61 -6q-14 -29 -31 -61t-76 -117q-60 -85 -92 -124
q-33 -39 -77 -84l-41 -42q37 5 57 8l101 13q56 7 123 19l102 18l34 6q9 11 19 24q9 13 32 47t58 100l38 72l133 -93q18 -13 23 -21t1 -16q-4 -9 -15 -13q-12 -4 -32 -2l-53 4l-59 -81q-28 -37 -77 -96q-49 -60 -98 -109t-107 -96t-123 -93t-102 -67l-95 -56q26 2 80 7l99 10
q45 5 102 13l170 25q113 16 147 22q35 7 72 15t49 10l13 2l-21 31q-9 13 -43 56q-35 44 -49 59l-36 36l28 29q64 -48 100 -78t77 -70q42 -39 64 -68q22 -30 43 -69t23 -73q1 -33 -12 -51q-14 -18 -37 -21q-23 -2 -35 10q-13 13 -25 46t-23 58l-22 50zM507 1854
q15 -11 23 -16l22 -15q37 -26 58 -42q20 -16 78 -65t88 -77q29 -28 48 -58t27 -55.5t-1 -52.5q-6 -18 -18 -27t-28 -10q-16 -2 -34 12q-12 8 -20 20q-9 13 -27 53t-41 75q-23 36 -52 72q-30 36 -60 69t-50 51l-29 28l-10 8l-14 -34q-11 -26 -38 -84q-27 -59 -59 -112
q-31 -53 -70 -104q-39 -52 -86 -100q-46 -49 -101 -92l-47 -37l-26 27l59 57q29 29 67 77q38 47 76 109q39 62 62 111q22 49 40 98q19 48 30 82q11 33 18 58l9 40l8 36l119 -33q19 -6 34 -14q16 -8 18 -20q1 -12 -10 -20q-12 -8 -30 -10zM138 837l51 -52q17 -18 49 -55
q31 -38 52 -67q20 -29 32 -61q13 -31 16 -63t-6 -52q-9 -18 -27 -30t-35 -8q-27 5 -34 28q-6 23 -8 51q-1 27 -6 56q-5 28 -12 51q-8 23 -22 53q-14 29 -26 48q-11 19 -37 59l-15 22zM679 831l136 -46q17 -6 24 -13.5t7 -14.5q-1 -8 -8 -16q-8 -8 -18 -10l-58 -13l-32 -51
l-50 -77q-36 -56 -48 -70l-51 -62l-32 19l27 56q12 27 32 80l36 103q17 50 23 71zM1617 726l24 26l43 -38l45 -39q23 -21 54 -54l65 -72q34 -39 50 -63q17 -23 36 -56q19 -34 30 -62q11 -27 12 -56q0 -28 -17 -48t-43 -16q-25 3 -34 18q-10 15 -17 40t-19 58q-13 34 -26 62
q-13 27 -34 63q-20 36 -44 73q-23 37 -42 62t-62 77zM1120 757l122 -56q37 -18 35 -41t-47 -25l-48 -3l-36 -69q-17 -32 -46 -77q-28 -44 -60 -84q-33 -40 -82 -93q-50 -53 -85 -78l-19 -14l-23 27l49 58q25 31 48 61q22 30 44 66t44 79q21 42 44 95q24 53 39 95zM419 301
v612h-104q-27 0 -101 -3q-75 -3 -77 -3l-14 -2l-38 88l34 -7q20 -4 59 -10q39 -5 137 -5h104v301h-47q-24 0 -57 -2q-33 -3 -39 -4q-6 0 -28 -2l-25 -3l-39 86q27 -5 48 -8q22 -3 40 -5q17 -1 50 -3t50 -2h205l86 90l124 -95q8 -7 13 -14q6 -8 2 -20q-4 -11 -12 -14
q-7 -4 -14 -4h-261v-301h129l86 89l123 -95q8 -7 13 -14q6 -7 3 -19q-3 -11 -11 -15t-15 -4h-328v-590q14 3 28 7l111 28q98 26 117 33l53 16l14 -39l-74 -34q-34 -15 -94 -38q-61 -23 -130 -45l-147 -45l-131 -41l-43 -12l-11 -42l-5 -21q-7 -12 -20 -11q-8 0 -12 3
q-4 4 -16 27l-70 131q27 4 42 7l104 16l141 28q22 4 25 5z" />
  </g>

</svg>
