<?xml version="1.0" standalone="no"?>
<!DOCTYPE svg PUBLIC "-//W3C//DTD SVG 1.1//EN" "http://www.w3.org/Graphics/SVG/1.1/DTD/svg11.dtd" >
<svg xmlns="http://www.w3.org/2000/svg" xmlns:xlink="http://www.w3.org/1999/xlink" version="1.1" viewBox="0 -140 1000 1000">
  <g transform="matrix(1 0 0 -1 0 860)">
   <path fill="currentColor"
d="M421 538h297l51 186l88 -38l-4 -15l-27 -3l-88 -131l97 1l28 42h15l55 -48v-16h-235v-164h100l28 46h15l49 -51v-18h-192v-261l-8 -10l-51 -6l-5 8v269h-193v23h193v164h-213v22zM430 763h204v161l105 -14v-15l-41 -13v-119h132l28 41h14l52 -48v-15h-494v22zM484 709
l10 10q103 -72 103 -126q0 -19 -8.5 -32t-20.5 -13q-24 0 -32 35q-13 78 -52 126zM334 889l-8 -21l-38 2q-10 -19 -14 -31q30 -17 37 -20q93 -45 93 -102q0 -34 -24 -34q-14 0 -27 30q-27 61 -87 111q-74 -161 -196 -266l-10 14q63 75 107.5 168t56.5 183zM150 623h142
l33 42h16l44 -47v-17h-97v-123h32l35 46l14 -1l44 -52v-15h-125v-193l74 148l71 -46l-5 -12l-26 -2l-114 -129v-34l120 30l3 -14l-278 -113l-7 -27l-13 -5l-39 84l150 33v280h-141v22h141v123h-74v22zM99 362l11 8q99 -80 99 -131q0 -41 -33 -41q-25 0 -31 33
q-12 68 -18.5 84.5t-27.5 46.5z" />
  </g>

</svg>
