<?xml version="1.0" standalone="no"?>
<!DOCTYPE svg PUBLIC "-//W3C//DTD SVG 1.1//EN" "http://www.w3.org/Graphics/SVG/1.1/DTD/svg11.dtd" >
<svg xmlns="http://www.w3.org/2000/svg" xmlns:xlink="http://www.w3.org/1999/xlink" version="1.1" viewBox="0 -140 1000 1000">
  <g transform="matrix(1 0 0 -1 0 860)">
   <path fill="currentColor"
d="M775 860l4 10q74 -25 95 -40.5t21 -50.5q0 -30 -19 -30q-12 0 -25 22q-23 39 -76 89zM934 312l11 -6l-14 -152l17 -86l-6 -13q-26 1 -43 12.5t-51 51.5q-142 166 -167 546l-309 -16v21l312 15q-3 13 -3 20v85q0 7 -1 41t-1 40v56l96 -14v-13l-32 -18l-1 -191l118 6l29 46
l9 1l56 -55v-9l-211 -11q6 -97 24 -207t40 -152l63 -119q15 -20 19 -20q3 0 9 22zM523 581l10 16q29 -21 35 -25q86 -59 86 -102q0 -14 -8 -30t-17 -16q-12 0 -35 59q-19 50 -71 98zM624 363l10 11q68 -56 92 -86t24 -66q0 -20 -9 -38t-18 -18q-12 0 -31 67q-22 83 -68 130z
M664 229l-10 -121l26 -14v-14q-22 -27 -95 -27h-37q-43 0 -58.5 17t-15.5 64v396l91 -14v-12l-28 -21v-353q0 -22 19 -22h32q28 0 35 30l21 91h20zM289 490l37 40h11l55 -51v-12l-143 1l1 -182l87 131l68 -40l-3 -12l-36 -6l-117 -121v-74l115 17l2 -13l-253 -79l-8 -34
l-13 -1l-37 87l132 15v312h-136v22h136v124h-66q-24 -27 -61 -58l-12 10q123 147 175 355l85 -32l-1 -11l-33 -10l-6 -16q70 -32 97.5 -56.5t27.5 -58.5q0 -42 -21 -42q-12 0 -22 19q-34 61 -46 75.5t-45 39.5q-53 -107 -122 -193h145l33 37h11l47 -47v-12h-124v-124h40z
M436 372l14 2q3 -58 3 -81q0 -53 -12.5 -88.5t-23.5 -46t-19 -10.5q-9 0 -18.5 15t-9.5 30q0 22 26 46q22 21 28.5 43t11.5 90zM75 382l9 6q12 -16 37 -43q52 -56 52 -97q0 -17 -6 -31.5t-13 -21t-11 -6.5q-17 0 -22 53q-3 28 -46 140z" />
  </g>

</svg>
