<?xml version="1.0" standalone="no"?>
<!DOCTYPE svg PUBLIC "-//W3C//DTD SVG 1.1//EN" "http://www.w3.org/Graphics/SVG/1.1/DTD/svg11.dtd" >
<svg xmlns="http://www.w3.org/2000/svg" xmlns:xlink="http://www.w3.org/1999/xlink" version="1.1" viewBox="0 -410 2048 2048">
  <g transform="matrix(1 0 0 -1 0 1638)">
   <path fill="currentColor"
d="M1648 1064l109 -24q86 -19 86 -46q0 -25 -50 -41l-41 -14v-659q0 -31 16 -40q19 -10 79 -10q41 0 57 4q38 9 44 9q26 0 48 -33q12 -17 12 -29q0 -42 -145 -42q-122 0 -166 27q-41 25 -41 79v659q0 117 -8 160zM1343 1050l109 -24q85 -18 85 -45q0 -26 -50 -42l-41 -13
v-479q0 -137 9 -202q5 -32 5 -50q0 -45 -52 -45q-57 0 -57 54v687q0 117 -8 159zM1046 1073l109 -24q86 -19 86 -45q0 -25 -51 -42l-39 -14v-183q0 -244 -61 -397q-57 -144 -209 -282l-19 29q93 119 136 235q56 155 56 453v110q0 116 -8 160zM1348 1624q-60 -103 -147 -209
q-4 -6 -129 -137q296 12 647 53q-57 68 -146 142l34 38q12 -9 18 -13q60 -42 124 -92q90 -71 119 -100q71 -69 71 -129q0 -63 -57 -63q-24 0 -38 15q-10 12 -41 82q-16 36 -51 80q-236 -53 -629 -106l-13 -37q-9 -26 -24 -26q-17 0 -28 20l-68 121q116 98 246 361h-113
q-68 0 -149 -11l-39 86q125 -18 188 -18h138q39 84 93 267l161 -56q25 -9 25 -26q0 -24 -42 -29l-61 -8q-35 -85 -64 -148h355l98 101l121 -106q17 -16 17 -26q0 -26 -27 -26h-589zM195 811q201 -199 201 -310q0 -32 -16.5 -55.5t-38.5 -23.5q-52 0 -56 81q-4 82 -40 161
q-11 23 -77 127zM560 1876q361 -249 361 -363q0 -65 -50 -65q-30 0 -52 27q-11 13 -36 68q-75 161 -240 305q-72 -178 -150 -293q-94 -140 -262 -270l-26 27q285 265 365 667l119 -33q51 -14 51 -34q0 -24 -39 -30zM485 1292h-66q-68 0 -146 -11l-40 86q124 -18 186 -18h204
l85 89l123 -94q16 -13 16 -26q0 -26 -27 -26h-240v-292h106l84 89l123 -95q16 -12 16 -26q0 -26 -26 -26h-303v-610q146 32 319 87l13 -40q-165 -78 -462 -165q-87 -26 -181 -54l-11 -42q-8 -32 -23 -32q-14 0 -30 30l-70 131q144 21 329 59l21 5v631h-122q-118 0 -190 -8
l-38 88q97 -22 228 -22h122v292zM771 833l131 -59q28 -13 28 -28q0 -22 -28 -25l-58 -8q-27 -38 -40 -57q-56 -79 -162 -186l-30 21q104 175 159 342z" />
  </g>

</svg>
