<?xml version="1.0" standalone="no"?>
<!DOCTYPE svg PUBLIC "-//W3C//DTD SVG 1.1//EN" "http://www.w3.org/Graphics/SVG/1.1/DTD/svg11.dtd" >
<svg xmlns="http://www.w3.org/2000/svg" xmlns:xlink="http://www.w3.org/1999/xlink" version="1.1" viewBox="0 -204 1024 1024">
  <g transform="matrix(1 0 0 -1 0 820)">
   <path fill="currentColor"
d="M221 956q50 -10 85 -24q8 -3 8 -11t-18 -12q-17 -4 -32 -5q36 -22 64 -45q33 -25 51 -43q19 -17 28 -29q7 -11 11 -22q4 -9 4 -19q-1 -30 -22 -30q-7 0 -13 4q-6 6 -27 43t-47 66q-24 27 -61 59q-8 -26 -18 -47q-17 -33 -38 -65q-23 -34 -43 -58q-15 -20 -30 -34
q39 -6 90 -6h79l38 41q31 -24 59 -45q7 -5 7 -10q0 -14 -13 -14h-123v-132h72l37 38q30 -22 56 -43q7 -4 7 -9q0 -14 -12 -14h-160v-318q51 19 116 48l4 -22q-55 -36 -97 -57q-46 -23 -87 -41q-38 -18 -81 -30q-11 -37 -18 -37q-8 0 -49 84q60 9 108 22q27 7 56 16v335h-55
q-71 -2 -97 -7l-20 47q44 -12 117 -12h55v132q-70 -2 -96 -7l-10 24q-24 -24 -51 -43l-19 22q33 26 58 55q23 30 46 63q23 37 41 71q15 32 25 61q9 26 15 60zM85 412q31 -36 49 -72q15 -25 25 -54q7 -20 7 -37q0 -12 -6 -25q-11 -12 -20 -12t-16 5q-9 9 -9 23q-5 59 -15 89
q-8 31 -28 74zM345 428q43 -15 75 -29q5 -6 5 -11q0 -9 -16 -13q-19 -3 -27 -3q-8 -27 -18 -52q-10 -23 -21 -42t-27 -38l-16 10q11 25 18 47q6 20 12 43q6 24 10 45q3 19 5 43zM874 902l34 42q37 -23 55 -43q7 -7 7 -13q0 -9 -39 -32v-133q9 -6 16 -12q5 -3 5 -7
q0 -14 -9 -14h-435v-130q0 -92 -5 -160q-4 -60 -12 -108q-9 -40 -21 -68q-12 -36 -28 -64q-18 -36 -40 -60q-21 -28 -48 -52l-18 18q21 23 40 54q17 23 29 54q14 31 24 62q12 34 18 81q7 46 10 100q3 73 3 143q4 256 -12 382l68 -40h358zM508 874v-156h372l4 4v152h-376z
M524 546q44 -12 117 -12h75v46q0 53 -6 80q46 -9 75 -18q11 -4 11 -11q0 -5 -7 -9q-11 -6 -25 -10v-78h108l40 43q32 -24 61 -47q7 -5 7 -10q0 -14 -14 -14h-202v-156h106l35 33q51 -36 51 -50q0 -10 -30 -25v-194q11 -8 19 -15q5 -3 5 -7q0 -14 -9 -14h-335v-20
q0 -10 -12 -16q-15 -6 -25 -6q-13 0 -13 14q0 4 1 14q1 23 1 42v206q0 49 -2 68l63 -30h97v156h-75q-71 -2 -97 -7zM606 106h272v216h-272v-216z" />
  </g>

</svg>
