<?xml version="1.0" standalone="no"?>
<!DOCTYPE svg PUBLIC "-//W3C//DTD SVG 1.1//EN" "http://www.w3.org/Graphics/SVG/1.1/DTD/svg11.dtd" >
<svg xmlns="http://www.w3.org/2000/svg" xmlns:xlink="http://www.w3.org/1999/xlink" version="1.1" viewBox="0 -120 1000 1000">
  <g transform="matrix(1 0 0 -1 0 880)">
   <path fill="currentColor"
d="M129 94l-8 -19q-4 -8 -10 -8q-5 0 -9 6l-50 70l147 25v329h-139l-11 27h150v139h-75q-28 -33 -64 -72l-14 12q105 143 169 362l80 -37q14 -7 14 -14q0 -9 -14 -12l-27 -5q87 -42 107 -59q45 -37 45 -72q0 -14 -9 -22t-21 -8q-9 0 -18 6q-9 5 -28 45q-19 38 -81 96
q-68 -126 -118 -193h150l40 45l74 -51v-21h-150v-139h64l41 50l77 -56v-21h-182v-317l188 34l3 -17zM78 422q18 -16 34 -40q44 -67 44 -119q0 -46 -34 -46q-27 0 -26 42q1 30 1 36q0 54 -29 118zM283 235q33 78 65 218l56 -23q21 -8 21 -15q0 -9 -15 -12l-16 -3
q-54 -109 -96 -174zM353 76q98 27 190 78q74 42 106 72q-24 36 -35 65q-5 13 -20 61l-181 -23l-15 26l190 26q-8 36 -21 127l80 -8q15 -2 15 -11q0 -8 -13 -13l-19 -7q3 -40 14 -84l185 23l35 58l90 -51v-18l-305 -37q15 -52 46 -97q43 34 88 83l62 -32q9 -5 9 -13
q0 -9 -14 -10l-22 -1q-36 -30 -88 -71q46 -46 103 -64q33 -11 46 -11t24 40l18 65l14 -4l-2 -61l-1 -15q0 -17 5 -26q6 -11 30 -23q-8 -23 -18 -31q-13 -11 -34 -11q-45 0 -107 24q-66 25 -129 82q-153 -97 -321 -126zM930 676l-3 -78l-1 -5q-1 -18 14 -28q14 -10 19 -13
q-5 -18 -15 -25q-17 -14 -53 -14q-108 0 -202 72q-115 -80 -261 -129l-6 14q153 70 231 152q-43 57 -65 131l-131 -12l-16 25l141 12q-14 75 -23 173l65 -5q30 -2 30 -16q0 -8 -18 -19l-16 -8q4 -54 17 -119l184 16l38 60l95 -56v-17l-309 -29q12 -50 50 -102q45 44 85 96
l63 -35q12 -7 12 -13q0 -10 -16 -10h-25q-33 -33 -82 -72q67 -48 129 -48q17 0 24 22l27 82zM689 517q105 -20 105 -70q0 -11 -7.5 -19.5t-18.5 -8.5q-14 0 -27 25q-16 28 -56 61zM695 938q65 -18 91 -36q27 -19 27 -45q0 -13 -9 -21q-8 -7 -20 -7q-11 0 -19 9q-2 3 -23 37
q-13 21 -53 48z" />
  </g>

</svg>
