<?xml version="1.0" standalone="no"?>
<!DOCTYPE svg PUBLIC "-//W3C//DTD SVG 1.1//EN" "http://www.w3.org/Graphics/SVG/1.1/DTD/svg11.dtd" >
<svg xmlns="http://www.w3.org/2000/svg" xmlns:xlink="http://www.w3.org/1999/xlink" version="1.1" viewBox="0 -204 1024 1024">
  <g transform="matrix(1 0 0 -1 0 820)">
   <path fill="currentColor"
d="M226 958q47 -9 80 -23q8 -3 8 -11q0 -9 -16 -13q-14 -3 -27 -4q28 -22 52 -40q30 -27 49 -44q16 -19 24 -32q7 -10 12 -21q4 -11 4 -22q-1 -28 -22 -28q-6 0 -10 6q-6 6 -28 44q-19 37 -45 67q-19 27 -52 58q-9 -31 -23 -57q-17 -34 -37 -65q-25 -36 -45 -62
q-20 -23 -39 -44q39 -7 93 -7h84l36 38q27 -22 53 -40q7 -3 7 -8q0 -18 -12 -18h-120v-136h58l40 40q32 -20 59 -42q7 -4 7 -8q0 -16 -14 -16h-150v-298q4 1 7 2q58 16 135 48l4 -22q-61 -34 -110 -53q-52 -24 -101 -41q-44 -16 -93 -30q-9 -34 -14 -34q-8 0 -48 78
q65 11 119 24q24 4 53 11v315h-58q-69 -1 -96 -6l-18 44q43 -12 114 -12h58v136q-72 -1 -96 -4l-13 26q-23 -24 -49 -40l-14 18q35 28 59 60q26 29 49 65q26 37 43 73q18 34 28 65q9 26 15 63zM58 398q29 -35 43 -61q17 -26 23 -49q6 -22 6 -36q0 -44 -22 -44q-24 0 -24 32
q0 37 -4 59q-3 20 -11 43q-8 22 -23 52zM340 412q44 -14 78 -32q6 -6 6 -12q0 -8 -17 -10q-20 -4 -27 -4q-10 -26 -23 -47q-11 -23 -22 -38q-13 -19 -33 -37l-14 8q11 26 19 46q7 20 15 42q7 24 11 43q4 20 7 41zM514 942l60 -32h252l28 32q52 -32 52 -44t-26 -28v-250
q0 -17 -32 -22q-18 0 -18 8v30h-268v-20q0 -7 -10 -13q-15 -5 -26 -5q-12 0 -12 12v332zM562 664h268v96h-268v-96zM562 788h268v92h-268v-92zM438 540q44 -10 116 -10h316l44 46q36 -25 68 -47q8 -5 8 -11q0 -18 -10 -18h-268v-158h102l44 48q38 -27 69 -49q9 -7 9 -13
q0 -14 -12 -14h-212v-205q12 -3 24 -5q45 -6 104 -6q78 0 146 6v-14q-23 -9 -36 -17q-11 -9 -12 -27q-66 0 -124 5q-60 6 -100 13q-33 9 -67 30q-30 18 -59 50q-34 32 -49 71q-8 13 -13 25q-2 -5 -3 -9q-11 -37 -23 -61q-14 -27 -29 -49q-11 -22 -30 -42q-16 -19 -39 -37
l-16 16q26 27 40 51q17 25 31 49q9 24 17 47q8 27 18 59q9 31 15 63q5 35 8 59q3 22 3 44q43 -13 68 -24q12 -4 12 -12t-7 -11q-17 -7 -33 -11q-5 -36 -12 -65q-4 -17 -8 -31q5 -24 17 -46q17 -32 48 -59q29 -26 61 -43v372h-110q-70 -1 -94 -4z" />
  </g>

</svg>
