<?xml version="1.0" standalone="no"?>
<!DOCTYPE svg PUBLIC "-//W3C//DTD SVG 1.1//EN" "http://www.w3.org/Graphics/SVG/1.1/DTD/svg11.dtd" >
<svg xmlns="http://www.w3.org/2000/svg" xmlns:xlink="http://www.w3.org/1999/xlink" version="1.1" viewBox="0 -410 2048 2048">
  <g transform="matrix(1 0 0 -1 0 1638)">
   <path fill="currentColor"
d="M1345 1807h-339q-22 -207 -124 -207q-52 0 -52 51q0 27 37 54q97 69 100 237h34l5 -79h810l59 66l88 -70q37 -29 37 -47q0 -19 -37 -26l-50 -10q-51 -67 -124 -140l-26 19q36 77 53 152h-435l72 -16q85 -19 85 -45q0 -29 -49 -42l-40 -11v-194h295l79 80l115 -85
q16 -12 16 -26q0 -26 -25 -26h-480v-179h247l67 76l85 -54q40 -26 40 -48q0 -27 -78 -61v-273q0 -55 11 -223q1 -8 1 -13q0 -46 -70 -46q-36 0 -36 25v38h-267v-195h262l99 102l119 -107q18 -16 18 -26q0 -26 -27 -26h-471v-49q0 -103 11 -210q3 -33 3 -50q0 -46 -55 -46
q-56 0 -56 42v313h-316q-68 0 -149 -11l-39 86q121 -18 188 -18h316v195h-262v-44q0 -37 -49 -37q-63 0 -59 56l4 61l4 80l4 76v300q0 87 -13 178l119 -91h252v179h-262q-68 0 -146 -11l-39 86q123 -18 185 -18h262v156q0 110 -7 152zM1449 1206v-200h267v200h-267z
M1352 1206h-262v-200h262v200zM1449 740h267v210h-267v-210zM1352 740v210h-262v-210h262zM401 350v617h-126q-70 0 -149 -11l-39 86q123 -17 188 -17h126v271h-20q-62 0 -149 -11l-40 86q126 -17 189 -17h165l86 88l124 -94q16 -12 16 -26q0 -26 -26 -26h-249v-271h107
l85 89l124 -95q17 -13 17 -26q0 -26 -27 -26h-306v-595q177 43 310 85l13 -40q-162 -76 -576 -202l-43 -13l-9 -43q-7 -31 -24 -31q-14 0 -31 31l-70 130q140 21 334 61zM491 1858q85 -56 204 -160q121 -105 121 -179q0 -63 -50 -63q-28 0 -49 25q-10 12 -34 64
q-60 131 -209 271q-60 -148 -129 -251q-95 -145 -279 -289l-24 28q306 285 369 668l121 -30q52 -12 52 -35q0 -25 -39 -31l-48 -7zM676 859l136 -47q31 -10 31 -27q0 -20 -26 -26l-58 -13q-101 -167 -181 -260l-32 18q84 171 130 355zM135 834q201 -197 201 -313
q0 -45 -32 -66q-16 -10 -31 -10q-42 0 -47 81q-6 84 -41 160q-15 35 -78 128z" />
  </g>

</svg>
