<?xml version="1.0" standalone="no"?>
<!DOCTYPE svg PUBLIC "-//W3C//DTD SVG 1.1//EN" "http://www.w3.org/Graphics/SVG/1.1/DTD/svg11.dtd" >
<svg xmlns="http://www.w3.org/2000/svg" xmlns:xlink="http://www.w3.org/1999/xlink" version="1.1" viewBox="0 -204 1024 1024">
  <g transform="matrix(1 0 0 -1 0 820)">
   <path fill="currentColor"
d="M134 936q54 -17 85 -34q27 -14 41 -28q9 -10 9 -19q0 -35 -25 -35q-8 0 -15 3q-6 3 -13 15q-18 27 -38 43q-21 18 -58 37zM74 812q52 -17 82 -34q27 -14 40 -28q9 -10 9 -19q0 -35 -25 -35q-8 0 -14 3t-13 15q-17 27 -37 43q-21 18 -56 37zM271 680l9 -19
q-29 -41 -65 -85q-37 -47 -78 -91q-5 -50 -13 -50q-7 0 -60 73q53 31 113 83q59 50 94 89zM340 862q44 -12 117 -12h15v26q0 53 -6 80q46 -9 75 -18q11 -4 11 -11q0 -5 -7 -9q-11 -6 -25 -10v-58h172v26q0 53 -6 80q46 -9 75 -18q11 -4 11 -11q0 -5 -7 -9q-11 -6 -25 -10
v-58h68l40 43q32 -24 61 -47q7 -5 7 -10q0 -14 -14 -14h-162v-112h116l43 47q35 -26 65 -50q8 -5 8 -11q0 -14 -14 -14h-541q-71 -2 -97 -7l-20 47q44 -12 117 -12h55v112h-15q-71 -2 -97 -7zM520 710h172v112h-172v-112zM496 600q-29 -26 -60 -43q-30 -20 -59 -34
q-36 -17 -72 -27l-13 22q53 25 88 49q36 23 57 44q21 23 36 49q40 -22 68 -42q4 -3 4 -10q0 -10 -18 -10q-13 0 -31 2zM667 652q49 -13 97 -32q49 -22 74 -36q24 -17 33 -27q10 -11 16 -22q3 -8 3 -18q0 -21 -18 -21q-5 0 -14 6q-8 6 -20 18q-20 18 -37 31q-22 15 -52 32
q-34 22 -93 51zM491 564q46 -9 78 -22q7 -3 7 -10q0 -8 -16 -11q-11 -3 -20 -4q38 -28 82 -48q52 -25 117 -48q65 -22 130 -37q62 -15 119 -21l-3 -19q-52 0 -70 -32q-65 15 -117 34q-58 22 -100 46q-49 23 -94 50q-43 24 -90 63q-22 -21 -45 -38q-38 -25 -85 -50
q-53 -26 -99 -44q-47 -21 -101 -38q-57 -20 -123 -35l-17 20q81 21 140 44q56 23 111 49q56 29 99 56q38 25 61 48q22 20 36 47zM328 386q44 -12 117 -12h159l38 41q31 -24 59 -45q7 -5 7 -10q0 -14 -13 -14h-159v-92h236l44 49q36 -27 68 -52q8 -5 8 -11q0 -14 -15 -14
h-341v-144h316l44 49q36 -27 68 -52q8 -5 8 -11q0 -14 -15 -14h-788q-71 -2 -97 -7l-20 47q44 -12 117 -12h319v144h-239q-71 -2 -97 -7l-20 47q44 -12 117 -12h239v92h-43q-71 -2 -97 -7zM251 206q54 -16 84 -32q27 -13 41 -26q9 -9 9 -18q0 -32 -23 -32q-8 0 -15 3
q-6 3 -13 13q-18 26 -38 41q-21 17 -58 35zM725 208q38 -16 62 -32q5 -3 5 -8q0 -6 -8 -9q-14 -5 -26 -6q-10 -7 -22 -14q-13 -8 -28 -14q-13 -6 -31 -13q-17 -6 -37 -12l-12 12q22 13 37 26q15 11 28 24q13 14 21 25t11 21z" />
  </g>

</svg>
