<?xml version="1.0" standalone="no"?>
<!DOCTYPE svg PUBLIC "-//W3C//DTD SVG 1.1//EN" "http://www.w3.org/Graphics/SVG/1.1/DTD/svg11.dtd" >
<svg xmlns="http://www.w3.org/2000/svg" xmlns:xlink="http://www.w3.org/1999/xlink" version="1.1" viewBox="0 -140 1000 1000">
  <g transform="matrix(1 0 0 -1 0 860)">
   <path fill="currentColor"
d="M551 593l234 20q-41 43 -59 60l11 12q81 -46 111.5 -73t30.5 -57q0 -39 -27 -39q-11 0 -18 9t-27 48l-1 2q-1 2 -4 7.5t-6 10.5l-294 -62l-18 -24l-42 69q47 13 66 24t33 34l96 152l74 -39l-5 -15l-32 -3zM284 862l-10 -20q80 -44 105 -66.5t25 -50.5q0 -18 -7.5 -31.5
t-17.5 -13.5q-16 0 -49 63q-22 43 -64 80q-51 -104 -90.5 -157.5t-112.5 -122.5l-15 12q64 77 104.5 160.5t75.5 210.5l102 -38l-4 -17zM139 589v22h141l36 36h12l51 -41l-1 -17h-109v-121l39 1l33 36h15l47 -45v-14h-134l1 -199q37 76 72 157l76 -44l-6 -14l-29 -4
l-113 -142l-1 -38l155 36l5 -19l-294 -102l-5 -35l-15 -4l-35 82l126 28v298h-122v22h122v121h-67zM70 371l13 8q95 -86 95 -136q0 -19 -9 -32.5t-20 -13.5q-8 0 -16.5 9.5t-11.5 21.5q-16 70 -22 87t-29 56zM843 480l32 32h14l47 -43v-11l-22 -17v-319q0 -34 -13 -47.5
t-55 -23.5q-16 -4 -21 -5l-13 5v27l-72 31l1 14l71 -6q37 -3 37 25v109q-69 -63 -167 -111l-9 13q60 44 95 81.5t81 106.5v51q-84 -68 -174 -108l-8 11q59 43 90.5 74.5t69.5 88.5h-140v22h156zM586 480l32 32h14l47 -43v-11l-22 -17v-319q0 -34 -13 -47.5t-55 -23.5
q-16 -4 -21 -5l-13 5v27l-72 31l1 14l71 -6q37 -3 37 25v109q-67 -61 -167 -111l-9 13q60 44 95 81.5t81 106.5v51q-84 -68 -174 -108l-8 11q59 44 90.5 75.5t69.5 87.5h-140v22h156zM515 841l76 -41l-4 -14l-33 -3q-60 -85 -153 -150l-11 10q40 42 63.5 79t61.5 119z
M528 863v23h184l30 35h12l50 -47l-4 -14l-35 -9q39 -59 76 -92.5t95 -63.5l-2 -11q-28 -5 -37 -9.5t-21 -21.5q-52 48 -82.5 91.5t-65.5 118.5h-200z" />
  </g>

</svg>
