<?xml version="1.0" standalone="no"?>
<!DOCTYPE svg PUBLIC "-//W3C//DTD SVG 1.1//EN" "http://www.w3.org/Graphics/SVG/1.1/DTD/svg11.dtd" >
<svg xmlns="http://www.w3.org/2000/svg" xmlns:xlink="http://www.w3.org/1999/xlink" version="1.1" viewBox="0 -204 1024 1024">
  <g transform="matrix(1 0 0 -1 0 820)">
   <path fill="currentColor"
d="M203 956q48 -16 82 -32q6 -6 6 -12q0 -10 -18 -13q-20 -4 -29 -4q-23 -42 -53 -81q-5 -7 -10 -11q42 -19 42 -29t-32 -23v-203q0 -32 4 -47q1 -14 1 -23q0 -32 -39 -34q-17 0 -17 18q0 29 1 37q2 16 2 35v197q0 4 -3 28q-5 -6 -10 -11q-34 -29 -81 -60l-17 11
q41 36 70 68q22 29 44 63t37 64q13 28 20 62zM264 864q47 -7 77 -20q11 -6 11 -14q0 -10 -10 -13q-12 -10 -28 -11v-213q0 -25 1 -33v-31q0 -21 -27 -21q-22 0 -22 25q0 11 3 29q1 17 1 31v198q0 48 -6 73zM523 960q91 -18 91 -33q0 -14 -51 -17q-9 -11 -18 -20h287l41 45
q34 -25 64 -49q7 -4 7 -10q0 -14 -14 -14h-94q-20 -24 -43 -42l-54 -36q39 -8 62 -14q43 -13 58 -21q17 -9 27 -18q6 -6 6 -14q0 -21 -18 -21q-9 0 -24 5q-15 4 -35 14q-36 15 -66 25q-29 9 -66 19l-34 -12q-37 -13 -86 -23q-46 -12 -98 -19q-38 -7 -98 -13l-11 24
q53 7 96 14q50 7 96 19q50 13 83 24q-54 15 -137 33l11 18q85 -10 169 -26q5 -1 8 -2q6 3 11 6q28 15 48 34q15 12 28 26h-255q-3 -3 -6 -5q-27 -22 -61 -39q-36 -18 -72 -30l-11 19q36 19 57 32q20 13 43 36q19 18 37 42q12 18 22 43zM356 666q44 -12 117 -12h155
q0 47 -6 70q48 -8 80 -17q11 -4 11 -11q0 -6 -9 -9q-12 -7 -28 -11v-22h180l38 41q31 -24 59 -45q7 -5 7 -10q0 -14 -13 -14h-271v-17q72 -17 126 -36q58 -19 89 -34q33 -14 47 -24q13 -7 18 -15q4 -7 4 -12q0 -25 -20 -25q-9 0 -18 3q-11 3 -33 17q-29 21 -64 39
q-34 19 -76 37q-34 14 -73 27v-17q0 -23 1 -30q1 -17 1 -29q0 -34 -31 -34q-26 0 -26 18q0 13 4 33q3 22 3 38v61h-8q-19 -22 -42 -39q-29 -22 -65 -41q-30 -17 -70 -35q-40 -16 -98 -35l-13 18q54 19 91 37q37 16 67 36q28 17 48 36q16 13 24 23h-89q-71 -2 -97 -7z
M489 516q50 -10 85 -24q8 -3 8 -11t-18 -12q-9 -2 -16 -3q32 -14 68 -25q52 -16 118 -32q67 -14 133 -24q64 -10 121 -14l-3 -19q-52 0 -70 -32q-66 11 -119 25q-60 16 -103 33q-49 17 -95 36q-41 17 -84 42q-22 -15 -45 -26q-38 -18 -86 -36q-54 -18 -100 -31
q-48 -14 -103 -26q-58 -14 -125 -25l-19 22q82 16 142 33q56 17 113 37q56 21 99 41q39 19 62 36q23 15 37 35zM304 348q44 -12 117 -12h195l38 41q31 -24 59 -45q7 -5 7 -10q0 -14 -13 -14h-171v-76h236l44 49q36 -27 68 -52q8 -5 8 -11q0 -14 -15 -14h-341v-130h316l47 53
l72 -55q9 -6 9 -12q0 -14 -16 -14h-803q-71 -2 -97 -7l-20 47q44 -12 117 -12h327v130h-231q-71 -2 -97 -7l-20 47q44 -12 117 -12h231v76h-67q-71 -2 -97 -7zM278 190q38 -14 59 -28q20 -12 30 -23q6 -8 6 -16q0 -35 -25 -35q-5 0 -10 3q-4 2 -9 12q-12 23 -26 37
q-14 16 -39 32zM701 194q41 -18 68 -35q5 -3 5 -9q0 -7 -9 -10q-15 -5 -28 -6q-8 -7 -17 -14t-20 -13q-10 -5 -23 -12l-28 -11l-13 13q15 14 25 26t18 25q9 13 15 25q5 11 7 21z" />
  </g>

</svg>
