<?xml version="1.0" standalone="no"?>
<!DOCTYPE svg PUBLIC "-//W3C//DTD SVG 1.1//EN" "http://www.w3.org/Graphics/SVG/1.1/DTD/svg11.dtd" >
<svg xmlns="http://www.w3.org/2000/svg" xmlns:xlink="http://www.w3.org/1999/xlink" version="1.1" viewBox="0 -140 1000 1000">
  <g transform="matrix(1 0 0 -1 0 860)">
   <path fill="currentColor"
d="M585 899l-8 -12l-24 1l-83 -88q96 -39 96 -85q0 -33 -21 -33q-12 0 -23 23q-22 46 -79 94l72 129zM777 673l30 27h15l51 -44v-15l-17 -19l-1 -229l-6 -10l-47 -12l-9 9l-1 37h-103v-77h141l39 44h15l45 -52v-15h-215q54 -74 105 -112.5t133 -67.5l-5 -12q-59 0 -84 -33
q-95 75 -174 214l-1 -240l-6 -9l-45 -8l-8 8v200q-100 -127 -247 -179l-8 9q143 89 216 230h-198v23h237v77h-108v-36l-6 -11l-51 -10l-7 6v333l66 -26h254zM792 651h-103v-94h103v94zM629 651h-108v-94h108v94zM629 534h-108v-94h108v94zM792 534h-103v-94h103v94zM315 895
l-8 -20h-32q-6 -9 -10 -18q128 -38 128 -88q0 -34 -22 -34q-13 0 -24 18q-24 40 -42.5 58t-47.5 31q-74 -168 -189 -265l-10 12q51 62 97 159.5t63 181.5zM164 674l112 1l37 44h16l46 -50v-17h-107v-143l40 -1l40 49l14 -1l41 -53v-16h-135v-179l85 138l65 -48l-8 -11l-24 1
l-118 -121v-59l120 28l4 -19l-279 -108l-4 -25l-21 -6l-34 84l150 32v293h-120v22h120v143h-40v22zM64 392l6 8q57 -32 80 -58.5t23 -59.5q0 -47 -30 -47q-25 0 -33 47q-7 48 -13.5 64t-32.5 46zM903 897l-9 -12l-24 2l-82 -88q95 -39 95 -85q0 -33 -20 -33q-13 0 -24 23
q-21 44 -79 94l73 129zM744 898l-9 -11l-23 1l-83 -88q95 -39 95 -86q0 -32 -20 -32q-12 0 -19 13q-32 60 -83 104l72 129z" />
  </g>

</svg>
