<?xml version="1.0" standalone="no"?>
<!DOCTYPE svg PUBLIC "-//W3C//DTD SVG 1.1//EN" "http://www.w3.org/Graphics/SVG/1.1/DTD/svg11.dtd" >
<svg xmlns="http://www.w3.org/2000/svg" xmlns:xlink="http://www.w3.org/1999/xlink" version="1.1" viewBox="0 -140 1000 1000">
  <g transform="matrix(1 0 0 -1 0 860)">
   <path fill="currentColor"
d="M902 304l-26 -2q-41 -73 -82 -115q73 -55 158 -81l-1 -11q-31 -8 -50 -39q-73 35 -139 98q-45 -39 -81 -59.5t-102 -44.5l-9 13q95 52 162 125q-45 64 -72 138h-29v23h188l26 24h14l49 -57zM819 326h-134q41 -76 75 -107q36 45 59 107zM591 890l27 24h15l41 -37v17l14 1
q12 -44 26 -75q37 44 67 94l57 -42l-10 -10l-19 5q-29 -32 -86 -66q19 -37 66 -84q39 42 90 118l59 -49l-7 -10l-21 4q-50 -44 -104 -76q51 -39 143 -74l-1 -10q-44 -4 -82 -36q-84 61 -127 124t-63 157l-12 -8q-47 -112 -109 -173t-190 -124l-6 14q92 58 155 133
q-22 1 -42 37q-21 34 -68 60l5 11q3 -1 26 -4q95 -14 95 -59q0 -15 -1 -20q41 62 64 135h-159v23h157zM540 605l28 24h16l47 -35v-18l-16 -15v-116l-5 -10l-44 -10l-10 3v28h-57l-17 -107h56l23 21h16l46 -38l-2 -13l-14 -11q-17 -126 -49.5 -178t-96.5 -58l-11 7v31l-81 16
v22l99 -2q24 0 34.5 11t20.5 46q11 38 22 124h-67l-2 -29l-12 -10l-47 -7l-7 8l39 224l58 -35h49v104h-96v23h80zM763 607l20 19l13 1l47 -32v-16l-14 -10v-63q0 -23 5 -27.5t23 -2.5q24 0 33 21l24 54l13 -5l-10 -81l16 -15v-12q-25 -18 -56 -19l-55 -1q-22 0 -36 9t-16 20
q-2 14 -2 51v87l-44 1q-7 -88 -34 -130.5t-96 -74.5l-8 10q45 31 62.5 72t17.5 117v46l58 -19h39zM332 894l-9 -17l-41 -3q-5 -4 -11 -12q77 -26 101 -47t24 -54q0 -38 -16 -38q-17 0 -35 41q-21 49 -82 83q-42 -90 -90.5 -154t-90.5 -93l-10 12q59 77 90.5 143.5
t61.5 173.5zM148 652h157l29 37l14 1l35 -43v-18h-107v-142h55l27 40h13l36 -46v-17h-131v-179l70 144l72 -47l-8 -14l-26 1l-108 -125v-60l97 15l3 -19l-262 -75l-4 -32l-18 -5l-34 84l154 22v290h-136v23h136v142h-64v23zM63 380l6 9q59 -34 81.5 -59.5t22.5 -59.5
q0 -18 -8.5 -32t-20.5 -14q-22 0 -30 53q-8 54 -51 103z" />
  </g>

</svg>
