<?xml version="1.0" standalone="no"?>
<!DOCTYPE svg PUBLIC "-//W3C//DTD SVG 1.1//EN" "http://www.w3.org/Graphics/SVG/1.1/DTD/svg11.dtd" >
<svg xmlns="http://www.w3.org/2000/svg" xmlns:xlink="http://www.w3.org/1999/xlink" version="1.1" viewBox="0 -120 1000 1000">
  <g transform="matrix(1 0 0 -1 0 880)">
   <path fill="currentColor"
d="M124 106l-4 -18q-3 -14 -15 -14q-10 0 -16 12l-37 70l157 23v316h-135l-15 28h150v136h-67q-35 -50 -78 -98l-19 12q56 80 91 156q40 89 81 241l75 -29q12 -5 12 -12q0 -9 -12 -11l-22 -5l-3 -7q59 -21 100 -55q54 -44 54 -81q0 -22 -15 -32q-5 -3 -10 -3q-8 0 -18 8
q-10 9 -14 17l-26 47q-24 42 -78 82q-51 -119 -100 -202h128l42 56l74 -59v-25h-134v-136h51l44 54l67 -62v-20h-162v-305l142 25l5 -14zM83 439q30 -25 53 -55q44 -57 44 -101q0 -21 -13 -34q-8 -8 -19 -8q-13 0 -23 11q-8 10 -16 70q-6 44 -39 103zM296 243l55 210l66 -26
q15 -6 15 -17q0 -5 -15 -11l-18 -7l-87 -157zM368 101l-16 28h279v93h-203l-13 28h216v86h-117v-34l-57 -12v326l64 -30h283l20 33l68 -35q15 -7 15 -17q0 -7 -12 -13l-20 -9v-224l-62 -12v27h-119v-86h108l38 50l70 -52v-26h-216v-93h144l44 53l74 -57v-24h-588zM514 450
v-86h117v86h-117zM514 560v-83h117v83h-117zM694 364h119v86h-119v-86zM694 560v-83h119v83h-119zM417 688h142q-11 9 -16 16q-7 8 -13 36q-8 35 -19 51q-1 3 -17 20h-48l-13 28h192v127l82 -6q17 -1 17 -10q0 -10 -15 -15l-16 -5v-91h116l41 50l77 -56v-22h-123l21 -15
q10 -7 10 -15q0 -10 -11 -10h-20l-79 -83h100l46 56l74 -60v-24h-516zM527 811q69 -45 69 -91q0 -17 -16 -32h116l55 123h-224z" />
  </g>

</svg>
