<?xml version="1.0" standalone="no"?>
<!DOCTYPE svg PUBLIC "-//W3C//DTD SVG 1.1//EN" "http://www.w3.org/Graphics/SVG/1.1/DTD/svg11.dtd" >
<svg xmlns="http://www.w3.org/2000/svg" xmlns:xlink="http://www.w3.org/1999/xlink" version="1.1" viewBox="0 -204 1024 1024">
  <g transform="matrix(1 0 0 -1 0 820)">
   <path fill="currentColor"
d="M197 957q50 -10 85 -25q8 -3 8 -11q0 -7 -19 -11q-15 -4 -28 -4q17 -17 31 -32q23 -20 34 -36q14 -13 20 -24q5 -10 7 -20q3 -7 3 -15q-1 -31 -23 -31q-4 0 -8 4q-4 5 -17 37q-15 33 -32 57q-11 21 -31 40q-7 -24 -15 -45q-15 -31 -35 -62q-20 -34 -38 -58
q-18 -25 -40 -48q-2 -3 -4 -4q39 -7 93 -7h60l35 37q28 -22 55 -41q5 -4 5 -9q0 -15 -11 -15h-113v-140h48l35 37q30 -20 55 -42q7 -3 7 -8q0 -15 -13 -15h-132v-299q19 7 35 12q57 16 133 46l4 -23q-60 -32 -108 -53q-52 -21 -99 -39q-42 -15 -90 -28q-10 -36 -17 -36
q-8 0 -49 84q65 8 117 20q14 2 26 5v311h-27q-70 -2 -97 -7l-19 47q44 -12 116 -12h27v139q-57 -2 -80 -6l-10 28q-15 -15 -31 -27l-18 23q29 25 52 54q19 30 41 63q19 35 36 68q13 33 22 62q10 25 14 59zM58 401q27 -35 40 -63q16 -25 22 -49q7 -22 7 -34q0 -47 -28 -47
q-24 0 -24 34q0 37 -3 58q-2 20 -10 43q-6 23 -19 52zM306 416q48 -15 82 -31q6 -7 6 -13q0 -10 -17 -12q-21 -4 -30 -4q-8 -29 -18 -54q-12 -26 -23 -45q-12 -21 -28 -40l-19 11q11 27 20 49q6 22 12 46q6 26 10 47q3 22 5 46zM603 943q28 -21 50 -38q6 -4 6 -8
q0 -15 -11 -15h-123v-80h38l35 33q51 -36 51 -49q0 -10 -29 -26v-75q7 -7 12 -11q4 -3 4 -6q0 -13 -8 -13h-103v-84h42l35 36q30 -22 55 -41q7 -4 7 -9q0 -15 -13 -15h-241q-2 -8 -12 -11q-14 -6 -22 -6q-12 0 -12 12q0 3 1 13q1 23 1 39v285q0 45 -2 64l58 -27h149z
M410 571h71v84h-71v-84zM410 683h161v92h-161v-92zM410 802h71v80h-71v-80zM718 932q97 -19 97 -35t-54 -19q-6 -25 -12 -48h127l42 45q32 -25 63 -48q6 -4 6 -10q0 -15 -13 -15h-236q-1 -4 -3 -8q-11 -35 -26 -61q-18 -29 -33 -48l-12 20q12 29 18 48q7 20 15 54
q8 26 13 62q5 27 8 63zM691 670q44 -11 118 -11h54l41 44q34 -25 65 -48q7 -4 7 -10q0 -15 -14 -15h-153q-72 -2 -97 -7zM454 521l62 -31h288l35 34q51 -36 51 -50q0 -11 -31 -26v-203q0 -22 1 -29q1 -9 1 -17q0 -20 -34 -26q-16 0 -16 10v23h-68v-76q0 -15 8 -24
q3 -8 17 -13q17 -3 67 -3q35 0 66 3q11 1 19 8q5 5 9 19q6 21 11 97l21 -4v-66q0 -16 5 -27q8 -12 21 -18q8 -4 8 -14q0 -6 -3 -12q-6 -10 -21 -16q-19 -8 -52 -11q-38 -4 -67 -4q-57 0 -85 4q-26 1 -41 9q-15 5 -24 19q-7 14 -7 24v105h-70q-5 -27 -17 -50q-11 -25 -36 -50
q-23 -24 -57 -39q-36 -18 -81 -30q-48 -11 -111 -17l-16 25q63 8 99 17q31 7 61 19q27 14 48 33q22 19 36 43q12 23 17 49h-64v-12q0 -9 -12 -15q-16 -6 -25 -6q-13 0 -13 14q0 3 1 13q1 24 1 42v210q0 49 -2 69zM504 234h307v56h-307v-56zM504 318h307v60h-307v-60z
M504 406h307v56h-307v-56z" />
  </g>

</svg>
