<?xml version="1.0" standalone="no"?>
<!DOCTYPE svg PUBLIC "-//W3C//DTD SVG 1.1//EN" "http://www.w3.org/Graphics/SVG/1.1/DTD/svg11.dtd" >
<svg xmlns="http://www.w3.org/2000/svg" xmlns:xlink="http://www.w3.org/1999/xlink" version="1.1" viewBox="0 -140 1000 1000">
  <g transform="matrix(1 0 0 -1 0 860)">
   <path fill="currentColor"
d="M668 848l21 19h13l46 -35l-6 -14l-24 -6l-41 -37h136l24 21l17 1l42 -37v-15l-15 -14l1 -84l-6 -8l-46 -8l-9 5v36h-312q-1 -18 -6 -26l-44 -7l-10 7v105q-19 -19 -44 -35l-7 8q59 72 107 198l75 -29l-6 -11l-20 -3q-16 -22 -24 -31h138zM677 826h-161q-14 -21 -32 -43
l30 -8h144zM821 752h-312v-58h312v58zM538 627v-14l-26 -15v-7h74l23 25h12l30 -37v-11h-140v-41l162 14v-12l-228 -57l-3 -23l-12 -1l-25 71l46 3v114zM767 626v-15l-23 -10v-29q79 22 142 67l32 -47l-7 -8l-19 7q-78 -26 -148 -34q0 -14 0.5 -19.5t4 -11.5t11.5 -7.5
t23 -1.5l74 1q31 0 44 27l16 34l11 -2l-7 -64l19 -14q-4 -13 -24 -19.5t-30 -6.5h-142q-34 0 -47 12.5t-13 46.5v110zM673 434l20 18h15l37 -38l-4 -11l-16 -5l-28 -33h125l26 21h13l44 -32v-17l-12 -13v-89l-6 -10l-48 -6l-6 5v25h-112l-1 -96q0 -25 5 -30t34 -5h94
q17 0 24.5 6.5t16.5 27.5l17 44l10 -4l-2 -72l19 -16v-9q-26 -22 -71 -22h-151q-55 0 -55 49v127h-13q-20 -49 -51.5 -83.5t-76.5 -55.5t-90 -32.5t-110 -21.5l-4 13q111 28 176.5 65.5t98.5 114.5h-90v-34l-5 -7l-43 -10l-12 5v151q-8 -5 -43 -20l-5 8q40 28 62.5 54.5
t59.5 89.5l73 -25l-10 -13h-20l-15 -14h130zM677 412h-151q-19 -23 -46 -38l27 -9h165zM501 343v-71l97 -1q9 19 13 73zM833 343h-161q-3 -30 -15 -71h176v71zM744 223l8 11q58 -24 74 -36t16 -36q0 -10 -6 -19t-13 -9q-14 0 -30 30q-19 37 -49 59zM322 892l-6 -15l-34 -5
q-10 -16 -10 -17q67 -25 92 -47.5t25 -58.5q0 -35 -24 -35q-16 0 -25 30q-16 58 -77 96q-72 -152 -179 -241l-10 11q100 124 150 317zM149 658h150l28 38h10l41 -43v-17h-108v-134h50l33 41h16l32 -47v-17h-131l1 -189l79 141l65 -46l-8 -11l-28 2l-108 -122l-1 -57l120 18
l2 -16l-271 -85l-3 -25l-22 -6l-33 84l143 21v291h-132v23h132v134h-57v22zM98 400l9 5q63 -65 63 -132q0 -51 -29 -53q-10 0 -20.5 15t-9.5 30l4 75q1 9 -17 60z" />
  </g>

</svg>
