<?xml version="1.0" standalone="no"?>
<!DOCTYPE svg PUBLIC "-//W3C//DTD SVG 1.1//EN" "http://www.w3.org/Graphics/SVG/1.1/DTD/svg11.dtd" >
<svg xmlns="http://www.w3.org/2000/svg" xmlns:xlink="http://www.w3.org/1999/xlink" version="1.1" viewBox="0 -410 2048 2048">
  <g transform="matrix(1 0 0 -1 0 1638)">
   <path fill="currentColor"
d="M212 1887l114 -77h428l68 77l80 -55q40 -28 40 -49q0 -30 -77 -60v-480q0 -52 -68 -52q-27 0 -27 27v18h-452v-1113q0 -32 -45 -32q-60 0 -60 55q0 17 4 62q6 64 6 165v1372q0 34 -11 142zM318 1292h452v200h-452v-200zM318 1549h452v203h-452v-203zM1167 1874l116 -64
h423l68 77l83 -55q41 -27 41 -49q0 -32 -80 -61v-1453q0 -139 -155 -171q-13 73 -48 94q-23 13 -159 42l8 46q166 -27 202 -27q57 0 57 57v926h-463v-8q-14 -38 -66 -38q-27 0 -27 22v662zM1260 1292h463v200h-463v-200zM1260 1549h463v203h-463v-203zM1079 1050l128 -38
q52 -15 52 -42q0 -28 -46 -32l-39 -4q-65 -272 -204 -424q-112 -123 -393 -256l-17 35q160 96 234 161q171 149 240 377q25 83 45 223z" />
  </g>

</svg>
