<?xml version="1.0" standalone="no"?>
<!DOCTYPE svg PUBLIC "-//W3C//DTD SVG 1.1//EN" "http://www.w3.org/Graphics/SVG/1.1/DTD/svg11.dtd" >
<svg xmlns="http://www.w3.org/2000/svg" xmlns:xlink="http://www.w3.org/1999/xlink" version="1.1" viewBox="0 -410 2048 2048">
  <g transform="matrix(1 0 0 -1 0 1638)">
   <path fill="currentColor"
d="M537 656l-39 85q118 -17 188 -17h681l98 102l121 -107q17 -15 17 -26q0 -26 -27 -26h-890q-60 0 -149 -11zM182 1931l114 -77h470l68 77l80 -55q40 -28 40 -49q0 -30 -77 -60v-403q0 -40 6 -104q4 -31 4 -44q0 -49 -67 -49q-38 0 -38 25v29h-494v-1106q0 -31 -45 -31
q-64 0 -60 56l4 61l3 79l4 76v1433q0 33 -12 142zM288 1277h494v233h-494v-233zM288 1567h494v229h-494v-229zM1172 1917l118 -63h468l68 77l84 -55q41 -27 41 -49q0 -31 -80 -61v-1505q0 -138 -156 -171q-12 73 -38 90t-169 47l8 46q168 -28 202 -28q57 0 57 58v918h-508
v-8q0 -40 -58 -40q-50 0 -50 47l13 202v495zM1267 1277h508v233h-508v-233zM1267 1567h508v229h-508v-229z" />
  </g>

</svg>
