<?xml version="1.0" standalone="no"?>
<!DOCTYPE svg PUBLIC "-//W3C//DTD SVG 1.1//EN" "http://www.w3.org/Graphics/SVG/1.1/DTD/svg11.dtd" >
<svg xmlns="http://www.w3.org/2000/svg" xmlns:xlink="http://www.w3.org/1999/xlink" version="1.1" viewBox="0 -410 2048 2048">
  <g transform="matrix(1 0 0 -1 0 1638)">
   <path fill="currentColor"
d="M496 1056l-39 86q122 -17 188 -17h725l99 102l120 -107q18 -15 18 -26q0 -27 -28 -27h-312v-314h172l99 102l120 -107q18 -15 18 -25q0 -26 -28 -26h-381v-274q0 -85 3 -125q5 -46 5 -58q0 -49 -8 -58q-18 -21 -55 -21q-39 0 -39 32v504h-318q-15 -199 -110 -321
q-78 -100 -264 -203l-19 30q107 88 141 121q136 137 156 373h-179q-71 0 -149 -11l-39 86q124 -19 188 -19h179v314h-114q-70 0 -149 -11zM1173 753v314h-318v-314h318zM170 1935l114 -76h470l68 76l80 -55q40 -27 40 -45q0 -24 -77 -64v-301q0 -39 6 -104q4 -30 4 -44
q0 -49 -68 -49q-38 0 -38 25v19v18h-493v-1216q0 -31 -45 -31q-64 0 -60 56l4 61l3 79l4 76v1434q0 33 -12 141zM276 1391h493v180h-493v-180zM276 1628h493v173h-493v-173zM1160 1914l110 -55h477l68 76l83 -55q41 -26 41 -48q0 -32 -80 -61v-1506q0 -139 -155 -170
q-13 71 -38.5 88t-168.5 48l8 46q172 -27 201 -27q58 0 58 57v1028h-509v-8q0 -40 -58 -40q-50 0 -50 46l13 203v378zM1255 1391h509v180h-509v-180zM1255 1628h509v173h-509v-173z" />
  </g>

</svg>
