<?xml version="1.0" standalone="no"?>
<!DOCTYPE svg PUBLIC "-//W3C//DTD SVG 1.1//EN" "http://www.w3.org/Graphics/SVG/1.1/DTD/svg11.dtd" >
<svg xmlns="http://www.w3.org/2000/svg" xmlns:xlink="http://www.w3.org/1999/xlink" version="1.1" viewBox="0 -204 1024 1024">
  <g transform="matrix(1 0 0 -1 0 820)">
   <path fill="currentColor"
d="M76 954l58 -44h220l30 32q50 -32 50 -44t-26 -28v-220q0 -20 -32 -26q-18 0 -18 8v32h-230v-636q0 -10 -20 -10q-10 0 -23 4q-9 8 -9 24t2 46q6 22 6 98v694q0 39 -8 70zM128 694h230v84h-230v-84zM128 804h230v76h-230v-76zM566 942l62 -32h242l32 44q36 -24 53 -43
q9 -7 9 -13q0 -11 -40 -32v-762q0 -34 -18 -50q-12 -18 -38 -27q-20 -9 -38 -9q0 21 -9 33q-10 11 -34 20q-25 11 -61 15v22q64 -14 114 -14q22 0 30 5q10 5 10 25v540h-266v-18q0 -11 -12 -16q-13 -6 -22 -6q-14 0 -14 12v306zM614 694h266v84h-266v-84zM614 804h266v76
h-266v-76zM474 632q47 -8 80 -20q8 -3 8 -10q0 -11 -16 -16q-11 -3 -23 -5q56 -21 100 -47q60 -34 95 -59q36 -26 50 -41q13 -15 17 -28q7 -11 7 -20q0 -18 -14 -18q-9 0 -17 6q-12 4 -36 29q-32 36 -70 66q-35 29 -81 61q-33 20 -72 42q-16 -22 -30 -37q-22 -22 -51 -46
q-34 -24 -61 -41q-28 -18 -62 -35q-36 -17 -76 -33l-14 22q48 18 83 42q34 20 66 45q33 29 60 53q21 25 37 45q13 22 20 45zM376 434q43 -14 116 -14h44l34 36q29 -18 55 -39q7 -4 7 -9q0 -14 -12 -14h-128q-71 -1 -98 -4zM302 350l62 -32h272l28 32q52 -32 52 -44t-30 -30
v-111q10 -7 21 -14q5 -3 5 -5q0 -16 -10 -16h-352v-14q0 -9 -10 -13q-15 -5 -26 -5q-12 0 -12 10v242zM350 156h290v132h-290v-132z" />
  </g>

</svg>
