<?xml version="1.0" standalone="no"?>
<!DOCTYPE svg PUBLIC "-//W3C//DTD SVG 1.1//EN" "http://www.w3.org/Graphics/SVG/1.1/DTD/svg11.dtd" >
<svg xmlns="http://www.w3.org/2000/svg" xmlns:xlink="http://www.w3.org/1999/xlink" version="1.1" viewBox="0 -120 1000 1000">
  <g transform="matrix(1 0 0 -1 0 880)">
   <path fill="currentColor"
d="M96 55v889l65 -34h210l20 34l55 -29q23 -12 23 -20q0 -10 -20 -17l-10 -4v-231l-63 -12v30h-216v-589zM160 769v-83h216v83h-216zM160 797h216v85h-216v-85zM176 344q58 63 91 113q48 73 83 166l55 -24q20 -9 20 -15q0 -7 -14 -13l-17 -6q-21 -34 -52 -77v-360l-59 -11
v297q-60 -60 -95 -84zM368 150q108 46 203 136q-36 70 -52 161l-133 -7l-11 26l139 7q-7 61 -13 139l60 -5q21 -2 21 -12q0 -8 -11 -13l-12 -6q2 -49 8 -100l134 8l32 45l68 -49l1 -18l-231 -12q12 -71 39 -124q36 37 75 98l38 -29q32 -25 32 -32q0 -11 -19 -11h-29
q-34 -35 -65 -66q31 -37 86 -62q18 30 23 40l27 56l15 -6l-14 -59q-4 -19 -4 -29q0 -16 30 -41q-14 -31 -45 -31q-40 0 -103 46q-29 21 -56 50q-112 -82 -226 -117zM561 623v321l68 -32h203l18 37l69 -38q14 -8 14 -16q0 -9 -14 -16l-16 -8v-733q0 -37 -8 -47
q-19 -22 -57 -33q-18 -6 -32 -6q-11 0 -11 24q-1 16 -9 22q-10 8 -29 12l-58 12v18h141v518h-217v-22zM623 769v-83h217v83h-217zM623 884v-87h217v87h-217zM611 619q60 -8 85 -29q23 -19 23 -45q0 -13 -10 -22q-7 -7 -16 -7q-12 0 -20 15q-30 53 -68 74z" />
  </g>

</svg>
