<?xml version="1.0" standalone="no"?>
<!DOCTYPE svg PUBLIC "-//W3C//DTD SVG 1.1//EN" "http://www.w3.org/Graphics/SVG/1.1/DTD/svg11.dtd" >
<svg xmlns="http://www.w3.org/2000/svg" xmlns:xlink="http://www.w3.org/1999/xlink" version="1.1" viewBox="0 -120 1000 1000">
  <g transform="matrix(1 0 0 -1 0 880)">
   <path fill="currentColor"
d="M103 63v871l67 -36h200l17 36l64 -36q11 -6 11 -14q0 -6 -11 -13l-13 -7v-218l-62 -12v37h-215v-598zM161 699h215v73h-215v-73zM161 874v-76h215v76h-215zM233 395q95 90 167 232l45 -12q34 -10 34 -20q0 -6 -13 -10l-18 -6l-12 -16h177l19 29l48 -27q17 -9 17 -17
t-11 -11l-17 -4q-35 -86 -60 -104q-13 -9 -35 -15q-10 -3 -13 -3q-6 0 -8 7q-4 16 -8 20q0 3 -16 6l-47 10v13h86q17 1 45 70h-199q-52 -60 -82 -88q-32 -29 -86 -68zM301 105v293l64 -26l75 49l46 -35q9 -8 9 -15q0 -8 -12 -6h-4l-17 2l-104 -15v-61h50l25 31l57 -40v-18
h-132v-74h286v76h-115l-10 25h125v72h-99l-13 27h103l18 33l62 -37q11 -7 11 -14q0 -4 -9 -9l-14 -8v-224l-59 -8v42h-286v-51zM566 635v300l64 -34h203l19 34l58 -34q14 -8 14 -19q0 -9 -12 -12l-16 -4v-739q0 -27 -35 -44q-29 -14 -42 -14q-4 0 -7 20q-3 24 -32 32l-43 11
v15h100v526h-213v-25zM624 699h213v76h-213v-76zM624 801h213v73h-213v-73z" />
  </g>

</svg>
