<?xml version="1.0" standalone="no"?>
<!DOCTYPE svg PUBLIC "-//W3C//DTD SVG 1.1//EN" "http://www.w3.org/Graphics/SVG/1.1/DTD/svg11.dtd" >
<svg xmlns="http://www.w3.org/2000/svg" xmlns:xlink="http://www.w3.org/1999/xlink" version="1.1" viewBox="0 -410 2048 2048">
  <g transform="matrix(1 0 0 -1 0 1638)">
   <path fill="currentColor"
d="M1447 1172q-117 -32 -214 -53v-197h217l80 81l114 -86q17 -12 17 -25q0 -26 -27 -26h-401v-207h175l61 72l72 -49q43 -30 43 -50q0 -17 -65 -52v-210l39 -30q16 -13 16 -26q0 -19 -24 -19h-597v-31q0 -41 -58 -41q-52 0 -49 46l3 62q9 137 9 142v242l111 -56h169v207
h-199q-66 0 -149 -11l-39 86q78 -10 138 -15l50 -4h199v184q-34 -1 -123 -8q-38 -3 -172 -10l-8 40q384 33 609 165l64 -68q32 -33 32 -54t-28 -21q-24 0 -65 22zM953 351h471v250h-471v-250zM172 1931l114 -76h470l68 76l80 -55q40 -27 40 -45q0 -24 -77 -63v-271
q0 -40 6 -105q4 -31 4 -44q0 -49 -67 -49q-39 0 -39 26v18v18h-493v-1246q0 -31 -45 -31q-64 0 -60 56l4 61l3 79l4 76v1434q0 33 -12 141zM278 1417h493v162h-493v-162zM278 1636h493v161h-493v-161zM1163 1914l110 -59h476l68 76l83 -55q41 -26 41 -48q0 -32 -80 -61
v-1506q0 -139 -155 -171q-13 72 -38.5 89t-168.5 48l8 42q167 -28 201 -28q58 0 58 58v1062h-509v-11q0 -40 -57 -40q-49 0 -49 47l12 202v355zM1257 1417h509v162h-509v-162zM1257 1636h509v161h-509v-161zM490 1238q34 -12 50 -17q202 -70 202 -165q0 -56 -53 -56
q-13 0 -20 5q-12 8 -35 57q-32 70 -158 150zM388 1003q98 -35 143 -59q96 -52 96 -109q0 -59 -47 -59q-14 0 -26 8q-13 8 -37 57q-28 57 -144 136zM750 749l32 -22q-27 -63 -121 -228q-77 -136 -124 -197l10 -58v-7q-2 -27 -20 -27t-62 51l-69 80q185 146 354 408z" />
  </g>

</svg>
