<?xml version="1.0" standalone="no"?>
<!DOCTYPE svg PUBLIC "-//W3C//DTD SVG 1.1//EN" "http://www.w3.org/Graphics/SVG/1.1/DTD/svg11.dtd" >
<svg xmlns="http://www.w3.org/2000/svg" xmlns:xlink="http://www.w3.org/1999/xlink" version="1.1" viewBox="0 -140 1000 1000">
  <g transform="matrix(1 0 0 -1 0 860)">
   <path fill="currentColor"
d="M261 576h175v116l90 -17v-15l-28 -12v-72h44l32 31h12l29 -23q20 29 38 60l78 -44l-7 -13l-29 -1l-105 -121h136l34 38h15l42 -48v-13h-250l-23 -20q2 -1 11.5 -6t15 -8t14.5 -9t14 -11t9 -12t4 -13q0 -11 -6 -24l40 -1l28 27h15l45 -38v-15l-17 -14l1 -191l-5 -11
l-51 -17l-10 5v33h-251q0 -15 -6 -26l-51 -17l-7 9v202q-40 -23 -110 -53l-33 -14l-5 14l61 38l37 22l50 30v43l45 -13q56 40 112 90h-304v23h246v88h-175v23zM421 339l150 -1q-11 8 -18 23q-8 18 -28 43q-70 -46 -104 -65zM592 553h-94v-88h18q38 39 76 88zM652 315h-251
v-66h251v66zM652 140v86h-251v-86h251zM147 684l-5 -618l-52 -17l-9 5v869l66 -27h206l31 27h14l50 -40v-12l-25 -15v-204l-10 -10l-45 -12l-10 6v48h-211zM358 785h-211v-79h211v79zM358 873h-211v-65h211v65zM847 896l18 31h15l61 -35v-11l-22 -25v-684q0 -51 -9 -65
t-55 -29l-27 -9l-13 6v25l-78 39l3 13l71 -9q3 -1 10 -1q22 0 27.5 9t5.5 29v504h-220q0 -13 -6 -22l-49 -11l-10 5v274l71 -34h207zM854 873h-220v-65h220v65zM854 785h-220v-79h220v79z" />
  </g>

</svg>
