<?xml version="1.0" standalone="no"?>
<!DOCTYPE svg PUBLIC "-//W3C//DTD SVG 1.1//EN" "http://www.w3.org/Graphics/SVG/1.1/DTD/svg11.dtd" >
<svg xmlns="http://www.w3.org/2000/svg" xmlns:xlink="http://www.w3.org/1999/xlink" version="1.1" viewBox="0 -410 2048 2048">
  <g transform="matrix(1 0 0 -1 0 1638)">
   <path fill="currentColor"
d="M818 1942l114 -24q85 -17 85 -45q0 -26 -50 -42l-42 -13v-226h154l98 101l121 -107q16 -14 16 -25q0 -27 -27 -27h-362v-453q193 62 325 121l19 -38q-127 -94 -337 -188l-7 -42q-5 -27 -24 -27t-36 37l-50 110l11 4v725q0 118 -8 159zM1680 1591l98 102l121 -107
q17 -16 17 -26q0 -26 -29 -26h-417v-385q0 -34 11 -45q24 -23 111 -23h72h84q92 0 111 106l28 163l36 -7l-11 -167l-1 -7q-3 -37 35 -65q32 -24 32 -40q0 -44 -108 -59q-88 -12 -283 -12q-129 0 -170 24q-42 24 -42 90v667q-5 145 -9 160l109 -24q86 -19 86 -45
q0 -28 -50 -42l-41 -12v-220h210zM854 587l-39 86q27 -4 40 -5q86 -12 147 -12h272v152q-5 143 -8 160l109 -24q86 -19 86 -46q0 -28 -50 -42l-41 -11v-189h305l98 101l121 -106q17 -16 17 -26q0 -27 -28 -27h-513v-375h390l98 102l121 -107q16 -15 16 -26q0 -26 -27 -26
h-1103q-64 0 -149 -11l-39 86q119 -18 188 -18h409v375h-272q-61 0 -148 -11zM263 1791v-1413q0 -117 10 -199q3 -30 3 -48q0 -48 -53 -48q-55 0 -55 42v1662q-3 76 -13 150l118 -88h260l72 83l68 -53q50 -40 50 -62q0 -25 -50 -45l-29 -11q-132 -303 -225 -471
q132 -130 194 -225q89 -136 89 -283t-61 -219q-54 -64 -169 -82q-6 55 -37 76q-23 15 -123 50l8 42q146 -32 184 -32q93 0 93 169q0 142 -69 268q-62 114 -163 225q112 295 176 512h-278z" />
  </g>

</svg>
