<?xml version="1.0" standalone="no"?>
<!DOCTYPE svg PUBLIC "-//W3C//DTD SVG 1.1//EN" "http://www.w3.org/Graphics/SVG/1.1/DTD/svg11.dtd" >
<svg xmlns="http://www.w3.org/2000/svg" xmlns:xlink="http://www.w3.org/1999/xlink" version="1.1" viewBox="0 -204 1024 1024">
  <g transform="matrix(1 0 0 -1 0 820)">
   <path fill="currentColor"
d="M108 876v-830q0 -14 -22 -14q-7 0 -20 6q-12 10 -12 24q0 16 3 45q5 24 5 97v676q0 39 -8 70l62 -44h128l30 36q36 -27 58 -44q8 -10 8 -18q0 -5 -16 -11q-17 -9 -36 -15q-49 -111 -110 -218q55 -30 86 -62q30 -27 46 -61q18 -29 18 -65q0 -48 -15 -79q-9 -26 -29 -44
q-20 -15 -66 -27q-5 22 -21 29q-23 14 -73 23l4 18q39 -8 72 -8q29 0 46 10q14 10 21 30q13 20 13 60q0 29 -14 58q-10 28 -35 57q-21 29 -71 61q56 143 88 240h-140zM384 826q42 -12 116 -12h80v66q0 54 -6 80q59 -5 96 -20q12 -7 12 -16t-12 -11q-20 -9 -42 -11v-88h96
l40 40q30 -23 55 -43q7 -5 7 -11q0 -14 -12 -14h-186v-158h80q25 28 47 54q52 60 80 110q26 52 45 106q45 -19 67 -32q11 -5 11 -18q0 -16 -44 -16q-53 -91 -105 -158q-23 -23 -43 -46h104l44 48q36 -23 68 -49q8 -5 8 -11q0 -14 -10 -14h-243q-19 -21 -40 -36
q-63 -53 -151 -106h298l32 44q34 -20 52 -42q8 -8 8 -14q0 -8 -38 -32v-230q0 -76 3 -98q1 -29 1 -46q0 -16 -9 -23q-13 -5 -23 -5q-18 0 -18 10v80h-330q0 -23 2 -30q2 -16 2 -28q0 -32 -30 -32q-26 0 -26 14q0 23 2 57q2 33 2 61v275q-61 -28 -128 -49l-14 14
q109 44 191 96q74 48 126 92q17 13 31 28h-238q-69 -1 -96 -4l-18 44q43 -14 114 -14h138v158h-80q-72 -1 -98 -4zM522 134h330v146h-330v-146zM522 310h330v124h-330v-124z" />
  </g>

</svg>
