<?xml version="1.0" standalone="no"?>
<!DOCTYPE svg PUBLIC "-//W3C//DTD SVG 1.1//EN" "http://www.w3.org/Graphics/SVG/1.1/DTD/svg11.dtd" >
<svg xmlns="http://www.w3.org/2000/svg" xmlns:xlink="http://www.w3.org/1999/xlink" version="1.1" viewBox="0 -120 1000 1000">
  <g transform="matrix(1 0 0 -1 0 880)">
   <path fill="currentColor"
d="M77 50v875l67 -37h96l23 36l66 -45q9 -6 9 -12q0 -5 -9 -8l-17 -7l-91 -217q103 -151 103 -269q0 -70 -52 -98q-27 -14 -41 -14q-7 0 -8 11q-2 24 -4 27q-3 3 -7 4l-52 19v16l84 -1q18 29 18 66q0 110 -64 237q25 96 50 229l-112 -1v-800zM357 51v867l68 -36h396l44 55
l83 -64v-17h-530v-726h410l43 56l75 -63v-21h-528v-41zM435 439h135l38 80l66 -15q13 -3 13 -11q0 -6 -14 -11l-20 -8l-18 -35h202l41 48l71 -57v-19h-131q-36 -77 -79 -130q62 -29 81 -45q28 -23 28 -44q0 -12 -9 -21q-8 -7 -16 -7q-14 0 -50 32q-22 20 -70 49
q-71 -47 -117 -64q-66 -23 -140 -33l-3 17q143 41 212 104q-34 20 -89 39l-29 -51l-50 18l69 137l-113 -1zM620 411l-44 -84q58 -11 109 -26q27 33 65 110h-130zM494 496l1 325l64 -31h213l25 30l52 -37q15 -11 15 -18q0 -9 -18 -15l-12 -4v-236l-58 -13v33l-225 1v-27z
M551 557h225v93h-225v-93zM551 765v-89h225v89h-225z" />
  </g>

</svg>
