<?xml version="1.0" standalone="no"?>
<!DOCTYPE svg PUBLIC "-//W3C//DTD SVG 1.1//EN" "http://www.w3.org/Graphics/SVG/1.1/DTD/svg11.dtd" >
<svg xmlns="http://www.w3.org/2000/svg" xmlns:xlink="http://www.w3.org/1999/xlink" version="1.1" viewBox="0 -410 2048 2048">
  <g transform="matrix(1 0 0 -1 0 1638)">
   <path fill="currentColor"
d="M790 1345v-253q0 -404 -53 -636q-41 -178 -170 -360l-33 23q84 157 118 323q47 234 47 654v447q0 13 -12 139l111 -62h179v188q0 114 -8 160l109 -24q86 -19 86 -47q0 -23 -46 -38l-43 -14v-66h139l79 83l115 -85q17 -13 17 -27q0 -27 -27 -27h-323v-103h218l55 62
l92 -65q37 -27 37 -44q0 -23 -37 -30l-49 -10q-121 -85 -125 -88l-22 19q11 21 17 32q22 41 32 68h-302l43 -9q68 -15 68 -40q0 -21 -41 -36l-33 -11v-95l94 11l57 76l107 -61q20 -11 20 -27q0 -24 -23 -27l-255 -29v-42q0 -78 126 -78q38 0 127 25q16 4 24 4q29 0 47 -28
q9 -14 9 -29q0 -29 -36 -39q-73 -20 -168 -20q-104 0 -158 26q-67 31 -67 120v44q-68 -5 -102 -15zM790 1357q10 -1 11 -1q103 8 131 8v200h-142v-207zM1265 548l108 -55q26 -13 26 -26q0 -25 -34 -27l-49 -2q-35 -62 -88 -133q81 14 174 36l11 -36q-104 -38 -519 -141
q-19 -72 -34 -72q-14 0 -34 37l-62 113q38 6 149 18q38 4 94 11q-10 14 -18 55q-13 72 -76 171l-11 -7q-19 -5 -28 -5q-23 0 -23 22v269l-3 103l121 -57h284l65 77l71 -54q42 -31 42 -50q0 -30 -62 -53v-123l23 -16q30 -19 30 -31q0 -24 -38 -24h-119zM1256 548h-309v-27
q9 -8 14 -13q116 -99 116 -183q0 -21 -13 -46q37 5 100 15q51 102 92 254zM947 603h321v161h-321v-161zM1659 1410l85 19l62 93l134 -69q23 -12 23 -27q0 -23 -23 -27l-281 -53q4 -66 12 -245q1 -23 32 -350q70 201 109 422l123 -51q43 -17 43 -39q0 -24 -38 -29l-52 -7
q-18 -55 -61 -201q-19 -66 -91 -249q72 -303 107 -303q22 0 32 49l49 254l36 -10l-27 -279q-4 -42 -4 -64q0 -28 8 -61q10 -41 10 -59q0 -37 -35 -37q-70 0 -139 123q-57 103 -97 261q-71 -114 -122 -178q-73 -92 -197 -192l-21 26q201 229 305 465q-7 51 -11 76
q-22 133 -43 363q-1 4 -18 296l-49 -8q-26 -4 -93 -23l-54 72q105 8 128 12l68 12q-3 73 -5 277l-4 116q-4 140 -8 159l107 -24q88 -19 88 -44q0 -32 -49 -43l-45 -10q-1 -34 -1 -53q0 -24 6 -175q1 -156 1 -185zM857 948l-38 85q102 -23 194 -23h197l81 86l114 -86
q16 -12 16 -27q0 -27 -27 -27h-377q-90 0 -160 -8zM1739 1786l29 25q169 -111 169 -198q0 -55 -50 -55q-33 0 -51 63q-22 78 -97 165zM257 1780v-1403l4 -82l3 -84q5 -76 5 -83q0 -54 -58 -54q-49 0 -49 39v1652q0 40 -12 160l111 -88h221l68 83l77 -61q37 -30 37 -48
q0 -19 -16 -31q-3 -2 -34 -16q-12 -5 -27 -14q-19 -45 -102 -244q-12 -29 -107 -226q115 -127 171 -217q87 -141 87 -315q0 -238 -208 -275q-8 63 -44 83q-14 9 -97 39l7 40q56 -10 92 -17q36 -8 60 -8q88 0 88 151q0 167 -68 306q-41 84 -142 198q28 66 88 257
q59 190 78 258h-233z" />
  </g>

</svg>
