<?xml version="1.0" standalone="no"?>
<!DOCTYPE svg PUBLIC "-//W3C//DTD SVG 1.1//EN" "http://www.w3.org/Graphics/SVG/1.1/DTD/svg11.dtd" >
<svg xmlns="http://www.w3.org/2000/svg" xmlns:xlink="http://www.w3.org/1999/xlink" version="1.1" viewBox="0 -120 1000 1000">
  <g transform="matrix(1 0 0 -1 0 880)">
   <path fill="currentColor"
d="M32 559q78 163 129 389l79 -21q17 -4 17 -12q0 -9 -17 -15l-19 -6q-21 -57 -60 -144h196l21 38l63 -36q14 -8 14 -18q0 -12 -13 -14l-15 -3l-3 -210q-5 -266 -36 -361q-15 -47 -57 -73q-28 -18 -53 -18q-8 0 -11 4l-3 28q-1 5 -17 11l-54 17v13h113q24 28 35 75
q22 88 24 324l1 196h-220q-42 -86 -101 -173zM99 230v378l63 -34h71l20 33l53 -29q17 -10 17 -18q0 -7 -12 -10l-15 -4v-280l-56 -10v44h-87v-59zM153 550v-223h87v223h-87zM434 553q41 81 58 120q54 134 87 274l79 -20q20 -5 20 -15t-19 -17l-19 -7q-27 -61 -78 -162h125
q42 112 65 196l71 -25q18 -7 18 -16q0 -11 -19 -16l-21 -6l-89 -133h113l43 51l74 -57v-21h-195v-156h53l39 49l69 -58v-18h-161v-156h53l38 48l71 -57v-17h-162v-179h86l42 52l74 -61v-17h-375v-68l-60 -13l3 597q-12 -18 -18 -26q-33 -48 -52 -73zM575 334l-1 -179h113
v179h-112zM575 360h112v156h-111zM576 699v-156h111v156h-111z" />
  </g>

</svg>
