<?xml version="1.0" standalone="no"?>
<!DOCTYPE svg PUBLIC "-//W3C//DTD SVG 1.1//EN" "http://www.w3.org/Graphics/SVG/1.1/DTD/svg11.dtd" >
<svg xmlns="http://www.w3.org/2000/svg" xmlns:xlink="http://www.w3.org/1999/xlink" version="1.1" viewBox="0 -120 1000 1000">
  <g transform="matrix(1 0 0 -1 0 880)">
   <path fill="currentColor"
d="M74 81q93 45 160 115q68 74 106 184l-204 -55l-3 -11q-4 -13 -13 -13t-14 7l-47 66l107 11q94 117 205 298l65 -40q13 -8 13 -15q0 -11 -20 -11h-18l-33 -37q-111 -122 -184 -192l155 20l13 46l62 -31q21 -11 21 -20q0 -12 -21 -12h-14q-52 -138 -140 -217
q-98 -80 -187 -111zM78 664q59 -22 89 -47q18 31 43 85q26 57 39 91l70 -40q10 -6 10 -13q0 -8 -13 -8h-2l-20 2l-109 -136q21 -26 21 -54q0 -17 -11 -27q-9 -8 -20 -8q-10 0 -16 7q-3 3 -26 56q-21 46 -62 75zM84 806l-10 28h391v124l71 -8q25 -2 25 -14q0 -10 -16 -17
l-17 -8v-77h258l47 53l92 -62v-19h-841zM400 473q64 97 96 172q30 70 56 154l74 -28q14 -5 14 -15q0 -11 -18 -12l-17 -2l-55 -106h114q31 84 54 156l76 -26q16 -6 16 -15q0 -14 -19 -14h-22l-75 -101h126l34 41l71 -49v-19h-195v-121h72l38 44l69 -47v-23h-179v-125h72
l35 42l69 -47v-22h-176v-146h89l46 55l85 -57v-26h-398v-68l-63 -11v491q-36 -48 -71 -88zM552 310v-146h121v146h-121zM552 462v-125h121v125h-121zM552 609v-121h121v121h-121z" />
  </g>

</svg>
