<?xml version="1.0" standalone="no"?>
<!DOCTYPE svg PUBLIC "-//W3C//DTD SVG 1.1//EN" "http://www.w3.org/Graphics/SVG/1.1/DTD/svg11.dtd" >
<svg xmlns="http://www.w3.org/2000/svg" xmlns:xlink="http://www.w3.org/1999/xlink" version="1.1" viewBox="0 -204 1024 1024">
  <g transform="matrix(1 0 0 -1 0 820)">
   <path fill="currentColor"
d="M130 938q44 -14 118 -14h520l42 48q38 -23 69 -49q9 -5 9 -9q0 -16 -12 -16h-350v-62h372l30 34q33 -25 59 -50q3 -3 3 -6q0 -10 -17 -14t-31 -8q-13 -17 -34 -40q-19 -21 -42 -40l-14 14q17 21 30 44q12 19 16 40h-372v-194q0 -15 -34 -18q-14 0 -14 16v196h-349
q0 -19 -2 -33q-4 -25 -12 -39q-6 -13 -18 -23q-8 -9 -15 -12q-8 -1 -14 -1q-26 0 -26 14q0 9 11 18q28 22 38 40q12 14 20 36q7 19 9 52h10v-26h348v62h-230q-72 -1 -96 -6zM190 770q57 -2 96 -10q41 -6 58 -13q24 -7 30 -16q6 -6 6 -15q0 -18 -16 -18q-6 0 -17 4
q-41 16 -85 31q-43 11 -76 15zM420 682v-18q-49 -19 -103 -35q-54 -17 -113 -31q-15 -32 -22 -32q-2 0 -6 6q-17 32 -34 70q73 0 148 12q70 10 130 28zM764 734q-44 -17 -95 -26q-37 -7 -81 -10l-8 14q57 14 105 38q35 18 49 38q46 -21 74 -42q6 -3 6 -8q0 -11 -10 -12
q-5 0 -18 4q-8 4 -22 4zM588 660q70 -1 122 -7q53 -5 76 -13q29 -9 36 -19q8 -5 8 -11q0 -22 -16 -22q-4 0 -18 4q-56 20 -114 31q-55 13 -98 19zM478 576q45 -6 75 -15q9 -4 9 -13q0 -5 -7 -8q-10 -7 -25 -10v-100h226l22 30q58 -33 58 -48q0 -10 -28 -18v-300
q0 -20 -13 -32q-14 -14 -34 -25q-22 -11 -49 -17q-1 29 -14 39q-9 7 -25 11q-39 12 -89 20v18q70 -18 128 -18q27 0 38 7q10 6 10 19v74h-502v-144q0 -11 -10 -16q-17 -6 -26 -6q-10 0 -10 12v420l51 -26h219v66q0 54 -4 80zM258 218h502v74h-502v-74zM258 320h502v82h-500
l-2 -4v-78zM248 570q30 -12 51 -27q28 -12 42 -22q17 -10 25 -21q6 -8 6 -14q0 -16 -5 -27q-10 -11 -21 -11q-6 0 -12 4q-6 2 -10 17q-8 16 -21 29q-11 17 -28 30q-15 12 -39 30zM716 584q40 -13 69 -27q7 -7 7 -13t-18 -9t-26 -3q-17 -13 -35 -29q-21 -14 -40 -23
q-24 -11 -53 -24l-14 8q28 19 44 32q16 15 30 31q12 14 21 30q10 13 15 27z" />
  </g>

</svg>
