<?xml version="1.0" standalone="no"?>
<!DOCTYPE svg PUBLIC "-//W3C//DTD SVG 1.1//EN" "http://www.w3.org/Graphics/SVG/1.1/DTD/svg11.dtd" >
<svg xmlns="http://www.w3.org/2000/svg" xmlns:xlink="http://www.w3.org/1999/xlink" version="1.1" viewBox="0 -120 1000 1000">
  <g transform="matrix(1 0 0 -1 0 880)">
   <path fill="currentColor"
d="M161 783q-11 -101 -65 -101q-15 0 -25 9q-8 8 -8 20q0 15 18 29q50 40 59 70q1 11 2 27h21v-29h304v65h-293l-9 25h547l42 51l80 -54v-22h-303v-65h313l25 44l76 -52q12 -9 12 -17q0 -10 -19 -10h-31l-78 -61l-15 11l28 60h-311v-147l-64 -10v157h-306zM74 423h281
q-6 7 -19 39q-11 25 -43 48h-132l-10 25h316v74l70 -7q17 -1 17 -11q0 -9 -17 -14l-9 -3v-39h216l40 48l81 -52v-21h-192l21 -13q9 -6 9 -14q0 -10 -16 -10h-17l-50 -50h199l35 44l77 -48v-22h-440l-60 -73h371l40 48l84 -53v-20h-230q-33 -61 -91 -110q159 -37 201 -56
q49 -23 49 -52q0 -23 -25 -23q-13 0 -73 30q-146 59 -201 66q-144 -95 -449 -94l-7 20q119 9 166 19q132 25 213 70q-45 8 -156 20l-20 -25l-56 18l93 117h-246l-10 25h275l60 73h-335zM411 299l-67 -86q115 -3 182 -15q54 39 97 101h-212zM587 423q22 41 39 87h-282l12 -8
q31 -18 38 -29q8 -13 8 -26q0 -8 -7 -24h192zM155 649h179l30 37l67 -45v-17h-266zM209 694l-11 25h143l30 36l60 -39v-22h-222zM587 694l-11 25h131l31 38l67 -42v-21h-218zM590 622l-9 27h157l29 33l62 -40v-20h-239z" />
  </g>

</svg>
