<?xml version="1.0" standalone="no"?>
<!DOCTYPE svg PUBLIC "-//W3C//DTD SVG 1.1//EN" "http://www.w3.org/Graphics/SVG/1.1/DTD/svg11.dtd" >
<svg xmlns="http://www.w3.org/2000/svg" xmlns:xlink="http://www.w3.org/1999/xlink" version="1.1" viewBox="0 -200 1000 1000">
  <g transform="matrix(1 0 0 -1 0 800)">
   <path fill="currentColor"
d="M218 -28q-5 -1 -8.5 -1.5t-5.5 -0.5q-17 0 -20.5 11t-3.5 23v8q6 11 10.5 27t4.5 35q0 23 -9.5 47.5t-35.5 44.5q11 -3 18.5 -4t14.5 -1q22 0 42.5 23.5t44 71t52.5 119t68 168.5l9 -7q-18 -55 -38 -116t-39 -116t-35.5 -97t-26.5 -58l-11 -58q1 -8 1 -16.5v-17.5
q0 -82 -32 -85zM79 395q60 -11 94.5 -34.5t34.5 -55.5q0 -7 -2.5 -15.5t-7.5 -16.5t-11.5 -13.5t-15.5 -5.5q-13 0 -15 6.5t-2 17.5q0 9 -1.5 21.5t-8.5 27.5t-22 32.5t-43 35.5zM182 545q57 -17 88.5 -40t31.5 -48q0 -8 -3.5 -17t-9.5 -16.5t-13.5 -12.5t-14.5 -5
q-13 0 -13 20q0 11 1 12q-5 23 -18.5 52.5t-46.5 52.5zM659 523l-24 -66v-66h152l42 34l61 -56h-255v-127h144l38 39l56 -54l-32 -33v-154h-382v-52q-14 -8 -23 -11t-26 -7v302l66 -30h110v312zM459 210v-150h330v162h-320zM519 775v-185q-6 -8 -10.5 -13t-10 -7.5
t-13.5 -3.5t-21 -1v210h-337q1 -7 2 -16t1 -19q0 -12 -2 -23.5t-7.5 -21t-15.5 -15.5t-25 -6q-14 2 -19.5 9t-5.5 17q0 8 2.5 17t6.5 17q8 18 14 29t10.5 22t8 26t6.5 41h14l7 -55h340v75h-220l-63 -14l-20 35h550l49 45l73 -66h-314v-75h297l32 42q15 -6 32 -13t31 -15
t23 -17.5t9 -19.5q0 -7 -1 -8l-3.5 -7t-6.5 -5t-10.5 -2.5t-10.5 -0.5h-17q-8 0 -16 -2t-16 -9t-15.5 -20.5t-15.5 -37.5l-15 3q4 7 7 17.5t5.5 21.5t3.5 21.5t1 17.5q0 5 -5 8.5t-10 3.5h-299zM744 598l43 37l57 -60h-196l-46 -13l-25 35zM317 597l44 40l57 -62h-193
l-49 -10l-17 32h158zM163 696h162l39 37l54 -60h-189l-44 -12zM734 693l38 37l55 -58h-179l-50 -13l-23 34h159z" />
  </g>

</svg>
