<?xml version="1.0" standalone="no"?>
<!DOCTYPE svg PUBLIC "-//W3C//DTD SVG 1.1//EN" "http://www.w3.org/Graphics/SVG/1.1/DTD/svg11.dtd" >
<svg xmlns="http://www.w3.org/2000/svg" xmlns:xlink="http://www.w3.org/1999/xlink" version="1.1" viewBox="0 -410 2048 2048">
  <g transform="matrix(1 0 0 -1 0 1638)">
   <path fill="currentColor"
d="M1052 1675l109 -72h248v174q0 120 -7 160l121 -27q70 -15 70 -42q0 -25 -49 -40l-41 -13v-212h289l56 69l83 -61q38 -28 38 -47q0 -16 -16 -24q-11 -6 -34 -12q-13 -4 -39 -13q-31 -49 -46 -74q-54 -87 -103 -152l-31 19q62 155 92 241h-289v-416h197l60 73l80 -60
q42 -32 42 -50q0 -23 -50 -45l-32 -14q-26 -112 -92 -277q-64 -161 -164 -299q119 -110 217 -166q85 -48 223 -92l-8 -29q-78 -10 -112 -69q-220 109 -379 291q-204 -192 -444 -302l-17 33q253 162 400 334q-96 153 -141 272q-57 150 -94 342h-36q-3 -56 -4 -84
q-12 -326 -67 -541q-54 -208 -200 -368l-24 23q125 196 168 462q34 210 34 545v416q0 20 -4 75q-1 24 -4 72zM1231 1075q58 -187 112 -304q53 -115 141 -235q138 202 220 539h-473zM1153 1133h256v416h-256v-416zM109 1646l-39 85q27 -3 41 -5q88 -12 147 -12h18v71
q0 116 -6 160l101 -24q73 -18 73 -47q0 -25 -50 -39l-23 -7v-114h266v71q-4 144 -7 160l101 -24q73 -18 73 -47q0 -24 -51 -39l-22 -7v-114h48l78 81l92 -81q24 -20 24 -34q0 -23 -30 -23h-212v-201l29 -25q19 -13 19 -25q0 -20 -26 -20h-196v-201h203l60 71l74 -49
q40 -26 40 -50q0 -16 -65 -52v-255l25 -17q30 -20 30 -44q0 -16 -23 -16h-344v-240h203l80 82l113 -87q17 -14 17 -26q0 -27 -27 -27h-386v-131q0 -3 13 -182q3 -44 3 -53q0 -43 -56 -43t-56 43v366h-211q-73 0 -148 -12l-39 87q122 -17 187 -17h211v240h-207v-13
q0 -31 -52 -31q-53 0 -53 44q0 4 4 49q6 103 6 104v325l122 -66h180v201h-90v-12q0 -31 -51 -31t-51 37q0 4 3 40l2 31l2 49v157h-26q-54 0 -141 -11zM371 1445h266v212h-266v-212zM254 833h207v294h-207v-294zM557 1127v-294h214v294h-214z" />
  </g>

</svg>
