<?xml version="1.0" standalone="no"?>
<!DOCTYPE svg PUBLIC "-//W3C//DTD SVG 1.1//EN" "http://www.w3.org/Graphics/SVG/1.1/DTD/svg11.dtd" >
<svg xmlns="http://www.w3.org/2000/svg" xmlns:xlink="http://www.w3.org/1999/xlink" version="1.1" viewBox="0 -140 1000 1000">
  <g transform="matrix(1 0 0 -1 0 860)">
   <path fill="currentColor"
d="M791 686h-272q-23 -16 -73 -42q-14 -6 -40 -21l-10 14q91 62 151.5 132t113.5 174l80 -42v-16l-38 -5q59 -74 113.5 -114.5t143.5 -79.5l-4 -14q-18 0 -28 -5t-33 -26q-68 45 -111 89.5t-98 125.5q-64 -81 -139 -147h147l33 37h13l51 -45v-15zM941 319v-16h-143v-235
l-4 -9l-49 -12l-8 4v252h-112q-7 -98 -58 -158.5t-160 -99.5l-9 14q85 45 122.5 100t43.5 144h-132v23h132l2 45l-2 53l92 -17v-17l-28 -12q-2 -15 -3 -52h112v98l89 -14v-15l-28 -17v-52h46l35 44h13zM548 598v-123h267v123h-267zM122 932l92 -18v-12l-29 -17v-78h127v125
l91 -18v-15l-29 -14v-78h11l30 35h12l43 -44v-13h-96v-135l-5 -9l-51 -12l-6 3v28h-32v-103h74l27 25h11l51 -43v-14l-25 -17v-149l-6 -7l-47 -13l-8 6v29h-77v-110h94l32 40h9l51 -47v-15h-186v-189l-7 -12l-47 -10l-6 4v207h-177v22h177v110h-81v-29l-4 -6l-53 -12l-5 5
v250l58 -25h85v103h-35v-19l-6 -6l-52 -9l-5 3v156h-79v22h79v125zM185 682h127v103h-127v-103zM280 396h77v139h-77v-139zM139 396h81v139h-81v-139zM549 620h262l27 26h13l48 -40v-14l-22 -18v-126l-6 -7l-51 -11l-5 3v20h-266v-23l-6 -6l-47 -13l-9 3v235z" />
  </g>

</svg>
