<?xml version="1.0" standalone="no"?>
<!DOCTYPE svg PUBLIC "-//W3C//DTD SVG 1.1//EN" "http://www.w3.org/Graphics/SVG/1.1/DTD/svg11.dtd" >
<svg xmlns="http://www.w3.org/2000/svg" xmlns:xlink="http://www.w3.org/1999/xlink" version="1.1" viewBox="0 -140 1000 1000">
  <g transform="matrix(1 0 0 -1 0 860)">
   <path fill="currentColor"
d="M54 237v22h131v106h-50v-32l-6 -11l-51 -13l-7 5v256l60 -25h53v112h-12q0 -17 -6 -27l-46 -8l-7 7l-1 168h-55v22h55v98l85 -13v-13l-25 -10v-62h90v99l82 -14v-11l-22 -14v-60h12l29 30h12l37 -37v-15h-90l-1 -152l-7 -11l-45 -12l-7 7v28h-19v-112h50l26 27h15l41 -42
v-12l-17 -11v-156l-6 -11l-47 -11l-8 5v31h-52v-106h87l31 33h12l40 -42v-13h-170v-161l-9 -14l-43 -11l-8 8v178h-131zM297 523h-52v-136h52v136zM185 523h-50v-136h50v136zM262 797h-90v-119h90v119zM369 617h119v170q-83 -21 -131 -26l-3 13q74 20 125 47.5t130 90.5
l59 -55l-7 -11l-28 2q-2 -1 -82 -42v-189h21l28 35h15l33 -45v-12h-97l1 -117q26 -10 38.5 -15.5t28 -16t21.5 -23.5t6 -31q0 -16 -8.5 -28.5t-19.5 -12.5q-14 0 -25 30q-15 41 -42 72l1 -370l-7 -12l-46 -10l-11 6v365q-34 -73 -92 -150l-12 9q60 145 89 305l-104 -1v22z
M577 91l-10 10q84 102 120.5 222.5t36.5 295.5v297l89 -18v-15l-25 -13v-163q0 -39 -3 -117l-2 -52q46 91 82 189l77 -45l-2 -15l-25 -2q-77 -101 -131 -165q25 -128 61 -207.5t105 -160.5l-2 -13q-3 1 -13 1q-27 0 -53 -33q-46 66 -68.5 146t-40.5 205q-30 -134 -78 -213.5
t-118 -133.5zM657 695l14 3q13 -52 18 -73t8.5 -48.5t3.5 -58.5q0 -76 -32 -76q-13 0 -24 15t-11 31q0 14 12 52q15 46 15 99q0 12 -4 56z" />
  </g>

</svg>
