<?xml version="1.0" standalone="no"?>
<!DOCTYPE svg PUBLIC "-//W3C//DTD SVG 1.1//EN" "http://www.w3.org/Graphics/SVG/1.1/DTD/svg11.dtd" >
<svg xmlns="http://www.w3.org/2000/svg" xmlns:xlink="http://www.w3.org/1999/xlink" version="1.1" viewBox="0 -410 2048 2048">
  <g transform="matrix(1 0 0 -1 0 1638)">
   <path fill="currentColor"
d="M352 1740l11 64q7 42 18 150l107 -18q76 -12 76 -39q0 -25 -58 -36l-37 -8l-20 -113h199l61 72l73 -50q42 -29 42 -50q0 -15 -65 -52v-178l76 72l103 -86q17 -14 17 -26q0 -26 -27 -26h-681q-66 0 -149 -11l-39 85q122 -17 188 -17h58l37 209h-44q-71 0 -149 -10l-39 86
q124 -18 188 -18h54zM403 1473h261v209h-224zM958 1712l-40 86q74 -12 139 -17l46 -4h284v16q0 114 -9 153l109 -24q86 -18 86 -45q0 -28 -49 -42l-42 -12v-46h274l80 80l114 -86q17 -13 17 -25q0 -24 -27 -24h-458v-142h203l81 80l114 -86q17 -13 17 -25q0 -26 -28 -26
h-656q-69 0 -149 -10l-39 86q121 -19 188 -19h174v142h-281q-64 0 -148 -10zM992 1466l119 -66h677l61 73l72 -51q43 -30 43 -49q0 -16 -66 -53v-95l5 -54l2 -50q7 -43 7 -51q0 -42 -67 -42q-39 0 -39 24v15h-720v-11q0 -38 -54 -38q-50 0 -50 45q0 4 4 49q6 93 6 104v250z
M1086 1121h173v223h-173v-223zM1356 1121h169v223h-169v-223zM1619 1121h187v223h-187v-223zM1047 1010l121 -64h544l61 72l72 -50q43 -29 43 -49q0 -16 -65 -53v-346l5 -54l2 -50q7 -43 7 -51q0 -42 -67 -42q-44 0 -44 31v26h-450l66 -42q54 -34 54 -55q0 -22 -44 -22
q-5 0 -18 2l-34 3q-138 -96 -214 -128q-98 -42 -193 -64l-13 37q270 112 378 269h-116v-30q0 -42 -54 -42q-49 0 -49 39l8 163v500zM1142 438h584v118h-584v-118zM1142 610h584v115h-584v-115zM1142 783h584v105h-584v-105zM1539 343q197 -46 314 -95q120 -51 120 -115
q0 -49 -46 -49q-26 0 -85 54q-77 69 -175 110q-105 44 -139 59zM189 1326l121 -64h387l61 72l73 -50q42 -28 42 -49q0 -16 -66 -53v-159l24 -17q27 -20 27 -35q0 -19 -23 -19h-238v-190h88l80 80l114 -85q17 -13 17 -26q0 -26 -27 -26h-272v-252h137l80 81l114 -86
q17 -13 17 -27q0 -26 -27 -26h-321v-76q0 -5 6 -136q5 -69 5 -77q0 -41 -47 -41q-58 0 -58 42v288h-281q-27 -12 -57 -12q-31 0 -31 31q0 7 1 15l48 272q-18 -4 -29 -4q-3 0 -11 1l-42 88q88 -24 200 -24h202v190h-218v-20q0 -38 -54 -38q-53 0 -53 44q0 5 4 49q7 96 7 104
v235zM285 1006h428v202h-428v-202zM503 453v252h-218l-49 -252h267z" />
  </g>

</svg>
