<?xml version="1.0" standalone="no"?>
<!DOCTYPE svg PUBLIC "-//W3C//DTD SVG 1.1//EN" "http://www.w3.org/Graphics/SVG/1.1/DTD/svg11.dtd" >
<svg xmlns="http://www.w3.org/2000/svg" xmlns:xlink="http://www.w3.org/1999/xlink" version="1.1" viewBox="0 -140 1000 1000">
  <g transform="matrix(1 0 0 -1 0 860)">
   <path fill="currentColor"
d="M420 760l34 47h17l54 -53v-17h-197q0 -259 -22 -377q99 -57 127 -80q55 -46 55 -95q0 -41 -21 -41q-25 0 -51 64q-32 75 -115 129q-35 -98 -88 -159t-155 -121l-8 13q129 98 173.5 208t44.5 329v130h-184v23h184v164l95 -16v-16l-35 -15v-117h92zM228 622l-27 -8l-24 -72
q77 -47 77 -84q0 -18 -6.5 -28.5t-16.5 -10.5q-24 0 -31 46q-6 32 -30 62q-39 -80 -85 -136l-10 8q53 127 74 268l81 -30zM846 870l40 44h15l52 -50v-17h-189l-64 -122h128l29 31h15l49 -41v-14l-24 -21v-448l-7 -11l-44 -14l-9 5v35h-218v-32l-8 -13l-39 -14l-13 8v556
l65 -27h50l23 122h-179v23h328zM837 702h-218v-130h218v130zM837 549h-218v-131h218v131zM837 396h-218v-126h218v126zM719 168l-7 -13l-27 4q-95 -67 -215 -105l-7 13q78 39 118 71t82 89zM759 194l5 16q107 -32 133 -45q48 -26 48 -63q0 -31 -18 -31q-13 0 -21.5 6.5
t-34.5 35.5q-39 44 -112 81zM501 613l-28 -5l-30 -70q49 -36 63.5 -52t14.5 -37q0 -15 -8.5 -28.5t-17.5 -13.5q-19 0 -29 54q-4 26 -31 62q-52 -83 -96 -127l-10 8q35 61 53.5 109t44.5 150l77 -36z" />
  </g>

</svg>
