<?xml version="1.0" standalone="no"?>
<!DOCTYPE svg PUBLIC "-//W3C//DTD SVG 1.1//EN" "http://www.w3.org/Graphics/SVG/1.1/DTD/svg11.dtd" >
<svg xmlns="http://www.w3.org/2000/svg" xmlns:xlink="http://www.w3.org/1999/xlink" version="1.1" viewBox="0 -120 1000 1000">
  <g transform="matrix(1 0 0 -1 0 880)">
   <path fill="currentColor"
d="M40 301h205v99h-84v-37l-60 -11v507l64 -29h59q7 61 12 121l82 -11q13 -2 13 -11q0 -6 -8 -10l-24 -12l-48 -77l127 -1l23 38l61 -38q12 -7 12 -16t-12 -13l-14 -5l-1 -146l-61 -11v25h-225v-87h228l22 38l64 -42q13 -8 13 -16q0 -6 -16 -11l-16 -4l-1 -164l-60 -8v31
h-88v-98l92 -1l44 50l75 -57v-19h-211l-1 -213l-63 -11l1 224h-196zM161 548v-121h235v122zM161 802v-111h225v111h-225zM658 175q-120 -85 -226 -123l-6 12q126 86 205 177l59 -38q14 -9 14 -17q0 -11 -20 -11h-26zM492 877l-11 27h350l47 54l75 -60v-22h-201l-60 -123
l141 1l22 34l63 -43q12 -8 12 -16q0 -7 -16 -13l-17 -6v-469l-61 -10v32l-235 -1v-30l-61 -13v568l66 -33h58q5 61 9 122zM601 422v-132h235v132h-235zM601 449h235v127h-235v-127zM601 603h235v124h-235v-124zM732 239q198 -53 198 -130q0 -19 -11 -29q-8 -7 -16 -7
q-13 0 -33 27q-51 70 -145 123z" />
  </g>

</svg>
