<?xml version="1.0" standalone="no"?>
<!DOCTYPE svg PUBLIC "-//W3C//DTD SVG 1.1//EN" "http://www.w3.org/Graphics/SVG/1.1/DTD/svg11.dtd" >
<svg xmlns="http://www.w3.org/2000/svg" xmlns:xlink="http://www.w3.org/1999/xlink" version="1.1" viewBox="0 -410 2048 2048">
  <g transform="matrix(1 0 0 -1 0 1638)">
   <path fill="currentColor"
d="M573 1568l46 -17q42 -15 42 -28q0 -23 -34 -33l-46 -13v-70l145 22l59 82l103 -62q20 -13 20 -30q0 -20 -20 -23l-307 -48v-23q0 -35 40 -43q48 -9 178 -9q86 0 168 19h4q20 0 40 -21q14 -14 14 -30q0 -25 -31 -37q-47 -17 -258 -17q-117 0 -175 21q-74 28 -74 110v17
l-69 -10q-43 -6 -88 -28l-75 76q68 0 118 6l114 13v176h-242v-590q0 -263 -28 -472q-32 -240 -134 -413l-27 17q64 187 83 425q16 196 16 447v557q0 61 -9 154l109 -71h278v180q0 113 -10 160l108 -24q75 -16 75 -43q0 -26 -42 -38l-37 -11v-63h199l84 87l104 -87
q24 -20 24 -33q0 -25 -34 -25h-377v-103h318l52 58l73 -58q35 -28 35 -47q0 -20 -46 -27l-32 -6q-47 -39 -101 -79l-21 14q25 47 46 91h-378zM373 1157l115 -57h367l61 72l72 -50q43 -29 43 -49q0 -17 -66 -53v-170q0 -41 7 -105q3 -30 3 -44q0 -49 -67 -49q-38 0 -38 25v16
h-401v-10q0 -40 -58 -40q-53 0 -50 46l4 62l3 62l5 79v265zM469 748h151v127h-151v-127zM716 748h154v127h-154v-127zM469 928h151v115h-151v-115zM716 1043v-115h154v115h-154zM314 653l114 -63h488l53 71l69 -50q43 -30 43 -49q0 -17 -66 -53v-150q28 10 76 22l11 -38
q-130 -52 -360 -110q-18 -4 -420 -91q-6 -12 -8 -18q-16 -46 -32 -46q-22 0 -40 64l-26 91l98 8v412zM409 248q57 8 114 14v270h-114v-284zM613 278q55 7 110 20v234h-110v-254zM814 313q53 11 110 26v193h-110v-219zM1131 1748l-39 85q122 -17 188 -17h474l98 101l121 -106
q17 -15 17 -26q0 -26 -27 -26h-378q-52 -136 -139 -252h320l68 75l80 -53q40 -27 40 -48q0 -27 -75 -62v-726q0 -12 8 -164l3 -60q0 -57 -67 -57q-41 0 -41 26v52h-358l57 -42q48 -36 48 -56q0 -23 -60 -23h-42q-168 -184 -381 -284l-15 35q249 167 344 370h-111v-42
q0 -37 -50 -37q-54 0 -54 40q0 3 1 13q9 165 9 219v770q0 55 -12 129l125 -75h107q11 27 17 40q43 98 68 212h-195q-62 0 -149 -11zM1264 547h518v275h-518v-275zM1264 880h518v259h-518v-259zM1264 1193h518v256h-518v-256zM1612 437q356 -155 356 -280q0 -57 -48 -57
q-27 0 -57 51q-74 127 -263 252z" />
  </g>

</svg>
