<?xml version="1.0" standalone="no"?>
<!DOCTYPE svg PUBLIC "-//W3C//DTD SVG 1.1//EN" "http://www.w3.org/Graphics/SVG/1.1/DTD/svg11.dtd" >
<svg xmlns="http://www.w3.org/2000/svg" xmlns:xlink="http://www.w3.org/1999/xlink" version="1.1" viewBox="0 -410 2048 2048">
  <g transform="matrix(1 0 0 -1 0 1638)">
   <path fill="currentColor"
d="M1462 1247q37 -227 135 -482q155 -399 409 -543l-11 -34q-27 4 -43 4q-69 0 -114 -53q-138 176 -214 339q-106 225 -178 543q-38 -293 -126 -466q-132 -258 -449 -471l-26 34q251 200 365 417q146 277 159 816q3 121 8 256q2 57 2 87q0 107 -9 204l164 -23q35 -5 35 -38
q0 -17 -50 -35l-45 -15q-4 -245 -12 -540zM367 1530q74 -10 138 -10h132l85 81l97 -86q18 -15 18 -25q0 -27 -28 -27h-304q-71 0 -157 -11l-18 39q-80 -82 -237 -203l-23 32q330 305 423 638l137 -48q46 -17 46 -37q0 -27 -46 -32l-43 -4q382 -156 382 -279q0 -57 -53 -57
q-34 0 -67 50q-86 135 -291 254q-79 -151 -191 -275zM827 735h-500v-472q184 53 421 182q-34 65 -118 180l28 25q91 -73 143 -127q117 -120 117 -211q0 -46 -34 -69q-15 -10 -33 -10q-46 0 -57 68q-8 51 -27 101q-77 -61 -176 -121q-30 -18 -238 -130q-5 -22 -8 -33
q-9 -38 -25 -38q-18 0 -36 33l-66 120l15 4v965q-7 123 -8 154l122 -68h462l60 72l76 -50q45 -29 45 -49q0 -16 -69 -53v-264q0 -72 7 -140q4 -38 4 -58q0 -52 -58 -52q-47 0 -47 29v12zM827 1041v190h-500v-190h500zM827 981h-500v-186h500v186z" />
  </g>

</svg>
