<?xml version="1.0" standalone="no"?>
<!DOCTYPE svg PUBLIC "-//W3C//DTD SVG 1.1//EN" "http://www.w3.org/Graphics/SVG/1.1/DTD/svg11.dtd" >
<svg xmlns="http://www.w3.org/2000/svg" xmlns:xlink="http://www.w3.org/1999/xlink" version="1.1" viewBox="0 -204 1024 1024">
  <g transform="matrix(1 0 0 -1 0 820)">
   <path fill="currentColor"
d="M221 952q52 -18 90 -35q6 -7 6 -13q0 -11 -19 -15q-22 -4 -32 -4q-16 -61 -34 -119h128l32 39q30 -21 52 -41q6 -7 6 -12q-2 -9 -12 -16q-10 -9 -22 -13q-15 -112 -45 -213q-27 -86 -68 -171q-43 -91 -93 -155q-53 -75 -136 -144l-18 15q70 64 116 133q50 69 86 152
q16 35 31 78q-5 -2 -9 -2q-9 0 -18 5q-7 4 -16 22q-21 40 -45 65q-20 21 -50 43l-11 -22q-37 -71 -89 -145l-19 12q45 79 77 148q25 61 49 134q24 75 41 139q14 61 22 135zM161 573q52 -24 83 -49q32 -22 48 -45q8 -12 10 -23q12 38 24 80q32 106 37 202h-140
q-8 -26 -16 -49q-22 -64 -46 -116zM661 956q50 -10 85 -24q8 -3 8 -11t-18 -12q-11 -3 -20 -4q24 -47 52 -83q31 -41 71 -79q40 -36 80 -62q38 -24 73 -34l-3 -17q-49 0 -65 -30q-37 22 -67 52q-34 33 -58 69q-28 34 -54 75q-24 38 -52 97q-13 -33 -27 -60q-23 -36 -50 -72
q-31 -37 -57 -64q-27 -29 -58 -54q-34 -29 -72 -51l-19 22q45 29 79 61q31 32 62 70q31 40 55 77q22 35 35 68q12 29 20 66zM573 683q44 -12 117 -12h19l35 36q29 -21 55 -41q6 -4 6 -9q0 -14 -12 -14h-103q-71 -2 -97 -7zM808 581l35 33q51 -36 51 -50q0 -10 -30 -25v-150
q0 -23 1 -30q1 -8 1 -16q0 -21 -34 -27q-16 0 -16 10v21h-260v-236l25 6q33 8 71 23q38 13 88 36l4 -22q-36 -28 -64 -44q-29 -19 -56 -32q-25 -14 -53 -24q-11 -37 -18 -37q-8 0 -49 84q4 1 8 1v451q0 39 -8 69l61 -41h243zM556 553v-73h260v73h-260zM556 452v-77h260v77
h-260zM914 260q-16 -13 -35 -25q-18 -10 -36 -19q-6 -3 -12 -5q29 -22 47 -39q33 -26 46 -44q12 -13 17 -28q4 -13 4 -23q0 -21 -17 -21q-9 0 -17 5q-11 5 -33 32q-28 38 -62 70q-33 34 -74 66q-40 32 -90 61l17 14q70 -32 123 -67l17 -11q10 9 18 17q14 13 25 28
q11 14 19 28q9 15 14 29q81 -49 81 -62q0 -11 -19 -11q-12 0 -33 5z" />
  </g>

</svg>
