<?xml version="1.0" standalone="no"?>
<!DOCTYPE svg PUBLIC "-//W3C//DTD SVG 1.1//EN" "http://www.w3.org/Graphics/SVG/1.1/DTD/svg11.dtd" >
<svg xmlns="http://www.w3.org/2000/svg" xmlns:xlink="http://www.w3.org/1999/xlink" version="1.1" viewBox="0 -120 1000 1000">
  <g transform="matrix(1 0 0 -1 0 880)">
   <path fill="currentColor"
d="M585 628v-171h205v171h-205zM449 815l-13 28h388l41 51l78 -57v-22h-93v-536l90 13l3 -19q-71 -17 -93 -21v-202l-60 -14v204l-46 -8q-16 -4 -47 -8l-212 -42q-5 -23 -8 -28.5t-10 -5.5q-9 0 -16 14l-32 72q71 5 102 9v572h-72zM585 815v-160h205v160h-205zM790 272v158
h-205v-180l138 14zM166 510h174v79h-174v-79zM166 400h174v83h-174v-83zM340 350v23h-174v-83h144l40 48l70 -57v-18h-254v-89h153l38 45l70 -53v-20h-261v-90l-60 -10v609l67 -39h162l26 34l57 -37q12 -6 12 -15q0 -15 -29 -22v-218zM52 605l-15 15q122 139 183 332l79 -24
q18 -8 18 -18q0 -17 -36 -17q167 -77 167 -141q0 -13 -8.5 -23.5t-19.5 -10.5q-18 0 -44 42q-39 62 -104 117q-46 -76 -108 -159h126l36 45l65 -49v-23h-251q-17 -18 -61 -60z" />
  </g>

</svg>
