<?xml version="1.0" standalone="no"?>
<!DOCTYPE svg PUBLIC "-//W3C//DTD SVG 1.1//EN" "http://www.w3.org/Graphics/SVG/1.1/DTD/svg11.dtd" >
<svg xmlns="http://www.w3.org/2000/svg" xmlns:xlink="http://www.w3.org/1999/xlink" version="1.1" viewBox="0 -410 2048 2048">
  <g transform="matrix(1 0 0 -1 0 1638)">
   <path fill="currentColor"
d="M568 934h179l68 76l84 -54q40 -25 40 -48q0 -29 -78 -61v-413q0 -58 11 -223q1 -8 1 -13q0 -46 -71 -46q-35 0 -35 26v72h-451v-66q0 -37 -51 -37q-61 0 -57 54l4 63l4 79l4 76v428q0 69 -11 163l119 -76h204q-37 19 -37 55v411q-171 -250 -403 -390l-21 29
q140 128 214 224q59 76 137 225h-116q-111 0 -193 -8l-36 88q94 -22 229 -22h189v206q-162 -27 -337 -38l-4 38q408 58 625 207l95 -101q14 -13 14 -25q0 -16 -24 -16q-12 0 -22 2l-51 10q-60 -19 -200 -59v-224h188l99 101l120 -107q17 -14 17 -25q0 -27 -27 -27h-397v-55
q313 -184 313 -282q0 -28 -17 -49q-15 -18 -36 -18q-28 0 -56 51q-66 123 -204 243v-183v-53q12 -115 12 -151q0 -43 -35 -57zM316 554v-244h451v244h-451zM316 610h451v267h-451v-267zM1563 1787q60 -236 170 -386q54 -73 165 -143q42 -26 86 -41l-4 -36q-75 0 -127 -58
q-148 123 -239 303q-78 156 -120 393h-115v57h91l63 68l87 -68q22 -17 22 -32q0 -20 -79 -57zM1637 1035l64 77l80 -48q50 -31 50 -55q0 -25 -84 -63q-4 -61 -8 -229q-11 -401 -40 -486q-38 -111 -221 -144q-5 63 -67 88q-34 14 -162 49l8 39q222 -45 262 -45q75 0 91 79
q14 72 30 427l7 160l5 94h-311q-14 -211 -41 -332q-79 -352 -416 -549l-24 28q203 166 288 359q76 175 95 494h-45q-55 0 -148 -9l-39 88q94 -22 194 -22h432zM1195 1819l112 -33q69 -21 69 -46q0 -29 -57 -38l-40 -7q-68 -219 -130 -332q-71 -132 -195 -264l-27 28
q119 163 186 354q44 127 82 338z" />
  </g>

</svg>
