<?xml version="1.0" standalone="no"?>
<!DOCTYPE svg PUBLIC "-//W3C//DTD SVG 1.1//EN" "http://www.w3.org/Graphics/SVG/1.1/DTD/svg11.dtd" >
<svg xmlns="http://www.w3.org/2000/svg" xmlns:xlink="http://www.w3.org/1999/xlink" version="1.1" viewBox="0 -140 1000 1000">
  <g transform="matrix(1 0 0 -1 0 860)">
   <path fill="currentColor"
d="M77 898l62 -31h193l37 42h16l44 -51v-14h-148v-114h35l33 44h15l40 -49v-18h-123v-113h39l34 41h15l40 -48v-15h-128v-115h73l29 40h16l54 -50v-16l-29 -22q-5 -172 -38 -250.5t-114 -109.5l-18 4l-4 31l-80 35v13l82 -8q29 -3 54.5 21.5t37.5 67.5q20 71 24 223h-231
v-35l-6 -11l-43 -15l-11 4v519zM221 844h-84v-114h84v114zM221 707h-84v-113h84v113zM221 572h-84v-115h84v115zM78 309l13 3q28 -65 28 -115q0 -71 -38 -71q-26 0 -26 34q0 15 13 45q15 36 15 59q0 12 -5 45zM137 323l11 10q57 -57 57 -116q0 -16 -8.5 -27.5t-19.5 -11.5
q-17 0 -20 15t-1 52q0 44 -19 78zM200 350l8 9q77 -59 77 -104q0 -17 -5.5 -27t-13.5 -10q-21 0 -30 54q-4 32 -36 78zM247 384l6 9q92 -30 92 -82q0 -27 -16 -27q-17 0 -32 33q-10 25 -50 67zM840 722l31 40h14l55 -50v-16l-29 -27q1 -45 1 -158q0 -54 -1 -91t-5 -90.5
t-13 -91t-23.5 -76t-38 -63.5t-55.5 -37q-25 -10 -62 -14l-13 6l-4 29l-101 35v14l113 -9q25 -2 45 5t34.5 25t25.5 39.5t18 56.5t11.5 68t7 81t3 89.5t0.5 99.5l-2 111h-302q-56 -99 -113 -170l-13 6q87 168 139 393l85 -30l-3 -15l-24 -7q-35 -97 -62 -153h281zM695 459
l41 50h15l49 -55v-19h-314v24h209z" />
  </g>

</svg>
