<?xml version="1.0" standalone="no"?>
<!DOCTYPE svg PUBLIC "-//W3C//DTD SVG 1.1//EN" "http://www.w3.org/Graphics/SVG/1.1/DTD/svg11.dtd" >
<svg xmlns="http://www.w3.org/2000/svg" xmlns:xlink="http://www.w3.org/1999/xlink" version="1.1" viewBox="0 -204 1024 1024">
  <g transform="matrix(1 0 0 -1 0 820)">
   <path fill="currentColor"
d="M28 398q43 -12 114 -12h88v88q0 53 -4 80q49 -9 81 -23q11 -4 11 -13q0 -11 -9 -14q-12 -10 -29 -12v-106h106l44 44q34 -25 62 -46q8 -6 8 -12q0 -14 -14 -14h-206v-316q0 -22 -28 -22q-26 0 -26 26q0 12 2 30q2 22 2 36v246h-88q-69 -1 -96 -4zM896 946q36 -27 67 -49
q9 -7 9 -13q0 -14 -14 -14h-190v-128h76l44 44q32 -25 59 -46q7 -5 7 -10q0 -18 -12 -18h-174v-124h80l44 44q32 -22 59 -46q7 -4 7 -10q0 -14 -12 -14h-178v-132h128l36 30q33 -17 50 -34q8 -10 8 -14q0 -11 -40 -26q-7 -105 -21 -177q-17 -73 -33 -108q-15 -33 -35 -46
q-20 -18 -45 -30q-19 -7 -34 -7q0 17 -10 29q-10 14 -126 47l4 18q107 -32 142 -32q16 0 28 7q10 2 21 15q11 11 23 45q14 32 23 93q10 62 15 162h-314v-26q0 -12 -22 -12q-8 0 -20 6q-10 8 -10 24t2 46q6 22 6 96v336q0 41 -8 70l60 -44h256zM588 430h132v132h-132v-132z
M720 588v124h-132v-124h132zM720 742v128h-132v-128h132zM482 298h14v-43q0 -31 -7 -61q-4 -27 -13 -46q-6 -14 -16 -26q-9 -11 -19 -14q-8 -4 -15 -4q-24 0 -24 16q0 10 13 21q26 29 40 49q12 18 18 43q7 25 9 65zM570 298q14 -19 24 -39q9 -23 12 -41q4 -21 4 -36
q0 -18 -4 -31q-5 -9 -11 -14q-7 -3 -11 -3q-18 0 -18 14q-1 7 2 19q3 19 0 46q-2 30 -14 79zM668 310l31 -31q17 -12 26 -24q10 -15 13 -23q4 -9 4 -18q0 -19 -5 -28q-8 -12 -17 -12q-5 0 -8 4q-4 3 -7 16q-5 20 -13 37q-8 16 -16 33q-9 14 -26 34zM760 320q39 -14 61 -32
q22 -13 31 -24q6 -9 6 -20q0 -30 -18 -30q-6 0 -13 3q-4 3 -10 14q-12 25 -26 40q-18 16 -43 35zM412 810q-55 -19 -124 -27q-57 -10 -118 -12v-89q0 -23 5 -30q11 -13 35 -17q29 -3 75 -3q57 0 82 3q21 4 29 18q18 20 30 95l16 -4v-68q0 -15 15 -25q21 -17 21 -27
q0 -8 -13 -14q-14 -8 -57 -12q-50 -10 -133 -10q-52 0 -93 3q-32 3 -48 20q-10 12 -10 43v238q0 34 -4 68q52 -9 88 -28q6 -4 6 -12q0 -5 -9 -8q-16 -9 -35 -14v-105q43 4 85 13q49 14 89 30q32 12 58 34q58 -43 58 -56q0 -14 -8 -14q-19 0 -40 10z" />
  </g>

</svg>
