<?xml version="1.0" standalone="no"?>
<!DOCTYPE svg PUBLIC "-//W3C//DTD SVG 1.1//EN" "http://www.w3.org/Graphics/SVG/1.1/DTD/svg11.dtd" >
<svg xmlns="http://www.w3.org/2000/svg" xmlns:xlink="http://www.w3.org/1999/xlink" version="1.1" viewBox="0 -200 1000 1000">
  <g transform="matrix(1 0 0 -1 0 800)">
   <path fill="currentColor"
d="M884 932l-19 -72v-161h13l33 44l71 -66h-117v-609q-16 -78 -96 -92q-4 16 -6.5 28t-11 23t-27.5 24t-55 32l1 8q46 -11 72.5 -16t40.5 -5q18 0 22 8t6 24v575h-100l-57 -15l-26 37h183v268zM667 649q24 -32 38.5 -54.5t23 -39t11.5 -29t3 -24.5q0 -9 -3.5 -19.5t-9 -19.5
t-13 -15.5t-14.5 -6.5q-13 0 -15.5 9.5t-3 32.5t-3 62.5t-15.5 98.5zM704 898l-45 -50q-20 -38 -33 -62t-22 -40.5t-16 -28.5t-15 -25l32 -35l-26 -70v-579q-6 -11 -17.5 -18.5t-33.5 -16.5v648q-26 -38 -55 -72.5t-76 -65.5h-9q88 109 151.5 228t95.5 260zM264 707v-120h45
l50 45l64 -68h-159v-129h96l36 43l50 -57l-34 -30q-2 -86 -2.5 -156t-11 -123.5t-37.5 -88.5t-82 -50q1 1 1 10q0 13 -6 24.5t-15 21t-19.5 17.5t-19.5 14v10q6 -3 16 -6t21 -5.5t22.5 -4t19.5 -1.5q2 0 4 0.5t4 0.5q19 4 30.5 32.5t17 72.5t7 99t1.5 114v38h-280v504
l60 -41h163l50 45l63 -69h-155v-118h48l51 46l60 -70h-159zM134 435h85v129h-85v-129zM134 587h85v120h-85v-120zM134 731h85v118h-78l-7 -29v-89zM51 142q11 29 17.5 53t6.5 58q0 21 -3 48h4q18 -46 26 -72.5t8 -47.5q0 -10 -1.5 -18.5t-3.5 -18.5q-2 -16 -16 -27t-26 -11
q-16 0 -16 17q0 12 4 19zM133 153q6 17 8 41t2 49q0 36 -3 65h6q28 -52 33.5 -84.5t5.5 -50.5q-2 -27 -12.5 -42t-21.5 -15q-18 0 -18 32v5zM236 142q-17 0 -18 40q-1 31 -1.5 69.5t-8.5 74.5h5q20 -36 35.5 -70t15.5 -66v-9q0 -17 -10 -28t-18 -11zM293 159q-3 14 -3.5 35
t-1.5 44.5t-3.5 48t-9.5 45.5h7q11 -12 21 -29.5t17.5 -36t12 -35.5t4.5 -29v-5q-5 -22 -16 -33.5t-19 -11.5t-9 7z" />
  </g>

</svg>
