<?xml version="1.0" standalone="no"?>
<!DOCTYPE svg PUBLIC "-//W3C//DTD SVG 1.1//EN" "http://www.w3.org/Graphics/SVG/1.1/DTD/svg11.dtd" >
<svg xmlns="http://www.w3.org/2000/svg" xmlns:xlink="http://www.w3.org/1999/xlink" version="1.1" viewBox="0 -204 1024 1024">
  <g transform="matrix(1 0 0 -1 0 820)">
   <path fill="currentColor"
d="M357 944q30 -22 56 -43q7 -4 7 -9q0 -14 -12 -14h-140v-124h48l35 36q29 -21 55 -41q6 -4 6 -9q0 -14 -12 -14h-132v-124h48l35 36q29 -21 55 -41q6 -4 6 -9q0 -14 -12 -14h-132v-132h74l37 33q35 -21 54 -39q8 -10 8 -14q0 -12 -38 -27q-7 -104 -20 -175
q-15 -75 -29 -109q-16 -31 -33 -46q-20 -17 -42 -28q-19 -9 -31 -9q0 17 -7 27q-9 13 -97 44l5 21q81 -25 108 -25q14 0 26 5q9 3 17 15q10 13 21 45q12 32 20 94q10 61 14 160h-231v-30q0 -12 -16 -12q-9 0 -24 6q-12 9 -12 24q0 18 3 47q4 22 4 97v332q0 41 -7 71l61 -43
h187zM124 442h96v132h-96v-132zM220 602v124h-96v-124h96zM220 754v124h-96v-124h96zM78 324l14 -3q2 -21 2 -39q0 -28 -3 -53t-9 -42q-5 -14 -12 -23q-6 -10 -12 -13q-5 -3 -10 -3q-26 0 -26 18q0 7 8 17q20 26 28 45q9 17 14 39q5 21 6 57zM154 332q9 -17 16 -39t9 -41
q3 -20 3 -36q0 -17 -5 -29q-4 -11 -13 -16q-7 -3 -12 -3q-19 0 -19 20q0 6 4 17q4 17 4 43q0 31 -5 80zM209 348q11 -16 19 -32q10 -15 16 -29t8 -25q2 -10 2 -20q0 -19 -5 -30q-9 -12 -21 -12q-3 0 -4 4q-2 3 -4 19q-2 20 -6 39t-9 36t-13 37zM261 364q25 -18 39 -37
q13 -15 19 -30q4 -11 4 -21q0 -32 -23 -32q-3 0 -6 3t-6 16q-7 28 -16 46q-9 19 -24 39zM505 944q46 -21 71 -42q24 -17 35 -34q8 -12 8 -24q0 -32 -23 -32q-6 0 -12 4q-6 3 -12 17q-14 32 -32 51q-17 21 -48 44zM844 948q43 -12 77 -29q6 -6 6 -10q0 -9 -11 -13
q-20 -5 -37 -5q-8 -12 -18 -22q-9 -11 -21 -22q-11 -10 -23 -18q-10 -8 -28 -17l-17 12q16 14 26 29q13 17 23 36q11 19 18 39q4 9 5 20zM448 794q44 -12 117 -12h107v110q0 53 -6 80q51 -8 84 -23q12 -6 12 -15q0 -10 -10 -13q-14 -11 -32 -12v-127h144l41 45
q34 -25 64 -49q7 -4 7 -10q0 -14 -14 -14h-242v-28q52 -16 90 -32q45 -16 69 -29q25 -11 37 -19q10 -8 15 -15q5 -6 5 -13q-1 -32 -24 -32q-9 0 -17 3q-8 4 -37 30t-64 47q-28 18 -74 38v-55q0 -27 2 -36v-35q0 -22 -30 -22q-24 0 -24 27q0 12 3 32q1 19 1 34v84
q-10 -12 -19 -21q-26 -26 -57 -48q-27 -19 -62 -40q-35 -19 -85 -40l-13 18q46 22 78 43q31 19 56 43q24 19 41 41q11 13 18 25h-64q-71 -2 -97 -7zM522 576q98 -20 98 -36q0 -15 -55 -18q-7 -26 -14 -48h63l30 35q28 -19 48 -38q6 -6 6 -11q-2 -8 -11 -15q-10 -8 -21 -12
q-10 -65 -29 -124q-18 -50 -44 -99q-28 -53 -60 -90q-34 -44 -88 -84l-17 14q43 37 72 77q30 40 52 88q8 16 15 34q-4 -1 -7 -1q-6 0 -11 3q-4 3 -9 14q-13 27 -27 43q-11 13 -28 26l-7 -12q-27 -39 -54 -66l-12 21q25 37 39 63q14 25 30 71q14 34 26 81q8 36 15 84z
M498 354q30 -14 48 -28q20 -14 30 -27q4 -6 5 -10q7 19 13 40q20 61 23 117h-76q-9 -22 -17 -39q-13 -30 -26 -53zM700 478q41 -11 108 -12v18q0 53 -6 80q51 -8 84 -23q12 -6 12 -15q0 -10 -10 -13q-14 -11 -32 -12v-35h12l38 41q31 -24 59 -45q7 -5 7 -10q0 -14 -13 -14
h-103v-184h20l41 45q34 -25 64 -49q7 -4 7 -10q0 -14 -14 -14h-118v-97q0 -27 2 -36v-35q0 -22 -30 -22q-24 0 -24 27q0 12 3 32q1 19 1 34v97h-81q-16 -6 -25 -6q-17 0 -17 9q0 4 2 8q5 21 16 90l17 104zM808 254v184q-23 -1 -39 -2l-28 -182h67z" />
  </g>

</svg>
