<?xml version="1.0" standalone="no"?>
<!DOCTYPE svg PUBLIC "-//W3C//DTD SVG 1.1//EN" "http://www.w3.org/Graphics/SVG/1.1/DTD/svg11.dtd" >
<svg xmlns="http://www.w3.org/2000/svg" xmlns:xlink="http://www.w3.org/1999/xlink" version="1.1" viewBox="0 -120 1000 1000">
  <g transform="matrix(1 0 0 -1 0 880)">
   <path fill="currentColor"
d="M106 597q2 -18 2 -28q0 -41 -22 -59q-13 -11 -27 -11q-18 0 -26 13q-3 5 -3 12q0 13 31 53q16 20 16 75h16l10 -31h14v309l66 -31h127l21 36l59 -39q14 -9 14 -17q0 -7 -13 -12l-17 -6v-240h23l22 34l61 -36q13 -8 13 -16q0 -9 -13 -12l-31 -5l-53 -59l-14 6l17 64h-293z
M176 621h40v185l62 -32h39v99h-141v-252zM267 621h50v127h-50v-127zM115 50l3 494l63 -33h130l20 33l67 -42q9 -6 9 -12t-11 -9l-20 -5v-333q0 -43 -16 -58q-15 -15 -36 -22q-17 -5 -23 -5t-9 7q-1 1 -7 24q-2 5 -14 9l-39 13v15h83v124h-139v-189zM176 375v-100h139v100
h-139zM176 486v-86l139 1v85h-139zM514 478q-73 -21 -109 -26l-5 18q86 22 237 102q-10 8 -25 14l-11 4v13h45v105h-119l-9 26h250l38 44l36 -31l13 50h-330q-4 -38 -21 -62q-16 -23 -40 -23q-15 0 -23 9t-8 19q0 13 20 27q30 23 40 51q6 15 8 43h15q6 -17 10 -38h115v123
l78 -7q17 -2 17 -14q0 -9 -13 -15l-20 -10v-78h157l20 32l67 -45q12 -8 12 -16q0 -10 -14 -12l-36 -4l-51 -43l7 -7v-19h-162v-99q57 38 101 76l60 -31q12 -6 12 -11q0 -8 -14 -9l-25 -3q-108 -64 -163 -93h147l20 33l64 -42q12 -8 12 -16q0 -9 -12 -14l-17 -6v-300l-60 -9
v30h-254v-33l-60 -9v306zM574 313v-73h254v73h-254zM575 415l-1 -75h254v75h-253zM574 443l254 -2v70h-214l-40 -14v-54zM408 67q48 18 110 56q57 35 95 67l54 -34q12 -8 12 -13q0 -10 -14 -9l-18 1q-87 -38 -123 -52q-51 -19 -111 -32zM455 539q67 77 107 149l55 -15
q16 -5 16 -12t-13 -12l-20 -6q-63 -70 -137 -116zM718 186q67 -1 153 -33q56 -20 72 -50q7 -12 7 -23q0 -10 -7 -16q-8 -7 -16 -7q-9 0 -42 23q-70 48 -98 62q-3 1 -51 21q-7 3 -22 10z" />
  </g>

</svg>
