<?xml version="1.0" standalone="no"?>
<!DOCTYPE svg PUBLIC "-//W3C//DTD SVG 1.1//EN" "http://www.w3.org/Graphics/SVG/1.1/DTD/svg11.dtd" >
<svg xmlns="http://www.w3.org/2000/svg" xmlns:xlink="http://www.w3.org/1999/xlink" version="1.1" viewBox="0 -410 2048 2048">
  <g transform="matrix(1 0 0 -1 0 1638)">
   <path fill="currentColor"
d="M566 619v-300q0 -53 45 -72q43 -17 169 -17h797q138 0 179 20q33 17 52 103l40 177l38 -8l-14 -149q-1 -15 -1 -27q0 -56 41 -83q31 -20 31 -35q0 -26 -35 -45q-76 -42 -253 -42h-921q-150 0 -210 38q-55 35 -55 132v294l-181 -28l-134 -27l-46 64l172 24l189 28v101
q-1 85 -6 138l98 -22q82 -18 82 -47q0 -20 -21 -27l-56 -19v-110l426 63v78q-2 120 -8 160l105 -21q88 -18 88 -46q0 -27 -34 -36l-54 -15v-106l492 74l67 80l110 -80q25 -18 25 -40q0 -11 -8 -16q-4 -2 -76 -22q-98 -211 -219 -380l-34 18q82 198 144 383l-501 -76v-183
q0 -78 5 -118q3 -16 3 -26q0 -40 -57 -40q-48 0 -48 42v311zM900 1134q-173 -42 -640 -108q-4 -66 -34 -66q-22 0 -41 52l-36 96q79 62 167 174h-71q-86 0 -160 -8l-38 89q94 -24 176 -24h42v482q-3 85 -16 134l119 -88h488l74 72l98 -72q19 -14 19 -34t-22 -20h-665v-122
h408l74 72l95 -67q24 -16 24 -33q0 -26 -24 -26h-577v-125h408l74 72l95 -67q24 -16 24 -33q0 -26 -24 -26h-577v-119h547l79 77l105 -77q22 -16 22 -32q0 -25 -22 -25h-643q-94 -87 -194 -162q181 9 310 21q263 25 307 29q-26 24 -72 62l29 29q211 -112 211 -196
q0 -60 -48 -60q-35 0 -51 49q-12 38 -40 80zM1635 1962l74 -38q67 -40 67 -55q0 -26 -28 -26h-4l-63 9q-141 -106 -245 -154q-136 -63 -329 -105l-13 40q202 68 309 134q138 84 232 195zM1832 1482l76 -41q65 -34 65 -59t-28 -21l-62 8q-192 -137 -320 -193
q-153 -68 -407 -126l-12 39q254 77 408 168q136 79 201 143q24 24 79 82zM1744 1727l66 -36q73 -40 73 -63q0 -20 -32 -20q-7 0 -15 1l-45 7q-180 -123 -297 -175q-120 -53 -338 -106l-11 39q420 133 599 353z" />
  </g>

</svg>
