<?xml version="1.0" standalone="no"?>
<!DOCTYPE svg PUBLIC "-//W3C//DTD SVG 1.1//EN" "http://www.w3.org/Graphics/SVG/1.1/DTD/svg11.dtd" >
<svg xmlns="http://www.w3.org/2000/svg" xmlns:xlink="http://www.w3.org/1999/xlink" version="1.1" viewBox="0 -204 1024 1024">
  <g transform="matrix(1 0 0 -1 0 820)">
   <path fill="currentColor"
d="M468 950q28 -22 52 -40q6 -3 6 -8q0 -18 -12 -18h-336v-58h198l36 36q27 -22 53 -40q5 -3 5 -8q0 -18 -10 -18h-282v-58h206l36 36q26 -22 52 -40q6 -3 6 -8q0 -18 -10 -18h-290v-58h264l40 40q31 -23 59 -43q7 -4 7 -11q0 -16 -12 -16h-308q-16 -19 -39 -37
q-23 -22 -61 -47q39 2 70 5q52 4 114 14q52 6 113 15q-13 12 -35 28l12 16q37 -15 59 -32q18 -11 27 -23q8 -10 8 -19q0 -32 -22 -32q-5 0 -8 5q-5 2 -10 13q-6 12 -15 22q-57 -15 -100 -22q-56 -12 -108 -22q-47 -9 -99 -16q-9 -36 -14 -36q-8 0 -48 80q10 1 17 1
q31 27 48 52q18 20 25 35h-20q-69 -1 -96 -4l-18 44q41 -9 106 -10v238q0 39 -6 70l58 -44h244zM836 958q43 -13 66 -26q8 -3 8 -12q0 -14 -52 -14q-45 -32 -97 -58q-47 -22 -102 -41q-56 -20 -101 -25l-14 18q62 17 114 41q54 22 100 54q43 27 78 63zM866 830
q44 -13 70 -26q6 -3 6 -12q0 -14 -50 -14q-46 -30 -102 -53q-49 -23 -105 -39q-56 -19 -101 -26l-18 22q67 14 120 37q53 21 100 51q44 26 80 60zM906 708q44 -11 70 -22q6 -3 6 -14q0 -14 -50 -14q-56 -33 -123 -60q-58 -26 -126 -44q-70 -22 -125 -28l-14 18q79 17 143 43
q67 23 123 56q53 30 96 65zM164 470l58 -44h246q0 50 -4 74q44 -8 73 -15q11 -4 11 -11q0 -5 -8 -10q-12 -7 -26 -12v-26h286l30 44q36 -24 54 -43q8 -9 8 -15q0 -9 -40 -32v-154h28l44 44q30 -25 59 -46q7 -5 7 -10q0 -18 -10 -18h-128v-84q0 -34 -16 -50q-14 -16 -36 -27
t-36 -11q0 25 -11 35q-13 11 -41 20q-32 12 -72 15v22q73 -14 130 -14q23 0 30 4q8 5 8 28v62h-594v-168q0 -10 -18 -10q-10 0 -24 4q-8 8 -8 24t2 46q4 22 4 98v6h-28q-69 -1 -96 -4l-18 44q43 -10 114 -10h28v176q0 39 -6 68zM214 226h254v76h-254v-76zM514 226h294v76
h-294v-76zM214 328h254v70h-254v-70zM514 328h294v70h-294v-70z" />
  </g>

</svg>
