<?xml version="1.0" standalone="no"?>
<!DOCTYPE svg PUBLIC "-//W3C//DTD SVG 1.1//EN" "http://www.w3.org/Graphics/SVG/1.1/DTD/svg11.dtd" >
<svg xmlns="http://www.w3.org/2000/svg" xmlns:xlink="http://www.w3.org/1999/xlink" version="1.1" viewBox="0 -140 1000 1000">
  <g transform="matrix(1 0 0 -1 0 860)">
   <path fill="currentColor"
d="M957 271h-159v-100l-9 -14l-44 -14l-12 7v37h-204v-56q0 -50 -15 -65.5t-71 -25.5l-10 5v25l-68 25l2 14l52 -3q27 0 36.5 5.5t9.5 31.5v44h-283v22h283v62h-421v22h421v62h-286v23h547l28 25h13l49 -41v-12l-18 -18v-39h60l37 40h12l50 -48v-14zM802 929l54 -54l-8 -12
l-36 7q-118 -70 -279 -112l-4 14q128 48 273 157zM151 922l65 -25h240l35 40h14l45 -47v-15h-337v-46h211l29 33h13l46 -42v-13h-299v-46h209l34 37h15l44 -47v-13h-302v-44h233l35 37h13l43 -46v-13h-285l-78 -62l254 17l-35 30l6 9q111 -33 111 -84q0 -34 -17 -34
q-11 0 -26 27q-11 19 -27 35l-281 -50l-27 -25l-36 66q29 3 37.5 8t22.5 26l24 37h-136v22h107v228zM529 293h204v62h-204v-62zM529 209h204v62h-204v-62zM853 848l52 -51l-9 -11l-30 4q-81 -47 -148.5 -72t-170.5 -47l-6 12q103 36 169 71.5t143 93.5zM896 756l51 -56
l-7 -11l-27 7q-110 -56 -193 -82.5t-193 -41.5l-1 14q137 39 215 74.5t155 95.5zM776 590l45 -57l-9 -11l-35 12q-195 -36 -391 -36q-64 0 -91 1q-42 -54 -75.5 -83.5t-97.5 -71.5l-9 11q57 52 86 93.5t57 110.5l49 -39q245 8 471 70zM656 499l5 11q32 -9 45.5 -13t38 -12
t35 -13.5t23.5 -14.5t18 -18.5t5 -21.5q0 -34 -17 -34q-35 0 -79 47q-57 60 -74 69zM422 487l7 8q62 -25 80 -39t18 -40q0 -36 -21 -36q-10 0 -26 33q-18 34 -58 74z" />
  </g>

</svg>
