<?xml version="1.0" standalone="no"?>
<!DOCTYPE svg PUBLIC "-//W3C//DTD SVG 1.1//EN" "http://www.w3.org/Graphics/SVG/1.1/DTD/svg11.dtd" >
<svg xmlns="http://www.w3.org/2000/svg" xmlns:xlink="http://www.w3.org/1999/xlink" version="1.1" viewBox="0 -410 2048 2048">
  <g transform="matrix(1 0 0 -1 0 1638)">
   <path fill="currentColor"
d="M1753 936h-422l61 -26q59 -24 59 -45q0 -23 -53 -30l-36 -5q-122 -173 -209 -247h287l87 87l117 -96q15 -12 15 -26q0 -22 -20 -22h-574v-202q0 -69 4 -114q4 -50 4 -61q0 -52 -65 -52q-37 0 -37 34v395h-379q-66 0 -146 -11l-42 86q122 -18 188 -18h220q-18 20 -29 57
q-33 116 -173 280l15 16h-336v-828q0 -38 -54 -38q-51 0 -51 51l12 238v555q0 34 -10 156l117 -76h1431l70 76l82 -54q40 -27 40 -49q0 -28 -78 -61v-661q0 -136 -186 -167v14q0 54 -37.5 74.5t-184.5 49.5l5 45l87 -16l57 -7q78 -12 106 -12q58 0 58 46v664zM654 936
q242 -182 242 -287q0 -39 -35 -66h234q76 101 110 165q28 53 80 188h-631zM1484 1609l70 76l83 -54q39 -26 39 -48q0 -28 -77 -62v-255l38 -30q31 -20 31 -33q0 -20 -27 -20h-1099v-38q0 -40 -58 -40q-50 0 -50 47l12 203v317l107 -63h931zM1504 1552h-962v-311h962v311z
M133 1773l-39 86q137 -20 195 -20h1446l98 102l121 -107q17 -15 17 -25q0 -26 -28 -26h-1661q-70 0 -149 -10z" />
  </g>

</svg>
