<?xml version="1.0" standalone="no"?>
<!DOCTYPE svg PUBLIC "-//W3C//DTD SVG 1.1//EN" "http://www.w3.org/Graphics/SVG/1.1/DTD/svg11.dtd" >
<svg xmlns="http://www.w3.org/2000/svg" xmlns:xlink="http://www.w3.org/1999/xlink" version="1.1" viewBox="0 -140 1000 1000">
  <g transform="matrix(1 0 0 -1 0 860)">
   <path fill="currentColor"
d="M838 862h-210v-37h210v37zM838 802h-210v-38h210v38zM838 742h-210v-38h210v38zM50 502v22h803l39 40h15l47 -46v-16h-904zM707 458l28 31h13l45 -35v-14l-19 -22v-48l-6 -8l-43 -12l-11 8v12h-444q0 -12 -5 -20l-45 -8l-10 8v133l64 -25h433zM714 436h-444v-43h444v43z
M655 177l29 35h15l36 -40v-18h-201v-66l-6 -11l-46 -15l-8 7v85h-198v23h379zM412 835l33 32h12l37 -38v-17h-182q0 -19 -8 -77h153l29 37h14l41 -45v-15h-244q-1 -6 -5 -11q198 -54 198 -119q0 -34 -26 -34q-9 0 -19 10q-60 69 -72.5 79t-86.5 50q-36 -61 -88.5 -93.5
t-142.5 -51.5l-5 15q77 23 121 58t74 97h-171v23h176q2 35 8 77h-153v23h153q3 35 3 65q0 19 -1 27l81 -10v-17l-23 -9q-1 -18 -3 -56h97zM828 884l30 29h14l48 -40v-16l-22 -19v-159l-6 -10l-45 -13l-9 3v23h-29v-41q0 -17 5.5 -21.5t23.5 -4.5h31q19 0 31 24l17 35l12 -2
l-7 -56l22 -9v-17q-28 -19 -62 -19h-53q-50 0 -65.5 11.5t-15.5 54.5v45h-36q-23 -58 -66.5 -91.5t-126.5 -56.5l-5 9q62 30 91.5 60.5t46.5 79.5l-24 -1v-13l-8 -10l-40 -15l-12 5v268l67 -33h193zM804 322l28 36h12l49 -38v-15l-20 -24v-141q0 -43 -20.5 -63t-76.5 -32
l-15 7l-2 33l-90 28l4 13l91 -9q7 -1 20 -1q17 0 22.5 6.5t5.5 24.5l1 153h-180v-15q0 -16 6 -19.5t33 -3.5h45q19 0 25 6t11 24l14 -2v-29l18 -14v-13q-20 -11 -44 -11h-126q-28 0 -35 6.5t-8 33.5l-1 37h-123q-50 -53 -97.5 -75t-149.5 -41l-4 14q74 22 107.5 41.5
t65.5 60.5h-192v-224l-7 -10l-43 -16l-10 6v293l65 -27h621z" />
  </g>

</svg>
