<?xml version="1.0" standalone="no"?>
<!DOCTYPE svg PUBLIC "-//W3C//DTD SVG 1.1//EN" "http://www.w3.org/Graphics/SVG/1.1/DTD/svg11.dtd" >
<svg xmlns="http://www.w3.org/2000/svg" xmlns:xlink="http://www.w3.org/1999/xlink" version="1.1" viewBox="0 -140 1000 1000">
  <g transform="matrix(1 0 0 -1 0 860)">
   <path fill="currentColor"
d="M378 660l28 38h18l48 -42v-19l-23 -21v-271l-7 -14l-45 -14l-8 8v22h-224q0 -16 -6 -30l-44 -11l-10 9v374l65 -29h100l42 137h-132q-58 -85 -121 -151l-11 11q84 114 122 269l78 -30l-4 -17l-21 -3q-9 -16 -33 -57h122l33 34h17l44 -61l-6 -11l-36 -9l-69 -112h83z
M389 637h-80v-127h80v127zM249 637h-84v-127h84v127zM249 487h-84v-117h84v117zM389 487h-80v-117h80v117zM182 268l11 7q68 -80 68 -130q0 -44 -27 -44q-31 0 -31 64q0 57 -21 103zM125 273l16 -1q-1 -4 -1.5 -13.5t-0.5 -14.5q-3 -95 -17 -125q-17 -32 -36 -32
q-10 0 -19.5 12t-9.5 25q0 14 28 45q34 37 40 104zM830 870l29 35h15l53 -43v-15l-28 -21v-226q0 -260 -29 -387q-14 -58 -43 -96.5t-90 -65.5l-22 5l-5 33l-103 27l5 16l100 -4q25 -1 45 9t32 31t20.5 41.5t13.5 51t6.5 49.5t3.5 47q6 101 6 215v275h-171q-1 -99 -4 -162.5
t-10.5 -136.5t-21 -121t-35.5 -101.5t-55 -95t-79 -84t-107 -84.5l-10 11q42 33 70 59.5t62.5 72.5t56.5 98t40.5 131.5t25.5 177.5q6 76 6 235h-135v23h358zM268 286l10 9q79 -76 79 -129q0 -41 -26 -41q-30 0 -35 71q-3 46 -28 90zM341 305l8 10q99 -69 99 -122
q0 -15 -7.5 -26t-18.5 -11q-23 0 -38 65q-11 44 -43 84z" />
  </g>

</svg>
