<?xml version="1.0" standalone="no"?>
<!DOCTYPE svg PUBLIC "-//W3C//DTD SVG 1.1//EN" "http://www.w3.org/Graphics/SVG/1.1/DTD/svg11.dtd" >
<svg xmlns="http://www.w3.org/2000/svg" xmlns:xlink="http://www.w3.org/1999/xlink" version="1.1" viewBox="0 -204 1024 1024">
  <g transform="matrix(1 0 0 -1 0 820)">
   <path fill="currentColor"
d="M182 964q98 -17 98 -36q0 -13 -58 -14q-8 -28 -15 -48h103l30 32q33 -25 59 -52q3 -2 3 -6q0 -8 -18 -11q-14 -3 -30 -7q-16 -35 -43 -74q-20 -34 -43 -58h96l26 30q52 -30 52 -44q0 -10 -26 -26v-322q0 -17 -32 -22q-16 0 -16 8v22h-227q1 -8 1 -16q0 -14 -34 -18
q-18 0 -18 12v351q-22 -26 -48 -49l-10 20q34 41 53 70t42 78q17 38 35 88q11 40 20 92zM138 364h92v144h-92v-144zM280 364h88v144h-88v-144zM138 536h92v124h-92v-124zM280 660v-124h88v124h-88zM138 690h106q25 40 42 77q16 36 24 69h-115q-13 -26 -25 -49
q-24 -47 -49 -83zM86 240h26q0 -59 -9 -98q-3 -32 -12 -53q-5 -22 -14 -33q-5 -9 -11 -13q-6 -7 -12 -7q-26 0 -26 26q0 3 3 8q16 26 26 45q15 26 20 51q7 29 9 74zM186 252q13 -20 21 -49q8 -26 11 -52q4 -24 4 -47q0 -15 -4 -29q-5 -10 -11 -14q-7 -3 -11 -3q-18 0 -18 14
q0 8 3 24q5 20 2 52q-1 41 -13 100zM280 266q15 -18 26 -34q15 -14 23 -30q9 -13 12 -24q1 -11 1 -22q0 -18 -4 -29q-9 -15 -24 -15q-4 0 -6 5q-3 3 -5 21q-3 19 -7 41q-6 18 -13 37q-9 16 -21 36zM358 276q21 -10 34 -24q19 -11 29 -20q10 -11 13 -19q4 -9 4 -17
q0 -14 -5 -24q-7 -12 -17 -12q-5 0 -8 4q-6 2 -8 16q-4 14 -12 28q-6 17 -16 28q-11 13 -26 30zM614 964q51 -16 86 -35q8 -6 8 -13t-21 -10q-21 -4 -33 -4q-11 -26 -22 -48h160l30 34q36 -25 66 -57q4 -2 4 -5q0 -7 -22 -10q-17 -3 -30 -6q-24 -35 -56 -72q-24 -33 -49 -56
h135l44 48l68 -51q8 -5 8 -11q0 -14 -10 -14h-426v-132q0 -78 -7 -147q-4 -58 -21 -120q-13 -52 -32 -95q-20 -39 -50 -72q-23 -31 -68 -64l-12 8q28 29 51 61q20 27 36 60q17 37 27 83q15 56 21 114q9 77 9 172q0 98 -3 166q-16 -16 -31 -28l-14 12q37 42 61 78
q23 33 41 72q21 39 35 73q10 31 17 69zM522 704l36 -22h149q31 37 52 72q20 37 33 72h-177q-5 -9 -10 -19q-25 -43 -55 -76q-12 -15 -28 -27zM680 522v-376q0 -12 4 -23q9 -9 27 -14q23 -7 63 -7h48q30 0 56 9q18 6 22 28q13 36 32 159l18 -6v-140q0 -17 18 -35
q14 -13 14 -23q0 -7 -5 -15q-8 -7 -29 -12q-18 -5 -52 -6q-38 -3 -74 -3h-48q-25 0 -52 4q-23 2 -41 8t-31 18q-10 9 -13 21q-5 13 -5 33v434l54 -28h150l34 36q31 -15 52 -34q10 -8 10 -14q0 -8 -36 -36q-4 -86 -11 -136q-5 -49 -14 -70q-6 -18 -14 -23q-5 -7 -17 -11
q-12 -8 -36 -12q-4 20 -10 27q-8 10 -22 15q-10 8 -52 16l4 22q61 -14 80 -14q6 0 10 2q6 2 10 8q5 8 10 22q4 14 8 59q6 58 6 117h-168z" />
  </g>

</svg>
