<?xml version="1.0" standalone="no"?>
<!DOCTYPE svg PUBLIC "-//W3C//DTD SVG 1.1//EN" "http://www.w3.org/Graphics/SVG/1.1/DTD/svg11.dtd" >
<svg xmlns="http://www.w3.org/2000/svg" xmlns:xlink="http://www.w3.org/1999/xlink" version="1.1" viewBox="0 -140 1000 1000">
  <g transform="matrix(1 0 0 -1 0 860)">
   <path fill="currentColor"
d="M459 789h213v141l96 -16v-15l-31 -13l-1 -97h115l37 40h12l49 -48v-14h-213v-120h101l32 33h13l51 -36v-13l-24 -22v-456q0 -47 -13 -61.5t-71 -30.5l-12 9v23l-61 32v11l61 -7q16 -2 24.5 7.5t8.5 30.5v134h-110v-220l-4 -11l-54 -9l-6 7v233h-100v-226l-3 -11l-52 -16
l-9 6v619l72 -26h92v120h-213v22zM572 463v-140h100v140h-100zM572 625v-140h100v140h-100zM736 463v-140h110v140h-110zM736 625v-140h110v140h-110zM782 915l5 10q54 -10 79 -22.5t25 -40.5t-24 -28q-16 0 -43 40q-13 18 -42 41zM120 309v293q-6 -7 -47 -46l-11 10
q37 59 66 123t42.5 105t32.5 106l97 -22l-4 -17l-33 -9l-14 -32h86l29 29h14l54 -54l-8 -12l-25 -4l-92 -96h70l28 35h15l57 -37v-14l-24 -21v-307l-7 -13l-49 -11l-8 5v28h-205v-24l-12 -9l-43 -11zM330 793h-93q-16 -32 -58 -110h103zM184 499v-129h68v129h-68zM184 661
v-140h68v140h-68zM317 661v-140h72v140h-72zM317 499v-129h72v129h-72zM100 269l15 3q21 -76 21 -134q0 -40 -13 -66.5t-33 -26.5q-11 0 -21 14.5t-10 30.5q0 17 6 29q3 6 8.5 17.5t7.5 15.5t5.5 11.5t4.5 10.5t3.5 9t2.5 9t1 8t1.5 9.5t0.5 10v13.5v36zM181 268l14 7
q79 -98 79 -150q0 -22 -11 -37.5t-26 -15.5q-23 0 -29 48q-10 95 -27 148zM278 278l11 8q36 -39 51.5 -56.5t29.5 -43t14 -46.5q0 -17 -10 -31t-22 -14q-31 0 -43 87q-4 29 -31 96zM363 279l9 11q3 -2 17.5 -12.5t18.5 -14t17 -13t17.5 -14.5t14 -14t13 -16t8.5 -16t7 -17.5
t2 -17.5q0 -19 -8.5 -32.5t-20.5 -13.5q-4 0 -7.5 1t-6.5 2t-5.5 4t-4.5 5.5t-4 7.5t-3.5 8.5t-3.5 10t-3 11t-3.5 13t-3.5 13.5q-8 31 -50 94z" />
  </g>

</svg>
