<?xml version="1.0" standalone="no"?>
<!DOCTYPE svg PUBLIC "-//W3C//DTD SVG 1.1//EN" "http://www.w3.org/Graphics/SVG/1.1/DTD/svg11.dtd" >
<svg xmlns="http://www.w3.org/2000/svg" xmlns:xlink="http://www.w3.org/1999/xlink" version="1.1" viewBox="0 -410 2048 2048">
  <g transform="matrix(1 0 0 -1 0 1638)">
   <path fill="currentColor"
d="M920 1874l109 -24q86 -19 86 -47q0 -24 -52 -39l-41 -13v-99v-329h761v310v62q0 111 -8 160l108 -25q86 -19 86 -44q0 -29 -49 -43l-41 -11v-99v-204l7 -152v-27q0 -50 -57 -50q-46 0 -46 35v31h-167v-163q0 -77 114 -77q59 0 117 12q51 11 73 11q55 0 55 -56
q0 -62 -186 -62q-120 0 -179 20q-91 30 -91 129v186h-247q-22 -111 -56 -167q-77 -123 -354 -202l-16 42q154 60 220 121q80 73 99 206h-148q-16 -20 -50 -20q-40 0 -40 35v431q0 111 -7 162zM1568 1947l101 -42q55 -23 55 -47q0 -30 -93 -44q-56 -71 -116 -141
q146 -90 179 -119q47 -40 47 -90q0 -52 -51 -52q-14 0 -26 7q-18 11 -88 95q-26 31 -121 98q-164 -130 -390 -212l-15 37q210 97 329 226q-97 64 -125 77q-83 38 -115 55l15 38q132 -41 277 -111q66 80 137 225zM1242 1020l85 -29q82 -28 82 -55q0 -29 -72 -38l-31 -3
q-31 -51 -64 -101h386l72 80l83 -54q41 -27 41 -48q0 -27 -78 -61q-95 -141 -126 -182q-49 -66 -144 -146q227 -110 529 -146v-38q-49 -4 -70 -18q-24 -16 -37 -62q-248 59 -505 200q-244 -147 -630 -222l-8 41q32 11 146 44q229 68 415 191q-156 111 -241 231
q-102 -83 -208 -144l-20 32q93 63 190 175q-27 63 -50 125l38 19q25 -46 53 -95q98 122 164 304zM1208 737q-43 -49 -84 -93q102 -117 267 -213q136 110 241 306h-424zM200 1348q-50 -51 -109 -102l-29 30q23 28 35 42q135 157 202 312q55 126 88 303l116 -27q54 -13 54 -36
q0 -27 -50 -34l-31 -4l-38 -119h196l64 64l76 -56q43 -32 43 -50q0 -13 -12 -23q-2 -2 -41 -14l-31 -11q-105 -172 -155 -247h116l61 72l72 -50q42 -28 42 -50q0 -16 -65 -52v-657q0 -46 -63 -46q-28 0 -28 22v40h-419v-32q0 -38 -71 -38q-23 0 -23 22v741zM253 1407l54 -31
h212q50 104 115 280h-220q-59 -127 -161 -249zM294 992v-281h160v281h-160zM294 1048h160v270h-160v-270zM548 1318v-270h165v270h-165zM713 992h-165v-281h165v281zM204 485h38q1 -370 -112 -370q-48 0 -48 44q0 20 38 63q69 78 84 263zM390 505l15 -42q55 -136 55 -242
q0 -73 -58 -73q-42 0 -42 39q0 9 5 39q7 49 7 91q0 60 -21 176zM537 543q129 -173 129 -273q0 -66 -52 -66q-39 0 -40 60q-4 107 -69 258zM701 554q162 -147 162 -220q0 -23 -15 -41q-17 -19 -39 -19q-20 0 -31 17q-5 7 -17 66q-14 60 -89 174z" />
  </g>

</svg>
