<?xml version="1.0" standalone="no"?>
<!DOCTYPE svg PUBLIC "-//W3C//DTD SVG 1.1//EN" "http://www.w3.org/Graphics/SVG/1.1/DTD/svg11.dtd" >
<svg xmlns="http://www.w3.org/2000/svg" xmlns:xlink="http://www.w3.org/1999/xlink" version="1.1" viewBox="0 -140 1000 1000">
  <g transform="matrix(1 0 0 -1 0 860)">
   <path fill="currentColor"
d="M520 450h-163q-33 -28 -69 -52l10 -11h200zM481 364h-196v-67h196v67zM481 274h-196v-61h196v61zM729 274h-188v-61h188v61zM729 364h-188v-67h188v67zM350 180l10 7q47 -31 63.5 -50t16.5 -44q0 -18 -8.5 -28t-19.5 -10q-10 0 -18.5 9t-9.5 25q-6 54 -34 91zM555 175
l6 12q110 -39 110 -97q0 -35 -25 -35q-19 0 -38 56q-14 37 -53 64zM201 200h15q-10 -59 -37.5 -105t-53.5 -46q-21 0 -21 30q0 35 40 54q25 13 35.5 25.5t21.5 41.5zM795 190l9 10q109 -54 109 -108q0 -33 -22 -33q-16 0 -25 20q-26 59 -33 69.5t-38 41.5zM278 722v-12
l-25 -8q-23 -70 -64 -122l-11 8q27 61 41 156zM359 730l10 10q79 -54 79 -95q0 -36 -25 -36q-5 0 -8.5 1t-6 2.5t-5 5.5t-3.5 7t-2.5 9.5t-2.5 10.5t-2.5 12.5t-2.5 14.5q-4 25 -31 58zM855 823l32 39h15l44 -46v-15h-76q-36 -108 -105 -180q84 -54 181 -76l-4 -15
q-38 -11 -57 -44q-94 51 -150 109q-76 -60 -210 -98l-7 14q112 41 187 113q-57 70 -84 156q-28 -45 -51 -70l-14 7q36 75 49 110.5t28 103.5l72 -29l-3 -15l-25 -6q-1 -4 -26 -58h204zM805 801h-165q25 -76 88 -149q54 63 77 149zM167 776v-236l-6 -12l-39 -12l-9 7v251
q-43 -31 -55 -37l-8 12q74 65 141 181l69 -43l-3 -12l-32 2l-64 -70l6 -9h121v132l83 -20v-15l-28 -15v-82h111l27 27h14l46 -39v-15l-25 -22v-125q0 -43 -13 -63t-49 -33l-14 2l-8 23l-61 18v14l55 -3q17 -1 26 9.5t9 32.5v152h-118v-216l-6 -14l-42 -16l-7 6v240h-121z
M717 386l31 37h16l50 -48v-18l-25 -20v-145l-7 -10l-42 -13l-11 6v15h-444q0 -7 -7 -19l-40 -12l-13 7v195l-102 -51l-4 14q139 82 245 221l71 -30l-5 -15h-22l-30 -28h143l33 28h14l47 -48l-9 -14l-38 -9l-42 -43h191zM444 909l7 11q68 -31 102 -55.5t34 -52.5
q0 -34 -20 -34q-21 0 -46 48q-18 38 -77 83z" />
  </g>

</svg>
