<?xml version="1.0" standalone="no"?>
<!DOCTYPE svg PUBLIC "-//W3C//DTD SVG 1.1//EN" "http://www.w3.org/Graphics/SVG/1.1/DTD/svg11.dtd" >
<svg xmlns="http://www.w3.org/2000/svg" xmlns:xlink="http://www.w3.org/1999/xlink" version="1.1" viewBox="0 -410 2048 2048">
  <g transform="matrix(1 0 0 -1 0 1638)">
   <path fill="currentColor"
d="M167 1377q-46 -47 -91 -87l-29 28q133 168 201 305q60 123 98 339l116 -27q52 -13 52 -37q0 -26 -49 -33l-31 -5l-38 -119h173l65 64l76 -56q43 -32 43 -53t-53 -36l-30 -8q-114 -188 -155 -248h161l61 72l72 -50q42 -28 42 -49q0 -16 -65 -52v-507q0 -19 6 -89
q4 -49 4 -64q0 -44 -66 -44q-39 0 -39 31v31h-430v-31q0 -39 -53 -39q-51 0 -51 45q0 4 4 49q6 95 6 104v566zM455 1404q55 119 114 280h-197q-56 -123 -153 -248l55 -32h181zM261 1076h167v271h-167v-271zM522 1347v-271h169v271h-169zM261 1020v-281h167v281h-167z
M691 1020h-169v-281h169v281zM1540 223v590q0 118 -8 160l101 -24q74 -18 74 -47q0 -24 -51 -39l-23 -8v-349h140v189q0 120 -10 160l101 -24q74 -18 74 -46q0 -26 -51 -40l-23 -6v-220l37 -27q10 -7 10 -20q0 -23 -15 -23h-263v-226h130l97 101l121 -107q17 -15 17 -25
q0 -27 -27 -27h-757q-109 0 -192 -8l-38 88q96 -22 230 -22h105v226h-121q-28 -15 -52 -15q-42 0 -42 43v218q-4 146 -7 160l101 -24q74 -18 74 -46q0 -26 -51 -40l-23 -6v-233h121v318q0 121 -8 160l101 -24q74 -18 74 -46q0 -25 -51 -40l-23 -7v-644h128zM1319 1499
l65 -16q74 -19 74 -45q0 -28 -51 -41l-23 -6v-93l226 34l57 87l107 -65q25 -15 25 -35q0 -21 -25 -25l-390 -61v-42q0 -61 53 -80q45 -15 154 -15q139 0 203 18q37 11 49 11q32 0 58 -33q12 -15 12 -30q0 -21 -19 -27q-21 -7 -140 -16q-74 -6 -120 -6q-221 0 -284 37
q-58 35 -58 126v42l-55 -8q-73 -11 -105 -28l-58 74l79 7l139 21v63q-5 142 -7 152h-239v-328q-4 -398 -53 -634q-29 -147 -84 -253q-45 -85 -131 -191l-31 28q114 160 158 384q45 227 45 666v236q0 110 -16 225l120 -76h265v242q0 105 -5 160l109 -24q85 -19 85 -46
q0 -24 -50 -41l-41 -13v-93h229l88 85l118 -90q17 -13 17 -26q0 -26 -27 -26h-425v-128h403l61 64l76 -61q42 -34 42 -52q0 -23 -31 -28l-53 -7q-53 -50 -108 -99l-33 24q24 50 50 102h-505zM205 537h38q-3 -220 -35 -308q-37 -105 -111 -105q-48 0 -48 44q0 21 48 70
q88 90 108 299zM352 552q74 -197 74 -305q0 -74 -58 -74q-42 0 -42 40q0 8 5 38q7 47 7 93q0 70 -24 197zM492 564q144 -183 144 -284q0 -67 -53 -67q-43 0 -45 63q-5 112 -78 268zM649 598q187 -168 187 -245q0 -62 -54 -62q-36 0 -46 46q-22 105 -117 237z" />
  </g>

</svg>
