<?xml version="1.0" standalone="no"?>
<!DOCTYPE svg PUBLIC "-//W3C//DTD SVG 1.1//EN" "http://www.w3.org/Graphics/SVG/1.1/DTD/svg11.dtd" >
<svg xmlns="http://www.w3.org/2000/svg" xmlns:xlink="http://www.w3.org/1999/xlink" version="1.1" viewBox="0 -204 1024 1024">
  <g transform="matrix(1 0 0 -1 0 820)">
   <path fill="currentColor"
d="M46 880q44 -10 118 -10h134l44 46q36 -25 66 -47q8 -5 8 -11q0 -18 -14 -18h-158v-292h80l44 50q34 -25 66 -51q8 -5 8 -11q0 -14 -12 -14h-186v-414q0 -21 2 -30q2 -16 2 -28q0 -32 -34 -32q-24 0 -24 14q0 23 4 56q2 34 2 60v374h-54q-69 -1 -96 -4l-18 44
q43 -14 114 -14h54v292h-32q-72 -1 -96 -4zM596 960q90 -18 90 -36q0 -10 -50 -14q-21 -34 -49 -66h223l30 32q52 -31 52 -44q0 -9 -30 -28v-230q0 -19 -32 -26q-16 0 -16 10v8h-278v-84h318l44 44q34 -25 60 -46q10 -5 10 -10q0 -18 -14 -18h-418v-98h362l38 32
q33 -21 50 -36q8 -8 8 -14q0 -12 -40 -26q-5 -82 -16 -139q-11 -61 -25 -86q-12 -26 -25 -37q-18 -16 -35 -25q-15 -5 -27 -5q0 14 -7 24q-9 12 -93 38l4 22q80 -22 106 -22q10 0 17 6q7 2 13 11q7 8 17 35q8 23 13 70q7 46 10 122h-390q-9 -4 -16 -4q-14 0 -14 12v544
l62 -32h12q19 28 26 54q6 24 10 62zM536 592h278v102h-278v-102zM536 720h278v98h-278v-98zM464 258l10 -6q-5 -54 -9 -85q-6 -28 -13 -50q-8 -19 -16 -30q-8 -14 -13 -18q-6 -5 -11 -5q-26 0 -26 22q0 8 2 15q3 5 23 28q20 27 26 42q7 15 15 36q7 22 12 51zM558 258
q10 -20 19 -41q9 -25 11 -44q4 -23 4 -39q0 -19 -6 -32q-5 -11 -15 -16q-8 -6 -13 -6q-18 0 -18 22q0 5 3 17q5 20 4 47q1 33 -7 86zM658 274q16 -17 26 -37q12 -15 21 -32q9 -15 12 -25q3 -13 3 -24q0 -18 -6 -29q-9 -15 -24 -15q-3 0 -6 5q-2 4 -3 22q-2 21 -8 43
q-5 20 -14 40q-6 17 -17 40zM756 288q16 -13 31 -30q17 -16 25 -28q11 -14 14 -26q4 -10 4 -18q0 -19 -5 -30q-8 -10 -17 -10q-5 0 -8 3q-4 3 -7 18q-6 21 -13 38q-8 20 -16 35q-9 18 -26 36z" />
  </g>

</svg>
