<?xml version="1.0" standalone="no"?>
<!DOCTYPE svg PUBLIC "-//W3C//DTD SVG 1.1//EN" "http://www.w3.org/Graphics/SVG/1.1/DTD/svg11.dtd" >
<svg xmlns="http://www.w3.org/2000/svg" xmlns:xlink="http://www.w3.org/1999/xlink" version="1.1" viewBox="0 -410 2048 2048">
  <g transform="matrix(1 0 0 -1 0 1638)">
   <path fill="currentColor"
d="M251 1296q104 -14 171 -14h152l80 81l114 -86q17 -13 17 -26q0 -26 -27 -26h-340q-56 0 -151 -15l-34 67q-54 -60 -148 -136l-26 30q155 163 267 400q85 177 121 373l123 -35q65 -18 65 -41t-40 -30l-52 -10q380 -332 380 -488q0 -68 -56 -68q-39 0 -56 57
q-78 265 -290 462q-98 -286 -270 -495zM135 921l-38 88q96 -23 230 -23h400l71 71l76 -53q49 -33 49 -59q0 -22 -39 -35l-52 -19q-112 -237 -305 -506q89 -142 89 -225q0 -74 -53 -74q-39 0 -57 71q-30 124 -81 226q-58 114 -195 295l32 27q136 -144 232 -272
q118 189 233 496h-400q-118 0 -192 -8zM1641 1715l61 72l72 -50q42 -28 42 -49q0 -17 -65 -53v-288q0 -42 7 -105q3 -31 3 -45q0 -48 -68 -48q-38 0 -38 25v35h-568v-171h651l80 81l114 -86q17 -13 17 -26q0 -26 -27 -26h-835v-173h696l61 70l72 -50q42 -28 42 -49
q0 -16 -65 -52q-8 -63 -12 -94q-29 -250 -57 -331q-73 -214 -280 -239q0 68 -67 95q-87 37 -148 53l12 42q48 -14 72 -20q152 -44 182 -44q86 0 136 149q33 99 63 413h-720q-19 -14 -42 -14q-41 0 -41 36v843q0 83 -15 167l121 -68h72q40 144 50 247l110 -26q69 -17 69 -42
q0 -24 -46 -32l-42 -8q-44 -74 -91 -139h422zM1087 1266h568v174h-568v-174zM1655 1658h-568v-162h568v162zM945 610h41q-2 -151 -18 -241q-24 -126 -104 -126q-51 0 -51 44q0 26 48 73q52 52 68 122q11 51 16 128zM1503 686q176 -132 176 -214q0 -62 -54 -62q-34 0 -43 52
q-8 42 -28 90q-12 26 -77 112zM1286 644q160 -146 160 -229q0 -64 -51 -64q-38 0 -46 61q-13 103 -92 211zM1136 619q83 -180 83 -246q0 -74 -61 -74q-43 0 -43 44q0 7 2 24q7 47 7 76q0 67 -22 164z" />
  </g>

</svg>
