<?xml version="1.0" standalone="no"?>
<!DOCTYPE svg PUBLIC "-//W3C//DTD SVG 1.1//EN" "http://www.w3.org/Graphics/SVG/1.1/DTD/svg11.dtd" >
<svg xmlns="http://www.w3.org/2000/svg" xmlns:xlink="http://www.w3.org/1999/xlink" version="1.1" viewBox="0 -200 1000 1000">
  <g transform="matrix(1 0 0 -1 0 800)">
   <path fill="currentColor"
d="M45 673q28 17 60 52.5t60.5 78.5t51.5 89t34 85l75 -60l-32 -12q-15 -23 -23.5 -32t-12.5 -17h146l36 40q29 -25 48 -34t19 -17l-40 -30q-28 -59 -76 -116t-105.5 -103t-120 -76.5t-120.5 -36.5q55 21 112 60t107 87t88 101.5t56 103.5h-161l-43 -49q86 -48 86 -92
q0 -12 -4 -19q-18 -24 -29 -24t-18 19q1 5 1.5 9.5t0.5 9.5q0 25 -12 48t-33 41q-12 -14 -31 -32t-40 -34.5t-41.5 -28t-34.5 -11.5h-4zM606 885h148l29 33l71 -43l-30 -30v-16q0 -43 -6 -71.5t-18 -46t-30.5 -26t-42.5 -11.5q0 20 -15.5 37.5t-58.5 25.5l1 6q15 -2 28 -3.5
t24 -1.5q45 0 57 21q7 24 7 66v18.5t-1 19.5h-166l-8 -6v-210q0 -1 -0.5 -2t-0.5 -2q0 -9 11.5 -16.5t34.5 -7.5q2 0 4.5 0.5t5.5 0.5h174q27 1 41 12.5t20 32.5t7.5 50.5t3.5 67.5h8v-45q0 -24 1.5 -45.5t7.5 -38t17 -26t31 -9.5h6q5 -5 5 -10q0 -10 -24 -20t-90 -10h-256
q-63 0 -67 72v266zM692 329l63 -53h-439v-56h478l27 36l63 -39l-33 -36q0 -2 -4.5 -18.5t-11.5 -40t-16.5 -49.5t-19.5 -45q-48 -59 -110 -59h-8q1 1 1 8q0 17 -17.5 37.5t-63.5 36.5l3 3q35 -12 58 -16.5t39 -4.5q20 0 29 6t14 15q11 10 25 45.5t25 101.5h-532v348l65 -29
h-1q19 25 35.5 58t20.5 62l62 -49l-39 -18l-60 -53h304l37 40l60 -44l-30 -29v-135q-9 -1 -17 -1.5t-15 -0.5q-16 0 -23 3l-345 -1v-57h332zM316 488v-43h345v55h-338zM316 372h345v53h-345v-53zM681 78q-14 -11 -22 -11q-9 0 -14 14q-3 19 -21.5 50.5t-52.5 58.5l-4 2
q48 -13 76 -28t33 -27q19 -10 19 -27q0 -12 -14 -32zM436 185q35 -18 61 -37.5t36 -35.5q6 -12 6 -25q0 -14 -7.5 -25.5t-22.5 -16.5q-7 -4 -14 -4q-13 0 -13 18q0 8 1 9q-5 16 -10 33t-11 32.5t-13 28t-16 20.5zM364 35q-5 -1 -8 -1.5t-4 -0.5q-18 0 -18 15q0 2 0.5 3
t0.5 3q3 10 3 29q0 21 -5.5 47t-16.5 49h7q15 -12 26 -25t19 -25t13 -22l7 -14q3 -8 3 -16q0 -21 -27 -42zM179 170q21 -27 29.5 -55.5t8.5 -49.5q0 -13 -3 -22q-12 -34 -45 -34q-2 0 -4 0.5t-4 0.5q-12 7 -12 14q0 8 7 15q10 12 16 42t6 65v14.5t-1 14.5z" />
  </g>

</svg>
