<?xml version="1.0" standalone="no"?>
<!DOCTYPE svg PUBLIC "-//W3C//DTD SVG 1.1//EN" "http://www.w3.org/Graphics/SVG/1.1/DTD/svg11.dtd" >
<svg xmlns="http://www.w3.org/2000/svg" xmlns:xlink="http://www.w3.org/1999/xlink" version="1.1" viewBox="0 -410 2048 2048">
  <g transform="matrix(1 0 0 -1 0 1638)">
   <path fill="currentColor"
d="M403 1452h-147q-68 0 -149 -11l-39 86q121 -19 237 -19h171v228q-61 -10 -300 -35l-50 -5l-7 40q451 55 646 196l90 -58q43 -27 43 -49t-28 -22q-11 0 -33 4l-39 6q-127 -38 -227 -61v-244h211l80 80l114 -86q17 -12 17 -24q0 -26 -27 -26h-395v-25q22 -11 105 -54
q125 -64 202 -125q54 -43 54 -96q0 -60 -49 -60q-20 0 -36 15q-10 10 -49 69q-53 79 -227 199v-142l7 -103l3 -68q4 -50 4 -55q0 -41 -55 -41q-54 0 -54 43v350q-90 -139 -152 -205q-94 -100 -247 -203l-20 33q228 206 346 468zM283 967l109 -24q85 -19 85 -45
q0 -23 -50 -41l-41 -14q-8 -305 -44 -426q-52 -170 -239 -327l-27 29q142 150 182 323q33 142 33 364v51q0 68 -8 110zM621 955l109 -24q85 -19 85 -45t-50 -42l-41 -14v-435q98 52 198 149l28 -24q-74 -133 -200 -245l-6 -36q-6 -40 -29 -40q-17 0 -31 27l-69 126l14 4v439
q0 118 -8 160zM1657 1713l61 72l71 -50q43 -30 43 -50q0 -16 -65 -52v-299q0 -40 7 -104q3 -31 3 -45q0 -48 -68 -48q-39 0 -39 25v46h-510v-171h579l80 81l114 -86q16 -13 16 -26q0 -26 -27 -26h-762v-174h616l61 70l72 -49q42 -29 42 -50q0 -16 -65 -52q-8 -63 -12 -95
q-29 -250 -57 -330q-72 -213 -279 -239q-1 68 -67 95q-87 37 -149 53l12 42q48 -14 72 -20q154 -44 183 -44q86 0 136 149q35 102 64 413h-642q-20 -14 -42 -14q-41 0 -41 36v843q0 83 -15 167l121 -68h72q41 148 50 247l109 -26q70 -17 70 -42q0 -24 -46 -32l-42 -8
q-44 -74 -91 -139h365zM1160 1265h510v173h-510v-173zM1670 1656h-510v-162h510v162zM1535 678q175 -130 175 -216q0 -60 -50 -60q-20 0 -34 16q-8 10 -20 64q-15 68 -97 174zM1364 636q160 -147 160 -230q0 -62 -53 -62q-37 0 -45 61q-13 104 -91 210zM1224 611
q83 -172 83 -241q0 -79 -58 -79q-46 0 -46 49q0 12 4 36q5 36 5 72q0 58 -22 151zM1049 603h40q-1 -174 -16 -241q-29 -128 -105 -128q-52 0 -52 46q0 26 48 73q49 49 66 119q13 51 19 131z" />
  </g>

</svg>
