<?xml version="1.0" standalone="no"?>
<!DOCTYPE svg PUBLIC "-//W3C//DTD SVG 1.1//EN" "http://www.w3.org/Graphics/SVG/1.1/DTD/svg11.dtd" >
<svg xmlns="http://www.w3.org/2000/svg" xmlns:xlink="http://www.w3.org/1999/xlink" version="1.1" viewBox="0 -120 1000 1000">
  <g transform="matrix(1 0 0 -1 0 880)">
   <path fill="currentColor"
d="M354 234l-241 -88l-8 -15q-6 -11 -12 -11t-16 15l-38 59l58 9v339l59 -9q21 -3 21 -11q0 -9 -11 -15l-14 -7v-287l45 7v466h-147l-9 27h291l-5 249l71 -8q22 -3 22 -16q0 -8 -18 -16l-18 -9l5 -200h57l34 45l62 -53v-19h-153q3 -167 21 -287q18 -126 43 -181l32 93l17 -3
l-8 -81q-2 -18 -2 -30q0 -34 33 -69q-17 -21 -41 -21q-58 0 -94 112q-21 66 -41 232h-95v-220l95 20zM254 481h9l31 45l53 -55q-8 108 -13 215h-80v-205zM84 839h130l33 43l56 -52l-1 -19h-208zM430 897q99 -48 99 -99q0 -12 -8 -19q-9 -7 -19 -7q-12 0 -19 7q-6 5 -24 46
q-13 29 -39 58zM555 315q16 -38 16 -93q0 -58 -32 -58q-24 0 -24 26q0 8 6 25q17 44 21 98zM558 346v555l61 -37h45q17 65 21 102l70 -21q21 -6 21 -14q0 -7 -16 -13l-19 -7l-39 -47h106l23 33l58 -38q20 -13 20 -20t-13 -13l-18 -7v-214l-60 -17v24h-199v-84h230l37 44
l67 -50v-21h-334v-88h233l23 33l61 -33q21 -11 21 -17q0 -9 -23 -17l-12 -5v-11q-3 -112 -4 -131q-5 -92 -45 -133q-41 -42 -90 -42q-8 0 -12 2q-5 4 -7 22q-1 12 -6 20q-6 8 -30 12l-52 10v21h145q23 17 34 68q5 41 9 173h-245v-27zM619 723v-83h199v83h-199zM619 836v-85
h199v85h-199zM617 337q11 -12 19 -28q28 -51 28 -87q0 -21 -13 -32q-10 -9 -23 -9q-19 0 -19 26l1 87q-4 30 -4 38zM689 348q23 -19 39 -43q29 -45 29 -80q0 -15 -10 -24q-6 -6 -17 -6q-15 0 -20 9q-5 11 -12 75q-3 22 -22 60zM749 370q29 -12 53 -35q36 -35 36 -63
q0 -13 -10 -23q-7 -6 -15 -6q-11 0 -20 10q-6 5 -14 37q-6 21 -38 69z" />
  </g>

</svg>
