<?xml version="1.0" standalone="no"?>
<!DOCTYPE svg PUBLIC "-//W3C//DTD SVG 1.1//EN" "http://www.w3.org/Graphics/SVG/1.1/DTD/svg11.dtd" >
<svg xmlns="http://www.w3.org/2000/svg" xmlns:xlink="http://www.w3.org/1999/xlink" version="1.1" viewBox="0 -410 2048 2048">
  <g transform="matrix(1 0 0 -1 0 1638)">
   <path fill="currentColor"
d="M404 1979q77 -49 128 -94q68 -58 68 -111q0 -41 -37 -67h219l81 81l113 -86q17 -13 17 -26q0 -26 -27 -26h-196l73 -34q61 -30 61 -52q0 -32 -65 -32h-27q-68 -190 -155 -332h149l80 81l114 -86q16 -13 16 -26q0 -24 -34 -24h-723q-62 0 -149 -11l-39 85q127 -19 188 -19
h96q-19 18 -24 44q-2 9 -11 76q-22 166 -103 313l20 14q-71 -2 -93 -6l-40 88q98 -22 201 -22h214q-17 11 -23 61q-7 56 -111 183zM395 1200h205q64 142 86 225q28 103 39 225h-466q182 -257 182 -368q0 -47 -46 -82zM192 1005l115 -79h444l68 76l84 -54q40 -26 40 -49
q0 -30 -80 -61v-488q9 -158 9 -163q2 -15 2 -22q0 -49 -64 -49q-43 0 -43 26v95h-470v-88q0 -31 -42 -31q-60 0 -60 50q0 20 4 99q4 62 4 144v454q0 48 -11 140zM297 292h470v270h-470v-270zM297 620h470v248h-470v-248zM1666 1725l61 72l72 -50q43 -29 43 -50
q0 -16 -65 -52v-418q0 -46 -67 -46q-27 0 -27 14v24h-516v-171h535l80 80l115 -85q16 -13 16 -26q0 -26 -27 -26h-719v-175h620l61 72l72 -50q42 -28 42 -49q0 -17 -65 -53q-10 -55 -27 -200q-34 -301 -148 -395q-67 -56 -173 -68q-1 67 -68 95q-84 36 -148 52l12 42
q56 -15 140 -39q82 -24 117 -24q100 0 146 201q27 117 51 360h-637q-27 -13 -47 -13q-44 0 -44 35v844q0 83 -15 167l117 -68h122q41 147 50 247l109 -26q69 -17 69 -42q0 -24 -45 -32l-42 -8q-45 -74 -91 -139h321zM1167 1277h516v173h-516v-173zM1683 1668h-516v-162h516
v162zM1523 676q176 -131 176 -215q0 -24 -15 -42q-16 -19 -39 -19q-34 0 -43 52q-7 41 -28 90q-11 25 -77 112zM1356 642q159 -146 159 -229q0 -64 -51 -64q-38 0 -45 61q-13 99 -90 210zM1222 624q83 -178 83 -246q0 -74 -61 -74q-43 0 -43 42q0 9 2 26q7 46 7 79
q0 65 -21 161zM1063 617h40q-2 -153 -18 -241q-23 -126 -105 -126q-51 0 -51 44q0 26 48 74q53 51 69 122q10 46 17 127z" />
  </g>

</svg>
