<?xml version="1.0" standalone="no"?>
<!DOCTYPE svg PUBLIC "-//W3C//DTD SVG 1.1//EN" "http://www.w3.org/Graphics/SVG/1.1/DTD/svg11.dtd" >
<svg xmlns="http://www.w3.org/2000/svg" xmlns:xlink="http://www.w3.org/1999/xlink" version="1.1" viewBox="0 -140 1000 1000">
  <g transform="matrix(1 0 0 -1 0 860)">
   <path fill="currentColor"
d="M895 565l45 -48v-13h-301v-83h219l24 21h13l57 -44v-14l-23 -28q-7 -121 -19.5 -177t-39 -84.5t-83.5 -41.5l-11 6l-10 25l-74 43l6 13l89 -13q41 0 53 30q26 66 26 214q0 19 -1 27h-226v-35l-8 -10l-44 -8l-10 5v516l57 -26h32l32 104l85 -32l-7 -14h-28l-53 -58h140
l25 24h15l54 -43v-14l-26 -20v-191l-7 -12l-46 -11l-10 4v37h-201v-87h209l34 38h13zM740 351l10 12q66 -43 84 -62.5t18 -47.5q0 -35 -21 -35q-2 0 -21 29.5t-41 63t-29 40.5zM485 817l52 -51v-15l-21 -17v-209l-5 -12l-46 -15l-12 4v52h-207v-50l-6 -11l-49 -5l-7 9v316
l66 -26h192l29 26zM663 331l11 10q6 -6 24 -19q91 -70 91 -115q0 -37 -19 -37q-16 0 -27 25q-27 65 -34 76t-46 60zM594 314l11 10q6 -8 22 -26q69 -80 69 -115q0 -22 -8 -39.5t-20 -17.5q-16 0 -24 38q-12 62 -19 83.5t-31 66.5zM511 931l53 -45v-17h-427v-749h286l36 44
h12l53 -52v-14h-382l-25 -29l-59 40l15 23v790l64 -30h325l34 39h15zM552 320l14 3q33 -99 33 -167q0 -32 -10.5 -56t-24.5 -24q-11 0 -20.5 16t-9.5 36q0 10 6 34q15 62 15 113q0 15 -3 45zM525 477l41 -44v-17h-93q-27 -75 -65 -129q87 -30 87 -72q0 -36 -17 -36
q-13 0 -36 21q-22 21 -73 50q-92 -67 -193 -88l-9 13q69 30 94 46t59 52q-36 16 -88 33q-22 4 -22 16q0 6 9 28l27 66h-100v22h109l40 100l85 -35l-6 -14l-30 -3l-28 -48h164l33 39h12zM639 738h201v80h-201v-80zM639 637h201v79h-201v-79zM246 680h207v84h-207v-84z
M246 577h207v80h-207v-80zM301 416l-43 -72q-3 -4 -3 -9q1 -10 28 -14q14 0 68 -17q38 53 54 112h-104z" />
  </g>

</svg>
