<?xml version="1.0" standalone="no"?>
<!DOCTYPE svg PUBLIC "-//W3C//DTD SVG 1.1//EN" "http://www.w3.org/Graphics/SVG/1.1/DTD/svg11.dtd" >
<svg xmlns="http://www.w3.org/2000/svg" xmlns:xlink="http://www.w3.org/1999/xlink" version="1.1" viewBox="0 -204 1024 1024">
  <g transform="matrix(1 0 0 -1 0 820)">
   <path fill="currentColor"
d="M94 924l63 -30h219l35 33q51 -36 51 -50q0 -10 -30 -25v-227q0 -23 1 -31q1 -7 1 -15q0 -21 -34 -28q-16 0 -16 11v28h-196q38 -17 63 -32q6 -4 6 -10q0 -8 -10 -11q-17 -6 -31 -7q-13 -23 -28 -44h233l35 33q30 -17 48 -34q9 -9 9 -14q0 -10 -35 -33q-6 -143 -16 -225
q-8 -82 -19 -115q-10 -29 -22 -40q-9 -11 -28 -19q-17 -9 -57 -15q-3 20 -8 29q-6 10 -19 15q-10 8 -49 17l4 23q55 -22 71 -22q15 0 27 4q12 5 22 17q12 14 22 37q7 26 16 107q12 104 12 207h-267q-12 -15 -25 -29q-18 -22 -46 -46q-25 -22 -54 -43l-14 14q34 34 57 64
t43 63q20 34 33 62q10 25 15 47h-32v-20q0 -10 -12 -16q-15 -6 -26 -6q-12 0 -12 14q0 4 1 14q1 23 1 42v238q0 49 -2 68zM144 618h240v248h-240v-116h106l37 38q31 -22 57 -44q6 -6 6 -8q0 -6 -4 -9q-3 -5 -8 -5h-194v-104zM243 432q87 -12 87 -26q0 -15 -44 -18
q-6 -20 -13 -35q20 -11 34 -22q21 -13 32 -23q12 -9 18 -16q4 -6 5 -12q4 -4 4 -10q-1 -30 -22 -30q-4 0 -8 3q-3 3 -17 24q-12 22 -27 39q-10 12 -27 26q-5 -10 -9 -17q-13 -25 -35 -54q-18 -28 -50 -53l-15 21q25 29 40 59q18 33 29 66q13 38 18 78zM692 952
q92 -20 92 -37q0 -14 -50 -18q-16 -29 -40 -55h154l35 33q51 -36 51 -50q0 -10 -30 -25v-155q0 -23 1 -30q1 -8 1 -16q0 -21 -34 -27q-16 0 -16 10v12h-256v-84h280l41 45q34 -25 64 -49q7 -4 7 -10q0 -14 -14 -14h-378v-76h294l37 33q35 -21 54 -39q8 -10 8 -14
q0 -12 -38 -27q-7 -95 -20 -160q-15 -68 -29 -99q-16 -29 -33 -42q-20 -16 -42 -26q-19 -8 -31 -8q0 17 -8 27q-9 13 -104 44l5 21q87 -25 116 -25q14 0 26 5q9 2 17 13q10 11 21 41q12 28 20 84q10 55 14 144h-319q-15 -6 -25 -6q-13 0 -13 14q0 4 1 14q1 23 1 42v362
q0 49 -2 68l63 -30h52q13 25 19 50q5 24 8 60zM600 622h256v80h-256v-80zM600 730h256v84h-256v-84zM538 295l14 -2q2 -23 2 -44q0 -32 -4 -61q-3 -28 -11 -47q-5 -15 -13 -27q-7 -11 -14 -14q-7 -4 -12 -4q-26 0 -26 18q0 8 9 20q22 30 32 51q10 20 16 46q5 24 7 64z
M625 292q11 -18 19 -40q9 -23 12 -43t3 -37q0 -15 -4 -27q-4 -10 -12 -14q-7 -3 -11 -3q-17 0 -17 18q0 6 2 18q4 17 1 43q0 31 -10 81zM697 304q17 -16 30 -32q14 -15 23 -29t13 -25q3 -10 3 -20q0 -19 -5 -29q-9 -13 -21 -13q-4 0 -7 4q-3 3 -6 19q-3 20 -10 39t-15 36
t-22 37zM765 328q39 -19 61 -39q20 -16 30 -31q7 -11 7 -22q0 -32 -23 -32q-6 0 -11 4q-4 2 -9 15q-13 31 -27 48q-15 20 -41 41zM87 360q45 -8 76 -19q7 -4 7 -11q0 -9 -10 -14t-26 -10v-66q0 -27 4 -40q3 -10 12 -15q5 -7 26 -8q22 -5 47 -5t48 3q18 3 32 10q11 6 18 6
q15 0 25 -7q9 -8 11 -23q0 -6 -3 -7q-2 -6 -9 -9q-15 -5 -36 -7q-39 -5 -75 -5q-45 0 -76 5q-21 1 -31 8q-13 5 -21 14q-9 11 -12 26q-4 15 -4 41v79q0 32 -3 54z" />
  </g>

</svg>
