<?xml version="1.0" standalone="no"?>
<!DOCTYPE svg PUBLIC "-//W3C//DTD SVG 1.1//EN" "http://www.w3.org/Graphics/SVG/1.1/DTD/svg11.dtd" >
<svg xmlns="http://www.w3.org/2000/svg" xmlns:xlink="http://www.w3.org/1999/xlink" version="1.1" viewBox="0 -140 1000 1000">
  <g transform="matrix(1 0 0 -1 0 860)">
   <path fill="currentColor"
d="M903 895l47 -46v-13h-136v-154h28l27 28h13l53 -42v-14l-21 -27v-375q0 -39 -10 -52.5t-48 -24.5l-9 7v21l-30 16l1 11q23 2 27.5 5t4.5 18v407h-36l-5 -601l-46 -12l-11 6v607h-41v-489l-5 -8l-48 -9l-8 5v561l61 -38h41v154h-127v22h239l28 37h11zM591 832h16l48 -42
v-14l-30 -20v-177q0 -20 19 -24v-18h-152v-100h54l32 28h13l46 -39v-13l-22 -18v-190q0 -19 4.5 -25.5t24.5 -5.5v-22h-152v-66l-6 -12l-44 -14l-10 4v779l46 -29h18l17 128l78 -32l-5 -15l-31 -6l-33 -75h48zM380 513l37 -44v-13h-254v-85h178l34 30h13l37 -45v-12l-16 -17
q1 -11 1 -39q0 -131 -26 -179.5t-106 -68.5l-9 6l-5 25l-86 39l3 12l97 -12q75 -9 75 168q0 30 -3 71h-246v517l56 -27h41l18 102l85 -43l-5 -13l-35 -11l-29 -35h73l22 25h10l53 -50v-12l-27 -18v-232l-7 -10l-42 -16l-9 6v35h-145v-89h175l31 35h11zM269 316l12 9
q69 -59 69 -95q0 -15 -8 -27t-17 -12q-14 0 -25 59q-6 34 -31 66zM202 295l9 10l15 -14q68 -63 68 -98q0 -16 -11 -28.5t-18 -12.5q-17 0 -27 60q-8 38 -36 83zM138 284l12 8q15 -24 24 -35q44 -62 44 -92q0 -13 -7 -23.5t-15 -10.5q-26 0 -33 60q-4 40 -25 93zM88 276h12
q19 -73 19 -110q0 -44 -14.5 -79t-33.5 -35q-7 0 -17.5 19t-10.5 34q0 6 5 16q29 53 34 72.5t6 82.5zM492 559h71v233h-71v-233zM163 715h144v103h-144v-103zM163 589h144v104h-144v-104zM492 174h60v241h-60v-241z" />
  </g>

</svg>
