<?xml version="1.0" standalone="no"?>
<!DOCTYPE svg PUBLIC "-//W3C//DTD SVG 1.1//EN" "http://www.w3.org/Graphics/SVG/1.1/DTD/svg11.dtd" >
<svg xmlns="http://www.w3.org/2000/svg" xmlns:xlink="http://www.w3.org/1999/xlink" version="1.1" viewBox="0 -204 1024 1024">
  <g transform="matrix(1 0 0 -1 0 820)">
   <path fill="currentColor"
d="M154 960q98 -20 98 -36q0 -15 -55 -18q-8 -15 -16 -28h269l32 33q33 -16 53 -36q8 -9 8 -17q0 -15 -40 -29q0 -74 -11 -159q-11 -84 -27 -113q-9 -18 -22 -26q-9 -7 -24 -12q-23 -7 -51 -7q-1 12 -5 19q-3 6 -11 11q-17 9 -60 22l6 24q80 -14 93 -14q12 0 20 4q8 5 13 13
q5 9 11 28q8 28 14 89q5 62 6 142h-294q-5 -7 -10 -12q-23 -29 -51 -50q-30 -24 -60 -40l-12 21q29 24 45 40t34 45q16 22 29 52q10 23 18 54zM107 782q42 -6 70 -19q10 -5 10 -12q0 -9 -9 -11q-11 -9 -26 -10v-14q0 -23 1 -30v-14h66q4 12 7 25q7 30 7 72t-8 55
q47 -3 73 -10q16 -3 14 -12q2 -9 -11 -14q-10 -6 -24 -12q0 -71 -7 -100q0 -2 -1 -4h72q1 17 1 31v6q0 48 -6 73q47 -7 77 -20q11 -6 11 -14q0 -10 -10 -13q-12 -10 -28 -11v-21q0 -25 1 -33v-31q0 -21 -27 -21q-22 0 -22 25v1h-79q-5 -12 -12 -21q-15 -24 -38 -42
q-24 -18 -60 -31q-37 -16 -85 -26l-12 21q50 14 78 30q28 14 47 33q18 15 29 36h-58q-7 -6 -20 -6q-20 0 -20 22q0 10 3 27q1 16 1 29q0 44 -5 66zM154 526q98 -20 98 -36q0 -15 -55 -18q-7 -13 -14 -22h267l32 33q33 -16 53 -36q8 -9 8 -17q0 -15 -40 -29q0 -85 -11 -181
q-12 -95 -28 -129q-9 -20 -23 -30q-9 -7 -25 -13q-23 -8 -52 -8q-1 14 -5 22q-3 7 -11 12q-17 11 -60 26l6 24q80 -22 93 -22q12 0 22 5q8 5 13 15q6 10 12 32q9 33 15 103q5 72 6 165h-293q-6 -7 -11 -12q-23 -26 -51 -46q-30 -21 -60 -36l-12 21q29 22 45 37t34 42
q16 20 29 48q10 21 18 50zM91 328q42 -6 70 -19q10 -5 10 -12q0 -9 -9 -11q-11 -9 -26 -10v-20q0 -23 1 -30v-12h77q2 8 3 15q6 36 6 87q0 50 -8 66q47 -3 73 -10q16 -3 14 -12q2 -9 -11 -14q-10 -6 -24 -12q0 -84 -5 -120h83q1 15 1 27v10q0 48 -6 73q47 -7 77 -20
q11 -6 11 -14q0 -10 -10 -13q-12 -10 -28 -11v-25q0 -25 1 -33v-31q0 -21 -27 -21q-22 0 -22 25v5h-86q-6 -23 -15 -41q-14 -29 -34 -51q-20 -21 -52 -39q-33 -19 -75 -31l-12 21q42 17 66 36q25 17 41 40q16 19 28 49q3 8 5 16h-75q-5 -8 -21 -8q-20 0 -20 22q0 10 3 27
q1 16 1 29v6q0 44 -5 66zM672 960q92 -20 92 -37q0 -14 -50 -18q-16 -28 -40 -55h174l35 33q51 -36 51 -50q0 -10 -30 -25v-183q0 -23 1 -30q1 -8 1 -16q0 -21 -34 -27q-16 0 -16 10v16h-240v-88h268l41 45q34 -25 64 -49q7 -4 7 -10q0 -14 -14 -14h-366v-80h282l37 33
q35 -21 54 -39q8 -10 8 -14q0 -12 -38 -27q-6 -89 -18 -150q-14 -64 -26 -94q-14 -27 -30 -39q-17 -15 -37 -25q-17 -7 -28 -7q0 16 -6 25q-8 13 -82 42l5 21q69 -21 92 -21q12 0 22 4q7 2 14 12q8 11 18 39q9 26 16 78q8 51 12 134h-301q-3 -3 -6 -4q-15 -6 -25 -6
q-13 0 -13 14q0 4 1 14q1 23 1 42v398q0 49 -2 68l63 -30h16q13 25 19 50q5 24 8 60zM616 606h240v96h-240v-96zM616 730h240v92h-240v-92zM567 272l13 -2q2 -24 2 -46q0 -32 -5 -62q-4 -29 -14 -48q-6 -17 -17 -28q-10 -11 -18 -14q-9 -4 -16 -4q-24 0 -24 17q0 8 12 21
q27 30 39 52q12 20 19 47q7 25 9 67zM654 280q9 -17 16 -39t9 -41q3 -20 3 -36q0 -17 -5 -29q-4 -11 -13 -16q-7 -3 -12 -3q-19 0 -19 20q0 6 4 17q4 17 4 43q0 31 -5 80zM725 296q14 -16 25 -32q11 -15 19 -29t10 -25q3 -10 3 -20q0 -19 -5 -30q-9 -12 -21 -12q-3 0 -6 4
q-2 3 -4 19q-3 20 -8 39q-6 19 -12 36q-7 17 -18 37zM808 312q16 -14 29 -28q14 -13 23 -26q10 -12 13 -22q3 -8 3 -17q0 -18 -5 -27q-8 -12 -19 -12q-4 0 -7 4q-3 3 -6 17q-3 17 -10 34t-15 32t-22 33z" />
  </g>

</svg>
