<?xml version="1.0" standalone="no"?>
<!DOCTYPE svg PUBLIC "-//W3C//DTD SVG 1.1//EN" "http://www.w3.org/Graphics/SVG/1.1/DTD/svg11.dtd" >
<svg xmlns="http://www.w3.org/2000/svg" xmlns:xlink="http://www.w3.org/1999/xlink" version="1.1" viewBox="0 -204 1024 1024">
  <g transform="matrix(1 0 0 -1 0 820)">
   <path fill="currentColor"
d="M40 916q43 -10 116 -10h246l44 48q34 -27 66 -49q6 -5 6 -13q0 -16 -10 -16h-154v-124h66l26 34q54 -33 54 -44t-30 -30v-216q0 -17 -32 -22q-14 0 -14 8v26h-308v-30q0 -9 -14 -16q-15 -6 -22 -6q-12 0 -12 14v316l60 -34h54v124h-26q-71 -1 -98 -4zM116 536h66v190h-66
v-190zM230 536h76v190h-76v-190zM354 536h70v190h-70v-190zM306 752v124h-76v-124h76zM36 404q43 -10 116 -10h100v36q0 48 -4 70q46 -8 77 -15q11 -4 11 -11q0 -5 -9 -10q-14 -8 -29 -12v-58h126l40 40q28 -23 52 -43q6 -4 6 -11q0 -16 -10 -16h-214v-19q34 -17 67 -35
q44 -29 65 -47q24 -23 32 -36q7 -17 13 -31q3 -9 3 -22q0 -18 -10 -18q-5 0 -13 9q-9 9 -20 25q-17 24 -35 41q-18 19 -48 43q-20 18 -54 44v-206q0 -21 2 -30q2 -18 2 -28q0 -34 -32 -34q-22 0 -22 16q0 15 2 34q2 23 2 38v203q-4 -7 -8 -12q-27 -37 -57 -67
q-25 -30 -60 -57q-35 -28 -85 -59l-10 18q45 31 76 61q30 30 56 65q22 27 41 59q12 25 20 45h-73q-71 -1 -98 -4zM672 958q92 -20 92 -38q0 -10 -52 -14q-17 -26 -37 -48h155l28 30q52 -30 52 -44q0 -10 -26 -26v-248q0 -20 -32 -26q-16 0 -16 10v20h-230v-82h274l40 40
q27 -20 53 -42q7 -3 7 -8q0 -18 -12 -18h-362v-84h290l36 32q33 -17 50 -36q8 -8 8 -12q0 -11 -40 -28q-6 -88 -18 -149q-14 -65 -29 -93q-13 -29 -32 -40q-18 -16 -37 -26q-20 -8 -30 -8q0 16 -6 26q-8 12 -78 40l4 18q66 -18 86 -18q14 0 26 4q9 2 16 13q8 9 18 37
q13 26 20 80q8 50 12 134h-298q-3 -4 -8 -7q-15 -5 -26 -5q-12 0 -12 12v534l62 -30h28q11 21 17 45q4 20 7 55zM606 602h230v100h-230v-100zM606 730h230v100h-230v-100zM558 276h12v-44q0 -33 -5 -61q-4 -28 -12 -49q-6 -16 -17 -26q-10 -11 -19 -16q-7 -4 -13 -4
q-22 0 -22 14q0 8 13 19q24 32 36 53q13 22 20 47q5 25 7 67zM640 270q11 -19 22 -39q10 -23 13 -41q5 -20 5 -38q0 -13 -4 -25q-4 -11 -11 -15t-11 -4q-14 0 -14 16q-1 8 0 20q2 16 -1 43q-2 31 -15 79zM716 284q13 -12 24 -27q14 -15 21 -27t10 -24q3 -9 3 -16
q0 -18 -5 -30q-6 -12 -17 -12q-4 0 -8 4q-3 3 -5 19q-3 19 -9 35q-5 19 -11 33q-7 17 -21 35zM782 306q33 -18 54 -34q17 -14 24 -29q6 -9 6 -17q0 -34 -22 -34q-5 0 -9 3q-5 3 -9 15q-11 26 -21 42q-12 19 -35 36z" />
  </g>

</svg>
