<?xml version="1.0" standalone="no"?>
<!DOCTYPE svg PUBLIC "-//W3C//DTD SVG 1.1//EN" "http://www.w3.org/Graphics/SVG/1.1/DTD/svg11.dtd" >
<svg xmlns="http://www.w3.org/2000/svg" xmlns:xlink="http://www.w3.org/1999/xlink" version="1.1" viewBox="0 -204 1024 1024">
  <g transform="matrix(1 0 0 -1 0 820)">
   <path fill="currentColor"
d="M44 870q40 -11 102 -12l-10 106q45 -6 80 -12q11 -3 11 -9q0 -5 -12 -12q-14 -8 -26 -11l6 -62h13l32 32q27 -20 50 -38q6 -4 6 -8q0 -14 -11 -14h-88l5 -53q0 -10 -10 -14q-12 -7 -24 -7q-11 0 -13 10l-6 64q-61 -2 -85 -7zM409 964q46 -5 84 -21q6 -3 6 -9
q0 -8 -16 -13l-31 -6q-3 -30 -8 -57h16l35 36q29 -21 55 -41q6 -4 6 -9q0 -14 -12 -14h-104q-5 -26 -12 -55q-3 -19 -28 -19q-22 0 -22 12l2 11q3 9 6 27q2 12 4 22q-40 -2 -58 -5l-20 47q34 -9 83 -11q11 63 14 105zM82 760l14 -3q2 -21 2 -39h355l30 31q35 -25 63 -54
q3 -3 3 -6q0 -7 -19 -11q-16 -4 -31 -7q-11 -15 -26 -31q-16 -18 -32 -32l-17 13q12 19 19 36q8 17 12 33h-358l-2 -25q-3 -25 -9 -42q-5 -14 -12 -23q-6 -10 -12 -13q-5 -3 -10 -3q-26 0 -26 18q0 7 8 17q20 26 28 45q9 17 14 39q5 21 6 57zM132 634q44 -12 117 -12h55
l37 38q30 -22 56 -43q7 -4 7 -9q0 -14 -12 -14h-143q-71 -2 -97 -7zM56 546q44 -12 117 -12h231l41 45q34 -25 64 -49q7 -4 7 -10q0 -14 -14 -14h-189q-24 -26 -50 -45q-10 -8 -19 -14q27 -41 42 -78q16 11 27 20q19 14 34 31q15 16 27 32t19 32q75 -45 75 -57
q0 -10 -18 -10q-11 0 -30 4q-21 -17 -46 -32q-23 -14 -47 -24q-17 -9 -33 -15q6 -15 11 -29q42 -23 73 -46q38 -25 59 -43q22 -17 32 -29q8 -11 12 -22q5 -9 5 -19q-1 -30 -22 -30q-8 0 -15 4q-6 6 -31 43t-54 66q-20 20 -50 43q3 -11 5 -22q9 -48 9 -98q0 -41 -11 -71
q-8 -27 -23 -44q-13 -16 -39 -24q-21 -9 -43 -9q0 26 -5 32q-3 8 -12 13q-17 14 -51 23l5 20q72 -22 93 -22q8 0 15 5q6 3 11 12q6 8 9 27t3 38q0 45 -5 83q-26 -26 -53 -47q-33 -26 -77 -45q-47 -22 -94 -35l-11 20q59 22 96 45q36 23 66 51q26 23 62 70q-4 20 -10 38
q-26 -22 -51 -38q-30 -19 -69 -32q-41 -17 -83 -26l-11 20q52 17 84 35t58 39q23 18 53 53q-6 17 -14 33q-14 -8 -27 -15q-35 -18 -65 -28q-37 -15 -80 -25l-9 18q43 14 70 28q28 13 52 30q31 18 50 38q15 13 26 28h-65q-71 -2 -97 -7zM720 960q92 -20 92 -37q0 -14 -50 -18
q-16 -33 -38 -63h128l35 33q51 -36 51 -50q0 -10 -30 -25v-183q0 -23 1 -30q1 -8 1 -16q0 -21 -34 -27q-16 0 -16 10v16h-228v-96h240l41 45q34 -25 64 -49q7 -4 7 -10q0 -14 -14 -14h-338v-96h266l37 33q35 -21 54 -39q8 -10 8 -14q0 -12 -38 -27q-6 -81 -18 -137
q-13 -58 -25 -85q-14 -25 -29 -36q-17 -13 -36 -22q-17 -7 -27 -7q0 14 -5 22q-6 11 -67 37l5 21q57 -13 76 -13q11 0 21 4q7 2 13 11q8 9 17 34q9 24 16 70q7 45 11 120h-291q-15 -6 -25 -6q-13 0 -13 14q0 4 1 14q1 23 1 42v418q0 49 -2 68l63 -30h52q11 27 16 54
q4 25 7 64zM632 598h228v96h-228v-96zM632 722h228v92h-228v-92zM557 260l15 -3q2 -23 2 -43q0 -30 -4 -58q-3 -27 -11 -45q-5 -16 -13 -26q-7 -10 -14 -14q-7 -3 -12 -3q-28 0 -28 20q0 7 10 19q22 28 32 48q10 19 16 43q5 23 7 62zM642 256q10 -16 18 -36q8 -21 11 -38
q3 -19 3 -34q0 -17 -5 -29q-4 -11 -13 -16q-7 -3 -12 -3q-19 0 -19 20q0 6 3 16q3 16 3 41q0 29 -7 75zM721 264q13 -14 23 -29q11 -13 18 -25q7 -13 10 -22q2 -9 2 -18q0 -19 -5 -30q-9 -12 -21 -12q-3 0 -5 4q-2 3 -4 17q-3 18 -8 36q-5 17 -11 32q-6 16 -16 34zM796 284
q15 -11 28 -22q13 -10 21 -20q9 -10 12 -17t3 -14q0 -18 -5 -27q-8 -12 -19 -12q-4 0 -6 3q-4 3 -6 14q-3 15 -10 29q-6 14 -14 27q-7 12 -20 27z" />
  </g>

</svg>
