<?xml version="1.0" standalone="no"?>
<!DOCTYPE svg PUBLIC "-//W3C//DTD SVG 1.1//EN" "http://www.w3.org/Graphics/SVG/1.1/DTD/svg11.dtd" >
<svg xmlns="http://www.w3.org/2000/svg" xmlns:xlink="http://www.w3.org/1999/xlink" version="1.1" viewBox="0 -120 1000 1000">
  <g transform="matrix(1 0 0 -1 0 880)">
   <path fill="currentColor"
d="M155 476q57 -39 57 -76q0 -13 -9 -21q-8 -7 -17 -7t-13 7q-2 3 -7 40q-3 17 -23 48zM189 640q69 -41 69 -80q0 -23 -23 -23q-6 0 -10 3q-3 2 -20 53q-7 18 -26 38zM76 57v667l63 -37h86v275l71 -13q27 -4 27 -13t-21 -18l-19 -8v-68h113l33 53l69 -61v-20h-215v-127h109
l20 41l54 -45q13 -10 13 -17q0 -8 -11 -11l-14 -5v-517l-56 -9v23h-268v-81zM323 501q56 -31 56 -68q0 -16 -10 -27q-5 -6 -13 -6q-10 0 -16 8q-3 5 -9 42q-2 12 -15 39q-12 -27 -26 -54q77 -105 77 -137q0 -16 -10 -25q-7 -6 -15 -6q-14 0 -25 30q-33 66 -49 94
q-7 -11 -19 -30q-8 -12 -17 -24q59 -61 59 -92q0 -14 -9 -23q-6 -5 -13 -5q-13 0 -17 19q-9 43 -17 59q-5 11 -15 26q-37 -51 -90 -97v-49h268v484h-268v-403q52 48 115 172q-52 72 -97 111l10 16q22 -15 55 -42q31 -26 49 -45q29 70 47 156l52 -20q17 -6 17 -12
q0 -7 -11 -11l-17 -6zM955 91q-9 1 -14 1q-25 0 -57 -30q-12 13 -56 58q-27 25 -66 96q-23 41 -53 129q-21 -76 -43 -111q-44 -72 -130 -122q-70 -40 -118 -56l-10 18q104 49 175 122q34 34 60 103q9 24 14 50h-101v-34l-55 -7v262l55 -31h108v94h-79l-14 28h127l38 43
l67 -52v-19h-84v-94h119l20 34l60 -34q17 -9 17 -16q0 -9 -13 -14l-17 -7v-178l-54 -5v30h-123q74 -168 230 -241zM556 377h102q6 66 6 134h-108v-134zM719 511q0 -82 -6 -134h138v134h-132zM470 591q5 7 48 67q20 24 60 116q44 101 61 189l74 -20q23 -7 23 -16
q0 -12 -17 -12h-14q19 -52 71 -121q42 -55 96 -94q50 -36 92 -52l-2 -16q-29 -4 -41 -14q-11 -10 -24 -33q-143 107 -205 304q-58 -122 -109 -192q-48 -67 -99 -118z" />
  </g>

</svg>
