<?xml version="1.0" standalone="no"?>
<!DOCTYPE svg PUBLIC "-//W3C//DTD SVG 1.1//EN" "http://www.w3.org/Graphics/SVG/1.1/DTD/svg11.dtd" >
<svg xmlns="http://www.w3.org/2000/svg" xmlns:xlink="http://www.w3.org/1999/xlink" version="1.1" viewBox="0 -140 1000 1000">
  <g transform="matrix(1 0 0 -1 0 860)">
   <path fill="currentColor"
d="M775 491h-591q-8 -111 -17.5 -182t-26.5 -118t-31 -70t-44 -61l-8 5q45 97 56.5 189t11.5 263q0 133 -5 346l64 -29h282v97l95 -18v-13l-30 -19v-47h262l41 47h13l57 -56l1 -13h-721v-133h160v115l98 -20v-14l-34 -16v-65h153v115l102 -20l-1 -12l-36 -18v-65h138l29 21
h13l62 -40v-9l-29 -13v-168l-5 -10l-49 -17l-10 5v43zM184 658v-145h160v145h-160zM408 513h153v145h-153v-145zM626 513h149v145h-149v-145zM329 412v-94h107l36 39h12l51 -48v-13h-206v-135q100 19 208 45l5 -15l-317 -120l-8 -23l-10 -2l-37 85l95 18v321l95 -28v-15z
M629 418v-146q108 62 174 112l40 34l62 -72l-10 -9l-33 6q-130 -58 -233 -93v-76q0 -48 47 -48h121q45 0 61 11t31 55l24 72l13 -3l-8 -131l26 -16v-12q-28 -20 -53 -26t-73 -6h-158q-95 0 -95 63v338l99 -26v-14z" />
  </g>

</svg>
