<?xml version="1.0" standalone="no"?>
<!DOCTYPE svg PUBLIC "-//W3C//DTD SVG 1.1//EN" "http://www.w3.org/Graphics/SVG/1.1/DTD/svg11.dtd" >
<svg xmlns="http://www.w3.org/2000/svg" xmlns:xlink="http://www.w3.org/1999/xlink" version="1.1" viewBox="0 -140 1000 1000">
  <g transform="matrix(1 0 0 -1 0 860)">
   <path fill="currentColor"
d="M110 896l76 -32h279v70l94 -17v-14l-30 -11v-28h294l40 47h12l59 -56v-13h-756v-85h159v75l89 -15v-13l-25 -8v-39h150v75l91 -15v-13l-27 -12v-35h141l31 33h12l54 -37v-14l-26 -15l-1 -100l-10 -14l-41 -10l-11 3v31h-586v-86q0 -200 -46 -350q-19 -64 -64 -137l-8 5
q24 61 31.5 98.5t14.5 121.5q10 138 10 292q0 76 -4 231zM178 735v-79h159v79h-159zM401 735v-79h150v79h-150zM615 735v-79h149v79h-149zM184 326h312v71l90 -14v-15l-26 -11v-31h237l41 42h13l52 -50v-14h-343v-90h187l37 43h13l51 -52v-13h-288v-106h267l44 48h13l59 -56
v-14h-814v22h367v106h-271v22h271v90h-312v22zM216 417l65 7v189l89 -16v-13l-25 -11v-52h102l31 34h12l42 -44v-12h-187v-68l198 21l1 -11l-278 -74l-5 -25l-11 -1zM581 617l90 -14v-12l-26 -16v-73q134 53 185 89l51 -55l-8 -9l-26 8l-44 -12l-158 -41q0 -21 1.5 -29
t10 -14t27.5 -6l131 1q54 0 69 49l18 60l14 -4l-9 -97l27 -17l-1 -14q-37 -28 -117 -28h-141q-55 0 -74.5 11t-19.5 42v181z" />
  </g>

</svg>
