<?xml version="1.0" standalone="no"?>
<!DOCTYPE svg PUBLIC "-//W3C//DTD SVG 1.1//EN" "http://www.w3.org/Graphics/SVG/1.1/DTD/svg11.dtd" >
<svg xmlns="http://www.w3.org/2000/svg" xmlns:xlink="http://www.w3.org/1999/xlink" version="1.1" viewBox="0 -140 1000 1000">
  <g transform="matrix(1 0 0 -1 0 860)">
   <path fill="currentColor"
d="M58 829h418v103l94 -18v-11l-30 -16v-58h281l43 49h11l62 -56v-15h-397v-184q169 -163 407 -196v-15q-26 -5 -37 -14.5t-22 -34.5q-114 35 -185 81.5t-163 146.5v-62l-6 -9l-47 -14l-11 4v52q-91 -93 -181.5 -150t-224.5 -105l-5 12q140 58 230.5 135.5t180.5 217.5v135
h-418v22zM73 467l-8 8q83 77 123.5 141.5t74.5 173.5l87 -37l-4 -13l-30 -4l-42 -73q76 -12 100.5 -31t24.5 -48q0 -9 -6 -17t-13 -8q-18 0 -47 35q-28 34 -70 51q-45 -57 -82 -92t-108 -86zM487 419h160l27 25h11l58 -59l-7 -12l-32 -4q-67 -87 -101 -117l44 -21
q102 -48 128 -74q19 -19 19 -47q0 -35 -22 -35q-14 0 -33 18q-79 73 -175 123q-92 -68 -187.5 -105.5t-243.5 -64.5l-3 12q132 33 217 75t166 113q-92 41 -157 62q-104 -59 -229 -99l-2 11q122 54 195 113t148 161l79 -37l-7 -11l-28 -2q-7 -6 -25 -25zM465 397l-30 -28
q-16 -14 -58 -45q4 -1 8 -2.5t9.5 -3t9.5 -2.5l40 -11q91 -24 101 -27q51 51 94 119h-174zM734 789l80 -38l-5 -12l-30 -3q-17 -22 -43 -51l58 -21q105 -34 105 -82q0 -33 -19 -33q-16 0 -48 38q-37 45 -111 83q-83 -66 -126 -87l-7 9q49 42 78 81t68 116z" />
  </g>

</svg>
