<?xml version="1.0" standalone="no"?>
<!DOCTYPE svg PUBLIC "-//W3C//DTD SVG 1.1//EN" "http://www.w3.org/Graphics/SVG/1.1/DTD/svg11.dtd" >
<svg xmlns="http://www.w3.org/2000/svg" xmlns:xlink="http://www.w3.org/1999/xlink" version="1.1" viewBox="0 -140 1000 1000">
  <g transform="matrix(1 0 0 -1 0 860)">
   <path fill="currentColor"
d="M157 798l8 7q83 -63 83 -112q0 -20 -7 -31.5t-18 -11.5q-12 0 -22 16.5t-14 49.5q-5 33 -30 82zM85 914l64 -24h271l30 32h15l43 -41v-13l-19 -14v-282l-6 -10l-49 -13l-9 7v25h-110v-106h98l33 36h19l40 -43v-15h-190v-93l182 24l3 -16l-384 -88l-9 -29h-14l-26 81
l188 23v98h-170v22h170v106h-106v-29l-5 -10l-51 -14l-8 7v379zM149 868v-265h106v265h-106zM315 868v-188l51 135l59 -31v84h-110zM315 603h110v159h-12l-98 -118v-41zM125 246h15q11 -58 11 -90q0 -34 -12 -59.5t-28 -25.5q-10 0 -20 13.5t-10 27.5t4 18q30 51 34.5 65
t5.5 51zM198 249l9 5q78 -70 78 -119q0 -17 -8 -30.5t-19 -13.5q-26 0 -32 69q-5 41 -28 89zM287 255l9 8q64 -41 82.5 -60.5t18.5 -44.5q0 -46 -29 -46q-18 0 -31 48q-13 50 -50 95zM369 284l6 10q64 -15 88 -29.5t24 -41.5q0 -36 -22 -36q-9 0 -26 23q-37 51 -70 74z
M464 116l-8 7q46 62 68 110t49 152l84 -39l-3 -14h-27q-45 -86 -75.5 -126.5t-87.5 -89.5zM509 788h168v128l94 -14v-15l-30 -11v-88l94 1l38 40h18l49 -49v-14h-431v22zM537 683l67 -29l205 1l30 28h17l51 -38v-15l-25 -17v-174l-7 -12l-46 -10l-11 6v37h-77v-323
q0 -34 -14 -46.5t-81 -34.5l-12 6v28l-77 32l3 10l84 -5q33 0 33 33v300h-76v-30l-10 -11l-45 -9l-9 6v267zM601 632v-149h217v149h-217zM782 355l8 10q60 -42 108.5 -93.5t48.5 -91.5q0 -47 -21 -47q-22 0 -42 59q-21 59 -102 163z" />
  </g>

</svg>
