<?xml version="1.0" standalone="no"?>
<!DOCTYPE svg PUBLIC "-//W3C//DTD SVG 1.1//EN" "http://www.w3.org/Graphics/SVG/1.1/DTD/svg11.dtd" >
<svg xmlns="http://www.w3.org/2000/svg" xmlns:xlink="http://www.w3.org/1999/xlink" version="1.1" viewBox="0 -140 1000 1000">
  <g transform="matrix(1 0 0 -1 0 860)">
   <path fill="currentColor"
d="M757 544l27 32l12 -1l50 -35v-12l-19 -18v-112l-10 -13l-46 -12l-8 6v17h-238v-66h203l29 34h14l49 -42v-15h-295v-65h295l34 40h11l54 -48v-14h-842v22h384v65h-286v23h286v66h-222v-12l-9 -11l-45 -9l-10 9v195l55 -24h527zM763 522h-238v-104l67 1l47 98l58 -29
l-4 -14l-23 -2l-52 -53l145 -1v104zM461 522h-222v-104h222v104zM309 510l7 8q42 -20 61 -35.5t19 -39.5q0 -21 -18 -21q-15 0 -27 25q-19 39 -42 63zM199 213l10 -6q-25 -67 -56 -111t-56 -44q-23 0 -23 27t58 67q39 28 67 67zM568 189l9 11q99 -57 99 -102q0 -12 -7 -22.5
t-15 -10.5q-15 0 -46 67q-15 35 -40 57zM689 906l-2 -12l-29 -6q-14 -31 -31 -55h200l30 32h13l54 -38l-3 -13l-29 -21q-5 -114 -33.5 -158t-106.5 -57l-12 7l-7 30l-69 24l5 16l76 -13q4 -1 19 -1q40 0 55 26.5t15 93.5v50h-95q-28 -82 -66 -125t-124 -90l-5 10
q64 55 91 95t47 110h-69q-42 -51 -116 -110l-8 9q47 55 71.5 99t52.5 124zM251 783v71q-77 -4 -110 -4q-36 0 -51 1l-2 13q174 16 326 69l62 -54l-9 -10l-39 9q-38 -9 -112 -17v-78h93l28 31h12l45 -40v-13h-178v-30q134 -25 134 -83q0 -11 -6 -20t-14 -9q-9 0 -23 15
q-44 49 -91 81v-129l-12 -13l-43 -8l-9 6v131q-82 -84 -193 -134l-5 12q55 39 89.5 76t78.5 105h-145v22h174zM781 189l6 9q126 -46 126 -97q0 -36 -21 -36q-15 0 -33 35q-20 40 -78 89zM323 189l8 9q99 -50 99 -102q0 -30 -21 -30q-13 0 -23 22q-24 54 -31 65t-32 36z" />
  </g>

</svg>
