<?xml version="1.0" standalone="no"?>
<!DOCTYPE svg PUBLIC "-//W3C//DTD SVG 1.1//EN" "http://www.w3.org/Graphics/SVG/1.1/DTD/svg11.dtd" >
<svg xmlns="http://www.w3.org/2000/svg" xmlns:xlink="http://www.w3.org/1999/xlink" version="1.1" viewBox="0 -204 1024 1024">
  <g transform="matrix(1 0 0 -1 0 820)">
   <path fill="currentColor"
d="M262 960q45 -6 75 -15q9 -4 9 -13q0 -5 -6 -8q-11 -7 -26 -10v-48h80l36 36q30 -22 54 -40q8 -3 8 -8q0 -18 -14 -18h-164v-84h98l40 40q29 -20 57 -42q5 -4 5 -8q0 -16 -10 -16h-362q-69 -1 -96 -6l-18 44q39 -11 100 -12v84q0 54 -4 80q44 -6 73 -15q11 -4 11 -13
q0 -5 -8 -8q-12 -7 -26 -10v-118h92v128q0 54 -4 80zM186 712q43 -7 66 -16q10 -3 10 -10t-13 -12q-18 -4 -31 -6q-5 -35 -9 -55q15 -11 27 -23q13 -12 19 -23q3 -9 3 -19q0 -30 -18 -30q-4 0 -9 3q-2 2 -6 11q-8 26 -15 41q-4 6 -9 11q-5 -14 -12 -27q-10 -26 -19 -42
q-10 -18 -28 -37l-12 14q11 23 17 39q9 15 15 37q6 17 10 45q5 22 9 51q4 28 5 48zM314 712q43 -7 66 -16q10 -3 10 -10t-13 -12q-18 -4 -31 -6q-5 -35 -10 -56q23 -19 40 -35q16 -17 24 -36q8 -11 8 -23q0 -32 -22 -32q-3 0 -7 2q-4 4 -9 18q-12 33 -24 55q-7 13 -17 24
q-5 -16 -14 -34q-10 -25 -19 -43q-12 -18 -30 -38l-10 16q10 20 17 39q9 15 15 38q6 18 11 46q6 23 10 54q4 28 5 49zM120 456q43 -10 116 -10h78l32 32q28 -20 50 -36q6 -4 6 -8q0 -18 -8 -18h-158q-71 -1 -98 -4zM186 394q43 -7 66 -19q10 -4 10 -11q0 -4 -13 -8
q-18 -5 -31 -6q-4 -29 -8 -46q15 -13 27 -23q12 -9 18 -20q3 -9 3 -17q0 -30 -18 -30q-4 0 -8 2q-3 3 -6 12q-7 21 -14 36q-4 6 -9 11q-6 -19 -16 -39q-10 -26 -19 -42q-12 -15 -30 -38l-10 18q10 19 17 36q9 17 15 36q6 21 11 45q6 26 10 55q4 24 5 48zM306 390
q43 -7 66 -19q12 -4 12 -11q0 -4 -15 -8q-18 -5 -29 -6q-5 -28 -9 -46q24 -21 42 -39q18 -21 27 -40q8 -15 8 -29q0 -28 -22 -28q-3 0 -8 6q-4 4 -9 20q-13 36 -25 56q-8 17 -19 30q-9 -26 -18 -45q-9 -27 -19 -43q-13 -17 -30 -40l-10 16q10 23 17 39q7 17 15 37
q6 20 13 45q5 26 8 56q4 25 5 49zM58 686q47 -8 77 -21q11 -5 11 -11q0 -9 -9 -13q-12 -11 -29 -13v-516h312v502q0 47 -4 72q46 -8 77 -21q11 -5 11 -11q0 -9 -10 -13q-15 -11 -30 -13v-566q0 -20 -26 -20q-18 0 -18 22v22h-318q-7 -10 -18 -10q-22 0 -22 26v512
q0 47 -4 72zM522 946l62 -44h300l30 44q36 -24 54 -43q8 -7 8 -15q0 -9 -38 -30v-654q0 -73 3 -97q1 -29 1 -45q0 -14 -9 -24q-13 -6 -23 -6q-18 0 -18 14v52h-318v-52q0 -14 -20 -14q-7 0 -20 6q-12 10 -12 24q0 16 3 45q5 24 5 97v672q0 39 -8 70zM574 124h318v748h-318
v-748zM588 668q43 -10 114 -10h10v112q0 53 -4 78q48 -7 79 -20q13 -5 13 -14q0 -11 -10 -14q-15 -10 -30 -12v-130h18l36 36q30 -22 54 -40q8 -3 8 -8q0 -18 -14 -18h-102v-82q21 -30 41 -63q22 -39 37 -69q13 -25 18 -45q4 -16 7 -34q3 -14 3 -29q-1 -30 -18 -30
q-5 0 -9 7q-5 9 -21 66q-13 55 -33 99q-11 29 -25 58v-324q0 -22 -30 -22q-22 0 -22 26q0 11 2 32q2 19 2 34v249q-2 -6 -3 -11q-23 -71 -45 -130q-24 -54 -62 -112l-6 14q28 64 44 118q14 50 29 111q13 58 23 137q-61 -1 -86 -4z" />
  </g>

</svg>
