<?xml version="1.0" standalone="no"?>
<!DOCTYPE svg PUBLIC "-//W3C//DTD SVG 1.1//EN" "http://www.w3.org/Graphics/SVG/1.1/DTD/svg11.dtd" >
<svg xmlns="http://www.w3.org/2000/svg" xmlns:xlink="http://www.w3.org/1999/xlink" version="1.1" viewBox="0 -120 1000 1000">
  <g transform="matrix(1 0 0 -1 0 880)">
   <path fill="currentColor"
d="M53 686l-11 27h80v165l65 -8q20 -2 20 -13q0 -10 -14 -15l-13 -4v-125h63l-2 237l64 -5q22 -1 22 -12q0 -10 -15 -16l-15 -6v-87l53 1l36 46l61 -50v-22h-150v-86h76l40 47l64 -53v-18zM145 159q29 113 41 217l58 -15q12 -3 12 -9t-10 -11l-15 -10l-10 -29q28 -21 43 -39
q14 39 27 108l54 -19q13 -4 13 -10q0 -7 -9 -10l-14 -4l-19 -44q48 -40 48 -82q0 -34 -26 -34q-8 0 -13 7q-5 8 -11 56q-1 16 -7 36q-6 -11 -31 -58q-15 -28 -34 -60l-14 6l17 50q-11 7 -14 22q-8 36 -18 56q-10 -24 -29 -69q-21 -48 -26 -61zM75 53v599l61 -5q18 -1 18 -11
q0 -8 -10 -14l-14 -8v-190l246 1v228l62 -5q20 -1 20 -11q0 -7 -12 -14l-17 -9v-533l-53 -10v31h-246v-40zM130 128h246v270h-246v-270zM144 450q41 131 49 202l56 -16q8 -2 8 -9q0 -6 -8 -11l-11 -6l-11 -27q20 -16 34 -35q18 45 31 104l54 -18q11 -3 11 -12q0 -8 -9 -11
l-15 -5l-21 -37l9 -9q24 -23 31 -34q10 -20 10 -36q0 -17 -11 -27q-8 -7 -16 -7q-9 0 -13 7q-3 5 -10 58q-2 19 -7 35q-39 -81 -69 -117l-13 8l16 40q-9 6 -10 12q0 2 -2 38q-1 11 -10 24q-16 -35 -43 -86q-13 -24 -18 -31zM434 61q3 10 24 67q25 70 37 227q6 79 6 166v350
l52 -24q16 12 46 41q29 27 42 42l56 -47q9 -7 9 -13q0 -12 -17 -10l-22 3q-53 -20 -112 -38l-1 -140h65l19 32l51 -36q15 -10 15 -18q0 -6 -9 -9l-16 -6v-281l-54 -9v41h-75q-6 -118 -31 -197q-26 -85 -71 -147zM554 659l-1 -131q0 -26 -2 -103h74v234h-71zM626 62
q56 100 78 202q25 110 26 267l3 328l55 -20q36 31 92 90l55 -49q10 -8 10 -14q0 -10 -15 -8l-19 2l-119 -44l-3 -206h74l39 47l60 -52v-21h-61v-522l-58 -11v532l-56 1q-3 -173 -17 -252q-28 -155 -130 -279z" />
  </g>

</svg>
