<?xml version="1.0" standalone="no"?>
<!DOCTYPE svg PUBLIC "-//W3C//DTD SVG 1.1//EN" "http://www.w3.org/Graphics/SVG/1.1/DTD/svg11.dtd" >
<svg xmlns="http://www.w3.org/2000/svg" xmlns:xlink="http://www.w3.org/1999/xlink" version="1.1" viewBox="0 -120 1000 1000">
  <g transform="matrix(1 0 0 -1 0 880)">
   <path fill="currentColor"
d="M41 714h86v161l69 -6q16 -1 16 -10t-15 -14l-12 -4v-127l65 1v236l68 -8q22 -3 22 -13q0 -9 -12 -13l-18 -7v-86l59 1l38 47l65 -57l1 -19h-163v-82h92l40 49l66 -56l1 -20h-459zM140 156q13 40 24 92q7 31 11 49q11 47 15 80l63 -16q18 -4 18 -13q0 -8 -15 -11l-17 -4
l-14 -37q14 -10 45 -42q18 44 35 120l58 -17q13 -4 13 -12q0 -6 -10 -9l-13 -5l-26 -51q57 -43 57 -82q0 -18 -12 -31q-8 -9 -17 -9q-17 0 -21 32q-5 47 -15 72q-54 -95 -75 -122l-14 5l17 41q-9 11 -9 14l-6 32q-4 20 -15 47q-45 -97 -63 -128zM74 51v599l67 -6
q15 -1 15 -12q0 -8 -10 -13l-15 -7l-2 -188l269 1v228l62 -5q18 -1 18 -12q0 -7 -11 -12l-15 -7v-552l-54 -9v43h-269l-1 -38zM129 398v-273h269v273h-269zM147 450q34 105 51 205l66 -17q10 -3 10 -11q0 -7 -10 -10l-18 -6l-19 -38q29 -14 50 -39q14 33 26 77q7 28 12 43
l61 -21q10 -3 10 -11q0 -7 -12 -9l-14 -3l-28 -53q52 -38 52 -80q0 -12 -8 -22q-9 -13 -22 -13q-6 0 -10 4q-5 6 -12 66q-2 12 -8 32q-32 -51 -35 -57q-22 -36 -33 -52l-14 7l15 36q-8 10 -18 41q-4 11 -19 37l-27 -51q-22 -42 -32 -59zM508 52l-1 429l66 -33h113v97h-90
l-1 -35l-57 -8v420l79 -36h214l23 35l66 -44q12 -8 12 -16q0 -9 -10 -12l-18 -6v-324l-63 -9l1 36l-99 -1v-97h121l22 34l61 -40q17 -11 17 -17q0 -8 -12 -11l-18 -4l-1 -300q0 -26 -27 -41q-31 -16 -53 -16q-5 0 -7 4q-1 3 -4 24q-1 15 -17 18l-44 12v16l92 1l-1 295h-129
v-129l47 7q-4 25 -10 40q-13 34 -18 46l11 7q26 -24 44 -50q38 -58 38 -106q0 -23 -13 -35q-9 -8 -19 -8q-13 0 -19 14q-2 4 -7 46q-1 15 -2 22l-160 -52l-7 -15q-6 -12 -11 -12q-8 0 -14 15l-25 66l108 9v135h-121v-363zM596 702v-130h90v130h-90zM596 727h90l1 131h-91
v-131zM743 572h99v128l-99 1v-129zM743 858v-131l99 -1v132h-99z" />
  </g>

</svg>
