<?xml version="1.0" standalone="no"?>
<!DOCTYPE svg PUBLIC "-//W3C//DTD SVG 1.1//EN" "http://www.w3.org/Graphics/SVG/1.1/DTD/svg11.dtd" >
<svg xmlns="http://www.w3.org/2000/svg" xmlns:xlink="http://www.w3.org/1999/xlink" version="1.1" viewBox="0 -410 2048 2048">
  <g transform="matrix(1 0 0 -1 0 1638)">
   <path fill="currentColor"
d="M1605 799q36 82 46 137l81 -38q58 -27 58 -49q0 -26 -48 -26h-34q-21 -39 -40 -72q105 -88 105 -149q0 -59 -46 -59q-24 0 -52 59q-13 29 -52 80q-50 -69 -138 -147l-27 20q70 84 118 183q-39 41 -111 103l20 31q19 -11 77 -45q20 -12 43 -28zM1319 1581h383l61 72
l72 -50q43 -28 43 -50q0 -16 -65 -52v-142l30 -27q16 -14 16 -27q0 -14 -24 -14h-395v-263h331l61 72l72 -50q42 -29 42 -49q0 -16 -63 -52v-509q0 -22 -31 -43q-11 -8 -19 -8q-35 0 -35 20v15h-544v-141q0 -44 44.5 -58.5t178.5 -14.5h183q91 0 152 15q57 14 71 95l25 154
l41 -8l-11 -129l-5 -39q0 -24 62 -76q8 -6 8 -19q0 -29 -34 -47q-60 -32 -293 -32h-225q-154 0 -208 23q-75 31 -75 120v157h-115v-115l32 -26q17 -14 17 -24q0 -20 -17 -20h-201q-70 0 -149 -11l-39 86q122 -17 188 -17h84v127h-162q-77 0 -149 -11l-39 87q124 -17 188 -17
h162v116h-115q-69 0 -149 -11l-39 86q124 -17 188 -17h90l61 71l72 -50q43 -29 43 -49q0 -17 -66 -53v-93h115v488h-115v-99l32 -26q17 -14 17 -24q0 -20 -17 -20h-194q-69 0 -148 -11l-39 86q113 -17 187 -17h77v111h-126q-74 0 -150 -12l-38 86q101 -17 188 -17h126v99
h-95q-68 0 -149 -11l-39 86q119 -18 188 -18h70l61 72l72 -50q43 -29 43 -49q0 -17 -66 -53v-76h115v263h-280q-12 -29 -56 -29q-28 0 -28 22v255q-48 -29 -108 -60l-18 33q152 108 239 215q83 101 147 248l104 -37q52 -18 52 -38q0 -22 -34 -24l-55 -4l-40 -60h257l69 60
l87 -69q28 -22 28 -41q0 -25 -39 -32l-45 -7q-52 -57 -114 -125zM1260 1581q46 86 90 171h-303q-75 -91 -159 -157l12 -14h360zM1254 483h102v488h-102v-488zM1254 1028h102v484h-102v-484zM1440 483h358v488h-358v-488zM1440 1524v-178h287v178h-287zM1168 1346v178h-280
v-178h280zM452 1144q238 -158 238 -250q0 -64 -51 -64q-24 0 -40 19q-10 12 -31 74q-25 74 -116 167v-694q0 -103 10 -209q3 -31 3 -50q0 -46 -56 -46q-55 0 -55 42v918q-103 -268 -280 -485l-30 23q141 249 207 457q41 130 72 290h-72q-68 0 -149 -11l-39 86
q126 -17 188 -17h103v349l-22 -3q-135 -23 -264 -33l-3 36q396 96 530 204l98 -90q16 -15 16 -31q0 -21 -25 -21q-4 0 -9 1l-67 11q-81 -30 -156 -51v-372h57l88 91l102 -91q22 -19 22 -36q0 -22 -28 -22h-241v-192z" />
  </g>

</svg>
