<?xml version="1.0" standalone="no"?>
<!DOCTYPE svg PUBLIC "-//W3C//DTD SVG 1.1//EN" "http://www.w3.org/Graphics/SVG/1.1/DTD/svg11.dtd" >
<svg xmlns="http://www.w3.org/2000/svg" xmlns:xlink="http://www.w3.org/1999/xlink" version="1.1" viewBox="0 -120 1000 1000">
  <g transform="matrix(1 0 0 -1 0 880)">
   <path fill="currentColor"
d="M195 514l163 9q-22 45 -47 75l10 12q61 -33 89 -72q26 -36 26 -65q0 -21 -12 -33q-8 -7 -17 -7q-16 0 -24 23q-10 32 -14 42l-99 -18v-406l-63 -13v408l-93 -16l-9 -14q-8 -12 -15 -12t-16 17l-33 66l112 4l10 15q83 124 174 278l62 -35q13 -8 13 -15q0 -9 -20 -12
l-10 -1q-15 -17 -83 -104q-17 -23 -74 -91q-14 -16 -30 -35zM715 600v-176h101l40 51l85 -61v-18h-226v-258q21 -2 37 -2h204v-13q-44 -12 -53 -47h-130q-136 0 -206 70q-39 39 -66 84q-22 -60 -62 -110q-40 -49 -66 -69l-16 16q74 90 106 219q22 92 27 222l89 -20
q16 -4 16 -12t-16 -15l-25 -11q-16 -107 -41 -187q28 -39 59 -67q49 -42 80 -47v451h-124v-44l-65 -6v371l73 -41h287l28 44l66 -44q14 -9 14 -19t-18 -15l-12 -3v-274l-65 -7v38h-121zM528 628h308v225h-308v-225zM39 121l3 11q26 84 39 150q3 14 10 70q2 14 6 36l70 -20
q24 -7 24 -17q0 -9 -22 -13l-12 -2q-50 -151 -101 -223zM64 787q8 -5 38 -19q11 -5 43 -30q76 150 96 207l61 -34q19 -10 19 -19q0 -10 -17 -12l-15 -2q-25 -30 -63 -80q-38 -49 -61 -75q3 -5 7 -9q31 -38 31 -63q0 -20 -12 -31q-9 -8 -20 -8q-7 0 -13 3q-8 5 -26 53
q-23 55 -76 103zM300 399q52 -29 89 -78q34 -45 34 -85q0 -19 -11 -32.5t-27 -13.5q-9 0 -15 5q-7 5 -11 31q-26 107 -70 160z" />
  </g>

</svg>
