<?xml version="1.0" standalone="no"?>
<!DOCTYPE svg PUBLIC "-//W3C//DTD SVG 1.1//EN" "http://www.w3.org/Graphics/SVG/1.1/DTD/svg11.dtd" >
<svg xmlns="http://www.w3.org/2000/svg" xmlns:xlink="http://www.w3.org/1999/xlink" version="1.1" viewBox="0 -144 1024 1024">
  <g transform="matrix(1 0 0 -1 0 880)">
   <path fill="currentColor"
d="M947 229l-5 -1l-20 15l-22 42l-25 39l-14 20l-44 58l-32 39l5 8l23 -13l22 -14l21 -15l20 -16l37 -36l34 -38l31 -42l3 -24l-15 -20l-8 -92l20 -13l12 -19l-12 -19l-20 -13h-554l-13 1l-14 2l-13 4l-12 7l-11 9l-9 11l-7 12l-4 13l-2 13l-1 14v505h-123v-220l-1 -1
l-3 -54l-6 -52l-8 -48l-11 -46l-13 -42l-15 -39l-17 -35l-20 -33l-23 -28l-25 -23l-7 6l15 29l15 31l12 32l12 35l9 38l8 40l6 43l5 46l2 50v52v273l65 -32h123l33 27l59 -49l-27 -21v-491l1 -4l2 -5l2 -2l5 -2l4 -1l7 -1h522zM542 250h107h7l4 1l4 1l1 1l2 2l2 5l1 5l1 6
v255h-97l-65 -32v289l65 -32h258l32 26l59 -48l-27 -21v-193l-64 -32v43h-97v-255l-1 -13l-2 -14l-4 -13l-7 -12l-9 -11l-11 -9l-12 -6l-13 -5l-13 -2l-14 -1v32l-107 16v17zM554 443l3 5l3 6l55 -33l10 -17l-21 -2l-18 -30l-35 -47l-19 -21l-42 -40l-23 -19l-24 -16
l-26 -15l-7 7l71 89l29 44l26 47l11 23l8 19h-1zM574 729v-182h258v182h-258zM474 827v-21h-430v21h178v162l64 -11l16 -11l-16 -9v-131h91l44 49l17 -16h233v138l64 -11l16 -11l-16 -9v-107h156l44 49l53 -49v-21h-526z" />
  </g>

</svg>
