<?xml version="1.0" standalone="no"?>
<!DOCTYPE svg PUBLIC "-//W3C//DTD SVG 1.1//EN" "http://www.w3.org/Graphics/SVG/1.1/DTD/svg11.dtd" >
<svg xmlns="http://www.w3.org/2000/svg" xmlns:xlink="http://www.w3.org/1999/xlink" version="1.1" viewBox="0 -144 1024 1024">
  <g transform="matrix(1 0 0 -1 0 880)">
   <path fill="currentColor"
d="M620 308l1 7l-1 4l-2 6l-7 12l-11 14l-5 6l-7 -9l-14 -15l-15 -12l-16 -12l-18 -12l-19 -9l-14 -7h168l-3 6l17 9l14 13l12 12l10 14l10 13l7 14l6 16l5 16l5 17l2 18l2 10l61 -24l14 -14l-21 -7l-11 -22l-8 -13h3l20 -2l10 -3l9 -2l9 -4l9 -4l8 -6l8 -6l5 -24l-13 -21
l-24 -5l-21 14v4l-1 5l-2 5l-3 6l-9 13l-12 12l-5 4l-7 -9l-14 -15l-16 -13l-18 -11l-18 -8l-20 -6l-7 -2h206v135l64 -11l16 -10l-16 -10v-313l-64 -32v43h-414v-16l-59 -30v379l59 -11l15 -10l-15 -10v-104h20l-3 5l15 14l25 31l11 14l9 15l8 14l6 15l5 14l4 14l1 9l4 14
l59 -26l13 -15l-23 -6l-8 -14l-7 -12h5l10 -2l9 -1l17 -6l8 -3l7 -4l8 -4l7 -6l3 -24l-14 -20l-25 -3zM465 259v-155h20l-3 6l15 14l25 30l11 15l9 15l8 14l6 16l5 14l4 14l1 10l2 7h-103zM620 134l1 6l-1 5l-2 5l-3 6l-4 6l-4 6l-11 13l-8 -9l-14 -14l-15 -13l-16 -13
l-18 -10l-33 -18h168l-3 6l17 11l14 12l12 12l10 13l10 14l7 15l6 15l5 16l5 18l2 19l1 4h-162l45 -20l13 -14l-22 -6l-9 -15l-7 -12l14 -2l10 -1l8 -2l9 -3l8 -3l7 -4l8 -4l7 -6l3 -24l-14 -20l-25 -4zM804 129l-2 6l-3 5l-9 12l-5 7l-12 11l-7 -9l-14 -16l-16 -13l-18 -11
l-18 -9l-20 -5l-7 -3h206v155h-117l46 -18l14 -13l-21 -8l-11 -23l-8 -15h3l20 -2l10 -2l9 -3l9 -3l9 -5l8 -5l8 -7l5 -23l-13 -21l-24 -5l-21 13v5zM120 193l-60 -29v626l60 -11l14 -11l-14 -9v-480h56v672l54 -11l13 -10l-13 -9v-642h67v511l54 -11l13 -11l-13 -9v-534
l-54 -27v60h-177v-65zM366 467h114v121l65 -11l16 -10l-16 -10v-90h99v158l59 -10l14 -11l-14 -9v-41h131l44 48l54 -48v-22h-229v-65h160l53 54l65 -54v-22h-615v22zM409 702l21 2l46 7l45 6v69h-106v21h106v83h-117v22h117v79l59 -10l15 -11l-15 -9v-49h17l43 48l54 -48
v-22h-114v-83h20l33 38l44 -38v-21h-97v-61l44 5l35 3l37 3l3 -10l-35 -13l-84 -27v-61l-59 -29v72l-76 -23l-8 -20l-14 14l-24 60zM925 667l-9 -9l-9 -9l-11 -8l-12 -5l-12 -5l-13 -4l-13 -2h-14v32l-75 16v16h75l8 1l12 2l6 2l5 3l4 3l4 3l4 5l4 6l4 6l2 4l2 9l3 13l2 17
l2 20l2 24l3 56v33v25h-58l-4 -32l-6 -38l-9 -37l-12 -34l-14 -31l-16 -29l-19 -25l-22 -21l-23 -19l-26 -14l-6 9l18 21l16 22l14 23l12 24l10 27l9 28l6 31l5 33l2 36v26h-65v22h189l32 26l59 -48l-27 -16l-1 -44l-1 -30l-2 -28l-1 -26l-2 -22l-4 -19l-3 -18l-4 -15
l-6 -14l-7 -11z" />
  </g>

</svg>
