<?xml version="1.0" standalone="no"?>
<!DOCTYPE svg PUBLIC "-//W3C//DTD SVG 1.1//EN" "http://www.w3.org/Graphics/SVG/1.1/DTD/svg11.dtd" >
<svg xmlns="http://www.w3.org/2000/svg" xmlns:xlink="http://www.w3.org/1999/xlink" version="1.1" viewBox="0 -144 1024 1024">
  <g transform="matrix(1 0 0 -1 0 880)">
   <path fill="currentColor"
d="M189 870h312v124l65 -11l16 -10l-16 -10v-93h290l54 54l64 -54v-21h-785v-339l-3 -63l-6 -59l-8 -57l-12 -53l-15 -49l-17 -46l-21 -43l-23 -38l-28 -34l-30 -28l-7 6l21 35l18 36l17 38l14 42l12 44l10 48l7 50l5 54l2 57v453zM847 127l-36 39l-30 44l-2 3l-20 -29
l-42 -46l-46 -40l-52 -31l-56 -24l-4 9l49 33l44 36l40 41l35 46l28 48l-23 52l-18 56l-14 59l-8 63l-2 29l-11 -19l-22 -31l-25 -29l-8 4l29 69l27 72l23 75l11 39l9 41l8 41l7 43l2 10l61 -22l14 -13l-19 -7l-17 -67l-28 -81l-11 -27h139l44 48l53 -48v-22h-68l-12 -77
l-17 -78l-23 -73l-27 -66l-19 -34l16 -22l31 -36l33 -31l36 -28l64 -37l-60 -48l-43 31zM336 426h175l32 27l59 -48l-27 -22v-251v-14l-3 -13l-4 -13l-7 -12l-8 -11l-11 -9l-12 -7l-13 -4l-14 -2l-14 -1v32l-107 16v16h107l7 1l5 1l5 2l1 1l1 1l1 1l1 4l1 4v91h-175v-2
l-3 -26l-5 -23l-8 -22l-10 -20l-13 -17l-13 -15l-17 -12l-18 -9l-19 -6l-20 -5l-3 9l16 10l14 11l11 13l8 13l7 13l4 15l4 15l2 17v19l-1 20v245zM336 312v-75h175v75h-175zM730 591l-12 -26l-16 -29l12 -47l17 -59l20 -54l22 -50l8 -14l24 68l18 69l13 75l7 67h-113z
M336 405v-71h175v71h-175zM574 526l-20 40l-4 11v-89l-65 -33v121l-15 -24l-16 -20l-17 -18l-19 -16l-18 -13l-7 7l32 59l8 16l-17 -15l-24 1l-17 18l-1 10l-2 9l-2 10l-3 9l-1 3v-124l-64 -33v120l-16 -23l-15 -20l-17 -18l-18 -16l-20 -13l-6 7l22 39l10 20l10 21l9 22
l9 23l7 24l7 26l6 26l2 10h-69v21h79v108l64 -11l16 -11l-16 -9v-77h1l24 33l32 -33v-21h-57v-43l9 -5l11 -6l9 -7l9 -9l9 -9l8 -9l8 -11l7 -11l-2 -23l10 24l8 23l8 24l7 26l6 26l2 10h-47v21h57v108l65 -11l16 -11l-16 -9v-77h22l24 33l33 -33v-21h-79v-30l15 -28l12 -19
l23 -34l12 -15l25 -27l13 -11l5 -6l-58 -43l-12 18z" />
  </g>

</svg>
