<?xml version="1.0" standalone="no"?>
<!DOCTYPE svg PUBLIC "-//W3C//DTD SVG 1.1//EN" "http://www.w3.org/Graphics/SVG/1.1/DTD/svg11.dtd" >
<svg xmlns="http://www.w3.org/2000/svg" xmlns:xlink="http://www.w3.org/1999/xlink" version="1.1" viewBox="0 -144 1024 1024">
  <g transform="matrix(1 0 0 -1 0 880)">
   <path fill="currentColor"
d="M787 408l2 3h1l29 24l59 -48l-27 -16l-14 -6l-22 -40l-40 -53l-44 -49l-21 -17l21 -14l44 -23l49 -21l55 -18l107 -27l-63 -57l-64 20l-59 23l-53 27l-47 30l-33 27l-43 -29l-62 -30l-67 -26l-72 -19l-77 -14l-82 -6l-2 9l80 18l74 21l67 25l61 28l56 33l33 25l-8 8
l-29 40l-21 42l-14 46l-3 21l-34 -43l-26 -28l-28 -26l-31 -25l-32 -22l-35 -21l-6 8l54 56l47 57l41 59l17 30l16 31l15 33l10 28l5 12l57 -31l11 -16l-21 -3l-26 -50l-4 -6h199zM360 743l10 -17l-21 -1l-41 -62l-28 -38l-30 -37l-31 -35l-9 -10l37 -6l16 -11l-16 -9v-437
l-65 -32v466l-29 -28l-36 -31l-37 -29l-39 -26l-6 7l92 103l57 72l52 74l46 78l22 40l3 6zM574 387l-4 -7l12 -29l21 -38l25 -35l30 -31l10 -9l25 23l37 46l33 50l14 30h-203zM613 683l15 -12l-20 -9l-3 -12l-12 -32l-15 -30l-19 -29l-21 -26l-25 -25l-28 -22l-31 -21
l-33 -18l-37 -16l-5 8l58 49l25 24l22 24l18 25l15 25l13 26l9 26l7 27l5 38zM782 473l-12 2l-13 4l-12 5l-10 9l-10 9l-7 12l-4 12l-3 14l-1 13v167l64 -11l16 -11l-16 -9v-136v-6v-5l1 -4l1 -4l1 -2l2 -1l4 -2l5 -1l8 -2h108l27 92h11l-11 -92l16 -10l11 -16l-11 -17
l-16 -10h-135h-14zM322 947l9 -17l-20 -1l-35 -51l-50 -64l-26 -30l-56 -56l-29 -25l-31 -24l-32 -21l-6 7l96 117l44 62l42 66l42 74zM895 739l-10 21l-85 -16l-100 -17l-193 -26l-72 -9l-10 -18l-12 15l-17 63l11 1l100 5l95 135l48 74l15 25l2 4l51 -40l8 -18l-21 1
l-44 -53l-64 -70l-47 -46l-12 -10l59 4l49 2l50 2l101 5h52h29l-11 20l-13 18l-29 36l-16 20l-19 18l6 8l47 -26l20 -14l19 -16l18 -17l17 -17l15 -19l13 -18l12 -20l11 -21l-2 -24l-17 -18l-25 2l-17 18l-5 17z" />
  </g>

</svg>
