<?xml version="1.0" standalone="no"?>
<!DOCTYPE svg PUBLIC "-//W3C//DTD SVG 1.1//EN" "http://www.w3.org/Graphics/SVG/1.1/DTD/svg11.dtd" >
<svg xmlns="http://www.w3.org/2000/svg" xmlns:xlink="http://www.w3.org/1999/xlink" version="1.1" viewBox="0 -144 1024 1024">
  <g transform="matrix(1 0 0 -1 0 880)">
   <path fill="currentColor"
d="M806 112h71l5 2l3 1l2 1h1v1l1 2l1 3l2 5v424h-203v-460l-64 -32v492h-203v-476l-64 -32v561l64 -32h203v107h-293v22h177v154h-138v22h138v112l64 -10l16 -11l-16 -10v-81h168v112l65 -10l16 -11l-16 -10v-81h19l54 54l64 -54v-22h-137v-154h58l53 53l65 -53v-22h-293
v-107h203l32 27l59 -48l-27 -22v-395v-14l-3 -13l-4 -13l-7 -13l-9 -10l-10 -9l-13 -7l-13 -4l-13 -3h-14v32l-64 16v16zM161 54l-22 11l-8 23l3 38v35l-2 31l-4 29l-7 24l-6 14l-4 1l2 4l-2 4l-11 20l-14 17l-18 17l-21 16l3 9l28 -7l25 -12l23 -17l4 -4l89 198l95 196
l9 -4l-121 -351l-20 -64l-5 -22l-3 -15l-4 1l5 -11l10 -33l7 -36l3 -40v-43l-11 -21zM436 222l104 54l37 17l19 8l19 8l5 -8l-44 -42l-59 -53l-26 -22v-23l-18 7l-45 48zM813 197l-7 10l-9 10l-11 11l-68 54l-23 15l5 8l25 -10l46 -16l37 -17l16 -8l15 -8l13 -8l11 -9
l10 -10l4 -24l-13 -20l-25 -4l-20 14l-2 5zM549 381l-4 8l-6 9l-8 10l-23 23l-29 27l-19 13l5 8l21 -10l20 -7l34 -15l28 -15l12 -7l11 -8l10 -9l8 -11l-1 -25l-17 -17h-24l-18 18l1 3zM863 445l1 -20l-23 9l-10 -5l-14 -7l-73 -35l-23 -11l-24 -12l-5 8l21 17l77 71l27 28
l3 3l-1 1l4 4zM133 612l-6 10l-7 11l-21 22l-26 22l-16 11l-18 10l4 9l20 -6l19 -4l19 -6l17 -7l17 -8l15 -8l14 -10l13 -12l11 -12l11 -14l1 -24l-15 -19l-25 -2l-19 16l-3 10zM573 855v-154h168v154h-168zM201 859l-7 10l-16 22l-22 22l-28 23l-16 9l3 9l19 -6l18 -4
l18 -6l17 -7l15 -7l15 -9l27 -21l12 -13l10 -13l3 -24l-15 -20l-25 -2l-19 15l-4 11z" />
  </g>

</svg>
