<?xml version="1.0" standalone="no"?>
<!DOCTYPE svg PUBLIC "-//W3C//DTD SVG 1.1//EN" "http://www.w3.org/Graphics/SVG/1.1/DTD/svg11.dtd" >
<svg xmlns="http://www.w3.org/2000/svg" xmlns:xlink="http://www.w3.org/1999/xlink" version="1.1" viewBox="0 -144 1024 1024">
  <g transform="matrix(1 0 0 -1 0 880)">
   <path fill="currentColor"
d="M78 68l-1 25l16 19l15 6l14 8l13 11l13 11l11 15l10 17l10 19l8 22l8 24l5 28l10 -1l1 -28l1 -27l-3 -26l-5 -25l-7 -23l-10 -21l-13 -20l-15 -19l-18 -15l-20 -14l-25 -1zM881 114l-8 17l-21 36l-13 19l-33 38l-19 21l-21 21l6 8l51 -29l23 -16l21 -17l19 -17l17 -17
l15 -19l13 -19l12 -19l9 -20l-3 -25l-19 -16l-24 3l-16 19l-4 15zM627 126l-4 16l-5 15l-7 16l-8 17l-10 17l-12 18l-14 18l-16 18l6 7l40 -27l19 -13l16 -16l15 -16l13 -16l11 -18l9 -18l7 -19l6 -20l-7 -24l-22 -12l-24 7l-11 22l-1 14zM408 69l-22 12l-7 24l3 13l2 15v14
l-1 15l-2 15l-4 16l-5 16l-7 17l-8 18l-12 17l7 6l32 -28l13 -15l12 -15l11 -17l8 -18l7 -17l4 -20l4 -19v-20l-12 -22zM150 306l-65 -32v673l65 -32h237l53 54l65 -54v-21h-178v-141h85l32 27l59 -48l-26 -22v-195l-65 -32v64h-85v-155h73l53 54l65 -54v-21h-368v-65z
M945 552h11l-11 -135l20 -13l13 -19l-13 -19l-20 -13h-297h-14l-13 3l-13 4l-12 7l-11 8l-9 12l-6 11l-5 13l-2 14l-1 14v519l65 -32h230l32 27l59 -49l-27 -21v-244l-64 -32v64h-230v-232v-7l1 -5l1 -3l1 -2v-1l3 -2l4 -1l5 -1h271zM150 547v-155h112v155h-112zM150 569
h262v163h-262v-163zM627 904v-211h230v211h-230zM150 894v-141h112v141h-112z" />
  </g>

</svg>
