<?xml version="1.0" standalone="no"?>
<!DOCTYPE svg PUBLIC "-//W3C//DTD SVG 1.1//EN" "http://www.w3.org/Graphics/SVG/1.1/DTD/svg11.dtd" >
<svg xmlns="http://www.w3.org/2000/svg" xmlns:xlink="http://www.w3.org/1999/xlink" version="1.1" viewBox="0 -144 1024 1024">
  <g transform="matrix(1 0 0 -1 0 880)">
   <path fill="currentColor"
d="M770 350h54h7l5 1l3 1l1 1l2 1l1 3l1 3l1 5v41l-12 -16l-24 -3l-20 15l-8 22l-1 2l-20 -20l-16 -13l-33 -24v-38l-32 -16l32 -6l16 -11l-16 -9v-63h92l54 54l65 -54v-21h-211v-115h136l54 54l64 -54v-22h-573v22h254v115h-211v21h211v166l-10 -11h-25l-18 17l-3 12l-4 13
l-2 5l-24 -23l-16 -13l-36 -23v-47l-64 -33v463l-25 -11l-23 -8l-4 7l-8 -4l-14 -28l-26 -48l-28 -45l-30 -45l-25 -33h6v-26l21 -10l20 -12l18 -13l33 -28l15 -15l13 -16l13 -17l11 -17v-24l-16 -19l-24 -1l-19 16l-5 16l-7 15l-8 16l-20 31l-12 16l-33 39v-413l-65 -32
v426l-22 -24l-41 -39l-43 -37l-46 -34l-6 7l74 84l68 84l16 24v3h2l40 60l26 45l45 92l9 24h-256v21h134v215l65 -11l16 -10l-16 -10v-184h64l33 27l52 -43l28 26v26l17 -9l28 29l28 33l25 35l2 3l48 -43l6 -19l-21 3l-19 -18l-37 -30l-19 -13l6 -4h138v126h-249v22h444
l54 53l64 -53v-22h-248v-126h134l29 25l-15 13l-33 25l-38 27l-22 12l4 10l48 -14l23 -7l21 -8l20 -9l19 -9l17 -10l32 -22l13 -12l8 -24l-11 -22l-23 -7l-9 4l-18 -15v-368l-1 -13l-2 -14l-4 -13l-7 -12l-9 -11l-11 -9l-12 -6l-13 -5l-13 -2l-14 -1v32l-54 16v17zM585 605
l-3 6l-21 -21l-16 -13l-17 -10l-17 -10l-3 4v-177l7 8l22 34l19 34l5 12l-26 36l-12 10l6 8l14 -7l15 -7l15 -8l2 -1l4 11l6 18l5 19l4 8l52 -28v51l-9 -12l-24 -2l-20 15zM781 605l-2 6l-20 -21l-16 -12l-32 -21v-172l25 40l17 34l4 9l-26 36l-11 11l5 8l13 -8l15 -6l14 -8
l3 -2l11 33l6 19l2 8l56 -29v55l-12 -15l-25 -2l-19 15zM641 509l-23 -39l-1 -1l16 -18l10 -13l3 -5v77zM838 509l-23 -38l-2 -3l13 -12l19 -22v76zM508 761v-193l9 11l29 48l9 17l3 5l-17 19l-11 11l-12 8l4 9l15 -6l15 -4l15 -5l3 -2l8 19l11 36l5 13l52 -28v42h-138z
M711 761v-189l5 7l19 31l17 34l2 5l-27 30l-13 8l4 9l14 -6l16 -4l15 -5l4 -2l14 39l6 21l2 8l56 -29v43h-134zM838 697l-25 -42l-3 -4l16 -13l11 -12l8 -11v84zM641 697l-12 -23l-12 -19l-3 -4l16 -13l10 -12l6 -8v80z" />
  </g>

</svg>
