<?xml version="1.0" standalone="no"?>
<!DOCTYPE svg PUBLIC "-//W3C//DTD SVG 1.1//EN" "http://www.w3.org/Graphics/SVG/1.1/DTD/svg11.dtd" >
<svg xmlns="http://www.w3.org/2000/svg" xmlns:xlink="http://www.w3.org/1999/xlink" version="1.1" viewBox="0 -144 1024 1024">
  <g transform="matrix(1 0 0 -1 0 880)">
   <path fill="currentColor"
d="M728 62l-22 -8l-24 -7l-11 -2l-13 -1l-24 -1v32l-107 16v16h107l18 1l8 1l9 2l17 4l16 7l8 3l8 5l14 9l14 13l13 14l12 17l10 20l11 23l8 26l8 28l7 32l2 19h-591l-12 -44l-70 -15l72 279l44 -40h524v134h-618v21h618l32 27l59 -48l-26 -22v-155l-65 -32v54h-517
l-36 -137h589l32 27l59 -49l-27 -16l-4 -2l-2 -12l-7 -35l-9 -33l-10 -30l-13 -28l-14 -25l-15 -24l-18 -20l-20 -18l-22 -14l-11 -6zM332 767l-6 12l-8 12l-10 13l-11 13l-44 40l-12 8h-25l-13 -20l-21 -29l-24 -27l-25 -26l-28 -25l-31 -22l-32 -21l-6 8l49 56l22 28
l38 56l30 57l12 29l10 30l7 25l4 13l59 -26l12 -15l-20 -5l-5 -13l-15 -33l-10 -18h197l54 53l64 -53v-22h-269l26 -10l34 -19l16 -12l14 -12l13 -12l11 -14l11 -14l1 -25l-17 -18l-24 -2l-19 17l-3 11zM757 767l-6 12l-8 12l-10 13l-11 13l-44 40l-12 8h-28l-10 -15
l-22 -27l-24 -26l-25 -23l-28 -22l-30 -20l-33 -17l-6 8l50 51l22 25l20 25l18 26l16 27l14 27l11 28l11 28l8 29l2 9l60 -28l12 -15l-20 -5l-5 -12l-15 -30l-12 -21h204l54 53l64 -53v-22h-274l6 -2l19 -8l35 -19l15 -12l15 -12l13 -12l11 -14l10 -14l1 -25l-16 -18l-24 -2
l-19 17l-3 11z" />
  </g>

</svg>
