<?xml version="1.0" standalone="no"?>
<!DOCTYPE svg PUBLIC "-//W3C//DTD SVG 1.1//EN" "http://www.w3.org/Graphics/SVG/1.1/DTD/svg11.dtd" >
<svg xmlns="http://www.w3.org/2000/svg" xmlns:xlink="http://www.w3.org/1999/xlink" version="1.1" viewBox="0 -144 1024 1024">
  <g transform="matrix(1 0 0 -1 0 880)">
   <path fill="currentColor"
d="M674 71l-99 6l-81 10l-65 14l-53 19l-42 23l-33 27l-24 31l-12 20l-31 -31l-58 -48l-58 -44l-18 -13l-2 -22l-17 9l-42 50l9 5l161 81v265h-160v21h160l33 27l59 -48l-27 -22v-219l19 -16l29 -22l31 -18l39 -14l48 -12l62 -8l77 -6l96 -1l116 2l200 8l-58 -73l-141 -3z
M915 575v-22h-231v-102h85l44 49l54 -49v-21h-183v-113h161l54 54l65 -54v-22h-280v-107l-64 -33v140h-259v22h259v113h-173v21h173v102h-216v22h393l54 54zM896 596l-56 45l-31 31l-42 -25l-6 7l31 35l-25 29l-42 57l-17 32l-14 29h-70l-7 -13l-29 -42l-32 -40l-19 -19
l20 -17l8 -23l-10 -22l-23 -8l-23 10l-14 20l-16 -14l-44 -34l-48 -31l-52 -28l-5 8l45 37l42 37l38 37l16 17l-26 28l-24 25l-12 13l-14 12l6 8l16 -7l17 -7l33 -15l16 -9l19 -12l18 23l27 40l15 26h-215v21h227l15 33l15 42l14 51l61 -25l13 -15l-21 -6l-9 -26l-20 -45
l-5 -9h195l54 54l65 -54v-21h-242l66 -64l50 -44l48 55l17 22l5 6l44 -47l4 -19l-21 5l-57 -41l-8 -6l48 -34l28 -17l29 -16l23 -14l-60 -47zM179 644l-25 27l-27 26l-31 25l-16 12l-17 12l3 9l42 -11l39 -16l19 -10l35 -21l17 -13l32 -27l8 -24l-11 -22l-24 -7l-22 11z
M231 833l-22 28l-25 27l-45 39l-18 12l4 9l41 -14l20 -8l37 -18l17 -12l32 -24l15 -14l14 -14l5 -24l-12 -22l-24 -5l-21 12z" />
  </g>

</svg>
