<?xml version="1.0" standalone="no"?>
<!DOCTYPE svg PUBLIC "-//W3C//DTD SVG 1.1//EN" "http://www.w3.org/Graphics/SVG/1.1/DTD/svg11.dtd" >
<svg xmlns="http://www.w3.org/2000/svg" xmlns:xlink="http://www.w3.org/1999/xlink" version="1.1" viewBox="0 -144 1024 1024">
  <g transform="matrix(1 0 0 -1 0 880)">
   <path fill="currentColor"
d="M887 233l-19 63l-16 69l-14 75l-12 82l-8 88l-5 94l-2 102l2 92l-103 -24l-71 -14l-36 -6h-6v-280l-5 -72l-7 -68l-9 -63l-11 -59l-14 -55l-15 -51l-19 -46l-20 -42l-24 -36l-26 -31l-8 6l17 35l15 38l14 42l11 46l11 49l9 54l7 57l5 62l3 66l1 70v321l56 -27l77 31
l222 83l5 2l3 -9l49 -42l2 -17l-22 10l-12 -4l-88 -23l20 -194l13 -93l14 -86l16 -78l18 -72l20 -65l22 -57l23 -50l25 -42l-53 -50l-32 63zM482 903v-22h-151v-150h63l29 27l57 -49l-27 -19v-535l-59 -29v29h-255v-64l-64 -32v704l64 -32h48v150h-138v22h315l53 54z
M829 140l-7 37l-1 7l-92 -52l-90 -47l-4 -21l-16 10l-34 56l9 4l7 2l23 81l12 45l10 46l8 45l7 45l5 46l3 45l1 45v46v231l64 -10l16 -11l-16 -10v-200l-3 -48l-4 -48l-7 -47l-10 -48l-11 -46l-13 -46l-16 -45l-19 -44l-21 -44l-13 -24l12 4l18 6l120 33l51 13l-12 41
l-23 66l-9 23l8 5l32 -39l26 -40l23 -39l17 -39l7 -20l7 -19l-6 -24l-20 -14l-24 5l-14 20zM139 290v-113h255v113h-255zM394 709h-63v-226v-7l2 -5l2 -5l4 -4l2 -1l3 -1h4l5 -1h41v250zM139 709v-338l9 18l9 23l8 26l6 30l6 33l5 37l3 39l2 45l1 47l-1 40h-48zM241 881
v-150h41v150h-41zM334 404l-12 5l-12 7l-9 8l-8 10l-5 12l-4 12l-2 13v238h-41l-2 -41l-4 -50l-5 -45l-7 -42l-9 -38l-10 -34l-12 -30l-14 -27l-16 -22l-18 -17l-5 4v-56h255v89h-34l-13 2z" />
  </g>

</svg>
