<?xml version="1.0" standalone="no"?>
<!DOCTYPE svg PUBLIC "-//W3C//DTD SVG 1.1//EN" "http://www.w3.org/Graphics/SVG/1.1/DTD/svg11.dtd" >
<svg xmlns="http://www.w3.org/2000/svg" xmlns:xlink="http://www.w3.org/1999/xlink" version="1.1" viewBox="0 -144 1024 1024">
  <g transform="matrix(1 0 0 -1 0 880)">
   <path fill="currentColor"
d="M560 301h275l32 27l59 -49l-27 -21v-162l-64 -32v54h-275v-38l-64 -32v285zM56 137l79 17l69 15l18 5v320h-145v22h145v150h-68v22h150l43 48l54 -48v-22h-114v-150h22l54 53l65 -53v-22h-141v-305l58 15l72 15l4 -9l-67 -34l-67 -29l-69 -25l-103 -34l-13 -4l-7 -20
l-14 14zM560 279v-140h275v140h-275zM129 277l-1 16l-3 16l-4 16l-5 16l-6 16l-14 33l-10 17l7 6l29 -26l14 -14l12 -15l11 -16l10 -17l8 -18l7 -18l6 -20l4 -19l-8 -24l-21 -11l-23 8l-12 22v16zM587 677h226l32 27l59 -49l-26 -21v-129l-59 -29l5 -3l-16 -10v-49h79l44 48
l54 -48v-22h-177v-48l-65 -33v81h-86v-48l-64 -33v81h-172l3 -4l-21 -4l-7 -13l-38 -64l-23 -31l-13 -15l-12 -16l-8 5l7 18l26 90l9 34l7 28l3 13l50 -26v7h189v80l64 -11l16 -10l-16 -10v-49h86v80l65 -11l5 -3v36h-226v-16l-64 -33v242zM587 655v-118h226v118h-226z
M359 795l-17 27l-22 28l-45 43l-10 8l-30 -70l-44 -84l-50 -78l-28 -38l-31 -36l-32 -34l-7 6l67 120l40 81l18 42l32 85l14 43l11 39l4 14l59 -27l12 -15l-19 -5l-9 -26l-3 -6l35 -14l20 -10l19 -11l17 -11l16 -12l15 -13l13 -14l12 -14l11 -16l2 -24l-16 -19l-25 -1
l-18 15l-5 13zM490 763h173v97h-221v21h221v113l64 -11l16 -10l-16 -10v-82h124l53 54l65 -54v-21h-242v-97h90l44 48l54 -48v-22h-425v22z" />
  </g>

</svg>
