<?xml version="1.0" standalone="no"?>
<!DOCTYPE svg PUBLIC "-//W3C//DTD SVG 1.1//EN" "http://www.w3.org/Graphics/SVG/1.1/DTD/svg11.dtd" >
<svg xmlns="http://www.w3.org/2000/svg" xmlns:xlink="http://www.w3.org/1999/xlink" version="1.1" viewBox="0 -144 1024 1024">
  <g transform="matrix(1 0 0 -1 0 880)">
   <path fill="currentColor"
d="M312 796l-6 14l-8 13l-18 28l-37 43l-6 5l-26 -67l-18 -42l-20 -42l-21 -39l-13 -21h117l44 48l53 -48v-22h-95v-150h20l44 48l54 -48v-22h-118v-303l76 20l32 8l4 -9l-28 -17l-28 -17l-89 -41l-118 -47l-9 -3l-6 -20l-15 13l-27 59l100 24l43 12v321h-122v22h122v150
h-54v21l-35 -55l-26 -36l-29 -35l-8 6l57 119l17 40l32 83l14 42l25 86l13 53l60 -25l13 -14l-20 -6l-8 -26l-3 -8l29 -14l18 -10l16 -11l16 -11l14 -12l13 -13l12 -14l11 -14l10 -16v-24l-16 -18h-25l-18 16l-4 13zM770 71l-63 6l-52 10l-42 15l-35 20l-27 23l-19 27
l-14 30l-4 14l-2 -1l-12 -21l-43 -63l-28 -36l3 -23l-18 4l-53 41l9 7l54 40l45 35v274h-88v21h88l32 27l59 -48l-26 -22v-226l-4 -2l27 -31l21 -18l23 -14l29 -11l37 -8l46 -5l58 -1l72 2l145 10l-55 -75l-88 -3zM881 952l11 -16l-22 -4l-54 -88l-10 -14l-2 -4h37l54 54
l64 -54v-21h-173l-20 -39l-8 -14l-16 -25l-9 -12l-9 -12l-9 -12h131l33 27l59 -48l-27 -22v-423l-65 -32v54h-175v-38l-65 -32v547l65 -33h29l2 6l2 14l6 29l3 14l3 15l2 14l3 14l1 8h-162v21h231l2 8l2 18l9 50l4 16l3 15l4 15l3 14l3 9l-1 1l2 5l3 6zM112 294l-2 16l-3 16
l-4 16l-5 16l-11 33l-9 16l8 5l26 -25l12 -15l12 -15l9 -16l9 -17l7 -17l7 -19l5 -19l4 -19l-8 -24l-21 -11l-24 8l-11 22v33zM367 404l13 -15l-22 -5l-31 -60l-19 -31l-11 -17l-12 -15l-10 -16l-9 4l6 18l3 19l13 53l12 51l3 17l2 11h-1l1 5l3 9zM671 396v-128h175v128
h-175zM671 540v-123h175v123h-175zM671 670v-109h175v109h-175zM461 622l-17 41l-6 13l-15 25l-7 11l-16 24l-11 9l6 8l13 -7l14 -6l13 -7l14 -9l24 -20l24 -24l11 -13l10 -14l3 -24l-15 -20l-25 -2zM487 826l-15 40l-13 25l-23 38l-11 10l6 8l13 -8l15 -7l26 -18l12 -10
l23 -23l20 -27l10 -14l1 -25l-16 -18l-25 -1l-18 16zM671 876l-1 13l-2 12l-1 11l-2 12l-1 12l-5 24l-5 12l9 4l7 -9l9 -9l9 -10l8 -10l15 -22l13 -25l6 -12l5 -13l-5 -24l-20 -14l-24 4l-14 20z" />
  </g>

</svg>
