<?xml version="1.0" standalone="no"?>
<!DOCTYPE svg PUBLIC "-//W3C//DTD SVG 1.1//EN" "http://www.w3.org/Graphics/SVG/1.1/DTD/svg11.dtd" >
<svg xmlns="http://www.w3.org/2000/svg" xmlns:xlink="http://www.w3.org/1999/xlink" version="1.1" viewBox="0 -144 1024 1024">
  <g transform="matrix(1 0 0 -1 0 880)">
   <path fill="currentColor"
d="M377 116l-35 46l-26 30l-45 45l-3 2l-11 -29l-22 -40l-27 -35l-31 -31l-36 -25l-41 -21l-44 -14l-4 9l39 23l33 26l28 28l24 30l20 33l15 36l11 39l3 17h-171v21h174l1 5l3 46l-2 50v12l65 -9l16 -10l-17 -12l-1 -34l-6 -48h61l54 54l64 -54v-21h-184l-8 -31v-1l27 -11
l20 -10l18 -11l36 -24l33 -28l30 -29l6 -24l-13 -21l-23 -6l-22 12zM908 564l65 -54v-21h-233l28 -84l19 -46l21 -44l22 -41l26 -38l26 -36l29 -34l32 -30l46 -39l-58 -44l-35 35l-32 37l-29 39l-26 42l-23 44l-19 46l-17 49l-12 51l-8 44l-13 -55l-20 -56l-24 -53l-29 -49
l-34 -45l-38 -41l-43 -37l-48 -32l-51 -28l-6 8l46 36l40 38l36 39l32 42l27 44l23 47l19 49l14 53l10 55l4 34h-210v21h212v4v265h-80l-14 -42l-16 -41l-16 -39l-19 -38l-21 -35l-23 -33l-9 5l26 75l12 38l12 40l10 41l9 41l8 43l7 45l6 45l5 58l63 -18l15 -13l-18 -8
l-5 -27l-9 -48l-17 -67h223l54 53l65 -53v-22h-203v-269h112zM300 897l4 5h1l27 22l60 -48l-27 -16l-19 -8l-39 -45l-40 -41l-16 -13l-1 -1h110l32 27l59 -48l-27 -22v-290l-64 -32v53h-194v-37l-65 -32v366l-33 -38l-25 -25l-8 6l65 121l28 59l23 59l10 30l10 30l2 7
l58 -29l12 -16l-20 -3l-19 -41h96zM166 591v-129h64v129h-64zM295 591v-129h65v129h-65zM166 731v-119h64v119h-64zM295 731v-119h65v119h-65zM194 876l-40 -67l-19 -29l-7 -9l38 -19h67l6 10l26 52l28 61l1 1h-100z" />
  </g>

</svg>
