<?xml version="1.0" standalone="no"?>
<!DOCTYPE svg PUBLIC "-//W3C//DTD SVG 1.1//EN" "http://www.w3.org/Graphics/SVG/1.1/DTD/svg11.dtd" >
<svg xmlns="http://www.w3.org/2000/svg" xmlns:xlink="http://www.w3.org/1999/xlink" version="1.1" viewBox="0 -144 1024 1024">
  <g transform="matrix(1 0 0 -1 0 880)">
   <path fill="currentColor"
d="M482 194l8 -18h-22l-15 -17l-32 -33l-18 -15l-39 -29l-21 -14l-46 -24l-5 8l51 55l29 35l25 34l11 17l17 29l-1 1l6 9zM265 285l-4 15l-5 15l-13 31l-9 16l-11 18v-308l-54 -27v269l-21 -56l-18 -39l-19 -34l-20 -33l-22 -28l-24 -25l-8 6l15 30l27 65l25 74l12 41l11 43
l10 46l9 49l5 36h-30v-65l-59 -29v338l59 -29h48v118h-124v22h124v150l54 -11l13 -10l-13 -9v-120h26l44 48l54 -48v-22h-124v-118h53l24 27l51 -49l-27 -13v-191l-48 -24v35h-53v-82l19 -13l15 -13l15 -14l13 -14l23 -31l9 -17l8 -18l7 -18l-5 -24l-20 -14l-25 5l-14 21
l-1 14zM570 118l-13 29l-7 13l-17 27l-18 26l-12 11l6 8l30 -15l14 -9l28 -21l13 -13l24 -28l11 -16l10 -16l1 -25l-17 -18h-24l-18 16zM842 260l3 22v7l-1 7l-1 7l-3 7l-2 8l-5 8l-7 6l6 8l8 -5l10 -3l9 -4l9 -6l8 -6l8 -8l6 -10l6 -9l6 -11l1 -2v9v35l1 29l-1 43h-179
l-59 -30v533l59 -30h44l1 4l1 26l2 26l1 13l2 26l1 20h-1l1 5l2 10l61 -24l13 -14l-22 -7l-14 -28l-13 -24l-7 -12l-15 -21h84l32 27l60 -48l-27 -22v-226l-65 -32v43h-141v-86h146l44 48l53 -48v-21h-243v-86h179l33 26l59 -48l-27 -16v-16v-41l-1 -36l-1 -33l-1 -31
l-2 -26l-3 -24l-4 -20l-4 -18l-6 -15l-6 -12l-8 -11l-8 -11l-9 -9l-11 -7l-11 -7l-13 -5l-13 -3l-13 -2l-14 -1v32l-107 16v16h107l8 1l6 1l6 2l5 1l8 6l4 3l4 5l3 5l3 7l3 7l3 12l3 17l2 21l2 24l2 28l-3 -9l-22 -12l-24 7zM644 121l-13 21l5 24l6 5l5 8l6 11l6 13l5 15
l4 18l4 19l7 47l1 26h10l4 -26l5 -24l3 -24l2 -21l1 -20l-1 -19l-1 -18l-3 -16l-5 -16l-6 -15l-21 -13zM739 145l-21 14l-4 24l3 7l3 10l3 9l2 12l2 12l2 28v15v18l-3 16l10 3l6 -17l14 -30l10 -29l4 -14l3 -13l2 -14l1 -13l1 -12l-14 -20zM783 237l2 10l1 20l-1 20l-4 20
l-5 8l8 6l7 -7l9 -7l8 -9l8 -9l7 -10l10 -24l5 -12l4 -14l2 -14l-9 -23l-23 -10l-23 10l-9 23l2 11zM638 919v-22h-112l-6 -14l-16 -30l-25 -44l-9 -14l-10 -13l-10 -13l-1 -1h100l30 27l56 -48l-27 -19v-443l-59 -30v30h-127l-54 -27v537l54 -27h13l2 7l3 16l6 31l4 16
l3 16l3 15l3 17l2 11h-119v22h178l53 54zM422 440v-134h127v134h-127zM422 591v-129h127v129h-127zM121 682v-172h48v172h-48zM223 682v-172h53v172h-53zM422 747v-135h127v135h-127zM724 725v-96h141v96h-141zM724 844v-97h141v97h-141z" />
  </g>

</svg>
