<?xml version="1.0" standalone="no"?>
<!DOCTYPE svg PUBLIC "-//W3C//DTD SVG 1.1//EN" "http://www.w3.org/Graphics/SVG/1.1/DTD/svg11.dtd" >
<svg xmlns="http://www.w3.org/2000/svg" xmlns:xlink="http://www.w3.org/1999/xlink" version="1.1" viewBox="0 -144 1024 1024">
  <g transform="matrix(1 0 0 -1 0 880)">
   <path fill="currentColor"
d="M716 87l-39 17l-35 20l-32 22l-29 23l-24 26l-22 29l-17 30l-10 28h-3l-13 -29l-28 -45l-37 -42l-48 -37l-57 -32l-70 -24l-81 -16l-2 9l77 26l63 31l49 34l39 38l29 39l21 40l3 8h-264v22h271l4 12l9 40l5 39l1 24h-228v22h404l54 54l64 -54v-22h-230l-4 -31l-9 -44
l-13 -40h200l54 54l64 -54v-22h-309l37 -38l24 -21l25 -19l28 -16l31 -15l33 -14l36 -12l38 -10l90 -18l-63 -59l-45 13zM764 967l6 8l50 -42l6 -18l-21 2l-32 -30l-37 -32l-43 -32l-23 -16l-28 -17h128l54 54l64 -54v-22h-340l-16 -53l-24 -49h348l54 54l64 -54v-21h-413
l29 -20l30 -15l34 -14l38 -13l43 -12l46 -10l52 -8l56 -7l119 -11l-64 -65l-64 9l-58 11l-54 13l-49 15l-45 18l-39 19l-34 21l-29 24l-23 26l-11 19h-42l-45 -57l-59 -49l-71 -39l-81 -29l-92 -20l-104 -10v10l100 20l87 27l75 33l61 41l50 47l18 26h-369v21h384l5 7l27 60
l8 35h-344v22h349l2 12l5 77l-6 85l-1 11l65 -4l18 -9l-17 -12l3 -73l-10 -85v-2h63l104 115l26 35l18 27h-1zM293 847l-8 13l-11 14l-25 27l-33 27l-18 15l-22 12l4 10l48 -16l22 -9l20 -9l19 -11l18 -12l16 -12l14 -14l13 -15l11 -16l2 -24l-16 -19l-25 -1l-19 15l-4 12z
" />
  </g>

</svg>
