<?xml version="1.0" standalone="no"?>
<!DOCTYPE svg PUBLIC "-//W3C//DTD SVG 1.1//EN" "http://www.w3.org/Graphics/SVG/1.1/DTD/svg11.dtd" >
<svg xmlns="http://www.w3.org/2000/svg" xmlns:xlink="http://www.w3.org/1999/xlink" version="1.1" viewBox="0 -144 1024 1024">
  <g transform="matrix(1 0 0 -1 0 880)">
   <path fill="currentColor"
d="M880 92l-10 -9l-10 -8l-11 -6l-12 -6l-12 -4l-12 -3l-14 -2l-13 -1v33l-107 16v16h107h8l7 1l12 4l5 2l11 7l9 10l4 6l9 18l9 32l9 45l7 55l6 68l5 78l4 90l2 101l1 112l-1 70v43h-199l-5 -112l-13 -114l-20 -105l-5 -20l22 -21l31 -31l28 -32l25 -33l23 -34l3 -25
l-15 -19l-24 -3l-19 15l-18 32l-21 32l-23 32l-26 32l-1 2l-7 -25l-35 -88l-42 -80l-50 -70l-58 -62l-64 -51l-71 -41l-5 8l63 49l57 56l49 62l43 69l36 78l29 85l13 54l-48 46l-73 61l-39 31l4 8l46 -22l43 -24l40 -26l37 -27l15 95l9 110l2 108h-212v21h475l32 27l60 -48
l-27 -16v-97l-1 -113l-2 -102l-3 -91l-5 -80l-7 -70l-8 -59l-9 -49l-12 -39l-15 -31l-8 -11zM253 978l17 -11l-17 -9v-878l-64 -32v941zM51 519l-12 21l6 25l8 8l9 11l8 14l9 16l16 39l25 76l7 30l9 -1l1 -32l-1 -29l-1 -27l-3 -25l-3 -24l-5 -23l-5 -20l-6 -19l-7 -18
l-10 -16l-21 -11zM344 642l-5 15l-5 15l-6 16l-26 49l-10 18l-13 17l7 7l16 -14l18 -13l15 -13l28 -29l22 -30l10 -15l9 -17l7 -16l-3 -24l-19 -16l-24 3l-15 19l-3 13z" />
  </g>

</svg>
