<?xml version="1.0" standalone="no"?>
<!DOCTYPE svg PUBLIC "-//W3C//DTD SVG 1.1//EN" "http://www.w3.org/Graphics/SVG/1.1/DTD/svg11.dtd" >
<svg xmlns="http://www.w3.org/2000/svg" xmlns:xlink="http://www.w3.org/1999/xlink" version="1.1" viewBox="0 -144 1024 1024">
  <g transform="matrix(1 0 0 -1 0 880)">
   <path fill="currentColor"
d="M326 332l174 141v171l-16 -14l-25 2l-16 18l-6 22l-6 20l-7 19l-16 36l-20 34l-22 31l-13 14l6 8l18 -9l18 -11l16 -12l17 -14l15 -16l14 -18l13 -18l12 -21l12 -21l6 -14v309l64 -11l16 -11l-16 -9v-889l-64 -32v404l-63 -82l-44 -50l3 -22l-18 4zM320 483l-13 25l-8 12
l-9 12l-20 23l-18 18v-498l-64 -32v494l-23 -62l-20 -46l-21 -45l-24 -43l-25 -41l-28 -39l-9 5l54 132l30 92l13 47l12 49l11 48l9 51l5 35h-129v21h145v242l64 -10l16 -11l-16 -10v-211h14l54 54l64 -54v-21h-132v-128l18 -6l16 -7l31 -17l14 -10l14 -11l13 -11l12 -13
l11 -14l4 -24l-15 -20l-24 -4l-20 15zM760 112h76l7 1l4 1l5 2l1 1l1 1l1 1l1 4l1 5v302h-269v21h269v129l65 -11l16 -10l-16 -10v-98h4l24 32l32 -32v-21h-60v-296l-1 -13l-3 -14l-4 -13l-6 -12l-9 -11l-11 -9l-12 -7l-13 -4l-13 -2l-14 -1v32l-76 16v16zM720 282l-5 14
l-11 29l-19 42l-8 13l7 6l12 -10l13 -9l13 -11l23 -24l20 -28l19 -31l8 -16l-2 -25l-17 -16l-25 1l-17 19l-7 31zM651 647l-2 19l-4 36l-10 52l-4 18l-5 16l9 5l22 -29l10 -16l18 -33l8 -19l7 -19l6 -19l5 -20l5 -21l-6 -24l-22 -12l-23 6l-13 22v19zM960 839l14 -13l-18 -8
l-16 -65l-8 -27l-8 -26l-18 -48l-10 -22l-11 -21l-13 -20l-9 4l3 22l18 122l6 53l6 58l1 11zM764 686l-1 17l-2 33l-2 15l-1 15l-1 15l-1 15l-3 14l8 4l8 -13l9 -12l16 -28l13 -31l6 -17l11 -35l5 -18l-7 -24l-21 -12l-23 6l-13 21v18zM961 937l7 -9l1 -19l-19 8l-18 -11
l-35 -19l-37 -17l-36 -13l-37 -11l-38 -9l-38 -6l-38 -2l-38 1l-39 3v10l74 15l34 8l35 11l34 12l33 14l31 16l32 19l31 20l30 22z" />
  </g>

</svg>
