<?xml version="1.0" standalone="no"?>
<!DOCTYPE svg PUBLIC "-//W3C//DTD SVG 1.1//EN" "http://www.w3.org/Graphics/SVG/1.1/DTD/svg11.dtd" >
<svg xmlns="http://www.w3.org/2000/svg" xmlns:xlink="http://www.w3.org/1999/xlink" version="1.1" viewBox="0 -144 1024 1024">
  <g transform="matrix(1 0 0 -1 0 880)">
   <path fill="currentColor"
d="M878 114l-63 39l-28 21l-26 23l-44 48l-18 26l-16 26l-10 25v-242l-64 -32v230l-23 -25l-31 -28l-32 -26l-35 -25l-37 -23l-38 -22l-42 -20l-43 -17l-46 -16l-3 9l79 49l70 50l32 26l58 55l49 57h-189v22h231v102h-113v-16l-65 -33v275h-102v21h102v113l65 -11l16 -11
l-16 -9v-82h91v108l65 -11l16 -11l-16 -10v-76h107v108l65 -11l16 -11l-16 -10v-76h32l54 54l64 -54v-21h-150v-124l-65 -32v43h-107v-33l-65 -32v178h-91v-205h354l44 49l53 -49v-21h-274v-102h172l54 53l65 -53v-22h-275l56 -50l48 -36l26 -17l57 -30l97 -42l-62 -51z
M154 54l-22 11l-8 23l4 38v35l-3 31l-4 28l-8 25l-6 15h-3l1 3l-2 4l-12 20l-16 18l-18 17l-23 16l3 9l29 -7l27 -11l23 -17l7 -6l123 259l70 136l9 -4l-129 -352l-21 -64l-6 -22l-2 -14l-3 1l4 -11l11 -33l7 -36l3 -40v-43l-11 -21zM127 611l-7 11l-18 22l-25 22l-16 11
l-16 11l-19 10l3 9l21 -5l21 -5l20 -6l17 -6l17 -8l17 -9l14 -10l14 -11l12 -13l11 -13l2 -25l-16 -19l-24 -2l-19 15l-4 11zM652 672v-92h107v92h-107zM531 979l16 -11l-16 -9v-48h19l24 32l32 -32v-22h-75v-55l-65 -32v87h-150v22h150v79zM788 979l16 -11l-16 -9v-48h32
l54 54l64 -54v-22h-150v-55l-64 -32v87h-75v22h75v79zM198 858l-7 11l-18 22l-24 22l-29 23l-18 9l4 9l19 -6l20 -4l19 -5l17 -7l32 -17l14 -10l14 -11l12 -12l11 -13l3 -25l-15 -19l-24 -3l-20 14l-4 11z" />
  </g>

</svg>
