<?xml version="1.0" standalone="no"?>
<!DOCTYPE svg PUBLIC "-//W3C//DTD SVG 1.1//EN" "http://www.w3.org/Graphics/SVG/1.1/DTD/svg11.dtd" >
<svg xmlns="http://www.w3.org/2000/svg" xmlns:xlink="http://www.w3.org/1999/xlink" version="1.1" viewBox="0 -144 1024 1024">
  <g transform="matrix(1 0 0 -1 0 880)">
   <path fill="currentColor"
d="M882 955l40 -37l1 -17l-20 8l-82 -31l-43 -14l-42 -11v-203h149l44 48l54 -48v-21h-247v-199h112l32 27l59 -49l-26 -21v-280l-65 -32v64h-289v-64l-64 -32v419l64 -32h113v199h-247v21h247v187l-33 -7l-49 -8l-50 -7l-52 -5l-53 -3l-1 9l148 40l92 28l44 15l82 33l39 17
l37 19zM431 704v-22h-176v-610l-54 -27v637h-153v22h286l44 48zM148 586l15 -11l-15 -10v-151l-3 -45l-3 -41l-6 -38l-7 -35l-8 -32l-11 -28l-11 -25l-14 -21l-17 -17l-17 -12l-6 7l8 17l8 18l7 21l7 24l5 26l4 30l3 33l2 36v39l-1 43v182zM559 161h289v247h-289v-247z
M377 586l15 -11l-15 -9v-342l-59 -29v401zM382 897v-21h-290v21h172l54 54z" />
  </g>

</svg>
