<?xml version="1.0" standalone="no"?>
<!DOCTYPE svg PUBLIC "-//W3C//DTD SVG 1.1//EN" "http://www.w3.org/Graphics/SVG/1.1/DTD/svg11.dtd" >
<svg xmlns="http://www.w3.org/2000/svg" xmlns:xlink="http://www.w3.org/1999/xlink" version="1.1" viewBox="0 -144 1024 1024">
  <g transform="matrix(1 0 0 -1 0 880)">
   <path fill="currentColor"
d="M765 264h10l-10 -134l19 -13l13 -20l-13 -19l-19 -13h-382l-14 1l-13 2l-13 5l-13 6l-10 9l-9 10l-7 13l-4 13l-3 13v14v193l64 -11l17 -11l-17 -10v-168l2 -5l1 -4l1 -2h1l2 -1l3 -1l5 -1h356zM57 108l-3 24l15 20l15 8l14 10l13 12l12 14l11 17l9 19l8 22l7 26l6 27
l4 31h10l4 -31l3 -31l-1 -28l-4 -26l-6 -26l-9 -24l-12 -22l-14 -20l-18 -18l-20 -16l-24 -3zM889 182l-8 18l-10 18l-12 18l-13 18l-16 18l-37 37l-21 18l5 8l26 -11l26 -13l23 -14l21 -15l19 -17l18 -18l16 -18l14 -20l12 -22l11 -22l-3 -25l-18 -16l-25 3l-16 18l-5 19z
M556 252l-21 28l-25 28l-15 14l-32 26l-18 12l4 9l43 -13l20 -9l19 -9l19 -11l17 -12l17 -13l15 -14l15 -16l13 -16l4 -25l-14 -20l-24 -3l-20 14zM125 436h355v173h-420v21h420v160l64 -11l16 -11l-16 -9v-129h301l54 54l65 -54v-21h-420v-173h237l54 53l64 -53v-22h-774
v22zM734 991l16 -10l-16 -10v-77h122l54 53l64 -53v-22h-240v-83l-64 -32v115h-129v22h129v108zM349 991l16 -10l-16 -10v-77h30l44 48l54 -48v-22h-128v-83l-65 -32v115h-240v22h240v108z" />
  </g>

</svg>
