<?xml version="1.0" standalone="no"?>
<!DOCTYPE svg PUBLIC "-//W3C//DTD SVG 1.1//EN" "http://www.w3.org/Graphics/SVG/1.1/DTD/svg11.dtd" >
<svg xmlns="http://www.w3.org/2000/svg" xmlns:xlink="http://www.w3.org/1999/xlink" version="1.1" viewBox="0 -144 1024 1024">
  <g transform="matrix(1 0 0 -1 0 880)">
   <path fill="currentColor"
d="M331 353l-6 -12l-8 -10l-10 -10l-11 -7l-12 -6l-13 -4l-14 -2l-13 -1v32l-54 16v16h54l7 1l5 1l4 1l4 1l2 3l5 4l2 5l4 12l5 23l3 23v24l-3 24l-5 25l-8 26l-11 26l-14 27l-16 28l-20 29l1 2l-5 3l59 144l18 51l15 48v1h-145v-822l-65 -32v908l65 -32h149l32 27l60 -49
l-27 -16l-11 -4l-11 -25l-25 -49l-14 -26l-32 -51l-38 -52l-17 -20l26 -22l24 -24l21 -26l18 -27l14 -27l11 -28l7 -30l5 -30v-30l-3 -31l-3 -13zM452 795h158v199l64 -11l16 -10l-16 -10v-55h123l44 49l54 -49v-21h-221v-92h228l33 27l59 -48l-27 -16l-17 -7l-34 -49
l-20 -23l-10 -12l-9 -14l-9 5l6 15l3 15l11 44l4 13l3 14l4 13v2h-447v-339l-3 -51l-4 -48l-7 -46l-8 -42l-9 -39l-12 -37l-14 -33l-16 -30l-19 -26l-21 -22l-8 6l12 27l9 28l9 29l9 32l6 35l5 38l4 41l2 43l1 46l-1 49v392zM631 414h104l32 26l59 -48l-27 -21v-190l1 -5
l2 -4l2 -3l5 -1l5 -1l7 -1h100l32 135h11l-11 -135l19 -13l13 -19l-13 -19l-19 -13h-132l-14 1l-14 2l-13 4l-12 7l-11 9l-8 11l-7 12l-5 13l-2 13v14v204h-104v-59l-4 -40l-7 -38l-13 -36l-15 -31l-21 -29l-24 -26l-27 -21l-31 -18l-35 -14l-37 -9l-3 9l32 18l28 20l23 21
l21 22l16 24l13 25l10 28l6 29l3 32v147zM913 634h11l-11 -91l16 -11l11 -16l-11 -16l-16 -11h-239h-13l-13 2l-12 4l-12 6l-11 8l-9 9l-7 12l-5 13l-3 13l-1 13v56l-131 -17l-3 21l134 18v116l65 -11l16 -11l-16 -9v-76l79 10l46 61l71 -45l3 -21l-199 -27v-65l-1 -6l1 -5
v-4l1 -4l2 -2l2 -1l3 -2l6 -1l7 -1h212z" />
  </g>

</svg>
