<?xml version="1.0" standalone="no"?>
<!DOCTYPE svg PUBLIC "-//W3C//DTD SVG 1.1//EN" "http://www.w3.org/Graphics/SVG/1.1/DTD/svg11.dtd" >
<svg xmlns="http://www.w3.org/2000/svg" xmlns:xlink="http://www.w3.org/1999/xlink" version="1.1" viewBox="0 -144 1024 1024">
  <g transform="matrix(1 0 0 -1 0 880)">
   <path fill="currentColor"
d="M369 790l-20 32l-12 16l-29 32l-33 32l-3 2l-38 -72l-48 -78l-26 -36l-26 -34l-8 -10l58 -29h155l29 27l57 -49l-27 -19v-228l-59 -30v41h-155v-108h147l44 49l54 -49v-21h-245v-103h131l54 54l65 -54v-21h-250v-59l-65 -32v623l-12 -15l-28 -30l-30 -27l-8 6l85 140
l40 77l38 81l39 95l56 -32l11 -16l-20 -3l-11 -24l28 -11l21 -12l20 -12l37 -29l16 -15l14 -16l14 -18l12 -18l2 -25l-16 -18l-25 -2l-18 16zM956 289h10l-10 -135l19 -12l13 -20l-13 -19l-19 -13h-412l-13 1l-14 3l-13 4l-11 7l-11 9l-8 10l-7 13l-3 13l-3 12v14v474
l59 -29h337l32 26l60 -48l-27 -22v-231l-65 -32v65h-337v-203l1 -7l1 -5l1 -4l3 -2l2 -1l1 -1l4 -1l5 -1h385zM520 599v-199h140v199h-140zM724 599v-199h133v199h-133zM184 510v-102h155v102h-155zM184 623v-91h155v91h-155zM567 927h258l33 27l59 -49l-27 -21v-188
l-65 -32v32h-258l-64 -32v295zM567 905v-187h258v187h-258zM373 741v-21h-194v21h97l44 49z" />
  </g>

</svg>
