<?xml version="1.0" standalone="no"?>
<!DOCTYPE svg PUBLIC "-//W3C//DTD SVG 1.1//EN" "http://www.w3.org/Graphics/SVG/1.1/DTD/svg11.dtd" >
<svg xmlns="http://www.w3.org/2000/svg" xmlns:xlink="http://www.w3.org/1999/xlink" version="1.1" viewBox="0 -144 1024 1024">
  <g transform="matrix(1 0 0 -1 0 880)">
   <path fill="currentColor"
d="M632 76l-14 2l-12 4l-13 7l-11 9l-9 11l-6 12l-4 13l-3 13l-1 14v222l65 -10l16 -11l-16 -10v-191v-7l1 -4l1 -4l1 -1l2 -2l2 -1l3 -1l5 -1h176l32 134h11l-11 -134l20 -13l13 -19l-13 -20l-20 -13h-202zM352 783l-9 17l-22 33l-27 34l-31 34l-12 -27l-43 -81l-23 -38
l-25 -37l-18 -24l44 -22h37v134l65 -11l16 -11l-16 -9v-103h33l32 26l59 -48l-27 -21v-232l-64 -32v32h-135v-197l87 33l45 16l-14 27l-10 19l-24 35l-13 17l6 8l38 -25l34 -30l29 -36l13 -19l23 -42l10 -22l-2 -24l-19 -17l-24 3l-16 18l-6 21l-6 19l-7 20l-5 12l-69 -44
l-108 -60l-49 -24h-2l-5 -21l-15 11l-33 57l10 3l67 22v491l-14 -17l-30 -30l-31 -28l-7 7l45 68l42 72l38 76l34 81l32 94l58 -29l12 -15l-19 -4l-10 -25l-1 -2l24 -12l21 -13l38 -28l17 -16l15 -16l15 -18l13 -18l11 -20l1 -24l-17 -19h-24l-18 16l-7 18zM420 142l-8 23
l11 22l9 6l8 9l9 10l8 14l8 16l6 19l6 21l4 23l5 27l2 28l9 1l5 -29l4 -27l2 -26v-24l-2 -23l-4 -22l-6 -20l-8 -19l-10 -17l-13 -16l-23 -7zM914 219l-5 17l-5 16l-5 16l-7 17l-18 33l-10 17l-13 16l7 7l34 -25l15 -13l15 -15l13 -15l11 -17l11 -18l18 -37l6 -20l-5 -24
l-19 -14l-25 5l-14 21l-2 16zM713 340l-6 12l-14 24l-16 24l-10 11l-10 11l-12 10l5 8l15 -6l15 -5l15 -7l14 -8l26 -20l12 -12l23 -25l10 -15l1 -25l-16 -18l-25 -2l-18 17l-5 13zM186 526v-107h135v107h-135zM822 967l2 5h1l3 6l54 -34l10 -18l-23 -1l-17 -24l-23 -28
l-27 -29l-30 -29l-1 -2h58l54 54l64 -54v-22h-209v-144h48l54 54l64 -54v-22h-166v-138h123l54 53l65 -53v-22h-549v22h242v138h-177v22h177v144h-220v22h301l6 11l17 37l9 17l15 33l19 47l3 9h-1zM186 548h135v102h-135v-102zM597 858l-4 12l-4 12l-6 13l-15 25l-20 28
l-13 13l5 8l17 -10l16 -8l15 -10l27 -22l12 -11l11 -13l18 -27l7 -15l-4 -24l-20 -15l-24 3l-15 19l-1 11z" />
  </g>

</svg>
