<?xml version="1.0" standalone="no"?>
<!DOCTYPE svg PUBLIC "-//W3C//DTD SVG 1.1//EN" "http://www.w3.org/Graphics/SVG/1.1/DTD/svg11.dtd" >
<svg xmlns="http://www.w3.org/2000/svg" xmlns:xlink="http://www.w3.org/1999/xlink" version="1.1" viewBox="0 -144 1024 1024">
  <g transform="matrix(1 0 0 -1 0 880)">
   <path fill="currentColor"
d="M178 459h258l32 27l59 -49l-27 -21v-311l-64 -32v54h-258v-38l-65 -32v434zM949 285h11l-11 -134l19 -13l13 -20l-13 -19l-19 -13h-262l-14 1l-14 2l-13 5l-11 6l-11 9l-9 11l-7 12l-4 13l-3 14v13v783l64 -11l16 -11l-16 -9v-752l1 -6v-5l1 -3l1 -2l1 -1l1 -1l2 -1l3 -1
l5 -1h7h230zM178 437v-289h258v289h-258zM487 624l-8 20l-79 -21l-139 -32l-119 -24l-48 -8l-9 -19l-12 14l-20 63l11 1l34 3l36 3l12 2l45 132l34 110l19 70l8 33l2 9l60 -27l13 -14l-20 -5l-31 -83l-31 -72l-54 -110l-21 -37l-3 -4l132 13l46 6l101 10l27 1l-9 23l-28 55
l-32 53l-36 53l7 7l27 -20l24 -22l44 -48l38 -54l16 -29l16 -30l14 -30l12 -32l-2 -24l-19 -16l-24 2l-17 19l-8 30z" />
  </g>

</svg>
