<?xml version="1.0" standalone="no"?>
<!DOCTYPE svg PUBLIC "-//W3C//DTD SVG 1.1//EN" "http://www.w3.org/Graphics/SVG/1.1/DTD/svg11.dtd" >
<svg xmlns="http://www.w3.org/2000/svg" xmlns:xlink="http://www.w3.org/1999/xlink" version="1.1" viewBox="0 -144 1024 1024">
  <g transform="matrix(1 0 0 -1 0 880)">
   <path fill="currentColor"
d="M375 961l11 -16l-20 -3l-45 -99l-29 -57l-62 -110l-6 -10l33 -5l16 -11l-16 -10v-565l-64 -32v573l-30 -45l-36 -50l-39 -48l-39 -46l-8 6l91 157l58 108l53 112l49 116l26 67zM516 107h86l7 1l5 1l3 1h2l1 1l1 1l1 2l1 3v5l1 7v639h-145l-23 -45l-25 -46l-27 -43
l-30 -42l-31 -40l-34 -39l-8 6l49 88l45 90l20 45l18 46l17 48l15 47l13 49l11 44h-1l4 14l60 -25l13 -14l-19 -6l-26 -80l-20 -49l-12 -26h403l3 2v1l29 24l59 -49l-26 -16l-17 -7l-59 -90l-29 -39l-15 -22l-8 5l8 24l15 47l22 60l6 17l6 17l1 4h-198v-639v-14l-3 -13
l-4 -13l-7 -13l-9 -10l-11 -9l-11 -7l-14 -4l-13 -2l-14 -1v32l-86 16v16zM537 535l13 -14l-19 -6l-23 -65l-16 -42l-18 -41l-41 -78l-23 -37l-24 -36l-26 -35l-28 -34l-8 6l56 115l33 79l15 40l13 39l12 41l12 42l9 42l3 9zM873 275l-22 69l-28 69l-65 139l8 5l27 -29
l24 -32l22 -31l40 -67l17 -34l32 -69l14 -36l12 -36l-3 -25l-20 -15l-24 4l-15 18l-9 35z" />
  </g>

</svg>
