<?xml version="1.0" standalone="no"?>
<!DOCTYPE svg PUBLIC "-//W3C//DTD SVG 1.1//EN" "http://www.w3.org/Graphics/SVG/1.1/DTD/svg11.dtd" >
<svg xmlns="http://www.w3.org/2000/svg" xmlns:xlink="http://www.w3.org/1999/xlink" version="1.1" viewBox="0 -144 1024 1024">
  <g transform="matrix(1 0 0 -1 0 880)">
   <path fill="currentColor"
d="M357 962l11 -16l-19 -4l-44 -98l-57 -113l-31 -55l-6 -10l33 -5l16 -11l-16 -10v-565l-65 -32v571l-62 -93l-37 -48l-39 -46l-8 6l88 156l56 108l51 112l47 116l25 67zM725 897l8 11l2 -2l23 18l59 -48l-27 -16l-27 -11l-61 -52l-30 -22l-12 -7h199l33 27l59 -48l-27 -22
v-129l-65 -32v32h-159l46 -108l42 -83l129 124h-1l5 4l40 -51l2 -19l-20 7l-89 -53l-39 -20l-18 -8l26 -45l28 -40l28 -36l28 -32l30 -28l44 -36l-58 -44l-33 31l-30 35l-29 38l-27 42l-24 45l-23 49l-21 53l-19 56l-16 60l-13 59h-5l-32 -38l-29 -28l-32 -28l-3 -2l31 -33
l35 -42l29 -42l24 -40l17 -41l12 -40l5 -38v-39l-8 -37l-14 -36l-7 -11l-8 -11l-9 -10l-10 -8l-11 -7l-12 -6l-11 -5l-13 -3l-14 -2l-13 -1v32l-86 16v16h86l7 1l7 1l12 3l4 3l5 3l5 4l4 4l4 6l16 31l8 26l5 29l-1 31v1l-50 -26l-39 -19l-85 -35l-92 -31l-50 -14l-52 -12
l-54 -10l-3 9l191 80l83 40l73 42l62 41l-19 46l-7 14l-49 -32l-33 -18l-35 -18l-38 -16l-38 -15l-41 -13l-42 -13l-45 -10l-46 -8l-3 9l123 55l73 37l33 19l61 40l28 20l21 19l-36 57l-21 -15l-37 -24l-40 -22l-43 -20l-45 -17l-49 -16l-51 -13l-4 9l92 46l42 23l38 24
l35 24l32 25l30 26l25 27l23 26h-149v-37l-64 -33v222l-36 -24l-34 -19l-36 -16l-5 8l58 50l27 26l25 27h1l23 27l44 60l37 66l17 35l3 6l55 -35l10 -16l-21 -2l-27 -44h193zM455 747v-129h170v129h-170zM689 747v-129h170v129h-170zM517 876l-16 -21l-26 -30l-28 -29
l-17 -15l25 -13h184l6 8l30 46l37 54h-195z" />
  </g>

</svg>
