<?xml version="1.0" standalone="no"?>
<!DOCTYPE svg PUBLIC "-//W3C//DTD SVG 1.1//EN" "http://www.w3.org/Graphics/SVG/1.1/DTD/svg11.dtd" >
<svg xmlns="http://www.w3.org/2000/svg" xmlns:xlink="http://www.w3.org/1999/xlink" version="1.1" viewBox="0 -144 1024 1024">
  <g transform="matrix(1 0 0 -1 0 880)">
   <path fill="currentColor"
d="M841 136l-31 22l-29 25l-28 27l-25 30l-24 33l-22 34l-17 33v-274l-64 -33v281l-13 -18l-28 -36l-30 -34l-33 -29l-34 -27l-36 -23l-38 -19l-40 -16l-41 -10l-4 8l37 21l34 22l32 23l31 26l28 28l27 30l24 33l23 35l21 38l8 15h-244v22h276v158l64 -11l16 -11l-16 -9
v-127h157l54 54l64 -54v-22h-275v-4l69 -80l27 -26l27 -24l28 -22l28 -18l29 -17l30 -14l66 -26l-61 -52l-34 18zM348 962l11 -16l-19 -3l-43 -99l-54 -113l-36 -65l32 -5l17 -11l-17 -10v-565l-64 -32v568l-24 -39l-34 -50l-36 -49l-37 -46l-8 6l84 156l53 108l49 112
l44 116l24 67zM581 661l-23 39l-19 24l-44 48l-4 2l-6 -15l-20 -32l-22 -27l-26 -23l-28 -18l-14 -6l2 -14l2 -22h514l32 27l59 -49l-27 -16l-16 -7l-28 -42l-35 -44l-13 -17l-13 -17l-8 5l8 19l6 20l12 36l6 17l9 31l4 14v1h-509l1 -15v-27l-2 -24l-3 -24l-5 -20l-7 -19
l-9 -18l-11 -16l-23 -8l-23 10l-8 23l10 23l7 4l8 9l7 11l8 15l7 18l6 22l6 23l10 57l1 8l-2 -1l-5 9l9 7l1 10h9l26 26l18 24l14 26l13 29l9 32l8 35l4 38l2 42l-1 39v18l65 -12l16 -10l-17 -11l-2 -28l-5 -45l-9 -43l-13 -38l-3 -8l38 -14l31 -17l28 -20l14 -11l13 -12
l12 -13l6 -24l-13 -21l-24 -6zM866 661l-24 39l-9 12l-19 24l-35 36l-3 2l-7 -15l-19 -32l-22 -27l-26 -23l-29 -18l-31 -13l-4 9l23 21l21 22l18 24l15 26l12 29l10 32l7 35l5 38l2 42l-1 39v18l64 -12l16 -10l-17 -11l-2 -28l-5 -45l-9 -43l-12 -38l-4 -8l39 -14l30 -17
l29 -20l14 -11l13 -12l12 -13l5 -24l-12 -21l-24 -6zM375 783l-15 20l4 24l7 6l10 13l10 15l8 18l3 9l2 10v12l9 1l3 -11l5 -11l4 -11l2 -12l2 -12v-11l-1 -13l-1 -12l-4 -13l-4 -12l-20 -14zM659 783l-14 20l4 24l6 6l11 13l9 15l8 18l3 9l3 10l-1 12l9 1l4 -11l5 -11
l3 -11l3 -12l1 -12l1 -11l-1 -13l-2 -12l-3 -13l-5 -12l-20 -14zM569 931l5 12l56 -33l10 -16l-23 -3l-11 -13l-19 -20l-21 -18l-11 -9l-12 -8l-11 -9l-7 6l8 11l17 38l9 23l4 11l6 22l1 6h-1zM853 931l6 12l56 -33l10 -16l-24 -3l-11 -13l-18 -20l-21 -18l-12 -9l-12 -8
l-11 -9l-7 6l9 11l5 13l6 13l14 35l4 11l6 22l1 6h-1z" />
  </g>

</svg>
