<?xml version="1.0" standalone="no"?>
<!DOCTYPE svg PUBLIC "-//W3C//DTD SVG 1.1//EN" "http://www.w3.org/Graphics/SVG/1.1/DTD/svg11.dtd" >
<svg xmlns="http://www.w3.org/2000/svg" xmlns:xlink="http://www.w3.org/1999/xlink" version="1.1" viewBox="0 -144 1024 1024">
  <g transform="matrix(1 0 0 -1 0 880)">
   <path fill="currentColor"
d="M202 334h254l32 27l59 -49l-27 -21v-195l-64 -32v53h-254v-37l-64 -33v319zM742 112h107l7 1l5 1l5 2l1 1v1l1 1l2 4l1 5v855l64 -10l16 -11l-16 -10v-818v-13l-3 -14l-4 -13l-7 -12l-8 -11l-11 -9l-13 -7l-13 -4l-13 -2l-14 -1v32l-107 16v16zM202 312v-173h254v173
h-254zM727 892l16 -11l-16 -9v-614l-64 -33v678zM50 676l-9 23l9 23l6 3l5 7l7 10l7 13l6 17l6 18l5 22l5 25l5 27l2 29h10l3 -29l3 -19h177v147l64 -11l17 -11l-17 -9v-116h178l32 27l59 -49l-27 -16l-16 -7l-42 -62l-23 -28l-1 -3l17 -14l1 -17l-22 11l-15 -5l-33 -7
l-34 -7l-36 -7l-36 -5h-2v-92h63l54 54l64 -54v-21h-181v-103h151l44 49l54 -49v-21h-249v-43l-64 -32v75h-249v21h249v103h-181v21h181v85l-11 -1l-40 -3l-41 -1h-42l-43 1l-2 10l162 33l17 4v98l64 -11l17 -11l-17 -9v-51l60 16l63 20l2 -8l24 -20l4 18l9 33l4 15l4 14
l3 14l3 13h-415l1 -13v-24v-22l-2 -21l-4 -19l-5 -17l-7 -16l-9 -15l-23 -9z" />
  </g>

</svg>
