<?xml version="1.0" standalone="no"?>
<!DOCTYPE svg PUBLIC "-//W3C//DTD SVG 1.1//EN" "http://www.w3.org/Graphics/SVG/1.1/DTD/svg11.dtd" >
<svg xmlns="http://www.w3.org/2000/svg" xmlns:xlink="http://www.w3.org/1999/xlink" version="1.1" viewBox="0 -144 1024 1024">
  <g transform="matrix(1 0 0 -1 0 880)">
   <path fill="currentColor"
d="M230 336h257l32 26l59 -48l-27 -21v-210l-64 -32v54h-257v-38l-64 -32v333zM753 112h108l6 1l5 1l5 2l2 2l1 1l1 4l1 5v6v849l65 -10l16 -11l-16 -10v-818l-1 -13l-2 -14l-5 -13l-6 -12l-9 -11l-11 -9l-12 -7l-13 -4l-14 -2l-13 -1v32l-108 16v16zM230 314v-188h257v188
h-257zM755 892l16 -11l-16 -9v-614l-65 -33v678zM499 737l-3 13l-4 13l-12 26l-6 14l-17 27l-7 9h-13l-19 -34l-15 -22l-16 -20l-19 -19l-8 -8l39 -24l9 -17l-20 -1l-17 -31l13 -4l30 -11l29 -13l29 -15l53 -33l50 -38l47 -42l8 -24l-10 -22l-24 -8l-22 10l-18 23l-40 42
l-44 39l-72 56l-37 26l-21 -34l-32 -44l-32 -42l-35 -39l-36 -35l-37 -33l-40 -29l-42 -26l-43 -22l-5 8l37 30l35 32l34 33l32 35l31 38l29 39l28 41l26 44l25 46l26 55l4 -2l16 34l19 45l8 23l7 24l6 24l6 25l4 26l3 20l2 16l62 -21l14 -14l-19 -7l-11 -35l-10 -26l-7 -17
h105l44 48l54 -48v-22h-181l13 -7l13 -10l13 -12l12 -12l11 -12l11 -14l17 -29l7 -16l-3 -25l-20 -15l-25 3l-15 20l-1 13zM517 462v-22h-297v22h179l53 54zM226 737l-3 13l-5 13l-11 26l-14 27l-9 14l-8 9h-5l-7 -17l-15 -32l-16 -31l-17 -29l-20 -28l-21 -27l-23 -24l-8 6
l28 59l24 60l11 31l9 31l9 32l13 67l7 44l62 -21l14 -14l-19 -7l-4 -15l-10 -35l-9 -28h96l44 48l54 -48v-22h-177l13 -7l13 -10l13 -12l12 -12l11 -12l10 -14l18 -29l7 -16l-4 -25l-19 -15l-25 3l-15 20l-1 13z" />
  </g>

</svg>
