<?xml version="1.0" standalone="no"?>
<!DOCTYPE svg PUBLIC "-//W3C//DTD SVG 1.1//EN" "http://www.w3.org/Graphics/SVG/1.1/DTD/svg11.dtd" >
<svg xmlns="http://www.w3.org/2000/svg" xmlns:xlink="http://www.w3.org/1999/xlink" version="1.1" viewBox="0 -144 1024 1024">
  <g transform="matrix(1 0 0 -1 0 880)">
   <path fill="currentColor"
d="M194 920h673l54 54l64 -54v-22h-791v-326l-3 -76l-5 -70l-8 -66l-11 -60l-13 -56l-16 -51l-18 -46l-21 -40l-25 -34l-26 -28l-8 6l18 33l15 36l14 40l13 44l10 49l8 55l6 58l4 64l2 68l-1 74v380zM953 285h11l-11 -135l19 -13l13 -19l-13 -20l-19 -12h-113l-14 1l-13 2
l-13 4l-13 7l-11 9l-8 10l-7 13l-4 13l-3 13v14v179l-10 -25l-38 -68l-43 -62l-49 -54l-55 -48l-60 -39l-6 8l52 47l47 51l42 56l37 61l31 67l26 73l19 71h-181v21h43v248h-43v21h258l54 54l64 -54v-21h-98l-8 -91l-14 -95l-15 -62h44l53 54l65 -54v-21h-167l-1 -5l-5 -18
l22 -4l17 -11l-17 -10v-276l2 -5l1 -5l2 -2l5 -1l5 -1l7 -1h81zM526 279h-202v-87v-5l1 -3l1 -2l1 -2l1 -1l2 -1l3 -2l5 -1l7 -1h154zM365 859l6 11l54 -34l10 -18l-25 -1l-16 -18l-9 -9l-18 -16l-10 -8l-4 -3h116l32 27l59 -49l-26 -21v-280l-65 -32v65h-145l-65 -33v355
l65 -32h11l2 3l4 11l11 34l4 11l3 11l3 11l3 10l1 5h-1zM324 618v-124h145v124h-145zM673 758v-248h79l13 72l10 91l5 85h-107zM324 741v-102h145v102h-145zM558 145l-12 -18l-18 -12h-183l-14 1l-13 2l-12 4l-12 6l-11 9l-9 10l-7 12l-4 13l-3 13l-1 13v216l65 -11l16 -11
l-16 -10v-81h133l44 48l54 -48v-22h-17l-10 -105l18 -12z" />
  </g>

</svg>
