<?xml version="1.0" standalone="no"?>
<!DOCTYPE svg PUBLIC "-//W3C//DTD SVG 1.1//EN" "http://www.w3.org/Graphics/SVG/1.1/DTD/svg11.dtd" >
<svg xmlns="http://www.w3.org/2000/svg" xmlns:xlink="http://www.w3.org/1999/xlink" version="1.1" viewBox="0 -144 1024 1024">
  <g transform="matrix(1 0 0 -1 0 880)">
   <path fill="currentColor"
d="M807 132l-55 62l-23 36l-18 -18l-51 -42l-56 -38l-58 -34l-62 -29l-67 -25l-4 9l61 34l57 36l54 38l49 41l46 43l24 26l-37 83l-31 99l-23 112l-4 31h-565v22h215v177h-188v22h188v172l65 -11l16 -11l-16 -9v-141h86l54 53l64 -53v-22h-204v-177h282l-9 70l-9 136l-1 149
v13l64 -13l16 -12l-16 -9l2 -125l8 -133l10 -76h196l54 54l64 -54v-22h-311l3 -21l22 -106l29 -93l22 -49l44 64l30 55l26 55l4 8l56 -33l10 -16l-20 -3l-22 -41l-36 -56l-40 -53l-26 -30l28 -45l47 -52l53 -41l22 -10l27 118h11l-11 -131l11 -5l17 -17l2 -25l-17 -17
l-24 -2l-71 34zM170 476h238l32 27l59 -49l-27 -21v-248l-64 -32v43h-238v-65l-65 -32v409zM170 454v-237h238v237h-238zM842 765l-8 14l-21 31l-28 34l-36 38l-20 19l5 8l49 -27l42 -27l35 -29l16 -15l13 -15l12 -16l10 -16v-25l-16 -17h-25l-18 16l-4 13z" />
  </g>

</svg>
