<?xml version="1.0" standalone="no"?>
<!DOCTYPE svg PUBLIC "-//W3C//DTD SVG 1.1//EN" "http://www.w3.org/Graphics/SVG/1.1/DTD/svg11.dtd" >
<svg xmlns="http://www.w3.org/2000/svg" xmlns:xlink="http://www.w3.org/1999/xlink" version="1.1" viewBox="0 -144 1024 1024">
  <g transform="matrix(1 0 0 -1 0 880)">
   <path fill="currentColor"
d="M849 75l-36 19l-34 23l-30 27l-26 30l-23 33l-19 37l-16 39l-10 43l3 2h-15l-20 -54l-29 -53l-35 -48l-40 -41l-45 -32l-50 -26l-54 -17l-59 -10l-2 9l54 20l48 24l43 29l37 33l32 39l27 44l23 51l10 32h-273v21h280l14 65l10 68l1 12l63 -19l15 -12l-19 -8l-9 -53
l-15 -53h210l54 54l64 -54v-21h-313l21 -35l22 -34l23 -29l25 -26l26 -23l28 -19l30 -16l32 -12l34 -10l88 -15l-64 -61l-42 11zM116 834h113l32 27l60 -48l-27 -22v-454l-65 -32v32h-113v-64l-64 -33v627zM116 813v-454h113v454h-113zM439 586l23 4v108h-121v22h121v124
h-133v21h133v113l65 -11l16 -10l-16 -10v-82h11l54 54l65 -54v-21h-130v-124h12l44 48l54 -48v-22h-110v-95l50 8l40 6l42 6l2 -9l-77 -31l-57 -19v-97l-65 -32v106l-90 -31l-7 -20l-15 12l-27 60zM911 529l-8 -11l-9 -9l-11 -8l-11 -6l-12 -5l-13 -4l-14 -2l-13 -1v33
l-75 16v16h75h7l6 2l6 1l5 2l4 2l4 3l4 4l7 10l3 6l4 12l4 18l5 21l3 26l4 31l2 34l4 81l1 46v40h-75l-3 -47l-8 -53l-10 -50l-12 -46l-15 -43l-18 -39l-21 -35l-23 -30l-27 -27l-29 -21l-7 7l21 28l18 29l16 32l15 34l12 37l10 41l8 43l5 47l3 51l1 42h-78v21h217l32 27
l59 -48l-27 -17v-24l-1 -47l-2 -44l-2 -39l-2 -36l-4 -33l-4 -28l-5 -25l-5 -22l-7 -20l-6 -12z" />
  </g>

</svg>
