<?xml version="1.0" standalone="no"?>
<!DOCTYPE svg PUBLIC "-//W3C//DTD SVG 1.1//EN" "http://www.w3.org/Graphics/SVG/1.1/DTD/svg11.dtd" >
<svg xmlns="http://www.w3.org/2000/svg" xmlns:xlink="http://www.w3.org/1999/xlink" version="1.1" viewBox="0 -144 1024 1024">
  <g transform="matrix(1 0 0 -1 0 880)">
   <path fill="currentColor"
d="M296 118h320v118h-248v22h248v107h-144v-16l-65 -32v333l65 -32h341l32 27l59 -49l-26 -21v-221l-65 -32v43h-132v-107h112l53 53l65 -53v-22h-230v-118h183l54 54l64 -54v-22h-686v22zM123 834h123l33 27l59 -48l-27 -22v-486l-65 -32v64h-123v-64l-65 -33v627zM123 813
v-454h123v454h-123zM472 483v-96h144v96h-144zM681 483v-96h132v96h-132zM472 596v-91h144v91h-144zM681 596v-91h132v91h-132zM824 809l10 -17l-25 -2l-44 -45l-28 -26l-16 -14l-2 -1h160l44 48l53 -48v-22h-632v22h359l7 11l35 66l6 13l10 24l3 11l1 3h-1l5 11zM508 745
l-2 10l-4 10l-4 11l-17 33l-7 13l-9 9l6 8l11 -8l13 -7l13 -7l22 -17l19 -20l16 -22l7 -12l-1 -24l-19 -17l-24 2l-17 18l-1 10zM368 865h242v124l65 -11l16 -11l-16 -9v-93h135l54 54l65 -54v-21h-561v21z" />
  </g>

</svg>
