<?xml version="1.0" standalone="no"?>
<!DOCTYPE svg PUBLIC "-//W3C//DTD SVG 1.1//EN" "http://www.w3.org/Graphics/SVG/1.1/DTD/svg11.dtd" >
<svg xmlns="http://www.w3.org/2000/svg" xmlns:xlink="http://www.w3.org/1999/xlink" version="1.1" viewBox="0 -144 1024 1024">
  <g transform="matrix(1 0 0 -1 0 880)">
   <path fill="currentColor"
d="M50 132h430v156h-360v22h360v123l64 -10l16 -11l-16 -10v-92h242l54 54l64 -54v-22h-360v-156h312l54 54l64 -54v-21h-924v21zM727 467h108l6 1l5 1l5 2l2 2l1 5l2 4v7v462l65 -11l16 -10l-16 -10v-431l-1 -14l-3 -13l-4 -13l-7 -12l-9 -11l-10 -9l-13 -7l-13 -4l-13 -2
l-13 -1v32l-108 16v16zM243 665l-4 -33l-8 -31l-9 -30l-13 -29l-16 -26l-19 -25l-21 -23l-24 -20l-26 -18l-29 -15l-6 8l22 23l37 45l14 24l12 23l10 24l7 25l5 26l3 27l1 28v25h-108v22h108v177h-97v21h149l44 49l54 -49v-21h-86v-177h8l24 32l33 -32v-22h-65v-27v-1z
M598 913v-21h-102v-177h31l44 48l54 -48v-22h-129v-236l-65 -33v269h-96v22h96v177h-80v21h149l44 49zM722 881l16 -11l-16 -9v-308l-65 -32v371z" />
  </g>

</svg>
