<?xml version="1.0" standalone="no"?>
<!DOCTYPE svg PUBLIC "-//W3C//DTD SVG 1.1//EN" "http://www.w3.org/Graphics/SVG/1.1/DTD/svg11.dtd" >
<svg xmlns="http://www.w3.org/2000/svg" xmlns:xlink="http://www.w3.org/1999/xlink" version="1.1" viewBox="0 -144 1024 1024">
  <g transform="matrix(1 0 0 -1 0 880)">
   <path fill="currentColor"
d="M864 162l-29 26l-28 28l-26 31l-24 33l-23 36l-20 38l-19 41l-6 17v-343l-64 -32v330l-15 -24l-30 -42l-31 -40l-33 -37l-35 -35l-38 -32l-39 -30l-42 -27l-44 -24l-5 9l73 64l34 34l31 35l30 36l29 38l26 39l24 42l23 42l9 20h-234v22h267v107l64 -11l17 -10l-17 -10
v-76h161l54 53l64 -53v-22h-274l46 -64l26 -33l26 -30l26 -28l55 -47l29 -19l29 -18l58 -29l-61 -48l-33 20zM36 244l98 31l54 18v379h-136v21h136v274l64 -10l16 -11l-16 -10v-243h28l54 54l64 -54v-21h-146v-355l149 53l4 -9l-77 -47l-108 -58l-125 -58l-7 -3l-5 -21
l-16 12zM886 567l-21 -16l-11 -6l-11 -6l-12 -5l-12 -3l-13 -2l-12 -2l-13 -1v33l-54 16v16h54h8l15 3l7 2l6 2l13 7l6 4l12 11l1 2l2 4l4 10l4 11l4 15l8 39l3 23l4 26l2 13h-77l-10 -44l-71 -15l52 204h-153l-7 -54l-12 -59l-16 -55l-19 -50l-24 -46l-27 -41l-30 -37
l-34 -31l-38 -25l-41 -20l-5 8l34 28l30 31l27 32l23 36l21 40l17 43l15 47l10 52l8 55l4 46h-132v22h353l32 27l59 -49l-27 -16l-10 -4l-24 -104h73l33 27l59 -48l-27 -16l-3 -1l-9 -57l-4 -22l-5 -20l-4 -17l-5 -16l-6 -14l-7 -13l-8 -11z" />
  </g>

</svg>
