<?xml version="1.0" standalone="no"?>
<!DOCTYPE svg PUBLIC "-//W3C//DTD SVG 1.1//EN" "http://www.w3.org/Graphics/SVG/1.1/DTD/svg11.dtd" >
<svg xmlns="http://www.w3.org/2000/svg" xmlns:xlink="http://www.w3.org/1999/xlink" version="1.1" viewBox="0 -144 1024 1024">
  <g transform="matrix(1 0 0 -1 0 880)">
   <path fill="currentColor"
d="M472 806h175v183l64 -11l17 -11l-17 -9v-152h135l54 54l64 -54v-22h-492v-182h101v129l64 -11l16 -11l-16 -9v-98h146v129l65 -11l16 -11l-16 -9v-98h15l53 53l65 -53v-22h-133v-231l-65 -32v54h-146v-38l-64 -32v279h-101v-75l-4 -62l-6 -59l-10 -55l-14 -52l-17 -48
l-20 -44l-24 -41l-28 -36l-31 -32l-35 -26l-6 7l26 33l23 35l20 37l18 40l14 42l12 46l9 48l5 52l3 56v392zM899 110l-3 15l-4 15l-12 32l-16 34l-9 18l-12 17l8 6l46 -41l26 -30l21 -31l8 -17l8 -17l6 -17l-5 -24l-21 -14l-24 5l-13 20l-2 15zM439 62l-6 24l12 21l7 4l8 6
l7 8l8 10l8 13l7 16l6 17l7 20l6 22l4 24h9l1 -25l2 -24l1 -22l-1 -21l-3 -19l-4 -19l-5 -17l-8 -16l-10 -15l-11 -13l-24 -6zM751 121v13l-2 13l-3 14l-3 15l-11 30l-5 16l-10 15l8 6l26 -25l12 -13l11 -13l9 -14l9 -15l8 -16l6 -15l5 -16l4 -17l-8 -24l-22 -10l-24 8
l-10 21v13v14zM635 65l-21 10l-8 24l2 12l2 13l1 14l1 13l-1 28l-4 28l-4 15l-6 15l9 5l9 -13l11 -13l18 -27l7 -15l6 -15l4 -15l4 -16l3 -17l2 -17l-11 -21zM180 305v359h-123v21h123v260l64 -11l16 -10l-16 -10v-229h14l53 54l65 -54v-21h-132v-335l134 49l5 -9l-72 -45
l-98 -56l-88 -43l-32 -14l-5 -21l-15 12l-32 57zM637 580v-188h146v188h-146z" />
  </g>

</svg>
