<?xml version="1.0" standalone="no"?>
<!DOCTYPE svg PUBLIC "-//W3C//DTD SVG 1.1//EN" "http://www.w3.org/Graphics/SVG/1.1/DTD/svg11.dtd" >
<svg xmlns="http://www.w3.org/2000/svg" xmlns:xlink="http://www.w3.org/1999/xlink" version="1.1" viewBox="0 -144 1024 1024">
  <g transform="matrix(1 0 0 -1 0 880)">
   <path fill="currentColor"
d="M430 445l38 68l22 47l9 23l9 25l7 26l7 26l1 8h-87v-99l-3 -75zM391 103h101v211l64 -11l16 -11l-16 -10v-179h113v304l59 -11l15 -11l-15 -9v-106h109l44 48l54 -48v-22h-207v-145h133l54 54l65 -54v-21h-589v21zM42 258l57 20l65 26v360h-105v21h105v260l64 -11l16 -10
l-16 -10v-229h14l44 48l54 -48v-21h-112v-333l114 47l4 -9l-61 -45l-86 -55l-53 -30l-49 -26l-4 -21l-16 10zM892 468l-14 23l-13 24l-12 24l-9 25l-6 17v-203l-59 -30v201l-18 -27l-21 -26l-22 -24l-25 -23l-27 -20l-29 -18l-6 7l42 51l18 25l17 26l14 26l13 27l11 27l9 27
l8 30l2 11h-61v22h75v85l-18 -3l-26 -3l-57 -5l-2 9l100 41l44 17l70 30h-1h1l5 2l3 -9l48 -42l1 -16l-21 10l-10 -4l-40 -9l-38 -8v-95h29l44 48l54 -48v-22h-127v-3l33 -61l12 -22l28 -39l31 -35l16 -16l17 -14l8 -9l-58 -43l-17 21zM636 553l-4 7l-4 7l-13 14l-8 8l-6 5
v-215l-65 -33v202l-6 -10l-33 -45l-18 -20l-21 -19l-22 -17l-6 6l-1 -20l-6 -65l-8 -61l-10 -56l-12 -51l-13 -46l-16 -40l-19 -35l-21 -29l-8 5l11 33l10 36l8 39l8 45l7 50l5 54l4 60l2 64l1 69l-1 74v382l65 -32h429l53 54l65 -54v-22h-547v-207h100v82l-34 -4l-62 -4
l-1 9l108 39l42 17l34 15l14 8l11 7l6 -13l40 -37l1 -18l-20 9l-32 -10l-19 -4l-21 -4h-2v-92h16l34 37l43 -37v-22h-93v-53l6 -1l23 -4l22 -7l11 -4l19 -10l8 -6l8 -23l-11 -23l-23 -7l-22 11z" />
  </g>

</svg>
