<?xml version="1.0" standalone="no"?>
<!DOCTYPE svg PUBLIC "-//W3C//DTD SVG 1.1//EN" "http://www.w3.org/Graphics/SVG/1.1/DTD/svg11.dtd" >
<svg xmlns="http://www.w3.org/2000/svg" xmlns:xlink="http://www.w3.org/1999/xlink" version="1.1" viewBox="0 -144 1024 1024">
  <g transform="matrix(1 0 0 -1 0 880)">
   <path fill="currentColor"
d="M688 243l9 -17l-22 -1l-21 -27l-25 -29l-28 -29l-15 -14l-17 -13l276 -1l54 54l65 -54v-21h-904v21h491l6 11l38 71l23 49l11 26l5 10zM361 208l-6 12l-13 24l-8 13l-9 10l6 7l12 -8l13 -7l13 -8l12 -8l22 -21l21 -23l19 -26l1 -25l-17 -18h-24l-19 16l-7 26zM301 452
h422l32 27l59 -48l-27 -22v-136l-64 -32v54h-422v-38l-65 -32v259zM301 431v-115h422v115h-422zM61 498l-3 25l14 20l10 5l11 8l9 10l9 13l9 15l8 18l7 22l6 24l5 27l4 30h9l4 -30l2 -19h725l3 2l2 4l1 -1l26 22l59 -49l-27 -16l-22 -9l-36 -37l-43 -40l-17 -14l-16 -16
l-7 7l12 19l39 69l15 29l4 8h-717v-14l-1 -26l-4 -23l-6 -22l-9 -21l-10 -19l-14 -16l-16 -15l-25 -4zM813 559v-22h-602v22h504l44 48zM125 765h355v100h-420v21h420v98l64 -11l16 -11l-16 -9v-67h301l54 54l65 -54v-21h-420v-100h257l44 48l54 -48v-22h-774v22z" />
  </g>

</svg>
