<?xml version="1.0" standalone="no"?>
<!DOCTYPE svg PUBLIC "-//W3C//DTD SVG 1.1//EN" "http://www.w3.org/Graphics/SVG/1.1/DTD/svg11.dtd" >
<svg xmlns="http://www.w3.org/2000/svg" xmlns:xlink="http://www.w3.org/1999/xlink" version="1.1" viewBox="0 -144 1024 1024">
  <g transform="matrix(1 0 0 -1 0 880)">
   <path fill="currentColor"
d="M720 303l-5 13l-12 24l-17 25l-21 25l-7 6l-27 -25l-30 -27l-33 -24l-33 -21l-36 -18l-6 8l57 54l27 27l25 28l24 31l22 31l40 67l18 35l14 33v2l-42 -42l-48 -39l-52 -35l-54 -30l-55 -24l-5 -82l-7 -65l-9 -57l-11 -47l-14 -39l-18 -31l-9 -10l-9 -10l-9 -8l-11 -7
l-11 -7l-12 -5l-12 -4l-13 -3l-13 -1l-13 -1v32l-86 16v17h86l15 1l7 1l6 2l6 3l6 3l5 4l6 4l9 12l11 18l11 31l10 42l8 52l7 63l5 73l3 83l1 93v103l-1 61h-1v43h-218l-12 -32l-20 -43l-22 -44l-13 -23l57 -29h81l33 27l59 -48l-27 -22v-274l-65 -32v64h-81v-64l-64 -33
v398l-34 -54l-32 -46l-9 5l44 100l36 91l14 42l11 42l8 39l6 37l4 36v33l1 13l64 -15l15 -11l-18 -10l-2 -17l-7 -39l-10 -40l-10 -30h211l32 27l59 -48l-26 -16l1 -87l1 -104l-2 -95l-2 -65l44 28l48 37l45 39l43 41l39 44l30 39l-23 -2l-19 15l-9 23l-12 23l-14 23l-18 23
l-8 9l-14 -17l-25 -28l-27 -25l-29 -23l-31 -21l-6 7l45 57l41 57l18 30l33 63l26 66l13 43l59 -28l12 -16l-20 -4l-7 -17l-14 -29h148l33 27l59 -48l-27 -16l-11 -5l-20 -43l-33 -59l-36 -55l-38 -52l-38 -42l53 -31l10 -16l-20 -3l-10 -20l-18 -29h160l32 27l59 -49
l-27 -16l-11 -5l-25 -52l-37 -67l-43 -61l-47 -54l-50 -48l-56 -41l-59 -35l-63 -27l-66 -20l-71 -13l-2 9l66 23l62 27l57 33l53 36l48 43l42 44l-21 1l-16 18l-3 12zM728 483l-14 -20l-26 -33l-22 -25l23 -10l16 -8l15 -9l13 -11l13 -12l12 -12l10 -13l10 -14l9 -16
l-1 -12l21 27l36 58l32 64l20 46h-167zM179 615v-242h81v242h-81zM679 876l-11 -19l-20 -33l-22 -30l10 -4l15 -7l13 -8l14 -8l12 -9l12 -11l11 -11l10 -11l10 -13l2 -20l23 35l31 54l27 57l15 38h-152z" />
  </g>

</svg>
