<?xml version="1.0" standalone="no"?>
<!DOCTYPE svg PUBLIC "-//W3C//DTD SVG 1.1//EN" "http://www.w3.org/Graphics/SVG/1.1/DTD/svg11.dtd" >
<svg xmlns="http://www.w3.org/2000/svg" xmlns:xlink="http://www.w3.org/1999/xlink" version="1.1" viewBox="0 -144 1024 1024">
  <g transform="matrix(1 0 0 -1 0 880)">
   <path fill="currentColor"
d="M826 100l-47 31l-44 35l-41 41l-40 44l-36 50l-34 53l-31 59l-25 60h-25l-8 -25l-36 -79l-45 -72l-56 -65l-64 -57l-74 -50l-83 -42l-91 -34l-4 9l86 43l76 49l67 52l57 58l48 63l39 69l29 74l2 7h-391v21h396l14 52l12 87l3 92v6h-231l-28 -44l-53 -73l-29 -35l-32 -34
l-8 6l67 118l39 77l34 77l15 39l26 78l4 8l58 -28l11 -16l-19 -4l-26 -60l-20 -39l-21 -39l-6 -10h219v226l64 -11l16 -10l-16 -10v-195h221l53 54l65 -54v-21h-339v-6l-7 -98l-16 -93l-12 -40h342l53 54l65 -54v-21h-429l33 -49l37 -52l39 -48l39 -43l41 -38l41 -34l43 -29
l44 -25l44 -20l87 -28l-63 -55l-51 21z" />
  </g>

</svg>
