<?xml version="1.0" standalone="no"?>
<!DOCTYPE svg PUBLIC "-//W3C//DTD SVG 1.1//EN" "http://www.w3.org/Graphics/SVG/1.1/DTD/svg11.dtd" >
<svg xmlns="http://www.w3.org/2000/svg" xmlns:xlink="http://www.w3.org/1999/xlink" version="1.1" viewBox="0 -144 1024 1024">
  <g transform="matrix(1 0 0 -1 0 880)">
   <path fill="currentColor"
d="M624 408l-5 -59l-10 -54l-16 -50l-20 -45l-26 -41l-30 -35l-35 -30l-39 -25l-44 -18l-48 -13l-3 9l43 22l37 25l31 27l28 30l23 34l18 37l14 40l10 45l6 49l2 53v220l64 -11l16 -11l-16 -10v-189zM839 618l17 -11l-17 -10v-522l-64 -32v586zM335 265l-19 22l-20 21l-8 8
l-6 -13l-38 -66l-42 -59l-48 -52l-52 -45l-56 -37l-5 8l48 45l44 48l40 54l36 59l33 65l9 24l-26 19l-56 34l-11 -57l-70 -20l76 397h-92v21h96l47 243l62 -23l13 -13l-17 -5l-39 -202h107l32 27l59 -48l-27 -16l-4 -2l-12 -72l-19 -91l-25 -85l-29 -79l-7 -15l20 -14
l25 -21l24 -23l22 -24l20 -27l3 -25l-14 -19l-24 -4l-20 14l-14 24zM230 720l-57 -300l37 -10l32 -13l24 -12l27 84l20 83l16 88l10 80h-109zM872 638l-30 29l-27 32l-26 34l-23 35l-22 37l-20 39l-16 41l-2 6l-21 -40l-27 -43l-28 -42l-31 -39l-34 -36l-36 -33l-38 -31
l-41 -27l-43 -24l-5 8l36 33l34 33l32 33l31 36l28 37l25 39l24 41l21 42l20 44l20 54l57 -30l12 -16l-20 -4l-6 -13l60 -87l26 -32l26 -29l28 -29l28 -26l60 -47l51 -34l-59 -46l-33 27z" />
  </g>

</svg>
