<?xml version="1.0" standalone="no"?>
<!DOCTYPE svg PUBLIC "-//W3C//DTD SVG 1.1//EN" "http://www.w3.org/Graphics/SVG/1.1/DTD/svg11.dtd" >
<svg xmlns="http://www.w3.org/2000/svg" xmlns:xlink="http://www.w3.org/1999/xlink" version="1.1" viewBox="0 -144 1024 1024">
  <g transform="matrix(1 0 0 -1 0 880)">
   <path fill="currentColor"
d="M895 285h11l-11 -135l19 -13l13 -19l-13 -20l-19 -12h-298l-13 1l-14 2l-13 4l-12 7l-11 9l-9 10l-6 13l-5 13l-2 13l-1 14v206l-31 -28l-69 -55l-28 -20l18 -24l3 -25l-14 -19l-24 -4l-20 15l-14 24l-16 23l-17 23l-19 21l-6 6l-6 -12l-37 -65l-41 -59l-46 -53l-50 -45
l-55 -37l-5 8l46 44l43 49l38 54l35 59l31 65l10 25l-52 36l-26 16l-10 -57l-70 -20l74 397h-89v21h92l45 243l62 -22l14 -14l-18 -5l-37 -202h100l32 27l60 -48l-27 -16l-4 -2l-11 -72l-1 -1h217v177h-180v21h180v162l65 -11l16 -11l-16 -9v-131h21l54 54l64 -54v-2l22 42
l38 82l3 6l56 -33l10 -16l-20 -2l-33 -65l-45 -79l-49 -77l-38 -54h114l53 53l65 -53v-22h-248l-53 -68l-59 -66l-32 -33v-111l92 50l57 36l55 38l46 38l4 4l40 -51l2 -19l-19 7l-41 -26l-30 -18l-31 -16l-65 -29l-34 -13l-35 -12l-35 -9l-6 -1v-143l1 -5l1 -3l1 -2l1 -1
l1 -1l5 -1l4 -1l7 -1h266zM352 539l-23 -85l-28 -78l-7 -16l20 -14l24 -21l23 -23l12 -14l25 22l63 61l50 54v75l58 -10l62 78l28 39h-292zM218 720l-55 -300l35 -10l31 -13l22 -11l26 83l19 83l15 88l10 80h-103zM653 806v-177h22l54 83l44 76l9 18h-129z" />
  </g>

</svg>
