<?xml version="1.0" standalone="no"?>
<!DOCTYPE svg PUBLIC "-//W3C//DTD SVG 1.1//EN" "http://www.w3.org/Graphics/SVG/1.1/DTD/svg11.dtd" >
<svg xmlns="http://www.w3.org/2000/svg" xmlns:xlink="http://www.w3.org/1999/xlink" version="1.1" viewBox="0 -144 1024 1024">
  <g transform="matrix(1 0 0 -1 0 880)">
   <path fill="currentColor"
d="M947 238l-7 -12l-9 -10l-10 -8l-11 -8l-12 -5l-13 -4l-13 -2l-14 -1v32l-54 16v16h54l7 1l6 1l4 1l4 2l3 2l4 2l2 4l5 9l9 28l4 27l3 32v35l-3 36l-9 36l-11 36l-18 35l-23 33l-28 34l-6 3l56 195l8 29l14 57l2 7h-121v-823l-60 -30v904l60 -29h124l32 27l59 -49l-27 -16
l-8 -3l-12 -33l-36 -87l-29 -60l-34 -62l-15 -23l41 -20l33 -33l26 -37l18 -40l13 -42l8 -40l3 -40v-37l-3 -33l-5 -28l-5 -13zM272 267l-15 22l-15 21l-1 1l-34 -72l-36 -59l-40 -53l-44 -45l-48 -37l-6 7l39 44l36 49l33 53l29 59l26 65l9 27l-20 18l-40 29l-8 -52
l-69 -22l63 398h-72v21h75l39 242l62 -21l14 -12l-17 -6l-32 -203h77l32 27l59 -48l-27 -16l-3 -2l-10 -71l-17 -91l-20 -85l-24 -78l-7 -18l18 -14l21 -21l20 -23l18 -25l17 -27l2 -24l-17 -19l-24 -2l-19 16l-11 24zM588 180l-14 29l-31 -27l-43 -31l-70 -45l-31 -19
l-3 -21l-17 10l-39 52l10 5l36 16v727l65 -32h37v134l65 -11l16 -10l-16 -10v-103h41l29 26l57 -48l-27 -19v-303l-59 -30v30h-143v-321l96 44l17 6l-51 94l-12 19l7 6l19 -13l34 -32l7 -7l26 68l13 34l14 45l4 12l57 -32l11 -15l-21 -4l-29 -45l-36 -47l-27 -29l29 -35
l29 -41l27 -44l1 -25l-16 -18l-25 -2l-18 17zM196 720l-47 -301l28 -10l27 -13l14 -8l20 80l16 83l13 88l9 81h-80zM451 672v-151h143v151h-143zM451 693h143v129h-143v-129z" />
  </g>

</svg>
