<?xml version="1.0" standalone="no"?>
<!DOCTYPE svg PUBLIC "-//W3C//DTD SVG 1.1//EN" "http://www.w3.org/Graphics/SVG/1.1/DTD/svg11.dtd" >
<svg xmlns="http://www.w3.org/2000/svg" xmlns:xlink="http://www.w3.org/1999/xlink" version="1.1" viewBox="0 -144 1024 1024">
  <g transform="matrix(1 0 0 -1 0 880)">
   <path fill="currentColor"
d="M763 92l-111 34l-58 17l-21 5l-62 -30l-69 -23l-78 -19l-85 -13l-94 -8l-102 -2l-1 10l101 12l91 17l82 19l73 22l64 27l10 6l-195 46l-57 -53l-43 49l48 43l65 69l2 2h-273v22h291l58 76l21 31l51 -40l7 -18l-19 1l-27 -38l-9 -12h432l54 53l64 -53v-22h-235l-29 -53
l-37 -46l-45 -41l95 -21l112 -30l53 -16l19 -17l1 -24l-17 -19l-24 -1l-51 19zM407 322l-15 -19l-68 -75l-2 -2l25 -2l67 -7l65 -9l64 -10l12 -2l38 28l36 37l28 41l9 20h-259zM426 537l-24 43l-9 13l-10 12l-22 24l-23 21l-11 -26l-16 -24l-18 -22l-23 -18l-25 -16l-28 -13
l-31 -10l-34 -6l-3 9l30 15l25 16l22 18l18 17l15 18l11 18l8 20l6 21l2 21v2h-145v21h145v100h-41l-14 -20l-12 -15l-14 -15l-15 -13l-32 -23l-7 7l12 15l18 33l14 32l6 16l5 17l3 16l3 18l2 12h-1l1 4l2 11l62 -23l13 -13l-21 -8l-7 -18l-6 -12h101l44 49l54 -49v-21h-105
v-100h31l54 54l65 -54v-21h-153l-2 -10l-3 -15l17 -5l17 -6l17 -8l16 -9l15 -11l15 -12l14 -13l26 -29l4 -25l56 -46v-22h-409v-38l-65 -32v565l65 -32h264l54 54l65 -54v-22h-383v-419h291l23 23zM826 454l-44 19l-39 21l-12 9l-44 -24l-49 -20l-52 -15l-57 -12l-59 -7
l-2 10l57 17l52 19l47 20l43 24l26 17l-16 15l-25 31l-20 34l-14 36l-6 35h-51v21h271l32 27l59 -48l-27 -16l-14 -6l-12 -24l-28 -39l-33 -36l-29 -25l26 -10l39 -12l44 -11l101 -15l-63 -62l-53 12zM624 683l15 -25l20 -29l23 -26l26 -23l25 -17l37 36l25 33l22 36l7 15
h-200zM666 948h121l33 27l59 -48l-27 -22v-88l-1 -7v-5l1 -3v-3l1 -2l1 -2l2 -2l4 -3l6 -1l7 -1h51l25 70h10l-10 -70l14 -10l10 -14l-10 -15l-14 -10h-89l-13 1l-11 4l-12 5l-11 8l-9 10l-7 11l-5 12l-3 13l-2 14v110h-121v-65l-3 -22l-7 -21l-10 -19l-12 -18l-15 -16
l-17 -15l-20 -13l-21 -12l-50 -21l-4 9l22 15l34 33l13 15l10 16l8 15l5 14l3 13l1 13l-1 14v119z" />
  </g>

</svg>
