<?xml version="1.0" standalone="no"?>
<!DOCTYPE svg PUBLIC "-//W3C//DTD SVG 1.1//EN" "http://www.w3.org/Graphics/SVG/1.1/DTD/svg11.dtd" >
<svg xmlns="http://www.w3.org/2000/svg" xmlns:xlink="http://www.w3.org/1999/xlink" version="1.1" viewBox="0 -144 1024 1024">
  <g transform="matrix(1 0 0 -1 0 880)">
   <path fill="currentColor"
d="M428 306l-21 -52l-30 -46l-37 -40l-45 -36l-51 -29l-57 -24l-65 -19l-72 -13l-1 10l67 23l59 25l52 28l44 32l36 35l29 37l22 41l15 44l8 48l1 22l-66 -44l-98 -57l-95 -47l-9 -5l-5 -21l-16 12l-34 56l11 4l30 10l64 24l219 90v8v330l64 -11l17 -10l-17 -10v-299l-5 -60
zM947 276h11l-11 -134l20 -13l13 -19l-13 -20l-20 -12h-284h-14l-14 2l-13 5l-12 7l-11 8l-9 11l-6 12l-5 13l-2 14v14v588l64 -11l16 -10l-16 -10v-564l1 -5l2 -5l1 -1l1 -1l1 -1l4 -1l5 -1h259zM838 314l-36 32l-41 30l-70 45l-25 15l3 9l30 -6l28 -7l27 -10l26 -11
l26 -11l24 -13l23 -14l22 -15l41 -33l9 -23l-9 -23l-23 -9l-23 10zM234 531l-11 17l-12 17l-30 33l-37 32l-41 31l-12 -11l-24 -4l-21 14l-3 24l13 20l11 6l11 8l10 11l9 14l9 17l8 19l7 23l6 26l5 29l4 31h10l4 -32l2 -21h328v158l64 -11l16 -11l-16 -10v-126h344l3 2l2 4
l1 -1l27 22l59 -48l-27 -17l-21 -8l-51 -55l-65 -60l-7 7l13 19l54 103l5 11h-728v-16l-2 -27l-3 -25l-7 -23l-8 -21l-11 -20l-11 -13l21 -7l26 -9l24 -12l23 -12l21 -14l20 -16l18 -17l16 -17l15 -20l13 -20l1 -25l-16 -18l-25 -1l-18 16l-7 17zM919 627l1 -19l-19 8
l-70 -40l-77 -39l-58 -25l-31 -12l-5 9l185 141l36 30z" />
  </g>

</svg>
