<?xml version="1.0" standalone="no"?>
<!DOCTYPE svg PUBLIC "-//W3C//DTD SVG 1.1//EN" "http://www.w3.org/Graphics/SVG/1.1/DTD/svg11.dtd" >
<svg xmlns="http://www.w3.org/2000/svg" xmlns:xlink="http://www.w3.org/1999/xlink" version="1.1" viewBox="0 -144 1024 1024">
  <g transform="matrix(1 0 0 -1 0 880)">
   <path fill="currentColor"
d="M641 112h108l6 1l5 1l5 2l2 2l1 5l2 5v6v532h-195v22h195v285l65 -11l16 -11l-16 -10v-253h30l54 53l64 -53v-22h-148v-532l-2 -13l-2 -14l-4 -13l-7 -12l-9 -11l-10 -9l-13 -7l-13 -4l-13 -2l-13 -1v32l-108 16v16zM43 154l222 38v152h-172v21h172v140h-215v21h284
l28 55l42 74l28 44l-1 1l3 3l1 1h-385v21h156v242l64 -10l16 -11l-16 -10v-211h70v242l64 -10l17 -11l-17 -10v-211h49l54 54l64 -54v-21h-131l46 -40l6 -19l-22 3l-24 -25l-14 -15l-81 -82h102l54 54l64 -54v-21h-242v-140h75l54 54l65 -54v-21h-194v-141l157 26l62 9l65 8
l2 -9l-123 -36l-173 -46l-231 -57l-8 -19l-14 14zM654 432l-2 16l-4 17l-6 17l-7 16l-10 18l-25 35l-16 17l5 8l21 -12l20 -13l19 -15l16 -16l14 -17l12 -19l10 -20l8 -21l6 -22l3 -24l-10 -22l-22 -10l-23 10l-10 22l1 18v17zM196 577l-4 12l-12 27l-18 29l-22 31l-14 15
l6 8l35 -22l16 -11l29 -24l24 -26l10 -14l9 -14l8 -14l-2 -25l-18 -16l-25 2l-16 18l-2 12zM111 788l-9 29l-6 15l-12 28l-24 40l-10 12l7 7l13 -9l15 -8l26 -21l12 -12l23 -26l20 -31l10 -17l-1 -24l-18 -17h-24l-17 18zM568 891l7 -17l-22 1l-30 -32l-41 -40l-47 -43l-7 6
l11 19l69 129l4 8l-1 1l6 8z" />
  </g>

</svg>
