<?xml version="1.0" standalone="no"?>
<!DOCTYPE svg PUBLIC "-//W3C//DTD SVG 1.1//EN" "http://www.w3.org/Graphics/SVG/1.1/DTD/svg11.dtd" >
<svg xmlns="http://www.w3.org/2000/svg" xmlns:xlink="http://www.w3.org/1999/xlink" version="1.1" viewBox="0 -144 1024 1024">
  <g transform="matrix(1 0 0 -1 0 880)">
   <path fill="currentColor"
d="M216 935h624l32 27l59 -49l-27 -21v-156l-64 -32v54h-624v-167l-3 -68l-6 -65l-8 -62l-12 -59l-15 -55l-17 -52l-21 -48l-23 -45l-27 -40l-31 -36l-8 6l21 41l19 42l17 45l14 48l12 50l10 53l7 57l5 59l2 63v442zM919 273h11l-11 -134l19 -13l13 -19l-13 -20l-19 -13
h-323l-14 1l-13 3l-13 4l-12 6l-10 9l-10 11l-6 12l-4 13l-3 13l-1 14v134l-278 -30l-2 22l280 30v137l-244 -29l-2 22l246 29v126l-67 -11l-57 -8l-59 -7l-61 -4l-2 9l226 59l152 46l93 33l38 16h1l5 2l3 -10l47 -40l1 -17l-21 9l-55 -18l-47 -14l-101 -25l-31 -7v-132
l187 22l47 60l70 -46l2 -22l-306 -36v-138l246 27l48 59l70 -47l3 -21l-367 -39v-141v-6l1 -5l1 -3l1 -2l2 -2l2 -1l3 -1l5 -1h6h291zM216 913v-134h624v134h-624z" />
  </g>

</svg>
