<?xml version="1.0" standalone="no"?>
<!DOCTYPE svg PUBLIC "-//W3C//DTD SVG 1.1//EN" "http://www.w3.org/Graphics/SVG/1.1/DTD/svg11.dtd" >
<svg xmlns="http://www.w3.org/2000/svg" xmlns:xlink="http://www.w3.org/1999/xlink" version="1.1" viewBox="0 -144 1024 1024">
  <g transform="matrix(1 0 0 -1 0 880)">
   <path fill="currentColor"
d="M910 405l-27 -22v-295l-65 -32v43h-682v22h682v140h-645v21h645v123h-672v21h672l33 27zM524 550h193v130h-155v22h155v128h-174v21h174v130l64 -11l16 -10l-16 -10v-99h55l54 54l64 -54v-21h-173v-128h36l54 53l65 -53v-22h-155v-130h74l54 54l64 -54v-21h-449v21z
M50 550h193v130h-155v22h155v128h-174v21h174v130l64 -11l16 -10l-16 -10v-99h55l54 54l64 -54v-21h-173v-128h36l54 53l64 -53v-22h-154v-130h74l54 54l64 -54v-21h-449v21z" />
  </g>

</svg>
