<?xml version="1.0" standalone="no"?>
<!DOCTYPE svg PUBLIC "-//W3C//DTD SVG 1.1//EN" "http://www.w3.org/Graphics/SVG/1.1/DTD/svg11.dtd" >
<svg xmlns="http://www.w3.org/2000/svg" xmlns:xlink="http://www.w3.org/1999/xlink" version="1.1" viewBox="0 -144 1024 1024">
  <g transform="matrix(1 0 0 -1 0 880)">
   <path fill="currentColor"
d="M233 973l16 -11l-16 -10v-877l-65 -32v940zM812 569l7 10l2 -2l23 19l14 -12l6 13l19 61l4 13l4 12l2 8h-439v-11l1 -21l-1 -21l-2 -19l-4 -17l-5 -16l-8 -15l-11 -14l-23 -7l-22 10l-7 23l10 23l6 3l6 5l7 8l6 11l7 14l6 17l10 40l5 25l2 26h9l3 -26l2 -16h190v120h-247
v21h247v135l65 -11l16 -11l-16 -9v-104h129l53 54l65 -54v-21h-247v-120h190l32 27l59 -49l-27 -16l-19 -8l-32 -40l-21 -24l-13 -13l-9 -12l37 -31l-27 -16l-26 -11l-37 -31l-57 -41l-45 -28l11 -7l-16 -10v-57h150l53 54l65 -54v-22h-268v-187l-2 -14l-2 -13l-4 -13
l-7 -12l-9 -11l-10 -9l-13 -6l-13 -5l-13 -2l-13 -1v32l-86 17v16h92l5 1l3 1l2 1h1l1 2l1 4l1 5l1 7v187h-268v22h268v88l51 -8l74 82l26 31l6 8h-334v22h348zM53 513l-13 21l4 24l8 9l7 11l8 13l15 35l7 21l23 76l6 30l10 -1l1 -59v-28l-2 -25l-3 -24l-3 -21l-5 -21
l-5 -19l-5 -17l-7 -16l-21 -13zM303 638l-3 15l-9 30l-14 33l-16 34l-10 17l7 6l15 -14l15 -13l27 -28l12 -14l10 -15l19 -31l8 -16l7 -17l-4 -24l-20 -15l-24 4l-15 20l-2 14z" />
  </g>

</svg>
