<?xml version="1.0" standalone="no"?>
<!DOCTYPE svg PUBLIC "-//W3C//DTD SVG 1.1//EN" "http://www.w3.org/Graphics/SVG/1.1/DTD/svg11.dtd" >
<svg xmlns="http://www.w3.org/2000/svg" xmlns:xlink="http://www.w3.org/1999/xlink" version="1.1" viewBox="0 -144 1024 1024">
  <g transform="matrix(1 0 0 -1 0 880)">
   <path fill="currentColor"
d="M252 973l16 -11l-16 -10v-877l-65 -32v940zM767 958l6 9l53 -36l10 -17l-22 -1l-64 -88l-50 -59l-8 -8h145l53 53l65 -53v-22h-216v-172h86l54 54l64 -54v-21h-204v-178h86l54 54l64 -54v-21h-204v-199h121l54 53l65 -53v-22h-459v-37l-64 -33v654l-25 -30l-29 -32
l-27 -25l-4 -19l-20 -15l-13 3l-1 -1l-1 1l-9 2l-14 20l-1 14l-4 30l-4 15l-8 31l-15 50l-8 16l8 5l12 -14l13 -13l22 -28l10 -15l9 -15l9 -15l11 -26l36 52l44 74l9 16v2v-1l31 60l35 82l19 51l58 -31l10 -16l-19 -3l-33 -67l-46 -81l-11 -16l20 -10h156l19 42l59 127
l14 30zM520 344v-199h154v199h-154zM520 543v-178h154v178h-154zM54 514l-13 20l6 25l8 8l8 12l8 13l8 16l8 19l15 44l15 52l7 30l10 -1l1 -31v-29l-1 -27l-3 -26l-2 -23l-5 -22l-4 -21l-6 -19l-7 -17l-8 -16l-21 -13zM520 736v-172h154v172h-154z" />
  </g>

</svg>
