<?xml version="1.0" standalone="no"?>
<!DOCTYPE svg PUBLIC "-//W3C//DTD SVG 1.1//EN" "http://www.w3.org/Graphics/SVG/1.1/DTD/svg11.dtd" >
<svg xmlns="http://www.w3.org/2000/svg" xmlns:xlink="http://www.w3.org/1999/xlink" version="1.1" viewBox="0 -144 1024 1024">
  <g transform="matrix(1 0 0 -1 0 880)">
   <path fill="currentColor"
d="M219 973l16 -11l-16 -10v-877l-65 -32v940zM954 253h11l-11 -135l19 -13l13 -19l-13 -19l-19 -13h-87h-14l-14 3l-13 4l-11 7l-11 8l-9 11l-7 13l-4 12l-3 14v14v258l64 -11l16 -11l-16 -9v-227l1 -7v-5l1 -3l2 -2v-1l1 -1h2l4 -2l4 -1h62zM511 387l17 -11l-17 -9v-115
l-3 -32l-7 -30l-11 -28l-15 -25l-17 -22l-22 -18l-24 -15l-26 -11l-30 -8l-32 -4l-2 9l28 13l23 14l21 15l16 16l13 18l10 18l7 20l5 21l2 23v26v146zM679 383l16 -10l-16 -10v-269l-65 -32v332zM932 491l13 -19l-13 -19l-19 -13h-466h-13l-13 3l-13 4l-13 7l-10 8l-10 11
l-6 13l-4 12l-2 14l-2 14v168l65 -33h188v104l65 -11l16 -10l-16 -10v-73h153l54 54l64 -54v-21h-524v-114l1 -7l1 -5v-3l1 -2l2 -2l5 -2l5 -1h472zM53 513l-14 20l3 24l7 9l7 11l15 31l7 18l13 45l15 52l6 30l10 -1v-30l1 -29v-27l-1 -26l-2 -23l-3 -22l-8 -38l-5 -17
l-6 -16l-20 -14zM277 639l-4 15l-8 30l-11 32l-13 34l-10 17l8 6l13 -14l14 -13l13 -14l23 -29l19 -30l8 -16l8 -16l6 -16l-5 -24l-20 -15l-24 4l-14 20l-1 15zM544 981l16 -11l-16 -9v-87h22l24 33l32 -33v-21h-78v-92l-65 -32v124h-156v21h156v118zM809 981l16 -11l-16 -9
v-87h38l54 54l64 -54v-21h-156v-92l-64 -32v124h-79v21h79v118z" />
  </g>

</svg>
