<?xml version="1.0" standalone="no"?>
<!DOCTYPE svg PUBLIC "-//W3C//DTD SVG 1.1//EN" "http://www.w3.org/Graphics/SVG/1.1/DTD/svg11.dtd" >
<svg xmlns="http://www.w3.org/2000/svg" xmlns:xlink="http://www.w3.org/1999/xlink" version="1.1" viewBox="0 -144 1024 1024">
  <g transform="matrix(1 0 0 -1 0 880)">
   <path fill="currentColor"
d="M222 973l16 -11l-16 -10v-877l-65 -32v940zM946 263h11l-11 -134l20 -13l13 -20l-13 -19l-20 -13h-76l-14 1l-13 2l-14 5l-12 7l-10 8l-10 11l-6 12l-4 13l-3 14l-1 13v219l-37 -72l-43 -65l-49 -59l-35 -33l-6 -9l-13 -9l-62 -46l-67 -37l-5 8l59 46l28 25h-113l-13 1
l-13 2l-13 4l-13 7l-10 9l-10 11l-6 12l-4 13l-2 13l-2 14v269l65 -11l16 -11l-16 -10v-112l91 53l37 25l31 22l-1 1l1 -1l4 3l18 -28l22 -23v-19l-20 9l-27 -14l-43 -19l-46 -16l-23 -6l-25 -6l-19 -4v-102l1 -7v-4l1 -4l1 -1l1 -1l1 -1l2 -1l3 -1l5 -1l6 -1h121l32 135h11
l-11 -135l14 -9l21 23l42 59l36 63l31 70l26 74l18 75h-150v22h39v317h-33v21h213l53 54l65 -54v-21h-88l-10 -163l-32 2l32 -3l-13 -95l-12 -58h31l44 48l53 -48v-22h-132l-2 -8l-12 -42l21 -4l16 -10l-16 -10v-313l1 -6v-5l1 -3l1 -2l1 -1l1 -1l2 -1l3 -1l5 -1h7h44z
M520 959l12 -14l-23 -7l-7 -12l-14 -22l-16 -23l-18 -21h85l33 27l59 -49l-27 -21v-296l-65 -32v54h-120l-65 -33v382l65 -32h21l2 5l2 14l2 14l3 13l2 12l3 25l3 23v5h-1l4 14zM55 513l-15 20l3 24l7 9l15 25l7 17l7 18l14 45l14 52l7 30l9 -1l1 -30l1 -29l-1 -27l-1 -26
l-2 -23l-6 -42l-5 -18l-5 -18l-6 -15l-20 -14zM734 876v-317h51l12 67l9 91l10 159h-82zM419 693v-129h120v129h-120zM284 624l-6 30l-4 15l-10 31l-6 16l-14 34l-9 17l8 6l13 -14l15 -13l13 -14l23 -29l18 -30l9 -16l13 -32l-4 -24l-20 -15l-24 4l-14 20zM419 838v-123h120
v123h-120z" />
  </g>

</svg>
