<?xml version="1.0" standalone="no"?>
<!DOCTYPE svg PUBLIC "-//W3C//DTD SVG 1.1//EN" "http://www.w3.org/Graphics/SVG/1.1/DTD/svg11.dtd" >
<svg xmlns="http://www.w3.org/2000/svg" xmlns:xlink="http://www.w3.org/1999/xlink" version="1.1" viewBox="0 -144 1024 1024">
  <g transform="matrix(1 0 0 -1 0 880)">
   <path fill="currentColor"
d="M212 978l16 -11l-16 -9v-878l-64 -32v941zM461 476h333l32 27l59 -49l-27 -21v-329l-64 -32v53h-333v-37l-65 -33v453zM461 295v-148h333v148h-333zM461 454v-138h333v138h-333zM454 567l20 12v162l65 -10l16 -11l-16 -10v-95l58 31l21 9l20 10l6 -8l-93 -90l-42 -37
l1 -22l-18 7l-47 45zM625 935v-22h-120l-9 -58l-13 -61l-8 -31h36l44 48l54 -48v-22h-140l-19 -53l-20 -44l-22 -39l-25 -33l-28 -27l-30 -21l-32 -13l-4 10l24 20l22 24l19 28l19 32l16 37l14 43l10 36h-48l-2 -6l-70 -17l43 187l61 -25l13 -14l-17 -5l-23 -98h48l9 42
l8 59l5 49h-132v22h199l53 54zM953 715h11l-11 -135l19 -13l13 -19l-13 -19l-19 -13h-75l-14 1l-14 2l-13 4l-12 7l-11 9l-8 11l-7 12l-5 13l-2 13v14v125l-13 -33l-21 -46l-23 -38l-27 -33l-28 -26l-31 -18l-33 -11l-4 9l25 19l23 23l21 27l19 31l17 37l15 43l9 30h-43
l-2 -6l-69 -17l43 187l60 -25l13 -14l-17 -5l-23 -98h44l11 51l9 59l7 51h-138v22h188l54 54l64 -54v-22h-104l-10 -61l-14 -62l-11 -38h32l53 54l65 -54v-22h-156l59 -10l16 -11l-16 -10v-115l1 -5l2 -4l2 -3l5 -1l5 -1l7 -1h43zM52 518l-15 20l3 24l6 9l7 11l14 30l7 19
l13 45l14 53l7 29h9l3 -60l-1 -27l-1 -25l-2 -23l-2 -22l-4 -20l-8 -35l-6 -16l-20 -15zM265 645l-3 15l-3 15l-9 30l-19 50l-9 17l8 6l13 -14l14 -13l24 -28l20 -30l17 -31l7 -16l6 -16l-4 -24l-20 -15l-25 5l-14 20l-1 14z" />
  </g>

</svg>
