<?xml version="1.0" standalone="no"?>
<!DOCTYPE svg PUBLIC "-//W3C//DTD SVG 1.1//EN" "http://www.w3.org/Graphics/SVG/1.1/DTD/svg11.dtd" >
<svg xmlns="http://www.w3.org/2000/svg" xmlns:xlink="http://www.w3.org/1999/xlink" version="1.1" viewBox="0 -144 1024 1024">
  <g transform="matrix(1 0 0 -1 0 880)">
   <path fill="currentColor"
d="M724 958l5 -204l7 -75l131 10l50 58l68 -49l2 -21l-249 -19l8 -86l26 -143l18 -65l24 47l30 69l26 69l4 13l58 -30l12 -15l-20 -4l-23 -58l-36 -71l-39 -65l-15 -21l25 -59l34 -54l31 -34l27 -19l29 126h11l-10 -135l22 -9l9 -23l-9 -23l-23 -9l-26 3l-34 13l-38 27
l-40 43l-40 64l-13 30l-27 -31l-50 -47l-52 -39l-56 -34l-59 -26l-62 -18l-3 9l57 28l52 32l50 37l46 42l43 46l39 52l1 1l-36 124l-27 149l-8 89l-88 -7v-56l-64 -32v168l-6 1l-16 -17l-33 -30l-36 -28l-18 -12l-20 -12l-42 -20l-5 8l16 16l44 49l26 32l24 33l18 30l6 8
l42 -34v160h-73l51 -38l8 -17h-22l-41 -44l-48 -43l-18 -13l-38 -24l-6 7l14 17l48 69l21 34l19 32l5 12l2 3l1 2l2 3h-83v21h158l32 27l59 -48l-27 -22v-220l86 6l-7 77l-6 222v18l64 -13l16 -11zM574 259l4 -19l-20 4l-23 -21l-40 -33l-42 -29l-43 -26l-45 -24l-47 -19
l-48 -18l-49 -13l-51 -9l-52 -6l-2 10l49 16l48 17l45 19l43 21l42 23l41 25l38 28l37 31l35 32l35 37zM484 334l4 -19l-20 5l-45 -39l-32 -23l-33 -21l-34 -20l-35 -16l-37 -15l-37 -12l-38 -9l-39 -6l-3 9l70 33l65 36l31 20l58 44l27 24l53 55zM401 414l5 -19l-20 4
l-30 -26l-24 -19l-24 -17l-26 -15l-27 -15l-28 -13l-28 -11l-30 -9l-31 -6l-3 9l75 48l46 34l22 18l39 38l19 21l17 21l2 2zM514 407l-15 17l-36 35l-20 17l-84 62l-24 -27l-29 -29l-31 -28l-32 -25l-34 -25l-36 -23l-37 -21l-39 -19l-41 -16l-5 9l70 50l63 52l29 27l54 56
l47 60l10 15l-60 -30v163h-4l-38 -43l-38 -37l-43 -35l-23 -17l-25 -15l-26 -14l-6 7l74 85l46 60l26 41l9 15l-1 1l6 8l43 -32v159h-184v21h184l32 27l59 -48l-27 -22v-288l9 14l51 -41l7 -18l-20 1l-6 -6l42 -14l28 -12l26 -14l25 -14l45 -32l21 -17l36 -37l5 -24l-12 -21
l-24 -6l-22 13l-11 17zM237 874l9 -17l-21 -1l-29 -36l-32 -32l-36 -30l-19 -13l-42 -25l-6 7l16 18l42 54l24 35l11 18l19 35l6 13l5 10zM861 830l-7 14l-8 14l-9 14l-21 27l-26 27l-15 13l5 8l37 -16l18 -9l17 -10l15 -12l29 -25l24 -30l11 -16l1 -24l-17 -19h-24l-19 16
l-5 14z" />
  </g>

</svg>
