<?xml version="1.0" standalone="no"?>
<!DOCTYPE svg PUBLIC "-//W3C//DTD SVG 1.1//EN" "http://www.w3.org/Graphics/SVG/1.1/DTD/svg11.dtd" >
<svg xmlns="http://www.w3.org/2000/svg" xmlns:xlink="http://www.w3.org/1999/xlink" version="1.1" viewBox="0 -144 1024 1024">
  <g transform="matrix(1 0 0 -1 0 880)">
   <path fill="currentColor"
d="M177 659h283l32 27l59 -48l-27 -22v-260l-64 -32v43h-109v-107h131l54 54l64 -54v-21h-249v-165l-65 -32v197h-250v21h250v107h-109v-16l-65 -33v373zM722 958l6 -204l7 -75l127 10l50 58l68 -49l2 -21l-245 -19l8 -86l25 -143l17 -64l24 46l30 68l26 75h1l3 7l58 -29
l11 -15l-19 -4l-24 -58l-34 -71l-39 -65l-15 -21l24 -59l34 -54l31 -34l25 -18l29 125h11l-10 -135l22 -9l10 -23l-10 -23l-23 -9l-26 3l-33 13l-37 27l-41 44l-39 64l-12 29l-27 -31l-49 -47l-52 -39l-55 -34l-58 -26l-62 -18l-3 9l56 28l52 32l49 37l45 42l43 46l39 52
l-35 125l-26 149l-9 89l-101 -8l-2 21l101 8l-7 77l-6 222v18l65 -13l16 -11zM177 502v-114h109v114h-109zM351 502v-114h109v114h-109zM177 638v-114h109v114h-109zM351 638v-114h109v114h-109zM141 939h92l30 27l56 -49l-27 -19v-160l-59 -29v40h-92v-16l-65 -32v270z
M403 939h90l32 27l60 -49l-27 -21v-158l-65 -32v43h-90v-16l-59 -30v265zM403 917v-147h90v147h-90zM141 917v-147h92v147h-92zM858 830l-7 14l-8 14l-9 14l-21 27l-25 27l-15 13l5 8l37 -16l17 -9l17 -11l15 -11l15 -12l13 -13l13 -15l11 -15l11 -16l1 -24l-17 -19h-24
l-19 16l-4 14z" />
  </g>

</svg>
