<?xml version="1.0" standalone="no"?>
<!DOCTYPE svg PUBLIC "-//W3C//DTD SVG 1.1//EN" "http://www.w3.org/Graphics/SVG/1.1/DTD/svg11.dtd" >
<svg xmlns="http://www.w3.org/2000/svg" xmlns:xlink="http://www.w3.org/1999/xlink" version="1.1" viewBox="0 -144 1024 1024">
  <g transform="matrix(1 0 0 -1 0 880)">
   <path fill="currentColor"
d="M800 122l-56 37l-50 42l-12 11l-63 -50l-67 -40l-72 -34l-78 -26l-82 -18l-2 9l78 28l72 34l66 37l61 43l55 49l1 1l-43 54l-34 56l-30 62l-23 65l-15 66h-59v21h203v199h-213v22h213v193l64 -10l16 -11l-16 -10v-162h151l53 54l65 -54v-22h-269v-199h130l32 27l59 -48
l-27 -16l-11 -5l-25 -59l-39 -74l-45 -68l-51 -61l-16 -15l9 -8l48 -35l53 -30l56 -26l101 -34l-62 -54l-66 27zM118 118h82l4 1l5 2l2 2l2 5l1 4l1 7v297l-93 -46l-17 -7l-4 -21l-16 11l-35 56l165 62v257h-152v22h152v209l64 -11l16 -11l-16 -10v-177h37l54 54l65 -54v-22
h-156v-232l79 30l74 25l5 -9l-33 -22l-103 -59l-22 -12v-330l-1 -14l-2 -13l-4 -13l-7 -12l-9 -11l-11 -9l-12 -7l-13 -4l-13 -2l-14 -1v33l-75 16v16zM542 490l31 -59l34 -55l37 -50l41 -44l14 15l45 60l38 65l34 71l21 55h-320z" />
  </g>

</svg>
