<?xml version="1.0" standalone="no"?>
<!DOCTYPE svg PUBLIC "-//W3C//DTD SVG 1.1//EN" "http://www.w3.org/Graphics/SVG/1.1/DTD/svg11.dtd" >
<svg xmlns="http://www.w3.org/2000/svg" xmlns:xlink="http://www.w3.org/1999/xlink" version="1.1" viewBox="0 -144 1024 1024">
  <g transform="matrix(1 0 0 -1 0 880)">
   <path fill="currentColor"
d="M115 118h81l5 1l5 2l2 2l2 5l1 4v7v298l-119 -55l-4 -20l-16 11l-34 56l173 63v256h-161v22h161v209l65 -11l16 -11l-16 -10v-177h47l54 54l64 -54v-22h-165v-232l124 43l39 12l4 -9l-70 -43l-97 -50v-330l-1 -14l-2 -13l-5 -13l-7 -12l-8 -11l-11 -9l-12 -7l-13 -4
l-14 -2l-13 -1v33l-75 16v16zM358 123h293v377h-200v21h200v344h-241v22h440l53 53l65 -53v-22h-253v-344h117l54 54l64 -54v-21h-235v-377h152l54 54l64 -54v-21h-627v21z" />
  </g>

</svg>
