<?xml version="1.0" standalone="no"?>
<!DOCTYPE svg PUBLIC "-//W3C//DTD SVG 1.1//EN" "http://www.w3.org/Graphics/SVG/1.1/DTD/svg11.dtd" >
<svg xmlns="http://www.w3.org/2000/svg" xmlns:xlink="http://www.w3.org/1999/xlink" version="1.1" viewBox="0 -144 1024 1024">
  <g transform="matrix(1 0 0 -1 0 880)">
   <path fill="currentColor"
d="M542 908h310l32 27l59 -48l-27 -22v-322l-64 -33v65h-183l22 -58l26 -60l26 -57l28 -53l29 -48l31 -44l33 -40l34 -36l36 -32l55 -39l-59 -46l-41 35l-37 38l-34 43l-32 46l-29 49l-26 54l-24 57l-20 61l-17 65l-12 65h-116v-43l-4 -66l-7 -62l-11 -58l-15 -55l-18 -52
l-23 -47l-26 -44l-30 -39l-34 -35l-37 -29l-7 7l29 36l26 38l23 40l20 43l16 46l13 49l10 52l6 55l4 59v62v408zM103 118h76h6l5 1l5 2l2 2l2 5l1 5v6v300l-111 -54l-4 -20l-16 10l-35 56l166 63v258h-152v22h152v209l65 -10l16 -11l-16 -10v-178h38l54 53l65 -53v-22h-157
v-233l116 43l39 12l3 -9l-66 -42l-92 -51v-333l-1 -13l-3 -14l-4 -12l-7 -13l-8 -11l-11 -8l-13 -7l-12 -4l-14 -3l-13 -1v33l-76 16v16zM542 887v-291h310v291h-310z" />
  </g>

</svg>
