<?xml version="1.0" standalone="no"?>
<!DOCTYPE svg PUBLIC "-//W3C//DTD SVG 1.1//EN" "http://www.w3.org/Graphics/SVG/1.1/DTD/svg11.dtd" >
<svg xmlns="http://www.w3.org/2000/svg" xmlns:xlink="http://www.w3.org/1999/xlink" version="1.1" viewBox="0 -144 1024 1024">
  <g transform="matrix(1 0 0 -1 0 880)">
   <path fill="currentColor"
d="M111 118h75h7l5 1l4 2l2 2l2 5l1 5l1 6v299l-109 -53l-4 -20l-16 10l-35 56l164 63v258h-151v22h151v209l64 -10l16 -11l-16 -10v-178h36l54 53l65 -53v-22h-155v-233l115 43l18 6l-14 49l11 1l40 3l42 3l15 2l69 171l39 108l23 76l59 -29l12 -15l-20 -5l-20 -48l-33 -70
l-58 -109l-47 -74l-3 -4l158 14l54 6l119 10l35 2l-11 21l-33 54l-60 81l-23 27l7 8l29 -20l29 -22l26 -23l24 -25l22 -27l21 -27l20 -29l17 -29l17 -31l14 -32l-1 -24l-18 -17l-24 1l-17 18l-10 30l-23 53l-98 -23l-163 -32l-182 -31l-18 -2l-10 -19l-11 14l-81 -50
l-57 -31v-333l-1 -13l-2 -14l-4 -12l-7 -13l-9 -11l-11 -8l-12 -7l-13 -4l-13 -3l-14 -1v33l-75 16v16zM534 459h310l32 27l60 -49l-27 -21v-311l-65 -32v54h-310v-38l-65 -32v434zM534 437v-289h310v289h-310z" />
  </g>

</svg>
