<?xml version="1.0" standalone="no"?>
<!DOCTYPE svg PUBLIC "-//W3C//DTD SVG 1.1//EN" "http://www.w3.org/Graphics/SVG/1.1/DTD/svg11.dtd" >
<svg xmlns="http://www.w3.org/2000/svg" xmlns:xlink="http://www.w3.org/1999/xlink" version="1.1" viewBox="0 -144 1024 1024">
  <g transform="matrix(1 0 0 -1 0 880)">
   <path fill="currentColor"
d="M351 109h107l7 1h5l3 1l1 1l1 1l2 1v2l1 3l1 5l1 7v85h-436v22h436v83h-355v21h355v80l-85 -4l-78 -3l-85 -1l-91 -1v10l323 39l66 9l59 8l100 17l40 8l34 8l1 -6l58 -48l2 -16l-24 12l-24 -5l-36 -5l-43 -5l-48 -5l-54 -4l-51 -4v-84h237l54 54l64 -54v-21h-355v-83h317
l54 53l65 -53v-22h-436v-85l-1 -14l-2 -14l-4 -13l-7 -11l-9 -11l-11 -9l-12 -7l-13 -4l-13 -3h-14v32l-107 16v16zM57 561l224 63v76l-40 -13l-97 -28l-29 -7l-8 -19l-13 14l-24 61l60 11l97 20l54 14v79l-133 -43l-27 -7l-7 -19l-14 13l-26 61l149 32l43 11l15 4v105
l64 -11l16 -11l-16 -9v-58l149 40l3 -9l-31 -19l-33 -18l-73 -32l-15 -6v-86l107 31l85 26l3 -9l-38 -23l-40 -21l-84 -38l-33 -12v-82l117 33l91 23l4 -9l-85 -42l-137 -56l-198 -71l-31 -10l-6 -20l-15 13zM872 544l-11 -7l-11 -6l-11 -5l-12 -4l-12 -3l-13 -2l-13 -2h-12
v32l-107 16v16h107l16 1l8 2l14 4l7 3l13 8l6 5l6 6l4 10l5 19l3 26l4 33l3 38l2 46l2 52l1 58l1 53h-147l-3 -50l-10 -59l-15 -54l-19 -50l-25 -46l-30 -42l-36 -37l-40 -32l-44 -28l-50 -22l-4 9l43 30l37 33l33 35l28 37l23 40l19 43l14 45l10 50l4 52l1 46h-118v22h329
l32 26l59 -48l-27 -16v-38l-1 -59l-2 -53l-3 -46l-3 -41l-4 -36l-5 -29l-5 -25l-8 -21l-13 -18z" />
  </g>

</svg>
