<?xml version="1.0" standalone="no"?>
<!DOCTYPE svg PUBLIC "-//W3C//DTD SVG 1.1//EN" "http://www.w3.org/Graphics/SVG/1.1/DTD/svg11.dtd" >
<svg xmlns="http://www.w3.org/2000/svg" xmlns:xlink="http://www.w3.org/1999/xlink" version="1.1" viewBox="0 -144 1024 1024">
  <g transform="matrix(1 0 0 -1 0 880)">
   <path fill="currentColor"
d="M869 104l-15 19l-17 19l-37 35l-43 34l-49 35l4 9l30 -9l29 -10l26 -12l26 -14l24 -15l24 -16l21 -18l39 -38l18 -22l4 -24l-13 -20l-24 -5l-21 13l-12 20zM367 111l243 132l28 14l6 -9l-22 -22l-69 -60l-71 -55l-48 -34l-6 -4l-1 -21l-18 9zM101 118h75h6l5 1l5 2l2 2
l2 5l1 5l1 6v297l-94 -50l-3 -20l-17 10l-36 54l150 63v259h-136v22h136v209l64 -10l16 -11l-16 -10v-178h21l54 53l64 -53v-22h-139v-231l68 27l69 26l4 -8l-60 -43l-81 -50v-334l-1 -13l-2 -14l-5 -12l-6 -13l-9 -11l-11 -8l-12 -7l-13 -4l-14 -3l-13 -1v33l-75 16v16z
M928 405l8 -9l1 -19l-20 8l-60 -34l-64 -34l-69 -31l-5 8l37 35l137 115l4 4zM528 326l-8 12l-11 12l-26 23l-34 23l-19 12l-22 10l3 10l47 -10l22 -6l21 -7l19 -8l18 -10l16 -11l16 -11l14 -14l12 -14l3 -25l-14 -19l-25 -4l-20 14l-5 12zM969 924v-21h-113v-363l9 1l41 51
l57 -44l1 -21l-108 -8v-41l-64 -32v68l-392 -30l-2 21l82 6v392h-102v21h473l53 54zM544 639v-123l248 19v104h-248zM544 774v-113h248v113h-248zM544 903v-108h248v108h-248z" />
  </g>

</svg>
