<?xml version="1.0" standalone="no"?>
<!DOCTYPE svg PUBLIC "-//W3C//DTD SVG 1.1//EN" "http://www.w3.org/Graphics/SVG/1.1/DTD/svg11.dtd" >
<svg xmlns="http://www.w3.org/2000/svg" xmlns:xlink="http://www.w3.org/1999/xlink" version="1.1" viewBox="0 -144 1024 1024">
  <g transform="matrix(1 0 0 -1 0 880)">
   <path fill="currentColor"
d="M75 118h64h7l5 1l5 2l2 2l1 5l1 5l1 6v292l-63 -42l-2 -20l-17 9l-41 51l123 62v261h-105v22h105v209l64 -10l17 -11l-17 -10v-178h11l44 48l54 -48v-22h-109v-228l77 37l29 13l5 -8l-47 -43l-64 -47v-337l-1 -13l-2 -14l-4 -12l-7 -13l-9 -11l-10 -8l-13 -7l-13 -4
l-13 -3l-14 -1v33l-64 16v16zM757 75l-70 6l-58 10l-48 14l-38 20l-30 23l-23 27l-16 30l-6 16v-1l-30 -40l-25 -32l-47 -52l2 -22l-19 5l-49 44l123 84v266h-106v22h106l30 27l56 -49l-27 -19v-225l32 -33l23 -17l27 -14l33 -12l42 -8l53 -5l67 -1l81 2l157 10l-55 -75
l-100 -2zM806 228h62l4 1h2l1 1l1 1l3 5l1 4l1 7v440h-289v-487l-48 -24v556l48 -24h192l4 16l1 17l3 16l1 16l2 14l2 14l2 25l1 11v5l-1 1l2 5l2 9l60 -26l13 -15l-24 -7l-26 -48l-16 -27l-10 -14l-5 -12h86l27 27l54 -48l-27 -16v-416v-12l-2 -12l-3 -12l-4 -10l-6 -11
l-9 -8l-9 -7l-11 -5l-11 -3l-12 -1v27l-62 14v13zM771 663l16 -11l-16 -9v-66h21l33 38l43 -38v-21h-97v-96h28l26 27l54 -48l-27 -16v-151l-53 -27v49h-121v-38l-54 -27v258l54 -27h28v96h-98v21h98v97zM678 439v-124h121v124h-121zM407 633l-14 27l-16 26l-38 47l-12 10
l5 9l14 -7l16 -6l29 -15l27 -20l14 -11l25 -26l11 -14l4 -24l-14 -20l-24 -4l-21 14zM643 762l-1 24l-2 22l-2 11l-1 11l-1 11l-4 10l8 5l6 -9l17 -17l15 -20l12 -22l6 -12l6 -12l5 -13l-5 -25l-21 -13l-24 5l-13 21l-1 12v11zM436 835l-13 26l-8 13l-16 25l-19 25l-12 11
l5 8l15 -8l15 -6l29 -18l13 -10l26 -23l11 -12l12 -14l10 -14l2 -24l-16 -19l-24 -2l-19 15l-5 14zM525 883h181v105l65 -11l16 -11l-16 -9v-74h61l54 54l65 -54v-21h-426v21z" />
  </g>

</svg>
