<?xml version="1.0" standalone="no"?>
<!DOCTYPE svg PUBLIC "-//W3C//DTD SVG 1.1//EN" "http://www.w3.org/Graphics/SVG/1.1/DTD/svg11.dtd" >
<svg xmlns="http://www.w3.org/2000/svg" xmlns:xlink="http://www.w3.org/1999/xlink" version="1.1" viewBox="0 -144 1024 1024">
  <g transform="matrix(1 0 0 -1 0 880)">
   <path fill="currentColor"
d="M813 148l-47 47l-42 52l-8 13l-34 -45l-55 -56l-61 -47l-67 -39l-74 -29l-3 9l66 38l61 44l53 50l48 56l40 60l-32 65l-25 66l-19 72l-13 76l-4 46l-21 -33l-28 -39l-31 -36l-8 6l22 41l58 128l17 45l30 94l13 50l11 51l10 52l2 10l61 -23l14 -14l-19 -6l-8 -34l-16 -52
l-36 -98l-16 -37h207l54 53l64 -53v-22h-102l-15 -95l-23 -95l-29 -88l-35 -79l-26 -44l21 -28l41 -44l45 -39l48 -35l81 -43l-60 -48l-58 36zM318 118h65h6l5 1l5 2l2 2l2 5l1 5v6v119h-241v-178l-65 -32v527l65 -32h241l33 26l59 -48l-27 -21v-361l-1 -13l-2 -14l-5 -12
l-7 -13l-8 -11l-11 -8l-12 -7l-13 -4l-14 -3l-13 -1v33l-65 16v16zM163 392v-113h241v113h-241zM642 709l-34 -64l15 -61l22 -72l25 -66l29 -61l18 -31l11 19l30 77l24 84l18 91l11 84h-169zM163 521v-107h241v107h-241zM39 645h129v156h-113v21h113v167l64 -11l17 -11
l-17 -9v-136h119v167l64 -11l16 -11l-16 -9v-136h32l43 48l54 -48v-21h-129v-156h22l53 53l65 -53v-22h-516v22zM232 801v-156h119v156h-119z" />
  </g>

</svg>
