<?xml version="1.0" standalone="no"?>
<!DOCTYPE svg PUBLIC "-//W3C//DTD SVG 1.1//EN" "http://www.w3.org/Graphics/SVG/1.1/DTD/svg11.dtd" >
<svg xmlns="http://www.w3.org/2000/svg" xmlns:xlink="http://www.w3.org/1999/xlink" version="1.1" viewBox="0 -144 1024 1024">
  <g transform="matrix(1 0 0 -1 0 880)">
   <path fill="currentColor"
d="M464 344l3 4l1 -1l28 24l59 -49l-27 -16l-15 -6l-17 -28l-32 -42l-36 -39l-40 -34l-43 -31l-47 -26l-50 -22l-54 -18l-57 -14l-60 -8l-2 9l57 19l53 21l48 23l45 26l40 28l38 31l33 34l29 36l26 40l9 17h-166l-17 -18l-24 -23l6 -1l14 -4l25 -7l11 -4l22 -10l19 -12
l7 -24l-11 -22l-23 -7l-22 11l-2 6l-9 14l-6 7l-15 16l-29 26l-40 -31l-29 -18l-31 -17l-33 -15l-5 8l75 69l43 47l19 24l35 50l15 26v1h-195v21h742l54 54l64 -54v-21h-593l-20 -33l-20 -27l-9 -10h159zM659 60l-13 2l-13 4l-12 7l-11 9l-9 11l-7 12l-4 13l-2 13l-1 14v252
l65 -10l16 -11l-16 -10v-115l107 49l45 24l39 26l17 12l19 -28l21 -23l1 -19l-20 9l-29 -15l-24 -10l-25 -10l-56 -17l-29 -8l-31 -6l-33 -5h-2v-92l1 -5l1 -4l3 -3l4 -1l5 -1l7 -1h231l33 135h10l-10 -135l19 -13l13 -19l-13 -19l-19 -13h-264zM832 518l-43 27l-38 29
l-12 11l-33 -25l-50 -29l-55 -23l-61 -19l-65 -13l-1 5l-13 -2l-14 -1v32l-53 16v17h53h7l5 1l5 2l2 2l1 5l1 5l1 6v220h-323v-274l-64 -32v360l64 -32h129v177l65 -10l16 -11l-16 -10v-146h129l32 27l59 -49l-26 -21v-199l-2 -13l-2 -14l-4 -13l-7 -12l-9 -11l-4 -4l29 11
l54 26l50 28l43 31l26 24l-20 23l-23 38l-18 40l-12 43l-3 23l-21 -18l-25 -19l-27 -17l-6 7l38 49l34 47l29 49l12 26l21 52l7 22l5 13l58 -30l11 -15l-20 -4l-19 -37l-15 -27l-18 -26l-4 -5h167l54 53l65 -53v-22h-91l-14 -52l-22 -52l-27 -49l-34 -43l-11 -11l42 -27
l39 -20l45 -17l90 -28l-63 -55l-52 20zM340 774l16 -11l-16 -10v-237l-65 -33v301zM258 731l14 -14l-22 -8l-5 -14l-7 -17l-18 -32l-10 -15l-23 -28l-14 -13l-12 -13l-8 6l8 16l12 32l9 32l7 31l3 16l1 16l1 11h-1l3 15zM389 634l-1 13l-3 12l-4 13l-9 26l-12 29l-9 13l7 6
l12 -11l13 -10l12 -10l11 -12l20 -24l9 -13l7 -14l7 -14l5 -14l-5 -24l-20 -14l-24 5l-14 20v12zM675 829l-18 -21l-13 -13l13 -27l19 -36l22 -33l25 -30l18 -17l11 13l26 40l21 43l16 47l7 34h-147zM540 927l6 -18l-23 3l-33 -30l-44 -32l-16 -11l-17 -9l-17 -11l-5 7
l12 15l53 73l17 27l13 21h-1l5 8zM154 846l-11 22l-8 11l-18 23l-22 24l-13 13l-14 11l5 8l16 -7l18 -6l32 -15l14 -9l27 -19l12 -10l11 -11l11 -12l3 -24l-14 -20l-24 -4l-20 15z" />
  </g>

</svg>
