<?xml version="1.0" standalone="no"?>
<!DOCTYPE svg PUBLIC "-//W3C//DTD SVG 1.1//EN" "http://www.w3.org/Graphics/SVG/1.1/DTD/svg11.dtd" >
<svg xmlns="http://www.w3.org/2000/svg" xmlns:xlink="http://www.w3.org/1999/xlink" version="1.1" viewBox="0 -144 1024 1024">
  <g transform="matrix(1 0 0 -1 0 880)">
   <path fill="currentColor"
d="M649 850l131 53l50 22l41 21l17 10l6 -13l38 -36l1 -18l-20 8l-17 -7l-46 -16l-55 -15l-63 -14l-35 -7l-37 -5l-8 -1v-214h209l54 54l64 -54v-22h-129v-516l-64 -32v548h-134v-113l-3 -62l-6 -59l-10 -55l-12 -52l-16 -46l-19 -43l-23 -38l-26 -33l-29 -28l-33 -23l-6 8
l24 29l21 31l18 34l16 37l13 41l11 44l8 48l6 52l2 56v59v398zM246 250l10 -17l-21 -2l-18 -27l-16 -22l-36 -42l-20 -20l-22 -19l-23 -19l-25 -16l-26 -16l-6 7l71 90l16 22l14 21l13 22l22 44l12 28zM418 157l-9 15l-10 15l-24 28l-28 26l-16 14l-17 12l4 9l41 -14l20 -9
l18 -9l18 -12l17 -12l15 -13l16 -15l14 -16l12 -17l3 -24l-14 -20l-25 -3l-19 14l-8 16zM36 333h105v478h-95v22h95v145l65 -11l16 -10l-16 -10v-114h165v145l65 -11l16 -10l-16 -10v-114h29l33 37l43 -37v-22h-105v-478h13l44 48l53 -48v-22h-510v22zM206 478v-145h165v145
h-165zM206 645v-145h165v145h-165zM206 811v-145h165v145h-165z" />
  </g>

</svg>
