<?xml version="1.0" standalone="no"?>
<!DOCTYPE svg PUBLIC "-//W3C//DTD SVG 1.1//EN" "http://www.w3.org/Graphics/SVG/1.1/DTD/svg11.dtd" >
<svg xmlns="http://www.w3.org/2000/svg" xmlns:xlink="http://www.w3.org/1999/xlink" version="1.1" viewBox="0 -144 1024 1024">
  <g transform="matrix(1 0 0 -1 0 880)">
   <path fill="currentColor"
d="M901 631l3 2l29 25l60 -49l-27 -16l-15 -6l-22 -35l-42 -57l-34 -39l-31 -31l40 -10l35 -20l28 -24l22 -26l15 -28l10 -28l4 -27l2 -24l-3 -22l-5 -19l-6 -12l-8 -11l-9 -10l-9 -9l-11 -8l-11 -6l-13 -5l-13 -3l-13 -2l-13 -1v32l-54 17v16h54h7l12 2l5 3l5 2l4 3l4 4
l3 4l4 5l4 7l3 6l3 12l2 17v19l-5 21l-8 22l-13 23l-19 23l-26 23l-42 32l57 114l26 59l5 13h-135v-537l-64 -33v624l64 -32h141zM60 302l44 7l17 2l73 119l44 80l27 58l55 -35l10 -17l-21 -2l-21 -33l-36 -51l-41 -52l-46 -51l-12 -12l65 8l23 2l25 2l7 29l5 40l1 12
l63 -19l15 -12l-19 -9l-5 -25l-14 -44l-18 -42l-23 -39l-27 -37l-32 -33l-35 -31l-40 -28l-44 -24l-49 -21l-4 8l42 30l38 30l33 32l29 31l25 34l21 35l17 36l8 25l-12 -5l-44 -18l-65 -22l-43 -13l-8 -21l-14 13l-24 61zM590 160l-16 28l-3 4l-39 -18l-124 -46l-87 -30
l-6 -1l-7 -21l-15 14l-26 60l11 2l96 20v473l65 -32h125l32 27l60 -49l-27 -21v-211l-65 -32v43h-125v-185l85 17l35 6l-5 8l-37 46l-14 15l6 8l18 -11l18 -10l34 -22l30 -23l26 -25l12 -13l11 -13l3 -24l-15 -20l-24 -3l-20 14zM439 484v-93h125v93h-125zM121 457l-3 10
l-4 10l-6 11l-6 10l-8 11l-21 23l-13 10l5 9l15 -8l16 -5l15 -7l3 -2l44 72l27 47l9 19l-12 -6v319l65 -32h529l33 27l59 -49l-27 -21v-211l-65 -33v33h-529l-34 -17l41 -32l9 -18l-23 1l-22 -26l-42 -41l-31 -26l-17 -12l-1 -1l11 -7l12 -11l10 -10l10 -12l9 -13l7 -14
l-4 -24l-19 -16l-24 3l-16 20v9zM439 591v-85h125v85h-125zM247 814v-99h529v99h-529zM247 926v-91h529v91h-529z" />
  </g>

</svg>
