<?xml version="1.0" standalone="no"?>
<!DOCTYPE svg PUBLIC "-//W3C//DTD SVG 1.1//EN" "http://www.w3.org/Graphics/SVG/1.1/DTD/svg11.dtd" >
<svg xmlns="http://www.w3.org/2000/svg" xmlns:xlink="http://www.w3.org/1999/xlink" version="1.1" viewBox="0 -144 1024 1024">
  <g transform="matrix(1 0 0 -1 0 880)">
   <path fill="currentColor"
d="M937 268h11l-11 -134l20 -13l12 -19l-12 -20l-20 -13h-256l-14 2l-13 2l-13 4l-12 7l-11 9l-9 10l-6 13l-5 13l-2 13l-1 13v381l-192 -32l4 -24l-13 -20l-24 -5l-21 14l-13 26l-8 12l-19 24l-22 24l-21 20v-495l-64 -33v499l-28 -71l-21 -46l-22 -44l-24 -42l-28 -41
l-29 -38l-8 4l39 87l35 90l16 46l27 94l11 49l10 50l5 34h-139v22h156v239l64 -11l16 -10l-16 -10v-208h24l54 54l64 -54v-22h-142v-126l20 -6l17 -7l17 -7l31 -19l14 -11l14 -12l7 -7l209 34v279l-95 -18l-62 -9l-65 -7l-2 9l283 84l90 31l77 32l28 13l4 2l5 -11l43 -38
l1 -17l-21 8l-38 -14l-40 -13l-88 -25l-49 -12l-6 -1v-282l186 31l44 61l73 -42l3 -21l-306 -51v-397l1 -5l1 -3l1 -2l1 -1l1 -1l5 -1l4 -1l7 -1h224z" />
  </g>

</svg>
