<?xml version="1.0" standalone="no"?>
<!DOCTYPE svg PUBLIC "-//W3C//DTD SVG 1.1//EN" "http://www.w3.org/Graphics/SVG/1.1/DTD/svg11.dtd" >
<svg xmlns="http://www.w3.org/2000/svg" xmlns:xlink="http://www.w3.org/1999/xlink" version="1.1" viewBox="0 -144 1024 1024">
  <g transform="matrix(1 0 0 -1 0 880)">
   <path fill="currentColor"
d="M501 881h349l54 54l64 -54v-21h-467v-350l-2 -63l-6 -59l-8 -56l-11 -52l-13 -49l-16 -46l-20 -41l-21 -38l-25 -33l-28 -28l-7 6l18 34l17 35l14 38l13 40l11 44l8 47l6 50l5 54l1 57v60v403zM350 476l-16 25l-9 12l-21 24l-24 24l-9 8v-490l-65 -32v495l-29 -73
l-21 -45l-23 -43l-25 -42l-27 -41l-30 -38l-8 6l40 86l35 88l17 46l14 46l25 95l10 50l5 34h-142v21h159v237l65 -11l16 -11l-16 -9v-206h26l54 54l65 -54v-21h-145v-125l20 -6l18 -6l33 -17l15 -10l14 -10l14 -12l12 -12l12 -13l5 -24l-13 -21l-24 -4l-21 13zM691 381h108
l6 1l5 1l3 1h2l1 2l1 1l1 1l1 3l1 5v7v285h-168v-533l1 -6v-5l1 -3l2 -2l1 -1v-1h2l4 -1l4 -1l7 -1h227l32 134h11l-11 -134l20 -13l13 -19l-13 -20l-20 -13h-259l-14 2l-13 2l-14 4l-11 7l-11 9l-9 10l-7 13l-4 13l-3 13v13v586l64 -32h168l32 27l59 -48l-26 -22v-263
l-1 -14l-3 -13l-4 -13l-6 -12l-9 -11l-11 -9l-12 -7l-13 -4l-13 -2l-14 -1v32l-108 16v16z" />
  </g>

</svg>
