<?xml version="1.0" standalone="no"?>
<!DOCTYPE svg PUBLIC "-//W3C//DTD SVG 1.1//EN" "http://www.w3.org/Graphics/SVG/1.1/DTD/svg11.dtd" >
<svg xmlns="http://www.w3.org/2000/svg" xmlns:xlink="http://www.w3.org/1999/xlink" version="1.1" viewBox="0 -144 1024 1024">
  <g transform="matrix(1 0 0 -1 0 880)">
   <path fill="currentColor"
d="M349 501l-10 13l-9 11l-23 24l-21 19v-489l-65 -32v496l-10 -27l-19 -47l-21 -45l-22 -43l-25 -42l-28 -41l-29 -38l-8 6l58 130l17 44l30 92l25 95l10 50l5 34h-141v21h158v237l65 -11l16 -11l-16 -9v-206h25l54 54l64 -54v-21h-143v-125l20 -6l17 -6l17 -8l16 -9
l15 -10l14 -10l14 -12l12 -12l1 -1l48 124l32 94l26 92l11 46l9 45l7 45l2 10l62 -22l14 -13l-19 -7l-7 -26l-12 -47l-24 -71h293l54 54l65 -54v-22h-280v-207h129l53 54l65 -54v-21h-247v-208h140l54 54l64 -54v-21h-258v-245l-65 -32v734h-75l-38 -92l-22 -46l-25 -46
l-26 -45l-20 -30l1 -1l5 -25l-14 -20l-24 -4l-20 13l-6 12z" />
  </g>

</svg>
