<?xml version="1.0" standalone="no"?>
<!DOCTYPE svg PUBLIC "-//W3C//DTD SVG 1.1//EN" "http://www.w3.org/Graphics/SVG/1.1/DTD/svg11.dtd" >
<svg xmlns="http://www.w3.org/2000/svg" xmlns:xlink="http://www.w3.org/1999/xlink" version="1.1" viewBox="0 -144 1024 1024">
  <g transform="matrix(1 0 0 -1 0 880)">
   <path fill="currentColor"
d="M833 137l-44 24l-43 27l-40 29l-39 30l-37 32l-34 33l-32 36l-22 32v-304l-65 -32v300l-43 -47l-40 -36l-42 -33l-45 -31l-47 -29l-51 -25l-53 -24l-56 -19l-59 -17l-4 9l55 26l101 56l45 29l43 31l40 33l37 34l34 36l30 37l7 9h-363v22h411v129l65 -10l16 -11l-16 -10
v-98h292l54 54l64 -54v-22h-396l61 -47l76 -53l81 -47l43 -22l90 -39l83 -31l-61 -52l-49 21zM267 680l-14 18l-9 10l-22 20l-44 32l-1 1l-24 -27l-28 -28l-30 -26l-31 -23l-7 7l47 61l42 62l35 63l15 32l14 32l12 33l10 34l3 8l58 -28l13 -15l-21 -5l-22 -51l-10 -16h157
l32 27l59 -49l-27 -16l-8 -3l-12 -41l-24 -60l-29 -55l-34 -50l-40 -46l-45 -41l-49 -36l-54 -30l-59 -25l-64 -19l-3 9l58 29l54 31l48 34l43 38l37 40l33 45l28 48l24 51l18 56l10 41h-165l-17 -28l-22 -31l-16 -20l17 -4l18 -4l34 -12l30 -14l13 -8l12 -9l12 -10l7 -23
l-11 -22l-24 -7l-22 11zM388 602h167v225h-54v22h226v145l65 -11l16 -10l-16 -10v-114h64l54 54l64 -54v-22h-182v-225h75l54 53l64 -53v-22h-193v-118l-65 -32v150h-339v22zM620 827v-225h107v225h-107z" />
  </g>

</svg>
