<?xml version="1.0" standalone="no"?>
<!DOCTYPE svg PUBLIC "-//W3C//DTD SVG 1.1//EN" "http://www.w3.org/Graphics/SVG/1.1/DTD/svg11.dtd" >
<svg xmlns="http://www.w3.org/2000/svg" xmlns:xlink="http://www.w3.org/1999/xlink" version="1.1" viewBox="0 -144 1024 1024">
  <g transform="matrix(1 0 0 -1 0 880)">
   <path fill="currentColor"
d="M961 243l-8 -12l-8 -10l-10 -9l-12 -7l-12 -5l-13 -4l-13 -2l-14 -1v32l-54 16v16h54l7 1l6 1l5 1l4 2l6 4l3 3l2 5l5 12l6 20l5 26l2 30v34l-4 35l-7 36l-12 35l-17 34l-23 31l-28 34h1l-7 3l48 161l16 58l13 55l2 7h-117v-801l-65 -32v887l65 -32h120l32 26l59 -48
l-27 -16l-9 -4l-22 -59l-25 -57l-28 -59l-34 -59l-15 -23l41 -20l32 -31l26 -36l19 -39l12 -41l8 -40l3 -38v-36l-3 -32l-5 -27l-5 -14zM410 121h64l7 1h5l3 1l1 1l2 1l1 1l1 2v3l1 5l1 7v101l-53 -15l-37 -10l-17 -4l-8 -19l-14 14l-22 62l11 2l37 5l37 6l66 12v112l51 -9
l17 29l17 28l8 14h-217l-13 -17l-24 -3l-20 15l-11 24l-7 13l-7 12l-18 23l-21 24l-3 4v-492l-65 -32v482l-19 -54l-19 -46l-21 -44l-23 -42l-24 -41l-27 -39l-9 5l34 87l32 89l14 45l12 47l11 48l10 49l9 50l5 35h-123v21h138v240l65 -11l16 -11l-16 -9v-209h27l44 49
l54 -49v-21h-125v-128l16 -5l15 -7l30 -16l14 -11l26 -22l22 -26l1 -5h228l3 2l4 6l2 -1l23 19l60 -48l-27 -16l-23 -9l-35 -34l-25 -21l-22 -14v-67l106 23l32 7l3 -9l-28 -17l-60 -28l-53 -20v-123l-1 -14l-2 -14l-4 -13l-7 -12l-9 -10l-10 -9l-13 -7l-13 -4l-13 -3h-14
v32l-64 16v16zM456 755h128l32 27l59 -49l-27 -21v-126l-64 -32v43h-128v-16l-65 -33v239zM456 733v-115h128v115h-128zM344 844h143v131l65 -11l16 -11l-16 -9v-100h62l44 48l54 -48v-22h-368v22z" />
  </g>

</svg>
