<?xml version="1.0" standalone="no"?>
<!DOCTYPE svg PUBLIC "-//W3C//DTD SVG 1.1//EN" "http://www.w3.org/Graphics/SVG/1.1/DTD/svg11.dtd" >
<svg xmlns="http://www.w3.org/2000/svg" xmlns:xlink="http://www.w3.org/1999/xlink" version="1.1" viewBox="0 -144 1024 1024">
  <g transform="matrix(1 0 0 -1 0 880)">
   <path fill="currentColor"
d="M805 68l-49 18l-47 22l-42 24l-37 29l-34 32l-29 36l-23 39l-18 42l2 1h-31l-30 -54l-40 -52l-48 -45l-55 -37l-61 -31l-68 -24l-75 -16l-81 -8l-1 9l78 19l70 24l62 28l54 33l47 38l39 43l33 47l13 26h-395v21h405l22 65l12 59l3 16l62 -21l14 -14l-20 -7l-12 -50
l-19 -48h355l54 54l65 -54v-21h-442l25 -31l29 -30l31 -28l34 -25l36 -22l40 -18l43 -15l46 -13l50 -9l108 -13l-64 -64l-57 11zM331 587l-21 49l-17 31l-18 29v-252l-64 -33v275l-15 -32l-18 -36l-21 -35l-21 -33l-23 -32l-25 -30l-27 -28l-8 6l52 102l31 70l28 73l23 78
l5 20h-108v22h127v155l64 -11l17 -10l-17 -10v-124h25l44 48l54 -48v-22h-123v-76l22 -15l29 -25l13 -14l38 -45l11 -17l2 -24l-15 -19l-25 -2zM877 541l-34 59l-29 60l-12 30l-10 29v-267l-65 -32v249l-30 -57l-18 -28l-18 -26l-21 -23l-21 -21l-8 5l38 82l23 59l20 63
l9 34l9 34l4 18h-89v22h102v155l65 -11l16 -10l-16 -10v-124h40l54 53l65 -53v-22h-159v-10l50 -90l33 -52l37 -51l41 -50l1 -2l-58 -41zM531 501l-17 35l-51 -38l-33 -20l-34 -19l-37 -18l-5 9l88 76l50 51l-10 18l-25 37l-24 33l-12 14l5 8l19 -7l19 -11l18 -13l18 -16
l17 -18l8 -9l34 42l34 49l5 9l51 -41l7 -18l-20 2l-33 -38l-46 -46l28 -43l16 -28l1 -25l-16 -18l-25 -1l-18 16zM507 789l-6 10l-41 -32l-29 -19l-30 -16l-31 -14l-5 8l73 68l42 45l-21 31l-39 52l-15 16l5 8l21 -9l20 -12l19 -13l19 -16l18 -17l3 -3l12 16l36 54l16 29
l3 5l52 -39l8 -17h-20l-30 -40l-45 -48l14 -19l30 -49l1 -24l-17 -19l-24 -1l-19 16l-10 25z" />
  </g>

</svg>
