<?xml version="1.0" standalone="no"?>
<!DOCTYPE svg PUBLIC "-//W3C//DTD SVG 1.1//EN" "http://www.w3.org/Graphics/SVG/1.1/DTD/svg11.dtd" >
<svg xmlns="http://www.w3.org/2000/svg" xmlns:xlink="http://www.w3.org/1999/xlink" version="1.1" viewBox="0 -144 1024 1024">
  <g transform="matrix(1 0 0 -1 0 880)">
   <path fill="currentColor"
d="M528 352h274l32 27l59 -49l-27 -21v-231l-64 -32v43h-274v-16l-64 -33v344zM320 483l-13 25l-8 12l-9 12l-20 23l-18 18v-498l-64 -32v494l-23 -62l-20 -46l-21 -45l-24 -43l-25 -41l-28 -39l-9 5l54 132l30 92l13 47l12 49l11 48l9 51l5 35h-129v21h145v242l64 -10
l16 -11l-16 -10v-211h14l54 54l64 -54v-21h-132v-128l18 -6l16 -7l31 -17l14 -10l14 -11l13 -11l12 -13l11 -14l4 -24l-15 -20l-24 -4l-20 15zM528 213v-103h274v103h-274zM528 330v-95h274v95h-274zM879 708l-63 49l-30 28l-28 30l-27 31l-24 34l-23 36l-5 9l-32 -42
l-31 -37l-34 -35l-36 -33l-37 -31l-39 -29l-41 -27l-15 -7l64 -32h374l32 27l59 -49l-27 -21v-184l-64 -32v32h-374l-64 -32v290l-29 -16l-46 -21l-4 8l77 61l70 62l33 34l30 34l29 36l27 37l25 38l23 40l3 5l52 -39l9 -17h-20l-3 -4l70 -68l29 -26l61 -46l31 -21l32 -18
l32 -17l64 -29l-61 -49l-35 19zM478 630v-183h155v183h-155zM697 630v-183h155v183h-155zM833 571l9 -17h-24l-35 -36l-36 -34l-13 -11l-12 -13l-8 6l9 15l7 16l38 84l6 12l3 7l-1 1l2 4l3 5zM543 511l-3 11l-4 11l-4 11l-10 22l-13 22l-9 10l6 7l11 -7l13 -7l12 -7l11 -8
l21 -19l10 -11l17 -22l7 -13l-1 -24l-18 -18l-24 2l-18 17l-1 12zM805 741v-21h-280v21h162l53 54z" />
  </g>

</svg>
