<?xml version="1.0" standalone="no"?>
<!DOCTYPE svg PUBLIC "-//W3C//DTD SVG 1.1//EN" "http://www.w3.org/Graphics/SVG/1.1/DTD/svg11.dtd" >
<svg xmlns="http://www.w3.org/2000/svg" xmlns:xlink="http://www.w3.org/1999/xlink" version="1.1" viewBox="0 -144 1024 1024">
  <g transform="matrix(1 0 0 -1 0 880)">
   <path fill="currentColor"
d="M862 102l-32 41l-26 49l-21 56l-16 66l-13 74l-8 83l-1 41l-20 -12l-29 -12l-29 -24l-36 -27l-12 -11l-7 7l10 12l6 15l7 13l17 35l3 8h-512v-8v-18l-1 -16l-4 -16l-5 -15l-7 -15l-10 -13l-12 -11l-24 -3l-20 14l-3 24l14 20l6 2l7 3l7 5l6 7l6 10l7 12l6 14l9 35l2 20
l10 1l2 -21l1 -9h227v102l64 -10l16 -11l-16 -10v-71h230l4 3l1 3l1 -1l26 22l51 -42l-1 39v88h-575v22h575l32 26l60 -48l-27 -16h-1v-71l4 -88l7 -79l12 -69l15 -60l19 -50l21 -39l24 -31l17 -15l27 115h11l-11 -131l10 -5l18 -16l2 -25l-16 -18l-25 -2l-43 21zM566 101
l-28 19l-31 18l-33 16l-23 11l-29 -22l-50 -27l-57 -21l-65 -16l-72 -12l-80 -6l-2 10l78 16l69 19l60 22l51 25l42 27l6 5l-82 27l-33 9l-19 -40l-72 -3l76 167h-206v21h216l63 137l54 -36l10 -17l-19 -4l-37 -80h261l53 54l65 -54v-21h-182l-7 -43l-17 -47l-26 -43
l-13 -14l41 -15l36 -16l33 -17l32 -20l30 -21l11 -22l-7 -24l-23 -11l-23 7l-24 22zM343 345l-51 -112l31 -1l45 -6l43 -7l22 -6l23 30l17 35l11 38l1 29h-142zM320 963l12 -15l-20 -5l-9 -22l-18 -40h528l54 54l64 -54v-21h-658l-10 -18l-24 -36l-25 -34l-28 -33l-30 -30
l-32 -27l-35 -25l-37 -21l-6 8l31 29l53 60l24 32l23 33l21 34l18 36l16 37l14 38l13 40l2 8zM867 774v-22h-613v22h515l44 48z" />
  </g>

</svg>
