<?xml version="1.0" standalone="no"?>
<!DOCTYPE svg PUBLIC "-//W3C//DTD SVG 1.1//EN" "http://www.w3.org/Graphics/SVG/1.1/DTD/svg11.dtd" >
<svg xmlns="http://www.w3.org/2000/svg" xmlns:xlink="http://www.w3.org/1999/xlink" version="1.1" viewBox="0 -144 1024 1024">
  <g transform="matrix(1 0 0 -1 0 880)">
   <path fill="currentColor"
d="M351 107h107l7 1l5 1l4 1l3 2l1 5l1 5l1 7v591l52 -9l181 176h-513v21h535l13 14l3 -3l19 16l59 -48l-27 -17l-30 -12l-57 -45l-80 -58l-56 -37l-25 -15l6 -5l-16 -9v-560l-1 -14l-2 -13l-4 -13l-7 -13l-9 -10l-11 -9l-12 -7l-13 -4l-13 -2l-14 -1v32l-107 16v16z
M431 618l-27 -16l-8 -4l-11 -37l-23 -57l-26 -56l-29 -52l-33 -51l-36 -48l-39 -46l-44 -43l-47 -41l-50 -36l-6 7l43 44l40 46l36 46l34 47l31 48l27 51l24 52l21 53l18 55l10 38h-259v21h263l32 27zM825 225l-50 43l-46 47l-41 51l-38 55l-33 58l-29 61l-23 67l-19 69
l10 3l30 -64l31 -61l34 -56l6 -9l23 28l68 73l138 136h-1l5 5l42 -49l4 -19l-19 6l-192 -155l-51 -35l-7 -4l20 -29l40 -49l42 -44l45 -41l49 -36l51 -33l83 -43l-61 -49l-57 35z" />
  </g>

</svg>
