<?xml version="1.0" standalone="no"?>
<!DOCTYPE svg PUBLIC "-//W3C//DTD SVG 1.1//EN" "http://www.w3.org/Graphics/SVG/1.1/DTD/svg11.dtd" >
<svg xmlns="http://www.w3.org/2000/svg" xmlns:xlink="http://www.w3.org/1999/xlink" version="1.1" viewBox="0 -144 1024 1024">
  <g transform="matrix(1 0 0 -1 0 880)">
   <path fill="currentColor"
d="M187 54l-22 11l-8 23l3 38v34l-2 32l-6 27l-7 26l-8 15l-1 1v1l-15 25l-18 18l-19 17l-25 16l3 9l30 -7l28 -11l25 -17l9 -8l131 261l74 136l8 -4l-138 -352l-22 -64l-6 -22l-3 -15l-2 1l4 -9l11 -34l7 -36l3 -40v-43l-11 -22zM481 91l-13 3l-13 4l-12 6l-11 10l-9 10
l-6 12l-4 14l-3 12l-1 14v567h-78v22h285v200l64 -11l16 -11l-16 -10v-168h166l54 53l64 -53v-22h-490v-567v-6l1 -5l1 -3l2 -3l3 -2l3 -1l5 -1h6h411l19 -13l13 -19l-13 -20l-19 -13h-411zM159 610l-7 11l-9 11l-11 11l-28 22l-33 23l-20 10l2 9l23 -5l22 -5l20 -5l19 -7
l18 -8l17 -9l15 -9l14 -12l13 -12l11 -14l3 -24l-15 -20l-25 -3l-19 15l-4 11zM235 857l-8 11l-9 11l-23 23l-28 22l-17 12l-19 9l4 9l21 -5l20 -4l19 -6l19 -7l17 -8l16 -8l15 -11l14 -10l13 -13l12 -13l3 -24l-13 -20l-25 -4l-20 14l-5 11z" />
  </g>

</svg>
