<?xml version="1.0" standalone="no"?>
<!DOCTYPE svg PUBLIC "-//W3C//DTD SVG 1.1//EN" "http://www.w3.org/Graphics/SVG/1.1/DTD/svg11.dtd" >
<svg xmlns="http://www.w3.org/2000/svg" xmlns:xlink="http://www.w3.org/1999/xlink" version="1.1" viewBox="0 -144 1024 1024">
  <g transform="matrix(1 0 0 -1 0 880)">
   <path fill="currentColor"
d="M706 967l16 -10l-16 -10v-189h180l32 26l59 -48l-27 -21v-350l-64 -32v64h-180v-311l-65 -33v344h-180v-64l-65 -32v489l65 -32h180v220zM181 54l-22 11l-8 23l3 38v34l-2 32l-6 27l-8 25l-8 17h-1l1 1l-3 5l-14 20l-17 18l-21 17l-25 16l3 9l31 -7l28 -11l26 -17l10 -9
l102 203l107 195l9 -4l-126 -310l-30 -78l-9 -29l-7 -22l-3 -14l-2 1l5 -9l10 -34l8 -36l3 -40v-43l-11 -22zM461 736v-317h180v317h-180zM706 736v-317h180v317h-180zM153 610l-7 11l-10 11l-24 22l-15 11l-35 23l-21 10l3 9l23 -5l22 -4l21 -6l20 -6l35 -17l15 -10l15 -12
l13 -12l12 -13l2 -25l-14 -20l-24 -3l-20 15l-5 10zM231 857l-8 11l-9 11l-12 11l-26 22l-33 24l-19 9l4 9l21 -5l21 -4l19 -6l19 -7l34 -16l16 -10l27 -23l12 -14l4 -24l-14 -20l-24 -4l-20 13l-6 12z" />
  </g>

</svg>
