<?xml version="1.0" standalone="no"?>
<!DOCTYPE svg PUBLIC "-//W3C//DTD SVG 1.1//EN" "http://www.w3.org/Graphics/SVG/1.1/DTD/svg11.dtd" >
<svg xmlns="http://www.w3.org/2000/svg" xmlns:xlink="http://www.w3.org/1999/xlink" version="1.1" viewBox="0 -144 1024 1024">
  <g transform="matrix(1 0 0 -1 0 880)">
   <path fill="currentColor"
d="M178 54l-21 11l-8 23l3 38v35l-2 31l-6 28l-7 25l-7 15h-2l1 3l-2 4l-13 20l-15 18l-20 17l-23 16l3 9l29 -7l28 -11l23 -17l7 -7l96 200l101 196l8 -4l-116 -309l-27 -78l-15 -51l-2 -14l-4 1l5 -11l10 -33l7 -36l4 -40v-43l-11 -22zM816 89l-8 -10l-10 -10l-10 -8
l-12 -7l-12 -5l-13 -3l-13 -2l-14 -1v32l-107 16v16h107l7 1l7 1l5 1l4 2l5 2l3 3l4 4l3 4l3 5l3 7l4 10l8 27l3 17l4 18l6 41l6 48l1 13h-274l-17 -70l-71 -15l56 225h-136v22h142l29 118h-45v21h196l53 54l65 -54v-21h-203l-29 -118h239l54 53l64 -53v-22h-362l-30 -118
h270l32 27l59 -49l-27 -16l-2 -1l-6 -53l-3 -22l-8 -41l-3 -19l-10 -32l-5 -14l-6 -12zM875 533l-29 29l-28 31l-26 32l-25 34l-23 35l-22 37l-20 39l-15 37h-77l-37 -67l-35 -51l-39 -49l-43 -46l-48 -44l-52 -41l-57 -38l-6 7l50 46l45 47l41 47l38 48l33 49l29 50l21 42
h-238v22h247l17 41l17 54l15 66l61 -24l13 -14l-19 -7l-12 -39l-21 -57l-10 -20h227l54 53l64 -53v-22h-264l74 -90l27 -30l56 -56l29 -26l60 -46l49 -34l-59 -45l-32 26zM151 611l-7 11l-9 10l-22 22l-13 12l-33 22l-19 10l3 9l22 -5l21 -5l19 -6l18 -6l18 -8l16 -9l15 -10
l13 -11l13 -13l10 -13l3 -25l-16 -19l-24 -2l-19 15l-4 10zM223 858l-7 11l-18 22l-25 22l-30 23l-18 9l4 9l39 -10l19 -5l18 -7l32 -17l15 -10l13 -11l13 -12l11 -13l3 -24l-14 -20l-25 -3l-19 14l-5 11z" />
  </g>

</svg>
