<?xml version="1.0" standalone="no"?>
<!DOCTYPE svg PUBLIC "-//W3C//DTD SVG 1.1//EN" "http://www.w3.org/Graphics/SVG/1.1/DTD/svg11.dtd" >
<svg xmlns="http://www.w3.org/2000/svg" xmlns:xlink="http://www.w3.org/1999/xlink" version="1.1" viewBox="0 -144 1024 1024">
  <g transform="matrix(1 0 0 -1 0 880)">
   <path fill="currentColor"
d="M335 897h533l54 54l65 -54v-21h-296l-10 -22l-11 -22l-12 -21l-26 -37l-29 -34l-15 -14l-15 -11h303l32 26l59 -48l-27 -21v-543l-64 -33v65h-430v-65l-65 -32v683l65 -32h106l6 9l20 35l17 37l16 38l7 21l6 21h-289v21zM185 54l-22 12l-8 23l3 38l1 34l-3 32l-5 28
l-8 25l-9 16v1l-3 5l-14 20l-16 19l-21 17l-25 15l3 9l30 -6l29 -11l25 -17l10 -10l133 264l75 136l9 -4l-141 -353l-23 -65l-6 -22l-4 -15l-2 1l5 -9l11 -34l7 -36l4 -40v-43l-12 -22zM446 693v-511h430v511h-430zM607 548h108l32 27l59 -49l-27 -21v-194l-64 -32v65h-108
v-65l-65 -32v333zM607 526v-161h108v161h-108zM158 613l-8 11l-9 11l-12 11l-13 12l-31 22l-18 11l-21 11l3 9l23 -6l22 -4l21 -5l19 -7l18 -8l17 -9l16 -10l14 -11l13 -13l11 -14l4 -24l-16 -20l-24 -3l-20 15l-4 11zM235 861l-8 12l-10 10l-23 23l-29 23l-17 11l-19 10
l3 9l21 -5l21 -4l20 -6l18 -7l18 -8l31 -19l28 -23l12 -13l3 -24l-13 -21l-25 -4l-20 14l-5 11z" />
  </g>

</svg>
