<?xml version="1.0" standalone="no"?>
<!DOCTYPE svg PUBLIC "-//W3C//DTD SVG 1.1//EN" "http://www.w3.org/Graphics/SVG/1.1/DTD/svg11.dtd" >
<svg xmlns="http://www.w3.org/2000/svg" xmlns:xlink="http://www.w3.org/1999/xlink" version="1.1" viewBox="0 -144 1024 1024">
  <g transform="matrix(1 0 0 -1 0 880)">
   <path fill="currentColor"
d="M463 447h383l32 27l59 -49l-27 -21v-310l-64 -32v54h-383v-38l-65 -32v433zM183 54l-22 11l-8 23l4 38v35l-3 31l-5 28l-7 25l-8 15l-2 1l1 2l-15 24l-17 18l-20 17l-23 16l3 9l30 -7l27 -11l25 -17l8 -8l98 201l64 125l39 71l8 -4l-147 -387l-10 -29l-5 -22l-3 -15l-3 1
l4 -10l11 -33l7 -36l4 -40v-43l-12 -22zM463 275v-138h383v138h-383zM463 425v-129h383v129h-383zM526 743h256l33 26l59 -48l-27 -21v-155l-65 -33v54h-256v-37l-65 -33v279zM156 610l-7 11l-10 11l-10 11l-12 11l-47 34l-20 10l2 9l22 -5l22 -5l20 -5l19 -7l17 -8l16 -9
l16 -10l14 -11l12 -13l12 -13l2 -25l-15 -19l-24 -2l-20 15l-4 10zM526 721v-133h256v133h-256zM230 857l-8 11l-8 12l-23 22l-13 11l-30 23l-19 9l3 9l21 -5l20 -4l19 -6l18 -7l17 -8l31 -19l14 -11l12 -12l12 -13l3 -24l-14 -20l-24 -4l-20 15l-5 10zM332 853h290v135
l65 -11l16 -11l-16 -9v-104h171l54 54l64 -54v-21h-644v21z" />
  </g>

</svg>
