<?xml version="1.0" standalone="no"?>
<!DOCTYPE svg PUBLIC "-//W3C//DTD SVG 1.1//EN" "http://www.w3.org/Graphics/SVG/1.1/DTD/svg11.dtd" >
<svg xmlns="http://www.w3.org/2000/svg" xmlns:xlink="http://www.w3.org/1999/xlink" version="1.1" viewBox="0 -144 1024 1024">
  <g transform="matrix(1 0 0 -1 0 880)">
   <path fill="currentColor"
d="M639 606l41 -38l1 -17l-20 8l-45 -15l-23 -7l-23 -7l-25 -6l-50 -9l-25 -4l-23 -2v-158h78l44 49l54 -49v-21h-176v-171h402v171h-175v21h175v159h-193v21h193l32 27l59 -48l-26 -22v-383l-65 -32v64h-402v-64l-65 -33v514l56 -28l115 50l76 39l4 2zM179 37l-22 11l-8 23
l3 38v34l-2 31l-5 27l-8 25l-7 15l-2 1v2l-15 24l-16 18l-20 16l-24 16l3 9l30 -6l28 -12l24 -16l8 -8l129 258l74 134l9 -4l-137 -348l-22 -64l-6 -21l-2 -15l-3 1l4 -9l11 -33l7 -36l4 -39v-43l-12 -21zM151 588l-7 10l-9 11l-10 11l-13 11l-47 34l-21 9l4 10l22 -5l21 -5
l20 -5l19 -7l18 -8l16 -8l15 -10l14 -11l13 -13l11 -13l3 -25l-15 -19l-24 -3l-20 15l-4 10zM897 781l13 -15l-20 -6l-11 -29l-10 -23l-23 -44l-12 -21l-27 -38l-31 -32l-8 6l8 19l23 62l14 43l6 23l6 23l5 24l4 19h-1l4 15zM450 650l-7 31l-12 31l-22 47l-10 15l6 7l30 -24
l14 -12l12 -14l12 -14l21 -31l9 -17l8 -18l6 -18l-4 -24l-20 -14l-24 4l-15 20l-1 15zM629 672l-5 28l-2 14l-4 13l-11 40l-4 13l-7 11l7 6l11 -9l11 -9l20 -22l9 -12l18 -27l7 -14l7 -15l7 -16l-4 -24l-20 -15l-24 4l-15 20zM226 832l-8 11l-8 11l-23 22l-28 22l-16 12
l-19 9l4 10l21 -6l19 -4l20 -6l18 -6l17 -8l16 -9l28 -21l13 -11l12 -13l3 -25l-14 -20l-24 -4l-20 14l-5 11zM893 940l46 -40l1 -18l-21 10l-60 -20l-53 -16l-55 -13l-56 -11l-56 -9l-57 -7l-57 -4l-58 -2l-59 1l-59 5v9l116 14l56 8l56 10l54 11l54 13l52 14l52 16l50 19
l50 20z" />
  </g>

</svg>
