<?xml version="1.0" standalone="no"?>
<!DOCTYPE svg PUBLIC "-//W3C//DTD SVG 1.1//EN" "http://www.w3.org/Graphics/SVG/1.1/DTD/svg11.dtd" >
<svg xmlns="http://www.w3.org/2000/svg" xmlns:xlink="http://www.w3.org/1999/xlink" version="1.1" viewBox="0 -144 1024 1024">
  <g transform="matrix(1 0 0 -1 0 880)">
   <path fill="currentColor"
d="M175 54l-22 11l-8 23l4 38v35l-3 31l-4 28l-8 25l-7 15h-3l1 3l-2 4l-13 20l-16 18l-19 17l-23 16l3 9l29 -7l27 -11l25 -17l7 -8l97 201l102 196l9 -4l-119 -310l-27 -77l-9 -29l-6 -22l-3 -14l-3 1l5 -11l11 -33l7 -36l3 -40v-43l-11 -22zM364 97l-8 24l11 22l10 7
l10 9l9 13l9 15l8 18l8 22l6 24l6 26l5 30l4 31l10 1l4 -33l3 -31l1 -28l-2 -28l-2 -25l-5 -23l-7 -22l-9 -20l-12 -19l-14 -16l-23 -8zM907 95l-8 -11l-9 -10l-11 -8l-11 -6l-12 -6l-13 -3l-13 -2l-14 -1v32l-107 16v16h107l7 1l7 1l9 3l4 2l4 4l3 3l3 4l4 6l3 7l5 14l5 18
l4 22l4 26l3 29l3 33l2 35l2 39l1 76h-368l-27 -35l-27 -32l-29 -29l-31 -27l-32 -26l-35 -22l-37 -21l-5 8l58 57l52 59l24 30l22 32l20 33l19 34l17 35l17 38h-99v-64l-64 -32v440l53 -26l88 44l58 31l30 18v1v-1l4 3l7 -13l38 -37l1 -17l-21 8l-15 -6l-42 -15l-22 -7
l-22 -6l-24 -6l-23 -5l-25 -5l-21 -3v-124h95l44 48l54 -48v-22h-193v-134h410v134h-170v22h170v134h-166v22h166l32 27l59 -49l-27 -21v-312l-64 -32v53h-302l49 -28l10 -17l-21 -2l-31 -55l-7 -10h353l32 26l59 -48l-27 -16v-19l-1 -43l-1 -40l-2 -37l-4 -34l-3 -31
l-5 -28l-5 -26l-6 -22l-6 -21l-6 -12zM547 129l-20 14l-6 23l3 13l4 14l2 15l1 16v17v18l-2 20l-2 20l-3 22l-4 22l9 3l10 -21l11 -19l9 -20l7 -19l7 -19l5 -19l3 -19l3 -18l1 -19l-1 -18l-13 -20zM647 228l-2 16l-2 16l-4 15l-4 16l-11 31l-7 16l-8 15l7 6l27 -24l12 -13
l11 -15l11 -15l9 -16l8 -17l8 -18l6 -18l6 -20l-7 -23l-21 -13l-23 6l-13 21l-1 17zM761 283l-4 13l-6 13l-7 14l-8 13l-19 26l-11 12l5 8l15 -9l16 -8l15 -9l14 -11l12 -12l12 -12l21 -28l9 -15l8 -17l-3 -24l-19 -16l-24 3l-16 19l-5 26zM148 611l-7 10l-9 11l-10 11
l-13 11l-29 22l-17 12l-19 10l2 9l22 -5l21 -5l20 -5l19 -7l17 -8l16 -9l16 -10l13 -11l12 -13l12 -13l2 -25l-15 -19l-24 -2l-20 15l-4 10zM221 858l-16 22l-10 11l-25 22l-30 23l-18 9l3 9l20 -5l20 -4l19 -6l18 -7l16 -8l17 -9l14 -10l14 -11l12 -12l12 -13l4 -24
l-15 -20l-24 -4l-20 15l-5 10z" />
  </g>

</svg>
