<?xml version="1.0" standalone="no"?>
<!DOCTYPE svg PUBLIC "-//W3C//DTD SVG 1.1//EN" "http://www.w3.org/Graphics/SVG/1.1/DTD/svg11.dtd" >
<svg xmlns="http://www.w3.org/2000/svg" xmlns:xlink="http://www.w3.org/1999/xlink" version="1.1" viewBox="0 -144 1024 1024">
  <g transform="matrix(1 0 0 -1 0 880)">
   <path fill="currentColor"
d="M162 54l-21 11l-9 23l3 38l1 35l-2 31l-5 29l-7 24l-6 14l-3 1l1 4l-1 4l-12 20l-15 17l-18 17l-20 16l3 9l28 -7l25 -12l23 -17l4 -4l118 257l67 137l9 -4l-122 -351l-20 -65l-5 -22l-3 -14l-4 1l6 -11l10 -33l6 -36l3 -40v-43l-11 -21zM546 202v-74h234v74h-234z
M546 291v-68h234v68h-234zM546 381v-68h234v68h-234zM858 370l-14 -11v-274l-64 -32v54h-234v-38l-64 -32v338l-17 -11l-37 -22l-35 -17l-5 -27l-11 -49l-13 -46l-16 -42l-18 -37l-21 -34l-24 -29l-8 6l14 33l12 35l12 38l9 41l8 45l7 47l5 52l2 54l1 59v61v290l64 -32h189
v193l65 -10l16 -11l-16 -10v-60h156l53 54l65 -54v-22h-274v-80h238l32 27l59 -49l-27 -16l-15 -6l-18 -28l-18 -24l-19 -23l-10 -11l-9 -12l-8 5l5 13l11 44l3 13l11 45h-489v-236l-2 -56l71 90l25 37l22 36l8 14h-1l6 9l52 -39l8 -18l-22 1l-32 -37l-33 -33l-38 -31
l-21 -15l-43 -26l-2 3l-5 -59l-7 -56l-1 -11l51 45l30 29l5 5v14l9 -4l40 46l25 33l24 35l22 37l21 38l19 41l3 6l55 -35l10 -16l-20 -2l-12 -21l71 -67l54 -45l55 -37l55 -28l61 -26l-61 -51l-31 17zM651 550l-27 -37l-29 -35l-30 -32l-31 -30l-6 -5l18 -9h234l17 15
l-27 25l-50 56l-23 32l-22 34l-7 13zM833 552l-21 20l-37 27l-29 17l-15 7l2 9l17 -2l18 -1l18 -3l16 -4l17 -5l16 -6l16 -7l16 -8l29 -19l10 -22l-9 -23l-22 -10l-23 8zM135 611l-7 11l-7 11l-21 22l-27 22l-15 11l-18 10l3 9l20 -6l20 -4l19 -6l17 -7l17 -8l15 -8l14 -10
l13 -12l11 -12l11 -13l2 -25l-16 -19l-25 -2l-18 16l-4 10zM845 715v-22h-392v22h295l44 48zM202 859l-6 10l-17 22l-11 11l-24 22l-15 12l-16 9l3 9l19 -6l18 -4l18 -6l17 -7l16 -7l14 -9l14 -11l13 -10l12 -12l11 -14l3 -24l-15 -20l-25 -2l-19 15l-4 10z" />
  </g>

</svg>
