<?xml version="1.0" standalone="no"?>
<!DOCTYPE svg PUBLIC "-//W3C//DTD SVG 1.1//EN" "http://www.w3.org/Graphics/SVG/1.1/DTD/svg11.dtd" >
<svg xmlns="http://www.w3.org/2000/svg" xmlns:xlink="http://www.w3.org/1999/xlink" version="1.1" viewBox="0 -144 1024 1024">
  <g transform="matrix(1 0 0 -1 0 880)">
   <path fill="currentColor"
d="M703 220h125l54 54l64 -54v-22h-243v-127l-65 -33v160h-243v22h243v133h-258v22h113v155h-131v21h131v155h-77v21h390l54 54l64 -54v-21h-76v-155h12l54 54l65 -54v-21h-131v-155h15l44 48l54 -48v-22h-258v-133zM299 235l-6 18l-8 19l-9 20l-23 41l-25 42l-3 -17
l-15 -56l-18 -52l-21 -47l-26 -43l-30 -38l-33 -34l-37 -27l-6 7l28 34l25 37l22 39l20 42l16 46l12 49l10 52l6 57l3 60l1 64v419l64 -10l17 -11l-17 -10v-267l48 69l42 63l2 2l48 -43l6 -18l-21 3l-92 -85l-33 -27v-85l-3 -67l-7 -64l-4 -21l28 -24l37 -37l16 -19l27 -39
l11 -19l10 -20l9 -20l-4 -25l-19 -15l-24 3l-15 19l-4 17zM558 530v-155h80v155h-80zM703 530v-155h80v155h-80zM59 475l-14 20l3 24l10 15l8 17l8 20l6 21l6 24l4 26l3 28l2 31l2 32l1 35l10 1l9 -34l7 -33l5 -31l2 -31v-29l-1 -28l-3 -25l-6 -26l-8 -23l-10 -22l-19 -15z
M558 706v-155h80v155h-80zM703 706v-155h80v155h-80zM804 981l17 -11l-17 -9v-76h64l54 54l64 -54v-21h-182v-82l-64 -32v114h-139v-82l-64 -32v114h-183v21h183v107l64 -11l16 -11l-16 -9v-76h139v107z" />
  </g>

</svg>
