<?xml version="1.0" standalone="no"?>
<!DOCTYPE svg PUBLIC "-//W3C//DTD SVG 1.1//EN" "http://www.w3.org/Graphics/SVG/1.1/DTD/svg11.dtd" >
<svg xmlns="http://www.w3.org/2000/svg" xmlns:xlink="http://www.w3.org/1999/xlink" version="1.1" viewBox="0 -144 1024 1024">
  <g transform="matrix(1 0 0 -1 0 880)">
   <path fill="currentColor"
d="M888 540l6 9l3 -2l24 20l59 -48l-27 -16l-23 -10l-28 -27l-54 -45l-43 -31l-24 -15l-10 -5l46 -6l46 -16l37 -18l28 -21l21 -24l14 -24l6 -25l2 -23l-5 -21l-8 -18l-9 -10l-10 -10l-9 -8l-11 -7l-11 -6l-12 -5l-13 -4l-12 -3l-13 -2h-13v32l-64 16v16h64l8 1l7 1l14 3
l6 3l6 3l5 4l5 4l6 6l5 6l2 1l2 6l2 10l-1 13l-5 15l-12 18l-19 20l-29 20l-39 21l-50 23h-1l-6 7l85 99l39 51l1 1h-203v-440l-64 -33v527l64 -33h215zM117 189l13 2v328h-86v21h420l53 54l65 -54v-21h-124v-440l-64 -33v150l-48 -14l-77 -20l-109 -23l-79 -15l-10 -19
l-12 15l-19 63zM195 294v-98l147 14l40 3l12 1v80h-199zM195 407v-91h199v91h-199zM195 519v-91h199v91h-199zM749 617l-75 19l-67 23l-62 27l-30 16l-44 -23l-70 -28l-76 -24l-84 -19l-92 -15l-99 -10l-1 10l97 20l89 23l80 25l72 28l63 30l19 12l-25 19l-41 37l-31 42
l-23 44l8 6l32 -36l36 -33l41 -29l43 -24l42 33l38 39l30 40l22 44l3 7l56 -33l10 -17l-21 -2l-19 -32l-38 -46l-46 -42l-23 -16l61 -21l65 -17l72 -15l78 -11l85 -8l57 -6l-64 -65l-87 12zM416 944l2 -19l-20 7l-33 -22l-61 -31l-33 -15l-36 -14l-38 -14l-41 -12l-43 -12
l-46 -9l-3 9l154 75l63 36l51 35l22 18l16 14l4 4zM878 841l-51 30l-27 15l-60 27l-138 53l2 10l39 -4l38 -5l37 -7l69 -18l63 -22l29 -12l29 -14l27 -14l14 -20l-4 -25l-21 -13l-24 3z" />
  </g>

</svg>
