<?xml version="1.0" standalone="no"?>
<!DOCTYPE svg PUBLIC "-//W3C//DTD SVG 1.1//EN" "http://www.w3.org/Graphics/SVG/1.1/DTD/svg11.dtd" >
<svg xmlns="http://www.w3.org/2000/svg" xmlns:xlink="http://www.w3.org/1999/xlink" version="1.1" viewBox="0 -144 1024 1024">
  <g transform="matrix(1 0 0 -1 0 880)">
   <path fill="currentColor"
d="M832 148l-42 55l-37 61l-32 64l-28 68l-22 73l-17 77l-4 28l-4 -24l-17 -81l-23 -74l-29 -70l-33 -64l-40 -57l-44 -51l-49 -45l-54 -39l-59 -30l-5 8l52 39l47 43l42 47l37 52l32 56l28 61l23 66l19 72l13 77l9 79v33h-237v21h237v296l64 -11l16 -11l-16 -9v-265h188
l54 54l65 -54v-21h-307v-17l26 -101l23 -73l27 -69l31 -62l34 -59l38 -52l41 -49l45 -43l49 -38l16 -12l-59 -45l-51 46zM305 89l-9 -9l-10 -9l-11 -7l-11 -6l-13 -4l-13 -3l-13 -2l-13 -1v32l-75 16v16h75l8 1l6 1l6 2l6 1l5 3l5 3l4 4l4 4l4 6l5 6l15 35l14 57l10 74l3 85
l-5 95l-4 25l-25 -43l-52 -72l-29 -34l-31 -32l-33 -30l-35 -28l-37 -26l-7 7l59 67l27 34l49 69l42 72l34 76l15 40l4 -2l-22 75l-14 33l-28 -30l-37 -33l-40 -31l-40 -26l-43 -24l-5 8l36 32l67 66l32 36l31 39l7 10l-8 18l-58 92l-73 89l6 7l90 -77l67 -93l1 -2l25 38
l26 45l48 96l3 8l56 -34l9 -16l-19 -2l-18 -33l-29 -48l-31 -45l-33 -43l-13 -15l25 -50l34 -104l2 -7l2 -1l-1 -3l18 -92l9 -99v-91l-8 -80l-14 -65l-18 -49l-8 -11zM831 822l-7 16l-9 16l-10 16l-12 16l-14 16l-33 32l-19 16l4 9l47 -21l21 -11l19 -14l18 -13l17 -16
l14 -17l14 -18l11 -19l10 -20l-2 -24l-19 -17l-24 3l-17 18l-4 17z" />
  </g>

</svg>
