<?xml version="1.0" standalone="no"?>
<!DOCTYPE svg PUBLIC "-//W3C//DTD SVG 1.1//EN" "http://www.w3.org/Graphics/SVG/1.1/DTD/svg11.dtd" >
<svg xmlns="http://www.w3.org/2000/svg" xmlns:xlink="http://www.w3.org/1999/xlink" version="1.1" viewBox="0 -144 1024 1024">
  <g transform="matrix(1 0 0 -1 0 880)">
   <path fill="currentColor"
d="M631 112h114l5 2l3 1l1 1h2l1 1l1 5l1 5l1 7v417h-359v21h359v205l64 -10l16 -11l-16 -10v-174h31l44 49l54 -49v-21h-129v-417l-1 -14l-2 -13l-4 -13l-7 -13l-9 -10l-11 -9l-12 -7l-13 -4l-13 -3h-14v32l-107 16v16zM308 88l-9 -9l-11 -8l-10 -7l-12 -6l-13 -4l-12 -3
l-13 -2l-13 -1v32l-76 16v16h76l7 1l7 1l6 2l6 1l5 3l5 3l5 4l4 4l4 6l4 6l17 35l15 57l10 74l3 85l-6 94l-5 29l-28 -46l-26 -37l-28 -36l-30 -33l-32 -32l-35 -30l-36 -29l-39 -26l-7 9l62 66l56 68l48 71l21 36l19 38l17 39l15 39l4 -1l-23 74l-15 34l-31 -31l-39 -33
l-41 -31l-42 -27l-45 -23l-5 8l38 32l36 32l35 35l34 36l32 38l8 10l-9 18l-61 92l-77 89l6 7l93 -77l71 -93l2 -3l27 40l28 45l26 48l25 50l3 5l55 -34l9 -17l-20 -2l-18 -32l-31 -49l-33 -45l-34 -42l-13 -15l26 -49l36 -105l1 -7l2 -1l-1 -3l19 -92l10 -99l-1 -92l-8 -79
l-14 -66l-20 -49l-8 -12zM577 338l-5 16l-5 15l-7 16l-7 16l-19 32l-11 17l-13 15l6 8l35 -24l16 -13l15 -13l26 -30l11 -17l10 -17l8 -18l8 -18l-5 -25l-19 -14l-25 4l-14 20l-2 15zM368 646l-9 23l9 23l6 5l7 8l7 12l7 15l7 18l6 20l6 25l10 56l3 32l10 1l4 -33l2 -22h198
v162l65 -11l16 -11l-16 -9v-131h201l32 27l59 -48l-27 -17l-15 -6l-36 -56l-23 -31l-12 -15l-12 -18l-8 4l7 20l15 56l9 31l4 15l3 14l1 3h-459l1 -16v-26l-1 -25l-3 -22l-4 -21l-6 -18l-8 -18l-10 -15l-23 -9z" />
  </g>

</svg>
