<?xml version="1.0" standalone="no"?>
<!DOCTYPE svg PUBLIC "-//W3C//DTD SVG 1.1//EN" "http://www.w3.org/Graphics/SVG/1.1/DTD/svg11.dtd" >
<svg xmlns="http://www.w3.org/2000/svg" xmlns:xlink="http://www.w3.org/1999/xlink" version="1.1" viewBox="0 -144 1024 1024">
  <g transform="matrix(1 0 0 -1 0 880)">
   <path fill="currentColor"
d="M856 148l-30 40l-27 46l-25 51l-23 55l-20 62l-17 66l-14 72l-6 41l-69 -50l-17 -11l28 -4l16 -11l-16 -10v-431l-64 -32v465l-87 -51l-51 -25l-5 8l131 102l79 66l72 67l34 33l61 68l2 2l46 -45l5 -19l-20 4l-18 -19l-73 -64l-39 -31l-2 -2l37 -114l21 -55l47 53l96 104
v-1l2 2l43 -48l3 -19l-20 5l-77 -59l-64 -43l-22 -13l20 -45l26 -51l27 -45l28 -39l29 -33l30 -26l50 -35l-59 -46l-36 30zM264 767l13 -14l-19 -7l-20 -55l-22 -50l-25 -50l-30 -48l-2 -3l34 -40l31 -42l28 -44l42 100l35 95l5 12l57 -30l11 -16l-19 -4l-37 -80l-48 -96
l-53 -92l-28 -45l-30 -44l-31 -42l-14 -18l130 36l66 17l26 5l-35 105l-7 20l8 5l29 -32l14 -19l24 -39l23 -43l10 -23l19 -48l-4 -25l-18 -15l-25 3l-16 19l-5 24l-5 24l-6 22v1l-53 -26l-99 -42l-128 -48l-5 -20l-15 12l-31 59l82 23l88 173l22 46l-17 -1l-19 16l-32 69
l-22 42l-61 101l7 7l38 -29l18 -17v-1l30 102l13 51l6 24l4 25l2 11h-153v22h158v1l3 -1h15v204l65 -11l16 -10l-16 -10v-173h83l54 54l64 -54v-22h-227zM625 951l14 -14l-19 -7l-5 -18l-12 -37l-13 -36l-14 -33h290l54 54l65 -54v-22h-420l-26 -45l-21 -31l-22 -29l-25 -28
l-27 -25l-7 6l35 63l16 31l28 64l13 33l10 34l9 34l8 36l6 36l2 10z" />
  </g>

</svg>
