<?xml version="1.0" standalone="no"?>
<!DOCTYPE svg PUBLIC "-//W3C//DTD SVG 1.1//EN" "http://www.w3.org/Graphics/SVG/1.1/DTD/svg11.dtd" >
<svg xmlns="http://www.w3.org/2000/svg" xmlns:xlink="http://www.w3.org/1999/xlink" version="1.1" viewBox="0 -144 1024 1024">
  <g transform="matrix(1 0 0 -1 0 880)">
   <path fill="currentColor"
d="M43 403l30 9l16 6l35 14l76 36v64v360l65 -32h269v134l64 -11l16 -10l-16 -10v-103h258l54 53l64 -53v-22h-709v-306l-4 -67l-7 -64l-11 -60l-15 -55l-19 -51l-22 -47l-27 -42l-30 -37l-34 -33l-38 -26l-6 8l29 33l26 35l23 39l20 41l16 45l14 49l9 52l7 56l2 34l-35 -32
l-33 -27l-32 -22l-11 -6l-5 -23l-16 11l-34 55zM497 89l-13 3l-13 4l-13 6l-11 9l-8 11l-7 12l-4 13l-3 13v14v142l64 -11l17 -11l-17 -9v-118l1 -5l2 -3l1 -1v-1l1 -1l2 -1l3 -1l5 -1h256l32 134h11l-11 -134l19 -13l13 -19l-13 -20l-19 -13h-281zM244 127l-2 25l14 19
l10 5l11 6l9 8l9 10l8 12l8 15l7 17l6 20l6 21l2 24h10l5 -48v-22l-1 -21l-4 -21l-6 -19l-8 -18l-11 -16l-13 -15l-16 -13l-24 -4zM887 173l-9 28l-7 13l-8 14l-10 15l-24 28l-14 15l-16 14l4 8l20 -10l20 -8l18 -10l17 -12l16 -13l14 -12l13 -15l11 -16l10 -16l9 -17
l-3 -25l-18 -16l-25 3l-16 19zM626 240l-6 12l-8 11l-18 22l-10 10l-23 22l-14 9l4 9l16 -5l17 -5l16 -6l15 -7l14 -7l28 -19l24 -22l11 -12l3 -24l-14 -21l-24 -3l-21 14l-5 11zM566 810l5 7l49 -43l6 -18l-25 3l-30 -22l-21 -14l-12 -7h221l33 27l59 -48l-27 -22v-310
l-65 -32v32h-323l-64 -32v417l64 -32h79l2 3l19 34l13 21l5 10l5 10l8 15zM436 478v-94h323v94h-323zM436 585v-85h323v85h-323zM105 645l-4 16l-5 16l-5 16l-13 29l-8 14l-9 14l-10 11l6 8l29 -18l15 -11l13 -12l13 -14l11 -16l10 -16l10 -18l8 -19l8 -20l-4 -24l-20 -15
l-25 4l-14 20l-3 18zM436 695v-88h323v88h-323z" />
  </g>

</svg>
