<?xml version="1.0" standalone="no"?>
<!DOCTYPE svg PUBLIC "-//W3C//DTD SVG 1.1//EN" "http://www.w3.org/Graphics/SVG/1.1/DTD/svg11.dtd" >
<svg xmlns="http://www.w3.org/2000/svg" xmlns:xlink="http://www.w3.org/1999/xlink" version="1.1" viewBox="0 -144 1024 1024">
  <g transform="matrix(1 0 0 -1 0 880)">
   <path fill="currentColor"
d="M672 789l13 -15l-21 -6l-15 -37l-8 -15h209l44 49l53 -49v-21h-318l-9 -16l-17 -25l-7 -9l39 -19h183l32 27l59 -49l-27 -21v-180l-64 -32v32h-183l-64 -32v244l-27 -27l-22 -19l-25 -16l-7 7l33 47l3 5l-18 -1l-29 -45l-45 -62l-20 -23l24 -4l16 -11l-16 -9v-376
l-65 -33v387l-44 -43l-29 -25l-32 -24l-7 7l91 122l41 61l36 62l17 32l15 32l3 6l54 -36l9 -15l24 40l24 48l11 25l9 26l8 27l6 22l4 13zM43 403l30 9l16 6l35 14l76 36v64v360l65 -32h269v134l64 -11l16 -10l-16 -10v-103h258l54 53l64 -53v-22h-709v-306l-4 -67l-7 -64
l-11 -60l-15 -55l-19 -51l-22 -47l-27 -42l-30 -37l-34 -33l-38 -26l-6 8l29 33l26 35l23 39l20 41l16 45l14 49l9 52l7 56l2 34l-35 -32l-33 -27l-32 -22l-11 -6l-5 -23l-16 11l-34 55zM806 326l4 5h1l27 22l59 -49l-27 -16l-17 -7l-14 -21l-30 -36l-32 -33l-6 -5l10 -6
l34 -16l36 -12l38 -9l95 -12l-63 -64l-47 11l-43 14l-41 18l-38 23l-25 19l-23 -15l-40 -22l-43 -18l-46 -14l-47 -9l-50 -6l-1 10l46 16l43 17l41 19l37 21l35 24l12 10l-33 39l-12 18l-26 -23l-24 -18l-26 -16l-27 -13l-29 -11l-5 8l44 39l20 20l2 2l-17 5l-49 44l9 6
l13 6l15 10l17 15l29 29l8 13l8 -4l-1 -4l25 -35l3 -5l14 26l10 23l7 20l5 12l57 -30l11 -16l-20 -3l-4 -9l-5 -7h96zM697 304l-15 -21l-12 -15l17 -19l30 -27l8 -6l14 14l26 31l24 34l5 9h-97zM602 334l-7 -23l-8 -25l-5 -12l-5 -10l-3 -5l2 -28l16 17l16 21l13 18l-8 16z
M635 507v-83h183v83h-183zM635 604v-76h183v76h-183zM105 645l-4 16l-5 16l-5 16l-13 29l-8 14l-9 14l-10 11l6 8l29 -18l15 -11l13 -12l13 -14l11 -16l10 -16l10 -18l8 -19l8 -20l-4 -24l-20 -15l-25 4l-14 20l-3 18zM500 761l7 -18l-21 2l-39 -38l-39 -36l-43 -34l-23 -17
l-25 -16l-26 -14l-6 7l91 106l32 40l28 38l15 23z" />
  </g>

</svg>
