<?xml version="1.0" standalone="no"?>
<!DOCTYPE svg PUBLIC "-//W3C//DTD SVG 1.1//EN" "http://www.w3.org/Graphics/SVG/1.1/DTD/svg11.dtd" >
<svg xmlns="http://www.w3.org/2000/svg" xmlns:xlink="http://www.w3.org/1999/xlink" version="1.1" viewBox="0 -144 1024 1024">
  <g transform="matrix(1 0 0 -1 0 880)">
   <path fill="currentColor"
d="M906 139l-9 23l-10 23l-2 2l-81 -21l-53 -13l-164 -35l-203 -38l-9 -18l-13 14l-20 62l134 17l156 197l78 103l69 99l63 98l51 -40l8 -18l-20 1l-56 -75l-76 -96l-86 -99l-46 -50l-50 -51l-67 -66l245 30l109 11l23 2l-18 29l-37 47l-44 49l5 8l31 -17l28 -19l25 -20
l23 -21l21 -23l18 -23l16 -24l14 -26l11 -26l9 -27l-5 -24l-21 -14l-24 5l-14 20l-4 22zM147 879h146l32 27l60 -48l-27 -22v-605l-65 -32v54h-146v-65l-65 -32v755zM147 463v-189h146v189h-146zM561 440l-9 18l-11 18l-13 20l-54 65l-45 50l6 7l30 -17l28 -19l45 -34
l105 210l9 21h-277v22h247v177l64 -11l16 -10l-16 -10v-146h169l54 53l64 -53v-22h-310l46 -31l9 -17h-21l-45 -66l-50 -65l-38 -44l-17 -16l34 -33l16 -19l14 -20l12 -20l10 -19l-2 -25l-18 -16l-25 2l-16 18l-5 15zM147 660v-176h146v176h-146zM147 858v-176h146v176h-146
z" />
  </g>

</svg>
