<?xml version="1.0" standalone="no"?>
<!DOCTYPE svg PUBLIC "-//W3C//DTD SVG 1.1//EN" "http://www.w3.org/Graphics/SVG/1.1/DTD/svg11.dtd" >
<svg xmlns="http://www.w3.org/2000/svg" xmlns:xlink="http://www.w3.org/1999/xlink" version="1.1" viewBox="0 -144 1024 1024">
  <g transform="matrix(1 0 0 -1 0 880)">
   <path fill="currentColor"
d="M914 427l-15 37l-26 55l-40 -100l-46 -84l-53 -75l-61 -65l-69 -55l-75 -44l-83 -35l-89 -23l-3 9l85 34l76 40l69 47l60 56l54 64l46 72l40 81l32 89l26 99l18 102l3 15l61 -20l15 -12l-19 -8l-18 -91l-23 -77l23 -22l15 -16l27 -34l23 -36l11 -18l9 -19l8 -19l-3 -24
l-19 -16l-24 3l-16 18l-3 18zM435 865v-21h-151l-14 -51l-18 -53l-19 -52l-22 -52l-16 -34h125l32 27l59 -49l-26 -21v-377l-65 -32v65h-117v-65l-65 -32v378l-35 -55l-32 -45l-36 -44l-8 6l52 98l46 98l40 101l33 102l13 52l7 35h-161v21h260l54 54zM203 580v-344h117v344
h-117zM722 973l16 -11l-16 -10v-549l-65 -32v612zM586 776l15 -12l-18 -9l-4 -22l-9 -42l-11 -40l-13 -39l-16 -38l-17 -37l-20 -35l-22 -34l-25 -32l-27 -31l-8 6l35 71l15 35l14 36l13 37l10 37l9 38l7 38l5 40l3 34l1 17z" />
  </g>

</svg>
