<?xml version="1.0" standalone="no"?>
<!DOCTYPE svg PUBLIC "-//W3C//DTD SVG 1.1//EN" "http://www.w3.org/Graphics/SVG/1.1/DTD/svg11.dtd" >
<svg xmlns="http://www.w3.org/2000/svg" xmlns:xlink="http://www.w3.org/1999/xlink" version="1.1" viewBox="0 -144 1024 1024">
  <g transform="matrix(1 0 0 -1 0 880)">
   <path fill="currentColor"
d="M489 77l-65 -32v427l65 -33h363l32 27l59 -48l-27 -22v-314l-64 -32v43h-363v-16zM489 258v-143h149v143h-149zM703 258v-143h149v143h-149zM382 865v-21h-124l-13 -50l-15 -53l-17 -52l-19 -51l-14 -36h99l32 27l60 -49l-27 -21v-377l-65 -32v65h-91v-65l-64 -32v366
l-23 -42l-29 -46l-31 -44l-9 5l63 147l19 49l10 28v5h1l23 68l26 102l12 52l6 36h-134v21h206l54 54zM188 580v-344h91v344h-91zM489 418v-138h149v138h-149zM703 418v-138h149v138h-149zM378 612l-12 22l6 24l7 7l7 10l7 14l7 16l6 20l5 23l6 25l10 59l3 34h10l7 -56h191
v105h-189v21h338l54 54l65 -54v-21h-203v-105h200l33 27l59 -48l-27 -16l-12 -5l-16 -32l-15 -27l-16 -25l-9 -12l-7 -12l-9 4l4 13l3 30l2 14l2 15l4 29l2 14l1 10h-199v-285l-65 -32v317h-189l1 -18v-27l-1 -26l-2 -23l-3 -22l-5 -20l-7 -17l-9 -17l-21 -12zM617 558v-21
h-175v21h98l34 38zM899 558v-21h-175v21h99l33 38zM617 678v-21h-158v21h81l34 38zM875 678v-21h-151v21h75l33 38z" />
  </g>

</svg>
