<?xml version="1.0" standalone="no"?>
<!DOCTYPE svg PUBLIC "-//W3C//DTD SVG 1.1//EN" "http://www.w3.org/Graphics/SVG/1.1/DTD/svg11.dtd" >
<svg xmlns="http://www.w3.org/2000/svg" xmlns:xlink="http://www.w3.org/1999/xlink" version="1.1" viewBox="0 -144 1024 1024">
  <g transform="matrix(1 0 0 -1 0 880)">
   <path fill="currentColor"
d="M820 271l-25 39l-28 39l-31 40l-35 41l-38 41l-86 85l-33 30v-511l-64 -32v493l-21 -38l-36 -54l-40 -53l-44 -50l-46 -47l-51 -44l-54 -42l-58 -38l-62 -34l-5 8l55 43l52 44l48 45l46 47l41 48l38 50l35 52l31 55l27 55l15 35h-369v21h742l54 54l64 -54v-21h-398v-16
l46 -30l50 -37l47 -38l43 -38l40 -39l36 -39l33 -40l29 -39l26 -40l22 -40l1 -25l-17 -18l-25 -1l-18 17l-17 37zM824 881v-21h-624v21h506l53 54z" />
  </g>

</svg>
