<?xml version="1.0" standalone="no"?>
<!DOCTYPE svg PUBLIC "-//W3C//DTD SVG 1.1//EN" "http://www.w3.org/Graphics/SVG/1.1/DTD/svg11.dtd" >
<svg xmlns="http://www.w3.org/2000/svg" xmlns:xlink="http://www.w3.org/1999/xlink" version="1.1" viewBox="0 -144 1024 1024">
  <g transform="matrix(1 0 0 -1 0 880)">
   <path fill="currentColor"
d="M277 388l-7 15l-8 15l-9 16l-22 32l-14 17v-408l-64 -32v421l-16 -19l-37 -38l-39 -38l-42 -34l-7 7l67 83l31 42l29 43l14 22v5h3l35 59l23 45l40 92l9 25h-228v21h118v215l64 -11l17 -10l-17 -10v-184h53l32 27l59 -48l-27 -17l-11 -4l-36 -76l-26 -45l-27 -45l-23 -34
h6v-27l18 -10l18 -12l17 -13l15 -14l29 -29l23 -32l10 -18v-24l-17 -18h-24l-18 17zM772 117h60l5 1l3 1l2 2h1l1 1l1 5l1 5l1 7v226l-16 -3l-15 -35l-13 -25l-6 -11l21 -25l11 -15l11 -17l1 -24l-16 -19l-25 -1l-18 16l-12 31l-3 7l-25 -32l-18 -19l-20 -18l-20 -15l-5 5
v-64l-65 -32v295l-12 -2l-15 -35l-14 -26l-5 -8l24 -33l11 -19l11 -19l-1 -25l-18 -17l-25 1l-17 18l-5 18l-11 29l-10 -14l-18 -21l-20 -19l-20 -17l-22 -15l-2 2v-77l-64 -32v631l-12 -8l-26 -14l-26 -11l-6 8l70 71v15l9 -5l36 41l34 44l28 42l5 8l50 -42l7 -18l-21 2
l-45 -50l-44 -40l-9 -7l14 -7h169v175h-296v22h538l54 53l64 -53v-22h-295v-175h168l32 27l36 -29l-25 30l-32 33l-19 16l-42 32l-48 33l3 9l30 -8l28 -10l26 -11l49 -25l22 -15l20 -15l19 -16l18 -17l16 -18l5 -24l-13 -21l-23 -5l-15 9l-23 -18v-531l-1 -14l-2 -14l-4 -13
l-7 -11l-9 -12l-10 -8l-13 -7l-13 -4l-13 -3h-14v32l-53 16v16zM776 467l-11 26l-8 -12l-17 -20l-18 -18l-19 -15l-19 -14l-5 5v-249l34 62l11 22l17 37l-24 37l-11 15l-13 15l6 7l34 -20l16 -11l7 -5l15 45l6 24l4 11l58 -28l8 -9v247l-16 -3l-16 -38l-14 -26l-7 -14
l11 -11l13 -16l12 -16l10 -17l1 -25l-17 -19h-24l-18 17zM547 467l-12 27l-26 -33l-18 -18l-20 -15l-20 -14l-6 6v-246l35 58l13 22l20 42l-13 21l-22 31l-14 15l6 8l36 -21l16 -12l6 -5l6 16l15 52l3 8l58 -28l4 -5v243l-12 -3l-16 -38l-14 -27l-7 -13l11 -11l13 -16
l12 -16l10 -17l1 -25l-17 -19h-24l-18 17zM445 691v-268l36 59l22 43l5 13l-12 15l-24 26l-14 12l5 9l35 -15l17 -9l7 -5l10 29l9 27l8 28l3 9l58 -28l4 -5v60h-169zM679 691v-267l32 57l22 44l5 12l-13 16l-24 26l-14 12l5 9l35 -15l17 -9l7 -5l10 29l9 27l7 26l4 11
l58 -28l8 -10v65h-168z" />
  </g>

</svg>
