<?xml version="1.0" standalone="no"?>
<!DOCTYPE svg PUBLIC "-//W3C//DTD SVG 1.1//EN" "http://www.w3.org/Graphics/SVG/1.1/DTD/svg11.dtd" >
<svg xmlns="http://www.w3.org/2000/svg" xmlns:xlink="http://www.w3.org/1999/xlink" version="1.1" viewBox="0 -144 1024 1024">
  <g transform="matrix(1 0 0 -1 0 880)">
   <path fill="currentColor"
d="M366 416l-17 25l-10 13l-11 12l-25 24l-26 22v-437l-64 -32v438l-15 -37l-20 -46l-22 -44l-25 -42l-27 -39l-29 -37l-31 -35l-7 6l43 81l38 84l18 44l15 45l14 47l13 48l10 49l6 34h-153v22h172v181l-68 -16l-45 -7l-48 -7l-2 10l198 75l31 13l53 26l21 12l19 12l11 -18
l31 -32l1 -18l-20 8l-39 -17l-60 -19l-19 -6v-197h39l54 54l64 -54v-22h-157v-110l24 -6l18 -7l18 -8l16 -9l17 -10l15 -11l14 -12l14 -12l12 -14l5 -24l-13 -21l-24 -5l-20 13zM960 913v-21h-226v-419h134l54 53l64 -53v-22h-252v-371l-64 -32v403h-242v22h242v419h-211v21
h383l53 54zM616 789l14 -14l-20 -6l-13 -40l-12 -29l-29 -58l-17 -28l-18 -28l-21 -27l-22 -26l-26 -25l-7 6l31 60l27 59l22 57l17 56l6 28l5 28l2 10zM873 615l-14 46l-9 23l-21 47l-38 73l8 7l41 -39l35 -44l15 -23l27 -47l11 -25l9 -25l8 -26l-4 -24l-20 -15l-24 5
l-15 20l-3 23z" />
  </g>

</svg>
