<?xml version="1.0" standalone="no"?>
<!DOCTYPE svg PUBLIC "-//W3C//DTD SVG 1.1//EN" "http://www.w3.org/Graphics/SVG/1.1/DTD/svg11.dtd" >
<svg xmlns="http://www.w3.org/2000/svg" xmlns:xlink="http://www.w3.org/1999/xlink" version="1.1" viewBox="0 -144 1024 1024">
  <g transform="matrix(1 0 0 -1 0 880)">
   <path fill="currentColor"
d="M482 655l14 -10l-14 -10v-512h367l54 54l64 -54v-21h-485v-38l-59 -29v631zM339 430l-8 12l-19 25l-36 36l-9 8v-436l-65 -32v428l-29 -73l-22 -43l-23 -42l-25 -40l-27 -37l-30 -35l-8 6l40 81l19 41l33 87l15 45l13 47l12 47l10 50l5 34h-143v22h160v180l-61 -14
l-43 -8l-45 -7l-3 10l120 47l66 28l56 26l43 25l17 12l13 -21l29 -30v-18l-19 8l-35 -15l-56 -20l-17 -6v-197h27l54 54l65 -54v-22h-146v-110l21 -7l17 -7l17 -8l16 -9l15 -10l15 -10l26 -25l13 -13l4 -24l-14 -21l-24 -5l-20 14l-7 13zM728 962l16 -11l-16 -10v-81h135
l54 53l64 -53v-22h-253v-123h93l32 26l59 -48l-27 -21v-452l-64 -32v53h-218v-37l-59 -30v570l59 -29h60v123h-275v22h275v113zM603 397v-134h218v134h-218zM603 553v-134h218v134h-218zM603 575h218v118h-218v-118z" />
  </g>

</svg>
