<?xml version="1.0" standalone="no"?>
<!DOCTYPE svg PUBLIC "-//W3C//DTD SVG 1.1//EN" "http://www.w3.org/Graphics/SVG/1.1/DTD/svg11.dtd" >
<svg xmlns="http://www.w3.org/2000/svg" xmlns:xlink="http://www.w3.org/1999/xlink" version="1.1" viewBox="0 -144 1024 1024">
  <g transform="matrix(1 0 0 -1 0 880)">
   <path fill="currentColor"
d="M737 419l16 -11l-16 -10v-49h93l54 54l65 -54v-21h-212v-124h123l54 54l64 -54v-22h-241v-113l-64 -32v145h-187l-7 -23l-71 -13l48 164l59 -29l12 -14l-18 -5l-17 -58h181v124h-206v21h206v81zM339 430l-8 12l-19 25l-36 36l-9 8v-436l-65 -32v428l-29 -73l-22 -43
l-23 -42l-25 -40l-27 -37l-30 -35l-8 6l40 81l19 41l33 87l15 45l13 47l12 47l10 50l5 34h-143v22h160v180l-61 -14l-43 -8l-45 -7l-3 10l120 47l66 28l56 26l43 25l17 12l13 -21l29 -30v-18l-19 8l-35 -15l-56 -20l-17 -6v-197h27l54 54l65 -54v-22h-146v-110l21 -7l17 -7
l17 -8l16 -9l15 -10l15 -10l26 -25l13 -13l4 -24l-14 -21l-24 -5l-20 14l-7 13zM553 629h256l33 26l59 -48l-27 -21v-140l-65 -32v53h-256v-37l-65 -33v264zM553 607v-118h256v118h-256zM384 725h177l28 129h-158v22h163l27 125l61 -24l13 -14l-17 -5l-18 -82h126l32 27
l59 -49l-27 -21v-108h30l44 49l54 -49v-21h-594v21zM655 854l-28 -129h159v129h-131z" />
  </g>

</svg>
