<?xml version="1.0" standalone="no"?>
<!DOCTYPE svg PUBLIC "-//W3C//DTD SVG 1.1//EN" "http://www.w3.org/Graphics/SVG/1.1/DTD/svg11.dtd" >
<svg xmlns="http://www.w3.org/2000/svg" xmlns:xlink="http://www.w3.org/1999/xlink" version="1.1" viewBox="0 -144 1024 1024">
  <g transform="matrix(1 0 0 -1 0 880)">
   <path fill="currentColor"
d="M877 241l-21 38l-19 40l-34 87l-15 47l-13 49l-9 43v-465l-65 -32v408l-7 -20l-24 -53l-26 -51l-29 -49l-33 -47l-34 -44l-38 -43l-18 -17l5 -15l-11 -22l-23 -7l-22 10l-25 32l-44 46l-16 15l-54 45l-6 5l-15 -32l-25 -41l-31 -35l-36 -30l-41 -25l-46 -20l-50 -14l-3 9
l45 23l39 26l34 28l28 31l23 33l18 36l13 39l3 16h-202v21h206l1 5l4 46l-1 45l-1 17l65 -9l17 -10l-18 -12l-1 -34l-7 -48h94l54 54l65 -54v-21h-218l-9 -30l33 -12l44 -21l40 -24l37 -27l28 -24l41 61l29 47l26 48l24 50l21 50l19 52l16 54l14 54l8 39h-155v21h175v217
l-17 -3l-42 -4l-46 -3l-48 -1l-1 9l130 34l73 22l31 10l55 23l22 12l15 9l5 2l7 -14l36 -35l1 -19l-20 9l-18 -8l-27 -10l-29 -8l-33 -8l-29 -6v-228h87l54 54l65 -54v-21h-203l36 -91l39 -88l21 -41l43 -73l45 -65l25 -28l2 -3l-58 -42l-23 34zM174 403l-64 -32v373
l-18 -19l-27 -27l-29 -24l-7 7l60 92l35 59l30 59l14 30l23 59l3 7l57 -31l10 -16l-20 -3l-20 -40h119l3 3l2 4l1 -1l26 21l59 -48l-27 -16l-20 -9l-18 -20l-41 -39l-15 -13l-32 -26l-1 -1h132l32 27l59 -48l-27 -22v-290l-64 -32v53h-235v-37zM174 591v-129h85v129h-85z
M324 591v-129h85v129h-85zM174 731v-119h85v119h-85zM324 731v-119h85v119h-85zM208 876l-26 -40l-41 -57l-6 -7l39 -20h84l8 11l11 18l20 34l35 61h-124z" />
  </g>

</svg>
