<?xml version="1.0" standalone="no"?>
<!DOCTYPE svg PUBLIC "-//W3C//DTD SVG 1.1//EN" "http://www.w3.org/Graphics/SVG/1.1/DTD/svg11.dtd" >
<svg xmlns="http://www.w3.org/2000/svg" xmlns:xlink="http://www.w3.org/1999/xlink" version="1.1" viewBox="0 -144 1024 1024">
  <g transform="matrix(1 0 0 -1 0 880)">
   <path fill="currentColor"
d="M321 431l-8 12l-18 24l-9 12l-23 24l-6 6v-434l-65 -32v418l-24 -62l-42 -85l-24 -40l-26 -38l-28 -34l-9 5l38 80l33 84l15 44l13 45l13 47l10 48l10 50l5 34h-132v22h148v179l-55 -13l-41 -8l-42 -7l-3 10l144 61l57 27l25 13l40 24l12 9v1v-1l4 3l18 -27l22 -24v-19
l-19 9l-30 -14l-25 -10l-27 -10l-15 -5v-198h16l54 54l65 -54v-22h-135v-111l18 -6l17 -7l15 -8l16 -9l14 -10l27 -23l24 -26l4 -24l-15 -20l-24 -4l-20 14zM778 112h86l7 1l4 1l4 1l2 1l1 1v1l1 1l2 4v5l1 6v274h-404v-333l-65 -32v419l65 -32h404l32 27l59 -49l-27 -21
v-253v-13l-3 -14l-4 -13l-7 -12l-9 -11l-11 -9l-12 -7l-12 -4l-14 -2l-14 -1v32l-86 16v16zM613 338h142l32 27l59 -48l-26 -22v-139l-65 -32v54h-142v-38l-65 -32v263zM613 317v-118h142v118h-142zM895 556l-45 45l-14 17v-118l-65 -32v32h-175l-64 -32v149l-35 -31
l-37 -28l-39 -25l-42 -21l-5 8l68 61l31 31l28 32l27 34l4 6v9l4 -2l15 23l22 37l9 17h-198v22h209l16 39l12 35l-52 -6l-48 -3l-49 -1l-50 1l-1 10l143 28l44 10l85 23l79 27l37 15l35 16l5 -10l43 -40l1 -16l-20 8l-43 -15l-40 -13l-42 -11l-42 -10l-45 -8l-12 -1l36 -18
l11 -16l-20 -4l-11 -25l-8 -15h230l44 48l54 -48v-22h-211l33 -43l40 -45l41 -40l22 -17l23 -16l24 -15l24 -13l25 -14l-61 -48zM596 639v-117h175v117h-175zM646 768l-27 -45l-27 -38l-13 -16l17 -8h175l23 19l-14 29l-12 31l-8 28h-114z" />
  </g>

</svg>
