<?xml version="1.0" standalone="no"?>
<!DOCTYPE svg PUBLIC "-//W3C//DTD SVG 1.1//EN" "http://www.w3.org/Graphics/SVG/1.1/DTD/svg11.dtd" >
<svg xmlns="http://www.w3.org/2000/svg" xmlns:xlink="http://www.w3.org/1999/xlink" version="1.1" viewBox="0 -144 1024 1024">
  <g transform="matrix(1 0 0 -1 0 880)">
   <path fill="currentColor"
d="M261 172l45 10l7 2v203h-44l-3 -40l-8 -47l-13 -45l-16 -41l-21 -38l-26 -33l-29 -30l-34 -26l-37 -21l-41 -17l-4 9l34 25l30 27l27 28l22 29l18 33l15 33l11 38l7 39l4 42v35h-26v-38l-65 -32v279l65 -32h204l32 27l59 -48l-27 -22v-156l-64 -32v54h-5v-185l121 36
l32 8l4 -9l-56 -35l-55 -29l-52 -25l-48 -20l-23 -10h-1l-7 -21l-14 13l-29 59zM953 285h11l-11 -135l19 -13l13 -19l-13 -20l-19 -12h-135l-14 1l-13 2l-13 4l-12 7l-11 9l-9 10l-7 13l-4 13l-2 13l-1 14v215h-44l-4 -48l-11 -53l-19 -50l-25 -44l-32 -39l-37 -34l-44 -27
l-49 -23l-56 -16l-60 -9l-1 9l56 20l49 23l42 26l37 29l29 32l24 35l17 39l13 43l6 46l2 41h-22v-38l-64 -32v279l64 -32h221l32 27l59 -48l-27 -22v-156l-64 -32v54h-27v-222l1 -5l2 -5l2 -2l5 -1l4 -1l7 -1h103zM603 543v-135h221v135h-221zM179 543v-135h204v135h-204z
M437 798l9 -16l-22 -2l-29 -42l-39 -45l-14 -16l-15 -14l-3 -2h59l54 54l64 -54v-22h-451v22h257l40 84l20 50l9 26l2 5l3 6zM867 798l9 -16l-21 -2l-30 -42l-39 -45l-14 -16l-15 -14l-2 -2h101l54 54l64 -54v-22h-462v22h226l39 84l20 50l11 31l3 6zM608 709l-5 27l-4 14
l-9 26l-10 26l-6 13l-8 11l7 7l11 -9l12 -9l12 -10l12 -10l19 -25l18 -27l8 -15l8 -16l-3 -24l-19 -15l-24 2l-17 19zM178 709l-5 27l-4 14l-9 26l-10 26l-6 13l-8 11l7 7l11 -9l12 -9l12 -10l11 -10l20 -25l18 -27l8 -15l8 -16l-4 -24l-18 -15l-25 2l-16 19zM71 865h188
v124l65 -11l16 -11l-16 -9v-93h48l54 54l64 -54v-21h-419v21zM523 865h161v124l65 -11l16 -11l-16 -9v-93h86l53 54l65 -54v-21h-430v21z" />
  </g>

</svg>
