<?xml version="1.0" standalone="no"?>
<!DOCTYPE svg PUBLIC "-//W3C//DTD SVG 1.1//EN" "http://www.w3.org/Graphics/SVG/1.1/DTD/svg11.dtd" >
<svg xmlns="http://www.w3.org/2000/svg" xmlns:xlink="http://www.w3.org/1999/xlink" version="1.1" viewBox="0 -144 1024 1024">
  <g transform="matrix(1 0 0 -1 0 880)">
   <path fill="currentColor"
d="M835 107l-45 22l-42 23l-41 24l-39 27l-37 28l-34 30l-32 31l-23 29v-260l-65 -32v259l-45 -43l-39 -30l-42 -29l-45 -26l-47 -24l-51 -22l-53 -19l-56 -17l-58 -13l-3 9l106 48l50 24l45 26l43 27l40 28l37 30l34 31l31 33l2 2h-360v21h411v111l65 -11l16 -11l-16 -9
v-80h292l54 54l64 -54v-21h-393l94 -60l79 -43l41 -19l87 -36l45 -15l88 -28l-63 -55l-48 19zM211 504v151h-124v22h242l54 54l64 -54v-22h-172v-141l88 12l48 6l52 5l1 -9l-49 -17l-173 -48l-138 -36l-8 -20l-14 14l-23 61zM942 569h11l-11 -91l16 -11l11 -16l-11 -16
l-16 -11h-91l-14 1l-13 1l-12 4l-12 6l-11 8l-9 10l-7 12l-5 12l-2 13l-1 14v188h-188v-86l-1 -1l-4 -26l-8 -24l-11 -23l-14 -20l-16 -19l-19 -16l-20 -15l-24 -13l-26 -10l-28 -9l-4 9l24 15l20 17l17 16l15 17l11 17l10 16l6 17l4 18l2 17l1 19v138l65 -32h188l32 26
l59 -48l-27 -21v-167v-7v-4l1 -4l1 -4l1 -2l2 -2l4 -1l5 -2l8 -1h64zM333 785l-6 10l-8 12l-22 23l-27 24l-16 13l-12 7h-25l-15 -20l-21 -25l-23 -25l-26 -23l-28 -21l-30 -20l-32 -18l-6 8l49 51l42 50l18 26l16 25l14 26l12 25l10 27l8 27l3 8l58 -29l13 -15l-21 -5
l-4 -9l-15 -29l-8 -13h195l54 54l64 -54v-21h-263l19 -7l17 -8l17 -8l16 -10l14 -10l13 -11l11 -12l11 -13l1 -25l-15 -19l-25 -1l-19 15l-3 9zM758 785l-6 10l-8 12l-22 23l-27 24l-16 13l-13 7h-27l-12 -16l-21 -24l-24 -22l-26 -21l-28 -19l-30 -17l-32 -15l-5 8l49 46
l22 23l39 47l15 23l14 24l12 25l10 25l6 21l4 13l59 -29l12 -15l-21 -5l-19 -37l-9 -14h202l54 54l64 -54v-21h-268l18 -7l18 -8l17 -8l15 -10l14 -10l13 -11l12 -12l10 -13l2 -25l-16 -19l-24 -1l-19 15l-3 9z" />
  </g>

</svg>
