<?xml version="1.0" standalone="no"?>
<!DOCTYPE svg PUBLIC "-//W3C//DTD SVG 1.1//EN" "http://www.w3.org/Graphics/SVG/1.1/DTD/svg11.dtd" >
<svg xmlns="http://www.w3.org/2000/svg" xmlns:xlink="http://www.w3.org/1999/xlink" version="1.1" viewBox="0 -144 1024 1024">
  <g transform="matrix(1 0 0 -1 0 880)">
   <path fill="currentColor"
d="M351 108h107h7l5 1l3 1l1 1l3 2l1 5l1 5l1 6v100h-414v21h774l54 54l64 -54v-21h-414v-100l-1 -13l-2 -14l-4 -13l-7 -12l-9 -11l-11 -9l-12 -6l-13 -5l-13 -2l-14 -1v32l-107 17v16zM835 97l-35 24l-20 11l-48 23l-87 37l2 9l34 -4l32 -4l30 -5l28 -7l26 -8l24 -8l23 -9
l21 -10l20 -10l17 -12l11 -22l-7 -24l-23 -11l-23 8l-11 11zM335 166l1 -19l-20 7l-21 -12l-46 -22l-53 -20l-29 -10l-31 -8l-34 -8l-35 -6l-3 10l116 59l46 27l38 26l16 13l14 14zM835 324v-21h-646v21h527l54 54zM312 659l4 -20l-20 6l-28 -22l-48 -33l-6 -3l15 -3l16 -10
l-16 -10v-197l-64 -32v223l-27 -13l-62 -27l-33 -10l-5 8l130 96l43 37l39 37l13 14v1l5 5zM386 770l6 12l56 -32l10 -17l-22 -2l-11 -17h129l44 48l54 -48v-21h-143v-78h45l44 48l54 -48v-22h-143v-65h61l33 38l43 -38v-21h-137v-67l66 6l42 2l44 2l2 -10l-42 -12l-81 -20
l-140 -32l-61 -11l-6 -1l-9 -19l-13 15l-18 62l10 2l28 1l17 2v140l59 -10l15 -11l-15 -9v-106l43 4v158h-126v22h126v78h-41l-12 -16l-23 -23l-12 -10l-13 -9l-11 -10l-7 7l7 12l13 27l16 40v3h1l11 30l8 26h-1zM792 465h53l7 1h5l3 1l1 1l3 3l1 4l1 5l1 7v223h-124v-338
l-64 -32v424l64 -33h124l32 27l59 -48l-27 -22v-201l-1 -14l-2 -13l-4 -13l-7 -13l-9 -10l-11 -9l-12 -7l-13 -4l-13 -2l-14 -1v32l-53 16v16zM275 756l19 -20l1 -19l-20 8l-61 -29l-69 -25l-24 -8l-53 -14l-4 9l108 68l36 25l32 24l14 12zM339 803l-11 17l-8 10l-21 20
l-13 10l-32 22l-10 6h-26l-17 -20l-21 -21l-23 -20l-26 -18l-28 -18l-30 -16l-32 -14l-5 8l50 45l43 43l34 43l13 22l12 22l10 21l10 29l58 -31l11 -15l-21 -4l-18 -30l-4 -5h192l54 54l64 -54v-21h-252l7 -2l17 -6l16 -6l29 -15l13 -9l12 -10l10 -11l4 -25l-14 -20l-25 -3
l-19 14zM764 803l-11 17l-8 10l-21 20l-14 10l-31 22l-10 6h-29l-15 -16l-21 -20l-24 -18l-25 -17l-27 -16l-31 -14l-31 -11l-5 8l50 41l43 40l34 39l13 21l12 20l10 21l10 29l57 -32l11 -16l-21 -3l-18 -29l-5 -6h199l54 54l64 -54v-21h-257l6 -2l18 -6l16 -6l29 -15l13 -9
l11 -10l11 -11l4 -25l-15 -20l-24 -3l-20 14z" />
  </g>

</svg>
