<?xml version="1.0" standalone="no"?>
<!DOCTYPE svg PUBLIC "-//W3C//DTD SVG 1.1//EN" "http://www.w3.org/Graphics/SVG/1.1/DTD/svg11.dtd" >
<svg xmlns="http://www.w3.org/2000/svg" xmlns:xlink="http://www.w3.org/1999/xlink" version="1.1" viewBox="0 -144 1024 1024">
  <g transform="matrix(1 0 0 -1 0 880)">
   <path fill="currentColor"
d="M545 112h86l7 1l5 1l5 2l2 2l2 5l1 5v323h-192v22h357l54 53l65 -53v-22h-220v-317v-13l-2 -14l-5 -13l-7 -12l-8 -11l-11 -9l-12 -7l-13 -4l-14 -2l-14 -1v32l-86 16v16zM371 341l-27 49l-23 34l-42 54l-1 1v-393l-65 -33v380l-17 -45l-19 -45l-22 -42l-24 -40l-25 -37
l-28 -35l-31 -31l-8 6l42 75l20 40l17 40l17 42l14 43l13 46l11 47l10 49l5 34h-140v22h165v381l65 -10l16 -11l-16 -10v-350h42l54 53l64 -53v-22h-160v-73l38 -24l19 -14l34 -30l31 -31l26 -34l4 -24l-15 -20l-24 -3zM528 352l6 12l56 -32l11 -16l-20 -3l-20 -37l-33 -54
l-39 -51l-44 -49l-50 -45l-7 7l68 110l29 53l24 55l12 27l8 23h-1zM887 145l-20 47l-36 68l-40 65l-15 22l7 7l23 -15l20 -17l38 -39l34 -42l16 -23l28 -47l13 -26v-24l-17 -18h-25l-18 18zM862 650v-21h-332v21h214l53 54zM427 882l11 -16l-20 -4l-21 -41l-23 -44l-41 -69
l-34 -49l-8 5l25 82l32 95l12 42l4 15l4 13zM122 722l-3 18l-4 20l-16 64l-7 23l-6 24l-9 25l9 5l30 -44l25 -41l10 -21l18 -40l15 -38l5 -19l-5 -23l-21 -14l-24 6l-14 21l-1 16zM454 662l-17 18v24l8 15l7 16l6 16l5 17l4 18l3 18l2 19l2 20l1 21l-2 22l9 2l8 -21l7 -21
l1 -2h155v145l64 -11l16 -11l-16 -9v-114h171l33 26l59 -48l-27 -16l-10 -4l-10 -22l-16 -30l-9 -16l-20 -30l-12 -14l-10 -15l-8 5l6 16l4 18l7 33l7 33l4 30l1 12h-383l3 -18l2 -21l1 -21l-1 -21l-3 -21l-4 -20l-6 -20l-17 -18h-25z" />
  </g>

</svg>
