<?xml version="1.0" standalone="no"?>
<!DOCTYPE svg PUBLIC "-//W3C//DTD SVG 1.1//EN" "http://www.w3.org/Graphics/SVG/1.1/DTD/svg11.dtd" >
<svg xmlns="http://www.w3.org/2000/svg" xmlns:xlink="http://www.w3.org/1999/xlink" version="1.1" viewBox="0 -144 1024 1024">
  <g transform="matrix(1 0 0 -1 0 880)">
   <path fill="currentColor"
d="M492 199l17 16l19 22l16 23l13 26l10 28l8 30l4 33l2 36v28h-89v-242zM347 893l2 4l2 10l60 -25l13 -15l-20 -5l-5 -16h105v122l64 -10l17 -11l-17 -10v-91h188v122l65 -10l16 -11l-16 -10v-91h30l44 49l54 -49v-21h-128v-362h43l53 54l65 -54v-22h-231v-153v-7v-5l1 -4
v-2l2 -3l3 -2l3 -2l5 -1l8 -1h76l27 91h11l-11 -91l16 -11l11 -16l-11 -16l-16 -11h-117l-13 2l-12 3l-12 6l-11 8l-9 11l-7 11l-5 13l-2 13l-1 14v153h-43l-1 -32l-6 -41l-10 -37l-13 -35l-17 -31l-20 -28l-23 -25l-27 -20l-30 -16l-5 -1v-47h343l53 53l65 -53v-22h-461
v-38l-65 -32v405h-38l8 -8l11 -13l4 -24l-13 -21l-25 -3l-20 14l-13 25l-9 13l-20 28l-39 43l-1 1v-438l-64 -33v397l-12 -32l-18 -44l-21 -41l-22 -39l-24 -36l-26 -34l-29 -31l-7 6l37 73l18 38l16 40l15 42l14 42l11 45l11 46l9 48l5 34h-128v21h151v363l64 -10l16 -11
l-16 -10v-332h29l53 54l65 -54v-21h-147v-59l15 -6l19 -10l18 -10l32 -23l10 -8h138v362h-107v17l-20 -51l-33 -68l-13 -22l-29 -45l-8 4l12 51l7 25l23 94l9 45l3 17zM568 574v-111h188v111h-188zM568 708v-112h188v112h-188zM125 722l-2 18l-3 19l-4 20l-5 19l-5 20
l-13 43l-9 22l9 5l28 -37l13 -19l22 -39l9 -19l8 -20l7 -20l6 -20l5 -21l-7 -23l-21 -12l-24 7l-12 21l-1 18zM568 825v-96h188v96h-188z" />
  </g>

</svg>
