<?xml version="1.0" standalone="no"?>
<!DOCTYPE svg PUBLIC "-//W3C//DTD SVG 1.1//EN" "http://www.w3.org/Graphics/SVG/1.1/DTD/svg11.dtd" >
<svg xmlns="http://www.w3.org/2000/svg" xmlns:xlink="http://www.w3.org/1999/xlink" version="1.1" viewBox="0 -144 1024 1024">
  <g transform="matrix(1 0 0 -1 0 880)">
   <path fill="currentColor"
d="M301 432l-16 27l-10 14l-23 29l-11 13v-446l-64 -32v395l-8 -22l-17 -44l-19 -42l-21 -40l-23 -38l-25 -35l-27 -31l-8 6l35 74l16 39l15 40l14 42l13 44l10 46l10 46l8 50l5 35h-118v21h140v371l64 -11l16 -10l-16 -10v-340h17l53 54l65 -54v-21h-135v-61l13 -6l18 -10
l16 -11l31 -24l14 -11l13 -13l22 -27l4 -25l-15 -19l-25 -4l-19 15zM911 114l-5 20l-6 20l-3 9l-31 -13l-56 -21l-162 -55l-6 -20l-15 13l-28 59l10 3l98 22l50 10v199h-67v-65l-59 -29v328l59 -30h67v156h-40v-65l-59 -29v328l59 -30h143l33 27l59 -48l-27 -22v-193
l-65 -33v65h-44v-156h72l32 27l59 -48l-27 -22v-172l-64 -32v43h-72v-188l13 2l30 4l28 3h4l-21 55l-19 42l8 5l33 -33l15 -18l13 -19l24 -40l11 -20l10 -21l9 -22l7 -22l-3 -24l-20 -16l-24 5l-15 19l-4 21zM555 97l-8 -11l-8 -10l-10 -9l-12 -7l-12 -5l-13 -4l-13 -2
l-14 -1v32l-64 16v16h64l7 1l6 1l5 1l4 2l6 5l6 7l2 6l3 7l5 18l4 22l4 26l5 29l3 32l3 37l4 82l2 85h-76l-5 -66l-66 -28l26 360l58 -35h63v199h-134v21h134l29 27l57 -48l-27 -19v-234l-59 -29v61h-61l-13 -188h74l32 27l59 -48l-26 -16l-1 -1l-2 -70l-4 -85l-6 -71
l-5 -32l-4 -28l-5 -25l-7 -23l-4 -12zM690 543v-162h67v162h-67zM816 543v-162h72v162h-72zM371 912l14 -14l-20 -6l-18 -49l-29 -70l-23 -46l-28 -46l-8 3l11 53l22 97l13 70l3 22l2 10zM99 748l-2 19l-3 20l-3 20l-4 19l-17 64l-7 22l8 5l28 -38l12 -20l21 -39l9 -20
l7 -20l12 -41l5 -21l-7 -23l-22 -12l-23 7l-12 21l-1 19zM717 903v-162h143v162h-143z" />
  </g>

</svg>
