<?xml version="1.0" standalone="no"?>
<!DOCTYPE svg PUBLIC "-//W3C//DTD SVG 1.1//EN" "http://www.w3.org/Graphics/SVG/1.1/DTD/svg11.dtd" >
<svg xmlns="http://www.w3.org/2000/svg" xmlns:xlink="http://www.w3.org/1999/xlink" version="1.1" viewBox="0 -144 1024 1024">
  <g transform="matrix(1 0 0 -1 0 880)">
   <path fill="currentColor"
d="M338 494l-1 6l-32 -14l-28 -11l-12 -4v-396l-65 -32v408l-41 -11l-61 -14l-10 -1l-9 -20l-13 15l-19 63l41 4l44 4l136 252l59 117l3 5l54 -36l9 -17l-20 -1l-82 -133l-77 -109l-55 -71l-4 -4l54 7l88 13l30 3l5 1l-10 31l-7 17l-26 51l-10 15l6 7l32 -24l15 -13l14 -16
l13 -17l12 -17l10 -19l11 -21l9 -21l8 -22l-5 -24l-19 -15l-24 4l-15 20l-3 20zM801 983l6 11l54 -35l10 -17l-23 -2l-47 -63l-38 -46l-7 -9h118l32 27l59 -48l-27 -22v-193l-64 -33v65h-143v-167h172l33 27l59 -48l-27 -16l-1 -1v-26l-2 -47l-2 -21l-2 -20l-3 -18l-6 -33
l-5 -13l-4 -13l-7 -12l-7 -12l-9 -9l-11 -9l-11 -7l-12 -5l-13 -4l-13 -2l-14 -1v32l-53 16v16h53l7 1l6 1l5 2l4 1l4 2l3 3l3 3l3 5l2 5l3 6l6 23l2 14l5 34l1 19l2 45l1 41h-172v-350l-64 -32v315l-14 -20l-28 -39l-31 -37l-32 -35l-34 -33l-36 -31l-39 -28l-40 -25
l-43 -22l-5 8l70 62l33 32l31 33l29 34l28 36l25 37l23 39l23 40l7 16h-129l-8 -68l-68 -24l42 337l55 -36h141v162h-216v21h292l7 17l13 38l31 82l8 24h-1zM172 367l15 -12l-19 -8l-1 -9l-7 -30l-8 -29l-9 -29l-11 -29l-12 -28l-14 -27l-16 -27l-17 -25l-20 -25l-8 5
l36 114l7 28l6 27l6 28l3 27l3 28l2 23l1 17zM336 247l-9 41l-6 19l-14 37l-15 35l-10 17l7 6l31 -26l15 -16l12 -16l13 -19l11 -20l10 -20l10 -23l8 -22l7 -24l-5 -24l-21 -14l-23 5l-14 20zM529 618l-21 -167h159v167h-138zM133 688l-6 16l-16 32l-10 15l-10 15l-25 30
l-15 14l5 8l38 -18l17 -12l17 -12l2 -2l22 54l38 88l24 61l5 11l55 -34l11 -16l-21 -2l-40 -65l-28 -40l-30 -39l-25 -28l17 -17l13 -16l12 -17l11 -18l10 -20l-2 -24l-18 -17l-24 2l-17 18l-5 17zM731 801v-162h143v162h-143zM573 881l-2 11l-4 12l-10 25l-14 26l-9 14
l-12 13l7 7l14 -10l15 -9l14 -9l24 -22l11 -12l9 -13l8 -13l8 -14l6 -15l-5 -24l-19 -15l-25 5l-14 20l-1 11z" />
  </g>

</svg>
