<?xml version="1.0" standalone="no"?>
<!DOCTYPE svg PUBLIC "-//W3C//DTD SVG 1.1//EN" "http://www.w3.org/Graphics/SVG/1.1/DTD/svg11.dtd" >
<svg xmlns="http://www.w3.org/2000/svg" xmlns:xlink="http://www.w3.org/1999/xlink" version="1.1" viewBox="0 -144 1024 1024">
  <g transform="matrix(1 0 0 -1 0 880)">
   <path fill="currentColor"
d="M307 495l-1 4l-28 -13l-26 -11l-9 -4v-396l-65 -32v407l-64 -17l-28 -7l-7 -1l-9 -19l-13 15l-20 61l11 2l28 3l41 4l143 290l36 78l3 6l55 -35l10 -17l-21 -1l-54 -96l-70 -111l-50 -72l-26 -34l-5 -5l50 7l82 13l28 3l3 1l-4 14l-5 18l-14 34l-15 33l-10 15l7 7l30 -24
l27 -29l12 -17l12 -18l19 -39l9 -21l8 -22l-5 -24l-20 -15l-24 4l-14 20l-4 21zM470 490l16 -10l-16 -10v-333h376l54 54l65 -54v-21h-495v-38l-65 -32v455zM157 368l15 -13l-19 -8l-1 -9l-7 -30l-7 -29l-9 -29l-11 -28l-11 -28l-13 -28l-15 -26l-16 -26l-19 -25l-8 5l25 85
l7 28l7 28l5 27l5 28l3 28l3 28l1 22l2 18zM920 187l2 9v8l-1 9l-1 1l-13 -6l-39 -16l-61 -21l-39 -13l-9 -20l-13 14l-15 40l-6 -21l-21 -13l-24 7l-12 22l3 9l-1 8l-2 9v1l-13 -6l-39 -16l-60 -21l-41 -13l-8 -20l-13 14l-23 62l11 1l51 5l60 103l-24 2l-17 19l1 4v5l-2 7
l-4 8l-5 8l-15 19l-10 11l-10 11l-14 8l4 9l16 -6l15 -5l13 -5l2 4l7 16l8 15l13 28l6 12l15 34l1 5l2 4l3 5l52 -39l7 -18l-24 1l-53 -49l-27 -22v-1l14 -7l12 -6l10 -8l10 -8l8 -9l7 -11l-1 -5l34 63l13 26l54 -36l8 -18h-20l-33 -46l-53 -65l-39 -43l-18 -17l69 7l35 3
l-17 45l-9 14l7 6l12 -13l24 -21l20 -21l16 -19l6 -10l3 -5l-2 5l10 1l51 5l60 103l-23 2l-17 19l1 4v5l-2 7l-4 8l-5 8l-15 19l-9 11l-12 11l-13 8l4 9l16 -6l28 -10l36 75l10 24l5 10l2 5h-1l2 4l3 5l51 -39l8 -18l-25 1l-18 -18l-46 -42l-14 -11l-1 -1l15 -7l11 -6l10 -8
l9 -8l9 -9l7 -11l-1 -4l44 84l4 4l53 -36l8 -18h-21l-32 -46l-34 -43l-38 -43l-38 -39l69 7l35 3l-11 29l-6 16l-9 14l7 6l12 -13l24 -21l20 -21l16 -19l6 -10l6 -10l4 -10l-7 -23l-21 -13l-24 7zM304 247l-3 21l-10 40l-19 54l-7 17l-9 17l8 6l29 -27l13 -15l13 -17l11 -19
l11 -19l18 -43l8 -23l7 -24l-6 -24l-20 -13l-24 5l-14 20l-2 23zM470 942l16 -11l-16 -9v-333h376l54 54l65 -54v-22h-495l-65 -32v418zM920 638l2 10v7l-1 10l-1 1l-13 -7l-39 -16l-61 -21l-39 -12l-9 -20l-13 13l-15 40l-6 -21l-21 -12l-24 7l-12 21l3 10l-1 7l-2 10v1
l-13 -7l-39 -16l-60 -21l-41 -13l-8 -19l-13 13l-23 62l11 2l51 5l60 103l-24 2l-17 18l1 5v5l-2 7l-4 7l-5 9l-15 19l-10 11l-10 10l-14 9l4 9l16 -7l15 -5l13 -4l2 3l7 16l8 15l13 28l6 13l15 34l1 5l2 4l3 5l52 -40l7 -17h-24l-53 -49l-27 -22l14 -7l12 -7l10 -7l10 -8
l8 -10l7 -10l-1 -5l34 63l13 26l54 -36l8 -18l-20 -1l-33 -45l-53 -65l-39 -43l-18 -17l69 7l35 3l-17 44l-9 15l7 6l12 -13l24 -22l20 -20l16 -20l6 -9l3 -5l-2 4l10 2l51 5l60 103l-23 2l-17 18l1 5v5l-2 7l-4 7l-5 9l-15 19l-9 11l-12 10l-13 9l4 9l16 -7l28 -9l36 75
l10 23l5 11l2 5h-1l2 4l3 5l51 -40l8 -17h-25l-18 -18l-46 -42l-14 -11l-1 -1l15 -6l11 -7l10 -7l9 -8l9 -10l7 -10l-1 -4l44 83l4 5l53 -36l8 -18l-21 -1l-32 -45l-34 -43l-38 -43l-38 -39l69 7l35 3l-11 29l-6 15l-9 15l7 6l12 -13l24 -22l20 -20l16 -20l6 -9l6 -10l4 -10
l-7 -24l-21 -12l-24 7zM116 689l-6 16l-7 16l-16 31l-20 29l-12 15l-13 14l5 8l35 -19l17 -11l16 -13h1l69 184l8 22l3 7l56 -33l10 -16l-20 -3l-38 -64l-26 -41l-28 -38l-24 -29l17 -18l12 -16l12 -17l10 -18l9 -19l-2 -25l-18 -16l-25 2l-16 18l-4 18z" />
  </g>

</svg>
