<?xml version="1.0" standalone="no"?>
<!DOCTYPE svg PUBLIC "-//W3C//DTD SVG 1.1//EN" "http://www.w3.org/Graphics/SVG/1.1/DTD/svg11.dtd" >
<svg xmlns="http://www.w3.org/2000/svg" xmlns:xlink="http://www.w3.org/1999/xlink" version="1.1" viewBox="0 -144 1024 1024">
  <g transform="matrix(1 0 0 -1 0 880)">
   <path fill="currentColor"
d="M293 498l-24 -12l-25 -11l-8 -3v-397l-64 -32v407l-58 -17l-27 -7l-5 -1l-9 -19l-14 15l-20 61l11 2l27 3l38 4l117 250l54 124l56 -34l10 -17l-20 -2l-74 -133l-68 -110l-49 -70l-4 -5l45 7l78 13l27 3l2 1l-4 14l-5 18l-19 51l-8 16l-9 15l7 7l29 -24l14 -14l12 -16
l12 -17l11 -17l9 -19l9 -21l16 -42l-5 -24l-20 -15l-24 5l-14 20l-3 20zM600 180l-61 103l-4 6l-29 -56l-33 -47l-37 -44l-41 -38l-46 -33l-50 -27l-5 8l43 35l38 38l34 40l31 44l26 46l22 51l13 36l-37 51l-53 67l6 8l25 -14l24 -17l23 -20l24 -22l2 -2l6 25l11 62l7 78
l63 -18l15 -12l-18 -9l-7 -49l-14 -66l-19 -59l49 -63l47 -69l3 -24l-14 -20l-24 -3zM816 193l8 -19l-22 1l-33 -33l-18 -17l-40 -30l-21 -14l-23 -13l-50 -24l-4 8l56 56l33 35l28 34l23 34l10 18l2 3zM918 117l-15 29l-27 41l-20 25l-13 12l5 8l32 -15l16 -8l15 -11
l14 -11l14 -12l14 -14l12 -14l12 -16l11 -16l1 -25l-15 -18l-25 -2l-19 16l-6 16zM155 368l15 -12l-18 -9l-2 -9l-13 -59l-9 -28l-10 -29l-11 -28l-12 -27l-14 -27l-16 -26l-18 -25l-9 5l23 85l7 28l6 28l6 27l4 28l3 28l2 28l1 22l2 18zM295 226l-7 42l-4 20l-5 20l-5 18
l-12 36l-6 18l-9 16l8 6l28 -27l13 -16l12 -16l11 -19l19 -41l8 -21l8 -23l6 -24l-5 -24l-20 -13l-25 5l-13 21zM989 919v-22h-124l-23 -45l-27 -44l-20 -27l-12 -12v-1h110l32 27l59 -48l-27 -22v-440l-64 -33v33h-136l-64 -33v549l64 -33h12l2 7l11 48l5 15l3 16l7 32
l3 11h-133v22h204l54 54zM757 440v-134h136v134h-136zM493 724l14 -15l-20 -6l-22 -69l-20 -57l-23 -56l-12 -28l-28 -54l-9 3l4 30l5 30l25 117l23 114h-1l4 15zM757 591v-129h136v129h-136zM595 597l-6 20l-20 56l-25 51l-10 16l6 7l32 -24l15 -14l14 -16l13 -17l12 -18
l22 -41l10 -21l9 -23l-3 -25l-19 -15l-24 3l-15 18l-5 22zM757 747v-135h136v135h-136zM113 690l-11 32l-16 30l-8 15l-21 29l-13 14l6 8l34 -20l16 -11l14 -12l70 200l4 12l57 -32l11 -16l-21 -3l-24 -43l-24 -41l-39 -59l-23 -28l17 -19l11 -16l11 -18l10 -17l9 -20
l-3 -24l-19 -16l-24 3l-16 18l-4 17zM367 833h107v150l65 -10l16 -11l-16 -10v-119h31l44 48l54 -48v-22h-301v22z" />
  </g>

</svg>
