<?xml version="1.0" standalone="no"?>
<!DOCTYPE svg PUBLIC "-//W3C//DTD SVG 1.1//EN" "http://www.w3.org/Graphics/SVG/1.1/DTD/svg11.dtd" >
<svg xmlns="http://www.w3.org/2000/svg" xmlns:xlink="http://www.w3.org/1999/xlink" version="1.1" viewBox="0 -144 1024 1024">
  <g transform="matrix(1 0 0 -1 0 880)">
   <path fill="currentColor"
d="M865 970l5 12l56 -32l11 -16l-21 -3l-20 -35l-39 -60l-31 -42l-25 -31h76l44 48l53 -48v-22h-107v-284h26l44 48l53 -48v-22h-123v-366l-65 -32v398h-102v22h102v284h-75v22h58l47 114l16 42l13 38zM615 316l-11 -45l-13 -43l-17 -39l-20 -37l-23 -34l-28 -30l-30 -27
l-34 -22l-5 8l25 29l22 31l20 31l17 33l14 35l12 37l8 39l6 42l2 44v32l-64 -35l-3 -21l-16 10l-38 55l121 48v284h-113v22h85l63 158l14 40l4 14h-1l5 12l57 -31l12 -16l-22 -3l-21 -39l-25 -40l-29 -42l-33 -44l-8 -9h50l54 54l64 -54v-22h-91v-259l47 18l63 21l5 -10
l-55 -37l-55 -34l-5 -3v-23l-4 -50zM136 112l-65 -32v414l65 -11l16 -10l-16 -10v-265h75v371h-167v22h167v210h-55l-33 -69l-19 -35l-45 -71l-9 5l53 151l21 69l8 33l8 33l10 57l3 15l61 -22l14 -14l-19 -7l-14 -44l-11 -34l-13 -33l-5 -13h142l53 54l65 -54v-21h-151v-210
h60l53 54l65 -54v-22h-178v-371h76v296l64 -11l16 -10l-16 -10v-308l-64 -32v54h-215v-65z" />
  </g>

</svg>
