<?xml version="1.0" standalone="no"?>
<!DOCTYPE svg PUBLIC "-//W3C//DTD SVG 1.1//EN" "http://www.w3.org/Graphics/SVG/1.1/DTD/svg11.dtd" >
<svg xmlns="http://www.w3.org/2000/svg" xmlns:xlink="http://www.w3.org/1999/xlink" version="1.1" viewBox="0 -144 1024 1024">
  <g transform="matrix(1 0 0 -1 0 880)">
   <path fill="currentColor"
d="M832 162l-45 28l-42 31l-41 32l-38 34l-37 36l-34 38l-31 41l-22 34v-351l-65 -32v345l-42 -53l-40 -41l-42 -39l-44 -35l-48 -33l-51 -30l-53 -27l-57 -24l-59 -20l-4 9l55 30l51 30l49 32l45 33l43 35l40 37l37 39l34 41l30 42l10 17h-365v22h411v149l65 -11l16 -11
l-16 -9v-118h292l54 54l64 -54v-22h-398l63 -58l77 -61l41 -29l83 -52l45 -24l45 -21l80 -35l-61 -50l-48 25zM638 641l-14 3l-13 4l-12 7l-11 9l-8 10l-7 13l-5 13l-2 13v13v183h-99l-8 -33l-13 -37l-16 -36l-20 -33l-22 -31l-27 -28l-29 -27l-33 -23l-36 -21l-39 -17l-5 8
l33 27l29 26l27 27l23 27l20 28l17 30l13 30l11 32l8 32l2 19h-213v-334l-64 -32v419l64 -32h656l33 27l59 -48l-27 -22v-312l-65 -32v366h-215v-189l1 -5l2 -5l2 -2l5 -1l5 -2h7h102l32 134h11l-11 -134l20 -13l12 -19l-12 -19l-20 -14h-134z" />
  </g>

</svg>
