<?xml version="1.0" standalone="no"?>
<!DOCTYPE svg PUBLIC "-//W3C//DTD SVG 1.1//EN" "http://www.w3.org/Graphics/SVG/1.1/DTD/svg11.dtd" >
<svg xmlns="http://www.w3.org/2000/svg" xmlns:xlink="http://www.w3.org/1999/xlink" version="1.1" viewBox="0 -144 1024 1024">
  <g transform="matrix(1 0 0 -1 0 880)">
   <path fill="currentColor"
d="M729 111h114l5 1l3 1l2 1l1 1l1 1l2 5l1 4v7v203h-685v-251l-65 -32v336l65 -32h685l32 27l60 -48l-27 -22v-181l-1 -14l-2 -13l-5 -13l-7 -12l-8 -11l-11 -9l-13 -7l-12 -4l-14 -2l-13 -1v33l-108 16v16zM381 294h274l32 27l59 -49l-26 -21v-72l-65 -33v33h-274l-65 -33
v180zM381 272v-72h274v72h-274zM303 533h425l32 27l59 -49l-27 -21v-69l-64 -32v32h-425l-64 -32v176zM303 511v-68h425v68h-425zM78 592h403v81l64 -11l16 -10l-16 -10v-50h306l44 48l54 -48v-21h-871v21zM964 940l-27 -22v-233l-65 -32v287h-83l37 -40l4 -19l-21 5
l-20 -14l-21 -13l-46 -23l-26 -11l-28 -10l-29 -9l-31 -8l-33 -7l-3 10l82 46l46 28l38 29l16 14l14 14l8 8h-231v21h327l32 27zM502 940l-27 -22v-233l-65 -32v287h-82l36 -41l3 -19l-21 6l-22 -14l-22 -13l-49 -23l-28 -11l-29 -10l-31 -10l-33 -7l-36 -7l-2 10l114 61
l24 14l41 28l18 14l16 14l7 8h-230v21h326l33 27zM860 808l3 -20l-21 6l-27 -18l-26 -15l-28 -13l-30 -13l-32 -12l-35 -11l-36 -10l-40 -9l-42 -7l-2 9l107 50l60 31l26 15l45 32l18 16l17 17zM392 808l3 -20l-20 6l-28 -18l-25 -15l-27 -13l-30 -13l-31 -12l-34 -11
l-36 -10l-39 -9l-40 -7l-3 9l105 50l58 31l26 15l44 32l17 16l13 12h-1l6 5z" />
  </g>

</svg>
