<?xml version="1.0" standalone="no"?>
<!DOCTYPE svg PUBLIC "-//W3C//DTD SVG 1.1//EN" "http://www.w3.org/Graphics/SVG/1.1/DTD/svg11.dtd" >
<svg xmlns="http://www.w3.org/2000/svg" xmlns:xlink="http://www.w3.org/1999/xlink" version="1.1" viewBox="0 -144 1024 1024">
  <g transform="matrix(1 0 0 -1 0 880)">
   <path fill="currentColor"
d="M626 105l-8 -10l-9 -10l-11 -8l-11 -6l-13 -6l-12 -3l-13 -2l-14 -1v32l-75 16v16h75l7 1l7 1l9 3l4 2l4 3l3 4l3 4l3 5l4 7l6 19l5 28l6 36l5 45l3 52l4 60l2 68l3 75l1 83v79h-74l-3 -83l-7 -92l-12 -86l-15 -79l-18 -71l-23 -64l-26 -57l-32 -49l-34 -41l-39 -31l-7 7
l30 37l26 43l24 49l20 56l17 62l13 69l11 76l7 83l3 90l1 81h-95v22h95v242l64 -11l17 -11l-17 -9v-211h74l32 27l60 -49l-27 -16l-1 -64l-1 -84l-2 -75l-3 -69l-3 -61l-4 -54l-5 -47l-6 -39l-7 -33l-9 -27l-5 -12zM313 308l-12 30l-15 29l-19 29l-19 27v-343l-65 -32v291
l-20 -52l-20 -40l-21 -38l-24 -36l-27 -33l-29 -30l-8 6l21 36l36 73l15 39l14 40l12 41l11 43l8 44l7 46l4 32h-119v22h140v145h-125v21h125v112l-26 -2l-36 -3h-39l-39 2v9l108 27l32 8v138l65 -11l16 -11l-16 -9v-87l24 9l25 10l25 12l17 9l5 2l6 -12l39 -37l2 -18l-21 9
l-25 -10l-28 -9l-29 -7l-31 -7l-9 -2v-122h27l44 49l54 -49v-21h-125v-145h21l54 54l64 -54v-22h-139v-69l24 -13l16 -10l30 -24l14 -14l12 -14l12 -16l11 -16l10 -17l-1 -24l-17 -18l-24 1l-18 17zM791 849h98l33 27l59 -49l-27 -21v-693l-65 -32v64h-98v-64l-64 -33v833z
M791 827v-660h98v660h-98z" />
  </g>

</svg>
