<?xml version="1.0" standalone="no"?>
<!DOCTYPE svg PUBLIC "-//W3C//DTD SVG 1.1//EN" "http://www.w3.org/Graphics/SVG/1.1/DTD/svg11.dtd" >
<svg xmlns="http://www.w3.org/2000/svg" xmlns:xlink="http://www.w3.org/1999/xlink" version="1.1" viewBox="0 -144 1024 1024">
  <g transform="matrix(1 0 0 -1 0 880)">
   <path fill="currentColor"
d="M639 117h86h7l5 1l3 1l2 1l2 2l1 2l1 3v5l1 6v81h-358v-136l-64 -32v378l-39 -34l-48 -38l-50 -34l-51 -32l-53 -26l-5 8l47 36l45 37l44 38l43 41l42 43l25 28v6l4 -2l50 60l7 9h-299v22h315l50 71l32 50l6 9l52 -39l7 -17h-20l-55 -74h355l54 54l64 -54v-22h-490
l-36 -43l-44 -47l-2 -2l14 -7h358l32 27l59 -49l-27 -21v-289v-14l-3 -13l-4 -13l-7 -12l-8 -11l-11 -9l-12 -6l-13 -5l-14 -2l-14 -1v33l-86 16v16zM389 334v-93h358v93h-358zM389 448v-93h358v93h-358zM722 693l-84 37l-48 18l-28 10l-50 -23l-62 -23l-68 -19l-73 -16
l-79 -11l-84 -6l-1 9l82 18l76 18l69 21l64 24l57 26l5 3l-71 22l-195 53l2 10l70 -8l67 -10l64 -10l60 -13l56 -13l38 27l39 33l33 37l7 9h-454v22h469l5 7l2 -2l25 22l59 -49l-27 -16l-19 -8l-21 -26l-40 -39l-46 -34l-2 -1l84 -27l44 -17l40 -17l16 -19l-1 -25l-19 -15
l-25 1z" />
  </g>

</svg>
