<?xml version="1.0" standalone="no"?>
<!DOCTYPE svg PUBLIC "-//W3C//DTD SVG 1.1//EN" "http://www.w3.org/Graphics/SVG/1.1/DTD/svg11.dtd" >
<svg xmlns="http://www.w3.org/2000/svg" xmlns:xlink="http://www.w3.org/1999/xlink" version="1.1" viewBox="0 -144 1024 1024">
  <g transform="matrix(1 0 0 -1 0 880)">
   <path fill="currentColor"
d="M671 113h114l5 1l3 1l2 1l1 1l1 1l2 5l1 5v7v93h-522v-150l-65 -33v485l65 -32h522l32 27l60 -49l-27 -21v-320l-1 -14l-3 -14l-4 -13l-7 -12l-8 -11l-11 -9l-13 -6l-12 -5l-14 -2l-13 -1v33l-108 16v16zM278 352v-103h522v103h-522zM278 476v-102h522v102h-522zM617 588
h77v28h-414v-38l-64 -32v267l-30 -23l-32 -20l-33 -19l-37 -17l-5 8l58 51l27 25l45 49l36 49l15 25l12 25l10 25l3 6l57 -31l10 -17l-21 -3l-4 -9l-15 -21h553l32 27l60 -49l-27 -16l-1 -26l-3 -48l-3 -44l-6 -40l-7 -36l-9 -32l-11 -29l-13 -25l-16 -21l-19 -17l-11 -7
l-11 -6l-11 -6l-12 -4l-11 -4l-12 -3l-12 -3l-12 -2l-12 -1h-13v32l-108 16v16zM568 668l-43 37l-21 16l-45 -24l-38 -17l-41 -16l-41 -14l-43 -12l-3 9l75 42l71 44l25 17l-131 84l4 9l35 -10l34 -11l64 -26l30 -15l4 -2l59 50l55 55l45 -47l3 -19l-19 5l-47 -39l-33 -23
l-14 -9l55 -37l24 -19l10 -22l-8 -23l-22 -11l-24 8zM823 632l9 18l8 22l7 26l7 33l5 36l4 42l2 45v40h-569l-30 -35l-24 -23l-22 -19l60 -10l16 -11l-16 -10v-149h414v180l64 -10l16 -11l-16 -10v-170l-55 -28h22l18 1l8 1l8 2l23 8l8 4l7 4l8 5l9 8z" />
  </g>

</svg>
