<?xml version="1.0" standalone="no"?>
<!DOCTYPE svg PUBLIC "-//W3C//DTD SVG 1.1//EN" "http://www.w3.org/Graphics/SVG/1.1/DTD/svg11.dtd" >
<svg xmlns="http://www.w3.org/2000/svg" xmlns:xlink="http://www.w3.org/1999/xlink" version="1.1" viewBox="0 -144 1024 1024">
  <g transform="matrix(1 0 0 -1 0 880)">
   <path fill="currentColor"
d="M611 258h253l32 27l60 -49l-27 -21v-129l-65 -33v54h-253v-38l-65 -32v253zM445 723l-35 -36l-27 -27l-29 -24l-7 7l98 148v10l5 -3l88 148l24 43l53 -37l8 -18h-20l-20 -31h161l32 27l60 -49l-27 -16l-15 -6l-14 -21l-22 -27l-25 -25l-13 -13l-7 -5h151l53 54l65 -54
v-21h-472v-269l-3 -62l-6 -59l-8 -55l-11 -50l-14 -47l-17 -41l-20 -38l-23 -32l-26 -28l-28 -21l-7 7l20 28l18 29l15 34l13 36l11 40l9 43l6 48l5 52l2 56l-1 60v245zM153 940h117l32 27l59 -48l-26 -22v-758l-1 -13l-3 -14l-4 -12l-6 -13l-10 -11l-10 -8l-13 -7l-13 -4
l-13 -3l-13 -1v33l-86 16v16h86h6l5 1l5 2l2 2l1 2l1 3l1 5v6v307h-117v-22l-2 -57l-5 -54l-5 -49l-7 -45l-9 -41l-11 -36l-12 -32l-15 -27l-16 -22l-19 -16l-7 7l8 20l8 23l7 27l7 30l5 35l5 39l2 43l2 48v51l-1 56v549zM611 236v-107h253v107h-253zM907 333v-22h-332v22
h256l33 38zM907 414v-22h-332v22h256l33 37zM153 688v-221h117v221h-117zM975 489v-22h-464v22h366l44 48zM730 571l-2 20l-2 10l-9 32l-4 11l-7 10l7 6l9 -8l10 -7l20 -16l8 -10l15 -19l7 -11l12 -24l-5 -24l-20 -14l-24 5l-15 20l1 9zM647 726l6 7l49 -42l6 -19l-22 3
l-30 -30l-49 -43l-36 -27l-37 -25l-7 7l13 18l88 121l20 30h-1zM898 573l-27 42l-44 56l-24 29l-14 13l6 8l35 -18l16 -9l32 -21l30 -22l28 -25l13 -13l6 -24l-11 -21l-24 -7zM153 919v-210h117v210h-117zM568 881l-52 -73l-25 -30l19 -10h182l2 3l23 47l13 30l5 14l4 14
l2 5h-173z" />
  </g>

</svg>
