<?xml version="1.0" standalone="no"?>
<!DOCTYPE svg PUBLIC "-//W3C//DTD SVG 1.1//EN" "http://www.w3.org/Graphics/SVG/1.1/DTD/svg11.dtd" >
<svg xmlns="http://www.w3.org/2000/svg" xmlns:xlink="http://www.w3.org/1999/xlink" version="1.1" viewBox="0 -144 1024 1024">
  <g transform="matrix(1 0 0 -1 0 880)">
   <path fill="currentColor"
d="M541 75l-64 -32v725l64 -32h146v247l64 -10l16 -11l-16 -10v-216h145l33 27l59 -48l-27 -22v-586l-65 -32v64h-355v-64zM227 110h82h6l3 1l4 1v2l1 1l3 6l1 6v7v381l-19 -5l-82 -17l-41 -8l-4 -1l-1 -26l-4 -64l-6 -60l-9 -56l-11 -52l-14 -46l-16 -43l-19 -38l-22 -32
l-24 -27l-8 6l14 31l14 34l11 38l10 41l9 46l6 49l5 54l2 58l1 63v13l-42 -7l-9 -18l-13 15l-18 63l80 7v343l65 -32h14l4 7l15 46l8 29l7 29l2 14l2 8h-1l1 5l3 9l59 -28l12 -15l-22 -5l-13 -22l-17 -27l-10 -13l-22 -26l-13 -11h116l30 26l56 -48l-27 -19v-244l34 2l39 3
l2 -10l-37 -13l-38 -11v-396v-13l-2 -12l-4 -13l-6 -11l-7 -11l-9 -8l-12 -7l-11 -5l-13 -2l-13 -1v29l-82 15v15zM541 440v-279h146v279h-146zM751 440v-279h145v279h-145zM273 446l15 -11l-15 -9v-191l-59 -30v252zM541 715v-253h146v253h-146zM751 715v-253h145v253h-145
zM182 822v-283l37 4l41 4l41 4l26 2v269h-145zM236 655l-2 19l-3 17l-4 18l-4 16l-5 15l-12 30l-9 13l7 7l27 -21l13 -13l11 -15l11 -16l9 -18l9 -20l7 -20l6 -22l5 -23l-7 -24l-21 -12l-24 7l-12 22l-1 21z" />
  </g>

</svg>
