<?xml version="1.0" standalone="no"?>
<!DOCTYPE svg PUBLIC "-//W3C//DTD SVG 1.1//EN" "http://www.w3.org/Graphics/SVG/1.1/DTD/svg11.dtd" >
<svg xmlns="http://www.w3.org/2000/svg" xmlns:xlink="http://www.w3.org/1999/xlink" version="1.1" viewBox="0 -144 1024 1024">
  <g transform="matrix(1 0 0 -1 0 880)">
   <path fill="currentColor"
d="M211 73l-65 -33v696l65 -32h548l54 54l65 -54v-22h-291v-150h162l32 27l59 -49l-27 -21v-222l-64 -32v65h-162v-190h210l54 54l64 -54v-21h-704v-16zM211 682v-572h312v243l64 -32h162v189h-162v-64l-64 -32v268h-312zM399 550l16 -11l-16 -9v-264l-64 -32v327zM739 991
l17 -10l-17 -10v-77h127l54 53l64 -53v-22h-245v-83l-64 -32v115h-131v22h131v108zM349 991l16 -10l-16 -10v-77h12l54 53l64 -53v-22h-130v-83l-65 -32v115h-245v22h245v108z" />
  </g>

</svg>
