<?xml version="1.0" standalone="no"?>
<!DOCTYPE svg PUBLIC "-//W3C//DTD SVG 1.1//EN" "http://www.w3.org/Graphics/SVG/1.1/DTD/svg11.dtd" >
<svg xmlns="http://www.w3.org/2000/svg" xmlns:xlink="http://www.w3.org/1999/xlink" version="1.1" viewBox="0 -144 1024 1024">
  <g transform="matrix(1 0 0 -1 0 880)">
   <path fill="currentColor"
d="M889 228l-9 -11l-9 -9l-11 -7l-11 -7l-13 -5l-13 -3l-13 -2l-13 -1v33l-108 16v16h115l6 1l6 2l5 2l4 2l5 3l3 3l4 5l7 12l1 2l3 9l2 7l2 8l1 9l3 11l1 11l2 11h-312l16 -27l26 -34l28 -32l32 -28l35 -25l39 -22l43 -20l48 -16l51 -13l107 -20l-63 -61l-60 15l-56 19
l-51 22l-46 26l-41 29l-37 33l-30 36l-25 39l-20 42l-10 37h-7l-5 -21l-27 -56l-37 -51l-46 -44l-55 -38l-63 -32l-72 -26l-81 -20l-90 -14l-1 10l86 24l76 27l67 31l56 34l47 38l37 42l28 45l20 49v2h-257l-7 -24l-71 -13l61 209l42 -39h246v94h-355v21h355v72h-425v22h425
v97l64 -11l16 -10l-16 -10v-66h307l53 53l65 -53v-22h-425v-72h237l32 27l59 -48l-27 -22v-105l-64 -32v43h-237v-2l-7 -67l-5 -21h329l33 27l59 -48l-27 -16l-4 -2l-3 -16l-2 -11l-4 -20l-3 -9l-2 -7l-2 -8l-10 -19zM544 573v-94h237v94h-237zM415 975l16 -11l-16 -10v-162
l-64 -32v105h-307v22h307v99zM673 975l16 -11l-16 -10v-67h188l54 53l65 -53v-22h-307v-73l-64 -32v226zM241 457l-26 -90h256l6 30l3 58v2h-239z" />
  </g>

</svg>
