<?xml version="1.0" standalone="no"?>
<!DOCTYPE svg PUBLIC "-//W3C//DTD SVG 1.1//EN" "http://www.w3.org/Graphics/SVG/1.1/DTD/svg11.dtd" >
<svg xmlns="http://www.w3.org/2000/svg" xmlns:xlink="http://www.w3.org/1999/xlink" version="1.1" viewBox="0 -144 1024 1024">
  <g transform="matrix(1 0 0 -1 0 880)">
   <path fill="currentColor"
d="M851 344v157h-242v-108l-5 -49h247zM171 688h200l32 27l59 -48l-27 -22v-410l-64 -33v65h-200v-65l-64 -32v550zM171 473v-185h200v185h-200zM171 667v-173h200v173h-200zM609 680v-157h242v157h-242zM738 988l16 -11l-16 -10v-84h123l54 54l65 -54v-22h-242v-89l-65 -32
v121h-129v22h129v115zM351 988l16 -11l-16 -10v-84h31l44 48l54 -48v-22h-129v-89l-65 -32v121h-242v22h242v115zM912 109l-4 -13l-7 -13l-9 -10l-11 -9l-12 -6l-13 -5l-13 -2l-14 -1v32l-107 16v17h114l4 1l4 1l1 1h1l1 1l2 5l1 5l1 7v186h-250l-8 -36l-16 -47l-23 -43
l-29 -37l-34 -32l-39 -27l-45 -21l-49 -15l-55 -10l-2 9l50 20l44 22l37 25l32 28l26 30l21 34l16 37l10 41l6 44l1 49v341l65 -32h242l32 27l59 -49l-27 -21v-523l-1 -14z" />
  </g>

</svg>
