<?xml version="1.0" standalone="no"?>
<!DOCTYPE svg PUBLIC "-//W3C//DTD SVG 1.1//EN" "http://www.w3.org/Graphics/SVG/1.1/DTD/svg11.dtd" >
<svg xmlns="http://www.w3.org/2000/svg" xmlns:xlink="http://www.w3.org/1999/xlink" version="1.1" viewBox="0 -144 1024 1024">
  <g transform="matrix(1 0 0 -1 0 880)">
   <path fill="currentColor"
d="M604 53l-12 -3l-11 -2l-12 -2l-12 -1l-23 -1v32l-108 17v16h108l27 1l19 4l17 4l10 3l17 6l16 8l15 9l13 11l13 12l11 13l9 15l8 17l8 19l6 21l1 6h-396l-12 -17l-71 12l74 101h-269v22h816l44 48l54 -48v-22h-565l-55 -74h383l32 27l59 -49l-26 -16l-6 -2l-8 -29
l-10 -24l-11 -23l-13 -21l-15 -19l-18 -17l-19 -15l-20 -13l-23 -11l-22 -9zM829 478v-22h-656v22h580l33 37zM186 743h209l33 27l59 -48l-27 -22v-149l-65 -33v43h-209v-16l-65 -32v262zM628 743h210l32 27l59 -48l-27 -22v-149l-64 -33v43h-210v-16l-64 -32v262zM628 722
v-139h210v139h-210zM186 722v-139h209v139h-209zM695 986l16 -11l-16 -9v-66h166l54 53l65 -53v-22h-285v-72l-65 -32v104h-236v-72l-65 -32v104h-285v22h285v97l65 -11l16 -11l-16 -9v-66h236v97z" />
  </g>

</svg>
