<?xml version="1.0" standalone="no"?>
<!DOCTYPE svg PUBLIC "-//W3C//DTD SVG 1.1//EN" "http://www.w3.org/Graphics/SVG/1.1/DTD/svg11.dtd" >
<svg xmlns="http://www.w3.org/2000/svg" xmlns:xlink="http://www.w3.org/1999/xlink" version="1.1" viewBox="0 -144 1024 1024">
  <g transform="matrix(1 0 0 -1 0 880)">
   <path fill="currentColor"
d="M765 262h10l-10 -134l19 -13l13 -20l-13 -19l-19 -13h-382l-14 1l-13 2l-13 5l-13 6l-10 9l-9 10l-7 13l-4 13l-3 13v14v188l64 -11l17 -10l-17 -10v-164l2 -5l1 -5l1 -1h1l2 -1l3 -1l5 -1h356zM57 106l-3 24l15 20l16 8l14 9l12 12l12 14l11 16l9 19l8 22l7 24l6 27
l4 30h10l4 -30l3 -30l-1 -28l-4 -26l-6 -25l-9 -24l-12 -22l-15 -20l-17 -17l-20 -15l-24 -3zM889 178l-8 18l-9 17l-12 18l-14 17l-16 18l-36 36l-22 19l5 8l26 -12l25 -12l23 -14l22 -14l19 -17l18 -17l16 -19l14 -19l12 -21l10 -22l-2 -24l-18 -16l-25 2l-16 18l-5 18z
M556 246l-10 14l-23 28l-13 14l-30 26l-17 13l-18 12l4 9l43 -13l20 -8l19 -9l19 -11l17 -12l17 -13l15 -14l15 -15l13 -16l4 -24l-14 -20l-24 -4l-20 14l-8 15zM177 375v371l65 -32h551l32 26l60 -48l-27 -21v-263l-65 -33v33h-551zM242 552v-123h243v123h-243zM550 552
v-123h243v123h-243zM242 692v-118h243v118h-243zM550 692v-118h243v118h-243zM734 986l16 -11l-16 -9v-77h122l54 54l64 -54v-21h-240v-82l-64 -33v115h-129v21h129v108zM349 986l16 -11l-16 -9v-77h30l44 49l54 -49v-21h-128v-82l-65 -33v115h-240v21h240v108z" />
  </g>

</svg>
