<?xml version="1.0" standalone="no"?>
<!DOCTYPE svg PUBLIC "-//W3C//DTD SVG 1.1//EN" "http://www.w3.org/Graphics/SVG/1.1/DTD/svg11.dtd" >
<svg xmlns="http://www.w3.org/2000/svg" xmlns:xlink="http://www.w3.org/1999/xlink" version="1.1" viewBox="0 -144 1024 1024">
  <g transform="matrix(1 0 0 -1 0 880)">
   <path fill="currentColor"
d="M325 88l-9 -9l-10 -9l-11 -8l-11 -5l-13 -5l-12 -4l-14 -1l-13 -1v32l-86 16v16h86l7 1l7 1l11 3l5 3l4 3l5 4l4 4l4 6l3 6l5 11l5 16l4 21l3 27l2 31l2 36v40v45l-2 49v3l-2 -1v43h-83l-1 -23l-7 -56l-8 -53l-12 -50l-15 -48l-17 -44l-21 -41l-24 -38l-27 -34l-31 -29
l-7 6l21 35l19 37l17 38l14 41l12 42l10 45l7 48l5 51l2 53v55v112h-103v21h138v137l65 -10l16 -11l-16 -10v-106h50l54 54l65 -54v-21h-250l45 -8l17 -11l-17 -9v-84v-14h82l32 27l30 -25l-2 3l46 55l41 55l18 28l17 29l29 60l12 31l10 32h1l2 8l58 -30l11 -16l-19 -3
l-24 -47l-18 -31l-18 -28h312l54 54l65 -54v-21h-447l-31 -37l-26 -26l-27 -24l-29 -22l-30 -20l24 -19l-26 -15l2 -27l1 -51l1 -46l-1 -42l-1 -37l-3 -34l-4 -30l-5 -27l-6 -22l-9 -20l-7 -12zM761 273h61l5 1l3 1l2 1l1 1v1l2 2l1 3l1 5v178l-128 -35v-228l-65 -32v243
l-114 -32v-226v-6l1 -5l1 -3l1 -2l1 -1l1 -1l2 -1l3 -1l5 -1h6h362l32 134h11l-11 -134l19 -13l13 -20l-13 -19l-19 -13h-394l-14 1l-13 2l-13 5l-12 6l-11 9l-9 11l-6 12l-5 13l-2 14l-1 13v209l-88 -25l-6 21l94 26v161l65 -11l16 -11l-16 -9v-112l114 31v166l65 -11
l16 -11l-16 -9v-118l128 35v9l32 27l59 -49l-27 -21v-159v-14l-2 -14l-5 -13l-7 -12l-8 -11l-11 -8l-12 -7l-13 -4l-14 -3h-14v32l-54 16v16zM695 980l16 -11l-16 -10v-78h166l54 53l65 -53v-22h-285v-84l-65 -32v116h-236v-84l-65 -32v116h-285v22h285v109l65 -10l16 -11
l-16 -10v-78h236v109z" />
  </g>

</svg>
