<?xml version="1.0" standalone="no"?>
<!DOCTYPE svg PUBLIC "-//W3C//DTD SVG 1.1//EN" "http://www.w3.org/Graphics/SVG/1.1/DTD/svg11.dtd" >
<svg xmlns="http://www.w3.org/2000/svg" xmlns:xlink="http://www.w3.org/1999/xlink" version="1.1" viewBox="0 -144 1024 1024">
  <g transform="matrix(1 0 0 -1 0 880)">
   <path fill="currentColor"
d="M661 110h97l7 1l5 1h3l2 2v1l1 1l2 1l1 4v4l1 7v226h-399v21h399v107l64 -11l16 -11l-16 -10v-75h22l54 54l64 -54v-21h-140v-226v-14l-3 -13l-4 -13l-7 -12l-9 -11l-11 -9l-11 -7l-14 -4l-13 -2l-14 -1v32l-97 16v16zM58 280l164 75l29 12v364l64 -11l16 -10l-16 -10
v-618l-64 -32v296l-14 -13l-57 -45l-71 -52l-2 -22l-17 9l-41 51zM582 209l-10 23l-15 25l-21 25l-25 27l-15 13l5 8l18 -9l18 -7l17 -9l17 -9l28 -21l13 -11l12 -12l11 -13l9 -13l1 -24l-16 -19l-25 -1l-18 16zM931 621l29 -31l1 -18l-19 8l-35 -19l-98 -45l-51 -21
l-111 -41l-59 -18l-61 -18l-64 -16l-67 -14l-2 9l182 72l110 47l101 49l90 50l42 25zM171 512l-18 27l-10 13l-12 13l-27 24l-15 13l-17 10l4 10l20 -7l20 -5l19 -8l17 -8l18 -11l16 -11l15 -12l14 -14l13 -15l12 -16l3 -24l-15 -19l-25 -3l-19 15zM514 501l-4 8l-10 18
l-16 20l-22 24l-13 10l4 8l16 -8l30 -12l14 -6l12 -6l12 -7l10 -8l10 -8l9 -8l8 -9l1 -25l-16 -18l-24 -2l-19 16v6zM643 552l-3 7l-3 8l-6 9l-6 9l-8 10l-20 21l-13 8l1 2l-68 -16l-47 -10l-49 -10l-50 -7l-3 9l312 115l119 48l3 -9l48 -41l1 -17l-22 9l-48 -16l-128 -37
l-44 -12l-11 -3l5 -3l15 -4l14 -5l13 -6l23 -13l11 -7l9 -9l9 -9l7 -11v-24l-18 -17l-25 1l-17 17v6zM695 977l16 -10l-16 -10v-84h166l54 54l65 -54v-21h-285v-89l-65 -32v121h-236v-89l-65 -32v121h-285v21h285v115l65 -11l16 -10l-16 -10v-84h236v115z" />
  </g>

</svg>
