<?xml version="1.0" standalone="no"?>
<!DOCTYPE svg PUBLIC "-//W3C//DTD SVG 1.1//EN" "http://www.w3.org/Graphics/SVG/1.1/DTD/svg11.dtd" >
<svg xmlns="http://www.w3.org/2000/svg" xmlns:xlink="http://www.w3.org/1999/xlink" version="1.1" viewBox="0 -144 1024 1024">
  <g transform="matrix(1 0 0 -1 0 880)">
   <path fill="currentColor"
d="M349 393l-2 6l-37 -13l-30 -10l-13 -3v-299l-64 -32v315l-47 -10l-65 -11l-11 -2l-10 -18l-12 15l-17 63l11 1l32 2l32 1l18 2l163 224l39 57l5 8l50 -42l6 -18l-20 2l-84 -99l-80 -83l-51 -47l143 12l36 2l-9 18l-7 14l-18 27l-10 14l-12 12l6 8l15 -9l16 -8l30 -21
l13 -12l13 -13l11 -14l11 -15l17 -33l-1 -25l-19 -16l-24 2l-16 18l-4 15zM959 254h10l-10 -135l19 -12l13 -20l-13 -19l-19 -13h-422h-14l-13 3l-13 4l-12 7l-11 9l-9 11l-6 12l-5 13l-2 13l-1 14v371l-7 -2l-44 -10l-3 9l39 20l69 40l30 22l26 23l23 24l20 25l17 26l13 27
l2 6h-199v22h415l33 26l59 -48l-27 -16h-1l-1 -18l-2 -21l-3 -20l-3 -17l-5 -17l-6 -15l-7 -15l-8 -12l-10 -12l-10 -8l-10 -8l-11 -7l-10 -6l-12 -5l-12 -4l-12 -4l-13 -2l-12 -1h-13v32l-107 16v16h115l16 2l7 2l14 6l7 3l6 5l12 10l4 4l3 5l4 8l4 10l3 12l3 14l2 15l2 18
l1 20v10h-147l-16 -34l-20 -30l-23 -29l-26 -26l-30 -24l-32 -21l-35 -19l-38 -16l-15 -5l46 -23h343l33 27l59 -48l-27 -22v-190l-65 -32v64h-343v-159l1 -5l1 -4l2 -3h1l1 -1l3 -1l5 -1l7 -1h389zM170 294l14 -13l-20 -8l-8 -26l-8 -23l-22 -44l-13 -21l-31 -41l-37 -38
l-8 6l23 46l10 22l8 22l8 22l11 42l4 21l3 21l1 16h-1l3 16zM346 202l-9 30l-12 29l-8 15l-17 29l-12 13l6 7l31 -19l15 -11l13 -12l13 -14l22 -30l11 -17l8 -17l8 -19l-4 -24l-19 -15l-24 3l-15 19l-3 17zM516 474v-158h141v158h-141zM722 474v-158h137v158h-137zM133 541
l-6 13l-17 24l-22 25l-28 25l-16 11l4 9l38 -14l18 -7l17 -9l8 -4l74 131l15 30l6 9l51 -39l8 -19l-22 1l-39 -45l-44 -44l-15 -14l-22 -18l11 -8l14 -12l13 -12l11 -14l10 -15l2 -24l-16 -19l-25 -1l-19 16l-4 12zM739 992l17 -11l-17 -9v-76h127l54 54l64 -54v-22h-245
v-81l-64 -33v114h-131v22h131v107zM349 992l16 -11l-16 -9v-76h12l54 54l64 -54v-22h-130v-81l-65 -33v114h-245v22h245v107z" />
  </g>

</svg>
