<?xml version="1.0" standalone="no"?>
<!DOCTYPE svg PUBLIC "-//W3C//DTD SVG 1.1//EN" "http://www.w3.org/Graphics/SVG/1.1/DTD/svg11.dtd" >
<svg xmlns="http://www.w3.org/2000/svg" xmlns:xlink="http://www.w3.org/1999/xlink" version="1.1" viewBox="0 -144 1024 1024">
  <g transform="matrix(1 0 0 -1 0 880)">
   <path fill="currentColor"
d="M211 774h253v215l64 -11l16 -11l-16 -9v-61h215l54 54l64 -54v-21h-333v-102h317l54 53l65 -53v-22h-753v-258l-3 -63l-6 -59l-9 -56l-12 -51l-14 -49l-18 -44l-21 -40l-24 -36l-26 -31l-30 -26l-7 7l20 32l19 33l17 37l14 39l12 43l9 45l7 50l5 53l2 56v372zM932 255h11
l-11 -134l19 -13l13 -19l-13 -20l-19 -12h-165l-14 1l-13 2l-13 4l-12 7l-11 9l-9 10l-6 13l-4 13l-3 13l-1 14v192h-174l-3 -25l-11 -45l-20 -41l-25 -37l-32 -33l-38 -28l-43 -24l-50 -20l-55 -16l-60 -11l-3 10l57 21l50 23l43 24l37 26l30 28l24 30l17 31l12 34l7 36v17
h-216v21h217v2v114l65 -11l16 -11l-16 -10v-82v-2h171l33 27l59 -48l-27 -22v-170v-7l1 -5l1 -3l1 -2l1 -1l1 -1h2l3 -1l5 -1l6 -1h133zM904 647h11l-11 -113l18 -11l12 -18l-12 -18l-18 -12h-381l-14 1l-13 2l-13 4l-12 6l-11 9l-9 10l-6 12l-5 13l-3 13v14v48l-220 -21
l-2 21l222 21v113l64 -10l16 -11l-16 -10v-76l231 21l48 59l70 -48l1 -21l-350 -32v-61l1 -5v-3l1 -2l1 -2l1 -1l2 -1l3 -1l6 -1l7 -2h352z" />
  </g>

</svg>
