<?xml version="1.0" standalone="no"?>
<!DOCTYPE svg PUBLIC "-//W3C//DTD SVG 1.1//EN" "http://www.w3.org/Graphics/SVG/1.1/DTD/svg11.dtd" >
<svg xmlns="http://www.w3.org/2000/svg" xmlns:xlink="http://www.w3.org/1999/xlink" version="1.1" viewBox="0 -144 1024 1024">
  <g transform="matrix(1 0 0 -1 0 880)">
   <path fill="currentColor"
d="M813 446l16 -11l-16 -10v-124h43l54 53l64 -53v-22h-161v-210l-64 -32v242h-132l-1 -15l-8 -35l-12 -33l-16 -31l-20 -28l-24 -25l-27 -23l-31 -20l-34 -17l-38 -14l-4 9l32 23l27 23l25 23l20 23l17 25l13 25l9 26l7 27l3 29v8h-140v22h334v156zM373 221l-3 19l-4 20
l-1 5l-43 -29l-58 -33l-93 -45l-65 -27l-13 -5l-6 -20l-15 12l-30 58l109 32l62 20v226h-76v-64l-64 -32v428l64 -32h76v202l64 -11l16 -11l-16 -9v-171h75l32 27l59 -49l-27 -21v-257l-64 -32v32h-75v-203l84 28l-8 21l-28 61l-13 21l7 7l19 -16l19 -18l16 -18l14 -19
l13 -20l11 -21l10 -22l8 -22l6 -23l4 -24l-8 -24l-22 -11l-23 8l-11 22l-1 20zM620 446l16 -11l-16 -10v-124h-65v156zM902 402l-49 39l-45 43l-21 22l-37 47l-16 26l-12 23h-73l-29 -47l-33 -43l-35 -40l-38 -37l-41 -34l-45 -30l-48 -26l-5 8l41 35l38 35l35 37l33 38
l29 41l26 42l11 21h-167v21h178l21 49l17 49l14 51l3 9l60 -26l12 -15l-19 -5l-12 -34l-22 -51l-14 -27h202l54 54l65 -54v-21h-239l77 -63l46 -34l50 -32l75 -43l-60 -47zM137 732v-256h76v256h-76zM277 732v-256h75v256h-75zM813 677l-4 7l-5 8l-5 8l-14 16l-8 8l-10 6
l4 9l11 -5l12 -2l12 -2l22 -8l19 -10l10 -5l17 -14l4 -25l-13 -20l-25 -5l-20 14l-2 6zM810 972l16 -11l-16 -9v-73h59l54 54l64 -54v-21h-177v-78l-65 -33v111h-134v-78l-64 -33v111h-177v21h177v104l64 -11l17 -11l-17 -9v-73h134v104z" />
  </g>

</svg>
