<?xml version="1.0" standalone="no"?>
<!DOCTYPE svg PUBLIC "-//W3C//DTD SVG 1.1//EN" "http://www.w3.org/Graphics/SVG/1.1/DTD/svg11.dtd" >
<svg xmlns="http://www.w3.org/2000/svg" xmlns:xlink="http://www.w3.org/1999/xlink" version="1.1" viewBox="0 -144 1024 1024">
  <g transform="matrix(1 0 0 -1 0 880)">
   <path fill="currentColor"
d="M452 740l7 -18l-20 1l-53 -63l-35 -37l-38 -37l-39 -35l-8 -7l41 -7l16 -11l-16 -9v-437l-64 -32v477l-53 -41l-45 -30l-46 -29l-49 -26l-5 8l123 105l38 35l72 74l64 76l30 40l25 36l6 8zM614 123h97l6 1l5 1l5 1l2 3l2 4l1 5v7v473h-306v21h441l54 54l64 -54v-21h-188
v-473l-1 -14l-2 -13l-5 -13l-7 -12l-8 -11l-11 -9l-12 -7l-13 -4l-14 -2l-13 -1v32l-97 16v16zM404 944l6 -18l-20 2l-45 -53l-63 -63l-33 -30l-35 -29l-35 -27l-37 -25l-38 -23l-39 -21l-6 8l97 89l61 61l57 64l53 68l25 35l2 4zM931 913v-21h-451v21h333l54 54z" />
  </g>

</svg>
