<?xml version="1.0" standalone="no"?>
<!DOCTYPE svg PUBLIC "-//W3C//DTD SVG 1.1//EN" "http://www.w3.org/Graphics/SVG/1.1/DTD/svg11.dtd" >
<svg xmlns="http://www.w3.org/2000/svg" xmlns:xlink="http://www.w3.org/1999/xlink" version="1.1" viewBox="0 -144 1024 1024">
  <g transform="matrix(1 0 0 -1 0 880)">
   <path fill="currentColor"
d="M713 655v22h160l53 54l65 -54v-22h-105v-526l-1 -14l-2 -13l-5 -13l-6 -13l-9 -10l-11 -9l-12 -7l-13 -4l-13 -2l-14 -1v32l-67 10v-3l-13 -21l-25 -4l-20 14l-7 14l-8 12l-9 13l-10 12l-11 12l-26 23l-15 10l-16 11l-17 9l3 9l20 -4l20 -4l19 -5l18 -7l18 -9l17 -9
l16 -11l15 -12l14 -14l12 -14h72l7 1l4 1l5 1l1 1l1 1l1 2l1 3l1 5v533h-108zM308 783l11 -16l-20 -3l-32 -62l-46 -77l-24 -35l26 -4l16 -11l-16 -10v-485l-65 -32v490l-47 -57l-31 -34l-33 -31l-8 6l73 114l45 75l40 78l36 79l16 41l3 7zM505 168l5 -19l-21 4l-38 -30
l-20 -14l-41 -24l-22 -11l-22 -9l-23 -8l-24 -8l-4 9l56 44l34 30l31 30l28 33l13 16l2 2zM361 682l14 -10l-14 -9v-405h267l53 53l65 -53v-22h-385v-38l-53 -26v521zM709 645l-27 -21v-298l-65 -32v32h-165l-54 -26v394l54 -27h165l33 27zM452 437v-89h165v89h-165z
M452 541v-82h165v82h-165zM452 645v-82h165v82h-165zM291 951l7 -18l-21 1l-42 -53l-20 -23l-43 -46l-48 -44l-26 -21l-27 -20l-7 7l112 155l46 72l16 29zM700 887h11l-11 -92l16 -11l11 -16l-11 -16l-16 -11h-274l-13 1l-13 2l-13 3l-12 6l-10 8l-9 10l-7 12l-5 12l-3 14
l-1 13v161l64 -10l17 -11l-17 -10v-75l86 31l52 19l45 20l41 21l5 -11l42 -39l1 -17l-21 9l-23 -9l-24 -7l-26 -7l-53 -13l-29 -6l-29 -4l-32 -5l-32 -2l-3 -1v-34v-6v-5l1 -4l1 -4l1 -2l2 -1l4 -2l5 -2l8 -1h247zM963 897v-21h-230v21h132l44 49z" />
  </g>

</svg>
