<?xml version="1.0" standalone="no"?>
<!DOCTYPE svg PUBLIC "-//W3C//DTD SVG 1.1//EN" "http://www.w3.org/Graphics/SVG/1.1/DTD/svg11.dtd" >
<svg xmlns="http://www.w3.org/2000/svg" xmlns:xlink="http://www.w3.org/1999/xlink" version="1.1" viewBox="0 -144 1024 1024">
  <g transform="matrix(1 0 0 -1 0 880)">
   <path fill="currentColor"
d="M351 581l2 5v-1l3 6l54 -36l10 -17l-26 -1l-21 -22l-24 -24l-47 -38l-3 -3l17 -12l17 -13l16 -15l15 -15l14 -16l13 -16l11 -17l1 -25l-16 -19l-24 -1l-19 16l-6 16l-7 15l-8 16l-10 16l-11 15l-12 16l-28 33l-7 7v-376l-64 -32v426l-25 -25l-41 -38l-44 -37l-46 -34
l-6 7l76 84l36 42l50 67v2h1l41 61l26 45l25 45l21 46l10 24h-262v21h138v215l64 -11l16 -10l-16 -10v-184h67l32 27l60 -48l-27 -17l-13 -5l-14 -28l-26 -48l-28 -46l-32 -45l-25 -32h6v-63l22 -11l11 -6l33 57l15 28l11 24l4 10l1 4zM373 123h276v178h-217v21h217v167
h-137v-65l-65 -32v548l65 -32h339l32 27l59 -48l-27 -22v-408l-64 -33v65h-137v-167h98l54 54l64 -54v-21h-216v-178h157l53 54l65 -54v-21h-616v21zM512 688v-178h137v178h-137zM714 688v-178h137v178h-137zM512 887v-178h137v178h-137zM714 887v-178h137v178h-137z" />
  </g>

</svg>
