<?xml version="1.0" standalone="no"?>
<!DOCTYPE svg PUBLIC "-//W3C//DTD SVG 1.1//EN" "http://www.w3.org/Graphics/SVG/1.1/DTD/svg11.dtd" >
<svg xmlns="http://www.w3.org/2000/svg" xmlns:xlink="http://www.w3.org/1999/xlink" version="1.1" viewBox="0 -144 1024 1024">
  <g transform="matrix(1 0 0 -1 0 880)">
   <path fill="currentColor"
d="M900 476l-22 33l-27 31l-45 45v-510l-64 -32v919l64 -11l16 -11l-16 -9v-328l29 -12l21 -10l19 -12l19 -13l35 -28l16 -17l29 -34l4 -24l-14 -21l-24 -3l-20 14zM295 579l5 11l56 -33l10 -17l-25 -3l-28 -32l-38 -38l-15 -14l-2 -3l31 -27l27 -29l12 -16l21 -34v-25
l-18 -17h-24l-18 18l-10 31l-14 30l-9 16l-10 15l-22 31v-368l-64 -32v418l-48 -54l-38 -37l-40 -35l-7 7l63 83l57 84l13 22v1l13 20l45 89l21 45l18 46l9 26h-218v21h112v215l64 -11l17 -10l-17 -10v-184h47l32 27l60 -48l-27 -17l-11 -4l-34 -75l-24 -46l-27 -45l-29 -43
l-3 -4l16 -3l17 -11l-17 -9v-30l16 -9l7 -5l11 23l7 17l8 15l12 28l8 25l2 9l1 4zM320 159l169 37v196h-133v22h133v155l65 -10l16 -11l-16 -10v-124h23l53 53l65 -53v-22h-141v-181l75 18l87 17l4 -9l-82 -36l-116 -44l-108 -37l-47 -14l-7 -20l-14 13zM329 618h160v183
h-133v21h133v167l65 -11l16 -11l-16 -9v-136h23l53 54l65 -54v-21h-141v-183h42l54 54l64 -54v-22h-385v22z" />
  </g>

</svg>
