<?xml version="1.0" standalone="no"?>
<!DOCTYPE svg PUBLIC "-//W3C//DTD SVG 1.1//EN" "http://www.w3.org/Graphics/SVG/1.1/DTD/svg11.dtd" >
<svg xmlns="http://www.w3.org/2000/svg" xmlns:xlink="http://www.w3.org/1999/xlink" version="1.1" viewBox="0 -144 1024 1024">
  <g transform="matrix(1 0 0 -1 0 880)">
   <path fill="currentColor"
d="M320 580l5 10l55 -34l10 -17l-25 -2l-30 -33l-26 -24l-30 -27l-3 -3l16 -12l31 -28l27 -31l12 -17l11 -17v-24l-15 -18h503l54 54l64 -54v-21h-161v-186l-64 -32v218h-159l-1 -31l-8 -39l-12 -36l-17 -31l-22 -28l-27 -23l-30 -19l-34 -14l-38 -9l-42 -4l-1 10l37 14
l32 16l27 17l23 20l18 21l14 23l10 26l6 29l2 32v26h-176v20h-24l-18 16l-5 16l-7 16l-16 30l-20 32l-25 32l-4 4v-373l-65 -32v422l-18 -20l-38 -39l-41 -37l-44 -34l-6 7l70 84l63 84l14 23v4h3l37 60l24 44l43 92l9 25h-240v21h124v215l65 -11l16 -10l-16 -10v-184h57
l33 27l59 -48l-27 -17l-12 -4l-12 -29l-25 -47l-26 -46l-30 -44l-23 -34h6v-64l19 -11l9 -5l3 5l26 51l14 28l5 13l7 21l1 4zM424 340v283l64 -33h351l33 27l59 -48l-27 -22v-175l-65 -32v32h-351zM488 473v-79h140v79h-140zM693 473v-79h146v79h-146zM488 569v-74h140v74
h-140zM693 569v-74h146v74h-146zM658 957l12 -17l-25 -3l-9 -13l-17 -19l-9 -8l-16 -14h197l32 27l59 -48l-26 -22v-196l-65 -33v33h-262l-64 -33v305l64 -33h44v1l4 10l2 10l7 21l8 33l2 11l2 6l-2 1l5 12zM529 724v-59h262v59h-262zM529 798v-53h262v53h-262zM529 862v-43
h262v43h-262z" />
  </g>

</svg>
