<?xml version="1.0" standalone="no"?>
<!DOCTYPE svg PUBLIC "-//W3C//DTD SVG 1.1//EN" "http://www.w3.org/Graphics/SVG/1.1/DTD/svg11.dtd" >
<svg xmlns="http://www.w3.org/2000/svg" xmlns:xlink="http://www.w3.org/1999/xlink" version="1.1" viewBox="0 -144 1024 1024">
  <g transform="matrix(1 0 0 -1 0 880)">
   <path fill="currentColor"
d="M724 372l15 -13l-20 -8l-6 -32l-16 -48l-20 -45l-25 -40l-30 -36l-34 -31l-38 -26l-43 -22l-47 -17l-50 -10l-2 9l45 21l41 22l35 26l32 28l26 30l23 34l19 36l14 40l10 43l8 58zM66 122l142 21l109 17l40 129l14 50h-1l5 13l58 -29l11 -16l-21 -4l-7 -16l-31 -57
l-25 -40l-17 -26l96 15l98 14l3 -10l-47 -17l-93 -29l-92 -25l-134 -33l-65 -14l-9 -19l-13 14zM962 279h11l-11 -134l19 -13l13 -20l-13 -19l-19 -13h-124l-14 1l-13 2l-13 5l-12 7l-11 8l-9 11l-7 12l-4 13l-2 14l-1 13v235h-116v-65l-64 -32v651l64 -32h224l32 27l59 -48
l-27 -22v-512l-64 -32v65h-44v-235l1 -6v-5l1 -3l2 -2l1 -1v-1l2 -1l3 -1l5 -1h7h92zM187 222l-1 14l-2 13l-4 14l-3 15l-11 29l-6 15l-9 15l8 6l12 -12l14 -12l11 -12l12 -13l9 -14l10 -14l7 -15l7 -16l6 -16l5 -17l-7 -23l-22 -12l-23 7l-13 21l1 13zM200 543h194l32 26
l59 -48l-27 -21v-119l-64 -32v32h-194l-64 -32v226zM200 521v-118h194v118h-194zM636 575v-153h224v153h-224zM449 662l-35 68l-19 31l-20 28l-20 27l-42 48l-23 22l-6 5l-6 -2l-6 -22l-15 -45l-18 -43l-21 -42l-22 -41l-25 -39l-2 -2h149l54 54l65 -54v-21h-269v19l-25 -34
l-31 -36l-33 -33l-37 -32l-7 7l54 76l25 38l22 39l20 40l14 33l-12 -13l-24 -1l-19 17l-2 10l-3 10l-12 29l-18 28l-8 10l-9 7l4 9l12 -6l12 -4l12 -4l12 -7l22 -14l10 -10l10 -9l9 -11l8 -11l1 -20l14 37l13 42l11 42l6 26h-110v22h113l32 27l59 -49l-10 -6l27 -15l28 -20
l24 -21l22 42l11 24l10 29h-1l6 10l54 -36l9 -17l-25 -1l-22 -23l-10 -10l-36 -27l-5 -3l15 -16l25 -28l6 -8l50 89l5 8l49 -43l7 -18l-23 3l-29 -26l-35 -27l-9 -6l25 -36l22 -36l20 -38l1 -25l-16 -18l-25 -1l-18 17zM636 738v-142h224v142h-224zM636 902v-142h224v142
h-224z" />
  </g>

</svg>
