<?xml version="1.0" standalone="no"?>
<!DOCTYPE svg PUBLIC "-//W3C//DTD SVG 1.1//EN" "http://www.w3.org/Graphics/SVG/1.1/DTD/svg11.dtd" >
<svg xmlns="http://www.w3.org/2000/svg" xmlns:xlink="http://www.w3.org/1999/xlink" version="1.1" viewBox="0 -144 1024 1024">
  <g transform="matrix(1 0 0 -1 0 880)">
   <path fill="currentColor"
d="M868 220l-11 -41l-17 -49l-5 -13l-6 -11l-8 -11l-10 -9l-10 -9l-12 -6l-12 -6l-12 -3l-14 -2l-13 -1v32l-108 16v16h108l7 1l6 1l5 1l4 2l4 2l4 3l3 4l3 4l4 5l17 51l14 51l1 8l-46 36l-50 47l-47 53l-27 36l-33 -98l-35 -79l-39 -68l-45 -58l-49 -46l-54 -35l-5 8l45 42
l41 50l37 58l33 66l28 77l25 86l12 56l-17 29l-37 71l-32 76l-27 83l8 3l40 -77l39 -71l37 -57l14 88l12 115l7 113h-192v21h408l33 27l59 -48l-27 -16l-1 -73l-3 -94l-4 -88l-5 -83l-9 -76l-9 -72l-10 -65l-2 -6l21 -11l92 -37l-61 -52l-61 29zM139 344h165l33 27l59 -49
l-27 -21v-183l-65 -32v32h-165v-38l-64 -32v328zM139 322v-183h165v183h-165zM710 860l-11 -119l-16 -117l-20 -108l-8 -31l49 -60l48 -46l49 -41l23 -15l8 45l8 69l8 74l6 82l4 86l2 93l1 88h-151zM367 478v-21h-290v21h172l54 54zM367 618v-22h-290v22h172l54 54zM414 768
v-21h-358v21h239l54 54zM367 908v-21h-290v21h172l54 54z" />
  </g>

</svg>
