<?xml version="1.0" standalone="no"?>
<!DOCTYPE svg PUBLIC "-//W3C//DTD SVG 1.1//EN" "http://www.w3.org/Graphics/SVG/1.1/DTD/svg11.dtd" >
<svg xmlns="http://www.w3.org/2000/svg" xmlns:xlink="http://www.w3.org/1999/xlink" version="1.1" viewBox="0 -144 1024 1024">
  <g transform="matrix(1 0 0 -1 0 880)">
   <path fill="currentColor"
d="M596 972l13 -13l-18 -7l-7 -27l-14 -47l-16 -47l-9 -25h322l54 54l64 -54v-22h-300v-209h147l54 54l64 -54v-22h-265v-209h159l53 53l65 -53v-22h-277v-247l-64 -32v741h-84l-19 -46l-22 -47l-49 -93l-27 -45l-32 -45l-8 5l61 146l34 95l15 47l25 92l9 46l7 40l1 4l3 12z
M138 344h163l32 27l59 -49l-27 -21v-205l-64 -32v54h-163v-38l-65 -32v328zM138 322v-183h163v183h-163zM363 478v-21h-288v21h170l54 54zM363 618v-22h-288v22h170l54 54zM409 768v-21h-354v21h236l53 54zM363 908v-21h-288v21h170l54 54z" />
  </g>

</svg>
