<?xml version="1.0" standalone="no"?>
<!DOCTYPE svg PUBLIC "-//W3C//DTD SVG 1.1//EN" "http://www.w3.org/Graphics/SVG/1.1/DTD/svg11.dtd" >
<svg xmlns="http://www.w3.org/2000/svg" xmlns:xlink="http://www.w3.org/1999/xlink" version="1.1" viewBox="0 -144 1024 1024">
  <g transform="matrix(1 0 0 -1 0 880)">
   <path fill="currentColor"
d="M520 472h376l33 27l59 -48l-27 -22v-326l-65 -32v64h-376v-64l-65 -33v466zM139 344h165l33 27l59 -49l-27 -21v-205l-65 -32v54h-165v-38l-64 -32v328zM139 322v-183h165v183h-165zM520 297v-140h376v140h-376zM520 451v-132h376v132h-376zM367 478v-21h-290v21h172
l54 54zM561 913h294l32 27l59 -49l-26 -21v-305l-65 -33v54h-294v-38l-65 -32v429zM367 618v-22h-290v22h172l54 54zM561 743v-135h294v135h-294zM414 768v-21h-358v21h239l54 54zM561 891v-126h294v126h-294zM367 908v-21h-290v21h172l54 54z" />
  </g>

</svg>
