<?xml version="1.0" standalone="no"?>
<!DOCTYPE svg PUBLIC "-//W3C//DTD SVG 1.1//EN" "http://www.w3.org/Graphics/SVG/1.1/DTD/svg11.dtd" >
<svg xmlns="http://www.w3.org/2000/svg" xmlns:xlink="http://www.w3.org/1999/xlink" version="1.1" viewBox="0 -144 1024 1024">
  <g transform="matrix(1 0 0 -1 0 880)">
   <path fill="currentColor"
d="M158 919h95l33 27l59 -49l-27 -21v-174l47 60l31 49l26 51l12 28l10 27l12 37l58 -29l11 -15l-20 -5l-19 -40l-16 -28l-18 -26l-18 -25l-21 -25l-22 -22l-23 -20l-25 -18l-25 -15v-234l42 37l42 42l38 44l34 47l8 12h-147v21h160l11 17l27 53l16 38h-96v21h105l20 59
l16 63l13 63l3 15l61 -23l14 -13l-19 -7l-12 -50l-22 -67l-16 -40h127l54 54l64 -54v-21h-159l74 -95l11 -13h84l44 49l54 -49v-21h-164l53 -55l28 -24l27 -22l27 -19l47 -30l-59 -46l-29 22l-55 52l-51 62l-25 34l-16 26h-218l-27 -37l-41 -46l-44 -41l-49 -37l-52 -31
l-3 5v-313l-1 -13l-2 -14l-5 -13l-6 -12l-9 -11l-11 -9l-12 -7l-13 -4l-13 -2l-14 -1v32l-86 16v16h86l6 1l5 1l3 1l3 1l1 1v1l1 1l1 4l1 5v6v235l-8 -8l-24 1l-18 18l-5 22l-4 12l-9 25l-13 25l-14 26v-1l-3 -60l-4 -57l-6 -54l-8 -51l-9 -47l-12 -44l-13 -39l-16 -36
l-17 -33l-21 -28l-8 5l10 32l9 33l9 37l8 39l6 43l5 45l3 49l2 52l1 55l-1 59v462zM485 225h296l32 27l59 -48l-27 -22v-96l-64 -33v43h-296v-16l-64 -32v210zM485 204v-86h296v86h-296zM813 311v-21h-366v21h290l33 38zM813 397v-21h-366v21h290l33 38zM195 644l-4 11
l-11 24l-6 12l-14 26l-2 4v-214l8 -6l14 -9l26 -20l22 -21l10 -11l9 -12l6 -9v187l-7 -8l-25 -1l-18 17l-2 10zM856 483v-21h-462v21h386l33 38zM759 569v-21h-263v21h166l44 49zM158 897v-161l12 -10l13 -8l24 -18l10 -10l20 -19l16 -19v245h-95zM607 763l-29 -61l-29 -47
h190l-17 29l-21 43l-15 36h-79zM877 797l-19 27l-12 14l-26 27l-50 44l-19 14l5 9l44 -17l21 -10l20 -10l19 -11l34 -23l15 -12l14 -13l14 -14l5 -24l-12 -21l-24 -5l-21 12z" />
  </g>

</svg>
