<?xml version="1.0" standalone="no"?>
<!DOCTYPE svg PUBLIC "-//W3C//DTD SVG 1.1//EN" "http://www.w3.org/Graphics/SVG/1.1/DTD/svg11.dtd" >
<svg xmlns="http://www.w3.org/2000/svg" xmlns:xlink="http://www.w3.org/1999/xlink" version="1.1" viewBox="0 -144 1024 1024">
  <g transform="matrix(1 0 0 -1 0 880)">
   <path fill="currentColor"
d="M837 99l-47 46l-16 24l-14 -11l-39 -30l-42 -28l-45 -24l-47 -21l-49 -17l-4 9l44 27l42 27l39 29l36 30l35 32l17 18l-36 76l-31 96l-6 26h-135l-4 -34l-11 -52l-2 -6l11 -5l18 -6l18 -8l32 -18l30 -22l13 -12l13 -13l11 -13l5 -24l-14 -21l-24 -3l-21 14l-6 12l-7 13
l-8 13l-19 25l-22 25l-27 26l-6 5l-10 -33l-19 -47l-22 -44l-26 -41l-31 -37l-33 -34l-38 -29l-6 7l29 36l26 37l23 39l19 40l17 43l13 45l10 46l7 50l1 26h-120v22h122v4v55v13l65 -13l16 -11l-17 -10l-3 -38h128l-15 65l-18 133l-11 152l-3 172l1 13l64 -14l16 -11l-16 -9
l2 -149l11 -148l18 -127l17 -77h121l53 53l65 -53v-22h-234l30 -99l21 -45l25 35l25 40l25 48l54 -36l9 -17l-20 -1l-16 -26l-30 -41l-32 -39l-12 -12l19 -29l37 -35l36 -20l5 -1l29 128h11l-10 -135l23 -10l9 -23l-11 -22l-23 -9l-56 11zM140 347h139l32 27l59 -48l-27 -22
v-181l-64 -33v33h-139v-38l-65 -32v327zM140 326v-182h139v182h-139zM913 554l-2 14l-2 12l-26 -13l-20 -9l-60 -25l20 -11l16 -11l7 -6l14 -13l6 -7l1 -24l-16 -19l-25 -1l-18 17l-1 13l-4 15l-2 8l-2 8l-7 17l-3 9l-30 -12l-7 -21l-15 13l-26 59l11 3l16 2l18 3l6 1l24 48
l85 162l25 53l5 10l55 -35l9 -18l-20 -1l-60 -91l-56 -73l-19 -23l-21 -21l-9 -9l53 7l21 3l45 5h7l-6 17l-11 30l-7 15l-10 15l8 6l40 -35l22 -27l17 -29l8 -16l6 -16l5 -16l-6 -24l-21 -13l-23 7l-13 21l-1 12zM338 481v-21h-257v21h159l44 49zM573 526l-1 27l-1 9
l-47 -22l-42 -17l-63 -23l-19 -6l-7 -21l-15 13l-26 60l11 2l21 4l21 3l21 4l57 125l38 90l26 68l56 -32l11 -16l-20 -3l-37 -72l-51 -84l-38 -52l-17 -21l20 4l45 6l23 3l24 2l4 1l-4 17l-5 14l-12 30l-10 15l7 6l27 -23l12 -13l12 -13l10 -14l9 -14l8 -15l6 -16l5 -16
l5 -18l-8 -23l-22 -11l-23 7l-12 23zM338 621v-22h-257v22h159l44 48zM419 727l-12 25l-23 37l-18 26l-11 11l6 7l14 -8l14 -8l14 -8l14 -9l9 -7l39 85l22 54l10 28l-1 1l6 11l56 -34l9 -16l-21 -3l-20 -30l-38 -50l-29 -34l-17 -16l-4 -5l15 -14l21 -22l10 -11l3 -25
l-14 -19l-25 -4l-19 15zM763 732l-11 22l-21 35l-17 26l-11 11l6 7l13 -8l15 -8l14 -8l15 -10l69 151l4 12l5 11l55 -36l9 -17l-22 -1l-47 -64l-44 -50l-16 -16l19 -16l10 -11l19 -21l2 -25l-15 -19l-25 -2l-19 15l-4 11zM379 770v-22h-316v22h197l54 54zM338 909v-21h-257
v21h159l44 49z" />
  </g>

</svg>
