<?xml version="1.0" standalone="no"?>
<!DOCTYPE svg PUBLIC "-//W3C//DTD SVG 1.1//EN" "http://www.w3.org/Graphics/SVG/1.1/DTD/svg11.dtd" >
<svg xmlns="http://www.w3.org/2000/svg" xmlns:xlink="http://www.w3.org/1999/xlink" version="1.1" viewBox="0 -144 1024 1024">
  <g transform="matrix(1 0 0 -1 0 880)">
   <path fill="currentColor"
d="M734 243l8 -18l-21 1l-14 -17l-58 -64l-30 -31l-16 -14l-1 -2h234l53 54l65 -54v-21h-868v21h498l24 50l41 75l29 52l5 8zM385 137l-12 30l-7 15l-8 15l-20 31l-24 31l-15 14l5 8l38 -20l17 -11l16 -13l15 -13l14 -15l13 -15l12 -16l10 -17l10 -17l-1 -25l-18 -17l-24 1
l-18 18zM322 483h396l32 27l59 -49l-27 -21v-144l-64 -32v32h-396l-65 -32v251zM322 461v-144h396v144h-396zM447 898l5 6l1 -1l27 22l59 -49l-27 -16l-16 -7l-26 -39l-40 -54l-42 -50l-44 -45l-45 -42l-48 -37l-50 -33l-51 -29l-54 -24l-55 -19l-4 9l50 28l48 30l46 34
l44 36l36 33l-11 9l-4 10l-3 10l-5 9l-6 11l-15 19l-8 11l-21 21l-9 6l-39 -34l-30 -21l-31 -18l-6 9l47 51l44 54l39 59l36 63l29 66l5 11l56 -33l10 -17l-20 -2l-26 -47h154zM829 898l4 5l1 -1l27 23l60 -49l-27 -16l-19 -8l-8 -9l-45 -46l-36 -31l-48 -36l16 -14l45 -32
l47 -27l50 -26l89 -37l-62 -51l-57 28l-53 31l-49 34l-46 38l-40 41l-38 44l-33 47l-29 51l-24 53l-18 56l9 4l29 -50l15 -22h240zM742 588v-22h-445v22h327l54 53zM318 755l-4 8l-7 9l-8 9l-10 9l-37 29l-11 5l-21 -25l-25 -27l-8 -7l8 -3l15 -4l14 -6l14 -6l13 -7l13 -8
l11 -8l12 -10l10 -10l7 -8l32 37l-11 7l-2 8zM603 876l36 -47l35 -41l39 -37l13 -11l64 86l21 34l9 15l1 1h-218zM279 876l-31 -43l8 -2l18 -2l16 -4l16 -5l14 -5l14 -7l12 -7l13 -8l11 -9l3 -4l45 67l18 29h-157z" />
  </g>

</svg>
