<?xml version="1.0" standalone="no"?>
<!DOCTYPE svg PUBLIC "-//W3C//DTD SVG 1.1//EN" "http://www.w3.org/Graphics/SVG/1.1/DTD/svg11.dtd" >
<svg xmlns="http://www.w3.org/2000/svg" xmlns:xlink="http://www.w3.org/1999/xlink" version="1.1" viewBox="0 -144 1024 1024">
  <g transform="matrix(1 0 0 -1 0 880)">
   <path fill="currentColor"
d="M869 102l-31 31l-29 34l-26 39l-24 42l-22 47l-20 51l-17 56l-13 55h-105v-299l142 45l39 11l3 -9l-67 -40l-67 -34l-93 -43l-59 -25l-8 -3l-5 -20l-15 12l-31 57l10 4l86 24v680l65 -33h253l32 27l59 -48l-27 -22v-284l-64 -33v33h-136l47 -98l26 -46l17 -29l70 73
l41 45l22 27l6 5l44 -47l3 -19l-20 5l-51 -37l-36 -24l-39 -22l-33 -16l28 -39l28 -33l28 -27l29 -24l29 -19l60 -29l-61 -49l-35 22zM50 148l46 11v357l64 -11l17 -11l-17 -10v-309l74 19v435h-74v-17l-64 -32v360l64 -32h198l32 27l59 -48l-27 -22v-269l-64 -32v65h-59
v-199h70l33 37l43 -37v-22h-146v-195l114 33l40 11l4 -9l-36 -21l-74 -37l-114 -48l-116 -41l-19 -6l-6 -20l-15 13zM582 612v-134h253v134h-253zM582 763v-129h253v129h-253zM160 887v-237h198v237h-198zM974 913v-21h-494v21h376l54 54z" />
  </g>

</svg>
