<?xml version="1.0" standalone="no"?>
<!DOCTYPE svg PUBLIC "-//W3C//DTD SVG 1.1//EN" "http://www.w3.org/Graphics/SVG/1.1/DTD/svg11.dtd" >
<svg xmlns="http://www.w3.org/2000/svg" xmlns:xlink="http://www.w3.org/1999/xlink" version="1.1" viewBox="0 -144 1024 1024">
  <g transform="matrix(1 0 0 -1 0 880)">
   <path fill="currentColor"
d="M674 71l-97 7l-81 10l-66 15l-53 21l-42 25l-33 30l-25 34l-11 22l-30 -31l-77 -69l-59 -48l1 -21l-18 7l-46 47l9 6l150 88l15 8v326h-161v21h161l32 27l59 -48l-27 -22v-279l20 -20l29 -25l32 -20l38 -17l49 -13l60 -9l77 -6l95 -2l116 2l199 8l-58 -73l-140 -3z
M487 201l-64 -32v520l-42 -58l-30 -36l-32 -34l-8 6l89 159l23 46v51l19 -10l30 72l32 88l58 -30l11 -16l-19 -3l-29 -62l-21 -40l-17 -31l171 -1l51 77l31 51l8 15l10 21l-1 1l6 9l53 -38l8 -17h-23l-33 -36l-30 -30l-37 -33l-20 -16l-5 -4h153l54 54l64 -54v-21h-225v-146
h90l54 53l64 -53v-22h-208v-140h90l54 54l64 -54v-22h-208v-152h141l53 54l65 -54v-21h-494v-65zM487 439v-152h171v152h-171zM487 601v-140h171v140h-171zM487 769v-146h171v146h-171zM222 789l-23 32l-28 32l-33 33l-38 32l5 8l47 -19l22 -11l41 -27l36 -29l16 -17l14 -17
l14 -18l3 -24l-14 -20l-25 -3l-20 14z" />
  </g>

</svg>
