<?xml version="1.0" standalone="no"?>
<!DOCTYPE svg PUBLIC "-//W3C//DTD SVG 1.1//EN" "http://www.w3.org/Graphics/SVG/1.1/DTD/svg11.dtd" >
<svg xmlns="http://www.w3.org/2000/svg" xmlns:xlink="http://www.w3.org/1999/xlink" version="1.1" viewBox="0 -144 1024 1024">
  <g transform="matrix(1 0 0 -1 0 880)">
   <path fill="currentColor"
d="M674 71l-97 7l-81 10l-66 15l-53 21l-42 25l-33 30l-25 34l-11 22l-30 -31l-77 -69l-59 -48l1 -21l-18 7l-46 47l9 6l150 88l15 8v326h-161v21h161l32 27l59 -48l-27 -22v-279l20 -20l29 -25l19 -12l127 64l43 26l19 12l16 12l10 8l4 3l33 -46l5 -6l1 -19l-20 8l-43 -20
l-50 -20l-28 -9l-61 -17l-34 -7l-1 -1l30 -13l49 -13l60 -9l77 -6l95 -2l116 2l199 8l-58 -73l-140 -3zM887 197l-15 11l-18 10l-43 22l-82 34l-32 12l2 10l34 -3l33 -4l30 -5l28 -6l26 -7l24 -7l22 -9l21 -9l18 -11l17 -11l11 -22l-9 -24l-22 -10l-23 8l-10 10zM494 624
h320l32 27l60 -49l-27 -21v-250l-65 -33v33h-320l-64 -33v358zM494 421v-69h320v69h-320zM494 511v-68h320v68h-320zM494 602v-69h320v69h-320zM328 693h294v61h-128l-64 -32v216l64 -33h128v83l65 -11l16 -10l-16 -10v-52h127l32 27l60 -48l-27 -22v-108l-65 -32v32h-127
v-61h217l34 38l43 -38v-21h-653v21zM222 789l-23 32l-28 32l-33 33l-38 32l5 8l47 -19l22 -11l41 -27l36 -29l16 -17l14 -17l14 -18l3 -24l-14 -20l-25 -3l-20 14zM494 884v-108h128v108h-128zM687 884v-108h127v108h-127z" />
  </g>

</svg>
