<?xml version="1.0" standalone="no"?>
<!DOCTYPE svg PUBLIC "-//W3C//DTD SVG 1.1//EN" "http://www.w3.org/Graphics/SVG/1.1/DTD/svg11.dtd" >
<svg xmlns="http://www.w3.org/2000/svg" xmlns:xlink="http://www.w3.org/1999/xlink" version="1.1" viewBox="0 -144 1024 1024">
  <g transform="matrix(1 0 0 -1 0 880)">
   <path fill="currentColor"
d="M540 516l16 -11l-16 -10v-71h17l33 38l43 -38v-21h-93v-151h13l44 49l54 -49v-21h-111v-162l-65 -32v194h-74l-4 -22l-70 -19l36 182l61 -24l14 -13l-18 -5l-15 -78h70v151h-110v21h110v102zM950 236l-8 -11l-9 -10l-11 -8l-11 -7l-12 -6l-13 -3l-13 -2l-14 -1v32l-53 16
v16h53l7 1l6 1l5 1l4 2l4 2l3 3l4 3l5 10l3 7l7 20l6 27l2 32v34l-5 36l-9 36l-15 36l-22 35l-29 33l-36 35l-6 4l25 69l47 126l19 59l8 27l2 6h-155v-822l-65 -32v908l65 -32h159l32 27l59 -49l-26 -16l-11 -4l-14 -34l-27 -57l-31 -59l-36 -61l-21 -30l-16 -23l46 -19
l39 -32l30 -37l22 -41l15 -41l9 -42l4 -40v-38l-4 -34l-7 -29l-5 -12zM159 274l-2 7l-4 7l-4 8l-5 8l-12 17l-5 5l-31 -37l-23 -23l-25 -22l-8 6l49 83l28 56l23 56l10 28l8 29l8 29l2 8l60 -27l13 -15l-21 -5l-17 -40l-13 -28h80l32 27l59 -48l-27 -16l-8 -4l-9 -28
l-20 -47l-22 -45l-24 -42l-28 -38l-31 -36l-34 -31l-36 -28l-40 -24l-41 -20l-5 8l35 29l33 29l30 31l27 33l25 35l22 38l6 12l-7 -9l-25 -4l-19 15l-2 6zM178 403l-21 -37l-19 -26l-1 -2l5 -1l22 -7l10 -5l19 -11l9 -6l8 -7l8 -7l3 -21l23 56l14 45l7 29h-87zM567 569
l-52 40l-42 25l-93 49v-173l-65 -32v227l-22 -25l-24 -24l-54 -46l-30 -22l-68 -41l-37 -18l-39 -17l-5 8l95 76l54 49l24 24l40 48l13 19h-206v22h259v215l65 -11l16 -11l-16 -10v-183h135l54 53l64 -53v-22h-253v-32l33 -6l54 -14l50 -18l46 -21l22 -11l20 -12l13 -22
l-5 -24l-22 -12zM566 907l7 -18l-22 1l-22 -23l-41 -40l-15 -13l-32 -25l-16 -13l-7 7l12 17l9 17l40 65l31 57h-1l6 8zM184 830l-5 11l-7 12l-7 12l-9 12l-10 13l-23 26l-14 13l5 8l17 -9l18 -8l31 -17l27 -20l23 -23l11 -13l9 -13v-24l-16 -19h-25l-18 17l-3 10z" />
  </g>

</svg>
