<?xml version="1.0" standalone="no"?>
<!DOCTYPE svg PUBLIC "-//W3C//DTD SVG 1.1//EN" "http://www.w3.org/Graphics/SVG/1.1/DTD/svg11.dtd" >
<svg xmlns="http://www.w3.org/2000/svg" xmlns:xlink="http://www.w3.org/1999/xlink" version="1.1" viewBox="0 -144 1024 1024">
  <g transform="matrix(1 0 0 -1 0 880)">
   <path fill="currentColor"
d="M951 235l-8 -11l-9 -10l-11 -8l-11 -6l-12 -6l-13 -3l-13 -2l-14 -1v32l-53 16v16h53l7 1l6 1l6 1l4 2l4 2l3 3l4 4l3 4l4 5l10 28l6 27l3 30v34l-6 36l-11 36l-17 36l-25 35l-33 34l-41 34l-8 5l72 166l24 60l19 57l2 4h-182v-822l-64 -32v908l64 -32h187l32 27l60 -49
l-27 -16l-11 -4l-17 -35l-29 -57l-54 -89l-43 -61l-18 -22l51 -19l43 -31l34 -37l24 -41l17 -42l10 -42l4 -41l-1 -37l-4 -35l-8 -29l-6 -13zM529 493l-37 32l-40 30l-42 28l-45 26v-126l-65 -32v167l-12 -17l-22 -27l-24 -26l-27 -25l-29 -25l-32 -23l-19 -12l56 -27h283
l33 26l59 -48l-27 -21v-301l-65 -32v54h-283v-38l-65 -32v413l-42 -24l-40 -18l-5 8l65 54l55 52l46 52l19 26l17 26l14 26l1 2h-202v21h246v198l-26 -4l-45 -6l-46 -5l-48 -3l-50 -1l-1 9l182 46l82 23l75 25l35 13l34 13l3 -8l47 -42l1 -16l-21 9l-44 -14l-38 -10l-39 -9
l-36 -8v-210h134l53 54l65 -54v-21h-252v-32l7 -2l27 -5l26 -8l25 -9l25 -11l24 -12l24 -13l45 -29l21 -16l11 -22l-8 -23l-22 -11l-23 8zM191 266v-131h109v131h-109zM365 266v-131h109v131h-109zM191 414v-126h109v126h-109zM365 414v-126h109v126h-109zM175 744l-4 12
l-5 12l-6 12l-16 23l-9 12l-11 12l-13 10l5 9l15 -7l16 -6l16 -8l14 -8l13 -10l12 -11l12 -13l10 -13l10 -14l9 -15l-2 -25l-18 -16l-25 1l-17 18l-2 13zM544 832l7 -17h-22l-29 -31l-54 -54l-16 -13l-15 -16l-8 6l11 19l59 115l7 14l4 8l-1 1l6 8z" />
  </g>

</svg>
