<?xml version="1.0" standalone="no"?>
<!DOCTYPE svg PUBLIC "-//W3C//DTD SVG 1.1//EN" "http://www.w3.org/Graphics/SVG/1.1/DTD/svg11.dtd" >
<svg xmlns="http://www.w3.org/2000/svg" xmlns:xlink="http://www.w3.org/1999/xlink" version="1.1" viewBox="0 -144 1024 1024">
  <g transform="matrix(1 0 0 -1 0 880)">
   <path fill="currentColor"
d="M482 903v-22h-153v-150h64l30 27l56 -49l-27 -19v-535l-59 -29v29h-258v-64l-64 -32v704l64 -32h49v150h-140v22h320l53 54zM956 274h10l-10 -135l19 -13l13 -19l-13 -19l-19 -13h-123l-13 1l-14 2l-13 4l-12 7l-11 9l-9 11l-7 12l-4 13l-2 13l-1 14v457h-84l27 -6
l16 -11l-17 -10l-5 -68l-12 -82l-16 -76l-23 -69l-27 -63l-33 -55l-38 -48l-43 -41l-49 -32l-53 -24l-4 9l46 32l40 37l36 41l30 48l26 53l22 59l17 66l12 72l8 78l3 80v10h-133v21h361l54 54l64 -54v-21h-161v-457l1 -7l1 -4l1 -4l1 -1l2 -2l5 -2l4 -1l7 -1h90zM135 290
v-113h258v113h-258zM393 444v265h-64v-226l1 -7l1 -5l2 -5l2 -2l2 -2l2 -1l3 -1h2l29 112h11l-11 -113l18 -12zM135 709v-339l9 19l9 23l8 27l7 29l6 33l5 37l3 39l2 45l1 47l-1 40h-49zM238 881v-150h42v150h-42zM923 903v-22h-397v22h278l54 54zM345 402l-13 2l-12 5
l-11 7l-10 8l-8 10l-5 12l-4 12l-1 13l-1 12v226h-43l-1 -41l-4 -50l-5 -45l-7 -42l-9 -38l-10 -34l-12 -30l-14 -27l-16 -22l-18 -17l-6 4v-56h258v104l-2 -3l-18 -12h-15z" />
  </g>

</svg>
