<?xml version="1.0" standalone="no"?>
<!DOCTYPE svg PUBLIC "-//W3C//DTD SVG 1.1//EN" "http://www.w3.org/Graphics/SVG/1.1/DTD/svg11.dtd" >
<svg xmlns="http://www.w3.org/2000/svg" xmlns:xlink="http://www.w3.org/1999/xlink" version="1.1" viewBox="0 -144 1024 1024">
  <g transform="matrix(1 0 0 -1 0 880)">
   <path fill="currentColor"
d="M77 94h403v254h-328v21h328v128h-199v21h344l54 54l64 -54v-21h-199v-128h210l54 54l64 -54v-21h-328v-254h285l54 53l64 -53v-22h-870v22zM789 269l8 -17h-20l-27 -33l-47 -50l-36 -31l-39 -31l-7 7l40 60l46 76l18 35l7 13h-1l6 10zM302 174l-13 29l-17 30l-22 32
l-13 16l-14 16l6 8l37 -23l33 -25l15 -13l14 -14l12 -15l11 -15l10 -16l9 -16l-2 -25l-17 -17l-25 2l-17 18l-3 14zM826 503l-47 27l-45 29l-44 32l-41 34l-41 37l-38 40l-36 43l-11 16l-17 -21l-42 -47l-45 -43l-47 -41l-50 -38l-52 -34l-55 -32l-57 -29l-60 -24l-63 -21
l-4 9l58 31l55 31l52 33l50 35l48 38l45 39l42 41l40 44l37 47l35 48l3 3l50 -41l6 -18l-16 1l97 -80l43 -31l43 -29l44 -27l45 -23l46 -22l47 -19l86 -30l-63 -53l-50 22zM396 924l8 -17h-20l-35 -45l-27 -29l-59 -54l-32 -25l-33 -24l-37 -23l-37 -21l-40 -18l-5 8l96 82
l29 26l54 56l45 58l39 61l3 4zM841 744l-38 49l-44 45l-49 45l-83 67l5 9l34 -14l33 -16l31 -17l30 -19l29 -20l53 -43l24 -23l44 -49l5 -24l-12 -22l-24 -5l-21 12z" />
  </g>

</svg>
