<?xml version="1.0" standalone="no"?>
<!DOCTYPE svg PUBLIC "-//W3C//DTD SVG 1.1//EN" "http://www.w3.org/Graphics/SVG/1.1/DTD/svg11.dtd" >
<svg xmlns="http://www.w3.org/2000/svg" xmlns:xlink="http://www.w3.org/1999/xlink" version="1.1" viewBox="0 -144 1024 1024">
  <g transform="matrix(1 0 0 -1 0 880)">
   <path fill="currentColor"
d="M44 138l157 31l20 5v320h-155v22h155v150h-73v22h162l44 48l54 -48v-22h-123v-150h32l54 53l65 -53v-22h-151v-305l102 23l38 7l3 -9l-35 -17l-71 -32l-72 -27l-145 -47l-15 -4l-7 -19l-14 13zM812 172h54h6l5 1l3 1l2 1l1 1l1 1l1 2l1 3l1 5v6v210h-144v-334l-64 -32
v366h-145v-264l-64 -32v350l64 -33h145v119l64 -11l16 -11l-16 -10v-87h144l33 27l59 -48l-27 -22v-188l-1 -13l-2 -14l-5 -13l-6 -12l-9 -11l-11 -8l-12 -7l-13 -5l-13 -2l-14 -1v32l-54 16v17zM123 276l-2 17l-3 16l-4 16l-6 16l-6 16l-16 33l-11 17l7 7l31 -26l14 -14
l13 -15l11 -16l10 -18l9 -17l7 -19l6 -19l5 -20l-8 -24l-22 -11l-23 8l-12 21v16v16zM418 403l12 -16l-22 -4l-16 -28l-20 -32l-22 -32l-38 -46l-9 5l8 18l34 107l4 18l5 16l4 16l2 8zM666 980l6 9l53 -37l8 -17h-24l-22 -26l-35 -36l-27 -24h234l33 27l59 -49l-27 -21v-280
l-65 -32v54h-296v-38l-65 -32v403l65 -32h47l5 9l14 32l25 57l13 32zM365 794l-8 14l-10 13l-24 28l-31 29l-17 15l-12 9l-33 -72l-45 -83l-53 -79l-30 -37l-31 -36l-34 -34l-7 6l72 121l42 81l37 83l17 43l14 44l16 52l59 -28l12 -15l-20 -4l-9 -26l-3 -5l38 -15l21 -9
l19 -11l18 -11l17 -12l15 -13l14 -14l13 -14l12 -16l2 -24l-15 -20l-25 -2l-19 16l-5 13zM563 688v-119h296v119h-296zM563 827v-118h296v118h-296z" />
  </g>

</svg>
