<?xml version="1.0" standalone="no"?>
<!DOCTYPE svg PUBLIC "-//W3C//DTD SVG 1.1//EN" "http://www.w3.org/Graphics/SVG/1.1/DTD/svg11.dtd" >
<svg xmlns="http://www.w3.org/2000/svg" xmlns:xlink="http://www.w3.org/1999/xlink" version="1.1" viewBox="0 -144 1024 1024">
  <g transform="matrix(1 0 0 -1 0 880)">
   <path fill="currentColor"
d="M630 311h224l33 27l59 -48l-27 -22v-172l-65 -32v54h-224v-38l-64 -32v296zM44 138l157 31l20 5v320h-155v22h155v150h-73v22h162l44 48l54 -48v-22h-123v-150h32l54 53l65 -53v-22h-151v-305l102 23l38 7l3 -9l-35 -17l-71 -32l-72 -27l-145 -47l-15 -4l-7 -19l-14 13z
M830 440v76h-260v-65l-1 -11h261zM630 290v-151h224v151h-224zM123 276l-2 17l-3 16l-4 16l-6 16l-6 16l-16 33l-11 17l7 7l31 -26l14 -14l13 -15l11 -16l10 -18l9 -17l7 -19l6 -19l5 -20l-8 -24l-22 -11l-23 8l-12 21v16v16zM418 403l12 -16l-22 -4l-16 -28l-20 -32
l-22 -32l-38 -46l-9 5l8 18l34 107l4 18l5 16l4 16l2 8zM570 612v-75h260v75h-260zM365 794l-8 14l-10 13l-24 28l-31 29l-17 15l-12 9l-33 -72l-45 -83l-53 -79l-30 -37l-31 -36l-34 -34l-7 6l72 121l42 81l37 83l17 43l14 44l16 52l59 -28l12 -15l-20 -4l-9 -26l-3 -5
l38 -15l21 -9l19 -11l18 -11l17 -12l15 -13l14 -14l13 -14l12 -16l2 -24l-15 -20l-25 -2l-19 16l-5 13zM888 712l-30 22l-30 24l-28 25l-27 29l-25 31l-24 32l-21 33l-22 -32l-29 -36l-31 -34l-33 -33l-35 -31l-38 -30l-39 -28l-42 -25l-45 -23l-4 8l73 63l67 65l59 67
l49 70l23 37l22 43l54 -36l9 -17l-21 -1l-4 -7l60 -59l57 -47l29 -21l28 -18l30 -16l29 -13l64 -26l-61 -52l-33 18zM826 720v-22h-265v22h168l44 48zM570 634h260l33 27l59 -49l-27 -21v-183l-65 -32v43h-262l-1 -17l-7 -47l-9 -45l-13 -43l-15 -40l-19 -38l-22 -35
l-25 -33l-29 -29l-32 -26l-7 7l24 32l21 33l18 34l15 35l13 36l10 38l8 40l5 41l3 44v260z" />
  </g>

</svg>
