<?xml version="1.0" standalone="no"?>
<!DOCTYPE svg PUBLIC "-//W3C//DTD SVG 1.1//EN" "http://www.w3.org/Graphics/SVG/1.1/DTD/svg11.dtd" >
<svg xmlns="http://www.w3.org/2000/svg" xmlns:xlink="http://www.w3.org/1999/xlink" version="1.1" viewBox="0 -144 1024 1024">
  <g transform="matrix(1 0 0 -1 0 880)">
   <path fill="currentColor"
d="M745 218l4 5v-1l2 2l44 -46l4 -19l-23 5l-17 -11l-27 -15l-29 -15l-16 -7l-16 -6l-15 -8h163l54 54l64 -54v-21h-770v21h353v128h-286v21h286v59h-173v22l-60 -21l-50 -14l-52 -11l-45 -7l-13 -44l-17 -47l-19 -44l-23 -41l-25 -37l-8 5l29 84l13 45l11 46l9 49l7 50
l6 53l3 56l2 57l-1 61v360l65 -32h322v90l65 -11l16 -11l-16 -9v-59h279l54 54l65 -54v-21h-291v-69h162l32 27l59 -48l-27 -22v-79l-64 -32v32h-656v-116l-4 -63l-4 -59l-8 -58l-10 -55l-10 -44l85 32l92 40l42 21l77 45l35 24l32 26l23 20l-28 -9l-80 -22l-76 -18
l-107 -22l-12 -2l-10 -19l-12 15l-19 63l11 1l34 2l34 4l11 1v193l65 -11l16 -10l-16 -10v-53h117l44 48l54 -48v-22h-215v-80l197 23l44 4l1 -10l-41 -14h-1l28 -34l90 -41l75 -30l39 -13l39 -12l41 -10l41 -10l43 -8l47 -10l-62 -59l-45 12l-43 14l-41 15l-40 17l5 -4v-22
h-172v-59h188l44 49l54 -49v-21h-286v-128h69l-5 8l14 12l23 25l11 11l20 23l9 11l9 10l7 10zM366 133l-4 7l-12 17l-7 9l-20 20l-11 10l-14 8l4 9l15 -6l30 -9l14 -4l13 -6l22 -12l11 -7l9 -7l8 -9l3 -24l-14 -20l-25 -3l-20 15v5zM561 446l-55 -38l-40 -23l-41 -21
l-44 -19l-33 -13h311l31 34l-50 29l-34 23l-28 22zM675 442l-12 2l-13 4l-12 6l-11 8l-9 11l-7 12l-4 13l-3 13l-1 14v163l65 -11l16 -10l-16 -10v-75l101 33l21 8l36 15l28 14l5 -10l44 -39v-17l-20 8l-3 -1l-36 -10l-20 -3l-45 -8l-25 -3l-26 -3l-29 -2l-31 -2v-44v-5
l1 -3l2 -3l1 -2l5 -3l5 -1h7h224l29 113h11l-11 -113l18 -12l12 -18l-12 -18l-18 -12h-253zM179 789v-79h193v79h-193zM437 789v-79h172v79h-172zM673 789v-79h162v79h-162zM179 879v-69h193v69h-193zM437 810h172v69h-172v-69z" />
  </g>

</svg>
