<?xml version="1.0" standalone="no"?>
<!DOCTYPE svg PUBLIC "-//W3C//DTD SVG 1.1//EN" "http://www.w3.org/Graphics/SVG/1.1/DTD/svg11.dtd" >
<svg xmlns="http://www.w3.org/2000/svg" xmlns:xlink="http://www.w3.org/1999/xlink" version="1.1" viewBox="0 -144 1024 1024">
  <g transform="matrix(1 0 0 -1 0 880)">
   <path fill="currentColor"
d="M716 386l-5 -48h145l53 54l65 -54v-21h-263l18 -40l17 -29l20 -26l22 -24l25 -21l28 -19l31 -17l35 -15l78 -25l-63 -54l-42 18l-38 21l-35 23l-30 27l-26 29l-22 31l-17 34l-12 36l-2 11l-21 -52l-27 -43l-33 -38l-39 -32l-45 -26l-51 -20l-55 -15l-62 -7l-1 9l57 18
l51 22l44 24l37 27l31 31l25 35l19 38l13 42l5 27h-224v21h227l2 50v58h-159v21h159v108h-194v21h146l-4 1l-14 21l1 11v10l-4 21l-2 12l-4 12l-10 25l-7 14l-9 11l7 7l12 -10l13 -9l12 -10l10 -10l19 -22l15 -25l6 -13l5 -14l-6 -24l-13 -8h102l3 6l21 53l12 34l14 45l2 9
h-1l1 4h-356v21h168v226l59 -11l15 -10l-15 -10v-195h69v226l59 -11l14 -10l-14 -10v-195h78l54 54l65 -54v-21h-176l41 -22l12 -16l-23 -4l-14 -23l-33 -44l-25 -30l-12 -12h76l54 54l65 -54v-21h-229l16 -11l-16 -10v-87h73l44 49l54 -49v-21h-171v-60zM42 138l81 16
l72 15l19 5v320h-150v22h150v150h-70v22h156l44 48l54 -48v-22h-119v-150h28l53 53l65 -53v-22h-146v-305l61 15l74 15l3 -9l-33 -17l-70 -32l-70 -27l-106 -36l-49 -14l-8 -20l-14 13zM118 277l-1 16l-3 16l-4 16l-11 32l-16 33l-11 17l8 6l30 -25l14 -15l12 -15l12 -16
l9 -17l9 -17l7 -19l6 -20l5 -19l-9 -24l-21 -11l-23 8l-12 21l1 17zM409 403l11 -15l-22 -5l-25 -44l-21 -32l-23 -31l-13 -15l-12 -16l-8 5l7 18l27 90l10 34l4 17l3 11h-1l2 4v1l3 8zM355 794l-8 14l-20 27l-27 29l-32 29l-12 9l-31 -71l-22 -43l-23 -41l-51 -79l-29 -37
l-31 -36l-33 -34l-8 6l71 120l21 40l38 83l17 42l31 86l11 41l4 12l59 -28l12 -15l-20 -4l-9 -26l-2 -5l36 -15l21 -10l19 -10l17 -11l17 -13l15 -13l14 -13l24 -30l1 -25l-15 -19l-24 -1l-20 15l-5 13zM931 938l9 -18l-22 -1l-41 -57l-25 -32l-43 -48l-8 5l9 20l51 127
l12 33l3 5zM507 850l-3 14l-3 13l-4 13l-5 13l-7 14l-15 26l-12 12l6 8l29 -18l14 -10l13 -11l11 -13l11 -13l18 -31l7 -16l6 -18l-6 -24l-20 -13l-24 5l-13 21l-1 14z" />
  </g>

</svg>
