<?xml version="1.0" standalone="no"?>
<!DOCTYPE svg PUBLIC "-//W3C//DTD SVG 1.1//EN" "http://www.w3.org/Graphics/SVG/1.1/DTD/svg11.dtd" >
<svg xmlns="http://www.w3.org/2000/svg" xmlns:xlink="http://www.w3.org/1999/xlink" version="1.1" viewBox="0 -144 1024 1024">
  <g transform="matrix(1 0 0 -1 0 880)">
   <path fill="currentColor"
d="M163 930h225l33 27l59 -49l-27 -21v-242l-65 -33v65h-225v-602l-65 -32v919zM764 110h82h6l3 1l2 1h2v2l1 1l1 2l2 4l1 6v7v543h-228l-65 -32v317l65 -32h228l30 27l56 -49l-27 -19v-755l-1 -13l-1 -12l-4 -13l-6 -11l-7 -11l-10 -8l-11 -7l-11 -5l-13 -2l-13 -1v29
l-82 15v15zM418 223l-12 21l-16 22l-20 22l-19 18l-4 -15l-13 -36l-17 -31l-20 -28l-23 -24l-26 -20l-30 -14l-32 -10l-4 9l26 18l22 20l19 21l15 24l13 25l10 29l8 30l5 35l3 37h-115v21h115v103h-96v22h96v118l64 -10l17 -11l-17 -10v-87h13l44 48l54 -48v-22h-111v-84
l-1 -19h26l44 49l53 -49v-21h-125l-7 -46l-2 -8l13 -4l17 -6l16 -7l28 -16l14 -9l12 -11l12 -11l11 -12l3 -24l-13 -20l-24 -4l-21 14zM822 329h10l-10 -135l19 -13l13 -19l-13 -19l-19 -13h-91l-13 1l-14 2l-12 4l-13 7l-11 9l-9 11l-6 12l-4 13l-3 13l-1 14v68l-17 -6
l-3 -10l-14 -28l-18 -26l-22 -22l-25 -19l-28 -17l-31 -13l-34 -11l-38 -7l-40 -3l-2 9l37 14l33 15l29 15l25 16l21 18l18 18l13 19l10 20l8 22l3 17l2 11h-8v-16l-64 -33v378l64 -32h172l29 27l57 -49l-27 -18v-290l-59 -29v62h-26v-100v-7l1 -5l1 -3l1 -1l2 -3l5 -1l5 -1
l6 -1h58zM588 316l47 -17l10 -11v28h-57zM564 411v-74h172v74h-172zM564 502v-69h172v69h-172zM564 591v-68h172v68h-172zM636 795v-97h228v97h-228zM163 795v-97h225v97h-225zM636 908v-91h228v91h-228zM163 908v-91h225v91h-225z" />
  </g>

</svg>
