<?xml version="1.0" standalone="no"?>
<!DOCTYPE svg PUBLIC "-//W3C//DTD SVG 1.1//EN" "http://www.w3.org/Graphics/SVG/1.1/DTD/svg11.dtd" >
<svg xmlns="http://www.w3.org/2000/svg" xmlns:xlink="http://www.w3.org/1999/xlink" version="1.1" viewBox="0 -144 1024 1024">
  <g transform="matrix(1 0 0 -1 0 880)">
   <path fill="currentColor"
d="M163 930h225l33 27l59 -49l-27 -21v-210l-65 -32v32h-225v-602l-65 -32v919zM636 677l-65 -32v317l65 -32h228l30 27l56 -49l-27 -19v-755l-1 -13l-1 -12l-4 -13l-6 -11l-7 -11l-10 -8l-11 -7l-11 -5l-13 -2l-13 -1v29l-69 13l-3 -3l-10 -7l-12 -4l-13 -3l-12 -1v30
l-65 15v15h65h5l3 1l2 1h2v1l1 1l2 3l1 4l1 6v39l-8 3l-17 -12l-40 -22l-22 -12l-49 -20l-26 -10l-57 -17l-4 8l113 78l36 28l29 26l13 14l32 -37v99h-68l33 -32l5 -19l-22 4l-12 -9l-34 -22l-38 -21l-21 -9l-22 -8l-48 -16l-4 8l21 14l69 57l27 26l12 13l10 13l1 1h-119v22
h210l29 27l57 -49l-27 -19v-139l-1 -13l-1 -13l-4 -12l-5 -11h54h6l3 1l2 1h2v2l1 1l1 2l2 4l1 6v7v543h-228zM335 137h75l7 1h5l3 1l2 1l1 2v1l1 1l1 3l1 5v40l-4 2l-18 -12l-40 -22l-22 -12l-48 -20l-27 -10l-57 -17l-4 8l113 78l35 28l16 13l27 27l29 -33v95h-64l33 -32
l4 -19l-22 4l-29 -20l-36 -21l-20 -11l-20 -9l-69 -24l-5 8l21 14l54 43l15 14l27 26l12 13l10 13l1 1h-123v22h211l33 27l59 -49l-27 -21v-137l-1 -14l-2 -13l-5 -13l-6 -12l-9 -11l-11 -9l-12 -7l-13 -4l-13 -2l-14 -1v32l-75 16v16zM727 493l-33 14l-31 15l-49 30l19 -18
v-22h-254v17l-33 -14l-36 -14l61 -30h282l32 26l59 -48l-27 -21v-53l-64 -32v32h-282l-65 -32v156l-37 -11l-41 -10l-43 -8l-3 9l113 53l65 39l31 19l28 22l26 22l25 23l18 20l6 5l33 -35l71 -37l58 -26l30 -12l61 -20l32 -8l33 -7l45 -12l-63 -57l-34 12zM371 449v-53h282
v53h-282zM522 621l-41 -32l-31 -21l-33 -20l-28 -14h147l40 44l-25 20l-21 21zM636 795v-97h228v97h-228zM163 795v-97h225v97h-225zM636 908v-91h228v91h-228zM163 908v-91h225v91h-225z" />
  </g>

</svg>
