<?xml version="1.0" standalone="no"?>
<!DOCTYPE svg PUBLIC "-//W3C//DTD SVG 1.1//EN" "http://www.w3.org/Graphics/SVG/1.1/DTD/svg11.dtd" >
<svg xmlns="http://www.w3.org/2000/svg" xmlns:xlink="http://www.w3.org/1999/xlink" version="1.1" viewBox="0 -144 1024 1024">
  <g transform="matrix(1 0 0 -1 0 880)">
   <path fill="currentColor"
d="M296 354l-6 -12l-8 -11l-10 -9l-11 -8l-12 -6l-13 -4l-14 -2l-13 -1v32l-43 16v16h43l7 1l5 1l4 1l6 3l2 2l2 3l2 4l2 5l7 31l2 23l1 25l-3 24l-4 25l-7 26l-10 26l-26 54l-17 29l2 2l-6 3l51 143l9 26l14 49l6 24v2h-123v-822l-64 -32v908l64 -32h126l33 27l59 -49
l-27 -16l-10 -4l-9 -24l-23 -49l-27 -51l-32 -52l-18 -27l-16 -20l24 -22l22 -25l20 -26l15 -27l13 -27l10 -28l7 -29l4 -30l1 -30l-3 -30l-3 -13zM758 71l-71 6l-59 10l-48 15l-39 19l-31 24l-22 27l-17 30l-5 15l-2 -1l-29 -40l-26 -31l-39 -43l-9 -10l2 -23l-18 6l-50 43
l70 47l48 34l5 3v271h-105v21h105l32 27l59 -48l-27 -22v-226h-1l31 -32l23 -18l27 -14l33 -11l43 -9l54 -5l67 -1l83 2l158 9l-56 -74l-101 -3zM891 667l6 7l48 -42l7 -18l-22 2l-24 -22l-31 -24l-33 -24l-19 -12l-19 -10l-13 -8l10 -27l9 -5l-4 -5l57 -64l37 -34l17 -15
l18 -12l16 -9l42 -22l-60 -48l-19 14l-19 16l-17 18l-18 20l-16 21l-27 42l2 -19v-50l-5 -51l-10 -54l-4 -13l-6 -12l-7 -12l-8 -10l-10 -10l-11 -7l-13 -6l-13 -3l-13 -2l-13 -2v33l-108 16v16h108l7 1l5 1l5 1l4 1l2 2l6 6l4 9l14 55l8 46l4 44v33l-26 -31l-56 -57
l-62 -52l-34 -23l-36 -21l-37 -19l-6 8l61 55l56 55l49 57l43 61l19 31l15 27l-12 33v1l-34 -35l-47 -41l-54 -38l-29 -19l-32 -17l-33 -16l-6 8l102 94l41 44l35 43l14 21l11 17l-6 9l-18 24l-36 -25l-30 -18l-31 -16l-33 -16l-36 -13l-4 8l84 66l48 43l22 21l19 21l17 21
l9 11h-121v22h165l53 54l65 -54v-22h-82l-25 -29l-21 -21l-46 -40l-6 -5l23 -19l29 -32l13 -19l4 -3l-1 -1l9 -13l15 -32l8 9l52 64l21 29l19 29l5 8v1zM410 620l-21 41l-16 26l-19 24l-20 25l-12 10l5 8l15 -7l16 -6l15 -7l14 -9l28 -20l13 -11l25 -26l12 -14l3 -24
l-14 -20l-24 -4zM661 908l12 -15l-21 -4l-14 -27l-29 -46l-17 -25l-39 -48l-22 -25l-24 -25l-27 -24l-7 6l66 115l27 50l20 48l8 22l6 16h-1l5 12zM885 783l-33 43l-14 22l-12 22l-11 22l-9 23l-6 23l-5 23l9 4l57 -70l33 -34l36 -34l51 -41l-58 -44zM439 825l-12 27l-15 25
l-17 26l-19 25l-12 11l6 8l14 -8l16 -7l15 -8l14 -9l13 -10l26 -23l12 -13l21 -28l2 -24l-15 -20l-24 -2l-20 16z" />
  </g>

</svg>
