<?xml version="1.0" standalone="no"?>
<!DOCTYPE svg PUBLIC "-//W3C//DTD SVG 1.1//EN" "http://www.w3.org/Graphics/SVG/1.1/DTD/svg11.dtd" >
<svg xmlns="http://www.w3.org/2000/svg" xmlns:xlink="http://www.w3.org/1999/xlink" version="1.1" viewBox="0 -144 1024 1024">
  <g transform="matrix(1 0 0 -1 0 880)">
   <path fill="currentColor"
d="M371 978l16 -11l-16 -9v-93h25l24 32l32 -32v-21h-81v-151l-64 -32v54h-24v-122h68l33 26l59 -48l-27 -21v-186l-65 -32v54h-68v-128h51l54 53l64 -53v-22h-169v-161l-65 -32v193h-174v22h174v128h-73v-38l-65 -32v309l65 -32h73v122h-29v-38l-64 -32v199h-76v21h76v124
l64 -11l17 -11l-17 -9v-93h118v124zM918 88l-8 -10l-9 -10l-11 -8l-11 -6l-13 -5l-13 -4l-13 -1l-13 -1v32l-107 16v16h107l7 1l6 1l6 1l5 2l7 5l4 4l4 4l3 6l3 6l8 23l7 34l6 45l4 56l4 65l3 76l1 86l-1 95l-1 105l-2 63l-1 -1v43h-322l-11 -31l-16 -41l-18 -39l-19 -37
l-14 -24h294l44 49l54 -49v-21h-405l-16 -25l-26 -31l-8 5l45 111l13 38l13 39l11 40l10 42l9 42l8 44l7 45l2 10l62 -21l14 -13l-19 -8l-17 -70l-10 -33h315l32 27l60 -49l-27 -15l2 -88l2 -107v-96l-1 -87l-2 -76l-4 -68l-5 -58l-7 -49l-8 -39l-11 -32l-6 -12zM601 349
h155l32 27l59 -48l-26 -22v-113l-65 -32v43h-155v-16l-65 -33v226zM601 328v-103h155v103h-155zM145 571v-164h73v164h-73zM283 571v-164h68v164h-68zM823 451v-21h-284v21h186l44 49zM823 548v-22h-284v22h186l44 48zM817 741v-21h-260v21h162l44 49zM189 844v-108h118v108
h-118z" />
  </g>

</svg>
