<?xml version="1.0" standalone="no"?>
<!DOCTYPE svg PUBLIC "-//W3C//DTD SVG 1.1//EN" "http://www.w3.org/Graphics/SVG/1.1/DTD/svg11.dtd" >
<svg xmlns="http://www.w3.org/2000/svg" xmlns:xlink="http://www.w3.org/1999/xlink" version="1.1" viewBox="0 -144 1024 1024">
  <g transform="matrix(1 0 0 -1 0 880)">
   <path fill="currentColor"
d="M782 71l-64 7l-53 10l-44 16l-35 21l-28 26l-20 30l-14 33l-5 18l-24 -42l-45 -66l-19 -27l5 -22l-19 4l-55 36l8 8l101 87l3 3v335h-92v13l-10 -7v-176l-59 -30v52h-68v-112h33l53 53l65 -53v-22h-151v-193l-53 -27v220h-155v22h155v112h-63v-38l-59 -30v292l59 -30h63
v123h-24v-38l-64 -32v189h-59v22h59v130l64 -11l17 -10l-17 -10v-99h96v130l65 -11l16 -10l-16 -10v-99h6l24 32l33 -32v-22h-63v-141l-65 -32v54h-19v-123h68l30 27l56 -48l-5 -4h80l33 27l59 -48l-27 -22v-285l-5 -2l10 -15l20 -25l22 -20l24 -16l29 -12l38 -9l47 -5
l59 -2l74 2l147 10l-55 -75l-91 -3zM720 261v-7l1 -4l1 -4l1 -1l1 -2l3 -1l3 -1l5 -1h139l33 134h10l-10 -134l19 -13l13 -19l-13 -20l-19 -13h-166l-13 1l-14 3l-13 4l-12 6l-11 9l-9 11l-6 12l-5 13l-2 13l-1 14v163l-32 -37l-30 -32l-32 -29l-7 7l68 106l33 61v18l7 -3
l17 33l12 29h-121v22h129l22 63l10 37l2 6h-84v-16l-54 -27v208l54 -26h45v77h-124v22h283l54 53l65 -53v-22h-130v-77h45l27 26l53 -48l-27 -16v-112l-53 -27v38h-143l50 -23l12 -15l-20 -5l-24 -60l-1 -3h108l44 48l54 -48v-22h-129l40 -44l30 -30l28 -26l14 -11l28 -20
l12 -10l-58 -44l-14 15l-24 31l-9 14l-11 -9v-64l-1 -14l-2 -13l-5 -13l-6 -13l-9 -10l-11 -9l-12 -7l-13 -4l-14 -2l-13 -1v32l-68 14v-78zM129 573v-152h63v152h-63zM245 573v-152h68v152h-68zM750 577l-27 -52l-19 -31l16 -8h89l33 27l14 -12l-16 35l-16 41h-74zM649 822
v-96h45v96h-45zM743 822v-96h50v96h-50zM842 822v-96h45v96h-45zM168 836v-98h96v98h-96zM482 794l-6 16l-22 47l-27 46l-13 14l7 8l32 -21l15 -12l15 -13l13 -13l25 -30l21 -34l10 -18l-2 -24l-18 -17l-24 1l-17 18l-4 16zM743 921v-77h50v77h-50zM720 465v-108h68l6 1l5 1
l3 1h2l1 1l1 1l1 2l1 3l1 5v7v86h-89z" />
  </g>

</svg>
