<?xml version="1.0" standalone="no"?>
<!DOCTYPE svg PUBLIC "-//W3C//DTD SVG 1.1//EN" "http://www.w3.org/Graphics/SVG/1.1/DTD/svg11.dtd" >
<svg xmlns="http://www.w3.org/2000/svg" xmlns:xlink="http://www.w3.org/1999/xlink" version="1.1" viewBox="0 -144 1024 1024">
  <g transform="matrix(1 0 0 -1 0 880)">
   <path fill="currentColor"
d="M396 218l-22 33l-11 17l-27 32l-35 36v-261l-64 -32v267l-23 -40l-24 -35l-25 -34l-28 -31l-30 -30l-33 -28l-35 -24l-5 7l52 64l45 66l21 34l18 35l17 36l14 37l13 38l5 19h-174v22h192v129h-91v-38l-64 -32v441l64 -33h246l32 27l59 -48l-27 -22v-317l-64 -32v54h-91
v-129h56l54 54l64 -54v-22h-174v-63l19 -8l21 -12l38 -26l18 -14l33 -32l15 -16l14 -18l4 -24l-13 -21l-25 -3l-20 14zM704 188l4 -19l-20 6l-27 -21l-50 -32l-56 -29l-63 -27l-34 -12l-37 -10l-4 9l118 75l49 36l41 35l35 37zM889 111l-25 31l-15 14l-32 28l-36 27l-20 13
l4 9l46 -13l22 -9l21 -9l21 -12l19 -12l19 -13l34 -30l16 -17l5 -24l-11 -21l-25 -6l-21 12l-10 17zM981 919v-22h-202l-12 -18l-21 -31l-36 -43l-27 -26l-13 -11h182l32 27l59 -48l-27 -22v-440l-64 -33v33h-236v-17l-64 -32v565l64 -33h36l5 8l44 98l6 16l3 7h-213v22h366
l53 54zM616 440v-134h236v134h-236zM616 591v-129h236v129h-236zM146 731v-135h91v135h-91zM301 731v-135h91v135h-91zM616 747v-135h236v135h-236zM146 892v-140h91v140h-91zM301 892v-140h91v140h-91z" />
  </g>

</svg>
