<?xml version="1.0" standalone="no"?>
<!DOCTYPE svg PUBLIC "-//W3C//DTD SVG 1.1//EN" "http://www.w3.org/Graphics/SVG/1.1/DTD/svg11.dtd" >
<svg xmlns="http://www.w3.org/2000/svg" xmlns:xlink="http://www.w3.org/1999/xlink" version="1.1" viewBox="0 -144 1024 1024">
  <g transform="matrix(1 0 0 -1 0 880)">
   <path fill="currentColor"
d="M883 419v214h-123v-146l-3 -68h126zM296 784l-7 18l-8 16l-20 33l-24 33l-11 13l-26 -63l-13 -28l63 -11l16 -11l-16 -9v-103h20l32 26l59 -48l-27 -21v-232l-64 -32v32h-108v-194l98 42l9 3l-12 30l-18 35l-9 18l-12 16l7 7l33 -25l16 -15l14 -16l27 -36l11 -18l11 -21
l9 -21l9 -22l-3 -25l-19 -15l-25 4l-15 18l-4 21l-5 20l-9 28l-55 -42l-58 -38v-1h-1l-73 -43l-4 -21l-17 10l-35 55l10 4l19 7l37 14v483l-32 -37l-28 -28l-7 6l55 103l34 73l30 78l14 42l13 42l12 44l3 9l59 -27l12 -15l-19 -5l-9 -25l-2 -5l20 -11l18 -13l17 -14l16 -15
l16 -15l14 -17l24 -36l10 -19l-1 -24l-17 -18l-25 1l-17 18l-6 17zM561 949l16 -11l-16 -9v-177h25l44 48l54 -48v-22h-123v-216h32l30 27l56 -48l-27 -19v-283l-59 -30v41h-127v-65l-64 -32v441l64 -32h30v216h-123v22h123v208zM466 223h127v270h-127v-270zM162 526v-107
h108v107h-108zM162 548h108v102h-108v-102zM760 869v-214h123v214h-123zM186 804l-26 -48l-21 -37l-18 -27l41 -20h24v132zM945 104l-5 -12l-6 -12l-9 -11l-11 -9l-12 -7l-13 -4l-14 -3h-13v32l-108 16v16h108l6 1h5l3 1l2 2h1l1 1l1 2l1 4l1 4v7v265h-128l-5 -45l-10 -59
l-13 -54l-18 -47l-21 -43l-25 -37l-28 -30l-33 -23l-35 -16l-4 8l28 23l24 26l21 31l18 35l16 40l12 45l10 51l6 56l3 62v500l59 -29h123l33 27l59 -49l-27 -21v-716l-1 -14z" />
  </g>

</svg>
