<?xml version="1.0" standalone="no"?>
<!DOCTYPE svg PUBLIC "-//W3C//DTD SVG 1.1//EN" "http://www.w3.org/Graphics/SVG/1.1/DTD/svg11.dtd" >
<svg xmlns="http://www.w3.org/2000/svg" xmlns:xlink="http://www.w3.org/1999/xlink" version="1.1" viewBox="0 -144 1024 1024">
  <g transform="matrix(1 0 0 -1 0 880)">
   <path fill="currentColor"
d="M691 582l4 -19l-22 5l-12 -8l-34 -19l-18 -9l-41 -16l-21 -7l-19 -6v-162h77l34 38l43 -38v-21h-154v-175h352v175h-151v21h151v175h-158v22h158l32 27l59 -49l-27 -21v-393l-64 -32v54h-352v-38l-59 -29v483l47 -23l38 26l33 25l27 24l22 24l6 7v1l5 5zM383 782l-10 17
l-11 17l-13 17l-14 17l-32 33l-18 18l-2 1l-35 -70l-24 -40l-25 -38l-27 -36l-19 -24l46 -22h45v134l65 -11l16 -11l-16 -9v-103h43l30 26l56 -48l-27 -19v-234l-59 -29v29h-153v-198l133 46l14 4l-15 27l-24 36l-14 18l-15 17l6 8l20 -12l20 -13l19 -14l17 -16l17 -17
l15 -18l14 -20l12 -20l12 -21l10 -22l-1 -25l-18 -17l-25 2l-16 18l-6 21l-7 20l-7 19l-7 14l-45 -27l-93 -50l-109 -52l-3 -1l-5 -21l-16 12l-31 57l84 26v494l-20 -21l-31 -30l-33 -28l-7 7l72 104l44 74l20 39l37 81l17 42l18 52l58 -30l11 -16l-20 -4l-10 -25l27 -13
l22 -12l21 -13l19 -15l18 -16l17 -17l15 -17l14 -19l13 -19l1 -25l-16 -18l-25 -2l-18 16l-7 18zM199 526v-107h153v107h-153zM199 548h153v102h-153v-102zM896 985l46 -39l1 -17l-21 9l-43 -14l-37 -12l-38 -10l-77 -18l-40 -7l-40 -7l-41 -4l-27 -3l-8 -3l-4 -14l-9 -32
l-22 -64l-13 -30l-13 -28l-31 -53l-17 -23l-19 -22l-8 5l28 81l17 56l8 30l7 30l7 31l6 33l4 28h-1l1 4l3 11l53 -19l110 33l74 24l71 26l69 29zM909 677l-11 40l-7 21l-17 42l-20 43l-23 46l8 6l37 -37l17 -19l29 -40l24 -41l11 -21l18 -42l-3 -25l-19 -15l-24 3l-16 19z
M692 706l-2 17l-3 16l-7 33l-5 16l-10 33l-7 16l8 6l12 -14l12 -13l23 -29l9 -16l17 -34l7 -18l12 -37l-6 -24l-21 -13l-24 6l-13 21z" />
  </g>

</svg>
