<?xml version="1.0" standalone="no"?>
<!DOCTYPE svg PUBLIC "-//W3C//DTD SVG 1.1//EN" "http://www.w3.org/Graphics/SVG/1.1/DTD/svg11.dtd" >
<svg xmlns="http://www.w3.org/2000/svg" xmlns:xlink="http://www.w3.org/1999/xlink" version="1.1" viewBox="0 -144 1024 1024">
  <g transform="matrix(1 0 0 -1 0 880)">
   <path fill="currentColor"
d="M353 85l-8 -10l-10 -8l-11 -8l-11 -6l-13 -5l-13 -3l-13 -1l-13 -1v32l-86 16v16h86l7 1l7 1l11 3l9 6l8 8l4 5l4 7l9 18l7 21l7 25l5 28l5 31l3 35l3 38l1 41v39h-1v43h-206l-65 -33v527l65 -32h156l54 54l64 -54v-22h-130v-129h28l44 49l54 -49v-21h-126v-124h28l44 49
l54 -49v-21h-126v-124h62l32 27l57 -47l89 237l36 112l33 115l16 60l2 8l60 -25l12 -15l-18 -5l-33 -99l-43 -113l-22 -54l-6 -14l27 -4l16 -11l-16 -10v-565l-64 -32v543l-33 -63l-28 -49l-29 -46l-9 4l9 22l-23 -13l1 -21v-46l-1 -43l-3 -40l-4 -37l-5 -35l-7 -32l-7 -29
l-10 -27l-11 -23l-7 -12zM747 112h65l6 1l5 1l3 1l3 1v1l1 1l1 1l1 4l1 5v6v554h-212v21h212v280l65 -11l16 -11l-16 -9v-249h14l33 38l43 -38v-21h-90v-554l-1 -13l-2 -14l-5 -13l-6 -12l-9 -11l-11 -9l-12 -7l-13 -4l-13 -2l-14 -1v32l-65 16v16zM51 122l-10 23l8 23l7 6
l7 11l7 13l7 17l6 21l5 24l5 27l3 30l4 33l2 37h10l6 -36l5 -34l4 -31l1 -29l-1 -27l-2 -25l-4 -23l-6 -21l-8 -19l-11 -18l-22 -10zM172 161l-21 13l-6 24l4 13l3 14l2 15l2 33v17v19l-2 19l-1 20l-4 21l9 4l9 -20l10 -19l8 -19l13 -37l4 -18l3 -19l3 -17l1 -18v-18
l-13 -21zM220 267v14l-2 14l-1 14l-3 15l-3 15l-4 15l-4 16l-7 15l8 5l11 -13l12 -12l10 -14l10 -14l8 -14l8 -15l12 -32l4 -16l4 -17l-9 -22l-22 -11l-23 8l-11 22l2 13v14zM276 338l-3 12l-7 22l-12 23l-6 12l-9 10l6 8l12 -8l13 -8l11 -8l12 -9l10 -10l19 -23l7 -13
l7 -14l7 -14l-5 -24l-20 -14l-24 5l-14 19l-1 12zM716 416l-5 21l-7 20l-8 20l-10 20l-22 41l-27 41l7 7l21 -15l19 -17l18 -17l31 -38l14 -20l12 -22l11 -22l9 -23l8 -24l-5 -24l-19 -14l-25 4l-14 20l-3 21zM144 602v-124h80v124h-80zM144 747v-124h80v124h-80zM144 897
v-129h80v129h-80z" />
  </g>

</svg>
