<?xml version="1.0" standalone="no"?>
<!DOCTYPE svg PUBLIC "-//W3C//DTD SVG 1.1//EN" "http://www.w3.org/Graphics/SVG/1.1/DTD/svg11.dtd" >
<svg xmlns="http://www.w3.org/2000/svg" xmlns:xlink="http://www.w3.org/1999/xlink" version="1.1" viewBox="0 -144 1024 1024">
  <g transform="matrix(1 0 0 -1 0 880)">
   <path fill="currentColor"
d="M824 90l-45 27l-40 30l-24 24l-33 -26l-53 -31l-57 -25l-62 -20l-66 -13l-70 -7l-1 9l67 18l62 20l56 25l51 29l46 32l29 26l-8 10l-24 39l-17 43l-11 45l-1 13l-24 -35l-24 -28l-24 -26l-26 -25l-28 -23l-30 -20l-7 7l64 83l19 28l34 59l27 62l21 60h-1l5 13l58 -29
l12 -15l-20 -4l-22 -49l-5 -8h159l33 27l59 -48l-27 -16l-12 -6l-19 -38l-33 -54l-38 -48l-20 -19l19 -15l37 -23l42 -21l46 -17l94 -28l-63 -56l-55 21zM375 88l-9 -10l-10 -8l-11 -8l-12 -5l-12 -5l-13 -3l-13 -2h-14v32l-86 16v16h86l15 1l6 2l6 2l9 6l5 3l8 11l5 6l9 17
l8 22l7 24l7 27l5 31l3 34l3 38l2 40v38l-2 -1v43h-232l-65 -32v520l65 -32h186l54 54l64 -54v-22h-146v-127h23l54 54l64 -54v-21h-141v-122h23l54 54l64 -54v-21h-141v-122h74l32 27l59 -48l-26 -16l1 -20v-45l-1 -43l-3 -40l-4 -37l-6 -34l-7 -32l-9 -29l-11 -26l-11 -24
l-8 -11zM47 126l-9 23l9 23l8 6l8 10l7 13l8 17l6 20l5 23l5 27l7 62l2 36l10 1l7 -36l4 -34l4 -31v-28v-27l-3 -25l-4 -23l-7 -21l-10 -19l-12 -17l-22 -9zM179 164l-20 13l-6 24l4 13l2 13l2 14l2 16l1 16v18l-1 18l-2 19l-2 20l-5 21l10 3l19 -37l9 -19l7 -19l5 -17
l5 -19l4 -18l2 -18l1 -17v-18l-13 -21zM234 268v13l-2 14l-2 14l-3 15l-8 29l-5 16l-8 15l8 6l24 -25l11 -13l10 -14l9 -14l8 -15l7 -15l6 -16l5 -16l3 -17l-8 -23l-22 -11l-23 8l-11 22l1 13v14zM640 387l-5 -9l10 -27l19 -39l22 -35l25 -32l5 -4l16 19l32 45l27 50l13 32
h-164zM297 326l-2 11l-3 11l-4 11l-11 23l-6 12l-8 12l-11 10l6 8l13 -8l14 -7l12 -8l12 -9l12 -10l10 -10l9 -12l9 -13l7 -13l7 -15l-4 -24l-20 -14l-24 4l-15 19l-1 11zM675 684l14 -12l-19 -9l-2 -12l-10 -32l-14 -30l-15 -28l-19 -27l-22 -25l-23 -22l-27 -21l-30 -19
l-32 -16l-5 8l25 25l43 47l18 24l15 25l13 24l10 26l7 27l6 27l3 28l2 11zM819 473l-13 2l-12 4l-12 5l-11 9l-9 9l-6 12l-5 12l-4 14l-1 13v167l65 -11l16 -11l-16 -9v-147v-4l1 -2l1 -2l1 -2l2 -1l4 -2l5 -1l7 -2h80l27 92h11l-11 -92l16 -10l11 -16l-11 -17l-16 -10h-107
h-13zM145 598v-122h94v122h-94zM145 741v-122h94v122h-94zM903 740l-6 19v1l-69 -16l-126 -24l-121 -19l-57 -9l-9 -18l-13 15l-17 63l10 1l83 5l92 158l26 49l9 20l6 10l53 -37l9 -18h-20l-38 -53l-36 -47l-39 -46l-21 -22l-12 -12l49 4l41 2l42 2l86 5h43h23l-10 21
l-21 36l-25 37l-15 18l6 8l40 -27l18 -15l17 -15l15 -17l14 -18l13 -18l12 -19l11 -20l9 -20l-3 -25l-19 -16l-24 3l-16 18l-4 19zM145 889v-127h94v127h-94z" />
  </g>

</svg>
