<?xml version="1.0" standalone="no"?>
<!DOCTYPE svg PUBLIC "-//W3C//DTD SVG 1.1//EN" "http://www.w3.org/Graphics/SVG/1.1/DTD/svg11.dtd" >
<svg xmlns="http://www.w3.org/2000/svg" xmlns:xlink="http://www.w3.org/1999/xlink" version="1.1" viewBox="0 -144 1024 1024">
  <g transform="matrix(1 0 0 -1 0 880)">
   <path fill="currentColor"
d="M366 116l114 19v233l64 -10l16 -11l-16 -10v-193l20 3l76 11l39 4l39 4l40 2l2 -9l-75 -26l-149 -40l-125 -32l-8 -19l-14 13zM76 120l78 11l19 3v231l65 -11l16 -10l-16 -10v-192l90 11l35 4l36 3l37 1l1 -9l-69 -23l-33 -11l-103 -27l-112 -28l-8 -18l-14 13zM877 65
l-29 18l-24 26l-20 30l-15 35l-10 40l-7 44l-3 48l1 53v13l25 -6v32h-572l-65 -32v256l-37 -7h-3l-10 -19l-13 15l-16 63l10 1l25 1l27 1l26 2l20 43l9 22v1h-157v21h107v215l65 -32h252l44 49l53 -49v-22h-349v-40h241l33 37l43 -37v-22h-42l42 -36v-22h-317v-41h289l34 38
l43 -38v-21h-313l-11 -13l-16 -16l-29 -26l-9 -8l38 4l162 16l22 1l-26 22l-15 8l4 9l17 -5l17 -4l16 -4l16 -6l14 -6l14 -7l26 -16l12 -9l12 -10l6 -24l-12 -21l-24 -7l-21 12l-12 19l-15 20l-16 17l-74 -22l-80 -20l-102 -23l-13 -3l58 -28h572l32 27l59 -49l-27 -21v-154
l-64 -32l39 -9l16 -12l-16 -8l-1 -29l3 -44l6 -38l9 -31l10 -26l13 -21l15 -15l17 -10l12 -5l29 128h11l-10 -134l1 -1l22 -10l8 -23l-11 -23l-23 -8l-35 6zM672 182l-32 36l-53 44l-13 8l4 9l14 -4l30 -6l28 -8l14 -5l26 -12l12 -6l12 -8l11 -22l-8 -23l-22 -11zM376 182
l-32 36l-52 44l-13 8l3 9l14 -4l31 -6l27 -8l14 -5l26 -12l13 -6l11 -8l11 -22l-7 -23l-22 -11zM667 284l-7 7l-17 16l-48 33l-15 7l3 10l16 -5l17 -1l30 -6l27 -6l23 -8l22 -10l12 -21l-7 -24l-21 -12l-24 7l-5 6zM366 285l-15 14l-19 16l-34 25l-14 7l3 10l15 -5l31 -4
l14 -3l13 -3l25 -7l22 -9l10 -5l12 -21l-7 -24l-21 -12l-24 7l-5 7zM633 421l-82 37l-36 14l-63 -16l-46 -9l-48 -8l-50 -7l-51 -4l-2 10l142 43l47 16l-140 47l2 9l43 -3l40 -4l76 -13l36 -8l14 -3l85 35l35 16h-412v-154h572v154h-116l35 -32l1 -18l-21 9l-35 -15l-54 -19
l25 -8l28 -10l17 -18v-24l-17 -17h-25zM959 765l30 -31l1 -18l-20 8l-18 -9l-30 -12l-34 -12l-37 -11l-40 -11l-43 -9l-45 -8l-49 -8l-52 -6l-56 -5l-1 10l150 43l84 27l69 28l31 14l26 15l22 14zM911 867l30 -31l1 -19l-20 9l-42 -19l-60 -22l-33 -10l-73 -18l-39 -9
l-43 -7l-44 -6l-2 9l186 74l58 27l26 14l23 13l16 11l5 3zM211 865v-36h241l32 36h-273zM880 969l28 -29l1 -18l-20 8l-36 -17l-54 -22l-63 -21l-35 -10l-37 -10l-39 -9l-42 -9l-3 10l171 81l53 28l44 26l14 10v1v-1l5 3z" />
  </g>

</svg>
