<?xml version="1.0" standalone="no"?>
<!DOCTYPE svg PUBLIC "-//W3C//DTD SVG 1.1//EN" "http://www.w3.org/Graphics/SVG/1.1/DTD/svg11.dtd" >
<svg xmlns="http://www.w3.org/2000/svg" xmlns:xlink="http://www.w3.org/1999/xlink" version="1.1" viewBox="0 -144 1024 1024">
  <g transform="matrix(1 0 0 -1 0 880)">
   <path fill="currentColor"
d="M846 67l-49 17l-29 9l-67 16l-124 29l1 9h45l43 -1l40 -2l37 -3h4v25h-334v-3l48 -41l2 -17l-22 9l-9 -3l-50 -13l-28 -5l-65 -12l-37 -5l-80 -10l-45 -3l-47 -3l-2 10l201 56l61 19l26 9l24 9l6 3h-103l-65 -33v208l-91 -8l-98 -7l-1 10l190 34v33l49 -24l119 24l78 16
l6 2v88h-274v22h515l31 34h-602l1 -7l-2 -15l-5 -15l-7 -15l-9 -13l-12 -12l-14 -10l-16 -10l-25 3l-16 18l2 24l18 17l11 1l10 3l9 4l8 4l7 6l7 8l7 9l6 12l5 14l1 16h10l2 -17v-3h332v72l-3 2l-5 9l-13 18l-25 26l-31 -9l-43 -12l-80 -19l-132 -28l-27 -5h-3l-11 -19
l-12 16l-16 63l10 1h25l27 2l27 1l14 28l14 31h-157v21h107v203l65 -33h252l44 49l53 -49v-21h-74l42 -37v-21h-37l37 -33v-21h-317v-37h289l34 38l43 -38v-21h-312l-12 -13l-16 -15l-35 -28l72 6l81 8l44 3l21 2l-25 19l-14 7l3 9l17 -4l16 -3l17 -4l15 -5l15 -6l26 -13
l25 -16l11 -9l7 -23l-9 -20l20 -3l16 -11l-16 -9v-49h344l3 2l3 4l5 7l2 -3l20 17l59 -49l-27 -16l-65 -27v4l-41 -17l-16 -6l-16 -8l-5 8l14 11l48 51h-92l38 -34v-22h-274v-73l70 17l63 18l104 35h1l5 2l3 -9l48 -42l2 -17l-22 10l-66 -19l-60 -15l-65 -15l-70 -14
l-75 -13l-21 -3h286l32 27l59 -48l-27 -22v-162l-52 -27l19 -2l31 -4l54 -11l24 -6l21 -7l16 -17v-25l-18 -17l-25 1l-16 8zM293 227v-40h454v40h-454zM293 288v-40h454v40h-454zM305 350l-12 -2v-38h454v40h-442zM375 495l42 -38l1 -18l-21 9l-24 -9l-50 -15l-28 -7l-30 -6
l-63 -12l-35 -5l-36 -4l-38 -2l-1 10l161 57l52 20l45 21l15 8l5 2zM958 787l33 -33l1 -18l-20 8l-20 -10l-31 -11l-34 -11l-36 -10l-40 -9l-43 -9l-45 -8l-49 -6l-52 -5l-56 -4l-1 10l150 40l84 26l70 26l30 13l26 14l24 14zM908 883l35 -35l1 -18l-20 9l-45 -19l-59 -19
l-33 -10l-36 -9l-37 -8l-40 -7l-42 -7l-44 -5l-2 10l186 69l59 26l25 13l40 22l-1 1l1 -1l4 3zM211 876v-33h241l29 33h-270zM877 978l33 -32l1 -19l-21 9l-38 -17l-26 -10l-59 -20l-32 -9l-71 -19l-40 -8l-41 -7l-3 9l171 77l53 27l45 25l14 9l4 3zM211 934v-37h241l32 37
h-273z" />
  </g>

</svg>
