<?xml version="1.0" standalone="no"?>
<!DOCTYPE svg PUBLIC "-//W3C//DTD SVG 1.1//EN" "http://www.w3.org/Graphics/SVG/1.1/DTD/svg11.dtd" >
<svg xmlns="http://www.w3.org/2000/svg" xmlns:xlink="http://www.w3.org/1999/xlink" version="1.1" viewBox="0 -144 1024 1024">
  <g transform="matrix(1 0 0 -1 0 880)">
   <path fill="currentColor"
d="M824 140l-46 39l-42 44l-30 38l-29 -36l-52 -50l-55 -43l-59 -37l-64 -29l-67 -22l-3 9l61 31l58 35l53 41l48 45l45 50l36 49l-12 19l-28 57l-23 60l-18 65l-12 69l9 2l24 -64l26 -60l29 -55l31 -50l16 25l33 67l29 73l24 73l3 13l59 -27l13 -15l-20 -5l-22 -61l-34 -75
l-38 -70l-29 -42l38 -43l41 -36l44 -32l47 -28l83 -39l-61 -50l-55 30zM51 46l-13 21l5 23l9 11l8 13l9 15l8 16l7 19l7 20l5 23l12 50l4 28h10l3 -29l3 -27v-26v-25l-2 -24l-3 -22l-5 -21l-6 -21l-7 -18l-9 -18l-21 -13zM299 138l-4 29l-3 14l-4 14l-4 14l-13 29l-7 15
l-11 14l7 7l14 -12l14 -10l13 -12l13 -12l10 -14l10 -14l9 -16l8 -16l6 -17l6 -18l-7 -23l-21 -13l-24 6l-12 21v14zM209 75l-22 12l-7 24l4 12l2 13l1 13l1 15v15l-1 16l-1 17l-2 18l-3 18l-6 19l10 4l9 -18l10 -16l18 -34l6 -16l6 -17l4 -17l4 -16l2 -16v-17l-12 -22z
M408 177l-5 13l-11 26l-7 13l-16 25l-9 13l-11 11l5 8l14 -8l16 -7l14 -9l13 -10l25 -23l21 -27l10 -15l8 -16l-1 -25l-18 -16l-25 1l-16 18l-4 14zM94 317v390l-26 -31l-23 -23l-8 6l71 150l26 65l24 69l11 36l3 7l58 -29l12 -16l-20 -3l-23 -52l-2 -5h118l32 27l59 -48
l-27 -16l-14 -6l-13 -19l-24 -30l-29 -31l-18 -17l-30 -26h116l32 26l59 -48l-27 -21v-323l-64 -32v32h-209zM158 521v-150h72v150h-72zM295 521v-150h72v150h-72zM658 736l10 -16l-20 -4l-35 -65l-35 -50l-19 -25l-21 -22l-21 -21l-23 -19l-24 -18l-7 7l48 73l29 49l25 52
l12 26l11 28l8 23h-1l5 12zM158 693v-150h72v150h-72zM295 693v-150h72v150h-72zM887 600l-27 37l-29 36l-34 36l-37 37l5 8l24 -11l24 -13l23 -13l21 -15l39 -32l36 -36l16 -19l15 -20l4 -24l-14 -20l-24 -4l-21 14l-10 19zM187 860l-39 -72l-18 -30l-15 -22l43 -21h79
l13 19l43 78l8 17l10 29l1 2h-125zM732 983l16 -10l-16 -10v-130h123l54 54l64 -54v-22h-501v22h195v161z" />
  </g>

</svg>
