<?xml version="1.0" standalone="no"?>
<!DOCTYPE svg PUBLIC "-//W3C//DTD SVG 1.1//EN" "http://www.w3.org/Graphics/SVG/1.1/DTD/svg11.dtd" >
<svg xmlns="http://www.w3.org/2000/svg" xmlns:xlink="http://www.w3.org/1999/xlink" version="1.1" viewBox="0 -144 1024 1024">
  <g transform="matrix(1 0 0 -1 0 880)">
   <path fill="currentColor"
d="M532 77l-65 -32v427l65 -33h325l32 27l60 -48l-27 -22v-314l-65 -32v43h-325v-16zM49 45l-15 20l4 25l8 11l8 12l7 15l7 17l7 19l12 43l11 50l4 28h9l4 -29l3 -27l1 -26v-24l-1 -24l-3 -22l-4 -21l-4 -20l-7 -19l-7 -18l-20 -13zM264 153l-2 15l-2 14l-3 14l-4 14l-10 29
l-7 14l-8 14l7 6l25 -22l12 -12l12 -13l9 -13l9 -15l8 -15l7 -16l6 -17l6 -17l-7 -24l-21 -12l-24 6l-12 22v14zM189 75l-22 12l-7 23l3 13l4 26l1 30l-1 16l-1 17l-3 36l-5 19l9 4l19 -34l9 -18l13 -33l9 -33l4 -16l2 -16l1 -17l-12 -21zM532 258v-143h131v143h-131z
M727 258v-143h130v143h-130zM361 178l-3 14l-5 12l-4 13l-12 25l-15 25l-9 11l5 7l13 -8l14 -7l25 -19l12 -11l11 -12l10 -13l18 -29l8 -16l-3 -24l-18 -16l-25 2l-16 19l-2 14zM532 418v-138h131v138h-131zM727 418v-138h130v138h-130zM86 319v384l-21 -26l-21 -24l-8 5
l48 118l24 64l21 67l21 70l2 9l59 -28l12 -15l-19 -5l-20 -51l-3 -6h98l32 27l59 -48l-27 -16l-13 -6l-12 -18l-21 -30l-13 -16l-30 -33l-27 -26h101l29 26l57 -48l-27 -19v-325l-59 -30v30h-183zM145 521v-150h64v150h-64zM263 521v-150h65v150h-65zM428 612l-13 21l5 24
l6 7l7 11l6 13l7 17l5 20l6 23l5 25l5 28l8 65h10l4 -34l3 -22h171v105h-171v21h299l54 54l64 -54v-21h-182v-105h177l33 27l59 -48l-27 -16l-11 -5l-15 -32l-14 -26l-15 -26l-9 -11l-7 -13l-9 3l3 14l2 29l9 83h-176v-285l-64 -32v317h-169l1 -18v-27v-25l-2 -24l-3 -21
l-4 -19l-6 -18l-7 -16l-21 -14zM903 558v-21h-159v21h82l34 38zM645 558v-21h-159v21h83l33 38zM145 693v-150h64v150h-64zM263 693v-150h65v150h-65zM645 678v-21h-144v21h68l33 38zM881 678v-21h-137v21h61l33 38zM172 860l-18 -40l-33 -61l-15 -25l39 -19h68l11 19l29 60
l8 17l11 32l4 14l1 3h-105z" />
  </g>

</svg>
