<?xml version="1.0" standalone="no"?>
<!DOCTYPE svg PUBLIC "-//W3C//DTD SVG 1.1//EN" "http://www.w3.org/Graphics/SVG/1.1/DTD/svg11.dtd" >
<svg xmlns="http://www.w3.org/2000/svg" xmlns:xlink="http://www.w3.org/1999/xlink" version="1.1" viewBox="0 -144 1024 1024">
  <g transform="matrix(1 0 0 -1 0 880)">
   <path fill="currentColor"
d="M85 61l-6 24l12 22l9 5l9 7l9 9l9 9l8 11l7 13l12 32l6 18l3 20h10l1 -21l3 -20v-19l-2 -19l-3 -18l-5 -17l-6 -17l-8 -15l-10 -16l-13 -13l-23 -6zM329 109l3 18v10v10l-2 12l-2 12l-3 12l-4 13l-6 14l-8 13l8 6l10 -11l24 -21l9 -11l9 -12l7 -12l7 -12l5 -13l5 -14
l3 -14l-10 -22l-23 -10l-22 10zM496 146l-9 21l-20 34l-8 12l-10 10l5 8l13 -8l14 -7l25 -15l11 -8l11 -10l9 -9l9 -10l9 -11l8 -10l-1 -25l-17 -17h-25l-17 17l-2 9zM888 90l-8 -10l-9 -9l-11 -9l-11 -6l-13 -5l-13 -4l-13 -2h-13v32l-108 16v16h108l13 1l6 2l8 4l4 3l3 4
l4 4l3 5l3 7l4 9l3 10l3 10l2 12l1 11l2 18v38h-575v-65l-65 -32v425l65 -32h195l3 3l23 44l12 28l4 11l-1 1l5 8l51 -41l7 -18l-27 2l-13 -9l-29 -21l-15 -8h242l32 26l59 -48l-27 -21v-121l-64 -33v33h-457v-44h628l33 37l43 -37v-22h-704v-45h575l32 27l59 -48l-26 -16
v-19l-1 -15l-2 -15l-2 -14l-2 -14l-4 -14l-4 -13l-5 -13l-6 -12zM670 158l-8 16l-12 18l-8 8l-18 18l-12 6l3 9l14 -4l14 -3l13 -3l12 -5l12 -5l12 -6l11 -7l10 -8l10 -10l8 -10l2 -24l-15 -19l-24 -3l-20 16l-1 8zM281 450v-50h457v50h-457zM281 521v-49h457v49h-457z
M185 656l47 16l27 8v67h-177v21h177v92l54 -11l14 -11l-14 -9v-219l-54 -27v76l-58 -38l-92 -56l-3 -21l-17 9l-37 55zM942 688h11l-11 -49l13 -8l9 -13l-9 -13l-13 -9h-161l-13 1l-12 1l-12 4l-11 5l-10 8l-8 9l-7 10l-4 12l-3 13l-1 13v188l54 -11l13 -11l-13 -9v-76
l75 38l29 18l12 8l10 7l8 7l13 -20l29 -30l1 -19l-22 9l-15 -5l-33 -9l-38 -9l-21 -4l-48 -8v-64l-1 -7l1 -6l1 -5l1 -3l1 -3l2 -2l3 -2l5 -2l6 -2l8 -1h140zM434 784h151l29 27l57 -48l-27 -19v-110l-59 -30v41h-151v-16l-59 -30v215zM434 763v-97h151v97h-151zM654 983
l15 -10l-15 -10v-50h186l54 54l64 -54v-21h-304v-49l-59 -30v79h-166v-49l-59 -30v79h-293v21h293v81l59 -11l14 -10l-14 -10v-50h166v81z" />
  </g>

</svg>
