<?xml version="1.0" standalone="no"?>
<!DOCTYPE svg PUBLIC "-//W3C//DTD SVG 1.1//EN" "http://www.w3.org/Graphics/SVG/1.1/DTD/svg11.dtd" >
<svg xmlns="http://www.w3.org/2000/svg" xmlns:xlink="http://www.w3.org/1999/xlink" version="1.1" viewBox="0 -144 1024 1024">
  <g transform="matrix(1 0 0 -1 0 880)">
   <path fill="currentColor"
d="M459 128v-3l1 -2l1 -2l1 -1l2 -2l3 -1l6 -1l7 -1h80v460h-102v-442zM625 204v-89h177v89h-177zM625 301v-76h177v76h-177zM222 301v-76h172v76h-172zM625 392v-70h177v70h-177zM222 392v-70h172v70h-172zM420 683l-23 20l-27 21l-52 34l-1 1l-14 -25l-20 -24l-25 -22
l-29 -18l-34 -15l-37 -13l-42 -9l-45 -6l-3 10l43 16l37 16l32 18l27 17l22 19l16 20l12 19l8 21l3 18h-210v22h211v3v85h-83l-5 -6l-13 -15l-15 -14l-16 -12l-17 -11l-36 -18l-6 8l15 14l12 14l11 15l19 29l7 15l6 16l5 16l5 16l6 26l59 -27l13 -14l-21 -6l-10 -18l-4 -7
h191l53 54l65 -54v-21h-176v-85l-1 -3h76l54 53l64 -53v-22h-197l-1 -7l-7 -21l24 -6l20 -5l20 -6l35 -13l16 -7l29 -15l13 -7l11 -23l-8 -23l-22 -11l-23 7zM632 940h238l32 27l59 -49l-26 -21v-222l-65 -32v65h-238v-38l-65 -32v334zM632 918v-189h238v189h-238zM958 228
h11l-11 -113l18 -12l12 -17l-12 -18l-18 -12h-478l-14 1l-13 2l-13 4l-12 6l-11 9l-9 10l-6 12l-5 12l-3 14v13v65h-172v-65l-65 -32v339l65 -32h172v161h-162v-92l-64 -32v178l64 -33h565l32 27l59 -48l-27 -22v-70l-64 -32v124h-172v-161h177l33 26l59 -48l-27 -21v-256
h62z" />
  </g>

</svg>
