<?xml version="1.0" standalone="no"?>
<!DOCTYPE svg PUBLIC "-//W3C//DTD SVG 1.1//EN" "http://www.w3.org/Graphics/SVG/1.1/DTD/svg11.dtd" >
<svg xmlns="http://www.w3.org/2000/svg" xmlns:xlink="http://www.w3.org/1999/xlink" version="1.1" viewBox="0 -144 1024 1024">
  <g transform="matrix(1 0 0 -1 0 880)">
   <path fill="currentColor"
d="M750 42l-90 12l-80 27l-67 42l-55 56l-17 31l-191 -121l-2 -22l-17 9l-40 52l9 5l32 15v40l-86 -70l-62 -48v-22l-18 8l-44 49l9 6l35 16v394l64 -11l16 -10l-16 -10v-8l2 2l10 -7l23 -11l19 -11l9 -7l16 -13l7 -7l7 -8v-24l-16 -18l-25 -1l-18 17v6l-1 6l-2 8l-5 16
l-10 18l-11 20l-5 4v-109l2 2l9 -8l10 -7l19 -13l17 -15l15 -14l14 -16l1 -24l-15 -19l-25 -2l-19 16l-1 9l-2 8l-2 9l-3 9l-10 29l-9 22l-1 1v-192l35 15l65 24l2 -4v339l65 -11l16 -11l-16 -9v-18l2 2l8 -5l9 -2l10 -4l18 -10l9 -6l16 -15l9 -10l-1 95v1v4l1 13l64 -15
l15 -12l-15 -8v-80l12 -85l23 -71l16 -28v363l54 -27h118l21 27l49 -49l-27 -10v-335l-43 -21v53h-118v-64l-3 -1l9 -10l55 -34l66 -22l79 -10l93 2l80 10l22 95l-48 -25v59h-119v-64l-43 -22v442l43 -21h119l26 27l54 -49l-27 -16v-308l5 21h11l-11 -137l18 -3l13 -21
l-4 -24l-21 -13l-112 -16zM338 263l-8 19l-12 20l-14 20l-7 10v-158l63 24l27 10l47 13l-16 28l-27 83l-9 66l-14 -15l-25 -1l-18 17l-1 8l-3 17l-6 15l-6 16l-9 16l-3 3v-121l12 -4l13 -6l12 -6l23 -14l21 -16l18 -18l4 -24l-14 -21l-24 -4l-20 14zM781 407v-137h41v137
h-41zM865 407v-137h35v137h-35zM547 407v-137h35v137h-35zM625 407v-137h40v137h-40zM781 561v-132h41v132h-41zM865 561v-132h35v132h-35zM547 561v-132h35v132h-35zM625 561v-132h40v132h-40zM246 977l41 -38l1 -17l-21 9l-117 -38l-14 -4l-11 -7v-114h47l34 38l43 -38
v-21h-124v-124h269v124h-102v21h102v108h-113v21h113l32 27l59 -48l-27 -22v-252l-64 -33v33h-269l-65 -33v344l56 -9l20 16l46 32l59 37zM614 655l-64 -32v352l64 -32h218l33 26l59 -48l-27 -21v-239l-65 -32v43h-218v-17zM614 798v-105h77v105h-77zM756 798v-105h76v105
h-76zM614 921v-101h77v101h-77zM756 921v-101h76v101h-76z" />
  </g>

</svg>
