<?xml version="1.0" standalone="no"?>
<!DOCTYPE svg PUBLIC "-//W3C//DTD SVG 1.1//EN" "http://www.w3.org/Graphics/SVG/1.1/DTD/svg11.dtd" >
<svg xmlns="http://www.w3.org/2000/svg" xmlns:xlink="http://www.w3.org/1999/xlink" version="1.1" viewBox="0 -144 1024 1024">
  <g transform="matrix(1 0 0 -1 0 880)">
   <path fill="currentColor"
d="M189 919h678l54 54l64 -54v-22h-796v-328l-3 -75l-5 -71l-8 -66l-10 -61l-13 -57l-16 -51l-19 -45l-21 -41l-24 -34l-28 -28l-7 6l17 33l16 36l14 40l13 45l10 50l8 54l7 59l3 64l2 69v455zM425 115h54l6 1l5 1h3l2 1l1 1l1 2l1 1l1 3l1 5v7v97h-166v-153l-64 -33v457
l64 -32h166l32 27l60 -49l-27 -21v-293l-1 -14l-3 -13l-4 -13l-6 -12l-9 -11l-11 -9l-12 -7l-13 -4l-13 -2l-14 -1v32l-54 16v16zM959 235h11l-11 -113l18 -12l12 -18l-12 -18l-18 -12h-234l-13 1l-13 2l-13 4l-12 6l-10 9l-10 10l-7 12l-4 13l-3 13l-1 14v419l65 -32h171
v108h-171v-38l-65 -32v294l65 -11l16 -10l-16 -10v-65h166l44 48l54 -48v-22h-264v-85h171l32 27l59 -48l-27 -22v-118l-62 -32l47 -43v-21h-220v-75h123l44 48l53 -48v-22h-220v-76h123l44 49l53 -49v-21h-220v-72v-4l2 -4v-2l1 -1l3 -3l4 -1l4 -1l7 -1h205zM334 340v-85
h166v85h-166zM334 451v-89h166v89h-166zM704 511v-85h123l44 49l4 -4v40h-171zM552 701l12 -16l-22 -4l-13 -22l-19 -29l-32 -43l-13 -15l-1 -2h33l54 54l64 -54v-22h-392v22h226l4 9l5 18l10 34l14 48l3 15l4 14l2 9h-1l4 13zM320 624l-2 12l-5 24l-8 24l-9 24l-7 10l7 7
l10 -9l11 -7l11 -9l10 -10l9 -11l9 -11l16 -25l7 -13l6 -14l-3 -25l-19 -15l-25 4l-15 19l-1 13zM232 760h155v105l64 -11l16 -10l-16 -10v-74h37l54 54l65 -54v-22h-375v22z" />
  </g>

</svg>
