<?xml version="1.0" standalone="no"?>
<!DOCTYPE svg PUBLIC "-//W3C//DTD SVG 1.1//EN" "http://www.w3.org/Graphics/SVG/1.1/DTD/svg11.dtd" >
<svg xmlns="http://www.w3.org/2000/svg" xmlns:xlink="http://www.w3.org/1999/xlink" version="1.1" viewBox="0 -144 1024 1024">
  <g transform="matrix(1 0 0 -1 0 880)">
   <path fill="currentColor"
d="M313 109h65h6l5 1l3 1l2 1l1 1l1 1v2l1 3l2 5v6v32h-220v-80l-65 -32v296l65 -32h220l32 27l59 -48l-26 -22v-141l-1 -13l-3 -14l-4 -13l-7 -12l-9 -11l-10 -9l-13 -6l-13 -5l-13 -2l-13 -1v32l-65 17v16zM958 152h11l-11 -49l13 -8l9 -13l-9 -13l-13 -9h-314l-12 1
l-12 3l-12 5l-11 7l-9 10l-7 11l-5 12l-3 13l-2 14v411l65 -11l16 -11l-16 -9v-25h257l33 38l43 -38v-21h-333v-42h225l33 27l59 -48l-27 -22v-56l-35 -18l24 -24v-22h-279v-36h223l24 32l32 -32v-22h-42l42 -36v-22h-279v-13l-1 -7v-9v-3l1 -2l1 -3l6 -5l6 -2l8 -2h280z
M636 207v-36h203l32 36h-235zM179 226v-42h220v42h-220zM179 293v-45h220v45h-220zM636 329v-42h223l10 13l-8 -4v33h-225zM636 407l-57 -29l57 -28h225v57h-225zM178 393l-3 7l-3 7l-4 8l-18 24l-7 9l-11 6l5 9l11 -5l12 -3l12 -3l21 -8l10 -6l18 -12l16 -15l2 -25l-11 -13
h105l3 3l24 36l13 21l5 10l9 19l1 3h-328v21h199v61l65 -11l16 -11l-16 -9v-30h122l34 38l43 -38v-21h-118l38 -33l7 -17l-25 2l-30 -22l-24 -14l-15 -8h101l33 37l44 -37v-22h-484v22h139l-9 7l-1 6zM749 683h110l32 27l59 -48l-27 -22v-60l-64 -32v32h-110l-60 -29v162z
M165 683h110l29 27l57 -48l-27 -19v-63l-59 -29v29h-110l-64 -32v168zM456 683h112l29 27l57 -48l-27 -19v-63l-59 -29v29h-112l-60 -29v162zM749 662v-60h110v60h-110zM456 662v-60h112v60h-112zM165 662v-60h110v60h-110zM45 778v24l17 18l10 3l9 3l9 5l8 6l8 7l7 9l6 11
l5 13l6 16l1 17h10l2 -18v-4h337v45h-323v22h655l33 38l43 -38v-22h-344v-45h360l5 3l3 7l2 -2l23 19l59 -49l-27 -16l-42 -17l-22 -13l-20 -10l-12 -4l-9 -6l-6 7l8 8l17 29l5 9l7 13h-351v-139l-64 -32v171h-334v-8l-2 -16l-3 -16l-6 -15l-8 -15l-11 -13l-13 -11l-15 -11
h-25zM426 754v-22h-280v22h204l33 37zM878 754v-22h-280v22h203l34 37zM840 817v-21h-242v21h144l44 49zM426 817v-21h-253v21h155l44 49z" />
  </g>

</svg>
